<?xml version="1.0" ?><svg id="Layer_1" style="enable-background:new 0 0 128 128;" version="1.1" viewBox="0 0 128 128" xml:space="preserve" xmlns="http://www.w3.org/2000/svg" xmlns:xlink="http://www.w3.org/1999/xlink"><g><polygon points="115,119 101,119 101,1 27,1 27,79 13,79 13,87 35,87 35,9 93,9 93,119 35,119 35,96 27,96 27,119 13,119 13,127    115,127  "/><rect height="8" width="8" x="48" y="27"/><rect height="8" width="8" x="72" y="27"/><rect height="8" width="8" x="48" y="57"/><rect height="8" width="8" x="72" y="57"/><rect height="8" width="8" x="48" y="87"/><rect height="8" width="8" x="72" y="87"/></g></svg>