<?xml version="1.0" encoding="utf-8"?>
<!-- Generator: Adobe Illustrator 27.5.0, SVG Export Plug-In . SVG Version: 6.00 Build 0)  -->
<svg version="1.1" xmlns="http://www.w3.org/2000/svg" xmlns:xlink="http://www.w3.org/1999/xlink" x="0px" y="0px"
	 viewBox="0 0 2500 2500" style="enable-background:new 0 0 2500 2500;" xml:space="preserve">
-
<g id="Illustration">
	<g id="Earth_Day_1_">
		<circle style="fill:transparent;" cx="1250" cy="1250" r="915"/>
		<g>
			<path style="fill:#776E42;" d="M841.979,1093.478c-0.161,0-0.325-0.017-0.491-0.054
				c-54.149-12.299-123.909-39.777-148.73-100.838C659.67,911.18,721.543,815.365,866.982,722.79
				c1.029-0.652,2.39-0.353,3.044,0.676c0.655,1.027,0.351,2.39-0.676,3.045c-143.438,91.3-204.701,185.205-172.506,264.412
				c24.104,59.302,92.493,86.132,145.621,98.198c1.186,0.271,1.931,1.451,1.662,2.64
				C843.896,1092.784,842.985,1093.478,841.979,1093.478z"/>
			<g>
				<path style="fill:#ff6900;" d="M842.839,860.352c-32.581-20.514-38.028-53.951-25.425-68.299
					c12.603-14.348,46.84-13.573,71.065,16.34c24.115,29.777,33.737,75.591,33.737,75.591S877.678,882.287,842.839,860.352z"/>
				<path style="fill:#776E42;" d="M898.067,864.557c-0.517,0-1.036-0.181-1.453-0.547l-99.088-86.918
					c-0.915-0.803-1.008-2.196-0.204-3.111c0.807-0.917,2.198-1.003,3.111-0.204l99.088,86.918c0.915,0.803,1.008,2.196,0.205,3.111
					C899.287,864.303,898.678,864.557,898.067,864.557z"/>
			</g>
			<g>
				<path style="fill:#ff6900;" d="M761.728,943.435c-17.115,26.897-44.849,31.292-56.698,20.81
					c-11.849-10.481-11.09-38.818,13.788-58.766c24.764-19.858,62.77-27.666,62.77-27.666S780.029,914.674,761.728,943.435z"/>
				<path style="fill:#776E42;" d="M691.192,981.654c-0.521,0-1.042-0.183-1.462-0.553c-0.911-0.807-0.997-2.203-0.189-3.114
					l72.382-81.72c0.814-0.909,2.203-0.99,3.113-0.19c0.911,0.807,0.997,2.203,0.189,3.114l-72.382,81.72
					C692.407,981.402,691.802,981.654,691.192,981.654z"/>
			</g>
			<g>
				<path style="fill:#9E9569;" d="M846.245,684.557c-7.464,46.525-42.532,68.723-64.758,61.432
					c-22.226-7.29-37.804-46.196-15.731-87.833c21.973-41.448,68.982-74.291,68.982-74.291S854.226,634.807,846.245,684.557z"/>
				<path style="fill:#776E42;" d="M760.595,810.485c-0.228,0-0.459-0.034-0.689-0.11c-1.156-0.381-1.785-1.626-1.406-2.784
					l61.369-186.841c0.381-1.156,1.615-1.787,2.784-1.406c1.156,0.381,1.785,1.626,1.406,2.784L762.69,808.97
					C762.384,809.898,761.523,810.485,760.595,810.485z"/>
			</g>
			<g>
				<path style="fill:#9E9569;" d="M643.516,987.327c33.902,4.04,50.995,28.746,46.365,45.028
					c-4.63,16.282-32.343,28.68-63.132,13.935c-30.649-14.677-55.798-47.707-55.798-47.707S607.265,983.007,643.516,987.327z"/>
				<path style="fill:#776E42;" d="M736.391,1047.697c-0.198,0-0.4-0.026-0.598-0.082l-137.862-38.769
					c-1.174-0.33-1.856-1.548-1.527-2.72c0.332-1.171,1.563-1.845,2.719-1.526l137.861,38.77c1.174,0.329,1.856,1.548,1.527,2.719
					C738.239,1047.062,737.354,1047.697,736.391,1047.697z"/>
			</g>
			<g>
				<path style="fill:#9E9569;" d="M942.656,713.824c-25.825,23.419-56.339,20.043-65.802,5.569
					c-9.463-14.474-0.468-44.133,31.533-57.983c31.855-13.787,74.187-11.044,74.187-11.044S970.271,688.782,942.656,713.824z"/>
				<path style="fill:#776E42;" d="M861.513,731.463c-0.719,0-1.423-0.351-1.847-0.997c-0.665-1.018-0.381-2.386,0.637-3.053
					l96.31-63.094c1.018-0.667,2.384-0.379,3.053,0.637c0.665,1.018,0.381,2.386-0.637,3.053l-96.31,63.094
					C862.346,731.347,861.926,731.463,861.513,731.463z"/>
			</g>
			<g>
				<path style="fill:#ff6900;" d="M704.061,816.072c14.157,27.846,4.026,53.411-10.732,58.166
					c-14.758,4.755-38.292-10.026-42.711-40.945c-4.4-30.779,7.978-66.704,7.978-66.704S688.922,786.296,704.061,816.072z"/>
				<path style="fill:#776E42;" d="M698.395,893.029c-0.932,0-1.798-0.594-2.099-1.529l-31.981-99.118
					c-0.372-1.158,0.263-2.401,1.423-2.775c1.156-0.362,2.403,0.267,2.775,1.423l31.981,99.118c0.372,1.158-0.263,2.401-1.423,2.775
					C698.847,892.994,698.619,893.029,698.395,893.029z"/>
			</g>
		</g>
		<g>
			<path style="fill:#776E42;" d="M1829.648,1186.403c-0.971,0-1.863-0.648-2.127-1.632c-0.317-1.176,0.381-2.385,1.557-2.702
				c45.384-12.198,77.629-36.651,95.841-72.682c54.098-107.043-50.986-268.224-139.041-343.45
				c-92.589-79.098-174.153-117.969-268.135-151.999c-1.143-0.416-1.735-1.68-1.322-2.825c0.416-1.143,1.682-1.738,2.825-1.322
				c94.433,34.194,176.401,73.263,269.496,152.791c89.116,76.135,195.277,239.641,140.114,348.794
				c-18.801,37.198-51.986,62.415-98.631,74.951C1830.031,1186.379,1829.837,1186.403,1829.648,1186.403z"/>
			<g>
				<path style="fill:#ff6900;" d="M1653.59,555.831c18.15,40.256,2.151,75.687-19.003,81.427
					c-21.155,5.74-53.408-16.687-57.604-60.64c-4.177-43.754,15.678-93.666,15.678-93.666S1634.182,512.784,1653.59,555.831z"/>
				<path style="fill:#776E42;" d="M1641.676,667.034c-0.969,0-1.858-0.646-2.125-1.628l-39.639-145.893
					c-0.319-1.173,0.375-2.386,1.55-2.704c1.158-0.331,2.386,0.375,2.704,1.55l39.639,145.893c0.319,1.173-0.375,2.386-1.55,2.704
					C1642.064,667.011,1641.868,667.034,1641.676,667.034z"/>
			</g>
			<g>
				<path style="fill:#9E9569;" d="M1546.505,701.778c50.136-20.315,92.772,0.898,98.814,27.032
					c6.042,26.134-22.921,64.526-76.934,67.608c-53.767,3.067-113.954-23.536-113.954-23.536S1492.894,723.501,1546.505,701.778z"/>
				<path style="fill:#776E42;" d="M1498.927,765.295c-1.003,0-1.91-0.689-2.147-1.71c-0.273-1.186,0.467-2.371,1.654-2.644
					l219.991-50.791c1.186-0.28,2.368,0.467,2.644,1.654c0.274,1.186-0.467,2.371-1.654,2.644l-219.991,50.79
					C1499.259,765.278,1499.091,765.295,1498.927,765.295z"/>
			</g>
			<g>
				<path style="fill:#9E9569;" d="M1430.046,577.833c39.356-7.21,67.057,14.535,67.516,34.367
					c0.459,19.832-26.272,43.303-65.853,37.451c-39.401-5.826-79.005-34.102-79.005-34.102S1387.962,585.542,1430.046,577.833z"/>
				<path style="fill:#776E42;" d="M1386.4,617.323c-1.193,0-2.175-0.952-2.205-2.151c-0.03-1.216,0.932-2.229,2.151-2.259
					l132.093-3.253c0.017,0,0.037,0,0.054,0c1.193,0,2.175,0.952,2.205,2.151c0.03,1.216-0.932,2.228-2.151,2.259l-132.093,3.253
					C1386.436,617.323,1386.417,617.323,1386.4,617.323z"/>
			</g>
			<g>
				<path style="fill:#9E9569;" d="M1868.924,664.871c-2.097,54.023-38.985,84.13-65.307,78.882
					c-26.322-5.248-49.423-47.423-30.013-97.888c19.322-50.235,68.348-94.11,68.348-94.11S1871.166,607.104,1868.924,664.871z"/>
				<path style="fill:#776E42;" d="M1797.28,775.299c-0.142,0-0.288-0.013-0.433-0.043c-1.195-0.239-1.97-1.399-1.731-2.594
					l35.297-176.778c0.237-1.195,1.382-1.987,2.595-1.731c1.193,0.239,1.968,1.4,1.729,2.592l-35.297,176.78
					C1799.23,774.573,1798.309,775.299,1797.28,775.299z"/>
			</g>
			<g>
				<path style="fill:#ff6900;" d="M1733.586,824.43c37.81-22.844,74.931-11.231,83.176,9.066
					c8.245,20.297-10.158,54.99-53.319,64.436c-42.964,9.403-94.935-4.296-94.935-4.296S1693.155,848.857,1733.586,824.43z"/>
				<path style="fill:#776E42;" d="M1703.131,882.211c-0.87,0-1.695-0.519-2.043-1.376c-0.456-1.128,0.086-2.414,1.214-2.872
					l140.17-56.86c1.126-0.461,2.411,0.086,2.872,1.214c0.456,1.128-0.086,2.414-1.214,2.872l-140.17,56.86
					C1703.689,882.159,1703.407,882.211,1703.131,882.211z"/>
			</g>
			<g>
				<path style="fill:#ff6900;" d="M1873.188,1013.26c38.451,21.75,46.503,59.779,32.835,76.905
					c-13.668,17.126-52.95,18.088-82.333-14.887c-29.249-32.825-42.756-84.812-42.756-84.812S1832.073,990.002,1873.188,1013.26z"/>
				<path style="fill:#776E42;" d="M1928.051,1110.418c-0.48,0-0.967-0.157-1.371-0.48l-118.268-94.263
					c-0.952-0.76-1.109-2.147-0.351-3.098c0.758-0.952,2.147-1.111,3.098-0.351l118.268,94.263c0.952,0.76,1.109,2.147,0.351,3.098
					C1929.343,1110.134,1928.699,1110.418,1928.051,1110.418z"/>
			</g>
			<g>
				<path style="fill:#ff6900;" d="M1974.53,879.82c6.209,43.715-19.032,73.29-40.95,72.914
					c-21.917-0.376-46.643-30.894-38.42-74.276c8.185-43.185,41.167-85.594,41.167-85.594S1967.89,833.076,1974.53,879.82z"/>
				<path style="fill:#776E42;" d="M1932.706,983.394c-0.013,0-0.026,0-0.039,0c-1.217-0.022-2.188-1.025-2.166-2.244l2.599-151.153
					c0.021-1.204,1.003-2.166,2.205-2.166c0.013,0,0.026,0,0.039,0c1.217,0.021,2.188,1.025,2.166,2.244l-2.599,151.153
					C1934.889,982.431,1933.907,983.394,1932.706,983.394z"/>
			</g>
		</g>
		<g>
			<path style="fill:#FFFFFF;" d="M529.024,1371.265c0,0-57.664-49.223,33.072-163.157c67.598-84.88,213.868-35.277,213.868-35.277
				l8.819,50.711c0,0-121.55,4.087-165.339,128.271C575.655,1475.998,529.024,1371.265,529.024,1371.265z"/>
		</g>
		<g>
			<path style="fill:#FFFFFF;" d="M1365.063,461.643l-0.236-0.048c-35.94-7.289-64.057-35.331-71.443-71.251v0l-0.048,0.236
				c-7.289,35.94-35.331,64.057-71.251,71.443l0,0l0.236,0.048c35.94,7.289,64.057,35.331,71.443,71.251v0l0.048-0.236
				C1301.101,497.146,1329.143,469.029,1365.063,461.643L1365.063,461.643z"/>
			<path style="fill:#FFFFFF;" d="M981.659,474.25l-0.208-0.042c-31.626-6.414-56.367-31.09-62.866-62.698v0l-0.042,0.208
				c-6.414,31.626-31.09,56.367-62.698,62.866l0,0l0.208,0.042c31.626,6.414,56.367,31.09,62.866,62.698l0,0l0.042-0.208
				C925.375,505.491,950.05,480.749,981.659,474.25L981.659,474.25z"/>
			<path style="fill:#FFFFFF;" d="M1211.192,564.226l-0.305-0.062c-46.435-9.418-82.763-45.648-92.305-92.058v0l-0.062,0.305
				c-9.418,46.435-45.648,82.762-92.057,92.305l0,0l0.305,0.062c46.435,9.418,82.762,45.648,92.305,92.057v0l0.062-0.305
				C1128.552,610.096,1164.783,573.769,1211.192,564.226L1211.192,564.226z"/>
		</g>
		<g>
			<path style="fill:#ff6900;" d="M1813.285,1319.364c0,0,34.662,234.505-18.451,324.075
				c-106.356,179.358-302.392,299.11-525.964,297.823c-335.222-1.93-605.408-275.246-603.478-610.468
				c0.468-81.342,16.916-158.854,46.349-229.579c30.475-73.228,180.881-118.732,180.881-118.732s50.194-162.409,110.252-192.219
				c82.207-40.803,174.949-63.513,272.986-62.948c109.164,0.629,211.431,30.036,299.651,80.99
				c31.052,17.935,66.843,89.557,66.843,89.557s61.801,8.941,80.317,29.415c39,43.124,71.886,91.869,97.302,144.863
				C1858.519,1152.512,1813.285,1319.364,1813.285,1319.364z"/>
			<path style="fill:#EFBC73;" d="M1173.276,927.594c-17.378,10.466-7.914,37.683-25.23,47.44
				c-29.697,16.733-109.148-34.229-104.508-72.39c5.024-41.304,109.382-74.342,147.202-42.414
				c24.347,20.553,11.358,59.786,34.929,69.859c19.986,8.54,54.893-8.734,62.375-34.929c9.88-34.593-33.742-64.878-37.425-67.364
				c-44.121-29.781-104.882-13.483-127.242-7.485c-48.301,12.956-59.281,31.955-82.334,24.949
				c-24.347-7.398-29.372-33.829-38.154-54.963c-130.678,64.862-234.716,175.436-291.107,310.936
				c21.67,30.724,74.478,34.368,92.238,88.332c9.341,28.379,2.822,51.956,22.456,67.364c19.991,15.689,41.358,2.704,57.384,19.96
				c9.505,10.237,5.744,18.852,12.475,54.889c6.495,34.776,9.743,52.163,19.96,62.374c29.46,29.444,101.909,6.954,102.293-4.99
				c0.254-7.907-31.258-5.557-42.415-27.445c-11.634-22.828,13.263-43.759,2.496-64.869c-11.813-23.159-48.829-11.829-59.88-32.434
				c-11.407-21.27,10.356-66.31,44.909-84.828c50.684-27.164,86.824,25.282,137.222,4.99
				c62.717-25.25,44.52-121.659,119.759-157.182c37.939-17.912,67.1-4.982,72.354-19.96
				C1302.972,979.103,1207.762,906.826,1173.276,927.594z"/>
			<path style="fill:#EFBC73;" d="M1102.277,1350.674c40.496-15.834,77.919-6.725,92.441-3.191
				c11.421,2.78,38.751,9.742,64.975,31.333c40.91,33.682,28.884,61.596,63.319,84.425c37.22,24.675,78.081,9.839,84.424,29.021
				c3.434,10.387-8.411,15.146-18.467,39.574c-17.847,43.351,0.407,74.638-18.469,87.063c-10.31,6.788-31.659,7.917-31.659,7.915
				c0.002,0,1.885,25.439-5.276,44.851c-5.019,13.605-10.394,13.172-23.745,31.659c-18.701,25.895-13.538,34.198-27.142,51.216
				c-20.343,25.448-39.794,16.774-52.006,34.088c-25.759,36.52,40.646,103.654,21.107,126.637
				c-14.801,17.408-75.462,5.43-102.014-31.659c-18.723-26.155-38.752,54.632-49.692-9.641
				c-8.984-52.794,5.688-196.986-1.313-213.732c-20.055-47.969-35.184-65.767-29.591-96.377
				c4.814-26.344,19.147-30.264,17.278-49.608c-3.559-36.833-57.199-39.947-63.319-73.871
				C1016.998,1406.401,1062.953,1366.05,1102.277,1350.674z"/>
			<path style="fill:#EFBC73;" d="M1819.951,1072.152c-84.504-20.317-106.456-26.394-143.186-16.331
				c-31.765,8.702-57.281,24.982-108.313,57.542c-48.658,31.045-57.227,44.273-60.926,50.772
				c-21.029,36.928-10.905,77.811,0,121.852c9.52,38.451,19.923,80.464,47.387,88.005c13.164,3.615,20.116-3.474,60.926-20.309
				c52.123-21.502,78.185-32.253,88.004-23.693c19.565,17.055-42.52,83.133-16.923,132.007
				c17.126,32.699,57.319,26.799,71.081,64.311c9.378,25.563-5.707,38.063,0,64.311c4.386,20.177,18.971,38.818,36.801,52.803
				c53.114-89.57,83.893-193.985,84.536-305.636C1879.885,1242.655,1858.497,1152.523,1819.951,1072.152z"/>
			<g>
				<path style="fill:#363E44;" d="M1308.901,1943.478c-1.21,0-2.392-0.004-3.604-0.011
					c-162.717-0.937-315.33-65.184-429.727-180.905c-114.394-115.721-176.879-269.063-175.942-431.781
					c0.937-162.717,65.182-315.33,180.903-429.727c115.721-114.394,269.038-176.87,431.783-175.944
					c162.717,0.937,315.33,65.184,429.724,180.905c114.396,115.721,176.881,269.063,175.944,431.781l-2.205-0.013l2.205,0.013
					c-0.937,162.717-65.182,315.33-180.903,429.727C1622.22,1881.067,1470.269,1943.478,1308.901,1943.478z M1308.71,729.51
					c-160.209,0-311.043,61.952-425.078,174.68c-114.883,113.57-178.664,265.078-179.594,426.617
					c-0.93,161.538,61.102,313.771,174.669,428.654s265.076,178.666,426.615,179.596c1.193,0.006,2.388,0.011,3.578,0.011
					c160.209,0,311.043-61.952,425.078-174.68c114.883-113.57,178.664-265.078,179.594-426.617
					c0.93-161.537-61.102-313.771-174.67-428.654c-113.568-114.883-265.076-178.666-426.615-179.596
					C1311.095,729.514,1309.901,729.51,1308.71,729.51z"/>
			</g>
			<path style="fill:#EFBC73;" d="M1722.655,927.292c-42.407-46.891-92.039-87.13-147.157-118.965
				c-3.852,17.275-3.58,34.239,3.108,47.791c9.341,18.929,28.75,26.338,27.078,44.002c-1.65,17.422-22.593,31.991-40.618,37.233
				c-30.745,8.942-50.275-10.047-60.926,0c-15.992,15.084,19.852,65.595,3.385,81.235c-10.782,10.24-30.277-7.49-50.772,3.385
				c-19.406,10.297-32.049,42.175-20.309,64.311c9.126,17.207,30.675,24.169,47.387,23.693c14.018-0.399,32.837-6.263,84.62-64.311
				c47.845-53.632,54.685-74.304,74.464-74.465c33.235-0.272,57.952,57.732,64.312,54.157c5.907-3.32-27.448-46.581-16.923-74.465
				C1694.754,939.104,1706.443,931.741,1722.655,927.292z"/>
		</g>
		<g>
			<g>
				<path style="fill:#363E44;" d="M1286.127,1425.262c0,0,4.558-37.505-29.29-34.467c-23.809,2.137-16.598,26.193-5.03,32.212
					C1263.737,1429.214,1286.127,1425.262,1286.127,1425.262z"/>
				
					<rect x="1279.273" y="1473.13" transform="matrix(0.9335 0.3585 -0.3585 0.9335 625.2943 -364.0506)" style="fill:#BC8271;" width="30.137" height="62.011"/>
				<path style="fill:#363E44;" d="M1286.128,1427.467c-0.31,0-0.624-0.065-0.922-0.202c-1.107-0.51-1.589-1.819-1.081-2.926
					c0.073-0.157,7.191-15.862,1.432-23.512c-2.92-3.878-8.942-5.137-17.903-3.781c-1.216,0.194-2.328-0.644-2.51-1.847
					c-0.185-1.204,0.644-2.328,1.847-2.511c10.682-1.628,18.125,0.215,22.093,5.493c7.336,9.756-0.611,27.265-0.954,28.006
					C1287.757,1426.993,1286.961,1427.467,1286.128,1427.467z"/>
				<path style="fill:#FFFFFF;" d="M1272.754,1425.251c-12.897,0-19.746-5.682-23.23-10.477c-4.761-6.552-5.353-14.125-4.952-15.32
					c0.385-1.154,1.643-1.772,2.791-1.391c1.01,0.338,1.613,1.337,1.49,2.356c0.019,0.637,0.426,8.135,6.07,13.939
					c4.246,4.367,10.393,6.655,18.175,6.481c0.006,0,0.013,0,0.019,0c1.21,0,2.194,0.975,2.205,2.185
					c0.011,1.219-0.969,2.213-2.186,2.224C1273.009,1425.249,1272.879,1425.251,1272.754,1425.251z"/>
				<path style="fill:#363E44;" d="M1220.353,1477.463c0,0,2.116,26.656,77.08,23.349c0,0-5.398-40.903,23.151-69.452
					C1324.442,1427.502,1265.463,1392.776,1220.353,1477.463z"/>
				<path style="fill:#FFFFFF;" d="M1234.161,1479.411c-0.284,0-0.571-0.054-0.846-0.17c-1.124-0.467-1.658-1.757-1.188-2.881
					c12.133-29.167,30.777-38.778,31.565-39.172c1.087-0.547,2.416-0.106,2.958,0.982c0.547,1.087,0.108,2.409-0.978,2.956l0,0
					c-0.179,0.093-18.015,9.381-29.477,36.926C1235.845,1478.901,1235.025,1479.411,1234.161,1479.411z"/>
				<path style="fill:#BC8271;" d="M1335.731,1489.489c-2.226,2.847-6.909,3.723-12.164,3.625
					c-12.906-0.239-25.046-6.203-33.709-15.773l-7.308-13.459c-4.357-14.615-0.558-29.598,14.057-33.955
					c14.615-4.357,29.994,3.959,34.351,18.573C1330.958,1448.5,1342.531,1480.79,1335.731,1489.489z"/>
				<path style="fill:#BC8271;" d="M1329.991,1456.365c0,0,9.74,5.564,9.958,7.734c0.259,2.591-7.563,6.551-7.563,6.551
					S1330.194,1456.325,1329.991,1456.365z"/>
				<g>
					<path style="fill:#FFFFFF;" d="M1305.773,1462.352c0,0,3.72-3.703,9.06-5.295c1.136-0.339,1.703,9.393,0.471,9.199
						C1309.887,1465.406,1305.773,1462.352,1305.773,1462.352z"/>
					<path style="fill:#363E44;" d="M1319.17,1466.432c7.198-0.521,12.669-5.969,12.669-5.969s-6.199-4.601-13.397-4.08
						c-1.26,0.091-2.464,0.34-3.598,0.677c-1.501,3.028-1.231,6.497,0.455,9.193
						C1316.533,1466.448,1317.834,1466.528,1319.17,1466.432z"/>
				</g>
				<path style="fill:#363E44;" d="M1326.092,1479.549c-0.568,0-1.141-0.08-1.703-0.245c-2.198-0.644-3.878-2.528-4.274-4.799
					c-0.209-1.199,0.594-2.343,1.793-2.551c1.227-0.205,2.343,0.599,2.552,1.794c0.11,0.631,0.568,1.15,1.171,1.326
					c0.624,0.181,1.311-0.022,1.742-0.521c0.797-0.926,2.19-1.027,3.109-0.237c0.924,0.794,1.029,2.185,0.237,3.109
					C1329.544,1478.793,1327.84,1479.549,1326.092,1479.549z"/>
				<path style="fill:#363E44;" d="M1316.174,1436.321c0,0-24.472,47.383-27.56,29.214c-0.168-0.987-43.098-24.067,3.679-43.028
					c0,0,31.577-1.443,40.175,25.325C1332.467,1447.832,1324.239,1446.772,1316.174,1436.321z"/>
				<ellipse style="fill:#BC8271;" cx="1287.609" cy="1466.696" rx="9.811" ry="10.588"/>
			</g>
			<g>
				<path style="fill:#84524D;" d="M1352.198,2086.021c-6.186,0.763-10.608,6.36-9.92,12.555l5.631,50.646
					c0.739,6.648,6.576,11.878,13.917,12.479c25.401,2.078,84.018,5.168,129.372-5.402c0,0-20.642-66.172-87.578-76.619
					L1352.198,2086.021z"/>
				<path style="fill:#BC8271;" d="M1288.042,1778.568l54.688,311.927c1.936,11.04,10.91,19.505,22.051,20.727
					c8.852,0.971,19.996,0.775,31.75-2.946c10.737-3.399,17.876-13.573,17.525-24.829l-9.705-310.944L1288.042,1778.568z"/>
				<path style="fill:#84524D;" d="M1056.518,1880.335c3.393-5.229,1.95-12.214-3.237-15.67l-42.409-28.252
					c-5.567-3.708-13.325-2.6-18.505,2.636c-17.923,18.118-57.979,61.026-79.046,102.56c0,0,63.952,26.737,114.991-17.812
					L1056.518,1880.335z"/>
				<path style="fill:#BC8271;" d="M1204.192,1788.128l-82.775,104.429c-4.91,6.194-13.573,7.94-20.499,4.13l-49.135-27.028
					c-6.9-3.796-15.383-3.189-21.666,1.559c-10.67,8.062-28.29,28.374-15.916,48.815c0.94,1.553,2.154,2.927,3.514,4.13
					l48.472,42.833c40.325,35.634,101.491,33.454,139.178-4.96l141.026-143.751L1204.192,1788.128z"/>
			</g>
			<g>
				<path style="fill:#BC8271;" d="M1425.312,1485.93c0,0,91.195-32.499,124.437-37.866c34.91-5.636,60.017-0.136,66.28,3.692
					c9.922,6.063,41.233,21.481,22.048,25.355c1.166,0.774-21.603-8.865-22.048-4.961c-0.66,5.777-6.481-1.24-6.872-0.973
					c0.417,0.23,5.021,3.109,5.235,7.052c0.24,4.44-2.362,7.175-5.489,8.725c1.016,0.604,4.899,3.877,4.914,7.673
					c0.019,4.935-36.75-9.287-40.781-8.697c-7.395,1.082-98.242,57.008-130.282,56.656
					C1452.221,1516.518,1425.312,1485.93,1425.312,1485.93z"/>
				<g>
					<path style="fill:#BC8271;" d="M1129.856,1486.952c0,0,0.002-0.003,0-0.005c-38.541-57.137-64.79-98.414-73.394-110.839
						c-0.901-1.301-2.481-3.605-5.269-5.93c-10.331-8.618-20.693-3.729-35.69-7.833c-17.017-4.657-23.962-16.914-27.672-14.357
						c-2.58,1.779-1.262,7.14,5.19,16.206c0,0.001-0.001,0.002-0.001,0.002c-5.694-6.325-13.79-14.565-17.276-11.408
						c-3.83,3.86,4.545,14.658,9.931,20.943c-6.519-7.607-12.261-9.702-13.766-7.457c-2.369,3.533,1.313,10.609,10.318,20.328
						c0,0,0,0.001,0,0.001c-8.093-4.974-10.798-4.974-11.644-2.666c-1.546,4.215,6.009,12.066,13.751,17.983
						c8.716,6.661,17.786,8.804,23.538,10.019l0.004,0.003c22.844,42.817,39.417,69.462,55.225,105.336
						C1073.173,1540.138,1127.706,1524.691,1129.856,1486.952z"/>
					<path style="fill:#BC8271;" d="M1028.38,1369.318c-8.817-15.067-8.804-22.37-6.372-23.691
						c4.09-2.222,16.883,7.56,32.543,27.957C1047.153,1373.049,1035.778,1369.853,1028.38,1369.318z"/>
				</g>
				<g>
					<path style="fill:#FFFFFF;" d="M1113.675,1458.774c0,0,62.107,79.242,167.1,63.818
						c104.994-15.424,211.784-71.939,211.784-71.939l36.38,73.861l-131.948,79.569c0,0,53.524,186.562,55.837,255.14
						c0,0-163.327,66.311-328.141-15.541l65.407-229.434c0,0-88.562-3.848-140.143-114.823L1113.675,1458.774z"/>
				</g>
			</g>
		</g>
		<g>
			<g>
				<g>
					<polygon style="fill:#E2A18D;" points="1978.554,2118.409 2042.885,2122.295 2036.967,2038.611 1971.855,2044.514 					"/>
					<path style="fill:#D3BBA3;" d="M1891.878,2162.277h159.143l-9.664-62.938h-64.499l-46.641,14.228
						C1907.357,2119.758,1891.667,2139.694,1891.878,2162.277L1891.878,2162.277z"/>
				</g>
				<g>
					<polygon style="fill:#E2A18D;" points="1843.496,2125.115 1907.882,2122.276 1893.276,2039.664 1829.133,2052.32 					"/>
					<path style="fill:#E6D0BE;" d="M1751.985,2162.277h163.109l-9.306-62.938h-68.824l-46.641,14.228
						C1767.465,2119.758,1751.774,2139.694,1751.985,2162.277L1751.985,2162.277z"/>
				</g>
				<g>
					<g>
						<path style="fill:#363E44;" d="M1995.335,1562.771c0,0,21.404,60.905,26.547,81.431
							c29.29,116.889,43.02,421.259,43.02,421.259h-116.835c0,0-28.148-222.457-41.395-320.001
							c-7.592,18.136-16.144,43.473-22.843,62.975c-3.091,8.999-3.776,18.639-1.993,27.986l36.918,229.04h-114.111
							c0,0-60.391-249.296-44.142-298.734c14.372-43.728,83.12-166.461,83.12-166.461l4.348-37.495H1995.335z"/>
					</g>
					<polygon style="fill:#84524D;" points="1804.645,2065.46 1794.469,2023.758 1912.694,2024.586 1918.755,2065.46 					"/>
					<polygon style="fill:#84524D;" points="1946.793,2065.46 1942.026,2023.758 2063.478,2024.586 2066.313,2065.46 					"/>
					<path style="fill:#FFFFFF;" d="M1906.672,1747.665c-0.545,0-1.089-0.2-1.516-0.603c-0.885-0.838-0.922-2.233-0.086-3.118
						l51.172-54.044c0.842-0.887,2.235-0.922,3.118-0.086c0.885,0.838,0.922,2.233,0.086,3.118l-51.172,54.044
						C1907.839,1747.435,1907.256,1747.665,1906.672,1747.665z"/>
				</g>
			</g>
			<g>
				<path style="fill:#363E44;" d="M1927.448,1268.509c-0.252,0-0.506-0.043-0.756-0.134c-1.143-0.418-1.733-1.682-1.316-2.827
					l20.952-57.478c0.416-1.143,1.684-1.735,2.827-1.316c1.143,0.418,1.733,1.682,1.316,2.827l-20.952,57.478
					C1929.194,1267.953,1928.348,1268.509,1927.448,1268.509z"/>
				<path style="fill:#E2A18D;" d="M1825.924,1255.047c3.635-29.374,8.343-46.175,22.631-57.211
					c19.203-14.831,44.932-7.637,47.606-6.846c1.707,0.505,26.416,6.227,35.625,30.029c9.094,23.506-13.516,50.424-29.668,69.474
					l15.057,45.74c3.891,17.447-0.962,29.415-10.394,33.043c-14.324,5.509-28.042-1.653-37.296-20.384l-13.533-32.236
					c-11.274,1.542-19.53-1.861-24.289-6.685C1823.138,1301.332,1821.644,1289.638,1825.924,1255.047z"/>
				<path style="fill:#363E44;" d="M1869.485,1351.097c-0.861,0-1.679-0.508-2.033-1.352l-12.891-30.708
					c-9.917,0.954-18.771-1.74-24.468-7.517c-4.657-4.722-7.086-9.995-8.124-17.632c-0.164-1.208,0.683-2.319,1.888-2.483
					c1.214-0.161,2.319,0.685,2.483,1.888c0.898,6.617,2.958,11.143,6.892,15.13c5.036,5.105,13.218,7.312,22.421,6.046
					c0.995-0.136,1.947,0.413,2.332,1.333l13.533,32.237c0.471,1.122-0.056,2.414-1.18,2.885
					C1870.06,1351.043,1869.772,1351.097,1869.485,1351.097z"/>
				<path style="fill:#363E44;" d="M1866.512,1281.766c-0.373,0-0.751-0.095-1.096-0.293c-1.057-0.607-1.421-1.955-0.814-3.01
					c1.139-1.979,2.14-3.796,3.18-5.686c0.859-1.559,1.746-3.167,2.756-4.952c0.599-1.059,1.946-1.43,3.004-0.833
					c1.059,0.599,1.434,1.944,0.833,3.004c-1.001,1.77-1.878,3.363-2.73,4.911c-1.055,1.912-2.067,3.751-3.219,5.753
					C1868.017,1281.37,1867.276,1281.766,1866.512,1281.766z"/>
				<path style="fill:#D87355;" d="M1930.097,1213.014c-0.022-0.006-10.27-23.279-45.643-30.275
					c-47.168-9.328-52.792,14.271-52.79,20.501c0.007,25.545,15.753,34.235,17.172,34.577c-2.633,10.341,2.91,21.613,0.277,31.953
					c3.948,1.095,0.495,1.734,4.443,2.829c2.208-10.863,6.453-15.101,12.496-16.213c9.518-1.752,18.484,6.897,19.433,16.223
					c0.866,8.513-2.126,17.453-10.218,22.28c9.65,0.149,23.724,2.612,28.951,2.205
					C1954.712,1279.561,1944.356,1217.127,1930.097,1213.014z"/>
				<g>
					<g>
						
							<ellipse transform="matrix(0.7071 -0.7071 0.7071 0.7071 -295.4299 1747.0105)" style="fill:#D87355;" cx="1961.113" cy="1230.121" rx="36.184" ry="36.184"/>
					</g>
					<g>
						<path style="fill:#B77250;" d="M1961.112,1281.193c-21.168,0-38.388-17.221-38.388-38.388
							c0-21.167,17.221-38.391,38.388-38.391c21.167,0,38.391,17.223,38.391,38.391
							C1999.503,1263.972,1982.28,1281.193,1961.112,1281.193z M1961.112,1208.824c-18.737,0-33.979,15.244-33.979,33.981
							c0,18.737,15.242,33.979,33.979,33.979c18.737,0,33.981-15.242,33.981-33.979
							C1995.093,1224.068,1979.849,1208.824,1961.112,1208.824z"/>
					</g>
					<g>
						<path style="fill:#B77250;" d="M1972.528,1273.582c-21.167,0-38.388-17.221-38.388-38.388
							c0-21.168,17.221-38.388,38.388-38.388c21.168,0,38.388,17.221,38.388,38.388
							C2010.917,1256.361,1993.696,1273.582,1972.528,1273.582z M1972.528,1201.214c-18.737,0-33.979,15.242-33.979,33.979
							c0,18.737,15.242,33.979,33.979,33.979c18.737,0,33.979-15.242,33.979-33.979
							C2006.507,1216.457,1991.265,1201.214,1972.528,1201.214z"/>
					</g>
				</g>
				<g>
					<path style="fill:#FFFFFF;" d="M1845.273,1258.476c0,0-4.438-6.541-10.809-9.353c-1.356-0.598-2.032,16.59-0.562,16.248
						C1840.364,1263.87,1845.273,1258.476,1845.273,1258.476z"/>
					<path style="fill:#363E44;" d="M1829.29,1265.682c-8.587-0.921-15.115-10.542-15.115-10.542s7.396-8.127,15.983-7.206
						c1.504,0.161,2.939,0.6,4.292,1.197c1.791,5.348,1.469,11.475-0.543,16.237
						C1832.435,1265.71,1830.883,1265.853,1829.29,1265.682z"/>
				</g>
			</g>
			<g>
				<path style="fill:#E2A18D;" d="M1823.605,1491.865c-53.067,61.992-100.832,80.053-122.595,57.552
					c-28.097-29.05,47.933-113.734,51.512-118.545C1772.08,1448.227,1804.047,1474.511,1823.605,1491.865z"/>
				<path style="fill:#363E44;" d="M1709.223,1492.741c-0.368,0-0.741-0.093-1.083-0.286c-1.059-0.599-1.434-1.944-0.833-3.004
					c14.036-24.834,34.433-49.122,41.138-57.104c1.208-1.438,2.015-2.396,2.31-2.793c0.728-0.975,2.108-1.176,3.085-0.45
					c0.975,0.728,1.178,2.108,0.45,3.085c-0.317,0.424-1.176,1.451-2.47,2.993c-6.638,7.904-26.839,31.957-40.677,56.438
					C1710.738,1492.339,1709.991,1492.741,1709.223,1492.741z"/>
				<path style="fill:#FFFFFF;" d="M1730.886,1446.951c0,0,75.401-124.432,165.152-120.582
					c83.386,3.577,70.528,11.824,70.528,11.824s35.277,21.313,58.795,133.024c8.688,41.268,11.759,121.265,5.792,168.786
					c0,0-90.889-28.979-201.131-32.418l1.641-107.785l-20.741,22.014L1730.886,1446.951z"/>
				<path style="fill:#363E44;" d="M2032.713,1638.048c-0.043,0-0.086-0.002-0.127-0.004c-1.217-0.069-2.147-1.111-2.076-2.325
					c13.016-227.807-65.716-300.682-66.513-301.391c-0.909-0.81-0.99-2.205-0.181-3.113c0.814-0.911,2.205-0.991,3.113-0.181
					c0.838,0.747,20.724,18.801,39.17,65.606c16.928,42.953,35.669,119.34,28.811,239.328
					C2034.845,1637.142,2033.874,1638.048,2032.713,1638.048z"/>
				<path style="fill:#363E44;" d="M1831.663,1502.004c-0.56,0-1.122-0.213-1.55-0.637c-0.865-0.857-0.874-2.252-0.017-3.118
					l34.851-35.212c0.855-0.868,2.254-0.872,3.118-0.017c0.866,0.857,0.874,2.252,0.017,3.118l-34.851,35.213
					C1832.8,1501.787,1832.232,1502.004,1831.663,1502.004z"/>
				<g>
					<path style="fill:#E2A18D;" d="M1736.646,1555.294c0,0-98.416,27.313-139.133,25.113s-57.579-35.073-57.579-35.073
						s41.917-6.315,55.038-10.84c13.121-4.525,125.49-52.656,125.49-52.656L1736.646,1555.294z"/>
					<path style="fill:#E2A18D;" d="M1577.578,1554.207c-21.333-26.865-26.833-41.341-22.741-44.298
						c6.259-4.523,14.2,1.655,26.925,13.401c7.146,0.986,18.483,3.61,29.784,11.399c4.323,2.979,7.815,6.146,10.588,9.074
						C1605.436,1547.69,1594.277,1550.3,1577.578,1554.207z"/>
				</g>
			</g>
		</g>
		<g>
			<g>
				<polygon style="fill:#84524D;" points="527.227,2004.518 544.008,2080.466 597.049,2080.466 597.049,1999.668 				"/>
				<polygon style="fill:#84524D;" points="714.105,1995.002 733.008,2074.92 793.821,2074.898 779.106,1994.979 				"/>
				<path style="fill:#E6D0BE;" d="M733.001,2072.228l6.723,90.337l168.142-0.06c-22.763-34.969-59.783-75.342-114.245-90.295
					L733.001,2072.228z"/>
				<path style="fill:#F2E6DC;" d="M543.32,2077.348c0,3.306-21.314,86.784-21.314,86.784H644.04l-48.006-86.784H543.32z"/>
				<path style="fill:#363E44;" d="M592.964,1490.326c0,0-24.992,209.013,106.979,531.732h86.072c0,0-66.717-471.004-73.99-520.707
					L592.964,1490.326z"/>
				<path style="fill:#363E44;" d="M535.639,1494.735c0,0-57.542,282.442-12.688,527.322h80.01c0,0,22.31-480.596,42.919-533.936
					L535.639,1494.735z"/>
				<path style="fill:#FFFFFF;" d="M620.522,1775.85c-0.975,0-1.867-0.652-2.129-1.641c-9.483-35.826-28.258-132.905-38.632-199.762
					c-0.187-1.204,0.637-2.33,1.841-2.517c1.208-0.187,2.33,0.637,2.517,1.841c10.357,66.739,29.085,163.6,38.537,199.31
					c0.312,1.178-0.39,2.384-1.568,2.696C620.899,1775.826,620.709,1775.85,620.522,1775.85z"/>
			</g>
			<g>
				<path style="fill:#9E6C5A;" d="M660.469,1206.448c-5.356-19.825-10.226-30.909-21.116-37.099
					c-14.636-8.319-31.611-0.873-33.371-0.069c-1.124,0.513-17.541,6.849-21.551,24.097c-3.959,17.033,1.241,35.569,14.191,47.084
					l-3.035,38.514c-0.974,12.365,8.259,23.178,20.623,24.152l2.801,0.221c12.365,0.974,23.178-8.259,24.152-20.623l2.028-25.728
					c7.895-0.038,14.28-1.822,17.08-5.599C667.286,1244.632,666.777,1229.795,660.469,1206.448z"/>
				<path style="fill:#363E44;" d="M645.593,1258.619c-0.039,0-0.078,0-0.116-0.002c-1.217-0.065-2.151-1.1-2.089-2.317l0.493-9.437
					c0.065-1.216,1.115-2.147,2.317-2.089c1.216,0.065,2.151,1.1,2.089,2.317l-0.493,9.437
					C647.731,1257.706,646.758,1258.619,645.593,1258.619z"/>
				<path style="fill:#363E44;" d="M634.974,1229.444c-0.657,0-1.305-0.291-1.74-0.848c-0.982-1.26-1.856-2.42-2.762-3.626
					c-0.739-0.984-1.503-1.998-2.366-3.122c-0.743-0.967-0.564-2.351,0.401-3.092c0.969-0.745,2.351-0.564,3.092,0.4
					c0.878,1.139,1.649,2.168,2.401,3.165c0.889,1.184,1.746,2.325,2.711,3.561c0.749,0.96,0.579,2.345-0.381,3.094
					C635.925,1229.291,635.448,1229.444,634.974,1229.444z"/>
				<path style="fill:#363E44;" d="M559.702,1199.929c-1.444-10.193,5.648-19.627,15.842-21.071
					c0.016-0.002,0.031-0.003,0.048-0.006c-1.214-1.887-2.063-4.05-2.398-6.417c-1.244-8.778,4.864-16.903,13.642-18.147
					c1.834-0.26,3.634-0.182,5.354,0.157c-0.709-8.42,5.255-16.03,13.726-17.23c4.787-0.678,9.37,0.841,12.758,3.775
					c2.563-5.592,7.828-9.806,14.371-10.733c9.896-1.402,19.08,5.222,20.964,14.924c0.466-0.109,0.937-0.206,1.42-0.275
					c8.778-1.244,16.903,4.864,18.147,13.642c1.244,8.778-4.864,16.903-13.642,18.147c-0.253,0.036-0.504,0.045-0.756,0.068
					c0.985,15.651-15.182,19.705-16.124,20.078c2.816,6.848,5.63,13.695,8.445,20.543c-2.605,1.136-5.697,2.675-8.302,3.812
					c-2.575-7.248-5.903-9.746-10.163-9.922c-6.709-0.277-12.026,6.538-11.771,13.037c0.234,5.932,3.159,11.783,9.188,14.311
					c-6.615,1.042-13.567,1.94-20.839,2.635c-3.793,0.363-7.509,0.655-11.14,0.884c-2.38-1.139-17.711-8.801-22.921-26.371
					C567.535,1214.641,560.895,1208.344,559.702,1199.929z"/>
			</g>
			<g>
				<g>
					<g>
						<path style="fill:#9E6C5A;" d="M821.638,1382.289c0,0,92.115-25.186,102.767-35.674c1.115-1.098,3.076-3.046,6.214-4.792
							c11.628-6.47,20.797,0.191,36.128-1.033c17.396-1.389,18.573-5.766,21.706-2.598c2.18,2.204,2.343,6.615-0.199,8.538
							c-0.001,0.001,0,0.002,0,0.002c6.7-5.097,8.421-2.248,10.258-0.135c1.608,3.399,1.371,5.465-4.878,10.754
							c5.705-4.829,9.277,0.42,9.976,2.061c1.194,2.802-3.307,6.752-8.999,11.082c0,0,0,0.001,0,0.001
							c8.782-3.342,11.411-2.844,11.808-0.444c0.725,4.381-8.511,11.796-17.126,16.119c-9.698,4.866-28.544,7.481-33.963,9.588
							c-11.17,4.341-75.719,31.982-79.462,32.232C854.308,1429.433,821.638,1382.289,821.638,1382.289z"/>
						<path style="fill:#9E6C5A;" d="M950.841,1345.858c11.346-13.016,12.68-20.116,10.56-21.848
							c-3.565-2.913-16.248,4.042-35.226,20.977C933.462,1345.831,943.553,1345.014,950.841,1345.858z"/>
						<path style="fill:#363E44;" d="M945.08,1342.273c-1.133,0-2.097-0.868-2.194-2.017c-0.103-1.212,0.794-2.28,2.009-2.384
							c5.422-0.467,9.472-0.523,12.757-0.19c1.212,0.125,2.093,1.206,1.97,2.418c-0.123,1.212-1.229,2.073-2.418,1.97
							c-3.001-0.306-6.793-0.243-11.935,0.194C945.207,1342.271,945.143,1342.273,945.08,1342.273z"/>
						<path style="fill:#363E44;" d="M970.968,1355.205c-1.102,0-2.054-0.823-2.188-1.942c-0.144-1.21,0.719-2.308,1.927-2.452
							c1.949-0.233,3.886-0.65,5.758-1.24c2.711-0.85,5.307-2.069,7.717-3.617c1.031-0.661,2.392-0.362,3.047,0.661
							c0.659,1.025,0.362,2.39-0.661,3.047c-2.741,1.764-5.695,3.148-8.778,4.117c-2.132,0.672-4.339,1.148-6.556,1.412
							C971.142,1355.201,971.054,1355.205,970.968,1355.205z"/>
						<path style="fill:#363E44;" d="M977.322,1364.989c-1.1,0-2.052-0.82-2.188-1.94c-0.144-1.21,0.717-2.308,1.925-2.455
							c1.953-0.235,3.891-0.652,5.762-1.24c2.704-0.851,5.301-2.067,7.715-3.62c1.027-0.661,2.392-0.359,3.047,0.661
							c0.659,1.025,0.362,2.39-0.661,3.047c-2.745,1.766-5.699,3.15-8.778,4.119c-2.127,0.667-4.334,1.143-6.554,1.412
							C977.498,1364.985,977.41,1364.989,977.322,1364.989z"/>
						<path style="fill:#363E44;" d="M977.55,1379.178c-1.1,0-2.052-0.82-2.188-1.94c-0.144-1.21,0.717-2.308,1.925-2.455
							c1.961-0.237,3.899-0.652,5.76-1.24c2.715-0.853,5.31-2.069,7.717-3.62c1.023-0.655,2.388-0.362,3.047,0.661
							c0.659,1.023,0.364,2.388-0.661,3.047c-2.737,1.761-5.691,3.148-8.778,4.119c-2.117,0.667-4.324,1.141-6.554,1.412
							C977.726,1379.174,977.638,1379.178,977.55,1379.178z"/>
					</g>
					<path style="fill:#FFFFFF;" d="M660.19,1278.281l11.63,1.47c35.927,5.345,67.598,17.946,94.192,40.238l52.579,63.771
						l88.928-38.952l28.663,69.084l-123.47,49.976c-15.559,6.26-33.771-3.251-48.474-11.32l-40.081-23.994l9.917,121.302
						l-227.096-1.103l-7.737-193.717c-5.964-40.663,21.367-72.02,62.358-74.978l35.629-2.571
						C618.199,1275.974,639.262,1276.239,660.19,1278.281z"/>
				</g>
				<path style="fill:#363E44;" d="M561.595,1282.263c-1.143,0-2.11-0.883-2.196-2.041c-0.09-1.214,0.82-2.272,2.035-2.362
					c2.455-0.181,60.383-4.425,82.375-3.264c1.214,0.067,2.149,1.105,2.084,2.321c-0.067,1.217-1.094,2.16-2.321,2.084
					c-21.699-1.165-81.214,3.21-81.811,3.256C561.705,1282.261,561.648,1282.263,561.595,1282.263z"/>
				<path style="fill:#363E44;" d="M723.905,1431.009c-0.355,0-0.715-0.086-1.051-0.267l-28.841-15.664
					c-1.07-0.581-1.466-1.921-0.885-2.991c0.583-1.068,1.916-1.466,2.991-0.885l28.841,15.664c1.07,0.581,1.466,1.921,0.885,2.991
					C725.445,1430.591,724.687,1431.009,723.905,1431.009z"/>
			</g>
		</g>
	</g>
</g>
</svg>
