<?xml version="1.0" encoding="utf-8"?>
<!-- Generator: Adobe Illustrator 27.5.0, SVG Export Plug-In . SVG Version: 6.00 Build 0)  -->
<svg version="1.1" xmlns="http://www.w3.org/2000/svg" xmlns:xlink="http://www.w3.org/1999/xlink" x="0px" y="0px"
	 viewBox="0 0 2500 2500" style="enable-background:new 0 0 2500 2500;" xml:space="preserve">
-
<g id="Illustration">
	<g id="Wanted_employees">
		<ellipse style="fill:transparent;" cx="1250" cy="1250" rx="916.006" ry="915"/>
		<g>
			
				<rect x="681.948" y="845.983" transform="matrix(-1 -1.224647e-16 1.224647e-16 -1 2720.8267 2635.0642)" style="fill:#E6D0BE;" width="1356.93" height="943.099"/>
			
				<rect x="972.583" y="640.447" transform="matrix(-1.836970e-16 1 -1 -1.836970e-16 2636.7532 -84.0737)" style="fill:#F2E6DC;" width="775.662" height="1271.786"/>
			<ellipse style="fill:transparent;" cx="1360.413" cy="1721.578" rx="25.542" ry="25.514"/>
			<path style="fill:#E6D0BE;" d="M1543.421,2041.536h-366.016c-0.553,0-1-0.448-1-1v-17.835c0-0.062,0.006-0.124,0.018-0.185
				l40.173-213.255c0.089-0.473,0.502-0.815,0.982-0.815h285.67c0.48,0,0.894,0.342,0.982,0.815l40.173,213.255
				c0.012,0.061,0.018,0.123,0.018,0.185v17.835C1544.421,2041.088,1543.974,2041.536,1543.421,2041.536z M1178.405,2039.536
				h364.016v-16.742l-40.002-212.349h-284.012l-40.002,212.349V2039.536z"/>
			<path style="fill:#E6D0BE;" d="M1543.421,2063.829h-366.016c-0.553,0-1-0.448-1-1s0.447-1,1-1h366.016c0.553,0,1,0.448,1,1
				S1543.974,2063.829,1543.421,2063.829z"/>
		</g>
		<path style="opacity:0.4;fill:#FFFFFF;" d="M1564.744,1626.079H824.998V585.572c0-26.647,21.602-48.249,48.249-48.249h691.496
			V1626.079z"/>
		<g>
			<path style="fill:#D3BBA3;" d="M1504.307,1549.445H764.562c-0.552,0-1-0.448-1-1V507.938c0-27.156,22.093-49.25,49.249-49.25
				h691.496c0.552,0,1,0.448,1,1v1088.757C1505.307,1548.997,1504.858,1549.445,1504.307,1549.445z M765.562,1547.445h737.745
				V460.688H812.81c-26.054,0-47.249,21.196-47.249,47.25V1547.445z"/>
			<path style="fill:#E6D0BE;" d="M1383.748,1046.126c0,10.157-8.243,18.391-18.411,18.391H903.531
				c-10.168,0-18.411-8.234-18.411-18.391l0,0c0-10.157,8.243-18.391,18.411-18.391h461.806
				C1375.505,1027.736,1383.748,1035.97,1383.748,1046.126L1383.748,1046.126z"/>
			<path style="fill:#E6D0BE;" d="M1383.748,1108.961c0,10.157-8.243,18.391-18.411,18.391H903.531
				c-10.168,0-18.411-8.234-18.411-18.391l0,0c0-10.157,8.243-18.391,18.411-18.391h461.806
				C1375.505,1090.571,1383.748,1098.804,1383.748,1108.961L1383.748,1108.961z"/>
		</g>
		<g>
			<g>
				<g>
					<path style="fill:#FFFFFF;" d="M1278.836,1663.096l-25.539-11.001c3.082-13.421,5.04-26.919,5.936-40.381l27.605-3.227
						l-10.938-93.385l-27.667,3.234c-4.026-13.008-9.068-25.683-15.08-37.903l22.342-16.619l-56.216-75.411l-22.292,16.581
						c-9.901-9.176-20.601-17.649-32.064-25.296l11.013-25.511l-86.431-37.231l-11.013,25.511
						c-13.436-3.078-26.949-5.035-40.426-5.929l-3.229-27.575l-93.488,10.926l3.237,27.637
						c-13.022,4.021-25.711,9.058-37.944,15.063l-16.637-22.318l-75.494,56.155l16.6,22.267
						c-9.186,9.891-17.669,20.579-25.324,32.03l-25.539-11.001h-0.001l-37.271,86.336l25.539,11.001
						c-3.081,13.421-5.04,26.919-5.936,40.381l-27.605,3.227l10.938,93.385l27.668-3.234c4.026,13.008,9.068,25.683,15.079,37.903
						l-22.342,16.62l56.216,75.411h0l22.292-16.582c9.901,9.176,20.601,17.649,32.064,25.296l-11.013,25.511l86.431,37.231
						l11.013-25.511c13.435,3.078,26.948,5.035,40.425,5.929l3.229,27.574l0,0l93.487-10.926l-3.237-27.637
						c13.022-4.021,25.711-9.058,37.945-15.063l16.637,22.318l75.494-56.154l-16.599-22.267c9.186-9.891,17.668-20.579,25.324-32.03
						l25.539,11.001L1278.836,1663.096z M1151.298,1665.271c-37.011,78.728-130.165,115.707-211.179,83.833
						c-89.458-35.197-130.477-138.297-89.608-225.231c37.012-78.727,130.165-115.707,211.179-83.833
						C1151.15,1475.238,1192.168,1578.338,1151.298,1665.271z"/>
				</g>
				<path style="fill:#F2E6DC;" d="M1000.919,1801.279c-27.558,0-55.415-5.5-81.941-16.927
					c-50.748-21.859-89.935-62.151-110.346-113.453c-20.41-51.302-19.599-107.473,2.286-158.166
					c19.738-45.723,55.313-82.781,100.173-104.35c44.413-21.353,94.977-26.231,142.378-13.732c0.534,0.141,0.853,0.688,0.712,1.222
					c-0.142,0.535-0.694,0.851-1.222,0.712c-97.108-25.606-200.371,24.669-240.205,116.942
					c-21.672,50.201-22.476,105.828-2.264,156.633c20.212,50.805,59.022,90.708,109.278,112.355
					c85.725,36.926,185.574,11.375,242.818-62.133c0.339-0.437,0.967-0.514,1.403-0.175c0.436,0.339,0.514,0.968,0.175,1.403
					C1124.075,1773.091,1063.284,1801.279,1000.919,1801.279z"/>
			</g>
			<g>
				<g>
					<path style="fill:#FFFFFF;" d="M1475.168,1328.382l-11.507-4.957c1.388-6.048,2.271-12.129,2.675-18.195l12.438-1.454
						l-4.928-42.077l-12.467,1.457c-1.814-5.861-4.086-11.572-6.794-17.078l10.067-7.488l-25.33-33.979l-10.044,7.472
						c-4.461-4.135-9.282-7.953-14.448-11.398l4.962-11.495l-38.944-16.775l-4.962,11.495c-6.054-1.387-12.143-2.269-18.215-2.672
						l-1.455-12.425l-42.124,4.923l1.458,12.453c-5.868,1.812-11.585,4.081-17.097,6.787l-7.496-10.057l-34.017,25.303l7.479,10.033
						c-4.139,4.457-7.961,9.273-11.411,14.432l-11.507-4.957l0,0l-16.794,38.902l11.507,4.957
						c-1.388,6.047-2.271,12.129-2.675,18.195l-12.438,1.454l4.928,42.078l12.467-1.457c1.814,5.861,4.086,11.572,6.795,17.078
						l-10.067,7.488l25.33,33.979h0l10.044-7.471c4.461,4.135,9.283,7.952,14.448,11.398l-4.962,11.495l38.945,16.776l4.962-11.495
						c6.054,1.387,12.143,2.269,18.215,2.672l1.455,12.424l0,0l42.124-4.923l-1.458-12.453c5.867-1.812,11.585-4.081,17.097-6.787
						l7.497,10.056l34.016-25.302l-7.479-10.034c4.139-4.456,7.961-9.272,11.41-14.432l11.507,4.957L1475.168,1328.382z
						 M1410.729,1326.085c-14.96,31.823-52.615,46.771-85.362,33.887c-36.161-14.227-52.741-55.902-36.221-91.043
						c14.961-31.823,52.615-46.771,85.363-33.887C1410.669,1249.269,1427.25,1290.944,1410.729,1326.085z"/>
				</g>
				<path style="fill:#F2E6DC;" d="M1349.943,1391.195c-12.489,0-25.116-2.493-37.139-7.672
					c-23.001-9.908-40.763-28.169-50.013-51.421c-9.251-23.252-8.883-48.711,1.035-71.688c8.946-20.723,25.071-37.52,45.403-47.295
					c20.128-9.678,43.046-11.89,64.531-6.224c0.534,0.141,0.853,0.688,0.712,1.222c-0.141,0.535-0.696,0.852-1.222,0.712
					c-43.495-11.467-89.747,11.05-107.589,52.378c-9.706,22.485-10.066,47.4-1.013,70.156c9.053,22.755,26.436,40.627,48.945,50.324
					c38.4,16.54,83.12,5.095,108.759-27.829c0.339-0.437,0.967-0.515,1.403-0.175c0.436,0.339,0.514,0.968,0.175,1.403
					C1405.763,1378.418,1378.21,1391.195,1349.943,1391.195z"/>
			</g>
		</g>
		<g>
			<polygon style="opacity:0.5;fill:#FFFFFF;" points="1975.776,348.041 1393.688,348.041 1393.688,507.471 1448.551,507.471 
				1448.551,624.407 1565.616,507.471 1975.776,507.471 			"/>
			<path style="fill:#FFFFFF;" d="M1466.563,643.398c-0.129,0-0.259-0.025-0.383-0.076c-0.374-0.155-0.617-0.52-0.617-0.924V526.462
				h-53.863c-0.553,0-1-0.448-1-1v-159.43c0-0.552,0.447-1,1-1h582.088c0.553,0,1,0.448,1,1v159.43c0,0.552-0.447,1-1,1h-409.746
				L1467.27,643.106C1467.078,643.296,1466.822,643.398,1466.563,643.398z M1412.699,524.462h53.863c0.553,0,1,0.448,1,1v114.524
				l115.357-115.231c0.188-0.187,0.442-0.292,0.707-0.292h409.16v-157.43h-580.088V524.462z"/>
			<polygon style="fill:#D87355;" points="1479.594,425.952 1505.517,429.23 1487.145,447.79 1492.035,473.431 1468.686,461.712 
				1445.785,474.281 1449.727,448.478 1430.683,430.606 1456.468,426.378 1467.6,402.762 			"/>
			<polygon style="fill:#D87355;" points="1587.66,425.952 1613.584,429.23 1595.21,447.79 1600.101,473.431 1576.752,461.712 
				1553.85,474.281 1557.793,448.478 1538.749,430.606 1564.534,426.378 1575.666,402.762 			"/>
			<polygon style="fill:#D87355;" points="1695.726,425.952 1721.65,429.23 1703.276,447.79 1708.167,473.431 1684.818,461.712 
				1661.917,474.281 1665.859,448.478 1646.815,430.606 1672.6,426.378 1683.732,402.762 			"/>
			<polygon style="fill:#D87355;" points="1803.792,425.952 1829.716,429.23 1811.343,447.79 1816.233,473.431 1792.884,461.712 
				1769.983,474.281 1773.925,448.478 1754.881,430.606 1780.667,426.378 1791.798,402.762 			"/>
			<polygon style="fill:#D87355;" points="1911.858,425.952 1937.782,429.23 1919.409,447.79 1924.299,473.431 1900.95,461.712 
				1878.049,474.281 1881.991,448.478 1862.947,430.606 1888.733,426.378 1899.864,402.762 			"/>
		</g>
		<g>
			<g>
				<ellipse style="fill:#E6D0BE;" cx="1769.237" cy="1371.206" rx="189.337" ry="189.129"/>
				<g>
					<defs>
						<ellipse id="SVGID_1_" cx="1769.237" cy="1371.206" rx="171.056" ry="170.868"/>
					</defs>
					<clipPath id="SVGID_00000052792393518770292770000004573686358328012987_">
						<use xlink:href="#SVGID_1_"  style="overflow:visible;"/>
					</clipPath>
					<path style="clip-path:url(#SVGID_00000052792393518770292770000004573686358328012987_);fill:#FFFFFF;" d="M1951.44,1480.951
						c0,0-86.128-43.79-185.884-38.088c-89.178,5.097-175.954,42.849-175.954,42.849l42.499,107.916l278.032,6.745L1951.44,1480.951
						z"/>
					<g style="clip-path:url(#SVGID_00000052792393518770292770000004573686358328012987_);">
						<ellipse style="fill:#84524D;" cx="1682.611" cy="1356.713" rx="62.672" ry="62.603"/>
						<path style="fill:#84524D;" d="M1700.075,1382.216c-11.231,0-23.56-2.656-35.578-8.201
							c-15.376-7.095-27.978-17.805-35.483-30.159c-7.583-12.479-9.076-25.153-4.205-35.687c9.988-21.6,44.042-27.209,75.916-12.505
							c15.376,7.095,27.979,17.805,35.484,30.159c7.583,12.479,9.076,25.153,4.205,35.687
							C1734.192,1374.966,1718.631,1382.216,1700.075,1382.216z M1665.065,1289.434c-17.744,0-32.553,6.838-38.442,19.575
							c-4.582,9.909-3.126,21.916,4.1,33.809c7.302,12.018,19.594,22.452,34.612,29.381c30.874,14.244,63.738,9.073,73.265-11.528
							c4.582-9.91,3.126-21.916-4.1-33.809c-7.302-12.018-19.595-22.452-34.613-29.381
							C1688.101,1292.042,1676.023,1289.434,1665.065,1289.434z"/>
					</g>
					
						<ellipse style="clip-path:url(#SVGID_00000052792393518770292770000004573686358328012987_);fill:#E2A18D;" cx="1771.794" cy="1465.045" rx="75.284" ry="30.833"/>
					
						<rect x="1729.631" y="1300.637" style="clip-path:url(#SVGID_00000052792393518770292770000004573686358328012987_);fill:#E2A18D;" width="83.616" height="174.259"/>
					<g style="clip-path:url(#SVGID_00000052792393518770292770000004573686358328012987_);">
						<path style="fill:#E2A18D;" d="M1854.628,1387.168c-16.114,21.753-88.654,0.703-88.654,0.703l-57.146-59.8
							c-11.851-36.181,7.904-75.107,44.125-86.945c36.221-11.838,75.19,7.896,87.041,44.077
							C1839.993,1285.203,1871.041,1365.013,1854.628,1387.168z"/>
						<path style="fill:#E2A18D;" d="M1838.099,1304.892c0,0,24.701,13.24,25.387,18.642c0.819,6.449-18.46,16.846-18.46,16.846
							S1838.603,1304.779,1838.099,1304.892z"/>
						<g>
							<path style="fill:#FFFFFF;" d="M1777.995,1321.432c0,0,9.047-9.487,22.283-13.812c2.816-0.92,4.876,23.325,1.786,22.924
								C1788.475,1328.781,1777.995,1321.432,1777.995,1321.432z"/>
							<g>
								<defs>
									<path id="SVGID_00000179620610590046777370000016602309937918414477_" d="M1777.995,1321.432
										c0,0,13.307-13.954,31.253-15.731c17.946-1.777,33.737,9.296,33.737,9.296s-13.307,13.954-31.253,15.731
										C1793.785,1332.505,1777.995,1321.432,1777.995,1321.432z"/>
								</defs>
								<clipPath id="SVGID_00000029006388883580065490000016662472108994633883_">
									<use xlink:href="#SVGID_00000179620610590046777370000016602309937918414477_"  style="overflow:visible;"/>
								</clipPath>
								<path style="clip-path:url(#SVGID_00000029006388883580065490000016662472108994633883_);fill:#363E44;" d="
									M1800.648,1306.858c5.89-11.605,20.083-16.244,31.7-10.36c11.618,5.883,16.262,20.06,10.372,31.666
									c-5.89,11.605-20.082,16.244-31.701,10.361C1799.402,1332.64,1794.759,1318.463,1800.648,1306.858z"/>
							</g>
						</g>
						<path style="fill:#363E44;" d="M1829.492,1358.508c-0.904,0-1.815-0.116-2.713-0.354c-3.897-1.034-6.931-4.268-7.729-8.239
							c-0.108-0.542,0.242-1.069,0.783-1.178c0.538-0.106,1.069,0.242,1.178,0.783c0.649,3.23,3.115,5.86,6.28,6.7
							c3.289,0.872,6.809-0.281,8.97-2.934c0.35-0.426,0.979-0.492,1.407-0.144c0.428,0.349,0.492,0.979,0.144,1.407
							C1835.743,1357.088,1832.663,1358.508,1829.492,1358.508z"/>
						<path style="fill:#363E44;" d="M1824.106,1399.141c-26.057,0-57.675-9.073-58.041-9.18c-0.53-0.154-0.836-0.708-0.682-1.239
							c0.153-0.529,0.708-0.837,1.238-0.682c0.421,0.122,42.276,12.133,68.929,8.379c0.557-0.083,1.053,0.304,1.13,0.851
							c0.077,0.547-0.304,1.053-0.851,1.13C1832.154,1398.917,1828.199,1399.141,1824.106,1399.141z"/>
						<g>
							<path style="fill:#84524D;" d="M1706.49,1370.007c-19.947-8.908-27.23-55.133-15.915-85.164
								c14.586-38.718,59.237-62.529,95.88-60.414c9.008,0.52,29.661,4.366,36.823,16.982
								c13.415,23.633-20.075,69.838-33.153,83.697C1770.162,1346.262,1728.408,1379.796,1706.49,1370.007z"/>
							<path style="fill:#84524D;" d="M1720.698,1371.952c-7.55,0-15.212-0.795-22.875-2.431c-0.54-0.115-0.885-0.646-0.769-1.187
								c0.114-0.541,0.644-0.887,1.187-0.769c7.521,1.605,15.048,2.386,22.456,2.386c32.012,0.001,61.845-14.57,79.785-40.125
								c24.982-35.586,14.563-75.951,12.222-83.681c-0.16-0.529,0.139-1.087,0.667-1.247c0.531-0.162,1.088,0.139,1.247,0.667
								c2.39,7.886,13.016,49.064-12.499,85.41C1783.802,1357.068,1753.35,1371.95,1720.698,1371.952z"/>
						</g>
					</g>
				</g>
			</g>
			<g>
				<g>
					<rect x="1587.21" y="1049.648" style="fill:#E6D0BE;" width="364.054" height="27.978"/>
					<rect x="1587.21" y="1113.008" style="fill:#E6D0BE;" width="364.054" height="27.978"/>
				</g>
				<g>
					<ellipse style="fill:#ff6900;" cx="1768.772" cy="844.43" rx="180.548" ry="180.35"/>
					<g>
						<path style="fill:#FFFFFF;" d="M1911.599,929.721c-31.741-21.577-83.663-35.637-142.335-35.637
							c-59.105,0-111.362,14.27-143.035,36.117c29.129,48.201,82.067,80.434,142.543,80.434
							C1829.449,1010.635,1882.53,978.188,1911.599,929.721z"/>
						<g>
							<path style="fill:#E2A18D;" d="M1771.761,958.517L1771.761,958.517c-29.45,1.954-54.91-20.308-56.866-49.726l-7.167-107.75
								l106.647-7.078l7.167,107.75C1823.498,931.13,1801.21,956.562,1771.761,958.517z"/>
							
								<ellipse transform="matrix(0.021 -0.9998 0.9998 0.021 957.5938 2518.9988)" style="fill:#E2A18D;" cx="1765.057" cy="770.53" rx="86.186" ry="73.43"/>
							<path style="fill:#E2A18D;" d="M1704.162,754.368c8.855,13.921,6.417,31.309-5.443,38.836
								c-11.861,7.528-28.654,2.344-37.509-11.577c-8.854-13.921-6.417-31.309,5.444-38.836
								C1678.515,735.263,1695.308,740.446,1704.162,754.368z"/>
							<path style="fill:#E2A18D;" d="M1825.664,756.9c-9.428,13.54-7.719,31.014,3.817,39.029
								c11.536,8.015,28.531,3.536,37.959-10.004c9.428-13.54,7.719-31.014-3.817-39.029
								C1852.087,738.881,1835.092,743.36,1825.664,756.9z"/>
							<path style="fill:#363E44;" d="M1764.596,857.711c-0.454,0-0.906-0.005-1.36-0.014c-19.908-0.415-38.424-9.893-52.138-26.688
								c-0.35-0.428-0.286-1.058,0.142-1.407c0.428-0.35,1.059-0.286,1.407,0.142c13.337,16.332,31.317,25.549,50.63,25.952
								c19.31,0.395,37.663-8.057,51.672-23.82c0.366-0.414,0.998-0.451,1.411-0.083c0.413,0.367,0.45,0.999,0.083,1.412
								C1802.368,849.044,1784.002,857.711,1764.596,857.711z"/>
							<path style="fill:#D87355;" d="M1694.823,746.037c12.256-19.595,31.26-42.366,57.578-45.827
								c34.413-4.526,53.775,27.586,89.187,24.737c17.278-1.39,40.874-11.304,67.21-50.074c-8.285,0.674-16.568,1.349-24.852,2.024
								c8.506-11.262,17.01-22.523,25.516-33.785c-13.054,5.238-32.646,11.57-56.901,13.43
								c-52.317,4.013-78.272-5.651-108.415,1.669C1724.258,663.04,1691.568,684.627,1694.823,746.037z"/>
							<path style="fill:#D87355;" d="M1813.013,716.199c5.056,4.421,11.301,10.918,16.723,19.913
								c2.715,4.503,4.729,8.81,6.237,12.664c1.222-5.105,2.653-14.046,0.596-24.825c-1.647-8.635-4.915-15.203-7.401-19.336
								C1823.784,708.476,1818.397,712.338,1813.013,716.199z"/>
							<path style="fill:#363E44;" d="M1768.198,798.869c-0.325,0-0.644-0.158-0.836-0.449c-0.304-0.461-0.177-1.082,0.284-1.386
								c2.207-1.457,3.396-2.956,3.533-4.453c0.112-1.221-0.494-2.204-1.263-3.451c-0.841-1.365-1.794-2.912-2.099-5.188
								c-0.273-2.046,0.06-4.178,0.99-6.336c0.219-0.508,0.805-0.743,1.314-0.522c0.507,0.219,0.74,0.807,0.521,1.314
								c-0.785,1.82-1.069,3.596-0.844,5.278c0.248,1.854,1.047,3.15,1.819,4.404c0.848,1.376,1.725,2.798,1.552,4.683
								c-0.196,2.132-1.685,4.13-4.424,5.939C1768.579,798.815,1768.388,798.869,1768.198,798.869z"/>
							<path style="fill:#363E44;" d="M1757.06,814.761c-2.738,0-7.912-0.56-12.717-4.174c-2.554-1.922-4.666-4.476-6.107-7.385
								c-0.245-0.495-0.042-1.095,0.452-1.34c0.498-0.247,1.095-0.042,1.341,0.452c1.304,2.632,3.211,4.939,5.518,6.674
								c4.342,3.267,9.029,3.772,11.512,3.772c0.043-0.001,0.096-0.006,0.125-0.001c0.55,0,0.996,0.443,1,0.994
								c0.004,0.552-0.441,1.003-0.993,1.006C1757.146,814.761,1757.104,814.761,1757.06,814.761z"/>
							<g>
								<path style="fill:#FFFFFF;" d="M1819.94,760.015l-0.001,0.004l-0.18-0.04c-0.141,0.368-0.452,0.823-0.852,0.764
									c-0.546,0.514-0.873,1.409-1.268,1.978c-0.709,1.025-2.255-0.139-1.547-1.162c0.476-0.689-2.295,0.414-3.49,0.721
									c-3.809,0.978-7.649,1.785-11.521,2.473c-1.806,0.321-3.615,0.655-5.432,0.913c-1.456,0.207-6.292,1.134-6.636,0.873
									c-5.261,3.798-8.366,7.605-8.366,7.605s6.471,3.816,15.232,5.306c0.039-0.115,0.08-0.228,0.115-0.346
									c0.342-1.158,21.231-3.592,21.675-2.627c9.241-4.477,15.094-11.63,15.094-11.63S1827.454,761.713,1819.94,760.015z"/>
								<path style="fill:#363E44;" d="M1804.913,759.461c-6.319,1.127-11.764,4.095-15.887,7.07
									c0.021,3.859,1.408,7.723,4.233,10.785c0.727,0.788,1.518,1.483,2.353,2.092c3.947,0.696,8.371,0.928,12.888,0.122
									c3.267-0.583,6.285-1.67,9.023-2.983c3.844-4.716,4.627-11.143,2.236-16.568
									C1815.347,758.999,1810.196,758.519,1804.913,759.461z"/>
							</g>
							<g>
								<path style="fill:#FFFFFF;" d="M1720.116,749.833c0,0,0,0.003,0,0.004l0.184,0.002c0.053,0.391,0.251,0.905,0.654,0.939
									c0.414,0.625,0.527,1.572,0.78,2.216c0.455,1.16,2.227,0.381,1.772-0.777c-0.306-0.78,2.139,0.929,3.231,1.5
									c3.484,1.824,7.036,3.488,10.647,5.044c1.684,0.726,3.369,1.465,5.078,2.132c1.37,0.534,5.865,2.544,6.26,2.368
									c4.25,4.901,6.399,9.317,6.399,9.317s-7.174,2.234-16.044,1.68c-0.011-0.121-0.025-0.24-0.032-0.363
									c-0.067-1.205-19.842-8.355-20.496-7.517c-7.969-6.473-12.025-14.775-12.025-14.775S1712.412,749.766,1720.116,749.833z"/>
								<path style="fill:#363E44;" d="M1734.871,752.732c5.892,2.543,10.512,6.678,13.843,10.518
									c-0.905,3.752-3.142,7.195-6.594,9.529c-0.889,0.601-1.818,1.096-2.771,1.498c-4.001-0.226-8.361-1.012-12.574-2.831
									c-3.046-1.315-5.735-3.064-8.099-4.969c-2.66-5.47-1.949-11.905,1.623-16.639
									C1724.82,749.895,1729.944,750.606,1734.871,752.732z"/>
							</g>
						</g>
					</g>
				</g>
			</g>
		</g>
		<g>
			<g>
				<path style="fill:#ff6900;" d="M1474.365,1814.902l121.938-22.113l-162.153-48.722
					c-30.136-67.646-40.144-131.539-40.144-131.539s28.97-1.651,70.531,2.54l73.932,124.166l-6.781-113.162
					c34.391,7.984,71.011,20.456,104.523,39.886c4.714,2.733,9.232,5.57,13.567,8.498l15.307,171.14l44.576-108.432
					c28.707,49.401,26.591,103.229,1.023,134.416c-39.217,47.835-140.011,50.74-216.491-32.395
					C1487.133,1831.513,1480.536,1823.365,1474.365,1814.902z"/>
				<path style="fill:#776E42;" d="M1464.537,1615.069c20.063,2.023,43.055,5.411,67.152,11.004l6.781,113.162L1464.537,1615.069z"
					/>
				<path style="fill:#776E42;" d="M1649.778,1674.458c26.964,18.21,46.681,39.991,59.882,62.709l-44.576,108.432L1649.778,1674.458
					z"/>
				<path style="fill:#776E42;" d="M1474.365,1814.902c-16.249-22.288-29.506-46.796-40.215-70.834l162.153,48.722
					L1474.365,1814.902z"/>
			</g>
			<path style="fill:#776E42;" d="M1744.728,2034.886c-0.485,0-0.911-0.354-0.987-0.848
				c-9.716-63.116-33.772-124.069-69.567-176.271c-29.65-43.239-66.758-80.304-110.29-110.167c-0.456-0.313-0.571-0.935-0.259-1.39
				c0.313-0.457,0.936-0.571,1.39-0.259c43.736,30.002,81.018,67.242,110.81,110.685c35.963,52.447,60.132,113.686,69.894,177.097
				c0.084,0.546-0.29,1.057-0.836,1.141C1744.829,2034.882,1744.778,2034.886,1744.728,2034.886z"/>
			<g>
				<path style="fill:#776E42;" d="M1690.268,1776.433l77.436,35.261l-75.967-100.515c6.135-58.897,22.494-106.891,22.494-106.891
					s17.152,10.85,39.491,30.918l-0.607,115.807l35.238-80.477c16.924,19.706,33.573,43.414,46.036,70.613
					c1.753,3.825,3.359,7.642,4.828,11.445l-50.4,123.799l62.997-55.987c-0.647,45.782-20.466,81.854-45.88,92.684
					c-38.982,16.611-97.677-23.088-112.712-111.786C1691.834,1793.116,1690.875,1784.795,1690.268,1776.433z"/>
				<path style="fill:#ff6900;" d="M1753.723,1635.206c10.784,9.688,22.772,21.524,34.631,35.33l-35.238,80.477L1753.723,1635.206z"
					/>
				<path style="fill:#ff6900;" d="M1839.218,1752.594c9.138,23.653,12.894,46.758,12.597,67.812l-62.997,55.987L1839.218,1752.594z
					"/>
				<path style="fill:#ff6900;" d="M1690.268,1776.433c-1.596-22.02-0.711-44.325,1.469-65.254l75.967,100.515L1690.268,1776.433z"
					/>
			</g>
			<path style="fill:#776E42;" d="M1769.313,2039.576c-0.107,0-0.217-0.018-0.325-0.055c-0.521-0.179-0.8-0.748-0.62-1.271
				c16.255-47.329,23.556-99.109,21.113-149.743c-2.022-41.934-10.446-82.717-25.037-121.217c-0.195-0.517,0.064-1.094,0.581-1.29
				c0.52-0.196,1.093,0.063,1.29,0.581c14.664,38.697,23.131,79.686,25.164,121.829c2.454,50.885-4.883,102.923-21.221,150.489
				C1770.116,2039.315,1769.728,2039.576,1769.313,2039.576z"/>
			
				<rect x="1665.254" y="1971.028" transform="matrix(-1 -1.224647e-16 1.224647e-16 -1 3529.4944 4036.3445)" style="fill:#D87355;" width="198.987" height="94.288"/>
		</g>
		<g>
			<g>
				<g>
					<polygon style="fill:#84524D;" points="441.384,2038.123 354.004,2036.812 380.039,1924.27 469.086,1939.095 					"/>
					<g>
						<path style="fill:#FFD092;" d="M563.47,2096.066H337.192l20.836-86.406h88.647l64.103,19.533
							C542.195,2037.692,563.76,2065.061,563.47,2096.066L563.47,2096.066z"/>
						<g>
							<path style="fill:#363E44;" d="M460.633,2032.529c-0.256,0-0.512-0.098-0.707-0.293c-0.391-0.391-0.391-1.024,0-1.414
								l14.166-14.15c0.391-0.39,1.023-0.391,1.414,0.001c0.391,0.391,0.391,1.024,0,1.414l-14.166,14.15
								C461.145,2032.431,460.889,2032.529,460.633,2032.529z"/>
							<path style="fill:#363E44;" d="M476.737,2037.354c-0.256,0-0.512-0.098-0.707-0.293c-0.391-0.391-0.391-1.024,0-1.414
								l14.165-14.15c0.391-0.39,1.023-0.391,1.414,0.001c0.391,0.391,0.391,1.024,0,1.414l-14.165,14.15
								C477.249,2037.257,476.993,2037.354,476.737,2037.354z"/>
						</g>
					</g>
				</g>
				<g>
					<polygon style="fill:#84524D;" points="849.243,2054.963 761.863,2053.651 764.561,1924.27 853.608,1939.095 					"/>
					<g>
						<path style="fill:#FFD092;" d="M969.579,2096.066H743.302l19.486-86.406h89.996l64.103,19.533
							C948.304,2037.692,969.869,2065.061,969.579,2096.066L969.579,2096.066z"/>
						<g>
							<path style="fill:#363E44;" d="M866.805,2033.962c-0.256,0-0.512-0.098-0.707-0.293c-0.391-0.391-0.391-1.024,0-1.414
								l14.166-14.15c0.391-0.39,1.023-0.391,1.414,0.001c0.391,0.391,0.391,1.024,0,1.414l-14.166,14.15
								C867.316,2033.865,867.06,2033.962,866.805,2033.962z"/>
							<path style="fill:#363E44;" d="M882.909,2038.788c-0.256,0-0.512-0.098-0.707-0.293c-0.391-0.391-0.391-1.024,0-1.414
								l14.165-14.15c0.391-0.39,1.023-0.391,1.414,0.001c0.391,0.391,0.391,1.024,0,1.414l-14.165,14.15
								C883.421,2038.69,883.165,2038.788,882.909,2038.788z"/>
						</g>
					</g>
				</g>
				<g>
					<path style="fill:#776E42;" d="M556.784,1184.373c0,0-53.968,119.947-90.397,265.5
						c-36.428,145.554-101.19,510.785-101.19,510.785h99.841c0,0,196.983-225.069,214.523-533.697l60.714-243.937L556.784,1184.373z
						"/>
					<path style="fill:#776E42;" d="M637.736,1472.784c0,0,102.539,148.249,110.634,479.788h114.682
						c0,0,83.651-185.985,36.429-381.404c-47.222-195.419-124.127-405.663-124.127-405.663H652.577L637.736,1472.784z"/>
					<path style="fill:#F2E6DC;" d="M670.612,1509.925c-0.067,0-0.136-0.007-0.204-0.021c-0.541-0.112-0.888-0.641-0.776-1.182
						l20.531-99.065c0.053-0.255,0.203-0.479,0.419-0.625l29.873-20.198c0.459-0.309,1.08-0.189,1.389,0.269
						c0.31,0.458,0.189,1.079-0.268,1.389l-29.537,19.97l-20.448,98.668C671.492,1509.6,671.076,1509.925,670.612,1509.925z"/>
				</g>
			</g>
			<g>
				<g>
					<path style="fill:#EFBC73;" d="M769.556,917.09c-27.534-5.882-71.915-13.605-112.242-9.262
						c-47.004,5.062-118.075,27.999-148.722,46.269c-68.515,40.843-95.705,76.189-95.705,76.189l103.897,23.342l-48.737,141.588
						c-16.911,49.13-9.655,92.305,18.857,135.757v0l72.234,3.063l-10.114-69.855l35.417,70.928l203.78-136.876l7.635-125.983
						l131.651-36.585C927.506,1035.664,817.859,927.409,769.556,917.09z"/>
				</g>
				<g>
					<path style="fill:#EFBC73;" d="M791.893,1116.271c0,0,58.211,42.84,102.683,28.987c44.472-13.854,53.172-45.728,50.443-65.031
						c-2.729-19.303-75.108-143.682-186.352-166.705C758.667,913.521,748.177,1054.996,791.893,1116.271z"/>
					<path style="fill:#363E44;" d="M793.087,1116.498c-0.006,0-0.011,0-0.017,0c-0.553-0.009-0.992-0.465-0.983-1.017l0.305-18.002
						c0.01-0.552,0.504-0.99,1.017-0.983c0.553,0.009,0.992,0.465,0.983,1.017l-0.305,18.002
						C794.077,1116.061,793.632,1116.498,793.087,1116.498z"/>
				</g>
				<g>
					<g>
						<path style="fill:#363E44;" d="M714.667,1067.583c-0.26,0-0.521-0.101-0.716-0.302c-0.386-0.396-0.378-1.028,0.018-1.414
							l45.566-44.407c0.396-0.384,1.03-0.378,1.414,0.018c0.386,0.396,0.378,1.028-0.018,1.414l-45.566,44.407
							C715.171,1067.489,714.919,1067.583,714.667,1067.583z"/>
						<path style="fill:#363E44;" d="M730.155,1083.327c-0.26,0-0.52-0.101-0.716-0.302c-0.386-0.396-0.378-1.028,0.017-1.414
							l45.566-44.407c0.396-0.384,1.03-0.377,1.414,0.019c0.386,0.396,0.378,1.028-0.018,1.414l-45.566,44.407
							C730.659,1083.232,730.407,1083.327,730.155,1083.327z"/>
						<path style="fill:#363E44;" d="M636.54,1196.023c-7.6,0-15.199-2.896-20.975-8.686l-4.58-4.591
							c-5.589-5.602-8.66-13.044-8.646-20.955c0.014-7.912,3.11-15.343,8.719-20.926l136.487-135.871
							c5.233-5.21,13.736-5.195,18.952,0.033l27.479,27.544c2.529,2.535,3.919,5.902,3.913,9.483
							c-0.006,3.581-1.407,6.944-3.944,9.471l-136.502,135.883C651.673,1193.153,644.106,1196.023,636.54,1196.023z
							 M757.003,1003.096c-2.913,0-5.826,1.105-8.049,3.316l-136.487,135.871c-5.229,5.206-8.116,12.135-8.129,19.512
							c-0.013,7.376,2.851,14.316,8.063,19.54l0,0l4.58,4.591c10.748,10.773,28.267,10.803,39.052,0.067l136.501-135.883
							c2.158-2.15,3.351-5.011,3.355-8.058c0.005-3.045-1.178-5.911-3.329-8.067l-27.479-27.544
							C762.856,1004.211,759.93,1003.096,757.003,1003.096z"/>
						<path style="fill:#363E44;" d="M792.197,1033.411c-0.256,0-0.513-0.098-0.708-0.294l-25.535-25.595
							c-0.188-0.188-0.293-0.443-0.292-0.708c0.001-0.266,0.107-0.52,0.296-0.707l84.192-83.581c0.39-0.388,1.023-0.387,1.412,0.003
							l25.536,25.595c0.188,0.188,0.293,0.443,0.292,0.708c-0.001,0.266-0.107,0.52-0.296,0.707l-84.193,83.581
							C792.707,1033.314,792.452,1033.411,792.197,1033.411z M768.078,1006.819l24.122,24.179l82.774-82.172l-24.123-24.179
							L768.078,1006.819z"/>
					</g>
					<g>
						<ellipse style="fill:#F7F1EB;" cx="1104.237" cy="694.902" rx="286.385" ry="286.07"/>
						<g>
							<path style="fill:#363E44;" d="M1104.236,1014.957c-85.583,0-166.044-33.291-226.561-93.741
								c-60.517-60.451-93.846-140.824-93.845-226.314c0-85.49,33.328-165.863,93.845-226.313l0.707,0.707l-0.707-0.707
								c60.517-60.45,140.978-93.742,226.561-93.742s166.044,33.292,226.562,93.742c60.517,60.45,93.845,140.823,93.845,226.313
								c0,85.49-33.328,165.863-93.845,226.314C1270.28,981.666,1189.819,1014.957,1104.236,1014.957z M1104.236,376.996
								c-81.537,0-163.073,31.002-225.147,93.008c-60.139,60.072-93.259,139.943-93.259,224.898
								c-0.001,84.956,33.119,164.826,93.259,224.899c124.147,124.01,326.148,124.01,450.294,0
								c60.139-60.073,93.259-139.943,93.259-224.899c0-84.955-33.12-164.826-93.259-224.898
								C1267.311,407.999,1185.773,376.996,1104.236,376.996z"/>
							<path style="fill:#363E44;" d="M901.732,493.62c-0.256,0-0.512-0.098-0.707-0.293c-0.391-0.391-0.391-1.024,0-1.414
								c40.723-40.677,92.012-67.935,148.324-78.826c54.954-10.628,111.329-5.177,163.029,15.766
								c0.513,0.207,0.759,0.791,0.552,1.302c-0.207,0.512-0.797,0.759-1.302,0.551c-106.542-43.157-227.903-18.576-309.189,62.622
								C902.244,493.522,901.988,493.62,901.732,493.62z"/>
							<path style="fill:#363E44;" d="M1104.341,981.998c-19.673,0-39.396-2.013-58.888-6.063
								c-54.762-11.376-104.703-38.363-144.428-78.044c-0.391-0.39-0.391-1.023,0-1.414c0.389-0.392,1.023-0.391,1.414-0.001
								c78.828,78.742,197.277,104.456,301.758,65.511c0.517-0.193,1.094,0.07,1.287,0.588c0.192,0.518-0.07,1.093-0.588,1.286
								C1172.563,975.914,1138.532,981.998,1104.341,981.998z"/>
						</g>
					</g>
					<g>
						<path style="fill:#D87355;" d="M1107.528,741.078l-252.589,47.432c12.94,34.448,33.275,66.754,61.017,94.466
							c103.985,103.87,272.578,103.87,376.563,0c28.493-28.462,49.16-61.775,62.038-97.272L1107.528,741.078z"/>
						<g>
							<g>
								<ellipse style="fill:#363E44;" cx="1238.892" cy="652.896" rx="94.213" ry="94.11"/>
								<path style="fill:#363E44;" d="M1251.317,756.458c-52.5,0-95.212-42.666-95.212-95.11c0-52.444,42.712-95.11,95.212-95.11
									c52.501,0,95.214,42.666,95.214,95.11C1346.531,713.792,1303.818,756.458,1251.317,756.458z M1251.317,568.238
									c-51.397,0-93.212,41.769-93.212,93.11c0,51.341,41.814,93.11,93.212,93.11c51.398,0,93.214-41.769,93.214-93.11
									C1344.531,610.007,1302.716,568.238,1251.317,568.238z"/>
							</g>
							<path style="fill:#E2A18D;" d="M1099.791,833.892L1099.791,833.892c37.492,1.266,68.913-28.068,70.18-65.519l6.159-182.044
								l-135.771-4.584l-6.159,182.045C1032.933,801.241,1062.299,832.627,1099.791,833.892z"/>
							<g>
								<path style="fill:#363E44;" d="M1096.546,373.506c31.526-17.235,62.419-12.085,81.627-2.221
									c54.595,28.033,81.832,102.992,62.143,191.533c-89.147-5.86-178.292-11.719-267.44-17.579
									c-7.789-57.681-8.324-116.758,24.256-151.27C1039.224,349.381,1090.55,373.252,1096.546,373.506z"/>
								<path style="fill:#E2A18D;" d="M988.904,534.979c-4.7,73.593,42.319,136.49,105.02,140.485
									c62.7,3.995,117.34-52.424,122.039-126.016c4.7-73.593-42.811-130.697-105.512-134.693
									C1047.751,410.76,993.603,461.387,988.904,534.979z"/>
								<path style="fill:#E2A18D;" d="M1198.552,525.225c-15.492,20.333-14.008,47.492,3.315,60.663
									c17.323,13.171,43.926,7.365,59.418-12.968c15.492-20.333,14.008-47.492-3.315-60.663
									C1240.647,499.086,1214.045,504.892,1198.552,525.225z"/>
								<path style="fill:#E2A18D;" d="M1010.66,513.252c12.781,22.134,7.853,48.885-11.005,59.75
									c-18.858,10.865-44.506,1.729-57.286-20.405c-12.781-22.134-7.853-48.885,11.005-59.75
									C972.231,481.983,997.88,491.118,1010.66,513.252z"/>
								<path style="fill:#363E44;" d="M1100.23,676.666c-2.119,0-4.242-0.067-6.37-0.203
									c-23.795-1.517-46.069-11.442-64.415-28.703c-0.402-0.379-0.421-1.012-0.043-1.414c0.38-0.404,1.012-0.421,1.414-0.044
									c18.002,16.939,39.847,26.678,63.171,28.164c23.791,1.515,47.079-5.654,67.352-20.733c0.442-0.331,1.069-0.238,1.399,0.206
									c0.329,0.443,0.237,1.069-0.206,1.399C1143.687,669.356,1122.269,676.666,1100.23,676.666z"/>
								<path style="fill:#363E44;" d="M990.714,571.767c-0.48,0-0.902-0.345-0.985-0.833c-1.433-8.492-2.155-17.224-2.148-25.954
									c0-0.552,0.448-0.999,1-0.999h0.001c0.552,0.001,0.999,0.449,0.999,1.001c-0.007,8.618,0.707,17.238,2.121,25.619
									c0.092,0.545-0.275,1.06-0.82,1.152C990.825,571.762,990.769,571.767,990.714,571.767z"/>
								<path style="fill:#363E44;" d="M1209.791,585.128c-0.095,0-0.191-0.014-0.286-0.043c-0.529-0.158-0.83-0.715-0.672-1.245
									c2.808-9.386,4.725-19.171,5.697-29.083c0.055-0.549,0.536-0.954,1.093-0.897c0.55,0.054,0.951,0.543,0.897,1.093
									c-0.985,10.04-2.927,19.952-5.771,29.461C1210.619,584.848,1210.222,585.128,1209.791,585.128z"/>
								<path style="fill:#363E44;" d="M1094.003,585.006c-0.217,0-0.435-0.07-0.618-0.215c-3.855-3.042-5.821-6.178-5.842-9.319
									c-0.02-2.749,1.399-4.667,2.9-6.696c1.391-1.88,2.829-3.825,3.479-6.769c0.59-2.667,0.38-5.543-0.626-8.55
									c-0.176-0.524,0.107-1.091,0.631-1.266c0.524-0.175,1.091,0.107,1.266,0.631c1.122,3.356,1.352,6.592,0.683,9.617
									c-0.742,3.359-2.38,5.573-3.824,7.526c-1.41,1.906-2.523,3.411-2.509,5.493c0.017,2.503,1.726,5.115,5.08,7.762
									c0.434,0.342,0.508,0.971,0.166,1.405C1094.592,584.876,1094.299,585.006,1094.003,585.006z"/>
								<path style="fill:#363E44;" d="M1111.771,611.106c-1.118,0-2.108-0.056-2.938-0.131c-0.55-0.05-0.955-0.537-0.905-1.087
									c0.051-0.55,0.521-0.946,1.087-0.905c3.851,0.352,11.409,0.247,18.79-4.384c3.855-2.419,7.165-5.795,9.57-9.763
									c0.287-0.472,0.902-0.622,1.374-0.336c0.473,0.286,0.623,0.901,0.337,1.373c-2.567,4.233-6.101,7.836-10.219,10.42
									C1122.582,610.238,1116.184,611.106,1111.771,611.106z"/>
								<g>
									<path style="fill:#FFFFFF;" d="M1055.368,577.275c-12.352,0-26.781-3.767-40.691-11.391
										c-14.141-7.749-25.669-18.279-32.462-29.652c-6.893-11.539-8.109-22.591-3.426-31.12
										c9.569-17.42,41.233-18.506,70.59-2.419c14.141,7.749,25.669,18.28,32.462,29.652c6.894,11.539,8.109,22.591,3.426,31.12
										l0,0C1080.232,572.631,1069.081,577.275,1055.368,577.275z M1008.591,493.241c-12.924,0-23.362,4.304-28.048,12.835
										c-4.329,7.881-3.125,18.227,3.389,29.132c6.613,11.071,17.873,21.343,31.706,28.923
										c28.389,15.559,58.839,14.827,67.875-1.628l0.877,0.481l-0.877-0.481c4.329-7.881,3.125-18.227-3.389-29.131
										c-6.613-11.071-17.873-21.343-31.706-28.924C1034.747,496.956,1020.597,493.241,1008.591,493.241z"/>
									<path style="fill:#FFFFFF;" d="M1149.977,582.328c-19.149,0-34.479-7.021-38.824-19.587
										c-3.18-9.195-0.119-19.885,8.62-30.1c8.612-10.068,21.751-18.509,36.995-23.77c31.65-10.923,62.68-4.527,69.176,14.255
										c3.18,9.195,0.119,19.884-8.62,30.1c-8.613,10.068-21.751,18.509-36.995,23.77
										C1169.854,580.609,1159.447,582.327,1149.977,582.328z M1187.289,505.499c-9.284,0-19.535,1.696-29.869,5.262
										c-14.913,5.147-27.743,13.378-36.128,23.179c-8.259,9.654-11.188,19.649-8.249,28.146l0,0
										c6.136,17.74,36.027,23.58,66.633,13.018c14.912-5.146,27.743-13.378,36.128-23.179c8.259-9.654,11.188-19.65,8.249-28.146
										C1219.989,512.029,1205.501,505.499,1187.289,505.499z"/>
									<path style="fill:#FFFFFF;" d="M1109.711,554.315c-0.028,0-0.057-0.001-0.085-0.004l-22.618-1.915
										c-0.551-0.047-0.959-0.531-0.912-1.081s0.549-0.96,1.08-0.912l22.618,1.915c0.551,0.047,0.959,0.531,0.912,1.081
										C1110.662,553.92,1110.226,554.315,1109.711,554.315z"/>
								</g>
								<g>
									<g>
										<path style="fill:#FFFFFF;" d="M1185.392,528.379c-0.001,0.002,0,0.004-0.001,0.006l-0.293-0.056
											c-0.208,0.602-0.688,1.352-1.336,1.277c-0.856,0.857-1.339,2.32-1.946,3.259c-1.092,1.69-3.647-0.109-2.557-1.797
											c0.734-1.136-3.684,0.785-5.596,1.341c-6.1,1.773-12.258,3.271-18.474,4.578c-2.899,0.61-5.803,1.241-8.722,1.75
											c-2.339,0.408-10.1,2.151-10.67,1.747c-8.3,6.399-13.117,12.703-13.117,12.703s10.641,5.832,24.862,7.792
											c0.056-0.188,0.117-0.373,0.167-0.564c0.493-1.886,34.092-6.878,34.858-5.343c14.691-7.698,23.775-19.544,23.775-19.544
											S1197.608,530.738,1185.392,528.379z"/>
										<path style="fill:#363E44;" d="M1161.103,528.248c-10.144,2.141-18.783,7.209-25.288,12.222
											c0.23,6.23,2.667,12.397,7.384,17.196c1.215,1.236,2.526,2.317,3.906,3.258c6.407,0.923,13.562,1.073,20.813-0.458
											c5.244-1.107,10.062-3.016,14.415-5.275c5.965-7.809,6.903-18.224,2.765-26.861
											C1177.924,526.973,1169.584,526.458,1161.103,528.248z"/>
									</g>
									<g>
										<path style="fill:#FFFFFF;" d="M1023.715,517.017c0,0,0,0.004,0,0.007l0.298-0.007c0.105,0.629,0.451,1.448,1.104,1.483
											c0.7,0.988,0.931,2.51,1.373,3.538c0.794,1.85,3.614,0.502,2.821-1.344c-0.534-1.243,3.5,1.39,5.293,2.257
											c5.717,2.767,11.537,5.273,17.446,7.601c2.756,1.086,5.513,2.194,8.306,3.183c2.239,0.793,9.598,3.809,10.227,3.505
											c7.112,7.696,10.805,14.716,10.805,14.716s-11.468,3.971-25.816,3.527c-0.024-0.195-0.053-0.387-0.07-0.584
											c-0.17-1.942-32.46-12.479-33.472-11.093c-13.195-10.045-20.166-23.241-20.166-23.241S1011.276,517.301,1023.715,517.017z
											"/>
										<path style="fill:#363E44;" d="M1047.683,520.948c9.642,3.806,17.311,10.246,22.885,16.275
											c-1.27,6.103-4.706,11.776-10.16,15.719c-1.404,1.015-2.879,1.862-4.396,2.559c-6.472-0.161-13.55-1.209-20.443-3.93
											c-4.985-1.968-9.414-4.655-13.328-7.61c-4.573-8.696-3.753-19.121,1.773-26.944
											C1031.313,516.878,1039.621,517.766,1047.683,520.948z"/>
									</g>
								</g>
							</g>
						</g>
					</g>
				</g>
				<g>
					<g>
						<path style="fill:#84524D;" d="M700.968,1090.621c-10.166,3.077-54.46,9.118-61.404,28.729
							c-6.994,19.751,0.97,41.421,14.086,57.677c0.084,0.011,0.178,0.024,0.261,0.036c5.196,2.555,13.366,5.582,22.911,4.457
							c10.881-1.282,13.126-6.731,24.406-9.867c19.039-5.293,31.558,5.522,34.766-0.692c2.202-4.265-4.818-10.883-12.803-15.25
							c-8.198-4.484-15.408-3.931-15.405-5.462c0.004-1.68,7.396-1.296,16.637-1.661c4.293-0.169,16.334,6.607,20.202,1.218
							c3.084-4.296-7.652-14.474-20.325-17.079c-8.965-1.842-16.769,2.449-17.264,0.857c-0.371-1.194,4.342-3.638,9.027-4.539
							c7.731-1.489,20.125,5.312,23.588,0.283c3.393-4.927-6.141-13.651-17.64-16.783c-9.696-2.641-18.172,2.558-18.798,0.583
							c-0.44-1.389,2.873-4.501,11.43-8.68c7.143-3.487,23.264-5.685,20.758-13.669
							C733.294,1084.066,716.311,1085.975,700.968,1090.621z"/>
						<path style="fill:#84524D;" d="M483.401,1135.393c-22.358,7.059-37.911,27.805-37.393,51.118
							c0.34,15.285,7.637,31.145,31.427,40.955c57.922,23.887,189.182-57.559,189.182-57.559l16.167-75.002
							C607.228,1107.424,544.942,1115.964,483.401,1135.393z"/>
					</g>
					<g>
						<path style="fill:#EFBC73;" d="M560.158,1115.998l10.848,111.951l-99.359,15.348
							c-63.808,9.856-135.806-53.759-120.867-116.505c13.072-54.905,45.378-85.645,110.279-140.724l84.814,25.185l-36.426,106.758
							L560.158,1115.998z"/>
						<path style="fill:#363E44;" d="M509.445,1119.012c-0.107,0-0.216-0.018-0.323-0.054c-0.522-0.178-0.802-0.747-0.623-1.269
							l16.459-48.239c0.178-0.523,0.744-0.802,1.269-0.624c0.523,0.178,0.802,0.747,0.623,1.269l-16.459,48.239
							C510.25,1118.75,509.861,1119.012,509.445,1119.012z"/>
						<path style="fill:#363E44;" d="M457.405,1245.399c-6.022,0-11.998-0.589-17.88-1.766c-0.542-0.108-0.893-0.635-0.784-1.177
							c0.107-0.542,0.636-0.893,1.177-0.784c10.316,2.064,20.941,2.279,31.576,0.637l98.425-15.204l-2.508-25.878
							c-0.054-0.55,0.349-1.039,0.898-1.092c0.556-0.053,1.039,0.349,1.092,0.898l2.6,26.819c0.052,0.528-0.318,1.004-0.843,1.085
							l-99.359,15.348C466.991,1245.028,462.184,1245.399,457.405,1245.399z"/>
						<path style="fill:#363E44;" d="M494.416,1119.609c-0.534,0-0.976-0.422-0.998-0.96c-0.022-0.552,0.407-1.017,0.959-1.039
							l65.741-2.611c0.563-0.018,1.017,0.407,1.039,0.959c0.022,0.552-0.407,1.017-0.959,1.039l-65.741,2.611
							C494.443,1119.608,494.43,1119.609,494.416,1119.609z"/>
					</g>
				</g>
				<g>
					<path style="fill:#84524D;" d="M791.382,1034.16l70.544,78.059c19.094,21.127,51.856,22.41,72.547,2.84l0,0
						c22.457-21.241,20.827-57.438-3.447-76.58l-81.451-64.232L791.382,1034.16z"/>
					<g>
						<path style="fill:#84524D;" d="M837.431,1014.044c11.624,1.875,15.17,7.823,14.126,14.287
							c-1.045,6.464-6.284,10.995-17.909,9.121c-11.625-1.875-25.232-9.446-24.187-15.91
							C810.505,1015.078,825.806,1012.169,837.431,1014.044z"/>
						<path style="fill:#84524D;" d="M838.497,991.281c13.473,2.173,17.583,9.067,16.372,16.559
							c-1.211,7.492-7.284,12.744-20.757,10.571c-13.473-2.173-29.244-10.948-28.033-18.44
							C807.289,992.479,825.024,989.108,838.497,991.281z"/>
						<path style="fill:#84524D;" d="M843.49,976.555c11.625,1.875,16.864-2.657,17.909-9.121
							c1.045-6.464-2.501-12.412-14.125-14.287c-11.625-1.875-26.926,1.034-27.971,7.498S831.866,974.68,843.49,976.555z"/>
						<path style="fill:#84524D;" d="M837.331,998.496c13.473,2.173,19.546-3.079,20.757-10.571
							c1.211-7.492-2.899-14.386-16.372-16.559s-31.208,1.198-32.419,8.69C808.086,987.548,823.858,996.323,837.331,998.496z"/>
					</g>
				</g>
			</g>
			<g>
				<path style="fill:#84524D;" d="M587.721,960.185l-5.225-0.083c-15.445-0.246-27.765-12.967-27.518-28.412l1.571-98.168
					c0.247-15.444,12.967-27.763,28.411-27.517l5.225,0.083c15.445,0.247,27.765,12.967,27.518,28.412l-1.571,98.167
					C615.885,948.112,603.165,960.432,587.721,960.185z"/>
				<g>
					<g>
						<path style="fill:#84524D;" d="M659.542,866.627c-3.888,18.999-58.983,21.677-58.983,21.677l-53.636-16.053
							c-18.649-19.931-17.592-51.188,2.361-69.817c19.953-18.628,51.245-17.572,69.893,2.359
							C619.177,804.794,663.501,847.276,659.542,866.627z"/>
						<path style="fill:#84524D;" d="M623.904,818.159c0,0,20.056,1.144,22.136,4.447c2.484,3.943-6.897,16.52-6.897,16.52
							S624.198,817.933,623.904,818.159z"/>
						<g>
							<path style="fill:#FFFFFF;" d="M585.576,837.99c0,0,4.078-7.124,11.478-11.737c1.574-0.981,6.466,13.455,4.526,13.674
								C593.052,840.89,585.576,837.99,585.576,837.99z"/>
							<g>
								<defs>
									<path id="SVGID_6_" d="M585.576,837.99c0,0,5.998-10.478,16.645-14.246c10.647-3.768,21.912,0.601,21.912,0.601
										s-5.998,10.478-16.646,14.246C596.84,842.359,585.576,837.99,585.576,837.99z"/>
								</defs>
								<clipPath id="SVGID_00000010288308859695674360000001757991803753783169_">
									<use xlink:href="#SVGID_6_"  style="overflow:visible;"/>
								</clipPath>
								<path style="clip-path:url(#SVGID_00000010288308859695674360000001757991803753783169_);fill:#363E44;" d="
									M597.165,825.735c1.84-7.939,9.775-12.886,17.723-11.048c7.948,1.838,12.9,9.764,11.059,17.704
									c-1.84,7.939-9.775,12.885-17.723,11.048C600.276,841.601,595.325,833.674,597.165,825.735z"/>
							</g>
						</g>
						<g>
							<path style="fill:#363E44;" d="M504.963,837.354c0,0,18.455,54.224,57.83,45.651l2.137-12.099l22.8-6.753l-23.499-14.663
								c-8.207-6.377-8.524-18.659-0.656-25.448l34.344-29.639l-16.942-17.407C546.088,783.355,519.391,801.517,504.963,837.354z"/>
							<path style="fill:#363E44;" d="M537.963,798.693c-2.989,4.258-8.867,5.29-13.13,2.305c-4.263-2.985-7.527-10.42-4.538-14.678
								c2.989-4.258,11.098-3.727,15.361-0.742C539.919,788.563,540.952,794.435,537.963,798.693z"/>
							<path style="fill:#363E44;" d="M545.009,795.975c-4.684,2.271-10.323,0.319-12.597-4.359
								c-2.274-4.678-1.51-12.761,3.174-15.032c4.684-2.271,11.513,2.129,13.787,6.808
								C551.646,788.07,549.693,793.704,545.009,795.975z"/>
							<path style="fill:#363E44;" d="M560.198,790.288c-6.788,1.925-13.853-2.011-15.78-8.791
								c-1.927-6.78,1.004-17.387,7.792-19.312c6.788-1.925,14.862,5.559,16.789,12.34
								C570.926,781.306,566.986,788.363,560.198,790.288z"/>
							<path style="fill:#363E44;" d="M527.526,809.399c-2.85,4.352-8.692,5.573-13.049,2.727c-4.357-2.846-7.86-10.172-5.01-14.525
								c2.85-4.352,10.972-4.083,15.33-1.237C529.154,799.211,530.376,805.047,527.526,809.399z"/>
							<path style="fill:#363E44;" d="M570.54,784.251c-5.733-2.562-8.302-9.281-5.737-15.008
								c2.565-5.727,10.634-11.29,16.367-8.727c5.733,2.562,6.959,12.279,4.394,18.006C583,784.247,576.273,786.813,570.54,784.251z
								"/>
							<path style="fill:#363E44;" d="M520.967,819.858c-2.492,5.982-9.367,8.814-15.356,6.324
								c-5.989-2.489-11.958-10.66-9.466-16.642c2.492-5.982,12.501-7.511,18.49-5.021
								C520.625,807.009,523.459,813.876,520.967,819.858z"/>
							<path style="fill:#363E44;" d="M513.383,828.927c0.327,5.047-3.503,9.404-8.555,9.731
								c-5.053,0.327-12.058-3.327-12.386-8.374c-0.328-5.047,6.147-9.575,11.199-9.902
								C508.693,820.054,513.055,823.88,513.383,828.927z"/>
							<path style="fill:#363E44;" d="M582.106,792.901c-5.655-5.156-6.054-13.916-0.892-19.564
								c5.162-5.648,16.633-9.004,22.287-3.847c5.655,5.156,3.352,16.872-1.81,22.521
								C596.529,797.659,587.761,798.058,582.106,792.901z"/>
						</g>
						<path style="fill:#84524D;" d="M540.049,878.938c3.226,8.84,13.016,13.394,21.867,10.171
							c8.85-3.223,13.409-13.002,10.183-21.842c-3.227-8.84-13.016-13.394-21.866-10.172
							C541.382,860.319,536.823,870.098,540.049,878.938z"/>
						<path style="fill:#363E44;" d="M643.688,832.045l24.262,33.66c3.378,4.686,2.159,11.229-2.672,14.401
							c-1.215,0.798-2.539,1.647-3.96,2.531c-24.583,15.296-55.339,16.831-81.31,4.027l0,0c-8.7-4.289-13.846-13.499-12.935-23.147
							l0.3-3.18l8.966-2.164c0,0,19.627,12.514,27.001,8.079C610.715,861.817,617.718,846.281,643.688,832.045z"/>
						<path style="fill:#84524D;" d="M631.357,856.583c-2.499,0-4.923-1.196-6.434-3.25c-0.327-0.445-0.231-1.071,0.213-1.398
							c0.446-0.329,1.07-0.232,1.398,0.213c1.336,1.816,3.629,2.734,5.83,2.346c2.29-0.407,4.141-2.136,4.715-4.405
							c0.136-0.535,0.682-0.861,1.215-0.724c0.536,0.135,0.859,0.679,0.725,1.215c-0.767,3.029-3.242,5.338-6.305,5.883
							C632.264,856.544,631.81,856.583,631.357,856.583z"/>
						<path style="fill:#84524D;" d="M530.438,835.769c-0.524,0-0.965-0.408-0.997-0.939c-0.034-0.551,0.386-1.025,0.937-1.059
							l24.976-1.533c0.573-0.03,1.026,0.385,1.06,0.937c0.034,0.551-0.386,1.025-0.936,1.059l-24.976,1.533
							C530.479,835.769,530.459,835.769,530.438,835.769z"/>
					</g>
				</g>
			</g>
		</g>
	</g>
</g>
</svg>
