<?xml version="1.0" encoding="utf-8"?>
<!-- Generator: Adobe Illustrator 27.5.0, SVG Export Plug-In . SVG Version: 6.00 Build 0)  -->
<svg version="1.1" xmlns="http://www.w3.org/2000/svg" xmlns:xlink="http://www.w3.org/1999/xlink" x="0px" y="0px"
	 viewBox="0 0 2500 2500" style="enable-background:new 0 0 2500 2500;" xml:space="preserve">
-
<g id="Illustration">
	<g id="Access_control_system_1_">
		<ellipse style="fill:transparent;" cx="1250" cy="1250" rx="916.657" ry="915"/>
		<g>
			<g>
				<path style="fill:#F7F1EB;" d="M2116.821,1228.558h-18.382c-1.646-8.944-3.993-17.642-6.977-26.04l15.908-9.168l-31.105-53.778
					l-15.944,9.189c-5.851-6.837-12.232-13.207-19.082-19.048l9.205-15.915l-53.875-31.049l-9.184,15.88
					c-8.413-2.979-17.127-5.322-26.088-6.965v-18.349h-62.209l0,18.349c-8.96,1.643-17.674,3.986-26.087,6.965l-9.185-15.88
					l-53.875,31.049l9.205,15.915c-6.85,5.84-13.231,12.21-19.082,19.048l-15.944-9.189l-31.105,53.778l15.908,9.168
					c-2.984,8.398-5.331,17.096-6.977,26.04h-18.382l0,62.097h18.382c1.646,8.944,3.994,17.642,6.977,26.04l-15.908,9.168
					l31.105,53.778l15.944-9.189c5.851,6.837,12.232,13.207,19.082,19.048l-9.205,15.915l53.875,31.049l9.185-15.88
					c8.413,2.979,17.127,5.322,26.087,6.965v18.349h62.21v-18.349c8.961-1.643,17.674-3.986,26.088-6.965l9.184,15.88l53.875-31.049
					l-9.205-15.915c6.85-5.84,13.231-12.21,19.082-19.048l15.944,9.189l31.105-53.778l-15.908-9.168
					c2.984-8.398,5.331-17.096,6.977-26.04h18.382V1228.558z M2058.317,1309.743c-12.955,36.164-41.674,64.83-77.903,77.76
					c-113.864,40.635-219.06-64.373-178.348-178.031c12.954-36.165,41.673-64.832,77.904-77.761
					C1993.834,1091.076,2099.031,1196.085,2058.317,1309.743z"/>
			</g>
		</g>
		<g>
			<g>
				<g>
					<polygon style="fill:#E6D0BE;" points="1722.204,1978.15 992.087,1978.15 1374.069,597.643 2104.186,597.643 					"/>
					<path style="fill:#D87355;" d="M1672.667,2060.667H991.462c-20.457,0-37.689-7.842-48.523-22.081
						c-11.446-15.043-14.452-35.245-8.465-56.883L1322.2,580.434c11.966-43.247,56.819-78.431,99.986-78.431h681.205
						c20.457,0,37.689,7.842,48.523,22.081c11.446,15.043,14.452,35.245,8.465,56.883l-387.727,1401.27
						C1760.687,2025.484,1715.833,2060.667,1672.667,2060.667z M1422.187,504.003c-42.327,0-86.316,34.526-98.059,76.964
						L936.401,1982.236c-5.817,21.022-2.931,40.604,8.129,55.139c10.446,13.73,27.114,21.292,46.932,21.292h681.205
						c42.326,0,86.315-34.526,98.059-76.964l387.727-1401.27c5.817-21.022,2.931-40.604-8.129-55.138
						c-10.447-13.73-27.114-21.292-46.932-21.292H1422.187z"/>
				</g>
				<g>
					<polygon style="fill:#F2E6DC;" points="1875.627,1289.39 1214.769,1289.39 1370.809,725.451 2031.667,725.451 					"/>
				</g>
			</g>
			<g>
				<polygon style="fill:#F2E6DC;" points="1551.507,1895.757 1124.256,1895.757 1156.178,1783.304 1583.429,1783.304 				"/>
			</g>
			<g>
				<polygon style="fill:#FFFFFF;" points="1727.932,1557.113 1733.941,1534.949 1408.043,1536.767 1396.025,1581.095 
					1721.922,1579.277 				"/>
				<polygon style="fill:#FFFFFF;" points="1703.418,1523.79 1590.356,1524.42 1596.035,1503.475 1709.097,1502.844 				"/>
				<polygon style="fill:#FFFFFF;" points="1691.359,1460.559 1607.545,1461.027 1613.224,1440.081 1697.038,1439.614 				"/>
				<polygon style="fill:#FFFFFF;" points="1711.937,1492.371 1598.875,1493.002 1604.554,1472.057 1717.615,1471.426 				"/>
				<path style="fill:#FFFFFF;" d="M1462.771,1465.164c-37.91-51.771-122.259-51.301-188.399,1.051
					c-66.141,52.352-89.027,136.76-51.117,188.531c37.909,51.771,122.259,51.3,188.4-1.051
					C1477.794,1601.343,1500.68,1516.935,1462.771,1465.164z M1287.208,1600.843l-29.591-40.411l51.628-40.865l29.591,40.411
					L1287.208,1600.843z"/>
			</g>
		</g>
		<g>
			<rect x="478.215" y="789.265" style="fill:#E6D0BE;" width="454.628" height="272.802"/>
			<g>
				<rect x="507.731" y="870.319" style="fill:#FFFFFF;" width="241.203" height="191.747"/>
				<g>
					<path style="fill:#E6D0BE;" d="M737.176,906.881H519.49c-0.553,0-1-0.448-1-1c0-0.552,0.447-1,1-1h217.686c0.553,0,1,0.448,1,1
						C738.176,906.433,737.729,906.881,737.176,906.881z"/>
					<path style="fill:#E6D0BE;" d="M737.176,935.658H519.49c-0.553,0-1-0.448-1-1s0.447-1,1-1h217.686c0.553,0,1,0.448,1,1
						S737.729,935.658,737.176,935.658z"/>
					<path style="fill:#E6D0BE;" d="M737.176,964.436H519.49c-0.553,0-1-0.448-1-1c0-0.552,0.447-1,1-1h217.686c0.553,0,1,0.448,1,1
						C738.176,963.988,737.729,964.436,737.176,964.436z"/>
					<path style="fill:#E6D0BE;" d="M737.176,993.213H519.49c-0.553,0-1-0.448-1-1c0-0.552,0.447-1,1-1h217.686c0.553,0,1,0.448,1,1
						C738.176,992.766,737.729,993.213,737.176,993.213z"/>
					<path style="fill:#E6D0BE;" d="M737.176,1021.991H519.49c-0.553,0-1-0.448-1-1c0-0.552,0.447-1,1-1h217.686
						c0.553,0,1,0.448,1,1C738.176,1021.543,737.729,1021.991,737.176,1021.991z"/>
				</g>
			</g>
			<polygon style="fill:#F7F1EB;" points="1016.578,394.848 778.879,608.335 778.879,1060.472 1254.276,1060.472 1254.276,608.335 
							"/>
			<path style="fill:#D3BBA3;" d="M1254.276,592.082c-0.238,0-0.478-0.084-0.668-0.256l-237.031-212.887l-237.03,212.887
				c-0.409,0.368-1.044,0.336-1.412-0.076c-0.369-0.411-0.335-1.043,0.076-1.412l237.698-213.488c0.379-0.341,0.957-0.341,1.336,0
				l237.699,213.488c0.411,0.369,0.445,1.001,0.076,1.412C1254.823,591.97,1254.55,592.082,1254.276,592.082z"/>
			<g>
				<rect x="1040.5" y="808.376" style="fill:#E6D0BE;" width="141.382" height="210.377"/>
				
					<rect x="1493.058" y="763.227" transform="matrix(-1 -1.224647e-16 1.224647e-16 -1 3088.6174 1736.8311)" style="fill:#E6D0BE;" width="102.502" height="210.377"/>
			</g>
			<g>
				<path style="fill:#FFFFFF;" d="M1273.98,1062.601H781.474c-0.553,0-1-0.448-1-1s0.447-1,1-1h492.507c0.553,0,1,0.448,1,1
					S1274.533,1062.601,1273.98,1062.601z"/>
			</g>
			<g>
				<rect x="818.146" y="808.376" style="fill:#E6D0BE;" width="185.208" height="181.716"/>
			</g>
			<g>
				<rect x="818.146" y="737.189" style="fill:#E6D0BE;" width="394.664" height="52.076"/>
			</g>
			<polygon style="fill:#E6D0BE;" points="1212.81,710.483 820.345,710.483 820.345,606.752 1016.629,429.278 1212.81,606.752 			
				"/>
			<g>
				<path style="fill:#FFFFFF;" d="M909.476,702.861c-0.553,0-1-0.448-1-1v-165.49c0-0.552,0.447-1,1-1c0.553,0,1,0.448,1,1v165.49
					C910.476,702.413,910.028,702.861,909.476,702.861z"/>
				<path style="fill:#FFFFFF;" d="M1123.68,702.861c-0.553,0-1-0.448-1-1v-165.49c0-0.552,0.447-1,1-1s1,0.448,1,1v165.49
					C1124.68,702.413,1124.232,702.861,1123.68,702.861z"/>
			</g>
			<g>
				<path style="fill:#FFFFFF;" d="M909.476,702.861c-0.553,0-1-0.448-1-1v-165.49c0-0.552,0.447-1,1-1c0.553,0,1,0.448,1,1v165.49
					C910.476,702.413,910.028,702.861,909.476,702.861z"/>
				<path style="fill:#FFFFFF;" d="M1123.68,702.861c-0.553,0-1-0.448-1-1v-165.49c0-0.552,0.447-1,1-1s1,0.448,1,1v165.49
					C1124.68,702.413,1124.232,702.861,1123.68,702.861z"/>
			</g>
			<g>
				<path style="fill:#FFFFFF;" d="M910.751,985.037c-0.553,0-1-0.448-1-1V815.193c0-0.552,0.447-1,1-1c0.553,0,1,0.448,1,1v168.844
					C911.751,984.589,911.304,985.037,910.751,985.037z"/>
			</g>
		</g>
		<g>
			<polygon style="fill:#363E44;" points="1932.956,1236.392 1042.774,1236.392 1222.908,585.369 2113.09,585.369 			"/>
			<g>
				<polygon style="fill:#FFFFFF;" points="2027.272,690.069 1247.763,690.069 1259.292,647.825 2038.801,647.825 				"/>
			</g>
			<g>
				<g>
					<polygon style="fill:#EFBC73;" points="1915.767,901.736 1208.287,901.736 1240.097,786.931 1947.577,786.931 					"/>
					<g>
						
							<ellipse transform="matrix(0.779 -0.627 0.627 0.779 -247.7212 989.0328)" style="fill:#FFFFFF;" cx="1279.123" cy="845.919" rx="29.55" ry="22.474"/>
						
							<ellipse transform="matrix(0.779 -0.627 0.627 0.779 -230.9143 1036.7172)" style="fill:#FFFFFF;" cx="1355.165" cy="845.919" rx="29.55" ry="22.474"/>
						
							<ellipse transform="matrix(0.779 -0.627 0.627 0.779 -214.1076 1084.399)" style="fill:#FFFFFF;" cx="1431.206" cy="845.919" rx="29.55" ry="22.474"/>
						
							<ellipse transform="matrix(0.779 -0.627 0.627 0.779 -197.3009 1132.0809)" style="fill:#FFFFFF;" cx="1507.248" cy="845.919" rx="29.55" ry="22.474"/>
						
							<ellipse transform="matrix(0.779 -0.627 0.627 0.779 -180.4961 1179.7529)" style="fill:#FFFFFF;" cx="1583.29" cy="845.919" rx="29.55" ry="22.474"/>
						
							<ellipse transform="matrix(0.779 -0.627 0.627 0.779 -163.6897 1227.4344)" style="fill:#FFFFFF;" cx="1659.332" cy="845.919" rx="29.55" ry="22.474"/>
						
							<ellipse transform="matrix(0.779 -0.627 0.627 0.779 -146.8832 1275.116)" style="fill:#FFFFFF;" cx="1735.374" cy="845.919" rx="29.55" ry="22.474"/>
					</g>
				</g>
			</g>
			<g>
				<g>
					<polygon style="fill:#EFBC73;" points="1868.213,1074.415 1160.732,1074.415 1192.542,959.611 1900.023,959.611 					"/>
					<g>
						
							<ellipse transform="matrix(0.779 -0.627 0.627 0.779 -366.5096 997.3778)" style="fill:#D87355;" cx="1231.568" cy="1018.599" rx="29.55" ry="22.474"/>
						
							<ellipse transform="matrix(0.779 -0.627 0.627 0.779 -349.7031 1045.0588)" style="fill:#D87355;" cx="1307.61" cy="1018.599" rx="29.55" ry="22.474"/>
						
							<ellipse transform="matrix(0.779 -0.627 0.627 0.779 -332.8965 1092.7406)" style="fill:#D87355;" cx="1383.652" cy="1018.599" rx="29.55" ry="22.474"/>
						
							<ellipse transform="matrix(0.779 -0.627 0.627 0.779 -316.09 1140.4222)" style="fill:#D87355;" cx="1459.694" cy="1018.599" rx="29.55" ry="22.474"/>
					</g>
				</g>
			</g>
		</g>
		<g>
			<g>
				<g>
					<g>
						<path style="fill:#363E44;" d="M1019.982,1034.535c-0.416,0-0.833-0.017-1.253-0.052c-5.81-0.48-10.975-4.185-14.544-10.431
							c-3.5-6.125-5.055-13.994-4.377-22.157c1.409-16.99,12.194-30.016,24.034-29.035c5.81,0.48,10.975,4.185,14.544,10.431
							c3.501,6.125,5.056,13.994,4.377,22.157C1041.404,1021.835,1031.323,1034.535,1019.982,1034.535z M1022.574,974.807
							c-10.306,0-19.5,11.908-20.773,27.253c-0.644,7.764,0.819,15.222,4.121,21c3.232,5.656,7.84,9.005,12.972,9.43
							c10.788,0.893,20.56-11.318,21.878-27.207c0.645-7.764-0.819-15.222-4.121-21c-3.232-5.656-7.84-9.005-12.972-9.43
							C1023.31,974.823,1022.94,974.807,1022.574,974.807z"/>
						<path style="fill:#BC8271;" d="M1014.908,997.793c3.902-46.492,2.07-73.935-16.437-95.583
							c-24.873-29.093-66.969-26.317-71.359-25.962c-2.803,0.227-42.846,1.061-64.792,34.802
							c-21.673,33.322-17.411,91.046,1.378,125.66l-37.149,85.578c-11.667,25.658-6.98,36.134,18.724,47.78l5.822,2.638
							c25.704,11.646,56,0.288,67.667-25.37l24.277-53.388c16.925,6.026,31.971,7.154,40.89,1.252
							C999.905,1084.631,1010.314,1052.543,1014.908,997.793z"/>
						<path style="fill:#363E44;" d="M1040.574,1008.248c-0.07,0-0.142-0.007-0.213-0.023l-82.75-17.936
							c-0.54-0.117-0.883-0.649-0.766-1.189c0.118-0.54,0.654-0.881,1.19-0.765l82.75,17.937c0.54,0.117,0.883,0.649,0.766,1.189
							C1041.449,1007.928,1041.035,1008.248,1040.574,1008.248z"/>
						<path style="fill:#363E44;" d="M944.349,1094.018c-0.131,0-0.263-0.025-0.39-0.079c-0.509-0.215-0.746-0.802-0.531-1.311
							l8.367-19.781c0.216-0.509,0.803-0.747,1.311-0.531c0.509,0.215,0.746,0.802,0.531,1.311l-8.367,19.781
							C945.108,1093.788,944.738,1094.018,944.349,1094.018z"/>
						<path style="fill:#363E44;" d="M940.447,1018.013c-0.421,0-0.813-0.268-0.95-0.69c-2.229-6.829-3.548-11.189-4.51-14.373
							c-0.47-1.553-0.856-2.831-1.226-3.988c-0.167-0.526,0.123-1.089,0.649-1.256c0.522-0.168,1.089,0.122,1.257,0.649
							c0.371,1.165,0.761,2.453,1.233,4.017c0.96,3.175,2.274,7.523,4.496,14.331c0.172,0.525-0.115,1.09-0.64,1.261
							C940.654,1017.997,940.55,1018.013,940.447,1018.013z"/>
						<path style="fill:#363E44;" d="M1010.493,903.816c-14.988-38.99-90.88-54.829-133.535-31.716
							c-57.682,31.256-72.602,111.456-42.377,154.774c10.14,14.532,28.743,35.135,58.541,34.868
							c17.4-0.156,24.16-22.56,25.687-27.996c-12.298-8.517-16.642-24.496-10.603-37.346c6.081-12.944,21.117-19.354,33.632-16.052
							c8.301,2.19,13.285,8.07,15.22,10.651C996.792,963.598,1021.173,931.599,1010.493,903.816z"/>
					</g>
					<g>
						<path style="fill:#363E44;" d="M788.946,686.939c-133.424,15.801-126.067-150.42-126.067-150.42L532.003,722.528
							c14.751,73.141,80.076,97.369,80.076,97.369c-55.583,0.697-87.093-37.682-102.573-65.396l-36.453,51.81
							c0,0,32.982,127.947,163.264,76.092c130.281-51.853,210.908,58.662,210.908,58.662l21.654-58.662
							C868.878,882.403,922.37,671.137,788.946,686.939z"/>
						<g>
							<path style="fill:#FFFFFF;" d="M832.415,914.501c-0.199,0-0.4-0.059-0.576-0.183c-0.451-0.318-0.559-0.942-0.24-1.393
								c7.411-10.499,15.073-21.355,20.233-33.334c2.858-6.639,4.216-12.105,4.27-17.203c0.067-6.345-2.079-12.149-5.891-15.923
								c-4.285-4.245-10.731-5.659-15.678-3.436c-3.035,1.364-5.352,4.089-6.521,7.673c-1.337,4.098-0.945,8.638,1.05,12.145
								c3.209,5.642,9.954,9.033,16.411,8.246c0.556-0.066,1.048,0.324,1.113,0.872c0.067,0.548-0.323,1.047-0.871,1.114
								c-7.236,0.884-14.795-2.919-18.392-9.242c-2.268-3.988-2.722-9.13-1.212-13.754c1.347-4.126,4.046-7.278,7.602-8.877
								c5.681-2.553,13.044-0.976,17.906,3.84c4.192,4.152,6.556,10.482,6.483,17.365c-0.057,5.372-1.466,11.083-4.434,17.973
								c-5.241,12.171-12.966,23.114-20.435,33.696C833.038,914.353,832.729,914.501,832.415,914.501z"/>
							<path style="fill:#FFFFFF;" d="M823.671,908.249c-0.188,0-0.378-0.053-0.547-0.163c-0.462-0.302-0.592-0.922-0.289-1.384
								l10.047-15.358c0.304-0.461,0.923-0.591,1.385-0.289c0.462,0.302,0.592,0.922,0.289,1.384l-10.047,15.357
								C824.316,908.089,823.997,908.249,823.671,908.249z"/>
						</g>
						<path style="fill:#363E44;" d="M839.975,929.01c-0.241,0-0.483-0.087-0.675-0.262
							c-31.524-28.846-75.815-44.242-118.467-41.194c-23.685,1.695-46.94,8.754-69.43,15.581
							c-5.179,1.572-10.533,3.197-15.807,4.731c-26.436,7.688-57.471,14.801-87.175,9.273c-26.702-4.968-56.99-23.682-64.463-54.292
							c-0.131-0.536,0.198-1.078,0.734-1.208c0.531-0.131,1.077,0.197,1.209,0.734c7.26,29.742,36.815,47.95,62.885,52.8
							c29.301,5.452,60.044-1.605,86.251-9.227c5.263-1.531,10.611-3.154,15.784-4.725c22.595-6.859,45.959-13.951,69.868-15.662
							c43.185-3.092,88.038,12.504,119.959,41.713c0.407,0.373,0.436,1.005,0.063,1.413
							C840.515,928.901,840.245,929.01,839.975,929.01z"/>
						<path style="fill:#363E44;" d="M759.502,958.02c-4.021,0-8.042-1.04-11.5-3.126c-7.079-4.272-11.364-12.671-10.663-20.899
							c0.622-7.31,5.068-14.75,12.517-20.951c11.825-9.842,27.998-14.558,43.277-12.611c15.273,1.946,29.746,10.567,38.716,23.059
							c0.322,0.449,0.22,1.073-0.229,1.396c-0.45,0.322-1.074,0.219-1.396-0.229c-8.651-12.05-22.611-20.365-37.343-22.242
							c-14.738-1.877-30.339,2.67-41.746,12.164c-7.035,5.856-11.227,12.811-11.805,19.584c-0.638,7.487,3.262,15.129,9.704,19.017
							c6.445,3.888,15.037,3.782,21.384-0.262c4.834-3.081,8.767-9.334,6.932-15.327c-0.87-2.84-3.636-5.277-6.882-6.064
							c-2.38-0.577-4.6-0.182-6.208,1.081l1.901,2.938c0.301,0.463,0.168,1.083-0.295,1.383c-0.465,0.301-1.082,0.168-1.383-0.295
							l-2.8-4.324l0.558-0.571c2.137-2.192,5.308-2.976,8.697-2.156c3.97,0.962,7.236,3.875,8.323,7.422
							c2.128,6.947-2.298,14.112-7.769,17.599C767.927,956.88,763.714,958.02,759.502,958.02z"/>
					</g>
				</g>
			</g>
			<path style="fill:#363E44;" d="M431.102,1820.301c0,0-21.22,110.17,33.801,161.765h1002.545c0,0,117.629-280.357-498.611-257.108
				L431.102,1820.301z"/>
			<g>
				<g>
					<path style="fill:#BC8271;" d="M426.486,1407.507c-7.085,1.522-37.612,73.714-68.238,150.493
						c-35.027,87.814,29.441,183.305,124.128,183.98l31.324,0.223l129.297-355.829L426.486,1407.507z"/>
					<path style="fill:#ff6900;" d="M531.039,1418.104H376.487l75.564-151.86c37.766-75.898,115.34-123.896,200.238-123.896h235.956
						L531.039,1418.104z"/>
				</g>
				<g>
					<path style="fill:#BC8271;" d="M1204.83,1224.148c87.32,35.267,167.563,55.545,223.99,96.246
						c69.871,50.398,97.728,125.862,65.924,159.622c-33.348,35.4-165.678,61.246-342.526-18.738
						C1156.329,1389.072,1161.295,1296.449,1204.83,1224.148z"/>
					<path style="fill:#BC8271;" d="M1353.842,1319.894c21.323-49.919,74.799-161.448,120.498-244.236
						c47.993-86.945,131.533-208.337,148.396-196.453c9.605,6.769,1.64,25.677-23.013,74.799c3.734-1.24,15.214-2.749,23.09,4.987
						c11.657,11.449,5.738,23.939,5.651,25.265c1.233-0.523,14.663-5.786,23.766,0.558c10.253,7.148,12.728,17.691,10.746,27.286
						c3.098-1.202,14.978-4.478,23.546,1.878c8.814,6.538,13.261,19.75,7.583,29.684c-10.415,18.224-42.406,71.795-54.792,99.76
						c-24.374,55.029-84.652,262.048-140.939,332.288C1457.028,1409.697,1395.187,1385.908,1353.842,1319.894z"/>
					<path style="fill:#363E44;" d="M1568.833,974.385c-0.216,0-0.433-0.069-0.616-0.213l-13.099-10.263
						c-0.435-0.341-0.511-0.969-0.17-1.404c0.341-0.435,0.968-0.511,1.404-0.17l13.099,10.263c0.435,0.341,0.511,0.969,0.17,1.404
						C1569.424,974.253,1569.13,974.385,1568.833,974.385z"/>
					<path style="fill:#363E44;" d="M1602.108,1000.379c-0.216,0-0.433-0.07-0.616-0.213l-13.099-10.263
						c-0.435-0.341-0.511-0.969-0.17-1.404c0.34-0.435,0.969-0.511,1.404-0.17l13.099,10.263c0.435,0.341,0.511,0.969,0.17,1.404
						C1602.699,1000.247,1602.405,1000.379,1602.108,1000.379z"/>
					<path style="fill:#363E44;" d="M1636.283,1026.476c-0.216,0-0.433-0.069-0.616-0.213l-13.1-10.263
						c-0.435-0.341-0.511-0.969-0.17-1.404c0.341-0.435,0.969-0.511,1.404-0.17l13.1,10.263c0.435,0.341,0.511,0.969,0.17,1.404
						C1636.874,1026.344,1636.58,1026.476,1636.283,1026.476z"/>
					<path style="fill:#363E44;" d="M1666.788,1050.78c-0.216,0-0.433-0.069-0.616-0.213l-13.1-10.263
						c-0.435-0.341-0.511-0.969-0.17-1.404c0.342-0.435,0.969-0.511,1.404-0.17l13.1,10.263c0.435,0.341,0.511,0.969,0.17,1.404
						C1667.379,1050.648,1667.085,1050.78,1666.788,1050.78z"/>
				</g>
				<g>
					<g>
						<path style="fill:#ff6900;" d="M798.264,1142.348c251.956-5.949,460.489,89.312,460.489,89.312l-24.122,273.458
							l-107.071,1.984l-65.207,219.829l-79.227-2.261l-52.551,138.924l-554.088,6.269l105.285-373.125
							C481.772,1496.739,536.219,1148.535,798.264,1142.348z"/>
						<path style="fill:#363E44;" d="M1128.62,1506.345c-0.533,0-0.976-0.421-0.998-0.958c-0.372-8.943-0.562-19.95-0.746-30.594
							c-0.183-10.619-0.372-21.599-0.742-30.508c-0.023-0.552,0.405-1.018,0.958-1.041c0.505-0.019,1.017,0.405,1.04,0.958
							c0.371,8.934,0.561,19.926,0.744,30.557c0.184,10.632,0.373,21.625,0.744,30.545c0.023,0.552-0.405,1.018-0.957,1.041
							C1128.648,1506.344,1128.635,1506.345,1128.62,1506.345z"/>
						<path style="fill:#363E44;" d="M501.465,1408.508c-0.093,0-0.187-0.013-0.28-0.041c-0.53-0.155-0.835-0.71-0.68-1.24
							l30.056-102.891c0.154-0.53,0.707-0.834,1.24-0.68c0.53,0.155,0.834,0.71,0.68,1.24l-30.056,102.891
							C502.297,1408.224,501.898,1408.508,501.465,1408.508z"/>
					</g>
					<g>
						<path style="fill:#EFBC73;" d="M652.289,1142.348c0,0,23.434-47.605,83.585-47.772
							c60.151-0.167,281.233,46.795,281.233,46.795l10.025,24.902c0,0-175.516,103.399-301.604,118.291
							S604.839,1183.514,652.289,1142.348z"/>
						<path style="fill:#363E44;" d="M779.176,1194.069c-25.431,0-42.026-4.83-52.859-11.02
							c-15.964-9.122-18.148-20.532-18.232-21.014c-0.097-0.544,0.267-1.063,0.81-1.159c0.54-0.099,1.064,0.267,1.158,0.811
							c0.043,0.222,2.257,11.109,17.385,19.699c26.372,14.974,87.55,21.71,229.24-31.223c0.516-0.193,1.093,0.07,1.286,0.587
							c0.193,0.517-0.069,1.093-0.587,1.287C872.632,1183.697,816.429,1194.069,779.176,1194.069z"/>
					</g>
				</g>
			</g>
		</g>
		<g>
			<path style="fill:#363E44;" d="M1823.265,2088.662c-58.849,0-114.175-22.875-155.787-64.412
				c-41.612-41.538-64.529-96.765-64.529-155.508v-170.644c0-0.552,0.447-1,1-1h438.633c0.553,0,1,0.448,1,1v170.644
				c0,58.743-22.917,113.97-64.529,155.508C1937.439,2065.786,1882.113,2088.662,1823.265,2088.662z M1604.948,1699.098v169.644
				c0,120.162,97.937,217.92,218.316,217.92s218.316-97.758,218.316-217.92v-169.644H1604.948z M1840.771,1973.836h-35.014
				c-0.553,0-1-0.448-1-1v-91.667c-19.629-7.595-32.769-26.668-32.769-47.684c0-28.222,23.002-51.182,51.275-51.182
				s51.275,22.96,51.275,51.182c0,21.015-13.14,40.088-32.769,47.684v91.667C1841.771,1973.389,1841.324,1973.836,1840.771,1973.836
				z M1806.758,1971.836h33.014v-91.357c0-0.418,0.26-0.792,0.652-0.938c19.21-7.132,32.116-25.64,32.116-46.056
				c0-27.119-22.104-49.182-49.275-49.182s-49.275,22.063-49.275,49.182c0,20.415,12.906,38.924,32.116,46.056
				c0.393,0.146,0.652,0.52,0.652,0.938V1971.836z"/>
			<path style="fill:#363E44;" d="M2018.422,1653.223c-0.553,0-1-0.448-1-1c0-106.864-87.099-193.804-194.157-193.804
				s-194.157,86.94-194.157,193.804c0,0.552-0.447,1-1,1s-1-0.448-1-1c0-107.967,87.996-195.804,196.157-195.804
				s196.157,87.837,196.157,195.804C2019.422,1652.775,2018.975,1653.223,2018.422,1653.223z"/>
		</g>
	</g>
</g>
</svg>
