<?xml version="1.0" encoding="utf-8"?>
<!-- Generator: Adobe Illustrator 27.5.0, SVG Export Plug-In . SVG Version: 6.00 Build 0)  -->
<svg version="1.1" xmlns="http://www.w3.org/2000/svg" xmlns:xlink="http://www.w3.org/1999/xlink" x="0px" y="0px"
	 viewBox="0 0 2500 2500" style="enable-background:new 0 0 2500 2500;" xml:space="preserve">
-
<g id="Illustration">
	<g id="Meeting_1_">
		<circle style="fill:transparent;" cx="1250" cy="1250" r="915"/>
		<g>
			
				<rect x="438.497" y="580.79" transform="matrix(-1 -1.224647e-16 1.224647e-16 -1 2439.7151 2269.7209)" style="fill:#FFFFFF;" width="1562.721" height="1108.141"/>
			
				<rect x="762.308" y="355.037" transform="matrix(-1.836970e-16 1 -1 -1.836970e-16 2307.2263 -132.4886)" style="fill:#F7F1EB;" width="915.099" height="1464.663"/>
			
				<ellipse transform="matrix(0.9732 -0.2298 0.2298 0.9732 -337.5244 323.3655)" style="fill:#F2E6DC;" cx="1219.857" cy="1611.104" rx="29.416" ry="29.416"/>
		</g>
		<g>
			
				<ellipse transform="matrix(0.3162 -0.9487 0.9487 0.3162 85.9222 1053.1807)" style="fill:#E6D0BE;" cx="773.566" cy="466.985" rx="38.552" ry="38.552"/>
			<g>
				<path style="fill:#E6D0BE;" d="M1164.561,429.433H832.92c-0.553,0-1-0.447-1-1c0-0.553,0.447-1,1-1h331.641c0.553,0,1,0.447,1,1
					C1165.561,428.985,1165.113,429.433,1164.561,429.433z"/>
				<path style="fill:#E6D0BE;" d="M1164.561,467.985H940.434c-0.553,0-1-0.447-1-1c0-0.553,0.447-1,1-1h224.127
					c0.553,0,1,0.447,1,1C1165.561,467.538,1165.113,467.985,1164.561,467.985z"/>
				<path style="fill:#E6D0BE;" d="M908.154,467.985H832.92c-0.553,0-1-0.447-1-1c0-0.553,0.447-1,1-1h75.234c0.553,0,1,0.447,1,1
					C909.154,467.538,908.707,467.985,908.154,467.985z"/>
				<path style="fill:#E6D0BE;" d="M1164.561,506.537h-90.955c-0.553,0-1-0.447-1-1s0.447-1,1-1h90.955c0.553,0,1,0.447,1,1
					S1165.113,506.537,1164.561,506.537z"/>
				<path style="fill:#E6D0BE;" d="M1013.131,506.537H832.92c-0.553,0-1-0.447-1-1s0.447-1,1-1h180.211c0.553,0,1,0.447,1,1
					S1013.684,506.537,1013.131,506.537z"/>
			</g>
		</g>
		<g>
			<path style="fill:#E6D0BE;" d="M2094.674,1296.661h-376.333v-98.325h376.333V1296.661z M1720.341,1294.661h372.333v-94.325
				h-372.333V1294.661z"/>
			<g>
				<path style="fill:#E6D0BE;" d="M2047.4,1167.639c-15.964-4.839-17.854-28.432-31.17-28.095
					c-32.971,0.832-47.941,103.744-72.947,102.385c-20.642-1.122-24.022-71.99-47.927-74.29
					c-25.515-2.455-43.507,76.182-71.064,74.29c-24.197-1.661-23.232-63.179-66.105-83.774c-7.203-3.46-14.751-5.332-22.321-6.074
					v123.665h341.28v-116.431C2064.268,1168.164,2054.682,1169.847,2047.4,1167.639z"/>
			</g>
		</g>
		<g>
			<path style="fill:#E6D0BE;" d="M1906.508,1503.576H1242.64c-0.553,0-1-0.447-1-1v-408.585c0-0.553,0.447-1,1-1h663.868
				c0.553,0,1,0.447,1,1v408.585C1907.508,1503.129,1907.061,1503.576,1906.508,1503.576z M1243.64,1501.576h661.868v-406.585
				H1243.64V1501.576z"/>
			<path style="fill:#E6D0BE;" d="M1197.075,1503.576H533.208c-0.553,0-1-0.447-1-1v-408.585c0-0.553,0.447-1,1-1h663.867
				c0.553,0,1,0.447,1,1v408.585C1198.075,1503.129,1197.628,1503.576,1197.075,1503.576z M534.208,1501.576h661.867v-406.585
				H534.208V1501.576z"/>
			<path style="fill:#E6D0BE;" d="M1197.075,1063.759H533.208c-0.553,0-1-0.447-1-1V654.174c0-0.553,0.447-1,1-1h663.867
				c0.553,0,1,0.447,1,1v408.585C1198.075,1063.312,1197.628,1063.759,1197.075,1063.759z M534.208,1061.759h661.867V655.174
				H534.208V1061.759z"/>
		</g>
		<g>
			<g>
				<g>
					<rect x="1286.772" y="451.638" style="fill:#E6D0BE;" width="840.927" height="54.902"/>
					<path style="fill:#E6D0BE;" d="M2127.699,1029.75h-840.928c-0.552,0-1-0.447-1-1V451.638c0-0.553,0.448-1,1-1h840.928
						c0.552,0,1,0.447,1,1v577.112C2128.699,1029.303,2128.251,1029.75,2127.699,1029.75z M1287.771,1027.75h838.928V452.638
						h-838.928V1027.75z"/>
					<path style="fill:#FFFFFF;" d="M1335.766,479.472c0,6.897-5.591,12.488-12.487,12.488c-6.896,0-12.487-5.591-12.487-12.488
						c0-6.897,5.591-12.487,12.487-12.487C1330.175,466.985,1335.766,472.576,1335.766,479.472z"/>
					<path style="fill:#FFFFFF;" d="M1376.112,479.472c0,6.897-5.591,12.488-12.487,12.488c-6.896,0-12.488-5.591-12.488-12.488
						c0-6.897,5.591-12.487,12.488-12.487C1370.522,466.985,1376.112,472.576,1376.112,479.472z"/>
					<path style="fill:#FFFFFF;" d="M1416.459,479.472c0,6.897-5.591,12.488-12.487,12.488s-12.487-5.591-12.487-12.488
						c0-6.897,5.591-12.487,12.487-12.487S1416.459,472.576,1416.459,479.472z"/>
				</g>
			</g>
			<g>
				<g>
					
						<ellipse transform="matrix(0.7071 -0.7071 0.7071 0.7071 130.9986 1401.3906)" style="fill:#363E44;" cx="1757.127" cy="542.566" rx="85.774" ry="85.774"/>
					<path style="fill:#363E44;" d="M1602.777,464.784c0,0-68.279,4.693-64.909-44.164c3.369-48.857,58.992-42.118,87.618-26.955
						c28.627,15.163,74.114-15.162,97.699,5.054c23.586,20.217,15.026,114.072-32.078,124.424
						C1644.004,533.496,1602.777,464.784,1602.777,464.784z"/>
				</g>
				<g>
					<g>
						<path style="fill:#9E6C5A;" d="M1459.275,673.133c-141.505,58.746-210.567,108.628-183.956,160.372
							c15.437,30.016,115.826,24.937,229.933-15.501C1493.772,770.966,1474.427,729.735,1459.275,673.133z"/>
						<path style="fill:#9E6C5A;" d="M1923.126,668.998c52.672,56.291,214.155,210.121,152.35,272.756
							c-51.122,51.808-202.138-104.485-257.894-157.24C1852.764,746.009,1887.945,707.503,1923.126,668.998z"/>
						<path style="fill:#EFBC73;" d="M1965.886,658.487c0,0-141.022-67.043-270.485-55.484s-256.036,62.42-256.036,62.42
							l61.842,157.205l-18.495,198.063h457.744l-34.677-188.238L1965.886,658.487z"/>
					</g>
					<g>
						<path style="fill:#9E6C5A;" d="M1416.246,796.327c0.003-0.002,0.005-0.006,0.003-0.01
							c-50.678-129.072-84.159-221.618-95.618-249.782c-1.2-2.949-3.294-8.165-7.752-13.952
							c-16.515-21.445-39.004-16.38-66.659-31.004c-31.379-16.594-39.653-43.704-48.057-40.306
							c-5.846,2.364-5.604,13.468,3.098,34.095l-0.003,0.002c-8.413-14.911-20.705-34.636-28.932-29.963
							c-9.211,5.904,2.51,30.774,10.335,45.473c-9.472-17.791-19.832-24.418-23.77-20.669c-6.198,5.9-2.066,21.408,11.366,44.436
							l-0.001,0.001c-13.716-13.31-19.027-14.495-21.7-10.332c-4.88,7.6,6.519,26.324,19.133,41.332
							c14.201,16.896,31.075,25.073,41.838,29.976c0.003,0.001,0.005,0.004,0.006,0.007
							c26.121,94.079,42.795,154.612,62.345,231.024c4,15.633,20.536,24.485,35.768,19.158
							C1348.827,831.41,1371.754,822.565,1416.246,796.327z"/>
						<path style="fill:#363E44;" d="M1415.676,795.854c-0.399,0-0.776-0.24-0.931-0.635
							c-11.164-28.445-22.176-56.846-33.662-86.824c-0.198-0.516,0.061-1.094,0.576-1.291c0.513-0.197,1.094,0.06,1.291,0.576
							c11.485,29.973,22.494,58.368,33.656,86.809c0.202,0.514-0.051,1.095-0.565,1.296
							C1415.921,795.832,1415.798,795.854,1415.676,795.854z"/>
						<path style="fill:#9E6C5A;" d="M1268.459,520.909c-10.72-33.447-7.499-47.782-2.144-49.312
							c9.005-2.573,29.846,22.236,51.671,69.144C1303.692,536.453,1282.752,525.197,1268.459,520.909z"/>
						<path style="fill:#363E44;" d="M1263.742,580.226c-0.424,0-0.817-0.271-0.953-0.696c-1.854-5.812-5.832-14.167-14.254-20.965
							c-11.916-9.618-25.376-9.945-30.616-9.644c-0.567,0.021-1.025-0.389-1.057-0.94c-0.032-0.552,0.389-1.024,0.939-1.057
							c5.473-0.321,19.53,0.024,31.989,10.083c8.809,7.109,12.967,15.841,14.904,21.914c0.167,0.526-0.123,1.089-0.649,1.257
							C1263.945,580.211,1263.843,580.226,1263.742,580.226z"/>
						<path style="fill:#363E44;" d="M1298.685,522.673c-0.162,0-0.327-0.039-0.479-0.123c-6.627-3.628-14.087-5.625-21.984-7.74
							c-3.761-1.007-7.649-2.048-11.69-3.319c-0.527-0.166-0.82-0.728-0.654-1.254c0.167-0.527,0.729-0.818,1.254-0.654
							c4.001,1.259,7.868,2.295,11.608,3.296c8.017,2.146,15.589,4.174,22.428,7.918c0.484,0.265,0.662,0.873,0.396,1.357
							C1299.381,522.485,1299.038,522.673,1298.685,522.673z"/>
						<path style="fill:#363E44;" d="M1225.006,517.764c-0.171,0-0.344-0.044-0.502-0.136c-3.748-2.179-7.31-4.716-10.585-7.539
							c-4.752-4.098-8.947-8.83-12.469-14.064c-0.308-0.459-0.187-1.08,0.271-1.389c0.458-0.308,1.079-0.186,1.389,0.272
							c3.422,5.087,7.498,9.685,12.115,13.665c3.182,2.744,6.642,5.208,10.284,7.326c0.478,0.277,0.64,0.89,0.361,1.367
							C1225.686,517.586,1225.351,517.764,1225.006,517.764z"/>
						<path style="fill:#363E44;" d="M1205.264,530.926c-0.171,0-0.344-0.044-0.502-0.136c-3.748-2.179-7.31-4.716-10.585-7.539
							c-4.751-4.098-8.947-8.83-12.47-14.064c-0.308-0.459-0.187-1.08,0.271-1.389c0.458-0.307,1.079-0.187,1.389,0.271
							c3.423,5.088,7.499,9.686,12.116,13.666c3.182,2.744,6.642,5.208,10.284,7.326c0.478,0.277,0.64,0.89,0.361,1.367
							C1205.943,530.748,1205.608,530.926,1205.264,530.926z"/>
						<path style="fill:#363E44;" d="M1193.417,557.249c-0.171,0-0.344-0.044-0.502-0.136c-3.749-2.18-7.31-4.717-10.584-7.539
							c-4.749-4.095-8.944-8.826-12.47-14.064c-0.308-0.458-0.187-1.08,0.271-1.389c0.458-0.308,1.079-0.188,1.389,0.272
							c3.425,5.09,7.501,9.688,12.116,13.665c3.181,2.743,6.641,5.208,10.283,7.326c0.478,0.277,0.64,0.89,0.361,1.367
							C1194.097,557.071,1193.762,557.249,1193.417,557.249z"/>
					</g>
					<g>
						
							<rect x="1554.667" y="822.48" transform="matrix(-0.9519 0.3065 -0.3065 -0.9519 3533.3545 1363.9797)" style="fill:#363E44;" width="209.8" height="273.953"/>
						
							<rect x="1584.14" y="812.766" transform="matrix(-0.9519 0.3065 -0.3065 -0.9519 3411.6709 1122.8506)" style="fill:#FFFFFF;" width="67.043" height="33.136"/>
						<path style="fill:#FFFFFF;" d="M1611.647,831.506c-6.854,0.001-13.239-4.382-15.45-11.248l0,0
							c-1.328-4.124-0.971-8.518,1.006-12.373c1.977-3.856,5.336-6.71,9.46-8.038c4.125-1.329,8.519-0.97,12.373,1.006
							c3.855,1.978,6.71,5.337,8.038,9.461c1.328,4.123,0.971,8.518-1.006,12.373c-1.977,3.854-5.337,6.709-9.46,8.038
							C1614.962,831.254,1613.291,831.506,1611.647,831.506z M1611.651,801.059c-1.467,0-2.939,0.229-4.375,0.692
							c-3.615,1.164-6.561,3.666-8.294,7.046c-1.732,3.38-2.046,7.232-0.881,10.848l0,0c2.403,7.463,10.432,11.578,17.894,9.176
							c3.615-1.164,6.561-3.667,8.293-7.047c1.733-3.38,2.047-7.231,0.882-10.847c-1.164-3.615-3.666-6.562-7.046-8.294
							C1616.086,801.588,1613.877,801.059,1611.651,801.059z"/>
					</g>
					<g>
						<path style="fill:#9E6C5A;" d="M2017.972,827.309c-59.541,12.955-201.266,36.521-215.009,39.373
							c-25.691,5.331-162.82,37.515-160.321,57.806c1.194,9.696,27.893,4.689,36.869,2.734
							c-6.471,5.153-33.467,22.251-29.355,32.401c4.831,11.924,40.117-3.524,40.818-3.419c-7.103,4.567-36.131,21.612-33.344,29.341
							c3.625,10.056,35.386,2.298,44.787-0.464c-0.609,1.573-29.18,19.847-26.704,25.911c2.742,6.719,32.532,0.194,44.572-1.295
							c22.829-4.718,112.532-18.29,156.42-22.811c103.077-10.616,134.886-22.414,183.821-36.314
							C2079.683,945.133,2047.188,842.218,2017.972,827.309z"/>
						<path style="fill:#363E44;" d="M1909.63,847.324c-0.474,0-0.895-0.338-0.982-0.82c-0.1-0.544,0.261-1.064,0.804-1.163
							c28.848-5.256,88.612-16.267,108.321-20.327c0.548-0.107,1.07,0.237,1.182,0.777c0.111,0.541-0.236,1.07-0.777,1.182
							c-19.728,4.064-79.512,15.079-108.366,20.335C1909.75,847.319,1909.689,847.324,1909.63,847.324z"/>
						<path style="fill:#363E44;" d="M1678.996,927.336c-0.335,0-0.662-0.168-0.852-0.474c-0.29-0.47-0.146-1.087,0.324-1.377
							c4.711-2.913,9.663-5.523,14.717-7.755c9.077-4.01,18.684-6.9,28.552-8.592c0.558-0.092,1.062,0.272,1.154,0.816
							c0.094,0.544-0.272,1.062-0.816,1.154c-9.706,1.664-19.154,4.508-28.081,8.451c-4.971,2.195-9.84,4.761-14.473,7.626
							C1679.357,927.288,1679.176,927.336,1678.996,927.336z"/>
						<path style="fill:#363E44;" d="M1690.325,956.651c-0.374,0-0.732-0.21-0.903-0.569c-0.238-0.499-0.026-1.096,0.472-1.333
							c1.049-0.501,2.123-0.996,3.225-1.481c9.082-4.012,18.688-6.902,28.552-8.592c0.56-0.092,1.062,0.272,1.154,0.816
							c0.094,0.545-0.272,1.062-0.816,1.154c-9.701,1.662-19.149,4.505-28.082,8.451c-1.083,0.477-2.14,0.965-3.171,1.456
							C1690.616,956.62,1690.469,956.651,1690.325,956.651z"/>
						<path style="fill:#363E44;" d="M1702.979,985.676c-0.416,0-0.804-0.261-0.946-0.676c-0.179-0.523,0.1-1.091,0.622-1.271
							c6.138-2.104,12.513-3.73,18.949-4.833c0.56-0.088,1.062,0.273,1.154,0.816c0.094,0.544-0.272,1.062-0.816,1.154
							c-6.331,1.085-12.602,2.685-18.639,4.755C1703.196,985.658,1703.087,985.676,1702.979,985.676z"/>
					</g>
				</g>
				<g>
					<g>
						<polygon style="fill:#9E6C5A;" points="1764.11,617.362 1708.267,498.97 1640.889,509.635 1660.141,616.013 						"/>
						<path style="fill:#9E6C5A;" d="M1645.684,616.54c0,9.152,28.728,16.571,64.166,16.571c35.438,0,64.166-7.419,64.166-16.571
							c0-9.152-28.728-18.974-64.166-18.974C1674.412,597.566,1645.684,607.389,1645.684,616.54z"/>
					</g>
					<path style="fill:#9E6C5A;" d="M1584.124,453.179c0,0,10.421,101.538,53.341,104.786c25.968,1.965,49.766-27.894,55.538-41.91
						c5.773-14.016,0-36.927,0-36.927s-8.72,8.167-15.726,2.774c-7.006-5.393,1.086-39.308-29.725-37.922
						C1616.741,445.364,1613.398,458.392,1584.124,453.179z"/>
					<path style="fill:#363E44;" d="M1648.478,559.599c-0.439,0-0.842-0.292-0.964-0.736c-0.146-0.532,0.168-1.082,0.701-1.229
						c13.896-3.802,27.126-15.905,34.072-26.214c0.31-0.459,0.933-0.578,1.388-0.271c0.458,0.309,0.579,0.93,0.271,1.388
						c-7.153,10.615-20.813,23.089-35.203,27.026C1648.654,559.587,1648.565,559.599,1648.478,559.599z"/>
					<path style="fill:#9E6C5A;" d="M1678.593,489.456c-2.627,8.194-0.086,23.114,8.108,25.741
						c8.194,2.628,18.938-8.033,21.565-16.227c2.627-8.194-1.885-16.966-10.08-19.594
						C1689.993,476.749,1681.221,481.262,1678.593,489.456z"/>
					<g>
						<g>
							<path style="fill:#FFFFFF;" d="M1650.357,474.926c-0.017,0.207,0.12,0.368,0.103,0.575c0,0.009-0.004,0.015-0.005,0.024
								c0.678,2.836,1.401,5.826,2.586,8.489c0.524,1.179,1.357,1.824,1.977,2.88c0.455,0.774,0.888,1.517,1.367,2.261
								c6.531-7.126,8.73-16,8.73-16S1658.026,472.553,1650.357,474.926z"/>
							<path style="fill:#363E44;" d="M1641.779,479.101c-9.245,6.565-12.694,17.859-13.223,19.765
								c0.111,0.114,0.224,0.225,0.338,0.336c2.252,0.137,13.82,0.484,22.915-5.975c1.705-1.211,3.198-2.59,4.527-4.036
								c0.078-0.789,0.118-1.589,0.078-2.405c-0.239-4.825-2.573-9.04-6.066-11.844
								C1647.48,475.844,1644.518,477.156,1641.779,479.101z"/>
						</g>
						<g>
							<path style="fill:#FFFFFF;" d="M1596.817,497.104c0.11,3.444,0.83,6.026,2.839,8.646c8.165-0.896,14.436-4.431,14.436-4.431
								s-6.731-8.434-16.813-11.942C1596.497,491.793,1596.74,494.659,1596.817,497.104z"/>
							<path style="fill:#363E44;" d="M1599.481,505.766c2.267-5.362,1.513-11.665-2.211-16.369c-1.134-0.386-2.3-0.727-3.518-0.97
								c-12.17-2.429-23.731,4.097-23.731,4.097s8.17,10.464,20.34,12.893C1593.507,506.044,1596.606,506.067,1599.481,505.766z"/>
						</g>
					</g>
					<g>
						<path style="fill:#363E44;" d="M1700.002,500.707c-0.099,0-0.198-0.015-0.298-0.045c-0.527-0.165-0.821-0.726-0.657-1.253
							c0.139-0.444,0.239-0.906,0.301-1.373c0.24-1.834-0.132-3.629-1.048-5.054c-0.882-1.372-2.166-2.232-3.616-2.423
							c-0.727-0.094-1.457-0.019-2.17,0.228c-0.521,0.179-1.091-0.098-1.271-0.619c-0.181-0.521,0.097-1.091,0.619-1.271
							c1.009-0.349,2.046-0.456,3.083-0.319c2.043,0.268,3.833,1.448,5.038,3.323c1.172,1.822,1.65,4.094,1.348,6.395
							c-0.075,0.58-0.201,1.155-0.373,1.71C1700.823,500.433,1700.429,500.707,1700.002,500.707z"/>
					</g>
					<path style="fill:#363E44;" d="M1619.927,517.257c-0.218,0-0.438-0.071-0.621-0.217c-1.593-1.266-2.5-2.691-2.698-4.239
						c-0.218-1.704,0.505-2.965,1.271-4.299c0.513-0.894,1.094-1.906,1.502-3.232c0.518-1.685,0.646-3.524,0.383-5.468
						c-0.074-0.548,0.31-1.052,0.856-1.126c0.562-0.071,1.052,0.311,1.126,0.856c0.303,2.233,0.15,4.361-0.453,6.325
						c-0.475,1.539-1.143,2.703-1.68,3.639c-0.695,1.212-1.154,2.012-1.021,3.05c0.129,1.013,0.788,1.997,1.958,2.927
						c0.433,0.344,0.505,0.973,0.161,1.405C1620.514,517.127,1620.222,517.257,1619.927,517.257z"/>
					<path style="fill:#363E44;" d="M1632.288,530.121c-0.984,0-2.036-0.174-3.152-0.523c-0.527-0.164-0.821-0.725-0.657-1.252
						c0.164-0.526,0.728-0.819,1.253-0.657c2.135,0.666,3.915,0.555,5.295-0.334c2.587-1.662,3.099-5.481,3.104-5.52
						c0.07-0.548,0.575-0.923,1.118-0.866c0.548,0.069,0.936,0.57,0.866,1.118c-0.024,0.194-0.643,4.789-4.007,6.95
						C1634.984,529.76,1633.707,530.121,1632.288,530.121z"/>
				</g>
			</g>
		</g>
		<g>
			<path style="fill:#E6D0BE;" d="M1625.646,1482.307H1346.55l15.648-100.795l-88.98-3.395c0,0,41.973-146.42,215.72-143.704
				c172.523,2.696,235.316,115.128,235.316,115.128l-100.868,52.336L1625.646,1482.307z"/>
			<g>
				<polygon style="fill:#E2A18D;" points="1273.217,1378.118 1261.997,1424.161 1357.937,1424.161 1368.383,1378.118 				"/>
				<g>
					<path style="fill:#E2A18D;" d="M1589.549,1482.307h-286.37c-28.303,0-49.07-26.598-42.205-54.055l5.868-23.472h245.18
						C1554.839,1404.78,1589.549,1439.49,1589.549,1482.307L1589.549,1482.307z"/>
					<path style="fill:#363E44;" d="M1370.212,1405.78h-49.101c-0.553,0-1-0.447-1-1s0.447-1,1-1h49.101c0.553,0,1,0.447,1,1
						S1370.765,1405.78,1370.212,1405.78z"/>
				</g>
			</g>
			<path style="fill:#E2A18D;" d="M1707.779,1482.307L1707.779,1482.307c40.755,0,66.431-43.883,46.462-79.411l-29.988-53.354
				l-83.156,40.67l25.755,64.735c6.572,16.519,22.553,27.361,40.332,27.361H1707.779z"/>
			<g>
				<path style="fill:#E2A18D;" d="M1455.481,1163.514c5.755,7.767,5.063,18.034-1.548,22.932c-6.61,4.898-16.634,2.573-22.39-5.194
					c-5.755-7.767-5.062-18.034,1.548-22.932C1439.702,1153.421,1449.726,1155.747,1455.481,1163.514z"/>
				<path style="fill:#E2A18D;" d="M1526.54,1159.897c-4.937,8.311-3.205,18.455,3.868,22.656c7.073,4.202,16.81,0.87,21.747-7.441
					c4.937-8.311,3.205-18.455-3.868-22.657C1541.213,1148.255,1531.476,1151.586,1526.54,1159.897z"/>
				<path style="fill:#E2A18D;" d="M1487.535,1295.402L1487.535,1295.402c-17.261-0.792-30.613-15.427-29.822-32.688l2.9-88.733
					l62.51,2.867l-2.9,88.733C1519.432,1282.842,1504.797,1296.194,1487.535,1295.402z"/>
				<path style="fill:#363E44;" d="M1498.735,1245.565c-50.143,2.964-52.006-80.761-52.006-80.761l88.854-3.006
					C1535.583,1161.797,1547.356,1242.691,1498.735,1245.565z"/>
				
					<ellipse transform="matrix(0.7071 -0.7071 0.7071 0.7071 -377.7096 1369.2272)" style="fill:#363E44;" cx="1463.949" cy="1140.549" rx="31.884" ry="31.884"/>
				<path style="fill:#E2A18D;" d="M1534.655,1168.222c1.418,27.862-16.655,13.208-40.368,14.415
					c-23.712,1.207-44.085,17.818-45.503-10.044c-1.418-27.862,16.655-43.775,40.368-44.982
					C1512.865,1126.404,1533.237,1140.36,1534.655,1168.222z"/>
				<path style="fill:#363E44;" d="M1534.647,1182.751c-0.06,0-0.119-0.005-0.18-0.017c-0.544-0.099-0.904-0.619-0.805-1.162
					c0.788-4.335,1.072-8.81,0.843-13.299c-0.203-4.006-0.813-7.967-1.811-11.772c-0.141-0.534,0.179-1.081,0.713-1.222
					c0.535-0.136,1.081,0.18,1.221,0.714c1.033,3.938,1.664,8.036,1.875,12.179c0.236,4.643-0.058,9.271-0.874,13.758
					C1535.543,1182.413,1535.121,1182.751,1534.647,1182.751z"/>
				<path style="fill:#363E44;" d="M1450.097,1186.741c-0.435,0-0.836-0.286-0.961-0.726c-1.228-4.311-1.968-8.81-2.201-13.372
					c-0.214-4.22,0.01-8.438,0.666-12.54c0.087-0.546,0.603-0.917,1.146-0.829c0.545,0.087,0.916,0.6,0.829,1.146
					c-0.634,3.963-0.851,8.042-0.643,12.122c0.225,4.412,0.94,8.761,2.127,12.925c0.151,0.531-0.157,1.085-0.688,1.236
					C1450.28,1186.729,1450.188,1186.741,1450.097,1186.741z"/>
				<g>
					<g>
						<path style="fill:#FFFFFF;" d="M1484.83,1172.717c0,0-4.318-5.784-11.105-8.257c-0.042,0.501-0.712,11.051-0.712,11.051
							C1479.458,1175.573,1484.83,1172.717,1484.83,1172.717z"/>
						<path style="fill:#363E44;" d="M1473.259,1175.538c2.394-3.209,2.673-7.497,0.815-10.953c-0.848-0.326-1.729-0.61-2.653-0.817
							c-8.106-1.818-15.946,2.367-15.946,2.367s5.303,7.132,13.409,8.95C1470.367,1175.416,1471.84,1175.544,1473.259,1175.538z"/>
					</g>
					<g>
						<path style="fill:#FFFFFF;" d="M1514.338,1160.865c-0.101,0.105,1.004,11.312,1.265,11.624
							c7.665-2.964,11.878-10.626,11.878-10.626S1521.024,1159.638,1514.338,1160.865z"/>
						<path style="fill:#363E44;" d="M1514.338,1160.865c-0.989,0.195-1.987,0.467-2.977,0.837
							c-7.781,2.911-12.056,10.701-12.056,10.701s8.339,3.072,16.12,0.161c0.351-0.131,0.686-0.283,1.021-0.432
							C1518.241,1168.353,1517.42,1163.784,1514.338,1160.865z"/>
					</g>
				</g>
				<path style="fill:#363E44;" d="M1494.702,1184.707c-0.3,0-0.597-0.134-0.794-0.391c-0.336-0.438-0.255-1.065,0.184-1.402
					c1.124-0.864,1.701-1.682,1.715-2.43c0.011-0.555-0.283-0.992-0.805-1.717c-0.544-0.757-1.221-1.698-1.513-3.102
					c-0.261-1.26-0.15-2.594,0.327-3.966c0.182-0.521,0.749-0.796,1.273-0.615c0.521,0.182,0.797,0.752,0.615,1.273
					c-0.357,1.025-0.443,2.001-0.257,2.901c0.205,0.987,0.678,1.645,1.178,2.34c0.593,0.824,1.205,1.676,1.181,2.923
					c-0.026,1.386-0.866,2.724-2.496,3.978C1495.129,1184.64,1494.915,1184.707,1494.702,1184.707z"/>
				<path style="fill:#FFFFFF;" d="M1488.02,1197.046c-1.756,0-4.378-0.349-6.938-2.005c-1.625-1.051-3.012-2.502-4.01-4.198
					c-0.279-0.476-0.121-1.089,0.355-1.369c0.478-0.28,1.089-0.121,1.369,0.355c0.84,1.429,2.006,2.65,3.371,3.532
					c2.613,1.69,5.316,1.764,6.692,1.652c0.551-0.037,1.032,0.367,1.075,0.919c0.043,0.551-0.368,1.032-0.919,1.075
					C1488.729,1197.03,1488.394,1197.046,1488.02,1197.046z"/>
				<path style="fill:#363E44;" d="M1443.117,1157.979c0,0,22.957,3.401,46.764-24.657c0,0,44.213,57.817,78.223-11.904
					c0,0-19.922,8.792-30.609-5.101c-17.005-22.106-57.817-39.962-73.972,0.85L1443.117,1157.979z"/>
			</g>
			<g>
				<g>
					<path style="fill:#363E44;" d="M1484.995,1280.786c0.904,7.176,1.386,14.672,1.386,22.387
						c0,35.721-10.264,66.798-25.391,82.779h-46.536c-15.127-15.981-25.39-47.058-25.39-82.779c0-7.715,0.482-15.21,1.385-22.387
						H1484.995z"/>
					<path style="fill:#363E44;" d="M1475.066,1371.192c27.968,0.001,46.055-11.277,53.85-33.626
						c2.602-7.458,2.258-16.886-0.922-25.22c-3.563-9.341-10.114-16.197-18.447-19.304c-8.823-3.291-19.28-2.489-28.69,2.198
						c-9.773,4.868-17.532,13.38-21.845,23.968l5.949,2.424c6.552-16.082,25.126-28.989,42.342-22.571
						c11.557,4.31,20.867,21.145,15.548,36.39c-7.9,22.647-27.402,32.025-59.611,28.672l-0.665,6.389
						C1466.934,1370.965,1471.101,1371.191,1475.066,1371.192z"/>
				</g>
				<g>
					<path style="fill:#E2A18D;" d="M1699.84,1387.813c-37.676-18.999-124.188-68.135-132.823-72.595
						c-16.144-8.337-50.052-27.062-57.932-17.401c-2.621,3.213-2.961,8.106-1.162,12.727c-5.266,0.745-9.552,4.485-10.833,9.414
						c-1.683,6.478,2.741,11.489,3.072,11.852c-4.119,0.037-7.885,2.073-9.645,5.386c-2.427,4.571-0.739,11.016,4.492,14.459
						c-1.013,0.581-4.551,2.773-5.863,7.115c-1.455,4.81,0.409,10.315,4.738,13.919c14.337,7.419,39.028,20.489,65.313,36.066
						c60.38,35.783,130.899,70.359,130.899,70.359S1711.956,1415.116,1699.84,1387.813z"/>
					<path style="fill:#363E44;" d="M1704.294,1391.212c-0.152,0-0.308-0.035-0.453-0.109c-1.729-0.882-12.532-6.676-25.04-13.385
						c-14.139-7.585-30.165-16.181-34.561-18.466c-0.49-0.255-0.681-0.859-0.427-1.349c0.255-0.49,0.855-0.681,1.349-0.427
						c4.408,2.292,20.439,10.892,34.584,18.479c11.979,6.425,23.292,12.493,25.003,13.366c0.492,0.251,0.688,0.853,0.437,1.345
						C1705.009,1391.013,1704.658,1391.212,1704.294,1391.212z"/>
					<g>
						<path style="fill:#363E44;" d="M1529.23,1315.674c-0.133,0-0.269-0.026-0.398-0.083c-0.507-0.222-0.738-0.811-0.518-1.316
							l3.195-7.328c0.221-0.505,0.813-0.737,1.316-0.518c0.507,0.221,0.738,0.811,0.518,1.316l-3.195,7.328
							C1529.984,1315.449,1529.616,1315.674,1529.23,1315.674z"/>
						<path style="fill:#363E44;" d="M1521.096,1334.26c-0.133,0-0.269-0.026-0.398-0.083c-0.507-0.221-0.738-0.811-0.518-1.316
							l3.195-7.329c0.22-0.506,0.806-0.739,1.316-0.518c0.506,0.221,0.738,0.811,0.518,1.316l-3.195,7.329
							C1521.85,1334.035,1521.481,1334.26,1521.096,1334.26z"/>
						<path style="fill:#363E44;" d="M1512.604,1353.094c-0.133,0-0.269-0.026-0.398-0.083c-0.507-0.221-0.738-0.811-0.518-1.316
							l3.196-7.329c0.222-0.505,0.811-0.738,1.316-0.518c0.507,0.221,0.738,0.811,0.518,1.316l-3.196,7.329
							C1513.357,1352.869,1512.989,1353.094,1512.604,1353.094z"/>
						<path style="fill:#363E44;" d="M1505.255,1370.332c-0.133,0-0.269-0.026-0.398-0.083c-0.507-0.221-0.738-0.811-0.518-1.316
							l3.195-7.328c0.221-0.505,0.81-0.737,1.316-0.518c0.507,0.222,0.738,0.811,0.518,1.316l-3.195,7.328
							C1506.009,1370.107,1505.641,1370.332,1505.255,1370.332z"/>
					</g>
				</g>
			</g>
			<path style="fill:#363E44;" d="M1535.584,1170.604c-0.052,0-0.104-0.004-0.156-0.012c-0.545-0.086-0.918-0.598-0.833-1.144
				c0.221-1.406,1.1-4.937,4.483-7.336c2.497-1.771,5.111-1.995,6.474-1.994c0.552,0.007,0.994,0.459,0.988,1.012
				c-0.007,0.548-0.453,0.988-1,0.988c-0.037-0.002-0.072-0.001-0.109-0.001c-1.129,0-3.218,0.224-5.196,1.626
				c-2.84,2.015-3.521,5.113-3.663,6.016C1536.493,1170.252,1536.068,1170.604,1535.584,1170.604z"/>
			<path style="fill:#363E44;" d="M1448.014,1176.325c-0.443,0-0.849-0.297-0.966-0.746c-0.231-0.882-1.223-3.893-4.257-5.609
				c-2.176-1.231-4.34-1.201-5.432-1.078c-0.554,0.061-1.045-0.33-1.107-0.879c-0.063-0.549,0.33-1.045,0.879-1.107
				c1.337-0.153,3.975-0.187,6.645,1.324c3.615,2.045,4.846,5.466,5.206,6.842c0.141,0.534-0.179,1.081-0.713,1.221
				C1448.184,1176.314,1448.098,1176.325,1448.014,1176.325z"/>
		</g>
		<g>
			<g>
				<path style="fill:#FFFFFF;" d="M660.949,1023.688l-16.343-2.867c-29.27-5.135-47.707-34.323-39.903-62.996
					c7.44-27.334,18.174-60.81,32.188-89.79c13.766-28.467,40.071-48.866,71.111-54.9c65.443-12.723,198.454-30.131,335.704,1.635
					c28.266,6.542,52.396,24.975,65.944,50.631c11.634,22.031,25.258,51.656,34.76,84.306c9.006,30.947-9.856,63.131-41.146,70.86
					l-73.08-15.865L660.949,1023.688z"/>
				<path style="fill:#84524D;" d="M621.967,963.241c-1.201,4.321-1.928,9.029-1.975,14.123
					c-0.211,22.993,14.463,43.519,35.919,51.787l107.143,28.583l23.326-79.547l-110.268-41.774
					C653.697,927.922,628.387,940.147,621.967,963.241z"/>
				<path style="fill:#84524D;" d="M1123.816,988.351c-1.492,4.229-3.595,8.503-6.476,12.705
					c-13.006,18.962-36.795,27.371-59.116,21.848l-107.979-26.716l30.28-89.826l114.301,28.972
					C1118.059,941.223,1131.792,965.748,1123.816,988.351z"/>
			</g>
			<g>
				<rect x="740.733" y="875.102" style="fill:#E6D0BE;" width="278.094" height="166.728"/>
				<rect x="740.733" y="1046.373" style="fill:#E6D0BE;" width="278.094" height="17.069"/>
				<path style="fill:#FFFFFF;" d="M895.894,967.622h-32.229v-32.229h32.229V967.622z M865.665,965.622h28.229v-28.229h-28.229
					V965.622z"/>
				<rect x="752.767" y="887.496" style="fill:#FFFFFF;" width="254.026" height="2"/>
			</g>
			<g>
				<path style="fill:#84524D;" d="M840.74,739.617c6.143,8.29,5.403,19.248-1.652,24.476c-7.055,5.228-17.754,2.746-23.897-5.544
					c-6.143-8.29-5.403-19.248,1.652-24.476C823.898,728.845,834.597,731.327,840.74,739.617z"/>
				<path style="fill:#84524D;" d="M916.582,735.757c-5.269,8.871-3.421,19.697,4.128,24.182c7.549,4.484,17.941,0.929,23.211-7.942
					s3.421-19.697-4.129-24.182C932.243,723.331,921.851,726.886,916.582,735.757z"/>
				<path style="fill:#363E44;" d="M925.552,715.638c-1.367-26.319-23.81-46.547-50.129-45.18l0,0
					c-26.319,1.367-46.547,23.809-45.18,50.128l1.603,30.887l95.309-4.948L925.552,715.638z"/>
				<path style="fill:#84524D;" d="M875.916,841.15L875.916,841.15c-18.424-0.845-32.674-16.465-31.83-34.889l3.095-67.482
					l66.719,3.06l-3.095,67.482C909.959,827.744,894.339,841.994,875.916,841.15z"/>
				<path style="fill:#84524D;" d="M925.243,744.642c1.513,29.738-17.776,54.889-43.085,56.178
					c-25.309,1.288-47.053-21.775-48.566-51.513c-1.513-29.738,17.777-46.722,43.085-48.01
					C901.986,700.009,923.73,714.905,925.243,744.642z"/>
				<path style="fill:#363E44;" d="M880.12,801.871c-11.785,0-23.04-5.094-31.896-14.487c-0.379-0.401-0.36-1.034,0.042-1.413
					c0.4-0.38,1.034-0.36,1.413,0.042c8.969,9.513,20.481,14.421,32.428,13.808c11.942-0.607,22.901-6.655,30.857-17.029
					c0.337-0.438,0.965-0.521,1.402-0.185c0.439,0.337,0.521,0.964,0.185,1.402c-8.32,10.848-19.807,17.173-32.344,17.811
					C881.512,801.854,880.815,801.871,880.12,801.871z"/>
				<path style="fill:#363E44;" d="M925.235,760.082c-0.06,0-0.119-0.005-0.18-0.017c-0.544-0.099-0.904-0.619-0.805-1.162
					c0.842-4.635,1.146-9.415,0.901-14.21c-0.218-4.276-0.869-8.509-1.935-12.579c-0.14-0.535,0.18-1.081,0.714-1.222
					c0.532-0.135,1.082,0.18,1.222,0.714c1.101,4.203,1.773,8.572,1.998,12.985c0.251,4.948-0.063,9.884-0.933,14.669
					C926.131,759.744,925.71,760.082,925.235,760.082z"/>
				<path style="fill:#363E44;" d="M834.992,764.341c-0.436,0-0.836-0.286-0.961-0.727c-1.309-4.597-2.098-9.393-2.346-14.257
					c-0.229-4.502,0.01-9.001,0.709-13.37c0.086-0.545,0.597-0.922,1.146-0.829c0.545,0.087,0.916,0.6,0.829,1.146
					c-0.677,4.232-0.907,8.589-0.685,12.952c0.24,4.713,1.004,9.359,2.271,13.811c0.151,0.531-0.157,1.084-0.688,1.235
					C835.176,764.329,835.083,764.341,834.992,764.341z"/>
				<g>
					<path style="fill:#FFFFFF;" d="M912.342,740.158c-2.769-0.09-7.838,0.565-10.468,1.414c-2.528,0.815-4.723,2.307-7.077,4.617
						c-3.499,3.257-5.363,6.638-5.363,6.638s2.346,0.865,5.754,1.285c1.52,0.188,2.49-2.962,4.318-3.067
						c2.055-0.118,4.265,0.306,6.404-0.495c2.618-0.979,5.594-0.029,7.443-1.62c4.015-3.456,6.153-7.355,6.153-7.355
						S916.491,740.474,912.342,740.158z"/>
					<g>
						<defs>
							<path id="SVGID_1_" d="M889.433,752.827c0,0,8.901,3.278,17.205,0.171c8.304-3.107,12.868-11.422,12.868-11.422
								s-8.901-3.278-17.205-0.171C893.996,744.512,889.433,752.827,889.433,752.827z"/>
						</defs>
						<clipPath id="SVGID_00000138569204075765017360000006889722463738276992_">
							<use xlink:href="#SVGID_1_"  style="overflow:visible;"/>
						</clipPath>
						<path style="clip-path:url(#SVGID_00000138569204075765017360000006889722463738276992_);fill:#363E44;" d="M898.614,758.962
							c4.3,3.234,10.408,2.37,13.642-1.93c3.234-4.3,2.37-10.408-1.931-13.642c-4.3-3.234-10.408-2.369-13.642,1.931
							C893.449,749.621,894.314,755.729,898.614,758.962z"/>
					</g>
				</g>
				<g>
					<path style="fill:#FFFFFF;" d="M850.369,740.158c2.769-0.09,7.838,0.565,10.468,1.414c2.528,0.815,4.723,2.307,7.077,4.617
						c3.499,3.257,5.364,6.638,5.364,6.638s-2.343,0.863-5.747,1.284c-1.521,0.188-3.144-1.655-4.975-1.76
						c-2.055-0.117-3.615-1-5.755-1.801c-2.618-0.979-5.594-0.029-7.443-1.62c-4.015-3.456-6.153-7.355-6.153-7.355
						S846.22,740.474,850.369,740.158z"/>
					<g>
						<defs>
							<path id="SVGID_00000103237738756274794750000013752675468912293002_" d="M873.278,752.827c0,0-8.901,3.278-17.205,0.171
								c-8.304-3.107-12.868-11.422-12.868-11.422s8.901-3.278,17.205-0.171C868.715,744.512,873.278,752.827,873.278,752.827z"/>
						</defs>
						<clipPath id="SVGID_00000168107038512609341630000014494894460533378727_">
							<use xlink:href="#SVGID_00000103237738756274794750000013752675468912293002_"  style="overflow:visible;"/>
						</clipPath>
						<path style="clip-path:url(#SVGID_00000168107038512609341630000014494894460533378727_);fill:#363E44;" d="M864.097,758.962
							c-4.3,3.234-10.408,2.37-13.642-1.93c-3.234-4.3-2.37-10.408,1.931-13.642c4.3-3.234,10.408-2.369,13.642,1.931
							C869.262,749.621,868.398,755.729,864.097,758.962z"/>
					</g>
				</g>
				<path style="fill:#363E44;" d="M882.602,767.859c-0.3,0-0.597-0.134-0.793-0.39c-0.337-0.438-0.256-1.065,0.182-1.402
					c1.217-0.936,1.841-1.827,1.858-2.649c0.013-0.611-0.307-1.085-0.871-1.87c-0.577-0.803-1.295-1.801-1.604-3.285
					c-0.277-1.334-0.16-2.746,0.347-4.197c0.183-0.521,0.752-0.796,1.274-0.614c0.522,0.183,0.796,0.753,0.614,1.274
					c-0.387,1.104-0.479,2.156-0.276,3.13c0.221,1.069,0.754,1.809,1.269,2.524c0.626,0.87,1.272,1.77,1.247,3.078
					c-0.029,1.459-0.917,2.869-2.637,4.193C883.028,767.792,882.815,767.859,882.602,767.859z"/>
				<path style="fill:#363E44;" d="M875.468,775.34c-1.863,0-4.647-0.371-7.368-2.129c-1.726-1.115-3.197-2.657-4.258-4.459
					c-0.279-0.476-0.121-1.089,0.356-1.369c0.477-0.28,1.089-0.121,1.369,0.355c0.902,1.534,2.154,2.846,3.619,3.793
					c2.808,1.814,5.706,1.888,7.185,1.773c0.551-0.034,1.032,0.368,1.075,0.919c0.043,0.551-0.368,1.032-0.919,1.075
					C876.222,775.322,875.866,775.34,875.468,775.34z"/>
				<g>
					<path style="fill:#363E44;" d="M874.404,693.747c0,0,85.895-84.427,35.205-107.696
						C866.088,566.073,870.529,677.224,874.404,693.747z"/>
					<path style="fill:#363E44;" d="M874.206,692.007c0,0,26.742-141.554-28.467-133.63
						C798.338,565.182,861.993,680.223,874.206,692.007z"/>
					<path style="fill:#363E44;" d="M867.198,685.719c0,0-26.954-100.808-65.788-60.772
						C768.069,659.319,850.329,683.865,867.198,685.719z"/>
					<path style="fill:#363E44;" d="M854.288,682.205c0,0-36.894-17.155-38.242,1.639
						C814.889,699.979,849.521,685.39,854.288,682.205z"/>
				</g>
			</g>
		</g>
		<g>
			
				<rect x="1450.159" y="1708.7" transform="matrix(0.8244 0.566 -0.566 0.8244 1360.1537 -647.9111)" style="fill:#EFBC73;" width="548.189" height="318.748"/>
			<g>
				<g>
					<path style="fill:#F2E6DC;" d="M1622.61,1726.671c-0.195,0-0.392-0.057-0.565-0.176l-62.747-43.081
						c-0.455-0.313-0.57-0.935-0.258-1.391l26.711-38.905c0.15-0.218,0.381-0.368,0.642-0.417c0.26-0.045,0.531,0.01,0.749,0.159
						l62.748,43.082c0.218,0.15,0.368,0.381,0.417,0.642c0.048,0.261-0.009,0.53-0.159,0.749l-26.712,38.904
						C1623.242,1726.52,1622.929,1726.671,1622.61,1726.671z M1561.255,1682.331l61.098,41.949l25.58-37.255l-61.099-41.95
						L1561.255,1682.331z"/>
					<path style="fill:#F2E6DC;" d="M1670.296,1759.411c-0.195,0-0.392-0.057-0.565-0.176l-38.904-26.711
						c-0.218-0.15-0.368-0.381-0.417-0.642c-0.048-0.261,0.009-0.53,0.159-0.749l26.712-38.904c0.313-0.454,0.934-0.569,1.391-0.258
						l38.904,26.711c0.218,0.15,0.368,0.381,0.417,0.642c0.048,0.261-0.009,0.53-0.159,0.749l-26.712,38.904
						C1670.928,1759.26,1670.614,1759.411,1670.296,1759.411z M1632.783,1731.441l37.255,25.579l25.58-37.255l-37.255-25.579
						L1632.783,1731.441z"/>
					<path style="fill:#F2E6DC;" d="M1717.982,1792.151c-0.195,0-0.392-0.057-0.565-0.176l-38.905-26.711
						c-0.218-0.15-0.368-0.381-0.417-0.642c-0.048-0.261,0.009-0.53,0.159-0.749l26.712-38.904c0.313-0.455,0.936-0.57,1.391-0.258
						l38.904,26.711c0.455,0.313,0.57,0.935,0.258,1.391l-26.711,38.904C1718.614,1792,1718.301,1792.151,1717.982,1792.151z
						 M1680.469,1764.182l37.256,25.579l25.579-37.255l-37.255-25.579L1680.469,1764.182z"/>
					<path style="fill:#F2E6DC;" d="M1765.669,1824.893c-0.2,0-0.398-0.061-0.566-0.176l-38.904-26.712
						c-0.455-0.313-0.57-0.935-0.258-1.391l26.711-38.904c0.312-0.455,0.934-0.57,1.391-0.258l38.904,26.711
						c0.455,0.313,0.57,0.935,0.258,1.391l-26.711,38.905c-0.15,0.218-0.381,0.368-0.642,0.417
						C1765.791,1824.887,1765.729,1824.893,1765.669,1824.893z M1728.155,1796.922l37.255,25.58l25.579-37.256l-37.255-25.579
						L1728.155,1796.922z"/>
					<path style="fill:#F2E6DC;" d="M1813.354,1857.633c-0.195,0-0.392-0.057-0.565-0.176l-38.904-26.712
						c-0.455-0.313-0.57-0.935-0.258-1.391l26.711-38.904c0.15-0.218,0.381-0.368,0.642-0.417c0.261-0.045,0.531,0.01,0.749,0.159
						l38.905,26.712c0.218,0.15,0.368,0.381,0.417,0.642c0.048,0.261-0.009,0.53-0.159,0.749l-26.712,38.904
						C1813.985,1857.481,1813.672,1857.633,1813.354,1857.633z M1775.841,1829.662l37.255,25.58l25.58-37.255l-37.256-25.58
						L1775.841,1829.662z"/>
					<path style="fill:#F2E6DC;" d="M1861.039,1890.373c-0.195,0-0.392-0.057-0.565-0.176l-38.904-26.711
						c-0.455-0.313-0.57-0.935-0.258-1.391l26.711-38.904c0.313-0.455,0.934-0.569,1.391-0.258l38.905,26.711
						c0.218,0.15,0.368,0.381,0.417,0.642c0.048,0.261-0.009,0.53-0.159,0.749l-26.712,38.904
						C1861.671,1890.222,1861.357,1890.373,1861.039,1890.373z M1823.526,1862.403l37.255,25.579l25.58-37.255l-37.256-25.579
						L1823.526,1862.403z"/>
					<path style="fill:#F2E6DC;" d="M1908.726,1923.113c-0.195,0-0.392-0.057-0.565-0.176l-38.905-26.711
						c-0.218-0.15-0.368-0.381-0.417-0.642c-0.048-0.261,0.009-0.53,0.159-0.749l26.712-38.904c0.313-0.454,0.934-0.57,1.391-0.258
						l38.904,26.711c0.455,0.313,0.57,0.935,0.258,1.391l-26.711,38.904C1909.357,1922.962,1909.044,1923.113,1908.726,1923.113z
						 M1871.212,1895.144l37.256,25.579l25.579-37.255l-37.255-25.579L1871.212,1895.144z"/>
					<path style="fill:#F2E6DC;" d="M1956.412,1955.854c-0.2,0-0.398-0.061-0.566-0.176l-38.904-26.712
						c-0.455-0.313-0.57-0.935-0.258-1.391l26.711-38.904c0.313-0.455,0.935-0.57,1.391-0.258l38.904,26.711
						c0.455,0.313,0.57,0.935,0.258,1.391l-26.711,38.905c-0.15,0.218-0.381,0.368-0.642,0.417
						C1956.534,1955.849,1956.473,1955.854,1956.412,1955.854z M1918.898,1927.884l37.255,25.58l25.579-37.256l-37.255-25.579
						L1918.898,1927.884z"/>
				</g>
				<g>
					<path style="fill:#F2E6DC;" d="M1564.101,1760.794c-0.2,0-0.398-0.061-0.566-0.176l-38.904-26.712
						c-0.455-0.313-0.57-0.935-0.258-1.391l26.711-38.904c0.15-0.218,0.381-0.368,0.642-0.417c0.262-0.045,0.53,0.009,0.749,0.159
						l38.904,26.712c0.455,0.313,0.57,0.935,0.258,1.391l-26.711,38.904c-0.15,0.218-0.381,0.368-0.642,0.417
						C1564.223,1760.788,1564.161,1760.794,1564.101,1760.794z M1526.587,1732.823l37.255,25.58l25.579-37.255l-37.255-25.58
						L1526.587,1732.823z"/>
					<path style="fill:#F2E6DC;" d="M1611.785,1793.534c-0.195,0-0.392-0.057-0.565-0.176l-38.904-26.711
						c-0.455-0.313-0.57-0.935-0.258-1.391l26.711-38.905c0.15-0.218,0.381-0.368,0.642-0.417c0.263-0.045,0.53,0.01,0.749,0.159
						l38.905,26.712c0.218,0.15,0.368,0.381,0.417,0.642c0.048,0.261-0.009,0.53-0.159,0.749l-26.712,38.904
						C1612.417,1793.383,1612.104,1793.534,1611.785,1793.534z M1574.272,1765.564l37.255,25.579l25.58-37.255l-37.256-25.58
						L1574.272,1765.564z"/>
					<path style="fill:#F2E6DC;" d="M1659.471,1826.274c-0.195,0-0.392-0.057-0.565-0.176l-38.904-26.711
						c-0.218-0.15-0.368-0.381-0.417-0.642c-0.048-0.261,0.009-0.53,0.159-0.749l26.712-38.904c0.313-0.455,0.934-0.571,1.391-0.258
						l38.904,26.711c0.218,0.15,0.368,0.381,0.417,0.642c0.048,0.261-0.009,0.53-0.159,0.749l-26.712,38.904
						C1660.103,1826.123,1659.789,1826.274,1659.471,1826.274z M1621.958,1798.305l37.255,25.579l25.58-37.255l-37.255-25.579
						L1621.958,1798.305z"/>
					<path style="fill:#F2E6DC;" d="M1707.158,1859.016c-0.2,0-0.398-0.061-0.566-0.176l-38.904-26.712
						c-0.455-0.313-0.57-0.935-0.258-1.391l26.711-38.904c0.313-0.454,0.935-0.569,1.391-0.258l38.904,26.711
						c0.455,0.313,0.57,0.935,0.258,1.391l-26.711,38.905c-0.15,0.218-0.381,0.368-0.642,0.417
						C1707.28,1859.01,1707.219,1859.016,1707.158,1859.016z M1669.645,1831.045l37.255,25.58l25.579-37.256l-37.255-25.579
						L1669.645,1831.045z"/>
					<path style="fill:#F2E6DC;" d="M1754.844,1891.756c-0.2,0-0.398-0.061-0.566-0.176l-38.904-26.712
						c-0.455-0.313-0.57-0.935-0.258-1.391l26.711-38.904c0.15-0.218,0.381-0.368,0.642-0.417c0.26-0.045,0.531,0.009,0.749,0.159
						l38.904,26.712c0.455,0.313,0.57,0.935,0.258,1.391l-26.711,38.904c-0.15,0.218-0.381,0.368-0.642,0.417
						C1754.966,1891.75,1754.904,1891.756,1754.844,1891.756z M1717.33,1863.785l37.255,25.58l25.579-37.255l-37.255-25.58
						L1717.33,1863.785z"/>
					<path style="fill:#F2E6DC;" d="M1802.528,1924.496c-0.195,0-0.392-0.057-0.565-0.176l-38.904-26.711
						c-0.455-0.313-0.57-0.935-0.258-1.391l26.711-38.905c0.15-0.218,0.381-0.368,0.642-0.417c0.261-0.045,0.53,0.01,0.749,0.159
						l38.905,26.712c0.218,0.15,0.368,0.381,0.417,0.642c0.048,0.261-0.009,0.53-0.159,0.749l-26.712,38.904
						C1803.16,1924.345,1802.847,1924.496,1802.528,1924.496z M1765.016,1896.526l37.255,25.579l25.58-37.255l-37.256-25.58
						L1765.016,1896.526z"/>
					<path style="fill:#F2E6DC;" d="M1850.215,1957.236c-0.195,0-0.392-0.057-0.565-0.176l-38.905-26.711
						c-0.218-0.15-0.368-0.381-0.417-0.642c-0.048-0.261,0.009-0.53,0.159-0.749l26.712-38.904c0.313-0.454,0.935-0.571,1.391-0.258
						l38.904,26.711c0.455,0.313,0.57,0.935,0.258,1.391l-26.711,38.904C1850.847,1957.085,1850.533,1957.236,1850.215,1957.236z
						 M1812.701,1929.267l37.256,25.579l25.579-37.255l-37.255-25.579L1812.701,1929.267z"/>
					<path style="fill:#F2E6DC;" d="M1921.744,2006.347c-0.2,0-0.398-0.061-0.566-0.176l-62.747-43.081
						c-0.455-0.313-0.57-0.935-0.258-1.391l26.711-38.904c0.15-0.218,0.381-0.368,0.642-0.417c0.262-0.047,0.53,0.009,0.749,0.159
						l62.747,43.081c0.455,0.313,0.57,0.935,0.258,1.391l-26.711,38.904c-0.15,0.218-0.381,0.368-0.642,0.417
						C1921.866,2006.341,1921.805,2006.347,1921.744,2006.347z M1860.388,1962.007l61.098,41.949l25.579-37.255l-61.098-41.949
						L1860.388,1962.007z"/>
				</g>
				<g>
					<path style="fill:#F2E6DC;" d="M1553.274,1827.657c-0.195,0-0.392-0.057-0.565-0.176l-62.747-43.082
						c-0.455-0.313-0.57-0.935-0.258-1.391l26.711-38.904c0.15-0.218,0.381-0.368,0.642-0.417c0.264-0.047,0.531,0.009,0.749,0.159
						l62.748,43.082c0.218,0.15,0.368,0.381,0.417,0.642c0.048,0.261-0.009,0.53-0.159,0.749l-26.712,38.904
						C1553.906,1827.506,1553.593,1827.657,1553.274,1827.657z M1491.919,1783.316l61.098,41.95l25.58-37.255l-61.099-41.95
						L1491.919,1783.316z"/>
					<path style="fill:#F2E6DC;" d="M1600.96,1860.397c-0.195,0-0.392-0.057-0.565-0.176l-38.904-26.711
						c-0.218-0.15-0.368-0.381-0.417-0.642c-0.048-0.261,0.009-0.53,0.159-0.749l26.712-38.905c0.15-0.218,0.381-0.368,0.642-0.417
						c0.262-0.045,0.53,0.009,0.749,0.159l38.904,26.712c0.455,0.313,0.57,0.935,0.258,1.391l-26.712,38.904
						C1601.592,1860.246,1601.278,1860.397,1600.96,1860.397z M1563.447,1832.428l37.255,25.579l25.58-37.255l-37.255-25.58
						L1563.447,1832.428z"/>
					<path style="fill:#F2E6DC;" d="M1648.646,1893.138c-0.195,0-0.392-0.057-0.565-0.176l-38.905-26.711
						c-0.218-0.15-0.368-0.381-0.417-0.642c-0.048-0.261,0.009-0.53,0.159-0.749l26.712-38.904c0.313-0.454,0.936-0.571,1.391-0.258
						l38.904,26.711c0.455,0.313,0.57,0.935,0.258,1.391l-26.711,38.904C1649.278,1892.986,1648.965,1893.138,1648.646,1893.138z
						 M1611.133,1865.168l37.256,25.579l25.579-37.255l-37.255-25.579L1611.133,1865.168z"/>
					<path style="fill:#F2E6DC;" d="M1696.333,1925.879c-0.2,0-0.398-0.061-0.566-0.176l-38.904-26.712
						c-0.455-0.313-0.57-0.935-0.258-1.391l26.711-38.904c0.313-0.455,0.935-0.571,1.391-0.258l38.904,26.711
						c0.455,0.313,0.57,0.935,0.258,1.391l-26.711,38.905c-0.15,0.218-0.381,0.368-0.642,0.417
						C1696.455,1925.873,1696.394,1925.879,1696.333,1925.879z M1658.819,1897.908l37.255,25.58l25.579-37.256l-37.255-25.579
						L1658.819,1897.908z"/>
					<path style="fill:#F2E6DC;" d="M1744.018,1958.619c-0.195,0-0.392-0.057-0.565-0.176l-38.904-26.712
						c-0.455-0.313-0.57-0.935-0.258-1.391l26.711-38.904c0.15-0.218,0.381-0.368,0.642-0.417c0.26-0.047,0.531,0.009,0.749,0.159
						l38.905,26.712c0.218,0.15,0.368,0.381,0.417,0.642c0.048,0.261-0.009,0.53-0.159,0.749l-26.712,38.904
						C1744.649,1958.468,1744.336,1958.619,1744.018,1958.619z M1706.505,1930.648l37.255,25.58l25.58-37.255l-37.256-25.58
						L1706.505,1930.648z"/>
					<path style="fill:#F2E6DC;" d="M1791.703,1991.359c-0.195,0-0.392-0.057-0.565-0.176l-38.904-26.711
						c-0.218-0.15-0.368-0.381-0.417-0.642c-0.048-0.261,0.009-0.53,0.159-0.749l26.712-38.905c0.15-0.218,0.381-0.368,0.642-0.417
						c0.26-0.045,0.531,0.009,0.749,0.159l38.904,26.712c0.455,0.313,0.57,0.935,0.258,1.391l-26.712,38.904
						C1792.335,1991.208,1792.021,1991.359,1791.703,1991.359z M1754.19,1963.39l37.255,25.579l25.58-37.255l-37.255-25.58
						L1754.19,1963.39z"/>
					<path style="fill:#F2E6DC;" d="M1839.39,2024.1c-0.195,0-0.392-0.057-0.565-0.176l-38.904-26.711
						c-0.455-0.313-0.57-0.935-0.258-1.391l26.711-38.904c0.313-0.455,0.935-0.571,1.391-0.258l38.904,26.711
						c0.455,0.313,0.57,0.935,0.258,1.391l-26.711,38.904C1840.021,2023.948,1839.708,2024.1,1839.39,2024.1z M1801.877,1996.13
						l37.255,25.579l25.579-37.255l-37.255-25.579L1801.877,1996.13z"/>
					<path style="fill:#F2E6DC;" d="M1887.075,2056.84c-0.195,0-0.392-0.057-0.565-0.176l-38.904-26.711
						c-0.455-0.313-0.57-0.935-0.258-1.391l26.711-38.904c0.313-0.454,0.936-0.571,1.391-0.258l38.904,26.711
						c0.455,0.313,0.57,0.935,0.258,1.391l-26.711,38.904C1887.707,2056.688,1887.394,2056.84,1887.075,2056.84z M1849.563,2028.87
						l37.255,25.579l25.579-37.255l-37.255-25.579L1849.563,2028.87z"/>
				</g>
				<path style="fill:#F2E6DC;" d="M1494.765,1861.78c-0.2,0-0.398-0.061-0.566-0.176l-38.904-26.712
					c-0.455-0.313-0.57-0.935-0.258-1.391l26.711-38.904c0.15-0.218,0.381-0.368,0.642-0.417c0.261-0.046,0.53,0.01,0.749,0.159
					l38.904,26.712c0.455,0.313,0.57,0.935,0.258,1.391l-26.711,38.904c-0.15,0.218-0.381,0.368-0.642,0.417
					C1494.887,1861.774,1494.825,1861.78,1494.765,1861.78z M1457.251,1833.81l37.255,25.58l25.579-37.255l-37.255-25.58
					L1457.251,1833.81z"/>
				<path style="fill:#F2E6DC;" d="M1566.292,1910.891c-0.195,0-0.392-0.057-0.565-0.176l-62.747-43.082
					c-0.218-0.15-0.368-0.381-0.417-0.642c-0.048-0.261,0.009-0.53,0.159-0.749l26.712-38.904c0.313-0.454,0.936-0.571,1.391-0.258
					l62.747,43.082c0.218,0.15,0.368,0.381,0.417,0.642c0.048,0.261-0.009,0.53-0.159,0.749l-26.712,38.904
					C1566.924,1910.739,1566.61,1910.891,1566.292,1910.891z M1504.937,1866.55l61.098,41.95l25.58-37.255l-61.098-41.95
					L1504.937,1866.55z"/>
				<path style="fill:#F2E6DC;" d="M1785.271,2061.237c-0.2,0-0.398-0.061-0.566-0.176l-210.195-144.317
					c-0.455-0.313-0.57-0.935-0.258-1.391l26.711-38.904c0.15-0.219,0.381-0.368,0.642-0.417c0.26-0.046,0.531,0.01,0.749,0.159
					l210.195,144.317c0.455,0.313,0.57,0.935,0.258,1.391l-26.711,38.904c-0.15,0.218-0.381,0.368-0.642,0.417
					C1785.393,2061.231,1785.331,2061.237,1785.271,2061.237z M1576.466,1915.661l208.546,143.186l25.579-37.255l-208.546-143.186
					L1576.466,1915.661z"/>
				<path style="fill:#F2E6DC;" d="M1819.41,2084.679c-0.195,0-0.392-0.057-0.565-0.176l-26.921-18.483
					c-0.218-0.15-0.368-0.381-0.417-0.642c-0.048-0.261,0.009-0.53,0.159-0.749l26.712-38.905c0.313-0.455,0.934-0.57,1.391-0.258
					l26.921,18.483c0.218,0.15,0.368,0.381,0.417,0.642c0.048,0.261-0.009,0.53-0.159,0.749l-26.712,38.905
					C1820.042,2084.527,1819.729,2084.679,1819.41,2084.679z M1793.881,2064.937l25.271,17.352l25.58-37.256l-25.271-17.352
					L1793.881,2064.937z"/>
				<path style="fill:#F2E6DC;" d="M1852.408,2107.334c-0.2,0-0.398-0.061-0.566-0.176l-26.921-18.484
					c-0.455-0.313-0.57-0.935-0.258-1.391l26.712-38.904c0.313-0.455,0.936-0.57,1.391-0.258l26.921,18.483
					c0.218,0.15,0.368,0.381,0.417,0.642c0.048,0.261-0.009,0.53-0.159,0.749l-26.712,38.905c-0.15,0.218-0.381,0.368-0.642,0.417
					C1852.53,2107.328,1852.469,2107.334,1852.408,2107.334z M1826.878,2087.591l25.271,17.353l25.58-37.256l-25.271-17.352
					L1826.878,2087.591z"/>
			</g>
		</g>
		<g>
			<g>
				<path style="fill:#ff6900;" d="M1221.281,974.079l0.576,13.516c-6.537,1.491-12.87,3.49-18.962,5.948l-7.252-11.408
					l-38.637,24.558l7.268,11.434c-4.853,4.517-9.345,9.409-13.432,14.628l-12.011-6.268l-21.181,40.587v0l11.984,6.254
					c-1.93,6.28-3.383,12.76-4.313,19.4l-13.515,0.576l1.95,45.74v0l13.515-0.576c1.491,6.536,3.49,12.87,5.948,18.962
					l-11.409,7.251l24.559,38.637l11.435-7.268c4.517,4.853,9.408,9.344,14.628,13.432l-6.269,12.011l40.587,21.181l6.254-11.984
					c6.279,1.93,12.76,3.383,19.4,4.313l0.576,13.515l0,0l45.739-1.95l-0.576-13.515c6.537-1.491,12.87-3.49,18.962-5.948
					l7.252,11.409l38.637-24.558l-7.268-11.435c4.853-4.517,9.345-9.408,13.432-14.628l12.011,6.268l21.181-40.587l-11.984-6.254
					c1.93-6.279,3.383-12.76,4.313-19.399l13.515-0.576l-1.95-45.74l-13.515,0.576c-1.491-6.537-3.49-12.87-5.948-18.962
					l11.409-7.251v0l-24.558-38.637l-11.435,7.268c-4.517-4.853-9.408-9.345-14.628-13.432l6.269-12.012l-40.587-21.181
					l-6.254,11.984c-6.28-1.93-12.76-3.383-19.4-4.312l-0.576-13.515L1221.281,974.079z M1273.401,1042.226
					c19.228,5.965,34.88,20.338,42.459,38.989c23.818,58.615-28.83,115.952-89.261,97.207c-19.229-5.964-34.881-20.338-42.46-38.989
					C1160.322,1080.816,1212.97,1023.48,1273.401,1042.226z"/>
			</g>
		</g>
		<g>
			<g>
				<path style="fill:#E6D0BE;" d="M1091.296,1253.347l0.26,6.084c-2.942,0.671-5.793,1.571-8.536,2.677l-3.264-5.135
					l-17.392,11.055l3.272,5.147c-2.184,2.033-4.207,4.235-6.046,6.584l-5.407-2.822l-9.534,18.269l0,0l5.395,2.815
					c-0.869,2.827-1.523,5.744-1.941,8.732l-6.084,0.259l0.878,20.589v0l6.083-0.259c0.671,2.942,1.571,5.793,2.677,8.535
					l-5.135,3.264l11.055,17.391l5.147-3.271c2.033,2.184,4.235,4.206,6.585,6.046l-2.822,5.407l18.269,9.534l2.815-5.395
					c2.827,0.869,5.744,1.523,8.732,1.941l0.26,6.083l0,0l20.589-0.878l-0.259-6.084c2.942-0.671,5.793-1.571,8.535-2.677
					l3.264,5.135l17.392-11.055l-3.271-5.147c2.184-2.033,4.206-4.235,6.046-6.585l5.407,2.822l9.534-18.269l-5.395-2.815
					c0.869-2.827,1.523-5.744,1.941-8.732l6.084-0.26l-0.878-20.589l-6.084,0.259c-0.671-2.942-1.571-5.793-2.677-8.535l5.135-3.264
					l0,0l-11.055-17.392l-5.147,3.271c-2.033-2.184-4.235-4.206-6.585-6.046l2.822-5.407l-18.27-9.534l-2.815,5.395
					c-2.827-0.869-5.743-1.523-8.732-1.941l-0.259-6.084L1091.296,1253.347z M1114.757,1284.021
					c8.655,2.685,15.701,9.155,19.112,17.55c10.721,26.385-12.978,52.193-40.179,43.756c-8.655-2.685-15.701-9.154-19.113-17.55
					C1063.857,1301.392,1087.556,1275.583,1114.757,1284.021z"/>
			</g>
		</g>
		<g>
			<polygon style="fill:#FFFFFF;" points="1006.793,1468.098 582.236,1468.098 582.236,1189.138 584.236,1189.138 584.236,1466.098 
				1006.793,1466.098 			"/>
			<g>
				
					<rect x="850.862" y="1263.562" transform="matrix(0.8585 -0.5128 0.5128 0.8585 -523.9113 630.2324)" style="fill:#FFFFFF;" width="58.61" height="2"/>
				
					<rect x="788.074" y="1157.592" transform="matrix(0.8358 -0.549 0.549 0.8358 -540.0596 633.4646)" style="fill:#FFFFFF;" width="2" height="124.157"/>
				
					<rect x="665.365" y="1182.742" transform="matrix(0.7912 -0.6115 0.6115 0.7912 -577.9702 674.4322)" style="fill:#FFFFFF;" width="66.918" height="1.999"/>
				
					<ellipse transform="matrix(0.9903 -0.1387 0.1387 0.9903 -162.587 102.6447)" style="fill:#FFFFFF;" cx="655.172" cy="1217.867" rx="21.836" ry="21.836"/>
				
					<ellipse transform="matrix(0.9239 -0.3827 0.3827 0.9239 -383.4865 371.9484)" style="fill:#FFFFFF;" cx="743.211" cy="1149.931" rx="21.836" ry="21.836"/>
				
					<ellipse transform="matrix(0.9571 -0.2898 0.2898 0.9571 -337.9712 297.5473)" style="fill:#FFFFFF;" cx="835.778" cy="1290.041" rx="21.837" ry="21.836"/>
				<path style="fill:#FFFFFF;" d="M946.354,1239.112c0,12.06-9.776,21.836-21.836,21.836s-21.836-9.776-21.836-21.836
					c0-12.06,9.777-21.837,21.836-21.837S946.354,1227.052,946.354,1239.112z"/>
			</g>
			<g>
				<rect x="629.368" y="1274.394" style="fill:#E6D0BE;" width="54.307" height="148.907"/>
				<rect x="718.988" y="1244.73" style="fill:#E6D0BE;" width="54.306" height="178.572"/>
				<rect x="808.608" y="1327.073" style="fill:#E6D0BE;" width="54.307" height="96.228"/>
				<rect x="898.228" y="1299.44" style="fill:#E6D0BE;" width="54.307" height="123.861"/>
			</g>
		</g>
		<g>
			<g>
				<path style="fill:#E2A18D;" d="M984.962,1297.141c-6.347-51.297-14.569-80.638-39.523-99.91
					c-33.535-25.9-78.467-13.337-83.138-11.955c-2.982,0.882-46.133,10.874-62.214,52.441
					c-15.881,41.05-9.469,89.077,18.738,122.346l-21.164,94.907c-6.794,30.469,12.397,60.676,42.866,67.471l6.902,1.539
					c30.469,6.794,60.677-12.397,67.471-42.866l14.138-63.399c19.689,2.693,36.23,0.501,44.542-7.922
					C988.467,1394.705,992.438,1357.55,984.962,1297.141z"/>
				<path style="fill:#363E44;" d="M930.243,1417.407c-0.064,0-0.128-0.006-0.192-0.019c-0.542-0.105-0.896-0.631-0.79-1.173
					l4.56-23.348c0.105-0.542,0.63-0.902,1.173-0.79c0.542,0.105,0.895,0.631,0.79,1.173l-4.56,23.348
					C931.131,1417.076,930.712,1417.407,930.243,1417.407z"/>
				<path style="fill:#363E44;" d="M914.078,1340.951c-0.347,0-0.683-0.18-0.868-0.502c-1.999-3.478-3.741-6.64-5.586-9.987
					c-1.496-2.715-3.038-5.513-4.795-8.619c-0.273-0.48-0.102-1.091,0.378-1.362c0.479-0.271,1.091-0.104,1.362,0.378
					c1.762,3.113,3.307,5.918,4.806,8.638c1.841,3.34,3.579,6.495,5.569,9.957c0.275,0.479,0.11,1.09-0.369,1.365
					C914.419,1340.908,914.247,1340.951,914.078,1340.951z"/>
				<path style="fill:#363E44;" d="M736.149,1245.313c0-25.911,21.006-46.917,46.919-46.917c0.04,0,0.079,0.003,0.121,0.003
					c-2.36-5.131-3.711-10.821-3.711-16.839c0-22.315,18.09-40.405,40.405-40.405c4.663,0,9.122,0.829,13.287,2.282
					c1.206-21.232,18.756-38.092,40.289-38.092c12.168,0,23.053,5.404,30.46,13.914c8.363-13.03,22.97-21.672,39.603-21.672
					c25.158,0,45.704,19.751,46.974,44.594c1.2-0.107,2.407-0.184,3.635-0.184c22.315,0,40.405,18.09,40.405,40.405
					c0,22.315-18.09,40.405-40.405,40.405c-0.643,0-1.272-0.066-1.908-0.096c-3.071,39.351-44.793,43.744-47.273,44.341
					c4.599,18.058,9.195,36.117,13.792,54.175c-6.894,1.913-15.141,4.655-22.035,6.567c-3.857-18.971-11.269-26.371-21.823-28.314
					c-16.621-3.06-32.279,12.045-33.937,28.332c-1.512,14.867,3.713,30.479,17.844,38.909c-16.852,0.26-34.495,0.042-52.863-0.793
					c-9.581-0.435-18.945-1.021-28.074-1.732c-5.528-3.679-41.029-28.186-47.808-73.811
					C750.473,1284.74,736.149,1266.704,736.149,1245.313z"/>
			</g>
			<g>
				<path style="fill:#E2A18D;" d="M401.549,1889.49c186.148,83.838,305.719,141.874,346.76,159.756
					c4.298,1.873,11.868,5.212,22.517,6.724c39.456,5.602,57.936-22.865,102.11-35.905c50.124-14.796,86.724,5.251,92.082-6.973
					c3.727-8.503-7.951-19.952-38.334-32.729c-0.003-0.001-0.001-0.006,0.001-0.005c24.2,7.054,57.438,15.189,61.298,1.804
					c3.63-15.693-34.298-29.837-57.661-37.271c28.279,8.999,46.008,5.323,46.3-2.676c0.46-12.591-19.844-24.676-57.679-35.118
					l0-0.003c28.139-0.087,34.952-4.302,33.487-11.436c-2.676-13.025-33.943-21.025-62.669-23.86
					c-32.338-3.192-58.525,5.552-74.906,11.458c-0.004,0.001-0.01,0.001-0.013-0.001
					c-124.286-72.236-206.845-119.238-306.036-179.623C488.512,1691.277,401.543,1889.489,401.549,1889.49z"/>
				<path style="fill:#E2A18D;" d="M571.398,1488.264c-179.112,213.189-251.057,346.822-174.491,398.688
					c43.384,29.388,191.325-52.346,340.623-214.224C687.013,1615.07,634.266,1556.435,571.398,1488.264z"/>
				<path style="fill:#E2A18D;" d="M1365.02,1998.282c-203.916,9.909-336.346,19.992-381.084,21.616
					c-4.685,0.17-12.953,0.508-23.416-1.982c-38.769-9.223-45.551-42.479-81.891-70.779c-41.234-32.111-82.631-26.847-83.145-40.183
					c-0.357-9.277,14.7-15.659,47.652-16.432c0.003,0,0.003-0.005,0-0.005c-25.103-2.29-59.013-6.882-57.707-20.751
					c2.364-15.933,42.837-15.217,67.3-13.587c-29.61-1.973-44.765-11.881-42.11-19.432c4.179-11.886,27.497-15.703,66.529-11.577
					c0.002,0,0.002-0.002,0.002-0.002c-26.157-10.378-30.955-16.794-26.981-22.897c7.257-11.143,39.283-7.147,67.053,0.726
					c31.263,8.863,52.435,26.582,65.518,38.072c0.003,0.003,0.008,0.004,0.013,0.003c142.099-21.748,236.131-35.281,350.538-55.182
					C1356.701,1781.818,1365.026,1998.282,1365.02,1998.282z"/>
				<path style="fill:#E2A18D;" d="M1254.162,1656.889c148.928,169.503,212.995,289.527,136.857,334.202
					c-49.027,28.768-162.017-28.303-286.795-155.59C1151.304,1779.044,1195.728,1723.978,1254.162,1656.889z"/>
				<path style="fill:#363E44;" d="M1267.645,1968.226c-0.166,0-0.335-0.041-0.49-0.129
					c-50.196-28.282-106.783-73.891-163.645-131.895c-0.387-0.395-0.381-1.027,0.014-1.414c0.392-0.389,1.026-0.381,1.414,0.014
					c56.731,57.871,113.164,103.361,163.199,131.553c0.48,0.271,0.651,0.881,0.38,1.362
					C1268.333,1968.042,1267.994,1968.226,1267.645,1968.226z"/>
				<path style="fill:#363E44;" d="M489.067,1513.218c0,0,146.245-81.56,355.438-59.345
					c214.021,22.728,456.34,164.257,456.34,164.257l-161.089,252.525L1100.474,2165l-633.993-144.984l33.32-220.39L489.067,1513.218
					z"/>
			</g>
		</g>
	</g>
</g>
</svg>
