<?xml version="1.0" encoding="utf-8"?>
<!-- Generator: Adobe Illustrator 27.5.0, SVG Export Plug-In . SVG Version: 6.00 Build 0)  -->
<svg version="1.1" xmlns="http://www.w3.org/2000/svg" xmlns:xlink="http://www.w3.org/1999/xlink" x="0px" y="0px"
	 viewBox="0 0 2500 2500" style="enable-background:new 0 0 2500 2500;" xml:space="preserve">
-
<g id="Illustration">
	<g id="Job_interview_1_">
		<circle style="fill:transparent;" cx="1250" cy="1250" r="915"/>
		<g>
			<g>
				<path style="fill:#E6D0BE;" d="M1753.766,1116.49h-52.812c-4.729-25.744-11.474-50.779-20.046-74.95l45.704-26.387
					l-89.365-154.786l-45.808,26.448c-16.81-19.68-35.144-38.013-54.823-54.823l26.447-45.809l-154.785-89.366l-26.387,45.705
					c-24.172-8.573-49.206-15.318-74.95-20.047v-52.812h-178.73v52.812c-25.744,4.729-50.779,11.473-74.95,20.047l-26.387-45.705
					l-154.785,89.366l26.447,45.809c-19.68,16.81-38.013,35.143-54.823,54.823l-45.808-26.448l-89.365,154.786l45.704,26.387
					c-8.572,24.172-15.317,49.207-20.046,74.95h-52.812l0,0v178.73h52.812c4.729,25.744,11.474,50.778,20.046,74.95l-45.704,26.388
					l89.364,154.785l45.809-26.448c16.81,19.68,35.144,38.013,54.823,54.823l-26.447,45.809l154.785,89.365l0,0l26.387-45.705
					c24.172,8.573,49.207,15.317,74.95,20.047v52.812h178.73v-52.812c25.744-4.729,50.778-11.474,74.95-20.047l26.387,45.705
					l0.001,0l154.785-89.365l-26.447-45.809c19.68-16.81,38.013-35.144,54.823-54.823l45.809,26.448l89.364-154.785l-45.704-26.388
					c8.572-24.172,15.317-49.206,20.046-74.95h52.812V1116.49z M1509.839,1215.424c-4.886,153.106-129.585,277.806-282.69,282.695
					c-169.065,5.398-307.232-132.768-301.836-301.833c4.886-153.106,129.585-277.806,282.69-282.695
					C1377.069,908.194,1515.236,1046.359,1509.839,1215.424z"/>
			</g>
			<path style="fill:#F2E6DC;" d="M1217.575,1597.828c-52.915,0-104.249-10.364-152.573-30.804
				c-46.676-19.742-88.596-48.005-124.593-84.002c-35.998-35.998-64.261-77.917-84.003-124.593
				c-20.44-48.325-30.804-99.658-30.804-152.574c0-94.436,34.058-185.664,95.898-256.88
				c61.227-70.508,145.528-116.934,237.376-130.727c0.563-0.083,1.055,0.295,1.138,0.84c0.082,0.546-0.295,1.056-0.841,1.138
				c-189.026,28.386-331.571,194.17-331.571,385.629c0,215.032,174.941,389.973,389.973,389.973
				c177.674,0,332.902-119.953,377.487-291.704c0.14-0.536,0.691-0.854,1.219-0.717c0.535,0.139,0.855,0.685,0.717,1.219
				c-10.803,41.617-28.336,80.971-52.111,116.97c-23.39,35.415-52.201,66.664-85.632,92.88
				c-33.763,26.476-71.316,47.086-111.617,61.257C1305.943,1590.394,1262.184,1597.828,1217.575,1597.828z"/>
		</g>
		<g>
			<g>
				<polygon style="fill:#ff6900;" points="2052.198,1812.628 2115.247,1589.097 2115.247,1148.553 1095.089,1148.553
					1095.089,1905.118 1614.348,1905.118 				"/>
				<rect x="1095.089" y="1148.553" style="fill:#F7F1EB;" width="1020.158" height="69.486"/>
				
					<ellipse transform="matrix(0.0898 -0.996 0.996 0.0898 -140.2003 2214.1523)" style="fill:#FFFFFF;" cx="1141.292" cy="1183.782" rx="15.804" ry="15.804"/>
				
					<ellipse transform="matrix(0.2898 -0.9571 0.9571 0.2898 -286.1588 1981.9335)" style="fill:#FFFFFF;" cx="1192.355" cy="1183.782" rx="15.804" ry="15.804"/>
				<path style="fill:#FFFFFF;" d="M1259.223,1183.782c0,8.729-7.076,15.804-15.804,15.804c-8.729,0-15.804-7.076-15.804-15.804
					c0-8.728,7.076-15.804,15.804-15.804C1252.147,1167.977,1259.223,1175.053,1259.223,1183.782z"/>
			</g>
			<g>
				<g>
					<g>
						<path style="fill:#E2A18D;" d="M1621.22,1128.078c16.203-34.071,28.652-52.501,50.372-60.107
							c29.19-10.221,57.421,8.823,60.338,10.855c1.863,1.297,29.451,18.15,31.023,50.643c1.131,23.402-6.804,46.645-21.731,63.935
							c-10.3,11.93-11.938,29.055-3.88,42.601l50.683,85.204c-2.307,22.668-22.553,39.175-45.221,36.868l-5.135-0.522
							c-22.668-2.307-67.921-19.741-65.614-42.409l-39.851-90.679c-14.257-2.667-25.21-7.992-29.029-15.739
							C1596.336,1194.849,1602.138,1168.199,1621.22,1128.078z"/>
						<path style="fill:#363E44;" d="M1631.67,1224.283c-0.475,0-0.896-0.338-0.982-0.821c-0.1-0.543,0.261-1.064,0.805-1.163
							l17.513-3.186c0.544-0.099,1.063,0.261,1.162,0.805c0.1,0.543-0.261,1.064-0.805,1.163l-17.513,3.186
							C1631.789,1224.278,1631.729,1224.283,1631.67,1224.283z"/>
						<path style="fill:#363E44;" d="M1660.465,1175.046c-0.274,0-0.549-0.113-0.746-0.334c-0.368-0.412-0.332-1.044,0.08-1.412
							c2.173-1.937,4.101-3.72,6.143-5.608c1.666-1.541,3.384-3.13,5.322-4.883c0.41-0.37,1.04-0.339,1.413,0.071
							c0.37,0.41,0.338,1.042-0.071,1.412c-1.933,1.748-3.646,3.331-5.307,4.868c-2.048,1.894-3.982,3.683-6.168,5.633
							C1660.939,1174.963,1660.702,1175.046,1660.465,1175.046z"/>
						<path style="fill:#363E44;" d="M1805.491,1149.447c5.964-17.947-3.751-37.332-21.7-43.296
							c-0.027-0.009-0.056-0.016-0.085-0.026c2.816-3.011,5.061-6.641,6.446-10.809c5.136-15.457-3.23-32.15-18.687-37.287
							c-3.23-1.073-6.509-1.525-9.728-1.477c-125.588-52.883-128.864,18.175-128.416,18.3c-6.93,27.964,20.958,40.609,22.538,41.594
							c-7.342,11.45-14.682,22.901-22.022,34.351c4.335,2.911,9.416,6.709,13.751,9.621c7.038-12.253,13.875-15.672,21.633-14.589
							c12.217,1.706,19.586,15.773,16.985,27.435c-2.374,10.646-9.587,20.257-21.315,22.843
							c11.613,4.059,23.883,7.969,36.798,11.618c6.737,1.904,13.357,3.654,19.844,5.262c4.676-1.276,34.907-10.079,50.103-40.121
							C1786.495,1173.459,1800.567,1164.264,1805.491,1149.447z"/>
					</g>
					<g>
						
							<ellipse transform="matrix(0.7071 -0.7071 0.7071 0.7071 -198.1942 1651.9255)" style="fill:#363E44;" cx="1894.953" cy="1065.204" rx="161.262" ry="161.262"/>
						<path style="fill:#363E44;" d="M1879.786,1191.828c-83.489,0-151.412-67.923-151.412-151.412
							c0-83.489,67.923-151.412,151.412-151.412s151.412,67.923,151.412,151.412
							C2031.198,1123.905,1963.275,1191.828,1879.786,1191.828z M1879.786,891.004c-82.386,0-149.412,67.026-149.412,149.412
							c0,82.386,67.026,149.412,149.412,149.412s149.412-67.026,149.412-149.412C2029.198,958.03,1962.172,891.004,1879.786,891.004
							z"/>
					</g>
				</g>
				<g>
					<g>
						<polygon style="fill:#E2A18D;" points="1461.576,1778.69 1671.849,1549.629 1484.468,1404.984 1322.374,1650.552 						"/>
						<g>
							<path style="fill:#E2A18D;" d="M1484.37,1699.275c0,0-253.993-179.32-286.491-201.076c-3.403-2.278-9.392-6.327-18.311-9.282
								c-33.046-10.954-53.36,10.644-93.363,14.983c-45.39,4.923-73.735-18.003-80.242-8.328
								c-4.526,6.729,3.732,18.387,27.863,34.098l-0.002,0.004c-19.706-9.828-47.013-21.991-52.414-11.085
								c-5.562,12.926,24.844,30.984,43.771,41.009c-22.91-12.134-38.723-11.732-40.218-4.901
								c-2.354,10.752,13.221,24.299,44.121,39.161l0,0.002c-24.203-4.302-30.716-1.738-30.565,4.622
								c0.275,11.613,25.909,23.354,50.162,30.259c27.302,7.774,51.174,4.331,66.174,1.802l0.011,0.004
								c95.606,81.429,98.034,76.15,173.262,144.211C1359.604,1839.425,1488.51,1825.669,1484.37,1699.275z"/>
							<path style="fill:#E2A18D;" d="M1123.825,1508.478c-35.517-27.916-42.411-45.512-37.808-51
								c7.742-9.229,47.82,2.193,104.868,36.454C1172.565,1499.66,1142.144,1502.75,1123.825,1508.478z"/>
							<g>
								<path style="fill:#363E44;" d="M1112.486,1501.039c-0.432,0-0.829-0.281-0.958-0.715c-0.158-0.529,0.144-1.086,0.673-1.244
									c5.176-1.542,10.047-3.226,14.758-4.855c10.07-3.482,19.583-6.771,29.53-7.704c0.557-0.052,1.038,0.352,1.09,0.902
									c0.051,0.55-0.353,1.037-0.902,1.089c-9.708,0.911-19.11,4.161-29.064,7.603c-4.73,1.636-9.623,3.327-14.841,4.881
									C1112.677,1501.026,1112.58,1501.039,1112.486,1501.039z"/>
								<path style="fill:#363E44;" d="M1068.479,1536.568c-3.523,0-7.046-0.205-10.53-0.615
									c-7.988-0.939-15.842-2.953-23.344-5.984c-0.512-0.207-0.759-0.79-0.552-1.302c0.206-0.512,0.791-0.759,1.302-0.552
									c7.336,2.965,15.016,4.934,22.828,5.852c5.382,0.633,10.862,0.768,16.288,0.398c0.544-0.037,1.028,0.379,1.065,0.93
									c0.037,0.551-0.379,1.028-0.931,1.066C1072.569,1536.499,1070.524,1536.568,1068.479,1536.568z"/>
								<path style="fill:#363E44;" d="M1056.929,1564.815c-3.524,0-7.049-0.205-10.535-0.615
									c-7.986-0.939-15.841-2.953-23.344-5.984c-0.512-0.207-0.759-0.79-0.552-1.302c0.207-0.512,0.79-0.759,1.302-0.552
									c7.337,2.965,15.018,4.934,22.828,5.852c5.385,0.633,10.863,0.768,16.288,0.399c0.559-0.038,1.028,0.379,1.065,0.93
									c0.037,0.551-0.379,1.028-0.931,1.065C1061.016,1564.746,1058.972,1564.815,1056.929,1564.815z"/>
								<path style="fill:#363E44;" d="M1063.266,1601.397c-3.523,0-7.047-0.205-10.531-0.615
									c-7.988-0.939-15.842-2.953-23.344-5.984c-0.512-0.207-0.759-0.79-0.552-1.302c0.207-0.512,0.788-0.759,1.302-0.552
									c7.336,2.964,15.016,4.933,22.828,5.852c5.381,0.633,10.86,0.768,16.288,0.399c0.557-0.036,1.027,0.379,1.065,0.93
									c0.037,0.551-0.379,1.028-0.931,1.066C1067.355,1601.328,1065.311,1601.397,1063.266,1601.397z"/>
							</g>
						</g>
					</g>
					<g>
						<path style="fill:#EFBC73;" d="M1994.555,1366.839c-22.821-34.204-58.594-57.698-99.06-64.999
							c-103.862-18.739-192.436-16.909-261.563-7.853c-96.739,12.674-178.231,78.479-211.74,170.109l167.039,175.532l25.116,265.489
							h500.899v-316.021C2093.369,1521.051,2033.459,1425.148,1994.555,1366.839z"/>
						<path style="fill:#363E44;" d="M1614.349,1629.522c-0.271,0-0.543-0.11-0.74-0.327c-0.371-0.409-0.341-1.041,0.067-1.413
							l51.852-47.14c0.408-0.371,1.042-0.342,1.413,0.067c0.371,0.409,0.341,1.041-0.067,1.413l-51.852,47.14
							C1614.83,1629.436,1614.589,1629.522,1614.349,1629.522z"/>
					</g>
				</g>
			</g>
		</g>
		<g>
			<g>
				<rect x="444.136" y="556.501" style="fill:#D87355;" width="933.25" height="762.975"/>
				<rect x="444.136" y="556.501" style="fill:#F7F1EB;" width="933.249" height="70.075"/>
				<path style="fill:#FFFFFF;" d="M506.669,592.028c0,8.803-7.136,15.938-15.938,15.938c-8.802,0-15.938-7.136-15.938-15.938
					c0-8.802,7.136-15.938,15.938-15.938C499.533,576.09,506.669,583.225,506.669,592.028z"/>
				<path style="fill:#FFFFFF;" d="M558.165,592.028c0,8.803-7.136,15.938-15.938,15.938s-15.938-7.136-15.938-15.938
					c0-8.802,7.136-15.938,15.938-15.938S558.165,583.225,558.165,592.028z"/>
				<path style="fill:#FFFFFF;" d="M609.661,592.028c0,8.803-7.136,15.938-15.938,15.938c-8.802,0-15.938-7.136-15.938-15.938
					c0-8.802,7.136-15.938,15.938-15.938C602.526,576.09,609.661,583.225,609.661,592.028z"/>
			</g>
			<g>
				<g>
					<path style="fill:#FFFFFF;" d="M444.136,1319.476v-67.164l170.276-398.373c14.034-37.342,47.128-64.168,86.557-70.228
						c93.721-14.405,277.264-32.581,469.165,4.055c34.867,6.657,64.893,28.666,81.814,59.87l113.159,208.689l38.335,263.151H444.136
						z"/>
					<polygon points="829.66,1047.703 829.068,1046.896 886.445,1004.863 772.998,842.965 773.816,842.391 887.826,1005.091 					
						"/>
					
						<rect x="609.789" y="1097.288" transform="matrix(0.7819 -0.6235 0.6235 0.7819 -577.0493 628.9753)" width="1" height="83.622"/>
				</g>
				<rect x="844.153" y="1145.293" transform="matrix(0.7741 -0.633 0.633 0.7741 -525.3738 819.1287)" width="82.081" height="1"/>
				<g>
					<path style="fill:#84524D;" d="M1019.562,794.608H914.501l45.099-178.917c-0.115-20.469,3.718-6.381,24.187-6.496
						c20.469-0.114,73.019,10.372,73.133,30.839L1019.562,794.608z"/>
					<g>
						<path style="fill:#84524D;" d="M1075.03,750.014c-24.711,15.239-84.049-42.063-84.049-42.063l-37.407-74.913
							c2.65-40.756,37.838-71.647,78.594-68.997c40.756,2.651,71.647,37.838,68.996,78.594
							C1101.164,642.635,1100.199,734.493,1075.03,750.014z"/>
						<path style="fill:#84524D;" d="M1091.422,661.487c0,0,19.288,23.032,17.815,28.686c-1.759,6.748-25.087,9.418-25.087,9.418
							S1091.969,661.576,1091.422,661.487z"/>
						<g>
							<path style="fill:#FFFFFF;" d="M1030.536,640.043c0,0,11.949-2.859,24.559,0.479c2.683,0.71-8.059,20.84-10.284,18.95
								C1035.028,651.164,1030.536,640.043,1030.536,640.043z"/>
							<g>
								<defs>
									<path id="SVGID_4_" d="M1030.536,640.043c0,0,17.575-4.204,32.588,3.537c15.014,7.742,21.781,24.497,21.781,24.497
										s-17.575,4.204-32.589-3.538C1037.303,656.799,1030.536,640.043,1030.536,640.043z"/>
								</defs>
								<clipPath id="SVGID_00000127723952469738998270000006179640946922337956_">
									<use xlink:href="#SVGID_4_"  style="overflow:visible;"/>
								</clipPath>
								<path style="clip-path:url(#SVGID_00000127723952469738998270000006179640946922337956_);fill:#363E44;" d="
									M1055.775,640.111c10.547-6.133,24.069-2.556,30.202,7.991c6.133,10.547,2.555,24.069-7.992,30.202
									c-10.547,6.133-24.068,2.556-30.202-7.991C1041.65,659.766,1045.228,646.244,1055.775,640.111z"/>
							</g>
						</g>
						<g>
							<path style="fill:#363E44;" d="M948.684,551.532c0,0-40.267,75.699,9.407,109.825l15.39-10.074l30.715,17.927l-8.063-40.643
								c-1.447-15.481,11.63-28.417,27.095-26.802l67.506,7.048l1.645-36.308C1049.714,540.998,1002.56,530.519,948.684,551.532z"/>
							<path style="fill:#363E44;" d="M1024.659,547.867c-7.706,1.107-14.852-4.242-15.96-11.948
								c-1.108-7.706,3.662-18.885,11.368-19.993c7.707-1.108,15.432,8.275,16.54,15.982
								C1037.715,539.614,1032.366,546.759,1024.659,547.867z"/>
							<path style="fill:#363E44;" d="M1034.839,552.759c-7.274-2.776-10.92-10.924-8.143-18.198
								c2.776-7.274,12.377-14.727,19.651-11.95c7.274,2.777,9.466,14.731,6.69,22.005
								C1050.26,551.89,1042.113,555.536,1034.839,552.759z"/>
							<path style="fill:#363E44;" d="M1056.597,563.484c-9.051-5.424-11.991-17.159-6.567-26.211
								c5.425-9.051,19.999-16.729,29.05-11.304c9.051,5.425,9.152,21.897,3.728,30.948
								C1077.383,565.969,1065.648,568.909,1056.597,563.484z"/>
							<path style="fill:#363E44;" d="M1002.291,547.466c-7.667,1.356-14.981-3.76-16.337-11.427
								c-1.356-7.667,3.051-18.994,10.717-20.35c7.667-1.356,15.691,7.773,17.047,15.44
								C1015.073,538.796,1009.957,546.11,1002.291,547.466z"/>
							<path style="fill:#363E44;" d="M1073.775,568.567c-3.075-8.875,1.626-18.562,10.501-21.637
								c8.875-3.075,23.207,0.017,26.282,8.892c3.075,8.875-6.271,20.172-15.146,23.247
								C1086.538,582.143,1076.85,577.442,1073.775,568.567z"/>
							<path style="fill:#363E44;" d="M984.162,551.039c-9.079,3.416-19.208-1.174-22.624-10.253
								c-3.416-9.079-0.614-23.96,8.465-27.376c9.079-3.416,20.996,5.926,24.412,15.005
								C997.832,537.494,993.241,547.623,984.162,551.039z"/>
							<path style="fill:#363E44;" d="M966.501,552.069c-5.171,5.531-13.847,5.822-19.378,0.651
								c-5.531-5.171-8.717-16.553-3.546-22.084c5.171-5.531,16.741-3.116,22.272,2.055
								C971.38,537.863,971.672,546.538,966.501,552.069z"/>
							<path style="fill:#363E44;" d="M1076.179,590.041c-0.164-11.449,8.984-20.864,20.433-21.028
								c11.449-0.164,26.855,8.898,27.02,20.347c0.164,11.449-14.976,20.95-26.425,21.114
								C1085.758,610.638,1076.344,601.49,1076.179,590.041z"/>
						</g>
						<path style="fill:#84524D;" d="M939.24,632.4c-6.342,12.579-1.286,27.917,11.293,34.259
							c12.579,6.342,27.917,1.286,34.259-11.292c6.342-12.579,1.286-27.917-11.293-34.259
							C960.92,614.765,945.582,619.821,939.24,632.4z"/>
						<path style="fill:#363E44;" d="M1096.528,697.285l-11.882,60.948c-1.654,8.486-10.042,13.865-18.449,11.851
							c-2.115-0.507-4.397-1.079-6.816-1.721c-41.862-11.113-75.029-43.06-87.653-84.491v0c-4.229-13.879,0.55-28.929,12.011-37.826
							l3.777-2.932l11.542,7.554c0,0,6.443,34.22,18.833,37.71C1030.282,691.867,1054.404,683.574,1096.528,697.285z"/>
						<path style="fill:#84524D;" d="M1065.731,712.2c-2.402,0-4.79-0.755-6.783-2.241c-3.441-2.565-5.158-6.967-4.373-11.214
							c0.1-0.543,0.621-0.901,1.165-0.802c0.543,0.1,0.902,0.622,0.802,1.165c-0.647,3.504,0.766,7.133,3.602,9.247
							c2.943,2.195,6.936,2.453,10.17,0.659c0.486-0.268,1.092-0.094,1.359,0.389c0.269,0.483,0.094,1.092-0.389,1.36
							C1069.55,711.725,1067.636,712.2,1065.731,712.2z"/>
						<path style="fill:#84524D;" d="M1004.839,603.297c-0.246,0-0.492-0.09-0.686-0.272l-27.246-25.649
							c-0.402-0.379-0.421-1.011-0.043-1.414c0.38-0.403,1.012-0.421,1.414-0.043l27.246,25.649
							c0.402,0.379,0.421,1.011,0.043,1.414C1005.37,603.192,1005.104,603.297,1004.839,603.297z"/>
					</g>
				</g>
				<g>
					<polygon style="fill:#363E44;" points="929.662,794.575 1007.157,794.575 969.964,862.828 					"/>
					<polygon style="fill:#363E44;" points="982.751,829.965 969.572,829.965 956.394,829.965 927.28,1199.607 969.572,1242.435 
						1011.865,1199.607 					"/>
				</g>
				<path style="fill:#84524D;" d="M1315.516,1037.092l-92.999,213.139c-19.666,45.071-0.502,97.644,43.555,119.487l8.003,3.968
					c61.566,30.523,133.687-14.601,133.162-83.316l-1.8-235.788L1315.516,1037.092z"/>
				<polygon style="fill:#EFBC73;" points="1352.768,1195.816 1087.004,1195.816 1207.174,832.401 1472.938,832.401 				"/>
				<path style="fill:#84524D;" d="M1149.259,1009.845l16.433-49.695L916.95,1122.096l-58.525-85.322l-203.125,149.695
					l141.809,161.464c41.057,46.747,113.649,47.378,155.512,1.351l156.338-171.888c13.115-14.42,31.191-23.382,50.616-25.004
					c30.364-2.535,73.443-7.868,75.625-17.82c3.387-15.443-77.012-19.323-77.012-19.323s95.916-1.099,96.099-17.306
					s-86.676-19.225-86.676-19.225s94.745-3.71,95.648-17.905c0.902-14.196-89.764-18.304-89.764-18.304s84.294-3.195,84.157-21.968
					C1257.513,1001.767,1149.259,1009.845,1149.259,1009.845z"/>
				<g>
					<path style="fill:#84524D;" d="M1406.885,1059.686c19.904,5.618,25.483,15.706,23.088,25.531
						c-2.395,9.825-11.858,15.668-31.762,10.05c-19.904-5.617-42.712-20.568-40.317-30.393
						C1360.29,1055.049,1386.981,1054.069,1406.885,1059.686z"/>
					<path style="fill:#84524D;" d="M1410.807,1024.479c23.069,6.511,29.536,18.203,26.76,29.591
						c-2.776,11.388-13.744,18.159-36.813,11.648c-23.069-6.511-49.503-23.838-46.727-35.226
						C1356.802,1019.104,1387.738,1017.968,1410.807,1024.479z"/>
					<path style="fill:#84524D;" d="M1420.777,1002.701c19.904,5.617,29.367-0.225,31.762-10.05
						c2.395-9.825-3.184-19.914-23.088-25.531c-19.904-5.617-46.595-4.637-48.99,5.188
						C1378.065,982.133,1400.873,997.083,1420.777,1002.701z"/>
					<path style="fill:#84524D;" d="M1408.133,1035.446c23.069,6.511,34.037-0.261,36.813-11.648
						c2.776-11.388-3.691-23.08-26.76-29.59c-23.069-6.511-54.004-5.375-56.781,6.013
						C1358.63,1011.608,1385.064,1028.936,1408.133,1035.446z"/>
				</g>
			</g>
		</g>
		<g>
			<path style="fill:#FFFFFF;" d="M584.222,1914.945c-59.748,0-115.92-23.267-158.168-65.516
				c-42.249-42.248-65.516-98.42-65.516-158.168s23.267-115.92,65.516-158.168c42.248-42.248,98.42-65.516,158.168-65.516
				c59.748,0,115.92,23.267,158.168,65.516c42.248,42.248,65.516,98.42,65.516,158.168s-23.268,115.92-65.516,158.168
				C700.142,1891.678,643.97,1914.945,584.222,1914.945z M584.222,1469.577c-122.236,0-221.684,99.447-221.684,221.684
				s99.447,221.684,221.684,221.684s221.684-99.447,221.684-221.684S706.458,1469.577,584.222,1469.577z"/>
			<g>
				<defs>
					<path id="SVGID_1_" d="M782.936,1691.261c0,109.747-88.967,198.715-198.715,198.715c-109.746,0-198.715-88.968-198.715-198.715
						c0-76.031-14.209-235.733,48.519-298.775c27.816-27.956,120.364-49.389,154.08-49.389c76.39,0,120.256,26.148,151.638,49.494
						C821.669,1453.54,782.936,1611.911,782.936,1691.261z"/>
				</defs>
				<clipPath id="SVGID_00000021081597433687649330000007374518712475161479_">
					<use xlink:href="#SVGID_1_"  style="overflow:visible;"/>
				</clipPath>
				<g style="clip-path:url(#SVGID_00000021081597433687649330000007374518712475161479_);">
					<polygon style="fill:#E6D0BE;" points="822.46,1925.017 316.759,1925.017 316.759,1734.573 574.165,1683.298 822.46,1734.573 
											"/>
					<g>
						
							<ellipse transform="matrix(0.1602 -0.9871 0.9871 0.1602 -1024.6104 1754.353)" style="fill:#FFFFFF;" cx="518.692" cy="1479.319" rx="52.112" ry="52.112"/>
						
							<ellipse transform="matrix(0.5257 -0.8507 0.8507 0.5257 -957.8789 1140.5999)" style="fill:#FFFFFF;" cx="543.953" cy="1429.328" rx="52.112" ry="52.112"/>
						
							<ellipse transform="matrix(0.982 -0.1891 0.1891 0.982 -255.8888 141.4635)" style="fill:#FFFFFF;" cx="613.364" cy="1411.661" rx="56.917" ry="56.916"/>
						<circle style="fill:#FFFFFF;" cx="644.32" cy="1472.434" r="48.255"/>
						<rect x="531.212" y="1567.869" style="fill:#D3BBA3;" width="95.991" height="165.263"/>
						<ellipse style="fill:#D3BBA3;" cx="577.526" cy="1723.304" rx="82.546" ry="33.114"/>
						<path style="fill:#D3BBA3;" d="M656.335,1532.046c-1.028,49.247-35.838,88.46-77.75,87.586
							c-41.912-0.875-75.056-41.506-74.028-90.753c1.028-49.247,35.838-88.46,77.75-87.586
							C624.219,1442.168,657.363,1482.799,656.335,1532.046z"/>
						<path style="fill:#D3BBA3;" d="M517.499,1513.738c9.153,14.406,6.634,32.4-5.627,40.189
							c-12.261,7.789-29.62,2.426-38.773-11.98c-9.152-14.406-6.633-32.399,5.627-40.189
							C490.987,1493.968,508.346,1499.331,517.499,1513.738z"/>
						<path style="fill:#D3BBA3;" d="M643.096,1516.359c-9.746,14.012-7.98,32.094,3.945,40.389
							c11.925,8.294,29.493,3.659,39.239-10.352c9.746-14.012,7.979-32.094-3.945-40.389
							C670.41,1497.712,652.842,1502.347,643.096,1516.359z"/>
						<ellipse style="fill:#FFFFFF;" cx="580.788" cy="1443.521" rx="71.651" ry="38.213"/>
					</g>
				</g>
			</g>
		</g>
		<g>
			<path style="fill:#E6D0BE;" d="M1028.746,2162.897c-109.477,0-198.542-89.065-198.542-198.542s89.065-198.542,198.542-198.542
				s198.542,89.066,198.542,198.542S1138.223,2162.897,1028.746,2162.897z M1028.746,1767.814
				c-108.374,0-196.542,88.168-196.542,196.542s88.168,196.542,196.542,196.542s196.542-88.168,196.542-196.542
				S1137.12,1767.814,1028.746,1767.814z"/>
			<g>
				<defs>
					<path id="SVGID_00000069372191063866016290000008607938325016279722_" d="M1205.025,1964.355
						c0,97.356-78.923,176.279-176.279,176.279c-97.356,0-176.279-78.923-176.279-176.279c0-97.356,78.923-265.41,176.279-265.41
						c67.764,0,110.124-20.248,137.963,0.462C1239.385,1753.473,1205.025,1893.964,1205.025,1964.355z"/>
				</defs>
				<clipPath id="SVGID_00000175287297295973730340000017141772088604283276_">
					<use xlink:href="#SVGID_00000069372191063866016290000008607938325016279722_"  style="overflow:visible;"/>
				</clipPath>
				<g style="clip-path:url(#SVGID_00000175287297295973730340000017141772088604283276_);">
					<polygon style="fill:#E6D0BE;" points="1240.087,2188.663 791.482,2188.663 791.482,2019.72 1019.826,1974.234 
						1240.087,2019.72 					"/>
					<g>
						<rect x="981.722" y="1893.017" style="fill:#FFFFFF;" width="85.153" height="125.425"/>
						<ellipse style="fill:#FFFFFF;" cx="1022.807" cy="2009.724" rx="73.226" ry="29.376"/>
						
							<ellipse transform="matrix(0.0209 -0.9998 0.9998 0.0209 -855.4187 2846.2178)" style="fill:#FFFFFF;" cx="1025.397" cy="1859.834" rx="79.119" ry="67.335"/>
						<path style="fill:#FFFFFF;" d="M969.558,1844.997c8.119,12.78,5.885,28.742-4.992,35.652
							c-10.876,6.91-26.276,2.152-34.395-10.628c-8.12-12.78-5.885-28.741,4.992-35.651
							C946.039,1827.459,961.438,1832.218,969.558,1844.997z"/>
						<path style="fill:#FFFFFF;" d="M1080.974,1847.322c-8.646,12.43-7.079,28.471,3.5,35.829
							c10.578,7.358,26.163,3.246,34.808-9.183c8.646-12.43,7.079-28.471-3.5-35.829
							C1105.204,1830.781,1089.62,1834.893,1080.974,1847.322z"/>
						<path style="fill:#D3BBA3;" d="M960.994,1837.349c11.238-17.988,28.665-38.891,52.799-42.069
							c31.557-4.155,49.283,24.939,81.784,22.709c62.241-4.271,33.128-36.659,25.531-36.04c7.8-10.339,13.414-64.243-26.121-38.122
							c-40.145,26.524-61.124,6.178-88.765,12.897C987.985,1761.158,958.009,1780.975,960.994,1837.349z"/>
						<path style="fill:#D3BBA3;" d="M1069.373,1809.959c4.636,4.058,10.363,10.023,15.335,18.28
							c2.489,4.134,4.336,8.088,5.719,11.625c1.121-4.686,2.433-12.895,0.546-22.789c-1.51-7.927-4.507-13.957-6.786-17.751
							C1079.25,1802.868,1074.311,1806.413,1069.373,1809.959z"/>
					</g>
				</g>
			</g>
		</g>
		<g>
			<polygon style="opacity:0.5;fill:#FFFFFF;" points="2099.889,884.242 2100.874,555.862 1554.493,554.223 1553.504,964.005 
				1620.994,884.242 			"/>
			<path style="fill:#ff6900;" d="M1533.563,945.064c-0.116,0-0.232-0.02-0.345-0.061c-0.395-0.145-0.656-0.521-0.655-0.941
				l0.989-409.782c0.001-0.265,0.106-0.52,0.295-0.707c0.188-0.186,0.44-0.291,0.705-0.291c0.001,0,0.002,0,0.003,0l546.381,1.639
				c0.553,0.002,0.999,0.451,0.997,1.003l-0.984,328.38c-0.002,0.551-0.449,0.997-1,0.997h-478.432l-67.19,79.41
				C1534.132,944.939,1533.851,945.064,1533.563,945.064z M1535.55,535.285l-0.98,406.041l65.72-77.672
				c0.19-0.225,0.47-0.354,0.764-0.354h477.898l0.979-326.383L1535.55,535.285z"/>
			<g>
				<path style="fill:#ff6900;" d="M1994.338,627.918h-327.21c-0.553,0-1-0.448-1-1c0-0.552,0.447-1,1-1h327.21c0.553,0,1,0.448,1,1
					C1995.338,627.471,1994.891,627.918,1994.338,627.918z"/>
				<path style="fill:#ff6900;" d="M1635.523,627.918h-20.386c-0.553,0-1-0.448-1-1c0-0.552,0.447-1,1-1h20.386c0.553,0,1,0.448,1,1
					C1636.523,627.471,1636.076,627.918,1635.523,627.918z"/>
				<path style="fill:#ff6900;" d="M1994.338,689.185h-89.413c-0.553,0-1-0.448-1-1c0-0.552,0.447-1,1-1h89.413c0.553,0,1,0.448,1,1
					C1995.338,688.737,1994.891,689.185,1994.338,689.185z"/>
				<path style="fill:#ff6900;" d="M1804.738,689.185h-189.601c-0.553,0-1-0.448-1-1c0-0.552,0.447-1,1-1h189.601
					c0.553,0,1,0.448,1,1C1805.738,688.737,1805.291,689.185,1804.738,689.185z"/>
				<path style="fill:#ff6900;" d="M1994.338,750.451H1743.66c-0.553,0-1-0.448-1-1c0-0.552,0.447-1,1-1h250.678
					c0.553,0,1,0.448,1,1C1995.338,750.003,1994.891,750.451,1994.338,750.451z"/>
				<path style="fill:#ff6900;" d="M1676.17,750.451h-61.032c-0.553,0-1-0.448-1-1c0-0.552,0.447-1,1-1h61.032c0.553,0,1,0.448,1,1
					C1677.17,750.003,1676.723,750.451,1676.17,750.451z"/>
			</g>
		</g>
		<g>
			<polygon style="fill:#FFFFFF;" points="1311.925,595.876 1311.434,431.921 1584.234,431.103 1584.728,635.701 1551.031,595.876 
							"/>
			<path style="fill:#ff6900;" d="M1594.684,626.745c-0.288,0-0.569-0.125-0.764-0.354l-33.396-39.471h-238.642
				c-0.551,0-0.998-0.446-1-0.997l-0.492-163.955c-0.001-0.265,0.104-0.52,0.291-0.708c0.187-0.188,0.44-0.294,0.706-0.295
				l272.8-0.818c0.313,0.002,0.521,0.104,0.708,0.291c0.188,0.187,0.294,0.441,0.295,0.707l0.494,204.598
				c0.001,0.42-0.261,0.796-0.655,0.941C1594.916,626.725,1594.799,626.745,1594.684,626.745z M1322.879,584.92h238.108
				c0.294,0,0.573,0.13,0.764,0.354l31.926,37.733l-0.485-200.857l-270.799,0.812L1322.879,584.92z"/>
			<g>
				<path style="fill:#ff6900;" d="M1527.997,468.398h-163.372c-0.553,0-1-0.448-1-1c0-0.552,0.447-1,1-1h163.372
					c0.553,0,1,0.448,1,1C1528.997,467.951,1528.55,468.398,1527.997,468.398z"/>
				<path style="fill:#ff6900;" d="M1553.954,468.398h-10.178c-0.553,0-1-0.448-1-1c0-0.552,0.447-1,1-1h10.178c0.553,0,1,0.448,1,1
					C1554.954,467.951,1554.507,468.398,1553.954,468.398z"/>
				<path style="fill:#ff6900;" d="M1409.268,498.988h-44.643c-0.553,0-1-0.448-1-1s0.447-1,1-1h44.643c0.553,0,1,0.448,1,1
					S1409.82,498.988,1409.268,498.988z"/>
				<path style="fill:#ff6900;" d="M1553.954,498.988h-94.664c-0.553,0-1-0.448-1-1s0.447-1,1-1h94.664c0.553,0,1,0.448,1,1
					S1554.507,498.988,1553.954,498.988z"/>
				<path style="fill:#ff6900;" d="M1489.785,529.577h-125.16c-0.553,0-1-0.448-1-1c0-0.552,0.447-1,1-1h125.16c0.553,0,1,0.448,1,1
					C1490.785,529.129,1490.338,529.577,1489.785,529.577z"/>
				<path style="fill:#ff6900;" d="M1553.954,529.577h-30.472c-0.553,0-1-0.448-1-1c0-0.552,0.447-1,1-1h30.472c0.553,0,1,0.448,1,1
					C1554.954,529.129,1554.507,529.577,1553.954,529.577z"/>
			</g>
		</g>
	</g>
</g>
</svg>
