<?xml version="1.0" encoding="utf-8"?>
<!-- Generator: Adobe Illustrator 27.5.0, SVG Export Plug-In . SVG Version: 6.00 Build 0)  -->
<svg version="1.1" xmlns="http://www.w3.org/2000/svg" xmlns:xlink="http://www.w3.org/1999/xlink" x="0px" y="0px"
	 viewBox="0 0 2500 2500" style="enable-background:new 0 0 2500 2500;" xml:space="preserve">
-
<g id="Illustration">
	<g id="Foreign_language_workshop_1_">
		<circle style="fill:transparent;" cx="1250" cy="1250" r="915"/>
		<g>
			<rect x="445.013" y="918.752" style="fill:#ff6900;" width="880.196" height="746.732"/>
			<g>
				<g>
					<g>
						<g>
							<path style="fill:#363E44;" d="M686.745,897.616c-8.772,0-17.686-1.134-26.554-3.509
								c-26.509-7.099-48.666-24.096-62.391-47.86c-13.725-23.764-17.373-51.45-10.274-77.959
								c7.099-26.509,24.096-48.667,47.86-62.392c23.766-13.725,51.453-17.372,77.959-10.274
								c26.509,7.099,48.666,24.096,62.391,47.86c13.726,23.764,17.374,51.45,10.275,77.959l-0.966-0.259l0.966,0.259
								C773.732,867.297,732.11,897.616,686.745,897.616z M686.604,694.082c-17.462,0-34.691,4.579-50.218,13.547
								c-23.302,13.457-39.968,35.184-46.929,61.177c-14.369,53.657,17.594,109.001,71.251,123.37
								c8.691,2.327,17.438,3.439,26.037,3.44c44.485,0.004,85.292-29.727,97.334-74.692c6.961-25.992,3.383-53.14-10.075-76.441
								c-13.458-23.302-35.185-39.968-61.177-46.929C704.155,695.231,695.35,694.082,686.604,694.082z"/>
							<circle style="fill:#363E44;" cx="715.6" cy="757.597" r="126.768"/>
						</g>
						<g>
							<path style="fill:#84524D;" d="M818.833,931.729l12.907,2.745c13.14,2.795,26.059-5.591,28.854-18.732l21.259-99.943
								l-60.492-12.867l-21.259,99.943C797.306,916.016,805.693,928.934,818.833,931.729z"/>
							<g>
								
									<ellipse transform="matrix(0.7071 -0.7071 0.7071 0.7071 -316.5165 819.187)" style="fill:#363E44;" cx="830.588" cy="791.663" rx="72.485" ry="72.485"/>
								<path style="fill:#84524D;" d="M920.117,849.812c-10.218,16.778-63.982,6.289-63.982,6.289l-45.176-39.51
									c-10.921-25.386,0.806-54.819,26.192-65.74c25.386-10.921,54.819,0.806,65.74,26.192
									C902.891,777.044,930.524,832.723,920.117,849.812z"/>
								<path style="fill:#84524D;" d="M902.808,791.403c0,0,18.704,7.962,19.552,11.823c1.012,4.609-12.232,13.384-12.232,13.384
									S903.165,791.288,902.808,791.403z"/>
								<path style="fill:#363E44;" d="M889.476,861.146c-16.167,0-32.265-3.091-33.191-3.271c-0.542-0.106-0.896-0.631-0.79-1.173
									c0.106-0.542,0.629-0.896,1.173-0.79c0.312,0.06,31.27,6.003,50.212,1.566c0.545-0.125,1.075,0.208,1.202,0.745
									c0.126,0.538-0.208,1.076-0.745,1.202C901.948,860.688,895.707,861.146,889.476,861.146z"/>
								<g>
									<path style="fill:#FFFFFF;" d="M854.538,806.038c0,0,6.482-8.164,16.65-12.537c2.163-0.93,5.528,18.135,3.054,18.038
										C863.36,811.112,854.538,806.038,854.538,806.038z"/>
									<g>
										<defs>
											<path id="SVGID_00000042726355435797025160000013594792638892156800_" d="M854.538,806.038
												c0,0,9.534-12.008,23.612-14.698c14.078-2.691,27.369,4.955,27.369,4.955s-9.534,12.008-23.612,14.698
												C867.829,813.683,854.538,806.038,854.538,806.038z"/>
										</defs>
										<clipPath id="SVGID_00000025417260598233299400000017898412921047153310_">
											<use xlink:href="#SVGID_00000042726355435797025160000013594792638892156800_"  style="overflow:visible;"/>
										</clipPath>
										<path style="clip-path:url(#SVGID_00000025417260598233299400000017898412921047153310_);fill:#363E44;" d="
											M871.427,792.87c3.832-9.617,14.734-14.307,24.351-10.475c9.617,3.831,14.307,14.734,10.475,24.351
											c-3.832,9.617-14.734,14.307-24.351,10.475C872.285,813.389,867.595,802.487,871.427,792.87z"/>
									</g>
								</g>
								<path style="fill:#363E44;" d="M897.195,831.974c-0.481,0-0.967-0.04-1.451-0.123c-3.233-0.553-5.93-2.954-6.868-6.118
									c-0.157-0.529,0.146-1.086,0.675-1.243c0.53-0.159,1.087,0.146,1.243,0.675c0.724,2.438,2.799,4.29,5.288,4.716
									c2.583,0.442,5.207-0.688,6.685-2.878c0.309-0.459,0.931-0.578,1.388-0.271c0.458,0.309,0.579,0.931,0.271,1.388
									C902.785,830.551,900.054,831.974,897.195,831.974z"/>
								<path style="fill:#363E44;" d="M804.971,833.491c0,0,12.126-12.187,33.935-3.167l7.497-9.589
									c0,0-32.587-60.104,46.542-65.01c0,0-46.106-42.41-83.669-3.393C771.715,791.349,804.971,833.491,804.971,833.491z"/>
								<g>
									<path style="fill:#84524D;" d="M809.12,844.729c6.545,7.828,17.369,9.559,24.176,3.868
										c6.807-5.691,7.018-16.651,0.473-24.479c-6.545-7.828-17.369-9.559-24.175-3.868
										C802.787,825.942,802.575,836.902,809.12,844.729z"/>
									<path style="fill:#363E44;" d="M811.646,835.5c-0.481,0-0.905-0.348-0.985-0.837c-0.608-3.684,0.591-7.188,3.205-9.374
										c4.313-3.604,11.147-2.553,15.237,2.339c0.354,0.424,0.298,1.055-0.126,1.409c-0.425,0.355-1.054,0.298-1.409-0.126
										c-3.384-4.048-8.954-4.984-12.419-2.087c-2.066,1.727-3.006,4.535-2.516,7.513c0.09,0.545-0.278,1.06-0.823,1.149
										C811.754,835.496,811.699,835.5,811.646,835.5z"/>
								</g>
								<path style="fill:#EFBC73;" d="M832.943,875.219c-6.17,0-12.054-3.607-14.644-9.626c-3.468-8.063,0.271-17.443,8.332-20.911
									c8.065-3.47,17.441,0.27,20.911,8.331c3.468,8.063-0.27,17.443-8.331,20.911
									C837.168,874.803,835.039,875.219,832.943,875.219z M820.138,864.802c3.032,7.048,11.234,10.32,18.283,7.284
									c3.415-1.469,6.053-4.179,7.429-7.632c1.376-3.454,1.324-7.236-0.145-10.65c-3.032-7.048-11.232-10.318-18.282-7.284
									c-3.415,1.469-6.053,4.179-7.429,7.633C818.617,857.606,818.669,861.388,820.138,864.802z"/>
							</g>
						</g>
					</g>
					<path style="fill:#FFFFFF;" d="M754.436,1225.468c0,0-79.921,188.091-54.816,442.986h450.335l-147.291-477.403
						L754.436,1225.468z"/>
					<g>
						<g>
							<path style="fill:#84524D;" d="M1257.673,1019.439c-0.003-0.002-0.008,0-0.009-0.004
								c-59.694-116.367-104.277-197.782-117.052-223.457c-1.338-2.689-3.721-7.424-5.034-14.187
								c-4.868-25.06,12.744-37.81,19.65-66.496c7.835-32.549-6.181-55.314,1.466-59.139c5.318-2.661,13.023,4.438,22.187,23.461
								c0.001,0.002,0.004,0.001,0.003-0.001c-5.3-15.253-11.586-36.254-3.148-39.159c9.922-2.833,20.205,20.973,25.721,35.678
								c-6.677-17.799-4.902-29.262,0.206-29.709c8.041-0.704,16.433,11.893,24.345,35.759c-0.86-18.005,1.617-22.502,6.229-21.796
								c8.42,1.288,14.556,21.032,17.304,39.318c3.094,20.585-1.648,37.624-4.894,48.296c-0.001,0.003,0,0.005,0.001,0.008
								c43.753,82.514,61.898,123.18,99.436,191.606C1394.071,1030.74,1322.369,1050.41,1257.673,1019.439z"/>
							<path style="fill:#363E44;" d="M1233.673,975.712c-0.378,0-0.646-0.274-0.863-0.609l-0.013,0.006
								c-0.011-0.023-0.034-0.07-0.071-0.142c-0.074-0.127-0.143-0.258-0.208-0.382l-0.935-1.796
								c-0.035-0.067-0.062-0.138-0.08-0.209c-4.61-8.965-20.13-39.012-24.448-47.332c-0.045-0.055-0.084-0.114-0.117-0.179
								l-0.776-1.517c-0.05-0.096-0.105-0.205-0.156-0.32c-0.032-0.06-0.054-0.102-0.064-0.121l0.011-0.006
								c-0.188-0.477-0.263-1.039,0.398-1.38c0.652-0.33,1.03-0.023,1.352,0.477l0.014-0.007c0.012,0.023,0.039,0.078,0.084,0.167
								c0.083,0.143,0.163,0.297,0.244,0.452l4.392,8.476c2.811,5.434,6.513,12.598,10.084,19.514
								c3.122,6.045,6.144,11.9,8.384,16.245l3.433,6.673c0.055,0.105,0.113,0.222,0.168,0.343c0.035,0.065,0.058,0.108,0.068,0.127
								l-0.012,0.007c0.194,0.488,0.261,1.039-0.396,1.379C1233.981,975.671,1233.819,975.712,1233.673,975.712z"/>
							<path style="fill:#84524D;" d="M1155.03,743.084c-16.973-28.448-29.124-35.112-33.547-32.278
								c-7.437,4.765-2.888,34.984,16.681,79.685C1144.047,777.705,1149.147,755.87,1155.03,743.084z"/>
							<g>
								<path style="fill:#363E44;" d="M1199.228,777.126c-0.34,0-0.672-0.174-0.859-0.486c-3.091-5.165-6.679-13.564-6.214-24.246
									c0.659-15.108,9.198-25.283,12.84-28.956c0.389-0.393,1.021-0.394,1.414-0.006c0.393,0.389,0.395,1.022,0.006,1.414
									c-3.478,3.508-11.633,13.223-12.262,27.636c-0.443,10.186,2.981,18.2,5.933,23.131c0.283,0.474,0.129,1.088-0.345,1.372
									C1199.579,777.08,1199.402,777.126,1199.228,777.126z"/>
								<path style="fill:#363E44;" d="M1136.716,765.943c-0.073,0-0.146-0.008-0.221-0.025c-0.539-0.121-0.877-0.656-0.756-1.195
									c1.618-7.179,4.908-13.803,8.393-20.816c1.625-3.271,3.305-6.652,4.909-10.267c0.225-0.504,0.815-0.733,1.319-0.509
									c0.505,0.224,0.732,0.816,0.509,1.319c-1.622,3.654-3.312,7.057-4.946,10.346c-3.429,6.902-6.667,13.422-8.232,20.366
									C1137.586,765.628,1137.173,765.943,1136.716,765.943z"/>
								<path style="fill:#363E44;" d="M1179.204,710.76c-0.064,0-0.13-0.006-0.195-0.02c-0.542-0.107-0.895-0.634-0.786-1.175
									c0.773-3.896,1.188-7.877,1.231-11.834c0.063-5.743-0.646-11.49-2.107-17.081c-0.14-0.534,0.181-1.081,0.715-1.221
									c0.532-0.134,1.08,0.181,1.221,0.715c1.507,5.764,2.237,11.688,2.172,17.608c-0.045,4.081-0.473,8.186-1.271,12.201
									C1180.09,710.431,1179.672,710.76,1179.204,710.76z"/>
								<path style="fill:#363E44;" d="M1200.83,705.004c-0.064,0-0.13-0.006-0.195-0.02c-0.542-0.107-0.895-0.634-0.786-1.175
									c0.773-3.895,1.188-7.876,1.232-11.835c0.063-5.744-0.646-11.491-2.108-17.08c-0.14-0.534,0.181-1.08,0.715-1.221
									c0.533-0.136,1.08,0.181,1.221,0.715c1.507,5.761,2.238,11.686,2.173,17.608c-0.046,4.082-0.474,8.187-1.271,12.201
									C1201.716,704.675,1201.298,705.004,1200.83,705.004z"/>
								<path style="fill:#363E44;" d="M1226.842,713.045c-0.064,0-0.13-0.006-0.196-0.02c-0.541-0.107-0.894-0.634-0.785-1.176
									c0.773-3.893,1.188-7.875,1.231-11.833c0.064-5.74-0.645-11.487-2.107-17.081c-0.14-0.534,0.181-1.081,0.715-1.221
									c0.533-0.135,1.08,0.181,1.221,0.715c1.507,5.767,2.238,11.69,2.172,17.608c-0.045,4.082-0.473,8.188-1.271,12.202
									C1227.728,712.716,1227.31,713.045,1226.842,713.045z"/>
							</g>
						</g>
						<g>
							<path style="fill:#84524D;" d="M468.592,901.053c0.003-0.001,0.008,0,0.009-0.003
								c67.291-108.436,117.112-184.08,131.575-208.037c1.515-2.509,4.208-6.925,6.022-13.398
								c6.723-23.987-9.394-37.784-13.833-66.231c-5.037-32.278,10.401-53.305,3.268-57.633c-4.961-3.01-13.018,3.282-23.44,21.056
								c-0.001,0.001-0.004,0-0.003-0.001c6.366-14.414,14.146-34.339,6.169-37.834c-9.425-3.543-21.315,18.794-27.847,32.658
								c7.906-16.781,7.09-28.07,2.158-28.91c-7.764-1.322-16.926,10.263-26.514,32.846c2.265-17.443,0.213-22.013-4.328-21.692
								c-8.292,0.585-15.826,19.3-19.949,36.866c-4.643,19.775-1.383,36.722,0.926,47.359c0,0.003-0.001,0.005-0.002,0.008
								c-49.101,76.778-69.976,114.888-111.914,178.458C335.039,901.219,403.213,926.039,468.592,901.053z"/>
							<path style="fill:#363E44;" d="M495.468,860.458c-0.163,0-0.343-0.053-0.543-0.179c-0.57-0.356-0.702-0.563-0.27-1.398
								l-0.024-0.016c0.026-0.039,0.111-0.172,0.261-0.409c0.204-0.351,0.476-0.787,0.817-1.338l2.96-4.753
								c2.468-3.959,5.803-9.305,9.268-14.854c4.06-6.504,8.297-13.287,11.52-18.442l5.043-8.053c0.09-0.142,0.18-0.285,0.273-0.42
								c0.055-0.089,0.089-0.145,0.103-0.168l0.014,0.008c0.356-0.462,0.771-0.747,1.385-0.365c0.635,0.395,0.513,0.95,0.286,1.408
								l0.01,0.006c-0.012,0.019-0.035,0.055-0.07,0.109c-0.06,0.109-0.123,0.212-0.179,0.302l-0.876,1.414
								c-0.038,0.061-0.082,0.117-0.13,0.167c-4.861,7.751-22.335,35.734-27.53,44.089c-0.024,0.068-0.057,0.135-0.097,0.199
								l-1.052,1.672c-0.073,0.116-0.15,0.239-0.233,0.356c-0.04,0.065-0.066,0.109-0.078,0.13l-0.012-0.007
								C496.085,860.217,495.815,860.458,495.468,860.458z"/>
							<path style="fill:#84524D;" d="M590.351,640.426c18.765-26.32,31.112-31.837,35.188-28.73
								c6.855,5.225,0.032,34.253-22.547,76.175C598.285,674.968,595.058,653.328,590.351,640.426z"/>
							<g>
								<path style="fill:#363E44;" d="M544.744,670.054c-0.201,0-0.404-0.06-0.581-0.187c-0.449-0.321-0.553-0.945-0.232-1.396
									c3.26-4.559,7.224-12.079,7.601-22.012c0.532-14.059-6.625-24.15-9.726-27.835c-0.356-0.422-0.302-1.053,0.121-1.409
									c0.422-0.356,1.053-0.301,1.409,0.122c3.251,3.863,10.752,14.442,10.193,29.198c-0.395,10.428-4.553,18.317-7.972,23.1
									C545.363,669.908,545.056,670.054,544.744,670.054z"/>
								<path style="fill:#363E44;" d="M606.429,664.139c-0.49,0-0.919-0.36-0.989-0.86c-0.971-6.873-3.603-13.469-6.389-20.452
									c-1.329-3.33-2.703-6.773-3.991-10.457c-0.182-0.521,0.093-1.092,0.614-1.274c0.522-0.181,1.092,0.094,1.274,0.614
									c1.273,3.643,2.639,7.066,3.96,10.376c2.832,7.098,5.507,13.802,6.512,20.914c0.077,0.547-0.304,1.053-0.851,1.13
									C606.523,664.136,606.475,664.139,606.429,664.139z"/>
								<path style="fill:#363E44;" d="M569.485,607.098c-0.501,0-0.934-0.376-0.992-0.886c-0.458-3.969-0.548-7.997-0.268-11.972
									c0.406-5.768,1.588-11.475,3.512-16.96c0.183-0.52,0.752-0.799,1.274-0.612c0.521,0.183,0.795,0.753,0.612,1.274
									c-1.864,5.317-3.01,10.848-3.404,16.439c-0.271,3.852-0.184,7.755,0.26,11.602c0.064,0.549-0.33,1.045-0.879,1.107
									C569.562,607.096,569.523,607.098,569.485,607.098z"/>
								<path style="fill:#363E44;" d="M548.908,599.783c-0.501,0-0.934-0.376-0.992-0.886c-0.457-3.972-0.547-8-0.267-11.972
									c0.405-5.766,1.587-11.472,3.512-16.96c0.183-0.521,0.751-0.799,1.274-0.612c0.521,0.183,0.795,0.753,0.612,1.274
									c-1.865,5.32-3.011,10.851-3.404,16.438c-0.271,3.85-0.184,7.753,0.259,11.602c0.064,0.549-0.33,1.045-0.879,1.108
									C548.984,599.781,548.946,599.783,548.908,599.783z"/>
								<path style="fill:#363E44;" d="M522.973,605.54c-0.501,0-0.934-0.376-0.992-0.886c-0.457-3.972-0.547-8-0.267-11.973
									c0.405-5.767,1.587-11.472,3.512-16.959c0.184-0.521,0.755-0.799,1.274-0.612c0.521,0.183,0.795,0.753,0.612,1.274
									c-1.865,5.318-3.011,10.849-3.404,16.438c-0.271,3.85-0.184,7.754,0.259,11.603c0.063,0.549-0.33,1.045-0.879,1.107
									C523.049,605.538,523.011,605.54,522.973,605.54z"/>
							</g>
						</g>
						<g>
							<path style="fill:#EFBC73;" d="M530.409,850.706l63.41,34.82c46.273,28.012,99.46,42.521,153.548,41.887l450.144-5.282
								l-40.438-82.724l139.887-11.703l61.946,104.467c42.103,71.003-3.584,161.731-85.698,170.182l-194.146,18.203l16.537,114.498
								c0,0-323.23,60.991-481.004-6.811l34.771-107.956L414.578,985.034c-67.542-39.982-85.792-129.542-39.28-192.765
								l75.052-102.016l121.702,70.534L530.409,850.706z"/>
							<path style="fill:#363E44;" d="M1229.824,989.637c-0.358,0-0.705-0.192-0.885-0.531l-27.636-52.08
								c-0.259-0.488-0.073-1.093,0.415-1.352c0.486-0.26,1.093-0.074,1.353,0.415l27.636,52.08
								c0.259,0.488,0.073,1.093-0.415,1.352C1230.143,989.6,1229.982,989.637,1229.824,989.637z"/>
							<path style="fill:#363E44;" d="M1077.855,1116.137c-0.478,0-0.9-0.343-0.984-0.829l-10.884-62.93
								c-0.094-0.545,0.271-1.063,0.814-1.156c0.556-0.096,1.063,0.271,1.156,0.814l10.884,62.93
								c0.094,0.545-0.271,1.063-0.814,1.156C1077.969,1116.132,1077.912,1116.137,1077.855,1116.137z"/>
							<path style="fill:#363E44;" d="M653.629,1111.86c-0.127,0-0.255-0.023-0.379-0.074c-0.511-0.21-0.756-0.793-0.547-1.305
								l17.184-41.983c0.211-0.512,0.797-0.755,1.305-0.547c0.511,0.21,0.756,0.793,0.547,1.305l-17.184,41.983
								C654.396,1111.626,654.023,1111.86,653.629,1111.86z"/>
							<path style="fill:#EFBC73;" d="M739.316,931.326c0,0-10.117-22.664,4.955-38.25l184.141-4.068c0,0,18.45,15.39,8.885,41.711
								L739.316,931.326z"/>
							<path style="fill:#363E44;" d="M510.236,890.007c-0.153,0-0.309-0.035-0.455-0.109c-0.491-0.252-0.686-0.854-0.435-1.347
								l15.186-29.668c0.254-0.491,0.854-0.685,1.347-0.435c0.491,0.252,0.686,0.854,0.435,1.347l-15.187,29.668
								C510.95,889.809,510.6,890.007,510.236,890.007z"/>
						</g>
						<g>
							<path style="fill:#FFFFFF;" d="M889.835,1121.287c-0.293,0-0.576-0.129-0.769-0.359L731.067,931.358
								c-0.353-0.425-0.296-1.056,0.128-1.409c0.426-0.354,1.055-0.295,1.409,0.128l156.781,188.109l53.369-190.073
								c0.15-0.532,0.702-0.841,1.233-0.692c0.531,0.149,0.842,0.701,0.692,1.233l-53.883,191.903
								c-0.101,0.357-0.391,0.63-0.754,0.707C889.975,1121.28,889.904,1121.287,889.835,1121.287z"/>
							<path style="fill:#FFFFFF;" d="M893.873,1156.299c-7.849,0-14.234-6.386-14.234-14.234c0-7.85,6.386-14.235,14.234-14.235
								c7.849,0,14.234,6.386,14.234,14.235C908.107,1149.913,901.722,1156.299,893.873,1156.299z M893.873,1129.829
								c-6.746,0-12.234,5.488-12.234,12.235c0,6.746,5.488,12.234,12.234,12.234c6.746,0,12.234-5.488,12.234-12.234
								C906.107,1135.317,900.619,1129.829,893.873,1129.829z"/>
							<path style="fill:#FFFFFF;" d="M847.587,980.113c-36.227,0-61.196-12.108-76.118-22.715
								c-17.463-12.413-25.104-25.148-25.421-25.684c-0.28-0.476-0.123-1.088,0.352-1.369s1.09-0.123,1.369,0.352
								c0.076,0.128,7.791,12.964,24.942,25.132c15.82,11.223,43.142,24.167,83.482,22.059c40.305-2.098,59.09-15.521,67.751-26.412
								c9.303-11.696,9.209-22.96,9.207-23.073c-0.01-0.552,0.43-1.008,0.982-1.018c0.563,0.031,1.008,0.43,1.018,0.982
								c0.009,0.488,0.103,12.101-9.642,24.354c-8.917,11.213-28.164,25.027-69.213,27.165
								C853.327,980.039,850.419,980.113,847.587,980.113z"/>
						</g>
					</g>
				</g>
				<g>
					<path style="fill:#F7F1EB;" d="M767.35,349.664c-74.697,0-135.25,60.553-135.25,135.25c0,23.534,6.021,45.658,16.592,64.933
						l-21.254,42.007l43.803-11.8c24.512,24.76,58.514,40.109,96.109,40.109c74.696,0,135.249-60.553,135.249-135.249
						C902.599,410.217,842.046,349.664,767.35,349.664z"/>
					<g>
						<path style="fill:#D87355;" d="M729.282,511.942h-8.295v-28.927H689.44v28.927h-8.253v-62.581h8.253v26.906h31.548v-26.906
							h8.295V511.942z"/>
						<path style="fill:#D87355;" d="M740.587,488.26c0-4.556,0.896-8.653,2.686-12.293c1.79-3.639,4.283-6.447,7.479-8.424
							c3.195-1.978,6.841-2.966,10.938-2.966c6.333,0,11.455,2.192,15.366,6.576c3.911,4.384,5.867,10.215,5.867,17.493v0.559
							c0,4.528-0.867,8.59-2.601,12.185c-1.734,3.596-4.212,6.397-7.435,8.402c-3.224,2.007-6.928,3.009-11.111,3.009
							c-6.304,0-11.411-2.191-15.322-6.576c-3.911-4.384-5.867-10.186-5.867-17.407V488.26z M748.582,489.205
							c0,5.158,1.195,9.299,3.589,12.422c2.392,3.123,5.594,4.684,9.606,4.684c4.041,0,7.25-1.583,9.628-4.749
							c2.378-3.166,3.567-7.601,3.567-13.303c0-5.1-1.211-9.233-3.632-12.4c-2.422-3.166-5.638-4.749-9.649-4.749
							c-3.926,0-7.092,1.561-9.498,4.684C749.785,478.919,748.582,483.389,748.582,489.205z"/>
						<path style="fill:#D87355;" d="M801.534,511.942h-7.951v-66.02h7.951V511.942z"/>
						<path style="fill:#D87355;" d="M842.968,511.942c-0.458-0.917-0.831-2.55-1.117-4.899c-3.696,3.84-8.109,5.759-13.238,5.759
							c-4.585,0-8.346-1.296-11.282-3.89c-2.938-2.593-4.406-5.881-4.406-9.864c0-4.842,1.841-8.603,5.523-11.282
							c3.682-2.679,8.861-4.018,15.538-4.018h7.736v-3.653c0-2.779-0.831-4.993-2.493-6.641c-1.662-1.647-4.112-2.472-7.35-2.472
							c-2.837,0-5.216,0.717-7.135,2.148c-1.92,1.434-2.88,3.167-2.88,5.201h-7.994c0-2.321,0.823-4.563,2.471-6.727
							c1.647-2.163,3.883-3.875,6.705-5.137c2.822-1.26,5.925-1.891,9.306-1.891c5.358,0,9.556,1.34,12.594,4.019
							c3.037,2.68,4.613,6.369,4.728,11.067v21.405c0,4.27,0.544,7.665,1.634,10.187v0.688H842.968z M829.773,505.882
							c2.493,0,4.857-0.645,7.093-1.934c2.234-1.29,3.854-2.966,4.857-5.029v-9.542h-6.232c-9.742,0-14.613,2.851-14.613,8.554
							c0,2.493,0.83,4.441,2.493,5.846C825.03,505.181,827.165,505.882,829.773,505.882z"/>
					</g>
				</g>
				<g>
					<path style="fill:#FFFFFF;" d="M1015.21,490.681c59.704,0,108.103,48.399,108.103,108.103c0,18.811-4.812,36.493-13.261,51.9
						l16.988,33.576l-35.011-9.432c-19.592,19.79-46.769,32.058-76.818,32.058c-59.703,0-108.102-48.399-108.102-108.102
						C907.108,539.08,955.507,490.681,1015.21,490.681z"/>
					<g>
						<path style="fill:#ff6900;" d="M1026.817,630.19h-8.295v-28.927h-31.548v28.927h-8.253v-62.581h8.253v26.906h31.548v-26.906
							h8.295V630.19z"/>
						<path style="fill:#ff6900;" d="M1040.271,571.349c0-1.289,0.394-2.378,1.182-3.267c0.788-0.888,1.956-1.332,3.503-1.332
							c1.548,0,2.722,0.444,3.524,1.332c0.802,0.889,1.204,1.978,1.204,3.267c0,1.29-0.402,2.364-1.204,3.224
							c-0.803,0.86-1.977,1.29-3.524,1.29c-1.547,0-2.715-0.43-3.503-1.29C1040.665,573.713,1040.271,572.639,1040.271,571.349z
							 M1048.867,630.19h-7.951v-46.506h7.951V630.19z"/>
					</g>
				</g>
			</g>
		</g>
		<g>
			
				<ellipse transform="matrix(0.7071 -0.7071 0.7071 0.7071 -854.9735 939.6445)" style="fill:#D3BBA3;" cx="706.765" cy="1501.867" rx="199.52" ry="199.52"/>
			<path style="fill:#FFFFFF;" d="M735.684,1702.387c-0.398,0-0.775-0.001-1.174-0.003c-53.561-0.309-103.794-21.456-141.449-59.547
				c-37.654-38.091-58.222-88.564-57.913-142.125c0.308-53.56,21.455-103.794,59.546-141.449
				c37.808-37.374,87.823-57.917,140.938-57.917c0.398,0,0.788,0.002,1.188,0.004c110.565,0.637,199.998,91.106,199.362,201.672
				C935.547,1613.188,845.705,1702.387,735.684,1702.387z M735.632,1303.347c-52.589,0-102.1,20.335-139.532,57.339
				c-37.711,37.279-58.648,87.012-58.952,140.038c-0.631,109.462,87.911,199.029,197.374,199.66
				c53.027,0.307,102.997-20.057,140.707-57.336c37.711-37.279,58.647-87.012,58.953-140.038l1,0.006l-1-0.006
				c0.63-109.462-87.912-199.029-197.374-199.66C736.416,1303.348,736.023,1303.347,735.632,1303.347z"/>
			<path style="fill:#FFFFFF;" d="M736.014,1406.084c-55.434,0-109.923-9.334-157.578-26.993l0.695-1.875
				c47.435,17.577,101.685,26.868,156.883,26.868c54.775,0,108.663-9.157,155.836-26.482l0.69,1.877
				C845.148,1396.884,791.021,1406.084,736.014,1406.084z"/>
			<path style="fill:#FFFFFF;" d="M577.31,1623.753l-0.705-1.871c48.11-18.107,103.232-27.678,159.409-27.678
				c55.874,0,110.738,9.474,158.662,27.396l-0.701,1.873c-47.702-17.84-102.324-27.27-157.961-27.27
				C680.075,1596.204,625.196,1605.73,577.31,1623.753z"/>
			<path style="fill:#FFFFFF;" d="M735.664,1702.387c-28.062,0-54.39-20.945-74.135-58.978
				c-19.638-37.824-30.453-88.092-30.453-141.543s10.815-103.719,30.453-141.542c19.745-38.032,46.073-58.978,74.135-58.978
				c28.061,0,54.39,20.945,74.135,58.978c19.638,37.823,30.453,88.091,30.453,141.542s-10.815,103.719-30.453,141.543
				C790.054,1681.441,763.726,1702.387,735.664,1702.387z M735.664,1303.347c-56.567,0-102.588,89.056-102.588,198.52
				c0,109.465,46.021,198.521,102.588,198.521c56.567,0,102.588-89.056,102.588-198.521
				C838.252,1392.402,792.231,1303.347,735.664,1303.347z"/>
			<rect x="734.664" y="1302.771" style="fill:#FFFFFF;" width="2" height="398.351"/>
			
				<rect x="734.627" y="1301.047" transform="matrix(0.0078 -1 1 0.0078 -770.7151 2224.5632)" style="fill:#FFFFFF;" width="2" height="399.215"/>
		</g>
		<g>
			<g>
				<path style="fill:#F7F1EB;" d="M826.086,1892.506h247.328c-16.042,0-29.046-25.426-29.046-56.791
					c0-31.365,13.004-56.791,29.046-56.791H826.086c-16.041,0-29.045,25.427-29.045,56.791
					C797.041,1867.08,810.045,1892.506,826.086,1892.506z"/>
				<path style="fill:#D87355;" d="M423.159,1894.792h504.477c-32.72,0-59.245-26.45-59.245-59.078
					c0-32.628,27.33-58.214,60.05-58.214l-505.282-0.864c-32.719,0-59.244,26.45-59.244,59.078
					C363.915,1868.343,390.44,1894.792,423.159,1894.792z"/>
				<path style="fill:#84524D;" d="M1078.557,1893.506H927.636c-33.782,0-60.244-25.385-60.244-57.791s26.462-57.792,60.244-57.792
					h150.921c0.553,0,1,0.447,1,1s-0.447,1-1,1H927.636c-32.66,0-58.244,24.507-58.244,55.792s25.584,55.791,58.244,55.791h150.921
					c0.553,0,1,0.447,1,1S1079.109,1893.506,1078.557,1893.506z"/>
				<path style="fill:#E6D0BE;" d="M1054.34,1877.913H922.172c-0.553,0-1-0.447-1-1s0.447-1,1-1h132.168c0.553,0,1,0.447,1,1
					S1054.893,1877.913,1054.34,1877.913z"/>
				<path style="fill:#E6D0BE;" d="M1047.46,1855.047H915.293c-0.553,0-1-0.447-1-1s0.447-1,1-1h132.167c0.553,0,1,0.447,1,1
					S1048.013,1855.047,1047.46,1855.047z"/>
				<path style="fill:#E6D0BE;" d="M1045.167,1841.327H890.068c-0.553,0-1-0.447-1-1s0.447-1,1-1h155.099c0.553,0,1,0.447,1,1
					S1045.72,1841.327,1045.167,1841.327z"/>
				<path style="fill:#E6D0BE;" d="M1047.46,1811.602H903.827c-0.553,0-1-0.447-1-1s0.447-1,1-1h143.633c0.553,0,1,0.447,1,1
					S1048.013,1811.602,1047.46,1811.602z"/>
				
					<rect x="409.189" y="1803.907" transform="matrix(-1 -1.224647e-16 1.224647e-16 -1 955.039 3673.6167)" style="fill:#EFBC73;" width="136.662" height="65.802"/>
				
					<rect x="569.704" y="1803.907" transform="matrix(-1 -1.224647e-16 1.224647e-16 -1 1383.4851 3673.6167)" style="fill:#EFBC73;" width="244.078" height="65.802"/>
			</g>
			<g>
				<path style="fill:#F7F1EB;" d="M826.086,1967.434h247.328c-16.042,0-29.046-16.278-29.046-36.358
					c0-20.08,13.004-36.358,29.046-36.358H826.086c-16.041,0-29.045,16.278-29.045,36.358
					C797.041,1951.156,810.045,1967.434,826.086,1967.434z"/>
				<path style="fill:#E6D0BE;" d="M423.159,1968.898h504.477c-32.72,0-47.779-16.933-47.779-37.822
					c0-20.888,15.059-37.822,47.779-37.822H423.159c-32.719,0-47.778,16.934-47.778,37.822
					C375.381,1951.964,390.44,1968.898,423.159,1968.898z"/>
				<path style="fill:#84524D;" d="M1078.557,1968.434H927.636c-30.544,0-48.779-13.966-48.779-37.357
					c0-23.393,18.235-37.358,48.779-37.358h150.921c0.553,0,1,0.447,1,1s-0.447,1-1,1H927.636
					c-29.728,0-46.779,12.888-46.779,35.358c0,22.47,17.051,35.357,46.779,35.357h150.921c0.553,0,1,0.447,1,1
					S1079.109,1968.434,1078.557,1968.434z"/>
				<path style="fill:#E6D0BE;" d="M1054.34,1958.451H922.172c-0.553,0-1-0.447-1-1s0.447-1,1-1h132.168c0.553,0,1,0.447,1,1
					S1054.893,1958.451,1054.34,1958.451z"/>
				<path style="fill:#E6D0BE;" d="M1047.46,1943.813H915.293c-0.553,0-1-0.447-1-1s0.447-1,1-1h132.167c0.553,0,1,0.447,1,1
					S1048.013,1943.813,1047.46,1943.813z"/>
				<path style="fill:#E6D0BE;" d="M1045.167,1935.029H890.068c-0.553,0-1-0.447-1-1s0.447-1,1-1h155.099c0.553,0,1,0.447,1,1
					S1045.72,1935.029,1045.167,1935.029z"/>
				<path style="fill:#E6D0BE;" d="M1047.46,1915.998H903.827c-0.553,0-1-0.447-1-1s0.447-1,1-1h143.633c0.553,0,1,0.447,1,1
					S1048.013,1915.998,1047.46,1915.998z"/>
			</g>
			<g>
				<path style="fill:#F7F1EB;" d="M645.665,2040.265h-231.66c15.025,0,27.206,23.815,27.206,53.193s-12.181,53.194-27.206,53.194
					h231.66c15.025,0,27.205-23.816,27.205-53.194S660.69,2040.265,645.665,2040.265z"/>
				<path style="fill:#ff6900;" d="M1023.066,2038.123H550.548c30.647,0,55.492,24.774,55.492,55.335s-24.844,55.335-55.492,55.335
					h472.518c30.646,0,55.491-24.775,55.491-55.335S1053.712,2038.123,1023.066,2038.123z"/>
				<path style="fill:#84524D;" d="M550.549,2147.651h-141.36c-0.553,0-1-0.447-1-1s0.447-1,1-1h141.36
					c30.556,0,54.491-22.926,54.491-52.193s-23.935-52.193-54.491-52.193h-141.36c-0.553,0-1-0.447-1-1s0.447-1,1-1h141.36
					c31.678,0,56.491,23.805,56.491,54.193S582.227,2147.651,550.549,2147.651z"/>
				<path style="fill:#E6D0BE;" d="M555.667,2055.869H431.872c-0.553,0-1-0.447-1-1s0.447-1,1-1h123.795c0.553,0,1,0.447,1,1
					S556.22,2055.869,555.667,2055.869z"/>
				<path style="fill:#E6D0BE;" d="M562.11,2077.287H438.315c-0.553,0-1-0.447-1-1s0.447-1,1-1H562.11c0.553,0,1,0.447,1,1
					S562.663,2077.287,562.11,2077.287z"/>
				<path style="fill:#E6D0BE;" d="M585.735,2090.138H440.463c-0.553,0-1-0.447-1-1s0.447-1,1-1h145.273c0.553,0,1,0.447,1,1
					S586.288,2090.138,585.735,2090.138z"/>
				<path style="fill:#E6D0BE;" d="M572.849,2117.98H438.315c-0.553,0-1-0.447-1-1s0.447-1,1-1h134.533c0.553,0,1,0.447,1,1
					S573.401,2117.98,572.849,2117.98z"/>
				<rect x="862.286" y="2061.617" style="fill:#FFFFFF;" width="128.004" height="61.634"/>
			</g>
			<g>
				<path style="fill:#F7F1EB;" d="M645.665,1970.084h-231.66c15.025,0,27.206,15.247,27.206,34.054
					c0,18.808-12.181,34.055-27.206,34.055h231.66c15.025,0,27.205-15.247,27.205-34.055
					C672.87,1985.33,660.69,1970.084,645.665,1970.084z"/>
				<path style="fill:#D3BBA3;" d="M1023.066,1968.713H550.548c30.647,0,44.753,15.86,44.753,35.425
					c0,19.565-14.106,35.426-44.753,35.426h472.518c30.646,0,44.751-15.861,44.751-35.426
					C1067.818,1984.573,1053.712,1968.713,1023.066,1968.713z"/>
				<path style="fill:#84524D;" d="M550.549,2039.192h-141.36c-0.553,0-1-0.447-1-1s0.447-1,1-1h141.36
					c27.805,0,43.752-12.048,43.752-33.055c0-21.006-15.947-33.054-43.752-33.054h-141.36c-0.553,0-1-0.447-1-1s0.447-1,1-1h141.36
					c28.648,0,45.752,13.104,45.752,35.054C596.301,2026.088,579.197,2039.192,550.549,2039.192z"/>
				<path style="fill:#E6D0BE;" d="M555.667,1980.434H431.872c-0.553,0-1-0.447-1-1s0.447-1,1-1h123.795c0.553,0,1,0.447,1,1
					S556.22,1980.434,555.667,1980.434z"/>
				<path style="fill:#E6D0BE;" d="M562.11,1994.146H438.315c-0.553,0-1-0.447-1-1s0.447-1,1-1H562.11c0.553,0,1,0.447,1,1
					S562.663,1994.146,562.11,1994.146z"/>
				<path style="fill:#E6D0BE;" d="M585.735,2002.372H440.463c-0.553,0-1-0.447-1-1s0.447-1,1-1h145.273c0.553,0,1,0.447,1,1
					S586.288,2002.372,585.735,2002.372z"/>
				<path style="fill:#E6D0BE;" d="M572.849,2020.197H438.315c-0.553,0-1-0.447-1-1s0.447-1,1-1h134.533c0.553,0,1,0.447,1,1
					S573.401,2020.197,572.849,2020.197z"/>
			</g>
		</g>
		<g>
			<g>
				<polygon style="fill:#2D353A;" points="1495.543,1825.963 1425.758,2076.625 1811.686,2076.625 1764.768,1822.279 				"/>
				<g>
					<polygon style="fill:#E2A18D;" points="1670.999,2040.589 1736.673,2023.631 1764.768,2113.583 1646.215,2139.381 
						1627.453,2046.567 					"/>
					<path style="fill:#D3BBA3;" d="M1392.845,2138.491h260.319l-17.485-96.658c0,0-110.418-47.576-231.11,23.054
						C1404.569,2064.887,1374.821,2101.251,1392.845,2138.491z"/>
					<path style="fill:#363E44;" d="M1577.845,2114.214c-0.553,0-1-0.447-1-1v-59.272c0-0.553,0.447-1,1-1s1,0.447,1,1v59.272
						C1578.845,2113.767,1578.397,2114.214,1577.845,2114.214z"/>
					<path style="fill:#363E44;" d="M1561.022,2114.214c-0.553,0-1-0.447-1-1v-59.272c0-0.553,0.447-1,1-1s1,0.447,1,1v59.272
						C1562.022,2113.767,1561.575,2114.214,1561.022,2114.214z"/>
					<path style="fill:#363E44;" d="M1660.079,1973.684l73.128,164.808c0,0,203.363-42.883,344.809-131.37
						c49.425-30.92,65.373-95.57,35.935-145.891c-0.419-0.717-0.843-1.433-1.271-2.147c-25.159-42.053-76.097-61.104-123.037-47.031
						C1914.467,1834.59,1774.254,1884.971,1660.079,1973.684z"/>
				</g>
				<g>
					<polygon style="fill:#E2A18D;" points="1665.931,2071.09 1545.376,1994.257 1501.989,2113.583 1620.541,2139.381 					"/>
					<path style="fill:#FFFFFF;" d="M1871.132,2138.491h-257.54l17.485-91.328c0,0,95.234-55.398,208.958-12.752
						C1840.035,2034.412,1855.191,2066.819,1871.132,2138.491z"/>
					<path style="fill:#363E44;" d="M1688.911,2114.214c-0.553,0-1-0.447-1-1v-59.272c0-0.553,0.447-1,1-1s1,0.447,1,1v59.272
						C1689.911,2113.767,1689.464,2114.214,1688.911,2114.214z"/>
					<path style="fill:#363E44;" d="M1705.734,2114.214c-0.553,0-1-0.447-1-1v-59.272c0-0.553,0.447-1,1-1s1,0.447,1,1v59.272
						C1706.734,2113.767,1706.287,2114.214,1705.734,2114.214z"/>
					<path style="fill:#363E44;" d="M1606.678,1973.684l-73.127,164.808c0,0-203.363-42.883-344.809-131.37
						c-49.425-30.92-65.373-95.57-35.935-145.891c0.42-0.717,0.843-1.433,1.271-2.147c25.159-42.053,76.098-61.104,123.038-47.031
						C1352.289,1834.59,1492.503,1884.971,1606.678,1973.684z"/>
				</g>
			</g>
			<g>
				<g>
					<g>
						<path style="fill:#E2A18D;" d="M1939.939,1860.989c-21.972,12.984-50.239,6.835-64.832-14.103l-63.422-90.996l73.538-121.406
							l101.939,135.202C2017.371,1822.279,1969.394,1851.351,1939.939,1860.989z"/>
						<path style="fill:#E2A18D;" d="M1918.751,1867.777c0,0-164.367,27.782-167.032,27.782c-2.665,0-85.788,0-85.788,0
							l180.854-125.874L1918.751,1867.777z"/>
					</g>
					<g>
						<path style="fill:#E2A18D;" d="M1329.455,1860.989c21.972,12.984,50.239,6.835,64.832-14.103l63.422-88.443l-73.539-123.959
							l-101.939,135.202C1252.023,1822.279,1300,1851.351,1329.455,1860.989z"/>
						<path style="fill:#E2A18D;" d="M1350.643,1867.777c0,0,164.367,27.782,167.032,27.782c2.665,0,85.788,0,85.788,0
							l-180.854-125.874L1350.643,1867.777z"/>
					</g>
					<path style="fill:#FFFFFF;" d="M1940.998,1688.423c0,0-78.942-147.001-313.386-143.465
						c-262.823,3.964-305.871,161.052-305.871,161.052l139.355,58.13l4.249,116.399h347.431v-118.979L1940.998,1688.423z"/>
				</g>
				<g>
					
						<rect x="1460.705" y="1693.085" transform="matrix(-1 -1.224647e-16 1.224647e-16 -1 3268.9683 3594.5454)" style="fill:#EFBC73;" width="347.559" height="208.375"/>
					
						<rect x="1460.705" y="1907.138" transform="matrix(-1 -1.224647e-16 1.224647e-16 -1 3268.9683 3835.6086)" style="fill:#EFBC73;" width="347.559" height="21.333"/>
					<path style="fill:#E0AA63;" d="M1653.374,1808.466h-37.78c-0.553,0-1-0.447-1-1v-37.78c0-0.553,0.447-1,1-1h37.78
						c0.553,0,1,0.447,1,1v37.78C1654.374,1808.019,1653.927,1808.466,1653.374,1808.466z M1616.594,1806.466h35.78v-35.78h-35.78
						V1806.466z"/>
					<path style="fill:#E0AA63;" d="M1793.224,1710.824h-317.479c-0.553,0-1-0.447-1-1s0.447-1,1-1h317.479c0.553,0,1,0.447,1,1
						S1793.776,1710.824,1793.224,1710.824z"/>
				</g>
			</g>
			<g>
				<ellipse style="fill:#E2A18D;" cx="1623.83" cy="1574.238" rx="84.403" ry="29.654"/>
				<g>
					<polygon style="fill:#E2A18D;" points="1664.495,1559.608 1584.084,1580.646 1584.084,1412.857 1664.495,1412.857 					"/>
					<path style="fill:#E2A18D;" d="M1539.334,1511.109c14.984,20.814,83.914,1.765,83.914,1.765l55.01-25.115
						c11.667-34.14-6.723-102.122-40.863-113.789c-34.14-11.667-71.274,6.551-82.941,40.691
						C1554.453,1414.662,1524.073,1489.91,1539.334,1511.109z"/>
					<path style="fill:#E2A18D;" d="M1556.002,1433.344c0,0-23.547,12.241-24.263,17.352c-0.855,6.101,17.265,16.193,17.265,16.193
						S1555.526,1433.231,1556.002,1433.344z"/>
					<path style="fill:#363E44;" d="M1575.173,1522.779c-0.532,0-0.975-0.419-0.998-0.956c-0.024-0.552,0.403-1.019,0.955-1.043
						c8.47-0.374,29.154-3.174,36.697-4.488c0.55-0.089,1.063,0.271,1.157,0.813c0.095,0.544-0.27,1.063-0.813,1.157
						c-7.785,1.356-28.262,4.132-36.953,4.516C1575.203,1522.779,1575.188,1522.779,1575.173,1522.779z"/>
					<g>
						<path style="fill:#FFFFFF;" d="M1620.301,1447.549c0,0-9.257-9.977-22.93-14.648c-2.909-0.994-5.376,24.16-2.164,23.785
							C1609.328,1455.039,1620.301,1447.549,1620.301,1447.549z"/>
						<g>
							<defs>
								<path id="SVGID_00000029022712382282476720000011579568763435980939_" d="M1620.301,1447.549
									c0,0-13.615-14.673-32.21-16.762c-18.594-2.089-35.127,9.196-35.127,9.196s13.615,14.673,32.21,16.763
									C1603.769,1458.834,1620.301,1447.549,1620.301,1447.549z"/>
							</defs>
							<clipPath id="SVGID_00000021116562583637081740000010679655549027759772_">
								<use xlink:href="#SVGID_00000029022712382282476720000011579568763435980939_"  style="overflow:visible;"/>
							</clipPath>
							
								<ellipse transform="matrix(0.5597 -0.8287 0.8287 0.5597 -502.2488 1940.4196)" style="clip-path:url(#SVGID_00000021116562583637081740000010679655549027759772_);fill:#363E44;" cx="1575.027" cy="1442.882" rx="24.471" ry="24.471"/>
						</g>
					</g>
					<path style="fill:#363E44;" d="M1566.515,1485.318c-3.329,0-6.558-1.516-8.692-4.209c-0.344-0.433-0.271-1.062,0.162-1.404
						c0.431-0.346,1.062-0.271,1.404,0.162c2.217,2.796,5.874,4.046,9.305,3.182c3.309-0.832,5.913-3.541,6.635-6.902
						c0.116-0.539,0.641-0.885,1.188-0.768c0.54,0.116,0.884,0.647,0.768,1.188c-0.88,4.1-4.061,7.405-8.102,8.422
						C1568.298,1485.21,1567.402,1485.318,1566.515,1485.318z"/>
					<path style="fill:#363E44;" d="M1650.688,1481.219c-0.275,0-0.55-0.113-0.748-0.336c-0.366-0.413-0.329-1.045,0.084-1.412
						c4.759-4.227,7.664-9.244,7.771-13.422c0.041-1.593-0.376-2.902-1.173-3.687c-2.032-1.999-7.511-1.781-13.323,0.531
						c-0.516,0.206-1.096-0.046-1.299-0.559c-0.205-0.514,0.046-1.095,0.559-1.299c5.114-2.034,12.232-3.282,15.466-0.1
						c1.214,1.194,1.825,2.979,1.77,5.163c-0.12,4.722-3.275,10.279-8.441,14.867
						C1651.162,1481.136,1650.925,1481.219,1650.688,1481.219z"/>
				</g>
				<g>
					<path style="fill:#D87355;" d="M1671.303,1503.615c14.29-1.063,28.02-37.28,29.187-43.469
						c4.036-21.424,7.022-42.417-9.625-68.309c-22.408-34.852-67.688-32.913-77.624-31.671
						c-26.948,3.368-49.68,21.735-46.574,30.428c2.677,7.495,31.09,7.932,39.537,8.693c20.439,1.841,30.127-0.717,33.948,5.381
						c3.5,5.586-5.76,12.511-10.143,29.706c-3.245,12.73-1.242,23.287-0.206,29.911c4.243-11.281,13.974-18.316,23.494-18.422
						c9.937-0.112,15.201,7.547,17.492,14.282c5.175,15.215-4.761,31.05-16.974,38.087
						C1657.021,1501.442,1666.519,1503.971,1671.303,1503.615z"/>
					<g>
						<path style="fill:#D87355;" d="M1690.244,1390.594c0,16.291,13.206,29.498,29.497,29.498c16.29,0,29.497-13.207,29.497-29.498
							c0-16.291-13.207-29.496-29.497-29.496C1703.45,1361.098,1690.244,1374.303,1690.244,1390.594z"/>
						<path style="fill:#D87355;" d="M1722.535,1433.201c-16.816,0-30.497-13.681-30.497-30.497s13.681-30.497,30.497-30.497
							s30.497,13.681,30.497,30.497S1739.352,1433.201,1722.535,1433.201z M1722.535,1374.207
							c-15.713,0-28.497,12.784-28.497,28.497s12.784,28.497,28.497,28.497s28.497-12.784,28.497-28.497
							S1738.248,1374.207,1722.535,1374.207z"/>
					</g>
					<path style="fill:#D87355;" d="M1601.397,1451.383c-0.189,0-0.382-0.054-0.552-0.167
						c-14.119-9.361-20.354-17.145-19.059-23.795c0.778-3.997,4.158-6.417,7.141-8.553c2.781-1.99,5.407-3.87,5.68-6.67
						c0.439-4.528-7.656-11.341-21.655-18.223c-0.495-0.244-0.699-0.843-0.456-1.339c0.242-0.496,0.839-0.7,1.339-0.456
						c15.218,7.481,23.302,14.659,22.763,20.211c-0.359,3.704-3.484,5.94-6.506,8.104c-2.81,2.012-5.716,4.092-6.342,7.309
						c-1.106,5.688,5.017,13.004,18.201,21.746c0.46,0.305,0.586,0.926,0.28,1.386
						C1602.039,1451.226,1601.722,1451.383,1601.397,1451.383z"/>
				</g>
			</g>
		</g>
		<g>
			<path style="fill:#363E44;" d="M1915.883,1316.181h-405.865l-41.097-51.651c-37.919-49.26-2.803-120.606,59.361-120.606h475.844
				l10.049,23.617C2044.151,1237.996,1992.449,1316.181,1915.883,1316.181z"/>
			<g>
				<path style="fill:#ff6900;" d="M1481.083,1216.12h230.152c15.614,0,28.271-12.657,28.271-28.271h-258.423V1216.12z"/>
				<path style="fill:#ff6900;" d="M1479.372,1215.319l-69.708-219.342c-4.729-14.88,3.5-30.777,18.38-35.506l78.271,246.285
					L1479.372,1215.319z"/>
				<path style="fill:#363E44;" d="M1505.518,1177.034c-0.424,0-0.817-0.271-0.953-0.697l-68.508-215.563
					c-0.167-0.526,0.124-1.089,0.65-1.256c0.529-0.17,1.088,0.124,1.256,0.65l68.508,215.563c0.167,0.526-0.124,1.089-0.65,1.256
					C1505.72,1177.02,1505.617,1177.034,1505.518,1177.034z"/>
			</g>
			<g>
				<g>
					<path style="fill:#E2A18D;" d="M1574.791,963.195c0,0,53.145,29.646,160.596,42.179
						c119.078,13.889,2.971-109.863,2.971-109.863s-86.097-33.65-129.599-50.752
						C1571.502,830.112,1574.791,963.195,1574.791,963.195z"/>
					<g>
						<path style="fill:#84524D;" d="M1654.672,910.899c0,0-37.428-110.531-55.418-154.111
							c-18.893-45.768-53.45-110.591-62.456-105.64c-5.13,2.82-2.245,12.635,7.211,38.357c-1.778-0.823-7.781-1.981-12.111,1.415
							c-6.406,5.025-3.766,11.316-3.797,11.978c-0.58-0.327-7.392-3.706-12.25-1.069c-5.472,2.971-6.824,8.081-6.379,12.947
							c-1.466-0.768-8.218-2.998-12.755-0.23c-5.899,3.598-5.779,11.247-3.525,16.487c4.136,9.613,16.092,35.601,20.659,50.152
							c8.988,28.634,21.107,139.263,51.186,172.553C1618.775,1013.213,1664.184,939.786,1654.672,910.899z"/>
						<path style="fill:#363E44;" d="M1548.968,777.053c-0.527,0-0.969-0.412-0.997-0.945c-0.609-11.119,2.994-19.294,5.89-25.862
							c3.041-6.901,4.477-10.653,1.207-13.89c-3.214-3.183-5.393-8.304-6.476-15.224c-0.356-2.281,0.719-4.488,2.74-5.622
							c2.039-1.146,4.508-0.909,6.29,0.601l24.541,20.827c0.421,0.357,0.473,0.988,0.115,1.41c-0.357,0.42-0.986,0.473-1.41,0.115
							l-24.541-20.827c-1.377-1.169-2.978-0.964-4.017-0.382c-1.022,0.574-2.018,1.813-1.742,3.569
							c1.001,6.397,3.044,11.276,5.906,14.11c4.399,4.356,2.111,9.547-0.784,16.118c-2.81,6.373-6.306,14.306-5.724,24.946
							c0.03,0.552-0.392,1.023-0.943,1.053C1549.005,777.053,1548.986,777.053,1548.968,777.053z"/>
						<path style="fill:#363E44;" d="M1505.986,746.074c-0.388,0-0.758-0.228-0.92-0.607c-0.217-0.508,0.02-1.096,0.527-1.313
							c7.254-3.097,10.914-11.359,8.332-18.812l-2.104-6.072c-0.167-0.483,0.057-1.015,0.52-1.232
							c0.465-0.219,1.016-0.051,1.28,0.387l6.552,10.798c2.33,3.837,7.063,5.459,11.255,3.862c2.361-0.9,4.214-2.673,5.217-4.991
							c1.004-2.319,1.027-4.884,0.067-7.222l-6.389-15.554c-0.202-0.491,0.016-1.056,0.496-1.283
							c0.482-0.228,1.057-0.041,1.308,0.427l3.87,7.147c1.859,3.436,6.195,4.772,9.666,2.98c3.271-1.688,4.749-5.555,3.438-8.993
							l-4.199-11.013c-0.196-0.517,0.063-1.094,0.578-1.291c0.515-0.198,1.094,0.063,1.291,0.578l4.199,11.013
							c1.674,4.392-0.213,9.328-4.389,11.483c-3.294,1.7-7.196,1.196-9.959-0.978l1.939,4.723c1.167,2.84,1.139,5.957-0.081,8.775
							s-3.471,4.973-6.34,6.066c-5.098,1.941-10.849-0.031-13.677-4.694l-2.049-3.376c1.58,7.812-2.528,15.905-10.037,19.11
							C1506.251,746.049,1506.118,746.074,1505.986,746.074z"/>
					</g>
				</g>
				<g>
					<path style="fill:#D3BBA3;" d="M1627.548,852.136c0,0,138.006,16.265,237.634,8.444c46.872-3.679,134.926-4.083,164.606,15.383
						c66.353,43.517,84.179,114.475,84.179,114.475l-115.31,21.096l42.447,142.893c14.729,49.583,5.696,92.223-24.468,134.242
						l-71.902,0l12.999-69.058l-38.185,69.058l-196.698-144.745l-2.267-125.637l-129.265-41.944L1627.548,852.136z"/>
					<path style="fill:#363E44;" d="M1723.406,1010.78c-0.553,0-1-0.447-1-1v-33.438c0-0.553,0.447-1,1-1s1,0.447,1,1v33.438
						C1724.406,1010.333,1723.959,1010.78,1723.406,1010.78z"/>
				</g>
				<path style="fill:#D3BBA3;" d="M1647.379,866.893c-1.219-4.759-34.123-90.84-34.123-90.84l-98.712,37.559
					c0,0,4.875,146.543,76.776,162.732C1663.221,992.532,1647.379,866.893,1647.379,866.893z"/>
				<g>
					<g>
						<path style="fill:#84524D;" d="M1814.089,1040.563c9.971,3.49,53.727,11.367,59.799,31.166
							c6.115,19.941-2.713,41.161-16.431,56.777c-0.084,0.008-0.178,0.017-0.261,0.025c-5.271,2.323-13.516,4.988-22.952,3.467
							c-10.757-1.735-12.758-7.249-23.833-10.844c-18.693-6.067-31.589,4.162-34.515-2.155c-2.008-4.335,5.246-10.622,13.365-14.629
							c8.335-4.114,15.476-3.26,15.537-4.783c0.067-1.671-7.294-1.601-16.461-2.354c-4.259-0.349-16.509,5.883-20.124,0.359
							c-2.882-4.404,8.215-14.075,20.916-16.131c8.985-1.454,16.559,3.144,17.117,1.581c0.419-1.172-4.161-3.802-8.778-4.896
							c-7.618-1.807-20.22,4.435-23.449-0.713c-3.163-5.044,6.678-13.32,18.236-15.95c9.745-2.218,17.948,3.311,18.653,1.373
							c0.496-1.363-2.664-4.599-10.99-9.116c-6.95-3.77-22.875-6.636-20.048-14.472
							C1782.247,1032.679,1799.04,1035.295,1814.089,1040.563z"/>
						<path style="fill:#84524D;" d="M2028.375,1094.274c21.917,7.964,36.495,29.256,34.996,52.424
							c-0.983,15.189-8.904,30.657-32.955,39.413c-58.56,21.317-185.543-65.233-185.543-65.233l-12.897-75.287
							C1906.52,1061.231,1968.048,1072.352,2028.375,1094.274z"/>
					</g>
					<g>
						<path style="fill:#D3BBA3;" d="M1952.927,1071.744l-15.505,110.9l98.076,19.457c62.984,12.495,118.622-42.787,106.429-105.83
							c-10.67-55.165-26.602-115.457-49.417-154.136l-120.965,26.023l31.686,107.729L1952.927,1071.744z"/>
						<path style="fill:#363E44;" d="M2003.23,1076.887c-0.433,0-0.831-0.282-0.959-0.718l-14.317-48.678
							c-0.156-0.53,0.146-1.086,0.677-1.241c0.534-0.158,1.086,0.148,1.241,0.677l14.317,48.678c0.156,0.53-0.146,1.086-0.677,1.241
							C2003.419,1076.874,2003.323,1076.887,2003.23,1076.887z"/>
						<path style="fill:#363E44;" d="M2053.437,1204.88c-6.031,0.001-12.093-0.6-18.132-1.798l-99.003-19.641l3.845-27.503
							c0.075-0.546,0.577-0.931,1.129-0.852c0.547,0.076,0.928,0.582,0.852,1.129l-3.583,25.632l97.149,19.273
							c10.497,2.081,21.059,2.317,31.398,0.698c0.548-0.08,1.058,0.289,1.143,0.834s-0.288,1.057-0.834,1.143
							C2062.781,1204.519,2058.118,1204.88,2053.437,1204.88z"/>
						<path style="fill:#363E44;" d="M2018.139,1078.114c-0.027,0-0.055-0.001-0.083-0.003l-65.21-5.37
							c-0.551-0.046-0.96-0.528-0.915-1.079c0.046-0.551,0.514-0.944,1.079-0.915l65.21,5.37c0.551,0.046,0.96,0.528,0.915,1.079
							C2019.091,1077.719,2018.654,1078.114,2018.139,1078.114z"/>
					</g>
				</g>
				<path style="fill:#363E44;" d="M1846.431,1010.78c-0.553,0-1-0.447-1-1v-98.703l1.022,0.023
					c53.852,1.174,63.1-34.064,63.188-34.42c0.132-0.536,0.677-0.863,1.209-0.733c0.536,0.132,0.864,0.674,0.733,1.21
					c-0.095,0.383-2.407,9.48-11.645,18.524c-8.21,8.039-23.643,17.448-50.862,17.448c-0.546,0-1.091-0.004-1.646-0.011v96.662
					C1847.431,1010.333,1846.983,1010.78,1846.431,1010.78z"/>
			</g>
			<g>
				<path style="fill:#84524D;" d="M1858.535,890.623l5.059-1.392c14.954-4.115,23.741-19.573,19.626-34.527l-26.2-95.215
					c-4.115-14.954-19.573-23.741-34.527-19.626l-5.059,1.392c-14.954,4.115-23.741,19.573-19.626,34.527l26.2,95.214
					C1828.123,885.951,1843.581,894.738,1858.535,890.623z"/>
				<g>
					<g>
						<path style="fill:#84524D;" d="M1765.208,817.58c8.552,17.517,62.791,6.301,62.791,6.301l48.116-29.081
							c13.125-24.078,4.247-54.237-19.831-67.362c-24.078-13.125-54.237-4.247-67.362,19.831
							C1788.922,747.268,1756.497,799.738,1765.208,817.58z"/>
						<path style="fill:#84524D;" d="M1787.682,761.463c0,0-19.212,6.146-20.405,9.883c-1.424,4.461,10.854,14.349,10.854,14.349
							S1787.34,761.316,1787.682,761.463z"/>
						<g>
							<path style="fill:#FFFFFF;" d="M1829.929,771.149c0,0-5.754-5.911-14.108-8.544c-1.777-0.56-2.907,14.718-0.967,14.445
								C1823.388,775.847,1829.929,771.149,1829.929,771.149z"/>
							<g>
								<defs>
									<path id="SVGID_1_" d="M1829.929,771.149c0,0-8.463-8.694-19.761-9.69c-11.298-0.996-21.153,6.082-21.153,6.082
										s8.464,8.694,19.762,9.69C1820.074,778.228,1829.929,771.149,1829.929,771.149z"/>
								</defs>
								<clipPath id="SVGID_00000021104588910291080120000007444698325758302907_">
									<use xlink:href="#SVGID_1_"  style="overflow:visible;"/>
								</clipPath>
								<path style="clip-path:url(#SVGID_00000021104588910291080120000007444698325758302907_);fill:#363E44;" d="
									M1815.583,762.128c-3.783-7.266-12.74-10.089-20.006-6.306c-7.266,3.783-10.089,12.74-6.306,20.006
									c3.783,7.266,12.74,10.089,20.006,6.307C1816.543,778.352,1819.366,769.394,1815.583,762.128z"/>
							</g>
						</g>
						<g>
							<path style="fill:#363E44;" d="M1908.146,750.305c0,0-4.323,57.408-44.76,58.942l-5.117-11.24l-23.864-0.853l19.164-20.168
								c6.378-8.265,3.601-20.299-5.754-24.934l-40.836-20.232l12.1-21.193C1854.599,708.063,1885.117,719.044,1908.146,750.305z"/>
							<path style="fill:#363E44;" d="M1866.35,720.954c3.975,3.395,9.95,2.924,13.345-1.051c3.395-3.975,4.701-12.031,0.726-15.425
								c-3.975-3.395-11.727-0.844-15.122,3.132C1861.904,711.585,1862.375,717.56,1866.35,720.954z"/>
							<path style="fill:#363E44;" d="M1858.817,720.077c5.124,1.035,10.117-2.279,11.153-7.403
								c1.036-5.124-1.737-12.799-6.861-13.835c-5.124-1.035-10.659,4.961-11.695,10.085
								C1850.379,714.048,1853.693,719.041,1858.817,720.077z"/>
							<path style="fill:#363E44;" d="M1842.621,718.352c7.083,0.171,12.964-5.432,13.135-12.516
								c0.171-7.083-5.343-16.671-12.426-16.842c-7.083-0.171-13.053,9.14-13.224,16.223S1835.538,718.182,1842.621,718.352z"/>
							<path style="fill:#363E44;" d="M1879.187,728.756c3.864,3.521,9.851,3.244,13.372-0.62
								c3.521-3.864,5.087-11.873,1.223-15.394c-3.864-3.521-11.693-1.221-15.215,2.642
								C1875.045,719.248,1875.323,725.235,1879.187,728.756z"/>
							<path style="fill:#363E44;" d="M1831.05,715.07c4.93-3.932,5.74-11.117,1.808-16.047c-3.932-4.931-13.175-8.32-18.105-4.388
								c-4.931,3.932-3.682,13.697,0.25,18.628C1818.934,718.193,1826.119,719.003,1831.05,715.07z"/>
							<path style="fill:#363E44;" d="M1888.191,737.291c3.926,5.197,11.321,6.228,16.518,2.303
								c5.197-3.926,8.949-13.375,5.023-18.573c-3.925-5.197-14.041-4.174-19.238-0.248
								C1885.296,724.698,1884.265,732.094,1888.191,737.291z"/>
							<path style="fill:#363E44;" d="M1897.843,744.215c0.949,4.994,5.767,8.274,10.762,7.325s10.888-6.264,9.939-11.258
								c-0.949-4.995-8.381-7.777-13.376-6.828C1900.173,734.402,1896.894,739.22,1897.843,744.215z"/>
							<path style="fill:#363E44;" d="M1821.978,726.392c4.203-6.438,2.391-15.063-4.047-19.266
								c-6.438-4.203-18.433-4.591-22.636,1.847s0.978,17.263,7.416,21.466C1809.149,734.642,1817.775,732.83,1821.978,726.392z"/>
						</g>
						<path style="fill:#84524D;" d="M1884.477,799.583c-0.917,9.414-9.291,16.303-18.705,15.386
							c-9.414-0.916-16.303-9.291-15.386-18.705c0.917-9.414,9.291-16.303,18.705-15.386
							C1878.505,781.794,1885.394,790.169,1884.477,799.583z"/>
						<path style="fill:#363E44;" d="M1771.936,779.943l-15.135,38.849c-2.107,5.409,0.721,11.472,6.215,13.347
							c1.382,0.472,2.883,0.966,4.485,1.47c27.743,8.72,58.031,2.498,80.066-16.48c7.382-6.358,10.072-16.613,6.762-25.775
							l-1.091-3.02l-9.261,0.143c0,0-15.939,17.105-24.223,14.638C1811.471,800.647,1800.76,787.283,1771.936,779.943z"/>
						<path style="fill:#84524D;" d="M1788.134,800.975c-2.891,0-5.592-1.589-7-4.165c-0.266-0.484-0.088-1.092,0.397-1.356
							c0.484-0.267,1.091-0.088,1.356,0.397c1.131,2.064,3.367,3.287,5.695,3.106c2.243-0.172,4.238-1.643,5.082-3.749
							c0.206-0.514,0.786-0.762,1.301-0.557c0.513,0.206,0.762,0.788,0.557,1.301c-1.126,2.807-3.789,4.77-6.787,4.999
							C1788.534,800.967,1788.333,800.975,1788.134,800.975z"/>
						<path style="fill:#84524D;" d="M1858.058,759.954c-0.47,0-0.889-0.332-0.98-0.81c-0.105-0.543,0.249-1.067,0.791-1.172
							l24.668-4.773c0.544-0.11,1.066,0.25,1.172,0.791c0.105,0.543-0.249,1.067-0.791,1.172l-24.668,4.773
							C1858.185,759.948,1858.12,759.954,1858.058,759.954z"/>
					</g>
				</g>
			</g>
		</g>
		<g>
			<path style="fill:#FFFFFF;" d="M1411.475,386.552c71.801,0,130.006,58.205,130.006,130.006c0,22.622-5.787,43.888-15.948,62.416
				l20.43,40.379l-42.105-11.343c-23.562,23.8-56.245,38.554-92.382,38.554c-71.8,0-130.005-58.205-130.005-130.005
				C1281.469,444.757,1339.675,386.552,1411.475,386.552z"/>
			<g>
				<path style="fill:#D87355;" d="M1370.815,542.915h-8.295v-28.927h-31.548v28.927h-8.253v-62.581h8.253v26.906h31.548v-26.906
					h8.295V542.915z"/>
				<path style="fill:#D87355;" d="M1382.12,519.232c0-4.556,0.896-8.653,2.687-12.293c1.79-3.639,4.283-6.447,7.479-8.424
					c3.195-1.978,6.841-2.966,10.938-2.966c6.333,0,11.455,2.192,15.366,6.576c3.911,4.384,5.867,10.215,5.867,17.493v0.559
					c0,4.528-0.867,8.59-2.601,12.186c-1.734,3.596-4.212,6.397-7.436,8.402c-3.224,2.007-6.928,3.009-11.111,3.009
					c-6.304,0-11.411-2.191-15.322-6.576c-3.911-4.384-5.867-10.186-5.867-17.407V519.232z M1390.115,520.178
					c0,5.158,1.195,9.299,3.589,12.422c2.392,3.123,5.594,4.685,9.605,4.685c4.041,0,7.25-1.583,9.628-4.749
					c2.378-3.166,3.567-7.601,3.567-13.303c0-5.1-1.211-9.233-3.632-12.4c-2.422-3.166-5.638-4.749-9.649-4.749
					c-3.926,0-7.092,1.561-9.498,4.685C1391.318,509.892,1390.115,514.361,1390.115,520.178z"/>
				<path style="fill:#D87355;" d="M1443.067,542.915h-7.951v-66.019h7.951V542.915z"/>
				<path style="fill:#D87355;" d="M1484.501,542.915c-0.458-0.917-0.831-2.55-1.117-4.899c-3.696,3.84-8.109,5.759-13.238,5.759
					c-4.585,0-8.346-1.296-11.282-3.89c-2.938-2.593-4.406-5.881-4.406-9.864c0-4.842,1.841-8.602,5.523-11.282
					c3.682-2.679,8.861-4.019,15.538-4.019h7.736v-3.653c0-2.779-0.831-4.993-2.493-6.641c-1.662-1.648-4.112-2.472-7.35-2.472
					c-2.837,0-5.216,0.717-7.135,2.148c-1.92,1.434-2.88,3.167-2.88,5.201h-7.994c0-2.321,0.823-4.563,2.471-6.727
					c1.647-2.163,3.883-3.875,6.705-5.137c2.822-1.26,5.925-1.891,9.306-1.891c5.358,0,9.556,1.34,12.594,4.019
					c3.037,2.68,4.613,6.369,4.728,11.067v21.405c0,4.269,0.544,7.665,1.634,10.186v0.688H1484.501z M1471.306,536.854
					c2.493,0,4.857-0.644,7.093-1.934c2.234-1.29,3.854-2.966,4.856-5.029v-9.542h-6.232c-9.742,0-14.613,2.852-14.613,8.554
					c0,2.493,0.83,4.441,2.493,5.846C1466.563,536.153,1468.698,536.854,1471.306,536.854z"/>
			</g>
		</g>
		<g>
			<path style="fill:#FFFFFF;" d="M2077.898,1380.114c-52.75-48.711-135-45.437-183.711,7.313
				c-15.347,16.62-25.523,36.169-30.627,56.675l-42.403,15.805l38.629,20.232c1.164,33.47,15.166,66.482,41.715,90.999
				c52.75,48.711,134.999,45.436,183.71-7.313C2133.922,1511.073,2130.648,1428.824,2077.898,1380.114z"/>
			<g>
				<path style="fill:#D87355;" d="M1954.815,1501.921h-8.295v-28.927h-31.548v28.927h-8.253v-62.581h8.253v26.906h31.548v-26.906
					h8.295V1501.921z"/>
				<path style="fill:#D87355;" d="M1966.12,1478.238c0-4.556,0.896-8.653,2.687-12.293c1.79-3.639,4.283-6.447,7.479-8.424
					c3.195-1.978,6.841-2.966,10.938-2.966c6.333,0,11.455,2.192,15.366,6.576s5.867,10.215,5.867,17.493v0.559
					c0,4.528-0.867,8.59-2.601,12.186c-1.734,3.596-4.212,6.397-7.436,8.402c-3.224,2.007-6.928,3.009-11.111,3.009
					c-6.304,0-11.411-2.191-15.322-6.576c-3.911-4.384-5.867-10.187-5.867-17.407V1478.238z M1974.115,1479.184
					c0,5.158,1.195,9.299,3.589,12.422c2.392,3.123,5.594,4.685,9.605,4.685c4.041,0,7.25-1.583,9.628-4.749
					s3.567-7.601,3.567-13.303c0-5.1-1.211-9.233-3.632-12.4c-2.422-3.166-5.638-4.749-9.649-4.749
					c-3.926,0-7.092,1.562-9.498,4.685C1975.318,1468.897,1974.115,1473.367,1974.115,1479.184z"/>
				<path style="fill:#D87355;" d="M2027.067,1501.921h-7.951v-66.02h7.951V1501.921z"/>
				<path style="fill:#D87355;" d="M2068.501,1501.921c-0.458-0.917-0.831-2.55-1.117-4.899c-3.696,3.84-8.109,5.759-13.238,5.759
					c-4.585,0-8.346-1.296-11.282-3.89c-2.938-2.593-4.406-5.881-4.406-9.864c0-4.842,1.841-8.603,5.523-11.282
					c3.682-2.679,8.861-4.019,15.538-4.019h7.736v-3.653c0-2.779-0.831-4.993-2.493-6.641s-4.112-2.472-7.35-2.472
					c-2.837,0-5.216,0.717-7.135,2.148c-1.92,1.434-2.88,3.167-2.88,5.201h-7.994c0-2.321,0.823-4.563,2.471-6.727
					c1.647-2.163,3.883-3.875,6.705-5.137c2.822-1.26,5.925-1.891,9.306-1.891c5.358,0,9.556,1.34,12.594,4.019
					c3.037,2.68,4.613,6.369,4.728,11.067v21.405c0,4.27,0.544,7.665,1.634,10.187v0.688H2068.501z M2055.306,1495.86
					c2.493,0,4.857-0.645,7.093-1.934c2.234-1.29,3.854-2.966,4.856-5.029v-9.542h-6.232c-9.742,0-14.613,2.852-14.613,8.554
					c0,2.493,0.83,4.441,2.493,5.846C2050.563,1495.159,2052.698,1495.86,2055.306,1495.86z"/>
			</g>
		</g>
	</g>
</g>
</svg>
