<?xml version="1.0" encoding="utf-8"?>
<!-- Generator: Adobe Illustrator 27.5.0, SVG Export Plug-In . SVG Version: 6.00 Build 0)  -->
<svg version="1.1" xmlns="http://www.w3.org/2000/svg" xmlns:xlink="http://www.w3.org/1999/xlink" x="0px" y="0px"
	 viewBox="0 0 2500 2500" style="enable-background:new 0 0 2500 2500;" xml:space="preserve">
-
<g id="Illustration">
	<g id="Branded_workshop_1_">
		<circle style="fill:transparent;" cx="1250" cy="1249.679" r="914.679"/>
		<g>
			<g>
				<path style="fill:#363E44;" d="M2133.113,1361.076H821.279c-1.217,0-2.204-0.987-2.204-2.204V364.557
					c0-1.217,0.987-2.204,2.204-2.204h1311.834c1.217,0,2.204,0.987,2.204,2.204v994.315
					C2135.317,1360.089,2134.33,1361.076,2133.113,1361.076z M823.483,1356.668h1307.426V366.761H823.483V1356.668z"/>
				
					<ellipse transform="matrix(0.3827 -0.9239 0.9239 0.3827 -283.1778 2163.2749)" style="fill:#FFFFFF;" cx="1477.196" cy="1293.54" rx="24.693" ry="24.693"/>
				<path style="fill:#E6D0BE;" d="M1615.284,1378.582h-38.838l0,0c0,29.134-23.618,52.751-52.751,52.751h-93
					c-29.134,0-52.751-23.617-52.751-52.751l0,0h-38.837l-38.838,206.395v17.261h353.852v-17.261L1615.284,1378.582z"/>
				<path style="fill:#E6D0BE;" d="M1654.121,1626.018H1300.27c-1.217,0-2.204-0.987-2.204-2.204c0-1.217,0.987-2.204,2.204-2.204
					h353.851c1.217,0,2.204,0.987,2.204,2.204C1656.326,1625.031,1655.339,1626.018,1654.121,1626.018z"/>
				<g>
					<g>
						<rect x="861.34" y="409.461" style="fill:#FFFFFF;" width="1228.675" height="834.548"/>
						<rect x="861.34" y="409.461" style="fill:#E6D0BE;" width="1228.675" height="74.061"/>
						<path style="fill:#E6D0BE;" d="M2090.014,1246.213H861.34c-1.217,0-2.204-0.987-2.204-2.204V409.461
							c0-1.217,0.987-2.204,2.204-2.204h1228.674c1.217,0,2.204,0.987,2.204,2.204v834.548
							C2092.219,1245.226,2091.232,1246.213,2090.014,1246.213z M863.544,1241.804H2087.81v-830.14H863.544V1241.804z"/>
						<ellipse style="fill:#FFFFFF;" cx="912.835" cy="447.008" rx="17.614" ry="16.845"/>
						<ellipse style="fill:#FFFFFF;" cx="969.747" cy="447.008" rx="17.614" ry="16.845"/>
						<ellipse style="fill:#FFFFFF;" cx="1026.659" cy="447.008" rx="17.614" ry="16.845"/>
					</g>
				</g>
			</g>
			<g>
				<g>
					<rect x="1644.668" y="1032.673" style="fill:#D3BBA3;" width="175.135" height="149.98"/>
					<g>
						<rect x="1623.744" y="1011.749" style="fill:#FFFFFF;" width="175.135" height="149.98"/>
						<path style="fill:#ff6900;" d="M1801.083,1163.933H1621.54v-154.388h179.543V1163.933z M1625.948,1159.525h170.727v-145.572
							h-170.727V1159.525z"/>
					</g>
					<g>
						<path style="fill:#ff6900;" d="M1996.27,1034.527h-156.73c-1.217,0-2.204-0.987-2.204-2.204c0-1.217,0.987-2.204,2.204-2.204
							h156.73c1.217,0,2.204,0.987,2.204,2.204C1998.474,1033.54,1997.488,1034.527,1996.27,1034.527z"/>
						<path style="fill:#ff6900;" d="M1962.983,1066.65H1839.54c-1.217,0-2.204-0.987-2.204-2.204c0-1.217,0.987-2.204,2.204-2.204
							h123.443c1.217,0,2.204,0.987,2.204,2.204C1965.187,1065.663,1964.2,1066.65,1962.983,1066.65z"/>
						<path style="fill:#ff6900;" d="M1983.788,1095.747H1839.54c-1.217,0-2.204-0.987-2.204-2.204c0-1.217,0.987-2.204,2.204-2.204
							h144.248c1.217,0,2.204,0.987,2.204,2.204C1985.992,1094.76,1985.005,1095.747,1983.788,1095.747z"/>
						<path style="fill:#ff6900;" d="M1938.773,1126.357h-99.233c-1.217,0-2.204-0.987-2.204-2.204s0.987-2.204,2.204-2.204h99.233
							c1.217,0,2.204,0.987,2.204,2.204S1939.99,1126.357,1938.773,1126.357z"/>
					</g>
				</g>
				<g>
					<g>
						<path style="fill:#D3BBA3;" d="M1520.605,923.852c-1.217,0-2.204-0.987-2.204-2.204V689.093l-96.385,87.292v145.262
							c0,1.217-0.987,2.204-2.204,2.204s-2.204-0.987-2.204-2.204v-146.24c0-0.623,0.264-1.216,0.724-1.634l100.793-91.285
							c0.647-0.586,1.582-0.734,2.373-0.381c0.797,0.354,1.311,1.143,1.311,2.015v237.524
							C1522.809,922.865,1521.822,923.852,1520.605,923.852z"/>
						<path style="fill:#D3BBA3;" d="M1385.547,923.852c-1.217,0-2.204-0.987-2.204-2.204V807.672c0-1.217,0.987-2.204,2.204-2.204
							c1.217,0,2.204,0.987,2.204,2.204v113.975C1387.751,922.865,1386.764,923.852,1385.547,923.852z"/>
						<path style="fill:#D3BBA3;" d="M1656.236,923.852c-1.217,0-2.204-0.987-2.204-2.204V649.772h-96.384v271.875
							c0,1.217-0.987,2.204-2.204,2.204s-2.204-0.987-2.204-2.204V647.568c0-1.217,0.987-2.204,2.204-2.204h100.792
							c1.217,0,2.204,0.987,2.204,2.204v274.079C1658.44,922.865,1657.453,923.852,1656.236,923.852z"/>
						<path style="fill:#D3BBA3;" d="M1791.869,923.852c-1.217,0-2.204-0.987-2.204-2.204V719.776h-96.385v201.872
							c0,1.217-0.987,2.204-2.204,2.204c-1.217,0-2.204-0.987-2.204-2.204V717.572c0-1.217,0.987-2.204,2.204-2.204h100.793
							c1.217,0,2.204,0.987,2.204,2.204v204.076C1794.073,922.865,1793.086,923.852,1791.869,923.852z"/>
						<path style="fill:#D3BBA3;" d="M1927.501,923.852c-1.217,0-2.204-0.987-2.204-2.204V569.288l-96.385,86.168v266.191
							c0,1.217-0.987,2.204-2.204,2.204s-2.204-0.987-2.204-2.204V654.47c0-0.627,0.267-1.225,0.735-1.643l100.793-90.109
							c0.65-0.58,1.579-0.723,2.369-0.369c0.793,0.355,1.304,1.143,1.304,2.012v357.286
							C1929.705,922.865,1928.718,923.852,1927.501,923.852z"/>
						<path style="fill:#D3BBA3;" d="M1964.041,923.852c-1.217,0-2.204-0.987-2.204-2.204v-381.05c0-1.217,0.987-2.204,2.204-2.204
							c1.217,0,2.204,0.987,2.204,2.204v381.05C1966.245,922.865,1965.258,923.852,1964.041,923.852z"/>
					</g>
					<g>
						<polygon style="fill:#D87355;" points="2055.883,394.1 1738.688,711.298 1597.546,570.155 1256.271,911.431 1332.291,911.431 
							1597.546,646.177 1738.688,787.319 2093.894,432.111 						"/>
						<polygon style="fill:#D87355;" points="2101.068,483.468 2010.969,393.368 2146.118,348.318 2146.118,348.318 						"/>
					</g>
				</g>
				<g>
					<g>
						<rect x="1040.573" y="1023.901" style="fill:#F7F1EB;" width="529.654" height="25.06"/>
						<rect x="1040.573" y="1083.123" style="fill:#F7F1EB;" width="440.161" height="25.06"/>
					</g>
				</g>
				<g>
					<g>
						<rect x="911.555" y="727.029" style="fill:#E6D0BE;" width="87.781" height="213.445"/>
						<rect x="1027.979" y="679.675" style="fill:#E6D0BE;" width="87.781" height="260.798"/>
						<rect x="1144.404" y="620.651" style="fill:#E6D0BE;" width="87.781" height="319.823"/>
					</g>
					<path style="fill:#F7F1EB;" d="M1181.991,630.838l-21.929-96.716l-86.34,48.787l22.098,9.782
						c-7.196,19.514-20.807,46.552-46.642,70.688c-51.967,48.548-115.125,49.594-129.963,49.449
						c10.638,4.293,85.035,32.872,160.532-7.535c45.478-24.34,69.099-61.797,80.037-84.287L1181.991,630.838z"/>
				</g>
			</g>
		</g>
		<g>
			<g>
				<g>
					<path style="fill:#ff6900;" d="M1370.251,1529.43l-323.171-16.888c0,0-85.612,67.711-156.671,376.55h253.025
						c12.32-53.008,35.221-148.557,35.221-148.557l25.355,1.858v146.699h184.908
						C1395.071,1757.874,1390.869,1636.136,1370.251,1529.43z"/>
				</g>
				<g>
					<g>
						<path style="fill:#84524D;" d="M1436.531,1339.997c78.487-30.121,310.321-103.183,278.574-200.175
							c-26.259-80.228-248.897,0.886-328.775,25.743C1403.064,1223.709,1419.797,1281.853,1436.531,1339.997z"/>
						<g>
							<path style="fill:#84524D;" d="M1594.222,1146.622c0,0,25.686-174.181,37.903-231.247
								c12.831-59.931,40.501-146.547,52.568-142.521c6.873,2.294,5.542,14.887-0.254,48.31c1.983-1.397,9.035-4.142,15.062-0.969
								c8.917,4.695,7.102,12.942,7.287,13.742c0.634-0.528,8.177-6.157,14.679-4.025c7.323,2.402,10.106,8.323,10.646,14.348
								c1.614-1.262,9.341-5.478,15.481-3.116c7.983,3.07,9.538,12.41,7.958,19.292c-2.899,12.626-11.68,46.928-14.006,65.662
								c-4.579,36.865-5.874,198.956-26.575,250.488C1678.811,1144.914,1594.222,1146.622,1594.222,1146.622z"/>
							<path style="fill:#363E44;" d="M1697.636,929.859c-1.094,0.001-2.043-0.814-2.184-1.927
								c-1.627-12.857-7.575-21.632-12.356-28.683c-4.99-7.362-9.301-13.72-4.531-20.548c2.738-3.919,4.08-10.115,3.882-17.918
								c-0.055-2.145-1.746-2.891-2.263-3.069c-1.086-0.372-2.641-0.291-3.745,1.056l-25.254,30.816
								c-0.773,0.942-2.16,1.079-3.102,0.308c-0.942-0.772-1.079-2.16-0.308-3.102l25.254-30.816
								c2.089-2.55,5.459-3.505,8.586-2.431c3.099,1.064,5.156,3.861,5.238,7.127c0.226,8.875-1.346,15.791-4.674,20.554
								c-2.904,4.156-0.566,7.979,4.566,15.549c4.777,7.048,11.32,16.7,13.08,30.604c0.153,1.208-0.703,2.311-1.91,2.463
								C1697.823,929.854,1697.729,929.859,1697.636,929.859z"/>
							<path style="fill:#363E44;" d="M1743.095,882.583c-0.161,0-0.325-0.018-0.49-0.055c-8.835-2.003-15.324-9.161-16.873-17.663
								l-0.226,0.592c-2.574,6.742-9.594,10.68-16.69,9.361c-3.996-0.742-7.439-3.012-9.697-6.391
								c-2.257-3.379-3.035-7.429-2.191-11.404l0.707-3.332c-3.016,2.074-6.912,2.816-10.641,1.679
								c-6.034-1.84-9.716-7.905-8.564-14.108l2.665-14.344c0.223-1.196,1.368-1.989,2.57-1.764c1.197,0.222,1.987,1.373,1.765,2.57
								l-2.665,14.344c-0.743,3.995,1.628,7.901,5.514,9.086c4.124,1.259,8.571-1.054,9.908-5.153l3.123-9.564
								c0.363-1.114,1.536-1.747,2.667-1.444c1.132,0.304,1.827,1.44,1.584,2.587l-4.322,20.359
								c-0.594,2.802-0.045,5.658,1.545,8.04c1.592,2.382,4.02,3.982,6.836,4.505c5.009,0.93,9.952-1.846,11.767-6.6l5.577-14.605
								c0.402-1.053,1.538-1.63,2.623-1.345c1.089,0.288,1.786,1.352,1.614,2.466l-1.211,7.862
								c-1.409,9.149,4.56,17.919,13.588,19.966c1.187,0.269,1.931,1.45,1.662,2.637
								C1745.01,881.889,1744.101,882.583,1743.095,882.583z"/>
						</g>
					</g>
					<g>
						<path style="fill:#84524D;" d="M1059.879,1308.5c-76.475,17.272-294.132,80.627-319.724-11.044
							c-21.168-75.827,193.524-128.176,268.353-150.251C1025.632,1200.97,1042.755,1254.735,1059.879,1308.5z"/>
						<g>
							<path style="fill:#84524D;" d="M882.629,1247.115c0-0.004,0.004-0.007,0.002-0.01
								c-75.055-121.019-125.984-208.32-142.766-234.653c-1.757-2.758-4.837-7.639-10.41-12.661
								c-20.648-18.61-42.43-9.337-73.07-18.998c-34.766-10.963-48.136-36.819-55.998-31.833c-5.468,3.469-3.171,14.642,9.433,33.87
								c0.001,0.002-0.002,0.004-0.003,0.002c-11.255-13.508-27.319-31.162-34.766-24.92c-8.213,7.667,8.224,30.624,18.847,44.026
								c-12.858-16.222-24.548-21.001-27.833-16.486c-5.17,7.107,1.871,22.008,19.696,42.788l-0.001,0.002
								c-16.316-10.91-21.9-11.125-23.831-6.426c-3.525,8.579,11.451,25.387,26.968,38.217
								c17.469,14.443,36.027,19.585,47.806,22.547c0.003,0.001,0.006,0.003,0.007,0.006
								c43.779,90.21,75.888,146.535,105.687,221.854C761.387,1352.44,875.204,1324.861,882.629,1247.115z"/>
							<path style="fill:#363E44;" d="M884.021,1249.968c-0.737,0-1.458-0.37-1.876-1.043c-10.3-16.614-20.797-33.645-31.2-50.619
								c-0.636-1.037-0.311-2.395,0.728-3.031c1.04-0.637,2.397-0.31,3.031,0.728c10.399,16.968,20.892,33.992,31.189,50.6
								c0.641,1.034,0.322,2.393-0.712,3.034C884.818,1249.861,884.417,1249.968,884.021,1249.968z"/>
							<path style="fill:#84524D;" d="M682.422,996.208c-17.012-31.806-16.408-46.883-11.282-49.418
								c8.621-4.264,34.26,16.945,64.979,60.297C720.888,1005.398,697.654,997.898,682.422,996.208z"/>
							<g>
								<path style="fill:#363E44;" d="M688.439,1058.196c-0.789,0-1.551-0.424-1.947-1.168
									c-2.871-5.386-8.289-12.893-17.798-18.064c-13.458-7.319-26.771-5.216-31.869-3.971c-1.188,0.29-2.375-0.435-2.665-1.619
									c-0.288-1.183,0.437-2.375,1.619-2.664c5.596-1.367,20.212-3.672,35.021,4.381c10.47,5.694,16.428,13.944,19.582,19.863
									c0.573,1.075,0.166,2.41-0.908,2.982C689.143,1058.113,688.789,1058.196,688.439,1058.196z"/>
								<path style="fill:#363E44;" d="M713.098,993.597c-0.229,0-0.463-0.036-0.693-0.112c-7.229-2.396-15.063-3.028-23.359-3.699
									c-3.999-0.323-8.134-0.657-12.478-1.198c-1.209-0.151-2.065-1.252-1.915-2.46c0.151-1.209,1.255-2.064,2.459-1.915
									c4.25,0.53,8.337,0.86,12.289,1.18c8.567,0.692,16.657,1.346,24.39,3.908c1.156,0.383,1.782,1.63,1.399,2.785
									C714.883,993.011,714.022,993.597,713.098,993.597z"/>
								<path style="fill:#363E44;" d="M637.761,1002.258c-0.247,0-0.5-0.042-0.747-0.131c-4.261-1.535-8.393-3.47-12.283-5.752
									c-5.648-3.313-10.844-7.382-15.443-12.095c-0.85-0.871-0.833-2.266,0.039-3.117c0.871-0.85,2.265-0.833,3.117,0.038
									c4.325,4.432,9.21,8.258,14.518,11.372c3.657,2.145,7.541,3.965,11.547,5.407c1.145,0.413,1.739,1.675,1.327,2.821
									C639.511,1001.699,638.664,1002.258,637.761,1002.258z"/>
								<path style="fill:#363E44;" d="M620.25,1019.203c-0.247,0-0.5-0.042-0.747-0.131c-4.258-1.534-8.391-3.469-12.283-5.752
									c-5.649-3.314-10.845-7.383-15.443-12.095c-0.85-0.871-0.833-2.266,0.039-3.117c0.871-0.85,2.265-0.833,3.117,0.038
									c4.324,4.431,9.209,8.257,14.518,11.372c3.658,2.146,7.543,3.965,11.547,5.407c1.145,0.413,1.739,1.675,1.327,2.821
									C622,1018.644,621.153,1019.203,620.25,1019.203z"/>
								<path style="fill:#363E44;" d="M613.149,1047.985c-0.247,0-0.5-0.042-0.747-0.131c-4.259-1.534-8.391-3.469-12.283-5.752
									c-5.649-3.314-10.845-7.383-15.443-12.095c-0.85-0.871-0.833-2.266,0.039-3.117c0.871-0.85,2.265-0.834,3.117,0.038
									c4.324,4.431,9.209,8.257,14.518,11.372c3.658,2.146,7.543,3.965,11.547,5.407c1.145,0.413,1.739,1.675,1.327,2.821
									C614.899,1047.426,614.052,1047.985,613.149,1047.985z"/>
							</g>
						</g>
					</g>
					<g>
						<path style="fill:#EFBC73;" d="M914.495,1154.508l105.535,195.64L955.883,1540.4c0,0,91.097-13.648,189.18,23.397
							c98.083,37.045,227.921,28.154,266.806,0l24.662-223.8l63.409-215.888c0,0-190.854,17.636-236.688,20.035
							C1174.813,1148.773,1078.271,1106.233,914.495,1154.508z"/>
						<path style="fill:#363E44;" d="M1205.831,1373.975c-23.653,0-44.89-14.077-54.105-35.863
							c-0.475-1.121,0.049-2.414,1.171-2.889c1.124-0.476,2.415,0.05,2.888,1.171c8.523,20.152,28.167,33.173,50.045,33.173
							c21.879,0,41.523-13.021,50.046-33.173c0.474-1.121,1.764-1.646,2.889-1.171c1.121,0.474,1.646,1.767,1.171,2.889
							C1250.722,1359.898,1229.484,1373.975,1205.831,1373.975z"/>
						<path style="fill:#363E44;" d="M1342.103,1361.296c-13.122,0.001-26.144-4.406-36.832-13.013
							c-0.948-0.763-1.099-2.151-0.335-3.099c0.763-0.949,2.152-1.098,3.098-0.334c17.043,13.723,40.509,15.902,59.785,5.553
							c19.276-10.349,30.424-31.113,28.402-52.899c-0.113-1.212,0.778-2.286,1.991-2.398c1.218-0.115,2.286,0.779,2.398,1.99
							c2.187,23.554-9.865,46.003-30.705,57.191C1361.154,1358.985,1351.602,1361.295,1342.103,1361.296z"/>
					</g>
				</g>
				<g>
					
						<ellipse transform="matrix(0.229 -0.9734 0.9734 0.229 -53.9469 1870.5066)" style="fill:#363E44;" cx="1153.845" cy="969.309" rx="156.425" ry="181.863"/>
					<g>
						<g>
							<path style="fill:#363E44;" d="M1263.663,1102.043c-35.56,0-64.387-28.827-64.387-64.387c0-35.56,28.76-59.967,62.875-59.852
								c18.216,0.061,36.177,3.03,47.889,15.189c5.342,5.546,1.09,17.954,4.179,25.129
								C1317.579,1025.926,1299.223,1102.043,1263.663,1102.043z"/>
						</g>
						<path style="fill:#84524D;" d="M1317.205,1053.667L1317.205,1053.667c-10.641-5.879-28.872-21.58-34.751-10.939
							l-68.987,110.322c-5.879,10.641,29.411,6.938,40.052,12.817l0,0c10.641,5.879,24.033,2.019,29.912-8.622l42.396-73.666
							C1331.707,1072.938,1327.846,1059.546,1317.205,1053.667z"/>
						<ellipse style="fill:#84524D;" cx="1249.756" cy="1164.611" rx="59.487" ry="22.25"/>
						<g>
							<path style="fill:#84524D;" d="M1362.308,1099.134c-9.545,17.863-65.494,10.183-65.494,10.183l-48.792-38.05
								c-12.713-25.498-2.349-56.474,23.15-69.187c25.498-12.713,56.474-2.348,69.186,23.15
								C1340.358,1025.231,1372.029,1080.941,1362.308,1099.134z"/>
							<path style="fill:#84524D;" d="M1341.105,1040.015c0,0,19.714,7.111,20.811,11.036c1.309,4.686-11.815,14.486-11.815,14.486
								S1341.466,1039.877,1341.105,1040.015z"/>
							<g>
								<path style="fill:#FFFFFF;" d="M1298.455,1058.813c0,0,5.657-8.011,14.974-12.656c1.982-0.988,6.152,16.739,3.822,16.78
									C1307.009,1063.112,1298.455,1058.813,1298.455,1058.813z"/>
								<path style="fill:#363E44;" d="M1324.422,1062.019c13.079-3.271,21.4-15.054,21.4-15.054s-12.887-6.477-25.967-3.205
									c-2.29,0.573-4.425,1.416-6.404,2.402c-1.79,6.055-0.178,12.353,3.791,16.773
									C1319.574,1062.896,1321.994,1062.625,1324.422,1062.019z"/>
							</g>
							<path style="fill:#363E44;" d="M1339.435,1082.193c-0.35,0-0.703-0.02-1.056-0.06c-3.542-0.402-6.612-2.841-7.822-6.212
								c-0.411-1.146,0.185-2.408,1.33-2.819c1.142-0.411,2.407,0.183,2.82,1.33c0.647,1.803,2.284,3.106,4.169,3.321
								c1.957,0.224,3.88-0.738,4.898-2.448c0.621-1.045,1.974-1.39,3.022-0.766c1.046,0.623,1.388,1.975,0.766,3.021
								C1345.843,1080.449,1342.732,1082.193,1339.435,1082.193z"/>
						</g>
						<path style="fill:#363E44;" d="M1309.901,993.127c10.968,11.112-8.907,41.589-20.478,55.355
							c-13.042,15.518-41.456,46.709-58.179,38.951c-14.782-6.858-17.826-43.932-4.614-65.384
							C1245.696,991.092,1297.663,980.728,1309.901,993.127z"/>
						<g>
							<path style="fill:#84524D;" d="M1279.167,1056.955c9.654,4.549,14.362,14.851,10.517,23.011
								c-3.845,8.16-14.788,11.086-24.441,6.537c-9.653-4.549-14.362-14.851-10.517-23.011
								C1258.571,1055.333,1269.514,1052.406,1279.167,1056.955z"/>
							<path style="fill:#363E44;" d="M1270.531,1082.133c-0.194,0-0.391-0.026-0.587-0.08c-0.752-0.207-1.498-0.484-2.216-0.822
								c-2.843-1.34-5.084-3.555-6.31-6.237c-1.284-2.808-1.315-5.788-0.089-8.391c0.624-1.325,1.535-2.464,2.707-3.386
								c0.959-0.752,2.342-0.587,3.095,0.371c0.752,0.957,0.587,2.342-0.37,3.095c-0.629,0.494-1.114,1.099-1.443,1.799
								c-0.664,1.41-0.625,3.072,0.11,4.68c0.794,1.735,2.278,3.185,4.18,4.081c0.491,0.231,0.998,0.419,1.508,0.56
								c1.173,0.323,1.863,1.537,1.539,2.71C1272.385,1081.491,1271.498,1082.133,1270.531,1082.133z"/>
						</g>
					</g>
					<path style="fill:#40484C;" d="M1205.915,1086.99c-4.317,0-8.263-1.119-11.479-3.336c-4.264-2.942-6.826-7.603-8.383-10.853
						c-2.762-5.768-4.662-11.921-6.499-17.871c-1.959-6.343-3.983-12.901-7.027-18.797c-5.579-10.808-17.226-20.334-28.663-17.633
						c-6.804,1.606-12.308,7.552-13.385,14.46c-1.024,6.552,2.012,13.493,7.441,17.264c-0.323-1.523-0.225-3.189,0.328-4.817
						c1.056-3.103,3.512-5.309,6.409-5.758c2.887-0.447,5.904,0.912,7.849,3.55c1.945,2.638,2.355,5.913,1.07,8.548
						c-1.083,2.218-3.003,3.789-5.553,4.544c-3.518,1.042-8.018,0.371-11.468-1.703c-7.489-4.502-11.778-13.675-10.432-22.307
						c1.346-8.632,8.225-16.063,16.729-18.07c14.266-3.372,27.425,7.953,33.592,19.901c3.223,6.245,5.307,12.993,7.322,19.519
						c1.79,5.797,3.64,11.791,6.262,17.267c2.158,4.504,4.289,7.319,6.91,9.128c4.449,3.068,11.183,3.362,18.013,0.788
						c10.368-3.907,20.015-15.012,18.214-26.833c-0.183-1.203,0.643-2.328,1.848-2.511c1.191-0.181,2.327,0.643,2.511,1.847
						c2.218,14.559-9.173,27.159-21.018,31.622C1212.869,1086.309,1209.279,1086.99,1205.915,1086.99z M1143.615,1052.335
						c1.119,0.093,2.205,0.009,3.155-0.272c1.353-0.4,2.31-1.157,2.842-2.25c0.674-1.38,0.103-2.97-0.655-3.999
						c-0.759-1.029-2.117-2.043-3.627-1.809c-1.517,0.235-2.498,1.612-2.909,2.821c-0.412,1.21-0.474,2.898,0.585,4.009
						C1143.408,1051.256,1143.61,1051.795,1143.615,1052.335z"/>
					<path style="fill:#EFBC73;" d="M1242.59,1094.607c0,0-72.156-86.467-3.714-130.601c7.005-4.517,64.5,16.717,64.5,16.717
						S1236.228,1022.667,1242.59,1094.607z"/>
				</g>
			</g>
			<g>
				<rect x="563.96" y="890.245" style="fill:#D87355;" width="139.043" height="138.648"/>
				<rect x="631.491" y="751.894" style="fill:#EFBC73;" width="139.043" height="138.648"/>
				<rect x="613.951" y="614.077" style="fill:#FFFFFF;" width="139.043" height="138.648"/>
				<rect x="560.678" y="475.429" style="fill:#D87355;" width="139.043" height="138.648"/>
				<rect x="543.137" y="337.611" style="fill:#ff6900;" width="139.043" height="138.648"/>
				<g>
					<path style="fill:#FFFFFF;" d="M577.933,450.874v-86.705h30.371c10.52,0,18.5,2.015,23.939,6.044
						c5.439,4.03,8.159,9.935,8.159,17.716c0,4.249-1.092,7.99-3.275,11.225c-2.185,3.236-5.222,5.608-9.112,7.116
						c4.446,1.112,7.951,3.355,10.511,6.729c2.56,3.375,3.841,7.503,3.841,12.386c0,8.337-2.66,14.65-7.98,18.937
						c-5.321,4.288-12.903,6.471-22.747,6.551H577.933z M595.799,400.494h13.22c9.011-0.158,13.518-3.752,13.518-10.778
						c0-3.931-1.142-6.759-3.424-8.486c-2.284-1.727-5.886-2.59-10.808-2.59h-12.505V400.494z M595.799,413.119v23.403h15.305
						c4.207,0,7.492-1.002,9.855-3.008c2.362-2.004,3.544-4.773,3.544-8.307c0-7.94-4.109-11.97-12.327-12.089H595.799z"/>
				</g>
				<g>
					<path style="fill:#FFFFFF;" d="M630.991,553.437h-14.233v31.74h-17.866v-86.705h32.217c10.243,0,18.143,2.283,23.701,6.848
						c5.557,4.566,8.337,11.017,8.337,19.354c0,5.916-1.281,10.849-3.841,14.798c-2.561,3.951-6.442,7.097-11.642,9.439
						l18.758,35.432v0.834h-19.175L630.991,553.437z M616.758,538.966h14.411c4.486,0,7.958-1.141,10.421-3.424
						c2.461-2.282,3.692-5.428,3.692-9.439c0-4.089-1.161-7.304-3.484-9.647c-2.323-2.342-5.887-3.513-10.69-3.513h-14.351V538.966z
						"/>
				</g>
				<g>
					<path style="fill:#ff6900;" d="M699.134,707.205H667.81l-5.955,17.865h-18.997l32.276-86.705h16.555l32.455,86.705h-18.996
						L699.134,707.205z M672.634,692.734h21.677l-10.898-32.455L672.634,692.734z"/>
				</g>
				<g>
					<path style="fill:#FFFFFF;" d="M737.239,862.565h-17.865l-34.777-57.049v57.049h-17.866V775.86h17.866l34.836,57.168V775.86
						h17.806V862.565z"/>
				</g>
				<g>
					<path style="fill:#FFFFFF;" d="M595.478,1002.624v-86.705h26.679c7.623,0,14.441,1.718,20.455,5.151
						c6.015,3.435,10.709,8.317,14.084,14.65c3.374,6.332,5.061,13.528,5.061,21.587v3.99c0,8.06-1.657,15.225-4.972,21.497
						c-3.316,6.273-7.99,11.136-14.024,14.589c-6.035,3.454-12.843,5.202-20.426,5.24H595.478z M613.344,930.39v57.883h8.634
						c6.987,0,12.327-2.282,16.019-6.848c3.692-4.565,5.577-11.096,5.658-19.592v-4.586c0-8.814-1.826-15.492-5.479-20.039
						c-3.653-4.545-8.992-6.818-16.019-6.818H613.344z"/>
				</g>
			</g>
		</g>
		<g>
			<g>
				<polygon style="fill:#EFBC73;" points="871.53,1908.384 611.001,1908.384 611.001,1810.147 871.53,1857.188 				"/>
				
					<ellipse transform="matrix(0.3085 -0.9512 0.9512 0.3085 -1233.6323 1921.2538)" style="fill:#EFBC73;" cx="704.684" cy="1809.159" rx="61.65" ry="174.399"/>
			</g>
			<g>
				<path style="fill:#363E44;" d="M681.452,1341.318c-7.769,0-16.304-6.335-20.88-16.297c-5.696-12.401-3.13-25.797,5.721-29.862
					c4.434-2.036,9.67-1.485,14.741,1.549c4.809,2.877,8.943,7.696,11.64,13.568c2.697,5.873,3.659,12.148,2.709,17.671
					c-1.004,5.826-3.997,10.156-8.43,12.192C685.212,1340.939,683.355,1341.318,681.452,1341.318z M671.883,1298.367
					c-1.326,0-2.588,0.264-3.75,0.798c-6.642,3.051-8.237,13.825-3.556,24.016c4.679,10.191,13.889,16.002,20.535,12.952
					c3.073-1.411,5.177-4.584,5.926-8.934c0.802-4.655-0.04-10.011-2.37-15.082c-2.33-5.072-5.845-9.201-9.897-11.625
					C676.416,1299.082,674.063,1298.367,671.883,1298.367z"/>
				<path style="fill:#9E6C5A;" d="M670.268,1316.146c-14.645-31.963-25.998-49.302-46.136-56.678
					c-27.063-9.913-53.622,7.456-56.367,9.311c-1.753,1.184-27.684,16.52-29.581,46.776c-1.873,29.88,12.142,59.708,37.262,75.493
					l5.755,65.889c1.848,21.153,20.493,36.803,41.646,34.955l4.791-0.418c21.153-1.848,36.803-20.493,34.956-41.646l-3.844-44.015
					c13.321-2.295,23.597-7.111,27.258-14.279C692.566,1378.694,687.515,1353.785,670.268,1316.146z"/>
				<path style="fill:#363E44;" d="M629.722,1333.865c-0.941,0-1.812-0.608-2.105-1.555c-0.359-1.163,0.293-2.397,1.456-2.756
					l60.862-18.786c1.161-0.358,2.397,0.293,2.756,1.456c0.358,1.163-0.293,2.397-1.456,2.756l-60.862,18.786
					C630.156,1333.833,629.937,1333.865,629.722,1333.865z"/>
				<path style="fill:#363E44;" d="M659.259,1406.922c-1.105,0-2.059-0.83-2.187-1.954l-1.835-16.076
					c-0.138-1.209,0.731-2.301,1.94-2.44c1.208-0.136,2.302,0.731,2.44,1.94l1.835,16.076c0.138,1.209-0.731,2.301-1.94,2.44
					C659.427,1406.917,659.343,1406.922,659.259,1406.922z"/>
				<path style="fill:#363E44;" d="M628.584,1358.467c-0.532,0-1.067-0.192-1.49-0.58c-3.988-3.661-6.464-6.035-8.282-7.779
					c-0.881-0.846-1.607-1.542-2.276-2.164c-0.891-0.829-0.942-2.223-0.113-3.115c0.831-0.891,2.224-0.941,3.116-0.112
					c0.683,0.635,1.424,1.346,2.326,2.21c1.803,1.729,4.258,4.084,8.211,7.713c0.896,0.823,0.957,2.217,0.133,3.115
					C629.774,1358.227,629.18,1358.467,628.584,1358.467z"/>
				<path style="fill:#363E44;" d="M632.605,1256.082c-24.247-20.061-79.84-2.43-99.24,28.496
					c-26.235,41.822-6.338,99.983,29.495,117.258c12.021,5.795,31.835,12.45,51.263,1.27c11.344-6.528,7.485-23.733,6.475-27.866
					c-11.21-1.049-19.969-9.935-20.766-20.601c-0.804-10.744,6.677-20.504,16.099-22.959c6.25-1.628,11.691,0.391,13.914,1.371
					C645.745,1300.387,649.883,1270.376,632.605,1256.082z"/>
			</g>
			<g>
				<path style="fill:#9E6C5A;" d="M412.564,1647.692c87.345,39.768,143.451,67.297,162.708,75.78
					c2.016,0.888,5.569,2.472,10.565,3.189c18.513,2.658,27.185-10.846,47.913-17.031c23.519-7.018,40.693,2.491,43.207-3.307
					c1.749-4.033-3.731-9.464-17.987-15.525c-0.001,0-0.001-0.003,0.001-0.002c11.355,3.346,26.951,7.205,28.762,0.856
					c1.703-7.444-16.094-14.153-27.056-17.679c13.269,4.268,21.588,2.525,21.725-1.269c0.216-5.973-9.311-11.705-27.065-16.658
					c-0.001,0-0.001-0.001,0-0.001c13.203-0.042,16.401-2.041,15.713-5.425c-1.256-6.178-15.927-9.973-29.406-11.318
					c-15.174-1.514-27.461,2.633-35.148,5.435c-0.002,0-0.004,0-0.006-0.001c-58.318-34.265-97.057-56.56-143.599-85.203
					C453.369,1553.671,412.561,1647.691,412.564,1647.692z"/>
				<path style="fill:#9E6C5A;" d="M484.668,1484.382c-79.842,51.085-110.209,137.504-74.282,162.106
					c20.357,13.94,89.774-24.83,159.829-101.616C546.51,1517.522,514.167,1516.719,484.668,1484.382z"/>
				<path style="fill:#9E6C5A;" d="M864.648,1699.297c-95.682,4.7-157.822,9.483-178.814,10.254
					c-2.198,0.081-6.078,0.241-10.987-0.94c-18.191-4.375-21.374-20.15-38.425-33.574c-19.348-15.232-38.773-12.735-39.013-19.061
					c-0.168-4.401,6.897-7.428,22.359-7.795c0.001,0,0.002-0.002,0-0.002c-11.779-1.086-27.69-3.264-27.078-9.843
					c1.109-7.558,20.1-7.218,31.579-6.445c-13.894-0.936-21.005-5.636-19.759-9.218c1.961-5.638,12.902-7.449,31.217-5.492
					c0.001,0,0.001-0.001,0-0.001c-12.273-4.923-14.524-7.966-12.659-10.861c3.405-5.285,18.432-3.39,31.463,0.345
					c14.67,4.204,24.604,12.609,30.743,18.059c0.002,0.001,0.004,0.002,0.006,0.002c66.676-10.316,110.799-16.736,164.481-26.176
					C860.744,1596.618,864.65,1699.297,864.648,1699.297z"/>
				<path style="fill:#9E6C5A;" d="M812.63,1537.359c69.881,80.403,99.942,137.336,64.217,158.528
					c-23.005,13.646-76.022-13.425-134.571-73.803C764.367,1595.302,785.212,1569.182,812.63,1537.359z"/>
				<path style="fill:#363E44;" d="M818.954,1686.77c-0.369,0-0.745-0.093-1.089-0.289c-23.691-13.494-50.377-35.232-77.172-62.863
					c-0.848-0.873-0.827-2.269,0.047-3.116c0.874-0.847,2.271-0.827,3.117,0.048c26.509,27.336,52.855,48.81,76.19,62.101
					c1.057,0.602,1.426,1.948,0.824,3.006C820.465,1686.369,819.721,1686.77,818.954,1686.77z"/>
				<path style="fill:#ff6900;" d="M404.826,1551.814c0,0,64.757-119.88,215.583-110.755
					c125.009,7.564,243.256,128.123,243.256,128.123l-77.821,100.126l-27.288-16.347l-13.139,103.191l-319.369-8.174l32.616-142.913
					L404.826,1551.814z"/>
			</g>
			<polygon style="fill:#D3BBA3;" points="650.416,1908.384 385.623,1908.384 339.091,1588.594 603.884,1588.594 			"/>
		</g>
		<g>
			<g>
				<polygon style="fill:#EFBC73;" points="1091.351,2163.521 791.966,2163.521 791.966,2050.633 1091.351,2104.689 				"/>
				
					<ellipse transform="matrix(0.3085 -0.9512 0.9512 0.3085 -1327.4537 2272.8618)" style="fill:#EFBC73;" cx="899.622" cy="2049.497" rx="70.844" ry="200.409"/>
			</g>
			<path style="fill:#363E44;" d="M1545.045,1894.515H800.096c-1.217,0-2.204-0.987-2.204-2.204c0-1.217,0.987-2.204,2.204-2.204
				h744.949c1.217,0,2.204,0.987,2.204,2.204C1547.249,1893.528,1546.262,1894.515,1545.045,1894.515z"/>
			<g>
				<path style="fill:#E2A18D;" d="M919.206,1536.764c-4.378-35.768-10.049-56.227-27.26-69.664
					c-23.131-18.06-54.122-9.3-57.344-8.336c-2.057,0.615-31.819,7.582-42.912,36.566c-10.954,28.623,2.112,63.83,21.568,87.028
					l-13.162,69.661c-4.686,21.245-1.528,37.103,19.488,41.84l4.76,1.073c21.016,4.738,41.851-8.644,46.537-29.889l9.751-44.206
					c13.58,1.877,24.989,0.349,30.722-5.524C921.624,1604.792,924.363,1578.885,919.206,1536.764z"/>
				<path style="fill:#363E44;" d="M881.466,1622.129c-0.139,0-0.279-0.013-0.42-0.04c-1.196-0.231-1.977-1.387-1.747-2.582
					l3.145-16.28c0.23-1.195,1.383-1.976,2.582-1.746c1.196,0.231,1.977,1.387,1.747,2.582l-3.145,16.28
					C883.425,1621.396,882.501,1622.129,881.466,1622.129z"/>
				<path style="fill:#363E44;" d="M870.317,1568.819c-0.767,0-1.512-0.401-1.918-1.115c-1.38-2.426-2.596-4.656-3.858-6.972
					c-1.032-1.893-2.095-3.844-3.308-6.011c-0.595-1.062-0.215-2.405,0.847-3c1.062-0.595,2.404-0.215,2.999,0.846
					c1.221,2.182,2.293,4.148,3.332,6.054c1.251,2.293,2.454,4.501,3.82,6.903c0.602,1.058,0.232,2.404-0.827,3.006
					C871.06,1568.726,870.686,1568.819,870.317,1568.819z"/>
				<path style="fill:#D87355;" d="M747.59,1500.626c0-18.067,14.489-32.714,32.362-32.714c0.027,0,0.055,0.002,0.084,0.002
					c-1.628-3.578-2.56-7.545-2.56-11.741c0-15.559,12.477-28.173,27.869-28.173c3.216,0,6.291,0.578,9.164,1.591
					c0.831-14.805,12.937-26.56,27.789-26.56c8.393,0,15.901,3.768,21.01,9.702c5.768-9.086,15.844-15.111,27.315-15.111
					c17.352,0,31.524,13.772,32.4,31.094c0.828-0.075,1.66-0.128,2.508-0.128c15.392,0,27.869,12.613,27.869,28.173
					c0,15.559-12.477,28.173-27.869,28.173c-0.444,0-0.877-0.046-1.316-0.067c-2.118,27.439-30.896,30.502-32.606,30.918
					c1.785,3.565,3.837,10.818-1.312,17.654c-3.242,4.305-12.147,6.312-19.427,4.957c-11.464-2.133-22.264,8.399-23.408,19.755
					c-1.043,10.366,2.561,21.252,12.307,27.13c-11.624,0.181-23.793,0.03-36.462-0.552c-6.609-0.303-8.4-1.874-14.696-2.37
					c-3.813-2.565-32.967-18.491-37.643-50.304C757.469,1528.117,747.59,1515.542,747.59,1500.626z"/>
			</g>
			<g>
				<path style="fill:#E2A18D;" d="M563.934,1863.949c100.372,45.699,164.845,77.334,186.974,87.081
					c2.317,1.021,6.399,2.841,12.141,3.665c21.274,3.054,31.239-12.464,55.058-19.571c27.027-8.065,46.762,2.862,49.651-3.801
					c2.01-4.635-4.287-10.875-20.67-17.84c-0.001-0.001-0.001-0.003,0.001-0.003c13.049,3.845,30.971,8.279,33.052,0.983
					c1.957-8.554-18.494-16.264-31.091-20.316c15.248,4.905,24.808,2.902,24.965-1.459c0.248-6.863-10.7-13.451-31.101-19.143
					c-0.001,0-0.001-0.002,0-0.001c15.172-0.048,18.846-2.345,18.056-6.234c-1.443-7.1-18.302-11.46-33.791-13.006
					c-17.437-1.74-31.557,3.026-40.389,6.245c-0.002,0.001-0.005,0.001-0.007-0.001c-67.016-39.375-111.532-64.996-165.016-97.91
					C610.825,1755.905,563.931,1863.948,563.934,1863.949z"/>
				<path style="fill:#E2A18D;" d="M646.792,1676.283c-91.75,58.703-126.645,158.011-85.361,186.282
					c23.393,16.019,103.163-28.533,183.666-116.771C717.857,1714.365,680.69,1713.442,646.792,1676.283z"/>
				<path style="fill:#E2A18D;" d="M1083.442,1923.25c-109.952,5.401-181.359,10.897-205.482,11.783
					c-2.526,0.093-6.984,0.277-12.626-1.08c-20.905-5.028-24.561-23.155-44.156-38.581c-22.233-17.503-44.555-14.634-44.832-21.904
					c-0.193-5.057,7.926-8.535,25.694-8.957c0.002,0,0.002-0.003,0-0.003c-13.536-1.248-31.82-3.751-31.116-11.311
					c1.275-8.685,23.098-8.295,36.288-7.406c-15.966-1.076-24.137-6.476-22.706-10.592c2.253-6.479,14.827-8.56,35.873-6.311
					c0.001,0,0.001-0.001,0.001-0.001c-14.103-5.657-16.691-9.154-14.547-12.481c3.913-6.074,21.181-3.895,36.155,0.396
					c16.857,4.831,28.273,14.489,35.328,20.753c0.002,0.001,0.005,0.002,0.007,0.002c76.62-11.854,127.323-19.231,189.012-30.079
					C1078.956,1805.258,1083.445,1923.25,1083.442,1923.25z"/>
				<path style="fill:#E2A18D;" d="M1023.667,1737.16c80.303,92.394,114.848,157.818,73.794,182.17
					c-26.436,15.681-87.36-15.428-154.641-84.81C968.205,1803.745,992.159,1773.73,1023.667,1737.16z"/>
				<path style="fill:#363E44;" d="M1030.934,1908.526c-0.369,0-0.745-0.093-1.089-0.289c-27.201-15.493-57.84-40.453-88.607-72.182
					c-0.848-0.874-0.827-2.269,0.047-3.117c0.875-0.847,2.27-0.826,3.117,0.048c30.481,31.433,60.781,56.13,87.626,71.42
					c1.057,0.602,1.426,1.948,0.824,3.006C1032.445,1908.125,1031.701,1908.526,1030.934,1908.526z"/>
				<path style="fill:#363E44;" d="M555.042,1753.771c0,0,74.415-137.76,247.736-127.273
					c143.653,8.692,279.536,147.232,279.536,147.232l-89.427,115.059l-31.357-18.785l-15.098,118.581l-366.999-9.392l37.481-164.227
					L555.042,1753.771z"/>
			</g>
			<polygon style="fill:#E6D0BE;" points="837.26,2163.521 532.976,2163.521 479.504,1796.037 783.788,1796.037 			"/>
		</g>
		<g>
			<g>
				<polygon style="fill:#FFFFFF;" points="1545.045,2165 1844.429,2157.247 1844.429,2044.359 1545.045,2098.415 				"/>
				
					<ellipse transform="matrix(0.9512 -0.3085 0.3085 0.9512 -545.6892 635.5629)" style="fill:#FFFFFF;" cx="1736.774" cy="2043.224" rx="200.409" ry="70.844"/>
			</g>
			<g>
				<path style="fill:#E2A18D;" d="M2072.461,1857.675c-100.372,45.699-164.845,77.334-186.974,87.082
					c-2.317,1.021-6.4,2.841-12.141,3.665c-21.275,3.054-31.239-12.464-55.058-19.572c-27.027-8.065-46.762,2.862-49.651-3.801
					c-2.009-4.635,4.287-10.875,20.67-17.841c0.001,0,0.001-0.003-0.001-0.003c-13.049,3.845-30.971,8.279-33.052,0.983
					c-1.957-8.554,18.494-16.264,31.091-20.316c-15.248,4.905-24.808,2.901-24.965-1.459c-0.248-6.863,10.7-13.451,31.101-19.143
					c0.001,0,0.001-0.002,0-0.002c-15.173-0.048-18.846-2.345-18.056-6.234c1.443-7.1,18.302-11.461,33.791-13.006
					c17.437-1.74,31.557,3.026,40.39,6.245c0.002,0.001,0.005,0.001,0.007-0.001c67.016-39.375,111.532-64.995,165.016-97.91
					C2025.57,1749.631,2072.465,1857.674,2072.461,1857.675z"/>
				<path style="fill:#BC8271;" d="M1989.603,1670.009c91.75,58.703,126.645,158.011,85.361,186.282
					c-23.393,16.019-103.163-28.533-183.665-116.771C1918.538,1708.092,1955.705,1707.168,1989.603,1670.009z"/>
				<path style="fill:#BC8271;" d="M1552.954,1916.976c109.952,5.401,181.359,10.897,205.482,11.783
					c2.526,0.093,6.984,0.277,12.626-1.08c20.905-5.028,24.561-23.155,44.156-38.581c22.233-17.503,44.555-14.634,44.832-21.904
					c0.193-5.057-7.926-8.535-25.694-8.957c-0.001,0-0.002-0.003,0-0.003c13.536-1.248,31.82-3.751,31.116-11.311
					c-1.275-8.685-23.098-8.295-36.288-7.406c15.966-1.075,24.137-6.476,22.706-10.592c-2.253-6.479-14.827-8.56-35.873-6.311
					c-0.001,0-0.001-0.001,0-0.001c14.103-5.657,16.69-9.154,14.547-12.48c-3.913-6.074-21.182-3.896-36.155,0.396
					c-16.857,4.831-28.273,14.489-35.328,20.753c-0.002,0.001-0.005,0.002-0.007,0.002c-76.62-11.854-127.323-19.231-189.012-30.079
					C1557.439,1798.984,1552.95,1916.977,1552.954,1916.976z"/>
				<path style="fill:#BC8271;" d="M1612.729,1730.887c-80.303,92.394-114.848,157.818-73.794,182.17
					c26.436,15.681,87.361-15.428,154.641-84.81C1668.19,1797.472,1644.237,1767.456,1612.729,1730.887z"/>
				<path style="fill:#363E44;" d="M1605.46,1902.252c-0.766,0-1.511-0.4-1.918-1.114c-0.602-1.057-0.233-2.404,0.824-3.006
					c26.847-15.291,57.148-39.988,87.627-71.42c0.846-0.875,2.243-0.895,3.117-0.048c0.874,0.848,0.895,2.243,0.047,3.117
					c-30.765,31.727-61.406,56.687-88.608,72.182C1606.205,1902.159,1605.829,1902.252,1605.46,1902.252z"/>
				<path style="fill:#ff6900;" d="M2081.353,1747.498c0,0-74.415-137.76-247.736-127.273
					c-143.653,8.692-279.536,147.232-279.536,147.232l89.427,115.059l31.357-18.785l15.098,118.581l367-9.393l-37.481-164.227
					L2081.353,1747.498z"/>
			</g>
			<polygon style="fill:#E6D0BE;" points="1799.135,2157.247 2103.42,2157.247 2156.892,1789.764 1852.608,1789.764 			"/>
			<g>
				<path style="fill:#363E44;" d="M1766.723,1521.841c-1.863,0-3.663-0.383-5.343-1.155c-4.232-1.943-7.089-6.072-8.044-11.625
					c-0.904-5.249,0.01-11.212,2.572-16.791c2.563-5.579,6.491-10.158,11.062-12.892c4.833-2.893,9.828-3.416,14.06-1.472
					c8.434,3.874,10.889,16.621,5.472,28.416c-2.562,5.579-6.492,10.158-11.062,12.892
					C1772.524,1520.958,1769.552,1521.841,1766.723,1521.841z M1775.689,1481.167c-2.043,0-4.248,0.671-6.457,1.993
					c-3.815,2.283-7.124,6.171-9.32,10.95l0,0c-2.194,4.778-2.989,9.822-2.234,14.203c0.703,4.077,2.67,7.049,5.541,8.367
					c2.869,1.317,6.406,0.876,9.957-1.25c3.815-2.282,7.125-6.171,9.32-10.949c4.401-9.586,2.919-19.711-3.307-22.571
					C1778.105,1481.414,1776.927,1481.167,1775.689,1481.167z M1757.91,1493.19h0.021H1757.91z"/>
				<path style="fill:#BC8271;" d="M1777.218,1497.873c13.859-30.248,24.603-46.656,43.66-53.637
					c25.611-9.381,50.745,7.056,53.343,8.811c1.659,1.121,26.199,15.634,27.994,44.266c1.773,28.276-11.491,56.504-35.263,71.442
					l-5.446,62.354c-1.749,20.018-19.393,34.828-39.411,33.08l-4.534-0.396c-20.018-1.749-34.828-19.393-33.08-39.411l3.638-41.653
					c-12.606-2.172-22.331-6.73-25.796-13.513C1756.117,1557.065,1760.897,1533.493,1777.218,1497.873z"/>
				<path style="fill:#363E44;" d="M1815.589,1514.76c-0.215,0-0.435-0.032-0.651-0.099l-57.597-17.778
					c-1.163-0.359-1.814-1.593-1.456-2.756c0.361-1.163,1.592-1.815,2.756-1.456l57.597,17.778c1.163,0.359,1.814,1.593,1.456,2.756
					C1817.402,1514.151,1816.53,1514.76,1815.589,1514.76z"/>
				<path style="fill:#363E44;" d="M1787.636,1583.896c-0.084,0-0.168-0.004-0.253-0.014c-1.21-0.138-2.078-1.231-1.94-2.44
					l1.737-15.213c0.139-1.21,1.233-2.074,2.44-1.94c1.21,0.138,2.078,1.231,1.94,2.44l-1.737,15.213
					C1789.694,1583.067,1788.741,1583.896,1787.636,1583.896z"/>
				<path style="fill:#363E44;" d="M1816.665,1538.042c-0.596,0-1.19-0.24-1.625-0.714c-0.823-0.897-0.763-2.291,0.133-3.115
					c3.752-3.443,6.076-5.672,7.783-7.31c0.847-0.813,1.544-1.481,2.188-2.079c0.888-0.829,2.285-0.78,3.115,0.112
					c0.83,0.891,0.779,2.285-0.112,3.115c-0.628,0.585-1.311,1.239-2.138,2.033c-1.723,1.652-4.069,3.902-7.854,7.377
					C1817.731,1537.85,1817.196,1538.042,1816.665,1538.042z"/>
				<g>
					<path style="fill:#363E44;" d="M1812.86,1441.032c22.946-18.985,75.556-2.3,93.915,26.967
						c24.827,39.578,5.998,94.618-27.912,110.966c-11.376,5.484-30.127,11.782-48.512,1.202c-10.736-6.178-7.084-22.46-6.127-26.371
						c10.609-0.993,18.897-9.402,19.652-19.496c0.761-10.167-6.319-19.404-15.236-21.727c-5.914-1.541-11.064,0.37-13.167,1.297
						C1800.425,1482.96,1796.509,1454.56,1812.86,1441.032z"/>
					<g>
						<path style="fill:#363E44;" d="M1883.315,1468.338c0,0-42.142-187.814,29.561-189.812
							C1984.578,1276.528,1926.714,1436.956,1883.315,1468.338z"/>
						<path style="fill:#363E44;" d="M1886.415,1453.221c0,0,25.355-107.591-33.304-106.494
							C1794.452,1347.825,1886.415,1453.221,1886.415,1453.221z"/>
						<path style="fill:#363E44;" d="M1882.182,1462.955c0,0,60.629-163.072,110.445-136.001
							c49.816,27.071,31.708,66.102,31.708,66.102s13.284-17.596,29.646,10.435c16.361,28.031-4.305,140.576-152.401,110.146
							L1882.182,1462.955z"/>
					</g>
				</g>
				<path style="fill:#EFBC73;" d="M1809.948,1584.728c-11.818,0-21.432-9.615-21.432-21.432c0-11.818,9.615-21.432,21.432-21.432
					c11.818,0,21.432,9.615,21.432,21.432C1831.38,1575.114,1821.766,1584.728,1809.948,1584.728z M1809.948,1546.271
					c-9.388,0-17.024,7.637-17.024,17.024s7.637,17.024,17.024,17.024c9.388,0,17.024-7.637,17.024-17.024
					S1819.336,1546.271,1809.948,1546.271z"/>
			</g>
		</g>
	</g>
</g>
</svg>
