<?xml version="1.0" encoding="utf-8"?>
<!-- Generator: Adobe Illustrator 27.5.0, SVG Export Plug-In . SVG Version: 6.00 Build 0)  -->
<svg version="1.1" xmlns="http://www.w3.org/2000/svg" xmlns:xlink="http://www.w3.org/1999/xlink" x="0px" y="0px"
	 viewBox="0 0 2500 2500" style="enable-background:new 0 0 2500 2500;" xml:space="preserve">
-
<g id="Illustration">
	<g id="Handling_and_order_processing_1_">
		<circle style="fill:transparent;" cx="1250" cy="1250" r="915"/>
		<g>
			<g>
				<path style="fill:#D3BBA3;" d="M1931.289,1527.833H457.37c-1.219,0-2.205-0.987-2.205-2.205V480.457
					c0-1.218,0.986-2.205,2.205-2.205h1473.92c1.219,0,2.205,0.987,2.205,2.205v1045.172
					C1933.494,1526.846,1932.508,1527.833,1931.289,1527.833z M459.574,1523.424h1469.51V482.662H459.574V1523.424z"/>
				
					<rect x="762.78" y="267.532" transform="matrix(-1.836970e-16 1 -1 -1.836970e-16 2152.5786 -236.0797)" style="fill:#F7F1EB;" width="863.099" height="1381.435"/>
			</g>
			<g>
				<g>
					<g>
						<path style="fill:#E6D0BE;" d="M1254.848,981.41v-20.417l-4.577-3.988v-16.11l-10.709-9.331v16.988l-6.453,5.623
							l-10.297-8.972l9.336-8.135l-16.476-14.356l-35.698,31.104h-10.984l-15.797,13.764c-0.246,16.3-0.503,41.266,0.237,41.266
							c1.098,0,27.46,0,27.46,0v-8.295h20.504v12.123h9.885v13.08l12.998,11.325l36.979-32.221V981.41H1254.848z"/>
					</g>
					<path style="fill:#E6D0BE;" d="M630.588,855.079c0-2.871-2.197-42.11,0-42.11c2.197,0-27.46,0-27.46,0v-22.013h37.346
						l13.73,11.963v-23.448l28.284-24.644h28.284v-17.466h37.346V685.68l-14.28-12.442l-29.657,25.84l-13.181-11.485l29.657-25.84
						l7.14,6.221l16.476-14.356l20.87,18.184l11.533-10.049v-22.013h-53.822l13.181-11.484h-76.888l-21.693-18.902h-29.931
						l-65.218,56.825h26.774l17.918-15.612l18.33,15.971l-19.222,16.749v28.233L563.517,731.2v76.983L630.588,855.079z"/>
					<path style="fill:#E6D0BE;" d="M647.21,855.079h37.893l52.877,46.072h22.085v31l-16.063,13.996v33.748
						c0,0-12.761,8.254-12.761,11.119c0,2.864,0,76.793,0,76.793l14.412,12.557v12.564l-64.383-56.098v-44.387l-19.374-16.88V951.53
						l-28.761-25.06v-47.996L647.21,855.079z"/>
					<path style="fill:#E6D0BE;" d="M807.843,815.156v59.574c0,0,49.426-5.742,49.426,0c0,5.742,29.655,25.839,29.655,25.839v27.992
						c0,0,0,27.274,0,30.146c0,2.871,20.808,18.13,20.808,18.13v27.806h27.794l26.579-23.159v-39.286l17.664-15.391v-36.287
						l26.48-23.073l-12.805-11.157h-19.202l-16.191-14.108v-42.1l24.571,21.409l-14.97,13.043l13.592,11.843l25.537-22.25v-9.69
						h23.477l21.418,18.661v15.073l17.711,15.432l37.481-32.658l11.121,9.69v28.351h20.182l-9.885-8.613v-12.202l10.964,9.554
						l8.394,7.313l21.418-18.661l-18.564-16.175l32.127-27.992L1153,776.398l49.242-42.905l-34.186-29.787l33.042-28.79v18.223
						l29.084,25.341v-23.188l-16.921-14.744l34.312-29.897h-18.786v-12.78h-144.982l-26.36-22.968l-32.127,27.993l8.238,7.177
						l-30.891,26.916l-12.356-10.766l-18.123,15.791l-27.596-24.045l-45.719,39.836l12.357,10.766v9.69l8.443-7.357v-14.894h15.857
						v5.303l-26.061,22.707l-10.409-9.069l-30.206,26.319v8.055l-6.27,5.463h-14.691v6.979l-7.872,6.859l11.762,10.248h13.318
						V767.03l10.847-9.451l9.337,8.135c0,0,4.805-8.972,7.551-6.58c2.746,2.393,11.808,9.092,11.808,10.288
						c0,1.196,1.373,7.417,0,7.417c-1.373,0,5.492-4.785,5.492-4.785v-7.896l-8.513-7.417l3.433-2.991l9.336,8.135v9.929l7.346,6.4
						v-5.682l6.419-5.593l15.378-13.399v-8.045h9.988v9.092c0,0,6.179-0.598,6.865,0c0.686,0.598,7.002,6.101,7.002,6.101v6.101
						h-15.515v-4.785h-10.71l-10.023,8.733v5.383l6.797,5.922h15.583v10.827h-28.833l-8.101-7.058l-11.671,10.169l-10.297-8.972
						v-8.015h-20.458l-9.474,8.255h-20.458l-25.558,22.269v5.366L807.843,815.156z"/>
				</g>
			</g>
			<g>
				
					<rect x="958.091" y="1212.824" transform="matrix(-1 -1.224647e-16 1.224647e-16 -1 2216.5686 2485.8943)" style="fill:#D3BBA3;" width="300.387" height="60.246"/>
				<polygon style="fill:#D3BBA3;" points="964.771,1285.204 964.771,1200.693 911.219,1241.692 				"/>
				<path style="fill:#F7F1EB;" d="M1277.474,1291.137c-40.389,0-80.622-8.844-118.311-26.429
					c-67.828-31.647-119.276-87.815-144.859-158.157c-25.586-70.342-22.246-146.436,9.401-214.265
					c31.647-67.829,87.814-119.275,158.155-144.859c70.339-25.584,146.433-22.245,214.266,9.402
					c67.83,31.648,119.276,87.816,144.859,158.157c25.586,70.34,22.246,146.433-9.401,214.264
					c-31.649,67.831-87.816,119.277-158.157,144.861C1342.172,1285.479,1309.771,1291.137,1277.474,1291.137z M1277.81,734.813
					c-31.793,0-63.675,5.568-94.443,16.759c-69.234,25.182-124.516,75.818-155.666,142.579
					c-31.15,66.762-34.435,141.658-9.254,210.893c25.183,69.235,75.819,124.52,142.581,155.668
					c66.758,31.149,141.653,34.435,210.892,9.254l0.754,2.072l-0.754-2.072c69.234-25.181,124.519-75.818,155.668-142.581
					c31.149-66.763,34.435-141.659,9.254-210.892c-25.183-69.234-75.819-124.518-142.581-155.668
					C1357.168,743.52,1317.559,734.813,1277.81,734.813z M1277.834,1203.21c-78.644,0-152.63-48.587-181.03-126.666
					c-36.268-99.715,15.35-210.346,115.064-246.615c99.71-36.263,210.343,15.349,246.615,115.064
					c36.267,99.716-15.35,210.347-115.064,246.616C1321.781,1199.478,1299.628,1203.21,1277.834,1203.21z M1277.457,822.738
					c-21.299,0-42.936,3.644-64.082,11.336c-97.43,35.436-147.865,143.533-112.428,240.963
					c27.747,76.284,100.048,123.758,176.883,123.764c21.301,0.001,42.936-3.644,64.082-11.336
					c97.43-35.436,147.865-143.533,112.429-240.964C1426.592,870.217,1354.292,822.738,1277.457,822.738z"/>
				<path style="fill:#FFFFFF;" d="M1368.922,1261.726c-67.032,24.381-139.548,21.199-204.187-8.96
					c-64.64-30.159-113.666-83.686-138.047-150.719c-24.381-67.033-21.199-139.548,8.96-204.188
					c30.159-64.64,83.685-113.666,150.717-138.047c67.033-24.382,139.548-21.2,204.188,8.959
					c64.639,30.159,113.665,83.685,138.046,150.718c24.382,67.033,21.2,139.549-8.959,204.188
					C1489.481,1188.318,1435.955,1237.344,1368.922,1261.726z M1208.871,821.689c-104.26,37.922-158.229,153.594-120.307,257.853
					c37.922,104.26,153.594,158.23,257.853,120.308c104.26-37.922,158.229-153.594,120.307-257.854
					C1428.802,837.737,1313.13,783.767,1208.871,821.689z"/>
				<g>
					<path style="fill:#D87355;" d="M1088.563,1079.542c-6.193-17.026-9.919-34.356-11.392-51.602l-66.092,0.415
						c1.675,24.859,6.856,49.63,15.608,73.693c20.133,55.354,57.085,101.483,105.745,132.864l32.577-57.529
						C1130.983,1154.445,1103.631,1120.969,1088.563,1079.542z"/>
					<path style="fill:#ff6900;" d="M1295.29,810.371c75.379,6.755,143.901,55.928,171.434,131.625
						c21.038,57.842,13.781,119.19-14.643,168.832l54.57,37.333c4.71-7.884,9.053-16.047,12.989-24.483
						c30.159-64.64,33.341-137.155,8.959-204.188c-24.381-67.033-73.407-120.559-138.046-150.718
						c-30.292-14.134-62.314-22.342-94.691-24.566L1295.29,810.371z"/>
					<path style="fill:#EFBC73;" d="M1076.99,996.116c5.703-76.554,55.181-146.53,131.881-174.427
						c18.012-6.551,36.364-10.357,54.597-11.638l0.572-66.098c-26.194,1.369-52.326,6.64-77.675,15.86
						c-67.032,24.381-120.559,73.407-150.717,138.047c-14.713,31.533-22.986,64.941-24.791,98.672L1076.99,996.116z"/>
					<path style="fill:#EFBC73;" d="M1434.154,1137.123c-22.237,27.638-52.037,49.742-87.738,62.727
						c-52.096,18.948-107.04,14.953-153.711-6.794l-32.561,57.5c1.525,0.745,3.049,1.491,4.591,2.21
						c64.639,30.159,137.155,33.341,204.187,8.96c48.116-17.501,89.27-47.7,119.821-87.256L1434.154,1137.123z"/>
				</g>
				<polygon style="fill:#EFBC73;" points="1550.504,1286.876 1550.504,1202.365 1604.056,1243.363 				"/>
				<path style="fill:#D3BBA3;" d="M1434.154,1137.123c-22.237,27.638-52.037,49.742-87.737,62.727
					c-10.319,3.753-28.125,10.462-75.192,12.136c0.604,22.169,45.649,40.629,47.285,62.753c17.004-2.669,33.876-6.998,50.412-13.013
					c48.116-17.501,89.27-47.7,119.822-87.256L1434.154,1137.123z"/>
				<polygon style="fill:#EFBC73;" points="1557.183,1274.742 1265.367,1277.671 1257.208,1212.195 1557.183,1214.496 				"/>
				<g>
					<g>
						<g>
							<g>
								<path style="fill:#363E44;" d="M1217.733,1053.588c-1.018,0-1.916-0.704-2.147-1.714l-29.698-129.913l-36.192,0.344
									c-0.009,0-0.015,0-0.021,0c-1.208,0-2.194-0.973-2.205-2.183c-0.011-1.219,0.967-2.214,2.183-2.226l37.969-0.362
									c0.009,0,0.015,0,0.021,0c1.027,0,1.921,0.71,2.149,1.714l29.666,129.777l132.972-11.187l-0.067-83.607l-39.708,0.032
									h-0.002c-1.217,0-2.205-0.986-2.205-2.203c0-1.218,0.986-2.206,2.203-2.207l41.913-0.034h0.002
									c0.583,0,1.143,0.231,1.557,0.645c0.416,0.412,0.648,0.973,0.648,1.558l0.071,87.841c0,1.148-0.876,2.103-2.02,2.199
									l-136.901,11.517C1217.858,1053.586,1217.795,1053.588,1217.733,1053.588z"/>
								<path style="fill:#363E44;" d="M1319.056,1045.064c-1.148,0-2.114-0.888-2.196-2.05l-6.261-88.688l-115.544,0.035l0,0
									c-1.217,0-2.205-0.986-2.205-2.204c0-1.218,0.986-2.206,2.205-2.206l117.598-0.036l0,0c1.158,0,2.119,0.895,2.198,2.05
									l6.406,90.739c0.086,1.214-0.829,2.268-2.043,2.354C1319.161,1045.062,1319.107,1045.064,1319.056,1045.064z"/>
								<path style="fill:#363E44;" d="M1205.985,1113.966c-13.397,0.001-24.302-10.893-24.313-24.292
									c-0.009-13.406,10.888-24.321,24.292-24.332c0.007,0,0.013,0,0.019,0c6.487,0,12.585,2.524,17.178,7.106
									c4.595,4.588,7.129,10.693,7.133,17.186v-0.001c0.011,13.404-10.884,24.32-24.29,24.332
									C1205.998,1113.966,1205.99,1113.966,1205.985,1113.966z M1205.983,1069.752c-0.004,0-0.011,0-0.015,0
									c-10.972,0.009-19.895,8.944-19.886,19.919c0.009,10.968,8.938,19.885,19.904,19.885c0.004,0,0.011,0,0.015,0
									c5.316-0.004,10.311-2.079,14.067-5.841c3.757-3.762,5.822-8.761,5.818-14.076c0,0,0,0,0-0.001
									c-0.004-5.315-2.078-10.311-5.839-14.068C1216.286,1071.818,1211.293,1069.752,1205.983,1069.752z"/>
								<path style="fill:#363E44;" d="M1365.658,1113.836c-6.487,0-12.585-2.524-17.178-7.106
									c-4.595-4.588-7.129-10.693-7.133-17.186c-0.011-13.403,10.884-24.319,24.29-24.331c0.006,0,0.015,0,0.019,0
									c13.397,0,24.303,10.893,24.313,24.292c0.007,6.494-2.517,12.601-7.105,17.197c-4.588,4.596-10.693,7.129-17.186,7.134
									C1365.671,1113.836,1365.665,1113.836,1365.658,1113.836z M1365.656,1069.622c-0.004,0-0.011,0-0.015,0
									c-5.316,0.004-10.311,2.079-14.066,5.841c-3.757,3.762-5.822,8.761-5.818,14.076c0.004,5.316,2.078,10.313,5.839,14.069
									c3.759,3.752,8.753,5.818,14.062,5.818c0.004,0,0.011,0,0.015,0c5.316-0.004,10.314-2.079,14.069-5.84
									c3.757-3.762,5.822-8.761,5.818-14.077C1385.551,1078.539,1376.622,1069.622,1365.656,1069.622z"/>
								<path style="fill:#363E44;" d="M1228.09,1091.686c-1.217,0-2.205-0.986-2.205-2.203c0-1.218,0.986-2.206,2.203-2.207
									l115.288-0.094h0.002c1.217,0,2.205,0.986,2.205,2.203c0,1.218-0.986,2.206-2.203,2.207l-115.288,0.094H1228.09z"/>
								<path style="fill:#363E44;" d="M1212.456,1070.718c-0.215,0-0.433-0.032-0.65-0.099c-1.163-0.358-1.815-1.592-1.458-2.756
									l5.28-17.128c0.357-1.164,1.583-1.82,2.758-1.458c1.163,0.359,1.815,1.592,1.458,2.756l-5.28,17.128
									C1214.271,1070.108,1213.399,1070.718,1212.456,1070.718z"/>
							</g>
							<path style="fill:#363E44;" d="M1285.731,1047.868c-1.083,0-2.026-0.796-2.181-1.898l-13.089-93.018
								c-0.17-1.206,0.67-2.32,1.875-2.49c1.232-0.185,2.321,0.671,2.491,1.876l13.089,93.018c0.17,1.206-0.67,2.32-1.875,2.49
								C1285.936,1047.861,1285.833,1047.868,1285.731,1047.868z"/>
							<path style="fill:#363E44;" d="M1250.045,1050.87c-1.044,0-1.972-0.744-2.166-1.808l-17.662-96.545
								c-0.22-1.198,0.573-2.347,1.772-2.567c1.191-0.212,2.347,0.575,2.564,1.772l17.662,96.545
								c0.22,1.198-0.573,2.347-1.772,2.567C1250.31,1050.858,1250.177,1050.87,1250.045,1050.87z"/>
							<path style="fill:#363E44;" d="M1206.995,1006.61c-1.169,0-2.145-0.92-2.201-2.101c-0.056-1.217,0.883-2.249,2.099-2.306
								l147.604-6.916c1.251-0.043,2.25,0.884,2.306,2.099c0.056,1.217-0.883,2.249-2.099,2.306l-147.604,6.916
								C1207.066,1006.609,1207.03,1006.61,1206.995,1006.61z"/>
						</g>
					</g>
				</g>
			</g>
			<g>
				<path style="fill:#ff6900;" d="M949.083,745.807c-3.908,0-7.797-0.032-11.67-0.097c-1.219-0.021-2.188-1.024-2.168-2.242
					c0.022-1.218,0.99-2.194,2.241-2.168c3.848,0.065,7.713,0.097,11.597,0.097c3.402-0.004,6.903-0.023,10.38-0.072
					c0.009,0,0.019,0,0.03,0c1.204,0,2.188,0.967,2.205,2.174c0.017,1.218-0.956,2.219-2.172,2.236
					C956.031,745.785,952.599,745.801,949.083,745.807z M981.522,745.108c-1.173,0-2.149-0.926-2.201-2.11
					c-0.052-1.216,0.891-2.246,2.108-2.297c7.213-0.309,14.598-0.728,21.947-1.242c1.247-0.075,2.269,0.83,2.353,2.045
					c0.086,1.214-0.829,2.268-2.043,2.353c-7.392,0.518-14.816,0.938-22.068,1.249C981.587,745.106,981.555,745.108,981.522,745.108
					z M915.417,744.989c-0.037,0-0.073-0.001-0.11-0.002c-7.39-0.363-14.816-0.854-22.072-1.459
					c-1.214-0.101-2.114-1.167-2.013-2.38c0.099-1.212,1.128-2.132,2.379-2.014c7.206,0.601,14.581,1.088,21.921,1.448
					c1.217,0.06,2.153,1.095,2.095,2.31C917.559,744.072,916.583,744.989,915.417,744.989z M1025.492,742.033
					c-1.124,0-2.082-0.854-2.192-1.994c-0.116-1.212,0.771-2.29,1.983-2.406c7.185-0.689,14.54-1.487,21.859-2.37
					c1.208-0.145,2.308,0.716,2.454,1.925c0.144,1.209-0.717,2.307-1.925,2.453c-7.357,0.887-14.747,1.689-21.966,2.382
					C1025.634,742.03,1025.563,742.033,1025.492,742.033z M871.708,739.904c-0.159,0-0.321-0.017-0.482-0.053
					c-7.129-1.589-14.366-3.375-21.503-5.31c-1.176-0.319-1.869-1.53-1.55-2.705c0.317-1.177,1.527-1.866,2.704-1.551
					c7.073,1.917,14.243,3.688,21.31,5.262c1.188,0.265,1.936,1.443,1.671,2.631C873.628,739.206,872.718,739.904,871.708,739.904z
					 M1069.254,736.764c-1.079,0-2.022-0.792-2.181-1.891c-0.172-1.206,0.663-2.323,1.869-2.497
					c5.82-0.838,11.724-1.742,17.548-2.686c1.227-0.196,2.332,0.623,2.53,1.824c0.194,1.203-0.622,2.335-1.824,2.53
					c-5.852,0.948-11.782,1.856-17.626,2.697C1069.463,736.757,1069.358,736.764,1069.254,736.764z M829.146,728.383
					c-0.222,0-0.446-0.034-0.67-0.106c-6.94-2.21-13.991-4.617-20.954-7.155c-1.143-0.417-1.733-1.683-1.316-2.826
					c0.416-1.145,1.684-1.733,2.827-1.317c6.905,2.517,13.898,4.904,20.782,7.097c1.161,0.369,1.8,1.609,1.432,2.769
					C830.949,727.783,830.081,728.383,829.146,728.383z M787.707,713.301c-0.28,0-0.562-0.054-0.835-0.165
					c-6.718-2.749-13.558-5.695-20.332-8.757c-1.109-0.502-1.602-1.808-1.1-2.917c0.502-1.108,1.807-1.604,2.918-1.1
					c6.724,3.04,13.517,5.964,20.186,8.692c1.126,0.462,1.667,1.749,1.206,2.876C789.399,712.783,788.575,713.301,787.707,713.301z
					 M747.504,695.143c-0.327,0-0.661-0.073-0.973-0.228c-6.505-3.211-13.128-6.615-19.684-10.114
					c-1.074-0.574-1.481-1.91-0.906-2.983c0.573-1.076,1.912-1.48,2.982-0.908c6.515,3.479,13.097,6.86,19.559,10.052
					c1.092,0.538,1.542,1.861,1.001,2.953C749.099,694.692,748.318,695.143,747.504,695.143z M708.579,674.381
					c-0.37,0-0.747-0.094-1.094-0.292c-6.294-3.602-12.701-7.388-19.045-11.253c-1.04-0.634-1.369-1.991-0.734-3.031
					c0.633-1.041,1.99-1.367,3.03-0.735c6.309,3.843,12.682,7.609,18.941,11.193c1.057,0.605,1.423,1.952,0.818,3.008
					C710.088,673.983,709.343,674.381,708.579,674.381z M670.893,651.438c-0.409,0-0.822-0.113-1.193-0.352
					c-6.074-3.916-12.279-8.021-18.444-12.201c-1.008-0.684-1.27-2.054-0.586-3.063c0.685-1.007,2.056-1.269,3.062-0.587
					c6.134,4.161,12.312,8.248,18.358,12.145c1.023,0.659,1.318,2.024,0.659,3.048C672.327,651.082,671.616,651.438,670.893,651.438
					z"/>
				<path style="fill:#D87355;" d="M636.316,461.085c-34.531,0-62.524,27.993-62.524,62.524s62.524,110.732,62.524,110.732
					s62.524-76.201,62.524-110.732S670.847,461.085,636.316,461.085z M636.316,566.39c-23.628,0-42.781-19.154-42.781-42.781
					c0-23.627,19.154-42.781,42.781-42.781c23.628,0,42.781,19.154,42.781,42.781C679.098,547.236,659.944,566.39,636.316,566.39z"
					/>
				<path style="fill:#D87355;" d="M886.061,645.011c-19.31,0-34.964,15.654-34.964,34.964c0,19.31,34.964,61.922,34.964,61.922
					s34.964-42.612,34.964-61.922C921.025,660.664,905.371,645.011,886.061,645.011z M886.061,703.898
					c-13.213,0-23.923-10.711-23.923-23.924c0-13.213,10.711-23.923,23.923-23.923c13.213,0,23.924,10.711,23.924,23.923
					C909.985,693.187,899.274,703.898,886.061,703.898z"/>
				<path style="fill:#D87355;" d="M1114.26,586.695c-28.442,0-51.5,23.057-51.5,51.5c0,28.443,51.5,91.208,51.5,91.208
					s51.5-62.766,51.5-91.208C1165.76,609.752,1142.703,586.695,1114.26,586.695z M1114.26,673.432
					c-19.462,0-35.238-15.777-35.238-35.238s15.776-35.238,35.238-35.238c19.462,0,35.238,15.777,35.238,35.238
					S1133.722,673.432,1114.26,673.432z"/>
			</g>
		</g>
		<g>
			<g>
				<path style="fill:#FFFFFF;" d="M1740.686,1865.513l-20.461-7.15c1.653-10.615,2.429-21.227,2.381-31.752l21.28-4.036
					l-13.667-72.068l-21.328,4.045c-3.849-9.9-8.47-19.485-13.818-28.663l16.448-14.167l-47.87-55.579l-16.411,14.136
					c-8.204-6.594-16.99-12.597-26.324-17.914l7.15-20.461l-69.246-24.197l-7.15,20.461c-10.614-1.653-21.227-2.43-31.752-2.38
					l-4.035-21.28l-72.068,13.667l4.045,21.328c-9.901,3.849-19.485,8.469-28.663,13.818l-14.167-16.448l-55.579,47.87
					l14.135,16.411c-6.594,8.204-12.596,16.99-17.914,26.324l-20.461-7.149h-0.001l-24.197,69.245l20.461,7.15
					c-1.653,10.615-2.429,21.227-2.38,31.752l-21.28,4.036l13.667,72.067l21.328-4.045c3.849,9.901,8.469,19.486,13.818,28.663
					l-16.448,14.167l47.87,55.579h0.001l16.411-14.135c8.204,6.594,16.99,12.596,26.324,17.914l-7.15,20.461l69.246,24.197
					l7.15-20.461c10.614,1.653,21.227,2.43,31.752,2.381l4.036,21.28h0l72.067-13.667l-4.044-21.328
					c9.9-3.849,19.485-8.469,28.663-13.818l14.167,16.449l55.579-47.87l-14.135-16.411c6.594-8.204,12.596-16.991,17.914-26.324
					l20.461,7.15L1740.686,1865.513z M1637.48,1872.633c-23.57,61.116-91.499,93.865-153.994,74.241
					c-69.01-21.67-105.295-96.935-79.268-164.422c23.57-61.116,91.499-93.865,153.994-74.241
					C1627.223,1729.882,1663.508,1805.146,1637.48,1872.633z"/>
			</g>
			<path style="fill:#F2E6DC;" d="M1520.878,1990.231c-17.916,0-36.039-2.964-53.689-9.131
				c-41.015-14.332-73.997-43.78-92.865-82.918c-18.866-39.138-21.364-83.281-7.032-124.299
				c12.93-36.995,38.759-68.072,72.735-87.505c33.636-19.241,73.019-25.887,110.889-18.716c1.197,0.226,1.983,1.38,1.757,2.576
				c-0.228,1.196-1.391,1.984-2.575,1.756c-76.221-14.426-153.013,30.001-178.642,103.344
				c-13.946,39.904-11.515,82.851,6.841,120.928c18.358,38.077,50.444,66.726,90.348,80.671
				c68.059,23.783,143.587-1.385,183.659-61.215c0.68-1.011,2.048-1.28,3.06-0.605c1.012,0.678,1.283,2.048,0.605,3.06
				C1625.17,1964.159,1573.986,1990.231,1520.878,1990.231z"/>
		</g>
		<g>
			<g>
				<path style="fill:#F7F1EB;" d="M2033.635,1101.002c-0.99,0.001-1.89-0.672-2.138-1.676l-1.449-5.863
					c-2.726,0.091-5.465,0.038-8.182-0.161l-1.677,5.802c-0.164,0.562-0.543,1.036-1.055,1.319c-0.51,0.281-1.111,0.35-1.677,0.186
					l-25.48-7.371c-1.169-0.338-1.843-1.56-1.505-2.73l1.673-5.784c-2.412-1.283-4.759-2.702-7.011-4.239l-4.343,4.174
					c-0.424,0.407-0.958,0.637-1.572,0.616c-0.586-0.012-1.141-0.255-1.546-0.677l-18.381-19.123
					c-0.844-0.877-0.816-2.273,0.06-3.117l4.343-4.176c-1.445-2.308-2.769-4.711-3.958-7.173l-5.848,1.443
					c-0.571,0.14-1.169,0.049-1.667-0.253c-0.502-0.302-0.861-0.791-1.001-1.359l-6.356-25.753
					c-0.293-1.182,0.431-2.377,1.613-2.669l5.863-1.448c-0.095-2.725-0.041-5.465,0.161-8.183l-5.803-1.678
					c-1.169-0.338-1.843-1.561-1.505-2.73l7.37-25.481c0.164-0.562,0.543-1.036,1.055-1.319c0.51-0.281,1.113-0.349,1.677-0.186
					l5.783,1.673c1.283-2.41,2.702-4.758,4.24-7.012l-4.175-4.343c-0.405-0.421-0.627-0.986-0.616-1.571
					c0.013-0.585,0.256-1.141,0.676-1.547l19.124-18.381c0.422-0.407,1.085-0.62,1.572-0.616c0.586,0.012,1.141,0.255,1.546,0.677
					l4.175,4.344c2.315-1.448,4.715-2.773,7.172-3.96l-1.44-5.846c-0.293-1.182,0.431-2.376,1.613-2.668l25.752-6.357
					c1.182-0.293,2.377,0.431,2.668,1.612l1.449,5.863c2.724-0.094,5.46-0.039,8.182,0.162l1.677-5.802
					c0.34-1.17,1.548-1.843,2.732-1.505l25.48,7.37c1.169,0.338,1.843,1.56,1.505,2.73l-1.673,5.784
					c2.414,1.284,4.761,2.703,7.011,4.239l4.343-4.174c0.422-0.406,1.016-0.6,1.572-0.616c0.586,0.012,1.141,0.255,1.546,0.677
					l18.381,19.124c0.844,0.877,0.816,2.274-0.06,3.117l-4.343,4.175c1.443,2.308,2.769,4.71,3.958,7.173l5.848-1.443
					c0.566-0.142,1.165-0.051,1.667,0.253c0.502,0.303,0.861,0.791,1.001,1.359l6.356,25.753c0.293,1.182-0.428,2.377-1.611,2.669
					l-5.863,1.448c0.093,2.728,0.037,5.467-0.164,8.183l5.803,1.678c1.169,0.338,1.843,1.561,1.505,2.73l-7.37,25.481
					c-0.164,0.562-0.542,1.036-1.055,1.319c-0.508,0.281-1.109,0.35-1.677,0.186l-5.783-1.673c-1.283,2.413-2.702,4.76-4.24,7.012
					l4.175,4.344c0.405,0.421,0.627,0.986,0.616,1.571c-0.013,0.586-0.256,1.141-0.676,1.547l-19.124,18.381
					c-0.422,0.406-1.029,0.616-1.572,0.615c-0.586-0.012-1.141-0.255-1.546-0.677l-4.175-4.343c-2.308,1.445-4.709,2.77-7.172,3.958
					l1.443,5.845c0.14,0.567,0.049,1.168-0.252,1.669c-0.304,0.501-0.792,0.86-1.361,1l-25.754,6.357
					C2033.988,1100.981,2033.809,1101.002,2033.635,1101.002z M2031.757,1088.971c1.008,0,1.895,0.687,2.138,1.676l1.354,5.481
					l21.471-5.301l-1.348-5.464c-0.254-1.031,0.263-2.098,1.231-2.536c3.396-1.536,6.683-3.351,9.773-5.394
					c0.887-0.588,2.069-0.457,2.805,0.311l3.904,4.061l15.944-15.325l-3.904-4.062c-0.739-0.767-0.823-1.952-0.2-2.815
					c2.166-3.011,4.11-6.226,5.779-9.555c0.476-0.948,1.554-1.426,2.584-1.129l5.404,1.563l6.145-21.245l-5.424-1.568
					c-1.021-0.295-1.684-1.277-1.581-2.334c0.364-3.69,0.437-7.445,0.222-11.16c-0.063-1.06,0.642-2.014,1.671-2.268l5.48-1.353
					l-5.299-21.472l-5.465,1.349c-1.031,0.254-2.099-0.264-2.536-1.231c-1.537-3.399-3.353-6.688-5.394-9.775
					c-0.588-0.887-0.457-2.067,0.31-2.804l4.061-3.904l-15.326-15.945l-4.059,3.903c-0.769,0.741-1.951,0.821-2.816,0.201
					c-3.008-2.164-6.223-4.108-9.553-5.777c-0.949-0.476-1.425-1.562-1.13-2.584l1.563-5.406l-21.245-6.145l-1.568,5.423
					c-0.297,1.022-1.281,1.696-2.334,1.581c-3.701-0.363-7.452-0.436-11.16-0.221c-0.997,0.077-2.015-0.637-2.269-1.672
					l-1.354-5.481l-21.471,5.301l1.348,5.464c0.254,1.031-0.263,2.098-1.232,2.536c-3.385,1.531-6.673,3.346-9.775,5.395
					c-0.885,0.587-2.065,0.454-2.803-0.312l-3.904-4.061l-15.944,15.326l3.904,4.061c0.739,0.766,0.823,1.952,0.2,2.815
					c-2.168,3.014-4.113,6.229-5.775,9.554c-0.476,0.95-1.557,1.432-2.586,1.13l-5.407-1.564l-6.145,21.246l5.424,1.569
					c1.021,0.295,1.684,1.277,1.58,2.334c-0.364,3.695-0.437,7.449-0.22,11.158c0.062,1.061-0.64,2.016-1.673,2.271l-5.48,1.353
					l5.299,21.472l5.465-1.349c1.023-0.263,2.097,0.264,2.536,1.232c1.537,3.396,3.352,6.684,5.394,9.774
					c0.588,0.887,0.457,2.067-0.31,2.804l-4.061,3.905l15.326,15.944l4.059-3.903c0.771-0.739,1.953-0.82,2.816-0.201
					c3.014,2.167,6.227,4.111,9.553,5.777c0.95,0.476,1.425,1.562,1.13,2.584l-1.563,5.407l21.245,6.146l1.568-5.424
					c0.295-1.022,1.337-1.692,2.334-1.581c3.697,0.365,7.45,0.437,11.16,0.221
					C2031.669,1088.972,2031.712,1088.971,2031.757,1088.971z M2027.477,1067.223c-0.334,0-0.667-0.003-1.006-0.01
					c-13.64-0.271-26.193-6.01-35.346-16.161c-17.197-19.074-16.618-48.412,1.32-66.792c9.549-9.783,22.309-14.984,35.966-14.752
					c13.64,0.271,26.193,6.01,35.346,16.161c17.197,19.074,16.618,48.412-1.32,66.793
					C2053.123,1062.004,2040.74,1067.222,2027.477,1067.223z M2027.41,973.908c-12.07,0-23.334,4.749-31.808,13.432
					c-16.319,16.719-16.844,43.408-1.199,60.759c8.326,9.236,19.746,14.458,32.157,14.704c12.419,0.253,24.031-4.518,32.721-13.422
					c16.319-16.72,16.846-43.409,1.199-60.761l0,0c-8.326-9.236-19.746-14.458-32.157-14.704
					C2028.019,973.911,2027.713,973.908,2027.41,973.908z"/>
			</g>
		</g>
		<g>
			<g>
				<rect x="482.723" y="1005.268" style="fill:#EFBC73;" width="326.29" height="162.661"/>
				<g>
					<path style="fill:#D87355;" d="M798.871,1018.446H492.864c-1.219,0-2.205-0.987-2.205-2.205s0.986-2.205,2.205-2.205h306.007
						c1.219,0,2.205,0.987,2.205,2.205S800.09,1018.446,798.871,1018.446z"/>
					<path style="fill:#D87355;" d="M798.871,1159.16H492.864c-1.219,0-2.205-0.987-2.205-2.205c0-1.218,0.986-2.205,2.205-2.205
						h306.007c1.219,0,2.205,0.987,2.205,2.205C801.076,1158.173,800.09,1159.16,798.871,1159.16z"/>
				</g>
				<path style="fill:#D87355;" d="M492.864,1154.387c-1.219,0-2.205-0.987-2.205-2.205v-132.69c0-1.218,0.986-2.205,2.205-2.205
					s2.205,0.987,2.205,2.205v132.69C495.069,1153.4,494.083,1154.387,492.864,1154.387z"/>
				<path style="fill:#D87355;" d="M514.723,1154.387c-1.219,0-2.205-0.987-2.205-2.205v-132.69c0-1.218,0.986-2.205,2.205-2.205
					s2.205,0.987,2.205,2.205v132.69C516.928,1153.4,515.942,1154.387,514.723,1154.387z"/>
				<path style="fill:#D87355;" d="M536.58,1154.387c-1.219,0-2.205-0.987-2.205-2.205v-132.69c0-1.218,0.986-2.205,2.205-2.205
					c1.219,0,2.205,0.987,2.205,2.205v132.69C538.784,1153.4,537.798,1154.387,536.58,1154.387z"/>
				<path style="fill:#D87355;" d="M558.436,1154.387c-1.219,0-2.205-0.987-2.205-2.205v-132.69c0-1.218,0.986-2.205,2.205-2.205
					c1.219,0,2.205,0.987,2.205,2.205v132.69C560.641,1153.4,559.655,1154.387,558.436,1154.387z"/>
				<path style="fill:#D87355;" d="M580.295,1154.387c-1.219,0-2.205-0.987-2.205-2.205v-132.69c0-1.218,0.986-2.205,2.205-2.205
					c1.219,0,2.205,0.987,2.205,2.205v132.69C582.5,1153.4,581.513,1154.387,580.295,1154.387z"/>
				<path style="fill:#D87355;" d="M602.154,1154.387c-1.219,0-2.205-0.987-2.205-2.205v-132.69c0-1.218,0.986-2.205,2.205-2.205
					s2.205,0.987,2.205,2.205v132.69C604.358,1153.4,603.372,1154.387,602.154,1154.387z"/>
				<path style="fill:#D87355;" d="M624.01,1154.387c-1.219,0-2.205-0.987-2.205-2.205v-132.69c0-1.218,0.986-2.205,2.205-2.205
					c1.219,0,2.205,0.987,2.205,2.205v132.69C626.215,1153.4,625.229,1154.387,624.01,1154.387z"/>
				<path style="fill:#D87355;" d="M645.869,1154.387c-1.219,0-2.205-0.987-2.205-2.205v-132.69c0-1.218,0.986-2.205,2.205-2.205
					c1.219,0,2.205,0.987,2.205,2.205v132.69C648.074,1153.4,647.087,1154.387,645.869,1154.387z"/>
				<path style="fill:#D87355;" d="M667.725,1154.387c-1.219,0-2.205-0.987-2.205-2.205v-132.69c0-1.218,0.986-2.205,2.205-2.205
					s2.205,0.987,2.205,2.205v132.69C669.93,1153.4,668.944,1154.387,667.725,1154.387z"/>
				<path style="fill:#D87355;" d="M689.582,1154.387c-1.219,0-2.205-0.987-2.205-2.205v-132.69c0-1.218,0.986-2.205,2.205-2.205
					s2.205,0.987,2.205,2.205v132.69C691.787,1153.4,690.801,1154.387,689.582,1154.387z"/>
				<path style="fill:#D87355;" d="M711.441,1154.387c-1.219,0-2.205-0.987-2.205-2.205v-132.69c0-1.218,0.986-2.205,2.205-2.205
					s2.205,0.987,2.205,2.205v132.69C713.645,1153.4,712.659,1154.387,711.441,1154.387z"/>
				<path style="fill:#D87355;" d="M733.297,1154.387c-1.219,0-2.205-0.987-2.205-2.205v-132.69c0-1.218,0.986-2.205,2.205-2.205
					c1.219,0,2.205,0.987,2.205,2.205v132.69C735.502,1153.4,734.516,1154.387,733.297,1154.387z"/>
				<path style="fill:#D87355;" d="M755.156,1154.387c-1.219,0-2.205-0.987-2.205-2.205v-132.69c0-1.218,0.986-2.205,2.205-2.205
					s2.205,0.987,2.205,2.205v132.69C757.361,1153.4,756.375,1154.387,755.156,1154.387z"/>
				<path style="fill:#D87355;" d="M777.012,1154.387c-1.219,0-2.205-0.987-2.205-2.205v-132.69c0-1.218,0.986-2.205,2.205-2.205
					c1.219,0,2.205,0.987,2.205,2.205v132.69C779.217,1153.4,778.231,1154.387,777.012,1154.387z"/>
				<path style="fill:#D87355;" d="M798.871,1154.387c-1.219,0-2.205-0.987-2.205-2.205v-132.69c0-1.218,0.986-2.205,2.205-2.205
					c1.219,0,2.205,0.987,2.205,2.205v132.69C801.076,1153.4,800.09,1154.387,798.871,1154.387z"/>
			</g>
			<g>
				<g>
					<g>
						
							<ellipse transform="matrix(0.3851 -0.9229 0.9229 0.3851 -776.7958 1228.751)" style="fill:#363E44;" cx="533.689" cy="1197.303" rx="20.599" ry="20.599"/>
						<path style="fill:#EFBC73;" d="M533.688,1210.39c-7.215,0-13.087-5.87-13.087-13.087c0-7.216,5.872-13.087,13.087-13.087
							c7.217,0,13.089,5.871,13.089,13.087C546.777,1204.52,540.905,1210.39,533.688,1210.39z M533.688,1188.626
							c-4.784,0-8.677,3.893-8.677,8.677s3.893,8.677,8.677,8.677c4.786,0,8.679-3.893,8.679-8.677
							S538.474,1188.626,533.688,1188.626z"/>
					</g>
					<g>
						
							<ellipse transform="matrix(0.3851 -0.9229 0.9229 0.3851 -748.3564 1271.4343)" style="fill:#363E44;" cx="579.939" cy="1197.303" rx="20.599" ry="20.599"/>
						<path style="fill:#EFBC73;" d="M579.94,1210.39c-7.215,0-13.087-5.87-13.087-13.087c0-7.216,5.872-13.087,13.087-13.087
							s13.087,5.871,13.087,13.087C593.026,1204.52,587.155,1210.39,579.94,1210.39z M579.94,1188.626
							c-4.784,0-8.677,3.893-8.677,8.677s3.893,8.677,8.677,8.677s8.677-3.893,8.677-8.677S584.724,1188.626,579.94,1188.626z"/>
					</g>
					<g>
						
							<ellipse transform="matrix(0.2913 -0.9566 0.9566 0.2913 -701.6041 1447.5283)" style="fill:#363E44;" cx="626.19" cy="1197.303" rx="20.599" ry="20.599"/>
						<path style="fill:#EFBC73;" d="M626.189,1210.39c-7.215,0-13.087-5.87-13.087-13.087c0-7.216,5.872-13.087,13.087-13.087
							c7.215,0,13.087,5.871,13.087,13.087C639.276,1204.52,633.404,1210.39,626.189,1210.39z M626.189,1188.626
							c-4.784,0-8.677,3.893-8.677,8.677s3.893,8.677,8.677,8.677s8.677-3.893,8.677-8.677S630.973,1188.626,626.189,1188.626z"/>
					</g>
					<g>
						
							<ellipse transform="matrix(0.5293 -0.8484 0.8484 0.5293 -657.5662 1209.3735)" style="fill:#363E44;" cx="761.137" cy="1197.303" rx="20.599" ry="20.599"/>
						<path style="fill:#EFBC73;" d="M761.137,1210.39c-7.215,0-13.087-5.87-13.087-13.087c0-7.216,5.872-13.087,13.087-13.087
							c7.215,0,13.087,5.871,13.087,13.087C774.224,1204.52,768.352,1210.39,761.137,1210.39z M761.137,1188.626
							c-4.784,0-8.677,3.893-8.677,8.677s3.893,8.677,8.677,8.677c4.784,0,8.677-3.893,8.677-8.677
							S765.922,1188.626,761.137,1188.626z"/>
					</g>
					<g>
						
							<ellipse transform="matrix(0.8528 -0.5222 0.5222 0.8528 -497.3792 629.8502)" style="fill:#363E44;" cx="868.699" cy="1197.303" rx="20.599" ry="20.599"/>
						<path style="fill:#EFBC73;" d="M868.7,1210.39c-7.215,0-13.087-5.87-13.087-13.087c0-7.216,5.872-13.087,13.087-13.087
							c7.215,0,13.087,5.871,13.087,13.087C881.787,1204.52,875.915,1210.39,868.7,1210.39z M868.7,1188.626
							c-4.784,0-8.677,3.893-8.677,8.677s3.893,8.677,8.677,8.677c4.784,0,8.677-3.893,8.677-8.677S873.484,1188.626,868.7,1188.626
							z"/>
					</g>
					<rect x="654.726" y="1180.591" style="fill:#363E44;" width="80.154" height="16.712"/>
				</g>
				<path style="fill:#D87355;" d="M815.207,1176.328H505.835c-1.219,0-2.205-0.987-2.205-2.205c0-1.218,0.986-2.205,2.205-2.205
					h307.168v-67.585c0-1.218,0.986-2.205,2.205-2.205c1.219,0,2.205,0.987,2.205,2.205v69.79
					C817.412,1175.341,816.426,1176.328,815.207,1176.328z"/>
				<g>
					<polygon style="fill:#363E44;" points="890.783,1115.994 890.783,1074.967 821.598,1057.865 821.598,1174.124 
						884.751,1174.124 890.783,1174.124 926.282,1174.124 926.282,1124.77 					"/>
					<path style="fill:#363E44;" d="M890.785,1070.425c-0.177,0-0.353-0.02-0.532-0.065l-69.185-17.101
						c-1.182-0.292-1.903-1.487-1.61-2.669c0.293-1.184,1.484-1.906,2.67-1.612l69.185,17.101c1.182,0.292,1.903,1.487,1.611,2.669
						C892.675,1069.753,891.775,1070.425,890.785,1070.425z"/>
					<path style="fill:#E6D0BE;" d="M919.546,1147.457c-1.219,0-2.205-0.987-2.205-2.205v-15.547c0-1.218,0.986-2.205,2.205-2.205
						c1.219,0,2.205,0.987,2.205,2.205v15.547C921.751,1146.47,920.765,1147.457,919.546,1147.457z"/>
					<rect x="848.101" y="1085.677" style="fill:#EFBC73;" width="39.487" height="30.317"/>
				</g>
			</g>
		</g>
		<g>
			<g>
				<rect x="1523.645" y="1529.514" style="fill:#EFBC73;" width="571.457" height="423.751"/>
				<path style="fill:#E0AA63;" d="M1665.044,1930.864c-1.219,0-2.205-0.987-2.205-2.205v-374.54c0-1.218,0.986-2.205,2.205-2.205
					c1.219,0,2.205,0.987,2.205,2.205v374.54C1667.249,1929.877,1666.263,1930.864,1665.044,1930.864z"/>
				<path style="fill:#E0AA63;" d="M1920.209,1930.864c-1.219,0-2.205-0.987-2.205-2.205v-249.175c0-1.218,0.986-2.205,2.205-2.205
					s2.205,0.987,2.205,2.205v249.175C1922.414,1929.877,1921.428,1930.864,1920.209,1930.864z"/>
				<g>
					<path style="fill:#F7F1EB;" d="M1974.363,1666.637c-0.575,0-1.139-0.224-1.561-0.647l-27.765-27.807l-23.034,23.071
						c-0.827,0.829-2.295,0.829-3.122,0l-23.812-23.847l-27.455,27.499c-0.631,0.63-1.585,0.821-2.403,0.479
						c-0.825-0.34-1.363-1.144-1.363-2.037v-128.219c0-1.218,0.986-2.205,2.205-2.205c1.219,0,2.205,0.987,2.205,2.205v122.89
						l25.25-25.29c0.827-0.829,2.295-0.829,3.122,0l23.812,23.847l23.034-23.072c0.827-0.829,2.295-0.829,3.122,0l25.56,25.599
						v-123.974c0-1.218,0.986-2.205,2.205-2.205s2.205,0.987,2.205,2.205v129.303c0,0.892-0.538,1.697-1.361,2.037
						C1974.933,1666.582,1974.647,1666.637,1974.363,1666.637z"/>
				</g>
			</g>
			<g>
				<rect x="1679.166" y="1255.613" style="fill:#E0AA63;" width="369.211" height="273.78"/>
				<path style="fill:#EFBC73;" d="M1770.522,1515.702c-1.219,0-2.205-0.987-2.205-2.205V1271.51c0-1.218,0.986-2.205,2.205-2.205
					c1.219,0,2.205,0.987,2.205,2.205v241.986C1772.727,1514.714,1771.741,1515.702,1770.522,1515.702z"/>
				<path style="fill:#EFBC73;" d="M1935.38,1515.702c-1.219,0-2.205-0.987-2.205-2.205v-160.99c0-1.218,0.986-2.205,2.205-2.205
					s2.205,0.987,2.205,2.205v160.99C1937.585,1514.714,1936.599,1515.702,1935.38,1515.702z"/>
				<g>
					<path style="fill:#F7F1EB;" d="M1970.369,1344.987c-0.575,0-1.139-0.224-1.561-0.647l-17.385-17.414l-14.331,14.353
						c-0.827,0.829-2.295,0.829-3.122,0l-14.831-14.854l-17.186,17.213c-0.631,0.632-1.578,0.821-2.405,0.479
						c-0.823-0.34-1.361-1.144-1.361-2.037v-82.84c0-1.218,0.986-2.205,2.205-2.205c1.219,0,2.205,0.987,2.205,2.205v77.511
						l14.981-15.004c0.827-0.829,2.295-0.829,3.122,0l14.831,14.853l14.331-14.353c0.413-0.415,0.975-0.647,1.561-0.647l0,0
						c0.586,0,1.148,0.233,1.561,0.647l15.18,15.204v-78.212c0-1.218,0.986-2.205,2.205-2.205c1.219,0,2.205,0.987,2.205,2.205
						v83.541c0,0.893-0.538,1.697-1.363,2.037C1970.939,1344.932,1970.653,1344.987,1970.369,1344.987z"/>
				</g>
				<path style="fill:#D87355;" d="M1749.346,1208.833c-44.611,0-80.776,36.219-80.776,80.897
					c0,44.678,80.776,143.272,80.776,143.272s80.777-98.594,80.777-143.272C1830.122,1245.052,1793.957,1208.833,1749.346,1208.833z
					 M1749.346,1345.083c-30.525,0-55.27-24.782-55.27-55.353c0-30.571,24.745-55.353,55.27-55.353
					c30.526,0,55.271,24.782,55.271,55.353C1804.616,1320.301,1779.871,1345.083,1749.346,1345.083z"/>
			</g>
		</g>
		<g>
			<g>
				<g>
					<g>
						<g>
							<path style="fill:#D3BBA3;" d="M1604.192,687.815h27.377c2.451,13.27,5.948,26.174,10.392,38.634l-23.692,13.602l0,0
								l46.325,79.786l0,0l23.746-13.633c8.714,10.144,18.218,19.594,28.42,28.259l-13.71,23.613l80.238,46.065l0,0l13.679-23.559
								c12.53,4.419,25.508,7.896,38.853,10.333v27.222h92.651l0,0v-27.222c13.345-2.438,26.323-5.914,38.853-10.333l13.678,23.559
								h0l80.238-46.065l-13.709-23.613c10.201-8.665,19.705-18.115,28.42-28.259l23.746,13.633l0,0l46.325-79.786l0,0
								l-23.692-13.602c4.444-12.46,7.94-25.364,10.392-38.634h27.377v-92.129l0,0h-27.376c-2.451-13.27-5.948-26.174-10.392-38.634
								l23.692-13.602l0,0l-46.325-79.786l0,0l-23.746,13.633c-8.714-10.144-18.218-19.594-28.42-28.259l13.709-23.613
								l-80.238-46.065h0l-13.678,23.559c-12.53-4.419-25.508-7.895-38.853-10.333v-27.222l0,0h-92.651v27.222
								c-13.345,2.438-26.323,5.914-38.853,10.333l-13.678-23.559l0,0l-80.238,46.065l13.71,23.613
								c-10.202,8.665-19.705,18.115-28.42,28.259l-23.746-13.633l0,0l-46.325,79.786l23.692,13.602
								c-4.444,12.46-7.94,25.364-10.392,38.634h-27.377V687.815z M1972.32,426.726c58.009,21.804,104.136,67.67,126.066,125.352
								c74.512,195.987-109.318,378.783-306.415,304.698c-58.009-21.804-104.135-67.669-126.065-125.35
								C1591.392,535.438,1775.221,352.641,1972.32,426.726z"/>
						</g>
					</g>
				</g>
				<g>
					<path style="fill:#D3BBA3;" d="M2160.099,690.02h-27.377c-1.219,0-2.205-0.987-2.205-2.205s0.986-2.205,2.205-2.205h25.172
						v-87.719l-25.172-0.001c-1.063,0-1.974-0.759-2.168-1.804c-2.396-12.967-5.861-25.851-10.298-38.294
						c-0.36-1.005,0.054-2.122,0.977-2.653l21.771-12.498l-44.111-75.973l-21.844,12.54c-0.917,0.523-2.078,0.331-2.771-0.476
						c-8.61-10.024-18.089-19.449-28.174-28.016c-0.814-0.691-1.014-1.865-0.48-2.787l12.6-21.697l-76.415-43.868l-12.576,21.662
						c-0.534,0.918-1.643,1.325-2.642,0.972c-12.521-4.415-25.478-7.862-38.516-10.243c-1.049-0.192-1.809-1.105-1.809-2.169
						v-25.017h-88.24v25.017c0,1.218-0.986,2.205-2.205,2.205c-1.219,0-2.205-0.987-2.205-2.205v-27.222
						c0-1.218,0.986-2.205,2.205-2.205h92.65c1.219,0,2.205,0.987,2.205,2.205v25.391c12.058,2.293,24.033,5.48,35.656,9.485
						l12.764-21.986c0.609-1.051,1.951-1.411,3.006-0.805l80.239,46.064c0.508,0.292,0.881,0.775,1.031,1.342
						c0.153,0.566,0.071,1.17-0.222,1.677l-12.79,22.025c9.276,7.995,18.032,16.703,26.068,25.924l22.171-12.728
						c1.055-0.605,2.396-0.245,3.006,0.805l46.325,79.787c0.293,0.507,0.375,1.111,0.222,1.677c-0.151,0.566-0.523,1.05-1.031,1.341
						l-22.1,12.687c4.022,11.544,7.224,23.447,9.53,35.431h25.549c1.219,0,2.205,0.987,2.205,2.205v92.13
						C2162.304,689.033,2161.318,690.02,2160.099,690.02z M2115.327,643.956c-1.219,0-2.205-0.987-2.205-2.205
						c0-29.669-5.652-59.576-16.797-88.89c-21.753-57.219-67.234-102.441-124.781-124.072
						c-32.05-12.046-64.702-17.622-97.042-16.577c-1.167,0.037-2.237-0.914-2.274-2.133c-0.041-1.216,0.915-2.235,2.132-2.275
						c32.915-1.055,66.145,4.607,98.735,16.857c58.731,22.076,105.149,68.231,127.352,126.632
						c11.336,29.817,17.085,60.251,17.085,90.458C2117.532,642.969,2116.546,643.956,2115.327,643.956z"/>
				</g>
				<path style="fill:#776E42;" d="M1673.519,641.754c0,62.833,28.091,119.143,72.475,157.18
					c32.305,27.719,73.252,45.728,118.264,49.523c5.883,0.51,11.848,0.757,17.879,0.757c6.031,0,11.997-0.247,17.896-0.757
					c38.898-3.286,74.772-17.187,104.648-38.777c52.167-37.71,86.091-98.882,86.091-167.926
					c0-114.573-93.395-207.459-208.635-207.459C1766.914,434.296,1673.519,527.181,1673.519,641.754z"/>
			</g>
			<g>
				<path style="fill:#776E42;" d="M1745.994,801.392c32.305,27.877,73.252,45.987,118.264,49.804h35.775
					c38.898-3.305,74.772-17.284,104.648-38.997V693.142h-221.524L1745.994,801.392z"/>
				<g>
					<g>
						<path style="fill:#E2A18D;" d="M1804.941,600.539c-37.227,20.093-141.114,84.653-167.752,40.763
							c-22.034-36.304,81.914-94.716,117.587-117.064C1771.498,549.672,1788.22,575.106,1804.941,600.539z"/>
						<g>
							<path style="fill:#E2A18D;" d="M1682.273,571.796c-24.527-26.194-79.958-85.515-85.549-91.603
								c-10.452-11.38-61.769-66.083-69.818-58.732c-5.142,4.696,19.992,32.517,23.989,37.705
								c-6.225-4.84-34.046-34.503-39.145-30.707c-5.534,4.12,26.561,45.025,26.719,45.411c-3.987-3.959-32.636-33.594-36.82-29.269
								c-4.856,5.02,22.191,38.415,26.893,43.603c-0.979,0.167-20.642-22.662-26.027-18.415
								c-4.797,3.784,16.566,30.733,18.969,34.876c6.588,10.649,21.161,28.254,36.697,49.08
								c36.488,48.911,54.812,69.191,76.719,89.628c8.497,7.927,27.894,18.861,51.813,9.051
								C1685.03,627.082,1683.955,597.137,1682.273,571.796z"/>
							<path style="fill:#363E44;" d="M1566.898,494.336c-0.553,0-1.109-0.208-1.537-0.624
								c-27.593-26.836-24.548-31.004-23.084-33.007c1.365-1.866,4.199-5.746,33.772,9.397c1.083,0.556,1.512,1.884,0.956,2.967
								c-0.553,1.085-1.875,1.515-2.967,0.958c-21.923-11.227-27.179-10.921-28.135-10.674c0.064,1.054,1.559,6.798,22.533,27.198
								c0.872,0.848,0.891,2.245,0.043,3.118C1568.045,494.113,1567.472,494.336,1566.898,494.336z"/>
						</g>
					</g>
					<path style="fill:#E2A18D;" d="M2043.129,550.598c32.953,26.521,132.744,97.241,102.576,138.787
						c-24.954,34.365-119.097-38.793-153.528-63.008C2009.16,601.116,2026.144,575.857,2043.129,550.598z"/>
					<path style="fill:#EFBC73;" d="M2068.513,553.003c0,0-121.988-72.7-198.943-63.427c-81.719,9.848-83.582,17.402-170.334,62.714
						l46.339,91.917l14.245-10.688c0,6.413-17.24,112.734-17.24,112.734h311.93l-39.466-104.896l17.823,17.813L2068.513,553.003z"/>
					<g>
						<polygon style="fill:#363E44;" points="1677.771,811.698 1968.457,811.698 1922.721,612.808 1632.036,612.808 						"/>
						
							<ellipse transform="matrix(0.9816 -0.1912 0.1912 0.9816 -103.9284 356.5468)" style="fill:#F2E6DC;" cx="1796.041" cy="716.941" rx="14.977" ry="16.212"/>
					</g>
					<g>
						<path style="fill:#E2A18D;" d="M2062.887,657.352c-31.812,25.406-109.693,81.532-117.076,87.313
							c-13.803,10.807-43.86,33.02-38.551,43.812c1.766,3.589,5.922,5.854,10.699,6.131c-1.463,4.917,0.095,10.178,3.906,13.281
							c5.007,4.078,11.182,2.212,11.633,2.067c-1.624,3.627-1.35,7.747,0.849,10.621c3.035,3.965,9.369,5.073,14.492,1.869
							c0.102,1.122,0.604,5.104,3.886,8c3.636,3.208,9.215,3.785,14.117,1.436c12.272-9.592,33.845-21.418,58.787-37.136
							c58.578-36.915,83.148-55.833,108.214-78.786c9.723-8.903,23.813-29.861,14.829-57.767
							C2119.847,657.85,2091.712,657.695,2062.887,657.352z"/>
						<path style="fill:#363E44;" d="M2050.821,669.095c-0.656,0-1.307-0.292-1.742-0.85c-0.747-0.96-0.575-2.346,0.385-3.094
							c7.002-5.452,12.785-9.966,15.948-12.471c0.962-0.757,2.345-0.592,3.098,0.361c0.756,0.955,0.594,2.342-0.36,3.097
							c-3.172,2.509-8.964,7.03-15.979,12.493C2051.771,668.943,2051.295,669.095,2050.821,669.095z"/>
						<g>
							<path style="fill:#363E44;" d="M1930.148,779.785c-0.605,0-1.206-0.248-1.643-0.733l-5.146-5.746
								c-0.812-0.907-0.736-2.301,0.172-3.113c0.902-0.814,2.297-0.738,3.113,0.17l5.146,5.746c0.812,0.908,0.736,2.301-0.172,3.114
								C1931.199,779.6,1930.673,779.785,1930.148,779.785z"/>
							<path style="fill:#363E44;" d="M1943.185,794.384c-0.605,0-1.206-0.248-1.643-0.733l-5.146-5.747
								c-0.812-0.907-0.734-2.302,0.172-3.113c0.911-0.812,2.302-0.735,3.113,0.172l5.146,5.745
								c0.812,0.908,0.736,2.301-0.172,3.114C1944.236,794.199,1943.711,794.384,1943.185,794.384z"/>
							<path style="fill:#363E44;" d="M1956.296,809.396c-0.605,0-1.206-0.248-1.643-0.733l-5.146-5.746
								c-0.812-0.908-0.736-2.301,0.172-3.113c0.902-0.813,2.297-0.737,3.113,0.17l5.146,5.746c0.812,0.908,0.736,2.301-0.172,3.113
								C1957.347,809.211,1956.821,809.396,1956.296,809.396z"/>
							<path style="fill:#363E44;" d="M1968.468,822.766c-0.605,0-1.206-0.248-1.643-0.733l-5.146-5.748
								c-0.812-0.906-0.734-2.301,0.172-3.113c0.904-0.811,2.302-0.736,3.113,0.172l5.146,5.746
								c0.812,0.908,0.736,2.301-0.172,3.113C1969.518,822.581,1968.993,822.766,1968.468,822.766z"/>
						</g>
					</g>
				</g>
				<g>
					<g>
						<path style="fill:#E2A18D;" d="M1892.686,538.283l-0.019,0.001c-15.901,1.059-29.668-10.932-30.8-26.828l-4.552-63.899
							c-1.136-15.946,10.869-29.795,26.815-30.933l0,0c15.946-1.138,29.795,10.865,30.936,26.81l4.571,63.897
							C1920.782,523.335,1908.694,537.217,1892.686,538.283z"/>
					</g>
					
						<ellipse transform="matrix(0.3827 -0.9239 0.9239 0.3827 782.7545 2094.3052)" style="fill:#B77250;" cx="1958.552" cy="461.415" rx="48.324" ry="48.324"/>
					<path style="fill:#B77250;" d="M1958.552,495.463c-27.862,0-50.53-22.667-50.53-50.529s22.668-50.529,50.53-50.529
						s50.528,22.667,50.528,50.529S1986.414,495.463,1958.552,495.463z M1958.552,398.815c-25.431,0-46.12,20.689-46.12,46.119
						c0,25.431,20.69,46.119,46.12,46.119c25.429,0,46.118-20.688,46.118-46.119
						C2004.671,419.504,1983.981,398.815,1958.552,398.815z"/>
					<path style="fill:#B77250;" d="M1973.385,505.352c-27.862,0-50.53-22.667-50.53-50.529c0-27.862,22.668-50.529,50.53-50.529
						s50.528,22.667,50.528,50.529C2023.913,482.685,2001.247,505.352,1973.385,505.352z M1973.385,408.703
						c-25.431,0-46.12,20.689-46.12,46.119c0,25.431,20.69,46.119,46.12,46.119c25.429,0,46.118-20.688,46.118-46.119
						C2019.504,429.392,1998.814,408.703,1973.385,408.703z"/>
					<path style="fill:#E2A18D;" d="M1920.957,352.762c-2.322-1.227-24.736-12.643-45.215-2.518
						c-15.238,7.534-22.703,22.169-31.51,48.608c-10.373,31.135-12.223,51.197-5.958,60.754c9.9,15.101,59.854,10.915,86.233-9.162
						c19.04-14.492,27.854-39.605,23.76-63.351C1944.185,363.413,1922.439,353.545,1920.957,352.762z"/>
					<path style="fill:#BC8271;" d="M1862.569,472.94c-0.581,0-1.156-0.008-1.725-0.023c-1.219-0.031-2.179-1.043-2.149-2.261
						c0.032-1.218,0.988-2.209,2.261-2.147c19.667,0.495,46.947-8.2,62.215-19.821c0.967-0.738,2.351-0.55,3.09,0.42
						c0.736,0.969,0.549,2.352-0.42,3.09C1910.326,464.009,1882.908,472.94,1862.569,472.94z"/>
					<g>
						<path style="fill:#FFFFFF;" d="M1900.269,408.249c0,0-7.248-5.871-16.978-7.715c-2.07-0.392-1.305,16.913,0.838,16.348
							C1893.55,414.395,1900.269,408.249,1900.269,408.249z"/>
						<path style="fill:#373E44;" d="M1876.79,399.999c2.244-0.067,4.416,0.153,6.483,0.544c3.203,5.08,3.355,11.261,0.863,16.333
							c-2.145,0.568-4.43,0.947-6.808,1.019c-12.819,0.385-23.48-8.25-23.48-8.25S1863.971,400.384,1876.79,399.999z"/>
					</g>
					<path style="fill:#B77250;" d="M1856.017,440.865c-2.543,0-5.081-1.158-6.81-3.265c-0.771-0.942-0.635-2.331,0.308-3.104
						c0.941-0.774,2.33-0.632,3.103,0.307c1.227,1.498,3.223,2.058,4.862,1.36c2.009-0.858,2.371-3.261,2.386-3.362
						c0.172-1.203,1.303-2.037,2.48-1.885c1.201,0.164,2.048,1.256,1.893,2.459c-0.067,0.509-0.769,5.024-5.028,6.844
						C1858.188,440.655,1857.103,440.865,1856.017,440.865z"/>
					<path style="fill:#363E44;" d="M1841.219,423.165c-0.622,0-1.242-0.263-1.677-0.774c-2.866-3.361-3.82-6.147-2.915-8.517
						c0.631-1.644,1.912-2.397,3.042-3.061c0.732-0.431,1.488-0.874,2.291-1.63c1.193-1.125,2.099-2.579,2.694-4.323
						c0.392-1.151,1.645-1.766,2.797-1.376c1.154,0.393,1.77,1.646,1.376,2.799c-0.829,2.431-2.121,4.487-3.843,6.109
						c-1.163,1.097-2.271,1.748-3.079,2.223c-0.581,0.341-1.081,0.635-1.158,0.835c-0.151,0.398,0.129,1.707,2.151,4.079
						c0.79,0.927,0.68,2.318-0.248,3.108C1842.235,422.992,1841.725,423.165,1841.219,423.165z"/>
					<path style="fill:#B77250;" d="M1893.404,364.065l-18.706,18.706c-10.35-4.565-20.699-9.13-31.05-13.694
						c2.557-4.61,7.197-11.608,15.034-17.898c14.281-11.461,29.614-12.894,34.006-13.244c24.782-1.976,51.484,11.044,62.642,32.932
						c0.559,1.098,3.052,6.085,4.654,13.602c6.884,32.304-17.704,73.642-30.068,73.023c-3.859-0.193-7.421-8.669-16.467-57.631
						c-10.561-4.658-21.123-9.316-31.684-13.973L1893.404,364.065z"/>
					<g>
						
							<ellipse transform="matrix(0.7395 -0.6732 0.6732 0.7395 212.3223 1399.4991)" style="fill:#E2A18D;" cx="1914.26" cy="425.437" rx="20.658" ry="17.461"/>
						<path style="fill:#363E44;" d="M1918.549,435.495c-0.73,0-1.443-0.361-1.862-1.022c-0.655-1.027-0.351-2.39,0.676-3.043
							c0.484-0.307,0.95-0.664,1.387-1.061c1.688-1.537,2.769-3.517,3.038-5.576c0.252-1.919-0.243-3.673-1.395-4.938
							c-0.575-0.632-1.281-1.111-2.097-1.427c-1.137-0.438-1.703-1.714-1.264-2.851c0.437-1.138,1.716-1.698,2.849-1.264
							c1.464,0.564,2.732,1.43,3.772,2.573c2.041,2.239,2.932,5.252,2.508,8.48c-0.407,3.091-1.985,6.025-4.444,8.264
							c-0.622,0.566-1.292,1.079-1.985,1.52C1919.363,435.384,1918.954,435.495,1918.549,435.495z"/>
					</g>
					<g>
						<g>
							<path style="fill:#363E44;" d="M1869.933,459.383c-8.774,0-16.633-3.309-23.385-9.856c-0.874-0.847-0.896-2.243-0.047-3.118
								c0.85-0.875,2.246-0.895,3.118-0.047c6.315,6.126,13.703,8.999,21.986,8.567c24.548-1.312,49.391-30.841,49.639-31.139
								c0.775-0.934,2.166-1.066,3.105-0.284c0.937,0.778,1.064,2.169,0.284,3.105c-1.064,1.278-26.342,31.308-52.793,32.721
								C1871.199,459.367,1870.564,459.383,1869.933,459.383z"/>
							<path style="fill:#363E44;" d="M1841.713,443.541c1.4-3.242,5.162-4.736,8.405-3.336c3.242,1.4,4.736,5.163,3.336,8.405
								c-1.4,3.242-5.163,4.736-8.405,3.336C1841.807,450.546,1840.313,446.783,1841.713,443.541z"/>
						</g>
						
							<ellipse transform="matrix(0.2448 -0.9696 0.9696 0.2448 1049.6176 2185.5398)" style="fill:#363E44;" cx="1927.72" cy="419.014" rx="26.356" ry="22.277"/>
						<path style="fill:#363E44;" d="M1927.844,412.415c-1.219,0-2.205-0.987-2.205-2.205v-23.729
							c0-21.745-4.957-37.759-13.597-43.936c-4.53-3.237-10.053-3.778-16.418-1.601c-1.148,0.394-2.403-0.22-2.799-1.373
							c-0.394-1.152,0.22-2.406,1.374-2.8c7.676-2.625,14.732-1.868,20.407,2.186c9.958,7.118,15.442,23.996,15.442,47.523v23.729
							C1930.049,411.428,1929.063,412.415,1927.844,412.415z"/>
						<path style="fill:#363E44;" d="M1930.546,437.088c-0.928,0-1.791-0.59-2.095-1.519c-0.379-1.157,0.252-2.403,1.408-2.782
							c4.453-1.46,8.044-5.624,9.368-10.869c1.949-7.722-1.628-15.309-7.973-16.91c-3.467-0.872-7.185,0.187-10.215,2.911
							c-0.909,0.813-2.3,0.741-3.116-0.166c-0.814-0.905-0.738-2.3,0.166-3.113c4.143-3.723,9.33-5.145,14.245-3.908
							c8.701,2.197,13.711,12.186,11.168,22.266c-1.692,6.697-6.395,12.054-12.271,13.979
							C1931.005,437.053,1930.772,437.088,1930.546,437.088z"/>
					</g>
				</g>
			</g>
		</g>
		<g>
			<path style="fill:#84524D;" d="M628.283,2158.447h520.382l52.692-67.077c48.618-63.158,3.594-155.487-76.109-155.487H515.142
				l-12.884,31.133C463.824,2057.35,530.113,2158.447,628.283,2158.447z"/>
			<g>
				<path style="fill:#363E44;" d="M1184.725,2029.36H890.672c-20.019,0-36.248-15.58-36.248-35.61l0,0h330.302V2029.36z"/>
				<path style="fill:#363E44;" d="M1187.957,2028.456l89.376-281.23c6.063-19.079-4.488-39.461-23.566-45.524h0l-100.355,315.775
					L1187.957,2028.456z"/>
				<path style="fill:#363E44;" d="M1154.435,1980.293c-0.22,0-0.446-0.034-0.667-0.104c-1.161-0.369-1.802-1.608-1.434-2.769
					l87.835-276.385c0.37-1.162,1.611-1.801,2.769-1.434c1.16,0.369,1.802,1.608,1.434,2.769l-87.835,276.385
					C1156.237,1979.693,1155.369,1980.293,1154.435,1980.293z"/>
			</g>
			<g>
				<g>
					<path style="fill:#E2A18D;" d="M1065.615,1705.194c0,0-68.14,38.01-205.909,54.08c-152.676,17.808-3.809-140.861-3.809-140.861
						s110.39-43.144,166.165-65.071C1069.832,1534.561,1065.615,1705.194,1065.615,1705.194z"/>
					<g>
						<path style="fill:#E2A18D;" d="M963.195,1638.142c0,0,47.989-141.718,71.054-197.594
							c24.224-58.682,68.532-141.795,80.078-135.447c6.577,3.616,2.878,16.2-9.246,49.179c2.281-1.055,9.977-2.54,15.528,1.814
							c8.213,6.443,4.829,14.509,4.869,15.358c0.744-0.42,9.478-4.752,15.706-1.37c7.016,3.81,8.75,10.361,8.179,16.6
							c1.88-0.985,10.537-3.844,16.355-0.295c7.563,4.614,7.41,14.42,4.52,21.139c-5.303,12.326-20.632,45.646-26.488,64.302
							c-11.524,36.713-27.062,178.557-65.628,221.239C1009.221,1769.325,950.999,1675.181,963.195,1638.142z"/>
						<path style="fill:#363E44;" d="M1098.724,1467.454c-0.041,0-0.082-0.001-0.123-0.003c-1.216-0.067-2.147-1.107-2.08-2.322
							c0.734-13.422-3.699-23.48-7.26-31.562c-3.703-8.404-6.903-15.662-0.81-21.694c3.527-3.495,6.055-9.573,7.308-17.579
							c0.353-2.246-1.268-3.345-1.772-3.628c-1.064-0.595-2.696-0.806-4.104,0.389l-31.464,26.702
							c-0.926,0.786-2.317,0.675-3.109-0.255c-0.788-0.928-0.674-2.32,0.254-3.108l31.466-26.702
							c2.582-2.186,6.152-2.531,9.114-0.871c2.93,1.645,4.489,4.846,3.973,8.156c-1.421,9.07-4.302,15.808-8.563,20.03
							c-3.77,3.733-2.093,8.081,1.742,16.784c3.553,8.062,8.419,19.105,7.627,33.58
							C1100.86,1466.544,1099.887,1467.454,1098.724,1467.454z"/>
						<path style="fill:#363E44;" d="M1153.834,1427.736c-0.291,0-0.583-0.057-0.865-0.178
							c-8.692-3.711-13.974-12.324-13.858-21.349l-0.489,0.804c-3.854,6.357-11.694,9.055-18.653,6.402
							c-3.912-1.492-6.985-4.431-8.647-8.275c-1.662-3.843-1.703-8.094-0.11-11.967l1.415-3.448
							c-3.475,1.625-7.639,1.689-11.267-0.183c-5.773-2.98-8.38-9.803-6.065-15.872l5.383-14.12
							c0.433-1.138,1.708-1.707,2.847-1.276c1.137,0.434,1.707,1.708,1.275,2.845l-5.383,14.121
							c-1.514,3.97,0.192,8.434,3.968,10.383c4.001,2.069,9.013,0.524,11.16-3.441l4.959-9.164c0.558-1.03,1.819-1.447,2.885-0.942
							c1.059,0.502,1.54,1.745,1.094,2.829l-8.191,19.943c-1.137,2.765-1.109,5.798,0.08,8.542c1.186,2.743,3.378,4.839,6.171,5.904
							c4.959,1.893,10.557-0.029,13.313-4.568l8.399-13.845c0.584-0.965,1.792-1.332,2.823-0.853
							c1.018,0.48,1.514,1.651,1.145,2.717l-2.696,7.786c-3.152,9.099,1.318,19.189,10.174,22.969
							c1.12,0.478,1.641,1.774,1.163,2.894C1155.505,1427.233,1154.689,1427.735,1153.834,1427.736z"/>
					</g>
				</g>
				<g>
					<path style="fill:#D87355;" d="M997.972,1562.8c0,0-176.945,20.854-304.683,10.826c-60.098-4.718-172.996-5.234-211.05,19.723
						c-85.074,55.795-107.93,146.774-107.93,146.774l147.845,27.049l-54.361,183.211c-18.885,63.573-6.401,118.412,31.435,172.286
						v0.168h92.062l-16.667-88.711l48.959,88.459l252.196-185.628l2.906-161.106l165.737-53.789L997.972,1562.8z"/>
					<path style="fill:#363E44;" d="M875.362,1766.713c-1.219,0-2.205-0.987-2.205-2.205v-42.287c0-1.218,0.986-2.205,2.205-2.205
						c1.219,0,2.205,0.987,2.205,2.205v42.287C877.566,1765.726,876.58,1766.713,875.362,1766.713z"/>
				</g>
				<path style="fill:#D87355;" d="M972.547,1581.72c1.563-6.102,43.751-116.471,43.751-116.471l126.565,48.156
					c0,0-6.25,187.891-98.439,208.647C952.234,1742.808,972.547,1581.72,972.547,1581.72z"/>
				<g>
					<g>
						<path style="fill:#E2A18D;" d="M758.798,1804.392c-12.784,4.474-68.886,14.574-76.671,39.96
							c-7.841,25.568,3.478,52.774,21.067,72.796c0.108,0.01,0.228,0.021,0.335,0.032c6.758,2.978,17.33,6.396,29.429,4.446
							c13.792-2.224,16.358-9.294,30.558-13.904c23.968-7.779,40.502,5.337,44.253-2.762c2.575-5.558-6.727-13.619-17.136-18.756
							c-10.687-5.275-19.842-4.18-19.921-6.133c-0.086-2.143,9.352-2.053,21.105-3.018c5.46-0.448,21.167,7.542,25.802,0.461
							c3.696-5.646-10.532-18.046-26.817-20.682c-11.521-1.865-21.231,4.031-21.947,2.027c-0.538-1.503,5.335-4.874,11.255-6.277
							c9.768-2.317,25.925,5.686,30.066-0.914c4.056-6.467-8.562-17.078-23.381-20.45c-12.495-2.844-23.011,4.245-23.916,1.761
							c-0.636-1.747,3.416-5.896,14.091-11.688c8.91-4.833,29.33-8.509,25.705-18.555
							C799.625,1794.284,778.093,1797.638,758.798,1804.392z"/>
						<path style="fill:#E2A18D;" d="M484.051,1873.258c-28.101,10.211-46.792,37.511-44.87,67.216
							c1.26,19.475,11.416,39.307,42.253,50.533c75.083,27.332,237.894-83.638,237.894-83.638l16.535-96.529
							C640.288,1830.891,561.4,1845.15,484.051,1873.258z"/>
					</g>
					<g>
						<path style="fill:#D87355;" d="M580.786,1844.371l19.88,142.191l-125.749,24.947
							c-80.755,16.021-152.092-54.86-136.458-135.691c13.68-70.73,34.107-148.033,63.359-197.626l155.096,33.365l-40.626,138.124
							L580.786,1844.371z"/>
						<path style="fill:#363E44;" d="M516.29,1851.888c-0.205,0-0.413-0.029-0.622-0.09c-1.167-0.344-1.837-1.57-1.492-2.738
							l18.356-62.412c0.342-1.165,1.559-1.839,2.737-1.493c1.167,0.344,1.837,1.57,1.492,2.738l-18.356,62.412
							C518.123,1851.265,517.244,1851.888,516.29,1851.888z"/>
						<path style="fill:#363E44;" d="M451.922,2015.994c-6.053,0-12.079-0.467-18.05-1.403c-1.204-0.188-2.026-1.316-1.839-2.519
							c0.187-1.201,1.32-2.029,2.519-1.837c13.151,2.057,26.585,1.76,39.936-0.889l123.704-24.542l-4.474-32.001
							c-0.168-1.207,0.672-2.321,1.878-2.489c1.197-0.183,2.321,0.672,2.489,1.878l5.051,36.126l-127.791,25.353
							C467.545,2015.219,459.712,2015.994,451.922,2015.994z"/>
						<path style="fill:#363E44;" d="M497.175,1853.461c-1.137,0-2.099-0.872-2.196-2.024c-0.099-1.213,0.803-2.278,2.017-2.378
							l83.609-6.885c1.236-0.102,2.276,0.804,2.379,2.016c0.099,1.213-0.803,2.278-2.018,2.378l-83.609,6.885
							C497.295,1853.459,497.235,1853.461,497.175,1853.461z"/>
					</g>
				</g>
				<path style="fill:#363E44;" d="M717.34,1766.713c-1.219,0-2.205-0.987-2.205-2.205V1641.92
					c-70.205,0.616-82.117-46.565-82.231-47.046c-0.28-1.185,0.454-2.373,1.641-2.653c1.184-0.285,2.371,0.453,2.651,1.638
					c0.454,1.883,11.597,45.142,80.097,43.618l2.252-0.049v127.08C719.545,1765.726,718.559,1766.713,717.34,1766.713z"/>
			</g>
			<g>
				<path style="fill:#E2A18D;" d="M707.285,1613.652l-17.433-4.797c-16.15-4.444-25.64-21.139-21.196-37.289l36.604-133.027
					c4.444-16.15,21.139-25.64,37.289-21.196l17.433,4.797c16.15,4.444,25.64,21.139,21.196,37.29l-36.604,133.026
					C740.13,1608.606,723.436,1618.095,707.285,1613.652z"/>
				<g>
					<g>
						<path style="fill:#E2A18D;" d="M821.472,1518.493c-10.965,22.46-80.508,8.079-80.508,8.079l-61.692-37.287
							c-16.829-30.871-5.445-69.54,25.426-86.369c30.872-16.828,69.54-5.445,86.368,25.427
							C791.066,1428.342,832.64,1495.617,821.472,1518.493z"/>
						<path style="fill:#E2A18D;" d="M792.655,1446.542c0,0,24.633,7.88,26.163,12.671c1.826,5.719-13.917,18.397-13.917,18.397
							S793.094,1446.355,792.655,1446.542z"/>
						<g>
							<path style="fill:#FFFFFF;" d="M738.489,1458.962c0,0,7.378-7.579,18.088-10.954c2.279-0.718,3.728,18.871,1.239,18.52
								C746.875,1464.985,738.489,1458.962,738.489,1458.962z"/>
							<g>
								<defs>
									<path id="SVGID_1_" d="M738.489,1458.962c0,0,10.851-11.147,25.337-12.425c14.486-1.278,27.121,7.799,27.121,7.799
										s-10.852,11.147-25.338,12.424C751.124,1468.038,738.489,1458.962,738.489,1458.962z"/>
								</defs>
								<clipPath id="SVGID_00000078733402815254523590000012426256689315238568_">
									<use xlink:href="#SVGID_1_"  style="overflow:visible;"/>
								</clipPath>
								<path style="clip-path:url(#SVGID_00000078733402815254523590000012426256689315238568_);fill:#363E44;" d="
									M756.883,1447.396c4.85-9.316,16.335-12.936,25.651-8.086c9.316,4.85,12.936,16.335,8.086,25.651
									c-4.85,9.316-16.335,12.936-25.651,8.086C755.652,1468.196,752.032,1456.712,756.883,1447.396z"/>
							</g>
						</g>
						<g>
							<path style="fill:#363E44;" d="M638.203,1432.237c0,0,5.543,73.606,57.389,75.573l6.56-14.412l30.597-1.093l-24.571-25.858
								c-8.177-10.598-4.617-26.027,7.377-31.969l52.357-25.94l-15.514-27.173C706.859,1378.076,667.73,1392.154,638.203,1432.237z"
								/>
							<path style="fill:#363E44;" d="M691.791,1394.604c-5.097,4.353-12.758,3.749-17.11-1.348
								c-4.353-5.097-6.027-15.425-0.93-19.778c5.097-4.353,15.036-1.082,19.388,4.016
								C697.492,1382.591,696.888,1390.252,691.791,1394.604z"/>
							<path style="fill:#363E44;" d="M701.449,1393.479c-6.57,1.328-12.972-2.922-14.299-9.492
								c-1.328-6.57,2.227-16.411,8.797-17.738c6.57-1.327,13.667,6.361,14.994,12.931
								C712.269,1385.75,708.019,1392.152,701.449,1393.479z"/>
							<path style="fill:#363E44;" d="M722.215,1391.268c-9.082,0.219-16.621-6.965-16.84-16.047
								c-0.219-9.082,6.851-21.375,15.932-21.594c9.082-0.219,16.736,11.719,16.955,20.801
								C738.482,1383.51,731.297,1391.05,722.215,1391.268z"/>
							<path style="fill:#363E44;" d="M675.333,1404.608c-4.954,4.515-12.63,4.159-17.145-0.795
								c-4.515-4.954-6.522-15.223-1.568-19.738c4.954-4.515,14.993-1.566,19.508,3.388
								C680.643,1392.417,680.287,1400.093,675.333,1404.608z"/>
							<path style="fill:#363E44;" d="M737.052,1387.06c-6.322-5.041-7.36-14.253-2.318-20.575
								c5.042-6.322,16.892-10.668,23.214-5.626c6.322,5.041,4.721,17.562-0.32,23.884
								C752.586,1391.064,743.374,1392.102,737.052,1387.06z"/>
							<path style="fill:#363E44;" d="M663.789,1415.551c-5.033,6.664-14.515,7.986-21.179,2.953
								c-6.664-5.033-11.473-17.15-6.44-23.813c5.033-6.664,18.003-5.352,24.667-0.318
								C667.5,1399.405,668.821,1408.887,663.789,1415.551z"/>
							<path style="fill:#363E44;" d="M651.413,1424.428c-1.217,6.404-7.395,10.609-13.798,9.392
								c-6.404-1.217-13.96-8.031-12.743-14.435c1.217-6.404,10.746-9.972,17.15-8.755
								C648.425,1411.847,652.63,1418.024,651.413,1424.428z"/>
							<path style="fill:#363E44;" d="M748.684,1401.577c-5.389-8.254-3.066-19.314,5.188-24.702
								c8.254-5.388,23.634-5.886,29.022,2.368s-1.254,22.134-9.508,27.523C765.132,1412.154,754.073,1409.831,748.684,1401.577z"/>
						</g>
						<path style="fill:#E2A18D;" d="M668.55,1495.418c1.175,12.07,11.912,20.903,23.983,19.727
							c12.07-1.175,20.903-11.912,19.728-23.983c-1.175-12.07-11.913-20.903-23.983-19.728
							C676.207,1472.61,667.375,1483.348,668.55,1495.418z"/>
						<path style="fill:#363E44;" d="M812.845,1470.236l19.405,49.81c2.702,6.935-0.925,14.708-7.969,17.113
							c-1.772,0.605-3.696,1.239-5.751,1.885c-35.571,11.181-74.404,3.202-102.656-21.13l0,0c-9.464-8.151-12.914-21.3-8.67-33.048
							l1.399-3.872l11.874,0.184c0,0,20.437,21.931,31.057,18.768C762.155,1496.782,775.888,1479.648,812.845,1470.236z"/>
						<path style="fill:#E2A18D;" d="M792.078,1498.124c-0.28,0-0.562-0.011-0.844-0.032c-4.192-0.322-7.915-3.065-9.487-6.987
							c-0.452-1.13,0.097-2.414,1.227-2.866c1.128-0.452,2.414,0.096,2.868,1.227c0.949,2.375,3.2,4.035,5.727,4.229
							c2.605,0.188,5.146-1.173,6.423-3.506c0.583-1.068,1.921-1.458,2.991-0.876c1.07,0.585,1.462,1.924,0.876,2.993
							C799.892,1495.904,796.117,1498.124,792.078,1498.124z"/>
						<path style="fill:#E2A18D;" d="M702.423,1445.532c-0.138,0-0.28-0.013-0.422-0.04l-31.628-6.121
							c-1.195-0.231-1.977-1.389-1.744-2.584c0.23-1.194,1.38-1.971,2.584-1.746l31.628,6.121c1.195,0.232,1.977,1.389,1.744,2.584
							C704.383,1444.8,703.459,1445.532,702.423,1445.532z"/>
					</g>
				</g>
			</g>
		</g>
	</g>
</g>
</svg>
