<?xml version="1.0" encoding="utf-8"?>
<!-- Generator: Adobe Illustrator 27.5.0, SVG Export Plug-In . SVG Version: 6.00 Build 0)  -->
<svg version="1.1" id="Illustration" xmlns="http://www.w3.org/2000/svg" xmlns:xlink="http://www.w3.org/1999/xlink" x="0px"
	 y="0px" viewBox="0 0 2500 2500" style="enable-background:new 0 0 2500 2500;" xml:space="preserve">
<g id="Promissory_note_1_">
	<ellipse style="fill:transparent;" cx="1250" cy="1250" rx="914.513" ry="915"/>
	<g>
		<path style="fill:#E6D0BE;" d="M675.965,1092.995c0.388-0.55,0.307-1.315-0.21-1.769
			c-107.594-94.622-172.198-208.27-207.446-286.946c-38.205-85.276-51.12-148.987-51.245-149.621
			c-0.144-0.723-0.846-1.192-1.569-1.049c-0.722,0.146-1.191,0.848-1.048,1.569c0.126,0.636,13.082,64.585,51.395,150.119
			c35.359,78.94,100.174,192.972,208.152,287.931c0.554,0.487,1.396,0.432,1.883-0.12
			C675.908,1093.071,675.938,1093.033,675.965,1092.995z"/>
		<path style="fill:#E6D0BE;" d="M426.527,696.201c0,0-41.746-22.469-30.153-114.673
			C396.374,581.528,465.217,641.736,426.527,696.201z"/>
		<path style="fill:#E6D0BE;" d="M432.265,730.495c1.093-0.386-24.396-39.852-92.835-39.274
			C339.43,691.221,391.553,744.88,432.265,730.495z"/>
		<path style="fill:#E6D0BE;" d="M447.613,777.378c0,0-30.808-26.402-102.796-6.991
			C344.816,770.387,424.738,804.248,447.613,777.378z"/>
		<path style="fill:#E6D0BE;" d="M472.194,828.915c0.698-0.925-42.341-19.764-99.09,18.497
			C373.105,847.412,446.188,863.382,472.194,828.915z"/>
		<path style="fill:#E6D0BE;" d="M491.876,867.849c0,0-36.246-2.369-77.666,50.026C414.211,917.875,489.763,899.285,491.876,867.849
			z"/>
		<path style="fill:#E6D0BE;" d="M522.201,919.041c0,0-30.044,10.054-46.185,66.028
			C476.015,985.068,530.873,945.117,522.201,919.041z"/>
		<path style="fill:#E6D0BE;" d="M441.346,729.638c-0.981,0.306-3.842-41.256,45.064-77.193
			C486.41,652.445,477.895,718.231,441.346,729.638z"/>
		<path style="fill:#E6D0BE;" d="M459.962,773.346c0,0,8.858-39.594,78.132-67.167C538.094,706.179,494.374,781.164,459.962,773.346
			z"/>
		<path style="fill:#E6D0BE;" d="M486.696,826.856c-1.113-0.323,22.069-41.187,90.429-44.536
			C577.125,782.32,528.166,838.881,486.696,826.856z"/>
		<path style="fill:#E6D0BE;" d="M504.076,864.905c0,0,27.607-23.607,92.157-6.456C596.233,858.449,524.597,888.813,504.076,864.905
			z"/>
		<path style="fill:#E6D0BE;" d="M532.115,914.894c0,0,30.081-9.944,76.532,25.212C608.646,940.107,540.789,940.97,532.115,914.894z
			"/>
	</g>
	<g>
		<g>
			<path style="fill:#363E44;" d="M1824.503,1436.673c-0.553,0-1-0.447-1-1v-305.458c0-0.553,0.447-1,1-1s1,0.447,1,1v305.458
				C1825.503,1436.226,1825.056,1436.673,1824.503,1436.673z"/>
			<path style="fill:#40484C;" d="M1824.503,2014.01l-809.025-0.056H621.863c-0.552,0-1-0.447-1-1V577.218c0-0.553,0.448-1,1-1
				h270.951c0.552,0,1,0.447,1,1c0,0.552-0.448,1-1,1H622.863v1433.736h392.614l808.025,0.056V578.218h-287.721
				c-0.553,0-1-0.448-1-1c0-0.553,0.447-1,1-1h288.721c0.553,0,1,0.447,1,1V2013.01c0,0.266-0.105,0.52-0.293,0.707
				S1824.769,2014.01,1824.503,2014.01z"/>
		</g>
		<g>
			
				<rect x="744.315" y="621.135" transform="matrix(-1 -1.224647e-16 1.224647e-16 -1 2446.3665 2531.0442)" style="fill:#F7F1EB;" width="957.736" height="1288.775"/>
			<g>
				<rect x="874.762" y="853.507" style="fill:#F2E6DC;" width="696.842" height="24.468"/>
				<rect x="874.762" y="900.25" style="fill:#F2E6DC;" width="696.842" height="270.139"/>
			</g>
			<g>
				<rect x="874.762" y="1220.202" style="fill:#F2E6DC;" width="696.842" height="24.468"/>
				<rect x="874.762" y="1266.945" style="fill:#F2E6DC;" width="696.842" height="270.138"/>
			</g>
			<g>
				<rect x="874.762" y="1602.723" style="fill:#F2E6DC;" width="696.842" height="79.665"/>
			</g>
			<g>
				<rect x="874.762" y="1724.515" style="fill:#F2E6DC;" width="696.842" height="79.665"/>
			</g>
			<path style="fill:#FFFFFF;" d="M1341.952,501.472c0-77.867-63.124-140.991-140.991-140.991
				c-77.868,0-140.992,63.124-140.992,140.991H905.367v185.801h591.187V501.472H1341.952z M1097.072,501.472
				c0-57.376,46.512-103.888,103.889-103.888c57.376,0,103.889,46.512,103.889,103.888H1097.072z"/>
			<path style="fill:#9E9569;" d="M1518.776,666.051H927.59c-0.553,0-1-0.447-1-1V479.25c0-0.553,0.447-1,1-1h153.606
				c0.541-77.835,64.028-140.991,141.988-140.991s141.446,63.156,141.987,140.991h153.605c0.553,0,1,0.447,1,1v185.801
				C1519.776,665.604,1519.329,666.051,1518.776,666.051z M928.59,664.051h589.187V480.25h-153.602c-0.553,0-1-0.447-1-1
				c0-77.191-62.8-139.991-139.991-139.991c-77.192,0-139.992,62.8-139.992,139.991c0,0.553-0.447,1-1,1H928.59V664.051z
				 M1365.175,479.25h0.01H1365.175z M1327.072,480.25h-207.777c-0.553,0-1-0.447-1-1c0-57.836,47.053-104.889,104.889-104.889
				s104.889,47.053,104.889,104.889C1328.072,479.803,1327.625,480.25,1327.072,480.25z M1120.3,478.25h205.768
				c-0.536-56.276-46.483-101.889-102.884-101.889S1120.836,421.974,1120.3,478.25z"/>
		</g>
	</g>
	<g>
		
			<rect x="933.12" y="573.179" transform="matrix(0.6193 -0.7852 0.7852 0.6193 -180.5449 1116.3676)" style="fill:#EFBC73;" width="255.562" height="342.357"/>
		<g>
			
				<rect x="892.407" y="638.448" transform="matrix(0.8722 -0.4891 0.4891 0.8722 -265.6417 602.4555)" style="fill:#FFFFFF;" width="255.562" height="342.357"/>
			<path style="fill:#D3BBA3;" d="M892.109,754.367c-5.605,0-11.053-2.945-13.984-8.172l-25.157-44.861
				c-2.091-3.728-2.604-8.047-1.446-12.162c1.157-4.114,3.849-7.531,7.576-9.621c7.697-4.315,17.468-1.565,21.783,6.129
				l25.157,44.862c4.315,7.695,1.566,17.467-6.129,21.783C897.44,753.71,894.757,754.367,892.109,754.367z M866.901,679.508
				c-2.317,0-4.665,0.575-6.825,1.787c-3.263,1.829-5.617,4.819-6.63,8.419c-1.014,3.601-0.563,7.38,1.266,10.642l25.157,44.861
				c1.829,3.263,4.819,5.617,8.42,6.63c3.602,1.014,7.379,0.563,10.641-1.266c6.733-3.776,9.141-12.327,5.364-19.061l-25.157-44.862
				C876.571,682.085,871.805,679.508,866.901,679.508z"/>
			<g>
				<path style="fill:#F2E6DC;" d="M947.048,688.095c-0.35,0-0.69-0.184-0.873-0.511c-0.271-0.482-0.099-1.092,0.383-1.361
					l89.724-50.315c0.483-0.271,1.091-0.099,1.361,0.383c0.271,0.482,0.099,1.092-0.383,1.361l-89.724,50.315
					C947.381,688.054,947.214,688.095,947.048,688.095z"/>
				<path style="fill:#F2E6DC;" d="M959.114,709.61c-0.35,0-0.69-0.184-0.873-0.511c-0.271-0.481-0.099-1.092,0.383-1.361
					l89.723-50.314c0.481-0.271,1.091-0.1,1.361,0.383c0.271,0.482,0.099,1.092-0.383,1.361l-89.723,50.314
					C959.447,709.569,959.28,709.61,959.114,709.61z"/>
				<path style="fill:#F2E6DC;" d="M971.18,731.126c-0.35,0-0.69-0.184-0.873-0.511c-0.271-0.481-0.099-1.092,0.383-1.361
					l89.723-50.315c0.482-0.27,1.091-0.1,1.361,0.383c0.271,0.481,0.099,1.092-0.383,1.361l-89.723,50.315
					C971.513,731.085,971.346,731.126,971.18,731.126z"/>
				<path style="fill:#F2E6DC;" d="M921.313,843.935c-0.35,0-0.689-0.183-0.873-0.511c-0.271-0.481-0.099-1.092,0.383-1.361
					l175.786-98.578c0.481-0.27,1.091-0.101,1.361,0.383c0.271,0.481,0.099,1.092-0.383,1.361l-175.786,98.578
					C921.646,843.894,921.479,843.935,921.313,843.935z"/>
				<path style="fill:#F2E6DC;" d="M933.379,865.451c-0.35,0-0.689-0.184-0.873-0.511c-0.271-0.481-0.099-1.092,0.383-1.361
					l175.786-98.578c0.481-0.27,1.091-0.1,1.361,0.383c0.271,0.481,0.099,1.092-0.383,1.361l-175.786,98.578
					C933.712,865.41,933.545,865.451,933.379,865.451z"/>
			</g>
		</g>
		<path style="fill:#D87355;" d="M1073.832,788.94c-7.982,0.001-14.815-4.558-20.051-9.837c-7.017,4.96-17.466,6.403-24.241,0.191
			c-0.407-0.373-0.435-1.006-0.062-1.413c0.374-0.407,1.006-0.435,1.413-0.062c5.759,5.279,15.108,4.162,21.489-0.184
			c-4.397-4.79-7.496-9.872-8.982-12.539c-15.027-26.977-21.481-58.741-18.174-89.443c1.352-12.539,7.032-26.373,18.925-27.591
			c13.068-1.351,21.166,13.32,24.098,26.282c5.771,25.518,5.736,52.483-0.103,77.983c-1.979,8.642-4.972,18.37-12.169,25.005
			c-0.199,0.184-0.403,0.364-0.611,0.542c5.852,5.845,13.695,10.641,22.789,8.574c9.618-2.183,15.71-11.834,17.48-20.431
			c0.182-0.88,0.33-1.766,0.45-2.656c-9.731-4.294-17.166-13.768-18.609-24.512c-0.623-4.646,0.92-9.838,3.753-12.626
			c1.755-1.725,3.896-2.452,6.189-2.11c4.366,0.658,7.284,4.895,8.673,12.591c1.428,7.923,3.019,16.749,2.157,25.386
			c1.491,0.564,3.034,0.999,4.613,1.29c12.018,2.22,25.022-4.329,30.239-15.225c0.525-1.097,0.965-2.227,1.32-3.38
			c-3.505-2.274-6.499-5.607-8.574-9.682c-3.531-6.934-3.76-14.757-0.61-20.927c0.136-0.266,0.382-0.457,0.673-0.521
			c0.293-0.065,0.595,0.002,0.831,0.186c8.786,6.814,12.672,19.182,10.011,30.013c1.882,1.037,3.897,1.747,5.977,2.076
			c6.215,0.983,12.936-1.45,17.98-6.504c5.047-5.055,7.468-11.78,6.477-17.992c-0.087-0.545,0.284-1.058,0.83-1.145
			c0.542-0.089,1.058,0.285,1.145,0.83c1.093,6.841-1.538,14.213-7.035,19.72c-5.498,5.506-12.864,8.149-19.709,7.065
			c-2.161-0.341-4.258-1.053-6.227-2.084c-0.356,1.093-0.784,2.165-1.283,3.208c-5.594,11.683-19.524,18.705-32.407,16.328
			c-1.536-0.283-3.04-0.693-4.501-1.22c-0.112,0.767-0.246,1.532-0.403,2.295c-1.9,9.224-8.511,19.597-18.996,21.978
			C1076.968,788.769,1075.378,788.94,1073.832,788.94z M1045.789,649.977c-0.472,0-0.949,0.025-1.437,0.074
			c-10.704,1.096-15.872,14.054-17.14,25.815c-3.264,30.294,3.104,61.637,17.934,88.256c1.451,2.606,4.513,7.633,8.829,12.306
			c0.22-0.185,0.436-0.374,0.645-0.567c6.796-6.265,9.665-15.638,11.575-23.981c5.772-25.209,5.807-51.868,0.101-77.095
			C1063.658,663.123,1056.749,649.977,1045.789,649.977z M1086.317,726.03c-1.355,0-2.593,0.542-3.687,1.619
			c-2.376,2.338-3.71,6.936-3.174,10.935c1.323,9.853,8.024,18.563,16.856,22.689c0.698-8.177-0.823-16.619-2.192-24.213
			c-1.22-6.762-3.575-10.452-7.002-10.968C1086.848,726.051,1086.58,726.03,1086.317,726.03z M1126.488,716.211
			c-2.287,5.411-1.887,12.033,1.14,17.976c1.805,3.543,4.354,6.474,7.332,8.545C1137.06,733.212,1133.813,722.549,1126.488,716.211z
			"/>
	</g>
	<g>
		<rect x="1685.805" y="401.531" style="fill:#FFFFFF;" width="393.064" height="379.457"/>
		<path style="fill:#9E9569;" d="M2091.026,781.988h-393.064c-0.553,0-1-0.447-1-1V401.531c0-0.553,0.447-1,1-1h393.064
			c0.553,0,1,0.447,1,1v379.457C2092.026,781.541,2091.579,781.988,2091.026,781.988z M1698.962,779.988h391.064V402.531h-391.064
			V779.988z"/>
		<g>
			<rect x="1838.655" y="486.969" style="fill:#F7F1EB;" width="29.778" height="29.195"/>
			<rect x="1898.264" y="486.969" style="fill:#F7F1EB;" width="29.778" height="29.195"/>
			<rect x="1719.436" y="545.413" style="fill:#F2E6DC;" width="29.778" height="29.196"/>
			<rect x="1779.045" y="545.413" style="fill:#F2E6DC;" width="29.778" height="29.196"/>
			<rect x="1838.655" y="545.413" style="fill:#F2E6DC;" width="29.778" height="29.196"/>
			<rect x="1898.264" y="545.413" style="fill:#F2E6DC;" width="29.778" height="29.196"/>
			<rect x="1719.436" y="603.857" style="fill:#F2E6DC;" width="29.778" height="29.195"/>
			<rect x="1779.045" y="603.857" style="fill:#F2E6DC;" width="29.778" height="29.195"/>
			<rect x="1838.655" y="603.857" style="fill:#F2E6DC;" width="29.778" height="29.195"/>
			<rect x="1898.264" y="603.857" style="fill:#F2E6DC;" width="29.778" height="29.195"/>
			<rect x="1719.436" y="662.302" style="fill:#F2E6DC;" width="29.778" height="29.195"/>
			<rect x="1779.045" y="662.302" style="fill:#F2E6DC;" width="29.778" height="29.195"/>
			<rect x="1838.655" y="662.302" style="fill:#F2E6DC;" width="29.778" height="29.195"/>
			<rect x="1898.264" y="662.302" style="fill:#F2E6DC;" width="29.778" height="29.195"/>
			<rect x="1957.874" y="486.969" style="fill:#F2E6DC;" width="29.778" height="29.195"/>
			<rect x="1957.874" y="545.413" style="fill:#F2E6DC;" width="29.778" height="29.196"/>
			<rect x="1957.874" y="603.857" style="fill:#F2E6DC;" width="29.778" height="29.195"/>
			<rect x="1957.874" y="662.302" style="fill:#F2E6DC;" width="29.778" height="29.195"/>
			<rect x="2016.275" y="486.969" style="fill:#F2E6DC;" width="29.778" height="29.195"/>
			<rect x="2016.275" y="545.413" style="fill:#F2E6DC;" width="29.778" height="29.196"/>
			<rect x="2016.275" y="603.857" style="fill:#F2E6DC;" width="29.778" height="29.195"/>
			<rect x="2016.275" y="662.302" style="fill:#F2E6DC;" width="29.778" height="29.195"/>
			<rect x="1719.436" y="719.561" style="fill:#F2E6DC;" width="29.778" height="29.195"/>
			<rect x="1779.045" y="719.561" style="fill:#F7F1EB;" width="29.778" height="29.195"/>
			<rect x="1838.655" y="719.561" style="fill:#F2E6DC;" width="29.778" height="29.195"/>
			<rect x="1898.264" y="719.561" style="fill:#F2E6DC;" width="29.778" height="29.195"/>
			<rect x="1957.874" y="719.561" style="fill:#F7F1EB;" width="29.778" height="29.195"/>
			<rect x="2016.275" y="719.561" style="fill:#F7F1EB;" width="29.778" height="29.195"/>
		</g>
		<path style="fill:#ff6900;" d="M2080.085,452.331h-394.23c-0.553,0-1-0.447-1-1c0-0.553,0.447-1,1-1h394.23c0.553,0,1,0.447,1,1
			C2081.085,451.884,2080.638,452.331,2080.085,452.331z"/>
		<g>
			<path style="fill:#ff6900;" d="M1735.165,441.272c-7.759,0-14.07-6.311-14.07-14.067c0-7.756,6.312-14.066,14.07-14.066
				s14.07,6.311,14.07,14.066C1749.235,434.961,1742.924,441.272,1735.165,441.272z M1735.165,415.138
				c-6.655,0-12.07,5.413-12.07,12.066c0,6.654,5.415,12.067,12.07,12.067s12.07-5.413,12.07-12.067
				C1747.235,420.551,1741.82,415.138,1735.165,415.138z"/>
			<path style="fill:#ff6900;" d="M1808.108,441.272c-7.759,0-14.07-6.311-14.07-14.067c0-7.756,6.312-14.066,14.07-14.066
				s14.07,6.311,14.07,14.066C1822.179,434.961,1815.867,441.272,1808.108,441.272z M1808.108,415.138
				c-6.655,0-12.07,5.413-12.07,12.066c0,6.654,5.415,12.067,12.07,12.067s12.07-5.413,12.07-12.067
				C1820.179,420.551,1814.764,415.138,1808.108,415.138z"/>
			<path style="fill:#ff6900;" d="M1881.052,441.272c-7.759,0-14.07-6.311-14.07-14.067c0-7.756,6.312-14.066,14.07-14.066
				s14.071,6.311,14.071,14.066C1895.123,434.961,1888.811,441.272,1881.052,441.272z M1881.052,415.138
				c-6.655,0-12.07,5.413-12.07,12.066c0,6.654,5.415,12.067,12.07,12.067c6.656,0,12.071-5.413,12.071-12.067
				C1893.123,420.551,1887.708,415.138,1881.052,415.138z"/>
			<path style="fill:#ff6900;" d="M1953.996,441.272c-7.759,0-14.07-6.311-14.07-14.067c0-7.756,6.312-14.066,14.07-14.066
				s14.07,6.311,14.07,14.066C1968.066,434.961,1961.755,441.272,1953.996,441.272z M1953.996,415.138
				c-6.655,0-12.07,5.413-12.07,12.066c0,6.654,5.415,12.067,12.07,12.067s12.07-5.413,12.07-12.067
				C1966.066,420.551,1960.651,415.138,1953.996,415.138z"/>
			<path style="fill:#ff6900;" d="M2026.939,441.272c-7.759,0-14.07-6.311-14.07-14.067c0-7.756,6.312-14.066,14.07-14.066
				s14.07,6.311,14.07,14.066C2041.01,434.961,2034.698,441.272,2026.939,441.272z M2026.939,415.138
				c-6.655,0-12.07,5.413-12.07,12.066c0,6.654,5.415,12.067,12.07,12.067s12.07-5.413,12.07-12.067
				C2039.01,420.551,2033.595,415.138,2026.939,415.138z"/>
			<path style="fill:#ff6900;" d="M1735.165,428.204c-0.553,0-1-0.447-1-1v-49.92c0-0.553,0.447-1,1-1s1,0.447,1,1v49.92
				C1736.165,427.757,1735.718,428.204,1735.165,428.204z"/>
			<path style="fill:#ff6900;" d="M1808.108,428.204c-0.553,0-1-0.447-1-1v-49.92c0-0.553,0.447-1,1-1s1,0.447,1,1v49.92
				C1809.108,427.757,1808.661,428.204,1808.108,428.204z"/>
			<path style="fill:#ff6900;" d="M1881.052,428.204c-0.553,0-1-0.447-1-1v-49.92c0-0.553,0.447-1,1-1s1,0.447,1,1v49.92
				C1882.052,427.757,1881.604,428.204,1881.052,428.204z"/>
			<path style="fill:#ff6900;" d="M1953.996,428.204c-0.553,0-1-0.447-1-1v-49.92c0-0.553,0.447-1,1-1s1,0.447,1,1v49.92
				C1954.996,427.757,1954.549,428.204,1953.996,428.204z"/>
			<path style="fill:#ff6900;" d="M2026.939,428.204c-0.553,0-1-0.447-1-1v-49.92c0-0.553,0.447-1,1-1s1,0.447,1,1v49.92
				C2027.939,427.757,2027.492,428.204,2026.939,428.204z"/>
		</g>
		<g>
			<path style="fill:#D87355;" d="M1795.874,580.845c-6.583,0-12.778-2.742-17.003-7.527c-4.08-4.62-5.893-10.611-5.103-16.869
				c0.813-6.434,4.62-12.203,10.447-15.829c6.561-4.084,14.874-4.861,22.807-2.128c0.521,0.18,0.799,0.749,0.619,1.271
				s-0.747,0.799-1.271,0.619c-7.359-2.536-15.05-1.83-21.098,1.936c-5.313,3.307-8.783,8.548-9.52,14.381
				c-0.717,5.68,0.923,11.112,4.617,15.296c3.845,4.354,9.495,6.851,15.504,6.851c0.011,0,0.021,0,0.031,0
				c7.503-0.011,13.957-3.86,17.265-10.299c2.503-4.869,2.521-10.045,0.05-13.508c-2.377-3.329-5.589-5.291-9.288-5.674
				c-4.311-0.453-8.964,1.291-12.741,4.771c-0.406,0.374-1.038,0.349-1.413-0.058c-0.374-0.406-0.349-1.039,0.058-1.413
				c4.199-3.867,9.403-5.803,14.303-5.289c4.286,0.443,7.989,2.691,10.709,6.501c2.909,4.074,2.948,10.046,0.103,15.584
				c-3.657,7.117-10.775,11.373-19.041,11.385C1795.897,580.845,1795.886,580.845,1795.874,580.845z"/>
			<path style="fill:#D87355;" d="M1855.484,580.845c-6.583,0-12.778-2.742-17.004-7.526c-4.08-4.621-5.892-10.612-5.102-16.87
				c0.813-6.434,4.62-12.203,10.447-15.829c6.563-4.084,14.872-4.861,22.806-2.128c0.521,0.18,0.799,0.749,0.619,1.271
				s-0.749,0.799-1.271,0.619c-7.358-2.536-15.047-1.829-21.097,1.935c-5.313,3.307-8.783,8.549-9.52,14.382
				c-0.717,5.68,0.923,11.112,4.617,15.296c3.845,4.354,9.495,6.851,15.504,6.851c0.011,0,0.021,0,0.031,0
				c7.502-0.011,13.956-3.86,17.264-10.298c2.503-4.87,2.521-10.046,0.05-13.509c-2.377-3.329-5.589-5.291-9.288-5.674
				c-4.329-0.454-8.964,1.292-12.74,4.771c-0.406,0.374-1.038,0.349-1.413-0.058c-0.374-0.406-0.349-1.039,0.058-1.413
				c4.199-3.867,9.408-5.803,14.302-5.289c4.286,0.443,7.989,2.691,10.709,6.501c2.909,4.074,2.948,10.047,0.103,15.585
				c-3.657,7.116-10.774,11.372-19.04,11.384C1855.508,580.845,1855.496,580.845,1855.484,580.845z"/>
		</g>
	</g>
	<g>
		<g>
			<g>
				<polygon style="fill:#BC8271;" points="1665.527,2036.057 1785.558,2012.271 1733.41,1859.477 1616.772,1901.848 				"/>
				<path style="fill:#363E44;" d="M1526.118,2163.375l305.554-83.803l-60.171-109.09l-119.704,32.831l-79.32,50.146
					C1533.204,2076.585,1514.231,2121.57,1526.118,2163.375z"/>
			</g>
			<g>
				<polygon style="fill:#BC8271;" points="1910.907,2057.838 2034.707,2065.316 2023.319,1904.271 1898.013,1915.632 				"/>
				<path style="fill:#363E44;" d="M1744.102,2142.26h316.838l-29.174-121.12h-124.125l-89.759,27.38
					C1773.892,2060.434,1743.696,2098.799,1744.102,2142.26z"/>
			</g>
			<g>
				<path style="fill:#FFFFFF;" d="M1954.835,1171.249c13.076,34.368,22.558,73.429,35.039,114.849
					c66.144,219.516,56.775,684.115,56.775,684.115l-163.546-4.095c0,0-60.995-307.49-88.076-506.904
					c-22.157,52.931-64.01,177.257-64.01,177.257s27.081,200.645,40.622,263.424c-54.162,20.926-107.708,32.005-174.18,50.469
					c-79.601-266.706-96.613-303.915-63.394-404.983c42.794-130.203,150.967-366.255,187.178-416.957
					C1799.107,1142.699,1876.971,1156.974,1954.835,1171.249z"/>
				<path style="fill:#D3BBA3;" d="M2046.648,1971.213c-0.008,0-0.017,0-0.025,0l-163.546-4.094
					c-0.463-0.012-0.856-0.34-0.953-0.793c-0.013-0.063-1.434-6.811-9.202-47.463c-0.104-0.542,0.252-1.066,0.795-1.17
					c0.537-0.098,1.065,0.252,1.17,0.795c6.418,33.586,8.5,44.015,9.035,46.651l161.773,4.049
					c0.485-10.849,4.517-110.898-3.858-266.585c-0.029-0.552,0.394-1.022,0.945-1.053c0.532-0.021,1.022,0.393,1.053,0.945
					c8.84,164.342,3.863,266.752,3.813,267.768C2047.62,1970.797,2047.18,1971.213,2046.648,1971.213z"/>
			</g>
		</g>
		<g>
			<g>
				
					<ellipse transform="matrix(0.7071 -0.7071 0.7071 0.7071 -128.4062 1318.4116)" style="fill:#EFBC73;" cx="1527.26" cy="814.206" rx="126.886" ry="126.886"/>
				
					<ellipse transform="matrix(0.7071 -0.7071 0.7071 0.7071 -128.4062 1318.4116)" style="fill:#E0AA63;" cx="1527.26" cy="814.206" rx="89.722" ry="89.722"/>
				<path style="fill:#FFFFFF;" d="M1550.6,965.431c-70.517,0-127.886-57.369-127.886-127.886s57.369-127.886,127.886-127.886
					s127.886,57.369,127.886,127.886S1621.116,965.431,1550.6,965.431z M1550.6,711.659c-69.414,0-125.886,56.472-125.886,125.886
					s56.472,125.886,125.886,125.886s125.886-56.472,125.886-125.886S1620.014,711.659,1550.6,711.659z"/>
			</g>
			<g>
				<g>
					<path style="fill:#BC8271;" d="M1738.394,1037.793c-29.042,42.632-117.766,157.391-171.222,124.771
						c-24.82-15.146-34.08-38.383-11.45-82.347c22.438-43.592,62.236-86.819,82.703-107.939
						C1670.793,990.459,1706.026,1019.61,1738.394,1037.793z"/>
					<g>
						<path style="fill:#BC8271;" d="M1561.854,1068.252c-43.631,3.416-144.41,11.495-154.467,12.185
							c-18.801,1.289-109.992,8.511-109.112,21.776c0.562,8.474,46.205,5.719,54.192,5.864c-9.351,2.243-58.795,6.154-59.058,13.902
							c-0.286,8.408,63.125,8.988,63.614,9.131c-6.808,0.783-56.856,5.503-55.918,12.783c1.089,8.448,53.5,8.118,62.022,7.589
							c-0.586,1.06-37.308,2.404-37.359,10.767c-0.046,7.451,41.897,7.625,47.675,8.491c15.162,1.834,43.032,1.361,74.704,2.422
							c74.384,2.492,107.658,0.482,143.808-4.821c14.022-2.057,48.793-9.661,57.649-39.915
							C1624.173,1110.73,1587.285,1085.948,1561.854,1068.252z"/>
						<path style="fill:#363E44;" d="M1365.139,1121.372c-14.95,0-15.786-3.076-16.135-4.358c-0.47-1.728-1.899-6.982,33.725-23.027
							c0.507-0.228,1.096-0.002,1.323,0.501c0.227,0.504,0.002,1.096-0.501,1.323c-31.611,14.237-32.958,19.427-32.617,20.678
							c0.776,2.854,13.005,4.473,45.005,0.456c0.567-0.062,1.049,0.321,1.117,0.867c0.068,0.549-0.319,1.049-0.867,1.117
							C1381.941,1120.717,1372.037,1121.372,1365.139,1121.372z"/>
					</g>
				</g>
				<path style="fill:#ff6900;" d="M1984.645,1015.251c-8.332-29.624-40.709-134.15-160.844-132.943
					c-50.568,0.508-54.208,1.91-82.125,10.859c-22.548,7.228-87.529,62.326-117.062,90.862
					c-4.477,50.077,26.643,139.567,8.8,187.963c73.138,11.078,369.363,48.532,369.363,48.532S2006.802,1094.032,1984.645,1015.251z"
					/>
				<g>
					<path style="fill:#BC8271;" d="M1780.743,1041.598c-176.56,109.44-130.48,132.599-110.708,162.279
						c15.938,23.925,106.713-6.573,181.881-52.939L1780.743,1041.598z"/>
					<g>
						<path style="fill:#BC8271;" d="M1737.114,1108.204c-30.925-44.072-100.786-143.859-107.811-154.079
							c-13.132-19.105-77.854-111.165-91.352-101.931c-8.623,5.898,22.861,52.516,27.706,61.064
							c-8.228-8.499-43.315-58.417-51.686-53.847c-9.084,4.959,29.989,72.481,30.143,73.088
							c-5.089-6.72-41.412-56.772-48.535-51.222c-8.266,6.44,24.886,61.742,30.78,70.437c-1.49,0.043-25.896-38.008-34.785-32.828
							c-7.92,4.615,18.147,49.145,20.845,55.807c7.547,17.206,25.491,46.427,44.19,80.634c43.915,80.34,59.914,121.334,95.11,149.29
							c15.751,12.511,48.371,11.075,85.915-0.619C1740.46,1165.988,1734.287,1146.213,1737.114,1108.204z"/>
						<path style="fill:#363E44;" d="M1648.868,983.187c-0.315,0-0.626-0.148-0.82-0.427
							c-11.084-15.859-17.668-25.303-19.569-28.068c-3.741-5.442-23.431-33.88-43.738-59.339c-0.344-0.433-0.273-1.061,0.158-1.406
							c0.433-0.344,1.061-0.272,1.406,0.158c20.349,25.513,40.074,54.002,43.822,59.454c1.898,2.761,8.479,12.2,19.56,28.055
							c0.316,0.453,0.206,1.076-0.246,1.393C1649.266,983.128,1649.065,983.187,1648.868,983.187z"/>
						<path style="fill:#363E44;" d="M1735.048,1102.861c-0.315,0-0.625-0.148-0.819-0.426c-4.577-6.525-9.816-13.998-15.458-22.047
							c-0.316-0.452-0.207-1.076,0.245-1.394c0.453-0.316,1.075-0.207,1.394,0.245c5.64,8.049,10.879,15.521,15.456,22.047
							c0.317,0.452,0.208,1.076-0.244,1.393C1735.446,1102.803,1735.246,1102.861,1735.048,1102.861z"/>
						<path style="fill:#363E44;" d="M1613.905,1161.322c-0.354,0-0.697-0.188-0.879-0.521l-50.882-93.179
							c-0.265-0.485-0.086-1.093,0.398-1.357c0.485-0.265,1.093-0.085,1.357,0.398l50.882,93.179
							c0.265,0.485,0.086,1.093-0.398,1.357C1614.231,1161.283,1614.067,1161.322,1613.905,1161.322z"/>
					</g>
				</g>
				<path style="fill:#363E44;" d="M1857.474,1160.476c-0.053,0-0.106-0.004-0.159-0.013c-0.278-0.045-0.525-0.205-0.679-0.441
					l-82.375-126.549c-0.15-0.23-0.198-0.513-0.135-0.779c0.064-0.268,0.236-0.496,0.475-0.634l83.619-48.076
					c0.477-0.274,1.09-0.11,1.365,0.369c0.275,0.479,0.11,1.09-0.369,1.365l-82.702,47.549l81.197,124.74l82.341-65.758
					c0.433-0.346,1.062-0.274,1.405,0.157c0.345,0.432,0.274,1.061-0.157,1.405l-83.202,66.445
					C1857.919,1160.399,1857.699,1160.476,1857.474,1160.476z"/>
			</g>
		</g>
		<g>
			<path style="fill:#BC8271;" d="M1775.336,853.76c15.628,11.099,59.777-19.034,59.777-19.034l25.259-52.835
				c0-26.966-21.861-48.827-48.827-48.827c-26.966,0-48.827,21.861-48.827,48.827
				C1762.718,781.891,1759.418,842.455,1775.336,853.76z"/>
			<path style="fill:#BC8271;" d="M1777.756,900.889c-1.77,12.68,21.865,26.46,52.792,30.778
				c30.927,4.318,57.433-2.461,59.203-15.141c1.77-12.68-20.551-32.567-51.477-36.885c-16.86-2.354-35.004,1.457-44.138,5.849
				C1785.214,889.781,1778.561,895.122,1777.756,900.889z"/>
			
				<rect x="1799.972" y="780.932" transform="matrix(-1 -1.224647e-16 1.224647e-16 -1 3660.2927 1685.3055)" style="fill:#BC8271;" width="60.348" height="123.441"/>
			<path style="fill:#363E44;" d="M1799.973,854.024c-0.413,0-0.8-0.258-0.944-0.67c-0.182-0.521,0.093-1.092,0.614-1.274
				c16.779-5.872,34.727-18.058,34.906-18.181c0.454-0.309,1.078-0.194,1.39,0.263c0.312,0.456,0.193,1.078-0.263,1.39
				c-0.182,0.124-18.347,12.457-35.373,18.417C1800.193,854.007,1800.082,854.024,1799.973,854.024z"/>
			<g>
				<path style="fill:#FFFFFF;" d="M1817.239,789.235c0,0-8.959-4.819-19.759-4.818c-2.298,0,2.037,18.387,4.218,17.346
					C1811.288,797.185,1817.239,789.235,1817.239,789.235z"/>
				<path style="fill:#363E44;" d="M1790.407,785.165c-13.658,3.016-22.622,14.994-22.622,14.994s13.176,7.087,26.832,4.071
					c2.535-0.561,4.906-1.431,7.09-2.474c1.638-5.941,0.219-12.532-4.243-17.325
					C1795.168,784.432,1792.798,784.636,1790.407,785.165z"/>
			</g>
			<g>
				<path style="fill:#363E44;" d="M1757.774,773.272c-1.664-7.464,10.011-49.238,52.281-51.706
					c23.106-1.349,50.76,5.023,69.74,32.011c26.26,37.339,34.875,130.481,34.875,130.481s-91.717,23.843-96.433,28.722
					c-6.193-4.885,33.323-85.967,25.72-92.02c12.82-12.9,12.86-26.057,8.617-31.184c-3.429-4.143-11.964-8.508-22.978,0.821
					c-2.77-7.283-14.315-16.428-31.044-17.125C1788.705,772.862,1757.774,773.272,1757.774,773.272z"/>
			</g>
			<path style="fill:#363E44;" d="M1780.557,829.848c-1.812,0-3.633-0.789-4.939-2.275c-0.364-0.414-0.324-1.046,0.091-1.411
				c0.413-0.363,1.044-0.324,1.411,0.091c1.42,1.613,3.788,2.058,5.509,1.031c1.404-0.836,2.182-2.508,1.98-4.258
				c-0.063-0.549,0.33-1.044,0.879-1.108c0.555-0.067,1.045,0.33,1.107,0.879c0.292,2.53-0.863,4.966-2.943,6.205
				C1782.694,829.572,1781.627,829.848,1780.557,829.848z"/>
			<path style="fill:#BC8271;" d="M1755.654,812.869c0.585-3.189,4.222-5.074,7.023-7.635c1.652-1.51,2.475-3.086,2.879-4.431
				v18.306c-1.36-0.093-3.07-0.258-4.402-0.55C1758.086,817.886,1755.152,815.6,1755.654,812.869z"/>
			<path style="fill:#363E44;" d="M1842.455,809.97c-0.196,0-0.395-0.058-0.568-0.178c-0.454-0.315-0.567-0.938-0.253-1.392
				c4.666-6.732,5.958-11.122,3.841-13.052c-2.301-2.097-4.813-0.449-6.97,1.435c-0.307,0.268-0.491,0.43-0.674,0.536
				c-0.475,0.277-1.088,0.117-1.368-0.36c-0.274-0.472-0.12-1.076,0.345-1.358c0.085-0.061,0.213-0.177,0.381-0.323
				c1.412-1.234,5.706-4.988,9.634-1.407c4.019,3.664-0.099,10.697-3.544,15.669C1843.084,809.819,1842.772,809.97,1842.455,809.97z
				"/>
		</g>
	</g>
	<g>
		<g>
			<g>
				<polygon style="fill:#BC8271;" points="792.883,2075.749 667.108,2073.859 691.629,1909.716 817.404,1931.026 				"/>
				<g>
					<path style="fill:#363E44;" d="M968.612,2159.242l-325.702,0l29.99-124.509h127.598l92.27,28.146
						C937.989,2075.127,969.029,2114.566,968.612,2159.242z"/>
				</g>
			</g>
			<g>
				<polygon style="fill:#BC8271;" points="501.579,2075.749 375.804,2073.859 400.325,1909.716 526.1,1931.026 				"/>
				<g>
					<path style="fill:#363E44;" d="M677.308,2159.242l-325.702,0l29.99-124.509h127.598l92.27,28.146
						C646.685,2075.127,677.725,2114.566,677.308,2159.242z"/>
					<path style="fill:#FFFFFF;" d="M677.309,2160.242c-0.018,0-0.036-0.001-0.054-0.002c-0.552-0.028-0.975-0.499-0.946-1.051
						c0.017-0.309,1.354-31.165-21.092-60.021c-0.339-0.437-0.261-1.064,0.175-1.403c0.438-0.34,1.065-0.26,1.403,0.175
						c22.923,29.469,21.528,61.039,21.512,61.354C678.278,2159.829,677.837,2160.242,677.309,2160.242z"/>
				</g>
			</g>
			<path style="fill:#363E44;" d="M831.654,1159.36c34.344,103.99,47.382,823.022,47.382,823.022l-226.382-4.209
				c0,0,32.801-312.618,22.416-494.093c-24.679,146.612-96.526,458.188-108.532,494.208c-64.034-2.001-147.488-4.002-211.522-6.003
				c68.096-301.329,145.07-681.585,211.273-838.386C646.331,1148.573,751.612,1144.686,831.654,1159.36z"/>
		</g>
		<g>
			<g>
				<path style="fill:#BC8271;" d="M795.926,1071.146c37.197-19.483,74.394-38.965,111.591-58.448
					c14.741,26.732,36.428,70.371,64.069,125.085c31.357,46.856,109.928,152.676,117.202,163.334
					c13.631,19.972,43.862,61.725,32.379,73.701c-3.82,3.982-10.227,5.226-16.621,3.598c-0.131,7.077-4.376,13.345-10.679,15.835
					c-8.284,3.274-15.621-1.757-16.152-2.136c0.62,5.447-1.46,10.752-5.551,13.614c-5.646,3.948-14.432,2.762-19.827-3.589
					c-0.604,1.433-2.927,6.461-8.447,8.899c-6.119,2.702-13.693,1.132-19.154-4.001c-12.126-17.735-35.544-42.288-61.763-73.365
					c-61.583-72.988-85.978-108.119-109.342-148.763C848.63,1176.215,806.787,1088.136,795.926,1071.146z"/>
				<polygon style="fill:#FFFFFF;" points="829.407,892.315 1050.514,1224.359 927.278,1317.929 688.857,1023.17 				"/>
				<path style="fill:#363E44;" d="M1074.775,1322.645c-0.021,0-0.04-0.001-0.061-0.002c-5.369-0.321-15.752-2.081-24.97-10.262
					c-7.213-6.401-10.555-13.913-12.088-19.087c-0.156-0.529,0.146-1.086,0.675-1.243c0.53-0.159,1.087,0.146,1.243,0.675
					c1.459,4.924,4.639,12.071,11.498,18.159c8.768,7.781,18.65,9.456,23.761,9.762c0.552,0.033,0.972,0.507,0.938,1.058
					C1075.741,1322.235,1075.301,1322.645,1074.775,1322.645z"/>
				<g>
					<path style="fill:#363E44;" d="M1067.771,1470.195c-9.526,0-18.929-4.378-24.974-12.637l-22.481-30.714
						c-10.063-13.748-7.065-33.121,6.683-43.185l62.3-45.603c13.75-10.063,33.123-7.065,43.186,6.683l22.48,30.714
						c4.875,6.66,6.865,14.82,5.603,22.977c-1.262,8.157-5.625,15.334-12.285,20.208l-62.3,45.603
						C1080.491,1468.26,1074.103,1470.195,1067.771,1470.195z M1107.512,1334.103c-5.924,0-11.897,1.811-17.032,5.568l-62.3,45.603
						c-12.859,9.413-15.663,27.531-6.251,40.39l22.481,30.714c9.413,12.859,27.533,15.661,40.39,6.251l62.3-45.603
						c6.229-4.56,10.311-11.271,11.49-18.9c1.181-7.629-0.68-15.261-5.239-21.489l-22.48-30.714
						C1125.216,1338.198,1116.421,1334.103,1107.512,1334.103z"/>
					
						<rect x="981.068" y="1385.052" transform="matrix(0.8069 -0.5906 0.5906 0.8069 -675.654 996.4974)" style="fill:#84524D;" width="410.728" height="293.377"/>
					<path style="fill:#363E44;" d="M1196.857,1548.245c-0.008,0-0.016,0-0.023,0l-227.593-5.279
						c-0.552-0.013-0.989-0.471-0.977-1.023c0.013-0.552,0.482-0.985,1.023-0.977l226.82,5.262l61.941-216.775
						c0.152-0.532,0.711-0.834,1.236-0.688c0.531,0.152,0.839,0.706,0.688,1.236l-62.154,217.519
						C1197.696,1547.95,1197.303,1548.245,1196.857,1548.245z"/>
					
						<rect x="1166.581" y="1528.89" transform="matrix(0.8069 -0.5906 0.5906 0.8069 -681.2341 1004.2634)" style="fill:#EFBC73;" width="57.882" height="30.538"/>
				</g>
				<path style="fill:#BC8271;" d="M1023.914,1395.272c-3.781-8.273-8.666-20.863,3.202-26.2c4.297-1.932,9.932-0.062,13.935,3.548
					c0.275,0.248,0.7-0.006,0.579-0.346c-2.111-5.939,0.544-12.596,6.313-15.575c5.162-2.665,10.673-1.039,15.533,2.315
					c0.337,0.233,0.746-0.137,0.523-0.47c-4.081-6.09-3.161-13.508,1.981-17.262c4.881-3.564,12.796-3.034,17.803,1.849
					c0.253,0.246,0.684,0.016,0.597-0.317c-1.15-4.414,0.208-8.975,3.503-11.673c4.725-3.871,14.99-3.272,21.409,6.357
					L1023.914,1395.272z"/>
				<path style="fill:#363E44;" d="M1019.815,1389.344c-0.38,0-0.742-0.217-0.91-0.584c-1.944-4.256-2.018-8.874-0.207-13.005
					c1.619-3.695,4.574-6.478,8.107-7.632c4.226-1.383,9.282-0.399,13.344,2.493c-1.103-5.849,1.816-11.956,7.335-14.806
					c4.312-2.226,9.253-1.861,14.408,1.033c-2.812-6.011-1.496-12.724,3.498-16.369c5.012-3.658,12.446-3.261,17.674,0.719
					c-0.472-4.174,1.073-8.277,4.185-10.826c5.306-4.347,14.092-3.471,19.184,1.912c0.38,0.401,0.362,1.034-0.039,1.414
					c-0.4,0.379-1.032,0.363-1.414-0.039c-4.399-4.651-11.939-5.445-16.463-1.74c-2.975,2.438-4.219,6.617-3.169,10.648
					c0.152,0.583-0.099,1.18-0.623,1.485c-0.539,0.314-1.196,0.232-1.639-0.199c-4.468-4.357-11.877-5.146-16.516-1.759
					c-4.745,3.464-5.493,10.298-1.739,15.897c0.365,0.548,0.295,1.249-0.17,1.706c-0.476,0.468-1.199,0.526-1.752,0.145
					c-3.683-2.541-9.189-4.996-14.507-2.25c-5.266,2.719-7.771,8.889-5.829,14.352c0.207,0.586,0,1.208-0.515,1.551
					c-0.521,0.348-1.21,0.293-1.678-0.128c-3.745-3.377-8.826-4.689-12.954-3.339c-2.991,0.979-5.505,3.36-6.896,6.534
					c-1.578,3.603-1.51,7.641,0.194,11.37c0.23,0.503,0.009,1.096-0.493,1.325
					C1020.096,1389.314,1019.954,1389.344,1019.815,1389.344z M1041.719,1371.876c0.001,0.001,0.001,0.001,0.002,0.001
					C1041.72,1371.877,1041.72,1371.877,1041.719,1371.876z"/>
				<path style="fill:#BC8271;" d="M1088.653,1321.224c35.635,3.071,49.139-3.373,49.446-9.036
					c0.516-9.523-28.834-24.598-80.349-35.647C1065.243,1289.761,1081.159,1308.003,1088.653,1321.224z"/>
			</g>
			<g>
				<path style="fill:#FFFFFF;" d="M539.525,967.307c13.849-49.315,61.277-126.425,161.709-135.762
					c85.163-7.918,147.431,63.979,168.615,144.863c14.621,55.827,12.657,181.542,20.361,243.168
					c-134.657,65.116-375.352,8.472-375.352,8.472S516.448,1049.484,539.525,967.307z"/>
				<path style="fill:#363E44;" d="M865.996,1146.88c-0.48,0-0.904-0.347-0.985-0.837
					c-17.113-103.315-68.108-223.886-68.621-225.092c-0.217-0.508,0.021-1.096,0.528-1.312c0.508-0.217,1.095,0.02,1.311,0.528
					c0.515,1.208,51.601,121.992,68.754,225.549c0.091,0.545-0.278,1.06-0.823,1.149
					C866.106,1146.876,866.05,1146.88,865.996,1146.88z"/>
				<g>
					<path style="fill:#363E44;" d="M783.573,911.674l-33.642-26.63c-0.433-0.343-0.506-0.972-0.163-1.405
						c0.343-0.432,0.97-0.507,1.405-0.163l29.592,23.425l-6.439-39.349c-0.089-0.545,0.281-1.059,0.826-1.148
						c0.549-0.088,1.059,0.28,1.148,0.826L783.573,911.674z"/>
					<path style="fill:#363E44;" d="M707.241,932.477l-56.103-72.795c-0.337-0.438-0.256-1.065,0.182-1.402
						c0.438-0.339,1.065-0.256,1.402,0.182l54.222,70.354l22.903-42.485c0.262-0.486,0.868-0.669,1.354-0.405
						c0.486,0.262,0.668,0.868,0.405,1.354L707.241,932.477z"/>
				</g>
			</g>
			<g>
				<path style="fill:#BC8271;" d="M729.941,1125.637c55.013-11.264,179.453-36.878,192.099-39.595
					c23.641-5.078,137.767-28.3,142.269-11.848c4.861,17.763-54.947,23.441-64.743,26.452c12.326-0.55,75.061-17.034,77.755-3.804
					c3.402,16.709-74.652,33.472-75.203,33.822c8.672-1.45,70.262-17.202,73.486-4.071c4.182,17.034-63.091,28.985-73.788,31.356
					c1.099,1.099,45.85-13.995,49.886,0.026c4.282,14.874-48.959,24.262-55.776,27.38c-18.046,7.64-52.58,16.94-91.258,29.482
					c-90.839,29.456-132.331,49.076-179.04,45.061c-20.903-1.797-44.605-26.25-64.694-62.007
					C686.016,1167.05,704.86,1156.478,729.941,1125.637z"/>
				<path style="fill:#FFFFFF;" d="M866.49,1238.717c0,0-167.726,45.731-218.751,12.574c-29.286-19.031-48.359-98.696-48.359-98.696
					l238.103-50.539L866.49,1238.717z"/>
				<path style="fill:#363E44;" d="M635.215,1240.009c-0.391,0-0.762-0.23-0.922-0.613l-72.212-172.087
					c-0.214-0.509,0.025-1.095,0.535-1.309c0.506-0.215,1.096,0.025,1.309,0.535l72.212,172.087
					c0.214,0.509-0.025,1.095-0.535,1.309C635.476,1239.984,635.345,1240.009,635.215,1240.009z"/>
				<path style="fill:#363E44;" d="M684.97,1125.696c-0.487,0-0.914-0.356-0.988-0.854c-0.081-0.546,0.296-1.055,0.843-1.136
					l152.512-22.64c0.545-0.069,1.055,0.296,1.136,0.843c0.081,0.546-0.296,1.055-0.843,1.136l-152.512,22.64
					C685.067,1125.692,685.019,1125.696,684.97,1125.696z"/>
				<path style="fill:#363E44;" d="M740.177,1115.425c-0.446,0-0.854-0.302-0.969-0.754l-29.957-118.116
					c-0.136-0.535,0.189-1.08,0.724-1.216c0.534-0.133,1.08,0.188,1.216,0.724l29.957,118.116c0.136,0.535-0.189,1.08-0.724,1.216
					C740.341,1115.415,740.259,1115.425,740.177,1115.425z"/>
				<path style="fill:#363E44;" d="M983.257,1102.586c-0.483,0-0.908-0.351-0.986-0.844c-0.087-0.545,0.285-1.058,0.831-1.144
					l62.054-9.843c0.547-0.086,1.058,0.285,1.144,0.831c0.087,0.545-0.285,1.058-0.831,1.144l-62.054,9.843
					C983.361,1102.582,983.309,1102.586,983.257,1102.586z"/>
				<path style="fill:#363E44;" d="M989.248,1131.688c-0.477,0-0.899-0.342-0.984-0.827c-0.095-0.545,0.269-1.063,0.813-1.158
					l54.77-9.585c0.553-0.096,1.063,0.27,1.158,0.813c0.095,0.545-0.269,1.063-0.813,1.158l-54.77,9.585
					C989.363,1131.683,989.305,1131.688,989.248,1131.688z"/>
				<path style="fill:#363E44;" d="M993.956,1160.36c-0.471,0-0.891-0.334-0.982-0.813c-0.103-0.543,0.254-1.066,0.796-1.169
					l40.656-7.703c0.548-0.099,1.066,0.254,1.169,0.796c0.103,0.543-0.254,1.066-0.796,1.169l-40.656,7.703
					C994.08,1160.354,994.018,1160.36,993.956,1160.36z"/>
				<path style="fill:#BC8271;" d="M931.488,1104.346c27.369-23.026,32.362-37.132,28.574-41.353
					c-6.369-7.099-39.234,3.881-83.473,32.495C891.237,1099.537,916.841,1100.296,931.488,1104.346z"/>
				<g>
					<path style="fill:#363E44;" d="M922.039,1087.042c-0.461,0-0.876-0.32-0.977-0.79c-0.116-0.54,0.227-1.071,0.768-1.188
						c4.77-1.024,17.64-3.736,34.099-6.778c0.537-0.103,1.065,0.259,1.165,0.802c0.1,0.543-0.259,1.064-0.802,1.165
						c-16.434,3.037-29.281,5.744-34.042,6.767C922.18,1087.035,922.108,1087.042,922.039,1087.042z"/>
				</g>
			</g>
		</g>
		<g>
			<path style="fill:#BC8271;" d="M757.51,801.159c-16.3,11.577-62.696-16.262-62.696-16.262l-28.459-58.844
				c0-28.126,25.587-53.065,53.712-53.065c28.126,0,50.926,22.8,50.926,50.926C770.994,723.914,774.112,789.369,757.51,801.159z"/>
			<polygon style="fill:#BC8271;" points="666.122,839.426 738.636,872.923 738.636,725.268 666.122,725.268 			"/>
			<g>
				<path style="fill:#FFFFFF;" d="M714.128,731.574c0,0,9.344-5.026,20.608-5.025c2.396,0-2.125,19.177-4.4,18.091
					C720.334,739.866,714.128,731.574,714.128,731.574z"/>
				<path style="fill:#363E44;" d="M742.114,727.329c14.245,3.146,23.595,15.639,23.595,15.639s-13.743,7.392-27.986,4.246
					c-2.644-0.585-5.117-1.492-7.395-2.58c-1.709-6.196-0.229-13.071,4.426-18.07C737.147,726.564,739.62,726.777,742.114,727.329z"
					/>
			</g>
			<g>
				<path style="fill:#363E44;" d="M756.928,685.39c1.736-7.784-15.727-22.2-35.307-24.394c-23.99-2.687-52.177,4.992-67.457,31.99
					c-14.68,25.936-14.129,60.242,11.977,87.204c6.459-5.095,12.19-9.422,20.12-15.735c-13.371-13.455-14.129-27.703-8.565-33.908
					c4.748-5.296,13.909-5.777,23.544,2.24c2.889-7.596,7.703-18.83,21.826-29.101C739.403,691.803,755.583,691.423,756.928,685.39z
					"/>
			</g>
			<path style="fill:#363E44;" d="M737.825,805.369c-0.08,0-0.162-0.01-0.243-0.03c-25.591-6.397-42.153-19.313-42.318-19.442
				c-0.433-0.343-0.507-0.971-0.165-1.404c0.343-0.433,0.971-0.508,1.404-0.166c0.161,0.127,16.412,12.785,41.563,19.073
				c0.536,0.134,0.862,0.677,0.727,1.212C738.681,805.066,738.273,805.369,737.825,805.369z"/>
			<path style="fill:#363E44;" d="M751.875,775.292c-2.123,0-4.188-0.804-5.68-2.339c-3.097-3.185-1.922-7.616-1.87-7.804
				c0.146-0.532,0.694-0.846,1.229-0.698c0.532,0.147,0.845,0.697,0.699,1.23c-0.009,0.034-0.926,3.511,1.376,5.878
				c1.831,1.884,4.839,2.278,7.318,0.964c0.487-0.263,1.092-0.074,1.352,0.414c0.26,0.487,0.074,1.093-0.414,1.352
				C754.614,774.963,753.232,775.292,751.875,775.292z"/>
			<path style="fill:#BC8271;" d="M770.717,738.841c-0.149,2.259,0.218,5.938,1.758,9.391c1.856,4.165,5.863,6.754,5.784,9.376
				c-0.054,1.758-2.019,4.395-9.294,6.087L770.717,738.841z"/>
			<path style="fill:#363E44;" d="M690.433,757.898c-0.291,0-0.579-0.126-0.776-0.368c-7.333-9.005-8.505-17.375-5.401-20.264
				c3.283-3.058,10.465,0.082,12.589,1.118c0.496,0.242,0.702,0.841,0.46,1.337c-0.241,0.497-0.837,0.705-1.337,0.46
				c-2.703-1.317-8.344-3.318-10.349-1.452c-2.073,1.93-1.284,9.098,5.589,17.537c0.349,0.429,0.284,1.059-0.143,1.407
				C690.878,757.824,690.654,757.898,690.433,757.898z"/>
		</g>
	</g>
	<g>
		<g>
			<ellipse style="fill:#E0AA63;" cx="1347.964" cy="2065.695" rx="131.716" ry="41.707"/>
			<rect x="1216.248" y="2024.145" style="fill:#E0AA63;" width="263.431" height="42.971"/>
			<ellipse style="fill:#EFBC73;" cx="1347.964" cy="2024.961" rx="131.716" ry="41.707"/>
			<path style="fill:#FFFFFF;" d="M1363.481,2067.669c-35.282,0-68.467-4.354-93.439-12.263
				c-25.328-8.02-39.276-18.832-39.276-30.445c0-11.612,13.948-22.425,39.276-30.444c24.973-7.908,58.157-12.263,93.439-12.263
				s68.466,4.354,93.438,12.263c25.328,8.02,39.276,18.832,39.276,30.444c0,11.613-13.948,22.426-39.276,30.445
				C1431.947,2063.314,1398.764,2067.669,1363.481,2067.669z M1363.481,1984.254c-35.083,0-68.053,4.321-92.835,12.169
				c-24.074,7.623-37.881,18.024-37.881,28.538s13.807,20.916,37.881,28.539c24.782,7.848,57.752,12.169,92.835,12.169
				s68.052-4.321,92.835-12.169c24.073-7.623,37.88-18.025,37.88-28.539s-13.807-20.915-37.88-28.538
				C1431.533,1988.575,1398.564,1984.254,1363.481,1984.254z"/>
		</g>
		<g>
			<ellipse style="fill:#E0AA63;" cx="1375.119" cy="1997.806" rx="131.716" ry="41.707"/>
			<rect x="1243.403" y="1956.257" style="fill:#E0AA63;" width="263.431" height="42.971"/>
			<ellipse style="fill:#EFBC73;" cx="1375.119" cy="1957.073" rx="131.716" ry="41.707"/>
			<path style="fill:#FFFFFF;" d="M1390.637,1999.78c-35.282,0-68.467-4.354-93.439-12.263
				c-25.328-8.02-39.276-18.832-39.276-30.444c0-11.613,13.948-22.426,39.276-30.445c24.973-7.908,58.157-12.263,93.439-12.263
				s68.466,4.354,93.438,12.263c25.328,8.02,39.276,18.832,39.276,30.445c0,11.612-13.948,22.425-39.276,30.444
				C1459.103,1995.426,1425.919,1999.78,1390.637,1999.78z M1390.637,1916.365c-35.083,0-68.053,4.321-92.836,12.169
				c-24.073,7.623-37.88,18.025-37.88,28.539s13.807,20.915,37.88,28.538c24.783,7.848,57.753,12.169,92.836,12.169
				s68.052-4.321,92.835-12.169c24.073-7.623,37.88-18.024,37.88-28.538s-13.807-20.916-37.88-28.539
				C1458.688,1920.687,1425.72,1916.365,1390.637,1916.365z"/>
		</g>
		<g>
			<ellipse style="fill:#E0AA63;" cx="1347.964" cy="1929.917" rx="131.716" ry="41.707"/>
			<rect x="1216.248" y="1888.368" style="fill:#E0AA63;" width="263.431" height="42.971"/>
			<ellipse style="fill:#EFBC73;" cx="1347.964" cy="1889.184" rx="131.716" ry="41.707"/>
			<path style="fill:#FFFFFF;" d="M1363.481,1931.892c-35.282,0-68.467-4.354-93.439-12.263
				c-25.328-8.02-39.276-18.832-39.276-30.444s13.948-22.425,39.276-30.444c24.973-7.908,58.157-12.263,93.439-12.263
				s68.466,4.354,93.438,12.263c25.328,8.02,39.276,18.832,39.276,30.444s-13.948,22.425-39.276,30.444
				C1431.947,1927.537,1398.764,1931.892,1363.481,1931.892z M1363.481,1848.478c-35.083,0-68.053,4.321-92.835,12.169
				c-24.074,7.623-37.881,18.024-37.881,28.538s13.807,20.915,37.881,28.538c24.782,7.848,57.752,12.169,92.835,12.169
				s68.052-4.321,92.835-12.169c24.073-7.623,37.88-18.024,37.88-28.538s-13.807-20.915-37.88-28.538
				C1431.533,1852.799,1398.564,1848.478,1363.481,1848.478z"/>
		</g>
		<g>
			<ellipse style="fill:#E0AA63;" cx="1390.636" cy="1869.543" rx="131.716" ry="41.707"/>
			<rect x="1258.921" y="1827.994" style="fill:#E0AA63;" width="263.431" height="42.971"/>
			<ellipse style="fill:#EFBC73;" cx="1390.636" cy="1828.81" rx="131.716" ry="41.707"/>
			<path style="fill:#FFFFFF;" d="M1406.153,1871.518c-35.282,0-68.466-4.354-93.438-12.263
				c-25.328-8.02-39.276-18.832-39.276-30.444s13.948-22.425,39.276-30.445c24.973-7.907,58.156-12.263,93.438-12.263
				s68.466,4.355,93.439,12.263c25.328,8.021,39.276,18.833,39.276,30.445s-13.948,22.425-39.276,30.444
				C1474.62,1867.163,1441.436,1871.518,1406.153,1871.518z M1406.153,1788.103c-35.082,0-68.052,4.322-92.835,12.17
				c-24.073,7.623-37.88,18.024-37.88,28.538s13.807,20.915,37.88,28.538c24.783,7.848,57.752,12.169,92.835,12.169
				s68.053-4.321,92.835-12.169c24.074-7.623,37.881-18.024,37.881-28.538s-13.807-20.915-37.881-28.538
				C1474.206,1792.425,1441.236,1788.103,1406.153,1788.103z"/>
		</g>
	</g>
	<g>
		<path style="fill:#D87355;" d="M1307.149,1679.479h21.896v9.436h-21.896v24.802h-10.031v-24.802h-21.896v-9.436h21.896v-22.915
			h10.031V1679.479z"/>
		<path style="fill:#D87355;" d="M1351.028,1639.924c0-8.815,2.81-16.081,8.431-21.801c5.618-5.717,12.836-8.579,21.655-8.579
			c8.949,0,16.203,2.875,21.754,8.631c5.553,5.751,8.33,13.206,8.33,22.355v7.166c0,8.882-2.81,16.133-8.431,21.751
			c-5.618,5.618-12.769,8.427-21.451,8.427c-8.752,0-15.987-2.808-21.706-8.427c-5.722-5.618-8.581-13.105-8.581-22.458V1639.924z
			 M1364.961,1647.655c0,5.26,1.478,9.593,4.441,13c2.961,3.405,6.933,5.107,11.914,5.107c4.777,0,8.631-1.651,11.557-4.957
			c2.929-3.304,4.392-7.821,4.392-13.556v-7.386c0-5.259-1.447-9.608-4.34-13.049c-2.896-3.438-6.832-5.159-11.811-5.159
			c-4.981,0-8.92,1.72-11.813,5.159c-2.893,3.441-4.34,7.926-4.34,13.455V1647.655z M1385.555,1747.514l-10.6-6.661l71.779-114.858
			l10.6,6.661L1385.555,1747.514z M1422.605,1722.585c0-8.815,2.81-16.064,8.431-21.751c5.618-5.683,12.836-8.527,21.655-8.527
			c8.815,0,16.05,2.826,21.704,8.478c5.654,5.652,8.48,13.157,8.48,22.507v7.166c0,8.814-2.81,16.066-8.431,21.751
			c-5.618,5.686-12.805,8.527-21.552,8.527c-8.752,0-15.987-2.808-21.706-8.429c-5.722-5.616-8.581-13.103-8.581-22.456V1722.585z
			 M1436.538,1730.417c0,5.327,1.478,9.694,4.441,13.098c2.961,3.407,6.933,5.109,11.914,5.109c4.845,0,8.714-1.669,11.609-5.006
			c2.893-3.337,4.34-7.872,4.34-13.608v-7.487c0-5.327-1.462-9.676-4.392-13.047c-2.927-3.373-6.847-5.06-11.759-5.06
			c-4.779,0-8.666,1.669-11.661,5.006c-2.996,3.34-4.492,7.841-4.492,13.507V1730.417z"/>
	</g>
</g>
</svg>
