<?xml version="1.0" encoding="utf-8"?>
<!-- Generator: Adobe Illustrator 27.5.0, SVG Export Plug-In . SVG Version: 6.00 Build 0)  -->
<svg version="1.1" xmlns="http://www.w3.org/2000/svg" xmlns:xlink="http://www.w3.org/1999/xlink" x="0px" y="0px"
	 viewBox="0 0 2500 2500" style="enable-background:new 0 0 2500 2500;" xml:space="preserve">
-
<g id="Illustration">
	<g id="Marketing_funnel_1_">
		<circle style="fill:transparent;" cx="1250" cy="1250" r="915"/>
		<g>
			<g>
				<polygon style="fill:#EFBC73;" points="1867.022,1886.421 1818.43,2089.917 1395.458,2089.917 1346.866,1886.421 				"/>
				<polygon style="fill:#FFD092;" points="1929.413,1625.124 1883.287,1818.321 1330.601,1818.321 1284.475,1625.124 				"/>
				<polygon style="fill:#FFFFFF;" points="1995.046,1350.249 1945.677,1557.039 1268.21,1557.039 1218.841,1350.249 				"/>
				<path style="fill:#BC8271;" d="M1857.557,2118.996h-422.971c-1.021,0-1.908-0.7-2.145-1.692l-48.592-203.496
					c-0.157-0.657-0.004-1.348,0.413-1.878c0.419-0.53,1.056-0.84,1.731-0.84h520.155c0.675,0,1.312,0.31,1.731,0.84
					c0.418,0.53,0.571,1.221,0.413,1.878l-48.592,203.496C1859.465,2118.296,1858.578,2118.996,1857.557,2118.996z
					 M1436.327,2114.587h419.489l47.539-199.086h-514.568L1436.327,2114.587z"/>
				<path style="fill:#BC8271;" d="M1922.414,1847.401h-552.685c-1.021,0-1.908-0.7-2.144-1.692l-46.127-193.197
					c-0.157-0.657-0.004-1.348,0.413-1.878c0.419-0.53,1.056-0.84,1.731-0.84h644.938c0.675,0,1.313,0.31,1.731,0.84
					c0.418,0.53,0.571,1.221,0.413,1.878l-46.126,193.197C1924.322,1846.701,1923.434,1847.401,1922.414,1847.401z
					 M1371.47,1842.991h549.203l45.073-188.788h-639.35L1371.47,1842.991z"/>
				<path style="fill:#BC8271;" d="M1984.804,1586.119h-677.467c-1.021,0-1.908-0.7-2.145-1.692l-49.368-206.79
					c-0.157-0.657-0.004-1.348,0.414-1.877c0.418-0.53,1.055-0.84,1.73-0.84h776.205c0.675,0,1.312,0.31,1.731,0.84
					c0.418,0.53,0.571,1.221,0.413,1.877l-49.369,206.79C1986.712,1585.419,1985.825,1586.119,1984.804,1586.119z
					 M1309.078,1581.709h673.986l48.317-202.38h-770.618L1309.078,1581.709z"/>
			</g>
		</g>
		<g>
			<g>
				<path style="fill:#FFFFFF;" d="M1832.352,1023.716c-66.449,0-120.51-54.061-120.51-120.511
					c0-66.448,54.061-120.509,120.51-120.509c66.45,0,120.511,54.061,120.511,120.509
					C1952.864,969.654,1898.802,1023.716,1832.352,1023.716z M1832.352,787.105c-64.018,0-116.101,52.082-116.101,116.1
					c0,64.019,52.082,116.102,116.101,116.102s116.102-52.082,116.102-116.102C1948.454,839.187,1896.37,787.105,1832.352,787.105z"
					/>
				<path style="fill:#FFFFFF;" d="M1832.352,903.946c-37.628,0-62.053,14.405-62.053,37.497
					c11.735,22.29,35.112,37.497,62.053,37.497c26.941,0,50.318-15.207,62.053-37.497
					C1894.406,919.565,1867.553,903.946,1832.352,903.946z"/>
				<circle style="fill:#FFFFFF;" cx="1832.353" cy="853.981" r="32.001"/>
			</g>
			<g>
				<path style="fill:#FFFFFF;" d="M1286.148,1308.025c-68.012,0-123.345-55.332-123.345-123.343
					c0-68.014,55.333-123.345,123.345-123.345s123.344,55.331,123.344,123.345
					C1409.492,1252.694,1354.161,1308.025,1286.148,1308.025z M1286.148,1065.747c-65.582,0-118.935,53.355-118.935,118.935
					c0,65.58,53.354,118.933,118.935,118.933c65.58,0,118.934-53.353,118.934-118.933
					C1405.082,1119.102,1351.729,1065.747,1286.148,1065.747z"/>
				<path style="fill:#FFFFFF;" d="M1286.147,1185.44c-38.529,0-63.539,14.75-63.539,38.395
					c12.016,22.824,35.953,38.395,63.539,38.395c27.586,0,51.523-15.571,63.539-38.395
					C1349.687,1201.434,1322.191,1185.44,1286.147,1185.44z"/>
				
					<ellipse transform="matrix(0.2298 -0.9732 0.9732 0.2298 -113.2838 2125.416)" style="fill:#FFFFFF;" cx="1286.148" cy="1134.278" rx="32.768" ry="32.768"/>
			</g>
			<g>
				<path style="fill:#EFBC73;" d="M1996.348,620.397c-70.426,0-127.722-57.295-127.722-127.722
					c0-70.427,57.296-127.722,127.722-127.722c70.427,0,127.723,57.295,127.723,127.722
					C2124.071,563.102,2066.775,620.397,1996.348,620.397z M1996.348,369.362c-67.995,0-123.313,55.319-123.313,123.313
					c0,67.994,55.318,123.313,123.313,123.313s123.314-55.319,123.314-123.313C2119.661,424.681,2064.343,369.362,1996.348,369.362z
					"/>
				<polygon style="fill:#EFBC73;" points="2070.31,492.675 1952.113,424.434 1952.113,560.916 				"/>
			</g>
			<g>
				<circle style="fill:#FFFFFF;" cx="1592.685" cy="1115.846" r="108.103"/>
				<path style="fill:#D87355;" d="M1538.335,1093.985c4.076-13.102,16.296-22.615,30.739-22.615l0,0h0.001
					c9.343,0,17.731,4.006,23.61,10.364c5.879-6.358,14.267-10.364,23.61-10.364l0,0h0.001c14.442,0,26.663,9.513,30.738,22.615
					c0.94,3.023,1.447,6.238,1.447,9.571c0,17.776-21.02,47.95-55.796,61.087c-34.777-13.137-55.796-43.312-55.796-61.087
					C1536.889,1100.223,1537.395,1097.008,1538.335,1093.985z"/>
			</g>
			<g>
				<path style="fill:#EFBC73;" d="M1925.113,1291.263c-16.499,0-33.217-4.003-48.691-12.447
					c-23.917-13.052-41.32-34.638-49.003-60.779c-7.682-26.141-4.726-53.708,8.326-77.627
					c13.052-23.915,34.636-41.319,60.778-49.001c26.141-7.68,53.709-4.728,77.625,8.326c23.917,13.052,41.32,34.635,49.003,60.777
					c7.682,26.141,4.725,53.708-8.326,77.627C1996.326,1272.036,1961.255,1291.263,1925.113,1291.263z M1925.42,1091.634
					c-9.245,0-18.537,1.326-27.654,4.005c-25.011,7.351-45.663,24.001-58.15,46.885c-12.488,22.881-15.318,49.26-7.967,74.271
					s24.001,45.662,46.885,58.15c47.24,25.782,106.643,8.322,132.419-38.92c12.488-22.881,15.318-49.26,7.967-74.271
					c-7.351-25.011-24.001-45.662-46.885-58.148C1957.493,1095.669,1941.536,1091.634,1925.42,1091.634z"/>
				<polygon style="fill:#EFBC73;" points="1993.545,1207.539 1955.197,1178.758 1957.167,1130.851 1917.944,1158.429 
					1872.991,1141.752 1887.098,1187.576 1857.345,1225.176 1905.286,1225.92 1931.852,1265.835 1947.374,1220.47 				"/>
			</g>
			<g>
				<circle style="fill:#FFFFFF;" cx="1362.336" cy="854.522" r="143.105"/>
				<g>
					<path style="fill:#D87355;" d="M1437.263,847.218c-0.661,15.367-4.456,27.565-11.389,36.597
						c-6.932,9.035-16.25,13.55-27.953,13.55c-5.163,0-9.619-1.111-13.37-3.331c-3.752-2.22-6.588-5.402-8.508-9.543
						c-6.002,8.404-13.835,12.605-23.497,12.605c-8.764,0-15.546-3.693-20.347-11.074c-4.803-7.383-6.603-17.137-5.401-29.261
						c1.08-9.902,3.586-18.711,7.518-26.423c3.929-7.71,8.897-13.638,14.9-17.781c6.001-4.141,12.483-6.212,19.446-6.212
						c8.583,0,15.904,1.981,21.968,5.943l5.671,3.871l-4.592,52.037c-0.601,4.741-0.075,8.371,1.576,10.893
						c1.649,2.521,4.276,3.781,7.877,3.781c5.522,0,10.142-3.225,13.864-9.678c3.722-6.451,5.763-14.9,6.122-25.343
						c1.02-20.946-3.196-37.047-12.649-48.301c-9.453-11.252-23.453-16.881-41.999-16.881c-11.584,0-21.908,2.941-30.97,8.824
						c-9.064,5.882-16.206,14.241-21.427,25.073c-5.223,10.835-8.164,23.243-8.824,37.228c-0.96,21.245,3.301,37.676,12.784,49.29
						c9.483,11.614,23.678,17.421,42.584,17.421c4.981,0,10.203-0.556,15.665-1.667c5.462-1.111,10.174-2.597,14.135-4.455
						l3.42,13.864c-3.661,2.401-8.598,4.336-14.809,5.807s-12.469,2.205-18.771,2.205c-15.845,0-29.349-3.195-40.514-9.588
						c-11.164-6.391-19.491-15.815-24.983-28.269c-5.492-12.454-7.878-27.323-7.158-44.609c0.72-16.566,4.502-31.421,11.344-44.566
						c6.843-13.145,16.16-23.301,27.954-30.476c11.794-7.17,25.104-10.757,39.928-10.757c15.066,0,28.03,3.225,38.893,9.678
						c10.863,6.451,18.996,15.679,24.398,27.683C1435.553,817.36,1437.923,831.315,1437.263,847.218z M1346.784,856.761
						c-0.661,7.924,0.029,13.942,2.07,18.052c2.04,4.112,5.342,6.167,9.903,6.167c2.94,0,5.731-1.29,8.372-3.871
						c2.641-2.579,4.831-6.302,6.573-11.164l3.781-42.583c-2.34-0.779-4.741-1.171-7.202-1.171c-6.902,0-12.259,2.941-16.07,8.824
						C1350.399,836.896,1347.923,845.478,1346.784,856.761z"/>
				</g>
			</g>
			<g>
				
					<ellipse transform="matrix(0.7071 -0.7071 0.7071 0.7071 39.5289 1034.3525)" style="fill:#FFFFFF;" cx="1268.338" cy="469.461" rx="119.404" ry="119.404"/>
				<path style="fill:#E2A18D;" d="M1281.23,597.759c-67.055,0-121.61-54.554-121.61-121.61s54.554-121.607,121.61-121.607
					c67.055,0,121.608,54.552,121.608,121.607S1348.286,597.759,1281.23,597.759z M1281.23,358.952
					c-64.625,0-117.2,52.576-117.2,117.198c0,64.624,52.575,117.2,117.2,117.2c64.623,0,117.199-52.576,117.199-117.2
					C1398.429,411.527,1345.854,358.952,1281.23,358.952z"/>
				<g>
					<polygon style="fill:#D87355;" points="1239.583,538.183 1219.465,538.183 1255.328,419.477 1275.446,419.477 					"/>
					<polygon style="fill:#D87355;" points="1341.648,464.825 1347.429,445.556 1223.424,445.791 1217.643,465.06 					"/>
					<polygon style="fill:#D87355;" points="1290.744,538.183 1270.626,538.183 1306.489,419.477 1326.607,419.477 					"/>
					<polygon style="fill:#D87355;" points="1326.945,513.828 1332.726,494.558 1208.722,494.794 1202.94,514.063 					"/>
				</g>
			</g>
			<g>
				
					<ellipse transform="matrix(0.7071 -0.7071 0.7071 0.7071 52.2571 1324.2319)" style="fill:#FFFFFF;" cx="1624.618" cy="599.036" rx="166.639" ry="166.639"/>
				<path style="fill:#E2A18D;" d="M1640.042,747.187c-2.119,0-4.239-0.039-6.367-0.118
					c-93.037-3.426-165.942-81.906-162.517-174.943c3.427-93.035,81.899-165.917,174.942-162.515
					c45.07,1.66,86.795,20.771,117.491,53.813c30.695,33.042,46.686,76.06,45.026,121.129c-1.66,45.068-20.77,86.793-53.812,117.488
					C1723.323,731.289,1682.781,747.187,1640.042,747.187z M1473.362,572.208l2.204,0.082
					c-3.336,90.606,67.665,167.037,158.271,170.374c43.909,1.608,85.788-13.955,117.967-43.851
					c32.179-29.894,50.791-70.53,52.406-114.422c1.617-43.892-13.956-85.786-43.85-117.964
					c-29.893-32.181-70.53-50.793-114.421-52.41c-90.64-3.318-167.036,67.667-170.373,158.273L1473.362,572.208z"/>
				<g>
					<path style="fill:#D87355;" d="M1727.548,601.543c6.435,1.856,10.983,8.013,10.431,15.062
						c-0.612,7.817-7.569,13.613-15.404,13.325l-3.986-0.147c5.676,2.311,9.526,8.085,8.988,14.621
						c-0.641,7.798-7.608,13.555-15.427,13.267l-70.188-2.584c-18.425-0.678-34.636-12.369-41.097-29.639l0,0l0.033-0.89
						l3.059-83.092l0.026,0.001l-0.026-0.016c0,0,30.595-13.267,62.289-37.617c6.369-4.893,22.821,7.471,12.488,28.153
						c-1.879,3.76-4.909,7.87-8.402,11.923l45.948,1.692c7.991,0.294,14.708,7.083,14.395,15.073
						c-0.207,5.272-3.214,9.764-7.527,12.133l1.526,0.056c7.836,0.289,14.346,6.581,14.383,14.421
						C1739.092,594.359,1734.103,600.165,1727.548,601.543z"/>
					
						<rect x="1540.158" y="527.885" transform="matrix(0.9993 0.0368 -0.0368 0.9993 22.5777 -57.2992)" style="fill:#D87355;" width="55.634" height="113.697"/>
				</g>
			</g>
		</g>
		<g>
			<g>
				<g>
					<path style="fill:#FFFFFF;" d="M810.214,1927.979c0,0-35.191,22.796-62.761,112.746
						c132.492,72.804,199.397,108.03,200.737,105.692c0.023-0.042,0.026-0.095,0.009-0.161c5.373-11.49,8.043-22.193,9.149-31.752
						c10.099-87.294-101.194-157.022-110.46-162.669C834.663,1943.883,822.438,1935.932,810.214,1927.979z"/>
					<path style="fill:#E2A18D;" d="M842.359,1863.956l-41.563,77.897c-8.834,16.558-2.422,37.142,14.253,45.753l0,0
						c15.153,7.825,33.763,3.081,43.321-11.042l37.909-56.017L842.359,1863.956z"/>
				</g>
				<path style="fill:#363E44;" d="M889.319,1087.659c0,0,120.151,267.82,125.088,515.079
					c4.715,236.133-125.088,356.197-125.088,356.197l-74.137-72.467c0,0,87.507-388.542-92.435-556.989l-24.014-218.44
					L889.319,1087.659z"/>
				<path style="fill:#F2E6DC;" d="M707.605,2012.736c0,0-20.096,64.647-18.706,136.941c0,0,129.601,0,160.815,0
					c-0.029-0.086-5.07-90.389-100.298-136.941H707.605z"/>
				<path style="fill:#E2A18D;" d="M677.081,1950.003c1.007,2.642,17.701,50.054,26.825,75.984
					c5.358,15.228,21.751,23.809,37.18,19.062c0.25-0.077,0.501-0.157,0.752-0.239c14.532-4.772,22.851-20.076,19.643-35.031
					l-16.748-78.061L677.081,1950.003z"/>
				<path style="fill:#363E44;" d="M672.268,1982.816c0,0,49.363,13.919,105.945-14.713c0,0-28.827-514.989,23.052-711.795
					l-17.962-135.194l-206.337,34.794C576.966,1155.908,508.662,1520.22,672.268,1982.816z"/>
				<path style="fill:#FFFFFF;" d="M779.416,1396.593c-0.116,0-0.232-0.009-0.35-0.028c-1.203-0.192-2.022-1.32-1.831-2.524
					l9.19-57.743c0.192-1.204,1.333-2.026,2.525-1.83c1.202,0.192,2.022,1.32,1.831,2.523l-9.19,57.743
					C781.418,1395.82,780.481,1396.593,779.416,1396.593z"/>
			</g>
			<g>
				<g>
					<path style="fill:#E2A18D;" d="M897.386,1063.551c61.525-31.432,244.639-111.275,210.271-187.783
						c-28.428-63.283-203.327,22.341-266.446,49.593C859.936,971.424,878.661,1017.488,897.386,1063.551z"/>
					<g>
						<path style="fill:#E2A18D;" d="M977.832,904.983c0,0,61.238-166.242,85.045-219.922
							c25.003-56.376,70.127-135.97,81.18-129.514c6.296,3.677,2.386,15.805-10.219,47.525c2.241-0.966,9.752-2.215,15.033,2.153
							c7.814,6.464,4.324,14.212,4.341,15.037c0.733-0.389,9.324-4.376,15.287-0.935c6.717,3.876,8.236,10.282,7.524,16.327
							c1.85-0.909,10.33-3.467,15.889,0.126c7.229,4.671,6.832,14.19,3.856,20.642c-5.461,11.836-21.186,43.807-27.343,61.777
							c-12.117,35.361-38.289,166.712-69.31,213.192C1070.042,892.738,977.832,904.983,977.832,904.983z"/>
						<path style="fill:#363E44;" d="M1124.868,712.879c-0.059,0-0.12-0.002-0.18-0.006c-1.213-0.099-2.118-1.163-2.02-2.375
							c1.051-13.003-2.998-22.875-6.251-30.807c-3.394-8.277-6.326-15.423-0.226-21.157c3.505-3.296,6.107-9.123,7.524-16.853
							c0.391-2.132-1.128-3.221-1.603-3.503c-0.996-0.594-2.548-0.838-3.92,0.269l-31.23,25.138
							c-0.947,0.76-2.337,0.611-3.099-0.336c-0.764-0.947-0.614-2.336,0.335-3.101l31.23-25.138
							c2.581-2.073,6.091-2.319,8.941-0.622c2.829,1.686,4.275,4.86,3.683,8.089c-1.609,8.785-4.584,15.268-8.84,19.268
							c-3.724,3.501-2.209,7.751,1.284,16.271c3.25,7.926,7.702,18.782,6.566,32.833
							C1126.97,712.005,1126.006,712.879,1124.868,712.879z"/>
						<path style="fill:#363E44;" d="M1179.384,675.697c-0.308,0-0.619-0.065-0.916-0.2c-8.299-3.798-13.213-12.206-12.964-20.911
							l-0.37,0.577c-3.924,6.106-11.64,8.529-18.352,5.77c-3.779-1.555-6.699-4.498-8.224-8.29c-1.524-3.79-1.456-7.934,0.194-11.67
							l1.398-3.167c-3.4,1.434-7.4,1.367-10.845-0.53c-5.558-3.053-7.93-9.78-5.517-15.645l5.584-13.576
							c0.462-1.126,1.749-1.66,2.878-1.201c1.126,0.463,1.663,1.75,1.2,2.877l-5.584,13.578c-1.558,3.79-0.026,8.133,3.562,10.105
							c3.808,2.091,8.672,0.73,10.839-3.038l5.05-8.774c0.585-1.016,1.86-1.397,2.908-0.866c1.045,0.53,1.493,1.785,1.021,2.857
							l-8.459,19.161c-1.166,2.64-1.214,5.568-0.138,8.244c1.078,2.678,3.14,4.758,5.81,5.856c4.74,1.949,10.194,0.235,12.965-4.078
							l8.507-13.233c0.611-0.947,1.838-1.283,2.844-0.777c1.008,0.506,1.471,1.69,1.075,2.745l-2.815,7.493
							c-3.278,8.727,0.792,18.603,9.268,22.483c1.108,0.506,1.594,1.815,1.087,2.922
							C1181.02,675.219,1180.22,675.697,1179.384,675.697z"/>
					</g>
				</g>
				<path style="fill:#ff6900;" d="M515.129,1106.047l-52.558-163.497c66.972-94.01,254.094-84.241,355.333-69.155
					c150.583,22.438,226.51-166.76,226.51-166.76l121.548,64.312c-59.807,258.589-252.016,292.602-252.016,292.602l25.722,134.634
					c-20.323,15.772-58.973,41.481-100.283,58.896c0,0-68.493,25.725-299.696,30.236l-16.104-68.72L515.129,1106.047z"/>
				<g>
					
						<ellipse transform="matrix(0.7071 -0.7071 0.7071 0.7071 -677.1375 819.3856)" style="fill:#FFFFFF;" cx="650.517" cy="1227.07" rx="132.06" ry="132.06"/>
					<polygon style="fill:#D87355;" points="740.841,1251.239 690.099,1213.154 692.705,1149.762 640.804,1186.254 581.32,1164.186 
						599.987,1224.823 560.618,1274.576 624.055,1275.561 659.207,1328.377 679.747,1268.349 					"/>
				</g>
				<path style="fill:#E2A18D;" d="M349.863,1152.566c18.174,7.033,27.02-1.019,45.901,3.636
					c18.205,4.489,36.665,8.088,55.258,10.688c19.705-60.588,67.411-97.046,67.411-97.046L445.09,967.23
					c0,0-80.925,54.807-104.85,170.225C340.139,1137.941,349.959,1152.082,349.863,1152.566z"/>
				<path style="fill:#E2A18D;" d="M341.137,1131.35c-17.354,65.03,162.447,143.291,209.197,164.038
					c5.351,4.856,14.1,11.301,25.901,13.233c13.453,2.202,17.987-3.569,32.545-3.456c24.572,0.191,35.886,17.486,41.831,11.126
					c4.081-4.365-2.076-14.728-10.149-22.719c-8.289-8.204-17.103-10.021-16.581-11.858c0.573-2.016,9.289,0.987,20.469,3.727
					c5.194,1.273,17.304,13.552,23.758,8.41c5.145-4.099-4.25-20.015-18.529-27.501c-10.102-5.296-20.894-2.826-20.947-4.908
					c-0.039-1.562,6.428-2.875,12.339-2.347c9.754,0.871,22.279,13.301,28.126,8.453c5.73-4.75-2.72-18.506-15.417-26.223
					c-10.705-6.507-22.609-3.177-22.689-5.764c-0.056-1.82,4.963-4.418,16.617-6.493c9.728-1.732,29.761,1.173,29.469-9.277
					c-0.246-8.789-21.212-12.336-41.144-12.035c-13.206,0.2-26.547,1.949-34.286,2.643c2.058-3.576,5.461-8.943,10.541-14.738
					c9.061-10.337,13.661-12.863,11.648-18.746c-2.074-6.062-12.702-3.305-23.551,2.843c-12.941,7.334-19.266,17.72-23.962,22.832
					c-22.538-14.82-123.141-84.77-145.679-99.59C397.776,1086.707,350.48,1096.336,341.137,1131.35z"/>
				<path style="fill:#ff6900;" d="M551.031,1177.668c-13.32,36.327-26.639,72.652-39.959,108.979
					c-95.087-22.128-166.273-71.295-173.694-130.64c-3.876-31.002,10.532-57.71,32.29-96.87
					c38.081-68.537,85.334-113.834,118.038-140.544c40.365,25.393,80.729,50.785,121.094,76.178
					c-27.522,27.302-55.234,55.566-83.063,84.817c-13.74,14.443-27.238,28.842-40.497,43.188
					C507.17,1141.072,529.1,1159.37,551.031,1177.668z"/>
				<path style="fill:#363E44;" d="M482.145,1120.577c-0.531,0-1.064-0.192-1.487-0.577l-17.222-15.752
					c-0.899-0.823-0.961-2.218-0.139-3.116c0.82-0.9,2.214-0.96,3.115-0.14l17.222,15.752c0.899,0.823,0.961,2.218,0.139,3.116
					C483.338,1120.336,482.742,1120.577,482.145,1120.577z"/>
				<path style="fill:#363E44;" d="M913.944,1062.821c-1.052,0-1.983-0.756-2.17-1.826l-2.881-16.549
					c-0.209-1.201,0.594-2.343,1.795-2.551c1.213-0.2,2.341,0.596,2.55,1.794l2.881,16.549c0.209,1.202-0.594,2.343-1.795,2.552
					C914.196,1062.81,914.069,1062.821,913.944,1062.821z"/>
			</g>
			<g>
				<path style="fill:#E2A18D;" d="M718.562,757.139L718.562,757.139c-18.204,0.227-32.777,15.168-32.55,33.372l0.862,69.082
					c0.227,18.204,15.169,32.777,33.373,32.549l0,0c18.204-0.227,32.777-15.169,32.55-33.372l-0.862-69.081
					C751.708,771.485,736.766,756.912,718.562,757.139z"/>
				<g>
					<path style="fill:#E2A18D;" d="M664.684,688.102c2.13-1.974,22.806-20.572,47.572-15.609
						c18.428,3.693,30.582,17.19,47.544,42.912c19.975,30.29,27.685,51.187,23.723,63.185
						c-6.258,18.957-60.808,28.761-94.718,14.856c-24.477-10.037-41.066-34.34-43.48-60.872
						C642.919,706.116,663.325,689.362,664.684,688.102z"/>
					<g>
						<path style="fill:#FFFFFF;" d="M705.036,737.508c0,0,9.043,6.43,20.726,7.882c2.472,0.307,0.221-20.135-2.289-19.297
							C712.519,729.747,705.036,737.508,705.036,737.508z"/>
						<path style="fill:#363E44;" d="M759.936,732.397c0,0-13.274-9.438-28.435-8.026c-2.813,0.262-5.493,0.88-7.993,1.711
							c-2.576,6.2-1.934,13.518,2.248,19.302c2.474,0.308,5.064,0.398,7.715,0.151C748.631,744.123,759.936,732.397,759.936,732.397
							z"/>
					</g>
					<path style="fill:#363E44;" d="M757.846,762.102c-0.421,0-0.843-0.028-1.266-0.088c-4.181-0.601-6.63-4.029-7.417-5.958
						c-0.461-1.128,0.081-2.416,1.208-2.874c1.133-0.467,2.415,0.08,2.874,1.208c0.046,0.11,1.241,2.868,3.96,3.258
						c2.182,0.321,4.422-0.997,5.417-3.189c0.501-1.111,1.807-1.6,2.918-1.098c1.11,0.504,1.601,1.811,1.098,2.92
						C765.026,759.839,761.528,762.102,757.846,762.102z"/>
					<path style="fill:#E2A18D;" d="M762.977,723.116c0.985,1.467,2.635,3.469,5.233,4.869c3.133,1.689,5.326,1.25,6.527,2.909
						c0.805,1.112,1.229,3.254-0.95,7.825L762.977,723.116z"/>
					<path style="fill:#363E44;" d="M716.631,618.63c-4.602,2.652-14.046,8.095-18.648,10.747c2.165,1.758,3.85,4.012,4.817,6.619
						c1.975,5.323,0.259,10.136-0.297,11.529c-0.331-1.59-1.532-6.348-5.915-10.263c-2.04-1.822-4.173-2.926-6.023-3.61
						c-5.56,3.204-11.118,6.407-16.678,9.611c3.927,2.753,9.092,6.906,7.941,10.848c-2.262,7.753-18.079,8.826-28.753,16.29
						c-8.597,6.011-20.935,19.637-16.074,46.563c-5.589,6.507-13.611,18.244-13.502,33.021c0.19,25.841,25.175,51.719,62.483,58.784
						c4.013,0.1,21.695-22.299,9.525-28.486c-4.693-10.009-9.386-20.018-14.08-30.027c7.398,6.674,14.797,13.347,22.195,20.021
						c2.686-1.828,5.372-3.656,8.058-5.485c-6.36-5.038-16.955-14.96-23.381-30.837c-2.576-6.365-3.917-12.29-4.614-17.253
						c5.39-0.603,13.435-2.172,21.916-6.741c20.225-10.895,38.905-34.293,34.141-59.499
						C736.732,634.529,722.617,621.377,716.631,618.63z"/>
					<path style="fill:#363E44;" d="M773.786,740.924c-0.319,0-0.642-0.069-0.947-0.215c-1.099-0.523-1.565-1.839-1.042-2.939
						c1.521-3.191,1.594-4.976,1.155-5.581c-0.2-0.278-0.66-0.426-1.741-0.723c-1.091-0.302-2.448-0.678-4.046-1.539
						c-2.36-1.27-4.385-3.148-6.018-5.579c-0.679-1.01-0.41-2.381,0.601-3.06c1.008-0.68,2.381-0.409,3.06,0.601
						c1.229,1.83,2.726,3.23,4.448,4.158c1.162,0.624,2.162,0.9,3.13,1.169c1.481,0.409,3.012,0.831,4.138,2.388
						c1.644,2.269,1.401,5.562-0.746,10.066C775.4,740.461,774.609,740.924,773.786,740.924z"/>
					<g>
						<path style="fill:#E2A18D;" d="M701.469,746.659c11.206,5.792,16.321,18.166,11.425,27.637
							c-4.896,9.471-17.949,12.454-29.155,6.662c-11.206-5.792-16.321-18.166-11.425-27.638
							C677.211,743.849,690.264,740.867,701.469,746.659z"/>
						<path style="fill:#363E44;" d="M690.27,775.626c-0.22,0-0.443-0.032-0.664-0.101c-0.857-0.271-1.704-0.622-2.519-1.044
							c-6.764-3.495-9.794-11.13-6.751-17.014c0.768-1.486,1.852-2.745,3.224-3.744c0.985-0.715,2.365-0.5,3.081,0.484
							c0.716,0.984,0.5,2.364-0.484,3.081c-0.814,0.592-1.454,1.333-1.904,2.203c-1.925,3.727,0.255,8.694,4.86,11.074
							c0.592,0.306,1.204,0.56,1.82,0.754c1.161,0.366,1.805,1.604,1.439,2.767C692.075,775.025,691.206,775.626,690.27,775.626z"/>
					</g>
				</g>
				
					<ellipse transform="matrix(0.1202 -0.9927 0.9927 0.1202 -238.2759 1492.2645)" style="fill:#E2A18D;" cx="722.816" cy="880.57" rx="25.217" ry="63.909"/>
			</g>
		</g>
	</g>
</g>
</svg>
