<?xml version="1.0" encoding="utf-8"?>
<!-- Generator: Adobe Illustrator 27.5.0, SVG Export Plug-In . SVG Version: 6.00 Build 0)  -->
<svg version="1.1" xmlns="http://www.w3.org/2000/svg" xmlns:xlink="http://www.w3.org/1999/xlink" x="0px" y="0px"
	 viewBox="0 0 2500 2500" style="enable-background:new 0 0 2500 2500;" xml:space="preserve">
-
<g id="Illustration">
	<g id="Shipping_information_1_">
		<circle style="fill:transparent;" cx="1250" cy="1250" r="915"/>
		<g>
			<g>
				<rect x="1457.168" y="1624.927" style="fill:#EFBC73;" width="687.885" height="510.086"/>
				<path style="fill:#E0AA63;" d="M1627.375,2106.395c-0.553,0-1-0.448-1-1v-450.85c0-0.552,0.447-1,1-1s1,0.448,1,1v450.85
					C1628.375,2105.947,1627.928,2106.395,1627.375,2106.395z"/>
				<path style="fill:#E0AA63;" d="M1934.527,2106.395c-0.553,0-1-0.448-1-1v-299.942c0-0.552,0.447-1,1-1s1,0.448,1,1v299.942
					C1935.527,2105.947,1935.08,2106.395,1934.527,2106.395z"/>
				<g>
					<path style="fill:#F7F1EB;" d="M1999.716,1788.334c-0.261,0-0.517-0.102-0.708-0.293l-34.592-34.646l-28.901,28.944
						c-0.375,0.376-1.041,0.376-1.416,0l-29.832-29.876l-34.22,34.272c-0.285,0.287-0.716,0.372-1.091,0.217
						c-0.373-0.154-0.617-0.519-0.617-0.924v-154.342c0-0.552,0.447-1,1-1s1,0.448,1,1v151.925l33.22-33.271
						c0.375-0.376,1.041-0.376,1.416,0l29.832,29.877l28.901-28.944c0.375-0.376,1.041-0.376,1.416,0l33.592,33.644v-153.231
						c0-0.552,0.447-1,1-1s1,0.448,1,1v155.648c0,0.405-0.244,0.77-0.617,0.924
						C1999.975,1788.309,1999.845,1788.334,1999.716,1788.334z"/>
				</g>
			</g>
			<g>
				<rect x="1644.375" y="1295.222" style="fill:#E0AA63;" width="444.434" height="329.56"/>
				<path style="fill:#EFBC73;" d="M1754.343,1606.646c-0.553,0-1-0.448-1-1v-291.288c0-0.552,0.447-1,1-1s1,0.448,1,1v291.288
					C1755.343,1606.199,1754.896,1606.646,1754.343,1606.646z"/>
				<path style="fill:#EFBC73;" d="M1952.791,1606.646c-0.553,0-1-0.448-1-1v-193.789c0-0.552,0.447-1,1-1s1,0.448,1,1v193.789
					C1953.791,1606.199,1953.344,1606.646,1952.791,1606.646z"/>
				<g>
					<path style="fill:#F7F1EB;" d="M1994.908,1401.151c-0.261,0-0.517-0.102-0.708-0.293l-22.1-22.133l-18.422,18.45
						c-0.375,0.376-1.041,0.376-1.416,0l-19.023-19.052l-21.858,21.893c-0.286,0.287-0.717,0.372-1.091,0.217
						c-0.373-0.154-0.617-0.519-0.617-0.924v-99.719c0-0.552,0.447-1,1-1s1,0.448,1,1v97.302l20.858-20.891
						c0.375-0.376,1.041-0.376,1.416,0l19.023,19.052l18.422-18.45c0.375-0.376,1.041-0.376,1.416,0l21.1,21.131v-98.145
						c0-0.552,0.447-1,1-1s1,0.448,1,1v100.562c0,0.405-0.244,0.77-0.617,0.924
						C1995.167,1401.126,1995.037,1401.151,1994.908,1401.151z"/>
				</g>
			</g>
		</g>
		<g>
			<g>
				<polygon style="fill:#E0AA63;" points="1661.869,1258.59 1407.761,1258.59 1441.523,419.496 1661.869,553.308 				"/>
				<rect x="1061.222" y="419.496" style="fill:#FFD092;" width="380.301" height="839.095"/>
				
					<rect x="1657.438" y="419.496" transform="matrix(-1 -1.224647e-16 1.224647e-16 -1 3695.1768 1678.0863)" style="fill:#FFD092;" width="380.301" height="839.095"/>
				<polygon style="fill:#FFFFFF;" points="1106.496,1213.315 1106.496,464.771 1441.523,464.771 1460.513,484.612 
					1502.044,1213.315 				"/>
				<polygon style="fill:#F2E6DC;" points="1661.869,1213.315 1441.523,1213.315 1441.523,464.771 1661.869,598.583 				"/>
				<path style="fill:#E6D0BE;" d="M1656.842,755.53c-0.179,0-0.359-0.048-0.522-0.148l-215.849-132.658h-333.975
					c-0.553,0-1-0.448-1-1c0-0.552,0.447-1,1-1h334.257c0.185,0,0.366,0.051,0.523,0.148l216.09,132.806
					c0.471,0.289,0.618,0.905,0.328,1.376C1657.506,755.361,1657.178,755.53,1656.842,755.53z"/>
				<path style="fill:#E6D0BE;" d="M1656.635,1117.023c-0.258,0-0.517-0.1-0.712-0.298L1441.104,898.9H1189.5c-0.553,0-1-0.448-1-1
					v-433.13c0-0.552,0.447-1,1-1s1,0.448,1,1V896.9h251.022c0.268,0,0.524,0.107,0.712,0.298l215.112,218.123
					c0.388,0.393,0.384,1.026-0.01,1.414C1657.143,1116.927,1656.889,1117.023,1656.635,1117.023z"/>
				<path style="fill:#E6D0BE;" d="M1234.3,1210.263c-0.256,0-0.512-0.098-0.707-0.293c-0.391-0.391-0.391-1.023,0-1.414
					l81.678-81.677V729.874h-206.079c-0.553,0-1-0.448-1-1s0.447-1,1-1h207.079c0.553,0,1,0.448,1,1v398.419
					c0,0.265-0.105,0.52-0.293,0.707l-81.971,81.97C1234.812,1210.166,1234.556,1210.263,1234.3,1210.263z"/>
				<path style="fill:#E6D0BE;" d="M1551.695,1210.263c-0.553,0-1-0.448-1-1V790.396c0-0.245,0.09-0.482,0.253-0.665
					l105.742-118.871c0.366-0.414,0.997-0.45,1.412-0.083c0.412,0.367,0.449,0.999,0.082,1.412l-105.489,118.586v418.486
					C1552.695,1209.815,1552.248,1210.263,1551.695,1210.263z"/>
				<path style="fill:#E6D0BE;" d="M1502.044,710.255c-0.129,0-0.259-0.025-0.383-0.076c-0.374-0.155-0.617-0.52-0.617-0.924
					V505.277c0-0.552,0.447-1,1-1s1,0.448,1,1v201.564l123.648-123.648c0.391-0.391,1.023-0.391,1.414,0
					c0.391,0.391,0.391,1.023,0,1.414l-125.355,125.356C1502.56,710.153,1502.304,710.255,1502.044,710.255z"/>
				
					<rect x="1450.679" y="671.53" transform="matrix(-1.836970e-16 1 -1 -1.836970e-16 2663.9939 -985.908)" style="fill:#FFFFFF;" width="748.545" height="335.026"/>
				<path style="fill:#E6D0BE;" d="M1908.522,1210.263c-0.553,0-1-0.448-1-1V983.488L1763.784,839.75
					c-0.188-0.188-0.293-0.442-0.293-0.707V464.771c0-0.552,0.447-1,1-1s1,0.448,1,1v373.858l143.738,143.738
					c0.188,0.188,0.293,0.442,0.293,0.707v226.189C1909.522,1209.815,1909.075,1210.263,1908.522,1210.263z"/>
				<path style="fill:#E6D0BE;" d="M1811.275,1025.67h-153.838c-0.553,0-1-0.448-1-1s0.447-1,1-1h153.424l182.832-182.832
					c0.391-0.391,1.023-0.391,1.414,0c0.391,0.391,0.391,1.023,0,1.414l-183.125,183.125
					C1811.795,1025.564,1811.541,1025.67,1811.275,1025.67z"/>
				<path style="fill:#E6D0BE;" d="M1992.464,681.581H1858.06c-0.553,0-1-0.448-1-1V464.771c0-0.552,0.447-1,1-1s1,0.448,1,1
					v214.811h133.404c0.553,0,1,0.448,1,1C1993.464,681.133,1993.017,681.581,1992.464,681.581z"/>
			</g>
			<g>
				<path style="fill:#D87355;" d="M1255.182,355.603c97.509,0,176.556,79.047,176.556,176.555
					c0,97.509-176.556,312.688-176.556,312.688s-176.555-215.179-176.555-312.688
					C1078.627,434.65,1157.674,355.603,1255.182,355.603z"/>
				
					<ellipse transform="matrix(0.7071 -0.7071 0.7071 0.7071 -8.6586 1043.4137)" style="fill:#F2E6DC;" cx="1255.182" cy="532.159" rx="120.807" ry="120.807"/>
			</g>
		</g>
		<g>
			<g>
				<path style="fill:#D3BBA3;" d="M1014.935,1106.642h-474.09c-0.553,0-1-0.448-1-1V533.239c0-0.552,0.447-1,1-1h332.788
					c0.333,0,0.645,0.166,0.83,0.442l56.699,84.326l84.327,56.144c0.278,0.185,0.445,0.498,0.445,0.833v431.659
					C1015.935,1106.194,1015.488,1106.642,1014.935,1106.642z M541.846,1104.642h472.09V674.519l-84.046-55.957
					c-0.108-0.073-0.202-0.166-0.275-0.274l-56.513-84.049H541.846V1104.642z"/>
				<g>
					<polygon style="fill:#FFFFFF;" points="873.634,673.983 1014.55,673.983 873.634,533.067 					"/>
					<path style="fill:#D3BBA3;" d="M1014.55,674.983H873.634c-0.553,0-1-0.448-1-1V533.067c0-0.404,0.243-0.769,0.617-0.924
						c0.376-0.154,0.804-0.07,1.09,0.217l140.916,140.916c0.286,0.286,0.372,0.716,0.217,1.09
						C1015.319,674.739,1014.954,674.983,1014.55,674.983z M874.634,672.983h137.502L874.634,535.481V672.983z"/>
				</g>
			</g>
			<g>
				<g>
					<polygon style="fill:#FFFFFF;" points="361.178,1210.186 835.269,1210.186 835.269,778.527 750.778,722.273 693.967,637.782 
						361.178,637.782 					"/>
					<path style="fill:#D3BBA3;" d="M835.269,1211.186H361.178c-0.553,0-1-0.448-1-1V637.783c0-0.552,0.447-1,1-1h332.789
						c0.333,0,0.645,0.165,0.83,0.442l56.701,84.326l84.324,56.144c0.279,0.186,0.446,0.498,0.446,0.833v431.659
						C836.269,1210.738,835.821,1211.186,835.269,1211.186z M362.178,1209.186h472.091V779.063l-84.045-55.957
						c-0.108-0.073-0.202-0.166-0.275-0.274l-56.514-84.048H362.178V1209.186z"/>
				</g>
				<g>
					<path style="fill:#D3BBA3;" d="M768.594,873.053H600.977c-0.553,0-1-0.448-1-1c0-0.552,0.447-1,1-1h167.617
						c0.553,0,1,0.448,1,1C769.594,872.606,769.146,873.053,768.594,873.053z"/>
					<path style="fill:#D3BBA3;" d="M564.42,873.053h-96.058c-0.553,0-1-0.448-1-1c0-0.552,0.447-1,1-1h96.058c0.553,0,1,0.448,1,1
						C565.42,872.606,564.973,873.053,564.42,873.053z"/>
					<path style="fill:#D3BBA3;" d="M768.594,940.041h-84.247c-0.553,0-1-0.448-1-1c0-0.552,0.447-1,1-1h84.247c0.553,0,1,0.448,1,1
						C769.594,939.593,769.146,940.041,768.594,940.041z"/>
					<path style="fill:#D3BBA3;" d="M647.789,940.041H468.362c-0.553,0-1-0.448-1-1c0-0.552,0.447-1,1-1h179.427
						c0.553,0,1,0.448,1,1C648.789,939.593,648.342,940.041,647.789,940.041z"/>
					<path style="fill:#D3BBA3;" d="M713.758,1007.029H468.362c-0.553,0-1-0.448-1-1c0-0.552,0.447-1,1-1h245.396
						c0.553,0,1,0.448,1,1C714.758,1006.581,714.31,1007.029,713.758,1007.029z"/>
				</g>
				<polygon style="fill:#E6D0BE;" points="693.967,778.527 834.883,778.527 693.967,637.611 				"/>
			</g>
		</g>
		<g>
			<g>
				<g>
					<polygon style="fill:#363E44;" points="1201.75,2143.823 1113.923,1808.76 668.549,1826.398 648.775,2143.823 
						905.137,2143.823 909.546,2060.109 971.655,2143.823 					"/>
					<path style="fill:#E6D0BE;" d="M909.547,2061.109c-0.328,0-0.649-0.161-0.841-0.457l-41.385-63.94
						c-0.3-0.464-0.167-1.083,0.297-1.383c0.463-0.3,1.083-0.168,1.383,0.296l41.385,63.94c0.3,0.464,0.167,1.083-0.297,1.383
						C909.921,2061.058,909.733,2061.109,909.547,2061.109z"/>
				</g>
				<g>
					<path style="fill:#363E44;" d="M975.826,1121.621c-3.644,0-7.501-1.152-11.306-3.429c-6.137-3.671-11.425-9.85-14.893-17.398
						c-7.215-15.708-4.193-32.571,6.736-37.591c5.359-2.464,11.758-1.756,18.013,1.986c6.137,3.671,11.425,9.85,14.892,17.398l0,0
						c7.214,15.709,4.192,32.572-6.736,37.591C980.434,1121.143,978.174,1121.621,975.826,1121.621z M963.068,1063.763
						c-2.064,0-4.041,0.417-5.87,1.257c-9.927,4.56-12.507,20.233-5.752,34.939c3.3,7.185,8.308,13.051,14.101,16.517
						c5.674,3.395,11.409,4.063,16.152,1.885c9.926-4.559,12.507-20.232,5.752-34.939c-3.3-7.185-8.308-13.051-14.101-16.517
						C969.865,1064.82,966.356,1063.763,963.068,1063.763z"/>
					<path style="fill:#9E6C5A;" d="M960.894,1089.666c-19.714-43.027-34.999-66.37-62.107-76.299
						c-36.432-13.344-72.185,10.037-75.881,12.534c-2.359,1.594-37.268,22.239-39.822,62.969
						c-2.522,40.224,16.346,80.378,50.162,101.628l7.747,88.699c2.487,28.476,27.587,49.543,56.063,47.056l6.45-0.563
						c28.476-2.487,49.544-27.587,47.057-56.063l-5.175-59.252c17.932-3.089,31.766-9.573,36.695-19.223
						C990.911,1173.868,984.111,1140.335,960.894,1089.666z"/>
					<path style="fill:#363E44;" d="M906.312,1111.552c-0.428,0-0.823-0.276-0.955-0.706c-0.163-0.528,0.133-1.087,0.66-1.25
						l81.932-25.29c0.532-0.162,1.088,0.133,1.25,0.661c0.163,0.528-0.133,1.087-0.66,1.25l-81.932,25.29
						C906.508,1111.537,906.409,1111.552,906.312,1111.552z"/>
					<path style="fill:#363E44;" d="M946.077,1209.9c-0.502,0-0.935-0.376-0.992-0.887l-2.471-21.641
						c-0.064-0.548,0.331-1.044,0.88-1.107c0.531-0.061,1.044,0.331,1.107,0.88l2.471,21.641c0.064,0.549-0.331,1.044-0.88,1.107
						C946.153,1209.898,946.114,1209.9,946.077,1209.9z"/>
					<path style="fill:#363E44;" d="M904.781,1144.671c-0.242,0-0.484-0.087-0.676-0.263c-5.358-4.917-8.691-8.113-11.123-10.447
						c-1.194-1.145-2.176-2.086-3.081-2.929c-0.405-0.376-0.428-1.009-0.052-1.414c0.378-0.405,1.011-0.426,1.413-0.051
						c0.912,0.849,1.901,1.797,3.104,2.95c2.427,2.327,5.75,5.514,11.091,10.417c0.407,0.374,0.435,1.006,0.061,1.413
						C905.32,1144.563,905.052,1144.671,904.781,1144.671z"/>
					<path style="fill:#363E44;" d="M910.192,1008.809c-32.642-27.006-107.479-3.272-133.595,38.361
						c-35.317,56.3-8.533,134.595,39.705,157.85c16.183,7.801,42.856,16.76,69.009,1.71c15.271-8.788,10.077-31.949,8.716-37.512
						c-15.091-1.412-26.882-13.374-27.955-27.733c-1.082-14.463,8.989-27.603,21.673-30.907c8.413-2.192,15.739,0.527,18.731,1.845
						C927.882,1068.453,933.452,1028.052,910.192,1008.809z"/>
				</g>
				<g>
					<g>
						<path style="fill:#9E6C5A;" d="M648.571,1481.763c-84.179-31.95-332.764-109.286-299.146-213.291
							c27.807-86.028,266.575-0.033,352.223,26.274C683.956,1357.085,666.264,1419.425,648.571,1481.763z"/>
						<g>
							<path style="fill:#9E6C5A;" d="M468.171,1356.754c0.004-0.002,0.009,0,0.011-0.005
								c75.464-145.089,131.786-246.58,147.942-278.595c1.692-3.352,4.705-9.256,6.395-17.704
								c6.264-31.302-15.669-47.369-24.102-83.288c-9.568-40.756,8.118-69.123-1.416-73.96c-6.632-3.365-16.316,5.457-27.909,29.18
								c-0.001,0.002-0.005,0.001-0.004-0.001c6.736-19.036,14.744-45.251,4.213-48.943c-12.387-3.612-25.412,26.083-32.414,44.432
								c8.475-22.21,6.336-36.555-0.048-37.151c-10.049-0.937-20.632,14.756-30.694,44.544c0,0-0.002,0.001-0.002,0
								c1.202-22.508-1.862-28.148-7.633-27.298c-10.538,1.552-18.349,26.197-21.914,49.043
								c-4.014,25.719,1.795,47.058,5.779,60.425c0.001,0.004,0,0.008-0.002,0.011c-63.389,96.137-80.005,118.675-129.504,197.435
								C300.631,1304.361,387.053,1395.026,468.171,1356.754z"/>
							<path style="fill:#9E6C5A;" d="M598.468,1011.913c21.424-35.453,36.665-43.7,42.175-40.125
								c9.267,6.011,3.365,43.766-21.42,99.524C611.957,1055.281,605.734,1027.943,598.468,1011.913z"/>
							<g>
								<path style="fill:#363E44;" d="M568.475,971.073c-0.47,0-0.889-0.333-0.981-0.811c-0.966-5.015-1.47-10.135-1.497-15.22
									c-0.04-7.385,0.912-14.766,2.832-21.938c0.143-0.533,0.696-0.849,1.225-0.707c0.533,0.143,0.85,0.691,0.707,1.225
									c-1.873,6.999-2.803,14.202-2.764,21.409c0.027,4.962,0.518,9.959,1.462,14.853c0.104,0.542-0.251,1.066-0.793,1.171
									C568.601,971.067,568.537,971.073,568.475,971.073z"/>
								<path style="fill:#363E44;" d="M541.473,963.723c-0.47,0-0.889-0.333-0.982-0.811c-0.966-5.015-1.47-10.135-1.497-15.22
									c-0.04-7.385,0.912-14.766,2.832-21.938c0.143-0.533,0.695-0.849,1.225-0.707c0.533,0.143,0.85,0.691,0.707,1.225
									c-1.873,7-2.803,14.203-2.764,21.41c0.027,4.961,0.519,9.958,1.462,14.852c0.103,0.542-0.251,1.066-0.793,1.171
									C541.599,963.717,541.535,963.723,541.473,963.723z"/>
								<path style="fill:#363E44;" d="M508.891,973.594c-0.47,0-0.889-0.332-0.98-0.81c-0.967-5.009-1.471-10.129-1.498-15.22
									c-0.041-7.382,0.911-14.763,2.832-21.938c0.143-0.534,0.696-0.848,1.225-0.707c0.533,0.143,0.85,0.691,0.707,1.225
									c-1.874,7.001-2.804,14.204-2.764,21.409c0.027,4.967,0.519,9.964,1.461,14.852c0.105,0.543-0.25,1.067-0.792,1.171
									C509.017,973.588,508.953,973.594,508.891,973.594z"/>
							</g>
						</g>
					</g>
					<g>
						<g>
							<path style="fill:#9E6C5A;" d="M1218.832,1344.506c184.391,39.213,329.194,78.947,313.38,138.107
								c-33.473,125.23-172.58,60.865-296.222,59.765C1231.337,1491.596,1223.143,1406.072,1218.832,1344.506z"/>
						</g>
						<g>
							<path style="fill:#9E6C5A;" d="M1374.358,1461.647c0,0-46.558-125.233-66.554-193.357
								c-21-71.545-41.588-180.234-26.346-182.918c8.682-1.529,14.554,12.714,27.72,51.826c1.312-2.643,6.57-9.55,14.854-9.648
								c12.26-0.145,15.792,9.614,16.453,10.362c0.372-0.932,4.66-10.865,12.851-12.351c9.226-1.674,16.154,2.588,20.222,8.72
								c0.995-2.284,5.524-10.339,13.438-11.536c8.14-1.23,17.532,3.394,19.83,11.672c4.214,15.186,15.875,60.556,24.24,81.945
								c16.462,42.089,94.984,183.708,102.698,250.828C1476.734,1454.258,1374.358,1461.647,1374.358,1461.647z"/>
							<g>
								<path style="fill:#363E44;" d="M1390.039,1156.21c-0.489,0-0.916-0.358-0.988-0.856c-0.08-0.547,0.299-1.054,0.846-1.134
									l13.183-1.916c0.547-0.076,1.053,0.299,1.133,0.846c0.08,0.546-0.299,1.054-0.846,1.133l-13.183,1.916
									C1390.135,1156.207,1390.087,1156.21,1390.039,1156.21z"/>
								<path style="fill:#363E44;" d="M1356.545,1161.192c-0.502,0-0.935-0.377-0.992-0.888c-0.063-0.548,0.332-1.044,0.881-1.106
									l14.967-1.694c0.547-0.068,1.044,0.333,1.106,0.881c0.062,0.549-0.333,1.044-0.882,1.106l-14.967,1.694
									C1356.62,1161.19,1356.582,1161.192,1356.545,1161.192z"/>
								<path style="fill:#363E44;" d="M1324.025,1164.63c-0.488,0-0.916-0.358-0.988-0.855c-0.08-0.547,0.298-1.055,0.845-1.134
									c2.462-0.36,4.686-0.668,6.91-0.977c2.219-0.307,4.438-0.614,6.895-0.974c0.542-0.083,1.055,0.299,1.134,0.844
									c0.08,0.547-0.298,1.055-0.845,1.134c-2.462,0.36-4.686,0.668-6.91,0.977c-2.219,0.307-4.438,0.614-6.895,0.974
									C1324.122,1164.626,1324.073,1164.63,1324.025,1164.63z"/>
								<path style="fill:#363E44;" d="M1297.491,1170.825c-0.459,0-0.872-0.317-0.976-0.784c-0.119-0.539,0.221-1.073,0.76-1.192
									l12.912-2.863c0.544-0.126,1.074,0.221,1.193,0.76s-0.221,1.073-0.76,1.192l-12.912,2.863
									C1297.636,1170.817,1297.563,1170.825,1297.491,1170.825z"/>
							</g>
						</g>
					</g>
					<path style="fill:#ff6900;" d="M652.089,1533.157l-121.425-44.625l48.643-235.393c0,0,379.253-24.637,678.201,91.691
						l-6.225,228.621l-98.301,8.211l66.06,293.66c-239.991,30.612-434.86,27.066-598.662,0L652.089,1533.157z"/>
					<path style="fill:#363E44;" d="M660.909,1523.133c-0.051,0-0.103-0.004-0.155-0.012c-0.545-0.085-0.919-0.597-0.834-1.142
						l12.057-77.375c0.086-0.545,0.584-0.916,1.142-0.834c0.545,0.085,0.919,0.597,0.834,1.142l-12.057,77.375
						C661.819,1522.781,661.394,1523.133,660.909,1523.133z"/>
				</g>
			</g>
		</g>
	</g>
</g>
</svg>
