<?xml version="1.0" encoding="utf-8"?>
<!-- Generator: Adobe Illustrator 27.5.0, SVG Export Plug-In . SVG Version: 6.00 Build 0)  -->
<svg version="1.1" xmlns="http://www.w3.org/2000/svg" xmlns:xlink="http://www.w3.org/1999/xlink" x="0px" y="0px"
	 viewBox="0 0 2500 2500" style="enable-background:new 0 0 2500 2500;" xml:space="preserve">
-
<g id="Illustration">
	<g id="Motel_service_1_">
		<circle style="fill:transparent;" cx="1250" cy="1250" r="915"/>
		<g>
			<g>
				<g>
					<rect x="855.086" y="925.735" style="fill:#E6D0BE;" width="1279.818" height="370.002"/>
					<rect x="830.534" y="912.631" style="fill:#EFBC73;" width="1314.122" height="31.035"/>
					<g>
						
							<rect x="1100.984" y="1044.149" transform="matrix(-1.836970e-16 1 -1 -1.836970e-16 2304.6653 -67.3998)" style="fill:#F7F1EB;" width="170.097" height="148.967"/>
						<g>
							<path style="fill:#D3BBA3;" d="M1270.816,1117.529h-169.567c-1.218,0-2.205-0.987-2.205-2.205
								c0-1.218,0.987-2.205,2.205-2.205h169.567c1.218,0,2.205,0.987,2.205,2.205
								C1273.02,1116.542,1272.033,1117.529,1270.816,1117.529z"/>
							<path style="fill:#D3BBA3;" d="M1186.032,1214.338c-1.218,0-2.205-0.987-2.205-2.205v-193.618
								c0-1.218,0.987-2.205,2.205-2.205c1.218,0,2.205,0.987,2.205,2.205v193.618
								C1188.237,1213.351,1187.25,1214.338,1186.032,1214.338z"/>
						</g>
					</g>
					<rect x="945.31" y="1027.69" style="fill:#F2E6DC;" width="135.767" height="266.487"/>
					<g>
						
							<rect x="1509.279" y="1044.149" transform="matrix(-1.836970e-16 1 -1 -1.836970e-16 2712.9607 -475.6952)" style="fill:#F7F1EB;" width="170.097" height="148.967"/>
						<g>
							<path style="fill:#D3BBA3;" d="M1679.111,1117.529h-169.567c-1.218,0-2.205-0.987-2.205-2.205
								c0-1.218,0.987-2.205,2.205-2.205h169.567c1.218,0,2.205,0.987,2.205,2.205
								C1681.316,1116.542,1680.328,1117.529,1679.111,1117.529z"/>
							<path style="fill:#D3BBA3;" d="M1594.328,1214.338c-1.218,0-2.205-0.987-2.205-2.205v-193.618
								c0-1.218,0.987-2.205,2.205-2.205c1.218,0,2.205,0.987,2.205,2.205v193.618
								C1596.532,1213.351,1595.545,1214.338,1594.328,1214.338z"/>
						</g>
					</g>
					<rect x="1353.605" y="1027.69" style="fill:#F2E6DC;" width="135.767" height="266.487"/>
					<g>
						
							<rect x="1910.083" y="1044.149" transform="matrix(-1.836970e-16 1 -1 -1.836970e-16 3113.7644 -876.4989)" style="fill:#F7F1EB;" width="170.097" height="148.967"/>
						<g>
							<path style="fill:#D3BBA3;" d="M2079.915,1117.529h-169.567c-1.218,0-2.205-0.987-2.205-2.205
								c0-1.218,0.987-2.205,2.205-2.205h169.567c1.218,0,2.205,0.987,2.205,2.205
								C2082.12,1116.542,2081.133,1117.529,2079.915,1117.529z"/>
							<path style="fill:#D3BBA3;" d="M1995.132,1214.338c-1.218,0-2.205-0.987-2.205-2.205v-193.618
								c0-1.218,0.987-2.205,2.205-2.205c1.218,0,2.205,0.987,2.205,2.205v193.618
								C1997.337,1213.351,1996.35,1214.338,1995.132,1214.338z"/>
						</g>
					</g>
					<rect x="1754.409" y="1027.69" style="fill:#F2E6DC;" width="135.767" height="266.487"/>
					<rect x="1293.962" y="943.666" style="fill:#D3BBA3;" width="29.967" height="352.071"/>
					<rect x="1694.766" y="943.666" style="fill:#D3BBA3;" width="29.967" height="352.071"/>
				</g>
			</g>
			<g>
				<g>
					<rect x="855.086" y="544.078" style="fill:#E6D0BE;" width="1279.818" height="370.002"/>
					<rect x="830.534" y="530.974" style="fill:#EFBC73;" width="1314.122" height="31.035"/>
					<g>
						
							<rect x="1100.984" y="662.492" transform="matrix(-1.836970e-16 1 -1 -1.836970e-16 1923.0081 -449.0571)" style="fill:#F7F1EB;" width="170.097" height="148.967"/>
						<g>
							<path style="fill:#D3BBA3;" d="M1270.816,735.872h-169.567c-1.218,0-2.205-0.987-2.205-2.205s0.987-2.205,2.205-2.205
								h169.567c1.218,0,2.205,0.987,2.205,2.205S1272.033,735.872,1270.816,735.872z"/>
							<path style="fill:#D3BBA3;" d="M1186.032,832.681c-1.218,0-2.205-0.987-2.205-2.205V636.857c0-1.218,0.987-2.205,2.205-2.205
								c1.218,0,2.205,0.987,2.205,2.205v193.619C1188.237,831.694,1187.25,832.681,1186.032,832.681z"/>
						</g>
					</g>
					<rect x="945.31" y="646.033" style="fill:#F2E6DC;" width="135.767" height="266.487"/>
					<g>
						
							<rect x="1509.279" y="662.492" transform="matrix(-1.836970e-16 1 -1 -1.836970e-16 2331.3035 -857.3525)" style="fill:#F7F1EB;" width="170.097" height="148.967"/>
						<g>
							<path style="fill:#D3BBA3;" d="M1679.111,735.872h-169.567c-1.218,0-2.205-0.987-2.205-2.205s0.987-2.205,2.205-2.205
								h169.567c1.218,0,2.205,0.987,2.205,2.205S1680.328,735.872,1679.111,735.872z"/>
							<path style="fill:#D3BBA3;" d="M1594.328,832.681c-1.218,0-2.205-0.987-2.205-2.205V636.857c0-1.218,0.987-2.205,2.205-2.205
								c1.218,0,2.205,0.987,2.205,2.205v193.619C1596.532,831.694,1595.545,832.681,1594.328,832.681z"/>
						</g>
					</g>
					<rect x="1353.605" y="646.033" style="fill:#F2E6DC;" width="135.767" height="266.487"/>
					<g>
						
							<rect x="1910.083" y="662.492" transform="matrix(-1.836970e-16 1 -1 -1.836970e-16 2732.1072 -1258.1561)" style="fill:#F7F1EB;" width="170.097" height="148.967"/>
						<g>
							<path style="fill:#D3BBA3;" d="M2079.915,735.872h-169.567c-1.218,0-2.205-0.987-2.205-2.205s0.987-2.205,2.205-2.205
								h169.567c1.218,0,2.205,0.987,2.205,2.205S2081.133,735.872,2079.915,735.872z"/>
							<path style="fill:#D3BBA3;" d="M1995.132,832.681c-1.218,0-2.205-0.987-2.205-2.205V636.857c0-1.218,0.987-2.205,2.205-2.205
								c1.218,0,2.205,0.987,2.205,2.205v193.619C1997.337,831.694,1996.35,832.681,1995.132,832.681z"/>
						</g>
					</g>
					<rect x="1754.409" y="646.033" style="fill:#F2E6DC;" width="135.767" height="266.487"/>
					<rect x="1293.962" y="562.008" style="fill:#D3BBA3;" width="29.967" height="352.071"/>
					<rect x="1694.766" y="562.008" style="fill:#D3BBA3;" width="29.967" height="352.071"/>
				</g>
			</g>
		</g>
		<g>
			<path style="fill:#F7F1EB;" d="M610.836,803.895c-17.71-94.651-23.006-184.189-17.541-258.608l99.598,97.049L601.034,482.88
				c14.131-77.482,43.106-128.787,84.113-136.46c85.329-15.966,190.403,162.966,234.69,399.657
				c44.287,236.69,11.016,441.509-74.312,457.474C760.197,1219.517,655.123,1040.585,610.836,803.895z"/>
			<path style="fill:#E6D0BE;" d="M448.564,1067.472l108.776-14.802l-131.768-23.903
				c-90.011-160.224-112.833-312.713-48.413-354.293c71.103-45.894,221.563,60.706,336.061,238.098
				c114.498,177.392,149.677,358.401,78.574,404.295c-71.104,45.894-221.564-60.707-336.062-238.098
				C453.303,1075.005,450.922,1071.238,448.564,1067.472z"/>
			<path style="fill:#D3BBA3;" d="M1039.891,923.434l-70.775,38.573l67.533-71.468c-16.474-133.925-69.322-234.044-125.514-230.608
				c-62.021,3.792-104.63,132.303-95.168,287.037c9.461,154.733,67.41,277.095,129.431,273.303
				c62.021-3.792,104.63-132.303,95.168-287.036C1040.366,929.951,1040.135,926.688,1039.891,923.434z"/>
			<path style="fill:#E6D0BE;" d="M1008.805,1650.491c-0.857,0-1.672-0.503-2.029-1.34
				C848.826,1278.979,774.443,968.221,739.857,772.71c-37.486-211.901-37.608-337.932-37.605-339.179
				c0.003-1.215,0.989-2.199,2.205-2.199c0.002,0,0.003,0,0.005,0c1.218,0.003,2.203,0.993,2.199,2.21
				c-0.003,1.246,0.127,126.987,37.563,338.546c34.55,195.255,108.851,505.612,266.608,875.333c0.478,1.121-0.043,2.416-1.163,2.894
				C1009.387,1650.434,1009.093,1650.491,1008.805,1650.491z"/>
			<path style="fill:#F2E6DC;" d="M981.936,1667.534c-0.826,0-1.617-0.467-1.994-1.263
				c-247.085-522.269-512.285-877.999-514.934-881.532c-0.731-0.974-0.534-2.355,0.44-3.086c0.975-0.733,2.358-0.532,3.087,0.44
				c2.653,3.535,268.106,359.595,515.393,882.292c0.521,1.101,0.051,2.416-1.05,2.936
				C982.573,1667.465,982.252,1667.534,981.936,1667.534z"/>
			<path style="fill:#F7F1EB;" d="M1040.166,1623.166c-0.887,0-1.725-0.54-2.059-1.42
				c-167.856-439.677-140.002-851.048-133.616-860.627c0.675-1.013,2.041-1.289,3.057-0.612c0.964,0.642,1.258,1.911,0.704,2.905
				c-2.293,6.171-10.833,109.915,2.273,267.858c11.799,142.184,44.224,359.771,131.7,588.904c0.435,1.137-0.136,2.411-1.274,2.845
				C1040.694,1623.119,1040.428,1623.166,1040.166,1623.166z M908.166,763.558c-0.002,0.002-0.003,0.005-0.005,0.008
				C908.163,763.563,908.164,763.56,908.166,763.558z"/>
		</g>
		<g>
			<g>
				<g>
					<path style="fill:#FFFFFF;" d="M798.12,894.104c-10.151,3.182-52.869,422.929-52.869,422.929l26.143,68.074h73.638h264.914
						l38.28-68.074l-37.093-274.584c0,0-66.545-137.079-77.307-159.052C1033.826,883.398,879.776,868.502,798.12,894.104z"/>
					<g>
						<g>
							<path style="fill:#E2A18D;" d="M1172.473,957.95c0,0,50.68-148.051,70.606-195.94
								c20.927-50.293,59.147-121.501,69.04-116.026c5.635,3.118,2.43,13.907-8.052,42.176c1.959-0.899,8.566-2.155,13.319,1.594
								c7.032,5.549,4.109,12.461,4.14,13.19c0.64-0.359,8.144-4.055,13.48-1.138c6.01,3.286,7.483,8.911,6.978,14.264
								c1.615-0.841,9.05-3.273,14.033-0.214c6.479,3.977,6.323,12.391,3.827,18.15c-4.58,10.563-17.814,39.116-22.883,55.111
								c-9.977,31.473-30.405,147.998-56.849,189.675C1253.649,945.253,1172.473,957.95,1172.473,957.95z"/>
							<path style="fill:#363E44;" d="M1298.342,785.565c-0.043,0-0.086-0.001-0.129-0.003c-1.216-0.07-2.145-1.113-2.075-2.329
								c0.659-11.441-3.104-20.044-6.128-26.956c-3.204-7.326-5.971-13.652-0.576-18.964c2.99-2.943,5.143-8.093,6.227-14.892
								c0.274-1.728-0.971-2.577-1.36-2.797c-0.395-0.224-1.796-0.862-3.163,0.29l-27.064,22.836
								c-0.934,0.786-2.323,0.666-3.107-0.263c-0.786-0.931-0.667-2.322,0.263-3.107l27.064-22.836
								c2.32-1.956,5.526-2.255,8.176-0.76c2.627,1.484,4.019,4.36,3.546,7.33c-1.251,7.847-3.77,13.681-7.488,17.34
								c-3.095,3.048-1.689,6.712,1.522,14.056c3.042,6.956,7.21,16.482,6.491,28.977
								C1300.474,784.66,1299.502,785.565,1298.342,785.565z"/>
							<path style="fill:#363E44;" d="M1345.723,751.619c-0.291,0-0.586-0.058-0.87-0.181c-7.217-3.104-11.721-10.089-12.016-17.551
								c-3.45,5.406-10.239,7.653-16.253,5.343c-3.434-1.321-6.124-3.91-7.576-7.291c-1.451-3.379-1.475-7.113-0.068-10.512
								l0.931-2.25c-2.915,1.121-6.276,1.042-9.231-0.493c-5.087-2.643-7.371-8.671-5.314-14.022l4.654-12.104
								c0.438-1.138,1.715-1.703,2.85-1.267c1.137,0.437,1.704,1.713,1.267,2.85l-4.654,12.104c-1.252,3.255,0.138,6.92,3.231,8.528
								c3.281,1.704,7.393,0.45,9.165-2.797l4.279-7.851c0.562-1.03,1.832-1.439,2.886-0.935c1.057,0.506,1.535,1.75,1.086,2.833
								l-7.077,17.092c-0.948,2.291-0.932,4.807,0.046,7.085c0.979,2.279,2.792,4.024,5.106,4.914
								c4.113,1.583,8.758-0.001,11.053-3.758l7.242-11.859c0.587-0.964,1.807-1.328,2.826-0.844
								c1.019,0.482,1.509,1.656,1.137,2.721l-2.333,6.674c-2.672,7.646,1.063,16.142,8.503,19.343
								c1.119,0.481,1.635,1.777,1.154,2.896C1347.391,751.118,1346.578,751.617,1345.723,751.619z"/>
						</g>
						<path style="fill:#FFFFFF;" d="M1223.386,786.961l108.917,54.349l-37.525,120.6c-9.483,30.477-37.02,51.763-68.902,53.262
							l-158.095,37.645l-68.32-169.355c57.958,0,117.418,1.199,189.226,2.388L1223.386,786.961z"/>
						<path style="fill:#363E44;" d="M1130.749,1040.028c-0.997,0.001-1.901-0.682-2.142-1.695
							c-0.282-1.184,0.449-2.373,1.634-2.655l95.125-22.651c0.134-0.032,0.269-0.052,0.407-0.058
							c30.842-1.449,57.727-22.231,66.899-51.713l36.968-118.81l-107.238-53.512c-1.089-0.545-1.533-1.868-0.989-2.957
							s1.87-1.532,2.957-0.989l108.917,54.35c0.968,0.483,1.443,1.596,1.122,2.628l-37.525,120.601
							c-9.702,31.18-38.097,53.178-70.696,54.799l-94.926,22.604C1131.09,1040.009,1130.918,1040.028,1130.749,1040.028z"/>
						<path style="fill:#363E44;" d="M1188.686,888.056c-0.012,0-0.024,0-0.037,0l-33.154-0.56
							c-57.55-0.982-107.252-1.829-156.034-1.829c-1.218,0-2.205-0.987-2.205-2.205c0-1.218,0.987-2.205,2.205-2.205
							c48.819,0,98.539,0.847,156.109,1.829l31.562,0.533l34.174-97.389c0.401-1.15,1.665-1.754,2.81-1.35
							c1.149,0.403,1.754,1.661,1.35,2.81l-34.7,98.891C1190.456,887.466,1189.62,888.056,1188.686,888.056z"/>
						<g>
							<path style="fill:#E2A18D;" d="M1341.983,716.069c0.505-5.353-0.967-10.978-6.978-14.264
								c-5.336-2.917-12.84,0.779-13.48,1.138c-0.032-0.729,2.891-7.641-4.141-13.19c-4.752-3.749-11.36-2.494-13.319-1.594
								c10.482-28.268,13.687-39.057,8.052-42.176c-9.892-5.475-48.112,65.733-69.039,116.026c-1.449,3.482-3.064,7.506-4.806,11.95
								c30.904,13.119,61.573,26.794,91.907,41.179c2.615-11.005,4.887-20.049,6.78-26.022c5.07-15.995,18.303-44.547,22.884-55.111
								c2.496-5.758,2.652-14.172-3.828-18.149C1351.033,712.796,1343.597,715.229,1341.983,716.069z"/>
							<path style="fill:#363E44;" d="M1298.342,785.565c-0.043,0-0.086-0.001-0.129-0.003c-1.216-0.07-2.145-1.113-2.075-2.329
								c0.659-11.441-3.104-20.044-6.128-26.956c-3.204-7.326-5.971-13.652-0.576-18.964c2.99-2.943,5.143-8.093,6.227-14.892
								c0.274-1.728-0.971-2.577-1.36-2.797c-0.395-0.224-1.796-0.862-3.163,0.29l-27.064,22.836
								c-0.934,0.786-2.323,0.666-3.107-0.263c-0.786-0.931-0.667-2.322,0.263-3.107l27.064-22.836
								c2.32-1.956,5.526-2.255,8.176-0.76c2.627,1.484,4.019,4.36,3.546,7.33c-1.251,7.847-3.77,13.681-7.488,17.34
								c-3.095,3.048-1.689,6.712,1.522,14.056c3.042,6.956,7.21,16.482,6.491,28.977
								C1300.474,784.66,1299.502,785.565,1298.342,785.565z"/>
							<path style="fill:#363E44;" d="M1345.723,751.619c-0.291,0-0.586-0.058-0.87-0.181c-7.217-3.104-11.721-10.089-12.016-17.551
								c-3.45,5.406-10.239,7.653-16.253,5.343c-3.434-1.321-6.124-3.91-7.576-7.291c-1.451-3.379-1.475-7.113-0.068-10.512
								l0.931-2.25c-2.915,1.121-6.276,1.042-9.231-0.493c-5.087-2.643-7.371-8.671-5.314-14.022l4.654-12.104
								c0.438-1.138,1.715-1.703,2.85-1.267c1.137,0.437,1.704,1.713,1.267,2.85l-4.654,12.104c-1.252,3.255,0.138,6.92,3.231,8.528
								c3.281,1.704,7.393,0.45,9.165-2.797l4.279-7.851c0.562-1.03,1.832-1.439,2.886-0.935c1.057,0.506,1.535,1.75,1.086,2.833
								l-7.077,17.092c-0.948,2.291-0.932,4.807,0.046,7.085c0.979,2.279,2.792,4.024,5.106,4.914
								c4.113,1.583,8.758-0.001,11.053-3.758l7.242-11.859c0.587-0.964,1.807-1.328,2.826-0.844
								c1.019,0.482,1.509,1.656,1.137,2.721l-2.333,6.674c-2.672,7.646,1.063,16.142,8.503,19.343
								c1.119,0.481,1.635,1.777,1.154,2.896C1347.391,751.118,1346.578,751.617,1345.723,751.619z"/>
						</g>
					</g>
				</g>
				<g>
					<polygon style="fill:#E2A18D;" points="880.075,912.609 938.089,903.221 960.927,823.823 909.84,809.128 					"/>
					<path style="fill:#E2A18D;" d="M856.033,901.616c0.464,10.669,26.351,18.208,57.818,16.838
						c31.468-1.37,56.602-11.129,56.137-21.799c-0.464-10.669-26.351-18.208-57.819-16.838
						C880.702,881.187,855.568,890.947,856.033,901.616z"/>
					<g>
						<path style="fill:#E2A18D;" d="M992.924,827.612c-4.486,14.118-45.747,16.044-45.747,16.044l-40.157-20.868
							c-12.538-16.645-9.208-40.303,7.437-52.841c16.645-12.538,40.303-9.208,52.841,7.437
							C967.298,777.383,997.493,813.233,992.924,827.612z"/>
						<path style="fill:#E2A18D;" d="M969.804,787.917c0,0,15.125,2.489,16.436,5.167c1.565,3.195-6.569,11.991-6.569,11.991
							S970.044,787.769,969.804,787.917z"/>
						<g>
							<path style="fill:#FFFFFF;" d="M941.633,807.115c0,0,3.001-6.515,9.084-11.096c1.294-0.975,6.653,11.22,4.983,11.559
								C948.357,809.068,941.633,807.115,941.633,807.115z"/>
							<g>
								<defs>
									<path id="SVGID_1_" d="M941.633,807.115c0,0,4.414-9.581,13.386-13.676c8.971-4.094,19.102-1.152,19.102-1.152
										s-4.415,9.581-13.386,13.676C951.764,810.057,941.633,807.115,941.633,807.115z"/>
								</defs>
								<clipPath id="SVGID_00000104676459059310017610000013678570531355963057_">
									<use xlink:href="#SVGID_1_"  style="overflow:visible;"/>
								</clipPath>
								<path style="clip-path:url(#SVGID_00000104676459059310017610000013678570531355963057_);fill:#363E44;" d="
									M950.774,795.559c0.993-7.053,7.515-11.966,14.568-10.973c7.053,0.993,11.966,7.515,10.973,14.568
									c-0.992,7.053-7.515,11.966-14.568,10.973C954.694,809.134,949.781,802.611,950.774,795.559z"/>
							</g>
						</g>
						<path style="fill:#363E44;" d="M972.983,819.18c-2.642,0-5.151-1.429-6.497-3.738c-0.613-1.052-0.256-2.402,0.796-3.016
							c1.05-0.614,2.403-0.256,3.015,0.796c0.591,1.016,1.724,1.61,2.887,1.541c1.206-0.084,2.258-0.88,2.682-2.027
							c0.422-1.142,1.691-1.726,2.832-1.304c1.142,0.422,1.726,1.69,1.304,2.833c-1.024,2.77-3.58,4.693-6.51,4.897
							C973.322,819.174,973.152,819.18,972.983,819.18z"/>
					</g>
					<path style="fill:#B77250;" d="M936.79,799.701c6.102-2.166,44.195-30.16,41.332-40.249c0,0-51.602-21.316-71.764-7.975
						c-5.445,3.603-31.15,6.888-50.331,32.608c-3.728,5-89.507,90.645-89.132,92.036c4.956,18.375,69.278,54.961,121.716,43.282
						c15.284-3.404,34.277-109.812,34.277-109.812s4.779-18.328,8.184-35.098L936.79,799.701z"/>
					<path style="fill:#E2A18D;" d="M903.216,826.636c5.97,6.891,15.214,8.661,20.646,3.954c5.433-4.706,4.997-14.108-0.973-20.999
						c-5.97-6.891-15.213-8.661-20.646-3.955C896.81,810.344,897.246,819.745,903.216,826.636z"/>
				</g>
				<g>
					<path style="fill:#363E44;" d="M747.491,2122.93h166.247c0,0-15.131-133.805-68.657-164.863h-47.975
						C797.105,1958.067,752.109,2033.366,747.491,2122.93z"/>
					<path style="fill:#E2A18D;" d="M786.947,1500.98c0.766,2.474,0.653,435.82,5.962,467.956
						c2.428,14.697,15.136,25.472,30.032,25.472l0,0c16.812,0,30.44-13.628,30.44-30.44l73.525-450.506L786.947,1500.98z"/>
					<path style="fill:#363E44;" d="M971.005,1953.442c0,0-12.641,82.812-7.733,169.487h68.931l-0.195-30.763l41.512,30.763h143.322
						c0,0-25.418-118.021-164.842-169.487H971.005z"/>
					<path style="fill:#E2A18D;" d="M956.115,1532.564c-0.446,0.737,22.899,131.482,22.899,131.482s-4.328,266.818-6.479,285.117
						c-2.744,23.342,15.596,43.798,39.098,43.607h0c17.47-0.142,32.719-11.872,37.339-28.721l47.948-301.401l-12.047-144.467
						L956.115,1532.564z"/>
					<path style="fill:#ff6900;" d="M808.944,1239.651c-63.693,141.223-61.453,378.697-63.693,509.777h365.021
						c0,0,20.482-347.77-19.568-509.777l-32.302-27.405H853.217L808.944,1239.651z"/>
					<path style="fill:#363E44;" d="M992.024,1264.967c-1.218,0-2.205-0.987-2.205-2.205v-50.516c0-1.218,0.987-2.205,2.205-2.205
						s2.205,0.987,2.205,2.205v50.516C994.229,1263.98,993.242,1264.967,992.024,1264.967z"/>
				</g>
				<g>
					<path style="fill:#84524D;" d="M797.568,1597.583c-0.281,0-0.567-0.055-0.844-0.169l-67.067-27.83
						c-0.54-0.225-0.969-0.655-1.193-1.194c-0.223-0.54-0.223-1.148,0.001-1.688l168.04-404.944
						c3.943-9.501,11.35-16.898,20.856-20.827c9.505-3.931,19.974-3.923,29.474,0.018c9.501,3.942,16.898,11.349,20.828,20.855
						c3.931,9.506,3.924,19.975-0.018,29.475l-168.04,404.943C799.254,1597.071,798.433,1597.583,797.568,1597.583z
						 M733.384,1566.355l62.993,26.14l167.195-402.906c3.491-8.413,3.498-17.683,0.017-26.1
						c-3.481-8.418-10.03-14.976-18.444-18.467c-8.412-3.493-17.683-3.498-26.099-0.017c-8.418,3.479-14.976,10.03-18.467,18.443
						L733.384,1566.355z"/>
					
						<rect x="445.674" y="1443.864" transform="matrix(0.9236 0.3833 -0.3833 0.9236 710.3819 -93.2719)" style="fill:#363E44;" width="287.15" height="584.289"/>
					<path style="fill:#F2E6DC;" d="M477.832,2006.705c-0.281,0-0.567-0.055-0.844-0.169c-1.125-0.467-1.658-1.757-1.192-2.882
						l223.39-538.325c0.466-1.123,1.754-1.657,2.882-1.192c1.125,0.467,1.658,1.757,1.192,2.882l-223.39,538.325
						C479.518,2006.193,478.697,2006.705,477.832,2006.705z"/>
					<path style="fill:#363E44;" d="M592.073,2132.52c-7.688,0-15.205-2.261-21.745-6.624c-8.737-5.83-14.682-14.713-16.739-25.014
						c-2.057-10.301,0.021-20.785,5.85-29.524c5.83-8.737,14.714-14.683,25.014-16.74c21.267-4.244,42.019,9.602,46.265,30.865l0,0
						c2.057,10.301-0.022,20.786-5.851,29.524c-5.83,8.739-14.714,14.683-25.014,16.74
						C597.261,2132.265,594.656,2132.52,592.073,2132.52z M592.164,2058.262c-2.259,0-4.55,0.221-6.847,0.679
						c-18.881,3.77-31.173,22.198-27.404,41.077c1.826,9.146,7.104,17.033,14.862,22.209c7.758,5.177,17.069,7.018,26.214,5.196
						c9.147-1.826,17.034-7.104,22.21-14.863c5.176-7.758,7.021-17.068,5.195-26.213
						C623.083,2069.765,608.464,2058.262,592.164,2058.262z"/>
					<path style="fill:#363E44;" d="M592.107,2115.291c-4.319,0-8.544-1.271-12.219-3.723c-4.911-3.276-8.252-8.269-9.407-14.058
						c-1.156-5.789,0.011-11.682,3.287-16.593c3.277-4.911,8.269-8.252,14.059-9.407c11.947-2.39,23.614,5.396,26,17.346l0,0
						c2.386,11.951-5.396,23.616-17.346,26C595.024,2115.147,593.56,2115.291,592.107,2115.291z M592.159,2075.49
						c-1.144,0-2.305,0.112-3.469,0.344c-4.635,0.926-8.631,3.6-11.253,7.531c-2.623,3.931-3.557,8.648-2.632,13.282
						c0.926,4.635,3.6,8.631,7.531,11.253c3.93,2.622,8.644,3.556,13.283,2.632c9.566-1.91,15.794-11.247,13.886-20.813
						C607.825,2081.317,600.418,2075.49,592.159,2075.49z"/>
				</g>
				<g>
					<g>
						<path style="fill:#E2A18D;" d="M703.562,1077.551c43.672,2.921,148.906,5.77,158.972,6.346
							c18.816,1.076,119.646,9.471,120.013,24.152c0.175,7.015-19.323,6.276-25.908,5.834c5.142,2.979,26.127,12.278,24.277,19.923
							c-2.174,8.983-28.876,1.73-29.363,1.879c5.528,2.495,27.953,11.542,26.788,17.328c-1.515,7.528-24.9,5.368-31.871,4.397
							c0.599,1.053,23.133,6.54,21.708,15.592c-1.046,6.646-22.497,4.631-31.806,3.784c-16.718-0.943-194.458,0.018-230.695-4.693
							C691.492,1170.249,684.377,1091.227,703.562,1077.551z"/>
						<g>
							<path style="fill:#363E44;" d="M956.91,1115.404c-0.291,0-0.587-0.058-0.871-0.181c-3.532-1.52-7.198-2.807-10.894-3.823
								c-6.643-1.828-13.535-2.833-20.484-2.989c-1.216-0.027-2.182-1.036-2.154-2.253c0.026-1.219,0.987-2.235,2.253-2.154
								c7.311,0.163,14.563,1.22,21.554,3.144c3.892,1.071,7.75,2.425,11.469,4.025c1.117,0.481,1.634,1.778,1.153,2.897
								C958.577,1114.905,957.763,1115.404,956.91,1115.404z"/>
							<path style="fill:#363E44;" d="M951.956,1137.429c-0.215,0-0.433-0.032-0.649-0.098c-0.771-0.237-1.558-0.467-2.363-0.688
								c-6.643-1.828-13.536-2.833-20.484-2.989c-1.217-0.027-2.182-1.036-2.154-2.253c0.026-1.219,1.052-2.249,2.253-2.154
								c7.31,0.163,14.562,1.22,21.554,3.144c0.848,0.234,1.678,0.476,2.49,0.725c1.164,0.358,1.817,1.592,1.46,2.756
								C953.772,1136.819,952.898,1137.429,951.956,1137.429z"/>
							<path style="fill:#363E44;" d="M946.029,1159.385c-0.132,0-0.267-0.012-0.403-0.036c-4.43-0.819-8.974-1.286-13.508-1.387
								c-1.217-0.027-2.182-1.036-2.154-2.253c0.027-1.219,1.03-2.161,2.253-2.155c4.767,0.107,9.548,0.598,14.21,1.459
								c1.197,0.222,1.988,1.372,1.768,2.569C947.999,1158.644,947.072,1159.385,946.029,1159.385z"/>
						</g>
					</g>
					<g>
						<path style="fill:#FFFFFF;" d="M642.951,1177.745c24.48,15.416,80.173,27.364,113.746-21.276l56.584-119.889l-13.787-142.778
							l-1.374,0.303c-35.896,7.91-67.709,28.562-89.545,58.132c0,0-29.778,45.409-39.11,60.915
							C647.972,1048.86,593.002,1146.291,642.951,1177.745z"/>
						<path style="fill:#363E44;" d="M771.466,1077.712c-0.085,0-0.171-0.004-0.257-0.015c-1.21-0.14-2.077-1.234-1.936-2.444
							c4.055-34.962,7.756-65.405,10.998-90.485c0.155-1.208,1.247-2.071,2.47-1.903c1.207,0.156,2.06,1.262,1.903,2.47
							c-3.239,25.06-6.938,55.484-10.992,90.427C773.522,1076.884,772.569,1077.712,771.466,1077.712z"/>
						
							<rect x="685.075" y="1075.508" transform="matrix(-1 -1.224647e-16 1.224647e-16 -1 1527.0164 2266.6055)" style="fill:#FFFFFF;" width="156.867" height="115.59"/>
						<path style="fill:#363E44;" d="M841.942,1193.303h-83.403c-1.218,0-2.205-0.987-2.205-2.205s0.987-2.205,2.205-2.205h81.198
							v-12.926c0-1.218,0.987-2.205,2.205-2.205s2.205,0.987,2.205,2.205v15.131
							C844.146,1192.316,843.159,1193.303,841.942,1193.303z"/>
						<path style="fill:#363E44;" d="M841.942,1085.355c-1.218,0-2.205-0.987-2.205-2.205v-5.438H685.074
							c-1.218,0-2.205-0.987-2.205-2.205c0-1.218,0.987-2.205,2.205-2.205h156.867c1.218,0,2.205,0.987,2.205,2.205v7.643
							C844.146,1084.368,843.159,1085.355,841.942,1085.355z"/>
					</g>
				</g>
			</g>
		</g>
		<g>
			<g>
				<circle style="fill:#FFFFFF;" cx="1952.882" cy="1028.873" r="157.138"/>
				<path style="fill:#363E44;" d="M1935.54,1170.447c-87.862,0-159.344-71.481-159.344-159.342
					c0-87.862,71.481-159.343,159.344-159.343c87.861,0,159.342,71.481,159.342,159.343
					C2094.882,1098.966,2023.401,1170.447,1935.54,1170.447z M1935.54,856.171c-85.43,0-154.934,69.504-154.934,154.934
					s69.504,154.933,154.934,154.933s154.933-69.502,154.933-154.933S2020.97,856.171,1935.54,856.171z"/>
				<g>
					<g>
						<rect x="1878.527" y="1001.047" style="fill:#FFFFFF;" width="118.789" height="23.65"/>
						<path style="fill:#D87355;" d="M1997.318,1026.902h-118.79c-1.218,0-2.205-0.987-2.205-2.205v-23.65
							c0-1.218,0.987-2.205,2.205-2.205h118.79c1.218,0,2.205,0.987,2.205,2.205v23.65
							C1999.522,1025.915,1998.535,1026.902,1997.318,1026.902z M1880.732,1022.493h114.38v-19.241h-114.38V1022.493z"/>
					</g>
					<g>
						<g>
							<rect x="1843.771" y="985.829" style="fill:#FFFFFF;" width="21.896" height="54.087"/>
							<path style="fill:#D87355;" d="M1865.667,1042.121h-21.896c-1.218,0-2.205-0.987-2.205-2.205v-54.087
								c0-1.218,0.987-2.205,2.205-2.205h21.896c1.218,0,2.205,0.987,2.205,2.205v54.087
								C1867.871,1041.134,1866.884,1042.121,1865.667,1042.121z M1845.975,1037.711h17.487v-49.677h-17.487V1037.711z"/>
						</g>
						<g>
							<rect x="1860.467" y="970.611" style="fill:#FFFFFF;" width="21.896" height="84.524"/>
							<path style="fill:#D87355;" d="M1882.362,1057.339h-21.895c-1.218,0-2.205-0.987-2.205-2.205v-84.524
								c0-1.218,0.987-2.205,2.205-2.205h21.895c1.218,0,2.205,0.987,2.205,2.205v84.524
								C1884.567,1056.352,1883.58,1057.339,1882.362,1057.339z M1862.672,1052.93h17.486v-80.114h-17.486V1052.93z"/>
						</g>
					</g>
					<g>
						<g>
							
								<rect x="2014.013" y="985.829" transform="matrix(-1 -1.224647e-16 1.224647e-16 -1 4049.9214 2025.7449)" style="fill:#FFFFFF;" width="21.896" height="54.087"/>
							<path style="fill:#D87355;" d="M2035.908,1042.121h-21.895c-1.218,0-2.205-0.987-2.205-2.205v-54.087
								c0-1.218,0.987-2.205,2.205-2.205h21.895c1.218,0,2.205,0.987,2.205,2.205v54.087
								C2038.113,1041.134,2037.126,1042.121,2035.908,1042.121z M2016.218,1037.711h17.486v-49.677h-17.486V1037.711z"/>
						</g>
						<g>
							
								<rect x="1997.317" y="970.611" transform="matrix(-1 -1.224647e-16 1.224647e-16 -1 4016.53 2025.7449)" style="fill:#FFFFFF;" width="21.896" height="84.524"/>
							<path style="fill:#D87355;" d="M2019.213,1057.339h-21.895c-1.218,0-2.205-0.987-2.205-2.205v-84.524
								c0-1.218,0.987-2.205,2.205-2.205h21.895c1.218,0,2.205,0.987,2.205,2.205v84.524
								C2021.418,1056.352,2020.43,1057.339,2019.213,1057.339z M1999.522,1052.93h17.486v-80.114h-17.486V1052.93z"/>
						</g>
					</g>
				</g>
			</g>
			<g>
				<circle style="fill:#FFFFFF;" cx="1848.595" cy="642.195" r="166.023"/>
				<path style="fill:#363E44;" d="M1830.272,791.65c-92.762,0-168.228-75.467-168.228-168.228
					c0-92.761,75.467-168.227,168.228-168.227c92.761,0,168.227,75.467,168.227,168.227
					C1998.5,716.183,1923.033,791.65,1830.272,791.65z M1830.272,459.604c-90.33,0-163.819,73.488-163.819,163.818
					c0,90.33,73.489,163.819,163.819,163.819c90.33,0,163.818-73.489,163.818-163.819
					C1994.09,533.092,1920.602,459.604,1830.272,459.604z"/>
				<g>
					<path style="fill:#D87355;" d="M1844.805,688.992c-0.606,0-1.208-0.248-1.644-0.734c-1.716-1.916-4.046-2.982-6.56-2.999
						c-2.441,0.021-4.691,0.932-6.405,2.669c-0.853,0.867-2.25,0.878-3.118,0.022c-0.867-0.855-0.876-2.25-0.021-3.118
						c2.534-2.57,5.899-3.982,9.484-3.982c0.03,0,0.06,0,0.089,0c3.721,0.026,7.298,1.655,9.816,4.468
						c0.812,0.908,0.735,2.302-0.172,3.113C1845.854,688.807,1845.328,688.992,1844.805,688.992z"/>
					<path style="fill:#D87355;" d="M1864.908,669.156c-0.579,0-1.157-0.227-1.59-0.678c-7.014-7.305-16.435-11.365-26.528-11.433
						c-10.006-0.146-19.357,3.771-26.431,10.809c-0.863,0.858-2.261,0.856-3.118-0.009c-0.859-0.863-0.855-2.259,0.009-3.118
						c7.915-7.872,18.462-12.205,29.57-12.092c11.293,0.077,21.833,4.617,29.678,12.79c0.844,0.879,0.815,2.274-0.063,3.117
						C1866.007,668.953,1865.457,669.156,1864.908,669.156z"/>
					<path style="fill:#D87355;" d="M1886.941,647.416c-0.575,0-1.149-0.224-1.582-0.669
						c-12.815-13.189-29.991-20.521-48.363-20.643c-18.199-0.151-35.418,6.883-48.375,19.725c-0.865,0.856-2.26,0.852-3.119-0.014
						c-0.857-0.866-0.851-2.261,0.014-3.119c13.678-13.555,31.777-21.004,51.01-21.004c0.167,0,0.332,0.001,0.5,0.002
						c19.562,0.131,37.85,7.938,51.496,21.98c0.848,0.873,0.828,2.269-0.045,3.118
						C1888.049,647.208,1887.494,647.416,1886.941,647.416z"/>
					<path style="fill:#D87355;" d="M1910.349,624.319c-0.573,0-1.146-0.222-1.577-0.664
						c-18.986-19.444-44.398-30.253-71.555-30.434c-26.941-0.185-52.483,10.189-71.692,29.201c-0.867,0.857-2.261,0.848-3.119-0.016
						c-0.856-0.866-0.849-2.262,0.016-3.119c19.877-19.67,46.17-30.478,74.102-30.478c0.242,0,0.48,0.001,0.724,0.002
						c28.343,0.19,54.865,11.47,74.68,31.762c0.852,0.871,0.834,2.267-0.037,3.118
						C1911.46,624.111,1910.904,624.319,1910.349,624.319z"/>
					<path style="fill:#D87355;" d="M1933.13,601.839c-0.572,0-1.143-0.222-1.575-0.662c-24.994-25.531-58.42-39.722-94.125-39.961
						c-0.304-0.002-0.609-0.003-0.913-0.003c-35.231,0-68.394,13.626-93.473,38.429c-0.866,0.857-2.263,0.848-3.118-0.017
						c-0.857-0.866-0.848-2.262,0.017-3.118c26.135-25.846,60.734-39.952,97.517-39.701c36.888,0.247,71.424,14.908,97.245,41.286
						c0.853,0.871,0.838,2.266-0.032,3.118C1934.243,601.631,1933.687,601.839,1933.13,601.839z"/>
				</g>
			</g>
			<g>
				<circle style="fill:#FFFFFF;" cx="1456.207" cy="520.267" r="149.587"/>
				<path style="fill:#363E44;" d="M1439.698,655.144c-83.698,0-151.792-68.093-151.792-151.791S1356,351.56,1439.698,351.56
					s151.791,68.094,151.791,151.792S1523.396,655.144,1439.698,655.144z M1439.698,355.97
					c-81.267,0-147.383,66.116-147.383,147.383c0,81.266,66.115,147.382,147.383,147.382c81.266,0,147.382-66.115,147.382-147.382
					C1587.08,422.085,1520.964,355.97,1439.698,355.97z"/>
				<g>
					<path style="fill:#D87355;" d="M1540.57,537.539h-193.683c-1.218,0-2.205-0.987-2.205-2.205
						c0-52.864,44.432-95.872,99.047-95.872s99.046,43.008,99.046,95.872C1542.775,536.552,1541.788,537.539,1540.57,537.539z
						 M1349.119,533.129h189.219c-1.213-49.42-43.188-89.258-94.609-89.258S1350.333,483.709,1349.119,533.129z"/>
					<path style="fill:#D87355;" d="M1540.57,554.476h-194.845c-1.218,0-2.205-0.987-2.205-2.205s0.987-2.205,2.205-2.205h194.845
						c1.218,0,2.205,0.987,2.205,2.205S1541.788,554.476,1540.57,554.476z"/>
					<path style="fill:#D87355;" d="M1443.729,441.342c-6.121,0-11.101-5.571-11.101-12.419c0-6.848,4.979-12.419,11.101-12.419
						c6.12,0,11.099,5.571,11.099,12.419C1454.829,435.771,1449.849,441.342,1443.729,441.342z M1443.729,420.913
						c-3.689,0-6.691,3.594-6.691,8.01s3.001,8.01,6.691,8.01c3.688,0,6.69-3.594,6.69-8.01S1447.417,420.913,1443.729,420.913z"/>
				</g>
			</g>
		</g>
		<g>
			<g>
				<rect x="1232.986" y="1802.572" style="fill:#363E44;" width="122.088" height="156.922"/>
				<rect x="1989.751" y="1802.572" style="fill:#363E44;" width="122.088" height="156.922"/>
			</g>
			<g>
				<g>
					<polygon style="fill:#D87355;" points="2117.78,1824.892 1226.169,1824.892 1226.169,1574.088 1303.442,1505.928 
						2040.506,1505.928 2117.78,1574.088 					"/>
					<polygon style="fill:#B77250;" points="2040.507,1505.928 1303.442,1505.928 1439.796,1262.434 1904.153,1262.434 					"/>
				</g>
				<polygon style="fill:#363E44;" points="1874.906,1288.129 1469.044,1288.129 1356.711,1488.728 1987.239,1488.728 				"/>
				<path style="fill:#363E44;" d="M2043.505,1511.444c-0.768,0-1.513-0.401-1.919-1.115L1901.71,1264.26h-460.624l-136.302,242.617
					c-0.597,1.062-1.945,1.439-3.003,0.842c-1.062-0.595-1.439-1.94-0.843-3.002l137.567-244.867h465.771l0.633,1.115
					l140.509,247.184c0.602,1.058,0.231,2.404-0.827,3.006C2044.249,1511.351,2043.874,1511.444,2043.505,1511.444z"/>
			</g>
			<g>
				<polygon style="fill:#D87355;" points="1347.708,1488.728 1188.68,1488.728 1188.68,1432.195 1286.349,1411.747 
					1286.349,1473.924 1354.526,1473.924 				"/>
				<polygon style="fill:#D87355;" points="1999.986,1488.728 2159.014,1488.728 2159.014,1432.195 2061.346,1411.747 
					2061.346,1473.924 1993.169,1473.924 				"/>
			</g>
			<g>
				<path style="fill:#EFBC73;" d="M1275.966,1648.668l148.7,67.191c1.225,0.553,2.613-0.342,2.613-1.687v-63.754
					c0-6.004-3.935-11.298-9.683-13.03l-125.812-37.899c-7.88-2.374-15.818,3.526-15.818,11.755V1648.668z"/>
				<path style="fill:#EFBC73;" d="M2069.542,1646.423l-151.313,68.372v-63.754c0-7.706,5.05-14.502,12.429-16.725l123.066-37.072
					c7.88-2.374,15.818,3.526,15.818,11.755V1646.423z"/>
			</g>
			<g>
				<path style="fill:#FFFFFF;" d="M1501.02,1402.542c-0.422,0-0.848-0.121-1.225-0.374c-1.012-0.678-1.282-2.048-0.604-3.059
					l49.55-73.925c0.677-1.012,2.046-1.283,3.058-0.604c1.012,0.678,1.282,2.048,0.604,3.059l-49.55,73.925
					C1502.428,1402.2,1501.73,1402.542,1501.02,1402.542z"/>
				<path style="fill:#FFFFFF;" d="M1571.805,1389.171c-0.421,0-0.847-0.12-1.223-0.371c-1.012-0.677-1.284-2.047-0.608-3.059
					l55.693-83.315c0.677-1.013,2.047-1.283,3.059-0.608c1.012,0.677,1.284,2.047,0.608,3.059l-55.693,83.315
					C1573.215,1388.828,1572.516,1389.171,1571.805,1389.171z"/>
				<path style="fill:#FFFFFF;" d="M1728.982,1436.324c-0.421,0-0.847-0.121-1.223-0.371c-1.012-0.677-1.284-2.047-0.608-3.058
					l55.693-83.315c0.676-1.013,2.048-1.283,3.058-0.608c1.012,0.677,1.284,2.047,0.608,3.058l-55.693,83.315
					C1730.392,1435.98,1729.693,1436.324,1728.982,1436.324z"/>
				<path style="fill:#FFFFFF;" d="M1595.091,1478.572c-0.392,0-0.788-0.104-1.146-0.323c-1.039-0.634-1.367-1.991-0.733-3.031
					l30.516-50.006c0.635-1.04,1.992-1.366,3.031-0.733c1.039,0.634,1.367,1.991,0.733,3.031l-30.516,50.006
					C1596.559,1478.196,1595.834,1478.572,1595.091,1478.572z"/>
				<path style="fill:#FFFFFF;" d="M1632.386,1417.458c-0.392,0-0.788-0.104-1.146-0.323c-1.039-0.634-1.367-1.991-0.733-3.031
					l30.659-50.238c0.634-1.04,1.993-1.366,3.031-0.733c1.039,0.634,1.367,1.99,0.733,3.03l-30.659,50.238
					C1633.855,1417.082,1633.129,1417.458,1632.386,1417.458z"/>
				<path style="fill:#FFFFFF;" d="M1432.632,1466.488c-0.421,0-0.846-0.121-1.223-0.371c-1.013-0.677-1.284-2.047-0.608-3.059
					l18.573-27.783c0.676-1.013,2.043-1.283,3.058-0.608c1.013,0.677,1.284,2.047,0.608,3.059l-18.573,27.783
					C1434.042,1466.145,1433.343,1466.488,1432.632,1466.488z"/>
				<path style="fill:#FFFFFF;" d="M1855.139,1376.375c-0.392,0-0.788-0.104-1.146-0.323c-1.039-0.634-1.367-1.991-0.733-3.03
					l18.886-30.946c0.634-1.039,1.994-1.365,3.031-0.733c1.039,0.634,1.367,1.991,0.733,3.03l-18.886,30.946
					C1856.607,1375.999,1855.882,1376.375,1855.139,1376.375z"/>
			</g>
			<rect x="1214.422" y="1785.231" style="fill:#B77250;" width="911.63" height="65.116"/>
			<rect x="1512.686" y="1683.063" style="fill:#FFFFFF;" width="335.686" height="80.834"/>
			<path style="fill:#363E44;" d="M1907.128,1662.816c-0.045,0-0.09-0.001-0.136-0.004c-1.215-0.073-2.141-1.118-2.067-2.334
				l2.338-38.59l172.132-50.961c1.163-0.34,2.393,0.32,2.74,1.489c0.345,1.167-0.321,2.394-1.489,2.74l-169.169,50.082
				l-2.151,35.506C1909.255,1661.915,1908.284,1662.816,1907.128,1662.816z"/>
			<path style="fill:#363E44;" d="M1444.572,1669.552c-1.156,0-2.127-0.901-2.198-2.071l-2.152-35.506l-169.168-50.082
				c-1.168-0.346-1.834-1.573-1.489-2.74c0.347-1.169,1.578-1.83,2.74-1.489l172.131,50.961l2.339,38.59
				c0.074,1.216-0.851,2.261-2.067,2.334C1444.662,1669.551,1444.617,1669.552,1444.572,1669.552z"/>
		</g>
	</g>
</g>
</svg>
