<?xml version="1.0" encoding="utf-8"?>
<!-- Generator: Adobe Illustrator 27.5.0, SVG Export Plug-In . SVG Version: 6.00 Build 0)  -->
<svg version="1.1" xmlns="http://www.w3.org/2000/svg" xmlns:xlink="http://www.w3.org/1999/xlink" x="0px" y="0px"
	 viewBox="0 0 2500 2500" style="enable-background:new 0 0 2500 2500;" xml:space="preserve">
-
<g id="Illustration">
	<g id="Rating_1_">
		<circle style="fill:transparent;" cx="1250" cy="1250" r="915"/>
		<g>
			<path style="fill:#FFFFFF;" d="M1973.464,674.615h-968.423c-79.245,0-143.716-64.471-143.716-143.716
				c0-79.275,64.495-143.77,143.771-143.77h968.368c79.26,0,143.743,64.483,143.743,143.743S2052.724,674.615,1973.464,674.615z
				 M1005.096,389.128c-78.173,0-141.771,63.598-141.771,141.77c0,78.142,63.573,141.716,141.716,141.716h968.423
				c78.157,0,141.743-63.586,141.743-141.743s-63.586-141.743-141.743-141.743H1005.096z"/>
			<g>
				<polygon style="fill:#D87355;" points="1072.087,501.475 1124.911,508.161 1087.473,546.023 1097.438,598.328 1049.86,574.422 
					1003.195,600.063 1011.228,547.426 972.421,510.968 1024.964,502.342 1047.647,454.169 				"/>
				<polygon style="fill:#D87355;" points="1292.291,501.475 1345.116,508.161 1307.678,546.023 1317.643,598.328 1270.065,574.422 
					1223.399,600.063 1231.433,547.426 1192.626,510.968 1245.169,502.342 1267.852,454.169 				"/>
				<polygon style="fill:#D87355;" points="1512.496,501.475 1565.321,508.161 1527.882,546.023 1537.848,598.328 1490.27,574.422 
					1443.604,600.063 1451.637,547.426 1412.831,510.968 1465.374,502.342 1488.056,454.169 				"/>
				<polygon style="fill:#D87355;" points="1732.701,501.475 1785.525,508.161 1748.087,546.023 1758.052,598.328 1710.474,574.422 
					1663.809,600.063 1671.842,547.426 1633.036,510.968 1685.579,502.342 1708.261,454.169 				"/>
				<polygon style="fill:#D87355;" points="1952.905,501.475 2005.73,508.161 1968.292,546.023 1978.257,598.328 1930.679,574.422 
					1884.013,600.063 1892.047,547.426 1853.24,510.968 1905.783,502.342 1928.465,454.169 				"/>
			</g>
		</g>
		<g>
			<g>
				<path style="fill:#E6D0BE;" d="M1738.546,1648.582H788.269c-0.553,0-1-0.448-1-1v-623.619c0-0.552,0.447-1,1-1
					c0.553,0,1,0.448,1,1v622.619h949.276c0.553,0,1,0.448,1,1S1739.099,1648.582,1738.546,1648.582z"/>
				<rect x="891.769" y="1430.251" style="fill:#E6D0BE;" width="121.841" height="119.071"/>
				<rect x="1092.837" y="1335.772" style="fill:#E6D0BE;" width="121.841" height="213.55"/>
				<rect x="1293.905" y="1213.904" style="fill:#E6D0BE;" width="121.841" height="335.419"/>
				<rect x="1494.974" y="1107.273" style="fill:#E6D0BE;" width="121.841" height="442.05"/>
			</g>
			<polygon style="opacity:0.5;fill:#FFFFFF;" points="1766.288,699.108 1443.444,786.824 1529.251,854.497 1213.882,1225.049 
				1055.822,1084.404 678.576,1623.354 1042.303,1274.156 1200.432,1422.642 1671.493,966.68 1756.222,1033.504 			"/>
		</g>
		<g>
			<g>
				<g>
					<path style="fill:#FFFFFF;" d="M768.242,1927.179c0,0-31.427,20.358-56.049,100.688
						c118.322,65.017,178.071,96.476,179.267,94.387c0.021-0.037,0.024-0.085,0.008-0.144c4.799-10.261,7.183-19.82,8.171-28.356
						c9.019-77.957-90.371-140.228-98.646-145.271C790.076,1941.382,779.158,1934.281,768.242,1927.179z"/>
					<path style="fill:#84524D;" d="M796.949,1870.004l-37.117,69.566c-7.889,14.787-2.163,33.17,12.729,40.86l0,0
						c13.532,6.988,30.152,2.752,38.688-9.861l33.855-50.026L796.949,1870.004z"/>
				</g>
				<path style="fill:#363E44;" d="M838.887,1176.734c0,0,107.3,239.176,111.71,459.99c4.211,210.878-111.71,318.101-111.71,318.101
					l-66.208-64.716c0,0,78.148-346.986-82.548-497.417l-21.446-195.077L838.887,1176.734z"/>
				<path style="fill:#F2E6DC;" d="M676.607,2002.871c0,0-17.947,57.733-16.706,122.295c0,0,115.74,0,143.615,0
					c-0.026-0.076-4.528-80.722-89.571-122.295H676.607z"/>
				<path style="fill:#84524D;" d="M649.348,1946.847c0.899,2.359,15.808,44.7,23.956,67.857
					c4.785,13.599,19.425,21.263,33.203,17.023c0.223-0.069,0.447-0.14,0.672-0.214c12.978-4.261,20.407-17.929,17.542-31.284
					l-14.957-69.712L649.348,1946.847z"/>
				<path style="fill:#363E44;" d="M645.049,1976.151c0,0,44.084,12.43,94.614-13.139c0,0-25.744-459.91,20.586-635.666
					l-16.041-120.734l-184.268,31.073C559.94,1237.684,498.942,1563.031,645.049,1976.151z"/>
				<path style="fill:#FFFFFF;" d="M740.736,1451.657c-0.052,0-0.105-0.004-0.158-0.012c-0.545-0.087-0.917-0.6-0.83-1.145
					l8.207-51.568c0.087-0.545,0.595-0.915,1.145-0.831c0.545,0.087,0.917,0.6,0.83,1.145l-8.207,51.568
					C741.644,1451.307,741.22,1451.657,740.736,1451.657z"/>
			</g>
			<g>
				<g>
					<path style="fill:#E2A18D;" d="M846.091,1155.204c54.945-28.07,218.474-99.374,187.782-167.699
						c-25.387-56.515-181.581,19.952-237.949,44.289C812.646,1072.931,829.368,1114.068,846.091,1155.204z"/>
					<g>
						<path style="fill:#84524D;" d="M917.932,1013.596c0,0,54.689-148.462,75.95-196.401
							c22.329-50.346,62.627-121.428,72.497-115.662c5.622,3.284,2.131,14.115-9.126,42.442c2.001-0.863,8.709-1.978,13.425,1.923
							c6.978,5.773,3.861,12.692,3.877,13.429c0.655-0.348,8.326-3.908,13.652-0.835c5.998,3.462,7.355,9.182,6.719,14.581
							c1.652-0.812,9.225-3.096,14.19,0.112c6.456,4.172,6.102,12.672,3.444,18.434c-4.877,10.57-18.921,39.122-24.419,55.169
							c-10.821,31.579-34.194,148.882-61.897,190.39C1000.281,1002.66,917.932,1013.596,917.932,1013.596z"/>
						<path style="fill:#363E44;" d="M1049.241,841.068c-0.027,0-0.054-0.001-0.081-0.003c-0.551-0.045-0.961-0.527-0.917-1.077
							c0.957-11.842-2.707-20.776-5.65-27.956c-3.015-7.351-5.396-13.157-0.435-17.82c3.282-3.086,5.706-8.474,7.009-15.581
							c0.366-2.002-0.735-3.449-1.889-4.135c-1.169-0.697-2.995-0.979-4.604,0.317l-27.89,22.449
							c-0.432,0.347-1.06,0.277-1.406-0.152c-0.346-0.43-0.278-1.06,0.152-1.406l27.89-22.449c1.985-1.598,4.688-1.785,6.882-0.478
							c2.175,1.295,3.286,3.734,2.832,6.214c-1.399,7.638-3.958,13.249-7.606,16.678c-3.958,3.721-2.02,8.448,0.915,15.604
							c3.025,7.377,6.79,16.557,5.795,28.876C1050.194,840.672,1049.757,841.068,1049.241,841.068z"/>
						<path style="fill:#363E44;" d="M1097.928,807.864c-0.139,0-0.28-0.029-0.415-0.091c-8.417-3.854-12.734-13.289-10.383-22.071
							l-2.744,4.268c-3.25,5.058-9.646,7.067-15.205,4.781c-3.131-1.288-5.551-3.726-6.813-6.867
							c-1.263-3.141-1.206-6.575,0.161-9.672l2.474-5.604c-3.12,2.546-7.621,3.102-11.331,1.065
							c-4.53-2.49-6.464-7.973-4.498-12.754l4.987-12.125c0.211-0.511,0.797-0.754,1.306-0.544c0.511,0.21,0.754,0.794,0.544,1.305
							l-4.987,12.125c-1.578,3.839-0.026,8.242,3.611,10.24c3.861,2.122,8.788,0.741,10.987-3.077l4.508-7.836
							c0.266-0.46,0.846-0.634,1.319-0.393c0.474,0.24,0.678,0.81,0.463,1.296l-7.553,17.11c-1.147,2.599-1.195,5.482-0.136,8.118
							c1.061,2.636,3.091,4.683,5.719,5.763c4.663,1.919,10.034,0.231,12.763-4.013l7.598-11.818c0.276-0.43,0.834-0.583,1.29-0.353
							c0.456,0.229,0.667,0.767,0.487,1.245l-2.515,6.691c-3.105,8.267,0.752,17.624,8.78,21.3c0.503,0.23,0.723,0.823,0.493,1.326
							C1098.67,807.647,1098.308,807.864,1097.928,807.864z"/>
					</g>
				</g>
				<path style="fill:#EFBC73;" d="M504.717,1193.156l-46.936-146.01c59.809-83.955,226.918-75.231,317.328-61.758
					c134.477,20.039,202.284-148.924,202.284-148.924l108.548,57.434c-53.41,230.932-225.062,261.308-225.062,261.308
					l22.971,120.234c-18.15,14.085-52.666,37.044-89.557,52.597c0,0-61.168,22.974-267.642,27.002l-14.382-61.37L504.717,1193.156z"
					/>
				<g>
					
						<ellipse transform="matrix(0.7071 -0.7071 0.7071 0.7071 -736.8704 823.5066)" style="fill:#FFFFFF;" cx="625.625" cy="1301.235" rx="117.935" ry="117.935"/>
					<polygon style="fill:#D87355;" points="706.289,1322.818 660.973,1288.807 663.301,1232.195 616.951,1264.784 
						563.829,1245.076 580.499,1299.228 545.341,1343.659 601.993,1344.54 633.386,1391.707 651.729,1338.099 					"/>
				</g>
				<path style="fill:#E2A18D;" d="M357.127,1234.699c16.23,6.281,24.13-0.91,40.992,3.248c16.258,4.009,32.744,7.223,49.348,9.545
					c17.597-54.108,60.201-86.666,60.201-86.666l-65.498-91.64c0,0-72.27,48.945-93.636,152.019
					C348.444,1221.638,357.213,1234.267,357.127,1234.699z"/>
				<path style="fill:#84524D;" d="M349.334,1215.752c-15.498,58.075,145.072,127.966,186.823,146.494
					c4.779,4.337,12.592,10.092,23.131,11.818c12.015,1.967,16.064-3.188,29.065-3.086c21.944,0.171,32.048,15.616,37.357,9.936
					c3.644-3.898-1.854-13.152-9.064-20.289c-7.403-7.327-15.274-8.949-14.807-10.59c0.512-1.801,8.295,0.882,18.279,3.329
					c4.639,1.137,15.453,12.102,21.217,7.511c4.595-3.661-3.796-17.875-16.547-24.56c-9.022-4.73-18.66-2.524-18.706-4.383
					c-0.035-1.395,5.741-2.568,11.019-2.096c8.711,0.778,19.896,11.878,25.118,7.549c5.117-4.242-2.429-16.527-13.768-23.418
					c-9.56-5.811-20.191-2.837-20.262-5.148c-0.05-1.625,4.432-3.946,14.84-5.799c8.687-1.547,26.578,1.048,26.317-8.285
					c-0.219-7.849-18.943-11.017-36.743-10.748c-11.794,0.179-23.708,1.74-30.619,2.36c1.838-3.194,4.876-7.987,9.413-13.162
					c8.092-9.231,12.2-11.487,10.402-16.741c-1.852-5.413-11.344-2.952-21.032,2.539c-11.557,6.549-17.205,15.825-21.399,20.39
					c-20.127-13.235-109.97-75.704-130.098-88.938C399.916,1175.884,357.678,1184.483,349.334,1215.752z"/>
				<path style="fill:#EFBC73;" d="M536.779,1257.116c-11.895,32.441-23.79,64.882-35.685,97.323
					c-84.917-19.761-148.489-63.67-155.117-116.668c-3.462-27.687,9.405-51.538,28.836-86.51
					c34.008-61.207,76.208-101.659,105.413-125.512c36.048,22.677,72.095,45.354,108.142,68.031
					c-24.578,24.382-49.326,49.623-74.179,75.745c-12.271,12.898-24.325,25.757-36.166,38.568
					C497.609,1224.434,517.194,1240.776,536.779,1257.116z"/>
				<path style="fill:#363E44;" d="M475.262,1205.162c-0.241,0-0.483-0.087-0.675-0.262l-15.38-14.068
					c-0.407-0.373-0.435-1.005-0.063-1.413c0.374-0.408,1.008-0.435,1.413-0.063l15.38,14.068c0.407,0.373,0.436,1.005,0.064,1.413
					C475.803,1205.053,475.532,1205.162,475.262,1205.162z"/>
				<path style="fill:#363E44;" d="M860.878,1153.584c-0.478,0-0.899-0.343-0.984-0.829l-2.572-14.779
					c-0.095-0.544,0.27-1.062,0.814-1.156c0.552-0.097,1.061,0.27,1.157,0.814l2.572,14.779c0.095,0.544-0.27,1.062-0.814,1.156
					C860.992,1153.579,860.935,1153.584,860.878,1153.584z"/>
			</g>
			<g>
				<path style="fill:#363E44;" d="M508.837,945.857c-33.632,0-65.735-19.563-80.028-52.303
					c-19.234-44.06,0.963-95.554,45.022-114.788c44.06-19.233,95.554,0.962,114.788,45.023l0,0
					c19.234,44.06-0.963,95.553-45.022,114.788C532.277,943.517,520.465,945.857,508.837,945.857z M508.593,773.485
					c-11.362,0-22.899,2.284-33.961,7.114c-43.05,18.793-62.783,69.106-43.991,112.155c18.794,43.048,69.107,62.785,112.155,43.99
					c43.05-18.793,62.783-69.106,43.991-112.155l0,0C572.822,792.601,541.451,773.485,508.593,773.485z"/>
				
					<ellipse transform="matrix(0.7071 -0.7071 0.7071 0.7071 -430.1247 599.1058)" style="fill:#363E44;" cx="508.122" cy="818.759" rx="107.39" ry="107.39"/>
				
					<ellipse transform="matrix(0.9991 -0.0418 0.0418 0.9991 -34.9968 27.7325)" style="fill:#363E44;" cx="645.193" cy="850.146" rx="72.449" ry="72.449"/>
				<path style="fill:#84524D;" d="M734.988,907.786c-10.122,16.824-63.916,6.629-63.916,6.629l-45.365-39.247
					c-11.051-25.315,0.512-54.795,25.827-65.846l0,0c25.315-11.051,54.795,0.512,65.846,25.827
					C717.381,835.148,745.298,890.65,734.988,907.786z"/>
				
					<ellipse transform="matrix(0.9999 -0.0147 0.0147 0.9999 -14.6847 10.1141)" style="fill:#84524D;" cx="681.038" cy="1004.52" rx="57.915" ry="23.745"/>
				
					<rect x="646.941" y="875.33" transform="matrix(0.9999 -0.0147 0.0147 0.9999 -13.7163 10.0605)" style="fill:#84524D;" width="61.815" height="126.441"/>
				<path style="fill:#84524D;" d="M717.375,849.5c0,0,18.737,7.857,19.605,11.712c1.037,4.601-12.154,13.443-12.154,13.443
					S717.731,849.383,717.375,849.5z"/>
				<path style="fill:#363E44;" d="M703.733,919.281c-15.924,0-31.587-2.921-32.502-3.094c-0.542-0.103-0.898-0.626-0.796-1.169
					c0.103-0.542,0.62-0.9,1.169-0.796c0.31,0.059,31.281,5.832,50.193,1.296c0.538-0.128,1.077,0.202,1.206,0.739
					c0.129,0.537-0.202,1.077-0.739,1.206C716.688,918.801,710.19,919.281,703.733,919.281z"/>
				<g>
					<path style="fill:#FFFFFF;" d="M669.208,864.385c0,0,6.435-8.195,16.574-12.62c2.157-0.941,5.623,18.096,3.148,18.012
						C678.052,869.41,669.208,864.385,669.208,864.385z"/>
					<g>
						<defs>
							<path id="SVGID_1_" d="M669.208,864.385c0,0,9.465-12.053,23.521-14.817c14.056-2.765,27.381,4.806,27.381,4.806
								s-9.465,12.053-23.521,14.817C682.533,871.955,669.208,864.385,669.208,864.385z"/>
						</defs>
						<clipPath id="SVGID_00000041273094820683396580000004346120831373732519_">
							<use xlink:href="#SVGID_1_"  style="overflow:visible;"/>
						</clipPath>
						
							<ellipse transform="matrix(0.0977 -0.9952 0.9952 0.0977 -219.1573 1474.2169)" style="clip-path:url(#SVGID_00000041273094820683396580000004346120831373732519_);fill:#363E44;" cx="703.459" cy="857.975" rx="18.735" ry="18.735"/>
					</g>
				</g>
				<path style="fill:#363E44;" d="M711.937,890.081c-0.466,0-0.936-0.038-1.404-0.115c-3.236-0.536-5.943-2.922-6.898-6.079
					c-0.16-0.529,0.139-1.087,0.668-1.247c0.526-0.16,1.087,0.139,1.246,0.668c0.736,2.434,2.82,4.273,5.31,4.685
					c2.595,0.428,5.201-0.716,6.665-2.912c0.305-0.46,0.925-0.585,1.387-0.278c0.459,0.306,0.584,0.927,0.277,1.387
					C717.554,888.641,714.81,890.081,711.937,890.081z"/>
				<path style="fill:#363E44;" d="M619.814,892.09c0,0,12.054-12.246,33.901-3.347l7.442-9.624c0,0-32.893-59.899,46.17-65.226
					c0,0-46.309-42.141-83.644-2.943C586.349,850.148,619.814,892.09,619.814,892.09z"/>
				<g>
					<path style="fill:#84524D;" d="M624.021,903.301c6.584,7.788,17.411,9.461,24.184,3.736c6.773-5.725,6.926-16.68,0.342-24.469
						c-6.584-7.789-17.411-9.461-24.184-3.736C617.59,884.557,617.437,895.512,624.021,903.301z"/>
					<path style="fill:#363E44;" d="M626.49,894.063c-0.478,0-0.901-0.345-0.984-0.832c-0.627-3.678,0.552-7.187,3.153-9.386
						c4.288-3.625,11.125-2.614,15.242,2.255c0.356,0.422,0.304,1.053-0.118,1.409c-0.421,0.357-1.054,0.303-1.409-0.118
						c-3.404-4.026-8.977-4.932-12.424-2.019c-2.055,1.737-2.979,4.55-2.474,7.522c0.093,0.544-0.273,1.061-0.817,1.154
						C626.602,894.058,626.546,894.063,626.49,894.063z"/>
				</g>
				<path style="fill:#EFBC73;" d="M647.893,933.656c-1.964,0-3.931-0.368-5.813-1.107c-3.956-1.552-7.071-4.551-8.771-8.445
					c-1.701-3.894-1.783-8.218-0.232-12.174c1.552-3.956,4.551-7.071,8.445-8.771c3.896-1.7,8.221-1.782,12.175-0.23
					c3.956,1.551,7.071,4.551,8.77,8.445c3.51,8.04-0.176,17.436-8.215,20.945C652.212,933.21,650.054,933.656,647.893,933.656z
					 M647.885,903.822c-1.891,0-3.777,0.39-5.562,1.169c-3.405,1.486-6.027,4.21-7.384,7.669c-1.357,3.459-1.285,7.239,0.201,10.643
					l0,0c1.486,3.405,4.21,6.027,7.669,7.384c3.459,1.357,7.238,1.285,10.643-0.201c7.029-3.068,10.251-11.283,7.184-18.312
					c-1.486-3.405-4.21-6.027-7.669-7.384C651.321,904.145,649.602,903.822,647.885,903.822z"/>
			</g>
		</g>
		<g>
			<g>
				<path style="fill:#EFBC73;" d="M1611.221,2105.605c1.097-15.841,4.813-41.153,18.266-68.769
					c13.884-28.499,31.499-45.822,41.907-55.875c55.724-53.827,134.902-71.425,161.073-76.407
					c9.784,5.201,20.76,12.697,32.601,22.012c17.149,13.491,35.995,31.954,42.786,51.834l-0.008,0.008
					c-22.45,22.45-73.681,72.719-150.492,102.482C1728.378,2092.12,1677.92,2107.343,1611.221,2105.605z"/>
				<path style="fill:#9E6C5A;" d="M1651.176,1894.774l71.028,70.09c12.319,12.157,30.542,16.215,46.795,10.267
					c11.856-4.339,26.038-11.096,39.904-21.524c19.349-14.551,23.325-42.03,9.262-61.736l-51.171-71.704L1651.176,1894.774z"/>
				<path style="fill:#EFBC73;" d="M1212.524,1939.402c-19.419-11.85-48.81-26.409-86.858-33.669
					c-70.813-13.513-128.385,6.503-153.244,16.936c25.539,28.126,55.406,57.948,90.057,87.919
					c51.769,44.778,102.234,79.527,147.038,106.357c0,0,0,0,0.001,0c24.768-8.557,41.038-20.318,60.276-39.545
					c20.478-20.467,38.764-40.748,32.364-69.809C1294.259,1971.727,1257.645,1942.587,1212.524,1939.402z"/>
				<path style="fill:#9E6C5A;" d="M1207.308,1921.717l85.454-121.496l131.655,109.974c0,0-75.778,62.394-123.48,96.89
					c-14.079,10.182-32.869,10.998-47.712,1.965c-11.947-7.271-26.65-17.703-40.879-31.709
					C1197.296,1962.527,1195.159,1938.99,1207.308,1921.717z"/>
				<path style="fill:#ff6900;" d="M1644.461,1919.977l163.099-98.217l-190.12-328.706h-136.386
					c-67.485,0-105.607,77.453-64.442,130.929L1644.461,1919.977z"/>
				<path style="fill:#ff6900;" d="M1250.128,1817.07l151.863,135.245c0,0,126.596-96.125,199.842-202.04
					c4.866-7.036,12.822-11.292,21.377-11.292h333.997c109.313,0,183.127-111.623,140.33-212.21l-14.346-33.718h-482.604
					c-48.002,0-94.031,18.995-128.08,52.831C1418.931,1599.127,1334.416,1691.385,1250.128,1817.07z"/>
				<path style="fill:#363E44;" d="M1392.576,1632.324c-0.233,0-0.468-0.081-0.658-0.247c-0.416-0.363-0.458-0.995-0.095-1.411
					c26.404-30.228,53.313-58.991,79.979-85.491c27.783-27.608,62.928-45.276,101.635-51.093c0.548-0.086,1.056,0.294,1.138,0.84
					s-0.295,1.055-0.841,1.137c-38.283,5.753-73.043,23.228-100.521,50.534c-26.634,26.467-53.51,55.195-79.884,85.387
					C1393.132,1632.208,1392.854,1632.324,1392.576,1632.324z"/>
				<path style="fill:#363E44;" d="M1499.42,1868.56c-0.262,0-0.523-0.102-0.719-0.305c-0.384-0.397-0.373-1.03,0.023-1.414
					c42.548-41.106,76.962-80.516,102.286-117.134c5.076-7.341,13.376-11.724,22.2-11.724h115.651c0.553,0,1,0.448,1,1s-0.447,1-1,1
					h-115.651c-8.168,0-15.853,4.06-20.556,10.861c-25.398,36.726-59.898,76.237-102.54,117.435
					C1499.921,1868.467,1499.67,1868.56,1499.42,1868.56z"/>
			</g>
			<g>
				
					<rect x="1501.84" y="1258.919" transform="matrix(0.7071 -0.7071 0.7071 0.7071 -456.3827 1537.4205)" style="fill:#FFFFFF;" width="251.603" height="121.389"/>
				<g>
					<path style="fill:#9E6C5A;" d="M1591.865,1312.455c0-0.003,0.002-0.005,0.001-0.007
						c-52.777-79.573-88.696-137.041-100.482-154.347c-1.234-1.812-3.398-5.021-7.236-8.273
						c-14.219-12.051-28.628-5.39-49.36-11.238c-23.525-6.636-33.014-23.692-38.181-20.19c-3.594,2.436-1.826,9.878,7.015,22.507
						l-0.002,0.002c-7.819-8.823-18.947-20.326-23.81-15.991c-5.348,5.306,6.138,20.356,13.532,29.121
						c-8.949-10.609-16.882-13.573-18.991-10.48c-3.32,4.868,1.704,14.711,14.075,28.274l-0.001,0.001
						c-11.158-6.978-14.905-7.008-16.103-3.82c-2.187,5.822,8.194,16.78,18.856,25.062c12.003,9.323,24.546,12.389,32.501,14.134
						c0.002,0,0.004,0.002,0.005,0.004c31.186,59.564,53.857,96.657,75.369,146.527
						C1512.762,1385.525,1588.479,1364.713,1591.865,1312.455z"/>
					<path style="fill:#9E6C5A;" d="M1452.553,1148.39c-12.052-20.969-11.956-31.086-8.572-32.89
						c5.691-3.034,23.308,10.656,44.783,39.083C1478.521,1153.762,1462.797,1149.211,1452.553,1148.39z"/>
					<path style="fill:#363E44;" d="M1592.812,1313.861c-0.324,0-0.642-0.157-0.834-0.447
						c-7.197-10.854-14.581-22.053-21.945-33.285c-0.303-0.462-0.174-1.082,0.288-1.385c0.46-0.303,1.082-0.174,1.384,0.288
						c7.363,11.229,14.745,22.425,21.939,33.276c0.306,0.46,0.18,1.081-0.28,1.386
						C1593.193,1313.807,1593.001,1313.861,1592.812,1313.861z"/>
					<g>
						<path style="fill:#363E44;" d="M1457.809,1189.334c-0.347,0-0.684-0.181-0.868-0.503c-2.067-3.608-5.914-8.607-12.499-11.932
							c-9.317-4.705-18.337-2.997-21.782-2.044c-0.527,0.148-1.082-0.164-1.23-0.697c-0.147-0.532,0.165-1.083,0.697-1.23
							c3.669-1.014,13.277-2.833,23.218,2.187c7.026,3.549,11.128,8.877,13.331,12.723c0.275,0.479,0.109,1.09-0.37,1.365
							C1458.148,1189.292,1457.978,1189.334,1457.809,1189.334z"/>
						<path style="fill:#363E44;" d="M1473.014,1145.535c-0.094,0-0.19-0.013-0.285-0.042c-4.949-1.474-10.241-1.74-15.844-2.021
							c-2.682-0.134-5.455-0.273-8.367-0.546c-0.55-0.052-0.953-0.539-0.902-1.089c0.052-0.55,0.531-0.956,1.09-0.902
							c2.868,0.269,5.619,0.407,8.279,0.54c5.727,0.287,11.135,0.558,16.314,2.101c0.529,0.158,0.831,0.715,0.673,1.244
							C1473.843,1145.254,1473.445,1145.535,1473.014,1145.535z"/>
						<path style="fill:#363E44;" d="M1422.7,1152.881c-0.103,0-0.207-0.016-0.31-0.05c-2.858-0.932-5.641-2.133-8.27-3.569
							c-3.815-2.084-7.347-4.68-10.495-7.715c-0.397-0.383-0.409-1.016-0.025-1.414c0.385-0.398,1.018-0.408,1.414-0.026
							c3.02,2.911,6.406,5.401,10.065,7.4c2.521,1.378,5.189,2.53,7.93,3.423c0.525,0.171,0.813,0.736,0.642,1.26
							C1423.514,1152.612,1423.121,1152.881,1422.7,1152.881z"/>
						<path style="fill:#363E44;" d="M1411.311,1164.596c-0.103,0-0.207-0.016-0.31-0.05c-2.858-0.932-5.641-2.132-8.27-3.569
							c-3.815-2.085-7.347-4.681-10.495-7.715c-0.397-0.383-0.409-1.016-0.025-1.414c0.385-0.398,1.018-0.408,1.414-0.026
							c3.02,2.911,6.406,5.401,10.065,7.4c2.521,1.377,5.189,2.529,7.93,3.423c0.525,0.171,0.813,0.736,0.642,1.26
							C1412.124,1164.327,1411.731,1164.596,1411.311,1164.596z"/>
						<path style="fill:#363E44;" d="M1407.141,1184.031c-0.103,0-0.207-0.016-0.31-0.05c-2.859-0.932-5.641-2.133-8.27-3.569
							c-3.815-2.085-7.347-4.681-10.495-7.715c-0.397-0.383-0.409-1.016-0.025-1.414c0.385-0.398,1.018-0.408,1.414-0.026
							c3.02,2.911,6.406,5.401,10.065,7.4c2.521,1.377,5.188,2.529,7.93,3.422c0.525,0.171,0.813,0.736,0.642,1.26
							C1407.954,1183.762,1407.562,1184.031,1407.141,1184.031z"/>
					</g>
				</g>
				<path style="fill:#FFFFFF;" d="M1729.153,1487.079c0,0,71.067,186.382,422.48,106.781l-179.067-372.828
					c-18.962-39.479-58.879-64.59-102.676-64.59h-128.004c-63.811,0-108.352,63.23-86.867,123.315L1729.153,1487.079z"/>
				<path style="fill:#9E6C5A;" d="M1533.398,1454.991l18.29-18.485c27.175-27.465,64.207-42.919,102.844-42.919h200.707
					c8.425,0,13.866-8.913,10.016-16.407l-14.489-28.198h161.475l23.832,49.329c23.423,48.483-11.899,104.777-65.744,104.777
					h-449.025L1533.398,1454.991z"/>
				<path style="fill:#363E44;" d="M1916.208,1349.982h-78.934c-0.404,0-0.77-0.244-0.924-0.618l-47.799-115.546
					c-0.211-0.51,0.031-1.095,0.542-1.306c0.51-0.21,1.095,0.031,1.306,0.542l47.544,114.928h78.265c0.553,0,1,0.448,1,1
					S1916.761,1349.982,1916.208,1349.982z"/>
				<g>
					<polygon style="fill:#FFFFFF;" points="1547.979,1476.415 1781.795,1476.415 1781.795,1485.613 1540.249,1492.84 					"/>
					<path style="fill:#D87355;" d="M1417.3,1502.985h220.051l-98.551-210.628h-242.512l89.032,190.284
						C1391.127,1495.054,1403.594,1502.985,1417.3,1502.985z"/>
					<path style="fill:#D87355;" d="M1781.795,1481.839L1781.795,1481.839c0,11.735-9.513,21.248-21.248,21.248H1557.64
						l-9.942-21.248H1781.795z"/>
					
						<ellipse transform="matrix(0.9926 -0.1218 0.1218 0.9926 -158.0182 187.1473)" style="fill:#9E6C5A;" cx="1452.326" cy="1386.56" rx="14.493" ry="14.493"/>
				</g>
				<g>
					<circle style="fill:#FFFFFF;" cx="1418.139" cy="1025.117" r="146.941"/>
					<path style="fill:#D87355;" d="M1337.194,997.801c6.071-19.513,24.27-33.681,45.781-33.681l0,0h0.002
						c13.915,0,26.407,5.966,35.163,15.436c8.756-9.47,21.249-15.436,35.163-15.436l0,0c0,0,0,0,0.001,0
						c21.509,0,39.71,14.168,45.779,33.681c1.4,4.503,2.155,9.291,2.155,14.254c0,26.474-31.306,71.414-83.099,90.979
						c-51.795-19.566-83.099-64.505-83.099-90.979C1335.04,1007.092,1335.793,1002.304,1337.194,997.801z"/>
				</g>
			</g>
			<g>
				<polygon style="fill:#9E6C5A;" points="1820.396,1164.675 1742.682,1180.125 1700.684,1107.383 1765.66,1069.869 				"/>
				<path style="fill:#9E6C5A;" d="M1824.725,1163.901c1.92,9.472-19.17,21.742-47.107,27.405
					c-27.937,5.664-52.141,2.577-54.061-6.896c-1.92-9.472,19.171-21.742,47.107-27.406
					C1798.601,1151.342,1822.805,1154.429,1824.725,1163.901z"/>
				<g>
					<path style="fill:#9E6C5A;" d="M1668.15,1118.474c9.931,16.154,61.784,5.811,61.784,5.811l43.446-38.32
						c10.438-24.548-1-52.91-25.548-63.349c-24.549-10.438-52.91,1-63.349,25.548
						C1684.482,1048.166,1658.035,1102.022,1668.15,1118.474z"/>
					<path style="fill:#9E6C5A;" d="M1684.62,1062.026c0,0-18.021,7.761-18.824,11.491c-0.958,4.453,11.861,12.869,11.861,12.869
						S1684.276,1061.916,1684.62,1062.026z"/>
					<g>
						<path style="fill:#FFFFFF;" d="M1725.542,1077.18c0,0-5.74-7.167-14.71-10.98c-1.908-0.811-4.802,15.992-2.623,15.897
							C1717.792,1081.682,1725.542,1077.18,1725.542,1077.18z"/>
						<g>
							<defs>
								<path id="SVGID_00000067226457297922714520000015317234298647598224_" d="M1725.542,1077.18c0,0-8.441-10.54-20.85-12.858
									c-12.409-2.318-24.086,4.465-24.086,4.465s8.441,10.54,20.85,12.858C1713.865,1083.963,1725.542,1077.18,1725.542,1077.18z"
									/>
							</defs>
							<clipPath id="SVGID_00000007390140001504762240000013032961111042550408_">
								<use xlink:href="#SVGID_00000067226457297922714520000015317234298647598224_"  style="overflow:visible;"/>
							</clipPath>
							<path style="clip-path:url(#SVGID_00000007390140001504762240000013032961111042550408_);fill:#363E44;" d="
								M1710.619,1065.645c-3.41-8.456-13.029-12.546-21.485-9.136c-8.456,3.41-12.546,13.029-9.136,21.485
								c3.41,8.455,13.029,12.546,21.485,9.136C1709.939,1083.72,1714.029,1074.101,1710.619,1065.645z"/>
						</g>
					</g>
					<path style="fill:#363E44;" d="M1688.037,1100.3c-2.545,0-4.979-1.261-6.448-3.42c-0.311-0.457-0.192-1.079,0.265-1.389
						c0.458-0.311,1.08-0.192,1.39,0.264c1.281,1.885,3.558,2.851,5.778,2.46c2.146-0.376,3.931-1.982,4.546-4.09
						c0.155-0.53,0.711-0.835,1.24-0.68c0.53,0.155,0.834,0.71,0.68,1.24c-0.827,2.833-3.229,4.992-6.12,5.499
						C1688.924,1100.262,1688.479,1100.3,1688.037,1100.3z"/>
					<path style="fill:#363E44;" d="M1697.264,1129.327c-5.849,0-11.685-0.427-16.746-1.591c-0.539-0.124-0.875-0.66-0.751-1.198
						c0.124-0.538,0.664-0.874,1.198-0.751c18.304,4.207,48.147-1.655,48.447-1.715c0.539-0.108,1.068,0.244,1.176,0.785
						c0.108,0.542-0.243,1.068-0.785,1.176C1728.898,1126.213,1713.042,1129.327,1697.264,1129.327z"/>
				</g>
				<path style="fill:#363E44;" d="M1708.116,1031.391c-8.25-0.807-15.289-6.339-17.961-14.186
					c-4.772-14.012-10.051-35.998-1.684-48.172c12.935-18.821,37.504,18.619,69.179,23.298c31.675,4.679,51.345,11.625,50.86,35.982
					c-0.486,24.357-21.561,33.712-21.561,33.712s14.31-4.93,18.246,14.723c3.936,19.653-58.761,17.657-58.761,17.657l-7.04-8.02
					l8.685-19.558c6.605-14.873-3.289-31.849-19.485-33.434L1708.116,1031.391z"/>
				
					<ellipse transform="matrix(0.0827 -0.9966 0.9966 0.0827 533.1299 2758.8484)" style="fill:#9E6C5A;" cx="1765.267" cy="1089.81" rx="19.316" ry="19.316"/>
			</g>
		</g>
	</g>
</g>
</svg>
