<?xml version="1.0" encoding="utf-8"?>
<!-- Generator: Adobe Illustrator 27.5.0, SVG Export Plug-In . SVG Version: 6.00 Build 0)  -->
<svg version="1.1" xmlns="http://www.w3.org/2000/svg" xmlns:xlink="http://www.w3.org/1999/xlink" x="0px" y="0px"
	 viewBox="0 0 2500 2500" style="enable-background:new 0 0 2500 2500;" xml:space="preserve">
-
<g id="Illustration">
	<g id="Clients_1_">
		<circle style="fill:transparent;" cx="1250" cy="1259.798" r="905.202"/>
		<g>
			<g>
				<g>
					<path style="fill:#EFBC73;" d="M1661.478,2157.274l-39.857-281.712l-59.643-527.727c0,0-346.638-16.689-541.22-8.352
						c-44.518,1.907-87.101,18.726-121.098,47.531c-202.083,171.219-208.967,356.213-108.347,429.538
						c59.046,43.03,96.283,49.506,133.664,57.259l-46.735,283.462H1661.478z"/>
					<path style="fill:#EFBC73;" d="M1561.978,1347.835l-50.769,563.315c0,0,145.381,48.781,215.347-83.835
						C1796.522,1694.698,1830.574,1356.889,1561.978,1347.835z"/>
					<path style="fill:#363E44;" d="M979.405,1878.445c-26.186,0-45.808-1.956-47.549-2.266c-0.543-0.097-0.905-0.616-0.808-1.16
						c0.097-0.543,0.61-0.912,1.16-0.809c1.165,0.208,126.613,13.344,181.274-27.737c0.441-0.331,1.067-0.242,1.4,0.199
						c0.331,0.441,0.242,1.068-0.199,1.4c-28.549,21.457-76.058,28.037-110.886,29.78
						C995.296,1878.277,987.067,1878.445,979.405,1878.445z"/>
					<path style="fill:#363E44;" d="M1546.624,1925.113c-22.648,0-41.814-2.97-56.774-6.596
						c-35.169-8.524-55.365-22.442-55.564-22.582c-0.453-0.316-0.563-0.939-0.248-1.392s0.94-0.564,1.393-0.248
						c0.197,0.138,20.154,13.875,54.991,22.301c32.145,7.776,83.901,12.492,147.921-9.201c0.524-0.174,1.091,0.104,1.269,0.626
						c0.177,0.523-0.104,1.091-0.626,1.268C1604.233,1921.065,1573.058,1925.113,1546.624,1925.113z"/>
				</g>
				<g>
					<path style="fill:#E2A18D;" d="M944.172,1584.973c-42.905,8.444-67.758,46.196-79.646,88.277
						c-11.342,40.15-5.823,86.92,55.424,124.507c163.723,100.475,567.84-102.891,567.84-102.891l54.233-124.328
						C1390.61,1542.936,1089.113,1556.447,944.172,1584.973z"/>
					<g>
						<path style="fill:#E2A18D;" d="M1596.966,1601.063c32.558,14.496,54.206,12.464,55.618,2.954
							c2.221-14.969-20.408-32.087-64.182-49.575c-0.002,0-0.001-0.004-0.001-0.004c33.6,3.631,42.292-0.496,41.49-9.203
							c-1.465-15.905-37.723-29.605-71.633-36.802c-38.174-8.103-70.593-1.145-90.929,3.729c-0.005-0.001-0.01,0.001-0.016-0.004
							c-0.125-0.094-0.245-0.183-0.37-0.273c-83.685,29.256-89.906,88.891-103.271,116.117c-25.108,51.15,1.012,72.777,2.186,73.45
							c4.88,2.805,13.473,7.799,25.982,11.015c46.351,11.926,72.189-19.598,126.646-29.297
							c61.793-11.002,102.817,17.784,110.834,3.906c5.578-9.654-6.839-24.871-41.409-44.155c0,0-0.001-0.01,0.004-0.009
							c27.946,11.635,66.54,25.757,72.924,10.293C1667.257,1634.958,1623.863,1613.04,1596.966,1601.063z"/>
						<path style="fill:#363E44;" d="M1586.749,1643.499c-0.118,0-0.238-0.021-0.355-0.066c-7.755-2.951-15.867-4.856-24.111-5.664
							c-7.978-0.781-16.039-0.531-23.958,0.744c-0.544,0.088-1.059-0.283-1.146-0.828c-0.088-0.545,0.283-1.059,0.828-1.146
							c8.089-1.302,16.323-1.559,24.472-0.759c8.421,0.825,16.706,2.771,24.627,5.785c0.517,0.196,0.775,0.774,0.579,1.29
							C1587.532,1643.253,1587.152,1643.499,1586.749,1643.499z"/>
						<path style="fill:#363E44;" d="M1597.104,1603.951c-0.152,0-0.307-0.035-0.452-0.108c-8.588-4.36-17.704-7.548-27.096-9.477
							c-9.085-1.867-18.382-2.544-27.624-2.011c-0.544,0.02-1.024-0.39-1.056-0.941c-0.032-0.552,0.39-1.024,0.94-1.056
							c9.422-0.54,18.886,0.148,28.142,2.049c9.566,1.964,18.852,5.212,27.6,9.653c0.492,0.25,0.688,0.852,0.438,1.344
							C1597.82,1603.751,1597.47,1603.951,1597.104,1603.951z"/>
						<path style="fill:#363E44;" d="M1587.399,1555.907c-0.108,0-0.218-0.018-0.326-0.055c-9.711-3.345-19.816-5.38-30.037-6.047
							c-9.887-0.648-19.831-0.008-29.554,1.896c-0.551,0.104-1.067-0.248-1.174-0.789c-0.106-0.542,0.247-1.067,0.789-1.174
							c9.892-1.937,20.006-2.585,30.069-1.929c10.397,0.679,20.679,2.749,30.559,6.152c0.521,0.18,0.799,0.749,0.619,1.271
							C1588.202,1555.646,1587.814,1555.907,1587.399,1555.907z"/>
					</g>
				</g>
				<g>
					<path style="fill:#E2A18D;" d="M1592.765,1673.166c40.059,17.534,56.149,59.771,58.643,103.428
						c2.38,41.653-13.135,86.119-81.068,109.553c-181.594,62.642-532.092-223.398-532.092-223.398l-26.027-133.122
						C1166.02,1535.464,1457.439,1613.934,1592.765,1673.166z"/>
					<path style="fill:#363E44;" d="M1581.561,1669.367c-0.13,0-0.261-0.025-0.387-0.079
						c-95.484-40.061-250.518-85.533-385.782-113.15c-0.541-0.111-0.89-0.639-0.779-1.18c0.111-0.541,0.638-0.887,1.18-0.78
						c135.379,27.642,290.563,73.16,386.155,113.266c0.51,0.214,0.749,0.8,0.535,1.309
						C1582.322,1669.136,1581.951,1669.367,1581.561,1669.367z"/>
					<g>
						<path style="fill:#E2A18D;" d="M951.974,1547.532c-34.924,7.103-55.619,0.432-54.938-9.158
							c1.073-15.095,26.871-26.907,73.394-34.502c0.002,0,0.002-0.003,0.002-0.003c-33.589-3.73-41.182-9.641-38.513-17.968
							c4.874-15.21,43.238-20.735,77.902-20.419c39.023,0.354,69.166,14.167,87.965,23.328c0.005,0,0.01,0.003,0.016,0
							c0.142-0.065,0.279-0.126,0.421-0.187c75.365,46.682,68.527,106.249,75.679,135.723
							c13.437,55.373-16.746,70.831-18.037,71.234c-5.371,1.681-14.842,4.696-27.751,5.128
							c-47.833,1.607-66.233-34.763-117.299-56.023c-57.945-24.12-104.229-4.9-109.051-20.184
							c-3.355-10.633,12.062-22.8,49.987-34.142c0,0,0.003-0.01-0.002-0.01c-29.803,5.308-70.538,10.739-73.423-5.74
							C876.011,1565.403,923.121,1553.401,951.974,1547.532z"/>
						<path style="fill:#363E44;" d="M1001.484,1596.861c-0.123,0-0.248-0.023-0.369-0.071c-7.455-2.959-15.27-4.949-23.228-5.913
							c-8.226-0.998-16.558-0.893-24.766,0.309c-0.547,0.084-1.054-0.298-1.134-0.844c-0.08-0.546,0.298-1.055,0.845-1.134
							c8.384-1.228,16.895-1.335,25.295-0.316c8.129,0.985,16.111,3.017,23.727,6.04c0.513,0.204,0.764,0.785,0.561,1.298
							C1002.258,1596.622,1001.882,1596.861,1001.484,1596.861z"/>
						<path style="fill:#363E44;" d="M1007.86,1550.984c-0.091,0-0.183-0.013-0.273-0.038c-8.911-2.521-18.132-3.873-27.404-4.018
							c-9.597-0.149-19.177,0.988-28.505,3.386c-0.531,0.136-1.08-0.185-1.218-0.72s0.184-1.08,0.72-1.218
							c9.501-2.441,19.251-3.598,29.034-3.448c9.446,0.148,18.84,1.525,27.918,4.093c0.531,0.15,0.84,0.703,0.69,1.234
							C1008.697,1550.696,1008.296,1550.984,1007.86,1550.984z"/>
						<path style="fill:#363E44;" d="M1030.896,1514.468c-0.133,0-0.269-0.027-0.399-0.084c-9.078-3.963-18.648-6.738-28.441-8.249
							c-10.125-1.563-20.432-1.765-30.635-0.601c-0.55,0.065-1.045-0.333-1.106-0.88c-0.063-0.549,0.331-1.044,0.88-1.107
							c10.381-1.184,20.866-0.978,31.166,0.611c9.965,1.537,19.701,4.36,28.938,8.393c0.506,0.221,0.737,0.811,0.516,1.316
							C1031.648,1514.244,1031.281,1514.468,1030.896,1514.468z"/>
					</g>
					<path style="fill:#363E44;" d="M1252.326,1808.098c-0.165,0-0.332-0.041-0.486-0.127
						c-116.519-65.058-213.26-143.661-214.223-144.447c-35.24-27.258-94.791-32.898-118.103-31.36
						c-9.301,0.608-15.365-1.022-18.029-4.863c-2.811-4.054-0.678-8.897-0.585-9.102c0.227-0.502,0.819-0.728,1.322-0.5
						c0.503,0.227,0.727,0.818,0.501,1.321c-0.017,0.04-1.757,4.04,0.414,7.154c2.211,3.169,7.833,4.553,16.244,3.994
						c23.564-1.555,83.768,4.167,119.48,31.79c0.982,0.802,97.595,79.298,213.953,144.267c0.482,0.269,0.655,0.878,0.386,1.36
						C1253.018,1807.914,1252.677,1808.098,1252.326,1808.098z"/>
				</g>
			</g>
			<g>
				<path style="fill:#E2A18D;" d="M1212.52,1175.404c13.391,12.693,15.49,32.223,4.687,43.619
					c-10.803,11.397-30.416,10.346-43.807-2.348c-13.391-12.693-15.49-32.222-4.687-43.619
					C1179.515,1161.659,1199.128,1162.71,1212.52,1175.404z"/>
				<path style="fill:#E2A18D;" d="M1344.894,1145.068c-6.528,17.258,0.088,35.752,14.776,41.307
					c14.688,5.555,31.886-3.932,38.413-21.19c6.528-17.258-0.088-35.752-14.776-41.307
					C1368.619,1118.323,1351.421,1127.81,1344.894,1145.068z"/>
				<path style="fill:#E2A18D;" d="M1274.353,1412.934c-32.948-1.511-58.432-29.445-56.921-62.393l5.535-169.366l119.314,5.472
					l-5.535,169.366C1335.234,1388.961,1307.3,1414.445,1274.353,1412.934z"/>
				<path style="fill:#363E44;" d="M1321.006,1315.312c-93.275,22.181-124.511-134.584-124.511-134.584l166.028-35.084
					C1362.523,1145.643,1411.449,1293.804,1321.006,1315.312z"/>
				
					<ellipse transform="matrix(0.9553 -0.2956 0.2956 0.9553 -279.2814 411.3032)" style="fill:#363E44;" cx="1220.829" cy="1129.432" rx="60.858" ry="60.858"/>
				<path style="fill:#E2A18D;" d="M1362.906,1158.028c11.895,51.904-26.933,30.344-71.107,40.468
					c-44.174,10.123-76.966,48.096-88.861-3.808c-11.895-51.904,16.807-87.803,60.981-97.926
					C1308.093,1086.639,1351.011,1106.125,1362.906,1158.028z"/>
				<path style="fill:#363E44;" d="M1367.372,1184.463c-0.002,0-0.004,0-0.006,0c-0.552-0.003-0.997-0.453-0.994-1.005
					c0.046-8.482-0.91-17.057-2.843-25.487c-1.722-7.515-4.199-14.817-7.364-21.706c-0.23-0.502-0.01-1.096,0.492-1.326
					c0.499-0.23,1.095-0.011,1.326,0.491c3.222,7.013,5.743,14.446,7.495,22.094c1.967,8.58,2.94,17.31,2.894,25.945
					C1368.369,1184.019,1367.922,1184.463,1367.372,1184.463z"/>
				<path style="fill:#363E44;" d="M1209.764,1219.97c-0.371,0-0.728-0.207-0.9-0.563c-3.707-7.639-6.566-15.785-8.497-24.213
					c-1.788-7.799-2.758-15.741-2.882-23.604c-0.009-0.552,0.432-1.007,0.984-1.016c0.005,0,0.011,0,0.016,0
					c0.545,0,0.991,0.438,1,0.984c0.122,7.723,1.074,15.525,2.831,23.188c1.897,8.281,4.706,16.284,8.347,23.787
					c0.241,0.497,0.034,1.095-0.463,1.336C1210.059,1219.938,1209.91,1219.97,1209.764,1219.97z"/>
				<path style="fill:#363E44;" d="M1292.934,1201.371c-0.241,0-0.482-0.086-0.675-0.262c-0.407-0.373-0.436-1.005-0.063-1.413
					c2.021-2.21,2.911-4.193,2.646-5.892c-0.218-1.395-1.155-2.309-2.344-3.468c-1.274-1.244-2.72-2.653-3.66-5.017
					c-0.849-2.128-1.065-4.51-0.647-7.08c0.089-0.544,0.593-0.919,1.148-0.826c0.545,0.089,0.915,0.603,0.826,1.147
					c-0.36,2.207-0.182,4.232,0.53,6.019c0.783,1.968,2.012,3.166,3.199,4.325c1.339,1.305,2.604,2.539,2.924,4.591
					c0.363,2.329-0.695,4.869-3.146,7.55C1293.475,1201.262,1293.204,1201.371,1292.934,1201.371z"/>
				<path style="fill:#FFFFFF;" d="M1280.372,1227.137c-2.642,0-5.729-0.433-8.935-1.786c-3.272-1.381-6.241-3.565-8.588-6.316
					c-0.358-0.42-0.309-1.051,0.112-1.41c0.418-0.358,1.052-0.309,1.409,0.112c2.146,2.515,4.857,4.511,7.844,5.771
					c5.716,2.413,11.042,1.619,13.708,0.932c0.535-0.134,1.08,0.184,1.219,0.718c0.138,0.535-0.185,1.08-0.719,1.218
					C1285.003,1226.743,1282.891,1227.137,1280.372,1227.137z"/>
				<path style="fill:#363E44;" d="M1187.446,1169.097c0,0,44.28-1.211,79.736-61.84c0,0,102.261,94.036,143.096-48.287
					c0,0-34.535,23.126-59.227,0.55c-39.288-35.922-121.919-55.966-138.767,26.101L1187.446,1169.097z"/>
				<g>
					<g>
						<path style="fill:#FFFFFF;" d="M1332.892,1149.79l-0.196,0.028c-0.01,0.424-0.162,0.996-0.588,1.079
							c-0.369,0.717-0.378,1.741-0.573,2.459c-0.35,1.292-2.331,0.668-1.982-0.622c0.235-0.869-2.174,1.243-3.272,1.98
							c-3.504,2.356-7.1,4.55-10.772,6.635c-1.712,0.972-3.424,1.96-5.169,2.871c-1.399,0.731-5.961,3.405-6.403,3.263
							c-3.962,5.734-5.737,10.704-5.737,10.704s7.918,1.547,17.32-0.084c-0.002-0.131-0.001-0.26-0.008-0.392
							c-0.069-1.295,20.198-11.249,20.993-10.431c7.745-7.849,11.102-17.193,11.102-17.193S1341.105,1148.817,1332.892,1149.79z"/>
						<path style="fill:#363E44;" d="M1317.485,1154.615c-5.99,3.407-10.436,8.365-13.541,12.857
							c1.405,3.903,4.196,7.32,8.154,9.409c1.019,0.538,2.068,0.958,3.132,1.276c4.244-0.71,8.805-2.06,13.087-4.496
							c3.097-1.761,5.762-3.945,8.061-6.257c2.197-6.156,0.685-12.948-3.682-17.587
							C1327.879,1150.407,1322.494,1151.766,1317.485,1154.615z"/>
					</g>
					<g>
						<path style="fill:#FFFFFF;" d="M1228.213,1175.255l0.189-0.06c0.193,0.378,0.579,0.826,0.999,0.717
							c0.644,0.485,1.098,1.403,1.585,1.965c0.876,1.012,2.39-0.412,1.515-1.422c-0.59-0.68,2.498,0.174,3.808,0.362
							c4.18,0.599,8.372,1.012,12.585,1.293c1.964,0.131,3.935,0.277,5.904,0.339c1.578,0.051,6.848,0.476,7.184,0.156
							c6.06,3.442,9.819,7.146,9.819,7.146s-6.459,4.835-15.634,7.453c-0.055-0.118-0.112-0.235-0.163-0.356
							c-0.501-1.197-23.079-1.353-23.44-0.269c-10.388-3.702-17.471-10.659-17.471-10.659S1220.393,1177.948,1228.213,1175.255z"/>
						<path style="fill:#363E44;" d="M1244.186,1172.904c6.876,0.465,13.035,2.998,17.784,5.694
							c0.431,4.126-0.598,8.416-3.254,12.018c-0.684,0.927-1.446,1.762-2.266,2.511c-4.13,1.206-8.825,1.971-13.741,1.639
							c-3.554-0.241-6.903-1.049-9.979-2.132c-4.655-4.589-6.245-11.363-4.328-17.439
							C1232.996,1173.632,1238.437,1172.515,1244.186,1172.904z"/>
					</g>
				</g>
			</g>
		</g>
		<g>
			<g>
				
					<ellipse transform="matrix(0.7071 -0.7071 0.7071 0.7071 -17.1277 1436.0454)" style="fill:#FFFFFF;" cx="1724.896" cy="738.698" rx="144.157" ry="144.157"/>
				<g>
					<defs>
						<path id="SVGID_1_" d="M1853.536,738.698c0,71.046-57.594,128.64-128.64,128.64c-71.046,0-128.64-57.594-128.64-128.64
							c0-71.046,57.594-193.684,128.64-193.684C1795.942,545.014,1853.536,667.652,1853.536,738.698z"/>
					</defs>
					<clipPath id="SVGID_00000083781458482786022630000009320505321802336447_">
						<use xlink:href="#SVGID_1_"  style="overflow:visible;"/>
					</clipPath>
					<g style="clip-path:url(#SVGID_00000083781458482786022630000009320505321802336447_);">
						<path style="fill:#363E44;" d="M1679.474,762.179h190.534c-0.003-1.062-0.008-2.114-0.014-3.138
							c-0.064-9.115-7.456-16.473-16.571-16.473c-12.951,0-23.45-10.499-23.45-23.45v-16.69c0-12.951-10.499-23.45-23.451-23.45
							c-12.951,0-23.45-10.499-23.45-23.45v-54.103h-124.538v44.2c0,17.992-10.187,34.433-26.298,42.443
							c-16.111,8.01-26.299,24.451-26.299,42.443v37.836l73.538,7.118V762.179z"/>
						<polygon style="fill:#EFBC73;" points="1879.123,890.022 1551.752,890.022 1551.752,766.736 1718.386,733.543 
							1879.123,766.736 						"/>
						<g>
							
								<ellipse transform="matrix(0.4472 -0.8944 0.8944 0.4472 408.0048 1875.0887)" style="fill:#363E44;" cx="1720.98" cy="607.462" rx="62.448" ry="62.448"/>
							<rect x="1690.58" y="658.819" style="fill:#BC8271;" width="62.14" height="106.985"/>
							<path style="fill:#BC8271;" d="M1772.54,630.165c0,33.265-23.039,68.354-51.46,68.354c-28.42,0-51.46-35.089-51.46-68.354
								c0-33.265,23.039-60.231,51.46-60.231C1749.501,569.934,1772.54,596.9,1772.54,630.165z"/>
							<path style="fill:#363E44;" d="M1721.08,699.519c-10.367,0-20.557-4.542-29.466-13.137c-0.397-0.383-0.409-1.017-0.025-1.414
								c0.385-0.397,1.017-0.408,1.414-0.025c8.529,8.228,18.238,12.576,28.077,12.576c10.703,0,21.123-5.07,30.135-14.661
								c0.378-0.403,1.01-0.422,1.413-0.044c0.402,0.378,0.423,1.011,0.044,1.413
								C1743.273,694.231,1732.349,699.519,1721.08,699.519z"/>
							<path style="fill:#363E44;" d="M1741.036,587.888l3.492,21.495h27.62c-0.07-28.213-22.96-51.063-51.189-51.063
								c-28.23,0-51.12,22.85-51.19,51.063h68.553L1741.036,587.888z"/>
							<path style="fill:#BC8271;" d="M1678.902,628.984c4.647,10.186,2.857,20.979-3.999,24.107s-16.181-2.593-20.828-12.779
								c-4.647-10.186-2.857-20.979,3.998-24.107C1664.929,613.077,1674.254,618.798,1678.902,628.984z"/>
							<path style="fill:#363E44;" d="M1663.088,643.585c-0.23,0-0.461-0.079-0.648-0.239c-1.657-1.413-3.058-3.311-4.053-5.49
								c-2.744-6.013-1.55-12.47,2.662-14.392c1.596-0.728,3.429-0.741,5.308-0.036c0.517,0.194,0.778,0.771,0.585,1.288
								c-0.195,0.518-0.771,0.778-1.288,0.584c-1.366-0.514-2.672-0.519-3.774-0.017c-3.208,1.464-3.959,6.732-1.672,11.742
								c0.874,1.915,2.095,3.574,3.529,4.799c0.421,0.358,0.471,0.989,0.112,1.41
								C1663.651,643.466,1663.37,643.585,1663.088,643.585z"/>
							<path style="fill:#363E44;" d="M1673.087,652.941c-0.42,0-0.811-0.266-0.949-0.686c-2.333-7.041-3.517-14.473-3.517-22.09
								c0-3.782,0.297-7.568,0.884-11.251c0.086-0.545,0.59-0.917,1.145-0.831c0.545,0.087,0.917,0.6,0.83,1.145
								c-0.569,3.58-0.858,7.26-0.858,10.937c0,7.403,1.149,14.624,3.415,21.462c0.174,0.524-0.11,1.09-0.635,1.264
								C1673.297,652.925,1673.191,652.941,1673.087,652.941z"/>
							<path style="fill:#BC8271;" d="M1762.707,628.984c-4.647,10.186-2.857,20.979,3.998,24.107
								c6.856,3.128,16.181-2.593,20.829-12.779c4.647-10.186,2.857-20.979-3.999-24.107
								C1776.68,613.077,1767.354,618.798,1762.707,628.984z"/>
							<path style="fill:#363E44;" d="M1778.521,643.585c-0.282,0-0.563-0.119-0.761-0.351c-0.358-0.42-0.309-1.051,0.112-1.41
								c1.435-1.225,2.655-2.884,3.529-4.799c2.287-5.01,1.536-10.278-1.672-11.742c-1.104-0.501-2.407-0.497-3.774,0.017
								c-0.52,0.194-1.093-0.067-1.288-0.584c-0.193-0.517,0.068-1.094,0.585-1.288c1.876-0.706,3.711-0.692,5.308,0.036
								c4.212,1.922,5.406,8.378,2.662,14.392c-0.995,2.179-2.396,4.078-4.053,5.49
								C1778.981,643.507,1778.75,643.585,1778.521,643.585z"/>
							<path style="fill:#363E44;" d="M1768.521,652.941c-0.104,0-0.21-0.017-0.314-0.051c-0.524-0.174-0.809-0.74-0.635-1.264
								c2.267-6.836,3.416-14.057,3.416-21.461c0-3.671-0.289-7.351-0.858-10.938c-0.087-0.545,0.285-1.058,0.83-1.144
								c0.56-0.087,1.058,0.286,1.145,0.831c0.587,3.689,0.884,7.475,0.884,11.251c0,7.618-1.184,15.051-3.518,22.091
								C1769.331,652.675,1768.94,652.941,1768.521,652.941z"/>
							<path style="fill:#363E44;" d="M1722.107,659.764c-0.331,0-0.654-0.164-0.845-0.464c-0.297-0.466-0.158-1.084,0.308-1.38
								c1.641-1.043,2.631-2.235,2.941-3.545c0.323-1.36-0.184-2.509-0.884-4.099c-0.568-1.29-1.213-2.752-1.594-4.705
								c-0.486-2.49-0.395-5.127,0.271-7.837c0.132-0.536,0.676-0.862,1.209-0.732c0.536,0.132,0.864,0.673,0.732,1.21
								c-0.596,2.426-0.68,4.773-0.25,6.977c0.338,1.734,0.935,3.087,1.461,4.281c0.76,1.725,1.478,3.355,0.999,5.368
								c-0.435,1.833-1.718,3.439-3.814,4.771C1722.477,659.714,1722.291,659.764,1722.107,659.764z"/>
							<path style="fill:#363E44;" d="M1715.164,671.05c-2.122,0-4.152-0.937-5.36-2.67c-1.405-2.016-1.447-4.814-0.107-7.127
								c0.275-0.479,0.89-0.642,1.366-0.364c0.478,0.276,0.642,0.888,0.364,1.366c-0.952,1.644-0.945,3.6,0.018,4.982
								c1.318,1.892,4.102,2.383,6.341,1.121c0.483-0.271,1.092-0.1,1.362,0.38c0.271,0.481,0.102,1.091-0.38,1.362
								C1717.629,670.742,1716.381,671.05,1715.164,671.05z"/>
							<path style="fill:#BC8271;" d="M1670.168,604.092c-0.041,0-0.083-0.002-0.125-0.008c-0.548-0.068-0.937-0.568-0.868-1.116
								c3.016-24.097,21.985-42.744,46.131-45.344c0.57-0.058,1.044,0.339,1.102,0.887c0.06,0.549-0.338,1.042-0.887,1.101
								c-23.22,2.501-41.462,20.432-44.361,43.604C1671.096,603.722,1670.665,604.092,1670.168,604.092z"/>
							<path style="fill:#BC8271;" d="M1771.512,602.424c-0.483,0-0.908-0.351-0.986-0.843
								c-3.663-23.08-22.504-40.401-45.816-42.123c-0.551-0.04-0.965-0.52-0.924-1.071c0.041-0.55,0.523-0.965,1.07-0.923
								c24.244,1.79,43.836,19.803,47.645,43.803c0.087,0.545-0.285,1.058-0.83,1.145
								C1771.616,602.42,1771.563,602.424,1771.512,602.424z"/>
							<ellipse style="fill:#BC8271;" cx="1720.562" cy="771.215" rx="82.786" ry="33.211"/>
							<g>
								<g>
									<path style="fill:#FFFFFF;" d="M1758.092,621.506c0,0.001,0,0.002,0,0.003l-0.133-0.014
										c-0.071,0.278-0.257,0.631-0.55,0.623c-0.351,0.416-0.511,1.09-0.748,1.533c-0.425,0.799-1.636,0.089-1.212-0.708
										c0.286-0.537-1.619,0.491-2.454,0.812c-2.662,1.024-5.361,1.927-8.094,2.747c-1.274,0.382-2.55,0.775-3.837,1.113
										c-1.031,0.271-4.438,1.345-4.708,1.185c-3.473,3.18-5.391,6.185-5.391,6.185s4.982,2.211,11.419,2.553
										c0.018-0.086,0.038-0.171,0.053-0.259c0.149-0.864,14.996-4.366,15.396-3.708c6.283-4.002,9.901-9.651,9.901-9.651
										S1763.647,622.102,1758.092,621.506z"/>
									<path style="fill:#363E44;" d="M1747.218,622.363c-4.458,1.342-8.133,3.938-10.854,6.428
										c0.338,2.782,1.661,5.453,3.953,7.425c0.59,0.508,1.218,0.943,1.871,1.312c2.902,0.172,6.109-0.031,9.296-0.99
										c2.305-0.693,4.388-1.73,6.251-2.907c2.375-3.723,2.401-8.424,0.224-12.137
										C1754.697,621.157,1750.946,621.242,1747.218,622.363z"/>
								</g>
								<g>
									<path style="fill:#FFFFFF;" d="M1685.317,622.511l0.133-0.011c0.071,0.278,0.257,0.631,0.55,0.623
										c0.351,0.416,0.511,1.089,0.748,1.533c0.425,0.799,1.636,0.089,1.212-0.708c-0.286-0.537,1.619,0.491,2.454,0.812
										c2.662,1.024,5.361,1.927,8.094,2.747c1.274,0.382,2.55,0.775,3.837,1.113c1.031,0.271,4.438,1.344,4.708,1.185
										c3.473,3.18,5.39,6.185,5.39,6.185s-4.982,2.211-11.419,2.553c-0.018-0.086-0.038-0.171-0.054-0.259
										c-0.149-0.864-14.996-4.367-15.396-3.708c-6.283-4.003-9.901-9.651-9.901-9.651S1679.761,623.107,1685.317,622.511z"/>
									<path style="fill:#363E44;" d="M1696.191,623.369c4.458,1.341,8.133,3.938,10.854,6.428
										c-0.338,2.782-1.661,5.453-3.953,7.425c-0.59,0.508-1.218,0.943-1.871,1.312c-2.902,0.172-6.109-0.031-9.296-0.99
										c-2.305-0.693-4.388-1.73-6.251-2.906c-2.374-3.723-2.401-8.424-0.224-12.137
										C1688.712,622.163,1692.463,622.247,1696.191,623.369z"/>
								</g>
							</g>
						</g>
					</g>
				</g>
			</g>
			<path style="fill:#D3BBA3;" d="M1977.346,1150.711h-504.898c-0.553,0-1-0.448-1-1V532.685c0-0.552,0.447-1,1-1h504.898
				c0.553,0,1,0.448,1,1v617.026C1978.346,1150.263,1977.898,1150.711,1977.346,1150.711z M1473.447,1148.711h502.898V533.685
				h-502.898V1148.711z"/>
			<g>
				<rect x="1518.903" y="912.149" style="fill:#FFFFFF;" width="411.987" height="21.723"/>
				<rect x="1518.903" y="973.327" style="fill:#FFFFFF;" width="411.987" height="21.723"/>
			</g>
			<g>
				<polygon style="fill:#D87355;" points="1558.454,1057.885 1578.501,1060.422 1564.293,1074.791 1568.075,1094.641 
					1550.019,1085.569 1532.308,1095.3 1535.357,1075.323 1520.63,1061.487 1540.57,1058.214 1549.179,1039.931 				"/>
				<polygon style="fill:#D87355;" points="1642.024,1057.885 1662.071,1060.422 1647.863,1074.791 1651.645,1094.641 
					1633.589,1085.569 1615.878,1095.3 1618.927,1075.323 1604.2,1061.487 1624.14,1058.214 1632.749,1039.931 				"/>
				<polygon style="fill:#D87355;" points="1725.594,1057.885 1745.641,1060.422 1731.433,1074.791 1735.215,1094.641 
					1717.158,1085.569 1699.448,1095.3 1702.497,1075.323 1687.77,1061.487 1707.71,1058.214 1716.318,1039.931 				"/>
				<polygon style="fill:#D87355;" points="1809.163,1057.885 1829.211,1060.422 1815.003,1074.791 1818.785,1094.641 
					1800.728,1085.569 1783.018,1095.3 1786.067,1075.323 1771.339,1061.487 1791.28,1058.214 1799.888,1039.931 				"/>
				<polygon style="fill:#D87355;" points="1892.733,1057.885 1912.781,1060.422 1898.573,1074.791 1902.354,1094.641 
					1884.298,1085.569 1866.588,1095.3 1869.637,1075.323 1854.909,1061.487 1874.85,1058.214 1883.458,1039.931 				"/>
			</g>
		</g>
		<g>
			<g>
				<polygon style="fill:#FFFFFF;" points="1418.861,915.171 1419.772,482.11 904.128,480.563 903.212,993.202 969.963,915.171 				
					"/>
				<path style="fill:#E6D0BE;" d="M872,945.606c-0.116,0-0.234-0.02-0.348-0.063c-0.392-0.146-0.653-0.521-0.652-0.939
					l0.916-495.255c0-0.265,0.107-0.52,0.295-0.707c0.188-0.186,0.441-0.291,0.705-0.291c0.001,0,0.002,0,0.003,0l515.644,1.547
					c0.552,0.002,0.998,0.45,0.997,1.002l-0.91,415.678c-0.001,0.552-0.448,0.998-1,0.998H939.212l-66.452,77.681
					C872.566,945.483,872.286,945.606,872,945.606z M873.914,450.354l-0.909,491.539l64.986-75.967c0.19-0.222,0.468-0.35,0.76-0.35
					h447.9l0.906-413.681L873.914,450.354z"/>
			</g>
			<g>
				
					<rect x="985.285" y="524.672" transform="matrix(1 0.003 -0.003 1 1.7344 -3.4254)" style="fill:#F2E6DC;" width="316.163" height="104.206"/>
				<g>
					<path style="fill:#E6D0BE;" d="M1301.162,673.117c-0.001,0-0.002,0-0.003,0l-316.161-0.948
						c-0.553-0.002-0.999-0.451-0.997-1.003c0.002-0.551,0.449-0.997,1-0.997c0.001,0,0.002,0,0.003,0l316.161,0.948
						c0.553,0.002,0.999,0.451,0.997,1.003C1302.16,672.671,1301.713,673.117,1301.162,673.117z"/>
					<path style="fill:#E6D0BE;" d="M1301.095,695.796c-0.001,0-0.002,0-0.003,0l-316.161-0.948
						c-0.553-0.001-0.999-0.451-0.997-1.003c0.002-0.551,0.449-0.997,1-0.997c0.001,0,0.002,0,0.003,0l316.161,0.948
						c0.553,0.002,0.999,0.451,0.997,1.003C1302.093,695.351,1301.646,695.796,1301.095,695.796z"/>
					<path style="fill:#E6D0BE;" d="M1301.026,718.477c-0.001,0-0.002,0-0.003,0l-316.161-0.948
						c-0.553-0.002-0.999-0.451-0.997-1.003c0.002-0.551,0.449-0.997,1-0.997c0.001,0,0.002,0,0.003,0l316.161,0.948
						c0.553,0.001,0.999,0.451,0.997,1.003C1302.024,718.031,1301.577,718.477,1301.026,718.477z"/>
				</g>
			</g>
			<g>
				<g>
					
						<ellipse transform="matrix(0.7071 -0.7071 0.7071 0.7071 9.072 943.3284)" style="fill:#FFFFFF;" cx="1143.234" cy="460.713" rx="112.315" ry="112.315"/>
					<path style="fill:#E6D0BE;" d="M1143.234,574.028c-62.482,0-113.315-50.833-113.315-113.315
						c0-62.482,50.833-113.315,113.315-113.315c62.481,0,113.314,50.833,113.314,113.315
						C1256.549,523.195,1205.716,574.028,1143.234,574.028z M1143.234,349.398c-61.38,0-111.315,49.936-111.315,111.315
						s49.936,111.315,111.315,111.315c61.379,0,111.314-49.936,111.314-111.315S1204.613,349.398,1143.234,349.398z"/>
				</g>
				<g>
					<path style="fill:#D87355;" d="M1232.083,513.829c-19.745-13.437-52.045-22.193-88.543-22.193
						c-36.768,0-69.276,8.887-88.979,22.492c18.121,30.018,51.052,50.091,88.673,50.091
						C1180.979,564.219,1214,544.013,1232.083,513.829z"/>
					<g>
						
							<ellipse transform="matrix(0.9925 -0.1222 0.1222 0.9925 -44.6748 148.1502)" style="fill:#363E44;" cx="1185.65" cy="438.345" rx="22.625" ry="22.625"/>
						
							<ellipse transform="matrix(0.8507 -0.5257 0.5257 0.8507 -65.817 695.7239)" style="fill:#363E44;" cx="1191.617" cy="463.705" rx="22.625" ry="22.625"/>
						<path style="fill:#363E44;" d="M1134.785,340.992c11.784-7.811,24.066-6.816,31.923-3.584
							c22.334,9.187,35.504,37.697,30.731,73.096c-35.14,0.663-70.279,1.326-105.419,1.989c-4.972-22.376-7.147-45.542,4.476-60.168
							C1111.513,333.429,1132.426,341.091,1134.785,340.992z"/>
						<path style="fill:#9E6C5A;" d="M1139.245,521.739c14.725,0.978,27.455-10.166,28.434-24.891l4.756-71.578l-53.325-3.543
							l-4.756,71.578C1113.376,508.03,1124.52,520.761,1139.245,521.739z"/>
						<path style="fill:#9E6C5A;" d="M1097.962,407.934c0.606,29.035,21.129,52.155,45.84,51.64
							c24.711-0.516,44.252-24.472,43.646-53.507c-0.606-29.035-21.129-49.866-45.84-49.35
							C1116.897,357.233,1097.356,378.899,1097.962,407.934z"/>
						<path style="fill:#9E6C5A;" d="M1179.818,397.14c-5.396,8.494-3.911,19.103,3.318,23.695c7.229,4.593,17.464,1.43,22.86-7.063
							c5.396-8.494,3.911-19.103-3.318-23.695C1195.449,385.484,1185.214,388.646,1179.818,397.14z"/>
						<path style="fill:#9E6C5A;" d="M1105.767,398.685c5.746,8.261,4.705,18.923-2.326,23.813
							c-7.031,4.89-17.389,2.158-23.135-6.103c-5.746-8.261-4.705-18.923,2.326-23.813
							C1089.663,387.691,1100.021,390.424,1105.767,398.685z"/>
						<path style="fill:#363E44;" d="M1142.986,460.582c-9.223,0-18.111-3.192-25.759-9.263c-0.433-0.343-0.505-0.972-0.161-1.405
							c0.343-0.433,0.971-0.505,1.405-0.162c7.508,5.961,16.262,9.023,25.31,8.821c9.229-0.192,17.985-3.727,25.321-10.221
							c0.414-0.365,1.044-0.328,1.412,0.085c0.366,0.414,0.327,1.046-0.086,1.412c-7.696,6.813-16.896,10.521-26.606,10.724
							C1143.544,460.579,1143.265,460.582,1142.986,460.582z"/>
						<path style="fill:#363E44;" d="M1140.79,424.681c-0.189,0-0.381-0.054-0.551-0.166c-1.772-1.172-2.737-2.488-2.869-3.913
							c-0.117-1.279,0.452-2.204,1.002-3.098c0.449-0.73,0.914-1.485,1.055-2.535c0.128-0.956-0.036-1.969-0.486-3.013
							c-0.219-0.507,0.015-1.096,0.521-1.314c0.508-0.22,1.095,0.015,1.314,0.521c0.597,1.381,0.81,2.751,0.633,4.071
							c-0.197,1.471-0.827,2.495-1.334,3.318c-0.491,0.799-0.767,1.279-0.713,1.866c0.072,0.79,0.739,1.607,1.98,2.428
							c0.461,0.305,0.587,0.925,0.282,1.386C1141.433,424.523,1141.114,424.681,1140.79,424.681z"/>
						<path style="fill:#363E44;" d="M1147.577,434.377c-0.026,0-0.054,0-0.08,0c-0.552-0.003-0.997-0.454-0.993-1.006
							c0.004-0.55,0.45-0.994,1-0.994c0.017,0.003,0.049,0,0.075,0c1.463,0,4.226-0.298,6.782-2.223
							c1.356-1.021,2.479-2.382,3.247-3.934c0.245-0.494,0.845-0.699,1.34-0.452c0.495,0.245,0.698,0.845,0.453,1.34
							c-0.906,1.83-2.232,3.436-3.837,4.644C1152.545,434.026,1149.296,434.377,1147.577,434.377z"/>
						<g>
							<path style="fill:#363E44;" d="M1217.438,486.578c0,10.69-8.666,19.356-19.356,19.356c-10.69,0-19.356-8.666-19.356-19.356
								c0-10.69,8.666-19.356,19.356-19.356C1208.772,467.223,1217.438,475.888,1217.438,486.578z"/>
							<path style="fill:#363E44;" d="M1223.405,511.939c0,10.69-8.666,19.356-19.356,19.356c-10.69,0-19.356-8.666-19.356-19.356
								c0-10.69,8.666-19.356,19.356-19.356C1214.739,492.583,1223.405,501.248,1223.405,511.939z"/>
							
								<ellipse transform="matrix(0.7071 -0.7071 0.7071 0.7071 -24.2863 1009.9979)" style="fill:#363E44;" cx="1207.032" cy="534.315" rx="15.83" ry="15.83"/>
							<polygon style="fill:#363E44;" points="1207.731,531.419 1177.658,583.507 1237.804,583.507 							"/>
						</g>
						<g>
							<g>
								<path style="fill:#FFFFFF;" d="M1174.764,398.815l-0.117-0.01c-0.062,0.243-0.225,0.553-0.482,0.546
									c-0.307,0.365-0.448,0.955-0.654,1.344c-0.372,0.7-1.433,0.078-1.062-0.62c0.25-0.47-1.418,0.431-2.149,0.712
									c-2.332,0.898-4.696,1.691-7.089,2.411c-1.116,0.336-2.233,0.68-3.361,0.976c-0.904,0.238-3.888,1.18-4.124,1.04
									c-3.041,2.787-4.719,5.421-4.719,5.421s4.365,1.935,10.005,2.231c0.016-0.076,0.034-0.15,0.047-0.227
									c0.13-0.757,13.135-3.832,13.487-3.255c5.502-3.509,8.669-8.459,8.669-8.459S1179.631,399.334,1174.764,398.815z"/>
								<path style="fill:#363E44;" d="M1165.238,399.571c-3.905,1.177-7.123,3.453-9.506,5.636
									c0.297,2.437,1.458,4.776,3.467,6.503c0.517,0.445,1.067,0.825,1.639,1.149c2.542,0.149,5.352-0.03,8.144-0.871
									c2.019-0.609,3.844-1.518,5.475-2.549c2.078-3.263,2.1-7.381,0.19-10.633
									C1171.79,398.511,1168.503,398.586,1165.238,399.571z"/>
							</g>
							<g>
								<path style="fill:#FFFFFF;" d="M1111.01,399.729l0.117-0.01c0.062,0.243,0.225,0.553,0.482,0.545
									c0.307,0.364,0.448,0.954,0.656,1.343c0.372,0.699,1.433,0.077,1.061-0.621c-0.251-0.47,1.418,0.429,2.15,0.71
									c2.333,0.895,4.698,1.686,7.092,2.403c1.116,0.335,2.234,0.678,3.362,0.973c0.904,0.237,3.889,1.176,4.125,1.036
									c3.044,2.784,4.725,5.416,4.725,5.416s-4.363,1.94-10.002,2.242c-0.016-0.076-0.034-0.15-0.047-0.227
									c-0.131-0.757-13.139-3.819-13.49-3.241c-5.506-3.504-8.678-8.45-8.678-8.45S1106.143,400.254,1111.01,399.729z"/>
								<path style="fill:#363E44;" d="M1120.536,400.475c3.906,1.173,7.127,3.446,9.512,5.626c-0.295,2.437-1.453,4.778-3.46,6.506
									c-0.516,0.445-1.066,0.826-1.638,1.15c-2.542,0.152-5.352-0.024-8.145-0.863c-2.019-0.607-3.845-1.514-5.478-2.544
									c-2.082-3.26-2.107-7.379-0.201-10.633C1113.984,399.422,1117.27,399.494,1120.536,400.475z"/>
							</g>
						</g>
					</g>
				</g>
			</g>
			<g>
				<polygon style="fill:#D87355;" points="985.09,779.005 1005.137,781.543 990.929,795.912 994.711,815.762 976.655,806.69 
					958.945,816.421 961.993,796.445 947.266,782.608 967.206,779.335 975.815,761.052 				"/>
				<polygon style="fill:#D87355;" points="1068.66,779.005 1088.707,781.543 1074.499,795.912 1078.281,815.762 1060.225,806.69 
					1042.514,816.421 1045.563,796.445 1030.836,782.608 1050.776,779.335 1059.385,761.052 				"/>
				<polygon style="fill:#D87355;" points="1152.229,779.005 1172.277,781.543 1158.069,795.912 1161.851,815.762 1143.794,806.69 
					1126.084,816.421 1129.133,796.445 1114.406,782.608 1134.346,779.335 1142.954,761.052 				"/>
				<polygon style="fill:#D87355;" points="1235.8,779.005 1255.847,781.543 1241.639,795.912 1245.421,815.762 1227.364,806.69 
					1209.654,816.421 1212.703,796.445 1197.975,782.608 1217.916,779.335 1226.524,761.052 				"/>
				<polygon style="fill:#D87355;" points="1319.369,779.005 1339.417,781.543 1325.209,795.912 1328.99,815.762 1310.934,806.69 
					1293.224,816.421 1296.273,796.445 1281.545,782.608 1301.486,779.335 1310.094,761.052 				"/>
			</g>
		</g>
		<g>
			<path style="fill:#FFFFFF;" d="M2040.267,1225.526h-253.703c-31.65,0-57.307,25.657-57.307,57.306
				c0,31.574,25.536,57.178,57.08,57.301l-13.803,92.147l64.484-92.141h203.248c31.65,0,57.307-25.657,57.307-57.307
				C2097.573,1251.183,2071.917,1225.526,2040.267,1225.526z"/>
			<path style="fill:#D3BBA3;" d="M1787.211,1452.047c-0.124,0-0.25-0.023-0.37-0.071c-0.432-0.172-0.688-0.618-0.619-1.077
				l13.635-91.015c-31.494-0.739-56.922-26.647-56.922-58.285c0-32.15,26.156-58.307,58.307-58.307h253.703
				c32.149,0,58.306,26.156,58.306,58.306c0,32.15-26.156,58.307-58.306,58.307h-202.729l-64.186,91.715
				C1787.839,1451.895,1787.529,1452.047,1787.211,1452.047z M1801.241,1245.293c-31.048,0-56.307,25.259-56.307,56.306
				c0,30.924,25.159,56.181,56.084,56.301c0.29,0.001,0.566,0.128,0.755,0.349c0.189,0.221,0.273,0.512,0.23,0.799l-13.174,87.942
				l62.046-88.657c0.188-0.268,0.493-0.427,0.819-0.427h203.249c31.047,0,56.306-25.259,56.306-56.306s-25.259-56.307-56.306-56.307
				H1801.241z"/>
		</g>
		<g>
			<polygon style="fill:#FFFFFF;" points="1010.212,1177.116 904.687,1207.868 996.504,1055.278 			"/>
			
				<ellipse transform="matrix(0.7071 -0.7071 0.7071 0.7071 -485.6629 1037.0497)" style="fill:#FFFFFF;" cx="1008.998" cy="1104.772" rx="103.096" ry="103.096"/>
			<path style="fill:#D87355;" d="M952.205,1085.607c4.259-13.69,17.028-23.631,32.121-23.631c9.763,0,18.529,4.185,24.672,10.83
				c6.143-6.645,14.908-10.83,24.671-10.83c0,0,0,0,0.001,0c15.092,0,27.861,9.941,32.12,23.631
				c0.982,3.159,1.512,6.518,1.512,10.001c0,18.575-21.965,50.105-58.304,63.833c-36.34-13.728-58.304-45.258-58.304-63.833
				C950.694,1092.125,951.223,1088.766,952.205,1085.607z"/>
		</g>
		<g>
			<polygon style="fill:#FFFFFF;" points="1944.904,1662.448 1839.379,1693.2 1931.195,1540.609 			"/>
			
				<ellipse transform="matrix(0.7071 -0.7071 0.7071 0.7071 -555.0793 1840.1268)" style="fill:#FFFFFF;" cx="1943.69" cy="1590.103" rx="103.096" ry="103.096"/>
			<path style="fill:#D87355;" d="M1886.897,1570.938c4.259-13.691,17.028-23.631,32.12-23.631c9.763,0,18.529,4.186,24.672,10.83
				c6.143-6.645,14.908-10.83,24.671-10.83c0,0,0,0,0.001,0c15.092,0,27.862,9.941,32.12,23.631
				c0.982,3.159,1.512,6.518,1.512,10.001c0,18.575-21.964,50.105-58.304,63.833c-36.34-13.728-58.304-45.258-58.304-63.833
				C1885.386,1577.457,1885.915,1574.098,1886.897,1570.938z"/>
		</g>
		<g>
			<path style="fill:#363E44;" d="M617.242,1790.78c-0.233,0-0.467-0.081-0.656-0.246c-0.417-0.362-0.461-0.994-0.099-1.411
				l11.586-13.324c0.363-0.417,0.995-0.46,1.411-0.098c0.417,0.362,0.461,0.994,0.099,1.411l-11.586,13.324
				C617.799,1790.664,617.521,1790.78,617.242,1790.78z"/>
			<path style="fill:#363E44;" d="M612.698,1835.095c-0.246,0-0.492-0.09-0.685-0.271c-0.402-0.378-0.422-1.011-0.044-1.414
				l14.844-15.788c0.378-0.402,1.014-0.421,1.413-0.043c0.402,0.378,0.422,1.011,0.044,1.414l-14.844,15.788
				C613.231,1834.989,612.964,1835.095,612.698,1835.095z"/>
			<path style="fill:#363E44;" d="M601.702,1891.724c-0.298,0-0.593-0.132-0.79-0.385c-0.339-0.436-0.261-1.064,0.175-1.404
				l22.282-17.359c0.436-0.339,1.064-0.262,1.403,0.174c0.339,0.436,0.261,1.064-0.175,1.404l-22.282,17.359
				C602.133,1891.655,601.917,1891.724,601.702,1891.724z"/>
			<path style="fill:#363E44;" d="M594.146,1932.236c-0.32,0-0.635-0.153-0.828-0.438c-0.311-0.457-0.191-1.079,0.266-1.389
				l15.336-10.417c0.457-0.31,1.079-0.192,1.389,0.265c0.31,0.457,0.191,1.079-0.266,1.389l-15.336,10.417
				C594.535,1932.18,594.34,1932.236,594.146,1932.236z"/>
			<path style="fill:#363E44;" d="M581.149,1972.641c-0.37,0-0.726-0.206-0.899-0.56c-0.242-0.496-0.037-1.095,0.459-1.338
				l16.474-8.068c0.498-0.243,1.095-0.038,1.338,0.458c0.242,0.496,0.037,1.095-0.459,1.338l-16.474,8.068
				C581.446,1972.608,581.297,1972.641,581.149,1972.641z"/>
			
				<ellipse transform="matrix(0.2088 -0.978 0.978 0.2088 -1379.6599 2066.8281)" style="fill:#ff6900;" cx="587.493" cy="1886.059" rx="151.401" ry="89.604"/>
			<path style="fill:#776E42;" d="M619.103,1737.995c-0.157-0.034-0.318-0.036-0.472-0.065l-63.205,296.059
				c0.153,0.036,0.301,0.101,0.458,0.134c27.867,5.949,64.609-55.519,82.067-137.293S646.97,1743.945,619.103,1737.995z"/>
			<path style="fill:#363E44;" d="M531.91,1998.978c-0.46,0-0.874-0.319-0.976-0.787c-6.799-31.141-4.932-76.013,5.124-123.112
				c10.925-51.175,29.773-96.252,50.419-120.58c0.359-0.421,0.989-0.472,1.41-0.115c0.421,0.357,0.473,0.988,0.115,1.409
				c-20.442,24.088-39.13,68.837-49.989,119.704c-9.997,46.831-11.865,91.396-5.126,122.268c0.118,0.54-0.224,1.073-0.764,1.19
				C532.053,1998.97,531.981,1998.978,531.91,1998.978z"/>
			<path style="fill:#363E44;" d="M591.639,2013.104c-0.21,0-0.422-0.066-0.603-0.202c-0.44-0.333-0.527-0.96-0.194-1.401
				c18.85-24.93,36.095-67.875,46.13-114.879c11.189-52.408,12.046-103.351,2.237-132.949c-0.174-0.524,0.11-1.09,0.635-1.264
				c0.524-0.175,1.09,0.11,1.264,0.635c9.914,29.916,9.078,81.26-2.181,133.996c-10.093,47.275-27.472,90.516-46.489,115.667
				C592.24,2012.968,591.941,2013.104,591.639,2013.104z"/>
			<path style="fill:#363E44;" d="M535.615,1818.646c-0.302,0-0.6-0.135-0.796-0.394l-17.281-22.646
				c-0.335-0.439-0.251-1.066,0.189-1.401c0.439-0.336,1.067-0.25,1.401,0.188l17.281,22.646c0.335,0.439,0.251,1.066-0.188,1.401
				C536.04,1818.579,535.826,1818.646,535.615,1818.646z"/>
			<path style="fill:#363E44;" d="M521.558,1874.621c-0.249,0-0.498-0.092-0.691-0.278l-29.73-28.463
				c-0.399-0.382-0.413-1.015-0.031-1.414c0.382-0.399,1.017-0.412,1.414-0.031l29.73,28.463c0.399,0.382,0.413,1.015,0.031,1.414
				C522.084,1874.518,521.82,1874.621,521.558,1874.621z"/>
			<path style="fill:#363E44;" d="M510.942,1914.481c-0.23,0-0.461-0.079-0.649-0.24l-21.378-18.255
				c-0.42-0.358-0.47-0.99-0.111-1.41c0.36-0.421,0.99-0.469,1.41-0.111l21.378,18.255c0.42,0.358,0.47,0.99,0.111,1.41
				C511.505,1914.362,511.225,1914.481,510.942,1914.481z"/>
			<path style="fill:#363E44;" d="M510.183,1957.498c-0.193,0-0.39-0.056-0.561-0.173l-24.83-16.885
				c-0.456-0.311-0.575-0.933-0.265-1.39c0.311-0.455,0.934-0.574,1.39-0.265l24.83,16.885c0.456,0.311,0.575,0.933,0.265,1.39
				C510.817,1957.344,510.503,1957.498,510.183,1957.498z"/>
			<path style="fill:#363E44;" d="M663.185,1800.595c-0.339,0-0.669-0.172-0.857-0.483c-0.285-0.473-0.133-1.087,0.34-1.373
				l19.342-11.668c0.474-0.285,1.086-0.133,1.373,0.34c0.285,0.473,0.133,1.087-0.34,1.373l-19.342,11.668
				C663.538,1800.549,663.36,1800.595,663.185,1800.595z"/>
			<path style="fill:#363E44;" d="M652.975,1902.678c-0.411,0-0.796-0.255-0.941-0.664c-0.187-0.521,0.085-1.092,0.605-1.278
				l38.762-13.841c0.518-0.187,1.092,0.086,1.277,0.605c0.187,0.521-0.085,1.092-0.605,1.278l-38.762,13.841
				C653.2,1902.659,653.086,1902.678,652.975,1902.678z"/>
			<path style="fill:#363E44;" d="M635.613,1973.823c-0.476,0-0.897-0.34-0.983-0.824c-0.097-0.544,0.265-1.063,0.809-1.16
				l29.561-5.274c0.553-0.097,1.064,0.266,1.16,0.809c0.097,0.544-0.265,1.063-0.809,1.16l-29.561,5.274
				C635.731,1973.818,635.671,1973.823,635.613,1973.823z"/>
			<path style="fill:#363E44;" d="M612.698,1835.095c-0.246,0-0.492-0.09-0.685-0.271c-0.402-0.378-0.422-1.011-0.044-1.414
				l14.844-15.788c0.378-0.402,1.014-0.421,1.413-0.043c0.402,0.378,0.422,1.011,0.044,1.414l-14.844,15.788
				C613.231,1834.989,612.964,1835.095,612.698,1835.095z"/>
			<path style="fill:#363E44;" d="M594.146,1932.236c-0.32,0-0.635-0.153-0.828-0.438c-0.311-0.457-0.191-1.079,0.266-1.389
				l15.336-10.417c0.457-0.31,1.079-0.192,1.389,0.265c0.31,0.457,0.191,1.079-0.266,1.389l-15.336,10.417
				C594.535,1932.18,594.34,1932.236,594.146,1932.236z"/>
			<path style="fill:#363E44;" d="M597.473,1786.56c-0.429,0-0.825-0.278-0.957-0.709l-5.135-16.894
				c-0.16-0.529,0.138-1.087,0.666-1.248c0.529-0.163,1.087,0.138,1.248,0.666l5.135,16.894c0.16,0.529-0.138,1.087-0.666,1.248
				C597.667,1786.546,597.568,1786.56,597.473,1786.56z"/>
			<path style="fill:#363E44;" d="M570.438,1885.049c-0.358,0-0.704-0.192-0.884-0.531l-13.251-24.945
				c-0.26-0.488-0.074-1.093,0.414-1.353c0.487-0.259,1.092-0.074,1.352,0.414l13.251,24.945c0.26,0.488,0.074,1.093-0.414,1.353
				C570.756,1885.011,570.596,1885.049,570.438,1885.049z"/>
			<path style="fill:#363E44;" d="M556.154,1967.305c-0.287,0-0.571-0.123-0.769-0.36l-11.742-14.092
				c-0.353-0.424-0.296-1.055,0.128-1.408c0.427-0.354,1.055-0.296,1.409,0.128l11.742,14.092c0.354,0.424,0.296,1.055-0.128,1.408
				C556.606,1967.229,556.38,1967.305,556.154,1967.305z"/>
			<path style="fill:#363E44;" d="M460.887,1858.686c-0.035,0-0.07-0.002-0.105-0.005c-0.55-0.058-0.948-0.55-0.89-1.1l1.459-13.853
				c0.057-0.549,0.563-0.943,1.099-0.89c0.55,0.058,0.948,0.55,0.89,1.1l-1.459,13.853
				C461.826,1858.304,461.393,1858.686,460.887,1858.686z"/>
			<path style="fill:#363E44;" d="M478.002,1889.38c-0.048,0-0.096-0.003-0.145-0.01c-0.546-0.079-0.925-0.586-0.846-1.133
				l2.449-16.919c0.078-0.547,0.577-0.926,1.133-0.847c0.546,0.079,0.925,0.586,0.846,1.133l-2.449,16.919
				C478.919,1889.021,478.491,1889.38,478.002,1889.38z"/>
			<path style="fill:#363E44;" d="M496.517,1930.952c-0.097,0-0.196-0.015-0.294-0.044c-0.527-0.163-0.824-0.722-0.662-1.25
				l6.545-21.3c0.161-0.526,0.723-0.822,1.25-0.662c0.527,0.163,0.824,0.722,0.662,1.25l-6.545,21.3
				C497.341,1930.675,496.944,1930.952,496.517,1930.952z"/>
			<path style="fill:#363E44;" d="M509.963,1960.552c-0.118,0-0.238-0.021-0.355-0.066c-0.517-0.196-0.775-0.774-0.579-1.29
				l5.198-13.671c0.195-0.516,0.772-0.774,1.29-0.579c0.517,0.196,0.775,0.774,0.579,1.29l-5.198,13.671
				C510.746,1960.307,510.366,1960.552,509.963,1960.552z"/>
			<path style="fill:#363E44;" d="M519.845,1992.543c-0.163,0-0.329-0.04-0.482-0.125c-0.483-0.267-0.659-0.875-0.392-1.359
				l6.996-12.667c0.266-0.482,0.873-0.66,1.358-0.392c0.483,0.267,0.659,0.875,0.392,1.359l-6.996,12.667
				C520.539,1992.357,520.197,1992.543,519.845,1992.543z"/>
			
				<ellipse transform="matrix(0.9209 -0.3899 0.3899 0.9209 -715.3651 342.161)" style="fill:#776E42;" cx="485.223" cy="1933.366" rx="70.688" ry="119.439"/>
			<path style="fill:#ff6900;" d="M438.658,1823.378c-0.117,0.049-0.221,0.12-0.335,0.172l93.11,219.924
				c0.115-0.046,0.24-0.071,0.356-0.12c20.701-8.764,16.633-65.112-9.085-125.857S459.359,1814.614,438.658,1823.378z"/>
			<path style="fill:#363E44;" d="M499.943,2031.841c-0.243,0-0.485-0.087-0.678-0.265c-18.506-17.068-37.621-46.938-52.444-81.952
				c-16.107-38.045-24.328-75.742-21.991-100.838c0.052-0.55,0.542-0.956,1.089-0.903c0.55,0.051,0.954,0.539,0.903,1.088
				c-2.309,24.782,5.856,62.118,21.841,99.874c14.717,34.76,33.654,64.379,51.958,81.262c0.406,0.374,0.432,1.007,0.058,1.413
				C500.481,2031.733,500.213,2031.841,499.943,2031.841z"/>
			<path style="fill:#363E44;" d="M544.935,2013.946c-0.013,0-0.025,0-0.037,0c-0.553-0.021-0.983-0.484-0.963-1.036
				c0.9-24.611-7.38-60.133-22.151-95.022c-16.469-38.899-38.939-72.175-58.641-86.843c-0.442-0.33-0.534-0.957-0.204-1.399
				c0.33-0.441,0.957-0.535,1.398-0.205c19.971,14.868,42.688,48.46,59.288,87.668c14.88,35.144,23.219,70.985,22.308,95.875
				C545.913,2013.522,545.47,2013.946,544.935,2013.946z"/>
			<path style="fill:#363E44;" d="M413.855,1878.604c-0.115,0-0.232-0.02-0.346-0.062l-16.723-6.155
				c-0.518-0.191-0.783-0.766-0.593-1.284c0.19-0.519,0.767-0.784,1.284-0.593l16.723,6.155c0.518,0.191,0.783,0.766,0.593,1.284
				C414.646,1878.353,414.263,1878.604,413.855,1878.604z"/>
			<path style="fill:#363E44;" d="M436.986,1956.161c-0.051,0-0.102-0.004-0.153-0.012l-32.091-4.942
				c-0.546-0.084-0.92-0.595-0.836-1.141c0.084-0.546,0.598-0.918,1.141-0.836l32.091,4.942c0.546,0.084,0.92,0.595,0.836,1.141
				C437.897,1955.808,437.472,1956.161,436.986,1956.161z"/>
			<path style="fill:#363E44;" d="M443.447,2015.188c-0.546,0-0.992-0.439-1-0.986c-0.008-0.552,0.435-1.006,0.986-1.014
				l23.686-0.322c0.005,0,0.01,0,0.014,0c0.546,0,0.992,0.439,1,0.986c0.008,0.552-0.435,1.006-0.986,1.014l-23.687,0.322
				C443.456,2015.188,443.451,2015.188,443.447,2015.188z"/>
			<path style="fill:#363E44;" d="M515.371,1873.564c-0.149,0-0.302-0.034-0.444-0.104c-0.494-0.246-0.696-0.847-0.45-1.341
				l10.01-20.12c0.245-0.494,0.847-0.695,1.341-0.45c0.494,0.246,0.696,0.847,0.45,1.341l-10.01,20.12
				C516.093,1873.361,515.739,1873.564,515.371,1873.564z"/>
			<path style="fill:#363E44;" d="M548.773,1944.126c-0.219,0-0.438-0.071-0.623-0.219c-0.432-0.345-0.502-0.974-0.157-1.405
				l13.84-17.329c0.345-0.431,0.974-0.502,1.405-0.157c0.432,0.345,0.502,0.974,0.157,1.405l-13.84,17.329
				C549.358,1943.997,549.067,1944.126,548.773,1944.126z"/>
			<path style="fill:#363E44;" d="M460.887,1858.686c-0.035,0-0.07-0.002-0.105-0.005c-0.55-0.058-0.948-0.55-0.89-1.1l1.459-13.853
				c0.057-0.549,0.563-0.943,1.099-0.89c0.55,0.058,0.948,0.55,0.89,1.1l-1.459,13.853
				C461.826,1858.304,461.393,1858.686,460.887,1858.686z"/>
			<path style="fill:#363E44;" d="M496.517,1930.952c-0.097,0-0.196-0.015-0.294-0.044c-0.527-0.163-0.824-0.722-0.662-1.25
				l6.545-21.3c0.161-0.526,0.723-0.822,1.25-0.662c0.527,0.163,0.824,0.722,0.662,1.25l-6.545,21.3
				C497.341,1930.675,496.944,1930.952,496.517,1930.952z"/>
			<path style="fill:#363E44;" d="M519.845,1992.543c-0.163,0-0.329-0.04-0.482-0.125c-0.483-0.267-0.659-0.875-0.392-1.359
				l6.996-12.667c0.266-0.482,0.873-0.66,1.358-0.392c0.483,0.267,0.659,0.875,0.392,1.359l-6.996,12.667
				C520.539,1992.357,520.197,1992.543,519.845,1992.543z"/>
			<path style="fill:#363E44;" d="M456.327,1898.556c-0.203,0-0.408-0.062-0.585-0.189l-13.853-10.017
				c-0.447-0.324-0.548-0.949-0.225-1.396c0.323-0.447,0.949-0.549,1.396-0.225l13.854,10.017c0.447,0.324,0.548,0.949,0.225,1.396
				C456.943,1898.412,456.638,1898.556,456.327,1898.556z"/>
			<path style="fill:#363E44;" d="M485.185,1971.042c-0.132,0-0.266-0.026-0.395-0.082l-13.434-5.783
				c-0.507-0.218-0.741-0.807-0.523-1.314c0.219-0.507,0.805-0.742,1.314-0.523l13.434,5.783c0.507,0.218,0.741,0.807,0.523,1.314
				C485.941,1970.816,485.572,1971.042,485.185,1971.042z"/>
			<polygon style="fill:#363E44;" points="641.496,2158.99 432.713,2158.99 408.853,1993.837 665.357,1993.837 			"/>
			<path style="fill:#EFBC73;" d="M653.314,1704.071c0,25.245-16.313,45.71-36.435,45.71c-20.123,0-36.435-20.465-36.435-45.71
				l15.237,8.612l11.262-11.262l11.262,9.274l12.587-9.937l9.274,9.274L653.314,1704.071z"/>
		</g>
		<g>
			<path style="fill:#D3BBA3;" d="M829.213,1413.998H378.715c-0.553,0-1-0.448-1-1V842.863c0-0.552,0.447-1,1-1h450.498
				c0.553,0,1,0.448,1,1v570.135C830.213,1413.55,829.766,1413.998,829.213,1413.998z M379.715,1411.998h448.498V843.863H379.715
				V1411.998z"/>
			<g>
				<rect x="420.165" y="1227.942" style="fill:#E6D0BE;" width="367.598" height="19.383"/>
				<rect x="420.165" y="1282.528" style="fill:#E6D0BE;" width="367.598" height="19.383"/>
			</g>
			<g>
				
					<ellipse transform="matrix(0.7071 -0.7071 0.7071 0.7071 -583.4717 742.0217)" style="fill:#E6D0BE;" cx="603.964" cy="1075.323" rx="126.48" ry="126.48"/>
				<g>
					<defs>
						<path id="SVGID_00000003786519970657653470000008783390047442443449_" d="M716.83,1075.323
							c0,62.334-50.532,112.866-112.866,112.866s-112.866-50.532-112.866-112.866c0-62.334,4.436-200.485,101.868-194.009
							C687.582,887.604,716.83,974.394,716.83,1075.323z"/>
					</defs>
					<clipPath id="SVGID_00000029026957080466949420000002624518190092591004_">
						<use xlink:href="#SVGID_00000003786519970657653470000008783390047442443449_"  style="overflow:visible;"/>
					</clipPath>
					<g style="clip-path:url(#SVGID_00000029026957080466949420000002624518190092591004_);">
						<polygon style="fill:#FFFFFF;" points="739.279,1208.093 452.05,1208.093 452.05,1079.063 598.252,1070.801 739.279,1079.063 
													"/>
						<g>
							<ellipse style="fill:#E2A18D;" cx="600.161" cy="1089.717" rx="55.543" ry="22.282"/>
							<g>
								
									<rect x="552.253" y="918.331" transform="matrix(0.9947 -0.1024 0.1024 0.9947 -94.5149 66.1723)" style="fill:#363E44;" width="89.457" height="69.863"/>
								<path style="fill:#E2A18D;" d="M602.491,1100.321c14.951-1.543,26.691-15.889,27.345-33.413l2.031-54.468l-59.241-2.232
									l-1.997,54.528C569.869,1085.493,584.782,1102.149,602.491,1100.321z"/>
								<path style="fill:#E2A18D;" d="M554.121,976.342c1.382,24.74,16.428,63.173,48.365,61.389
									c31.937-1.784,42.608-41.655,41.226-66.395c-1.382-24.74-22.701-37.176-47.44-35.794
									C571.531,936.924,552.739,951.602,554.121,976.342z"/>
								
									<ellipse transform="matrix(0.3539 -0.9353 0.9353 0.3539 -505.0139 1242.1228)" style="fill:#E2A18D;" cx="646.495" cy="986.571" rx="19.011" ry="12.674"/>
								<path style="fill:#E2A18D;" d="M564.557,986.002c4.786,9.345,3.616,19.507-2.615,22.698
									c-6.23,3.191-15.16-1.798-19.946-11.143c-4.786-9.345-3.616-19.507,2.614-22.698
									C550.841,971.668,559.771,976.657,564.557,986.002z"/>
								<path style="fill:#363E44;" d="M552.281,1001.414c-0.165,0-0.332-0.041-0.486-0.127c-2.197-1.228-4.142-3.338-5.476-5.943
									c-1.335-2.605-1.911-5.417-1.623-7.917c0.305-2.649,1.535-4.652,3.463-5.639c0.399-0.205,0.826-0.362,1.268-0.468
									c0.535-0.126,1.077,0.203,1.205,0.741c0.128,0.537-0.203,1.077-0.74,1.204c-0.287,0.068-0.563,0.17-0.821,0.302
									c-1.315,0.673-2.162,2.125-2.389,4.088c-0.243,2.112,0.26,4.519,1.416,6.776c1.156,2.258,2.816,4.072,4.671,5.109
									c0.483,0.27,0.655,0.878,0.386,1.361C552.972,1001.229,552.632,1001.414,552.281,1001.414z"/>
								<path style="fill:#363E44;" d="M648.044,996.063c-0.311,0-0.619-0.145-0.814-0.418c-0.321-0.449-0.218-1.074,0.231-1.395
									c1.729-1.237,3.176-3.226,4.073-5.598c1.77-4.678,0.772-9.572-2.176-10.688c-0.273-0.103-0.559-0.173-0.85-0.209
									c-0.548-0.067-0.938-0.565-0.871-1.114c0.066-0.548,0.559-0.939,1.113-0.872c0.45,0.055,0.893,0.164,1.314,0.323
									c4.031,1.525,5.529,7.477,3.34,13.267c-1.037,2.738-2.734,5.052-4.78,6.516
									C648.448,996.003,648.245,996.063,648.044,996.063z"/>
								<path style="fill:#363E44;" d="M559.487,1002.817c-0.408,0-0.792-0.252-0.939-0.658c-2.448-6.724-4.178-13.956-5-20.914
									c-0.065-0.548,0.327-1.045,0.876-1.11c0.554-0.063,1.045,0.328,1.11,0.876c0.805,6.807,2.497,13.883,4.893,20.464
									c0.189,0.519-0.078,1.093-0.598,1.282C559.717,1002.797,559.601,1002.817,559.487,1002.817z"/>
								<path style="fill:#363E44;" d="M640.606,1000.636c-0.087,0-0.176-0.012-0.263-0.036c-0.533-0.144-0.848-0.694-0.703-1.227
									c2.186-8.045,3.315-16.951,3.178-25.078c-0.009-0.552,0.431-1.007,0.983-1.017c0.006,0,0.012,0,0.017,0
									c0.545,0,0.99,0.436,1,0.983c0.139,8.31-1.015,17.414-3.248,25.636C641.448,1000.343,641.045,1000.636,640.606,1000.636z"/>
								<path style="fill:#363E44;" d="M600.719,1039.569c-11.569,0-21.208-7.063-28.41-13.348
									c-0.416-0.363-0.459-0.995-0.097-1.411c0.365-0.417,0.997-0.458,1.411-0.096c7.317,6.384,17.206,13.603,28.931,12.791
									c11.692-0.815,20.412-8.85,27.399-16.603c0.371-0.412,1.002-0.443,1.413-0.073c0.41,0.37,0.442,1.002,0.073,1.412
									c-6.831,7.579-16.271,16.39-28.747,17.259C602.029,1039.546,601.37,1039.569,600.719,1039.569z"/>
								<path style="fill:#363E44;" d="M599.703,1005.25c-0.142,0-0.285-0.03-0.422-0.094c-2.448-1.142-3.87-2.576-4.227-4.262
									c-0.316-1.5,0.289-2.666,0.932-3.9c0.426-0.819,0.908-1.747,1.222-2.947c0.459-1.75,0.449-3.634-0.028-5.6
									c-0.131-0.537,0.199-1.077,0.735-1.207c0.534-0.133,1.077,0.199,1.208,0.736c0.557,2.291,0.564,4.504,0.021,6.578
									c-0.371,1.418-0.933,2.497-1.383,3.364c-0.603,1.16-0.91,1.8-0.749,2.564c0.22,1.038,1.268,2.001,3.115,2.863
									c0.5,0.233,0.717,0.829,0.483,1.329C600.44,1005.036,600.08,1005.25,599.703,1005.25z"/>
								<path style="fill:#363E44;" d="M602.739,1015.036c-0.12,0-0.239-0.003-0.358-0.009c-0.552-0.027-0.977-0.497-0.949-1.048
									c0.028-0.552,0.503-0.991,1.049-0.949c2.055,0.105,4.22-0.978,5.551-2.75c0.794-1.056,1.236-2.301,1.247-3.505
									c0.005-0.549,0.451-0.991,1-0.991c0.003,0,0.006,0,0.009,0c0.552,0.005,0.996,0.456,0.991,1.009
									c-0.014,1.628-0.6,3.294-1.647,4.689C607.988,1013.668,605.316,1015.036,602.739,1015.036z"/>
								<path style="fill:#363E44;" d="M566.601,935.05c-2.596,6.819-10.229,10.242-17.048,7.645
									c-6.819-2.596-10.242-10.229-7.646-17.048c2.596-6.819,10.229-10.242,17.048-7.646
									C565.774,920.598,569.197,928.231,566.601,935.05z"/>
								<path style="fill:#363E44;" d="M650.243,932.198c-3.17,8.326-12.489,12.505-20.814,9.335
									c-8.325-3.17-12.505-12.489-9.335-20.814c3.17-8.325,12.489-12.505,20.814-9.335
									C649.233,914.554,653.413,923.873,650.243,932.198z"/>
								
									<ellipse transform="matrix(0.2533 -0.9674 0.9674 0.2533 -465.1696 1225.2341)" style="fill:#363E44;" cx="561.099" cy="913.945" rx="16.13" ry="16.13"/>
								<path style="fill:#363E44;" d="M631.736,914.335c-1.998,5.248-7.873,7.883-13.121,5.884
									c-5.248-1.998-7.883-7.873-5.884-13.121c1.998-5.248,7.873-7.883,13.121-5.885
									C631.1,903.212,633.734,909.086,631.736,914.335z"/>
								<path style="fill:#363E44;" d="M617.066,918.004c-3.17,8.325-12.489,12.505-20.814,9.335
									c-8.325-3.17-12.505-12.489-9.335-20.814c3.17-8.326,12.489-12.505,20.814-9.335
									C616.057,900.36,620.236,909.679,617.066,918.004z"/>
								<path style="fill:#363E44;" d="M606.149,941.641c-3.17,8.325-12.489,12.505-20.814,9.335
									c-8.326-3.17-12.505-12.489-9.335-20.814c3.17-8.326,12.489-12.505,20.814-9.335
									C605.14,923.997,609.32,933.316,606.149,941.641z"/>
								<path style="fill:#363E44;" d="M595.662,911.292c-3.17,8.326-12.489,12.505-20.814,9.335
									c-8.326-3.17-12.505-12.489-9.335-20.814c3.17-8.326,12.489-12.505,20.814-9.335
									C594.653,893.647,598.832,902.966,595.662,911.292z"/>
								<path style="fill:#363E44;" d="M582.261,951.928c-1.998,5.248-7.873,7.883-13.121,5.885
									c-5.248-1.998-7.883-7.873-5.884-13.121c1.998-5.248,7.873-7.883,13.121-5.884
									C581.624,940.806,584.259,946.68,582.261,951.928z"/>
								<g>
									<path style="fill:#FFFFFF;" d="M630.902,972.093c0,0.001,0,0.002,0,0.002l-0.121-0.002
										c-0.044,0.256-0.187,0.588-0.452,0.601c-0.287,0.4-0.384,1.019-0.566,1.436c-0.327,0.751-1.47,0.196-1.144-0.554
										c0.22-0.505-1.426,0.557-2.157,0.906c-2.331,1.112-4.702,2.119-7.11,3.052c-1.123,0.435-2.246,0.88-3.384,1.276
										c-0.912,0.317-3.91,1.527-4.165,1.402c-2.909,3.115-4.427,5.963-4.427,5.963s4.652,1.643,10.486,1.496
										c0.01-0.079,0.023-0.157,0.03-0.237c0.074-0.79,13.224-5.002,13.632-4.435c5.387-4.057,8.252-9.41,8.252-9.41
										S635.958,972.238,630.902,972.093z"/>
									<path style="fill:#363E44;" d="M621.15,973.636c-3.928,1.526-7.061,4.129-9.341,6.569c0.502,2.487,1.885,4.803,4.093,6.421
										c0.568,0.417,1.166,0.765,1.781,1.052c2.631-0.05,5.511-0.46,8.319-1.551c2.031-0.789,3.838-1.872,5.435-3.065
										c1.879-3.528,1.571-7.772-0.657-10.969C627.814,972.019,624.435,972.36,621.15,973.636z"/>
								</g>
								<g>
									<path style="fill:#FFFFFF;" d="M565.299,978.149c0,0,0,0.002,0,0.003l0.119-0.022c0.083,0.246,0.276,0.552,0.54,0.523
										c0.346,0.351,0.539,0.947,0.783,1.331c0.44,0.69,1.483-0.036,1.043-0.725c-0.296-0.464,1.495,0.328,2.271,0.559
										c2.475,0.736,4.975,1.36,7.498,1.907c1.177,0.255,2.356,0.519,3.541,0.733c0.95,0.171,4.1,0.899,4.333,0.736
										c3.359,2.623,5.302,5.2,5.302,5.2s-4.339,2.348-10.124,3.112c-0.023-0.077-0.047-0.152-0.067-0.23
										c-0.196-0.769-13.842-2.879-14.157-2.256c-5.953-3.167-9.618-8.009-9.618-8.009S560.328,979.081,565.299,978.149z"/>
									<path style="fill:#363E44;" d="M575.172,978.154c4.118,0.895,7.618,2.978,10.25,5.033c-0.108,2.534-1.113,5.038-3.042,6.98
										c-0.497,0.5-1.032,0.937-1.595,1.317c-2.607,0.36-5.515,0.404-8.459-0.236c-2.129-0.463-4.083-1.251-5.847-2.181
										c-2.406-3.192-2.763-7.432-1.061-10.937C568.338,977.595,571.729,977.405,575.172,978.154z"/>
								</g>
							</g>
						</g>
					</g>
				</g>
			</g>
			<g>
				<polygon style="fill:#D87355;" points="461.306,1339.742 479.378,1342.03 466.569,1354.983 469.979,1372.877 453.702,1364.699 
					437.737,1373.471 440.485,1355.463 427.208,1342.99 445.184,1340.039 452.944,1323.558 				"/>
				<polygon style="fill:#D87355;" points="536.641,1339.742 554.713,1342.03 541.905,1354.983 545.314,1372.877 529.037,1364.699 
					513.072,1373.471 515.82,1355.463 502.544,1342.99 520.52,1340.039 528.28,1323.558 				"/>
				<polygon style="fill:#D87355;" points="611.976,1339.742 630.048,1342.03 617.24,1354.983 620.649,1372.877 604.372,1364.699 
					588.407,1373.471 591.155,1355.463 577.879,1342.99 595.855,1340.039 603.615,1323.558 				"/>
				<polygon style="fill:#D87355;" points="687.311,1339.742 705.383,1342.03 692.575,1354.983 695.984,1372.877 679.707,1364.699 
					663.742,1373.471 666.491,1355.463 653.214,1342.99 671.19,1340.039 678.95,1323.558 				"/>
				<polygon style="fill:#D87355;" points="762.647,1339.742 780.719,1342.03 767.911,1354.983 771.32,1372.877 755.043,1364.699 
					739.078,1373.471 741.826,1355.463 728.55,1342.99 746.525,1340.039 754.285,1323.558 				"/>
			</g>
		</g>
	</g>
</g>
</svg>
