<?xml version="1.0" encoding="utf-8"?>
<!-- Generator: Adobe Illustrator 27.5.0, SVG Export Plug-In . SVG Version: 6.00 Build 0)  -->
<svg version="1.1" xmlns="http://www.w3.org/2000/svg" xmlns:xlink="http://www.w3.org/1999/xlink" x="0px" y="0px"
	 viewBox="0 0 2500 2500" style="enable-background:new 0 0 2500 2500;" xml:space="preserve">
-
<g id="Illustration">
	<g id="Sortation_systems_1_">
		<circle style="fill:transparent;" cx="1250" cy="1250" r="915"/>
		<g>
			<g>
				<path style="fill:#FFFFFF;" d="M2047.372,1316.359l-20.461-7.15c1.653-10.615,2.429-21.227,2.381-31.752l21.28-4.036
					l-13.667-72.068l-21.328,4.045c-3.849-9.9-8.47-19.485-13.818-28.663l16.448-14.167l-47.87-55.579l-16.411,14.135
					c-8.204-6.594-16.99-12.596-26.324-17.914l7.15-20.461l-69.246-24.198l-7.15,20.461c-10.614-1.653-21.227-2.43-31.752-2.38
					l-4.035-21.28l-72.068,13.667l4.045,21.328c-9.901,3.849-19.485,8.469-28.663,13.818l-14.167-16.448l-55.579,47.87
					l14.135,16.411c-6.594,8.204-12.596,16.99-17.914,26.324l-20.461-7.149h-0.001l-24.197,69.246l20.461,7.15
					c-1.653,10.615-2.429,21.227-2.38,31.752l-21.28,4.036l13.667,72.067l21.328-4.045c3.849,9.901,8.469,19.486,13.818,28.663
					l-16.448,14.167l47.87,55.579h0.001l16.411-14.135c8.205,6.594,16.991,12.596,26.324,17.914l-7.15,20.461l69.246,24.197
					l7.15-20.461c10.614,1.653,21.227,2.43,31.752,2.381l4.035,21.28l0,0l72.067-13.667l-4.044-21.328
					c9.9-3.849,19.485-8.469,28.663-13.818l14.167,16.449l55.579-47.87l-14.135-16.411c6.594-8.205,12.596-16.991,17.914-26.324
					l20.461,7.15L2047.372,1316.359z M1944.166,1323.479c-23.57,61.116-91.499,93.865-153.994,74.241
					c-69.01-21.67-105.295-96.935-79.268-164.422c23.57-61.116,91.499-93.865,153.994-74.241
					C1933.908,1180.728,1970.194,1255.993,1944.166,1323.479z"/>
			</g>
			<path style="fill:#F2E6DC;" d="M1827.564,1441.077c-17.912,0-36.044-2.965-53.689-9.129
				c-84.67-29.589-129.484-122.546-99.897-207.219c12.93-36.995,38.761-68.072,72.735-87.506
				c33.641-19.238,73.015-25.892,110.891-18.715c1.195,0.226,1.981,1.38,1.755,2.577c-0.226,1.195-1.363,1.987-2.577,1.755
				c-76.208-14.437-153.011,29.998-178.64,103.344c-28.785,82.377,14.814,172.813,97.189,201.599
				c68.063,23.786,143.591-1.389,183.661-61.214c0.678-1.014,2.048-1.281,3.06-0.605c1.012,0.678,1.283,2.048,0.605,3.06
				C1931.853,1415.009,1880.675,1441.077,1827.564,1441.077z"/>
		</g>
		<g>
			<g>
				<path style="fill:#F7F1EB;" d="M1568.96,630.657l-20.461-7.15c1.653-10.615,2.429-21.227,2.381-31.752l21.28-4.036
					l-13.667-72.068l-21.328,4.045c-3.849-9.9-8.47-19.485-13.818-28.663l16.448-14.167l-47.87-55.579l-16.411,14.136
					c-8.204-6.594-16.99-12.596-26.324-17.914l7.15-20.461l-69.246-24.197l-7.15,20.461c-10.614-1.653-21.227-2.43-31.752-2.38
					l-4.035-21.28l-72.068,13.667l4.045,21.328c-9.901,3.849-19.485,8.469-28.663,13.818l-14.167-16.448l-55.579,47.87
					l14.135,16.411c-6.594,8.204-12.596,16.99-17.914,26.324l-20.461-7.149h-0.001l-24.197,69.246l20.461,7.15
					c-1.653,10.615-2.429,21.227-2.381,31.752l-21.28,4.036l13.667,72.067l21.328-4.045c3.849,9.901,8.47,19.486,13.818,28.663
					l-16.448,14.167l47.87,55.579h0.001l16.411-14.135c8.205,6.594,16.99,12.596,26.324,17.914l-7.15,20.461l69.246,24.197
					l7.15-20.461c10.614,1.653,21.227,2.43,31.752,2.381l4.035,21.28l0,0l72.067-13.667l-4.044-21.328
					c9.9-3.849,19.485-8.469,28.663-13.818l14.167,16.449l55.579-47.87l-14.135-16.411c6.594-8.205,12.596-16.991,17.914-26.324
					l20.461,7.15L1568.96,630.657z M1465.755,637.778c-23.57,61.117-91.499,93.865-153.994,74.241
					c-69.009-21.67-105.295-96.935-79.268-164.422c23.57-61.116,91.499-93.865,153.994-74.241
					C1455.497,495.026,1491.782,570.291,1465.755,637.778z"/>
			</g>
			<path style="fill:#F2E6DC;" d="M1349.154,755.376c-17.916,0-36.041-2.965-53.691-9.131
				c-41.015-14.333-73.996-43.782-92.864-82.92s-21.366-83.281-7.032-124.297c12.927-36.995,38.759-68.072,72.734-87.506
				c33.641-19.238,73.015-25.889,110.891-18.715c1.195,0.226,1.981,1.38,1.755,2.577c-0.226,1.195-1.363,1.985-2.577,1.755
				c-76.21-14.441-153.011,29.998-178.641,103.345c-13.945,39.904-11.515,82.849,6.843,120.927
				c18.357,38.076,50.443,66.726,90.347,80.67c68.063,23.786,143.589-1.387,183.659-61.214c0.68-1.014,2.05-1.281,3.06-0.605
				c1.012,0.678,1.283,2.048,0.605,3.06C1453.444,729.306,1402.26,755.376,1349.154,755.376z"/>
		</g>
		<g>
			<g>
				<defs>
					<circle id="SVGID_1_" cx="1250" cy="1250" r="915"/>
				</defs>
				<clipPath id="SVGID_00000062906388925060167070000005661989104855953847_">
					<use xlink:href="#SVGID_1_"  style="overflow:visible;"/>
				</clipPath>
				<g style="clip-path:url(#SVGID_00000062906388925060167070000005661989104855953847_);">
					
						<rect x="341.687" y="887.761" transform="matrix(0.9333 0.3592 -0.3592 0.9333 499.9807 -75.8595)" style="fill:#D3BBA3;" width="224.892" height="839.577"/>
					<rect x="357.292" y="747.469" style="fill:#D3BBA3;" width="1119.886" height="238.109"/>
					<rect x="370.521" y="1683.368" style="fill:#D3BBA3;" width="1096.736" height="238.109"/>
					<rect x="1728.515" y="748.565" style="fill:#D3BBA3;" width="464.198" height="238.109"/>
					<rect x="1715.287" y="1681.161" style="fill:#D3BBA3;" width="464.198" height="238.109"/>
					<rect x="1424.265" y="334.086" style="fill:#D3BBA3;" width="314.171" height="1808.964"/>
				</g>
			</g>
			<path style="fill:#ff6900;" d="M1441.819,1668.916H465.084c-1.218,0-2.205-0.986-2.205-2.205c0-1.219,0.987-2.205,2.205-2.205
				h974.53v-694.52l-750.337-0.73l-219.934,564.496c-0.441,1.135-1.716,1.699-2.855,1.253c-1.134-0.441-1.696-1.72-1.253-2.855
				l220.482-565.902c0.329-0.846,1.146-1.404,2.054-1.404c0.001,0,0.001,0,0.002,0l754.048,0.734
				c1.217,0.002,2.203,0.988,2.203,2.205v698.928C1444.024,1667.93,1443.038,1668.916,1441.819,1668.916z"/>
			<path style="fill:#ff6900;" d="M1441.819,731.868H414.374c-1.218,0-2.205-0.986-2.205-2.205c0-1.219,0.987-2.205,2.205-2.205
				h1025.241V385.711c0-1.219,0.986-2.205,2.205-2.205c1.219,0,2.205,0.986,2.205,2.205v343.952
				C1444.024,730.882,1443.038,731.868,1441.819,731.868z"/>
			<path style="fill:#ff6900;" d="M2079.012,734.073h-321.904c-1.219,0-2.205-0.986-2.205-2.205V359.253
				c0-1.219,0.986-2.205,2.205-2.205c1.219,0,2.205,0.986,2.205,2.205v370.41h319.699c1.219,0,2.205,0.986,2.205,2.205
				S2080.231,734.073,2079.012,734.073z"/>
			<path style="fill:#ff6900;" d="M2145.156,1666.711h-392.458c-1.219,0-2.205-0.986-2.205-2.205V969.988
				c0-1.219,0.986-2.205,2.205-2.205h410.096c1.219,0,2.205,0.986,2.205,2.205s-0.986,2.205-2.205,2.205h-407.892v690.108h390.253
				c1.219,0,2.205,0.986,2.205,2.205S2146.375,1666.711,2145.156,1666.711z"/>
			<path style="fill:#ff6900;" d="M1752.699,2127.518c-1.219,0-2.205-0.986-2.205-2.205v-222.687c0-1.219,0.986-2.205,2.205-2.205
				h410.096c1.219,0,2.205,0.986,2.205,2.205s-0.986,2.205-2.205,2.205h-407.892v220.482
				C1754.904,2126.532,1753.917,2127.518,1752.699,2127.518z"/>
			<path style="fill:#ff6900;" d="M1437.41,2131.928c-1.219,0-2.205-0.986-2.205-2.205v-218.277H383.506
				c-1.218,0-2.205-0.986-2.205-2.205c0-1.219,0.987-2.205,2.205-2.205H1437.41c1.219,0,2.205,0.986,2.205,2.205v220.482
				C1439.615,2130.942,1438.628,2131.928,1437.41,2131.928z"/>
		</g>
		<g>
			<path style="fill:#363E44;" d="M944.698,652.068c-0.343,0-0.691-0.08-1.017-0.25c-1.08-0.564-1.498-1.895-0.935-2.973
				c0.346-0.663,0.724-1.313,1.136-1.953c3.562-5.534,9.067-9.349,15.498-10.738c6.432-1.38,13.019-0.185,18.548,3.387
				c1.023,0.661,1.317,2.026,0.656,3.049c-0.658,1.023-2.025,1.318-3.048,0.655c-4.54-2.93-9.946-3.917-15.226-2.78
				c-5.278,1.141-9.797,4.272-12.722,8.815c-0.338,0.525-0.649,1.059-0.932,1.602C946.263,651.637,945.494,652.068,944.698,652.068z
				"/>
			<path style="fill:#363E44;" d="M924.785,636.763c-0.409,0-0.823-0.114-1.192-0.351c-1.024-0.659-1.319-2.024-0.66-3.047
				c7.17-11.138,18.244-18.81,31.181-21.602c12.936-2.795,26.188-0.375,37.312,6.813c1.023,0.661,1.317,2.026,0.656,3.049
				c-0.659,1.023-2.026,1.318-3.048,0.654c-10.134-6.545-22.204-8.757-33.99-6.205c-11.784,2.543-21.872,9.532-28.403,19.678
				C926.22,636.406,925.509,636.763,924.785,636.763z"/>
			<path style="fill:#363E44;" d="M892.946,616.201c-0.409,0-0.823-0.114-1.192-0.351c-1.024-0.659-1.319-2.024-0.66-3.047
				c12.649-19.65,32.185-33.186,55.011-38.115c22.824-4.924,46.206-0.661,65.838,12.019c1.023,0.661,1.317,2.026,0.656,3.049
				c-0.658,1.025-2.025,1.318-3.048,0.655c-18.639-12.038-40.84-16.09-62.514-11.412c-21.672,4.681-40.223,17.533-52.234,36.19
				C894.381,615.844,893.671,616.201,892.946,616.201z"/>
			<path style="fill:#363E44;" d="M861.108,595.636c-0.409,0-0.823-0.114-1.192-0.351c-1.024-0.659-1.319-2.024-0.66-3.047
				c18.13-28.163,46.132-47.561,78.846-54.625c32.717-7.062,66.224-0.947,94.357,17.225c1.023,0.661,1.317,2.026,0.656,3.049
				c-0.659,1.023-2.026,1.316-3.048,0.655c-27.143-17.531-59.472-23.428-91.034-16.618c-31.562,6.815-58.577,25.532-76.07,52.7
				C862.543,595.279,861.832,595.636,861.108,595.636z"/>
		</g>
		<g>
			<rect x="356.53" y="792.804" style="fill:#E0AA63;" width="283.346" height="210.109"/>
			<path style="fill:#84524D;" d="M648.695,998.5H365.35c-1.218,0-2.205-0.986-2.205-2.205v-210.11c0-1.219,0.987-2.205,2.205-2.205
				h283.345c1.218,0,2.205,0.986,2.205,2.205v210.11C650.9,997.514,649.912,998.5,648.695,998.5z M367.555,994.091H646.49V788.39
				H367.555V994.091z"/>
			<path style="fill:#EFBC73;" d="M426.64,992.917c-1.218,0-2.205-0.986-2.205-2.205V805.004c0-1.219,0.987-2.205,2.205-2.205
				c1.218,0,2.205,0.986,2.205,2.205v185.709C428.845,991.931,427.858,992.917,426.64,992.917z"/>
			<path style="fill:#EFBC73;" d="M553.159,992.917c-1.218,0-2.205-0.986-2.205-2.205V867.165c0-1.219,0.987-2.205,2.205-2.205
				s2.205,0.986,2.205,2.205v123.547C555.364,991.931,554.376,992.917,553.159,992.917z"/>
			<g>
				<path style="fill:#F7F1EB;" d="M580.01,861.907c-0.574,0-1.138-0.224-1.56-0.646l-12.981-13.003l-10.635,10.652
					c-0.827,0.831-2.293,0.829-3.12,0.002l-11.02-11.037l-12.827,12.848c-0.631,0.629-1.582,0.82-2.403,0.478
					c-0.825-0.34-1.362-1.146-1.362-2.037v-63.576c0-1.219,0.987-2.205,2.205-2.205c1.218,0,2.205,0.986,2.205,2.205v58.247
					l10.623-10.639c0.827-0.827,2.293-0.827,3.12,0l11.02,11.037l10.635-10.652c0.827-0.831,2.293-0.829,3.12-0.002l10.777,10.794
					v-58.785c0-1.219,0.987-2.205,2.205-2.205s2.205,0.986,2.205,2.205v64.114c0,0.891-0.537,1.697-1.362,2.037
					C580.581,861.853,580.295,861.907,580.01,861.907z"/>
			</g>
		</g>
		<g>
			<rect x="1811.332" y="1561.137" style="fill:#EFBC73;" width="350.147" height="259.644"/>
			<path style="fill:#84524D;" d="M2154.861,1811.96h-350.146c-1.219,0-2.205-0.986-2.205-2.205v-259.643
				c0-1.219,0.986-2.205,2.205-2.205h350.146c1.219,0,2.205,0.986,2.205,2.205v259.643
				C2157.066,1810.974,2156.08,1811.96,2154.861,1811.96z M1806.919,1807.551h345.737v-255.234h-345.737V1807.551z"/>
			<path style="fill:#E0AA63;" d="M1897.971,1807.91c-1.219,0-2.205-0.986-2.205-2.205v-229.493c0-1.219,0.986-2.205,2.205-2.205
				c1.219,0,2.205,0.986,2.205,2.205v229.493C1900.176,1806.924,1899.19,1807.91,1897.971,1807.91z"/>
			<path style="fill:#E0AA63;" d="M2054.318,1807.91c-1.219,0-2.205-0.986-2.205-2.205v-152.677c0-1.219,0.986-2.205,2.205-2.205
				c1.219,0,2.205,0.986,2.205,2.205v152.677C2056.522,1806.924,2055.536,1807.91,2054.318,1807.91z"/>
			<g>
				<path style="fill:#F7F1EB;" d="M2087.5,1646.011c-0.575,0-1.139-0.224-1.561-0.646l-16.407-16.435l-13.511,13.532
					c-0.413,0.413-0.975,0.646-1.561,0.646l0,0c-0.586,0-1.148-0.233-1.561-0.646l-13.985-14.008l-16.217,16.245
					c-0.629,0.631-1.583,0.823-2.403,0.478c-0.825-0.34-1.363-1.146-1.363-2.037v-78.564c0-1.219,0.986-2.205,2.205-2.205
					c1.219,0,2.205,0.986,2.205,2.205v73.235l14.013-14.036c0.827-0.827,2.295-0.827,3.122,0l13.985,14.008l13.511-13.532
					c0.413-0.413,0.975-0.646,1.561-0.646l0,0c0.586,0,1.148,0.233,1.561,0.646l14.202,14.226v-73.9
					c0-1.219,0.986-2.205,2.205-2.205s2.205,0.986,2.205,2.205v79.229c0,0.891-0.538,1.697-1.361,2.037
					C2088.07,1645.957,2087.784,1646.011,2087.5,1646.011z"/>
			</g>
		</g>
		<g>
			<rect x="1565.903" y="672.417" style="fill:#EFBC73;" width="323.69" height="240.025"/>
			<path style="fill:#84524D;" d="M1896.208,908.027h-323.691c-1.219,0-2.205-0.986-2.205-2.205V665.799
				c0-1.219,0.986-2.205,2.205-2.205h323.691c1.219,0,2.205,0.986,2.205,2.205v240.024
				C1898.413,907.041,1897.427,908.027,1896.208,908.027z M1574.722,903.618h319.281V668.003h-319.281V903.618z"/>
			<path style="fill:#E0AA63;" d="M1645.995,900.709c-1.219,0-2.205-0.986-2.205-2.205V686.355c0-1.219,0.986-2.205,2.205-2.205
				c1.219,0,2.205,0.986,2.205,2.205v212.149C1648.2,899.723,1647.214,900.709,1645.995,900.709z"/>
			<path style="fill:#E0AA63;" d="M1790.527,900.709c-1.219,0-2.205-0.986-2.205-2.205V757.365c0-1.219,0.986-2.205,2.205-2.205
				c1.219,0,2.205,0.986,2.205,2.205v141.139C1792.732,899.723,1791.746,900.709,1790.527,900.709z"/>
			<g>
				<path style="fill:#F7F1EB;" d="M1821.203,751.044c-0.575,0-1.139-0.224-1.561-0.646l-15.051-15.076l-12.372,12.393
					c-0.827,0.827-2.295,0.827-3.122,0l-12.809-12.831l-14.874,14.9c-0.631,0.629-1.583,0.823-2.403,0.478
					c-0.825-0.34-1.363-1.146-1.363-2.037v-72.628c0-1.219,0.986-2.205,2.205-2.205c1.219,0,2.205,0.986,2.205,2.205v67.299
					l12.669-12.691c0.827-0.827,2.295-0.827,3.122,0l12.809,12.831l12.372-12.393c0.827-0.827,2.295-0.827,3.122,0l12.846,12.867
					v-67.912c0-1.219,0.986-2.205,2.205-2.205c1.219,0,2.205,0.986,2.205,2.205v73.241c0,0.891-0.538,1.697-1.363,2.037
					C1821.774,750.99,1821.487,751.044,1821.203,751.044z"/>
			</g>
		</g>
		<g>
			<g>
				<g>
					<polygon style="fill:#363E44;" points="1379.726,587.087 1350.005,722.883 1473.902,777.517 1397.081,696.125 					"/>
					<polygon style="fill:#363E44;" points="1415.748,577.401 1529.1,651.52 1473.741,777.492 1476.454,664.188 					"/>
					<path style="fill:#363E44;" d="M1138.005,1311.89c-52.897,0-105.632-10.977-154.091-32.564
						c-1.113-0.495-1.613-1.798-1.117-2.911c0.496-1.113,1.803-1.615,2.911-1.115c49.291,21.956,101.254,32.538,152.576,32.543
						c111.354,0.006,219.789-49.783,292.037-141.227c86.052-108.917,103.717-261.196,44.998-387.949
						c-0.512-1.105-0.032-2.414,1.075-2.926c1.107-0.515,2.416-0.03,2.926,1.074c29.139,62.9,40.438,132.7,32.672,201.851
						c-7.85,69.923-34.896,135.859-78.213,190.684c-51.389,65.042-124.432,111.819-205.674,131.712
						C1198.532,1308.303,1168.242,1311.89,1138.005,1311.89z"/>
					<path style="fill:#B77250;" d="M1456.932,805.299l47.365-18.384c7.546-2.929,11.289-11.42,8.36-18.966l0,0
						c-2.929-7.546-11.42-11.289-18.966-8.36l-47.365,18.384c-7.546,2.929-11.288,11.42-8.36,18.966v0
						C1440.895,804.485,1449.386,808.228,1456.932,805.299z"/>
				</g>
			</g>
			<g>
				<path style="fill:#B77250;" d="M940.858,1157.473l51.564-13.248c-9.089-35.228-11.139-71.176-6.093-106.845
					c3.924-27.74,12.109-54.693,24.328-80.111l-48.004-22.984c-14.585,30.338-24.356,62.524-29.044,95.667
					C927.581,1072.557,930.021,1115.461,940.858,1157.473z"/>
				<path style="fill:#363E44;" d="M990.393,1019.719c-0.094,0-0.188-0.006-0.283-0.017l-53.107-6.797
					c-1.208-0.155-2.062-1.26-1.907-2.468c0.154-1.208,1.27-2.043,2.466-1.908l53.107,6.797c1.208,0.155,2.062,1.26,1.907,2.467
					C992.435,1018.908,991.486,1019.719,990.393,1019.719z"/>
				<path style="fill:#363E44;" d="M986.48,1041.236c-0.041,0-0.081,0-0.122-0.004l-53.107-2.885
					c-1.216-0.065-2.148-1.105-2.082-2.321c0.066-1.214,1.126-2.228,2.321-2.08l53.107,2.885c1.216,0.065,2.148,1.105,2.082,2.321
					C988.616,1040.325,987.643,1041.236,986.48,1041.236z"/>
				<path style="fill:#363E44;" d="M931.413,1061.824c-1.197,0-2.18-0.958-2.204-2.162c-0.023-1.219,0.945-2.224,2.162-2.248
					l53.107-1.027c1.237-0.015,2.224,0.943,2.248,2.162c0.023,1.219-0.945,2.224-2.162,2.248l-53.107,1.027
					C931.442,1061.824,931.428,1061.824,931.413,1061.824z"/>
				
					<rect x="716.28" y="1073.947" transform="matrix(-1 -1.224647e-16 1.224647e-16 -1 1782.5387 2554.9175)" style="fill:#84524D;" width="349.979" height="407.023"/>
				
					<rect x="820.247" y="1073.947" transform="matrix(-1 -1.224647e-16 1.224647e-16 -1 1990.473 2554.9175)" style="fill:#D87355;" width="349.979" height="407.023"/>
				<path style="fill:#FFFFFF;" d="M1178.641,1481.186H894.544c-1.218,0-2.205-0.986-2.205-2.205v-318.626
					c0-1.219,0.987-2.205,2.205-2.205h284.097c1.218,0,2.205,0.986,2.205,2.205v318.626
					C1180.845,1480.199,1179.858,1481.186,1178.641,1481.186z M896.749,1476.776h279.687v-314.217H896.749V1476.776z"/>
				
					<rect x="746.831" y="714.924" transform="matrix(-0.9891 -0.1471 0.1471 -0.9891 1656.7208 1824.2852)" style="fill:#84524D;" width="298.01" height="271.882"/>
				
					<rect x="842.101" y="732.961" transform="matrix(-0.9891 -0.1471 0.1471 -0.9891 1895.2422 1878.0042)" style="fill:#D87355;" width="349.964" height="271.882"/>
				<path style="fill:#363E44;" d="M945.475,888.399l220.621,32.82c28.658,4.263,55.35-15.503,59.63-44.159v0
					c4.284-28.68-15.503-55.399-44.185-59.665l-220.621-32.82c-28.658-4.263-55.35,15.503-59.63,44.159v0
					C897.006,857.414,916.793,884.133,945.475,888.399z"/>
				<path style="fill:#FFFFFF;" d="M1198.156,927.614c-2.667,0-5.364-0.196-8.078-0.599l-220.622-32.82
					c-14.455-2.149-27.205-9.801-35.903-21.544c-8.697-11.745-12.298-26.172-10.139-40.626c4.454-29.808,32.341-50.44,62.135-46.017
					l220.621,32.82c14.455,2.151,27.206,9.803,35.903,21.547c8.696,11.745,12.298,26.171,10.14,40.625
					C1248.167,908.094,1224.768,927.614,1198.156,927.614z M977.476,789.82c-24.468,0-45.978,17.946-49.699,42.856
					c-1.985,13.289,1.325,26.553,9.321,37.351c7.996,10.796,19.717,17.83,33.007,19.807l0,0l220.622,32.82
					c27.399,4.059,53.032-14.9,57.125-42.303c1.985-13.289-1.326-26.553-9.321-37.351c-7.996-10.796-19.719-17.832-33.008-19.809
					l-220.621-32.82C982.407,790,979.925,789.82,977.476,789.82z"/>
				<path style="fill:#FFFFFF;" d="M1170.648,901.615c-0.449,0-0.907-0.011-1.368-0.032c-1.216-0.056-2.156-1.087-2.1-2.304
					c0.057-1.216,1.089-2.129,2.305-2.101c0.427,0.021,0.859,0.03,1.277,0.028l0.704-0.009c1.177-0.015,2.229,0.93,2.261,2.149
					c0.032,1.216-0.929,2.228-2.147,2.261l-0.807,0.009C1170.731,901.615,1170.689,901.615,1170.648,901.615z M1181.954,899.497
					c-0.882,0-1.714-0.532-2.054-1.402c-0.444-1.133,0.115-2.411,1.249-2.857c0.615-0.239,1.22-0.502,1.814-0.786
					c1.098-0.532,2.414-0.065,2.941,1.036c0.526,1.098,0.063,2.414-1.036,2.939c-0.691,0.332-1.395,0.637-2.111,0.919
					C1182.494,899.449,1182.221,899.497,1181.954,899.497z M1158.988,899.29c-0.28,0-0.565-0.054-0.841-0.168
					c-0.709-0.293-1.406-0.609-2.087-0.947c-1.091-0.543-1.534-1.867-0.993-2.956c0.543-1.092,1.865-1.539,2.956-0.993
					c0.591,0.295,1.193,0.568,1.807,0.823c1.125,0.463,1.661,1.753,1.196,2.879C1160.676,898.777,1159.854,899.29,1158.988,899.29z
					 M1192.594,892.482c-0.561,0-1.121-0.213-1.55-0.637c-0.866-0.857-0.873-2.252-0.017-3.118c0.463-0.467,0.91-0.952,1.339-1.456
					c0.789-0.926,2.183-1.034,3.109-0.245c0.926,0.79,1.036,2.183,0.245,3.109c-0.501,0.586-1.021,1.148-1.559,1.692
					C1193.73,892.264,1193.162,892.482,1192.594,892.482z M1148.483,892.079c-0.581,0-1.162-0.228-1.596-0.682
					c-0.526-0.553-1.035-1.126-1.522-1.714c-0.776-0.939-0.645-2.328,0.293-3.105c0.939-0.777,2.33-0.646,3.105,0.293
					c0.421,0.51,0.86,1.005,1.316,1.481c0.841,0.881,0.807,2.278-0.073,3.118C1149.577,891.877,1149.029,892.079,1148.483,892.079z
					 M1199.469,881.755c-0.257,0-0.519-0.045-0.774-0.14c-1.14-0.428-1.718-1.699-1.291-2.84c0.231-0.614,0.441-1.242,0.632-1.88
					c0.347-1.167,1.572-1.837,2.741-1.488c1.167,0.347,1.832,1.574,1.486,2.741c-0.219,0.741-0.463,1.464-0.729,2.177
					C1201.201,881.21,1200.361,881.755,1199.469,881.755z M1141.803,881.227c-0.906,0-1.757-0.564-2.078-1.466
					c-0.254-0.717-0.487-1.447-0.692-2.183c-0.328-1.174,0.356-2.39,1.529-2.717c1.181-0.329,2.39,0.357,2.717,1.529
					c0.18,0.642,0.38,1.273,0.602,1.895c0.407,1.148-0.193,2.409-1.339,2.816C1142.298,881.186,1142.049,881.227,1141.803,881.227z
					 M1201.37,869.152c-1.158,0-2.131-0.904-2.198-2.076c-0.04-0.661-0.101-1.32-0.187-1.974c-0.158-1.208,0.692-2.315,1.9-2.472
					c1.199-0.166,2.313,0.689,2.473,1.899c0.099,0.758,0.171,1.52,0.215,2.289c0.072,1.217-0.856,2.259-2.071,2.33
					C1201.457,869.15,1201.414,869.152,1201.37,869.152z M1140.138,868.597c-0.058,0-0.116-0.002-0.175-0.006
					c-1.214-0.097-2.121-1.158-2.025-2.373c0.06-0.758,0.146-1.516,0.259-2.276c0.18-1.204,1.302-2.095,2.512-1.912
					c1.204,0.179,2.044,1.244,1.867,2.448c-0.001,0.006-0.018,0.121-0.019,0.127c-0.095,0.644-0.17,1.303-0.222,1.961
					C1142.243,867.72,1141.277,868.597,1140.138,868.597z M1197.975,856.875c-0.797,0-1.565-0.433-1.958-1.186
					c-0.306-0.588-0.632-1.163-0.977-1.727c-0.636-1.038-0.311-2.394,0.727-3.032c1.038-0.635,2.395-0.31,3.033,0.728
					c0.399,0.65,0.776,1.315,1.13,1.994c0.562,1.081,0.142,2.411-0.939,2.974C1198.665,856.795,1198.317,856.875,1197.975,856.875z
					 M1143.798,856.281c-0.359,0-0.721-0.086-1.057-0.271c-1.068-0.586-1.46-1.925-0.874-2.993c0.369-0.676,0.761-1.331,1.173-1.972
					c0.659-1.021,2.024-1.313,3.048-0.659c1.024,0.661,1.319,2.024,0.66,3.049c-0.356,0.551-0.694,1.12-1.014,1.701
					C1145.333,855.867,1144.578,856.281,1143.798,856.281z M1189.87,847.033c-0.482,0-0.967-0.157-1.373-0.48
					c-0.517-0.411-1.049-0.805-1.594-1.182c-1.002-0.689-1.255-2.063-0.565-3.066s2.062-1.262,3.067-0.564
					c0.63,0.433,1.243,0.887,1.84,1.363c0.953,0.76,1.11,2.147,0.351,3.098C1191.16,846.749,1190.518,847.033,1189.87,847.033z
					 M1152.124,846.633c-0.662,0-1.317-0.297-1.75-0.863c-0.742-0.967-0.559-2.351,0.408-3.092c0.609-0.467,1.236-0.909,1.876-1.331
					c1.02-0.668,2.387-0.385,3.054,0.633c0.669,1.016,0.385,2.383-0.632,3.053c-0.552,0.362-1.09,0.743-1.616,1.146
					C1153.063,846.484,1152.592,846.633,1152.124,846.633z M1178.474,841.342c-0.182,0-0.366-0.022-0.551-0.069
					c-0.639-0.166-1.29-0.31-1.948-0.435c-1.196-0.226-1.982-1.38-1.755-2.577c0.226-1.195,1.379-1.981,2.577-1.755
					c0.75,0.142,1.493,0.308,2.225,0.495c1.179,0.304,1.888,1.507,1.585,2.685C1180.351,840.681,1179.455,841.342,1178.474,841.342z
					 M1163.641,841.181c-0.996,0-1.9-0.68-2.142-1.69c-0.283-1.184,0.447-2.375,1.631-2.659c0.744-0.179,1.495-0.327,2.255-0.452
					c1.198-0.224,2.336,0.616,2.533,1.817c0.197,1.202-0.617,2.336-1.818,2.532c-0.655,0.108-1.303,0.239-1.943,0.392
					C1163.984,841.161,1163.811,841.181,1163.641,841.181z"/>
				<path style="fill:#FFFFFF;" d="M982.402,873.594c-0.495,0-0.99-0.011-1.488-0.034c-1.217-0.056-2.156-1.089-2.1-2.306
					c0.057-1.217,1.162-2.17,2.305-2.099c0.429,0.019,0.857,0.03,1.283,0.03l0.696-0.009c1.21,0.015,2.23,0.93,2.261,2.149
					c0.031,1.216-0.93,2.228-2.147,2.261L982.402,873.594z M993.588,871.473c-0.882,0-1.714-0.532-2.054-1.402
					c-0.444-1.133,0.115-2.411,1.249-2.857c0.615-0.239,1.22-0.502,1.814-0.786c1.1-0.532,2.415-0.065,2.941,1.036
					c0.526,1.098,0.063,2.414-1.036,2.939c-0.691,0.332-1.395,0.637-2.111,0.919C994.127,871.426,993.854,871.473,993.588,871.473z
					 M970.622,871.269c-0.28,0-0.565-0.054-0.841-0.168c-0.71-0.293-1.406-0.609-2.088-0.947c-1.091-0.543-1.534-1.867-0.993-2.956
					c0.54-1.092,1.861-1.539,2.956-0.993c0.591,0.295,1.193,0.568,1.808,0.823c1.125,0.463,1.661,1.753,1.196,2.879
					C972.31,870.756,971.489,871.269,970.622,871.269z M1004.227,864.458c-0.561,0-1.121-0.213-1.55-0.637
					c-0.866-0.857-0.873-2.252-0.017-3.118c0.463-0.467,0.91-0.952,1.339-1.456c0.79-0.926,2.183-1.034,3.109-0.245
					c0.926,0.79,1.036,2.183,0.245,3.109c-0.501,0.586-1.021,1.148-1.559,1.692C1005.363,864.241,1004.796,864.458,1004.227,864.458
					z M960.115,864.058c-0.581,0-1.162-0.228-1.595-0.682c-0.526-0.553-1.035-1.126-1.522-1.714
					c-0.776-0.939-0.645-2.328,0.293-3.105c0.938-0.775,2.329-0.646,3.105,0.293c0.421,0.51,0.86,1.005,1.316,1.481
					c0.841,0.881,0.807,2.278-0.073,3.118C961.21,863.856,960.662,864.058,960.115,864.058z M1011.101,853.731
					c-0.257,0-0.519-0.045-0.774-0.14c-1.14-0.428-1.718-1.699-1.291-2.84c0.232-0.614,0.441-1.242,0.632-1.88
					c0.347-1.167,1.572-1.839,2.741-1.488c1.167,0.347,1.832,1.574,1.486,2.741c-0.219,0.741-0.463,1.464-0.729,2.177
					C1012.833,853.187,1011.994,853.731,1011.101,853.731z M953.437,853.206c-0.906,0-1.757-0.564-2.078-1.466
					c-0.254-0.717-0.487-1.447-0.692-2.183c-0.328-1.174,0.356-2.39,1.529-2.717c1.182-0.334,2.389,0.357,2.717,1.529
					c0.18,0.642,0.38,1.273,0.602,1.895c0.407,1.148-0.193,2.409-1.339,2.816C953.931,853.165,953.682,853.206,953.437,853.206z
					 M1013.003,841.129c-1.158,0-2.131-0.904-2.198-2.076c-0.04-0.661-0.101-1.32-0.187-1.975c-0.158-1.208,0.692-2.315,1.9-2.472
					c1.196-0.164,2.314,0.689,2.473,1.899c0.099,0.758,0.171,1.52,0.215,2.289c0.072,1.216-0.856,2.259-2.071,2.33
					C1013.091,841.127,1013.048,841.129,1013.003,841.129z M951.771,840.576c-0.058,0-0.116-0.002-0.175-0.006
					c-1.214-0.097-2.121-1.158-2.025-2.373c0.06-0.758,0.146-1.516,0.259-2.276l2.197,0.218l2.171,0.383
					c-0.104,0.706-0.18,1.365-0.231,2.024C953.876,839.699,952.91,840.576,951.771,840.576z M1009.607,828.852
					c-0.797,0-1.565-0.433-1.958-1.186c-0.306-0.588-0.632-1.163-0.978-1.727c-0.636-1.038-0.311-2.394,0.727-3.032
					c1.038-0.635,2.396-0.31,3.033,0.728c0.399,0.65,0.776,1.316,1.13,1.994c0.562,1.081,0.142,2.411-0.939,2.974
					C1010.297,828.772,1009.949,828.852,1009.607,828.852z M955.433,828.262c-0.357,0-0.719-0.086-1.055-0.269
					c-1.068-0.583-1.462-1.925-0.877-2.993c0.369-0.676,0.761-1.333,1.173-1.974c0.661-1.021,2.024-1.314,3.048-0.659
					c1.024,0.661,1.319,2.024,0.66,3.049c-0.356,0.551-0.693,1.117-1.012,1.699C956.969,827.846,956.213,828.262,955.433,828.262z
					 M1001.501,819.012c-0.482,0-0.967-0.157-1.373-0.48c-0.517-0.411-1.049-0.805-1.594-1.182
					c-1.002-0.689-1.255-2.063-0.565-3.066c0.689-1.003,2.062-1.262,3.067-0.564c0.63,0.433,1.243,0.887,1.84,1.363
					c0.953,0.76,1.11,2.147,0.351,3.098C1002.791,818.728,1002.149,819.012,1001.501,819.012z M963.757,818.614
					c-0.662,0-1.317-0.297-1.751-0.864c-0.741-0.967-0.559-2.351,0.408-3.092c0.609-0.467,1.236-0.909,1.876-1.331
					c1.022-0.67,2.386-0.385,3.054,0.633c0.669,1.016,0.385,2.383-0.632,3.053c-0.552,0.362-1.091,0.743-1.616,1.145
					C964.697,818.465,964.225,818.614,963.757,818.614z M990.105,813.321c-0.182,0-0.366-0.022-0.551-0.069
					c-0.639-0.166-1.29-0.31-1.948-0.435c-1.196-0.226-1.982-1.38-1.755-2.577c0.226-1.195,1.374-1.981,2.577-1.755
					c0.75,0.142,1.493,0.308,2.225,0.495c1.179,0.304,1.888,1.507,1.585,2.685C991.982,812.66,991.087,813.321,990.105,813.321z
					 M975.272,813.16c-0.996,0-1.9-0.68-2.142-1.69c-0.283-1.184,0.447-2.375,1.631-2.659c0.744-0.179,1.495-0.327,2.255-0.452
					c1.198-0.217,2.336,0.616,2.533,1.817c0.197,1.201-0.617,2.336-1.818,2.532c-0.655,0.108-1.303,0.239-1.943,0.392
					C975.615,813.14,975.442,813.16,975.272,813.16z"/>
				<path style="fill:#D87355;" d="M760.754,1231.078L760.754,1231.078c11.752,0,21.278-9.527,21.278-21.278v-56.453
					c0-11.752-9.527-21.278-21.278-21.278l0,0c-11.752,0-21.278,9.527-21.278,21.278v56.453
					C739.476,1221.551,749.003,1231.078,760.754,1231.078z"/>
			</g>
			<g>
				<rect x="1190.47" y="1512.326" style="fill:#E0AA63;" width="430.822" height="319.466"/>
				<path style="fill:#84524D;" d="M1630.112,1825.172h-430.823c-1.218,0-2.205-0.986-2.205-2.205v-319.466
					c0-1.219,0.987-2.205,2.205-2.205h430.823c1.219,0,2.205,0.986,2.205,2.205v319.466
					C1632.317,1824.186,1631.33,1825.172,1630.112,1825.172z M1201.494,1820.762h426.413v-315.057h-426.413V1820.762z"/>
				<path style="fill:#EFBC73;" d="M1297.07,1815.448c-1.219,0-2.205-0.986-2.205-2.205v-282.368c0-1.219,0.986-2.205,2.205-2.205
					c1.219,0,2.205,0.986,2.205,2.205v282.368C1299.275,1814.462,1298.289,1815.448,1297.07,1815.448z"/>
				<path style="fill:#EFBC73;" d="M1489.44,1815.448c-1.219,0-2.205-0.986-2.205-2.205V1625.39c0-1.219,0.986-2.205,2.205-2.205
					c1.219,0,2.205,0.986,2.205,2.205v187.853C1491.645,1814.462,1490.659,1815.448,1489.44,1815.448z"/>
				<g>
					<path style="fill:#F7F1EB;" d="M1530.266,1616.246c-0.575,0-1.139-0.224-1.561-0.646l-20.547-20.58l-16.982,17.01
						c-0.827,0.827-2.295,0.827-3.122,0l-17.568-17.595l-20.313,20.347c-0.631,0.635-1.583,0.827-2.403,0.48
						c-0.825-0.34-1.363-1.146-1.363-2.037v-96.665c0-1.219,0.986-2.205,2.205-2.205s2.205,0.986,2.205,2.205v91.336l18.108-18.138
						c0.827-0.831,2.295-0.829,3.122-0.002l17.568,17.595l16.982-17.01c0.827-0.827,2.295-0.827,3.122,0l18.343,18.371v-92.152
						c0-1.219,0.986-2.205,2.205-2.205c1.219,0,2.205,0.986,2.205,2.205v97.482c0,0.891-0.538,1.697-1.361,2.037
						C1530.837,1616.192,1530.55,1616.246,1530.266,1616.246z"/>
				</g>
			</g>
			<g>
				<rect x="439.654" y="1426.18" style="fill:#E0AA63;" width="551.637" height="409.054"/>
				<path style="fill:#84524D;" d="M1004.517,1828.615H452.879c-1.218,0-2.205-0.986-2.205-2.205v-409.054
					c0-1.219,0.987-2.205,2.205-2.205h551.638c1.218,0,2.205,0.986,2.205,2.205v409.054
					C1006.722,1827.629,1005.734,1828.615,1004.517,1828.615z M455.084,1824.205h547.228V1419.56H455.084V1824.205z"/>
				<path style="fill:#EFBC73;" d="M576.148,1813.687c-1.218,0-2.205-0.986-2.205-2.205v-361.552c0-1.219,0.987-2.205,2.205-2.205
					c1.218,0,2.205,0.986,2.205,2.205v361.552C578.353,1812.701,577.365,1813.687,576.148,1813.687z"/>
				<path style="fill:#EFBC73;" d="M822.463,1813.687c-1.218,0-2.205-0.986-2.205-2.205V1570.95c0-1.219,0.987-2.205,2.205-2.205
					c1.218,0,2.205,0.986,2.205,2.205v240.532C824.668,1812.701,823.681,1813.687,822.463,1813.687z"/>
				<g>
					<path style="fill:#F7F1EB;" d="M874.74,1558.623c-0.574,0-1.138-0.224-1.56-0.646l-26.749-26.789l-22.185,22.218
						c-0.413,0.413-0.974,0.646-1.56,0.646l0,0c-0.586,0-1.147-0.233-1.56-0.646l-22.931-22.968l-26.45,26.492
						c-0.632,0.631-1.581,0.82-2.403,0.478c-0.825-0.34-1.362-1.146-1.362-2.037v-123.771c0-1.219,0.987-2.205,2.205-2.205
						s2.205,0.986,2.205,2.205v118.442l24.246-24.283c0.827-0.827,2.293-0.827,3.12,0l22.931,22.968l22.185-22.218
						c0.413-0.413,0.974-0.646,1.56-0.646l0,0c0.586,0,1.147,0.233,1.56,0.646l24.544,24.58v-119.489
						c0-1.219,0.987-2.205,2.205-2.205s2.205,0.986,2.205,2.205v124.818c0,0.891-0.537,1.697-1.362,2.037
						C875.311,1558.569,875.025,1558.623,874.74,1558.623z"/>
				</g>
			</g>
			<g>
				<polygon style="fill:#363E44;" points="1347.992,1544.203 1211.995,1578.676 1218.609,1715.177 1257.4,1609.091 				"/>
				<polygon style="fill:#363E44;" points="1406.031,1607.189 1359.031,1735.542 1222.552,1709.865 1334.562,1686.675 				"/>
				<path style="fill:#363E44;" d="M1088.71,1734.815c-24.125,0-48.301-2.295-72.225-6.914
					c-69.086-13.343-132.684-45.505-183.922-93.009c-60.787-56.359-101.657-132.864-115.08-215.422
					c-13.436-82.627,1.099-168.471,40.927-241.716c0.582-1.072,1.916-1.464,2.99-0.885c1.07,0.583,1.466,1.921,0.884,2.991
					c-81.703,150.259-51.571,336.046,73.277,451.798c101.792,94.377,252.206,123.995,383.193,75.457
					c1.139-0.426,2.41,0.157,2.834,1.301c0.423,1.143-0.159,2.411-1.301,2.834C1178.043,1726.902,1133.48,1734.815,1088.71,1734.815
					z"/>
				<path style="fill:#B77250;" d="M1187.61,1697.111l30.313,40.774c4.829,6.496,14.01,7.847,20.506,3.018h0
					c6.496-4.829,7.847-14.01,3.018-20.506l-30.313-40.774c-4.829-6.496-14.01-7.847-20.506-3.018l0,0
					C1184.132,1681.434,1182.781,1690.615,1187.61,1697.111z"/>
			</g>
		</g>
	</g>
</g>
</svg>
