<?xml version="1.0" encoding="utf-8"?>
<!-- Generator: Adobe Illustrator 27.5.0, SVG Export Plug-In . SVG Version: 6.00 Build 0)  -->
<svg version="1.1" xmlns="http://www.w3.org/2000/svg" xmlns:xlink="http://www.w3.org/1999/xlink" x="0px" y="0px"
	 viewBox="0 0 2500 2500" style="enable-background:new 0 0 2500 2500;" xml:space="preserve">
-
<g id="Illustration">
	<g id="Ambition_1_">
		<circle style="fill:transparent;" cx="1250" cy="1250" r="912.8"/>
		<g>
			<g>
				<rect x="425.031" y="1908.568" style="fill:#F7F1EB;" width="317.556" height="249.281"/>
			</g>
			<g>
				<rect x="1303.66" y="1462.885" style="fill:#E6D0BE;" width="346.012" height="696.087"/>
			</g>
			<path style="fill:#FFFFFF;" d="M701.552,2146.764c-1.215,0-2.2-0.985-2.2-2.2v-219.85c0-1.215,0.985-2.2,2.2-2.2
				c1.215,0,2.199,0.985,2.199,2.2v219.85C703.751,2145.779,702.766,2146.764,701.552,2146.764z"/>
			<g>
				<rect x="1743.708" y="1141.234" style="fill:#D3BBA3;" width="353.586" height="1017.738"/>
			</g>
			<path style="fill:#FFFFFF;" d="M2028.711,2133.988c-1.215,0-2.2-0.985-2.2-2.199V1169.58c0-1.215,0.985-2.199,2.2-2.199
				c1.215,0,2.2,0.985,2.2,2.199v962.209C2030.911,2133.003,2029.926,2133.988,2028.711,2133.988z"/>
			<path style="fill:#FFFFFF;" d="M1578.868,2134.866c-1.215,0-2.2-0.985-2.2-2.2v-643.714c0-1.215,0.985-2.199,2.2-2.199
				c1.215,0,2.199,0.985,2.199,2.199v643.714C1581.067,2133.881,1580.083,2134.866,1578.868,2134.866z"/>
			<g>
				<rect x="845.353" y="1698.749" style="fill:#E6D0BE;" width="347.112" height="460.223"/>
			</g>
			<path style="fill:#FFFFFF;" d="M1121.66,2143.78c-1.215,0-2.2-0.985-2.2-2.2v-425.597c0-1.215,0.985-2.199,2.2-2.199
				s2.199,0.985,2.199,2.199v425.597C1123.859,2142.795,1122.875,2143.78,1121.66,2143.78z"/>
		</g>
		<path style="fill:#D87355;" d="M399.488,2165c-1.215,0-2.199-0.985-2.199-2.199v-337.837c0-1.215,0.985-2.2,2.199-2.2h373.496
			v-289.557c0-1.215,0.985-2.2,2.2-2.2h429.094V1368.54c0-1.215,0.985-2.199,2.199-2.199h440.995v-303.459
			c0-1.215,0.985-2.199,2.199-2.199h508.655V337.199c0-1.215,0.985-2.199,2.199-2.199s2.199,0.985,2.199,2.199v725.682
			c0,1.215-0.985,2.2-2.199,2.2h-508.655v303.459c0,1.215-0.985,2.199-2.2,2.199h-440.995v162.467c0,1.215-0.985,2.199-2.199,2.199
			H777.384v289.557c0,1.215-0.985,2.2-2.2,2.2H401.688v335.638C401.688,2164.015,400.703,2165,399.488,2165z"/>
		<g>
			<path style="fill:#363E44;" d="M1249.109,2110.049c-113.363,0-226.201-21.786-330.849-64.282
				c-128.685-52.256-244.853-135.501-335.945-240.734c-0.796-0.918-0.695-2.307,0.223-3.103c0.918-0.795,2.307-0.695,3.102,0.223
				c187.762,216.908,469.924,328.585,754.81,298.731c441.161-46.23,778.853-415.162,785.501-858.17
				c0.018-1.216,1.102-2.183,2.233-2.167c1.215,0.018,2.184,1.018,2.166,2.232c-6.681,445.232-346.068,816.017-789.442,862.479
				C1310.38,2108.458,1279.714,2110.049,1249.109,2110.049z"/>
			<path style="fill:#363E44;" d="M2152.935,1282.109c-0.855,0-1.668-0.501-2.024-1.337l-22.883-53.645l-28.32,50.441
				c-0.594,1.059-1.933,1.438-2.995,0.842c-1.059-0.595-1.436-1.936-0.841-2.995l30.508-54.338c0.411-0.731,1.216-1.157,2.037-1.12
				c0.837,0.046,1.575,0.562,1.904,1.333l24.637,57.755c0.477,1.118-0.043,2.41-1.16,2.886
				C2153.515,1282.052,2153.223,1282.109,2152.935,1282.109z"/>
		</g>
		<g>
			<g>
				<path style="fill:#D87355;" d="M1732.259,899.433c-7.289,0-14.61-0.283-21.957-0.854
					C1557.6,886.713,1443.017,752.78,1454.88,600.021c5.746-73.999,39.954-141.331,96.323-189.592
					c56.369-48.261,128.154-71.674,202.125-65.925c152.702,11.866,267.285,145.799,255.422,298.558l-2.193-0.17l2.193,0.17
					c-5.746,73.999-39.954,141.331-96.325,189.592C1861.654,876.122,1798.376,899.433,1732.259,899.433z M1731.378,348.049
					c-65.075,0-127.342,22.939-177.314,65.722c-55.477,47.497-89.143,113.763-94.798,186.59
					c-11.674,150.341,101.093,282.153,251.378,293.832c7.225,0.562,14.439,0.84,21.609,0.84
					c65.074,0.003,127.342-22.939,177.314-65.722c55.477-47.497,89.143-113.763,94.798-186.591
					c11.674-150.341-101.093-282.153-251.378-293.832C1745.762,348.328,1738.548,348.049,1731.378,348.049z"/>
				<path style="fill:#E6D0BE;" d="M1747.713,416.814c-113.026-8.783-211.769,75.757-220.549,188.824
					s75.728,211.848,188.754,220.631c113.026,8.783,211.768-75.757,220.548-188.825
					C1945.246,524.377,1860.739,425.597,1747.713,416.814z M1722.277,744.378c-67.816-5.27-118.52-64.538-113.252-132.379
					c5.268-67.841,64.513-118.564,132.329-113.295c67.815,5.27,118.52,64.538,113.252,132.379
					C1849.338,698.924,1790.092,749.648,1722.277,744.378z"/>
				
					<ellipse transform="matrix(0.0047 -1 1 0.0047 1102.1528 2350.4207)" style="fill:#D87355;" cx="1731.815" cy="621.542" rx="55.195" ry="55.174"/>
			</g>
			<g>
				
					<rect x="1808.961" y="474.958" transform="matrix(0.7713 -0.6365 0.6365 0.7713 124.9055 1318.3535)" style="fill:#ff6900;" width="176.042" height="20.818"/>
				<polygon style="fill:#363E44;" points="1819.306,557.817 1731.158,622.201 1811.108,547.875 				"/>
				<g>
					<polygon style="fill:#EFBC73;" points="2022.2,382.529 1971.056,424.731 1965.506,388.912 2016.649,346.711 					"/>
					<polygon style="fill:#D87355;" points="2026.059,387.21 1974.916,429.412 2009.012,441.676 2060.155,399.474 					"/>
				</g>
				
					<rect x="1814.178" y="535.154" transform="matrix(0.7713 -0.6365 0.6365 0.7713 65.8855 1283.3215)" style="fill:#FFFFFF;" width="9" height="29.656"/>
				
					<rect x="1821.12" y="529.425" transform="matrix(0.7713 -0.6364 0.6364 0.7713 71.0873 1286.3547)" style="fill:#FFFFFF;" width="9" height="29.656"/>
			</g>
		</g>
		<g>
			<g>
				<path style="fill:#D87355;" d="M1373.154,1178.18c-6.482,49.274-34.869,66.618-75.025,72.328v-0.001l0,0
					c1.002-59.896,66.124-81.49,66.124-81.49L1373.154,1178.18z"/>
				<path style="fill:#D87355;" d="M1268.128,1070.087c-49.421,5.081-67.558,32.974-74.406,72.966h0.001l0,0
					c59.878,0.701,83.307-63.804,83.307-63.804L1268.128,1070.087z"/>
			</g>
			<path style="fill:#D87355;" d="M1266.601,1124.462c0,0-66.573,27.195-52.964,111.656c0,0,12.889-15.275,37.122-15.474
				c35.574-0.292,56.463-17.375,66.856-43.679L1266.601,1124.462z"/>
			<path style="fill:#EFBC73;" d="M1545.805,986.206L1545.805,986.206c16.41-36.688,21.492-61.528,19.3-95.265h-0.001l0,0
				c-38.595-4.399-58.615,1.226-95.741,16.592l0,0l0,0l38.22,39.337L1545.805,986.206L1545.805,986.206z"/>
			<path style="fill:#EFBC73;" d="M1533.349,1005.581l1.942-3.626l-81.963-84.357l-3.678,1.839
				c-57.195,28.585-125.726,81.463-171.573,126.04l-9.105,8.853l124.452,128.086l9.105-8.853
				C1448.376,1128.985,1503.161,1061.961,1533.349,1005.581z"/>
			<g>
				<path style="fill:#363E44;" d="M1307.208,1252.889c-0.533,0-1.051-0.193-1.455-0.55c-0.483-0.426-0.755-1.042-0.744-1.686
					c1.016-60.753,66.964-83.321,67.63-83.541c0.8-0.265,1.682-0.05,2.27,0.555l8.902,9.162c0.468,0.482,0.691,1.152,0.604,1.819
					c-5.867,44.601-29.583,67.491-76.897,74.219C1307.414,1252.881,1307.311,1252.889,1307.208,1252.889z M1372.746,1171.753
					c-8.861,3.365-60.699,25.219-63.252,76.37c43.503-6.858,64.67-27.638,70.417-68.996L1372.746,1171.753z"/>
				<path style="fill:#363E44;" d="M1203.759,1145.438c-0.328,0-0.653-0.002-0.983-0.005c-0.643-0.008-1.252-0.297-1.664-0.792
					c-0.412-0.495-0.587-1.145-0.479-1.779c8.068-47.12,31.614-70.184,76.349-74.784c0.68-0.066,1.334,0.174,1.802,0.656
					l8.902,9.162c0.587,0.604,0.777,1.491,0.49,2.283C1287.938,1080.836,1263.773,1145.438,1203.759,1145.438z M1276.376,1072.568
					c-41.491,4.572-62.856,25.149-70.944,68.454c51.238-1.099,74.504-52.314,78.11-61.079L1276.376,1072.568z"/>
			</g>
			<g>
				
					<ellipse transform="matrix(0.9915 -0.1299 0.1299 0.9915 -121.7141 193.4511)" style="fill:#D87355;" cx="1422.241" cy="1029.85" rx="57.008" ry="57.03"/>
				<path style="fill:#363E44;" d="M1422.262,1073.108c-0.211,0-0.422-0.002-0.634-0.004c-11.55-0.165-22.344-4.82-30.395-13.106
					c-16.62-17.104-16.231-44.545,0.866-61.17c8.283-8.054,19.201-12.422,30.755-12.233c11.551,0.165,22.345,4.819,30.396,13.105
					c16.62,17.105,16.231,44.545-0.866,61.17l0,0C1444.253,1068.777,1433.577,1073.108,1422.262,1073.108z M1422.222,990.99
					c-10.164,0-19.753,3.89-27.056,10.992c-15.359,14.934-15.708,39.585-0.778,54.95c7.232,7.443,16.928,11.624,27.303,11.772
					c10.348,0.156,20.184-3.755,27.625-10.989c15.359-14.934,15.708-39.584,0.778-54.95c-7.232-7.443-16.928-11.624-27.303-11.772
					C1422.602,990.992,1422.411,990.99,1422.222,990.99z M1450.85,1059.294h0.021H1450.85z"/>
			</g>
			<path style="fill:#363E44;" d="M1541.996,997.635c-0.574,0-1.146-0.223-1.578-0.667l-81.963-84.357
				c-0.846-0.871-0.826-2.263,0.045-3.11c0.872-0.846,2.263-0.826,3.11,0.045l81.963,84.357c0.846,0.871,0.826,2.264-0.045,3.11
				C1543.101,997.429,1542.548,997.635,1541.996,997.635z"/>
			<path style="fill:#363E44;" d="M1340.68,1176.506c-0.011,0-0.02,0-0.031,0c-0.583-0.009-1.14-0.248-1.547-0.667l-65.103-67.004
				c-0.846-0.871-0.826-2.263,0.044-3.11l19.341-18.806c0.419-0.407,1.004-0.625,1.565-0.622c0.583,0.009,1.14,0.248,1.547,0.667
				l65.103,67.004c0.846,0.871,0.826,2.263-0.044,3.11l-19.341,18.806C1341.802,1176.283,1341.252,1176.506,1340.68,1176.506z
				 M1278.686,1107.346l62.038,63.849l16.187-15.739l-62.036-63.849L1278.686,1107.346z"/>
			<path style="fill:#363E44;" d="M1222.717,1238.498c-0.196,0-0.393-0.026-0.588-0.08c-0.829-0.23-1.448-0.921-1.584-1.769
				c-13.728-85.201,53.623-113.764,54.305-114.043c0.826-0.338,1.783-0.141,2.409,0.504l51.013,52.503
				c0.603,0.62,0.786,1.536,0.468,2.341c-11.706,29.627-34.882,44.791-68.883,45.07c-22.958,0.188-35.337,14.548-35.46,14.693
				C1223.973,1238.219,1223.354,1238.498,1222.717,1238.498z M1275.169,1127.272c-9.311,4.315-60.548,31.565-50.905,104.427
				c5.372-4.699,17.36-12.924,35.556-13.074c31.526-0.259,53.15-14.043,64.297-40.974L1275.169,1127.272z"/>
			<g>
				<path style="fill:#FFFFFF;" d="M1208.252,1308.564c-0.573,0-1.146-0.223-1.577-0.666c-0.847-0.871-0.828-2.263,0.043-3.11
					l70.063-68.123c0.871-0.846,2.265-0.827,3.11,0.044c0.847,0.871,0.828,2.264-0.043,3.11l-70.064,68.123
					C1209.358,1308.357,1208.805,1308.564,1208.252,1308.564z"/>
				<path style="fill:#FFFFFF;" d="M1255.884,1292.552c-0.573,0-1.146-0.223-1.577-0.666c-0.847-0.87-0.828-2.263,0.043-3.11
					l27.469-26.709c0.871-0.846,2.265-0.827,3.11,0.044c0.847,0.87,0.828,2.263-0.043,3.11l-27.469,26.709
					C1256.991,1292.345,1256.438,1292.552,1255.884,1292.552z"/>
				<path style="fill:#FFFFFF;" d="M1162.724,1207.884c-0.573,0-1.146-0.223-1.577-0.666c-0.847-0.871-0.828-2.263,0.043-3.11
					l47.232-45.924c0.871-0.846,2.265-0.827,3.11,0.044c0.847,0.871,0.828,2.263-0.043,3.11l-47.232,45.924
					C1163.83,1207.677,1163.277,1207.884,1162.724,1207.884z"/>
				<path style="fill:#FFFFFF;" d="M1179.957,1173.68c-0.573,0-1.146-0.223-1.577-0.667c-0.847-0.87-0.828-2.263,0.043-3.11
					l19.057-18.53c0.872-0.846,2.265-0.827,3.11,0.044c0.847,0.87,0.828,2.263-0.043,3.11l-19.057,18.53
					C1181.063,1173.473,1180.51,1173.68,1179.957,1173.68z"/>
				<path style="fill:#FFFFFF;" d="M1138.805,1292.693c-0.573,0-1.146-0.223-1.577-0.666c-0.847-0.87-0.828-2.264,0.043-3.11
					l62.812-61.074c0.872-0.846,2.265-0.827,3.11,0.044c0.847,0.87,0.828,2.264-0.043,3.11l-62.812,61.074
					C1139.911,1292.486,1139.358,1292.693,1138.805,1292.693z"/>
				<path style="fill:#FFFFFF;" d="M1147.602,1264.942c-0.573,0-1.146-0.223-1.577-0.666c-0.847-0.871-0.828-2.263,0.043-3.11
					l32.635-31.731c0.871-0.846,2.265-0.827,3.11,0.044c0.847,0.871,0.828,2.263-0.043,3.11l-32.635,31.731
					C1148.708,1264.736,1148.155,1264.942,1147.602,1264.942z"/>
			</g>
		</g>
		<g>
			<g>
				<g>
					<path style="fill:#EFBC73;" d="M1909.262,1091.49c11.506-15.083,19.028-39.921,19.028-68.032c0-9.08-0.795-17.812-2.244-25.994
						c13.182-6.342,21.491-15.568,21.491-25.845c0-7.297-4.194-14.062-11.338-19.644c73.076-38.706,126.182-155.581,126.182-293.761
						c0-5.667-0.096-11.295-0.274-16.888h-357.495c-0.178,5.593-0.274,11.221-0.274,16.888
						c0,138.178,53.104,255.055,126.182,293.761c-7.144,5.582-11.338,12.348-11.338,19.644c0,10.277,8.309,19.504,21.491,25.845
						c-1.449,8.182-2.245,16.913-2.245,25.994c0,28.111,7.521,52.949,19.028,68.032c-55.324,4.913-97.058,25.231-98.456,49.745
						h248.718C2006.32,1116.721,1964.586,1096.403,1909.262,1091.49z"/>
					<path style="fill:#EFBC73;" d="M1818.596,900.235c-106.445,0-193.043-86.599-193.043-193.043v-48.978
						c0-1.215,0.985-2.2,2.2-2.2h190.844c1.215,0,2.2,0.985,2.2,2.2v239.821C1820.796,899.25,1819.811,900.235,1818.596,900.235z
						 M1629.952,660.414v46.778c0,103.282,83.438,187.444,186.445,188.63V660.414H1629.952z"/>
					<path style="fill:#EFBC73;" d="M1946.564,900.235c-1.215,0-2.199-0.985-2.199-2.2V658.214c0-1.215,0.985-2.2,2.199-2.2h190.844
						c1.215,0,2.2,0.985,2.2,2.2v48.978C2139.608,813.636,2053.009,900.235,1946.564,900.235z M1948.764,660.414v235.409
						c103.007-1.186,186.445-85.348,186.445-188.63v-46.778H1948.764z"/>
					<path style="fill:#F7F1EB;" d="M1937.318,916.459c-0.579,0-1.158-0.228-1.589-0.679c-0.84-0.878-0.809-2.27,0.069-3.11
						c17.057-16.314,48.944-52.377,70.863-110.599c19.08-50.681,19.547-76.282,20.32-118.697l0.178-9.427
						c0.025-1.214,1.016-2.186,2.245-2.154c1.215,0.025,2.179,1.029,2.154,2.244l-0.179,9.417
						c-0.755,41.415-1.253,68.775-20.6,120.167c-22.227,59.038-54.613,95.655-71.939,112.228
						C1938.412,916.256,1937.864,916.459,1937.318,916.459z"/>
					<path style="fill:#F7F1EB;" d="M1922.413,953.017h-78.92c-1.215,0-2.199-0.985-2.199-2.2c0-1.215,0.985-2.2,2.199-2.2h78.92
						c1.215,0,2.199,0.985,2.199,2.2C1924.612,952.032,1923.627,953.017,1922.413,953.017z"/>
					<path style="fill:#F7F1EB;" d="M1916.608,999.449h-67.311c-1.215,0-2.199-0.985-2.199-2.2s0.985-2.2,2.199-2.2h67.311
						c1.215,0,2.199,0.985,2.199,2.2S1917.823,999.449,1916.608,999.449z"/>
					<path style="fill:#F7F1EB;" d="M1899.197,1096.184h-34.422c-1.215,0-2.199-0.985-2.199-2.199s0.985-2.199,2.199-2.199h34.422
						c1.215,0,2.199,0.985,2.199,2.199S1900.411,1096.184,1899.197,1096.184z"/>
				</g>
			</g>
			<path style="fill:#FFFFFF;" d="M1836.958,688.783l-0.103-0.021c-15.649-3.174-27.892-15.384-31.108-31.025l0,0l-0.021,0.103
				c-3.174,15.649-15.384,27.892-31.025,31.108v0l0.103,0.021c15.649,3.174,27.892,15.384,31.108,31.025l0,0l0.021-0.103
				C1809.107,704.242,1821.317,691.999,1836.958,688.783L1836.958,688.783z"/>
			<path style="fill:#FFFFFF;" d="M1921.358,818.707l-0.043-0.009c-6.507-1.32-11.598-6.397-12.935-12.901l0,0l-0.009,0.043
				c-1.32,6.507-6.397,11.598-12.901,12.935l0,0l0.043,0.009c6.507,1.32,11.598,6.397,12.935,12.9l0,0l0.009-0.043
				C1909.777,825.135,1914.854,820.044,1921.358,818.707L1921.358,818.707z"/>
			<path style="fill:#FFFFFF;" d="M1976.498,710.606l-0.065-0.013c-9.849-1.997-17.553-9.682-19.577-19.525l0,0l-0.013,0.065
				c-1.998,9.849-9.682,17.554-19.525,19.577l0,0l0.065,0.013c9.849,1.997,17.553,9.682,19.577,19.525l0,0l0.013-0.065
				C1958.97,720.335,1966.655,712.63,1976.498,710.606L1976.498,710.606z"/>
		</g>
		<g>
			<path style="fill:#84524D;" d="M1749.564,1837.907c-0.116,0-0.229,0-0.345-0.001l-86.64-0.674
				c-11.617-0.09-22.503-4.7-30.651-12.981c-8.148-8.281-12.585-19.24-12.49-30.859l0.31-38.298
				c0.193-23.988,19.938-43.423,43.844-43.162l86.641,0.675c11.617,0.09,22.503,4.7,30.651,12.981
				c8.148,8.28,12.585,19.24,12.49,30.86l-0.309,38.298C1792.871,1818.615,1773.388,1837.906,1749.564,1837.907z M1663.248,1716.329
				c-21.418,0-38.929,17.34-39.102,38.8l-0.31,38.298c-0.085,10.445,3.903,20.296,11.226,27.739
				c7.325,7.443,17.109,11.586,27.551,11.667l86.641,0.674l0,0c0.103,0.001,0.207,0.001,0.309,0.001
				c21.417,0.001,38.929-17.341,39.103-38.8l0.309-38.298c0.085-10.445-3.903-20.296-11.226-27.739
				c-7.325-7.443-17.109-11.587-27.551-11.668l-86.64-0.674C1663.455,1716.329,1663.35,1716.329,1663.248,1716.329z"/>
			
				<rect x="1526.73" y="1723.55" transform="matrix(0.0078 -1 1 0.0078 -282.4944 3669.738)" style="fill:#84524D;" width="362.461" height="507.34"/>
			<path style="fill:#F7F1EB;" d="M1706.854,2002.477c-0.478,0-0.956-0.156-1.354-0.466l-221.606-173.076
				c-0.957-0.748-1.127-2.13-0.379-3.087c0.749-0.958,2.131-1.127,3.088-0.38l220.266,172.03l220.68-168.743
				c0.966-0.737,2.347-0.554,3.083,0.411c0.738,0.965,0.554,2.346-0.411,3.083l-222.03,169.775
				C1707.796,2002.327,1707.325,2002.477,1706.854,2002.477z"/>
			
				<rect x="1688.943" y="1960.486" transform="matrix(0.0078 -1 1 0.0078 -301.6621 3688.45)" style="fill:#F7F1EB;" width="37.729" height="71.498"/>
		</g>
		<g>
			<g>
				<g>
					<path style="fill:#FFFFFF;" d="M945.844,1589.444c-8.56,1.056-14.678,8.803-13.725,17.378l7.791,70.102
						c1.023,9.202,9.099,16.441,19.256,17.272c35.146,2.876,116.252,7.154,179.007-7.477c0,0-28.562-91.592-121.178-106.053
						L945.844,1589.444z"/>
					<path style="fill:#E2A18D;" d="M857.075,1163.882l75.67,431.755c2.678,15.281,15.096,26.998,30.511,28.69
						c12.249,1.344,27.669,1.073,43.932-4.077c14.856-4.705,24.735-18.786,24.249-34.368l-13.428-430.393L857.075,1163.882z"/>
				</g>
				<g>
					<path style="fill:#FFFFFF;" d="M536.724,1304.743c4.695-7.237,2.698-16.906-4.48-21.689l-58.68-39.105
						c-7.702-5.133-18.438-3.599-25.605,3.648c-24.8,25.078-80.224,84.469-109.372,141.958c0,0,88.488,37.008,159.109-24.655
						L536.724,1304.743z"/>
					<path style="fill:#E2A18D;" d="M741.054,1177.115l-114.532,144.546c-6.794,8.574-18.781,10.99-28.364,5.717l-67.986-37.41
						c-9.548-5.254-21.285-4.413-29.979,2.158c-14.763,11.16-39.144,39.273-22.022,67.568c1.301,2.15,2.98,4.052,4.862,5.716
						l67.069,59.287c55.797,49.323,140.43,46.305,192.575-6.866l195.133-198.973L741.054,1177.115z"/>
				</g>
				<path style="fill:#363E44;" d="M623.844,1317.854c0.938-5.047,76.432-254.126,76.432-254.126l313.523-38.691
					c0,0,65.298,172.822,87.394,273.871L623.844,1317.854z"/>
			</g>
			<g>
				<g>
					<path style="fill:#E2A18D;" d="M1042.482,747.097c0,0,109.778-87.814,147.964-114.514
						c40.105-28.041,103.397-63.6,108.256-54.679c2.767,5.081-4.862,11.717-26.434,28.094c1.919,0.263,7.532,2.497,9.327,7.632
						c2.655,7.598-2.893,11.429-3.22,11.997c0.658,0.036,8.127,0.852,10.766,5.638c2.971,5.39,1.375,10.365-1.588,14.18
						c1.629,0.141,8.437,1.883,10.74,6.605c2.993,6.14-1.181,12.444-5.848,15.606c-8.563,5.8-32.357,21.068-43.909,30.75
						c-22.733,19.052-94.385,97.55-134.517,116.398C1110.127,776.615,1042.482,747.097,1042.482,747.097z"/>
					<path style="fill:#363E44;" d="M1222.036,677.62c-0.445,0-0.894-0.135-1.282-0.415c-0.986-0.71-1.21-2.084-0.5-3.07
						c5.983-8.314,7.274-16.623,8.312-23.299c1.115-7.179,2.078-13.379,8.875-14.837c3.639-0.78,7.711-3.623,11.778-8.22
						c0.948-1.072,0.461-2.207,0.289-2.529c-0.176-0.329-0.849-1.387-2.314-1.191l-31.52,4.263c-1.194,0.162-2.311-0.68-2.474-1.885
						c-0.162-1.204,0.682-2.312,1.886-2.474l31.52-4.263c2.783-0.375,5.454,0.988,6.783,3.479c1.321,2.473,0.977,5.423-0.874,7.516
						c-4.761,5.382-9.522,8.614-14.152,9.606c-3.673,0.788-4.36,4.195-5.45,11.211c-1.05,6.763-2.49,16.025-9.088,25.194
						C1223.393,677.302,1222.72,677.619,1222.036,677.62z"/>
					<path style="fill:#363E44;" d="M1274.317,674.73c-0.703,0-1.394-0.337-1.82-0.962c-3.892-5.717-4.061-12.982-0.97-18.766
						c-5.185,2.093-11.191,0.444-14.564-4.116c-2.002-2.705-2.807-6.023-2.268-9.345c0.539-3.321,2.353-6.214,5.107-8.146
						l1.388-0.974c-2.617-0.66-4.977-2.328-6.419-4.82c-2.637-4.554-1.436-10.349,2.791-13.479l9.361-6.932
						c0.976-0.724,2.353-0.517,3.077,0.459c0.723,0.976,0.518,2.354-0.459,3.076l-9.361,6.932c-2.428,1.798-3.117,5.125-1.603,7.74
						c1.606,2.774,5.192,3.769,7.998,2.217l7.028-3.889c1.023-0.567,2.31-0.232,2.931,0.759c0.62,0.992,0.355,2.295-0.603,2.966
						l-13.603,9.546c-1.774,1.245-2.943,3.11-3.291,5.25c-0.347,2.141,0.172,4.28,1.462,6.023c2.291,3.094,6.46,4.111,9.918,2.414
						l11.205-5.5c1.006-0.496,2.227-0.15,2.83,0.802c0.599,0.952,0.384,2.202-0.498,2.899l-4.985,3.936
						c-5.621,4.438-6.866,12.552-2.834,18.472c0.683,1.004,0.424,2.372-0.58,3.056
						C1275.174,674.607,1274.744,674.73,1274.317,674.73z"/>
				</g>
				<g>
					<path style="fill:#E2A18D;" d="M638.198,760.242c0-0.003,0.003-0.005,0.001-0.007
						c-53.328-79.087-89.648-136.22-101.553-153.418c-1.247-1.801-3.433-4.99-7.291-8.209
						c-14.294-11.928-28.632-5.161-49.383-10.843c-23.546-6.447-33.155-23.412-38.288-19.873c-3.57,2.462-1.746,9.883,7.181,22.431
						c0.001,0.001-0.001,0.003-0.001,0.003c-7.879-8.755-19.081-20.161-23.905-15.791c-5.299,5.343,6.289,20.289,13.741,28.988
						c-9.02-10.529-16.966-13.428-19.048-10.322c-3.278,4.89,1.816,14.685,14.277,28.137c0,0,0,0.002-0.001,0.001
						c-11.198-6.885-14.94-6.885-16.112-3.69c-2.139,5.834,8.314,16.701,19.027,24.891c12.06,9.22,24.61,12.186,32.568,13.867
						c0.002,0,0.004,0.002,0.005,0.004c31.609,59.265,54.54,96.146,76.412,145.801C559.768,833.859,635.223,812.477,638.198,760.242
						z"/>
					<path style="fill:#E2A18D;" d="M497.79,597.418c-12.2-20.855-12.182-30.964-8.817-32.792
						c5.66-3.075,23.361,10.464,45.029,38.697C523.766,602.583,508.026,598.158,497.79,597.418z"/>
					<g>
						<path style="fill:#363E44;" d="M503.351,639.484c-0.757,0-1.494-0.391-1.902-1.092c-2.01-3.447-5.736-8.214-12.07-11.352
							c-8.967-4.443-17.609-2.734-20.907-1.794c-1.171,0.333-2.385-0.344-2.719-1.512c-0.333-1.168,0.345-2.385,1.512-2.718
							c3.792-1.081,13.722-3.042,24.067,2.082c7.312,3.623,11.604,9.111,13.918,13.078c0.612,1.049,0.258,2.396-0.792,3.008
							C504.108,639.387,503.727,639.484,503.351,639.484z"/>
						<path style="fill:#363E44;" d="M518.195,595.607c-0.203,0-0.408-0.028-0.612-0.087c-4.816-1.394-10.032-1.615-15.556-1.849
							c-2.691-0.114-5.476-0.232-8.413-0.484c-1.21-0.104-2.107-1.169-2.003-2.38c0.103-1.21,1.153-2.11,2.379-2.003
							c2.843,0.244,5.578,0.36,8.224,0.472c5.794,0.245,11.268,0.477,16.591,2.018c1.167,0.338,1.84,1.557,1.501,2.724
							C520.028,594.982,519.148,595.607,518.195,595.607z"/>
						<path style="fill:#363E44;" d="M468.004,603.338c-0.221,0-0.445-0.033-0.667-0.104c-2.932-0.931-5.789-2.138-8.49-3.588
							c-3.92-2.103-7.554-4.732-10.8-7.813c-0.881-0.836-0.917-2.229-0.081-3.109c0.837-0.881,2.23-0.917,3.109-0.081
							c2.962,2.811,6.276,5.209,9.851,7.127c2.463,1.322,5.068,2.422,7.742,3.271c1.158,0.368,1.798,1.604,1.431,2.762
							C469.802,602.74,468.936,603.338,468.004,603.338z"/>
						<path style="fill:#363E44;" d="M456.721,615.131c-0.221,0-0.446-0.033-0.667-0.104c-2.93-0.931-5.787-2.138-8.49-3.587
							c-3.921-2.104-7.554-4.732-10.8-7.813c-0.881-0.836-0.917-2.229-0.081-3.109c0.836-0.881,2.229-0.917,3.109-0.081
							c2.962,2.811,6.276,5.209,9.851,7.127c2.465,1.322,5.069,2.422,7.742,3.271c1.158,0.368,1.798,1.604,1.431,2.762
							C458.519,614.533,457.653,615.131,456.721,615.131z"/>
						<path style="fill:#363E44;" d="M452.709,634.58c-0.221,0-0.446-0.033-0.667-0.104c-2.932-0.931-5.789-2.138-8.49-3.587
							c-3.921-2.104-7.556-4.732-10.801-7.814c-0.881-0.836-0.917-2.229-0.081-3.109c0.836-0.882,2.23-0.917,3.109-0.081
							c2.962,2.811,6.276,5.209,9.852,7.128c2.463,1.321,5.068,2.422,7.742,3.271c1.158,0.368,1.798,1.604,1.431,2.762
							C454.507,633.982,453.641,634.58,452.709,634.58z"/>
					</g>
				</g>
				<g>
					<path style="fill:#363E44;" d="M989.767,1181.847c-1.014,0-1.926-0.705-2.148-1.737c-0.256-1.187,0.499-2.357,1.686-2.614
						c82.723-17.834,101.043-37.178,104.6-47.121c2.237-6.254-0.739-10.105-0.77-10.143c-0.755-0.951-0.597-2.335,0.354-3.09
						c0.949-0.756,2.333-0.599,3.091,0.354c0.186,0.234,4.518,5.83,1.466,14.361c-4.72,13.197-27.258,32.573-107.813,49.94
						C990.076,1181.83,989.921,1181.847,989.767,1181.847z"/>
					<g>
						<path style="fill:#FFFFFF;" d="M933.592,1070.22l63.407,210.957c0,0,54.973-67.119,67.115-114.13l-35.572-111.071
							L933.592,1070.22z"/>
						<path style="fill:#FFFFFF;" d="M914.909,1068.488l1.772,217.879c0,0-192.869-16.078-243.464-110.966l6.339-68.39
							L914.909,1068.488z"/>
					</g>
					<path style="fill:#ff6900;" d="M636.119,747.349l-91.542,63.156c8.03,16.842,24.009,44.599,53.662,69.471
						c39.723,33.318,81.637,42.712,101.011,45.788l-43.138,219.434c0,0,300.418-101.434,442.711-33.31l-63.394-224.017
						c52.084-33.157,72.602-47.367,135.734-108.943c-24.727-24.21-51.207-49.823-75.934-74.032
						c-90.682,64.071-171.534,90.068-221.313,101.75c-60.999,14.316-93.797,11.472-116.268,7.017
						C697.092,801.658,656.008,766.959,636.119,747.349z"/>
					<g>
						<path style="fill:#363E44;" d="M826.231,1014.376c-4.66,0-9.398-0.557-14.128-1.716c-15.972-3.912-29.454-14.22-36.99-28.279
							c-0.573-1.071-0.171-2.404,0.899-2.978c1.073-0.574,2.406-0.171,2.978,0.899c6.948,12.961,19.398,22.468,34.159,26.084
							c24.439,5.984,49.22-5.362,58.925-26.986c0.496-1.109,1.795-1.602,2.907-1.106c1.107,0.497,1.604,1.799,1.105,2.907
							C867.4,1002.559,847.683,1014.376,826.231,1014.376z"/>
						<path style="fill:#363E44;" d="M973.128,997.8c-12.94,0-25.486-4.269-35.467-12.255c-0.949-0.759-1.103-2.143-0.344-3.091
							c0.759-0.949,2.145-1.102,3.091-0.343c11.482,9.185,26.662,13.031,41.659,10.555c24.825-4.103,43.154-24.282,43.581-47.981
							c0.023-1.215,1.015-2.202,2.239-2.159c1.215,0.022,2.181,1.024,2.16,2.239c-0.466,25.822-20.343,47.792-47.263,52.242
							C979.563,997.538,976.333,997.8,973.128,997.8z"/>
					</g>
				</g>
			</g>
			<g>
				<g>
					<path style="fill:#84524D;" d="M958.227,402.096l-95.435,5.036l-42.223,31.31l21.282-30.204l-87.683,4.627l-34.799,27.443
						l19.9-26.657l-37.954,2.003c-94.346,59.221-20.634,85.112-21.679,98.392c-1.045,13.281-53.578,49.622-46.915,96.211
						c13.727,95.989,159.291,88.308,159.291,88.308l2.315-18.495c-18.379-12.326-58.687-48.748,10.309-88.458
						c68.995-39.71,27.785-62.339,17.478-102.215C811.804,449.521,958.227,402.096,958.227,402.096z"/>
					<g>
						<g>
							<path style="fill:#E2A18D;" d="M895.374,751.959c-8.589,16.738-60.656,10.46-60.656,10.46l-45.886-34.596
								c-12.194-23.49-3.044-52.42,20.437-64.618c23.481-12.199,52.4-3.045,64.594,20.444
								C873.863,683.649,904.123,734.911,895.374,751.959z"/>
							<polygon style="fill:#E2A18D;" points="823.899,839.597 879.435,820.964 854.902,693.092 797.892,704.038 							"/>
							<path style="fill:#E2A18D;" d="M874.783,697.37c0,0,18.413,6.304,19.492,9.933c1.287,4.332-10.749,13.636-10.749,13.636
								S875.116,697.236,874.783,697.37z"/>
						</g>
						<g>
							<g>
								<path style="fill:#FFFFFF;" d="M835.47,715.483c0,0,5.13-7.527,13.71-11.984c1.826-0.948,5.968,15.454,3.805,15.527
									C843.478,719.346,835.47,715.483,835.47,715.483z"/>
								<g>
									<defs>
										<path id="SVGID_1_" d="M835.47,715.483c0,0,7.545-11.071,19.639-14.31c12.095-3.239,24.159,2.581,24.159,2.581
											s-7.544,11.071-19.639,14.31C847.535,721.303,835.47,715.483,835.47,715.483z"/>
									</defs>
									<clipPath id="SVGID_00000165937616258763798350000003620998490158029197_">
										<use xlink:href="#SVGID_1_"  style="overflow:visible;"/>
									</clipPath>
									<path style="clip-path:url(#SVGID_00000165937616258763798350000003620998490158029197_);fill:#363E44;" d="
										M849.348,702.934c2.728-8.625,11.929-13.405,20.55-10.676c8.622,2.729,13.4,11.933,10.672,20.558
										c-2.728,8.625-11.929,13.405-20.551,10.676C851.399,720.763,846.62,711.559,849.348,702.934z"/>
								</g>
							</g>
							<path style="fill:#363E44;" d="M873.734,736.726c-0.283,0-0.567-0.014-0.853-0.041c-3.353-0.325-6.29-2.582-7.485-5.75
								c-0.429-1.137,0.145-2.406,1.281-2.834c1.136-0.427,2.407,0.146,2.834,1.282c0.608,1.611,2.096,2.758,3.794,2.923
								c1.76,0.172,3.474-0.721,4.363-2.273c0.605-1.054,1.945-1.42,3.003-0.814c1.054,0.604,1.418,1.948,0.814,3.002
								C879.881,735.019,876.903,736.726,873.734,736.726z"/>
							<path style="fill:#363E44;" d="M856.238,766.52c-11.348,0-20.71-1.101-21.402-1.184c-1.206-0.146-2.065-1.241-1.92-2.447
								c0.144-1.205,1.235-2.066,2.446-1.921c0.298,0.036,30.016,3.524,47.536-1.95c1.158-0.364,2.394,0.284,2.756,1.443
								c0.362,1.159-0.284,2.393-1.443,2.755C875.957,765.796,865.444,766.52,856.238,766.52z"/>
						</g>
						<g>
							<path style="fill:#84524D;" d="M791.954,756.858c-14.669-3.867-24.864-34.761-20.496-56.639
								c5.632-28.206,33.539-49.567,58.881-52.241c6.23-0.657,20.812-0.343,27.14,7.507c11.852,14.705-5.887,50.174-13.286,61.155
								C832.901,733.4,808.072,761.107,791.954,756.858z"/>
							<path style="fill:#84524D;" d="M789.649,759.092c-1.248,0-2.5-0.03-3.759-0.09c-1.214-0.058-2.15-1.089-2.092-2.302
								c0.059-1.213,1.094-2.159,2.303-2.092c27.79,1.325,53.038-13.019,64.365-36.549c12.806-26.602,1.375-52.543-1.047-57.473
								c-0.536-1.09-0.086-2.408,1.004-2.944c1.091-0.536,2.408-0.086,2.944,1.004c2.58,5.251,14.752,32.884,1.062,61.321
								C842.848,744.023,817.693,759.092,789.649,759.092z"/>
						</g>
					</g>
				</g>
				<g>
					<polygon style="fill:#E6D0BE;" points="840.51,838.322 873.435,874.201 879.624,827.63 862.151,803.552 861.709,828.575 
						851.337,808.082 					"/>
					<polygon style="fill:#FFFFFF;" points="794.39,816.488 808.394,792.49 851.337,808.082 844.757,863.133 					"/>
					<polygon style="fill:#FFFFFF;" points="862.151,803.552 882.195,784.36 903.497,798.347 885.8,852.73 					"/>
				</g>
			</g>
		</g>
		<g>
			<path style="fill:#FFFFFF;" d="M1137.425,524.083l-0.15-0.031c-22.886-4.642-40.791-22.498-45.494-45.372l0,0l-0.03,0.15
				c-4.642,22.886-22.498,40.79-45.372,45.494l0,0l0.15,0.031c22.886,4.642,40.79,22.498,45.494,45.372v0l0.03-0.15
				C1096.695,546.691,1114.552,528.786,1137.425,524.083L1137.425,524.083z"/>
			<path style="fill:#FFFFFF;" d="M1364.29,447.029l-0.095-0.019c-14.403-2.921-25.671-14.159-28.63-28.554v0l-0.019,0.095
				c-2.921,14.403-14.159,25.671-28.554,28.63l0,0l0.095,0.019c14.403,2.921,25.671,14.159,28.63,28.554l0,0l0.019-0.095
				C1338.657,461.256,1349.895,449.988,1364.29,447.029L1364.29,447.029z"/>
			<path style="fill:#FFFFFF;" d="M1343.185,852.555l-0.218-0.044c-33.259-6.745-59.278-32.695-66.113-65.935v0l-0.044,0.218
				c-6.745,33.259-32.695,59.278-65.935,66.113h0l0.219,0.044c33.259,6.745,59.278,32.695,66.113,65.935v0l0.044-0.218
				C1283.995,885.409,1309.945,859.389,1343.185,852.555L1343.185,852.555z"/>
			<path style="fill:#FFFFFF;" d="M579.099,1049.871l-0.169-0.034c-25.756-5.224-45.905-25.319-51.198-51.061v0l-0.034,0.169
				c-5.224,25.756-25.319,45.905-51.061,51.198h0l0.169,0.034c25.756,5.224,45.905,25.319,51.198,51.06v0l0.034-0.169
				C533.262,1075.314,553.357,1055.164,579.099,1049.871L579.099,1049.871z"/>
		</g>
	</g>
</g>
</svg>
