<?xml version="1.0" encoding="utf-8"?>
<!-- Generator: Adobe Illustrator 27.5.0, SVG Export Plug-In . SVG Version: 6.00 Build 0)  -->
<svg version="1.1" xmlns="http://www.w3.org/2000/svg" xmlns:xlink="http://www.w3.org/1999/xlink" x="0px" y="0px"
	 viewBox="0 0 2500 2500" style="enable-background:new 0 0 2500 2500;" xml:space="preserve">
-
<g id="Illustration">
	<g id="Enterprise_architecture_1_">
		<circle style="fill:transparent;" cx="1250" cy="1250" r="915"/>
		<g>
			<g>
				<path style="fill:#FFFFFF;" d="M1616.263,1500.614l-22.453,11.225c-7.488-9.944-15.683-19.158-24.471-27.617l13.817-20.937
					l-70.929-46.839l-13.848,20.985c-11.335-4.797-23.03-8.698-34.974-11.665l1.497-25.104l-84.823-5.11l-1.494,25.048
					c-12.101,1.491-24.18,3.944-36.131,7.404l-11.237-22.462l-75.989,37.988l11.237,22.462c-9.939,7.483-19.148,15.673-27.6,24.456
					l-20.944-13.831l-46.793,70.907l20.991,13.862c-4.79,11.333-8.684,23.027-11.643,34.97l-25.104-1.513l-5.059,84.827
					l25.047,1.509c1.499,12.103,3.958,24.184,7.425,36.139l-22.453,11.225l38.03,76.018l22.453-11.225
					c7.488,9.944,15.683,19.158,24.471,27.617l-13.817,20.937l70.929,46.839l13.849-20.985c11.335,4.797,23.03,8.698,34.974,11.665
					l-1.497,25.104l84.824,5.11l1.494-25.048c12.101-1.491,24.18-3.944,36.131-7.404l11.237,22.461l75.989-37.988l-11.237-22.462
					c9.939-7.483,19.148-15.673,27.6-24.457l20.944,13.831l46.793-70.908l-20.991-13.862c4.79-11.333,8.684-23.027,11.643-34.97
					l25.103,1.512l5.059-84.827l-25.047-1.509c-1.499-12.103-3.958-24.184-7.425-36.138l22.453-11.225L1616.263,1500.614z
					 M1570.528,1641.419c4.434,43.083-9.954,86.296-39.325,118.103c-99.794,108.072-272.04,50.62-287.109-95.766
					c-4.435-43.083,9.954-86.297,39.325-118.105C1383.215,1437.579,1555.461,1495.031,1570.528,1641.419z"/>
			</g>
			<path style="fill:#F2E6DC;" d="M1407.724,1839.464c-68.614,0.003-134.793-37.889-167.533-103.331
				c-20.15-40.278-25.097-86.448-13.926-130.003c11.059-43.123,37.096-80.893,73.313-106.352c0.452-0.318,1.075-0.208,1.394,0.243
				c0.317,0.452,0.209,1.076-0.243,1.393c-74.116,52.102-99.372,152.625-58.748,233.825
				c32.387,64.736,97.866,102.223,165.74,102.226c27.745,0.001,55.883-6.26,82.335-19.484
				c75.326-37.656,115.685-121.429,98.145-203.721c-0.114-0.54,0.229-1.071,0.771-1.187c0.531-0.118,1.071,0.229,1.187,0.77
				c17.729,83.183-23.066,167.863-99.207,205.927C1464.217,1833.133,1435.763,1839.463,1407.724,1839.464z"/>
		</g>
		<g>
			<g>
				<path style="fill:#363E44;" d="M2135.087,1310.739h-972.042c-0.553,0-1-0.448-1-1V572.972c0-0.552,0.447-1,1-1h972.042
					c0.552,0,1,0.448,1,1v736.767C2136.087,1310.291,2135.639,1310.739,2135.087,1310.739z M1164.045,1308.739h970.042V573.972
					h-970.042V1308.739z"/>
				
					<rect x="1340.72" y="456.291" transform="matrix(-1.836970e-16 1 -1 -1.836970e-16 2560.8804 -737.2509)" style="fill:#FFFFFF;" width="616.691" height="911.048"/>
				<path style="fill:#FFFFFF;" d="M1667.363,1261.329c0,10.105-8.192,18.297-18.297,18.297c-10.105,0-18.297-8.192-18.297-18.297
					c0-10.105,8.192-18.297,18.297-18.297C1659.171,1243.032,1667.363,1251.224,1667.363,1261.329z"/>
				<path style="fill:#E6D0BE;" d="M1751.386,1324.343h-28.778c0,21.587-17.5,39.088-39.087,39.088h-68.911
					c-21.587,0-39.087-17.5-39.087-39.088h-28.777l-28.778,152.934v12.79h262.197v-12.79L1751.386,1324.343z"/>
				<path style="fill:#E6D0BE;" d="M1780.164,1507.055h-262.197c-0.553,0-1-0.448-1-1s0.447-1,1-1h262.197c0.553,0,1,0.448,1,1
					S1780.717,1507.055,1780.164,1507.055z"/>
				
					<rect x="1552.207" y="667.778" transform="matrix(-1.836970e-16 1 -1 -1.836970e-16 2772.3674 -525.7637)" style="opacity:0.4;fill:#FFFFFF;" width="193.717" height="911.048"/>
				<path style="fill:#FFFFFF;" d="M1821.746,1119.809c0,25.729-20.857,46.587-46.587,46.587h-252.187
					c-25.729,0-46.587-20.858-46.587-46.587v-5.569c0-25.729,20.858-46.587,46.587-46.587h252.187
					c25.729,0,46.587,20.858,46.587,46.587V1119.809z"/>
			</g>
			<g>
				<polygon style="fill:#363E44;" points="1520.774,1217.821 1883.771,1217.821 1883.771,1133.775 1558.711,1133.775 				"/>
				<g>
					<polygon style="fill:#84524D;" points="2058.867,1011.971 1857.462,928.272 1932.397,787.765 2124.754,917.124 					"/>
					<polygon style="fill:#84524D;" points="1332.65,904.278 1554.777,891.734 1545.756,732.749 1316.864,769.395 					"/>
					<g>
						<path style="fill:#84524D;" d="M1393.722,883.856c-45.367-136.097-82.792-231.082-99.806-292.326
							c-7.636-27.492-10.035-56.471-30.904-74.287c-9.253-7.899-20.894-14.573-26-7.201c-7.974,11.513,19.301,34.348,12.544,43.552
							c-6.79,9.247-39.442-5.56-40.133-19.055c-0.558-10.891,25.684-10.233,22.162-22.664c-2.41-8.506-17.29-7.752-27.267-5.406
							c-3.167,0.745-16.453,3.869-22.682,17.013c-6.591,13.904,0.398,27.028,1.132,28.353c-8.633-1.361-16.626,2.236-19.278,7.94
							c-3.539,7.615,1.841,20.282,14.742,23.817c-1.665-0.144-14.026-1.099-17.012,4.536c-2.927,5.526,3.328,17.081,18.146,26.086
							c-9.868-0.331-16.466,2.746-17.578,6.236c-3.121,9.783,8.932,24.669,48.2,44.8c4.729,19.936,20.658,100.304,32.895,162.701
							c13.212,67.371,92.067,98.964,147.469,58.417C1391.47,885.55,1392.593,884.713,1393.722,883.856z"/>
						<g>
							<path style="fill:#EFBC73;" d="M1305.114,418.629c0-42.792-35.515-77.288-78.677-75.621
								c-38.475,1.486-70.106,32.297-72.526,70.725c-1.873,29.74,13.451,56.061,36.975,70.017l1.356,23.692
								c1.129,19.716,17.446,35.126,37.194,35.126s36.066-15.41,37.194-35.126l1.356-23.692
								C1290.209,470.565,1305.114,446.343,1305.114,418.629z"/>
							<path style="fill:#363E44;" d="M1229.435,564.504c-15.447,0-27.969-12.522-27.969-27.968v-8.188h55.937v8.188
								C1257.403,551.982,1244.881,564.504,1229.435,564.504z"/>
							<path style="fill:#363E44;" d="M1248.355,520.535c-0.04,0-0.081-0.003-0.122-0.007c-0.549-0.067-0.938-0.566-0.871-1.114
								l11.823-96.742l-15.298,8.669l-13.614-10.346l-13.555,10.843l-17.024-6.708l14.004,94.182
								c0.081,0.546-0.296,1.055-0.842,1.136c-0.543,0.085-1.055-0.296-1.137-0.842L1197.206,422l19.168,7.551l13.868-11.093
								l13.806,10.492l17.604-9.976l-12.306,100.682C1249.285,520.164,1248.854,520.535,1248.355,520.535z"/>
						</g>
						<path style="fill:#363E44;" d="M1254.983,657.722c-0.438,0-0.84-0.291-0.963-0.734c-1.271-4.593-4.675-13.33-13.199-20.242
							c-9.639-7.814-20.129-8.862-25.52-8.799c-0.004,0-0.009,0-0.013,0c-0.547,0-0.993-0.439-1-0.987
							c-0.007-0.552,0.436-1.006,0.987-1.013c5.676-0.074,16.677,1.035,26.805,9.245c8.957,7.263,12.532,16.439,13.867,21.263
							c0.147,0.532-0.165,1.083-0.697,1.23C1255.162,657.71,1255.072,657.722,1254.983,657.722z"/>
						<path style="fill:#84524D;" d="M1190.844,512.427c0,0,22.023-20.429,27.085-6.853c4.089,10.964-13.397,22.095-16.333,33.661
							C1196.624,558.822,1190.844,512.427,1190.844,512.427z"/>
						<path style="fill:#363E44;" d="M1188.724,639.313c-0.533,0-0.977-0.422-0.998-0.96c-0.022-0.552,0.407-1.017,0.959-1.039
							c15.102-0.61,24.648-6.3,24.844-10.11c0.179-3.471-7.443-9.775-21.691-12.094c-0.614-0.101-1.035-0.64-0.979-1.254
							c0.057-0.613,0.556-1.061,1.188-1.053c14.843,0.305,24.604-3.761,25.471-7.87c1.053-4.995-9.229-14.009-25.664-18.959
							c-0.586-0.176-0.936-0.756-0.815-1.348c0.121-0.59,0.671-0.987,1.272-0.918c14.375,1.566,25.726-2.814,26.917-7.725
							c1.277-5.274-7.969-15.821-25.366-20.345c-0.534-0.139-0.854-0.685-0.716-1.219c0.14-0.535,0.687-0.855,1.22-0.716
							c17.917,4.659,28.508,15.73,26.806,22.752c-1.385,5.712-11.163,9.574-23.004,9.574c-0.007,0-0.016,0-0.023,0
							c13.363,5.217,22.594,13.325,21.331,19.317c-1.021,4.848-9.309,8.428-20.621,9.279c9.969,2.852,16.918,7.924,16.674,12.682
							c-0.311,6.036-12.315,11.422-26.762,12.006C1188.751,639.313,1188.737,639.313,1188.724,639.313z"/>
						<path style="fill:#84524D;" d="M1264.706,518.287c0,0-22.023-20.429-27.086-6.853c-4.089,10.964,13.397,22.095,16.333,33.661
							C1258.927,564.682,1264.706,518.287,1264.706,518.287z"/>
					</g>
					<g>
						<path style="fill:#EFBC73;" d="M1994.595,823.693c-38.881-29.137-138.14-103.306-285.748-115.773
							c-115.517-9.757-239.814,13.922-294.612,28.58c1.336,58.633,4.01,120.648,5.346,179.281
							c26.731,3.382,40.764,5.074,68.739,8.628v223.255l422.28,0.265l0.366-169.637l47.004,14.729L1994.595,823.693z"/>
						<path style="fill:#363E44;" d="M1488.015,925.013c-0.55,0-0.997-0.444-1-0.994c-0.098-17.359-0.27-26.106-0.487-37.181
							c-0.104-5.293-0.218-11.054-0.336-18.474c-0.009-0.552,0.432-1.007,0.984-1.016c0.535-0.046,1.007,0.432,1.016,0.984
							c0.118,7.417,0.231,13.176,0.335,18.467c0.218,11.082,0.391,19.836,0.488,37.209c0.003,0.552-0.442,1.003-0.994,1.006
							C1488.019,925.013,1488.017,925.013,1488.015,925.013z"/>
						<path style="fill:#363E44;" d="M1914.842,979.929c-0.097,0-0.196-0.014-0.294-0.044c-19.354-5.95-29.146-8.851-41.544-12.523
							c-5.912-1.751-12.347-3.657-20.621-6.132c-0.528-0.158-0.829-0.716-0.671-1.245c0.158-0.529,0.72-0.831,1.244-0.671
							c8.272,2.475,14.705,4.38,20.615,6.131c12.404,3.674,22.201,6.576,41.564,12.529c0.527,0.162,0.824,0.722,0.662,1.25
							C1915.665,979.653,1915.27,979.929,1914.842,979.929z"/>
					</g>
					<g>
						<path style="fill:#84524D;" d="M2047.62,1006.873c0,0-34.829-205.044-38.568-230.937c-0.391-2.711-1.104-7.494-0.311-13.729
							c2.937-23.102,21.835-29.121,36.008-52.003c16.081-25.965,10.436-49.689,18.153-50.821
							c5.368-0.787,10.017,7.563,12.525,26.661c-0.238-14.729,0.314-34.718,8.455-34.826c9.406,0.378,11.518,23.939,12.1,38.255
							c-0.704-17.328,4.106-26.752,8.66-25.681c7.167,1.686,10.842,14.996,10.884,37.932c4.396-15.846,7.825-19.034,11.619-17.106
							c6.928,3.52,6.607,22.378,3.768,39.006c-3.196,18.719-12.168,32.127-18.027,40.447l-0.001,0.008
							c21.515,81.205,17.628,81.146,36.964,146.194C2168.219,972.077,2122.685,1045.88,2047.62,1006.873z"/>
						<path style="fill:#84524D;" d="M2036.644,734.224c-6.585-29.493-15.21-38.735-19.85-37.543
							c-7.804,2.006-12.49,29.486-8.296,73.802C2017.245,761.085,2027.897,743.623,2036.644,734.224z"/>
						<g>
							<path style="fill:#363E44;" d="M2065.503,776.47c-0.457,0-0.87-0.316-0.975-0.781c-1.206-5.371-1.918-13.691,1.541-22.83
								c4.896-12.933,15.222-19.323,19.434-21.47c0.492-0.253,1.094-0.055,1.345,0.437c0.251,0.492,0.056,1.094-0.437,1.345
								c-4.005,2.042-13.822,8.116-18.471,20.397c-3.284,8.676-2.607,16.58-1.461,21.684c0.121,0.539-0.218,1.074-0.757,1.195
								C2065.649,776.462,2065.575,776.47,2065.503,776.47z"/>
							<path style="fill:#363E44;" d="M2014.534,748.935c-0.175,0-0.353-0.046-0.514-0.143c-0.474-0.284-0.627-0.898-0.343-1.372
								c3.457-5.767,8.203-10.57,13.228-15.656c2.341-2.369,4.761-4.818,7.182-7.49c0.371-0.41,1.002-0.44,1.413-0.07
								c0.409,0.371,0.44,1.003,0.069,1.413c-2.45,2.704-4.886,5.169-7.241,7.553c-4.938,4.998-9.602,9.718-12.936,15.279
								C2015.205,748.762,2014.874,748.935,2014.534,748.935z"/>
							<path style="fill:#363E44;" d="M2067.101,713.253c-0.167,0-0.336-0.042-0.491-0.13c-0.48-0.272-0.65-0.882-0.378-1.363
								c1.778-3.147,3.272-6.473,4.438-9.886c1.693-4.954,2.719-10.127,3.046-15.377c0.034-0.551,0.48-0.973,1.061-0.936
								c0.551,0.034,0.97,0.509,0.936,1.06c-0.339,5.428-1.398,10.778-3.149,15.9c-1.206,3.53-2.751,6.969-4.591,10.224
								C2067.788,713.07,2067.449,713.253,2067.101,713.253z"/>
							<path style="fill:#363E44;" d="M2087.481,714.44c-0.167,0-0.336-0.042-0.491-0.13c-0.48-0.271-0.65-0.882-0.379-1.363
								c1.781-3.152,3.274-6.478,4.439-9.887c1.692-4.949,2.717-10.123,3.046-15.378c0.034-0.552,0.524-0.97,1.061-0.935
								c0.551,0.034,0.97,0.509,0.936,1.06c-0.34,5.432-1.399,10.782-3.149,15.899c-1.204,3.524-2.749,6.964-4.59,10.224
								C2088.169,714.257,2087.83,714.44,2087.481,714.44z"/>
							<path style="fill:#363E44;" d="M2107.722,728.833c-0.167,0-0.336-0.042-0.491-0.13c-0.48-0.272-0.65-0.882-0.378-1.363
								c1.778-3.147,3.272-6.474,4.439-9.887c1.692-4.949,2.717-10.123,3.046-15.378c0.034-0.552,0.52-0.965,1.061-0.936
								c0.551,0.034,0.97,0.509,0.936,1.061c-0.34,5.433-1.399,10.782-3.149,15.9c-1.207,3.53-2.752,6.969-4.592,10.224
								C2108.409,728.65,2108.07,728.833,2107.722,728.833z"/>
						</g>
						<path style="fill:#363E44;" d="M2031.898,912.654c-0.483,0-0.908-0.351-0.986-0.844l-10.114-63.775
							c-0.087-0.546,0.285-1.058,0.831-1.144c0.546-0.09,1.058,0.286,1.144,0.831l10.114,63.775
							c0.087,0.546-0.285,1.058-0.831,1.144C2032.003,912.649,2031.95,912.654,2031.898,912.654z"/>
					</g>
					<g>
						<g>
							<path style="fill:#ff6900;" d="M2145.978,623.048h-10.753c-0.963-5.242-2.336-10.339-4.082-15.26l9.306-5.373l-18.195-31.515
								l-9.327,5.385c-3.423-4.007-7.156-7.74-11.163-11.162l5.385-9.327l-31.515-18.195l-5.373,9.306
								c-4.922-1.745-10.019-3.119-15.26-4.082v-10.753h-36.39v10.753c-5.242,0.963-10.339,2.336-15.26,4.082l-5.373-9.306
								l-31.515,18.195l5.385,9.327c-4.007,3.423-7.74,7.156-11.163,11.162l-9.327-5.385l-18.195,31.515l9.306,5.373
								c-1.745,4.921-3.119,10.019-4.082,15.26h-10.753v36.39h10.753c0.963,5.242,2.336,10.339,4.082,15.26l-9.306,5.373
								l18.195,31.515l9.327-5.385c3.423,4.007,7.156,7.74,11.163,11.162l-5.385,9.327l31.515,18.195l5.373-9.306
								c4.922,1.746,10.019,3.119,15.26,4.082v10.753l36.39,0v-10.753c5.242-0.963,10.339-2.336,15.26-4.082l5.372,9.306
								l31.515-18.195l-5.385-9.327c4.007-3.423,7.74-7.156,11.163-11.162l9.327,5.385l18.195-31.515l-9.306-5.373
								c1.745-4.921,3.119-10.019,4.082-15.26h10.753V623.048z M2088.98,663.002c-5.291,13.996-16.42,25.125-30.417,30.416
								c-47.556,17.977-91.91-26.378-73.932-73.934c5.291-13.996,16.421-25.125,30.417-30.416
								C2062.605,571.091,2106.959,615.447,2088.98,663.002z"/>
						</g>
						<path style="fill:#F2E6DC;" d="M2036.807,721.847c-44.445,0-80.604-36.159-80.604-80.604c0-19.42,7.004-38.18,19.721-52.825
							c12.59-14.499,29.926-24.046,48.814-26.882c0.546-0.083,1.056,0.295,1.138,0.841c0.082,0.546-0.295,1.055-0.841,1.137
							c-38.101,5.721-66.832,39.138-66.832,77.729c0,43.342,35.262,78.604,78.604,78.604c35.813,0,67.102-24.178,76.088-58.796
							c0.139-0.534,0.686-0.855,1.219-0.717c0.535,0.139,0.855,0.685,0.717,1.219
							C2105.615,697.054,2073.53,721.847,2036.807,721.847z"/>
					</g>
				</g>
				<g>
					<path style="fill:#84524D;" d="M1751.022,585.505c-8.732,11.784-7.681,27.361,2.348,34.793
						c10.029,7.432,25.238,3.903,33.97-7.881c8.732-11.784,7.68-27.361-2.348-34.792
						C1774.962,570.193,1759.754,573.721,1751.022,585.505z"/>
					<path style="fill:#84524D;" d="M1643.211,580.019c7.491,12.61,4.863,28-5.868,34.375c-10.732,6.375-25.504,1.32-32.994-11.289
						c-7.49-12.61-4.863-28,5.869-34.375C1620.949,562.355,1635.72,567.409,1643.211,580.019z"/>
					
						<rect x="1630.988" y="487.12" transform="matrix(-0.9987 -0.0518 0.0518 -0.9987 3367.2019 1173.3868)" style="fill:#363E44;" width="135.665" height="111.798"/>
					<path style="fill:#84524D;" d="M1693.647,763.115l17.484-0.802c21.361-0.979,37.884-19.091,36.904-40.452l-4.8-104.669
						l-94.841,4.35l4.801,104.669C1654.175,747.572,1672.285,764.094,1693.647,763.115z"/>
					<path style="fill:#84524D;" d="M1630.898,592.65c-2.151,42.273,25.269,78.026,61.246,79.857
						c35.977,1.831,66.886-30.954,69.037-73.226c2.151-42.273-25.27-66.416-61.246-68.247
						C1663.959,529.202,1633.05,550.377,1630.898,592.65z"/>
					<path style="fill:#363E44;" d="M1695.037,673.58c-0.979,0-1.959-0.025-2.943-0.075c-17.697-0.901-33.915-9.833-45.664-25.153
						c-0.336-0.438-0.253-1.066,0.186-1.402c0.44-0.336,1.066-0.252,1.402,0.185c11.386,14.846,27.075,23.502,44.178,24.373
						c17.118,0.875,33.591-6.148,46.425-19.762c0.378-0.402,1.014-0.42,1.413-0.042c0.402,0.379,0.421,1.012,0.042,1.414
						C1727.568,666.384,1711.673,673.58,1695.037,673.58z"/>
					<path style="fill:#363E44;" d="M1630.91,614.176c-0.475,0-0.896-0.338-0.982-0.821c-1.231-6.768-1.674-13.751-1.318-20.756
						c0.318-6.245,1.27-12.426,2.827-18.372c0.141-0.535,0.691-0.854,1.222-0.714c0.534,0.14,0.854,0.687,0.714,1.221
						c-1.524,5.814-2.454,11.859-2.765,17.967c-0.349,6.851,0.085,13.68,1.287,20.297c0.1,0.543-0.261,1.064-0.805,1.163
						C1631.029,614.171,1630.97,614.176,1630.91,614.176z"/>
					<path style="fill:#363E44;" d="M1759.19,620.23c-0.091,0-0.184-0.012-0.274-0.039c-0.531-0.151-0.84-0.704-0.688-1.236
						c1.812-6.362,2.904-12.999,3.245-19.727c0.317-6.225-0.012-12.449-0.979-18.5c-0.087-0.545,0.284-1.058,0.829-1.146
						c0.555-0.088,1.06,0.285,1.146,0.83c0.989,6.189,1.327,12.554,1.003,18.918c-0.35,6.878-1.466,13.665-3.319,20.173
						C1760.026,619.943,1759.625,620.23,1759.19,620.23z"/>
					<g>
						<path style="fill:#FFFFFF;" d="M1737.004,600.219c-1.186,1.439-5.211,1.769-6.922,2.165c-2.794,0.648-6.567,1.778-9.316,0.609
							c-0.531-0.224-1.095-0.017-1.315,0.428c-7.421-1.004-12.958-3.953-12.958-3.953s2.54-3.416,6.945-6.897
							c0.265,0.272,0.663,0.393,1.084,0.126c3.201-2.032,5.644-4.146,9.373-5.402c4.673-1.575,9.701-2.014,14.556-1.143
							c0.374,0.067,0.832-0.067,1.047-0.402c6.691,1.158,11.533,3.731,11.533,3.731s-4.857,6.502-12.77,10.709
							C1737.925,599.851,1737.395,599.745,1737.004,600.219z"/>
						<g>
							<defs>
								<path id="SVGID_1_" d="M1706.493,599.468c0,0,11.895,6.349,24.193,3.591c12.298-2.758,20.344-13.578,20.344-13.578
									s-11.895-6.349-24.194-3.592C1714.538,588.648,1706.493,599.468,1706.493,599.468z"/>
							</defs>
							<clipPath id="SVGID_00000155834629868016519730000001086400444372161950_">
								<use xlink:href="#SVGID_1_"  style="overflow:visible;"/>
							</clipPath>
							<path style="clip-path:url(#SVGID_00000155834629868016519730000001086400444372161950_);fill:#363E44;" d="
								M1717.474,601.726c5.425,5.391,14.194,5.363,19.585-0.062c5.391-5.425,5.363-14.194-0.062-19.585
								c-5.425-5.391-14.194-5.363-19.585,0.062C1712.021,587.567,1712.049,596.335,1717.474,601.726z"/>
						</g>
					</g>
					<g>
						<path style="fill:#FFFFFF;" d="M1651.966,580.983c2.962,2.92,9.073,4.274,12.811,5.481c3.594,1.159,8.196,3.757,12.13,3.092
							c4.974,4.63,7.624,9.436,7.624,9.436s-6.974,2.57-15.398,2.085c-2.922-0.167-4.983-4.183-8.023-5.321
							c-3.722-1.392-7.952-0.042-10.58-2.304c-5.707-4.912-8.747-10.455-8.747-10.455S1646.068,581.433,1651.966,580.983z"/>
						<g>
							<defs>
								<path id="SVGID_00000171712750249330593010000001882501307240577715_" d="M1684.531,598.993c0,0-12.653,4.66-24.457,0.243
									c-11.805-4.417-18.292-16.237-18.292-16.237s12.653-4.66,24.457-0.243C1678.044,587.173,1684.531,598.993,1684.531,598.993z
									"/>
							</defs>
							<clipPath id="SVGID_00000130624999755540720670000003320439238456206775_">
								<use xlink:href="#SVGID_00000171712750249330593010000001882501307240577715_"  style="overflow:visible;"/>
							</clipPath>
							<path style="clip-path:url(#SVGID_00000130624999755540720670000003320439238456206775_);fill:#363E44;" d="
								M1671.679,599.616c-6.113,4.597-14.795,3.368-19.392-2.744c-4.597-6.113-3.368-14.795,2.745-19.392
								c6.113-4.597,14.795-3.368,19.392,2.745C1679.021,586.338,1677.792,595.02,1671.679,599.616z"/>
						</g>
					</g>
					<path style="fill:#363E44;" d="M1691.515,621.014c-0.213,0-0.427-0.068-0.609-0.208c-2.34-1.802-3.546-3.697-3.583-5.635
						c-0.034-1.719,0.845-2.941,1.694-4.122c0.757-1.053,1.54-2.142,1.873-3.748c0.303-1.46,0.166-3.033-0.408-4.676
						c-0.182-0.521,0.093-1.092,0.614-1.274c0.525-0.182,1.092,0.093,1.274,0.614c0.694,1.99,0.855,3.921,0.479,5.742
						c-0.42,2.022-1.412,3.401-2.209,4.509c-0.748,1.04-1.339,1.862-1.317,2.915c0.024,1.301,0.968,2.676,2.804,4.089
						c0.438,0.337,0.519,0.965,0.183,1.402C1692.111,620.879,1691.814,621.014,1691.515,621.014z"/>
					<path style="fill:#363E44;" d="M1701.652,635.864c-0.552,0-1.046-0.023-1.469-0.056c-0.551-0.043-0.962-0.524-0.919-1.075
						c0.044-0.551,0.534-0.959,1.075-0.919c2.151,0.169,6.383,0.057,10.475-2.588c2.139-1.382,3.964-3.295,5.279-5.532
						c0.279-0.476,0.894-0.635,1.369-0.355c0.477,0.28,0.635,0.893,0.355,1.369c-1.473,2.505-3.52,4.648-5.918,6.198
						C1708.12,635.349,1704.245,635.864,1701.652,635.864z"/>
				</g>
			</g>
		</g>
		<g>
			<g>
				<g>
					
						<rect x="337.574" y="1303.097" transform="matrix(-1 -1.224647e-16 1.224647e-16 -1 1668.7991 3359.3396)" style="fill:#E6D0BE;" width="993.65" height="753.145"/>
					
						<rect x="519.199" y="1183.822" transform="matrix(-1.836970e-16 1 -1 -1.836970e-16 2483.8718 815.0729)" style="fill:#FFFFFF;" width="630.4" height="931.301"/>
					<circle style="fill:#FFFFFF;" cx="834.399" cy="2006.756" r="18.704"/>
				</g>
				<path style="fill:#E6D0BE;" d="M337.574,2076.66c0,43.107,34.945,78.053,78.052,78.053h1041.528
					c43.107,0,78.052-34.946,78.052-78.053H337.574z"/>
				<path style="fill:#F2E6DC;" d="M599.12,2147.625c-34.67,0-62.876-28.206-62.876-62.876c0-0.552,0.447-1,1-1c0.553,0,1,0.448,1,1
					c0,33.567,27.309,60.876,60.876,60.876c0.553,0,1,0.448,1,1S599.673,2147.625,599.12,2147.625z"/>
				<path style="fill:#F2E6DC;" d="M963.344,2095.109c0,18.317,14.849,33.166,33.167,33.166h116.763
					c18.317,0,33.166-14.849,33.166-33.166H963.344z"/>
			</g>
			<g>
				<polygon style="fill:#363E44;" points="1073.873,1961.697 607.419,1961.697 607.419,1628.916 980.102,1628.916 				"/>
				<g>
					<g>
						<g>
							<path style="fill:#ff6900;" d="M1195.908,1288.931c-14.365-29.562-45.694-46.972-78.388-43.599
								c-266.893,27.528-438.881,68.932-526.635,94.566c-43.63,12.745-79.195,44.445-96.898,86.309l-35.285,83.44
								c-20.703,48.957,15.236,103.176,68.391,103.176h45.842l-4.376,61.779h445.21l-71.195-227.792l190.484-34.241
								C1189.803,1402.367,1221.107,1340.788,1195.908,1288.931z"/>
							<path style="fill:#363E44;" d="M586.26,1511.53c-0.074,0-0.149-0.008-0.225-0.025c-0.538-0.123-0.874-0.66-0.751-1.198
								l11.63-50.771c0.122-0.539,0.658-0.878,1.198-0.751c0.538,0.123,0.874,0.66,0.751,1.198l-11.63,50.771
								C587.127,1511.216,586.716,1511.53,586.26,1511.53z"/>
							<path style="fill:#363E44;" d="M939.544,1441.745c-0.407,0-0.79-0.251-0.938-0.655l-18.173-49.431
								c-0.19-0.519,0.075-1.093,0.594-1.284c0.517-0.191,1.093,0.076,1.283,0.593l18.173,49.431
								c0.19,0.519-0.075,1.093-0.594,1.284C939.775,1441.725,939.658,1441.745,939.544,1441.745z"/>
						</g>
						<path style="fill:#FFFFFF;" d="M629.714,1329.085c61.581-17.533,124.146-35.11,188.009-41.568l132.505,387.084H674.993
							C674.993,1674.601,685.497,1592.422,629.714,1329.085z"/>
					</g>
					<g>
						<path style="fill:#BC8271;" d="M1057.979,1308.984c0,0,24.44-138.11,37.916-193.15
							c14.154-57.803,43.466-141.085,55.063-136.834c6.606,2.421,4.957,14.606-1.617,46.88c1.964-1.3,8.886-3.764,14.646-0.514
							c8.522,4.81,6.526,12.763,6.683,13.544c0.63-0.494,8.111-5.743,14.361-3.49c7.04,2.539,9.573,8.365,9.925,14.228
							c1.602-1.178,14.8-9.309,20.692-6.843c7.661,3.207,3.326,16.573,1.597,23.208c-3.172,12.172-12.667,45.215-15.457,63.331
							c-5.49,35.65,0.159,169.291-29.546,214.294C1119.171,1424.043,1051.912,1345.031,1057.979,1308.984z"/>
					</g>
					<g>
						<g>
							<path style="fill:#F2E6DC;" d="M884.438,1915.078l-20.807-11.837c4.111-11.561,7.263-23.284,9.495-35.066l24.13-0.519
								l0.711-83.168l-24.185,0.521c-2.057-11.795-5.025-23.383-8.877-34.651l21.05-12.757l-40.245-71.147l-21.003,12.729
								c-7.534-8.915-15.832-17.277-24.878-24.977l12.256-21.542l-70.417-40.061l-12.256,21.542
								c-11.24-3.841-22.669-6.702-34.182-8.623l0.21-24.558l-81.721,1.758l-0.211,24.613c-11.655,2.446-23.132,5.814-34.322,10.074
								l-11.91-21.056l-71.128,43.106l11.883,21.008c-8.987,7.938-17.453,16.638-25.291,26.079l-20.807-11.837l-41.476,72.904
								l20.807,11.837c-4.111,11.561-7.263,23.284-9.495,35.066l-24.13,0.519l-0.711,83.168l24.185-0.52
								c2.056,11.795,5.025,23.383,8.878,34.651l-21.05,12.758l40.245,71.146l21.003-12.728
								c7.534,8.915,15.832,17.277,24.878,24.977l-12.256,21.542l70.418,40.061l12.255-21.542
								c11.24,3.841,22.669,6.702,34.182,8.623l-0.21,24.557l81.722-1.758l0.211-24.614c11.655-2.446,23.132-5.814,34.322-10.074
								l11.911,21.056l71.128-43.106l-11.883-21.008c8.987-7.939,17.454-16.638,25.291-26.079l20.807,11.838L884.438,1915.078z
								 M761.759,1898.536c-36.256,59.393-111.824,81.574-171.313,50.285c-65.689-34.551-87.346-119.082-47.311-184.665
								c36.256-59.393,111.824-81.574,171.313-50.285C780.138,1748.422,801.795,1832.953,761.759,1898.536z"/>
						</g>
						<path style="fill:#FFFFFF;" d="M647.134,2014.348c-29.538,0-59.102-7.402-85.909-22.654
							c-85.417-48.595-113.985-160.061-63.685-248.477c21.975-38.626,56.66-68.286,97.667-83.517
							c40.608-15.083,84.733-15.123,124.246-0.115c0.516,0.196,0.775,0.774,0.579,1.29c-0.195,0.517-0.771,0.774-1.29,0.58
							c-80.81-30.697-175.163,4.878-219.464,82.75c-49.756,87.457-21.522,197.7,62.935,245.749
							c69.783,39.699,158.503,25.6,215.756-34.286c0.382-0.4,1.013-0.414,1.414-0.032c0.398,0.381,0.413,1.015,0.031,1.414
							C743.514,1994.604,695.363,2014.348,647.134,2014.348z"/>
					</g>
					<g>
						<path style="fill:#BC8271;" d="M859.222,1572.369c-10.531-8.666-48.541-51.723-74.456-45.051
							c-26.101,6.72-43.598,30.828-51.637,56.555c0.048,0.099,0.101,0.208,0.148,0.306c0.969,7.398,3.552,18.318,11.553,27.724
							c9.122,10.722,16.547,9.206,27.934,19.022c19.22,16.568,16.574,37.743,25.503,36.707c6.129-0.71,8.205-12.983,7.186-24.668
							c-1.046-11.998-6.772-19.317-5.133-20.414c1.799-1.205,6.654,6.983,13.627,16.61c3.239,4.473,4.571,22.231,13.088,22.495
							c6.79,0.21,10.026-18.599,3.784-34.033c-4.416-10.919-14.564-16.184-13.214-17.858c1.013-1.256,6.982,2.031,11.283,6.396
							c7.098,7.202,8.655,25.357,16.499,25.447c7.685,0.087,10.222-16.389,5.38-30.948c-4.082-12.276-15.679-17.607-14.014-19.697
							c1.171-1.47,6.859-0.163,17.422,5.989c8.816,5.136,22.649,20.807,29.401,12.384
							C889.257,1602.249,875.119,1585.448,859.222,1572.369z"/>
						<path style="fill:#BC8271;" d="M541.093,1483.473c-24.911,0.699-47.598,15.12-58.142,37.7
							c-9.935,21.277-12.071,48.944,19.438,74.235c62.742,50.362,253.873-3.555,253.873-3.555l41.806-64.236
							C716.369,1498.171,624.434,1481.135,541.093,1483.473z"/>
					</g>
					<g>
						<g>
							<path style="fill:#D87355;" d="M1431.165,1245.297l-15.28-11.95c4.663-8.782,8.576-17.807,11.758-26.987l19.405,2.437
								l10.405-66.586l-19.449-2.443c-0.254-9.699-1.263-19.339-3.019-28.827l18.383-7.738l-23.849-61.793l-18.342,7.72
								c-4.985-8.038-10.649-15.722-16.989-22.964l12.372-15.82l-51.712-40.442l-12.372,15.819
								c-8.557-4.409-17.38-8.053-26.382-10.955l3.073-19.662l-65.719-8.255l-3.08,19.706c-9.632,0.582-19.231,1.926-28.705,4.017
								l-7.058-18.288l-62.117,26.144l7.042,18.246c-8.143,5.301-15.959,11.274-23.358,17.915l-15.28-11.95l-41.87,53.538
								l15.28,11.95c-4.662,8.782-8.576,17.807-11.759,26.987l-19.405-2.437l-10.405,66.586l19.45,2.443
								c0.254,9.699,1.263,19.339,3.019,28.827l-18.383,7.738l23.849,61.793l18.342-7.72c4.985,8.037,10.649,15.722,16.989,22.964
								l-12.372,15.82l51.712,40.442l12.372-15.819c8.556,4.408,17.38,8.053,26.381,10.955l-3.073,19.661l65.719,8.255l3.08-19.706
								c9.632-0.582,19.231-1.926,28.705-4.017l7.058,18.288l62.116-26.144l-7.042-18.246c8.143-5.301,15.959-11.274,23.358-17.915
								l15.28,11.95L1431.165,1245.297z M1334.777,1217.528c-36.088,43.324-99.289,52.169-143.278,20.051
								c-48.573-35.465-55.938-105.79-16.089-153.63c36.088-43.324,99.289-52.169,143.278-20.051
								C1367.263,1099.364,1374.627,1169.689,1334.777,1217.528z"/>
						</g>
						<path style="fill:#FFFFFF;" d="M1250.258,1298.543c-31.077,0-61.858-9.949-87.371-29.902
							c-30.431-23.799-49.445-58.44-53.54-97.542c-4.093-39.088,7.215-77.956,31.84-109.444c22.212-28.401,53.563-48.1,88.28-55.469
							c34.381-7.297,69.805-2.106,99.746,14.621c0.482,0.269,0.655,0.879,0.386,1.361c-0.271,0.481-0.879,0.654-1.36,0.385
							c-61.072-34.119-140.81-16.781-185.476,40.334c-24.305,31.077-35.466,69.434-31.427,108.004
							c4.038,38.557,22.783,72.712,52.783,96.175c51.176,40.024,123.87,39.214,176.779-1.97c0.435-0.339,1.063-0.262,1.403,0.175
							c0.339,0.436,0.261,1.064-0.175,1.403C1314.858,1287.899,1282.399,1298.543,1250.258,1298.543z"/>
					</g>
					<g>
						<path style="fill:#BC8271;" d="M1135.029,1066.702c-9.765,5.445-26.095-13.838-40.45-33.664
							c-10.54-14.557-21.46-31.909-9.913-40.576c13.425-10.075,28.604,10.187,37.376,24.202
							C1135.061,1037.465,1144.576,1061.379,1135.029,1066.702z"/>
						<path style="fill:#BC8271;" d="M1160.086,1058.031c-10.34,5.707-28.106-15.352-43.771-36.962
							c-11.502-15.868-23.457-34.755-11.266-43.904c14.173-10.637,30.726,11.458,40.33,26.711
							C1159.633,1026.515,1170.196,1052.452,1160.086,1058.031z"/>
						<path style="fill:#BC8271;" d="M1184.901,1040.594c-10.295,6.56-26.941-11.192-41.515-29.704
							c-10.702-13.593-21.743-29.974-9.525-39.985c14.205-11.639,29.632,7.227,38.499,20.462
							C1185.521,1011.01,1194.965,1034.181,1184.901,1040.594z"/>
						<path style="fill:#BC8271;" d="M1201.58,1020.499c-8.488,5.483-21.607-8.404-33.031-22.947
							c-8.388-10.678-16.992-23.585-6.87-31.878c11.768-9.641,23.874,5.166,30.782,15.596
							C1202.715,996.749,1209.879,1015.138,1201.58,1020.499z"/>
						<path style="fill:#363E44;" d="M1193.357,983.641c-0.324,0-0.643-0.157-0.835-0.448c-7.749-11.7-15.198-18.39-21.544-19.347
							c-3.116-0.471-5.953,0.381-8.665,2.602c-2.448,2.006-3.8,4.333-4.133,7.114c-0.044,0.364-0.283,0.676-0.625,0.811
							c-0.34,0.135-0.729,0.073-1.01-0.163c-8.37-7-15.583-7.831-22.052-2.532c-3.45,2.827-5.079,6.274-4.98,10.54
							c0.009,0.402-0.224,0.771-0.591,0.936c-0.368,0.164-0.798,0.093-1.092-0.182c-1.925-1.798-3.819-3.299-5.634-4.459
							c-0.465-0.298-0.601-0.916-0.304-1.381c0.298-0.465,0.915-0.602,1.382-0.303c1.409,0.902,2.86,1.993,4.331,3.256
							c0.433-3.906,2.316-7.246,5.62-9.952c6.88-5.636,14.711-5.131,23.294,1.492c0.684-2.561,2.2-4.817,4.525-6.722
							c3.129-2.564,6.569-3.585,10.231-3.033c7.019,1.059,14.728,7.862,22.913,20.221c0.305,0.46,0.179,1.081-0.282,1.386
							C1193.738,983.587,1193.547,983.641,1193.357,983.641z"/>
						<path style="fill:#363E44;" d="M1129.55,1036.39c-0.321,0-0.638-0.155-0.83-0.441l-29.061-43.15
							c-0.309-0.458-0.188-1.08,0.271-1.388c0.456-0.309,1.08-0.188,1.388,0.271l29.061,43.15c0.309,0.458,0.188,1.08-0.271,1.388
							C1129.937,1036.334,1129.742,1036.39,1129.55,1036.39z"/>
						<path style="fill:#363E44;" d="M1155.261,1024.486c-0.326,0-0.646-0.159-0.837-0.451l-27.753-42.31
							c-0.303-0.462-0.175-1.082,0.287-1.385c0.462-0.303,1.083-0.174,1.385,0.288l27.753,42.31
							c0.303,0.462,0.175,1.082-0.287,1.385C1155.639,1024.433,1155.449,1024.486,1155.261,1024.486z"/>
						<path style="fill:#363E44;" d="M1185.795,1016.689c-0.319,0-0.634-0.153-0.827-0.437l-29.057-42.629
							c-0.312-0.456-0.193-1.078,0.263-1.39c0.458-0.31,1.079-0.193,1.39,0.263l29.057,42.629c0.312,0.456,0.193,1.078-0.263,1.39
							C1186.185,1016.633,1185.989,1016.689,1185.795,1016.689z"/>
					</g>
				</g>
				<g>
					<path style="fill:#BC8271;" d="M722.834,1345.81c-17.513,2.269-33.55-10.089-35.819-27.603l-7.347-56.713
						c-2.269-17.513,10.089-33.55,27.603-35.819c17.513-2.269,33.55,10.089,35.819,27.603l7.347,56.713
						C752.705,1327.504,740.347,1343.541,722.834,1345.81z"/>
					<path style="fill:#BC8271;" d="M682.715,1154c2.685-1.149,22.716-22.871,44.491-9.792
						c16.203,9.731,28.989,37.731,36.351,67.828c8.67,35.444,8.901,57.843,1.09,67.865c-12.34,15.836-67.318,6.665-94.728-17.976
						c-19.785-17.787-27.273-46.415-20.583-72.358C656.008,1163.697,681.002,1154.734,682.715,1154z"/>
					<g>
						<path style="fill:#FFFFFF;" d="M693.633,1213.771c0.162,0.181,0.15,0.428,0.312,0.609c0.007,0.008,0.015,0.011,0.022,0.019
							c1.382,3.12,2.832,6.414,3.621,9.732c0.349,1.47,0.033,2.661,0.205,4.083c0.126,1.043,0.251,2.041,0.334,3.074
							c-11.134-1.993-19.479-8.686-19.479-8.686S684.815,1217.009,693.633,1213.771z"/>
						<g>
							<defs>
								<path id="SVGID_00000123403946459913531180000014504722576219853709_" d="M678.647,1222.601c0,0,12.113,9.725,26.626,9.226
									c14.512-0.5,25.929-11.034,25.929-11.034s-12.113-9.725-26.626-9.226C690.063,1212.066,678.647,1222.601,678.647,1222.601z"
									/>
							</defs>
							<clipPath id="SVGID_00000103948003307288734060000010269240089815880863_">
								<use xlink:href="#SVGID_00000123403946459913531180000014504722576219853709_"  style="overflow:visible;"/>
							</clipPath>
							<path style="clip-path:url(#SVGID_00000103948003307288734060000010269240089815880863_);fill:#363E44;" d="
								M696.417,1229.104c5.943,8.642,17.766,10.83,26.408,4.887c8.642-5.943,10.83-17.766,4.887-26.408
								c-5.943-8.642-17.766-10.83-26.408-4.887C692.662,1208.639,690.474,1220.462,696.417,1229.104z"/>
						</g>
					</g>
					<g>
						<path style="fill:#FFFFFF;" d="M756.132,1197.77c2.421,3.224,3.653,6.109,3.738,9.971c-8.109,5.158-16.422,6.522-16.422,6.522
							s-0.029-12.625,6.607-23.208C752.537,1192.688,754.414,1195.482,756.132,1197.77z"/>
						<g>
							<defs>
								<path id="SVGID_00000018205257656314286650000002323012339318546863_" d="M777.242,1173.974c0,0-15.331,2.506-24.663,13.631
									c-9.332,11.126-9.131,26.658-9.131,26.658s15.331-2.505,24.662-13.631C777.442,1189.507,777.242,1173.974,777.242,1173.974z
									"/>
							</defs>
							<clipPath id="SVGID_00000161602286156005497070000010827072595642700210_">
								<use xlink:href="#SVGID_00000018205257656314286650000002323012339318546863_"  style="overflow:visible;"/>
							</clipPath>
							<path style="clip-path:url(#SVGID_00000161602286156005497070000010827072595642700210_);fill:#363E44;" d="
								M771.508,1172.098c-10.399-1.359-19.932,5.97-21.291,16.369c-1.359,10.399,5.97,19.932,16.369,21.291
								c10.399,1.359,19.932-5.97,21.291-16.369C789.236,1182.989,781.907,1173.457,771.508,1172.098z"/>
						</g>
					</g>
					<g>
						<path style="fill:#363E44;" d="M623.125,1232.084c0,0,23.869,29.146,59.682,44.831c-2.642-11.566-8.086-44.092-8.086-44.092
							l-10.743-19.681c-4.221-7.733-2.275-17.38,4.613-22.872l58.617-46.063c0,0-1.26-1.016-20.179-12.326
							c-10.675-6.381-34.857-3.807-50.352,0.646C578.262,1155.063,623.125,1232.084,623.125,1232.084z"/>
						
							<ellipse transform="matrix(0.866 -0.5 0.5 0.866 -511.8506 446.2125)" style="fill:#363E44;" cx="576.718" cy="1178.232" rx="57.126" ry="15.675"/>
						<path style="fill:#363E44;" d="M591.536,1222.512c-23.549,26.718-48.583,43.139-55.914,36.677
							c-7.331-6.462,5.816-33.359,29.365-60.078c23.549-26.718,48.583-43.139,55.914-36.677S615.085,1195.793,591.536,1222.512z"/>
						<path style="fill:#363E44;" d="M615.413,1232.498c-14.273,32.63-33.102,55.906-42.056,51.99
							c-8.953-3.917-4.641-33.543,9.633-66.173c14.273-32.63,33.102-55.906,42.056-51.99
							C633.999,1170.241,629.686,1199.868,615.413,1232.498z"/>
						
							<ellipse transform="matrix(0.0585 -0.9983 0.9983 0.0585 -585.2233 1677.5703)" style="fill:#363E44;" cx="596.776" cy="1149.05" rx="9.507" ry="33.416"/>
						<path style="fill:#FFFFFF;" d="M618.13,1213.693c-0.428,0-0.823-0.276-0.956-0.706c-4.623-15.029-4.173-31.43,1.266-46.182
							c0.192-0.518,0.767-0.782,1.284-0.592c0.519,0.191,0.783,0.766,0.593,1.284c-5.288,14.343-5.726,30.29-1.231,44.902
							c0.162,0.528-0.134,1.087-0.662,1.25C618.326,1213.678,618.227,1213.693,618.13,1213.693z"/>
					</g>
					<g>
						<path style="fill:#BC8271;" d="M676.835,1233.669c7.975,8.572,8.568,20.985,1.323,27.726
							c-7.245,6.741-19.584,5.257-27.56-3.314c-7.976-8.572-8.568-20.985-1.323-27.726
							C656.521,1223.613,668.859,1225.097,676.835,1233.669z"/>
						<path style="fill:#363E44;" d="M658.664,1254.541c-0.211,0-0.423-0.066-0.604-0.204c-0.617-0.469-1.204-1-1.742-1.579
							c-4.423-4.752-4.701-11.708-0.622-15.503c1.014-0.943,2.216-1.624,3.572-2.022c0.532-0.156,1.087,0.149,1.241,0.678
							c0.155,0.53-0.148,1.085-0.679,1.241c-1.055,0.31-1.987,0.837-2.772,1.567c-3.272,3.045-2.948,8.732,0.723,12.677
							c0.46,0.495,0.961,0.948,1.487,1.348c0.441,0.334,0.526,0.961,0.192,1.401
							C659.265,1254.405,658.967,1254.541,658.664,1254.541z"/>
					</g>
					<path style="fill:#363E44;" d="M751.014,1232.846c-0.091,0-0.184-0.013-0.276-0.039c-0.53-0.153-0.837-0.707-0.685-1.237
						c0.496-1.726,0.45-3.155-0.135-4.246c-0.606-1.131-1.662-1.617-3.123-2.288c-1.199-0.551-2.558-1.175-4.038-2.308
						c-1.888-1.446-3.462-3.352-4.679-5.664c-0.258-0.489-0.069-1.094,0.419-1.351c0.487-0.257,1.094-0.07,1.351,0.419
						c1.081,2.054,2.469,3.739,4.125,5.007c1.303,0.997,2.554,1.572,3.656,2.079c1.609,0.74,3.13,1.438,4.052,3.161
						c0.84,1.565,0.939,3.498,0.294,5.743C751.849,1232.56,751.449,1232.846,751.014,1232.846z"/>
					<path style="fill:#363E44;" d="M743.124,1253.407c-0.057,0-0.113,0-0.171-0.001c-4.903-0.069-8.054-3.068-8.903-3.985
						c-0.375-0.405-0.351-1.038,0.056-1.413c0.404-0.375,1.037-0.352,1.413,0.055c0.712,0.77,3.355,3.286,7.462,3.344
						c0.049,0.001,0.097,0.001,0.143,0.001c3.611,0,6.086-1.901,6.989-2.727c0.408-0.372,1.04-0.345,1.413,0.063
						c0.372,0.408,0.344,1.041-0.064,1.413C750.386,1251.141,747.435,1253.407,743.124,1253.407z"/>
					<path style="fill:#363E44;" d="M741.034,1288.519c-35.329,0-48.214-11.546-48.773-12.064c-0.405-0.375-0.429-1.008-0.054-1.413
						c0.375-0.406,1.006-0.429,1.411-0.055c0.14,0.128,14.407,12.817,53.421,11.423c0.499-0.024,1.015,0.412,1.034,0.964
						c0.02,0.552-0.411,1.015-0.964,1.035C745.016,1288.483,742.989,1288.519,741.034,1288.519z"/>
				</g>
			</g>
		</g>
		<g>
			<path style="fill:#84524D;" d="M1909.658,1795.853c-0.125,0-0.247,0-0.372-0.001l-96.605-0.752
				c-12.566-0.098-24.341-5.084-33.154-14.041c-8.813-8.957-13.61-20.811-13.509-33.379l0.346-42.703
				c0.209-25.82,21.282-46.688,47.052-46.688c0.124,0,0.247,0,0.372,0.001l96.605,0.752c12.565,0.098,24.34,5.084,33.153,14.041
				s13.611,20.811,13.51,33.379l-0.346,42.703C1956.501,1774.985,1935.427,1795.853,1909.658,1795.853z M1909.302,1793.852
				c24.802,0.222,45.207-19.86,45.408-44.703l0.346-42.703c0.098-12.034-4.496-23.384-12.936-31.959
				c-8.438-8.576-19.712-13.35-31.743-13.443l-96.605-0.752c-0.118-0.001-0.238-0.001-0.356-0.001
				c-24.676,0-44.852,19.979-45.052,44.704l-0.346,42.703c-0.098,12.034,4.496,23.384,12.935,31.959
				c8.438,8.575,19.712,13.35,31.744,13.443L1909.302,1793.852z"/>
			
				<rect x="1661.196" y="1669.794" transform="matrix(0.0078 -1 1 0.0078 -103.8144 3800.6558)" style="fill:#84524D;" width="404.15" height="565.693"/>
			<path style="fill:#F7F1EB;" d="M1862.037,1979.351c-0.218,0-0.435-0.071-0.615-0.212l-247.094-192.982
				c-0.436-0.34-0.513-0.968-0.173-1.404c0.339-0.435,0.967-0.513,1.403-0.172l246.485,192.507l246.954-188.833
				c0.439-0.335,1.067-0.251,1.401,0.187c0.336,0.438,0.252,1.066-0.187,1.402l-247.568,189.302
				C1862.465,1979.282,1862.251,1979.351,1862.037,1979.351z"/>
			
				<rect x="1842.065" y="1933.982" transform="matrix(0.0078 -1 1 0.0078 -125.1866 3821.52)" style="fill:#F7F1EB;" width="42.069" height="79.721"/>
		</g>
		<g>
			<g>
				<path style="fill:#FFFFFF;" d="M979.492,940.524l-12.382,6.19c-4.129-5.484-8.648-10.565-13.494-15.229l7.619-11.546
					l-39.114-25.83l-7.637,11.572c-6.25-2.646-12.7-4.797-19.287-6.433l0.826-13.844l-46.776-2.818l-0.824,13.813
					c-6.673,0.822-13.334,2.175-19.925,4.083l-6.197-12.386l-41.904,20.948l6.197,12.387c-5.481,4.127-10.559,8.643-15.22,13.487
					l-11.549-7.627l-25.804,39.102l11.576,7.644c-2.641,6.249-4.789,12.698-6.421,19.284l-13.843-0.834l-2.79,46.778l13.812,0.832
					c0.826,6.674,2.183,13.336,4.095,19.929l-12.382,6.19l20.972,41.92l12.382-6.19c4.13,5.484,8.648,10.565,13.494,15.229
					l-7.619,11.546l39.114,25.829l7.637-11.572c6.25,2.646,12.7,4.797,19.287,6.433l-0.826,13.844l46.776,2.818l0.824-13.813
					c6.673-0.822,13.334-2.175,19.925-4.083l6.197,12.386l41.904-20.948l-6.197-12.387c5.481-4.127,10.559-8.643,15.22-13.487
					l11.549,7.627l25.804-39.102l-11.576-7.644c2.641-6.249,4.789-12.698,6.421-19.284l13.843,0.834l2.79-46.778l-13.812-0.832
					c-0.826-6.674-2.183-13.336-4.094-19.928l12.382-6.19L979.492,940.524z M954.271,1018.171
					c2.445,23.758-5.489,47.588-21.686,65.128c-55.032,59.596-150.017,27.915-158.326-52.81
					c-2.446-23.758,5.489-47.589,21.686-65.129C850.977,905.763,945.963,937.445,954.271,1018.171z"/>
			</g>
			<path style="fill:#F2E6DC;" d="M864.494,1127.832c-38.002,0.002-74.656-20.985-92.789-57.229
				c-11.16-22.308-13.899-47.879-7.713-72.003c6.126-23.883,20.546-44.802,40.606-58.904c0.452-0.318,1.075-0.208,1.393,0.243
				c0.317,0.452,0.209,1.076-0.243,1.393c-40.691,28.605-54.558,83.794-32.254,128.375c17.781,35.542,53.733,56.123,90.997,56.125
				c15.232,0.001,30.681-3.437,45.203-10.697c41.357-20.675,63.514-66.668,53.883-111.847c-0.114-0.54,0.229-1.071,0.771-1.187
				c0.531-0.115,1.071,0.229,1.185,0.77c9.821,46.071-12.773,92.971-54.944,114.053
				C895.782,1124.325,880.023,1127.831,864.494,1127.832z"/>
		</g>
		<path style="fill:#E6D0BE;" d="M659.463,899.1l-23.44-53.555l-25.457,11.142c-5.86-7.251-12.548-13.642-19.865-19.086
			l10.124-25.883l-54.443-21.295l-10.124,25.884c-9.069-0.966-18.318-0.808-27.543,0.543l-11.142-25.457l-53.555,23.44
			l11.142,25.457c-7.251,5.86-13.642,12.548-19.086,19.865l-25.883-10.124l-21.295,54.444l25.883,10.124
			c-0.965,9.069-0.808,18.318,0.543,27.543l-25.457,11.142l23.44,53.555l25.457-11.142c5.86,7.251,12.548,13.642,19.865,19.086
			l-10.124,25.883l54.444,21.295l10.124-25.884c9.069,0.965,18.318,0.808,27.543-0.543l11.142,25.457l53.555-23.44l-11.142-25.457
			c7.251-5.86,13.642-12.548,19.086-19.865l25.883,10.124l21.295-54.443l-25.883-10.124c0.966-9.069,0.808-18.318-0.543-27.543
			L659.463,899.1z M549.06,981.932c-30.785,13.474-66.663-0.56-80.137-31.344c-13.474-30.785,0.56-66.663,31.345-80.137
			c30.785-13.474,66.663,0.56,80.137,31.344C593.879,932.58,579.845,968.458,549.06,981.932z"/>
		<path style="fill:#E6D0BE;" d="M2053.183,1498.887l-15.079-34.453l-16.377,7.168c-3.77-4.665-8.072-8.776-12.78-12.278
			l6.513-16.651l-35.025-13.7l-6.513,16.651c-5.834-0.621-11.784-0.52-17.719,0.349l-7.168-16.377l-34.453,15.079l7.168,16.377
			c-4.665,3.77-8.776,8.072-12.278,12.78l-16.651-6.513l-13.699,35.025l16.651,6.513c-0.621,5.834-0.52,11.785,0.349,17.719
			l-16.377,7.168l15.079,34.453l16.377-7.168c3.77,4.665,8.072,8.776,12.78,12.278l-6.513,16.651l35.025,13.699l6.513-16.651
			c5.834,0.621,11.784,0.52,17.719-0.349l7.168,16.377l34.453-15.079l-7.168-16.377c4.665-3.77,8.776-8.072,12.278-12.78
			l16.651,6.513l13.699-35.025l-16.651-6.513c0.621-5.834,0.52-11.784-0.349-17.719L2053.183,1498.887z M1982.159,1552.174
			c-19.804,8.668-42.886-0.36-51.554-20.165c-8.668-19.804,0.36-42.886,20.165-51.554c19.804-8.668,42.886,0.36,51.554,20.165
			C2010.991,1520.425,2001.964,1543.506,1982.159,1552.174z"/>
		<g>
			<g>
				<g>
					<path style="fill:#E6D0BE;" d="M1020.667,577.117h-21.05c-1.885-10.262-4.574-20.24-7.99-29.875l18.217-10.518l-35.62-61.697
						l-18.259,10.542c-6.701-7.845-14.009-15.152-21.853-21.853l10.542-18.259l-61.697-35.621l-10.518,18.218
						c-9.635-3.418-19.614-6.106-29.876-7.991v-21.05H771.32v21.05c-10.261,1.885-20.24,4.573-29.875,7.991l-10.518-18.218
						l-61.697,35.621l10.542,18.259c-7.844,6.701-15.152,14.008-21.853,21.853l-18.259-10.542l-35.62,61.697l18.217,10.518
						c-3.417,9.635-6.105,19.613-7.99,29.875h-21.05l0,71.242h21.051c1.885,10.262,4.574,20.24,7.99,29.876l-18.217,10.518
						l35.62,61.698l18.259-10.542c6.7,7.845,14.008,15.152,21.853,21.853l-10.542,18.259l61.697,35.621l10.518-18.218
						c9.635,3.417,19.614,6.105,29.875,7.991v21.05h71.242v-21.05c10.262-1.885,20.241-4.573,29.876-7.991l10.518,18.218
						l61.697-35.621l-10.542-18.259c7.844-6.701,15.152-14.008,21.853-21.853l18.259,10.542l35.62-61.697l-18.217-10.518
						c3.417-9.635,6.105-19.614,7.99-29.876h21.05V577.117z M924.938,616.601c-1.973,61.814-52.318,112.16-114.131,114.133
						c-68.258,2.179-124.04-53.603-121.861-121.86c1.973-61.814,52.318-112.159,114.132-114.133
						C871.334,492.562,927.117,548.344,924.938,616.601z"/>
				</g>
				<path style="fill:#F2E6DC;" d="M806.941,769.579c-86.482,0-156.842-70.359-156.842-156.841
					c0-37.787,13.628-74.291,38.373-102.786c24.498-28.212,58.23-46.789,94.982-52.308c0.553-0.082,1.055,0.295,1.138,0.841
					c0.082,0.546-0.295,1.055-0.841,1.137C708.698,470.892,652.1,536.718,652.1,612.738c0,85.38,69.462,154.841,154.842,154.841
					c70.547,0,132.182-47.628,149.884-115.823c0.139-0.535,0.688-0.856,1.219-0.717c0.535,0.139,0.856,0.685,0.717,1.219
					C940.83,721.335,878.399,769.579,806.941,769.579z"/>
			</g>
			<g>
				<g>
					<g>
						<circle style="fill:#FFFFFF;" cx="806.941" cy="612.499" r="104.212"/>
					</g>
				</g>
				<g>
					<g>
						<polygon style="fill:#E6D0BE;" points="864.24,563.848 859.407,560.314 843.932,581.472 829.535,570.943 845.01,549.784 
							840.177,546.249 812.905,558.289 809.695,587.927 833.758,605.526 861.03,593.487 						"/>
						<polygon style="fill:#E6D0BE;" points="749.545,670.17 754.378,673.704 769.853,652.546 784.25,663.075 768.775,684.234 
							773.608,687.768 800.88,675.729 804.09,646.091 780.027,628.492 752.755,640.531 						"/>
						
							<rect x="796.383" y="582.254" transform="matrix(0.8072 0.5903 -0.5903 0.8072 520.7036 -356.1601)" style="fill:#E6D0BE;" width="18.228" height="73.327"/>
					</g>
				</g>
			</g>
		</g>
	</g>
</g>
</svg>
