<?xml version="1.0" encoding="utf-8"?>
<!-- Generator: Adobe Illustrator 27.5.0, SVG Export Plug-In . SVG Version: 6.00 Build 0)  -->
<svg version="1.1" xmlns="http://www.w3.org/2000/svg" xmlns:xlink="http://www.w3.org/1999/xlink" x="0px" y="0px"
	 viewBox="0 0 2500 2500" style="enable-background:new 0 0 2500 2500;" xml:space="preserve">
-
<g id="Illustration">
	<g id="Media_planning_1_">
		<circle style="fill:transparent;" cx="1250" cy="1250" r="915"/>
		<g>
			<g>
				
					<rect x="603.066" y="837.833" transform="matrix(-1 -1.224647e-16 1.224647e-16 -1 2592.2876 2658.6023)" style="fill:#E6D0BE;" width="1386.155" height="982.936"/>
				
					<rect x="890.291" y="637.587" transform="matrix(-1.836970e-16 1 -1 -1.836970e-16 2583.3191 -8.9684)" style="fill:#F7F1EB;" width="811.706" height="1299.177"/>
				<path style="fill:#E6D0BE;" d="M1150.232,1841.595h41.038c0,30.784,24.956,55.74,55.74,55.74h98.269
					c30.784,0,55.74-24.956,55.74-55.74h41.037l41.038,218.088v18.239h-373.899v-18.239L1150.232,1841.595z"/>
				<path style="fill:#FFFFFF;" d="M1483.093,2102.925h-373.898c-1.219,0-2.205-0.986-2.205-2.205s0.986-2.205,2.205-2.205h373.898
					c1.219,0,2.205,0.986,2.205,2.205S1484.312,2102.925,1483.093,2102.925z"/>
			</g>
			<g>
				<g>
					<g>
						<path style="fill:#E6D0BE;" d="M1138.993,1597.793h-15.434c-1.219,0-2.205-0.986-2.205-2.205s0.986-2.205,2.205-2.205h11.024
							v-11.024c0-1.219,0.986-2.205,2.205-2.205c1.219,0,2.205,0.986,2.205,2.205V1597.793z"/>
						<path style="fill:#E6D0BE;" d="M1095.516,1597.793h-28.045c-1.219,0-2.205-0.986-2.205-2.205s0.986-2.205,2.205-2.205h28.045
							c1.219,0,2.205,0.986,2.205,2.205S1096.735,1597.793,1095.516,1597.793z M1039.429,1597.793h-28.045
							c-1.219,0-2.205-0.986-2.205-2.205s0.986-2.205,2.205-2.205h28.045c1.219,0,2.205,0.986,2.205,2.205
							S1040.648,1597.793,1039.429,1597.793z M983.34,1597.793h-28.045c-1.219,0-2.205-0.986-2.205-2.205s0.986-2.205,2.205-2.205
							h28.045c1.219,0,2.205,0.986,2.205,2.205S984.558,1597.793,983.34,1597.793z M927.252,1597.793h-28.045
							c-1.219,0-2.205-0.986-2.205-2.205s0.986-2.205,2.205-2.205h28.045c1.219,0,2.205,0.986,2.205,2.205
							S928.471,1597.793,927.252,1597.793z M871.163,1597.793h-28.045c-1.219,0-2.205-0.986-2.205-2.205s0.986-2.205,2.205-2.205
							h28.045c1.219,0,2.205,0.986,2.205,2.205S872.382,1597.793,871.163,1597.793z M815.076,1597.793h-28.045
							c-1.219,0-2.205-0.986-2.205-2.205s0.986-2.205,2.205-2.205h28.045c1.219,0,2.205,0.986,2.205,2.205
							S816.294,1597.793,815.076,1597.793z"/>
						<path style="fill:#E6D0BE;" d="M758.986,1597.793h-15.434v-15.434c0-1.219,0.986-2.205,2.205-2.205s2.205,0.986,2.205,2.205
							v11.024h11.024c1.219,0,2.205,0.986,2.205,2.205S760.205,1597.793,758.986,1597.793z"/>
						<path style="fill:#E6D0BE;" d="M745.757,1556.52c-1.219,0-2.205-0.986-2.205-2.205v-28.045c0-1.219,0.986-2.205,2.205-2.205
							s2.205,0.986,2.205,2.205v28.045C747.962,1555.534,746.976,1556.52,745.757,1556.52z M745.757,1500.432
							c-1.219,0-2.205-0.986-2.205-2.205v-28.045c0-1.219,0.986-2.205,2.205-2.205s2.205,0.986,2.205,2.205v28.045
							C747.962,1499.446,746.976,1500.432,745.757,1500.432z M745.757,1444.343c-1.219,0-2.205-0.986-2.205-2.205v-28.045
							c0-1.219,0.986-2.205,2.205-2.205s2.205,0.986,2.205,2.205v28.045C747.962,1443.357,746.976,1444.343,745.757,1444.343z
							 M745.757,1388.256c-1.219,0-2.205-0.986-2.205-2.205v-28.045c0-1.219,0.986-2.205,2.205-2.205s2.205,0.986,2.205,2.205
							v28.045C747.962,1387.27,746.976,1388.256,745.757,1388.256z M745.757,1332.167c-1.219,0-2.205-0.986-2.205-2.205v-28.045
							c0-1.219,0.986-2.205,2.205-2.205s2.205,0.986,2.205,2.205v28.045C747.962,1331.18,746.976,1332.167,745.757,1332.167z
							 M745.757,1276.079c-1.219,0-2.205-0.986-2.205-2.205v-28.045c0-1.219,0.986-2.205,2.205-2.205s2.205,0.986,2.205,2.205
							v28.045C747.962,1275.093,746.976,1276.079,745.757,1276.079z"/>
						<path style="fill:#E6D0BE;" d="M745.757,1219.99c-1.219,0-2.205-0.986-2.205-2.205v-15.434h15.434
							c1.219,0,2.205,0.986,2.205,2.205c0,1.219-0.986,2.205-2.205,2.205h-11.024v11.024
							C747.962,1219.004,746.976,1219.99,745.757,1219.99z"/>
						<path style="fill:#E6D0BE;" d="M1095.516,1206.761h-28.045c-1.219,0-2.205-0.986-2.205-2.205c0-1.219,0.986-2.205,2.205-2.205
							h28.045c1.219,0,2.205,0.986,2.205,2.205C1097.721,1205.775,1096.735,1206.761,1095.516,1206.761z M1039.429,1206.761h-28.045
							c-1.219,0-2.205-0.986-2.205-2.205c0-1.219,0.986-2.205,2.205-2.205h28.045c1.219,0,2.205,0.986,2.205,2.205
							C1041.634,1205.775,1040.648,1206.761,1039.429,1206.761z M983.34,1206.761h-28.045c-1.219,0-2.205-0.986-2.205-2.205
							c0-1.219,0.986-2.205,2.205-2.205h28.045c1.219,0,2.205,0.986,2.205,2.205C985.544,1205.775,984.558,1206.761,983.34,1206.761
							z M927.252,1206.761h-28.045c-1.219,0-2.205-0.986-2.205-2.205c0-1.219,0.986-2.205,2.205-2.205h28.045
							c1.219,0,2.205,0.986,2.205,2.205C929.457,1205.775,928.471,1206.761,927.252,1206.761z M871.163,1206.761h-28.045
							c-1.219,0-2.205-0.986-2.205-2.205c0-1.219,0.986-2.205,2.205-2.205h28.045c1.219,0,2.205,0.986,2.205,2.205
							C873.368,1205.775,872.382,1206.761,871.163,1206.761z M815.076,1206.761h-28.045c-1.219,0-2.205-0.986-2.205-2.205
							c0-1.219,0.986-2.205,2.205-2.205h28.045c1.219,0,2.205,0.986,2.205,2.205
							C817.281,1205.775,816.294,1206.761,815.076,1206.761z"/>
						<path style="fill:#E6D0BE;" d="M1136.788,1219.99c-1.219,0-2.205-0.986-2.205-2.205v-11.024h-11.024
							c-1.219,0-2.205-0.986-2.205-2.205c0-1.219,0.986-2.205,2.205-2.205h15.434v15.434
							C1138.993,1219.004,1138.006,1219.99,1136.788,1219.99z"/>
						<path style="fill:#E6D0BE;" d="M1136.788,1556.52c-1.219,0-2.205-0.986-2.205-2.205v-28.045c0-1.219,0.986-2.205,2.205-2.205
							c1.219,0,2.205,0.986,2.205,2.205v28.045C1138.993,1555.534,1138.006,1556.52,1136.788,1556.52z M1136.788,1500.432
							c-1.219,0-2.205-0.986-2.205-2.205v-28.045c0-1.219,0.986-2.205,2.205-2.205c1.219,0,2.205,0.986,2.205,2.205v28.045
							C1138.993,1499.446,1138.006,1500.432,1136.788,1500.432z M1136.788,1444.343c-1.219,0-2.205-0.986-2.205-2.205v-28.045
							c0-1.219,0.986-2.205,2.205-2.205c1.219,0,2.205,0.986,2.205,2.205v28.045
							C1138.993,1443.357,1138.006,1444.343,1136.788,1444.343z M1136.788,1388.256c-1.219,0-2.205-0.986-2.205-2.205v-28.045
							c0-1.219,0.986-2.205,2.205-2.205c1.219,0,2.205,0.986,2.205,2.205v28.045
							C1138.993,1387.27,1138.006,1388.256,1136.788,1388.256z M1136.788,1332.167c-1.219,0-2.205-0.986-2.205-2.205v-28.045
							c0-1.219,0.986-2.205,2.205-2.205c1.219,0,2.205,0.986,2.205,2.205v28.045
							C1138.993,1331.18,1138.006,1332.167,1136.788,1332.167z M1136.788,1276.079c-1.219,0-2.205-0.986-2.205-2.205v-28.045
							c0-1.219,0.986-2.205,2.205-2.205c1.219,0,2.205,0.986,2.205,2.205v28.045
							C1138.993,1275.093,1138.006,1276.079,1136.788,1276.079z"/>
					</g>
					<g>
						
							<rect x="704.364" y="1164.809" transform="matrix(0.9999 -0.0114 0.0114 0.9999 -15.4457 10.2912)" style="fill:#D3BBA3;" width="381.411" height="390.596"/>
						<path style="fill:#FFFFFF;" d="M757.537,1465.102c91.89-1.047,183.78-2.095,275.67-3.143
							c-42.253-135.196-68.388-169.225-85.235-167.169c-24.338,2.97-30.712,81.424-64.177,84.044
							c-20.117,1.575-28.485-25.94-48.777-26.71C817.564,1351.463,791.786,1370.605,757.537,1465.102z"/>
						
							<ellipse transform="matrix(0.7071 -0.7071 0.7071 0.7071 -652.6025 969.4731)" style="fill:#FFFFFF;" cx="843.956" cy="1272.497" rx="35.595" ry="35.595"/>
					</g>
				</g>
				<rect x="1281.935" y="965.475" style="fill:#F2E6DC;" width="588.518" height="36.845"/>
				<rect x="1281.935" y="1040.117" style="fill:#F2E6DC;" width="588.518" height="36.845"/>
				<g>
					<g>
						<path style="fill:#E6D0BE;" d="M1902.502,1589.775h-15.434c-1.219,0-2.205-0.986-2.205-2.205s0.986-2.205,2.205-2.205h11.024
							v-11.024c0-1.219,0.986-2.205,2.205-2.205c1.219,0,2.205,0.986,2.205,2.205V1589.775z"/>
						<path style="fill:#E6D0BE;" d="M1859.673,1589.775h-27.394c-1.219,0-2.205-0.986-2.205-2.205s0.986-2.205,2.205-2.205h27.394
							c1.219,0,2.205,0.986,2.205,2.205S1860.892,1589.775,1859.673,1589.775z M1804.887,1589.775h-27.395
							c-1.219,0-2.205-0.986-2.205-2.205s0.986-2.205,2.205-2.205h27.395c1.219,0,2.205,0.986,2.205,2.205
							S1806.105,1589.775,1804.887,1589.775z M1750.098,1589.775h-27.395c-1.219,0-2.205-0.986-2.205-2.205s0.986-2.205,2.205-2.205
							h27.395c1.219,0,2.205,0.986,2.205,2.205S1751.317,1589.775,1750.098,1589.775z M1695.311,1589.775h-27.395
							c-1.219,0-2.205-0.986-2.205-2.205s0.986-2.205,2.205-2.205h27.395c1.219,0,2.205,0.986,2.205,2.205
							S1696.53,1589.775,1695.311,1589.775z M1640.522,1589.775h-27.392c-1.219,0-2.205-0.986-2.205-2.205s0.986-2.205,2.205-2.205
							h27.392c1.219,0,2.205,0.986,2.205,2.205S1641.741,1589.775,1640.522,1589.775z M1585.735,1589.775h-27.394
							c-1.219,0-2.205-0.986-2.205-2.205s0.986-2.205,2.205-2.205h27.394c1.219,0,2.205,0.986,2.205,2.205
							S1586.954,1589.775,1585.735,1589.775z"/>
						<path style="fill:#E6D0BE;" d="M1530.947,1589.775h-15.434v-15.434c0-1.219,0.986-2.205,2.205-2.205
							c1.219,0,2.205,0.986,2.205,2.205v11.024h11.024c1.219,0,2.205,0.986,2.205,2.205S1532.165,1589.775,1530.947,1589.775z"/>
						<path style="fill:#E6D0BE;" d="M1517.718,1549.15c-1.219,0-2.205-0.986-2.205-2.205v-27.394c0-1.219,0.986-2.205,2.205-2.205
							c1.219,0,2.205,0.986,2.205,2.205v27.394C1519.922,1548.163,1518.936,1549.15,1517.718,1549.15z M1517.718,1494.363
							c-1.219,0-2.205-0.986-2.205-2.205v-27.394c0-1.219,0.986-2.205,2.205-2.205c1.219,0,2.205,0.986,2.205,2.205v27.394
							C1519.922,1493.377,1518.936,1494.363,1517.718,1494.363z M1517.718,1439.574c-1.219,0-2.205-0.986-2.205-2.205v-27.395
							c0-1.219,0.986-2.205,2.205-2.205c1.219,0,2.205,0.986,2.205,2.205v27.395
							C1519.922,1438.588,1518.936,1439.574,1517.718,1439.574z M1517.718,1384.787c-1.219,0-2.205-0.986-2.205-2.205v-27.394
							c0-1.219,0.986-2.205,2.205-2.205c1.219,0,2.205,0.986,2.205,2.205v27.394
							C1519.922,1383.801,1518.936,1384.787,1517.718,1384.787z M1517.718,1329.998c-1.219,0-2.205-0.986-2.205-2.205v-27.392
							c0-1.219,0.986-2.205,2.205-2.205c1.219,0,2.205,0.986,2.205,2.205v27.392
							C1519.922,1329.012,1518.936,1329.998,1517.718,1329.998z M1517.718,1275.212c-1.219,0-2.205-0.986-2.205-2.205v-27.395
							c0-1.219,0.986-2.205,2.205-2.205c1.219,0,2.205,0.986,2.205,2.205v27.395
							C1519.922,1274.225,1518.936,1275.212,1517.718,1275.212z"/>
						<path style="fill:#E6D0BE;" d="M1517.718,1220.425c-1.219,0-2.205-0.986-2.205-2.205v-15.434h15.434
							c1.219,0,2.205,0.986,2.205,2.205c0,1.219-0.986,2.205-2.205,2.205h-11.024v11.024
							C1519.922,1219.439,1518.936,1220.425,1517.718,1220.425z"/>
						<path style="fill:#E6D0BE;" d="M1859.673,1207.196h-27.394c-1.219,0-2.205-0.986-2.205-2.205c0-1.219,0.986-2.205,2.205-2.205
							h27.394c1.219,0,2.205,0.986,2.205,2.205C1861.878,1206.21,1860.892,1207.196,1859.673,1207.196z M1804.885,1207.196h-27.392
							c-1.219,0-2.205-0.986-2.205-2.205c0-1.219,0.986-2.205,2.205-2.205h27.392c1.219,0,2.205,0.986,2.205,2.205
							C1807.089,1206.21,1806.103,1207.196,1804.885,1207.196z M1750.098,1207.196h-27.395c-1.219,0-2.205-0.986-2.205-2.205
							c0-1.219,0.986-2.205,2.205-2.205h27.395c1.219,0,2.205,0.986,2.205,2.205
							C1752.303,1206.21,1751.317,1207.196,1750.098,1207.196z M1695.311,1207.196h-27.395c-1.219,0-2.205-0.986-2.205-2.205
							c0-1.219,0.986-2.205,2.205-2.205h27.395c1.219,0,2.205,0.986,2.205,2.205
							C1697.516,1206.21,1696.53,1207.196,1695.311,1207.196z M1640.522,1207.196h-27.395c-1.219,0-2.205-0.986-2.205-2.205
							c0-1.219,0.986-2.205,2.205-2.205h27.395c1.219,0,2.205,0.986,2.205,2.205
							C1642.727,1206.21,1641.741,1207.196,1640.522,1207.196z M1585.735,1207.196h-27.394c-1.219,0-2.205-0.986-2.205-2.205
							c0-1.219,0.986-2.205,2.205-2.205h27.394c1.219,0,2.205,0.986,2.205,2.205
							C1587.94,1206.21,1586.954,1207.196,1585.735,1207.196z"/>
						<path style="fill:#E6D0BE;" d="M1900.297,1220.425c-1.219,0-2.205-0.986-2.205-2.205v-11.024h-11.024
							c-1.219,0-2.205-0.986-2.205-2.205c0-1.219,0.986-2.205,2.205-2.205h15.434v15.434
							C1902.502,1219.439,1901.516,1220.425,1900.297,1220.425z"/>
						<path style="fill:#E6D0BE;" d="M1900.297,1549.152c-1.219,0-2.205-0.986-2.205-2.205v-27.395c0-1.219,0.986-2.205,2.205-2.205
							c1.219,0,2.205,0.986,2.205,2.205v27.395C1902.502,1548.166,1901.516,1549.152,1900.297,1549.152z M1900.297,1494.363
							c-1.219,0-2.205-0.986-2.205-2.205v-27.392c0-1.219,0.986-2.205,2.205-2.205c1.219,0,2.205,0.986,2.205,2.205v27.392
							C1902.502,1493.377,1901.516,1494.363,1900.297,1494.363z M1900.297,1439.576c-1.219,0-2.205-0.986-2.205-2.205v-27.394
							c0-1.219,0.986-2.205,2.205-2.205c1.219,0,2.205,0.986,2.205,2.205v27.394
							C1902.502,1438.59,1901.516,1439.576,1900.297,1439.576z M1900.297,1384.789c-1.219,0-2.205-0.986-2.205-2.205v-27.395
							c0-1.219,0.986-2.205,2.205-2.205c1.219,0,2.205,0.986,2.205,2.205v27.395
							C1902.502,1383.803,1901.516,1384.789,1900.297,1384.789z M1900.297,1330c-1.219,0-2.205-0.986-2.205-2.205v-27.395
							c0-1.219,0.986-2.205,2.205-2.205c1.219,0,2.205,0.986,2.205,2.205v27.395C1902.502,1329.014,1901.516,1330,1900.297,1330z
							 M1900.297,1275.214c-1.219,0-2.205-0.986-2.205-2.205v-27.394c0-1.219,0.986-2.205,2.205-2.205
							c1.219,0,2.205,0.986,2.205,2.205v27.394C1902.502,1274.228,1901.516,1275.214,1900.297,1275.214z"/>
					</g>
					<g>
						<rect x="1444.62" y="1161.346" style="fill:#FFFFFF;" width="410.98" height="386.332"/>
					</g>
					<rect x="1474.906" y="1484.41" style="fill:#D3BBA3;" width="350.408" height="22.304"/>
					<g>
						<polygon style="fill:#D3BBA3;" points="1724.445,1270.252 1596.335,1322.217 1594.876,1275.373 1722.986,1223.408 						"/>
						<path style="fill:#D3BBA3;" d="M1602.56,1408.039c-1.778,0-3.247-1.415-3.303-3.204l-3.469-111.386
							c-0.058-1.826,1.376-3.352,3.202-3.408c1.804-0.08,3.352,1.378,3.408,3.202l3.469,111.386
							c0.058,1.826-1.376,3.352-3.202,3.408C1602.631,1408.039,1602.594,1408.039,1602.56,1408.039z"/>
						<path style="fill:#D3BBA3;" d="M1723.599,1361.092c-1.779,0-3.247-1.415-3.303-3.204l-3.471-111.386
							c-0.058-1.826,1.376-3.352,3.202-3.408c1.783-0.155,3.352,1.378,3.408,3.202l3.471,111.386
							c0.058,1.826-1.376,3.353-3.202,3.408C1723.67,1361.092,1723.634,1361.092,1723.599,1361.092z"/>
						
							<ellipse transform="matrix(0.5482 -0.8363 0.8363 0.5482 -460.4409 1959.1373)" style="fill:#D3BBA3;" cx="1583.221" cy="1405.768" rx="22.913" ry="22.913"/>
						
							<ellipse transform="matrix(0.7071 -0.7071 0.7071 0.7071 -460.015 1602.4189)" style="fill:#D3BBA3;" cx="1704.283" cy="1356.497" rx="22.913" ry="22.913"/>
					</g>
				</g>
				<g>
					<g>
						<path style="fill:#FFFFFF;" d="M1175.123,1004.904c0,29.3-23.973,53.273-53.273,53.273H760.141
							c-29.3,0-53.273-23.973-53.273-53.273c0-29.3,23.973-53.273,53.273-53.273h361.708
							C1151.15,951.631,1175.123,975.604,1175.123,1004.904z"/>
						<g>
							<path style="fill:#E6D0BE;" d="M1132.453,1089.117H791.299c-33.051,0-59.939-26.888-59.939-59.937
								c0-33.051,26.888-59.939,59.939-59.939h341.155c33.051,0,59.939,26.888,59.939,59.939
								C1192.393,1062.229,1165.504,1089.117,1132.453,1089.117z M791.299,973.651c-30.62,0-55.53,24.91-55.53,55.53
								c0,30.618,24.91,55.527,55.53,55.527h341.155c30.62,0,55.53-24.91,55.53-55.527c0-30.62-24.91-55.53-55.53-55.53H791.299z"/>
							<path style="fill:#D87355;" d="M812.293,1027.868c0,11.595-9.399,20.994-20.994,20.994c-11.595,0-20.994-9.399-20.994-20.994
								s9.4-20.994,20.994-20.994C802.893,1006.874,812.293,1016.273,812.293,1027.868z"/>
							<circle style="fill:#D87355;" cx="858.424" cy="1027.868" r="20.994"/>
							<path style="fill:#D87355;" d="M946.544,1027.868c0,11.595-9.399,20.994-20.994,20.994c-11.595,0-20.994-9.399-20.994-20.994
								s9.399-20.994,20.994-20.994C937.145,1006.874,946.544,1016.273,946.544,1027.868z"/>
							<circle style="fill:#D87355;" cx="992.676" cy="1027.868" r="20.994"/>
						</g>
					</g>
				</g>
				<g>
					<rect x="1216.849" y="1162.648" style="fill:#D3BBA3;" width="150.246" height="20.057"/>
					<rect x="1216.849" y="1203.28" style="fill:#D3BBA3;" width="150.246" height="20.057"/>
					<rect x="1216.849" y="1241.531" style="fill:#D3BBA3;" width="150.246" height="20.057"/>
					<rect x="1216.849" y="1284.634" style="fill:#D3BBA3;" width="150.246" height="20.057"/>
					<rect x="1216.849" y="1329.264" style="fill:#D3BBA3;" width="150.246" height="20.057"/>
					<rect x="1216.849" y="1369.896" style="fill:#D3BBA3;" width="150.246" height="20.057"/>
					<rect x="1216.849" y="1408.146" style="fill:#D3BBA3;" width="150.246" height="20.057"/>
					<rect x="1216.849" y="1451.25" style="fill:#D3BBA3;" width="150.246" height="20.057"/>
					<rect x="1216.849" y="1495.562" style="fill:#D3BBA3;" width="150.246" height="20.057"/>
					<rect x="1216.849" y="1538.665" style="fill:#D3BBA3;" width="150.246" height="20.057"/>
				</g>
			</g>
		</g>
		<g>
			<g>
				<rect x="1147.916" y="383.733" style="fill:#FFFFFF;" width="1002.589" height="841.567"/>
				<path style="fill:#D3BBA3;" d="M2150.505,1227.504h-1002.59c-1.219,0-2.205-0.986-2.205-2.205V383.732
					c0-1.219,0.986-2.205,2.205-2.205h1002.59c1.219,0,2.205,0.986,2.205,2.205V1225.3
					C2152.71,1226.518,2151.724,1227.504,2150.505,1227.504z M1150.12,1223.095h998.18V385.937h-998.18V1223.095z"/>
			</g>
			<g>
				<path style="fill:#E6D0BE;" d="M2098.995,672.977h-112.056c-1.219,0-2.205-0.986-2.205-2.205V558.716
					c0-1.219,0.986-2.205,2.205-2.205h112.056c1.219,0,2.205,0.986,2.205,2.205v112.056
					C2101.2,671.991,2100.214,672.977,2098.995,672.977z M1989.144,668.568h107.646V560.921h-107.646V668.568z"/>
				<path style="fill:#E6D0BE;" d="M1966.706,672.977H1854.65c-1.219,0-2.205-0.986-2.205-2.205V558.716
					c0-1.219,0.986-2.205,2.205-2.205h112.056c1.219,0,2.205,0.986,2.205,2.205v112.056
					C1968.911,671.991,1967.925,672.977,1966.706,672.977z M1856.855,668.568h107.646V560.921h-107.646V668.568z"/>
				<path style="fill:#E6D0BE;" d="M1834.419,672.977h-112.056c-1.219,0-2.205-0.986-2.205-2.205V558.716
					c0-1.219,0.986-2.205,2.205-2.205h112.056c1.219,0,2.205,0.986,2.205,2.205v112.056
					C1836.624,671.991,1835.638,672.977,1834.419,672.977z M1724.568,668.568h107.646V560.921h-107.646V668.568z"/>
				<rect x="1590.074" y="558.716" style="fill:#D87355;" width="112.056" height="112.056"/>
				<path style="fill:#E6D0BE;" d="M1569.841,672.977h-112.056c-1.219,0-2.205-0.986-2.205-2.205V558.716
					c0-1.219,0.986-2.205,2.205-2.205h112.056c1.219,0,2.205,0.986,2.205,2.205v112.056
					C1572.046,671.991,1571.06,672.977,1569.841,672.977z M1459.99,668.568h107.646V560.921H1459.99V668.568z"/>
				<path style="fill:#E6D0BE;" d="M1437.554,672.977h-112.058c-1.219,0-2.205-0.986-2.205-2.205V558.716
					c0-1.219,0.986-2.205,2.205-2.205h112.058c1.219,0,2.205,0.986,2.205,2.205v112.056
					C1439.759,671.991,1438.773,672.977,1437.554,672.977z M1327.7,668.568h107.649V560.921H1327.7V668.568z"/>
				<path style="fill:#E6D0BE;" d="M1305.349,672.977h-112.056c-1.219,0-2.205-0.986-2.205-2.205V558.716
					c0-1.219,0.986-2.205,2.205-2.205h112.056c1.219,0,2.205,0.986,2.205,2.205v112.056
					C1307.553,671.991,1306.567,672.977,1305.349,672.977z M1195.498,668.568h107.646V560.921h-107.646V668.568z"/>
				<path style="fill:#E6D0BE;" d="M2098.995,804.362h-112.056c-1.219,0-2.205-0.986-2.205-2.205V690.101
					c0-1.219,0.986-2.205,2.205-2.205h112.056c1.219,0,2.205,0.986,2.205,2.205v112.056
					C2101.2,803.376,2100.214,804.362,2098.995,804.362z M1989.144,799.952h107.646V692.306h-107.646V799.952z"/>
				<rect x="1854.651" y="690.1" style="fill:#D87355;" width="112.056" height="112.056"/>
				<path style="fill:#E6D0BE;" d="M1834.419,804.362h-112.056c-1.219,0-2.205-0.986-2.205-2.205V690.101
					c0-1.219,0.986-2.205,2.205-2.205h112.056c1.219,0,2.205,0.986,2.205,2.205v112.056
					C1836.624,803.376,1835.638,804.362,1834.419,804.362z M1724.568,799.952h107.646V692.306h-107.646V799.952z"/>
				<path style="fill:#E6D0BE;" d="M1702.13,804.362h-112.056c-1.219,0-2.205-0.986-2.205-2.205V690.101
					c0-1.219,0.986-2.205,2.205-2.205h112.056c1.219,0,2.205,0.986,2.205,2.205v112.056
					C1704.335,803.376,1703.349,804.362,1702.13,804.362z M1592.279,799.952h107.646V692.306h-107.646V799.952z"/>
				<path style="fill:#E6D0BE;" d="M1569.841,804.362h-112.056c-1.219,0-2.205-0.986-2.205-2.205V690.101
					c0-1.219,0.986-2.205,2.205-2.205h112.056c1.219,0,2.205,0.986,2.205,2.205v112.056
					C1572.046,803.376,1571.06,804.362,1569.841,804.362z M1459.99,799.952h107.646V692.306H1459.99V799.952z"/>
				<path style="fill:#E6D0BE;" d="M1437.554,804.362h-112.058c-1.219,0-2.205-0.986-2.205-2.205V690.101
					c0-1.219,0.986-2.205,2.205-2.205h112.058c1.219,0,2.205,0.986,2.205,2.205v112.056
					C1439.759,803.376,1438.773,804.362,1437.554,804.362z M1327.7,799.952h107.649V692.306H1327.7V799.952z"/>
				<path style="fill:#E6D0BE;" d="M1305.265,804.362h-112.056c-1.219,0-2.205-0.986-2.205-2.205V690.101
					c0-1.219,0.986-2.205,2.205-2.205h112.056c1.219,0,2.205,0.986,2.205,2.205v112.056
					C1307.47,803.376,1306.483,804.362,1305.265,804.362z M1195.413,799.952h107.646V692.306h-107.646V799.952z"/>
				<path style="fill:#E6D0BE;" d="M2098.995,935.747h-112.056c-1.219,0-2.205-0.986-2.205-2.205V821.486
					c0-1.219,0.986-2.205,2.205-2.205h112.056c1.219,0,2.205,0.986,2.205,2.205v112.056
					C2101.2,934.761,2100.214,935.747,2098.995,935.747z M1989.144,931.337h107.646V823.691h-107.646V931.337z"/>
				<path style="fill:#E6D0BE;" d="M1966.706,935.747H1854.65c-1.219,0-2.205-0.986-2.205-2.205V821.486
					c0-1.219,0.986-2.205,2.205-2.205h112.056c1.219,0,2.205,0.986,2.205,2.205v112.056
					C1968.911,934.761,1967.925,935.747,1966.706,935.747z M1856.855,931.337h107.646V823.691h-107.646V931.337z"/>
				<path style="fill:#E6D0BE;" d="M1834.419,935.747h-112.056c-1.219,0-2.205-0.986-2.205-2.205V821.486
					c0-1.219,0.986-2.205,2.205-2.205h112.056c1.219,0,2.205,0.986,2.205,2.205v112.056
					C1836.624,934.761,1835.638,935.747,1834.419,935.747z M1724.568,931.337h107.646V823.691h-107.646V931.337z"/>
				<path style="fill:#E6D0BE;" d="M1702.13,935.747h-112.056c-1.219,0-2.205-0.986-2.205-2.205V821.486
					c0-1.219,0.986-2.205,2.205-2.205h112.056c1.219,0,2.205,0.986,2.205,2.205v112.056
					C1704.335,934.761,1703.349,935.747,1702.13,935.747z M1592.279,931.337h107.646V823.691h-107.646V931.337z"/>
				<path style="fill:#E6D0BE;" d="M1569.841,935.747h-112.056c-1.219,0-2.205-0.986-2.205-2.205V821.486
					c0-1.219,0.986-2.205,2.205-2.205h112.056c1.219,0,2.205,0.986,2.205,2.205v112.056
					C1572.046,934.761,1571.06,935.747,1569.841,935.747z M1459.99,931.337h107.646V823.691H1459.99V931.337z"/>
				<path style="fill:#E6D0BE;" d="M1437.554,935.747h-112.058c-1.219,0-2.205-0.986-2.205-2.205V821.486
					c0-1.219,0.986-2.205,2.205-2.205h112.058c1.219,0,2.205,0.986,2.205,2.205v112.056
					C1439.759,934.761,1438.773,935.747,1437.554,935.747z M1327.7,931.337h107.649V823.691H1327.7V931.337z"/>
				<rect x="1193.208" y="821.485" style="fill:#D87355;" width="112.056" height="112.056"/>
				<path style="fill:#E6D0BE;" d="M2098.995,1067.132h-112.056c-1.219,0-2.205-0.986-2.205-2.205V952.871
					c0-1.219,0.986-2.205,2.205-2.205h112.056c1.219,0,2.205,0.986,2.205,2.205v112.056
					C2101.2,1066.146,2100.214,1067.132,2098.995,1067.132z M1989.144,1062.722h107.646V955.076h-107.646V1062.722z"/>
				<path style="fill:#E6D0BE;" d="M1966.706,1067.132H1854.65c-1.219,0-2.205-0.986-2.205-2.205V952.871
					c0-1.219,0.986-2.205,2.205-2.205h112.056c1.219,0,2.205,0.986,2.205,2.205v112.056
					C1968.911,1066.146,1967.925,1067.132,1966.706,1067.132z M1856.855,1062.722h107.646V955.076h-107.646V1062.722z"/>
				<rect x="1722.362" y="952.87" style="fill:#D87355;" width="112.056" height="112.056"/>
				<path style="fill:#E6D0BE;" d="M1702.13,1067.132h-112.056c-1.219,0-2.205-0.986-2.205-2.205V952.871
					c0-1.219,0.986-2.205,2.205-2.205h112.056c1.219,0,2.205,0.986,2.205,2.205v112.056
					C1704.335,1066.146,1703.349,1067.132,1702.13,1067.132z M1592.279,1062.722h107.646V955.076h-107.646V1062.722z"/>
				<path style="fill:#E6D0BE;" d="M1569.841,1067.132h-112.056c-1.219,0-2.205-0.986-2.205-2.205V952.871
					c0-1.219,0.986-2.205,2.205-2.205h112.056c1.219,0,2.205,0.986,2.205,2.205v112.056
					C1572.046,1066.146,1571.06,1067.132,1569.841,1067.132z M1459.99,1062.722h107.646V955.076H1459.99V1062.722z"/>
				<rect x="1325.497" y="952.87" style="fill:#D87355;" width="112.056" height="112.056"/>
				<path style="fill:#E6D0BE;" d="M1305.265,1067.132h-112.056c-1.219,0-2.205-0.986-2.205-2.205V952.871
					c0-1.219,0.986-2.205,2.205-2.205h112.056c1.219,0,2.205,0.986,2.205,2.205v112.056
					C1307.47,1066.146,1306.483,1067.132,1305.265,1067.132z M1195.413,1062.722h107.646V955.076h-107.646V1062.722z"/>
			</g>
			<g>
				
					<ellipse transform="matrix(0.7071 -0.7071 0.7071 0.7071 308.3626 1604.9137)" style="fill:#F2E6DC;" cx="2091.484" cy="430.23" rx="14.76" ry="14.76"/>
				
					<ellipse transform="matrix(0.9239 -0.3827 0.3827 0.9239 -12.2031 799.1115)" style="fill:#F2E6DC;" cx="2002.603" cy="430.23" rx="14.76" ry="14.76"/>
				
					<ellipse transform="matrix(0.2298 -0.9732 0.9732 0.2298 1055.3192 2193.9126)" style="fill:#F2E6DC;" cx="1913.722" cy="430.23" rx="14.76" ry="14.76"/>
				
					<ellipse transform="matrix(0.9239 -0.3827 0.3827 0.9239 -25.7343 731.0853)" style="fill:#F2E6DC;" cx="1824.842" cy="430.23" rx="14.76" ry="14.76"/>
				
					<ellipse transform="matrix(0.9239 -0.3827 0.3827 0.9239 -32.4999 697.0721)" style="fill:#F2E6DC;" cx="1735.961" cy="430.23" rx="14.76" ry="14.76"/>
				
					<ellipse transform="matrix(0.9239 -0.3827 0.3827 0.9239 -39.2655 663.0591)" style="fill:#F2E6DC;" cx="1647.081" cy="430.23" rx="14.76" ry="14.76"/>
				
					<ellipse transform="matrix(0.9239 -0.3827 0.3827 0.9239 -46.0311 629.046)" style="fill:#F2E6DC;" cx="1558.2" cy="430.23" rx="14.76" ry="14.76"/>
				
					<ellipse transform="matrix(0.9239 -0.3827 0.3827 0.9239 -52.7967 595.033)" style="fill:#F2E6DC;" cx="1469.32" cy="430.23" rx="14.76" ry="14.76"/>
				
					<ellipse transform="matrix(0.9239 -0.3827 0.3827 0.9239 -59.5624 561.0199)" style="fill:#F2E6DC;" cx="1380.439" cy="430.23" rx="14.76" ry="14.76"/>
				
					<ellipse transform="matrix(0.7071 -0.7071 0.7071 0.7071 74.07 1039.2814)" style="fill:#F2E6DC;" cx="1291.559" cy="430.23" rx="14.76" ry="14.76"/>
				
					<ellipse transform="matrix(0.9239 -0.3827 0.3827 0.9239 -73.0936 492.9937)" style="fill:#F2E6DC;" cx="1202.678" cy="430.23" rx="14.76" ry="14.76"/>
				<g>
					<g>
						<path style="fill:#FFFFFF;" d="M1204.536,347.228v82.099V347.228z"/>
						<path style="fill:#D3BBA3;" d="M1204.536,431.532c-1.219,0-2.205-0.986-2.205-2.205v-82.099c0-1.219,0.986-2.205,2.205-2.205
							s2.205,0.986,2.205,2.205v82.099C1206.741,430.546,1205.755,431.532,1204.536,431.532z"/>
					</g>
					<g>
						<path style="fill:#FFFFFF;" d="M1293.219,347.228v82.099V347.228z"/>
						<path style="fill:#D3BBA3;" d="M1293.22,431.532c-1.219,0-2.205-0.986-2.205-2.205v-82.099c0-1.219,0.986-2.205,2.205-2.205
							c1.219,0,2.205,0.986,2.205,2.205v82.099C1295.425,430.546,1294.439,431.532,1293.22,431.532z"/>
					</g>
					<g>
						<path style="fill:#FFFFFF;" d="M1381.903,347.228v82.099V347.228z"/>
						<path style="fill:#D3BBA3;" d="M1381.902,431.532c-1.219,0-2.205-0.986-2.205-2.205v-82.099c0-1.219,0.986-2.205,2.205-2.205
							c1.219,0,2.205,0.986,2.205,2.205v82.099C1384.106,430.546,1383.12,431.532,1381.902,431.532z"/>
					</g>
					<g>
						<path style="fill:#FFFFFF;" d="M1470.586,347.228v82.099V347.228z"/>
						<path style="fill:#D3BBA3;" d="M1470.585,431.532c-1.219,0-2.205-0.986-2.205-2.205v-82.099c0-1.219,0.986-2.205,2.205-2.205
							c1.219,0,2.205,0.986,2.205,2.205v82.099C1472.79,430.546,1471.804,431.532,1470.585,431.532z"/>
					</g>
					<g>
						<path style="fill:#FFFFFF;" d="M1559.269,347.228v82.099V347.228z"/>
						<path style="fill:#D3BBA3;" d="M1559.269,431.532c-1.219,0-2.205-0.986-2.205-2.205v-82.099c0-1.219,0.986-2.205,2.205-2.205
							c1.219,0,2.205,0.986,2.205,2.205v82.099C1561.474,430.546,1560.488,431.532,1559.269,431.532z"/>
					</g>
					<g>
						<path style="fill:#FFFFFF;" d="M1647.953,347.228v82.099V347.228z"/>
						<path style="fill:#D3BBA3;" d="M1647.953,431.532c-1.219,0-2.205-0.986-2.205-2.205v-82.099c0-1.219,0.986-2.205,2.205-2.205
							c1.219,0,2.205,0.986,2.205,2.205v82.099C1650.157,430.546,1649.171,431.532,1647.953,431.532z"/>
					</g>
					<g>
						<path style="fill:#FFFFFF;" d="M1736.636,347.228v82.099V347.228z"/>
						<path style="fill:#D3BBA3;" d="M1736.636,431.532c-1.219,0-2.205-0.986-2.205-2.205v-82.099c0-1.219,0.986-2.205,2.205-2.205
							s2.205,0.986,2.205,2.205v82.099C1738.841,430.546,1737.855,431.532,1736.636,431.532z"/>
					</g>
					<g>
						<path style="fill:#FFFFFF;" d="M1825.32,347.228v82.099V347.228z"/>
						<path style="fill:#D3BBA3;" d="M1825.32,431.532c-1.219,0-2.205-0.986-2.205-2.205v-82.099c0-1.219,0.986-2.205,2.205-2.205
							c1.219,0,2.205,0.986,2.205,2.205v82.099C1827.525,430.546,1826.539,431.532,1825.32,431.532z"/>
					</g>
					<g>
						<path style="fill:#FFFFFF;" d="M1914.003,347.228v82.099V347.228z"/>
						<path style="fill:#D3BBA3;" d="M1914.004,431.532c-1.219,0-2.205-0.986-2.205-2.205v-82.099c0-1.219,0.986-2.205,2.205-2.205
							c1.219,0,2.205,0.986,2.205,2.205v82.099C1916.208,430.546,1915.222,431.532,1914.004,431.532z"/>
					</g>
					<g>
						<path style="fill:#FFFFFF;" d="M2002.686,347.228v82.099V347.228z"/>
						<path style="fill:#D3BBA3;" d="M2002.687,431.532c-1.219,0-2.205-0.986-2.205-2.205v-82.099c0-1.219,0.986-2.205,2.205-2.205
							c1.219,0,2.205,0.986,2.205,2.205v82.099C2004.892,430.546,2003.906,431.532,2002.687,431.532z"/>
					</g>
					<g>
						<path style="fill:#FFFFFF;" d="M2091.37,347.228v82.099V347.228z"/>
						<path style="fill:#D3BBA3;" d="M2091.369,431.532c-1.219,0-2.205-0.986-2.205-2.205v-82.099c0-1.219,0.986-2.205,2.205-2.205
							c1.219,0,2.205,0.986,2.205,2.205v82.099C2093.574,430.546,2092.588,431.532,2091.369,431.532z"/>
					</g>
				</g>
			</g>
			<g>
				<g>
					<polygon style="fill:#ff6900;" points="1374.595,794.963 1331.203,745.946 1346.327,732.725 1373.233,762.869 1415.656,705.06
						1431.846,716.95 					"/>
				</g>
				<g>
					<polygon style="fill:#ff6900;" points="1507.863,923.637 1464.471,874.62 1479.595,861.399 1506.5,891.544 1548.923,833.734
						1565.114,845.624 					"/>
				</g>
				<g>
					<polygon style="fill:#ff6900;" points="2036.038,661.999 1992.646,612.982 2007.77,599.761 2034.675,629.905 2077.098,572.096
						2093.289,583.986 					"/>
				</g>
				<g>
					<polygon style="fill:#ff6900;" points="1903.749,923.637 1860.357,874.62 1875.481,861.399 1902.387,891.544 1944.81,833.734
						1961,845.624 					"/>
				</g>
			</g>
		</g>
		<g>
			<g>
				<g>
					<path style="fill:#D3BBA3;" d="M377.675,2145.486c-1.128,0-2.272-0.112-3.421-0.342c-9.321-1.882-15.376-10.998-13.496-20.323
						l183.394-908.463c0.913-4.515,3.529-8.408,7.368-10.957c3.839-2.547,8.447-3.449,12.958-2.539
						c9.323,1.884,15.378,11,13.496,20.326l-183.392,908.461C392.93,2139.823,385.713,2145.486,377.675,2145.486z M561.037,1206.927
						c-2.502,0-4.948,0.732-7.077,2.147c-2.857,1.899-4.806,4.795-5.484,8.158l-183.394,908.461
						c-1.402,6.942,3.105,13.729,10.047,15.128c6.931,1.397,13.728-3.105,15.13-10.047l183.392-908.461
						c1.402-6.94-3.105-13.726-10.047-15.128C562.749,1207.013,561.89,1206.927,561.037,1206.927z"/>
					<path style="fill:#D3BBA3;" d="M938.804,2145.491c-3.359,0-6.645-0.986-9.506-2.885c-3.839-2.549-6.455-6.442-7.366-10.959
						l-183.394-908.459c-1.882-9.325,4.173-18.442,13.496-20.326c4.513-0.913,9.119-0.011,12.958,2.539
						c3.841,2.549,6.457,6.442,7.368,10.959l183.394,908.459c0.911,4.517,0.009,9.121-2.541,12.958
						c-2.549,3.841-6.44,6.458-10.957,7.368C941.106,2145.375,939.952,2145.491,938.804,2145.491z M755.474,1206.927
						c-0.853,0-1.712,0.084-2.566,0.258c-6.942,1.402-11.448,8.188-10.047,15.128l183.394,908.461
						c0.678,3.363,2.625,6.259,5.482,8.158c2.857,1.897,6.287,2.575,9.644,1.888c0,0,0,0,0.002,0
						c3.361-0.678,6.259-2.625,8.156-5.482c1.897-2.859,2.569-6.285,1.891-9.648l-183.394-908.459
						c-0.678-3.363-2.625-6.259-5.482-8.158C760.422,1207.659,757.977,1206.927,755.474,1206.927z"/>
				</g>
				<path style="fill:#D3BBA3;" d="M820.674,1669.396H495.838c-1.219,0-2.205-0.986-2.205-2.205c0-1.219,0.986-2.205,2.205-2.205
					h324.836c1.219,0,2.205,0.986,2.205,2.205C822.879,1668.41,821.893,1669.396,820.674,1669.396z"/>
				<path style="fill:#D3BBA3;" d="M820.674,1705.661H495.838c-1.219,0-2.205-0.986-2.205-2.205c0-1.219,0.986-2.205,2.205-2.205
					h324.836c1.219,0,2.205,0.986,2.205,2.205C822.879,1704.675,821.893,1705.661,820.674,1705.661z"/>
				<g>
					<path style="fill:#F2E6DC;" d="M796.625,1150.548H519.887c-23.082,0-41.795,18.711-41.795,41.795v7.898
						c0,23.081,18.712,41.794,41.795,41.794h276.738c23.082,0,41.795-18.713,41.795-41.794v-7.898
						C838.419,1169.26,819.707,1150.548,796.625,1150.548z"/>
					<path style="fill:#D3BBA3;" d="M796.625,1244.241H519.886c-24.262,0-44-19.738-44-44v-7.898c0-24.262,19.738-43.999,44-43.999
						h276.739c24.262,0,43.999,19.738,43.999,43.999v7.898C840.625,1224.503,820.887,1244.241,796.625,1244.241z M519.886,1152.754
						c-21.831,0-39.59,17.759-39.59,39.59v7.898c0,21.831,17.759,39.59,39.59,39.59h276.739c21.831,0,39.59-17.759,39.59-39.59
						v-7.898c0-21.831-17.759-39.59-39.59-39.59H519.886z"/>
				</g>
			</g>
			<g>
				<g>
					<g>
						<path style="fill:#FFFFFF;" d="M1241.049,2147.221c0,0-39.687-108.489-185.605-173.131h-81.826
							c0,0-45.623,77.498-39.384,173.131H1241.049z"/>
						<path style="fill:#9E6C5A;" d="M951.091,1894.647l18.029,88.877c3.433,16.924,17.064,29.876,34.131,32.509
							c0.519,0.08,1.042,0.158,1.568,0.234c27.524,3.956,50.771-20.453,46.004-47.848l-12.007-69.004L951.091,1894.647z"/>
						<path style="fill:#363E44;" d="M1051.448,2041.416c-0.663,0-1.32-0.297-1.753-0.865c-0.741-0.967-0.556-2.351,0.411-3.09
							l36.649-28.04c0.965-0.739,2.353-0.556,3.09,0.411c0.741,0.967,0.556,2.351-0.411,3.09l-36.649,28.04
							C1052.387,2041.268,1051.915,2041.416,1051.448,2041.416z"/>
						<path style="fill:#363E44;" d="M1071.64,2055.436c-0.663,0-1.32-0.297-1.753-0.866c-0.741-0.967-0.556-2.351,0.411-3.09
							l36.649-28.038c0.965-0.739,2.353-0.558,3.09,0.411c0.741,0.967,0.556,2.351-0.411,3.09l-36.649,28.038
							C1072.579,2055.287,1072.107,2055.436,1071.64,2055.436z"/>
					</g>
					<g>
						<path style="fill:#FFFFFF;" d="M638.834,1856.204l172.552-215.99c0,0-59.954-77.018-108.797-70.429l-49.06,45.417
							C653.528,1615.202,563.619,1776.557,638.834,1856.204z"/>
						<path style="fill:#9E6C5A;" d="M575.624,1581.367l83.992,52.409c16.488,10.288,37.855,8.072,51.88-5.381
							c16.724-16.041,17.501-42.527,1.747-59.522l-48.515-52.334L575.624,1581.367z"/>
						<path style="fill:#363E44;" d="M647.837,1680.44c-0.136,0-0.271-0.013-0.409-0.039l-22.477-4.231
							c-1.197-0.224-1.985-1.378-1.759-2.573c0.224-1.197,1.385-1.979,2.573-1.759l22.477,4.231
							c1.197,0.224,1.985,1.378,1.759,2.573C649.802,1679.701,648.877,1680.44,647.837,1680.44z"/>
						<path style="fill:#363E44;" d="M639.734,1701.168c0,0-19.258-3.708-22.186-4.265c-1.195-0.228-1.981-1.382-1.753-2.579
							c0.228-1.195,1.365-1.979,2.58-1.753c2.928,0.558,22.195,4.265,22.195,4.265L639.734,1701.168z"/>
					</g>
					<path style="fill:#ff6900;" d="M638.732,980.657c0,0-154.489,127.871-232.354,303.791
						c-23.889,53.973-19.202,116.391,12.065,166.452c35.295,56.511,91.077,132.051,164.64,188.58l137.658-122.942l-105.663-117.502
						l95.455-139.626c0,0,90.042,317.731,201.76,648.743h162.361c0,0-56.233-440.79-179.169-888.166L638.732,980.657z"/>
					<path style="fill:#363E44;" d="M584.911,1447.336c-0.413,0-0.833-0.116-1.206-0.36c-1.018-0.667-1.303-2.035-0.637-3.053
						l26.361-40.251c0.67-1.016,2.035-1.3,3.053-0.637c1.018,0.667,1.303,2.035,0.637,3.053l-26.361,40.251
						C586.334,1446.985,585.63,1447.336,584.911,1447.336z"/>
					<path style="fill:#363E44;" d="M715.411,1244.241c-0.379,0-0.762-0.097-1.113-0.302c-1.051-0.616-1.402-1.968-0.788-3.019
						l26.791-45.744c0.448-0.762,1.318-1.169,2.183-1.072l21.133,2.711c1.208,0.155,2.063,1.26,1.908,2.467
						c-0.155,1.208-1.255,2.052-2.467,1.908l-19.688-2.526l-26.053,44.486C716.905,1243.851,716.169,1244.241,715.411,1244.241z"/>
				</g>
				<g>
					<path style="fill:#9E6C5A;" d="M520.546,730.752c-48.894,35.884-196.34,130.807-155.806,192.27
						c33.528,50.839,173.043-47.939,223.906-80.424C565.946,805.316,543.246,768.034,520.546,730.752z"/>
					<g>
						<path style="fill:#9E6C5A;" d="M886.627,864.123c63.891-3.022,248.814-0.458,249.035-78.106
							c0.183-64.227-180.019-58.779-243.658-59.891C890.211,772.125,888.418,818.124,886.627,864.123z"/>
						<g>
							<path style="fill:#9E6C5A;" d="M1015.011,761.095c0,0,115.114-116.833,155.687-153.019
								c42.61-38.003,111.054-87.908,117.912-78.244c3.906,5.505-4.021,14.241-26.762,36.182c2.259,0.04,9.071,1.855,11.857,7.555
								c4.122,8.435-1.779,13.637-2.079,14.34c0.767-0.048,9.534-0.132,13.25,5.048c4.185,5.833,3.021,11.816,0.113,16.643
								c1.907-0.061,10.036,1.019,13.353,6.172c4.314,6.699,0.345,14.576-4.628,18.882c-9.124,7.898-34.593,28.859-46.646,41.665
								c-23.719,25.198-95.938,125.991-139.846,153.35C1097.458,785.97,1015.011,761.095,1015.011,761.095z"/>
							<path style="fill:#363E44;" d="M1213.201,655.547c-0.362,0-0.728-0.088-1.066-0.276c-1.066-0.59-1.451-1.931-0.861-2.997
								c5.831-10.529,6.184-20.38,6.468-28.292c0.299-8.337,0.556-15.535,7.997-18.08c4.183-1.432,8.574-5.333,12.697-11.28
								c1.085-1.563,0.265-2.982-0.013-3.378c-0.581-0.837-1.731-1.587-3.234-1.208l-35.936,9.28
								c-1.173,0.312-2.381-0.403-2.685-1.583c-0.306-1.18,0.403-2.381,1.583-2.685l35.936-9.28c3.03-0.788,6.158,0.377,7.956,2.954
								c1.781,2.558,1.789,5.859,0.017,8.412c-4.73,6.823-9.741,11.177-14.893,12.94c-4.375,1.497-4.715,5.62-5.019,14.064
								c-0.284,7.941-0.674,18.818-7.015,30.271C1214.729,655.138,1213.976,655.547,1213.201,655.547z"/>
							<path style="fill:#363E44;" d="M1273.379,645.001c-0.616,0-1.227-0.256-1.662-0.758c-5.46-6.272-6.487-15.035-3.219-22.244
								l-0.052,0.034c-5.704,3.688-13.231,2.78-17.888-2.166c-2.625-2.786-3.979-6.425-3.818-10.247
								c0.164-3.824,1.824-7.334,4.674-9.887l2.089-1.869c-3.322-0.2-6.541-1.796-8.669-4.633
								c-3.572-4.765-2.995-11.438,1.339-15.518l9.891-9.319c0.887-0.838,2.28-0.794,3.116,0.092
								c0.835,0.885,0.794,2.282-0.093,3.116l-9.891,9.319c-2.698,2.543-3.057,6.698-0.833,9.665
								c2.36,3.148,6.884,3.835,10.075,1.542l7.607-5.471c0.956-0.687,2.274-0.504,3.006,0.409c0.734,0.913,0.627,2.241-0.248,3.023
								l-14.448,12.93c-1.957,1.753-3.098,4.164-3.21,6.789c-0.112,2.625,0.82,5.124,2.62,7.036
								c3.204,3.398,8.372,4.024,12.286,1.486l12.225-7.913c0.945-0.612,2.201-0.413,2.911,0.465
								c0.708,0.876,0.644,2.147-0.153,2.943l-5.234,5.245c-6.035,6.048-6.369,15.832-0.76,22.279
								c0.801,0.917,0.704,2.31-0.215,3.109C1274.408,644.823,1273.893,645.001,1273.379,645.001z"/>
						</g>
					</g>
					<path style="fill:#EFBC73;" d="M619.321,704.708c24.634,0.248,39.208-2.965,154.187,3.525
						c176.616,9.969,204.161,13.533,247.439-0.545c32.301-10.507,80.535-33.174,131.009-89.188
						c27.217,29.776,54.432,59.554,81.649,89.33c-10.212,22.608-44.68,91.244-125.177,135.42
						c-83.653,45.909-163.27,35.908-187.251,31.972c14.566,95.707,29.133,191.412,43.699,287.119c0,0-243.53-42.184-446.774-75.401
						l36.211-161.516l-138.706-130.3c0,0,4.854-4.431,14.749-14.178C480.67,731.383,548.698,703.995,619.321,704.708z"/>
					<g>
						<g>
							<polygon style="fill:#363E44;" points="793.272,1015.145 645.278,1015.145 720.863,838.315 868.857,838.315 							"/>
							<path style="fill:#FFFFFF;" d="M746.794,859.65c0,4.278-3.468,7.746-7.746,7.746c-4.278,0-7.746-3.468-7.746-7.746
								c0-4.278,3.468-7.746,7.746-7.746C743.326,851.904,746.794,855.372,746.794,859.65z"/>
						</g>
						<g>
							<path style="fill:#FFFFFF;" d="M700.636,857.601c-0.155,0-0.312-0.015-0.471-0.049l-48.054-10.46
								c-1.189-0.26-1.944-1.434-1.686-2.625c0.26-1.189,1.427-1.949,2.625-1.686l48.054,10.46c1.188,0.26,1.944,1.434,1.686,2.625
								C702.563,856.897,701.65,857.601,700.636,857.601z"/>
							<path style="fill:#FFFFFF;" d="M717.19,831.875c-0.693,0-1.378-0.327-1.807-0.939l-35.406-50.424
								c-0.7-0.995-0.459-2.371,0.538-3.07c0.997-0.702,2.371-0.459,3.07,0.538l35.406,50.424c0.7,0.995,0.459,2.371-0.538,3.07
								C718.068,831.746,717.627,831.875,717.19,831.875z"/>
							<path style="fill:#FFFFFF;" d="M740.4,831.875c-0.03,0-0.06,0-0.088-0.002c-1.216-0.047-2.164-1.072-2.116-2.289l1.806-45.89
								c0.045-1.219,1.146-2.207,2.289-2.117c1.217,0.047,2.164,1.072,2.117,2.289l-1.807,45.89
								C742.556,830.945,741.578,831.875,740.4,831.875z"/>
						</g>
					</g>
					<g>
						<path style="fill:#9E6C5A;" d="M447.897,844.936c49.809,10.937,168.38,30.888,179.877,33.296
							c21.492,4.502,136.204,31.657,134.08,48.635c-1.015,8.112-23.351,3.88-30.86,2.229c5.407,4.323,27.972,18.676,24.515,27.164
							c-4.062,9.972-33.569-3.014-34.155-2.927c5.937,3.833,30.203,18.145,27.859,24.609c-3.05,8.41-29.618,1.867-37.482-0.46
							c0.507,1.317,24.389,16.657,22.307,21.728c-2.306,5.619-27.226,0.11-37.3-1.155c-19.098-3.985-94.149-15.487-130.871-19.341
							c-86.248-9.05-124.268-16.91-165.2-28.621c-16.023-4.584-31.305-15.351-37.776-28.091
							c-8.191-16.128-3.993-32.128,12.154-40.282C399.335,869.453,423.422,857.366,447.897,844.936z"/>
						<g>
							<path style="fill:#363E44;" d="M731.424,930.56c-0.398,0-0.799-0.108-1.163-0.332c-3.811-2.371-7.825-4.496-11.928-6.317
								c-7.366-3.271-15.16-5.633-23.168-7.021c-1.199-0.209-2.005-1.35-1.796-2.549c0.207-1.199,1.356-1.992,2.549-1.796
								c8.363,1.451,16.506,3.919,24.203,7.336c4.289,1.903,8.486,4.125,12.469,6.602c1.034,0.644,1.35,2.002,0.708,3.038
								C732.882,930.192,732.16,930.56,731.424,930.56z"/>
							<path style="fill:#363E44;" d="M721.896,955.076c-0.319,0-0.644-0.069-0.952-0.218c-0.85-0.409-1.722-0.81-2.614-1.206
								c-7.364-3.271-15.158-5.633-23.166-7.021c-1.199-0.209-2.005-1.35-1.796-2.549c0.207-1.199,1.356-1.996,2.549-1.796
								c8.363,1.451,16.506,3.919,24.203,7.336c0.93,0.413,1.841,0.835,2.73,1.262c1.098,0.528,1.561,1.843,1.034,2.941
								C723.507,954.615,722.719,955.076,721.896,955.076z"/>
							<path style="fill:#363E44;" d="M711.262,979.346c-0.239,0-0.482-0.039-0.719-0.121c-4.965-1.714-10.139-3.045-15.378-3.955
								c-1.199-0.209-2.005-1.35-1.796-2.549c0.211-1.199,1.356-2.002,2.549-1.796c5.471,0.952,10.876,2.34,16.062,4.132
								c1.152,0.398,1.761,1.654,1.365,2.803C713.032,978.773,712.177,979.346,711.262,979.346z"/>
						</g>
					</g>
					<g>
						<path style="fill:#EFBC73;" d="M612.13,871.129l-23.485,119.487c0,0-218.995-17.681-229.831-67.304
							c-10.836-49.623,14.323-78.731,56.793-128.188C468.746,767.431,612.13,871.129,612.13,871.129z"/>
						<path style="fill:#363E44;" d="M596.127,870.336c-0.086,0-0.174-0.004-0.26-0.015
							c-39.241-4.649-131.742-20.668-148.442-24.335c-1.189-0.261-1.94-1.436-1.679-2.627c0.26-1.188,1.443-1.94,2.627-1.679
							c16.646,3.656,108.876,19.624,148.011,24.262c1.21,0.144,2.073,1.24,1.931,2.448
							C598.181,869.512,597.229,870.336,596.127,870.336z"/>
					</g>
				</g>
				<g>
					<polygon style="fill:#9E6C5A;" points="687.485,709.552 766.256,725.212 808.826,651.48 742.966,613.456 					"/>
					<path style="fill:#9E6C5A;" d="M658.904,711.424c-2.753,13.58,27.484,31.171,67.538,39.291
						c40.053,8.12,74.755,3.694,77.508-9.886c2.753-13.58-27.485-31.171-67.538-39.291
						C696.359,693.417,661.657,697.843,658.904,711.424z"/>
					<g>
						<path style="fill:#9E6C5A;" d="M841.802,662.723c-10.066,16.373-62.624,5.89-62.624,5.89l-44.037-38.841
							c-10.581-24.882,1.013-53.63,25.896-64.211c24.882-10.58,53.63,1.014,64.211,25.896
							C825.248,591.458,852.055,646.047,841.802,662.723z"/>
						<path style="fill:#9E6C5A;" d="M825.108,605.506c0,0,18.266,7.866,19.081,11.648c0.972,4.513-12.023,13.044-12.023,13.044
							S825.457,605.395,825.108,605.506z"/>
						<g>
							<path style="fill:#FFFFFF;" d="M783.629,620.867c0,0,5.818-7.264,14.91-11.13c1.935-0.822,4.867,16.209,2.658,16.114
								C791.485,625.43,783.629,620.867,783.629,620.867z"/>
							<g>
								<defs>
									<path id="SVGID_1_" d="M783.629,620.867c0,0,8.556-10.684,21.134-13.033c12.578-2.349,24.414,4.526,24.414,4.526
										s-8.556,10.684-21.134,13.033C795.465,627.742,783.629,620.867,783.629,620.867z"/>
								</defs>
								<clipPath id="SVGID_00000106121726725766255970000004926603502881500330_">
									<use xlink:href="#SVGID_1_"  style="overflow:visible;"/>
								</clipPath>
								
									<ellipse transform="matrix(0.3456 -0.9384 0.9384 0.3456 -44.6313 1166.8705)" style="clip-path:url(#SVGID_00000106121726725766255970000004926603502881500330_);fill:#363E44;" cx="814.274" cy="615.434" rx="16.733" ry="16.733"/>
							</g>
						</g>
						<path style="fill:#363E44;" d="M821.643,645.492c-0.515,0-1.034-0.043-1.552-0.133c-3.374-0.592-6.177-3.111-7.14-6.414
							c-0.34-1.169,0.331-2.394,1.498-2.734c1.182-0.349,2.394,0.332,2.734,1.499c0.497,1.705,1.938,3.002,3.669,3.305
							c1.802,0.325,3.628-0.465,4.668-1.99c0.685-1.005,2.056-1.272,3.062-0.581c1.008,0.685,1.268,2.056,0.581,3.062
							C827.452,644.022,824.612,645.492,821.643,645.492z"/>
						<path style="fill:#363E44;" d="M812.305,674.911c-16.14,0-32.306-3.174-33.227-3.359c-1.195-0.237-1.97-1.4-1.731-2.592
							c0.237-1.193,1.404-1.983,2.592-1.731c0.301,0.058,30.32,5.951,48.607,1.746c1.186-0.273,2.368,0.469,2.642,1.656
							c0.273,1.186-0.469,2.369-1.656,2.642C824.319,674.469,818.312,674.911,812.305,674.911z"/>
					</g>
					<path style="fill:#363E44;" d="M801.292,574.455c8.362-0.818,15.496-6.425,18.205-14.379
						c4.837-14.202,10.188-36.489,1.707-48.829c-1.615-2.349-3.198-3.678-5.609-4.713c-13.425-5.764-24.642,19.083-53.574,31.206
						c-27.879,11.681-48.715,1.701-58.617,17.214c-4.354,6.821-3.91,14.512-3.872,16.381c0.492,24.688,21.854,34.17,21.854,34.17
						s-14.505-4.997-18.495,14.924c-3.989,19.921,59.561,17.897,59.561,17.897l7.136-8.128l-8.803-19.824
						c-6.694-15.076,3.334-32.282,19.751-33.888L801.292,574.455z"/>
					<path style="fill:#9E6C5A;" d="M726.478,633.668c0,9.326,7.56,16.886,16.886,16.886c9.326,0,16.886-7.56,16.886-16.886
						c0-9.326-7.56-16.886-16.886-16.886C734.038,616.782,726.478,624.342,726.478,633.668z"/>
					<path style="fill:#EFBC73;" d="M770.45,533.151c0,0-9.169,71.358-43.275,107.656c-21.02,0.451-24.434-7.139-24.434-7.139
						s38.572-71.498,40.623-100.517C754.519,528.031,770.45,533.151,770.45,533.151z"/>
					<path style="fill:#EFBC73;" d="M744.289,536.851c-23.279-1.098-44.322,8.921-53.213,26.172
						c-8.551,16.594-3.331,34.976-2.56,37.555c0,0,1.755,5.872,17.559,31.328C706.075,631.905,748.083,565.121,744.289,536.851z"/>
					<path style="fill:#E0AA63;" d="M718.107,613.425c-0.413,0-0.833-0.116-1.206-0.36c-1.018-0.667-1.303-2.035-0.637-3.053
						c18.993-28.986,23.928-69.038,23.975-69.441c0.142-1.208,1.229-2.08,2.45-1.929c1.208,0.144,2.073,1.24,1.929,2.45
						c-0.2,1.68-5.112,41.491-24.664,71.336C719.53,613.075,718.826,613.425,718.107,613.425z"/>
				</g>
			</g>
		</g>
		<g>
			<g>
				<polygon style="opacity:0.5;fill:#FFFFFF;" points="1556.471,1996.773 1555.587,1702.006 2046.042,1700.535 2046.93,2068.373 
					1986.347,1996.773 				"/>
				<path style="fill:#ff6900;" d="M2064.829,2052.677c-0.635,0-1.255-0.276-1.684-0.781l-59.922-70.817h-428.852
					c-1.214,0-2.2-0.984-2.205-2.198l-0.885-294.767c-0.002-0.586,0.228-1.146,0.642-1.561c0.411-0.416,0.971-0.648,1.557-0.65
					l490.456-1.471c0.002,0,0.004,0,0.006,0c0.583,0,1.141,0.23,1.555,0.642c0.416,0.413,0.648,0.973,0.65,1.559l0.887,367.837
					c0.002,0.926-0.575,1.755-1.445,2.073C2065.342,2052.634,2065.083,2052.677,2064.829,2052.677z M1576.569,1976.669h427.677
					c0.648,0,1.264,0.286,1.684,0.782l56.679,66.987l-0.868-359.59l-486.044,1.458L1576.569,1976.669z"/>
			</g>
			<g>
				<g>
					<g>
						<path style="fill:#363E44;" d="M1847.652,1941.788c-8.305,0-16.232-2.974-22.541-8.496l-107.896-94.476
							c-0.915-0.801-1.008-2.194-0.205-3.111l42.277-48.284c0.383-0.439,0.928-0.708,1.512-0.747c0.601-0.034,1.158,0.157,1.6,0.543
							l107.896,94.476c6.89,6.035,11.02,14.392,11.625,23.532c0.607,9.14-2.383,17.968-8.419,24.86
							c-6.033,6.89-14.389,11.02-23.529,11.627C1849.196,1941.762,1848.423,1941.788,1847.652,1941.788z M1721.78,1836.952
							l106.238,93.024c6.005,5.26,13.729,7.87,21.661,7.334c7.964-0.527,15.247-4.125,20.507-10.133
							c10.854-12.394,9.601-31.311-2.797-42.169l-106.236-93.022L1721.78,1836.952z"/>
						<path style="fill:#EFBC73;" d="M2016.454,1648.509c14.503,29.478,2.364,65.132-27.114,79.636
							c-29.478,14.504-65.132,2.364-79.636-27.114c-14.504-29.478-2.364-65.132,27.114-79.636S2001.951,1619.031,2016.454,1648.509z
							"/>
						<polygon style="fill:#D87355;" points="1730.347,1728.834 1778.917,1827.552 2023.391,1797.354 1902.767,1552.186 						"/>
						
							<rect x="1687.521" y="1738.944" transform="matrix(0.8973 -0.4415 0.4415 0.8973 -614.9307 944.874)" style="fill:#EFBC73;" width="70.744" height="109.729"/>
						<g>
							
								<rect x="1712.371" y="1807.774" transform="matrix(0.8973 -0.4415 0.4415 0.8973 -623.4961 951.1376)" style="fill:#D87355;" width="39.361" height="15.12"/>
							
								<rect x="1702.059" y="1786.816" transform="matrix(0.8973 -0.4415 0.4415 0.8973 -615.2989 944.4216)" style="fill:#D87355;" width="39.361" height="15.12"/>
							
								<rect x="1691.748" y="1765.857" transform="matrix(0.8973 -0.4415 0.4415 0.8973 -607.1018 937.7057)" style="fill:#D87355;" width="39.361" height="15.12"/>
						</g>
					</g>
				</g>
				<g>
					<path style="fill:#EFBC73;" d="M2003.613,1616.829c-0.202,0-0.407-0.028-0.611-0.086c-1.169-0.338-1.845-1.561-1.507-2.73
						l8.772-30.389c0.189-0.655,0.67-1.184,1.303-1.436c0.631-0.254,1.346-0.2,1.933,0.149l20.494,12.062l18.874-32.062
						c0.614-1.053,1.968-1.4,3.017-0.782c1.051,0.616,1.4,1.968,0.782,3.016l-19.992,33.964c-0.295,0.504-0.779,0.87-1.346,1.016
						c-0.571,0.146-1.169,0.063-1.671-0.235l-19.945-11.739l-7.984,27.659C2005.452,1616.201,2004.571,1616.829,2003.613,1616.829z"
						/>
					<path style="fill:#EFBC73;" d="M2062.056,1676.975c-0.396,0-0.79-0.108-1.137-0.317c-0.553-0.334-0.935-0.894-1.038-1.531
						l-2.739-16.67l-22.483,4.265c-1.214,0.226-2.351-0.558-2.577-1.755c-0.226-1.197,0.558-2.351,1.755-2.577l24.703-4.687
						c0.575-0.11,1.186,0.019,1.675,0.36c0.487,0.34,0.816,0.863,0.911,1.449l2.685,16.342l30.898-10.385
						c1.156-0.385,2.405,0.235,2.793,1.389c0.387,1.154-0.235,2.403-1.389,2.793l-33.354,11.209
						C2062.53,1676.937,2062.293,1676.975,2062.056,1676.975z"/>
					<path style="fill:#EFBC73;" d="M2068.869,1632.149c-0.065,0-0.127-0.002-0.192-0.009c-0.622-0.054-1.191-0.368-1.567-0.866
						l-10.826-14.318l-13.601,10.088c-0.978,0.726-2.362,0.521-3.083-0.457c-0.726-0.978-0.521-2.36,0.456-3.083l15.356-11.39
						c0.971-0.721,2.343-0.525,3.073,0.439l10.671,14.114l21.473-19.949c0.891-0.829,2.284-0.779,3.115,0.114
						c0.829,0.891,0.777,2.287-0.114,3.116l-23.26,21.611C2069.96,1631.94,2069.422,1632.149,2068.869,1632.149z"/>
				</g>
			</g>
		</g>
	</g>
</g>
</svg>
