<?xml version="1.0" encoding="utf-8"?>
<!-- Generator: Adobe Illustrator 27.5.0, SVG Export Plug-In . SVG Version: 6.00 Build 0)  -->
<svg version="1.1" xmlns="http://www.w3.org/2000/svg" xmlns:xlink="http://www.w3.org/1999/xlink" x="0px" y="0px"
	 viewBox="0 0 2500 2500" style="enable-background:new 0 0 2500 2500;" xml:space="preserve">
-
<g id="Illustration">
	<g id="Prize_pool_1_">
		<circle style="fill:transparent;" cx="1250" cy="1249.881" r="914.881"/>
		<g>
			<g>
				<path style="fill:#EFBC73;" d="M1233.509,1118.102c-0.369,11.657-0.571,23.388-0.571,35.201
					c0,353.84,167.064,640.683,373.147,640.683c206.079,0,373.142-286.843,373.142-640.683c0-11.813-0.201-23.544-0.571-35.201
					H1233.509z"/>
				<path style="fill:#EFBC73;" d="M1739.852,1806.55c0,39.856-59.89,72.165-133.768,72.165
					c-73.878,0-133.768-32.309-133.768-72.165c0-39.855,59.89-72.164,133.768-72.164
					C1679.962,1734.386,1739.852,1766.694,1739.852,1806.55z"/>
				<ellipse style="fill:#EFBC73;" cx="1606.084" cy="1914.601" rx="93.651" ry="173.597"/>
				<path style="fill:#EFBC73;" d="M1865.291,2160.089c-3.356-58.813-118.076-106.067-259.208-106.067
					c-141.132,0-255.852,47.254-259.208,106.067H1865.291z"/>
				<path style="fill:#EFBC73;" d="M1471.095,1655.38h-120.812c-153.94,0-279.179-125.239-279.179-279.177v-222.899
					c0-1.219,0.986-2.205,2.204-2.205h397.787c1.219,0,2.204,0.986,2.204,2.205v499.871
					C1473.299,1654.394,1472.313,1655.38,1471.095,1655.38z M1075.513,1155.508v220.694c0,151.508,123.262,274.768,274.77,274.768
					h118.608v-495.462H1075.513z"/>
				<path style="fill:#EFBC73;" d="M1858.638,1655.38h-120.812c-1.219,0-2.205-0.986-2.205-2.204v-499.871
					c0-1.219,0.986-2.205,2.205-2.205h397.785c1.219,0,2.205,0.986,2.205,2.205v222.899
					C2137.815,1530.141,2012.577,1655.38,1858.638,1655.38z M1740.031,1650.97h118.608c151.508,0,274.768-123.26,274.768-274.768
					v-220.694h-393.375V1650.97z"/>
			</g>
			<path style="fill:#F7F1EB;" d="M1718.551,1689.197c-0.581,0-1.16-0.228-1.593-0.68c-0.842-0.88-0.809-2.276,0.069-3.117
				c35.699-34.142,102.431-109.609,148.285-231.409c39.916-106.028,40.945-162.597,42.504-248.221
				c0.116-6.362,0.235-12.891,0.372-19.623c0.028-1.216,0.997-2.103,2.25-2.159c1.216,0.026,2.183,1.031,2.159,2.25
				c-0.138,6.728-0.256,13.255-0.373,19.613c-1.567,86.084-2.603,142.952-42.788,249.696
				c-46.16,122.616-113.394,198.638-149.361,233.041C1719.647,1688.994,1719.1,1689.197,1718.551,1689.197z"/>
		</g>
		<g>
			<g>
				<g>
					<path style="fill:#E6D0BE;" d="M897.477,2063.687c-7.876,0.972-13.506,8.1-12.629,15.99l7.169,64.501
						c0.941,8.466,8.372,15.127,17.717,15.892c32.338,2.646,106.964,6.583,164.706-6.88c0,0-26.28-84.275-111.497-97.58
						L897.477,2063.687z"/>
					<path style="fill:#9D6C5B;" d="M815.799,1672.123l69.625,397.261c2.464,14.06,13.89,24.841,28.074,26.398
						c11.27,1.237,25.458,0.987,40.422-3.751c13.67-4.329,22.759-17.286,22.312-31.622l-12.355-396.008L815.799,1672.123z"/>
				</g>
				<g>
					<path style="fill:#E6D0BE;" d="M521.042,1801.731c4.32-6.659,2.482-15.555-4.122-19.956l-53.992-35.98
						c-7.087-4.723-16.965-3.312-23.559,3.357c-22.818,23.075-73.815,77.721-100.634,130.617c0,0,81.419,34.051,146.397-22.685
						L521.042,1801.731z"/>
					<path style="fill:#9D6C5B;" d="M709.048,1684.3l-105.382,132.998c-6.251,7.889-17.281,10.112-26.097,5.26l-62.554-34.422
						c-8.785-4.834-19.584-4.061-27.584,1.986c-13.584,10.268-36.017,36.136-20.263,62.17c1.197,1.978,2.742,3.728,4.474,5.26
						l61.711,54.551c51.339,45.382,129.21,42.606,177.19-6.318l179.543-183.077L709.048,1684.3z"/>
				</g>
				<path style="fill:#363E44;" d="M601.201,1813.794c0.863-4.643,70.325-233.823,70.325-233.823l288.475-35.6
					c0,0,60.081,159.015,80.412,251.991L601.201,1813.794z"/>
			</g>
			<g>
				<g>
					<path style="fill:#9D6C5B;" d="M986.393,1288.637c0,0,101.007-80.798,136.143-105.365
						c36.901-25.801,95.137-58.519,99.607-50.311c2.546,4.676-4.474,10.781-24.322,25.85c1.765,0.242,6.93,2.297,8.581,7.022
						c2.443,6.991-2.662,10.516-2.963,11.039c0.605,0.033,7.478,0.784,9.905,5.187c2.734,4.959,1.266,9.537-1.461,13.047
						c1.499,0.13,7.763,1.732,9.882,6.078c2.754,5.649-1.086,11.45-5.381,14.359c-7.879,5.337-29.772,19.385-40.401,28.293
						c-20.917,17.53-86.845,89.756-123.771,107.099C1048.635,1315.797,986.393,1288.637,986.393,1288.637z"/>
					<path style="fill:#363E44;" d="M1151.603,1224.891c-0.446,0-0.896-0.136-1.285-0.415c-0.988-0.711-1.212-2.088-0.502-3.077
						c5.479-7.615,6.663-15.236,7.615-21.361c1.036-6.672,1.931-12.433,8.306-13.8c3.311-0.71,7.025-3.307,10.741-7.507
						c0.797-0.898,0.388-1.851,0.241-2.123c-0.149-0.278-0.704-1.182-1.944-1.001l-29.003,3.922c-1.216,0.159-2.316-0.685-2.48-1.89
						c-0.164-1.206,0.682-2.316,1.89-2.48l29.003-3.922c2.611-0.359,5.162,0.934,6.424,3.294c1.251,2.344,0.926,5.139-0.829,7.124
						c-4.407,4.98-8.82,7.972-13.117,8.894c-3.13,0.672-3.789,3.178-4.874,10.168c-0.971,6.241-2.297,14.788-8.394,23.257
						C1152.964,1224.572,1152.288,1224.891,1151.603,1224.891z"/>
					<path style="fill:#363E44;" d="M1199.707,1222.232c-0.706,0-1.397-0.338-1.823-0.965c-3.526-5.178-3.768-11.722-1.122-17.031
						c-4.743,1.692-10.112,0.116-13.167-4.017c-1.871-2.527-2.624-5.628-2.12-8.732s2.198-5.808,4.773-7.615l0.962-0.676
						c-2.304-0.678-4.362-2.2-5.645-4.418c-2.474-4.269-1.348-9.703,2.618-12.637l8.614-6.379c0.977-0.726,2.357-0.521,3.083,0.461
						c0.723,0.977,0.519,2.357-0.461,3.083l-8.614,6.379c-2.159,1.6-2.773,4.558-1.425,6.885c1.427,2.465,4.618,3.348,7.115,1.972
						l6.467-3.578c1.025-0.571,2.316-0.233,2.936,0.76c0.622,0.995,0.357,2.301-0.603,2.973l-12.517,8.784
						c-1.593,1.117-2.642,2.792-2.954,4.713c-0.31,1.92,0.155,3.839,1.313,5.404c2.056,2.781,5.798,3.69,8.9,2.168l10.31-5.061
						c1.003-0.497,2.233-0.153,2.835,0.803c0.603,0.954,0.385,2.207-0.5,2.906l-4.588,3.621c-5.096,4.024-6.226,11.384-2.57,16.754
						c0.687,1.005,0.426,2.377-0.581,3.061C1200.566,1222.109,1200.133,1222.232,1199.707,1222.232z"/>
				</g>
				<g>
					<path style="fill:#9D6C5B;" d="M614.409,1300.732c0-0.002,0.002-0.005,0.001-0.006
						c-49.068-72.768-82.486-125.337-93.44-141.161c-1.147-1.657-3.159-4.591-6.708-7.553c-13.152-10.975-26.345-4.749-45.438-9.976
						c-21.665-5.932-30.507-21.542-35.229-18.285c-3.285,2.265-1.607,9.093,6.607,20.639c0.001,0.001-0.001,0.003-0.001,0.003
						c-7.25-8.056-17.557-18.55-21.995-14.53c-4.876,4.916,5.786,18.668,12.643,26.672c-8.299-9.688-15.61-12.356-17.526-9.497
						c-3.016,4.499,1.671,13.511,13.137,25.889c0,0,0,0.001,0,0.001c-10.303-6.335-13.747-6.335-14.824-3.396
						c-1.968,5.368,7.65,15.367,17.507,22.902c11.096,8.484,22.644,11.212,29.966,12.759c0.002,0,0.004,0.002,0.005,0.003
						c29.084,54.53,50.183,88.464,70.307,134.153C542.245,1368.468,611.672,1348.794,614.409,1300.732z"/>
					<path style="fill:#9D6C5B;" d="M485.219,1150.916c-11.225-19.189-11.209-28.49-8.112-30.172
						c5.207-2.83,21.494,9.628,41.431,35.605C509.119,1155.668,494.637,1151.597,485.219,1150.916z"/>
					<g>
						<path style="fill:#363E44;" d="M490.336,1189.801c-0.758,0-1.496-0.392-1.905-1.094c-1.839-3.15-5.244-7.505-11.033-10.373
							c-8.19-4.063-16.093-2.5-19.105-1.641c-1.171,0.329-2.39-0.344-2.726-1.516c-0.334-1.171,0.344-2.392,1.516-2.725
							c3.511-0.999,12.7-2.809,22.274,1.929c6.766,3.354,10.741,8.433,12.881,12.103c0.613,1.051,0.258,2.401-0.792,3.014
							C491.096,1189.704,490.713,1189.801,490.336,1189.801z"/>
						<path style="fill:#363E44;" d="M503.992,1149.431c-0.202,0-0.409-0.028-0.614-0.086c-4.409-1.279-8.98-1.473-14.273-1.696
							c-2.478-0.105-5.038-0.213-7.744-0.446c-1.212-0.103-2.112-1.171-2.007-2.385c0.105-1.212,1.145-2.131,2.385-2.007
							c2.609,0.224,5.122,0.329,7.552,0.433c5.346,0.226,10.394,0.441,15.313,1.864c1.169,0.34,1.843,1.563,1.505,2.732
							C505.83,1148.804,504.95,1149.431,503.992,1149.431z"/>
						<path style="fill:#363E44;" d="M457.811,1156.544c-0.222,0-0.446-0.032-0.667-0.103c-2.71-0.861-5.348-1.976-7.841-3.315
							c-3.619-1.94-6.975-4.368-9.976-7.214c-0.883-0.837-0.919-2.235-0.082-3.117c0.84-0.883,2.235-0.919,3.117-0.082
							c2.715,2.577,5.752,4.773,9.025,6.53c2.256,1.21,4.642,2.217,7.092,2.997c1.16,0.37,1.802,1.608,1.434,2.769
							C459.613,1155.945,458.745,1156.544,457.811,1156.544z"/>
						<path style="fill:#363E44;" d="M447.43,1167.394c-0.22,0-0.446-0.032-0.667-0.103c-2.704-0.859-5.343-1.974-7.843-3.315
							c-3.621-1.942-6.977-4.37-9.976-7.214c-0.883-0.838-0.919-2.235-0.082-3.117c0.842-0.883,2.235-0.919,3.117-0.082
							c2.713,2.575,5.75,4.771,9.025,6.53c2.26,1.212,4.648,2.22,7.094,2.997c1.16,0.368,1.802,1.608,1.434,2.769
							C449.232,1166.796,448.364,1167.394,447.43,1167.394z"/>
						<path style="fill:#363E44;" d="M443.737,1185.289c-0.219,0-0.443-0.032-0.665-0.103c-2.7-0.855-5.339-1.97-7.845-3.313
							c-3.619-1.94-6.975-4.368-9.976-7.216c-0.883-0.838-0.919-2.235-0.082-3.117c0.842-0.883,2.235-0.921,3.117-0.082
							c2.717,2.579,5.753,4.775,9.025,6.532c2.265,1.214,4.652,2.222,7.092,2.995c1.16,0.368,1.804,1.606,1.436,2.766
							C445.542,1184.688,444.674,1185.289,443.737,1185.289z"/>
					</g>
				</g>
				<g>
					<path style="fill:#363E44;" d="M937.891,1688.833c-1.016,0-1.931-0.706-2.153-1.74c-0.256-1.19,0.5-2.364,1.69-2.62
						c75.74-16.327,92.691-34.002,96.054-43.085c2.088-5.643-0.525-9.184-0.639-9.333c-0.73-0.962-0.558-2.342,0.398-3.083
						c0.949-0.745,2.319-0.588,3.07,0.359c0.172,0.22,4.219,5.445,1.378,13.386c-4.359,12.185-25.13,30.069-99.331,46.065
						C938.201,1688.818,938.044,1688.833,937.891,1688.833z"/>
					<g>
						<path style="fill:#FFFFFF;" d="M886.203,1585.945l58.341,194.103c0,0,50.581-61.756,61.753-105.012l-32.73-102.197
							L886.203,1585.945z"/>
						<path style="fill:#FFFFFF;" d="M869.013,1584.351l1.63,200.472c0,0-177.46-14.794-224.013-102.101l5.832-62.926
							L869.013,1584.351z"/>
					</g>
					<path style="fill:#ff6900;" d="M612.496,1288.868l-84.228,58.11c7.389,15.497,22.091,41.036,49.375,63.921
						c36.55,30.656,75.114,39.299,92.941,42.13l-39.692,201.903c0,0,276.417-93.33,407.342-30.649l-58.33-206.12
						c47.923-30.508,66.802-43.582,124.89-100.24c-22.751-22.276-47.116-45.842-69.867-68.118
						c-83.437,58.953-157.829,82.872-203.632,93.621c-56.126,13.172-86.303,10.555-106.979,6.457
						C668.598,1338.839,630.797,1306.912,612.496,1288.868z"/>
					<g>
						<path style="fill:#363E44;" d="M787.419,1534.742c-4.301,0-8.678-0.515-13.044-1.582
							c-14.743-3.613-27.191-13.128-34.149-26.11c-0.577-1.074-0.172-2.409,0.9-2.986c1.076-0.573,2.409-0.168,2.986,0.902
							c6.368,11.882,17.781,20.596,31.313,23.91c22.396,5.492,45.115-4.911,54.009-24.726c0.497-1.111,1.804-1.608,2.913-1.109
							c1.111,0.497,1.608,1.802,1.109,2.913C825.434,1523.829,807.227,1534.742,787.419,1534.742z"/>
						<path style="fill:#363E44;" d="M922.58,1519.491c-11.946,0-23.529-3.94-32.747-11.313c-0.949-0.762-1.104-2.149-0.344-3.1
							c0.764-0.945,2.146-1.102,3.1-0.344c10.525,8.422,24.45,11.946,38.188,9.675c22.754-3.761,39.555-22.254,39.949-43.974
							c0.021-1.203,1.005-2.164,2.204-2.164c0.013,0,0.026,0,0.041,0c1.216,0.022,2.185,1.027,2.164,2.245
							c-0.433,23.845-18.786,44.134-43.639,48.241C928.521,1519.25,925.538,1519.491,922.58,1519.491z"/>
					</g>
				</g>
			</g>
			<g>
				<g>
					<path style="fill:#363E44;" d="M908.87,971.199l-87.811,4.634l-38.85,28.808l19.581-27.791l-80.678,4.257l-32.019,25.25
						l18.31-24.527l-34.922,1.843c-86.808,54.49-18.985,78.312-19.947,90.531c-0.961,12.22-49.297,45.658-43.167,88.525
						c12.631,88.32,146.565,81.252,146.565,81.252l2.13-17.017c-16.911-11.341-53.998-44.853,9.485-81.391
						c63.483-36.538,25.565-57.359,16.081-94.049C774.145,1014.835,908.87,971.199,908.87,971.199z"/>
					<g>
						<g>
							<path style="fill:#9D6C5B;" d="M851.039,1293.11c-7.903,15.401-55.81,9.625-55.81,9.625l-42.22-31.832
								c-11.22-21.613-2.801-48.232,18.804-59.456c21.605-11.224,48.214-2.802,59.434,18.811
								C831.247,1230.258,859.089,1277.425,851.039,1293.11z"/>
							<polygon style="fill:#9D6C5B;" points="785.274,1373.747 836.373,1356.603 813.8,1238.947 761.344,1249.018 							"/>
							<path style="fill:#9D6C5B;" d="M832.093,1242.883c0,0,16.942,5.8,17.935,9.139c1.185,3.986-9.89,12.546-9.89,12.546
								S832.399,1242.759,832.093,1242.883z"/>
						</g>
						<g>
							<g>
								<path style="fill:#FFFFFF;" d="M795.92,1259.549c0,0,4.72-6.926,12.615-11.027c1.68-0.873,5.491,14.22,3.501,14.287
									C803.288,1263.103,795.92,1259.549,795.92,1259.549z"/>
								<g>
									<defs>
										<path id="SVGID_1_" d="M795.92,1259.549c0,0,6.942-10.187,18.07-13.167c11.128-2.98,22.229,2.375,22.229,2.375
											s-6.942,10.187-18.07,13.167C807.021,1264.903,795.92,1259.549,795.92,1259.549z"/>
									</defs>
									<clipPath id="SVGID_00000128470508482804193660000015275677047863676310_">
										<use xlink:href="#SVGID_1_"  style="overflow:visible;"/>
									</clipPath>
									<path style="clip-path:url(#SVGID_00000128470508482804193660000015275677047863676310_);fill:#363E44;" d="
										M808.69,1248.002c2.51-7.936,10.976-12.334,18.909-9.823c7.933,2.511,12.329,10.98,9.82,18.916
										c-2.51,7.936-10.976,12.334-18.909,9.823C810.577,1264.407,806.18,1255.938,808.69,1248.002z"/>
								</g>
							</g>
							<path style="fill:#363E44;" d="M831.13,1279.274c-0.267,0-0.536-0.013-0.805-0.039c-3.15-0.303-5.912-2.426-7.038-5.404
								c-0.431-1.139,0.144-2.411,1.283-2.842c1.139-0.433,2.411,0.144,2.842,1.283c0.536,1.419,1.847,2.431,3.339,2.575
								c1.561,0.12,3.057-0.635,3.839-2.002c0.605-1.055,1.946-1.427,3.01-0.818c1.055,0.605,1.423,1.953,0.818,3.01
								C836.911,1277.67,834.112,1279.274,831.13,1279.274z"/>
							<path style="fill:#363E44;" d="M815.023,1306.689c-10.452,0-19.068-1.014-19.707-1.089c-1.208-0.146-2.069-1.244-1.925-2.452
								c0.146-1.21,1.277-2.06,2.452-1.927c0.278,0.035,27.576,3.236,43.662-1.787c1.156-0.366,2.396,0.284,2.76,1.447
								c0.364,1.16-0.284,2.398-1.447,2.76C833.206,1306.021,823.509,1306.689,815.023,1306.689z"/>
						</g>
						<g>
							<path style="fill:#363E44;" d="M755.881,1297.618c-13.497-3.558-22.878-31.984-18.858-52.114
								c5.182-25.952,30.86-45.607,54.177-48.068c5.732-0.605,19.15-0.315,24.971,6.907c10.905,13.53-5.417,46.166-12.224,56.269
								C793.557,1276.034,770.712,1301.528,755.881,1297.618z"/>
							<path style="fill:#363E44;" d="M753.761,1299.854c-1.152,0-2.308-0.026-3.468-0.082c-1.216-0.058-2.155-1.092-2.097-2.308
								c0.058-1.216,1.13-2.135,2.308-2.097c25.494,1.188,48.661-11.944,59.051-33.526c11.75-24.407,1.259-48.201-0.962-52.722
								c-0.536-1.094-0.086-2.416,1.005-2.952c1.104-0.536,2.416-0.084,2.952,1.005c2.381,4.844,13.613,30.334,0.98,56.579
								C802.844,1285.948,779.636,1299.854,753.761,1299.854z"/>
						</g>
					</g>
				</g>
				<g>
					<polygon style="fill:#E6D0BE;" points="800.558,1372.574 830.852,1405.587 836.547,1362.736 820.47,1340.582 820.063,1363.606 
						810.52,1344.749 					"/>
					<polygon style="fill:#FFFFFF;" points="758.122,1352.484 771.008,1330.403 810.52,1344.749 804.465,1395.402 					"/>
					<polygon style="fill:#FFFFFF;" points="820.47,1340.582 838.913,1322.923 858.513,1335.793 842.23,1385.831 					"/>
				</g>
			</g>
		</g>
		<g>
			<g>
				<g>
					<polygon style="fill:#E2A18D;" points="1375.077,1074.355 1414.811,1010.429 1493.641,1076.188 1443.687,1133.822 					"/>
					<path style="fill:#FFFFFF;" d="M1252.369,1063.315l174.874-100.036l22.139,76.062l-68.509,39.19l-58.186,13.227
						C1294.646,1099.072,1265.866,1087.431,1252.369,1063.315L1252.369,1063.315z"/>
				</g>
				<g>
					<polygon style="fill:#E2A18D;" points="1251.069,1044.618 1301.104,1100.848 1350.081,1014.694 1308.557,974.341 					"/>
					<path style="fill:#FFFFFF;" d="M1136.088,1071.181l191.833,69.972l1.773-88.344l-69.566-18.494l-59.588-3.131
						C1171.663,1028.75,1145.285,1045.12,1136.088,1071.181L1136.088,1071.181z"/>
				</g>
				<path style="fill:#363E44;" d="M1707.652,998.523c0,0-175.81-200.181-258.296-192.548
					c-68.193,6.311-194.896,181.981-194.896,181.981l119.755,104.492l89.229-136.192l131.496,178.459L1707.652,998.523z"/>
				<path style="fill:#363E44;" d="M1793.161,1055.422c0,0-91.037,206.477-173.173,217.05
					c-67.904,8.741-267.204-109.559-267.204-109.559l95.278-124.094l132.791,77.11l73.995-164.389L1793.161,1055.422z"/>
				<path style="fill:#363E44;" d="M1580.85,1118.135c-0.301,0-0.609-0.063-0.902-0.194c-1.111-0.499-1.606-1.806-1.107-2.915
					l36.786-81.72c0.502-1.109,1.806-1.602,2.915-1.107c1.111,0.5,1.606,1.806,1.107,2.915l-36.786,81.721
					C1582.495,1117.652,1581.692,1118.135,1580.85,1118.135z"/>
			</g>
			<g>
				<g>
					<path style="fill:#E2A18D;" d="M1846.493,984.467c48.873,67.052,74.826,104.776,85.723,119.346
						c1.141,1.526,3.143,4.228,6.599,6.904c12.807,9.915,25.059,3.579,43.282,7.86c20.677,4.858,29.57,19.299,33.921,16.06
						c3.026-2.253,1.206-8.645-6.954-19.269c-0.001-0.001,0.001-0.002,0.002-0.002c7.127,7.359,17.229,16.918,21.284,12.968
						c4.439-4.812-6.11-17.436-12.865-24.761c8.176,8.866,15.177,11.135,16.889,8.368c2.695-4.354-2.044-12.706-13.305-24.004
						c0,0,0-0.001,0-0.001c9.955,5.629,13.209,5.511,14.126,2.697c1.675-5.138-7.758-14.253-17.332-21.032
						c-10.778-7.632-21.785-9.812-28.757-11.022c-0.002,0-0.004-0.001-0.004-0.003c-29.36-50.511-76.421-120.594-76.421-120.594
						S1846.492,984.465,1846.493,984.467z"/>
					<path style="fill:#E2A18D;" d="M1966.298,1110.753c11.268,17.74,11.573,26.527,8.704,28.223
						c-4.824,2.852-20.643-8.356-40.378-32.209C1943.549,1107.086,1957.374,1110.433,1966.298,1110.753z"/>
					<path style="fill:#363E44;" d="M1969.971,1118.412c-0.037,0-0.073,0-0.11-0.002c-2.469-0.123-4.846-0.136-7.145-0.149
						c-5.068-0.03-9.854-0.058-14.566-1.238c-1.182-0.295-1.901-1.492-1.604-2.672c0.295-1.184,1.488-1.914,2.672-1.604
						c4.2,1.049,8.521,1.074,13.524,1.104c2.344,0.013,4.771,0.028,7.335,0.153c1.216,0.06,2.153,1.094,2.095,2.31
						C1972.114,1117.495,1971.138,1118.412,1969.971,1118.412z"/>
					<path style="fill:#363E44;" d="M2008.46,1117.67c-0.519,0-1.04-0.181-1.458-0.551c-2.648-2.334-5.582-4.299-8.728-5.841
						c-2.161-1.059-4.446-1.927-6.786-2.579c-1.171-0.325-1.858-1.542-1.531-2.715c0.327-1.173,1.541-1.858,2.715-1.531
						c2.601,0.723,5.137,1.688,7.544,2.865c3.496,1.716,6.76,3.899,9.701,6.493c0.913,0.805,1.001,2.198,0.196,3.111
						C2009.679,1117.418,2009.069,1117.67,2008.46,1117.67z"/>
					<path style="fill:#363E44;" d="M2017.898,1107.062c-0.519,0-1.04-0.181-1.458-0.551c-2.648-2.334-5.582-4.299-8.728-5.841
						c-2.168-1.061-4.45-1.929-6.786-2.577c-1.173-0.327-1.86-1.544-1.535-2.715c0.327-1.173,1.556-1.849,2.715-1.535
						c2.596,0.724,5.135,1.688,7.546,2.868c3.498,1.716,6.762,3.899,9.703,6.493c0.913,0.805,1.001,2.198,0.196,3.111
						C2019.117,1106.811,2018.508,1107.062,2017.898,1107.062z"/>
					<path style="fill:#363E44;" d="M2020.772,1090.031c-0.519,0-1.04-0.181-1.458-0.551c-2.648-2.334-5.584-4.299-8.73-5.839
						c-2.168-1.066-4.45-1.933-6.782-2.579c-1.173-0.325-1.862-1.539-1.537-2.713c0.325-1.178,1.55-1.858,2.713-1.537
						c2.596,0.719,5.137,1.686,7.548,2.87c3.496,1.714,6.762,3.897,9.703,6.491c0.913,0.805,1.001,2.198,0.196,3.111
						C2021.991,1089.779,2021.382,1090.031,2020.772,1090.031z"/>
				</g>
				<g>
					<path style="fill:#E2A18D;" d="M1643.819,746.767c-129.056-2.463-198.594-8.723-203.969,28.906
						c-5.479,38.353,93.752,62.966,195.698,69.062C1640.939,813.835,1638.38,784.303,1643.819,746.767z"/>
					<path style="fill:#E2A18D;" d="M1880.997,861.831c18.781,44.073,69.968,138.426,21.961,160.884
						c-39.709,18.576-94.584-104.846-115.844-147.562C1815.017,860.726,1833.55,861.831,1880.997,861.831z"/>
					<path style="fill:#FFFFFF;" d="M1915.377,912.28c0,0-41.264-133.654-175.226-160.098
						c-76.303-15.062-184.427-13.105-184.427-13.105l-26.084,92.794l65.178,12.865l-12.889,30.694l212.3,210.257l25.252-133.782
						l27.012,39.437L1915.377,912.28z"/>
					<path style="fill:#363E44;" d="M1506.621,784.906c-0.751,0-1.485-0.385-1.897-1.078c-0.622-1.046-0.278-2.398,0.768-3.021
						c1.014-0.603,3.496-2.359,4.663-5.641c1.395-3.927-0.028-7.378-0.497-8.342c-0.532-1.094-0.078-2.413,1.018-2.947
						c1.098-0.527,2.416-0.073,2.947,1.018c0.659,1.354,2.654,6.202,0.687,11.748c-1.589,4.467-4.795,6.9-6.566,7.953
						C1507.392,784.807,1507.005,784.906,1506.621,784.906z"/>
					<path style="fill:#363E44;" d="M1879.08,985.419c-0.327,0-0.661-0.073-0.975-0.228c-1.091-0.54-1.539-1.862-0.999-2.954
						c0.521-1.055,1.647-3.875,0.835-7.268c-0.971-4.052-4.045-6.17-4.964-6.721c-1.042-0.629-1.38-1.983-0.754-3.027
						c0.626-1.042,1.976-1.38,3.027-0.753c1.29,0.777,5.608,3.752,6.979,9.475c1.104,4.622-0.26,8.405-1.171,10.25
						C1880.673,984.969,1879.891,985.419,1879.08,985.419z"/>
					<path style="fill:#363E44;" d="M1819.484,954.11c-0.73,0-1.442-0.362-1.862-1.023l-25.122-39.565
						c-0.655-1.029-0.349-2.39,0.678-3.042c1.025-0.659,2.39-0.349,3.042,0.678l25.122,39.565c0.654,1.029,0.349,2.39-0.678,3.042
						C1820.298,954,1819.889,954.11,1819.484,954.11z"/>
					<path style="fill:#363E44;" d="M1594.818,846.94c-0.248,0-0.497-0.041-0.743-0.129c-1.147-0.409-1.744-1.673-1.333-2.818
						c2.054-5.74,3.933-11.94,5.923-18.502c2.028-6.695,4.127-13.621,6.547-20.463c0.405-1.15,1.66-1.748,2.812-1.343
						c1.147,0.405,1.75,1.664,1.343,2.812c-2.383,6.749-4.467,13.623-6.482,20.273c-2.006,6.616-3.899,12.865-5.991,18.708
						C1596.57,846.381,1595.722,846.94,1594.818,846.94z"/>
				</g>
				<g>
					<path style="fill:#E2A18D;" d="M1516.901,744.799c-61.497-55.702-100.854-89.284-114.487-101.332
						c-1.428-1.262-3.938-3.5-7.866-5.416c-14.556-7.101-25.263,1.596-43.976,1.113c-21.233-0.548-32.879-12.877-36.48-8.82
						c-2.505,2.822,0.579,8.709,10.73,17.451c0.001,0.001,0,0.003-0.001,0.002c-8.476-5.755-20.311-13.057-23.478-8.364
						c-3.367,5.615,9.531,15.827,17.636,21.624c-9.81-7.017-17.125-7.813-18.239-4.756c-1.753,4.811,4.587,12.024,17.912,20.794
						c0,0,0,0.001,0,0.001c-10.892-3.486-14.054-2.708-14.379,0.234c-0.594,5.372,10.496,12.376,21.25,17.065
						c12.106,5.279,23.326,5.173,30.399,4.938c0.002,0,0.004,0.001,0.005,0.002c39.026,43.478,94.263,99.455,94.263,99.455
						S1516.903,744.8,1516.901,744.799z"/>
					<path style="fill:#363E44;" d="M1389.516,688.55c-0.732,0-1.447-0.364-1.867-1.029c-1.369-2.168-5.328-7.445-12.512-9.576
						c-5.107-1.518-9.621-0.835-12.508,0.002c-1.171,0.342-2.392-0.336-2.73-1.503c-0.34-1.169,0.334-2.392,1.503-2.73
						c3.453-1.005,8.863-1.817,14.988,0.002c8.622,2.56,13.354,8.861,14.988,11.453c0.65,1.029,0.342,2.39-0.689,3.04
						C1390.326,688.44,1389.919,688.55,1389.516,688.55z"/>
					<path style="fill:#E2A18D;" d="M1367.633,643.61c-14.643-15.076-16.729-23.617-14.266-25.861
						c4.142-3.774,21.912,3.979,46.088,23.317C1390.652,642.569,1376.435,642.106,1367.633,643.61z"/>
					<path style="fill:#363E44;" d="M1362.926,641.219c-1.068,0-2.004-0.775-2.177-1.862c-0.187-1.203,0.633-2.332,1.836-2.521
						c2.446-0.383,4.775-0.853,7.029-1.307c4.967-1.003,9.662-1.94,14.51-1.752c1.216,0.049,2.164,1.074,2.114,2.291
						c-0.047,1.216-1.072,2.161-2.291,2.114c-4.31-0.179-8.558,0.678-13.462,1.669c-2.299,0.465-4.678,0.943-7.216,1.343
						C1363.155,641.211,1363.04,641.219,1362.926,641.219z"/>
					<path style="fill:#363E44;" d="M1343.243,655.151c-0.049,0-0.099-0.002-0.149-0.004c-2.695-0.179-5.378-0.607-7.972-1.272
						c-3.774-0.969-7.417-2.441-10.82-4.381c-1.057-0.603-1.427-1.951-0.825-3.008c0.603-1.059,1.948-1.427,3.008-0.825
						c3.064,1.746,6.338,3.072,9.733,3.942c2.332,0.599,4.743,0.984,7.169,1.143c1.214,0.082,2.134,1.13,2.054,2.347
						C1345.363,654.257,1344.395,655.151,1343.243,655.151z"/>
					<path style="fill:#363E44;" d="M1336.162,667.456c-0.049,0-0.099-0.002-0.148-0.004c-2.695-0.179-5.378-0.607-7.972-1.272
						c-3.774-0.967-7.414-2.441-10.82-4.381c-1.057-0.603-1.427-1.951-0.824-3.008c0.603-1.059,1.948-1.427,3.008-0.825
						c3.063,1.746,6.338,3.072,9.733,3.942c2.332,0.598,4.743,0.984,7.169,1.143c1.214,0.082,2.133,1.13,2.054,2.347
						C1338.282,666.563,1337.314,667.456,1336.162,667.456z"/>
					<path style="fill:#363E44;" d="M1336.814,684.718c-0.05,0-0.099-0.002-0.149-0.004c-2.682-0.179-5.363-0.605-7.97-1.272
						c-3.767-0.964-7.408-2.439-10.82-4.381c-1.059-0.603-1.429-1.948-0.827-3.005c0.603-1.061,1.946-1.43,3.005-0.827
						c3.072,1.748,6.349,3.074,9.735,3.942c2.342,0.599,4.756,0.984,7.169,1.143c1.214,0.082,2.134,1.13,2.054,2.347
						C1338.935,683.825,1337.966,684.718,1336.814,684.718z"/>
				</g>
			</g>
			<g>
				<polygon style="fill:#E2A18D;" points="1786.137,786.053 1724.585,825.608 1753.528,669.08 1805.973,678.778 				"/>
				<path style="fill:#E2A18D;" d="M1718.725,717.217c8.07,14.895,54.832,8.203,54.832,8.203l40.629-32.062
					c10.511-21.389,1.693-47.249-19.696-57.76l0,0c-21.389-10.511-47.249-1.693-57.76,19.696
					C1736.73,655.294,1710.507,702.046,1718.725,717.217z"/>
				<g>
					<path style="fill:#84524D;" d="M1755.722,625.743c3.139-7.596,14.392-14.735,27.736-8.419
						c9.106,4.31,14.723,13.421,24.203,21.4c6.884,5.794,15.463,8.561,21.202,13.991c10.474,9.91,9.517,23.842,3.019,36.538
						c-6.806,13.297-23.303,19.134-31.543,14.936c-5.043-2.57-16.187-14.119-16.187-14.119s11.007-16.616,3.753-24.898
						c-7.485-8.544-18.276-6.406-28.06-19.089C1755.781,640.813,1753.198,631.852,1755.722,625.743z"/>
					<path style="fill:#84524D;" d="M1808.113,701.218c-2.497,0-4.816-0.454-6.79-1.397c-5.862-2.803-6.002-8.803-6.149-15.156
						c-0.17-7.408-0.364-15.806-7.942-24.026c-3.066-3.324-6.682-4.76-10.872-6.424c-5.511-2.189-11.757-4.669-17.755-12.05
						c-4.471-5.507-7.737-15.234-4.984-22.411l0,0c1.817-4.732,6.009-8.848,11.216-11.012c4.179-1.731,10.904-3.027,19.247,0.667
						c6.086,2.693,10.723,7.32,15.634,12.217c2.952,2.945,6.004,5.989,9.587,8.853c3.234,2.586,6.917,4.536,10.48,6.422
						c4.078,2.157,7.929,4.198,11.169,7.111c10.302,9.262,11.927,23.492,4.459,39.042
						C1829.9,694.537,1817.686,701.218,1808.113,701.218z M1757.738,621.333c-2.054,5.356,0.626,13.539,4.291,18.05
						c5.272,6.487,10.704,8.646,15.959,10.732c4.297,1.707,8.741,3.473,12.487,7.535c8.706,9.442,8.939,19.542,9.109,26.913
						c0.146,6.338,0.375,9.718,3.643,11.279c6.766,3.231,21.933-1.621,28.213-14.695c3.854-8.028,8.534-23.098-3.434-33.856
						c-2.833-2.551-6.452-4.465-10.282-6.493c-3.744-1.983-7.613-4.03-11.169-6.874c-3.774-3.014-6.913-6.146-9.948-9.175
						c-4.812-4.801-8.969-8.945-14.306-11.309c-6.913-3.059-12.388-2.028-15.77-0.624
						C1762.478,614.498,1759.109,617.762,1757.738,621.333L1757.738,621.333z"/>
					<path style="fill:#84524D;" d="M1832.183,658.355c-1.12-6.867,2.832-14.482,8.731-16.195
						c8.265-2.401,19.087,7.151,18.178,16.699c-0.528,5.545-5.039,11.375-11.246,12.286
						C1840.306,672.252,1833.372,665.645,1832.183,658.355z"/>
					<path style="fill:#84524D;" d="M1847.293,679.325c-8.196,0-14.947-7.376-16.153-14.764l0,0
						c-1.322-8.114,3.391-16.661,10.293-18.665c4.357-1.266,9.559,0.129,13.914,3.737c4.876,4.034,7.587,9.892,7.072,15.288
						c-0.583,6.149-5.651,13.16-13.12,14.256C1848.621,679.276,1847.951,679.325,1847.293,679.325z M1844.759,649.842
						c-0.728,0-1.429,0.095-2.095,0.286c-4.702,1.367-8.12,7.907-7.171,13.722l0,0c0.967,5.948,6.822,11.871,13.165,10.965
						c5.328-0.781,8.95-5.858,9.374-10.312c0.377-3.959-1.729-8.358-5.496-11.475
						C1850.035,650.957,1847.256,649.842,1844.759,649.842z"/>
					<path style="fill:#84524D;" d="M1819.559,743.539c-0.315-7.392,2.486-12.806,3.709-14.893
						c-0.483,2.12-1.821,9.213,1.928,16.768c1.596,3.216,3.65,5.572,5.507,7.265c9.193-1.896,18.387-3.79,27.58-5.686
						c-14.404-7.811-18.469-15.718-19.64-21.286c-2.191-10.421,4.866-16.868,2.735-27.847c-1.917-9.878-9.938-16.56-15.87-20.462
						c-9.699-0.213-19.398-0.426-29.097-0.639c-1.064,7.557-5.34,19.432-12.138,31.527c-8.614,15.328-16.125,20.173-16.127,30.836
						c0,5.408,2.386,13.474,14.832,23.396c13.128-2.706,26.255-5.413,39.383-8.12
						C1821.047,751.737,1819.751,748.065,1819.559,743.539z"/>
				</g>
				<path style="fill:#E2A18D;" d="M1797.604,705.927c-6.255,4.961-14.387,5.123-18.163,0.362
					c-3.776-4.761-1.767-12.643,4.488-17.604c6.255-4.961,14.387-5.123,18.163-0.362S1803.859,700.966,1797.604,705.927z"/>
				<path style="fill:#363E44;" d="M1791.478,703.713c-0.87,0-1.697-0.519-2.043-1.376c-0.456-1.128,0.086-2.413,1.214-2.872
					c1.684-0.682,2.971-1.914,3.526-3.38c0.325-0.855,0.353-1.701,0.075-2.267c-0.523-1.057-2.454-1.513-3.309-1.569
					c-1.212-0.078-2.138-1.122-2.065-2.334c0.073-1.212,1.113-2.164,2.319-2.067c0.53,0.03,5.221,0.398,7.008,4.019
					c0.825,1.668,0.859,3.778,0.095,5.787c-0.992,2.605-3.175,4.756-5.991,5.897
					C1792.035,703.661,1791.753,703.713,1791.478,703.713z"/>
				<path style="fill:#84524D;" d="M1722.718,685.906c-22.596,28.917-19.543,38.881-17.277,42.36
					c8.099,12.434,51.093,21.827,72.198-7.707c9.512-13.311,10.777-30.569,13.062-39.229c-4.435,3.935-9.206,10.179-25.377,12.848
					C1743.79,697.732,1727.316,688.654,1722.718,685.906z"/>
				<path style="fill:#363E44;" d="M1735.37,703.853c-2.603,0-5.182-1.279-6.816-3.537c-0.713-0.986-0.493-2.364,0.495-3.079
					c0.984-0.713,2.362-0.493,3.079,0.495c1.04,1.436,2.831,2.06,4.37,1.52c1.882-0.672,2.351-2.857,2.37-2.949
					c0.243-1.188,1.397-1.987,2.594-1.724c1.191,0.239,1.966,1.389,1.731,2.579c-0.097,0.482-1.051,4.762-5.214,6.248
					C1737.131,703.706,1736.248,703.853,1735.37,703.853z"/>
				<path style="fill:#E2A18D;" d="M1731.622,667.02c-0.731,1.774-2.385,4.435-4.847,6.484c-2.968,2.474-6.983,2.945-7.903,4.969
					c-0.616,1.357-0.107,4.097,4.793,8.103L1731.622,667.02z"/>
				<g>
					<path style="fill:#FFFFFF;" d="M1777.113,682.371c0,0-5.228-7.314-13.794-11.523c-1.823-0.896-5.551,15.378-3.415,15.402
						C1769.294,686.357,1777.113,682.371,1777.113,682.371z"/>
					<path style="fill:#363E44;" d="M1757.416,668.683c2.103,0.513,4.064,1.275,5.883,2.168c1.673,5.542,0.229,11.323-3.386,15.397
						c-2.139-0.024-4.359-0.258-6.588-0.801c-12.009-2.931-19.697-13.688-19.697-13.688S1745.409,665.753,1757.416,668.683z"/>
				</g>
			</g>
			<g>
				<g>
					<ellipse style="fill:#E0AA63;" cx="1342.319" cy="626.464" rx="108.595" ry="34.386"/>
					<rect x="1233.724" y="592.208" style="fill:#E0AA63;" width="217.19" height="35.428"/>
					<ellipse style="fill:#EFBC73;" cx="1342.319" cy="592.881" rx="108.595" ry="34.386"/>
					<path style="fill:#FFFFFF;" d="M1355.114,629.471c-62.132,0-110.802-16.073-110.802-36.59s48.67-36.59,110.802-36.59
						c62.129,0,110.799,16.073,110.799,36.59S1417.243,629.471,1355.114,629.471z M1355.114,560.7
						c-63.641,0-106.392,16.64-106.392,32.181s42.752,32.181,106.392,32.181c63.641,0,106.39-16.639,106.39-32.181
						S1418.754,560.7,1355.114,560.7z"/>
				</g>
				<g>
					<ellipse style="fill:#E0AA63;" cx="1364.708" cy="570.492" rx="108.595" ry="34.386"/>
					<rect x="1256.113" y="536.236" style="fill:#E0AA63;" width="217.19" height="35.428"/>
					<ellipse style="fill:#EFBC73;" cx="1364.708" cy="536.909" rx="108.595" ry="34.386"/>
					<path style="fill:#FFFFFF;" d="M1377.501,573.499c-62.13,0-110.799-16.073-110.799-36.59s48.67-36.59,110.799-36.59
						s110.799,16.073,110.799,36.59S1439.631,573.499,1377.501,573.499z M1377.501,504.728c-63.641,0-106.39,16.639-106.39,32.181
						s42.749,32.181,106.39,32.181c63.641,0,106.39-16.639,106.39-32.181S1441.142,504.728,1377.501,504.728z"/>
				</g>
				<g>
					
						<ellipse transform="matrix(0.7104 -0.7038 0.7038 0.7104 75.0992 1067.3306)" style="fill:#E0AA63;" cx="1334.572" cy="442.405" rx="34.386" ry="108.595"/>
					
						<rect x="1237.729" y="413.049" transform="matrix(0.7038 0.7104 -0.7104 0.7038 704.8569 -828.866)" style="fill:#E0AA63;" width="217.19" height="35.428"/>
					
						<ellipse transform="matrix(0.7104 -0.7038 0.7038 0.7104 98.641 1077.2775)" style="fill:#EFBC73;" cx="1358.431" cy="418.77" rx="34.386" ry="108.595"/>
					<path style="fill:#FFFFFF;" d="M1433.163,510.848c-20.56,0-56.762-21.946-91.723-57.238
						c-20.571-20.764-37.361-42.848-47.281-62.185c-10.297-20.069-11.966-35.085-4.702-42.28
						c14.584-14.454,60.246,8.823,103.97,52.963c20.571,20.764,37.361,42.848,47.281,62.185
						c10.297,20.069,11.966,35.085,4.702,42.28C1442.488,509.468,1438.317,510.848,1433.163,510.848z M1301.783,349.224
						c-4.028,0-7.16,1.012-9.221,3.051c-5.703,5.649-3.69,19.184,5.52,37.137c9.72,18.947,26.23,40.644,46.489,61.094
						c44.788,45.214,86.689,63.858,97.736,52.937c5.703-5.649,3.69-19.184-5.52-37.137c-9.72-18.947-26.23-40.644-46.489-61.094
						C1353.867,368.434,1319.339,349.224,1301.783,349.224z"/>
				</g>
			</g>
		</g>
		<g>
			<path style="fill:#D3BBA3;" d="M401.038,867.442c-19.699,0-37.716-1.21-53.654-3.518c-1.203-0.174-2.039-1.292-1.864-2.497
				c0.172-1.206,1.287-2.06,2.497-1.864c90.954,13.154,250.475-9.714,401.778-90.5c121.697-64.98,279.442-189.26,339.849-412.323
				c0.316-1.178,1.524-1.875,2.704-1.55c1.175,0.316,1.869,1.529,1.55,2.704c-60.816,224.582-219.562,349.67-342.025,415.059
				C626.143,840.086,494.651,867.442,401.038,867.442z"/>
			<polygon style="fill:#ff6900;" points="477.748,856.39 553.956,980.858 580.795,833.574 			"/>
			<polygon style="fill:#EFBC73;" points="341.074,858.4 395.283,989.671 439.798,859.94 			"/>
			<polygon style="fill:#EFBC73;" points="770.418,752.422 890.623,835.281 854.858,697.863 			"/>
			<polygon style="fill:#ff6900;" points="890.858,667.401 1014.898,726.19 968.498,590.865 			"/>
			<polygon style="fill:#EFBC73;" points="991.984,559.843 1122.182,583.691 1047.453,471.48 			"/>
			<polygon style="fill:#D87355;" points="1063.572,430.985 1201.568,424.876 1090.169,344.039 			"/>
			<polygon style="fill:#D87355;" points="634.158,816.063 742.905,913.464 723.086,774.927 			"/>
		</g>
		<g>
			<rect x="1617.68" y="1703.991" style="fill:#D87355;" width="521.461" height="461.009"/>
			<rect x="1599.925" y="1656.797" style="fill:#D87355;" width="557.953" height="50.434"/>
			<path style="fill:#363E44;" d="M2129.344,1711.272h-498.793c-1.219,0-2.204-0.986-2.204-2.205s0.986-2.204,2.204-2.204h498.793
				c1.219,0,2.205,0.986,2.205,2.204S2130.562,1711.272,2129.344,1711.272z"/>
			<g>
				<rect x="1850.739" y="1656.797" style="fill:#FFFFFF;" width="56.325" height="508.203"/>
				<path style="fill:#FFFFFF;" d="M2033.13,1532.566l-150.913,116.888l7.004,14.228l202.888-35.971L2033.13,1532.566z
					 M1889.221,1653.491l123.405-69.243l6.834,17.536L1889.221,1653.491z"/>
				<path style="fill:#FFFFFF;" d="M1644.461,1611.258l237.109,59.453l9.473-16.255l-168.867-150.887L1644.461,1611.258z
					 M1732.592,1586.622l9.547-20.183l140.279,92.213L1732.592,1586.622z"/>
			</g>
		</g>
		<g>
			<g>
				<ellipse style="fill:#E0AA63;" cx="1220.403" cy="2077.426" rx="143.56" ry="45.458"/>
				<rect x="1076.843" y="2032.14" style="fill:#E0AA63;" width="287.12" height="46.835"/>
				<ellipse style="fill:#EFBC73;" cx="1220.403" cy="2033.03" rx="143.56" ry="45.458"/>
				<path style="fill:#FFFFFF;" d="M1237.315,2080.693c-81.738,0-145.764-20.937-145.764-47.662s64.026-47.662,145.764-47.662
					c81.738,0,145.764,20.937,145.764,47.662S1319.053,2080.693,1237.315,2080.693z M1237.315,1989.777
					c-76.623,0-141.355,19.808-141.355,43.253c0,23.445,64.732,43.253,141.355,43.253s141.355-19.809,141.355-43.253
					C1378.67,2009.586,1313.938,1989.777,1237.315,1989.777z"/>
			</g>
			<g>
				<ellipse style="fill:#E0AA63;" cx="1250" cy="2003.433" rx="143.56" ry="45.458"/>
				<rect x="1106.44" y="1958.147" style="fill:#E0AA63;" width="287.12" height="46.835"/>
				<ellipse style="fill:#EFBC73;" cx="1250" cy="1959.037" rx="143.56" ry="45.458"/>
				<path style="fill:#FFFFFF;" d="M1238.956,2007.185c-60.937,0-97.484-7.742-111.394-23.516c-5.91-6.7-7.998-14.872-6.385-24.98
					c4.303-26.975,66.956-47.316,145.736-47.316c81.738,0,145.764,20.937,145.764,47.662c0,29.453-75.522,45.352-145.691,47.66
					C1257.13,2007.022,1247.785,2007.185,1238.956,2007.185z M1266.913,1915.783c-84.145,0-137.964,22.168-141.383,43.6
					c-1.412,8.85,0.284,15.641,5.339,21.372c14.999,17.008,59.486,24.052,135.971,21.537
					c81.949-2.698,141.428-20.889,141.428-43.255C1408.268,1935.592,1343.536,1915.783,1266.913,1915.783z"/>
			</g>
			<g>
				<ellipse style="fill:#E0AA63;" cx="1220.403" cy="1941.05" rx="143.56" ry="45.458"/>
				<rect x="1076.843" y="1895.765" style="fill:#E0AA63;" width="287.12" height="46.835"/>
				<ellipse style="fill:#EFBC73;" cx="1220.403" cy="1896.654" rx="143.56" ry="45.458"/>
				<path style="fill:#FFFFFF;" d="M1237.315,1944.315c-81.738,0-145.764-20.934-145.764-47.66
					c0-26.726,64.026-47.662,145.764-47.662c81.738,0,145.764,20.937,145.764,47.662
					C1383.079,1923.381,1319.053,1944.315,1237.315,1944.315z M1237.315,1853.402c-76.623,0-141.355,19.808-141.355,43.253
					c0,23.445,64.732,43.251,141.355,43.251s141.355-19.806,141.355-43.251C1378.67,1873.211,1313.938,1853.402,1237.315,1853.402z"
					/>
			</g>
			<g>
				<ellipse style="fill:#E0AA63;" cx="1250" cy="1867.057" rx="143.56" ry="45.458"/>
				<rect x="1106.44" y="1821.771" style="fill:#E0AA63;" width="287.12" height="46.835"/>
				<ellipse style="fill:#EFBC73;" cx="1250" cy="1822.661" rx="143.56" ry="45.458"/>
				<path style="fill:#FFFFFF;" d="M1266.913,1870.324c-81.738,0-145.764-20.937-145.764-47.662
					c0-26.726,64.026-47.662,145.764-47.662c81.738,0,145.764,20.937,145.764,47.662
					C1412.677,1849.387,1348.651,1870.324,1266.913,1870.324z M1266.913,1779.408c-76.623,0-141.355,19.808-141.355,43.253
					s64.732,43.253,141.355,43.253c76.623,0,141.355-19.809,141.355-43.253S1343.536,1779.408,1266.913,1779.408z"/>
			</g>
			<g>
				
					<ellipse transform="matrix(0.7104 -0.7038 0.7038 0.7104 -884.7866 1320.0333)" style="fill:#E0AA63;" cx="1161.714" cy="1735.211" rx="45.458" ry="143.56"/>
				
					<rect x="1033.69" y="1696.404" transform="matrix(0.7038 0.7104 -0.7104 0.7038 1570.5604 -326.8857)" style="fill:#E0AA63;" width="287.12" height="46.835"/>
				
					<ellipse transform="matrix(0.7104 -0.7038 0.7038 0.7104 -853.665 1333.1836)" style="fill:#EFBC73;" cx="1193.255" cy="1703.967" rx="45.458" ry="143.56"/>
				<path style="fill:#FFFFFF;" d="M1291.923,1825.055c-26.881,0-74.524-28.99-120.625-75.529
					c-57.525-58.069-87.712-118.291-68.726-137.099c18.993-18.814,78.924,11.944,136.444,70.011
					c27.143,27.4,49.296,56.532,62.379,82.033c13.458,26.233,15.712,45.789,6.347,55.066
					C1303.97,1823.273,1298.582,1825.055,1291.923,1825.055z M1118.428,1611.216c-5.436,0-9.778,1.397-12.751,4.342
					c-16.657,16.502,14.829,76.429,68.752,130.864c53.923,54.435,113.553,86.485,130.209,69.985
					c7.774-7.701,5.163-25.897-7.165-49.923c-12.883-25.109-34.756-53.856-61.587-80.941
					C1191.589,1640.826,1143.442,1611.216,1118.428,1611.216z"/>
			</g>
		</g>
	</g>
</g>
</svg>
