<?xml version="1.0" encoding="utf-8"?>
<!-- Generator: Adobe Illustrator 27.5.0, SVG Export Plug-In . SVG Version: 6.00 Build 0)  -->
<svg version="1.1" xmlns="http://www.w3.org/2000/svg" xmlns:xlink="http://www.w3.org/1999/xlink" x="0px" y="0px"
	 viewBox="0 0 2500 2500" style="enable-background:new 0 0 2500 2500;" xml:space="preserve">
-
<g id="Illustration">
	<g id="Industrial_design_1_">
		<circle style="fill:transparent;" cx="1250" cy="1250" r="915"/>
		<g>
			<g>
				<g>
					<g>
						<rect x="540.576" y="344.93" style="fill:#E6D0BE;" width="1376.217" height="1043.114"/>
						
							<rect x="792.129" y="179.732" transform="matrix(-1.836970e-16 1 -1 -1.836970e-16 2053.3474 -404.0215)" style="fill:#FFFFFF;" width="873.111" height="1289.862"/>
						
							<ellipse transform="matrix(0.1214 -0.9926 0.9926 0.1214 -230.25 2378.8779)" style="fill:#FFFFFF;" cx="1228.685" cy="1319.505" rx="25.905" ry="25.905"/>
						<path style="fill:#E6D0BE;" d="M1373.55,1408.721h-40.744c0,30.563-24.777,55.34-55.34,55.34h-97.564
							c-30.563,0-55.34-24.777-55.34-55.34h-40.743l-40.744,216.524v18.108h371.218v-18.108L1373.55,1408.721z"/>
						<path style="fill:#E6D0BE;" d="M1414.293,1668.193h-371.217c-1.219,0-2.205-0.987-2.205-2.205
							c0-1.218,0.986-2.205,2.205-2.205h371.217c1.219,0,2.205,0.987,2.205,2.205
							C1416.498,1667.206,1415.512,1668.193,1414.293,1668.193z"/>
					</g>
				</g>
			</g>
			<g>
				<g>
					<path style="fill:#D87355;" d="M2153.526,990.45c5.021,39.14-25.47,73.792-64.93,73.792H879.65
						c-36.154,0-65.462-29.308-65.462-65.462v-46.174c16.896-19.239,26.213-43.969,26.213-69.574v-34.434
						c0-22.706,18.407-41.112,41.112-41.112h61.368c124.379-117.147,288.67-182.582,459.53-183.024l74.858-0.194
						c68.623-0.178,135.193,23.392,188.417,66.709l124.443,101.28c12.248,9.968,26.957,16.45,42.578,18.762l174.133,28
						C2083.893,851.408,2143.595,913.042,2153.526,990.45z"/>
					<g>
						<circle style="fill:#363E44;" cx="1897.706" cy="1041.386" r="107.556"/>
						
							<ellipse transform="matrix(0.7071 -0.7071 0.7071 0.7071 -180.5457 1646.8959)" style="fill:#D3BBA3;" cx="1897.706" cy="1041.386" rx="76.054" ry="76.054"/>
					</g>
					<g>
						<circle style="fill:#363E44;" cx="1085.096" cy="1041.386" r="107.556"/>
						
							<ellipse transform="matrix(0.2225 -0.9749 0.9749 0.2225 -171.6111 1867.5851)" style="fill:#D3BBA3;" cx="1085.096" cy="1041.386" rx="76.054" ry="76.054"/>
					</g>
					<path style="fill:#363E44;" d="M1072.552,812.549h689.854l-184.222-139.364c-12.396-9.378-27.198-15.05-42.687-16.355
						c-172.353-14.527-344.131,26.334-489.147,115.142L1072.552,812.549z"/>
					
						<ellipse transform="matrix(0.3524 -0.9358 0.9358 0.3524 487.8903 2509.9856)" style="fill:#FFFFFF;" cx="2057.567" cy="902.461" rx="25.015" ry="77.117"/>
					<polygon style="fill:#D87355;" points="894.437,903.074 838.408,903.074 840.763,854.111 916.123,854.111 					"/>
					<path style="fill:#363E44;" d="M1749.915,1043.591h-494.467c-0.711,0-1.378-0.342-1.792-0.92l-151.159-210.903
						c-0.478-0.665-0.547-1.538-0.181-2.27l30.745-61.488c0.545-1.09,1.869-1.53,2.958-0.986c1.089,0.545,1.531,1.869,0.986,2.958
						l-30.151,60.299l149.725,208.901h491.821l41.558-107.732c23.194-60.13-0.026-127.935-55.209-161.228l-162.293-95.135
						c-1.051-0.616-1.402-1.967-0.786-3.018c0.611-1.05,1.961-1.405,3.017-0.787l162.317,95.148
						c57.043,34.415,81.034,104.477,57.067,166.606l-42.1,109.143C1751.644,1043.03,1750.825,1043.591,1749.915,1043.591z"/>
					<path style="fill:#363E44;" d="M1452.673,1044.096c-1.083,0-2.028-0.798-2.181-1.9l-33.26-238.268
						c-0.168-1.206,0.672-2.32,1.877-2.488c1.202-0.175,2.321,0.673,2.489,1.879l33.26,238.268c0.168,1.206-0.672,2.32-1.878,2.488
						C1452.878,1044.09,1452.774,1044.096,1452.673,1044.096z"/>
					<path style="fill:#FFD092;" d="M1246.112,850.379c0,3.815-21.412,6.907-47.824,6.907c-26.413,0-47.824-3.092-47.824-6.907
						c0-3.815,21.412-6.907,47.824-6.907C1224.701,843.472,1246.112,846.564,1246.112,850.379z"/>
					<path style="fill:#FFD092;" d="M1580.725,850.379c0,3.815-21.412,6.907-47.824,6.907s-47.824-3.092-47.824-6.907
						c0-3.815,21.411-6.907,47.824-6.907S1580.725,846.564,1580.725,850.379z"/>
					<path style="fill:#FFD092;" d="M892.849,998.709h-64.926c11.339-26.637,36.137-45.109,64.905-48.347l0.021-0.002
						c13.351,0,24.175,10.823,24.175,24.175C917.024,987.885,906.201,998.709,892.849,998.709z"/>
					<path style="fill:#FFD092;" d="M2122.555,1021.642h-24.681c-6.643,0-11.812-5.775-11.077-12.378l2.762-24.818
						c0.628-5.643,5.398-9.912,11.077-9.912h24.681c6.643,0,11.811,5.775,11.076,12.378l-2.762,24.818
						C2133.004,1017.373,2128.233,1021.642,2122.555,1021.642z"/>
				</g>
				<g>
					<path style="fill:#FFFFFF;" d="M1632.811,1064.246H879.647c-36.151,0-65.467-29.317-65.467-65.467v-46.165
						c8.463-9.622,15.001-20.618,19.44-32.4c2.082-5.557,3.731-11.291,4.851-17.142c1.276-6.558,1.923-13.274,1.923-20.049v-34.422
						c0-22.719,18.42-41.118,41.119-41.118h61.363c62.188-58.575,134.37-104.209,212.345-135.273
						c43.278-17.241,88.344-29.984,134.489-37.937l26.94,33.755l115.324,144.522l182.596,228.839L1632.811,1064.246z"/>
					<path style="fill:#363E44;" d="M1632.812,1066.451H879.646c-37.314,0-67.671-30.357-67.671-67.672v-46.164
						c0-0.536,0.196-1.054,0.549-1.457c8.219-9.342,14.622-20.015,19.032-31.72c2.084-5.564,3.682-11.21,4.748-16.779
						c1.251-6.422,1.884-13.025,1.884-19.635v-34.421c0-23.889,19.436-43.323,43.326-43.323h60.488
						c61.924-58.179,133.383-103.636,212.403-135.117c43.474-17.318,88.871-30.124,134.929-38.061
						c1.191-0.218,2.34,0.596,2.547,1.798c0.207,1.2-0.599,2.341-1.798,2.547c-45.756,7.886-90.856,20.608-134.046,37.814
						c-78.775,31.382-149.984,76.746-211.65,134.83c-0.409,0.385-0.949,0.6-1.511,0.6h-61.362
						c-21.458,0-38.916,17.457-38.916,38.914v34.421c0,6.891-0.661,13.778-1.964,20.47c-1.111,5.806-2.778,11.695-4.95,17.495
						c-4.5,11.946-10.99,22.859-19.299,32.452v45.338c0,34.883,28.378,63.263,63.262,63.263h753.165
						c1.219,0,2.205,0.987,2.205,2.205C1635.016,1065.464,1634.03,1066.451,1632.812,1066.451z"/>
					<g>
						<g>
							<circle style="fill:#FFFFFF;" cx="1085.096" cy="1041.386" r="107.556"/>
							<path style="fill:#363E44;" d="M1085.097,1151.147c-60.523,0-109.763-49.238-109.763-109.761
								c0-60.523,49.24-109.762,109.763-109.762s109.761,49.239,109.761,109.762
								C1194.858,1101.909,1145.62,1151.147,1085.097,1151.147z M1085.097,936.034c-58.092,0-105.353,47.26-105.353,105.352
								c0,58.091,47.261,105.351,105.353,105.351s105.351-47.26,105.351-105.351
								C1190.448,983.295,1143.189,936.034,1085.097,936.034z"/>
						</g>
						<path style="fill:#363E44;" d="M1085.097,1119.645c-43.153,0-78.26-35.106-78.26-78.258c0-43.152,35.107-78.259,78.26-78.259
							c43.151,0,78.258,35.107,78.258,78.259C1163.355,1084.539,1128.248,1119.645,1085.097,1119.645z M1085.097,967.537
							c-40.722,0-73.851,33.128-73.851,73.85c0,40.72,33.128,73.849,73.851,73.849c40.72,0,73.849-33.128,73.849-73.849
							C1158.946,1000.665,1125.818,967.537,1085.097,967.537z"/>
					</g>
					<path style="fill:#363E44;" d="M894.436,905.279h-56.027c-0.603,0-1.18-0.247-1.596-0.684
						c-0.418-0.437-0.635-1.025-0.607-1.627l2.353-48.962c0.056-1.176,1.027-2.099,2.203-2.099h75.36
						c0.745,0,1.44,0.377,1.847,1.002c0.407,0.625,0.471,1.414,0.168,2.095l-21.686,48.962
						C896.099,904.764,895.308,905.279,894.436,905.279z M840.722,900.869h52.28l19.734-44.553h-69.872L840.722,900.869z"/>
					<path style="fill:#363E44;" d="M1614.57,1043.594h-359.127c-0.711,0-1.378-0.342-1.791-0.921l-151.159-210.911
						c-0.478-0.665-0.547-1.539-0.181-2.271l30.751-61.48c0.547-1.09,1.871-1.53,2.958-0.986c1.089,0.545,1.531,1.869,0.986,2.958
						l-30.157,60.292l149.725,208.909h357.995c1.219,0,2.205,0.987,2.205,2.205
						C1616.775,1042.607,1615.789,1043.594,1614.57,1043.594z"/>
					<path style="fill:#363E44;" d="M1452.673,1044.096c-1.083,0-2.028-0.798-2.181-1.9l-33.26-238.268
						c-0.168-1.206,0.672-2.32,1.877-2.488c1.202-0.175,2.321,0.673,2.489,1.879l33.26,238.268c0.168,1.206-0.672,2.32-1.878,2.488
						C1452.878,1044.09,1452.774,1044.096,1452.673,1044.096z"/>
					<g>
						<path style="fill:#FFFFFF;" d="M1431.973,812.55h-359.42l-26.195-40.569c82.983-50.818,174.703-85.928,270.292-103.954
							L1431.973,812.55z"/>
						<path style="fill:#363E44;" d="M1431.973,814.755h-359.42c-0.749,0-1.447-0.38-1.852-1.009l-26.195-40.568
							c-0.323-0.498-0.431-1.107-0.297-1.686c0.131-0.579,0.491-1.08,0.997-1.391c83.18-50.939,174.368-86.01,271.033-104.24
							c0.81-0.144,1.624,0.153,2.132,0.792l115.325,144.522c0.53,0.662,0.631,1.567,0.265,2.331
							C1433.592,814.27,1432.819,814.755,1431.973,814.755z M1073.754,810.346h353.639l-111.641-139.904
							c-94.908,18.057-184.488,52.448-266.316,102.244L1073.754,810.346z"/>
					</g>
					<path style="fill:#363E44;" d="M1198.288,859.49c-8.354,0-50.028-0.439-50.028-9.111c0-8.673,41.674-9.112,50.028-9.112
						c8.354,0,50.028,0.439,50.028,9.112C1248.316,859.051,1206.642,859.49,1198.288,859.49z M1153.32,850.379
						c4.08,2.095,20.67,4.701,44.968,4.701s40.888-2.606,44.968-4.701c-4.08-2.096-20.67-4.703-44.968-4.703
						S1157.4,848.283,1153.32,850.379z M1244.072,850.956h0.021H1244.072z"/>
					<path style="fill:#363E44;" d="M892.849,1000.914h-64.926c-0.741,0-1.432-0.371-1.839-0.988c-0.409-0.618-0.48-1.4-0.189-2.08
						c11.629-27.32,37.18-46.354,66.685-49.675c0.082-0.01,0.187-0.016,0.269-0.016c14.547,0,26.38,11.834,26.38,26.379
						C919.23,989.08,907.396,1000.914,892.849,1000.914z M831.336,996.504h61.513c12.116,0,21.971-9.856,21.971-21.971
						c0-12.074-9.792-21.905-21.852-21.97C866.204,955.615,842.888,972.327,831.336,996.504z"/>
				</g>
				<path style="fill:#D3BBA3;" d="M1678.764,1166.542c-0.002,0-0.007,0-0.009,0l-25.924-0.108c-1.219-0.005-2.2-0.996-2.196-2.214
					c0.004-1.215,0.99-2.196,2.205-2.196c0.002,0,0.006,0,0.009,0l24.483,0.101c0.385-0.328,0.885-0.527,1.432-0.527
					c1.219,0,2.205,0.987,2.205,2.205v0.534c0,0.587-0.233,1.149-0.648,1.562
					C1679.907,1166.311,1679.348,1166.542,1678.764,1166.542z M1626.382,1166.326c-0.002,0-0.007,0-0.009,0l-26.458-0.11
					c-1.219-0.005-2.201-0.996-2.196-2.214c0.004-1.214,0.99-2.195,2.205-2.195c0.002,0,0.006,0,0.009,0l26.458,0.11
					c1.219,0.005,2.201,0.996,2.196,2.214C1628.583,1165.345,1627.597,1166.326,1626.382,1166.326z M1573.469,1166.106
					c-0.002,0-0.006,0-0.009,0l-26.458-0.11c-1.219-0.005-2.201-0.996-2.196-2.215c0.004-1.214,0.991-2.195,2.205-2.195
					c0.002,0,0.006,0,0.009,0l26.458,0.11c1.219,0.005,2.2,0.996,2.196,2.214
					C1575.669,1165.125,1574.683,1166.106,1573.469,1166.106z M1520.553,1165.886c-0.002,0-0.006,0-0.009,0l-26.458-0.109
					c-1.219-0.005-2.2-0.996-2.196-2.213c0.004-1.216,0.99-2.196,2.205-2.196c0.002,0,0.006,0,0.009,0l26.458,0.109
					c1.219,0.005,2.201,0.996,2.196,2.213C1522.754,1164.906,1521.768,1165.886,1520.553,1165.886z M1467.638,1165.668
					c-0.002,0-0.006,0-0.009,0l-26.458-0.11c-1.219-0.005-2.201-0.996-2.196-2.214c0.004-1.214,0.991-2.195,2.205-2.195
					c0.002,0,0.006,0,0.009,0l26.458,0.11c1.219,0.005,2.2,0.996,2.196,2.213
					C1469.838,1164.687,1468.852,1165.668,1467.638,1165.668z M1414.722,1165.448c-0.002,0-0.006,0-0.009,0l-26.458-0.109
					c-1.219-0.005-2.2-0.996-2.196-2.213c0.004-1.215,0.99-2.196,2.205-2.196c0.002,0,0.006,0,0.009,0l26.458,0.109
					c1.219,0.005,2.201,0.996,2.196,2.214C1416.922,1164.468,1415.936,1165.448,1414.722,1165.448z M1361.808,1165.23
					c-0.002,0-0.006,0-0.009,0l-26.458-0.11c-1.219-0.005-2.201-0.996-2.196-2.214c0.004-1.214,0.99-2.195,2.205-2.195
					c0.002,0,0.006,0,0.009,0l26.458,0.11c1.219,0.005,2.201,0.996,2.196,2.213
					C1364.009,1164.249,1363.023,1165.23,1361.808,1165.23z M1308.893,1165.01c-0.002,0-0.006,0-0.009,0l-26.458-0.11
					c-1.219-0.005-2.2-0.996-2.196-2.214c0.004-1.218,1.066-2.233,2.214-2.195l26.458,0.11c1.219,0.005,2.201,0.996,2.196,2.213
					C1311.093,1164.03,1310.107,1165.01,1308.893,1165.01z M1255.977,1164.792c-0.002,0-0.006,0-0.009,0l-26.458-0.11
					c-1.219-0.005-2.201-0.996-2.196-2.215c0.004-1.214,0.99-2.195,2.205-2.195c0.002,0,0.006,0,0.009,0l26.458,0.11
					c1.219,0.005,2.201,0.996,2.196,2.215C1258.178,1163.811,1257.192,1164.792,1255.977,1164.792z M1203.062,1164.572
					c-0.002,0-0.006,0-0.009,0l-26.458-0.11c-1.219-0.005-2.2-0.996-2.196-2.214c0.004-1.214,0.99-2.195,2.205-2.195
					c0.002,0,0.006,0,0.009,0l26.458,0.11c1.219,0.005,2.201,0.996,2.196,2.215
					C1205.262,1163.591,1204.276,1164.572,1203.062,1164.572z M1150.146,1164.354c-0.002,0-0.006,0-0.009,0l-26.456-0.11
					c-1.219-0.005-2.201-0.996-2.196-2.213c0.004-1.215,0.99-2.196,2.205-2.196c0.002,0,0.007,0,0.009,0l26.456,0.11
					c1.219,0.005,2.2,0.996,2.196,2.214C1152.346,1163.373,1151.36,1164.354,1150.146,1164.354z M1097.232,1164.134
					c-0.002,0-0.006,0-0.009,0l-26.458-0.11c-1.219-0.005-2.2-0.996-2.196-2.214c0.004-1.215,0.99-2.196,2.205-2.196
					c0.002,0,0.006,0,0.009,0l26.458,0.11c1.219,0.005,2.201,0.996,2.196,2.215
					C1099.433,1163.153,1098.447,1164.134,1097.232,1164.134z M1044.317,1163.914c-0.002,0-0.006,0-0.009,0l-26.458-0.109
					c-1.219-0.005-2.201-0.996-2.196-2.213c0.004-1.216,0.99-2.196,2.205-2.196c0.002,0,0.006,0,0.009,0l26.458,0.109
					c1.219,0.005,2.2,0.996,2.196,2.214C1046.517,1162.933,1045.531,1163.914,1044.317,1163.914z M991.401,1163.696
					c-0.002,0-0.006,0-0.009,0l-26.458-0.11c-1.219-0.005-2.201-0.996-2.196-2.213c0.004-1.219,1.046-2.136,2.213-2.196l26.458,0.11
					c1.219,0.005,2.201,0.996,2.196,2.214C993.602,1162.715,992.615,1163.696,991.401,1163.696z M938.485,1163.476
					c-0.002,0-0.007,0-0.009,0l-26.458-0.109c-1.219-0.005-2.201-0.996-2.196-2.214c0.004-1.215,0.99-2.196,2.205-2.196
					c0.002,0,0.006,0,0.009,0l26.458,0.109c1.219,0.005,2.201,0.996,2.196,2.213C940.686,1162.495,939.7,1163.476,938.485,1163.476z
					 M885.57,1163.258c-0.002,0-0.007,0-0.009,0l-26.456-0.11c-1.219-0.005-2.201-0.996-2.196-2.213
					c0.004-1.215,0.991-2.196,2.205-2.196c0.002,0,0.006,0,0.009,0l26.456,0.11c1.219,0.005,2.201,0.996,2.196,2.214
					C887.77,1162.277,886.784,1163.258,885.57,1163.258z M832.656,1163.038c-0.002,0-0.006,0-0.009,0l-26.458-0.11
					c-1.219-0.005-2.201-0.996-2.196-2.213c0.004-1.215,0.99-2.196,2.205-2.196c0.002,0,0.006,0,0.009,0l26.458,0.11
					c1.219,0.005,2.201,0.996,2.196,2.214C834.857,1162.057,833.871,1163.038,832.656,1163.038z M779.741,1162.819
					c-0.002,0-0.007,0-0.009,0l-26.458-0.11c-1.219-0.005-2.201-0.996-2.196-2.214c0.004-1.214,0.991-2.195,2.205-2.195
					c0.002,0,0.006,0,0.009,0l26.458,0.11c1.219,0.005,2.201,0.996,2.196,2.213C781.941,1161.839,780.955,1162.819,779.741,1162.819
					z M726.825,1162.6c-0.002,0-0.006,0-0.009,0l-3.152-0.013c-1.214-0.005-2.196-0.99-2.196-2.205v-23.306
					c0-1.218,0.986-2.205,2.205-2.205c1.219,0,2.205,0.987,2.205,2.205v21.109l0.956,0.004c1.219,0.005,2.201,0.996,2.196,2.214
					C729.025,1161.619,728.039,1162.6,726.825,1162.6z M1678.764,1139.55c-1.219,0-2.205-0.987-2.205-2.205v-26.458
					c0-1.218,0.986-2.205,2.205-2.205c1.219,0,2.205,0.987,2.205,2.205v26.458C1680.969,1138.563,1679.983,1139.55,1678.764,1139.55
					z M723.673,1112.823c-1.219,0-2.205-0.987-2.205-2.205v-26.458c0-1.218,0.986-2.205,2.205-2.205
					c1.219,0,2.205,0.987,2.205,2.205v26.458C725.878,1111.836,724.891,1112.823,723.673,1112.823z M723.673,1059.908
					c-1.219,0-2.205-0.987-2.205-2.205v-26.458c0-1.218,0.986-2.205,2.205-2.205c1.219,0,2.205,0.987,2.205,2.205v26.458
					C725.878,1058.921,724.891,1059.908,723.673,1059.908z M723.673,1006.992c-1.219,0-2.205-0.987-2.205-2.205v-26.458
					c0-1.218,0.986-2.205,2.205-2.205c1.219,0,2.205,0.987,2.205,2.205v26.458C725.878,1006.005,724.891,1006.992,723.673,1006.992z
					 M723.673,954.076c-1.219,0-2.205-0.987-2.205-2.205v-26.458c0-1.218,0.986-2.205,2.205-2.205c1.219,0,2.205,0.987,2.205,2.205
					v26.458C725.878,953.089,724.891,954.076,723.673,954.076z M723.673,901.161c-1.219,0-2.205-0.987-2.205-2.205v-26.458
					c0-1.218,0.986-2.205,2.205-2.205c1.219,0,2.205,0.987,2.205,2.205v26.458C725.878,900.174,724.891,901.161,723.673,901.161z
					 M723.673,848.245c-1.219,0-2.205-0.987-2.205-2.205v-26.458c0-1.218,0.986-2.205,2.205-2.205c1.219,0,2.205,0.987,2.205,2.205
					v26.458C725.878,847.258,724.891,848.245,723.673,848.245z M723.673,795.33c-1.219,0-2.205-0.987-2.205-2.205v-26.458
					c0-1.218,0.986-2.205,2.205-2.205c1.219,0,2.205,0.987,2.205,2.205v26.458C725.878,794.342,724.891,795.33,723.673,795.33z
					 M723.673,742.414c-1.219,0-2.205-0.987-2.205-2.205v-26.458c0-1.218,0.986-2.205,2.205-2.205c1.219,0,2.205,0.987,2.205,2.205
					v26.458C725.878,741.427,724.891,742.414,723.673,742.414z M723.673,689.498c-1.219,0-2.205-0.987-2.205-2.205v-26.458
					c0-1.218,0.986-2.205,2.205-2.205c1.219,0,2.205,0.987,2.205,2.205v26.458C725.878,688.511,724.891,689.498,723.673,689.498z
					 M723.673,636.583c-1.219,0-2.205-0.987-2.205-2.205V607.92c0-1.218,0.986-2.205,2.205-2.205c1.219,0,2.205,0.987,2.205,2.205
					v26.458C725.878,635.595,724.891,636.583,723.673,636.583z M1537.996,606.187c-1.219,0-2.205-0.987-2.205-2.205v-26.458
					c0-1.218,0.986-2.205,2.205-2.205s2.205,0.987,2.205,2.205v26.458C1540.201,605.199,1539.214,606.187,1537.996,606.187z
					 M723.673,583.667c-1.219,0-2.205-0.987-2.205-2.205v-26.458c0-1.218,0.986-2.205,2.205-2.205c1.219,0,2.205,0.987,2.205,2.205
					v26.458C725.878,582.68,724.891,583.667,723.673,583.667z M1537.996,553.271c-1.219,0-2.205-0.987-2.205-2.205v-26.458
					c0-1.218,0.986-2.205,2.205-2.205s2.205,0.987,2.205,2.205v26.458C1540.201,552.284,1539.214,553.271,1537.996,553.271z
					 M723.673,530.751c-1.219,0-2.205-0.987-2.205-2.205v-26.458c0-1.218,0.986-2.205,2.205-2.205c1.219,0,2.205,0.987,2.205,2.205
					v26.458C725.878,529.764,724.891,530.751,723.673,530.751z M1537.996,500.355c-1.219,0-2.205-0.987-2.205-2.205v-26.458
					c0-1.218,0.986-2.205,2.205-2.205s2.205,0.987,2.205,2.205v26.458C1540.201,499.368,1539.214,500.355,1537.996,500.355z
					 M723.673,477.836c-1.219,0-2.205-0.987-2.205-2.205v-26.458c0-1.218,0.986-2.205,2.205-2.205c1.219,0,2.205,0.987,2.205,2.205
					v26.458C725.878,476.848,724.891,477.836,723.673,477.836z M1537.996,447.44c-1.219,0-2.205-0.987-2.205-2.205v-9.993
					l-12.077-0.059c-1.219-0.007-2.201-0.998-2.194-2.216c0.006-1.214,0.993-2.194,2.205-2.194c0.004,0,0.006,0,0.011,0l14.271,0.07
					c1.214,0.007,2.194,0.991,2.194,2.205v12.187C1540.201,446.452,1539.214,447.44,1537.996,447.44z M1497.267,435.053
					c-0.004,0-0.006,0-0.011,0l-26.458-0.13c-1.219-0.006-2.2-0.998-2.194-2.216c0.007-1.214,0.993-2.194,2.205-2.194
					c0.004,0,0.006,0,0.011,0l26.458,0.13c1.219,0.006,2.2,0.998,2.194,2.215C1499.465,434.073,1498.479,435.053,1497.267,435.053z
					 M1444.354,434.792c-0.004,0-0.006,0-0.011,0l-26.458-0.13c-1.219-0.007-2.2-0.998-2.194-2.216
					c0.006-1.214,0.993-2.194,2.205-2.194c0.004,0,0.006,0,0.011,0l26.458,0.13c1.219,0.007,2.201,0.998,2.194,2.216
					C1446.552,433.812,1445.566,434.792,1444.354,434.792z M1391.438,434.531c-0.004,0-0.006,0-0.011,0l-26.458-0.13
					c-1.219-0.007-2.201-0.998-2.194-2.216c0.007-1.214,0.993-2.194,2.205-2.194c0.004,0,0.006,0,0.011,0l26.458,0.13
					c1.219,0.007,2.2,0.998,2.194,2.216C1393.636,433.552,1392.65,434.531,1391.438,434.531z M1338.522,434.272
					c-0.004,0-0.006,0-0.011,0l-26.458-0.13c-1.219-0.006-2.2-0.998-2.194-2.216c0.006-1.214,0.993-2.194,2.205-2.194
					c0.004,0,0.006,0,0.011,0l26.458,0.13c1.219,0.007,2.201,0.998,2.194,2.216C1340.72,433.292,1339.734,434.272,1338.522,434.272z
					 M1285.606,434.012c-0.004,0-0.006,0-0.011,0l-26.456-0.13c-1.219-0.007-2.201-0.998-2.194-2.216
					c0.006-1.214,0.993-2.194,2.205-2.194c0.004,0,0.006,0,0.011,0l26.456,0.13c1.219,0.007,2.2,0.998,2.194,2.216
					C1287.805,433.032,1286.819,434.012,1285.606,434.012z M1232.693,433.751c-0.004,0-0.006,0-0.011,0l-26.458-0.13
					c-1.219-0.007-2.2-0.998-2.194-2.216c0.006-1.214,0.993-2.194,2.205-2.194c0.004,0,0.006,0,0.011,0l26.458,0.13
					c1.219,0.006,2.2,0.998,2.194,2.216C1234.891,432.771,1233.905,433.751,1232.693,433.751z M1179.777,433.491
					c-0.004,0-0.006,0-0.011,0l-26.458-0.13c-1.219-0.006-2.201-0.998-2.194-2.216c0.006-1.214,0.993-2.194,2.205-2.194
					c0.004,0,0.006,0,0.011,0l26.458,0.13c1.219,0.006,2.201,0.998,2.194,2.215C1181.976,432.511,1180.99,433.491,1179.777,433.491z
					 M1126.862,433.23c-0.004,0-0.006,0-0.011,0l-26.458-0.13c-1.219-0.007-2.2-0.998-2.194-2.216
					c0.006-1.214,0.993-2.194,2.205-2.194c0.004,0,0.006,0,0.011,0l26.458,0.13c1.219,0.007,2.2,0.998,2.194,2.216
					C1129.06,432.25,1128.074,433.23,1126.862,433.23z M1073.948,432.97c-0.004,0-0.006,0-0.011,0l-26.458-0.13
					c-1.219-0.006-2.201-0.998-2.194-2.216c0.006-1.214,0.993-2.194,2.205-2.194c0.004,0,0.007,0,0.011,0l26.458,0.13
					c1.219,0.006,2.201,0.998,2.194,2.216C1076.147,431.991,1075.16,432.97,1073.948,432.97z M1021.033,432.71
					c-0.004,0-0.006,0-0.011,0l-26.458-0.13c-1.219-0.006-2.201-0.998-2.194-2.216c0.007-1.214,0.993-2.194,2.205-2.194
					c0.004,0,0.006,0,0.011,0l26.458,0.13c1.219,0.007,2.201,0.998,2.194,2.216C1023.231,431.73,1022.245,432.71,1021.033,432.71z
					 M968.117,432.449c-0.004,0-0.006,0-0.011,0l-26.458-0.13c-1.219-0.007-2.201-0.998-2.194-2.216
					c0.006-1.214,0.993-2.194,2.205-2.194c0.004,0,0.006,0,0.011,0l26.458,0.13c1.219,0.007,2.201,0.998,2.194,2.216
					C970.315,431.47,969.329,432.449,968.117,432.449z M915.201,432.189c-0.004,0-0.006,0-0.011,0l-26.456-0.13
					c-1.219-0.007-2.201-0.998-2.194-2.216c0.006-1.214,0.993-2.194,2.205-2.194c0.004,0,0.006,0,0.011,0l26.456,0.13
					c1.219,0.006,2.201,0.998,2.194,2.216C917.4,431.209,916.414,432.189,915.201,432.189z M862.288,431.928
					c-0.004,0-0.006,0-0.011,0l-26.458-0.13c-1.219-0.006-2.201-0.998-2.194-2.216c0.006-1.214,0.993-2.194,2.205-2.194
					c0.004,0,0.007,0,0.011,0l26.458,0.13c1.219,0.006,2.201,0.998,2.194,2.216C864.486,430.949,863.5,431.928,862.288,431.928z
					 M809.372,431.669c-0.004,0-0.006,0-0.011,0l-26.458-0.13c-1.219-0.007-2.201-0.998-2.194-2.216
					c0.006-1.214,0.993-2.194,2.205-2.194c0.004,0,0.006,0,0.011,0l26.458,0.13c1.219,0.007,2.201,0.998,2.194,2.216
					C811.57,430.689,810.584,431.669,809.372,431.669z M756.456,431.408c-0.004,0-0.006,0-0.011,0l-26.458-0.13
					c-1.219-0.006-2.201-0.998-2.194-2.216c0.006-1.214,0.993-2.194,2.205-2.194c0.004,0,0.007,0,0.011,0l26.458,0.13
					c1.219,0.006,2.201,0.998,2.194,2.216C758.655,430.429,757.669,431.408,756.456,431.408z"/>
				<g>
					<path style="fill:#363E44;" d="M1034.548,905.279h-20.916c-1.219,0-2.205-0.987-2.205-2.205s0.986-2.205,2.205-2.205h18.711
						v-3.337c0-1.218,0.986-2.205,2.205-2.205s2.205,0.987,2.205,2.205v5.542C1036.753,904.292,1035.766,905.279,1034.548,905.279z
						 M987.174,905.279h-26.458c-1.219,0-2.205-0.987-2.205-2.205s0.986-2.205,2.205-2.205h26.458c1.219,0,2.205,0.987,2.205,2.205
						S988.393,905.279,987.174,905.279z M934.259,905.279h-26.458c-1.219,0-2.205-0.987-2.205-2.205s0.986-2.205,2.205-2.205h26.458
						c1.219,0,2.205,0.987,2.205,2.205S935.477,905.279,934.259,905.279z M881.343,905.279h-26.458
						c-1.219,0-2.205-0.987-2.205-2.205s0.986-2.205,2.205-2.205h26.458c1.219,0,2.205,0.987,2.205,2.205
						S882.562,905.279,881.343,905.279z M828.427,905.279H801.97c-1.219,0-2.205-0.987-2.205-2.205s0.986-2.205,2.205-2.205h26.458
						c1.219,0,2.205,0.987,2.205,2.205S829.646,905.279,828.427,905.279z M775.512,905.279h-26.458
						c-1.219,0-2.205-0.987-2.205-2.205s0.986-2.205,2.205-2.205h26.458c1.219,0,2.205,0.987,2.205,2.205
						S776.731,905.279,775.512,905.279z M722.596,905.279h-26.458c-1.219,0-2.205-0.987-2.205-2.205s0.986-2.205,2.205-2.205h26.458
						c1.219,0,2.205,0.987,2.205,2.205S723.815,905.279,722.596,905.279z M1034.548,873.279c-1.219,0-2.205-0.987-2.205-2.205
						v-26.458c0-1.218,0.986-2.205,2.205-2.205s2.205,0.987,2.205,2.205v26.458C1036.753,872.291,1035.766,873.279,1034.548,873.279
						z M1034.548,820.363c-1.219,0-2.205-0.987-2.205-2.205V791.7c0-1.218,0.986-2.205,2.205-2.205s2.205,0.987,2.205,2.205v26.458
						C1036.753,819.376,1035.766,820.363,1034.548,820.363z M1034.548,767.447c-1.219,0-2.205-0.987-2.205-2.205v-26.458
						c0-1.218,0.986-2.205,2.205-2.205s2.205,0.987,2.205,2.205v26.458C1036.753,766.46,1035.766,767.447,1034.548,767.447z
						 M1034.548,714.532c-1.219,0-2.205-0.987-2.205-2.205v-26.458c0-1.218,0.986-2.205,2.205-2.205s2.205,0.987,2.205,2.205v26.458
						C1036.753,713.544,1035.766,714.532,1034.548,714.532z M1740.949,688.154c-1.219,0-2.205-0.987-2.205-2.205v-26.458
						c0-1.218,0.986-2.205,2.205-2.205c1.219,0,2.205,0.987,2.205,2.205v26.458C1743.154,687.166,1742.168,688.154,1740.949,688.154
						z M1034.548,661.616c-1.219,0-2.205-0.987-2.205-2.205v-26.458c0-1.218,0.986-2.205,2.205-2.205s2.205,0.987,2.205,2.205
						v26.458C1036.753,660.629,1035.766,661.616,1034.548,661.616z M1740.949,635.238c-1.219,0-2.205-0.987-2.205-2.205v-26.458
						c0-1.218,0.986-2.205,2.205-2.205c1.219,0,2.205,0.987,2.205,2.205v26.458C1743.154,634.251,1742.168,635.238,1740.949,635.238
						z M1034.548,608.7c-1.219,0-2.205-0.987-2.205-2.205v-26.458c0-1.218,0.986-2.205,2.205-2.205s2.205,0.987,2.205,2.205v26.458
						C1036.753,607.713,1035.766,608.7,1034.548,608.7z M1740.949,582.322c-1.219,0-2.205-0.987-2.205-2.205V553.66
						c0-1.218,0.986-2.205,2.205-2.205c1.219,0,2.205,0.987,2.205,2.205v26.458C1743.154,581.335,1742.168,582.322,1740.949,582.322
						z M1034.548,555.785c-1.219,0-2.205-0.987-2.205-2.205v-26.458c0-1.218,0.986-2.205,2.205-2.205s2.205,0.987,2.205,2.205
						v26.458C1036.753,554.797,1035.766,555.785,1034.548,555.785z M1740.949,529.407c-1.219,0-2.205-0.987-2.205-2.205v-15.044
						h-7.004c-1.219,0-2.205-0.987-2.205-2.205c0-1.218,0.986-2.205,2.205-2.205h9.209c1.219,0,2.205,0.987,2.205,2.205v17.249
						C1743.154,528.419,1742.168,529.407,1740.949,529.407z M1705.282,512.158h-26.458c-1.219,0-2.205-0.987-2.205-2.205
						c0-1.218,0.986-2.205,2.205-2.205h26.458c1.219,0,2.205,0.987,2.205,2.205C1707.487,511.171,1706.501,512.158,1705.282,512.158
						z M1652.366,512.158h-26.458c-1.219,0-2.205-0.987-2.205-2.205c0-1.218,0.986-2.205,2.205-2.205h26.458
						c1.219,0,2.205,0.987,2.205,2.205C1654.571,511.171,1653.585,512.158,1652.366,512.158z M1599.451,512.158h-26.458
						c-1.219,0-2.205-0.987-2.205-2.205c0-1.218,0.986-2.205,2.205-2.205h26.458c1.219,0,2.205,0.987,2.205,2.205
						C1601.656,511.171,1600.67,512.158,1599.451,512.158z M1546.535,512.158h-26.458c-1.219,0-2.205-0.987-2.205-2.205
						c0-1.218,0.986-2.205,2.205-2.205h26.458c1.219,0,2.205,0.987,2.205,2.205C1548.74,511.171,1547.754,512.158,1546.535,512.158z
						 M1493.62,512.158h-26.458c-1.219,0-2.205-0.987-2.205-2.205c0-1.218,0.986-2.205,2.205-2.205h26.458
						c1.219,0,2.205,0.987,2.205,2.205C1495.824,511.171,1494.838,512.158,1493.62,512.158z M1440.704,512.158h-26.458
						c-1.219,0-2.205-0.987-2.205-2.205c0-1.218,0.986-2.205,2.205-2.205h26.458c1.219,0,2.205,0.987,2.205,2.205
						C1442.909,511.171,1441.923,512.158,1440.704,512.158z M1387.788,512.158h-26.458c-1.219,0-2.205-0.987-2.205-2.205
						c0-1.218,0.986-2.205,2.205-2.205h26.458c1.219,0,2.205,0.987,2.205,2.205C1389.993,511.171,1389.007,512.158,1387.788,512.158
						z M1334.873,512.158h-26.458c-1.219,0-2.205-0.987-2.205-2.205c0-1.218,0.986-2.205,2.205-2.205h26.458
						c1.219,0,2.205,0.987,2.205,2.205C1337.077,511.171,1336.091,512.158,1334.873,512.158z M1281.957,512.158h-26.458
						c-1.219,0-2.205-0.987-2.205-2.205c0-1.218,0.986-2.205,2.205-2.205h26.458c1.219,0,2.205,0.987,2.205,2.205
						C1284.162,511.171,1283.176,512.158,1281.957,512.158z M1229.041,512.158h-26.458c-1.219,0-2.205-0.987-2.205-2.205
						c0-1.218,0.986-2.205,2.205-2.205h26.458c1.219,0,2.205,0.987,2.205,2.205C1231.246,511.171,1230.26,512.158,1229.041,512.158z
						 M1176.126,512.158h-26.458c-1.219,0-2.205-0.987-2.205-2.205c0-1.218,0.986-2.205,2.205-2.205h26.458
						c1.219,0,2.205,0.987,2.205,2.205C1178.33,511.171,1177.344,512.158,1176.126,512.158z M1123.21,512.158h-26.458
						c-1.219,0-2.205-0.987-2.205-2.205c0-1.218,0.986-2.205,2.205-2.205h26.458c1.219,0,2.205,0.987,2.205,2.205
						C1125.415,511.171,1124.429,512.158,1123.21,512.158z M1070.294,512.158h-26.458c-1.219,0-2.205-0.987-2.205-2.205
						c0-1.218,0.986-2.205,2.205-2.205h26.458c1.219,0,2.205,0.987,2.205,2.205C1072.499,511.171,1071.513,512.158,1070.294,512.158
						z"/>
					<circle style="fill:#363E44;" cx="694.132" cy="903.074" r="17.491"/>
					
						<ellipse transform="matrix(0.9732 -0.2298 0.2298 0.9732 -89.5013 251.2164)" style="fill:#363E44;" cx="1034.047" cy="509.953" rx="17.491" ry="17.491"/>
					
						<ellipse transform="matrix(0.9732 -0.2298 0.2298 0.9732 -70.591 413.6287)" style="fill:#363E44;" cx="1740.948" cy="509.953" rx="17.491" ry="17.491"/>
				</g>
			</g>
		</g>
		<g>
			<g>
				<path style="fill:#363E44;" d="M2026.604,2165H1782.42c-9.899-33.05-18.499-67.688-25.179-103.693
					c-1.411-7.54-2.734-15.169-3.969-22.842v-0.021c-4.85-30.096-8.334-61.095-10.141-92.889l-67.556-271.7l-1.213-4.872
					l100.319,0.75l28.112,0.198l20.748,0.154l3.837,0.044l54.789,0.397c0,0,2.293,5.093,6.284,14.508
					c0.485,1.125,0.97,2.315,1.478,3.55c1.3,3.021,2.689,6.394,4.233,10.098c7.077,17.176,16.801,41.539,27.714,71.216
					c8.973,24.363,18.741,52.32,28.574,82.813c1.477,4.63,2.977,9.326,4.454,14.067c3.77,11.994,7.54,24.363,11.222,37.019
					c0.353,1.146,0.684,2.293,0.993,3.439c6.042,20.748,11.906,42.245,17.418,64.293
					C1996.684,2020.077,2011.588,2090.213,2026.604,2165z"/>
				<path style="fill:#363E44;" d="M1790.49,1997.5c0,0-14.31,20.703-33.249,63.807c-11.51,26.171-24.739,60.61-37.548,103.693
					h-236.159c2.535-18.499,5.998-37.196,10.54-55.958c43.941-181.986,110.527-375.283,132.929-438.539
					c4.873-13.758,7.65-21.365,7.65-21.365h139.036l0.991,20.593l0.53,10.957l1.477,30.669l2.867,59.265l2.337,48.661l2.932,60.677
					l0.618,12.7l0.529,11.024L1790.49,1997.5z"/>
				<path style="fill:#F2E6DC;" d="M1753.254,2040.669c-1.023,0-1.942-0.716-2.157-1.758l-23.067-111.434l-33.09-22.396
					c-1.008-0.682-1.272-2.053-0.59-3.062c0.682-1.009,2.052-1.274,3.062-0.59l33.83,22.898c0.476,0.322,0.807,0.816,0.924,1.379
					l23.25,112.311c0.245,1.192-0.521,2.359-1.712,2.605C1753.553,2040.654,1753.403,2040.669,1753.254,2040.669z"/>
			</g>
			<g>
				<g>
					<path style="fill:#E2A18D;" d="M1707.95,1502.485c-58.868,12.265-226.593,58.063-245.044-12.565
						c-15.262-58.42,150.049-95.815,207.716-111.785C1683.065,1419.585,1695.508,1461.035,1707.95,1502.485z"/>
					<g>
						<path style="fill:#E2A18D;" d="M1572.425,1500.824c0,0-13.101-153.636-20.716-204.175
							c-7.998-53.077-27.534-130.276-38.299-127.404c-6.131,1.636-5.644,12.715-2.372,42.242c-1.658-1.328-7.675-4.106-13.114-1.656
							c-8.047,3.625-6.903,10.932-7.108,11.621c-0.526-0.495-6.817-5.821-12.615-4.306c-6.531,1.706-9.281,6.733-10.076,11.97
							c-1.343-1.189-7.871-5.29-13.365-3.555c-7.143,2.255-9.003,10.336-7.992,16.437c1.856,11.192,7.69,41.648,8.718,58.149
							c2.023,32.47-6.269,148.744,9.059,194.901C1497.852,1469.304,1572.425,1500.824,1572.425,1500.824z"/>
						<path style="fill:#363E44;" d="M1493.783,1306.071c-0.136,0-0.273-0.012-0.413-0.039c-1.195-0.226-1.981-1.38-1.755-2.576
							c2.295-12.124,8.557-20.241,13.128-26.167c4.814-6.24,7.03-9.402,4.81-13.035c-2.685-4.394-3.701-10.579-3.021-18.386
							c0.258-2.966,2.285-5.396,5.163-6.189c2.913-0.802,5.912,0.258,7.667,2.691l20.42,28.292c0.713,0.988,0.491,2.366-0.497,3.079
							c-0.988,0.713-2.364,0.489-3.077-0.497l-20.42-28.293c-1.023-1.415-2.493-1.139-2.92-1.022
							c-0.42,0.116-1.796,0.624-1.944,2.322c-0.588,6.751,0.239,12.182,2.392,15.703c3.899,6.385-0.263,11.781-5.081,18.028
							c-4.539,5.885-10.189,13.207-12.288,24.294C1495.747,1305.335,1494.821,1306.071,1493.783,1306.071z"/>
						<path style="fill:#363E44;" d="M1456.585,1262.304c-1.061,0-1.998-0.769-2.175-1.851c-0.196-1.202,0.62-2.334,1.822-2.53
							c7.861-1.281,13.448-8.496,12.719-16.427l-0.635-6.937c-0.101-1.123,0.659-2.142,1.764-2.363
							c1.102-0.219,2.198,0.425,2.536,1.503l4.091,13.067c1.294,4.126,5.355,6.73,9.635,6.21c2.416-0.297,4.558-1.528,6.033-3.464
							c1.473-1.938,2.089-4.331,1.729-6.738l-2.685-18.029c-0.172-1.159,0.592-2.251,1.742-2.486
							c1.128-0.236,2.278,0.47,2.573,1.606l2.215,8.528c0.915,3.511,4.528,5.676,8.055,4.838c3.327-0.794,5.519-3.953,5.103-7.345
							l-1.561-12.682c-0.149-1.208,0.711-2.308,1.918-2.458c1.197-0.152,2.306,0.712,2.457,1.919l1.561,12.682
							c0.691,5.623-2.943,10.855-8.453,12.173c-3.174,0.758-6.386,0.045-8.905-1.696l0.342,2.3
							c0.534,3.595-0.381,7.167-2.582,10.058c-2.2,2.892-5.398,4.728-9.004,5.172c-6.294,0.779-12.219-2.961-14.265-8.914
							c-2.093,7.03-8.055,12.595-15.673,13.836C1456.822,1262.296,1456.702,1262.304,1456.585,1262.304z"/>
					</g>
				</g>
				<path style="fill:#E2A18D;" d="M2052.659,1531.141c34.109,49.522,141.297,186.416,83.328,230.783
					c-47.949,36.698-146.454-101.224-183.513-148.204C1985.869,1586.193,2019.264,1558.667,2052.659,1531.141z"/>
				<g>
					<path style="fill:#FFFFFF;" d="M2086.256,1544.726c0,0-134.919-137.911-241.713-164.962
						c-83.721-21.207-154.277-22.075-260.965,14.049l25.774,144.077l23.744-8.781c-22.903,52.79-36.654,92.515-50.406,138.353
						l400.314,27.503l-7.227-43.31l21.385,19.507L2086.256,1544.726z"/>
				</g>
				<g>
					<g>
						<path style="fill:#D3BBA3;" d="M1737.522,1788.502l4.277,36.688c0.353,3.043,3.13,5.248,6.196,4.872l8.577-0.992
							c2.073,6.659,4.652,13.119,7.717,19.38l-11.421,8.488l26.525,35.608l2.205,2.954l3.836-2.844l7.54-5.622
							c5.049,4.696,10.518,9.017,16.382,12.92l-5.622,13.052l44.141,19.05l4.056-9.415l1.565-3.638
							c6.857,1.565,13.78,2.58,20.659,3.02l1.654,14.111l46.609-5.446l1.125-0.132l-0.066-0.507l-1.588-13.626
							c6.659-2.073,13.141-4.652,19.38-7.717l5.182,6.945c0.066,0.11,0.154,0.198,0.242,0.286c1.874,2.227,5.203,2.624,7.563,0.86
							l12.854-9.569l16.756-12.479c1.257-0.926,1.985-2.271,2.183-3.682c0.198-1.411-0.132-2.888-1.037-4.123l-5.159-6.923
							c4.696-5.049,9.04-10.517,12.943-16.382l13.052,5.622l19.027-44.141l-13.052-5.622c1.588-6.857,2.579-13.78,3.042-20.659
							l8.556-0.993c3.064-0.353,5.247-3.131,4.894-6.195l-4.3-36.667c-0.352-3.064-3.108-5.247-6.173-4.895l-8.599,1.014
							c-2.051-6.658-4.63-13.141-7.695-19.38l11.4-8.511l-10.275-13.78l-0.067-0.088v-0.022l-18.366-24.672l-2.624,1.962
							l-8.752,6.527c-5.072-4.697-10.54-9.04-16.382-12.943l5.622-13.052l-44.14-19.028l-5.644,13.053
							c-6.857-1.588-13.759-2.58-20.637-3.043l-1.654-14.089l-47.757,5.578l1.654,14.133c-5.667,1.742-11.179,3.88-16.559,6.372
							c-0.948,0.419-1.896,0.86-2.822,1.323l-1.014-1.367l-4.145-5.556c-1.853-2.492-5.337-2.999-7.805-1.146l-8.798,6.548
							l-15.566,11.598l-5.247,3.902c-2.47,1.83-2.998,5.335-1.146,7.805l5.137,6.901c-3.286,3.549-6.394,7.298-9.282,11.222
							c-1.258,1.676-2.47,3.396-3.639,5.159l-13.052-5.622l-19.049,44.141l13.052,5.644c-1.565,6.857-2.579,13.758-3.021,20.637
							l-8.577,1.015C1739.352,1782.681,1737.148,1785.437,1737.522,1788.502z M1960.871,1740.988
							c16.095,25.598,19.336,58.648,5.401,88.325c-4.122,8.775-9.48,16.602-15.83,23.393
							c-25.135,26.987-65.33,37.262-101.224,23.129c-14.177-5.578-26.172-14.243-35.498-24.915
							c-23.371-26.612-30.338-65.637-14.176-100.077c17.153-36.512,56.068-56.862,94.608-52.166
							c7.563,0.904,15.082,2.779,22.445,5.667C1935.692,1711.862,1950.794,1724.959,1960.871,1740.988z"/>
					</g>
					<path style="fill:#F2E6DC;" d="M1882.923,1897.477c-14.303,0-28.762-2.858-42.527-8.795
						c-54.369-23.446-79.526-86.75-56.081-141.118c20.875-48.41,75.007-74.782,125.881-61.348c1.178,0.311,1.88,1.517,1.57,2.695
						c-0.31,1.177-1.531,1.873-2.694,1.569c-48.807-12.882-100.69,12.413-120.709,58.831
						c-22.481,52.135,1.643,112.84,53.777,135.322c43.08,18.578,93.255,5.726,122.023-31.255c0.749-0.959,2.132-1.134,3.094-0.388
						c0.96,0.748,1.132,2.134,0.385,3.094C1946.839,1882.832,1915.289,1897.477,1882.923,1897.477z"/>
				</g>
				<g>
					<path style="fill:#E2A18D;" d="M2017.579,1697.598c-48.498,38.753-167.228,124.362-178.485,133.18
						c-21.043,16.485-66.865,50.367-58.771,66.827c2.692,5.474,9.028,8.928,16.311,9.352c-2.23,7.5,0.145,15.525,5.955,20.258
						c7.634,6.22,17.047,3.373,17.735,3.153c-2.475,5.532-2.058,11.817,1.295,16.201c4.628,6.048,14.283,7.738,22.093,2.852
						c0.156,1.711,0.921,7.786,5.924,12.202c5.543,4.893,14.048,5.774,21.521,2.191c18.708-14.631,51.598-32.67,89.621-56.645
						c89.302-56.307,126.76-85.163,164.974-120.175c14.822-13.58,36.303-45.547,22.607-88.113
						C2104.415,1698.358,2061.523,1698.121,2017.579,1697.598z"/>
					<path style="fill:#363E44;" d="M1999.182,1714.353c-0.657,0-1.307-0.292-1.742-0.849c-0.747-0.961-0.575-2.347,0.385-3.095
						c10.68-8.319,19.497-15.207,24.322-19.028c0.954-0.759,2.343-0.594,3.098,0.361c0.756,0.954,0.594,2.34-0.36,3.097
						c-4.834,3.826-13.66,10.72-24.352,19.05C2000.131,1714.201,1999.656,1714.353,1999.182,1714.353z"/>
					<g>
						<path style="fill:#363E44;" d="M1815.215,1883.191c-0.605,0-1.208-0.248-1.643-0.735l-7.844-8.765
							c-0.812-0.906-0.734-2.301,0.172-3.112c0.911-0.813,2.302-0.736,3.113,0.173l7.844,8.766c0.812,0.906,0.734,2.301-0.172,3.112
							C1816.264,1883.006,1815.738,1883.191,1815.215,1883.191z"/>
						<path style="fill:#363E44;" d="M1835.091,1905.46c-0.605,0-1.208-0.248-1.643-0.734l-7.846-8.766
							c-0.812-0.908-0.734-2.301,0.172-3.113c0.904-0.811,2.302-0.736,3.114,0.172l7.846,8.766c0.812,0.908,0.734,2.301-0.172,3.113
							C1836.142,1905.275,1835.616,1905.46,1835.091,1905.46z"/>
						<path style="fill:#363E44;" d="M1855.078,1928.358c-0.605,0-1.208-0.248-1.643-0.735l-7.844-8.763
							c-0.812-0.907-0.734-2.302,0.172-3.113c0.911-0.813,2.302-0.735,3.113,0.172l7.844,8.766c0.812,0.906,0.734,2.301-0.172,3.112
							C1856.127,1928.172,1855.602,1928.358,1855.078,1928.358z"/>
						<path style="fill:#363E44;" d="M1873.634,1948.75c-0.605,0-1.206-0.248-1.643-0.734l-7.846-8.764
							c-0.812-0.907-0.734-2.301,0.172-3.113c0.902-0.811,2.302-0.736,3.113,0.172l7.846,8.764c0.812,0.906,0.734,2.301-0.172,3.113
							C1874.685,1948.565,1874.16,1948.75,1873.634,1948.75z"/>
					</g>
				</g>
			</g>
			<g>
				<path style="fill:#E2A18D;" d="M1782.255,1386.171c-4.141,13.892,18.579,32.928,50.747,42.518
					c32.168,9.59,61.604,6.102,65.745-7.79c4.141-13.892-18.579-32.928-50.747-42.518
					C1815.831,1368.791,1786.396,1372.279,1782.255,1386.171z"/>
				<g>
					<path style="fill:#E2A18D;" d="M1794.881,1336.11c13.47,17.23,71.564-1.327,71.564-1.327l44.84-49.536
						c8.79-29.485-7.986-60.513-37.472-69.303c-29.485-8.79-60.513,7.987-69.303,37.472
						C1804.51,1253.416,1781.161,1318.561,1794.881,1336.11z"/>
					
						<rect x="1825.246" y="1272.069" transform="matrix(-0.9583 -0.2857 0.2857 -0.9583 3256.98 3160.125)" style="fill:#E2A18D;" width="67.506" height="140.84"/>
					<path style="fill:#E2A18D;" d="M1806.46,1269.282c0,0-19.651,11.225-20.089,15.604c-0.523,5.228,15.258,13.216,15.258,13.216
						S1806.051,1269.202,1806.46,1269.282z"/>
					<g>
						<path style="fill:#FFFFFF;" d="M1855.321,1281.361c0,0-7.505-7.472-18.279-10.683c-2.292-0.683-3.436,18.95-0.95,18.56
							C1847.02,1287.523,1855.321,1281.361,1855.321,1281.361z"/>
						<g>
							<defs>
								<path id="SVGID_1_" d="M1855.321,1281.361c0,0-11.038-10.989-25.559-12.042c-14.522-1.052-27.028,8.232-27.028,8.232
									s11.038,10.989,25.559,12.041C1842.815,1290.644,1855.321,1281.361,1855.321,1281.361z"/>
							</defs>
							<clipPath id="SVGID_00000012443999913636423590000003616776445127954827_">
								<use xlink:href="#SVGID_1_"  style="overflow:visible;"/>
							</clipPath>
							<path style="clip-path:url(#SVGID_00000012443999913636423590000003616776445127954827_);fill:#363E44;" d="
								M1836.726,1270.07c-5.002-9.25-16.555-12.695-25.805-7.693c-9.25,5.002-12.695,16.555-7.693,25.805
								c5.002,9.25,16.555,12.695,25.805,7.693C1838.284,1290.874,1841.728,1279.32,1836.726,1270.07z"/>
						</g>
					</g>
					<path style="fill:#363E44;" d="M1814.328,1313.816c-2.883,0-5.693-1.249-7.635-3.509c-0.792-0.924-0.687-2.316,0.237-3.109
						c0.922-0.791,2.315-0.689,3.109,0.235c1.445,1.685,3.74,2.364,5.85,1.749c2.028-0.598,3.576-2.343,3.94-4.446
						c0.207-1.199,1.344-2.001,2.549-1.796c1.199,0.208,2.005,1.349,1.796,2.549c-0.65,3.744-3.413,6.854-7.043,7.924
						C1816.208,1313.684,1815.265,1313.816,1814.328,1313.816z"/>
					<path style="fill:#363E44;" d="M1817.653,1346.565c-2.597,0-5.12-0.122-7.519-0.395c-1.21-0.138-2.078-1.23-1.94-2.441
						c0.138-1.209,1.206-2.092,2.439-1.941c21.288,2.422,54.533-8.079,54.864-8.186c1.165-0.37,2.401,0.271,2.771,1.43
						c0.37,1.16-0.269,2.401-1.428,2.771C1865.594,1338.202,1839.132,1346.565,1817.653,1346.565z"/>
				</g>
				<g>
					<path style="fill:#363E44;" d="M1914.068,1319.078c15.908-7.624,20.796-45.126,11.022-69.147
						c-12.6-30.97-49.145-49.253-78.672-46.761c-7.258,0.612-23.845,4.162-29.354,14.508c-4.29,8.055,3.885,24.795,17.733,29.606
						c19.47,6.765,46.755,2.26,36.67,24.447C1840.908,1338.959,1896.589,1327.455,1914.068,1319.078z"/>
				</g>
				
					<ellipse transform="matrix(0.7071 -0.7071 0.7071 0.7071 -320.1633 1802.6045)" style="fill:#363E44;" cx="2015.854" cy="1287.774" rx="116.886" ry="116.886"/>
				<g>
					<path style="fill:#FFFFFF;" d="M1825.247,1304.398c-1.003,0-2.011-0.082-3.023-0.252c-11.582-1.95-19.137-14.649-16.84-28.311
						c1.1-6.544,4.276-12.355,8.942-16.361c4.784-4.104,10.542-5.834,16.235-4.881c11.584,1.95,19.139,14.65,16.842,28.311
						C1845.303,1295.372,1835.711,1304.398,1825.247,1304.398z M1827.514,1258.75c-3.615,0-7.209,1.404-10.314,4.072
						c-3.886,3.335-6.537,8.216-7.467,13.747c-1.895,11.263,4.037,21.684,13.223,23.229c9.155,1.552,18.203-6.359,20.097-17.625
						c1.895-11.263-4.037-21.683-13.225-23.229C1829.06,1258.813,1828.287,1258.75,1827.514,1258.75z M1807.559,1276.202h0.022
						H1807.559z"/>
					<path style="fill:#FFFFFF;" d="M1876.052,1292.272c-0.187,0-0.375-0.024-0.564-0.073l-29.031-7.64
						c-1.178-0.31-1.88-1.516-1.57-2.694c0.312-1.179,1.516-1.88,2.694-1.572l29.031,7.641c1.178,0.31,1.88,1.516,1.57,2.694
						C1877.921,1291.616,1877.03,1292.272,1876.052,1292.272z"/>
					<path style="fill:#FFFFFF;" d="M1807.296,1273.936c-0.691,0-1.372-0.324-1.8-0.929c-0.519-0.719-3.322-4.134-7.646-1.155
						c-1.008,0.691-2.375,0.436-3.068-0.566c-0.689-1.003-0.435-2.376,0.566-3.066c6.748-4.639,12.213,0.05,13.752,2.248
						c0.698,0.997,0.456,2.372-0.543,3.07C1808.174,1273.806,1807.733,1273.936,1807.296,1273.936z"/>
				</g>
				<path style="fill:#363E44;" d="M2002.868,1344.22c-51.766,0-93.881-42.114-93.881-93.88c0-51.765,42.115-93.879,93.881-93.879
					c51.766,0,93.879,42.114,93.879,93.879C2096.747,1302.105,2054.634,1344.22,2002.868,1344.22z M2002.868,1160.87
					c-49.335,0-89.472,40.136-89.472,89.47c0,49.334,40.137,89.471,89.472,89.471c49.333,0,89.47-40.137,89.47-89.471
					C2092.338,1201.005,2052.201,1160.87,2002.868,1160.87z"/>
				<path style="fill:#FFFFFF;" d="M1991.407,1390.057c-37.654,0-70.459-24.136-81.632-60.059c-0.362-1.163,0.289-2.399,1.451-2.76
					c1.167-0.361,2.399,0.291,2.76,1.451c10.596,34.068,41.708,56.958,77.421,56.958c31.249,0,60.049-18.274,73.377-46.554
					c0.517-1.101,1.824-1.575,2.935-1.055c1.1,0.52,1.572,1.833,1.053,2.935C2054.72,1370.79,2024.354,1390.057,1991.407,1390.057z"
					/>
			</g>
		</g>
		<g>
			<g>
				<path style="fill:#EFBC73;" d="M973.891,2165H781.146l-43.325-262.991c0,0-5.777,125.586-29.214,262.991H503.448
					c24.364-184.499,67.247-477.078,103.363-555.063l295.776,14.949C902.587,1624.886,960.353,1878.44,973.891,2165z"/>
			</g>
			<g>
				<g>
					<g>
						<path style="fill:#BC8271;" d="M960.063,1444.447c0,0,185.173-55.295,206.229-77.015c2.205-2.274,6.079-6.307,12.346-9.987
							c23.22-13.638,42.083-0.593,73.042-3.792c35.128-3.63,52.853-25.561,59.342-19.298c4.514,4.357,0.157,14.512-15.55,30.304
							c-0.001,0.001,0.001,0.004,0.002,0.003c13.313-10.626,31.996-24.249,37.847-16.875c6.3,8.876-13.771,27.459-26.463,38.107
							c15.362-12.889,27.387-15.146,29.625-10.222c3.522,7.751-6.063,20.52-27.027,36.767c-0.001,0.001,0,0.002,0.001,0.002
							c17.609-7.174,22.95-6.29,23.867-1.455c1.674,8.828-16.663,24.265-33.888,33.416c-19.391,10.302-57.395,16.481-68.26,20.997
							c-22.394,9.309-205.833,107.418-242.986,112.646C944.883,1584.139,960.063,1444.447,960.063,1444.447z"/>
						<path style="fill:#BC8271;" d="M1219.738,1364.655c22.341-26.868,24.705-41.294,20.334-44.698
							c-7.35-5.726-32.68,8.944-70.278,44.098C1184.578,1365.419,1204.955,1363.29,1219.738,1364.655z"/>
						<path style="fill:#363E44;" d="M1190.993,1357.466c-1.102,0-2.054-0.825-2.188-1.946c-0.142-1.209,0.721-2.305,1.931-2.448
							c1.783-0.21,3.731-0.457,5.8-0.72c11.198-1.423,25.136-3.195,36.421-2.304c1.214,0.096,2.121,1.157,2.026,2.372
							c-0.095,1.214-1.163,2.107-2.371,2.025c-10.841-0.856-25.101,0.959-35.52,2.281c-2.082,0.265-4.044,0.514-5.839,0.726
							C1191.165,1357.461,1191.079,1357.466,1190.993,1357.466z"/>
						<path style="fill:#BC8271;" d="M961.891,1577.846c-69.386-26.687-131.707-178.363-131.707-178.363l132.664-40.004
							l104.634,182.93C1067.483,1542.409,993.018,1589.818,961.891,1577.846z"/>
						<path style="fill:#363E44;" d="M1192.229,1436.868c-0.278,0-0.56-0.053-0.833-0.165c-1.128-0.46-1.669-1.747-1.208-2.874
							c1.975-4.836,6.871-13.834,17.486-19.768c10.553-5.898,20.731-5.389,25.851-4.562c1.204,0.195,2.02,1.326,1.826,2.529
							c-0.196,1.201-1.322,2.019-2.528,1.825c-4.56-0.736-13.61-1.19-22.995,4.058c-9.444,5.277-13.799,13.283-15.557,17.585
							C1193.921,1436.35,1193.097,1436.867,1192.229,1436.868z"/>
						<path style="fill:#363E44;" d="M1260.798,1380.363c-1.079,0-2.022-0.791-2.181-1.89c-0.172-1.206,0.663-2.323,1.869-2.497
							c4.074-0.587,8.111-1.556,11.997-2.879c5.641-1.92,11.016-4.596,15.976-7.955c1.006-0.68,2.377-0.42,3.062,0.59
							c0.683,1.008,0.418,2.378-0.59,3.062c-5.286,3.58-11.013,6.431-17.027,8.478c-4.143,1.41-8.447,2.443-12.79,3.068
							C1261.007,1380.356,1260.901,1380.363,1260.798,1380.363z"/>
						<path style="fill:#363E44;" d="M1274.113,1399.856c-1.079,0-2.022-0.791-2.181-1.89c-0.172-1.206,0.663-2.323,1.869-2.497
							c4.074-0.587,8.111-1.556,11.997-2.879c5.637-1.917,11.013-4.594,15.978-7.954c1.01-0.684,2.381-0.417,3.062,0.59
							c0.683,1.009,0.418,2.379-0.59,3.062c-5.292,3.581-11.022,6.432-17.029,8.477c-4.143,1.41-8.447,2.443-12.79,3.068
							C1274.322,1399.848,1274.216,1399.856,1274.113,1399.856z"/>
						<path style="fill:#363E44;" d="M1275.244,1428.552c-1.079,0-2.022-0.791-2.181-1.891c-0.172-1.206,0.663-2.323,1.869-2.497
							c4.074-0.587,8.111-1.555,11.997-2.878c5.637-1.918,11.013-4.596,15.978-7.955c1.012-0.684,2.379-0.417,3.062,0.59
							c0.683,1.009,0.418,2.379-0.59,3.062c-5.29,3.58-11.02,6.432-17.029,8.478c-4.145,1.41-8.449,2.442-12.79,3.067
							C1275.452,1428.544,1275.347,1428.552,1275.244,1428.552z"/>
					</g>
					<polygon style="fill:#BC8271;" points="459.69,1516.689 643.293,1445.971 547.187,1331.944 383.412,1428.602 					"/>
					<path style="fill:#363E44;" d="M525.366,1336.493c38.521-20.808,149.887-74.008,232.525-74.767
						c85.349-0.784,157.071,10.598,242.31,94.88c-19.155,18.197-55.549,55.549-92.929,93.795l23.237,241.033l-356.933,0.231
						l22.968-194.307l-34.557,12.835L525.366,1336.493z"/>
					<path style="fill:#FFFFFF;" d="M907.495,1452.262c-0.004,0-0.006,0-0.011,0c-1.216-0.005-2.201-0.998-2.194-2.216
						c0.073-15.168,0.2-22.807,0.362-32.479c0.075-4.599,0.159-9.606,0.245-16.051c0.017-1.207,1.001-2.175,2.205-2.175
						c0.009,0,0.019,0,0.03,0c1.216,0.016,2.192,1.017,2.175,2.235c-0.088,6.449-0.17,11.46-0.248,16.064
						c-0.159,9.657-0.286,17.285-0.36,32.427C909.693,1451.281,908.707,1452.262,907.495,1452.262z"/>
					<path style="fill:#FFFFFF;" d="M593.694,1500.12c-0.9,0-1.746-0.556-2.071-1.451c-0.418-1.143,0.172-2.409,1.315-2.826
						c14.241-5.19,21.445-7.719,30.566-10.922c4.347-1.526,9.078-3.187,15.16-5.344c1.141-0.407,2.407,0.192,2.814,1.34
						c0.407,1.148-0.194,2.408-1.341,2.815c-6.087,2.16-10.822,3.822-15.171,5.348c-9.108,3.198-16.301,5.724-30.517,10.905
						C594.2,1500.077,593.944,1500.12,593.694,1500.12z"/>
				</g>
				<g>
					<polygon style="fill:#ff6900;" points="406.398,1750.719 348.933,1658.775 975.285,1292.073 1006.483,1339.771 					"/>
					<g>
						<path style="fill:#F2E6DC;" d="M1212.606,1181.37l-111.26,72.771c3.821,13.162-1.157,27.812-13.223,35.704
							c-14.795,9.677-34.634,5.528-44.31-9.267c-9.677-14.795-5.528-34.633,9.267-44.31c12.066-7.892,27.482-6.583,38.01,2.193
							l111.259-72.771l-184.789,23.462l-46.366,138.925l145.862,13.194L1212.606,1181.37z"/>
						<path style="fill:#776E42;" d="M1117.054,1343.475c-0.065,0-0.131-0.003-0.198-0.009l-145.86-13.193
							c-0.672-0.061-1.279-0.425-1.647-0.989c-0.368-0.564-0.459-1.266-0.245-1.904l46.366-138.925
							c0.267-0.804,0.973-1.383,1.813-1.49l184.789-23.462c0.999-0.128,1.99,0.461,2.347,1.425c0.355,0.965-0.002,2.045-0.861,2.607
							l-111.259,72.771c-0.812,0.532-1.875,0.468-2.62-0.152c-10.124-8.442-24.348-9.264-35.389-2.041
							c-13.754,8.996-17.626,27.504-8.63,41.259c4.358,6.663,11.05,11.23,18.842,12.86c7.786,1.627,15.752,0.127,22.414-4.231
							c11.041-7.222,15.989-20.581,12.316-33.245c-0.271-0.931,0.099-1.929,0.909-2.46l111.259-72.771
							c0.859-0.561,1.994-0.458,2.734,0.255c0.741,0.711,0.894,1.84,0.366,2.722l-95.552,159.9
							C1118.546,1343.071,1117.825,1343.475,1117.054,1343.475z M974.167,1326.131l141.705,12.818l89.932-150.496l-101.919,66.662
							c3.374,14.055-2.345,28.587-14.555,36.575c-7.648,5.004-16.788,6.726-25.734,4.856c-8.944-1.871-16.627-7.114-21.628-14.762
							c-10.327-15.789-5.882-37.035,9.904-47.363c12.215-7.989,27.821-7.405,39.342,1.322l101.919-66.662l-173.92,22.083
							L974.167,1326.131z"/>
					</g>
					<g>
						
							<rect x="949.997" y="1288.399" transform="matrix(0.5474 0.8369 -0.8369 0.5474 1549.0411 -233.5795)" style="fill:#F2E6DC;" width="80.928" height="53.754"/>
						<path style="fill:#776E42;" d="M990.12,1366.056c-0.719,0-1.423-0.351-1.847-0.998l-44.299-67.727
							c-0.321-0.49-0.433-1.086-0.312-1.658c0.118-0.573,0.461-1.074,0.95-1.394l44.986-29.424c0.489-0.321,1.083-0.433,1.66-0.313
							c0.57,0.121,1.072,0.462,1.393,0.952l44.299,67.728c0.321,0.49,0.433,1.086,0.312,1.658c-0.118,0.573-0.461,1.075-0.952,1.394
							l-44.983,29.423C990.953,1365.939,990.533,1366.056,990.12,1366.056z M948.87,1296.762l41.885,64.037l41.297-27.009
							l-41.885-64.038L948.87,1296.762z"/>
					</g>
				</g>
				<g>
					<path style="fill:#BC8271;" d="M404.882,1420.071c0.004-0.001,224.165,2.341,253.349,5.238
						c3.056,0.303,8.453,0.814,15.025,3.355c24.352,9.411,25.816,31.597,46.906,53.177c23.93,24.486,51.267,24.725,50.422,33.427
						c-0.588,6.053-10.925,8.866-32.383,6.458c-0.002,0-0.003,0.003-0.001,0.003c16.093,3.704,37.699,9.679,35.626,18.567
						c-2.942,10.134-29.151,6.094-44.886,2.876c19.046,3.896,28.009,11.666,25.618,16.333c-3.763,7.346-19.236,7.765-44.208,1.639
						c-0.001,0-0.002,0.001-0.001,0.002c16.061,9.047,18.61,13.635,15.491,17.245c-5.695,6.592-26.131,1.169-43.462-6.394
						c-19.511-8.514-31.689-21.886-39.167-30.5c-0.002-0.002-7.289-8.866-7.292-8.865c-78.401,2.587-140.225,18.304-221.042,14.779
						C333.13,1543.846,329.019,1438.312,404.882,1420.071z"/>
					<path style="fill:#363E44;" d="M462.096,1422.501l-0.043-4.41l0.013,2.205l0.004-2.205c3.402-0.019,83.467-0.469,93.763-0.36
						c1.216,0.014,2.192,1.013,2.179,2.231c-0.015,1.209-0.999,2.179-2.205,2.179c-0.009,0-0.017,0-0.026,0
						C545.532,1422.017,465.496,1422.482,462.096,1422.501z"/>
					<path style="fill:#BC8271;" d="M690.476,1462.65c29.385-1,57.152-21.104,52.726-33.966c-2.939-8.541-49.052,1.987-78.729-2.506
						C676.215,1434.503,678.735,1454.324,690.476,1462.65z"/>
					<path style="fill:#363E44;" d="M737.83,1523.018c-0.22,0-0.441-0.033-0.661-0.103c-5.915-1.861-11.539-4.495-16.717-7.827
						c-3.574-2.301-6.955-4.948-10.049-7.87c-0.885-0.835-0.926-2.231-0.091-3.117c0.838-0.886,2.231-0.927,3.118-0.089
						c2.898,2.736,6.063,5.215,9.407,7.368c4.849,3.119,10.115,5.585,15.653,7.329c1.163,0.365,1.809,1.603,1.443,2.765
						C739.636,1522.415,738.766,1523.018,737.83,1523.018z"/>
					<path style="fill:#363E44;" d="M731.056,1544.877c-0.217,0-0.441-0.033-0.661-0.102c-5.91-1.858-11.534-4.491-16.717-7.828
						c-3.57-2.295-6.95-4.944-10.049-7.87c-0.885-0.837-0.926-2.232-0.088-3.117c0.833-0.886,2.229-0.927,3.116-0.089
						c2.9,2.74,6.065,5.218,9.407,7.368c4.853,3.123,10.12,5.589,15.653,7.328c1.163,0.366,1.807,1.603,1.443,2.765
						C732.862,1544.275,731.995,1544.877,731.056,1544.877z"/>
					<path style="fill:#363E44;" d="M709.946,1563.033c-0.22,0-0.441-0.033-0.661-0.102c-5.915-1.861-11.539-4.495-16.717-7.828
						c-3.578-2.303-6.959-4.951-10.049-7.87c-0.885-0.837-0.926-2.232-0.088-3.117c0.835-0.885,2.229-0.927,3.116-0.089
						c2.894,2.733,6.059,5.212,9.407,7.368c4.849,3.12,10.115,5.586,15.653,7.328c1.163,0.366,1.809,1.604,1.443,2.766
						C711.753,1562.43,710.885,1563.033,709.946,1563.033z"/>
				</g>
			</g>
			<g>
				<path style="fill:#BC8271;" d="M758.398,1302.492l0.022,0.001c18.563,1.236,34.634-12.762,35.956-31.319l5.314-74.595
					c1.326-18.616-12.688-34.782-31.304-36.111c-18.615-1.328-34.783,12.683-36.114,31.298l-5.336,74.593
					C725.599,1285.042,739.71,1301.247,758.398,1302.492z"/>
				<path style="fill:#BC8271;" d="M732.836,1109.088c2.351-1.411,25.072-14.58,46.994-5.182
					c16.312,6.992,24.921,21.827,35.599,48.891c12.575,31.872,15.639,52.68,9.647,62.998c-9.466,16.302-61.78,14.765-90.414-4.673
					c-20.669-14.031-31.277-39.712-28.354-64.698C709.224,1121.506,731.336,1109.988,732.836,1109.088z"/>
				<path style="fill:#363E44;" d="M791.581,1229.168c-13.3,0-27.692-2.55-40.234-7.194c-1.141-0.423-1.725-1.691-1.301-2.833
					c0.424-1.141,1.686-1.721,2.834-1.303c13.616,5.043,29.492,7.522,43.558,6.798c1.148-0.069,2.252,0.871,2.315,2.089
					c0.063,1.216-0.874,2.252-2.091,2.315C794.991,1229.126,793.295,1229.168,791.581,1229.168z"/>
				<g>
					<path style="fill:#FFFFFF;" d="M755.176,1163.5c0,0,6.768,6.3,16.256,8.766c1.996,0.519,4.113,0.868,6.313,0.953
						c12.653,0.49,13.338-17.174,0.684-17.664c-3.148-0.122-6.168,0.308-8.93,1.024c-0.551,0.143-1.092,0.297-1.622,0.46
						c-0.572,0.176-1.13,0.363-1.674,0.559C759.627,1159.958,755.176,1163.5,755.176,1163.5z"/>
					<path style="fill:#363E44;" d="M800.998,1165.274c0,0-9.915-9.229-22.569-9.719c-3.156-0.123-6.184,0.311-8.952,1.03
						c-1.768,4.548-1.528,9.826,1.126,14.364c0.267,0.456,0.556,0.89,0.858,1.31c1.991,0.516,4.091,0.875,6.284,0.96
						C790.397,1173.71,800.998,1165.274,800.998,1165.274z"/>
				</g>
				<path style="fill:#363E44;" d="M818.553,1176.256c-0.177,0-0.355-0.021-0.534-0.065c-1.182-0.294-1.901-1.49-1.608-2.672
					c0.495-1.993,0.334-3.073,0.017-3.418c-0.142-0.157-0.478-0.235-1.262-0.387c-0.812-0.158-1.819-0.354-3.008-0.865
					c-2.13-0.911-3.962-2.458-5.45-4.596c-0.698-0.999-0.45-2.374,0.549-3.069c0.997-0.694,2.373-0.45,3.068,0.55
					c1.01,1.45,2.211,2.48,3.568,3.062c0.758,0.325,1.447,0.46,2.114,0.589c1.188,0.231,2.534,0.494,3.673,1.74
					c1.494,1.634,1.832,4.143,1.01,7.458C820.441,1175.587,819.541,1176.256,818.553,1176.256z"/>
				<path style="fill:#363E44;" d="M807.757,1205.345c-0.202,0-0.409-0.029-0.616-0.088c-2.175-0.633-5.236-2.034-7.469-5.118
					c-1.985-2.746-3.096-6.656-2.64-9.296c0.28-1.612,1.07-2.452,1.684-2.873c1.83-1.258,3.654-0.229,5.118,0.596
					c1.376,0.774,2.874,1.653,5.053,1.576c1.938-0.069,3.886-0.595,5.633-1.522c1.074-0.572,2.409-0.161,2.982,0.914
					c0.571,1.075,0.161,2.411-0.915,2.981c-2.334,1.238-4.941,1.942-7.545,2.035c-3.307,0.105-5.77-1.241-7.37-2.141
					c-0.105-0.059-0.22-0.124-0.336-0.188c0.039,1.251,0.571,3.484,1.91,5.333c1.499,2.071,3.615,3.029,5.127,3.469
					c1.169,0.34,1.841,1.564,1.501,2.734C809.594,1204.719,808.713,1205.344,807.757,1205.345z"/>
				<g>
					
						<ellipse transform="matrix(0.511 -0.8596 0.8596 0.511 -665.7468 1206.5754)" style="fill:#BC8271;" cx="727.558" cy="1188.397" rx="18.171" ry="20.897"/>
					<path style="fill:#363E44;" d="M731.204,1209.491c-1.161,0-2.132-0.906-2.198-2.08c-0.069-1.215,0.859-2.258,2.076-2.327
						c5.46-0.31,10.034-2.911,12.544-7.135c0.62-1.049,1.974-1.391,3.021-0.77c1.046,0.622,1.391,1.975,0.769,3.022
						c-3.273,5.508-9.134,8.891-16.084,9.286C731.288,1209.49,731.247,1209.491,731.204,1209.491z"/>
					<path style="fill:#363E44;" d="M710.502,1178.559c-0.456,0-0.917-0.141-1.313-0.435c-0.977-0.726-1.18-2.107-0.454-3.084
						c6.326-8.516,18.898-10.305,29.235-4.158c1.046,0.621,1.391,1.974,0.769,3.021c-0.62,1.047-1.977,1.394-3.021,0.769
						c-8.255-4.905-18.552-3.59-23.443,2.997C711.841,1178.251,711.176,1178.559,710.502,1178.559z"/>
					<path style="fill:#363E44;" d="M721.866,1197.062c-0.383,0-0.771-0.1-1.124-0.31c-2.629-1.562-4.578-3.938-5.486-6.69
						c-0.943-2.864-0.663-5.786,0.79-8.231c1.789-3.013,5.12-4.809,8.914-4.809c0.013,0,0.026,0,0.039,0
						c1.219,0.004,2.203,0.995,2.198,2.212c-0.004,1.215-0.99,2.197-2.205,2.197c-0.013-0.002-0.022,0-0.032,0
						c-2.222,0-4.136,0.99-5.125,2.653c-0.79,1.332-0.93,2.964-0.392,4.596c0.575,1.742,1.837,3.263,3.551,4.283
						c1.046,0.622,1.391,1.974,0.769,3.022C723.352,1196.678,722.618,1197.062,721.866,1197.062z"/>
				</g>
				<g>
					<path style="fill:#84524D;" d="M732.424,1147.034c25.477-26.622,56.4-27.597,65.348-28.918
						c4.957-11.956,2.662-19.829,1.617-22.638c-5.972-16.055-31.017-27.803-60.071-21.263c2.273,0.274,13.098,4.689,14.633,7.843
						c-10.532-5.219-19.321-4.083-23.769-3.558c-20.395,2.409-37.933,21.09-43.659,48.348c0.774-1.61,5.418-8.489,10.592-10.753
						c-2.806,3.363-5.604,7.459-7.923,12.37c-10.09,21.363-3.936,42.905-1.374,50.45
						C691.125,1173.399,704.71,1151.361,732.424,1147.034z"/>
					<path style="fill:#363E44;" d="M769.044,1122.812c-0.207,0-0.413-0.029-0.618-0.088c-6.332-1.851-12.861-3.06-19.404-3.594
						c-5.237-0.428-10.553-0.428-15.811,0c-1.169,0.12-2.278-0.804-2.377-2.019c-0.099-1.213,0.805-2.277,2.02-2.376
						c5.499-0.447,11.058-0.447,16.528,0c5.053,0.411,10.098,1.209,15.059,2.378c-1.705-2.362-4.158-4.988-7.588-7.129
						c-5.137-3.206-10.225-3.985-13.588-4.076c-1.219-0.032-2.179-1.045-2.147-2.263c0.032-1.197,1.014-2.146,2.203-2.146
						c0.022,0,0.041,0,0.06,0.001c3.912,0.104,9.829,1.012,15.806,4.743c6.533,4.077,10.053,9.554,11.857,13.433
						c0.364,0.785,0.237,1.71-0.327,2.366C770.29,1122.54,769.677,1122.812,769.044,1122.812z"/>
				</g>
			</g>
		</g>
		<g>
			<rect x="370.129" y="521.585" style="fill:#F7F1EB;" width="442.763" height="229.726"/>
			<path style="fill:#D3BBA3;" d="M839.101,730.549H396.337c-1.219,0-2.205-0.987-2.205-2.205V498.618
				c0-1.218,0.986-2.205,2.205-2.205h442.764c1.219,0,2.205,0.987,2.205,2.205v229.726
				C841.305,729.562,840.319,730.549,839.101,730.549z M398.542,726.139h438.354V500.823H398.542V726.139z"/>
			<g>
				<path style="fill:#D3BBA3;" d="M708.779,592.965H577.84c-1.219,0-2.205-0.987-2.205-2.205s0.986-2.205,2.205-2.205h130.939
					c1.219,0,2.205,0.987,2.205,2.205S709.998,592.965,708.779,592.965z"/>
				<path style="fill:#D3BBA3;" d="M549.281,592.965h-75.037c-1.219,0-2.205-0.987-2.205-2.205s0.986-2.205,2.205-2.205h75.037
					c1.219,0,2.205,0.987,2.205,2.205S550.5,592.965,549.281,592.965z"/>
				<path style="fill:#D3BBA3;" d="M708.779,638.653h-65.813c-1.219,0-2.205-0.987-2.205-2.205c0-1.218,0.986-2.205,2.205-2.205
					h65.813c1.219,0,2.205,0.987,2.205,2.205C710.984,637.666,709.998,638.653,708.779,638.653z"/>
				<path style="fill:#D3BBA3;" d="M614.409,638.653H474.244c-1.219,0-2.205-0.987-2.205-2.205c0-1.218,0.986-2.205,2.205-2.205
					h140.165c1.219,0,2.205,0.987,2.205,2.205C616.614,637.666,615.628,638.653,614.409,638.653z"/>
				<path style="fill:#D3BBA3;" d="M665.943,684.34H474.244c-1.219,0-2.205-0.987-2.205-2.205c0-1.218,0.986-2.205,2.205-2.205
					h191.699c1.219,0,2.205,0.987,2.205,2.205C668.147,683.353,667.161,684.34,665.943,684.34z"/>
			</g>
		</g>
		<g>
			<rect x="1784.119" y="433.048" style="fill:#F7F1EB;" width="312.212" height="190.063"/>
			<path style="fill:#D3BBA3;" d="M2129.113,606.187h-325.714c-1.219,0-2.205-0.987-2.205-2.205V412.65
				c0-1.218,0.986-2.205,2.205-2.205h325.714c1.219,0,2.205,0.987,2.205,2.205v191.332
				C2131.318,605.199,2130.332,606.187,2129.113,606.187z M1805.604,601.777h321.305V414.855h-321.305V601.777z"/>
			<g>
				<path style="fill:#D3BBA3;" d="M2033.243,491.597h-96.323c-1.219,0-2.205-0.987-2.205-2.205c0-1.218,0.986-2.205,2.205-2.205
					h96.323c1.219,0,2.205,0.987,2.205,2.205C2035.447,490.61,2034.461,491.597,2033.243,491.597z"/>
				<path style="fill:#D3BBA3;" d="M1915.911,491.597h-55.202c-1.219,0-2.205-0.987-2.205-2.205c0-1.218,0.986-2.205,2.205-2.205
					h55.202c1.219,0,2.205,0.987,2.205,2.205C1918.116,490.61,1917.13,491.597,1915.911,491.597z"/>
				<path style="fill:#D3BBA3;" d="M2033.243,529.65h-48.413c-1.219,0-2.205-0.987-2.205-2.205c0-1.218,0.986-2.205,2.205-2.205
					h48.413c1.219,0,2.205,0.987,2.205,2.205C2035.447,528.663,2034.461,529.65,2033.243,529.65z"/>
				<path style="fill:#D3BBA3;" d="M1963.821,529.65h-103.112c-1.219,0-2.205-0.987-2.205-2.205c0-1.218,0.986-2.205,2.205-2.205
					h103.112c1.219,0,2.205,0.987,2.205,2.205C1966.026,528.663,1965.04,529.65,1963.821,529.65z"/>
				<path style="fill:#D3BBA3;" d="M2001.731,567.701h-141.022c-1.219,0-2.205-0.987-2.205-2.205c0-1.218,0.986-2.205,2.205-2.205
					h141.022c1.219,0,2.205,0.987,2.205,2.205C2003.936,566.714,2002.95,567.701,2001.731,567.701z"/>
			</g>
		</g>
		<g>
			<g>
				<path style="fill:#FFFFFF;" d="M1407.212,1880.685h-20.035c-1.794-9.767-4.353-19.264-7.605-28.435l17.339-10.011
					l-33.903-58.723l-17.379,10.034c-6.378-7.466-13.333-14.422-20.799-20.799l10.034-17.379l-58.723-33.904l-10.011,17.34
					c-9.171-3.253-18.668-5.811-28.435-7.605v-20.035h-67.807v20.035c-9.767,1.794-19.264,4.353-28.435,7.605l-10.011-17.34
					l-58.723,33.904l10.033,17.379c-7.466,6.378-14.422,13.333-20.799,20.799l-17.379-10.034l-33.903,58.723l17.339,10.011
					c-3.252,9.17-5.811,18.668-7.605,28.435h-20.035l0,67.807h20.036c1.794,9.767,4.353,19.264,7.605,28.435l-17.339,10.011
					l33.903,58.723l17.379-10.034c6.377,7.466,13.333,14.422,20.799,20.799l-10.033,17.379l58.722,33.903l10.011-17.34
					c9.17,3.252,18.668,5.811,28.435,7.605v20.036h67.807v-20.036c9.767-1.794,19.264-4.353,28.435-7.605l10.01,17.34l58.723-33.903
					l-10.034-17.379c7.466-6.377,14.421-13.333,20.799-20.799l17.379,10.034l33.903-58.723l-17.339-10.011
					c3.252-9.171,5.811-18.668,7.605-28.435h20.035V1880.685z M1316.099,1918.266c-1.878,58.834-49.795,106.752-108.629,108.631
					c-64.967,2.074-118.06-51.018-115.986-115.985c1.878-58.834,49.795-106.752,108.629-108.63
					C1265.08,1800.207,1318.173,1853.3,1316.099,1918.266z"/>
			</g>
			<path style="fill:#F2E6DC;" d="M1203.791,2065.121c-83.004,0-150.533-67.529-150.533-150.533c0-36.267,13.08-71.302,36.83-98.652
				c23.512-27.078,55.889-44.907,91.164-50.204c1.221-0.192,2.328,0.649,2.508,1.853s-0.65,2.327-1.854,2.507
				c-70.828,10.637-124.239,72.756-124.239,144.495c0,80.573,65.55,146.123,146.123,146.123
				c66.575,0,124.738-44.946,141.444-109.301c0.306-1.179,1.509-1.885,2.687-1.579c1.18,0.306,1.886,1.509,1.58,2.688
				C1332.293,2018.818,1272.373,2065.121,1203.791,2065.121z"/>
		</g>
		<g>
			<g>
				<path style="fill:#D3BBA3;" d="M634.408,963.203h-13.516c-1.21-6.589-2.937-12.996-5.131-19.183l11.697-6.754l-22.872-39.616
					l-11.724,6.769c-4.303-5.037-8.995-9.729-14.032-14.032l6.769-11.724l-39.616-22.872l-6.753,11.698
					c-6.187-2.194-12.594-3.92-19.183-5.131v-13.516h-45.744v13.516c-6.589,1.21-12.996,2.936-19.183,5.131l-6.753-11.698
					l-39.616,22.872l6.769,11.724c-5.037,4.303-9.729,8.995-14.031,14.032l-11.724-6.769l-22.872,39.616l11.697,6.753
					c-2.194,6.187-3.92,12.594-5.131,19.183h-13.516l0,45.744h13.517c1.211,6.589,2.937,12.996,5.131,19.183l-11.697,6.753
					l22.872,39.616l11.724-6.769c4.302,5.037,8.995,9.729,14.031,14.032l-6.769,11.724l39.616,22.872l6.754-11.698
					c6.187,2.194,12.594,3.92,19.183,5.131v13.516h45.744v-13.516c6.589-1.21,12.996-2.937,19.183-5.131l6.753,11.698l39.616-22.872
					l-6.769-11.724c5.037-4.302,9.729-8.995,14.032-14.032l11.724,6.769l22.872-39.616l-11.697-6.754
					c2.194-6.187,3.92-12.594,5.131-19.183h13.516V963.203z M572.941,988.556c-1.267,39.691-33.593,72.017-73.284,73.285
					c-43.828,1.399-79.646-34.418-78.247-78.246c1.267-39.69,33.593-72.017,73.284-73.284
					C538.523,908.911,574.341,944.728,572.941,988.556z"/>
			</g>
			<path style="fill:#F2E6DC;" d="M497.177,1088.345c-56.391,0-102.27-45.878-102.27-102.27c0-50.21,37.383-93.688,86.957-101.131
				c1.212-0.192,2.325,0.649,2.508,1.853c0.181,1.204-0.65,2.326-1.854,2.507c-47.434,7.123-83.202,48.726-83.202,96.771
				c0,53.96,43.9,97.86,97.86,97.86c44.587,0,83.54-30.101,94.728-73.199c0.306-1.178,1.509-1.888,2.687-1.579
				c1.18,0.306,1.886,1.509,1.58,2.688C584.481,1056.887,543.771,1088.345,497.177,1088.345z"/>
		</g>
		<g>
			<g>
				<path style="fill:#D3BBA3;" d="M1099.063,499.942h-6.698c-0.6-3.265-1.455-6.44-2.542-9.505l5.796-3.346l-11.333-19.63
					l-5.809,3.354c-2.132-2.496-4.457-4.821-6.953-6.953l3.354-5.809l-19.63-11.333l-3.346,5.796
					c-3.066-1.087-6.24-1.943-9.505-2.542v-6.697h-22.667v6.697c-3.265,0.6-6.44,1.455-9.505,2.542l-3.346-5.796l-19.63,11.333
					l3.354,5.809c-2.496,2.132-4.821,4.457-6.953,6.953l-5.809-3.354l-11.333,19.63l5.796,3.346
					c-1.087,3.065-1.943,6.24-2.542,9.505h-6.698v22.667h6.698c0.6,3.265,1.455,6.44,2.542,9.505l-5.796,3.346l11.333,19.63
					l5.809-3.354c2.132,2.496,4.457,4.821,6.953,6.953l-3.354,5.81l19.63,11.333l3.346-5.796c3.065,1.087,6.24,1.943,9.505,2.542
					v6.698h22.667v-6.698c3.265-0.6,6.44-1.455,9.505-2.542l3.346,5.796l19.63-11.333l-3.354-5.81
					c2.496-2.132,4.821-4.457,6.953-6.953l5.809,3.354l11.333-19.63l-5.796-3.347c1.087-3.065,1.943-6.24,2.542-9.505h6.698V499.942
					z M1068.605,512.504c-0.628,19.667-16.646,35.685-36.313,36.313c-21.717,0.693-39.465-17.055-38.772-38.772
					c0.628-19.667,16.646-35.685,36.313-36.313C1051.551,473.039,1069.299,490.787,1068.605,512.504z"/>
			</g>
		</g>
		<g>
			<g>
				<path style="fill:#FFFFFF;" d="M1721.909,923.341h-6.698c-0.6-3.265-1.455-6.44-2.542-9.505l5.796-3.346l-11.333-19.63
					l-5.809,3.354c-2.132-2.496-4.457-4.821-6.953-6.953l3.354-5.81l-19.63-11.333l-3.346,5.796
					c-3.066-1.087-6.241-1.943-9.505-2.542v-6.698h-22.667v6.698c-3.265,0.6-6.44,1.455-9.505,2.542l-3.346-5.796l-19.63,11.333
					l3.354,5.81c-2.496,2.132-4.821,4.457-6.953,6.953l-5.809-3.354l-11.333,19.63l5.796,3.346c-1.087,3.065-1.943,6.24-2.542,9.505
					h-6.698v22.667h6.698c0.6,3.265,1.455,6.44,2.542,9.505l-5.796,3.346l11.333,19.63l5.809-3.354
					c2.132,2.496,4.457,4.821,6.953,6.953l-3.354,5.809l19.63,11.333l3.347-5.796c3.065,1.087,6.24,1.943,9.505,2.542v6.698h22.667
					v-6.698c3.265-0.6,6.44-1.455,9.505-2.542l3.346,5.796l19.63-11.333l-3.354-5.809c2.496-2.132,4.821-4.457,6.953-6.953
					l5.809,3.354l11.333-19.63l-5.796-3.346c1.087-3.065,1.942-6.24,2.542-9.505h6.698V923.341z M1691.451,935.903
					c-0.628,19.667-16.646,35.685-36.313,36.313c-21.717,0.693-39.465-17.055-38.772-38.772
					c0.628-19.667,16.646-35.685,36.313-36.313C1674.396,896.438,1692.145,914.186,1691.451,935.903z"/>
			</g>
		</g>
	</g>
</g>
</svg>
