<?xml version="1.0" encoding="utf-8"?>
<!-- Generator: Adobe Illustrator 27.5.0, SVG Export Plug-In . SVG Version: 6.00 Build 0)  -->
<svg version="1.1" xmlns="http://www.w3.org/2000/svg" xmlns:xlink="http://www.w3.org/1999/xlink" x="0px" y="0px"
	 viewBox="0 0 2500 2500" style="enable-background:new 0 0 2500 2500;" xml:space="preserve">
-
<g id="Illustration">
	<g id="Interactive_advertising_1_">
		<circle style="fill:transparent;" cx="1250" cy="1250" r="915"/>
		<g>
			<g>
				<path style="fill:#FFFFFF;" d="M1207.354,1681.828h-123.752v-35.637c-15.836-3.002-31.578-7.213-46.847-12.529l-17.806,30.842
					l-107.174-61.875l17.847-30.915c-12.204-10.542-23.718-22.057-34.264-34.265l-30.914,17.85l-61.876-107.175l30.843-17.807
					c-5.317-15.268-9.528-31.01-12.529-46.846h-35.638v-123.752h35.638c3.003-15.839,7.212-31.58,12.529-46.848l-30.843-17.807
					l61.876-107.175l30.914,17.85c10.543-12.204,22.056-23.717,34.264-34.263l-17.847-30.915l107.174-61.877l17.806,30.844
					c15.255-5.314,30.996-9.526,46.847-12.531v-35.635h123.752v35.635c15.851,3.006,31.592,7.217,46.847,12.531l17.807-30.844
					l107.175,61.877l-17.849,30.915c12.204,10.542,23.719,22.055,34.265,34.263l30.915-17.85l61.875,107.175l-30.844,17.807
					c5.318,15.266,9.528,31.007,12.531,46.848h35.637v123.752h-35.637c-3.001,15.836-7.213,31.58-12.531,46.846l30.844,17.809
					l-61.875,107.173l-30.915-17.85c-10.55,12.213-22.065,23.728-34.265,34.265l17.849,30.915l-107.175,61.877l-17.807-30.844
					c-15.269,5.316-31.011,9.528-46.847,12.529V1681.828z M1088.011,1677.418h114.933v-34.896l1.807-0.332
					c16.816-3.088,33.539-7.562,49.709-13.293l1.729-0.614l17.434,30.196l99.536-57.465l-17.475-30.267l1.395-1.191
					c13.005-11.108,25.239-23.342,36.362-36.362l1.193-1.395l30.265,17.475l57.465-99.533l-30.198-17.436l0.614-1.729
					c5.734-16.166,10.208-32.889,13.296-49.708l0.332-1.807h34.896v-114.932h-34.896l-0.332-1.807
					c-3.09-16.82-7.562-33.544-13.296-49.71l-0.614-1.729l30.198-17.434l-57.465-99.535l-30.265,17.475l-1.193-1.395
					c-11.119-13.014-23.353-25.248-36.362-36.36l-1.395-1.191l17.475-30.267l-99.536-57.467l-17.434,30.198l-1.729-0.614
					c-16.152-5.729-32.876-10.202-49.709-13.296l-1.807-0.331v-34.894h-114.933v34.894l-1.807,0.331
					c-16.832,3.094-33.557,7.566-49.707,13.296l-1.73,0.614l-17.434-30.198l-99.534,57.467l17.473,30.267l-1.394,1.191
					c-13.015,11.117-25.249,23.351-36.362,36.36l-1.191,1.395l-30.266-17.475l-57.466,99.535l30.197,17.434l-0.614,1.729
					c-5.732,16.168-10.205,32.891-13.295,49.71l-0.332,1.807h-34.895l-0.001,114.932h34.896l0.332,1.807
					c3.089,16.816,7.562,33.54,13.295,49.708l0.614,1.729l-30.197,17.434l57.466,99.536l30.266-17.475l1.191,1.395
					c11.118,13.016,23.352,25.25,36.362,36.362l1.394,1.191l-17.473,30.267l99.534,57.467l17.434-30.198l1.729,0.614
					c16.169,5.732,32.892,10.206,49.708,13.293l1.807,0.332V1677.418z M1145.358,1558.621c-63.326,0-122.534-24.477-167.481-69.424
					c-46.804-46.803-71.414-109.078-69.299-175.356c3.975-124.516,104.625-225.169,229.143-229.144
					c66.292-2.157,128.552,22.494,175.355,69.295c46.805,46.803,71.418,109.08,69.301,175.359l0,0
					c-3.975,124.516-104.625,225.169-229.142,229.144C1150.607,1558.578,1147.974,1558.621,1145.358,1558.621z M1145.596,1088.979
					c-2.575,0-5.146,0.041-7.735,0.123c-122.198,3.901-220.975,102.681-224.875,224.881
					c-2.076,65.044,22.076,126.163,68.009,172.096c45.934,45.933,107.046,70.083,172.101,68.009
					c122.197-3.901,220.975-102.681,224.876-224.881c2.076-65.047-22.078-126.166-68.013-172.099
					C1265.854,1113.004,1207.736,1088.979,1145.596,1088.979z M1380.175,1329.279h0.022H1380.175z"/>
			</g>
			<path style="fill:#FFFFFF;" d="M1145.478,1584.861c-145.166,0-263.267-118.102-263.267-263.267
				c0-63.427,22.875-124.701,64.41-172.534c41.122-47.354,97.743-78.536,159.434-87.801c1.194-0.17,2.328,0.648,2.507,1.854
				c0.181,1.204-0.648,2.328-1.853,2.508c-125.471,18.84-220.089,128.885-220.089,255.972
				c0,142.734,116.123,258.857,258.857,258.857c117.938,0,220.977-79.621,250.57-193.626c0.306-1.18,1.507-1.899,2.687-1.58
				c1.18,0.306,1.886,1.509,1.58,2.687C1370.219,1503.882,1265.425,1584.861,1145.478,1584.861z"/>
		</g>
		<g>
			<g>
				<g>
					<polygon style="fill:#E6D0BE;" points="2101.536,1651.247 2033.619,1651.247 1941.86,1616.615 1832.643,1651.247 
						1743.285,1651.247 1657.322,1628.373 1547.551,1651.247 1463.802,1651.247 1463.802,448.118 2101.536,448.118 					"/>
					<path style="fill:#363E44;" d="M2054.128,1712.362H1499.16c-49.593,0-89.941-40.348-89.941-89.941V441.239
						c0-49.593,40.348-89.941,89.941-89.941h554.968c49.594,0,89.941,40.348,89.941,89.941v1181.182
						C2144.069,1672.014,2103.721,1712.362,2054.128,1712.362z M1499.16,355.707c-47.162,0-85.531,38.369-85.531,85.531v1181.182
						c0,47.162,38.369,85.531,85.531,85.531h554.968c47.163,0,85.531-38.369,85.531-85.531V441.239
						c0-47.162-38.369-85.531-85.531-85.531H1499.16z"/>
					<path style="fill:#363E44;" d="M1855.098,403.053H1698.19c-1.219,0-2.205-0.986-2.205-2.205c0-1.219,0.986-2.205,2.205-2.205
						h156.908c1.219,0,2.205,0.986,2.205,2.205C1857.303,402.066,1856.317,403.053,1855.098,403.053z"/>
				</g>
			</g>
			<g>
				<path style="fill:#FFFFFF;" d="M1994.338,1398.306c1.126,5.703,34.714,252.941,34.714,252.941h-255.724l-18.405-55.841
					l-11.638,55.841h-233.899l20.158-252.941H1994.338z"/>
				<g>
					<g>
						<path style="fill:#E2A18D;" d="M1373.245,1036.111c-0.001-0.004,0-0.008-0.003-0.01
							c-119.882-72.205-203.552-125.732-230.032-141.242c-2.773-1.624-7.654-4.513-14.779-6.408
							c-26.4-7.023-41.294,10.851-72.422,16.133c-35.32,5.994-58.602-10.628-63.242-2.744c-3.228,5.484,3.789,14.227,23.43,25.395
							c0.002,0.001,0,0.004-0.002,0.003c-15.898-6.77-37.86-15.01-41.575-6.214c-3.747,10.387,20.918,23.098,36.215,30.058
							c-18.516-8.425-30.882-7.365-31.732-1.945c-1.337,8.533,11.5,18.41,36.403,28.595c0.001,0,0.001,0.002,0,0.002
							c-19.16-2.229-24.14,0.085-23.723,5.06c0.762,9.083,21.393,17.072,40.715,21.337c21.751,4.803,40.287,0.982,51.916-1.706
							c0.003,0,0.007,0,0.009,0.002c78.72,59.276,132.047,94.148,191.866,146.666
							C1314.411,1182.568,1401.595,1107.436,1373.245,1036.111z"/>
						<path style="fill:#BC8271;" d="M1085.69,906.399c-29.134-20.193-35.363-33.65-32.016-38.165
							c5.629-7.593,37.559-0.535,83.855,23.613C1123.451,897.196,1099.769,901.05,1085.69,906.399z"/>
						<g>
							<path style="fill:#363E44;" d="M1374.749,1038.26c-0.387,0-0.779-0.101-1.135-0.317
								c-16.347-9.848-33.161-20.039-49.977-30.288c-1.04-0.633-1.369-1.99-0.734-3.029c0.631-1.04,1.987-1.369,3.029-0.734
								c16.81,10.245,33.617,20.431,49.955,30.275c1.044,0.629,1.38,1.983,0.751,3.025
								C1376.226,1037.881,1375.496,1038.26,1374.749,1038.26z"/>
							<path style="fill:#363E44;" d="M1061.778,961.322c-0.618,0-1.234-0.258-1.67-0.762c-0.796-0.922-0.694-2.315,0.227-3.111
								c4.288-3.703,16.044-12.251,32.618-11.872c11.723,0.289,20.638,4.838,26.052,8.604c0.999,0.695,1.246,2.071,0.55,3.07
								c-0.695,1.001-2.065,1.249-3.069,0.551c-4.918-3.421-13.011-7.555-23.64-7.816c-15.036-0.336-25.728,7.431-29.627,10.8
								C1062.801,961.145,1062.288,961.322,1061.778,961.322z"/>
							<path style="fill:#363E44;" d="M1076.411,902.528c-0.9,0-1.745-0.556-2.071-1.449c-0.418-1.146,0.172-2.409,1.316-2.827
								c3.953-1.44,7.675-2.984,11.274-4.476c7.805-3.234,15.178-6.292,23.095-7.517c1.191-0.192,2.329,0.639,2.516,1.841
								c0.186,1.204-0.638,2.33-1.842,2.517c-7.392,1.143-14.527,4.102-22.081,7.232c-3.642,1.509-7.408,3.07-11.45,4.545
								C1076.917,902.485,1076.662,902.528,1076.411,902.528z"/>
							<path style="fill:#363E44;" d="M1039.389,932.556c-1.364,0-2.727-0.039-4.083-0.116c-6.424-0.366-12.796-1.598-18.937-3.658
								c-1.154-0.388-1.775-1.638-1.389-2.793c0.39-1.152,1.64-1.77,2.793-1.389c5.768,1.936,11.752,3.094,17.785,3.439
								c4.15,0.232,8.364,0.088,12.514-0.448c1.207-0.133,2.314,0.7,2.468,1.908c0.155,1.206-0.698,2.313-1.906,2.468
								C1045.569,932.358,1042.474,932.556,1039.389,932.556z"/>
							<path style="fill:#363E44;" d="M1031.683,955.224c-1.368,0-2.734-0.039-4.097-0.116c-6.424-0.366-12.795-1.598-18.937-3.658
								c-1.154-0.388-1.775-1.638-1.389-2.793c0.39-1.154,1.633-1.772,2.793-1.389c5.768,1.936,11.752,3.094,17.785,3.439
								c4.165,0.235,8.374,0.086,12.513-0.448c1.199-0.129,2.313,0.695,2.469,1.906c0.156,1.208-0.697,2.313-1.905,2.47
								C1037.86,955.028,1034.77,955.224,1031.683,955.224z"/>
							<path style="fill:#363E44;" d="M1038.373,983.579c-1.368,0-2.734-0.039-4.097-0.116c-6.435-0.366-12.806-1.598-18.937-3.658
								c-1.155-0.39-1.776-1.639-1.388-2.793c0.389-1.152,1.643-1.768,2.791-1.389c5.76,1.936,11.742,3.092,17.785,3.439
								c4.164,0.237,8.375,0.084,12.513-0.448c1.196-0.146,2.313,0.698,2.469,1.906c0.156,1.208-0.697,2.313-1.905,2.47
								C1044.55,983.383,1041.459,983.579,1038.373,983.579z"/>
						</g>
					</g>
					<g>
						<path style="fill:#E2A18D;" d="M1555.779,1010.358c-59.144,49.381-221.111,202.344-284.58,133.637
							c-52.499-56.831,111.809-198.838,167.361-251.682C1477.633,931.661,1516.706,971.009,1555.779,1010.358z"/>
						<path style="fill:#E2A18D;" d="M1945.576,849.319c60.327,47.929,242.898,175.596,188.455,251.654
							c-45.033,62.912-217.349-69.263-280.34-112.974C1884.319,941.772,1914.947,895.546,1945.576,849.319z"/>
						<g>
							<path style="fill:#ff6900;" d="M2025.257,884.645c0,0-173.18-148.012-368.183-100.714
								c-145.498,35.291-169.078,66.241-307.452,178.619l116.06,147.316l21.542-24.252c2.328,11.451,13.901,312.692,13.901,312.692
								h524.132l-72.233-344.429l26.004-7.43L2025.257,884.645z"/>
						</g>
					</g>
					<g>
						<path style="fill:#E2A18D;" d="M2055.948,982.005c-0.004,0-0.007-0.004-0.01-0.001
							c-118.429,74.564-203.883,125.196-229.649,141.863c-2.698,1.745-7.475,4.805-12.373,10.315
							c-18.151,20.415-8.893,41.759-18.183,71.934c-10.542,34.239-35.862,47.55-30.91,55.242c3.445,5.351,14.41,3.019,33.222-9.495
							c0.002-0.001,0.004,0.002,0.003,0.003c-13.2,11.151-30.442,27.055-24.258,34.332c7.589,8.021,30.041-8.286,43.14-18.814
							c-15.856,12.744-20.475,24.264-16.016,27.462c7.018,5.034,21.615-1.985,41.917-19.641c0.001-0.001,0.002,0,0.002,0.001
							c-10.613,16.107-10.787,21.596-6.157,23.462c8.455,3.407,24.873-11.422,37.377-26.757
							c14.077-17.263,19.006-35.535,21.84-47.13c0.001-0.003,0.003-0.006,0.006-0.007c88.36-43.623,143.498-75.553,217.318-105.339
							C2160.261,1100.452,2132.401,988.784,2055.948,982.005z"/>
						<path style="fill:#E2A18D;" d="M1810.709,1180.425c-31.143,16.93-45.964,16.437-48.49,11.416
							c-4.248-8.444,16.424-33.781,58.823-64.258C1819.483,1142.563,1812.268,1165.445,1810.709,1180.425z"/>
						<g>
							<path style="fill:#363E44;" d="M1945.046,1053.416c-0.736,0-1.456-0.368-1.873-1.04c-0.644-1.033-0.327-2.394,0.706-3.036
								c10.753-6.692,45.459-28.701,73.345-46.387c17.236-10.932,32.207-20.425,38.179-24.184c1.029-0.642,2.39-0.338,3.04,0.693
								c0.648,1.029,0.338,2.39-0.693,3.04c-5.971,3.757-20.935,13.248-38.164,24.175c-27.894,17.69-62.607,39.706-73.377,46.405
								C1945.846,1053.308,1945.444,1053.416,1945.046,1053.416z"/>
							<path style="fill:#363E44;" d="M1801.11,1188.181c-0.086,0-0.172-0.004-0.26-0.015c-1.208-0.142-2.073-1.238-1.931-2.448
								c0.491-4.177,0.788-8.195,1.077-12.081c0.622-8.425,1.212-16.383,3.68-24.003c0.375-1.161,1.621-1.792,2.775-1.419
								c1.158,0.375,1.793,1.617,1.419,2.775c-2.304,7.116-2.874,14.818-3.477,22.972c-0.291,3.934-0.59,7.999-1.094,12.273
								C1803.166,1187.357,1802.212,1188.181,1801.11,1188.181z"/>
							<path style="fill:#363E44;" d="M1797.949,1253.04c-0.568,0-1.137-0.218-1.568-0.655c-0.857-0.865-0.848-2.261,0.017-3.118
								c4.323-4.281,8.051-9.104,11.072-14.336c2.082-3.602,3.843-7.428,5.234-11.375c0.407-1.15,1.669-1.75,2.812-1.348
								c1.15,0.405,1.753,1.664,1.348,2.812c-1.481,4.203-3.359,8.281-5.574,12.116c-3.219,5.574-7.185,10.71-11.791,15.266
								C1799.071,1252.827,1798.509,1253.04,1797.949,1253.04z"/>
							<path style="fill:#363E44;" d="M1814.72,1270.136c-0.568,0-1.137-0.217-1.568-0.655c-0.857-0.866-0.848-2.261,0.017-3.118
								c4.323-4.281,8.051-9.104,11.072-14.336c2.086-3.615,3.848-7.441,5.234-11.375c0.407-1.15,1.671-1.75,2.812-1.348
								c1.15,0.405,1.753,1.664,1.348,2.812c-1.477,4.19-3.352,8.266-5.574,12.116c-3.219,5.575-7.185,10.71-11.791,15.266
								C1815.842,1269.923,1815.28,1270.136,1814.72,1270.136z"/>
							<path style="fill:#363E44;" d="M1843.051,1276.921c-0.569,0-1.137-0.217-1.568-0.655c-0.857-0.866-0.848-2.261,0.017-3.118
								c4.323-4.276,8.048-9.097,11.071-14.333c2.082-3.604,3.843-7.433,5.234-11.377c0.407-1.148,1.671-1.746,2.812-1.348
								c1.15,0.405,1.753,1.664,1.348,2.812c-1.481,4.203-3.357,8.279-5.575,12.118c-3.221,5.577-7.187,10.712-11.791,15.264
								C1844.171,1276.708,1843.611,1276.921,1843.051,1276.921z"/>
						</g>
					</g>
					<g>
						<g>
							<g>
								<polygon style="fill:#EFBC73;" points="905.832,982.101 1310.236,982.101 1247.159,632.843 984.519,632.843 								"/>
							</g>
							<path style="fill:#F7F1EB;" d="M1075.967,954.281c-0.997,0-1.901-0.68-2.142-1.695
								c-17.059-71.545-72.652-305.335-71.809-309.911c0.221-1.199,1.359-2,2.568-1.77c1.111,0.205,1.872,1.208,1.801,2.308
								c0.546,8.449,51.928,225.301,71.73,308.35c0.283,1.186-0.449,2.375-1.633,2.657
								C1076.308,954.262,1076.137,954.281,1075.967,954.281z"/>
							<path style="fill:#F7F1EB;" d="M924.216,969.601c-0.768,0-1.514-0.401-1.919-1.117c-0.601-1.057-0.23-2.403,0.829-3.006
								l66.897-37.969V651.224c0-1.219,0.987-2.205,2.205-2.205s2.205,0.986,2.205,2.205v277.568c0,0.794-0.426,1.527-1.116,1.918
								l-68.014,38.604C924.959,969.508,924.585,969.601,924.216,969.601z"/>
						</g>
						<path style="fill:#E0AA63;" d="M1050.131,654.901c2.538,0,4.596-2.057,4.596-4.596v-66.481
							c0-15.542,12.644-28.186,28.186-28.186h55.758c15.542,0,28.186,12.644,28.186,28.186v66.481c0,2.538,2.057,4.596,4.595,4.596
							c2.538,0,4.595-2.057,4.595-4.596v-66.481c0-20.61-16.767-37.377-37.377-37.377h-55.758c-20.61,0-37.377,16.767-37.377,37.377
							v66.481C1045.535,652.844,1047.593,654.901,1050.131,654.901z"/>
					</g>
				</g>
				<g>
					<g>
						<path style="fill:#E2A18D;" d="M1563.333,778.771c23.203,10.279,72.534-40.459,72.534-40.459l18.838-75.209
							c-7.112-34.986-41.238-57.583-76.225-50.472c-34.987,7.112-57.583,41.238-50.472,76.225
							C1528.009,688.856,1539.7,768.302,1563.333,778.771z"/>
						<path style="fill:#E2A18D;" d="M1650.426,838.576l-1.723,0.35c-22.866,4.648-45.17-10.121-49.818-32.987L1573.3,680.074
							c-0.126-0.618,0.274-1.221,0.891-1.346l82.29-16.727c0.618-0.126,1.221,0.274,1.346,0.891l25.584,125.866
							C1688.06,811.623,1673.291,833.928,1650.426,838.576z"/>
						<path style="fill:#E2A18D;" d="M1538.675,704.033c0,0-13.984,22.228-12.04,26.951c2.321,5.637,22.841,5.193,22.841,5.193
							S1538.212,704.174,1538.675,704.033z"/>
						<g>
							<path style="fill:#FFFFFF;" d="M1595.292,689.702c0,0-11.765-3.548-24.549-0.949c-2.72,0.553,6.836,21.276,9.167,19.519
								C1590.161,700.545,1595.292,689.702,1595.292,689.702z"/>
							<path style="fill:#373E44;" d="M1572.1,688.518c-3.153,0.54-6.39,1.418-9.55,2.823
								c-15.442,6.857-23.172,23.194-23.172,23.194s17.303,5.219,32.745-1.638c3.621-1.608,6.802-3.746,9.574-6.064
								C1581.722,699.752,1578.353,692.805,1572.1,688.518z"/>
						</g>
						<path style="fill:#363E44;" d="M1565.56,746.343c-1.38,0-2.771-0.252-4.104-0.771c-1.135-0.439-1.697-1.718-1.255-2.853
							c0.439-1.135,1.72-1.703,2.853-1.255c2.528,0.982,5.4,0.398,7.319-1.484c1.847-1.813,2.51-4.586,1.695-7.067
							c-0.383-1.156,0.245-2.403,1.402-2.784c1.165-0.398,2.403,0.248,2.784,1.402c1.341,4.063,0.245,8.615-2.793,11.597
							C1571.322,745.226,1568.467,746.343,1565.56,746.343z"/>
						<path style="fill:#363E44;" d="M1592.49,775.527c-0.736,0-1.458-0.37-1.875-1.042c-0.642-1.034-0.325-2.394,0.711-3.036
							c19.525-12.122,43.043-33.462,43.28-33.675c0.9-0.818,2.293-0.754,3.114,0.146c0.82,0.9,0.754,2.295-0.146,3.113
							c-0.237,0.217-24.051,21.824-43.922,34.162C1593.289,775.419,1592.886,775.527,1592.49,775.527z"/>
					</g>
					<path style="fill:#84524D;" d="M1642.4,603.701c-15.777-29.563-40.169-40.358-51.584-42.052
						c-33.607-4.989-53.943,23.535-81.363,35.721c-28.184,12.526-61.987,12.739-81.239,8.013
						c7.292,28.242,21.879,42.325,29.156,48.22c35.721,28.935,97.998,24.76,151.388-14.578c3.738,15.7,7.476,31.399,11.214,47.098
						c-1.615-14.321,5.548-21.582,12.896-22.989c8.612-1.648,17.942,7.289,19.624,15.699c3.18,15.905-5.371,29.074-6.728,30.838
						c8.913,11.784,17.396,19.031,27.115,27.442c26.481-23.709,36.66-63.153,22.786-93.043
						C1678.254,606.558,1644.672,603.951,1642.4,603.701z"/>
				</g>
			</g>
		</g>
		<g>
			<g>
				<path style="fill:#ff6900;" d="M911.649,1931.95c-32.014,36.026-68.129,98.864-104.376,173.035
					c-9.437,19.314-18.873,39.422-28.267,60.015H466.959c66.497-350.435,181.633-530.237,181.633-530.237l110.307-15.081
					l104.796-14.331L911.649,1931.95z"/>
				<path style="fill:#ff6900;" d="M1123.818,2165H837.655c-10.715-21.829-20.946-41.958-30.382-60.015
					c-32.478-62.221-55.474-100.143-55.474-100.143l7.099-385.161l0.045-2.513l140.667-29.987
					C1024.116,1725.205,1089.533,1953.889,1123.818,2165z"/>
				<path style="fill:#363E44;" d="M820.337,2067.516c-0.309,0-0.622-0.064-0.921-0.202c-1.106-0.508-1.589-1.819-1.08-2.924
					l87.034-188.997c0.509-1.107,1.818-1.593,2.925-1.081c1.106,0.508,1.589,1.819,1.08,2.924l-87.034,188.996
					C821.969,2067.041,821.17,2067.516,820.337,2067.516z"/>
			</g>
			<g>
				<path style="fill:#84524D;" d="M844.944,1372.609c0,0,173.59,124.693,318.761-14.576l30.835-62.574
					c0,0,35.6,97.054,10.447,191.643c-25.152,94.589-128.572,113.704-270.421,84.779L844.944,1372.609z"/>
				<path style="fill:#FFFFFF;" d="M569.689,1748.271c88.808-55.824,274.67-162.424,406.004-167.302
					c0,0,15.017-115.598-115.476-219.95c0,0-150.756-96.03-349.799-9.861c0,0-138.154,230.422-71.995,361.061
					C462.89,1760.529,523.843,1777.09,569.689,1748.271z"/>
				<g>
					<g>
						<path style="fill:#84524D;" d="M514.341,1348.944c0,64.661,3.135,119.65,8.597,213.055
							c6.273,107.293,9.141,159.492-30.636,175.376C272.306,1825.222,330.875,1445.722,514.341,1348.944z"/>
					</g>
					<g>
						<path style="fill:#84524D;" d="M471.639,1571.845c0,0,132.101-53.784,204.136-77.354
							c75.652-24.753,190.952-50.284,194.315-34.108c1.916,9.214-13.089,15.946-54.391,31.276
							c2.863,1.313,10.406,6.697,10.782,15.534c0.556,13.078-9.741,17.166-10.518,17.896c1.007,0.367,11.745,4.616,13.6,13.307
							c2.089,9.789-2.232,17.321-8.642,21.863c2.47,0.987,11.214,5.555,12.75,13.961c1.58,8.646-3.047,18.819-11.805,21.542
							c-16.066,4.995-64.094,18.924-86.642,28.551c-44.37,18.945-192.908,107.372-264.274,117.803
							C482.88,1680.84,471.639,1571.845,471.639,1571.845z"/>
						<g>
							<path style="fill:#363E44;" d="M801.606,1594.742c-1.05,0-1.98-0.751-2.169-1.821l-2.477-14.004
								c-0.212-1.199,0.588-2.343,1.787-2.554c1.21-0.22,2.344,0.586,2.556,1.787l2.477,14.004c0.212,1.199-0.588,2.343-1.787,2.554
								C801.862,1594.731,801.733,1594.742,801.606,1594.742z"/>
							<path style="fill:#363E44;" d="M795.012,1561.076c-1.078,0-2.021-0.792-2.179-1.891l-2.298-15.914
								c-0.174-1.204,0.662-2.323,1.867-2.495c1.218-0.183,2.324,0.661,2.498,1.867l2.299,15.914
								c0.174,1.204-0.662,2.323-1.867,2.495C795.223,1561.069,795.117,1561.076,795.012,1561.076z"/>
							<path style="fill:#363E44;" d="M790.514,1525.241c-1.049,0-1.979-0.751-2.168-1.819c-0.466-2.616-0.868-4.982-1.27-7.349
								c-0.399-2.356-0.8-4.709-1.263-7.316c-0.213-1.197,0.586-2.343,1.784-2.556c1.213-0.219,2.345,0.588,2.557,1.785
								c0.466,2.616,0.868,4.982,1.27,7.349c0.399,2.355,0.8,4.709,1.263,7.316c0.213,1.197-0.586,2.343-1.784,2.556
								C790.771,1525.23,790.642,1525.241,790.514,1525.241z"/>
							<path style="fill:#363E44;" d="M783.98,1496.15c-0.985,0-1.882-0.663-2.136-1.662l-3.478-13.683
								c-0.3-1.18,0.413-2.379,1.593-2.678c1.182-0.319,2.379,0.411,2.681,1.593l3.478,13.683c0.3,1.18-0.413,2.379-1.593,2.678
								C784.342,1496.128,784.16,1496.15,783.98,1496.15z"/>
						</g>
					</g>
				</g>
				<g>
					<g>
						<polygon style="fill:#D87355;" points="1138.463,1459.521 1006.904,1459.521 1093.665,1256.547 1225.224,1256.547 						"/>
						<path style="fill:#EFBC73;" d="M1123.43,1281.036c0,4.911-3.981,8.892-8.892,8.892c-4.911,0-8.892-3.981-8.892-8.892
							c0-4.911,3.981-8.892,8.892-8.892C1119.449,1272.144,1123.43,1276.125,1123.43,1281.036z"/>
					</g>
					<g>
						<path style="fill:#84524D;" d="M1222.014,1325.918c0,13.321-1.123,24.12-24.195,24.12c-23.072,0-59.356-10.799-59.356-24.12
							c0-13.321,36.284-24.12,59.356-24.12C1220.891,1301.798,1222.014,1312.597,1222.014,1325.918z"/>
						<path style="fill:#84524D;" d="M1126.212,1361.364c0-13.321,36.284-24.12,59.356-24.12c23.072,0,24.195,10.799,24.195,24.12
							H1126.212z"/>
						<path style="fill:#84524D;" d="M1209.762,1361.364c0,13.321-1.123,24.12-24.195,24.12c-23.072,0-59.356-10.799-59.356-24.12
							H1209.762z"/>
						<path style="fill:#84524D;" d="M1113.959,1396.81c0-13.321,36.284-24.12,59.356-24.12c23.072,0,24.195,10.799,24.195,24.12
							H1113.959z"/>
						<path style="fill:#84524D;" d="M1197.51,1396.81c0,13.321-1.123,24.12-24.195,24.12c-23.072,0-59.356-10.799-59.356-24.12
							H1197.51z"/>
						<path style="fill:#84524D;" d="M1118.844,1427.308c0-10.589,28.842-19.173,47.181-19.173c18.34,0,19.232,8.584,19.232,19.173
							H1118.844z"/>
						<path style="fill:#84524D;" d="M1185.258,1427.308c0,10.589-0.893,19.172-19.232,19.172c-18.34,0-47.181-8.584-47.181-19.172
							H1185.258z"/>
					</g>
				</g>
			</g>
			<g>
				
					<ellipse transform="matrix(0.9239 -0.3827 0.3827 0.9239 -401.2363 358.418)" style="fill:#363E44;" cx="700.327" cy="1187.785" rx="84.901" ry="84.901"/>
				<path style="fill:#84524D;" d="M758.969,1230.104L758.969,1230.104c-10.743-5.936-29.15-21.788-35.086-11.045l-69.651,111.385
					c-5.936,10.743,29.694,7.004,40.437,12.94l0,0c10.743,5.936,24.264,2.038,30.2-8.705l42.804-74.374
					C773.61,1249.56,769.713,1236.039,758.969,1230.104z"/>
				<ellipse style="fill:#84524D;" cx="690.871" cy="1339.048" rx="60.06" ry="18.082"/>
				<g>
					<path style="fill:#84524D;" d="M815.189,1260.748c-9.637,18.035-66.125,10.281-66.125,10.281l-49.261-38.416
						c-12.835-25.743-2.371-57.017,23.372-69.853c25.744-12.835,57.018-2.371,69.852,23.373
						C793.027,1186.133,825.004,1242.38,815.189,1260.748z"/>
					<path style="fill:#84524D;" d="M793.781,1201.06c0,0,19.904,7.179,21.011,11.143c1.322,4.731-11.929,14.625-11.929,14.625
						S794.146,1200.92,793.781,1201.06z"/>
					<g>
						<path style="fill:#FFFFFF;" d="M750.721,1220.039c0,0,5.711-8.088,15.118-12.778c2.002-0.998,6.211,16.901,3.859,16.941
							C759.357,1224.379,750.721,1220.039,750.721,1220.039z"/>
						<g>
							<defs>
								<path id="SVGID_1_" d="M750.721,1220.039c0,0,8.4-11.896,21.605-15.199c13.206-3.303,26.216,3.237,26.216,3.237
									s-8.4,11.895-21.605,15.199C763.732,1226.579,750.721,1220.039,750.721,1220.039z"/>
							</defs>
							<clipPath id="SVGID_00000098214342521941710470000016803147348599801999_">
								<use xlink:href="#SVGID_1_"  style="overflow:visible;"/>
							</clipPath>
							
								<ellipse transform="matrix(0.32 -0.9474 0.9474 0.32 -616.1647 1566.1379)" style="clip-path:url(#SVGID_00000098214342521941710470000016803147348599801999_);fill:#363E44;" cx="782.915" cy="1212.299" rx="17.802" ry="17.802"/>
						</g>
					</g>
					<path style="fill:#363E44;" d="M792.096,1243.623c-0.353,0-0.708-0.019-1.064-0.06c-3.569-0.407-6.661-2.862-7.88-6.257
						c-0.411-1.145,0.184-2.409,1.331-2.821c1.142-0.413,2.407,0.183,2.821,1.331c0.656,1.828,2.315,3.148,4.228,3.367
						c1.978,0.237,3.933-0.749,4.963-2.483c0.622-1.046,1.974-1.391,3.023-0.766c1.045,0.622,1.389,1.977,0.766,3.023
						C798.552,1241.866,795.418,1243.623,792.096,1243.623z"/>
				</g>
				<path style="fill:#363E44;" d="M662.684,1242.083c0,0,73.192,3.229,119.475-69.963c46.283-73.192-80.726-68.886-133.467-44.13
					C614.911,1143.847,662.684,1242.083,662.684,1242.083z"/>
				<path style="fill:#FFFFFF;" d="M680.849,1301.927c-2.365,0-3.913-0.241-4.093-0.269c-1.202-0.198-2.017-1.331-1.82-2.532
					c0.196-1.202,1.324-2.018,2.531-1.822c0.109,0.019,11.422,1.725,20.091-5.245c6.169-4.959,9.63-13.126,10.286-24.272
					c0.975-16.588-10.756-25.797-19.322-32.519c-5.346-4.197-9.209-7.23-8.413-11.115c0.738-3.607,5.41-6.184,16.663-9.194
					c39.639-10.606,62.725-57.323,62.954-57.795c0.532-1.096,1.85-1.554,2.947-1.021c1.095,0.532,1.552,1.849,1.022,2.945
					c-0.968,1.994-24.172,48.997-65.783,60.129c-12.065,3.23-13.37,5.271-13.483,5.82c-0.249,1.214,3.836,4.42,6.817,6.761
					c8.805,6.912,22.113,17.357,21.001,36.246c-0.733,12.469-4.759,21.717-11.967,27.485
					C693.474,1300.978,685.55,1301.927,680.849,1301.927z"/>
				<path style="fill:#363E44;" d="M564.821,943.053c0,0-72.53,160.079,96.397,233.87c0,0-75.451-131.777,51.064-239.387
					L564.821,943.053z"/>
			</g>
		</g>
		<g>
			<polygon style="fill:#FFFFFF;" points="587.862,776.971 711.595,874.248 671.222,622.454 			"/>
			
				<ellipse transform="matrix(0.7071 -0.7071 0.7071 0.7071 -297.9236 643.7879)" style="fill:#FFFFFF;" cx="628.159" cy="681.52" rx="147.63" ry="147.63"/>
			<path style="fill:#D3BBA3;" d="M491.195,739.402c-0.872,0-1.698-0.519-2.044-1.378c-7.226-17.854-10.89-36.754-10.89-56.18
				c0-82.62,67.216-149.835,149.835-149.835c12.31,0,24.55,1.497,36.382,4.448c1.181,0.295,1.9,1.492,1.605,2.674
				c-0.294,1.182-1.49,1.888-2.673,1.606c-11.483-2.866-23.364-4.319-35.314-4.319c-80.187,0-145.425,65.238-145.425,145.425
				c0,18.855,3.555,37.2,10.566,54.526c0.458,1.128-0.087,2.414-1.216,2.87C491.75,739.35,491.469,739.402,491.195,739.402z"/>
			<path style="fill:#D87355;" d="M709.421,654.4c-6.099-19.604-24.384-33.839-45.995-33.839l0,0h-0.001
				c-13.98,0-26.532,5.994-35.328,15.508c-8.797-9.515-21.348-15.508-35.328-15.508l0,0c0,0,0,0-0.001,0
				c-21.611,0-39.897,14.235-45.994,33.839c-1.407,4.524-2.165,9.334-2.165,14.321c0,26.598,31.452,71.749,83.489,91.406
				c52.038-19.658,83.489-64.808,83.489-91.406C711.585,663.734,710.828,658.924,709.421,654.4z"/>
		</g>
		<g>
			<path style="fill:#FFFFFF;" d="M1364.207,2111.084h411.079c51.283,0,92.855-41.572,92.855-92.854v0
				c0-51.159-41.376-92.647-92.488-92.845l22.365-149.308l-104.485,149.298h-329.327c-51.283,0-92.855,41.573-92.855,92.855v0
				C1271.352,2069.512,1312.925,2111.084,1364.207,2111.084z"/>
			<path style="fill:#D3BBA3;" d="M1751.506,2082.881h-411.08c-52.416,0-95.059-42.643-95.059-95.059s42.643-95.061,95.059-95.061
				h328.18l103.825-148.356c0.586-0.84,1.677-1.163,2.623-0.784c0.952,0.379,1.516,1.363,1.365,2.375l-21.992,146.819
				c51.038,1.552,92.139,43.649,92.139,95.005C1846.565,2040.236,1803.922,2082.881,1751.506,2082.881z M1340.426,1897.171
				c-49.985,0-90.65,40.664-90.65,90.649c0,49.985,40.664,90.652,90.65,90.652h411.08c49.985,0,90.65-40.664,90.65-90.65
				c0-49.787-40.505-90.447-90.292-90.641c-0.64-0.002-1.249-0.284-1.664-0.769c-0.418-0.487-0.603-1.13-0.508-1.763l20.976-140.034
				l-99.107,141.614c-0.413,0.59-1.087,0.941-1.806,0.941H1340.426z"/>
		</g>
	</g>
</g>
</svg>
