<?xml version="1.0" encoding="utf-8"?>
<!-- Generator: Adobe Illustrator 27.5.0, SVG Export Plug-In . SVG Version: 6.00 Build 0)  -->
<svg version="1.1" xmlns="http://www.w3.org/2000/svg" xmlns:xlink="http://www.w3.org/1999/xlink" x="0px" y="0px"
	 viewBox="0 0 2500 2500" style="enable-background:new 0 0 2500 2500;" xml:space="preserve">
-
<g id="Illustration">
	<g id="Events_1_">
		<ellipse style="fill:transparent;" cx="1250" cy="1250" rx="915.37" ry="915"/>
		<g>
			<g>
				<path style="fill:#FFFFFF;" d="M1114.953,1647.294c-0.199,0-0.396-0.06-0.563-0.174c-0.22-0.149-0.37-0.38-0.42-0.64
					l-3.944-20.798c-0.035,0-0.071,0-0.107,0c-10.242,0-20.542-0.775-30.646-2.306l-6.988,19.998
					c-0.183,0.521-0.751,0.796-1.274,0.614l-70.334-24.578c-0.25-0.088-0.455-0.271-0.57-0.51c-0.115-0.239-0.131-0.514-0.044-0.764
					l6.988-19.997c-8.889-5.113-17.46-10.946-25.496-17.351l-16.04,13.816c-0.201,0.173-0.468,0.259-0.727,0.24
					c-0.265-0.02-0.511-0.144-0.684-0.345l-48.622-56.452c-0.36-0.418-0.314-1.05,0.105-1.41l16.077-13.848
					c-5.132-8.889-9.63-18.221-13.382-27.76l-20.849,3.954c-0.264,0.049-0.529-0.006-0.75-0.156c-0.219-0.149-0.369-0.38-0.419-0.64
					l-13.882-73.2c-0.102-0.543,0.254-1.066,0.796-1.169l20.799-3.945c-0.005-10.28,0.769-20.618,2.306-30.754l-19.998-6.988
					c-0.521-0.182-0.796-0.753-0.614-1.274l24.577-70.334c0.184-0.521,0.754-0.796,1.274-0.614l19.998,6.988
					c5.11-8.885,10.943-17.456,17.351-25.496l-13.815-16.04c-0.173-0.201-0.259-0.462-0.239-0.727
					c0.02-0.264,0.143-0.51,0.345-0.683l56.452-48.622c0.2-0.173,0.469-0.259,0.727-0.24c0.265,0.02,0.511,0.144,0.684,0.345
					l13.848,16.078c8.883-5.129,18.213-9.627,27.761-13.383l-3.954-20.848c-0.05-0.261,0.007-0.53,0.156-0.749
					s0.379-0.37,0.64-0.419l73.2-13.882c0.26-0.049,0.529,0.006,0.749,0.156c0.22,0.149,0.37,0.38,0.42,0.64l3.944,20.799
					c0.037,0,0.075,0,0.113,0c10.239,0,20.537,0.775,30.641,2.305l6.987-19.998c0.088-0.25,0.271-0.456,0.51-0.571
					s0.514-0.131,0.765-0.043l70.334,24.578c0.521,0.182,0.796,0.752,0.614,1.274l-6.988,19.998
					c8.892,5.115,17.462,10.947,25.496,17.351l16.04-13.816c0.201-0.173,0.469-0.26,0.727-0.24c0.265,0.02,0.511,0.144,0.684,0.345
					l48.622,56.452c0.173,0.201,0.259,0.462,0.239,0.727c-0.02,0.264-0.144,0.51-0.345,0.683l-16.078,13.848
					c5.126,8.877,9.625,18.208,13.384,27.76l20.848-3.954c0.26-0.049,0.529,0.006,0.75,0.156c0.219,0.149,0.369,0.38,0.419,0.64
					l13.882,73.2c0.103,0.543-0.254,1.066-0.796,1.169l-20.799,3.945c0.006,10.274-0.77,20.612-2.306,30.753l19.998,6.988
					c0.521,0.182,0.796,0.753,0.614,1.274l-24.577,70.334c-0.088,0.25-0.271,0.456-0.51,0.571s-0.513,0.131-0.765,0.043
					l-19.997-6.988c-5.117,8.893-10.949,17.464-17.352,25.496l13.815,16.04c0.173,0.201,0.259,0.462,0.239,0.727
					c-0.02,0.264-0.144,0.51-0.345,0.683l-56.452,48.623c-0.2,0.173-0.469,0.259-0.727,0.24c-0.265-0.02-0.511-0.144-0.684-0.345
					l-13.848-16.079c-8.883,5.129-18.213,9.627-27.761,13.383l3.954,20.849c0.103,0.543-0.254,1.066-0.796,1.169l-73.2,13.882
					C1115.077,1647.289,1115.016,1647.294,1114.953,1647.294z M1110.854,1623.68c0.48,0,0.893,0.341,0.982,0.814l3.912,20.632
					l71.235-13.509l-3.922-20.681c-0.09-0.474,0.171-0.944,0.62-1.118c9.978-3.879,19.726-8.578,28.972-13.967
					c0.417-0.243,0.948-0.153,1.262,0.211l13.737,15.95l54.937-47.318l-13.705-15.911c-0.314-0.365-0.323-0.903-0.021-1.279
					c6.715-8.354,12.807-17.306,18.106-26.607c0.24-0.42,0.745-0.608,1.199-0.449l19.838,6.932l23.918-68.446l-19.839-6.932
					c-0.455-0.159-0.732-0.621-0.658-1.098c1.646-10.574,2.456-21.372,2.406-32.093c-0.002-0.482,0.34-0.897,0.813-0.987
					l20.632-3.913l-13.509-71.235l-20.681,3.922c-0.469,0.09-0.943-0.17-1.118-0.62c-3.883-9.984-8.582-19.731-13.969-28.972
					c-0.242-0.416-0.153-0.947,0.212-1.261l15.949-13.737l-47.317-54.937l-15.911,13.705c-0.363,0.315-0.902,0.323-1.279,0.022
					c-8.355-6.716-17.308-12.808-26.605-18.106c-0.419-0.239-0.608-0.743-0.449-1.199l6.933-19.838l-68.446-23.918l-6.932,19.838
					c-0.16,0.456-0.623,0.732-1.099,0.658c-10.573-1.646-21.386-2.457-32.093-2.406c-0.002,0-0.003,0-0.005,0
					c-0.48,0-0.893-0.341-0.982-0.814l-3.912-20.632l-71.235,13.51l3.922,20.681c0.09,0.474-0.171,0.944-0.62,1.118
					c-9.978,3.879-19.726,8.578-28.972,13.967c-0.417,0.243-0.947,0.153-1.262-0.211l-13.737-15.949l-54.936,47.317l13.705,15.911
					c0.314,0.365,0.323,0.903,0.021,1.279c-6.721,8.363-12.813,17.314-18.105,26.606c-0.24,0.42-0.746,0.608-1.199,0.449
					l-19.838-6.932l-23.919,68.446l19.839,6.932c0.455,0.159,0.732,0.621,0.658,1.098c-1.646,10.568-2.455,21.366-2.406,32.093
					c0.002,0.482-0.34,0.897-0.814,0.987l-20.632,3.914l13.509,71.235l20.682-3.922c0.463-0.09,0.942,0.17,1.118,0.62
					c3.875,9.97,8.574,19.718,13.967,28.972c0.242,0.416,0.153,0.947-0.212,1.261l-15.948,13.737l47.317,54.937l15.911-13.705
					c0.365-0.315,0.905-0.323,1.278-0.022c8.358,6.718,17.311,12.81,26.607,18.106c0.419,0.239,0.608,0.743,0.449,1.199
					l-6.933,19.838l68.445,23.918l6.933-19.839c0.16-0.456,0.631-0.731,1.099-0.658c10.569,1.646,21.365,2.456,32.092,2.406
					C1110.852,1623.68,1110.853,1623.68,1110.854,1623.68z M1109.644,1543.562c-12.356,0-24.729-1.871-36.736-5.641
					c-33.05-10.378-59.522-33.248-74.537-64.396c-15.017-31.148-16.422-66.101-3.956-98.422
					c11.288-29.272,33.233-52.975,61.791-66.743c28.559-13.768,60.77-16.174,90.702-6.775c33.05,10.378,59.521,33.248,74.538,64.395
					c15.016,31.147,16.421,66.101,3.955,98.422l-0.933-0.36l0.933,0.36c-11.288,29.272-33.233,52.975-61.791,66.743
					C1146.507,1539.391,1128.093,1543.562,1109.644,1543.562z M1110.011,1297.914c-49.094,0-95.229,29.935-113.731,77.909
					c-12.264,31.8-10.882,66.189,3.892,96.833c14.774,30.645,40.818,53.145,73.336,63.356c12.032,3.778,24.256,5.58,36.297,5.58
					c49.094,0.002,95.229-29.935,113.731-77.909c0,0,0,0,0,0c12.264-31.8,10.882-66.189-3.892-96.834
					c-14.773-30.645-40.818-53.145-73.336-63.356C1134.275,1299.716,1122.052,1297.914,1110.011,1297.914z"/>
			</g>
			<path style="fill:#FFFFFF;" d="M1109.937,1583.758c-18.061,0-36.332-2.988-54.123-9.205
				c-41.349-14.449-74.596-44.135-93.616-83.59c-19.021-39.455-21.539-83.955-7.09-125.304
				c13.032-37.295,39.072-68.624,73.323-88.214c33.91-19.396,73.613-26.096,111.786-18.868c0.543,0.103,0.899,0.626,0.797,1.169
				c-0.103,0.542-0.629,0.9-1.168,0.797c-78.016-14.771-156.617,30.704-182.85,105.777c-14.273,40.844-11.786,84.802,7.003,123.776
				c18.788,38.974,51.63,68.298,92.475,82.57c69.663,24.345,146.97-1.42,187.984-62.656c0.309-0.459,0.929-0.582,1.388-0.274
				c0.459,0.307,0.582,0.928,0.274,1.387C1215.072,1557.476,1163.474,1583.758,1109.937,1583.758z"/>
		</g>
		<g>
			<g>
				<g>
					<rect x="1260.834" y="712.484" style="fill:#D3BBA3;" width="868.38" height="53.946"/>
					<path style="fill:#D3BBA3;" d="M2129.215,1321.377h-868.38c-0.552,0-1-0.448-1-1V712.484c0-0.552,0.448-1,1-1h868.38
						c0.553,0,1,0.448,1,1v607.893C2130.215,1320.93,2129.768,1321.377,2129.215,1321.377z M1261.835,1319.377h866.38V713.484
						h-866.38V1319.377z"/>
					<ellipse style="fill:#FFFFFF;" cx="1297.229" cy="739.834" rx="12.449" ry="12.27"/>
					<ellipse style="fill:#FFFFFF;" cx="1337.453" cy="739.834" rx="12.449" ry="12.27"/>
					<ellipse style="fill:#FFFFFF;" cx="1377.676" cy="739.834" rx="12.449" ry="12.27"/>
				</g>
				<g>
					<rect x="1315.511" y="836.121" style="fill:#F7F1EB;" width="759.028" height="441.184"/>
					<rect x="1351.663" y="1208.325" style="fill:#E6D0BE;" width="673.88" height="28.773"/>
				</g>
			</g>
			<g>
				<g>
					<rect x="857.842" y="466.82" style="fill:#D3BBA3;" width="939.222" height="59.2"/>
					<path style="fill:#D3BBA3;" d="M1447.591,1134.913H857.842c-0.553,0-1-0.448-1-1V466.82c0-0.552,0.447-1,1-1h939.222
						c0.552,0,1,0.448,1,1v290.476c0,0.552-0.448,1-1,1s-1-0.448-1-1V467.82H858.842v665.093h588.749c0.553,0,1,0.448,1,1
						C1448.591,1134.465,1448.144,1134.913,1447.591,1134.913z"/>
					<path style="fill:#FFFFFF;" d="M907.07,486.971c10.975,14.413-5.316,30.702-19.727,19.726
						C876.365,492.284,892.657,475.992,907.07,486.971z"/>
					<path style="fill:#FFFFFF;" d="M950.574,486.97c10.977,14.413-5.315,30.704-19.727,19.727
						C919.87,492.285,936.161,475.993,950.574,486.97z"/>
					<path style="fill:#FFFFFF;" d="M994.079,486.971c10.975,14.413-5.316,30.702-19.728,19.726
						C963.373,492.284,979.667,475.992,994.079,486.971z"/>
				</g>
				<rect x="913.073" y="570.881" style="fill:#FFFFFF;" width="828.759" height="510.253"/>
				<g>
					<path style="fill:#D3BBA3;" d="M1695.024,872.287h-281.947c-0.553,0-1-0.448-1-1s0.447-1,1-1h281.947c0.553,0,1,0.448,1,1
						S1695.577,872.287,1695.024,872.287z"/>
					<path style="fill:#D3BBA3;" d="M1360.168,872.287h-100.763c-0.553,0-1-0.448-1-1s0.447-1,1-1h100.763c0.553,0,1,0.448,1,1
						S1360.721,872.287,1360.168,872.287z"/>
					<path style="fill:#D3BBA3;" d="M1695.024,928.407h-112.928c-0.553,0-1-0.448-1-1c0-0.552,0.447-1,1-1h112.928
						c0.553,0,1,0.448,1,1C1696.024,927.959,1695.577,928.407,1695.024,928.407z"/>
					<path style="fill:#D3BBA3;" d="M1530.792,928.407h-271.387c-0.553,0-1-0.448-1-1c0-0.552,0.447-1,1-1h271.387
						c0.553,0,1,0.448,1,1C1531.792,927.959,1531.345,928.407,1530.792,928.407z"/>
					<path style="fill:#D3BBA3;" d="M1695.024,984.527h-247.434c-0.553,0-1-0.448-1-1c0-0.552,0.447-1,1-1h247.434
						c0.553,0,1,0.448,1,1C1696.024,984.079,1695.577,984.527,1695.024,984.527z"/>
					<path style="fill:#D3BBA3;" d="M1350.354,984.527h-90.948c-0.553,0-1-0.448-1-1c0-0.552,0.447-1,1-1h90.948
						c0.553,0,1,0.448,1,1C1351.354,984.079,1350.906,984.527,1350.354,984.527z"/>
					<path style="fill:#D3BBA3;" d="M1695.024,1040.646h-40.64c-0.553,0-1-0.448-1-1s0.447-1,1-1h40.64c0.553,0,1,0.448,1,1
						S1695.577,1040.646,1695.024,1040.646z"/>
					<path style="fill:#D3BBA3;" d="M1469.167,1040.646h-209.762c-0.553,0-1-0.448-1-1s0.447-1,1-1h209.762c0.553,0,1,0.448,1,1
						S1469.72,1040.646,1469.167,1040.646z"/>
				</g>
				<rect x="958.025" y="612.053" style="fill:#F2E6DC;" width="259.88" height="427.593"/>
			</g>
		</g>
		<g>
			<path style="fill:#D87355;" d="M1782.443,642.418c-2.035-130.236-108.178-235.2-238.898-235.2c-3.817,0-7.607,0.111-11.38,0.288
				v234.912H1782.443z"/>
			<path style="fill:#EFBC73;" d="M1508.588,665.995V519.996c-78.748,3.694-141.462,68.695-141.462,148.356
				c0,82.034,66.501,148.536,148.535,148.536c82.034,0,148.535-66.502,148.535-148.536c0-0.791-0.047-1.57-0.059-2.358H1508.588z"/>
		</g>
		<g>
			<g>
				<g>
					<path style="fill:#D3BBA3;" d="M408.496,1845.55c-0.844,0-1.693-0.084-2.54-0.255c-6.865-1.386-11.323-8.1-9.938-14.967
						l142.647-706.613c1.388-6.866,8.097-11.324,14.967-9.939l0,0c3.326,0.672,6.191,2.598,8.068,5.425
						c1.877,2.827,2.54,6.215,1.869,9.541l-142.646,706.615c-0.671,3.326-2.598,6.191-5.425,8.068
						C413.391,1844.824,410.97,1845.55,408.496,1845.55z M551.114,1115.523c-4.988,0-9.465,3.513-10.489,8.587l-142.647,706.613
						c-1.168,5.786,2.589,11.443,8.374,12.611c2.799,0.566,5.657,0.006,8.039-1.576c2.382-1.582,4.005-3.996,4.57-6.798
						l142.646-706.615c0.566-2.803,0.007-5.658-1.574-8.039c-1.582-2.382-3.996-4.005-6.799-4.571
						C552.523,1115.593,551.813,1115.523,551.114,1115.523z"/>
					<path style="fill:#D3BBA3;" d="M844.955,1845.547c-5.92,0-11.232-4.169-12.449-10.191L689.86,1128.742
						c-1.386-6.866,3.072-13.58,9.938-14.966c6.872-1.387,13.582,3.073,14.968,9.938l142.645,706.613
						c1.385,6.867-3.073,13.581-9.938,14.967C846.628,1845.465,845.785,1845.547,844.955,1845.547z M847.076,1843.334l0.198,0.98
						L847.076,1843.334c5.785-1.168,9.542-6.825,8.374-12.611L712.805,1124.11c-1.168-5.786-6.826-9.541-12.61-8.374
						c-5.785,1.168-9.541,6.825-8.373,12.61l142.646,706.615C835.635,1840.746,841.288,1844.501,847.076,1843.334z"/>
				</g>
				<path style="fill:#D3BBA3;" d="M753.045,1475.237H500.383c-0.553,0-1-0.448-1-1s0.447-1,1-1h252.662c0.553,0,1,0.448,1,1
					S753.598,1475.237,753.045,1475.237z"/>
				<path style="fill:#D3BBA3;" d="M753.045,1503.445H500.383c-0.553,0-1-0.448-1-1s0.447-1,1-1h252.662c0.553,0,1,0.448,1,1
					S753.598,1503.445,753.045,1503.445z"/>
				<g>
					<path style="fill:#F2E6DC;" d="M734.34,1072.385H519.089c-17.954,0-32.508,14.554-32.508,32.508v6.143
						c0,17.953,14.555,32.508,32.508,32.508H734.34c17.954,0,32.508-14.555,32.508-32.508v-6.143
						C766.848,1086.938,752.294,1072.385,734.34,1072.385z"/>
					<path style="fill:#D3BBA3;" d="M734.34,1144.544H519.089c-18.477,0-33.509-15.032-33.509-33.508v-6.143
						c0-18.477,15.032-33.508,33.509-33.508H734.34c18.477,0,33.509,15.032,33.509,33.508v6.143
						C767.849,1129.512,752.816,1144.544,734.34,1144.544z M519.089,1073.385c-17.374,0-31.509,14.135-31.509,31.508v6.143
						c0,17.374,14.135,31.508,31.509,31.508H734.34c17.374,0,31.509-14.135,31.509-31.508v-6.143
						c0-17.374-14.135-31.508-31.509-31.508H519.089z"/>
				</g>
			</g>
			<g>
				<g>
					<g>
						<g>
							<path style="fill:#FFFFFF;" d="M1080.019,1847.611c0,0-30.869-84.384-144.366-134.664h-63.646
								c0,0-35.486,60.279-30.633,134.664H1080.019z"/>
							<g>
								<path style="fill:#363E44;" d="M932.544,1764.599c-0.301,0-0.599-0.135-0.795-0.392c-0.336-0.439-0.252-1.066,0.186-1.402
									l28.506-21.809c0.438-0.336,1.067-0.252,1.401,0.187c0.336,0.439,0.252,1.066-0.186,1.402l-28.506,21.809
									C932.97,1764.532,932.756,1764.599,932.544,1764.599z"/>
								<path style="fill:#363E44;" d="M948.251,1775.504c-0.301,0-0.599-0.135-0.795-0.392c-0.336-0.439-0.252-1.066,0.186-1.402
									l28.505-21.809c0.438-0.336,1.067-0.252,1.401,0.187c0.336,0.439,0.252,1.066-0.187,1.402l-28.505,21.809
									C948.677,1775.437,948.463,1775.504,948.251,1775.504z"/>
							</g>
						</g>
						<path style="fill:#9E6C5A;" d="M854.486,1651.155l14.023,69.13c2.67,13.164,13.273,23.238,26.547,25.286
							c0.404,0.062,0.81,0.123,1.219,0.182c21.408,3.077,39.49-15.909,35.783-37.217l-9.339-53.672L854.486,1651.155z"/>
					</g>
					<g>
						<g>
							<path style="fill:#E6D0BE;" d="M611.608,1621.254l134.213-168c0,0-46.633-59.906-84.624-54.781l-38.159,35.326
								C623.037,1433.799,553.105,1559.303,611.608,1621.254z"/>
							<g>
								<path style="fill:#363E44;" d="M618.609,1483.827c-0.061,0-0.123-0.006-0.186-0.017l-17.481-3.291
									c-0.543-0.102-0.9-0.625-0.798-1.168c0.103-0.543,0.632-0.899,1.167-0.798l17.482,3.291c0.543,0.102,0.9,0.625,0.798,1.168
									C619.501,1483.492,619.081,1483.827,618.609,1483.827z"/>
								<path style="fill:#363E44;" d="M612.444,1499.962c0,0-14.981-2.885-17.259-3.319c-0.542-0.103-0.898-0.627-0.795-1.169
									c0.103-0.542,0.622-0.9,1.17-0.795c2.277,0.434,17.263,3.32,17.263,3.32L612.444,1499.962z"/>
							</g>
						</g>
						<path style="fill:#9E6C5A;" d="M562.443,1407.481l65.33,40.764c12.824,8.002,29.444,6.278,40.353-4.185l0,0
							c13.008-12.477,13.613-33.078,1.359-46.297l-37.736-40.706L562.443,1407.481z"/>
					</g>
					<g>
						<path style="fill:#FFFFFF;" d="M611.529,940.241c0,0-120.164,99.46-180.728,236.293
							c-18.581,41.981-14.936,90.53,9.384,129.469c27.453,43.955,70.841,102.711,128.06,146.68l107.072-95.626l-82.186-91.395
							l74.246-108.603c0,0,70.036,247.135,156.932,504.601h126.286c0,0-43.739-342.853-139.36-690.828L611.529,940.241z"/>
						<path style="fill:#363E44;" d="M569.667,1302.516c-0.197,0-0.398-0.058-0.571-0.18c-0.453-0.316-0.563-0.94-0.247-1.392
							l24.509-35.089c0.315-0.453,0.938-0.564,1.392-0.247c0.453,0.316,0.563,0.94,0.247,1.392l-24.509,35.089
							C570.293,1302.367,569.982,1302.516,569.667,1302.516z"/>
						<path style="fill:#363E44;" d="M671.171,1144.544c-0.172,0-0.346-0.044-0.505-0.137c-0.477-0.279-0.636-0.892-0.357-1.368
							l20.84-35.58c0.204-0.346,0.593-0.538,0.99-0.486l16.437,2.109c0.548,0.07,0.935,0.571,0.865,1.119
							c-0.07,0.547-0.563,0.937-1.119,0.865l-15.781-2.024l-20.505,35.009C671.849,1144.367,671.515,1144.544,671.171,1144.544z"/>
					</g>
				</g>
				<g>
					<g>
						<g>
							<path style="fill:#9E6C5A;" d="M904.204,769.462c0,0,89.537-90.874,121.095-119.021c33.143-29.56,86.38-68.376,91.714-60.859
								c3.038,4.282-3.128,11.077-20.816,28.143c1.757,0.031,7.055,1.443,9.223,5.877c3.206,6.561-1.383,10.607-1.617,11.154
								c0.597-0.038,7.416-0.102,10.306,3.926c3.255,4.537,2.35,9.191,0.088,12.945c1.484-0.047,7.806,0.793,10.386,4.801
								c3.355,5.211,0.268,11.338-3.6,14.687c-7.097,6.143-26.907,22.447-36.282,32.408c-18.449,19.6-74.622,97.997-108.774,119.278
								C968.332,788.81,904.204,769.462,904.204,769.462z"/>
							<path style="fill:#363E44;" d="M1058.358,686.651c-0.164,0-0.33-0.04-0.483-0.125c-0.483-0.268-0.658-0.876-0.391-1.359
								c4.618-8.34,4.896-16.096,5.12-22.328c0.232-6.476,0.416-11.592,5.737-13.411c3.398-1.162,6.938-4.289,10.231-9.043
								c0.879-1.267,0.571-2.61-0.011-3.444c-0.59-0.847-1.764-1.614-3.28-1.221l-27.952,7.217c-0.531,0.138-1.08-0.183-1.218-0.718
								c-0.139-0.535,0.183-1.08,0.718-1.218l27.952-7.217c2.068-0.534,4.195,0.256,5.422,2.014c1.213,1.741,1.219,3.99,0.013,5.727
								c-3.59,5.18-7.368,8.475-11.229,9.795c-3.84,1.313-4.145,4.877-4.385,11.591c-0.231,6.445-0.52,14.466-5.369,23.225
								C1059.052,686.465,1058.71,686.651,1058.358,686.651z"/>
							<path style="fill:#363E44;" d="M1105.166,678.448c-0.278,0-0.557-0.116-0.754-0.343c-4.715-5.415-4.982-13.329-0.966-19.029
								l-2.507,1.622c-4.145,2.684-9.617,2.024-13.005-1.574c-1.908-2.025-2.893-4.671-2.774-7.451s1.325-5.332,3.398-7.188
								l3.134-2.805c-3.01,0.518-6.219-0.628-8.156-3.215c-2.561-3.415-2.147-8.196,0.959-11.122l7.694-7.248
								c0.402-0.378,1.035-0.36,1.413,0.042c0.379,0.402,0.36,1.035-0.042,1.414l-7.694,7.248c-2.365,2.227-2.679,5.867-0.73,8.466
								c2.067,2.758,6.024,3.365,8.825,1.352l5.918-4.257c0.433-0.311,1.031-0.228,1.363,0.186c0.333,0.414,0.284,1.017-0.112,1.371
								l-11.237,10.058c-1.668,1.493-2.639,3.546-2.734,5.783c-0.096,2.236,0.697,4.365,2.231,5.994
								c2.727,2.893,7.124,3.426,10.464,1.266l9.511-6.156c0.429-0.278,0.998-0.187,1.32,0.21c0.321,0.397,0.292,0.974-0.069,1.335
								l-4.071,4.08c-4.959,4.968-5.233,13.008-0.624,18.303c0.363,0.417,0.319,1.048-0.098,1.411
								C1105.633,678.367,1105.399,678.448,1105.166,678.448z"/>
						</g>
					</g>
					<path style="fill:#EFBC73;" d="M596.43,725.603c19.161,0.193,30.496-2.306,119.929,2.742
						c137.374,7.754,158.799,10.526,192.462-0.424c25.125-8.173,62.641-25.803,101.901-69.371
						c21.17,23.16,42.338,46.322,63.508,69.482c-7.943,17.585-34.753,70.971-97.365,105.331
						c-65.066,35.709-126.993,27.93-145.647,24.868c11.33,74.443,22.66,148.883,33.99,223.326c0,0-189.421-32.812-347.507-58.648
						l28.166-125.629L437.979,795.931c0,0,3.776-3.447,11.472-11.028C488.586,746.352,541.499,725.049,596.43,725.603z"/>
					<g>
						<g>
							<polygon style="fill:#363E44;" points="731.732,967.066 616.62,967.066 675.411,829.525 790.523,829.525 							"/>
							<path style="fill:#FFFFFF;" d="M695.581,846.12c0,3.328-2.698,6.025-6.025,6.025c-3.328,0-6.025-2.698-6.025-6.025
								c0-3.328,2.698-6.025,6.025-6.025C692.883,840.095,695.581,842.792,695.581,846.12z"/>
						</g>
						<g>
							<path style="fill:#FFFFFF;" d="M659.678,843.812c-0.07,0-0.142-0.007-0.214-0.023l-37.377-8.137
								c-0.539-0.117-0.882-0.65-0.765-1.19c0.118-0.539,0.648-0.882,1.19-0.764l37.377,8.137c0.539,0.117,0.882,0.65,0.765,1.19
								C660.552,843.492,660.138,843.812,659.678,843.812z"/>
							<path style="fill:#FFFFFF;" d="M672.554,823.8c-0.314,0-0.625-0.148-0.819-0.425l-27.539-39.221
								c-0.317-0.452-0.208-1.076,0.244-1.393c0.453-0.318,1.076-0.208,1.392,0.244l27.539,39.221
								c0.317,0.452,0.208,1.076-0.244,1.393C672.952,823.741,672.752,823.8,672.554,823.8z"/>
							<path style="fill:#FFFFFF;" d="M690.607,823.8c-0.014,0-0.027,0-0.04-0.001c-0.552-0.022-0.982-0.487-0.96-1.038
								l1.405-35.693c0.023-0.552,0.528-0.981,1.038-0.96c0.552,0.022,0.981,0.487,0.96,1.039l-1.405,35.693
								C691.584,823.378,691.142,823.8,690.607,823.8z"/>
						</g>
					</g>
					<g>
						<path style="fill:#9E6C5A;" d="M463.095,834.675c38.742,8.507,130.969,24.025,139.911,25.898
							c16.717,3.502,105.941,24.623,104.289,37.829c-0.789,6.31-18.162,3.018-24.003,1.734c4.206,3.363,21.757,14.526,19.068,21.128
							c-3.159,7.756-26.11-2.344-26.566-2.276c4.618,2.981,23.492,14.113,21.669,19.141c-2.372,6.542-23.038,1.452-29.154-0.358
							c0.394,1.024,18.97,12.956,17.351,16.9c-1.793,4.37-21.177,0.086-29.013-0.898c-14.855-3.099-73.23-12.046-101.794-15.044
							c-67.085-7.039-96.658-13.153-128.495-22.262c-12.463-3.566-24.349-11.94-29.382-21.849
							c-6.371-12.545-3.106-24.99,9.454-31.332C425.322,853.745,444.057,844.343,463.095,834.675z"/>
						<g>
							<path style="fill:#363E44;" d="M683.627,900.559c-0.18,0-0.362-0.049-0.526-0.151c-3-1.863-6.151-3.531-9.369-4.96
								c-5.781-2.567-11.9-4.421-18.188-5.511c-0.544-0.094-0.909-0.612-0.814-1.156c0.094-0.544,0.617-0.909,1.156-0.815
								c6.448,1.118,12.726,3.02,18.658,5.654c3.301,1.466,6.534,3.178,9.611,5.089c0.47,0.291,0.613,0.908,0.322,1.377
								C684.288,900.392,683.961,900.559,683.627,900.559z"/>
							<path style="fill:#363E44;" d="M676.216,919.628c-0.145,0-0.292-0.032-0.432-0.099c-0.668-0.32-1.352-0.637-2.052-0.948
								c-5.782-2.567-11.901-4.421-18.189-5.511c-0.544-0.094-0.909-0.612-0.814-1.156c0.094-0.544,0.617-0.909,1.156-0.815
								c6.449,1.118,12.727,3.021,18.658,5.654c0.719,0.319,1.42,0.644,2.106,0.972c0.498,0.239,0.708,0.836,0.469,1.334
								C676.946,919.419,676.589,919.628,676.216,919.628z"/>
							<path style="fill:#363E44;" d="M667.943,938.506c-0.108,0-0.218-0.018-0.326-0.055c-3.909-1.349-7.971-2.393-12.073-3.104
								c-0.544-0.094-0.909-0.612-0.814-1.156c0.094-0.544,0.617-0.909,1.156-0.815c4.207,0.73,8.374,1.801,12.384,3.184
								c0.523,0.18,0.799,0.749,0.619,1.271C668.746,938.246,668.358,938.506,667.943,938.506z"/>
						</g>
					</g>
					<g>
						<path style="fill:#EFBC73;" d="M590.837,855.048l-18.267,92.939c0,0-170.338-13.752-178.766-52.35
							c-8.428-38.597,11.141-61.238,44.174-99.706C479.311,774.391,590.837,855.048,590.837,855.048z"/>
						<path style="fill:#363E44;" d="M578.39,853.716c-0.039,0-0.079-0.002-0.118-0.007c-30.504-3.614-102.41-16.064-115.392-18.915
							c-0.539-0.118-0.88-0.652-0.762-1.191c0.118-0.54,0.649-0.88,1.191-0.762c12.957,2.845,84.74,15.273,115.196,18.882
							c0.549,0.065,0.94,0.562,0.876,1.111C579.321,853.342,578.89,853.716,578.39,853.716z"/>
					</g>
				</g>
				<g>
					<g>
						<polygon style="fill:#9E6C5A;" points="649.449,729.371 710.719,741.552 743.83,684.202 692.603,654.627 						"/>
						<path style="fill:#9E6C5A;" d="M627.219,730.827c-2.141,10.563,21.378,24.245,52.532,30.561
							c31.154,6.316,58.145,2.873,60.287-7.69c2.141-10.563-21.378-24.246-52.532-30.561
							C656.351,716.821,629.36,720.264,627.219,730.827z"/>
						<g>
							<path style="fill:#9E6C5A;" d="M769.48,692.947c-7.829,12.735-48.71,4.582-48.71,4.582l-34.252-30.211
								c-8.23-19.354,0.788-41.714,20.142-49.944c19.354-8.229,41.715,0.789,49.944,20.142
								C756.603,637.516,777.454,679.976,769.48,692.947z"/>
							<path style="fill:#9E6C5A;" d="M756.494,648.443c0,0,14.208,6.119,14.841,9.06c0.756,3.511-9.351,10.146-9.351,10.146
								S756.766,648.357,756.494,648.443z"/>
							<g>
								<path style="fill:#FFFFFF;" d="M724.232,660.391c0,0,4.525-5.65,11.597-8.657c1.505-0.64,3.786,12.608,2.068,12.533
									C730.342,663.94,724.232,660.391,724.232,660.391z"/>
								<g>
									<defs>
										<path id="SVGID_1_" d="M724.232,660.391c0,0,6.655-8.31,16.438-10.137c9.783-1.827,18.989,3.52,18.989,3.52
											s-6.655,8.31-16.438,10.137C733.438,665.738,724.232,660.391,724.232,660.391z"/>
									</defs>
									<clipPath id="SVGID_00000145780985875459396340000006677494060374090143_">
										<use xlink:href="#SVGID_1_"  style="overflow:visible;"/>
									</clipPath>
									<path style="clip-path:url(#SVGID_00000145780985875459396340000006677494060374090143_);fill:#363E44;" d="
										M735.997,651.297c2.688-6.666,10.272-9.891,16.939-7.203c6.666,2.689,9.891,10.272,7.202,16.939
										c-2.689,6.666-10.272,9.891-16.938,7.203C736.533,665.547,733.308,657.963,735.997,651.297z"/>
								</g>
							</g>
							<path style="fill:#363E44;" d="M753.801,678.83c-0.36,0-0.723-0.031-1.085-0.094c-2.357-0.413-4.317-2.174-4.992-4.484
								c-0.154-0.53,0.149-1.085,0.68-1.24c0.531-0.155,1.085,0.149,1.24,0.68c0.463,1.585,1.805,2.792,3.418,3.075
								c1.676,0.294,3.38-0.432,4.344-1.85c0.313-0.456,0.934-0.575,1.39-0.264c0.457,0.311,0.575,0.933,0.265,1.389
								C757.861,677.802,755.876,678.83,753.801,678.83z"/>
							<path style="fill:#363E44;" d="M746.527,701.714c-12.466,0-24.982-2.458-25.696-2.6c-0.542-0.108-0.894-0.635-0.785-1.176
								c0.107-0.541,0.636-0.893,1.176-0.785c0.235,0.047,23.726,4.658,38.106,1.353c0.538-0.123,1.074,0.212,1.198,0.751
								c0.124,0.538-0.212,1.075-0.751,1.199C755.771,701.375,751.151,701.714,746.527,701.714z"/>
						</g>
						<path style="fill:#363E44;" d="M737.97,624.291c6.504-0.636,12.053-4.997,14.16-11.184c3.762-11.047,7.924-28.382,1.328-37.98
							c-1.256-1.827-2.488-2.86-4.363-3.666c-10.442-4.483-19.167,14.843-41.67,24.272c-21.685,9.085-37.891,1.323-45.593,13.39
							c-3.386,5.305-3.041,11.288-3.012,12.741c0.383,19.203,16.999,26.578,16.999,26.578s-11.282-3.887-14.386,11.608
							c-3.102,15.495,46.328,13.92,46.328,13.92l5.55-6.322l-6.847-15.419c-5.207-11.727,2.593-25.109,15.362-26.359L737.97,624.291
							z"/>
						
							<ellipse transform="matrix(0.2298 -0.9732 0.9732 0.2298 -118.7009 1190.7106)" style="fill:#9E6C5A;" cx="692.913" cy="670.348" rx="13.134" ry="13.134"/>
					</g>
					<g>
						<path style="fill:#EFBC73;" d="M713.981,592.164c0,0-7.132,55.504-33.66,83.736c-16.35,0.351-19.005-5.553-19.005-5.553
							s30.002-55.612,31.597-78.183C701.589,588.181,713.981,592.164,713.981,592.164z"/>
						<path style="fill:#EFBC73;" d="M693.632,595.042c-18.107-0.854-34.475,6.938-41.39,20.357
							c-6.651,12.907-2.591,27.205-1.991,29.211c0,0,1.365,4.567,13.658,24.368l0,0
							C663.909,668.977,696.583,617.031,693.632,595.042z"/>
						<path style="fill:#E0AA63;" d="M673.269,653.888c-0.188,0-0.378-0.053-0.547-0.164c-0.462-0.303-0.591-0.922-0.289-1.384
							c14.861-22.684,18.722-54.005,18.759-54.318c0.065-0.548,0.562-0.941,1.111-0.875c0.548,0.065,0.941,0.563,0.875,1.111
							c-0.038,0.318-3.956,32.106-19.071,55.178C673.914,653.729,673.595,653.888,673.269,653.888z"/>
					</g>
				</g>
			</g>
		</g>
		<g>
			<g>
				<g>
					<polygon style="fill:#363E44;" points="1668.668,1827.583 1901.162,1821.563 1901.162,1733.897 1668.668,1775.876 					"/>
					
						<ellipse transform="matrix(0.9512 -0.3085 0.3085 0.9512 -446.0349 645.3548)" style="fill:#363E44;" cx="1817.559" cy="1733.016" rx="155.631" ry="55.016"/>
				</g>
				<path style="fill:#363E44;" d="M1894.849,1622.988H1530.48c-0.553,0-1-0.448-1-1s0.447-1,1-1h364.368c0.553,0,1,0.448,1,1
					S1895.401,1622.988,1894.849,1622.988z"/>
				<g>
					<g>
						<path style="fill:#84524D;" d="M2078.244,1588.924c-77.946,35.489-128.014,60.055-145.199,67.625
							c-1.799,0.793-4.97,2.206-9.428,2.846c-16.521,2.372-24.259-9.679-42.757-15.198c-20.988-6.263-36.314,2.223-38.557-2.952
							c-1.56-3.599,3.329-8.445,16.052-13.854c0.001,0,0-0.003-0.001-0.002c-10.133,2.986-24.051,6.429-25.667,0.764
							c-1.52-6.643,14.362-12.63,24.144-15.777c-11.841,3.809-19.265,2.253-19.387-1.133c-0.193-5.33,8.309-10.445,24.152-14.866
							c0.001,0,0.001-0.001,0-0.001c-11.782-0.037-14.636-1.821-14.022-4.841c1.121-5.514,14.213-8.9,26.241-10.1
							c13.541-1.351,24.506,2.35,31.365,4.85c0.002,0,0.004,0,0.006-0.001c52.042-30.578,86.612-50.474,128.146-76.034
							C2041.83,1505.021,2078.247,1588.923,2078.244,1588.924z"/>
						<path style="fill:#84524D;" d="M2013.899,1443.188c71.25,45.587,98.349,122.706,66.289,144.661
							c-18.166,12.44-80.114-22.158-142.629-90.681C1958.712,1472.762,1987.575,1472.045,2013.899,1443.188z"/>
					</g>
					<g>
						<path style="fill:#84524D;" d="M1674.81,1634.976c85.386,4.195,140.838,8.462,159.571,9.15
							c1.962,0.072,5.424,0.215,9.805-0.839c16.234-3.904,19.074-17.981,34.29-29.961c17.266-13.593,34.6-11.364,34.815-17.01
							c0.149-3.927-6.155-6.628-19.953-6.956c-0.001,0-0.001-0.002,0-0.002c10.511-0.969,24.71-2.913,24.163-8.784
							c-0.99-6.745-17.937-6.442-28.181-5.751c12.399-0.835,18.745-5.029,17.633-8.226c-1.75-5.031-11.514-6.647-27.858-4.901
							c-0.001,0-0.001-0.001,0-0.001c10.952-4.393,12.961-7.109,11.297-9.692c-3.039-4.717-16.449-3.025-28.077,0.307
							c-13.091,3.752-21.956,11.252-27.435,16.116c-0.001,0.001-0.004,0.002-0.005,0.001
							c-59.501-9.206-98.875-14.935-146.781-23.359C1678.294,1543.347,1674.808,1634.976,1674.81,1634.976z"/>
						<path style="fill:#84524D;" d="M1721.23,1490.464c-62.361,71.751-89.187,122.557-57.306,141.468
							c20.529,12.177,67.842-11.981,120.09-65.861C1764.3,1542.172,1745.698,1518.863,1721.23,1490.464z"/>
						<path style="fill:#363E44;" d="M1715.585,1622.829c-0.348,0-0.686-0.182-0.87-0.505c-0.273-0.48-0.105-1.09,0.374-1.364
							c20.904-11.907,44.489-31.128,68.207-55.586c0.385-0.397,1.018-0.406,1.414-0.022c0.396,0.385,0.406,1.018,0.021,1.414
							c-23.847,24.592-47.587,43.932-68.652,55.931C1715.923,1622.787,1715.753,1622.829,1715.585,1622.829z"/>
					</g>
					<path style="fill:#ff6900;" d="M2085.149,1503.364c0,0-57.788-106.98-192.384-98.836
						c-111.557,6.75-217.079,114.336-217.079,114.336l69.446,89.351l24.351-14.588l11.725,92.086l285.001-7.294l-29.106-127.534
						L2085.149,1503.364z"/>
				</g>
				<polygon style="fill:#D3BBA3;" points="1865.988,1821.563 2102.286,1821.563 2143.811,1536.186 1907.513,1536.186 				"/>
				<g>
					<path style="fill:#363E44;" d="M1840.765,1327.396c-1.316,0-2.598-0.262-3.8-0.814c-6.193-2.844-7.943-12.32-3.901-21.124l0,0
						c4.043-8.802,12.373-13.652,18.566-10.805c6.194,2.845,7.943,12.321,3.9,21.124
						C1852.271,1322.871,1846.229,1327.396,1840.765,1327.396z M1834.882,1306.293c-3.583,7.801-2.273,16.088,2.917,18.472
						c5.193,2.385,12.33-2.022,15.913-9.823c3.583-7.801,2.275-16.087-2.916-18.472
						C1845.601,1294.085,1838.464,1298.493,1834.882,1306.293L1834.882,1306.293z"/>
					<path style="fill:#84524D;" d="M1848.967,1309.513c10.762-23.489,19.106-36.232,33.905-41.653
						c19.889-7.285,39.407,5.479,41.424,6.843c1.288,0.87,20.345,12.141,21.739,34.376c1.377,21.959-8.923,43.88-27.384,55.48
						l-4.229,48.422c-1.358,15.545-15.06,27.046-30.606,25.689l-3.521-0.308c-15.546-1.358-27.047-15.06-25.689-30.606l2.825-32.346
						c-9.789-1.687-17.342-5.226-20.032-10.494C1832.58,1355.479,1836.292,1337.174,1848.967,1309.513z"/>
					<path style="fill:#363E44;" d="M1878.765,1321.914c-0.098,0-0.196-0.014-0.295-0.045l-44.728-13.806
						c-0.527-0.163-0.823-0.723-0.66-1.25c0.161-0.528,0.716-0.824,1.25-0.661l44.728,13.806c0.527,0.163,0.823,0.723,0.66,1.25
						C1879.588,1321.639,1879.192,1321.914,1878.765,1321.914z"/>
					<path style="fill:#363E44;" d="M1857.057,1375.604c-0.037,0-0.076-0.002-0.114-0.007c-0.549-0.063-0.943-0.558-0.88-1.107
						l1.349-11.815c0.062-0.549,0.566-0.944,1.106-0.88c0.549,0.063,0.943,0.558,0.88,1.107l-1.349,11.814
						C1857.991,1375.228,1857.559,1375.604,1857.057,1375.604z"/>
					<path style="fill:#363E44;" d="M1879.6,1339.995c-0.271,0-0.539-0.109-0.736-0.324c-0.374-0.407-0.347-1.039,0.061-1.413
						c2.909-2.67,4.721-4.407,6.043-5.676c0.66-0.633,1.203-1.154,1.704-1.619c0.402-0.375,1.036-0.354,1.413,0.051
						c0.376,0.404,0.353,1.037-0.052,1.413c-0.493,0.459-1.029,0.973-1.681,1.598c-1.33,1.275-3.15,3.021-6.076,5.706
						C1880.084,1339.908,1879.842,1339.995,1879.6,1339.995z"/>
					<g>
						<path style="fill:#363E44;" d="M1876.646,1265.371c17.819-14.743,58.674-1.786,72.931,20.942
							c19.28,30.735,4.658,73.477-21.676,86.173c-8.835,4.259-23.396,9.15-37.673,0.933c-8.337-4.798-5.501-17.442-4.758-20.479
							c8.238-0.771,14.675-7.301,15.261-15.14c0.591-7.896-4.907-15.069-11.832-16.872c-4.593-1.196-8.592,0.288-10.225,1.007
							C1866.989,1297.932,1863.948,1275.877,1876.646,1265.371z"/>
						<g>
							<path style="fill:#363E44;" d="M1931.359,1286.576c0,0-32.726-145.851,22.956-147.402
								C2009.997,1137.623,1965.061,1262.206,1931.359,1286.576z"/>
							<path style="fill:#363E44;" d="M1933.766,1274.837c0,0,19.69-83.552-25.863-82.7
								C1862.35,1192.99,1933.766,1274.837,1933.766,1274.837z"/>
							<path style="fill:#363E44;" d="M1930.479,1282.397c0,0,47.082-126.637,85.768-105.615
								c38.685,21.022,24.623,51.333,24.623,51.333s10.316-13.664,23.022,8.104c12.706,21.768-3.343,109.167-118.35,85.536
								L1930.479,1282.397z"/>
						</g>
					</g>
					<path style="fill:#EFBC73;" d="M1874.385,1376.25c-8.785,0-15.933-7.147-15.933-15.932s7.147-15.932,15.933-15.932
						s15.932,7.147,15.932,15.932S1883.17,1376.25,1874.385,1376.25z M1874.385,1346.386c-7.683,0-13.933,6.25-13.933,13.932
						s6.25,13.932,13.933,13.932c7.682,0,13.932-6.25,13.932-13.932S1882.066,1346.386,1874.385,1346.386z"/>
				</g>
			</g>
			<g>
				<g>
					<polygon style="fill:#FFFFFF;" points="1420.594,2154.342 1720.488,2154.342 1720.488,2041.262 1420.594,2095.41 					"/>
					
						<ellipse transform="matrix(0.9512 -0.3085 0.3085 0.9512 -550.7896 597.1143)" style="fill:#FFFFFF;" cx="1612.649" cy="2040.124" rx="200.75" ry="70.965"/>
				</g>
				<path style="fill:#363E44;" d="M1712.345,1883.671h-470.001c-0.553,0-1-0.448-1-1s0.447-1,1-1h470.001c0.553,0,1,0.448,1,1
					S1712.897,1883.671,1712.345,1883.671z"/>
				<g>
					<path style="fill:#E2A18D;" d="M1593.031,1526.519c4.385-35.829,10.066-56.322,27.307-69.783
						c23.17-18.09,54.214-9.316,57.441-8.35c2.06,0.616,31.874,7.595,42.985,36.628c10.973,28.672-2.116,63.939-21.604,87.176
						l13.185,69.78c4.694,21.281,1.53,37.166-19.521,41.911l-4.768,1.075c-21.052,4.746-41.922-8.659-46.617-29.94l-9.768-44.281
						c-13.604,1.881-25.032,0.35-30.774-5.533C1590.609,1594.663,1587.866,1568.712,1593.031,1526.519z"/>
					<path style="fill:#363E44;" d="M1630.837,1610.821c-0.47,0-0.889-0.332-0.98-0.811l-3.15-16.307
						c-0.105-0.542,0.25-1.067,0.792-1.171c0.535-0.106,1.067,0.25,1.171,0.792l3.15,16.307c0.105,0.542-0.25,1.067-0.792,1.171
						C1630.964,1610.815,1630.899,1610.821,1630.837,1610.821z"/>
					<path style="fill:#363E44;" d="M1642.006,1557.42c-0.167,0-0.337-0.042-0.493-0.131c-0.48-0.273-0.648-0.884-0.375-1.364
						c1.367-2.406,2.563-4.599,3.828-6.921c1.041-1.91,2.114-3.879,3.338-6.066c0.27-0.482,0.879-0.655,1.361-0.384
						c0.482,0.27,0.654,0.879,0.385,1.361c-1.221,2.18-2.29,4.142-3.328,6.046c-1.27,2.33-2.469,4.531-3.846,6.952
						C1642.692,1557.238,1642.354,1557.42,1642.006,1557.42z"/>
					<path style="fill:#D87355;" d="M1764.94,1490.319c0-18.098-14.513-32.769-32.417-32.769c-0.027,0-0.055,0.002-0.084,0.002
						c1.63-3.584,2.564-7.558,2.564-11.761c0-15.586-12.498-28.221-27.916-28.221c-3.222,0-6.302,0.579-9.18,1.594
						c-0.833-14.83-12.959-26.606-27.837-26.606c-8.407,0-15.928,3.774-21.046,9.718c-5.778-9.101-15.87-15.137-27.362-15.137
						c-17.382,0-31.577,13.795-32.455,31.147c-0.829-0.075-1.663-0.128-2.512-0.128c-15.418,0-27.916,12.635-27.916,28.221
						c0,15.586,12.498,28.221,27.916,28.221c0.445,0,0.879-0.046,1.318-0.067c2.122,27.485,30.948,30.553,32.661,30.97
						c-1.788,3.571-3.844,10.836,1.314,17.684c3.248,4.312,12.168,6.323,19.459,4.966c11.484-2.137,22.302,8.413,23.447,19.789
						c1.045,10.384-2.565,21.288-12.328,27.176c11.643,0.182,23.833,0.03,36.524-0.554c6.62-0.304,8.414-1.877,14.721-2.374
						c3.819-2.57,33.023-18.522,37.707-50.389C1755.043,1517.857,1764.94,1505.26,1764.94,1490.319z"/>
				</g>
				<g>
					<g>
						<path style="fill:#E2A18D;" d="M1948.908,1854.26c-100.543,45.777-165.126,77.466-187.293,87.229
							c-2.321,1.023-6.41,2.846-12.162,3.671c-21.311,3.059-31.292-12.485-55.152-19.605c-27.073-8.079-46.842,2.867-49.735-3.807
							c-2.013-4.643,4.294-10.894,20.705-17.871c0.001-0.001,0.001-0.003-0.001-0.003c-13.071,3.852-31.024,8.293-33.108,0.985
							c-1.961-8.569,18.525-16.291,31.144-20.35c-15.274,4.913-24.85,2.906-25.008-1.461c-0.248-6.875,10.718-13.474,31.154-19.175
							c0.001,0,0.001-0.001,0-0.001c-15.198-0.048-18.879-2.349-18.087-6.244c1.445-7.112,18.334-11.48,33.849-13.028
							c17.466-1.743,31.611,3.031,40.458,6.256c0.002,0.001,0.005,0.001,0.007-0.001c67.13-39.442,111.722-65.106,165.297-98.077
							C1901.937,1746.033,1948.911,1854.259,1948.908,1854.26z"/>
						<path style="fill:#E2A18D;" d="M1865.909,1666.275c91.906,58.803,126.861,158.28,85.506,186.599
							c-23.432,16.047-103.339-28.582-183.978-116.97C1794.723,1704.422,1831.953,1703.497,1865.909,1666.275z"/>
					</g>
					<g>
						<path style="fill:#E2A18D;" d="M1428.516,1913.662c110.14,5.411,181.668,10.916,205.832,11.803
							c2.53,0.093,6.996,0.277,12.647-1.082c20.94-5.036,24.603-23.194,44.231-38.646c22.271-17.533,44.631-14.659,44.908-21.941
							c0.193-5.065-7.94-8.55-25.738-8.973c-0.001,0-0.002-0.003,0-0.003c13.559-1.25,31.874-3.758,31.169-11.331
							c-1.277-8.7-23.137-8.309-36.35-7.419c15.993-1.077,24.178-6.487,22.745-10.61c-2.257-6.49-14.852-8.574-35.934-6.321
							c-0.001,0-0.001-0.001,0-0.001c14.127-5.666,16.719-9.169,14.572-12.502c-3.92-6.084-21.218-3.902-36.217,0.397
							c-16.886,4.839-28.321,14.514-35.388,20.788c-0.002,0.001-0.005,0.002-0.007,0.002
							c-76.751-11.875-127.54-19.264-189.333-30.131C1433.009,1795.469,1428.513,1913.663,1428.516,1913.662z"/>
						<path style="fill:#E2A18D;" d="M1488.393,1727.256c-80.439,92.552-115.043,158.087-73.92,182.48
							c26.48,15.708,87.509-15.454,154.905-84.955C1543.949,1793.955,1519.954,1763.888,1488.393,1727.256z"/>
						<path style="fill:#363E44;" d="M1481.111,1897.705c-0.348,0-0.686-0.182-0.87-0.505c-0.273-0.48-0.105-1.091,0.374-1.364
							c26.987-15.371,57.433-40.182,88.045-71.75c0.386-0.397,1.019-0.406,1.414-0.022c0.396,0.385,0.406,1.018,0.021,1.414
							c-30.741,31.702-61.341,56.632-88.49,72.096C1481.449,1897.663,1481.279,1897.705,1481.111,1897.705z"/>
					</g>
					<path style="fill:#363E44;" d="M1957.815,1743.895c0,0-74.542-137.994-248.157-127.489
						c-143.897,8.707-280.011,147.482-280.011,147.482l89.579,115.254l31.411-18.817l15.124,118.783l367.624-9.409l-37.544-164.507
						L1957.815,1743.895z"/>
				</g>
				<polygon style="fill:#E6D0BE;" points="1675.117,2154.342 1979.919,2154.342 2033.482,1786.233 1728.68,1786.233 				"/>
			</g>
			<g>
				<g>
					<polygon style="fill:#EFBC73;" points="1191.332,2151.032 883.707,2151.032 883.707,2035.037 1191.332,2090.582 					"/>
					
						<ellipse transform="matrix(0.3085 -0.9512 0.9512 0.3085 -1247.1062 2352.1416)" style="fill:#EFBC73;" cx="994.326" cy="2033.871" rx="72.794" ry="205.925"/>
				</g>
				<path style="fill:#363E44;" d="M1177.284,1883.815c-0.552,0-0.999-0.447-1-0.999c-0.001-0.552,0.446-1.001,0.998-1.001
					l115.205-0.173c0.001,0,0.002,0,0.002,0c0.552,0,0.999,0.447,1,0.999c0.001,0.552-0.446,1.001-0.998,1.001l-115.205,0.173
					C1177.285,1883.815,1177.284,1883.815,1177.284,1883.815z"/>
				<g>
					<path style="fill:#363E44;" d="M966.85,1479.868c-8.54,0-18.021-7.142-23.155-18.321c-6.355-13.84-3.678-28.704,5.97-33.135
						c9.637-4.431,22.667,3.222,29.024,17.063l0,0c3.051,6.643,4.143,13.719,3.075,19.924c-1.093,6.343-4.304,11.035-9.044,13.212
						C970.864,1479.462,968.884,1479.868,966.85,1479.868z M955.598,1429.139c-1.771,0-3.49,0.352-5.1,1.091
						c-8.644,3.971-10.882,17.645-4.985,30.483c5.896,12.838,17.732,20.051,26.373,16.08c4.122-1.893,6.93-6.06,7.906-11.733
						c1.001-5.811-0.037-12.47-2.922-18.75l0,0C972.071,1435.862,963.342,1429.139,955.598,1429.139z"/>
					<path style="fill:#E2A18D;" d="M953.688,1451.736c-17.292-37.74-30.698-58.214-54.476-66.924
						c-31.955-11.705-63.315,8.804-66.557,10.994c-2.069,1.398-32.689,19.507-34.929,55.232
						c-2.212,35.281,14.337,70.502,43.998,89.14l6.795,77.8c2.182,24.977,24.197,43.456,49.174,41.274l5.657-0.494
						c24.977-2.182,43.456-24.198,41.275-49.174l-4.539-51.971c15.728-2.71,27.863-8.396,32.186-16.86
						C980.017,1525.591,974.053,1496.179,953.688,1451.736z"/>
					<path style="fill:#363E44;" d="M905.813,1471.055c-0.428,0-0.823-0.276-0.955-0.705c-0.163-0.528,0.133-1.088,0.66-1.25
						l71.863-22.182c0.532-0.163,1.088,0.133,1.25,0.661c0.163,0.528-0.133,1.088-0.66,1.25l-71.863,22.182
						C906.01,1471.04,905.911,1471.055,905.813,1471.055z"/>
					<path style="fill:#363E44;" d="M940.692,1557.319c-0.502,0-0.935-0.376-0.992-0.887l-2.168-18.982
						c-0.063-0.549,0.331-1.044,0.88-1.107c0.554-0.065,1.044,0.332,1.107,0.88l2.168,18.982c0.063,0.549-0.331,1.044-0.88,1.107
						C940.769,1557.317,940.729,1557.319,940.692,1557.319z"/>
					<path style="fill:#363E44;" d="M904.471,1500.105c-0.242,0-0.484-0.087-0.676-0.263c-4.711-4.324-7.638-7.13-9.773-9.179
						c-1.04-0.997-1.896-1.819-2.686-2.554c-0.404-0.376-0.427-1.009-0.051-1.413c0.378-0.405,1.01-0.427,1.414-0.051
						c0.796,0.741,1.659,1.569,2.707,2.574c2.13,2.042,5.047,4.84,9.741,9.149c0.407,0.373,0.435,1.006,0.06,1.413
						C905.01,1499.996,904.741,1500.105,904.471,1500.105z"/>
					<path style="fill:#363E44;" d="M909.216,1380.814c-28.631-23.688-94.272-2.87-117.179,33.647
						c-30.977,49.382-7.484,118.056,34.827,138.454c14.194,6.843,37.59,14.701,60.529,1.5c13.395-7.708,8.839-28.023,7.645-32.903
						c-13.237-1.239-23.578-11.731-24.52-24.325c-0.949-12.686,7.884-24.211,19.01-27.109c7.38-1.922,13.805,0.462,16.429,1.618
						C924.732,1433.129,929.618,1397.693,909.216,1380.814z"/>
				</g>
				<g>
					<g>
						<path style="fill:#E2A18D;" d="M649.399,1843.215c103.135,46.957,169.382,79.463,192.121,89.478
							c2.381,1.049,6.576,2.919,12.475,3.766c21.86,3.138,32.099-12.807,56.574-20.11c27.771-8.287,48.049,2.941,51.018-3.906
							c2.065-4.762-4.405-11.175-21.239-18.332c-0.001-0.001-0.001-0.003,0.001-0.003c13.408,3.951,31.823,8.507,33.962,1.01
							c2.011-8.79-19.003-16.711-31.947-20.875c15.668,5.04,25.49,2.981,25.652-1.499c0.255-7.052-10.995-13.821-31.957-19.67
							c-0.001,0-0.001-0.001,0-0.001c15.59-0.049,19.365-2.41,18.553-6.405c-1.483-7.295-18.806-11.776-34.721-13.364
							c-17.917-1.788-32.426,3.109-41.501,6.417c-0.002,0.001-0.005,0.001-0.008-0.001
							c-68.86-40.459-114.602-66.785-169.558-100.605C697.58,1732.198,649.395,1843.214,649.399,1843.215z"/>
						<path style="fill:#E2A18D;" d="M734.537,1650.384c-94.275,60.319-130.131,162.36-87.71,191.41
							c24.036,16.46,106.003-29.319,188.721-119.985C807.558,1689.515,769.369,1688.566,734.537,1650.384z"/>
					</g>
					<g>
						<path style="fill:#E2A18D;" d="M1183.205,1904.149c-112.979,5.55-186.351,11.197-211.138,12.107
							c-2.596,0.095-7.176,0.285-12.973-1.11c-21.48-5.166-25.237-23.792-45.371-39.643c-22.845-17.985-45.781-15.037-46.066-22.506
							c-0.198-5.196,8.144-8.77,26.401-9.204c0.002,0,0.002-0.003,0-0.003c-13.908-1.283-32.696-3.854-31.972-11.623
							c1.31-8.924,23.734-8.523,37.287-7.61c-16.405-1.105-24.802-6.654-23.331-10.884c2.315-6.657,15.235-8.795,36.86-6.484
							c0.001,0,0.001-0.001,0-0.001c-14.491-5.813-17.15-9.406-14.948-12.824c4.021-6.241,21.764-4.003,37.151,0.407
							c17.321,4.964,29.051,14.888,36.3,21.324c0.002,0.001,0.005,0.003,0.007,0.002c78.729-12.181,130.827-19.761,194.214-30.907
							C1178.596,1782.909,1183.209,1904.149,1183.205,1904.149z"/>
						<path style="fill:#E2A18D;" d="M1121.785,1712.937c82.513,94.937,118.009,162.162,75.825,187.184
							c-27.163,16.113-89.765-15.852-158.898-87.145C1064.797,1781.355,1089.41,1750.513,1121.785,1712.937z"/>
						<path style="fill:#363E44;" d="M1129.254,1887.754c-0.168,0-0.338-0.042-0.494-0.131
							c-27.848-15.861-59.233-41.433-90.766-73.95c-0.385-0.396-0.375-1.03,0.021-1.414c0.396-0.384,1.028-0.375,1.414,0.022
							c31.402,32.383,62.635,57.835,90.32,73.604c0.479,0.273,0.647,0.884,0.374,1.364
							C1129.939,1887.573,1129.602,1887.754,1129.254,1887.754z"/>
					</g>
					<path style="fill:#84524D;" d="M640.262,1730.005c0,0,76.463-141.551,254.554-130.776
						c147.607,8.931,287.23,151.284,287.23,151.284l-91.889,118.226l-32.221-19.302l-15.514,121.845l-377.101-9.651l38.512-168.747
						L640.262,1730.005z"/>
				</g>
				<polygon style="fill:#E6D0BE;" points="930.248,2151.032 617.588,2151.032 562.644,1773.435 875.304,1773.435 				"/>
			</g>
		</g>
		<g>
			<path style="fill:#E6D0BE;" d="M2026.82,1080.39h-246.48c-0.553,0-1-0.448-1-1V925.749c0-0.552,0.447-1,1-1s1,0.448,1,1v152.641
				h245.48c0.553,0,1,0.448,1,1S2027.373,1080.39,2026.82,1080.39z"/>
			<g>
				<path style="fill:#E6D0BE;" d="M1951.201,961.217c-0.339,0-0.669-0.172-0.856-0.483c-0.286-0.473-0.135-1.087,0.338-1.373
					l31.629-19.111c0.475-0.286,1.088-0.134,1.373,0.339c0.286,0.473,0.135,1.087-0.338,1.373l-31.629,19.111
					C1951.556,961.171,1951.377,961.217,1951.201,961.217z"/>
				<path style="fill:#E6D0BE;" d="M1931.174,956.108c-0.327,0-0.647-0.16-0.84-0.455l-42.854-65.957
					c-0.301-0.463-0.169-1.082,0.294-1.383c0.462-0.301,1.081-0.169,1.384,0.294l42.854,65.957c0.301,0.463,0.169,1.082-0.294,1.383
					C1931.55,956.055,1931.36,956.108,1931.174,956.108z"/>
				<path style="fill:#E6D0BE;" d="M1836.362,913.295c-0.298,0-0.592-0.132-0.789-0.385c-0.34-0.435-0.263-1.064,0.173-1.404
					l33.293-26.002c0.436-0.341,1.063-0.262,1.403,0.173c0.34,0.435,0.263,1.064-0.173,1.404l-33.293,26.002
					C1836.794,913.226,1836.577,913.295,1836.362,913.295z"/>
				<ellipse style="fill:#E6D0BE;" cx="1825.565" cy="920.983" rx="13.728" ry="13.879"/>
				<ellipse style="fill:#E6D0BE;" cx="1880.913" cy="877.804" rx="13.728" ry="13.879"/>
				<ellipse style="fill:#E6D0BE;" cx="1939.108" cy="966.856" rx="13.728" ry="13.879"/>
				<ellipse style="fill:#E6D0BE;" cx="1994.896" cy="934.486" rx="13.728" ry="13.879"/>
			</g>
			<g>
				<rect x="1809.342" y="956.911" style="fill:#F2E6DC;" width="34.141" height="94.643"/>
				<rect x="1865.685" y="938.056" style="fill:#F2E6DC;" width="34.141" height="113.497"/>
				<rect x="1922.027" y="990.393" style="fill:#F2E6DC;" width="34.141" height="61.161"/>
				<rect x="1978.369" y="972.83" style="fill:#F2E6DC;" width="34.141" height="78.724"/>
			</g>
		</g>
	</g>
</g>
</svg>
