<?xml version="1.0" encoding="utf-8"?>
<!-- Generator: Adobe Illustrator 27.5.0, SVG Export Plug-In . SVG Version: 6.00 Build 0)  -->
<svg version="1.1" xmlns="http://www.w3.org/2000/svg" xmlns:xlink="http://www.w3.org/1999/xlink" x="0px" y="0px"
	 viewBox="0 0 2500 2500" style="enable-background:new 0 0 2500 2500;" xml:space="preserve">
-
<g id="Illustration">
	<g id="Vlog_1_">
		<circle style="fill:transparent;" cx="1250" cy="1250" r="915"/>
		<g>
			<g>
				<path style="fill:#363E44;" d="M2042.989,1728.875h-691.11c-29.713,0-53.886-24.173-53.886-53.886V438.689
					c0-29.712,24.173-53.885,53.886-53.885h691.11c29.713,0,53.887,24.173,53.887,53.885v1236.301
					C2096.876,1704.702,2072.702,1728.875,2042.989,1728.875z M1351.879,386.804c-28.609,0-51.886,23.275-51.886,51.885v1236.301
					c0,28.61,23.276,51.886,51.886,51.886h691.11c28.61,0,51.887-23.275,51.887-51.886V438.689
					c0-28.609-23.276-51.885-51.887-51.885H1351.879z"/>
				<path style="fill:#D3BBA3;" d="M1842.83,431.133v20.081c0,10.508-8.524,19.026-19.039,19.026h-252.714
					c-10.515,0-19.038-8.518-19.038-19.026v-20.081h-215.692V1666.55h722.175V431.133H1842.83z"/>
			</g>
			<g>
				<path style="fill:#ff6900;" d="M2055.51,1662.586v-202.631l-134.292-290.706l-410.768,128.627
					c1.429,6.188-9.563,364.71-9.563,364.71H2055.51z"/>
				<g>
					<g>
						<polygon style="fill:#84524D;" points="1075.055,1045.85 1206.343,870.37 1350.572,1039.67 1204.272,1194.411 						"/>
						<g>
							<g>
								<path style="fill:#84524D;" d="M1158.618,1235.408c52.218-25.373,76.107-86.711,55.474-140.976
									c-26.787-70.451-66.532-174.453-88.154-228.514c-36.352-90.886-103.255-219.779-121.165-210.189
									c-10.201,5.463-4.712,24.929,13.42,75.981c-3.498-1.664-15.339-4.085-23.971,2.534c-12.772,9.794-7.692,22.288-7.767,23.596
									c-1.14-0.66-14.532-7.488-24.193-2.379c-10.881,5.754-13.666,15.825-12.892,25.456c-2.881-1.551-16.181-6.105-25.21-0.732
									c-11.739,6.985-11.669,22.106-7.327,32.515c7.966,19.093,31.034,70.726,39.747,99.59
									c7.5,24.848,36.802,248.314,98.217,310.146C1087.689,1255.549,1125.588,1251.457,1158.618,1235.408z"/>
								<path style="fill:#363E44;" d="M1026.113,903.907c-0.532,0-0.975-0.419-0.998-0.956
									c-0.951-21.76,6.296-37.724,12.118-50.551c5.815-12.81,9.657-21.271,2.496-28.521c-6.135-6.21-10.239-16.198-12.197-29.688
									c-0.607-4.173,1.324-8.026,5.039-10.057c3.698-2.022,8.137-1.55,11.31,1.205l48.062,41.703
									c0.417,0.361,0.462,0.993,0.1,1.41c-0.361,0.417-0.992,0.463-1.41,0.1l-48.062-41.703c-3.077-2.668-6.686-2.246-9.039-0.96
									c-2.322,1.269-4.598,4.041-4.021,8.015c1.896,13.058,5.813,22.67,11.641,28.568c8.129,8.229,3.84,17.677-2.097,30.754
									c-5.734,12.633-12.872,28.356-11.941,49.636c0.024,0.552-0.403,1.018-0.955,1.043
									C1026.144,903.907,1026.128,903.907,1026.113,903.907z"/>
								<path style="fill:#363E44;" d="M941.819,841.735c-0.392,0-0.765-0.232-0.924-0.617c-0.211-0.511,0.031-1.096,0.541-1.307
									c14.879-6.16,22.537-22.947,17.435-38.219l-4.025-12.051c-0.162-0.484,0.067-1.014,0.533-1.226
									c0.466-0.213,1.016-0.039,1.275,0.399l12.717,21.488c4.759,8.042,14.576,11.535,23.342,8.3
									c4.935-1.82,8.834-5.469,10.977-10.273c2.142-4.805,2.251-10.144,0.307-15.031l-12.291-30.885
									c-0.197-0.494,0.027-1.056,0.51-1.278c0.484-0.224,1.057-0.027,1.304,0.441l7.493,14.213
									c3.848,7.298,12.978,10.221,20.346,6.52c6.947-3.49,10.158-11.621,7.469-18.915l-8.063-21.862
									c-0.19-0.518,0.074-1.093,0.593-1.284c0.517-0.191,1.093,0.074,1.284,0.593l8.063,21.862
									c3.041,8.249-0.591,17.446-8.447,21.394c-7.793,3.914-17.318,1.281-22.085-5.817l5.683,14.279
									c2.146,5.393,2.026,11.284-0.337,16.586c-2.364,5.302-6.665,9.327-12.112,11.336c-9.671,3.565-20.505-0.285-25.754-9.157
									l-7.93-13.399l1.047,3.135c5.434,16.263-2.721,34.141-18.565,40.7C942.077,841.711,941.947,841.735,941.819,841.735z"/>
								<path style="fill:#363E44;" d="M1198.812,1055.304c-0.402,0-0.782-0.245-0.935-0.644
									c-16.838-44.149-31.674-82.813-44.097-114.92c-0.199-0.516,0.057-1.095,0.571-1.294c0.516-0.199,1.095,0.057,1.294,0.571
									c12.424,32.11,27.262,70.777,44.101,114.93c0.196,0.517-0.063,1.094-0.578,1.291
									C1199.051,1055.283,1198.93,1055.304,1198.812,1055.304z"/>
							</g>
						</g>
					</g>
					<g>
						<path style="fill:#FFFFFF;" d="M1859.374,951.321c-16.134-52.635-89.459-87.721-143.431-98.588l-262.637-52.874
							c-74.005-14.9-199.74-7.362-267.245,69.81l130.507,216.504l15.588-13.402l97.499,271.717l528.65-157.608l-66.887-86.571
							l33.328-24.262L1859.374,951.321z"/>
						<path style="fill:#D3BBA3;" d="M1431.523,1089.113c-7.706,0-15.463-1.335-22.912-4.1c-26.912-9.985-44.3-35.954-43.269-64.62
							c0.021-0.552,0.502-1.017,1.035-0.963c0.552,0.019,0.983,0.483,0.963,1.035c-1,27.802,15.865,52.988,41.966,62.673
							c24.877,9.231,53.338,2.033,70.828-17.906c0.366-0.416,0.998-0.456,1.411-0.093c0.415,0.364,0.457,0.996,0.093,1.411
							C1468.843,1081.139,1450.348,1089.113,1431.523,1089.113z"/>
						<path style="fill:#D3BBA3;" d="M1582.964,1092.095c-0.058,0-0.116-0.005-0.176-0.016
							c-20.053-3.561-37.683-16.443-47.159-34.463c-0.258-0.489-0.069-1.094,0.419-1.351c0.489-0.257,1.095-0.069,1.351,0.419
							c9.191,17.477,26.29,29.973,45.739,33.426c0.544,0.097,0.906,0.615,0.81,1.159
							C1583.861,1091.754,1583.439,1092.095,1582.964,1092.095z"/>
					</g>
					<g>
						<path style="fill:#84524D;" d="M1674.363,1186.46c-7.623,6.261,31.935,335.746,33.762,444.074
							c0.302,17.936,14.655,32.463,32.586,32.987l0,0c19.817,0.579,38.405,10.469,49.269,27.053
							c7.224,11.026,18.401,21.978,35.021,24.698c36.098,5.908,0-52.045,0-52.045h54.801c17.834,0.209,34.716,8.097,46.276,21.68
							c11.687,13.731,26.209,28.266,32.227,23.91c10.803-7.819-5.945-70.902-26.528-85.445c-6.443-4.552-14.065-7.914-21.497-10.385
							c-18.865-6.272-31.715-23.736-31.715-43.616v-462.636C1878.565,1106.734,1748.764,1125.354,1674.363,1186.46z"/>
						<path style="fill:#363E44;" d="M1825.001,1653.173c-0.233,0-0.468-0.081-0.658-0.247l-37.106-32.402
							c-0.416-0.363-0.458-0.995-0.095-1.411c0.363-0.414,0.994-0.458,1.411-0.095l37.106,32.402
							c0.416,0.363,0.458,0.995,0.095,1.411C1825.557,1653.057,1825.279,1653.173,1825.001,1653.173z"/>
					</g>
				</g>
				<g>
					<g>
						<path style="fill:#363E44;" d="M1660.963,627.604c-19.188,0.001-39.82-6.571-52.241-22.94
							c-0.334-0.44-0.248-1.067,0.192-1.401c0.439-0.335,1.067-0.246,1.401,0.192c15.66,20.641,44.96,25.152,67.043,20.464
							c25.165-5.34,47.013-20.647,65.516-34.575c2.5-1.882,4.994-3.78,7.491-5.681c17.31-13.176,35.208-26.799,55.625-35.116
							c26.533-10.809,53.89-9.943,73.175,2.315c0.467,0.296,0.604,0.914,0.308,1.38c-0.297,0.467-0.914,0.603-1.38,0.308
							c-18.742-11.911-45.413-12.715-71.349-2.15c-20.17,8.218-37.962,21.76-55.168,34.855c-2.5,1.903-4.997,3.804-7.499,5.688
							c-18.674,14.058-40.738,29.51-66.303,34.935C1672.486,626.997,1666.789,627.604,1660.963,627.604z"/>
						<path style="fill:#363E44;" d="M1788.817,841.94c-0.191,0-0.384-0.055-0.555-0.169c-12.52-8.367-23.757-18.742-34.624-28.775
							c-5.239-4.838-10.658-9.84-16.146-14.548c-21.058-18.066-39.408-27.687-57.751-30.275c-18.964-2.677-38.189,2.29-56.786,7.094
							c-2.419,0.625-4.834,1.249-7.242,1.854c-21.605,5.436-44.43,9.311-64.966,0.938c-0.511-0.208-0.757-0.792-0.548-1.304
							c0.208-0.512,0.791-0.758,1.304-0.548c20.001,8.155,42.445,4.326,63.722-1.025c2.404-0.606,4.814-1.228,7.23-1.852
							c18.785-4.852,38.213-9.869,57.565-7.138c18.737,2.644,37.414,12.412,58.774,30.738c5.515,4.731,10.946,9.746,16.2,14.597
							c10.811,9.98,21.989,20.302,34.378,28.582c0.459,0.307,0.583,0.928,0.275,1.387
							C1789.457,841.783,1789.141,841.94,1788.817,841.94z"/>
						<path style="fill:#363E44;" d="M1762.093,756.768c0,0,36.887,0.306,69.053,29.691
							c34.884-61.682,69.335-123.609,103.293-185.804c-28.408-33.007-76.979-47.045-118.615-34.283
							c-20.251,6.206-38.28,17.938-56.044,29.473c-17.764,11.532-35.881,23.162-56.204,29.129
							c-20.323,5.966-43.519,5.583-61.305-5.917c-12.059-7.795-20.731-20.001-32.706-27.926
							c-11.416-7.559-25.214-10.783-38.86-11.883c-15.324-1.238-31.883,0.432-43.853,10.08
							c-14.171,11.419-18.483,31.024-19.956,49.165c-1.718,21.193,1.255,42.19-0.016,63.285
							c-1.086,18.043,4.31,35.447,16.014,49.489c11.875,14.243,29.442,23.598,47.887,25.504
							c33.773,3.488,65.776-16.862,99.709-17.973c22.264-0.731,44.222,7,63.113,18.806c18.889,11.806,35.002,27.543,50.009,44.004
							c4.616,5.063,10.524,10.702,17.231,9.303c5.39-1.121,8.733-6.374,11.455-11.159c3.358-5.903,6.685-11.82,10.034-17.723
							C1804.004,782.058,1779.3,758.8,1762.093,756.768z"/>
					</g>
					<path style="fill:#363E44;" d="M1596.732,602.052c-5.217,0-10.117-1.26-14.463-3.783l0,0
						c-18.206-10.572-20.722-40.348-5.609-66.374c7.288-12.552,17.546-22.39,28.884-27.7c11.46-5.368,22.663-5.485,31.542-0.33
						c8.88,5.156,14.331,14.943,15.349,27.558c1.007,12.48-2.452,26.265-9.74,38.815c-7.288,12.552-17.546,22.39-28.883,27.701
						C1607.96,600.68,1602.175,602.052,1596.732,602.052z M1583.273,596.538c8.295,4.816,18.838,4.673,29.689-0.411
						c10.972-5.14,20.916-14.692,28.001-26.894c7.086-12.202,10.452-25.573,9.478-37.65c-0.964-11.942-6.063-21.172-14.359-25.988
						c-8.295-4.819-18.839-4.671-29.69,0.41c-10.972,5.141-20.916,14.691-28.001,26.893
						C1563.831,557.972,1566.021,586.521,1583.273,596.538L1583.273,596.538z"/>
					<path style="fill:#363E44;" d="M1562.495,598.821c21.146,12.279,55.205-6.9,72.1-35.997
						c16.896-29.097,10.229-57.093-10.917-69.371c-21.146-12.279-48.765-4.191-65.66,24.906
						C1541.122,547.455,1541.348,586.542,1562.495,598.821z"/>
					
						<ellipse transform="matrix(0.7071 -0.7071 0.7071 0.7071 -17.2109 1271.6096)" style="fill:#363E44;" cx="1526.363" cy="656.58" rx="100.188" ry="100.188"/>
					<path style="fill:#84524D;" d="M1444.45,779.312c22.137,15.722,84.672-26.962,84.672-26.962l35.78-74.84
						c0-38.197-30.965-69.162-69.162-69.162h0c-38.197,0-69.162,30.965-69.162,69.162
						C1426.577,677.511,1421.903,763.299,1444.45,779.312z"/>
					<path style="fill:#84524D;" d="M1587.598,838.534c-27.745,24.635-55.283,36.411-82.414,22.697l-46.428-168.577l84.061,16.6
						L1587.598,838.534z"/>
					<path style="fill:#84524D;" d="M1434.525,695.697c0,0-19.399,20.325-18.367,25.691c1.232,6.405,22.841,10.312,22.841,10.312
						S1434.009,695.746,1434.525,695.697z"/>
					<path style="fill:#363E44;" d="M1465.687,784.177c-0.476,0-0.897-0.34-0.983-0.825c-0.097-0.543,0.266-1.063,0.81-1.159
						c26.564-4.729,62.684-29.228,63.046-29.476c0.455-0.309,1.078-0.193,1.39,0.263c0.312,0.456,0.193,1.078-0.263,1.39
						c-0.365,0.249-36.841,24.989-63.823,29.792C1465.804,784.172,1465.744,784.177,1465.687,784.177z"/>
					<g>
						<path style="fill:#FFFFFF;" d="M1503.805,687.913c0,0-12.69-6.825-27.987-6.824c-3.254,0,2.885,26.044,5.975,24.57
							C1495.377,699.174,1503.805,687.913,1503.805,687.913z"/>
						<g>
							<defs>
								<path id="SVGID_1_" d="M1503.805,687.913c0,0-18.664-10.038-38.008-5.766c-19.344,4.273-32.043,21.24-32.043,21.24
									s18.664,10.038,38.008,5.765C1491.106,704.88,1503.805,687.913,1503.805,687.913z"/>
							</defs>
							<clipPath id="SVGID_00000002342077612308553450000003344495091071016095_">
								<use xlink:href="#SVGID_1_"  style="overflow:visible;"/>
							</clipPath>
							
								<circle style="clip-path:url(#SVGID_00000002342077612308553450000003344495091071016095_);fill:#363E44;" cx="1456.851" cy="698.739" r="25.908"/>
						</g>
					</g>
					<path style="fill:#363E44;" d="M1459.065,744.736c-2.2,0-4.404-0.619-6.333-1.859c-0.464-0.298-0.599-0.917-0.3-1.382
						c0.298-0.465,0.916-0.601,1.382-0.3c3.199,2.055,7.311,2.055,10.475,0.002c3.049-1.979,4.741-5.607,4.31-9.242
						c-0.064-0.549,0.327-1.046,0.875-1.111c0.549-0.065,1.046,0.327,1.111,0.875c0.52,4.387-1.524,8.766-5.208,11.156
						C1463.465,744.115,1461.268,744.736,1459.065,744.736z"/>
					<path style="fill:#363E44;" d="M1581.734,695.697c0,0-22.053-8.851-44.817,14.515l-14.756-8.08c0,0,8.547-94.113-94.603-57.121
						c0,0,35.376-79.03,104.379-50.008C1600.941,624.025,1581.734,695.697,1581.734,695.697z"/>
					<g>
						<path style="fill:#84524D;" d="M1582.606,712.233c-4.035,13.514-16.832,21.624-28.583,18.116
							c-11.751-3.509-18.006-17.308-13.971-30.822c4.035-13.513,16.832-21.624,28.582-18.116
							C1580.385,684.919,1586.641,698.719,1582.606,712.233z"/>
						<path style="fill:#363E44;" d="M1549.219,702.828c-0.095,0-0.19-0.014-0.286-0.042c-0.529-0.158-0.83-0.715-0.672-1.244
							c2.46-8.245,10.349-13.195,17.593-11.034c4.383,1.309,7.721,5.001,8.927,9.876c0.133,0.536-0.194,1.078-0.73,1.211
							c-0.539,0.126-1.079-0.195-1.211-0.73c-1.035-4.181-3.86-7.336-7.558-8.44c-6.183-1.848-12.958,2.502-15.104,9.69
							C1550.048,702.548,1549.649,702.828,1549.219,702.828z"/>
					</g>
					<path style="fill:#EFBC73;" d="M1560.346,765.354c-11.92,0-21.618-9.697-21.618-21.617c0-11.92,9.698-21.617,21.618-21.617
						c11.919,0,21.616,9.697,21.616,21.617C1581.962,755.656,1572.265,765.354,1560.346,765.354z M1560.346,724.119
						c-10.817,0-19.618,8.8-19.618,19.617c0,10.817,8.801,19.617,19.618,19.617c10.816,0,19.616-8.8,19.616-19.617
						C1579.962,732.919,1571.162,724.119,1560.346,724.119z"/>
				</g>
			</g>
			<g>
				<path style="fill:#363E44;" d="M1687.096,1129.23c-59.993,0-108.801-48.808-108.801-108.801s48.808-108.801,108.801-108.801
					s108.801,48.808,108.801,108.801S1747.089,1129.23,1687.096,1129.23z M1687.096,913.629
					c-58.891,0-106.801,47.91-106.801,106.801c0,58.891,47.91,106.801,106.801,106.801s106.801-47.91,106.801-106.801
					C1793.896,961.539,1745.986,913.629,1687.096,913.629z"/>
				<path style="fill:#363E44;" d="M1645.668,1085.306V955.554l99.54,64.876L1645.668,1085.306z M1647.668,959.245v122.369
					l93.878-61.185L1647.668,959.245z"/>
			</g>
		</g>
		<g>
			<polygon style="fill:#D87355;" points="798.347,1054.928 735.392,995.774 344.896,995.774 344.896,833.891 798.347,833.891 			
				"/>
			<path style="fill:#FFFFFF;" d="M466.801,908.718c0-16.728-18.835-30.289-42.069-30.289c-23.233,0-42.068,13.56-42.068,30.289
				c0,16.728,18.835,30.289,42.068,30.289c4.928,0,9.654-0.615,14.048-1.736l16.829,17.39L457.177,928
				C463.188,922.761,466.801,916.044,466.801,908.718z"/>
			<polygon style="fill:#FFFFFF;" points="706.181,947.552 673.537,929.448 643.654,947.552 643.654,878.43 706.181,878.43 			"/>
			<g>
				<path style="fill:#FFFFFF;" d="M504.468,933.023c-0.553,0-1-0.447-1-1v-44.466c0-0.553,0.447-1,1-1c0.553,0,1,0.447,1,1v44.466
					C505.468,932.576,505.021,933.023,504.468,933.023z"/>
				<path style="fill:#FFFFFF;" d="M526.7,910.791h-44.466c-0.553,0-1-0.447-1-1c0-0.553,0.447-1,1-1H526.7c0.553,0,1,0.447,1,1
					C527.7,910.344,527.253,910.791,526.7,910.791z"/>
			</g>
			<g>
				<path style="fill:#FFFFFF;" d="M566.096,933.023c-0.553,0-1-0.447-1-1v-44.466c0-0.553,0.447-1,1-1s1,0.447,1,1v44.466
					C567.096,932.576,566.648,933.023,566.096,933.023z"/>
				<path style="fill:#FFFFFF;" d="M588.328,910.791h-44.466c-0.553,0-1-0.447-1-1c0-0.553,0.447-1,1-1h44.466c0.553,0,1,0.447,1,1
					C589.328,910.344,588.881,910.791,588.328,910.791z"/>
			</g>
			<g>
				<path style="fill:#FFFFFF;" d="M743.558,933.023c-0.553,0-1-0.447-1-1v-44.466c0-0.553,0.447-1,1-1c0.553,0,1,0.447,1,1v44.466
					C744.558,932.576,744.11,933.023,743.558,933.023z"/>
				<path style="fill:#FFFFFF;" d="M765.79,910.791h-44.466c-0.553,0-1-0.447-1-1c0-0.553,0.447-1,1-1h44.466c0.553,0,1,0.447,1,1
					C766.79,910.344,766.343,910.791,765.79,910.791z"/>
			</g>
		</g>
		<g>
			<polygon style="fill:#D87355;" points="880.39,1340.452 821.205,1284.84 463.359,1284.84 463.359,1132.649 880.39,1132.649 			
				"/>
			<path style="fill:#FFFFFF;" d="M558.543,1180.892L558.543,1180.892c-8.493-8.494-22.265-8.494-30.758,0l-0.17,0.169l-0.129-0.129
				c-8.516-8.516-22.323-8.516-30.839,0l0,0c-8.516,8.516-8.516,22.323,0,30.84l30.896,30.895l31.001-31.017
				C567.037,1203.157,567.037,1189.386,558.543,1180.892z"/>
			<polygon style="fill:#FFFFFF;" points="688.402,1214.967 657.641,1199.13 728.847,1174.522 704.239,1245.728 			"/>
			<g>
				<path style="fill:#FFFFFF;" d="M600.1,1225.906c-0.553,0-1-0.447-1-1v-41.804c0-0.553,0.447-1,1-1c0.553,0,1,0.447,1,1v41.804
					C601.1,1225.459,600.652,1225.906,600.1,1225.906z"/>
				<path style="fill:#FFFFFF;" d="M621.002,1205.005h-41.804c-0.553,0-1-0.447-1-1s0.447-1,1-1h41.804c0.553,0,1,0.447,1,1
					S621.555,1205.005,621.002,1205.005z"/>
			</g>
			<g>
				<path style="fill:#FFFFFF;" d="M766.937,1225.906c-0.553,0-1-0.447-1-1v-41.804c0-0.553,0.447-1,1-1c0.553,0,1,0.447,1,1v41.804
					C767.937,1225.459,767.489,1225.906,766.937,1225.906z"/>
				<path style="fill:#FFFFFF;" d="M787.838,1205.005h-41.804c-0.553,0-1-0.447-1-1s0.447-1,1-1h41.804c0.553,0,1,0.447,1,1
					S788.391,1205.005,787.838,1205.005z"/>
			</g>
			<g>
				<path style="fill:#FFFFFF;" d="M824.874,1225.906c-0.553,0-1-0.447-1-1v-41.804c0-0.553,0.447-1,1-1c0.553,0,1,0.447,1,1v41.804
					C825.874,1225.459,825.427,1225.906,824.874,1225.906z"/>
				<path style="fill:#FFFFFF;" d="M845.775,1205.005h-41.803c-0.553,0-1-0.447-1-1s0.447-1,1-1h41.803c0.553,0,1,0.447,1,1
					S846.328,1205.005,845.775,1205.005z"/>
			</g>
		</g>
		<g>
			<g>
				<polygon style="fill:#EFBC73;" points="679.437,677.049 824.384,769.601 753.565,500.115 				"/>
				
					<ellipse transform="matrix(0.7071 -0.7071 0.7071 0.7071 -193.458 670.8448)" style="fill:#EFBC73;" cx="713.052" cy="568.947" rx="161.307" ry="161.307"/>
			</g>
			<g>
				<g>
					<g>
						<path style="fill:#40484C;" d="M750.122,695.318c-9.81,0-19.491-4.511-25.714-13.017l-61.637-84.258
							c-0.326-0.446-0.229-1.072,0.216-1.397c0.447-0.328,1.072-0.229,1.398,0.216l61.637,84.258
							c9.704,13.266,28.393,16.164,41.659,6.46c13.266-9.705,16.164-28.394,6.46-41.659L731.989,588.3
							c-0.326-0.446-0.229-1.072,0.216-1.398c0.447-0.328,1.072-0.229,1.397,0.216l42.151,57.621
							c10.355,14.156,7.264,34.099-6.892,44.454C763.212,693.327,756.639,695.317,750.122,695.318z"/>
						<path style="fill:#363E44;" d="M931.282,509.034c-0.307,0-0.608-0.14-0.805-0.405c-0.328-0.443-0.235-1.069,0.209-1.398
							c14.534-10.762,21.18-29.073,16.931-46.65c-4.962-20.523-23.866-34.99-44.926-34.335c-0.01,0-0.02,0-0.03,0
							c-0.538,0-0.982-0.429-0.999-0.971c-0.016-0.552,0.418-1.013,0.971-1.029c0.46-0.014,0.92-0.02,1.379-0.02
							c21.451,0,40.476,14.897,45.549,35.885c4.439,18.36-2.503,37.487-17.685,48.728
							C931.697,508.971,931.489,509.034,931.282,509.034z"/>
						<path style="fill:#363E44;" d="M937.78,598.142c-0.032,0-0.064-0.002-0.097-0.005l-235.398-22.939
							c-0.424-0.041-0.775-0.347-0.875-0.76L676.59,471.762c-0.1-0.412,0.071-0.842,0.426-1.073L875.59,341.307
							c0.273-0.178,0.613-0.211,0.915-0.092c0.302,0.12,0.526,0.379,0.603,0.694l61.645,254.997
							c0.076,0.315-0.005,0.646-0.217,0.892C938.344,598.018,938.068,598.142,937.78,598.142z M703.188,573.275l233.29,22.734
							l-60.981-252.255L678.699,471.978L703.188,573.275z"/>
						<path style="fill:#363E44;" d="M636.328,591.027c-0.183,0-0.363-0.05-0.522-0.146c-0.225-0.139-0.389-0.36-0.45-0.618
							l-24.756-102.404c-0.13-0.537,0.2-1.077,0.736-1.207l66.022-15.961c0.261-0.065,0.531-0.021,0.757,0.118
							s0.389,0.36,0.45,0.618l24.756,102.404c0.13,0.537-0.2,1.077-0.736,1.207l-66.022,15.961
							C636.485,591.019,636.406,591.027,636.328,591.027z M612.779,488.36l24.286,100.46l64.078-15.491l-24.286-100.46
							L612.779,488.36z"/>
						<g>
							<path style="fill:#363E44;" d="M641.198,574.698c-0.451,0-0.86-0.308-0.971-0.765c-0.13-0.537,0.2-1.077,0.736-1.207
								l45.988-11.118l-4.125-17.067c-0.13-0.537,0.2-1.077,0.736-1.207c0.536-0.132,1.078,0.2,1.207,0.736l4.36,18.04
								c0.13,0.537-0.2,1.077-0.736,1.207l-46.96,11.353C641.356,574.69,641.276,574.698,641.198,574.698z"/>
							<path style="fill:#363E44;" d="M634.462,546.83c-0.451,0-0.86-0.308-0.971-0.765c-0.13-0.537,0.2-1.077,0.736-1.207
								l45.988-11.118l-4.126-17.066c-0.13-0.537,0.2-1.077,0.736-1.207c0.538-0.132,1.078,0.2,1.207,0.736l4.361,18.039
								c0.063,0.258,0.02,0.53-0.118,0.757c-0.139,0.226-0.36,0.389-0.618,0.45l-46.96,11.353
								C634.619,546.821,634.54,546.83,634.462,546.83z"/>
							<path style="fill:#363E44;" d="M627.725,518.963c-0.451,0-0.86-0.308-0.971-0.765c-0.13-0.537,0.2-1.077,0.736-1.207
								l45.989-11.118l-4.126-17.066c-0.13-0.537,0.2-1.077,0.736-1.207c0.539-0.132,1.078,0.2,1.207,0.736l4.361,18.039
								c0.063,0.258,0.019,0.53-0.118,0.757c-0.139,0.226-0.36,0.389-0.618,0.45l-46.961,11.353
								C627.882,518.954,627.803,518.963,627.725,518.963z"/>
						</g>
					</g>
				</g>
			</g>
		</g>
		<g>
			<g>
				<path style="fill:#D38C79;" d="M341.841,1598.306c35.714-30.021,64.495-53.981,76.844-63.721
					c4.922-3.883,13.58-10.776,26.839-16.351c49.128-20.658,82.684,12.326,144.279,11.732c14.47-0.14,107.086-42.958,121.473-22.282
					c7.093,10.191-3.501,28.509-38.457,55.364c-0.003,0.002,0,0.009,0.003,0.006c28.904-17.351,69.13-39.171,78.673-23.17
					c10.029,19.065-16.353,40.666-42.744,57.474c30.09-19.165,38.532-12.19,41.628-1.943c4.876,16.13-17.279,38.662-62.667,65.03
					c-0.002,0.001-0.001,0.004,0.001,0.004c36.426-9.452,46.672-6.316,47.2,3.409c0.967,17.757-36.757,38.733-72.948,52.164
					c-40.743,15.121-77.586,12.714-100.782,10.642c-0.005,0-0.012,0.002-0.016,0.007
					c-87.091,86.757-154.067,153.942-219.325,220.247V1598.306z"/>
				<path style="fill:#D38C79;" d="M532.932,1541.439c50.877-46.843,59.301-74.52,51.62-82.346
					c-12.916-13.161-72.722,9.051-155.702,68.145C457.492,1533.794,504.289,1534.883,532.932,1541.439z"/>
				<path style="fill:#363E44;" d="M496.19,1624.728c-0.097,0-0.192-0.001-0.288-0.002c-0.552-0.009-0.993-0.463-0.984-1.016
					c0.009-0.547,0.455-0.984,1-0.984c0.078-0.003,0.176,0.002,0.267,0.002c20.949,0,47.579-40.708,52.049-95.602
					c0.045-0.55,0.531-0.954,1.078-0.916c0.551,0.045,0.961,0.527,0.916,1.078c-2.107,25.881-9.268,50.52-20.163,69.379
					C519.749,1614.521,507.42,1624.728,496.19,1624.728z"/>
				<path style="fill:#363E44;" d="M611.359,1577.593c-0.548,0-0.994-0.441-1-0.99c-0.006-0.552,0.438-1.004,0.99-1.01
					c8.36-0.085,16.741-0.947,24.908-2.562c11.857-2.342,23.39-6.278,34.276-11.7c0.495-0.245,1.095-0.044,1.341,0.45
					s0.045,1.095-0.45,1.341c-11.045,5.5-22.747,9.495-34.779,11.872c-8.287,1.638-16.792,2.512-25.276,2.599
					C611.366,1577.593,611.362,1577.593,611.359,1577.593z"/>
				<path style="fill:#363E44;" d="M632.364,1619.325c-0.548,0-0.994-0.441-1-0.99c-0.006-0.552,0.438-1.004,0.99-1.01
					c8.36-0.085,16.741-0.947,24.908-2.562c11.857-2.342,23.39-6.278,34.277-11.699c0.494-0.245,1.095-0.044,1.341,0.45
					s0.045,1.095-0.45,1.341c-11.047,5.5-22.749,9.494-34.78,11.871c-8.287,1.638-16.792,2.512-25.276,2.599
					C632.371,1619.325,632.367,1619.325,632.364,1619.325z"/>
				<path style="fill:#363E44;" d="M627.05,1675.914c-0.548,0-0.994-0.441-1-0.99c-0.006-0.552,0.438-1.004,0.99-1.01
					c8.354-0.084,16.734-0.945,24.909-2.561c11.86-2.344,23.393-6.28,34.276-11.7c0.494-0.246,1.095-0.044,1.341,0.45
					s0.045,1.095-0.45,1.341c-11.042,5.499-22.744,9.493-34.779,11.872c-8.296,1.639-16.8,2.513-25.277,2.598
					C627.057,1675.914,627.053,1675.914,627.05,1675.914z"/>
			</g>
			<g>
				<g>
					<path style="fill:#E2A18D;" d="M354.77,2132.29l-11.876-257.398c44.316-83.899,85.619-161.54,99.513-185.758
						c3.12-5.438,8.585-15.061,18.81-25.178c37.887-37.484,80.431-21.664,138.252-42.9c65.607-24.096,77.014-77.892,92.515-69.044
						c10.783,6.155,19.273,30.843-3.151,68.794c-0.002,0.003,0.003,0.007,0.005,0.004c20.352-26.876,49.544-62.118,64.364-50.828
						c16.413,13.951-13.021,59.386-32.171,86.001c23.18-32.215,45.144-42.41,51.837-34.057c10.536,13.149-1.62,42.317-33.907,83.705
						c-0.002,0.002,0.001,0.004,0.002,0.003c30.276-22.35,40.953-23.259,45.068-14.432c7.517,16.117-19.668,49.644-48.243,75.599
						c-32.168,29.219-67.253,40.721-89.548,47.446c-0.005,0.002-0.011,0.007-0.013,0.012
						c-59.732,139.215-94.341,220.503-138.447,327.077L354.77,2132.29z"/>
					<path style="fill:#E2A18D;" d="M550.976,1652.904c29.746-62.432,27.245-91.255,17.201-95.654
						c-16.891-7.397-64.106,35.509-119.074,121.277C478.125,1673.933,521.954,1657.497,550.976,1652.904z"/>
					<path style="fill:#363E44;" d="M491.795,1647.415c-0.402,0-0.781-0.244-0.934-0.642c-0.198-0.516,0.06-1.094,0.575-1.292
						c14.221-5.458,29.474-7.407,45.623-9.472c7.573-0.969,15.405-1.97,23.564-3.374c0.555-0.094,1.061,0.272,1.155,0.815
						c0.094,0.545-0.271,1.062-0.815,1.155c-8.202,1.412-16.056,2.416-23.651,3.387c-16.025,2.049-31.163,3.983-45.159,9.355
						C492.035,1647.394,491.914,1647.415,491.795,1647.415z"/>
					<path style="fill:#363E44;" d="M636.856,1657.286c-0.393,0-0.765-0.232-0.924-0.618c-0.211-0.51,0.031-1.095,0.542-1.306
						c7.726-3.196,15.18-7.12,22.157-11.663c10.13-6.595,19.363-14.546,27.444-23.634c0.366-0.414,0.998-0.451,1.411-0.083
						c0.413,0.367,0.45,0.999,0.083,1.411c-8.199,9.222-17.568,17.29-27.847,23.981c-7.081,4.61-14.646,8.592-22.485,11.835
						C637.112,1657.262,636.983,1657.286,636.856,1657.286z"/>
					<path style="fill:#363E44;" d="M671.903,1688.18c-0.393,0-0.765-0.232-0.924-0.618c-0.211-0.51,0.031-1.095,0.542-1.306
						c7.725-3.195,15.181-7.12,22.158-11.663c10.13-6.595,19.363-14.546,27.444-23.634c0.366-0.414,0.998-0.452,1.411-0.083
						c0.413,0.367,0.45,0.999,0.083,1.411c-8.199,9.222-17.568,17.29-27.847,23.981c-7.082,4.61-14.646,8.593-22.486,11.835
						C672.16,1688.155,672.031,1688.18,671.903,1688.18z"/>
					<path style="fill:#363E44;" d="M688.068,1742.67c-0.393,0-0.765-0.232-0.924-0.618c-0.211-0.51,0.031-1.095,0.542-1.306
						c7.723-3.193,15.179-7.117,22.158-11.662c10.131-6.595,19.364-14.547,27.444-23.635c0.366-0.414,0.998-0.451,1.411-0.083
						c0.413,0.366,0.45,0.999,0.083,1.411c-8.197,9.222-17.566,17.29-27.847,23.982c-7.084,4.612-14.649,8.594-22.486,11.834
						C688.325,1742.646,688.196,1742.67,688.068,1742.67z"/>
				</g>
				<polygon style="fill:#776E42;" points="341.173,2157.431 341.173,1812.49 359.871,1770.261 611.36,1946.918 520.361,2157.431 
									"/>
			</g>
			<g>
				<path style="fill:#FFFFFF;" d="M632.365,1459.237c-0.079,0-0.159-0.009-0.238-0.028c-0.537-0.132-0.865-0.673-0.734-1.209
					l20.505-83.766c0.132-0.537,0.682-0.864,1.209-0.734c0.537,0.132,0.865,0.673,0.734,1.209l-20.505,83.766
					C633.224,1458.932,632.815,1459.237,632.365,1459.237z"/>
				<path style="fill:#FFFFFF;" d="M695.489,1475.268c-0.191,0-0.385-0.055-0.556-0.169c-0.459-0.308-0.582-0.929-0.274-1.388
					l58.182-86.866c0.308-0.459,0.93-0.581,1.388-0.274c0.459,0.308,0.582,0.929,0.274,1.388l-58.182,86.866
					C696.128,1475.112,695.812,1475.268,695.489,1475.268z"/>
				<path style="fill:#FFFFFF;" d="M749.842,1512.669c-0.306,0-0.606-0.14-0.803-0.403c-0.33-0.442-0.238-1.069,0.205-1.398
					l61.775-45.972c0.442-0.333,1.068-0.238,1.399,0.205c0.33,0.442,0.238,1.069-0.205,1.398l-61.775,45.972
					C750.259,1512.604,750.049,1512.669,749.842,1512.669z"/>
			</g>
		</g>
		<g>
			<path style="fill:#D87355;" d="M1003.692,1713.461c8.454-27.178,33.803-46.911,63.763-46.911l0,0h0.002
				c19.381,0,36.781,8.309,48.976,21.499c12.195-13.19,29.596-21.499,48.976-21.499l0,0h0.002c29.959,0,55.309,19.733,63.762,46.911
				c1.95,6.272,3.002,12.94,3.002,19.854c0,36.873-43.602,99.465-115.742,126.716c-72.14-27.251-115.741-89.843-115.741-126.716
				C1000.692,1726.401,1001.741,1719.733,1003.692,1713.461z"/>
			<g>
				<path style="fill:#BC8271;" d="M1034.17,1768.133c-32.609,3.042-46.279,14.2-64.975,26.811
					c3.571,0.353,22.489-1.742,31.947,12.258c9.635,14.267,5.336,33.624,4.784,36.666c12.061,5.381,22.269,10.296,27.517,26.238
					c6.195,18.851-5.402,35.122-5.402,35.122s17.727,17.419,20.967,44.471c2.491,20.683-12.192,50.823-31.529,53.092
					c-6.77,0.795-23.614-3.594-22.578-29.5c-2.976,9.724-3.396,55.054-20.24,83.673c-14.023,23.812-41.451,31.793-49.873,36.026
					c-18.013,28.818-32.588,52.166-44.934,72.01H612.102c35.673-40.877,160.401-195.038,201.146-248.285
					c7.43-26.059,27.031-97.74,89.228-148.472s154.69-55.583,161.591-35.871C1067.286,1741.565,1061.29,1765.596,1034.17,1768.133z"
					/>
				<path style="fill:#363E44;" d="M939.201,1815.786c-0.224,0-0.449-0.075-0.636-0.229c-0.426-0.352-0.486-0.982-0.135-1.408
					c4.031-4.884,8.709-9.184,13.905-12.779c4.309-2.979,8.966-5.465,13.841-7.388c0.517-0.199,1.095,0.05,1.298,0.563
					c0.202,0.515-0.05,1.095-0.564,1.298c-4.734,1.865-9.255,4.278-13.438,7.171c-5.044,3.491-9.587,7.666-13.5,12.408
					C939.775,1815.662,939.489,1815.786,939.201,1815.786z"/>
				<path style="fill:#363E44;" d="M975.623,1857.906c-0.315,0-0.626-0.149-0.82-0.428c-0.316-0.452-0.206-1.076,0.247-1.392
					c5.199-3.633,10.857-6.523,16.818-8.592c4.94-1.718,10.092-2.867,15.309-3.416c0.544-0.056,1.041,0.34,1.099,0.89
					c0.059,0.549-0.34,1.041-0.89,1.099c-5.065,0.534-10.066,1.649-14.862,3.316c-5.787,2.009-11.281,4.815-16.33,8.342
					C976.021,1857.848,975.82,1857.906,975.623,1857.906z"/>
				<path style="fill:#363E44;" d="M982.415,1924.255c-0.164,0-0.331-0.04-0.484-0.126c-0.483-0.268-0.657-0.877-0.389-1.359
					c2.824-5.087,9.371-14.26,21.479-18.545c6.694-2.371,15.388-2.587,22.153-0.558c0.528,0.159,0.828,0.717,0.67,1.246
					c-0.159,0.527-0.713,0.828-1.246,0.67c-6.381-1.918-14.59-1.71-20.909,0.526c-11.487,4.066-17.711,12.792-20.398,17.631
					C983.107,1924.069,982.767,1924.255,982.415,1924.255z"/>
				<path style="fill:#363E44;" d="M994.304,1975.062c-0.237,0-0.476-0.084-0.667-0.255c-0.411-0.368-0.446-1-0.078-1.412
					l17.413-19.458c0.368-0.411,0.999-0.446,1.412-0.078c0.411,0.368,0.446,1,0.078,1.412l-17.413,19.458
					C994.852,1974.949,994.578,1975.062,994.304,1975.062z"/>
			</g>
		</g>
		<g>
			<path style="fill:#BC8271;" d="M1968.404,1972.21c-18.672,18.272-39.707,34.576-51.457,44.477
				c7.89,2.089,20.165,4.785,35.38,5.72c27.139,1.665,33.859-1.277,39.318,9.744c5.626,11.354-11.44,29.858-35.183,36.534
				c-28.323,7.966-66.548,4.516-66.548,4.516c-8.933,37.171-16.244,64.864-21.994,89.424l-195.938-2.08
				c12.942-57.527,28.533-95.563,43.842-156.636c0.63-14.276-2.366-55.321,17.299-82.009c15.994-21.706,40.53-26.589,60.645-47.197
				c33.949-34.781,25.413-74.757,42.624-74.252c11.813,0.347,17.794,23.426,17.777,45.895c-0.019,23.068-9.743,37.977-6.434,39.804
				c3.631,2.002,11.548-14.423,23.268-33.942c5.445-9.069,5.063-43.179,21.273-45.084c12.922-1.518,22.195,33.843,12.825,64.325
				c-6.629,21.565-25.126,33.283-22.274,36.256c2.139,2.23,12.988-5.025,20.479-14.064c12.359-14.914,12.341-49.816,27.296-51.279
				c14.651-1.432,22.205,29.594,15.363,58.174c-5.769,24.098-28.343,36.32-24.821,40.034c2.479,2.613,12.247-2.373,31.39-15.855
				c15.98-11.252,41.989-42.019,56.261-27.056C2020.8,1910.243,1996.585,1944.633,1968.404,1972.21z"/>
			<path style="fill:#363E44;" d="M1874.35,2044.042c-0.391,0-0.762-0.23-0.923-0.614c-0.213-0.509,0.027-1.095,0.537-1.309
				c16.122-6.746,33.562-19.521,42.522-26.534c0.434-0.343,1.063-0.264,1.403,0.171s0.265,1.063-0.171,1.403
				c-9.04,7.076-26.645,19.969-42.983,26.806C1874.609,2044.018,1874.479,2044.042,1874.35,2044.042z"/>
		</g>
		<g>
			<path style="fill:#E2A18D;" d="M1484.249,2160.545c0,0,26.42-119.426,29.455-132.618c9.224-40.094,51.942-235.176,23.674-241.747
				c-18.058-4.198-41.238,92.901-46.602,109.493c1.241-20.957,24.413-126.727,8.394-132.189
				c-17.384-5.927-58.791,126.176-59.4,127.105c2.681-14.718,24.544-122.264,8.742-124.919
				c-18.339-3.081-50.871,106.619-55.169,124.758c-1.843-1.896,18.627-79.462,1.188-84.871
				c-15.536-4.818-42.486,82.693-47.96,94.214c-13.444,30.512-30.12,89.035-52.413,154.527
				c-14.531,42.688-33.139,106.247-33.139,106.247H1484.249z"/>
		</g>
		<g>
			<path style="fill:#FFFFFF;" d="M1187.358,1588.862c-0.26,0-0.516-0.102-0.707-0.293l-52.568-52.567H933.798c-0.553,0-1-0.447-1-1
				v-167.953c0-0.553,0.447-1,1-1h279.267c0.553,0,1,0.447,1,1v167.953c0,0.553-0.447,1-1,1h-24.706v51.86
				c0,0.404-0.243,0.77-0.617,0.924C1187.617,1588.838,1187.487,1588.862,1187.358,1588.862z M934.798,1534.002h199.699
				c0.266,0,0.52,0.105,0.707,0.293l51.154,51.153v-50.446c0-0.553,0.447-1,1-1h24.706v-165.953H934.798V1534.002z"/>
			<g>
				<path style="fill:#363E44;" d="M1061.3,1320.931L1061.3,1320.931c-16.562,0-29.988,13.426-29.988,29.987v73.746
					c0,16.562,13.426,29.987,29.987,29.987h0c16.561,0,29.987-13.426,29.987-29.987v-73.746
					C1091.287,1334.356,1077.861,1320.931,1061.3,1320.931z"/>
				<path style="fill:#363E44;" d="M1100.624,1474.671h-78.649c-0.553,0-1-0.447-1-1v-58.956c0-0.553,0.447-1,1-1
					c0.553,0,1,0.447,1,1v57.956h76.649v-57.956c0-0.553,0.447-1,1-1s1,0.447,1,1v58.956
					C1101.624,1474.224,1101.177,1474.671,1100.624,1474.671z"/>
				<path style="fill:#363E44;" d="M1061.3,1500.612c-0.553,0-1-0.447-1-1v-13.659c0-0.553,0.447-1,1-1s1,0.447,1,1v13.659
					C1062.3,1500.165,1061.853,1500.612,1061.3,1500.612z"/>
				<path style="fill:#363E44;" d="M1108.397,1513.479h-94.195c-0.553,0-1-0.447-1-1s0.447-1,1-1h94.195c0.553,0,1,0.447,1,1
					S1108.95,1513.479,1108.397,1513.479z"/>
			</g>
		</g>
		<g>
			<polygon style="fill:#FFFFFF;" points="1091.227,578.469 1197.895,609.554 1105.084,455.312 			"/>
			
				<ellipse transform="matrix(0.7071 -0.7071 0.7071 0.7071 -37.3582 920.4933)" style="fill:#FFFFFF;" cx="1092.455" cy="505.342" rx="104.212" ry="104.212"/>
			<path style="fill:#D87355;" d="M1149.862,485.969c-4.305-13.839-17.212-23.887-32.468-23.887l0,0h-0.001
				c-9.868,0-18.729,4.231-24.938,10.947c-6.209-6.717-15.07-10.947-24.938-10.947l0,0c0,0,0,0-0.001,0
				c-15.255,0-28.163,10.048-32.467,23.887c-0.993,3.194-1.529,6.589-1.529,10.109c0,18.776,22.202,50.648,58.935,64.524
				c36.734-13.876,58.935-45.748,58.935-64.524C1151.39,492.558,1150.855,489.163,1149.862,485.969z"/>
		</g>
	</g>
</g>
</svg>
