<?xml version="1.0" encoding="utf-8"?>
<!-- Generator: Adobe Illustrator 27.5.0, SVG Export Plug-In . SVG Version: 6.00 Build 0)  -->
<svg version="1.1" xmlns="http://www.w3.org/2000/svg" xmlns:xlink="http://www.w3.org/1999/xlink" x="0px" y="0px"
	 viewBox="0 0 2500 2500" style="enable-background:new 0 0 2500 2500;" xml:space="preserve">
-
<g id="Illustration">
	<g id="StartUp_1_">
		<circle style="fill:transparent;" cx="1250" cy="1250" r="915"/>
		<path style="fill:#FFFFFF;" d="M1906.231,1331.009c-0.005,0-0.01,0-0.015,0l-86.608-1.238c-0.265-0.004-0.518-0.113-0.702-0.303
			c-0.186-0.19-0.287-0.446-0.283-0.712l0.578-40.414c-12.684-3.726-24.897-8.988-36.323-15.65l-28.98,28.163
			c-0.19,0.186-0.418,0.273-0.712,0.283c-0.265-0.004-0.518-0.113-0.702-0.303l-60.366-62.117c-0.385-0.396-0.376-1.029,0.02-1.414
			l28.98-28.164c-6.332-11.611-11.243-23.971-14.605-36.756l-40.414-0.578c-0.552-0.008-0.993-0.462-0.985-1.015l1.238-86.608
			c0.004-0.265,0.113-0.518,0.303-0.702c0.19-0.185,0.445-0.265,0.712-0.283l40.413,0.578c3.728-12.685,8.99-24.898,15.651-36.323
			l-28.163-28.98c-0.386-0.396-0.376-1.029,0.02-1.414l62.116-60.366c0.191-0.185,0.471-0.295,0.712-0.283
			c0.265,0.004,0.518,0.113,0.702,0.303l28.164,28.982c11.612-6.333,23.971-11.244,36.756-14.607l0.578-40.414
			c0.007-0.552,0.486-0.987,1.015-0.985l86.608,1.238c0.265,0.004,0.518,0.113,0.702,0.303c0.186,0.191,0.287,0.446,0.283,0.712
			l-0.578,40.413c12.686,3.728,24.898,8.99,36.323,15.651l28.98-28.163c0.191-0.185,0.465-0.268,0.712-0.283
			c0.265,0.004,0.518,0.113,0.702,0.303l60.366,62.117c0.385,0.397,0.376,1.029-0.02,1.414l-28.98,28.164
			c6.331,11.609,11.242,23.968,14.605,36.755l40.415,0.578c0.552,0.008,0.993,0.462,0.985,1.015l-1.238,86.608
			c-0.008,0.547-0.454,0.985-1,0.985c-0.005,0-0.01,0-0.015,0l-40.414-0.577c-3.728,12.684-8.989,24.897-15.65,36.322l28.163,28.981
			c0.386,0.396,0.376,1.029-0.02,1.414l-62.117,60.365c-0.396,0.386-1.03,0.375-1.414-0.02l-28.164-28.98
			c-11.613,6.332-23.972,11.243-36.756,14.605l-0.578,40.415C1907.224,1330.57,1906.777,1331.009,1906.231,1331.009z
			 M1820.638,1327.785l84.608,1.209l0.574-40.176c0.007-0.45,0.313-0.841,0.75-0.954c13.132-3.388,25.815-8.428,37.699-14.98
			c0.393-0.215,0.885-0.144,1.199,0.179l27.998,28.81l60.683-58.972l-27.997-28.81c-0.314-0.323-0.373-0.816-0.145-1.205
			c6.889-11.689,12.289-24.224,16.052-37.254c0.125-0.434,0.553-0.715,0.976-0.723l40.176,0.573l1.209-84.608l-40.176-0.574
			c-0.45-0.007-0.841-0.313-0.954-0.75c-3.389-13.135-8.429-25.818-14.98-37.697c-0.218-0.396-0.145-0.887,0.179-1.2l28.81-27.998
			l-58.973-60.683l-28.809,27.997c-0.325,0.315-0.817,0.374-1.205,0.144c-11.689-6.889-24.224-12.29-37.255-16.053
			c-0.434-0.125-0.729-0.524-0.723-0.975l0.574-40.175l-84.608-1.209l-0.574,40.175c-0.007,0.45-0.313,0.841-0.75,0.954
			c-13.133,3.388-25.816,8.429-37.698,14.981c-0.396,0.216-0.886,0.144-1.2-0.179l-27.998-28.81l-60.682,58.973l27.997,28.809
			c0.314,0.323,0.374,0.816,0.145,1.205c-6.889,11.689-12.29,24.224-16.053,37.255c-0.125,0.434-0.57,0.715-0.976,0.723
			l-40.175-0.574l-1.209,84.608l40.175,0.574c0.45,0.007,0.841,0.313,0.954,0.75c3.388,13.133,8.428,25.816,14.98,37.699
			c0.218,0.395,0.145,0.886-0.179,1.199l-28.81,27.998l58.973,60.683l28.809-27.997c0.325-0.314,0.817-0.374,1.205-0.145
			c11.69,6.89,24.225,12.29,37.255,16.052c0.433,0.125,0.729,0.524,0.723,0.976L1820.638,1327.785z M1865.809,1221.5
			c-0.446,0-0.892-0.004-1.339-0.01c-24.345-0.349-47.098-10.156-64.065-27.616c-35.029-36.044-34.202-93.866,1.842-128.896
			c36.048-35.031,93.87-34.2,128.896,1.842c16.969,17.461,26.122,40.485,25.774,64.83c-0.349,24.345-10.156,47.098-27.616,64.065
			l0,0C1912.16,1212.373,1889.657,1221.5,1865.809,1221.5z M1865.762,1041.237c-22.404,0-44.823,8.365-62.121,25.175
			c-17.078,16.597-26.67,38.851-27.011,62.661s8.612,46.329,25.208,63.406c16.597,17.078,38.85,26.671,62.661,27.011
			c23.831,0.313,46.329-8.612,63.406-25.208c17.078-16.597,26.671-38.85,27.011-62.66c0.341-23.812-8.612-46.33-25.208-63.407
			C1912.258,1050.259,1889.019,1041.237,1865.762,1041.237z"/>
		<path style="fill:#FFFFFF;" d="M771.523,887.799c-0.005,0-0.01,0-0.015,0l-69.379-0.991c-0.265-0.004-0.518-0.113-0.702-0.303
			c-0.186-0.19-0.287-0.446-0.283-0.712l0.461-32.223c-10.079-2.975-19.783-7.156-28.865-12.439l-23.107,22.456
			c-0.19,0.185-0.426,0.287-0.712,0.283c-0.265-0.004-0.518-0.113-0.702-0.303l-48.357-49.76c-0.186-0.19-0.287-0.446-0.283-0.712
			c0.004-0.265,0.113-0.518,0.303-0.702l23.108-22.456c-5.023-9.233-8.925-19.052-11.608-29.209l-32.223-0.461
			c-0.552-0.008-0.993-0.462-0.985-1.015l0.991-69.379c0.004-0.265,0.113-0.518,0.303-0.702c0.191-0.185,0.455-0.283,0.712-0.283
			l32.223,0.461c2.974-10.077,7.155-19.781,12.438-28.865l-22.456-23.107c-0.186-0.19-0.287-0.446-0.283-0.712
			c0.004-0.265,0.113-0.518,0.303-0.702l49.76-48.357c0.396-0.387,1.031-0.375,1.414,0.02l22.456,23.107
			c9.234-5.022,19.053-8.924,29.209-11.607l0.461-32.224c0.004-0.265,0.113-0.518,0.303-0.702c0.191-0.185,0.471-0.268,0.712-0.283
			l69.379,0.992c0.552,0.008,0.993,0.462,0.985,1.015l-0.461,32.223c10.077,2.973,19.781,7.154,28.865,12.438l23.107-22.456
			c0.191-0.185,0.469-0.271,0.712-0.283c0.265,0.004,0.517,0.113,0.702,0.303l48.357,49.76c0.385,0.397,0.376,1.029-0.02,1.414
			l-23.107,22.455c5.021,9.232,8.924,19.052,11.607,29.21l32.224,0.461c0.265,0.004,0.517,0.113,0.702,0.303
			c0.186,0.19,0.287,0.446,0.283,0.712l-0.992,69.379c-0.008,0.547-0.454,0.985-1,0.985c-0.005,0-0.01,0-0.015,0l-32.222-0.461
			c-2.974,10.075-7.154,19.779-12.438,28.865l22.455,23.107c0.385,0.396,0.376,1.029-0.019,1.414l-49.76,48.357
			c-0.19,0.185-0.44,0.306-0.712,0.283c-0.265-0.004-0.518-0.113-0.702-0.303l-22.455-23.108
			c-9.233,5.022-19.053,8.925-29.21,11.608l-0.461,32.223C772.515,887.36,772.068,887.799,771.523,887.799z M703.158,884.822
			l67.379,0.962l0.457-31.983c0.007-0.45,0.314-0.841,0.75-0.954c10.504-2.709,20.65-6.741,30.152-11.982
			c0.396-0.216,0.885-0.144,1.2,0.179l22.289,22.936l48.325-46.964l-22.288-22.935c-0.315-0.323-0.373-0.817-0.145-1.205
			c5.511-9.351,9.83-19.376,12.839-29.797c0.126-0.434,0.502-0.722,0.976-0.723l31.983,0.457l0.963-67.379l-31.984-0.457
			c-0.45-0.007-0.841-0.313-0.954-0.75c-2.71-10.507-6.741-20.651-11.982-30.152c-0.218-0.396-0.144-0.887,0.179-1.2l22.935-22.289
			l-46.963-48.325l-22.935,22.289c-0.325,0.315-0.817,0.371-1.205,0.144c-9.349-5.511-19.374-9.83-29.797-12.839
			c-0.433-0.125-0.729-0.524-0.723-0.976l0.457-31.984l-67.379-0.963l-0.457,31.984c-0.007,0.45-0.313,0.841-0.75,0.954
			c-10.503,2.709-20.647,6.74-30.152,11.981c-0.394,0.215-0.885,0.144-1.199-0.179l-22.29-22.936l-48.325,46.963l22.289,22.936
			c0.315,0.323,0.373,0.816,0.144,1.205c-5.51,9.349-9.829,19.374-12.839,29.797c-0.124,0.429-0.516,0.723-0.961,0.723
			c-0.005,0-0.01,0-0.015,0l-31.984-0.457l-0.962,67.379l31.983,0.457c0.45,0.007,0.841,0.314,0.954,0.75
			c2.709,10.504,6.741,20.648,11.982,30.151c0.218,0.396,0.145,0.887-0.179,1.2l-22.937,22.29l46.964,48.325l22.935-22.289
			c0.325-0.315,0.817-0.375,1.205-0.145c9.347,5.509,19.371,9.829,29.797,12.839c0.434,0.125,0.729,0.524,0.723,0.976
			L703.158,884.822z M739.123,800.042c-19.102,0-38.185-7.408-52.517-22.156c-13.63-14.025-20.982-32.518-20.703-52.074
			c0.279-19.555,8.157-37.83,22.183-51.46c28.952-28.137,75.397-27.473,103.534,1.479c28.137,28.953,27.473,75.398-1.479,103.535
			C775.935,793.17,757.521,800.042,739.123,800.042z M739.104,655.675c-17.897,0-35.806,6.683-49.623,20.11
			c-13.643,13.258-21.306,31.034-21.577,50.056c-0.272,19.021,6.879,37.009,20.137,50.65c27.367,28.163,72.543,28.808,100.706,1.441
			l0,0c28.162-27.368,28.808-72.546,1.44-100.707C776.246,662.882,757.682,655.675,739.104,655.675z M789.443,778.649h0.01H789.443z
			"/>
		<path style="fill:#D3BBA3;" d="M1900.741,685.899l-28.171-64.366l-30.596,13.391c-7.042-8.715-15.081-16.396-23.875-22.939
			l12.168-31.108l-65.434-25.594l-12.168,31.108c-10.9-1.16-22.016-0.971-33.102,0.652l-13.391-30.596l-64.366,28.171l13.391,30.596
			c-8.715,7.043-16.396,15.081-22.938,23.875l-31.108-12.168l-25.594,65.433l31.108,12.168c-1.16,10.9-0.972,22.016,0.652,33.102
			l-30.596,13.391l28.171,64.366l30.596-13.391c7.043,8.715,15.081,16.396,23.875,22.939l-12.168,31.108l65.434,25.594
			l12.168-31.108c10.9,1.16,22.016,0.971,33.102-0.652l13.391,30.596l64.366-28.171l-13.391-30.596
			c8.715-7.043,16.396-15.081,22.938-23.875l31.108,12.168l25.594-65.434l-31.108-12.168c1.16-10.9,0.972-22.016-0.652-33.102
			L1900.741,685.899z M1768.053,785.451c-36.999,16.193-80.12-0.673-96.313-37.672c-16.193-36.999,0.673-80.12,37.672-96.313
			c36.999-16.193,80.12,0.673,96.313,37.672C1821.918,726.136,1805.052,769.257,1768.053,785.451z"/>
		<g>
			<g>
				<path style="fill:#FFFFFF;" d="M1532.576,1809.625l-17.369,8.683c-5.793-7.693-12.132-14.82-18.93-21.364l10.688-16.197
					l-54.869-36.234h0l-10.713,16.234c-8.768-3.711-17.815-6.729-27.055-9.024l1.158-19.42l-65.617-3.953l0,0l-1.155,19.376
					c-9.361,1.154-18.705,3.051-27.95,5.728l-8.693-17.376l-58.783,29.387v0l8.693,17.376c-7.689,5.789-14.812,12.124-21.351,18.919
					l-16.202-10.699l0,0l-36.198,54.852l16.238,10.723c-3.705,8.767-6.718,17.813-9.007,27.052l-19.419-1.17l0,0l-3.913,65.62l0,0
					l19.375,1.167c1.159,9.362,3.062,18.708,5.744,27.956l-17.369,8.683v0l29.419,58.805l17.369-8.683
					c5.793,7.693,12.132,14.82,18.93,21.364l-10.688,16.197l0,0l54.869,36.234l0,0l10.713-16.233
					c8.768,3.711,17.816,6.729,27.055,9.024l-1.158,19.42l65.617,3.953h0l1.155-19.376c9.361-1.154,18.705-3.051,27.95-5.728
					l8.693,17.375l0,0l58.783-29.386l-8.693-17.376c7.689-5.789,14.812-12.124,21.351-18.919l16.202,10.699l0,0l36.198-54.852
					l-16.238-10.723c3.706-8.767,6.718-17.813,9.007-27.052l19.419,1.17h0l3.913-65.62l0,0l-19.375-1.167
					c-1.159-9.362-3.062-18.708-5.744-27.956l17.369-8.683L1532.576,1809.625z M1497.196,1918.548
					c3.43,33.328-7.7,66.757-30.421,91.362c-77.198,83.601-210.443,39.159-222.1-74.082c-3.431-33.328,7.7-66.758,30.421-91.363
					C1352.296,1760.863,1485.541,1805.306,1497.196,1918.548z"/>
			</g>
			<path style="fill:#F2E6DC;" d="M1371.256,2071.978c-53.162,0.003-104.437-29.356-129.803-80.06
				c-15.612-31.207-19.444-66.979-10.789-100.725c8.568-33.411,28.741-62.675,56.802-82.401c0.452-0.318,1.075-0.207,1.394,0.243
				c0.317,0.452,0.209,1.075-0.243,1.394c-57.243,40.24-76.75,117.879-45.374,180.595c25.014,49.999,75.587,78.952,128.01,78.954
				c21.429,0.001,43.161-4.835,63.592-15.049c58.179-29.084,89.349-93.786,75.801-157.344c-0.114-0.54,0.229-1.071,0.771-1.187
				c0.532-0.112,1.071,0.229,1.186,0.771c13.738,64.448-17.869,130.057-76.862,159.549
				C1415.025,2067.072,1392.98,2071.977,1371.256,2071.978z"/>
		</g>
		<g>
			<g>
				<g>
					
						<rect x="420.826" y="754.898" transform="matrix(-1 -1.224647e-16 1.224647e-16 -1 2166.4248 2513.9187)" style="fill:#E6D0BE;" width="1324.772" height="1004.122"/>
					
						<rect x="662.976" y="595.876" transform="matrix(-1.836970e-16 1 -1 -1.836970e-16 2299.9114 133.4863)" style="fill:#F2E6DC;" width="840.473" height="1241.646"/>
					<path style="fill:#F7F1EB;" d="M1058.276,1693.044c0,13.772,11.165,24.937,24.937,24.937c13.773,0,24.937-11.165,24.937-24.937
						c0-13.772-11.165-24.937-24.937-24.937C1069.44,1668.107,1058.276,1679.271,1058.276,1693.044z"/>
				</g>
				<path style="fill:#E6D0BE;" d="M420.826,1786.242L420.826,1786.242c0,57.472,46.59,104.063,104.062,104.063h1388.605
					c57.472,0,104.062-46.591,104.062-104.063l0,0H420.826z"/>
				<path style="fill:#F2E6DC;" d="M769.529,1880.521c-46.039,0-83.495-37.456-83.495-83.496c0-0.553,0.447-1,1-1
					c0.553,0,1,0.447,1,1c0,44.938,36.559,81.496,81.495,81.496c0.553,0,1,0.447,1,1S770.082,1880.521,769.529,1880.521z"/>
				<path style="fill:#F2E6DC;" d="M1455.018,1856.057h-155.672c-24.935,0-45.22-20.284-45.22-45.218c0-0.553,0.447-1,1-1h244.11
					c0.553,0,1,0.447,1,1C1500.236,1835.772,1479.951,1856.057,1455.018,1856.057z M1256.138,1811.839
					c0.533,23.37,19.711,42.218,43.208,42.218h155.672c23.496,0,42.674-18.848,43.207-42.218H1256.138z"/>
			</g>
			<g>
				<g>
					<g>
						<path style="fill:#D3BBA3;" d="M969.742,1303.082c-0.341,0-0.672-0.174-0.859-0.487c-0.283-0.474-0.129-1.088,0.346-1.371
							l95.45-57.046c0.472-0.283,1.087-0.129,1.371,0.346c0.283,0.474,0.129,1.088-0.346,1.371l-95.45,57.046
							C970.094,1303.036,969.917,1303.082,969.742,1303.082z"/>
						<path style="fill:#D3BBA3;" d="M909.306,1287.829c-0.325,0-0.645-0.158-0.837-0.451l-129.323-196.88
							c-0.303-0.462-0.175-1.081,0.287-1.385c0.461-0.302,1.082-0.176,1.385,0.287l129.323,196.88
							c0.303,0.461,0.175,1.081-0.287,1.385C909.685,1287.776,909.494,1287.829,909.306,1287.829z"/>
						<path style="fill:#D3BBA3;" d="M623.185,1160.033c-0.3,0-0.596-0.134-0.792-0.389c-0.338-0.438-0.258-1.065,0.18-1.402
							l100.469-77.617c0.438-0.339,1.066-0.257,1.402,0.18c0.338,0.438,0.258,1.065-0.18,1.402l-100.469,77.617
							C623.613,1159.965,623.398,1160.033,623.185,1160.033z"/>
						<path style="fill:#D3BBA3;" d="M590.601,1227.396c-23.396,0-42.429-19.033-42.429-42.428
							c0-23.396,19.033-42.429,42.429-42.429s42.429,19.033,42.429,42.429C633.029,1208.362,613.996,1227.396,590.601,1227.396z
							 M590.601,1144.539c-22.292,0-40.429,18.137-40.429,40.429s18.137,40.428,40.429,40.428s40.429-18.136,40.429-40.428
							S612.893,1144.539,590.601,1144.539z"/>
						<path style="fill:#D3BBA3;" d="M757.63,1098.507c-23.396,0-42.429-19.033-42.429-42.428c0-23.396,19.033-42.429,42.429-42.429
							s42.429,19.033,42.429,42.429C800.059,1079.474,781.025,1098.507,757.63,1098.507z M757.63,1015.65
							c-22.292,0-40.429,18.137-40.429,40.429s18.137,40.428,40.429,40.428s40.429-18.136,40.429-40.428
							S779.922,1015.65,757.63,1015.65z"/>
						<path style="fill:#D3BBA3;" d="M933.249,1364.327c-23.395,0-42.428-19.033-42.428-42.429s19.033-42.429,42.428-42.429
							c23.395,0,42.429,19.033,42.429,42.429S956.644,1364.327,933.249,1364.327z M933.249,1281.47
							c-22.292,0-40.428,18.137-40.428,40.429s18.136,40.429,40.428,40.429c22.292,0,40.429-18.137,40.429-40.429
							S955.541,1281.47,933.249,1281.47z"/>
						<path style="fill:#D3BBA3;" d="M1101.608,1267.702c-23.396,0-42.429-19.033-42.429-42.429s19.033-42.429,42.429-42.429
							c23.395,0,42.428,19.033,42.428,42.429S1125.003,1267.702,1101.608,1267.702z M1101.608,1184.845
							c-22.292,0-40.429,18.137-40.429,40.429s18.137,40.429,40.429,40.429s40.428-18.137,40.428-40.429
							S1123.9,1184.845,1101.608,1184.845z"/>
					</g>
					<rect x="541.644" y="1292.213" style="fill:#D3BBA3;" width="103.032" height="282.509"/>
					<rect x="711.674" y="1255.166" style="fill:#D3BBA3;" width="103.032" height="319.556"/>
					<rect x="881.703" y="1392.156" style="fill:#D3BBA3;" width="103.032" height="182.566"/>
					<rect x="1051.731" y="1339.73" style="fill:#D3BBA3;" width="103.032" height="234.992"/>
				</g>
				<g>
					<g>
						<path style="fill:#D3BBA3;" d="M1450.438,1525.401c-27.215,0-54.324-5.959-79.72-17.809
							c-45.703-21.323-80.367-59.17-97.607-106.567c-17.239-47.397-14.989-98.67,6.335-144.373
							c21.324-45.704,59.171-80.369,106.567-97.607c47.396-17.24,98.668-14.989,144.373,6.334
							c45.705,21.326,80.369,59.173,97.607,106.567c17.239,47.397,14.989,98.67-6.334,144.374
							c-21.325,45.705-59.172,80.369-106.568,97.607C1494.03,1521.588,1472.199,1525.401,1450.438,1525.401z M1450.666,1149.572
							c-21.534,0-43.13,3.772-63.97,11.352c-46.895,17.057-84.34,51.354-105.438,96.574c-21.099,45.219-23.324,95.948-6.269,142.844
							c17.058,46.896,51.355,84.341,96.574,105.438c45.22,21.1,95.949,23.326,142.844,6.269
							c46.895-17.056,84.34-51.354,105.439-96.574c21.098-45.22,23.323-95.949,6.268-142.845
							c-17.057-46.893-51.354-84.338-96.574-105.438C1504.416,1155.47,1477.589,1149.572,1450.666,1149.572z M1450.588,1466.038
							c-18.682,0-37.309-4.098-54.769-12.244c-31.384-14.643-55.169-40.582-66.975-73.04s-10.243-67.617,4.399-99
							c14.643-31.384,40.582-55.169,73.04-66.975l0.342,0.939l-0.342-0.939c32.457-11.807,67.615-10.244,99,4.399
							c31.384,14.643,55.169,40.582,66.975,73.04s10.243,67.617-4.399,99c-14.643,31.384-40.582,55.169-73.04,66.975
							C1480.419,1463.432,1465.486,1466.038,1450.588,1466.038z M1450.515,1208.936c-14.67,0-29.367,2.565-43.547,7.723
							c-31.956,11.623-57.494,35.041-71.911,65.94c-14.417,30.9-15.956,65.516-4.333,97.472s35.041,57.494,65.941,71.911
							c30.898,14.416,65.514,15.955,97.471,4.333c31.956-11.623,57.494-35.041,71.911-65.94c14.417-30.9,15.956-65.516,4.333-97.472
							s-35.041-57.494-65.941-71.911C1487.25,1212.972,1468.905,1208.936,1450.515,1208.936z"/>
						<path style="fill:#FFFFFF;" d="M1512.215,1506.022c-45.284,16.471-94.272,14.321-137.94-6.053
							c-43.668-20.374-76.788-56.534-93.259-101.819c-16.471-45.284-14.321-94.272,6.053-137.94
							c20.374-43.668,56.534-76.787,101.818-93.258c45.285-16.471,94.273-14.321,137.941,6.053
							c43.667,20.374,76.787,56.534,93.258,101.818c16.471,45.285,14.322,94.273-6.052,137.941
							C1593.66,1456.431,1557.5,1489.551,1512.215,1506.022z M1404.092,1208.752c-70.433,25.618-106.892,103.761-81.274,174.194
							c25.618,70.433,103.761,106.893,174.194,81.275c70.433-25.618,106.893-103.761,81.274-174.195
							C1552.668,1219.593,1474.525,1183.134,1404.092,1208.752z"/>
						<g>
							<path style="fill:#D3BBA3;" d="M1322.817,1382.946c-4.183-11.502-6.701-23.209-7.696-34.86l-44.649,0.28
								c1.132,16.793,4.631,33.528,10.544,49.784c13.601,37.395,38.564,68.557,71.437,89.757l22.008-38.864
								C1351.474,1433.547,1332.997,1410.933,1322.817,1382.946z"/>
							<path style="fill:#ff6900;" d="M1462.473,1201.106c50.923,4.564,97.213,37.782,115.813,88.92
								c14.213,39.076,9.31,80.52-9.892,114.056l36.865,25.221c3.182-5.326,6.116-10.841,8.775-16.54
								c20.374-43.667,22.523-92.656,6.052-137.941c-16.471-45.284-49.591-81.444-93.258-101.818
								c-20.464-9.548-42.097-15.093-63.969-16.596L1462.473,1201.106z"/>
							<path style="fill:#D3BBA3;" d="M1314.999,1326.587c3.853-51.716,37.278-98.989,89.093-117.835
								c12.168-4.426,24.566-6.997,36.884-7.862l0.387-44.653c-17.695,0.925-35.349,4.486-52.474,10.714
								c-45.284,16.471-81.444,49.591-101.818,93.258c-9.939,21.302-15.529,43.871-16.748,66.658L1314.999,1326.587z"/>
							<path style="fill:#D3BBA3;" d="M1556.283,1421.845c-15.023,18.671-35.154,33.603-59.272,42.375
								c-35.193,12.801-72.312,10.102-103.841-4.59l-21.997,38.845c1.03,0.504,2.06,1.007,3.102,1.493
								c43.667,20.374,92.656,22.524,137.94,6.053c32.505-11.823,60.307-32.224,80.946-58.947L1556.283,1421.845z"/>
						</g>
					</g>
				</g>
				<g>
					<path style="fill:#D87355;" d="M1621.02,976.614c-0.844-54.044-44.89-97.6-99.135-97.6c-1.584,0-3.157,0.046-4.723,0.119
						v97.481H1621.02z"/>
					<path style="fill:#D3BBA3;" d="M1507.379,986.398v-60.585c-32.678,1.533-58.702,28.506-58.702,61.563
						c0,34.041,27.596,61.637,61.637,61.637c34.041,0,61.637-27.596,61.637-61.637c0-0.328-0.02-0.651-0.025-0.978H1507.379z"/>
				</g>
			</g>
		</g>
		<g>
			<g>
				<g>
					<path style="fill:#D87355;" d="M1243.324,969.997c56.968,71.593,43.63,131.384-0.166,191.891l-0.001-0.001v0.001
						c-78.044-77.913-23.353-191.811-23.353-191.811L1243.324,969.997z"/>
					<path style="fill:#D87355;" d="M965.839,970.941c-56.48,71.979-42.736,131.677,1.471,191.885l0.001-0.001l0,0.001
						c77.512-78.442,22.048-191.965,22.048-191.965L965.839,970.941z"/>
					<path style="fill:#D87355;" d="M1035.9,1042.489c0,0-49.13,122.981,80.135,212.947c0,0-3.745-36.609,26.984-68.972
						c45.111-47.508,49.205-97.03,27.661-144.433L1035.9,1042.489z"/>
				</g>
				<g>
					<path style="fill:#363E44;" d="M1255.009,1151.089c-0.264,0-0.519-0.104-0.706-0.292
						c-40.595-40.525-44.828-90.851-41.232-125.933c3.89-37.948,17.546-66.732,17.684-67.019c0.166-0.346,0.515-0.566,0.898-0.567
						l23.52-0.08c0.001,0,0.002,0,0.003,0c0.305,0,0.593,0.139,0.782,0.377c27.313,34.325,39.717,67.29,37.921,100.778
						c-1.571,29.284-13.665,58.62-38.06,92.321c-0.171,0.237-0.438,0.388-0.729,0.411
						C1255.062,1151.088,1255.035,1151.089,1255.009,1151.089z M1232.295,959.276c-1.911,4.19-13.694,31.152-17.241,65.853
						c-3.515,34.391,0.586,83.61,39.832,123.418c49.94-69.505,49.864-126.213-0.192-189.348L1232.295,959.276z"/>
					<path style="fill:#363E44;" d="M979.162,1152.026c-0.024,0-0.049-0.001-0.073-0.003c-0.292-0.021-0.56-0.169-0.733-0.405
						c-24.623-33.534-36.916-62.787-38.686-92.06c-2.024-33.477,10.154-66.524,37.233-101.034c0.189-0.241,0.478-0.382,0.784-0.383
						l23.519-0.08c0.001,0,0.002,0,0.003,0c0.382,0,0.73,0.218,0.898,0.561c0.14,0.286,13.99,28.977,18.139,66.897
						c3.835,35.057-0.057,85.409-40.374,126.21C979.685,1151.92,979.429,1152.026,979.162,1152.026z M978.179,960.14
						c-49.626,63.474-49.317,120.182,1.094,189.345c38.992-40.09,42.747-89.363,38.986-123.747
						c-3.792-34.665-15.743-61.5-17.682-65.674L978.179,960.14z"/>
					<path style="fill:#363E44;" d="M1127.886,1244.637c-0.2,0-0.4-0.061-0.571-0.18c-29.61-20.607-52.271-44.683-67.355-71.558
						c-12.077-21.517-19.348-44.859-21.611-69.381c-3.853-41.747,8.351-72.89,8.475-73.199c0.151-0.379,0.518-0.628,0.926-0.629
						l134.78-0.458c0.001,0,0.002,0,0.003,0c0.392,0,0.748,0.229,0.91,0.586c23.701,52.15,14.333,101.115-27.846,145.535
						c-30.065,31.664-26.752,67.82-26.715,68.182c0.039,0.389-0.15,0.765-0.487,0.963
						C1128.236,1244.591,1128.061,1244.637,1127.886,1244.637z M1048.443,1031.688c-1.681,4.581-11.627,33.693-8.096,71.738
						c3.504,37.751,21.388,92.233,86.436,138.215c-0.223-8.303,0.859-39.754,27.361-67.665
						c41.403-43.603,50.734-91.627,27.742-142.742L1048.443,1031.688z"/>
				</g>
				<g>
					<path style="fill:#363E44;" d="M1202.182,1353.393c-0.551,0-0.998-0.445-1-0.997l-0.612-179.938
						c-0.002-0.552,0.444-1.001,0.997-1.003c0.001,0,0.002,0,0.003,0c0.551,0,0.998,0.445,1,0.997l0.612,179.938
						c0.002,0.552-0.444,1.001-0.997,1.003C1202.184,1353.393,1202.183,1353.393,1202.182,1353.393z"/>
					<path style="fill:#363E44;" d="M1241.896,1269.808c-0.551,0-0.998-0.445-1-0.997l-0.24-70.55
						c-0.002-0.552,0.444-1.001,0.997-1.003c0.001,0,0.002,0,0.003,0c0.551,0,0.998,0.445,1,0.997l0.24,70.55
						c0.002,0.552-0.444,1.001-0.997,1.003C1241.897,1269.808,1241.896,1269.808,1241.896,1269.808z"/>
					<path style="fill:#363E44;" d="M1010.61,1284.981c-0.551,0-0.998-0.445-1-0.997l-0.412-121.301
						c-0.002-0.552,0.444-1.001,0.997-1.003c0.001,0,0.002,0,0.003,0c0.551,0,0.998,0.445,1,0.997l0.412,121.301
						c0.002,0.552-0.444,1.001-0.997,1.003C1010.612,1284.981,1010.611,1284.981,1010.61,1284.981z"/>
					<path style="fill:#363E44;" d="M987.354,1218.412c-0.551,0-0.998-0.445-1-0.997l-0.167-48.942
						c-0.002-0.552,0.444-1.001,0.997-1.003c0.001,0,0.002,0,0.003,0c0.551,0,0.998,0.445,1,0.997l0.167,48.942
						c0.002,0.552-0.444,1.001-0.997,1.003C987.356,1218.412,987.354,1218.412,987.354,1218.412z"/>
					<path style="fill:#363E44;" d="M1092.338,1425.116c-0.551,0-0.998-0.445-1-0.997l-0.549-161.318
						c-0.002-0.552,0.444-1.001,0.997-1.003c0.001,0,0.002,0,0.003,0c0.551,0,0.998,0.445,1,0.997l0.549,161.318
						c0.002,0.552-0.444,1.001-0.997,1.003C1092.34,1425.116,1092.339,1425.116,1092.338,1425.116z"/>
					<path style="fill:#363E44;" d="M1066.838,1377.977c-0.551,0-0.998-0.445-1-0.997l-0.285-83.814
						c-0.002-0.552,0.444-1.001,0.997-1.003c0.001,0,0.002,0,0.003,0c0.551,0,0.998,0.445,1,0.997l0.285,83.814
						c0.002,0.552-0.444,1.001-0.997,1.003C1066.84,1377.977,1066.839,1377.977,1066.838,1377.977z"/>
				</g>
				<path style="fill:#363E44;" d="M1024.653,1009.656c-0.551,0-0.998-0.445-1-0.997l-0.169-49.674
					c-0.001-0.265,0.104-0.52,0.29-0.708c0.188-0.188,0.441-0.294,0.707-0.295l172.006-0.585c0.001,0,0.002,0,0.003,0
					c0.551,0,0.998,0.445,1,0.997l0.169,49.674c0.001,0.265-0.104,0.519-0.29,0.708c-0.188,0.188-0.441,0.294-0.707,0.295
					l-172.006,0.585C1024.655,1009.656,1024.654,1009.656,1024.653,1009.656z M1025.487,959.979l0.163,47.674l170.006-0.579
					l-0.163-47.674L1025.487,959.979z"/>
			</g>
			<g>
				<path style="fill:#EFBC73;" d="M1209.895,495.767L1209.895,495.767c-27.601-68.655-53.999-107.149-101.483-147.385l-0.001,0.001
					v-0.001c-55.189,45.514-73.345,79.231-100.479,148.071l0,0l0,0l100.981-0.343L1209.895,495.767L1209.895,495.767z"/>
				<path style="fill:#EFBC73;" d="M1219.624,537.044l-2.319-7.209l-216.551,0.736l-2.27,7.225
					C963.19,650.129,945.57,808.544,945.971,926.29l0.079,23.385l328.808-1.118l-0.079-23.385
					C1274.379,807.426,1255.682,649.134,1219.624,537.044z"/>
				<g>
					
						<ellipse transform="matrix(0.1487 -0.9889 0.9889 0.1487 237.3213 1706.2589)" style="fill:#FFFFFF;" cx="1109.659" cy="715.293" rx="104.986" ry="104.986"/>
				</g>
				<path style="fill:#363E44;" d="M1000.696,514.352c-0.551,0-0.998-0.445-1-0.997c-0.002-0.552,0.444-1.001,0.997-1.003
					l216.551-0.736c0.001,0,0.002,0,0.003,0c0.551,0,0.998,0.445,1,0.997c0.002,0.552-0.444,1.001-0.997,1.003l-216.551,0.736
					C1000.698,514.352,1000.697,514.352,1000.696,514.352z"/>
			</g>
			<g>
				<path style="fill:#363E44;" d="M1109.97,790.302L1109.97,790.302c-10.519,0.123-19.146-8.304-19.27-18.823l-0.065-5.576
					l38.092-0.447l0.065,5.576C1128.916,781.552,1120.489,790.179,1109.97,790.302z"/>
				<path style="fill:#EFBC73;" d="M1160.341,690.359c-0.342-29.141-24.803-52.349-54.182-50.869
					c-26.189,1.319-47.484,22.554-48.825,48.742c-1.038,20.267,9.607,38.07,25.739,47.386l1.113,16.123
					c0.926,13.417,12.161,23.781,25.609,23.624l0,0c13.449-0.158,24.437-10.782,25.049-24.218l0.734-16.145
					C1150.606,725.846,1160.563,709.232,1160.341,690.359z"/>
				<path style="fill:#363E44;" d="M1098.219,760.761c-0.482,0-0.907-0.35-0.986-0.842l-10.476-65.188
					c-0.057-0.353,0.079-0.708,0.355-0.934c0.278-0.226,0.654-0.286,0.987-0.159l11.84,4.504l8.801-7.211
					c0.354-0.289,0.861-0.302,1.229-0.029l8.89,6.593l10.561-6.148c0.325-0.19,0.731-0.182,1.048,0.026
					c0.317,0.205,0.49,0.572,0.449,0.947l-7.428,67.318c-0.061,0.549-0.544,0.948-1.104,0.885c-0.549-0.061-0.945-0.555-0.885-1.104
					l7.21-65.347l-9.415,5.481c-0.346,0.202-0.778,0.178-1.099-0.062l-8.793-6.521l-8.646,7.084
					c-0.277,0.227-0.656,0.287-0.989,0.161l-10.764-4.095l10.201,63.48c0.088,0.545-0.283,1.058-0.829,1.146
					C1098.324,760.757,1098.271,760.761,1098.219,760.761z"/>
			</g>
		</g>
		<g>
			<g>
				<path style="fill:#9E6C5A;" d="M1732.824,1221.914c0,0-70.692,87.989,14.289,113.559l8.273,51.891l70.692,0.752l-18.049-83.477
					C1808.028,1304.639,1778.699,1239.963,1732.824,1221.914z"/>
				<path style="fill:#363E44;" d="M1727.849,1216.138c0,0-8.323,51.784,58.72,57.795c0,0-7.398,29.129,23.118,39.301
					c0,0,44.386-10.172,27.279-74.44C1819.859,1174.525,1728.774,1193.944,1727.849,1216.138z"/>
				<path style="fill:#363E44;" d="M1747.111,1336.474c-0.517,0-0.954-0.397-0.996-0.921c-0.043-0.551,0.367-1.032,0.918-1.076
					c0.157-0.013,15.853-1.345,24.939-9.085c0.421-0.357,1.051-0.308,1.41,0.113c0.357,0.421,0.308,1.052-0.113,1.41
					c-9.586,8.164-25.409,9.503-26.078,9.556C1747.164,1336.473,1747.138,1336.474,1747.111,1336.474z"/>
				<path style="fill:#363E44;" d="M1721.492,1308.289c-0.444,0-0.851-0.299-0.967-0.75c-0.139-0.534,0.183-1.079,0.717-1.218
					c0.082-0.021,8.188-2.18,10.727-7.509c0.236-0.499,0.833-0.711,1.332-0.473c0.499,0.237,0.711,0.834,0.473,1.332
					c-2.941,6.178-11.661,8.49-12.03,8.586C1721.659,1308.279,1721.575,1308.289,1721.492,1308.289z"/>
				<path style="fill:#363E44;" d="M1775.143,1269.265c-9.9,0-42.141-1.07-56.02-14.529c-5.617-5.447-8.088-11.318-7.344-17.45
					c1.647-13.571,18.354-23.47,19.064-23.884c0.477-0.278,1.09-0.117,1.367,0.359c0.278,0.477,0.118,1.089-0.358,1.367
					c-0.166,0.097-16.564,9.819-18.089,22.403c-0.662,5.476,1.608,10.781,6.752,15.769c15.542,15.071,57.028,13.939,57.452,13.93
					c0.565-0.034,1.014,0.415,1.03,0.968c0.018,0.552-0.415,1.014-0.968,1.03
					C1777.786,1269.235,1776.763,1269.265,1775.143,1269.265z"/>
				
					<ellipse transform="matrix(0.9239 -0.3827 0.3827 0.9239 -353.8675 776.0832)" style="fill:#9E6C5A;" cx="1773.881" cy="1277.547" rx="14.541" ry="14.541"/>
				<path style="fill:#363E44;" d="M1781.588,1278.547c-0.553,0-1-0.447-1-1c0-3.698-3.009-6.707-6.707-6.707c-0.553,0-1-0.447-1-1
					s0.447-1,1-1c4.801,0,8.707,3.906,8.707,8.707C1782.588,1278.1,1782.141,1278.547,1781.588,1278.547z"/>
			</g>
			<g>
				<g>
					<path style="fill:#9E6C5A;" d="M1496.746,1226.087c0,0-34.763-85.631-42.673-129.37c-5.457-30.173-14.764-26.144-18.595-18.746
						c-3.546,6.848-2.078,17.602-2.128,26.45c-0.018,3.105-0.184,5.982-0.4,8.445c-0.194,2.213-3.278,2.577-3.984,0.472
						c-4.15-12.381-12.255-34.411-13.294-65.078c-0.187-5.524-0.626-16.746-3.166-25.305c-2.887-5.898-11.519-5.786-13.941,0.316
						c-0.412,1.037-0.775,2.231-1.069,3.603c0,0-0.157-2.195-0.879-4.964c-2.28-8.744-14.009-10.138-18.375-2.227
						c-1.459,2.644-2.836,5.804-3.722,9.377c0,0-2.177-6.533-9.512-2.897s-6.92,22.13-6.92,22.13s-16.412,12.778-11.794,45.278
						c4.618,32.499,33.648,116.229,54.907,175.553L1496.746,1226.087z"/>
					<path style="fill:#363E44;" d="M1401.809,1099.102c-0.433,0-0.832-0.282-0.96-0.719c-6.188-21.078-6.431-43.562-5.546-58.712
						c0.032-0.551,0.469-0.956,1.057-0.939c0.551,0.032,0.972,0.505,0.939,1.057c-0.875,14.991-0.638,37.229,5.47,58.032
						c0.155,0.529-0.148,1.085-0.679,1.241C1401.996,1099.089,1401.901,1099.102,1401.809,1099.102z"/>
					<path style="fill:#363E44;" d="M1382.977,1104.077c-0.412,0-0.798-0.256-0.942-0.666c-5.976-16.891-7.922-35.929-8.503-48.925
						c-0.024-0.552,0.402-1.02,0.954-1.044c0.56-0.019,1.019,0.402,1.044,0.954c0.575,12.861,2.497,31.688,8.39,48.347
						c0.185,0.521-0.088,1.093-0.608,1.276C1383.2,1104.059,1383.087,1104.077,1382.977,1104.077z"/>
					<path style="fill:#363E44;" d="M1365.366,1106.748c-0.414,0-0.801-0.259-0.944-0.672c-3.317-9.544-5.57-21.014-6.697-34.09
						c-0.048-0.551,0.36-1.035,0.91-1.082c0.553-0.052,1.035,0.361,1.082,0.91c1.113,12.911,3.331,24.218,6.594,33.605
						c0.182,0.521-0.095,1.092-0.616,1.272C1365.586,1106.73,1365.475,1106.748,1365.366,1106.748z"/>
				</g>
				<g>
					<path style="fill:#9E6C5A;" d="M2110.525,1830.736l2.773,75.537c0,0,7.328,21.985,23.635,40.38
						c2.466,2.782,4.033,6.254,4.474,9.946c0.51,4.27-0.267,9.419-5.512,12.757c0,0-3.914,2.081-12.369,0.431
						c0,0,2.681,8.868-5.362,14.848c-8.043,5.98-20.003-2.887-20.003-2.887s-1.031,8.042-9.074,10.723
						c-8.042,2.681-16.498-3.093-16.498-3.093s-3.926,13.086-24.95,3.837c-3.068-1.349-5.77-3.304-8.025-5.783
						c-7.237-7.957-21.481-29.545-33.36-83.66l1.435-73.036H2110.525z"/>
					<path style="fill:#363E44;" d="M2034.015,1959.954c-0.349,0-0.688-0.183-0.872-0.508c-0.271-0.481-0.102-1.091,0.379-1.363
						c4.955-2.799,11.02-8.242,11.772-18.282c0.471-6.283,0.686-11.341,0.857-15.404c0.354-8.357,0.568-13.402,2.533-18.643
						c0.843-2.246,2.723-4.782,5.104-7.993c6.015-8.112,14.252-19.222,12.91-35.332c-0.046-0.551,0.362-1.034,0.913-1.079
						c0.558-0.058,1.034,0.363,1.079,0.913c1.405,16.861-7.441,28.794-13.296,36.689c-2.197,2.962-4.095,5.521-4.838,7.505
						c-1.854,4.94-2.051,9.588-2.408,18.023c-0.173,4.079-0.388,9.154-0.861,15.471c-0.818,10.92-7.403,16.835-12.782,19.874
						C2034.351,1959.912,2034.182,1959.954,2034.015,1959.954z"/>
					<path style="fill:#363E44;" d="M2116.853,1964.412c-0.264,0-0.526-0.104-0.723-0.309c-24.915-26.05-31.33-59.911-31.392-60.25
						c-0.1-0.543,0.261-1.064,0.804-1.163c0.543-0.104,1.064,0.261,1.163,0.804c0.062,0.333,6.382,33.624,30.87,59.227
						c0.382,0.399,0.367,1.032-0.031,1.414C2117.35,1964.32,2117.102,1964.412,2116.853,1964.412z"/>
					<path style="fill:#363E44;" d="M2088.381,1972.26c-0.291,0-0.579-0.126-0.777-0.369c-8.046-9.896-18.164-25.677-20.677-44.659
						c-0.072-0.547,0.313-1.05,0.86-1.122c0.547-0.075,1.05,0.313,1.122,0.86c2.451,18.519,12.363,33.963,20.247,43.659
						c0.348,0.429,0.283,1.059-0.146,1.407C2088.825,1972.187,2088.603,1972.26,2088.381,1972.26z"/>
					<path style="fill:#363E44;" d="M2062.171,1976.931c-0.323,0-0.64-0.156-0.833-0.444c-5.54-8.296-12.817-21.345-16.025-36.402
						c-0.114-0.54,0.229-1.071,0.771-1.187c0.533-0.111,1.071,0.229,1.187,0.771c3.142,14.746,10.289,27.558,15.732,35.707
						c0.307,0.46,0.183,1.08-0.276,1.388C2062.555,1976.876,2062.361,1976.931,2062.171,1976.931z"/>
				</g>
				<g>
					<path style="fill:#EFBC73;" d="M1476.332,1162.983c0,0,79.307,174.118,271.214,213.454l149.982,13.562
						c56.067,5.07,105.761,38.315,131.621,88.32c33.891,65.532,71.791,176.299,81.376,352.417h-102.836
						c0,0-2.285-155.396-59.416-235.379l-4.57,107.406H1719.75v-82.268c0,0-38.849-31.993-47.99-105.121
						c0,0-219.383-52.56-299.366-315.362L1476.332,1162.983z"/>
					<path style="fill:#363E44;" d="M1709.489,1525.786c-0.08,0-0.162-0.01-0.243-0.029l-37.729-9.412
						c-0.536-0.134-0.861-0.677-0.729-1.213c0.135-0.536,0.674-0.861,1.213-0.729l37.729,9.412c0.536,0.134,0.861,0.677,0.729,1.213
						C1710.345,1525.482,1709.938,1525.786,1709.489,1525.786z"/>
					<path style="fill:#363E44;" d="M1950.075,1596.549c-0.023,0-0.047-0.001-0.07-0.002c-0.551-0.039-0.967-0.517-0.929-1.067
						l5.262-75.541c0.039-0.552,0.521-0.964,1.067-0.929c0.551,0.039,0.967,0.517,0.929,1.067l-5.262,75.541
						C1951.035,1596.146,1950.596,1596.549,1950.075,1596.549z"/>
				</g>
			</g>
			<g>
				<path style="fill:#363E44;" d="M1943.703,1702.763c0,0,122.256,78.075,69.161,263.91l40.929,189.518h-430.155
					c0,0,8.14-70.537,96.112-453.428H1943.703z"/>
				<path style="fill:#F7F1EB;" d="M1849.468,2157.19c-0.07,0-0.141-0.007-0.212-0.022c-0.54-0.116-0.883-0.648-0.767-1.188
					l38.309-177.477c0.059-0.271,0.227-0.506,0.465-0.647c37.867-22.599,50.24-53.59,53.951-75.608
					c4.022-23.867-0.959-42.59-1.01-42.776c-0.146-0.532,0.169-1.082,0.702-1.228c0.529-0.147,1.083,0.168,1.228,0.702
					c0.052,0.19,5.147,19.338,1.052,43.635c-3.769,22.361-16.293,53.798-54.524,76.769l-38.217,177.053
					C1850.343,2156.87,1849.929,2157.19,1849.468,2157.19z"/>
			</g>
			<g>
				<path style="fill:#363E44;" d="M1833.282,1232.828c0,0,66.292-15.043,82.443,81.863s7.022,198.728,7.022,198.728h-94.097
					c0,0,59.689-158.701,8.427-252.096l-10.476-22.274L1833.282,1232.828z"/>
				<path style="fill:#363E44;" d="M1814.006,1508.935c-0.145,0-0.291-0.031-0.431-0.098c-0.498-0.238-0.709-0.835-0.471-1.334
					c0.143-0.298,14.385-30.324,25.875-73.799c10.596-40.089,20.951-100.14,10.117-158.563c-0.101-0.543,0.258-1.065,0.801-1.166
					c0.544-0.105,1.065,0.258,1.166,0.801c10.904,58.805,0.493,119.185-10.162,159.482c-11.539,43.645-25.849,73.809-25.992,74.108
					C1814.737,1508.725,1814.379,1508.935,1814.006,1508.935z"/>
				<path style="fill:#EFBC73;" d="M1840.866,1270.408c-0.291,0-0.578-0.126-0.776-0.368c-14.881-18.246-5.804-38.02-5.711-38.218
					c0.236-0.499,0.831-0.709,1.331-0.477c0.499,0.235,0.713,0.831,0.478,1.331c-0.088,0.187-8.612,18.854,5.453,36.1
					c0.349,0.428,0.284,1.058-0.144,1.407C1841.312,1270.335,1841.088,1270.408,1840.866,1270.408z"/>
			</g>
		</g>
		<g>
			<g>
				<g>
					<path style="fill:#9E6C5A;" d="M670.229,989.871c0,0,91.442-94.567,105.167-100.711c0,0,12.304-4.395,7.186,9.214
						c-4.379,11.643-18.988,19.01-21.714,26.917c0,0,29.922-29.058,43.002-38.905c6.797-5.117,14.973-7.44,16.411-3.41
						c1.674,4.691-3.369,11.963-6.821,15.908c-7.298,8.34-17.432,19.914-27.262,32.693c-0.354,0.46,0.359,0.842,0.798,0.462
						c16.477-14.291,50.222-53.916,63.969-46.733c0,0,5.154,3.468-7.175,18.016c-9.273,10.942-23.672,24.323-32.295,35.989
						c-0.282,0.382,0.306,0.844,0.676,0.546c17.012-13.667,23.872-19.719,37.313-27.563c4.483-2.617,15.751-7.748,19.605-4.271
						c3.212,2.898-0.125,11.191-6.474,19.621c-11.939,15.851-28.211,31.639-44.093,51.322c-1.593,1.974,0.581,4.709,2.887,3.651
						c8.36-3.835,22.211-13.017,30.618-14.713c16.609-3.352,4.783,15.563-6.018,27.517c-10.801,11.954-97.756,72.06-97.756,72.06
						L670.229,989.871z"/>
					<path style="fill:#363E44;" d="M753.888,932.791c-0.242,0-0.484-0.087-0.677-0.264c-0.406-0.374-0.434-1.007-0.059-1.413
						l7.621-8.292c0.375-0.407,1.008-0.433,1.413-0.06c0.406,0.374,0.434,1.007,0.06,1.413l-7.621,8.292
						C754.427,932.683,754.157,932.791,753.888,932.791z"/>
					<path style="fill:#363E44;" d="M775.396,945.113c-0.232,0-0.463-0.079-0.651-0.241c-0.419-0.359-0.467-0.991-0.107-1.41
						l10.829-12.612c0.362-0.419,0.994-0.466,1.41-0.107c0.419,0.359,0.467,0.991,0.107,1.41l-10.829,12.612
						C775.957,944.995,775.678,945.113,775.396,945.113z"/>
					<path style="fill:#363E44;" d="M799.653,953.069c-0.256,0-0.511-0.098-0.706-0.292c-0.391-0.39-0.392-1.022-0.002-1.414
						l11.153-11.189c0.391-0.392,1.023-0.391,1.414-0.002c0.391,0.39,0.392,1.022,0.002,1.414l-11.153,11.19
						C800.166,952.972,799.91,953.069,799.653,953.069z"/>
				</g>
				<path style="fill:#ff6900;" d="M354.121,1561.851c0,0-16.928-137.398,117.854-339.772
					c100.412-150.768,193.687-241.711,193.687-241.711l98.636,90.826c0,0-169.723,197.628-224.961,410.399
					S354.121,1561.851,354.121,1561.851z"/>
			</g>
			<g>
				<path style="fill:#9E6C5A;" d="M386.738,1836.378c0,0-18.052,56.499-28.085,172.363c-3.345,38.621,4.005,97.349,6.942,144.766
					h370.678l-49.162-317.129H386.738z"/>
				<path style="fill:#363E44;" d="M530.864,2150.464c-0.443,0-0.848-0.297-0.966-0.745
					c-25.493-96.875-28.342-182.262-28.368-183.113c-0.017-0.552,0.418-1.013,0.97-1.03c0.579,0.017,1.014,0.417,1.03,0.97
					c0.025,0.849,2.87,86.021,28.302,182.664c0.141,0.534-0.178,1.081-0.712,1.222
					C531.034,2150.453,530.949,2150.464,530.864,2150.464z"/>
			</g>
			<g>
				<path style="fill:#9E6C5A;" d="M624.36,1335.037c-8.942-33.097-17.071-51.6-35.252-61.934
					c-24.433-13.888-52.771-1.457-55.71-0.115c-1.876,0.857-29.284,11.434-35.977,40.228c-6.609,28.436,2.071,59.379,23.69,78.602
					l-5.067,64.295c-1.627,20.641,13.787,38.693,34.429,40.32l4.675,0.369c20.641,1.627,38.693-13.788,40.32-34.429l3.385-42.95
					c13.181-0.064,23.839-3.042,28.514-9.347C635.741,1398.781,634.891,1374.012,624.36,1335.037z"/>
				<path style="fill:#363E44;" d="M599.524,1419.451c-0.018,0-0.035,0-0.053-0.001c-0.552-0.029-0.976-0.499-0.947-1.051
					l0.821-15.757c0.029-0.553,0.507-0.988,1.051-0.947c0.552,0.029,0.976,0.499,0.947,1.051l-0.821,15.757
					C600.494,1419.037,600.053,1419.451,599.524,1419.451z"/>
				<path style="fill:#363E44;" d="M581.794,1370.746c-0.298,0-0.592-0.132-0.789-0.385c-1.639-2.101-3.078-4.016-4.602-6.044
					c-1.234-1.642-2.507-3.335-3.949-5.211c-0.336-0.438-0.255-1.065,0.184-1.402c0.438-0.336,1.064-0.256,1.402,0.184
					c1.447,1.882,2.724,3.581,3.962,5.229c1.518,2.021,2.952,3.929,4.579,6.015c0.34,0.436,0.263,1.064-0.173,1.403
					C582.226,1370.677,582.009,1370.746,581.794,1370.746z"/>
				<path style="fill:#363E44;" d="M456.14,1324.153c-2.411-17.016,9.429-32.765,26.446-35.177c0.026-0.004,0.053-0.006,0.08-0.009
					c-2.027-3.15-3.444-6.761-4.004-10.713c-2.077-14.654,8.12-28.218,22.774-30.294c3.062-0.434,6.067-0.304,8.938,0.262
					c-1.184-14.056,8.772-26.76,22.914-28.764c7.991-1.132,15.642,1.403,21.298,6.303c4.279-9.335,13.068-16.37,23.991-17.917
					c16.521-2.341,31.852,8.718,34.997,24.914c0.778-0.182,1.564-0.345,2.37-0.459c14.655-2.077,28.218,8.12,30.294,22.774
					c2.076,14.654-8.12,28.218-22.774,30.294c-0.423,0.06-0.841,0.075-1.262,0.114c1.645,26.128-25.346,32.895-26.918,33.518
					c4.7,11.431,9.399,22.863,14.098,34.294c-4.349,1.897-9.51,4.466-13.86,6.363c-4.298-12.099-9.855-16.27-16.966-16.563
					c-11.2-0.463-20.077,10.914-19.65,21.764c0.391,9.904,5.274,19.671,15.339,23.891c-11.043,1.739-22.649,3.238-34.789,4.399
					c-6.333,0.606-12.536,1.093-18.598,1.475c-3.972-1.901-29.567-14.692-38.264-44.023
					C469.215,1348.713,458.13,1338.202,456.14,1324.153z"/>
			</g>
			<g>
				<g>
					<g>
						<path style="fill:#9E6C5A;" d="M941.266,1606.501c0,0,153.777-42.046,171.56-59.554c1.862-1.833,5.134-5.084,10.374-7.999
							c19.412-10.801,34.718,0.319,60.312-1.724c29.04-2.318,44.08-20.065,49.311-14.775c3.639,3.68-0.15,11.971-13.407,24.693
							c-0.001,0.001,0,0.003,0.002,0.002c11.183-8.508,26.854-19.384,31.537-13.19c5.026,7.441-11.885,22.381-22.556,30.919
							c12.917-10.334,22.877-11.965,24.628-7.861c2.756,6.46-5.395,16.807-22.996,29.803c-0.001,0.001,0,0.002,0.001,0.001
							c14.66-5.578,19.048-4.747,19.711-0.742c1.211,7.313-14.208,19.692-28.59,26.908c-16.19,8.124-47.651,12.49-56.698,16.006
							c-18.648,7.247-126.406,53.391-132.653,53.809C995.804,1685.203,941.266,1606.501,941.266,1606.501z"/>
						<path style="fill:#9E6C5A;" d="M1156.957,1545.683c18.941-21.729,21.168-33.581,17.629-36.473
							c-5.952-4.863-27.124,6.748-58.807,35.019C1127.945,1545.638,1144.791,1544.273,1156.957,1545.683z"/>
						<path style="fill:#363E44;" d="M1147.345,1537.017c-0.514,0-0.951-0.394-0.995-0.915c-0.047-0.551,0.361-1.034,0.911-1.081
							c8.897-0.757,15.506-0.856,20.796-0.317c0.55,0.057,0.949,0.547,0.894,1.097c-0.057,0.55-0.555,0.946-1.097,0.894
							c-5.163-0.526-11.653-0.426-20.423,0.319C1147.401,1537.016,1147.373,1537.017,1147.345,1537.017z"/>
						<path style="fill:#363E44;" d="M1190.561,1558.607c-0.499,0-0.931-0.373-0.992-0.881c-0.065-0.548,0.325-1.046,0.874-1.112
							c3.424-0.412,6.821-1.144,10.099-2.175c4.758-1.497,9.309-3.632,13.525-6.346c0.464-0.298,1.083-0.164,1.382,0.3
							s0.165,1.083-0.3,1.382c-4.366,2.811-9.079,5.021-14.008,6.572c-3.395,1.067-6.913,1.825-10.46,2.253
							C1190.641,1558.605,1190.601,1558.607,1190.561,1558.607z"/>
						<path style="fill:#363E44;" d="M1201.168,1574.939c-0.499,0-0.931-0.373-0.992-0.881c-0.065-0.548,0.325-1.046,0.874-1.112
							c3.424-0.412,6.821-1.144,10.098-2.175c4.755-1.496,9.306-3.631,13.526-6.346c0.464-0.298,1.083-0.164,1.382,0.3
							c0.299,0.465,0.165,1.083-0.3,1.382c-4.37,2.812-9.083,5.022-14.009,6.572c-3.394,1.067-6.912,1.825-10.459,2.253
							C1201.248,1574.938,1201.208,1574.939,1201.168,1574.939z"/>
						<path style="fill:#363E44;" d="M1201.549,1598.628c-0.499,0-0.931-0.373-0.992-0.881c-0.065-0.548,0.325-1.046,0.874-1.112
							c3.42-0.412,6.817-1.144,10.098-2.176c4.756-1.495,9.308-3.631,13.526-6.346c0.464-0.298,1.083-0.164,1.382,0.3
							s0.165,1.083-0.3,1.382c-4.369,2.812-9.082,5.023-14.009,6.572c-3.396,1.068-6.916,1.827-10.459,2.254
							C1201.629,1598.626,1201.589,1598.628,1201.549,1598.628z"/>
					</g>
					<path style="fill:#ff6900;" d="M623.894,1454.954l19.414,2.454c59.976,8.924,112.849,29.959,157.245,67.173l99.269,83.211
						l145.057-47.657l51.535,116.16l-219.011,74.353c-25.975,10.45-55.267,8.699-79.812-4.771l-66.911-40.055l13.996,130.557
						H386.738l-31.537-253.289c-9.956-67.882,35.67-120.23,104.1-125.169l59.48-4.292
						C553.794,1451.102,588.957,1451.545,623.894,1454.954z"/>
				</g>
				<path style="fill:#363E44;" d="M459.301,1458.921c-0.519,0-0.957-0.4-0.996-0.926c-0.041-0.551,0.372-1.03,0.923-1.071
					c1.003-0.074,100.653-7.389,137.176-5.443c0.551,0.03,0.975,0.501,0.945,1.053c-0.03,0.552-0.481,0.99-1.053,0.945
					c-36.383-1.938-135.919,5.365-136.92,5.439C459.351,1458.92,459.325,1458.921,459.301,1458.921z"/>
				<path style="fill:#363E44;" d="M730.263,1707.235c-0.161,0-0.324-0.039-0.477-0.121l-48.146-26.148
					c-0.485-0.264-0.665-0.871-0.401-1.356c0.265-0.484,0.869-0.664,1.356-0.401l48.146,26.148c0.485,0.264,0.665,0.871,0.401,1.356
					C730.961,1707.046,730.617,1707.235,730.263,1707.235z"/>
			</g>
		</g>
		<g>
			<g>
				<path style="fill:#FFFFFF;" d="M1515.337,490.81l-9.127,4.563c-3.044-4.042-6.375-7.788-9.947-11.226l5.617-8.511l-28.833-19.04
					l0,0l-5.629,8.531c-4.608-1.95-9.362-3.536-14.217-4.742l0.609-10.205l-34.481-2.077l0,0l-0.607,10.182
					c-4.919,0.606-9.829,1.603-14.687,3.01l-4.568-9.131l-30.889,15.442v0l4.568,9.131c-4.04,3.042-7.783,6.371-11.219,9.941
					l-8.514-5.622h0l-19.021,28.824l8.533,5.635c-1.947,4.607-3.53,9.36-4.733,14.215l-10.205-0.615l0,0l-2.056,34.482l0,0
					l10.181,0.613c0.609,4.92,1.609,9.831,3.018,14.69l-9.127,4.563v0l15.459,30.901l9.127-4.563
					c3.044,4.042,6.375,7.788,9.947,11.226l-5.616,8.511l0,0l28.833,19.04h0l5.629-8.53c4.608,1.95,9.362,3.536,14.217,4.742
					l-0.609,10.205l34.481,2.077l0,0l0.607-10.182c4.919-0.606,9.829-1.603,14.688-3.01l4.568,9.13l0,0l30.889-15.442l-4.568-9.131
					c4.04-3.042,7.783-6.371,11.219-9.941l8.514,5.622l0,0l19.021-28.824l-8.533-5.635c1.947-4.607,3.53-9.36,4.733-14.215
					l10.204,0.615v0l2.057-34.482l0,0l-10.181-0.613c-0.609-4.92-1.609-9.831-3.018-14.69l9.127-4.563L1515.337,490.81z
					 M1496.746,548.047c1.802,17.513-4.046,35.079-15.986,48.009c-40.566,43.931-110.584,20.577-116.709-38.929
					c-1.803-17.513,4.046-35.08,15.986-48.009C1420.603,465.186,1490.621,488.541,1496.746,548.047z"/>
			</g>
			<path style="fill:#F2E6DC;" d="M1430.567,629.146c-28.11,0.001-55.222-15.523-68.634-42.332
				c-8.255-16.501-10.281-35.415-5.705-53.259c4.53-17.666,15.197-33.14,30.035-43.57c0.452-0.318,1.075-0.208,1.394,0.243
				c0.317,0.452,0.209,1.075-0.243,1.394c-29.89,21.012-40.075,61.551-23.691,94.298c18.399,36.778,63.278,51.751,100.046,33.369
				c30.378-15.186,46.654-48.971,39.58-82.158c-0.114-0.54,0.229-1.071,0.771-1.186c0.532-0.113,1.071,0.228,1.187,0.771
				c7.263,34.077-9.449,68.769-40.643,84.363C1453.711,626.552,1442.055,629.144,1430.567,629.146z"/>
		</g>
		<g>
			<g>
				<path style="fill:#D3BBA3;" d="M1032.176,1986.065l-8.492,4.245c-2.706-3.51-5.683-6.75-8.889-9.713l5.354-7.661l-26.07-16.204
					h0l-5.366,7.678c-4.191-1.622-8.524-2.919-12.959-3.877l0.79-9.048l-31.643-1.061l0,0l-0.788,9.027
					c-4.535,0.648-9.07,1.641-13.567,2.996l-3.992-7.98l-28.738,14.367v0l3.992,7.98c-3.782,2.784-7.297,5.815-10.536,9.054
					l-7.698-4.785l0,0l-18.132,25.945l7.715,4.796c-1.893,4.122-3.455,8.366-4.671,12.691l-9.365-0.314v0l-2.668,30.571l0,0
					l9.344,0.313c0.449,4.341,1.257,8.666,2.443,12.936l-8.492,4.245l0,0l13.511,27.006l8.492-4.245
					c2.706,3.51,5.683,6.75,8.889,9.713l-5.354,7.661l0,0l26.07,16.204h0l5.366-7.678c4.191,1.622,8.524,2.919,12.959,3.877
					l-0.79,9.047l31.643,1.061l0,0l0.788-9.027c4.535-0.648,9.07-1.641,13.567-2.996l3.992,7.979l0,0l28.738-14.367l-3.992-7.979
					c3.782-2.784,7.297-5.815,10.536-9.054l7.698,4.785h0l18.132-25.945l-7.715-4.796c1.894-4.122,3.456-8.366,4.671-12.69
					l9.365,0.314h0l2.668-30.571l0,0l-9.344-0.313c-0.449-4.341-1.257-8.666-2.442-12.936l8.491-4.245L1032.176,1986.065z
					 M1013.798,2037.152c1.262,15.463-4.51,31.145-15.775,42.86c-38.274,39.804-102.098,20.711-106.385-31.827
					c-1.262-15.463,4.51-31.145,15.775-42.86C945.688,1965.52,1009.512,1984.614,1013.798,2037.152z"/>
			</g>
			<path style="fill:#F2E6DC;" d="M949.403,2110.573c-25.213,0-48.968-13.091-60.444-36.03c-7.233-14.458-8.673-31.195-4.055-47.129
				c4.567-15.757,14.727-29.706,28.606-39.279c0.453-0.313,1.076-0.199,1.391,0.256c0.313,0.454,0.199,1.077-0.256,1.391
				c-27.912,19.252-38.185,55.308-23.898,83.867c16.049,32.081,56.907,44.282,91.077,27.2c28.24-14.118,43.953-44.352,38.21-73.522
				c-0.107-0.542,0.246-1.067,0.788-1.175c0.549-0.106,1.068,0.247,1.175,0.788c5.916,30.052-10.236,61.18-39.278,75.698
				C971.952,2108.021,960.535,2110.572,949.403,2110.573z"/>
		</g>
	</g>
</g>
</svg>
