<?xml version="1.0" encoding="utf-8"?>
<!-- Generator: Adobe Illustrator 27.5.0, SVG Export Plug-In . SVG Version: 6.00 Build 0)  -->
<svg version="1.1" xmlns="http://www.w3.org/2000/svg" xmlns:xlink="http://www.w3.org/1999/xlink" x="0px" y="0px"
	 viewBox="0 0 2500 2500" style="enable-background:new 0 0 2500 2500;" xml:space="preserve">
-
<g id="Illustration">
	<g id="Electric_trucks_1_">
		<circle style="fill:transparent;" cx="1250" cy="1250" r="915"/>
		<path style="fill:#E6D0BE;" d="M510.412,1787.976c166.407,229.301,435.696,376.161,739.588,376.161
			s573.181-146.86,739.588-376.161H510.412z"/>
		<g>
			<g>
				<g>
					<g>
						<path style="fill:#E6D0BE;" d="M2033.362,1321.905v-41.329l-9.275-8.072v-32.611l-21.704-18.889v34.387l-13.078,11.381
							l-20.87-18.162l18.922-16.467l-33.391-29.06l-72.347,62.962h-22.261l-32.016,27.862c-0.499,32.996-1.02,83.533,0.479,83.533
							c2.226,0,55.652,0,55.652,0v-16.79h41.554v24.54h20.035v26.476l26.342,22.925l74.944-65.223v-47.464H2033.362z"/>
					</g>
					<path style="fill:#E6D0BE;" d="M768.207,1066.181c0-5.812-4.452-85.241,0-85.241c4.452,0-55.652,0-55.652,0v-44.559h75.686
						l27.826,24.216v-47.464l57.322-49.885h57.322v-35.356h75.687V723.279l-28.94-25.185l-60.104,52.307l-26.713-23.248
						l60.104-52.307l14.47,12.592l33.391-29.06l42.295,36.809l23.374-20.341v-44.558H955.198l26.713-23.247H826.085l-43.965-38.262
						h-60.66L589.286,683.806h54.261l36.313-31.603l37.148,32.329l-38.956,33.903v57.15l-45.774,39.835v155.832L768.207,1066.181z"
						/>
					<path style="fill:#E6D0BE;" d="M801.893,1066.181h76.796l107.163,93.262h44.759v62.75l-32.555,28.331v68.313
						c0,0-25.861,16.709-25.861,22.507c0,5.798,0,155.448,0,155.448l29.208,25.419v25.433L870.92,1434.088v-89.851l-39.263-34.17
						v-48.646l-58.288-50.727v-97.156L801.893,1066.181z"/>
					<path style="fill:#E6D0BE;" d="M1127.441,985.369v120.592c0,0,100.169-11.623,100.169,0c0,11.623,60.101,52.304,60.101,52.304
						v56.664c0,0,0,55.21,0,61.022s42.17,36.699,42.17,36.699v56.287h56.329l53.867-46.88v-79.523l35.798-31.155v-73.454
						l53.666-46.704l-25.95-22.584h-38.916l-32.814-28.557v-85.221l49.796,43.337l-30.338,26.403l27.546,23.973l51.754-45.04
						v-19.614h47.58l43.406,37.775v30.511l35.894,31.238l75.961-66.107l22.538,19.614v57.39h40.902l-20.034-17.435v-24.699
						l22.221,19.339l17.011,14.804l43.407-37.775l-37.623-32.743l65.11-56.663l-60.041-52.253l99.796-86.85l-69.283-60.296
						l66.965-58.278v36.887l58.942,51.296v-46.937l-34.293-29.845l69.539-60.518h-38.074v-25.87h-293.828l-53.423-46.493
						l-65.109,56.663l16.695,14.529l-62.605,54.484l-25.042-21.793l-36.729,31.964l-55.928-48.672l-92.656,80.636l25.042,21.794
						v19.614l17.112-14.892v-30.148h32.137v10.734l-52.816,45.965l-21.095-18.359l-61.217,53.276v16.306l-12.707,11.058H1208.6
						v14.127l-15.954,13.884l23.838,20.745h26.991V887.95l21.982-19.131l18.922,16.467c0,0,9.739-18.162,15.304-13.319
						c5.565,4.843,23.93,18.404,23.93,20.826c0,2.422,2.783,15.014,0,15.014c-2.782,0,11.13-9.686,11.13-9.686v-15.983
						l-17.252-15.014l6.957-6.054l18.921,16.468v20.099l14.887,12.956v-11.503l13.009-11.321l31.165-27.122V844.36h20.243v18.404
						c0,0,12.522-1.211,13.913,0c1.391,1.211,14.191,12.351,14.191,12.351v12.35h-31.443v-9.686h-21.705l-20.313,17.678v10.897
						l13.774,11.987h31.582v21.916h-58.434l-16.417-14.288l-23.652,20.584l-20.869-18.162v-16.225h-41.461l-19.2,16.71h-41.461
						l-51.797,45.078v10.862L1127.441,985.369z"/>
				</g>
			</g>
			<g>
				<g>
					<path style="fill:#ff6900;" d="M1771.031,1084.725c-0.239,0-0.482-0.039-0.719-0.121c-1.152-0.398-1.763-1.654-1.365-2.803
						c0.784-2.269,1.522-4.569,2.192-6.834c0.347-1.165,1.574-1.835,2.741-1.488s1.832,1.572,1.488,2.741
						c-0.689,2.328-1.447,4.689-2.252,7.019C1772.798,1084.152,1771.946,1084.725,1771.031,1084.725z M1778.039,1056.299
						c-0.11,0-0.22-0.009-0.331-0.024c-1.204-0.183-2.033-1.305-1.852-2.51c1.07-7.095,1.662-14.381,1.761-21.659
						c0.017-1.208,1.001-2.175,2.205-2.175c0.009,0,0.019,0,0.03,0c1.217,0.017,2.192,1.016,2.175,2.235
						c-0.101,7.476-0.711,14.964-1.809,22.257C1780.052,1055.516,1779.111,1056.299,1778.039,1056.299z M1778.685,1012.354
						c-1.105,0-2.058-0.827-2.188-1.951c-0.818-7.069-2.091-14.28-3.783-21.432c-0.28-1.186,0.454-2.373,1.639-2.655
						c1.195-0.276,2.373,0.454,2.655,1.638c1.729,7.321,3.032,14.704,3.869,21.941c0.14,1.21-0.728,2.304-1.936,2.444
						C1778.855,1012.349,1778.769,1012.354,1778.685,1012.354z M1768.654,969.532c-0.911,0-1.761-0.568-2.08-1.475
						c-2.353-6.707-5.109-13.515-8.195-20.237c-0.508-1.107-0.021-2.416,1.085-2.924c1.104-0.504,2.414-0.024,2.924,1.085
						c3.141,6.845,5.949,13.782,8.346,20.616c0.403,1.15-0.2,2.407-1.35,2.81C1769.142,969.493,1768.895,969.532,1768.654,969.532z
						 M1750.352,929.479c-0.771,0-1.518-0.405-1.923-1.122c-3.499-6.21-7.353-12.484-11.455-18.648
						c-0.674-1.014-0.398-2.381,0.616-3.057c1.008-0.676,2.379-0.403,3.057,0.616c4.16,6.253,8.07,12.62,11.623,18.924
						c0.599,1.061,0.222,2.407-0.838,3.004C1751.09,929.389,1750.718,929.479,1750.352,929.479z M1725.978,892.761
						c-0.663,0-1.318-0.297-1.753-0.863c-4.358-5.686-9.026-11.397-13.873-16.969c-0.799-0.919-0.702-2.312,0.218-3.111
						c0.917-0.794,2.308-0.704,3.111,0.217c4.905,5.641,9.631,11.422,14.045,17.18c0.741,0.967,0.558,2.351-0.409,3.092
						C1726.917,892.613,1726.446,892.761,1725.978,892.761z M1697.059,859.459c-0.573,0-1.146-0.222-1.578-0.665
						c-5.047-5.176-10.344-10.32-15.744-15.285c-0.896-0.825-0.956-2.22-0.131-3.116c0.827-0.898,2.222-0.954,3.116-0.131
						c5.46,5.021,10.815,10.221,15.916,15.453c0.85,0.872,0.833,2.267-0.039,3.118
						C1698.17,859.25,1697.615,859.459,1697.059,859.459z M1664.607,829.588c-0.495,0-0.993-0.166-1.404-0.506
						c-5.594-4.631-11.397-9.19-17.251-13.55c-0.975-0.726-1.178-2.108-0.45-3.085c0.728-0.969,2.106-1.18,3.085-0.45
						c5.913,4.403,11.778,9.009,17.428,13.688c0.939,0.777,1.068,2.168,0.293,3.105
						C1665.871,829.317,1665.242,829.588,1664.607,829.588z M1629.244,803.253c-0.42,0-0.846-0.12-1.221-0.37
						c-6.102-4.072-12.35-8.005-18.569-11.692c-1.048-0.622-1.393-1.974-0.773-3.021c0.62-1.049,1.974-1.391,3.021-0.773
						c6.287,3.727,12.6,7.702,18.767,11.816c1.014,0.676,1.288,2.045,0.611,3.057
						C1630.654,802.909,1629.957,803.253,1629.244,803.253z M1591.297,780.779c-0.342,0-0.689-0.08-1.014-0.248
						c-6.567-3.413-13.212-6.619-19.747-9.523c-1.113-0.495-1.613-1.798-1.12-2.911c0.495-1.111,1.8-1.611,2.911-1.12
						c6.617,2.943,13.341,6.186,19.988,9.64c1.081,0.562,1.501,1.893,0.941,2.974
						C1592.862,780.346,1592.094,780.779,1591.297,780.779z M1550.994,762.907c-0.252,0-0.508-0.043-0.758-0.133
						c-6.989-2.562-13.993-4.827-20.819-6.735c-1.171-0.327-1.856-1.544-1.529-2.717c0.327-1.173,1.548-1.849,2.717-1.529
						c6.933,1.938,14.049,4.239,21.146,6.838c1.143,0.42,1.731,1.686,1.311,2.829
						C1552.739,762.354,1551.892,762.907,1550.994,762.907z"/>
					<path style="fill:#ff6900;" d="M1215.205,1334.072c-1.217,0-2.205-0.986-2.205-2.203c0-1.219,0.986-2.207,2.203-2.207
						c7.233-0.004,14.633-0.112,21.997-0.323c1.253-0.043,2.233,0.924,2.267,2.142c0.035,1.216-0.926,2.233-2.142,2.267
						c-7.402,0.209-14.844,0.319-22.117,0.323C1215.205,1334.072,1215.205,1334.072,1215.205,1334.072z M1193.161,1333.76
						c-0.024,0-0.045,0-0.067,0c-7.452-0.22-14.883-0.553-22.085-0.995c-1.214-0.075-2.14-1.12-2.065-2.336
						c0.073-1.214,1.105-2.121,2.336-2.065c7.155,0.439,14.538,0.771,21.943,0.986c1.217,0.037,2.175,1.053,2.14,2.27
						C1195.327,1332.814,1194.348,1333.76,1193.161,1333.76z M1259.299,1332.828c-1.163,0-2.134-0.909-2.198-2.084
						c-0.067-1.216,0.863-2.254,2.08-2.321c7.278-0.4,14.663-0.9,21.953-1.486c1.236-0.073,2.278,0.809,2.375,2.022
						c0.097,1.214-0.807,2.276-2.022,2.375c-7.327,0.588-14.751,1.089-22.065,1.49
						C1259.381,1332.825,1259.34,1332.828,1259.299,1332.828z M1149.164,1331.038c-0.071,0-0.142-0.004-0.215-0.011
						c-7.446-0.719-14.842-1.58-21.982-2.554c-1.208-0.166-2.052-1.277-1.888-2.483c0.164-1.208,1.288-2.052,2.483-1.888
						c7.084,0.969,14.424,1.822,21.813,2.536c1.212,0.116,2.099,1.195,1.981,2.407
						C1151.246,1330.186,1150.286,1331.038,1149.164,1331.038z M1303.275,1329.307c-1.115,0-2.071-0.842-2.19-1.974
						c-0.127-1.212,0.751-2.297,1.962-2.422c7.267-0.762,14.622-1.621,21.859-2.556c1.21-0.134,2.313,0.7,2.47,1.906
						c0.155,1.208-0.698,2.313-1.906,2.47c-7.271,0.937-14.661,1.8-21.962,2.564
						C1303.428,1329.303,1303.351,1329.307,1303.275,1329.307z M1105.492,1325.04c-0.131,0-0.263-0.011-0.396-0.037
						c-7.424-1.35-14.723-2.866-21.697-4.506c-1.184-0.28-1.918-1.466-1.641-2.653c0.28-1.184,1.473-1.916,2.653-1.641
						c6.899,1.624,14.125,3.126,21.473,4.464c1.199,0.218,1.994,1.365,1.774,2.562
						C1107.466,1324.295,1106.538,1325.04,1105.492,1325.04z M1347.029,1323.672c-1.072,0-2.011-0.781-2.177-1.871
						c-0.185-1.203,0.642-2.33,1.845-2.513c7.2-1.1,14.491-2.3,21.673-3.563c1.197-0.23,2.343,0.588,2.554,1.787
						c0.213,1.199-0.588,2.343-1.787,2.554c-7.217,1.272-14.542,2.476-21.773,3.581
						C1347.251,1323.664,1347.139,1323.672,1347.029,1323.672z M1390.404,1316.026c-1.029,0-1.951-0.724-2.16-1.772
						c-0.239-1.195,0.534-2.355,1.729-2.594c7.144-1.43,14.383-2.967,21.516-4.567c1.186-0.267,2.366,0.478,2.633,1.669
						c0.267,1.188-0.48,2.366-1.669,2.633c-7.166,1.608-14.437,3.152-21.615,4.588
						C1390.693,1316.014,1390.549,1316.026,1390.404,1316.026z M1433.437,1306.368c-0.988,0-1.888-0.67-2.138-1.671
						c-0.293-1.182,0.426-2.379,1.606-2.674c7.112-1.772,14.28-3.65,21.305-5.577c1.167-0.334,2.388,0.366,2.709,1.542
						c0.323,1.173-0.366,2.388-1.542,2.709c-7.058,1.94-14.26,3.824-21.404,5.607
						C1433.795,1306.346,1433.614,1306.368,1433.437,1306.368z M1476.024,1294.661c-0.947,0-1.824-0.614-2.11-1.567
						c-0.353-1.167,0.308-2.396,1.473-2.747c7.079-2.134,14.155-4.367,21.028-6.634c1.161-0.379,2.405,0.248,2.784,1.404
						c0.383,1.156-0.245,2.403-1.402,2.784c-6.912,2.28-14.021,4.522-21.135,6.666
						C1476.448,1294.631,1476.233,1294.661,1476.024,1294.661z M1517.965,1280.835c-0.904,0-1.753-0.56-2.076-1.46
						c-0.411-1.146,0.185-2.409,1.331-2.821c6.929-2.487,13.86-5.083,20.597-7.717c1.139-0.45,2.414,0.116,2.857,1.251
						c0.444,1.135-0.118,2.414-1.251,2.857c-6.776,2.648-13.745,5.258-20.713,7.76
						C1518.465,1280.795,1518.213,1280.835,1517.965,1280.835z M1559.047,1264.775c-0.857,0-1.673-0.504-2.03-1.344
						c-0.476-1.12,0.047-2.414,1.169-2.892c6.75-2.866,13.515-5.861,20.106-8.903c1.111-0.515,2.416-0.026,2.926,1.079
						c0.51,1.104,0.028,2.416-1.079,2.926c-6.632,3.06-13.44,6.074-20.231,8.959
						C1559.629,1264.719,1559.336,1264.775,1559.047,1264.775z M1599.085,1246.275c-0.807,0-1.585-0.444-1.972-1.214
						c-0.547-1.087-0.108-2.414,0.98-2.961c6.604-3.318,13.151-6.754,19.46-10.208c1.068-0.588,2.409-0.194,2.993,0.874
						c0.586,1.068,0.194,2.409-0.874,2.993c-6.354,3.479-12.949,6.94-19.598,10.281
						C1599.755,1246.2,1599.417,1246.275,1599.085,1246.275z M1637.753,1225.073c-0.749,0-1.481-0.383-1.895-1.072
						c-0.624-1.044-0.284-2.399,0.76-3.025c6.352-3.8,12.611-7.725,18.607-11.664c1.016-0.667,2.384-0.385,3.053,0.633
						c0.668,1.018,0.385,2.383-0.633,3.053c-6.046,3.97-12.359,7.928-18.763,11.763
						C1638.528,1224.972,1638.139,1225.073,1637.753,1225.073z M1674.589,1200.846c-0.682,0-1.357-0.317-1.787-0.911
						c-0.715-0.986-0.495-2.366,0.491-3.079c5.988-4.336,11.857-8.813,17.443-13.302c0.954-0.766,2.338-0.612,3.101,0.336
						c0.762,0.949,0.611,2.338-0.338,3.1c-5.643,4.537-11.571,9.056-17.617,13.436
						C1675.489,1200.711,1675.037,1200.846,1674.589,1200.846z M1708.919,1173.208c-0.603,0-1.204-0.245-1.639-0.73
						c-0.816-0.906-0.741-2.3,0.164-3.113c5.493-4.942,10.822-10.031,15.841-15.132c0.851-0.87,2.25-0.881,3.118-0.026
						c0.868,0.855,0.881,2.25,0.026,3.118c-5.081,5.165-10.475,10.318-16.035,15.318
						C1709.972,1173.021,1709.444,1173.208,1708.919,1173.208z M1739.771,1141.766c-0.508,0-1.021-0.174-1.436-0.532
						c-0.924-0.792-1.029-2.183-0.237-3.109c4.804-5.6,9.383-11.358,13.61-17.111c0.717-0.98,2.101-1.193,3.081-0.472
						c0.982,0.721,1.193,2.099,0.471,3.081c-4.291,5.844-8.94,11.687-13.817,17.374
						C1741.009,1141.506,1740.391,1141.766,1739.771,1141.766z"/>
					<path style="fill:#ff6900;" d="M1201.574,1030.421c-1.126,0-2.086-0.857-2.194-1.998c-0.112-1.212,0.777-2.289,1.99-2.401
						c4.33-0.409,8.841-0.993,13.406-1.74c1.195-0.187,2.336,0.62,2.532,1.822c0.196,1.202-0.62,2.334-1.822,2.532
						c-4.662,0.76-9.274,1.359-13.703,1.774C1201.711,1030.418,1201.642,1030.421,1201.574,1030.421z M1236.702,1024.095
						c-0.982,0-1.878-0.661-2.134-1.656c-0.304-1.18,0.407-2.381,1.587-2.685c6.83-1.757,13.892-3.856,20.989-6.244
						c1.154-0.385,2.405,0.235,2.793,1.389c0.388,1.154-0.235,2.403-1.389,2.793c-7.196,2.42-14.361,4.55-21.295,6.335
						C1237.07,1024.073,1236.885,1024.095,1236.702,1024.095z M1278.523,1010.125c-0.87,0-1.694-0.519-2.043-1.374
						c-0.459-1.128,0.084-2.416,1.212-2.874c6.655-2.704,13.414-5.673,20.091-8.824c1.102-0.523,2.414-0.047,2.935,1.053
						c0.519,1.102,0.047,2.416-1.053,2.935c-6.75,3.185-13.582,6.186-20.311,8.923
						C1279.08,1010.073,1278.801,1010.125,1278.523,1010.125z M1318.433,991.335c-0.788,0-1.548-0.422-1.946-1.165
						c-0.575-1.074-0.17-2.409,0.904-2.984c6.382-3.413,12.813-7.054,19.111-10.817c1.04-0.624,2.396-0.284,3.023,0.762
						c0.624,1.044,0.284,2.399-0.762,3.023c-6.358,3.8-12.848,7.473-19.292,10.921
						C1319.14,991.251,1318.784,991.335,1318.433,991.335z M1356.303,968.707c-0.715,0-1.417-0.347-1.841-0.986
						c-0.672-1.016-0.394-2.383,0.62-3.057c6.096-4.037,12.159-8.259,18.024-12.549c0.982-0.717,2.36-0.506,3.081,0.48
						c0.717,0.982,0.504,2.362-0.48,3.081c-5.917,4.326-12.036,8.587-18.188,12.665
						C1357.145,968.589,1356.721,968.707,1356.303,968.707z M1391.916,942.658c-0.646,0-1.283-0.28-1.718-0.82
						c-0.764-0.95-0.616-2.336,0.331-3.1c5.721-4.61,11.358-9.383,16.754-14.185c0.906-0.814,2.304-0.73,3.113,0.181
						c0.81,0.911,0.728,2.304-0.181,3.113c-5.452,4.849-11.143,9.668-16.917,14.323
						C1392.889,942.499,1392.4,942.658,1391.916,942.658z M1424.84,913.335c-0.571,0-1.139-0.22-1.57-0.657
						c-0.855-0.868-0.846-2.263,0.022-3.118c5.243-5.167,10.354-10.49,15.195-15.821c0.82-0.902,2.216-0.967,3.114-0.151
						c0.902,0.818,0.969,2.213,0.151,3.113c-4.894,5.391-10.064,10.774-15.363,15.998
						C1425.957,913.124,1425.399,913.335,1424.84,913.335z M1454.45,880.661c-0.484,0-0.971-0.159-1.378-0.487
						c-0.95-0.762-1.1-2.151-0.338-3.098c4.629-5.762,9.056-11.655,13.156-17.514c0.698-0.999,2.073-1.24,3.07-0.542
						c0.997,0.698,1.24,2.073,0.542,3.07c-4.156,5.938-8.641,11.909-13.332,17.746
						C1455.735,880.379,1455.096,880.661,1454.45,880.661z M1479.667,844.518c-0.383,0-0.771-0.099-1.124-0.31
						c-1.046-0.62-1.391-1.975-0.769-3.021c3.785-6.373,7.28-12.844,10.385-19.232c0.532-1.092,1.852-1.548,2.948-1.018
						c1.094,0.532,1.55,1.852,1.018,2.948c-3.159,6.496-6.711,13.076-10.561,19.555
						C1481.153,844.133,1480.419,844.518,1479.667,844.518z M1498.847,804.885c-0.256,0-0.519-0.045-0.773-0.14
						c-1.139-0.426-1.718-1.697-1.292-2.838c2.586-6.914,4.791-13.905,6.556-20.782c0.304-1.18,1.507-1.886,2.685-1.587
						c1.178,0.304,1.888,1.505,1.587,2.685c-1.804,7.026-4.059,14.17-6.698,21.23
						C1500.581,804.338,1499.741,804.885,1498.847,804.885z"/>
					<path style="fill:#ff6900;" d="M1514.834,731.153c-0.799,0-1.568-0.433-1.959-1.191c-1.639-3.159-3.376-6.373-5.17-9.551
						c-0.599-1.061-0.224-2.405,0.838-3.004c1.062-0.603,2.407-0.224,3.004,0.838c1.817,3.223,3.583,6.483,5.243,9.689
						c0.56,1.081,0.138,2.411-0.943,2.971C1515.524,731.073,1515.175,731.153,1514.834,731.153z M1498.126,702.747
						c-0.715,0-1.417-0.347-1.841-0.988c-4.016-6.063-8.296-12.047-12.723-17.789c-0.743-0.965-0.564-2.349,0.401-3.092
						c0.962-0.745,2.349-0.564,3.092,0.401c4.491,5.824,8.834,11.896,12.908,18.048c0.672,1.014,0.394,2.383-0.622,3.055
						C1498.966,702.628,1498.544,702.747,1498.126,702.747z M1471.238,667.876c-0.605,0-1.21-0.25-1.645-0.736
						c-4.812-5.396-9.9-10.708-15.121-15.785c-0.872-0.848-0.891-2.244-0.043-3.118c0.85-0.87,2.246-0.893,3.118-0.043
						c5.297,5.15,10.456,10.537,15.337,16.009c0.812,0.909,0.732,2.304-0.177,3.113
						C1472.284,667.691,1471.761,667.876,1471.238,667.876z M802.844,651.037c-0.659,0-1.309-0.293-1.742-0.853
						c-0.749-0.96-0.575-2.345,0.388-3.092c5.814-4.522,11.776-8.981,17.718-13.257c0.99-0.706,2.366-0.487,3.077,0.502
						c0.713,0.988,0.487,2.366-0.502,3.077c-5.897,4.244-11.816,8.671-17.589,13.158
						C803.793,650.886,803.315,651.037,802.844,651.037z M1439.696,637.179c-0.502,0-1.008-0.172-1.423-0.523
						c-5.512-4.666-11.287-9.235-17.165-13.578c-0.98-0.724-1.188-2.106-0.465-3.083c0.724-0.98,2.104-1.189,3.083-0.465
						c5.958,4.401,11.81,9.03,17.397,13.763c0.928,0.786,1.044,2.177,0.256,3.107
						C1440.945,636.914,1440.323,637.179,1439.696,637.179z M838.635,625.283c-0.715,0-1.415-0.347-1.839-0.984
						c-0.674-1.016-0.398-2.383,0.616-3.057c6.158-4.091,12.443-8.089,18.676-11.885c1.046-0.631,2.399-0.299,3.032,0.736
						c0.633,1.042,0.304,2.399-0.736,3.032c-6.186,3.766-12.421,7.732-18.53,11.791
						C839.477,625.164,839.055,625.283,838.635,625.283z M1404.275,610.984c-0.409,0-0.825-0.114-1.193-0.353
						c-6.042-3.897-12.357-7.704-18.773-11.31c-1.062-0.599-1.438-1.942-0.842-3.004c0.596-1.061,1.938-1.44,3.004-0.842
						c6.492,3.652,12.886,7.504,19.001,11.453c1.023,0.659,1.318,2.024,0.657,3.047
						C1405.709,610.629,1404.998,610.984,1404.275,610.984z M876.292,602.356c-0.775,0-1.526-0.409-1.929-1.135
						c-0.592-1.064-0.209-2.407,0.857-2.997c6.481-3.6,13.067-7.08,19.576-10.344c1.087-0.543,2.416-0.103,2.958,0.982
						c0.547,1.087,0.108,2.414-0.982,2.958c-6.453,3.238-12.984,6.688-19.413,10.258
						C877.022,602.268,876.654,602.356,876.292,602.356z M1365.856,589.345c-0.325,0-0.655-0.071-0.967-0.224
						c-6.462-3.165-13.177-6.229-19.964-9.11c-1.122-0.476-1.645-1.772-1.169-2.892c0.478-1.122,1.781-1.634,2.892-1.169
						c6.86,2.913,13.649,6.012,20.179,9.209c1.094,0.536,1.546,1.856,1.012,2.95C1367.456,588.89,1366.672,589.345,1365.856,589.345
						z M915.696,582.59c-0.842,0-1.647-0.484-2.013-1.3c-0.5-1.111-0.002-2.416,1.109-2.915c6.729-3.023,13.591-5.923,20.397-8.621
						c1.12-0.45,2.414,0.106,2.862,1.238c0.448,1.13-0.106,2.411-1.238,2.862c-6.744,2.674-13.545,5.549-20.214,8.544
						C916.304,582.528,915.998,582.59,915.696,582.59z M1325.261,572.092c-0.252,0-0.508-0.043-0.758-0.136
						c-6.739-2.467-13.737-4.838-20.801-7.047c-1.163-0.362-1.811-1.6-1.447-2.76c0.36-1.165,1.602-1.817,2.76-1.447
						c7.133,2.229,14.2,4.623,21.004,7.114c1.143,0.42,1.731,1.686,1.311,2.829C1327.005,571.538,1326.159,572.092,1325.261,572.092
						z M956.677,566.349c-0.915,0-1.77-0.573-2.084-1.486c-0.396-1.152,0.215-2.407,1.365-2.803
						c6.983-2.407,14.084-4.668,21.107-6.722c1.161-0.349,2.392,0.329,2.734,1.499c0.342,1.167-0.329,2.392-1.499,2.734
						c-6.955,2.035-13.989,4.274-20.905,6.657C957.157,566.31,956.916,566.349,956.677,566.349z M1283.15,558.908
						c-0.187,0-0.377-0.024-0.564-0.073c-6.985-1.843-14.174-3.576-21.368-5.15c-1.189-0.26-1.942-1.434-1.682-2.625
						c0.258-1.191,1.432-1.944,2.625-1.682c7.254,1.587,14.504,3.333,21.549,5.193c1.178,0.31,1.88,1.516,1.57,2.694
						C1285.019,558.255,1284.125,558.908,1283.15,558.908z M998.98,553.979c-0.995,0-1.899-0.678-2.142-1.688
						c-0.284-1.184,0.443-2.375,1.628-2.661c7.144-1.72,14.428-3.288,21.654-4.661c1.193-0.224,2.351,0.56,2.577,1.755
						c0.228,1.195-0.558,2.349-1.755,2.577c-7.155,1.361-14.37,2.913-21.443,4.619C999.325,553.96,999.152,553.979,998.98,553.979z
						 M1240.037,549.46c-0.127,0-0.256-0.011-0.385-0.034c-7.129-1.26-14.437-2.407-21.721-3.413
						c-1.206-0.166-2.05-1.279-1.882-2.485c0.164-1.206,1.245-2.054,2.485-1.882c7.338,1.01,14.702,2.168,21.884,3.439
						c1.199,0.211,2,1.354,1.787,2.554C1242.018,548.708,1241.088,549.46,1240.037,549.46z M1042.284,545.765
						c-1.083,0-2.028-0.799-2.181-1.901c-0.168-1.206,0.674-2.319,1.88-2.487c5.609-0.779,11.278-1.456,16.855-2.011
						c1.714-0.17,3.43-0.336,5.148-0.497c1.21-0.118,2.287,0.777,2.401,1.992c0.112,1.212-0.779,2.287-1.992,2.401
						c-1.71,0.157-3.417,0.323-5.122,0.493c-5.516,0.549-11.13,1.219-16.683,1.99
						C1042.486,545.759,1042.385,545.765,1042.284,545.765z M1196.322,543.422c-0.073,0-0.149-0.004-0.222-0.011
						c-7.239-0.728-14.611-1.341-21.915-1.821c-1.217-0.08-2.136-1.13-2.056-2.345c0.082-1.217,1.133-2.108,2.345-2.056
						c7.355,0.484,14.779,1.103,22.065,1.835c1.212,0.123,2.095,1.204,1.974,2.414
						C1198.4,542.574,1197.442,543.422,1196.322,543.422z M1086.167,541.56c-1.154,0-2.125-0.898-2.198-2.067
						c-0.075-1.216,0.848-2.263,2.063-2.338c7.338-0.459,14.768-0.81,22.091-1.04c1.193-0.116,2.233,0.915,2.274,2.134
						c0.037,1.217-0.917,2.235-2.136,2.274c-7.276,0.228-14.661,0.577-21.953,1.034
						C1086.26,541.558,1086.215,541.56,1086.167,541.56z M1152.295,540.518c-0.024,0-0.049,0-0.073-0.002
						c-7.228-0.23-14.568-0.347-21.816-0.347c-1.219,0-2.291-0.986-2.291-2.203c0-1.219,0.902-2.205,2.121-2.205v2.205l0.088-2.205
						c7.286,0.041,14.764,0.116,22.04,0.349c1.217,0.039,2.173,1.055,2.132,2.274
						C1154.459,539.577,1153.479,540.518,1152.295,540.518z"/>
					<path style="fill:#ff6900;" d="M1066.528,1313.97c-0.308,0-0.62-0.065-0.917-0.2c-6.733-3.09-13.444-6.294-19.951-9.526
						c-1.089-0.541-1.535-1.865-0.993-2.956c0.54-1.089,1.858-1.537,2.956-0.993c6.464,3.21,13.134,6.395,19.826,9.465
						c1.107,0.508,1.593,1.817,1.085,2.924C1068.163,1313.494,1067.364,1313.97,1066.528,1313.97z M1027.061,1294.366
						c-0.351,0-0.708-0.084-1.04-0.263c-6.483-3.479-12.979-7.103-19.309-10.772c-1.053-0.612-1.412-1.959-0.801-3.014
						c0.609-1.053,1.957-1.415,3.014-0.801c6.287,3.645,12.74,7.245,19.18,10.703c1.074,0.575,1.477,1.912,0.9,2.984
						C1028.609,1293.944,1027.847,1294.366,1027.061,1294.366z M988.938,1272.253c-0.401,0-0.803-0.108-1.167-0.336
						c-6.238-3.901-12.475-7.958-18.541-12.051c-1.01-0.682-1.275-2.052-0.594-3.062c0.682-1.008,2.05-1.27,3.062-0.594
						c6.024,4.067,12.219,8.094,18.412,11.969c1.034,0.646,1.346,2.007,0.7,3.038
						C990.391,1271.887,989.672,1272.253,988.938,1272.253z M952.414,1247.6c-0.45,0-0.904-0.138-1.296-0.422
						c-5.969-4.345-11.905-8.83-17.645-13.332c-0.958-0.752-1.126-2.138-0.375-3.096c0.749-0.96,2.14-1.126,3.096-0.375
						c5.699,4.472,11.593,8.925,17.52,13.238c0.984,0.717,1.201,2.095,0.484,3.081C953.768,1247.285,953.094,1247.6,952.414,1247.6z
						 M917.742,1220.401c-0.504,0-1.01-0.17-1.423-0.521c-5.605-4.735-11.199-9.642-16.627-14.583
						c-0.902-0.818-0.967-2.214-0.146-3.113c0.82-0.9,2.216-0.965,3.113-0.146c5.389,4.905,10.942,9.775,16.506,14.476
						c0.93,0.786,1.047,2.177,0.261,3.107C918.991,1220.136,918.369,1220.401,917.742,1220.401z M885.156,1190.733
						c-0.558,0-1.115-0.209-1.544-0.631c-5.254-5.155-10.469-10.466-15.498-15.785c-0.838-0.885-0.797-2.28,0.086-3.118
						s2.282-0.799,3.118,0.086c4.993,5.282,10.169,10.553,15.382,15.668c0.87,0.853,0.883,2.25,0.03,3.118
						C886.297,1190.513,885.727,1190.733,885.156,1190.733z M854.879,1158.711c-0.612,0-1.221-0.254-1.658-0.751
						c-4.838-5.516-9.64-11.201-14.273-16.9c-0.769-0.945-0.626-2.334,0.319-3.101c0.947-0.771,2.334-0.624,3.101,0.319
						c4.601,5.656,9.368,11.3,14.17,16.775c0.803,0.915,0.711,2.308-0.205,3.111
						C855.914,1158.531,855.396,1158.711,854.879,1158.711z M827.071,1124.519c-0.67,0-1.331-0.304-1.763-0.879
						c-4.403-5.844-8.774-11.87-12.99-17.908c-0.695-0.999-0.452-2.373,0.547-3.07c0.997-0.691,2.375-0.45,3.07,0.547
						c4.184,5.994,8.522,11.976,12.895,17.778c0.732,0.971,0.538,2.355-0.435,3.088
						C827.999,1124.375,827.532,1124.519,827.071,1124.519z M801.845,1088.377c-0.723,0-1.432-0.355-1.854-1.01
						c-3.973-6.151-7.898-12.475-11.666-18.795c-0.624-1.046-0.282-2.401,0.762-3.023c1.051-0.631,2.401-0.284,3.023,0.764
						c3.744,6.274,7.641,12.555,11.584,18.663c0.661,1.023,0.368,2.388-0.657,3.047
						C802.669,1088.263,802.254,1088.377,801.845,1088.377z M779.26,1050.522c-0.777,0-1.533-0.411-1.934-1.141
						c-3.531-6.416-7.011-12.994-10.339-19.557c-0.551-1.085-0.118-2.412,0.969-2.963c1.081-0.56,2.414-0.118,2.963,0.969
						c3.307,6.516,6.763,13.052,10.271,19.423c0.588,1.068,0.198,2.407-0.868,2.995
						C779.984,1050.434,779.62,1050.522,779.26,1050.522z M759.286,1011.174c-0.831,0-1.626-0.469-2-1.272
						c-3.098-6.636-6.143-13.442-9.05-20.229c-0.48-1.12,0.039-2.416,1.158-2.894c1.107-0.484,2.414,0.034,2.894,1.158
						c2.89,6.742,5.915,13.505,8.994,20.1c0.515,1.102,0.039,2.416-1.066,2.93C759.914,1011.107,759.598,1011.174,759.286,1011.174z
						 M741.875,970.576c-0.881,0-1.712-0.53-2.052-1.4c-2.674-6.81-5.294-13.791-7.786-20.741c-0.411-1.148,0.185-2.409,1.331-2.821
						c1.15-0.418,2.409,0.185,2.821,1.331c2.476,6.912,5.081,13.849,7.738,20.621c0.446,1.133-0.112,2.414-1.247,2.857
						C742.416,970.527,742.144,970.576,741.875,970.576z M726.961,928.992c-0.928,0-1.792-0.59-2.095-1.52
						c-2.265-6.94-4.479-14.058-6.58-21.155c-0.344-1.169,0.321-2.394,1.488-2.741c1.173-0.355,2.394,0.321,2.741,1.488
						c2.089,7.06,4.291,14.138,6.541,21.038c0.379,1.158-0.254,2.403-1.41,2.782C727.417,928.958,727.187,928.992,726.961,928.992z
						 M714.423,886.672c-0.973,0-1.865-0.65-2.127-1.636c-1.873-7.008-3.701-14.219-5.435-21.428
						c-0.284-1.184,0.446-2.373,1.63-2.659c1.186-0.276,2.375,0.446,2.659,1.63c1.722,7.172,3.542,14.344,5.404,21.32
						c0.314,1.176-0.383,2.384-1.561,2.698C714.804,886.649,714.612,886.672,714.423,886.672z M704.124,843.795
						c-1.018,0-1.931-0.708-2.153-1.744c-1.527-7.12-2.997-14.413-4.375-21.674c-0.226-1.197,0.558-2.351,1.755-2.577
						c1.216-0.215,2.351,0.56,2.577,1.755c1.372,7.228,2.836,14.486,4.354,21.574c0.256,1.191-0.504,2.362-1.695,2.616
						C704.432,843.78,704.277,843.795,704.124,843.795z"/>
				</g>
				<path style="fill:#D87355;" d="M694.086,497.22c-60.823,0-110.13,49.311-110.13,110.139c0,60.828,110.13,195.061,110.13,195.061
					s110.13-134.233,110.13-195.061C804.216,546.53,754.909,497.22,694.086,497.22z M694.086,682.72
					c-41.618,0-75.356-33.74-75.356-75.362c0-41.621,33.738-75.361,75.356-75.361c41.618,0,75.356,33.74,75.356,75.361
					C769.442,648.98,735.704,682.72,694.086,682.72z"/>
				<path style="fill:#D87355;" d="M1778.877,875.993c-43.991,0-79.653,35.665-79.653,79.659c0,43.995,79.653,141.08,79.653,141.08
					s79.653-97.085,79.653-141.08C1858.53,911.657,1822.868,875.993,1778.877,875.993z M1778.877,1010.158
					c-30.101,0-54.502-24.403-54.502-54.506c0-30.103,24.401-54.506,54.502-54.506c30.101,0,54.502,24.403,54.502,54.506
					C1833.379,985.755,1808.978,1010.158,1778.877,1010.158z"/>
				<path style="fill:#D87355;" d="M1171.711,879.79c-30.767,0-55.709,24.944-55.709,55.713c0,30.77,55.709,98.671,55.709,98.671
					s55.709-67.901,55.709-98.671C1227.42,904.734,1202.478,879.79,1171.711,879.79z M1171.711,973.625
					c-21.053,0-38.119-17.068-38.119-38.122c0-21.054,17.066-38.121,38.119-38.121c21.052,0,38.119,17.068,38.119,38.121
					C1209.829,956.558,1192.763,973.625,1171.711,973.625z"/>
				<path style="fill:#D87355;" d="M1839.771,520.405c-30.767,0-55.709,24.944-55.709,55.713c0,30.77,55.709,98.671,55.709,98.671
					s55.709-67.901,55.709-98.671C1895.48,545.349,1870.538,520.405,1839.771,520.405z M1839.771,614.24
					c-21.053,0-38.119-17.068-38.119-38.122c0-21.054,17.066-38.121,38.119-38.121c21.052,0,38.119,17.068,38.119,38.121
					C1877.89,597.172,1860.823,614.24,1839.771,614.24z"/>
				<path style="fill:#D87355;" d="M1507.252,535.266c-44.922,0-81.339,36.417-81.339,81.34s81.339,144.056,81.339,144.056
					s81.34-99.133,81.34-144.056S1552.175,535.266,1507.252,535.266z M1507.252,672.262c-30.738,0-55.656-24.918-55.656-55.656
					s24.918-55.656,55.656-55.656c30.739,0,55.656,24.918,55.656,55.656S1537.991,672.262,1507.252,672.262z"/>
				<path style="fill:#ff6900;" d="M1515.976,1145.454c-1.214,0-2.201-0.982-2.205-2.198s0.98-2.207,2.198-2.211
					c7.282-0.024,14.678-0.155,21.979-0.392c0.024-0.002,0.047-0.002,0.073-0.002c1.184,0,2.162,0.941,2.201,2.134
					c0.041,1.217-0.915,2.235-2.132,2.274c-7.342,0.239-14.781,0.372-22.108,0.396
					C1515.98,1145.454,1515.978,1145.454,1515.976,1145.454z M1493.934,1145.2c-0.019,0-0.039,0-0.058,0
					c-7.355-0.194-14.788-0.504-22.094-0.922c-1.216-0.069-2.147-1.111-2.076-2.325c0.069-1.219,1.128-2.149,2.325-2.076
					c7.262,0.413,14.65,0.721,21.96,0.913c1.217,0.032,2.179,1.047,2.147,2.263C1496.106,1144.251,1495.125,1145.2,1493.934,1145.2z
					 M1560.042,1144.036c-1.156,0-2.127-0.9-2.198-2.071c-0.073-1.214,0.85-2.261,2.067-2.334
					c7.254-0.441,14.628-0.995,21.923-1.641c1.212-0.127,2.282,0.79,2.39,2.002c0.108,1.212-0.788,2.282-2.002,2.39
					c-7.334,0.65-14.749,1.206-22.044,1.649C1560.132,1144.033,1560.087,1144.036,1560.042,1144.036z M1449.919,1142.686
					c-0.065,0-0.129-0.002-0.196-0.009c-7.299-0.644-14.699-1.417-21.999-2.295c-1.208-0.146-2.069-1.245-1.925-2.455
					c0.146-1.206,1.225-2.065,2.455-1.925c7.252,0.874,14.605,1.643,21.856,2.282c1.212,0.108,2.11,1.178,2.003,2.39
					C1452.012,1141.822,1451.05,1142.686,1449.919,1142.686z M1603.96,1140.145c-1.104,0-2.058-0.827-2.188-1.951
					c-0.14-1.208,0.726-2.304,1.936-2.444c7.226-0.84,14.562-1.792,21.805-2.827c1.201-0.185,2.323,0.665,2.495,1.871
					c0.172,1.206-0.665,2.323-1.871,2.495c-7.282,1.04-14.656,1.996-21.921,2.84
					C1604.13,1140.141,1604.044,1140.145,1603.96,1140.145z M1406.15,1137.395c-0.112,0-0.224-0.009-0.338-0.026
					c-7.295-1.126-14.631-2.384-21.805-3.74c-1.197-0.226-1.983-1.38-1.757-2.575c0.228-1.197,1.391-1.981,2.575-1.757
					c7.127,1.346,14.413,2.597,21.658,3.714c1.204,0.185,2.028,1.311,1.843,2.515
					C1408.159,1136.616,1407.22,1137.395,1406.15,1137.395z M1647.604,1133.909c-1.057,0-1.99-0.76-2.172-1.837
					c-0.202-1.199,0.605-2.338,1.807-2.543c7.202-1.221,14.482-2.549,21.635-3.949c1.202-0.245,2.353,0.547,2.588,1.74
					c0.235,1.195-0.545,2.353-1.74,2.588c-7.192,1.406-14.508,2.741-21.747,3.97
					C1647.849,1133.899,1647.727,1133.909,1647.604,1133.909z M1362.831,1129.2c-0.161,0-0.323-0.017-0.487-0.054
					c-7.204-1.623-14.437-3.389-21.497-5.249c-1.178-0.31-1.88-1.516-1.57-2.694c0.31-1.178,1.518-1.88,2.694-1.57
					c7.008,1.845,14.189,3.598,21.342,5.211c1.188,0.267,1.933,1.447,1.667,2.635C1364.75,1128.505,1363.839,1129.2,1362.831,1129.2
					z M1690.88,1125.456c-1.012,0-1.923-0.7-2.151-1.729c-0.263-1.189,0.489-2.366,1.677-2.629
					c7.062-1.559,14.267-3.245,21.417-5.006c1.182-0.304,2.377,0.431,2.668,1.613c0.293,1.182-0.431,2.377-1.613,2.668
					c-7.183,1.772-14.424,3.464-21.521,5.032C1691.198,1125.439,1691.037,1125.456,1690.88,1125.456z M1320.199,1117.959
					c-0.211,0-0.426-0.03-0.642-0.095c-7.097-2.155-14.178-4.459-21.049-6.845c-1.15-0.398-1.759-1.656-1.359-2.805
					c0.398-1.15,1.649-1.766,2.806-1.359c6.817,2.366,13.843,4.651,20.885,6.789c1.165,0.355,1.822,1.585,1.468,2.752
					C1322.021,1117.347,1321.146,1117.959,1320.199,1117.959z M1733.689,1114.91c-0.969,0-1.858-0.646-2.125-1.628
					c-0.319-1.174,0.375-2.386,1.55-2.704c7.034-1.91,14.155-3.932,21.163-6.005c1.173-0.347,2.394,0.321,2.741,1.488
					c0.345,1.169-0.321,2.394-1.488,2.741c-7.041,2.082-14.193,4.112-21.262,6.031
					C1734.076,1114.886,1733.88,1114.91,1733.689,1114.91z M1278.555,1103.492c-0.269,0-0.543-0.05-0.807-0.153
					c-6.933-2.73-13.806-5.607-20.427-8.552c-1.113-0.495-1.613-1.798-1.12-2.911c0.497-1.113,1.8-1.606,2.911-1.12
					c6.563,2.92,13.378,5.772,20.25,8.479c1.133,0.446,1.69,1.727,1.245,2.859
					C1280.265,1102.962,1279.433,1103.492,1278.555,1103.492z M1238.283,1085.556c-0.332,0-0.67-0.075-0.986-0.235
					c-6.686-3.357-13.263-6.869-19.548-10.438c-1.057-0.601-1.43-1.947-0.827-3.006c0.599-1.059,1.942-1.432,3.006-0.827
					c6.218,3.531,12.729,7.009,19.346,10.331c1.09,0.547,1.529,1.871,0.982,2.958
					C1239.867,1085.11,1239.09,1085.556,1238.283,1085.556z M1199.976,1063.749c-0.409,0-0.825-0.114-1.195-0.353
					c-6.373-4.121-12.508-8.376-18.233-12.648c-0.978-0.73-1.178-2.11-0.45-3.086c0.728-0.977,2.115-1.176,3.085-0.45
					c5.648,4.214,11.7,8.412,17.992,12.48c1.023,0.661,1.316,2.026,0.655,3.049
					C1201.408,1063.394,1200.699,1063.749,1199.976,1063.749z"/>
				<path style="fill:#ff6900;" d="M1056.964,859.45h-1.115c-1.219,0-2.205-0.986-2.205-2.205c0-1.219,0.986-2.205,2.205-2.205
					h1.115c6.98,0,14.002-0.075,20.873-0.224c1.245-0.03,2.226,0.941,2.252,2.158c0.026,1.216-0.941,2.226-2.157,2.252
					C1071.031,859.375,1063.975,859.45,1056.964,859.45z M1033.803,859.179c-0.017,0-0.034,0-0.052,0
					c-7.336-0.172-14.764-0.424-22.081-0.751c-1.217-0.054-2.158-1.085-2.104-2.302c0.056-1.216,1.074-2.201,2.302-2.104
					c7.284,0.325,14.68,0.577,21.986,0.747c1.217,0.03,2.181,1.04,2.153,2.256C1035.98,858.225,1034.998,859.179,1033.803,859.179z
					 M1099.911,858.492c-1.171,0-2.147-0.924-2.2-2.106c-0.054-1.217,0.887-2.248,2.104-2.302c7.327-0.329,14.71-0.751,21.947-1.255
					c1.193-0.078,2.267,0.833,2.353,2.048c0.084,1.214-0.833,2.267-2.048,2.353c-7.271,0.504-14.691,0.928-22.055,1.26
					C1099.978,858.492,1099.945,858.492,1099.911,858.492z M989.756,857.217c-0.047,0-0.097-0.002-0.144-0.004
					c-7.245-0.469-14.656-1.027-22.029-1.654c-1.212-0.103-2.112-1.169-2.009-2.384c0.101-1.214,1.148-2.127,2.384-2.009
					c7.342,0.625,14.723,1.178,21.938,1.645c1.217,0.08,2.136,1.128,2.058,2.343C991.879,856.322,990.908,857.217,989.756,857.217z
					 M1143.871,855.452c-1.126,0-2.086-0.857-2.194-2c-0.112-1.212,0.777-2.287,1.992-2.401c7.293-0.683,14.646-1.462,21.854-2.317
					c1.229-0.166,2.306,0.723,2.45,1.929c0.142,1.21-0.721,2.306-1.929,2.45c-7.245,0.859-14.635,1.643-21.966,2.33
					C1144.009,855.45,1143.94,855.452,1143.871,855.452z M945.823,853.495c-0.075,0-0.153-0.004-0.23-0.011
					c-7.204-0.749-14.587-1.585-21.945-2.483c-1.208-0.146-2.069-1.247-1.921-2.455c0.146-1.208,1.242-2.108,2.455-1.921
					c7.331,0.893,14.689,1.725,21.867,2.472c1.21,0.125,2.091,1.208,1.966,2.42C947.897,852.651,946.938,853.495,945.823,853.495z
					 M1187.623,850.258c-1.079,0-2.022-0.792-2.181-1.89c-0.172-1.206,0.663-2.323,1.869-2.498
					c7.187-1.036,14.495-2.181,21.723-3.408c1.186-0.198,2.336,0.603,2.543,1.806c0.202,1.199-0.605,2.338-1.806,2.543
					c-7.263,1.232-14.607,2.384-21.831,3.423C1187.834,850.252,1187.727,850.258,1187.623,850.258z M902.054,848.159
					c-0.101,0-0.202-0.007-0.306-0.022c-7.172-0.997-14.521-2.08-21.846-3.217c-1.204-0.187-2.028-1.313-1.841-2.517
					c0.19-1.204,1.313-2.013,2.517-1.841c7.301,1.135,14.628,2.213,21.777,3.208c1.206,0.168,2.048,1.281,1.88,2.487
					C904.082,847.36,903.137,848.159,902.054,848.159z M1231.087,842.869c-1.033,0-1.955-0.728-2.162-1.781
					c-0.235-1.195,0.545-2.353,1.74-2.588c7.118-1.397,14.359-2.911,21.523-4.504c1.191-0.252,2.369,0.487,2.631,1.675
					c0.263,1.188-0.487,2.366-1.675,2.631c-7.198,1.6-14.476,3.122-21.63,4.526C1231.371,842.856,1231.227,842.869,1231.087,842.869
					z M858.483,841.396c-0.123,0-0.248-0.011-0.372-0.032c-7.013-1.193-14.325-2.495-21.736-3.865
					c-1.197-0.222-1.99-1.372-1.768-2.569c0.222-1.197,1.374-1.998,2.569-1.768c7.392,1.367,14.684,2.663,21.676,3.856
					c1.201,0.205,2.007,1.341,1.802,2.543C860.47,840.636,859.538,841.396,858.483,841.396z M815.121,833.384
					c-0.142,0-0.286-0.013-0.431-0.043c-7.211-1.428-14.42-2.905-21.624-4.425c-1.193-0.252-1.955-1.421-1.703-2.612
					c0.252-1.193,1.423-1.953,2.612-1.703c7.187,1.516,14.379,2.988,21.572,4.416c1.195,0.237,1.97,1.395,1.733,2.59
					C817.074,832.659,816.152,833.384,815.121,833.384z M1274.117,833.292c-0.988,0-1.888-0.67-2.138-1.671
					c-0.293-1.182,0.426-2.379,1.606-2.674c7.047-1.757,14.202-3.635,21.269-5.585c1.169-0.317,2.388,0.366,2.711,1.539
					c0.325,1.173-0.364,2.388-1.539,2.711c-7.099,1.959-14.29,3.85-21.372,5.615C1274.475,833.27,1274.294,833.292,1274.117,833.292
					z M771.974,824.294c-0.159,0-0.319-0.017-0.48-0.052c-7.174-1.593-14.349-3.228-21.518-4.896
					c-1.186-0.276-1.923-1.46-1.647-2.646c0.276-1.186,1.46-1.942,2.646-1.647c7.157,1.664,14.314,3.294,21.475,4.883
					c1.189,0.265,1.938,1.443,1.675,2.631C773.897,823.594,772.984,824.294,771.974,824.294z M1316.616,821.557
					c-0.947,0-1.822-0.614-2.11-1.565c-0.353-1.165,0.306-2.396,1.471-2.75c6.955-2.108,14.008-4.343,20.963-6.636
					c1.165-0.394,2.403,0.248,2.784,1.402c0.383,1.156-0.246,2.403-1.402,2.784c-6.989,2.308-14.077,4.552-21.066,6.67
					C1317.042,821.527,1316.827,821.557,1316.616,821.557z M729.023,814.31c-0.172,0-0.347-0.019-0.521-0.062
					c-7.14-1.727-14.282-3.488-21.424-5.277c-1.18-0.295-1.899-1.492-1.602-2.674c0.295-1.182,1.49-1.899,2.674-1.602
					c7.129,1.785,14.26,3.542,21.389,5.269c1.184,0.286,1.91,1.477,1.623,2.661C730.92,813.633,730.018,814.31,729.023,814.31z
					 M1358.482,807.74c-0.906,0-1.755-0.562-2.076-1.464c-0.411-1.145,0.187-2.407,1.335-2.816c6.797-2.429,13.735-5,20.621-7.641
					c1.141-0.433,2.411,0.133,2.849,1.268c0.437,1.137-0.131,2.411-1.268,2.849c-6.918,2.655-13.888,5.236-20.72,7.676
					C1358.979,807.699,1358.727,807.74,1358.482,807.74z M1399.635,791.936c-0.866,0-1.688-0.515-2.039-1.367
					c-0.463-1.126,0.075-2.414,1.201-2.877c6.714-2.76,13.524-5.652,20.244-8.593c1.122-0.491,2.418,0.024,2.905,1.135
					c0.489,1.115-0.019,2.416-1.135,2.905c-6.75,2.954-13.593,5.859-20.339,8.632
					C1400.199,791.882,1399.915,791.936,1399.635,791.936z M1440.026,774.259c-0.831,0-1.628-0.471-2.002-1.277
					c-0.513-1.102-0.032-2.414,1.07-2.928c6.582-3.057,13.259-6.248,19.85-9.482c1.098-0.536,2.414-0.084,2.95,1.008
					c0.536,1.092,0.086,2.414-1.008,2.95c-6.617,3.249-13.324,6.453-19.934,9.526
					C1440.652,774.194,1440.336,774.259,1440.026,774.259z"/>
				<path style="fill:#ff6900;" d="M772.443,1182.708l-0.594-0.002c-1.219,0-2.205-0.986-2.205-2.205
					c0-1.219,0.986-2.205,2.205-2.205l0.618,0.002c7.028,0,14.219-0.133,21.346-0.394c1.216-0.056,2.241,0.904,2.284,2.121
					c0.045,1.219-0.904,2.241-2.121,2.285C786.794,1182.575,779.549,1182.708,772.443,1182.708z M749.814,1182.254
					c-0.03,0-0.06,0-0.09-0.002c-7.42-0.299-14.857-0.754-22.1-1.348c-1.214-0.101-2.117-1.165-2.018-2.379
					c0.099-1.214,1.13-2.082,2.379-2.018c7.183,0.592,14.557,1.042,21.915,1.339c1.216,0.05,2.164,1.074,2.114,2.291
					C751.967,1181.324,750.99,1182.254,749.814,1182.254z M815.907,1181.106c-1.145,0-2.112-0.885-2.196-2.046
					c-0.088-1.214,0.825-2.269,2.039-2.358c7.205-0.525,14.566-1.191,21.882-1.981c1.232-0.138,2.297,0.747,2.429,1.955
					c0.131,1.21-0.745,2.297-1.955,2.429c-7.368,0.794-14.781,1.466-22.037,1.994
					C816.015,1181.104,815.961,1181.106,815.907,1181.106z M705.879,1178.626c-0.093,0-0.185-0.007-0.28-0.017
					c-7.377-0.934-14.747-2.043-21.902-3.294c-1.201-0.211-2.002-1.352-1.794-2.551c0.209-1.199,1.354-1.994,2.551-1.794
					c7.09,1.24,14.39,2.338,21.699,3.264c1.208,0.153,2.063,1.257,1.91,2.465C707.922,1177.812,706.973,1178.626,705.879,1178.626z
					 M859.747,1176.376c-1.081,0-2.024-0.795-2.181-1.893c-0.172-1.206,0.665-2.323,1.871-2.496
					c7.166-1.023,14.467-2.185,21.702-3.46c1.193-0.213,2.343,0.588,2.554,1.787c0.213,1.199-0.588,2.343-1.787,2.554
					c-7.284,1.283-14.633,2.457-21.844,3.486C859.956,1176.369,859.85,1176.376,859.747,1176.376z M662.465,1171.001
					c-0.161,0-0.327-0.017-0.493-0.056c-7.276-1.658-14.499-3.512-21.471-5.512c-1.171-0.336-1.847-1.557-1.511-2.726
					c0.334-1.174,1.552-1.854,2.726-1.512c6.894,1.977,14.041,3.809,21.239,5.452c1.186,0.269,1.929,1.451,1.658,2.64
					C664.379,1170.308,663.471,1171.001,662.465,1171.001z M903.167,1168.719c-1.021,0-1.938-0.713-2.155-1.751
					c-0.25-1.193,0.512-2.362,1.703-2.612c7.114-1.494,14.325-3.131,21.437-4.862c1.178-0.295,2.375,0.439,2.664,1.621
					c0.289,1.182-0.437,2.375-1.621,2.663c-7.155,1.742-14.413,3.389-21.57,4.892
					C903.471,1168.704,903.318,1168.719,903.167,1168.719z M620.111,1158.81c-0.243,0-0.491-0.041-0.734-0.127
					c-7.058-2.493-14.01-5.213-20.67-8.081c-1.117-0.48-1.634-1.778-1.152-2.896c0.48-1.117,1.776-1.638,2.896-1.152
					c6.569,2.829,13.431,5.51,20.395,7.973c1.148,0.405,1.75,1.664,1.344,2.812C621.87,1158.246,621.019,1158.81,620.111,1158.81z
					 M946.006,1158.283c-0.965,0-1.852-0.64-2.123-1.615c-0.325-1.173,0.362-2.39,1.535-2.715c7.028-1.949,14.12-4.035,21.086-6.203
					c1.169-0.355,2.396,0.291,2.76,1.451c0.362,1.163-0.289,2.399-1.451,2.76c-7.006,2.179-14.144,4.281-21.215,6.242
					C946.4,1158.257,946.202,1158.283,946.006,1158.283z M988.109,1145.181c-0.915,0-1.768-0.573-2.084-1.486
					c-0.398-1.15,0.213-2.405,1.365-2.803c6.856-2.368,13.808-4.892,20.659-7.499c1.143-0.433,2.414,0.138,2.844,1.277
					c0.433,1.137-0.138,2.412-1.277,2.844c-6.894,2.623-13.888,5.161-20.789,7.547
					C988.591,1145.142,988.348,1145.181,988.109,1145.181z M1029.298,1129.502c-0.863,0-1.682-0.51-2.035-1.357
					c-0.469-1.124,0.063-2.416,1.186-2.883c6.729-2.803,13.505-5.747,20.141-8.755c1.12-0.504,2.416-0.011,2.92,1.098
					c0.502,1.111,0.011,2.416-1.098,2.92c-6.679,3.025-13.496,5.988-20.265,8.806
					C1029.869,1129.448,1029.583,1129.502,1029.298,1129.502z M1069.424,1111.323c-0.816,0-1.598-0.452-1.981-1.234
					c-0.536-1.092-0.086-2.414,1.008-2.95c6.528-3.206,13.108-6.563,19.561-9.982c1.068-0.571,2.407-0.161,2.98,0.917
					c0.571,1.074,0.159,2.409-0.917,2.98c-6.492,3.439-13.113,6.817-19.682,10.042
					C1070.081,1111.25,1069.75,1111.323,1069.424,1111.323z M1108.345,1090.689c-0.767,0-1.509-0.398-1.916-1.111
					c-0.605-1.059-0.237-2.405,0.82-3.008c6.289-3.592,12.65-7.353,18.9-11.183c1.042-0.635,2.396-0.308,3.031,0.728
					c0.637,1.038,0.31,2.396-0.728,3.032c-6.289,3.854-12.688,7.639-19.017,11.252
					C1109.09,1090.597,1108.715,1090.689,1108.345,1090.689z M1145.896,1067.661c-0.717,0-1.421-0.349-1.845-0.993
					c-0.667-1.018-0.385-2.386,0.631-3.055c6.068-3.99,12.178-8.147,18.164-12.359c0.995-0.7,2.371-0.465,3.07,0.534
					c0.702,0.995,0.463,2.371-0.534,3.07c-6.022,4.24-12.172,8.425-18.276,12.441
					C1146.731,1067.545,1146.311,1067.661,1145.896,1067.661z"/>
				<path style="fill:#ff6900;" d="M1649.139,740.16c-3.871,0-7.857-0.071-11.84-0.211c-1.217-0.041-2.168-1.064-2.125-2.28
					c0.041-1.214,1.137-2.155,2.28-2.125c7.474,0.26,14.874,0.271,21.885,0.041c1.217-0.088,2.235,0.911,2.276,2.13
					c0.041,1.216-0.913,2.237-2.13,2.276C1656.113,740.104,1652.631,740.16,1649.139,740.16z M1615.378,738.555
					c-0.065,0-0.131-0.002-0.198-0.009c-6.884-0.616-14.077-1.406-21.994-2.416c-1.208-0.155-2.061-1.26-1.908-2.467
					c0.153-1.208,1.253-2.035,2.468-1.908c7.859,1.003,14.999,1.789,21.826,2.399c1.212,0.108,2.108,1.18,2,2.392
					C1617.468,737.692,1616.508,738.555,1615.378,738.555z M1681.389,738.459c-1.113,0-2.069-0.84-2.19-1.97
					c-0.129-1.21,0.747-2.297,1.957-2.427c7.114-0.762,14.4-1.809,21.654-3.111c1.193-0.222,2.345,0.583,2.56,1.781
					c0.215,1.199-0.581,2.345-1.781,2.56c-7.357,1.32-14.747,2.381-21.964,3.154
					C1681.546,738.454,1681.466,738.459,1681.389,738.459z M1571.637,733.084c-0.108,0-0.22-0.009-0.329-0.024
					c-7.017-1.057-14.267-2.207-21.805-3.426c-1.201-0.196-2.018-1.326-1.824-2.53c0.194-1.199,1.301-2.03,2.53-1.824
					c7.521,1.219,14.753,2.364,21.753,3.417c1.206,0.183,2.035,1.305,1.854,2.508
					C1573.65,732.301,1572.709,733.084,1571.637,733.084z M1724.751,730.753c-0.993,0-1.895-0.676-2.14-1.684
					c-0.289-1.182,0.437-2.375,1.621-2.663c6.795-1.656,13.916-3.589,21.159-5.745c1.171-0.344,2.394,0.319,2.741,1.484
					c0.349,1.167-0.316,2.394-1.483,2.741c-7.314,2.179-14.506,4.13-21.374,5.805C1725.1,730.733,1724.923,730.753,1724.751,730.753
					z M1767.004,718.253c-0.917,0-1.774-0.577-2.086-1.492c-0.394-1.152,0.222-2.405,1.374-2.799
					c6.563-2.241,13.52-4.741,20.679-7.433c1.128-0.431,2.409,0.146,2.838,1.288c0.431,1.139-0.146,2.409-1.287,2.838
					c-7.198,2.709-14.198,5.226-20.804,7.48C1767.48,718.217,1767.241,718.253,1767.004,718.253z M1808.271,702.77
					c-0.872,0-1.697-0.521-2.043-1.378c-0.457-1.13,0.088-2.414,1.216-2.87c6.459-2.612,13.296-5.452,20.317-8.445
					c1.122-0.482,2.414,0.041,2.892,1.165c0.478,1.12-0.043,2.414-1.165,2.892c-7.045,3.004-13.905,5.854-20.39,8.475
					C1808.827,702.719,1808.547,702.77,1808.271,702.77z"/>
				<path style="fill:#D87355;" d="M1372.349,1115.706c-30.767,0-55.709,24.944-55.709,55.713c0,30.77,55.709,98.671,55.709,98.671
					s55.709-67.901,55.709-98.671C1428.058,1140.65,1403.116,1115.706,1372.349,1115.706z M1372.349,1209.541
					c-21.053,0-38.119-17.068-38.119-38.122c0-21.054,17.066-38.121,38.119-38.121c21.052,0,38.119,17.068,38.119,38.121
					C1410.468,1192.474,1393.402,1209.541,1372.349,1209.541z"/>
			</g>
		</g>
		<g>
			<rect x="1605.346" y="1302.858" style="fill:#D3BBA3;" width="140.185" height="291.796"/>
			<rect x="1712.832" y="1159.328" style="fill:#E6D0BE;" width="124.077" height="410.697"/>
			<g>
				<rect x="1923.23" y="1198.807" style="fill:#E6D0BE;" width="235.603" height="624.566"/>
				<rect x="1950.688" y="1227.906" style="fill:#FFFFFF;" width="27.458" height="26.376"/>
				<rect x="2001.257" y="1227.906" style="fill:#FFFFFF;" width="27.458" height="26.376"/>
				<rect x="2051.826" y="1227.906" style="fill:#FFFFFF;" width="27.458" height="26.376"/>
				<rect x="2102.394" y="1227.906" style="fill:#FFFFFF;" width="27.458" height="26.376"/>
				<rect x="1950.688" y="1276.482" style="fill:#FFFFFF;" width="27.458" height="26.376"/>
				<rect x="2001.257" y="1276.482" style="fill:#FFFFFF;" width="27.458" height="26.376"/>
				<rect x="2051.826" y="1276.482" style="fill:#FFFFFF;" width="27.458" height="26.376"/>
				<rect x="2102.394" y="1276.482" style="fill:#FFFFFF;" width="27.458" height="26.376"/>
				<rect x="1950.688" y="1325.058" style="fill:#FFFFFF;" width="27.458" height="26.376"/>
				<rect x="2001.257" y="1325.058" style="fill:#FFFFFF;" width="27.458" height="26.376"/>
				<rect x="2051.826" y="1325.058" style="fill:#FFFFFF;" width="27.458" height="26.376"/>
				<rect x="2102.394" y="1325.058" style="fill:#FFFFFF;" width="27.458" height="26.376"/>
				<rect x="1950.688" y="1373.634" style="fill:#FFFFFF;" width="27.458" height="26.376"/>
				<rect x="2001.257" y="1373.634" style="fill:#FFFFFF;" width="27.458" height="26.376"/>
				<rect x="2051.826" y="1373.634" style="fill:#FFFFFF;" width="27.458" height="26.376"/>
				<rect x="2102.394" y="1373.634" style="fill:#FFFFFF;" width="27.458" height="26.376"/>
				<rect x="1950.688" y="1422.209" style="fill:#FFFFFF;" width="27.458" height="26.376"/>
				<rect x="2001.257" y="1422.209" style="fill:#FFFFFF;" width="27.458" height="26.376"/>
				<rect x="2051.826" y="1422.209" style="fill:#FFFFFF;" width="27.458" height="26.376"/>
				<rect x="2102.394" y="1422.209" style="fill:#FFFFFF;" width="27.458" height="26.376"/>
				<rect x="1950.688" y="1470.785" style="fill:#FFFFFF;" width="27.458" height="26.376"/>
				<rect x="2001.257" y="1470.785" style="fill:#FFFFFF;" width="27.458" height="26.376"/>
				<rect x="2051.826" y="1470.785" style="fill:#FFFFFF;" width="27.458" height="26.376"/>
				<rect x="2102.394" y="1470.785" style="fill:#FFFFFF;" width="27.458" height="26.376"/>
				<rect x="1950.688" y="1519.361" style="fill:#FFFFFF;" width="27.458" height="26.376"/>
				<rect x="2001.257" y="1519.361" style="fill:#FFFFFF;" width="27.458" height="26.376"/>
				<rect x="2051.826" y="1519.361" style="fill:#FFFFFF;" width="27.458" height="26.376"/>
				<rect x="2102.394" y="1519.361" style="fill:#FFFFFF;" width="27.458" height="26.376"/>
				<rect x="1950.688" y="1567.937" style="fill:#FFFFFF;" width="27.458" height="26.376"/>
				<rect x="2001.257" y="1567.937" style="fill:#FFFFFF;" width="27.458" height="26.376"/>
				<rect x="2051.826" y="1567.937" style="fill:#FFFFFF;" width="27.458" height="26.376"/>
				<rect x="2102.394" y="1567.937" style="fill:#FFFFFF;" width="27.458" height="26.376"/>
				<rect x="1950.688" y="1616.513" style="fill:#FFFFFF;" width="27.458" height="26.376"/>
				<rect x="2001.257" y="1616.513" style="fill:#FFFFFF;" width="27.458" height="26.376"/>
				<rect x="2051.826" y="1616.513" style="fill:#FFFFFF;" width="27.458" height="26.376"/>
				<rect x="2102.394" y="1616.513" style="fill:#FFFFFF;" width="27.458" height="26.376"/>
				<rect x="1950.688" y="1665.089" style="fill:#FFFFFF;" width="27.458" height="26.376"/>
				<rect x="2001.257" y="1665.089" style="fill:#FFFFFF;" width="27.458" height="26.376"/>
				<rect x="2051.826" y="1665.089" style="fill:#FFFFFF;" width="27.458" height="26.376"/>
				<rect x="2102.394" y="1665.089" style="fill:#FFFFFF;" width="27.458" height="26.376"/>
				<rect x="1950.688" y="1713.665" style="fill:#FFFFFF;" width="27.458" height="26.376"/>
				<rect x="2001.257" y="1713.665" style="fill:#FFFFFF;" width="27.458" height="26.376"/>
				<rect x="2051.826" y="1713.665" style="fill:#FFFFFF;" width="27.458" height="26.376"/>
				<rect x="2102.394" y="1713.665" style="fill:#FFFFFF;" width="27.458" height="26.376"/>
				<rect x="1950.688" y="1762.241" style="fill:#FFFFFF;" width="27.458" height="26.376"/>
				<rect x="2001.257" y="1762.241" style="fill:#FFFFFF;" width="27.458" height="26.376"/>
				<rect x="2051.826" y="1762.241" style="fill:#FFFFFF;" width="27.458" height="26.376"/>
				<rect x="2102.394" y="1762.241" style="fill:#FFFFFF;" width="27.458" height="26.376"/>
			</g>
			<g>
				<rect x="1746.921" y="1320.247" style="fill:#D3BBA3;" width="180.687" height="526.704"/>
				<rect x="1772.56" y="1349.345" style="fill:#FFFFFF;" width="27.458" height="26.376"/>
				<rect x="1823.128" y="1349.345" style="fill:#FFFFFF;" width="27.458" height="26.376"/>
				<rect x="1873.697" y="1349.345" style="fill:#FFFFFF;" width="27.458" height="26.376"/>
				<rect x="1772.56" y="1397.921" style="fill:#FFFFFF;" width="27.458" height="26.376"/>
				<rect x="1823.128" y="1397.921" style="fill:#FFFFFF;" width="27.458" height="26.376"/>
				<rect x="1873.697" y="1397.921" style="fill:#FFFFFF;" width="27.458" height="26.376"/>
				<rect x="1772.56" y="1446.497" style="fill:#FFFFFF;" width="27.458" height="26.376"/>
				<rect x="1823.128" y="1446.497" style="fill:#FFFFFF;" width="27.458" height="26.376"/>
				<rect x="1873.697" y="1446.497" style="fill:#FFFFFF;" width="27.458" height="26.376"/>
				<rect x="1772.56" y="1495.073" style="fill:#FFFFFF;" width="27.458" height="26.376"/>
				<rect x="1823.128" y="1495.073" style="fill:#FFFFFF;" width="27.458" height="26.376"/>
				<rect x="1873.697" y="1495.073" style="fill:#FFFFFF;" width="27.458" height="26.376"/>
				<rect x="1772.56" y="1543.649" style="fill:#FFFFFF;" width="27.458" height="26.376"/>
				<rect x="1823.128" y="1543.649" style="fill:#FFFFFF;" width="27.458" height="26.376"/>
				<rect x="1873.697" y="1543.649" style="fill:#FFFFFF;" width="27.458" height="26.376"/>
				<rect x="1772.56" y="1592.225" style="fill:#FFFFFF;" width="27.458" height="26.376"/>
				<rect x="1823.128" y="1592.225" style="fill:#FFFFFF;" width="27.458" height="26.376"/>
				<rect x="1873.697" y="1592.225" style="fill:#FFFFFF;" width="27.458" height="26.376"/>
				<rect x="1772.56" y="1640.801" style="fill:#FFFFFF;" width="27.458" height="26.376"/>
				<rect x="1823.128" y="1640.801" style="fill:#FFFFFF;" width="27.458" height="26.376"/>
				<rect x="1873.697" y="1640.801" style="fill:#FFFFFF;" width="27.458" height="26.376"/>
				<rect x="1772.56" y="1689.377" style="fill:#FFFFFF;" width="27.458" height="26.376"/>
				<rect x="1823.128" y="1689.377" style="fill:#FFFFFF;" width="27.458" height="26.376"/>
				<rect x="1873.697" y="1689.377" style="fill:#FFFFFF;" width="27.458" height="26.376"/>
				<rect x="1772.56" y="1737.953" style="fill:#FFFFFF;" width="27.458" height="26.376"/>
				<rect x="1823.128" y="1737.953" style="fill:#FFFFFF;" width="27.458" height="26.376"/>
				<rect x="1873.697" y="1737.953" style="fill:#FFFFFF;" width="27.458" height="26.376"/>
				<rect x="1772.56" y="1786.529" style="fill:#FFFFFF;" width="27.458" height="26.376"/>
				<rect x="1823.128" y="1786.529" style="fill:#FFFFFF;" width="27.458" height="26.376"/>
				<rect x="1873.697" y="1786.529" style="fill:#FFFFFF;" width="27.458" height="26.376"/>
			</g>
			<rect x="1487.476" y="1404.846" style="fill:#F7F1EB;" width="170.342" height="245.72"/>
			<g>
				<rect x="1547.604" y="1570.025" style="fill:#D3BBA3;" width="213.097" height="242.88"/>
				<rect x="1662.379" y="1594.654" style="fill:#FFFFFF;" width="17.755" height="42.776"/>
				<rect x="1695.077" y="1594.654" style="fill:#FFFFFF;" width="17.755" height="42.776"/>
				<rect x="1727.776" y="1594.654" style="fill:#FFFFFF;" width="17.755" height="42.776"/>
				<rect x="1662.379" y="1673.434" style="fill:#FFFFFF;" width="17.755" height="42.776"/>
				<rect x="1695.077" y="1673.434" style="fill:#FFFFFF;" width="17.755" height="42.776"/>
				<rect x="1727.776" y="1673.434" style="fill:#FFFFFF;" width="17.755" height="42.776"/>
				<rect x="1662.379" y="1752.213" style="fill:#FFFFFF;" width="17.755" height="42.776"/>
				<rect x="1695.077" y="1752.213" style="fill:#FFFFFF;" width="17.755" height="42.776"/>
				<rect x="1727.776" y="1752.213" style="fill:#FFFFFF;" width="17.755" height="42.776"/>
				<rect x="1563.77" y="1594.654" style="fill:#FFFFFF;" width="17.755" height="42.776"/>
				<rect x="1596.468" y="1594.654" style="fill:#FFFFFF;" width="17.755" height="42.776"/>
				<rect x="1629.167" y="1594.654" style="fill:#FFFFFF;" width="17.755" height="42.776"/>
				<rect x="1563.77" y="1673.434" style="fill:#FFFFFF;" width="17.755" height="42.776"/>
				<rect x="1596.468" y="1673.434" style="fill:#FFFFFF;" width="17.755" height="42.776"/>
				<rect x="1629.167" y="1673.434" style="fill:#FFFFFF;" width="17.755" height="42.776"/>
				<rect x="1563.77" y="1752.213" style="fill:#FFFFFF;" width="17.755" height="42.776"/>
				<rect x="1596.468" y="1752.213" style="fill:#FFFFFF;" width="17.755" height="42.776"/>
				<rect x="1629.167" y="1752.213" style="fill:#FFFFFF;" width="17.755" height="42.776"/>
			</g>
		</g>
		<g>
			<g>
				<rect x="338.174" y="1387.289" style="fill:#EFBC73;" width="763.461" height="566.127"/>
				<path style="fill:#E0AA63;" d="M527.082,1922.748c-1.219,0-2.205-0.986-2.205-2.205v-500.382c0-1.219,0.986-2.205,2.205-2.205
					c1.219,0,2.205,0.986,2.205,2.205v500.382C529.287,1921.762,528.301,1922.748,527.082,1922.748z"/>
				<path style="fill:#E0AA63;" d="M867.979,1922.748c-1.219,0-2.205-0.986-2.205-2.205v-332.895c0-1.219,0.986-2.205,2.205-2.205
					c1.219,0,2.205,0.986,2.205,2.205v332.895C870.183,1921.762,869.197,1922.748,867.979,1922.748z"/>
				<g>
					<path style="fill:#F7F1EB;" d="M940.331,1569.744c-0.575,0-1.139-0.224-1.561-0.646l-37.618-37.678l-31.302,31.35
						c-0.827,0.827-2.295,0.827-3.122,0l-32.334-32.385l-37.204,37.264c-0.629,0.631-1.585,0.823-2.403,0.478
						c-0.825-0.34-1.363-1.145-1.363-2.037v-171.3c0-1.219,0.986-2.205,2.205-2.205c1.219,0,2.205,0.986,2.205,2.205v165.971
						l34.999-35.055c0.827-0.827,2.295-0.827,3.122,0l32.334,32.385l31.302-31.35c0.827-0.827,2.295-0.827,3.122,0l35.413,35.469
						v-167.42c0-1.219,0.986-2.205,2.205-2.205c1.219,0,2.205,0.986,2.205,2.205v172.749c0,0.891-0.538,1.697-1.361,2.037
						C940.901,1569.691,940.615,1569.744,940.331,1569.744z"/>
				</g>
			</g>
			<g>
				<rect x="545.948" y="1021.36" style="fill:#E0AA63;" width="493.262" height="365.768"/>
				<path style="fill:#EFBC73;" d="M667.999,1368.094c-1.219,0-2.205-0.986-2.205-2.205v-323.29c0-1.219,0.986-2.205,2.205-2.205
					c1.219,0,2.205,0.986,2.205,2.205v323.29C670.204,1367.108,669.217,1368.094,667.999,1368.094z"/>
				<path style="fill:#EFBC73;" d="M888.248,1368.094c-1.219,0-2.205-0.986-2.205-2.205v-215.08c0-1.219,0.986-2.205,2.205-2.205
					c1.219,0,2.205,0.986,2.205,2.205v215.08C890.453,1367.108,889.467,1368.094,888.248,1368.094z"/>
				<g>
					<path style="fill:#F7F1EB;" d="M934.993,1140.022c-0.575,0-1.139-0.224-1.561-0.646l-23.751-23.79l-19.671,19.701
						c-0.413,0.413-0.975,0.646-1.561,0.646l0,0c-0.586,0-1.148-0.233-1.561-0.646l-20.336-20.371l-23.487,23.523
						c-0.631,0.629-1.578,0.823-2.405,0.478c-0.823-0.34-1.361-1.146-1.361-2.037v-110.674c0-1.219,0.986-2.205,2.205-2.205
						s2.205,0.986,2.205,2.205v105.345l21.282-21.314c0.413-0.413,0.975-0.646,1.561-0.646l0,0c0.586,0,1.148,0.233,1.561,0.646
						l20.336,20.371l19.671-19.701c0.413-0.413,0.975-0.646,1.561-0.646l0,0c0.586,0,1.148,0.232,1.561,0.646l21.547,21.581
						v-106.281c0-1.219,0.986-2.205,2.205-2.205c1.219,0,2.205,0.986,2.205,2.205v111.61c0,0.891-0.538,1.697-1.361,2.037
						C935.563,1139.968,935.277,1140.022,934.993,1140.022z"/>
				</g>
			</g>
			<g>
				<path style="fill:#D87355;" d="M587.083,881.867c51.375,0,93.022,41.647,93.022,93.021c0,51.375-93.022,164.746-93.022,164.746
					s-93.022-113.371-93.022-164.746C494.062,923.514,535.709,881.867,587.083,881.867z"/>
				
					<ellipse transform="matrix(0.1509 -0.9886 0.9886 0.1509 -465.2164 1408.1768)" style="fill:#FFFFFF;" cx="587.083" cy="974.888" rx="63.65" ry="63.649"/>
			</g>
		</g>
		<g>
			<path style="fill:#363E44;" d="M1540.181,1933.531c-1.219,0-2.205-0.986-2.205-2.205v-354.399c0-1.219,0.986-2.205,2.205-2.205
				c1.219,0,2.205,0.986,2.205,2.205v354.399C1542.386,1932.545,1541.4,1933.531,1540.181,1933.531z"/>
			<g>
				<g>
					
						<ellipse transform="matrix(0.2298 -0.9732 0.9732 0.2298 -1356.1744 2390.0803)" style="fill:#363E44;" cx="831.91" cy="2051.84" rx="55.017" ry="55.017"/>
					<path style="fill:#EFBC73;" d="M831.909,2083.11c-17.242,0-31.27-14.028-31.27-31.27c0-17.242,14.028-31.27,31.27-31.27
						c17.245,0,31.272,14.028,31.272,31.27C863.181,2069.082,849.154,2083.11,831.909,2083.11z M831.909,2024.979
						c-14.812,0-26.86,12.049-26.86,26.86c0,14.812,12.049,26.861,26.86,26.861s26.863-12.049,26.863-26.861
						C858.772,2037.028,846.721,2024.979,831.909,2024.979z"/>
				</g>
				<g>
					
						<ellipse transform="matrix(0.7071 -0.7071 0.7071 0.7071 -1171.0281 1276.5676)" style="fill:#363E44;" cx="955.439" cy="2051.84" rx="55.017" ry="55.017"/>
					<path style="fill:#EFBC73;" d="M955.439,2083.11c-17.242,0-31.27-14.028-31.27-31.27c0-17.242,14.028-31.27,31.27-31.27
						c17.242,0,31.27,14.028,31.27,31.27C986.709,2069.082,972.682,2083.11,955.439,2083.11z M955.439,2024.979
						c-14.812,0-26.861,12.049-26.861,26.86c0,14.812,12.049,26.861,26.861,26.861c14.811,0,26.86-12.049,26.86-26.861
						C982.3,2037.028,970.251,2024.979,955.439,2024.979z"/>
				</g>
				<g>
					
						<ellipse transform="matrix(0.7071 -0.7071 0.7071 0.7071 -1134.847 1363.9161)" style="fill:#363E44;" cx="1078.969" cy="2051.84" rx="55.017" ry="55.017"/>
					<path style="fill:#EFBC73;" d="M1078.969,2083.11c-17.242,0-31.27-14.028-31.27-31.27c0-17.242,14.028-31.27,31.27-31.27
						s31.27,14.028,31.27,31.27C1110.239,2069.082,1096.212,2083.11,1078.969,2083.11z M1078.969,2024.979
						c-14.811,0-26.86,12.049-26.86,26.86c0,14.812,12.049,26.861,26.86,26.861s26.86-12.049,26.86-26.861
						C1105.83,2037.028,1093.781,2024.979,1078.969,2024.979z"/>
				</g>
				<g>
					
						<ellipse transform="matrix(0.2298 -0.9732 0.9732 0.2298 -888.2584 2981.3171)" style="fill:#363E44;" cx="1439.398" cy="2051.84" rx="55.017" ry="55.017"/>
					<path style="fill:#EFBC73;" d="M1439.397,2083.11c-17.242,0-31.27-14.028-31.27-31.27c0-17.242,14.028-31.27,31.27-31.27
						c17.245,0,31.272,14.028,31.272,31.27C1470.669,2069.082,1456.641,2083.11,1439.397,2083.11z M1439.397,2024.979
						c-14.812,0-26.86,12.049-26.86,26.86c0,14.812,12.049,26.861,26.86,26.861s26.863-12.049,26.863-26.861
						C1466.26,2037.028,1454.208,2024.979,1439.397,2024.979z"/>
				</g>
				<g>
					
						<ellipse transform="matrix(0.9239 -0.3827 0.3827 0.9239 -653.7687 816.9595)" style="fill:#363E44;" cx="1726.684" cy="2051.84" rx="55.017" ry="55.017"/>
					<path style="fill:#EFBC73;" d="M1726.684,2083.11c-17.245,0-31.272-14.028-31.272-31.27c0-17.242,14.028-31.27,31.272-31.27
						c17.242,0,31.27,14.028,31.27,31.27C1757.955,2069.082,1743.927,2083.11,1726.684,2083.11z M1726.684,2024.979
						c-14.811,0-26.863,12.049-26.863,26.86c0,14.812,12.051,26.861,26.863,26.861c14.812,0,26.861-12.049,26.861-26.861
						C1753.545,2037.028,1741.496,2024.979,1726.684,2024.979z"/>
				</g>
				<rect x="1155.185" y="2007.203" style="fill:#363E44;" width="214.082" height="44.637"/>
			</g>
			<path style="fill:#363E44;" d="M1583.811,1992.133H757.516c-1.219,0-2.205-0.986-2.205-2.205c0-1.219,0.986-2.205,2.205-2.205
				h824.09v-184.193c0-1.219,0.986-2.205,2.205-2.205c1.219,0,2.205,0.986,2.205,2.205v186.398
				C1586.015,1991.147,1585.029,1992.133,1583.811,1992.133z"/>
			<g>
				<polygon style="fill:#363E44;" points="1785.667,1834.673 1785.667,1725.095 1600.882,1679.418 1600.882,1989.929 
					1769.556,1989.929 1785.667,1989.929 1880.481,1989.929 1880.481,1858.111 				"/>
				<path style="fill:#363E44;" d="M1785.668,1709.279c-0.177,0-0.353-0.021-0.532-0.065l-184.783-45.677
					c-1.182-0.293-1.903-1.488-1.611-2.67c0.291-1.184,1.488-1.903,2.67-1.611l184.783,45.677c1.182,0.293,1.903,1.488,1.61,2.67
					C1787.558,1708.607,1786.658,1709.279,1785.668,1709.279z"/>
				<path style="fill:#E6D0BE;" d="M1862.488,1915.022c-1.219,0-2.205-0.986-2.205-2.205v-41.526c0-1.219,0.986-2.205,2.205-2.205
					c1.219,0,2.205,0.986,2.205,2.205v41.526C1864.692,1914.036,1863.706,1915.022,1862.488,1915.022z"/>
				<rect x="1671.666" y="1753.701" style="fill:#ff6900;" width="105.464" height="80.973"/>
			</g>
			<g>
				<rect x="695.787" y="1538.935" style="fill:#ff6900;" width="871.48" height="434.449"/>
				<g>
					<path style="fill:#363E44;" d="M1540.181,1570.448H722.874c-1.219,0-2.205-0.986-2.205-2.205c0-1.219,0.986-2.205,2.205-2.205
						h817.307c1.219,0,2.205,0.986,2.205,2.205C1542.386,1569.462,1541.4,1570.448,1540.181,1570.448z"/>
					<path style="fill:#363E44;" d="M1540.181,1946.28H722.874c-1.219,0-2.205-0.986-2.205-2.205c0-1.219,0.986-2.205,2.205-2.205
						h817.307c1.219,0,2.205,0.986,2.205,2.205C1542.386,1945.293,1541.4,1946.28,1540.181,1946.28z"/>
				</g>
				<path style="fill:#363E44;" d="M722.874,1933.531c-1.219,0-2.205-0.986-2.205-2.205v-354.399c0-1.219,0.986-2.205,2.205-2.205
					c1.219,0,2.205,0.986,2.205,2.205v354.399C725.079,1932.545,724.093,1933.531,722.874,1933.531z"/>
				<g>
					<g>
						<path style="fill:#D3BBA3;" d="M990.43,1886.114c-0.047,0-0.088,0-0.133,0l-35.428-0.047
							c-21.919-0.028-42.531-7.273-58.04-20.399c-15.617-13.218-24.204-30.807-24.178-49.527l0.228-170.316
							c0.002-1.216,0.988-2.203,2.205-2.203h0.002c1.219,0.002,2.205,0.99,2.203,2.207l-0.228,170.316
							c-0.024,17.4,8.008,33.792,22.617,46.155c14.717,12.456,34.319,19.329,55.196,19.357l35.428,0.047c0.043,0,0.088,0,0.129,0
							c42.897,0,77.813-29.27,77.862-65.298c0.026-18.721,8.658-36.287,24.311-49.462c15.513-13.057,36.091-20.244,57.956-20.244
							c0.045,0,0.09,0,0.136,0l122.906,0.166c1.219,0.002,2.205,0.99,2.203,2.207c-0.002,1.217-0.988,2.203-2.205,2.203h-0.002
							l-122.906-0.166c-0.045,0-0.088,0-0.131,0c-20.827,0-40.397,6.819-55.116,19.208c-14.641,12.325-22.718,28.695-22.741,46.092
							C1072.648,1854.868,1035.751,1886.112,990.43,1886.114z"/>
						<g>
							<path style="fill:#E6D0BE;" d="M1158.26,1663.018c-27.604,30.172-23.807,65.989-6.882,77.169
								c16.925,11.179,51.758,0.784,68.173-36.684c16.34-37.298,13.348-86.977,13.348-86.977S1187.777,1630.754,1158.26,1663.018z"
								/>
							<path style="fill:#D3BBA3;" d="M1146.356,1750.651c-0.416,0-0.838-0.118-1.212-0.364c-1.016-0.67-1.296-2.037-0.627-3.055
								l67.878-102.965c0.672-1.012,2.037-1.292,3.055-0.627c1.016,0.67,1.296,2.037,0.626,3.055l-67.878,102.965
								C1147.775,1750.303,1147.073,1750.651,1146.356,1750.651z"/>
						</g>
						<g>
							<path style="fill:#E6D0BE;" d="M1154.615,1821.373c-36.729-17.948-69.968-4.154-75.882,15.261
								c-5.915,19.415,13.916,49.908,54.464,55.047c40.364,5.116,87.111-11.834,87.111-11.834S1193.889,1840.565,1154.615,1821.373z
								"/>
							<path style="fill:#D3BBA3;" d="M1187.279,1872.343c-0.213,0-0.429-0.03-0.644-0.097l-117.882-35.981
								c-1.165-0.355-1.819-1.587-1.464-2.752c0.355-1.163,1.583-1.828,2.752-1.464l117.883,35.981
								c1.165,0.355,1.819,1.587,1.464,2.752C1189.098,1871.731,1188.224,1872.343,1187.279,1872.343z"/>
						</g>
						<g>
							<path style="fill:#E6D0BE;" d="M930.824,1779.886c-34.724,21.58-40.741,57.091-27.466,72.434
								c13.276,15.343,49.619,14.76,75.541-16.872c25.804-31.488,36.339-80.127,36.339-80.127S967.955,1756.81,930.824,1779.886z"/>
							<path style="fill:#D3BBA3;" d="M896.297,1861.119c-0.616,0-1.229-0.258-1.666-0.76c-0.797-0.919-0.698-2.313,0.222-3.111
								l93.156-80.767c0.919-0.797,2.31-0.698,3.111,0.222c0.797,0.922,0.698,2.313-0.222,3.111l-93.156,80.766
								C897.324,1860.942,896.809,1861.119,896.297,1861.119z"/>
						</g>
					</g>
					<g>
						<g>
							<path style="fill:#363E44;" d="M1356.661,1775.781l-0.004,2.606c-0.004,2.86,2.312,5.182,5.171,5.185l56.06,0.076
								c2.86,0.004,5.182-2.312,5.185-5.171l0.004-2.606c0.004-2.86-2.312-5.182-5.171-5.185l-56.06-0.075
								C1358.986,1770.606,1356.665,1772.921,1356.661,1775.781z"/>
							<path style="fill:#363E44;" d="M1356.736,1719.83l-0.004,2.606c-0.004,2.86,2.312,5.182,5.171,5.185l56.06,0.075
								c2.86,0.004,5.182-2.311,5.185-5.171l0.004-2.606c0.004-2.86-2.312-5.182-5.171-5.185l-56.06-0.075
								C1359.062,1714.654,1356.74,1716.97,1356.736,1719.83z"/>
						</g>
						<path style="fill:#F7F1EB;" d="M1256.68,1739.455l-0.026,19.187c-0.028,21.059,17.02,38.154,38.079,38.182l68.974,0.093
							l0.129-95.448l-68.974-0.093C1273.803,1701.348,1256.709,1718.396,1256.68,1739.455z"/>
						<path style="fill:#FFFFFF;" d="M1351.356,1689.347l-0.161,119.658c-0.004,3.214,2.598,5.823,5.812,5.828l2.928,0.004
							c3.214,0.004,5.823-2.598,5.828-5.812l0.161-119.658c0.004-3.214-2.598-5.823-5.812-5.828l-2.928-0.004
							C1353.97,1683.531,1351.361,1686.133,1351.356,1689.347z"/>
					</g>
				</g>
			</g>
		</g>
	</g>
</g>
</svg>
