<?xml version="1.0" encoding="utf-8"?>
<!-- Generator: Adobe Illustrator 27.5.0, SVG Export Plug-In . SVG Version: 6.00 Build 0)  -->
<svg version="1.1" id="Illustration" xmlns="http://www.w3.org/2000/svg" xmlns:xlink="http://www.w3.org/1999/xlink" x="0px"
	 y="0px" viewBox="0 0 2500 2500" style="enable-background:new 0 0 2500 2500;" xml:space="preserve">
<g id="Budget_planning_1_">
	<ellipse style="fill:transparent;" cx="1250" cy="1250" rx="914.823" ry="915"/>
	<g>
		<g>
			<path style="fill:#E6D0BE;" d="M1970.449,1529.389l-23.334-8.155c1.885-12.107,2.771-24.213,2.715-36.219l24.268-4.604
				l-15.586-82.204l-24.323,4.614c-4.39-11.293-9.659-22.226-15.759-32.694l18.758-16.16l-54.593-63.397l-18.716,16.124
				c-9.357-7.522-19.376-14.368-30.021-20.434l8.154-23.339l-78.97-27.601l-8.154,23.339c-12.105-1.885-24.208-2.771-36.212-2.715
				l-4.602-24.274l-82.189,15.59l4.613,24.328c-11.291,4.39-22.222,9.66-32.688,15.762l-16.157-18.762l-63.384,54.604l16.12,18.719
				c-7.52,9.358-14.365,19.38-20.429,30.027l-23.334-8.155l-27.596,78.986l23.334,8.155c-1.885,12.107-2.77,24.212-2.715,36.218
				l-24.268,4.604l15.587,82.204l24.324-4.614c4.389,11.293,9.659,22.226,15.759,32.695l-18.758,16.16l54.593,63.396l18.716-16.123
				c9.357,7.521,19.376,14.368,30.021,20.433l-8.154,23.339l78.97,27.601l8.154-23.339c12.105,1.886,24.208,2.771,36.211,2.716
				l4.602,24.273l82.188-15.589l-4.612-24.329c11.291-4.39,22.222-9.661,32.688-15.762l16.156,18.763l63.384-54.604l-16.12-18.72
				c7.52-9.359,14.365-19.381,20.43-30.027l23.334,8.156L1970.449,1529.389z M1869.255,1543.894
				c-30.216,78.364-117.298,120.354-197.414,95.192c-88.467-27.785-134.984-124.291-101.618-210.823
				c30.216-78.364,117.298-120.354,197.414-95.192C1856.105,1360.857,1902.622,1457.362,1869.255,1543.894z"/>
		</g>
		<path style="fill:#F2E6DC;" d="M1719.773,1670.134c-20.266,0-40.767-3.353-60.729-10.33
			c-95.774-33.474-146.464-138.64-112.997-234.432c14.624-41.855,43.842-77.014,82.272-99c38.05-21.767,82.592-29.289,125.43-21.175
			c0.542,0.103,0.898,0.626,0.796,1.168c-0.104,0.542-0.624,0.903-1.169,0.796c-87.645-16.599-175.965,34.504-205.44,118.869
			c-33.104,94.752,17.035,198.775,111.769,231.885c78.274,27.357,165.129-1.596,211.21-70.412c0.309-0.458,0.929-0.582,1.388-0.274
			c0.459,0.308,0.582,0.929,0.274,1.388C1837.739,1640.64,1779.844,1670.134,1719.773,1670.134z"/>
	</g>
	<g>
		<path style="fill:#BC8271;" d="M1141.408,868.682c-0.001,0-0.001,0-0.002,0l-404.685-0.67c-0.265,0-0.52-0.106-0.706-0.294
			c-0.188-0.188-0.292-0.442-0.292-0.707l0.814-490.924c0.001-0.552,0.448-0.999,1-0.999c0.001,0,0.001,0,0.002,0l404.685,0.67
			c0.265,0,0.52,0.106,0.706,0.294c0.188,0.188,0.292,0.442,0.292,0.708l-0.813,490.924
			C1142.407,868.235,1141.96,868.682,1141.408,868.682z M737.726,866.013l402.685,0.668l0.81-488.924l-402.685-0.667
			L737.726,866.013z"/>
		<g>
			<path style="fill:#363E44;" d="M1148.207,409.069c-16.377,0-29.712-13.308-29.739-29.691
				c-0.027-16.398,13.292-29.762,29.69-29.789c0.017,0,0.034,0,0.051,0c16.377,0,29.712,13.308,29.739,29.691
				c0.027,16.398-13.292,29.762-29.69,29.789C1148.241,409.069,1148.224,409.069,1148.207,409.069z M1148.209,351.589
				c-0.017,0-0.031,0-0.047,0c-15.296,0.025-27.72,12.49-27.694,27.786c0.025,15.28,12.465,27.693,27.739,27.694
				c0.017,0,0.031,0,0.047,0c15.296-0.025,27.72-12.49,27.694-27.786C1175.923,364.003,1163.483,351.589,1148.209,351.589z"/>
			<path style="fill:#363E44;" d="M1105.921,409.139c-16.377,0-29.713-13.309-29.74-29.691
				c-0.027-16.399,13.292-29.762,29.69-29.789c0.017,0,0.033,0,0.05,0c16.377,0,29.713,13.309,29.74,29.691
				c0.027,16.399-13.292,29.762-29.69,29.79C1105.954,409.139,1105.938,409.139,1105.921,409.139z M1105.921,351.659
				c-0.017,0-0.03,0-0.046,0c-15.296,0.025-27.72,12.49-27.694,27.786c0.025,15.28,12.466,27.693,27.74,27.694
				c0.017,0,0.03,0,0.046,0c15.296-0.025,27.72-12.49,27.694-27.787C1133.636,364.073,1121.195,351.659,1105.921,351.659z"/>
			<path style="fill:#363E44;" d="M1063.633,409.209c-16.377,0-29.712-13.308-29.739-29.691c-0.014-7.944,3.068-15.417,8.676-21.043
				s13.071-8.732,21.015-8.746c0.017,0,0.034,0,0.051,0c16.377,0,29.712,13.308,29.739,29.691
				c0.027,16.398-13.292,29.762-29.69,29.789C1063.667,409.209,1063.649,409.209,1063.633,409.209z M1063.635,351.729
				c-0.017,0-0.031,0-0.047,0c-7.41,0.012-14.371,2.909-19.603,8.157c-5.23,5.248-8.104,12.219-8.092,19.629
				c0.025,15.28,12.465,27.693,27.739,27.694c0.017,0,0.031,0,0.047,0c15.296-0.025,27.72-12.49,27.694-27.786
				C1091.349,364.143,1078.909,351.729,1063.635,351.729z"/>
			<path style="fill:#363E44;" d="M1021.345,409.279c-7.926,0-15.378-3.08-20.993-8.676c-5.626-5.608-8.732-13.071-8.745-21.015
				c-0.014-7.944,3.067-15.417,8.676-21.043c5.607-5.626,13.071-8.732,21.015-8.746c7.945,0.014,15.418,3.068,21.044,8.676
				c5.627,5.608,8.732,13.071,8.745,21.015c0.014,7.944-3.068,15.418-8.676,21.044s-13.071,8.732-21.015,8.745
				C1021.379,409.279,1021.36,409.279,1021.345,409.279z M1021.348,351.799c-0.016,0-0.031,0-0.047,0
				c-7.41,0.012-14.371,2.909-19.603,8.157c-5.23,5.248-8.104,12.219-8.092,19.629c0.013,7.41,2.909,14.371,8.157,19.602
				c5.237,5.22,12.189,8.092,19.581,8.092c0.016,0,0.031,0,0.047,0c7.41-0.012,14.371-2.909,19.603-8.157
				c5.23-5.248,8.104-12.219,8.092-19.629c-0.012-7.409-2.908-14.371-8.156-19.602
				C1035.692,354.671,1028.74,351.799,1021.348,351.799z"/>
			<path style="fill:#363E44;" d="M979.058,409.349c-7.926,0-15.378-3.08-20.993-8.676c-5.626-5.608-8.732-13.071-8.745-21.015
				c-0.014-7.944,3.067-15.417,8.676-21.044c5.607-5.626,13.071-8.732,21.015-8.746c0.017,0,0.034,0,0.051,0
				c7.926,0,15.378,3.08,20.993,8.676c5.626,5.608,8.732,13.071,8.745,21.015c0.014,7.944-3.068,15.417-8.676,21.043
				c-5.607,5.627-13.071,8.732-21.015,8.746C979.092,409.349,979.074,409.349,979.058,409.349z M979.06,351.869
				c-0.016,0-0.031,0-0.047,0c-7.41,0.012-14.371,2.909-19.603,8.157c-5.23,5.248-8.104,12.219-8.092,19.629
				c0.013,7.409,2.909,14.371,8.157,19.602c5.237,5.22,12.189,8.092,19.581,8.092c0.016,0,0.031,0,0.047,0
				c7.41-0.012,14.371-2.909,19.602-8.157c5.231-5.248,8.105-12.219,8.092-19.629c-0.013-7.409-2.909-14.371-8.157-19.602
				C993.404,354.742,986.452,351.869,979.06,351.869z"/>
			<path style="fill:#363E44;" d="M936.771,409.419c-7.926,0-15.378-3.08-20.993-8.676c-5.626-5.608-8.731-13.071-8.745-21.015
				c-0.014-7.944,3.067-15.417,8.676-21.043c5.607-5.626,13.071-8.733,21.015-8.746c0.017,0,0.034,0,0.051,0
				c7.926,0,15.378,3.08,20.993,8.676c5.626,5.608,8.731,13.071,8.745,21.015c0.014,7.944-3.068,15.417-8.676,21.044
				c-5.607,5.626-13.071,8.732-21.015,8.745C936.805,409.419,936.786,409.419,936.771,409.419z M936.773,351.939
				c-0.016,0-0.031,0-0.047,0c-7.41,0.012-14.371,2.909-19.603,8.157c-5.23,5.248-8.105,12.219-8.092,19.629
				c0.013,7.41,2.909,14.371,8.157,19.602c5.237,5.22,12.189,8.092,19.581,8.092c0.016,0,0.031,0,0.047,0
				c7.41-0.012,14.371-2.909,19.603-8.157c5.23-5.248,8.104-12.219,8.092-19.629c-0.013-7.409-2.909-14.371-8.157-19.602
				C951.117,354.811,944.165,351.939,936.773,351.939z"/>
			<path style="fill:#363E44;" d="M894.483,409.489c-7.926,0-15.378-3.08-20.993-8.676c-5.626-5.608-8.731-13.071-8.745-21.015
				c-0.014-7.944,3.067-15.417,8.676-21.043c5.607-5.627,13.071-8.732,21.015-8.746c0.017,0,0.034,0,0.051,0
				c7.926,0,15.378,3.08,20.993,8.676c5.626,5.608,8.731,13.071,8.745,21.015c0.014,7.944-3.068,15.417-8.676,21.044
				c-5.607,5.626-13.071,8.732-21.015,8.746C894.518,409.489,894.5,409.489,894.483,409.489z M894.486,352.009
				c-0.016,0-0.031,0-0.047,0c-7.41,0.012-14.371,2.909-19.603,8.157c-5.231,5.248-8.104,12.219-8.092,19.629
				c0.013,7.409,2.909,14.371,8.157,19.602c5.237,5.22,12.19,8.092,19.581,8.092c0.016,0,0.031,0,0.047,0
				c7.41-0.012,14.371-2.909,19.603-8.157c5.23-5.248,8.104-12.219,8.092-19.629c-0.013-7.409-2.909-14.371-8.157-19.602
				C908.83,354.882,901.878,352.009,894.486,352.009z"/>
			<path style="fill:#363E44;" d="M852.196,409.559c-7.926,0-15.379-3.08-20.993-8.676c-5.627-5.607-8.732-13.071-8.746-21.015
				c-0.026-16.398,13.293-29.762,29.691-29.789c7.968-0.033,15.417,3.068,21.044,8.676c5.626,5.608,8.731,13.071,8.745,21.015
				c0.014,7.944-3.068,15.418-8.676,21.044c-5.607,5.626-13.071,8.732-21.015,8.745
				C852.231,409.559,852.212,409.559,852.196,409.559z M824.457,379.865c0.013,7.41,2.909,14.371,8.157,19.602
				c5.237,5.22,12.189,8.092,19.582,8.092c0.016,0,0.031,0,0.047,0c7.41-0.012,14.371-2.909,19.602-8.157
				c5.23-5.248,8.104-12.219,8.092-19.629c-0.013-7.409-2.909-14.371-8.157-19.602c-5.237-5.22-12.189-8.092-19.581-8.092
				c-0.016,0-0.031,0-0.047,0C836.856,352.104,824.433,364.569,824.457,379.865z"/>
			<path style="fill:#363E44;" d="M809.909,409.629c-16.377,0-29.712-13.308-29.739-29.691
				c-0.027-16.398,13.292-29.762,29.69-29.789c0.017,0,0.034,0,0.051,0c16.377,0,29.712,13.308,29.739,29.691
				c0.014,7.944-3.068,15.417-8.676,21.043c-5.607,5.627-13.071,8.732-21.015,8.746
				C809.943,409.629,809.926,409.629,809.909,409.629z M809.911,352.149c-0.017,0-0.031,0-0.047,0
				c-15.296,0.025-27.72,12.49-27.694,27.786c0.025,15.28,12.465,27.693,27.739,27.694c0.017,0,0.031,0,0.047,0
				c7.41-0.012,14.371-2.909,19.602-8.157c5.231-5.248,8.104-12.219,8.092-19.629C837.625,364.564,825.185,352.149,809.911,352.149z
				"/>
		</g>
		
			<rect x="756.427" y="374.389" transform="matrix(1 0.0017 -0.0017 1 1.0146 -1.6176)" style="fill:#FFFFFF;" width="436.491" height="471.635"/>
		<path style="fill:#FFFFFF;" d="M1103.084,401.728c0.012,7.482,6.088,13.537,13.57,13.525c7.482-0.012,13.537-6.088,13.525-13.57
			c-0.012-7.482-6.088-13.537-13.57-13.525S1103.072,394.246,1103.084,401.728z"/>
		
			<ellipse transform="matrix(0.9321 -0.3623 0.3623 0.9321 -72.5744 416.4994)" style="fill:#FFFFFF;" cx="1074.344" cy="401.776" rx="13.547" ry="13.547"/>
		
			<ellipse transform="matrix(0.7071 -0.7071 0.7071 0.7071 18.1347 847.4722)" style="fill:#FFFFFF;" cx="1032.057" cy="401.846" rx="13.547" ry="13.547"/>
		
			<ellipse transform="matrix(0.9768 -0.2141 0.2141 0.9768 -63.0927 221.192)" style="fill:#FFFFFF;" cx="989.77" cy="401.916" rx="13.547" ry="13.547"/>
		
			<ellipse transform="matrix(0.9847 -0.1744 0.1744 0.9847 -55.597 171.4492)" style="fill:#FFFFFF;" cx="947.482" cy="401.986" rx="13.547" ry="13.547"/>
		<path style="fill:#FFFFFF;" d="M891.648,402.078c0.012,7.482,6.088,13.537,13.57,13.525c7.482-0.012,13.537-6.088,13.525-13.57
			c-0.012-7.482-6.088-13.537-13.57-13.525C897.691,388.521,891.636,394.596,891.648,402.078z"/>
		
			<ellipse transform="matrix(0.9686 -0.2486 0.2486 0.9686 -72.8827 227.1655)" style="fill:#FFFFFF;" cx="862.908" cy="402.126" rx="13.547" ry="13.547"/>
		
			<ellipse transform="matrix(0.0205 -0.9998 0.9998 0.0205 401.6784 1214.3949)" style="fill:#FFFFFF;" cx="820.621" cy="402.196" rx="13.547" ry="13.547"/>
		
			<ellipse transform="matrix(0.5313 -0.8472 0.8472 0.5313 24.023 847.9525)" style="fill:#FFFFFF;" cx="778.334" cy="402.266" rx="13.547" ry="13.547"/>
		<path style="fill:#363E44;" d="M1153.586,408.566c-0.472,0-0.891-0.334-0.981-0.814c-0.103-0.542,0.254-1.066,0.797-1.168
			c13.087-2.478,22.569-13.96,22.547-27.301c-0.025-15.28-12.465-27.694-27.739-27.694c-0.018,0-0.035,0.003-0.049,0
			c-0.552,0-0.999-0.447-1-0.999c-0.001-0.569,0.473-0.989,1.049-1.001c16.377,0,29.712,13.308,29.739,29.691
			c0.023,14.303-10.144,26.613-24.176,29.269C1153.71,408.561,1153.647,408.566,1153.586,408.566z"/>
		<path style="fill:#363E44;" d="M1111.299,408.636c-0.472,0-0.891-0.334-0.981-0.814c-0.103-0.543,0.254-1.066,0.797-1.168
			c13.087-2.478,22.569-13.96,22.547-27.301c-0.025-15.279-12.466-27.694-27.74-27.694c-0.018,0-0.031,0-0.048,0
			c-0.552,0-0.999-0.447-1-0.999c-0.001-0.568,0.5-0.992,1.048-1.001c16.377,0,29.713,13.309,29.74,29.691
			c0.023,14.303-10.144,26.613-24.176,29.269C1111.423,408.631,1111.36,408.636,1111.299,408.636z"/>
		<path style="fill:#363E44;" d="M1069.012,408.707c-0.472,0-0.891-0.334-0.981-0.814c-0.103-0.543,0.254-1.066,0.796-1.169
			c13.087-2.478,22.569-13.96,22.548-27.301c-0.025-15.28-12.465-27.694-27.739-27.694c-0.018,0-0.029,0.004-0.049,0
			c-0.552,0-0.999-0.447-1-0.999c-0.001-0.569,0.494-0.996,1.049-1.001c16.377,0,29.712,13.308,29.739,29.691
			c0.022,14.303-10.145,26.612-24.175,29.269C1069.136,408.701,1069.073,408.707,1069.012,408.707z"/>
		<path style="fill:#363E44;" d="M1026.725,408.776c-0.472,0-0.891-0.334-0.981-0.814c-0.103-0.543,0.254-1.066,0.797-1.168
			c13.086-2.478,22.568-13.959,22.546-27.301c-0.012-7.409-2.908-14.371-8.156-19.602c-5.237-5.22-12.189-8.092-19.582-8.092
			c-0.017,0-0.026,0.001-0.049,0c-0.552,0-0.999-0.447-1-0.999c0-0.569,0.489-0.999,1.049-1.001c7.926,0,15.379,3.08,20.993,8.676
			c5.627,5.608,8.732,13.071,8.745,21.015c0.023,14.303-10.143,26.613-24.175,29.269
			C1026.849,408.771,1026.786,408.776,1026.725,408.776z"/>
		<path style="fill:#363E44;" d="M984.438,408.847c-0.471,0-0.891-0.334-0.981-0.814c-0.103-0.543,0.254-1.066,0.796-1.168
			c13.087-2.479,22.569-13.96,22.547-27.301c-0.013-7.409-2.909-14.371-8.157-19.602c-5.237-5.22-12.19-8.092-19.581-8.092
			c-0.016,0-0.023-0.003-0.049,0c-0.552,0-0.999-0.447-1-0.999c-0.001-0.569,0.483-1.002,1.049-1.001
			c7.926,0,15.378,3.08,20.993,8.676c5.626,5.608,8.732,13.071,8.745,21.015c0.023,14.303-10.143,26.612-24.174,29.269
			C984.562,408.841,984.499,408.847,984.438,408.847z"/>
		<path style="fill:#363E44;" d="M942.15,408.917c-0.472,0-0.891-0.334-0.982-0.814c-0.102-0.542,0.254-1.066,0.797-1.168
			c13.086-2.478,22.568-13.96,22.546-27.301c-0.013-7.409-2.909-14.371-8.157-19.602c-5.237-5.22-12.19-8.092-19.581-8.092
			c-0.017,0-0.037,0.002-0.049,0c-0.552,0-0.999-0.447-1-0.999c-0.001-0.569,0.477-1.005,1.049-1.001
			c7.926,0,15.378,3.08,20.993,8.676c5.626,5.608,8.731,13.071,8.745,21.015c0.023,14.303-10.143,26.613-24.175,29.269
			C942.274,408.911,942.212,408.917,942.15,408.917z"/>
		<path style="fill:#363E44;" d="M899.863,408.987c-0.471,0-0.891-0.334-0.982-0.814c-0.102-0.543,0.254-1.066,0.796-1.169
			c13.087-2.478,22.569-13.96,22.547-27.301c-0.013-7.409-2.909-14.371-8.157-19.602c-5.237-5.22-12.189-8.092-19.581-8.092
			c-0.017,0-0.034-0.002-0.049,0c-0.552,0-0.999-0.447-1-0.999c-0.001-0.568,0.472-0.992,1.049-1.001
			c7.926,0,15.378,3.08,20.993,8.676c5.626,5.608,8.731,13.071,8.745,21.015c0.023,14.303-10.143,26.612-24.174,29.269
			C899.987,408.981,899.925,408.987,899.863,408.987z"/>
		<path style="fill:#363E44;" d="M857.576,409.057c-0.472,0-0.891-0.334-0.981-0.814c-0.103-0.543,0.254-1.066,0.797-1.169
			c13.086-2.478,22.568-13.96,22.546-27.301c-0.013-7.409-2.909-14.371-8.157-19.602c-5.237-5.22-12.189-8.092-19.581-8.092
			c-0.017,0-0.031,0.003-0.049,0c-0.552,0-0.999-0.447-1-0.999c-0.001-0.569,0.5-0.995,1.049-1.001
			c7.926,0,15.378,3.08,20.993,8.676c5.626,5.608,8.731,13.071,8.745,21.015c0.023,14.303-10.143,26.613-24.175,29.269
			C857.7,409.051,857.638,409.057,857.576,409.057z"/>
		<path style="fill:#363E44;" d="M815.289,409.127c-0.471,0-0.891-0.334-0.982-0.814c-0.103-0.542,0.254-1.066,0.796-1.168
			c13.087-2.479,22.569-13.96,22.547-27.301c-0.025-15.28-12.465-27.694-27.739-27.694c-0.017,0-0.027-0.001-0.049,0
			c-0.552,0-0.999-0.447-1-0.999c-0.001-0.569,0.495-0.998,1.049-1.001c16.377,0,29.712,13.308,29.739,29.691
			c0.023,14.303-10.143,26.612-24.174,29.269C815.413,409.122,815.351,409.127,815.289,409.127z"/>
		<g>
			
				<rect x="1115.314" y="516.86" transform="matrix(-1 -1.224647e-16 1.224647e-16 -1 2271.2705 1074.3635)" style="fill:#F2E6DC;" width="40.643" height="40.643"/>
			
				<rect x="1033.954" y="516.86" transform="matrix(-1 -1.224647e-16 1.224647e-16 -1 2108.551 1074.3635)" style="fill:#F2E6DC;" width="40.643" height="40.643"/>
			
				<rect x="952.595" y="516.86" transform="matrix(-1 -1.224647e-16 1.224647e-16 -1 1945.8322 1074.3635)" style="fill:#F2E6DC;" width="40.643" height="40.643"/>
			
				<rect x="871.235" y="516.86" transform="matrix(-1 -1.224647e-16 1.224647e-16 -1 1783.1129 1074.3635)" style="fill:#E6D0BE;" width="40.643" height="40.643"/>
			
				<rect x="1115.314" y="598.22" transform="matrix(-1 -1.224647e-16 1.224647e-16 -1 2271.2705 1237.0828)" style="fill:#D87355;" width="40.643" height="40.643"/>
			
				<rect x="1033.954" y="598.22" transform="matrix(-1 -1.224647e-16 1.224647e-16 -1 2108.551 1237.0828)" style="fill:#E6D0BE;" width="40.643" height="40.643"/>
			
				<rect x="952.595" y="598.22" transform="matrix(-1 -1.224647e-16 1.224647e-16 -1 1945.8322 1237.0828)" style="fill:#E6D0BE;" width="40.643" height="40.643"/>
			
				<rect x="871.235" y="598.22" transform="matrix(-1 -1.224647e-16 1.224647e-16 -1 1783.1129 1237.0828)" style="fill:#E6D0BE;" width="40.643" height="40.643"/>
			
				<rect x="1115.314" y="679.58" transform="matrix(-1 -1.224647e-16 1.224647e-16 -1 2271.2705 1399.8021)" style="fill:#D87355;" width="40.643" height="40.643"/>
			
				<rect x="1033.954" y="679.58" transform="matrix(-1 -1.224647e-16 1.224647e-16 -1 2108.551 1399.8021)" style="fill:#E6D0BE;" width="40.643" height="40.643"/>
			
				<rect x="952.595" y="679.58" transform="matrix(-1 -1.224647e-16 1.224647e-16 -1 1945.8322 1399.8021)" style="fill:#E6D0BE;" width="40.643" height="40.643"/>
			
				<rect x="871.235" y="679.58" transform="matrix(-1 -1.224647e-16 1.224647e-16 -1 1783.1129 1399.8021)" style="fill:#E6D0BE;" width="40.643" height="40.643"/>
			
				<rect x="1115.314" y="760.939" transform="matrix(-1 -1.224647e-16 1.224647e-16 -1 2271.2705 1562.521)" style="fill:#D87355;" width="40.643" height="40.643"/>
			
				<rect x="1033.954" y="760.939" transform="matrix(-1 -1.224647e-16 1.224647e-16 -1 2108.551 1562.521)" style="fill:#E6D0BE;" width="40.643" height="40.643"/>
			
				<rect x="952.595" y="760.939" transform="matrix(-1 -1.224647e-16 1.224647e-16 -1 1945.8322 1562.521)" style="fill:#E6D0BE;" width="40.643" height="40.643"/>
			
				<rect x="871.235" y="760.939" transform="matrix(-1 -1.224647e-16 1.224647e-16 -1 1783.1129 1562.521)" style="fill:#E6D0BE;" width="40.643" height="40.643"/>
			
				<rect x="792.049" y="515.339" transform="matrix(-1 -1.224647e-16 1.224647e-16 -1 1624.7413 1071.3201)" style="fill:#E6D0BE;" width="40.643" height="40.643"/>
			
				<rect x="792.049" y="596.698" transform="matrix(-1 -1.224647e-16 1.224647e-16 -1 1624.7413 1234.0393)" style="fill:#E6D0BE;" width="40.643" height="40.643"/>
			
				<rect x="792.049" y="678.058" transform="matrix(-1 -1.224647e-16 1.224647e-16 -1 1624.7413 1396.7585)" style="fill:#E6D0BE;" width="40.643" height="40.643"/>
			
				<rect x="792.049" y="759.417" transform="matrix(-1 -1.224647e-16 1.224647e-16 -1 1624.7413 1559.4775)" style="fill:#E2A18D;" width="40.643" height="40.643"/>
			
				<rect x="874.169" y="437.227" transform="matrix(-1 -1.224647e-16 1.224647e-16 -1 1951.8442 917.4048)" style="fill:#E6D0BE;" width="203.506" height="42.952"/>
		</g>
	</g>
	<g>
		<g>
			<path style="fill:#363E44;" d="M2131.104,1062.809h-898.859c-0.553,0-1-0.448-1-1V363.564c0-0.552,0.447-1,1-1h898.859
				c0.553,0,1,0.448,1,1v698.245C2132.104,1062.361,2131.656,1062.809,2131.104,1062.809z M1233.244,1060.809h896.859V364.564
				h-896.859V1060.809z"/>
			<g>
				<rect x="1264.374" y="420.965" style="fill:#FFFFFF;" width="898.09" height="610.105"/>
				<path style="fill:#D3BBA3;" d="M2162.465,1032.07h-898.859c-0.553,0-1-0.448-1-1V392.223c0-0.552,0.447-1,1-1h898.859
					c0.553,0,1,0.448,1,1v638.848C2163.465,1031.623,2163.018,1032.07,2162.465,1032.07z M1264.605,1030.07h896.859V393.223
					h-896.859V1030.07z"/>
				<rect x="1263.606" y="392.223" style="fill:#D3BBA3;" width="898.859" height="56.693"/>
				<g>
					<ellipse style="fill:#FFFFFF;" cx="1301.278" cy="420.965" rx="12.886" ry="12.895"/>
					<ellipse style="fill:#FFFFFF;" cx="1342.913" cy="420.965" rx="12.886" ry="12.895"/>
					<ellipse style="fill:#FFFFFF;" cx="1384.548" cy="420.965" rx="12.886" ry="12.895"/>
				</g>
				<g>
					<path style="fill:#D3BBA3;" d="M2121.243,907.639h-810.36c-0.553,0-1-0.448-1-1c0-0.552,0.447-1,1-1h810.36
						c0.553,0,1,0.448,1,1C2122.243,907.191,2121.796,907.639,2121.243,907.639z"/>
					<path style="fill:#D3BBA3;" d="M2121.243,821.25h-810.36c-0.553,0-1-0.448-1-1s0.447-1,1-1h810.36c0.553,0,1,0.448,1,1
						S2121.796,821.25,2121.243,821.25z"/>
					<path style="fill:#D3BBA3;" d="M2121.243,734.86h-810.36c-0.553,0-1-0.448-1-1c0-0.552,0.447-1,1-1h810.36c0.553,0,1,0.448,1,1
						C2122.243,734.413,2121.796,734.86,2121.243,734.86z"/>
					<path style="fill:#D3BBA3;" d="M2121.243,648.471h-810.36c-0.553,0-1-0.448-1-1s0.447-1,1-1h810.36c0.553,0,1,0.448,1,1
						S2121.796,648.471,2121.243,648.471z"/>
					<path style="fill:#D3BBA3;" d="M2121.243,562.081h-810.36c-0.553,0-1-0.448-1-1c0-0.552,0.447-1,1-1h810.36
						c0.553,0,1,0.448,1,1C2122.243,561.634,2121.796,562.081,2121.243,562.081z"/>
					<path style="fill:#D3BBA3;" d="M1986.183,994.029c-0.553,0-1-0.448-1-1V474.692c0-0.552,0.447-1,1-1s1,0.448,1,1v518.337
						C1987.183,993.581,1986.735,994.029,1986.183,994.029z"/>
					<path style="fill:#D3BBA3;" d="M1851.123,994.029c-0.553,0-1-0.448-1-1V474.692c0-0.552,0.447-1,1-1s1,0.448,1,1v518.337
						C1852.123,993.581,1851.676,994.029,1851.123,994.029z"/>
					<path style="fill:#D3BBA3;" d="M1716.063,994.029c-0.553,0-1-0.448-1-1V474.692c0-0.552,0.447-1,1-1s1,0.448,1,1v518.337
						C1717.063,993.581,1716.616,994.029,1716.063,994.029z"/>
					<path style="fill:#D3BBA3;" d="M1581.003,994.029c-0.553,0-1-0.448-1-1V474.692c0-0.552,0.447-1,1-1s1,0.448,1,1v518.337
						C1582.003,993.581,1581.556,994.029,1581.003,994.029z"/>
					<path style="fill:#D3BBA3;" d="M1445.943,994.029c-0.553,0-1-0.448-1-1V474.692c0-0.552,0.447-1,1-1s1,0.448,1,1v518.337
						C1446.943,993.581,1446.496,994.029,1445.943,994.029z"/>
				</g>
			</g>
		</g>
		<g>
			<g>
				<ellipse style="fill:#E0AA63;" cx="1745.114" cy="956.495" rx="93.843" ry="29.735"/>
				<rect x="1651.271" y="926.873" style="fill:#E0AA63;" width="187.686" height="30.636"/>
				<ellipse style="fill:#EFBC73;" cx="1745.114" cy="927.455" rx="93.843" ry="29.735"/>
				<path style="fill:#FFFFFF;" d="M1756.169,958.19c-53.183,0-94.843-13.5-94.843-30.734c0-17.234,41.66-30.735,94.843-30.735
					c53.184,0,94.844,13.5,94.844,30.735C1851.013,944.69,1809.353,958.19,1756.169,958.19z M1756.169,898.72
					c-24.967,0-48.426,3.076-66.055,8.662c-17.024,5.395-26.788,12.71-26.788,20.073c0,7.362,9.764,14.678,26.788,20.072
					c17.629,5.586,41.088,8.662,66.055,8.662s48.426-3.076,66.056-8.662c17.024-5.394,26.788-12.71,26.788-20.072
					c0-7.362-9.764-14.678-26.788-20.073C1804.595,901.796,1781.136,898.72,1756.169,898.72z"/>
			</g>
			<g>
				<ellipse style="fill:#E0AA63;" cx="1764.461" cy="908.095" rx="93.843" ry="29.735"/>
				<rect x="1670.618" y="878.473" style="fill:#E0AA63;" width="187.686" height="30.636"/>
				<ellipse style="fill:#EFBC73;" cx="1764.461" cy="879.055" rx="93.843" ry="29.735"/>
				<path style="fill:#FFFFFF;" d="M1775.517,909.789c-53.183,0-94.843-13.5-94.843-30.734c0-17.234,41.66-30.735,94.843-30.735
					s94.843,13.5,94.843,30.735C1870.359,896.289,1828.699,909.789,1775.517,909.789z M1775.517,850.32
					c-24.967,0-48.426,3.076-66.055,8.662c-17.024,5.395-26.788,12.711-26.788,20.073c0,7.362,9.764,14.678,26.788,20.072
					c17.629,5.586,41.088,8.662,66.055,8.662s48.426-3.076,66.055-8.662c17.024-5.395,26.788-12.711,26.788-20.072
					c0-7.362-9.764-14.678-26.788-20.073C1823.942,853.396,1800.483,850.32,1775.517,850.32z"/>
			</g>
			<g>
				<ellipse style="fill:#E0AA63;" cx="1745.114" cy="859.694" rx="93.843" ry="29.735"/>
				<rect x="1651.271" y="830.072" style="fill:#E0AA63;" width="187.686" height="30.636"/>
				<ellipse style="fill:#EFBC73;" cx="1745.114" cy="830.654" rx="93.843" ry="29.735"/>
				<path style="fill:#FFFFFF;" d="M1756.169,861.389c-53.183,0-94.843-13.501-94.843-30.735s41.66-30.735,94.843-30.735
					c53.184,0,94.844,13.501,94.844,30.735S1809.353,861.389,1756.169,861.389z M1756.169,801.919
					c-24.967,0-48.426,3.076-66.055,8.663c-17.024,5.394-26.788,12.711-26.788,20.072s9.764,14.678,26.788,20.072
					c17.629,5.586,41.088,8.663,66.055,8.663s48.426-3.076,66.056-8.663c17.024-5.394,26.788-12.711,26.788-20.072
					s-9.764-14.678-26.788-20.072C1804.595,804.996,1781.136,801.919,1756.169,801.919z"/>
			</g>
			<g>
				<ellipse style="fill:#E0AA63;" cx="1505.762" cy="956.495" rx="93.843" ry="29.735"/>
				<rect x="1411.919" y="926.873" style="fill:#E0AA63;" width="187.686" height="30.636"/>
				<ellipse style="fill:#EFBC73;" cx="1505.762" cy="927.455" rx="93.843" ry="29.735"/>
				<path style="fill:#FFFFFF;" d="M1516.817,958.19c-53.183,0-94.843-13.5-94.843-30.734c0-17.234,41.66-30.735,94.843-30.735
					c53.184,0,94.844,13.5,94.844,30.735C1611.661,944.69,1570.001,958.19,1516.817,958.19z M1516.817,898.72
					c-24.967,0-48.426,3.076-66.055,8.662c-17.024,5.395-26.788,12.71-26.788,20.073c0,7.362,9.764,14.678,26.788,20.072
					c17.629,5.586,41.088,8.662,66.055,8.662s48.426-3.076,66.056-8.662c17.024-5.394,26.788-12.71,26.788-20.072
					c0-7.362-9.764-14.678-26.788-20.073C1565.243,901.796,1541.784,898.72,1516.817,898.72z"/>
			</g>
			<g>
				<ellipse style="fill:#E0AA63;" cx="1525.109" cy="908.095" rx="93.843" ry="29.735"/>
				<rect x="1431.266" y="878.473" style="fill:#E0AA63;" width="187.686" height="30.636"/>
				<ellipse style="fill:#EFBC73;" cx="1525.109" cy="879.055" rx="93.843" ry="29.735"/>
				<path style="fill:#FFFFFF;" d="M1536.165,909.789c-53.183,0-94.843-13.5-94.843-30.734c0-17.234,41.66-30.735,94.843-30.735
					s94.843,13.5,94.843,30.735C1631.008,896.289,1589.348,909.789,1536.165,909.789z M1536.165,850.32
					c-24.967,0-48.426,3.076-66.055,8.662c-17.024,5.395-26.788,12.711-26.788,20.073c0,7.362,9.764,14.678,26.788,20.072
					c17.629,5.586,41.088,8.662,66.055,8.662s48.426-3.076,66.055-8.662c17.024-5.395,26.788-12.711,26.788-20.072
					c0-7.362-9.764-14.678-26.788-20.073C1584.591,853.396,1561.132,850.32,1536.165,850.32z"/>
			</g>
			<g>
				<ellipse style="fill:#E0AA63;" cx="1775.517" cy="816.651" rx="93.843" ry="29.735"/>
				<rect x="1681.674" y="787.029" style="fill:#E0AA63;" width="187.686" height="30.636"/>
				<ellipse style="fill:#EFBC73;" cx="1775.517" cy="787.611" rx="93.843" ry="29.735"/>
				<path style="fill:#FFFFFF;" d="M1786.572,818.346c-53.183,0-94.843-13.5-94.843-30.734c0-17.234,41.66-30.735,94.843-30.735
					s94.843,13.5,94.843,30.735C1881.415,804.846,1839.755,818.346,1786.572,818.346z M1786.572,758.877
					c-24.967,0-48.426,3.076-66.055,8.663c-17.024,5.394-26.788,12.71-26.788,20.072c0,7.362,9.764,14.678,26.788,20.072
					c17.629,5.586,41.088,8.662,66.055,8.662s48.426-3.076,66.055-8.662c17.024-5.394,26.788-12.711,26.788-20.072
					c0-7.362-9.764-14.678-26.788-20.072C1834.998,761.953,1811.539,758.877,1786.572,758.877z"/>
			</g>
			<g>
				<ellipse style="fill:#E0AA63;" cx="1997.063" cy="956.495" rx="93.843" ry="29.735"/>
				<rect x="1903.22" y="926.873" style="fill:#E0AA63;" width="187.686" height="30.636"/>
				<ellipse style="fill:#EFBC73;" cx="1997.063" cy="927.455" rx="93.843" ry="29.735"/>
				<path style="fill:#FFFFFF;" d="M2008.118,958.19c-53.183,0-94.843-13.5-94.843-30.734c0-17.234,41.66-30.735,94.843-30.735
					s94.843,13.5,94.843,30.735C2102.961,944.69,2061.301,958.19,2008.118,958.19z M2008.118,898.72
					c-24.967,0-48.426,3.076-66.055,8.662c-17.024,5.395-26.788,12.71-26.788,20.073c0,7.362,9.764,14.678,26.788,20.072
					c17.629,5.586,41.088,8.662,66.055,8.662s48.426-3.076,66.055-8.662c17.024-5.394,26.788-12.71,26.788-20.072
					c0-7.362-9.764-14.678-26.788-20.073C2056.544,901.796,2033.085,898.72,2008.118,898.72z"/>
			</g>
			<g>
				<ellipse style="fill:#E0AA63;" cx="2003.813" cy="908.095" rx="93.843" ry="29.735"/>
				<rect x="1909.97" y="878.473" style="fill:#E0AA63;" width="187.686" height="30.636"/>
				<ellipse style="fill:#EFBC73;" cx="2003.813" cy="879.055" rx="93.843" ry="29.735"/>
				<path style="fill:#FFFFFF;" d="M2014.868,909.789c-53.183,0-94.843-13.5-94.843-30.734c0-17.234,41.66-30.735,94.843-30.735
					s94.843,13.5,94.843,30.735C2109.711,896.289,2068.051,909.789,2014.868,909.789z M2014.868,850.32
					c-24.967,0-48.426,3.076-66.055,8.662c-17.024,5.395-26.788,12.711-26.788,20.073c0,7.362,9.764,14.678,26.788,20.072
					c17.629,5.586,41.088,8.662,66.055,8.662s48.426-3.076,66.055-8.662c17.024-5.395,26.788-12.711,26.788-20.072
					c0-7.362-9.764-14.678-26.788-20.073C2063.294,853.396,2039.835,850.32,2014.868,850.32z"/>
			</g>
			<g>
				<ellipse style="fill:#E0AA63;" cx="2022.258" cy="859.694" rx="93.843" ry="29.735"/>
				<rect x="1928.415" y="830.072" style="fill:#E0AA63;" width="187.686" height="30.636"/>
				<ellipse style="fill:#EFBC73;" cx="2022.258" cy="830.654" rx="93.843" ry="29.735"/>
				<path style="fill:#FFFFFF;" d="M2033.313,861.389c-53.183,0-94.843-13.501-94.843-30.735s41.66-30.735,94.843-30.735
					s94.843,13.501,94.843,30.735S2086.496,861.389,2033.313,861.389z M2033.313,801.919c-24.967,0-48.426,3.076-66.055,8.663
					c-17.024,5.394-26.788,12.711-26.788,20.072s9.764,14.678,26.788,20.072c17.629,5.586,41.088,8.663,66.055,8.663
					s48.426-3.076,66.055-8.663c17.024-5.394,26.788-12.711,26.788-20.072s-9.764-14.678-26.788-20.072
					C2081.739,804.996,2058.28,801.919,2033.313,801.919z"/>
			</g>
			<g>
				<ellipse style="fill:#E0AA63;" cx="2002.271" cy="816.651" rx="93.843" ry="29.735"/>
				<rect x="1908.428" y="787.029" style="fill:#E0AA63;" width="187.686" height="30.636"/>
				<ellipse style="fill:#EFBC73;" cx="2002.271" cy="787.611" rx="93.843" ry="29.735"/>
				<path style="fill:#FFFFFF;" d="M2013.326,818.346c-53.183,0-94.843-13.5-94.843-30.734c0-17.234,41.66-30.735,94.843-30.735
					s94.843,13.5,94.843,30.735C2108.169,804.846,2066.509,818.346,2013.326,818.346z M2013.326,758.877
					c-24.967,0-48.426,3.076-66.055,8.663c-17.024,5.394-26.788,12.71-26.788,20.072c0,7.362,9.764,14.678,26.788,20.072
					c17.629,5.586,41.088,8.662,66.055,8.662s48.426-3.076,66.055-8.662c17.024-5.394,26.788-12.711,26.788-20.072
					c0-7.362-9.764-14.678-26.788-20.072C2061.752,761.953,2038.293,758.877,2013.326,758.877z"/>
			</g>
			<g>
				
					<ellipse transform="matrix(0.7107 -0.7035 0.7035 0.7107 -153.6621 1270.0282)" style="fill:#E0AA63;" cx="1467.398" cy="821.852" rx="29.725" ry="93.874"/>
				
					<rect x="1462.241" y="717.911" transform="matrix(0.7107 -0.7035 0.7035 0.7107 -143.6085 1274.3798)" style="fill:#E0AA63;" width="30.626" height="187.749"/>
				
					<ellipse transform="matrix(0.7107 -0.7035 0.7035 0.7107 -133.3206 1278.6199)" style="fill:#EFBC73;" cx="1488.016" cy="801.415" rx="29.725" ry="93.874"/>
				<path style="fill:#FFFFFF;" d="M1552.493,880.203c-6.554,0-15.187-2.712-25.39-8.073c-16.549-8.694-35.417-23.336-53.129-41.226
					c-37.428-37.808-57.161-76.924-44.926-89.053c5.976-5.92,18.563-4.299,35.44,4.568c16.55,8.694,35.418,23.335,53.129,41.226
					c37.428,37.808,57.161,76.924,44.926,89.053C1560.181,879.04,1556.781,880.203,1552.493,880.203z M1439.093,740.36
					c-3.736,0-6.67,0.962-8.636,2.911c-5.227,5.181-3.55,17.271,4.602,33.17c8.441,16.464,22.767,35.306,40.338,53.055
					c17.571,17.75,36.265,32.261,52.638,40.863c15.811,8.306,27.875,10.1,33.102,4.918c0,0,0,0,0,0
					c5.227-5.181,3.55-17.271-4.602-33.17c-8.441-16.464-22.767-35.306-40.338-53.055c-17.57-17.749-36.264-32.261-52.637-40.863
					C1453.696,743.007,1445.29,740.36,1439.093,740.36z"/>
			</g>
		</g>
	</g>
	<g>
		<g>
			<g>
				<path style="fill:#FFFFFF;" d="M1272.189,1799.061l-81.063,182.789l321.171,171.269
					C1512.297,2153.119,1543.705,1859.734,1272.189,1799.061z"/>
				<path style="fill:#ff6900;" d="M1237.145,1500.751l8.063,310.952c1.045-0.122,185.968,102.242,184.676,93.434
					c-0.855-5.821,10.643-259.318,18.538-430.572c1.076-23.338-2.083-46.01-8.774-67.24l-127.635,21.602L1237.145,1500.751z"/>
				<g>
					<polygon style="fill:#BC8271;" points="1329.586,1942.702 1448.724,2051.468 1540.524,1997.276 1442.558,1861.61 					"/>
					<path style="fill:#E6D0BE;" d="M1339.594,2161.544h462.341c0,0-105.453-148.561-289.638-217l-124.766,62.519
						C1387.531,2007.063,1355.892,2085.838,1339.594,2161.544z"/>
					<path style="fill:#363E44;" d="M1513.46,2029.263c-0.226,0-0.453-0.076-0.641-0.233c-0.424-0.354-0.479-0.985-0.125-1.409
						l47.645-56.96c0.353-0.422,0.982-0.481,1.408-0.125c0.424,0.354,0.479,0.985,0.125,1.409l-47.645,56.96
						C1514.03,2029.141,1513.746,2029.263,1513.46,2029.263z"/>
					<path style="fill:#363E44;" d="M1552.764,2047.251c-0.226,0-0.453-0.076-0.641-0.233c-0.424-0.354-0.479-0.985-0.125-1.409
						l47.644-56.96c0.353-0.423,0.982-0.481,1.408-0.125c0.424,0.354,0.479,0.985,0.125,1.409l-47.644,56.96
						C1553.334,2047.129,1553.05,2047.251,1552.764,2047.251z"/>
				</g>
				<path style="fill:#ff6900;" d="M945.9,1549.471l393.77,428.897l137.982-108.729l-219.357-357.594
					c0,0-71.237-103.3-166.195-55.33C997.142,1504.687,945.9,1549.471,945.9,1549.471z"/>
				<g>
					<defs>
						<rect id="SVGID_1_" x="447.146" y="1251.574" width="997.259" height="394.486"/>
					</defs>
					<clipPath id="SVGID_00000078038071660422765600000009302971371483223737_">
						<use xlink:href="#SVGID_1_"  style="overflow:visible;"/>
					</clipPath>
					<path style="clip-path:url(#SVGID_00000078038071660422765600000009302971371483223737_);fill:#ff6900;" d="M1288.86,1275.106
						c-277.709-47.69-547.991,44.457-812.704,241.489c0,0-18.655,124.051,127.252,158.155
						c145.908,34.104,632.595-218.034,632.595-218.034l1.142,44.035l202.503-93.426
						C1418.491,1340.192,1361.668,1287.609,1288.86,1275.106z"/>
				</g>
				<path style="fill:#363E44;" d="M1002.472,1567.583c-0.378,0-0.74-0.215-0.909-0.581c-0.231-0.501-0.013-1.096,0.489-1.327
					l285.673-131.854c0.503-0.234,1.096-0.012,1.327,0.489c0.231,0.501,0.013,1.095-0.489,1.327L1002.89,1567.49
					C1002.754,1567.553,1002.611,1567.583,1002.472,1567.583z"/>
				<path style="fill:#363E44;" d="M1426.675,1787.536c-0.337,0-0.665-0.17-0.854-0.478l-176.537-288.574
					c-0.289-0.471-0.141-1.087,0.331-1.375c0.47-0.289,1.085-0.14,1.375,0.331l176.538,288.574c0.288,0.471,0.14,1.087-0.332,1.375
					C1427.033,1787.488,1426.853,1787.536,1426.675,1787.536z"/>
			</g>
			<g>
				<g>
					<path style="fill:#363E44;" d="M838.51,742.994c0,0-35.488,5.062-61.378-19.821c-25.891-24.884-92.507-39.958-146.803,1.568
						c-108.011,82.608-103.479-62.085-199.318-11.043v35.677c10.281-3.82,26.544-3.672,46.768,17.534
						c29.87,31.321,48.909,26.178,54.259,23.716c1.003-0.519,1.553-0.845,1.553-0.845s-0.529,0.374-1.553,0.845
						c-7.151,3.698-37.635,17.307-61.171-5.572c-15.064-14.644-29.324-15-39.856-11.814v145.735c0,0,20.72,55.746,86.208,32.134
						c65.488-23.612,82.303-100.61,149.846-71.042c67.543,29.568,53.174,35.713,116.346,5.457
						C846.584,855.267,838.51,742.994,838.51,742.994z"/>
					<path style="fill:#363E44;" d="M537.284,959.174c-7.137,0-14.472-1.668-21.375-4.968c-12.194-5.83-21.269-15.907-24.895-27.647
						c-0.163-0.528,0.132-1.088,0.66-1.251c0.526-0.163,1.089,0.133,1.25,0.66c3.464,11.209,12.155,20.844,23.848,26.434
						c11.693,5.589,24.65,6.305,35.547,1.961c15.229-6.069,25.785-19.744,35.992-32.969c1.097-1.421,2.19-2.837,3.284-4.238
						c10.659-13.647,25.386-29.504,44.807-31.005c10.272-0.79,20.177,2.651,29.754,5.984c8.028,2.793,16.329,5.682,24.762,6.027
						c11.354,0.46,22.85-4.469,31.583-13.534s13.234-20.752,12.349-32.064c-0.043-0.551,0.368-1.032,0.919-1.075
						c0.539-0.043,1.032,0.368,1.075,0.919c0.931,11.882-3.772,24.132-12.902,33.608c-9.13,9.477-21.213,14.646-33.105,14.144
						c-8.729-0.357-17.172-3.295-25.337-6.136c-9.384-3.265-19.092-6.637-28.942-5.879c-18.642,1.441-32.978,16.919-43.385,30.242
						c-1.092,1.398-2.183,2.811-3.277,4.229c-10.371,13.438-21.097,27.333-36.835,33.605
						C548.106,958.194,542.753,959.174,537.284,959.174z"/>
					<path style="fill:#363E44;" d="M574.033,740.148c-19.919,0-39.937-11.782-48.378-29.983c-0.232-0.501-0.015-1.096,0.486-1.328
						c0.505-0.231,1.097-0.014,1.328,0.486c9.907,21.364,36.401,33.532,59.063,27.122c8.834-2.498,16.896-7.426,24.694-12.191
						c3.596-2.198,7.313-4.47,11.08-6.491c37.953-20.363,88.309-16.259,122.46,9.98c0.438,0.336,0.521,0.964,0.184,1.402
						c-0.336,0.438-0.963,0.521-1.402,0.184c-33.548-25.776-83.014-29.808-120.296-9.803c-3.717,1.995-7.41,4.252-10.983,6.435
						c-7.913,4.836-16.096,9.837-25.192,12.409C582.818,739.574,578.428,740.148,574.033,740.148z"/>
				</g>
				<path style="fill:#E2A18D;" d="M844.462,935.164c-25.82,5.321-64.717-57.058-64.717-57.058l-2.549-80.501
					c14.93-33.95,54.554-49.368,88.504-34.438c33.95,14.93,49.368,54.554,34.438,88.504
					C900.137,851.67,870.761,929.744,844.462,935.164z"/>
				<polygon style="fill:#E2A18D;" points="709.158,952.321 781.924,1046.674 787.809,975.61 851.987,829.671 777.5,796.914 				"/>
				<path style="fill:#E2A18D;" d="M885.965,864.727c0,0,9.298,25.647,6.283,30.013c-3.598,5.211-24.332,0.238-24.332,0.238
					S886.405,864.972,885.965,864.727z"/>
				<g>
					<path style="fill:#FFFFFF;" d="M831.648,837.701c0,0,12.725-1.01,25.131,4.447c2.639,1.161-11.628,20.092-13.608,17.794
						C834.466,849.839,831.648,837.701,831.648,837.701z"/>
					<g>
						<defs>
							<path id="SVGID_00000055675562402179066260000008382147513184520367_" d="M831.648,837.701c0,0,18.716-1.485,32.879,8.879
								c14.164,10.364,18.411,28.652,18.411,28.652s-18.716,1.485-32.88-8.879C835.895,855.989,831.648,837.701,831.648,837.701z"/>
						</defs>
						<clipPath id="SVGID_00000183242954566299523560000001742676177878068097_">
							<use xlink:href="#SVGID_00000055675562402179066260000008382147513184520367_"  style="overflow:visible;"/>
						</clipPath>
						
							<ellipse transform="matrix(0.8907 -0.4547 0.4547 0.8907 -297.8126 488.0796)" style="clip-path:url(#SVGID_00000183242954566299523560000001742676177878068097_);fill:#363E44;" cx="865.865" cy="863.225" rx="22.952" ry="22.952"/>
					</g>
				</g>
				<path style="fill:#363E44;" d="M851.84,900.73c-3.482,0-6.788-1.738-8.725-4.69c-2.159-3.288-2.257-7.615-0.248-11.024
					c0.28-0.476,0.893-0.634,1.369-0.354c0.476,0.281,0.634,0.894,0.353,1.37c-1.624,2.757-1.547,6.255,0.197,8.911
					c1.81,2.758,5.104,4.201,8.381,3.683c0.544-0.086,1.059,0.286,1.143,0.831c0.087,0.545-0.285,1.058-0.831,1.144
					C852.933,900.688,852.384,900.73,851.84,900.73z"/>
				<path style="fill:#363E44;" d="M824.076,931.298c-0.191,0-0.385-0.055-0.556-0.169c-22.11-14.818-44.863-51.068-45.091-51.433
					c-0.292-0.469-0.149-1.085,0.319-1.378c0.47-0.291,1.086-0.148,1.378,0.319c0.225,0.361,22.755,36.251,44.507,50.83
					c0.459,0.307,0.581,0.929,0.274,1.387C824.715,931.143,824.398,931.298,824.076,931.298z"/>
				<g>
					<path style="fill:#363E44;" d="M748.24,826.517c-8.668-19.416,16.102-57.688,43.826-72.133
						c35.742-18.624,63.07-23.393,94.004-5.535c46.708,26.966,37.078,91.816,37.078,91.816s-48.364-20.281-64.842-26.664
						c-23.168-8.976-35.57,66.922-62.175,23.626c-2.928-4.765-39.665,88.393-79.892,63.8
						C661.146,867.746,757.439,847.124,748.24,826.517z"/>
				</g>
				
					<ellipse transform="matrix(0.2898 -0.9571 0.9571 0.2898 -232.3217 1362.176)" style="fill:#E2A18D;" cx="801.678" cy="837.627" rx="22.975" ry="22.975"/>
			</g>
			<g>
				<g>
					<path style="fill:#363E44;" d="M1345.32,1268.285h-235.978c-16.009,0-28.987-12.978-28.987-28.987h264.965V1268.285z"/>
					<path style="fill:#363E44;" d="M1347.075,1267.464l71.473-224.894c4.849-15.257-3.589-31.556-18.846-36.405l-80.252,252.519
						L1347.075,1267.464z"/>
					<path style="fill:#D3BBA3;" d="M1320.268,1228.186c-0.1,0-0.202-0.016-0.303-0.047c-0.526-0.167-0.817-0.729-0.65-1.256
						l70.241-221.02c0.168-0.527,0.731-0.817,1.256-0.65c0.526,0.167,0.817,0.729,0.65,1.256l-70.241,221.019
						C1321.085,1227.914,1320.691,1228.186,1320.268,1228.186z"/>
				</g>
				<g>
					<path style="fill:#EFBC73;" d="M442.411,1536.828l432.722-192.577l-65.305-290.761l13.899-64.335L653.113,924.92
						l-28.498,60.354C624.615,985.274,483.508,1116.219,442.411,1536.828z"/>
					<g>
						<path style="fill:#E2A18D;" d="M1206.966,1181.745c-15.619-5.901-76.607-40.801-104.069-22.991
							c-27.659,17.938-38.518,52.6-37.765,85.444c0.094,0.095,0.199,0.201,0.291,0.295c4.024,8.166,11.302,19.768,24.273,27.51
							c14.788,8.824,22.812,4.179,39.875,11.073c28.799,11.638,34.027,37.123,43.985,32.445c6.835-3.21,4.434-18.191-1.328-31.289
							c-5.916-13.447-15.43-19.666-13.958-21.573c1.616-2.092,10.459,5.469,22.324,13.867c5.512,3.902,14.018,23.89,24.005,20.874
							c7.963-2.405,4.347-25.387-8.946-40.777c-9.404-10.887-23.245-13.01-22.335-15.47c0.683-1.846,8.9-0.378,15.602,2.986
							c11.061,5.549,19.982,25.906,29.121,22.952c8.953-2.895,5.44-22.912-5.885-37.836c-9.548-12.584-25.097-14.218-23.983-17.281
							c0.783-2.155,7.897-2.863,22.568,0.123c12.245,2.493,34.441,15.196,38.976,2.836
							C1253.533,1204.538,1230.54,1190.65,1206.966,1181.745z"/>
						<path style="fill:#E2A18D;" d="M805.081,1202.346c-34.64,12.588-57.68,46.24-55.311,82.857
							c1.553,24.007,14.072,48.454,52.085,62.292c92.554,33.692,293.25-103.1,293.25-103.1l23.346-90.481
							C1012.896,1151.782,900.428,1167.698,805.081,1202.346z"/>
					</g>
					<g>
						<path style="fill:#EFBC73;" d="M650.526,1039.681l93.928,43.157l-42.35,144.687c0,0,143.28-51.157,253.019-73.785
							l15.984,199.093L594.8,1439.015c-78.048,20.381-151.629-45.665-138.933-124.953c12.034-75.154,46.61-185.063,130.954-264.076
							C603.949,1033.941,629.168,1029.868,650.526,1039.681z"/>
						<g>
							<path style="fill:#363E44;" d="M565.904,1443.757c-33.023,0-64.559-14.463-86.581-40.828
								c-0.354-0.424-0.298-1.055,0.127-1.409c0.424-0.354,1.055-0.296,1.408,0.126c27.953,33.465,71.52,47.414,113.69,36.4
								l87.394-20.015c0.537-0.125,1.075,0.213,1.198,0.751c0.123,0.538-0.213,1.075-0.751,1.198l-87.365,20.008
								C585.325,1442.522,575.55,1443.757,565.904,1443.757z"/>
							<path style="fill:#363E44;" d="M702.104,1228.525c-0.251,0-0.497-0.095-0.687-0.272c-0.273-0.258-0.379-0.647-0.273-1.008
								l19.959-68.187c0.155-0.53,0.708-0.835,1.241-0.679c0.529,0.155,0.834,0.711,0.679,1.241l-19.41,66.311
								c10.635-3.75,65.783-23.009,129.943-41.935c0.537-0.156,1.087,0.147,1.242,0.676c0.156,0.529-0.146,1.085-0.676,1.242
								c-71.08,20.967-131.085,42.341-131.683,42.554C702.33,1228.506,702.217,1228.525,702.104,1228.525z"/>
							<path style="fill:#363E44;" d="M728.935,1136.855c-0.104,0-0.209-0.017-0.313-0.051c-0.525-0.173-0.81-0.738-0.638-1.263
								c8.124-24.656,1.326-46.718-20.202-65.573c-16.163-14.156-35.016-21.079-35.204-21.147c-0.52-0.188-0.788-0.762-0.601-1.281
								c0.188-0.52,0.762-0.786,1.28-0.6c0.192,0.069,19.354,7.099,35.801,21.487c21.91,19.167,29.111,42.591,20.826,67.739
								C729.747,1136.588,729.356,1136.855,728.935,1136.855z"/>
						</g>
					</g>
				</g>
			</g>
		</g>
		<g>
			<path style="fill:#84524D;" d="M348.858,1644.853c-0.552,0-1.005-0.448-1.005-1s0.443-1,0.995-1h0.01c0.553,0,1,0.448,1,1
				S349.411,1644.853,348.858,1644.853z"/>
			<path style="fill:#84524D;" d="M1116.474,2160.337H336.858c-0.553,0-1-0.448-1-1v-515.484c0-0.552,0.447-1,1-1h779.615
				c0.553,0,1,0.448,1,1v515.484C1117.474,2159.89,1117.026,2160.337,1116.474,2160.337z M337.858,2158.337h777.615v-513.484
				H337.858V2158.337z"/>
			<path style="fill:#FFFFFF;" d="M833.419,1636.291c-0.553,0-1-0.448-1-1v-78.601H620.913v78.601c0,0.552-0.447,1-1,1
				c-0.553,0-1-0.448-1-1v-79.601c0-0.552,0.447-1,1-1h213.506c0.553,0,1,0.448,1,1v79.601
				C834.419,1635.843,833.972,1636.291,833.419,1636.291z"/>
			<g>
				<path style="fill:#84524D;" d="M470.092,1738.517c-19.918,0-36.122-16.204-36.122-36.122v-58.542c0-0.552,0.447-1,1-1h70.244
					c0.553,0,1,0.448,1,1v58.542C506.214,1722.313,490.01,1738.517,470.092,1738.517z M435.97,1644.853v57.542
					c0,18.815,15.307,34.122,34.122,34.122s34.122-15.307,34.122-34.122v-57.542H435.97z"/>
				<path style="fill:#84524D;" d="M983.24,1738.517c-19.918,0-36.122-16.204-36.122-36.122v-58.542c0-0.552,0.447-1,1-1h70.243
					c0.553,0,1,0.448,1,1v58.542C1019.361,1722.313,1003.157,1738.517,983.24,1738.517z M949.118,1644.853v57.542
					c0,18.815,15.307,34.122,34.122,34.122c18.815,0,34.121-15.307,34.121-34.122v-57.542H949.118z"/>
			</g>
			<path style="fill:#84524D;" d="M336.858,1701.912c-0.553,0-1-0.448-1-1s0.447-1,1-1c29.627,0,53.73-24.103,53.73-53.73
				c0-0.552,0.447-1,1-1c0.553,0,1,0.448,1,1C392.589,1676.911,367.588,1701.912,336.858,1701.912z"/>
			<path style="fill:#84524D;" d="M1116.474,1701.912c-30.729,0-55.73-25-55.73-55.73c0-0.552,0.447-1,1-1s1,0.448,1,1
				c0,29.627,24.104,53.73,53.73,53.73c0.553,0,1,0.448,1,1S1117.026,1701.912,1116.474,1701.912z"/>
			<path style="fill:#84524D;" d="M391.589,2160.337c-0.553,0-1-0.448-1-1c0-29.627-24.103-53.73-53.73-53.73c-0.553,0-1-0.448-1-1
				s0.447-1,1-1c30.729,0,55.73,25,55.73,55.73C392.589,2159.89,392.142,2160.337,391.589,2160.337z"/>
			<path style="fill:#84524D;" d="M1061.743,2160.337c-0.553,0-1-0.448-1-1c0-30.729,25.001-55.73,55.73-55.73c0.553,0,1,0.448,1,1
				s-0.447,1-1,1c-29.627,0-53.73,24.103-53.73,53.73C1062.743,2159.89,1062.296,2160.337,1061.743,2160.337z"/>
		</g>
		<g>
			<g>
				<g>
					<path style="fill:#FFFFFF;" d="M858.662,1869.732h9.014c0.807,4.394,1.958,8.667,3.421,12.792l-7.801,4.504l15.253,26.419
						l7.819-4.514c2.869,3.359,5.998,6.488,9.357,9.357l-4.514,7.818l26.418,15.253l4.504-7.801
						c4.126,1.463,8.399,2.614,12.792,3.422v9.014h30.505v-9.014c4.394-0.807,8.667-1.958,12.792-3.422l4.504,7.801l26.419-15.253
						l-4.514-7.818c3.359-2.869,6.488-5.998,9.357-9.357l7.819,4.514l15.253-26.419l-7.801-4.504
						c1.463-4.126,2.614-8.399,3.421-12.792h9.014v-30.506h-9.014c-0.807-4.394-1.958-8.667-3.421-12.792l7.801-4.504
						l-15.253-26.419l-7.819,4.514c-2.869-3.359-5.998-6.488-9.357-9.357l4.514-7.818l-26.419-15.253l-4.504,7.801
						c-4.126-1.463-8.399-2.615-12.792-3.422v-9.014h-30.505v9.014c-4.394,0.807-8.667,1.958-12.792,3.422l-4.504-7.801
						l-26.419,15.253l4.514,7.818c-3.359,2.869-6.488,5.998-9.357,9.357l-7.819-4.514l-15.253,26.419l7.801,4.504
						c-1.463,4.126-2.614,8.398-3.421,12.792h-9.014V1869.732z M951.833,1803.954c26.468,0.845,48.026,22.403,48.871,48.871
						c0.933,29.227-22.953,53.113-52.181,52.18c-26.468-0.845-48.026-22.403-48.871-48.872
						C898.72,1826.906,922.606,1803.02,951.833,1803.954z"/>
				</g>
				<path style="fill:#F2E6DC;" d="M950.179,1922.21c-30.858,0-57.818-20.834-65.563-50.664c-0.139-0.535,0.182-1.081,0.717-1.219
					c0.533-0.14,1.08,0.182,1.219,0.716c7.515,28.949,33.68,49.167,63.627,49.167c36.244,0,65.73-29.487,65.73-65.73
					c0-32.271-24.025-60.214-55.886-64.999c-0.546-0.082-0.923-0.591-0.841-1.137c0.083-0.546,0.594-0.926,1.138-0.84
					c15.872,2.383,30.438,10.406,41.019,22.589c10.685,12.306,16.57,28.07,16.57,44.388
					C1017.909,1891.826,987.525,1922.21,950.179,1922.21z"/>
			</g>
			<g>
				<g>
					<path style="fill:#E6D0BE;" d="M447.146,1962.263h19.558c1.752,9.534,4.25,18.806,7.424,27.757l-16.926,9.772l33.096,57.324
						l16.965-9.795c6.226,7.288,13.015,14.078,20.304,20.304l-9.795,16.965l57.324,33.096l9.773-16.926
						c8.952,3.175,18.223,5.672,27.758,7.424v19.558h66.192v-19.558c9.534-1.751,18.805-4.249,27.757-7.424l9.772,16.926
						l57.324-33.096l-9.795-16.965c7.288-6.226,14.078-13.015,20.304-20.304l16.965,9.795l33.096-57.324l-16.926-9.772
						c3.174-8.952,5.672-18.223,7.424-27.757h19.559v-66.192l-19.559,0c-1.751-9.534-4.249-18.805-7.424-27.757l16.926-9.772
						l-33.096-57.324l-16.965,9.795c-6.226-7.288-13.015-14.078-20.304-20.304l9.795-16.965l-57.324-33.096l-9.772,16.927
						c-8.952-3.175-18.223-5.673-27.757-7.424v-19.558h-66.192v19.558c-9.534,1.751-18.805,4.249-27.758,7.424l-9.772-16.927
						l-57.324,33.096l9.795,16.965c-7.288,6.226-14.078,13.015-20.304,20.304l-16.965-9.795l-33.096,57.324l16.926,9.773
						c-3.174,8.952-5.672,18.223-7.424,27.757h-19.558V1962.263z M649.312,1819.535c57.432,1.834,104.209,48.61,106.042,106.043
						c2.024,63.419-49.804,115.247-113.223,113.222c-57.432-1.834-104.208-48.61-106.041-106.043
						C534.065,1869.338,585.893,1817.51,649.312,1819.535z"/>
				</g>
				<path style="fill:#F2E6DC;" d="M645.722,2074.962c-66.425,0-124.458-44.846-141.127-109.057
					c-0.139-0.535,0.182-1.081,0.717-1.219c0.535-0.139,1.08,0.182,1.219,0.716c16.44,63.33,73.678,107.56,139.191,107.56
					c79.288,0,143.794-64.506,143.794-143.795c0-70.596-52.56-131.726-122.259-142.193c-0.546-0.082-0.923-0.591-0.841-1.137
					c0.083-0.545,0.594-0.923,1.138-0.84c34.163,5.13,65.519,22.398,88.292,48.624c23.002,26.489,35.67,60.421,35.67,95.546
					C791.516,2009.559,726.112,2074.962,645.722,2074.962z"/>
			</g>
		</g>
	</g>
	<g>
		
			<rect x="1641.917" y="1316.794" transform="matrix(0.9301 0.3673 -0.3673 0.9301 674.0569 -576.748)" style="fill:#D87355;" width="420.91" height="331.688"/>
		<polygon style="fill:#E2A18D;" points="2109.022,1406.013 1717.533,1251.411 1760.563,1099.026 2152.052,1253.628 		"/>
		<path style="fill:#363E44;" d="M1995.812,1718.592c-0.122,0-0.247-0.023-0.367-0.07l-391.489-154.602
			c-0.247-0.098-0.445-0.289-0.551-0.533c-0.105-0.243-0.109-0.519-0.012-0.766l122.036-308.422
			c0.203-0.513,0.784-0.764,1.297-0.562l391.489,154.602c0.247,0.098,0.445,0.289,0.551,0.533c0.105,0.243,0.109,0.519,0.012,0.766
			l-122.036,308.422C1996.586,1718.352,1996.21,1718.592,1995.812,1718.592z M1605.62,1562.427l389.629,153.867l121.301-306.563
			l-389.629-153.867L1605.62,1562.427z"/>
		<path style="fill:#363E44;" d="M2117.734,1410.454c-0.124,0-0.249-0.023-0.367-0.07l-391.489-154.602
			c-0.478-0.188-0.734-0.708-0.595-1.202l43.031-152.385c0.076-0.272,0.265-0.499,0.519-0.624c0.252-0.126,0.547-0.138,0.811-0.034
			l391.489,154.602c0.478,0.188,0.734,0.708,0.595,1.202l-43.031,152.385c-0.076,0.272-0.265,0.499-0.519,0.624
			C2118.039,1410.419,2117.887,1410.454,2117.734,1410.454z M1727.453,1254.253l389.619,153.864l42.485-150.45l-389.619-153.864
			L1727.453,1254.253z"/>
		<polygon style="fill:#F7F1EB;" points="2082.936,1365.018 1769.911,1241.402 1796.124,1146.902 2109.149,1270.518 		"/>
		
			<rect x="1702.767" y="1375.964" transform="matrix(0.9301 0.3673 -0.3673 0.9301 633.862 -539.2642)" style="fill:#F2E6DC;" width="62.049" height="39.621"/>
		
			<rect x="1792.356" y="1411.344" transform="matrix(0.9301 0.3673 -0.3673 0.9301 653.1208 -569.6985)" style="fill:#F2E6DC;" width="62.049" height="39.621"/>
		
			<rect x="1881.945" y="1446.723" transform="matrix(0.9301 0.3673 -0.3673 0.9301 672.3792 -600.1325)" style="fill:#F2E6DC;" width="62.049" height="39.621"/>
		
			<rect x="1676.207" y="1443.091" transform="matrix(0.9301 0.3673 -0.3673 0.9301 656.6599 -524.8158)" style="fill:#F2E6DC;" width="62.049" height="39.621"/>
		
			<rect x="1765.796" y="1478.47" transform="matrix(0.9301 0.3673 -0.3673 0.9301 675.92 -555.2507)" style="fill:#F2E6DC;" width="62.049" height="39.621"/>
		
			<rect x="1855.385" y="1513.849" transform="matrix(0.9301 0.3673 -0.3673 0.9301 695.1752 -585.683)" style="fill:#F2E6DC;" width="62.049" height="39.621"/>
		
			<rect x="1650.237" y="1508.725" transform="matrix(0.9301 0.3673 -0.3673 0.9301 678.9566 -510.6913)" style="fill:#F2E6DC;" width="62.049" height="39.621"/>
		
			<rect x="1739.826" y="1544.104" transform="matrix(0.9301 0.3673 -0.3673 0.9301 698.2125 -541.124)" style="fill:#F2E6DC;" width="62.049" height="39.621"/>
		
			<rect x="1829.414" y="1579.483" transform="matrix(0.9301 0.3673 -0.3673 0.9301 717.4696 -571.5574)" style="fill:#F2E6DC;" width="62.049" height="39.621"/>
		
			<rect x="1971.534" y="1482.102" transform="matrix(0.9301 0.3673 -0.3673 0.9301 691.6351 -630.5651)" style="fill:#FFFFFF;" width="62.049" height="39.621"/>
		
			<rect x="1729.328" y="1308.838" transform="matrix(0.9301 0.3673 -0.3673 0.9301 611.0657 -553.7136)" style="fill:#FFFFFF;" width="62.049" height="39.621"/>
		
			<rect x="1818.916" y="1344.218" transform="matrix(0.9301 0.3673 -0.3673 0.9301 630.3188 -584.1444)" style="fill:#FFFFFF;" width="62.049" height="39.621"/>
		
			<rect x="1908.505" y="1379.597" transform="matrix(0.9301 0.3673 -0.3673 0.9301 649.58 -614.5803)" style="fill:#FFFFFF;" width="62.049" height="39.621"/>
		
			<rect x="1998.094" y="1414.976" transform="matrix(0.9301 0.3673 -0.3673 0.9301 668.834 -645.0117)" style="fill:#FFFFFF;" width="62.049" height="39.621"/>
		
			<rect x="1944.973" y="1549.228" transform="matrix(0.9301 0.3673 -0.3673 0.9301 714.4342 -616.1174)" style="fill:#FFFFFF;" width="62.049" height="39.621"/>
		
			<rect x="1919.003" y="1614.863" transform="matrix(0.9301 0.3673 -0.3673 0.9301 736.728 -601.9914)" style="fill:#FFFFFF;" width="62.049" height="39.621"/>
	</g>
</g>
</svg>
