<?xml version="1.0" encoding="utf-8"?>
<!-- Generator: Adobe Illustrator 27.5.0, SVG Export Plug-In . SVG Version: 6.00 Build 0)  -->
<svg version="1.1" xmlns="http://www.w3.org/2000/svg" xmlns:xlink="http://www.w3.org/1999/xlink" x="0px" y="0px"
	 viewBox="0 0 2500 2500" style="enable-background:new 0 0 2500 2500;" xml:space="preserve">
-
<g id="Illustration">
	<g id="Peer-to-Peer_insurance_1_">
		<circle style="fill:transparent;" cx="1250" cy="1250" r="915"/>
		<g>
			<g>
				<path style="fill:#E6D0BE;" d="M2145.391,821.882c-6.254-27.155-33.592-43.928-61.062-37.464
					c-27.47,6.465-114.75,78.837-114.75,78.837s109.927,25.964,137.397,19.5C2134.446,876.291,2151.645,849.037,2145.391,821.882z"
					/>
				<path style="fill:#F7F1EB;" d="M1617.055,948.418c-0.999,0-1.906-0.685-2.145-1.699c-0.278-1.186,0.456-2.373,1.641-2.653
					l485.87-114.338c1.174-0.278,2.373,0.456,2.653,1.641c0.278,1.186-0.457,2.373-1.641,2.653l-485.87,114.338
					C1617.393,948.399,1617.223,948.418,1617.055,948.418z"/>
				<path style="fill:#E6D0BE;" d="M2056.792,983.26c8.308-21.578-2.546-45.572-24.244-53.591
					c-21.698-8.019-114.625,2.266-114.625,2.266s62.841,67.856,84.539,75.876C2024.159,1015.83,2048.483,1004.839,2056.792,983.26z"
					/>
				<path style="fill:#F7F1EB;" d="M2019.493,971.681c-0.254,0-0.512-0.043-0.764-0.136l-194.971-72.064
					c-1.141-0.422-1.727-1.69-1.303-2.831c0.42-1.139,1.694-1.72,2.831-1.305l194.971,72.064c1.141,0.422,1.727,1.69,1.303,2.831
					C2021.232,971.129,2020.388,971.681,2019.493,971.681z"/>
				<path style="fill:#E6D0BE;" d="M1887.342,801.648c-17.32,18.317-112.655,53.319-112.655,53.319s29.004-96.495,46.324-114.812
					c17.32-18.317,46.209-19.4,64.526-2.419C1903.854,754.717,1904.662,783.331,1887.342,801.648z"/>
				<path style="fill:#F7F1EB;" d="M1710.314,925.25c-0.545,0-1.089-0.2-1.516-0.603c-0.883-0.838-0.924-2.233-0.086-3.118
					l143.44-151.698c0.835-0.887,2.235-0.919,3.118-0.086c0.883,0.838,0.924,2.233,0.086,3.118l-143.44,151.698
					C1711.483,925.02,1710.898,925.25,1710.314,925.25z"/>
			</g>
			<g>
				<path style="fill:#E6D0BE;" d="M1645.749,437.611c-6.204,33.813,33.212,165.713,33.212,165.713s83.954-110.847,90.158-144.66
					c6.204-33.813-16.384-65.937-50.451-71.751C1684.599,381.1,1651.953,403.798,1645.749,437.611z"/>
				<path style="fill:#F7F1EB;" d="M1599.348,1039.453c-0.131,0-0.265-0.011-0.401-0.037c-1.197-0.22-1.99-1.369-1.77-2.567
					l109.731-598.064c0.217-1.197,1.354-1.99,2.566-1.77c1.197,0.22,1.99,1.369,1.77,2.566l-109.731,598.064
					C1601.32,1038.71,1600.392,1039.453,1599.348,1039.453z"/>
				<path style="fill:#E6D0BE;" d="M1785.846,564.156c-19.873,20.513-54.073,129.432-54.073,129.432s108.468-38.345,128.34-58.858
					c19.873-20.513,19.358-52.941-1.151-72.429C1838.454,542.813,1805.719,543.643,1785.846,564.156z"/>
				<path style="fill:#F7F1EB;" d="M1646.228,784.092c-0.553,0-1.107-0.207-1.535-0.622c-0.874-0.846-0.896-2.241-0.047-3.118
					l178.573-184.324c0.844-0.874,2.244-0.893,3.118-0.047c0.874,0.846,0.896,2.242,0.047,3.118l-178.573,184.324
					C1647.38,783.868,1646.803,784.092,1646.228,784.092z"/>
				<path style="fill:#E6D0BE;" d="M1568.034,666.339c12.333,28.041,5.139,151.323,5.139,151.323s-95.738-78.025-108.072-106.066
					c-12.334-28.041,0.71-60.904,29.135-73.401C1522.66,625.697,1555.701,638.298,1568.034,666.339z"/>
				<path style="fill:#F7F1EB;" d="M1619.014,924.085c-0.848,0-1.658-0.491-2.02-1.318l-102.143-232.229
					c-0.491-1.113,0.015-2.416,1.13-2.905c1.117-0.491,2.418,0.017,2.905,1.13l102.143,232.23c0.491,1.113-0.015,2.416-1.13,2.905
					C1619.611,924.025,1619.309,924.085,1619.014,924.085z"/>
			</g>
		</g>
		<g>
			<g>
				<path style="fill:#E6D0BE;" d="M2109.465,1412.7c2.525-21.565-13.142-41.036-34.993-43.489
					c-21.851-2.453-104.86,27.787-104.86,27.787s73.863,47.853,95.715,50.306C2087.179,1449.758,2106.94,1434.265,2109.465,1412.7z"
					/>
				<path style="fill:#F7F1EB;" d="M2075.688,1411.111c-0.082,0-0.164-0.004-0.248-0.013l-386.491-43.392
					c-1.21-0.136-2.082-1.227-1.946-2.437c0.136-1.208,1.227-2.063,2.437-1.947l386.491,43.392c1.21,0.135,2.082,1.227,1.946,2.437
					C2077.75,1410.278,2076.796,1411.111,2075.688,1411.111z"/>
				<path style="fill:#E6D0BE;" d="M2002.169,1507.909c11.75-13.658,10.071-34.108-3.75-45.678
					c-13.821-11.57-84.707-28.369-84.707-28.369s28.336,66.258,42.156,77.827C1969.69,1523.259,1990.419,1521.567,2002.169,1507.909
					z"/>
				<path style="fill:#F7F1EB;" d="M1978.409,1490.227c-0.497,0-1.001-0.168-1.412-0.515l-124.193-103.96
					c-0.935-0.781-1.057-2.172-0.276-3.105c0.777-0.932,2.172-1.061,3.105-0.276l124.193,103.96
					c0.934,0.782,1.057,2.173,0.276,3.105C1979.666,1489.957,1979.039,1490.227,1978.409,1490.227z"/>
				<path style="fill:#E6D0BE;" d="M1925.407,1330.245c-17.508,8.904-96.637,9.611-96.637,9.611s46.565-63.21,64.073-72.114
					c17.509-8.903,38.992-2.129,47.984,15.13C1949.819,1300.132,1942.915,1321.341,1925.407,1330.245z"/>
				<path style="fill:#F7F1EB;" d="M1763.699,1375.152c-0.803,0-1.578-0.439-1.968-1.206c-0.551-1.085-0.118-2.411,0.967-2.965
					l145.001-73.737c1.085-0.549,2.411-0.121,2.965,0.967c0.551,1.085,0.118,2.411-0.967,2.965l-145.001,73.737
					C1764.375,1375.074,1764.035,1375.152,1763.699,1375.152z"/>
			</g>
			<g>
				<path style="fill:#E6D0BE;" d="M1843.498,999.813c-13.411,23.187-19.045,130.303-19.045,130.303s90.648-59.345,104.059-82.532
					c13.411-23.187,5.253-52.678-18.224-65.87C1886.813,968.523,1856.91,976.626,1843.498,999.813z"/>
				<path style="fill:#F7F1EB;" d="M1652.343,1429.883c-0.375,0-0.754-0.095-1.102-0.297c-1.053-0.609-1.415-1.957-0.803-3.012
					l237.212-410.118c0.607-1.055,1.951-1.421,3.012-0.803c1.053,0.609,1.415,1.957,0.803,3.012l-237.212,410.118
					C1653.846,1429.489,1653.105,1429.883,1652.343,1429.883z"/>
				<path style="fill:#E6D0BE;" d="M1913.15,1129.378c-19.957,9.846-73.59,80.812-73.59,80.812s89.641,0.28,109.598-9.566
					c19.957-9.846,28.075-33.777,18.132-53.451C1957.346,1127.5,1933.107,1119.532,1913.15,1129.378z"/>
				<path style="fill:#F7F1EB;" d="M1753.653,1254.778c-0.814,0-1.595-0.45-1.979-1.229c-0.54-1.092-0.09-2.414,1.001-2.952
					l179.331-88.475c1.098-0.536,2.414-0.093,2.952,1.001c0.541,1.092,0.09,2.414-1.001,2.952l-179.331,88.475
					C1754.312,1254.705,1753.98,1254.778,1753.653,1254.778z"/>
				<path style="fill:#E6D0BE;" d="M1726.545,1147.296c1.704,23.808-35.875,112.389-35.875,112.389s-49.812-82.339-51.516-106.147
					c-1.704-23.808,16.478-44.506,40.61-46.229C1703.897,1105.585,1724.841,1123.488,1726.545,1147.296z"/>
				<path style="fill:#F7F1EB;" d="M1697.001,1350.376c-1.146,0-2.115-0.887-2.196-2.048l-14.112-197.174
					c-0.088-1.214,0.827-2.269,2.041-2.355c1.223-0.095,2.27,0.827,2.356,2.041l14.112,197.174c0.088,1.214-0.827,2.269-2.041,2.356
					C1697.107,1350.373,1697.053,1350.376,1697.001,1350.376z"/>
			</g>
		</g>
		<g>
			<path style="fill:#ff6900;" d="M1233.956,700.966c0,79.17-27.686,151.874-73.904,208.957
				c-60.923,75.245-145.144,59.505-249.502,59.505c-62.302,0-129.501,46.7-179.333,16.871
				c-96.963-58.041-161.876-164.107-161.876-285.333c0-183.529,148.779-332.308,332.308-332.308S1233.956,517.437,1233.956,700.966z
				"/>
			<g>
				<g>
					<path style="fill:#84524D;" d="M1129.039,600.45c0,0,204.151,37.824,235.641,208.969l-239.144,19.603L1129.039,600.45z"/>
					<g>
						<path style="fill:#84524D;" d="M772.329,851.691c-56.134,19.56-108.876,29.592-209.239,150.611
							c-63.073,76.054-120.532,94.013-146.353,64.286c-101.08-116.37,72.572-270.091,174.774-338.364
							C639.848,695.935,731.563,813.705,772.329,851.691z"/>
					</g>
					<path style="fill:#EFBC73;" d="M1080.723,780.929l91.565-5.908c-0.985-63.998-1.692-112.548-2.677-176.545
						c-101.005-19.456-196.481-9.666-296.167,4.359C777.2,616.378,656.061,677.223,559.905,735.5l90.001,193.751l60.06-43.689
						l21.259,100.721c49.833,29.829,108.12,46.991,170.422,46.991c104.358,0,197.463-48.12,258.386-123.365L1080.723,780.929z"/>
				</g>
				<g>
					<g>
						<path style="fill:#363E44;" d="M778.835,513.753c-2.704,17.8-19.326,30.038-37.126,27.334
							c-17.8-2.704-30.038-19.326-27.334-37.126c2.704-17.8,19.326-30.038,37.126-27.335
							C769.301,479.331,781.539,495.953,778.835,513.753z"/>
						
							<ellipse transform="matrix(0.4443 -0.8959 0.8959 0.4443 -1.7495 911.3068)" style="fill:#363E44;" cx="733.744" cy="457.064" rx="39.911" ry="39.911"/>
						
							<ellipse transform="matrix(0.2769 -0.9609 0.9609 0.2769 161.3454 1016.3577)" style="fill:#363E44;" cx="755.939" cy="400.981" rx="32.6" ry="32.6"/>
						
							<ellipse transform="matrix(0.9936 -0.1129 0.1129 0.9936 -38.4577 92.8794)" style="fill:#363E44;" cx="800.713" cy="385.945" rx="32.6" ry="32.6"/>
						
							<ellipse transform="matrix(0.6253 -0.7804 0.7804 0.6253 8.0415 809.2931)" style="fill:#363E44;" cx="846.76" cy="396.273" rx="32.6" ry="32.6"/>
						<path style="fill:#363E44;" d="M895.806,428.971c-1.523,10.025-10.884,16.917-20.908,15.394
							c-10.024-1.522-16.917-10.884-15.394-20.908c1.523-10.025,10.884-16.917,20.908-15.394
							C890.437,409.586,897.329,418.947,895.806,428.971z"/>
					</g>
					<path style="fill:#84524D;" d="M852.196,684.476L852.196,684.476c-22.366,3.647-43.453-11.527-47.1-33.893l-11.81-72.426
						c-3.647-22.366,11.527-43.453,33.893-47.1h0c22.366-3.647,43.453,11.527,47.1,33.893l11.81,72.426
						C889.736,659.741,874.562,680.829,852.196,684.476z"/>
					<path style="fill:#84524D;" d="M816.826,426.965c3.623-0.957,38.454-9.603,63.655,11.068
						c18.752,15.381,24.411,38.127,28.135,77.713c4.385,46.617,0.494,75.096-11.294,86.361
						c-18.625,17.799-86.708-4.114-116.902-40.517c-21.795-26.277-25.953-64.02-12.613-95.706
						C781.11,434.286,814.514,427.576,816.826,426.965z"/>
					<g>
						<path style="fill:#FFFFFF;" d="M910.459,474.906c0.01,0.312,0.241,0.529,0.251,0.841c0.001,0.013-0.004,0.024-0.004,0.037
							c1.489,4.117,3.07,8.457,5.285,12.232c0.981,1.671,2.331,2.494,3.435,3.965c0.809,1.079,1.579,2.114,2.42,3.144
							c8.546-11.731,10.337-25.341,10.337-25.341S921.503,470.077,910.459,474.906z"/>
						<g>
							<defs>
								<path id="SVGID_1_" d="M932.183,469.783c0,0-2.59,19.764-16.479,32.185c-13.89,12.421-33.82,12.795-33.82,12.795
									s2.59-19.764,16.48-32.185C912.253,470.157,932.183,469.783,932.183,469.783z"/>
							</defs>
							<clipPath id="SVGID_00000076600990661839902170000011961471241238850222_">
								<use xlink:href="#SVGID_1_"  style="overflow:visible;"/>
							</clipPath>
							<path style="clip-path:url(#SVGID_00000076600990661839902170000011961471241238850222_);fill:#363E44;" d="M921.491,491.583
								c2.166,13.283-6.846,25.807-20.129,27.973c-13.283,2.166-25.806-6.846-27.972-20.129
								c-2.166-13.283,6.846-25.806,20.129-27.972C906.802,469.289,919.326,478.301,921.491,491.583z"/>
						</g>
					</g>
					<g>
						<path style="fill:#FFFFFF;" d="M834.304,516.995c0.742,5.12,2.251,8.852,5.688,12.424c12.032-2.709,20.794-9.038,20.794-9.038
							s-11.46-11.452-27.093-14.991C832.933,509.125,833.777,513.361,834.304,516.995z"/>
						<g>
							<defs>
								<path id="SVGID_00000181782411987374045500000006557585558783603880_" d="M793.552,514.665c0,0,16.153-11.68,34.719-10.102
									c18.567,1.579,32.516,15.818,32.516,15.818s-16.153,11.68-34.72,10.102C807.501,528.904,793.552,514.665,793.552,514.665z"
									/>
							</defs>
							<clipPath id="SVGID_00000071544959597209518810000000453430375139741062_">
								<use xlink:href="#SVGID_00000181782411987374045500000006557585558783603880_"  style="overflow:visible;"/>
							</clipPath>
							<path style="clip-path:url(#SVGID_00000071544959597209518810000000453430375139741062_);fill:#363E44;" d="M797.033,507.751
								c8.175-10.691,23.469-12.731,34.159-4.556c10.691,8.175,12.731,23.469,4.556,34.159
								c-8.175,10.691-23.469,12.731-34.159,4.556C790.898,533.736,788.859,518.442,797.033,507.751z"/>
						</g>
					</g>
					<path style="fill:#363E44;" d="M744.422,414.873c-11.492,0.942-17.834,100.089-17.834,100.089s24.858,41.462,67.393,68.064
						c-1.194-15.177-13.744-57.384-8.299-68.751c6.776-14.148,7.237-27.033,1.086-40.47c14.658-27.779,99.298-30.203,100.467-31.939
						c3.453-5.128-40.367-43.762-62.272-61.655c-12.36-10.096,13.612,8.607-6.917,11.169
						C781.523,395.939,746.35,403.845,744.422,414.873z"/>
					<g>
						<path style="fill:#84524D;" d="M794.478,527.008c8.524,12.372,6.957,28.242-3.5,35.447
							c-10.457,7.205-25.844,3.016-34.368-9.356c-8.524-12.372-6.957-28.242,3.5-35.446
							C770.567,510.447,785.954,514.636,794.478,527.008z"/>
						<path style="fill:#363E44;" d="M767.698,551.047c-0.57,0-1.143-0.222-1.574-0.661c-0.73-0.743-1.408-1.568-2.018-2.45
							c-5.015-7.28-3.964-16.736,2.343-21.081c1.583-1.092,3.367-1.783,5.307-2.054c1.21-0.192,2.319,0.672,2.489,1.878
							s-0.672,2.319-1.878,2.489c-1.253,0.177-2.403,0.62-3.417,1.318c-4.304,2.967-4.849,9.672-1.214,14.947
							c0.467,0.674,0.984,1.303,1.535,1.867c0.853,0.87,0.84,2.265-0.03,3.118C768.813,550.838,768.256,551.047,767.698,551.047z"/>
					</g>
					<path style="fill:#363E44;" d="M888.989,540.755c-0.304,0-0.614-0.063-0.911-0.198c-1.109-0.504-1.598-1.811-1.094-2.92
						c0.848-1.869,1.048-3.456,0.594-4.72c-0.435-1.206-1.337-1.832-3.176-3.029c-1.387-0.902-3.111-2.024-4.851-3.813
						c-2.22-2.282-3.932-5.109-5.09-8.399c-0.405-1.15,0.2-2.407,1.348-2.812c1.152-0.411,2.407,0.198,2.812,1.348
						c0.943,2.685,2.321,4.967,4.091,6.789c1.397,1.436,2.769,2.328,4.095,3.191c1.951,1.27,3.966,2.582,4.92,5.234
						c0.857,2.379,0.614,5.086-0.73,8.038C890.63,540.275,889.829,540.755,888.989,540.755z"/>
					<path style="fill:#363E44;" d="M877.211,565.537c-0.84,0-1.716-0.065-2.627-0.211c-6.582-1.064-10.217-5.714-11.173-7.114
						c-0.689-1.005-0.431-2.377,0.575-3.064c1.008-0.687,2.379-0.429,3.064,0.575c0.706,1.034,3.389,4.468,8.236,5.249
						c4.345,0.7,7.674-1.15,8.903-1.983c1.008-0.678,2.379-0.415,3.062,0.594c0.68,1.008,0.416,2.379-0.594,3.062
						C885.251,563.595,881.81,565.537,877.211,565.537z"/>
					<path style="fill:#363E44;" d="M873.613,610.56c-0.08,0-0.164-0.004-0.245-0.013c-51.344-5.697-67.361-24.944-68.018-25.76
						c-0.762-0.95-0.611-2.336,0.336-3.101c0.947-0.762,2.332-0.611,3.094,0.33l0,0c0.153,0.185,15.791,18.678,65.074,24.148
						c1.21,0.136,2.082,1.225,1.949,2.435C875.678,609.726,874.722,610.56,873.613,610.56z"/>
				</g>
			</g>
		</g>
		<g>
			<g>
				<g>
					<path style="fill:#FFFFFF;" d="M1413.921,1911.279l-161.574,69.934l-115.125-50.409
						c-238.779-104.553-392.956-339.869-392.956-599.76l5.908-515.451l506.682-131.842l515.388,137.729l-5.908,554.399
						C1766.336,1608.35,1627.904,1818.661,1413.921,1911.279z"/>
					<path style="fill:#F2E6DC;" d="M1390.671,1836.767l-139.155,61.77l-99.151-44.524
						c-205.648-92.347-338.432-300.192-338.432-529.742l5.088-455.275l436.071-111.556l444.183,116.756l-5.088,489.676
						C1694.187,1569.203,1574.963,1754.961,1390.671,1836.767z"/>
					<path style="fill:#F7F1EB;" d="M1255.093,757.439l-6.389,1.634v1138.2l2.812,1.263l139.155-61.77
						c184.292-81.805,303.516-267.564,303.516-472.896l5.088-489.676L1255.093,757.439z"/>
					<path style="fill:#D3BBA3;" d="M1253.098,2009.718c-0.302,0-0.603-0.063-0.885-0.185l-119.435-52.296
						c-248.447-108.788-408.983-353.811-408.983-624.227l6.13-534.77c0.011-0.995,0.687-1.858,1.649-2.108l525.645-136.776
						c0.37-0.097,0.758-0.095,1.124,0.004l534.677,142.885c0.973,0.258,1.647,1.145,1.636,2.153l-6.13,575.148
						c0,242.142-144.03,460.958-366.932,557.438l-0.876-2.024l0.876,2.024l-167.62,72.552
						C1253.695,2009.657,1253.396,2009.718,1253.098,2009.718z M734.316,799.976l-6.111,533.06
						c0,268.637,159.498,512.076,406.343,620.161l118.554,51.91l166.739-72.171c221.289-95.778,364.276-313.007,364.276-553.414
						l6.113-573.46L1257.769,663.77L734.316,799.976z"/>
				</g>
			</g>
			<g>
				<g>
					<path style="fill:#FFFFFF;" d="M1473.989,1282.222c-95.658,0-173.481-77.823-173.481-173.481
						c0-95.66,77.823-173.483,173.481-173.483c95.66,0,173.483,77.823,173.483,173.483
						C1647.473,1204.399,1569.649,1282.222,1473.989,1282.222z M1473.989,939.668c-93.227,0-169.071,75.847-169.071,169.073
						s75.844,169.071,169.071,169.071s169.073-75.844,169.073-169.071S1567.216,939.668,1473.989,939.668z"/>
					<path style="fill:#FFFFFF;" d="M1473.99,1109.813c-54.475,0-89.836,20.855-89.836,54.286
						c16.989,32.271,50.833,54.286,89.836,54.286c39.003,0,72.847-22.016,89.837-54.286
						C1563.827,1132.425,1524.951,1109.813,1473.99,1109.813z"/>
					
						<ellipse transform="matrix(0.1602 -0.9871 0.9871 0.1602 213.8038 2326.248)" style="fill:#FFFFFF;" cx="1473.99" cy="1037.476" rx="46.33" ry="46.33"/>
				</g>
				<g>
					<path style="fill:#FFFFFF;" d="M1046.162,1614.179c-95.658,0-173.481-77.823-173.481-173.481s77.823-173.481,173.481-173.481
						s173.481,77.823,173.481,173.481S1141.82,1614.179,1046.162,1614.179z M1046.162,1271.626
						c-93.227,0-169.071,75.844-169.071,169.071s75.845,169.071,169.071,169.071s169.071-75.844,169.071-169.071
						S1139.389,1271.626,1046.162,1271.626z"/>
					<path style="fill:#FFFFFF;" d="M1046.161,1441.77c-54.475,0-89.836,20.855-89.836,54.286
						c16.989,32.271,50.833,54.286,89.836,54.286c39.003,0,72.847-22.016,89.837-54.286
						C1135.998,1464.383,1097.122,1441.77,1046.161,1441.77z"/>
					<circle style="fill:#FFFFFF;" cx="1046.161" cy="1369.433" r="46.33"/>
				</g>
				<path style="fill:#D87355;" d="M917.821,1048.283l48.519,170.68l149.541-95.501l-40.424-15.343
					c10.971-35.559,32.677-85.181,76.503-130.798c88.154-91.755,189.588-65.075,216.112-66.249
					c-33.891-21.483-143.795-85.167-274.774-5.686c-78.899,47.877-117.483,117.081-134.852,158.319L917.821,1048.283z"/>
				<path style="fill:#D87355;" d="M1609.578,1509.908l-48.519-170.68l-149.541,95.501l40.424,15.343
					c-10.971,35.559-32.676,85.181-76.503,130.798c-88.154,91.755-189.588,65.075-216.112,66.249
					c33.891,21.483,143.795,85.167,274.774,5.686c78.899-47.877,117.483-117.081,134.852-158.319L1609.578,1509.908z"/>
			</g>
		</g>
		<g>
			<path style="fill:#84524D;" d="M524.286,918.525c0,0,103.355,117.383,153.752,183.47
				c52.927,69.406,120.964,179.585,105.429,188.904c-8.849,5.308-21.235-7.8-52.011-45.036c-0.327,3.439-3.181,13.192-12.195,16.769
				c-13.341,5.294-21.29-3.893-22.326-4.434c-0.017,1.175-0.543,13.828-8.873,18.884c-9.383,5.695-18.741,3.939-25.757-1.06
				c-0.131,2.914-1.706,13.616-9.856,18.239c-8.383,4.755-20.586,3.635-26.565-4.451c-10.969-14.834-42.721-59.541-60.825-79.416
				c-23.669-25.983-95.683-88.509-152.075-148.12c-33.002-34.885-19.228-92.06,25.886-108.517
				C484.96,936.945,524.286,918.525,524.286,918.525z"/>
			<g>
				<path style="fill:#363E44;" d="M621.917,1269.872c-0.773,0-1.522-0.407-1.927-1.128c-0.594-1.062-0.215-2.405,0.848-3.001
					l13.608-7.616c1.062-0.592,2.407-0.213,3.002,0.848c0.594,1.064,0.215,2.405-0.848,3.001l-13.608,7.616
					C622.651,1269.781,622.281,1269.872,621.917,1269.872z"/>
				<path style="fill:#363E44;" d="M654.399,1250.898c-0.797,0-1.568-0.433-1.959-1.191c-0.56-1.081-0.14-2.411,0.943-2.971
					l15.649-8.12c1.074-0.56,2.411-0.14,2.971,0.943c0.56,1.081,0.138,2.412-0.943,2.971l-15.649,8.12
					C655.089,1250.818,654.742,1250.898,654.399,1250.898z"/>
				<path style="fill:#363E44;" d="M689.881,1233.311c-0.771,0-1.52-0.405-1.925-1.126c-0.596-1.062-0.218-2.405,0.844-3.001
					c2.543-1.425,4.847-2.696,7.151-3.966c2.295-1.264,4.59-2.528,7.123-3.949c1.055-0.594,2.405-0.222,3.002,0.844
					c0.596,1.062,0.217,2.405-0.844,3.001c-2.543,1.425-4.847,2.696-7.151,3.966c-2.295,1.264-4.591,2.528-7.123,3.949
					C690.617,1233.221,690.247,1233.311,689.881,1233.311z"/>
				<path style="fill:#363E44;" d="M717.648,1216.047c-0.715,0-1.417-0.347-1.841-0.988c-0.672-1.016-0.394-2.383,0.622-3.055
					l12.917-8.537c1.012-0.672,2.386-0.394,3.053,0.624c0.672,1.016,0.392,2.384-0.624,3.053l-12.912,8.537
					C718.488,1215.929,718.066,1216.047,717.648,1216.047z"/>
			</g>
		</g>
		<g>
			<g>
				<ellipse style="fill:#E0AA63;" cx="1309.355" cy="2117.963" rx="131.599" ry="41.67"/>
				<rect x="1177.756" y="2076.451" style="fill:#E0AA63;" width="263.198" height="42.933"/>
				<ellipse style="fill:#EFBC73;" cx="1309.355" cy="2077.266" rx="131.599" ry="41.67"/>
				<path style="fill:#FFFFFF;" d="M1324.858,2121.141c-75.031,0-133.803-19.273-133.803-43.875s58.772-43.875,133.803-43.875
					s133.803,19.273,133.803,43.875S1399.889,2121.141,1324.858,2121.141z M1324.858,2037.801
					c-70.139,0-129.393,18.074-129.393,39.465c0,21.392,59.255,39.465,129.393,39.465c70.139,0,129.393-18.073,129.393-39.465
					C1454.251,2055.875,1394.997,2037.801,1324.858,2037.801z"/>
			</g>
			<g>
				<ellipse style="fill:#E0AA63;" cx="1865.507" cy="2023.14" rx="131.599" ry="41.67"/>
				<rect x="1733.908" y="1981.627" style="fill:#E0AA63;" width="263.198" height="42.933"/>
				<ellipse style="fill:#EFBC73;" cx="1865.507" cy="1982.443" rx="131.599" ry="41.67"/>
				<path style="fill:#FFFFFF;" d="M1881.011,2026.318c-75.031,0-133.803-19.273-133.803-43.877
					c0-24.602,58.772-43.875,133.803-43.875s133.803,19.273,133.803,43.875C2014.814,2007.046,1956.042,2026.318,1881.011,2026.318z
					 M1881.011,1942.977c-70.139,0-129.393,18.073-129.393,39.465c0,21.394,59.255,39.467,129.393,39.467
					s129.393-18.073,129.393-39.467C2010.404,1961.05,1951.15,1942.977,1881.011,1942.977z"/>
			</g>
			<g>
				<ellipse style="fill:#E0AA63;" cx="1874.973" cy="1955.311" rx="131.599" ry="41.67"/>
				<rect x="1743.374" y="1913.799" style="fill:#E0AA63;" width="263.198" height="42.933"/>
				<ellipse style="fill:#EFBC73;" cx="1874.973" cy="1914.614" rx="131.599" ry="41.67"/>
				<path style="fill:#FFFFFF;" d="M1890.476,1958.49c-75.031,0-133.803-19.273-133.803-43.877
					c0-24.602,58.772-43.875,133.803-43.875s133.805,19.273,133.805,43.875C2024.281,1939.217,1965.507,1958.49,1890.476,1958.49z
					 M1890.476,1875.148c-70.139,0-129.393,18.073-129.393,39.465c0,21.394,59.255,39.467,129.393,39.467
					s129.395-18.073,129.395-39.467C2019.872,1893.222,1960.615,1875.148,1890.476,1875.148z"/>
			</g>
			<g>
				<ellipse style="fill:#E0AA63;" cx="1336.486" cy="2050.135" rx="131.599" ry="41.67"/>
				<rect x="1204.887" y="2008.622" style="fill:#E0AA63;" width="263.198" height="42.933"/>
				<ellipse style="fill:#EFBC73;" cx="1336.486" cy="2009.438" rx="131.599" ry="41.67"/>
				<path style="fill:#FFFFFF;" d="M1351.99,2053.313c-75.031,0-133.805-19.273-133.805-43.875
					c0-24.602,58.774-43.875,133.805-43.875s133.803,19.273,133.803,43.875C1485.793,2034.04,1427.021,2053.313,1351.99,2053.313z
					 M1351.99,1969.973c-70.139,0-129.395,18.073-129.395,39.465c0,21.392,59.257,39.465,129.395,39.465
					s129.393-18.073,129.393-39.465C1481.383,1988.046,1422.129,1969.973,1351.99,1969.973z"/>
			</g>
			<g>
				<ellipse style="fill:#E0AA63;" cx="1309.355" cy="1982.306" rx="131.599" ry="41.67"/>
				<rect x="1177.756" y="1940.794" style="fill:#E0AA63;" width="263.198" height="42.933"/>
				<ellipse style="fill:#EFBC73;" cx="1309.355" cy="1941.609" rx="131.599" ry="41.67"/>
				<path style="fill:#FFFFFF;" d="M1324.858,1985.484c-75.031,0-133.803-19.273-133.803-43.875s58.772-43.875,133.803-43.875
					s133.803,19.273,133.803,43.875S1399.889,1985.484,1324.858,1985.484z M1324.858,1902.145
					c-70.139,0-129.393,18.073-129.393,39.465s59.255,39.465,129.393,39.465c70.139,0,129.393-18.073,129.393-39.465
					S1394.997,1902.145,1324.858,1902.145z"/>
			</g>
			<g>
				<ellipse style="fill:#E0AA63;" cx="1634.005" cy="2094.526" rx="131.599" ry="41.67"/>
				<rect x="1502.406" y="2053.013" style="fill:#E0AA63;" width="263.198" height="42.933"/>
				<ellipse style="fill:#EFBC73;" cx="1634.005" cy="2053.829" rx="131.599" ry="41.67"/>
				<path style="fill:#FFFFFF;" d="M1649.509,2097.704c-75.031,0-133.805-19.273-133.805-43.875
					c0-24.602,58.774-43.875,133.805-43.875s133.803,19.273,133.803,43.875C1783.312,2078.431,1724.54,2097.704,1649.509,2097.704z
					 M1649.509,2014.364c-70.139,0-129.395,18.073-129.395,39.465c0,21.392,59.257,39.465,129.395,39.465
					c70.139,0,129.393-18.073,129.393-39.465C1778.903,2032.438,1719.648,2014.364,1649.509,2014.364z"/>
			</g>
			<g>
				<ellipse style="fill:#E0AA63;" cx="1661.136" cy="2026.471" rx="131.599" ry="41.556"/>
				<rect x="1529.537" y="1985.073" style="fill:#E0AA63;" width="263.198" height="42.815"/>
				<ellipse style="fill:#EFBC73;" cx="1661.136" cy="1985.886" rx="131.599" ry="41.556"/>
				<path style="fill:#FFFFFF;" d="M1676.639,2029.645c-75.031,0-133.803-19.221-133.803-43.758
					c0-24.539,58.772-43.76,133.803-43.76c75.031,0,133.805,19.221,133.805,43.76
					C1810.444,2010.424,1751.67,2029.645,1676.639,2029.645z M1676.639,1946.536c-70.139,0-129.393,18.02-129.393,39.351
					c0,21.329,59.254,39.349,129.393,39.349c70.139,0,129.395-18.02,129.395-39.349
					C1806.034,1964.556,1746.778,1946.536,1676.639,1946.536z"/>
			</g>
			<g>
				<ellipse style="fill:#E0AA63;" cx="1351.99" cy="1921.986" rx="131.599" ry="41.67"/>
				<rect x="1220.391" y="1880.473" style="fill:#E0AA63;" width="263.198" height="42.933"/>
				<ellipse style="fill:#EFBC73;" cx="1351.99" cy="1881.289" rx="131.599" ry="41.67"/>
				<path style="fill:#FFFFFF;" d="M1367.493,1925.164c-75.031,0-133.803-19.273-133.803-43.875s58.772-43.875,133.803-43.875
					s133.805,19.273,133.805,43.875S1442.523,1925.164,1367.493,1925.164z M1367.493,1841.824
					c-70.139,0-129.393,18.073-129.393,39.465s59.255,39.465,129.393,39.465c70.139,0,129.395-18.073,129.395-39.465
					S1437.631,1841.824,1367.493,1841.824z"/>
			</g>
			<g>
				<ellipse style="fill:#E0AA63;" cx="1900.839" cy="1887.483" rx="131.599" ry="41.67"/>
				<rect x="1769.24" y="1845.97" style="fill:#E0AA63;" width="263.198" height="42.933"/>
				<ellipse style="fill:#EFBC73;" cx="1900.839" cy="1846.786" rx="131.599" ry="41.67"/>
				<path style="fill:#FFFFFF;" d="M1916.342,1890.662c-75.031,0-133.803-19.273-133.803-43.877
					c0-24.602,58.772-43.875,133.803-43.875c75.031,0,133.805,19.273,133.805,43.875
					C2050.147,1871.389,1991.373,1890.662,1916.342,1890.662z M1916.342,1807.32c-70.139,0-129.393,18.073-129.393,39.465
					c0,21.394,59.255,39.467,129.393,39.467s129.395-18.073,129.395-39.467C2045.737,1825.394,1986.481,1807.32,1916.342,1807.32z"
					/>
			</g>
			<g>
				<ellipse style="fill:#E0AA63;" cx="1872.811" cy="1827.162" rx="131.599" ry="41.67"/>
				<rect x="1741.212" y="1785.65" style="fill:#E0AA63;" width="263.198" height="42.933"/>
				<ellipse style="fill:#EFBC73;" cx="1872.811" cy="1786.465" rx="131.599" ry="41.67"/>
				<path style="fill:#FFFFFF;" d="M1888.315,1830.342c-75.031,0-133.803-19.273-133.803-43.877
					c0-24.602,58.772-43.875,133.803-43.875c75.031,0,133.803,19.273,133.803,43.875
					C2022.117,1811.069,1963.345,1830.342,1888.315,1830.342z M1888.315,1747c-70.139,0-129.393,18.073-129.393,39.465
					c0,21.394,59.255,39.467,129.393,39.467s129.393-18.073,129.393-39.467C2017.708,1765.073,1958.453,1747,1888.315,1747z"/>
			</g>
			<g>
				
					<ellipse transform="matrix(0.7104 -0.7038 0.7038 0.7104 -883.6854 1663.9608)" style="fill:#E0AA63;" cx="1580.206" cy="1905.837" rx="41.67" ry="131.599"/>
				
					<rect x="1462.849" y="1870.263" transform="matrix(0.7038 0.7104 -0.7104 0.7038 1816.2786 -572.3514)" style="fill:#E0AA63;" width="263.198" height="42.933"/>
				
					<ellipse transform="matrix(0.7104 -0.7038 0.7038 0.7104 -855.1566 1676.0146)" style="fill:#EFBC73;" cx="1609.119" cy="1877.196" rx="41.67" ry="131.599"/>
				<path style="fill:#FFFFFF;" d="M1699.551,1988.395c-9.351,0-21.585-3.824-35.99-11.388
					c-23.28-12.221-49.809-32.792-74.701-57.92c-24.895-25.129-45.214-51.852-57.213-75.244
					c-12.376-24.124-14.43-42.126-5.783-50.694c8.649-8.565,26.628-6.341,50.635,6.261c23.28,12.221,49.809,32.792,74.701,57.92
					c52.804,53.305,80.474,108.624,62.997,125.937C1710.736,1986.696,1705.784,1988.395,1699.551,1988.395z M1540.528,1792.41
					c-5.019,0-8.942,1.281-11.56,3.874c-7.064,6.998-4.659,23.601,6.602,45.548c11.799,23.002,31.839,49.337,56.421,74.152
					c24.585,24.817,50.73,45.104,73.62,57.121c21.837,11.468,38.416,14.032,45.481,7.034l1.552,1.565l-1.552-1.565
					c15.199-15.057-13.664-69.874-63.025-119.702c-24.583-24.817-50.728-45.102-73.618-57.119
					C1560.705,1796.1,1549.044,1792.41,1540.528,1792.41z"/>
			</g>
			<g>
				<ellipse style="fill:#E0AA63;" cx="1901.144" cy="1757.816" rx="131.599" ry="41.67"/>
				<rect x="1769.545" y="1716.304" style="fill:#E0AA63;" width="263.198" height="42.933"/>
				<ellipse style="fill:#EFBC73;" cx="1901.144" cy="1717.119" rx="131.599" ry="41.67"/>
				<path style="fill:#FFFFFF;" d="M1916.648,1760.995c-75.031,0-133.803-19.273-133.803-43.877
					c0-24.602,58.772-43.875,133.803-43.875c75.031,0,133.803,19.273,133.803,43.875
					C2050.451,1741.722,1991.678,1760.995,1916.648,1760.995z M1916.648,1677.653c-70.139,0-129.393,18.073-129.393,39.465
					c0,21.394,59.255,39.467,129.393,39.467c70.139,0,129.393-18.073,129.393-39.467
					C2046.041,1695.727,1986.786,1677.653,1916.648,1677.653z"/>
			</g>
			<g>
				<ellipse style="fill:#E0AA63;" cx="1943.779" cy="1697.495" rx="131.599" ry="41.67"/>
				<rect x="1812.18" y="1655.983" style="fill:#E0AA63;" width="263.198" height="42.933"/>
				<ellipse style="fill:#EFBC73;" cx="1943.779" cy="1656.798" rx="131.599" ry="41.67"/>
				<path style="fill:#FFFFFF;" d="M1959.282,1700.673c-75.031,0-133.803-19.273-133.803-43.875s58.772-43.875,133.803-43.875
					c75.031,0,133.805,19.273,133.805,43.875S2034.313,1700.673,1959.282,1700.673z M1959.282,1617.333
					c-70.139,0-129.393,18.073-129.393,39.465s59.255,39.465,129.393,39.465c70.139,0,129.395-18.073,129.395-39.465
					S2029.421,1617.333,1959.282,1617.333z"/>
			</g>
		</g>
		<g>
			<g>
				<ellipse style="fill:#EFBC73;" cx="826.473" cy="1694.192" rx="35.912" ry="35.935"/>
				<path style="fill:#363E44;" d="M817.339,1732.333c-21.017,0-38.117-17.109-38.117-38.141c0-21.032,17.1-38.141,38.117-38.141
					c21.017,0,38.115,17.109,38.115,38.141C855.454,1715.224,838.356,1732.333,817.339,1732.333z M817.339,1660.461
					c-18.586,0-33.707,15.132-33.707,33.731c0,18.599,15.121,33.731,33.707,33.731c18.586,0,33.705-15.132,33.705-33.731
					C851.044,1675.593,835.925,1660.461,817.339,1660.461z"/>
			</g>
			<g>
				<path style="fill:#FFFFFF;" d="M468.15,1686.605l244.153,244.315c8.761,8.766,22.965,8.766,31.725,0l69.087-69.132l7.326-31.816
					l34.307-9.844l21.221-21.235c8.761-8.766,8.761-22.98,0-31.746l-244.153-244.315c-8.761-8.767-22.965-8.767-31.726,0
					l-21.221,21.235l-7.18,30.038l-34.452,11.622l-69.087,69.132C459.389,1663.625,459.389,1677.839,468.15,1686.605z"/>
				
					<rect x="666.544" y="1507.787" transform="matrix(0.7073 -0.7069 0.7069 0.7073 -1000.064 990.3549)" style="fill:#D3BBA3;" width="58.896" height="390.28"/>
			</g>
			<g>
				<g>
					<path style="fill:#ff6900;" d="M1058.069,2052.618c-112.79,112.865-397.466,101.859-499.257,0
						c-71.111-71.158,36.54-237.658,36.54-237.658v0c0-46.377,37.571-83.973,83.917-83.973h258.343
						c46.346,0,83.917,37.596,83.917,83.973v2.785C1021.529,1817.745,1131.677,1978.961,1058.069,2052.618z"/>
					<path style="fill:#363E44;" d="M1021.53,1818.12c-1.219,0-2.205-0.986-2.205-2.205v-0.956c0-44.673-36.319-81.016-80.96-81.016
						H678.517c-44.641,0-80.96,36.343-80.96,81.016c0,1.219-0.986,2.205-2.205,2.205s-2.205-0.986-2.205-2.205
						c0-47.104,38.296-85.426,85.37-85.426h259.848c47.074,0,85.37,38.322,85.37,85.426v0.956
						C1023.735,1817.134,1022.749,1818.12,1021.53,1818.12z"/>
					<path style="fill:#363E44;" d="M593.608,2057.455c-28.294,0-43.267-32.717-44.865-55.947
						c-3.266-47.599,26.197-126.428,47.141-164.713c0.401-0.728,1.255-1.227,2.002-1.146c0.831,0.026,1.576,0.517,1.929,1.268
						c17.524,37.495,41.521,116.713,39.062,161.871C637.405,2025.851,624.665,2057.455,593.608,2057.455z M597.658,1842.819
						c-21.195,40.415-47.483,115.133-44.514,158.387c1.712,24.931,17.671,51.839,40.464,51.839
						c36.836,0,40.563-48.919,40.869-54.498C636.808,1955.655,614.779,1881.293,597.658,1842.819z"/>
				</g>
				<g>
					<ellipse style="fill:#EFBC73;" cx="771.663" cy="1694.192" rx="35.912" ry="35.935"/>
					<path style="fill:#363E44;" d="M762.528,1732.333c-21.017,0-38.117-17.109-38.117-38.141c0-21.032,17.1-38.141,38.117-38.141
						c21.017,0,38.117,17.109,38.117,38.141C800.645,1715.224,783.545,1732.333,762.528,1732.333z M762.528,1660.461
						c-18.586,0-33.707,15.132-33.707,33.731c0,18.599,15.122,33.731,33.707,33.731c18.586,0,33.708-15.132,33.708-33.731
						C796.236,1675.593,781.114,1660.461,762.528,1660.461z"/>
				</g>
			</g>
		</g>
	</g>
</g>
</svg>
