<?xml version="1.0" encoding="utf-8"?>
<!-- Generator: Adobe Illustrator 27.5.0, SVG Export Plug-In . SVG Version: 6.00 Build 0)  -->
<svg version="1.1" xmlns="http://www.w3.org/2000/svg" xmlns:xlink="http://www.w3.org/1999/xlink" x="0px" y="0px"
	 viewBox="0 0 2500 2500" style="enable-background:new 0 0 2500 2500;" xml:space="preserve">
-
<g id="Illustration">
	<g id="Advertising_1_">
		<circle style="fill:transparent;" cx="1250" cy="1250" r="915"/>
		<g>
			<g>
				<g>
					
						<rect x="342.277" y="1000.524" transform="matrix(-1 -1.224647e-16 1.224647e-16 -1 2033.6215 3023.5828)" style="fill:#E6D0BE;" width="1349.066" height="1022.536"/>
					
						<rect x="588.868" y="838.585" transform="matrix(-1.836970e-16 1 -1 -1.836970e-16 2487.6033 453.9818)" style="fill:#F2E6DC;" width="855.886" height="1264.415"/>
					
						<ellipse transform="matrix(0.9951 -0.0985 0.0985 0.9951 -187.7796 109.7134)" style="fill:#FFFFFF;" cx="1016.811" cy="1955.873" rx="25.394" ry="25.394"/>
				</g>
				<path style="fill:#E6D0BE;" d="M342.278,2050.78c0,58.526,47.445,105.971,105.97,105.971h1414.07
					c58.526,0,105.97-47.446,105.97-105.971H342.278z"/>
				<path style="fill:#F2E6DC;" d="M697.375,2147.975c-47.538,0-86.213-38.675-86.213-86.214c0-1.218,0.987-2.205,2.205-2.205
					c1.218,0,2.205,0.987,2.205,2.205c0,45.107,36.697,81.804,81.803,81.804c1.218,0,2.205,0.987,2.205,2.205
					C699.58,2146.988,698.593,2147.975,697.375,2147.975z"/>
				<path style="fill:#F2E6DC;" d="M1191.877,2075.828c0,24.869,20.161,45.029,45.03,45.029h158.527
					c24.869,0,45.029-20.16,45.029-45.029H1191.877z"/>
			</g>
			<g>
				<rect x="423.851" y="1121.992" style="fill:#EFBC73;" width="776.744" height="776.744"/>
				<g>
					<path style="fill:#363E44;" d="M1025.986,1898.736c-0.107-83.926-7.296-162.767-26.035-224.954
						c-14.747-48.946-25.952-95.101-41.403-135.713c-92.007-16.867-184.015-33.735-276.022-50.604
						c-42.788,59.913-85.144,106.068-135.713,259.922c-11.342,34.508-23.019,87.322-34.42,151.349H1025.986z"/>
					<path style="fill:#363E44;" d="M860.654,1026.017c22.947-6.138,61.973-7.242,77.092,13.818
						c21.499,29.951-18.961,63.863,3.637,97.455c16.873,25.081,45.396,24.99,61.818,49.455
						c19.116,28.48,0.408,88.783-35.637,110.545c-57.94,34.98-183.156-16.05-202.183-107.636
						C751.025,1120.551,800.004,1042.239,860.654,1026.017z"/>
					<g>
						<path style="fill:#E2A18D;" d="M1122.754,1363.381c158.077,198.114,96.669,205.219,62.447,230.516
							c-27.727,20.497-118.642-52.27-183.807-135.529c-65.166-83.259-90.826-172.017-57.313-198.247
							C977.593,1233.891,1056.811,1280.736,1122.754,1363.381z"/>
						<g>
							<path style="fill:#E2A18D;" d="M1320.787,1216.271c-0.96,2.263-1.625,3.663-1.902,3.728c0.33-0.946,0.78-2.328,1.307-4.007
								c-8.408-3.83-17.026-7.124-25.748-9.81c-25.079-7.724-49.865-6.394-74.308,0c-8.394,21.046-15.136,39.515-18.089,47.79
								c-4.923,13.804-54.447,148.954-76.398,208.664c14.755,42.552,33.679,92.204,48.435,134.755
								c45.821-0.484,69.935-31.732,78.332-50.544c21.649-48.501,37.557-94.272,63.346-199.343
								c10.981-44.738,22.613-83.553,26.013-105.493c0.252-1.992,1.358-6.823,2.757-13.047
								C1336.885,1224.261,1328.937,1220.014,1320.787,1216.271z"/>
						</g>
						<path style="fill:#E2A18D;" d="M560.818,1292.179c-51.483,41.456-207.389,152.003-160.257,216.945
							c38.986,53.717,186.068-60.64,239.861-98.492C613.888,1371.148,587.353,1331.664,560.818,1292.179z"/>
						<path style="fill:#FFFFFF;" d="M514.846,1314.184c18.907-17.48,160.669-144.251,353.463-112.71
							c111.179,18.189,184.527,80.06,214.685,108.876c-23.003,28.623-46.005,57.248-69.006,85.873
							c11.757,59.805,23.511,119.611,35.268,179.416c-87.406-0.767-369.565-9.202-458.505-12.268
							c15.846-50.605,31.691-77.674,47.537-128.278c-12.267,10.223-24.536,20.446-36.803,30.669
							C573.117,1418.459,540.147,1358.654,514.846,1314.184z"/>
						<g>
							
								<rect x="538.609" y="1418.871" transform="matrix(0.7071 0.7071 -0.7071 0.7071 1307.885 -6.2372)" style="fill:#9E9569;" width="245.724" height="313.537"/>
							<g>
								<path style="fill:#363E44;" d="M764.8,1536.176c-0.564,0-1.128-0.215-1.559-0.646l-67.701-67.702
									c-0.861-0.861-0.861-2.257,0-3.118c0.861-0.861,2.256-0.861,3.118,0l67.701,67.702c0.861,0.861,0.861,2.257,0,3.118
									C765.928,1535.961,765.364,1536.176,764.8,1536.176z"/>
								<path style="fill:#363E44;" d="M733.629,1567.347c-0.564,0-1.128-0.215-1.559-0.646L664.367,1499
									c-0.861-0.861-0.861-2.257,0-3.118c0.861-0.861,2.257-0.861,3.118,0l67.702,67.701c0.861,0.861,0.861,2.257,0,3.118
									C734.757,1567.132,734.193,1567.347,733.629,1567.347z"/>
								<path style="fill:#363E44;" d="M741.421,1543.969c-0.564,0-1.128-0.215-1.559-0.646l-52.116-52.116
									c-0.861-0.861-0.861-2.257,0-3.118c0.861-0.861,2.257-0.861,3.118,0l52.116,52.116c0.861,0.861,0.861,2.257,0,3.118
									C742.549,1543.754,741.985,1543.969,741.421,1543.969z"/>
							</g>
						</g>
						<g>
							<path style="fill:#E2A18D;" d="M529.948,1459.052c49.701,39.714,171.376,127.447,182.912,136.484
								c21.565,16.893,68.523,51.616,60.228,68.485c-2.759,5.61-9.252,9.15-16.716,9.584c2.285,7.687-0.149,15.91-6.102,20.76
								c-7.823,6.374-17.47,3.457-18.174,3.231c2.536,5.669,2.109,12.11-1.327,16.602c-4.742,6.198-14.637,7.93-22.641,2.923
								c-0.16,1.753-0.944,7.979-6.071,12.505c-5.68,5.015-14.397,5.917-22.055,2.245c-19.172-14.994-52.878-33.48-91.844-58.049
								c-91.517-57.704-129.905-87.275-169.066-123.155c-15.19-13.917-37.203-46.677-23.168-90.299
								C440.958,1459.831,484.914,1459.589,529.948,1459.052z"/>
							<path style="fill:#363E44;" d="M548.802,1476.168c-0.474,0-0.952-0.152-1.354-0.466
								c-10.955-8.536-20.003-15.601-24.954-19.523c-0.955-0.756-1.116-2.142-0.361-3.097c0.758-0.955,2.143-1.115,3.097-0.359
								c4.947,3.917,13.984,10.975,24.928,19.501c0.96,0.748,1.132,2.134,0.384,3.094
								C550.108,1475.876,549.457,1476.168,548.802,1476.168z"/>
							<g>
								<path style="fill:#363E44;" d="M737.33,1649.194c-0.523,0-1.049-0.185-1.47-0.562c-0.908-0.812-0.984-2.206-0.172-3.114
									l8.04-8.982c0.813-0.908,2.206-0.984,3.113-0.172c0.908,0.812,0.984,2.206,0.172,3.113l-8.04,8.982
									C738.539,1648.946,737.936,1649.194,737.33,1649.194z"/>
								<path style="fill:#363E44;" d="M716.961,1672.015c-0.523,0-1.049-0.185-1.47-0.562c-0.907-0.812-0.984-2.206-0.172-3.113
									l8.04-8.982c0.811-0.906,2.205-0.986,3.113-0.172c0.908,0.812,0.984,2.206,0.172,3.113l-8.04,8.982
									C718.169,1671.767,717.566,1672.015,716.961,1672.015z"/>
								<path style="fill:#363E44;" d="M696.477,1695.481c-0.523,0-1.049-0.185-1.469-0.562c-0.908-0.812-0.984-2.206-0.172-3.113
									l8.04-8.982c0.813-0.908,2.206-0.985,3.113-0.172c0.908,0.812,0.984,2.206,0.172,3.113l-8.04,8.982
									C697.685,1695.233,697.082,1695.481,696.477,1695.481z"/>
								<path style="fill:#363E44;" d="M677.462,1716.38c-0.523,0-1.048-0.185-1.469-0.562c-0.908-0.812-0.984-2.206-0.172-3.113
									l8.04-8.982c0.81-0.907,2.205-0.986,3.113-0.172c0.908,0.812,0.984,2.206,0.172,3.113l-8.04,8.982
									C678.67,1716.132,678.067,1716.38,677.462,1716.38z"/>
							</g>
						</g>
						<g>
							<g>
								<g>
									<path style="fill:#40484C;" d="M1335.549,1252.899c-10.964,14.743-31.803,17.806-46.546,6.842l-119.304-88.723
										l39.704-53.388l119.304,88.723C1343.449,1217.317,1346.513,1238.156,1335.549,1252.899z"/>
									
										<ellipse transform="matrix(0.7071 -0.7071 0.7071 0.7071 -248.4867 1310.2552)" style="fill:#363E44;" cx="1457.375" cy="955.078" rx="61.67" ry="61.67"/>
									<polygon style="fill:#9E9569;" points="1172.822,1058.109 1231.168,1156.115 1529.826,1076.778 1384.923,833.377 									
										"/>
									
										<rect x="1133.815" y="1068.992" transform="matrix(0.8593 -0.5115 0.5115 0.8593 -411.1953 757.2139)" style="fill:#776E42;" width="73.342" height="113.758"/>
									<g>
										
											<rect x="1159.093" y="1143.133" transform="matrix(0.8593 -0.5115 0.5115 0.8593 -423.0834 768.5692)" style="fill:#9E9569;" width="52.167" height="20.039"/>
										
											<rect x="1143.257" y="1116.533" transform="matrix(0.8593 -0.5115 0.5115 0.8593 -411.7037 756.719)" style="fill:#9E9569;" width="52.167" height="20.039"/>
										
											<rect x="1127.422" y="1089.933" transform="matrix(0.8593 -0.5115 0.5115 0.8593 -400.3243 744.8695)" style="fill:#9E9569;" width="52.167" height="20.039"/>
									</g>
								</g>
								<g>
									<path style="fill:#EFBC73;" d="M1493.089,877.953c-0.202,0-0.408-0.028-0.613-0.087c-1.17-0.338-1.844-1.559-1.507-2.73
										l12.781-44.28c0.189-0.654,0.671-1.185,1.303-1.437c0.636-0.253,1.348-0.197,1.935,0.148l30.726,18.086l28.01-47.584
										c0.619-1.05,1.97-1.399,3.019-0.782c1.05,0.618,1.4,1.969,0.782,3.019l-29.129,49.485
										c-0.619,1.049-1.971,1.399-3.019,0.781l-30.177-17.763l-11.993,41.55C1494.928,877.325,1494.046,877.953,1493.089,877.953z
										"/>
									<path style="fill:#EFBC73;" d="M1578.238,965.585c-0.396,0-0.79-0.107-1.137-0.316c-0.554-0.334-0.935-0.893-1.039-1.531
										l-4.156-25.306l-33.773,6.408c-1.205,0.229-2.351-0.56-2.577-1.755c-0.227-1.197,0.559-2.351,1.755-2.577l35.994-6.829
										c0.585-0.11,1.188,0.019,1.675,0.359c0.487,0.341,0.816,0.863,0.912,1.45l4.102,24.978l46.142-15.506
										c1.157-0.386,2.405,0.235,2.792,1.388c0.389,1.155-0.233,2.404-1.388,2.793l-48.6,16.331
										C1578.712,965.547,1578.474,965.585,1578.238,965.585z"/>
									<path style="fill:#EFBC73;" d="M1588.165,900.273c-0.063,0-0.128-0.003-0.193-0.009c-0.621-0.054-1.19-0.369-1.566-0.867
										l-16.375-21.657l-20.621,15.294c-0.979,0.726-2.358,0.521-3.084-0.458c-0.726-0.978-0.521-2.359,0.458-3.084l22.375-16.595
										c0.974-0.722,2.342-0.523,3.073,0.441l16.221,21.453l32.102-29.826c0.89-0.829,2.286-0.779,3.116,0.115
										c0.829,0.892,0.778,2.287-0.114,3.116l-33.891,31.487C1589.257,900.064,1588.72,900.273,1588.165,900.273z"/>
								</g>
							</g>
							<g>
								<path style="fill:#E2A18D;" d="M1264.471,1192.427c-5.415-3.802-6.723-11.274-2.921-16.689l13.889-19.782
									c3.802-5.415,11.274-6.723,16.689-2.921c5.415,3.802,6.723,11.274,2.921,16.689l-13.889,19.782
									C1277.358,1194.922,1269.886,1196.229,1264.471,1192.427z"/>
								<path style="fill:#E2A18D;" d="M1277.143,1212.508c6.311,4.432,15.019,2.908,19.45-3.403l22.129-31.517
									c4.431-6.311,2.908-15.02-3.403-19.452c-6.311-4.432-15.019-2.908-19.45,3.403l-22.129,31.517
									C1269.308,1199.367,1270.832,1208.075,1277.143,1212.508z"/>
								<path style="fill:#E2A18D;" d="M1298.982,1227.841c6.311,4.432,15.02,2.909,19.452-3.402l22.129-31.518
									c4.431-6.311,2.908-15.019-3.403-19.451c-6.312-4.432-15.021-2.909-19.453,3.403l-22.128,31.517
									C1291.148,1214.701,1292.671,1223.409,1298.982,1227.841z"/>
								<path style="fill:#E2A18D;" d="M1319.426,1242.195c5.54,3.89,13.184,2.552,17.074-2.988l18.074-25.743
									c3.89-5.54,2.552-13.184-2.988-17.074c-5.54-3.89-13.184-2.552-17.074,2.988l-18.075,25.743
									C1312.548,1230.661,1313.886,1238.305,1319.426,1242.195z"/>
							</g>
							<path style="fill:#E2A18D;" d="M1229.869,1223.511c-6.594-0.547-11.496-6.336-10.949-12.93l1.998-24.088
								c0.547-6.594,6.336-11.496,12.93-10.949c6.594,0.547,11.496,6.336,10.949,12.929l6.504,42.68
								C1250.754,1237.748,1236.463,1224.059,1229.869,1223.511z"/>
						</g>
					</g>
					<g>
						<path style="fill:#E2A18D;" d="M898.784,1224.187c0,15.129-29.912,27.393-66.811,27.393
							c-36.899,0-66.811-12.264-66.811-27.393c0-15.129,29.372-34.755,66.271-34.755c20.116,0,40.727,7.424,50.699,14.057
							C891.872,1209.968,898.784,1217.306,898.784,1224.187z"/>
						<rect x="793.756" y="1075.105" style="fill:#E2A18D;" width="71.31" height="145.864"/>
						<path style="fill:#E2A18D;" d="M846.037,1049.961c2.131-0.376,22.589-3.671,36.092,9.438
							c10.048,9.754,12.207,23.115,12.44,46.071c0.275,27.034-3.338,43.232-10.664,49.145c-11.575,9.343-49.691-6.549-65.309-28.951
							c-11.273-16.17-11.845-38.088-2.642-55.675C825.133,1052.45,844.677,1050.201,846.037,1049.961z"/>
						<g>
							<path style="fill:#FFFFFF;" d="M897.599,1082.061c-0.009,0.18,0.113,0.316,0.104,0.496c0,0.008-0.003,0.014-0.003,0.014
								c0.657,2.448,1.358,5.022,2.45,7.3c0.484,1.009,1.221,1.548,1.785,2.447c0.414,0.66,0.807,1.293,1.241,1.926
								c5.483-6.338,7.17-14.082,7.17-14.082S904.186,1079.815,897.599,1082.061z"/>
							<g>
								<defs>
									<path id="SVGID_1_" d="M910.345,1080.161c0,0-2.443,11.247-11.034,17.724c-8.591,6.477-20.076,5.731-20.076,5.731
										s2.443-11.247,11.034-17.724C898.86,1079.415,910.345,1080.161,910.345,1080.161z"/>
								</defs>
								<clipPath id="SVGID_00000108268124178087047800000008303138605060541094_">
									<use xlink:href="#SVGID_1_"  style="overflow:visible;"/>
								</clipPath>
								<path style="clip-path:url(#SVGID_00000108268124178087047800000008303138605060541094_);fill:#363E44;" d="
									M903.142,1092.189c0.605,7.747-5.184,14.518-12.931,15.124c-7.747,0.606-14.518-5.184-15.124-12.931
									c-0.606-7.747,5.184-14.518,12.931-15.124C895.766,1078.653,902.537,1084.442,903.142,1092.189z"/>
							</g>
						</g>
						<g>
							<path style="fill:#FFFFFF;" d="M851.751,1102.606c0.18,2.982,0.869,5.202,2.674,7.423c7.053-0.979,12.401-4.197,12.401-4.197
								s-6.042-7.142-14.866-9.932C851.342,1098.011,851.623,1100.489,851.751,1102.606z"/>
							<g>
								<defs>
									<path id="SVGID_00000106832133301328804890000010569454255062894491_" d="M828.415,1099.299c0,0,9.857-5.941,20.464-4.138
										c10.607,1.804,17.946,10.669,17.946,10.669s-9.858,5.942-20.464,4.138C835.755,1108.165,828.415,1099.299,828.415,1099.299
										z"/>
								</defs>
								<clipPath id="SVGID_00000167374896975432059270000006432999776555855037_">
									<use xlink:href="#SVGID_00000106832133301328804890000010569454255062894491_"  style="overflow:visible;"/>
								</clipPath>
								<path style="clip-path:url(#SVGID_00000167374896975432059270000006432999776555855037_);fill:#363E44;" d="
									M830.752,1095.489c5.219-5.757,14.117-6.193,19.874-0.974c5.757,5.219,6.193,14.117,0.974,19.874
									c-5.219,5.757-14.117,6.193-19.874,0.974C825.969,1110.144,825.533,1101.246,830.752,1095.489z"/>
							</g>
						</g>
						<path style="fill:#363E44;" d="M882.175,1119.851c-0.364,0-0.732-0.091-1.072-0.281c-1.064-0.594-1.445-1.937-0.85-3
							c0.313-0.562,0.652-1.364,0.483-1.993c-0.109-0.407-0.438-0.692-1.351-1.401c-0.791-0.615-1.776-1.38-2.757-2.573
							c-1.253-1.526-2.164-3.355-2.705-5.436c-0.307-1.179,0.401-2.382,1.578-2.689c1.186-0.308,2.382,0.401,2.689,1.578
							c0.38,1.459,1,2.719,1.845,3.747c0.668,0.813,1.373,1.36,2.054,1.89c1.127,0.875,2.405,1.868,2.906,3.743
							c0.443,1.65,0.143,3.429-0.893,5.284C883.699,1119.443,882.948,1119.851,882.175,1119.851z"/>
						<path style="fill:#363E44;" d="M873.883,1133.745c-2.188,3.089-6.465,3.819-9.553,1.632c-3.089-2.188-3.819-6.465-1.632-9.553
							c2.188-3.089,2.504,1.773,5.593,3.961C871.38,1131.971,876.071,1130.656,873.883,1133.745z"/>
						<path style="fill:#363E44;" d="M900.897,1022.623c0,0-18.424,69.818-85.333,78.061c0,0,20.364,57.212,1.455,84.121
							c-21.321,30.342-61.818,18.182-82.182,56.727c-12.209,23.11,14.469,72.593-16,101.818
							c-35.636,34.182-107.637,5.818-138.909-22.545c-30.357-27.533-45.818-88.727-17.455-117.091
							c23.769-23.769,76.998-14.046,97.455-31.273c27.636-23.273,6.056-51.332,25.455-85.818c19.636-34.909,68.364-32,81.697-40.727
							c10.439-6.833,24.746-42.484,62.667-48C869.745,992.078,900.897,1022.623,900.897,1022.623z"/>
						<path style="fill:#363E44;" d="M861.437,1157.422c-0.222,0-0.448-0.034-0.672-0.106
							c-16.306-5.215-29.597-15.583-30.155-16.022c-0.957-0.752-1.123-2.138-0.37-3.095c0.753-0.956,2.137-1.124,3.096-0.371
							c0.13,0.102,13.246,10.322,28.773,15.288c1.159,0.371,1.799,1.612,1.429,2.771
							C863.237,1156.825,862.371,1157.422,861.437,1157.422z"/>
					</g>
				</g>
			</g>
		</g>
		<g>
			<g>
				
					<ellipse transform="matrix(0.7071 -0.7071 0.7071 0.7071 -390.4527 661.8967)" style="fill:#E6D0BE;" cx="603.754" cy="802.266" rx="144.477" ry="144.477"/>
				<path style="fill:#FFFFFF;" d="M624.704,948.949c-0.291,0-0.577-0.001-0.869-0.003c-39.18-0.226-75.926-15.695-103.47-43.559
					c-27.545-27.863-42.59-64.786-42.364-103.966c0.464-80.593,66.178-145.838,146.667-145.838c0.285,0,0.572,0.001,0.858,0.003
					c39.18,0.226,75.926,15.695,103.47,43.559c27.545,27.864,42.59,64.786,42.364,103.966l-2.205-0.013l2.205,0.013
					c-0.226,39.18-15.695,75.926-43.559,103.471C700.145,933.922,663.559,948.949,624.704,948.949z M624.668,659.994
					c-78.075,0-141.807,63.279-142.257,141.454c-0.219,38.001,14.374,73.814,41.091,100.84
					c26.716,27.026,62.358,42.031,100.36,42.249c37.902,0.234,73.813-14.374,100.84-41.091
					c27.025-26.717,42.031-62.359,42.249-100.361c0.219-38.001-14.374-73.814-41.091-100.84
					c-26.716-27.026-62.358-42.03-100.36-42.249C625.228,659.995,624.94,659.994,624.668,659.994z"/>
				<path style="fill:#FFFFFF;" d="M624.934,734.389c-40.317,0-79.952-6.791-114.622-19.639l1.533-4.135
					c34.184,12.668,73.29,19.364,113.089,19.364c39.493,0,78.337-6.6,112.334-19.086l1.52,4.139
					C704.309,727.695,664.939,734.389,624.934,734.389z"/>
				<path style="fill:#FFFFFF;" d="M510.533,891.913l-1.552-4.128c35.003-13.173,75.098-20.136,115.953-20.136
					c40.634,0,80.542,6.893,115.409,19.933l-1.544,4.13c-34.378-12.857-73.753-19.653-113.865-19.653
					C584.603,872.059,545.045,878.924,510.533,891.913z"/>
				<path style="fill:#FFFFFF;" d="M624.681,948.949c-42.576,0-77.215-65.802-77.215-146.682s34.639-146.682,77.215-146.682
					c42.576,0,77.215,65.802,77.215,146.682S667.257,948.949,624.681,948.949z M624.681,659.994
					c-40.145,0-72.805,63.823-72.805,142.272s32.66,142.273,72.805,142.273c40.145,0,72.805-63.823,72.805-142.273
					S664.826,659.994,624.681,659.994z"/>
				<rect x="622.476" y="658.097" style="fill:#FFFFFF;" width="4.41" height="288.455"/>
				
					<rect x="622.448" y="656.848" transform="matrix(0.0078 -1 1 0.0078 -181.5799 1419.7762)" style="fill:#FFFFFF;" width="4.41" height="289.08"/>
			</g>
			<g>
				<g>
					<circle style="fill:#FFFFFF;" cx="1405.363" cy="529.302" r="175.1"/>
				</g>
				<g>
					<path style="fill:#D3BBA3;" d="M1445.631,599.734h-78.933c-1.218,0-2.205-0.987-2.205-2.205v-27.226
						c0-10.682-4.727-21.002-12.97-28.313c-17.364-15.399-27.412-37.526-27.568-60.706c-0.294-43.763,35.004-80.717,78.683-82.376
						c22.523-0.851,43.791,7.251,59.967,22.824c16.184,15.581,25.097,36.53,25.097,58.99c0,23.405-10.053,45.741-27.58,61.281
						c-7.789,6.906-12.256,17.026-12.256,27.766c0,0.001,0,0.002,0,0.003l-0.031,27.76
						C1447.835,598.749,1446.848,599.734,1445.631,599.734z M1368.903,595.325h74.526l0.029-25.558
						c0.001-11.999,5.008-23.321,13.739-31.063c16.585-14.703,26.096-35.837,26.096-57.981c0-21.25-8.433-41.071-23.746-55.813
						c-15.305-14.734-35.455-22.4-56.741-21.595c-41.325,1.57-74.719,36.534-74.442,77.94c0.147,21.932,9.655,42.866,26.084,57.437
						c9.185,8.147,14.454,19.669,14.454,31.612V595.325z M1445.663,569.769h0.022H1445.663z"/>
					<path style="fill:#D3BBA3;" d="M1445.631,599.734h-78.933c-1.218,0-2.205-0.987-2.205-2.205v-27.226
						c0-10.682-4.727-21.002-12.97-28.313c-17.364-15.399-27.412-37.526-27.568-60.706c-0.294-43.763,35.004-80.717,78.683-82.376
						c15.776-0.599,31.252,3.291,44.743,11.253c1.049,0.619,1.397,1.971,0.778,3.02c-0.619,1.049-1.969,1.396-3.02,0.778
						c-12.761-7.531-27.418-11.21-42.334-10.645c-41.325,1.57-74.719,36.534-74.442,77.94c0.147,21.932,9.655,42.866,26.084,57.437
						c9.185,8.147,14.454,19.669,14.454,31.612v25.021h74.526l0.029-25.558c0-11.998,5.008-23.321,13.739-31.063
						c16.585-14.703,26.096-35.837,26.096-57.981c0-16.33-5.021-31.947-14.52-45.163c-0.711-0.989-0.486-2.366,0.504-3.077
						c0.986-0.711,2.365-0.485,3.077,0.504c10.041,13.97,15.349,30.478,15.349,47.737c0,23.405-10.053,45.741-27.58,61.281
						c-7.789,6.906-12.256,17.026-12.256,27.766l-0.031,27.763C1447.835,598.749,1446.848,599.734,1445.631,599.734z"/>
					<path style="fill:#D3BBA3;" d="M1393.952,594.786c-1.218,0-2.205-0.987-2.205-2.205v-94.265h-12.087
						c-9.096,0-16.496-7.4-16.496-16.496v-0.468c0-9.096,7.4-16.496,16.496-16.496s16.496,7.4,16.496,16.496v12.555h19.343v-12.555
						c0-9.096,7.401-16.496,16.497-16.496c9.096,0,16.496,7.4,16.496,16.496v0.468c0,9.096-7.4,16.496-16.496,16.496h-12.088v50.891
						c0,1.218-0.987,2.205-2.205,2.205s-2.205-0.987-2.205-2.205v-50.891h-19.343v94.265
						C1396.156,593.799,1395.169,594.786,1393.952,594.786z M1419.909,493.907h12.088c6.665,0,12.087-5.422,12.087-12.087v-0.468
						c0-6.665-5.422-12.087-12.087-12.087c-6.665,0-12.088,5.422-12.088,12.087V493.907z M1379.66,469.265
						c-6.665,0-12.087,5.422-12.087,12.087v0.468c0,6.665,5.422,12.087,12.087,12.087h12.087v-12.555
						C1391.747,474.687,1386.325,469.265,1379.66,469.265z"/>
					<path style="fill:#D3BBA3;" d="M1405.828,660.916c-23.005,0-41.721-18.716-41.721-41.721v-21.643
						c0-1.218,0.987-2.205,2.205-2.205h79.032c1.218,0,2.205,0.987,2.205,2.205v21.643
						C1447.549,642.2,1428.833,660.916,1405.828,660.916z M1368.517,599.757v19.438c0,20.573,16.739,37.311,37.312,37.311
						c20.573,0,37.311-16.738,37.311-37.311v-19.438H1368.517z"/>
					<path style="fill:#D3BBA3;" d="M1438.242,626.922h-46.139c-1.218,0-2.205-0.987-2.205-2.205s0.987-2.205,2.205-2.205h46.139
						c1.218,0,2.205,0.987,2.205,2.205S1439.459,626.922,1438.242,626.922z"/>
				</g>
			</g>
			<g>
				
					<ellipse transform="matrix(0.7071 -0.7071 0.7071 0.7071 -573.0782 1790.2156)" style="fill:#FFFFFF;" cx="1874.442" cy="1586.874" rx="181.396" ry="181.396"/>
				<g>
					<path style="fill:#EFBC73;" d="M1987.175,1609.42c8.147,2.028,14.129,9.531,13.763,18.389
						c-0.406,9.821-8.854,17.404-18.683,17.404h-5.001c7.217,2.634,12.307,9.69,11.935,17.902
						c-0.443,9.799-8.906,17.333-18.715,17.333h-88.049c-23.114,0-43.962-13.898-52.852-35.235v-1.116v-104.236h0.033l-0.033-0.019
						c0,0,37.716-18.032,76.299-49.999c7.754-6.424,28.934,8.307,16.943,34.693c-2.18,4.797-5.787,10.085-9.976,15.325h57.641
						c10.024,0,18.752,8.195,18.728,18.219c-0.016,6.614-3.576,12.38-8.87,15.547h1.915c9.829,0,18.276,7.582,18.684,17.403
						C2001.304,1599.888,1995.322,1607.392,1987.175,1609.42z"/>
					<rect x="1751.618" y="1524.456" style="fill:#EFBC73;" width="69.743" height="142.533"/>
				</g>
			</g>
			<g>
				<circle style="fill:#FFFFFF;" cx="1964.064" cy="1157.315" r="180.621"/>
				<g>
					<path style="fill:#D3BBA3;" d="M2070.472,1235.922h-213.674c-1.218,0-2.205-0.987-2.205-2.205v-149.571
						c0-1.218,0.987-2.205,2.205-2.205h213.674c1.218,0,2.205,0.987,2.205,2.205v149.571
						C2072.677,1234.934,2071.689,1235.922,2070.472,1235.922z M1859.003,1231.512h209.264v-145.161h-209.264V1231.512z"/>
					<path style="fill:#D3BBA3;" d="M1940.741,1195.634c-0.378,0-0.755-0.097-1.094-0.291c-0.687-0.392-1.111-1.123-1.111-1.914
						V1120.3c0-0.793,0.426-1.525,1.115-1.917c0.689-0.392,1.535-0.383,2.218,0.022l61.74,36.754c0.669,0.399,1.079,1.121,1.077,1.9
						c-0.002,0.779-0.415,1.499-1.085,1.895l-61.74,36.375C1941.516,1195.532,1941.129,1195.634,1940.741,1195.634z
						 M1942.946,1124.179v65.393l55.209-32.527L1942.946,1124.179z"/>
				</g>
			</g>
			<g>
				<circle style="fill:#FFFFFF;" cx="987.225" cy="582.083" r="171.427"/>
				<path style="fill:#D87355;" d="M901.038,547.416c6.463-20.777,25.841-35.862,48.745-35.862c14.816,0,28.119,6.352,37.442,16.435
					c9.323-10.083,22.625-16.435,37.44-16.435c22.902,0,42.283,15.085,48.745,35.862c1.491,4.795,2.295,9.892,2.295,15.178
					c0,28.188-33.333,76.038-88.481,96.87c-55.149-20.832-88.48-68.682-88.48-96.87
					C898.744,557.308,899.547,552.211,901.038,547.416z"/>
			</g>
			<g>
				
					<ellipse transform="matrix(0.7071 -0.7071 0.7071 0.7071 -882.8914 1601.2393)" style="fill:#FFFFFF;" cx="1491.421" cy="1866.364" rx="187.19" ry="187.189"/>
				<g>
					<path style="fill:#D3BBA3;" d="M1616.859,1954.366h-251.946c-1.218,0-2.205-0.987-2.205-2.205v-165.339
						c0-1.218,0.987-2.205,2.205-2.205c1.218,0,2.205,0.987,2.205,2.205v163.135h249.741c1.218,0,2.205,0.987,2.205,2.205
						S1618.077,1954.366,1616.859,1954.366z"/>
					<g>
						<path style="fill:#D3BBA3;" d="M1526.577,1842.835c-0.75,0-1.481-0.383-1.895-1.074c-0.624-1.045-0.284-2.399,0.761-3.024
							l29.927-17.886c1.044-0.625,2.397-0.284,3.024,0.762c0.624,1.045,0.284,2.399-0.761,3.024l-29.927,17.886
							C1527.352,1842.734,1526.961,1842.835,1526.577,1842.835z"/>
						<path style="fill:#D3BBA3;" d="M1507.628,1838.052c-0.718,0-1.421-0.35-1.845-0.994l-40.547-61.727
							c-0.669-1.018-0.385-2.385,0.633-3.053c1.019-0.669,2.385-0.385,3.053,0.632l40.547,61.727
							c0.669,1.018,0.385,2.385-0.633,3.053C1508.463,1837.936,1508.043,1838.052,1507.628,1838.052z"/>
						<path style="fill:#D3BBA3;" d="M1417.919,1797.985c-0.659,0-1.311-0.295-1.746-0.857c-0.744-0.964-0.566-2.348,0.397-3.092
							l31.5-24.335c0.964-0.743,2.347-0.568,3.093,0.397c0.744,0.964,0.566,2.348-0.397,3.092l-31.5,24.335
							C1418.865,1797.834,1418.391,1797.985,1417.919,1797.985z"/>
						
							<ellipse transform="matrix(0.9239 -0.3827 0.3827 0.9239 -583.1713 676.0182)" style="fill:#D87355;" cx="1407.703" cy="1803.911" rx="12.989" ry="12.989"/>
						<circle style="fill:#D87355;" cx="1460.071" cy="1763.501" r="12.989"/>
						<path style="fill:#D87355;" d="M1528.122,1846.843c0,7.174-5.816,12.989-12.989,12.989s-12.989-5.815-12.989-12.989
							c0-7.174,5.815-12.989,12.989-12.989S1528.122,1839.669,1528.122,1846.843z"/>
						
							<ellipse transform="matrix(0.9239 -0.3827 0.3827 0.9239 -575.8127 738.2939)" style="fill:#D87355;" cx="1567.918" cy="1816.548" rx="12.989" ry="12.989"/>
					</g>
					<g>
						<rect x="1392.354" y="1837.536" style="fill:#E6D0BE;" width="32.303" height="88.575"/>
						<rect x="1445.663" y="1819.89" style="fill:#E6D0BE;" width="32.304" height="106.22"/>
						<rect x="1498.972" y="1868.87" style="fill:#E6D0BE;" width="32.304" height="57.24"/>
						<rect x="1552.281" y="1852.434" style="fill:#E6D0BE;" width="32.303" height="73.677"/>
					</g>
				</g>
			</g>
			<g>
				
					<ellipse transform="matrix(0.7071 -0.7071 0.7071 0.7071 82.5463 1538.2954)" style="fill:#FFFFFF;" cx="1898.16" cy="669.506" rx="177.288" ry="177.287"/>
				<polygon style="fill:#D87355;" points="2019.418,701.951 1951.297,650.824 1954.796,565.721 1885.12,614.71 1805.265,585.085 
					1830.324,666.489 1777.472,733.281 1862.635,734.604 1909.826,805.508 1937.4,724.922 				"/>
			</g>
		</g>
	</g>
</g>
</svg>
