<?xml version="1.0" encoding="utf-8"?>
<!-- Generator: Adobe Illustrator 27.5.0, SVG Export Plug-In . SVG Version: 6.00 Build 0)  -->
<svg version="1.1" xmlns="http://www.w3.org/2000/svg" xmlns:xlink="http://www.w3.org/1999/xlink" x="0px" y="0px"
	 viewBox="0 0 2500 2500" style="enable-background:new 0 0 2500 2500;" xml:space="preserve">
-
<g id="Illustration">
	<g id="Project_initiation_1_">
		<circle style="fill:transparent;" cx="1250.416" cy="1250" r="915"/>
		<g>
			<path style="fill:#84524D;" d="M1754.219,1545.155c-0.212,0-0.423,0-0.635-0.002l0,0l-164.769-1.283
				c-21.566-0.168-41.772-8.727-56.898-24.098c-15.126-15.369-23.359-35.714-23.185-57.282l0.589-72.832
				c0.359-44.312,36.524-80.125,80.749-80.125c0.214,0,0.425,0,0.639,0.002l164.769,1.281c21.566,0.168,41.772,8.727,56.898,24.098
				c15.126,15.369,23.359,35.714,23.185,57.282l-0.59,72.832C1834.613,1509.342,1798.447,1545.155,1754.219,1545.155z
				 M1753.618,1540.744c0.198,0.002,0.403,0.002,0.6,0.002c41.817,0,76.005-33.856,76.344-75.752l0.59-72.832
				c0.165-20.393-7.619-39.624-21.918-54.156c-14.3-14.532-33.403-22.621-53.79-22.78l-164.769-1.281
				c-0.2-0.002-0.404-0.002-0.604-0.002c-41.814,0-76.002,33.856-76.341,75.75l-0.589,72.832
				c-0.165,20.393,7.619,39.624,21.918,54.156c14.3,14.532,33.403,22.621,53.79,22.78L1753.618,1540.744z"/>
			
				<rect x="1330.449" y="1329.652" transform="matrix(0.0078 -1 1 0.0078 -149.9504 3473.0188)" style="fill:#D3BBA3;" width="689.312" height="964.836"/>
			<path style="fill:#F7F1EB;" d="M1673,1858.126c-0.479,0-0.958-0.155-1.358-0.467l-421.439-329.147
				c-0.959-0.749-1.129-2.136-0.38-3.094c0.749-0.96,2.135-1.128,3.095-0.381l420.096,328.098l420.894-321.835
				c0.967-0.743,2.351-0.558,3.091,0.411c0.74,0.967,0.554,2.351-0.412,3.09l-422.248,322.87
				C1673.944,1857.975,1673.471,1858.126,1673,1858.126z"/>
			
				<rect x="1638.936" y="1780.247" transform="matrix(0.0078 -1 1 0.0078 -186.4018 3508.6052)" style="fill:#F7F1EB;" width="71.752" height="135.971"/>
		</g>
		<g>
			<g>
				<g>
					
						<rect x="1197.83" y="1266.717" transform="matrix(-1 -1.224647e-16 1.224647e-16 -1 2862.9829 2738.3206)" style="fill:#ff6900;" width="467.322" height="204.886"/>
					<path style="fill:#84524D;" d="M1267.567,1661.422c0.063,4.55,1.11,166.555,1.11,166.555l-90.788-4.29l-50.905-162.264
						H1267.567z"/>
					<path style="fill:#FFFFFF;" d="M1275.594,1812.708l-105.789-1.379l-58.737,190.251c0,0,161.532,52.284,161.891,48.871
						C1273.318,2047.038,1275.594,1812.708,1275.594,1812.708z"/>
					<path style="fill:#363E44;" d="M1242.745,1868.379h-42.76c-1.218,0-2.205-0.986-2.205-2.205c0-1.219,0.987-2.205,2.205-2.205
						h42.76c1.218,0,2.205,0.986,2.205,2.205C1244.949,1867.393,1243.962,1868.379,1242.745,1868.379z"/>
					<path style="fill:#363E44;" d="M1242.745,1895.052h-42.293c-1.218,0-2.205-0.986-2.205-2.205c0-1.219,0.987-2.205,2.205-2.205
						h42.293c1.218,0,2.205,0.986,2.205,2.205C1244.949,1894.066,1243.962,1895.052,1242.745,1895.052z"/>
					<path style="fill:#ff6900;" d="M1285.76,1689.119h-166.477l-47.576-241.623c-11.9-60.438,32.176-117.518,93.659-121.29
						l90.949-5.581L1285.76,1689.119z"/>
				</g>
				<g>
					<polygon style="fill:#84524D;" points="1787.02,1371.208 1672.756,1481.499 1575.902,1409.142 1669.204,1280.511 					"/>
					<polygon style="fill:#FFFFFF;" points="1693.628,1465.041 1635.361,1597.618 1473.738,1491.929 1586.943,1386.785 					"/>
					<path style="fill:#ff6900;" d="M1787.02,1395.974l-142.246-101.966l85.307-131.482
						c34.297-52.861,106.867-64.295,155.757-24.541l0,0c49.713,40.424,52.458,115.377,5.835,159.329L1787.02,1395.974z"/>
					<path style="fill:#363E44;" d="M1641.298,1474.438c-0.404,0-0.813-0.11-1.179-0.342l-47.994-30.454
						c-1.028-0.652-1.333-2.015-0.68-3.045c0.651-1.027,2.014-1.333,3.042-0.68l47.994,30.454c1.028,0.652,1.333,2.015,0.68,3.045
						C1642.742,1474.076,1642.028,1474.438,1641.298,1474.438z"/>
					<path style="fill:#363E44;" d="M1630.884,1489.665c-0.404,0-0.813-0.11-1.179-0.342l-47.994-30.454
						c-1.028-0.652-1.333-2.015-0.68-3.044c0.652-1.027,2.013-1.333,3.042-0.68l47.994,30.454c1.028,0.652,1.333,2.015,0.68,3.045
						C1632.328,1489.303,1631.614,1489.665,1630.884,1489.665z"/>
				</g>
			</g>
			<g>
				<path style="fill:#FFFFFF;" d="M1634.581,1290.422c0,0-188.104,1.464-332.287,3.586l31.446-297.188
					c0,0,143.188-53.63,301.622-43.416L1634.581,1290.422z"/>
				<path style="fill:#EFBC73;" d="M1374.304,981.821l-31.065,320.147l-267.264,6.064c0,0-11.283-107.763,85.826-216.403
					c22.509-25.182,49.855-45.572,80.241-60.32C1275.751,1014.948,1330.859,989.843,1374.304,981.821z"/>
				<path style="fill:#EFBC73;" d="M1582.893,950.699l-10.413,341.592c0,0,256.505,68.616,256.578-102.476
					c0.031-73.346-20.052-127.539-40.27-163.506c-19.979-35.541-54.398-60.52-94.388-68.467
					C1664.684,951.937,1625.192,947.199,1582.893,950.699z"/>
				<path style="fill:#363E44;" d="M1693.627,1125.264c-0.975,0-1.867-0.65-2.129-1.636l-11.601-43.55
					c-0.313-1.178,0.387-2.386,1.563-2.698c1.176-0.317,2.385,0.388,2.698,1.561l11.601,43.55c0.313,1.178-0.387,2.386-1.563,2.698
					C1694.006,1125.241,1693.814,1125.264,1693.627,1125.264z"/>
				<path style="fill:#363E44;" d="M1794.299,1177.644c-0.85,0-1.661-0.495-2.023-1.324c-0.94-2.155-23.813-52.73-91.446-46.428
					c-1.219,0.121-2.287-0.782-2.399-1.994c-0.113-1.212,0.779-2.287,1.992-2.399c70.9-6.55,95.657,48.506,95.898,49.061
					c0.484,1.118-0.028,2.414-1.143,2.898C1794.891,1177.584,1794.593,1177.644,1794.299,1177.644z"/>
				<g>
					<path style="fill:#84524D;" d="M1317.992,1206.457c12.936-8.457,61.086-52.249,89.45-41.523
						c28.568,10.803,45.29,40.127,51.158,70.102c-0.066,0.105-0.139,0.222-0.204,0.326c-2.008,8.213-6.271,20.194-16.448,29.797
						c-11.603,10.947-19.779,8.32-33.823,17.966c-23.702,16.281-23.345,40.462-33.275,38.188c-6.816-1.56-7.634-15.641-5.039-28.677
						c2.664-13.385,10.021-20.92,8.311-22.359c-1.877-1.58-8.361,7.041-17.407,17.022c-4.203,4.637-7.903,24.476-17.529,23.718
						c-7.675-0.604-8.989-22.193-0.047-38.805c6.327-11.752,18.41-16.426,17.097-18.479c-0.985-1.541-8.117,1.422-13.502,5.807
						c-8.888,7.233-12.891,27.49-21.737,26.62c-8.667-0.853-9.484-19.728-2.226-35.527c6.119-13.322,19.843-17.89,18.225-20.451
						c-1.137-1.801-7.706-1.033-20.367,4.588c-10.567,4.693-28.091,20.632-34.652,10.307
						C1280.459,1236.393,1298.466,1219.22,1317.992,1206.457z"/>
					<path style="fill:#84524D;" d="M1687.743,1145.787c27.732,3.859,51.194,22.766,60.305,49.242
						c8.692,25.26,7.853,56.879-30.964,81.586c-76.913,48.956-285.528-35.456-285.528-35.456l-39.133-77.536
						C1488.23,1140.544,1594.06,1132.753,1687.743,1145.787z"/>
				</g>
				<g>
					<path style="fill:#363E44;" d="M1025.497,1318.758c6.518,13.931,20.509,22.831,35.889,22.831h246.948l-110.597-236.373H925.583
						L1025.497,1318.758z"/>
					<path style="fill:#363E44;" d="M1470.434,1317.859L1470.434,1317.859c0,13.169-10.676,23.846-23.846,23.846h-227.708
						l-11.157-23.846H1470.434z"/>
				</g>
				<g>
					<path style="fill:#84524D;" d="M955.492,1216.018c0.87,8.865,2.323,15.978,17.677,14.471
						c15.354-1.507,38.795-11.063,37.925-19.928c-0.87-8.865-25.722-13.682-41.076-12.175
						C954.664,1199.893,954.622,1207.153,955.492,1216.018z"/>
					<path style="fill:#84524D;" d="M1021.563,1233.349c-0.87-8.865-25.722-13.682-41.076-12.175
						c-15.354,1.507-15.396,8.767-14.526,17.632L1021.563,1233.349z"/>
					<path style="fill:#84524D;" d="M965.961,1238.806c0.87,8.865,2.323,15.978,17.677,14.471
						c15.354-1.507,38.795-11.063,37.925-19.928L965.961,1238.806z"/>
					<path style="fill:#84524D;" d="M1032.031,1256.137c-0.87-8.865-25.722-13.682-41.076-12.175
						c-15.354,1.507-15.396,8.767-14.526,17.632L1032.031,1256.137z"/>
					<path style="fill:#84524D;" d="M976.429,1261.594c0.87,8.865,2.323,15.978,17.677,14.471
						c15.354-1.507,38.795-11.063,37.925-19.928L976.429,1261.594z"/>
					<path style="fill:#84524D;" d="M1030.772,1276.753c-0.692-7.047-20.446-10.875-32.651-9.678
						c-12.205,1.198-12.238,6.969-11.547,14.015L1030.772,1276.753z"/>
					<path style="fill:#84524D;" d="M986.575,1281.09c0.692,7.047,1.846,12.701,14.051,11.503
						c12.205-1.198,30.838-8.794,30.146-15.841L986.575,1281.09z"/>
				</g>
			</g>
			<g>
				<path style="fill:#84524D;" d="M1530.72,853.96c-6.266,8.456-5.511,19.633,1.685,24.966c7.196,5.332,18.109,2.801,24.375-5.655
					c6.266-8.456,5.511-19.633-1.685-24.965C1547.899,842.972,1536.986,845.504,1530.72,853.96z"/>
				<path style="fill:#84524D;" d="M1453.361,850.023c5.375,9.048,3.489,20.091-4.211,24.666c-7.7,4.574-18.3,0.948-23.675-8.1
					c-5.375-9.048-3.49-20.091,4.211-24.665C1437.386,837.348,1447.986,840.975,1453.361,850.023z"/>
				<path style="fill:#84524D;" d="M1495.824,997.544L1495.824,997.544c18.792-0.862,33.328-16.795,32.466-35.587l-3.157-96.602
					l-68.053,3.121l3.157,96.602C1461.099,983.87,1477.031,998.405,1495.824,997.544z"/>
				<path style="fill:#363E44;" d="M1483.63,943.287c54.59,3.226,56.618-87.923,56.618-87.923l-96.733-3.273
					C1443.515,852.091,1430.698,940.159,1483.63,943.287z"/>
				<circle style="fill:#363E44;" cx="1521.502" cy="828.959" r="34.712"/>
				<path style="fill:#84524D;" d="M1444.526,859.086c-1.544,30.333,18.132,14.379,43.948,15.693
					c25.815,1.314,47.994,19.398,49.538-10.935c1.544-30.333-18.132-47.657-43.948-48.971
					C1468.248,813.56,1446.069,828.753,1444.526,859.086z"/>
				<path style="fill:#363E44;" d="M1444.532,876.021c-1.045,0-1.973-0.745-2.167-1.811c-0.903-4.974-1.228-10.1-0.967-15.236
					c0.234-4.584,0.931-9.121,2.075-13.483c0.309-1.18,1.508-1.875,2.691-1.576c1.178,0.31,1.883,1.514,1.574,2.691
					c-1.067,4.074-1.718,8.309-1.937,12.592c-0.244,4.797,0.059,9.584,0.902,14.224c0.218,1.197-0.577,2.345-1.775,2.564
					C1444.795,876.01,1444.662,876.021,1444.532,876.021z"/>
				<path style="fill:#363E44;" d="M1536.582,880.364c-0.2,0-0.404-0.026-0.605-0.084c-1.171-0.334-1.851-1.555-1.517-2.726
					c1.269-4.455,2.035-9.106,2.275-13.821c0.222-4.362-0.009-8.725-0.687-12.964c-0.193-1.204,0.627-2.334,1.829-2.526
					c1.207-0.185,2.332,0.629,2.525,1.828c0.727,4.543,0.974,9.215,0.736,13.886c-0.256,5.049-1.076,10.029-2.436,14.807
					C1538.425,879.733,1537.542,880.364,1536.582,880.364z"/>
				<path style="fill:#363E44;" d="M1488.021,878.15c-0.469,0-0.943-0.148-1.344-0.456c-2.056-1.583-3.117-3.331-3.152-5.196
					c-0.033-1.729,0.814-2.907,1.495-3.854c0.494-0.687,0.92-1.281,1.096-2.123c0.161-0.779,0.081-1.643-0.241-2.564
					c-0.401-1.15,0.207-2.407,1.356-2.808c1.153-0.401,2.407,0.209,2.808,1.357c0.588,1.688,0.72,3.339,0.394,4.911
					c-0.365,1.761-1.213,2.941-1.833,3.802c-0.466,0.648-0.671,0.956-0.665,1.193c0.003,0.164,0.115,0.773,1.432,1.785
					c0.965,0.743,1.146,2.127,0.403,3.094C1489.336,877.855,1488.681,878.15,1488.021,878.15z"/>
				<path style="fill:#FFFFFF;" d="M1495.302,891.582c-0.445,0-0.841-0.019-1.179-0.045c-1.214-0.097-2.12-1.158-2.024-2.373
					c0.097-1.212,1.159-2.095,2.373-2.024c1.352,0.099,4.018,0.041,6.592-1.621c1.692-1.096,2.736-2.493,3.313-3.475
					c0.617-1.053,1.968-1.402,3.018-0.784c1.05,0.618,1.401,1.97,0.783,3.019c-1.173,1.996-2.806,3.706-4.72,4.944
					C1500.44,891.17,1497.363,891.582,1495.302,891.582z"/>
				<path style="fill:#363E44;" d="M1544.18,847.935c0,0-24.992,3.703-50.911-26.844c0,0-48.134,62.944-85.159-12.959
					c0,0,21.688,9.572,33.323-5.554c18.513-24.067,62.944-43.505,80.531,0.926L1544.18,847.935z"/>
				<g>
					<g>
						<path style="fill:#FFFFFF;" d="M1460.569,851.487l0,0.002l0.113-0.006c0.048,0.237,0.19,0.543,0.437,0.548
							c0.278,0.366,0.385,0.941,0.565,1.325c0.325,0.691,1.376,0.144,1.052-0.546c-0.218-0.465,1.344,0.483,2.034,0.788
							c2.202,0.977,4.439,1.853,6.708,2.661c1.058,0.377,2.117,0.762,3.188,1.101c0.858,0.272,3.685,1.323,3.92,1.199
							c2.793,2.829,4.282,5.444,4.282,5.444s-4.295,1.653-9.737,1.667c-0.012-0.074-0.025-0.146-0.034-0.221
							c-0.089-0.734-12.459-4.319-12.825-3.781c-5.128-3.642-7.938-8.559-7.938-8.559S1455.86,851.754,1460.569,851.487z"/>
						<path style="fill:#363E44;" d="M1469.702,852.673c3.702,1.321,6.69,3.666,8.879,5.881c-0.403,2.332-1.632,4.527-3.649,6.093
							c-0.519,0.403-1.067,0.743-1.633,1.027c-2.454,0.021-5.15-0.286-7.796-1.23c-1.914-0.683-3.627-1.646-5.148-2.717
							c-1.844-3.24-1.666-7.205,0.328-10.243C1463.447,851.338,1466.606,851.568,1469.702,852.673z"/>
					</g>
					<g>
						<path style="fill:#FFFFFF;" d="M1521.89,855.43l0,0.002l-0.112-0.018c-0.071,0.231-0.243,0.521-0.49,0.502
							c-0.313,0.336-0.478,0.897-0.696,1.261c-0.392,0.655-1.383,0.005-0.992-0.649c0.264-0.44-1.386,0.345-2.103,0.58
							c-2.289,0.75-4.603,1.397-6.941,1.972c-1.09,0.268-2.183,0.545-3.283,0.775c-0.881,0.185-3.8,0.945-4.02,0.799
							c-3.063,2.533-4.808,4.986-4.808,4.986s4.107,2.076,9.52,2.639c0.019-0.072,0.04-0.143,0.056-0.216
							c0.163-0.722,12.83-3.044,13.14-2.472c5.468-3.108,8.759-7.717,8.759-7.717S1526.549,856.169,1521.89,855.43z"/>
						<path style="fill:#363E44;" d="M1512.685,855.69c-3.816,0.942-7.025,2.974-9.426,4.959c0.167,2.36,1.169,4.668,3.018,6.429
							c0.476,0.453,0.987,0.847,1.521,1.186c2.439,0.268,5.152,0.234,7.881-0.439c1.973-0.487,3.774-1.273,5.394-2.185
							c2.161-3.038,2.383-7.001,0.705-10.224C1519.043,854.992,1515.876,854.903,1512.685,855.69z"/>
					</g>
				</g>
			</g>
		</g>
		<g>
			<g>
				<g>
					<path style="fill:#F7F1EB;" d="M574.264,1062.004l0.193,147.675c0.108,81.559,66.986,147.59,149.38,147.485l0,0
						c82.393-0.106,149.099-66.308,148.991-147.868l-0.193-147.676L574.264,1062.004z"/>
					<path style="fill:#363E44;" d="M723.645,1359.369c-83.392,0-151.283-67.105-151.392-149.689l-0.194-147.676
						c-0.001-0.583,0.23-1.145,0.644-1.559c0.413-0.413,0.973-0.648,1.558-0.648l298.372-0.383c0.001,0,0.002,0,0.003,0
						c1.216,0,2.204,0.986,2.205,2.203l0.193,147.677c0.053,40.038-15.648,77.698-44.209,106.047
						c-28.556,28.34-66.55,43.976-106.983,44.027C723.78,1359.369,723.707,1359.369,723.645,1359.369z M576.473,1064.206
						l0.19,145.471c0.106,80.146,66.026,145.283,146.983,145.283c0.063,0,0.125,0,0.188,0
						c39.265-0.049,76.158-15.231,103.883-42.749c27.721-27.511,42.958-64.058,42.907-102.911l-0.19-145.473L576.473,1064.206z"/>
				</g>
				<path style="fill:#363E44;" d="M722.607,1262.267c-58.374,0.002-144.163-5.891-144.184-22.248
					c-0.002-1.217,0.984-2.205,2.202-2.207c0.001,0,0.002,0,0.003,0c1.217,0,2.203,0.986,2.205,2.203
					c0.003,2.235,8.372,7.635,40.02,12.068c26.926,3.772,62.808,5.751,100.853,5.775c38.112-0.05,73.924-2.192,100.84-6.033
					c31.636-4.515,39.99-9.937,39.987-12.174c-0.002-1.217,0.984-2.205,2.202-2.207c0.001,0,0.002,0,0.003,0
					c1.216,0,2.203,0.986,2.205,2.203c0.003,2.545,0.014,10.294-43.773,16.543c-27.115,3.871-63.146,6.029-101.457,6.078
					C723.348,1262.267,722.974,1262.267,722.607,1262.267z"/>
				<path style="fill:#363E44;" d="M722.523,1197.532c-58.374,0.002-144.164-5.891-144.185-22.248
					c-0.002-1.216,0.984-2.205,2.201-2.207c0.001,0,0.002,0,0.003,0c1.216,0,2.203,0.986,2.205,2.203
					c0.003,2.235,8.371,7.635,40.02,12.068c26.925,3.774,62.8,5.826,100.853,5.775c38.112-0.05,73.924-2.192,100.839-6.033
					c31.637-4.515,39.991-9.937,39.988-12.174c-0.001-1.217,0.984-2.205,2.202-2.207c0.001,0,0.002,0,0.003,0
					c1.217,0,2.204,0.986,2.205,2.203c0.021,16.461-86.842,22.546-145.231,22.621
					C723.264,1197.532,722.89,1197.532,722.523,1197.532z"/>
			</g>
			<g>
				<ellipse style="fill:#FFFFFF;" cx="723.039" cy="748.254" rx="386.25" ry="382.339"/>
				<path style="fill:#D87355;" d="M723.027,1132.796c-213.962,0-388.166-172.172-388.443-384.043
					c-0.135-102.72,40.147-199.342,113.426-272.067c73.274-72.72,170.768-112.842,274.524-112.975c0.17,0,0.342,0,0.511,0
					c213.962,0,388.17,172.176,388.448,384.045c0.135,102.72-40.147,199.342-113.428,272.067
					c-73.274,72.72-170.768,112.842-274.523,112.973C723.373,1132.796,723.198,1132.796,723.027,1132.796z M723.046,368.12
					c-0.181,0-0.324,0-0.505,0c-102.587,0.131-198.981,39.799-271.423,111.694c-72.437,71.891-112.257,167.4-112.124,268.934
					c0.274,209.428,172.518,379.638,384.034,379.638c0.181,0,0.328,0,0.509,0c102.586-0.131,198.979-39.797,271.423-111.692
					c72.437-71.891,112.257-167.4,112.124-268.934C1106.809,538.335,934.561,368.12,723.046,368.12z"/>
			</g>
			<g>
				<g>
					<path style="fill:#D87355;" d="M721.662,1046.649c-7.883,0-15.806-0.301-23.794-0.915
						c-81.632-6.278-155.746-43.806-208.688-105.668c-52.219-61.016-77.533-138.54-71.277-218.288
						c13.004-165.749,159.747-290.115,327.12-277.25c81.632,6.279,155.745,43.806,208.688,105.668
						c52.219,61.016,77.533,138.54,71.277,218.288l-2.198-0.172l2.198,0.172C1012.606,926.323,878.926,1046.649,721.662,1046.649z
						 M721.232,448.023c-155.001,0-286.73,118.556-298.932,274.099c-6.164,78.573,18.778,154.955,70.23,215.075
						c52.176,60.966,125.22,97.951,205.676,104.139c7.863,0.605,15.694,0.902,23.453,0.902
						c155.002,0.009,286.731-118.556,298.932-274.1c6.164-78.573-18.778-154.955-70.23-215.075
						c-52.176-60.966-125.219-97.951-205.676-104.139C736.821,448.32,728.99,448.023,721.232,448.023z"/>
					<path style="fill:#EFBC73;" d="M738.883,522.855c-123.97-9.536-232.274,82.25-241.904,205.01
						c-9.63,122.76,83.061,230.007,207.03,239.543s232.272-82.25,241.902-205.01S862.852,532.391,738.883,522.855z M710.984,878.497
						c-74.383-5.722-129.996-70.07-124.218-143.726s70.759-128.727,145.142-123.006c74.381,5.722,129.996,70.07,124.218,143.726
						C850.348,829.147,785.365,884.219,710.984,878.497z"/>
					<ellipse style="fill:#D87355;" cx="721.445" cy="745.131" rx="60.516" ry="59.926"/>
				</g>
				<g>
					<polygon style="fill:#ff6900;" points="1060.046,488.851 865.891,647.439 846.954,624.705 1041.109,466.117 					"/>
					<polygon style="fill:#363E44;" points="842.431,659.324 716.388,750.454 830.708,645.252 					"/>
					<g>
						<polygon style="fill:#D87355;" points="1132.546,411.22 1059.417,470.953 1051.48,420.255 1124.609,360.522 						"/>
						<polygon style="fill:#D87355;" points="1138.065,417.846 1064.936,477.579 1113.689,494.938 1186.819,435.204 						"/>
					</g>
					<polygon style="fill:#D87355;" points="859.984,660.373 850.058,668.481 823.081,636.095 833.008,627.987 					"/>
					<polygon style="fill:#FFFFFF;" points="869.911,652.265 859.984,660.373 833.008,627.987 842.934,619.879 					"/>
				</g>
			</g>
			<g>
				<path style="fill:#363E44;" d="M671.832,1039.808c-0.854,0-1.665-0.497-2.025-1.331l-121.751-282.2
					c-0.483-1.12,0.032-2.416,1.151-2.898c1.115-0.489,2.415,0.03,2.897,1.15l121.751,282.2c0.483,1.12-0.032,2.416-1.151,2.898
					C672.42,1039.75,672.124,1039.808,671.832,1039.808z"/>
				<path style="fill:#363E44;" d="M775.004,1039.675c-0.29,0-0.583-0.056-0.867-0.179c-1.12-0.478-1.638-1.774-1.159-2.894
					l121.01-282.51c0.48-1.124,1.773-1.649,2.895-1.158c1.12,0.478,1.638,1.774,1.159,2.894l-121.01,282.51
					C776.674,1039.175,775.86,1039.675,775.004,1039.675z"/>
			</g>
		</g>
		<g>
			<g>
				<path style="fill:#FFFFFF;" d="M1428.01,571.161c-56.065,0-101.677-45.612-101.677-101.678
					c0-56.066,45.612-101.678,101.677-101.678c56.066,0,101.678,45.612,101.678,101.678
					C1529.688,525.549,1484.075,571.161,1428.01,571.161z M1428.01,372.215c-53.634,0-97.267,43.633-97.267,97.268
					c0,53.635,43.633,97.268,97.267,97.268c53.634,0,97.268-43.633,97.268-97.268
					C1525.278,415.849,1481.644,372.215,1428.01,372.215z"/>
				<path style="fill:#FFFFFF;" d="M1428.01,470.106c-31.638,0-52.174,12.112-52.174,31.528
					c9.867,18.742,29.523,31.528,52.174,31.528c22.652,0,42.308-12.786,52.175-31.528
					C1480.185,483.239,1457.607,470.106,1428.01,470.106z"/>
				<circle style="fill:#FFFFFF;" cx="1428.01" cy="428.095" r="26.907"/>
			</g>
			<g>
				<path style="fill:#FFFFFF;" d="M1267.976,765.937c-56.065,0-101.677-45.612-101.677-101.678
					c0-56.066,45.612-101.678,101.677-101.678c56.066,0,101.678,45.612,101.678,101.678
					C1369.654,720.325,1324.042,765.937,1267.976,765.937z M1267.976,566.991c-53.634,0-97.267,43.634-97.267,97.268
					c0,53.635,43.634,97.268,97.267,97.268c53.634,0,97.268-43.633,97.268-97.268
					C1365.245,610.624,1321.61,566.991,1267.976,566.991z"/>
				<path style="fill:#FFFFFF;" d="M1267.976,664.882c-31.638,0-52.174,12.112-52.174,31.528
					c9.867,18.742,29.523,31.528,52.174,31.528c22.652,0,42.308-12.786,52.175-31.528
					C1320.151,678.015,1297.573,664.882,1267.976,664.882z"/>
				<circle style="fill:#FFFFFF;" cx="1267.977" cy="622.871" r="26.907"/>
			</g>
			<g>
				<path style="fill:#FFFFFF;" d="M1588.136,748.204c-56.065,0-101.677-45.612-101.677-101.678
					c0-56.064,45.612-101.676,101.677-101.676c56.066,0,101.678,45.612,101.678,101.676
					C1689.814,702.591,1644.202,748.204,1588.136,748.204z M1588.136,549.26c-53.634,0-97.267,43.633-97.267,97.266
					c0,53.635,43.633,97.268,97.267,97.268c53.634,0,97.268-43.634,97.268-97.268C1685.404,592.893,1641.77,549.26,1588.136,549.26z
					"/>
				<path style="fill:#FFFFFF;" d="M1588.136,647.15c-31.638,0-52.174,12.112-52.174,31.528
					c9.867,18.742,29.523,31.528,52.174,31.528c22.652,0,42.308-12.786,52.175-31.528
					C1640.311,660.282,1617.733,647.15,1588.136,647.15z"/>
				<circle style="fill:#FFFFFF;" cx="1588.136" cy="605.138" r="26.907"/>
			</g>
		</g>
		<g>
			<path style="fill:#ff6900;" d="M1034.598,1857.335H338.434v-452.858h696.164V1857.335z M342.844,1852.926h687.345v-444.038
				H342.844V1852.926z"/>
			<g>
				<rect x="423.699" y="1504.883" style="fill:#D3BBA3;" width="278.388" height="238.402"/>
				<rect x="390.439" y="1471.623" style="fill:#FFFFFF;" width="278.388" height="238.402"/>
				<g>
					<path style="fill:#ff6900;" d="M982.593,1506.53H733.459c-1.218,0-2.205-0.986-2.205-2.205c0-1.219,0.987-2.205,2.205-2.205
						h249.134c1.218,0,2.205,0.986,2.205,2.205C984.798,1505.544,983.811,1506.53,982.593,1506.53z"/>
					<path style="fill:#ff6900;" d="M929.679,1557.592H733.459c-1.218,0-2.205-0.986-2.205-2.205s0.987-2.205,2.205-2.205h196.219
						c1.218,0,2.205,0.986,2.205,2.205S930.896,1557.592,929.679,1557.592z"/>
					<path style="fill:#ff6900;" d="M962.75,1603.844h-229.29c-1.218,0-2.205-0.986-2.205-2.205c0-1.219,0.987-2.205,2.205-2.205
						h229.29c1.218,0,2.205,0.986,2.205,2.205C964.955,1602.858,963.967,1603.844,962.75,1603.844z"/>
					<path style="fill:#ff6900;" d="M891.195,1652.5H733.459c-1.218,0-2.205-0.986-2.205-2.205c0-1.219,0.987-2.205,2.205-2.205
						h157.736c1.218,0,2.205,0.986,2.205,2.205C893.4,1651.514,892.413,1652.5,891.195,1652.5z"/>
				</g>
			</g>
			<g>
				<path style="fill:#EFBC73;" d="M496.851,1543.591c4.37-2.185,8.902-3.703,13.48-4.597l-1.735-24.789
					c-7.742,1.195-15.429,3.587-22.802,7.275c-17.908,8.956-30.84,23.955-37.563,41.3l23.83,7.016
					C476.824,1558.801,485.322,1549.356,496.851,1543.591z"/>
				<path style="fill:#EFBC73;" d="M470.695,1608.449c-3.054-8.601-3.732-17.603-2.307-26.194l-23.83-7.016
					c-2.983,14.456-1.879,29.844,3.914,44.324L470.695,1608.449z"/>
				<path style="fill:#D87355;" d="M592.467,1562.072l-22.223,11.114c8.786,24.747-2.081,52.818-26.156,64.858
					c-24.075,12.04-53.053,3.896-67.583-17.978l-22.223,11.114c20.727,34.044,64.588,47.118,100.865,28.975
					C591.423,1642.013,607.273,1599.078,592.467,1562.072z"/>
				<path style="fill:#EFBC73;" d="M523.29,1538.101c16.27,0.898,31.736,9.304,41.144,23.468l22.223-11.114
					c-14.165-23.266-39.133-36.735-65.103-37.142L523.29,1538.101z"/>
			</g>
		</g>
		<g>
			<g>
				<rect x="610.314" y="1920.688" style="fill:#E6D0BE;" width="97.368" height="236.755"/>
				<rect x="739.454" y="1868.164" style="fill:#E6D0BE;" width="97.368" height="289.28"/>
				<rect x="868.593" y="1802.693" style="fill:#E6D0BE;" width="97.368" height="354.751"/>
			</g>
			<path style="fill:#D87355;" d="M910.285,1813.993l-24.324-107.278l-95.769,54.115l24.511,10.85
				c-7.982,21.645-23.079,51.636-51.736,78.408c-57.642,53.85-127.697,55.01-144.156,54.849
				c11.799,4.762,94.322,36.462,178.064-8.358c50.445-26.998,76.646-68.546,88.778-93.492L910.285,1813.993z"/>
		</g>
		<g>
			<g>
				<path style="fill:#EFBC73;" d="M1997.849,690.448c-76.403,0-140.95-62.62-140.95-136.74c0-75.399,61.498-136.74,137.09-136.74
					c75.591,0,137.089,61.341,137.089,136.74C2131.077,630.384,2072.557,690.448,1997.849,690.448z M1993.988,421.378
					c-73.159,0-132.68,59.362-132.68,132.33c0,71.73,62.528,132.33,136.541,132.33c72.235,0,128.818-58.126,128.818-132.33
					C2126.667,480.74,2067.148,421.378,1993.988,421.378z"/>
				<path style="fill:#EFBC73;" d="M2057.834,661.619c-0.769,0-1.516-0.403-1.921-1.12c-0.6-1.059-0.227-2.405,0.833-3.004
					c16.322-9.235,26.952-22.436,37.89-39.415c0.659-1.021,2.025-1.316,3.048-0.659c1.024,0.659,1.319,2.024,0.66,3.049
					c-11.292,17.527-22.318,31.184-39.427,40.862C2058.575,661.527,2058.203,661.619,2057.834,661.619z"/>
				<path style="fill:#EFBC73;" d="M2115.611,550.19c-1.17,0-2.146-0.922-2.2-2.101c-2.963-63.712-55.42-113.617-119.422-113.617
					c-55.06,0-102.774,37.17-116.031,90.391c-0.295,1.18-1.494,1.884-2.672,1.606c-1.182-0.295-1.901-1.492-1.606-2.672
					c13.747-55.189,63.219-93.735,120.309-93.735c66.363,0,120.754,51.753,123.827,117.82c0.056,1.216-0.884,2.25-2.101,2.306
					C2115.681,550.19,2115.645,550.19,2115.611,550.19z"/>
				<ellipse style="fill:#EFBC73;" cx="1993.988" cy="553.707" rx="112.017" ry="111.727"/>
				<g>
					<path style="fill:#FFFFFF;" d="M2017.229,585.34c0-5.121-1.847-9.522-5.538-13.206c-3.693-3.682-9.75-6.961-18.172-9.839
						c-11.654-3.509-20.452-8.2-26.393-14.069c-5.943-5.869-8.913-13.693-8.913-23.476c0-9.494,2.726-17.232,8.178-23.217
						c5.451-5.984,12.965-9.581,22.542-10.789V471.67h13.673v19.161c9.692,1.381,17.205,5.51,22.542,12.385
						c5.336,6.876,8.005,16.097,8.005,27.662h-16.96c0-7.825-1.818-14.155-5.452-18.988c-3.635-4.833-8.683-7.25-15.144-7.25
						c-6.808,0-11.899,1.77-15.273,5.308c-3.375,3.539-5.062,8.387-5.062,14.543c0,5.582,1.744,10.098,5.235,13.551
						c3.49,3.452,9.792,6.732,18.907,9.839c11.826,3.797,20.595,8.531,26.306,14.198c5.712,5.668,8.567,13.365,8.567,23.088
						c0,9.897-2.972,17.766-8.913,23.606c-5.942,5.841-14.105,9.307-24.489,10.401v16.571h-13.586V619.26
						c-9.923-1.036-18.057-4.646-24.402-10.832c-6.347-6.185-9.404-15.262-9.173-27.231l0.173-0.432h16.441
						c0,8.862,2.236,15.177,6.707,18.945c4.47,3.769,9.965,5.653,16.485,5.653c7.441,0,13.253-1.769,17.437-5.308
						C2015.137,596.517,2017.229,591.612,2017.229,585.34z"/>
				</g>
			</g>
			<g>
				<path style="fill:#EFBC73;" d="M1872.945,969.719c-67.073,0-123.74-54.976-123.74-120.051
					c0-66.199,53.992-120.053,120.359-120.053c66.365,0,120.358,53.854,120.358,120.053
					C1989.921,916.987,1938.54,969.719,1872.945,969.719z M1869.563,734.025c-63.934,0-115.949,51.878-115.949,115.643
					c0,62.684,54.647,115.641,119.33,115.641c63.122,0,112.566-50.795,112.566-115.641
					C1985.511,785.903,1933.498,734.025,1869.563,734.025z"/>
				<path style="fill:#EFBC73;" d="M1925.49,944.467c-0.769,0-1.516-0.403-1.922-1.12c-0.599-1.059-0.226-2.405,0.834-3.004
					c14.245-8.059,23.533-19.594,33.095-34.435c0.661-1.021,2.024-1.316,3.048-0.659c1.024,0.661,1.319,2.024,0.66,3.049
					c-9.916,15.388-19.601,27.379-34.632,35.882C1926.231,944.375,1925.858,944.467,1925.49,944.467z"/>
				<path style="fill:#EFBC73;" d="M1976.1,846.859c-1.17,0-2.146-0.922-2.2-2.102c-2.589-55.663-48.419-99.264-104.336-99.264
					c-48.104,0-89.791,32.474-101.374,78.973c-0.295,1.18-1.499,1.888-2.672,1.606c-1.182-0.295-1.901-1.492-1.606-2.674
					c12.073-48.465,55.519-82.315,105.653-82.315c58.277,0,106.042,45.448,108.741,103.467c0.056,1.217-0.884,2.25-2.1,2.306
					C1976.17,846.859,1976.135,846.859,1976.1,846.859z"/>
				<ellipse style="fill:#EFBC73;" cx="1869.563" cy="849.667" rx="98.122" ry="97.868"/>
				<g>
					<path style="fill:#FFFFFF;" d="M1889.921,877.376c0-4.486-1.618-8.341-4.851-11.568c-3.235-3.225-8.541-6.098-15.918-8.619
						c-10.208-3.074-17.915-7.183-23.119-12.324c-5.206-5.141-7.807-11.995-7.807-20.564c0-8.317,2.388-15.095,7.163-20.337
						c4.775-5.241,11.357-8.392,19.746-9.451v-16.708h11.977v16.784c8.49,1.21,15.071,4.827,19.746,10.849
						c4.674,6.023,7.012,14.1,7.012,24.231h-14.857c0-6.854-1.592-12.399-4.776-16.633c-3.184-4.234-7.606-6.351-13.265-6.351
						c-5.964,0-10.423,1.55-13.379,4.65c-2.957,3.1-4.434,7.347-4.434,12.739c0,4.889,1.528,8.846,4.586,11.87
						c3.057,3.024,8.577,5.897,16.562,8.619c10.359,3.326,18.041,7.473,23.043,12.437c5.003,4.965,7.504,11.707,7.504,20.224
						c0,8.669-2.603,15.563-7.808,20.677c-5.205,5.116-12.355,8.152-21.451,9.11v14.516h-11.901v-14.44
						c-8.692-0.907-15.818-4.07-21.376-9.488c-5.56-5.418-8.238-13.369-8.035-23.853l0.152-0.378h14.402
						c0,7.763,1.958,13.295,5.875,16.595c3.915,3.302,8.729,4.952,14.44,4.952c6.519,0,11.609-1.55,15.274-4.65
						C1888.089,887.167,1889.921,882.87,1889.921,877.376z"/>
				</g>
			</g>
			<g>
				<path style="fill:#EFBC73;" d="M2024.254,1177.211c-51.45,0-94.917-42.178-94.917-92.103c0-50.786,41.422-92.105,92.336-92.105
					c50.915,0,92.338,41.319,92.338,92.105C2114.011,1136.756,2074.585,1177.211,2024.254,1177.211z M2021.673,997.413
					c-48.484,0-87.927,39.34-87.927,87.695c0,47.535,41.447,87.693,90.507,87.693c47.858,0,85.347-38.52,85.347-87.693
					C2109.601,1036.753,2070.157,997.413,2021.673,997.413z"/>
				<path style="fill:#EFBC73;" d="M2064.338,1157.949c-0.769,0-1.516-0.403-1.92-1.12c-0.6-1.059-0.227-2.405,0.832-3.004
					c10.775-6.096,17.813-14.842,25.065-26.098c0.66-1.021,2.026-1.316,3.048-0.659c1.024,0.661,1.319,2.024,0.66,3.049
					c-7.606,11.804-15.041,21.006-26.6,27.545C2065.079,1157.856,2064.706,1157.949,2064.338,1157.949z"/>
				<path style="fill:#EFBC73;" d="M2102.944,1083.489c-1.17,0-2.146-0.922-2.2-2.102c-1.963-42.182-36.694-75.224-79.07-75.224
					c-36.456,0-68.047,24.61-76.824,59.844c-0.295,1.182-1.5,1.884-2.672,1.608c-1.182-0.295-1.901-1.492-1.606-2.674
					c9.267-37.204,42.617-63.188,81.102-63.188c44.736,0,81.403,34.89,83.475,79.427c0.056,1.217-0.884,2.25-2.1,2.306
					C2103.014,1083.489,2102.978,1083.489,2102.944,1083.489z"/>
				<ellipse style="fill:#EFBC73;" cx="2021.674" cy="1085.108" rx="74.852" ry="74.658"/>
				<g>
					<path style="fill:#FFFFFF;" d="M2037.204,1106.246c0-3.422-1.234-6.363-3.701-8.824c-2.468-2.46-6.515-4.652-12.143-6.575
						c-7.787-2.345-13.666-5.479-17.636-9.401c-3.971-3.922-5.956-9.15-5.956-15.687c0-6.344,1.821-11.515,5.464-15.514
						c3.642-3.998,8.664-6.402,15.063-7.209v-12.746h9.136v12.804c6.476,0.923,11.497,3.682,15.063,8.276
						c3.565,4.595,5.349,10.756,5.349,18.484h-11.333c0-5.228-1.215-9.458-3.643-12.688c-2.429-3.23-5.802-4.845-10.119-4.845
						c-4.549,0-7.951,1.182-10.206,3.547c-2.255,2.365-3.383,5.604-3.383,9.718c0,3.73,1.166,6.748,3.498,9.055
						c2.332,2.307,6.543,4.499,12.634,6.575c7.902,2.537,13.762,5.701,17.578,9.487c3.817,3.787,5.725,8.931,5.725,15.428
						c0,6.613-1.986,11.872-5.956,15.774c-3.971,3.903-9.425,6.219-16.364,6.95v11.073h-9.078v-11.016
						c-6.631-0.692-12.066-3.104-16.306-7.238c-4.241-4.133-6.284-10.198-6.129-18.196l0.116-0.288h10.987
						c0,5.922,1.494,10.142,4.482,12.659c2.987,2.519,6.659,3.778,11.016,3.778c4.973,0,8.856-1.182,11.651-3.547
						C2035.806,1113.714,2037.204,1110.437,2037.204,1106.246z"/>
				</g>
			</g>
		</g>
	</g>
</g>
</svg>
