<?xml version="1.0" encoding="utf-8"?>
<!-- Generator: Adobe Illustrator 27.5.0, SVG Export Plug-In . SVG Version: 6.00 Build 0)  -->
<svg version="1.1" xmlns="http://www.w3.org/2000/svg" xmlns:xlink="http://www.w3.org/1999/xlink" x="0px" y="0px"
	 viewBox="0 0 2500 2500" style="enable-background:new 0 0 2500 2500;" xml:space="preserve">
-
<g id="Illustration">
	<g id="Project_planning_1_">
		<circle style="fill:transparent;" cx="1250" cy="1252.243" r="912.757"/>
		<g>
			<path style="fill:#84524D;" d="M1495.456,836.546c-0.14,0-0.277-0.002-0.417-0.002l-105.69-0.823
				c-14.043-0.109-27.201-5.681-37.049-15.692c-9.85-10.009-15.211-23.255-15.097-37.3l0.378-46.718
				c0.234-28.854,23.783-52.174,52.58-52.174c0.14,0,0.277,0.002,0.417,0.002l105.69,0.823c14.043,0.109,27.2,5.681,37.048,15.69
				c9.85,10.009,15.211,23.255,15.097,37.3l-0.378,46.718C1547.802,813.224,1524.252,836.544,1495.456,836.546z M1390.161,688.236
				c-26.389,0-47.966,21.367-48.181,47.809l-0.378,46.718c-0.105,12.87,4.809,25.01,13.834,34.181
				c9.023,9.171,21.079,14.277,33.947,14.378l105.69,0.823l0,0c0.127,0,0.256,0.002,0.382,0.002
				c26.389,0,47.966-21.369,48.181-47.811l0.378-46.718c0.105-12.87-4.809-25.01-13.832-34.181
				c-9.025-9.169-21.081-14.275-33.949-14.376l-105.69-0.823C1390.417,688.238,1390.288,688.236,1390.161,688.236z"/>
			
				<rect x="1223.631" y="697.528" transform="matrix(0.0078 -1 1 0.0078 426.5214 2443.7932)" style="fill:#D3BBA3;" width="442.151" height="618.882"/>
			<path style="fill:#F7F1EB;" d="M1443.355,1037.296c-0.479,0-0.956-0.155-1.353-0.466l-270.327-211.127
				c-0.957-0.748-1.127-2.131-0.379-3.087c0.747-0.96,2.129-1.125,3.088-0.38l268.987,210.081l269.495-206.068
				c0.967-0.737,2.348-0.554,3.082,0.41c0.739,0.964,0.554,2.346-0.41,3.082l-270.846,207.101
				C1444.296,1037.146,1443.825,1037.296,1443.355,1037.296z"/>
			
				<rect x="1421.506" y="986.556" transform="matrix(0.0078 -1 1 0.0078 403.1391 2466.6191)" style="fill:#F7F1EB;" width="46.024" height="87.217"/>
		</g>
		<g>
			<g>
				<g>
					<path style="fill:#D3BBA3;" d="M1399.461,1614.859c-1.216,0-2.199-0.984-2.199-2.199v-316.009c0-1.216,0.984-2.199,2.199-2.199
						s2.199,0.984,2.199,2.199v316.009C1401.661,1613.875,1400.677,1614.859,1399.461,1614.859z"/>
					<path style="fill:#D3BBA3;" d="M1201.684,1817.121H354.24c-1.215,0-2.199-0.984-2.199-2.199V567.115
						c0-1.216,0.985-2.199,2.199-2.199h235.486c1.215,0,2.199,0.984,2.199,2.199s-0.985,2.199-2.199,2.199H356.44v1243.408h845.244
						c1.215,0,2.199,0.984,2.199,2.199C1203.883,1816.138,1202.898,1817.121,1201.684,1817.121z"/>
					<path style="fill:#D3BBA3;" d="M1399.461,721.981c-1.216,0-2.199-0.984-2.199-2.199V569.315h-248.728
						c-1.215,0-2.199-0.984-2.199-2.199s0.985-2.199,2.199-2.199h250.927c1.216,0,2.199,0.984,2.199,2.199v152.666
						C1401.661,720.997,1400.677,721.981,1399.461,721.981z"/>
				</g>
				<g>
					
						<rect x="460.664" y="605.284" transform="matrix(-1 -1.224647e-16 1.224647e-16 -1 1753.7025 2330.6489)" style="fill:#FFFFFF;" width="832.374" height="1120.082"/>
					<path style="fill:#F7F1EB;" d="M980.074,501.284L980.074,501.284c0-67.675-54.861-122.536-122.536-122.536
						c-67.676,0-122.537,54.862-122.537,122.536l0,0H600.636v161.481h513.804V501.284H980.074z M767.247,501.284
						c0-49.866,40.424-90.29,90.29-90.29c49.865,0,90.29,40.424,90.29,90.29l0,0H767.247L767.247,501.284z"/>
					<path style="fill:#D3BBA3;" d="M1133.753,645.65H619.95c-1.215,0-2.199-0.984-2.199-2.199V481.97
						c0-1.216,0.985-2.199,2.199-2.199h132.185c1.177-67.769,56.671-122.536,124.717-122.536s123.54,54.766,124.717,122.536h132.185
						c1.215,0,2.2,0.984,2.2,2.199v161.481C1135.953,644.666,1134.968,645.65,1133.753,645.65z M622.149,641.251h509.405V484.169
						H999.388c-1.215,0-2.199-0.984-2.199-2.199c0-66.354-53.983-120.336-120.337-120.336S756.514,415.616,756.514,481.97
						c0,1.216-0.985,2.199-2.199,2.199H622.149V641.251z M1001.588,481.97h0.021H1001.588z M967.141,484.169h-180.58
						c-1.215,0-2.199-0.984-2.199-2.199c0-50.999,41.49-92.489,92.489-92.489s92.489,41.49,92.489,92.489
						C969.341,483.185,968.356,484.169,967.141,484.169z M788.788,479.77h176.127c-1.172-47.56-40.225-85.891-88.064-85.891
						C829.013,393.879,789.959,432.21,788.788,479.77z"/>
				</g>
			</g>
			<g>
				<path style="fill:#9E9569;" d="M1159.344,952.077h-598.06c-1.215,0-2.199-0.984-2.199-2.199V794.061
					c0-1.216,0.985-2.199,2.199-2.199h598.06c1.215,0,2.199,0.984,2.199,2.199v155.817
					C1161.543,951.094,1160.559,952.077,1159.344,952.077z M563.483,947.679h593.661V796.26H563.483V947.679z"/>
			</g>
			<g>
				<g>
					<rect x="752.263" y="1444.612" style="fill:#F2E6DC;" width="271.079" height="16.646"/>
					<rect x="794.331" y="1486.198" style="fill:#F2E6DC;" width="333.26" height="16.646"/>
					<rect x="752.263" y="1527.783" style="fill:#F2E6DC;" width="320.647" height="16.646"/>
				</g>
				<g>
					<rect x="824.001" y="1261.493" style="fill:#F2E6DC;" width="335.342" height="16.646"/>
					<rect x="743.193" y="1303.078" style="fill:#F2E6DC;" width="320.647" height="16.646"/>
					<rect x="743.193" y="1344.664" style="fill:#F2E6DC;" width="376.517" height="16.646"/>
				</g>
				<g>
					<rect x="825.191" y="1089.463" style="fill:#F2E6DC;" width="294.519" height="16.646"/>
					<rect x="744.382" y="1131.048" style="fill:#F2E6DC;" width="319.457" height="16.646"/>
					<rect x="744.382" y="1172.634" style="fill:#F2E6DC;" width="414.962" height="16.646"/>
				</g>
			</g>
			<g>
				<g>
					<path style="fill:#F2E6DC;" d="M700.93,1563.978H566.353c-1.215,0-2.199-0.984-2.199-2.199v-134.516
						c0-1.216,0.985-2.199,2.199-2.199H700.93c1.215,0,2.199,0.984,2.199,2.199v134.516
						C703.129,1562.995,702.144,1563.978,700.93,1563.978z M568.552,1559.579H698.73v-130.118H568.552V1559.579z"/>
					<polygon style="fill:#D87355;" points="626.422,1541.443 584.289,1503.137 597.305,1487.093 624.02,1508.441 665.939,1447.599 
						682.994,1459.338 					"/>
				</g>
				<g>
					<path style="fill:#F2E6DC;" d="M700.93,1380.858H566.353c-1.215,0-2.199-0.984-2.199-2.199v-134.514
						c0-1.216,0.985-2.199,2.199-2.199H700.93c1.215,0,2.199,0.984,2.199,2.199v134.514
						C703.129,1379.874,702.144,1380.858,700.93,1380.858z M568.552,1376.459H698.73v-130.115H568.552V1376.459z"/>
					<polygon style="fill:#D87355;" points="626.422,1358.324 584.289,1320.017 597.305,1303.973 624.02,1325.321 665.939,1264.479 
						682.994,1276.218 					"/>
				</g>
				<g>
					<path style="fill:#F2E6DC;" d="M700.93,1208.829H566.353c-1.215,0-2.199-0.984-2.199-2.199v-134.516
						c0-1.216,0.985-2.199,2.199-2.199H700.93c1.215,0,2.199,0.984,2.199,2.199v134.516
						C703.129,1207.845,702.144,1208.829,700.93,1208.829z M568.552,1204.43H698.73v-130.118H568.552V1204.43z"/>
					<polygon style="fill:#D87355;" points="626.422,1186.294 584.289,1147.987 597.305,1131.943 624.02,1153.291 665.939,1092.449 
						682.994,1104.188 					"/>
				</g>
			</g>
		</g>
		<g>
			<path style="fill:#E6D0BE;" d="M1016.048,2132.348H361.551c-1.215,0-2.199-0.984-2.199-2.199v-168.418
				c0-1.216,0.985-2.199,2.199-2.199h654.497c1.215,0,2.199,0.984,2.199,2.199v168.418
				C1018.247,2131.365,1017.263,2132.348,1016.048,2132.348z M363.75,2127.95h650.099v-164.02H363.75V2127.95z"/>
			<g>
				<path style="fill:#ff6900;" d="M935.141,1906.311c-27.912-8.46-31.216-49.71-54.499-49.123
					c-57.648,1.455-83.822,181.391-127.542,179.015c-36.092-1.962-42.001-125.87-83.797-129.892
					c-44.612-4.293-76.069,133.199-124.25,129.892c-42.308-2.904-40.62-110.465-115.582-146.474
					c-12.594-6.05-25.791-9.323-39.026-10.621v216.221h596.707v-203.572C964.633,1907.228,947.873,1910.17,935.141,1906.311z"/>
			</g>
		</g>
		<g>
			<g>
				<polygon style="fill:#EFBC73;" points="1861.726,1376.258 1789.278,1376.258 1825.502,1212.25 				"/>
				<polygon style="fill:#ff6900;" points="1934.174,1376.258 1861.726,1376.258 1897.95,1259.81 				"/>
				<polygon style="fill:#FFFFFF;" points="2006.622,1376.258 1934.174,1376.258 1970.398,1163.336 				"/>
				<polygon style="fill:#D3BBA3;" points="2079.07,1376.258 2006.622,1376.258 2042.846,1269.797 				"/>
			</g>
			<path style="fill:#E6D0BE;" d="M2092.655,1397.345h-323.378c-1.216,0-2.199-0.984-2.199-2.199v-135.335
				c0-1.216,0.984-2.199,2.199-2.199s2.2,0.984,2.2,2.199v133.135h321.179c1.216,0,2.199,0.984,2.199,2.199
				S2093.87,1397.345,2092.655,1397.345z"/>
		</g>
		<g>
			<g>
				<g>
					<g>
						<path style="fill:#FFFFFF;" d="M2162.756,2098.54v-67l-169.859-397.396c-14-37.251-47.012-64.01-86.345-70.056
							c-93.491-14.37-276.584-32.501-468.014,4.045c-34.782,6.64-64.734,28.595-81.613,59.724l-112.882,208.177l-38.241,262.506
							H2162.756z"/>
						<path style="fill:#363E44;" d="M1778.469,1829.229c-0.451,0-0.906-0.137-1.297-0.425l-57.629-42.218
							c-0.967-0.707-1.188-2.056-0.503-3.037l113.45-161.902c0.7-0.992,2.068-1.235,3.065-0.539
							c0.994,0.698,1.235,2.068,0.539,3.065l-112.215,160.136l55.892,40.947c0.979,0.717,1.192,2.094,0.475,3.074
							C1779.814,1828.917,1779.146,1829.229,1778.469,1829.229z"/>
						<path style="fill:#363E44;" d="M1971.004,1953.414c-0.481,0-0.964-0.157-1.368-0.479c-0.952-0.758-1.106-2.141-0.35-3.091
							l52.008-65.22c0.76-0.949,2.144-1.102,3.091-0.35c0.952,0.758,1.106,2.141,0.35,3.091l-52.008,65.22
							C1972.291,1953.131,1971.65,1953.414,1971.004,1953.414z"/>
					</g>
				</g>
				<g>
					<polygon style="fill:#363E44;" points="1673.803,1574.642 1599.246,1574.642 1635.028,1640.307 					"/>
					<polygon style="fill:#363E44;" points="1622.726,1608.69 1635.406,1608.69 1648.084,1608.69 1676.095,1964.319 
						1635.406,2005.523 1594.716,1964.319 					"/>
				</g>
				<g>
					<path style="fill:#BC8271;" d="M1293.513,1816.848l92.771,212.617c19.618,44.96,0.501,97.405-43.448,119.194l-7.983,3.958
						c-61.415,30.448-133.359-14.565-132.836-83.111l1.796-235.21L1293.513,1816.848z"/>
					<polygon style="fill:#EFBC73;" points="1256.352,1975.183 1521.464,1975.183 1401.588,1612.659 1136.476,1612.659 					"/>
					<g>
						<path style="fill:#BC8271;" d="M1459.362,1789.667l-16.392-49.573l248.132,161.549l58.382-85.113l202.627,149.328
							l-141.461,161.068c-40.956,46.633-113.371,47.262-155.131,1.348l-155.954-171.466c-13.083-14.385-31.114-23.325-50.492-24.943
							c-30.29-2.529-73.263-7.849-75.44-17.776c-3.378-15.405,76.823-19.276,76.823-19.276s-95.68-1.096-95.863-17.264
							c-0.183-16.167,86.463-19.178,86.463-19.178s-94.513-3.7-95.413-17.861c-0.9-14.161,89.544-18.259,89.544-18.259
							s-84.087-3.187-83.95-21.914C1351.373,1781.61,1459.362,1789.667,1459.362,1789.667z"/>
						<path style="fill:#363E44;" d="M1754.456,1953.414c-0.483,0-0.969-0.159-1.377-0.485l-61.7-49.596
							c-0.945-0.76-1.095-2.146-0.335-3.093c0.76-0.941,2.141-1.098,3.093-0.335l61.699,49.596c0.945,0.76,1.096,2.146,0.335,3.093
							C1755.738,1953.133,1755.1,1953.414,1754.456,1953.414z"/>
					</g>
					<g>
						<path style="fill:#BC8271;" d="M1202.368,1839.387c-19.855,5.604-25.421,15.667-23.031,25.468
							c2.389,9.802,11.829,15.629,31.684,10.026c19.855-5.604,42.607-20.517,40.218-30.319
							C1248.848,1834.761,1222.223,1833.783,1202.368,1839.387z"/>
						<path style="fill:#BC8271;" d="M1198.455,1804.266c-23.013,6.495-29.463,18.158-26.694,29.518
							c2.769,11.36,13.71,18.115,36.723,11.62c23.012-6.495,49.382-23.78,46.613-35.14
							C1252.328,1798.904,1221.468,1797.771,1198.455,1804.266z"/>
						<path style="fill:#BC8271;" d="M1188.509,1782.541c-19.855,5.604-29.295-0.224-31.684-10.026
							c-2.389-9.801,3.176-19.865,23.032-25.468c19.855-5.604,46.481-4.626,48.87,5.176
							C1231.116,1762.023,1208.365,1776.937,1188.509,1782.541z"/>
						<path style="fill:#BC8271;" d="M1201.122,1815.206c-23.012,6.495-33.953-0.26-36.723-11.62
							c-2.769-11.36,3.682-23.023,26.694-29.518c23.013-6.495,53.872-5.362,56.641,5.998
							C1250.504,1791.426,1224.135,1808.711,1201.122,1815.206z"/>
					</g>
				</g>
				<path style="fill:#363E44;" d="M1702.158,1625.167c-0.462,0-0.917-0.146-1.295-0.423l-27.243-19.866
					c-0.982-0.715-1.198-2.09-0.481-3.071c0.713-0.982,2.09-1.198,3.071-0.481l25.39,18.512l22.568-33.848
					c0.672-1.012,2.034-1.282,3.05-0.61c1.012,0.674,1.284,2.038,0.61,3.05l-23.839,35.758c-0.333,0.498-0.855,0.84-1.443,0.945
					C1702.416,1625.156,1702.287,1625.167,1702.158,1625.167z"/>
				<path style="fill:#363E44;" d="M1574.45,1615.519c-0.81,0-1.583-0.449-1.967-1.216l-16.459-32.92
					c-0.543-1.087-0.103-2.408,0.984-2.951c1.089-0.541,2.406-0.103,2.951,0.984l15.544,31.092l27.059-11.143
					c1.128-0.455,2.408,0.075,2.872,1.196c0.462,1.123-0.073,2.41-1.196,2.872l-28.949,11.921
					C1575.015,1615.465,1574.731,1615.519,1574.45,1615.519z"/>
			</g>
			<g>
				<path style="fill:#BC8271;" d="M1599.598,1575.219l-13.795-22.349l-34.328-138.493c0.114-20.417,52.535-30.876,72.954-30.763
					c20.419,0.114,24.242-13.939,24.128,6.479l42.05,162.776l-17.174,22.349H1599.598z"/>
				<g>
					<path style="fill:#BC8271;" d="M1533.409,1524.088c24.65,15.202,83.843-41.96,83.843-41.96l37.315-74.729
						c-2.644-40.656-37.745-71.471-78.401-68.828c-40.656,2.644-71.471,37.745-68.827,78.401
						C1507.339,1416.972,1508.302,1508.605,1533.409,1524.088z"/>
					<path style="fill:#BC8271;" d="M1517.057,1435.779c0,0-19.241,22.975-17.771,28.615c1.754,6.732,25.025,9.395,25.025,9.395
						S1516.511,1435.867,1517.057,1435.779z"/>
					<g>
						<path style="fill:#FFFFFF;" d="M1577.793,1414.387c0,0-11.92-2.851-24.499,0.478c-2.676,0.708,8.04,20.789,10.259,18.904
							C1573.313,1425.481,1577.793,1414.387,1577.793,1414.387z"/>
						<g>
							<defs>
								<path id="SVGID_2_" d="M1577.793,1414.387c0,0-17.532-4.194-32.508,3.529c-14.977,7.723-21.728,24.437-21.728,24.437
									s17.532,4.194,32.509-3.529C1571.043,1431.101,1577.793,1414.387,1577.793,1414.387z"/>
							</defs>
							<clipPath id="SVGID_00000119078337411008383010000008976126717333746822_">
								<use xlink:href="#SVGID_2_"  style="overflow:visible;"/>
							</clipPath>
							<path style="clip-path:url(#SVGID_00000119078337411008383010000008976126717333746822_);fill:#363E44;" d="
								M1552.616,1414.455c-10.521-6.118-24.01-2.549-30.128,7.972c-6.118,10.521-2.549,24.01,7.972,30.128
								c10.521,6.118,24.01,2.549,30.128-7.972C1566.707,1434.062,1563.137,1420.573,1552.616,1414.455z"/>
						</g>
					</g>
					<g>
						<path style="fill:#363E44;" d="M1659.445,1326.093c0,0,40.168,75.514-9.384,109.556l-15.352-10.049l-30.64,17.883
							l8.044-40.543c1.443-15.443-11.602-28.347-27.028-26.737l-67.341,7.031l-1.641-36.219
							C1558.663,1315.584,1605.701,1305.132,1659.445,1326.093z"/>
						<path style="fill:#363E44;" d="M1583.656,1322.437c7.688,1.105,14.815-4.231,15.92-11.919
							c1.105-7.688-3.653-18.839-11.341-19.944c-7.688-1.105-15.394,8.255-16.499,15.943
							C1570.632,1314.204,1575.968,1321.332,1583.656,1322.437z"/>
						<path style="fill:#363E44;" d="M1573.501,1327.317c7.256-2.77,10.893-10.897,8.123-18.153
							c-2.77-7.256-12.347-14.691-19.603-11.921c-7.256,2.77-9.443,14.695-6.673,21.951
							C1558.118,1326.45,1566.245,1330.087,1573.501,1327.317z"/>
						<path style="fill:#363E44;" d="M1551.796,1338.016c9.029-5.411,11.962-17.117,6.551-26.146
							c-5.411-9.029-19.95-16.688-28.979-11.276c-9.029,5.411-9.13,21.843-3.719,30.872
							C1531.061,1340.495,1542.767,1343.427,1551.796,1338.016z"/>
						<path style="fill:#363E44;" d="M1605.97,1322.037c7.648,1.352,14.944-3.751,16.297-11.399
							c1.353-7.648-3.043-18.947-10.691-20.3c-7.648-1.352-15.652,7.754-17.005,15.402
							C1593.218,1313.388,1598.322,1320.684,1605.97,1322.037z"/>
						<path style="fill:#363E44;" d="M1534.66,1343.086c3.068-8.853-1.622-18.517-10.475-21.584
							c-8.853-3.068-23.15,0.017-26.218,8.87c-3.068,8.853,6.256,20.122,15.109,23.19
							C1521.929,1356.629,1531.593,1351.939,1534.66,1343.086z"/>
						<path style="fill:#363E44;" d="M1624.053,1325.601c9.057,3.408,19.161-1.171,22.569-10.228
							c3.408-9.057,0.612-23.901-8.444-27.309c-9.056-3.408-20.945,5.911-24.352,14.968S1614.997,1322.194,1624.053,1325.601z"/>
						<path style="fill:#363E44;" d="M1641.672,1326.629c5.158,5.517,13.813,5.808,19.33,0.65c5.517-5.158,8.696-16.512,3.537-22.03
							c-5.159-5.517-16.7-3.108-22.218,2.05C1636.804,1312.457,1636.513,1321.111,1641.672,1326.629z"/>
						<path style="fill:#363E44;" d="M1532.262,1364.507c0.164-11.421-8.962-20.813-20.383-20.976
							c-11.421-0.164-26.79,8.876-26.953,20.297c-0.164,11.421,14.939,20.898,26.36,21.062
							C1522.707,1385.053,1532.098,1375.928,1532.262,1364.507z"/>
					</g>
					<path style="fill:#BC8271;" d="M1668.866,1406.762c6.326,12.548,1.283,27.849-11.265,34.175
						c-12.548,6.327-27.849,1.283-34.175-11.265c-6.326-12.548-1.283-27.849,11.265-34.175
						C1647.239,1389.171,1662.54,1394.214,1668.866,1406.762z"/>
					<path style="fill:#363E44;" d="M1511.963,1471.489l11.853,60.799c1.65,8.465,10.017,13.831,18.404,11.821
						c2.11-0.505,4.387-1.076,6.799-1.717c41.759-11.086,74.846-42.955,87.438-84.284v0c4.219-13.845-0.548-28.858-11.981-37.733
						l-3.768-2.925l-11.514,7.536c0,0-6.427,34.136-18.787,37.617C1578.047,1466.083,1553.984,1457.811,1511.963,1471.489z"/>
					<path style="fill:#BC8271;" d="M1542.685,1487.568c-2.101,0-4.212-0.524-6.124-1.585c-1.061-0.589-1.445-1.927-0.855-2.99
						c0.589-1.063,1.924-1.45,2.99-0.855c2.814,1.559,6.289,1.334,8.845-0.569c2.464-1.839,3.692-4.996,3.127-8.044
						c-0.221-1.194,0.569-2.341,1.763-2.562c1.188-0.223,2.343,0.569,2.563,1.763c0.866,4.68-1.027,9.536-4.824,12.37
						C1547.971,1486.735,1545.336,1487.568,1542.685,1487.568z"/>
					<path style="fill:#BC8271;" d="M1603.427,1378.933c-0.584,0-1.168-0.232-1.602-0.692c-0.831-0.885-0.79-2.277,0.094-3.11
						l27.181-25.588c0.883-0.831,2.275-0.792,3.11,0.095c0.831,0.885,0.79,2.277-0.095,3.11l-27.181,25.588
						C1604.509,1378.736,1603.968,1378.933,1603.427,1378.933z"/>
				</g>
			</g>
		</g>
		<g>
			<g>
				<g>
					<rect x="1623.761" y="356.677" style="fill:#FFFFFF;" width="534.93" height="403.514"/>
					<path style="fill:#D3BBA3;" d="M2158.691,762.391h-534.93c-1.216,0-2.199-0.984-2.199-2.199V356.676
						c0-1.216,0.984-2.199,2.199-2.199h534.93c1.216,0,2.199,0.984,2.199,2.199v403.515
						C2160.89,761.407,2159.906,762.391,2158.691,762.391z M1625.96,757.992h530.531V358.876H1625.96V757.992z"/>
				</g>
				<g>
					<rect x="2071.42" y="450.039" style="fill:#D87355;" width="59.787" height="59.787"/>
					<path style="fill:#E6D0BE;" d="M2060.626,512.025h-59.788c-1.216,0-2.199-0.984-2.199-2.199V450.04
						c0-1.216,0.984-2.199,2.199-2.199h59.788c1.216,0,2.199,0.984,2.199,2.199v59.786
						C2062.825,511.041,2061.841,512.025,2060.626,512.025z M2003.037,507.626h55.389v-55.387h-55.389V507.626z"/>
					<path style="fill:#E6D0BE;" d="M1990.043,512.025h-59.788c-1.216,0-2.199-0.984-2.199-2.199V450.04
						c0-1.216,0.984-2.199,2.199-2.199h59.788c1.216,0,2.199,0.984,2.199,2.199v59.786
						C1992.242,511.041,1991.258,512.025,1990.043,512.025z M1932.454,507.626h55.389v-55.387h-55.389V507.626z"/>
					<path style="fill:#E6D0BE;" d="M1919.462,512.025h-59.788c-1.216,0-2.199-0.984-2.199-2.199V450.04
						c0-1.216,0.984-2.199,2.199-2.199h59.788c1.216,0,2.199,0.984,2.199,2.199v59.786
						C1921.661,511.041,1920.677,512.025,1919.462,512.025z M1861.873,507.626h55.389v-55.387h-55.389V507.626z"/>
					<path style="fill:#E6D0BE;" d="M1848.879,512.025h-59.788c-1.216,0-2.199-0.984-2.199-2.199V450.04
						c0-1.216,0.984-2.199,2.199-2.199h59.788c1.216,0,2.199,0.984,2.199,2.199v59.786
						C1851.078,511.041,1850.094,512.025,1848.879,512.025z M1791.29,507.626h55.389v-55.387h-55.389V507.626z"/>
					<path style="fill:#E6D0BE;" d="M1778.295,512.025h-59.786c-1.216,0-2.199-0.984-2.199-2.199V450.04
						c0-1.216,0.984-2.199,2.199-2.199h59.786c1.216,0,2.199,0.984,2.199,2.199v59.786
						C1780.495,511.041,1779.511,512.025,1778.295,512.025z M1720.709,507.626h55.387v-55.387h-55.387V507.626z"/>
					<path style="fill:#E6D0BE;" d="M1707.759,512.025h-59.788c-1.216,0-2.199-0.984-2.199-2.199V450.04
						c0-1.216,0.984-2.199,2.199-2.199h59.788c1.216,0,2.199,0.984,2.199,2.199v59.786
						C1709.959,511.041,1708.975,512.025,1707.759,512.025z M1650.171,507.626h55.389v-55.387h-55.389V507.626z"/>
					<path style="fill:#E6D0BE;" d="M2131.207,582.125h-59.786c-1.216,0-2.199-0.984-2.199-2.2V520.14
						c0-1.216,0.984-2.199,2.199-2.199h59.786c1.216,0,2.199,0.984,2.199,2.199v59.786
						C2133.406,581.141,2132.422,582.125,2131.207,582.125z M2073.62,577.726h55.387v-55.387h-55.387V577.726z"/>
					<path style="fill:#E6D0BE;" d="M2060.626,582.125h-59.788c-1.216,0-2.199-0.984-2.199-2.2V520.14
						c0-1.216,0.984-2.199,2.199-2.199h59.788c1.216,0,2.199,0.984,2.199,2.199v59.786
						C2062.825,581.141,2061.841,582.125,2060.626,582.125z M2003.037,577.726h55.389v-55.387h-55.389V577.726z"/>
					<path style="fill:#E6D0BE;" d="M1990.043,582.125h-59.788c-1.216,0-2.199-0.984-2.199-2.2V520.14
						c0-1.216,0.984-2.199,2.199-2.199h59.788c1.216,0,2.199,0.984,2.199,2.199v59.786
						C1992.242,581.141,1991.258,582.125,1990.043,582.125z M1932.454,577.726h55.389v-55.387h-55.389V577.726z"/>
					<path style="fill:#E6D0BE;" d="M1919.462,582.125h-59.788c-1.216,0-2.199-0.984-2.199-2.2V520.14
						c0-1.216,0.984-2.199,2.199-2.199h59.788c1.216,0,2.199,0.984,2.199,2.199v59.786
						C1921.661,581.141,1920.677,582.125,1919.462,582.125z M1861.873,577.726h55.389v-55.387h-55.389V577.726z"/>
					<rect x="1789.091" y="520.139" style="fill:#D87355;" width="59.787" height="59.787"/>
					<path style="fill:#E6D0BE;" d="M1778.295,582.125h-59.786c-1.216,0-2.199-0.984-2.199-2.2V520.14
						c0-1.216,0.984-2.199,2.199-2.199h59.786c1.216,0,2.199,0.984,2.199,2.199v59.786
						C1780.495,581.141,1779.511,582.125,1778.295,582.125z M1720.709,577.726h55.387v-55.387h-55.387V577.726z"/>
					<rect x="1647.927" y="520.139" style="fill:#EFBC73;" width="59.787" height="59.787"/>
					<path style="fill:#E6D0BE;" d="M2131.207,652.227h-59.786c-1.216,0-2.199-0.984-2.199-2.199v-59.788
						c0-1.216,0.984-2.199,2.199-2.199h59.786c1.216,0,2.199,0.984,2.199,2.199v59.788
						C2133.406,651.243,2132.422,652.227,2131.207,652.227z M2073.62,647.828h55.387v-55.389h-55.387V647.828z"/>
					<path style="fill:#E6D0BE;" d="M2060.626,652.227h-59.788c-1.216,0-2.199-0.984-2.199-2.199v-59.788
						c0-1.216,0.984-2.199,2.199-2.199h59.788c1.216,0,2.199,0.984,2.199,2.199v59.788
						C2062.825,651.243,2061.841,652.227,2060.626,652.227z M2003.037,647.828h55.389v-55.389h-55.389V647.828z"/>
					<rect x="1930.256" y="590.239" style="fill:#D87355;" width="59.787" height="59.787"/>
					<path style="fill:#E6D0BE;" d="M1919.462,652.227h-59.788c-1.216,0-2.199-0.984-2.199-2.199v-59.788
						c0-1.216,0.984-2.199,2.199-2.199h59.788c1.216,0,2.199,0.984,2.199,2.199v59.788
						C1921.661,651.243,1920.677,652.227,1919.462,652.227z M1861.873,647.828h55.389v-55.389h-55.389V647.828z"/>
					<path style="fill:#E6D0BE;" d="M1848.879,652.227h-59.788c-1.216,0-2.199-0.984-2.199-2.199v-59.788
						c0-1.216,0.984-2.199,2.199-2.199h59.788c1.216,0,2.199,0.984,2.199,2.199v59.788
						C1851.078,651.243,1850.094,652.227,1848.879,652.227z M1791.29,647.828h55.389v-55.389h-55.389V647.828z"/>
					<path style="fill:#E6D0BE;" d="M1778.295,652.227h-59.786c-1.216,0-2.199-0.984-2.199-2.199v-59.788
						c0-1.216,0.984-2.199,2.199-2.199h59.786c1.216,0,2.199,0.984,2.199,2.199v59.788
						C1780.495,651.243,1779.511,652.227,1778.295,652.227z M1720.709,647.828h55.387v-55.389h-55.387V647.828z"/>
					<path style="fill:#E6D0BE;" d="M1707.714,652.227h-59.788c-1.216,0-2.199-0.984-2.199-2.199v-59.788
						c0-1.216,0.984-2.199,2.199-2.199h59.788c1.216,0,2.199,0.984,2.199,2.199v59.788
						C1709.914,651.243,1708.93,652.227,1707.714,652.227z M1650.126,647.828h55.389v-55.389h-55.389V647.828z"/>
					<rect x="2071.42" y="660.339" style="fill:#EFBC73;" width="59.787" height="59.787"/>
					<path style="fill:#E6D0BE;" d="M2060.626,722.327h-59.788c-1.216,0-2.199-0.984-2.199-2.199v-59.788
						c0-1.216,0.984-2.2,2.199-2.2h59.788c1.216,0,2.199,0.984,2.199,2.2v59.788
						C2062.825,721.343,2061.841,722.327,2060.626,722.327z M2003.037,717.928h55.389v-55.389h-55.389V717.928z"/>
					<path style="fill:#E6D0BE;" d="M1990.043,722.327h-59.788c-1.216,0-2.199-0.984-2.199-2.199v-59.788
						c0-1.216,0.984-2.2,2.199-2.2h59.788c1.216,0,2.199,0.984,2.199,2.2v59.788
						C1992.242,721.343,1991.258,722.327,1990.043,722.327z M1932.454,717.928h55.389v-55.389h-55.389V717.928z"/>
					<path style="fill:#E6D0BE;" d="M1919.462,722.327h-59.788c-1.216,0-2.199-0.984-2.199-2.199v-59.788
						c0-1.216,0.984-2.2,2.199-2.2h59.788c1.216,0,2.199,0.984,2.199,2.2v59.788
						C1921.661,721.343,1920.677,722.327,1919.462,722.327z M1861.873,717.928h55.389v-55.389h-55.389V717.928z"/>
					<path style="fill:#E6D0BE;" d="M1848.879,722.327h-59.788c-1.216,0-2.199-0.984-2.199-2.199v-59.788
						c0-1.216,0.984-2.2,2.199-2.2h59.788c1.216,0,2.199,0.984,2.199,2.2v59.788
						C1851.078,721.343,1850.094,722.327,1848.879,722.327z M1791.29,717.928h55.389v-55.389h-55.389V717.928z"/>
					<path style="fill:#E6D0BE;" d="M1778.295,722.327h-59.786c-1.216,0-2.199-0.984-2.199-2.199v-59.788
						c0-1.216,0.984-2.2,2.199-2.2h59.786c1.216,0,2.199,0.984,2.199,2.2v59.788
						C1780.495,721.343,1779.511,722.327,1778.295,722.327z M1720.709,717.928h55.387v-55.389h-55.387V717.928z"/>
					<path style="fill:#E6D0BE;" d="M1707.714,722.327h-59.788c-1.216,0-2.199-0.984-2.199-2.199v-59.788
						c0-1.216,0.984-2.2,2.199-2.2h59.788c1.216,0,2.199,0.984,2.199,2.2v59.788C1709.914,721.343,1708.93,722.327,1707.714,722.327
						z M1650.126,717.928h55.389v-55.389h-55.389V717.928z"/>
				</g>
				<g>
					
						<ellipse transform="matrix(0.1602 -0.9871 0.9871 0.1602 1409.9012 2420.1108)" style="fill:#F2E6DC;" cx="2127.2" cy="381.486" rx="7.875" ry="7.875"/>
					
						<ellipse transform="matrix(0.1602 -0.9871 0.9871 0.1602 1370.0754 2373.301)" style="fill:#F2E6DC;" cx="2079.778" cy="381.486" rx="7.875" ry="7.875"/>
					
						<ellipse transform="matrix(0.1602 -0.9871 0.9871 0.1602 1330.2495 2326.4915)" style="fill:#F2E6DC;" cx="2032.355" cy="381.486" rx="7.875" ry="7.875"/>
					
						<ellipse transform="matrix(0.1602 -0.9871 0.9871 0.1602 1290.4236 2279.6816)" style="fill:#F2E6DC;" cx="1984.933" cy="381.486" rx="7.875" ry="7.875"/>
					
						<ellipse transform="matrix(0.2298 -0.9732 0.9732 0.2298 1121.0844 2179.5203)" style="fill:#F2E6DC;" cx="1937.511" cy="381.486" rx="7.875" ry="7.875"/>
					
						<ellipse transform="matrix(0.1602 -0.9871 0.9871 0.1602 1210.7719 2186.0623)" style="fill:#F2E6DC;" cx="1890.089" cy="381.486" rx="7.875" ry="7.875"/>
					
						<ellipse transform="matrix(0.2298 -0.9732 0.9732 0.2298 1048.0308 2087.2134)" style="fill:#F2E6DC;" cx="1842.667" cy="381.486" rx="7.875" ry="7.875"/>
					
						<ellipse transform="matrix(0.1602 -0.9871 0.9871 0.1602 1131.12 2092.4429)" style="fill:#F2E6DC;" cx="1795.245" cy="381.486" rx="7.875" ry="7.875"/>
					
						<ellipse transform="matrix(0.2298 -0.9732 0.9732 0.2298 974.9773 1994.9064)" style="fill:#F2E6DC;" cx="1747.823" cy="381.486" rx="7.875" ry="7.875"/>
					
						<ellipse transform="matrix(0.1602 -0.9871 0.9871 0.1602 1051.4683 1998.8234)" style="fill:#F2E6DC;" cx="1700.401" cy="381.486" rx="7.875" ry="7.875"/>
					
						<ellipse transform="matrix(0.7071 -0.7071 0.7071 0.7071 214.3953 1280.5674)" style="fill:#F2E6DC;" cx="1652.979" cy="381.486" rx="7.875" ry="7.875"/>
					<g>
						<g>
							<path style="fill:#FFFFFF;" d="M1653.97,337.2v43.804V337.2z"/>
							<path style="fill:#D3BBA3;" d="M1653.97,383.202c-1.216,0-2.199-0.984-2.199-2.199v-43.804c0-1.216,0.984-2.199,2.199-2.199
								s2.199,0.984,2.199,2.199v43.804C1656.17,382.219,1655.186,383.202,1653.97,383.202z"/>
						</g>
						<g>
							<path style="fill:#FFFFFF;" d="M1701.287,337.2v43.804V337.2z"/>
							<path style="fill:#D3BBA3;" d="M1701.288,383.202c-1.216,0-2.199-0.984-2.199-2.199v-43.804c0-1.216,0.984-2.199,2.199-2.199
								s2.199,0.984,2.199,2.199v43.804C1703.487,382.219,1702.504,383.202,1701.288,383.202z"/>
						</g>
						<g>
							<path style="fill:#FFFFFF;" d="M1748.604,337.2v43.804V337.2z"/>
							<path style="fill:#D3BBA3;" d="M1748.603,383.202c-1.216,0-2.199-0.984-2.199-2.199v-43.804c0-1.216,0.984-2.199,2.199-2.199
								s2.2,0.984,2.2,2.199v43.804C1750.803,382.219,1749.819,383.202,1748.603,383.202z"/>
						</g>
						<g>
							<path style="fill:#FFFFFF;" d="M1795.921,337.2v43.804V337.2z"/>
							<path style="fill:#D3BBA3;" d="M1795.921,383.202c-1.216,0-2.199-0.984-2.199-2.199v-43.804c0-1.216,0.984-2.199,2.199-2.199
								s2.199,0.984,2.199,2.199v43.804C1798.12,382.219,1797.136,383.202,1795.921,383.202z"/>
						</g>
						<g>
							<path style="fill:#FFFFFF;" d="M1843.238,337.2v43.804V337.2z"/>
							<path style="fill:#D3BBA3;" d="M1843.238,383.202c-1.216,0-2.199-0.984-2.199-2.199v-43.804c0-1.216,0.984-2.199,2.199-2.199
								s2.199,0.984,2.199,2.199v43.804C1845.438,382.219,1844.454,383.202,1843.238,383.202z"/>
						</g>
						<g>
							<path style="fill:#FFFFFF;" d="M1890.555,337.2v43.804V337.2z"/>
							<path style="fill:#D3BBA3;" d="M1890.556,383.202c-1.216,0-2.199-0.984-2.199-2.199v-43.804c0-1.216,0.984-2.199,2.199-2.199
								s2.2,0.984,2.2,2.199v43.804C1892.755,382.219,1891.771,383.202,1890.556,383.202z"/>
						</g>
						<g>
							<path style="fill:#FFFFFF;" d="M1937.871,337.2v43.804V337.2z"/>
							<path style="fill:#D3BBA3;" d="M1937.871,383.202c-1.216,0-2.199-0.984-2.199-2.199v-43.804c0-1.216,0.984-2.199,2.199-2.199
								c1.216,0,2.199,0.984,2.199,2.199v43.804C1940.07,382.219,1939.087,383.202,1937.871,383.202z"/>
						</g>
						<g>
							<path style="fill:#FFFFFF;" d="M1985.188,337.2v43.804V337.2z"/>
							<path style="fill:#D3BBA3;" d="M1985.188,383.202c-1.216,0-2.199-0.984-2.199-2.199v-43.804c0-1.216,0.984-2.199,2.199-2.199
								s2.199,0.984,2.199,2.199v43.804C1987.388,382.219,1986.404,383.202,1985.188,383.202z"/>
						</g>
						<g>
							<path style="fill:#FFFFFF;" d="M2032.505,337.2v43.804V337.2z"/>
							<path style="fill:#D3BBA3;" d="M2032.506,383.202c-1.216,0-2.199-0.984-2.199-2.199v-43.804c0-1.216,0.984-2.199,2.199-2.199
								s2.199,0.984,2.199,2.199v43.804C2034.705,382.219,2033.722,383.202,2032.506,383.202z"/>
						</g>
						<g>
							<path style="fill:#FFFFFF;" d="M2079.822,337.2v43.804V337.2z"/>
							<path style="fill:#D3BBA3;" d="M2079.821,383.202c-1.216,0-2.199-0.984-2.199-2.199v-43.804c0-1.216,0.984-2.199,2.199-2.199
								c1.216,0,2.199,0.984,2.199,2.199v43.804C2082.021,382.219,2081.037,383.202,2079.821,383.202z"/>
						</g>
						<g>
							<path style="fill:#FFFFFF;" d="M2127.139,337.2v43.804V337.2z"/>
							<path style="fill:#D3BBA3;" d="M2127.139,383.202c-1.216,0-2.199-0.984-2.199-2.199v-43.804c0-1.216,0.984-2.199,2.199-2.199
								c1.216,0,2.199,0.984,2.199,2.199v43.804C2129.338,382.219,2128.354,383.202,2127.139,383.202z"/>
						</g>
					</g>
				</g>
			</g>
		</g>
		<g>
			<path style="fill:#FFFFFF;" d="M2025.856,1099.077h-245.121c-1.216,0-2.199-0.984-2.199-2.199V851.867
				c0-1.216,0.984-2.199,2.199-2.199h245.121c1.216,0,2.199,0.984,2.199,2.199v245.011
				C2028.056,1098.094,2027.072,1099.077,2025.856,1099.077z M1782.935,1094.678h240.722V854.066h-240.722V1094.678z"/>
			<polygon style="fill:#D87355;" points="1890.148,1059.838 1813.404,990.065 1837.113,960.842 1885.772,999.726 1962.124,888.907 
				1993.187,910.288 			"/>
		</g>
		<g>
			<path style="fill:#363E44;" d="M1284.978,680.156c-0.021,0-0.041,0-0.062,0c-12.634-0.017-24.505-4.951-33.426-13.895
				c-8.921-8.946-13.825-20.828-13.809-33.462l0.062-47.296l94.589,0.122l-0.06,47.294c-0.017,12.634-4.951,24.505-13.895,33.427
				C1309.447,675.252,1297.588,680.156,1284.978,680.156z M1242.136,589.906l-0.056,42.897
				c-0.015,11.459,4.433,22.237,12.525,30.349c8.091,8.112,18.858,12.589,30.315,12.604c0.019,0,0.039,0,0.058,0
				c23.626,0,42.865-19.206,42.895-42.841l0.056-42.895L1242.136,589.906z"/>
			
				<ellipse transform="matrix(0.7071 -0.7071 0.7071 0.7071 28.5096 1052.8518)" style="fill:#EFBC73;" cx="1285.159" cy="492.012" rx="116.756" ry="116.756"/>
			<path style="fill:#363E44;" d="M1285.313,650.504c-0.122,0-0.24,0-0.359,0c-10.66-0.015-45.441-0.666-45.432-8.437
				c0.001-1.214,0.986-2.197,2.199-2.197c0.001,0,0.002,0,0.003,0c1.025,0.002,1.886,0.704,2.129,1.654
				c2.08,1.652,15.691,4.547,41.105,4.581c0.142,0,0.283,0,0.423,0c25.143,0,38.621-2.837,40.696-4.474
				c0.245-0.947,1.106-1.648,2.131-1.648h0.002c1.216,0.002,2.199,0.988,2.197,2.202
				C1330.397,649.871,1296.377,650.504,1285.313,650.504z"/>
			<path style="fill:#363E44;" d="M1285.339,630.735c-0.122,0-0.24,0-0.359,0c-10.66-0.015-45.441-0.666-45.432-8.435
				c0.001-1.214,0.986-2.197,2.199-2.197c0.001,0,0.002,0,0.003,0c1.025,0.002,1.885,0.705,2.127,1.654
				c2.083,1.649,15.694,4.545,41.106,4.579c0.142,0,0.284,0,0.423,0c25.143,0,38.623-2.837,40.698-4.474
				c0.245-0.947,1.104-1.647,2.128-1.647c0.002,0,0.002,0,0.004,0c1.214,0.002,2.197,0.988,2.195,2.204
				C1330.418,630.104,1296.4,630.735,1285.339,630.735z"/>
			<g>
				<path style="fill:#363E44;" d="M1300.638,582.569c-0.29,0-0.582-0.056-0.863-0.176c-1.117-0.477-1.637-1.77-1.16-2.887
					l36.804-86.174c0.477-1.119,1.778-1.634,2.887-1.16c1.117,0.477,1.637,1.77,1.16,2.887l-36.804,86.174
					C1302.305,582.069,1301.491,582.569,1300.638,582.569z"/>
				<path style="fill:#363E44;" d="M1269.451,582.531c-0.855,0-1.669-0.503-2.025-1.34l-36.579-86.271
					c-0.474-1.119,0.048-2.41,1.167-2.885c1.115-0.473,2.409,0.047,2.884,1.166l36.579,86.271c0.475,1.119-0.049,2.41-1.166,2.885
					C1270.029,582.475,1269.739,582.531,1269.451,582.531z"/>
				<path style="fill:#FFFFFF;" d="M1306.143,506.788c-6.132,0-12.281-1.907-17.181-5.591c-4.768,2.038-9.998,2.951-15.185,2.434
					c-14.423-1.458-26.878-13.897-28.358-28.315c-0.125-1.209,0.755-2.29,1.963-2.414c1.211-0.101,2.287,0.756,2.412,1.963
					c1.275,12.421,12.004,23.135,24.426,24.389c3.774,0.38,7.578-0.122,11.139-1.347c-7.105-7.84-9.375-19.868-5.323-29.694
					c2.041-4.938,6.495-10.441,12.885-11.072c5.563-0.569,11.235,2.964,13.843,8.542c2.105,4.502,2.27,10.142,0.468,15.888
					c-2.277,7.251-7.399,13.364-13.837,17.329c7.215,4.412,16.865,4.753,24.251,0.55c1.046-0.601,2.395-0.234,2.998,0.825
					c0.601,1.055,0.232,2.397-0.825,2.998C1315.667,505.637,1310.911,506.788,1306.143,506.788z M1294.057,461.483
					c-0.236,0-0.468,0.011-0.702,0.034c-4.455,0.44-7.7,4.614-9.251,8.375c-3.615,8.755-1.269,19.589,5.552,26.131
					c6.227-3.355,11.248-8.984,13.379-15.772c1.471-4.691,1.381-9.204-0.258-12.705
					C1301.091,463.936,1297.509,461.483,1294.057,461.483z"/>
			</g>
		</g>
	</g>
</g>
</svg>
