<?xml version="1.0" encoding="utf-8"?>
<!-- Generator: Adobe Illustrator 27.5.0, SVG Export Plug-In . SVG Version: 6.00 Build 0)  -->
<svg version="1.1" xmlns="http://www.w3.org/2000/svg" xmlns:xlink="http://www.w3.org/1999/xlink" x="0px" y="0px"
	 viewBox="0 0 2500 2500" style="enable-background:new 0 0 2500 2500;" xml:space="preserve">
-
<g id="Illustration">
	<g id="Mobile_phones_5G_network_1_">
		<circle style="fill:transparent;" cx="1250" cy="1250" r="915"/>
		<g>
			<g>
				<path style="fill:#FFFFFF;" d="M1494.718,1116.816h-32.425c-2.904-15.806-7.045-31.177-12.308-46.018l28.061-16.201
					l-54.867-95.034l-28.125,16.238c-10.321-12.083-21.578-23.339-33.66-33.66l16.237-28.125l-95.034-54.868l-16.201,28.062
					c-14.841-5.264-30.212-9.405-46.018-12.308v-32.425h-109.736l0,32.425c-15.806,2.904-31.177,7.045-46.018,12.308l-16.201-28.062
					l-95.034,54.868l16.238,28.125c-12.083,10.321-23.339,21.577-33.66,33.66l-28.125-16.238l-54.868,95.034l28.061,16.201
					c-5.263,14.841-9.404,30.212-12.308,46.018h-32.425v109.736h32.425c2.904,15.806,7.044,31.177,12.308,46.018l-28.061,16.201
					l54.867,95.035l28.125-16.238c10.321,12.083,21.577,23.339,33.66,33.66l-16.238,28.125l95.034,54.868l16.201-28.061
					c14.841,5.264,30.212,9.405,46.018,12.308v32.425l109.736,0.001v-32.425c15.806-2.903,31.177-7.044,46.018-12.308l16.201,28.061
					l95.034-54.868l-16.237-28.125c12.082-10.321,23.339-21.577,33.66-33.66l28.125,16.238l54.868-95.034l-28.061-16.202
					c5.263-14.841,9.404-30.212,12.308-46.018h32.425V1116.816z M1360.511,1253.01c-19.776,52.311-61.372,93.905-113.683,113.679
					c-177.739,67.188-343.513-98.59-276.32-276.329c19.776-52.311,61.373-93.906,113.684-113.681
					C1261.933,909.492,1427.708,1075.27,1360.511,1253.01z"/>
			</g>
			<path style="fill:#F2E6DC;" d="M1165.511,1413.936c-133.579,0-242.253-108.673-242.253-242.252
				c0-58.365,21.049-114.747,59.27-158.76c37.839-43.575,89.941-72.27,146.708-80.794c1.2-0.168,2.326,0.65,2.507,1.854
				s-0.648,2.328-1.853,2.508c-115.286,17.311-202.222,118.423-202.222,235.192c0,131.148,106.696,237.843,237.844,237.843
				c108.364,0,203.035-73.16,230.227-177.908c0.308-1.178,1.509-1.893,2.687-1.58c1.18,0.306,1.886,1.509,1.58,2.687
				C1372.309,1339.42,1275.881,1413.936,1165.511,1413.936z"/>
		</g>
		<g>
			<g>
				<g>
					<rect x="1342.075" y="446.301" style="fill:#E6D0BE;" width="709.506" height="1338.531"/>
					<path style="fill:#D3BBA3;" d="M2025.362,1866.077h-661.975c-42.755,0-77.539-34.784-77.539-77.541V429.874
						c0-42.755,34.784-77.539,77.539-77.539h661.975c42.755,0,77.539,34.784,77.539,77.539v1358.662
						C2102.901,1831.293,2068.117,1866.077,2025.362,1866.077z M1363.387,356.745c-40.324,0-73.129,32.805-73.129,73.129v1358.662
						c0,40.324,32.805,73.131,73.129,73.131h661.975c40.324,0,73.129-32.807,73.129-73.131V429.874
						c0-40.324-32.805-73.129-73.129-73.129H1363.387z"/>
				</g>
				<g>
					<rect x="1373.273" y="570.223" style="fill:#FFFFFF;" width="642.202" height="546.792"/>
				</g>
				<g>
					<rect x="1378.813" y="1490.996" style="fill:#FFFFFF;" width="631.122" height="81.422"/>
					<rect x="1378.813" y="1604.265" style="fill:#FFFFFF;" width="631.122" height="81.422"/>
				</g>
			</g>
			<g>
				<path style="fill:#40484C;" d="M1474.704,834.222l16.179-142.525h157.162v46.417H1536.53l-6.933,60.284
					c13.222-7.06,27.282-10.594,42.178-10.594c26.705,0,47.636,8.283,62.788,24.847c15.15,16.562,22.729,39.741,22.729,69.527
					c0,18.106-3.822,34.317-11.461,48.633c-7.639,14.318-18.586,25.422-32.838,33.32c-14.254,7.896-31.076,11.844-50.461,11.844
					c-16.95,0-32.68-3.436-47.188-10.305c-14.51-6.866-25.971-16.53-34.379-28.986c-8.41-12.454-12.874-26.643-13.386-42.565h55.084
					c1.156,11.687,5.23,20.771,12.23,27.254c6.998,6.485,16.146,9.726,27.446,9.726c12.583,0,22.276-4.526,29.083-13.578
					c6.804-9.054,10.208-21.861,10.208-38.425c0-15.92-3.919-28.12-11.748-36.595c-7.833-8.473-18.941-12.71-33.32-12.71
					c-13.227,0-23.949,3.466-32.166,10.4l-5.391,5.008L1474.704,834.222z"/>
				<path style="fill:#40484C;" d="M1920.575,936.686c-10.4,12.456-25.104,22.119-44.105,28.986
					c-19.004,6.869-40.061,10.305-63.173,10.305c-24.268,0-45.55-5.297-63.847-15.89c-18.297-10.591-32.424-25.967-42.372-46.127
					c-9.952-20.158-15.057-43.847-15.313-71.071v-19.066c0-27.991,4.72-52.224,14.157-72.707
					c9.437-20.479,23.045-36.143,40.832-46.995c17.781-10.85,38.617-16.276,62.499-16.276c33.253,0,59.255,7.93,78.002,23.788
					c18.745,15.858,29.853,38.937,33.32,69.239h-56.24c-2.569-16.049-8.251-27.797-17.044-35.245
					c-8.796-7.446-20.896-11.173-36.304-11.173c-19.645,0-34.605,7.385-44.878,22.149c-10.273,14.768-15.473,36.724-15.6,65.871
					v17.912c0,29.403,5.585,51.615,16.756,66.64c11.171,15.022,27.543,22.533,49.113,22.533c21.697,0,37.172-4.621,46.417-13.866
					V867.35h-52.58v-42.565h110.359V936.686z"/>
			</g>
		</g>
		<g>
			<g>
				<g>
					<path style="fill:#D3BBA3;" d="M465.843,2153.914c-0.912,0-1.83-0.09-2.743-0.278c-3.568-0.723-6.639-2.792-8.65-5.828
						c-2.011-3.036-2.72-6.673-1.995-10.24l140.034-689.654c1.496-7.364,8.703-12.131,16.069-10.647
						c0.001,0,0.001,0.002,0.001,0.002c7.365,1.496,12.139,8.705,10.645,16.069L479.17,2142.993c-0.724,3.568-2.795,6.64-5.83,8.651
						C471.082,2153.139,468.491,2153.914,465.843,2153.914z M605.845,1441.402c-4.292,0-8.147,3.023-9.035,7.39l-140.034,689.654
						c-1.011,4.982,2.219,9.859,7.201,10.869c2.419,0.5,4.876,0.011,6.928-1.348c2.053-1.359,3.454-3.438,3.943-5.852
						l140.034-689.656c1.011-4.98-2.22-9.857-7.202-10.871C607.065,1441.462,606.45,1441.402,605.845,1441.402z"/>
					<path style="fill:#D3BBA3;" d="M891.893,2154.396c-2.659,0-5.26-0.781-7.524-2.289c-3.031-2.018-5.094-5.094-5.81-8.664
						l-138.475-689.971c-1.478-7.368,3.314-14.566,10.682-16.045c7.355-1.486,14.566,3.314,16.046,10.682l138.474,689.969
						c0.716,3.572,0,7.207-2.018,10.238c-2.018,3.03-5.094,5.094-8.664,5.809C893.701,2154.306,892.793,2154.396,891.893,2154.396z
						 M753.448,1441.57c-0.6,0-1.206,0.058-1.816,0.181c-4.984,1.001-8.225,5.872-7.225,10.856l138.475,689.968
						c0.484,2.416,1.881,4.498,3.931,5.861c2.05,1.367,4.505,1.847,6.923,1.365c0,0,0,0,0.001,0c2.414-0.484,4.496-1.88,5.86-3.929
						c1.365-2.05,1.849-4.511,1.365-6.927l-138.474-689.966C761.61,1444.604,757.749,1441.57,753.448,1441.57z"/>
				</g>
				<path style="fill:#D3BBA3;" d="M802.591,1792.786c-0.001,0-0.001,0-0.002,0l-246.655-0.278c-1.218-0.002-2.204-0.99-2.203-2.207
					s0.988-2.203,2.205-2.203c0.001,0,0.001,0,0.002,0l246.654,0.278c1.218,0.002,2.204,0.99,2.203,2.207
					C804.794,1791.8,803.807,1792.786,802.591,1792.786z"/>
				<path style="fill:#D3BBA3;" d="M802.56,1820.325c-0.001,0-0.001,0-0.002,0l-246.654-0.28c-1.218-0.002-2.204-0.99-2.203-2.207
					c0.001-1.217,0.988-2.203,2.205-2.203c0.001,0,0.002,0,0.002,0l246.654,0.28c1.218,0.002,2.204,0.99,2.203,2.207
					C804.763,1819.339,803.776,1820.325,802.56,1820.325z"/>
				<path style="fill:#E6D0BE;" d="M784.773,1398.264l-210.133-0.237c-17.527-0.02-31.752,14.172-31.771,31.7l-0.007,5.997
					c-0.02,17.526,14.173,31.751,31.7,31.771l210.133,0.238c17.527,0.02,31.752-14.173,31.771-31.699l0.007-5.997
					C816.492,1412.508,802.3,1398.283,784.773,1398.264z"/>
			</g>
			<g>
				<g>
					<path style="fill:#ff6900;" d="M921.583,1229.021l-52.865-14.67l-133.169,30.358l434.519,581.516
						C1300.608,1593.685,1295.928,1447.314,921.583,1229.021z"/>
					<path style="fill:#FFFFFF;" d="M1078.618,1996.622l60.444,155.343h288.756c0,0-55.395-139.305-229.545-155.343H1078.618z"/>
					<polygon style="fill:#E2A18D;" points="1007.076,1892.903 1078.618,1996.622 1198.274,1996.622 1142.062,1882.12 					"/>
					<path style="fill:#ff6900;" d="M808.806,1222.837l-183.108-22.122c-13.385,75.836,0.499,153.963,39.193,220.544
						l297.782,512.394l279.3-52.159L808.806,1222.837z"/>
					<path style="fill:#FFFFFF;" d="M1139.709,1728.196c-0.717,0-1.421-0.349-1.844-0.992l-227.582-346.051
						c-0.67-1.018-0.386-2.386,0.631-3.055c1.015-0.665,2.387-0.385,3.053,0.631l227.582,346.051
						c0.67,1.018,0.386,2.386-0.631,3.055C1140.546,1728.08,1140.125,1728.196,1139.709,1728.196z"/>
				</g>
				<g>
					<g>
						<path style="fill:#FFFFFF;" d="M642.319,1200.715c2.503,2.422,31.658,100.133,94.039,111.993
							c62.38,11.859,86.327-100.888,86.327-100.888L642.319,1200.715z"/>
						<path style="fill:#FFFFFF;" d="M826.798,1214.351c0,0,44.343,90.494,93.503,87.061c49.16-3.434-1.825-89.592-1.825-89.592
							L826.798,1214.351z"/>
					</g>
					<g>
						<path style="fill:#E2A18D;" d="M1066.884,1078.797c0,0,167.865-60.609,224.686-77.071
							c59.674-17.288,150.295-34.125,152.486-21.417c1.249,7.238-10.636,12.09-43.262,22.945c2.198,1.101,8.032,6.081,8.09,12.985
							c0.084,10.216-8.151,12.55-8.776,13.099c0.776,0.313,9.42,4.349,10.635,11.178c1.368,7.692-2.585,13.017-7.707,16.389
							c1.901,0.837,9.372,5.714,10.208,12.33c1.087,8.602-6.508,14.47-13.411,16.36c-12.665,3.467-47.509,12.079-65.355,18.987
							c-35.117,13.593-153.345,78.605-209.292,84.836C1136.126,1141.937,1066.884,1078.797,1066.884,1078.797z"/>
						<path style="fill:#363E44;" d="M1312.03,1068.327c-0.689,0-1.367-0.321-1.798-0.926c-0.706-0.993-0.476-2.368,0.517-3.075
							c10.708-7.624,15.692-17.15,19.697-24.802c4.177-7.979,7.809-14.835,16.146-13.888c4.821,0.557,11.005-1.21,17.882-5.131
							c1.906-1.087,1.759-2.971,1.669-3.525c-0.189-1.158-1.014-2.517-2.762-2.859l-39.631-7.773
							c-1.195-0.235-1.974-1.393-1.74-2.588c0.235-1.195,1.393-1.981,2.588-1.74l39.631,7.773c3.266,0.639,5.727,3.182,6.266,6.474
							c0.536,3.266-0.971,6.434-3.837,8.068c-7.807,4.455-14.728,6.365-20.578,5.68c-5.127-0.618-7.42,3.322-11.726,11.552
							c-4.001,7.646-9.48,18.114-21.047,26.35C1312.919,1068.193,1312.471,1068.327,1312.03,1068.327z"/>
						<path style="fill:#363E44;" d="M1376.047,1086.239c-0.965,0-1.852-0.639-2.123-1.617c-2.455-8.873,0.855-18.127,7.749-23.573
							l-0.739,0.097c-7.228,0.928-14.114-3.436-16.334-10.397c-1.251-3.914-0.876-8.07,1.053-11.698
							c1.931-3.63,5.167-6.261,9.114-7.413l3.389-0.988c-3.325-1.686-5.878-4.819-6.655-8.712
							c-1.249-6.257,2.394-12.439,8.473-14.379l14.084-4.5c1.165-0.388,2.401,0.267,2.771,1.428c0.372,1.16-0.269,2.401-1.427,2.771
							l-14.086,4.5c-3.938,1.258-6.298,5.265-5.49,9.319c0.859,4.3,5.053,7.166,9.39,6.399l10.036-1.798
							c1.152-0.222,2.267,0.523,2.536,1.667c0.267,1.141-0.405,2.293-1.529,2.62l-20.255,5.906c-2.797,0.816-5.09,2.681-6.457,5.251
							c-1.367,2.569-1.632,5.512-0.747,8.285c1.574,4.928,6.447,8.027,11.571,7.364l15.718-2.026
							c1.109-0.12,2.166,0.579,2.427,1.675c0.263,1.098-0.347,2.216-1.41,2.59l-7.603,2.689
							c-8.858,3.137-13.836,12.688-11.328,21.747c0.325,1.173-0.364,2.388-1.537,2.713
							C1376.441,1086.213,1376.243,1086.239,1376.047,1086.239z"/>
					</g>
					<path style="fill:#EFBC73;" d="M1255.319,1002.021l29.409,135.676l-167.935,66.035
						c-33.877,13.321-212.232-64.349-212.232-64.349l22.165-181.376l215.864,83.742L1255.319,1002.021z"/>
					<g>
						<path style="fill:#EFBC73;" d="M584.106,1100.509l-93.852,109.32l-95.207-97.11c-41.372-35.242-35.765-100.69,10.968-128.434
							c64.805-38.472,137.193-79.603,272.097-74.821l-32.093,122.912l-91.492,47.281L584.106,1100.509z"/>
						<path style="fill:#363E44;" d="M531.221,1076.935c-0.519,0-1.041-0.183-1.461-0.553l-2.472-2.19
							c-20.073-17.776-40.83-36.158-60.854-54.67c-0.895-0.827-0.95-2.222-0.123-3.116c0.827-0.896,2.221-0.95,3.116-0.123
							c19.991,18.483,40.729,36.847,60.785,54.608l2.472,2.188c0.912,0.807,0.996,2.203,0.188,3.113
							C532.437,1076.683,531.831,1076.935,531.221,1076.935z"/>
					</g>
					<g>
						<path style="fill:#EFBC73;" d="M570.783,1193.425c0,0,181.948,79.202,377.165,31.365l-2.599-257.14
							c0,0-110.166-67.743-311.216-58.984L570.783,1193.425z"/>
						<path style="fill:#363E44;" d="M736.448,1103.477c-7.458,0-15.081-1.671-22.28-5.148
							c-12.936-6.246-22.583-17.507-26.467-30.896c-0.339-1.169,0.334-2.392,1.503-2.73c1.174-0.34,2.393,0.334,2.732,1.503
							c3.537,12.187,12.339,22.449,24.151,28.152c19.553,9.444,42.508,4.33,54.582-12.165c0.719-0.982,2.097-1.199,3.082-0.476
							c0.982,0.719,1.196,2.097,0.477,3.081C765.367,1096.903,751.234,1103.477,736.448,1103.477z"/>
						<path style="fill:#363E44;" d="M864.563,1116.006c-0.805,0-1.613-0.019-2.425-0.056c-14.353-0.663-27.65-7.228-36.48-18.009
							c-0.772-0.943-0.634-2.332,0.308-3.103c0.943-0.769,2.334-0.631,3.103,0.308c8.04,9.816,20.166,15.793,33.273,16.398
							c21.663,0.997,40.79-12.725,45.41-32.637c0.277-1.186,1.454-1.938,2.646-1.649c1.186,0.273,1.925,1.46,1.649,2.644
							C907.119,1101.138,887.367,1116.006,864.563,1116.006z"/>
						<path style="fill:#363E44;" d="M946.128,1130.921c-1.218,0-2.205-0.986-2.205-2.205v-83.99c0-1.219,0.987-2.205,2.205-2.205
							c1.218,0,2.205,0.986,2.205,2.205v83.99C948.333,1129.935,947.346,1130.921,946.128,1130.921z"/>
					</g>
					<g>
						<path style="fill:#E2A18D;" d="M610.409,1133.332c-3.793-3.518-19.262-15.078-39.326-30.28
							c-21.479-16.274-51.076-17.094-73.181-1.683c-0.598,0.417-1.197,0.838-1.797,1.263
							c-34.056,24.102-35.428,74.162-2.716,100.059c53.644,42.468,105.598,82.645,113.968,90.396
							c8.935,8.865,29.471,29.359,36.258,23.358c9.245-8.174-9.437-33.2-9.155-34.806c6.403,6.988,28.822,29.292,36.851,22.778
							c6.172-5.006-9.341-33.634-12.938-40.966c0.633,0.263,22.126,30.698,32.088,23.24c8.48-6.348-5.323-34.003-8.105-41.505
							c6.455,6.107,26.058,23.601,31.894,16.17C726.465,1245.804,629.015,1150.591,610.409,1133.332z"/>
						<g>
							<path style="fill:#363E44;" d="M683.227,1246.913c-0.801,0-1.574-0.437-1.964-1.199c-2.38-4.642-5.099-9.151-8.082-13.403
								c-5.366-7.65-11.698-14.654-18.822-20.812c-0.922-0.797-1.023-2.19-0.226-3.111c0.797-0.922,2.19-1.021,3.109-0.226
								c7.398,6.397,13.975,13.67,19.549,21.618c3.098,4.418,5.922,9.101,8.394,13.924c0.555,1.083,0.128,2.411-0.956,2.967
								C683.908,1246.835,683.565,1246.913,683.227,1246.913z"/>
							<path style="fill:#363E44;" d="M659.189,1265.522c-0.718,0-1.421-0.349-1.845-0.995c-0.6-0.913-1.225-1.834-1.875-2.76
								c-5.36-7.644-11.693-14.646-18.822-20.815c-0.92-0.797-1.022-2.188-0.225-3.109c0.798-0.922,2.189-1.025,3.11-0.224
								c7.402,6.403,13.979,13.677,19.547,21.615c0.676,0.965,1.325,1.921,1.951,2.872c0.669,1.016,0.385,2.383-0.632,3.053
								C660.025,1265.406,659.605,1265.522,659.189,1265.522z"/>
							<path style="fill:#363E44;" d="M634.198,1283.225c-0.63,0-1.255-0.269-1.691-0.788c-3.918-4.677-8.263-9.09-12.916-13.117
								c-0.92-0.797-1.022-2.188-0.225-3.109c0.796-0.919,2.189-1.023,3.11-0.224c4.831,4.179,9.343,8.761,13.411,13.616
								c0.782,0.935,0.659,2.325-0.274,3.107C635.2,1283.057,634.697,1283.225,634.198,1283.225z"/>
						</g>
					</g>
				</g>
				<g>
					<circle style="fill:#363E44;" cx="689.926" cy="784.236" r="115.104"/>
					<path style="fill:#40484C;" d="M711.788,852.308c-52.606,0-95.404-42.798-95.404-95.404c0-1.219,0.987-2.205,2.205-2.205
						c1.218,0,2.205,0.986,2.205,2.205c0,50.175,40.819,90.994,90.994,90.994c18.924,0,37.065-5.753,52.465-16.64
						c0.995-0.706,2.371-0.465,3.072,0.528c0.703,0.995,0.467,2.371-0.527,3.072C750.65,846.275,731.628,852.308,711.788,852.308z"
						/>
					<path style="fill:#363E44;" d="M765.528,835.264c-0.692,0-1.373-0.325-1.802-0.932c-0.703-0.995-0.467-2.371,0.528-3.073
						c24.125-17.055,38.528-44.85,38.528-74.354c0-50.175-40.819-90.994-90.993-90.994c-50.175,0-90.994,40.819-90.994,90.994
						c0,1.219-0.987,2.205-2.205,2.205c-1.218,0-2.205-0.986-2.205-2.205c0-52.606,42.798-95.404,95.404-95.404
						c52.606,0,95.403,42.798,95.403,95.404c0,30.932-15.1,60.075-40.393,77.954C766.411,835.133,765.967,835.264,765.528,835.264z"
						/>
					<path style="fill:#E2A18D;" d="M700.697,913.146c0,0,81.878,64.104,181.507,33.055
						C882.205,946.201,813.305,909.25,700.697,913.146z"/>
					<g>
						<path style="fill:#E2A18D;" d="M797.667,949.814l-9.954-3.791c-11.313-4.309-16.992-16.973-12.683-28.286l21.133-55.49
							c4.309-11.313,16.973-16.991,28.286-12.683l9.954,3.791c11.313,4.309,16.991,16.972,12.683,28.285l-21.133,55.49
							C821.644,948.445,808.981,954.123,797.667,949.814z"/>
						<path style="fill:#E2A18D;" d="M805.395,781.555c2.248-1.066,23.93-10.953,42.898-0.531
							c14.114,7.755,20.579,21.912,27.833,47.298c8.542,29.894,9.472,48.957,3.15,57.747c-9.989,13.887-57.098,7.879-81.242-12.204
							c-17.428-14.496-24.741-38.626-19.894-60.934C782.974,790.685,803.96,782.236,805.395,781.555z"/>
						<g>
							<path style="fill:#FFFFFF;" d="M872.354,801.44c0.044,0.202,0.222,0.316,0.266,0.518c0.002,0.008,0,0.016,0.002,0.025
								c1.473,2.506,3.034,5.146,4.94,7.34c0.844,0.971,1.826,1.344,2.725,2.169c0.659,0.606,1.288,1.188,1.962,1.758
								c4.149-8.698,3.66-17.801,3.66-17.801S878.974,796.943,872.354,801.44z"/>
							<path style="fill:#363E44;" d="M858.546,830.62c0.139,0.077,0.28,0.15,0.421,0.223c2.245-0.544,13.342-3.601,20.106-12.378
								c1.269-1.646,2.299-3.388,3.144-5.148c-0.156-0.782-0.352-1.563-0.631-2.335c-1.636-4.535-5.094-7.875-9.246-9.529
								c-2.469,1.695-4.906,3.82-6.948,6.468C858.526,816.831,858.495,828.562,858.546,830.62z"/>
						</g>
						<g>
							<path style="fill:#FFFFFF;" d="M827.772,838.192c1.109,3.252,2.548,5.503,5.227,7.416c7.523-3.234,12.472-8.433,12.472-8.433
								s-8.876-6.079-19.511-6.484C825.919,833.222,826.985,835.884,827.772,838.192z"/>
							<path style="fill:#363E44;" d="M825.932,830.693c-1.184-0.035-2.39-0.003-3.612,0.119
								c-12.311,1.232-21.432,10.824-21.432,10.824s10.84,7.595,23.151,6.363c3.18-0.318,6.145-1.196,8.797-2.321
								C833.438,839.893,830.872,834.091,825.932,830.693z"/>
						</g>
						<path style="fill:#363E44;" d="M751.364,817.931c1.303,28.27,9.858,47.37,40.863,59.552
							c14.025-10.389,1.308-27.06,3.476-35.142c2.699-10.06-6.884-29.195-12.536-37.216c31.264-8.31,78.828-15.961,79.379-17.236
							c1.629-3.768-7.404-12.816-23.883-21.826c-9.298-5.084-23.722-12.055-36.809-7.882
							C778.572,765.605,749.745,782.833,751.364,817.931z"/>
						<g>
							<path style="fill:#E2A18D;" d="M802.997,849.58c7.071,7.037,7.982,17.587,2.034,23.563
								c-5.948,5.977-16.502,5.117-23.573-1.919c-7.071-7.037-7.982-17.587-2.034-23.564
								C785.371,841.683,795.925,842.543,802.997,849.58z"/>
							<path style="fill:#363E44;" d="M788.174,869.299c-0.438,0-0.88-0.129-1.266-0.401c-0.612-0.431-1.186-0.913-1.711-1.436
								c-2.106-2.095-3.398-4.78-3.638-7.562c-0.252-2.917,0.671-5.592,2.599-7.53c0.981-0.986,2.16-1.716,3.503-2.166
								c1.151-0.388,2.404,0.237,2.79,1.391c0.386,1.154-0.236,2.403-1.391,2.79c-0.685,0.23-1.282,0.599-1.776,1.096
								c-0.998,1.001-1.471,2.435-1.332,4.039c0.15,1.744,0.987,3.454,2.357,4.817c0.348,0.347,0.729,0.667,1.135,0.952
								c0.996,0.7,1.236,2.076,0.536,3.073C789.551,868.971,788.869,869.299,788.174,869.299z"/>
						</g>
						<path style="fill:#363E44;" d="M866.097,847.804c-0.176,0-0.352-0.019-0.53-0.065c-1.182-0.291-1.904-1.486-1.614-2.668
							c0.279-1.13,0.243-2.007-0.107-2.603c-0.296-0.506-0.778-0.739-2.082-1.279c-1.051-0.435-2.357-0.975-3.78-1.981
							c-1.815-1.281-3.35-2.997-4.559-5.096c-0.608-1.055-0.247-2.403,0.808-3.01c1.059-0.609,2.405-0.246,3.011,0.81
							c0.889,1.542,1.994,2.784,3.284,3.697c1.021,0.719,1.987,1.12,2.922,1.507c1.467,0.607,3.131,1.294,4.201,3.124
							c0.951,1.619,1.147,3.6,0.585,5.887C867.988,847.132,867.087,847.804,866.097,847.804z"/>
						<path style="fill:#363E44;" d="M859.686,865.576c-4.546,0-7.58-2.668-8.413-3.499c-0.862-0.859-0.865-2.257-0.004-3.118
							c0.858-0.866,2.255-0.866,3.118-0.004c0.537,0.536,2.515,2.241,5.477,2.209c2.653-0.065,4.43-1.54,5.071-2.168
							c0.868-0.855,2.265-0.844,3.118,0.026c0.854,0.868,0.842,2.265-0.026,3.118c-1.014,0.997-3.829,3.329-8.054,3.434
							C859.875,865.576,859.78,865.576,859.686,865.576z"/>
						<path style="fill:#363E44;" d="M854.492,895.627c-26.893,0-37.361-8.684-37.841-9.097c-0.925-0.792-1.031-2.183-0.239-3.109
							c0.791-0.919,2.176-1.029,3.101-0.245c0.184,0.153,12.526,10.051,44.884,7.663c1.197-0.118,2.27,0.82,2.361,2.035
							c0.09,1.214-0.821,2.272-2.036,2.362C861.077,895.507,857.669,895.627,854.492,895.627z"/>
					</g>
				</g>
			</g>
		</g>
		<g>
			
				<ellipse transform="matrix(0.7071 -0.7071 0.7071 0.7071 -91.6942 914.3745)" style="fill:#FFFFFF;" cx="1057.901" cy="567.872" rx="160.921" ry="160.921"/>
			<g>
				<path style="fill:#363E44;" d="M1059.256,668.843c-6.215,0-12.059-2.422-16.453-6.817c-4.396-4.395-6.817-10.238-6.817-16.454
					c0-6.214,2.421-12.058,6.817-16.452c4.395-4.395,10.238-6.817,16.453-6.817c6.216,0,12.06,2.422,16.454,6.817
					c4.395,4.394,6.816,10.238,6.816,16.452c0,6.216-2.421,12.06-6.816,16.454C1071.316,666.421,1065.472,668.843,1059.256,668.843z
					 M1059.256,626.713c-5.037,0-9.773,1.961-13.336,5.525c-3.562,3.561-5.525,8.298-5.525,13.334c0,5.038,1.963,9.775,5.525,13.337
					c3.563,3.563,8.298,5.525,13.336,5.525c5.038,0,9.774-1.961,13.337-5.525c3.562-3.561,5.524-8.298,5.524-13.337
					c0-5.036-1.962-9.773-5.524-13.334C1069.03,628.674,1064.295,626.713,1059.256,626.713z"/>
				<path style="fill:#363E44;" d="M1016.733,605.254c-0.564,0-1.128-0.215-1.559-0.646c-0.861-0.861-0.861-2.256,0-3.118
					c24.309-24.305,63.86-24.305,88.165,0c0.861,0.861,0.861,2.256,0,3.118c-0.861,0.861-2.256,0.861-3.118,0
					c-22.588-22.586-59.342-22.591-81.929,0C1017.861,605.039,1017.297,605.254,1016.733,605.254z"/>
				<path style="fill:#363E44;" d="M982.714,571.237c-0.564,0-1.128-0.215-1.559-0.646c-0.861-0.861-0.861-2.256,0-3.118
					c20.862-20.862,48.599-32.351,78.101-32.353c29.503,0,57.239,11.489,78.101,32.351c0.861,0.861,0.861,2.256,0,3.118
					c-0.861,0.861-2.256,0.861-3.118,0c-20.029-20.029-46.659-31.059-74.983-31.059c-28.325,0.002-54.954,11.033-74.983,31.061
					C983.842,571.021,983.278,571.237,982.714,571.237z"/>
				<path style="fill:#363E44;" d="M1169.817,537.217c-0.564,0-1.128-0.215-1.559-0.646c-60.105-60.103-157.899-60.103-218.004,0
					c-0.861,0.861-2.256,0.861-3.118,0c-0.861-0.861-0.861-2.257,0-3.118c61.823-61.825,162.416-61.825,224.239,0
					c0.861,0.861,0.861,2.256,0,3.118C1170.945,537.002,1170.381,537.217,1169.817,537.217z"/>
			</g>
		</g>
	</g>
</g>
</svg>
