<?xml version="1.0" encoding="utf-8"?>
<!-- Generator: Adobe Illustrator 27.5.0, SVG Export Plug-In . SVG Version: 6.00 Build 0)  -->
<svg version="1.1" xmlns="http://www.w3.org/2000/svg" xmlns:xlink="http://www.w3.org/1999/xlink" x="0px" y="0px"
	 viewBox="0 0 2500 2500" style="enable-background:new 0 0 2500 2500;" xml:space="preserve">
-
<g id="Illustration">
	<g id="Childcare_expenses_1_">
		<circle style="fill:transparent;" cx="1250" cy="1250" r="915"/>
		<g>
			<g>
				<circle style="fill:#E6D0BE;" cx="983.451" cy="590.447" r="60.846"/>
				
					<ellipse transform="matrix(0.3065 -0.9519 0.9519 0.3065 120.1739 1345.9993)" style="fill:#F7F1EB;" cx="983.793" cy="590.529" rx="29.521" ry="29.521"/>
				
					<ellipse transform="matrix(0.7071 -0.7071 0.7071 0.7071 -194.0324 979.7448)" style="fill:#E6D0BE;" cx="1085.64" cy="724.09" rx="160.278" ry="160.278"/>
				
					<ellipse transform="matrix(0.3583 -0.9336 0.9336 0.3583 181.8753 1583.9387)" style="fill:#E6D0BE;" cx="1243.2" cy="659.661" rx="60.846" ry="60.846"/>
				
					<ellipse transform="matrix(0.8741 -0.4857 0.4857 0.8741 -163.9105 686.8528)" style="fill:#F7F1EB;" cx="1243.2" cy="659.661" rx="29.521" ry="29.521"/>
				
					<ellipse transform="matrix(0.6747 -0.7381 0.7381 0.6747 -469.5528 1047.0137)" style="fill:#E6D0BE;" cx="953.098" cy="1056.231" rx="251.549" ry="216.565"/>
				<path style="fill:#E6D0BE;" d="M710.178,965.776l2.354,7.436c12.17,38.44,53.197,59.737,91.638,47.567l162.191-51.347
					c38.44-12.17,59.737-53.197,47.567-91.638l-2.354-7.436c-12.17-38.44-53.197-59.737-91.638-47.567l-162.191,73.396
					C719.305,908.356,698.008,927.336,710.178,965.776z"/>
				<path style="fill:#E6D0BE;" d="M890.838,1443.39L890.838,1443.39c52.525,11.58,104.493-21.612,116.073-74.138l26.806-121.588
					c11.58-52.525-21.612-104.493-74.138-116.073h0c-52.525-11.58-104.493,21.612-116.073,74.138L816.7,1327.317
					C805.12,1379.842,838.313,1431.809,890.838,1443.39z"/>
				<path style="fill:#E6D0BE;" d="M589.498,1073.305L589.498,1073.305c-11.58,52.525,21.612,104.493,74.138,116.073l131.849,29.068
					c52.525,11.58,104.493-21.613,116.073-74.138l0,0c11.58-52.525-21.612-104.493-74.138-116.073l-131.849-29.068
					C653.046,987.587,601.078,1020.78,589.498,1073.305z"/>
				<path style="fill:#363E44;" d="M754.608,1210.876c-0.706,0-1.4-0.338-1.826-0.965c-58.45-86.018-42.112-212.728,38.848-301.289
					c17.341-18.967,36.889-35.458,58.098-49.012c1.028-0.654,2.39-0.353,3.046,0.672c0.656,1.025,0.355,2.388-0.671,3.044
					c-20.885,13.345-40.137,29.586-57.218,48.271c-79.599,87.071-95.772,211.486-38.456,295.833
					c0.685,1.008,0.423,2.379-0.585,3.064C755.466,1210.753,755.034,1210.876,754.608,1210.876z"/>
				
					<ellipse transform="matrix(0.3688 -0.9295 0.9295 0.3688 -85.4163 1431.0447)" style="fill:#F7F1EB;" cx="1010.936" cy="778.412" rx="68.857" ry="79.6"/>
				<path style="fill:#363E44;" d="M828.891,1274.236c-0.157,0-0.317-0.017-0.477-0.052c-1.189-0.263-1.94-1.438-1.678-2.627
					l14.618-66.302c0.262-1.191,1.436-1.942,2.628-1.679c1.189,0.263,1.94,1.438,1.678,2.627l-14.618,66.302
					C830.815,1273.534,829.903,1274.236,828.891,1274.236z"/>
				<path style="fill:#E6D0BE;" d="M1215.239,1214.666L1215.239,1214.666c38.323-18.314,54.544-64.228,36.23-102.551
					l-85.816-179.575c-18.314-38.323-64.228-54.544-102.551-36.23l0,0c-38.323,18.314-54.544,64.228-36.23,102.551l85.816,179.575
					C1131.002,1216.76,1176.916,1232.98,1215.239,1214.666z"/>
				<path style="fill:#363E44;" d="M1120.782,1193.952c-0.668,0-1.327-0.301-1.761-0.874c-3.209-4.246-6.009-8.852-8.323-13.69
					l-71.083-148.748c-0.525-1.1-0.06-2.416,1.039-2.941c1.096-0.525,2.413-0.06,2.94,1.038l71.083,148.748
					c2.185,4.573,4.83,8.925,7.862,12.932c0.734,0.971,0.542,2.355-0.43,3.09
					C1121.713,1193.808,1121.245,1193.952,1120.782,1193.952z"/>
				<g>
					<path style="fill:#363E44;" d="M986.525,761.351l-11.358-10.854c-0.881-0.84-0.912-2.237-0.071-3.116
						c0.845-0.883,2.237-0.913,3.118-0.071l9.803,9.368l16.425-2.394c1.196-0.198,2.323,0.659,2.5,1.863
						c0.175,1.206-0.659,2.325-1.865,2.5L986.525,761.351z"/>
					<path style="fill:#363E44;" d="M983.041,780.415c-0.157,0-0.316-0.017-0.477-0.052c-1.189-0.263-1.94-1.438-1.678-2.627
						l4.183-18.978c0.262-1.189,1.43-1.934,2.628-1.679c1.189,0.263,1.94,1.438,1.678,2.627l-4.184,18.978
						C984.965,779.713,984.053,780.415,983.041,780.415z"/>
				</g>
				<path style="fill:#84524D;" d="M1117.193,733.197c-0.572,2.596,1.068,5.164,3.664,5.736c2.596,0.572,5.164-1.068,5.736-3.664
					s-1.068-5.164-3.664-5.736C1120.333,728.961,1117.765,730.601,1117.193,733.197z"/>
				<path style="fill:#84524D;" d="M954.246,680.619c-0.572,2.596,1.068,5.164,3.664,5.736c2.596,0.572,5.164-1.068,5.736-3.664
					s-1.068-5.164-3.664-5.736C957.386,676.383,954.818,678.024,954.246,680.619z"/>
			</g>
			<g>
				
					<rect x="960.963" y="869.583" transform="matrix(0.7071 -0.7071 0.7071 0.7071 -381.8577 1203.191)" style="fill:#D87355;" width="600.977" height="385.91"/>
				<polygon style="fill:#FFFFFF;" points="1469.875,919.47 1421.938,967.407 1374.001,919.47 1352.437,941.034 1400.375,988.971 
					1352.437,1036.909 1374,1058.473 1421.938,1010.535 1469.876,1058.473 1491.44,1036.909 1443.502,988.971 1491.439,941.034 				
					"/>
				<path style="fill:#D87355;" d="M1094.952,1054.133l-65.706-65.707c-8.771-8.77-13.601-20.431-13.601-32.836
					c0-12.402,4.831-24.064,13.601-32.835l86.403-86.401c8.771-8.772,20.432-13.601,32.836-13.601
					c12.403,0,24.065,4.829,32.835,13.601l65.705,65.705L1094.952,1054.133z M1148.485,827.162c-11.226,0-21.78,4.371-29.718,12.31
					l-86.403,86.401c-7.938,7.939-12.31,18.493-12.31,29.718c0,11.227,4.372,21.781,12.31,29.718l62.589,62.59l145.838-145.839
					l-62.588-62.588C1170.265,831.532,1159.71,827.162,1148.485,827.162z"/>
			</g>
			<g>
				<path style="fill:#D3BBA3;" d="M1240.001,1398.328l-114.778-7.636c-19.188-1.277-33.709-17.867-32.432-37.055l18.055-271.374
					c1.277-19.188,17.867-33.709,37.055-32.432l114.778,7.636c19.188,1.277,33.709,17.867,32.432,37.055l-18.055,271.374
					C1275.779,1385.084,1259.189,1399.604,1240.001,1398.328z"/>
				<path style="fill:#FFFFFF;" d="M1242.366,1400.613c-0.834,0-1.672-0.028-2.512-0.084l-114.778-7.637
					c-9.868-0.657-18.889-5.118-25.403-12.559s-9.739-16.975-9.082-26.843l18.055-271.374c0.656-9.868,5.116-18.889,12.557-25.403
					c7.443-6.516,16.976-9.745,26.843-9.084l114.779,7.637c20.371,1.356,35.839,19.031,34.485,39.402l-18.054,271.374
					c-0.657,9.868-5.118,18.89-12.559,25.403C1259.889,1397.405,1251.33,1400.613,1242.366,1400.613z M1145.542,1051.956
					c-7.897,0-15.436,2.825-21.433,8.074c-6.555,5.738-10.485,13.685-11.063,22.378l-18.054,271.374
					c-0.579,8.692,2.262,17.092,8,23.646c5.737,6.556,13.684,10.486,22.378,11.063l114.778,7.637
					c8.694,0.59,17.092-2.263,23.646-8.001c6.556-5.738,10.486-13.685,11.063-22.378l18.054-271.374
					c1.195-17.944-12.432-33.516-30.377-34.709l-114.779-7.637C1147.015,1051.98,1146.277,1051.956,1145.542,1051.956z"/>
				<path style="fill:#EFBC73;" d="M1239.081,958.008l5.879-52.018c1.91-16.896-10.677-31.965-27.644-33.094l0,0
					c-16.966-1.129-31.439,12.14-31.785,29.14l-1.064,52.338l-27.469-1.827c-13.054-0.869-24.34,9.01-25.209,22.064v0
					c-0.868,13.054,9.01,24.34,22.064,25.209l109.551,7.289c13.054,0.868,24.34-9.01,25.209-22.064v0
					c0.869-13.054-9.01-24.34-22.064-25.209L1239.081,958.008z"/>
				<path style="fill:#FFFFFF;" d="M1272.858,1118.751c-0.049,0-0.099-0.002-0.149-0.004l-48.174-3.204
					c-1.214-0.082-2.135-1.133-2.053-2.347c0.08-1.217,1.146-2.132,2.346-2.054l48.174,3.204c1.214,0.082,2.134,1.133,2.054,2.347
					C1274.979,1117.858,1274.01,1118.751,1272.858,1118.751z"/>
				<path style="fill:#FFFFFF;" d="M1267.841,1194.163c-0.05,0-0.099-0.002-0.149-0.004l-48.176-3.204
					c-1.214-0.082-2.135-1.133-2.053-2.347c0.08-1.216,1.153-2.127,2.346-2.054l48.176,3.204c1.214,0.082,2.134,1.133,2.054,2.347
					C1269.962,1193.269,1268.993,1194.163,1267.841,1194.163z"/>
				<path style="fill:#FFFFFF;" d="M1262.824,1269.577c-0.049,0-0.099-0.002-0.148-0.004l-48.176-3.206
					c-1.215-0.082-2.135-1.133-2.053-2.347c0.081-1.217,1.134-2.125,2.346-2.054l48.176,3.206c1.214,0.082,2.134,1.133,2.054,2.347
					C1264.945,1268.683,1263.976,1269.577,1262.824,1269.577z"/>
				<path style="fill:#FFFFFF;" d="M1257.807,1344.988c-0.049,0-0.099-0.002-0.149-0.004l-48.177-3.206
					c-1.215-0.082-2.135-1.133-2.053-2.347c0.081-1.217,1.141-2.121,2.346-2.054l48.177,3.206c1.214,0.082,2.134,1.132,2.054,2.347
					C1259.928,1344.095,1258.959,1344.988,1257.807,1344.988z"/>
				<path style="fill:#FFFFFF;" d="M1266.414,1059.991l-122.549-8.153c-9.776-0.651-17.174-9.103-16.524-18.879l1.134-17.047
					c0.65-9.776,9.103-17.174,18.879-16.524l122.549,8.153c9.776,0.651,17.174,9.103,16.524,18.879l-1.134,17.047
					C1284.643,1053.243,1276.19,1060.641,1266.414,1059.991z"/>
			</g>
			<g>
				<g>
					<path style="fill:#363E44;" d="M496.574,1055.707l142.635-196.836l1.113-0.009l241.959-2.071L496.574,1055.707z
						 M641.474,863.263l-130.463,180.037L863.804,861.36L641.474,863.263z"/>
					<path style="fill:#363E44;" d="M640.203,862.999c-0.799,0-1.571-0.435-1.962-1.195l-20.849-40.427
						c-9.153,4.121-19.364,4.709-29,1.634c-10.336-3.303-18.768-10.432-23.742-20.078c-4.974-9.644-5.894-20.649-2.591-30.984
						c3.302-10.337,10.433-18.769,20.077-23.743c19.907-10.264,44.457-2.424,54.726,17.486c0.559,1.081,0.133,2.412-0.948,2.969
						c-1.082,0.56-2.414,0.133-2.97-0.95c-9.153-17.746-31.041-24.733-48.786-15.587c-17.748,9.153-24.742,31.04-15.589,48.788
						c9.153,17.746,31.042,24.74,48.787,15.587l1.961-1.01l22.843,44.294c0.559,1.081,0.134,2.411-0.948,2.969
						C640.888,862.921,640.543,862.999,640.203,862.999z"/>
				</g>
				<path style="fill:#ff6900;" d="M728.219,842.738c12.133,38.828-5.068,81.887-42.521,101.006
					c-38.053,19.426-83.87,7.434-107.909-26.38L414.664,1111.63l155.675,122.963l34.18-42.583l131.833,193.403h405.127
					l-208.377-353.881l54.539-5.557l-3.436-196.299L728.219,842.738z"/>
			</g>
			<g>
				<path style="fill:#E6D0BE;" d="M621.9,1217.927v550.294h701.072v-550.294H621.9z M1074.661,1376.986H878.83
					c-19.711,0-35.691-15.979-35.691-35.691v0c0-19.711,15.979-35.69,35.691-35.69h195.831c19.711,0,35.691,15.979,35.691,35.69v0
					C1110.351,1361.007,1094.372,1376.986,1074.661,1376.986z"/>
				<polygon style="fill:#D3BBA3;" points="1510.232,1635.932 1322.972,1768.221 1322.972,1217.927 1510.232,1085.638 				"/>
			</g>
		</g>
		<g>
			<g>
				<circle style="fill:#EFBC73;" cx="1522.043" cy="1359.903" r="48.538"/>
				<path style="fill:#363E44;" d="M1534.389,1410.646c-27.978,0-50.741-22.763-50.741-50.743c0-27.98,22.763-50.743,50.741-50.743
					c27.98,0,50.743,22.763,50.743,50.743C1585.132,1387.883,1562.37,1410.646,1534.389,1410.646z M1534.389,1313.57
					c-25.547,0-46.331,20.784-46.331,46.334c0,25.549,20.784,46.333,46.331,46.333c25.549,0,46.333-20.784,46.333-46.333
					C1580.723,1334.354,1559.939,1313.57,1534.389,1313.57z"/>
			</g>
			<g>
				<path style="fill:#FFFFFF;" d="M2006.349,1349.656l-329.995,329.995c-11.841,11.841-31.039,11.841-42.88,0l-93.377-93.377
					l-9.901-42.974l-46.368-13.296l-28.682-28.682c-11.841-11.841-11.841-31.039,0-42.88l329.995-329.995
					c11.841-11.841,31.039-11.841,42.88,0l28.683,28.682l9.704,40.572l46.565,15.698l93.377,93.377
					C2018.191,1318.617,2018.191,1337.815,2006.349,1349.656z"/>
				
					<rect x="1434.738" y="1331.913" transform="matrix(0.7071 -0.7071 0.7071 0.7071 -472.4896 1602.7123)" style="fill:#D3BBA3;" width="527.325" height="79.578"/>
			</g>
			<path style="fill:#ff6900;" d="M1882.389,1844.027c-152.446,152.446-537.212,137.58-674.792,0
				c-96.113-96.113,49.387-321.005,49.387-321.005v0c0-62.641,50.781-113.422,113.422-113.422h349.174
				c62.641,0,113.422,50.781,113.422,113.422v3.762C1833.002,1526.785,1981.877,1744.539,1882.389,1844.027z"/>
			<path style="fill:#363E44;" d="M1833.002,1526.52c-1.219,0-2.205-0.986-2.205-2.205v-1.292c0-60.764-49.436-110.2-110.202-110.2
				H1369.39c-60.764,0-110.2,49.436-110.2,110.2c0,1.219-0.986,2.205-2.205,2.205c-1.219,0-2.205-0.986-2.205-2.205
				c0-63.197,51.413-114.61,114.61-114.61h351.206c63.197,0,114.612,51.413,114.612,114.61v1.292
				C1835.207,1525.534,1834.221,1526.52,1833.002,1526.52z"/>
			<path style="fill:#363E44;" d="M1254.627,1849.786c-37.744,0-57.728-43.767-59.864-74.845
				c-4.407-64.138,35.356-170.421,63.619-222.058l2.089-3.815l1.843,3.94c23.652,50.573,56.04,157.401,52.726,218.268
				C1313.07,1807.492,1296.064,1849.786,1254.627,1849.786z M1260.158,1558.884c-28.818,54.335-65.055,156.691-60.996,215.756
				c2.019,29.371,20.562,70.737,55.465,70.737c50.504,0,55.596-66.732,56.012-74.342
				C1313.826,1712.438,1283.421,1610.49,1260.158,1558.884z"/>
			<g>
				<circle style="fill:#EFBC73;" cx="1596.124" cy="1359.903" r="48.538"/>
				<path style="fill:#363E44;" d="M1608.47,1410.646c-27.98,0-50.743-22.763-50.743-50.743c0-27.98,22.763-50.743,50.743-50.743
					s50.743,22.763,50.743,50.743C1659.214,1387.883,1636.451,1410.646,1608.47,1410.646z M1608.47,1313.57
					c-25.549,0-46.333,20.784-46.333,46.334c0,25.549,20.784,46.333,46.333,46.333s46.333-20.784,46.333-46.333
					C1654.804,1334.354,1634.02,1313.57,1608.47,1313.57z"/>
			</g>
		</g>
		<g>
			<g>
				<ellipse style="fill:#E0AA63;" cx="885.335" cy="1911.64" rx="164.245" ry="52.008"/>
				<rect x="721.09" y="1859.83" style="fill:#E0AA63;" width="328.49" height="53.583"/>
				<ellipse style="fill:#EFBC73;" cx="885.335" cy="1860.847" rx="164.245" ry="52.008"/>
				<path style="fill:#FFFFFF;" d="M904.685,1915.059c-93.337,0-166.45-23.812-166.45-54.212c0-30.4,73.113-54.212,166.45-54.212
					c93.337,0,166.45,23.812,166.45,54.212C1071.135,1891.248,998.022,1915.059,904.685,1915.059z M904.685,1811.045
					c-87.835,0-162.04,22.806-162.04,49.802c0,26.996,74.205,49.802,162.04,49.802s162.04-22.806,162.04-49.802
					C1066.725,1833.851,992.521,1811.045,904.685,1811.045z"/>
			</g>
			<g>
				<ellipse style="fill:#E0AA63;" cx="919.197" cy="1826.985" rx="164.245" ry="52.008"/>
				<rect x="754.952" y="1775.175" style="fill:#E0AA63;" width="328.49" height="53.583"/>
				<ellipse style="fill:#EFBC73;" cx="919.197" cy="1776.193" rx="164.245" ry="52.008"/>
				<path style="fill:#FFFFFF;" d="M938.547,1830.404c-93.337,0-166.45-23.812-166.45-54.212c0-30.4,73.113-54.212,166.45-54.212
					s166.45,23.812,166.45,54.212C1104.996,1806.592,1031.883,1830.404,938.547,1830.404z M938.547,1726.39
					c-87.835,0-162.04,22.806-162.04,49.802s74.205,49.802,162.04,49.802c87.835,0,162.04-22.806,162.04-49.802
					S1026.382,1726.39,938.547,1726.39z"/>
			</g>
			<g>
				<ellipse style="fill:#E0AA63;" cx="885.335" cy="1742.331" rx="164.245" ry="52.008"/>
				<rect x="721.09" y="1690.52" style="fill:#E0AA63;" width="328.49" height="53.583"/>
				<ellipse style="fill:#EFBC73;" cx="885.335" cy="1691.538" rx="164.245" ry="52.008"/>
				<path style="fill:#FFFFFF;" d="M904.685,1745.751c-93.337,0-166.45-23.814-166.45-54.214c0-30.4,73.113-54.212,166.45-54.212
					c93.337,0,166.45,23.812,166.45,54.212C1071.135,1721.937,998.022,1745.751,904.685,1745.751z M904.685,1641.735
					c-87.835,0-162.04,22.806-162.04,49.802s74.205,49.804,162.04,49.804s162.04-22.808,162.04-49.804
					S992.521,1641.735,904.685,1641.735z"/>
			</g>
			<g>
				
					<ellipse transform="matrix(0.7104 -0.7038 0.7038 0.7104 -977.4227 1374.8689)" style="fill:#E0AA63;" cx="1182.033" cy="1875.201" rx="52.008" ry="164.245"/>
				
					<rect x="1035.562" y="1830.802" transform="matrix(0.7038 0.7104 -0.7104 0.7038 1675.1213 -302.0981)" style="fill:#E0AA63;" width="328.49" height="53.584"/>
				
					<ellipse transform="matrix(0.7104 -0.7038 0.7038 0.7104 -941.8168 1389.9132)" style="fill:#EFBC73;" cx="1218.118" cy="1839.455" rx="52.008" ry="164.245"/>
				<path style="fill:#FFFFFF;" d="M1330.945,1977.705c-30.618,0-85.032-33.158-137.724-86.35
					c-31.03-31.324-56.354-64.629-71.308-93.776c-15.329-29.879-17.928-52.121-7.32-62.629
					c21.595-21.398,89.971,13.789,155.654,80.097c31.031,31.324,56.356,64.629,71.31,93.776
					c15.328,29.879,17.929,52.121,7.321,62.629v0.002C1344.605,1975.685,1338.496,1977.705,1330.945,1977.705z M1132.441,1733.06
					c-6.284,0-11.304,1.615-14.744,5.023c-8.997,8.912-6.03,29.864,8.14,57.482c14.753,28.757,39.798,61.673,70.518,92.684
					c61.815,62.402,130.246,99.07,149.42,80.069c8.998-8.912,6.031-29.864-8.139-57.483c-14.753-28.757-39.799-61.672-70.518-92.684
					C1216.387,1766.94,1161.201,1733.06,1132.441,1733.06z M1347.326,1969.887h0.021H1347.326z"/>
			</g>
		</g>
		<g>
			<polygon style="fill:#E6D0BE;" points="1934.656,858.345 1934.656,554.777 1649.234,554.777 1649.234,858.345 1573.755,858.345 
				1791.945,1075.451 2010.136,858.345 			"/>
			<path style="fill:#FFFFFF;" d="M1765.872,1052.49l-1.554-1.548l-221.976-220.874h78.616V526.501h289.833v303.568h78.616
				L1765.872,1052.49z M1553.025,834.478l212.847,211.79l212.849-211.79h-72.341V530.911h-281.013v303.567H1553.025z"/>
			<g>
				<path style="fill:#FFFFFF;" d="M1688.731,891.642c-0.564,0-1.128-0.215-1.559-0.646c-0.861-0.861-0.861-2.257,0-3.118
					l172.107-172.107c0.861-0.861,2.256-0.861,3.118,0c0.861,0.861,0.861,2.257,0,3.118L1690.29,890.996
					C1689.859,891.427,1689.295,891.642,1688.731,891.642z"/>
				<path style="fill:#FFFFFF;" d="M1726.654,787.281c-17.841,0-32.355-14.517-32.355-32.357c0-17.841,14.514-32.355,32.355-32.355
					c17.841,0,32.357,14.514,32.357,32.355C1759.012,772.765,1744.495,787.281,1726.654,787.281z M1726.654,726.978
					c-15.41,0-27.946,12.536-27.946,27.946c0,15.41,12.536,27.948,27.946,27.948c15.41,0,27.948-12.538,27.948-27.948
					C1754.602,739.514,1742.064,726.978,1726.654,726.978z"/>
				<path style="fill:#FFFFFF;" d="M1823.574,884.198c-17.841,0-32.357-14.517-32.357-32.357c0-17.841,14.516-32.355,32.357-32.355
					s32.355,14.514,32.355,32.355C1855.929,869.682,1841.415,884.198,1823.574,884.198z M1823.574,823.895
					c-15.41,0-27.948,12.536-27.948,27.946c0,15.41,12.538,27.948,27.948,27.948s27.946-12.538,27.946-27.948
					C1851.52,836.431,1838.984,823.895,1823.574,823.895z"/>
			</g>
		</g>
	</g>
</g>
</svg>
