<?xml version="1.0" encoding="utf-8"?>
<!-- Generator: Adobe Illustrator 27.5.0, SVG Export Plug-In . SVG Version: 6.00 Build 0)  -->
<svg version="1.1" xmlns="http://www.w3.org/2000/svg" xmlns:xlink="http://www.w3.org/1999/xlink" x="0px" y="0px"
	 viewBox="0 0 2500 2500" style="enable-background:new 0 0 2500 2500;" xml:space="preserve">
-
<g id="Illustration">
	<g id="USB_connection_1_">
		<circle style="fill:transparent;" cx="1250" cy="1250" r="915"/>
		<g>
			<g>
				<g>
					<path style="fill:#E6D0BE;" d="M2152.18,827.239h-52.455c-4.697-25.57-11.396-50.435-19.911-74.443l45.396-26.21
						l-88.761-153.741l-45.499,26.27c-16.697-19.547-34.907-37.757-54.453-54.453l26.268-45.499l-153.74-88.762l-26.209,45.396
						c-24.009-8.516-48.874-15.214-74.444-19.912V383.43h-177.523l-0.001,52.455c-25.569,4.698-50.435,11.396-74.443,19.912
						l-26.209-45.397l-153.74,88.763l26.268,45.499c-19.547,16.696-37.756,34.906-54.453,54.453l-45.499-26.27l-88.761,153.741
						l45.396,26.21c-8.514,24.008-15.214,48.874-19.911,74.443h-52.455l-0.001,177.524h52.455
						c4.697,25.57,11.397,50.435,19.911,74.443l-45.396,26.21l88.761,153.741l45.499-26.27
						c16.697,19.547,34.906,37.757,54.453,54.453l-26.268,45.499l153.74,88.762l26.209-45.396
						c24.009,8.516,48.875,15.214,74.443,19.911v52.455h177.524v-52.455c25.57-4.697,50.436-11.396,74.444-19.911l26.208,45.396
						l153.74-88.762l-26.268-45.499c19.546-16.697,37.756-34.906,54.453-54.453l45.499,26.27l88.761-153.741l-45.396-26.21
						c8.515-24.009,15.214-48.874,19.911-74.443h52.455V827.239z M1985.234,1059.331
						c-36.968,103.386-118.921,185.337-222.307,222.299c-324.926,116.167-625.117-184.03-508.94-508.956
						c36.966-103.388,118.92-185.341,222.31-222.304C1801.223,434.206,2101.414,734.404,1985.234,1059.331z"/>
				</g>
			</g>
			<g>
				<g>
					<path style="fill:#ff6900;" d="M1620.195,1142.854c-4.262,0-7.717-3.455-7.717-7.717V660.055c0-4.262,3.455-7.717,7.717-7.717
						s7.717,3.455,7.717,7.717v475.082C1627.912,1139.4,1624.458,1142.854,1620.195,1142.854z"/>
				</g>
				<rect x="1687.234" y="670.985" style="fill:#ff6900;" width="41.829" height="41.829"/>
				
					<ellipse transform="matrix(0.7071 -0.7071 0.7071 0.7071 -316.949 1473.4984)" style="fill:#ff6900;" cx="1620.195" cy="1119.34" rx="47.931" ry="47.931"/>
				
					<ellipse transform="matrix(0.9727 -0.2322 0.2322 0.9727 -134.3921 374.2721)" style="fill:#ff6900;" cx="1522.741" cy="758.044" rx="24.488" ry="24.488"/>
				<polygon style="fill:#ff6900;" points="1587.478,658.874 1655.405,658.874 1621.442,603.332 				"/>
				<g>
					<path style="fill:#ff6900;" d="M1620.195,887.21c-1.974,0-3.95-0.754-5.457-2.26c-3.013-3.014-3.013-7.9,0-10.914
						l84.568-84.567V683.483c0-4.262,3.455-7.717,7.717-7.717c4.262,0,7.717,3.455,7.717,7.717v109.182
						c0,2.047-0.813,4.009-2.26,5.457l-86.828,86.828C1624.145,886.456,1622.17,887.21,1620.195,887.21z"/>
				</g>
				<g>
					<path style="fill:#ff6900;" d="M1619.61,970.234c-1.974,0-3.95-0.754-5.457-2.26l-96.712-96.712
						c-1.447-1.448-2.26-3.411-2.26-5.457V740.547c0-4.262,3.455-2.768,7.717-2.768c4.262,0,7.717-1.494,7.717,2.768v122.062
						l94.452,94.451c3.013,3.014,3.013,7.9,0,10.914C1623.56,969.48,1621.584,970.234,1619.61,970.234z"/>
				</g>
			</g>
		</g>
		<g>
			<path style="fill:#363E44;" d="M611.301,2072.094c-2.484,0-4.738-1.69-5.352-4.21c-0.142-0.586-14.245-59.566-12.51-140.177
				c1.603-74.497,17.412-183.393,83.625-279.111c81.492-117.804,218.905-189.299,408.421-212.498
				c178.927-21.903,306.552-142.302,341.396-322.071c37.622-194.093-45.731-396.1-198.194-480.325
				c-2.665-1.473-3.631-4.826-2.16-7.491c1.473-2.664,4.823-3.631,7.491-2.16c80.014,44.204,141.694,117.185,178.37,211.053
				c34.39,88.017,43.382,187.819,25.316,281.02c-16.534,85.303-54.682,160.361-110.321,217.06
				c-62.466,63.657-143.401,101.963-240.559,113.856c-186.258,22.8-321.07,92.723-400.694,207.828
				c-64.656,93.467-80.1,200.089-81.671,273.076c-1.704,79.186,12.061,136.762,12.201,137.335c0.719,2.957-1.095,5.938-4.053,6.658
				C612.171,2072.044,611.732,2072.094,611.301,2072.094z"/>
			<g>
				<g>
					<g>
						
							<rect x="1022.482" y="403.023" transform="matrix(0.7454 -0.6666 0.6666 0.7454 -21.9807 847.0041)" style="fill:#D3BBA3;" width="150.679" height="98.508"/>
						
							<rect x="1042.457" y="454.567" transform="matrix(0.7454 -0.6666 0.6666 0.7454 -39.1486 821.994)" style="fill:#F7F1EB;" width="28.085" height="15.359"/>
						
							<rect x="1094.128" y="408.355" transform="matrix(0.7454 -0.6666 0.6666 0.7454 4.8139 844.6732)" style="fill:#F7F1EB;" width="28.085" height="15.359"/>
					</g>
					<polygon style="fill:#D87355;" points="1067.246,536.167 1122.527,597.978 1123.146,597.424 1258.463,683.483 
						1308.891,638.383 1238.557,494.206 1239.176,493.653 1183.895,431.842 					"/>
				</g>
				<path style="fill:#363E44;" d="M1312.915,650.133c-0.663-0.707-1.475-1.177-2.336-1.454l2.05-1.891
					c2.238-2.064,2.379-5.551,0.314-7.788c-2.064-2.239-5.551-2.379-7.788-0.314l-46.789,43.158
					c-2.238,2.064-2.379,5.551-0.314,7.788c1.086,1.179,2.566,1.775,4.052,1.775c1.336,0,2.676-0.483,3.736-1.461l6.027-5.559
					c0.171,1.038,0.639,2.039,1.412,2.864c1.085,1.158,2.553,1.744,4.024,1.744c1.35,0,2.703-0.493,3.767-1.489l1.328-1.243
					c0.177,0.303,0.381,0.594,0.621,0.867c1.089,1.235,2.61,1.866,4.136,1.866c1.295,0,2.597-0.454,3.644-1.378l18.858-16.634
					c2.282-2.014,2.501-5.497,0.488-7.78c-0.498-0.564-1.087-1-1.725-1.31l4.238-3.969
					C1314.882,655.844,1314.996,652.355,1312.915,650.133z"/>
			</g>
		</g>
		<g>
			<rect x="343.887" y="816.819" style="fill:#ff6900;" width="770.895" height="509.181"/>
			<g>
				<g>
					<path style="fill:#84524D;" d="M711.439,861.481c0.06-1.5,39.601-107.337,39.601-107.337l69.946,46.824l-16.813,78.525
						L711.439,861.481z"/>
					<g>
						<g>
							<path style="fill:#84524D;" d="M853.469,827.642c-26.851,14.735-91.365-41.23-91.365-41.23l-30.35-88.513
								c4.971-42.8,43.697-73.465,86.497-68.494c42.8,4.971,73.466,43.697,68.494,86.497
								C886.745,715.902,880.817,812.634,853.469,827.642z"/>
							<path style="fill:#84524D;" d="M875.472,735.244c0.572,0.123-9.698,39.758-9.698,39.758s24.721-1.565,26.935-8.582
								C894.564,760.543,875.472,735.244,875.472,735.244z"/>
							<g>
								<path style="fill:#FFFFFF;" d="M805.922,723.805c0,0,13.784-5.471,29.424-3.654c3.328,0.387-6.043,26.284-9.027,24.41
									C813.201,736.319,805.922,723.805,805.922,723.805z"/>
								<g>
									<defs>
										<path id="SVGID_1_" d="M805.922,723.805c0,0,20.273-8.047,39.543-1.381c19.27,6.666,30.238,25.52,30.238,25.52
											s-20.274,8.047-39.543,1.381C816.89,742.659,805.922,723.805,805.922,723.805z"/>
									</defs>
									<clipPath id="SVGID_00000044174790736855684850000001456246333748771216_">
										<use xlink:href="#SVGID_1_"  style="overflow:visible;"/>
									</clipPath>
									<path style="clip-path:url(#SVGID_00000044174790736855684850000001456246333748771216_);fill:#363E44;" d="
										M836.088,719.544c11.545-9.142,28.316-7.194,37.458,4.351c9.143,11.545,7.195,28.316-4.351,37.458
										c-11.545,9.143-28.316,7.195-37.459-4.351C822.594,745.457,824.542,728.686,836.088,719.544z"/>
								</g>
							</g>
							<path style="fill:#363E44;" d="M846.307,788.468c-3.006,0-5.982-1.023-8.375-3.003c-3.823-3.164-5.548-8.346-4.392-13.201
								c0.28-1.184,1.474-1.919,2.655-1.634c1.184,0.281,1.916,1.469,1.634,2.655c-0.769,3.234,0.376,6.681,2.915,8.783
								c2.635,2.182,6.341,2.609,9.442,1.092c1.096-0.536,2.414-0.083,2.95,1.01c0.536,1.094,0.084,2.414-1.01,2.95
								C850.279,788.024,848.286,788.468,846.307,788.468z"/>
							<path style="fill:#363E44;" d="M829.172,831.414c-0.21,0-0.424-0.031-0.635-0.095c-29.829-8.959-66.487-40.564-68.033-41.906
								c-0.919-0.798-1.018-2.19-0.221-3.11c0.797-0.922,2.189-1.019,3.11-0.221c0.371,0.322,37.495,32.327,66.412,41.014
								c1.166,0.35,1.828,1.579,1.477,2.745C830.996,830.797,830.12,831.414,829.172,831.414z"/>
						</g>
						<g>
							<path style="fill:#363E44;" d="M696.186,756.261c-31.583-70.757,11.46-85.918,37.304-111.435
								c33.319-32.898,90.447-36.244,127.071-16.731c9.003,4.796,28.389,18.524,29.766,34.882
								c1.072,12.736-18.693,29.764-39.171,28.308c-28.793-2.046-56.563-17.605-68.202,14.479
								c-15.402,42.457-37.406,64.67-43.209,78.672C733.33,799.917,705.472,777.063,696.186,756.261z"/>
						</g>
					</g>
					<path style="fill:#363E44;" d="M831.278,638.909c0,0,56.131-108.021,20.687-127.263c-35.444-19.243-32.84,34.769-32.84,34.769
						s10.53-77.945-57.176-74.029c-40.402,2.337-37.856,29.538-37.856,29.538s-53.696-47.62-81.656-13.067
						c-27.959,34.553,5.546,68.261,5.546,68.261s-53.69-13.63-58.101,23.341c-4.411,36.971,43.994,58.391,43.994,58.391
						s-71.776-32.052-78.094,2.77c-6.318,34.822,36.697,57.658,68.201,54.742c0,0-56.609,3.549-36.058,36.824
						c20.551,33.275,138.589-9.626,138.589-9.626L831.278,638.909z"/>
					<g>
						<path style="fill:#84524D;" d="M779.491,737.219c0,15.659-7.166,35.009-22.825,35.009c-15.659,0-33.881-19.35-33.881-35.009
							c0-15.659,12.694-28.353,28.353-28.353C766.797,708.866,779.491,721.56,779.491,737.219z"/>
						<path style="fill:#363E44;" d="M761.951,756.349c-0.779,0-1.535-0.414-1.936-1.146l-10.811-19.748
							c-0.586-1.068-0.194-2.407,0.875-2.992c1.069-0.585,2.408-0.193,2.992,0.875l10.811,19.748
							c0.586,1.068,0.194,2.407-0.875,2.992C762.671,756.262,762.309,756.349,761.951,756.349z"/>
					</g>
					<path style="fill:#D87355;" d="M707.676,729.495c0,0,46.323-102.921,157.216-98.865l-14.894-34.206
						c0,0-117.532-39.306-163.851,86.563c-4.841,13.154-0.215,27.968,10.45,37.061L707.676,729.495z"/>
				</g>
				<g>
					<polygon style="fill:#EFBC73;" points="403.418,1326 510.987,944.276 937.031,1004.534 1014.562,1326 					"/>
					<g>
						<g>
							<path style="fill:#84524D;" d="M865.547,894.643c81.393,3.57,380.609,0.562,399.364,1.203
								c35.061,1.199,223.052,12.515,224.36,39.818c0.625,13.047-35.69,12.503-47.962,11.963
								c9.695,5.323,49.144,21.732,46.027,36.039c-3.661,16.808-53.661,4.452-54.561,4.75c10.394,4.407,52.509,20.285,50.59,31.101
								c-2.497,14.073-46.107,11.052-59.12,9.543c1.159,1.935,42.95,19.536,41.063,28.088c-2.09,9.475-42.823,7.631-59.025,8.4
								c-31.151-1.041-152.337,3.149-211.285,5.41c-141.927,5.443-285.672,3.789-357.472,3.789
								C810.899,1074.747,830.429,920.912,865.547,894.643z"/>
							<path style="fill:#363E44;" d="M1441.785,948.548c-0.275,0-0.553-0.052-0.823-0.161c-6.718-2.71-13.678-4.975-20.685-6.73
								c-12.56-3.148-25.55-4.743-38.612-4.743c-0.031,0-0.063,0-0.096,0c-1.218,0-2.205-0.986-2.206-2.204
								c0-1.249,1.078-2.185,2.302-2.206c13.424,0,26.773,1.64,39.685,4.875c7.203,1.805,14.357,4.133,21.262,6.919
								c1.129,0.455,1.675,1.74,1.22,2.869C1443.484,948.026,1442.658,948.548,1441.785,948.548z"/>
							<path style="fill:#363E44;" d="M1433.506,989.745c-0.198,0-0.399-0.027-0.599-0.084c-1.463-0.411-2.957-0.811-4.484-1.193
								c-12.557-3.147-25.543-4.742-38.596-4.742c-0.038,0-0.074,0-0.112,0c-1.218,0-2.205-0.986-2.206-2.204
								c-0.001-1.255,1.038-2.233,2.318-2.206c13.415,0,26.76,1.64,39.669,4.874c1.567,0.393,3.105,0.803,4.607,1.227
								c1.172,0.331,1.855,1.548,1.524,2.719C1435.353,989.108,1434.468,989.745,1433.506,989.745z"/>
							<path style="fill:#363E44;" d="M1423.413,1030.858c-0.116,0-0.235-0.009-0.353-0.028c-8.341-1.346-16.882-2.027-25.385-2.027
								c-0.039,0-0.076,0-0.115,0c-1.217,0-2.205-0.986-2.206-2.204c0-1.255,1.076-2.21,2.321-2.206
								c8.737,0,17.514,0.701,26.086,2.083c1.203,0.194,2.02,1.325,1.826,2.528
								C1425.413,1030.087,1424.477,1030.858,1423.413,1030.858z"/>
						</g>
						<g>
							<polygon style="fill:#FFD092;" points="902.539,1079.034 831.278,1079.034 858.44,886.986 929.7,886.986 							"/>
							<g>
								<path style="fill:#EFBC73;" d="M858.44,886.986c0,0-91.598-35.894-184.478-35.894c-88.366,0-159.417,44.492-168.086,115.866
									c-8.669,71.375,37.021,152.263,186.849,152.382c108.675,0.086,138.554-40.306,138.554-40.306L858.44,886.986z"/>
								<path style="fill:#363E44;" d="M693.08,1121.545c-0.119,0-0.238,0-0.357,0c-62.241-0.049-110.71-13.772-144.063-40.788
									c-0.946-0.767-1.092-2.154-0.325-3.101c0.765-0.947,2.156-1.093,3.101-0.325c32.548,26.363,80.085,39.756,141.291,39.804
									c0.11,0,0.237,0,0.347,0c106.064,0,136.14-39.017,136.433-39.412c0.722-0.978,2.104-1.185,3.083-0.461
									c0.979,0.724,1.185,2.105,0.462,3.083C831.805,1082.029,801.329,1121.545,693.08,1121.545z"/>
								<path style="fill:#363E44;" d="M837.651,925.625c-11.051,0-71.038-0.839-85.426-18.798
									c-2.986-3.727-3.95-7.954-2.864-12.563c1.068-4.535,3.727-7.714,7.903-9.448c22.163-9.194,83.297,28.202,85.887,29.798
									c1.037,0.64,1.36,1.997,0.721,3.034c-0.637,1.037-1.997,1.36-3.034,0.721c-17.121-10.548-65.204-36.413-81.884-29.481
									c-2.832,1.177-4.567,3.265-5.302,6.387c-0.769,3.266-0.111,6.142,2.013,8.794c14.201,17.725,82.9,17.157,83.595,17.138
									c1.163-0.014,2.216,0.963,2.23,2.18c0.014,1.218-0.962,2.216-2.18,2.23C839.097,925.62,838.527,925.625,837.651,925.625z"/>
								<path style="fill:#363E44;" d="M795.747,982.966c-15.012,0.001-31.476-2.024-38.457-9.949
									c-3.542-4.02-4.465-9.108-2.743-15.123c1.832-6.401,5.732-10.933,11.591-13.466c21.133-9.14,61.121,11.24,62.814,12.111
									c1.082,0.558,1.507,1.887,0.951,2.97c-0.557,1.082-1.885,1.507-2.97,0.951c-0.395-0.203-39.828-20.293-59.046-11.984
									c-4.653,2.012-7.63,5.489-9.1,10.63c-1.299,4.54-0.706,8.137,1.812,10.996c10.289,11.678,49.836,8.508,64.208,6.301
									c1.194-0.179,2.33,0.639,2.514,1.844c0.185,1.204-0.641,2.33-1.844,2.514C824.371,980.933,810.788,982.966,795.747,982.966z
									"/>
							</g>
						</g>
					</g>
				</g>
			</g>
		</g>
		<g>
			<g>
				<path style="fill:#FFFFFF;" d="M1287.455,1680.395h-15.394c-1.379-7.504-3.345-14.802-5.844-21.848l13.323-7.692l-26.05-45.12
					l-13.353,7.71c-4.9-5.737-10.245-11.081-15.981-15.981l7.709-13.353l-45.12-26.05l-7.692,13.323
					c-7.046-2.499-14.344-4.465-21.848-5.844v-15.394h-52.1l0,15.394c-7.504,1.379-14.802,3.344-21.848,5.844l-7.692-13.323
					l-45.12,26.05l7.709,13.353c-5.736,4.9-11.081,10.244-15.981,15.981l-13.353-7.71l-26.05,45.12l13.323,7.692
					c-2.499,7.046-4.465,14.344-5.843,21.848h-15.395v52.1h15.395c1.378,7.504,3.345,14.802,5.843,21.848l-13.323,7.692l26.05,45.12
					l13.353-7.709c4.9,5.737,10.245,11.081,15.981,15.981l-7.709,13.353l45.12,26.05l7.692-13.323
					c7.046,2.499,14.344,4.465,21.848,5.843v15.395h52.1v-15.395c7.504-1.378,14.802-3.344,21.848-5.843l7.692,13.323l45.12-26.05
					l-7.709-13.353c5.737-4.9,11.081-10.244,15.981-15.981l13.353,7.709l26.05-45.12l-13.323-7.692
					c2.499-7.046,4.465-14.344,5.844-21.848h15.394V1680.395z M1238.459,1748.51c-10.849,30.342-34.901,54.393-65.244,65.241
					c-95.36,34.093-183.461-54.009-149.365-149.37c10.849-30.343,34.901-54.394,65.244-65.242
					C1184.455,1565.046,1272.556,1653.149,1238.459,1748.51z"/>
			</g>
		</g>
		<g>
			<g>
				<path style="fill:#363E44;" d="M1518.141,1449.723c-0.684,0-1.368-0.041-2.055-0.124c-6.395-0.765-11.925-5.026-15.571-11.997
					c-3.503-6.697-4.86-15.167-3.82-23.847c2.18-18.222,14.426-31.808,27.306-30.252c6.396,0.765,11.926,5.026,15.573,11.997
					c3.503,6.697,4.86,15.167,3.82,23.847c-1.039,8.679-4.356,16.589-9.342,22.27
					C1529.419,1446.897,1523.836,1449.722,1518.141,1449.723z M1521.955,1387.79c-9.898,0-19.082,11.449-20.883,26.489
					c-0.934,7.805,0.255,15.363,3.35,21.28c2.951,5.643,7.28,9.075,12.189,9.663c4.908,0.583,9.925-1.726,14.126-6.512
					c4.404-5.019,7.344-12.081,8.279-19.886c0.935-7.806-0.255-15.363-3.35-21.28c-2.951-5.643-7.28-9.074-12.189-9.663
					C1522.968,1387.82,1522.46,1387.79,1521.955,1387.79z M1498.883,1414.017h0.021H1498.883z"/>
				<path style="fill:#E2A18D;" d="M1527.747,1411.894c5.718-48.13,13.293-75.68,36.604-93.865
					c31.327-24.44,73.517-12.865,77.903-11.59c2.8,0.813,43.308,9.986,58.577,48.889c15.079,38.42,9.286,83.483-17.011,114.808
					l31.107,129.282c6.51,28.539-22.176,16.567-50.715,23.077l-6.465,1.475c-28.539,6.51-56.952-11.348-63.462-39.887
					l-13.547-59.384c-18.45,2.615-33.97,0.636-41.802-7.225C1524.906,1503.394,1521.013,1468.573,1527.747,1411.894z"/>
				<path style="fill:#363E44;" d="M1555.386,1422.757c-0.207,0-0.416-0.029-0.623-0.09l-53.629-15.775
					c-1.168-0.344-1.837-1.57-1.493-2.738c0.346-1.168,1.568-1.836,2.738-1.493l53.63,15.775c1.168,0.343,1.837,1.57,1.493,2.738
					C1557.217,1422.133,1556.339,1422.757,1555.386,1422.757z"/>
				<path style="fill:#363E44;" d="M1579.6,1525.682c-1.029,0-1.95-0.723-2.16-1.772l-4.382-21.872
					c-0.239-1.194,0.535-2.355,1.729-2.594c1.203-0.238,2.355,0.535,2.594,1.729l4.382,21.872c0.239,1.194-0.535,2.355-1.729,2.594
					C1579.889,1525.668,1579.743,1525.682,1579.6,1525.682z"/>
				<path style="fill:#363E44;" d="M1569.48,1443.774c-0.369,0-0.743-0.093-1.087-0.287c-1.058-0.602-1.429-1.949-0.828-3.007
					c1.844-3.244,3.468-6.224,5.154-9.321c1.399-2.568,2.841-5.215,4.486-8.155c0.593-1.064,1.933-1.444,3-0.847
					c1.063,0.594,1.443,1.938,0.847,3c-1.635,2.924-3.069,5.557-4.461,8.112c-1.699,3.119-3.334,6.122-5.191,9.39
					C1570.993,1443.373,1570.248,1443.774,1569.48,1443.774z"/>
				<path style="fill:#363E44;" d="M1540.586,1303.942c-3.28,3.668-10.021,11.377-13.383,23.402
					c-11.974,42.825,34.66,84.052,37.672,86.644c-4.969-5.59-14.796-18.151-19.059-37.166c-4.389-19.574,0.439-31.249,2.635-38.407
					c1.978,10.617,6.342,26.051,22.695,42.396c27.559,27.546,59.166,36.308,84.59,38.174c23.261,1.707,61.634-5.587,71.17-29.78
					c14.265-36.191-19.468-80.818-56.25-100.282C1627.527,1266.099,1568.458,1272.768,1540.586,1303.942z"/>
				
					<ellipse transform="matrix(0.3941 -0.9191 0.9191 0.3941 -150.0701 2381.4961)" style="fill:#363E44;" cx="1731.153" cy="1304.565" rx="32.922" ry="32.922"/>
				<path style="fill:#363E44;" d="M1739.351,1346.582c-3.779,0-7.707-0.5-11.656-1.552c-8.948-2.387-16.694-7.231-21.811-13.64
					c-5.271-6.604-7.15-14.08-5.29-21.053c3.771-14.139,22.063-21.583,40.78-16.59c8.948,2.387,16.694,7.231,21.811,13.64
					c5.271,6.604,7.15,14.081,5.29,21.054C1765.499,1339.595,1753.483,1346.582,1739.351,1346.582z M1729.609,1296.588
					c-12.121,0-22.303,5.696-24.754,14.885c-1.49,5.586,0.099,11.683,4.475,17.166c4.532,5.677,11.458,9.984,19.502,12.13
					c16.365,4.363,32.238-1.676,35.381-13.466c1.49-5.586-0.099-11.683-4.475-17.166c-4.532-5.677-11.458-9.984-19.502-12.13
					C1736.627,1297.044,1733.04,1296.588,1729.609,1296.588z"/>
				<path style="fill:#363E44;" d="M1592.693,1455.503c-0.571,0-1.141-0.221-1.573-0.66c-0.854-0.868-0.841-2.264,0.028-3.118
					c9.897-9.725,12.776-23.878,7-34.418c-4.101-7.481-13.16-14.712-23.357-12.924c-8.098,1.423-14.88,7.998-17.28,16.75
					c-0.322,1.175-1.537,1.87-2.709,1.544c-1.175-0.322-1.866-1.535-1.544-2.709c2.847-10.39,10.999-18.212,20.769-19.928
					c12.338-2.168,23.157,6.333,27.988,15.148c6.72,12.262,3.521,28.581-7.777,39.682
					C1593.81,1455.293,1593.251,1455.503,1592.693,1455.503z"/>
			</g>
			<g>
				<g>
					<path style="fill:#E2A18D;" d="M1064.691,1948.255l-43.353-215.877c-54.085-60.406-104.379-116.245-120.904-133.453
						c-3.711-3.864-10.231-10.714-20.8-16.988c-39.161-23.25-71.167-1.339-123.499-6.997c-59.379-6.42-79.955-48.667-90.979-38.127
						c-7.669,7.332-9.605,29.557,16.831,56.39c0.002,0.002-0.001,0.007-0.004,0.005c-22.429-18.078-53.918-41.266-63.873-28.841
						c-10.726,14.96,23.071,46.549,44.45,64.658c-25.878-21.92-46.197-25.834-50.02-17.524c-6.018,13.08,10.09,34.752,45.414,62.396
						c0.002,0.001,0,0.003-0.001,0.003c-29.723-12.274-38.763-10.821-40.352-2.652c-2.901,14.917,26.568,37.097,55.626,52.712
						c32.711,17.579,64.18,19.864,84.055,20.832c0.005,0,0.01,0.003,0.013,0.008c78.3,103.085,123.797,163.332,182.395,242.582
						L1064.691,1948.255z"/>
					<path style="fill:#E2A18D;" d="M802.926,1591.324c-37.568-45.618-41.451-70.034-34.032-75.757
						c12.477-9.625,60.492,16.192,123.797,75.947C867.677,1593.703,827.939,1589.134,802.926,1591.324z"/>
					<path style="fill:#363E44;" d="M790.798,1579.569c-1.144,0-2.111-0.883-2.196-2.042c-0.09-1.214,0.822-2.272,2.036-2.361
						c7.027-0.52,13.713-1.307,20.179-2.068c13.898-1.635,27.023-3.178,40.107-1.575c1.208,0.149,2.068,1.249,1.919,2.458
						c-0.15,1.209-1.254,2.07-2.458,1.92c-12.551-1.542-25.425-0.027-39.053,1.577c-6.513,0.766-13.247,1.559-20.37,2.085
						C790.908,1579.567,790.853,1579.569,790.798,1579.569z"/>
					<path style="fill:#363E44;" d="M732.421,1614.082c-0.109,0-0.217-0.008-0.328-0.024c-7.244-1.079-14.421-2.836-21.331-5.224
						c-10.021-3.464-19.565-8.272-28.368-14.292c-1.005-0.688-1.263-2.06-0.576-3.065c0.688-1.004,2.057-1.262,3.065-0.576
						c8.479,5.797,17.67,10.429,27.319,13.764c6.653,2.299,13.565,3.992,20.541,5.03c1.204,0.18,2.035,1.302,1.856,2.506
						C734.435,1613.296,733.494,1614.082,732.421,1614.082z"/>
					<path style="fill:#363E44;" d="M709.746,1646.942c-0.109,0-0.217-0.008-0.328-0.024c-7.251-1.081-14.428-2.839-21.332-5.225
						c-10.022-3.466-19.566-8.274-28.367-14.292c-1.006-0.688-1.263-2.06-0.575-3.065c0.686-1.004,2.057-1.262,3.064-0.576
						c8.477,5.797,17.668,10.429,27.318,13.764c6.648,2.299,13.559,3.991,20.542,5.031c1.205,0.18,2.035,1.302,1.856,2.506
						C711.76,1646.156,710.819,1646.942,709.746,1646.942z"/>
					<path style="fill:#363E44;" d="M707.605,1695.464c-0.109,0-0.217-0.008-0.328-0.024c-7.251-1.081-14.428-2.839-21.331-5.225
						c-10.02-3.463-19.565-8.271-28.368-14.29c-1.005-0.688-1.263-2.06-0.576-3.065c0.687-1.005,2.056-1.261,3.065-0.576
						c8.479,5.798,17.671,10.429,27.319,13.763c6.647,2.298,13.558,3.991,20.541,5.031c1.205,0.18,2.035,1.302,1.856,2.506
						C709.619,1694.678,708.678,1695.464,707.605,1695.464z"/>
				</g>
				<path style="fill:#363E44;" d="M793.975,1845.264l210.214-158.96l105.133,119.11l119.819-131.31
					c42.879-60.085,128.127-99.856,201.937-98.898l413.393,3.013c50.745,0.659,97.537,27.614,123.432,71.26
					c50.313,84.799,124.21,249.495,147.458,511.155h-793.595l-1.455-201.221l-113.47,101.774
					c-80.513,72.213-205.6,59.956-270.563-26.512L793.975,1845.264z"/>
				<path style="fill:#D3BBA3;" d="M1328.739,1953.173c-0.564,0-1.128-0.215-1.559-0.646c-0.861-0.861-0.861-2.256,0-3.118
					l58.906-58.906c0.861-0.861,2.256-0.861,3.118,0c0.861,0.861,0.861,2.257,0,3.118l-58.906,58.906
					C1329.868,1952.958,1329.303,1953.173,1328.739,1953.173z"/>
			</g>
			<g>
				<g>
					<polygon style="fill:#EFBC73;" points="2140.663,2160.634 2023.208,2160.634 1931.296,1839.629 2140.663,1839.629 					"/>
					<rect x="2009.108" y="1818.939" style="fill:#EFBC73;" width="90.398" height="55.12"/>
				</g>
				<path style="fill:#D3BBA3;" d="M2023.207,2162.84c-0.959,0-1.841-0.631-2.119-1.599l-108.046-377.351
					c-0.335-1.171,0.342-2.392,1.513-2.727c1.168-0.335,2.391,0.34,2.727,1.513l108.046,377.351
					c0.335,1.171-0.342,2.392-1.513,2.727C2023.612,2162.812,2023.408,2162.84,2023.207,2162.84z"/>
			</g>
		</g>
	</g>
</g>
</svg>
