<?xml version="1.0" encoding="utf-8"?>
<!-- Generator: Adobe Illustrator 27.5.0, SVG Export Plug-In . SVG Version: 6.00 Build 0)  -->
<svg version="1.1" xmlns="http://www.w3.org/2000/svg" xmlns:xlink="http://www.w3.org/1999/xlink" x="0px" y="0px"
	 viewBox="0 0 2500 2500" style="enable-background:new 0 0 2500 2500;" xml:space="preserve">
-
<g id="Illustration">
	<g>
		<circle style="fill:transparent;" cx="1250" cy="1250" r="915"/>
		<g>
			<g>
				<path style="fill:#FFFFFF;" d="M1364.591,496.073h-15.798c-1.415-7.704-3.432-15.196-5.997-22.43l13.672-7.897l-26.732-46.322
					l-13.703,7.915c-5.029-5.889-10.513-11.376-16.4-16.407l7.911-13.709l-46.302-26.744l-7.893,13.678
					c-7.231-2.566-14.72-4.584-22.421-5.999v-15.805h-53.465v15.805c-7.701,1.415-15.19,3.434-22.421,5.999l-7.893-13.678
					l-46.302,26.744l7.911,13.709c-5.887,5.031-11.371,10.517-16.4,16.407l-13.703-7.915l-26.733,46.322l13.672,7.897
					c-2.564,7.234-4.582,14.726-5.997,22.43h-15.798l0,0v53.488h15.798c1.415,7.704,3.432,15.196,5.997,22.43l-13.672,7.897
					l26.732,46.322l13.703-7.915c5.029,5.89,10.513,11.376,16.4,16.407l-7.911,13.709l46.302,26.744l0,0l7.893-13.678
					c7.231,2.566,14.72,4.584,22.421,5.999v15.805h53.465v-15.805c7.701-1.415,15.19-3.434,22.421-5.999l7.893,13.678l0,0
					l46.302-26.744l-7.911-13.709c5.887-5.031,11.371-10.517,16.4-16.407l13.703,7.915l26.732-46.322l-13.672-7.897
					c2.564-7.234,4.582-14.726,5.997-22.43h15.798V496.073z M1291.622,525.68c-1.462,45.819-38.764,83.138-84.564,84.601
					c-50.574,1.615-91.905-39.733-90.291-90.328c1.462-45.819,38.764-83.138,84.564-84.601
					C1251.906,433.737,1293.237,475.085,1291.622,525.68z"/>
			</g>
			<path style="fill:#F2E6DC;" d="M1199.606,646.615c-65.705,0-119.161-53.477-119.161-119.209
				c0-58.525,43.558-109.203,101.318-117.881c1.208-0.19,2.328,0.649,2.508,1.853c0.181,1.204-0.65,2.327-1.854,2.507
				c-55.62,8.357-97.563,57.16-97.563,113.521c0,63.3,51.477,114.799,114.752,114.799c52.283,0,97.957-35.31,111.076-85.868
				c0.303-1.18,1.511-1.892,2.687-1.581c1.18,0.306,1.886,1.509,1.58,2.687C1301.327,609.947,1253.895,646.615,1199.606,646.615z"/>
		</g>
		<g>
			<g>
				<rect x="774.597" y="514.532" style="fill:#D3BBA3;" width="1304.411" height="924.971"/>
				
					<rect x="1044.884" y="326.095" transform="matrix(-1.836970e-16 1 -1 -1.836970e-16 2364.1787 -489.4265)" style="fill:#F2E6DC;" width="763.838" height="1222.562"/>
				<path style="fill:#D3BBA3;" d="M1564.11,1459.101h-38.618l0,0c0,28.969-23.484,52.453-52.453,52.453h-92.474
					c-28.969,0-52.453-23.484-52.453-52.453l0,0h-38.616l-38.618,205.227v17.163h351.849v-17.163L1564.11,1459.101z"/>
				<path style="fill:#D3BBA3;" d="M1602.728,1705.15h-351.849c-1.219,0-2.205-0.987-2.205-2.205c0-1.218,0.986-2.205,2.205-2.205
					h351.849c1.219,0,2.205,0.987,2.205,2.205C1604.933,1704.163,1603.947,1705.15,1602.728,1705.15z"/>
			</g>
			<rect x="814.784" y="554.463" style="fill:#EFBC73;" width="1223.735" height="72.148"/>
			<rect x="814.09" y="625.224" style="fill:#FFFFFF;" width="1223.908" height="376"/>
			<g>
				
					<ellipse transform="matrix(0.7071 -0.7071 0.7071 0.7071 -454.9769 1105.3398)" style="fill:#EFBC73;" cx="1106.775" cy="1101.876" rx="74.298" ry="74.298"/>
				
					<ellipse transform="matrix(0.7071 -0.7071 0.7071 0.7071 -363.2981 1330.557)" style="fill:#EFBC73;" cx="1424.475" cy="1103.818" rx="74.298" ry="74.298"/>
				<circle style="fill:#EFBC73;" cx="1721.489" cy="1101.879" r="74.298"/>
				<rect x="979.901" y="1201.015" style="fill:#E6D0BE;" width="249.048" height="91.572"/>
				<rect x="1296.928" y="1201.709" style="fill:#E6D0BE;" width="249.048" height="91.572"/>
				<rect x="1601.452" y="1201.02" style="fill:#E6D0BE;" width="249.048" height="91.572"/>
			</g>
			<g>
				<rect x="867.51" y="650.198" style="fill:#EFBC73;" width="251.64" height="30.524"/>
				<rect x="1156.385" y="649.157" style="fill:#EFBC73;" width="251.64" height="30.524"/>
				<rect x="1441.4" y="649.157" style="fill:#EFBC73;" width="251.64" height="30.524"/>
				<rect x="1725.137" y="650.199" style="fill:#EFBC73;" width="251.64" height="30.524"/>
			</g>
			<g>
				
					<ellipse transform="matrix(0.7071 -0.7071 0.7071 0.7071 -165.3239 777.0884)" style="fill:#F7F1EB;" cx="855.367" cy="588.108" rx="16.649" ry="16.649"/>
				
					<ellipse transform="matrix(0.7071 -0.7071 0.7071 0.7071 -150.0848 813.8788)" style="fill:#F7F1EB;" cx="907.396" cy="588.108" rx="16.649" ry="16.649"/>
				
					<ellipse transform="matrix(0.7071 -0.7071 0.7071 0.7071 -134.3619 853.916)" style="fill:#F7F1EB;" cx="963.587" cy="589.147" rx="16.649" ry="16.649"/>
			</g>
			<path style="fill:#F7F1EB;" d="M1210.32,605.801h-149.028c-9.133,0-16.537-7.404-16.537-16.538v-0.227
				c0-9.133,7.404-16.537,16.537-16.537h149.028c9.133,0,16.538,7.404,16.538,16.537v0.227
				C1226.858,598.396,1219.453,605.801,1210.32,605.801z"/>
		</g>
		<g>
			<g>
				<path style="fill:#E6D0BE;" d="M2002.597,2063.466h-303.681c-16.258,0-29.438-13.18-29.438-29.438v-614.506
					c0-16.258,13.18-29.438,29.438-29.438h303.681c16.258,0,29.438,13.18,29.438,29.438v614.506
					C2032.036,2050.286,2018.856,2063.466,2002.597,2063.466z"/>
				<polygon style="fill:#F2E6DC;" points="2010.123,2028.203 1693.58,2028.203 1693.58,1431.023 1764.913,1431.023 
					1938.786,1431.023 2010.123,1431.023 				"/>
				<path style="fill:#363E44;" d="M2004.459,2071.259h-303.681c-17.447,0-31.643-14.196-31.643-31.644v-614.506
					c0-17.448,14.196-31.643,31.643-31.643h303.681c17.447,0,31.643,14.195,31.643,31.643v614.506
					C2036.102,2057.063,2021.906,2071.259,2004.459,2071.259z M1700.778,1397.876c-15.016,0-27.233,12.217-27.233,27.233v614.506
					c0,15.017,12.217,27.234,27.233,27.234h303.681c15.016,0,27.233-12.217,27.233-27.234v-614.506
					c0-15.016-12.217-27.233-27.233-27.233H1700.778z"/>
			</g>
			
				<ellipse transform="matrix(0.1602 -0.9871 0.9871 0.1602 -190.0517 3188.6685)" style="fill:#EFBC73;" cx="1778.889" cy="1706.024" rx="41.646" ry="41.646"/>
			
				<ellipse transform="matrix(0.1602 -0.9871 0.9871 0.1602 -311.1704 3290.4644)" style="fill:#EFBC73;" cx="1778.153" cy="1828.101" rx="41.646" ry="41.646"/>
			
				<ellipse transform="matrix(0.1602 -0.9871 0.9871 0.1602 -436.843 3397.4475)" style="fill:#EFBC73;" cx="1778.189" cy="1955.447" rx="41.646" ry="41.646"/>
			<rect x="1693.766" y="1461.41" style="fill:#FFFFFF;" width="316.118" height="171.249"/>
			<rect x="1693.144" y="1430.472" style="fill:#EFBC73;" width="316.97" height="31.741"/>
			<rect x="1983.464" y="1467.452" style="fill:#FFD092;" width="19.734" height="4.242"/>
			<rect x="1983.323" y="1475.401" style="fill:#FFD092;" width="19.734" height="4.242"/>
			<rect x="1983.191" y="1483.047" style="fill:#FFD092;" width="19.734" height="4.242"/>
			<rect x="1983.05" y="1490.996" style="fill:#FFD092;" width="19.734" height="4.242"/>
			<rect x="1843.62" y="1680.739" style="fill:#E6D0BE;" width="125.608" height="53.365"/>
			<rect x="1844.241" y="1801.729" style="fill:#E6D0BE;" width="125.608" height="53.365"/>
			<rect x="1844.242" y="1928.919" style="fill:#E6D0BE;" width="125.608" height="53.365"/>
			<circle style="fill:#F7F1EB;" cx="1710.464" cy="1446.781" r="6.769"/>
			<circle style="fill:#F7F1EB;" cx="1731.617" cy="1446.781" r="6.769"/>
			<path style="fill:#F7F1EB;" d="M1761.232,1447.203c0,3.739-3.031,6.769-6.769,6.769s-6.769-3.031-6.769-6.769
				s3.031-6.769,6.769-6.769S1761.232,1443.465,1761.232,1447.203z"/>
			<path style="fill:#F7F1EB;" d="M1854.731,1453.974h-60.499c-3.739,0-6.77-3.031-6.77-6.77l0,0c0-3.739,3.031-6.77,6.77-6.77
				h60.499c3.739,0,6.77,3.031,6.77,6.77l0,0C1861.501,1450.943,1858.47,1453.974,1854.731,1453.974z"/>
		</g>
		<g>
			<g>
				<g>
					<path style="fill:#E6D0BE;" d="M447.385,1942.82h152.423c0,0-13.873-122.646-62.948-151.114h-43.986
						C492.874,1791.706,451.619,1860.725,447.385,1942.82z"/>
					<path style="fill:#9E6C5A;" d="M475.619,1722.823c0.702,2.267,8.54,49.39,13.408,78.846
						c2.226,13.471,13.877,23.348,27.535,23.348l0,0c15.414,0,27.909-12.492,27.909-27.902v-66.59L475.619,1722.823z"/>
				</g>
				<g>
					<path style="fill:#E6D0BE;" d="M652.314,1787.467c0,0-11.589,75.906-7.09,155.353h232.485c0,0-23.304-108.178-151.135-155.353
						H652.314z"/>
					<path style="fill:#9E6C5A;" d="M661.701,1724.955c-1.11,1.835-4.862,32.041-7.984,58.59
						c-2.516,21.396,14.299,40.146,35.847,39.97h0c16.017-0.131,29.999-10.882,34.234-26.326l24.621-89.781L661.701,1724.955z"/>
				</g>
				<path style="fill:#ff6900;" d="M503.729,1133.203c-35.353,115.713-103.384,389.716-33.316,602.789h89.684
					c0,0,57.632-386.125,64.36-454.022h13.086c0,0,5.675,251.958,14.77,448.554h100.561c0,0,88.399-303.497,9.185-597.321
					l-29.616-25.119H544.321L503.729,1133.203z"/>
			</g>
			<g>
				<g>
					<path style="fill:#9E6C5A;" d="M814.501,935.58c0,0,114.081-86.982,153.675-113.318
						c41.582-27.657,107.003-62.439,111.752-53.227c2.705,5.247-5.236,11.835-27.632,28.032c1.951,0.313,7.627,2.723,9.338,8.001
						c2.531,7.811-3.22,11.588-3.567,12.16c0.67,0.052,8.274,1.06,10.854,6.002c2.906,5.566,1.161,10.602-1.952,14.424
						c1.659,0.182,8.566,2.117,10.804,6.988c2.911,6.331-1.496,12.663-6.333,15.779c-8.875,5.715-33.513,20.727-45.528,30.331
						c-23.645,18.897-98.602,97.272-139.997,115.554C882.84,967.267,814.501,935.58,814.501,935.58z"/>
					<g>
						<path style="fill:#363E44;" d="M999.409,868.893c-0.463,0-0.93-0.145-1.326-0.446c-0.973-0.734-1.165-2.117-0.431-3.089
							c6.307-8.346,7.818-16.793,9.035-23.582c1.303-7.281,2.429-13.57,9.373-14.892c3.742-0.712,7.973-3.519,12.236-8.118
							c1.01-1.089,0.532-2.276,0.36-2.614c-0.172-0.347-0.848-1.469-2.375-1.293l-32.265,3.61c-1.212,0.138-2.302-0.736-2.437-1.945
							c-0.136-1.21,0.736-2.302,1.946-2.436l32.265-3.61c2.855-0.314,5.512,1.13,6.804,3.688c1.279,2.537,0.863,5.519-1.064,7.597
							c-4.978,5.371-9.907,8.551-14.646,9.453c-3.794,0.722-4.578,4.19-5.857,11.337c-1.229,6.869-2.915,16.276-9.857,25.464
							C1000.737,868.591,1000.076,868.893,999.409,868.893z"/>
						<path style="fill:#363E44;" d="M1052.828,867.17c-0.723,0-1.43-0.354-1.852-1.005c-3.852-5.941-3.833-13.386-0.495-19.216
							c-5.351,2.071-11.476,0.26-14.822-4.485c-1.972-2.795-2.715-6.187-2.089-9.55c0.624-3.365,2.536-6.266,5.383-8.167
							l1.512-1.008c-2.681-0.719-5.075-2.477-6.498-5.068c-2.571-4.688-1.217-10.548,3.154-13.631l9.715-6.85
							c0.995-0.702,2.369-0.464,3.073,0.532c0.702,0.995,0.463,2.371-0.532,3.073l-9.715,6.85c-2.534,1.787-3.32,5.186-1.828,7.905
							c1.585,2.886,5.256,3.988,8.165,2.464l7.263-3.801c1.04-0.547,2.321-0.18,2.92,0.828c0.596,1.009,0.301,2.308-0.672,2.958
							l-14.105,9.416c-1.849,1.236-3.092,3.12-3.499,5.305c-0.405,2.184,0.078,4.388,1.359,6.203
							c2.274,3.227,6.526,4.368,10.113,2.708l11.562-5.346c1.031-0.473,2.239-0.097,2.819,0.87c0.579,0.967,0.334,2.216-0.566,2.894
							l-5.178,3.896c-5.857,4.406-7.323,12.674-3.337,18.823c0.663,1.022,0.372,2.387-0.65,3.049
							C1053.655,867.056,1053.239,867.17,1052.828,867.17z"/>
					</g>
				</g>
				<g>
					<path style="fill:#D87355;" d="M940.451,831.24l55.31,96.907l-90.065,72.769c-22.76,18.389-54.596,20.577-79.659,5.474
						l-139.676-51.871l23.55-147.859c46.959,12.518,99.572,44.752,153.694,82.246L940.451,831.24z"/>
					<path style="fill:#D87355;" d="M493.805,816.474c-9.307,2.917-48.473,387.658-48.473,387.658l23.969,62.397h67.515h242.885
						l35.097-62.397l-31.875-247.297c0,0-63.145-130.035-73.012-150.175C709.911,806.66,568.671,793.007,493.805,816.474z"/>
					<path style="fill:#D87355;" d="M362.5,1112.234c13.343,4.152,64.821,15.01,98.175-50.746l47.03-114.421l-12.641-130.871
						l-1.259,0.278c-32.912,7.25-62.079,26.18-82.099,53.284c0,0-27.302,41.622-35.858,55.835
						c-19.343,32.129-67.687,143.098-19.414,183.317C358.226,1110.402,360.273,1111.541,362.5,1112.234z"/>
				</g>
				<g>
					<polygon style="fill:#FFD092;" points="796.704,1135.865 544.161,1135.865 544.161,1145.8 805.053,1153.606 					"/>
					<path style="fill:#363E44;" d="M937.849,1164.563H700.174l106.444-227.498h261.935l-96.162,205.524
						C966.118,1155.997,952.652,1164.563,937.849,1164.563z"/>
					<path style="fill:#363E44;" d="M544.161,1141.724L544.161,1141.724c0,12.675,10.275,22.95,22.95,22.95h219.157l10.738-22.95
						H544.161z"/>
					
						<ellipse transform="matrix(0.9922 -0.1247 0.1247 0.9922 -122.4832 120.3053)" style="fill:#B77250;" cx="900.017" cy="1038.813" rx="15.654" ry="15.653"/>
				</g>
				<g>
					<path style="fill:#9E6C5A;" d="M402.175,1034.026c37.733,13.662,128.184,41.438,136.906,44.501
						c16.304,5.726,112.959,42.421,109.554,55.444c-1.627,6.223-28.573-3.078-34.262-5.138c10.56,7.619,18.966,36.006,13.592,36.282
						c-6.241,0.32-18.909-20.188-23.607-18.371c4.237,3.601,17.225,19.426,5.004,25.536c-3.858,1.929-6.201-6.89-14.997-7.693
						c0.26,1.08,6.01,3.113,2.457,10.724c-2.609,5.588-8.286,6.887-16.272,3.777c-14.489-5.076-186.198-54.993-216.925-68.344
						C351.596,1105.519,381.801,1041.2,402.175,1034.026z"/>
					<g>
						<path style="fill:#363E44;" d="M614.786,1130.505c-0.491,0-0.986-0.164-1.395-0.501c-2.721-2.232-5.617-4.29-8.608-6.119
							c-5.376-3.29-11.177-5.919-17.245-7.814c-1.163-0.363-1.811-1.6-1.447-2.763c0.36-1.162,1.602-1.81,2.76-1.447
							c6.414,2.004,12.549,4.783,18.233,8.262c3.161,1.933,6.225,4.111,9.101,6.472c0.943,0.772,1.079,2.161,0.308,3.103
							C616.056,1130.23,615.425,1130.505,614.786,1130.505z"/>
						<path style="fill:#363E44;" d="M604.828,1148.644c-0.413,0-0.831-0.115-1.204-0.359c-0.618-0.403-1.251-0.805-1.903-1.205
							c-5.376-3.289-11.177-5.918-17.245-7.813c-1.163-0.363-1.811-1.6-1.447-2.763c0.359-1.163,1.602-1.807,2.76-1.447
							c6.414,2.004,12.548,4.783,18.233,8.262c0.689,0.422,1.361,0.846,2.013,1.273c1.018,0.665,1.307,2.031,0.642,3.051
							C606.253,1148.292,605.547,1148.644,604.828,1148.644z"/>
						<path style="fill:#363E44;" d="M594.032,1166.479c-0.332,0-0.667-0.074-0.984-0.232c-3.684-1.842-7.562-3.403-11.519-4.64
							c-1.163-0.364-1.811-1.6-1.447-2.762c0.364-1.162,1.602-1.81,2.76-1.447c4.186,1.308,8.281,2.957,12.178,4.905
							c1.09,0.545,1.531,1.869,0.986,2.958C595.621,1166.032,594.841,1166.479,594.032,1166.479z"/>
					</g>
				</g>
			</g>
			<g>
				<polygon style="fill:#9E6C5A;" points="568.945,833.435 622.135,824.831 643.074,752.054 596.235,738.584 				"/>
				<path style="fill:#9E6C5A;" d="M546.902,823.359c0.426,9.779,24.159,16.69,53.011,15.434
					c28.852-1.256,51.895-10.201,51.469-19.981c-0.426-9.779-24.16-16.69-53.011-15.434
					C569.52,804.634,546.476,813.58,546.902,823.359z"/>
				<g>
					<path style="fill:#9E6C5A;" d="M672.41,755.527c-4.113,12.94-41.943,14.706-41.943,14.706l-36.818-19.128
						c-11.495-15.257-8.442-36.942,6.819-48.434c15.261-11.492,36.952-8.44,48.447,6.817
						C648.915,709.487,676.599,742.347,672.41,755.527z"/>
					<path style="fill:#9E6C5A;" d="M651.213,719.142c0,0,13.867,2.282,15.07,4.736c1.435,2.929-6.023,10.991-6.023,10.991
						S651.433,719.007,651.213,719.142z"/>
					<g>
						<path style="fill:#FFFFFF;" d="M625.384,736.739c0,0,2.752-5.971,8.329-10.17c1.187-0.893,6.1,10.284,4.569,10.595
							C631.549,738.529,625.384,736.739,625.384,736.739z"/>
						<g>
							<defs>
								<path id="SVGID_1_" d="M625.384,736.739c0,0,4.047-8.782,12.273-12.536c8.225-3.753,17.514-1.055,17.514-1.055
									s-4.048,8.782-12.273,12.536C634.673,739.436,625.384,736.739,625.384,736.739z"/>
							</defs>
							<clipPath id="SVGID_00000170987173661690880360000011762296221079154566_">
								<use xlink:href="#SVGID_1_"  style="overflow:visible;"/>
							</clipPath>
							<path style="clip-path:url(#SVGID_00000170987173661690880360000011762296221079154566_);fill:#363E44;" d="M633.765,726.147
								c0.91-6.465,6.89-10.968,13.357-10.058c6.466,0.91,10.971,6.888,10.061,13.353c-0.91,6.465-6.89,10.968-13.357,10.058
								C637.36,738.59,632.855,732.611,633.765,726.147z"/>
						</g>
					</g>
					<path style="fill:#363E44;" d="M654.128,747.981c-2.489,0-4.851-1.344-6.115-3.517c-0.612-1.052-0.256-2.402,0.797-3.014
						c1.053-0.616,2.403-0.257,3.014,0.797c0.506,0.871,1.456,1.389,2.476,1.32c1.034-0.072,1.936-0.755,2.297-1.738
						c0.424-1.143,1.695-1.727,2.833-1.305c1.141,0.422,1.727,1.689,1.305,2.831c-0.965,2.608-3.37,4.417-6.13,4.61
						C654.447,747.976,654.287,747.981,654.128,747.981z"/>
					<path style="fill:#363E44;" d="M630.825,772.913c-1.169,0-2.145-0.92-2.201-2.102c-0.056-1.216,0.883-2.249,2.099-2.306
						c0.215-0.01,21.667-1.079,33.367-7.014c1.083-0.55,2.414-0.117,2.963,0.97c0.551,1.085,0.118,2.413-0.969,2.963
						c-12.549,6.365-34.237,7.443-35.154,7.487C630.894,772.912,630.859,772.913,630.825,772.913z"/>
				</g>
				<path style="fill:#363E44;" d="M629.59,701.911c5.595-1.985,9.532-7.045,10.035-12.959c0.897-10.561,0.769-26.752-7.148-33.768
					c-1.508-1.336-2.82-1.976-4.65-2.276c-10.189-1.665-13.647,17.281-31.423,30.52c-17.129,12.757-33.118,9.464-37.266,21.787
					c-1.823,5.418-0.209,10.616,0.135,11.891c4.544,16.842,20.809,19.705,20.809,19.705s-10.798-0.956-10.141,13.382
					c0.659,14.337,43.896,2.125,43.896,2.125l3.509-6.788l-9.415-12.092c-7.159-9.196-3.214-22.701,7.771-26.598L629.59,701.911z"/>
				<path style="fill:#9E6C5A;" d="M588.372,755.25c1.589,6.394,8.062,10.289,14.457,8.701c6.396-1.588,10.292-8.06,8.703-14.453
					s-8.062-10.289-14.457-8.701C590.679,742.385,586.783,748.857,588.372,755.25z"/>
			</g>
		</g>
		<g>
			<path style="fill:#E6D0BE;" d="M1447.513,2071.806H562.98c-19.957,0-36.135-16.178-36.135-36.135v-600.19
				c0-19.957,16.178-36.135,36.135-36.135h884.534c19.957,0,36.135,16.178,36.135,36.135v600.19
				C1483.649,2055.627,1467.47,2071.806,1447.513,2071.806z"/>
			<rect x="602.255" y="1449.079" style="fill:#F2E6DC;" width="807.617" height="573.858"/>
			<rect x="602.579" y="1488.215" style="fill:#FFFFFF;" width="807.843" height="298.414"/>
			<rect x="601.838" y="1445.995" style="fill:#EFBC73;" width="808.584" height="47.485"/>
			<g>
				
					<ellipse transform="matrix(0.7071 -0.7071 0.7071 0.7071 -1071.0988 1132.8754)" style="fill:#EFBC73;" cx="831.952" cy="1859.368" rx="53.005" ry="53.005"/>
				
					<ellipse transform="matrix(0.2298 -0.9732 0.9732 0.2298 -1033.9272 2415.0847)" style="fill:#EFBC73;" cx="1008.832" cy="1860.754" rx="53.005" ry="53.005"/>
				
					<ellipse transform="matrix(0.2298 -0.9732 0.9732 0.2298 -893.9753 2589.1558)" style="fill:#EFBC73;" cx="1188.781" cy="1859.371" rx="53.005" ry="53.005"/>
				<rect x="748.823" y="1929.883" style="fill:#E6D0BE;" width="150.28" height="65.202"/>
				<rect x="940.123" y="1930.378" style="fill:#E6D0BE;" width="150.28" height="65.202"/>
				<rect x="1123.878" y="1929.887" style="fill:#E6D0BE;" width="150.28" height="65.202"/>
			</g>
			<g>
				<rect x="645.451" y="1513.461" style="fill:#EFBC73;" width="165.621" height="20.09"/>
				<rect x="835.579" y="1512.776" style="fill:#EFBC73;" width="165.621" height="20.09"/>
				<rect x="1023.166" y="1512.776" style="fill:#EFBC73;" width="165.621" height="20.09"/>
				<rect x="1209.911" y="1513.462" style="fill:#EFBC73;" width="165.621" height="20.09"/>
			</g>
			<g>
				
					<ellipse transform="matrix(0.7352 -0.6778 0.6778 0.7352 -829.9486 812.8042)" style="fill:#F7F1EB;" cx="625.361" cy="1468.681" rx="10.528" ry="10.528"/>
				
					<ellipse transform="matrix(0.1607 -0.987 0.987 0.1607 -897.1234 1882.3363)" style="fill:#F7F1EB;" cx="658.261" cy="1468.681" rx="10.528" ry="10.528"/>
				
					<ellipse transform="matrix(0.1602 -0.9871 0.9871 0.1602 -867.7061 1918.8102)" style="fill:#F7F1EB;" cx="693.792" cy="1469.338" rx="10.528" ry="10.528"/>
			</g>
			<path style="fill:#F7F1EB;" d="M850.313,1479.869h-95.242c-5.498,0-9.954-4.457-9.954-9.954v-1.149
				c0-5.498,4.457-9.954,9.954-9.954h95.242c5.498,0,9.954,4.457,9.954,9.954v1.149
				C860.268,1475.412,855.811,1479.869,850.313,1479.869z"/>
			<path style="fill:#363E44;" d="M1454.198,2082.925H569.665c-21.142,0-38.341-17.199-38.341-38.341v-600.19
				c0-21.141,17.199-38.34,38.341-38.34h884.533c21.142,0,38.341,17.199,38.341,38.34v600.19
				C1492.539,2065.725,1475.339,2082.925,1454.198,2082.925z M569.665,1410.463c-18.711,0-33.931,15.221-33.931,33.93v600.19
				c0,18.71,15.221,33.931,33.931,33.931h884.533c18.711,0,33.931-15.221,33.931-33.931v-600.19c0-18.71-15.221-33.93-33.931-33.93
				H569.665z"/>
		</g>
		<g>
			<g>
				<path style="fill:#ff6900;" d="M2085.262,1865.023c-22.972,130.295-18.149,240.054-18.149,240.054
					s42.067-101.489,65.039-231.784s18.149-240.054,18.149-240.054S2108.234,1734.728,2085.262,1865.023z"/>
				<path style="fill:#ff6900;" d="M1983.094,1915.297c39.242,126.349,93.79,221.711,93.79,221.711s-9.077-109.49-48.319-235.839
					c-39.243-126.349-93.79-221.711-93.79-221.711S1943.852,1788.948,1983.094,1915.297z"/>
				<path style="fill:#ff6900;" d="M2037.469,1984.001c-0.915,0-1.751-0.572-2.071-1.452c-0.276-0.761-27.795-77.265-40.277-172.863
					c-12.484-95.597-5.531-176.605-5.46-177.411c0.09-1.029,0.885-1.857,1.91-1.992c1.029-0.128,2.007,0.463,2.36,1.434
					c0.276,0.762,27.795,77.265,40.277,172.863c12.484,95.599,5.531,176.605,5.46,177.411c-0.091,1.03-0.885,1.857-1.91,1.992
					C2037.661,1983.994,2037.564,1984.001,2037.469,1984.001z M1993.317,1643.645c-1.415,25.221-3.566,90.869,6.175,165.47
					c9.741,74.596,28.676,137.49,36.52,161.505c1.415-25.22,3.566-90.868-6.175-165.47
					C2020.096,1730.554,2001.161,1667.66,1993.317,1643.645z"/>
				<path style="fill:#ff6900;" d="M2080.732,2051.919c-0.037,0-0.075-0.001-0.114-0.003c-1.031-0.053-1.888-0.816-2.061-1.835
					c-0.183-1.086-18.194-110.095-11.427-240.95l0,0c6.771-130.856,35.938-237.423,36.231-238.484
					c0.273-0.994,1.169-1.659,2.239-1.613c1.031,0.053,1.888,0.816,2.061,1.836c0.183,1.086,18.194,110.094,11.427,240.95
					c-6.771,130.856-35.938,237.423-36.231,238.483C2082.593,2051.262,2081.719,2051.919,2080.732,2051.919z M2071.536,1809.359
					c-5.519,106.696,5.488,198.763,9.769,229.281c7.407-29.911,27.86-120.367,33.378-227.049
					c5.519-106.696-5.488-198.763-9.769-229.281C2097.508,1612.223,2077.055,1702.677,2071.536,1809.359L2071.536,1809.359z"/>
				<path style="fill:#ff6900;" d="M2029.771,1912.916c17.222,131.179,58.483,230.964,58.483,230.964s9.643-109.442-7.579-240.62
					s-54.788-234.42-54.788-234.42S2012.549,1781.737,2029.771,1912.916z"/>
			</g>
			<path style="fill:#FFFFFF;" d="M2148.972,1946.411c7.675,23.564,12.017,50.34,12.017,78.739
				c0,55.013-16.28,103.945-41.558,135.193h-130.773c-25.279-31.249-41.559-80.18-41.559-135.193
				c0-28.399,4.342-55.175,12.017-78.739H2148.972z"/>
			<path style="fill:#ff6900;" d="M2119.431,2162.548h-130.773c-0.665,0-1.296-0.3-1.714-0.818
				c-26.723-33.035-42.049-82.816-42.049-136.58c0-28.002,4.08-54.722,12.124-79.421c0.297-0.908,1.143-1.522,2.097-1.522h189.855
				c0.954,0,1.8,0.615,2.097,1.522c8.044,24.699,12.125,51.419,12.125,79.421c0,53.764-15.326,103.546-42.049,136.58
				C2120.727,2162.248,2120.096,2162.548,2119.431,2162.548z M1989.715,2158.138h128.659c25.693-32.266,40.41-80.66,40.41-132.989
				c0-26.574-3.947-52.999-11.418-76.533h-186.643c-7.471,23.535-11.418,49.959-11.418,76.533
				C1949.304,2077.478,1964.021,2125.872,1989.715,2158.138z"/>
		</g>
	</g>
</g>
</svg>
