<?xml version="1.0" encoding="utf-8"?>
<!-- Generator: Adobe Illustrator 27.5.0, SVG Export Plug-In . SVG Version: 6.00 Build 0)  -->
<svg version="1.1" xmlns="http://www.w3.org/2000/svg" xmlns:xlink="http://www.w3.org/1999/xlink" x="0px" y="0px"
	 viewBox="0 0 2500 2500" style="enable-background:new 0 0 2500 2500;" xml:space="preserve">
-
<g id="Illustration">
	<g id="Microsite_development_1_">
		<circle style="fill:transparent;" cx="1250" cy="1250" r="915"/>
		<g>
			<g>
				<path style="fill:#FFFFFF;" d="M1386.75,1710.934h-30.403c-2.722-14.82-6.605-29.233-11.54-43.148l26.311-15.191l-51.446-89.109
					l-26.371,15.226c-9.678-11.329-20.232-21.884-31.561-31.561l15.225-26.372l-89.108-51.447l-15.191,26.312
					c-13.916-4.935-28.328-8.818-43.148-11.541v-30.403h-102.893v30.403c-14.82,2.723-29.233,6.605-43.148,11.541l-15.191-26.312
					l-89.108,51.447l15.225,26.372c-11.329,9.677-21.883,20.232-31.561,31.561l-26.371-15.226l-51.446,89.109l26.311,15.191
					c-4.935,13.915-8.818,28.328-11.54,43.148h-30.403l0,102.893h30.403c2.722,14.821,6.605,29.233,11.54,43.148l-26.311,15.191
					l51.446,89.108l26.372-15.226c9.678,11.329,20.232,21.884,31.561,31.561l-15.225,26.371l89.108,51.447l15.191-26.312
					c13.915,4.935,28.328,8.818,43.148,11.541v30.403h102.893v-30.403c14.821-2.723,29.233-6.605,43.148-11.541l15.191,26.312
					l89.108-51.446l-15.225-26.371c11.329-9.677,21.884-20.232,31.561-31.561l26.372,15.226l51.446-89.108l-26.311-15.191
					c4.935-13.915,8.818-28.327,11.54-43.148h30.403V1710.934z M1246.324,1767.889c-2.813,88.141-74.601,159.93-162.742,162.744
					c-97.329,3.107-176.87-76.433-173.764-173.762c2.813-88.141,74.6-159.93,162.742-162.744
					C1169.89,1591.02,1249.431,1670.56,1246.324,1767.889z"/>
			</g>
			<path style="fill:#F2E6DC;" d="M1078.071,1988.459c-60.388,0-117.161-23.516-159.862-66.217
				c-42.7-42.701-66.217-99.474-66.217-159.862c0-54.468,19.643-107.086,55.312-148.161c35.313-40.667,83.936-67.444,136.912-75.399
				c0.545-0.085,1.056,0.295,1.138,0.84c0.082,0.546-0.295,1.055-0.841,1.137c-108.614,16.31-190.521,111.57-190.521,221.583
				c0,123.557,100.521,224.079,224.079,224.079c102.092,0,191.286-68.925,216.904-167.613c0.139-0.534,0.682-0.856,1.219-0.716
				c0.535,0.139,0.855,0.685,0.717,1.219C1271.063,1918.918,1181.073,1988.459,1078.071,1988.459z"/>
		</g>
		<g>
			<g>
				<g>
					<g>
						
							<rect x="378.156" y="726.955" transform="matrix(-1 -1.224647e-16 1.224647e-16 -1 2029.4161 2418.8701)" style="fill:#E6D0BE;" width="1273.104" height="964.959"/>
						
							<rect x="610.861" y="574.135" transform="matrix(-1.836970e-16 1 -1 -1.836970e-16 2185.4526 156.0366)" style="fill:#FFFFFF;" width="807.694" height="1193.219"/>
						
							<ellipse transform="matrix(0.9732 -0.2298 0.2298 0.9732 -347.0119 276.6976)" style="fill:#FFFFFF;" cx="1014.708" cy="1628.511" rx="23.964" ry="23.964"/>
					</g>
					<path style="fill:#E6D0BE;" d="M378.156,1718.075c0,55.23,44.773,100.004,100.003,100.004h1334.447
						c55.23,0,100.003-44.774,100.003-100.004H378.156z"/>
					<path style="fill:#F2E6DC;" d="M713.26,1808.716c-44.266,0-80.278-36.013-80.278-80.279c0-0.552,0.447-1,1-1
						c0.553,0,1,0.448,1,1c0,43.163,35.115,78.279,78.278,78.279c0.553,0,1,0.448,1,1S713.813,1808.716,713.26,1808.716z"/>
					<path style="fill:#F2E6DC;" d="M1179.917,1741.712c0,23.469,19.026,42.494,42.495,42.494h149.601
						c23.469,0,42.494-19.025,42.494-42.494H1179.917z"/>
				</g>
			</g>
			<g>
				<g>
					<rect x="845.613" y="853.624" style="fill:#F7F1EB;" width="673.732" height="23.657"/>
					<rect x="845.613" y="898.817" style="fill:#F7F1EB;" width="673.732" height="261.18"/>
				</g>
				<g>
					<rect x="845.613" y="1208.158" style="fill:#F7F1EB;" width="673.732" height="23.657"/>
					<rect x="845.613" y="1253.351" style="fill:#F7F1EB;" width="673.732" height="261.18"/>
				</g>
				<g>
					<rect x="488.714" y="853.624" style="fill:#F7F1EB;" width="276.367" height="21.135"/>
					<rect x="488.714" y="909.281" style="fill:#F7F1EB;" width="276.367" height="21.135"/>
					<rect x="488.714" y="968.361" style="fill:#F7F1EB;" width="276.367" height="21.135"/>
					<rect x="488.714" y="1024.125" style="fill:#F7F1EB;" width="276.367" height="21.135"/>
					<rect x="488.714" y="1079.782" style="fill:#F7F1EB;" width="276.367" height="21.135"/>
					<rect x="488.714" y="1138.862" style="fill:#F7F1EB;" width="276.367" height="21.135"/>
				</g>
				<g>
					<rect x="485.038" y="1235.316" style="fill:#ff6900;" width="275.837" height="275.837"/>
					<g>
						<g>
							<path style="fill:#FFFFFF;" d="M536.685,1447.981c59.21-0.675,118.42-1.35,177.63-2.025
								c-27.226-87.115-44.066-109.041-54.922-107.716c-15.682,1.914-19.789,52.466-41.353,54.155
								c-12.963,1.015-18.354-16.715-31.43-17.211C575.364,1374.757,558.754,1387.092,536.685,1447.981z"/>
							
								<ellipse transform="matrix(0.1447 -0.9895 0.9895 0.1447 -803.284 1718.4606)" style="fill:#FFFFFF;" cx="592.37" cy="1323.875" rx="22.936" ry="22.936"/>
						</g>
					</g>
				</g>
			</g>
		</g>
		<path style="fill:#D87355;" d="M812.827,467.826l172.896,68.964L870.001,682.588l-11.668-43.833
			c-38.285,7.63-92.398,24.951-144.709,65.788c-105.219,82.14-125.643,198.93-129.717,226.483
			c-4.846-20.979-36.058-167.279,60.953-295.427c58.437-77.194,134.798-110.026,179.696-123.723L812.827,467.826z"/>
		<g>
			<g>
				<g>
					<g>
						<rect x="1047.264" y="491.412" style="fill:#F7F1EB;" width="1075.028" height="763.551"/>
						<path style="fill:#D3BBA3;" d="M2122.292,1255.963H1047.264c-0.553,0-1-0.448-1-1V491.412c0-0.552,0.447-1,1-1h1075.028
							c0.553,0,1,0.448,1,1v763.551C2123.292,1255.515,2122.845,1255.963,2122.292,1255.963z M1048.264,1253.963h1073.028V492.412
							H1048.264V1253.963z"/>
					</g>
					<path style="fill:#D3BBA3;" d="M2119.615,491.412H1049.941c-1.479,0-2.677,1.199-2.677,2.677v65.083h1075.028v-65.083
						C2122.292,492.61,2121.093,491.412,2119.615,491.412z"/>
					
						<ellipse transform="matrix(0.1222 -0.9925 0.9925 0.1222 437.0305 1545.6603)" style="fill:#FFFFFF;" cx="1092.319" cy="525.765" rx="15.412" ry="15.412"/>
					
						<ellipse transform="matrix(0.1222 -0.9925 0.9925 0.1222 480.7413 1595.0822)" style="fill:#FFFFFF;" cx="1142.114" cy="525.765" rx="15.412" ry="15.412"/>
					
						<ellipse transform="matrix(0.7071 -0.7071 0.7071 0.7071 -22.6698 996.8)" style="fill:#FFFFFF;" cx="1191.909" cy="525.765" rx="15.412" ry="15.412"/>
				</g>
				<g>
					<rect x="1092.319" y="777.25" style="fill:#D3BBA3;" width="379.08" height="20.94"/>
					<rect x="1092.319" y="844.906" style="fill:#D3BBA3;" width="203.632" height="20.94"/>
					<rect x="1342.959" y="844.906" style="fill:#D3BBA3;" width="248.506" height="20.94"/>
					<rect x="1092.319" y="1047.874" style="fill:#D3BBA3;" width="203.632" height="20.94"/>
					<rect x="1342.959" y="1047.874" style="fill:#D3BBA3;" width="404.144" height="20.94"/>
					<rect x="1217.639" y="912.562" style="fill:#D3BBA3;" width="429.208" height="20.94"/>
					<rect x="1217.639" y="980.218" style="fill:#D3BBA3;" width="228.696" height="20.94"/>
				</g>
				<g>
					<path style="fill:#D3BBA3;" d="M1139.045,696.305c-0.256,0-0.512-0.098-0.707-0.293l-45.623-45.623
						c-0.188-0.188-0.293-0.442-0.293-0.707c0-0.265,0.105-0.52,0.293-0.707l45.623-45.623c0.391-0.391,1.023-0.391,1.414,0
						c0.391,0.39,0.391,1.024,0,1.414l-44.916,44.916l44.916,44.916c0.391,0.39,0.391,1.024,0,1.414
						C1139.557,696.208,1139.301,696.305,1139.045,696.305z"/>
					<path style="fill:#D3BBA3;" d="M1213.778,696.305c-0.256,0-0.512-0.098-0.707-0.293c-0.391-0.39-0.391-1.024,0-1.414
						l44.916-44.916l-44.916-44.916c-0.391-0.39-0.391-1.024,0-1.414c0.391-0.391,1.023-0.391,1.414,0l45.623,45.623
						c0.188,0.188,0.293,0.442,0.293,0.707c0,0.265-0.105,0.52-0.293,0.707l-45.623,45.623
						C1214.29,696.208,1214.034,696.305,1213.778,696.305z"/>
					<path style="fill:#D3BBA3;" d="M1156.891,693.495c-0.139,0-0.28-0.029-0.416-0.091c-0.502-0.23-0.723-0.824-0.492-1.326
						l39.379-85.946c0.229-0.501,0.821-0.723,1.326-0.493c0.502,0.23,0.723,0.824,0.492,1.326l-39.379,85.946
						C1157.633,693.278,1157.27,693.495,1156.891,693.495z"/>
				</g>
			</g>
			<g>
				<rect x="1744.583" y="632.229" style="fill:#EFBC73;" width="275.837" height="275.837"/>
				<g>
					<g>
						<path style="fill:#FFFFFF;" d="M1796.23,844.895c59.21-0.675,118.42-1.35,177.63-2.025
							c-27.226-87.115-44.066-109.041-54.922-107.716c-15.682,1.914-19.789,52.466-41.353,54.155
							c-12.963,1.015-18.354-16.715-31.43-17.211C1834.909,771.671,1818.299,784.005,1796.23,844.895z"/>
						
							<ellipse transform="matrix(0.5088 -0.8609 0.8609 0.5088 289.1123 1948.2953)" style="fill:#FFFFFF;" cx="1851.915" cy="720.788" rx="22.936" ry="22.936"/>
					</g>
				</g>
			</g>
		</g>
		<g>
			<g>
				<polygon style="fill:#2D353A;" points="1800.174,1750.813 1812.124,2056.631 1358.419,2056.631 1344.853,1762.948 
					1344.563,1756.672 				"/>
				<g>
					<polygon style="fill:#84524D;" points="1606.311,2050.125 1464.584,1959.798 1413.577,2100.081 1552.318,2127.732 					"/>
					<path style="fill:#D3BBA3;" d="M1850.818,2129.363h-306.037l20.555-113.634c0,0,129.809-55.932,271.699,27.103
						C1837.034,2042.832,1872.007,2085.583,1850.818,2129.363z"/>
					<path style="fill:#363E44;" d="M1633.328,2100.646c-0.553,0-1-0.448-1-1v-69.682c0-0.552,0.447-1,1-1s1,0.448,1,1v69.682
						C1634.328,2100.198,1633.881,2100.646,1633.328,2100.646z"/>
					<path style="fill:#363E44;" d="M1653.104,2100.646c-0.553,0-1-0.448-1-1v-69.682c0-0.552,0.447-1,1-1s1,0.448,1,1v69.682
						C1654.104,2100.198,1653.657,2100.646,1653.104,2100.646z"/>
					<path style="fill:#363E44;" d="M1536.652,1935.612l-85.97,193.752c0,0-239.079-50.414-405.366-154.442
						c-58.105-36.35-76.854-112.354-42.246-171.513c0.493-0.843,0.991-1.685,1.494-2.525c29.577-49.439,89.462-71.835,144.646-55.29
						C1237.587,1772.09,1402.425,1831.318,1536.652,1935.612z"/>
				</g>
				<g>
					<polygon style="fill:#84524D;" points="1529.772,2050.125 1671.498,1959.798 1722.506,2100.081 1582.501,2127.732 					"/>
					<path style="fill:#FFFFFF;" d="M1288.533,2129.363h302.77l-20.555-107.367c0,0-111.96-65.127-245.656-14.991
						C1325.09,2007.005,1307.273,2045.103,1288.533,2129.363z"/>
					<path style="fill:#363E44;" d="M1502.755,2100.646c-0.553,0-1-0.448-1-1v-69.682c0-0.552,0.447-1,1-1s1,0.448,1,1v69.682
						C1503.755,2100.198,1503.308,2100.646,1502.755,2100.646z"/>
					<path style="fill:#363E44;" d="M1482.979,2100.646c-0.553,0-1-0.448-1-1v-69.682c0-0.552,0.447-1,1-1s1,0.448,1,1v69.682
						C1483.979,2100.198,1483.531,2100.646,1482.979,2100.646z"/>
					<path style="fill:#363E44;" d="M1599.431,1935.612l85.97,193.752c0,0,239.079-50.414,405.365-154.442
						c58.105-36.35,76.854-112.354,42.246-171.513c-0.493-0.843-0.991-1.685-1.493-2.525
						c-29.578-49.439-89.462-71.835-144.646-55.29C1898.496,1772.09,1733.658,1831.318,1599.431,1935.612z"/>
				</g>
			</g>
			<g>
				<g>
					<path style="fill:#EFBC73;" d="M1245.217,1824.047l-24.013-4.212c-43.005-7.544-70.096-50.43-58.629-92.56
						c10.931-40.161,26.702-89.346,47.294-131.927c20.226-41.826,58.876-71.798,104.482-80.664
						c96.154-18.693,291.585-44.271,493.244,2.401c41.531,9.612,76.984,36.695,96.891,74.391
						c17.093,32.37,37.111,75.897,51.072,123.87c13.233,45.47-14.481,92.758-60.456,104.113l-107.375-23.309L1245.217,1824.047z"/>
					<path style="fill:#84524D;" d="M1187.941,1735.234c-1.765,6.349-2.833,13.265-2.902,20.75
						c-0.311,33.783,21.25,63.942,52.775,76.09l157.423,41.997l34.272-116.877l-162.014-61.377
						C1234.561,1683.341,1197.374,1701.303,1187.941,1735.234z"/>
					<path style="fill:#84524D;" d="M1925.299,1772.128c-2.193,6.214-5.282,12.494-9.516,18.667
						c-19.109,27.861-54.063,40.216-86.858,32.101l-158.652-39.254l44.49-131.979l167.94,42.568
						C1916.841,1702.884,1937.018,1738.917,1925.299,1772.128z"/>
				</g>
				<g>
					<rect x="1362.442" y="1605.734" style="fill:#FFFFFF;" width="408.598" height="244.97"/>
					<rect x="1362.442" y="1857.379" style="fill:#FFFFFF;" width="408.598" height="25.079"/>
					<path style="fill:#40484C;" d="M1753.359,1626.412h-373.236c-0.553,0-1-0.448-1-1s0.447-1,1-1h373.236c0.553,0,1,0.448,1,1
						S1753.912,1626.412,1753.359,1626.412z"/>
				</g>
			</g>
			<g>
				<path style="fill:#84524D;" d="M1509.38,1406.667c9.026,12.18,7.939,28.281-2.427,35.962
					c-10.366,7.681-26.086,4.034-35.111-8.146c-9.025-12.18-7.939-28.281,2.427-35.962
					C1484.635,1390.84,1500.354,1394.487,1509.38,1406.667z"/>
				<path style="fill:#84524D;" d="M1620.813,1400.996c-7.742,13.034-5.027,28.94,6.065,35.53
					c11.093,6.589,26.361,1.365,34.103-11.668c7.742-13.033,5.026-28.941-6.066-35.53
					C1643.824,1382.738,1628.556,1387.962,1620.813,1400.996z"/>
				<path style="fill:#363E44;" d="M1633.993,1371.436c-2.008-38.67-34.984-68.39-73.653-66.383
					c-38.67,2.008-68.391,34.983-66.382,73.653l2.356,45.382l140.036-7.27L1633.993,1371.436z"/>
				<path style="fill:#84524D;" d="M1561.063,1555.848c-27.07-1.241-48.008-24.192-46.766-51.261l4.547-99.15l98.028,4.496
					l-4.547,99.15C1611.083,1536.151,1588.132,1557.089,1561.063,1555.848z"/>
				<path style="fill:#84524D;" d="M1633.54,1414.051c2.224,43.693-26.119,80.648-63.304,82.54
					c-37.186,1.893-69.134-31.994-71.357-75.687c-2.224-43.693,26.119-68.648,63.305-70.54
					C1599.369,1348.472,1631.316,1370.358,1633.54,1414.051z"/>
				<path style="fill:#363E44;" d="M1567.246,1497.668c-17.186,0-33.605-7.433-46.527-21.139c-0.379-0.402-0.36-1.035,0.042-1.414
					c0.4-0.379,1.034-0.36,1.413,0.042c13.273,14.079,30.338,21.336,48.011,20.437c17.687-0.9,33.912-9.852,45.688-25.205
					c0.337-0.438,0.964-0.521,1.402-0.185c0.438,0.336,0.521,0.964,0.186,1.402c-12.139,15.827-28.892,25.055-47.174,25.985
					C1569.271,1497.642,1568.257,1497.668,1567.246,1497.668z"/>
				<path style="fill:#363E44;" d="M1633.528,1436.268c-0.06,0-0.119-0.005-0.18-0.016c-0.544-0.099-0.904-0.619-0.805-1.163
					c1.243-6.843,1.691-13.903,1.33-20.987c-0.321-6.32-1.283-12.57-2.858-18.577c-0.14-0.534,0.18-1.081,0.714-1.221
					c0.533-0.141,1.081,0.18,1.222,0.714c1.609,6.139,2.592,12.526,2.921,18.982c0.368,7.237-0.09,14.452-1.361,21.446
					C1634.424,1435.929,1634.003,1436.268,1633.528,1436.268z"/>
				<path style="fill:#363E44;" d="M1500.937,1442.525c-0.435,0-0.836-0.287-0.961-0.727c-1.914-6.72-3.067-13.732-3.43-20.843
					c-0.335-6.578,0.014-13.154,1.037-19.546c0.086-0.545,0.596-0.919,1.146-0.829c0.545,0.087,0.917,0.6,0.829,1.146
					c-1.001,6.254-1.342,12.689-1.014,19.128c0.354,6.96,1.482,13.822,3.355,20.397c0.151,0.531-0.157,1.084-0.688,1.236
					C1501.12,1442.512,1501.027,1442.525,1500.937,1442.525z"/>
				<g>
					<path style="fill:#FFFFFF;" d="M1614.584,1407.462c-4.069-0.133-11.517,0.83-15.381,2.078
						c-3.714,1.198-6.939,3.39-10.398,6.784c-5.141,4.785-7.88,9.753-7.88,9.753s7.209,2.656,15.916,2.155
						c3.02-0.173,5.15-4.324,8.293-5.5c3.847-1.439,8.219-0.043,10.936-2.381c5.899-5.078,9.041-10.806,9.041-10.806
						S1620.68,1407.927,1614.584,1407.462z"/>
					<g>
						<defs>
							<path id="SVGID_1_" d="M1580.924,1426.077c0,0,13.078,4.816,25.279,0.252c12.201-4.565,18.907-16.782,18.907-16.782
								s-13.078-4.816-25.279-0.252C1587.629,1413.859,1580.924,1426.077,1580.924,1426.077z"/>
						</defs>
						<clipPath id="SVGID_00000069381709434278132230000016523776141481976712_">
							<use xlink:href="#SVGID_1_"  style="overflow:visible;"/>
						</clipPath>
						<path style="clip-path:url(#SVGID_00000069381709434278132230000016523776141481976712_);fill:#363E44;" d="
							M1594.413,1435.091c6.318,4.752,15.292,3.482,20.044-2.836c4.751-6.318,3.481-15.292-2.837-20.044
							c-6.318-4.751-15.292-3.481-20.043,2.837C1586.825,1421.366,1588.095,1430.34,1594.413,1435.091z"/>
					</g>
				</g>
				<g>
					<path style="fill:#FFFFFF;" d="M1523.528,1407.462c4.069-0.133,11.517,0.83,15.381,2.078c3.715,1.198,6.939,3.39,10.398,6.784
						c5.141,4.785,7.88,9.753,7.88,9.753s-7.209,2.656-15.916,2.155c-3.02-0.173-5.15-4.324-8.293-5.5
						c-3.847-1.439-8.219-0.043-10.936-2.381c-5.899-5.078-9.041-10.806-9.041-10.806S1517.432,1407.927,1523.528,1407.462z"/>
					<g>
						<defs>
							<path id="SVGID_00000098924852980433391620000006074539842939955860_" d="M1557.188,1426.077c0,0-13.078,4.816-25.279,0.252
								c-12.202-4.565-18.907-16.782-18.907-16.782s13.078-4.816,25.279-0.252
								C1550.483,1413.859,1557.188,1426.077,1557.188,1426.077z"/>
						</defs>
						<clipPath id="SVGID_00000023992974155709883850000008931997478559633341_">
							<use xlink:href="#SVGID_00000098924852980433391620000006074539842939955860_"  style="overflow:visible;"/>
						</clipPath>
						<path style="clip-path:url(#SVGID_00000023992974155709883850000008931997478559633341_);fill:#363E44;" d="
							M1543.699,1435.091c-6.318,4.752-15.292,3.482-20.044-2.836s-3.481-15.292,2.837-20.044
							c6.318-4.751,15.292-3.481,20.044,2.837C1551.287,1421.366,1550.017,1430.34,1543.699,1435.091z"/>
					</g>
				</g>
				<path style="fill:#363E44;" d="M1570.887,1447.693c-0.3,0-0.597-0.134-0.793-0.39c-0.337-0.438-0.256-1.065,0.182-1.402
					c1.906-1.467,2.885-2.897,2.911-4.251c0.021-1.101-0.592-1.954-1.368-3.034c-0.822-1.143-1.845-2.565-2.277-4.648
					c-0.389-1.876-0.223-3.866,0.493-5.917c0.184-0.522,0.753-0.798,1.274-0.614c0.521,0.182,0.796,0.752,0.614,1.273
					c-0.595,1.704-0.737,3.335-0.423,4.851c0.346,1.667,1.157,2.795,1.942,3.886c0.874,1.216,1.779,2.474,1.744,4.24
					c-0.038,1.992-1.28,3.942-3.69,5.798C1571.313,1447.625,1571.1,1447.693,1570.887,1447.693z"/>
				<path style="fill:#363E44;" d="M1560.404,1458.685c-2.675,0-6.67-0.532-10.57-3.053c-2.476-1.6-4.586-3.812-6.105-6.395
					c-0.279-0.476-0.12-1.089,0.355-1.369c0.476-0.279,1.089-0.121,1.369,0.355c1.361,2.316,3.252,4.297,5.467,5.729
					c4.239,2.741,8.617,2.856,10.848,2.68c0.538-0.04,1.032,0.369,1.075,0.919s-0.368,1.032-0.919,1.075
					C1561.487,1458.66,1560.976,1458.685,1560.404,1458.685z"/>
				<g>
					<path style="fill:#363E44;" d="M1558.842,1339.272c0,0,126.203-124.047,51.725-158.236
						C1546.624,1151.682,1553.149,1314.995,1558.842,1339.272z"/>
					<path style="fill:#363E44;" d="M1558.552,1336.715c0,0,39.292-207.984-41.827-196.34
						C1447.08,1150.373,1540.608,1319.401,1558.552,1336.715z"/>
					<path style="fill:#363E44;" d="M1548.256,1327.476c0,0-39.603-148.115-96.662-89.292
						C1402.606,1288.688,1523.469,1324.752,1548.256,1327.476z"/>
					<path style="fill:#363E44;" d="M1529.286,1322.313c0,0-54.208-25.205-56.188,2.409
						C1471.398,1348.429,1522.282,1326.993,1529.286,1322.313z"/>
				</g>
			</g>
		</g>
		<g>
			<g>
				<path style="fill:#E6D0BE;" d="M2076.07,1390.59h-10.028c-0.898-4.888-2.179-9.641-3.806-14.231l8.678-5.01l-16.968-29.39
					l-8.698,5.022c-3.192-3.737-6.673-7.218-10.41-10.41l5.022-8.698l-29.39-16.968l-5.01,8.678
					c-4.59-1.628-9.343-2.908-14.231-3.806v-10.028h-33.937v10.028c-4.888,0.898-9.642,2.178-14.231,3.806l-5.01-8.678
					l-29.39,16.968l5.022,8.698c-3.737,3.192-7.218,6.673-10.41,10.41l-8.698-5.022l-16.968,29.39l8.678,5.01
					c-1.628,4.59-2.908,9.343-3.806,14.231h-10.028v33.937h10.028c0.898,4.888,2.179,9.642,3.806,14.231l-8.678,5.01l16.968,29.39
					l8.698-5.022c3.192,3.737,6.673,7.218,10.41,10.41l-5.022,8.698l29.39,16.968l5.01-8.678c4.59,1.628,9.343,2.908,14.231,3.806
					v10.028h33.937v-10.028c4.888-0.898,9.642-2.179,14.231-3.806l5.01,8.678l29.39-16.968l-5.022-8.698
					c3.737-3.192,7.218-6.673,10.41-10.41l8.698,5.022l16.968-29.39l-8.678-5.01c1.627-4.59,2.908-9.343,3.806-14.231h10.028
					V1390.59z M2029.754,1409.375c-0.928,29.071-24.605,52.749-53.676,53.677c-32.101,1.025-58.336-25.209-57.312-57.311
					c0.928-29.071,24.605-52.749,53.676-53.677C2004.544,1351.039,2030.778,1377.274,2029.754,1409.375z"/>
			</g>
			<path style="fill:#F2E6DC;" d="M1974.26,1482.795c-41.485,0-75.236-33.751-75.236-75.237c0-18.126,6.537-35.637,18.407-49.307
				c11.752-13.533,27.933-22.444,45.563-25.092c0.549-0.085,1.056,0.295,1.138,0.84c0.082,0.546-0.295,1.055-0.841,1.137
				c-35.498,5.331-62.268,36.465-62.268,72.421c0,40.383,32.854,73.237,73.236,73.237c33.367,0,62.519-22.527,70.892-54.782
				c0.14-0.534,0.687-0.856,1.219-0.716c0.535,0.139,0.855,0.685,0.717,1.219C2038.485,1459.652,2008.538,1482.795,1974.26,1482.795
				z"/>
		</g>
	</g>
</g>
</svg>
