<?xml version="1.0" encoding="utf-8"?>
<!-- Generator: Adobe Illustrator 27.5.0, SVG Export Plug-In . SVG Version: 6.00 Build 0)  -->
<svg version="1.1" xmlns="http://www.w3.org/2000/svg" xmlns:xlink="http://www.w3.org/1999/xlink" x="0px" y="0px"
	 viewBox="0 0 2500 2500" style="enable-background:new 0 0 2500 2500;" xml:space="preserve">
-
<g id="Illustration">
	<g id="Online_meetup_1_">
		<circle style="fill:transparent;" cx="1250" cy="1250" r="915"/>
		<g>
			<g>
				
					<ellipse transform="matrix(0.7071 -0.7071 0.7071 0.7071 -503.0486 1216.241)" style="fill:#F7F1EB;" cx="1216.608" cy="1215.354" rx="637.01" ry="637.011"/>
				<g>
					<path style="fill:#D3BBA3;" d="M1308.981,1854.57c-1.27,0-2.513-0.003-3.785-0.011
						c-170.738-0.984-330.874-68.397-450.908-189.822c-120.035-121.426-185.599-282.326-184.616-453.063
						c0.983-170.738,68.396-330.874,189.821-450.909c120.521-119.141,279.961-184.628,449.279-184.628
						c1.27,0,2.513,0.004,3.785,0.011c170.738,0.983,330.874,68.396,450.907,189.821
						c120.036,121.425,185.601,282.327,184.617,453.065c-0.984,170.737-68.397,330.873-189.821,450.908
						C1637.738,1789.083,1478.3,1854.57,1308.981,1854.57z M1308.774,580.547c-168.163,0-326.484,65.027-446.181,183.354
						c-120.588,119.207-187.536,278.238-188.512,447.797c-2.016,350.027,281.112,636.434,631.14,638.451
						c1.217,0.007,2.498,0.011,3.714,0.011c348.364,0,632.727-282.342,634.736-631.152l2.205,0.013l-2.205-0.013
						c0.978-169.56-64.136-329.351-183.342-449.939c-119.207-120.587-278.238-187.535-447.798-188.512
						C1311.281,580.551,1310.025,580.547,1308.774,580.547z"/>
					<path style="fill:#D3BBA3;" d="M1309.993,908.559c-176.872,0-350.723-29.78-502.759-86.119
						c-1.141-0.423-1.724-1.692-1.301-2.834c0.423-1.143,1.691-1.724,2.834-1.302c151.549,56.161,324.871,85.845,501.226,85.845
						c175.001,0,347.167-29.258,497.88-84.611c1.141-0.419,2.409,0.167,2.829,1.31c0.42,1.143-0.166,2.41-1.309,2.83
						C1658.197,879.207,1485.509,908.559,1309.993,908.559z"/>
					<path style="fill:#D3BBA3;" d="M802.17,1603.719c-0.891,0-1.731-0.545-2.064-1.429c-0.429-1.14,0.147-2.411,1.288-2.84
						c153.488-57.767,329.359-88.301,508.599-88.301c178.274,0,353.32,30.224,506.215,87.406c1.139,0.426,1.718,1.697,1.292,2.837
						c-0.426,1.14-1.694,1.718-2.838,1.293c-152.404-56.999-326.916-87.127-504.669-87.127c-178.716,0-354.05,30.436-507.047,88.018
						C802.691,1603.673,802.428,1603.719,802.17,1603.719z"/>
					<path style="fill:#D3BBA3;" d="M1308.878,1854.57c-89.205,0-172.952-66.683-235.817-187.765
						c-62.625-120.624-97.115-280.952-97.115-451.451s34.49-330.827,97.115-451.451c62.864-121.082,146.612-187.765,235.817-187.765
						c89.205,0,172.951,66.683,235.815,187.765c62.626,120.623,97.115,280.952,97.115,451.451s-34.489,330.827-97.115,451.45
						C1481.829,1787.887,1398.083,1854.57,1308.878,1854.57z M1308.878,580.548c-181.148,0-328.522,284.773-328.522,634.806
						s147.374,634.806,328.522,634.806c181.146,0,328.52-284.773,328.52-634.806S1490.024,580.548,1308.878,580.548z"/>
					<path style="fill:#D3BBA3;" d="M1308.878,1853.723c-1.219,0-2.205-0.987-2.205-2.205V579.7c0-1.218,0.986-2.205,2.205-2.205
						c1.219,0,2.205,0.987,2.205,2.205v1271.818C1311.083,1852.735,1310.096,1853.723,1308.878,1853.723z"/>
					<path style="fill:#D3BBA3;" d="M1946.025,1218.656c-0.006,0-0.011,0-0.017,0L671.47,1208.72
						c-1.218-0.01-2.197-1.005-2.188-2.222c0.01-1.217,0.956-2.174,2.222-2.188l1274.538,9.936c1.219,0.01,2.196,1.004,2.188,2.222
						C1948.222,1217.68,1947.235,1218.656,1946.025,1218.656z"/>
				</g>
			</g>
		</g>
		<g>
			<g>
				
					<rect x="343.448" y="1039.386" transform="matrix(-1 -1.224647e-16 1.224647e-16 -1 1491.6844 2649.4563)" style="fill:#FFFFFF;" width="804.789" height="570.684"/>
				
					<rect x="510.208" y="923.125" transform="matrix(-1.836970e-16 1 -1 -1.836970e-16 2046.1124 554.428)" style="fill:#F7F1EB;" width="471.269" height="754.29"/>
				
					<ellipse transform="matrix(0.9239 -0.3827 0.3827 0.9239 -544.0343 404.9287)" style="fill:#F2E6DC;" cx="745.842" cy="1569.99" rx="15.149" ry="15.149"/>
				<path style="fill:#FFFFFF;" d="M661.127,1622.161h23.826l0,0c0,17.873,14.489,32.362,32.362,32.362h57.054
					c17.873,0,32.362-14.489,32.362-32.362l0,0h23.825l23.826,126.62v10.589H637.301v-10.589L661.127,1622.161z"/>
				<path style="fill:#FFFFFF;" d="M854.383,1774.812H637.301c-1.218,0-2.205-0.987-2.205-2.205c0-1.218,0.987-2.205,2.205-2.205
					h217.082c1.218,0,2.205,0.987,2.205,2.205C856.588,1773.825,855.601,1774.812,854.383,1774.812z"/>
			</g>
			<g>
				<g>
					<path style="fill:#EFBC73;" d="M935.421,1455.441c0,0,65.031,64.985,140.762,69.159
						c75.731,4.174,107.174-39.542,114.017-70.571s-32.639-262.171-189.19-360.684
						C1001.011,1093.345,903.679,1336.978,935.421,1455.441z"/>
					<g>
						<path style="fill:#EFBC73;" d="M551.694,1446.631c0,0-66.856,111.985-150.065,61.101
							c-83.208-50.884-52.499-316.132,99.031-393.007c197.2-100.045,429.836-42.177,500.351-21.379l-43.37,440.869h-428.92
							L551.694,1446.631z"/>
						<path style="fill:#363E44;" d="M556.474,1276.787c-0.183,0-0.369-0.023-0.555-0.071c-1.178-0.306-1.886-1.51-1.579-2.688
							l12.982-50.01c0.305-1.178,1.501-1.884,2.688-1.58c1.178,0.306,1.885,1.51,1.579,2.688l-12.982,50.01
							C558.35,1276.129,557.455,1276.787,556.474,1276.787z"/>
						<path style="fill:#363E44;" d="M964.555,1466.162c-0.072,0-0.144-0.003-0.219-0.011c-1.211-0.119-2.097-1.198-1.978-2.41
							l5.274-53.608c0.12-1.212,1.179-2.104,2.411-1.978c1.211,0.119,2.097,1.198,1.978,2.41l-5.274,53.608
							C966.634,1465.312,965.675,1466.162,964.555,1466.162z"/>
					</g>
					<path style="fill:#84524D;" d="M982.126,1296.186l63.094,159.369c17.077,43.135,66.318,63.753,109.034,45.654h0
						c46.363-19.644,64.516-75.843,38.405-118.897l-87.614-144.468L982.126,1296.186z"/>
					<g>
						<g>
							<path style="fill:#84524D;" d="M445.202,1325.077c0,0,135.525-56.704,208.1-84.889
								c125.751-48.836,198.166-35.325,198.253-17.245c0.095,19.62-37.626,8.432-55.611,14.138
								c2.919,1.441,10.608,7.35,10.991,17.047c0.567,14.351-9.93,18.838-10.722,19.639c1.026,0.403,11.974,5.066,13.864,14.604
								c2.129,10.743-2.275,19.008-8.809,23.993c2.518,1.083,11.431,6.096,12.997,15.32c1.61,9.488-3.106,20.652-12.034,23.64
								c-16.378,5.481-65.339,20.767-88.325,31.332c-45.232,20.791-196.654,117.832-269.406,129.279
								c-54.541,2.174-79.897-73.959-57.142-134.001C401.677,1340.151,445.202,1325.077,445.202,1325.077z"/>
							<g>
								<path style="fill:#363E44;" d="M781.576,1349.99c-1.061,0-1.996-0.768-2.174-1.849l-2.524-15.368
									c-0.197-1.201,0.617-2.336,1.818-2.533c1.193-0.2,2.335,0.616,2.533,1.818l2.525,15.369
									c0.197,1.202-0.617,2.336-1.818,2.533C781.814,1349.98,781.694,1349.99,781.576,1349.99z"/>
								<path style="fill:#363E44;" d="M774.855,1313.044c-1.087,0-2.034-0.804-2.182-1.911l-2.344-17.464
									c-0.161-1.207,0.686-2.317,1.893-2.479c1.201-0.157,2.317,0.685,2.478,1.892l2.344,17.464
									c0.161,1.207-0.686,2.317-1.893,2.479C775.052,1313.038,774.953,1313.044,774.855,1313.044z"/>
								<path style="fill:#363E44;" d="M770.27,1273.719c-1.06,0-1.995-0.766-2.174-1.846c-0.478-2.892-0.889-5.503-1.303-8.117
									c-0.405-2.568-0.811-5.137-1.28-7.978c-0.198-1.202,0.616-2.336,1.816-2.534c1.21-0.208,2.335,0.615,2.535,1.816
									c0.47,2.852,0.877,5.431,1.284,8.009c0.411,2.604,0.821,5.205,1.298,8.086c0.198,1.201-0.615,2.336-1.816,2.535
									C770.51,1273.709,770.388,1273.719,770.27,1273.719z"/>
								<path style="fill:#363E44;" d="M763.607,1241.794c-0.999,0-1.904-0.684-2.143-1.699l-3.545-15.017
									c-0.28-1.185,0.454-2.372,1.638-2.652c1.188-0.281,2.373,0.453,2.653,1.639l3.545,15.016c0.28,1.185-0.454,2.373-1.64,2.653
									C763.945,1241.774,763.775,1241.794,763.607,1241.794z"/>
							</g>
						</g>
					</g>
					<g>
						<g>
							<path style="fill:#FFFFFF;" d="M835.8,1362.766c-0.245,0-0.495-0.042-0.74-0.128c-1.148-0.408-1.746-1.67-1.337-2.817
								l86.172-241.945c0.315-0.885,1.137-1.491,2.096-1.465l188.915,1.653c1.218,0.011,2.196,1.006,2.186,2.224
								c-0.011,1.211-0.996,2.186-2.205,2.186c-0.006,0-0.013,0-0.019,0l-187.345-1.639L837.876,1361.3
								C837.556,1362.203,836.706,1362.766,835.8,1362.766z"/>
						</g>
						<g>
							<polygon style="fill:#ff6900;" points="1038.912,1377.08 849.997,1377.08 936.169,1135.136 1125.084,1135.136 							"/>
						</g>
					</g>
					<g>
						<path style="fill:#84524D;" d="M1063.834,1291.696c16.662,9.483,18.678,20.586,13.4,29.861
							c-5.279,9.275-15.855,13.21-32.516,3.727c-16.662-9.483-33.1-28.794-27.821-38.069
							C1022.175,1277.94,1047.172,1282.213,1063.834,1291.696z"/>
						<path style="fill:#84524D;" d="M1078.438,1257.545c19.311,10.991,21.649,23.859,15.53,34.609
							c-6.118,10.75-18.376,15.311-37.687,4.32c-19.311-10.991-38.364-33.373-32.245-44.122
							C1030.154,1241.601,1059.127,1246.554,1078.438,1257.545z"/>
						<path style="fill:#84524D;" d="M1094.451,1237.903c16.662,9.483,27.237,5.548,32.516-3.727
							c5.279-9.275,3.262-20.377-13.4-29.861c-16.662-9.483-41.659-13.756-46.938-4.481
							C1061.351,1209.109,1077.789,1228.419,1094.451,1237.903z"/>
						<path style="fill:#84524D;" d="M1072.546,1267.898c19.311,10.991,31.568,6.43,37.687-4.32
							c6.118-10.75,3.781-23.618-15.53-34.609c-19.311-10.991-48.284-15.944-54.402-5.194
							C1034.182,1234.525,1053.234,1256.907,1072.546,1267.898z"/>
					</g>
				</g>
				<g>
					<path style="fill:#84524D;" d="M755.258,1113.598L755.258,1113.598c21.708,5.213,43.532-8.159,48.744-29.868l30.173-125.654
						c1.579-6.576-2.472-13.187-9.048-14.766l-54.797-13.158c-6.576-1.579-13.188,2.472-14.767,9.048l-30.172,125.653
						C720.177,1086.561,733.549,1108.385,755.258,1113.598z"/>
					<g>
						<g>
							<path style="fill:#84524D;" d="M843.354,1055.611c-21.001,12.092-72.942-31.132-72.942-31.132l-25.445-69.524
								c3.238-33.937,33.374-58.823,67.311-55.585c33.937,3.238,58.823,33.374,55.585,67.311
								C867.863,966.681,864.743,1043.296,843.354,1055.611z"/>
							<path style="fill:#84524D;" d="M859.26,982.165c0,0,15.512,19.702,14.14,24.382c-1.637,5.586-21.168,7.226-21.168,7.226
								S859.714,982.252,859.26,982.165z"/>
							<g>
								<path style="fill:#FFFFFF;" d="M804.057,974.244c0,0,10.815-4.552,23.216-3.368c2.638,0.252-4.354,20.89-6.744,19.456
									C810.019,984.025,804.057,974.244,804.057,974.244z"/>
								<g>
									<defs>
										<path id="SVGID_1_" d="M804.057,974.244c0,0,15.907-6.695,31.258-1.734c15.351,4.96,24.333,19.697,24.333,19.697
											s-15.907,6.694-31.258,1.734C813.039,988.98,804.057,974.244,804.057,974.244z"/>
									</defs>
									<clipPath id="SVGID_00000151543963518744011210000005219546759675861171_">
										<use xlink:href="#SVGID_1_"  style="overflow:visible;"/>
									</clipPath>
									<path style="clip-path:url(#SVGID_00000151543963518744011210000005219546759675861171_);fill:#363E44;" d="
										M827.85,970.384c8.984-7.419,22.282-6.151,29.702,2.834c7.419,8.984,6.15,22.282-2.834,29.702
										c-8.984,7.419-22.282,6.15-29.701-2.834C817.597,991.101,818.865,977.803,827.85,970.384z"/>
								</g>
							</g>
							<path style="fill:#363E44;" d="M836.838,1025.202c-2.407,0-4.794-0.794-6.744-2.342c-3.214-2.549-4.725-6.8-3.853-10.829
								c0.258-1.191,1.439-1.944,2.623-1.688c1.19,0.258,1.945,1.432,1.688,2.621c-0.52,2.4,0.376,4.929,2.283,6.442
								c1.979,1.571,4.723,1.831,6.989,0.661c1.089-0.557,2.414-0.132,2.97,0.95c0.559,1.082,0.133,2.412-0.948,2.97
								C840.265,1024.802,838.546,1025.202,836.838,1025.202z"/>
							<path style="fill:#363E44;" d="M824.16,1059.45c-0.196,0-0.394-0.026-0.592-0.081c-23.836-6.63-53.419-31.096-54.667-32.135
								c-0.936-0.778-1.064-2.169-0.284-3.105c0.781-0.936,2.169-1.062,3.105-0.285c0.298,0.249,30.109,24.902,53.029,31.276
								c1.172,0.326,1.859,1.542,1.533,2.715C826.011,1058.811,825.125,1059.45,824.16,1059.45z"/>
						</g>
						<path style="fill:#363E44;" d="M851.541,933.433c9.758,4.122,21.036,2.198,28.821-4.987
							c13.901-12.83,33.233-34.311,31.255-53.085c-0.377-3.575-1.333-5.999-3.382-8.596c-11.411-14.46-38.783,6.33-78.135,2.365
							c-37.919-3.82-55.008-27.41-75.311-16.173c-8.927,4.941-13.06,13.731-14.142,15.825c-14.301,27.655,3.67,51.009,3.67,51.009
							s-13.069-14.26-29.471,5.416c-16.4,19.677,55.243,55.651,55.243,55.651l12.795-4.717l2.165-27.262
							c1.648-20.733,23.108-33.77,42.267-25.678L851.541,933.433z"/>
						<path style="fill:#84524D;" d="M733.024,954.062c-5.608,10.335-1.776,23.259,8.559,28.867
							c10.335,5.608,23.26,1.776,28.868-8.558c5.608-10.335,1.776-23.259-8.559-28.867
							C751.557,939.896,738.632,943.727,733.024,954.062z"/>
					</g>
				</g>
			</g>
		</g>
		<g>
			<g>
				<path style="fill:#E6D0BE;" d="M782.453,641.47h18.541c1.66,9.038,4.029,17.827,7.038,26.313l-16.045,9.264l31.373,54.341
					l16.082-9.285c5.902,6.909,12.338,13.345,19.247,19.247l-9.285,16.082l54.341,31.374h0l9.264-16.046
					c8.486,3.01,17.275,5.377,26.313,7.038v18.541h62.747v-18.541c9.038-1.661,17.827-4.028,26.313-7.038l9.264,16.046l0,0
					l54.341-31.374l-9.285-16.082c6.909-5.902,13.345-12.338,19.247-19.247l16.082,9.285l31.374-54.341l-16.045-9.264
					c3.009-8.486,5.377-17.275,7.037-26.313h18.541v-62.747l0,0h-18.541c-1.66-9.038-4.028-17.827-7.037-26.313l16.045-9.264
					l-31.374-54.341l-16.082,9.285c-5.902-6.909-12.338-13.346-19.247-19.247l9.285-16.082l-54.341-31.374l-9.264,16.046
					c-8.486-3.01-17.275-5.378-26.313-7.038v-18.541h-62.747v18.541c-9.038,1.66-17.827,4.028-26.313,7.038l-9.264-16.046
					l-54.341,31.374l9.285,16.082c-6.909,5.902-13.345,12.338-19.247,19.247l-16.082-9.285l-31.373,54.341l16.045,9.264
					c-3.009,8.486-5.377,17.275-7.038,26.313h-18.541V641.47z M974.099,506.169c54.444,1.738,98.786,46.081,100.524,100.525
					c1.919,60.119-47.213,109.25-107.332,107.331c-54.444-1.738-98.786-46.081-100.523-100.525
					C864.849,553.38,913.98,504.249,974.099,506.169z"/>
			</g>
			<path style="fill:#F2E6DC;" d="M970.695,749.561c-63.542,0-119.055-42.899-134.999-104.323c-0.306-1.179,0.401-2.382,1.579-2.688
				c1.185-0.307,2.383,0.402,2.688,1.58c15.44,59.48,69.199,101.021,130.731,101.021c74.47,0,135.055-60.586,135.055-135.056
				c0-66.306-49.365-123.72-114.827-133.551c-1.205-0.181-2.034-1.303-1.853-2.508c0.181-1.205,1.315-2.033,2.507-1.853
				c32.682,4.908,62.677,21.426,84.461,46.513c22.003,25.339,34.121,57.798,34.121,91.399
				C1110.16,686.997,1047.596,749.561,970.695,749.561z"/>
		</g>
		<g>
			<g>
				<path style="fill:#363E44;" d="M2131.986,2081.733h-902.642v-579.837h902.642V2081.733z M1233.754,2077.324h893.823v-571.018
					h-893.823V2077.324z"/>
				
					<rect x="1252.484" y="1558.116" transform="matrix(-1 -1.224647e-16 1.224647e-16 -1 3360.1853 3596.3896)" style="fill:#E6D0BE;" width="855.217" height="480.157"/>
				<path style="fill:#363E44;" d="M2101.474,2163.4h-841.617c-30.825,0-55.904-25.079-55.904-55.905v-2.205h953.425v2.205
					C2157.378,2138.321,2132.3,2163.4,2101.474,2163.4z M1208.409,2109.699c1.158,27.377,23.792,49.291,51.448,49.291h841.617
					c27.655,0,50.289-21.914,51.447-49.291H1208.409z"/>
				<path style="fill:#363E44;" d="M1745.313,2129.29h-129.298c-1.219,0-2.205-0.987-2.205-2.205c0-1.218,0.986-2.205,2.205-2.205
					h129.298c1.219,0,2.205,0.987,2.205,2.205C1747.518,2128.303,1746.532,2129.29,1745.313,2129.29z"/>
			</g>
			<g>
				<g>
					<path style="fill:#D87355;" d="M1833.657,1968.159l-35.773,69.805h-220.856l105.542-240.069l277.25-55.877
						c82.843,67.314,57.642,295.946,57.642,295.946h-183.805V1968.159z"/>
					<path style="fill:#363E44;" d="M1839.367,1962.857c-0.319,0-0.644-0.07-0.952-0.218c-1.098-0.527-1.561-1.844-1.034-2.942
						l17.137-35.702c0.527-1.097,1.837-1.562,2.941-1.034c1.098,0.527,1.561,1.844,1.034,2.942l-17.137,35.702
						C1840.978,1962.396,1840.19,1962.857,1839.367,1962.857z"/>
				</g>
				<g>
					<path style="fill:#E2A18D;" d="M1713.042,1353.567c3.902-31.531,8.955-49.566,24.293-61.412
						c20.613-15.92,48.231-8.198,51.102-7.349c1.833,0.542,28.356,6.684,38.241,32.234c9.761,25.232,5.82,54.753-11.518,75.203
						l13.009,58.336c4.176,18.728-7.62,37.296-26.349,41.472l-4.242,0.946c-18.728,4.176-37.296-7.62-41.472-26.349l-8.69-38.969
						c-12.103,1.655-22.27,0.308-27.378-4.87C1710.887,1413.536,1708.446,1390.698,1713.042,1353.567z"/>
					<path style="fill:#363E44;" d="M1746.674,1429.081c-1.034,0-1.957-0.73-2.162-1.783l-2.803-14.351
						c-0.233-1.195,0.547-2.353,1.742-2.587c1.191-0.237,2.353,0.547,2.586,1.741l2.803,14.351c0.232,1.195-0.547,2.353-1.742,2.586
						C1746.956,1429.068,1746.814,1429.081,1746.674,1429.081z"/>
					<path style="fill:#363E44;" d="M1756.609,1382.087c-0.372,0-0.751-0.095-1.098-0.294c-1.055-0.607-1.419-1.955-0.812-3.011
						c1.219-2.119,2.293-4.066,3.406-6.09c0.926-1.679,1.88-3.409,2.967-5.33c0.599-1.06,1.944-1.431,3.004-0.833
						c1.061,0.6,1.434,1.945,0.833,3.005c-1.079,1.906-2.024,3.622-2.941,5.286c-1.128,2.047-2.214,4.017-3.445,6.16
						C1758.114,1381.689,1757.373,1382.087,1756.609,1382.087z"/>
					<path style="fill:#B77250;" d="M1865.979,1321.71c0-15.927-12.911-28.838-28.839-28.838c-0.024,0-0.049,0.002-0.074,0.002
						c1.45-3.154,2.281-6.651,2.281-10.35c0-13.716-11.119-24.835-24.836-24.835c-2.866,0-5.607,0.51-8.167,1.403
						c-0.741-13.051-11.529-23.414-24.765-23.414c-7.479,0-14.17,3.322-18.723,8.552c-5.14-8.009-14.119-13.321-24.342-13.321
						c-15.464,0-28.093,12.14-28.873,27.41c-0.737-0.066-1.48-0.113-2.235-0.113c-13.716,0-24.835,11.119-24.835,24.836
						c0,13.716,11.119,24.836,24.835,24.836c0.396,0,0.782-0.041,1.173-0.059c1.888,24.188,27.533,26.888,29.057,27.255
						c-2.827,11.1-5.652,22.2-8.477,33.3c4.238,1.175,9.307,2.861,13.544,4.036c2.371-11.661,6.927-16.209,13.414-17.404
						c10.217-1.881,19.841,7.404,20.86,17.415c0.929,9.138-2.282,18.735-10.968,23.916c10.358,0.16,21.203,0.026,32.493-0.487
						c5.889-0.268,11.645-0.627,17.256-1.065c3.398-2.261,25.22-17.325,29.386-45.369
						C1857.174,1345.944,1865.979,1334.859,1865.979,1321.71z"/>
				</g>
				<g>
					<g>
						<g>
							<path style="fill:#E2A18D;" d="M1594.882,1524.73c-130.185,39.884-196.774,104.804-171.82,151.868
								c16.068,30.306,92.18,36.784,196.588,10.933C1613.353,1643.619,1603.643,1577.697,1594.882,1524.73z"/>
						</g>
						<g>
							<path style="fill:#E2A18D;" d="M1550.34,1631.328c0,0,0.004-0.007,0.001-0.01
								c-73.981-113.854-124.287-196.05-140.814-220.815c-1.731-2.593-4.765-7.185-10.178-11.86
								c-20.057-17.325-40.635-8.047-70.037-16.641c-33.362-9.751-46.627-34.13-54.021-29.219
								c-5.143,3.416-2.729,14.021,9.673,32.098l-0.001,0.004c-11.002-12.652-26.671-29.158-33.644-23.058
								c-7.675,7.474,8.456,29.028,18.852,41.589c-12.583-15.205-23.823-19.526-26.864-15.156
								c-4.786,6.878,2.226,20.942,19.636,40.392l-0.001,0.001c-15.773-10.072-21.1-10.165-22.846-5.647
								c-3.188,8.249,11.426,23.971,26.477,35.888c16.942,13.417,34.737,17.944,46.025,20.532c0.003,0.001,0.006,0.003,0.006,0.003
								c43.548,85.116,53.04,106.339,89.71,174.309C1443.976,1730.966,1544.826,1705.591,1550.34,1631.328z"/>
							<path style="fill:#E2A18D;" d="M1354.443,1396.175c-16.857-29.977-16.584-44.362-11.748-46.882
								c8.132-4.238,33,15.464,63.155,56.172C1391.296,1404.162,1368.997,1397.479,1354.443,1396.175z"/>
							<g>
								<path style="fill:#363E44;" d="M1311.946,1402.945c-0.233,0-0.469-0.037-0.704-0.116c-4.095-1.379-8.079-3.143-11.84-5.244
									c-5.46-3.05-10.503-6.83-14.988-11.236c-0.868-0.854-0.881-2.25-0.026-3.118c0.848-0.869,2.246-0.88,3.118-0.027
									c4.203,4.13,8.929,7.674,14.045,10.532c3.527,1.969,7.26,3.622,11.099,4.915c1.154,0.389,1.774,1.639,1.385,2.793
									C1313.727,1402.363,1312.868,1402.945,1311.946,1402.945z"/>
								<path style="fill:#363E44;" d="M1295.595,1419.451c-0.233,0-0.469-0.037-0.704-0.116c-4.095-1.378-8.081-3.143-11.84-5.244
									c-5.458-3.049-10.501-6.829-14.988-11.236c-0.868-0.853-0.881-2.249-0.028-3.118c0.853-0.87,2.248-0.881,3.12-0.028
									c4.205,4.131,8.931,7.675,14.045,10.532c3.525,1.97,7.258,3.623,11.097,4.915c1.156,0.388,1.776,1.639,1.389,2.793
									C1297.376,1418.869,1296.516,1419.451,1295.595,1419.451z"/>
								<path style="fill:#363E44;" d="M1289.405,1447.03c-0.233,0-0.469-0.037-0.704-0.116c-4.097-1.379-8.083-3.144-11.84-5.243
									c-5.463-3.052-10.503-6.832-14.988-11.236c-0.868-0.853-0.881-2.25-0.026-3.118c0.851-0.869,2.246-0.881,3.118-0.027
									c4.203,4.129,8.929,7.673,14.045,10.532c3.523,1.968,7.256,3.621,11.099,4.914c1.154,0.388,1.774,1.638,1.387,2.793
									C1291.185,1446.448,1290.326,1447.03,1289.405,1447.03z"/>
							</g>
						</g>
					</g>
					<g>
						<path style="fill:#E2A18D;" d="M2080.909,1750.643c-122.931,25.208-202.457,43.909-229.479,49.106
							c-2.83,0.544-7.82,1.527-14.41,1c-24.417-1.954-31.666-21.516-56.403-35.286c-28.068-15.625-52.718-8.532-54.285-16.584
							c-1.09-5.602,7.455-10.895,27.398-14.466c0.002,0,0.002-0.003,0-0.003c-15.464,0.971-36.493,1.373-37.005-7.174
							c-0.063-9.901,24.588-13.274,39.601-14.586c-18.171,1.588-28.309-3.004-27.407-7.841c1.42-7.613,15.225-12.126,39.322-13.293
							c0.001,0,0.001-0.002,0-0.002c-16.864-3.842-20.382-7.288-18.542-11.369c3.359-7.451,23.189-8.038,40.798-5.869
							c19.824,2.441,34.351,11.212,43.38,16.96c0.002,0.001,0.006,0.002,0.008,0.001c84.268-26.582,140.111-43.651,207.732-66.505
							C2055.452,1620.056,2080.913,1750.643,2080.909,1750.643z"/>
						<path style="fill:#E2A18D;" d="M2011.954,1490.424c137.834,107.15,124.985,238.528,72.081,259.322
							c-29.977,11.782-107.693-57.163-175.429-174.355C1946.67,1547.617,1965.069,1522.841,2011.954,1490.424z"/>
					</g>
					<g>
						<g>
							<path style="fill:#ff6900;" d="M2105.943,1564.6c0,0-92.825-137.724-306.567-114.695
								c-131.53,14.171-290.366,105.65-290.366,105.65l54.528,166.67l54.357-16.137l17.866,133.872l392.236-66.793l-16.742-110.739
								L2105.943,1564.6z"/>
							<path style="fill:#363E44;" d="M1617.895,1708.293c-0.889,0-1.729-0.543-2.063-1.424c-0.431-1.139,0.142-2.411,1.281-2.843
								l32.969-12.485c1.139-0.427,2.414,0.141,2.844,1.281c0.431,1.139-0.142,2.411-1.281,2.843l-32.969,12.485
								C1618.418,1708.247,1618.155,1708.293,1617.895,1708.293z"/>
						</g>
						<path style="fill:#363E44;" d="M2105.943,1564.6c0,0-92.825-137.724-306.567-114.695
							c-131.53,14.171-290.366,105.65-290.366,105.65l54.528,166.67l54.357-16.137l17.866,133.872l392.236-66.793l-16.742-110.739
							L2105.943,1564.6z"/>
					</g>
				</g>
			</g>
		</g>
		<g>
			<g>
				<g>
					<g>
						<g>
							<rect x="1404.733" y="496.53" style="fill:#D3BBA3;" width="753.741" height="571.304"/>
							
								<rect x="1542.506" y="406.052" transform="matrix(-1.836970e-16 1 -1 -1.836970e-16 2540.8782 -1022.328)" style="fill:#F2E6DC;" width="478.195" height="706.446"/>
							<path style="fill:#F7F1EB;" d="M1795.791,1030.296c0,7.836-6.352,14.188-14.188,14.188c-7.836,0-14.188-6.352-14.188-14.188
								c0-7.836,6.352-14.188,14.188-14.188C1789.439,1016.108,1795.791,1022.46,1795.791,1030.296z"/>
						</g>
						<path style="fill:#D3BBA3;" d="M2158.474,1083.322L2158.474,1083.322c0,32.699-26.508,59.208-59.207,59.208h-790.059
							c-32.699,0-59.207-26.509-59.207-59.208l0,0H2158.474z"/>
						<path style="fill:#F2E6DC;" d="M1960.077,1138.599c-1.219,0-2.205-0.987-2.205-2.205c0-1.218,0.986-2.205,2.205-2.205
							c24.664,0,44.732-20.067,44.732-44.732c0-1.218,0.986-2.205,2.205-2.205c1.219,0,2.205,0.987,2.205,2.205
							C2009.218,1116.554,1987.174,1138.599,1960.077,1138.599z"/>
						<path style="fill:#F2E6DC;" d="M1658.632,1124.679h-88.572c-15.087,0-27.362-12.275-27.362-27.363
							c0-1.218,0.986-2.205,2.205-2.205h138.889c1.219,0,2.205,0.987,2.205,2.205
							C1685.997,1112.404,1673.722,1124.679,1658.632,1124.679z M1547.214,1099.521c1.113,11.625,10.936,20.748,22.847,20.748
							h88.572c11.913,0,21.736-9.123,22.849-20.748H1547.214z"/>
					</g>
				</g>
			</g>
			<g>
				<g>
					<path style="fill:#ff6900;" d="M1930.243,995.634h-377.565c22.988-55.04,46.722-105.286,70.07-150.674
						c101.173,1.764,177.142,5.944,268.12,6.554C1907.979,897.128,1920.863,945.726,1930.243,995.634z"/>
				</g>
				<g>
					<g>
						<path style="fill:#9E6C5A;" d="M1567.063,611.238c-112.551,46.726-167.482,86.402-146.316,127.558
							c12.278,23.874,92.126,19.834,182.886-12.329C1594.501,689.054,1579.114,656.259,1567.063,611.238z"/>
						<path style="fill:#9E6C5A;" d="M1936.004,607.949c41.895,44.774,170.336,167.128,121.178,216.947
							c-40.662,41.208-160.778-83.106-205.125-125.066C1880.039,669.203,1908.021,638.576,1936.004,607.949z"/>
						<path style="fill:#FFFFFF;" d="M1970.015,599.589c0,0-112.167-53.325-215.14-44.131
							c-102.973,9.194-203.648,49.648-203.648,49.648l49.188,125.039l-14.71,157.537l364.084-35.148l-27.582-114.574
							L1970.015,599.589z"/>
					</g>
					<g>
						<path style="fill:#9E6C5A;" d="M1532.838,709.225c0.003-0.002,0.004-0.005,0.003-0.008
							c-40.309-102.662-66.939-176.272-76.053-198.674c-0.954-2.346-2.62-6.494-6.166-11.097
							c-13.136-17.057-31.023-13.028-53.02-24.661c-24.958-13.199-31.54-34.761-38.224-32.059c-4.65,1.88-4.457,10.712,2.464,27.119
							c0,0.001-0.002,0.003-0.003,0.002c-6.692-11.86-16.469-27.549-23.012-23.832c-7.326,4.696,1.996,24.478,8.221,36.169
							c-7.534-14.151-15.774-19.422-18.906-16.44c-4.93,4.693-1.643,17.027,9.04,35.344c0,0.001,0,0.002-0.001,0.001
							c-10.909-10.586-15.134-11.529-17.26-8.218c-3.882,6.045,5.185,20.938,15.218,32.875
							c11.295,13.439,24.717,19.943,33.277,23.843c0.002,0.001,0.004,0.003,0.005,0.006
							c20.777,74.829,34.039,122.977,49.588,183.754c3.182,12.434,16.335,19.475,28.449,15.238
							C1479.213,737.129,1497.449,730.095,1532.838,709.225z"/>
						<path style="fill:#363E44;" d="M1518.191,673.856c-0.883,0-1.718-0.535-2.056-1.409c-4.399-11.354-8.595-22.253-12.581-32.658
							c-0.437-1.137,0.134-2.412,1.27-2.848c1.133-0.435,2.411,0.133,2.846,1.27c3.985,10.4,8.178,21.293,12.577,32.642
							c0.439,1.135-0.125,2.413-1.26,2.853C1518.725,673.808,1518.456,673.856,1518.191,673.856z"/>
						<path style="fill:#9E6C5A;" d="M1415.29,490.161c-8.527-26.603-5.964-38.006-1.705-39.222
							c7.162-2.046,23.739,17.686,41.098,54.997C1443.314,502.524,1426.659,493.571,1415.29,490.161z"/>
						<path style="fill:#363E44;" d="M1411.537,538.751c-0.934,0-1.802-0.598-2.101-1.535c-1.417-4.44-4.453-10.821-10.878-16.008
							c-9.101-7.345-19.4-7.593-23.385-7.359c-1.26,0.074-2.259-0.857-2.33-2.072c-0.071-1.216,0.857-2.259,2.071-2.33
							c4.513-0.266,16.119,0.021,26.413,8.33c7.275,5.874,10.71,13.084,12.312,18.098c0.368,1.16-0.271,2.401-1.432,2.771
							C1411.985,538.717,1411.759,538.751,1411.537,538.751z"/>
						<path style="fill:#363E44;" d="M1439.33,492.974c-0.357,0-0.721-0.087-1.057-0.271c-5.122-2.804-10.977-4.372-17.173-6.031
							c-3.006-0.805-6.115-1.637-9.358-2.658c-1.163-0.366-1.809-1.603-1.443-2.765c0.368-1.161,1.606-1.807,2.765-1.441
							c3.154,0.992,6.216,1.812,9.177,2.605c6.459,1.73,12.562,3.363,18.151,6.422c1.068,0.585,1.46,1.925,0.874,2.993
							C1440.865,492.559,1440.11,492.974,1439.33,492.974z"/>
						<path style="fill:#363E44;" d="M1380.726,489.069c-0.377,0-0.758-0.096-1.107-0.299c-3.053-1.776-5.958-3.844-8.63-6.148
							c-3.874-3.34-7.293-7.198-10.167-11.467c-0.678-1.01-0.411-2.38,0.599-3.06c1.012-0.678,2.379-0.413,3.062,0.598
							c2.653,3.943,5.811,7.506,9.388,10.589c2.465,2.126,5.146,4.036,7.967,5.675c1.053,0.612,1.41,1.962,0.797,3.014
							C1382.225,488.676,1381.486,489.069,1380.726,489.069z"/>
						<path style="fill:#363E44;" d="M1365.023,499.538c-0.377,0-0.758-0.096-1.107-0.299c-3.053-1.776-5.958-3.844-8.63-6.148
							c-3.88-3.345-7.299-7.203-10.167-11.467c-0.678-1.011-0.411-2.38,0.601-3.06c1.012-0.681,2.379-0.41,3.06,0.599
							c2.646,3.938,5.805,7.5,9.388,10.588c2.465,2.126,5.146,4.036,7.967,5.675c1.053,0.612,1.41,1.961,0.797,3.014
							C1366.522,499.145,1365.783,499.538,1365.023,499.538z"/>
						<path style="fill:#363E44;" d="M1355.601,520.475c-0.377,0-0.758-0.096-1.107-0.299c-3.053-1.776-5.958-3.844-8.63-6.148
							c-3.874-3.34-7.293-7.198-10.167-11.467c-0.678-1.01-0.411-2.38,0.599-3.06c1.012-0.678,2.379-0.413,3.062,0.598
							c2.653,3.943,5.811,7.506,9.388,10.589c2.465,2.126,5.146,4.036,7.967,5.675c1.053,0.612,1.41,1.962,0.797,3.014
							C1357.099,520.082,1356.361,520.475,1355.601,520.475z"/>
					</g>
					<g>
						<g>
							<path style="fill:#9E6C5A;" d="M2011.443,733.868c-47.358,10.304-160.085,29.049-171.016,31.317
								c-20.434,4.24-129.505,29.839-127.517,45.978c0.95,7.712,22.185,3.73,29.325,2.175c-5.147,4.099-16.019,11.74-12.748,19.813
								c3.842,9.484,21.309,3.155,21.866,3.239c-5.649,3.632-14.213,11.135-11.997,17.282c2.884,7.999,13.621,7.883,21.098,5.686
								c-0.484,1.251-8.959,9.621-6.99,14.444c2.181,5.344,11.625,6.32,21.202,5.136c18.158-3.753,89.507-14.548,124.415-18.143
								c81.987-8.444,107.287-17.828,146.209-28.883C2060.527,827.583,2034.682,745.726,2011.443,733.868z"/>
							<path style="fill:#363E44;" d="M1925.269,751.198c-1.044,0-1.972-0.746-2.166-1.81c-0.22-1.198,0.575-2.346,1.772-2.564
								c22.955-4.182,70.494-12.942,86.124-16.161c1.206-0.245,2.358,0.523,2.605,1.714c0.245,1.193-0.521,2.359-1.714,2.605
								c-15.671,3.228-63.253,11.996-86.223,16.181C1925.534,751.186,1925.4,751.198,1925.269,751.198z"/>
							<path style="fill:#363E44;" d="M1741.828,814.838c-0.739,0-1.46-0.371-1.878-1.046c-0.639-1.036-0.321-2.394,0.717-3.035
								c3.805-2.353,7.801-4.458,11.875-6.259c7.329-3.237,15.081-5.57,23.043-6.934c1.227-0.207,2.34,0.601,2.545,1.801
								c0.207,1.2-0.601,2.34-1.8,2.545c-7.605,1.304-15.01,3.531-22.005,6.622c-3.891,1.719-7.706,3.729-11.341,5.976
								C1742.624,814.732,1742.224,814.838,1741.828,814.838z"/>
							<path style="fill:#363E44;" d="M1750.839,838.155c-0.823,0-1.613-0.463-1.992-1.255c-0.525-1.099-0.06-2.415,1.038-2.94
								c0.846-0.404,1.714-0.803,2.603-1.195c7.329-3.237,15.081-5.57,23.043-6.935c1.219-0.206,2.343,0.601,2.545,1.801
								c0.207,1.2-0.601,2.34-1.8,2.546c-7.605,1.304-15.01,3.532-22.005,6.622c-0.846,0.374-1.675,0.755-2.483,1.141
								C1751.48,838.086,1751.157,838.155,1750.839,838.155z"/>
							<path style="fill:#363E44;" d="M1760.902,861.24c-0.915,0-1.772-0.575-2.086-1.49c-0.394-1.152,0.22-2.406,1.371-2.801
								c4.95-1.698,10.094-3.01,15.29-3.9c1.221-0.207,2.34,0.601,2.545,1.801c0.207,1.2-0.601,2.34-1.8,2.546
								c-4.963,0.85-9.876,2.104-14.605,3.726C1761.38,861.202,1761.139,861.24,1760.902,861.24z"/>
						</g>
					</g>
				</g>
				<g>
					<path style="fill:#9E6C5A;" d="M1785.684,379.763c-2.598-1.373-27.679-14.148-50.595-2.817
						c-17.051,8.431-25.404,24.807-35.26,54.392c-11.607,34.84-13.678,57.288-6.666,67.983
						c11.078,16.897,66.976,12.214,96.493-10.252c21.306-16.216,31.168-44.317,26.588-70.889
						C1811.677,391.682,1787.343,380.64,1785.684,379.763z"/>
					<path style="fill:#9E6C5A;" d="M1752.279,607.907h2.392c17.285,0,31.296-14.012,31.296-31.296v-96.446
						c0-17.284-14.012-31.296-31.296-31.296h-2.392c-17.285,0-31.296,14.012-31.296,31.296v96.446
						C1720.983,593.895,1734.995,607.907,1752.279,607.907z"/>
					<path style="fill:#363E44;" d="M1723.978,511.688c-0.803,0-1.593-0.01-2.371-0.03c-1.219-0.031-2.179-1.044-2.149-2.261
						c0.032-1.217,1.021-2.184,2.261-2.147c19.551,0.5,47.593-5.467,66.601-19.935c0.969-0.738,2.349-0.55,3.09,0.419
						c0.736,0.969,0.549,2.352-0.42,3.09C1771.894,505.359,1744.071,511.688,1723.978,511.688z"/>
					<g>
						
							<ellipse transform="matrix(0.979 -0.2037 0.2037 0.979 -40.2762 387.5657)" style="fill:#363E44;" cx="1862.822" cy="389.462" rx="51.18" ry="51.18"/>
						<path style="fill:#363E44;" d="M1879.713,447.915c-6.843,0-13.933-0.94-20.978-2.824
							c-14.919-3.991-27.903-11.757-36.558-21.866c-8.854-10.343-12.159-21.915-9.304-32.583
							c5.807-21.704,35.824-32.597,66.924-24.279c14.919,3.991,27.9,11.757,36.556,21.866c8.854,10.343,12.159,21.915,9.304,32.583
							c-2.853,10.669-11.493,19.045-24.33,23.586C1894.705,446.741,1887.363,447.915,1879.713,447.915z M1858.808,367.954
							c-20.657,0-37.717,9.032-41.676,23.828c-2.468,9.222,0.515,19.371,8.395,28.576c8.081,9.439,20.281,16.71,34.349,20.473
							c14.066,3.763,28.264,3.554,39.982-0.59c11.422-4.042,19.073-11.346,21.54-20.568c2.468-9.223-0.515-19.371-8.395-28.577
							c-8.081-9.439-20.278-16.71-34.347-20.473C1871.884,368.812,1865.175,367.954,1858.808,367.954z M1815.002,391.212h0.021
							H1815.002z"/>
						<path style="fill:#363E44;" d="M1876.313,460.821c-3.97,0-8.15-0.587-12.469-1.773c-12.831-3.527-25.386-11.967-35.348-23.768
							c-20.767-24.593-23.698-56.394-6.53-70.891l0,0c8.443-7.126,20.321-9.061,33.445-5.454
							c12.833,3.526,25.388,11.967,35.35,23.768c9.965,11.801,16.183,25.592,17.509,38.834c1.356,13.548-2.543,24.933-10.981,32.057
							C1891.626,458.376,1884.411,460.821,1876.313,460.821z M1824.812,367.759c-15.309,12.928-12.146,41.942,7.052,64.677
							c9.396,11.127,21.168,19.068,33.15,22.361c11.685,3.211,22.136,1.587,29.429-4.571c7.295-6.159,10.647-16.191,9.439-28.249
							c-1.238-12.364-7.095-25.301-16.489-36.428c-9.396-11.127-21.167-19.068-33.15-22.361
							C1842.565,359.978,1832.109,361.599,1824.812,367.759L1824.812,367.759z"/>
						<path style="fill:#363E44;" d="M1722.421,386.206c21.615-31.216,78.02-24.914,101.531,2.693
							c25.131,29.509,16.738,73.991,0.033,95.97c-9.931,13.066-30.79,29.68-41.098,21.37c-12.472-10.054,6.317-32.51-6.092-66.466
							C1767.21,413.544,1730.966,407.407,1722.421,386.206z"/>
					</g>
					<g>
						
							<ellipse transform="matrix(0.7395 -0.6732 0.6732 0.7395 152.857 1317.1545)" style="fill:#9E6C5A;" cx="1778.19" cy="461.086" rx="23.116" ry="19.539"/>
						<path style="fill:#363E44;" d="M1782.989,472.078c-0.728,0-1.44-0.361-1.862-1.021c-0.655-1.027-0.351-2.39,0.676-3.044
							c0.558-0.355,1.092-0.764,1.589-1.217c3.889-3.541,4.722-8.985,1.856-12.135c-0.672-0.736-1.494-1.296-2.448-1.664
							c-1.137-0.438-1.703-1.714-1.264-2.85c0.435-1.137,1.718-1.701,2.849-1.264c1.6,0.616,2.986,1.561,4.123,2.809
							c4.504,4.949,3.54,13.188-2.149,18.366c-0.685,0.622-1.419,1.185-2.188,1.674
							C1783.805,471.967,1783.394,472.078,1782.989,472.078z"/>
					</g>
					<g>
						<path style="fill:#FFFFFF;" d="M1762.534,441.852c0,0-8.111-6.57-18.998-8.633c-2.316-0.439-1.461,18.925,0.937,18.293
							C1755.016,448.73,1762.534,441.852,1762.534,441.852z"/>
						<path style="fill:#373E44;" d="M1736.263,432.621c2.511-0.075,4.941,0.172,7.254,0.609c3.585,5.684,3.754,12.601,0.966,18.276
							c-2.4,0.635-4.957,1.059-7.619,1.14c-14.344,0.431-26.274-9.232-26.274-9.232S1721.918,433.052,1736.263,432.621z"/>
					</g>
					<path style="fill:#363E44;" d="M1713.019,478.087c-2.771,0-5.534-1.262-7.418-3.558c-0.771-0.941-0.635-2.331,0.308-3.103
						c0.941-0.775,2.33-0.633,3.103,0.307c1.451,1.767,3.815,2.42,5.745,1.595c2.39-1.021,2.81-3.846,2.827-3.966
						c0.168-1.202,1.292-2.051,2.476-1.889c1.204,0.161,2.05,1.254,1.897,2.456c-0.258,2.011-1.699,5.844-5.469,7.454
						C1715.376,477.859,1714.196,478.087,1713.019,478.087z"/>
					<path style="fill:#363E44;" d="M1696.459,458.281c-0.622,0-1.24-0.263-1.677-0.774c-3.139-3.679-4.19-6.71-3.217-9.266
						c0.674-1.755,2.065-2.572,3.292-3.293c0.831-0.488,1.69-0.993,2.61-1.859c1.363-1.284,2.401-2.947,3.083-4.946
						c0.396-1.152,1.654-1.767,2.799-1.373c1.152,0.394,1.768,1.647,1.374,2.8c-0.919,2.685-2.343,4.949-4.233,6.728
						c-1.279,1.207-2.455,1.897-3.4,2.452c-0.915,0.537-1.298,0.784-1.406,1.066c-0.248,0.651,0.265,2.264,2.453,4.829
						c0.79,0.926,0.68,2.318-0.245,3.108C1697.475,458.108,1696.967,458.281,1696.459,458.281z"/>
				</g>
			</g>
		</g>
		<path style="fill:#E6D0BE;" d="M711.299,1927.669l-32.564-74.403l-35.367,15.479c-8.141-10.074-17.432-18.952-27.598-26.516
			l14.065-35.96l-75.637-29.585l-14.065,35.959c-12.6-1.341-25.449-1.123-38.264,0.754l-15.479-35.367l-74.403,32.564l15.479,35.367
			c-10.074,8.141-18.952,17.432-26.516,27.598l-35.959-14.065l-29.585,75.637l35.959,14.065c-1.341,12.6-1.123,25.449,0.754,38.264
			l-35.367,15.479l32.564,74.403l35.367-15.479c8.141,10.074,17.432,18.952,27.598,26.515l-14.065,35.959l75.637,29.585
			l14.065-35.959c12.6,1.341,25.449,1.123,38.264-0.754l15.479,35.367l74.403-32.564l-15.479-35.367
			c10.074-8.141,18.952-17.432,26.516-27.598l35.959,14.065l29.585-75.637l-35.959-14.065c1.341-12.6,1.123-25.449-0.754-38.264
			L711.299,1927.669z M557.919,2042.745c-42.769,18.719-92.614-0.778-111.333-43.546c-18.719-42.769,0.778-92.614,43.546-111.333
			c42.769-18.719,92.614,0.778,111.333,43.546C620.183,1974.181,600.687,2024.026,557.919,2042.745z"/>
		<path style="fill:#FFFFFF;" d="M1469.106,2006.611l-58.811-0.841l0.375-26.401c-7.297-2.236-14.34-5.271-20.978-9.039
			l-18.932,18.399l-40.992-42.182l18.933-18.399c-3.578-6.745-6.412-13.871-8.438-21.228l-26.4-0.377l0.842-58.814l26.4,0.377
			c2.235-7.293,5.269-14.336,9.041-20.978l-18.401-18.933l42.184-40.993l18.396,18.932c6.746-3.578,13.871-6.41,21.228-8.436
			l0.379-26.401l58.815,0.841l-0.379,26.401c7.297,2.235,14.338,5.269,20.978,9.039l18.933-18.399l40.994,42.182l-18.935,18.399
			c3.579,6.739,6.41,13.865,8.438,21.228l26.402,0.377l-0.844,58.814l-26.4-0.377c-2.235,7.299-5.271,14.342-9.039,20.978
			l18.399,18.933l-42.182,40.993l-18.399-18.932c-6.746,3.578-13.871,6.41-21.228,8.436L1469.106,2006.611z M1414.765,2001.424
			l49.996,0.715l0.362-25.344l1.63-0.42c8.122-2.095,15.965-5.212,23.314-9.264l1.473-0.812l17.662,18.173l35.856-34.847
			l-17.66-18.173l0.855-1.45c4.259-7.226,7.599-14.978,9.926-23.039l0.467-1.616l25.342,0.362l0.715-49.995l-25.343-0.362
			l-0.422-1.63c-2.097-8.128-5.213-15.972-9.265-23.313l-0.812-1.474l18.175-17.661l-34.849-35.857l-18.173,17.661l-1.449-0.854
			c-7.23-4.261-14.982-7.601-23.039-9.927l-1.617-0.467l0.362-25.344l-49.996-0.715l-0.362,25.344l-1.63,0.42
			c-8.122,2.095-15.966,5.212-23.314,9.264l-1.473,0.812l-17.66-18.173l-35.859,34.847l17.662,18.173l-0.855,1.45
			c-4.263,7.233-7.603,14.984-9.926,23.039l-0.467,1.617l-25.345-0.362l-0.713,49.995l25.34,0.362l0.422,1.63
			c2.095,8.12,5.211,15.964,9.265,23.313l0.812,1.473l-18.173,17.661l34.846,35.857l18.172-17.661l1.449,0.854
			c7.228,4.26,14.979,7.599,23.039,9.927l1.617,0.467L1414.765,2001.424z M1441.542,1937.79c-0.286,0-0.575-0.002-0.863-0.006
			c-15.714-0.224-30.4-6.555-41.351-17.825c-10.953-11.271-16.863-26.132-16.637-41.846c0.224-15.714,6.556-30.4,17.826-41.353
			c23.267-22.607,60.589-22.075,83.198,1.19c22.61,23.266,22.076,60.589-1.188,83.198
			C1471.462,1931.899,1456.937,1937.79,1441.542,1937.79z M1441.511,1824.554c-13.677,0-27.362,5.107-37.921,15.369
			c-10.428,10.132-16.284,23.718-16.491,38.253c-0.209,14.536,5.258,28.284,15.389,38.709
			c10.133,10.426,23.717,16.281,38.253,16.489c14.542,0.218,28.284-5.256,38.709-15.388l1.537,1.581l-1.537-1.581
			c21.523-20.915,22.016-55.44,1.102-76.963C1469.898,1830.062,1455.709,1824.554,1441.511,1824.554z"/>
	</g>
</g>
</svg>
