<?xml version="1.0" encoding="utf-8"?>
<!-- Generator: Adobe Illustrator 27.5.0, SVG Export Plug-In . SVG Version: 6.00 Build 0)  -->
<svg version="1.1" id="Illustration" xmlns="http://www.w3.org/2000/svg" xmlns:xlink="http://www.w3.org/1999/xlink" x="0px"
	 y="0px" viewBox="0 0 2500 2500" style="enable-background:new 0 0 2500 2500;" xml:space="preserve">
<g id="Tax_payment_deadline_1_">
	<circle style="fill:transparent;" cx="1250" cy="1250" r="915"/>
	<g>
		<g>
			<rect x="568.682" y="421.544" style="fill:#FFFFFF;" width="987.813" height="981.972"/>
			<path style="fill:#D3BBA3;" d="M1556.494,1404.517H568.682c-0.553,0-1-0.447-1-1V421.545c0-0.553,0.447-1,1-1h987.813
				c0.553,0,1,0.447,1,1v981.972C1557.494,1404.069,1557.047,1404.517,1556.494,1404.517z M569.682,1402.517h985.813V422.545
				H569.682V1402.517z"/>
		</g>
		<g>
			<path style="fill:#E6D0BE;" d="M1505.744,705.352H1395.34c-0.553,0-1-0.447-1-1V593.948c0-0.553,0.447-1,1-1h110.404
				c0.553,0,1,0.447,1,1v110.404C1506.744,704.905,1506.297,705.352,1505.744,705.352z M1396.34,703.352h108.404V594.948H1396.34
				V703.352z"/>
			<path style="fill:#E6D0BE;" d="M1375.405,705.352h-110.404c-0.553,0-1-0.447-1-1V593.948c0-0.553,0.447-1,1-1h110.404
				c0.553,0,1,0.447,1,1v110.404C1376.405,704.905,1375.958,705.352,1375.405,705.352z M1266.001,703.352h108.404V594.948h-108.404
				V703.352z"/>
			<path style="fill:#E6D0BE;" d="M1245.066,705.352h-110.404c-0.553,0-1-0.447-1-1V593.948c0-0.553,0.447-1,1-1h110.404
				c0.553,0,1,0.447,1,1v110.404C1246.066,704.905,1245.619,705.352,1245.066,705.352z M1135.662,703.352h108.404V594.948h-108.404
				V703.352z"/>
			<rect x="1004.323" y="593.948" style="fill:#D87355;" width="110.405" height="110.405"/>
			<path style="fill:#E6D0BE;" d="M984.389,705.352H873.984c-0.553,0-1-0.447-1-1V593.948c0-0.553,0.447-1,1-1h110.404
				c0.553,0,1,0.447,1,1v110.404C985.389,704.905,984.941,705.352,984.389,705.352z M874.984,703.352h108.404V594.948H874.984
				V703.352z"/>
			<path style="fill:#E6D0BE;" d="M854.05,705.352H743.646c-0.553,0-1-0.447-1-1V593.948c0-0.553,0.447-1,1-1H854.05
				c0.553,0,1,0.447,1,1v110.404C855.05,704.905,854.602,705.352,854.05,705.352z M744.646,703.352H853.05V594.948H744.646V703.352z
				"/>
			<path style="fill:#E6D0BE;" d="M723.794,705.352H613.389c-0.553,0-1-0.447-1-1V593.948c0-0.553,0.447-1,1-1h110.405
				c0.553,0,1,0.447,1,1v110.404C724.794,704.905,724.347,705.352,723.794,705.352z M614.389,703.352h108.405V594.948H614.389
				V703.352z"/>
			<path style="fill:#E6D0BE;" d="M1505.744,834.802H1395.34c-0.553,0-1-0.447-1-1V723.396c0-0.553,0.447-1,1-1h110.404
				c0.553,0,1,0.447,1,1v110.405C1506.744,834.354,1506.297,834.802,1505.744,834.802z M1396.34,832.802h108.404V724.396H1396.34
				V832.802z"/>
			<path style="fill:#E6D0BE;" d="M1375.405,834.802h-110.404c-0.553,0-1-0.447-1-1V723.396c0-0.553,0.447-1,1-1h110.404
				c0.553,0,1,0.447,1,1v110.405C1376.405,834.354,1375.958,834.802,1375.405,834.802z M1266.001,832.802h108.404V724.396h-108.404
				V832.802z"/>
			<path style="fill:#E6D0BE;" d="M1245.066,834.802h-110.404c-0.553,0-1-0.447-1-1V723.396c0-0.553,0.447-1,1-1h110.404
				c0.553,0,1,0.447,1,1v110.405C1246.066,834.354,1245.619,834.802,1245.066,834.802z M1135.662,832.802h108.404V724.396h-108.404
				V832.802z"/>
			<path style="fill:#E6D0BE;" d="M1114.728,834.802h-110.404c-0.553,0-1-0.447-1-1V723.396c0-0.553,0.447-1,1-1h110.404
				c0.553,0,1,0.447,1,1v110.405C1115.728,834.354,1115.28,834.802,1114.728,834.802z M1005.323,832.802h108.404V724.396h-108.404
				V832.802z"/>
			<path style="fill:#E6D0BE;" d="M984.389,834.802H873.984c-0.553,0-1-0.447-1-1V723.396c0-0.553,0.447-1,1-1h110.404
				c0.553,0,1,0.447,1,1v110.405C985.389,834.354,984.941,834.802,984.389,834.802z M874.984,832.802h108.404V724.396H874.984
				V832.802z"/>
			<path style="fill:#E6D0BE;" d="M854.05,834.802H743.646c-0.553,0-1-0.447-1-1V723.396c0-0.553,0.447-1,1-1H854.05
				c0.553,0,1,0.447,1,1v110.405C855.05,834.354,854.602,834.802,854.05,834.802z M744.646,832.802H853.05V724.396H744.646V832.802z
				"/>
			<path style="fill:#E6D0BE;" d="M723.711,834.802H613.307c-0.553,0-1-0.447-1-1V723.396c0-0.553,0.447-1,1-1h110.404
				c0.553,0,1,0.447,1,1v110.405C724.711,834.354,724.264,834.802,723.711,834.802z M614.307,832.802h108.404V724.396H614.307
				V832.802z"/>
			<path style="fill:#E6D0BE;" d="M1505.744,964.25H1395.34c-0.553,0-1-0.447-1-1V852.846c0-0.553,0.447-1,1-1h110.404
				c0.553,0,1,0.447,1,1V963.25C1506.744,963.803,1506.297,964.25,1505.744,964.25z M1396.34,962.25h108.404V853.846H1396.34V962.25
				z"/>
			<path style="fill:#E6D0BE;" d="M1375.405,964.25h-110.404c-0.553,0-1-0.447-1-1V852.846c0-0.553,0.447-1,1-1h110.404
				c0.553,0,1,0.447,1,1V963.25C1376.405,963.803,1375.958,964.25,1375.405,964.25z M1266.001,962.25h108.404V853.846h-108.404
				V962.25z"/>
			<path style="fill:#E6D0BE;" d="M1245.066,964.25h-110.404c-0.553,0-1-0.447-1-1V852.846c0-0.553,0.447-1,1-1h110.404
				c0.553,0,1,0.447,1,1V963.25C1246.066,963.803,1245.619,964.25,1245.066,964.25z M1135.662,962.25h108.404V853.846h-108.404
				V962.25z"/>
			<path style="fill:#E6D0BE;" d="M1114.728,964.25h-110.404c-0.553,0-1-0.447-1-1V852.846c0-0.553,0.447-1,1-1h110.404
				c0.553,0,1,0.447,1,1V963.25C1115.728,963.803,1115.28,964.25,1114.728,964.25z M1005.323,962.25h108.404V853.846h-108.404
				V962.25z"/>
			<path style="fill:#E6D0BE;" d="M984.389,964.25H873.984c-0.553,0-1-0.447-1-1V852.846c0-0.553,0.447-1,1-1h110.404
				c0.553,0,1,0.447,1,1V963.25C985.389,963.803,984.941,964.25,984.389,964.25z M874.984,962.25h108.404V853.846H874.984V962.25z"
				/>
			<path style="fill:#E6D0BE;" d="M854.05,964.25H743.646c-0.553,0-1-0.447-1-1V852.846c0-0.553,0.447-1,1-1H854.05
				c0.553,0,1,0.447,1,1V963.25C855.05,963.803,854.602,964.25,854.05,964.25z M744.646,962.25H853.05V853.846H744.646V962.25z"/>
			<path style="fill:#E6D0BE;" d="M723.711,964.25H613.307c-0.553,0-1-0.447-1-1V852.846c0-0.553,0.447-1,1-1h110.404
				c0.553,0,1,0.447,1,1V963.25C724.711,963.803,724.264,964.25,723.711,964.25z M614.307,962.25h108.404V853.846H614.307V962.25z"
				/>
			<path style="fill:#E6D0BE;" d="M1505.744,1093.698H1395.34c-0.553,0-1-0.447-1-1V982.294c0-0.553,0.447-1,1-1h110.404
				c0.553,0,1,0.447,1,1v110.404C1506.744,1093.251,1506.297,1093.698,1505.744,1093.698z M1396.34,1091.698h108.404V983.294
				H1396.34V1091.698z"/>
			<path style="fill:#E6D0BE;" d="M1375.405,1093.698h-110.404c-0.553,0-1-0.447-1-1V982.294c0-0.553,0.447-1,1-1h110.404
				c0.553,0,1,0.447,1,1v110.404C1376.405,1093.251,1375.958,1093.698,1375.405,1093.698z M1266.001,1091.698h108.404V983.294
				h-108.404V1091.698z"/>
			<path style="fill:#E6D0BE;" d="M1245.066,1093.698h-110.404c-0.553,0-1-0.447-1-1V982.294c0-0.553,0.447-1,1-1h110.404
				c0.553,0,1,0.447,1,1v110.404C1246.066,1093.251,1245.619,1093.698,1245.066,1093.698z M1135.662,1091.698h108.404V983.294
				h-108.404V1091.698z"/>
			<path style="fill:#E6D0BE;" d="M1114.728,1093.698h-110.404c-0.553,0-1-0.447-1-1V982.294c0-0.553,0.447-1,1-1h110.404
				c0.553,0,1,0.447,1,1v110.404C1115.728,1093.251,1115.28,1093.698,1114.728,1093.698z M1005.323,1091.698h108.404V983.294
				h-108.404V1091.698z"/>
			<path style="fill:#E6D0BE;" d="M984.389,1093.698H873.984c-0.553,0-1-0.447-1-1V982.294c0-0.553,0.447-1,1-1h110.404
				c0.553,0,1,0.447,1,1v110.404C985.389,1093.251,984.941,1093.698,984.389,1093.698z M874.984,1091.698h108.404V983.294H874.984
				V1091.698z"/>
			<path style="fill:#E6D0BE;" d="M854.05,1093.698H743.646c-0.553,0-1-0.447-1-1V982.294c0-0.553,0.447-1,1-1H854.05
				c0.553,0,1,0.447,1,1v110.404C855.05,1093.251,854.602,1093.698,854.05,1093.698z M744.646,1091.698H853.05V983.294H744.646
				V1091.698z"/>
			<path style="fill:#E6D0BE;" d="M723.711,1093.698H613.307c-0.553,0-1-0.447-1-1V982.294c0-0.553,0.447-1,1-1h110.404
				c0.553,0,1,0.447,1,1v110.404C724.711,1093.251,724.264,1093.698,723.711,1093.698z M614.307,1091.698h108.404V983.294H614.307
				V1091.698z"/>
		</g>
		<g>
			
				<ellipse transform="matrix(0.2298 -0.9732 0.9732 0.2298 699.2409 1818.2413)" style="fill:#F2E6DC;" cx="1498.343" cy="467.357" rx="14.543" ry="14.543"/>
			
				<ellipse transform="matrix(0.2298 -0.9732 0.9732 0.2298 631.7899 1733.0133)" style="fill:#F2E6DC;" cx="1410.772" cy="467.357" rx="14.543" ry="14.543"/>
			
				<ellipse transform="matrix(0.7071 -0.7071 0.7071 0.7071 57.0858 1072.5304)" style="fill:#F2E6DC;" cx="1323.202" cy="467.357" rx="14.543" ry="14.543"/>
			
				<ellipse transform="matrix(0.7071 -0.7071 0.7071 0.7071 31.437 1010.6086)" style="fill:#F2E6DC;" cx="1235.631" cy="467.357" rx="14.543" ry="14.543"/>
			
				<ellipse transform="matrix(0.7071 -0.7071 0.7071 0.7071 5.7882 948.6869)" style="fill:#F2E6DC;" cx="1148.06" cy="467.357" rx="14.543" ry="14.543"/>
			
				<ellipse transform="matrix(0.2298 -0.9732 0.9732 0.2298 361.9856 1392.1011)" style="fill:#F2E6DC;" cx="1060.49" cy="467.357" rx="14.543" ry="14.543"/>
			
				<ellipse transform="matrix(0.2298 -0.9732 0.9732 0.2298 294.5345 1306.8732)" style="fill:#F2E6DC;" cx="972.919" cy="467.357" rx="14.543" ry="14.543"/>
			
				<ellipse transform="matrix(0.7071 -0.7071 0.7071 0.7071 -71.1584 762.9215)" style="fill:#F2E6DC;" cx="885.349" cy="467.357" rx="14.543" ry="14.543"/>
			
				<ellipse transform="matrix(0.7071 -0.7071 0.7071 0.7071 -96.8072 700.9998)" style="fill:#F2E6DC;" cx="797.778" cy="467.357" rx="14.543" ry="14.543"/>
			
				<ellipse transform="matrix(0.7071 -0.7071 0.7071 0.7071 -122.456 639.078)" style="fill:#F2E6DC;" cx="710.207" cy="467.357" rx="14.543" ry="14.543"/>
			
				<ellipse transform="matrix(0.2298 -0.9732 0.9732 0.2298 24.7302 965.961)" style="fill:#F2E6DC;" cx="622.637" cy="467.357" rx="14.543" ry="14.543"/>
			<g>
				<g>
					<path style="fill:#FFFFFF;" d="M624.467,385.578v80.889V385.578z"/>
					<path style="fill:#D3BBA3;" d="M624.467,467.466c-0.553,0-1-0.447-1-1v-80.889c0-0.553,0.447-1,1-1s1,0.447,1,1v80.889
						C625.467,467.019,625.019,467.466,624.467,467.466z"/>
				</g>
				<g>
					<path style="fill:#FFFFFF;" d="M711.844,385.578v80.889V385.578z"/>
					<path style="fill:#D3BBA3;" d="M711.844,467.466c-0.553,0-1-0.447-1-1v-80.889c0-0.553,0.447-1,1-1c0.553,0,1,0.447,1,1v80.889
						C712.844,467.019,712.396,467.466,711.844,467.466z"/>
				</g>
				<g>
					<path style="fill:#FFFFFF;" d="M799.22,385.578v80.889V385.578z"/>
					<path style="fill:#D3BBA3;" d="M799.22,467.466c-0.553,0-1-0.447-1-1v-80.889c0-0.553,0.447-1,1-1c0.553,0,1,0.447,1,1v80.889
						C800.22,467.019,799.773,467.466,799.22,467.466z"/>
				</g>
				<g>
					<path style="fill:#FFFFFF;" d="M886.596,385.578v80.889V385.578z"/>
					<path style="fill:#D3BBA3;" d="M886.597,467.466c-0.553,0-1-0.447-1-1v-80.889c0-0.553,0.447-1,1-1c0.553,0,1,0.447,1,1v80.889
						C887.597,467.019,887.149,467.466,886.597,467.466z"/>
				</g>
				<g>
					<path style="fill:#FFFFFF;" d="M973.973,385.578v80.889V385.578z"/>
					<path style="fill:#D3BBA3;" d="M973.973,467.466c-0.553,0-1-0.447-1-1v-80.889c0-0.553,0.447-1,1-1c0.553,0,1,0.447,1,1v80.889
						C974.973,467.019,974.525,467.466,973.973,467.466z"/>
				</g>
				<g>
					<path style="fill:#FFFFFF;" d="M1061.349,385.578v80.889V385.578z"/>
					<path style="fill:#D3BBA3;" d="M1061.349,467.466c-0.553,0-1-0.447-1-1v-80.889c0-0.553,0.447-1,1-1s1,0.447,1,1v80.889
						C1062.349,467.019,1061.901,467.466,1061.349,467.466z"/>
				</g>
				<g>
					<path style="fill:#FFFFFF;" d="M1148.725,385.578v80.889V385.578z"/>
					<path style="fill:#D3BBA3;" d="M1148.726,467.466c-0.553,0-1-0.447-1-1v-80.889c0-0.553,0.447-1,1-1s1,0.447,1,1v80.889
						C1149.726,467.019,1149.278,467.466,1148.726,467.466z"/>
				</g>
				<g>
					<path style="fill:#FFFFFF;" d="M1236.102,385.578v80.889V385.578z"/>
					<path style="fill:#D3BBA3;" d="M1236.102,467.466c-0.553,0-1-0.447-1-1v-80.889c0-0.553,0.447-1,1-1s1,0.447,1,1v80.889
						C1237.102,467.019,1236.654,467.466,1236.102,467.466z"/>
				</g>
				<g>
					<path style="fill:#FFFFFF;" d="M1323.478,385.578v80.889V385.578z"/>
					<path style="fill:#D3BBA3;" d="M1323.479,467.466c-0.553,0-1-0.447-1-1v-80.889c0-0.553,0.447-1,1-1s1,0.447,1,1v80.889
						C1324.479,467.019,1324.031,467.466,1323.479,467.466z"/>
				</g>
				<g>
					<path style="fill:#FFFFFF;" d="M1410.854,385.578v80.889V385.578z"/>
					<path style="fill:#D3BBA3;" d="M1410.854,467.466c-0.553,0-1-0.447-1-1v-80.889c0-0.553,0.447-1,1-1s1,0.447,1,1v80.889
						C1411.854,467.019,1411.407,467.466,1410.854,467.466z"/>
				</g>
				<g>
					<path style="fill:#FFFFFF;" d="M1498.231,385.578v80.889V385.578z"/>
					<path style="fill:#D3BBA3;" d="M1498.23,467.466c-0.553,0-1-0.447-1-1v-80.889c0-0.553,0.447-1,1-1s1,0.447,1,1v80.889
						C1499.23,467.019,1498.783,467.466,1498.23,467.466z"/>
				</g>
			</g>
		</g>
	</g>
	<g>
		<path style="fill:#F7F1EB;" d="M2002.873,1571.521h-256.388c0,0-29.96,79.531-24.423,106.162
			c10.284,49.46,122.071,121.54,122.071,171.773c0,50.234-111.787,122.314-122.071,171.774
			c-5.537,26.631,24.423,106.162,24.423,106.162h256.388c0,0,29.96-79.531,24.423-106.162
			c-10.284-49.46-122.071-121.54-122.071-171.774c0-50.234,111.787-122.313,122.071-171.773
			C2032.833,1651.051,2002.873,1571.521,2002.873,1571.521z"/>
		<path style="fill:#EFBC73;" d="M1883.669,1852.131c0-29.706,52.662-68.79,76.532-102.005h-166.049
			c25.02,33.27,81.956,72.509,81.956,102.005c0,37.256,5.606,182.598-39.701,218.602c-15.606,12.401-73.741,42.634-73.741,42.634
			h232.609c0,0-16.37-12.37-59.867-32.077C1878.971,2055.72,1883.669,1889.387,1883.669,1852.131z"/>
		<path style="fill:#FFFFFF;" d="M2021.241,2128.392h-256.389c-0.416,0-0.789-0.258-0.936-0.647
			c-1.228-3.259-29.999-80.108-24.467-106.718c4.868-23.413,31.391-50.984,59.47-80.175c30.767-31.983,62.581-65.057,62.581-91.396
			c0-26.338-31.814-59.411-62.58-91.395c-28.08-29.191-54.603-56.763-59.471-80.176c-5.532-26.608,23.239-103.459,24.467-106.718
			c0.146-0.39,0.52-0.647,0.936-0.647h256.389c0.416,0,0.789,0.258,0.936,0.647c1.228,3.259,29.999,80.109,24.467,106.718
			c-4.868,23.413-31.391,50.984-59.471,80.176c-30.766,31.983-62.58,65.057-62.58,91.395c0,26.339,31.814,59.412,62.581,91.396
			c28.079,29.19,54.602,56.762,59.47,80.175c5.532,26.609-23.239,103.459-24.467,106.718
			C2022.03,2128.134,2021.657,2128.392,2021.241,2128.392z M1765.548,2126.392h254.998c2.828-7.638,29.292-80.174,24.139-104.959
			c-4.75-22.848-32.305-51.492-58.952-79.194c-31.041-32.27-63.14-65.638-63.14-92.782c0-27.144,32.098-60.512,63.14-92.781
			c26.646-27.702,54.202-56.348,58.952-79.195c5.154-24.787-21.311-97.321-24.139-104.959h-254.998
			c-2.828,7.638-29.292,80.175-24.139,104.959c4.75,22.848,32.306,51.493,58.952,79.195c31.042,32.27,63.14,65.638,63.14,92.781
			c0,27.145-32.099,60.513-63.14,92.782c-26.647,27.702-54.202,56.347-58.952,79.194
			C1736.255,2046.22,1762.72,2118.754,1765.548,2126.392z"/>
		<path style="fill:#FFFFFF;" d="M1991.445,2085.298c-0.093,0-0.188-0.013-0.281-0.04c-0.53-0.155-0.834-0.711-0.679-1.241
			c8.849-30.213,12.347-51.854,10.115-62.584c-3.64-17.502-20.788-38.137-35.32-54.158c-0.371-0.409-0.341-1.041,0.068-1.412
			c0.408-0.371,1.041-0.342,1.412,0.068c14.704,16.209,32.061,37.12,35.799,55.095c2.33,11.208-1.087,32.59-10.154,63.554
			C1992.277,2085.015,1991.878,2085.298,1991.445,2085.298z"/>
		<path style="fill:#FFFFFF;" d="M1980.355,1716.628c-0.219,0-0.439-0.071-0.624-0.22c-0.432-0.345-0.501-0.975-0.155-1.405
			c12.017-15.003,18.895-27.276,21.024-37.523c3.117-14.993-5.295-47.324-12.9-71.807c-0.164-0.527,0.131-1.088,0.658-1.252
			c0.53-0.161,1.09,0.131,1.252,0.658c7.676,24.708,16.152,57.396,12.949,72.807c-2.228,10.71-9.034,22.901-21.423,38.367
			C1980.939,1716.5,1980.649,1716.628,1980.355,1716.628z"/>
		<rect x="1721.868" y="2121.795" style="fill:#84524D;" width="305.902" height="36.994"/>
		<rect x="1721.868" y="1541.358" style="fill:#84524D;" width="305.902" height="36.994"/>
	</g>
	<g>
		<g>
			<g>
				<path style="fill:#FFFFFF;" d="M1185.743,1716.99l92.793,209.239l-367.645,196.051
					C910.892,2122.281,874.939,1786.442,1185.743,1716.99z"/>
				<path style="fill:#ff6900;" d="M1225.859,1375.514l-9.229,355.947c-1.196-0.14-212.878,117.037-211.399,106.954
					c0.979-6.663-12.182-296.841-21.22-492.876c-1.232-26.715,2.384-52.667,10.043-76.97l146.104,24.728L1225.859,1375.514z"/>
				<g>
					<polygon style="fill:#BC8271;" points="1120.041,1881.416 983.664,2005.92 878.58,1943.886 990.723,1788.59 					"/>
					<path style="fill:#E6D0BE;" d="M1108.585,2131.925H579.343c0,0,120.713-170.057,331.549-248.4l142.82,71.565
						C1053.712,1955.09,1089.928,2045.264,1108.585,2131.925z"/>
					<path style="fill:#363E44;" d="M909.56,1980.357c-0.286,0-0.57-0.122-0.768-0.358l-54.537-65.202
						c-0.354-0.424-0.299-1.055,0.125-1.408c0.426-0.355,1.056-0.297,1.408,0.125l54.537,65.202
						c0.354,0.424,0.299,1.055-0.125,1.408C910.013,1980.281,909.785,1980.357,909.56,1980.357z"/>
					<path style="fill:#363E44;" d="M864.569,2000.948c-0.286,0-0.57-0.122-0.767-0.358l-54.538-65.202
						c-0.354-0.424-0.299-1.055,0.125-1.408c0.426-0.355,1.056-0.297,1.408,0.125l54.538,65.202
						c0.354,0.424,0.299,1.055-0.125,1.408C865.023,2000.872,864.795,2000.948,864.569,2000.948z"/>
				</g>
				<path style="fill:#ff6900;" d="M1559.247,1431.284l-450.749,490.959L950.55,1797.781l251.098-409.338
					c0,0,81.545-118.248,190.244-63.336C1500.59,1380.02,1559.247,1431.284,1559.247,1431.284z"/>
				<g>
					<defs>
						
							<rect id="SVGID_1_" x="988.608" y="1090.281" transform="matrix(-1 -1.224647e-16 1.224647e-16 -1 3118.7791 2632.1311)" width="1141.563" height="451.568"/>
					</defs>
					<clipPath id="SVGID_00000049915713812508961890000010577430356973226936_">
						<use xlink:href="#SVGID_1_"  style="overflow:visible;"/>
					</clipPath>
					<path style="clip-path:url(#SVGID_00000049915713812508961890000010577430356973226936_);fill:#ff6900;" d="M1166.66,1117.218
						c317.894-54.591,627.286,50.89,930.302,276.433c0,0,21.354,142.001-145.665,181.04
						c-167.02,39.039-724.131-249.584-724.131-249.584l-1.307,50.407l-231.805-106.945
						C1018.271,1191.722,1083.317,1131.531,1166.66,1117.218z"/>
				</g>
				<path style="fill:#363E44;" d="M1494.49,1451.872c-0.14,0-0.282-0.029-0.418-0.092l-327.011-150.934
					c-0.502-0.231-0.721-0.826-0.489-1.327c0.232-0.501,0.824-0.72,1.327-0.489l327.011,150.934
					c0.502,0.231,0.721,0.826,0.489,1.327C1495.23,1451.657,1494.868,1451.872,1494.49,1451.872z"/>
				<path style="fill:#363E44;" d="M1008.903,1703.652c-0.178,0-0.358-0.047-0.521-0.146c-0.472-0.289-0.62-0.904-0.332-1.375
					l202.084-330.331c0.289-0.472,0.906-0.621,1.375-0.332c0.472,0.289,0.62,0.904,0.332,1.375l-202.084,330.331
					C1009.568,1703.482,1009.24,1703.652,1008.903,1703.652z"/>
			</g>
			<g>
				<path style="fill:#363E44;" d="M1682.176,508.11c0,0,40.623,5.795,70.259-22.69c29.637-28.484,105.893-45.741,168.045,1.795
					c123.64,94.561,118.453-71.068,228.16-12.641v40.839c-11.769-4.373-30.385-4.203-53.535,20.071
					c-34.192,35.853-55.986,29.966-62.111,27.148c-1.148-0.594-1.777-0.968-1.777-0.968s0.605,0.428,1.777,0.968
					c8.186,4.233,43.081,19.812,70.022-6.378c17.243-16.763,33.567-17.171,45.624-13.524v166.823c0,0-23.719,63.813-98.682,36.784
					c-74.964-27.028-94.213-115.168-171.529-81.322c-77.316,33.846-60.868,40.881-133.182,6.247
					C1672.933,636.629,1682.176,508.11,1682.176,508.11z"/>
				<g>
					<g>
						<path style="fill:#E2A18D;" d="M1675.363,728.086c29.557,6.091,74.082-65.314,74.082-65.314l2.918-92.15
							c-17.09-38.862-62.448-56.512-101.31-39.422c-38.863,17.09-56.512,62.448-39.422,101.31
							C1611.631,632.511,1645.259,721.883,1675.363,728.086z"/>
						<polygon style="fill:#E2A18D;" points="1830.246,747.726 1746.95,855.732 1740.214,774.385 1666.749,607.329 
							1752.015,569.832 						"/>
						<path style="fill:#E2A18D;" d="M1627.854,647.457c0,0-10.643,29.358-7.192,34.356c4.119,5.965,27.852,0.272,27.852,0.272
							S1627.351,647.738,1627.854,647.457z"/>
						<g>
							<path style="fill:#FFFFFF;" d="M1690.032,616.52c0,0-14.567-1.156-28.767,5.09c-3.021,1.329,13.311,23,15.577,20.369
								C1686.805,630.415,1690.032,616.52,1690.032,616.52z"/>
							<g>
								<defs>
									<path id="SVGID_00000016789080534650470360000003433462464373458362_" d="M1690.032,616.52c0,0-21.424-1.7-37.637,10.164
										c-16.213,11.864-21.075,32.798-21.075,32.798s21.424,1.699,37.637-10.164C1685.17,637.455,1690.032,616.52,1690.032,616.52
										z"/>
								</defs>
								<clipPath id="SVGID_00000141414612441139539600000015897533517656777117_">
									<use xlink:href="#SVGID_00000016789080534650470360000003433462464373458362_"  style="overflow:visible;"/>
								</clipPath>
								<path style="clip-path:url(#SVGID_00000141414612441139539600000015897533517656777117_);fill:#363E44;" d="
									M1660.39,621.253c-13.523-5.262-28.75,1.435-34.012,14.958c-5.262,13.522,1.435,28.75,14.957,34.012
									c13.523,5.262,28.75-1.435,34.012-14.957C1680.609,641.743,1673.913,626.515,1660.39,621.253z"/>
							</g>
						</g>
						<path style="fill:#363E44;" d="M1666.916,688.525c-0.615,0-1.235-0.048-1.854-0.146c-0.546-0.086-0.918-0.599-0.831-1.143
							c0.086-0.545,0.604-0.92,1.144-0.831c3.813,0.602,7.637-1.076,9.738-4.28c2.025-3.086,2.115-7.15,0.229-10.354
							c-0.28-0.477-0.122-1.089,0.354-1.369c0.474-0.28,1.088-0.123,1.369,0.353c2.271,3.856,2.161,8.748-0.279,12.467
							C1674.593,686.56,1670.854,688.525,1666.916,688.525z"/>
						<path style="fill:#363E44;" d="M1698.698,723.516c-0.322,0-0.639-0.155-0.832-0.443c-0.307-0.459-0.185-1.08,0.274-1.388
							c24.925-16.705,50.731-57.814,50.989-58.228c0.292-0.468,0.906-0.61,1.378-0.319c0.469,0.292,0.611,0.909,0.319,1.378
							c-0.26,0.417-26.29,41.886-51.573,58.831C1699.083,723.461,1698.89,723.516,1698.698,723.516z"/>
					</g>
					<g>
						<path style="fill:#363E44;" d="M1785.508,603.719c9.922-22.226-18.433-66.035-50.167-82.571
							c-40.914-21.319-72.196-26.778-107.606-6.335c-53.467,30.867-42.443,105.102-42.443,105.102s55.362-23.215,74.225-30.523
							c26.52-10.274,40.717,76.605,71.172,27.045c3.351-5.454,45.404,101.184,91.453,73.031
							C1885.205,650.913,1774.979,627.307,1785.508,603.719z"/>
					</g>
				</g>
				
					<ellipse transform="matrix(0.5847 -0.8112 0.8112 0.5847 216.0208 1654.8551)" style="fill:#E2A18D;" cx="1724.338" cy="616.436" rx="26.299" ry="26.299"/>
				<path style="fill:#363E44;" d="M2026.989,755.426c-6.243,0-12.351-1.117-18.003-3.37c-17.98-7.166-30.246-23.058-42.107-38.426
					c-1.252-1.622-2.499-3.238-3.748-4.838c-11.933-15.274-28.372-33.019-49.767-34.672c-11.314-0.877-22.436,2.994-33.189,6.737
					c-9.337,3.248-18.991,6.607-28.961,7.016c-13.573,0.572-27.362-5.327-37.785-16.146c-10.423-10.818-15.791-24.8-14.729-38.36
					c0.043-0.551,0.543-0.965,1.075-0.919c0.551,0.043,0.962,0.524,0.919,1.075c-1.018,12.991,4.149,26.41,14.176,36.816
					c10.025,10.406,23.246,16.052,36.263,15.536c9.674-0.396,19.187-3.706,28.386-6.907c10.948-3.809,22.266-7.744,34.001-6.842
					c22.173,1.713,39.003,19.837,51.188,35.436c1.251,1.602,2.501,3.221,3.756,4.847c11.696,15.155,23.791,30.826,41.264,37.79
					c12.515,4.986,27.389,4.164,40.807-2.249c13.42-6.416,23.397-17.477,27.374-30.346c0.161-0.528,0.723-0.824,1.25-0.66
					c0.528,0.163,0.823,0.723,0.66,1.25c-4.14,13.401-14.499,24.904-28.421,31.56
					C2043.514,753.521,2035.137,755.426,2026.989,755.426z"/>
				<path style="fill:#363E44;" d="M1984.925,504.707c-5.02,0-10.029-0.654-14.895-2.03c-10.395-2.938-19.752-8.658-28.801-14.188
					c-4.091-2.5-8.32-5.085-12.579-7.371c-42.721-22.922-99.412-18.305-137.858,11.235c-0.438,0.338-1.065,0.253-1.402-0.184
					c-0.337-0.438-0.254-1.065,0.184-1.402c19.264-14.801,42.907-23.722,68.374-25.797c25.466-2.078,50.241,2.898,71.648,14.386
					c4.309,2.311,8.563,4.912,12.677,7.427c8.934,5.46,18.172,11.105,28.303,13.971c26.004,7.358,56.411-6.609,67.78-31.126
					c0.231-0.5,0.824-0.72,1.328-0.486c0.501,0.232,0.719,0.827,0.486,1.328C2030.532,491.252,2007.669,504.707,1984.925,504.707z"
					/>
			</g>
			<g>
				<path style="fill:#363E44;" d="M1102.031,1109.411h270.124c18.326,0,33.181-14.856,33.181-33.181h-303.306V1109.411z"/>
				<path style="fill:#363E44;" d="M1100.022,1108.471l-81.815-257.437c-5.55-17.465,4.108-36.122,21.573-41.672l91.865,289.059
					L1100.022,1108.471z"/>
				<path style="fill:#F2E6DC;" d="M1130.708,1063.363c-0.424,0-0.817-0.271-0.953-0.697l-80.405-253.001
					c-0.167-0.526,0.124-1.089,0.65-1.256c0.53-0.17,1.089,0.124,1.256,0.65l80.405,253.001c0.167,0.526-0.124,1.089-0.65,1.256
					C1130.91,1063.349,1130.808,1063.363,1130.708,1063.363z"/>
			</g>
			<g>
				<path style="fill:#FFFFFF;" d="M2135.591,1416.812l-495.338-220.443l74.755-332.834l-15.91-73.644L1894.4,716.36l32.622,69.088
					C1927.022,785.448,2088.547,935.341,2135.591,1416.812z"/>
				<g>
					<g>
						<path style="fill:#E2A18D;" d="M1260.405,1010.348c17.879-6.755,87.692-46.705,119.128-26.317
							c31.661,20.533,44.092,60.211,43.23,97.807c-0.108,0.109-0.227,0.23-0.334,0.338c-4.606,9.347-12.937,22.628-27.786,31.491
							c-16.928,10.101-26.113,4.784-45.645,12.676c-32.967,13.322-38.951,42.495-50.349,37.139
							c-7.824-3.675-5.076-20.824,1.52-35.817c6.772-15.393,17.662-22.511,15.977-24.694c-1.85-2.395-11.973,6.26-25.555,15.874
							c-6.31,4.467-16.046,27.347-27.479,23.894c-9.115-2.753-4.976-29.061,10.24-46.677c10.765-12.462,26.609-14.893,25.566-17.708
							c-0.782-2.113-10.188-0.432-17.86,3.418c-12.661,6.352-22.874,29.655-33.335,26.273c-10.249-3.314-6.228-26.227,6.736-43.311
							c10.93-14.405,28.729-16.276,27.453-19.782c-0.896-2.466-9.039-3.277-25.833,0.141c-14.016,2.853-39.425,17.395-44.616,3.246
							C1207.099,1036.439,1233.419,1020.542,1260.405,1010.348z"/>
						<path style="fill:#E2A18D;" d="M1720.442,1033.93c39.652,14.409,66.027,52.93,63.314,94.846
							c-1.778,27.481-16.108,55.465-59.622,71.305c-105.947,38.567-335.683-118.019-335.683-118.019l-26.724-103.573
							C1482.557,976.05,1611.299,994.268,1720.442,1033.93z"/>
					</g>
					<path style="fill:#FFFFFF;" d="M1897.362,847.728l-107.52,49.402l48.478,165.623c0,0-164.013-58.56-289.632-84.462
						l-18.297,227.902l430.759,98.652c89.342,23.33,173.57-52.273,159.037-143.034c-13.775-86.028-53.354-211.842-149.903-302.288
						C1950.678,841.157,1921.81,836.495,1897.362,847.728z"/>
					<path style="fill:#363E44;" d="M1994.226,1310.124c-11.04,0-22.225-1.412-33.328-4.312l-99.978-22.896
						c-0.538-0.123-0.874-0.659-0.751-1.198c0.123-0.538,0.661-0.874,1.198-0.751l100.007,22.903
						c48.363,12.631,98.284-3.357,130.317-41.707c0.354-0.424,0.985-0.481,1.408-0.127c0.425,0.354,0.48,0.984,0.127,1.408
						C2068.051,1293.586,2031.992,1310.124,1994.226,1310.124z"/>
					<path style="fill:#363E44;" d="M1839.831,1064.354l-1.847-0.66c-0.685-0.244-69.379-24.713-150.744-48.714
						c-0.529-0.156-0.832-0.712-0.676-1.242c0.156-0.528,0.711-0.832,1.242-0.676c73.991,21.825,137.515,44.039,149.005,48.095
						l-22.297-76.177c-0.155-0.53,0.149-1.086,0.679-1.241c0.533-0.157,1.086,0.149,1.241,0.679L1839.831,1064.354z"/>
					<path style="fill:#363E44;" d="M1807.606,958.817c-0.42,0-0.812-0.267-0.95-0.688c-9.465-28.728-1.235-55.487,23.797-77.386
						c18.807-16.453,40.716-24.49,40.936-24.569c0.521-0.188,1.092,0.081,1.28,0.601c0.188,0.518-0.081,1.092-0.601,1.28
						c-0.216,0.078-21.815,8.009-40.339,24.228c-24.696,21.626-32.493,46.934-23.173,75.221c0.173,0.524-0.112,1.09-0.638,1.263
						C1807.815,958.802,1807.71,958.817,1807.606,958.817z"/>
				</g>
			</g>
		</g>
	</g>
	<g>
		<polygon style="fill:#EFBC73;" points="932.458,1305.676 898.658,1371.727 337.918,1305.676 635.188,1070.864 		"/>
		<rect x="337.918" y="1306.951" style="fill:#EFBC73;" width="594.54" height="439.448"/>
		<polygon style="fill:#9E6C5A;" points="932.458,1306.951 337.918,1306.951 635.188,1628.921 		"/>
		<g>
			<g>
				<polygon style="fill:#FFFFFF;" points="411.063,1386.173 635.188,1635.961 859.314,1386.173 859.314,1175.943 779.428,1122.752 
					725.714,1042.863 411.063,1042.863 				"/>
			</g>
			<g>
				<path style="fill:#D87355;" d="M777.552,1233.476H619.071c-0.553,0-1-0.447-1-1s0.447-1,1-1h158.481c0.553,0,1,0.447,1,1
					S778.104,1233.476,777.552,1233.476z"/>
				<path style="fill:#D87355;" d="M584.506,1233.476h-90.821c-0.553,0-1-0.447-1-1s0.447-1,1-1h90.821c0.553,0,1,0.447,1,1
					S585.059,1233.476,584.506,1233.476z"/>
				<path style="fill:#D87355;" d="M777.552,1296.815h-79.655c-0.553,0-1-0.447-1-1s0.447-1,1-1h79.655c0.553,0,1,0.447,1,1
					S778.104,1296.815,777.552,1296.815z"/>
				<path style="fill:#D87355;" d="M663.332,1296.815H493.685c-0.553,0-1-0.447-1-1s0.447-1,1-1h169.647c0.553,0,1,0.447,1,1
					S663.885,1296.815,663.332,1296.815z"/>
				<path style="fill:#D87355;" d="M725.705,1360.156h-232.02c-0.553,0-1-0.447-1-1s0.447-1,1-1h232.02c0.553,0,1,0.447,1,1
					S726.258,1360.156,725.705,1360.156z"/>
			</g>
			<g>
				<path style="fill:#D87355;" d="M859.313,1387.173c-0.553,0-1-0.447-1-1v-209.694l-79.44-52.895
					c-0.108-0.072-0.202-0.165-0.275-0.274l-53.416-79.447H412.063v342.311c0,0.553-0.447,1-1,1s-1-0.447-1-1v-343.311
					c0-0.553,0.447-1,1-1h314.651c0.333,0,0.644,0.166,0.83,0.442l53.604,79.725l79.721,53.082c0.278,0.186,0.445,0.497,0.445,0.832
					v210.229C860.313,1386.726,859.866,1387.173,859.313,1387.173z"/>
			</g>
			<polygon style="fill:#E6D0BE;" points="725.713,1175.943 861.005,1175.473 726.897,1042.027 			"/>
		</g>
		<polygon style="fill:#EFBC73;" points="932.458,1746.399 337.918,1746.399 635.188,1424.428 		"/>
		<path style="fill:#FFFFFF;" d="M372.992,1709.41c-0.243,0-0.486-0.088-0.679-0.266c-0.405-0.374-0.431-1.007-0.056-1.413
			l262.196-283.981c0.379-0.41,1.092-0.41,1.469,0l183.554,198.806c0.375,0.406,0.35,1.039-0.056,1.413
			c-0.406,0.375-1.038,0.349-1.413-0.056l-182.819-198.01l-261.462,283.186C373.53,1709.302,373.262,1709.41,372.992,1709.41z"/>
		<g>
			<path style="fill:#40484C;" d="M536.201,1124.679h-18.725v51.95h-7.642v-51.95H491.15v-6.28h45.051V1124.679z"/>
			<path style="fill:#40484C;" d="M573.851,1161.391h-24.406l-5.481,15.239h-7.923l22.245-58.231h6.722l22.285,58.231h-7.882
				L573.851,1161.391z M551.766,1155.113h19.805l-9.922-27.234L551.766,1155.113z"/>
			<path style="fill:#40484C;" d="M614.141,1140.716l13.964-22.316h9.043l-18.405,28.875l18.845,29.355h-9.123l-14.324-22.716
				l-14.403,22.716h-9.083l18.885-29.355l-18.445-28.875h9.003L614.141,1140.716z"/>
		</g>
	</g>
	<g>
		<g>
			<ellipse style="fill:#E0AA63;" cx="1455.629" cy="2102.314" rx="131.599" ry="41.67"/>
			<rect x="1324.03" y="2060.802" style="fill:#E0AA63;" width="263.198" height="42.933"/>
			<ellipse style="fill:#EFBC73;" cx="1455.629" cy="2061.617" rx="131.599" ry="41.67"/>
			<path style="fill:#FFFFFF;" d="M1471.133,2104.288c-35.251,0-68.406-4.351-93.356-12.252
				c-25.307-8.013-39.243-18.815-39.243-30.419c0-11.603,13.937-22.405,39.243-30.418c24.95-7.901,58.105-12.252,93.356-12.252
				s68.405,4.351,93.356,12.252c25.306,8.013,39.242,18.815,39.242,30.418c0,11.604-13.937,22.406-39.242,30.419
				C1539.538,2099.938,1506.384,2104.288,1471.133,2104.288z M1471.133,2020.947c-35.052,0-67.992,4.317-92.753,12.158
				c-24.052,7.616-37.847,18.008-37.847,28.512s13.795,20.896,37.847,28.513c24.761,7.84,57.701,12.158,92.753,12.158
				s67.992-4.318,92.752-12.158c24.052-7.616,37.847-18.009,37.847-28.513s-13.795-20.896-37.847-28.512
				C1539.124,2025.265,1506.185,2020.947,1471.133,2020.947z"/>
		</g>
		<g>
			<ellipse style="fill:#E0AA63;" cx="1465.094" cy="2034.486" rx="131.599" ry="41.67"/>
			<rect x="1333.495" y="1992.974" style="fill:#E0AA63;" width="263.198" height="42.933"/>
			<ellipse style="fill:#EFBC73;" cx="1465.094" cy="1993.789" rx="131.599" ry="41.67"/>
			<path style="fill:#FFFFFF;" d="M1480.598,2036.459c-35.251,0-68.405-4.351-93.356-12.252
				c-25.306-8.013-39.242-18.815-39.242-30.418s13.937-22.405,39.242-30.418c24.951-7.901,58.105-12.252,93.356-12.252
				s68.406,4.351,93.356,12.252c25.307,8.013,39.243,18.815,39.243,30.418s-13.937,22.405-39.243,30.418
				C1549.004,2032.108,1515.849,2036.459,1480.598,2036.459z M1480.598,1953.119c-35.052,0-67.991,4.317-92.752,12.158
				c-24.052,7.616-37.847,18.008-37.847,28.512s13.795,20.896,37.847,28.512c24.761,7.841,57.7,12.158,92.752,12.158
				s67.992-4.317,92.753-12.158c24.052-7.616,37.847-18.008,37.847-28.512s-13.795-20.896-37.847-28.512
				C1548.59,1957.437,1515.649,1953.119,1480.598,1953.119z"/>
		</g>
		<g>
			<ellipse style="fill:#E0AA63;" cx="1224.126" cy="2122.391" rx="131.599" ry="41.67"/>
			<rect x="1092.527" y="2080.878" style="fill:#E0AA63;" width="263.198" height="42.933"/>
			<ellipse style="fill:#EFBC73;" cx="1224.126" cy="2081.694" rx="131.599" ry="41.67"/>
			<path style="fill:#FFFFFF;" d="M1239.63,2124.364c-35.251,0-68.406-4.351-93.357-12.252
				c-25.306-8.013-39.242-18.815-39.242-30.418c0-11.604,13.937-22.406,39.242-30.419c24.951-7.901,58.106-12.252,93.357-12.252
				s68.405,4.351,93.356,12.252c25.306,8.013,39.242,18.815,39.242,30.419c0,11.603-13.937,22.405-39.242,30.418
				C1308.035,2120.014,1274.881,2124.364,1239.63,2124.364z M1239.63,2041.023c-35.052,0-67.992,4.318-92.753,12.158
				c-24.052,7.616-37.847,18.009-37.847,28.513s13.795,20.896,37.847,28.512c24.761,7.841,57.701,12.158,92.753,12.158
				s67.991-4.317,92.752-12.158c24.053-7.616,37.847-18.008,37.847-28.512s-13.795-20.896-37.847-28.513
				C1307.622,2045.342,1274.682,2041.023,1239.63,2041.023z"/>
		</g>
		<g>
			<ellipse style="fill:#E0AA63;" cx="1251.257" cy="2054.336" rx="131.599" ry="41.556"/>
			<rect x="1119.658" y="2012.938" style="fill:#E0AA63;" width="263.198" height="42.815"/>
			<ellipse style="fill:#EFBC73;" cx="1251.257" cy="2013.751" rx="131.599" ry="41.556"/>
			<path style="fill:#FFFFFF;" d="M1266.761,2056.307c-35.25,0-68.404-4.339-93.355-12.218
				c-25.307-7.991-39.243-18.766-39.243-30.338s13.937-22.347,39.243-30.338c24.95-7.879,58.104-12.218,93.355-12.218
				s68.406,4.339,93.356,12.218c25.307,7.991,39.243,18.765,39.243,30.338c0,11.572-13.937,22.347-39.243,30.338
				C1335.166,2051.968,1302.012,2056.307,1266.761,2056.307z M1266.761,1973.195c-35.052,0-67.992,4.306-92.753,12.125
				c-24.052,7.595-37.846,17.957-37.846,28.431c0,10.473,13.794,20.836,37.846,28.431c24.761,7.819,57.701,12.125,92.753,12.125
				s67.993-4.306,92.754-12.125c24.052-7.595,37.846-17.958,37.846-28.431c0-10.474-13.794-20.836-37.846-28.431
				C1334.754,1977.501,1301.813,1973.195,1266.761,1973.195z"/>
		</g>
		<g>
			<ellipse style="fill:#E0AA63;" cx="1490.96" cy="1966.658" rx="131.599" ry="41.67"/>
			<rect x="1359.361" y="1925.145" style="fill:#E0AA63;" width="263.198" height="42.933"/>
			<ellipse style="fill:#EFBC73;" cx="1490.96" cy="1925.961" rx="131.599" ry="41.67"/>
			<path style="fill:#FFFFFF;" d="M1506.464,1968.631c-35.251,0-68.405-4.351-93.356-12.252
				c-25.306-8.013-39.242-18.815-39.242-30.418s13.937-22.405,39.242-30.419c24.951-7.9,58.105-12.252,93.356-12.252
				s68.406,4.352,93.357,12.252c25.306,8.014,39.242,18.816,39.242,30.419s-13.937,22.405-39.242,30.418
				C1574.87,1964.28,1541.715,1968.631,1506.464,1968.631z M1506.464,1885.29c-35.052,0-67.991,4.318-92.752,12.158
				c-24.052,7.616-37.847,18.009-37.847,28.513s13.794,20.896,37.847,28.512c24.761,7.841,57.7,12.158,92.752,12.158
				s67.992-4.317,92.753-12.158c24.052-7.616,37.847-18.008,37.847-28.512s-13.795-20.896-37.847-28.513
				C1574.456,1889.608,1541.516,1885.29,1506.464,1885.29z"/>
		</g>
		<g>
			<ellipse style="fill:#E0AA63;" cx="1462.932" cy="1906.337" rx="131.599" ry="41.67"/>
			<rect x="1331.333" y="1864.825" style="fill:#E0AA63;" width="263.198" height="42.933"/>
			<ellipse style="fill:#EFBC73;" cx="1462.932" cy="1865.64" rx="131.599" ry="41.67"/>
			<path style="fill:#FFFFFF;" d="M1478.436,1908.311c-35.251,0-68.405-4.351-93.356-12.252
				c-25.306-8.013-39.242-18.815-39.242-30.418c0-11.604,13.937-22.406,39.242-30.419c24.951-7.901,58.105-12.252,93.356-12.252
				s68.406,4.351,93.356,12.252c25.307,8.013,39.243,18.815,39.243,30.419c0,11.603-13.937,22.405-39.243,30.418
				C1546.842,1903.96,1513.687,1908.311,1478.436,1908.311z M1478.436,1824.97c-35.052,0-67.992,4.318-92.752,12.158
				c-24.052,7.616-37.847,18.009-37.847,28.513s13.795,20.896,37.847,28.512c24.761,7.841,57.7,12.158,92.752,12.158
				s67.992-4.317,92.753-12.158c24.052-7.616,37.847-18.008,37.847-28.512s-13.795-20.896-37.847-28.513
				C1546.428,1829.288,1513.487,1824.97,1478.436,1824.97z"/>
		</g>
		<g>
			
				<ellipse transform="matrix(0.7104 -0.7038 0.7038 0.7104 -1021.9833 1383.5719)" style="fill:#E0AA63;" cx="1170.327" cy="1933.702" rx="41.67" ry="131.599"/>
			
				<rect x="1052.97" y="1898.128" transform="matrix(0.7038 0.7104 -0.7104 0.7038 1714.6543 -272.9053)" style="fill:#E0AA63;" width="263.198" height="42.933"/>
			
				<ellipse transform="matrix(0.7104 -0.7038 0.7038 0.7104 -993.4547 1395.6266)" style="fill:#EFBC73;" cx="1199.24" cy="1905.061" rx="41.67" ry="131.599"/>
			<path style="fill:#FFFFFF;" d="M1289.651,2015.082c-9.108,0-21.15-3.789-35.41-11.276c-23.172-12.165-49.597-32.657-74.404-57.7
				c-24.809-25.044-45.051-51.66-56.997-74.946c-12.117-23.617-14.25-41.121-6.008-49.286c8.244-8.167,25.728-5.866,49.229,6.471
				c23.173,12.166,49.597,32.658,74.404,57.701c24.809,25.044,45.051,51.66,56.997,74.946c12.117,23.617,14.25,41.121,6.008,49.286
				C1300.228,2013.489,1295.555,2015.082,1289.651,2015.082z M1130.626,1819.11c-5.353,0-9.559,1.383-12.386,4.183
				c-7.463,7.393-5.138,24.506,6.379,46.953c11.855,23.108,31.97,49.55,56.638,74.451c24.669,24.902,50.918,45.265,73.914,57.338
				c22.339,11.727,39.429,14.213,46.891,6.822c7.463-7.393,5.138-24.506-6.379-46.953c-11.855-23.108-31.97-49.55-56.638-74.451
				c-24.668-24.902-50.918-45.266-73.914-57.338C1151.256,1822.83,1139.402,1819.11,1130.626,1819.11z"/>
		</g>
		<g>
			<ellipse style="fill:#E0AA63;" cx="1491.266" cy="1836.991" rx="131.599" ry="41.67"/>
			<rect x="1359.667" y="1795.478" style="fill:#E0AA63;" width="263.198" height="42.933"/>
			<ellipse style="fill:#EFBC73;" cx="1491.266" cy="1796.294" rx="131.599" ry="41.67"/>
			<path style="fill:#FFFFFF;" d="M1506.77,1838.964c-35.251,0-68.406-4.351-93.356-12.252
				c-25.307-8.013-39.243-18.815-39.243-30.418s13.937-22.405,39.243-30.418c24.95-7.901,58.105-12.252,93.356-12.252
				s68.405,4.351,93.356,12.252c25.306,8.013,39.242,18.815,39.242,30.418s-13.937,22.405-39.242,30.418
				C1575.175,1834.613,1542.021,1838.964,1506.77,1838.964z M1506.77,1755.624c-35.052,0-67.992,4.317-92.753,12.158
				c-24.052,7.616-37.847,18.008-37.847,28.512s13.795,20.896,37.847,28.512c24.761,7.841,57.701,12.158,92.753,12.158
				s67.991-4.317,92.752-12.158c24.052-7.616,37.847-18.008,37.847-28.512s-13.795-20.896-37.847-28.512
				C1574.761,1759.941,1541.821,1755.624,1506.77,1755.624z"/>
		</g>
		<g>
			<ellipse style="fill:#E0AA63;" cx="1533.901" cy="1776.67" rx="131.599" ry="41.67"/>
			<rect x="1402.302" y="1735.158" style="fill:#E0AA63;" width="263.198" height="42.933"/>
			<ellipse style="fill:#EFBC73;" cx="1533.901" cy="1735.973" rx="131.599" ry="41.67"/>
			<path style="fill:#FFFFFF;" d="M1549.404,1778.644c-35.251,0-68.406-4.351-93.356-12.252
				c-25.307-8.013-39.243-18.815-39.243-30.418s13.937-22.405,39.243-30.419c24.95-7.9,58.105-12.252,93.356-12.252
				s68.405,4.352,93.356,12.252c25.306,8.014,39.242,18.816,39.242,30.419s-13.937,22.405-39.242,30.418
				C1617.81,1774.293,1584.655,1778.644,1549.404,1778.644z M1549.404,1695.303c-35.052,0-67.992,4.318-92.753,12.158
				c-24.052,7.616-37.847,18.009-37.847,28.513s13.795,20.896,37.847,28.512c24.761,7.841,57.701,12.158,92.753,12.158
				s67.991-4.317,92.752-12.158c24.052-7.616,37.847-18.008,37.847-28.512s-13.795-20.896-37.847-28.513
				C1617.396,1699.621,1584.456,1695.303,1549.404,1695.303z"/>
		</g>
	</g>
</g>
</svg>
