<?xml version="1.0" encoding="utf-8"?>
<!-- Generator: Adobe Illustrator 27.5.0, SVG Export Plug-In . SVG Version: 6.00 Build 0)  -->
<svg version="1.1" xmlns="http://www.w3.org/2000/svg" xmlns:xlink="http://www.w3.org/1999/xlink" x="0px" y="0px"
	 viewBox="0 0 2500 2500" style="enable-background:new 0 0 2500 2500;" xml:space="preserve">
-
<g id="Illustration">
	<g id="Debating_club_1_">
		<ellipse style="fill:transparent;" cx="1250" cy="1250" rx="915.334" ry="915"/>
		<g>
			<path style="fill:#ff6900;" d="M599.344,1660.555c-22.823,40.054-45.88,87.893-65.205,143.4
				c-45.17,129.742-50.821,246.425-47.274,327.539h291.651v-465.83L599.344,1660.555z"/>
			<g>
				<g>
					<path style="fill:#84524D;" d="M999.924,1381.96c189.978,40.954,276.043,78.309,271.535,136.545
						c-4.649,60.057-131.54,78.112-299.744,39.505C947.686,1552.495,970.157,1375.543,999.924,1381.96z"/>
					<g>
						<path style="fill:#84524D;" d="M1116.199,1458.589c-0.001-0.004,36.465-213.908,43.593-247.854
							c0.746-3.555,2.035-9.835,5.861-17.239c14.174-27.434,40.457-26.329,68.529-48.377c31.852-25.017,35.618-57.13,45.747-55.028
							c7.045,1.462,9.036,13.976,3.468,38.9c0,0.002,0.003,0.004,0.004,0.001c6.408-18.45,16.191-43.094,26.381-39.524
							c11.545,4.75,3.453,35.053-2.339,53.145c7.01-21.899,17.292-31.447,22.478-28.041c8.162,5.36,6.681,23.608-3.708,52.19
							c0,0.001,0.001,0.002,0.002,0.001c12.688-17.733,18.411-20.144,22.26-16.017c7.028,7.536-1.955,30.874-13.061,50.289
							c-12.502,21.857-29.783,34.472-40.869,42.167c-0.003,0.002-0.005,0.005-0.005,0.009
							c-10.16,110.916-16.379,186.04-23.08,275.764C1268.011,1565.141,1127.984,1550.115,1116.199,1458.589z"/>
						<path style="fill:#84524D;" d="M1213.151,1171.345c5.222-39.724-1.316-55.159-7.64-55.785
							c-10.635-1.054-28.981,31.036-43.928,88.133C1176.758,1195.968,1197.976,1179.069,1213.151,1171.345z"/>
						<path style="fill:#363E44;" d="M1230.331,1236.84c-0.043,0-0.086-0.003-0.13-0.009c-0.548-0.071-0.934-0.572-0.862-1.12
							c0.936-7.192,3.817-17.812,12.235-27.559c11.91-13.791,27.587-17.031,33.773-17.784c0.55-0.071,1.047,0.323,1.113,0.871
							c0.067,0.549-0.323,1.047-0.871,1.113c-5.957,0.726-21.048,3.844-32.502,17.106c-8.094,9.372-10.866,19.589-11.767,26.51
							C1231.256,1236.473,1230.826,1236.84,1230.331,1236.84z"/>
						<path style="fill:#363E44;" d="M1179.369,1179.358c-0.292,0-0.581-0.127-0.778-0.371c-0.348-0.43-0.281-1.059,0.148-1.406
							c6.901-5.584,14.982-9.398,23.538-13.437c3.997-1.887,8.131-3.837,12.368-6.066c0.489-0.257,1.093-0.069,1.351,0.419
							c0.258,0.489,0.069,1.094-0.419,1.351c-4.276,2.25-8.43,4.21-12.446,6.105c-8.443,3.985-16.419,7.75-23.134,13.183
							C1179.813,1179.285,1179.59,1179.358,1179.369,1179.358z"/>
						<path style="fill:#363E44;" d="M1261.096,1158.842c-0.282,0-0.563-0.119-0.761-0.352c-0.358-0.42-0.309-1.051,0.112-1.409
							c3.665-3.125,7.054-6.602,10.072-10.336c4.38-5.417,8.026-11.419,10.838-17.838c0.22-0.506,0.807-0.739,1.317-0.515
							c0.506,0.222,0.736,0.812,0.515,1.317c-2.883,6.582-6.622,12.736-11.115,18.293c-3.096,3.829-6.571,7.396-10.33,10.6
							C1261.557,1158.764,1261.325,1158.842,1261.096,1158.842z"/>
						<path style="fill:#363E44;" d="M1285.944,1169.594c-0.282,0-0.563-0.119-0.761-0.352c-0.358-0.42-0.309-1.051,0.112-1.409
							c3.664-3.124,7.054-6.602,10.073-10.336c4.381-5.419,8.027-11.421,10.838-17.838c0.221-0.506,0.807-0.738,1.317-0.515
							c0.506,0.222,0.736,0.812,0.515,1.317c-2.882,6.58-6.622,12.735-11.115,18.293c-3.097,3.83-6.572,7.396-10.331,10.6
							C1286.405,1169.516,1286.174,1169.594,1285.944,1169.594z"/>
						<path style="fill:#363E44;" d="M1304.609,1196.727c-0.282,0-0.563-0.119-0.761-0.352c-0.358-0.42-0.309-1.051,0.112-1.409
							c3.664-3.125,7.053-6.602,10.072-10.335c4.382-5.42,8.028-11.422,10.838-17.839c0.221-0.506,0.808-0.74,1.317-0.515
							c0.506,0.222,0.736,0.812,0.515,1.317c-2.882,6.58-6.621,12.735-11.115,18.294c-3.096,3.828-6.571,7.395-10.33,10.599
							C1305.07,1196.648,1304.839,1196.727,1304.609,1196.727z"/>
					</g>
				</g>
				<g>
					<path style="fill:#EFBC73;" d="M535.193,1362.688c0,0,52.844-10.857,116.958-19.177c37.545-4.872,115.881,24.03,115.881,24.03
						s85.428-28.809,127.063-22.571c64.028,9.593,117.187,22.101,117.187,22.101l-45.644,337.119H586.814L535.193,1362.688z"/>
					<ellipse style="fill:#EFBC73;" cx="942.147" cy="1549.697" rx="69.221" ry="69.196"/>
					<path style="fill:#363E44;" d="M726.953,1603.22c-28.648,0-54.17-17.126-65.018-43.63c-0.209-0.512,0.036-1.095,0.547-1.305
						c0.509-0.208,1.094,0.035,1.305,0.547c10.538,25.75,35.333,42.388,63.166,42.388c21.076,0,40.641-9.514,53.677-26.101
						c0.341-0.433,0.968-0.511,1.404-0.168c0.434,0.341,0.51,0.97,0.168,1.404C768.784,1593.428,748.648,1603.22,726.953,1603.22z"
						/>
				</g>
				<g>
					<g>
						<path style="fill:#363E44;" d="M963.351,1351.426l16.16,27.98c5.391,9.333,17.326,12.532,26.661,7.144l0.007-0.004
							c9.339-5.39,12.539-17.332,7.146-26.67l-16.159-27.979c-5.391-9.333-17.326-12.532-26.661-7.144l-0.008,0.005
							C961.157,1330.148,957.958,1342.089,963.351,1351.426z"/>
						<path style="fill:#363E44;" d="M988.712,1719.751c-0.106,0-0.214-0.017-0.319-0.053c-0.523-0.176-0.805-0.743-0.628-1.267
							l78.034-231.584l-68.169-111.95c-0.287-0.472-0.138-1.087,0.334-1.375c0.477-0.286,1.089-0.136,1.375,0.334l68.411,112.349
							c0.153,0.253,0.188,0.56,0.093,0.84l-78.184,232.025C989.519,1719.487,989.13,1719.751,988.712,1719.751z"/>
					</g>
					<g>
						<polygon style="fill:#E6D0BE;" points="846.011,2148.167 677.966,2148.167 677.966,1762.975 846.011,1646.266 						"/>
						<rect x="844.754" y="1646.266" style="fill:#F7F1EB;" width="335.809" height="501.901"/>
					</g>
				</g>
				<g>
					<path style="fill:#84524D;" d="M799.593,1740.262c-15.324-4.364-29.379,2.084-30.043-0.747
						c-0.498-2.124,7.971-5.76,16.206-6.72c13.587-1.585,34.255,11.843,40.873,3.549c6.483-8.125-8.991-24.526-28.553-31.461
						c-16.493-5.848-32.414,2.822-33.26-0.692c-0.595-2.472,6.115-6.339,21.464-12.493c12.81-5.137,41.038-8.711,37.663-22.914
						c-2.839-11.946-32.522-10.828-59.695-4.741c-18.005,4.033-35.752,10.221-46.135,13.372c1.797-5.475,4.921-13.78,10.217-23.149
						c9.45-16.711,15.021-21.474,10.592-28.943c-4.562-7.697-18.312-0.903-31.398,10.591c-15.61,13.709-21.303,29.709-26.269,38.035
						c-35.042-13.844-110.213-41.544-145.254-55.388c2.683-1.916,19.969-24.172,31.922-39.348l-28.142-186.172
						c-31.372,29.246-212.778,213.552-201.79,260.907c12.015,51.776,264.3,139.206,334.145,154.262
						c8.699,5.115,22.5,11.436,39.19,10.718c19.024-0.819,23.582-10,43.525-13.989c33.659-6.733,54.056,13.69,60.376,3.304
						c4.338-7.129-7.033-19.542-20.35-28.169c-13.672-8.857-26.243-8.831-26.052-11.492c0.21-2.919,12.985-1.294,29.054-0.73
						c7.466,0.262,27.525,13.601,34.887,4.735C838.633,1765.516,821.253,1746.431,799.593,1740.262z"/>
					<path style="fill:#363E44;" d="M686.121,1693.507c-0.319,0-0.634-0.152-0.827-0.437c-0.311-0.456-0.193-1.078,0.263-1.39
						c10.359-7.064,24.795-12.545,32.478-15.183c0.525-0.182,1.092,0.1,1.271,0.62c0.18,0.522-0.099,1.092-0.62,1.271
						c-7.588,2.605-21.835,8.012-32.001,14.944C686.511,1693.45,686.315,1693.507,686.121,1693.507z"/>
				</g>
			</g>
			<g>
				<path style="fill:#363E44;" d="M701.713,1198.375c-12.094,0-23.481,3.02-33.461,8.331c-1.099-0.304-2.253-0.48-3.45-0.48
					c-6.964,0-12.625,5.509-12.899,12.404c-0.981-0.239-2.001-0.379-3.056-0.379c-7.138,0-12.925,5.785-12.925,12.92
					c0,2.481,0.713,4.791,1.925,6.759c-0.051,0.103-0.107,0.204-0.158,0.308c-6.236,0.919-11.028,6.276-11.028,12.766
					c0,3.826,1.673,7.253,4.317,9.619c-0.007,0.055-0.014,0.109-0.021,0.164c-3.695,2.274-6.167,6.342-6.167,10.999
					c0,4.957,2.797,9.257,6.896,11.424c1.159,6.027,3.065,11.787,5.64,17.172c-0.89,1.754-1.403,3.731-1.403,5.833
					c0,7.135,5.787,12.92,12.925,12.92c0.191,0,0.376-0.02,0.565-0.028c-0.366,1.196-0.565,2.465-0.565,3.781
					c0,7.135,5.787,12.92,12.925,12.92c2.262,0,4.386-0.584,6.236-1.605c1.025,6.111,6.328,10.773,12.732,10.773
					c4.071,0,7.697-1.885,10.066-4.825c3.556,0.546,7.198,0.83,10.907,0.83c39.394,0,71.329-31.923,71.329-71.302
					C773.042,1230.298,741.107,1198.375,701.713,1198.375z"/>
				<path style="fill:#363E44;" d="M862.589,1176.394c-6.816,1-16.414-1.953-17.187-7.219c-0.773-5.267,7.57-10.852,14.386-11.853
					s9.523,2.964,10.296,8.231C870.858,1170.819,869.405,1175.394,862.589,1176.394z"/>
				<polygon style="fill:#84524D;" points="822.138,1337.851 888.477,1344.972 930.354,1486.942 650.594,1487.87 645.534,1343.512 
					707.258,1337.851 707.258,1218.17 822.138,1218.17 				"/>
				<path style="fill:#363E44;" d="M687.804,1146.662c7.191,2.317,15.332,9.474,13.698,14.54
					c-1.633,5.066-12.422,6.124-19.614,3.807c-7.191-2.317-8.062-7.131-6.428-12.198
					C677.094,1147.745,680.613,1144.345,687.804,1146.662z"/>
				<path style="fill:#363E44;" d="M659.664,1194.516c-7.015,0-12.942,4.64-14.886,11.016c-2.56-2.513-6.064-4.067-9.935-4.067
					c-7.41,0-13.485,5.682-14.122,12.924c-1.429-0.484-2.953-0.757-4.544-0.757c-7.834,0-14.185,6.348-14.185,14.179
					c0,1.97,0.403,3.845,1.13,5.549c-6.291,0.871-11.14,6.254-11.14,12.783c0,4.057,1.874,7.674,4.8,10.042
					c-2.687,1.486-4.87,3.906-5.984,7.024c-2.427,6.795,1.115,14.27,7.912,16.696c1.462,0.522,2.954,0.752,4.421,0.749
					c-1.669,2.194-2.672,4.923-2.672,7.892c0,7.215,5.851,13.064,13.069,13.064c1.382,0,2.712-0.218,3.962-0.615
					c0.296,6.874,5.948,12.36,12.897,12.36c7.138,0,12.925-5.785,12.925-12.921c0-7.136-5.787-12.92-12.925-12.92
					c-1.328,0-2.608,0.202-3.814,0.573c-0.244-7-5.981-12.604-13.042-12.605c0.782-1.034,1.423-2.201,1.881-3.487
					c1.929-5.398,0.08-11.217-4.166-14.601c3.929-2.217,6.586-6.422,6.586-11.253c0-1.472-0.257-2.88-0.711-4.198
					c6.974-0.46,12.569-5.948,13.178-12.879c1.429,0.483,2.953,0.757,4.545,0.757c6.118,0,11.317-3.881,13.307-9.308
					c2.847,3.135,6.943,5.117,11.514,5.117c8.595,0,15.564-6.966,15.564-15.559C675.227,1201.482,668.259,1194.516,659.664,1194.516
					z"/>
				<path style="fill:#84524D;" d="M859.961,1169.255c-4.41,47.028-47.696,120.846-96.571,115.138
					c-53.267-6.221-78.204-84.074-73.794-131.102s38.529-93.479,95.584-86.961C840.156,1072.612,864.371,1122.227,859.961,1169.255z
					"/>
				<path style="fill:#363E44;" d="M768.779,1285.707c-1.841,0-3.675-0.106-5.506-0.32c-28.376-3.314-46.128-25.917-56.024-44.294
					c-0.262-0.485-0.079-1.092,0.407-1.354c0.484-0.261,1.093-0.079,1.354,0.407c9.67,17.958,26.975,40.04,54.495,43.255
					c11.314,1.322,22.888-1.638,34.396-8.796c0.468-0.289,1.086-0.148,1.378,0.321c0.291,0.469,0.148,1.086-0.321,1.378
					C788.906,1282.555,778.778,1285.707,768.779,1285.707z"/>
				<g>
					
						<ellipse transform="matrix(0.4894 -0.8721 0.8721 0.4894 -606.003 1362.476)" style="fill:#84524D;" cx="860.462" cy="1198.724" rx="36.242" ry="24.166"/>
					<path style="fill:#363E44;" d="M861.738,1216.242c-0.364,0-0.715-0.199-0.892-0.546c-0.251-0.491-0.056-1.094,0.437-1.345
						c3.769-1.923,7.195-5.389,9.648-9.761c2.451-4.372,3.622-9.103,3.297-13.319c-0.313-4.068-1.989-7.151-4.718-8.681
						c-0.547-0.307-1.134-0.548-1.743-0.718c-0.531-0.147-0.843-0.699-0.694-1.231c0.148-0.532,0.696-0.846,1.231-0.694
						c0.763,0.212,1.497,0.515,2.184,0.899c3.331,1.866,5.367,5.514,5.734,10.271c0.355,4.606-0.904,9.739-3.547,14.452
						c-2.643,4.712-6.366,8.464-10.483,10.563C862.046,1216.207,861.891,1216.242,861.738,1216.242z"/>
				</g>
				<g>
					
						<ellipse transform="matrix(0.9479 -0.3187 0.3187 0.9479 -341.0971 279.3558)" style="fill:#84524D;" cx="683.198" cy="1182.114" rx="24.167" ry="36.241"/>
					<path style="fill:#363E44;" d="M679.638,1199.18c-0.214,0-0.429-0.068-0.611-0.209c-3.654-2.829-6.615-7.207-8.336-12.328
						c-1.721-5.122-2.004-10.399-0.799-14.859c1.245-4.605,3.925-7.812,7.544-9.026c0.744-0.25,1.523-0.411,2.315-0.478
						c0.543-0.059,1.034,0.361,1.08,0.912c0.047,0.55-0.361,1.034-0.912,1.08c-0.631,0.054-1.252,0.182-1.846,0.382
						c-2.965,0.995-5.185,3.713-6.25,7.651c-1.104,4.084-0.832,8.949,0.765,13.701c1.596,4.751,4.317,8.793,7.664,11.383
						c0.437,0.338,0.517,0.967,0.179,1.403C680.232,1199.046,679.937,1199.18,679.638,1199.18z"/>
				</g>
				<path style="fill:#363E44;" d="M847.906,1218.397c-0.126,0-0.254-0.023-0.377-0.074c-0.512-0.208-0.758-0.792-0.549-1.303
					c5.064-12.429,8.815-25.857,10.849-38.834c0.086-0.545,0.593-0.911,1.144-0.833c0.545,0.086,0.918,0.598,0.833,1.144
					c-2.057,13.126-5.852,26.708-10.974,39.277C848.674,1218.163,848.301,1218.397,847.906,1218.397z"/>
				<path style="fill:#363E44;" d="M693.485,1208.423c-0.455,0-0.866-0.313-0.974-0.774c-3.648-15.746-5.186-33.081-4.327-48.813
					c0.029-0.551,0.499-0.988,1.053-0.943c0.551,0.029,0.974,0.501,0.943,1.053c-0.847,15.549,0.673,32.686,4.28,48.253
					c0.124,0.538-0.211,1.075-0.749,1.2C693.636,1208.415,693.56,1208.423,693.485,1208.423z"/>
				<g>
					<path style="fill:#FFFFFF;" d="M817.566,1191.945c-18.25,3.133-35.313-5.789-35.313-5.789s12.413-16.983,31.568-21.444
						c0.491-0.114,0.996-0.242,1.494-0.278C834.755,1163.026,818.392,1191.803,817.566,1191.945z"/>
					<path style="fill:#363E44;" d="M851.619,1169.999c0,0-17.852-9.327-36.567-5.547c-0.548,1.056-1.053,2.144-1.461,3.297
						c-3.004,8.513-1.243,17.537,3.867,24.204c0.863-0.146,1.727-0.309,2.593-0.511
						C839.206,1186.981,851.619,1169.999,851.619,1169.999z"/>
				</g>
				<path style="fill:#363E44;" d="M771.095,1220.146c-0.39,0-0.761-0.229-0.922-0.611c-0.214-0.51,0.024-1.096,0.533-1.311
					c3.859-1.625,6.103-3.592,6.669-5.844c0.458-1.825-0.28-3.387-1.303-5.547c-0.818-1.729-1.745-3.688-2.329-6.314
					c-0.854-3.841-0.686-7.907,0.499-12.087c0.15-0.533,0.703-0.845,1.234-0.689c0.531,0.15,0.84,0.703,0.689,1.234
					c-1.093,3.857-1.251,7.595-0.47,11.108c0.534,2.408,1.41,4.259,2.184,5.892c1.109,2.345,2.067,4.37,1.435,6.89
					c-0.727,2.896-3.361,5.318-7.832,7.201C771.356,1220.121,771.225,1220.146,771.095,1220.146z"/>
				<path style="fill:#363E44;" d="M768.712,1252.004c-0.042,0-0.084-0.003-0.127-0.008c-3.114-0.396-5.944-2.108-7.766-4.698
					c-1.784-2.536-2.434-5.667-1.785-8.591c0.652-2.936,2.577-5.503,5.282-7.045c2.761-1.574,6.063-1.916,9.057-0.936
					c0.525,0.172,0.812,0.736,0.64,1.261s-0.738,0.813-1.261,0.64c-2.463-0.805-5.175-0.523-7.445,0.772
					c-2.216,1.263-3.79,3.355-4.319,5.741c-0.528,2.376,0.007,4.93,1.468,7.007c1.498,2.131,3.824,3.539,6.382,3.864
					c0.548,0.069,0.936,0.57,0.866,1.118C769.639,1251.635,769.208,1252.004,768.712,1252.004z"/>
				<g>
					<path style="fill:#FFFFFF;" d="M721.134,1153.691c-13.606-1.884-25.407,1.701-25.407,1.701s9.039,18.993,27.031,26.935
						c0.585,0.258,1.171,0.501,1.76,0.73L721.134,1153.691z"/>
					<path style="fill:#363E44;" d="M760.882,1184.153c0,0-9.04-18.993-27.032-26.935c-4.222-1.865-8.561-2.948-12.733-3.524
						c-2.608,4.775-3.753,10.398-2.863,16.191c0.778,5.076,3.006,9.563,6.18,13.138
						C741.976,1189.896,760.882,1184.153,760.882,1184.153z"/>
				</g>
				<path style="fill:#363E44;" d="M803.361,1071.66c-1.476,9.643-7.686,21.682-12.949,20.878
					c-5.264-0.805-7.588-14.15-6.112-23.793s6.193-11.933,11.457-11.128C801.02,1058.421,804.837,1062.017,803.361,1071.66z"/>
				<path style="fill:#363E44;" d="M777.832,1067.221c1.415,9.652-0.994,22.982-6.263,23.754
					c-5.269,0.772-11.402-11.307-12.817-20.959c-1.415-9.652,2.425-13.224,7.693-13.995
					C771.714,1055.249,776.417,1057.569,777.832,1067.221z"/>
				<path style="fill:#363E44;" d="M753.508,1072.203c3.855,8.962,4.962,22.462,0.07,24.565
					c-4.892,2.102-13.931-7.989-17.786-16.951c-3.855-8.962-1.065-13.402,3.827-15.504
					C744.511,1062.21,749.654,1063.241,753.508,1072.203z"/>
				<path style="fill:#363E44;" d="M729.673,1084.004c6.312,7.44,11.327,20.024,7.266,23.467
					c-4.061,3.443-15.661-3.559-21.973-10.999c-6.312-7.44-4.946-12.502-0.885-15.945
					C718.142,1077.084,723.361,1076.563,729.673,1084.004z"/>
				<path style="fill:#363E44;" d="M860.921,1151.385c-6.816,1-16.414-1.953-17.187-7.219c-0.773-5.267,7.57-10.852,14.386-11.853
					c6.816-1,9.523,2.964,10.296,8.23C869.19,1145.81,867.737,1150.385,860.921,1151.385z"/>
				<path style="fill:#363E44;" d="M855.615,1126.626c-7.977,3.784-20.326,4.865-22.609,0.056
					c-2.283-4.809,6.365-13.688,14.342-17.471c7.977-3.784,12.262-1.04,14.545,3.769
					C864.176,1117.789,863.592,1122.843,855.615,1126.626z"/>
				<path style="fill:#363E44;" d="M845.664,1103.918c-7.441,6.312-20.028,11.329-23.473,7.27
					c-3.445-4.059,3.556-15.656,10.997-21.968c7.441-6.312,12.505-4.948,15.95-0.889
					C852.583,1092.39,853.105,1097.606,845.664,1103.918z"/>
				<path style="fill:#363E44;" d="M827.389,1084.599c-5.265,8.214-15.829,16.697-20.313,13.825
					c-4.483-2.872-1.188-16.011,4.077-24.224c5.265-8.214,10.507-8.392,14.99-5.521
					C830.626,1071.55,832.654,1076.385,827.389,1084.599z"/>
				<path style="fill:#363E44;" d="M709.492,1100.412c6.198,4.322,11.885,13.549,8.838,17.915
					c-3.047,4.366-13.673,2.217-19.871-2.105c-6.198-4.322-5.619-9.18-2.573-13.546
					C698.933,1098.31,703.294,1096.09,709.492,1100.412z"/>
				<path style="fill:#363E44;" d="M696.143,1121.653c7.191,2.317,15.332,9.474,13.698,14.54
					c-1.634,5.066-12.422,6.124-19.614,3.807c-7.191-2.317-8.062-7.131-6.428-12.198
					C685.433,1122.736,688.952,1119.336,696.143,1121.653z"/>
				<path style="fill:#363E44;" d="M803.155,1303.081c-0.114,0-0.229-0.02-0.343-0.061c-0.519-0.189-0.786-0.764-0.597-1.282
					c1.488-4.078,0.397-9.106-0.656-13.97c-0.995-4.586-2.022-9.328-0.846-13.298c1.327-4.474,4.978-8.122,8.51-11.65
					c3.463-3.46,6.733-6.728,7.558-10.429c0.964-4.326-0.838-9.216-2.58-13.945c-1.67-4.534-3.248-8.817-2.677-12.826
					c0.665-4.667,3.709-8.847,6.652-12.889c2.873-3.943,5.586-7.668,5.786-11.396c0.248-4.603-2.448-9.199-5.055-13.644
					c-2.379-4.056-4.625-7.886-4.803-11.765c-0.224-4.892,1.954-9.664,4.06-14.28c1.988-4.356,3.866-8.472,3.303-11.964
					c-0.842-5.209-4.809-9.306-8.646-13.268c-2.972-3.068-5.778-5.967-6.752-9.137c-4.754-15.484-5.016-30.078-5.018-30.224
					c-0.008-0.553,0.434-1.007,0.985-1.015c0.005,0,0.01,0,0.015,0c0.546,0,0.992,0.438,1,0.985
					c0.002,0.144,0.263,14.466,4.93,29.665c0.833,2.712,3.477,5.442,6.276,8.333c3.863,3.989,8.241,8.51,9.184,14.341
					c0.66,4.09-1.34,8.473-3.457,13.112c-2.009,4.4-4.085,8.95-3.883,13.358c0.154,3.386,2.28,7.009,4.529,10.845
					c2.757,4.699,5.607,9.56,5.328,14.763c-0.232,4.319-3.115,8.276-6.167,12.466c-2.8,3.844-5.695,7.818-6.289,11.992
					c-0.5,3.51,0.993,7.563,2.573,11.854c1.842,5.001,3.747,10.171,2.654,15.072c-0.95,4.27-4.583,7.898-8.095,11.408
					c-3.355,3.352-6.824,6.817-8.006,10.804c-1.032,3.479-0.102,7.767,0.882,12.306c1.115,5.142,2.268,10.457,0.581,15.079
					C803.946,1302.829,803.563,1303.081,803.155,1303.081z"/>
			</g>
		</g>
		<g>
			<path style="fill:#FFFFFF;" d="M533.955,1097.243c-0.197,0-0.396-0.059-0.567-0.177c-0.369-0.254-0.524-0.723-0.379-1.147
				l53.663-156.643c-43.422-12.041-73.655-51.737-73.655-96.911c0-55.46,45.137-100.579,100.616-100.579h399.278
				c55.48,0,100.616,45.119,100.616,100.579c0,55.46-45.137,100.58-100.616,100.58h-293.26l-185.057,154.066
				C534.41,1097.165,534.183,1097.243,533.955,1097.243z M613.633,743.786c-54.377,0-98.616,44.223-98.616,98.579
				c0,44.627,30.102,83.8,73.204,95.259c0.269,0.071,0.494,0.251,0.625,0.496c0.131,0.244,0.154,0.532,0.065,0.795l-52.853,154.276
				L718.65,941.177c0.18-0.15,0.406-0.232,0.64-0.232h293.621c54.377,0,98.616-44.223,98.616-98.58
				c0-54.356-44.239-98.579-98.616-98.579H613.633z"/>
			<path style="opacity:0.5;fill:#FFFFFF;" d="M568.462,958.086l-54.009,157.652L699.789,961.44h293.62
				c55.017,0,99.616-44.583,99.616-99.579v-0.001c0-54.996-44.599-99.579-99.616-99.579H594.131
				c-55.017,0-99.616,44.583-99.616,99.58l0,0C494.515,907.983,525.889,946.766,568.462,958.086z"/>
		</g>
		<g>
			<path style="fill:#FFFFFF;" d="M1488.756,705.82c-0.228,0-0.455-0.078-0.64-0.231l-146.235-121.745h-231.752
				c-43.974,0-79.749-35.762-79.749-79.72s35.775-79.72,79.749-79.72h315.64c43.974,0,79.749,35.762,79.749,79.72
				c0,35.73-23.864,67.138-58.166,76.752l42.351,123.62c0.146,0.424-0.01,0.893-0.379,1.148
				C1489.151,705.762,1488.954,705.82,1488.756,705.82z M1110.129,426.404c-42.871,0-77.749,34.865-77.749,77.72
				s34.878,77.72,77.749,77.72h232.114c0.233,0,0.46,0.082,0.64,0.231l143.771,119.693l-41.539-121.252
				c-0.09-0.263-0.066-0.551,0.064-0.795c0.131-0.245,0.356-0.425,0.625-0.496c33.981-9.034,57.714-39.918,57.714-75.102
				c0-42.854-34.878-77.72-77.749-77.72H1110.129z"/>
			<path style="opacity:0.5;fill:#FFFFFF;" d="M1461.477,595.604l42.695,124.628L1357.66,598.255h-232.114
				c-43.492,0-78.749-35.244-78.749-78.72v0c0-43.476,35.257-78.719,78.749-78.719h315.639c43.492,0,78.749,35.244,78.749,78.72l0,0
				C1519.934,555.996,1495.132,586.655,1461.477,595.604z"/>
		</g>
		<g>
			<path style="fill:#363E44;" d="M1863.808,1685.777l14.063,180.346h278.603c-11.025-109.576-24.908-359.39-60.71-525.487
				c-110.907-20.325-262.402-40.651-373.31-60.978c-45.543,70.443-158.137,419.391-202.52,586.465h297.768L1863.808,1685.777z"/>
			<g>
				<g>
					<g>
						<polygon style="fill:#E2A18D;" points="1447.757,1072.467 1691.498,1058.708 1682.256,895.889 1447.757,933.418 						"/>
						<g>
							<path style="fill:#E2A18D;" d="M1525.618,998.895c0,0-165.784-189.084-187.221-212.343
								c-2.245-2.436-6.188-6.753-12.642-10.766c-23.915-14.87-43.983-1.738-76.266-5.903c-36.631-4.727-54.58-28.119-61.531-21.745
								c-4.835,4.433-0.549,15.163,15.453,32.085l-0.003,0.003c-13.636-11.459-32.808-26.193-39.122-18.642
								c-6.823,9.109,13.669,29.064,26.655,40.53c-15.719-13.879-28.232-16.558-30.702-11.47
								c-3.889,8.008,5.794,21.607,27.28,39.144l-0.001,0.002c-18.22-7.966-23.828-7.184-24.915-2.155
								c-1.984,9.182,15.952,23.268,33.718,33.289c20,11.283,39.427,13.097,51.703,13.95l0.008,0.005
								c59.764,82.126,62.674,78.435,108.943,146.192C1400.939,1085.45,1504.926,1099.049,1525.618,998.895z"/>
							<path style="fill:#E2A18D;" d="M1278.208,780.607c-22.644-28.674-24.732-43.814-20.072-47.256
								c7.837-5.789,37.194,10.781,75.569,48.521C1318.211,782.906,1293.701,779.574,1278.208,780.607z"/>
							<g>
								<path style="fill:#363E44;" d="M1294.879,840.137c-0.296,0-0.589-0.131-0.786-0.381
									c-3.932-4.991-10.863-11.687-21.557-15.241c-15.142-5.033-28.388-0.438-33.382,1.769c-0.505,0.225-1.097-0.005-1.318-0.51
									c-0.224-0.505,0.005-1.096,0.51-1.318c5.205-2.303,19.021-7.089,34.821-1.839c11.164,3.712,18.396,10.696,22.496,15.901
									c0.342,0.435,0.268,1.063-0.166,1.404C1295.313,840.066,1295.095,840.137,1294.879,840.137z"/>
								<path style="fill:#363E44;" d="M1270.888,772.825c-0.527,0-0.97-0.413-0.998-0.947c-0.029-0.551,0.395-1.022,0.946-1.052
									c4.359-0.231,8.507-0.633,12.519-1.02c8.593-0.831,16.709-1.614,24.73-0.463c0.547,0.079,0.926,0.586,0.848,1.133
									c-0.078,0.546-0.563,0.929-1.133,0.848c-7.783-1.119-15.783-0.346-24.253,0.473c-4.032,0.391-8.202,0.794-12.605,1.028
									C1270.924,772.825,1270.905,772.825,1270.888,772.825z"/>
								<path style="fill:#363E44;" d="M1234.353,793.409c-0.056,0-0.112-0.005-0.169-0.014c-4.446-0.757-8.839-1.929-13.057-3.484
									c-6.118-2.256-11.929-5.335-17.271-9.15c-0.449-0.32-0.554-0.945-0.232-1.394s0.946-0.554,1.395-0.232
									c5.197,3.712,10.85,6.706,16.8,8.9c4.103,1.514,8.376,2.654,12.701,3.389c0.544,0.093,0.91,0.609,0.818,1.154
									C1235.255,793.065,1234.831,793.409,1234.353,793.409z"/>
								<path style="fill:#363E44;" d="M1219.913,813.429c-0.056,0-0.112-0.005-0.169-0.015c-4.449-0.757-8.842-1.93-13.057-3.484
									c-6.117-2.256-11.928-5.334-17.271-9.15c-0.449-0.32-0.554-0.945-0.232-1.394c0.321-0.449,0.945-0.554,1.395-0.233
									c5.198,3.712,10.851,6.707,16.8,8.9c4.101,1.513,8.373,2.653,12.701,3.391c0.544,0.092,0.91,0.608,0.817,1.153
									C1220.814,813.084,1220.392,813.429,1219.913,813.429z"/>
								<path style="fill:#363E44;" d="M1217.969,843.39c-0.056,0-0.112-0.005-0.169-0.014c-4.446-0.757-8.839-1.929-13.057-3.484
									c-6.126-2.26-11.937-5.338-17.271-9.15c-0.449-0.321-0.554-0.945-0.232-1.395c0.322-0.448,0.947-0.553,1.395-0.232
									c5.189,3.708,10.842,6.703,16.8,8.9c4.103,1.514,8.376,2.654,12.701,3.389c0.544,0.093,0.91,0.609,0.818,1.154
									C1218.871,843.045,1218.447,843.39,1217.969,843.39z"/>
							</g>
						</g>
					</g>
				</g>
				<g>
					<path style="fill:#ff6900;" d="M2065.492,1118.528c0,0,54.437-254.308-149.096-244.197
						c-98.156,4.877-243.241,9.642-404.537,46.414l44.364,158.699l29.16,0.001l69.208,371.106h473.96L2065.492,1118.528z"/>
					<path style="fill:#363E44;" d="M1858.243,1043.246c-0.095,0-0.191-0.014-0.287-0.042c-0.529-0.158-0.829-0.716-0.671-1.245
						l30.894-103.146c0.158-0.529,0.715-0.828,1.245-0.671c0.529,0.158,0.829,0.716,0.671,1.245l-30.894,103.146
						C1859.071,1042.967,1858.674,1043.246,1858.243,1043.246z"/>
				</g>
				<g>
					<g>
						<path style="fill:#363E44;" d="M1661.922,986.399l-17.003,29.439c-5.672,9.82-18.229,13.185-28.052,7.516l-0.007-0.004
							c-9.826-5.671-13.193-18.236-7.519-28.06l17.002-29.438c5.672-9.82,18.229-13.185,28.052-7.516l0.009,0.005
							C1664.229,964.012,1667.595,976.575,1661.922,986.399z"/>
						<path style="fill:#363E44;" d="M1635.238,1373.879c-0.418,0-0.807-0.263-0.947-0.681l-82.262-244.124
							c-0.095-0.28-0.061-0.587,0.093-0.84l71.979-118.208c0.287-0.471,0.899-0.622,1.375-0.334
							c0.472,0.288,0.621,0.903,0.334,1.375l-71.736,117.81l82.112,243.683c0.177,0.523-0.104,1.091-0.628,1.267
							C1635.452,1373.862,1635.344,1373.879,1635.238,1373.879z"/>
					</g>
					<g>
						<polygon style="fill:#F7F1EB;" points="1785.379,1952.887 1962.186,1952.887 1962.186,1449.219 1785.379,1296.613 						"/>
						
							<rect x="1433.38" y="1296.613" transform="matrix(-1 -1.224647e-16 1.224647e-16 -1 3220.0803 3249.5)" style="fill:#FFFFFF;" width="353.321" height="656.274"/>
					</g>
				</g>
				<g>
					<path style="fill:#E2A18D;" d="M2034.181,1133.322c-36.637,75.982-110.25,278.515-204.635,238.731
						c-78.072-32.907,2.832-225.578,34.32-303.387C1920.637,1090.218,1977.409,1111.77,2034.181,1133.322z"/>
					<g>
						<path style="fill:#E2A18D;" d="M1874.574,1218.813c-0.004-0.002-0.006-0.007-0.01-0.005
							c-149.292,34.641-255.876,56.356-288.517,64.353c-3.418,0.837-9.458,2.288-16.503,6.23
							c-26.107,14.604-24.186,40.001-44.626,67.879c-23.193,31.632-54.168,36.317-51.805,46.049
							c1.644,6.77,13.826,8.291,37.781,2.096c0.002-0.001,0.004,0.003,0.002,0.004c-17.659,6.798-41.206,17.063-37.419,26.808
							c4.974,11.017,34.055,2.205,51.387-3.985c-20.979,7.493-29.891,17.752-26.426,22.659c5.455,7.724,23.077,5.701,50.419-5.278
							c0,0,0.002,0.001,0.001,0.001c-16.76,12.852-18.91,18.468-14.789,22.058c7.525,6.556,29.834-2.892,48.274-14.268
							c20.76-12.805,32.417-29.936,39.509-40.913c0.002-0.002,0.005-0.005,0.009-0.005c107.077-13.425,133.25-15.322,219.49-28.051
							C1939.334,1369.982,1951.245,1253.248,1874.574,1218.813z"/>
						<path style="fill:#E2A18D;" d="M1549.632,1336.07c-38.298,6.34-53.456,0.513-54.267-5.586
							c-1.365-10.257,29.115-29.048,83.921-45.362C1572.297,1300.056,1556.62,1321.135,1549.632,1336.07z"/>
						<g>
							<path style="fill:#363E44;" d="M1511.166,1405.318c-0.373,0-0.731-0.21-0.903-0.568c-0.238-0.498-0.027-1.096,0.471-1.334
								c6.123-2.929,11.814-6.65,16.916-11.063c3.517-3.041,6.773-6.432,9.678-10.076c0.344-0.432,0.975-0.504,1.405-0.159
								c0.432,0.345,0.503,0.974,0.159,1.405c-2.981,3.741-6.324,7.222-9.934,10.344c-5.236,4.528-11.077,8.348-17.361,11.354
								C1511.457,1405.287,1511.311,1405.318,1511.166,1405.318z"/>
							<path style="fill:#363E44;" d="M1522.383,1429.016c-0.373,0-0.731-0.209-0.903-0.568c-0.238-0.498-0.027-1.096,0.471-1.334
								c6.125-2.93,11.816-6.651,16.916-11.063c3.514-3.038,6.77-6.428,9.678-10.076c0.345-0.432,0.974-0.504,1.405-0.159
								c0.433,0.345,0.503,0.974,0.159,1.405c-2.985,3.745-6.327,7.225-9.934,10.344c-5.234,4.526-11.076,8.347-17.361,11.354
								C1522.674,1428.984,1522.527,1429.016,1522.383,1429.016z"/>
							<path style="fill:#363E44;" d="M1549.262,1446.196c-0.373,0-0.731-0.21-0.903-0.568c-0.238-0.499-0.027-1.096,0.471-1.334
								c6.122-2.927,11.813-6.647,16.916-11.062c3.517-3.041,6.773-6.432,9.678-10.076c0.344-0.432,0.973-0.504,1.405-0.159
								c0.432,0.345,0.503,0.974,0.159,1.405c-2.981,3.741-6.324,7.222-9.934,10.344c-5.238,4.529-11.079,8.349-17.361,11.353
								C1549.553,1446.165,1549.406,1446.196,1549.262,1446.196z"/>
						</g>
					</g>
				</g>
			</g>
			<g>
				<g>
					<g>
						<path style="fill:#E2A18D;" d="M1724.651,892.074c0,0,14.997,21.965,44.06,20.798c36.947-1.484,58.309-20.798,58.309-20.798
							l-93.622-149.663c-8.342-15.095-34.214,7.178-49.314,15.517c-15.101,8.341-20.579,27.339-12.236,42.432L1724.651,892.074z"/>
					</g>
					<g>
						<g>
							<path style="fill:#E2A18D;" d="M1678.914,903.124c24.635,5.999,64.164-52.6,64.164-52.6l5.215-77.259
								c-13.184-33.132-50.74-49.307-83.884-36.128c-33.144,13.179-49.324,50.722-36.14,83.853
								C1628.268,820.991,1653.823,897.014,1678.914,903.124z"/>
							<path style="fill:#E2A18D;" d="M1641.441,834.023c0,0-9.817,24.322-7.07,28.62c3.28,5.13,23.379,1.064,23.379,1.064
								S1641.011,834.244,1641.441,834.023z"/>
							<g>
								<path style="fill:#FFFFFF;" d="M1694.578,809.921c0,0-12.197-1.407-24.308,3.41c-2.577,1.025,10.487,19.704,12.468,17.564
									C1691.451,821.487,1694.578,809.921,1694.578,809.921z"/>
								<g>
									<defs>
										<path id="SVGID_1_" d="M1694.578,809.921c0,0-17.938-2.069-31.908,7.402c-13.969,9.472-18.68,26.897-18.68,26.897
											s17.938,2.069,31.908-7.403C1689.867,827.346,1694.578,809.921,1694.578,809.921z"/>
									</defs>
									<clipPath id="SVGID_00000130631362798609822040000014217818381865211273_">
										<use xlink:href="#SVGID_1_"  style="overflow:visible;"/>
									</clipPath>
									<path style="clip-path:url(#SVGID_00000130631362798609822040000014217818381865211273_);fill:#363E44;" d="
										M1669.547,813.004c-11.196-4.822-24.184,0.342-29.008,11.535c-4.824,11.192,0.342,24.175,11.539,28.997
										c11.196,4.822,24.183-0.342,29.007-11.534C1685.91,830.809,1680.744,817.826,1669.547,813.004z"/>
								</g>
							</g>
							<path style="fill:#363E44;" d="M1673.362,869.832c-0.644,0-1.291-0.061-1.938-0.188c-0.542-0.105-0.896-0.631-0.79-1.173
								c0.105-0.543,0.63-0.9,1.173-0.79c3.122,0.604,6.318-0.662,8.145-3.236c1.759-2.479,1.951-5.822,0.492-8.515
								c-0.264-0.485-0.083-1.093,0.402-1.356s1.093-0.083,1.355,0.402c1.82,3.358,1.577,7.528-0.619,10.624
								C1679.683,868.283,1676.594,869.832,1673.362,869.832z"/>
							<path style="fill:#363E44;" d="M1698.675,900.148c-0.335,0-0.662-0.168-0.852-0.474c-0.29-0.47-0.146-1.086,0.324-1.377
								c21.406-13.259,44.283-46.96,44.512-47.299c0.309-0.457,0.929-0.577,1.389-0.27c0.457,0.309,0.578,0.931,0.27,1.389
								c-0.231,0.342-23.35,34.398-45.117,47.881C1699.036,900.101,1698.854,900.148,1698.675,900.148z"/>
						</g>
						<path style="fill:#363E44;" d="M1634.936,782.829c-8.597,6.994-20.489,8.362-30.412,3.423
							c-17.718-8.817-43.425-24.733-46.933-44.164c-0.667-3.7-0.416-6.414,0.881-9.621c7.231-17.859,40.812-4.989,79.183-20.482
							c36.974-14.929,47.238-43.616,70.921-38.271c10.413,2.351,17.138,9.968,18.838,11.754
							c22.459,23.587,11.24,52.297,11.24,52.297s8.955-18.143,31.19-3.182c22.233,14.962-39.209,72.044-39.209,72.044l-14.234-0.994
							l-10.153-26.743c-7.723-20.338-33.095-27.151-49.973-13.421L1634.936,782.829z"/>
						<path style="fill:#E2A18D;" d="M1760.029,768.875c8.658,8.738,8.591,22.837-0.15,31.492
							c-8.741,8.655-22.846,8.588-31.503-0.15c-8.658-8.738-8.591-22.837,0.15-31.492
							C1737.266,760.07,1751.37,760.137,1760.029,768.875z"/>
					</g>
				</g>
				<g>
					<path style="fill:#D87355;" d="M1625.497,715.508c0,0,74.842,58.347,140.506,60.703c20.12-19.085,16.273-29.365,16.273-29.365
						s-102.53-31.191-131.393-56.475C1635.675,695.925,1625.497,715.508,1625.497,715.508z"/>
					<path style="fill:#D87355;" d="M1653.45,694.695c20.799-22.633,49.823-32.776,74.172-24.864
						c23.421,7.611,35.593,29.678,37.265,32.81c0,0,3.806,7.13,12.627,45.648l0,0
						C1777.515,748.289,1676.141,724.703,1653.45,694.695z"/>
					<path style="fill:#84524D;" d="M1747.033,741.077c-0.069,0-0.14-0.007-0.21-0.022c-45.597-9.723-88.129-43.236-88.553-43.574
						c-0.433-0.343-0.504-0.973-0.16-1.404c0.344-0.433,0.972-0.504,1.404-0.161c0.421,0.335,42.598,33.562,87.727,43.185
						c0.54,0.114,0.884,0.646,0.769,1.186C1747.91,740.756,1747.495,741.077,1747.033,741.077z"/>
				</g>
			</g>
		</g>
		<g>
			<g>
				<polygon style="fill:#D87355;" points="674.418,809.575 626.425,809.575 615.716,640.495 685.128,640.495 				"/>
				<rect x="626.425" y="832.881" style="fill:#D87355;" width="47.993" height="40.909"/>
				<rect x="719.447" y="832.881" style="fill:#D87355;" width="47.993" height="40.909"/>
				<rect x="812.469" y="832.881" style="fill:#D87355;" width="47.993" height="40.909"/>
			</g>
		</g>
		<path style="fill:#FFFFFF;" d="M1356.363,496.242c0-11.379,1.411-20.447,4.232-27.204c2.821-6.758,8.4-14.182,16.736-22.264
			c8.336-8.085,13.614-13.84,15.839-17.262c3.418-5.202,5.13-10.835,5.13-16.894c0-8.022-1.988-14.145-5.964-18.37
			c-3.976-4.222-9.811-6.336-17.506-6.336c-7.354,0-13.274,2.065-17.762,6.196c-4.489,4.131-6.733,9.732-6.733,16.797h-31.164
			c0.171-15.142,5.322-27.119,15.454-35.931c10.132-8.809,23.534-13.216,40.206-13.216c17.185,0,30.587,4.362,40.206,13.088
			c9.619,8.726,14.428,20.917,14.428,36.574c0,13.943-6.498,27.674-19.494,41.19l-15.774,15.527
			c-5.643,6.419-8.55,15.786-8.721,28.105H1356.363z"/>
		<path style="fill:#BC8271;" d="M1396.951,497.242h-29.112c-0.553,0-1-0.447-1-1c0-11.458,1.45-20.74,4.31-27.59
			c2.863-6.857,8.57-14.46,16.963-22.597c8.24-7.993,13.521-13.742,15.696-17.089c3.298-5.018,4.969-10.517,4.969-16.35
			c0-7.722-1.915-13.671-5.692-17.684c-3.762-3.996-9.407-6.022-16.777-6.022c-7.06,0-12.808,1.996-17.084,5.933
			c-4.254,3.915-6.411,9.318-6.411,16.061c0,0.553-0.447,1-1,1h-31.164c-0.268,0-0.523-0.107-0.711-0.297
			c-0.188-0.19-0.292-0.447-0.289-0.715c0.174-15.369,5.488-27.708,15.798-36.674c10.273-8.932,24.021-13.461,40.861-13.461
			c17.363,0,31.116,4.49,40.878,13.348c9.791,8.881,14.756,21.436,14.756,37.314c0,14.147-6.652,28.239-19.772,41.883
			l-15.794,15.547c-5.404,6.15-8.255,15.389-8.423,27.405C1397.943,496.803,1397.498,497.242,1396.951,497.242z M1368.843,495.242
			h27.128c0.316-12.03,3.326-21.367,8.951-27.765l15.824-15.58c12.729-13.238,19.194-26.863,19.194-40.477
			c0-15.291-4.744-27.347-14.1-35.834c-9.382-8.512-22.684-12.828-39.534-12.828c-16.345,0-29.65,4.364-39.549,12.971
			c-9.634,8.378-14.708,19.873-15.091,34.176h29.159c0.208-6.864,2.574-12.422,7.042-16.533c4.657-4.287,10.86-6.461,18.438-6.461
			c7.943,0,14.079,2.238,18.234,6.651c4.138,4.396,6.235,10.807,6.235,19.055c0,6.23-1.781,12.099-5.294,17.443
			c-2.286,3.517-7.514,9.22-15.979,17.431c-8.197,7.947-13.752,15.326-16.51,21.932
			C1370.319,475.829,1368.924,484.512,1368.843,495.242z"/>
		<g>
			<path style="fill:#FFFFFF;" d="M1354.182,536.05c0-5.026,1.582-9.091,4.745-12.199c3.162-3.105,7.438-4.661,12.825-4.661
				c5.471,0,9.79,1.595,12.953,4.789c3.162,3.194,4.745,7.219,4.745,12.071c0,4.681-1.539,8.598-4.617,11.746
				c-3.078,3.151-7.438,4.726-13.081,4.726c-5.643,0-9.983-1.576-13.017-4.726C1355.7,544.648,1354.182,540.731,1354.182,536.05z"/>
			<path style="fill:#BC8271;" d="M1383.229,553.523c-5.9,0-10.522-1.693-13.738-5.033c-3.206-3.325-4.832-7.51-4.832-12.44
				c0-5.279,1.697-9.623,5.044-12.912c3.343-3.283,7.894-4.947,13.526-4.947c5.724,0,10.321,1.711,13.664,5.085
				c3.341,3.375,5.034,7.673,5.034,12.774c0,4.932-1.649,9.119-4.902,12.445C1393.768,551.831,1389.125,553.523,1383.229,553.523z
				 M1383.229,520.19c-5.09,0-9.17,1.472-12.124,4.374c-2.992,2.939-4.446,6.696-4.446,11.485c0,4.394,1.438,8.112,4.272,11.052
				c2.824,2.934,6.962,4.421,12.298,4.421c5.337,0,9.497-1.489,12.365-4.426c2.875-2.939,4.333-6.656,4.333-11.047
				c0-4.556-1.499-8.38-4.456-11.367C1392.52,521.702,1388.4,520.19,1383.229,520.19z"/>
		</g>
		<g>
			<path style="fill:#FFFFFF;" d="M1272.426,536.05c0-5.026,1.582-9.091,4.745-12.199c3.162-3.105,7.438-4.661,12.825-4.661
				c5.47,0,9.79,1.595,12.953,4.789c3.162,3.194,4.745,7.219,4.745,12.071c0,4.681-1.539,8.598-4.617,11.746
				c-3.078,3.151-7.438,4.726-13.081,4.726c-5.643,0-9.983-1.576-13.017-4.726C1273.943,544.648,1272.426,540.731,1272.426,536.05z"
				/>
			<path style="fill:#BC8271;" d="M1301.473,553.523c-5.9,0-10.522-1.693-13.738-5.033c-3.206-3.325-4.832-7.51-4.832-12.44
				c0-5.279,1.697-9.623,5.044-12.912c3.343-3.283,7.894-4.947,13.526-4.947c5.724,0,10.321,1.711,13.664,5.085
				c3.34,3.374,5.034,7.672,5.034,12.774c0,4.932-1.649,9.119-4.902,12.445C1312.011,551.831,1307.368,553.523,1301.473,553.523z
				 M1301.473,520.19c-5.09,0-9.17,1.472-12.124,4.374c-2.992,2.939-4.446,6.696-4.446,11.485c0,4.394,1.438,8.112,4.272,11.052
				c2.824,2.934,6.962,4.421,12.298,4.421c5.337,0,9.497-1.489,12.365-4.426c2.875-2.939,4.333-6.656,4.333-11.047
				c0-4.557-1.499-8.381-4.456-11.366C1310.763,521.702,1306.644,520.19,1301.473,520.19z"/>
		</g>
		<g>
			<path style="fill:#FFFFFF;" d="M1191.985,536.05c0-5.026,1.582-9.091,4.745-12.199c3.162-3.105,7.438-4.661,12.825-4.661
				c5.47,0,9.79,1.595,12.953,4.789c3.162,3.194,4.745,7.219,4.745,12.071c0,4.681-1.539,8.598-4.617,11.746
				c-3.078,3.151-7.438,4.726-13.081,4.726c-5.643,0-9.983-1.576-13.017-4.726C1193.503,544.648,1191.985,540.731,1191.985,536.05z"
				/>
			<path style="fill:#BC8271;" d="M1221.032,553.523c-5.9,0-10.522-1.693-13.738-5.033c-3.206-3.325-4.832-7.51-4.832-12.44
				c0-5.279,1.697-9.623,5.044-12.912c3.343-3.283,7.894-4.947,13.526-4.947c5.724,0,10.321,1.711,13.664,5.085
				c3.34,3.374,5.034,7.672,5.034,12.774c0,4.932-1.649,9.119-4.902,12.445C1231.57,551.831,1226.928,553.523,1221.032,553.523z
				 M1221.032,520.19c-5.09,0-9.17,1.472-12.124,4.374c-2.992,2.939-4.446,6.696-4.446,11.485c0,4.394,1.438,8.112,4.272,11.052
				c2.824,2.934,6.962,4.421,12.298,4.421c5.337,0,9.497-1.489,12.365-4.426c2.875-2.939,4.333-6.656,4.333-11.047
				c0-4.557-1.499-8.381-4.456-11.366C1230.322,521.702,1226.203,520.19,1221.032,520.19z"/>
		</g>
		<polygon style="fill:#E6D0BE;" points="1112.527,967.344 1019.403,1110.971 1104.464,1114.647 1066.544,1218.17 1161.85,1081.738 
			1074.821,1077.928 		"/>
		<polygon style="fill:#E6D0BE;" points="1235.284,982.328 1164.66,1040.493 1207.407,1056.082 1171.381,1102.715 
			1241.957,1048.567 1198.228,1032.593 		"/>
	</g>
</g>
</svg>
