<?xml version="1.0" encoding="utf-8"?>
<!-- Generator: Adobe Illustrator 27.5.0, SVG Export Plug-In . SVG Version: 6.00 Build 0)  -->
<svg version="1.1" xmlns="http://www.w3.org/2000/svg" xmlns:xlink="http://www.w3.org/1999/xlink" x="0px" y="0px"
	 viewBox="0 0 2500 2500" style="enable-background:new 0 0 2500 2500;" xml:space="preserve">
-
<g id="Illustration">
	<g id="Technological_revolution_1_">
		<circle style="fill:transparent;" cx="1250" cy="1250" r="915"/>
		<g>
			<g>
				<path style="fill:#363E44;" d="M1090.589,630.381H681.326c-0.553,0-1-0.448-1-1V397.764c0-0.552,0.447-1,1-1h409.263
					c0.553,0,1,0.448,1,1v231.617C1091.589,629.933,1091.142,630.381,1090.589,630.381z M682.326,628.381h407.263V398.764H682.326
					V628.381z"/>
				<path style="fill:#363E44;" d="M1090.589,591.778H681.326c-0.553,0-1-0.448-1-1c0-0.552,0.447-1,1-1h409.263
					c0.553,0,1,0.448,1,1C1091.589,591.33,1091.142,591.778,1090.589,591.778z"/>
				<path style="fill:#363E44;" d="M1090.589,553.175H681.326c-0.553,0-1-0.448-1-1c0-0.552,0.447-1,1-1h409.263
					c0.553,0,1,0.448,1,1C1091.589,552.727,1091.142,553.175,1090.589,553.175z"/>
				<path style="fill:#363E44;" d="M1090.589,514.573H681.326c-0.553,0-1-0.448-1-1c0-0.552,0.447-1,1-1h409.263
					c0.553,0,1,0.448,1,1C1091.589,514.125,1091.142,514.573,1090.589,514.573z"/>
				<path style="fill:#363E44;" d="M1090.589,475.97H681.326c-0.553,0-1-0.448-1-1c0-0.552,0.447-1,1-1h409.263c0.553,0,1,0.448,1,1
					C1091.589,475.522,1091.142,475.97,1090.589,475.97z"/>
				<path style="fill:#363E44;" d="M1090.589,437.367H681.326c-0.553,0-1-0.448-1-1c0-0.552,0.447-1,1-1h409.263
					c0.553,0,1,0.448,1,1C1091.589,436.919,1091.142,437.367,1090.589,437.367z"/>
				<path style="fill:#363E44;" d="M749.536,630.381c-0.553,0-1-0.448-1-1V397.764c0-0.552,0.447-1,1-1c0.553,0,1,0.448,1,1v231.617
					C750.536,629.933,750.089,630.381,749.536,630.381z"/>
				<path style="fill:#363E44;" d="M817.747,630.381c-0.553,0-1-0.448-1-1V397.764c0-0.552,0.447-1,1-1c0.553,0,1,0.448,1,1v231.617
					C818.747,629.933,818.3,630.381,817.747,630.381z"/>
				<path style="fill:#363E44;" d="M885.957,630.381c-0.553,0-1-0.448-1-1V397.764c0-0.552,0.447-1,1-1c0.553,0,1,0.448,1,1v231.617
					C886.957,629.933,886.51,630.381,885.957,630.381z"/>
				<path style="fill:#363E44;" d="M954.168,630.381c-0.553,0-1-0.448-1-1V397.764c0-0.552,0.447-1,1-1c0.553,0,1,0.448,1,1v231.617
					C955.168,629.933,954.721,630.381,954.168,630.381z"/>
				<path style="fill:#363E44;" d="M1022.379,630.381c-0.553,0-1-0.448-1-1V397.764c0-0.552,0.447-1,1-1c0.553,0,1,0.448,1,1
					v231.617C1023.379,629.933,1022.932,630.381,1022.379,630.381z"/>
			</g>
			<path style="fill:#D3BBA3;" d="M854.15,954.85c-0.031,0-0.063-0.001-0.094-0.004c-0.55-0.051-0.954-0.538-0.903-1.088
				l31.808-342.225c0.048-0.514,0.479-0.907,0.994-0.907c0.001,0,0.001,0,0.002,0c0.516,0,0.946,0.391,0.995,0.904l25.549,265.839
				c0.053,0.55-0.35,1.038-0.899,1.091c-0.539,0.051-1.038-0.35-1.091-0.9l-24.537-255.308l-30.828,331.691
				C855.097,954.461,854.661,954.85,854.15,954.85z"/>
			<g>
				<path style="fill:#FFFFFF;" d="M746.722,639.182c-55.03,104.529-76.711,201.339-48.427,216.229
					c28.285,14.891,144.193-32.312,199.223-136.841c55.03-104.529,28.343-226.802,0.058-241.693
					C869.292,461.986,801.752,534.653,746.722,639.182z"/>
				
					<ellipse transform="matrix(0.4658 -0.8849 0.8849 0.4658 -163.2257 1061.8942)" style="fill:#E6D0BE;" cx="797.936" cy="666.144" rx="213.893" ry="57.878"/>
				<path style="fill:#363E44;" d="M845.118,691.984c-0.157,0-0.316-0.037-0.465-0.115l-69.507-36.592
					c-0.488-0.257-0.677-0.862-0.419-1.351c0.257-0.489,0.862-0.676,1.351-0.419l69.507,36.592c0.488,0.257,0.677,0.862,0.419,1.351
					C845.825,691.79,845.477,691.984,845.118,691.984z"/>
			</g>
		</g>
		<path style="fill:#F7F1EB;" d="M1716.438,744.745c-0.03,12.354,1.512,24.516,4.491,36.229l-32.037,18.169l38.217,67.388
			l32.037-18.169c8.523,8.57,18.169,16.134,28.787,22.45l-9.805,35.495l74.674,20.627l9.805-35.496
			c12.355,0.029,24.516-1.512,36.229-4.492l18.169,32.037l67.388-38.217l-18.169-32.037c8.57-8.523,16.134-18.169,22.45-28.787
			l35.495,9.805l20.627-74.674l-35.496-9.805c0.03-12.354-1.512-24.516-4.491-36.229l32.037-18.169l-38.217-67.388l-32.037,18.169
			c-8.523-8.57-18.169-16.134-28.787-22.45l9.805-35.496l-74.674-20.627l-9.805,35.496c-12.355-0.029-24.516,1.512-36.229,4.492
			l-18.169-32.037l-67.388,38.217l18.169,32.037c-8.57,8.523-16.134,18.169-22.45,28.787l-35.495-9.805l-20.627,74.674
			L1716.438,744.745z M1785.148,723.539c11.857-42.924,56.265-68.11,99.19-56.253c42.924,11.857,68.11,56.265,56.253,99.19
			c-11.857,42.924-56.265,68.11-99.19,56.253C1798.476,810.872,1773.291,766.463,1785.148,723.539z"/>
		<path style="fill:#F7F1EB;" d="M762.714,1564.526c-0.032,13.482,1.65,26.754,4.902,39.536l-34.962,19.828l41.706,73.539
			l34.962-19.828c9.301,9.352,19.828,17.607,31.415,24.5l-10.7,38.736l81.491,22.51l10.7-38.736
			c13.482,0.032,26.753-1.65,39.536-4.902l19.828,34.962l73.539-41.706l-19.828-34.962c9.352-9.301,17.607-19.827,24.5-31.415
			l38.736,10.7l22.509-81.491l-38.736-10.7c0.032-13.482-1.65-26.754-4.902-39.536l34.962-19.828l-41.706-73.539l-34.962,19.828
			c-9.301-9.352-19.828-17.607-31.415-24.5l10.7-38.736l-81.491-22.51l-10.7,38.736c-13.482-0.032-26.754,1.65-39.536,4.902
			l-19.828-34.962l-73.539,41.706l19.828,34.962c-9.352,9.301-17.607,19.827-24.5,31.415l-38.736-10.7l-22.509,81.491
			L762.714,1564.526z M837.697,1541.384c12.939-46.843,61.401-74.327,108.244-61.388c46.843,12.939,74.327,61.402,61.388,108.244
			c-12.939,46.843-61.402,74.327-108.244,61.388C852.242,1636.689,824.758,1588.226,837.697,1541.384z"/>
		<g>
			<g>
				<g>
					<path style="fill:#FFFFFF;" d="M1898.498,1184.963l243.583,89.517c0,0-92.843-421.714-440.14-424.961
						c-222.051-2.076-741.245,76.238-741.245,76.238l-58.859,273.221l371.072-34.002l0.655,424.691h672.765L1898.498,1184.963z"/>
					<path style="fill:#ff6900;" d="M1495.91,860.654c0,0-91.668,343.53-86.783,729.013h323.696c0,0-97.182-520.704-44.446-741.235
						C1688.377,848.432,1608.73,849.487,1495.91,860.654z"/>
					<path style="fill:#F7F1EB;" d="M1408.938,1427.844c-0.397,0-0.773-0.239-0.93-0.632l-102.066-257.217
						c-0.167-0.421-0.03-0.901,0.333-1.171l114.281-84.938l-85.34-46.754c-0.233-0.128-0.406-0.343-0.48-0.599
						c-0.073-0.255-0.043-0.53,0.086-0.762l91.278-164.96c0.267-0.483,0.878-0.658,1.359-0.391c0.483,0.267,0.658,0.876,0.391,1.359
						l-90.792,164.081l85.827,47.021c0.299,0.164,0.494,0.468,0.518,0.808s-0.128,0.668-0.401,0.871l-114.917,85.411
						l101.783,256.504c0.203,0.513-0.048,1.094-0.561,1.298C1409.187,1427.821,1409.062,1427.844,1408.938,1427.844z"/>
					<path style="fill:#F7F1EB;" d="M1732.823,1388.068c-0.138,0-0.278-0.029-0.413-0.09c-0.503-0.229-0.725-0.821-0.496-1.324
						l98.071-215.725l-107.424-98.008c-0.248-0.226-0.366-0.561-0.314-0.893s0.267-0.615,0.571-0.755l89.482-41.072l-76.796-177.037
						c-0.22-0.507,0.013-1.096,0.519-1.315c0.51-0.22,1.096,0.013,1.315,0.52l77.186,177.935c0.217,0.499-0.006,1.08-0.5,1.307
						l-89,40.85l106.846,97.48c0.32,0.292,0.416,0.758,0.236,1.153l-98.372,216.388
						C1733.567,1387.85,1733.204,1388.068,1732.823,1388.068z"/>
				</g>
				<g>
					<g>
						<path style="fill:#E2A18D;" d="M1092.995,1091.906c54.165-38.834,172.123-138.645,206.618-166.652
							c3.612-2.933,10.012-8.081,16.205-16.776c22.95-32.216,6.296-61.499,14.97-106.385c9.842-50.93,44.218-74.036,35.891-84.339
							c-5.792-7.166-21.214-2.101-46.346,18.844c-0.002,0.002-0.006-0.002-0.004-0.004c17.265-18.108,39.608-43.688,29.573-53.2
							c-12.174-10.364-41.954,16.608-59.171,33.804c20.84-20.815,25.695-38.118,18.778-42.028
							c-10.887-6.153-30.807,6.225-57.282,34.803c-0.001,0.001-0.003,0-0.002-0.001c12.769-24.84,12.164-32.769,5.208-34.734
							c-12.701-3.588-34.026,20.317-49.638,44.34c-17.576,27.044-21.825,54.115-24.097,71.248c-0.001,0.004-0.003,0.009-0.008,0.011
							c-127.41,68.574-203.164,120.28-203.164,120.28S1092.99,1091.909,1092.995,1091.906z"/>
						<path style="fill:#E2A18D;" d="M1313.23,841.409c42.194-29.223,63.607-30.821,68.025-23.987
							c7.43,11.494-18.381,51.188-74.669,101.666C1306.497,897.28,1313.32,863.216,1313.23,841.409z"/>
						<path style="fill:#363E44;" d="M1325.029,884.99c-0.067,0-0.136-0.007-0.205-0.021c-0.54-0.112-0.888-0.642-0.774-1.183
							c2.262-10.862,1.878-22.166,1.472-34.134c-0.193-5.682-0.393-11.558-0.335-17.74c0.005-0.549,0.452-0.991,1-0.991
							c0.003,0,0.006,0,0.01,0c0.552,0.005,0.995,0.457,0.99,1.009c-0.058,6.139,0.142,11.993,0.334,17.654
							c0.41,12.092,0.798,23.512-1.514,34.61C1325.909,884.666,1325.493,884.99,1325.029,884.99z"/>
						<path style="fill:#363E44;" d="M1300.53,779.9c-0.076,0-0.153-0.009-0.23-0.027c-0.537-0.126-0.87-0.665-0.744-1.203
							c1.446-6.143,3.468-12.174,6.008-17.925c3.688-8.346,8.495-16.19,14.29-23.313c0.349-0.428,0.979-0.493,1.406-0.145
							c0.429,0.348,0.493,0.978,0.145,1.407c-5.682,6.985-10.396,14.676-14.011,22.859c-2.491,5.639-4.473,11.553-5.891,17.576
							C1301.395,779.589,1300.983,779.9,1300.53,779.9z"/>
						<path style="fill:#363E44;" d="M1273.728,757.902c-0.076,0-0.153-0.009-0.229-0.027c-0.538-0.126-0.871-0.665-0.745-1.202
							c1.445-6.141,3.467-12.172,6.008-17.926c3.687-8.346,8.494-16.189,14.289-23.313c0.348-0.428,0.978-0.493,1.406-0.145
							c0.429,0.349,0.493,0.979,0.145,1.407c-5.682,6.985-10.396,14.676-14.01,22.859c-2.492,5.641-4.475,11.554-5.891,17.576
							C1274.592,757.592,1274.181,757.902,1273.728,757.902z"/>
						<path style="fill:#363E44;" d="M1231.885,752.547c-0.076,0-0.153-0.009-0.23-0.027c-0.537-0.126-0.87-0.665-0.744-1.203
							c1.447-6.147,3.469-12.178,6.008-17.926c3.689-8.35,8.497-16.193,14.29-23.313c0.348-0.428,0.979-0.493,1.406-0.145
							c0.429,0.349,0.493,0.978,0.145,1.407c-5.68,6.981-10.395,14.672-14.011,22.859c-2.49,5.635-4.472,11.549-5.891,17.576
							C1232.749,752.236,1232.338,752.547,1231.885,752.547z"/>
						<path style="fill:#363E44;" d="M1241.933,878.288c-0.218,0-0.437-0.07-0.62-0.216c-0.433-0.343-0.506-0.972-0.162-1.405
							c18.918-23.869,9.943-72.413,9.851-72.901c-0.104-0.542,0.253-1.066,0.795-1.169c0.551-0.103,1.066,0.253,1.17,0.795
							c0.386,2.027,9.233,49.938-10.249,74.517C1242.52,878.158,1242.228,878.288,1241.933,878.288z"/>
					</g>
					<g>
						<path style="fill:#FFFFFF;" d="M1115.797,803.58l143.274,204.503c0,0-327.322,278.705-428.336,162.598
							C698.896,1019.142,1115.797,803.58,1115.797,803.58z"/>
					</g>
				</g>
				<g>
					<g>
						<path style="fill:#E2A18D;" d="M1865.425,1172.071c-66.628-1.64-220.908,6.952-265.314,8.522
							c-4.65,0.164-12.859,0.417-23.041,3.625c-37.727,11.885-42.078,45.29-76.044,75.888
							c-38.54,34.719-79.898,32.449-79.459,45.688c0.306,9.21,15.665,14.458,48.343,12.883c0.003,0,0.004,0.005,0.001,0.005
							c-24.69,4.05-57.934,11.005-55.656,24.643c3.472,15.606,43.49,12.022,67.593,8.67c-29.174,4.057-43.474,14.942-40.309,22.229
							c4.982,11.471,28.338,13.593,66.687,6.736c0.002,0,0.002,0.002,0.001,0.002c-25.157,12.132-29.452,18.825-25.083,24.584
							c7.976,10.516,39.398,4.285,66.332-5.483c30.321-10.995,50.023-30.041,62.159-42.346c0.003-0.003,0.008-0.005,0.013-0.004
							c143.005,22.034,234.618,26.408,234.618,26.408S1865.431,1172.071,1865.425,1172.071z"/>
						<path style="fill:#E2A18D;" d="M1538.727,1239.307c-51.283-2.099-69.336-13.724-68.744-21.84
							c0.995-13.65,45.511-29.78,120.848-36.154C1577.763,1198.772,1551.795,1221.848,1538.727,1239.307z"/>
						<path style="fill:#363E44;" d="M1522.669,1240.073c-0.213,0-0.427-0.068-0.609-0.208c-0.438-0.337-0.519-0.965-0.182-1.402
							c3.744-4.865,7.112-9.656,10.369-14.29c6.958-9.898,13.529-19.247,22.061-26.711c0.413-0.363,1.046-0.323,1.411,0.094
							c0.363,0.416,0.321,1.047-0.095,1.411c-8.35,7.306-14.854,16.559-21.74,26.356c-3.27,4.651-6.65,9.461-10.422,14.36
							C1523.266,1239.938,1522.969,1240.073,1522.669,1240.073z"/>
						<path style="fill:#363E44;" d="M1470.556,1318.332c-0.449,0-0.857-0.305-0.97-0.761c-0.132-0.536,0.195-1.078,0.731-1.21
							c8.742-2.15,17.139-5.448,24.956-9.802c5.385-3,10.529-6.525,15.29-10.479c0.425-0.353,1.055-0.294,1.408,0.131
							c0.353,0.425,0.294,1.055-0.131,1.408c-4.855,4.032-10.102,7.628-15.595,10.687c-7.973,4.441-16.536,7.804-25.45,9.998
							C1470.715,1318.322,1470.635,1318.332,1470.556,1318.332z"/>
						<path style="fill:#363E44;" d="M1478.694,1352.037c-0.449,0-0.858-0.305-0.97-0.761c-0.132-0.536,0.195-1.078,0.731-1.21
							c8.74-2.149,17.137-5.447,24.956-9.802c5.388-3.001,10.532-6.526,15.29-10.478c0.425-0.354,1.055-0.294,1.408,0.13
							c0.353,0.425,0.294,1.056-0.131,1.408c-4.853,4.031-10.099,7.626-15.595,10.687c-7.975,4.442-16.538,7.806-25.45,9.998
							C1478.854,1352.028,1478.773,1352.037,1478.694,1352.037z"/>
						<path style="fill:#363E44;" d="M1508.863,1381.521c-0.449,0-0.858-0.305-0.97-0.761c-0.132-0.536,0.195-1.078,0.731-1.21
							c8.74-2.149,17.136-5.447,24.955-9.802c5.387-3,10.531-6.526,15.291-10.479c0.425-0.353,1.055-0.294,1.408,0.131
							c0.353,0.425,0.294,1.055-0.131,1.408c-4.854,4.031-10.101,7.627-15.596,10.687c-7.974,4.441-16.537,7.805-25.449,9.997
							C1509.022,1381.512,1508.942,1381.521,1508.863,1381.521z"/>
					</g>
					<g>
						<path style="fill:#FFFFFF;" d="M1671.85,1409.146l27.558-257.62c0,0,446.548-57.757,442.647,142.555
							C2139.413,1429.774,1671.85,1409.146,1671.85,1409.146z"/>
						<path style="fill:#363E44;" d="M1729.546,1413.665c-8.65,0-17.372-0.058-26.18-0.173c-0.553-0.007-0.994-0.461-0.987-1.013
							c0.007-0.552,0.5-0.989,1.013-0.987c80.611,1.055,154.737-2.737,220.316-11.28c0.541-0.076,1.049,0.315,1.12,0.862
							c0.071,0.548-0.314,1.05-0.862,1.121C1865.461,1409.816,1800.163,1413.665,1729.546,1413.665z"/>
						<path style="fill:#363E44;" d="M1696.533,1177.31c-0.038,0-0.077-0.002-0.116-0.007c-0.549-0.064-0.941-0.56-0.878-1.109
							l2.876-24.784c0.053-0.456,0.409-0.818,0.865-0.876c0.524-0.068,53.246-6.795,121.262-7.646
							c62.807-0.782,151.88,3.424,219.56,27.932c0.519,0.188,0.787,0.761,0.6,1.281c-0.188,0.519-0.762,0.787-1.281,0.6
							c-67.397-24.406-156.214-28.597-218.853-27.812c-63.417,0.793-113.492,6.7-120.256,7.532l-2.786,24.005
							C1697.467,1176.935,1697.034,1177.31,1696.533,1177.31z"/>
						<path style="fill:#363E44;" d="M1848.785,1144.894c-0.262,0-0.523-0.102-0.72-0.306l-35.178-36.486
							c-0.384-0.398-0.372-1.031,0.025-1.414c0.398-0.383,1.031-0.372,1.414,0.026l35.178,36.486
							c0.384,0.398,0.372,1.031-0.025,1.414C1849.285,1144.801,1849.035,1144.894,1848.785,1144.894z"/>
					</g>
				</g>
			</g>
			<g>
				<path style="fill:#E2A18D;" d="M1601.288,936.499c31.545-8.607,50.141-41.157,41.533-72.702l-32.743-120.003
					c-8.607-31.545-41.157-50.141-72.703-41.533c-31.545,8.607-50.141,41.157-41.533,72.702l32.743,120.003
					C1537.193,926.511,1569.743,945.106,1601.288,936.499z"/>
				<path style="fill:#E2A18D;" d="M1483.478,610.739c-4.542,1.281-47.851,14.198-61.951,52.748
					c-10.492,28.684-2.071,56.975,19.229,102.29c25.082,53.364,47.531,81.76,67.526,86.432
					c31.592,7.382,91.404-59.961,100.85-118.768c6.818-42.448-12.831-86.044-47.579-111.87
					C1526.899,595.817,1486.377,609.922,1483.478,610.739z"/>
				<g>
					<g>
						<path style="fill:#FFFFFF;" d="M1412.616,722.664c0.189,0.344,0.077,0.728,0.266,1.073c0.008,0.015,0.019,0.023,0.028,0.038
							c1.021,5.418,2.084,11.137,2.097,16.648c0.006,2.441-0.932,4.198-1.187,6.498c-0.187,1.688-0.359,3.304-0.612,4.959
							c-16.778-7.252-27.431-20.867-27.431-20.867S1397.548,724.496,1412.616,722.664z"/>
						<path style="fill:#363E44;" d="M1424.25,755.371c-3.865-0.77-7.51-1.974-10.912-3.435c-0.752-1.312-1.446-2.672-2.012-4.124
							c-3.32-8.518-2.545-17.604,1.325-25.146c5.642-0.658,11.773-0.662,17.993,0.576c20.924,4.164,35.599,20.885,38.094,23.89
							c-0.103,0.283-0.213,0.564-0.324,0.844C1464.529,750.001,1444.861,759.473,1424.25,755.371z"/>
					</g>
					<g>
						<path style="fill:#FFFFFF;" d="M1522.149,719.567c2.472,6.028,3.224,11.041,1.783,17.115
							c-14.783,4.763-28.337,3.508-28.337,3.508s5.099-19.755,19.787-33.6C1518.598,710.154,1520.395,715.288,1522.149,719.567z"/>
						<path style="fill:#363E44;" d="M1515.426,706.557c1.647-1.527,3.411-2.986,5.309-4.335
							c19.126-13.596,44.12-11.268,44.12-11.268s-6.015,24.372-25.14,37.967c-4.944,3.514-10.276,5.95-15.471,7.651
							C1516.174,729.059,1512.607,717.572,1515.426,706.557z"/>
					</g>
				</g>
				<path style="fill:#84524D;" d="M1545.96,581.446c13.066-6.334,42.251-4.081,60.083,13.871
					c37.826,38.077,42.154,77.209,13.051,133.285c-8.42-17.224-32.774-34.265-45.954-43.108
					c-16.405-11.006-25.152-24.685-27.082-43.195c-55.032,27.123-75.511,33.316-78.102,29.188
					c-2.71-4.316,12.876-21.172,12.876-21.172s-37.084,34.75-42.848,30.363c-1.79-1.363-4.598-6.813,6.777-28.322
					c-28.061,40.104-32.659,39.849-35.038,38.714c-7.027-3.351-11.241-37.202,1.064-70.628c6.943-18.86,24.69-37.154,48.593-47.515
					C1501.906,554.494,1536.811,570.72,1545.96,581.446z"/>
				<g>
					<path style="fill:#E2A18D;" d="M1571.75,704.934c-1.326,18.874,10.532,35.082,26.484,36.203
						c15.953,1.12,29.959-13.272,31.285-32.145c1.326-18.874-10.532-35.082-26.485-36.202
						C1587.083,671.669,1573.076,686.06,1571.75,704.934z"/>
					<path style="fill:#363E44;" d="M1614.771,712.473c-0.079,0-0.16-0.009-0.24-0.029c-0.536-0.132-0.864-0.674-0.731-1.21
						c0.265-1.073,0.438-2.186,0.518-3.309c0.309-4.404-0.844-8.637-3.246-11.921c-2.366-3.233-5.663-5.154-9.286-5.408
						c-1.828-0.129-3.627,0.171-5.355,0.889c-0.511,0.211-1.095-0.03-1.308-0.54c-0.212-0.51,0.03-1.095,0.54-1.307
						c2.019-0.838,4.121-1.188,6.264-1.037c4.22,0.296,8.04,2.506,10.759,6.223c2.682,3.665,3.97,8.368,3.627,13.242
						c-0.086,1.237-0.278,2.465-0.57,3.648C1615.628,712.168,1615.22,712.473,1614.771,712.473z"/>
				</g>
				<path style="fill:#363E44;" d="M1476.636,778.948c-0.198,0-0.398-0.059-0.573-0.181c-2.953-2.071-4.706-4.47-5.21-7.13
					c-0.552-2.899,0.553-5.123,1.831-7.698c0.887-1.786,1.893-3.811,2.535-6.455c0.815-3.362,0.852-6.978,0.107-10.746
					c-0.106-0.542,0.246-1.068,0.788-1.175c0.535-0.108,1.067,0.245,1.175,0.787c0.8,4.055,0.758,7.959-0.127,11.605
					c-0.695,2.862-1.754,4.992-2.687,6.872c-1.21,2.437-2.084,4.197-1.658,6.436c0.403,2.131,1.882,4.104,4.394,5.866
					c0.452,0.317,0.562,0.941,0.244,1.393C1477.261,778.799,1476.951,778.948,1476.636,778.948z"/>
				<path style="fill:#363E44;" d="M1519.826,852.993c-0.481,0-0.905-0.348-0.986-0.839c-0.089-0.545,0.281-1.059,0.826-1.148
					c35.567-5.815,55.135-29.491,65.287-48.328c11.043-20.492,13.67-39.872,13.695-40.066c0.071-0.548,0.56-0.937,1.12-0.862
					c0.548,0.071,0.934,0.573,0.862,1.12c-0.025,0.197-2.686,19.888-13.887,40.698c-10.364,19.256-30.358,43.46-66.756,49.411
					C1519.934,852.989,1519.88,852.993,1519.826,852.993z"/>
				<path style="fill:#363E44;" d="M1508.186,801.711c7.224,3.994,16.319,1.375,20.313-5.85s1.375-16.319-5.85-20.313
					c-7.225-3.994-3.238,5.857-7.231,13.081C1511.424,795.855,1500.962,797.718,1508.186,801.711z"/>
				<g>
					<path style="fill:#84524D;" d="M1542.905,643.338c-55.104-25.663-103.221-8.641-117.766-5.313
						c-14.78-15.409-15.968-28.884-16.043-33.828c-0.436-28.255,31.025-61.312,79.601-68.66
						c-3.329,1.782-17.324,15.052-17.796,20.819c13.063-14.329,27.254-17.848,34.406-19.704c32.792-8.512,70.939,9.7,96.065,48.169
						c-2.154-2.012-13.412-9.804-22.721-10.185c6.328,3.489,13.081,8.109,19.588,14.269c28.303,26.794,31.746,63.592,32.327,76.725
						C1622.176,659.13,1588.096,633.392,1542.905,643.338z"/>
					<path style="fill:#363E44;" d="M1470.789,625.649c-0.161,0-0.322-0.039-0.47-0.117c-0.347-0.185-0.554-0.555-0.528-0.946
						c0.428-6.686,2.451-16.684,9.659-26.339c6.602-8.841,14.719-13.529,20.366-15.905c0.508-0.214,1.095,0.024,1.31,0.534
						c0.214,0.509-0.025,1.095-0.534,1.309c-5.418,2.28-13.207,6.777-19.538,15.258c-6.155,8.244-8.369,16.751-9.071,23.046
						c8.359-6.253,17.321-11.721,26.67-16.271c8.015-3.902,16.428-7.18,25.005-9.742c0.528-0.158,1.086,0.143,1.244,0.672
						c0.158,0.529-0.143,1.086-0.672,1.245c-8.473,2.531-16.784,5.77-24.702,9.624c-9.902,4.82-19.366,10.683-28.128,17.426
						C1471.221,625.579,1471.005,625.649,1470.789,625.649z"/>
				</g>
			</g>
		</g>
		<g>
			<path style="fill:#FFD092;" d="M1116.935,1068.123c-1.748,13.224-1.788,26.459-0.225,39.414l-36.827,15.002l31.555,77.462
				l36.827-15.002c7.935,10.359,17.211,19.799,27.702,28.037l-15.43,36.642l77.086,32.461l15.43-36.642
				c13.224,1.748,26.459,1.788,39.414,0.225l15.002,36.827l77.462-31.555l-15.002-36.827c10.36-7.935,19.8-17.211,28.037-27.702
				l36.642,15.43l32.461-77.086l-36.642-15.43c1.748-13.224,1.788-26.459,0.225-39.414l36.827-15.002l-31.555-77.462l-36.827,15.002
				c-7.935-10.36-17.211-19.799-27.702-28.037l15.43-36.642l-77.086-32.461l-15.43,36.642c-13.224-1.748-26.459-1.788-39.414-0.225
				l-15.002-36.827l-77.462,31.555l15.002,36.827c-10.36,7.935-19.8,17.211-28.037,27.702l-36.642-15.43l-32.461,77.086
				L1116.935,1068.123z M1193.449,1054.966c18.659-44.311,69.707-65.106,114.018-46.446c44.311,18.659,65.106,69.707,46.446,114.018
				c-18.659,44.311-69.707,65.106-114.018,46.446C1195.585,1150.324,1174.79,1099.277,1193.449,1054.966z"/>
			<g>
				<g>
					<path style="fill:#363E44;" d="M1272.908,1310.922c-23.762,0-43.025-19.263-43.025-43.025v-12.596h86.049v12.596
						C1315.933,1291.659,1296.67,1310.922,1272.908,1310.922z"/>
					<path style="fill:#EFBC73;" d="M1389.327,1086.519c0-65.828-54.634-118.894-121.031-116.33
						c-59.187,2.286-107.847,49.684-111.569,108.798c-2.881,45.75,20.691,86.241,56.879,107.709l2.086,36.446
						c1.736,30.33,26.837,54.036,57.217,54.036s55.481-23.706,57.217-54.036l2.086-36.446
						C1366.399,1166.414,1389.327,1129.152,1389.327,1086.519z"/>
					<path style="fill:#363E44;" d="M1302.014,1242.745c-0.04,0-0.081-0.002-0.122-0.007c-0.549-0.067-0.938-0.566-0.871-1.114
						l18.318-149.882l-23.582,13.363c-0.347,0.196-0.78,0.168-1.099-0.074l-20.469-15.557l-20.481,16.385
						c-0.281,0.224-0.661,0.28-0.991,0.149l-26.229-10.333l21.68,145.805c0.081,0.546-0.296,1.055-0.842,1.136
						c-0.542,0.084-1.056-0.296-1.137-0.842l-21.935-147.517c-0.053-0.353,0.088-0.708,0.367-0.93
						c0.279-0.222,0.658-0.278,0.988-0.147l27.301,10.755l20.639-16.51c0.359-0.287,0.865-0.292,1.23-0.015l20.564,15.63
						l24.735-14.017c0.329-0.186,0.734-0.172,1.048,0.038c0.314,0.209,0.483,0.578,0.438,0.953l-18.56,151.852
						C1302.943,1242.373,1302.512,1242.745,1302.014,1242.745z"/>
				</g>
			</g>
		</g>
		<g>
			<g>
				<polygon style="fill:#363E44;" points="1259.55,1371.922 1173.298,1483.043 1262.707,1586.874 1227.95,1479.086 				"/>
				<polygon style="fill:#363E44;" points="1296.672,1378.75 1367.968,1495.793 1262.571,1586.781 1314.36,1484.453 				"/>
				<path style="fill:#363E44;" d="M919.606,1808.415c-36.033,0-71.766-5.219-106.46-15.566
					c-39.34-11.733-76.384-29.754-110.103-53.563c-33.736-23.821-63.173-52.751-87.491-85.985
					c-24.97-34.123-43.906-71.946-56.282-112.418c-0.162-0.528,0.136-1.087,0.664-1.249c0.526-0.162,1.086,0.136,1.248,0.664
					c50.311,164.519,204.923,273.791,375.986,265.703c139.473-6.586,266.709-93.703,324.15-221.939
					c0.227-0.504,0.819-0.73,1.322-0.504c0.504,0.226,0.729,0.817,0.504,1.321c-28.324,63.232-73.552,117.533-130.792,157.034
					c-57.878,39.94-125.339,62.792-195.091,66.086C931.372,1808.275,925.484,1808.415,919.606,1808.415z"/>
				<path style="fill:#E6D0BE;" d="M1231.184,1598.826l50.466,6.943c8.04,1.106,15.454-4.515,16.56-12.555
					s-4.515-15.454-12.555-16.56l-50.466-6.943c-8.04-1.106-15.454,4.515-16.56,12.555
					C1217.523,1590.306,1223.144,1597.72,1231.184,1598.826z"/>
			</g>
			<g>
				<path style="fill:#D3BBA3;" d="M644.208,1540.463l48.288-12.406c-8.512-32.99-10.432-66.655-5.706-100.058
					c3.674-25.978,11.34-51.219,22.782-75.022l-44.955-21.524c-13.658,28.411-22.809,58.553-27.198,89.589
					C631.774,1460.942,634.059,1501.12,644.208,1540.463z"/>
				<path style="fill:#363E44;" d="M690.594,1410.395c-0.042,0-0.085-0.002-0.128-0.008l-49.733-6.366
					c-0.548-0.07-0.936-0.571-0.865-1.119c0.07-0.547,0.575-0.939,1.119-0.865l49.733,6.366c0.548,0.07,0.936,0.571,0.865,1.119
					C691.521,1410.027,691.09,1410.395,690.594,1410.395z"/>
				<path style="fill:#363E44;" d="M686.93,1430.545c-0.019,0-0.037,0-0.056-0.001l-49.732-2.702
					c-0.551-0.03-0.974-0.501-0.943-1.053c0.029-0.552,0.511-0.976,1.053-0.944l49.732,2.702c0.551,0.03,0.974,0.501,0.943,1.053
					C687.898,1430.133,687.457,1430.545,686.93,1430.545z"/>
				<path style="fill:#363E44;" d="M635.364,1449.825c-0.544,0-0.989-0.435-1-0.98c-0.011-0.552,0.429-1.009,0.98-1.02l49.732-0.961
					c0.007,0,0.014,0,0.02,0c0.544,0,0.989,0.435,1,0.98c0.011,0.552-0.429,1.009-0.98,1.02l-49.732,0.961
					C635.377,1449.825,635.37,1449.825,635.364,1449.825z"/>
				
					<rect x="433.895" y="1462.243" transform="matrix(-1 -1.224647e-16 1.224647e-16 -1 1195.5378 3305.6536)" style="fill:#D3BBA3;" width="327.747" height="381.167"/>
				
					<rect x="531.258" y="1462.243" transform="matrix(-1 -1.224647e-16 1.224647e-16 -1 1390.2633 3305.6536)" style="fill:#E6D0BE;" width="327.747" height="381.167"/>
				<path style="fill:#FFFFFF;" d="M866.886,1842.548h-266.05c-0.553,0-1-0.448-1-1v-298.386c0-0.552,0.447-1,1-1h266.05
					c0.553,0,1,0.448,1,1v298.386C867.886,1842.1,867.438,1842.548,866.886,1842.548z M601.836,1840.548h264.05v-296.386h-264.05
					V1840.548z"/>
				
					<rect x="462.506" y="1126.027" transform="matrix(-0.9891 -0.1471 0.1471 -0.9891 1013.1169 2581.6089)" style="fill:#D3BBA3;" width="279.079" height="254.611"/>
				
					<rect x="551.724" y="1142.918" transform="matrix(-0.9891 -0.1471 0.1471 -0.9891 1236.4867 2631.9153)" style="fill:#E6D0BE;" width="327.733" height="254.611"/>
				<path style="fill:#363E44;" d="M648.531,1288.482l206.606,30.735c26.838,3.992,51.834-14.518,55.842-41.354
					c4.012-26.858-14.518-51.88-41.378-55.875l-206.606-30.735c-26.838-3.993-51.834,14.518-55.842,41.354
					C603.142,1259.465,621.671,1284.486,648.531,1288.482z"/>
				<path style="fill:#FFFFFF;" d="M885.16,1324.143c-2.444,0-4.919-0.18-7.408-0.55l-206.607-30.735
					c-13.255-1.972-24.947-8.989-32.922-19.758c-7.976-10.77-11.277-24-9.298-37.254c4.083-27.333,29.647-46.26,56.979-42.195
					l206.606,30.735c13.255,1.972,24.947,8.989,32.922,19.758c7.976,10.77,11.277,24,9.298,37.254
					C931.019,1306.242,909.565,1324.142,885.16,1324.143z M678.497,1195.1c-23.433,0-44.03,17.186-47.593,41.041
					c-1.901,12.726,1.27,25.428,8.927,35.768c7.656,10.34,18.883,17.077,31.609,18.97l206.606,30.735
					c2.388,0.355,4.767,0.528,7.112,0.528c23.433,0.002,44.03-17.186,47.593-41.041c1.901-12.725-1.27-25.428-8.927-35.768
					c-7.656-10.34-18.883-17.077-31.609-18.971l-206.606-30.735C683.222,1195.273,680.844,1195.1,678.497,1195.1z"/>
				<path style="fill:#FFFFFF;" d="M859.216,1299.794c-0.003,0-0.007,0-0.011,0c-0.343-0.003-0.688-0.013-1.035-0.029
					c-0.552-0.025-0.979-0.493-0.954-1.044c0.025-0.552,0.506-0.973,1.044-0.954c0.323,0.015,0.645,0.023,0.967,0.027
					c0.552,0.006,0.995,0.458,0.989,1.01C860.21,1299.354,859.764,1299.794,859.216,1299.794z M864.202,1299.41
					c-0.48,0-0.904-0.347-0.985-0.835c-0.091-0.545,0.277-1.06,0.822-1.151c0.319-0.053,0.637-0.112,0.954-0.176
					c0.54-0.111,1.068,0.241,1.179,0.782c0.109,0.541-0.241,1.069-0.782,1.178c-0.339,0.069-0.68,0.131-1.022,0.188
					C864.312,1299.405,864.257,1299.41,864.202,1299.41z M853.256,1299.112c-0.071,0-0.144-0.007-0.215-0.023
					c-0.34-0.074-0.677-0.155-1.01-0.241c-0.535-0.138-0.857-0.683-0.72-1.218c0.139-0.535,0.688-0.854,1.218-0.719
					c0.312,0.08,0.625,0.155,0.94,0.224c0.54,0.118,0.881,0.651,0.763,1.191C854.129,1298.794,853.715,1299.112,853.256,1299.112z
					 M869.988,1297.811c-0.398,0-0.775-0.241-0.931-0.634c-0.202-0.514,0.051-1.095,0.564-1.297c0.302-0.119,0.6-0.242,0.897-0.371
					c0.505-0.218,1.095,0.014,1.315,0.521c0.219,0.507-0.015,1.096-0.521,1.314c-0.317,0.137-0.637,0.27-0.958,0.396
					C870.234,1297.789,870.11,1297.811,869.988,1297.811z M847.563,1297.219c-0.138,0-0.278-0.029-0.412-0.09
					c-0.315-0.143-0.628-0.292-0.938-0.445c-0.494-0.246-0.696-0.846-0.45-1.34c0.245-0.494,0.843-0.698,1.341-0.451
					c0.288,0.143,0.579,0.282,0.873,0.415c0.503,0.228,0.725,0.821,0.498,1.324C848.307,1297.001,847.943,1297.219,847.563,1297.219
					z M875.315,1295.045c-0.325,0-0.644-0.158-0.836-0.45c-0.304-0.461-0.177-1.082,0.284-1.385c0.271-0.178,0.536-0.36,0.799-0.546
					c0.45-0.319,1.074-0.214,1.394,0.237c0.319,0.45,0.214,1.075-0.236,1.394c-0.282,0.2-0.567,0.395-0.856,0.585
					C875.695,1294.992,875.504,1295.045,875.315,1295.045z M842.39,1294.179c-0.206,0-0.415-0.064-0.594-0.196
					c-0.277-0.206-0.552-0.415-0.821-0.629c-0.433-0.343-0.505-0.973-0.161-1.405c0.343-0.432,0.97-0.505,1.405-0.161
					c0.252,0.2,0.507,0.396,0.767,0.588c0.444,0.329,0.538,0.955,0.209,1.398C842.998,1294.039,842.696,1294.179,842.39,1294.179z
					 M879.954,1291.24c-0.254,0-0.508-0.096-0.703-0.289c-0.393-0.388-0.396-1.021-0.009-1.414c0.227-0.229,0.449-0.462,0.668-0.7
					c0.375-0.406,1.008-0.431,1.413-0.057c0.406,0.375,0.432,1.007,0.058,1.413c-0.234,0.254-0.473,0.503-0.715,0.749
					C880.47,1291.141,880.212,1291.24,879.954,1291.24z M837.966,1290.129c-0.275,0-0.551-0.114-0.748-0.336
					c-0.229-0.259-0.454-0.521-0.674-0.787c-0.352-0.425-0.292-1.056,0.133-1.408c0.429-0.353,1.057-0.291,1.408,0.133
					c0.206,0.248,0.415,0.493,0.629,0.734c0.366,0.414,0.329,1.045-0.085,1.412C838.438,1290.046,838.202,1290.129,837.966,1290.129
					z M883.702,1286.558c-0.185,0-0.372-0.051-0.539-0.158c-0.465-0.298-0.6-0.917-0.302-1.381c0.174-0.271,0.343-0.545,0.508-0.823
					c0.282-0.474,0.898-0.629,1.371-0.348c0.475,0.283,0.63,0.896,0.348,1.371c-0.177,0.296-0.357,0.589-0.543,0.879
					C884.354,1286.395,884.031,1286.558,883.702,1286.558z M834.474,1285.25c-0.348,0-0.685-0.182-0.87-0.505
					c-0.171-0.3-0.336-0.604-0.497-0.909c-0.257-0.489-0.068-1.094,0.421-1.35c0.49-0.258,1.094-0.067,1.351,0.42
					c0.149,0.286,0.305,0.569,0.464,0.85c0.273,0.48,0.106,1.091-0.375,1.364C834.812,1285.208,834.642,1285.25,834.474,1285.25z
					 M886.39,1281.196c-0.117,0-0.235-0.021-0.352-0.064c-0.517-0.194-0.778-0.771-0.585-1.288c0.113-0.3,0.221-0.603,0.322-0.908
					c0.175-0.524,0.742-0.81,1.265-0.633c0.525,0.174,0.808,0.74,0.634,1.264c-0.109,0.33-0.227,0.656-0.348,0.98
					C887.175,1280.949,886.794,1281.196,886.39,1281.196z M832.068,1279.755c-0.424,0-0.817-0.271-0.953-0.697
					c-0.104-0.33-0.204-0.663-0.297-0.998c-0.148-0.532,0.163-1.083,0.694-1.231c0.532-0.147,1.083,0.163,1.231,0.695
					c0.087,0.311,0.179,0.62,0.277,0.926c0.167,0.526-0.123,1.088-0.649,1.256C832.271,1279.739,832.169,1279.755,832.068,1279.755z
					 M888.894,1274.486l-0.996-0.097l-0.984-0.175c0.048-0.326,0.088-0.629,0.123-0.932c0.063-0.548,0.565-0.941,1.107-0.879
					c0.549,0.063,0.942,0.56,0.879,1.108C888.986,1273.836,888.942,1274.161,888.894,1274.486z M887.898,1274.39h0.01H887.898z
					 M830.864,1273.875c-0.51,0-0.946-0.388-0.994-0.906c-0.033-0.343-0.06-0.687-0.081-1.031c-0.034-0.551,0.386-1.026,0.936-1.06
					c0.578-0.037,1.026,0.386,1.06,0.937c0.019,0.323,0.046,0.646,0.075,0.967c0.052,0.55-0.352,1.038-0.901,1.089
					C830.927,1273.874,830.896,1273.875,830.864,1273.875z M888.173,1269.396c-0.525,0-0.966-0.41-0.997-0.941
					c-0.019-0.321-0.043-0.642-0.074-0.961c-0.054-0.55,0.349-1.039,0.898-1.092c0.552-0.056,1.039,0.349,1.092,0.898
					c0.033,0.345,0.06,0.69,0.08,1.037c0.032,0.552-0.389,1.024-0.939,1.057C888.212,1269.396,888.192,1269.396,888.173,1269.396z
					 M830.923,1267.875c-0.037,0-0.074-0.002-0.112-0.006c-0.549-0.062-0.944-0.556-0.883-1.105
					c0.039-0.343,0.084-0.687,0.136-1.031c0.081-0.545,0.602-0.977,1.142-0.892c0.546,0.08,0.931,0.534,0.854,1.08l-0.021,0.13
					c-0.044,0.299-0.087,0.617-0.122,0.936C831.858,1267.498,831.426,1267.875,830.923,1267.875z M887.19,1263.478
					c-0.438,0-0.839-0.29-0.962-0.732c-0.087-0.312-0.179-0.622-0.276-0.93c-0.166-0.527,0.127-1.088,0.653-1.254
					c0.524-0.167,1.089,0.126,1.255,0.653c0.104,0.33,0.201,0.661,0.294,0.995c0.148,0.532-0.163,1.083-0.694,1.231
					C887.37,1263.466,887.279,1263.478,887.19,1263.478z M832.25,1261.919c-0.106,0-0.215-0.018-0.321-0.053
					c-0.522-0.178-0.803-0.745-0.626-1.268c0.111-0.328,0.228-0.652,0.349-0.974c0.194-0.517,0.768-0.777,1.288-0.584
					c0.517,0.194,0.778,0.771,0.583,1.288c-0.113,0.301-0.222,0.605-0.325,0.912C833.056,1261.656,832.667,1261.919,832.25,1261.919
					z M884.99,1257.895c-0.361,0-0.71-0.196-0.888-0.538c-0.148-0.285-0.302-0.567-0.461-0.847c-0.274-0.48-0.107-1.09,0.373-1.364
					c0.479-0.274,1.091-0.106,1.363,0.373c0.173,0.302,0.338,0.607,0.498,0.915c0.255,0.49,0.064,1.094-0.425,1.349
					C885.304,1257.858,885.146,1257.895,884.99,1257.895z M834.756,1256.469c-0.174,0-0.351-0.045-0.511-0.141
					c-0.475-0.283-0.63-0.896-0.348-1.371c0.177-0.296,0.358-0.589,0.544-0.879c0.298-0.464,0.917-0.6,1.382-0.301
					c0.465,0.298,0.6,0.917,0.302,1.382c-0.174,0.27-0.344,0.544-0.509,0.821C835.429,1256.295,835.097,1256.469,834.756,1256.469z
					 M881.678,1252.892c-0.289,0-0.576-0.125-0.773-0.365c-0.204-0.248-0.413-0.493-0.627-0.734
					c-0.366-0.414-0.327-1.045,0.086-1.412c0.413-0.365,1.045-0.329,1.412,0.086c0.229,0.259,0.454,0.522,0.674,0.79
					c0.351,0.426,0.289,1.057-0.138,1.407C882.126,1252.817,881.9,1252.892,881.678,1252.892z M838.347,1251.666
					c-0.244,0-0.488-0.088-0.681-0.267c-0.404-0.376-0.428-1.008-0.052-1.413c0.234-0.253,0.473-0.502,0.717-0.748
					c0.39-0.391,1.022-0.393,1.414-0.004c0.392,0.39,0.394,1.022,0.004,1.415c-0.227,0.229-0.449,0.461-0.67,0.698
					C838.883,1251.559,838.615,1251.666,838.347,1251.666z M877.4,1248.682c-0.218,0-0.438-0.071-0.622-0.218
					c-0.252-0.201-0.508-0.397-0.768-0.59c-0.442-0.33-0.534-0.957-0.204-1.399c0.329-0.442,0.954-0.535,1.4-0.205
					c0.275,0.206,0.549,0.416,0.818,0.63c0.432,0.344,0.503,0.973,0.159,1.405C877.986,1248.553,877.695,1248.682,877.4,1248.682z
					 M842.859,1247.711c-0.313,0-0.622-0.147-0.817-0.422c-0.319-0.451-0.212-1.075,0.238-1.394
					c0.282-0.199,0.568-0.394,0.857-0.583c0.463-0.303,1.081-0.175,1.385,0.286c0.303,0.461,0.175,1.082-0.287,1.385
					c-0.27,0.177-0.536,0.359-0.799,0.545C843.261,1247.651,843.059,1247.711,842.859,1247.711z M872.346,1245.455
					c-0.15,0-0.303-0.034-0.446-0.105c-0.287-0.144-0.578-0.282-0.871-0.416c-0.503-0.229-0.725-0.822-0.496-1.324
					c0.228-0.502,0.823-0.724,1.324-0.496c0.317,0.144,0.629,0.293,0.938,0.447c0.494,0.247,0.694,0.848,0.447,1.342
					C873.065,1245.253,872.713,1245.455,872.346,1245.455z M848.091,1244.772c-0.388,0-0.756-0.226-0.919-0.604
					c-0.219-0.507,0.015-1.095,0.522-1.315c0.317-0.137,0.638-0.269,0.96-0.395c0.516-0.2,1.095,0.053,1.296,0.567
					c0.201,0.514-0.053,1.094-0.567,1.296c-0.301,0.117-0.6,0.24-0.895,0.368C848.357,1244.746,848.223,1244.772,848.091,1244.772z
					 M866.729,1243.354c-0.083,0-0.168-0.01-0.252-0.032c-0.31-0.081-0.624-0.156-0.94-0.226c-0.539-0.12-0.879-0.654-0.76-1.193
					c0.119-0.539,0.65-0.88,1.193-0.76c0.34,0.075,0.675,0.156,1.009,0.243c0.534,0.138,0.856,0.684,0.717,1.219
					C867.58,1243.055,867.174,1243.354,866.729,1243.354z M853.816,1242.982c-0.467,0-0.885-0.329-0.979-0.804
					c-0.108-0.542,0.242-1.068,0.784-1.177c0.34-0.068,0.68-0.13,1.023-0.187c0.55-0.089,1.06,0.28,1.148,0.824
					c0.09,0.545-0.279,1.06-0.824,1.149c-0.319,0.052-0.638,0.111-0.954,0.174C853.947,1242.976,853.882,1242.982,853.816,1242.982z
					 M860.797,1242.456c-0.016,0-0.031,0-0.048-0.001c-0.323-0.015-0.646-0.025-0.967-0.029c-0.552-0.007-0.994-0.46-0.987-1.012
					c0.007-0.548,0.453-0.988,1-0.988c0.004,0,0.008,0,0.013,0c0.343,0.004,0.688,0.014,1.035,0.031
					c0.552,0.026,0.978,0.494,0.952,1.046C861.769,1242.038,861.327,1242.456,860.797,1242.456z"/>
				<path style="fill:#FFFFFF;" d="M682.815,1273.552c-0.003,0-0.007,0-0.011,0c-0.343-0.003-0.688-0.013-1.035-0.029
					c-0.552-0.025-0.978-0.493-0.954-1.044c0.025-0.552,0.505-0.972,1.044-0.954c0.323,0.015,0.646,0.023,0.967,0.027
					c0.552,0.006,0.995,0.458,0.989,1.01C683.81,1273.111,683.363,1273.552,682.815,1273.552z M687.801,1273.168
					c-0.48,0-0.904-0.347-0.985-0.835c-0.091-0.545,0.277-1.06,0.822-1.151c0.319-0.053,0.637-0.112,0.954-0.176
					c0.542-0.11,1.069,0.241,1.179,0.782c0.109,0.541-0.241,1.069-0.782,1.178c-0.339,0.069-0.68,0.131-1.022,0.188
					C687.91,1273.164,687.856,1273.168,687.801,1273.168z M676.856,1272.87c-0.071,0-0.144-0.007-0.215-0.023
					c-0.34-0.074-0.677-0.155-1.01-0.241c-0.535-0.138-0.858-0.683-0.72-1.218c0.138-0.535,0.691-0.854,1.218-0.719
					c0.312,0.08,0.625,0.155,0.94,0.224c0.54,0.118,0.881,0.651,0.763,1.191C677.729,1272.552,677.315,1272.87,676.856,1272.87z
					 M693.588,1271.569c-0.398,0-0.775-0.241-0.931-0.634c-0.202-0.514,0.051-1.095,0.564-1.297c0.302-0.119,0.6-0.242,0.897-0.371
					c0.506-0.218,1.095,0.014,1.315,0.521c0.219,0.507-0.015,1.096-0.521,1.314c-0.317,0.137-0.637,0.27-0.958,0.396
					C693.834,1271.546,693.71,1271.569,693.588,1271.569z M671.161,1270.977c-0.138,0-0.278-0.028-0.412-0.089
					c-0.315-0.143-0.628-0.292-0.938-0.445c-0.494-0.246-0.696-0.846-0.45-1.34c0.246-0.494,0.845-0.698,1.341-0.451
					c0.288,0.143,0.579,0.282,0.873,0.415c0.503,0.228,0.726,0.821,0.498,1.324C671.905,1270.759,671.542,1270.977,671.161,1270.977
					z M698.915,1268.804c-0.325,0-0.643-0.158-0.836-0.45c-0.304-0.461-0.177-1.082,0.284-1.385c0.271-0.178,0.536-0.36,0.799-0.546
					c0.451-0.319,1.074-0.213,1.394,0.237c0.319,0.45,0.214,1.075-0.236,1.394c-0.282,0.2-0.567,0.395-0.856,0.585
					C699.295,1268.75,699.104,1268.804,698.915,1268.804z M665.989,1267.936c-0.206,0-0.415-0.064-0.594-0.196
					c-0.277-0.206-0.552-0.415-0.821-0.629c-0.433-0.343-0.505-0.973-0.161-1.405c0.343-0.432,0.971-0.505,1.405-0.161
					c0.252,0.2,0.507,0.396,0.767,0.588c0.444,0.329,0.538,0.955,0.209,1.398C666.598,1267.796,666.296,1267.936,665.989,1267.936z
					 M703.553,1264.998c-0.254,0-0.508-0.096-0.703-0.289c-0.393-0.388-0.396-1.021-0.009-1.414c0.227-0.229,0.449-0.462,0.668-0.7
					c0.375-0.406,1.008-0.431,1.413-0.057c0.406,0.375,0.432,1.007,0.058,1.413c-0.234,0.254-0.473,0.503-0.715,0.749
					C704.068,1264.899,703.81,1264.998,703.553,1264.998z M661.565,1263.888c-0.275,0-0.551-0.114-0.748-0.336
					c-0.229-0.259-0.454-0.521-0.674-0.787c-0.352-0.425-0.292-1.056,0.133-1.408c0.428-0.353,1.057-0.292,1.408,0.133
					c0.206,0.248,0.415,0.493,0.629,0.734c0.366,0.414,0.329,1.045-0.085,1.412C662.037,1263.805,661.801,1263.888,661.565,1263.888
					z M707.302,1260.315c-0.185,0-0.372-0.051-0.539-0.158c-0.465-0.298-0.6-0.917-0.302-1.381c0.174-0.271,0.343-0.545,0.508-0.823
					c0.283-0.474,0.898-0.629,1.371-0.348c0.475,0.283,0.63,0.896,0.348,1.371c-0.177,0.296-0.357,0.589-0.543,0.879
					C707.954,1260.153,707.631,1260.315,707.302,1260.315z M658.073,1259.008c-0.348,0-0.685-0.182-0.87-0.505
					c-0.171-0.3-0.336-0.604-0.497-0.909c-0.257-0.489-0.068-1.094,0.421-1.35c0.491-0.259,1.094-0.067,1.35,0.42
					c0.15,0.286,0.305,0.569,0.464,0.85c0.273,0.48,0.105,1.091-0.375,1.364C658.411,1258.966,658.241,1259.008,658.073,1259.008z
					 M709.989,1254.954c-0.117,0-0.235-0.021-0.352-0.064c-0.517-0.194-0.778-0.771-0.585-1.288c0.113-0.301,0.221-0.604,0.323-0.91
					c0.177-0.524,0.745-0.804,1.267-0.63c0.523,0.176,0.806,0.743,0.63,1.266c-0.11,0.329-0.226,0.654-0.347,0.978
					C710.774,1254.707,710.394,1254.954,709.989,1254.954z M655.668,1253.513c-0.424,0-0.817-0.271-0.953-0.697
					c-0.104-0.33-0.204-0.663-0.297-0.998c-0.149-0.532,0.163-1.083,0.694-1.231c0.53-0.147,1.084,0.163,1.232,0.695
					c0.087,0.311,0.179,0.62,0.277,0.926c0.167,0.526-0.123,1.088-0.649,1.256C655.871,1253.497,655.769,1253.513,655.668,1253.513z
					 M712.493,1248.244l-0.996-0.097l-0.984-0.175c0.048-0.326,0.088-0.629,0.123-0.932c0.064-0.548,0.555-0.94,1.108-0.879
					c0.549,0.063,0.942,0.559,0.879,1.108C712.585,1247.594,712.541,1247.918,712.493,1248.244z M711.497,1248.147h0.01H711.497z
					 M654.464,1247.633c-0.51,0-0.946-0.388-0.994-0.906c-0.033-0.343-0.06-0.687-0.081-1.031c-0.034-0.551,0.386-1.026,0.937-1.06
					c0.579-0.035,1.026,0.386,1.06,0.937c0.019,0.323,0.046,0.646,0.075,0.967c0.052,0.55-0.352,1.038-0.901,1.089
					C654.526,1247.631,654.495,1247.633,654.464,1247.633z M711.771,1243.154c-0.525,0-0.966-0.41-0.997-0.942
					c-0.02-0.322-0.044-0.644-0.073-0.963c-0.053-0.55,0.352-1.038,0.901-1.089c0.553-0.05,1.037,0.352,1.089,0.902
					c0.033,0.343,0.06,0.688,0.079,1.034c0.032,0.551-0.389,1.024-0.939,1.057C711.81,1243.153,711.791,1243.154,711.771,1243.154z
					 M654.523,1241.633c-0.037,0-0.074-0.002-0.112-0.006c-0.549-0.062-0.944-0.556-0.883-1.105c0.039-0.343,0.084-0.687,0.136-1.03
					c0.082-0.545,0.592-0.972,1.143-0.892c0.545,0.08,0.931,0.535,0.852,1.081l-0.021,0.13c-0.044,0.298-0.087,0.616-0.122,0.935
					C655.458,1241.255,655.025,1241.633,654.523,1241.633z M710.789,1237.236c-0.438,0-0.839-0.29-0.962-0.732
					c-0.087-0.312-0.179-0.621-0.275-0.929c-0.167-0.527,0.125-1.088,0.652-1.255c0.527-0.165,1.09,0.126,1.254,0.653
					c0.104,0.329,0.202,0.661,0.295,0.995c0.148,0.532-0.163,1.083-0.694,1.231C710.969,1237.224,710.878,1237.236,710.789,1237.236
					z M655.849,1235.677c-0.106,0-0.214-0.017-0.32-0.053c-0.523-0.177-0.804-0.745-0.627-1.268
					c0.111-0.328,0.227-0.653,0.349-0.975c0.193-0.517,0.769-0.777,1.288-0.584c0.517,0.195,0.778,0.771,0.583,1.288
					c-0.113,0.301-0.222,0.605-0.325,0.912C656.654,1235.415,656.266,1235.677,655.849,1235.677z M708.59,1231.653
					c-0.361,0-0.71-0.196-0.888-0.539c-0.148-0.285-0.302-0.567-0.461-0.846c-0.274-0.479-0.107-1.09,0.372-1.365
					c0.481-0.274,1.091-0.108,1.364,0.372c0.173,0.302,0.338,0.607,0.498,0.915c0.255,0.49,0.064,1.094-0.425,1.349
					C708.903,1231.616,708.745,1231.653,708.59,1231.653z M658.354,1230.227c-0.174,0-0.351-0.046-0.511-0.141
					c-0.475-0.283-0.63-0.897-0.348-1.371c0.177-0.296,0.358-0.589,0.544-0.878c0.298-0.465,0.916-0.601,1.382-0.301
					c0.465,0.298,0.6,0.917,0.302,1.382c-0.174,0.271-0.344,0.544-0.509,0.822C659.027,1230.053,658.695,1230.227,658.354,1230.227z
					 M705.276,1226.649c-0.289,0-0.575-0.124-0.773-0.365c-0.204-0.248-0.413-0.492-0.626-0.733
					c-0.366-0.413-0.329-1.045,0.085-1.412c0.412-0.366,1.044-0.329,1.411,0.085c0.231,0.259,0.455,0.523,0.675,0.79
					c0.35,0.427,0.289,1.057-0.137,1.407C705.725,1226.574,705.5,1226.649,705.276,1226.649z M661.946,1225.424
					c-0.244,0-0.488-0.088-0.681-0.267c-0.404-0.376-0.428-1.009-0.052-1.413c0.235-0.253,0.474-0.502,0.717-0.747
					c0.39-0.392,1.022-0.393,1.414-0.004c0.392,0.389,0.394,1.022,0.004,1.414c-0.227,0.229-0.45,0.462-0.67,0.698
					C662.481,1225.317,662.214,1225.424,661.946,1225.424z M701,1222.44c-0.218,0-0.438-0.071-0.622-0.218
					c-0.252-0.201-0.508-0.397-0.767-0.589c-0.443-0.329-0.535-0.956-0.206-1.399c0.33-0.443,0.955-0.536,1.399-0.207
					c0.276,0.205,0.55,0.416,0.819,0.63c0.432,0.344,0.503,0.973,0.159,1.405C701.586,1222.311,701.295,1222.44,701,1222.44z
					 M666.458,1221.469c-0.314,0-0.622-0.147-0.816-0.422c-0.319-0.451-0.214-1.075,0.237-1.394c0.282-0.2,0.568-0.395,0.857-0.585
					c0.462-0.302,1.081-0.175,1.385,0.287c0.303,0.462,0.175,1.082-0.287,1.385c-0.269,0.177-0.536,0.358-0.799,0.545
					C666.859,1221.409,666.658,1221.469,666.458,1221.469z M695.945,1219.213c-0.15,0-0.303-0.034-0.446-0.106
					c-0.287-0.144-0.578-0.282-0.871-0.416c-0.503-0.229-0.725-0.822-0.496-1.324c0.231-0.503,0.823-0.725,1.324-0.496
					c0.316,0.144,0.629,0.293,0.938,0.447c0.494,0.247,0.694,0.848,0.447,1.342C696.665,1219.01,696.313,1219.213,695.945,1219.213z
					 M671.69,1218.531c-0.388,0-0.756-0.226-0.919-0.604c-0.219-0.507,0.015-1.095,0.521-1.315c0.317-0.137,0.638-0.269,0.96-0.395
					c0.516-0.2,1.095,0.053,1.296,0.567c0.201,0.514-0.053,1.094-0.567,1.296c-0.301,0.117-0.6,0.24-0.896,0.368
					C671.956,1218.504,671.821,1218.531,671.69,1218.531z M690.327,1217.111c-0.083,0-0.167-0.01-0.251-0.032
					c-0.312-0.08-0.624-0.156-0.941-0.226c-0.539-0.12-0.879-0.654-0.76-1.193c0.119-0.539,0.644-0.881,1.193-0.76
					c0.339,0.075,0.675,0.156,1.008,0.242c0.535,0.138,0.856,0.684,0.718,1.218C691.178,1216.812,690.771,1217.111,690.327,1217.111
					z M677.415,1216.74c-0.467,0-0.885-0.329-0.979-0.804c-0.108-0.542,0.242-1.068,0.784-1.177c0.34-0.068,0.68-0.13,1.022-0.187
					c0.544-0.089,1.06,0.28,1.148,0.824c0.09,0.545-0.279,1.06-0.824,1.149c-0.319,0.052-0.638,0.111-0.954,0.174
					C677.546,1216.734,677.481,1216.74,677.415,1216.74z M684.396,1216.214c-0.016,0-0.031,0-0.048-0.001
					c-0.323-0.015-0.646-0.025-0.967-0.029c-0.552-0.007-0.994-0.46-0.987-1.012c0.007-0.548,0.453-0.988,1-0.988
					c0.004,0,0.008,0,0.013,0c0.343,0.004,0.688,0.014,1.035,0.031c0.552,0.026,0.977,0.494,0.952,1.046
					C685.368,1215.796,684.926,1216.214,684.396,1216.214z"/>
			</g>
			<path style="fill:#E6D0BE;" d="M475.545,1609.392c11.005,0,19.927-8.921,19.927-19.927v-52.867
				c0-11.005-8.921-19.927-19.927-19.927c-11.005,0-19.927,8.921-19.927,19.927v52.867
				C455.618,1600.471,464.54,1609.392,475.545,1609.392z"/>
			<g>
				<polygon style="fill:#363E44;" points="1059.446,1177.854 913.332,1117.646 942.559,966.51 968.826,1091.003 				"/>
				<polygon style="fill:#363E44;" points="1150.335,899.244 1003.663,852.417 932.25,991.593 1030.246,907.94 				"/>
				<path style="fill:#363E44;" d="M466.965,1560.081c-0.446,0-0.854-0.302-0.969-0.755
					c-29.076-114.737-14.462-234.75,41.152-337.931c41.326-76.673,103.415-140.22,179.553-183.772
					c75.302-43.073,160.773-64.649,247.163-62.402c0.552,0.014,0.987,0.474,0.974,1.026c-0.015,0.552-0.515,0.98-1.026,0.973
					c-175.402-4.558-342.18,91.649-424.903,245.124c-55.375,102.739-69.927,222.24-40.973,336.491
					c0.136,0.535-0.188,1.079-0.724,1.215C467.129,1560.071,467.047,1560.081,466.965,1560.081z"/>
				<path style="fill:#E6D0BE;" d="M902.864,997.258l17.483-54.494c2.785-8.682,12.081-13.461,20.763-10.676
					c8.682,2.785,13.461,12.081,10.676,20.763l-17.483,54.494c-2.785,8.682-12.081,13.461-20.763,10.676
					C904.859,1015.236,900.079,1005.94,902.864,997.258z"/>
			</g>
		</g>
		<g>
			<g>
				<path style="fill:#D87355;" d="M1584.36,1929.169c-31.372,79.409-85.936,96.464-155.264,89.22
					c26.669-99.396,144.247-108.204,144.247-108.204L1584.36,1929.169z"/>
				<path style="fill:#D87355;" d="M1454.385,1705.199c-84.511-12.159-126.391,26.754-154.497,90.541
					c99.532,26.159,165.514-71.558,165.514-71.558L1454.385,1705.199z"/>
			</g>
			<path style="fill:#D87355;" d="M1429.146,1795.176c0,0-122.336,17.534-134.9,163.967c0,0,27.863-20.076,68.345-10.294
				c59.427,14.36,101.383-5.389,129.687-44.886L1429.146,1795.176z"/>
			<path style="fill:#EFBC73;" d="M1952.315,1681.307c42.67-54.291,61.509-93.564,71.937-150.702
				c-62.507-23.439-98.229-22.422-166.537-12.31l47.299,81.506L1952.315,1681.307z"/>
			<path style="fill:#EFBC73;" d="M1923.464,1708.397l4.75-5.232l-101.433-174.787l-6.9,1.529
				c-107.282,23.764-243.6,83.281-338.638,138.434l-18.875,10.953l154.015,265.395l18.875-10.954
				C1730.296,1878.582,1849.604,1789.752,1923.464,1708.397z"/>
			<g>
				<path style="fill:#363E44;" d="M1471.617,2025.007c-8.644,0-17.808-0.514-27.563-1.534c-0.292-0.03-0.555-0.187-0.721-0.428
					s-0.218-0.543-0.142-0.826c13.878-51.725,52.623-78.596,82.682-92.03c32.512-14.529,62.161-16.89,62.457-16.912
					c0.373-0.032,0.747,0.164,0.939,0.495l11.017,18.984c0.153,0.265,0.177,0.585,0.064,0.869
					c-15.047,38.088-35.94,63.481-63.876,77.63C1518.218,2020.503,1497.199,2025.007,1471.617,2025.007z M1445.433,2021.604
					c79.369,7.991,125.154-18.46,152.88-88.263l-10.453-18.014c-4.41,0.421-31.615,3.469-61.228,16.714
					C1497.213,1945.201,1459.359,1971.403,1445.433,2021.604z"/>
				<path style="fill:#363E44;" d="M1348.476,1805.232c-10.731,0-22.018-1.342-33.78-4.434c-0.283-0.075-0.52-0.269-0.646-0.533
					c-0.128-0.264-0.133-0.57-0.015-0.838c15.66-35.541,33.602-59.113,56.462-74.183c26.145-17.235,58.555-22.779,99.093-16.946
					c0.303,0.043,0.568,0.223,0.723,0.488l11.017,18.983c0.192,0.332,0.178,0.744-0.036,1.062
					c-0.166,0.246-16.926,24.817-45.671,45.836C1415.08,1789.689,1384.995,1805.232,1348.476,1805.232z M1316.341,1799.158
					c50.502,12.816,92.028-7.051,118.049-26.066c26.192-19.139,42.335-41.247,44.889-44.867l-10.453-18.013
					C1394.456,1699.652,1348.781,1726.285,1316.341,1799.158z"/>
			</g>
			<g>
				
					<ellipse transform="matrix(0.1008 -0.9949 0.9949 0.1008 -139.9287 3250.1079)" style="fill:#D87355;" cx="1728.104" cy="1702.467" rx="97.973" ry="97.973"/>
				<path style="fill:#363E44;" d="M1728.223,1774.035c-6.163,0-12.364-0.803-18.479-2.427
					c-18.468-4.905-33.921-16.708-43.512-33.234s-12.172-35.799-7.268-54.268c4.904-18.468,16.707-33.921,33.234-43.512
					c16.527-9.592,35.8-12.172,54.268-7.268s33.921,16.707,43.512,33.234c19.799,34.117,8.15,77.981-25.967,97.78
					C1752.956,1770.756,1740.671,1774.035,1728.223,1774.035z M1727.99,1632.9c-12.103,0-24.042,3.187-34.788,9.423
					c-16.065,9.323-27.538,24.344-32.306,42.296c-4.767,17.952-2.258,36.685,7.065,52.75c9.322,16.065,24.343,27.538,42.294,32.305
					c17.953,4.767,36.686,2.259,52.751-7.064c33.163-19.246,44.486-61.883,25.24-95.046c-9.322-16.065-24.343-27.538-42.295-32.305
					C1740.009,1633.681,1733.979,1632.9,1727.99,1632.9z M1763.509,1763.476h0.01H1763.509z"/>
			</g>
			<path style="fill:#363E44;" d="M1942.113,1696.099c-0.345,0-0.681-0.178-0.866-0.498l-101.434-174.787
				c-0.277-0.478-0.114-1.09,0.363-1.367c0.481-0.278,1.092-0.115,1.367,0.363l101.434,174.787c0.277,0.478,0.114,1.09-0.363,1.367
				C1942.456,1696.055,1942.283,1696.099,1942.113,1696.099z"/>
			<path style="fill:#363E44;" d="M1531.839,1910.159c-0.086,0-0.172-0.011-0.257-0.034c-0.256-0.068-0.475-0.235-0.608-0.464
				l-80.567-138.833c-0.277-0.478-0.114-1.09,0.363-1.367l40.094-23.268c0.23-0.134,0.499-0.17,0.759-0.102
				c0.256,0.068,0.475,0.235,0.608,0.464l80.567,138.833c0.277,0.478,0.114,1.09-0.363,1.367l-40.094,23.268
				C1532.187,1910.113,1532.014,1910.159,1531.839,1910.159z M1452.639,1770.689l79.563,137.104l38.363-22.264l-79.563-137.104
				L1452.639,1770.689z"/>
			<path style="fill:#363E44;" d="M1309.307,1964.232c-0.17,0-0.34-0.043-0.494-0.131c-0.339-0.193-0.535-0.565-0.502-0.955
				c2.879-33.552,11.8-63.1,26.516-87.822c11.783-19.794,27.281-36.551,46.066-49.805c31.98-22.565,62.864-27.2,63.173-27.244
				c0.401-0.059,0.802,0.136,1.007,0.488l63.132,108.787c0.197,0.34,0.177,0.765-0.053,1.084
				c-31.156,43.476-75.135,58.709-130.735,45.275c-39.53-9.554-67.25,9.935-67.525,10.133
				C1309.717,1964.169,1309.513,1964.232,1309.307,1964.232z M1443.688,1800.365c-4.622,0.801-32.699,6.343-61.718,26.843
				c-28.869,20.393-64.563,60.168-71.485,134.078c6.8-4.136,32.66-17.712,67.401-9.318c54.5,13.171,97.649-1.625,128.262-43.972
				L1443.688,1800.365z"/>
			<g>
				<path style="fill:#363E44;" d="M1255.951,2074.959c-0.345,0-0.681-0.178-0.866-0.498c-0.277-0.478-0.114-1.09,0.363-1.367
					l145.235-84.284c0.479-0.277,1.091-0.114,1.367,0.363c0.277,0.478,0.114,1.09-0.363,1.367l-145.235,84.284
					C1256.294,2074.916,1256.121,2074.959,1255.951,2074.959z"/>
				<path style="fill:#363E44;" d="M1342.041,2068.156c-0.345,0-0.681-0.178-0.866-0.498c-0.277-0.478-0.114-1.09,0.363-1.367
					l56.943-33.046c0.481-0.277,1.09-0.115,1.367,0.363s0.114,1.09-0.363,1.367l-56.943,33.046
					C1342.384,2068.112,1342.211,2068.156,1342.041,2068.156z"/>
				<path style="fill:#363E44;" d="M1222.071,1888.176c-0.345,0-0.681-0.178-0.866-0.498c-0.277-0.478-0.114-1.09,0.363-1.367
					l97.907-56.818c0.479-0.278,1.091-0.114,1.367,0.363c0.277,0.478,0.114,1.09-0.363,1.367l-97.907,56.818
					C1222.414,1888.133,1222.241,1888.176,1222.071,1888.176z"/>
				<path style="fill:#363E44;" d="M1265.077,1838.369c-0.345,0-0.681-0.178-0.866-0.498c-0.277-0.478-0.114-1.09,0.363-1.367
					l39.504-22.925c0.479-0.277,1.09-0.115,1.367,0.363s0.114,1.09-0.363,1.367l-39.504,22.925
					C1265.42,1838.326,1265.247,1838.369,1265.077,1838.369z"/>
				<path style="fill:#363E44;" d="M1146.798,2019.525c-0.345,0-0.681-0.178-0.866-0.498c-0.277-0.478-0.114-1.09,0.363-1.367
					l130.206-75.562c0.481-0.278,1.092-0.114,1.367,0.363c0.277,0.478,0.114,1.09-0.363,1.367l-130.206,75.562
					C1147.141,2019.481,1146.968,2019.525,1146.798,2019.525z"/>
				<path style="fill:#363E44;" d="M1173.046,1976.952c-0.345,0-0.681-0.178-0.866-0.498c-0.277-0.478-0.114-1.09,0.363-1.367
					l67.65-39.259c0.479-0.277,1.091-0.114,1.367,0.363c0.277,0.478,0.114,1.09-0.363,1.367l-67.65,39.259
					C1173.389,1976.909,1173.216,1976.952,1173.046,1976.952z"/>
			</g>
		</g>
	</g>
</g>
</svg>
