<?xml version="1.0" encoding="utf-8"?>
<!-- Generator: Adobe Illustrator 27.5.0, SVG Export Plug-In . SVG Version: 6.00 Build 0)  -->
<svg version="1.1" xmlns="http://www.w3.org/2000/svg" xmlns:xlink="http://www.w3.org/1999/xlink" x="0px" y="0px"
	 viewBox="0 0 2500 2500" style="enable-background:new 0 0 2500 2500;" xml:space="preserve">
-
<g id="Illustration">
	<g id="Digital_presentation_1_">
		<circle style="fill:transparent;" cx="1250" cy="1250" r="915"/>
		<g>
			<g>
				
					<rect x="505.8" y="337.493" transform="matrix(-1 -1.224647e-16 1.224647e-16 -1 2639.2336 1829.1573)" style="fill:#E6D0BE;" width="1627.633" height="1154.171"/>
				
					<rect x="843.061" y="102.363" transform="matrix(-1.836970e-16 1 -1 -1.836970e-16 2184.731 -454.5025)" style="fill:#F7F1EB;" width="953.111" height="1525.503"/>
				<path style="fill:#E6D0BE;" d="M1148.286,1516.119h48.187l0,0c0,36.147,29.303,65.45,65.45,65.45h115.388
					c36.147,0,65.45-29.303,65.45-65.45l0,0h48.185l48.187,256.08v21.416h-439.035v-21.416L1148.286,1516.119z"/>
				<path style="fill:#E6D0BE;" d="M1539.134,1822.59h-439.035c-1.218,0-2.205-0.986-2.205-2.205s0.987-2.205,2.205-2.205h439.035
					c1.218,0,2.205,0.986,2.205,2.205S1540.351,1822.59,1539.134,1822.59z"/>
			</g>
			<g>
				<g>
					<path style="fill:#E6D0BE;" d="M1093.749,1248.48h-465.42c-1.218,0-2.205-0.986-2.205-2.205V895.326
						c0-1.219,0.987-2.205,2.205-2.205s2.205,0.986,2.205,2.205v348.745h463.216c1.218,0,2.205,0.986,2.205,2.205
						S1094.966,1248.48,1093.749,1248.48z"/>
					<g>
						<path style="fill:#E6D0BE;" d="M971.471,1011.742c-0.75,0-1.481-0.383-1.895-1.074c-0.624-1.044-0.284-2.399,0.761-3.023
							l63.521-37.962c1.047-0.624,2.398-0.284,3.024,0.762c0.624,1.044,0.284,2.399-0.761,3.023l-63.521,37.962
							C972.247,1011.641,971.856,1011.742,971.471,1011.742z"/>
						<path style="fill:#E6D0BE;" d="M931.251,1001.592c-0.718,0-1.421-0.349-1.845-0.995l-86.063-131.023
							c-0.669-1.018-0.385-2.384,0.633-3.053c1.018-0.668,2.383-0.385,3.053,0.633l86.063,131.023
							c0.669,1.018,0.385,2.384-0.633,3.053C932.086,1001.476,931.666,1001.592,931.251,1001.592z"/>
						<path style="fill:#E6D0BE;" d="M740.839,916.545c-0.659,0-1.311-0.295-1.746-0.857c-0.744-0.965-0.566-2.349,0.397-3.092
							l66.862-51.654c0.964-0.743,2.346-0.566,3.093,0.396c0.744,0.965,0.566,2.349-0.397,3.092l-66.862,51.654
							C741.784,916.394,741.31,916.545,740.839,916.545z"/>
						<path style="fill:#E6D0BE;" d="M719.153,961.374c-16.418,0-29.775-13.356-29.775-29.774c0-16.418,13.357-29.776,29.775-29.776
							c16.419,0,29.776,13.358,29.776,29.776C748.929,948.018,735.572,961.374,719.153,961.374z M719.153,906.234
							c-13.987,0-25.365,11.379-25.365,25.366c0,13.987,11.378,25.364,25.365,25.364c13.987,0,25.366-11.377,25.366-25.364
							C744.519,917.613,733.14,906.234,719.153,906.234z"/>
						<path style="fill:#E6D0BE;" d="M830.31,875.599c-16.418,0-29.775-13.356-29.775-29.774c0-16.418,13.357-29.776,29.775-29.776
							c16.419,0,29.776,13.358,29.776,29.776C860.086,862.243,846.729,875.599,830.31,875.599z M830.31,820.459
							c-13.987,0-25.365,11.379-25.365,25.366c0,13.987,11.378,25.364,25.365,25.364s25.366-11.377,25.366-25.364
							C855.677,831.838,844.297,820.459,830.31,820.459z"/>
						<path style="fill:#E6D0BE;" d="M947.184,1052.501c-16.418,0-29.775-13.358-29.775-29.776s13.357-29.774,29.775-29.774
							c16.419,0,29.776,13.356,29.776,29.774S963.603,1052.501,947.184,1052.501z M947.184,997.361
							c-13.987,0-25.365,11.377-25.365,25.364c0,13.987,11.378,25.366,25.365,25.366c13.987,0,25.366-11.379,25.366-25.366
							C972.55,1008.738,961.171,997.361,947.184,997.361z"/>
						<path style="fill:#E6D0BE;" d="M1059.226,988.197c-16.419,0-29.776-13.358-29.776-29.776
							c0-16.418,13.357-29.774,29.776-29.774c16.418,0,29.775,13.356,29.775,29.774
							C1089.001,974.839,1075.644,988.197,1059.226,988.197z M1059.226,933.058c-13.987,0-25.366,11.377-25.366,25.364
							c0,13.987,11.379,25.366,25.366,25.366s25.365-11.379,25.365-25.366C1084.591,944.435,1073.213,933.058,1059.226,933.058z"/>
					</g>
					<rect x="686.574" y="1002.97" style="fill:#E6D0BE;" width="68.567" height="188.008"/>
					<rect x="799.727" y="965.516" style="fill:#E6D0BE;" width="68.567" height="225.463"/>
					<rect x="912.88" y="1069.481" style="fill:#E6D0BE;" width="68.567" height="121.497"/>
					<rect x="1026.033" y="1034.593" style="fill:#E6D0BE;" width="68.567" height="156.385"/>
				</g>
				<g>
					<g>
						<path style="fill:#FFFFFF;" d="M1831.368,1250.704c-44.302,7.305-88.797-3.079-125.289-29.24
							c-36.492-26.16-60.612-64.966-67.917-109.268c-7.305-44.302,3.079-88.798,29.24-125.289
							c26.16-36.492,64.966-60.612,109.268-67.917c44.302-7.305,88.797,3.079,125.29,29.24
							c36.492,26.161,60.612,64.967,67.917,109.269c7.305,44.302-3.079,88.798-29.24,125.289
							C1914.476,1219.278,1875.67,1243.398,1831.368,1250.704z M1785.306,971.362c-62.575,10.318-105.09,69.622-94.771,132.197
							c10.318,62.576,69.622,105.09,132.198,94.771c62.576-10.318,105.09-69.622,94.771-132.198
							C1907.185,1003.557,1847.881,961.043,1785.306,971.362z"/>
						<path style="fill:#FFFFFF;" d="M1830.289,1244.157c-42.553,7.017-85.292-2.957-120.344-28.085
							c-35.052-25.128-58.22-62.402-65.237-104.956c-7.017-42.553,2.957-85.292,28.085-120.344
							c25.128-35.052,62.402-58.22,104.955-65.237c42.554-7.017,85.293,2.957,120.344,28.085
							c35.052,25.128,58.219,62.402,65.236,104.955c7.017,42.554-2.957,85.293-28.085,120.344
							C1910.116,1213.972,1872.842,1237.14,1830.289,1244.157z M1784.226,964.815c-66.185,10.914-111.152,73.638-100.238,139.824
							c10.914,66.186,73.638,111.152,139.823,100.239c66.185-10.914,111.152-73.638,100.239-139.824
							S1850.412,953.901,1784.226,964.815z"/>
						<g>
							<path style="fill:#D87355;" d="M1815.558,963.736c50.532,4.825,94.042,41.181,106.552,91.887l39.367-6.491
								c-8.704-38.607-30.952-72.26-63.383-95.51c-24.451-17.528-52.643-27.672-81.902-29.83L1815.558,963.736z"/>
							<path style="fill:#ff6900;" d="M1925.241,1074.608c5.329,62.566-38.438,119.883-101.429,130.27
								c-33.071,5.453-65.278-3.046-90.589-21.172l-25.76,30.541c0.822,0.613,1.646,1.226,2.482,1.825
								c35.052,25.128,77.79,35.102,120.344,28.085c42.554-7.017,79.828-30.185,104.956-65.237
								c23.25-32.432,33.515-71.446,29.363-110.804L1925.241,1074.608z"/>
							<path style="fill:#EFBC73;" d="M1725.094,992.312c16.296-13.945,36.469-23.76,59.132-27.497
								c4.048-0.667,8.082-1.123,12.093-1.38l0.632-39.912c-6.387,0.292-12.797,0.956-19.202,2.013
								c-30.544,5.037-58.368,18.396-80.933,38.497L1725.094,992.312z"/>
							<path style="fill:#F7F1EB;" d="M1672.794,990.772c-25.128,35.051-35.103,77.79-28.085,120.344
								c5.794,35.14,22.611,66.672,48.03,90.745l25.773-30.557c-17.664-17.424-30.187-40.366-34.523-66.665
								c-6.055-36.719,5.097-72.367,27.522-98.7l-28.268-28.269C1679.564,981.831,1676.073,986.197,1672.794,990.772z"/>
						</g>
					</g>
					<g>
						<path style="fill:#ff6900;" d="M1803.518,1126.47c-22.95,0-41.622-18.672-41.622-41.625c0-22.95,18.672-41.622,41.622-41.622
							c22.951,0,41.623,18.672,41.623,41.622C1845.142,1107.798,1826.47,1126.47,1803.518,1126.47z M1803.518,1047.633
							c-20.52,0-37.213,16.693-37.213,37.213c0,20.519,16.693,37.215,37.213,37.215c20.519,0,37.214-16.696,37.214-37.215
							C1840.732,1064.326,1824.038,1047.633,1803.518,1047.633z"/>
					</g>
				</g>
				<g>
					<g>
						<path style="fill:#FFFFFF;" d="M1574.094,1068.977c4.239,44.7-9.183,88.375-37.794,122.979
							c-28.61,34.605-68.984,55.997-113.684,60.236c-44.7,4.239-88.375-9.183-122.98-37.794
							c-34.605-28.61-55.997-68.984-60.235-113.684c-4.239-44.7,9.183-88.375,37.793-122.98
							c28.611-34.605,68.984-55.997,113.684-60.236c44.7-4.239,88.375,9.183,122.98,37.794
							C1548.463,983.903,1569.855,1024.277,1574.094,1068.977z M1292.244,1095.704c5.987,63.137,62.224,109.632,125.361,103.645
							c63.137-5.987,109.633-62.224,103.646-125.361c-5.987-63.137-62.224-109.632-125.361-103.645
							C1332.752,976.33,1286.257,1032.567,1292.244,1095.704z"/>
						<path style="fill:#FFFFFF;" d="M1567.488,1069.604c4.071,42.935-8.821,84.886-36.302,118.125
							c-27.481,33.239-66.261,53.787-109.197,57.858c-42.936,4.071-84.886-8.821-118.125-36.302
							c-33.239-27.481-53.787-66.261-57.858-109.197c-4.072-42.936,8.821-84.887,36.302-118.126
							c27.481-33.239,66.261-53.786,109.197-57.858c42.936-4.071,84.887,8.821,118.126,36.302
							C1542.869,987.888,1563.417,1026.668,1567.488,1069.604z M1285.638,1096.33c6.333,66.78,65.813,115.957,132.593,109.624
							c66.78-6.333,115.957-65.813,109.624-132.593c-6.333-66.78-65.813-115.957-132.593-109.625
							C1328.483,970.07,1279.306,1029.551,1285.638,1096.33z"/>
						<g>
							<path style="fill:#D87355;" d="M1286.718,1064.998c8.292-50.08,47.557-90.985,99.002-99.975l-3.766-39.72
								c-39.115,6.026-74.219,25.905-99.646,56.659c-19.17,23.186-31.23,50.614-35.396,79.655L1286.718,1064.998z"/>
							<path style="fill:#EFBC73;" d="M1404.876,963.207c62.784-1.01,116.953,46.598,122.979,110.155
								c3.164,33.368-7.532,64.913-27.357,88.917l28.696,27.801c0.669-0.778,1.336-1.557,1.992-2.35
								c27.481-33.239,40.373-75.19,36.302-118.125c-4.071-42.936-24.619-81.716-57.858-109.197
								c-30.755-25.427-68.969-38.353-108.52-36.92L1404.876,963.207z"/>
							<path style="fill:#ff6900;" d="M1309,1157.215c-12.791-17.217-21.193-38.018-23.361-60.884
								c-0.387-4.084-0.564-8.14-0.545-12.159l-39.774-3.378c-0.148,6.392,0.073,12.832,0.686,19.295
								c2.922,30.819,14.335,59.496,32.835,83.391L1309,1157.215z"/>
							<path style="fill:#E6D0BE;" d="M1303.864,1209.285c33.239,27.481,75.19,40.373,118.125,36.302
								c35.455-3.362,68.07-17.969,93.835-41.671l-28.71-27.815c-18.598,16.423-42.348,27.336-68.883,29.853
								c-37.049,3.513-71.845-10.066-96.571-34.25l-30.148,26.255C1295.41,1201.915,1299.526,1205.699,1303.864,1209.285z"/>
						</g>
					</g>
					<g>
						<path style="fill:#ff6900;" d="M1406.775,1126.972c-0.972,0-1.949-0.034-2.927-0.101
							c-22.896-1.58-40.239-21.495-38.659-44.389c0.764-11.093,5.803-21.221,14.187-28.525c8.384-7.301,19.105-10.895,30.201-10.137
							c11.092,0.766,21.221,5.805,28.524,14.189c7.301,8.384,10.901,19.109,10.136,30.2c-0.765,11.093-5.804,21.224-14.188,28.525
							C1426.405,1123.391,1416.814,1126.972,1406.775,1126.972z M1406.657,1048.13c-8.978,0-17.55,3.2-24.385,9.153
							c-7.495,6.528-12,15.584-12.684,25.5c-1.412,20.472,14.092,38.274,34.563,39.687c9.904,0.683,19.505-2.534,27.001-9.063
							c7.496-6.528,12.001-15.584,12.685-25.5c0.684-9.917-2.534-19.507-9.063-27.003s-15.586-12.002-25.502-12.684
							C1408.399,1048.16,1407.525,1048.13,1406.657,1048.13z"/>
					</g>
				</g>
				<g>
					<path style="fill:#ff6900;" d="M1142.208,698.625H622.461c-1.218,0-2.205-0.986-2.205-2.205V562.678
						c0-1.219,0.987-2.205,2.205-2.205h519.747c1.218,0,2.205,0.986,2.205,2.205v133.742
						C1144.413,697.639,1143.426,698.625,1142.208,698.625z M624.666,694.216h515.338V564.883H624.666V694.216z"/>
					<g>
						<path style="fill:#EFBC73;" d="M1077.959,518.667c-22.165-6.718-24.79-39.476-43.278-39.009
							c-45.78,1.155-66.565,144.046-101.284,142.159c-28.661-1.558-33.354-99.956-66.545-103.149
							c-35.427-3.409-60.408,105.776-98.669,103.149c-33.597-2.306-32.257-87.722-91.785-116.317
							c-10.001-4.804-20.482-7.404-30.991-8.434V668.77h473.856V507.11C1101.379,519.396,1088.07,521.732,1077.959,518.667z"/>
					</g>
				</g>
				<g>
					<path style="fill:#E6D0BE;" d="M1925.682,810.343h-606.066c-1.218,0-2.205-0.986-2.205-2.205v-318.65
						c0-1.219,0.987-2.205,2.205-2.205h606.066c1.218,0,2.205,0.986,2.205,2.205v318.65
						C1927.887,809.357,1926.9,810.343,1925.682,810.343z M1321.821,805.934h601.656V491.693h-601.656V805.934z"/>
					<g>
						<rect x="1414.472" y="567.732" style="fill:#E6D0BE;" width="221.814" height="189.954"/>
						<rect x="1387.972" y="541.231" style="fill:#FFFFFF;" width="221.814" height="189.954"/>
						<g>
							<path style="fill:#E6D0BE;" d="M1859.789,569.493h-198.505c-1.218,0-2.205-0.986-2.205-2.205
								c0-1.219,0.987-2.205,2.205-2.205h198.505c1.218,0,2.205,0.986,2.205,2.205
								C1861.994,568.507,1861.006,569.493,1859.789,569.493z"/>
							<path style="fill:#E6D0BE;" d="M1817.628,610.179h-156.344c-1.218,0-2.205-0.986-2.205-2.205
								c0-1.219,0.987-2.205,2.205-2.205h156.344c1.218,0,2.205,0.986,2.205,2.205
								C1819.833,609.192,1818.845,610.179,1817.628,610.179z"/>
							<path style="fill:#E6D0BE;" d="M1843.978,647.032h-182.694c-1.218,0-2.205-0.986-2.205-2.205
								c0-1.219,0.987-2.205,2.205-2.205h182.694c1.218,0,2.205,0.986,2.205,2.205
								C1846.183,646.046,1845.196,647.032,1843.978,647.032z"/>
							<path style="fill:#E6D0BE;" d="M1786.965,685.799h-125.681c-1.218,0-2.205-0.986-2.205-2.205s0.987-2.205,2.205-2.205
								h125.681c1.218,0,2.205,0.986,2.205,2.205S1788.183,685.799,1786.965,685.799z"/>
						</g>
					</g>
					<g>
						<path style="fill:#EFBC73;" d="M1472.758,598.574c3.482-1.741,7.093-2.951,10.74-3.663l-1.383-19.751
							c-6.169,0.952-12.294,2.858-18.168,5.796c-14.269,7.136-24.572,19.087-29.929,32.907l18.987,5.59
							C1456.801,610.693,1463.572,603.168,1472.758,598.574z"/>
						<path style="fill:#EFBC73;" d="M1451.918,650.251c-2.433-6.853-2.973-14.025-1.839-20.871l-18.987-5.59
							c-2.376,11.518-1.498,23.779,3.119,35.317L1451.918,650.251z"/>
						<path style="fill:#D87355;" d="M1548.944,613.3l-17.707,8.855c7,19.718-1.658,42.085-20.84,51.678
							s-42.272,3.104-53.849-14.325l-17.707,8.856c16.515,27.126,51.462,37.542,80.367,23.087
							C1548.112,676.995,1560.741,642.785,1548.944,613.3z"/>
						<path style="fill:#EFBC73;" d="M1493.824,594.2c12.964,0.715,25.287,7.413,32.783,18.699l17.707-8.856
							c-11.286-18.538-31.18-29.27-51.873-29.594L1493.824,594.2z"/>
					</g>
				</g>
			</g>
		</g>
		<g>
			<g>
				<g>
					<polygon style="fill:#BC8271;" points="782.969,1997.399 660.195,1973.068 713.534,1816.784 832.837,1860.123 					"/>
					<path style="fill:#84524D;" d="M925.563,2127.626l-312.535-85.718l61.546-111.583l122.44,33.581l81.132,51.292
						C918.315,2038.852,937.721,2084.865,925.563,2127.626L925.563,2127.626z"/>
				</g>
				<g>
					<polygon style="fill:#BC8271;" points="531.982,2019.677 405.353,2027.326 417.001,1862.601 545.17,1874.222 					"/>
					<path style="fill:#84524D;" d="M702.598,2106.028H378.521l29.841-123.887h126.961l91.81,28.006
						C672.127,2022.333,703.013,2061.574,702.598,2106.028L702.598,2106.028z"/>
				</g>
				<g>
					<path style="fill:#363E44;" d="M487.05,1112.831c-13.375,35.154-23.074,75.107-35.84,117.474
						c-67.655,224.531-58.072,699.746-58.072,699.746l167.282-4.188c0,0,62.389-275.869,90.089-479.84
						c22.663,54.14,65.472,142.66,65.472,142.66s-27.7,205.229-41.549,269.442c55.399,21.404,110.169,32.736,178.159,51.622
						c81.42-272.8,98.82-310.859,64.842-414.236c-43.772-133.177-154.417-374.623-191.455-426.484
						C646.337,1083.628,566.693,1098.23,487.05,1112.831z"/>
				</g>
			</g>
			<g>
				<g>
					<g>
						<path style="fill:#BC8271;" d="M856.785,822.535c52.25-17.394,170.425-56.872,182.421-60.995
							c22.426-7.707,131.672-43.963,137.144-28.156c3.496,10.098-50.764,29.243-59.951,33.319
							c11.938-1.976,71.168-21.64,75.266-12.787c4.447,9.607-68.778,41.313-69.274,41.718c8.275-2.425,68.602-21.446,71.078-12.548
							c2.873,10.327-58.046,35.593-68.184,39.151c1.198,0.942,44.425-15.472,48.577-5.802c3.699,8.615-44.837,29.343-51.111,33.176
							c-16.679,9.547-49.219,22.637-85.414,39.367c-85.009,39.293-126.335,53.853-170.784,65.602
							c-32.021,8.464-68.711-20.298-93.784-51.035C793.588,870.585,814.277,855.861,856.785,822.535z"/>
						<path style="fill:#363E44;" d="M1070.684,801.675c-0.962,0-1.847-0.635-2.121-1.606c-0.331-1.173,0.352-2.39,1.524-2.721
							c51.587-14.536,51.276-21.448,51.266-21.514c-0.033-0.25-1.345-6.108-47.015-7.189c-1.216-0.03-2.18-1.04-2.151-2.256
							c0.029-1.217,1.067-2.14,2.256-2.153c49.957,1.184,50.884,8.07,51.28,11.009c0.39,2.902,1.427,10.606-54.442,26.35
							C1071.083,801.649,1070.882,801.675,1070.684,801.675z"/>
					</g>
					<polygon style="fill:#FFFFFF;" points="679.345,858.976 996.697,767.963 1067.338,894.235 767.418,1020.506 					"/>
				</g>
				<path style="fill:#FFFFFF;" d="M456.56,953.269c13.581-48.362,60.093-123.983,158.585-133.14
					c83.518-7.765,144.584,62.744,165.358,142.065c14.339,54.749,6.925,135.351,14.479,195.786
					c-74.809,11.331-362.614,50.993-362.614,50.993S433.928,1033.859,456.56,953.269z"/>
				<path style="fill:#363E44;" d="M776.724,1130.598c-1.059,0-1.994-0.764-2.172-1.845
					c-16.759-101.17-66.713-219.283-67.216-220.465c-0.476-1.12,0.045-2.416,1.166-2.892c1.126-0.482,2.417,0.043,2.892,1.165
					c0.505,1.186,50.661,119.773,67.508,221.472c0.199,1.201-0.612,2.336-1.814,2.534
					C776.964,1130.589,776.843,1130.598,776.724,1130.598z"/>
				<g>
					<path style="fill:#FFFFFF;" d="M657.645,1028.372c54.401,205.391,3.873,190.242-31.676,198.421
						c-28.656,6.594-74.725-79.845-98.045-167.119L657.645,1028.372z"/>
				</g>
				<g>
					<path style="fill:#BC8271;" d="M643.298,1108.541c53.951-11.046,175.986-36.166,188.388-38.83
						c23.184-4.98,135.106-27.753,139.521-11.619c4.767,17.42-53.886,22.988-63.493,25.941c12.088-0.54,73.611-16.705,76.253-3.73
						c3.337,16.386-73.21,32.825-73.75,33.169c8.505-1.422,68.905-16.869,72.066-3.992c4.101,16.706-61.873,28.425-72.363,30.75
						c1.077,1.078,44.964-13.724,48.923,0.026c4.199,14.587-48.013,23.793-54.699,26.851c-17.697,7.492-51.565,16.613-89.496,28.912
						c-89.085,28.887-129.775,48.128-175.581,44.191c-20.499-1.762-43.744-25.743-63.444-60.81
						C600.221,1149.153,618.701,1138.786,643.298,1108.541z"/>
					<path style="fill:#FFFFFF;" d="M777.209,1219.437c0,0-164.486,44.848-214.526,12.331c-28.72-18.663-47.425-96.79-47.425-96.79
						l233.504-49.562L777.209,1219.437z"/>
					<path style="fill:#363E44;" d="M536.244,1197.014c-0.88,0-1.711-0.53-2.053-1.397l-56.659-143.849
						c-0.446-1.133,0.111-2.414,1.243-2.859c1.14-0.444,2.415,0.112,2.861,1.245l56.659,143.849
						c0.446,1.133-0.111,2.414-1.243,2.859C536.785,1196.964,536.512,1197.014,536.244,1197.014z"/>
					<path style="fill:#363E44;" d="M599.193,1109.822c-1.074,0-2.015-0.786-2.178-1.882c-0.179-1.204,0.652-2.325,1.857-2.504
						l149.566-22.201c1.205-0.157,2.326,0.652,2.505,1.858c0.179,1.204-0.652,2.325-1.857,2.504l-149.566,22.201
						C599.41,1109.813,599.301,1109.822,599.193,1109.822z"/>
					<path style="fill:#363E44;" d="M653.335,1099.75c-0.984,0-1.882-0.665-2.135-1.662l-29.378-115.835
						c-0.299-1.18,0.414-2.381,1.595-2.681c1.171-0.293,2.38,0.418,2.679,1.596l29.378,115.835c0.299,1.18-0.414,2.381-1.595,2.681
						C653.698,1099.728,653.515,1099.75,653.335,1099.75z"/>
					<path style="fill:#363E44;" d="M891.718,1087.16c-1.065,0-2.002-0.773-2.175-1.86c-0.191-1.202,0.63-2.332,1.832-2.521
						l60.855-9.655c1.206-0.192,2.332,0.626,2.523,1.832c0.19,1.202-0.63,2.332-1.832,2.521l-60.855,9.655
						C891.949,1087.152,891.833,1087.16,891.718,1087.16z"/>
					<path style="fill:#363E44;" d="M897.595,1115.698c-1.052,0-1.982-0.754-2.169-1.824c-0.21-1.201,0.592-2.343,1.791-2.554
						l53.712-9.398c1.199-0.198,2.343,0.594,2.552,1.793c0.21,1.199-0.592,2.34-1.791,2.552l-53.712,9.398
						C897.849,1115.687,897.721,1115.698,897.595,1115.698z"/>
					<path style="fill:#363E44;" d="M902.212,1143.818c-1.039,0-1.964-0.736-2.164-1.793c-0.227-1.197,0.559-2.351,1.756-2.577
						l39.87-7.555c1.189-0.224,2.35,0.56,2.576,1.755c0.227,1.197-0.559,2.351-1.756,2.577l-39.87,7.555
						C902.487,1143.805,902.348,1143.818,902.212,1143.818z"/>
					<path style="fill:#BC8271;" d="M840.952,1087.661c26.841-22.581,31.736-36.415,28.022-40.554
						c-6.246-6.961-38.476,3.806-81.861,31.867C801.478,1082.945,826.588,1083.689,840.952,1087.661z"/>
					<g>
						<path style="fill:#363E44;" d="M831.684,1071.916c-1.017,0-1.931-0.708-2.153-1.742c-0.256-1.191,0.502-2.362,1.692-2.618
							c4.682-1.005,17.316-3.667,33.475-6.655c1.191-0.235,2.347,0.573,2.569,1.768c0.222,1.197-0.569,2.347-1.768,2.569
							c-16.102,2.978-28.686,5.628-33.35,6.63C831.993,1071.901,831.837,1071.916,831.684,1071.916z"/>
					</g>
				</g>
				<polygon style="fill:#363E44;" points="666.689,897.147 672.357,857.692 633.978,868.558 659.49,899.185 688.105,1067.504 
					717.13,1089.04 730.558,1055.485 				"/>
			</g>
			<g>
				<path style="fill:#BC8271;" d="M670.334,790.331c-15.985,11.353-61.485-15.948-61.485-15.948l-27.91-57.708
					c0-27.583,25.092-52.04,52.675-52.04h0c27.583,0,49.943,22.36,49.943,49.943C683.557,714.577,686.615,778.767,670.334,790.331z"
					/>
				<polygon style="fill:#BC8271;" points="580.711,827.858 651.825,860.708 651.825,715.905 580.711,715.905 				"/>
				<g>
					<path style="fill:#FFFFFF;" d="M627.79,722.089c0,0,9.163-4.929,20.21-4.928c2.35,0-2.083,18.807-4.315,17.742
						C633.877,730.221,627.79,722.089,627.79,722.089z"/>
					<path style="fill:#363E44;" d="M655.235,717.926c13.97,3.085,23.139,15.337,23.139,15.337s-13.477,7.249-27.445,4.164
						c-2.593-0.574-5.018-1.463-7.252-2.53c-1.676-6.076-0.225-12.819,4.34-17.721C650.365,717.176,652.79,717.385,655.235,717.926z
						"/>
				</g>
				<g>
					<path style="fill:#363E44;" d="M669.763,676.797c1.702-7.634-15.424-21.771-34.625-23.922
						c-23.526-2.636-51.169,4.896-66.154,31.372c-14.396,25.436-13.856,59.079,11.745,85.519c6.335-4.997,11.954-9.24,19.732-15.431
						c-13.113-13.195-13.856-27.168-8.4-33.254c4.656-5.194,13.64-5.666,23.089,2.196c2.833-7.449,7.555-18.466,21.404-28.539
						C652.577,683.086,668.444,682.714,669.763,676.797z"/>
				</g>
				<path style="fill:#363E44;" d="M651.031,795.683c-0.178,0-0.357-0.022-0.537-0.067c-25.35-6.337-41.295-18.767-41.961-19.292
					c-0.955-0.756-1.119-2.14-0.365-3.096c0.755-0.954,2.14-1.117,3.096-0.366c0.156,0.123,15.918,12.383,40.3,18.478
					c1.181,0.295,1.899,1.492,1.604,2.672C652.917,795.015,652.018,795.683,651.031,795.683z"/>
				<path style="fill:#363E44;" d="M664.811,766.185c-2.406,0-4.752-0.915-6.451-2.661c-2.816-2.896-2.668-6.916-2.136-8.834
					c0.327-1.176,1.536-1.858,2.714-1.537c1.174,0.325,1.861,1.539,1.536,2.713c-0.027,0.103-0.704,2.784,1.046,4.584
					c1.42,1.46,3.774,1.753,5.725,0.717c1.072-0.579,2.41-0.164,2.982,0.913c0.571,1.074,0.163,2.409-0.913,2.98
					C667.889,765.816,666.338,766.185,664.811,766.185z"/>
				<path style="fill:#BC8271;" d="M683.286,729.216c-0.146,2.215,0.214,5.824,1.724,9.21c1.82,4.084,5.75,6.624,5.672,9.195
					c-0.053,1.724-1.98,4.31-9.115,5.97L683.286,729.216z"/>
				<path style="fill:#363E44;" d="M604.553,749.127c-0.64,0-1.275-0.278-1.711-0.812c-6.963-8.548-9.192-17.809-5.184-21.54
					c3.792-3.533,11.458-0.211,13.717,0.891c1.095,0.532,1.55,1.852,1.016,2.948c-0.535,1.094-1.856,1.552-2.948,1.014
					c-3.81-1.854-7.749-2.586-8.779-1.628c-1.4,1.305-0.711,7.786,5.597,15.529c0.769,0.945,0.626,2.334-0.318,3.103
					C605.536,748.966,605.043,749.127,604.553,749.127z"/>
			</g>
		</g>
		<g>
			<g>
				<polygon style="fill:#EFBC73;" points="1078.513,2066.387 1002.715,2066.387 1040.614,1894.796 				"/>
				<polygon style="fill:#ff6900;" points="1154.31,2066.387 1078.513,2066.387 1116.411,1944.555 				"/>
				<polygon style="fill:#D87355;" points="1230.108,2066.387 1154.31,2066.387 1192.209,1843.62 				"/>
				<polygon style="fill:#D3BBA3;" points="1305.906,2066.387 1230.108,2066.387 1268.007,1955.003 				"/>
			</g>
			<path style="fill:#E6D0BE;" d="M1320.119,2088.353h-338.33c-1.218,0-2.205-0.986-2.205-2.205v-141.593
				c0-1.219,0.987-2.205,2.205-2.205s2.205,0.986,2.205,2.205v139.388h336.125c1.218,0,2.205,0.986,2.205,2.205
				S1321.337,2088.353,1320.119,2088.353z"/>
		</g>
		<g>
			<path style="fill:#D87355;" d="M999.95,1067.417c84.822-1.325,153.185-70.456,153.185-155.593c0-2.486-0.072-4.955-0.188-7.412
				H999.95V1067.417z"/>
			<path style="fill:#EFBC73;" d="M984.594,889.056h95.089c-2.406-51.289-44.741-92.134-96.624-92.134
				c-53.428,0-96.741,43.312-96.741,96.741c0,53.428,43.312,96.74,96.741,96.74c0.515,0,1.022-0.031,1.535-0.039V889.056z"/>
		</g>
		<g>
			<g>
				<path style="fill:#363E44;" d="M1869.152,1312.222c-0.828,0-1.655-0.073-2.478-0.222c-5.066-0.919-9.265-4.567-11.823-10.273
					c-2.431-5.422-3.095-12.124-1.87-18.872c1.225-6.748,4.203-12.788,8.385-17.01c4.399-4.444,9.617-6.38,14.679-5.463
					c10.134,1.841,16.276,14.917,13.693,29.147c-1.225,6.748-4.203,12.787-8.385,17.01
					C1877.668,1310.258,1873.413,1312.222,1869.152,1312.222z M1873.595,1264.573c-3.089,0-6.262,1.514-9.096,4.375
					c-3.562,3.596-6.112,8.815-7.18,14.695c-1.068,5.88-0.516,11.661,1.556,16.28c1.944,4.339,4.993,7.086,8.586,7.736
					c3.6,0.663,7.414-0.846,10.759-4.222c3.562-3.596,6.112-8.815,7.18-14.695c2.149-11.838-2.401-22.614-10.142-24.018
					C1874.708,1264.622,1874.152,1264.573,1873.595,1264.573z"/>
				<path style="fill:#9E6C5A;" d="M1877.521,1282.958c6.659-36.87,13.791-57.774,32.626-70.717
					c25.313-17.395,57.326-6.494,60.651-5.305c2.123,0.758,32.95,9.727,42.915,40.458c9.841,30.349,3.266,64.849-18.487,87.791
					l11.496,69.539c3.691,22.325-11.415,43.415-33.74,47.105l-5.057,0.836c-22.325,3.691-43.414-11.415-47.105-33.74l-7.679-46.453
					c-14.358,1.156-26.241-1.096-31.917-7.527C1871.056,1353.427,1869.678,1326.377,1877.521,1282.958z"/>
				<path style="fill:#363E44;" d="M1923.483,1290.449c-0.037,0-0.072,0-0.109-0.002l-67.798-3.288
					c-1.217-0.06-2.154-1.094-2.096-2.31c0.06-1.219,1.092-2.168,2.309-2.095l67.798,3.288c1.217,0.06,2.154,1.094,2.096,2.31
					C1925.625,1289.532,1924.651,1290.449,1923.483,1290.449z"/>
				<path style="fill:#363E44;" d="M1912.318,1373.683c-1.083,0-2.028-0.799-2.181-1.903l-2.359-17.081
					c-0.166-1.206,0.676-2.319,1.883-2.485c1.196-0.183,2.319,0.674,2.486,1.882l2.359,17.081c0.166,1.206-0.677,2.319-1.883,2.485
					C1912.52,1373.677,1912.419,1373.683,1912.318,1373.683z"/>
				<path style="fill:#363E44;" d="M1931.163,1315.544c-0.412,0-0.83-0.116-1.202-0.357c-1.021-0.665-1.308-2.031-0.644-3.051
					c3.142-4.823,5.059-7.913,6.465-10.18c0.689-1.109,1.256-2.024,1.786-2.851c0.657-1.025,2.021-1.326,3.046-0.665
					c1.026,0.657,1.324,2.022,0.666,3.047c-0.519,0.81-1.075,1.707-1.752,2.795c-1.417,2.284-3.349,5.398-6.516,10.262
					C1932.591,1315.191,1931.883,1315.544,1931.163,1315.544z"/>
				<path style="fill:#363E44;" d="M1900.505,1210.988c19.721-27.126,81.774-23.637,109.985,3.153
					c38.149,36.23,33.002,101.533,0.583,128.849c-10.876,9.163-29.568,21.277-52.582,14.877
					c-13.438-3.737-14.008-22.518-14.058-27.052c11.294-4.049,17.984-15.54,15.984-26.762c-2.013-11.303-12.319-19.399-22.695-19.44
					c-6.882-0.026-11.965,3.498-14,5.097C1898.665,1260.202,1886.452,1230.317,1900.505,1210.988z"/>
			</g>
			<g>
				<path style="fill:#EFBC73;" d="M2152.86,1387.283c0,0,0,0.022-0.023,0.066c0,0.044-0.021,0.154-0.044,0.309
					c-0.573,2.712-3.968,19.424-4.873,29.015c-29.214,159.011-99.57,303.604-199.602,422.399l-109.426,21.056l-19.821-149.685
					l-78.624,9.9l-46.72-198.081c0,0,183.023-97.078,310.284-123.514c48.131-10.01,102.172-12.766,148.825-11.465H2152.86z"/>
			</g>
			<path style="fill:#363E44;" d="M2010.49,1214.142c0,0-11.056,101.604-66.056,116.673l-32.112,124.639
				c0,0,7.948,1.523,20.917,2.538c6.526-27.226,16.047-63.766,16.047-63.766v64.57c25.766,0.595,61.479-1.961,95.516-15.762
				c2.034-17.668,3.108-38.165,0.78-56.471c-3.706-29.122,14.278,6.901,22.63,44.877c33.29-19.901,61.98-53.501,73.665-109.432
				L2010.49,1214.142z"/>
		</g>
		<g>
			<path style="fill:#D3BBA3;" d="M1898.137,1893.995c-141.615,143.005-330.083,239.51-540.489,264.6
				c-0.088-0.022-0.177-0.022-0.265-0.044c26.568-38.849,54.04-77.103,81.997-114.959c9.524-12.898,19.116-25.752,28.728-38.584
				c8.467-11.267,16.845-22.423,26.789-32.433c17.837-17.925,38.694-32.587,60.721-44.846
				c44.581-24.782,93.815-40.172,143.004-52.783c46.941-12.016,96.99-16.889,144.416-4.586
				C1862.771,1875.497,1881.182,1883.588,1898.137,1893.995z"/>
			<g>
				<path style="fill:#E2A18D;" d="M1591.975,1385.375c16.838-34.438,29.688-53.027,51.841-60.516
					c29.77-10.064,58.243,9.596,61.185,11.693c1.878,1.339,29.723,18.765,30.963,51.796c1.223,32.62-14.871,64.749-42.683,81.267
					l-8.077,71.661c-2.593,23.006-23.345,39.554-46.351,36.961l-5.211-0.587c-23.006-2.593-39.554-23.346-36.961-46.352
					l5.396-47.871c-14.457-2.866-25.526-8.397-29.321-16.311C1565.958,1452.943,1572.146,1425.93,1591.975,1385.375z"/>
				<path style="fill:#363E44;" d="M1601.549,1484.426c-0.102,0-0.205-0.006-0.308-0.021c-1.207-0.168-2.048-1.283-1.879-2.489
					l2.442-17.473c0.168-1.208,1.288-2.054,2.489-1.878c1.206,0.168,2.046,1.283,1.877,2.489l-2.442,17.473
					C1603.575,1483.629,1602.631,1484.426,1601.549,1484.426z"/>
				<path style="fill:#363E44;" d="M1631.344,1434.716c-0.615,0-1.227-0.256-1.663-0.756c-0.8-0.917-0.704-2.31,0.213-3.111
					c2.235-1.948,4.234-3.757,6.314-5.639c1.704-1.544,3.461-3.135,5.443-4.888c0.912-0.803,2.306-0.719,3.112,0.189
					c0.806,0.913,0.721,2.306-0.191,3.113c-1.968,1.742-3.713,3.32-5.406,4.853c-2.099,1.899-4.118,3.727-6.374,5.695
					C1632.375,1434.538,1631.858,1434.716,1631.344,1434.716z"/>
				<path style="fill:#B77250;" d="M1778.964,1409.115c6.257-18.17-3.4-37.972-21.571-44.229c-0.028-0.01-0.056-0.017-0.086-0.027
					c2.894-3.028,5.215-6.692,6.668-10.911c5.389-15.648-2.928-32.701-18.576-38.09c-3.27-1.126-6.596-1.621-9.868-1.608
					c4.282-15.18-3.953-31.24-19.053-36.44c-8.533-2.938-17.47-1.778-24.719,2.401c-2.718-11.156-10.874-20.744-22.537-24.76
					c-17.641-6.075-36.818,2.813-43.707,19.927c-0.815-0.365-1.644-0.71-2.505-1.006c-15.648-5.389-32.701,2.928-38.09,18.576
					c-5.389,15.648,2.928,32.701,18.576,38.09c0.451,0.156,0.908,0.26,1.361,0.393c-7.349,28.336,20.847,41.491,22.441,42.508
					c-7.585,11.552-15.169,23.106-22.753,34.659c4.373,3.005,9.493,6.92,13.866,9.926c7.286-12.372,14.271-15.771,22.14-14.585
					c12.394,1.868,19.726,16.241,16.955,28.062c-2.53,10.79-9.964,20.476-21.908,22.975c11.754,4.252,24.178,8.36,37.26,12.21
					c6.824,2.008,13.531,3.859,20.104,5.565c4.765-1.245,35.577-9.857,51.348-40.213
					C1759.399,1433.303,1773.798,1424.115,1778.964,1409.115z"/>
			</g>
			<g>
				<path style="fill:#E2A18D;" d="M1998.935,1887.67c-147.795,32.886-235.325,53.737-267.82,60.551
					c-3.403,0.713-9.403,2-17.364,1.496c-29.496-1.866-38.635-25.319-68.754-41.434c-34.176-18.284-63.771-9.231-65.823-18.914
					c-1.428-6.735,8.775-13.293,32.762-18.003c0.002,0,0.002-0.004,0-0.004c-18.636,1.483-43.997,2.391-44.787-7.91
					c-0.276-11.943,29.396-16.509,47.481-18.394c-21.89,2.282-34.213-3.054-33.222-8.907c1.56-9.213,18.123-14.936,47.17-16.828
					c0.001,0,0.002-0.002,0.002-0.002c-20.423-4.296-24.737-8.382-22.6-13.342c3.903-9.057,27.813-10.163,49.1-7.901
					c23.965,2.546,41.667,12.834,52.675,19.587c0.003,0.001,0.007,0.002,0.01,0.001c101.125-33.765,168.151-55.481,249.268-84.414
					C1973.628,1727.333,1998.939,1887.67,1998.935,1887.67z"/>
				<path style="fill:#E2A18D;" d="M1892.214,1578.506c134.433,156.159,176.086,274.482,115.389,306.419
					c-34.392,18.096-136.718-54.306-233.457-185.891C1816.12,1660.687,1840.274,1623.586,1892.214,1578.506z"/>
				<g>
					<g>
						<path style="fill:#E2A18D;" d="M1394.151,1594.97c-167.899,35.706-299.751,71.886-285.352,125.755
							c30.479,114.029,157.144,55.421,269.728,54.42C1382.765,1728.905,1390.226,1651.03,1394.151,1594.97z"/>
					</g>
					<g>
						<path style="fill:#E2A18D;" d="M1252.535,1701.635c0,0,42.394-114.032,60.602-176.064
							c19.122-65.146,37.869-164.114,23.99-166.558c-7.905-1.392-13.252,11.577-25.24,47.19c-1.194-2.407-5.982-8.696-13.526-8.785
							c-11.164-0.132-14.38,8.755-14.982,9.436c-0.339-0.849-4.243-9.893-11.701-11.246c-8.401-1.524-14.709,2.356-18.413,7.94
							c-0.906-2.08-5.03-9.415-12.236-10.504c-7.412-1.12-15.964,3.091-18.056,10.628c-3.838,13.828-14.455,55.14-22.072,74.615
							c-14.99,38.324-86.489,167.278-93.513,228.394C1159.316,1694.907,1252.535,1701.635,1252.535,1701.635z"/>
						<g>
							<path style="fill:#363E44;" d="M1238.259,1424.81c-0.105,0-0.213-0.006-0.321-0.024l-12.003-1.744
								c-1.206-0.174-2.04-1.294-1.866-2.498c0.174-1.206,1.307-2.063,2.499-1.865l12.005,1.744
								c1.205,0.174,2.039,1.294,1.865,2.498C1240.279,1424.02,1239.335,1424.81,1238.259,1424.81z"/>
							<path style="fill:#363E44;" d="M1268.757,1429.346c-0.083,0-0.167-0.004-0.251-0.013l-13.628-1.546
								c-1.21-0.136-2.08-1.229-1.942-2.439c0.138-1.208,1.256-2.093,2.439-1.94l13.626,1.542c1.21,0.138,2.08,1.229,1.943,2.439
								C1270.818,1428.515,1269.863,1429.346,1268.757,1429.346z"/>
							<path style="fill:#363E44;" d="M1298.369,1432.477c-0.107,0-0.214-0.006-0.323-0.024c-2.265-0.332-4.307-0.614-6.354-0.898
								c-2-0.278-4.003-0.555-6.215-0.878c-1.205-0.177-2.039-1.296-1.863-2.5c0.176-1.203,1.303-2.056,2.5-1.862
								c2.202,0.321,4.193,0.596,6.183,0.872c2.057,0.286,4.112,0.571,6.388,0.904c1.205,0.177,2.038,1.296,1.861,2.502
								C1300.387,1431.689,1299.445,1432.477,1298.369,1432.477z"/>
							<path style="fill:#363E44;" d="M1322.529,1438.118c-0.158,0-0.319-0.017-0.48-0.052l-11.756-2.607
								c-1.189-0.263-1.939-1.44-1.676-2.629c0.264-1.191,1.445-1.933,2.63-1.677l11.758,2.607c1.188,0.265,1.938,1.443,1.674,2.631
								C1324.45,1437.419,1323.54,1438.118,1322.529,1438.118z"/>
						</g>
					</g>
				</g>
				<path style="fill:#FFFFFF;" d="M1950.106,1612.797c-18.074-33.997-48.73-59.664-85.489-71.123
					c-46.812-14.594-117.877-28.72-202.993-19.681c-158.725,16.856-338.438,72.979-338.438,72.979v232.148l115.719-24.125
					l25.307,189.625l473.258-80.589l-20.201-133.614l81.666-73.771L1950.106,1612.797z"/>
			</g>
		</g>
	</g>
</g>
</svg>
