<?xml version="1.0" encoding="utf-8"?>
<!-- Generator: Adobe Illustrator 27.5.0, SVG Export Plug-In . SVG Version: 6.00 Build 0)  -->
<svg version="1.1" xmlns="http://www.w3.org/2000/svg" xmlns:xlink="http://www.w3.org/1999/xlink" x="0px" y="0px"
	 viewBox="0 0 2500 2500" style="enable-background:new 0 0 2500 2500;" xml:space="preserve">
-
<g id="Illustration">
	<g id="Transactional_marketing_1_">
		<circle style="fill:transparent;" cx="1250" cy="1250" r="915"/>
		<g>
			<g>
				<path style="fill:#FFFFFF;" d="M609.781,1692.321l34.518-14.885c10.347,15.493,21.812,29.955,34.227,43.338l-22.435,30.129
					l102.036,75.981l22.486-30.198c16.534,8.125,33.684,14.94,51.285,20.381l-4.374,37.395l126.356,14.784l0,0l4.365-37.31
					c18.216-1.21,36.479-3.858,54.638-8.023l14.886,34.518l116.819-50.376l-14.885-34.518
					c15.493-10.347,29.955-21.811,43.337-34.227l30.129,22.436h0l75.981-102.036l-30.197-22.487
					c8.125-16.534,14.94-33.684,20.381-51.285l37.395,4.375l14.783-126.356l-37.31-4.366c-1.211-18.215-3.858-36.479-8.023-54.638
					l34.518-14.885l-50.375-116.819h-0.001l-34.518,14.885c-10.347-15.494-21.811-29.955-34.227-43.338l22.436-30.129
					l-102.036-75.981l-22.486,30.198c-16.535-8.125-33.684-14.94-51.285-20.381l4.375-37.395l-126.356-14.783l-4.365,37.31
					c-18.216,1.209-36.479,3.858-54.639,8.022l-14.885-34.518l-116.819,50.376l14.885,34.518
					c-15.494,10.347-29.955,21.811-43.338,34.227l-30.13-22.436l-75.98,102.037l30.197,22.486
					c-8.125,16.535-14.94,33.684-20.382,51.285l-37.394-4.375l-14.784,126.356l37.31,4.366c1.21,18.215,3.858,36.479,8.023,54.638
					l-34.518,14.885L609.781,1692.321z M852.894,1273.692c109.497-43.127,235.402,6.909,285.426,113.432
					c55.238,117.627-0.202,257.13-121.112,304.754c-109.497,43.128-235.402-6.908-285.426-113.432
					C676.543,1460.819,731.982,1321.317,852.894,1273.692z"/>
			</g>
			<path style="fill:#F2E6DC;" d="M935.032,1763.326c-84.556,0-166.959-38.252-221.313-108.127c-0.748-0.96-0.575-2.346,0.386-3.094
				c0.957-0.746,2.345-0.577,3.094,0.388c77.13,99.154,211.667,133.619,327.176,83.81c139.79-60.28,204.475-223.051,144.194-362.841
				c-53.672-124.465-192.816-192.281-323.654-157.744c-1.176,0.309-2.385-0.392-2.695-1.569c-0.311-1.178,0.392-2.385,1.568-2.695
				c64.265-16.963,132.815-10.344,193.025,18.638c60.816,29.273,109.046,79.568,135.805,141.623
				c61.243,142.023-4.475,307.394-146.498,368.638C1010.166,1755.858,972.384,1763.326,935.032,1763.326z"/>
		</g>
		<g>
			<path style="fill:#F7F1EB;" d="M1480.538,411.552c-11.289,0-20.441,9.152-20.441,20.441v1072.497
				c0,7.473,6.058,13.531,13.531,13.531h630.643c11.289,0,20.44-9.152,20.44-20.441V431.993c0-11.289-9.152-20.441-20.44-20.441
				H1480.538z"/>
			<g>
				<path style="fill:#363E44;" d="M2113.368,1576.665h-641.924c-26.427,0-47.927-21.5-47.927-47.928V385.077
					c0-26.427,21.5-47.927,47.927-47.927h641.924c26.427,0,47.927,21.5,47.927,47.927v1143.659
					C2161.294,1555.164,2139.794,1576.665,2113.368,1576.665z M1471.443,341.56c-23.996,0-43.517,19.521-43.517,43.517v1143.659
					c0,23.996,19.521,43.518,43.517,43.518h641.924c23.996,0,43.517-19.522,43.517-43.518V385.077
					c0-23.996-19.521-43.517-43.517-43.517H1471.443z"/>
				<path style="fill:#363E44;" d="M1846.061,377.429h-117.535c-1.218,0-2.205-0.987-2.205-2.205s0.987-2.205,2.205-2.205h117.535
					c1.218,0,2.205,0.987,2.205,2.205S1847.279,377.429,1846.061,377.429z"/>
			</g>
			<rect x="1546.668" y="1022.526" style="fill:#FFFFFF;" width="491.475" height="168.493"/>
			<rect x="1546.668" y="1232.973" style="fill:#FFFFFF;" width="491.475" height="67.106"/>
			<rect x="1546.668" y="1338.136" style="fill:#FFFFFF;" width="491.475" height="67.106"/>
		</g>
		<g>
			<path style="fill:#363E44;" d="M741.178,2155.393h712.342l72.13-90.654c66.552-86.456,4.919-211.677-104.185-211.677H586.301
				l-17.637,41.451C516.052,2018.169,606.795,2155.393,741.178,2155.393z"/>
			<g>
				<path style="fill:#D87355;" d="M1504.302,1979.775h-403.944c-27.404,0-49.619-22.215-49.619-49.619l0,0h453.564V1979.775z"/>
				<path style="fill:#D87355;" d="M1507.306,1978.369l122.346-384.971c8.3-26.116-6.143-54.017-32.26-62.317h0l-137.374,432.259
					L1507.306,1978.369z"/>
				<path style="fill:#363E44;" d="M1461.419,1911.625c-0.222,0-0.447-0.034-0.668-0.104c-1.161-0.369-1.802-1.608-1.434-2.769
					l120.238-378.338c0.369-1.163,1.614-1.798,2.769-1.434c1.16,0.369,1.802,1.608,1.434,2.769l-120.238,378.338
					C1463.222,1911.025,1462.354,1911.625,1461.419,1911.625z"/>
			</g>
			<g>
				<g>
					<path style="fill:#84524D;" d="M1339.834,1535.861c0,0-93.275,52.032-281.866,74.029
						c-208.996,24.377-5.214-192.823-5.214-192.823s151.111-59.06,227.461-89.075
						C1345.606,1302.285,1339.834,1535.861,1339.834,1535.861z"/>
					<g>
						<path style="fill:#84524D;" d="M1199.634,1444.074c0,0,65.691-193.996,97.265-270.484
							c33.159-80.329,93.812-194.101,109.618-185.411c9.003,4.95,3.939,22.176-12.657,67.321c3.121-1.444,13.657-3.477,21.256,2.483
							c11.243,8.82,6.611,19.861,6.665,21.023c1.018-0.575,12.974-6.505,21.5-1.875c9.604,5.215,11.977,14.183,11.196,22.724
							c2.573-1.348,14.424-5.262,22.387-0.404c10.354,6.316,10.143,19.739,6.187,28.937c-7.259,16.873-28.242,62.484-36.258,88.022
							c-15.775,50.255-37.045,244.424-89.837,302.85C1262.637,1623.648,1182.938,1494.776,1199.634,1444.074z"/>
						<path style="fill:#363E44;" d="M1385.157,1209.608c-0.041,0-0.082-0.001-0.123-0.003c-1.215-0.067-2.148-1.107-2.081-2.322
							c1.016-18.568-5.095-32.435-10.007-43.577c-5.154-11.692-9.223-20.926-1.282-28.79c4.956-4.909,8.497-13.386,10.239-24.517
							c0.447-2.855-1.171-4.868-2.833-5.802c-1.691-0.95-4.298-1.282-6.539,0.621l-43.074,36.553
							c-0.928,0.788-2.318,0.673-3.108-0.255c-0.787-0.928-0.674-2.32,0.255-3.108l43.074-36.553
							c3.267-2.773,7.801-3.205,11.549-1.104c3.713,2.083,5.689,6.138,5.032,10.33c-1.914,12.238-5.781,21.312-11.493,26.967
							c-5.527,5.473-3.041,11.952,2.215,23.878c5.101,11.573,11.449,25.975,10.375,45.597
							C1387.292,1208.699,1386.32,1209.608,1385.157,1209.608z"/>
						<path style="fill:#363E44;" d="M1460.595,1155.239c-0.289,0-0.582-0.057-0.865-0.178
							c-12.641-5.397-19.874-18.571-18.252-31.75l-2.4,3.954c-5.078,8.369-15.406,11.908-24.549,8.425
							c-5.15-1.964-9.192-5.832-11.382-10.89c-2.189-5.059-2.24-10.653-0.145-15.75l2.814-6.851
							c-4.864,3.125-11.235,3.658-16.678,0.848c-7.533-3.889-10.936-12.793-7.916-20.714l7.369-19.33
							c0.434-1.138,1.706-1.707,2.846-1.275c1.137,0.434,1.708,1.709,1.275,2.847l-7.369,19.33
							c-2.22,5.821,0.281,12.367,5.817,15.224c5.881,3.035,13.218,0.769,16.365-5.044l6.791-12.545
							c0.559-1.031,1.826-1.446,2.884-0.942c1.058,0.502,1.54,1.745,1.094,2.829l-11.214,27.299
							c-1.639,3.99-1.598,8.366,0.115,12.323c1.713,3.958,4.875,6.984,8.904,8.519c7.157,2.73,15.236-0.04,19.208-6.59
							l11.499-18.953c0.585-0.965,1.801-1.328,2.823-0.853c1.021,0.48,1.515,1.653,1.146,2.717l-3.69,10.658
							c-4.453,12.858,1.861,27.115,14.376,32.457c1.12,0.479,1.641,1.774,1.163,2.894
							C1462.266,1154.737,1461.452,1155.239,1460.595,1155.239z"/>
					</g>
				</g>
				<g>
					<path style="fill:#ff6900;" d="M1247.239,1340.939c0,0-242.217,28.547-417.076,14.82
						c-82.267-6.458-236.811-7.166-288.903,26.998c-116.457,76.377-147.744,200.917-147.744,200.917l202.382,37.027l-74.5,250.795
						c-25.851,87.024-9.997,161.862,42.944,235.61v0h126.196l-22.815-121.205l67.019,121.205l345.227-254.045l3.978-220.507
						l226.875-73.617L1247.239,1340.939z"/>
					<path style="fill:#363E44;" d="M1078.996,1619.828c-1.218,0-2.205-0.987-2.205-2.205v-58.685c0-1.218,0.987-2.205,2.205-2.205
						c1.218,0,2.205,0.987,2.205,2.205v58.685C1081.201,1618.84,1080.214,1619.828,1078.996,1619.828z"/>
				</g>
				<path style="fill:#ff6900;" d="M1212.434,1366.839c2.139-8.352,59.89-159.435,59.89-159.435l173.252,65.92
					c0,0-8.556,257.201-134.752,285.614C1184.628,1587.35,1212.434,1366.839,1212.434,1366.839z"/>
				<g>
					<g>
						<path style="fill:#84524D;" d="M919.837,1671.651c-17.5,6.125-94.297,19.95-104.954,54.701
							c-10.733,35,4.762,72.242,28.839,99.65c0.148,0.014,0.312,0.029,0.459,0.043c9.251,4.076,23.722,8.755,40.284,6.086
							c18.88-3.044,22.392-12.723,41.83-19.033c32.809-10.649,55.443,7.305,60.577-3.781c3.524-7.609-9.208-18.643-23.457-25.675
							c-14.629-7.221-27.162-5.722-27.27-8.396c-0.118-2.933,12.802-2.81,28.89-4.131c7.474-0.614,28.975,10.324,35.32,0.631
							c5.059-7.729-14.418-24.703-36.709-28.312c-15.77-2.552-29.063,5.517-30.043,2.775c-0.736-2.058,7.303-6.672,15.406-8.593
							c13.371-3.171,35.489,7.784,41.156-1.252c5.552-8.853-11.721-23.377-32.007-27.994c-17.104-3.893-31.5,5.811-32.738,2.41
							c-0.871-2.392,4.676-8.071,19.289-16c12.197-6.616,40.149-11.647,35.187-25.4
							C975.724,1657.814,946.25,1662.406,919.837,1671.651z"/>
						<path style="fill:#84524D;" d="M543.741,1765.92c-38.467,13.978-64.053,51.348-61.422,92.011
							c1.725,26.659,15.627,53.807,57.84,69.174c102.78,37.415,325.649-114.491,325.649-114.491l22.635-132.137
							C757.61,1707.925,649.622,1727.444,543.741,1765.92z"/>
					</g>
					<g>
						<path style="fill:#ff6900;" d="M676.16,1726.378l27.213,194.643l-172.135,34.15
							c-110.544,21.931-208.196-75.097-186.795-185.745c18.727-96.821,46.689-202.64,86.732-270.528l212.309,45.673l-55.612,189.076
							L676.16,1726.378z"/>
						<path style="fill:#363E44;" d="M587.873,1735.854c-0.207,0-0.415-0.029-0.623-0.09c-1.168-0.344-1.837-1.57-1.493-2.738
							l25.128-85.435c0.344-1.169,1.573-1.833,2.738-1.493c1.168,0.343,1.837,1.57,1.493,2.738l-25.128,85.435
							C589.704,1735.231,588.826,1735.854,587.873,1735.854z"/>
						<path style="fill:#363E44;" d="M499.762,1960.497c-8.242,0-16.451-0.636-24.586-1.91c-1.202-0.188-2.025-1.316-1.837-2.519
							c0.188-1.204,1.318-2.026,2.519-1.837c18.094,2.831,36.584,2.421,54.949-1.223l170.093-33.744l-6.231-44.567
							c-0.169-1.207,0.672-2.321,1.878-2.489c1.208-0.184,2.32,0.671,2.489,1.878l6.52,46.63c0.163,1.158-0.607,2.241-1.754,2.469
							l-172.135,34.15C521.042,1959.442,510.375,1960.497,499.762,1960.497z"/>
						<path style="fill:#363E44;" d="M561.706,1738.007c-1.136,0-2.1-0.872-2.195-2.024c-0.1-1.213,0.803-2.278,2.016-2.378
							l114.451-9.424c1.207-0.11,2.278,0.803,2.378,2.016c0.1,1.213-0.803,2.278-2.016,2.378L561.889,1738
							C561.827,1738.005,561.766,1738.007,561.706,1738.007z"/>
					</g>
				</g>
				<path style="fill:#363E44;" d="M863.074,1619.828c-1.218,0-2.205-0.987-2.205-2.205v-169.198
					c-95.668,1.088-112.422-62.814-112.581-63.465c-0.29-1.181,0.432-2.373,1.613-2.664c1.191-0.284,2.376,0.432,2.669,1.61
					c0.631,2.54,16.503,62.149,110.456,60.072c0.578-0.023,1.166,0.214,1.59,0.629c0.424,0.414,0.663,0.983,0.663,1.576v171.441
					C865.278,1618.84,864.291,1619.828,863.074,1619.828z"/>
			</g>
			<g>
				<path style="fill:#84524D;" d="M841.83,1408.488l-8.879-2.443c-26.246-7.222-41.668-34.353-34.446-60.599l45.984-167.113
					c7.222-26.246,34.353-41.668,60.599-34.446l8.879,2.443c26.246,7.222,41.668,34.353,34.446,60.599l-45.984,167.113
					C895.207,1400.288,868.076,1415.71,841.83,1408.488z"/>
				<g>
					<g>
						<path style="fill:#84524D;" d="M1005.63,1280.288c-15.009,30.745-110.206,11.059-110.206,11.059l-84.449-51.041
							c-23.037-42.26-7.454-95.192,34.805-118.229c42.26-23.036,95.192-7.453,118.228,34.806
							C964.009,1156.883,1020.918,1248.974,1005.63,1280.288z"/>
						<path style="fill:#84524D;" d="M966.184,1181.796c0,0,33.719,10.786,35.814,17.345c2.5,7.829-19.051,25.184-19.051,25.184
							S966.784,1181.54,966.184,1181.796z"/>
						<g>
							<path style="fill:#FFFFFF;" d="M892.037,1198.797c0,0,10.1-10.375,24.76-14.995c3.119-0.983,5.102,25.832,1.696,25.352
								C903.517,1207.043,892.037,1198.797,892.037,1198.797z"/>
							<g>
								<defs>
									<path id="SVGID_1_" d="M892.037,1198.797c0,0,14.854-15.259,34.684-17.008c19.83-1.749,37.125,10.675,37.125,10.675
										s-14.855,15.259-34.684,17.008C909.332,1211.221,892.037,1198.797,892.037,1198.797z"/>
								</defs>
								<clipPath id="SVGID_00000075847582945882988970000007992271968642706622_">
									<use xlink:href="#SVGID_1_"  style="overflow:visible;"/>
								</clipPath>
								<path style="clip-path:url(#SVGID_00000075847582945882988970000007992271968642706622_);fill:#363E44;" d="
									M917.216,1182.965c6.64-12.752,22.36-17.708,35.113-11.068c12.753,6.64,17.708,22.361,11.068,35.113
									c-6.639,12.753-22.36,17.708-35.113,11.069C915.531,1211.438,910.576,1195.717,917.216,1182.965z"/>
							</g>
						</g>
						<g>
							<path style="fill:#363E44;" d="M754.757,1162.214c0,0,7.588,100.758,78.558,103.451l8.981-19.728l41.884-1.496
								l-33.635-35.397c-11.194-14.507-6.32-35.628,10.099-43.762l71.671-35.509l-21.236-37.196
								C848.738,1088.074,795.175,1107.346,754.757,1162.214z"/>
							<path style="fill:#363E44;" d="M828.113,1110.7c-6.977,5.958-17.464,5.132-23.422-1.845s-8.251-21.115-1.273-27.073
								c6.977-5.958,20.582-1.481,26.54,5.497C835.917,1094.255,835.09,1104.741,828.113,1110.7z"/>
							<path style="fill:#363E44;" d="M841.334,1109.159c-8.993,1.817-17.757-4-19.574-12.993
								c-1.817-8.993,3.049-22.464,12.042-24.281c8.993-1.817,18.708,8.707,20.526,17.701
								C856.145,1098.578,850.327,1107.342,841.334,1109.159z"/>
							<path style="fill:#363E44;" d="M869.76,1106.133c-12.432,0.3-22.753-9.535-23.053-21.967
								c-0.3-12.432,9.378-29.259,21.81-29.559c12.432-0.3,22.91,16.042,23.21,28.474
								C892.027,1095.512,882.192,1105.833,869.76,1106.133z"/>
							<path style="fill:#363E44;" d="M805.584,1124.393c-6.781,6.18-17.289,5.693-23.469-1.088
								c-6.18-6.781-8.928-20.838-2.147-27.018c6.781-6.18,20.523-2.144,26.704,4.638
								C812.852,1107.705,812.365,1118.213,805.584,1124.393z"/>
							<path style="fill:#363E44;" d="M890.07,1100.373c-8.654-6.901-10.074-19.511-3.173-28.165
								c6.901-8.654,23.123-14.603,31.777-7.702c8.654,6.901,6.463,24.04-0.439,32.694
								C911.333,1105.853,898.724,1107.274,890.07,1100.373z"/>
							<path style="fill:#363E44;" d="M789.781,1139.372c-6.89,9.122-19.87,10.932-28.991,4.042
								c-9.122-6.89-15.706-23.476-8.816-32.597c6.89-9.122,24.644-7.326,33.766-0.436
								C794.861,1117.27,796.67,1130.25,789.781,1139.372z"/>
							<path style="fill:#363E44;" d="M772.84,1151.524c-1.666,8.766-10.122,14.522-18.888,12.856
								c-8.766-1.666-19.11-10.994-17.444-19.76c1.665-8.766,14.71-13.65,23.476-11.984
								C768.75,1134.302,774.506,1142.758,772.84,1151.524z"/>
							<path style="fill:#363E44;" d="M905.992,1120.244c-7.376-11.299-4.197-26.438,7.102-33.815
								c11.299-7.376,32.352-8.057,39.728,3.242c7.376,11.299-1.717,30.299-13.016,37.675
								C928.508,1134.722,913.369,1131.543,905.992,1120.244z"/>
						</g>
						<path style="fill:#84524D;" d="M796.298,1248.702c1.609,16.523,16.307,28.613,32.83,27.004
							c16.523-1.608,28.614-16.307,27.005-32.829c-1.609-16.523-16.307-28.613-32.829-27.005
							C806.78,1217.48,794.69,1232.179,796.298,1248.702z"/>
						<path style="fill:#363E44;" d="M993.822,1214.231l26.563,68.185c3.698,9.493-1.266,20.134-10.908,23.425
							c-2.426,0.828-5.059,1.696-7.872,2.58c-48.692,15.305-101.851,4.384-140.525-28.925l0,0
							c-12.956-11.158-17.677-29.157-11.868-45.238l1.915-5.3l16.255,0.252c0,0,27.975,30.021,42.513,25.691
							C924.432,1250.569,943.232,1227.114,993.822,1214.231z"/>
						<path style="fill:#84524D;" d="M965.394,1251.594c-0.364,0-0.728-0.014-1.094-0.042c-5.43-0.417-10.255-3.972-12.292-9.055
							c-0.453-1.13,0.096-2.415,1.226-2.867c1.137-0.453,2.416,0.098,2.867,1.226c1.417,3.538,4.768,6.009,8.537,6.299
							c3.917,0.297,7.667-1.748,9.565-5.221c0.583-1.068,1.924-1.46,2.993-0.876c1.068,0.585,1.461,1.924,0.876,2.993
							C975.521,1248.716,970.628,1251.594,965.394,1251.594z"/>
						<path style="fill:#84524D;" d="M842.667,1179.599c-0.139,0-0.28-0.013-0.421-0.04l-43.294-8.379
							c-1.196-0.231-1.978-1.389-1.746-2.584c0.232-1.196,1.389-1.974,2.584-1.746l43.294,8.379
							c1.196,0.231,1.978,1.389,1.746,2.584C844.625,1178.867,843.703,1179.599,842.667,1179.599z"/>
					</g>
				</g>
			</g>
		</g>
		<g>
			<rect x="374.769" y="516.544" style="fill:#E6D0BE;" width="56.465" height="206.43"/>
			<path style="fill:#D3BBA3;" d="M723.004,906.745H339.733c-1.218,0-2.205-0.987-2.205-2.205V635.196
				c0-1.218,0.987-2.205,2.205-2.205s2.205,0.987,2.205,2.205v267.139h381.067c1.218,0,2.205,0.987,2.205,2.205
				S724.222,906.745,723.004,906.745z"/>
			<rect x="374.769" y="722.974" style="fill:#FFFFFF;" width="56.465" height="144.292"/>
			<rect x="467.95" y="694.229" style="fill:#FFFFFF;" width="56.465" height="173.037"/>
			<rect x="561.131" y="588.232" style="fill:#FFFFFF;" width="56.465" height="279.034"/>
			<rect x="654.312" y="631.987" style="fill:#FFFFFF;" width="56.465" height="235.279"/>
			<rect x="747.626" y="516.544" style="fill:#FFFFFF;" width="56.465" height="350.723"/>
			<rect x="840.807" y="585.854" style="fill:#FFFFFF;" width="56.465" height="281.414"/>
			<rect x="933.989" y="686.288" style="fill:#FFFFFF;" width="56.465" height="180.979"/>
			<rect x="1027.17" y="621.666" style="fill:#FFFFFF;" width="56.465" height="245.601"/>
			<rect x="1120.416" y="660.484" style="fill:#FFFFFF;" width="56.465" height="206.783"/>
			<rect x="1213.597" y="559.737" style="fill:#FFFFFF;" width="56.465" height="307.53"/>
			<rect x="1306.911" y="722.976" style="fill:#FFFFFF;" width="56.465" height="144.292"/>
			<rect x="467.95" y="516.544" style="fill:#E6D0BE;" width="56.465" height="177.684"/>
			<rect x="561.131" y="516.544" style="fill:#E6D0BE;" width="56.465" height="103.215"/>
			<rect x="654.312" y="516.544" style="fill:#E6D0BE;" width="56.465" height="115.442"/>
			<rect x="840.807" y="516.544" style="fill:#E6D0BE;" width="56.465" height="69.309"/>
			<rect x="933.989" y="516.544" style="fill:#E6D0BE;" width="56.465" height="169.744"/>
			<rect x="1027.17" y="516.544" style="fill:#E6D0BE;" width="56.465" height="118.652"/>
			<rect x="1120.416" y="516.544" style="fill:#E6D0BE;" width="56.465" height="143.94"/>
			<rect x="1213.597" y="516.544" style="fill:#E6D0BE;" width="56.465" height="43.193"/>
			<rect x="1306.911" y="516.368" style="fill:#E6D0BE;" width="56.465" height="206.608"/>
		</g>
		<g>
			<g>
				<path style="fill:#EFBC73;" d="M1906.236,812.358c-52.976,0-103.454-20.451-142.135-57.584
					c-39.049-37.486-60.554-86.897-60.554-139.127c0-108.468,88.423-196.712,197.11-196.712s197.11,88.244,197.11,196.712
					C2097.767,725.952,2013.637,812.358,1906.236,812.358z M1900.657,423.344c-106.255,0-192.7,86.267-192.7,192.303
					c0,104.238,90.8,192.302,198.279,192.302c104.928,0,187.121-84.469,187.121-192.302
					C2093.357,509.611,2006.913,423.344,1900.657,423.344z"/>
				<path style="fill:#EFBC73;" d="M1992.912,770.679c-0.769,0-1.515-0.402-1.921-1.119c-0.6-1.06-0.227-2.405,0.832-3.005
					c23.757-13.447,39.205-32.634,55.094-57.306c0.66-1.025,2.023-1.319,3.048-0.66c1.024,0.66,1.319,2.024,0.66,3.048
					c-16.242,25.221-32.087,44.864-56.629,58.755C1993.653,770.588,1993.28,770.679,1992.912,770.679z"/>
				<path style="fill:#EFBC73;" d="M2076.4,609.577c-1.17,0-2.146-0.921-2.201-2.103c-4.306-92.636-80.535-165.201-173.542-165.201
					c-80.012,0-149.349,54.046-168.615,131.43c-0.296,1.181-1.495,1.904-2.672,1.606c-1.181-0.294-1.901-1.49-1.606-2.672
					c19.756-79.353,90.852-134.774,172.893-134.774c95.368,0,173.531,74.412,177.948,169.406c0.056,1.216-0.884,2.248-2.1,2.305
					C2076.47,609.576,2076.435,609.577,2076.4,609.577z"/>
				<ellipse style="fill:#EFBC73;" cx="1900.657" cy="615.646" rx="161.862" ry="161.531"/>
				<g>
					<path style="fill:#FFFFFF;" d="M1934.239,661.38c0-7.403-2.668-13.767-8.002-19.092c-5.336-5.323-14.089-10.065-26.258-14.225
						c-16.839-5.074-29.553-11.855-38.138-20.34c-8.587-8.485-12.879-19.798-12.879-33.941c0-13.727,3.939-24.914,11.817-33.567
						c7.877-8.651,18.734-13.851,32.572-15.599v-27.577h19.757v27.702c14.004,1.997,24.861,7.967,32.572,17.907
						c7.71,9.942,11.566,23.272,11.566,39.993h-24.507c0-11.313-2.626-20.465-7.878-27.453
						c-5.252-6.988-12.547-10.482-21.882-10.482c-9.837,0-17.193,2.558-22.069,7.674c-4.877,5.116-7.315,12.126-7.315,21.026
						c0,8.07,2.52,14.6,7.565,19.591c5.043,4.991,14.149,9.733,27.321,14.225c17.088,5.49,29.76,12.334,38.012,20.527
						c8.253,8.194,12.379,19.322,12.379,33.38c0,14.309-4.294,25.686-12.879,34.128c-8.586,8.445-20.381,13.456-35.386,15.037
						v23.958h-19.631V710.42c-14.339-1.497-26.092-6.717-35.261-15.66c-9.171-8.942-13.589-22.066-13.254-39.37l0.25-0.624h23.757
						c0,12.812,3.23,21.943,9.691,27.39c6.458,5.45,14.399,8.174,23.82,8.174c10.753,0,19.15-2.558,25.195-7.674
						C1931.217,677.539,1934.239,670.448,1934.239,661.38z"/>
				</g>
			</g>
			<g>
				<path style="fill:#EFBC73;" d="M1877.9,1195.831c-43.35,0-84.655-16.734-116.306-47.12
					c-31.956-30.677-49.555-71.114-49.555-113.863c0-88.766,72.362-160.981,161.307-160.981
					c88.944,0,161.306,72.215,161.306,160.981C2034.652,1125.119,1965.799,1195.831,1877.9,1195.831z M1873.346,878.277
					c-86.513,0-156.897,70.238-156.897,156.571c0,84.87,73.936,156.572,161.451,156.572c85.426,0,152.343-68.775,152.343-156.572
					C2030.242,948.515,1959.859,878.277,1873.346,878.277z"/>
				<path style="fill:#EFBC73;" d="M1948.654,1161.809c-0.769,0-1.515-0.401-1.921-1.119c-0.6-1.059-0.227-2.405,0.832-3.005
					c19.321-10.937,31.896-26.558,44.832-46.647c0.661-1.025,2.024-1.319,3.048-0.66s1.319,2.024,0.66,3.048
					c-13.289,20.638-26.261,36.714-46.367,48.096C1949.395,1161.717,1949.022,1161.809,1948.654,1161.809z"/>
				<path style="fill:#EFBC73;" d="M2016.804,1030.299c-1.17,0-2.146-0.921-2.2-2.103c-3.504-75.402-65.552-134.467-141.258-134.467
					c-65.128,0-121.567,43.991-137.248,106.979c-0.296,1.181-1.495,1.902-2.672,1.606c-1.181-0.294-1.901-1.49-1.606-2.672
					c16.171-64.956,74.37-110.323,141.526-110.323c78.066,0,142.049,60.912,145.663,138.672c0.056,1.217-0.884,2.248-2.1,2.305
					C2016.875,1030.298,2016.839,1030.299,2016.804,1030.299z"/>
				<ellipse style="fill:#EFBC73;" cx="1873.346" cy="1034.849" rx="132.129" ry="131.859"/>
				<g>
					<path style="fill:#FFFFFF;" d="M1900.759,1072.182c0-6.044-2.178-11.238-6.532-15.585c-4.355-4.345-11.501-8.216-21.435-11.612
						c-13.746-4.141-24.124-9.677-31.132-16.604c-7.01-6.927-10.513-16.161-10.513-27.706c0-11.205,3.215-20.337,9.646-27.401
						c6.43-7.062,15.293-11.307,26.589-12.733v-22.511h16.128v22.613c11.432,1.63,20.294,6.503,26.589,14.617
						c6.294,8.115,9.442,18.997,9.442,32.647h-20.005c0-9.234-2.144-16.705-6.431-22.41c-4.288-5.704-10.243-8.557-17.863-8.557
						c-8.03,0-14.035,2.088-18.015,6.265c-3.981,4.176-5.971,9.898-5.971,17.164c0,6.587,2.057,11.918,6.175,15.992
						c4.116,4.074,11.55,7.945,22.302,11.612c13.949,4.482,24.293,10.068,31.03,16.756c6.737,6.689,10.105,15.773,10.105,27.248
						c0,11.68-3.505,20.968-10.513,27.859c-7.009,6.893-16.637,10.984-28.886,12.275v19.557h-16.025v-19.455
						c-11.705-1.222-21.299-5.483-28.784-12.784c-7.487-7.299-11.093-18.012-10.82-32.138l0.204-0.509h19.393
						c0,10.458,2.637,17.912,7.911,22.359c5.272,4.449,11.754,6.672,19.445,6.672c8.778,0,15.632-2.088,20.567-6.264
						C1898.292,1085.372,1900.759,1079.584,1900.759,1072.182z"/>
				</g>
			</g>
			<g>
				<path style="fill:#EFBC73;" d="M1635.814,1480.561c-67.505,0-124.537-55.361-124.537-120.889
					c0-66.659,54.34-120.89,121.133-120.89c66.793,0,121.133,54.231,121.133,120.89
					C1753.543,1427.46,1701.831,1480.561,1635.814,1480.561z M1632.41,1243.191c-64.362,0-116.723,52.254-116.723,116.481
					c0,63.139,55.012,116.48,120.127,116.48c63.544,0,113.319-51.164,113.319-116.48
					C1749.133,1295.445,1696.772,1243.191,1632.41,1243.191z"/>
				<path style="fill:#EFBC73;" d="M1688.703,1455.129c-0.769,0-1.515-0.402-1.921-1.119c-0.6-1.059-0.227-2.405,0.832-3.005
					c14.344-8.12,23.694-19.738,33.319-34.685c0.66-1.024,2.026-1.32,3.048-0.66c1.024,0.66,1.319,2.024,0.66,3.048
					c-9.979,15.495-19.725,27.57-34.854,36.134C1689.444,1455.038,1689.071,1455.129,1688.703,1455.129z"/>
				<path style="fill:#EFBC73;" d="M1739.644,1356.828c-1.17,0-2.146-0.921-2.2-2.103c-2.605-56.066-48.742-99.983-105.034-99.983
					c-48.426,0-90.391,32.709-102.052,79.545c-0.295,1.181-1.494,1.906-2.672,1.606c-1.181-0.294-1.901-1.49-1.606-2.672
					c12.149-48.803,55.874-82.889,106.33-82.889c58.653,0,106.724,45.765,109.439,104.188c0.056,1.217-0.884,2.248-2.1,2.305
					C1739.714,1356.826,1739.679,1356.828,1739.644,1356.828z"/>
				<ellipse style="fill:#EFBC73;" cx="1632.41" cy="1359.671" rx="98.765" ry="98.563"/>
				<g>
					<path style="fill:#FFFFFF;" d="M1652.901,1387.577c0-4.517-1.628-8.401-4.883-11.65c-3.256-3.248-8.597-6.141-16.022-8.68
						c-10.275-3.096-18.033-7.234-23.271-12.411c-5.24-5.177-7.859-12.08-7.859-20.71c0-8.376,2.403-15.202,7.21-20.482
						c4.806-5.279,11.432-8.452,19.875-9.518v-16.827h12.055v16.903c8.545,1.218,15.17,4.861,19.875,10.926
						c4.705,6.066,7.058,14.2,7.058,24.403h-14.954c0-6.903-1.603-12.487-4.807-16.751c-3.205-4.264-7.656-6.396-13.352-6.396
						c-6.002,0-10.491,1.561-13.466,4.683c-2.976,3.122-4.463,7.399-4.463,12.83c0,4.924,1.538,8.908,4.616,11.954
						c3.077,3.046,8.633,5.939,16.671,8.68c10.427,3.35,18.159,7.526,23.194,12.525c5.036,5,7.553,11.79,7.553,20.368
						c0,8.731-2.62,15.673-7.859,20.824c-5.239,5.153-12.436,8.21-21.592,9.175v14.619h-11.979v-14.543
						c-8.749-0.914-15.921-4.099-21.516-9.556c-5.596-5.456-8.292-13.464-8.088-24.023l0.153-0.381h14.496
						c0,7.818,1.971,13.389,5.913,16.713c3.941,3.325,8.786,4.987,14.535,4.987c6.561,0,11.685-1.561,15.374-4.683
						C1651.057,1397.437,1652.901,1393.11,1652.901,1387.577z"/>
				</g>
			</g>
		</g>
		<g>
			<g>
				<path style="fill:#D3BBA3;" d="M1910.58,2100.252c-0.085,0-0.17-0.006-0.256-0.015l-69.175-8.093
					c-0.58-0.068-1.111-0.364-1.474-0.822c-0.362-0.459-0.528-1.043-0.46-1.624l2.183-18.66c-8.53-2.726-16.923-6.061-24.997-9.932
					l-11.219,15.068c-0.35,0.469-0.871,0.781-1.449,0.864c-0.578,0.087-1.168-0.063-1.636-0.412l-55.861-41.596
					c-0.469-0.35-0.781-0.871-0.865-1.449c-0.085-0.579,0.064-1.168,0.412-1.636l11.193-15.03
					c-6.037-6.635-11.64-13.727-16.685-21.126l-17.219,7.426c-0.538,0.23-1.144,0.24-1.687,0.024
					c-0.544-0.215-0.98-0.638-1.211-1.176l-27.579-63.954c-0.231-0.537-0.24-1.144-0.024-1.687c0.215-0.544,0.638-0.98,1.176-1.211
					l17.219-7.424c-1.916-8.744-3.229-17.685-3.91-26.634l-18.613-2.178c-1.209-0.141-2.076-1.237-1.933-2.446l8.094-69.175
					c0.068-0.58,0.364-1.111,0.822-1.474c0.458-0.362,1.045-0.522,1.624-0.46l18.66,2.183c2.727-8.533,6.062-16.926,9.932-24.996
					l-15.068-11.22c-0.977-0.728-1.179-2.109-0.452-3.085l41.597-55.86c0.35-0.469,0.871-0.781,1.449-0.865
					c0.577-0.09,1.168,0.063,1.636,0.412l15.03,11.193c6.633-6.037,13.726-11.64,21.125-16.686l-7.425-17.219
					c-0.481-1.119,0.033-2.416,1.152-2.898l63.954-27.578c0.538-0.232,1.144-0.24,1.687-0.024c0.544,0.215,0.98,0.638,1.211,1.176
					l7.424,17.219c8.744-1.916,17.686-3.229,26.634-3.909l2.177-18.613c0.068-0.58,0.364-1.111,0.823-1.474
					c0.458-0.362,1.042-0.53,1.624-0.46l69.175,8.093c1.209,0.141,2.076,1.236,1.934,2.446l-2.182,18.66
					c8.529,2.726,16.921,6.06,24.996,9.932l11.22-15.068c0.728-0.976,2.109-1.179,3.085-0.452l55.86,41.597
					c0.469,0.35,0.78,0.871,0.864,1.449c0.085,0.579-0.063,1.168-0.412,1.636l-11.193,15.03
					c6.042,6.638,11.642,13.731,16.685,21.126l17.219-7.426c0.538-0.232,1.144-0.241,1.687-0.024
					c0.544,0.215,0.979,0.638,1.211,1.176l27.58,63.954c0.232,0.537,0.24,1.144,0.024,1.687c-0.215,0.544-0.638,0.98-1.176,1.211
					l-17.22,7.424c1.917,8.748,3.23,17.691,3.91,26.634l18.613,2.178c1.209,0.141,2.076,1.237,1.934,2.446l-8.094,69.175
					c-0.068,0.58-0.364,1.111-0.823,1.474c-0.458,0.362-1.044,0.53-1.623,0.46l-18.659-2.183c-2.726,8.529-6.06,16.921-9.934,24.996
					l15.068,11.22c0.977,0.728,1.179,2.109,0.452,3.085l-41.596,55.861c-0.35,0.469-0.871,0.781-1.449,0.865
					c-0.58,0.085-1.168-0.065-1.636-0.412l-15.03-11.193c-6.636,6.04-13.729,11.641-21.125,16.685l7.425,17.219
					c0.481,1.119-0.033,2.416-1.152,2.898l-63.953,27.578c-1.12,0.478-2.416-0.034-2.898-1.152l-7.425-17.219
					c-8.744,1.917-17.686,3.229-26.634,3.909l-2.177,18.613c-0.068,0.58-0.364,1.111-0.823,1.474
					C1911.557,2100.086,1911.074,2100.252,1910.58,2100.252z M1843.851,2088.021l64.796,7.58l2.133-18.236
					c0.124-1.056,0.983-1.873,2.043-1.944c9.939-0.659,19.886-2.12,29.566-4.34c1.028-0.241,2.094,0.297,2.518,1.276l7.277,16.872
					l59.903-25.832l-7.276-16.872c-0.421-0.978-0.084-2.115,0.801-2.706c8.259-5.516,16.149-11.748,23.45-18.52
					c0.781-0.726,1.966-0.786,2.816-0.153l14.726,10.966l38.962-52.325l-14.763-10.993c-0.853-0.635-1.13-1.787-0.662-2.741
					c4.385-8.923,8.096-18.26,11.03-27.755c0.314-1.016,1.307-1.668,2.363-1.538l18.282,2.139l7.581-64.796l-18.236-2.134
					c-1.056-0.124-1.873-0.983-1.944-2.043c-0.659-9.933-2.12-19.881-4.341-29.566c-0.238-1.038,0.298-2.096,1.276-2.518
					l16.873-7.275l-25.832-59.904l-16.873,7.276c-0.977,0.422-2.115,0.085-2.707-0.801c-5.514-8.258-11.745-16.149-18.52-23.451
					c-0.724-0.78-0.787-1.964-0.153-2.816l10.966-14.727l-52.324-38.962l-10.993,14.763c-0.635,0.854-1.786,1.131-2.741,0.662
					c-8.923-4.384-18.261-8.095-27.755-11.029c-1.015-0.314-1.662-1.308-1.538-2.363l2.138-18.282l-64.796-7.58l-2.133,18.236
					c-0.124,1.056-0.983,1.873-2.043,1.943c-9.939,0.66-19.886,2.121-29.566,4.341c-1.038,0.237-2.096-0.299-2.518-1.276
					l-7.276-16.872l-59.904,25.832l7.275,16.872c0.421,0.978,0.084,2.115-0.8,2.707c-8.264,5.52-16.154,11.751-23.451,18.521
					c-0.781,0.724-1.966,0.786-2.816,0.153l-14.726-10.966l-38.962,52.323l14.763,10.993c0.853,0.635,1.13,1.787,0.662,2.741
					c-4.382,8.916-8.093,18.254-11.029,27.755c-0.314,1.015-1.315,1.665-2.363,1.538l-18.282-2.139l-7.581,64.796l18.236,2.134
					c1.056,0.124,1.873,0.983,1.943,2.043c0.661,9.94,2.122,19.887,4.342,29.566c0.238,1.038-0.298,2.096-1.276,2.518l-16.872,7.275
					l25.832,59.904l16.872-7.276c0.976-0.419,2.114-0.084,2.707,0.801c5.518,8.262,11.75,16.152,18.52,23.451
					c0.724,0.779,0.787,1.964,0.153,2.816l-10.966,14.726l52.324,38.962l10.993-14.763c0.636-0.853,1.788-1.129,2.741-0.662
					c8.921,4.383,18.26,8.094,27.756,11.03c1.015,0.314,1.662,1.308,1.538,2.363L1843.851,2088.021z M1900.448,2011.675
					c-47.207,0-92.304-26.856-113.452-71.89c-14.887-31.703-15.975-67.054-3.064-99.543c12.911-32.489,37.969-57.45,70.555-70.286
					c61.22-24.116,131.091,3.654,159.064,63.213c14.887,31.703,15.975,67.054,3.063,99.543
					c-12.911,32.489-37.968,57.45-70.554,70.286C1931.125,2008.879,1915.675,2011.675,1900.448,2011.675z M1855.295,1772.007
					l0.808,2.052c-31.442,12.384-55.618,36.467-68.075,67.811c-12.456,31.344-11.406,65.452,2.958,96.039
					c20.401,43.444,63.914,69.354,109.452,69.357c14.694,0,29.594-2.697,44.003-8.371c31.441-12.385,55.617-36.467,68.074-67.812
					c12.457-31.344,11.406-65.451-2.957-96.04c-26.983-57.459-94.39-84.248-153.455-60.983L1855.295,1772.007z"/>
			</g>
			<path style="fill:#D3BBA3;" d="M1900.262,2041.059c-46.592,0-91.999-21.078-121.948-59.581c-0.748-0.96-0.575-2.346,0.386-3.094
				c0.957-0.746,2.344-0.575,3.094,0.388c41.948,53.924,115.114,72.666,177.932,45.579c36.827-15.88,65.267-45.152,80.079-82.423
				c14.81-37.27,14.222-78.078-1.66-114.906c-29.189-67.692-104.868-104.574-176.015-85.788c-1.179,0.31-2.384-0.393-2.695-1.569
				c-0.311-1.178,0.392-2.384,1.569-2.695c35.412-9.348,73.182-5.7,106.36,10.268c33.51,16.13,60.087,43.843,74.831,78.036
				c16.348,37.909,16.954,79.916,1.708,118.281s-44.521,68.497-82.43,84.845C1941.661,2036.943,1920.844,2041.059,1900.262,2041.059
				z"/>
		</g>
	</g>
</g>
</svg>
