<?xml version="1.0" encoding="utf-8"?>
<!-- Generator: Adobe Illustrator 27.5.0, SVG Export Plug-In . SVG Version: 6.00 Build 0)  -->
<svg version="1.1" xmlns="http://www.w3.org/2000/svg" xmlns:xlink="http://www.w3.org/1999/xlink" x="0px" y="0px"
	 viewBox="0 0 2500 2500" style="enable-background:new 0 0 2500 2500;" xml:space="preserve">
-
<g id="Illustration">
	<g id="Voice_over_services_1_">
		<circle style="fill:transparent;" cx="1250" cy="1250" r="915"/>
		<g>
			<g>
				
					<ellipse transform="matrix(0.7071 -0.7071 0.7071 0.7071 -673.593 991.0418)" style="fill:#363E44;" cx="859.497" cy="1308.62" rx="133.421" ry="133.421"/>
				<path style="fill:#363E44;" d="M1099.587,1187.631c0,0,106.207,7.299,100.965-68.696
					c-5.241-75.996-91.761-65.514-136.289-41.929c-44.529,23.585-115.283-23.585-151.97,7.862
					c-36.688,31.447-23.372,177.438,49.896,193.541C1035.458,1294.511,1099.587,1187.631,1099.587,1187.631z"/>
			</g>
			<g>
				<g>
					<path style="fill:#E2A18D;" d="M1322.802,1511.715c220.109,91.378,327.534,168.97,286.141,249.456
						c-24.012,46.69-180.165,38.789-357.658-24.112C1269.144,1663.894,1299.235,1599.759,1322.802,1511.715z"/>
					<path style="fill:#E2A18D;" d="M601.288,1505.283c-81.931,87.561-333.116,326.841-236.979,424.268
						c79.52,80.587,314.423-162.526,401.15-244.584C710.736,1625.072,656.012,1565.178,601.288,1505.283z"/>
					<path style="fill:#ff6900;" d="M534.776,1488.934c0,0,219.358-104.285,420.736-86.305
						c201.378,17.98,398.261,97.093,398.261,97.093l-96.194,244.53l28.768,308.085H574.332l53.941-292.802L534.776,1488.934z"/>
				</g>
				<g>
					<path style="fill:#E2A18D;" d="M1389.733,1703.341c-0.005-0.003-0.008-0.009-0.005-0.015
						c78.83-200.769,130.908-344.724,148.732-388.533c1.866-4.587,5.124-12.7,12.058-21.702
						c25.689-33.357,60.67-25.478,103.687-48.227c48.81-25.812,61.68-67.981,74.752-62.695c9.093,3.677,8.717,20.95-4.819,53.035
						c13.086-23.195,32.212-53.874,45.009-46.605c14.327,9.184-3.904,47.869-16.077,70.733
						c14.734-27.674,30.849-37.982,36.974-32.151c9.641,9.178,3.213,33.3-17.679,69.119c21.335-20.703,29.598-22.544,33.756-16.07
						c7.591,11.821-10.14,40.947-29.761,64.291c-22.089,26.281-48.337,39.001-65.079,46.627c-0.004,0.002-0.008,0.006-0.009,0.011
						c-40.632,146.339-66.568,240.498-96.977,359.354c-6.222,24.316-31.944,38.085-55.636,29.799
						C1494.604,1757.912,1458.941,1744.155,1389.733,1703.341z"/>
					<path style="fill:#363E44;" d="M1390.62,1703.254c-0.267,0-0.539-0.049-0.804-0.153c-1.134-0.443-1.693-1.725-1.247-2.857
						c17.412-44.368,34.536-88.535,52.35-135.024c0.435-1.139,1.713-1.705,2.848-1.27c1.137,0.435,1.705,1.71,1.269,2.847
						c-17.817,46.501-34.946,90.68-52.363,135.058C1392.333,1702.725,1391.5,1703.254,1390.62,1703.254z"/>
					<path style="fill:#E2A18D;" d="M1619.615,1274.932c16.675-52.026,11.664-74.325,3.335-76.705
						c-14.007-4.002-46.425,34.587-80.373,107.553C1564.81,1299.11,1597.381,1281.602,1619.615,1274.932z"/>
					<path style="fill:#363E44;" d="M1626.953,1367.848c-0.223,0-0.449-0.032-0.672-0.103c-1.159-0.37-1.8-1.613-1.43-2.771
						c3.041-9.532,9.57-23.237,23.394-34.396c19.563-15.791,41.626-16.327,50.204-15.826c1.215,0.071,2.143,1.113,2.071,2.33
						c-0.07,1.214-1.087,2.119-2.33,2.071c-8.063-0.469-28.811,0.032-47.177,14.857c-12.974,10.473-19.104,23.347-21.962,32.304
						C1628.753,1367.252,1627.886,1367.848,1626.953,1367.848z"/>
					<path style="fill:#363E44;" d="M1572.6,1278.325c-0.78,0-1.535-0.413-1.936-1.146c-0.586-1.068-0.194-2.409,0.874-2.993
						c10.702-5.859,22.513-9.022,35.018-12.37c5.815-1.559,11.827-3.167,18.04-5.125c1.161-0.36,2.4,0.278,2.765,1.443
						c0.366,1.161-0.279,2.399-1.44,2.765c-6.304,1.983-12.363,3.607-18.224,5.176c-12.241,3.277-23.803,6.373-34.039,11.978
						C1573.32,1278.239,1572.958,1278.325,1572.6,1278.325z"/>
					<path style="fill:#363E44;" d="M1687.205,1270.69c-0.76,0-1.498-0.392-1.908-1.096c-0.613-1.053-0.255-2.403,0.797-3.014
						c5.635-3.277,10.983-7.088,15.9-11.328c7.135-6.151,13.437-13.259,18.731-21.127c0.679-1.008,2.052-1.279,3.06-0.599
						c1.011,0.68,1.279,2.052,0.599,3.062c-5.513,8.193-12.078,15.595-19.511,22.005c-5.121,4.414-10.693,8.384-16.561,11.797
						C1687.964,1270.593,1687.581,1270.69,1687.205,1270.69z"/>
					<path style="fill:#363E44;" d="M1717.916,1291.162c-0.76,0-1.499-0.392-1.908-1.096c-0.612-1.053-0.255-2.403,0.797-3.014
						c5.637-3.279,10.985-7.088,15.9-11.326c7.137-6.154,13.438-13.261,18.73-21.129c0.677-1.008,2.048-1.279,3.06-0.599
						c1.011,0.68,1.279,2.05,0.599,3.062c-5.511,8.19-12.075,15.595-19.51,22.007c-5.119,4.412-10.69,8.382-16.561,11.795
						C1718.674,1291.065,1718.292,1291.162,1717.916,1291.162z"/>
					<path style="fill:#363E44;" d="M1736.341,1332.108c-0.76,0-1.499-0.392-1.908-1.096c-0.613-1.053-0.255-2.403,0.797-3.014
						c5.637-3.279,10.985-7.088,15.9-11.326c7.137-6.154,13.439-13.261,18.731-21.129c0.678-1.008,2.048-1.277,3.06-0.599
						c1.011,0.68,1.279,2.05,0.599,3.062c-5.511,8.193-12.076,15.595-19.511,22.007c-5.119,4.412-10.69,8.382-16.561,11.795
						C1737.099,1332.011,1736.717,1332.108,1736.341,1332.108z"/>
				</g>
				<g>
					<path style="fill:#E2A18D;" d="M453.757,1751.534c92.615,20.151,313.067,56.809,334.444,61.244
						c39.961,8.292,253.264,58.354,249.378,89.916c-1.857,15.082-43.386,7.294-57.349,4.253c10.066,8.016,52.057,34.611,45.661,50.4
						c-7.514,18.548-62.402-5.482-63.492-5.318c11.048,7.103,56.201,33.617,51.867,45.64c-5.639,15.642-55.043,3.575-69.666-0.722
						c0.947,2.447,45.389,30.872,41.538,40.304c-4.266,10.451-50.603,0.301-69.331-2.014
						c-35.511-7.339-175.042-28.451-243.31-35.482c-160.335-16.513-209.814-34.865-285.932-56.485
						C357.767,1934.807,408.311,1774.724,453.757,1751.534z"/>
					<path style="fill:#363E44;" d="M622.282,1783.317c-0.131,0-0.264-0.011-0.397-0.037
						c-44.907-8.18-137.931-25.321-168.576-31.634c-1.193-0.245-1.96-1.412-1.715-2.605c0.245-1.193,1.412-1.955,2.604-1.714
						c30.606,6.304,123.587,23.437,168.477,31.617c1.198,0.217,1.993,1.365,1.774,2.564
						C624.255,1782.572,623.328,1783.317,622.282,1783.317z"/>
					<path style="fill:#363E44;" d="M981.028,1907.773c-0.395,0-0.796-0.106-1.157-0.33c-7.186-4.442-14.734-8.419-22.432-11.819
						c-13.841-6.115-28.486-10.522-43.528-13.102c-1.2-0.205-2.007-1.346-1.801-2.545c0.206-1.199,1.34-2,2.546-1.8
						c15.399,2.64,30.393,7.153,44.565,13.412c7.883,3.482,15.611,7.553,22.97,12.103c1.036,0.64,1.357,1.998,0.716,3.034
						C982.489,1907.402,981.767,1907.773,981.028,1907.773z"/>
					<path style="fill:#363E44;" d="M963.407,1953.374c-0.319,0-0.643-0.069-0.95-0.215c-1.599-0.764-3.236-1.518-4.914-2.261
						c-13.841-6.113-28.486-10.518-43.527-13.098c-1.2-0.205-2.007-1.346-1.801-2.545c0.206-1.199,1.338-2.005,2.546-1.8
						c15.397,2.64,30.391,7.151,44.564,13.41c1.72,0.762,3.397,1.533,5.034,2.315c1.098,0.525,1.564,1.841,1.039,2.939
						C965.018,1952.911,964.229,1953.374,963.407,1953.374z"/>
					<path style="fill:#363E44;" d="M943.724,1998.519c-0.237,0-0.478-0.039-0.715-0.119c-9.346-3.206-19.066-5.684-28.891-7.37
						c-1.2-0.205-2.007-1.346-1.801-2.545c0.207-1.202,1.349-2.011,2.546-1.8c10.057,1.725,20.008,4.263,29.576,7.542
						c1.152,0.396,1.766,1.649,1.37,2.801C945.496,1997.944,944.64,1998.519,943.724,1998.519z"/>
				</g>
			</g>
			<g>
				<g>
					<polygon style="fill:#E2A18D;" points="848.635,1424.963 935.499,1240.807 1040.305,1257.395 1010.358,1422.865 					"/>
					<path style="fill:#E2A18D;" d="M1032.846,1423.686c0,14.236-44.686,25.776-99.81,25.776c-55.123,0-99.809-11.54-99.809-25.776
						c0-14.235,44.686-29.515,99.809-29.515C988.16,1394.171,1032.846,1409.45,1032.846,1423.686z"/>
				</g>
				<path style="fill:#E2A18D;" d="M1128.602,1169.579c0,0-16.209,157.941-82.971,162.993
					c-40.392,3.056-77.411-43.389-86.389-65.191c-8.979-21.801,0-57.44,0-57.44s13.564,12.703,24.461,4.314
					c10.898-8.389-1.689-61.143,46.237-58.988C1077.866,1157.423,1083.066,1177.688,1128.602,1169.579z"/>
				<path style="fill:#E2A18D;" d="M981.656,1226.007c4.087,12.746,0.133,35.954-12.612,40.041
					c-12.746,4.087-29.458-12.495-33.544-25.241c-4.087-12.745,2.933-26.391,15.679-30.478
					C963.923,1206.242,977.569,1213.262,981.656,1226.007z"/>
				<g>
					<g>
						<path style="fill:#FFFFFF;" d="M1025.577,1203.406c0.026,0.322-0.187,0.572-0.161,0.895c0,0.013,0.006,0.024,0.008,0.037
							c-1.055,4.411-2.18,9.062-4.023,13.205c-0.816,1.834-2.111,2.838-3.076,4.48c-0.708,1.204-1.381,2.359-2.126,3.517
							c-10.158-11.085-13.58-24.888-13.58-24.888S1013.648,1199.715,1025.577,1203.406z"/>
						<path style="fill:#363E44;" d="M1038.92,1209.901c14.38,10.211,19.745,27.779,20.568,30.744
							c-0.172,0.177-0.348,0.351-0.525,0.522c-3.503,0.212-21.497,0.752-35.645-9.294c-2.653-1.884-4.974-4.029-7.042-6.278
							c-0.121-1.228-0.184-2.472-0.121-3.741c0.372-7.506,4.003-14.062,9.436-18.423
							C1030.052,1204.834,1034.66,1206.876,1038.92,1209.901z"/>
					</g>
					<g>
						<path style="fill:#FFFFFF;" d="M1108.857,1237.903c-0.171,5.357-1.292,9.373-4.415,13.449
							c-12.7-1.393-22.455-6.892-22.455-6.892s10.469-13.118,26.152-18.575C1109.355,1229.642,1108.978,1234.1,1108.857,1237.903z"
							/>
						<path style="fill:#363E44;" d="M1104.714,1251.377c-3.527-8.341-2.354-18.144,3.439-25.462c1.765-0.6,3.578-1.131,5.473-1.509
							c18.931-3.778,36.914,6.373,36.914,6.373s-12.709,16.276-31.639,20.055
							C1114.007,1251.809,1109.185,1251.845,1104.714,1251.377z"/>
					</g>
				</g>
				<g>
					<path style="fill:#363E44;" d="M948.354,1244.157c-0.94,0-1.81-0.605-2.104-1.55c-0.28-0.898-0.484-1.828-0.607-2.767
						c-0.489-3.729,0.291-7.417,2.195-10.38c1.981-3.081,4.928-5.021,8.3-5.463c1.713-0.228,3.429-0.047,5.093,0.53
						c1.151,0.398,1.76,1.654,1.361,2.806c-0.401,1.15-1.658,1.759-2.806,1.359c-1.01-0.349-2.044-0.452-3.074-0.323
						c-2.065,0.271-3.898,1.505-5.165,3.475c-1.343,2.089-1.886,4.724-1.532,7.424c0.089,0.689,0.239,1.372,0.444,2.03
						c0.363,1.163-0.286,2.399-1.449,2.76C948.792,1244.124,948.572,1244.157,948.354,1244.157z"/>
				</g>
				<path style="fill:#363E44;" d="M1072.911,1269.902c-0.648,0-1.291-0.284-1.726-0.831c-0.759-0.952-0.602-2.34,0.351-3.098
					c1.685-1.342,2.629-2.73,2.807-4.13c0.172-1.335-0.398-2.405-1.507-4.336c-0.852-1.484-1.912-3.331-2.67-5.794
					c-0.967-3.144-1.212-6.546-0.729-10.113c0.164-1.208,1.285-2.043,2.48-1.891c1.207,0.164,2.052,1.275,1.888,2.48
					c-0.396,2.93-0.204,5.699,0.575,8.227c0.613,1.992,1.46,3.467,2.279,4.894c1.193,2.078,2.425,4.224,2.057,7.092
					c-0.328,2.575-1.819,4.937-4.433,7.019C1073.878,1269.745,1073.394,1269.902,1072.911,1269.902z"/>
				<path style="fill:#363E44;" d="M1053.676,1289.911c-2.328,0-4.431-0.596-6.286-1.787c-5.485-3.525-6.486-10.962-6.526-11.276
					c-0.153-1.208,0.702-2.313,1.91-2.465c1.212-0.144,2.307,0.7,2.464,1.903c0.01,0.075,0.807,5.747,4.552,8.137
					c1.977,1.262,4.557,1.406,7.677,0.437c1.156-0.366,2.397,0.284,2.761,1.447c0.363,1.163-0.285,2.399-1.448,2.76
					C1056.978,1289.631,1055.274,1289.911,1053.676,1289.911z"/>
				<g>
					<g>
						
							<ellipse transform="matrix(0.9696 -0.2448 0.2448 0.9696 -270.3817 266.472)" style="fill:#EFBC73;" cx="936.912" cy="1221.068" rx="45.342" ry="62.565"/>
						<path style="fill:#EFBC73;" d="M943.926,1200.53c-1.218,0-2.205-0.986-2.205-2.205v-56.331
							c-2.523-52.425,34.979-85.376,67.862-97.634c35.956-13.403,71.399-6.496,90.306,17.589c0.751,0.958,0.585,2.343-0.372,3.094
							c-0.957,0.756-2.344,0.59-3.096-0.372c-17.698-22.546-51.181-28.897-85.297-16.179c-31.49,11.737-67.406,43.242-64.995,93.397
							l0.002,56.436C946.131,1199.544,945.144,1200.53,943.926,1200.53z"/>
						<path style="fill:#363E44;" d="M932.378,1260.394c-0.278,0-0.56-0.052-0.833-0.164c-11.392-4.657-20.796-16.769-24.544-31.61
							c-2.697-10.684-2.205-21.519,1.384-30.51c3.687-9.235,10.191-15.451,18.313-17.501c9.303-2.345,19.343,1.152,27.54,9.609
							c0.847,0.874,0.826,2.272-0.049,3.118c-0.872,0.848-2.269,0.827-3.118-0.047c-7.07-7.297-15.565-10.363-23.293-8.404
							c-6.716,1.694-12.148,6.972-15.297,14.861c-3.248,8.132-3.675,18.005-1.204,27.793c3.411,13.511,11.815,24.473,21.936,28.609
							c1.127,0.461,1.668,1.748,1.207,2.874C934.07,1259.877,933.247,1260.394,932.378,1260.394z"/>
					</g>
				</g>
				<g>
					<path style="fill:#363E44;" d="M1029.956,1318.597c-61.154,0-79.179-46.353-79.368-46.863
						c-0.425-1.139,0.155-2.407,1.294-2.834c1.142-0.426,2.409,0.153,2.837,1.292c0.796,2.119,20.281,51.779,91.177,42.975
						c1.206-0.172,2.309,0.706,2.459,1.916c0.151,1.208-0.707,2.31-1.916,2.459
						C1040.627,1318.264,1035.135,1318.597,1029.956,1318.597z"/>
					
						<ellipse transform="matrix(0.7071 -0.7071 0.7071 0.7071 -620.7994 1127.5496)" style="fill:#363E44;" cx="1050.673" cy="1313.146" rx="15.142" ry="15.142"/>
				</g>
			</g>
		</g>
		<g>
			<g>
				<g>
					<path style="fill:#363E44;" d="M1353.089,862.617c-1.218,0-2.205-0.986-2.205-2.205v-149.82c0-1.195,0.951-2.17,2.145-2.205
						l486.945-13.309c0.617,0.021,1.171,0.211,1.598,0.624c0.426,0.416,0.667,0.986,0.667,1.58v122.23
						c0,1.219-0.987,2.205-2.205,2.205c-1.218,0-2.205-0.986-2.205-2.205V699.549l-482.536,13.188v147.675
						C1355.294,861.631,1354.307,862.617,1353.089,862.617z"/>
					<path style="fill:#363E44;" d="M1353.089,851.271c-9.169,0-16.671-7.502-16.671-16.671v-43.969
						c0-9.169,7.502-16.671,16.671-16.671c9.169,0,16.671,7.502,16.671,16.671v43.969
						C1369.76,843.769,1362.258,851.271,1353.089,851.271z"/>
					<path style="fill:#363E44;" d="M1838.692,827.622c-9.169,0-16.671-7.502-16.671-16.67v-43.969
						c0-9.169,7.502-16.67,16.671-16.67s16.671,7.502,16.671,16.67v43.969C1855.362,820.12,1847.861,827.622,1838.692,827.622z"/>
				</g>
				<ellipse style="fill:#EFBC73;" cx="1353.089" cy="1012.896" rx="79.017" ry="176.767"/>
			</g>
			<g>
				<g>
					<path style="fill:#363E44;" d="M1936.418,2084.802c-0.105,0-0.212-0.007-0.32-0.024c-1.206-0.175-2.04-1.292-1.866-2.498
						l117.765-810.87l-188.885-366.166l-135.411,50.765c-1.138,0.422-2.41-0.149-2.839-1.292c-0.427-1.139,0.151-2.409,1.291-2.838
						l137.247-51.452c1.052-0.394,2.222,0.06,2.733,1.055l190.108,368.534c0.211,0.407,0.288,0.872,0.223,1.326l-117.866,811.569
						C1938.438,2084.012,1937.495,2084.802,1936.418,2084.802z"/>
					<path style="fill:#363E44;" d="M1769.112,915.732l-55.662,17.338c-10.316,3.213-16.127,14.282-12.914,24.598
						c3.213,10.316,14.282,16.127,24.598,12.913l55.662-17.338c10.316-3.213,16.127-14.282,12.913-24.598
						S1779.428,912.519,1769.112,915.732z"/>
				</g>
				<g>
					<path style="fill:#40484C;" d="M1607.066,1073.332l-124.418,38.755c-29.147,9.079-60.134-7.189-69.213-36.336l-14.534-46.661
						c-9.079-29.146,7.189-60.134,36.336-69.213l124.418-38.755L1607.066,1073.332z"/>
					<g>
						<path style="fill:#2D353A;" d="M1489.202,980.901c-1.874-6.015-8.268-9.372-14.283-7.498
							c-6.015,1.873-9.372,8.268-7.498,14.283c1.874,6.015,8.268,9.372,14.283,7.498
							C1487.718,993.31,1491.075,986.915,1489.202,980.901z"/>
						<path style="fill:#2D353A;" d="M1501.317,1019.797c-1.873-6.015-8.268-9.372-14.283-7.498
							c-6.015,1.873-9.372,8.268-7.498,14.283c1.874,6.015,8.268,9.372,14.283,7.498
							C1499.834,1032.206,1503.191,1025.811,1501.317,1019.797z"/>
						<circle style="fill:#2D353A;" cx="1503.188" cy="1064.156" r="11.406"/>
						
							<ellipse transform="matrix(0.7632 -0.6461 0.6461 0.7632 -289.9422 1164.1897)" style="fill:#2D353A;" cx="1443.516" cy="977.709" rx="11.407" ry="11.406"/>
						<path style="fill:#2D353A;" d="M1466.522,1013.212c-1.874-6.015-8.268-9.372-14.283-7.498
							c-6.015,1.873-9.372,8.268-7.498,14.283c1.873,6.015,8.268,9.372,14.283,7.498
							C1465.038,1025.621,1468.395,1019.227,1466.522,1013.212z"/>
						
							<ellipse transform="matrix(0.4648 -0.8854 0.8854 0.4648 -150.5303 1866.1022)" style="fill:#2D353A;" cx="1468.392" cy="1057.571" rx="11.406" ry="11.406"/>
						
							<ellipse transform="matrix(0.4648 -0.8854 0.8854 0.4648 -175.6417 1894.4373)" style="fill:#2D353A;" cx="1479.276" cy="1092.511" rx="11.406" ry="11.406"/>
						<path style="fill:#2D353A;" d="M1430.212,999.275c-1.873-6.015-8.268-9.372-14.283-7.498s-9.372,8.268-7.498,14.283
							s8.268,9.372,14.283,7.498C1428.729,1011.684,1432.085,1005.29,1430.212,999.275z"/>
						<path style="fill:#2D353A;" d="M1442.328,1038.171c-1.874-6.015-8.268-9.372-14.283-7.498
							c-6.015,1.874-9.372,8.268-7.498,14.283c1.873,6.015,8.268,9.372,14.282,7.498
							C1440.844,1050.58,1444.201,1044.186,1442.328,1038.171z"/>
						
							<ellipse transform="matrix(0.4648 -0.8854 0.8854 0.4648 -185.577 1858.0381)" style="fill:#2D353A;" cx="1444.198" cy="1082.53" rx="11.406" ry="11.406"/>
					</g>
				</g>
				<g>
					
						<rect x="1551.897" y="903.15" transform="matrix(0.9548 -0.2974 0.2974 0.9548 -218.5713 529.0704)" style="fill:#363E44;" width="155.172" height="159.422"/>
					<path style="fill:#EFBC73;" d="M1505.219,910.867c-10.359,3.227-16.14,14.239-12.913,24.598l51.181,164.31
						c3.227,10.358,14.239,16.14,24.598,12.913c10.358-3.226,16.14-14.239,12.913-24.598l-51.181-164.31
						C1526.591,913.422,1515.578,907.64,1505.219,910.867z"/>
					<path style="fill:#EFBC73;" d="M1690.882,853.035c-10.359,3.227-16.14,14.239-12.913,24.598l51.181,164.31
						c3.227,10.358,14.239,16.14,24.598,12.913c10.358-3.227,16.14-14.239,12.913-24.598l-51.181-164.31
						C1712.253,855.59,1701.241,849.808,1690.882,853.035z"/>
				</g>
			</g>
			<g>
				<g>
					<path style="fill:#363E44;" d="M1995.365,2113.931c-0.523,0-1.051-0.031-1.583-0.095c-7.328-0.866-12.567-7.508-11.701-14.836
						l98.579-834.755l-109.841-468.044h-369.761l15.92,123.597c0.943,7.318-4.226,14.015-11.544,14.957
						c-7.324,0.928-14.015-4.227-14.958-11.546l-17.86-138.663c-0.49-3.807,0.682-7.646,3.219-10.528
						c2.536-2.885,6.192-4.538,10.032-4.538h395.541c6.203,0,11.589,4.27,13.007,10.307l112.797,480.637
						c0.354,1.514,0.444,3.077,0.261,4.621l-98.855,837.09C2007.815,2108.93,2002.044,2113.929,1995.365,2113.931z"/>
				</g>
				<g>
					<circle style="fill:#EFBC73;" cx="1579.646" cy="793.614" r="53.287"/>
					
						<ellipse transform="matrix(0.3827 -0.9239 0.9239 0.3827 241.9385 1949.3142)" style="fill:#FFD092;" cx="1579.646" cy="793.614" rx="36.673" ry="36.673"/>
				</g>
				<g>
					<circle style="fill:#EFBC73;" cx="1981.407" cy="782.841" r="53.287"/>
					
						<ellipse transform="matrix(0.9871 -0.1602 0.1602 0.9871 -99.8123 327.4949)" style="fill:#FFD092;" cx="1981.407" cy="782.841" rx="36.673" ry="36.673"/>
				</g>
				<g>
					
						<ellipse transform="matrix(0.9732 -0.2298 0.2298 0.9732 -234.2659 514.9485)" style="fill:#EFBC73;" cx="2094.204" cy="1263.479" rx="61.941" ry="61.941"/>
					
						<ellipse transform="matrix(0.9732 -0.2298 0.2298 0.9732 -234.2658 514.9483)" style="fill:#FFD092;" cx="2094.204" cy="1263.479" rx="42.629" ry="42.629"/>
				</g>
			</g>
		</g>
		<rect x="335.001" y="2014.97" style="fill:#D3BBA3;" width="1827.723" height="150.03"/>
		<g>
			<path style="fill:#D3BBA3;" d="M874.156,1033.446c-0.574,0-1.137-0.224-1.559-0.646l-96.985-96.986h-369.77
				c-1.218,0-2.205-0.986-2.205-2.205V623.407c0-1.219,0.987-2.205,2.205-2.205h515.794c1.218,0,2.205,0.986,2.205,2.205v310.201
				c0,1.219-0.987,2.205-2.205,2.205h-45.275v95.427c0,0.891-0.537,1.697-1.361,2.037
				C874.726,1033.392,874.44,1033.446,874.156,1033.446z M408.047,931.404h368.478c0.585,0,1.145,0.233,1.559,0.646l93.867,93.868
				v-92.31c0-1.219,0.987-2.205,2.205-2.205h45.275V625.612H408.047V931.404z"/>
			<g>
				<path style="fill:#D87355;" d="M641.333,538.23c-30.588,0-55.385,24.797-55.385,55.385V729.82
					c0,30.589,24.797,55.385,55.385,55.385c30.588,0,55.386-24.797,55.386-55.385V593.615
					C696.718,563.026,671.921,538.23,641.333,538.23z"/>
				<path style="fill:#363E44;" d="M713.963,822.539H568.701c-1.218,0-2.205-0.986-2.205-2.205V711.443
					c0-1.219,0.987-2.205,2.205-2.205c1.218,0,2.205,0.986,2.205,2.205v106.686h140.852V711.443c0-1.219,0.987-2.205,2.205-2.205
					s2.205,0.986,2.205,2.205v108.891C716.168,821.553,715.181,822.539,713.963,822.539z"/>
				<path style="fill:#363E44;" d="M641.332,870.453c-1.218,0-2.205-0.986-2.205-2.205v-25.228c0-1.219,0.987-2.205,2.205-2.205
					s2.205,0.986,2.205,2.205v25.228C643.537,869.467,642.55,870.453,641.332,870.453z"/>
				<path style="fill:#363E44;" d="M728.32,894.215H554.345c-1.218,0-2.205-0.986-2.205-2.205s0.987-2.205,2.205-2.205H728.32
					c1.218,0,2.205,0.986,2.205,2.205S729.538,894.215,728.32,894.215z"/>
			</g>
		</g>
		<g>
			<g>
				<g>
					<rect x="856.215" y="1514.318" style="fill:#363E44;" width="706.028" height="500.652"/>
					<path style="fill:#363E44;" d="M1283.549,2025.578h-20.902c0,15.68-12.711,28.391-28.391,28.391h-50.053
						c-15.68,0-28.391-12.711-28.391-28.391h-20.902l-20.903,111.082v9.29h190.443v-9.29L1283.549,2025.578z"/>
					<path style="fill:#363E44;" d="M1304.451,2159.766h-190.442c-1.218,0-2.205-0.986-2.205-2.205c0-1.219,0.987-2.205,2.205-2.205
						h190.442c1.218,0,2.205,0.986,2.205,2.205C1306.656,2158.78,1305.668,2159.766,1304.451,2159.766z"/>
				</g>
			</g>
		</g>
		<g>
			<path style="fill:#D3BBA3;" d="M971.077,658.135c-1.218,0-2.205-0.986-2.205-2.205v-71.015c0-1.219,0.987-2.205,2.205-2.205
				s2.205,0.986,2.205,2.205v71.015C973.282,657.149,972.295,658.135,971.077,658.135z"/>
			<path style="fill:#D3BBA3;" d="M1013.021,717.326c-1.218,0-2.205-0.986-2.205-2.205V525.726c0-1.219,0.987-2.205,2.205-2.205
				s2.205,0.986,2.205,2.205v189.395C1015.226,716.339,1014.238,717.326,1013.021,717.326z"/>
			<path style="fill:#D3BBA3;" d="M1054.965,774.36c-1.218,0-2.205-0.986-2.205-2.205V468.691c0-1.219,0.987-2.205,2.205-2.205
				c1.218,0,2.205,0.986,2.205,2.205v303.464C1057.17,773.374,1056.183,774.36,1054.965,774.36z"/>
			<path style="fill:#D3BBA3;" d="M1096.909,688.036c-1.218,0-2.205-0.986-2.205-2.205V555.015c0-1.219,0.987-2.205,2.205-2.205
				s2.205,0.986,2.205,2.205v130.816C1099.114,687.05,1098.127,688.036,1096.909,688.036z"/>
			<path style="fill:#D3BBA3;" d="M1138.854,639.862c-1.218,0-2.205-0.986-2.205-2.205v-34.47c0-1.219,0.987-2.205,2.205-2.205
				c1.218,0,2.205,0.986,2.205,2.205v34.47C1141.058,638.876,1140.071,639.862,1138.854,639.862z"/>
			<path style="fill:#D3BBA3;" d="M1159.618,658.135c-1.218,0-2.205-0.986-2.205-2.205v-71.015c0-1.219,0.987-2.205,2.205-2.205
				c1.218,0,2.205,0.986,2.205,2.205v71.015C1161.822,657.149,1160.835,658.135,1159.618,658.135z"/>
			<path style="fill:#D3BBA3;" d="M1201.562,717.326c-1.218,0-2.205-0.986-2.205-2.205V525.726c0-1.219,0.987-2.205,2.205-2.205
				c1.218,0,2.205,0.986,2.205,2.205v189.395C1203.767,716.339,1202.779,717.326,1201.562,717.326z"/>
			<path style="fill:#D3BBA3;" d="M1243.506,670.591c-1.218,0-2.205-0.986-2.205-2.205V572.46c0-1.219,0.987-2.205,2.205-2.205
				s2.205,0.986,2.205,2.205v95.927C1245.711,669.605,1244.724,670.591,1243.506,670.591z"/>
			<path style="fill:#D3BBA3;" d="M1285.449,688.036c-1.218,0-2.205-0.986-2.205-2.205V555.015c0-1.219,0.987-2.205,2.205-2.205
				c1.218,0,2.205,0.986,2.205,2.205v130.816C1287.654,687.05,1286.667,688.036,1285.449,688.036z"/>
			<path style="fill:#D3BBA3;" d="M1327.394,639.862c-1.218,0-2.205-0.986-2.205-2.205v-34.47c0-1.219,0.987-2.205,2.205-2.205
				c1.218,0,2.205,0.986,2.205,2.205v34.47C1329.599,638.876,1328.611,639.862,1327.394,639.862z"/>
		</g>
		<g>
			<g>
				<path style="fill:#363E44;" d="M2084.078,1835.147c-0.513,0-1.028-0.179-1.446-0.54c-0.919-0.801-1.016-2.192-0.216-3.111
					l10.698-12.299c0.799-0.922,2.191-1.014,3.11-0.217c0.919,0.801,1.016,2.192,0.216,3.111l-10.698,12.299
					C2085.307,1834.891,2084.694,1835.147,2084.078,1835.147z"/>
				<path style="fill:#363E44;" d="M2079.885,1876.053c-0.542,0-1.085-0.198-1.51-0.599c-0.887-0.833-0.93-2.231-0.096-3.118
					l13.705-14.573c0.835-0.887,2.232-0.93,3.117-0.095c0.887,0.833,0.93,2.231,0.096,3.118l-13.705,14.573
					C2081.058,1875.82,2080.472,1876.053,2079.885,1876.053z"/>
				<path style="fill:#363E44;" d="M2069.732,1928.325c-0.656,0-1.306-0.293-1.741-0.85c-0.748-0.96-0.576-2.345,0.385-3.094
					l20.573-16.024c0.956-0.745,2.344-0.575,3.094,0.385c0.748,0.96,0.576,2.345-0.385,3.094l-20.573,16.024
					C2070.684,1928.172,2070.206,1928.325,2069.732,1928.325z"/>
				<path style="fill:#363E44;" d="M2062.757,1965.72c-0.706,0-1.399-0.338-1.826-0.967c-0.685-1.008-0.422-2.377,0.585-3.062
					l14.159-9.616c1.009-0.685,2.379-0.422,3.063,0.586c0.685,1.008,0.422,2.377-0.585,3.062l-14.159,9.616
					C2063.614,1965.598,2063.183,1965.72,2062.757,1965.72z"/>
				<path style="fill:#363E44;" d="M2050.756,2003.015c-0.816,0-1.6-0.454-1.982-1.236c-0.536-1.094-0.083-2.414,1.011-2.95
					l15.211-7.446c1.091-0.538,2.415-0.082,2.949,1.012c0.536,1.094,0.083,2.414-1.011,2.95l-15.211,7.446
					C2051.412,2002.944,2051.082,2003.015,2050.756,2003.015z"/>
				
					<ellipse transform="matrix(0.2089 -0.9779 0.9779 0.2089 -252.4223 3531.5913)" style="fill:#ff6900;" cx="2056.612" cy="1921.814" rx="139.753" ry="82.732"/>
				<path style="fill:#776E42;" d="M2085.798,1785.142c-0.145-0.031-0.293-0.033-0.436-0.06l-58.358,273.28
					c0.142,0.033,0.278,0.093,0.423,0.124c25.73,5.491,59.655-51.248,75.774-126.729
					C2119.319,1856.275,2111.529,1790.634,2085.798,1785.142z"/>
				<path style="fill:#363E44;" d="M2005.291,2027.326c-1.014,0-1.927-0.704-2.152-1.735c-6.314-28.919-4.591-70.537,4.73-114.181
					c10.13-47.434,27.636-89.252,46.829-111.865c0.789-0.924,2.179-1.038,3.107-0.254c0.929,0.788,1.042,2.181,0.254,3.109
					c-18.743,22.08-35.893,63.175-45.877,109.931c-9.059,42.419-10.829,84.408-4.735,112.321c0.26,1.188-0.494,2.364-1.684,2.623
					C2005.605,2027.309,2005.447,2027.326,2005.291,2027.326z"/>
				<path style="fill:#363E44;" d="M2060.438,2040.366c-0.463,0-0.93-0.144-1.327-0.446c-0.972-0.734-1.164-2.119-0.428-3.09
					c17.296-22.869,33.133-62.321,42.361-105.534c10.286-48.166,11.092-94.932,2.103-122.049c-0.383-1.156,0.243-2.403,1.4-2.786
					c1.155-0.375,2.404,0.245,2.786,1.399c9.221,27.819,8.464,75.468-1.976,124.357c-9.356,43.812-25.49,83.914-43.158,107.274
					C2061.765,2040.064,2061.105,2040.366,2060.438,2040.366z"/>
				<path style="fill:#363E44;" d="M2008.714,1860.869c-0.664,0-1.321-0.299-1.755-0.868l-15.956-20.903
					c-0.739-0.967-0.553-2.351,0.414-3.09c0.968-0.743,2.352-0.553,3.091,0.416l15.956,20.903c0.739,0.967,0.553,2.351-0.415,3.09
					C2009.651,1860.722,2009.18,1860.869,2008.714,1860.869z"/>
				<path style="fill:#363E44;" d="M1995.734,1912.538c-0.548,0-1.097-0.202-1.524-0.612l-27.45-26.273
					c-0.88-0.842-0.911-2.237-0.069-3.118c0.844-0.879,2.237-0.913,3.118-0.069l27.451,26.273c0.88,0.842,0.911,2.237,0.069,3.118
					C1996.893,1912.309,1996.314,1912.538,1995.734,1912.538z"/>
				<path style="fill:#363E44;" d="M1985.931,1949.331c-0.506,0-1.015-0.174-1.431-0.527l-19.739-16.85
					c-0.926-0.79-1.036-2.183-0.245-3.109c0.79-0.924,2.181-1.036,3.109-0.245l19.739,16.85c0.926,0.79,1.036,2.183,0.245,3.109
					C1987.173,1949.068,1986.554,1949.331,1985.931,1949.331z"/>
				<path style="fill:#363E44;" d="M1985.23,1989.037c-0.426,0-0.858-0.123-1.237-0.381l-22.927-15.584
					c-1.008-0.685-1.269-2.056-0.585-3.064c0.685-1.003,2.058-1.27,3.063-0.583l22.927,15.584c1.008,0.685,1.269,2.056,0.585,3.064
					C1986.629,1988.699,1985.936,1989.037,1985.23,1989.037z"/>
				<path style="fill:#363E44;" d="M2126.501,1844.208c-0.747,0-1.476-0.379-1.89-1.066c-0.629-1.042-0.293-2.399,0.749-3.027
					l17.858-10.77c1.041-0.633,2.397-0.295,3.027,0.749c0.629,1.042,0.293,2.399-0.75,3.027l-17.858,10.77
					C2127.281,1844.106,2126.888,1844.208,2126.501,1844.208z"/>
				<path style="fill:#363E44;" d="M2117.073,1938.436c-0.906,0-1.755-0.562-2.077-1.464c-0.409-1.145,0.188-2.407,1.335-2.816
					l35.789-12.777c1.149-0.413,2.409,0.187,2.819,1.335c0.409,1.146-0.188,2.407-1.335,2.816l-35.789,12.777
					C2117.57,1938.395,2117.32,1938.436,2117.073,1938.436z"/>
				<path style="fill:#363E44;" d="M2101.041,2004.107c-1.049,0-1.978-0.749-2.168-1.817c-0.214-1.199,0.585-2.345,1.783-2.558
					l27.294-4.868c1.211-0.211,2.345,0.583,2.558,1.783c0.214,1.199-0.585,2.345-1.783,2.558l-27.294,4.868
					C2101.299,2004.096,2101.169,2004.107,2101.041,2004.107z"/>
				<path style="fill:#363E44;" d="M2079.885,1876.053c-0.542,0-1.085-0.198-1.51-0.599c-0.887-0.833-0.93-2.231-0.096-3.118
					l13.705-14.573c0.835-0.887,2.232-0.93,3.117-0.095c0.887,0.833,0.93,2.231,0.096,3.118l-13.705,14.573
					C2081.058,1875.82,2080.472,1876.053,2079.885,1876.053z"/>
				<path style="fill:#363E44;" d="M2062.757,1965.72c-0.706,0-1.399-0.338-1.826-0.967c-0.685-1.008-0.422-2.377,0.585-3.062
					l14.159-9.616c1.009-0.685,2.379-0.422,3.063,0.586c0.685,1.008,0.422,2.377-0.585,3.062l-14.159,9.616
					C2063.614,1965.598,2063.183,1965.72,2062.757,1965.72z"/>
				<path style="fill:#363E44;" d="M2065.825,1831.252c-0.945,0-1.82-0.612-2.108-1.563l-4.741-15.595
					c-0.354-1.165,0.302-2.396,1.467-2.752c1.166-0.355,2.396,0.304,2.751,1.468l4.741,15.595c0.354,1.165-0.302,2.396-1.468,2.752
					C2066.254,1831.222,2066.037,1831.252,2065.825,1831.252z"/>
				<path style="fill:#363E44;" d="M2040.866,1922.162c-0.789,0-1.553-0.424-1.95-1.171l-12.234-23.026
					c-0.571-1.074-0.162-2.409,0.913-2.98c1.074-0.575,2.41-0.164,2.982,0.913l12.234,23.026c0.571,1.074,0.163,2.409-0.913,2.98
					C2041.569,1922.08,2041.215,1922.162,2040.866,1922.162z"/>
				<path style="fill:#363E44;" d="M2027.678,1998.091c-0.632,0-1.258-0.269-1.695-0.792l-10.843-13.007
					c-0.779-0.937-0.654-2.325,0.282-3.107c0.935-0.779,2.323-0.655,3.105,0.282l10.843,13.007c0.779,0.937,0.653,2.325-0.282,3.107
					C2028.676,1997.923,2028.175,1998.091,2027.678,1998.091z"/>
			</g>
			<g>
				<path style="fill:#363E44;" d="M1939.718,1897.828c-0.078,0-0.156-0.004-0.235-0.013c-1.21-0.127-2.089-1.212-1.962-2.422
					l1.347-12.785c0.127-1.212,1.213-2.086,2.425-1.962c1.21,0.127,2.089,1.212,1.961,2.422l-1.347,12.785
					C1941.788,1896.986,1940.831,1897.828,1939.718,1897.828z"/>
				<path style="fill:#363E44;" d="M1955.52,1926.161c-0.106,0-0.212-0.006-0.32-0.024c-1.205-0.174-2.04-1.292-1.866-2.498
					l2.262-15.617c0.176-1.204,1.291-2.06,2.499-1.865c1.205,0.174,2.04,1.292,1.866,2.498l-2.262,15.617
					C1957.539,1925.37,1956.597,1926.161,1955.52,1926.161z"/>
				<path style="fill:#363E44;" d="M1972.613,1964.534c-0.215,0-0.433-0.03-0.649-0.097c-1.164-0.357-1.817-1.591-1.46-2.756
					l6.043-19.66c0.358-1.165,1.589-1.824,2.756-1.46c1.164,0.357,1.817,1.591,1.46,2.756l-6.043,19.66
					C1974.428,1963.925,1973.555,1964.534,1972.613,1964.534z"/>
				<path style="fill:#363E44;" d="M1985.028,1991.857c-0.26,0-0.525-0.045-0.784-0.144c-1.138-0.433-1.71-1.705-1.277-2.844
					l4.798-12.62c0.433-1.139,1.705-1.712,2.844-1.277c1.138,0.433,1.71,1.705,1.277,2.844l-4.798,12.62
					C1986.754,1991.317,1985.917,1991.857,1985.028,1991.857z"/>
				<path style="fill:#363E44;" d="M1994.15,2021.388c-0.361,0-0.726-0.088-1.064-0.276c-1.066-0.588-1.453-1.929-0.865-2.995
					l6.459-11.694c0.59-1.066,1.929-1.453,2.996-0.863c1.066,0.588,1.453,1.929,0.865,2.995l-6.459,11.694
					C1995.68,2020.976,1994.927,2021.388,1994.15,2021.388z"/>
				
					<ellipse transform="matrix(0.9208 -0.3901 0.3901 0.9208 -611.23 921.0573)" style="fill:#776E42;" cx="1962.185" cy="1965.481" rx="65.265" ry="110.254"/>
				<path style="fill:#ff6900;" d="M1919.191,1863.956c-0.108,0.045-0.205,0.111-0.309,0.159l85.969,203.003
					c0.107-0.043,0.221-0.066,0.329-0.111c19.114-8.09,15.358-60.102-8.388-116.174
					C1973.047,1894.762,1938.304,1855.866,1919.191,1863.956z"/>
				<path style="fill:#363E44;" d="M1975.775,2057.662c-0.534,0-1.07-0.194-1.493-0.583c-17.215-15.875-34.978-43.608-48.733-76.09
					c-14.952-35.305-22.578-70.333-20.401-93.698c0.113-1.212,1.159-2.121,2.4-1.992c1.212,0.114,2.104,1.189,1.991,2.401
					c-2.112,22.673,5.391,56.905,20.072,91.571c13.319,31.453,31.138,59.33,47.661,74.566c0.896,0.827,0.952,2.22,0.127,3.116
					C1976.963,2057.423,1976.37,2057.662,1975.775,2057.662z"/>
				<path style="fill:#363E44;" d="M2017.318,2041.143c-0.027,0-0.054,0-0.082-0.002c-1.217-0.043-2.167-1.066-2.123-2.282
					c0.826-22.541-6.782-55.125-20.351-87.166c-15.12-35.706-35.708-66.22-53.729-79.634c-0.976-0.726-1.179-2.108-0.452-3.083
					c0.728-0.975,2.11-1.18,3.085-0.452c18.613,13.853,39.747,45.063,55.156,81.451c13.808,32.605,21.545,65.893,20.698,89.043
					C2019.476,2040.208,2018.499,2041.143,2017.318,2041.143z"/>
				<path style="fill:#363E44;" d="M1896.29,1916.213c-0.253,0-0.51-0.043-0.761-0.136l-15.44-5.68
					c-1.143-0.42-1.729-1.688-1.308-2.831c0.421-1.141,1.688-1.731,2.83-1.307l15.44,5.68c1.143,0.42,1.729,1.688,1.308,2.831
					C1898.031,1915.662,1897.188,1916.213,1896.29,1916.213z"/>
				<path style="fill:#363E44;" d="M1917.65,1987.805c-0.112,0-0.225-0.009-0.339-0.026l-29.63-4.563
					c-1.204-0.185-2.028-1.311-1.843-2.515c0.185-1.204,1.305-2.022,2.515-1.843l29.63,4.563c1.204,0.185,2.028,1.311,1.843,2.515
					C1919.658,1987.026,1918.719,1987.805,1917.65,1987.805z"/>
				<path style="fill:#363E44;" d="M1923.612,2042.291c-1.204,0-2.186-0.967-2.204-2.175c-0.016-1.217,0.957-2.218,2.175-2.235
					l21.869-0.299c1.173-0.118,2.217,0.956,2.235,2.175c0.016,1.216-0.957,2.218-2.175,2.235l-21.87,0.299
					C1923.633,2042.291,1923.623,2042.291,1923.612,2042.291z"/>
				<path style="fill:#363E44;" d="M1990.019,1911.562c-0.329,0-0.664-0.073-0.98-0.23c-1.091-0.543-1.534-1.867-0.991-2.956
					l9.243-18.573c0.542-1.089,1.861-1.54,2.955-0.993c1.091,0.543,1.534,1.867,0.991,2.956l-9.243,18.573
					C1991.609,1911.115,1990.83,1911.562,1990.019,1911.562z"/>
				<path style="fill:#363E44;" d="M2020.862,1976.695c-0.483,0-0.969-0.157-1.375-0.482c-0.952-0.76-1.107-2.147-0.347-3.098
					l12.778-15.996c0.758-0.954,2.149-1.107,3.098-0.347c0.952,0.76,1.107,2.147,0.347,3.098l-12.778,15.996
					C2022.151,1976.411,2021.509,1976.695,2020.862,1976.695z"/>
				<path style="fill:#363E44;" d="M1939.718,1897.828c-0.078,0-0.156-0.004-0.235-0.013c-1.21-0.127-2.089-1.212-1.962-2.422
					l1.347-12.785c0.127-1.212,1.213-2.086,2.425-1.962c1.21,0.127,2.089,1.212,1.961,2.422l-1.347,12.785
					C1941.788,1896.986,1940.831,1897.828,1939.718,1897.828z"/>
				<path style="fill:#363E44;" d="M1972.613,1964.534c-0.215,0-0.433-0.03-0.649-0.097c-1.164-0.357-1.817-1.591-1.46-2.756
					l6.043-19.66c0.358-1.165,1.589-1.824,2.756-1.46c1.164,0.357,1.817,1.591,1.46,2.756l-6.043,19.66
					C1974.428,1963.925,1973.555,1964.534,1972.613,1964.534z"/>
				<path style="fill:#363E44;" d="M1994.15,2021.388c-0.361,0-0.726-0.088-1.064-0.276c-1.066-0.588-1.453-1.929-0.865-2.995
					l6.459-11.694c0.59-1.066,1.929-1.453,2.996-0.863c1.066,0.588,1.453,1.929,0.865,2.995l-6.459,11.694
					C1995.68,2020.976,1994.927,2021.388,1994.15,2021.388z"/>
				<path style="fill:#363E44;" d="M1935.504,1934.631c-0.447,0-0.899-0.136-1.29-0.418l-12.791-9.246
					c-0.986-0.713-1.208-2.093-0.495-3.079c0.714-0.988,2.09-1.208,3.079-0.495l12.791,9.246c0.986,0.713,1.208,2.093,0.495,3.079
					C1936.861,1934.315,1936.188,1934.631,1935.504,1934.631z"/>
				<path style="fill:#363E44;" d="M1962.149,2001.54c-0.291,0-0.587-0.058-0.871-0.179l-12.403-5.338
					c-1.119-0.482-1.634-1.779-1.153-2.898c0.48-1.118,1.776-1.632,2.897-1.154l12.403,5.338c1.119,0.482,1.634,1.778,1.153,2.898
					C1963.817,2001.041,1963.003,2001.54,1962.149,2001.54z"/>
			</g>
			<polygon style="fill:#D87355;" points="2106.474,2115.157 1913.702,2115.157 1891.671,2021.3 2128.505,2021.3 			"/>
			<path style="fill:#EFBC73;" d="M2117.386,1753.828c0,23.302-15.062,42.193-33.641,42.193s-33.641-18.891-33.641-42.193
				l14.068,7.949l10.398-10.395l10.398,8.561l11.621-9.172l8.563,8.561L2117.386,1753.828z"/>
		</g>
	</g>
</g>
</svg>
