<?xml version="1.0" encoding="utf-8"?>
<!-- Generator: Adobe Illustrator 27.5.0, SVG Export Plug-In . SVG Version: 6.00 Build 0)  -->
<svg version="1.1" xmlns="http://www.w3.org/2000/svg" xmlns:xlink="http://www.w3.org/1999/xlink" x="0px" y="0px"
	 viewBox="0 0 2500 2500" style="enable-background:new 0 0 2500 2500;" xml:space="preserve">
-
<g id="Illustration">
	<g id="Startup_accelerator_1_">
		<circle style="fill:transparent;" cx="1250" cy="1250" r="915"/>
		<g>
			<path style="fill:#E6D0BE;" d="M372.95,1732.31c-0.256,0-0.512-0.098-0.707-0.293c-0.391-0.391-0.391-1.023,0-1.414
				l203.936-203.937c0.188-0.188,0.441-0.293,0.707-0.293h136.938l294.085-294.085c0.391-0.391,1.023-0.391,1.414,0
				c0.391,0.39,0.391,1.024,0,1.414l-294.378,294.378c-0.188,0.188-0.441,0.293-0.707,0.293H577.301l-203.644,203.644
				C373.462,1732.212,373.206,1732.31,372.95,1732.31z"/>
			
				<ellipse transform="matrix(0.1602 -0.9871 0.9871 0.1602 -908.094 1987.9641)" style="fill:#E6D0BE;" cx="714.239" cy="1527.65" rx="16.748" ry="16.748"/>
			
				<ellipse transform="matrix(0.2298 -0.9732 0.9732 0.2298 -1041.0864 1739.832)" style="fill:#FFFFFF;" cx="578.642" cy="1527.65" rx="16.748" ry="16.748"/>
		</g>
		<g>
			<path style="fill:#E6D0BE;" d="M1493.508,1152.247c-0.256,0-0.512-0.098-0.707-0.293c-0.391-0.39-0.391-1.024,0-1.414
				l293.251-293.252c0.188-0.188,0.441-0.293,0.707-0.293h151.664l165.514-165.514c0.391-0.391,1.023-0.391,1.414,0
				c0.391,0.39,0.391,1.024,0,1.414l-165.807,165.807c-0.188,0.188-0.441,0.293-0.707,0.293h-151.664l-292.958,292.959
				C1494.02,1152.15,1493.764,1152.247,1493.508,1152.247z"/>
			<path style="fill:#E6D0BE;" d="M964.095,1681.661c-0.256,0-0.512-0.098-0.707-0.293c-0.391-0.391-0.391-1.023,0-1.414
				l405.13-405.131c0.391-0.391,1.023-0.391,1.414,0s0.391,1.023,0,1.414l-405.13,405.131
				C964.606,1681.563,964.351,1681.661,964.095,1681.661z"/>
			<path style="fill:#E6D0BE;" d="M735.521,1910.234c-0.256,0-0.512-0.098-0.707-0.293c-0.391-0.391-0.391-1.023,0-1.414
				l143.833-143.833c0.391-0.391,1.023-0.391,1.414,0c0.391,0.391,0.391,1.023,0,1.414l-143.833,143.833
				C736.032,1910.136,735.776,1910.234,735.521,1910.234z"/>
			
				<ellipse transform="matrix(0.9231 -0.3846 0.3846 0.9231 -180.9138 811.5753)" style="fill:#E6D0BE;" cx="1938.837" cy="858.151" rx="9.433" ry="9.433"/>
			
				<ellipse transform="matrix(0.7071 -0.7071 0.7071 0.7071 -83.1854 1515.4756)" style="fill:#FFFFFF;" cx="1787.748" cy="858.151" rx="20.946" ry="20.946"/>
			<path style="fill:#E6D0BE;" d="M1569.576,1085.757c0,5.21-4.223,9.433-9.433,9.433c-5.21,0-9.433-4.223-9.433-9.433
				c0-5.21,4.224-9.433,9.433-9.433C1565.352,1076.324,1569.576,1080.547,1569.576,1085.757z"/>
			<path style="fill:#E6D0BE;" d="M1341.97,1313.363c0,5.21-4.223,9.433-9.433,9.433c-5.21,0-9.433-4.224-9.433-9.433
				s4.223-9.433,9.433-9.433C1337.747,1303.929,1341.97,1308.153,1341.97,1313.363z"/>
			<path style="fill:#E6D0BE;" d="M1114.365,1540.968c0,5.21-4.223,9.433-9.433,9.433c-5.21,0-9.433-4.223-9.433-9.433
				c0-5.21,4.224-9.433,9.433-9.433C1110.141,1531.535,1114.365,1535.758,1114.365,1540.968z"/>
		</g>
		<g>
			<g>
				<path style="fill:#E6D0BE;" d="M1401.836,836.08h-40.484c-3.625-19.734-8.795-38.926-15.367-57.455l35.036-20.228
					l-68.505-118.655l-35.115,20.274c-12.887-15.086-26.941-29.14-42.026-42.026l20.273-35.115l-118.655-68.506l-20.228,35.036
					c-18.53-6.572-37.721-11.742-57.455-15.367v-40.484H922.3l-0.001,40.484c-19.734,3.626-38.925,8.795-57.455,15.367
					l-20.228-35.037l-118.654,68.506l20.274,35.115c-15.086,12.886-29.14,26.94-42.027,42.026l-35.115-20.274l-68.505,118.655
					l35.036,20.228c-6.571,18.529-11.742,37.72-15.367,57.455h-40.484l0,137.011h40.484c3.625,19.734,8.796,38.925,15.367,57.455
					l-35.036,20.228l68.505,118.655l35.115-20.275c12.887,15.086,26.94,29.14,42.027,42.026l-20.274,35.116l118.654,68.505
					l20.228-35.037c18.53,6.572,37.721,11.742,57.455,15.367v40.484h137.011v-40.484c19.734-3.625,38.926-8.795,57.455-15.367
					l20.227,35.037l118.655-68.505l-20.273-35.116c15.085-12.886,29.14-26.94,42.026-42.026l35.115,20.275l68.505-118.655
					l-35.036-20.228c6.571-18.53,11.742-37.72,15.367-57.455h40.484V836.08z M1272.989,1015.206
					c-28.531,79.792-91.782,143.04-171.574,171.568c-250.774,89.656-482.457-142.032-392.794-392.806
					c28.53-79.794,91.781-143.044,171.576-171.571C1130.972,532.742,1362.656,764.431,1272.989,1015.206z"/>
			</g>
		</g>
		<g>
			<g>
				<path style="fill:#E6D0BE;" d="M2072.601,1473.03h-24.793c-2.22-12.086-5.386-23.839-9.411-35.187l21.457-12.388l-41.954-72.667
					l-21.505,12.416c-7.892-9.239-16.499-17.846-25.738-25.738l12.416-21.506l-72.666-41.954l-12.388,21.457
					c-11.348-4.025-23.101-7.191-35.187-9.411v-24.793h-83.908l0,24.793c-12.085,2.22-23.839,5.386-35.186,9.411l-12.388-21.457
					l-72.666,41.954l12.416,21.506c-9.239,7.892-17.846,16.499-25.738,25.738l-21.505-12.416l-41.954,72.667l21.457,12.388
					c-4.025,11.348-7.191,23.101-9.411,35.187h-24.793l0,83.908h24.794c2.22,12.086,5.387,23.839,9.411,35.187l-21.457,12.388
					l41.954,72.667l21.505-12.417c7.892,9.239,16.499,17.846,25.738,25.738l-12.416,21.505l72.666,41.954l12.388-21.457
					c11.348,4.025,23.101,7.191,35.186,9.411v24.793h83.908v-24.793c12.086-2.22,23.839-5.386,35.187-9.411l12.387,21.457
					l72.667-41.954l-12.416-21.505c9.239-7.892,17.846-16.499,25.738-25.738l21.505,12.417l41.954-72.667l-21.457-12.388
					c4.025-11.348,7.191-23.101,9.411-35.187h24.793V1473.03z M1993.692,1582.73c-17.473,48.866-56.209,87.601-105.075,105.072
					c-153.579,54.907-295.466-86.983-240.555-240.562c17.472-48.868,56.209-87.603,105.077-105.073
					C1906.718,1287.26,2048.606,1429.151,1993.692,1582.73z"/>
			</g>
		</g>
		<g>
			<g>
				<path style="fill:#D87355;" d="M1585.579,1738.61c5.706,129.154-59.18,186.448-159.489,219.277
					c-24.558-153.877,132.529-238.711,132.529-238.711L1585.579,1738.61z"/>
				<path style="fill:#D87355;" d="M1267.509,1509.334c-124.335,35.417-158.178,115.087-157.612,220.629
					c153.749-25.347,184.572-201.196,184.572-201.196L1267.509,1509.334z"/>
			</g>
			<path style="fill:#D87355;" d="M1288.223,1649.306c0,0-158.271,99.835-85.15,310.015c0,0,26.109-44.969,88.112-56.464
				c91.021-16.873,136.813-70.1,151.531-142.187L1288.223,1649.306z"/>
			<path style="fill:#EFBC73;" d="M1941.038,1168.607c25.434-101.415,27.206-167.345,6.313-252.771
				c-100.888,6.227-149.639,29.708-237.813,85.897l115.75,83.437L1941.038,1168.607z"/>
			<path style="fill:#EFBC73;" d="M1917.896,1223.882l3.333-10.168l-248.223-178.929l-8.593,6.377
				c-133.611,99.145-285.266,265.655-382.556,400.623l-19.322,26.805l376.899,271.683l19.322-26.805
				C1756.047,1578.5,1866.074,1381.983,1917.896,1223.882z"/>
			<g>
				<path style="fill:#363E44;" d="M1449.437,1955.233c-0.182,0-0.362-0.05-0.521-0.146c-0.249-0.152-0.42-0.407-0.466-0.696
					c-5.63-35.274-2.131-69.837,10.399-102.729c10.018-26.296,25.796-51.582,46.897-75.154
					c35.902-40.109,75.35-61.651,75.743-61.864c0.338-0.183,0.749-0.156,1.061,0.069l26.96,19.434
					c0.248,0.179,0.4,0.461,0.414,0.767c2.731,61.816-10.422,109.715-40.211,146.434c-26.055,32.116-64.174,55.578-119.965,73.836
					C1449.646,1955.217,1449.541,1955.233,1449.437,1955.233z M1581.896,1716.706c-4.869,2.737-41.323,23.878-74.701,61.182
					c-32.704,36.551-69.035,96.521-56.953,175.028c115.402-38.088,162.612-103.191,157.706-217.431L1581.896,1716.706z"/>
				<path style="fill:#363E44;" d="M1133.244,1727.311c-0.234,0-0.463-0.083-0.645-0.236c-0.225-0.189-0.354-0.466-0.355-0.759
					c-0.315-58.703,9.893-102.285,32.124-137.156c25.419-39.869,66.703-67.49,126.213-84.441c0.297-0.083,0.609-0.029,0.859,0.151
					l26.96,19.433c0.311,0.224,0.466,0.606,0.4,0.984c-0.078,0.441-8.045,44.675-34.747,91.417
					c-15.693,27.471-34.694,50.434-56.475,68.251c-27.243,22.286-58.928,36.532-94.172,42.343
					C1133.353,1727.306,1133.298,1727.311,1133.244,1727.311z M1290.664,1506.775c-109.938,31.461-156.778,96.817-156.426,218.356
					c78.352-13.401,123.75-66.832,148.079-109.42c24.824-43.455,33.342-84.675,34.398-90.158L1290.664,1506.775z"/>
			</g>
			<g>
				
					<ellipse transform="matrix(0.7071 -0.7071 0.7071 0.7071 -463.4138 1554.0399)" style="fill:#D87355;" cx="1644.185" cy="1336.41" rx="148.346" ry="148.346"/>
				<path style="fill:#363E44;" d="M1643.956,1444.239c-22.437,0-44.25-6.999-62.81-20.377
					c-23.359-16.838-38.763-41.765-43.374-70.188s2.123-56.942,18.961-80.302c16.839-23.359,41.766-38.763,70.189-43.374
					c28.423-4.61,56.941,2.123,80.301,18.961c23.359,16.838,38.764,41.765,43.374,70.189c4.611,28.424-2.122,56.942-18.96,80.301
					l-0.812-0.585l0.812,0.585c-16.839,23.359-41.766,38.763-70.189,43.374C1655.607,1443.771,1649.76,1444.239,1643.956,1444.239z
					 M1644.411,1230.582c-5.698,0-11.434,0.46-17.168,1.39c-27.896,4.526-52.361,19.644-68.887,42.57
					c-16.526,22.926-23.135,50.915-18.609,78.812s19.644,52.361,42.569,68.887c22.926,16.525,50.913,23.135,78.812,18.609
					c27.896-4.525,52.361-19.644,68.887-42.57c16.526-22.926,23.135-50.915,18.609-78.811c-4.525-27.897-19.645-52.361-42.57-68.887
					C1687.841,1237.452,1666.43,1230.582,1644.411,1230.582z"/>
			</g>
			<path style="fill:#363E44;" d="M1935.456,1194.977c-0.202,0-0.407-0.061-0.584-0.189l-248.224-178.928
				c-0.448-0.323-0.549-0.948-0.227-1.396c0.321-0.448,0.946-0.55,1.396-0.227l248.224,178.928c0.448,0.323,0.549,0.948,0.227,1.396
				C1936.073,1194.833,1935.767,1194.977,1935.456,1194.977z"/>
			<path style="fill:#363E44;" d="M1500.613,1744.406c-0.209,0-0.413-0.065-0.585-0.189l-197.164-142.122
				c-0.215-0.155-0.359-0.389-0.402-0.651c-0.042-0.262,0.021-0.53,0.176-0.745l41.044-56.939c0.322-0.448,0.946-0.551,1.396-0.226
				l197.163,142.123c0.448,0.323,0.549,0.948,0.227,1.396l-41.043,56.938c-0.155,0.215-0.39,0.36-0.651,0.402
				C1500.72,1744.401,1500.667,1744.406,1500.613,1744.406z M1304.845,1601.057l195.542,140.953l39.874-55.316l-195.541-140.953
				L1304.845,1601.057z"/>
			<path style="fill:#363E44;" d="M1226.42,1956.668c-0.031,0-0.063-0.001-0.096-0.005c-0.389-0.037-0.721-0.297-0.849-0.667
				c-16.729-48.085-22.647-94.365-17.593-137.554c4.047-34.571,15.093-67.244,32.831-97.11
				c30.201-50.85,69.923-76.274,70.321-76.525c0.344-0.218,0.785-0.204,1.118,0.035l154.494,111.365
				c0.319,0.23,0.474,0.625,0.395,1.011c-16.154,79.125-67.404,127.227-152.327,142.971c-60.804,11.271-87.171,55.537-87.431,55.982
				C1227.104,1956.48,1226.773,1956.668,1226.42,1956.668z M1311.541,1646.866c-4.927,3.277-41.158,28.389-69.154,75.567
				c-27.456,46.268-52.348,123.805-15.695,230.956c5.687-8.507,32.953-45.026,87.658-55.167
				c83.818-15.539,134.484-62.897,150.603-140.771L1311.541,1646.866z"/>
			<g>
				<path style="fill:#363E44;" d="M1221.087,2142.7c-0.202,0-0.407-0.061-0.584-0.189c-0.448-0.323-0.549-0.948-0.227-1.396
					l148.677-206.256c0.321-0.448,0.947-0.55,1.396-0.226c0.448,0.323,0.549,0.948,0.227,1.396l-148.677,206.256
					C1221.704,2142.556,1221.397,2142.7,1221.087,2142.7z"/>
				<path style="fill:#363E44;" d="M1335.886,2080.095c-0.202,0-0.407-0.061-0.584-0.189c-0.448-0.323-0.549-0.948-0.227-1.396
					l58.293-80.869c0.321-0.448,0.946-0.551,1.396-0.226c0.448,0.323,0.549,0.948,0.227,1.396l-58.293,80.869
					C1336.503,2079.951,1336.196,2080.095,1335.886,2080.095z"/>
				<path style="fill:#363E44;" d="M1058.83,1905.444c-0.202,0-0.407-0.061-0.584-0.189c-0.448-0.323-0.549-0.948-0.227-1.396
					l100.228-139.043c0.322-0.448,0.948-0.551,1.396-0.226c0.448,0.323,0.549,0.948,0.227,1.396l-100.228,139.043
					C1059.447,1905.3,1059.141,1905.444,1058.83,1905.444z"/>
				<path style="fill:#363E44;" d="M1087.499,1810.019c-0.202,0-0.407-0.061-0.584-0.189c-0.448-0.323-0.549-0.948-0.227-1.396
					l40.439-56.101c0.321-0.448,0.946-0.551,1.396-0.226c0.448,0.323,0.549,0.948,0.227,1.396l-40.439,56.101
					C1088.116,1809.875,1087.81,1810.019,1087.499,1810.019z"/>
				<path style="fill:#363E44;" d="M1035.947,2133.524c-0.202,0-0.407-0.061-0.584-0.189c-0.448-0.323-0.549-0.948-0.227-1.396
					l133.291-184.913c0.321-0.448,0.947-0.55,1.396-0.226c0.448,0.323,0.549,0.948,0.227,1.396l-133.291,184.913
					C1036.564,2133.38,1036.258,2133.524,1035.947,2133.524z"/>
				<path style="fill:#363E44;" d="M1045.923,2058.455c-0.202,0-0.407-0.061-0.584-0.189c-0.448-0.323-0.549-0.948-0.227-1.396
					l69.253-96.074c0.321-0.448,0.946-0.551,1.396-0.226c0.448,0.323,0.549,0.948,0.227,1.396l-69.253,96.074
					C1046.54,2058.311,1046.233,2058.455,1045.923,2058.455z"/>
			</g>
		</g>
		<g>
			<g>
				<g>
					<polygon style="fill:#84524D;" points="809.629,1575.053 728.805,1666.317 770.986,1766.16 878.267,1649.614 					"/>
					<path style="fill:#FFFFFF;" d="M634.315,1638.47c0,0,62.165-0.58,105.811,15.065l39.659,102.936
						c0,0-77.462,129.654-178.001,196.597C601.783,1953.068,613.167,1704.57,634.315,1638.47z"/>
					<path style="fill:#363E44;" d="M800.402,1558.491l77.865,91.123c0,0,333.568-300.02,469.351-493.483l-93.241-56.282
						C1254.377,1099.849,921.286,1268.838,800.402,1558.491z"/>
					<path style="fill:#363E44;" d="M785.653,1574.414c-0.495-0.926,13.618-41.356,13.618-41.356s102.874,83.708,117.856,111.172
						l-44.413,29.93L785.653,1574.414z"/>
					<path style="fill:#E6D0BE;" d="M892.739,1616.62c-0.256,0-0.512-0.098-0.707-0.292c-23.447-23.413-57.516-52.563-75.736-67.855
						c-0.423-0.355-0.479-0.986-0.123-1.409c0.354-0.421,0.985-0.479,1.408-0.123c18.246,15.313,52.363,44.506,75.865,67.972
						c0.391,0.39,0.391,1.023,0.001,1.414C893.252,1616.522,892.995,1616.62,892.739,1616.62z"/>
				</g>
				<g>
					<polygon style="fill:#84524D;" points="860.107,1188.482 764.971,1126.303 726.727,1211.301 808.485,1276.07 					"/>
					<path style="fill:#FFFFFF;" d="M485.545,1261.322l196.933-200.014c0,0,59.289,18.521,90.415,69.321l-46.166,80.672
						C726.727,1211.301,631.911,1301.246,485.545,1261.322z"/>
					<path style="fill:#363E44;" d="M849.636,1172.169l83.548,33.043l172.071-186.082l171.591,74.848
						c0,0-159.945,191.594-266.506,280.67c-27.862,23.29-67.029,27.131-98.538,9.267c-39.86-22.599-93.249-60.807-123.845-115.508
						L849.636,1172.169z"/>
					<path style="fill:#E6D0BE;" d="M954.159,1396.107c-15.013,0-29.68-3.856-42.851-11.323c-0.48-0.272-0.649-0.883-0.377-1.363
						c0.273-0.48,0.883-0.648,1.363-0.377c30.807,17.467,69.949,13.783,97.403-9.164c35.111-29.351,79.71-72.909,132.559-129.466
						c0.376-0.405,1.011-0.424,1.413-0.048c0.403,0.377,0.425,1.01,0.048,1.413c-52.903,56.617-97.563,100.232-132.736,129.635
						c-13.852,11.579-30.604,18.596-48.448,20.294C959.735,1395.975,956.94,1396.107,954.159,1396.107z"/>
					<path style="fill:#363E44;" d="M835.285,1161.777l40.232,10.457l-81.854,119.448c0,0-13.607-11.916-18.084-36.363
						L835.285,1161.777z"/>
					<path style="fill:#E6D0BE;" d="M808.184,1271.491c-0.194,0-0.392-0.057-0.565-0.175c-0.455-0.312-0.571-0.935-0.26-1.39
						l67.333-98.257c0.314-0.455,0.935-0.573,1.391-0.26c0.455,0.312,0.571,0.935,0.26,1.39l-67.333,98.257
						C808.815,1271.339,808.502,1271.491,808.184,1271.491z"/>
					<path style="fill:#363E44;" d="M785.653,1574.414c-0.495-0.926,13.618-41.356,13.618-41.356L785.653,1574.414z"/>
					<path style="fill:#E6D0BE;" d="M906.161,1240.085c-0.208,0-0.419-0.065-0.599-0.2c-0.442-0.331-0.532-0.958-0.201-1.4
						l19.02-25.391c0.331-0.441,0.956-0.532,1.4-0.201c0.442,0.331,0.532,0.958,0.201,1.4l-19.02,25.391
						C906.766,1239.947,906.466,1240.085,906.161,1240.085z"/>
				</g>
			</g>
			<g>
				<path style="fill:#FFFFFF;" d="M1071.267,1016.332l283.894,176.855l188.952-313.475c0,0-159.795-107.759-211.056-112.87
					L1071.267,1016.332z"/>
				<g>
					<g>
						<path style="fill:#84524D;" d="M1632.656,788.033c0,0,71.932-96.338,103.459-133.29c33.111-38.808,52.667-55.617,62.297-60.02
							c7.853-3.591,15.632,5.359,13.29,11.734c2.005-0.238,8.255,0.542,11.413,5.25c4.672,6.967,0.079,12.287-0.102,12.946
							c0.673-0.136,8.424-1.272,12.342,2.862c4.412,4.657,4.107,10.094,2.118,14.719c1.681-0.285,9.007-0.315,12.569,3.844
							c4.631,5.407,2.073,12.861-1.807,17.276c-7.119,8.098-27.122,29.741-36.239,42.539
							c-17.941,25.183-65.11,129.692-105.197,152.706C1635.178,899.716,1614.121,813.297,1632.656,788.033z"/>
						<path style="fill:#363E44;" d="M1779.229,690.66c-0.12,0-0.242-0.022-0.361-0.068c-0.515-0.199-0.771-0.778-0.571-1.294
							c3.969-10.245,3.074-19.135,2.355-26.278c-0.739-7.35-1.323-13.155,4.357-16.01c3.715-1.867,7.277-6,10.302-11.952
							c0.837-1.647,0.253-3.191-0.573-4.086c-0.838-0.909-2.35-1.628-4.09-0.915l-30.687,12.572
							c-0.509,0.209-1.094-0.034-1.305-0.546c-0.209-0.511,0.035-1.095,0.547-1.305l30.687-12.572
							c2.21-0.906,4.693-0.353,6.318,1.41c1.609,1.746,1.958,4.238,0.886,6.348c-3.266,6.427-7.029,10.744-11.187,12.833
							c-4.254,2.137-4.045,6.278-3.266,14.022c0.74,7.355,1.661,16.51-2.48,27.201C1780.009,690.417,1779.63,690.66,1779.229,690.66
							z"/>
						<path style="fill:#363E44;" d="M1831.222,674.027c-0.234,0-0.469-0.081-0.658-0.247c-6.488-5.672-7.835-15.238-3.399-22.446
							l-3.994,3.314c-4.563,3.788-11.387,3.431-15.531-0.812c-4.173-4.27-4.398-10.916-0.524-15.46l3.634-4.263
							c-3.408,1.283-7.42,0.544-10.115-2.183c-3.393-3.433-3.664-8.853-0.633-12.609l1.589-1.968l-0.638,0.52
							c-3.751,3.061-9.243,2.851-12.778-0.493l-0.142-0.134c-3.529-3.339-3.916-8.925-0.879-12.718l2.062-2.575
							c0.344-0.43,0.974-0.501,1.405-0.156c0.431,0.345,0.501,0.975,0.155,1.406l-2.062,2.575
							c-2.391,2.987-2.087,7.386,0.693,10.015l0.142,0.134c2.806,2.655,7.164,2.824,10.14,0.396l8.086-6.598
							c0.396-0.323,0.972-0.296,1.337,0.066c0.363,0.361,0.395,0.938,0.073,1.337l-7.627,9.449
							c-2.392,2.963-2.178,7.239,0.498,9.946c2.841,2.874,7.535,2.948,10.464,0.166l6.071-5.767
							c0.383-0.366,0.989-0.367,1.376-0.001c0.387,0.366,0.419,0.97,0.073,1.375l-11.403,13.377
							c-3.198,3.752-3.012,9.239,0.433,12.765c3.423,3.503,9.056,3.798,12.824,0.671l10.384-8.615
							c0.389-0.324,0.963-0.305,1.33,0.047c0.367,0.351,0.412,0.922,0.105,1.326l-3.998,5.278
							c-4.915,6.489-3.964,15.77,2.166,21.128c0.416,0.363,0.458,0.995,0.095,1.411
							C1831.777,673.911,1831.5,674.027,1831.222,674.027z"/>
					</g>
					<g>
						<path style="fill:#ff6900;" d="M1474.057,834.985l16.371,30.944c0,0-95.507,195.558-150.755,252.732l50.084,49.174
							c0,0,137.513-149.922,187.349-186.754c49.836-36.832,149.811-97.733,225.126-251.753l-84.765-66.765
							c0,0-83.072,99.494-106.06,127.186C1538.385,877.714,1474.057,834.985,1474.057,834.985z"/>
						<path style="fill:#363E44;" d="M1395.797,1145.147c-0.265,0-0.528-0.104-0.725-0.311l-33.684-35.432
							c-0.381-0.4-0.364-1.033,0.035-1.414c0.401-0.38,1.034-0.365,1.414,0.036l33.684,35.432c0.381,0.4,0.364,1.033-0.035,1.414
							C1396.292,1145.056,1396.045,1145.147,1395.797,1145.147z"/>
					</g>
				</g>
			</g>
			<g>
				<path style="fill:#84524D;" d="M1440.325,850.047c-10.669-7.922-12.897-22.994-4.975-33.664l25.654-34.552
					c7.922-10.67,22.994-12.897,33.664-4.975c10.67,7.922,12.897,22.994,4.975,33.664l-25.654,34.551
					C1466.067,855.742,1450.995,857.969,1440.325,850.047z"/>
				<g>
					<g>
						<path style="fill:#84524D;" d="M1534.422,811.475c-8.529,11.761-47.538,0.835-47.538,0.835l-30.954-31.808
							c-6.542-19.362,3.851-40.361,23.213-46.903c19.362-6.542,40.361,3.851,46.903,23.213
							C1526.047,756.812,1543.108,799.497,1534.422,811.475z"/>
						<path style="fill:#84524D;" d="M1525.133,767.392c0,0,13.314,6.98,13.71,9.877c0.473,3.458-9.812,9.139-9.812,9.139
							S1525.402,767.328,1525.133,767.392z"/>
						<g>
							<path style="fill:#FFFFFF;" d="M1492.987,776.581c0,0,4.803-5.14,11.878-7.53c1.505-0.509,2.735,12.497,1.076,12.297
								C1498.645,780.472,1492.987,776.581,1492.987,776.581z"/>
							<g>
								<defs>
									<path id="SVGID_1_" d="M1492.987,776.581c0,0,7.064-7.559,16.678-8.606c9.615-1.047,18.139,4.816,18.139,4.816
										s-7.064,7.56-16.678,8.606C1501.512,782.444,1492.987,776.581,1492.987,776.581z"/>
								</defs>
								<clipPath id="SVGID_00000063603407903556636510000015660396024324098201_">
									<use xlink:href="#SVGID_1_"  style="overflow:visible;"/>
								</clipPath>
								<path style="clip-path:url(#SVGID_00000063603407903556636510000015660396024324098201_);fill:#363E44;" d="M1505.06,768.64
									c3.098-6.261,10.685-8.824,16.946-5.726c6.26,3.098,8.824,10.685,5.725,16.946c-3.098,6.26-10.685,8.824-16.946,5.726
									C1504.525,782.488,1501.962,774.901,1505.06,768.64z"/>
							</g>
						</g>
						<path style="fill:#363E44;" d="M1520.739,796.682c-0.505,0-1.015-0.062-1.517-0.19c-2.265-0.578-4.041-2.437-4.525-4.736
							c-0.114-0.541,0.231-1.071,0.772-1.185c0.536-0.114,1.069,0.232,1.185,0.772c0.329,1.56,1.531,2.82,3.063,3.211
							c1.593,0.407,3.286-0.167,4.318-1.461c0.345-0.432,0.975-0.503,1.405-0.158c0.432,0.344,0.502,0.974,0.157,1.405
							C1524.401,795.84,1522.599,796.682,1520.739,796.682z"/>
						<path style="fill:#363E44;" d="M1517.396,818.537c-13.757,0-29.784-4.438-30.576-4.659c-0.532-0.149-0.843-0.701-0.693-1.233
							c0.149-0.531,0.703-0.844,1.232-0.693c0.224,0.063,22.638,6.265,36.811,4.131c0.549-0.081,1.056,0.293,1.139,0.84
							c0.082,0.546-0.294,1.056-0.84,1.138C1522.251,818.395,1519.858,818.537,1517.396,818.537z"/>
					</g>
					<path style="fill:#363E44;" d="M1508.971,742.619c6.349-0.135,12.049-3.95,14.548-9.789
						c4.463-10.425,9.779-26.915,4.097-36.703c-1.082-1.863-2.199-2.956-3.956-3.875c-9.786-5.117-19.67,12.964-42.173,20.435
						c-21.684,7.199-36.813-1.522-45.169,9.6c-3.674,4.891-3.782,10.713-3.861,12.123c-1.05,18.635,14.504,27.011,14.504,27.011
						s-10.644-4.601-14.799,10.183c-4.153,14.784,43.86,16.917,43.86,16.917l5.846-5.715l-5.494-15.448
						c-4.177-11.748,4.371-24.138,16.836-24.404L1508.971,742.619z"/>
					<path style="fill:#84524D;" d="M1449.177,782.939c-0.537,7.029,4.726,13.162,11.755,13.699
						c7.029,0.537,13.162-4.726,13.699-11.755c0.537-7.029-4.726-13.162-11.755-13.699
						C1455.847,770.648,1449.713,775.911,1449.177,782.939z"/>
					<path style="fill:#EFBC73;" d="M1488.104,709.714c0,0-11.018,53.253-38.812,78.646c-15.868-0.87-18.004-6.787-18.004-6.787
						s33.186-51.666,36.402-73.419C1476.391,704.937,1488.104,709.714,1488.104,709.714z"/>
					<path style="fill:#EFBC73;" d="M1468.173,710.996c-17.481-2.168-33.918,4.172-41.612,16.662
						c-7.4,12.015-4.524,26.169-4.091,28.157c0,0,0.984,4.526,11.43,24.622C1433.901,780.437,1469.406,732.521,1468.173,710.996z"/>
					<path style="fill:#E0AA63;" d="M1444.161,766.539c-0.213,0-0.428-0.068-0.609-0.208c-0.438-0.337-0.519-0.965-0.182-1.402
						c16.074-20.875,22.131-50.931,22.189-51.232c0.105-0.542,0.625-0.896,1.175-0.788c0.542,0.107,0.895,0.633,0.788,1.174
						c-0.061,0.306-6.21,30.823-22.568,52.066C1444.758,766.405,1444.461,766.539,1444.161,766.539z"/>
				</g>
			</g>
			<g>
				<g>
					<path style="fill:#84524D;" d="M1471.183,661.846c0,0,85.418-84.61,117.636-120.963c33.835-38.178,47.766-59.879,50.79-70.026
						c2.466-8.276-7.477-14.737-13.465-11.533c-0.042-2.018-1.683-8.099-6.784-10.573c-7.548-3.659-12.179,1.628-12.806,1.898
						c0.041-0.685,0.091-8.519-4.547-11.824c-5.224-3.723-10.566-2.666-14.87-0.054c0.049-1.704-0.939-8.964-5.552-11.914
						c-5.998-3.835-13.025-0.267-16.858,4.188c-7.031,8.174-25.688,30.989-37.095,41.794
						c-22.448,21.263-119.397,82.485-136.623,125.38C1360.231,674.855,1448.737,683.71,1471.183,661.846z"/>
					<path style="fill:#363E44;" d="M1598.475,516.834c-0.082,0-0.165-0.01-0.248-0.031c-0.535-0.136-0.858-0.681-0.722-1.216
						l8.19-32.135c0.463-1.819-0.458-3.219-1.475-3.923c-1.001-0.694-2.612-1.056-4.126,0c-5.475,3.821-9.073,7.923-10.406,11.861
						c-2.038,6.022-7.868,6.25-15.25,6.538c-7.174,0.28-16.102,0.629-25.696,5.981c-0.482,0.269-1.092,0.096-1.36-0.386
						c-0.27-0.482-0.097-1.091,0.386-1.36c10.013-5.586,19.206-5.944,26.593-6.233c7.778-0.303,11.908-0.672,13.434-5.18
						c1.492-4.408,5.245-8.735,11.156-12.86c1.94-1.355,4.457-1.355,6.409-0.004c1.972,1.365,2.864,3.744,2.273,6.062l-8.19,32.135
						C1599.327,516.533,1598.921,516.834,1598.475,516.834z"/>
					<path style="fill:#363E44;" d="M1624.604,486.303c-2.07,0-4.146-0.671-5.858-2.038l-0.153-0.122
						c-3.8-3.035-4.772-8.446-2.263-12.586l0.426-0.702l-1.727,1.845c-3.296,3.523-8.702,4.008-12.575,1.124
						c-3.075-2.291-4.363-6.163-3.566-9.714l-3.717,4.19c-3.961,4.467-10.572,5.166-15.383,1.627
						c-4.776-3.515-6.077-10.222-2.96-15.269l2.728-4.417c-6.521,5.395-16.183,5.389-22.7-0.249
						c-0.418-0.361-0.463-0.993-0.102-1.411c0.361-0.418,0.992-0.463,1.41-0.102c6.157,5.327,15.48,4.98,21.224-0.789l4.672-4.692
						c0.357-0.36,0.93-0.394,1.329-0.079c0.398,0.315,0.498,0.878,0.23,1.31l-7.09,11.479c-2.573,4.167-1.5,9.705,2.444,12.607
						c3.969,2.922,9.431,2.344,12.701-1.343l11.665-13.15c0.354-0.399,0.955-0.449,1.371-0.118c0.416,0.332,0.5,0.931,0.19,1.363
						l-4.869,6.813c-2.349,3.287-1.623,7.925,1.617,10.339c3.05,2.273,7.318,1.893,9.919-0.887l8.299-8.865
						c0.353-0.375,0.927-0.422,1.335-0.114c0.408,0.31,0.517,0.878,0.251,1.315l-5.412,8.924c-1.991,3.283-1.217,7.577,1.801,9.987
						l0.153,0.122c2.987,2.386,7.387,2.078,10.013-0.705l2.264-2.399c0.38-0.402,1.013-0.42,1.414-0.041
						c0.401,0.379,0.42,1.012,0.041,1.414l-2.264,2.399C1629.631,485.31,1627.122,486.303,1624.604,486.303z"/>
				</g>
				<path style="fill:#ff6900;" d="M1494.771,492.976l84.76,74.28c0,0-129.408,97.709-165.99,223.566l11.338,15.382l-24.877-0.656
					l-248.866,210.691l-63.913-86.297l35.713-29.843C1122.936,900.098,1367.074,578.601,1494.771,492.976z"/>
				<path style="fill:#363E44;" d="M1170.225,978.464c-0.322,0-0.638-0.155-0.831-0.442l-44.471-66.161
					c-0.308-0.458-0.187-1.08,0.272-1.388c0.459-0.31,1.079-0.186,1.388,0.272l44.471,66.161c0.308,0.458,0.187,1.08-0.272,1.388
					C1170.61,978.409,1170.416,978.464,1170.225,978.464z"/>
			</g>
		</g>
		<g>
			<path style="fill:#D3BBA3;" d="M707.585,939.495c-0.256,0-0.512-0.098-0.707-0.293c-0.391-0.39-0.391-1.024,0-1.414
				l228.988-228.989c0.391-0.391,1.023-0.391,1.414,0l96.443,96.442l312.773-312.774c0.391-0.391,1.023-0.391,1.414,0
				c0.391,0.39,0.391,1.024,0,1.414l-313.48,313.481c-0.391,0.391-1.023,0.391-1.414,0l-96.443-96.442L708.292,939.202
				C708.097,939.397,707.841,939.495,707.585,939.495z"/>
			<path style="fill:#D3BBA3;" d="M1352.229,520.133c-0.092,0-0.186-0.013-0.278-0.04c-0.53-0.154-0.836-0.708-0.683-1.239
				l12.517-43.189l-43.188,12.516c-0.532,0.154-1.086-0.152-1.239-0.682c-0.153-0.531,0.152-1.085,0.683-1.239l44.933-13.022
				c0.349-0.102,0.727-0.004,0.985,0.253c0.258,0.258,0.354,0.635,0.254,0.985l-13.021,44.933
				C1353.063,519.849,1352.664,520.133,1352.229,520.133z"/>
		</g>
	</g>
</g>
</svg>
