<?xml version="1.0" encoding="utf-8"?>
<!-- Generator: Adobe Illustrator 27.5.0, SVG Export Plug-In . SVG Version: 6.00 Build 0)  -->
<svg version="1.1" xmlns="http://www.w3.org/2000/svg" xmlns:xlink="http://www.w3.org/1999/xlink" x="0px" y="0px"
	 viewBox="0 0 2500 2500" style="enable-background:new 0 0 2500 2500;" xml:space="preserve">
-
<g id="Illustration">
	<g id="Data_protection_1_">
		<circle style="fill:transparent;" cx="1250" cy="1250" r="915"/>
		<g>
			<rect x="834.413" y="461.191" style="fill:#F7F1EB;" width="953.97" height="574.83"/>
			<rect x="870.594" y="491.285" style="fill:#D87355;" width="887.712" height="518.863"/>
			<rect x="1158.095" y="1036.128" style="fill:#F7F1EB;" width="306.605" height="184.75"/>
			<path style="fill:#363E44;" d="M1824.563,1037.021h-953.97c-0.553,0-1-0.448-1-1v-574.83c0-0.552,0.447-1,1-1h953.97
				c0.553,0,1,0.448,1,1v574.83C1825.563,1036.573,1825.116,1037.021,1824.563,1037.021z M871.594,1035.021h951.97v-572.83h-951.97
				V1035.021z"/>
			<path style="fill:#F7F1EB;" d="M1619.733,1288.831l-540.672,0c22.291-41.218,65.38-66.901,112.239-66.901h316.194
				C1554.353,1221.929,1597.443,1247.613,1619.733,1288.831z"/>
			<g>
				<path style="fill:#363E44;" d="M1501.881,1221.879h-308.604v-186.75h308.604V1221.879z M1195.276,1219.879h304.604v-182.75
					h-304.604V1219.879z"/>
				<path style="fill:#363E44;" d="M1621.404,1289.831h-544.016l0.791-1.473c10.955-20.416,27.819-37.687,48.771-49.945
					c20.725-12.126,44.006-18.535,67.326-18.535c0.553,0,1,0.448,1,1s-0.447,1-1,1c-46.906,0-91.275,25.832-113.531,65.953h537.301
					c-21.698-38.912-69.603-65.953-117.165-65.953c-0.553,0-1-0.448-1-1s0.447-1,1-1c48.863,0,98.1,28.16,119.732,68.48
					L1621.404,1289.831z"/>
			</g>
			<path style="fill:#F7F1EB;" d="M1590.885,796.846c0-47.073-38.16-85.234-85.234-85.234c-0.71,0-1.413,0.036-2.121,0.054
				c-0.861-27.306-23.252-49.181-50.767-49.181c-9.237,0-17.889,2.477-25.352,6.785c-11.141-34.104-43.193-58.752-81.017-58.752
				c-37.633,0-69.547,24.399-80.842,58.233c-7.255-3.991-15.587-6.266-24.451-6.266c-27.548,0-49.959,21.929-50.769,49.281
				c-1.639-0.094-3.286-0.154-4.947-0.154c-47.073,0-85.234,38.16-85.234,85.234c0,47.073,38.161,85.234,85.234,85.234h320.715
				v-0.011C1552.965,881.826,1590.885,843.769,1590.885,796.846z"/>
		</g>
		<g>
			<path style="fill:#40484C;" d="M1017.495,521.532c-0.105-92.116-75.074-167.024-167.213-167.024
				c-92.202,0-167.217,75.011-167.217,167.212v123.083h38.698V521.721c0-70.862,57.652-128.515,128.519-128.515
				c70.804,0,128.41,57.549,128.515,128.326l-0.465,133.486l39.163,1.257V521.532z"/>
			<rect x="553.946" y="640.728" style="fill:#363E44;" width="591.35" height="442.855"/>
			<g>
				<rect x="810.883" y="688.167" style="fill:#D3BBA3;" width="182.37" height="11.05"/>
				<rect x="810.883" y="723.87" style="fill:#D3BBA3;" width="97.964" height="11.05"/>
				<rect x="931.463" y="723.87" style="fill:#D3BBA3;" width="119.553" height="11.05"/>
				<rect x="810.883" y="830.978" style="fill:#D3BBA3;" width="97.964" height="11.05"/>
				<rect x="931.463" y="830.978" style="fill:#D3BBA3;" width="194.428" height="11.05"/>
				<rect x="871.173" y="759.573" style="fill:#D3BBA3;" width="206.486" height="11.05"/>
				<rect x="871.173" y="795.276" style="fill:#D3BBA3;" width="110.022" height="11.05"/>
			</g>
			<g>
				<path style="fill:#9E9569;" d="M645.832,754.032c-0.256,0-0.512-0.098-0.707-0.293l-31.066-31.067
					c-0.391-0.391-0.391-1.024,0-1.414l31.066-31.067c0.391-0.391,1.023-0.391,1.414,0c0.391,0.391,0.391,1.024,0,1.414
					l-30.359,30.36l30.359,30.36c0.391,0.391,0.391,1.024,0,1.414C646.344,753.934,646.088,754.032,645.832,754.032z"/>
				<path style="fill:#9E9569;" d="M696.722,754.032c-0.256,0-0.512-0.098-0.707-0.293c-0.391-0.391-0.391-1.024,0-1.414
					l30.359-30.36l-30.359-30.36c-0.391-0.391-0.391-1.024,0-1.414c0.391-0.391,1.023-0.391,1.414,0l31.066,31.067
					c0.391,0.391,0.391,1.024,0,1.414l-31.066,31.067C697.233,753.934,696.977,754.032,696.722,754.032z"/>
				<path style="fill:#9E9569;" d="M657.983,752.118c-0.139,0-0.28-0.029-0.416-0.091c-0.502-0.23-0.723-0.824-0.492-1.326
					l26.815-58.525c0.23-0.501,0.819-0.723,1.326-0.492c0.502,0.23,0.723,0.824,0.492,1.326l-26.815,58.524
					C658.726,751.901,658.362,752.118,657.983,752.118z"/>
			</g>
		</g>
		<g>
			<g>
				<polygon style="fill:#363E44;" points="1202.321,2165 1038.258,1577.989 641.778,1592.818 626.005,2164.948 836.708,2165 
					860.612,1839.215 975.639,2164.948 				"/>
				<path style="fill:#E6D0BE;" d="M860.612,1840.215c-0.426,0-0.82-0.274-0.954-0.701l-32.481-103.668
					c-0.165-0.527,0.128-1.088,0.655-1.253c0.527-0.167,1.088,0.129,1.253,0.655l32.481,103.668
					c0.165,0.527-0.128,1.088-0.655,1.253C860.812,1840.2,860.711,1840.215,860.612,1840.215z"/>
			</g>
			<g>
				<path style="fill:#E2A18D;" d="M887.556,973.435c-16.574-36.174-30.353-62.391-53.143-70.739
					c-30.629-11.219-59.758,15.031-62.865,17.131c-1.984,1.34-31.332,18.697-33.479,52.939c-2.12,33.817,13.742,67.575,42.172,85.44
					l6.513,74.57c2.091,23.94,23.193,41.652,47.133,39.561l5.422-0.474c23.94-2.091,41.652-23.193,39.561-47.133l-4.351-49.814
					c15.076-2.597,26.706-8.048,30.85-16.161C912.792,1044.225,907.075,1016.034,887.556,973.435z"/>
				<path style="fill:#363E44;" d="M875.1,1074.678c-0.502,0-0.935-0.376-0.992-0.887l-2.077-18.194
					c-0.063-0.549,0.331-1.044,0.88-1.107c0.546-0.064,1.044,0.332,1.106,0.88l2.077,18.194c0.063,0.549-0.331,1.044-0.88,1.107
					C875.176,1074.675,875.137,1074.678,875.1,1074.678z"/>
				<path style="fill:#363E44;" d="M840.382,1019.838c-0.242,0-0.484-0.087-0.676-0.263c-4.51-4.138-7.313-6.827-9.359-8.79
					c-1.001-0.96-1.824-1.749-2.583-2.456c-0.405-0.376-0.428-1.009-0.052-1.413c0.378-0.405,1.011-0.427,1.413-0.051
					c0.767,0.712,1.597,1.509,2.606,2.477c2.039,1.956,4.833,4.636,9.326,8.76c0.407,0.374,0.435,1.006,0.061,1.413
					C840.922,1019.729,840.652,1019.838,840.382,1019.838z"/>
				<path style="fill:#B77250;" d="M844.93,905.457c-29.081-21.381-91.685-9.084-117.876,32.251
					c-29.907,47.197-40.934,106.963-0.38,126.514l113.707-1.276c0,0-7.897-17.953-9.041-22.63
					c-12.687-1.187-22.6-11.244-23.502-23.315c-0.91-12.159,7.557-23.206,18.221-25.984c7.073-1.842,13.232,0.443,15.747,1.551
					C859.802,955.601,865.378,920.491,844.93,905.457z"/>
				<path style="fill:#B77250;" d="M857.601,1062.722c-0.409,0-0.793-0.253-0.94-0.661c-7.653-21.188-13.445-54.699,2.421-94.016
					c7.308-18.109,6.863-34.277-1.287-46.758c-6.174-9.453-14.661-13.572-14.746-13.612c-0.498-0.237-0.71-0.834-0.473-1.332
					c0.236-0.499,0.831-0.711,1.331-0.474c0.355,0.169,35.396,17.415,17.03,62.925c-15.631,38.731-9.93,71.728-2.396,92.588
					c0.188,0.519-0.081,1.093-0.601,1.28C857.828,1062.703,857.714,1062.722,857.601,1062.722z"/>
				<path style="fill:#363E44;" d="M744.792,1056.484c-0.374,0-0.732-0.21-0.903-0.57c-14.91-31.293-13.371-69.771,4.016-100.419
					c0.273-0.48,0.883-0.649,1.363-0.376c0.48,0.272,0.649,0.883,0.377,1.363c-17.07,30.089-18.584,67.86-3.951,98.572
					c0.238,0.499,0.026,1.095-0.473,1.333C745.082,1056.452,744.935,1056.484,744.792,1056.484z"/>
				<path style="fill:#363E44;" d="M781.104,1059.831c-0.317,0-0.63-0.151-0.823-0.431c-7.2-10.412-12.447-22.125-15.597-34.812
					c-0.133-0.536,0.193-1.078,0.73-1.212c0.535-0.132,1.078,0.193,1.212,0.73c3.091,12.452,8.238,23.944,15.3,34.157
					c0.314,0.454,0.201,1.077-0.254,1.391C781.499,1059.774,781.301,1059.831,781.104,1059.831z"/>
				<path style="fill:#363E44;" d="M763.495,1014.218c-0.49,0-0.919-0.361-0.989-0.86c-3.263-23.111,0.656-46.043,11.333-66.318
					c0.258-0.489,0.861-0.676,1.351-0.419c0.489,0.257,0.677,0.862,0.419,1.351c-10.48,19.901-14.326,42.415-11.122,65.107
					c0.077,0.547-0.304,1.053-0.851,1.13C763.589,1014.215,763.541,1014.218,763.495,1014.218z"/>
			</g>
			<g>
				<g>
					<path style="fill:#E2A18D;" d="M627.075,1285.338c-74.631-12.655-292.253-35.992-281.448-127.248
						c8.937-75.483,219.87-43.405,294.795-35.644C635.972,1176.743,631.524,1231.041,627.075,1285.338z"/>
					<g>
						<path style="fill:#E2A18D;" d="M473.316,1197.98c0.003-0.001,0.008,0,0.009-0.004
							c63.443-121.978,110.794-207.303,124.377-234.219c1.423-2.818,3.956-7.782,5.376-14.885
							c5.266-26.316-13.173-39.824-20.263-70.022c-8.044-34.264,6.825-58.113-1.19-62.18c-5.576-2.829-13.717,4.588-23.463,24.532
							c-0.001,0.002-0.004,0.001-0.003-0.001c5.663-16.004,12.395-38.044,3.542-41.147c-10.414-3.037-21.365,21.928-27.251,37.354
							c7.125-18.672,5.327-30.733-0.04-31.233c-8.449-0.787-17.346,12.406-25.805,37.448c0,0-0.002,0.001-0.002,0
							c1.01-18.923-1.565-23.665-6.417-22.95c-8.86,1.305-15.427,22.024-18.424,41.231c-3.375,21.622,1.509,39.563,4.858,50.801
							c0.001,0.003,0,0.006-0.002,0.009c-53.292,80.824-89.31,147.409-130.925,213.623
							C310.414,1201.569,405.119,1230.156,473.316,1197.98z"/>
						<path style="fill:#E2A18D;" d="M582.859,908.067c18.012-29.806,30.825-36.739,35.458-33.734
							c7.791,5.053,2.829,36.794-18.008,83.671C594.199,944.527,588.968,921.543,582.859,908.067z"/>
						<g>
							<path style="fill:#363E44;" d="M557.644,873.891c-0.47,0-0.889-0.332-0.981-0.811c-0.815-4.221-1.239-8.536-1.263-12.825
								c-0.035-6.22,0.768-12.44,2.387-18.485c0.144-0.534,0.692-0.849,1.225-0.707c0.533,0.143,0.85,0.691,0.707,1.225
								c-1.572,5.873-2.353,11.915-2.318,17.957c0.023,4.166,0.435,8.358,1.226,12.458c0.105,0.542-0.25,1.067-0.792,1.171
								C557.769,873.885,557.706,873.891,557.644,873.891z"/>
							<path style="fill:#363E44;" d="M534.941,867.712c-0.47,0-0.889-0.333-0.981-0.811c-0.813-4.224-1.237-8.539-1.261-12.825
								c-0.035-6.218,0.768-12.438,2.386-18.485c0.142-0.534,0.695-0.849,1.225-0.708c0.533,0.143,0.85,0.691,0.707,1.225
								c-1.571,5.875-2.352,11.917-2.317,17.957c0.022,4.163,0.435,8.355,1.226,12.458c0.104,0.542-0.251,1.067-0.793,1.171
								C535.067,867.706,535.004,867.712,534.941,867.712z"/>
							<path style="fill:#363E44;" d="M507.55,876.011c-0.47,0-0.889-0.333-0.98-0.811c-0.814-4.221-1.239-8.536-1.263-12.825
								c-0.034-6.224,0.769-12.443,2.387-18.485c0.143-0.534,0.694-0.849,1.225-0.707c0.533,0.143,0.85,0.691,0.707,1.225
								c-1.571,5.87-2.352,11.912-2.318,17.957c0.022,4.166,0.436,8.357,1.226,12.457c0.105,0.542-0.25,1.067-0.792,1.171
								C507.676,876.005,507.612,876.011,507.55,876.011z"/>
						</g>
					</g>
					<path style="fill:#363E44;" d="M393.143,1118.109c-0.441,0-0.845-0.294-0.965-0.741c-0.143-0.533,0.173-1.082,0.707-1.225
						c28.608-7.678,69.085-9.88,123.75-6.731c0.551,0.032,0.973,0.504,0.94,1.056c-0.032,0.551-0.508,0.974-1.056,0.941
						c-54.442-3.136-94.717-0.955-123.117,6.666C393.316,1118.098,393.228,1118.109,393.143,1118.109z"/>
				</g>
				<g>
					<g>
						<path style="fill:#E2A18D;" d="M1104.409,1187.683c155.02,32.967,270.122,60.11,265.339,111.37
							c-9.524,102.075-146.966,55.909-250.914,54.984C1114.922,1311.344,1108.033,1239.442,1104.409,1187.683z"/>
					</g>
					<g>
						<path style="fill:#E2A18D;" d="M1241.396,1328.295c-0.003-0.001-0.008,0-0.009-0.004
							c-63.443-121.978-110.794-207.303-124.377-234.219c-1.422-2.818-3.956-7.782-5.376-14.885
							c-5.266-26.316,13.173-39.824,20.263-70.022c8.044-34.265-6.825-58.113,1.19-62.18c5.576-2.829,13.717,4.588,23.463,24.532
							c0.001,0.002,0.004,0.001,0.004-0.001c-5.663-16.004-12.395-38.043-3.542-41.147c10.414-3.037,21.365,21.928,27.251,37.354
							c-7.125-18.672-5.327-30.733,0.04-31.233c8.448-0.787,17.346,12.406,25.805,37.448c0,0,0.002,0.001,0.002,0
							c-1.01-18.923,1.565-23.665,6.417-22.95c8.86,1.305,15.427,22.024,18.424,41.231c3.375,21.622-1.509,39.562-4.858,50.801
							c-0.001,0.003,0,0.006,0.002,0.009c53.292,80.824,89.311,147.409,130.925,213.623
							C1404.298,1331.884,1309.592,1360.47,1241.396,1328.295z"/>
						<path style="fill:#E2A18D;" d="M1131.853,1038.381c-18.012-29.806-30.825-36.739-35.457-33.734
							c-7.791,5.053-2.829,36.794,18.008,83.671C1120.512,1074.842,1125.744,1051.858,1131.853,1038.381z"/>
						<g>
							<path style="fill:#363E44;" d="M1157.068,1004.206c-0.063,0-0.126-0.006-0.19-0.018c-0.542-0.105-0.897-0.629-0.792-1.171
								c0.79-4.1,1.203-8.291,1.226-12.458c0.034-6.042-0.746-12.084-2.318-17.957c-0.143-0.533,0.174-1.082,0.707-1.224
								c0.535-0.142,1.083,0.174,1.225,0.707c1.618,6.046,2.422,12.265,2.387,18.485c-0.023,4.289-0.448,8.604-1.263,12.825
								C1157.957,1003.874,1157.538,1004.206,1157.068,1004.206z"/>
							<path style="fill:#363E44;" d="M1179.77,998.027c-0.063,0-0.126-0.006-0.19-0.018c-0.542-0.105-0.897-0.629-0.792-1.171
								c0.79-4.1,1.203-8.292,1.226-12.458c0.033-6.045-0.747-12.087-2.318-17.957c-0.143-0.533,0.174-1.082,0.707-1.225
								c0.533-0.142,1.083,0.174,1.225,0.707c1.618,6.042,2.421,12.262,2.387,18.485c-0.023,4.289-0.448,8.604-1.263,12.825
								C1180.658,997.695,1180.239,998.027,1179.77,998.027z"/>
							<path style="fill:#363E44;" d="M1207.162,1006.326c-0.063,0-0.126-0.006-0.19-0.018c-0.542-0.104-0.896-0.629-0.793-1.171
								c0.791-4.106,1.204-8.298,1.227-12.457c0.033-6.046-0.747-12.087-2.318-17.957c-0.143-0.534,0.174-1.082,0.707-1.225
								c0.532-0.142,1.082,0.174,1.225,0.707c1.618,6.042,2.421,12.262,2.387,18.485c-0.023,4.283-0.448,8.597-1.262,12.825
								C1208.051,1005.994,1207.632,1006.326,1207.162,1006.326z"/>
						</g>
					</g>
					<g>
						<path style="fill:#363E44;" d="M1320.403,1249.448c-0.143,0-0.287-0.031-0.425-0.095
							c-31.029-14.609-77.007-28.861-144.693-44.852c-0.538-0.127-0.871-0.666-0.744-1.203c0.128-0.538,0.665-0.87,1.203-0.743
							c67.826,16.023,113.928,30.319,145.086,44.989c0.5,0.235,0.714,0.831,0.479,1.331
							C1321.139,1249.236,1320.779,1249.448,1320.403,1249.448z"/>
					</g>
				</g>
				<g>
					<path style="fill:#ff6900;" d="M627.939,1346.285l-102.084-37.517l40.895-197.898c0,0,343.8-1.834,570.174,77.086
						l-15.906,217.91l-71.971-18.802l55.538,290.981c-201.764,25.736-365.594,22.755-503.305,0L627.939,1346.285z"/>
					<path style="fill:#363E44;" d="M627.94,1347.285c-0.047,0-0.095-0.003-0.144-0.01c-0.547-0.079-0.926-0.586-0.848-1.132
						l8.775-60.948c0.079-0.546,0.582-0.927,1.133-0.847c0.547,0.079,0.926,0.586,0.848,1.132l-8.775,60.948
						C628.856,1346.926,628.429,1347.285,627.94,1347.285z"/>
				</g>
			</g>
		</g>
		<g>
			<polygon style="fill:#EFBC73;" points="1697.301,726.533 1736.965,726.533 1736.965,760.369 1697.301,760.369 1697.301,787.437 
				1822.999,787.437 1822.999,689.889 1697.301,689.889 			"/>
			<polygon style="fill:#EFBC73;" points="1727.943,803.184 1757.938,803.184 1757.938,828.771 1727.943,828.771 1727.943,849.241 
				1822.999,849.241 1822.999,775.473 1727.943,775.473 			"/>
			<path style="fill:#EFBC73;" d="M1637.727,1207.165c0,102.167,82.823,184.99,184.99,184.99s184.99-82.823,184.99-184.99
				s-82.823-184.99-184.99-184.99S1637.727,1104.997,1637.727,1207.165z M1876.878,1283.833c0,29.912-24.249,54.161-54.161,54.161
				s-54.161-24.248-54.161-54.161c0-29.912,24.249-54.161,54.161-54.161S1876.878,1253.921,1876.878,1283.833z"/>
			<path style="fill:#EFBC73;" d="M1791.137,688.118v433.091h63.159V688.118c0-17.441-14.139-31.579-31.58-31.579
				C1805.276,656.539,1791.137,670.677,1791.137,688.118z"/>
			<path style="fill:#F2E6DC;" d="M1822.717,1362.287c-85.534,0-155.122-69.588-155.122-155.123
				c0-85.535,69.588-155.123,155.122-155.123c85.535,0,155.123,69.588,155.123,155.123
				C1977.84,1292.699,1908.252,1362.287,1822.717,1362.287z M1822.717,1054.042c-84.432,0-153.122,68.691-153.122,153.123
				c0,84.432,68.69,153.123,153.122,153.123c84.433,0,153.123-68.691,153.123-153.123
				C1975.84,1122.732,1907.149,1054.042,1822.717,1054.042z"/>
		</g>
		<g>
			<path style="fill:#E6D0BE;" d="M1871.652,1477.963l-67.556-27.392l-13.02,32.112c-11.545-1.37-23.079-1.25-34.351,0.262
				l-13.502-31.919l-67.138,28.401l13.502,31.919c-8.936,7.036-17.054,15.23-24.111,24.468l-32.112-13.02l-27.392,67.556
				l32.112,13.02c-1.37,11.545-1.25,23.079,0.262,34.351l-31.919,13.502l28.401,67.139l31.919-13.502
				c7.035,8.936,15.229,17.054,24.468,24.111l-13.02,32.112l67.556,27.392l13.02-32.112c11.544,1.37,23.079,1.25,34.351-0.263
				l13.502,31.919l67.138-28.401l-13.502-31.919c8.936-7.036,17.054-15.23,24.111-24.468l32.112,13.02l27.392-67.556l-32.112-13.02
				c1.369-11.545,1.25-23.079-0.262-34.351l31.919-13.502l-28.401-67.139l-31.919,13.502c-7.036-8.936-15.229-17.054-24.468-24.111
				L1871.652,1477.963z M1845.236,1648.033c-15.745,38.833-59.99,57.549-98.823,41.804c-38.833-15.745-57.549-59.99-41.804-98.823
				c15.745-38.833,59.99-57.549,98.823-41.804C1842.266,1564.956,1860.982,1609.2,1845.236,1648.033z"/>
			<g>
				<rect x="1243.473" y="1454.442" style="fill:#F7F1EB;" width="446.405" height="446.405"/>
				<path style="fill:#363E44;" d="M1265.521,1842.42c-0.553,0-1-0.448-1-1v-386.978c0-0.552,0.447-1,1-1h286.035
					c0.553,0,1,0.448,1,1s-0.447,1-1,1h-285.035v385.978C1266.521,1841.972,1266.074,1842.42,1265.521,1842.42z"/>
				<path style="fill:#363E44;" d="M1711.927,1901.847h-168.989c-0.553,0-1-0.448-1-1s0.447-1,1-1h167.989v-387.125
					c0-0.552,0.447-1,1-1s1,0.448,1,1v388.125C1712.927,1901.4,1712.479,1901.847,1711.927,1901.847z"/>
				<g>
					<path style="fill:#363E44;" d="M1584.507,1723.984c-0.553,0-1-0.448-1-1v-77.79c0-18.857-4.354-36.854-12.938-53.493
						c-0.253-0.491-0.061-1.094,0.43-1.347c0.493-0.254,1.093-0.061,1.348,0.43c8.733,16.925,13.161,35.232,13.161,54.41v77.79
						C1585.507,1723.536,1585.06,1723.984,1584.507,1723.984z"/>
					<path style="fill:#363E44;" d="M1372.357,1575.555c-0.209,0-0.419-0.065-0.599-0.2c-0.442-0.331-0.532-0.958-0.2-1.4
						c22.688-30.245,57.356-47.591,95.117-47.591c33.047,0,64.867,13.928,87.303,38.214c0.375,0.406,0.35,1.038-0.056,1.413
						c-0.406,0.374-1.038,0.351-1.413-0.056c-22.059-23.877-53.344-37.571-85.834-37.571c-37.125,0-71.211,17.055-93.518,46.792
						C1372.962,1575.417,1372.661,1575.555,1372.357,1575.555z"/>
					<path style="fill:#363E44;" d="M1372.357,1794.622c-0.305,0-0.604-0.138-0.801-0.4c-15.513-20.68-23.712-45.313-23.712-71.237
						v-77.79c0-0.552,0.447-1,1-1s1,0.448,1,1v77.79c0,25.488,8.062,49.707,23.312,70.037c0.332,0.442,0.242,1.069-0.2,1.4
						C1372.776,1794.557,1372.566,1794.622,1372.357,1794.622z"/>
					<path style="fill:#363E44;" d="M1466.676,1841.815c-19.787,0-39.378-4.962-56.653-14.349c-0.485-0.264-0.665-0.871-0.401-1.356
						s0.873-0.665,1.356-0.401c16.983,9.228,36.243,14.106,55.698,14.106c49.283,0,93.517-31.171,110.069-77.564
						c0.184-0.52,0.753-0.792,1.277-0.606c0.521,0.186,0.791,0.758,0.605,1.278
						C1561.792,1810.111,1516.802,1841.815,1466.676,1841.815z"/>
					<path style="fill:#363E44;" d="M1560.319,1614.588c-0.412,0-0.798-0.257-0.943-0.667c-13.847-39.203-51.1-65.543-92.7-65.543
						c-13.269,0-26.14,2.599-38.257,7.723c-0.509,0.215-1.096-0.023-1.311-0.531s0.022-1.095,0.531-1.311
						c12.365-5.23,25.499-7.881,39.036-7.881c42.446,0,80.458,26.876,94.587,66.877c0.184,0.521-0.09,1.092-0.61,1.276
						C1560.542,1614.569,1560.43,1614.588,1560.319,1614.588z"/>
					<path style="fill:#363E44;" d="M1369.887,1744.741c-0.456,0-0.868-0.314-0.974-0.777c-1.674-7.319-2.522-14.872-2.522-22.448
						v-74.854c0-27.826,11.132-53.69,31.344-72.83c0.401-0.379,1.033-0.363,1.414,0.038c0.379,0.401,0.362,1.034-0.039,1.414
						c-19.81,18.758-30.719,44.107-30.719,71.378v74.854c0,7.426,0.832,14.828,2.472,22.002c0.123,0.538-0.213,1.075-0.752,1.198
						C1370.035,1744.733,1369.961,1744.741,1369.887,1744.741z"/>
					<path style="fill:#363E44;" d="M1466.676,1821.801c-35.375,0-68.513-18.959-86.48-49.478c-0.28-0.476-0.122-1.089,0.354-1.369
						c0.479-0.281,1.092-0.121,1.369,0.354c17.611,29.911,50.088,48.492,84.758,48.492c18.24,0,36.046-5.032,51.493-14.552
						c0.469-0.29,1.085-0.143,1.376,0.327c0.289,0.47,0.144,1.086-0.327,1.376
						C1503.455,1816.666,1485.286,1821.801,1466.676,1821.801z"/>
					<path style="fill:#363E44;" d="M1531.968,1797.315c-0.278,0-0.556-0.116-0.753-0.342c-0.363-0.416-0.321-1.048,0.095-1.411
						c21.387-18.683,33.652-45.672,33.652-74.046v-55.63c0-0.552,0.447-1,1-1s1,0.448,1,1v55.63
						c0,28.951-12.515,56.489-34.336,75.552C1532.437,1797.234,1532.201,1797.315,1531.968,1797.315z"/>
					<path style="fill:#363E44;" d="M1385.86,1673.874c-0.553,0-1-0.448-1-1v-25.885c0-45.113,36.702-81.815,81.815-81.815
						c0.553,0,1,0.448,1,1s-0.447,1-1,1c-44.011,0-79.815,35.805-79.815,79.815v25.885
						C1386.86,1673.426,1386.413,1673.874,1385.86,1673.874z"/>
					<path style="fill:#363E44;" d="M1440.25,1798.586c-0.108,0-0.219-0.018-0.327-0.055
						c-32.935-11.391-55.063-42.472-55.063-77.341v-8.615c0-0.552,0.447-1,1-1s1,0.448,1,1v8.615
						c0,34.018,21.587,64.339,53.717,75.451c0.521,0.181,0.799,0.75,0.618,1.272
						C1441.052,1798.326,1440.664,1798.586,1440.25,1798.586z"/>
					<path style="fill:#363E44;" d="M1475.117,1802.57c-0.506,0-0.94-0.383-0.994-0.897c-0.057-0.549,0.343-1.041,0.892-1.098
						c30.503-3.166,56.794-23.933,66.979-52.905c0.184-0.521,0.752-0.794,1.275-0.612c0.521,0.183,0.795,0.754,0.611,1.275
						c-10.44,29.699-37.391,50.986-68.659,54.231C1475.187,1802.568,1475.151,1802.57,1475.117,1802.57z"/>
					<path style="fill:#363E44;" d="M1547.491,1713.575c-0.553,0-1-0.448-1-1v-65.586c0-30.533-17-57.942-44.364-71.531
						c-0.495-0.246-0.697-0.846-0.451-1.34s0.845-0.697,1.34-0.451c28.051,13.928,45.476,42.024,45.476,73.322v65.586
						C1548.491,1713.127,1548.044,1713.575,1547.491,1713.575z"/>
					<path style="fill:#363E44;" d="M1410.502,1748.997c-0.365,0-0.717-0.201-0.894-0.548c-4.555-8.994-6.864-18.701-6.864-28.852
						v-63.92c0-0.552,0.447-1,1-1s1,0.448,1,1v63.92c0,9.834,2.237,19.237,6.649,27.948c0.249,0.493,0.052,1.094-0.44,1.344
						C1410.808,1748.962,1410.653,1748.997,1410.502,1748.997z"/>
					<path style="fill:#363E44;" d="M1466.676,1783.529c-17.623,0-34.641-7.383-46.688-20.256c-0.377-0.403-0.356-1.036,0.047-1.413
						c0.404-0.377,1.036-0.357,1.414,0.047c11.671,12.471,28.156,19.623,45.228,19.623c34.149,0,61.933-27.783,61.933-61.932
						c0-0.552,0.447-1,1-1s1,0.448,1,1C1530.608,1754.849,1501.929,1783.529,1466.676,1783.529z"/>
					<path style="fill:#363E44;" d="M1529.608,1702.837c-0.553,0-1-0.448-1-1v-53.256c0-9.977-2.428-19.891-7.021-28.672
						c-0.256-0.489-0.067-1.094,0.422-1.35c0.491-0.256,1.093-0.067,1.35,0.422c4.743,9.065,7.25,19.3,7.25,29.599v53.256
						C1530.608,1702.389,1530.161,1702.837,1529.608,1702.837z"/>
					<path style="fill:#363E44;" d="M1406.479,1631.175c-0.097,0-0.194-0.014-0.292-0.044c-0.528-0.161-0.826-0.72-0.664-1.248
						c8.262-27.056,32.837-45.234,61.153-45.234c17.696,0,34.158,7.068,46.353,19.901c0.381,0.4,0.364,1.033-0.036,1.414
						c-0.399,0.381-1.033,0.364-1.413-0.036c-11.813-12.432-27.76-19.278-44.903-19.278c-27.431,0-51.237,17.609-59.241,43.818
						C1407.304,1630.898,1406.907,1631.175,1406.479,1631.175z"/>
					<path style="fill:#363E44;" d="M1506.467,1739.901c-0.161,0-0.324-0.039-0.477-0.122c-0.485-0.264-0.665-0.871-0.401-1.356
						c3.494-6.431,5.341-13.725,5.341-21.093v-51.445c0-0.552,0.447-1,1-1s1,0.448,1,1v51.445c0,7.7-1.931,15.324-5.583,22.048
						C1507.165,1739.712,1506.821,1739.901,1506.467,1739.901z"/>
					<path style="fill:#363E44;" d="M1511.93,1651.848c-0.553,0-1-0.448-1-1c0-24.401-19.853-44.254-44.254-44.254
						c-4.148,0-8.254,0.573-12.203,1.704c-0.526,0.15-1.084-0.154-1.236-0.686c-0.152-0.531,0.154-1.085,0.686-1.237
						c4.128-1.182,8.419-1.781,12.754-1.781c25.505,0,46.254,20.749,46.254,46.254
						C1512.93,1651.4,1512.482,1651.848,1511.93,1651.848z"/>
					<path style="fill:#363E44;" d="M1421.423,1695.618c-0.553,0-1-0.448-1-1v-43.771c0-13.365,5.78-26.073,15.859-34.866
						c0.414-0.363,1.046-0.321,1.411,0.096c0.362,0.416,0.319,1.048-0.097,1.411c-9.644,8.413-15.174,20.572-15.174,33.359v43.771
						C1422.423,1695.171,1421.976,1695.618,1421.423,1695.618z"/>
					<path style="fill:#363E44;" d="M1466.676,1763.584c-25.504,0-46.253-20.749-46.253-46.254c0-0.552,0.447-1,1-1s1,0.448,1,1
						c0,24.401,19.852,44.254,44.253,44.254c8.868,0,17.424-2.613,24.742-7.557c0.456-0.31,1.08-0.188,1.389,0.269
						c0.309,0.458,0.188,1.079-0.27,1.388C1484.888,1760.852,1475.944,1763.584,1466.676,1763.584z"/>
					<path style="fill:#363E44;" d="M1437.51,1650.361c-0.064,0-0.13-0.006-0.195-0.019c-0.542-0.107-0.894-0.634-0.786-1.175
						c2.841-14.326,15.521-24.724,30.147-24.724c2.227,0,4.448,0.239,6.604,0.711c0.539,0.118,0.881,0.651,0.763,1.191
						c-0.118,0.54-0.65,0.881-1.19,0.763c-2.015-0.441-4.093-0.665-6.176-0.665c-13.676,0-25.529,9.721-28.187,23.113
						C1438.396,1650.031,1437.978,1650.361,1437.51,1650.361z"/>
					<path style="fill:#363E44;" d="M1440.257,1727.66c-0.362,0-0.711-0.197-0.889-0.54c-2.242-4.328-3.428-9.21-3.428-14.119
						v-31.671c0-0.552,0.447-1,1-1s1,0.448,1,1v31.671c0,4.656,1.078,9.097,3.203,13.199c0.254,0.49,0.063,1.094-0.428,1.348
						C1440.569,1727.624,1440.411,1727.66,1440.257,1727.66z"/>
					<path style="fill:#363E44;" d="M1479.152,1741.001c-0.378,0-0.739-0.215-0.908-0.58c-0.232-0.501-0.014-1.096,0.487-1.328
						c10.133-4.69,16.681-14.932,16.681-26.093v-6.924c0-0.552,0.447-1,1-1s1,0.448,1,1v6.924c0,11.938-7.003,22.892-17.841,27.908
						C1479.436,1740.971,1479.293,1741.001,1479.152,1741.001z"/>
					<path style="fill:#363E44;" d="M1496.412,1689.438c-0.553,0-1-0.448-1-1v-33.261c0-6.479-2.104-12.595-6.086-17.686
						c-0.34-0.435-0.263-1.063,0.172-1.404c0.436-0.341,1.063-0.262,1.404,0.172c4.259,5.446,6.51,11.988,6.51,18.918v33.261
						C1497.412,1688.991,1496.965,1689.438,1496.412,1689.438z"/>
					<path style="fill:#363E44;" d="M1454.201,1673.874c-0.553,0-1-0.448-1-1v-17.271c0-7.43,6.045-13.475,13.475-13.475
						c7.431,0,13.476,6.045,13.476,13.475v5.254c0,0.552-0.447,1-1,1s-1-0.448-1-1v-5.254c0-6.327-5.147-11.475-11.476-11.475
						c-6.327,0-11.475,5.148-11.475,11.475v17.271C1455.201,1673.426,1454.754,1673.874,1454.201,1673.874z"/>
					<path style="fill:#363E44;" d="M1454.201,1705.824c-0.553,0-1-0.448-1-1v-20.926c0-0.552,0.447-1,1-1s1,0.448,1,1v20.926
						C1455.201,1705.377,1454.754,1705.824,1454.201,1705.824z"/>
					<path style="fill:#363E44;" d="M1466.676,1726.05c-4.411,0-8.55-2.165-11.071-5.792c-0.315-0.453-0.203-1.077,0.251-1.392
						c0.452-0.315,1.076-0.203,1.392,0.25c2.147,3.089,5.672,4.934,9.429,4.934c6.328,0,11.476-5.148,11.476-11.475
						c0-0.552,0.447-1,1-1s1,0.448,1,1C1480.151,1720.005,1474.106,1726.05,1466.676,1726.05z"/>
					<path style="fill:#363E44;" d="M1479.151,1695.618c-0.553,0-1-0.448-1-1v-22.268c0-0.552,0.447-1,1-1s1,0.448,1,1v22.268
						C1480.151,1695.171,1479.704,1695.618,1479.151,1695.618z"/>
					<path style="fill:#363E44;" d="M1466.676,1699.569c-0.553,0-1-0.448-1-1v-31.246c0-0.552,0.447-1,1-1s1,0.448,1,1v31.246
						C1467.676,1699.121,1467.229,1699.569,1466.676,1699.569z"/>
				</g>
			</g>
			<path style="fill:#ff6900;" d="M1452.624,1874.625l-42-32.422l-15.411,19.964c-7.825-3.219-15.935-5.393-24.133-6.538
				l-3.22-25.019l-52.625,6.773l3.22,25.019c-7.641,3.184-14.936,7.34-21.691,12.435l-19.964-15.412l-32.422,42l19.964,15.412
				c-3.219,7.825-5.393,15.935-6.538,24.133l-25.019,3.22l6.773,52.625l25.019-3.22c3.184,7.641,7.339,14.936,12.435,21.691
				l-15.412,19.964l42,32.422l15.412-19.964c7.825,3.219,15.935,5.393,24.133,6.538l3.22,25.019l52.625-6.773l-3.22-25.019
				c7.641-3.184,14.936-7.34,21.691-12.435l19.964,15.412l32.422-42l-19.964-15.412c3.219-7.825,5.393-15.935,6.538-24.133
				l25.019-3.22l-6.773-52.625l-25.019,3.22c-3.184-7.641-7.339-14.936-12.435-21.691L1452.624,1874.625z M1400.826,1988.683
				c-18.637,24.143-53.317,28.606-77.46,9.969s-28.606-53.317-9.969-77.46c18.637-24.143,53.317-28.606,77.46-9.969
				S1419.463,1964.54,1400.826,1988.683z"/>
		</g>
	</g>
</g>
</svg>
