<?xml version="1.0" encoding="utf-8"?>
<!-- Generator: Adobe Illustrator 27.5.0, SVG Export Plug-In . SVG Version: 6.00 Build 0)  -->
<svg version="1.1" xmlns="http://www.w3.org/2000/svg" xmlns:xlink="http://www.w3.org/1999/xlink" x="0px" y="0px"
	 viewBox="0 0 2500 2500" style="enable-background:new 0 0 2500 2500;" xml:space="preserve">
-
<g id="Illustration">
	<g id="Listen_to_podcasts_1_">
		<circle style="fill:transparent;" cx="1250" cy="1250" r="915"/>
		<g>
			<path style="fill:#E6D0BE;" d="M1064.855,1833.934c-0.232,0-0.465-0.08-0.654-0.243
				c-97.103-83.947-185.505-182.503-262.75-292.927c-61.793-88.335-116.626-184.421-162.975-285.589
				c-78.919-172.26-106.194-301.256-106.461-302.539c-0.112-0.541,0.235-1.07,0.776-1.183c0.539-0.111,1.069,0.234,1.183,0.776
				c0.266,1.281,27.508,130.1,106.346,302.167c72.752,158.787,205.575,387.921,425.189,577.78c0.417,0.361,0.463,0.993,0.103,1.411
				C1065.414,1833.816,1065.136,1833.934,1064.855,1833.934z"/>
			<path style="fill:#E6D0BE;" d="M555.504,1035.79c0,0-84.863-44.751-62.985-231.537
				C492.52,804.253,632.865,924.909,555.504,1035.79z"/>
			<path style="fill:#E6D0BE;" d="M567.705,1105.089c2.204-0.8-50.052-80.228-188.537-77.883
				C379.168,1027.206,485.567,1134.897,567.705,1105.089z"/>
			<path style="fill:#E6D0BE;" d="M599.567,1199.698c0,0-62.796-52.899-208.141-12.384
				C391.427,1187.315,553.739,1254.467,599.567,1199.698z"/>
			<path style="fill:#E6D0BE;" d="M650.195,1303.567c1.396-1.883-86.022-39.267-200.202,39.131
				C449.992,1342.698,598.158,1373.763,650.195,1303.567z"/>
			<path style="fill:#E6D0BE;" d="M690.691,1382.017c0,0-73.39-4.172-156.308,102.566
				C534.383,1484.583,686.953,1445.668,690.691,1382.017z"/>
			<path style="fill:#E6D0BE;" d="M586.067,1103.2c-1.979,0.636-8.482-83.42,89.867-156.983
				C675.934,946.217,659.832,1079.488,586.067,1103.2z"/>
			<path style="fill:#E6D0BE;" d="M624.489,1191.328c0,0,17.246-80.276,156.957-137.26
				C781.445,1054.068,694.258,1206.558,624.489,1191.328z"/>
			<path style="fill:#E6D0BE;" d="M679.505,1299.153c-2.257-0.634,43.954-83.724,182.23-91.675
				C861.735,1207.477,763.631,1322.775,679.505,1299.153z"/>
			<path style="fill:#E6D0BE;" d="M715.327,1375.851c0,0,55.462-48.244,186.38-14.646
				C901.707,1361.205,757.264,1423.88,715.327,1375.851z"/>
		</g>
		<g>
			<g>
				<rect x="958.544" y="556.1" style="fill:#E6D0BE;" width="741.178" height="1398.283"/>
				<path style="fill:#D3BBA3;" d="M1674.572,2037.951H978.568c-42.711,0-77.459-34.748-77.459-77.459V536.7
					c0-42.711,34.748-77.458,77.459-77.458h696.004c42.711,0,77.459,34.747,77.459,77.458v1423.793
					C1752.031,2003.204,1717.283,2037.951,1674.572,2037.951z M978.568,461.242c-41.608,0-75.459,33.851-75.459,75.458v1423.792
					c0,41.608,33.851,75.459,75.459,75.459h696.004c41.608,0,75.459-33.851,75.459-75.458V536.7
					c0-41.607-33.851-75.458-75.459-75.458H978.568z"/>
			</g>
			<g>
				<rect x="991.135" y="645.688" style="fill:#F2E6DC;" width="670.87" height="611.067"/>
			</g>
			<g>
				<rect x="996.922" y="1326.251" style="fill:#F2E6DC;" width="659.295" height="85.057"/>
				<rect x="996.922" y="1444.575" style="fill:#F2E6DC;" width="659.295" height="85.056"/>
			</g>
			<circle style="fill:#EFBC73;" cx="1332.042" cy="929.933" r="211.992"/>
			<g>
				<path style="fill:#363E44;" d="M1331.605,790.089c-25.068,0-45.39,20.322-45.39,45.39v111.624
					c0,25.068,20.322,45.39,45.39,45.39c25.068,0,45.39-20.322,45.39-45.39V835.479
					C1376.995,810.411,1356.673,790.089,1331.605,790.089z"/>
				<path style="fill:#363E44;" d="M1391.128,1022.282h-119.047c-0.553,0-1-0.447-1-1v-89.239c0-0.553,0.447-1,1-1s1,0.447,1,1
					v88.239h117.047v-88.239c0-0.553,0.447-1,1-1s1,0.447,1,1v89.239C1392.128,1021.835,1391.681,1022.282,1391.128,1022.282z"/>
				<path style="fill:#363E44;" d="M1331.604,1061.548c-0.553,0-1-0.447-1-1v-20.675c0-0.553,0.447-1,1-1s1,0.447,1,1v20.675
					C1332.604,1061.101,1332.157,1061.548,1331.604,1061.548z"/>
				<path style="fill:#363E44;" d="M1402.894,1081.022h-142.578c-0.553,0-1-0.447-1-1s0.447-1,1-1h142.578c0.553,0,1,0.447,1,1
					S1403.446,1081.022,1402.894,1081.022z"/>
			</g>
		</g>
		<g>
			<g>
				<path style="fill:#FFFFFF;" d="M2029.073,881.619h-10.129c-0.907-4.938-2.201-9.74-3.845-14.376l8.766-5.061l-17.14-29.688
					l-8.786,5.073c-3.224-3.775-6.741-7.291-10.515-10.515l5.073-8.786l-29.688-17.141l-5.061,8.767
					c-4.636-1.645-9.438-2.938-14.375-3.845v-10.129h-34.281v10.129c-4.938,0.907-9.74,2.201-14.376,3.845l-5.061-8.767
					l-29.688,17.141l5.073,8.786c-3.775,3.224-7.291,6.741-10.515,10.515l-8.786-5.073l-17.14,29.688l8.766,5.061
					c-1.644,4.636-2.938,9.438-3.845,14.376h-10.129v34.281h10.129c0.907,4.938,2.201,9.74,3.845,14.376l-8.766,5.061l17.14,29.688
					l8.786-5.073c3.224,3.775,6.741,7.291,10.515,10.515l-5.073,8.786l29.688,17.14l5.061-8.766
					c4.636,1.644,9.438,2.938,14.376,3.845v10.129h34.281v-10.129c4.938-0.907,9.739-2.201,14.375-3.845l5.061,8.766l29.688-17.14
					l-5.073-8.786c3.775-3.224,7.291-6.741,10.515-10.515l8.786,5.073l17.14-29.688l-8.766-5.061
					c1.644-4.636,2.938-9.438,3.845-14.376h10.129V881.619z M1983.01,900.618c-0.949,29.744-25.175,53.97-54.919,54.92
					c-32.845,1.048-59.687-25.793-58.638-58.638c0.949-29.744,25.175-53.97,54.919-54.919
					C1957.216,840.932,1984.058,867.773,1983.01,900.618z"/>
			</g>
			<path style="fill:#F2E6DC;" d="M1926.231,974.748c-41.9,0-75.989-34.089-75.989-75.989c0-18.308,6.603-35.993,18.592-49.8
				c11.869-13.669,28.212-22.669,46.019-25.343c0.548-0.077,1.056,0.295,1.138,0.841c0.082,0.546-0.295,1.056-0.841,1.138
				c-35.863,5.385-62.907,36.839-62.907,73.164c0,40.798,33.191,73.989,73.989,73.989c33.709,0,63.16-22.759,71.62-55.344
				c0.14-0.535,0.688-0.86,1.219-0.717c0.535,0.139,0.855,0.685,0.717,1.219C1991.099,951.374,1960.852,974.748,1926.231,974.748z"
				/>
		</g>
		<path style="fill:#EFBC73;" d="M1232.944,1800.302c0,201.871-200.673,320.864-448.217,320.864S336.51,2002.173,336.51,1800.302
			s127.9-415.138,375.444-415.138c123.772,0,238.167,135.623,355.596,200.126
			C1165.762,1639.237,1232.944,1699.366,1232.944,1800.302z"/>
		<g>
			<g>
				<path style="fill:#FFFFFF;" d="M1287.226,1363.577l-65.435-65.435c-7.793-7.792-20.065-8.84-29.066-2.48l-53.731,37.965
					c-10.23,10.23-24.105,15.977-38.573,15.977H680.678c-77.963,0-143.961,57.545-154.581,134.78l-47.625,306.821h385.367
					l77.735-281.169h180.089c44.056,0,86.334-17.372,117.663-48.347l50.179-68.766
					C1296.078,1383.915,1295.111,1371.462,1287.226,1363.577z"/>
				<g>
					<path style="fill:#BC8271;" d="M1133.784,1358.684c0,0-0.002-0.007,0.001-0.009c94.515-86.76,159.908-150.126,180.865-168.896
						c2.195-1.965,6.052-5.452,12.107-8.456c22.435-11.13,39.079,2.208,68.009,1.269c32.825-1.065,50.706-20.249,56.315-14.014
						c3.902,4.337-0.806,13.473-16.412,27.093c0,0,0,0.004,0.002,0.003c13.046-8.985,31.272-20.399,36.216-13.174
						c5.263,8.647-14.575,24.571-27.046,33.617c15.096-10.95,26.399-12.256,28.152-7.542c2.759,7.422-6.97,18.639-27.482,32.337
						c16.806-5.502,21.703-4.33,22.237,0.216c0.974,8.299-16.102,19.243-32.681,26.604c-18.664,8.287-36.014,8.239-46.952,7.948
						c-0.003,0-0.006,0.001-0.008,0.004c-59.896,67.628-101.436,108.694-145.586,166.799
						C1213.383,1479.515,1121.339,1427.938,1133.784,1358.684z"/>
					<path style="fill:#363E44;" d="M1132.42,1359.908c-0.27,0-0.539-0.109-0.736-0.323c-0.374-0.407-0.347-1.04,0.06-1.413
						c12.899-11.844,26.14-24.065,39.355-36.326c0.404-0.377,1.036-0.353,1.413,0.054c0.375,0.404,0.352,1.037-0.054,1.413
						c-13.217,12.263-26.461,24.487-39.361,36.332C1132.904,1359.821,1132.662,1359.908,1132.42,1359.908z"/>
					<path style="fill:#BC8271;" d="M1368.432,1189.642c22.486-23.461,25.625-36.689,21.793-40.134
						c-6.444-5.793-33.84,6.378-71.022,36.527C1332.828,1188.27,1354.806,1187.407,1368.432,1189.642z"/>
					<g>
						<path style="fill:#363E44;" d="M1348.689,1241.047c-0.249,0-0.497-0.092-0.691-0.277c-0.398-0.382-0.413-1.015-0.031-1.414
							c4.083-4.271,11.096-9.854,21.321-12.195c14.477-3.313,26.322,2.117,30.744,4.605c0.481,0.271,0.652,0.88,0.381,1.361
							c-0.271,0.48-0.88,0.653-1.361,0.381c-4.22-2.374-15.522-7.555-29.316-4.398c-9.743,2.231-16.43,7.555-20.323,11.629
							C1349.216,1240.943,1348.953,1241.047,1348.689,1241.047z"/>
						<path style="fill:#363E44;" d="M1375.658,1183.489c-0.049,0-0.1-0.004-0.149-0.011c-3.877-0.583-7.532-1.295-11.068-1.984
							c-7.422-1.446-14.431-2.811-21.405-2.483c-0.538,0.037-1.02-0.4-1.046-0.952c-0.025-0.552,0.4-1.02,0.952-1.046
							c7.211-0.34,14.339,1.05,21.882,2.519c3.515,0.685,7.148,1.393,10.982,1.969c0.546,0.082,0.923,0.592,0.841,1.138
							C1376.571,1183.134,1376.146,1183.489,1375.658,1183.489z"/>
						<path style="fill:#363E44;" d="M1406.243,1204.827c-0.52,0-0.958-0.401-0.996-0.928c-0.04-0.551,0.374-1.029,0.925-1.069
							c3.884-0.283,7.756-0.928,11.51-1.916c5.446-1.435,10.695-3.601,15.601-6.438c0.479-0.279,1.091-0.114,1.366,0.364
							c0.277,0.479,0.113,1.09-0.364,1.366c-5.061,2.928-10.475,5.162-16.093,6.642c-3.873,1.021-7.868,1.686-11.875,1.977
							C1406.292,1204.826,1406.268,1204.827,1406.243,1204.827z"/>
						<path style="fill:#363E44;" d="M1417.318,1223.783c-0.52,0-0.958-0.401-0.996-0.927c-0.04-0.551,0.373-1.03,0.924-1.07
							c3.891-0.284,7.763-0.929,11.511-1.916c5.449-1.437,10.699-3.603,15.602-6.439c0.479-0.279,1.089-0.113,1.366,0.364
							c0.277,0.479,0.113,1.09-0.364,1.366c-5.058,2.927-10.472,5.161-16.094,6.643c-3.867,1.019-7.862,1.684-11.874,1.977
							C1417.367,1223.782,1417.343,1223.783,1417.318,1223.783z"/>
						<path style="fill:#363E44;" d="M1416.486,1250.478c-0.52,0-0.958-0.401-0.996-0.928c-0.04-0.551,0.374-1.029,0.925-1.069
							c3.887-0.283,7.76-0.928,11.51-1.915c5.449-1.437,10.699-3.603,15.602-6.439c0.479-0.279,1.089-0.114,1.366,0.364
							s0.113,1.09-0.364,1.366c-5.058,2.927-10.472,5.161-16.094,6.643c-3.869,1.02-7.864,1.685-11.875,1.976
							C1416.535,1250.477,1416.511,1250.478,1416.486,1250.478z"/>
					</g>
				</g>
				<g>
					<path style="fill:#363E44;" d="M1026.462,1538.152H845.05l94.307-229.897h169.968c9.92,0,16.67,10.064,12.905,19.242
						l-82.863,202.001C1037.218,1534.734,1032.12,1538.152,1026.462,1538.152z"/>
					<path style="fill:#E6D0BE;" d="M1017.539,1532.073H847.3c-0.553,0-1-0.447-1-1s0.447-1,1-1h170.239
						c4.926,0,9.315-2.944,11.185-7.501l77.761-189.562c1.532-3.735,1.104-7.968-1.145-11.321s-6.002-5.355-10.04-5.355
						c-0.553,0-1-0.447-1-1s0.447-1,1-1c4.706,0,9.08,2.333,11.701,6.242c2.621,3.908,3.119,8.841,1.333,13.194l-77.761,189.562
						C1028.396,1528.642,1023.279,1532.073,1017.539,1532.073z"/>
				</g>
				<g>
					<path style="fill:#BC8271;" d="M980.246,1461.239c-7.126-17.306-65.35,8.11-73.5,10.832
						c0.477-0.551,76.913-33.718,71.449-50.487c-5.31-16.294-68.498,13.929-83.789,19.224c12.382-6.869,68.065-37.347,63.023-49.549
						c-10.694-25.877-126.913,45.77-150.552,58.767c-7.504,4.126-55.104,32.662-104.103,61.381l64.62,123.571
						c18.035-11.655,38.396-25.322,62.161-41.744c37.319-25.789,67.094-49.166,88.087-60.731
						c6.287-5.516,58.329-23.045,52.355-37.613c-4.459-10.873-44.053,4.3-54.836,6.437
						C922.791,1496.016,987.109,1477.905,980.246,1461.239z"/>
					<path style="fill:#363E44;" d="M617.236,1707.08c-16.559,0-36.649-4.752-55.985-21.536c-0.417-0.361-0.462-0.993-0.1-1.41
						c0.361-0.418,0.992-0.463,1.41-0.1c39.206,34.028,81.574,17.45,89.669,13.78c32.176-14.584,63.884-30.93,113.854-63.18
						l-31.893-60.988c-0.256-0.49-0.067-1.094,0.422-1.35c0.491-0.258,1.096-0.066,1.35,0.422l32.315,61.797
						c0.24,0.458,0.091,1.023-0.343,1.304c-50.516,32.645-82.459,49.121-114.88,63.817
						C648.761,1701.583,635.041,1707.08,617.236,1707.08z"/>
					<path style="fill:#363E44;" d="M612.542,1563.902c-0.357,0-0.701-0.19-0.882-0.526c-0.262-0.486-0.079-1.093,0.407-1.354
						c19.201-10.317,48.706-27.155,90.201-51.476c0.477-0.282,1.09-0.12,1.368,0.356c0.279,0.477,0.12,1.089-0.356,1.368
						c-41.517,24.334-71.043,41.184-90.266,51.513C612.864,1563.864,612.701,1563.902,612.542,1563.902z"/>
					<g>
						<path style="fill:#363E44;" d="M862.938,1448.762c-0.377,0-0.737-0.213-0.907-0.577l-5.025-10.755
							c-0.233-0.5-0.018-1.095,0.483-1.329c0.5-0.232,1.096-0.018,1.329,0.483l5.025,10.755c0.233,0.5,0.018,1.095-0.483,1.329
							C863.224,1448.731,863.08,1448.762,862.938,1448.762z"/>
						<path style="fill:#363E44;" d="M875.731,1476.032c-0.377,0-0.737-0.213-0.907-0.577l-5.025-10.754
							c-0.233-0.5-0.018-1.095,0.483-1.329c0.5-0.233,1.096-0.018,1.329,0.483l5.025,10.754c0.233,0.5,0.018,1.095-0.483,1.329
							C876.016,1476.002,875.872,1476.032,875.731,1476.032z"/>
						<path style="fill:#363E44;" d="M889.062,1503.658c-0.377,0-0.737-0.213-0.907-0.576l-5.026-10.755
							c-0.233-0.501-0.018-1.096,0.482-1.33c0.505-0.231,1.096-0.017,1.33,0.482l5.026,10.755c0.233,0.501,0.018,1.096-0.482,1.33
							C889.347,1503.628,889.203,1503.658,889.062,1503.658z"/>
						<path style="fill:#363E44;" d="M900.635,1528.961c-0.377,0-0.737-0.213-0.907-0.577l-5.025-10.755
							c-0.233-0.5-0.018-1.095,0.483-1.329c0.501-0.232,1.096-0.018,1.329,0.483l5.025,10.755c0.233,0.5,0.018,1.095-0.483,1.329
							C900.92,1528.931,900.776,1528.961,900.635,1528.961z"/>
					</g>
				</g>
			</g>
			<g>
				<path style="fill:#363E44;" d="M1250.133,1753.246l-276.227,133.115c-88.005,42.41-54.957,64.434-152.648,64.434H645.911
					l527.52-356.715c43.953-21.181,96.754-2.721,117.934,41.232S1294.086,1732.065,1250.133,1753.246z"/>
				<path style="fill:#F2E6DC;" d="M911.803,1989.093c-50.117,115.507-119.112,174.692-208.472,173.106l52.118-251.283l81.9-20.475
					L911.803,1989.093z"/>
				<path style="fill:#ff6900;" d="M1278.964,1741.281l-365.941,284.621l-109.478-140.757l365.941-284.621
					c36.98-28.762,90.275-22.101,119.038,14.88l5.32,6.84C1322.606,1659.224,1315.945,1712.519,1278.964,1741.281z"/>
				<polygon style="fill:#E2A18D;" points="1188.01,1852.401 1111.929,1902.019 1158.24,1989.677 1242.59,1956.599 				"/>
				<path style="fill:#FFFFFF;" d="M1138.392,1944.385l30.344,121.374l282.015,0c-30.674-61.425-102.071-109.617-214.189-144.577
					L1138.392,1944.385z"/>
				<g>
					<g>
						<path style="fill:#ff6900;" d="M1173.522,1739.116l-58.102-79.255l-29.051-39.627l-14.526-19.814l-1.816-2.477l-0.482-0.653
							l-1.363-1.709l-2.78-3.382c-1.892-2.229-3.764-4.458-5.794-6.576c-2.053-2.107-4.154-4.177-6.295-6.202
							c-1.073-1.011-2.146-2.019-3.245-2.999l-3.412-2.833c-2.296-1.868-4.632-3.69-7-5.461c-2.406-1.716-4.886-3.341-7.381-4.94
							c-2.499-1.596-5.015-3.156-7.639-4.521c-20.788-11.367-44.208-17.56-67.872-17.66c-11.828-0.204-23.709,1.349-35.311,4.054
							c-2.885,0.751-5.763,1.563-8.621,2.434l-4.271,1.351l-4.192,1.577c-2.787,1.081-5.554,2.221-8.293,3.414
							c-2.707,1.243-5.357,2.608-8,3.992c-5.339,2.718-10.271,5.944-15.175,9.275l-6.486,4.533l-10.056,7.055l-20.112,14.11
							l-80.446,56.441l-160.892,112.882c-1.453,1.029-3.171,2.296-4.587,3.409c-45.262,35.61-53.086,101.171-17.476,146.433
							c35.611,45.262,101.171,53.087,146.434,17.476l154.466-121.527l77.233-60.764l0.787-0.619l20.23,24.641l62.357,75.952
							l100.872,122.865l127.543-109.139L1173.522,1739.116z M925.699,1714.85c-0.585-0.672-1.204-1.272-1.737-1.972
							c-0.271-0.343-0.531-0.694-0.779-1.054l-0.363-0.545l0.461,0.558l1.949,2.373l0.904,1.101
							C925.994,1715.153,925.833,1715.013,925.699,1714.85z"/>
					</g>
					<path style="fill:#363E44;" d="M1069.826,1891.441c-0.29,0-0.577-0.125-0.775-0.367l-89.067-108.857
						c-0.35-0.427-0.286-1.057,0.142-1.407c0.427-0.35,1.056-0.287,1.407,0.142l89.067,108.857c0.35,0.427,0.286,1.057-0.142,1.407
						C1070.272,1891.367,1070.049,1891.441,1069.826,1891.441z"/>
					<path style="fill:#363E44;" d="M1199.313,1775.296c-0.308,0-0.611-0.142-0.808-0.409l-96.908-132.188
						c-0.326-0.445-0.23-1.07,0.216-1.397c0.443-0.328,1.069-0.23,1.397,0.216l96.908,132.188c0.326,0.445,0.23,1.07-0.216,1.397
						C1199.726,1775.233,1199.519,1775.296,1199.313,1775.296z"/>
				</g>
			</g>
			<g>
				<path style="fill:#BC8271;" d="M810.173,1371.59c-1.054,9.392-32.183,13.606-69.528,9.413
					c-37.345-4.193-66.764-15.205-65.709-24.597c1.054-9.392,32.183-13.606,69.528-9.413
					C781.808,1351.186,811.227,1362.199,810.173,1371.59z"/>
				<g>
					<path style="fill:#BC8271;" d="M812.068,1298.213c-19.652,14.604-76.859-22.663-76.859-22.663l-33.71-66.776
						c-0.742-34.437,26.573-62.955,61.01-63.696c34.437-0.742,62.955,26.573,63.696,61.01
						C826.204,1206.087,832.084,1283.338,812.068,1298.213z"/>
					
						<rect x="703.172" y="1207.241" transform="matrix(0.9998 -0.0215 0.0215 0.9998 -27.5256 16.2559)" style="fill:#BC8271;" width="75.574" height="157.674"/>
					<path style="fill:#BC8271;" d="M819.392,1222.637c0,0,17.884,17.947,17.058,22.805c-0.986,5.798-20.392,9.74-20.392,9.74
						S819.858,1222.671,819.392,1222.637z"/>
					<g>
						<path style="fill:#FFFFFF;" d="M763.064,1221.181c0,0,10.318-5.839,22.902-6.11c2.677-0.057-1.912,21.475-4.48,20.317
							C770.197,1230.295,763.064,1221.181,763.064,1221.181z"/>
						<g>
							<defs>
								<path id="SVGID_1_" d="M763.064,1221.181c0,0,15.175-8.589,31.164-5.416c15.988,3.172,26.735,16.904,26.735,16.904
									s-15.175,8.589-31.163,5.416C773.81,1234.913,763.064,1221.181,763.064,1221.181z"/>
							</defs>
							<clipPath id="SVGID_00000152983544257394624160000011258290158155154579_">
								<use xlink:href="#SVGID_1_"  style="overflow:visible;"/>
							</clipPath>
							<path style="clip-path:url(#SVGID_00000152983544257394624160000011258290158155154579_);fill:#363E44;" d="
								M786.486,1214.509c8.143-8.502,21.637-8.793,30.139-0.649c8.502,8.143,8.793,21.637,0.649,30.139
								c-8.143,8.502-21.637,8.793-30.139,0.649C778.633,1236.505,778.343,1223.011,786.486,1214.509z"/>
						</g>
					</g>
					<path style="fill:#363E44;" d="M800.665,1267.311c-1.774,0-3.547-0.481-5.11-1.448c-3.129-1.938-4.921-5.568-4.563-9.253
						c0.053-0.55,0.529-0.948,1.092-0.898c0.55,0.053,0.952,0.542,0.898,1.092c-0.283,2.932,1.14,5.819,3.626,7.358
						c2.581,1.598,5.888,1.525,8.424-0.184c0.457-0.307,1.078-0.188,1.388,0.271c0.309,0.458,0.188,1.079-0.271,1.388
						C804.495,1266.75,802.579,1267.311,800.665,1267.311z"/>
					<path style="fill:#363E44;" d="M792.998,1303.108c-0.051,0-0.102-0.004-0.155-0.012c-24.439-3.81-57.823-25.416-58.157-25.634
						c-0.463-0.302-0.594-0.921-0.292-1.384c0.301-0.463,0.92-0.594,1.384-0.292c0.331,0.216,33.359,21.59,57.374,25.333
						c0.545,0.085,0.919,0.597,0.834,1.143C793.908,1302.756,793.482,1303.108,792.998,1303.108z"/>
				</g>
				<path style="fill:#363E44;" d="M743.102,1223.905c0,0,0-74.427,77.735-59.542c47.36,9.069,43.002-33.079,43.002-33.079
					l-18.193,4.962c0,0,29.771-28.117,11.578-56.234c-22.677-35.047-81.043,9.923-127.353,38.04
					c-15.545,9.438-30.158,18.131-42.714,25.515c-22.896,13.466-30.537,42.939-17.052,65.823l29.995,50.9l3.061,25.641l18.44-58.72
					L743.102,1223.905z"/>
				<circle style="fill:#BC8271;" cx="715.811" cy="1229.693" r="22.328"/>
				<g>
					
						<ellipse transform="matrix(0.9239 -0.3827 0.3827 0.9239 -419.4816 361.7259)" style="fill:#D87355;" cx="699.519" cy="1235.302" rx="47.771" ry="47.771"/>
					<path style="fill:#D87355;" d="M698.854,1225.276c-0.325,0-0.644-0.158-0.836-0.449
						c-10.129-15.355-15.366-34.083-14.748-52.734c0.61-18.391,6.823-35.582,17.495-48.407c13.604-16.35,33.805-25.12,55.43-24.081
						c0.552,0.027,0.978,0.496,0.951,1.047c-0.027,0.553-0.513,0.978-1.047,0.951c-20.992-1.023-40.598,7.5-53.797,23.362
						c-21.901,26.321-23.001,67.855-2.614,98.761c0.304,0.461,0.177,1.081-0.284,1.386
						C699.234,1225.223,699.043,1225.276,698.854,1225.276z"/>
				</g>
			</g>
		</g>
		<g>
			<path style="fill:#363E44;" d="M802.539,905.215c-0.006,0-0.013,0-0.019,0c-0.553-0.011-0.991-0.467-0.981-1.018
				c0.014-0.705,0.059-1.425,0.138-2.139c0.684-6.225,3.749-11.807,8.633-15.719c4.884-3.912,11.004-5.683,17.225-4.993
				c0.549,0.062,0.944,0.556,0.884,1.104c-0.063,0.55-0.564,0.938-1.105,0.884c-5.686-0.633-11.286,0.988-15.754,4.565
				c-4.466,3.578-7.27,8.683-7.895,14.376c-0.071,0.653-0.114,1.313-0.126,1.958C803.528,904.779,803.083,905.215,802.539,905.215z"
				/>
			<path style="fill:#363E44;" d="M777.889,900.408c-0.036,0-0.073-0.002-0.11-0.006c-0.549-0.06-0.945-0.555-0.885-1.103
				c1.41-12.845,7.737-24.365,17.816-32.438c10.079-8.072,22.708-11.73,35.545-10.303c0.549,0.062,0.944,0.556,0.884,1.104
				c-0.062,0.55-0.556,0.939-1.104,0.884c-12.311-1.371-24.412,2.136-34.074,9.875c-9.661,7.738-15.727,18.781-17.078,31.096
				C778.825,900.029,778.393,900.408,777.889,900.408z"/>
			<path style="fill:#363E44;" d="M740.22,896.217c-0.036,0-0.073-0.002-0.11-0.006c-0.549-0.06-0.945-0.555-0.885-1.103
				c2.515-22.909,13.8-43.454,31.774-57.851c17.975-14.396,40.491-20.92,63.392-18.373c0.549,0.062,0.944,0.556,0.884,1.104
				c-0.062,0.55-0.556,0.939-1.104,0.884c-22.374-2.491-44.362,3.883-61.921,17.945c-17.558,14.063-28.58,34.131-31.036,56.509
				C741.156,895.838,740.724,896.217,740.22,896.217z"/>
			<path style="fill:#363E44;" d="M702.551,892.025c-0.036,0-0.073-0.002-0.11-0.006c-0.549-0.06-0.945-0.555-0.885-1.103
				c3.62-32.972,19.86-62.541,45.73-83.263c25.872-20.722,58.28-30.107,91.241-26.445c0.549,0.061,0.944,0.556,0.884,1.104
				c-0.061,0.55-0.557,0.94-1.104,0.884c-32.435-3.613-64.317,5.631-89.769,26.018c-25.453,20.387-41.432,49.479-44.993,81.92
				C703.487,891.646,703.055,892.025,702.551,892.025z"/>
		</g>
		<g>
			<rect x="1519.473" y="1069.531" style="fill:#FFFFFF;" width="613.848" height="196.006"/>
			<path style="fill:#363E44;" d="M2150.414,1273.374h-613.849c-0.553,0-1-0.447-1-1v-196.006c0-0.553,0.447-1,1-1h613.849
				c0.553,0,1,0.447,1,1v196.006C2151.414,1272.927,2150.967,1273.374,2150.414,1273.374z M1537.565,1271.374h611.849v-194.006
				h-611.849V1271.374z"/>
			<g>
				<circle style="fill:#E6D0BE;" cx="1827.682" cy="1167.635" r="65.437"/>
				
					<ellipse transform="matrix(0.7071 -0.7071 0.7071 0.7071 -345.0694 1502.2094)" style="fill:#E6D0BE;" cx="1640.792" cy="1167.64" rx="65.437" ry="65.437"/>
				<polygon style="fill:#ff6900;" points="1868.522,1167.635 1806.901,1132.058 1806.901,1203.211 				"/>
				<circle style="fill:#E6D0BE;" cx="2016.859" cy="1167.635" r="65.437"/>
				<polygon style="fill:#ff6900;" points="2020.913,1171.183 1980.247,1147.705 1980.247,1194.661 				"/>
				<polygon style="fill:#ff6900;" points="2062.866,1170.717 2022.201,1147.239 2022.201,1194.195 				"/>
				<polygon style="fill:#ff6900;" points="1635.309,1169.474 1675.974,1145.996 1675.974,1192.952 				"/>
				<polygon style="fill:#ff6900;" points="1593.355,1169.008 1634.02,1145.53 1634.02,1192.486 				"/>
			</g>
		</g>
		<g>
			<polygon style="fill:#2D353A;" points="1614.701,458.168 1753.012,617.409 1816.735,557.608 1679.485,419.377 			"/>
			<polygon style="fill:#40484C;" points="1714.491,521.315 1905.948,595.842 1803.152,428.069 1625.566,353.693 			"/>
			<g>
				<path style="fill:#D87355;" d="M1860.293,668.71c-0.01,0-0.019,0-0.027,0c-0.553-0.015-0.988-0.475-0.974-1.026l2.325-87.021
					l-33.569-52.626c-0.297-0.466-0.16-1.084,0.305-1.381c0.466-0.299,1.085-0.161,1.381,0.305l33.734,52.885
					c0.107,0.169,0.162,0.365,0.157,0.565l-2.333,87.326C1861.277,668.279,1860.832,668.71,1860.293,668.71z"/>
				<polygon style="fill:#D87355;" points="1838.852,723.483 1861.092,647.801 1878.437,723.621 				"/>
			</g>
		</g>
		<g>
			<g>
				
					<rect x="1589.532" y="1990.565" transform="matrix(-1 -1.224647e-16 1.224647e-16 -1 3707.5129 4079.4185)" style="fill:#EFBC73;" width="528.45" height="98.289"/>
				
					<rect x="1588.249" y="2002.947" transform="matrix(-1 -1.224647e-16 1.224647e-16 -1 3691.366 4079.5208)" style="fill:#FFFFFF;" width="514.867" height="73.627"/>
			</g>
			<g>
				
					<rect x="1631.43" y="1829.871" transform="matrix(-1 -1.224647e-16 1.224647e-16 -1 3626.8889 3720.9634)" style="fill:#ff6900;" width="364.028" height="61.221"/>
			</g>
			
				<rect x="1631.191" y="1838.74" transform="matrix(-1 -1.224647e-16 1.224647e-16 -1 3611.7854 3718.271)" style="fill:#FFFFFF;" width="349.403" height="40.791"/>
			<g>
				
					<rect x="1550.985" y="1891.684" transform="matrix(-1 -1.224647e-16 1.224647e-16 -1 3604.8574 3881.6567)" style="fill:#D87355;" width="502.888" height="98.289"/>
				<path style="fill:#ff6900;" d="M1694.166,1935.904v113.752c0,2.048-2.476,3.074-3.925,1.625l-12.215-12.215
					c-1.025-1.025-2.686-1.025-3.711,0l-12.215,12.215c-1.448,1.448-3.925,0.423-3.925-1.625v-113.752H1694.166z"/>
				<g>
					<path style="fill:#FFFFFF;" d="M1623.455,1938.169h162.11H1623.455z"/>
					<path style="fill:#D3BBA3;" d="M1785.565,1939.169h-162.11c-0.553,0-1-0.447-1-1s0.447-1,1-1h162.11c0.553,0,1,0.447,1,1
						S1786.118,1939.169,1785.565,1939.169z"/>
				</g>
				
					<rect x="1546.959" y="1903.153" transform="matrix(-1 -1.224647e-16 1.224647e-16 -1 3584.4487 3883.9331)" style="fill:#FFFFFF;" width="490.531" height="77.626"/>
			</g>
			<g>
				<path style="fill:#363E44;" d="M1929.229,1494.072c-0.233,0-0.467-0.081-0.656-0.245c-0.417-0.362-0.461-0.994-0.099-1.411
					l10.599-12.188c0.363-0.418,0.995-0.459,1.411-0.099c0.417,0.362,0.461,0.994,0.099,1.411l-10.599,12.188
					C1929.785,1493.956,1929.508,1494.072,1929.229,1494.072z"/>
				<path style="fill:#363E44;" d="M1925.072,1534.61c-0.246,0-0.492-0.09-0.685-0.271c-0.402-0.378-0.422-1.011-0.044-1.413
					l13.578-14.442c0.379-0.404,1.013-0.421,1.413-0.044c0.402,0.378,0.422,1.011,0.044,1.413l-13.578,14.442
					C1925.604,1534.505,1925.338,1534.61,1925.072,1534.61z"/>
				<path style="fill:#363E44;" d="M1915.014,1586.411c-0.298,0-0.593-0.133-0.79-0.386c-0.339-0.436-0.261-1.063,0.175-1.403
					l20.383-15.879c0.436-0.338,1.063-0.261,1.403,0.175c0.339,0.436,0.261,1.063-0.175,1.403l-20.383,15.879
					C1915.444,1586.342,1915.229,1586.411,1915.014,1586.411z"/>
				<path style="fill:#363E44;" d="M1908.102,1623.471c-0.32,0-0.635-0.153-0.828-0.438c-0.311-0.456-0.191-1.078,0.266-1.389
					l14.029-9.529c0.456-0.312,1.078-0.191,1.389,0.266c0.311,0.456,0.191,1.078-0.266,1.389l-14.029,9.529
					C1908.49,1623.415,1908.295,1623.471,1908.102,1623.471z"/>
				<path style="fill:#363E44;" d="M1896.213,1660.431c-0.37,0-0.726-0.206-0.899-0.561c-0.242-0.496-0.037-1.095,0.459-1.338
					l15.069-7.38c0.497-0.243,1.095-0.037,1.338,0.459c0.242,0.496,0.037,1.095-0.459,1.338l-15.069,7.38
					C1896.51,1660.398,1896.36,1660.431,1896.213,1660.431z"/>
				
					<ellipse transform="matrix(0.2088 -0.978 0.978 0.2088 -41.3924 3111.127)" style="fill:#ff6900;" cx="1902.016" cy="1581.145" rx="138.494" ry="81.966"/>
				<path style="fill:#776E42;" d="M1930.931,1445.703c-0.144-0.031-0.29-0.033-0.432-0.059l-57.817,270.821
					c0.14,0.033,0.275,0.092,0.419,0.123c25.492,5.442,59.102-50.786,75.071-125.589S1956.423,1451.145,1930.931,1445.703z"/>
				<path style="fill:#363E44;" d="M1851.171,1684.522c-0.46,0-0.874-0.319-0.976-0.787c-6.222-28.497-4.513-69.558,4.688-112.653
					c9.997-46.826,27.245-88.074,46.139-110.339c0.357-0.42,0.987-0.472,1.41-0.115c0.421,0.357,0.473,0.988,0.115,1.41
					c-18.689,22.023-35.777,62.944-45.709,109.462c-9.143,42.827-10.852,83.58-4.689,111.81c0.118,0.539-0.224,1.072-0.764,1.189
					C1851.313,1684.515,1851.241,1684.522,1851.171,1684.522z"/>
				<path style="fill:#363E44;" d="M1905.808,1697.445c-0.21,0-0.422-0.065-0.603-0.202c-0.44-0.333-0.527-0.96-0.194-1.401
					c17.236-22.796,33.006-62.068,42.183-105.053c10.231-47.926,11.017-94.51,2.049-121.571c-0.174-0.524,0.11-1.09,0.635-1.264
					s1.09,0.11,1.264,0.635c9.073,27.38,8.31,74.364-1.992,122.618c-9.234,43.257-25.139,82.823-42.542,105.842
					C1906.409,1697.309,1906.11,1697.445,1905.808,1697.445z"/>
				<path style="fill:#363E44;" d="M1854.561,1519.563c-0.302,0-0.599-0.136-0.796-0.394l-15.809-20.716
					c-0.335-0.438-0.251-1.066,0.188-1.401c0.438-0.337,1.066-0.25,1.401,0.188l15.809,20.716c0.335,0.438,0.251,1.066-0.188,1.401
					C1854.985,1519.497,1854.771,1519.563,1854.561,1519.563z"/>
				<path style="fill:#363E44;" d="M1841.701,1570.767c-0.249,0-0.498-0.092-0.691-0.277l-27.196-26.036
					c-0.399-0.382-0.413-1.016-0.031-1.414c0.383-0.399,1.017-0.412,1.414-0.031l27.196,26.036c0.399,0.382,0.413,1.016,0.031,1.414
					C1842.228,1570.663,1841.964,1570.767,1841.701,1570.767z"/>
				<path style="fill:#363E44;" d="M1831.99,1607.229c-0.23,0-0.461-0.079-0.649-0.239l-19.556-16.699
					c-0.42-0.359-0.47-0.99-0.111-1.41c0.36-0.421,0.99-0.468,1.41-0.111l19.556,16.699c0.42,0.359,0.47,0.99,0.111,1.41
					C1832.553,1607.109,1832.272,1607.229,1831.99,1607.229z"/>
				<path style="fill:#363E44;" d="M1831.296,1646.578c-0.193,0-0.39-0.056-0.562-0.173l-22.714-15.446
					c-0.456-0.311-0.575-0.933-0.265-1.39c0.311-0.455,0.934-0.574,1.39-0.265l22.714,15.446c0.456,0.311,0.575,0.933,0.265,1.39
					C1831.931,1646.425,1831.616,1646.578,1831.296,1646.578z"/>
				<path style="fill:#363E44;" d="M1971.255,1503.051c-0.339,0-0.67-0.172-0.857-0.483c-0.285-0.473-0.133-1.088,0.34-1.373
					l17.692-10.673c0.474-0.286,1.088-0.134,1.373,0.34c0.285,0.473,0.133,1.088-0.34,1.373l-17.692,10.673
					C1971.608,1503.005,1971.431,1503.051,1971.255,1503.051z"/>
				<path style="fill:#363E44;" d="M1961.915,1596.431c-0.411,0-0.796-0.255-0.941-0.664c-0.187-0.52,0.085-1.092,0.605-1.277
					l35.458-12.66c0.518-0.188,1.093,0.085,1.277,0.605c0.187,0.52-0.085,1.092-0.605,1.277l-35.458,12.66
					C1962.141,1596.412,1962.026,1596.431,1961.915,1596.431z"/>
				<path style="fill:#363E44;" d="M1946.033,1661.512c-0.476,0-0.897-0.34-0.983-0.824c-0.097-0.544,0.265-1.063,0.809-1.16
					l27.041-4.824c0.55-0.1,1.063,0.267,1.16,0.809c0.097,0.544-0.265,1.063-0.809,1.16l-27.041,4.824
					C1946.15,1661.507,1946.091,1661.512,1946.033,1661.512z"/>
				<path style="fill:#363E44;" d="M1925.072,1534.61c-0.246,0-0.492-0.09-0.685-0.271c-0.402-0.378-0.422-1.011-0.044-1.413
					l13.578-14.442c0.379-0.404,1.013-0.421,1.413-0.044c0.402,0.378,0.422,1.011,0.044,1.413l-13.578,14.442
					C1925.604,1534.505,1925.338,1534.61,1925.072,1534.61z"/>
				<path style="fill:#363E44;" d="M1908.102,1623.471c-0.32,0-0.635-0.153-0.828-0.438c-0.311-0.456-0.191-1.078,0.266-1.389
					l14.029-9.529c0.456-0.312,1.078-0.191,1.389,0.266c0.311,0.456,0.191,1.078-0.266,1.389l-14.029,9.529
					C1908.49,1623.415,1908.295,1623.471,1908.102,1623.471z"/>
				<path style="fill:#363E44;" d="M1911.145,1490.212c-0.429,0-0.825-0.277-0.957-0.709l-4.697-15.453
					c-0.16-0.528,0.138-1.087,0.666-1.248c0.533-0.159,1.087,0.139,1.248,0.666l4.697,15.453c0.16,0.528-0.138,1.087-0.666,1.248
					C1911.339,1490.198,1911.24,1490.212,1911.145,1490.212z"/>
				<path style="fill:#363E44;" d="M1886.414,1580.306c-0.358,0-0.704-0.192-0.884-0.531l-12.121-22.818
					c-0.26-0.487-0.074-1.093,0.414-1.352c0.486-0.263,1.092-0.074,1.352,0.414l12.121,22.818c0.26,0.487,0.074,1.093-0.414,1.352
					C1886.732,1580.269,1886.572,1580.306,1886.414,1580.306z"/>
				<path style="fill:#363E44;" d="M1873.349,1655.549c-0.287,0-0.571-0.122-0.77-0.359l-10.741-12.89
					c-0.354-0.425-0.296-1.056,0.128-1.409c0.426-0.353,1.055-0.296,1.409,0.128l10.741,12.89c0.354,0.425,0.296,1.056-0.128,1.409
					C1873.801,1655.473,1873.574,1655.549,1873.349,1655.549z"/>
				<path style="fill:#363E44;" d="M1786.202,1556.189c-0.035,0-0.07-0.002-0.105-0.006c-0.55-0.058-0.948-0.55-0.89-1.099
					l1.335-12.671c0.057-0.549,0.561-0.953,1.099-0.89c0.55,0.058,0.948,0.55,0.89,1.099l-1.335,12.671
					C1787.142,1555.808,1786.708,1556.189,1786.202,1556.189z"/>
				<path style="fill:#363E44;" d="M1801.857,1584.268c-0.048,0-0.096-0.003-0.145-0.011c-0.546-0.079-0.925-0.586-0.846-1.133
					l2.241-15.477c0.078-0.547,0.581-0.941,1.133-0.846c0.546,0.079,0.925,0.586,0.846,1.133l-2.241,15.477
					C1802.774,1583.909,1802.347,1584.268,1801.857,1584.268z"/>
				<path style="fill:#363E44;" d="M1818.794,1622.295c-0.097,0-0.196-0.014-0.294-0.044c-0.527-0.162-0.824-0.722-0.662-1.25
					l5.987-19.483c0.163-0.526,0.721-0.823,1.25-0.662c0.527,0.162,0.824,0.722,0.662,1.25l-5.987,19.483
					C1819.617,1622.019,1819.222,1622.295,1818.794,1622.295z"/>
				<path style="fill:#363E44;" d="M1831.095,1649.372c-0.118,0-0.238-0.021-0.355-0.065c-0.517-0.196-0.775-0.773-0.579-1.29
					l4.755-12.506c0.196-0.516,0.772-0.776,1.29-0.579c0.517,0.196,0.775,0.773,0.579,1.29l-4.755,12.506
					C1831.878,1649.127,1831.498,1649.372,1831.095,1649.372z"/>
				<path style="fill:#363E44;" d="M1840.134,1678.637c-0.163,0-0.329-0.04-0.482-0.125c-0.483-0.267-0.659-0.875-0.392-1.358
					l6.399-11.588c0.266-0.483,0.874-0.66,1.358-0.392c0.483,0.267,0.659,0.875,0.392,1.358l-6.399,11.588
					C1840.828,1678.45,1840.486,1678.637,1840.134,1678.637z"/>
				
					<ellipse transform="matrix(0.9209 -0.3899 0.3899 0.9209 -490.2083 833.6066)" style="fill:#776E42;" cx="1808.464" cy="1624.419" rx="64.662" ry="109.257"/>
				<path style="fill:#ff6900;" d="M1765.868,1523.807c-0.107,0.045-0.203,0.11-0.306,0.157l85.172,201.177
					c0.105-0.042,0.219-0.065,0.326-0.11c18.936-8.017,15.215-59.562-8.31-115.128
					C1819.225,1554.336,1784.804,1515.79,1765.868,1523.807z"/>
				<path style="fill:#363E44;" d="M1821.929,1714.585c-0.243,0-0.485-0.088-0.678-0.265c-16.937-15.623-34.43-42.958-47.993-74.996
					c-14.74-34.814-22.263-69.313-20.123-92.283c0.052-0.55,0.54-0.955,1.089-0.903c0.55,0.052,0.954,0.539,0.903,1.089
					c-2.111,22.656,5.355,56.794,19.973,91.318c13.457,31.785,30.772,58.868,47.507,74.305c0.406,0.375,0.432,1.008,0.058,1.413
					C1822.467,1714.477,1822.198,1714.585,1821.929,1714.585z"/>
				<path style="fill:#363E44;" d="M1863.085,1698.215c-0.013,0-0.025,0-0.037-0.001c-0.553-0.02-0.983-0.483-0.963-1.035
					c0.824-22.5-6.748-54.98-20.256-86.886c-15.061-35.571-35.604-65.997-53.613-79.405c-0.443-0.329-0.535-0.956-0.205-1.398
					c0.33-0.441,0.956-0.536,1.398-0.205c18.279,13.607,39.07,44.35,54.262,80.229c13.616,32.161,21.247,64.96,20.412,87.737
					C1864.063,1697.791,1863.62,1698.215,1863.085,1698.215z"/>
				<path style="fill:#363E44;" d="M1743.18,1574.409c-0.115,0-0.231-0.02-0.346-0.062l-15.297-5.63
					c-0.518-0.19-0.783-0.766-0.593-1.284s0.768-0.782,1.284-0.593l15.297,5.63c0.518,0.19,0.783,0.766,0.593,1.284
					C1743.97,1574.159,1743.587,1574.409,1743.18,1574.409z"/>
				<path style="fill:#363E44;" d="M1764.34,1645.355c-0.051,0-0.102-0.004-0.153-0.012l-29.356-4.521
					c-0.546-0.084-0.92-0.595-0.836-1.141s0.598-0.918,1.141-0.836l29.356,4.521c0.546,0.084,0.92,0.595,0.836,1.141
					C1765.251,1645.002,1764.825,1645.355,1764.34,1645.355z"/>
				<path style="fill:#363E44;" d="M1770.249,1699.352c-0.546,0-0.992-0.438-1-0.986c-0.008-0.553,0.435-1.006,0.986-1.014
					l21.667-0.295c0.005,0,0.01,0,0.014,0c0.546,0,0.992,0.438,1,0.986c0.008,0.553-0.435,1.006-0.986,1.014l-21.667,0.295
					C1770.258,1699.352,1770.253,1699.352,1770.249,1699.352z"/>
				<path style="fill:#363E44;" d="M1836.041,1569.8c-0.149,0-0.302-0.033-0.444-0.104c-0.494-0.246-0.696-0.847-0.45-1.341
					l9.157-18.404c0.245-0.494,0.846-0.696,1.341-0.45c0.494,0.246,0.696,0.847,0.45,1.341l-9.157,18.404
					C1836.763,1569.597,1836.409,1569.8,1836.041,1569.8z"/>
				<path style="fill:#363E44;" d="M1866.597,1634.347c-0.219,0-0.438-0.071-0.623-0.219c-0.432-0.345-0.502-0.974-0.157-1.405
					l12.66-15.853c0.345-0.43,0.974-0.502,1.405-0.157s0.502,0.974,0.157,1.405l-12.66,15.853
					C1867.182,1634.218,1866.891,1634.347,1866.597,1634.347z"/>
				<path style="fill:#363E44;" d="M1786.202,1556.189c-0.035,0-0.07-0.002-0.105-0.006c-0.55-0.058-0.948-0.55-0.89-1.099
					l1.335-12.671c0.057-0.549,0.561-0.953,1.099-0.89c0.55,0.058,0.948,0.55,0.89,1.099l-1.335,12.671
					C1787.142,1555.808,1786.708,1556.189,1786.202,1556.189z"/>
				<path style="fill:#363E44;" d="M1818.794,1622.295c-0.097,0-0.196-0.014-0.294-0.044c-0.527-0.162-0.824-0.722-0.662-1.25
					l5.987-19.483c0.163-0.526,0.721-0.823,1.25-0.662c0.527,0.162,0.824,0.722,0.662,1.25l-5.987,19.483
					C1819.617,1622.019,1819.222,1622.295,1818.794,1622.295z"/>
				<path style="fill:#363E44;" d="M1840.134,1678.637c-0.163,0-0.329-0.04-0.482-0.125c-0.483-0.267-0.659-0.875-0.392-1.358
					l6.399-11.588c0.266-0.483,0.874-0.66,1.358-0.392c0.483,0.267,0.659,0.875,0.392,1.358l-6.399,11.588
					C1840.828,1678.45,1840.486,1678.637,1840.134,1678.637z"/>
				<path style="fill:#363E44;" d="M1782.031,1592.661c-0.203,0-0.408-0.062-0.585-0.189l-12.673-9.163
					c-0.447-0.324-0.548-0.949-0.225-1.396c0.323-0.448,0.949-0.549,1.396-0.225l12.673,9.163c0.447,0.324,0.548,0.949,0.225,1.396
					C1782.647,1592.518,1782.342,1592.661,1782.031,1592.661z"/>
				<path style="fill:#363E44;" d="M1808.43,1658.968c-0.133,0-0.267-0.026-0.396-0.081l-12.289-5.29
					c-0.507-0.219-0.741-0.807-0.523-1.314c0.219-0.509,0.81-0.738,1.314-0.523l12.289,5.29c0.507,0.219,0.741,0.807,0.523,1.314
					C1809.186,1658.741,1808.816,1658.968,1808.43,1658.968z"/>
				<polygon style="fill:#EFBC73;" points="1951.415,1830.809 1760.43,1830.809 1738.604,1679.735 1973.241,1679.735 				"/>
				<path style="fill:#EFBC73;" d="M1962.226,1414.67c0,23.093-14.922,41.813-33.329,41.813c-18.407,0-33.329-18.72-33.329-41.813
					l13.938,7.878l10.302-10.302l10.302,8.484l11.514-9.09l8.484,8.484L1962.226,1414.67z"/>
			</g>
		</g>
		<g>
			<ellipse style="fill:#FFFFFF;" cx="625.426" cy="566.878" rx="170.192" ry="170.443"/>
			<path style="fill:#D3BBA3;" d="M597.177,730.977c-94.396,0-171.192-76.909-171.192-171.443
				c0-94.533,76.797-171.442,171.192-171.442s171.192,76.909,171.192,171.442C768.369,654.068,691.572,730.977,597.177,730.977z
				 M597.177,390.092c-93.293,0-169.192,76.012-169.192,169.442c0,93.432,75.899,169.443,169.192,169.443
				c93.293,0,169.192-76.012,169.192-169.443C766.369,466.103,690.47,390.092,597.177,390.092z"/>
			<g>
				<g>
					<path style="fill:#E6D0BE;" d="M513.732,537.764v129.451h166.884V537.764H513.732z M625.146,613.163h-54.938v-51.39h54.938
						V613.163z"/>
					<polygon style="fill:#E6D0BE;" points="597.176,434.1 499.609,540.748 694.744,540.748 					"/>
				</g>
			</g>
		</g>
	</g>
</g>
</svg>
