<?xml version="1.0" encoding="utf-8"?>
<!-- Generator: Adobe Illustrator 27.5.0, SVG Export Plug-In . SVG Version: 6.00 Build 0)  -->
<svg version="1.1" xmlns="http://www.w3.org/2000/svg" xmlns:xlink="http://www.w3.org/1999/xlink" x="0px" y="0px"
	 viewBox="0 0 2500 2500" style="enable-background:new 0 0 2500 2500;" xml:space="preserve">
-
<g id="Illustration">
	<g id="Project_delivery_1_">
		<circle style="fill:transparent;" cx="1251.752" cy="1250" r="915"/>
		<g>
			<path style="fill:#FFFFFF;" d="M1118.528,1127.609c-4.626-1.086-9.492-0.391-14.191-0.092c-3.633,0.232-7.138,0.188-10.655-0.088
				c-2.458,6.496-6.21,12.334-11.33,16.771c-20.934,18.145-55.244,14.862-70.776-8.218c-14.093-20.943-11.796-50.491,9.25-65.776
				c0.273-0.198,0.546-0.369,0.818-0.543c1.619-1.781,3.523-2.878,5.528-3.453c1.531-1.186,3.261-2.197,5.178-3.007
				c3.382-1.428,7.062-2.273,10.76-2.518c11.296-4.751,29.475,2.71,38.727,10.504c4.706,3.964,8.322,9.128,10.866,14.918
				c1.38-0.04,2.854,0.146,4.413,0.603c1.848,0.541,4.717,0.339,7.739,0.128c0.421-0.03,3.25-0.282,3.174-0.218
				c0.72-0.108,1.442-0.214,2.162-0.312c3.381-0.465,7.031-0.701,10.432-0.08V907.895H672.131v448.492h448.492v-228.449
				C1119.94,1127.874,1119.246,1127.777,1118.528,1127.609z"/>
			<path style="fill:#E6D0BE;" d="M893.977,1356.387v-22.628c16.213-7.95,27.379-24.612,27.379-43.888
				c0-26.985-21.875-48.86-48.86-48.86c-26.984,0-48.859,21.875-48.859,48.86c0,19.276,11.166,35.938,27.378,43.888v22.628H672.131
				v448.491h448.491v-448.491H893.977z"/>
			<path style="fill:#FFFFFF;" d="M1120.622,1356.387v227.285h-26.411c-7.95-16.212-24.612-27.379-43.888-27.379
				c-26.985,0-48.86,21.875-48.86,48.86s21.875,48.86,48.86,48.86c19.276,0,35.938-11.167,43.888-27.379h26.411v178.244h448.491
				v-448.491H1120.622z"/>
		</g>
		<g>
			<g>
				<rect x="1280.696" y="941.188" style="fill:#E6D0BE;" width="790.909" height="1094.306"/>
				<path style="fill:#363E44;" d="M2104.337,2067.327h-790.908c-0.553,0-1-0.447-1-1V972.021c0-0.552,0.447-1,1-1h790.908
					c0.553,0,1,0.448,1,1v1094.306C2105.337,2066.88,2104.89,2067.327,2104.337,2067.327z M1314.429,2065.327h788.908V973.021
					h-788.908V2065.327z"/>
			</g>
			<g>
				<g>
					<g>
						<rect x="1572.515" y="1776.252" style="fill:#FFFFFF;" width="284.211" height="20.066"/>
						<rect x="1616.62" y="1826.383" style="fill:#FFFFFF;" width="349.406" height="20.066"/>
						<rect x="1572.515" y="1876.513" style="fill:#FFFFFF;" width="336.181" height="20.066"/>
					</g>
					<g>
						<rect x="1647.728" y="1555.507" style="fill:#FFFFFF;" width="351.589" height="20.066"/>
						<rect x="1563.005" y="1605.637" style="fill:#FFFFFF;" width="336.181" height="20.066"/>
						<rect x="1563.005" y="1655.768" style="fill:#FFFFFF;" width="394.758" height="20.066"/>
					</g>
					<g>
						<rect x="1648.975" y="1348.13" style="fill:#FFFFFF;" width="308.787" height="20.066"/>
						<rect x="1564.252" y="1398.26" style="fill:#FFFFFF;" width="334.934" height="20.066"/>
						<rect x="1564.252" y="1448.391" style="fill:#FFFFFF;" width="435.065" height="20.066"/>
					</g>
				</g>
				<g>
					<g>
						<rect x="1378.651" y="1755.338" style="fill:#FFFFFF;" width="162.236" height="162.155"/>
						<polygon style="fill:#D87355;" points="1451.067,1892.979 1400.273,1846.802 1415.965,1827.461 1448.171,1853.195 
							1498.705,1779.852 1519.265,1794.003 						"/>
					</g>
					<g>
						<rect x="1378.651" y="1534.593" style="fill:#FFFFFF;" width="162.236" height="162.155"/>
						<polygon style="fill:#D87355;" points="1451.067,1672.234 1400.273,1626.057 1415.965,1606.716 1448.171,1632.45 
							1498.705,1559.107 1519.265,1573.258 						"/>
					</g>
					<g>
						<rect x="1378.651" y="1327.216" style="fill:#FFFFFF;" width="162.236" height="162.155"/>
						<polygon style="fill:#D87355;" points="1451.067,1464.857 1400.273,1418.68 1415.965,1399.339 1448.171,1425.073 
							1498.705,1351.73 1519.265,1365.881 						"/>
					</g>
				</g>
				<g>
					<rect x="1378.651" y="1126.688" style="fill:#FFFFFF;" width="455.409" height="18.282"/>
					<rect x="1378.651" y="1168.958" style="fill:#FFFFFF;" width="579.111" height="18.282"/>
					<rect x="1378.651" y="1211.228" style="fill:#FFFFFF;" width="579.111" height="18.282"/>
				</g>
				<path style="fill:#9E6C5A;" d="M2004.891,1270.443h-627.725c-0.553,0-1-0.447-1-1s0.447-1,1-1h627.725c0.553,0,1,0.447,1,1
					S2005.443,1270.443,2004.891,1270.443z"/>
			</g>
			<g>
				<path style="fill:#D3BBA3;" d="M1442.341,925.058v114.965h562.594V925.058H1442.341z"/>
				<path style="fill:#9E6C5A;" d="M1810.876,927.952h-174.477c-0.553,0-1-0.447-1-1c0-48.654,39.584-88.238,88.238-88.238
					s88.238,39.584,88.238,88.238C1811.876,927.505,1811.429,927.952,1810.876,927.952z M1788.911,925.952h20.959
					c-0.538-47.093-39.015-85.238-86.232-85.238s-85.694,38.145-86.232,85.238h20.959c0.536-35.537,29.611-64.281,65.273-64.281
					S1788.375,890.415,1788.911,925.952z M1660.364,925.952h126.547c-0.537-34.433-28.715-62.281-63.273-62.281
					S1660.901,891.519,1660.364,925.952z"/>
			</g>
		</g>
		<g>
			<g>
				<path style="fill:#84524D;" d="M1333.869,663.406c0,0-155.693,28.846-179.708,159.367l182.38,14.95L1333.869,663.406z"/>
				<g>
					<path style="fill:#84524D;" d="M1605.908,855.011c42.81,14.917,83.033,22.568,159.573,114.862
						c48.102,58.002,91.922,71.698,111.614,49.027c77.088-88.748-55.346-205.981-133.289-258.048
						C1706.943,736.226,1636.998,826.042,1605.908,855.011z"/>
				</g>
				<path style="fill:#FFFFFF;" d="M1653.468,880.843l-32.9,155.87l-336.611-94.576l86.759-141.091l-69.831-4.505
					c0.751-48.807,1.29-85.833,2.042-134.639c77.03-14.837,149.843-7.372,225.868,3.325
					c73.399,10.327,165.784,56.73,239.116,101.174l-68.638,147.761L1653.468,880.843z"/>
				<path style="fill:#D87355;" d="M1680.196,1240.698l119.298-348.588l-348.588-119.298l-47.412,138.539l-20.528-7.025
					c-1.866-14.717-11.847-27.827-26.829-32.954c-20.974-7.178-43.795,4.006-50.973,24.98c-7.177,20.972,4.006,43.794,24.98,50.971
					c14.982,5.127,30.902,0.882,41.394-9.604l20.528,7.025l-60.457,176.656l176.159,60.287l-6.018,17.586
					c-14.716,1.866-27.827,11.847-32.954,26.829c-7.178,20.974,4.006,43.795,24.98,50.973c20.973,7.178,43.794-4.006,50.972-24.98
					c5.127-14.982,0.881-30.903-9.605-41.394l6.018-17.586L1680.196,1240.698z"/>
				<g>
					<path style="fill:#84524D;" d="M1795.074,905.982c0,0-78.822,89.52-117.257,139.921
						c-40.364,52.931-92.252,136.958-80.404,144.065c6.749,4.048,16.194-5.949,39.665-34.346c0.249,2.623,2.426,10.06,9.3,12.789
						c10.174,4.038,16.236-2.969,17.026-3.381c0.013,0.896,0.414,10.546,6.767,14.401c7.156,4.343,14.293,3.004,19.643-0.808
						c0.1,2.222,1.301,10.384,7.516,13.91c6.393,3.626,15.7,2.772,20.259-3.395c8.365-11.313,32.581-45.408,46.388-60.565
						c18.051-19.815,72.971-67.5,115.978-112.962c25.168-26.605,14.664-70.208-19.742-82.759
						C1825.066,920.03,1795.074,905.982,1795.074,905.982z"/>
					<g>
						<path style="fill:#363E44;" d="M1720.618,1173.25c-0.165,0-0.333-0.041-0.487-0.127l-10.377-5.81
							c-0.482-0.27-0.654-0.879-0.385-1.36s0.878-0.654,1.361-0.385l10.377,5.809c0.482,0.271,0.654,0.88,0.385,1.361
							C1721.309,1173.065,1720.969,1173.25,1720.618,1173.25z"/>
						<path style="fill:#363E44;" d="M1695.847,1158.78c-0.155,0-0.313-0.036-0.46-0.112l-11.935-6.193
							c-0.49-0.255-0.681-0.858-0.427-1.349s0.856-0.682,1.349-0.427l11.935,6.193c0.49,0.254,0.681,0.858,0.427,1.349
							C1696.558,1158.584,1696.208,1158.78,1695.847,1158.78z"/>
						<path style="fill:#363E44;" d="M1668.786,1145.367c-0.166,0-0.333-0.041-0.488-0.128c-1.921-1.077-3.662-2.037-5.403-2.996
							c-1.767-0.974-3.532-1.946-5.481-3.04c-0.481-0.271-0.653-0.88-0.383-1.361c0.271-0.483,0.882-0.653,1.361-0.383
							c1.945,1.092,3.706,2.062,5.469,3.033c1.745,0.961,3.49,1.923,5.416,3.003c0.481,0.271,0.653,0.88,0.383,1.361
							C1669.476,1145.184,1669.136,1145.367,1668.786,1145.367z"/>
						<path style="fill:#363E44;" d="M1647.61,1132.202c-0.189,0-0.381-0.054-0.551-0.166l-9.849-6.513
							c-0.461-0.305-0.587-0.925-0.282-1.386c0.305-0.462,0.923-0.588,1.386-0.282l9.849,6.513c0.461,0.305,0.587,0.925,0.282,1.386
							C1648.253,1132.045,1647.935,1132.202,1647.61,1132.202z"/>
					</g>
				</g>
				<path style="fill:#84524D;" d="M1154.871,854.261c25.752,68.548,234.424,24.154,288.932,12.963
					c7.808,0.916,19.629,1.09,31.298-4.661c13.304-6.556,13.669-14.533,26.63-23.637c21.876-15.367,42.828-7.208,44.07-16.598
					c0.853-6.445-11.15-11.726-23.35-13.697c-12.527-2.023-21.479,1.942-22.177-0.016c-0.767-2.148,8.848-4.999,20.479-9.642
					c5.404-2.157,23.889,1.057,26.353-7.575c1.964-6.882-16.418-15.033-33.793-12.633c-12.293,1.698-20.286,10.709-21.648,8.899
					c-1.022-1.358,3.873-6.61,9.441-9.879c9.187-5.396,28.135-2.31,30.247-10.3c2.069-7.828-14.109-14.665-30.23-13.469
					c-13.592,1.008-22.026,11.482-23.732,9.242c-1.201-1.576,1.6-7.049,10.607-16.256c7.517-7.684,27.091-17.778,20.225-26.846
					c-5.775-7.627-26.58,2.49-44.037,15.359c-11.566,8.527-22.272,18.51-28.684,24.018c-0.439-4.468-0.82-11.37,0.014-19.714
					c1.487-14.881,3.962-20.026-1.54-23.961c-5.669-4.055-13.336,5.105-19.054,17.408c-6.82,14.675-5.854,27.87-6.779,35.365
					c-26.783,1.031-140.295,2.52-182.113,3.63c-17.8,0.473-34.967,6.802-48.786,18.032
					C1157.479,806.355,1145.989,830.62,1154.871,854.261z"/>
			</g>
			<g>
				<g>
					
						<ellipse transform="matrix(0.4893 -0.8721 0.8721 0.4893 312.4716 1720.7321)" style="fill:#363E44;" cx="1625.526" cy="593.554" rx="24.862" ry="24.862"/>
					
						<ellipse transform="matrix(0.7752 -0.6317 0.6317 0.7752 17.6348 1157.6636)" style="fill:#363E44;" cx="1635.335" cy="554.055" rx="30.438" ry="30.438"/>
					<path style="fill:#363E44;" d="M1593.828,515.018c2.062,13.575,14.738,22.908,28.313,20.846
						c13.575-2.062,22.908-14.738,20.846-28.313c-2.062-13.575-14.738-22.908-28.313-20.846
						C1601.099,488.766,1591.766,501.443,1593.828,515.018z"/>
					<path style="fill:#363E44;" d="M1559.682,503.551c2.062,13.575,14.738,22.908,28.313,20.846
						c13.575-2.062,22.908-14.738,20.846-28.313c-2.062-13.575-14.738-22.908-28.313-20.846
						C1566.953,477.299,1557.62,489.976,1559.682,503.551z"/>
					<path style="fill:#363E44;" d="M1524.565,511.427c2.062,13.575,14.739,22.908,28.314,20.846
						c13.575-2.062,22.908-14.739,20.846-28.314c-2.062-13.575-14.738-22.908-28.313-20.846
						C1531.836,485.176,1522.503,497.852,1524.565,511.427z"/>
					<path style="fill:#363E44;" d="M1511.74,532.631c1.161,7.645,8.3,12.901,15.945,11.74c7.645-1.161,12.901-8.3,11.74-15.945
						c-1.161-7.645-8.3-12.901-15.945-11.74C1515.835,517.846,1510.579,524.985,1511.74,532.631z"/>
				</g>
				<path style="fill:#84524D;" d="M1544.999,727.487c17.057,2.781,33.139-8.791,35.92-25.848l9.007-55.235
					c2.781-17.057-8.791-33.139-25.848-35.92c-17.057-2.781-33.139,8.791-35.921,25.848l-9.007,55.235
					C1516.369,708.624,1527.942,724.706,1544.999,727.487z"/>
				<path style="fill:#84524D;" d="M1571.973,531.101c-2.763-0.73-29.326-7.324-48.546,8.441
					c-14.301,11.73-18.617,29.077-21.456,59.266c-3.345,35.552-0.377,57.271,8.613,65.862c14.204,13.574,66.126-3.137,89.154-30.9
					c16.621-20.04,19.793-48.824,9.62-72.989C1599.212,536.683,1573.737,531.567,1571.973,531.101z"/>
				<g>
					<path style="fill:#FFFFFF;" d="M1500.565,567.662c-0.008,0.238-0.184,0.404-0.191,0.641c0,0.01,0.003,0.018,0.003,0.028
						c-1.135,3.14-2.341,6.45-4.031,9.328c-0.748,1.275-1.778,1.902-2.619,3.024c-0.617,0.823-1.204,1.612-1.845,2.398
						c-6.518-8.946-7.883-19.326-7.883-19.326S1492.143,563.979,1500.565,567.662z"/>
					<g>
						<defs>
							<path id="SVGID_1_" d="M1483.998,563.755c0,0,1.975,15.073,12.568,24.546c10.593,9.473,25.792,9.758,25.792,9.758
								s-1.975-15.073-12.568-24.546C1499.197,564.04,1483.998,563.755,1483.998,563.755z"/>
						</defs>
						<clipPath id="SVGID_00000062885748165590681860000017168899872380244878_">
							<use xlink:href="#SVGID_1_"  style="overflow:visible;"/>
						</clipPath>
						
							<ellipse transform="matrix(0.118 -0.993 0.993 0.118 752.9451 2014.467)" style="clip-path:url(#SVGID_00000062885748165590681860000017168899872380244878_);fill:#363E44;" cx="1510.494" cy="583.372" rx="18.584" ry="18.584"/>
					</g>
				</g>
				<g>
					<path style="fill:#FFFFFF;" d="M1558.644,599.761c-0.566,3.905-1.717,6.751-4.338,9.475
						c-9.176-2.066-15.859-6.892-15.859-6.892s8.74-8.734,20.662-11.433C1559.689,593.759,1559.046,596.989,1558.644,599.761z"/>
					<g>
						<defs>
							<path id="SVGID_00000159445694039783402350000010344602072762580130_" d="M1589.723,597.984c0,0-12.319-8.908-26.478-7.704
								c-14.159,1.204-24.798,12.063-24.798,12.063s12.319,8.908,26.478,7.704C1579.085,608.843,1589.723,597.984,1589.723,597.984z
								"/>
						</defs>
						<clipPath id="SVGID_00000179618564618698496560000003285176466460187066_">
							<use xlink:href="#SVGID_00000159445694039783402350000010344602072762580130_"  style="overflow:visible;"/>
						</clipPath>
						<path style="clip-path:url(#SVGID_00000179618564618698496560000003285176466460187066_);fill:#363E44;" d="M1587.068,592.711
							c-6.234-8.153-17.898-9.709-26.051-3.474c-8.153,6.234-9.709,17.898-3.474,26.051c6.234,8.153,17.898,9.709,26.051,3.474
							C1591.747,612.528,1593.302,600.864,1587.068,592.711z"/>
					</g>
				</g>
				<path style="fill:#363E44;" d="M1627.191,521.879c8.764,0.719,13.601,76.332,13.601,76.332s-18.958,31.62-51.396,51.908
					c0.91-11.574,10.481-43.763,6.329-52.432c-5.168-10.789-5.519-20.616-0.828-30.864c-11.179-21.185-75.728-23.034-76.62-24.358
					c-2.634-3.91,30.785-33.375,47.491-47.02c9.426-7.699-10.381,6.564,5.275,8.518
					C1598.896,507.439,1625.721,513.469,1627.191,521.879z"/>
				<g>
					<path style="fill:#84524D;" d="M1589.016,607.397c-6.501,9.435-5.305,21.538,2.669,27.033c7.975,5.495,19.71,2.3,26.211-7.135
						c6.501-9.435,5.306-21.538-2.67-27.033C1607.252,594.767,1595.517,597.962,1589.016,607.397z"/>
					<path style="fill:#363E44;" d="M1609.44,625.049c-0.252,0-0.504-0.095-0.698-0.284c-0.396-0.386-0.403-1.019-0.018-1.414
						c0.455-0.467,0.875-0.977,1.247-1.517c2.984-4.333,2.491-9.872-1.101-12.347c-0.861-0.593-1.837-0.97-2.899-1.119
						c-0.547-0.077-0.928-0.583-0.851-1.13c0.077-0.546,0.572-0.933,1.13-0.851c1.372,0.193,2.636,0.682,3.755,1.453
						c4.499,3.101,5.223,9.887,1.612,15.128c-0.436,0.633-0.928,1.231-1.462,1.778C1609.96,624.948,1609.7,625.049,1609.44,625.049z
						"/>
				</g>
				<path style="fill:#363E44;" d="M1516.938,617.2c-0.381,0-0.744-0.218-0.912-0.587c-0.946-2.086-1.126-3.977-0.533-5.619
					c0.648-1.806,2.024-2.7,3.48-3.647c0.995-0.647,2.123-1.382,3.241-2.531c1.42-1.462,2.521-3.288,3.274-5.427
					c0.183-0.52,0.755-0.796,1.275-0.611c0.521,0.184,0.795,0.755,0.611,1.275c-0.85,2.414-2.104,4.485-3.727,6.156
					c-1.275,1.31-2.503,2.109-3.586,2.814c-1.316,0.856-2.267,1.475-2.688,2.648c-0.41,1.137-0.251,2.521,0.474,4.116
					c0.228,0.503,0.005,1.096-0.498,1.324C1517.217,617.172,1517.076,617.2,1516.938,617.2z"/>
				<path style="fill:#363E44;" d="M1525.924,636.1c-3.318,0-5.807-1.402-6.824-2.089c-0.457-0.309-0.578-0.931-0.27-1.389
					c0.31-0.457,0.93-0.578,1.389-0.27c1.005,0.679,3.722,2.191,7.279,1.62c3.964-0.641,6.156-3.446,6.734-4.291
					c0.311-0.455,0.933-0.573,1.39-0.261c0.456,0.312,0.572,0.934,0.261,1.39c-0.69,1.011-3.315,4.368-8.066,5.137
					C1527.161,636.053,1526.528,636.1,1525.924,636.1z"/>
				<path style="fill:#363E44;" d="M1528.667,670.435c-0.503,0-0.937-0.378-0.993-0.89c-0.061-0.549,0.335-1.043,0.884-1.104
					c38.064-4.224,49.963-18.517,50.078-18.661c0.346-0.429,0.978-0.498,1.406-0.152c0.43,0.347,0.498,0.975,0.152,1.406
					c-0.494,0.613-12.538,15.081-51.416,19.396C1528.741,670.433,1528.703,670.435,1528.667,670.435z"/>
			</g>
		</g>
		<g>
			<g>
				<path style="fill:#E2A18D;" d="M793.051,1482.683c-15.688-32.987-27.74-50.832-48.769-58.195
					c-28.261-9.896-55.594,8.542-58.419,10.51c-1.803,1.256-28.515,17.573-30.036,49.032c-1.096,22.658,6.587,45.161,21.04,61.901
					c9.973,11.551,11.558,28.131,3.757,41.246l-49.071,82.494c2.233,21.947,21.836,37.929,43.783,35.695l4.971-0.506
					c21.947-2.233,65.76-19.113,63.527-41.06l38.583-87.795c13.804-2.582,24.408-7.738,28.105-15.239
					C817.143,1547.331,811.526,1521.529,793.051,1482.683z"/>
				<path style="fill:#363E44;" d="M782.934,1575.86c-0.06,0-0.119-0.005-0.18-0.017l-16.956-3.085
					c-0.544-0.099-0.904-0.619-0.805-1.162c0.099-0.544,0.619-0.909,1.162-0.805l16.956,3.085c0.544,0.099,0.904,0.619,0.805,1.162
					C783.829,1575.522,783.407,1575.86,782.934,1575.86z"/>
				<path style="fill:#363E44;" d="M755.054,1528.189c-0.237,0-0.475-0.084-0.666-0.254c-2.116-1.888-3.99-3.62-5.974-5.455
					c-1.608-1.487-3.265-3.02-5.136-4.712c-0.409-0.37-0.441-1.002-0.07-1.412c0.37-0.409,1.003-0.441,1.412-0.07
					c1.876,1.696,3.539,3.234,5.152,4.727c1.977,1.828,3.844,3.555,5.947,5.431c0.412,0.367,0.448,1,0.08,1.412
					C755.602,1528.076,755.328,1528.189,755.054,1528.189z"/>
				<path style="fill:#363E44;" d="M614.641,1503.373c-5.774-17.377,3.632-36.145,21.01-41.919c0.026-0.009,0.054-0.016,0.082-0.025
					c-2.726-2.915-4.9-6.43-6.241-10.466c-4.973-14.965,3.127-31.128,18.093-36.101c3.127-1.039,6.302-1.476,9.419-1.43
					c-3.923-14.508,4.089-29.725,18.531-34.524c8.16-2.712,16.665-1.513,23.528,2.543c2.705-10.602,10.575-19.653,21.729-23.359
					c16.871-5.606,35.051,3.061,41.439,19.438c0.781-0.34,1.574-0.66,2.397-0.933c14.965-4.973,31.128,3.127,36.101,18.093
					c4.973,14.965-3.127,31.128-18.092,36.101c-0.432,0.143-0.868,0.239-1.301,0.36c6.709,27.075-20.291,39.318-21.821,40.271
					c7.108,11.086,14.215,22.172,21.322,33.258c-4.197,2.819-9.117,6.496-13.314,9.314c-6.814-11.863-13.434-15.174-20.945-14.125
					c-11.828,1.652-18.963,15.271-16.445,26.563c2.299,10.307,9.282,19.613,20.637,22.117c-11.243,3.93-23.124,7.715-35.628,11.249
					c-6.523,1.843-12.932,3.537-19.213,5.095c-4.527-1.235-33.796-9.759-48.51-38.846
					C633.033,1526.621,619.408,1517.719,614.641,1503.373z"/>
			</g>
			<g>
				<path style="fill:#EFBC73;" d="M495.086,1507.19c0,0,63.909,37.406,115.768,61.809
					c51.199,24.093,274.129,152.172,274.129,152.172l-61.888,209.674l-91.874,221.03
					c-179.582-58.272-329.504-190.078-397.974-354.409l70.131-125.81L495.086,1507.19z"/>
				<g>
					<g>
						
							<rect x="873.814" y="1714.692" transform="matrix(-0.2451 0.9695 -0.9695 -0.2451 3161.5342 1260.6719)" style="fill:#363E44;" width="432.317" height="292.935"/>
					</g>
					<path style="fill:#40484C;" d="M1081.864,1893.228c-17.711-4.478-28.438-22.466-23.96-40.177
						c4.478-17.711,22.466-28.438,40.177-23.96c17.711,4.478,28.438,22.466,23.96,40.177
						C1117.563,1886.979,1099.575,1897.706,1081.864,1893.228z"/>
				</g>
				<g>
					<path style="fill:#E2A18D;" d="M1276.302,1927.935c-2.044-5.25-7.305-8.946-13.442-9.722c0.557-0.483,8.032-7.182,6.656-17.139
						c-1.047-7.577-6.785-13.904-14.509-15.938c3.493-6.576,3.841-13.934,0.494-19.185c-10.063-15.79-63.915,6.203-89.453,15.813
						c-11.272,4.241-107.127,41.875-173.681,68.066l-6.867-31.801c-66.286,22.959-143.297,43.631-143.297,43.631
						c13.714,80.957,44.788,119.871,44.788,119.871c29.86,34.52,69.132,32.741,88.837,27.016
						c50.803-14.759,95.835-32.123,192.307-80.143c41.076-20.447,74.252-39.564,96.935-48.12
						c7.089-4.617,10.832-12.502,9.504-19.931c-1.198-6.705-6.09-10.594-7.5-11.638
						C1275.476,1944.496,1279.123,1935.179,1276.302,1927.935z"/>
					<path style="fill:#363E44;" d="M950.604,1966.584c-0.406,0-0.788-0.249-0.938-0.652c-0.192-0.519,0.072-1.094,0.59-1.285
						c12.142-4.495,38.904-14.666,64.785-24.501c25.792-9.802,52.462-19.937,64.575-24.422c0.523-0.194,1.093,0.072,1.285,0.59
						c0.192,0.519-0.072,1.094-0.59,1.285c-12.106,4.483-38.772,14.616-64.56,24.416c-25.886,9.837-52.652,20.009-64.801,24.507
						C950.836,1966.564,950.719,1966.584,950.604,1966.584z"/>
					<path style="fill:#363E44;" d="M1222.501,1888.567c-0.43,0-0.826-0.278-0.957-0.71l-3.483-11.491
						c-0.16-0.528,0.139-1.087,0.667-1.247c0.533-0.162,1.087,0.139,1.247,0.667l3.483,11.491c0.16,0.528-0.139,1.087-0.667,1.247
						C1222.694,1888.554,1222.597,1888.567,1222.501,1888.567z"/>
					<path style="fill:#363E44;" d="M1231.381,1917.712c-0.43,0-0.826-0.278-0.957-0.71l-3.483-11.491
						c-0.16-0.528,0.139-1.087,0.667-1.247c0.531-0.163,1.088,0.139,1.247,0.667l3.483,11.491c0.16,0.528-0.139,1.087-0.667,1.247
						C1231.574,1917.698,1231.477,1917.712,1231.381,1917.712z"/>
					<path style="fill:#363E44;" d="M1240.75,1947.289c-0.43,0-0.826-0.278-0.957-0.71l-3.483-11.49
						c-0.16-0.528,0.139-1.087,0.667-1.247c0.533-0.159,1.087,0.14,1.247,0.667l3.483,11.49c0.16,0.528-0.139,1.087-0.667,1.247
						C1240.943,1947.275,1240.846,1947.289,1240.75,1947.289z"/>
					<path style="fill:#363E44;" d="M1248.694,1974.287c-0.43,0-0.826-0.278-0.957-0.71l-3.483-11.49
						c-0.16-0.528,0.139-1.087,0.667-1.247c0.528-0.158,1.087,0.139,1.247,0.667l3.483,11.49c0.16,0.528-0.139,1.087-0.667,1.247
						C1248.888,1974.273,1248.79,1974.287,1248.694,1974.287z"/>
				</g>
				<g>
					<path style="fill:#EFBC73;" d="M816.152,1994.542l199.132-65.111c0,0-9.365-148.046-165.412-229.19
						c-99.214-51.592-78.35,235.776-78.35,235.776L816.152,1994.542z"/>
					<path style="fill:#363E44;" d="M799.253,1962.797c-0.348,0-0.686-0.182-0.87-0.505l-28.962-50.83
						c-0.273-0.479-0.105-1.091,0.374-1.364c0.478-0.274,1.089-0.105,1.364,0.374l28.962,50.83c0.273,0.479,0.106,1.091-0.374,1.364
						C799.591,1962.755,799.421,1962.797,799.253,1962.797z"/>
				</g>
				<g>
					<g>
						<g>
							<g>
								<path style="fill:#E2A18D;" d="M523.848,1390.878c0,0,90.785-73.595,152.446-91.18
									c123.278-35.156,147.921-82.391,136.845-92.341c-12.02-10.799-29.789,7.939-43.145,15.882
									c0.711-2.585,1.285-10.551-4.472-16.095c-8.52-8.205-17.027-4.203-17.953-4.154c0.314-0.852,3.437-10.141-1.396-16.525
									c-5.444-7.191-12.941-9.006-19.585-7.714c0.712-2.142,2.507-10.371-2.312-16.384c-4.956-6.185-13.612-7.419-21.133-5.536
									c-35.886,8.982-63.088,13.661-82.171,22.02c-37.553,16.45-165.612,71.671-212.48,110.169
									c-31.194,32.369,1.77,89.647,51.169,108.514C490.747,1409.407,523.848,1390.878,523.848,1390.878z"/>
								<g>
									<path style="fill:#363E44;" d="M702.09,1182.443c-0.292,0-0.58-0.127-0.778-0.37l-8.074-9.967
										c-0.348-0.43-0.281-1.06,0.148-1.407c0.432-0.347,1.059-0.279,1.407,0.147l8.074,9.967c0.348,0.43,0.281,1.06-0.147,1.407
										C702.533,1182.37,702.31,1182.443,702.09,1182.443z"/>
									<path style="fill:#363E44;" d="M722.531,1207.838c-0.281,0-0.561-0.118-0.758-0.348l-9.463-11.001
										c-0.36-0.419-0.313-1.05,0.106-1.41c0.419-0.36,1.052-0.313,1.41,0.105l9.463,11.001c0.36,0.419,0.313,1.051-0.106,1.41
										C722.994,1207.759,722.763,1207.838,722.531,1207.838z"/>
									<path style="fill:#363E44;" d="M743.244,1231.586c-0.292,0-0.581-0.127-0.778-0.371c-1.503-1.859-2.871-3.527-4.24-5.194
										c-1.371-1.672-2.742-3.344-4.248-5.206c-0.348-0.43-0.281-1.06,0.148-1.406c0.432-0.35,1.061-0.281,1.406,0.148
										c1.503,1.859,2.871,3.527,4.24,5.194c1.371,1.672,2.742,3.344,4.248,5.206c0.348,0.43,0.281,1.06-0.148,1.406
										C743.687,1231.514,743.465,1231.586,743.244,1231.586z"/>
									<path style="fill:#363E44;" d="M758.051,1253.164c-0.315,0-0.625-0.148-0.819-0.426l-7.299-10.402
										c-0.317-0.452-0.208-1.075,0.244-1.393c0.453-0.319,1.075-0.207,1.392,0.244l7.299,10.402
										c0.317,0.452,0.208,1.076-0.244,1.393C758.449,1253.105,758.249,1253.164,758.051,1253.164z"/>
								</g>
							</g>
						</g>
						<path style="fill:#E2A18D;" d="M535.595,1360.345v175.538l-162.035,82.1c-3.058-104.136-1.91-219.18,23.73-308.01
							L535.595,1360.345z"/>
					</g>
					<path style="fill:#EFBC73;" d="M377.162,1721.451c-18.051-63.082-18.051-185.567-18.051-185.567l184.924-65.588l19.038,74.638
						L377.162,1721.451z"/>
					<path style="fill:#363E44;" d="M377.161,1722.451c-0.207,0-0.415-0.063-0.594-0.196c-0.444-0.328-0.538-0.955-0.209-1.398
						l57.161-77.229c0.329-0.444,0.955-0.537,1.398-0.209c0.444,0.328,0.538,0.955,0.209,1.398l-57.161,77.229
						C377.77,1722.312,377.468,1722.451,377.161,1722.451z"/>
				</g>
			</g>
		</g>
		<g>
			<path style="fill:#F7F1EB;" d="M1010.133,383.269H781.675c0,0-26.697,70.867-21.762,94.597
				c9.164,44.072,108.773,108.299,108.773,153.061c0,44.761-99.609,108.989-108.773,153.061
				c-4.934,23.73,21.762,94.597,21.762,94.597h228.457c0,0,26.697-70.867,21.762-94.597
				c-9.164-44.072-108.773-108.299-108.773-153.061c0-44.761,99.609-108.989,108.773-153.061
				C1036.829,454.135,1010.133,383.269,1010.133,383.269z"/>
			<path style="fill:#EFBC73;" d="M903.916,633.31c0-26.47,46.926-61.296,68.195-90.893h-147.96
				c22.294,29.646,73.028,64.61,73.028,90.893c0,33.197,4.996,162.706-35.376,194.788c-13.906,11.05-65.708,37.989-65.708,37.989
				h207.269c0,0-14.587-11.022-53.345-28.582C899.729,814.72,903.916,666.507,903.916,633.31z"/>
			<path style="fill:#FFFFFF;" d="M1026.5,879.584H798.043c-0.416,0-0.789-0.258-0.936-0.647
				c-1.095-2.904-26.743-71.412-21.807-95.152c4.345-20.894,27.988-45.473,53.02-71.495c27.4-28.483,55.732-57.938,55.732-81.362
				c0-23.426-28.333-52.88-55.732-81.364c-25.031-26.021-48.675-50.601-53.02-71.494c-4.936-23.74,20.712-92.248,21.807-95.152
				c0.146-0.39,0.52-0.647,0.936-0.647H1026.5c0.416,0,0.789,0.258,0.936,0.647c1.095,2.904,26.742,71.412,21.807,95.152
				c-4.345,20.894-27.988,45.473-53.019,71.494c-27.4,28.484-55.733,57.938-55.733,81.364c0,23.425,28.333,52.879,55.732,81.362
				c25.032,26.022,48.676,50.602,53.021,71.495c4.936,23.74-20.712,92.248-21.807,95.152
				C1027.289,879.326,1026.916,879.584,1026.5,879.584z M798.738,877.584h227.066c2.652-7.171,26.049-71.413,21.479-93.394
				c-4.227-20.328-28.769-45.842-52.503-70.515c-27.675-28.769-56.291-58.519-56.291-82.749c0-24.232,28.617-53.981,56.292-82.75
				c23.733-24.673,48.275-50.187,52.502-70.515c4.57-21.982-18.826-86.224-21.479-93.394H798.738
				c-2.652,7.17-26.05,71.413-21.478,93.394c4.227,20.328,28.768,45.841,52.502,70.515c27.675,28.769,56.291,58.518,56.291,82.75
				c0,24.23-28.616,53.979-56.291,82.749c-23.733,24.673-48.275,50.187-52.502,70.515
				C772.688,806.173,796.085,870.414,798.738,877.584z"/>
			<path style="fill:#FFFFFF;" d="M999.95,841.185c-0.093,0-0.188-0.013-0.281-0.04c-0.53-0.155-0.834-0.711-0.679-1.241
				c7.88-26.904,10.996-46.17,9.012-55.713c-3.237-15.57-18.506-33.942-31.446-48.208c-0.371-0.409-0.341-1.041,0.068-1.412
				c0.408-0.371,1.04-0.342,1.412,0.068c13.111,14.454,28.588,33.103,31.925,49.146c2.079,10.004-0.966,29.074-9.051,56.682
				C1000.782,840.901,1000.383,841.185,999.95,841.185z"/>
			<path style="fill:#FFFFFF;" d="M990.069,512.677c-0.219,0-0.439-0.071-0.624-0.22c-0.432-0.345-0.501-0.975-0.155-1.405
				c10.696-13.353,16.817-24.274,18.712-33.39c2.772-13.337-4.72-42.126-11.493-63.93c-0.164-0.527,0.131-1.088,0.658-1.252
				c0.53-0.161,1.089,0.131,1.252,0.658c6.844,22.029,14.401,51.176,11.542,64.93c-1.988,9.563-8.06,20.44-19.11,34.233
				C990.653,512.549,990.362,512.677,990.069,512.677z"/>
			<rect x="759.74" y="873.597" style="fill:#ff6900;" width="272.577" height="32.964"/>
			<rect x="759.74" y="356.392" style="fill:#ff6900;" width="272.577" height="32.964"/>
		</g>
	</g>
</g>
</svg>
