<?xml version="1.0" encoding="utf-8"?>
<!-- Generator: Adobe Illustrator 27.5.0, SVG Export Plug-In . SVG Version: 6.00 Build 0)  -->
<svg version="1.1" xmlns="http://www.w3.org/2000/svg" xmlns:xlink="http://www.w3.org/1999/xlink" x="0px" y="0px"
	 viewBox="0 0 2500 2500" style="enable-background:new 0 0 2500 2500;" xml:space="preserve">
-
<g id="Illustration">
	<g id="Online_school_platform_1_">
		<circle style="fill:transparent;" cx="1250" cy="1250" r="915"/>
		<g>
			<path style="fill:#E6D0BE;" d="M852.608,1821.93c-0.289,0-0.574-0.124-0.773-0.363
				c-69.656-84.394-129.917-179.824-179.11-283.642c-39.352-83.049-71.749-171.621-96.291-263.255
				c-41.79-156.029-46.337-268.342-46.378-269.458c-0.021-0.552,0.41-1.016,0.962-1.036c0.539-0.029,1.016,0.411,1.036,0.963
				c0.041,1.114,4.586,113.247,46.327,269.072c38.519,143.795,117.495,355.26,274.997,546.083c0.352,0.426,0.291,1.056-0.135,1.408
				C853.058,1821.854,852.832,1821.93,852.608,1821.93z"/>
			<path style="fill:#E6D0BE;" d="M538.098,1078.435c0,0-64.945-49.699-19.95-203.561
				C518.148,874.875,618.909,996.269,538.098,1078.435z"/>
			<path style="fill:#E6D0BE;" d="M538.479,1138.414c1.967-0.358-30.636-74.554-147.355-92.312
				C391.124,1046.101,465.202,1151.763,538.479,1138.414z"/>
			<path style="fill:#E6D0BE;" d="M551.779,1222.464c0,0-45.239-53.402-173.161-40.058
				C378.618,1182.406,505.462,1261.964,551.779,1222.464z"/>
			<path style="fill:#E6D0BE;" d="M579.531,1316.97c1.442-1.384-66.701-45.256-173.828,4.366
				C405.703,1321.336,525.798,1368.55,579.531,1316.97z"/>
			<path style="fill:#E6D0BE;" d="M602.389,1388.669c0,0-61.084-13.961-145.975,63.932
				C456.414,1452.601,590.18,1441.63,602.389,1388.669z"/>
			<path style="fill:#E6D0BE;" d="M640.016,1484.16c0,0-53.923,8.895-96.742,99.805
				C543.274,1583.965,647.644,1530.948,640.016,1484.16z"/>
			<path style="fill:#E6D0BE;" d="M554.18,1139.442c-1.754,0.253,4.756-71.316,97.889-119.129
				C652.069,1020.313,619.552,1130.022,554.18,1139.442z"/>
			<path style="fill:#E6D0BE;" d="M573.916,1218.98c0,0,25.929-65.009,151.463-92.997
				C725.378,1125.983,630.382,1241.718,573.916,1218.98z"/>
			<path style="fill:#E6D0BE;" d="M604.792,1317.435c-1.807-0.855,48.867-64.102,166.209-51.086
				C771.001,1266.349,672.128,1349.272,604.792,1317.435z"/>
			<path style="fill:#E6D0BE;" d="M623.972,1386.997c0,0,53.484-32.644,158.723,14.242
				C782.695,1401.239,652.374,1433.335,623.972,1386.997z"/>
			<path style="fill:#E6D0BE;" d="M658.036,1479.814c0,0,53.956-8.697,123.438,63.899
				C781.475,1543.713,665.668,1526.6,658.036,1479.814z"/>
		</g>
		<g>
			<g>
				<rect x="717.536" y="575.501" style="fill:#F2E6DC;" width="1262.369" height="867.572"/>
				<rect x="718.639" y="547.244" style="fill:#D3BBA3;" width="1261.266" height="79.499"/>
				<path style="fill:#D3BBA3;" d="M1979.905,1444.073H718.639c-0.553,0-1-0.448-1-1V547.244c0-0.552,0.447-1,1-1h1261.267
					c0.552,0,1,0.448,1,1v895.829C1980.905,1443.625,1980.457,1444.073,1979.905,1444.073z M719.639,1442.073h1259.267V548.244
					H719.639V1442.073z"/>
				
					<ellipse transform="matrix(0.3827 -0.9239 0.9239 0.3827 646.7712 2143.0596)" style="fill:#FFFFFF;" cx="1927.044" cy="587.549" rx="18.082" ry="18.081"/>
				
					<ellipse transform="matrix(0.9732 -0.2298 0.2298 0.9732 -85.0036 445.04)" style="fill:#FFFFFF;" cx="1868.622" cy="587.549" rx="18.082" ry="18.082"/>
				
					<ellipse transform="matrix(0.3827 -0.9239 0.9239 0.3827 574.6422 2035.1108)" style="fill:#FFFFFF;" cx="1810.201" cy="587.549" rx="18.082" ry="18.081"/>
			</g>
			<g>
				<g>
					<circle style="fill:#FFFFFF;" cx="1699.901" cy="840.603" r="144.887"/>
				</g>
				<g>
					<path style="fill:#EFBC73;" d="M1701.397,899.017c-2.04-1.065-25.639-12.688-76.458-8.195v13.101h153.294v-13.101
						C1725.656,886.173,1701.975,898.707,1701.397,899.017z"/>
					<g>
						<path style="fill:#D3BBA3;" d="M1701.472,899.985c-0.158,0-0.317-0.03-0.469-0.091c-13.641-5.53-28.02-8.334-42.737-8.334
							h-40.086c-0.553,0-1-0.448-1-1V780.45c0-0.552,0.447-1,1-1h41.096c14.883,0,29.718,3.65,42.9,10.556
							c0.33,0.172,0.536,0.514,0.536,0.886v107.853c0,0.414-0.205,0.799-0.548,1.03
							C1701.957,899.914,1701.715,899.985,1701.472,899.985z M1619.18,889.56h39.086c14.602,0,28.877,2.712,42.446,8.063V791.498
							c-12.763-6.576-27.077-10.049-41.437-10.049h-40.096V889.56z"/>
						<path style="fill:#D3BBA3;" d="M1701.908,899.942c-0.261,0-0.52-0.077-0.743-0.227c-0.367-0.247-0.587-0.66-0.587-1.104
							v-107.72c0-0.372,0.206-0.713,0.536-0.886c13.183-6.906,28.018-10.556,42.9-10.556h41.096c0.553,0,1,0.448,1,1v110.11
							c0,0.552-0.447,1-1,1h-40.086c-14.673,0-29.011,2.787-42.615,8.285C1702.247,899.91,1702.077,899.942,1701.908,899.942z
							 M1701.66,897.99c-0.001,0-0.002,0.001-0.002,0.001C1701.658,897.991,1701.659,897.99,1701.66,897.99z M1702.578,791.498
							v106.125c13.571-5.351,27.847-8.063,42.446-8.063h39.086V781.45h-40.096C1729.655,781.45,1715.341,784.923,1702.578,791.498z"
							/>
					</g>
					<path style="fill:#D3BBA3;" d="M1680.378,801.116c-0.018,0-0.035-0.001-0.054-0.001l-41.238-2.171
						c-0.552-0.029-0.975-0.5-0.946-1.051c0.029-0.551,0.48-0.987,1.052-0.946l41.238,2.17c0.552,0.029,0.975,0.5,0.946,1.051
						C1681.348,800.702,1680.906,801.116,1680.378,801.116z"/>
					<path style="fill:#D3BBA3;" d="M1671.464,815.405c-0.018,0-0.035,0-0.054-0.001l-32.324-1.701
						c-0.552-0.029-0.975-0.499-0.946-1.051c0.029-0.551,0.48-0.976,1.052-0.946l32.324,1.701c0.552,0.029,0.975,0.5,0.946,1.051
						C1672.434,814.991,1671.992,815.405,1671.464,815.405z"/>
					<path style="fill:#D3BBA3;" d="M1680.378,830.633c-0.018,0-0.035,0-0.054-0.002l-41.238-2.17
						c-0.552-0.029-0.975-0.5-0.946-1.051c0.029-0.551,0.48-0.981,1.052-0.946l41.238,2.17c0.552,0.029,0.975,0.499,0.946,1.051
						C1681.348,830.219,1680.906,830.633,1680.378,830.633z"/>
					<path style="fill:#D3BBA3;" d="M1680.378,845.392c-0.018,0-0.035,0-0.054-0.001l-41.238-2.17
						c-0.552-0.029-0.975-0.5-0.946-1.051c0.029-0.551,0.48-0.985,1.052-0.946l41.238,2.171c0.552,0.029,0.975,0.5,0.946,1.051
						C1681.348,844.978,1680.906,845.392,1680.378,845.392z"/>
					<path style="fill:#D3BBA3;" d="M1680.378,860.151c-0.018,0-0.035-0.001-0.054-0.002l-41.238-2.17
						c-0.552-0.029-0.975-0.5-0.946-1.051c0.029-0.551,0.48-0.975,1.052-0.946l41.238,2.17c0.552,0.029,0.975,0.5,0.946,1.051
						C1681.348,859.737,1680.906,860.151,1680.378,860.151z"/>
					<path style="fill:#D3BBA3;" d="M1680.378,874.91c-0.018,0-0.035,0-0.054-0.002l-41.238-2.17
						c-0.552-0.029-0.975-0.5-0.946-1.051c0.029-0.551,0.48-0.979,1.052-0.946l41.238,2.17c0.552,0.029,0.975,0.499,0.946,1.051
						C1681.348,874.496,1680.906,874.91,1680.378,874.91z"/>
					<path style="fill:#D3BBA3;" d="M1724.652,801.116c-0.528,0-0.97-0.414-0.998-0.947c-0.028-0.552,0.395-1.023,0.946-1.051
						l41.238-2.17c0.551-0.042,1.021,0.394,1.052,0.946c0.028,0.552-0.395,1.022-0.946,1.051l-41.238,2.171
						C1724.688,801.115,1724.67,801.116,1724.652,801.116z"/>
					<path style="fill:#D3BBA3;" d="M1724.652,815.875c-0.528,0-0.97-0.414-0.998-0.947c-0.028-0.552,0.395-1.022,0.946-1.051
						l41.238-2.17c0.551-0.031,1.021,0.394,1.052,0.946c0.028,0.552-0.395,1.022-0.946,1.051l-41.238,2.17
						C1724.688,815.874,1724.67,815.875,1724.652,815.875z"/>
					<path style="fill:#D3BBA3;" d="M1724.652,830.633c-0.528,0-0.97-0.414-0.998-0.947c-0.028-0.552,0.395-1.022,0.946-1.051
						l41.238-2.17c0.551-0.035,1.021,0.394,1.052,0.946c0.028,0.552-0.395,1.022-0.946,1.051l-41.238,2.17
						C1724.688,830.633,1724.67,830.633,1724.652,830.633z"/>
					<path style="fill:#D3BBA3;" d="M1724.652,845.392c-0.528,0-0.97-0.414-0.998-0.947c-0.028-0.552,0.395-1.022,0.946-1.051
						l41.238-2.171c0.551-0.039,1.021,0.394,1.052,0.946c0.028,0.552-0.395,1.023-0.946,1.051l-41.238,2.17
						C1724.688,845.392,1724.67,845.392,1724.652,845.392z"/>
					<path style="fill:#D3BBA3;" d="M1724.652,860.151c-0.528,0-0.97-0.414-0.998-0.947c-0.028-0.552,0.395-1.023,0.946-1.051
						l26.047-1.371c0.548-0.04,1.021,0.394,1.052,0.946c0.028,0.552-0.395,1.023-0.946,1.051l-26.047,1.371
						C1724.688,860.151,1724.67,860.151,1724.652,860.151z"/>
					<path style="fill:#D3BBA3;" d="M1724.652,874.91c-0.528,0-0.97-0.414-0.998-0.947c-0.028-0.552,0.395-1.022,0.946-1.051
						l41.238-2.17c0.551-0.034,1.021,0.394,1.052,0.946c0.028,0.552-0.395,1.022-0.946,1.051l-41.238,2.17
						C1724.688,874.91,1724.67,874.91,1724.652,874.91z"/>
				</g>
			</g>
			<g>
				<g>
					<circle style="fill:#FFFFFF;" cx="1329.747" cy="841.819" r="144.887"/>
				</g>
				<g>
					<rect x="1262.621" y="792.991" style="fill:#EFBC73;" width="135.22" height="94.654"/>
					<polygon style="fill:#FFFFFF;" points="1316.683,863.572 1316.683,819.231 1354.118,841.516 					"/>
				</g>
			</g>
			<g>
				<g>
					<circle style="fill:#FFFFFF;" cx="968.157" cy="843.289" r="144.887"/>
				</g>
				<g>
					<path style="fill:#D3BBA3;" d="M924.271,913.532c-5.139,0-9.341-1.41-12.4-4.243c-6.849-6.343-7.024-18.947-0.493-35.489
						c6.413-16.245,18.544-34.477,34.159-51.337c15.614-16.86,32.863-30.352,48.569-37.99c15.994-7.778,28.573-8.568,35.423-2.226
						c6.849,6.344,7.024,18.947,0.493,35.49c-6.413,16.245-18.544,34.477-34.158,51.337c-15.614,16.86-32.863,30.352-48.569,37.99
						C938.443,911.367,930.638,913.532,924.271,913.532z M1017.021,779.943c-17.098,0-45.025,16.892-70.019,43.879
						c-31.688,34.216-46.84,71.898-33.773,83.999c13.065,12.1,49.477-5.891,81.167-40.107c31.688-34.216,46.838-71.898,33.772-84
						C1025.408,781.157,1021.602,779.943,1017.021,779.943z M995.13,868.394h0.01H995.13z"/>
					<path style="fill:#D3BBA3;" d="M963.429,880.206c-19.756,0-38.188-2.657-52.622-7.646c-16.81-5.81-26.264-14.146-26.621-23.475
						c-0.358-9.328,8.43-18.364,24.745-25.443c16.021-6.952,37.491-11.266,60.455-12.147c22.969-0.88,44.699,1.776,61.206,7.481
						c16.81,5.809,26.265,14.146,26.622,23.474c0.357,9.329-8.431,18.365-24.746,25.444c-16.021,6.952-37.491,11.266-60.454,12.146
						l-0.038-0.999l0.038,0.999C969.131,880.151,966.265,880.206,963.429,880.206z M977.977,813.33
						c-2.804,0-5.642,0.054-8.515,0.164c-22.721,0.871-43.935,5.127-59.735,11.983c-15.506,6.728-23.867,15.086-23.543,23.532
						c0.324,8.447,9.301,16.14,25.276,21.661c16.279,5.626,37.758,8.24,60.477,7.373c46.602-1.787,83.96-17.719,83.278-35.516
						C1054.575,825.828,1020.659,813.33,977.977,813.33z"/>
					<path style="fill:#D3BBA3;" d="M1019.848,909.864c-5.924,0-13.051-1.59-21.116-4.774
						c-16.245-6.413-34.477-18.544-51.337-34.159c-16.859-15.614-30.351-32.863-37.99-48.569
						c-7.778-15.994-8.568-28.574-2.226-35.423c6.342-6.849,18.945-7.023,35.489-0.494c16.245,6.414,34.476,18.544,51.337,34.159
						c16.859,15.615,30.352,32.864,37.989,48.57c7.778,15.994,8.569,28.574,2.226,35.423
						C1030.97,908.107,1026.073,909.864,1019.848,909.864z M921.64,783.604c-5.572,0-10.043,1.508-12.994,4.694
						c-12.101,13.066,5.892,49.477,40.108,81.166c16.683,15.45,34.692,27.442,50.712,33.767c15.722,6.206,27.543,6.21,33.287,0.007
						c12.101-13.066-5.892-49.477-40.107-81.166C966.773,798.11,938.917,783.604,921.64,783.604z"/>
					
						<ellipse transform="matrix(0.9993 -0.0383 0.0383 0.9993 -31.7199 37.8384)" style="fill:#ff6900;" cx="971.16" cy="846.337" rx="14.315" ry="14.315"/>
					
						<ellipse transform="matrix(0.5458 -0.8379 0.8379 0.5458 -310.7854 1127.4614)" style="fill:#D87355;" cx="884.555" cy="850.393" rx="11.67" ry="11.67"/>
					<path style="fill:#D87355;" d="M952.22,793.367c-3.539,3.821-9.506,4.05-13.327,0.511c-3.821-3.539-4.05-9.506-0.511-13.327
						c3.539-3.821,9.506-4.05,13.327-0.511C955.53,783.58,955.759,789.546,952.22,793.367z"/>
				</g>
			</g>
			<g>
				
					<ellipse transform="matrix(0.7071 -0.7071 0.7071 0.7071 -571.4617 1044.8428)" style="fill:#FFFFFF;" cx="975.506" cy="1212.237" rx="144.887" ry="144.887"/>
			</g>
			<g>
				<circle style="fill:#FFFFFF;" cx="1700.157" cy="1204.14" r="144.887"/>
			</g>
			<g>
				<g>
					
						<ellipse transform="matrix(0.7071 -0.7071 0.7071 0.7071 -467.4396 1293.5404)" style="fill:#FFFFFF;" cx="1327.722" cy="1211.02" rx="144.887" ry="144.887"/>
				</g>
				<g>
					<path style="fill:#FFFFFF;" d="M1367.807,1365.627c-0.444,0-0.85-0.299-0.967-0.749c-0.139-0.535,0.182-1.081,0.716-1.22
						c69.405-18.062,117.879-80.829,117.879-152.639c0-0.552,0.447-1,1-1s1,0.448,1,1c0,72.72-49.089,136.284-119.375,154.575
						C1367.975,1365.616,1367.891,1365.627,1367.807,1365.627z"/>
				</g>
				<g>
					<rect x="1272.943" y="1133.654" style="fill:#EFBC73;" width="127.923" height="151.75"/>
					<rect x="1269.591" y="1135.563" style="fill:#FFFFFF;" width="122.044" height="147.932"/>
					<path style="fill:#D3BBA3;" d="M1391.636,1284.496h-122.045c-0.553,0-1-0.448-1-1v-147.933c0-0.552,0.447-1,1-1h122.045
						c0.553,0,1,0.448,1,1v147.933C1392.636,1284.048,1392.188,1284.496,1391.636,1284.496z M1270.591,1282.496h120.045v-145.933
						h-120.045V1282.496z"/>
					<g>
						<path style="fill:#D3BBA3;" d="M1364.91,1166.044h-67.198c-0.553,0-1-0.448-1-1s0.447-1,1-1h67.198c0.553,0,1,0.448,1,1
							S1365.463,1166.044,1364.91,1166.044z"/>
						<path style="fill:#D3BBA3;" d="M1322.205,1187.397h-24.493c-0.553,0-1-0.448-1-1s0.447-1,1-1h24.493c0.553,0,1,0.448,1,1
							S1322.758,1187.397,1322.205,1187.397z"/>
						<path style="fill:#D3BBA3;" d="M1364.91,1208.75h-67.198c-0.553,0-1-0.448-1-1s0.447-1,1-1h67.198c0.553,0,1,0.448,1,1
							S1365.463,1208.75,1364.91,1208.75z"/>
						<path style="fill:#D3BBA3;" d="M1364.91,1230.103h-67.198c-0.553,0-1-0.448-1-1s0.447-1,1-1h67.198c0.553,0,1,0.448,1,1
							S1365.463,1230.103,1364.91,1230.103z"/>
						<path style="fill:#D3BBA3;" d="M1364.91,1251.455h-67.198c-0.553,0-1-0.448-1-1s0.447-1,1-1h67.198c0.553,0,1,0.448,1,1
							S1365.463,1251.455,1364.91,1251.455z"/>
					</g>
				</g>
			</g>
		</g>
		<g>
			<path style="fill:#EFBC73;" d="M1773.172,1809.47v158.693c0,87.644,70.966,158.694,158.505,158.694
				c87.54,0,158.506-71.05,158.506-158.694V1809.47H1773.172z"/>
			<g>
				<g>
					<path style="fill:#D3BBA3;" d="M1912.305,1842.355c-0.315,0-0.625-0.148-0.82-0.426
						c-113.235-161.555-216.314-216.54-282.848-234.219c-71.928-19.113-117.646,0.062-118.1,0.258
						c-0.508,0.218-1.096-0.015-1.314-0.521c-0.219-0.507,0.015-1.095,0.521-1.314c0.46-0.199,46.813-19.644,119.406-0.355
						c42.568,11.311,85.736,33.527,128.303,66.031c53.159,40.593,105.533,97.443,155.67,168.973
						c0.316,0.452,0.207,1.076-0.245,1.393C1912.703,1842.296,1912.503,1842.355,1912.305,1842.355z"/>
					<path style="fill:#E6D0BE;" d="M1505.932,1596.083c0,0-126.11-40.106-72.656-99.901
						C1472.989,1451.759,1484.518,1590.099,1505.932,1596.083z"/>
					<path style="fill:#E6D0BE;" d="M1528.162,1587.586c0,0-28.793-41.07-1.354-93.519c27.439-52.449,59.552-28.91,39.652,11.865
						C1546.56,1546.708,1526.784,1569.195,1528.162,1587.586z"/>
					<path style="fill:#E6D0BE;" d="M1620.134,1591.686c0.352,2.42-20.974-43.982,7.357-88.505
						c28.331-44.523,70.608-4.367,46.999,25.028C1650.88,1557.604,1616.29,1565.3,1620.134,1591.686z"/>
					<path style="fill:#E6D0BE;" d="M1685.751,1609.826c-0.464,1.588-3.981-50.023,33.283-74.759
						c37.264-24.737,56.081,24.23,19.252,41.868C1701.457,1594.573,1687.678,1603.229,1685.751,1609.826z"/>
					<path style="fill:#E6D0BE;" d="M1762.813,1664.246c0,0-4.868-58.865,48.39-58.865c38.469,0,29.1,32.479,2.196,42.374
						C1792.043,1655.609,1769.637,1653.792,1762.813,1664.246z"/>
				</g>
				<g>
					<path style="fill:#D3BBA3;" d="M1987.104,1842.685c-0.076,0-0.154-0.009-0.231-0.027c-0.537-0.127-0.87-0.666-0.742-1.204
						c45.476-192.042,18.102-305.721-12.87-367.269c-33.484-66.542-78.16-88.035-78.607-88.245c-0.5-0.234-0.716-0.83-0.481-1.33
						s0.828-0.715,1.329-0.482c0.454,0.212,45.754,22.003,79.546,89.157c19.816,39.379,31.885,86.446,35.871,139.896
						c4.979,66.749-2.706,143.707-22.842,228.733C1987.968,1842.375,1987.558,1842.685,1987.104,1842.685z"/>
					<path style="fill:#E6D0BE;" d="M1900.473,1374.602c0,0-53.778-121.042,26.372-120.725
						C1986.392,1254.113,1890.725,1354.597,1900.473,1374.602z"/>
					<path style="fill:#E6D0BE;" d="M1921.58,1385.603c0,0,11.557-48.825,68.948-63.107c57.392-14.283,61.133,25.388,17.465,37.563
						C1964.326,1372.235,1934.401,1372.36,1921.58,1385.603z"/>
					<path style="fill:#E6D0BE;" d="M1979.584,1457.179c-1.573,1.871,18.923-44.905,70.987-53.256
						c52.064-8.351,50.143,49.961,12.513,51.803C2025.453,1457.569,1996.739,1436.783,1979.584,1457.179z"/>
					<path style="fill:#E6D0BE;" d="M2009.603,1518.348c-1.494,0.707,34.717-36.194,77.934-24.72
						c43.218,11.474,19.14,58.073-18.487,42.212C2031.423,1519.979,2015.809,1515.412,2009.603,1518.348z"/>
					<path style="fill:#E6D0BE;" d="M2020.124,1612.174c0,0,40.732-42.729,76.094-2.857c25.542,28.8-4.937,43.35-30.19,29.779
						C2045.983,1628.323,2032.463,1610.342,2020.124,1612.174z"/>
				</g>
				<g>
					<path style="fill:#D3BBA3;" d="M1971.524,1819.163c-0.415,0-0.804-0.261-0.945-0.676
						c-87.254-254.131-211.385-367.757-300.153-418.328c-96.081-54.735-172.438-49.407-173.2-49.345
						c-0.559,0.042-1.031-0.368-1.076-0.918c-0.043-0.551,0.367-1.032,0.918-1.076c0.763-0.06,77.74-5.435,174.349,49.601
						c56.697,32.3,108.992,78.784,155.433,138.159c58.019,74.179,107.013,168.807,145.622,281.257
						c0.179,0.522-0.1,1.091-0.621,1.271C1971.741,1819.145,1971.632,1819.163,1971.524,1819.163z"/>
					<path style="fill:#E6D0BE;" d="M1487.373,1340.915c0,0-71.414-49.925-22.768-112.861
						C1513.252,1165.118,1514.203,1299.03,1487.373,1340.915z"/>
					<path style="fill:#E6D0BE;" d="M1598.891,1357.295c1.357,2.423-38.16-38.567-30.825-96.175
						c7.335-57.607,63.621-31.06,54.231,8.812C1612.907,1309.803,1584.104,1330.884,1598.891,1357.295z"/>
					<path style="fill:#E6D0BE;" d="M1702.833,1405.603c1.357,2.423-38.159-38.567-30.825-96.175
						c7.335-57.608,63.621-31.06,54.231,8.812C1716.849,1358.111,1688.046,1379.192,1702.833,1405.603z"/>
					<path style="fill:#E6D0BE;" d="M1818.822,1503.776c1.01,3.261-36.004-56.161-12.437-123.539
						c23.567-67.378,84.442-21.015,62.944,24.511C1847.832,1450.276,1807.805,1468.228,1818.822,1503.776z"/>
					<path style="fill:#E6D0BE;" d="M1888.563,1601.48c0.205,2.77-18.279-51.109,12.71-100.2
						c30.989-49.092,70.772-1.195,45.415,30.955C1921.331,1564.385,1886.324,1571.285,1888.563,1601.48z"/>
				</g>
				<g>
					<path style="fill:#D3BBA3;" d="M2021.782,1832.678c-0.08,0-0.161-0.009-0.241-0.029c-0.536-0.133-0.863-0.675-0.73-1.211
						c12.228-49.313-19-114.972-55.157-190.999c-37.752-79.377-80.54-169.346-93.95-273.376
						c-4.419-34.286-1.619-70.89,8.322-108.794c7.946-30.299,20.448-61.494,37.159-92.717
						c28.444-53.147,59.671-88.439,59.982-88.789c0.369-0.413,1.001-0.449,1.412-0.082c0.412,0.367,0.449,1,0.082,1.412
						c-0.312,0.349-31.404,35.496-59.736,88.446c-26.121,48.817-55.173,123.189-45.237,200.268
						c13.368,103.714,56.084,193.53,93.771,272.773c37.82,79.521,67.692,142.332,55.293,192.339
						C2022.639,1832.374,2022.23,1832.678,2021.782,1832.678z"/>
					<path style="fill:#E6D0BE;" d="M1872.696,1253.07c0,0-66.927-59.536-45.908-129.813c21.018-70.277,48.696-29.639,32.025,37.464
						C1842.141,1227.823,1872.696,1253.07,1872.696,1253.07z"/>
					<path style="fill:#E6D0BE;" d="M1892.462,1160.721c0,0-31.306-93.174,11.799-145.167c43.106-51.992,45.598,1.264,22.737,50.998
						C1904.138,1116.285,1891.729,1135.068,1892.462,1160.721z"/>
					<path style="fill:#E6D0BE;" d="M1951.759,1077.166c0.082-6.671-0.916-81.886,50.786-96.279
						c51.703-14.393,50.343,40.704,6.568,65.495C1965.338,1071.173,1951.759,1077.166,1951.759,1077.166z"/>
				</g>
				<g>
					<path style="fill:#D3BBA3;" d="M2052.783,1834.554c-0.121,0-0.244-0.022-0.364-0.069c-0.515-0.201-0.769-0.781-0.567-1.295
						c22.172-56.711,31.638-112.884,28.137-166.96c-3.483-53.798-18.343-93.081-32.714-131.069
						c-16.158-42.714-31.42-83.06-25.193-136.49c5.151-44.218,23.646-87.122,54.973-127.521c0.339-0.435,0.968-0.516,1.402-0.178
						c0.437,0.339,0.517,0.967,0.178,1.403c-31.099,40.107-49.458,82.677-54.566,126.527c-6.17,52.946,9.009,93.07,25.078,135.551
						c14.422,38.126,29.336,77.551,32.839,131.648c3.521,54.37-5.991,110.832-28.27,167.817
						C2053.561,1834.313,2053.183,1834.554,2052.783,1834.554z"/>
					<path style="fill:#E6D0BE;" d="M2083.53,1259.667c0,0-28.464-77.263-3.983-116.689
						C2104.028,1103.552,2174.306,1155.59,2083.53,1259.667z"/>
					<path style="fill:#E6D0BE;" d="M2077.674,1311.874c0,0,39.446-65.915,71.7-58.328c32.254,7.587-6.044,54.979-42.416,63.29
						C2093.999,1319.796,2077.674,1311.874,2077.674,1311.874z"/>
					<path style="fill:#E6D0BE;" d="M2032.698,1459.725c-0.488,5.334-1.088-90.339,54.753-106.673
						c41.492-12.137,32.136,34.146,0,52.653C2065.06,1418.6,2033.843,1447.233,2032.698,1459.725z"/>
					<path style="fill:#E6D0BE;" d="M2071.639,1578.806c1.016-2.622-21.052-68.316,11.891-90.384
						c32.943-22.068,40.425,15.925,23.066,36.525C2089.238,1545.546,2071.639,1578.806,2071.639,1578.806z"/>
					<path style="fill:#E6D0BE;" d="M2090.504,1689.166c-1.652,1.499-3.901-89.414,38.121-87.583
						C2170.646,1603.413,2111.473,1670.145,2090.504,1689.166z"/>
				</g>
			</g>
		</g>
		<g>
			<g>
				<g>
					<path style="fill:#84524D;" d="M1587.305,1730.973c0,0-117.854,65.821-356.141,93.647
						c-264.07,30.837-6.589-243.924-6.589-243.924s190.93-74.711,287.4-112.681
						C1594.599,1435.495,1587.305,1730.973,1587.305,1730.973z"/>
					<g>
						<path style="fill:#84524D;" d="M1410.161,1614.861c0,0,83.001-245.407,122.895-342.166
							c41.897-101.617,118.533-245.54,138.504-234.547c11.376,6.261,4.978,28.053-15.992,85.161
							c3.944-1.826,17.256-4.398,26.857,3.141c14.206,11.158,8.353,25.125,8.421,26.595c1.287-0.727,16.393-8.229,27.166-2.373
							c12.134,6.597,15.133,17.942,14.146,28.747c3.251-1.706,18.225-6.657,28.287-0.511c13.082,7.99,12.816,24.97,7.817,36.606
							c-9.172,21.344-35.685,79.043-45.813,111.349c-19.932,63.574-46.807,309.2-113.51,383.11
							C1489.766,1842.025,1389.066,1678.999,1410.161,1614.861z"/>
						<path style="fill:#363E44;" d="M1644.57,1316.469c-0.019,0-0.037,0-0.056-0.001c-0.552-0.03-0.974-0.501-0.943-1.053
							c1.307-23.917-6.511-41.676-12.793-55.946c-6.478-14.714-11.158-25.345-1.998-34.426c6.63-6.574,11.153-17.343,13.444-32.008
							c0.707-4.522-1.85-7.708-4.479-9.182c-2.658-1.49-6.755-2.012-10.281,0.985l-54.424,46.24
							c-0.423,0.358-1.053,0.305-1.409-0.115c-0.358-0.421-0.307-1.052,0.114-1.41l54.424-46.24
							c3.549-3.016,8.476-3.491,12.555-1.206c4.103,2.299,6.201,6.604,5.478,11.235c-2.358,15.096-7.073,26.239-14.013,33.12
							c-8.184,8.113-3.965,17.695,2.42,32.2c6.368,14.465,14.293,32.467,12.959,56.861
							C1645.539,1316.057,1645.098,1316.469,1644.57,1316.469z"/>
						<path style="fill:#363E44;" d="M1739.889,1247.69c-0.132,0-0.265-0.026-0.393-0.081c-17.633-7.536-26.53-27.646-20.256-45.782
							l1.589-4.591l-9.653,15.929c-5.971,9.849-18.11,14.016-28.855,9.914c-6.051-2.31-10.8-6.857-13.374-12.806
							c-2.576-5.954-2.639-12.539-0.175-18.542l7.076-17.249c-5.111,8.741-16.372,12.064-25.428,7.385
							c-8.708-4.5-12.643-14.807-9.151-23.976l9.313-24.452c0.197-0.516,0.773-0.775,1.29-0.579
							c0.517,0.197,0.775,0.774,0.579,1.291l-9.313,24.452c-3.129,8.217,0.396,17.455,8.2,21.487
							c8.281,4.28,18.629,1.086,23.065-7.12l8.581-15.869c0.254-0.468,0.828-0.657,1.308-0.428c0.48,0.228,0.699,0.792,0.497,1.283
							l-14.168,34.533c-2.257,5.5-2.199,11.533,0.161,16.989c2.357,5.449,6.708,9.615,12.25,11.73
							c9.847,3.757,20.965-0.06,26.433-9.082l14.529-23.975c0.264-0.438,0.816-0.607,1.28-0.387
							c0.463,0.217,0.688,0.749,0.521,1.232l-4.664,13.483c-5.933,17.149,2.479,36.164,19.15,43.289
							c0.508,0.217,0.744,0.805,0.527,1.313C1740.646,1247.462,1740.276,1247.689,1739.889,1247.69z"/>
					</g>
				</g>
				<path style="fill:#84524D;" d="M347.398,1963.245c5.309-13.288,68.866-276.962,278.267-373.088
					c0,0,29.782,224.539,29.782,232.512c0,7.973-103.525,170.088-103.525,170.088L347.398,1963.245z"/>
				<g>
					<path style="fill:#ff6900;" d="M1397.476,1484.394c0,0-233.21,36.112-454.147,18.748
						c-103.945-8.169-299.214-9.065-365.033,34.153c-147.145,96.618-186.676,254.163-186.676,254.163l255.713,46.839
						l-36.155,258.108H1307l-43.008-243.115l159.839-34.679L1397.476,1484.394z"/>
					<path style="fill:#363E44;" d="M1257.731,1835.403c-0.471,0-0.891-0.334-0.981-0.814l-14.067-74.239
						c-0.103-0.542,0.254-1.066,0.796-1.168c0.554-0.104,1.066,0.254,1.169,0.796l14.067,74.239
						c0.103,0.542-0.254,1.066-0.796,1.168C1257.855,1835.397,1257.793,1835.403,1257.731,1835.403z"/>
				</g>
				<g>
					<path style="fill:#84524D;" d="M1132.134,1902.873c-25.493-12.874-122.916-83.428-172.778-57.859
						c-50.22,25.752-74.876,83.102-79.47,139.408c0.143,0.18,0.302,0.379,0.443,0.557c5.379,14.682,15.674,35.823,36.339,51.374
						c23.558,17.727,38.027,11.211,65.797,26.042c46.87,25.033,51.199,69.552,68.96,63.324c12.191-4.273,10.79-30.323,3.339-53.75
						c-7.651-24.053-22.71-36.384-19.866-39.383c3.12-3.291,16.8,11.217,35.465,27.694c8.672,7.655,19.554,43.357,37.07,39.976
						c13.965-2.695,11.928-42.646-7.914-71.334c-14.038-20.295-37.184-26.392-35.197-30.437c1.491-3.035,15.195,0.939,25.985,7.886
						c17.808,11.461,29.332,47.867,45.394,44.442c15.736-3.357,13.344-38.217-3.236-65.759
						c-13.98-23.223-40.116-28.788-37.675-33.829c1.716-3.546,13.935-3.49,38.337,4.23c20.367,6.444,55.823,32.125,65.741,11.793
						C1207.211,1950.15,1170.612,1922.302,1132.134,1902.873z"/>
					<path style="fill:#84524D;" d="M379.472,1885.329c0,0-116.847,154.753,34.446,228.864
						c151.293,74.111,516.881-124.097,516.881-124.097l55.861-150.591C783.735,1814.063,561.572,1826.691,379.472,1885.329z"/>
					<path style="fill:#363E44;" d="M480.339,1859.33c-0.484,0-0.91-0.353-0.987-0.846c-0.085-0.546,0.288-1.057,0.834-1.143
						l153.413-23.927c0.556-0.08,1.058,0.289,1.143,0.834c0.085,0.546-0.288,1.057-0.834,1.143l-153.413,23.927
						C480.441,1859.326,480.39,1859.33,480.339,1859.33z"/>
				</g>
			</g>
			<g>
				<g>
					<path style="fill:#FFFFFF;" d="M1716.112,2095.846c-10.836,23.186-34.094,38-59.662,38h-410.523l183.855-393.411h452.427
						L1716.112,2095.846z"/>
					<path style="fill:#FFFFFF;" d="M976.453,2094.35c0,21.919,17.748,39.688,39.641,39.688h378.539l18.547-39.688H976.453z"/>
					
						<ellipse transform="matrix(0.0012 -1 1 0.0012 -327.135 3505.2563)" style="fill:#F2E6DC;" cx="1591.105" cy="1916.386" rx="27.07" ry="27.037"/>
				</g>
				<path style="fill:#363E44;" d="M1417.005,2154.767h-378.539c-22.409,0-40.641-18.251-40.641-40.686c0-0.552,0.447-1,1-1h287.295
					l165.127-353.34c0.165-0.352,0.518-0.577,0.906-0.577h452.428c0.342,0,0.66,0.175,0.844,0.463
					c0.184,0.289,0.207,0.651,0.063,0.96l-166.097,355.412c-10.951,23.435-34.726,38.577-60.568,38.577h-261.229
					C1417.426,2154.698,1417.221,2154.767,1417.005,2154.767z M999.838,2115.081c0.532,20.871,17.655,37.686,38.628,37.686h378.04
					c0.168-0.122,0.373-0.191,0.589-0.191h261.728c25.069,0,48.133-14.689,58.756-37.423l165.432-353.988h-450.22l-165.127,353.34
					c-0.165,0.352-0.518,0.577-0.906,0.577H999.838z"/>
			</g>
			<g>
				<circle style="fill:#363E44;" cx="953.983" cy="1288.052" r="131.606"/>
				<path style="fill:#84524D;" d="M1044.885,1353.651c-16.653-9.201-45.186-33.774-54.387-17.121l-107.966,172.658
					c-9.201,16.654,46.029,10.858,62.682,20.059c16.653,9.201,37.612,3.16,46.813-13.494l66.352-115.288
					C1067.58,1383.81,1061.539,1362.851,1044.885,1353.651z"/>
				<path style="fill:#84524D;" d="M1032.425,1522.526c14.922,54.65-28.03,137.328-28.03,137.328s-158.169-76.76-158.169-137.328
					c0-15.48,41.682-28.03,93.099-28.03C990.744,1494.497,1028.348,1507.593,1032.425,1522.526z"/>
				<g>
					<path style="fill:#84524D;" d="M1132.031,1401.153c-14.938,27.955-102.501,15.936-102.501,15.936l-76.36-59.549
						c-19.896-39.905-3.676-88.383,36.23-108.279c39.905-19.896,88.383-3.675,108.279,36.23
						C1097.679,1285.491,1147.246,1372.68,1132.031,1401.153z"/>
					<path style="fill:#84524D;" d="M1098.848,1308.63c0,0,30.853,11.129,32.57,17.272c2.049,7.333-18.491,22.67-18.491,22.67
						S1099.413,1308.413,1098.848,1308.63z"/>
					<g>
						<path style="fill:#FFFFFF;" d="M1032.1,1338.049c0,0,8.853-12.537,23.435-19.807c3.103-1.547,9.628,26.198,5.982,26.261
							C1045.486,1344.777,1032.1,1338.049,1032.1,1338.049z"/>
						<g>
							<defs>
								<path id="SVGID_1_" d="M1032.1,1338.049c0,0,13.021-18.44,33.491-23.56c20.47-5.12,40.638,5.017,40.638,5.017
									s-13.021,18.439-33.491,23.56C1052.269,1348.186,1032.1,1338.049,1032.1,1338.049z"/>
							</defs>
							<clipPath id="SVGID_00000165921822674016757720000008110981449277714850_">
								<use xlink:href="#SVGID_1_"  style="overflow:visible;"/>
							</clipPath>
							<path style="clip-path:url(#SVGID_00000165921822674016757720000008110981449277714850_);fill:#363E44;" d="
								M1055.834,1317.296c4.836-14.453,20.473-22.249,34.925-17.413c14.453,4.836,22.249,20.472,17.413,34.925
								c-4.836,14.453-20.473,22.249-34.925,17.413C1058.794,1347.385,1050.998,1331.749,1055.834,1317.296z"/>
						</g>
					</g>
					<path style="fill:#363E44;" d="M1096.235,1372.189c-0.457,0-0.916-0.026-1.377-0.078c-4.622-0.525-8.63-3.711-10.211-8.116
						c-0.187-0.52,0.084-1.093,0.604-1.279c0.514-0.187,1.093,0.083,1.279,0.604c1.325,3.694,4.683,6.365,8.555,6.805
						c4.012,0.457,7.961-1.511,10.046-5.012c0.283-0.474,0.897-0.629,1.371-0.348c0.475,0.283,0.63,0.896,0.348,1.371
						C1104.603,1369.91,1100.54,1372.189,1096.235,1372.189z"/>
				</g>
				<path style="fill:#363E44;" d="M895.633,1372.22c0,0,113.455,5.006,185.199-108.45
					c71.744-113.455-125.134-106.781-206.889-68.407C821.579,1219.943,895.633,1372.22,895.633,1372.22z"/>
				<path style="fill:#40484C;" d="M923.852,1462.579c-3.476,0-5.752-0.353-6.017-0.396c-0.545-0.089-0.914-0.603-0.825-1.147
					c0.087-0.546,0.595-0.917,1.147-0.826c0.183,0.028,18.692,2.87,33.004-8.599c10.145-8.131,15.826-21.388,16.886-39.405
					c1.587-26.974-17.946-42.305-30.871-52.45c-7.605-5.969-13.101-10.282-12.167-14.839c0.917-4.478,7.896-8.071,24.086-12.403
					c62.546-16.735,98.777-90.128,99.137-90.868c0.241-0.497,0.838-0.704,1.336-0.463c0.497,0.241,0.704,0.839,0.463,1.336
					c-0.09,0.187-9.258,18.931-26.115,39.502c-15.584,19.017-41.125,43.548-74.303,52.425c-14.737,3.943-21.933,7.398-22.645,10.873
					c-0.685,3.346,4.667,7.546,11.442,12.865c13.253,10.402,33.281,26.123,31.633,54.141c-1.095,18.616-7.033,32.364-17.649,40.862
					C942.402,1461.183,930.76,1462.579,923.852,1462.579z"/>
				<path style="fill:#363E44;" d="M743.934,908.69c0,0-112.429,248.14,149.426,362.524c0,0-116.957-204.268,79.156-371.076
					L743.934,908.69z"/>
			</g>
		</g>
		<g>
			<g>
				<circle style="fill:#ff6900;" cx="689.332" cy="578.392" r="195.642"/>
			</g>
			<g>
				<path style="fill:#FFFFFF;" d="M688.681,591.493c-0.089,0-0.177-0.012-0.263-0.035l-62.219-16.968
					c-0.533-0.146-0.848-0.695-0.702-1.228c0.146-0.534,0.701-0.845,1.228-0.702l61.957,16.897l62.277-16.897
					c0.532-0.141,1.083,0.17,1.227,0.704c0.145,0.533-0.17,1.082-0.703,1.227l-62.54,16.968
					C688.856,591.481,688.769,591.493,688.681,591.493z"/>
				<g>
					<path style="fill:#FFFFFF;" d="M688.681,649.434c-0.125,0-0.25-0.023-0.369-0.07l-57.293-22.737
						c-3.457-1.726-5.557-5.123-5.557-8.901v-43.446l-64.104-18.315c-4.354-1.244-7.168-4.984-7.168-9.527
						c0-4.547,2.813-8.289,7.168-9.533l124.761-35.646c1.781-0.51,3.664-0.509,5.445,0l124.76,35.646
						c4.354,1.244,7.168,4.984,7.168,9.527c-0.001,4.547-2.813,8.289-7.168,9.533l-64.104,18.315v43.446
						c0,3.779-2.1,7.176-5.479,8.866l-57.694,22.772C688.93,649.41,688.806,649.434,688.681,649.434z M561.907,554.041
						l64.829,18.522c0.43,0.122,0.726,0.515,0.726,0.961v44.201c0,3.016,1.676,5.728,4.373,7.077l56.847,22.556l57.246-22.591
						c2.617-1.313,4.293-4.024,4.293-7.041v-44.201c0-0.446,0.296-0.839,0.726-0.961l64.829-18.522
						c4.219-1.206,5.717-4.853,5.717-7.61c0-2.754-1.497-6.398-5.717-7.604l-124.761-35.646c-1.422-0.406-2.926-0.407-4.346,0
						l-124.762,35.646c-4.219,1.206-5.717,4.853-5.717,7.61C556.19,549.191,557.688,552.835,561.907,554.041z"/>
				</g>
				<path style="fill:#FFFFFF;" d="M795.474,681.756c-0.553,0-1-0.448-1-1V562.207c0-0.552,0.447-1,1-1c0.553,0,1,0.448,1,1v118.549
					C796.474,681.309,796.026,681.756,795.474,681.756z"/>
				<path style="fill:#FFFFFF;" d="M787.829,676.929c-0.099,0-0.198-0.015-0.298-0.046c-0.527-0.164-0.821-0.725-0.657-1.252
					l7.634-24.473c0.165-0.527,0.723-0.819,1.253-0.657c0.527,0.165,0.821,0.725,0.657,1.252l-7.634,24.473
					C788.65,676.655,788.256,676.929,787.829,676.929z"/>
				<path style="fill:#FFFFFF;" d="M802.872,676.256c-0.424,0-0.816-0.271-0.952-0.696l-7.282-22.768
					c-0.169-0.526,0.121-1.089,0.648-1.257c0.531-0.169,1.088,0.122,1.257,0.648l7.282,22.768c0.169,0.526-0.121,1.089-0.647,1.257
					C803.075,676.24,802.973,676.256,802.872,676.256z"/>
			</g>
		</g>
	</g>
</g>
</svg>
