<?xml version="1.0" encoding="utf-8"?>
<!-- Generator: Adobe Illustrator 27.5.0, SVG Export Plug-In . SVG Version: 6.00 Build 0)  -->
<svg version="1.1" xmlns="http://www.w3.org/2000/svg" xmlns:xlink="http://www.w3.org/1999/xlink" x="0px" y="0px"
	 viewBox="0 0 2500 2500" style="enable-background:new 0 0 2500 2500;" xml:space="preserve">
-
<g id="Illustration">
	<g id="Artificial_intelligence_1_">
		<circle style="fill:transparent;" cx="1250" cy="1250" r="915"/>
		<g>
			<g>
				<path style="fill:#E2A18D;" d="M1584.379,1056.845c0-39.392-31.934-71.326-71.324-71.326h-1.145
					c6.246-11.71,9.799-25.076,9.799-39.275c0-46.16-37.42-83.58-83.58-83.58c-4.118,0-8.161,0.31-12.12,0.886
					c0.275-2.518,0.427-5.072,0.427-7.663c0-38.579-31.274-69.853-69.853-69.853c-20.285,0-38.543,8.655-51.305,22.463
					c-9.789-26.754-35.474-45.848-65.619-45.848c-26.691,0-49.876,14.975-61.636,36.977c-11.844-8.543-26.375-13.592-42.095-13.592
					c-39.792,0-72.051,32.258-72.051,72.051c0,1.619,0.073,3.22,0.178,4.813c-1.961-0.138-3.932-0.232-5.928-0.232
					c-46.16,0-83.58,37.42-83.58,83.58c0,14.228,3.565,27.619,9.836,39.347c-38.073,1.494-68.485,32.815-68.485,71.254
					c0,30.562,19.227,56.623,46.241,66.776c9.045,48.311,51.414,84.882,102.35,84.882c39.407,0,73.696-21.889,91.391-54.167
					c11.604,10.057,26.73,16.156,43.29,16.156c28.13,0,52.143-17.567,61.708-42.322h252.175
					C1552.446,1128.17,1584.379,1096.237,1584.379,1056.845z"/>
				<path style="fill:#363E44;" d="M1256.256,1006.199h-100.501c-0.553,0-1-0.448-1-1s0.447-1,1-1h100.501
					c20.406,0,37.009-16.602,37.009-37.009c0-19.428-15.806-35.234-35.234-35.234h-116.031c-20.53,0-37.233-16.703-37.233-37.234
					s16.703-37.234,37.233-37.234h36.938c22.458,0,43.294-13.061,53.08-33.276c4.032-8.327,6.163-17.621,6.163-26.875V711.67
					c0-0.552,0.447-1,1-1s1,0.448,1,1v85.667c0,9.554-2.2,19.148-6.362,27.746c-10.119,20.9-31.661,34.404-54.881,34.404h-36.938
					c-19.428,0-35.233,15.806-35.233,35.234s15.806,35.234,35.233,35.234h116.031c20.531,0,37.234,16.703,37.234,37.234
					C1295.265,988.7,1277.766,1006.199,1256.256,1006.199z"/>
				<path style="fill:#363E44;" d="M1052.304,1259.269c-0.553,0-1-0.448-1-1v-107c0-20.498,16.676-37.174,37.173-37.174h59.527
					c19.395,0,35.174-15.779,35.174-35.174c0-19.395-15.779-35.174-35.174-35.174h-59.527c-20.455,0-37.104-16.608-37.173-37.047
					v-0.127c0.069-20.439,16.718-37.047,37.173-37.047h135.996c0.553,0,1,0.448,1,1c0,0.552-0.447,1-1,1h-135.996
					c-19.373,0-35.138,15.745-35.173,35.11c0.035,19.366,15.8,35.11,35.173,35.11h59.527c20.498,0,37.174,16.676,37.174,37.174
					s-16.676,37.174-37.174,37.174h-59.527c-19.395,0-35.173,15.779-35.173,35.174v107
					C1053.304,1258.821,1052.856,1259.269,1052.304,1259.269z"/>
				<path style="fill:#363E44;" d="M1109.681,1081.294h-95.497c-27.483,0-49.843-22.359-49.843-49.842c0-0.552,0.447-1,1-1
					c0.553,0,1,0.448,1,1c0,26.38,21.462,47.842,47.843,47.842h95.497c0.553,0,1,0.448,1,1S1110.233,1081.294,1109.681,1081.294z"/>
				<path style="fill:#363E44;" d="M1068.787,935.988h-4.884c-22.771,0-41.295-18.525-41.295-41.295c0-0.552,0.447-1,1-1
					c0.553,0,1,0.448,1,1c0,21.667,17.628,39.295,39.295,39.295h4.884c0.553,0,1,0.448,1,1
					C1069.787,935.54,1069.34,935.988,1068.787,935.988z"/>
				<path style="fill:#363E44;" d="M1309.806,889.588h-109.791c-0.553,0-1-0.448-1-1s0.447-1,1-1h109.791
					c21.186,0,40.614-11.572,50.704-30.199c9.803-18.099,14.984-38.545,14.984-59.127v-85.82c0-0.552,0.447-1,1-1s1,0.448,1,1v85.82
					c0,20.914-5.265,41.689-15.227,60.08C1351.828,877.615,1331.726,889.588,1309.806,889.588z"/>
				<path style="fill:#363E44;" d="M1515.694,1075.405h-169.313c-19.631,0-35.603-15.971-35.603-35.603s15.972-35.603,35.603-35.603
					h80.984c18.528,0,33.603-15.074,33.603-33.603v-1.488c0-18.529-15.074-33.603-33.603-33.603h-92.387c-0.553,0-1-0.448-1-1
					c0-0.552,0.447-1,1-1h92.387c19.631,0,35.603,15.971,35.603,35.603v1.488c0,19.632-15.972,35.603-35.603,35.603h-80.984
					c-18.528,0-33.603,15.074-33.603,33.603s15.074,33.603,33.603,33.603h169.313c0.553,0,1,0.448,1,1
					S1516.247,1075.405,1515.694,1075.405z"/>
				<path style="fill:#363E44;" d="M1207.072,1211.325c-0.553,0-1-0.448-1-1v-84.241c0-0.125,0.023-0.248,0.068-0.365l12.721-32.509
					c9.114-23.289,31.162-38.337,56.17-38.337h13.224c0.553,0,1,0.448,1,1s-0.447,1-1,1h-13.224
					c-24.179,0-45.495,14.549-54.307,37.066l-12.652,32.333v84.052C1208.072,1210.877,1207.625,1211.325,1207.072,1211.325z"/>
				<path style="fill:#363E44;" d="M1410.379,971.526h-65.021c-0.553,0-1-0.448-1-1c0-0.552,0.447-1,1-1h65.021c0.553,0,1,0.448,1,1
					C1411.379,971.078,1410.932,971.526,1410.379,971.526z"/>
				<path style="fill:#363E44;" d="M1612.228,1037.336h-226.575c-0.553,0-1-0.448-1-1s0.447-1,1-1h226.575c0.553,0,1,0.448,1,1
					S1612.78,1037.336,1612.228,1037.336z"/>
				<path style="fill:#363E44;" d="M965.341,1032.452H852.455c-0.553,0-1-0.448-1-1s0.447-1,1-1h112.886c0.553,0,1,0.448,1,1
					S965.894,1032.452,965.341,1032.452z"/>
				<path style="fill:#363E44;" d="M1023.608,895.693h-69.095c-0.553,0-1-0.448-1-1c0-0.552,0.447-1,1-1h69.095c0.553,0,1,0.448,1,1
					C1024.608,895.246,1024.161,895.693,1023.608,895.693z"/>
				<path style="fill:#363E44;" d="M1237.824,712.68c-10.973,0-19.899-8.927-19.899-19.9s8.927-19.9,19.899-19.9
					s19.899,8.927,19.899,19.9S1248.797,712.68,1237.824,712.68z M1237.824,674.881c-9.87,0-17.899,8.03-17.899,17.9
					s8.029,17.9,17.899,17.9s17.899-8.03,17.899-17.9S1247.694,674.881,1237.824,674.881z"/>
				<path style="fill:#363E44;" d="M1376.494,712.68c-10.973,0-19.899-8.927-19.899-19.9s8.927-19.9,19.899-19.9
					s19.899,8.927,19.899,19.9S1387.467,712.68,1376.494,712.68z M1376.494,674.881c-9.87,0-17.899,8.03-17.899,17.9
					s8.029,17.9,17.899,17.9s17.899-8.03,17.899-17.9S1386.364,674.881,1376.494,674.881z"/>
				<path style="fill:#363E44;" d="M1206.809,1252.193c-10.973,0-19.899-8.927-19.899-19.9s8.927-19.9,19.899-19.9
					s19.9,8.927,19.9,19.9S1217.781,1252.193,1206.809,1252.193z M1206.809,1214.393c-9.87,0-17.899,8.03-17.899,17.9
					s8.029,17.9,17.899,17.9s17.9-8.03,17.9-17.9S1216.679,1214.393,1206.809,1214.393z"/>
				<path style="fill:#363E44;" d="M1052.352,1297.877c-10.973,0-19.899-8.927-19.899-19.9s8.927-19.9,19.899-19.9
					s19.899,8.927,19.899,19.9S1063.324,1297.877,1052.352,1297.877z M1052.352,1260.078c-9.87,0-17.899,8.03-17.899,17.9
					s8.029,17.9,17.899,17.9s17.899-8.03,17.899-17.9S1062.222,1260.078,1052.352,1260.078z"/>
				<path style="fill:#363E44;" d="M833.555,1051.352c-10.973,0-19.899-8.927-19.899-19.9c0-10.973,8.927-19.9,19.899-19.9
					c10.973,0,19.9,8.927,19.9,19.9C853.455,1042.425,844.527,1051.352,833.555,1051.352z M833.555,1013.552
					c-9.87,0-17.899,8.03-17.899,17.9s8.029,17.9,17.899,17.9s17.9-8.03,17.9-17.9S843.425,1013.552,833.555,1013.552z"/>
				<path style="fill:#363E44;" d="M1631.128,1056.236c-10.973,0-19.9-8.927-19.9-19.9s8.928-19.9,19.9-19.9
					s19.899,8.927,19.899,19.9S1642.101,1056.236,1631.128,1056.236z M1631.128,1018.436c-9.87,0-17.9,8.03-17.9,17.9
					s8.03,17.9,17.9,17.9s17.899-8.03,17.899-17.9S1640.998,1018.436,1631.128,1018.436z"/>
				<path style="fill:#363E44;" d="M934.877,914.593c-10.973,0-19.9-8.927-19.9-19.9c0-10.973,8.927-19.9,19.9-19.9
					c10.973,0,19.9,8.927,19.9,19.9C954.777,905.666,945.85,914.593,934.877,914.593z M934.877,876.794c-9.87,0-17.9,8.03-17.9,17.9
					c0,9.87,8.029,17.9,17.9,17.9c9.87,0,17.9-8.03,17.9-17.9C952.777,884.823,944.747,876.794,934.877,876.794z"/>
			</g>
		</g>
		<g>
			<path style="fill:#E6D0BE;" d="M1613.442,1104.049H890.444c-15.005,41.128-23.197,85.534-23.197,131.855
				c0,212.462,338.405,539.033,647.069,539.033c164.703,0,122.322-326.572,122.322-539.033
				C1636.639,1189.583,1628.447,1145.177,1613.442,1104.049z"/>
			<polygon style="fill:#E6D0BE;" points="1388.406,1758.112 1388.406,1938.322 980.103,1938.322 980.103,1395.925 
				1388.406,1395.925 			"/>
			<path style="fill:#E6D0BE;" d="M1722.15,1437.3c22.714,48.891-117.117,61.404-117.117,61.404v-230.097
				C1605.033,1268.606,1700.519,1390.739,1722.15,1437.3z"/>
			<path style="fill:#363E44;" d="M1388.406,1759.119c-0.083,0-0.168-0.011-0.252-0.032
				c-92.245-23.881-186.939-72.351-273.847-140.17c-0.436-0.34-0.513-0.968-0.173-1.404c0.34-0.435,0.967-0.514,1.403-0.173
				c86.692,67.652,181.136,115.998,273.118,139.811c0.534,0.139,0.855,0.684,0.717,1.219
				C1389.257,1758.82,1388.851,1759.119,1388.406,1759.119z"/>
			<path style="fill:#363E44;" d="M1192.691,1521.352c-41.098,0-84.644-29.589-111.317-75.789
				c-17.531-30.365-25.455-63.867-22.312-94.335c3.156-30.588,17.08-54.469,39.208-67.244c32.7-18.881,77.749-9.393,114.763,24.168
				c0.409,0.371,0.439,1.003,0.069,1.413c-0.374,0.409-1.006,0.44-1.413,0.069c-36.357-32.967-80.485-42.354-112.419-23.917
				c-21.558,12.445-35.13,35.784-38.219,65.717c-3.101,30.052,4.732,63.126,22.055,93.129
				c26.319,45.587,69.19,74.789,109.582,74.789c0.486,0,0.968-0.004,1.453-0.013c0.517,0.019,1.008,0.431,1.018,0.982
				c0.01,0.552-0.431,1.008-0.982,1.018C1193.683,1521.347,1193.187,1521.352,1192.691,1521.352z"/>
			<path style="fill:#363E44;" d="M1176.108,1461.503c-21.516,0-44.296-15.461-58.234-39.604
				c-18.959-32.84-14.943-70.781,8.952-84.577c17.166-9.912,40.785-4.962,60.168,12.613c0.409,0.371,0.439,1.003,0.069,1.413
				c-0.372,0.409-1.006,0.439-1.413,0.069c-18.727-16.979-41.423-21.831-57.824-12.362c-22.94,13.245-26.628,49.96-8.22,81.845
				c13.585,23.531,35.688,38.604,56.498,38.604c0.25,0,0.498-0.002,0.747-0.007c0.549,0.01,1.008,0.431,1.018,0.982
				c0.01,0.552-0.431,1.008-0.982,1.018C1176.628,1461.5,1176.367,1461.503,1176.108,1461.503z"/>
			<path style="fill:#363E44;" d="M1467.028,1346.345c-27.351,0-60.918-5.447-98.028-23.026c-0.499-0.236-0.713-0.833-0.476-1.332
				c0.236-0.499,0.834-0.712,1.331-0.476c56.113,26.58,104.02,25.186,134.328,19.335c32.854-6.342,52.697-19.14,52.894-19.268
				c0.462-0.302,1.082-0.173,1.385,0.29c0.302,0.462,0.173,1.082-0.289,1.384c-0.199,0.13-20.303,13.111-53.513,19.539
				C1494.1,1344.835,1481.424,1346.345,1467.028,1346.345z"/>
			<path style="fill:#363E44;" d="M1516.913,1586.751c-15.452,0-34.085-4.568-53.982-19.307c-0.443-0.329-0.536-0.955-0.208-1.399
				c0.329-0.443,0.954-0.537,1.399-0.208c29.729,22.022,56.514,20.859,73.747,16.003c18.683-5.262,30.46-15.833,30.576-15.939
				c0.408-0.371,1.042-0.341,1.413,0.067c0.371,0.409,0.341,1.042-0.067,1.413c-0.491,0.447-12.247,10.996-31.379,16.385
				C1532.315,1585.483,1525.056,1586.751,1516.913,1586.751z"/>
			<g>
				<path style="fill:#F2E6DC;" d="M1381.134,1752.995c-0.548,0-0.995-0.441-1-0.991l-1.65-175.682
					c4.597-99.294-24.45-162.817-49.627-198.63c-27.24-38.748-55.866-54.242-56.152-54.394c-0.326-0.173-0.53-0.513-0.53-0.883
					v-219.042c0-0.552,0.447-1,1-1s1,0.448,1,1v218.456c4.077,2.329,30.855,18.492,56.318,54.713
					c16.143,22.961,28.626,49.387,37.104,78.542c10.591,36.417,14.926,77.22,12.886,121.275l1.651,175.626
					c0.005,0.552-0.438,1.004-0.99,1.009C1381.14,1752.995,1381.137,1752.995,1381.134,1752.995z"/>
				<path style="fill:#F2E6DC;" d="M1259.97,1125.486c0,2.715-2.201,4.916-4.916,4.916c-2.715,0-4.916-2.201-4.916-4.916
					c0-2.715,2.201-4.916,4.916-4.916C1257.77,1120.57,1259.97,1122.771,1259.97,1125.486z"/>
				<path style="fill:#F2E6DC;" d="M1259.97,1191.63c0,2.715-2.201,4.916-4.916,4.916c-2.715,0-4.916-2.201-4.916-4.916
					c0-2.715,2.201-4.915,4.916-4.915C1257.77,1186.715,1259.97,1188.916,1259.97,1191.63z"/>
				<path style="fill:#F2E6DC;" d="M1259.97,1257.775c0,2.715-2.201,4.916-4.916,4.916c-2.715,0-4.916-2.201-4.916-4.916
					s2.201-4.916,4.916-4.916C1257.77,1252.859,1259.97,1255.06,1259.97,1257.775z"/>
				<path style="fill:#F2E6DC;" d="M1259.97,1323.92c0,2.715-2.201,4.915-4.916,4.915c-2.715,0-4.916-2.201-4.916-4.915
					c0-2.715,2.201-4.916,4.916-4.916C1257.77,1319.004,1259.97,1321.205,1259.97,1323.92z"/>
				<path style="fill:#F2E6DC;" d="M1308.476,1374.63c0,2.715-2.201,4.916-4.916,4.916s-4.916-2.201-4.916-4.916
					c0-2.715,2.201-4.915,4.916-4.915S1308.476,1371.916,1308.476,1374.63z"/>
				<path style="fill:#F2E6DC;" d="M1343.753,1431.956c0,2.715-2.201,4.916-4.916,4.916s-4.916-2.201-4.916-4.916
					c0-2.715,2.201-4.915,4.916-4.915S1343.753,1429.241,1343.753,1431.956z"/>
				<circle style="fill:transparent;" cx="1358.681" cy="1498.1" r="4.916"/>
				<path style="fill:#F2E6DC;" d="M1368.006,1564.245c0,2.715-2.201,4.916-4.916,4.916c-2.715,0-4.916-2.201-4.916-4.916
					c0-2.715,2.201-4.916,4.916-4.916C1365.806,1559.329,1368.006,1561.53,1368.006,1564.245z"/>
				<path style="fill:#F2E6DC;" d="M1368.006,1630.389c0,2.715-2.201,4.916-4.916,4.916c-2.715,0-4.916-2.201-4.916-4.916
					c0-2.715,2.201-4.916,4.916-4.916C1365.806,1625.474,1368.006,1627.675,1368.006,1630.389z"/>
				<path style="fill:#F2E6DC;" d="M1368.006,1696.534c0,2.715-2.201,4.916-4.916,4.916c-2.715,0-4.916-2.201-4.916-4.916
					s2.201-4.916,4.916-4.916C1365.806,1691.618,1368.006,1693.819,1368.006,1696.534z"/>
			</g>
			<path style="fill:#F2E6DC;" d="M1273.199,1213.913H867.657c-0.553,0-1-0.448-1-1s0.447-1,1-1h405.542c0.553,0,1,0.448,1,1
				S1273.752,1213.913,1273.199,1213.913z"/>
			<path style="fill:#F2E6DC;" d="M1641.404,1496.13h-264.434c-0.553,0-1-0.448-1-1s0.447-1,1-1h264.434c0.553,0,1,0.448,1,1
				S1641.957,1496.13,1641.404,1496.13z"/>
			<path style="fill:#F2E6DC;" d="M1460.706,1398.852c-74.192,0-134.553-37.103-134.553-82.708s60.36-82.708,134.553-82.708
				s134.553,37.103,134.553,82.708S1534.898,1398.852,1460.706,1398.852z M1460.706,1235.436
				c-73.09,0-132.553,36.205-132.553,80.708s59.463,80.708,132.553,80.708s132.553-36.205,132.553-80.708
				S1533.796,1235.436,1460.706,1235.436z"/>
			<path style="fill:#E6D0BE;" d="M632.173,1924.906C794.96,2074.007,1011.851,2165,1250,2165s455.04-90.992,617.827-240.094
				H632.173z"/>
		</g>
		<g>
			<g>
				<path d="M827.06,1842.082H630.678c-0.553,0-1-0.448-1-1s0.447-1,1-1H827.06c0.553,0,1,0.448,1,1
					S827.613,1842.082,827.06,1842.082z"/>
				<path d="M809.422,1731.84H613.039c-0.553,0-1-0.448-1-1s0.447-1,1-1h196.383c0.553,0,1,0.448,1,1
					S809.975,1731.84,809.422,1731.84z"/>
				<path d="M791.784,1621.6H595.4c-0.553,0-1-0.448-1-1s0.447-1,1-1h196.384c0.553,0,1,0.448,1,1S792.337,1621.6,791.784,1621.6z"
					/>
				<path d="M774.146,1511.358H577.763c-0.553,0-1-0.448-1-1s0.447-1,1-1h196.383c0.553,0,1,0.448,1,1
					S774.698,1511.358,774.146,1511.358z"/>
				<path d="M756.507,1401.118H560.124c-0.553,0-1-0.448-1-1s0.447-1,1-1h196.383c0.553,0,1,0.448,1,1
					S757.06,1401.118,756.507,1401.118z"/>
				<path d="M738.868,1290.876H542.485c-0.553,0-1-0.448-1-1s0.447-1,1-1h196.383c0.553,0,1,0.448,1,1
					S739.421,1290.876,738.868,1290.876z"/>
				<path d="M644.06,1927.815c-0.481,0-0.905-0.348-0.986-0.838l-113.74-694.974l-113.74,694.974
					c-0.091,0.545-0.607,0.91-1.148,0.825c-0.546-0.089-0.915-0.604-0.826-1.148l114.728-701.004
					c0.079-0.483,0.497-0.838,0.987-0.838c0.49,0,0.908,0.355,0.987,0.838l114.728,701.004c0.089,0.545-0.28,1.059-0.826,1.148
					C644.167,1927.811,644.113,1927.815,644.06,1927.815z"/>
				<path d="M842.493,1927.815c-0.482,0-0.905-0.348-0.986-0.838l-114.727-701.004c-0.089-0.545,0.28-1.059,0.826-1.148
					c0.548-0.09,1.059,0.28,1.148,0.825l114.727,701.004c0.089,0.545-0.281,1.059-0.826,1.148
					C842.601,1927.811,842.547,1927.815,842.493,1927.815z"/>
			</g>
			<g>
				<path style="fill:#9E6C5A;" d="M501.864,863.542c-33.743,24.764-135.499,90.273-107.525,132.69
					c23.138,35.086,119.421-33.084,154.523-55.503C533.196,915,517.53,889.271,501.864,863.542z"/>
				<g>
					<path style="fill:#9E6C5A;" d="M754.505,955.585c44.093-2.086,171.712-0.316,171.865-53.903
						c0.126-44.324-124.236-40.565-168.154-41.332C756.979,892.094,755.742,923.839,754.505,955.585z"/>
					<g>
						<path style="fill:#9E6C5A;" d="M843.107,884.482c0,0,79.443-80.629,107.443-105.602
							c29.406-26.227,76.641-60.667,81.374-53.998c2.696,3.799-2.775,9.828-18.469,24.97c1.559,0.028,6.26,1.28,8.183,5.214
							c2.845,5.821-1.227,9.411-1.435,9.896c0.529-0.033,6.58-0.091,9.144,3.484c2.888,4.026,2.085,8.154,0.078,11.485
							c1.316-0.042,6.926,0.703,9.215,4.26c2.977,4.623,0.238,10.059-3.194,13.031c-6.297,5.451-23.873,19.916-32.191,28.754
							c-16.369,17.39-66.209,86.949-96.511,105.83C900.005,901.649,843.107,884.482,843.107,884.482z"/>
						<path style="fill:#363E44;" d="M979.882,811.12c-0.164,0-0.33-0.041-0.483-0.125c-0.483-0.267-0.658-0.876-0.391-1.359
							c4.084-7.376,4.331-14.243,4.528-19.76c0.208-5.79,0.372-10.362,5.167-12.002c2.992-1.023,6.112-3.783,9.022-7.981
							c0.747-1.076,0.484-2.218-0.01-2.927c-0.502-0.72-1.497-1.372-2.79-1.039l-24.801,6.404c-0.532,0.138-1.08-0.183-1.218-0.718
							c-0.139-0.535,0.183-1.08,0.718-1.218l24.801-6.404c1.88-0.485,3.816,0.234,4.931,1.832c1.104,1.584,1.109,3.629,0.014,5.21
							c-3.201,4.616-6.572,7.555-10.021,8.734c-3.337,1.141-3.603,4.276-3.814,10.181c-0.206,5.73-0.462,12.862-4.777,20.657
							C980.575,810.934,980.233,811.12,979.882,811.12z"/>
						<path style="fill:#363E44;" d="M1021.413,803.842c-0.278,0-0.557-0.116-0.754-0.343c-4.092-4.7-4.44-11.504-1.176-16.562
							l-1.759,1.138c-3.728,2.412-8.642,1.816-11.683-1.414c-1.714-1.819-2.599-4.196-2.492-6.693
							c0.107-2.497,1.19-4.79,3.053-6.456l2.502-2.239c-2.605,0.314-5.308-0.727-6.974-2.95c-2.306-3.075-1.935-7.381,0.863-10.017
							l6.828-6.432c0.402-0.378,1.035-0.36,1.413,0.042c0.379,0.402,0.36,1.035-0.042,1.414l-6.828,6.431
							c-2.056,1.937-2.329,5.102-0.635,7.362c1.799,2.398,5.24,2.926,7.675,1.175l5.251-3.777c0.433-0.312,1.032-0.228,1.363,0.186
							c0.333,0.414,0.284,1.017-0.112,1.371l-9.971,8.924c-1.457,1.304-2.306,3.098-2.389,5.051
							c-0.083,1.954,0.609,3.813,1.949,5.237c2.382,2.528,6.226,2.993,9.142,1.106l8.438-5.461c0.429-0.278,0.998-0.187,1.32,0.211
							c0.321,0.397,0.292,0.974-0.069,1.335l-3.612,3.62c-4.358,4.367-4.599,11.432-0.548,16.085
							c0.363,0.417,0.319,1.048-0.098,1.411C1021.88,803.761,1021.646,803.842,1021.413,803.842z"/>
					</g>
				</g>
				<path style="fill:#FFFFFF;" d="M573.918,838.633c17.001,0.171,24.446,0.549,103.796,5.028
					c121.887,6.88,139.621,13.678,169.489,3.963c22.292-7.251,55.579-22.894,90.413-61.55
					c18.783,20.549,37.565,41.099,56.348,61.648c-7.048,15.602-30.835,62.97-86.388,93.457
					c-57.731,31.683-112.676,24.781-129.227,22.065c10.052,66.05,79.85,350.252,89.902,416.302c0,0-303.773,0-478.002,0
					L525.167,997.89l-95.724-89.923c0,0,3.35-3.058,10.179-9.785C474.345,863.977,525.18,838.141,573.918,838.633z"/>
				<polygon style="fill:#E6D0BE;" points="509.801,1110.932 597.349,850.203 697.448,870.496 785.195,1157.369 				"/>
				<g>
					<g>
						<polygon style="fill:#363E44;" points="690.079,1059.808 587.945,1059.808 640.108,937.773 742.242,937.773 						"/>
						<path style="fill:#FFFFFF;" d="M658.004,952.498c0,2.952-2.393,5.346-5.346,5.346s-5.346-2.394-5.346-5.346
							c0-2.953,2.393-5.346,5.346-5.346S658.004,949.545,658.004,952.498z"/>
					</g>
				</g>
				<g>
					<path style="fill:#9E6C5A;" d="M451.728,942.343c34.374,7.548,116.204,21.316,124.138,22.979
						c14.832,3.107,93.997,21.847,92.532,33.564c-0.7,5.599-16.115,2.677-21.297,1.538c3.732,2.984,19.304,12.889,16.918,18.746
						c-2.803,6.882-23.167-2.08-23.571-2.02c4.097,2.645,20.844,12.522,19.226,16.983c-2.105,5.804-20.44,1.288-25.867-0.318
						c0.35,0.909,16.831,11.495,15.395,14.995c-1.591,3.878-18.789,0.076-25.742-0.797c-13.18-2.75-64.974-10.688-90.317-13.348
						c-59.522-6.246-85.761-11.67-114.008-19.752c-11.058-3.164-21.604-10.594-26.07-19.386c-5.653-11.13-2.756-22.173,8.388-27.8
						C418.214,959.263,434.837,950.921,451.728,942.343z"/>
					<g>
						<path style="fill:#363E44;" d="M647.398,1000.912c-0.18,0-0.362-0.049-0.526-0.151c-2.658-1.65-5.45-3.129-8.3-4.393
							c-5.121-2.274-10.541-3.917-16.109-4.882c-0.544-0.095-0.909-0.612-0.814-1.156c0.095-0.544,0.615-0.909,1.156-0.815
							c5.729,0.993,11.308,2.684,16.58,5.024c2.933,1.302,5.807,2.824,8.542,4.523c0.47,0.292,0.613,0.908,0.322,1.377
							C648.059,1000.745,647.731,1000.912,647.398,1000.912z"/>
						<path style="fill:#363E44;" d="M640.821,1017.831c-0.144,0-0.292-0.032-0.432-0.099c-0.591-0.284-1.197-0.564-1.817-0.839
							c-5.122-2.274-10.542-3.917-16.11-4.882c-0.544-0.095-0.909-0.612-0.814-1.156c0.095-0.544,0.615-0.907,1.156-0.814
							c5.729,0.993,11.308,2.684,16.58,5.025c0.639,0.284,1.263,0.572,1.871,0.865c0.498,0.239,0.708,0.837,0.469,1.335
							C641.552,1017.622,641.194,1017.831,640.821,1017.831z"/>
						<path style="fill:#363E44;" d="M633.481,1034.581c-0.108,0-0.218-0.018-0.326-0.055c-3.461-1.194-7.059-2.119-10.693-2.75
							c-0.544-0.094-0.909-0.612-0.814-1.156c0.095-0.544,0.615-0.908,1.156-0.814c3.739,0.649,7.442,1.601,11.004,2.83
							c0.522,0.18,0.799,0.75,0.619,1.271C634.284,1034.321,633.896,1034.581,633.481,1034.581z"/>
					</g>
				</g>
				<path style="fill:#FFFFFF;" d="M626.148,950.562c-0.07,0-0.142-0.008-0.214-0.023l-33.163-7.219
					c-0.539-0.117-0.882-0.65-0.765-1.19c0.118-0.54,0.646-0.883,1.191-0.764l33.163,7.219c0.539,0.117,0.882,0.65,0.765,1.19
					C627.023,950.243,626.608,950.562,626.148,950.562z"/>
				<path style="fill:#FFFFFF;" d="M637.572,932.807c-0.315,0-0.625-0.148-0.819-0.425l-24.435-34.799
					c-0.317-0.452-0.208-1.076,0.244-1.393c0.451-0.318,1.076-0.208,1.393,0.244l24.435,34.799c0.317,0.452,0.208,1.076-0.244,1.393
					C637.971,932.748,637.771,932.807,637.572,932.807z"/>
				<path style="fill:#FFFFFF;" d="M653.591,932.807c-0.014,0-0.027,0-0.04-0.001c-0.552-0.022-0.982-0.487-0.96-1.039l1.247-31.669
					c0.021-0.552,0.518-0.976,1.038-0.96c0.552,0.022,0.981,0.487,0.96,1.039l-1.247,31.669
					C654.567,932.385,654.125,932.807,653.591,932.807z"/>
				<g>
					<path style="fill:#FFFFFF;" d="M565.068,960.419l-16.207,82.461c0,0-151.134-12.202-158.612-46.448
						c-7.478-34.246,9.885-54.334,39.194-88.465C466.116,888.855,565.068,960.419,565.068,960.419z"/>
					<path style="fill:#363E44;" d="M554.024,959.35c-0.039,0-0.079-0.002-0.118-0.007c-27.067-3.207-90.874-14.255-102.394-16.784
						c-0.539-0.118-0.88-0.652-0.762-1.191c0.118-0.54,0.651-0.882,1.191-0.763c11.495,2.524,75.18,13.55,102.198,16.752
						c0.549,0.065,0.94,0.562,0.876,1.111C554.956,958.977,554.524,959.35,554.024,959.35z"/>
				</g>
			</g>
			<g>
				<polygon style="fill:#9E6C5A;" points="617.073,848.911 671.435,859.719 700.813,808.834 655.362,782.593 				"/>
				<path style="fill:#9E6C5A;" d="M597.349,850.203c-1.9,9.372,18.968,21.512,46.609,27.116c27.642,5.604,51.59,2.549,53.49-6.823
					c1.9-9.372-18.968-21.512-46.61-27.116C623.197,837.776,599.248,840.831,597.349,850.203z"/>
				<g>
					<path style="fill:#9E6C5A;" d="M723.571,816.593c-6.947,11.3-43.219,4.065-43.219,4.065l-30.391-26.805
						c-7.302-17.172,0.699-37.012,17.871-44.313c17.172-7.302,37.012,0.7,44.313,17.872
						C712.146,767.411,730.646,805.084,723.571,816.593z"/>
					<path style="fill:#9E6C5A;" d="M712.05,777.107c0,0,12.606,5.429,13.168,8.038c0.67,3.115-8.297,9.002-8.297,9.002
						S712.291,777.03,712.05,777.107z"/>
					<g>
						<path style="fill:#FFFFFF;" d="M683.424,787.707c0,0,4.015-5.013,10.29-7.681c1.335-0.568,3.359,11.187,1.835,11.12
							C688.846,790.856,683.424,787.707,683.424,787.707z"/>
						<g>
							<defs>
								<path id="SVGID_1_" d="M683.424,787.707c0,0,5.905-7.373,14.585-8.994c8.68-1.621,16.848,3.123,16.848,3.123
									s-5.905,7.373-14.585,8.994C691.593,792.452,683.424,787.707,683.424,787.707z"/>
							</defs>
							<clipPath id="SVGID_00000002368399442915879800000006158725306766626221_">
								<use xlink:href="#SVGID_1_"  style="overflow:visible;"/>
							</clipPath>
							<path style="clip-path:url(#SVGID_00000002368399442915879800000006158725306766626221_);fill:#363E44;" d="M693.863,779.639
								c2.385-5.915,9.114-8.776,15.029-6.391c5.915,2.385,8.776,9.114,6.39,15.029c-2.385,5.915-9.114,8.776-15.029,6.391
								C694.339,792.282,691.478,785.553,693.863,779.639z"/>
						</g>
					</g>
					<path style="fill:#363E44;" d="M709.66,804.181c-0.326,0-0.654-0.028-0.983-0.086c-2.135-0.374-3.908-1.967-4.517-4.059
						c-0.154-0.53,0.15-1.085,0.68-1.24c0.536-0.157,1.086,0.151,1.24,0.68c0.398,1.365,1.553,2.405,2.943,2.648
						c1.442,0.254,2.911-0.372,3.741-1.594c0.312-0.456,0.934-0.575,1.39-0.264c0.457,0.311,0.575,0.933,0.265,1.389
						C713.334,803.25,711.538,804.181,709.66,804.181z"/>
				</g>
				<path style="fill:#363E44;" d="M695.614,755.678c5.771-0.565,10.694-4.434,12.564-9.923c3.338-9.801,7.031-25.182,1.178-33.698
					c-1.115-1.621-2.207-2.538-3.871-3.253c-9.265-3.978-17.006,13.17-36.972,21.536c-19.24,8.061-33.619,1.174-40.453,11.88
					c-3.005,4.708-2.698,10.015-2.672,11.305c0.339,17.038,15.082,23.582,15.082,23.582s-10.01-3.449-12.764,10.299
					c-2.753,13.748,41.105,12.351,41.105,12.351l4.924-5.609l-6.075-13.681c-4.62-10.405,2.301-22.279,13.63-23.387L695.614,755.678
					z"/>
				<path style="fill:#9E6C5A;" d="M643.983,796.542c0,6.436,5.217,11.654,11.654,11.654c6.436,0,11.654-5.218,11.654-11.654
					c0-6.436-5.217-11.654-11.654-11.654C649.2,784.888,643.983,790.106,643.983,796.542z"/>
			</g>
			<g>
				<g>
					<path style="fill:#FFFFFF;" d="M999.101,1841.081c0,0-27.389-74.871-128.091-119.482h-56.47c0,0-31.485,53.483-27.18,119.482
						H999.101z"/>
					<path style="fill:#9E6C5A;" d="M798.994,1666.774l12.442,61.336c2.369,11.68,11.776,20.618,23.554,22.435
						c0.358,0.055,0.719,0.109,1.082,0.161c18.995,2.73,35.038-14.115,31.749-33.021l-8.286-47.621L798.994,1666.774z"/>
					<path d="M868.252,1767.542c-0.301,0-0.599-0.135-0.795-0.393c-0.336-0.438-0.252-1.066,0.187-1.402l25.292-19.351
						c0.438-0.335,1.067-0.251,1.401,0.187c0.336,0.438,0.252,1.066-0.187,1.402l-25.292,19.351
						C868.678,1767.475,868.464,1767.542,868.252,1767.542z"/>
					<path d="M882.188,1777.217c-0.301,0-0.599-0.135-0.795-0.393c-0.336-0.438-0.252-1.066,0.187-1.402l25.292-19.351
						c0.438-0.335,1.066-0.251,1.401,0.187c0.336,0.438,0.252,1.066-0.187,1.402l-25.292,19.351
						C882.613,1777.15,882.399,1777.217,882.188,1777.217z"/>
				</g>
				<g>
					<path style="fill:#FFFFFF;" d="M583.497,1640.244l119.082-149.06c0,0-41.375-53.152-75.084-48.605l-33.857,31.343
						C593.639,1473.922,531.59,1585.277,583.497,1640.244z"/>
					<path style="fill:#9E6C5A;" d="M539.875,1450.572l57.965,36.168c11.378,7.1,26.125,5.57,35.804-3.714
						c11.542-11.07,12.078-29.349,1.206-41.078l-33.482-36.117L539.875,1450.572z"/>
					<path d="M589.71,1518.423c-0.062,0-0.123-0.005-0.186-0.017l-15.511-2.92c-0.543-0.103-0.9-0.625-0.798-1.168
						c0.103-0.542,0.628-0.899,1.167-0.798l15.511,2.92c0.543,0.103,0.9,0.625,0.798,1.168
						C590.602,1518.088,590.182,1518.423,589.71,1518.423z"/>
					<path d="M584.218,1532.737c0,0-13.292-2.56-15.311-2.945c-0.542-0.104-0.898-0.627-0.795-1.17
						c0.103-0.542,0.628-0.896,1.17-0.795c2.019,0.385,15.315,2.946,15.315,2.946L584.218,1532.737z"/>
				</g>
				<path style="fill:#ff6900;" d="M509.801,1110.932c-30.183,35.683-63.425,82.085-86.727,134.73
					c-16.487,37.248-13.251,80.324,8.326,114.872c24.358,38.999,62.854,91.132,113.622,130.144l95.001-84.846l-72.92-81.091
					l65.875-96.359c0,0,62.141,219.274,139.24,447.713h112.049c0,0-31.287-245.189-99.073-518.726
					C735.766,1148.86,616.191,1128.374,509.801,1110.932z"/>
				<path d="M546.285,1357.553c-0.188,0-0.378-0.053-0.547-0.164c-0.462-0.302-0.591-0.922-0.289-1.384l18.192-27.779
					c0.303-0.461,0.923-0.592,1.385-0.289c0.462,0.302,0.591,0.922,0.289,1.384l-18.192,27.779
					C546.931,1357.394,546.611,1357.553,546.285,1357.553z"/>
				<path d="M632.979,1229.382c-0.15,0-0.304-0.034-0.447-0.106c-0.494-0.248-0.693-0.849-0.445-1.342l21.858-43.56
					c0.19-0.379,0.602-0.596,1.021-0.543l14.583,1.871c0.548,0.07,0.936,0.571,0.865,1.119c-0.07,0.548-0.568,0.935-1.119,0.865
					l-13.88-1.781l-21.54,42.927C633.698,1229.18,633.345,1229.382,632.979,1229.382z"/>
			</g>
		</g>
		<g>
			<g>
				<polygon style="fill:#84524D;" points="1771.197,1808.368 1775.348,1887.238 1843.985,1884.125 1842.947,1811.482 				"/>
				<polygon style="fill:#84524D;" points="1948.655,1805.184 1953.16,1884.053 2020.736,1880.94 2019.61,1808.296 				"/>
				<path style="fill:#EFBC73;" d="M1973.04,1298.192c22.944,23.761,53.167,61.55,71.453,114.324
					c18.3,52.814,16.2,96.259,8.574,188.637c-7.224,87.513-15.12,166.999-22.865,237.224c-32.868-1.429-60.021-1.429-92.889-2.858
					c-9.527-115.754-10.48-230.08-20.007-345.833c-10.956,51.446-36.203,100.034-47.159,151.48
					c-2.858,63.832-14.291,129.092-17.149,192.924c-34.298,0-60.021-1.428-94.318-1.428c-9.877-62.29-16.97-150.501-2.858-254.373
					c15.563-114.553,51.014-204.698,80.027-264.377C1881.58,1308.671,1927.31,1303.432,1973.04,1298.192z"/>
				<path style="fill:#ff6900;" d="M2037.102,1925.289l-16.234-50.348h-70.357l-33.734,6.882
					c-24.479,4.953-40.989,25.4-40.763,43.466H2037.102z"/>
				<path style="fill:#ff6900;" d="M1860.314,1925.289l-16.234-50.348h-70.357l-33.734,6.882
					c-24.479,4.953-40.989,25.4-40.763,43.466H1860.314z"/>
				<path style="fill:#363E44;" d="M1857.476,1916.258h-156.99c-0.553,0-1-0.448-1-1s0.447-1,1-1h156.99c0.553,0,1,0.448,1,1
					S1858.028,1916.258,1857.476,1916.258z"/>
				<path style="fill:#363E44;" d="M2034.264,1916.258h-156.991c-0.553,0-1-0.448-1-1s0.447-1,1-1h156.991c0.553,0,1,0.448,1,1
					S2034.816,1916.258,2034.264,1916.258z"/>
			</g>
			<g>
				<path style="fill:#363E44;" d="M1846.435,991.129c13.75-10.377,29.339-1.838,33.208,2.855
					c12.194,14.788,11.342,29.134,24.387,41.51c10.118,9.599,27.241,9.081,37.878,24.128c13.234,18.722,0.218,41.151,14.702,60.017
					c7.48,9.743,27.397,18.265,36.408,19.631c-54.656,14.009-149.005,41.252-203.661,55.261
					c-30.08-7.242-19.384-25.949-20.236-32.171c-1.795-13.105,19.305-21.188,18.68-37.878
					c-0.588-15.684-15.416-14.303-16.085-33.727c-1.038-30.096,14.513-33.941,21.015-53.445
					c4.411-13.231,0.778-29.317,10.896-41.511C1809.099,989.206,1826.199,977.899,1846.435,991.129z"/>
				<g>
					<path style="fill:#FFFFFF;" d="M1974.069,1109.652c41.221,8.186,161.629,24.53,154.21,75.006
						c-6.136,41.751-122.697,20.661-164.157,15.186C1967.438,1169.779,1970.754,1139.715,1974.069,1109.652z"/>
					<path style="fill:#FFFFFF;" d="M1719.389,1167.285c-76.122,45.827-111.455,80.359-91.755,107.755
						c11.427,15.893,63.738,7.568,125.716-25.41C1742.733,1223.637,1732.932,1198.45,1719.389,1167.285z"/>
					<g>
						<path style="fill:#84524D;" d="M1705.274,1241.632c0.002-0.001,0.002-0.004,0.001-0.006
							c-40.134-69.683-67.272-119.891-76.26-135.062c-0.941-1.589-2.589-4.4-5.642-7.337c-11.311-10.883-23.775-6.05-40.891-12.067
							c-19.42-6.827-26.49-21.666-31.019-18.996c-3.15,1.857-2.059,8.205,4.701,19.29c0.001,0.001-0.001,0.002-0.002,0.001
							c-6.104-7.831-14.845-18.09-19.163-14.704c-4.776,4.176,4.078,17.435,9.827,25.195c-6.958-9.392-13.468-12.304-15.405-9.817
							c-3.049,3.916,0.651,12.455,10.329,24.511c0,0,0,0.001-0.001,0.001c-9.008-6.458-12.156-6.682-13.332-4.065
							c-2.147,4.777,5.996,14.539,14.518,22.065c9.593,8.473,19.973,11.716,26.566,13.605c0.002,0,0.003,0.002,0.004,0.004
							c23.049,51.719,37.803,85.008,55.568,127.156c3.635,8.623,13.878,12.282,22.157,7.921
							C1669.614,1267.535,1682.005,1260.497,1705.274,1241.632z"/>
						<path style="fill:#363E44;" d="M1704.821,1241.837c-0.346,0-0.683-0.18-0.867-0.501c-8.844-15.36-17.595-30.706-26.754-46.914
							c-0.271-0.481-0.102-1.091,0.379-1.363c0.479-0.272,1.091-0.103,1.363,0.379c9.155,16.204,17.903,31.545,26.744,46.9
							c0.276,0.479,0.111,1.09-0.367,1.366C1705.162,1241.794,1704.99,1241.837,1704.821,1241.837z"/>
						<path style="fill:#84524D;" d="M1596.894,1096.34c-9.016-18.264-8.398-26.762-5.458-28.099
							c4.944-2.248,19.024,10.194,35.564,35.227C1618.435,1102.234,1605.46,1097.574,1596.894,1096.34z"/>
						<path style="fill:#363E44;" d="M1599.19,1131.193c-0.369,0-0.725-0.205-0.898-0.559c-1.536-3.123-4.484-7.501-9.809-10.625
							c-7.534-4.421-15.156-3.47-18.088-2.856c-0.54,0.113-1.07-0.233-1.184-0.773c-0.113-0.541,0.232-1.071,0.773-1.184
							c3.155-0.662,11.373-1.686,19.51,3.089c5.753,3.376,8.935,8.099,10.592,11.468c0.243,0.496,0.039,1.095-0.456,1.339
							C1599.489,1131.159,1599.339,1131.193,1599.19,1131.193z"/>
						<path style="fill:#363E44;" d="M1614.296,1095.187c-0.115,0-0.231-0.02-0.346-0.062c-4.063-1.495-8.489-1.998-13.174-2.531
							c-2.247-0.256-4.572-0.52-7.009-0.904c-0.545-0.086-0.918-0.598-0.831-1.144c0.086-0.546,0.596-0.918,1.144-0.832
							c2.394,0.378,4.696,0.639,6.923,0.893c4.808,0.547,9.349,1.063,13.639,2.641c0.518,0.191,0.783,0.765,0.593,1.284
							C1615.086,1094.937,1614.703,1095.187,1614.296,1095.187z"/>
						<path style="fill:#363E44;" d="M1571.617,1098.689c-0.123,0-0.248-0.023-0.369-0.071c-2.361-0.938-4.645-2.1-6.787-3.452
							c-3.105-1.961-5.946-4.339-8.443-7.068c-0.372-0.407-0.344-1.04,0.063-1.413c0.406-0.373,1.04-0.345,1.413,0.063
							c2.376,2.598,5.079,4.861,8.035,6.727c2.037,1.287,4.21,2.392,6.457,3.284c0.514,0.204,0.764,0.785,0.561,1.299
							C1572.391,1098.45,1572.015,1098.689,1571.617,1098.689z"/>
						<path style="fill:#363E44;" d="M1561.423,1107.931c-0.123,0-0.248-0.023-0.369-0.071c-2.36-0.938-4.644-2.099-6.787-3.452
							c-3.109-1.964-5.95-4.342-8.443-7.069c-0.372-0.408-0.344-1.04,0.063-1.413c0.408-0.372,1.039-0.345,1.413,0.063
							c2.372,2.596,5.076,4.859,8.035,6.727c2.038,1.287,4.211,2.392,6.457,3.284c0.514,0.204,0.764,0.785,0.561,1.299
							C1562.196,1107.692,1561.82,1107.931,1561.423,1107.931z"/>
						<path style="fill:#363E44;" d="M1556.886,1124.045c-0.123,0-0.248-0.023-0.369-0.071c-2.36-0.938-4.644-2.099-6.787-3.452
							c-3.106-1.962-5.947-4.34-8.443-7.069c-0.372-0.407-0.344-1.04,0.063-1.413c0.405-0.372,1.039-0.345,1.413,0.063
							c2.375,2.597,5.079,4.861,8.035,6.727c2.038,1.287,4.211,2.392,6.457,3.284c0.514,0.204,0.764,0.785,0.561,1.299
							C1557.659,1123.806,1557.283,1124.045,1556.886,1124.045z"/>
						<path style="fill:#FFFFFF;" d="M1653.238,1134.514c-8.231-0.666-69.184,35.63-78.524,42.203
							c-4.499,3.166,32.304,80.061,41.165,90.631c18.351,21.892,46.41,15.291,53.964,13.837c33.84-6.515,50.924-38.83,55.348-45.661
							c-13.019-9.329-30.483-24.509-43.586-47.737C1666.214,1160.506,1664.334,1135.412,1653.238,1134.514z"/>
						<path style="fill:#363E44;" d="M1717.739,1230.873c-0.22,0-0.44-0.072-0.625-0.22c-14.525-11.667-26.396-25.28-35.282-40.461
							c-0.278-0.477-0.118-1.089,0.358-1.368c0.475-0.28,1.088-0.119,1.368,0.358c8.762,14.969,20.473,28.398,34.808,39.912
							c0.431,0.346,0.5,0.975,0.153,1.406C1718.322,1230.745,1718.032,1230.873,1717.739,1230.873z"/>
					</g>
				</g>
				<path style="fill:#FFFFFF;" d="M1706.856,1175.333c25.944-15.566,84.578-55.001,147.362-66.417
					c63.874-11.614,108.73-1.975,141.136,4.67c-13.491,70.049-13.084,81.906-8.302,107.409c6.227,33.208,26.74,55.104,45.662,86.134
					c54.147,88.796,96.851,303.569,96.851,303.569l-404.375,7.651l75.674-272.948c0,0-13.799-53.095-48.347-95.35
					C1735.253,1228.937,1726.113,1179.54,1706.856,1175.333z"/>
			</g>
			<g>
				<g>
					<g>
						<path style="fill:#84524D;" d="M1838.048,999.319c-1.916,0.099-20.252,1.325-29.311,15.342
							c-6.741,10.43-5.947,22.406-1.579,42.291c5.144,23.417,11.491,36.696,18.999,40.348c11.863,5.769,41.639-15.552,50.675-38.021
							c6.523-16.219,2.654-35.273-8.801-48.64C1856.608,997.309,1839.271,999.256,1838.048,999.319z"/>
						<path style="fill:#84524D;" d="M1866.518,1132.126c-9.6,1.435-18.547-5.184-19.982-14.784l-9.65-64.548
							c-1.435-9.6,5.184-18.547,14.784-19.982c9.6-1.435,18.547,5.184,19.982,14.784l9.65,64.548
							C1882.738,1121.745,1876.119,1130.691,1866.518,1132.126z"/>
						<path style="fill:#363E44;" d="M1843.229,1096.483c-0.368,0-0.722-0.203-0.896-0.555c-0.246-0.494-0.045-1.095,0.45-1.341
							c6.197-3.084,12.806-7.986,18.607-13.802c0.391-0.392,1.023-0.391,1.414-0.002c0.392,0.39,0.392,1.023,0.002,1.414
							c-5.951,5.966-12.745,11.002-19.133,14.18C1843.53,1096.449,1843.378,1096.483,1843.229,1096.483z"/>
						<g>
							<path style="fill:#FFFFFF;" d="M1808.74,1046.698c-7.114-1.378-13.6,0.566-13.6,0.566s2.963,6.288,8.895,10.67
								C1805.292,1058.863,1810.361,1047.013,1808.74,1046.698z"/>
							<path style="fill:#363E44;" d="M1808.205,1060.385c8.714,3.887,18.491,0.956,18.491,0.956s-4.351-9.233-13.064-13.12
								c-1.617-0.721-3.27-1.207-4.891-1.521c-3.312,2.594-5.209,6.789-4.702,11.232
								C1805.294,1058.86,1806.682,1059.705,1808.205,1060.385z"/>
						</g>
					</g>
				</g>
				<path style="fill:#363E44;" d="M1931.552,1154.519c-2.132-4.458-4.175-9.889-5.469-16.286c-2.88-14.244-0.62-25.99,1.038-32.171
					c-0.389,5.341-1.029,23.397,11.415,38.787c1.685,2.084,3.439,3.893,5.186,5.486c14.003-4.815,26.984-9.293,36.757-12.707
					c-31.133-14.183-30.441-28.885-31.825-46.007c-1.658-20.524-33.778-16.728-48.774-34.593
					c-18.486-22.022-7.557-37.944-25.944-52.408c-12.584-9.898-31.282-13.122-46.181-9.34c-3.105,0.789-7.03,1.821-11.243,4.671
					c-16.759,11.335-15.77,36.336-15.566,40.126c0.159-2.548,1.067-12.321,8.994-19.372c3.207-2.853,6.557-4.364,8.994-5.189
					c7.558,1.255,18.23,4.226,22.312,12.454c6.816,13.739-12.328,26.844-9.34,47.217c2.839,19.35,22.082,20.985,33.208,43.068
					c5.456,10.828,10.151,28.939,1.556,58.634C1882.824,1171.245,1907.736,1162.7,1931.552,1154.519z"/>
				<path style="fill:#363E44;" d="M1825.812,1070.827c-0.177,0-0.355-0.047-0.518-0.145c-1.943-1.178-2.986-2.525-3.1-4.003
					c-0.112-1.463,0.714-2.533,1.316-3.314c0.099-0.128,0.194-0.251,0.28-0.37c0.936-1.299,1.359-3.088,1.262-5.318
					c-0.024-0.552,0.403-1.019,0.955-1.043c0.56-0.021,1.02,0.404,1.043,0.955c0.118,2.691-0.433,4.903-1.637,6.574
					c-0.098,0.136-0.207,0.277-0.319,0.424c-0.472,0.611-0.96,1.243-0.906,1.939c0.061,0.787,0.801,1.633,2.143,2.445
					c0.472,0.286,0.623,0.901,0.337,1.374C1826.479,1070.656,1826.149,1070.827,1825.812,1070.827z"/>
			</g>
			<g>
				<polygon style="fill:#D3BBA3;" points="1856.116,1205.383 1933.604,1334.399 1926.035,1338.945 1928.345,1399.078 
					1980.343,1429.367 1992.712,1421.938 1961.361,1369.74 1986.311,1354.755 2017.662,1406.953 2030.031,1399.524 
					2027.72,1339.391 1975.723,1309.102 1968.152,1313.649 1890.663,1184.633 1898.234,1180.086 1895.923,1119.953 
					1843.925,1089.664 1831.556,1097.093 1862.907,1149.291 1837.957,1164.276 1806.606,1112.078 1794.237,1119.507 
					1796.548,1179.64 1848.546,1209.929 				"/>
				<g>
					<path style="fill:#84524D;" d="M2061.132,1146.15c-33.014,12.599-112.23,38.42-119.862,41.249
						c-14.268,5.288-90.099,35.651-86.905,47.068c1.527,5.456,16.4,0.266,21.377-1.634c-3.263,3.517-17.257,15.665-14.017,21.127
						c3.805,6.418,22.696-5.505,23.107-5.505c-3.676,3.235-18.84,15.53-16.571,19.719c2.952,5.451,20.49-1.755,25.64-4.156
						c-0.213,0.955-15.008,13.914-13.061,17.176c2.156,3.614,18.67-2.714,25.444-4.613c12.68-4.688,62.935-20.261,87.707-26.664
						c58.18-15.039,83.431-24.322,110.282-36.541c10.511-4.783,19.881-13.728,23.01-23.122c3.961-11.892-0.555-22.427-12.457-26.361
						C2096.925,1157.976,2079.179,1152.161,2061.132,1146.15z"/>
					<path style="fill:#FFFFFF;" d="M1957.648,1174.641c-0.307,8.158,13.128,11.766,24.214,27.674
						c13.794,19.792,13.812,44.073,11.069,62.958c2.84,1.341,83.276-24.844,99.626-34.593c3.575-2.131,40.938-30.219,36.667-54.828
						c-3.437-19.803-30.335-37.053-80.254-34.42C1975.537,1153.657,1957.993,1165.483,1957.648,1174.641z"/>
					<path style="fill:#363E44;" d="M1875.371,1233.369c-0.284,0-0.565-0.12-0.763-0.353c-0.358-0.421-0.307-1.052,0.114-1.41
						c2.464-2.093,5.092-4.03,7.812-5.759c4.888-3.107,10.176-5.614,15.719-7.451c0.522-0.175,1.09,0.11,1.264,0.635
						c0.174,0.524-0.11,1.09-0.635,1.264c-5.387,1.785-10.526,4.221-15.275,7.24c-2.642,1.679-5.195,3.562-7.589,5.595
						C1875.829,1233.291,1875.6,1233.369,1875.371,1233.369z"/>
					<path style="fill:#363E44;" d="M1884.413,1249.194c-0.32,0-0.636-0.154-0.829-0.439c-0.31-0.457-0.189-1.079,0.268-1.389
						c0.562-0.38,1.138-0.759,1.73-1.136c4.887-3.106,10.175-5.613,15.718-7.45c0.524-0.175,1.09,0.11,1.264,0.635
						c0.174,0.524-0.11,1.09-0.635,1.264c-5.387,1.785-10.525,4.221-15.274,7.24c-0.575,0.366-1.136,0.734-1.682,1.104
						C1884.801,1249.138,1884.606,1249.194,1884.413,1249.194z"/>
					<path style="fill:#363E44;" d="M1894.19,1264.737c-0.361,0-0.709-0.196-0.888-0.538c-0.255-0.49-0.065-1.094,0.425-1.349
						c3.356-1.75,6.892-3.245,10.507-4.443c0.523-0.174,1.091,0.11,1.264,0.635c0.174,0.524-0.11,1.09-0.635,1.264
						c-3.514,1.165-6.949,2.617-10.212,4.318C1894.504,1264.701,1894.346,1264.737,1894.19,1264.737z"/>
				</g>
			</g>
		</g>
		<g>
			<polygon style="fill:#EFBC73;" points="801.017,608.623 1056.31,608.623 1160.046,738.186 1152.319,608.623 1201.061,608.623 
				1201.061,350.566 801.017,350.566 			"/>
			<path style="fill:#363E44;" d="M1137.998,739.186c-0.297,0-0.587-0.133-0.78-0.375l-103.437-129.188H778.969
				c-0.553,0-1-0.448-1-1V350.566c0-0.552,0.447-1,1-1h400.044c0.553,0,1,0.448,1,1v258.057c0,0.552-0.447,1-1,1h-47.681
				l7.664,128.504c0.026,0.435-0.232,0.836-0.639,0.993C1138.24,739.164,1138.118,739.186,1137.998,739.186z M779.969,607.623
				h254.293c0.304,0,0.591,0.138,0.78,0.375l101.771,127.108l-7.54-126.423c-0.017-0.275,0.081-0.545,0.271-0.745
				c0.188-0.201,0.452-0.314,0.728-0.314h47.742V351.566H779.969V607.623z"/>
			<g>
				<path style="fill:#363E44;" d="M845.336,425.005c-7.995,0-14.259-11.645-14.259-26.511c0-14.866,6.264-26.511,14.259-26.511
					c7.995,0,14.259,11.645,14.259,26.511C859.595,413.36,853.331,425.005,845.336,425.005z M845.336,373.983
					c-6.644,0-12.259,11.225-12.259,24.511c0,13.286,5.614,24.511,12.259,24.511c6.645,0,12.259-11.225,12.259-24.511
					C857.595,385.208,851.981,373.983,845.336,373.983z"/>
				<path style="fill:#363E44;" d="M927.762,425.005c-7.995,0-14.258-11.645-14.258-26.511c0-14.866,6.263-26.511,14.258-26.511
					c7.995,0,14.259,11.645,14.259,26.511C942.021,413.36,935.757,425.005,927.762,425.005z M927.762,373.983
					c-6.645,0-12.258,11.225-12.258,24.511c0,13.286,5.613,24.511,12.258,24.511c6.645,0,12.259-11.225,12.259-24.511
					C940.021,385.208,934.406,373.983,927.762,373.983z"/>
				<path style="fill:#363E44;" d="M968.976,425.005c-7.995,0-14.259-11.645-14.259-26.511c0-14.866,6.264-26.511,14.259-26.511
					c7.995,0,14.258,11.645,14.258,26.511C983.233,413.36,976.971,425.005,968.976,425.005z M968.976,373.983
					c-6.644,0-12.259,11.225-12.259,24.511c0,13.286,5.614,24.511,12.259,24.511c6.645,0,12.258-11.225,12.258-24.511
					C981.233,385.208,975.62,373.983,968.976,373.983z"/>
				<path style="fill:#363E44;" d="M1010.188,425.005c-7.995,0-14.259-11.645-14.259-26.511c0-14.866,6.264-26.511,14.259-26.511
					c7.995,0,14.258,11.645,14.258,26.511C1024.446,413.36,1018.184,425.005,1010.188,425.005z M1010.188,373.983
					c-6.645,0-12.259,11.225-12.259,24.511c0,13.286,5.614,24.511,12.259,24.511c6.645,0,12.258-11.225,12.258-24.511
					C1022.446,385.208,1016.833,373.983,1010.188,373.983z"/>
				<path style="fill:#363E44;" d="M1051.401,425.005c-7.995,0-14.259-11.645-14.259-26.511c0-14.866,6.264-26.511,14.259-26.511
					s14.259,11.645,14.259,26.511C1065.66,413.36,1059.396,425.005,1051.401,425.005z M1051.401,373.983
					c-6.645,0-12.259,11.225-12.259,24.511c0,13.286,5.614,24.511,12.259,24.511s12.259-11.225,12.259-24.511
					C1063.66,385.208,1058.046,373.983,1051.401,373.983z"/>
				<path style="fill:#363E44;" d="M1092.614,425.005c-7.995,0-14.259-11.645-14.259-26.511c0-14.866,6.264-26.511,14.259-26.511
					s14.259,11.645,14.259,26.511C1106.873,413.36,1100.609,425.005,1092.614,425.005z M1092.614,373.983
					c-6.645,0-12.259,11.225-12.259,24.511c0,13.286,5.614,24.511,12.259,24.511s12.259-11.225,12.259-24.511
					C1104.873,385.208,1099.259,373.983,1092.614,373.983z"/>
				<path style="fill:#363E44;" d="M845.336,505.371c-7.995,0-14.259-11.645-14.259-26.511c0-14.866,6.264-26.511,14.259-26.511
					c7.995,0,14.259,11.645,14.259,26.511C859.595,493.726,853.331,505.371,845.336,505.371z M845.336,454.348
					c-6.644,0-12.259,11.225-12.259,24.511c0,13.286,5.614,24.511,12.259,24.511c6.645,0,12.259-11.225,12.259-24.511
					C857.595,465.573,851.981,454.348,845.336,454.348z"/>
				<path style="fill:#363E44;" d="M886.549,505.371c-7.995,0-14.258-11.645-14.258-26.511c0-14.866,6.263-26.511,14.258-26.511
					c7.995,0,14.259,11.645,14.259,26.511C900.808,493.726,894.544,505.371,886.549,505.371z M886.549,454.348
					c-6.645,0-12.258,11.225-12.258,24.511c0,13.286,5.613,24.511,12.258,24.511c6.645,0,12.259-11.225,12.259-24.511
					C898.808,465.573,893.193,454.348,886.549,454.348z"/>
				<path style="fill:#363E44;" d="M927.762,505.371c-7.995,0-14.258-11.645-14.258-26.511c0-14.866,6.263-26.511,14.258-26.511
					c7.995,0,14.259,11.645,14.259,26.511C942.021,493.726,935.757,505.371,927.762,505.371z M927.762,454.348
					c-6.645,0-12.258,11.225-12.258,24.511c0,13.286,5.613,24.511,12.258,24.511c6.645,0,12.259-11.225,12.259-24.511
					C940.021,465.573,934.406,454.348,927.762,454.348z"/>
				<path style="fill:#363E44;" d="M1010.188,505.371c-7.995,0-14.259-11.645-14.259-26.511c0-14.866,6.264-26.511,14.259-26.511
					c7.995,0,14.258,11.645,14.258,26.511C1024.446,493.726,1018.184,505.371,1010.188,505.371z M1010.188,454.348
					c-6.645,0-12.259,11.225-12.259,24.511c0,13.286,5.614,24.511,12.259,24.511c6.645,0,12.258-11.225,12.258-24.511
					C1022.446,465.573,1016.833,454.348,1010.188,454.348z"/>
				<path style="fill:#363E44;" d="M1092.614,505.371c-7.995,0-14.259-11.645-14.259-26.511c0-14.866,6.264-26.511,14.259-26.511
					s14.259,11.645,14.259,26.511C1106.873,493.726,1100.609,505.371,1092.614,505.371z M1092.614,454.348
					c-6.645,0-12.259,11.225-12.259,24.511c0,13.286,5.614,24.511,12.259,24.511s12.259-11.225,12.259-24.511
					C1104.873,465.573,1099.259,454.348,1092.614,454.348z"/>
				<path style="fill:#363E44;" d="M845.336,585.736c-7.995,0-14.259-11.645-14.259-26.511c0-14.866,6.264-26.511,14.259-26.511
					c7.995,0,14.259,11.645,14.259,26.511C859.595,574.091,853.331,585.736,845.336,585.736z M845.336,534.714
					c-6.644,0-12.259,11.225-12.259,24.511c0,13.286,5.614,24.511,12.259,24.511c6.645,0,12.259-11.225,12.259-24.511
					C857.595,545.939,851.981,534.714,845.336,534.714z"/>
				<path style="fill:#363E44;" d="M886.549,585.736c-7.995,0-14.258-11.645-14.258-26.511c0-14.866,6.263-26.511,14.258-26.511
					c7.995,0,14.259,11.645,14.259,26.511C900.808,574.091,894.544,585.736,886.549,585.736z M886.549,534.714
					c-6.645,0-12.258,11.225-12.258,24.511c0,13.286,5.613,24.511,12.258,24.511c6.645,0,12.259-11.225,12.259-24.511
					C898.808,545.939,893.193,534.714,886.549,534.714z"/>
				<path style="fill:#363E44;" d="M968.976,585.736c-7.995,0-14.259-11.645-14.259-26.511c0-14.866,6.264-26.511,14.259-26.511
					c7.995,0,14.258,11.645,14.258,26.511C983.233,574.091,976.971,585.736,968.976,585.736z M968.976,534.714
					c-6.644,0-12.259,11.225-12.259,24.511c0,13.286,5.614,24.511,12.259,24.511c6.645,0,12.258-11.225,12.258-24.511
					C981.233,545.939,975.62,534.714,968.976,534.714z"/>
				<path style="fill:#363E44;" d="M1010.188,585.736c-7.995,0-14.259-11.645-14.259-26.511c0-14.866,6.264-26.511,14.259-26.511
					c7.995,0,14.258,11.645,14.258,26.511C1024.446,574.091,1018.184,585.736,1010.188,585.736z M1010.188,534.714
					c-6.645,0-12.259,11.225-12.259,24.511c0,13.286,5.614,24.511,12.259,24.511c6.645,0,12.258-11.225,12.258-24.511
					C1022.446,545.939,1016.833,534.714,1010.188,534.714z"/>
				<path style="fill:#363E44;" d="M1051.401,585.736c-7.995,0-14.259-11.645-14.259-26.511c0-14.866,6.264-26.511,14.259-26.511
					s14.259,11.645,14.259,26.511C1065.66,574.091,1059.396,585.736,1051.401,585.736z M1051.401,534.714
					c-6.645,0-12.259,11.225-12.259,24.511c0,13.286,5.614,24.511,12.259,24.511s12.259-11.225,12.259-24.511
					C1063.66,545.939,1058.046,534.714,1051.401,534.714z"/>
				<path style="fill:#363E44;" d="M1092.614,585.736c-7.995,0-14.259-11.645-14.259-26.511c0-14.866,6.264-26.511,14.259-26.511
					s14.259,11.645,14.259,26.511C1106.873,574.091,1100.609,585.736,1092.614,585.736z M1092.614,534.714
					c-6.645,0-12.259,11.225-12.259,24.511c0,13.286,5.614,24.511,12.259,24.511s12.259-11.225,12.259-24.511
					C1104.873,545.939,1099.259,534.714,1092.614,534.714z"/>
				<g>
					<path style="fill:#363E44;" d="M886.549,422.944c-0.553,0-1-0.448-1-1v-48.961c0-0.552,0.447-1,1-1c0.553,0,1,0.448,1,1v48.961
						C887.549,422.497,887.102,422.944,886.549,422.944z"/>
					<path style="fill:#363E44;" d="M897.636,424.222h-22.173c-0.553,0-1-0.448-1-1c0-0.552,0.447-1,1-1h22.173c0.553,0,1,0.448,1,1
						C898.636,423.774,898.188,424.222,897.636,424.222z"/>
					<path style="fill:#363E44;" d="M885.271,397.433h-9.809c-0.553,0-1-0.448-1-1c0-0.552,0.447-1,1-1h9.809c0.553,0,1,0.448,1,1
						C886.271,396.986,885.824,397.433,885.271,397.433z"/>
				</g>
				<g>
					<path style="fill:#363E44;" d="M968.976,503.701c-0.553,0-1-0.448-1-1V453.74c0-0.552,0.447-1,1-1c0.553,0,1,0.448,1,1v48.961
						C969.976,503.254,969.528,503.701,968.976,503.701z"/>
					<path style="fill:#363E44;" d="M980.062,504.979h-22.173c-0.553,0-1-0.448-1-1c0-0.552,0.447-1,1-1h22.173c0.553,0,1,0.448,1,1
						C981.062,504.531,980.614,504.979,980.062,504.979z"/>
					<path style="fill:#363E44;" d="M967.697,478.19h-9.809c-0.553,0-1-0.448-1-1c0-0.552,0.447-1,1-1h9.809c0.553,0,1,0.448,1,1
						C968.697,477.743,968.25,478.19,967.697,478.19z"/>
				</g>
				<g>
					<path style="fill:#363E44;" d="M1051.401,503.701c-0.553,0-1-0.448-1-1V453.74c0-0.552,0.447-1,1-1s1,0.448,1,1v48.961
						C1052.401,503.254,1051.954,503.701,1051.401,503.701z"/>
					<path style="fill:#363E44;" d="M1062.487,504.979h-22.173c-0.553,0-1-0.448-1-1c0-0.552,0.447-1,1-1h22.173
						c0.553,0,1,0.448,1,1C1063.487,504.531,1063.04,504.979,1062.487,504.979z"/>
					<path style="fill:#363E44;" d="M1050.124,478.19h-9.81c-0.553,0-1-0.448-1-1c0-0.552,0.447-1,1-1h9.81c0.553,0,1,0.448,1,1
						C1051.124,477.743,1050.677,478.19,1050.124,478.19z"/>
				</g>
				<g>
					<path style="fill:#363E44;" d="M927.762,584.067c-0.553,0-1-0.448-1-1v-48.961c0-0.552,0.447-1,1-1c0.553,0,1,0.448,1,1v48.961
						C928.762,583.619,928.315,584.067,927.762,584.067z"/>
					<path style="fill:#363E44;" d="M938.849,585.345h-22.173c-0.553,0-1-0.448-1-1c0-0.552,0.447-1,1-1h22.173c0.553,0,1,0.448,1,1
						C939.849,584.897,939.401,585.345,938.849,585.345z"/>
					<path style="fill:#363E44;" d="M926.484,558.556h-9.809c-0.553,0-1-0.448-1-1c0-0.552,0.447-1,1-1h9.809c0.553,0,1,0.448,1,1
						C927.484,558.108,927.037,558.556,926.484,558.556z"/>
				</g>
				<path style="fill:#363E44;" d="M1133.827,505.371c-7.995,0-14.258-11.645-14.258-26.511c0-14.866,6.263-26.511,14.258-26.511
					s14.259,11.645,14.259,26.511C1148.086,493.726,1141.822,505.371,1133.827,505.371z M1133.827,454.348
					c-6.645,0-12.258,11.225-12.258,24.511c0,13.286,5.613,24.511,12.258,24.511s12.259-11.225,12.259-24.511
					C1146.086,465.573,1140.472,454.348,1133.827,454.348z"/>
				<path style="fill:#363E44;" d="M1133.827,585.736c-7.995,0-14.258-11.645-14.258-26.511c0-14.866,6.263-26.511,14.258-26.511
					s14.259,11.645,14.259,26.511C1148.086,574.091,1141.822,585.736,1133.827,585.736z M1133.827,534.714
					c-6.645,0-12.258,11.225-12.258,24.511c0,13.286,5.613,24.511,12.258,24.511s12.259-11.225,12.259-24.511
					C1146.086,545.939,1140.472,534.714,1133.827,534.714z"/>
				<g>
					<path style="fill:#363E44;" d="M1133.827,422.944c-0.553,0-1-0.448-1-1v-48.961c0-0.552,0.447-1,1-1s1,0.448,1,1v48.961
						C1134.827,422.497,1134.38,422.944,1133.827,422.944z"/>
					<path style="fill:#363E44;" d="M1144.914,424.222h-22.173c-0.553,0-1-0.448-1-1c0-0.552,0.447-1,1-1h22.173
						c0.553,0,1,0.448,1,1C1145.914,423.774,1145.467,424.222,1144.914,424.222z"/>
					<path style="fill:#363E44;" d="M1132.55,397.433h-9.809c-0.553,0-1-0.448-1-1c0-0.552,0.447-1,1-1h9.809c0.553,0,1,0.448,1,1
						C1133.55,396.986,1133.103,397.433,1132.55,397.433z"/>
				</g>
			</g>
		</g>
		<g>
			<polygon style="fill:#FFD092;" points="1951.002,801.957 1656.023,801.957 1574.334,931.52 1582.062,801.957 1542.139,801.957 
				1542.139,543.9 1951.002,543.9 			"/>
			<path style="fill:#363E44;" d="M1596.383,932.52c-0.102,0-0.205-0.016-0.306-0.048c-0.435-0.14-0.72-0.556-0.692-1.012
				l7.664-128.504h-38.862c-0.553,0-1-0.448-1-1V543.9c0-0.552,0.447-1,1-1h404.454c0.553,0,1,0.448,1,1v258.057
				c0,0.552-0.447,1-1,1h-290.018l-81.395,129.097C1597.042,932.35,1596.719,932.52,1596.383,932.52z M1565.187,800.957h38.924
				c0.275,0,0.539,0.114,0.728,0.314c0.189,0.201,0.287,0.47,0.271,0.745l-7.495,125.678l79.612-126.271
				c0.183-0.291,0.502-0.467,0.846-0.467h289.569V544.9h-402.454V800.957z"/>
			<g>
				<path style="fill:#363E44;" d="M1612.65,617.886c-8.156,0-14.546-11.888-14.546-27.063c0-15.176,6.39-27.064,14.546-27.064
					s14.546,11.888,14.546,27.064C1627.196,605.998,1620.807,617.886,1612.65,617.886z M1612.65,565.759
					c-6.801,0-12.546,11.478-12.546,25.064c0,13.586,5.745,25.063,12.546,25.063s12.546-11.478,12.546-25.063
					C1625.196,577.237,1619.451,565.759,1612.65,565.759z"/>
				<path style="fill:#363E44;" d="M1696.862,617.886c-8.156,0-14.546-11.888-14.546-27.063c0-15.176,6.39-27.064,14.546-27.064
					s14.545,11.888,14.545,27.064C1711.407,605.998,1705.019,617.886,1696.862,617.886z M1696.862,565.759
					c-6.801,0-12.546,11.478-12.546,25.064c0,13.586,5.745,25.063,12.546,25.063c6.8,0,12.545-11.478,12.545-25.063
					C1709.407,577.237,1703.662,565.759,1696.862,565.759z"/>
				<path style="fill:#363E44;" d="M1738.968,617.886c-8.156,0-14.546-11.888-14.546-27.063c0-15.176,6.39-27.064,14.546-27.064
					s14.546,11.888,14.546,27.064C1753.514,605.998,1747.124,617.886,1738.968,617.886z M1738.968,565.759
					c-6.801,0-12.546,11.478-12.546,25.064c0,13.586,5.745,25.063,12.546,25.063s12.546-11.478,12.546-25.063
					C1751.514,577.237,1745.769,565.759,1738.968,565.759z"/>
				<path style="fill:#363E44;" d="M1781.073,617.886c-8.156,0-14.545-11.888-14.545-27.063c0-15.176,6.389-27.064,14.545-27.064
					s14.546,11.888,14.546,27.064C1795.619,605.998,1789.229,617.886,1781.073,617.886z M1781.073,565.759
					c-6.8,0-12.545,11.478-12.545,25.064c0,13.586,5.745,25.063,12.545,25.063c6.801,0,12.546-11.478,12.546-25.063
					C1793.619,577.237,1787.874,565.759,1781.073,565.759z"/>
				<path style="fill:#363E44;" d="M1865.285,617.886c-8.156,0-14.546-11.888-14.546-27.063c0-15.176,6.39-27.064,14.546-27.064
					s14.546,11.888,14.546,27.064C1879.831,605.998,1873.441,617.886,1865.285,617.886z M1865.285,565.759
					c-6.801,0-12.546,11.478-12.546,25.064c0,13.586,5.745,25.063,12.546,25.063s12.546-11.478,12.546-25.063
					C1877.831,577.237,1872.086,565.759,1865.285,565.759z"/>
				<path style="fill:#363E44;" d="M1612.65,699.992c-8.156,0-14.546-11.888-14.546-27.064c0-15.176,6.39-27.063,14.546-27.063
					s14.546,11.888,14.546,27.063C1627.196,688.105,1620.807,699.992,1612.65,699.992z M1612.65,647.865
					c-6.801,0-12.546,11.478-12.546,25.063c0,13.586,5.745,25.064,12.546,25.064s12.546-11.478,12.546-25.064
					C1625.196,659.343,1619.451,647.865,1612.65,647.865z"/>
				<path style="fill:#363E44;" d="M1654.756,699.992c-8.156,0-14.545-11.888-14.545-27.064c0-15.176,6.389-27.063,14.545-27.063
					s14.546,11.888,14.546,27.063C1669.302,688.105,1662.912,699.992,1654.756,699.992z M1654.756,647.865
					c-6.8,0-12.545,11.478-12.545,25.063c0,13.586,5.745,25.064,12.545,25.064c6.801,0,12.546-11.478,12.546-25.064
					C1667.302,659.343,1661.557,647.865,1654.756,647.865z"/>
				<path style="fill:#363E44;" d="M1696.862,699.992c-8.156,0-14.546-11.888-14.546-27.064c0-15.176,6.39-27.063,14.546-27.063
					s14.545,11.888,14.545,27.063C1711.407,688.105,1705.019,699.992,1696.862,699.992z M1696.862,647.865
					c-6.801,0-12.546,11.478-12.546,25.063c0,13.586,5.745,25.064,12.546,25.064c6.8,0,12.545-11.478,12.545-25.064
					C1709.407,659.343,1703.662,647.865,1696.862,647.865z"/>
				<path style="fill:#363E44;" d="M1781.073,699.992c-8.156,0-14.545-11.888-14.545-27.064c0-15.176,6.389-27.063,14.545-27.063
					s14.546,11.888,14.546,27.063C1795.619,688.105,1789.229,699.992,1781.073,699.992z M1781.073,647.865
					c-6.8,0-12.545,11.478-12.545,25.063c0,13.586,5.745,25.064,12.545,25.064c6.801,0,12.546-11.478,12.546-25.064
					C1793.619,659.343,1787.874,647.865,1781.073,647.865z"/>
				<path style="fill:#363E44;" d="M1823.18,699.992c-8.156,0-14.546-11.888-14.546-27.064c0-15.176,6.39-27.063,14.546-27.063
					s14.546,11.888,14.546,27.063C1837.726,688.105,1831.336,699.992,1823.18,699.992z M1823.18,647.865
					c-6.801,0-12.546,11.478-12.546,25.063c0,13.586,5.745,25.064,12.546,25.064s12.546-11.478,12.546-25.064
					C1835.726,659.343,1829.98,647.865,1823.18,647.865z"/>
				<path style="fill:#363E44;" d="M1612.65,782.099c-8.156,0-14.546-11.888-14.546-27.063c0-15.176,6.39-27.064,14.546-27.064
					s14.546,11.888,14.546,27.064C1627.196,770.211,1620.807,782.099,1612.65,782.099z M1612.65,729.971
					c-6.801,0-12.546,11.478-12.546,25.064c0,13.586,5.745,25.063,12.546,25.063s12.546-11.478,12.546-25.063
					C1625.196,741.449,1619.451,729.971,1612.65,729.971z"/>
				<path style="fill:#363E44;" d="M1654.756,782.099c-8.156,0-14.545-11.888-14.545-27.063c0-15.176,6.389-27.064,14.545-27.064
					s14.546,11.888,14.546,27.064C1669.302,770.211,1662.912,782.099,1654.756,782.099z M1654.756,729.971
					c-6.8,0-12.545,11.478-12.545,25.064c0,13.586,5.745,25.063,12.545,25.063c6.801,0,12.546-11.478,12.546-25.063
					C1667.302,741.449,1661.557,729.971,1654.756,729.971z"/>
				<path style="fill:#363E44;" d="M1738.968,782.099c-8.156,0-14.546-11.888-14.546-27.063c0-15.176,6.39-27.064,14.546-27.064
					s14.546,11.888,14.546,27.064C1753.514,770.211,1747.124,782.099,1738.968,782.099z M1738.968,729.971
					c-6.801,0-12.546,11.478-12.546,25.064c0,13.586,5.745,25.063,12.546,25.063s12.546-11.478,12.546-25.063
					C1751.514,741.449,1745.769,729.971,1738.968,729.971z"/>
				<path style="fill:#363E44;" d="M1781.073,782.099c-8.156,0-14.545-11.888-14.545-27.063c0-15.176,6.389-27.064,14.545-27.064
					s14.546,11.888,14.546,27.064C1795.619,770.211,1789.229,782.099,1781.073,782.099z M1781.073,729.971
					c-6.8,0-12.545,11.478-12.545,25.064c0,13.586,5.745,25.063,12.545,25.063c6.801,0,12.546-11.478,12.546-25.063
					C1793.619,741.449,1787.874,729.971,1781.073,729.971z"/>
				<path style="fill:#363E44;" d="M1823.18,782.099c-8.156,0-14.546-11.888-14.546-27.063c0-15.176,6.39-27.064,14.546-27.064
					s14.546,11.888,14.546,27.064C1837.726,770.211,1831.336,782.099,1823.18,782.099z M1823.18,729.971
					c-6.801,0-12.546,11.478-12.546,25.064c0,13.586,5.745,25.063,12.546,25.063s12.546-11.478,12.546-25.063
					C1835.726,741.449,1829.98,729.971,1823.18,729.971z"/>
				<path style="fill:#363E44;" d="M1865.285,782.099c-8.156,0-14.546-11.888-14.546-27.063c0-15.176,6.39-27.064,14.546-27.064
					s14.546,11.888,14.546,27.064C1879.831,770.211,1873.441,782.099,1865.285,782.099z M1865.285,729.971
					c-6.801,0-12.546,11.478-12.546,25.064c0,13.586,5.745,25.063,12.546,25.063s12.546-11.478,12.546-25.063
					C1877.831,741.449,1872.086,729.971,1865.285,729.971z"/>
				<path style="fill:#363E44;" d="M1907.391,617.886c-8.156,0-14.545-11.888-14.545-27.063c0-15.176,6.389-27.064,14.545-27.064
					s14.546,11.888,14.546,27.064C1921.937,605.998,1915.547,617.886,1907.391,617.886z M1907.391,565.759
					c-6.8,0-12.545,11.478-12.545,25.064c0,13.586,5.745,25.063,12.545,25.063c6.801,0,12.546-11.478,12.546-25.063
					C1919.937,577.237,1914.191,565.759,1907.391,565.759z"/>
				<path style="fill:#363E44;" d="M1907.391,699.992c-8.156,0-14.545-11.888-14.545-27.064c0-15.176,6.389-27.063,14.545-27.063
					s14.546,11.888,14.546,27.063C1921.937,688.105,1915.547,699.992,1907.391,699.992z M1907.391,647.865
					c-6.8,0-12.545,11.478-12.545,25.063c0,13.586,5.745,25.064,12.545,25.064c6.801,0,12.546-11.478,12.546-25.064
					C1919.937,659.343,1914.191,647.865,1907.391,647.865z"/>
				<g>
					<path style="fill:#363E44;" d="M1696.862,779.741c-0.553,0-1-0.448-1-1v-50.022c0-0.552,0.447-1,1-1s1,0.448,1,1v50.022
						C1697.862,779.293,1697.415,779.741,1696.862,779.741z"/>
					<path style="fill:#363E44;" d="M1708.188,781.046h-22.653c-0.553,0-1-0.448-1-1c0-0.552,0.447-1,1-1h22.653
						c0.553,0,1,0.448,1,1C1709.188,780.598,1708.741,781.046,1708.188,781.046z"/>
					<path style="fill:#363E44;" d="M1695.557,753.677h-10.021c-0.553,0-1-0.448-1-1s0.447-1,1-1h10.021c0.553,0,1,0.448,1,1
						S1696.109,753.677,1695.557,753.677z"/>
				</g>
				<g>
					<path style="fill:#363E44;" d="M1738.968,697.887c-0.553,0-1-0.448-1-1v-50.022c0-0.552,0.447-1,1-1s1,0.448,1,1v50.022
						C1739.968,697.44,1739.521,697.887,1738.968,697.887z"/>
					<path style="fill:#363E44;" d="M1750.295,699.192h-22.653c-0.553,0-1-0.448-1-1c0-0.552,0.447-1,1-1h22.653
						c0.553,0,1,0.448,1,1C1751.295,698.745,1750.848,699.192,1750.295,699.192z"/>
					<path style="fill:#363E44;" d="M1737.663,671.824h-10.021c-0.553,0-1-0.448-1-1c0-0.552,0.447-1,1-1h10.021
						c0.553,0,1,0.448,1,1C1738.663,671.376,1738.216,671.824,1737.663,671.824z"/>
				</g>
				<g>
					<path style="fill:#363E44;" d="M1865.285,697.887c-0.553,0-1-0.448-1-1v-50.022c0-0.552,0.447-1,1-1s1,0.448,1,1v50.022
						C1866.285,697.44,1865.838,697.887,1865.285,697.887z"/>
					<path style="fill:#363E44;" d="M1876.612,699.192h-22.653c-0.553,0-1-0.448-1-1c0-0.552,0.447-1,1-1h22.653
						c0.553,0,1,0.448,1,1C1877.612,698.745,1877.165,699.192,1876.612,699.192z"/>
					<path style="fill:#363E44;" d="M1863.98,671.824h-10.021c-0.553,0-1-0.448-1-1c0-0.552,0.447-1,1-1h10.021c0.553,0,1,0.448,1,1
						C1864.98,671.376,1864.533,671.824,1863.98,671.824z"/>
				</g>
				<g>
					<path style="fill:#363E44;" d="M1823.18,616.581c-0.553,0-1-0.448-1-1v-50.022c0-0.552,0.447-1,1-1s1,0.448,1,1v50.022
						C1824.18,616.133,1823.732,616.581,1823.18,616.581z"/>
					<path style="fill:#363E44;" d="M1834.506,617.886h-22.653c-0.553,0-1-0.448-1-1s0.447-1,1-1h22.653c0.553,0,1,0.448,1,1
						S1835.059,617.886,1834.506,617.886z"/>
					<path style="fill:#363E44;" d="M1821.874,590.517h-10.021c-0.553,0-1-0.448-1-1c0-0.552,0.447-1,1-1h10.021
						c0.553,0,1,0.448,1,1C1822.874,590.07,1822.427,590.517,1821.874,590.517z"/>
				</g>
				<g>
					<path style="fill:#363E44;" d="M1907.391,779.741c-0.553,0-1-0.448-1-1v-50.022c0-0.552,0.447-1,1-1s1,0.448,1,1v50.022
						C1908.391,779.293,1907.943,779.741,1907.391,779.741z"/>
					<path style="fill:#363E44;" d="M1918.718,781.046h-22.653c-0.553,0-1-0.448-1-1c0-0.552,0.447-1,1-1h22.653
						c0.553,0,1,0.448,1,1C1919.718,780.598,1919.271,781.046,1918.718,781.046z"/>
					<path style="fill:#363E44;" d="M1906.086,753.677h-10.021c-0.553,0-1-0.448-1-1s0.447-1,1-1h10.021c0.553,0,1,0.448,1,1
						S1906.639,753.677,1906.086,753.677z"/>
				</g>
				<g>
					<path style="fill:#363E44;" d="M1654.756,616.581c-0.553,0-1-0.448-1-1v-50.022c0-0.552,0.447-1,1-1s1,0.448,1,1v50.022
						C1655.756,616.133,1655.309,616.581,1654.756,616.581z"/>
					<path style="fill:#363E44;" d="M1666.083,617.886h-22.653c-0.553,0-1-0.448-1-1s0.447-1,1-1h22.653c0.553,0,1,0.448,1,1
						S1666.636,617.886,1666.083,617.886z"/>
					<path style="fill:#363E44;" d="M1653.451,590.517h-10.021c-0.553,0-1-0.448-1-1c0-0.552,0.447-1,1-1h10.021
						c0.553,0,1,0.448,1,1C1654.451,590.07,1654.004,590.517,1653.451,590.517z"/>
				</g>
			</g>
		</g>
	</g>
</g>
</svg>
