<?xml version="1.0" encoding="utf-8"?>
<!-- Generator: Adobe Illustrator 27.5.0, SVG Export Plug-In . SVG Version: 6.00 Build 0)  -->
<svg version="1.1" xmlns="http://www.w3.org/2000/svg" xmlns:xlink="http://www.w3.org/1999/xlink" x="0px" y="0px"
	 viewBox="0 0 2500 2500" style="enable-background:new 0 0 2500 2500;" xml:space="preserve">
-
<g id="Illustration">
	<g id="Internet_forum_1_">
		<circle style="fill:transparent;" cx="1250" cy="1250" r="915"/>
		<g>
			<path style="fill:#363E44;" d="M480.011,1908.485l-11.834,61.153c-19.089,98.646,56.479,190.239,156.955,190.239h684.074
				l50-108.027c30.797-66.537-17.754-142.584-91.073-142.651L480.011,1908.485z"/>
			<g>
				<g>
					<path style="fill:#ff6900;" d="M1167.316,1768.762l-100.913-223.656c-24.212-53.662-74.84-90.784-133.345-97.359
						c-136.822-15.374-291.482,0.398-368.403,10.616c-28.436,3.778-50.324,26.96-52.428,55.569l-29.119,396.016h596.404
						l-13.527-68.834l78.143-18.38C1166.203,1815.039,1176.931,1790.071,1167.316,1768.762z"/>
					<path style="fill:#ff6900;" d="M512.2,1971.961l-67.964-1.629c-64.958-1.557-114.336-59.206-105.528-123.583
						c16.163-118.131,65.456-387.665,244.699-389.26l31.461,84.447l-64.338,237.917l102.898,8.886l-26.574,97.736
						C612.858,1937.956,565.535,1973.24,512.2,1971.961z"/>
				</g>
				<g>
					<g>
						<path style="fill:#9E6C5A;" d="M1060.978,1744.463c-13.283-44.65,10.068-92.026,53.362-109.224
							c56.207-22.327,139.288-55.168,182.997-71.669c73.482-27.741,186.011-57.999,190.042-42.203
							c2.295,8.997-12.198,16.297-52.235,33.233c2.88,1.168,10.729,6.863,11.49,15.558c1.125,12.866-9.021,16.63-9.754,17.383
							c1.009,0.317,12.306,4.541,14.518,13.027c2.491,9.557-1.959,16.663-8.078,21.423c2.479,0.865,12.382,6.267,14.095,14.522
							c2.228,10.732-6.758,18.885-15.27,21.956c-15.616,5.633-58.671,19.962-80.472,30.448
							c-18.769,9.027-166.886,112.787-236.757,109.951C1087.497,1797.351,1069.38,1772.706,1060.978,1744.463z"/>
						<path style="fill:#363E44;" d="M1329.544,1643.687c-0.286,0-0.569-0.122-0.768-0.358c-0.354-0.423-0.299-1.054,0.124-1.409
							c13.062-10.951,18.487-23.671,22.847-33.891c4.382-10.272,7.886-18.379,17.253-18.027c6.584,0.249,14.374-2.629,23.095-8.559
							c2.581-1.755,2.975-4.514,2.483-6.512c-0.498-2.025-2.151-4.317-5.298-4.679l-50.724-5.841
							c-0.549-0.063-0.942-0.559-0.879-1.108c0.063-0.548,0.556-0.943,1.107-0.879l50.724,5.841
							c3.432,0.395,6.184,2.824,7.012,6.188c0.832,3.381-0.434,6.693-3.301,8.643c-9.081,6.175-17.246,9.172-24.296,8.904
							c-8.049-0.306-10.94,6.505-15.337,16.813c-4.443,10.416-9.974,23.38-23.401,34.639
							C1329.998,1643.61,1329.771,1643.687,1329.544,1643.687z"/>
						<path style="fill:#363E44;" d="M1412.016,1659.877c-0.408,0-0.792-0.252-0.939-0.658
							c-4.741-13.028,1.465-27.651,14.128-33.291l0.725-0.323l-10.407,2.187c-8.192,1.72-16.433-2.652-19.6-10.397
							c-1.783-4.361-1.731-9.142,0.146-13.464c1.878-4.321,5.338-7.622,9.743-9.293l10.15-3.852
							c-6.375,0.271-12.356-3.863-14.151-10.201c-1.949-6.885,1.575-14.12,8.197-16.828l17.306-7.077
							c0.509-0.209,1.096,0.036,1.305,0.547c0.209,0.511-0.036,1.095-0.547,1.304l-17.306,7.077
							c-5.68,2.323-8.702,8.527-7.031,14.432c1.775,6.266,8.346,10.021,14.645,8.371l12.471-3.268
							c0.515-0.134,1.045,0.156,1.206,0.663c0.162,0.506-0.101,1.051-0.598,1.24l-24.938,9.463
							c-3.896,1.479-6.957,4.398-8.618,8.221s-1.707,8.052-0.129,11.909c2.802,6.852,10.095,10.718,17.336,9.197l19.607-4.12
							c0.501-0.105,1,0.184,1.157,0.671c0.157,0.486-0.077,1.013-0.544,1.221l-9.312,4.148
							c-11.708,5.215-17.446,18.735-13.063,30.78c0.189,0.519-0.078,1.093-0.598,1.282
							C1412.245,1659.858,1412.129,1659.877,1412.016,1659.877z"/>
					</g>
				</g>
				<path style="fill:#FFFFFF;" d="M675.383,1452.574c0,0,103.484-23.246,239.089,7.573l82.692,456.36l-395.11,125.334
					l10.493-122.067L675.383,1452.574z"/>
				<g>
					<path style="fill:#9E6C5A;" d="M921.276,1847.592c-14.901-9.379-70.605-58.316-102.703-45.541
						c-32.328,12.866-50.801,46.595-56.897,80.853c0.078,0.119,0.163,0.25,0.24,0.367c2.448,9.316,7.538,22.879,19.32,33.618
						c13.431,12.242,22.693,9.089,38.878,19.801c27.317,18.08,27.385,45.63,38.651,42.846c7.733-1.91,8.388-17.965,5.177-32.764
						c-3.297-15.194-11.825-23.632-9.905-25.305c2.107-1.836,9.661,7.856,20.161,19.047c4.878,5.199,9.482,27.724,20.432,26.672
						c8.73-0.839,9.804-25.455-0.708-44.201c-7.437-13.262-21.292-18.349-19.837-20.713c1.092-1.774,9.273,1.461,15.494,6.349
						c10.266,8.065,15.223,31.06,25.282,29.895c9.856-1.142,10.415-22.657,1.839-40.511c-7.231-15.054-22.953-19.989-21.161-22.937
						c1.26-2.074,8.757-1.328,23.289,4.827c12.128,5.138,32.401,22.949,39.673,11.06
						C964.616,1880.954,943.768,1861.746,921.276,1847.592z"/>
					<path style="fill:#9E6C5A;" d="M497.626,1785.943c-29.853,4.738-55.048,25.281-65.284,53.721
						c-10.608,29.475-10.714,67.223,35.724,95.671c88.568,54.254,324.536-45.988,324.536-45.988l43.054-89.084
						C725.628,1775.753,604.396,1769,497.626,1785.943z"/>
					<path style="fill:#363E44;" d="M523.727,1783.315c-0.525,0-0.966-0.409-0.997-0.94c-0.033-0.551,0.387-1.025,0.939-1.058
						l95.573-5.736c0.561-0.032,1.025,0.387,1.058,0.938c0.033,0.551-0.387,1.025-0.938,1.058l-95.573,5.736
						C523.767,1783.314,523.747,1783.315,523.727,1783.315z"/>
				</g>
				<path style="fill:#363E44;" d="M532.515,1761.887c-0.063,0-0.126-0.006-0.189-0.018c-0.542-0.104-0.898-0.628-0.794-1.17
					l17.668-92.127c0.104-0.542,0.632-0.897,1.171-0.794c0.542,0.104,0.897,0.628,0.794,1.17l-17.668,92.127
					C533.404,1761.554,532.984,1761.887,532.515,1761.887z"/>
				<path style="fill:#363E44;" d="M1049.604,1726.633c-0.429,0-0.824-0.277-0.956-0.708l-48.952-160.151
					c-0.162-0.528,0.136-1.087,0.664-1.249c0.525-0.162,1.087,0.136,1.248,0.664l48.952,160.151
					c0.162,0.528-0.136,1.087-0.664,1.249C1049.8,1726.619,1049.701,1726.633,1049.604,1726.633z"/>
			</g>
			<g>
				<polygon style="fill:#9E6C5A;" points="740.13,1470.409 838.822,1490.03 899.765,1374.428 817.25,1326.788 				"/>
				<path style="fill:#9E6C5A;" d="M734.632,1469.427c-2.439,12.029,24.345,27.611,59.823,34.803
					c35.478,7.193,66.216,3.272,68.654-8.757c2.438-12.029-24.345-27.611-59.823-34.803
					C767.808,1453.478,737.071,1457.398,734.632,1469.427z"/>
				<g>
					<path style="fill:#9E6C5A;" d="M941.081,1388.514c-12.611,20.514-78.461,7.38-78.461,7.38l-55.174-48.663
						c-13.256-31.175,1.27-67.193,32.445-80.449c31.175-13.256,67.193,1.27,80.449,32.445
						C920.34,1299.227,953.927,1367.62,941.081,1388.514z"/>
					<path style="fill:#9E6C5A;" d="M920.165,1316.828c0,0,22.886,9.856,23.906,14.593c1.217,5.655-15.063,16.343-15.063,16.343
						S920.603,1316.688,920.165,1316.828z"/>
					<g>
						<path style="fill:#FFFFFF;" d="M868.197,1336.073c0,0,7.289-9.101,18.681-13.944c2.424-1.03,6.098,20.309,3.33,20.189
							C878.04,1341.79,868.197,1336.073,868.197,1336.073z"/>
						<g>
							<defs>
								<path id="SVGID_1_" d="M868.197,1336.073c0,0,10.72-13.385,26.478-16.329c15.758-2.943,30.587,5.671,30.587,5.671
									s-10.72,13.385-26.478,16.329C883.026,1344.686,868.197,1336.073,868.197,1336.073z"/>
							</defs>
							<clipPath id="SVGID_00000036234708121997770460000004105120415472194960_">
								<use xlink:href="#SVGID_1_"  style="overflow:visible;"/>
							</clipPath>
							<path style="clip-path:url(#SVGID_00000036234708121997770460000004105120415472194960_);fill:#363E44;" d="
								M887.148,1321.425c4.331-10.738,16.546-15.932,27.284-11.602c10.738,4.331,15.932,16.546,11.602,27.285
								c-4.331,10.738-16.546,15.932-27.284,11.602C888.012,1344.378,882.818,1332.163,887.148,1321.425z"/>
						</g>
					</g>
					<path style="fill:#363E44;" d="M915.825,1365.164c-0.545,0-1.094-0.047-1.642-0.143c-3.57-0.626-6.537-3.293-7.56-6.793
						c-0.154-0.53,0.149-1.085,0.68-1.24c0.53-0.155,1.085,0.15,1.24,0.68c0.811,2.775,3.16,4.888,5.985,5.384
						c2.933,0.515,5.921-0.757,7.608-3.238c0.312-0.456,0.934-0.575,1.39-0.264c0.457,0.311,0.575,0.933,0.265,1.389
						C921.977,1363.606,918.969,1365.164,915.825,1365.164z"/>
					<path style="fill:#363E44;" d="M904.34,1401.989c-20.42,0-41.219-4.085-41.501-4.141c-0.542-0.108-0.894-0.635-0.785-1.176
						c0.107-0.541,0.635-0.894,1.176-0.785c0.38,0.076,38.344,7.529,61.638,2.177c0.537-0.124,1.074,0.212,1.198,0.751
						c0.124,0.538-0.212,1.075-0.751,1.199C919.027,1401.457,911.707,1401.989,904.34,1401.989z"/>
				</g>
				<g>
					<path style="fill:#363E44;" d="M771.628,1262.821c-15.44-24.088-58.352,2.804-70.103-24.904
						c-2.127-5.015-1.786-10.978-4.734-15.558c-3.688-5.732-11.344-7.449-18.154-7.161c-7.156,0.303-14.716,2.588-19.102,8.252
						c-4.385,5.663-3.976,15.21,2.171,18.887c3.462,2.071,7.749,1.921,11.728,2.581c3.98,0.661,8.371,2.848,9.026,6.829
						c0.953,5.794-6.177,9.228-9.406,14.133c-4.814,7.317,2.044,18.901,10.776,18.197c3.934-0.318,7.423-2.561,11.2-3.706
						c3.777-1.145,8.692-0.723,10.564,2.751c1.847,3.429-0.441,7.748-3.51,10.145c-3.069,2.399-6.892,3.737-9.799,6.328
						c-7.408,6.599-5.254,20.477,3.51,25.126c8.765,4.647,20.952-0.604,24.286-9.948c1.78-4.99,2.973-12.152,8.27-12.232
						c4.066-0.062,6.447,4.791,6.372,8.857c-0.075,4.066-1.536,8.153-0.671,12.128c1.49,6.851,9.783,10.554,16.622,9.011
						C774.875,1327.075,783.777,1281.775,771.628,1262.821z"/>
					<path style="fill:#363E44;" d="M890.327,1277.924c10.477-1.025,9.174-9.579,0.87-16.049
						c-92.326-71.923-151.806,11.798-134.552,54.952c9.45,23.634,51.206,57.718,51.206,57.718l42.755-26.781l-11.029-24.837
						c-8.388-18.888,4.177-40.446,24.745-42.458L890.327,1277.924z"/>
					<path style="fill:#363E44;" d="M818.786,1209.941c-3.167-9.534-10.523-18.378-20.399-20.216
						c-9.876-1.84-21.313,5.967-20.689,15.993c0.201,3.242,1.548,6.384,1.349,9.625c-0.199,3.243-3.014,6.75-6.137,5.857
						c-6.753-1.935,0.622-15.928-5.974-18.347c-3.293-1.206-6.49,2.616-6.615,6.119c-0.125,3.505,1.517,6.829,1.904,10.315
						c0.386,3.486-1.315,7.801-4.809,8.102c-3.677,0.318-6.045-4.003-6.218-7.69c-0.341-7.282,3.732-13.922,6.224-20.771
						c2.493-6.851,2.855-15.797-2.995-20.146c-4.782-3.554-12.579-1.757-15.322,3.533c-2.051,3.957-1.352,8.693-1.412,13.15
						c-0.06,4.456-1.516,9.628-5.685,11.204c-4.654,1.759-9.615-2.16-11.996-6.528c-2.382-4.369-3.482-9.506-6.78-13.232
						c-5.743-6.488-17.288-5.884-22.947,0.678c-5.658,6.563-5.013,17.335,0.773,23.786c4.816,5.369,12.68,8.345,15.069,15.15
						c1.751,4.989-0.072,10.419-0.919,15.638c-2.215,13.645,2.893,28.263,13.124,37.561c23.828,21.656,48.355,6.708,70.069-8.303
						c11.247-7.774,22.491-16.608,28.369-28.953C821.557,1232.415,822.294,1220.506,818.786,1209.941z"/>
					<g>
						<path style="fill:#9E6C5A;" d="M842.015,1327.786c-31.046,0-52.939-24.072-53.166-24.326
							c-0.368-0.412-0.333-1.043,0.078-1.412c0.413-0.368,1.044-0.333,1.412,0.078c0.23,0.257,23.391,25.66,55.499,23.533
							c0.551-0.035,1.027,0.38,1.064,0.932c0.036,0.551-0.381,1.027-0.932,1.064
							C844.638,1327.744,843.315,1327.786,842.015,1327.786z"/>
						<path style="fill:#9E6C5A;" d="M851.943,1320.131c-37.408,0-59.273-25.437-59.489-25.695c-0.356-0.422-0.302-1.053,0.12-1.409
							c0.421-0.355,1.052-0.303,1.409,0.12c0.211,0.25,21.515,24.984,57.96,24.984c0.05,0,0.076,0,0.147,0
							c0.552,0,0.999,0.447,1,0.998c0.001,0.552-0.446,1.001-0.998,1.002C852.045,1320.131,851.991,1320.131,851.943,1320.131z"/>
						<path style="fill:#9E6C5A;" d="M855.223,1310.019c-37.408,0-59.271-25.437-59.487-25.695c-0.356-0.422-0.302-1.053,0.12-1.409
							c0.421-0.355,1.052-0.303,1.409,0.12c0.211,0.25,21.513,24.984,57.958,24.984c0.05,0,0.084,0.002,0.148,0
							c0.552,0,0.999,0.447,1,0.998c0.001,0.552-0.446,1.001-0.998,1.002C855.325,1310.019,855.271,1310.019,855.223,1310.019z"/>
					</g>
				</g>
				
					<ellipse transform="matrix(0.9637 -0.2669 0.2669 0.9637 -331.2519 267.3462)" style="fill:#9E6C5A;" cx="817.749" cy="1352.111" rx="24.53" ry="24.53"/>
			</g>
			<g>
				<polygon style="fill:#FFFFFF;" points="1172.503,1897.469 921.119,1897.469 921.119,1907.359 1180.813,1915.129 				"/>
				<polygon style="fill:#D87355;" points="1337.149,1926.036 1076.416,1926.036 1182.371,1699.582 1443.104,1699.582 				"/>
				<path style="fill:#D87355;" d="M921.119,1903.301L921.119,1903.301c0,12.617,10.228,22.845,22.845,22.845h218.152l10.689-22.845
					H921.119z"/>
			</g>
		</g>
		<g>
			<g>
				<rect x="463.789" y="390.749" style="fill:#FFFFFF;" width="1095.829" height="397.947"/>
				<path style="fill:#D3BBA3;" d="M1560.617,789.695H462.789V389.749h1097.828V789.695z M464.789,787.695h1093.828V391.749H464.789
					V787.695z"/>
				<rect x="462.587" y="389.245" style="fill:#D3BBA3;" width="1097.03" height="18.149"/>
			</g>
			<path style="fill:#D3BBA3;" d="M1560.617,789.695H462.789V389.749h1097.828V789.695z M464.789,787.695h1093.828V391.749H464.789
				V787.695z"/>
			<g>
				<rect x="902.699" y="473.236" style="fill:#D3BBA3;" width="328.532" height="18.752"/>
				<rect x="1271.971" y="473.236" style="fill:#D3BBA3;" width="219.923" height="18.752"/>
				<rect x="902.699" y="533.823" style="fill:#D3BBA3;" width="176.479" height="18.752"/>
				<rect x="1119.918" y="533.823" style="fill:#D3BBA3;" width="350.254" height="18.752"/>
				<rect x="1119.918" y="715.586" style="fill:#D3BBA3;" width="350.254" height="18.752"/>
				<rect x="1011.308" y="594.411" style="fill:#D3BBA3;" width="371.976" height="18.752"/>
				<rect x="1011.308" y="654.998" style="fill:#D3BBA3;" width="198.201" height="18.752"/>
			</g>
			<g>
				<path style="fill:#EFBC73;" d="M777.013,669.698l-50.45-10.098l-94.309,14.376c-42.812,6.526-81.424,29.402-107.714,63.815
					l-37.316,48.847l418.156,0.671l0,0C887.797,727.281,838.347,681.975,777.013,669.698z"/>
				<g>
					<path style="fill:#84524D;" d="M701.366,479.432c-39.889,0-72.225,33.137-72.225,74.012c0,40.876,32.336,74.013,72.225,74.013
						c39.889,0,72.226-33.137,72.226-74.013l7.378-45.076C776.697,451.594,701.366,479.432,701.366,479.432z"/>
					<g>
						<g>
							<path style="fill:#E2A18D;" d="M662.704,669.981l20.565-85.269l60.893-4.666l16.694,83.098
								c6.251,31.115-17.921,60.016-49.651,59.365h0C683.063,721.931,661.04,698.08,662.704,669.981z"/>
						</g>
						<path style="fill:#E2A18D;" d="M780.97,508.368c0,0,21.561,100.444-18.52,116.884c-24.249,9.946-56.307-11.247-66.187-22.872
							c-9.88-11.625-11.469-35.352-11.469-35.352s10.885,5.11,15.917-2.229c5.032-7.339-13.249-37.294,16.679-45.537
							C747.317,511.017,754.563,522.451,780.97,508.368z"/>
						<path style="fill:#363E44;" d="M754.286,631.669c-14.482,0-33.939-8.275-44.227-16.328c-0.435-0.34-0.512-0.969-0.171-1.404
							c0.34-0.435,0.967-0.512,1.403-0.171c10.451,8.179,30.845,16.507,44.569,15.867c0.547-0.026,1.019,0.401,1.046,0.952
							c0.025,0.552-0.4,1.02-0.952,1.045C755.407,631.656,754.85,631.669,754.286,631.669z"/>
						<path style="fill:#E2A18D;" d="M701.798,572.44c5.06,7.029,7.261,22.102,0.233,27.162c-7.029,5.06-20.625-1.808-25.685-8.837
							c-5.06-7.028-3.465-16.828,3.564-21.889C686.937,563.815,696.737,565.411,701.798,572.44z"/>
						<g>
							<g>
								<path style="fill:#FFFFFF;" d="M789.634,542.451c-0.027,0.207,0.103,0.376,0.077,0.583
									c-0.001,0.009-0.005,0.015-0.006,0.024c0.548,2.883,1.134,5.924,2.199,8.657c0.472,1.21,1.278,1.898,1.852,2.989
									c0.421,0.8,0.821,1.567,1.267,2.338c6.902-6.856,9.533-15.674,9.533-15.674S797.456,540.428,789.634,542.451z"/>
								<path style="fill:#363E44;" d="M780.813,546.244c-9.604,6.163-13.606,17.355-14.227,19.247
									c0.106,0.12,0.214,0.237,0.323,0.354c2.258,0.243,13.872,1.139,23.321-4.925c1.772-1.137,3.337-2.453,4.742-3.844
									c0.115-0.79,0.194-1.592,0.192-2.415c-0.013-4.862-2.16-9.21-5.539-12.194C786.698,543.239,783.659,544.419,780.813,546.244
									z"/>
							</g>
							<g>
								<path style="fill:#FFFFFF;" d="M734.76,562.22c-0.052,3.468,0.55,6.098,2.445,8.827c8.251-0.515,14.723-3.773,14.723-3.773
									s-6.369-8.797-16.339-12.799C734.689,556.865,734.797,559.758,734.76,562.22z"/>
								<path style="fill:#363E44;" d="M737.029,571.054c2.533-5.284,2.072-11.656-1.45-16.561c-1.122-0.441-2.278-0.84-3.492-1.142
									c-12.121-3.017-24.052,2.998-24.052,2.998s7.72,10.906,19.84,13.923C731.01,571.051,734.125,571.221,737.029,571.054z"/>
							</g>
						</g>
						<g>
							<path style="fill:#363E44;" d="M684.487,589.903c-0.313,0-0.622-0.147-0.817-0.422c-0.337-0.477-0.636-0.988-0.889-1.521
								c-2.098-4.408-0.711-9.468,3.093-11.278c0.95-0.452,1.987-0.671,3.049-0.65c0.553,0.011,0.991,0.467,0.98,1.02
								c-0.012,0.551-0.428,0.988-1.02,0.98c-0.752-0.014-1.482,0.138-2.15,0.456c-2.808,1.336-3.771,5.2-2.146,8.614
								c0.203,0.43,0.444,0.841,0.715,1.224c0.319,0.451,0.212,1.075-0.239,1.394C684.889,589.843,684.687,589.903,684.487,589.903z
								"/>
						</g>
						<path style="fill:#363E44;" d="M766.284,580.876c-0.189,0-0.382-0.054-0.552-0.167c-0.46-0.305-0.586-0.926-0.281-1.386
							c0.833-1.256,1.158-2.405,0.968-3.415c-0.196-1.038-0.885-1.662-1.928-2.606c-0.805-0.729-1.806-1.635-2.737-2.961
							c-1.187-1.691-1.993-3.68-2.398-5.911c-0.098-0.543,0.263-1.064,0.807-1.162c0.542-0.1,1.064,0.263,1.162,0.806
							c0.352,1.944,1.047,3.666,2.065,5.118c0.803,1.142,1.674,1.932,2.443,2.628c1.147,1.039,2.229,2.02,2.55,3.718
							c0.291,1.539-0.135,3.185-1.265,4.891C766.927,580.719,766.608,580.876,766.284,580.876z"/>
						<path style="fill:#363E44;" d="M756.483,597.354c-0.578,0-1.151-0.074-1.718-0.223c-3.889-1.024-5.906-5.227-5.99-5.406
							c-0.234-0.5-0.021-1.095,0.479-1.331c0.5-0.235,1.095-0.021,1.33,0.478c0.032,0.067,1.73,3.552,4.699,4.327
							c1.599,0.417,3.336-0.029,5.171-1.328c0.452-0.32,1.075-0.212,1.395,0.238c0.319,0.451,0.212,1.075-0.238,1.394
							C759.871,596.735,758.153,597.354,756.483,597.354z"/>
					</g>
					<path style="fill:#84524D;" d="M701.366,479.432c0,0-33.451-34.673-80.173-13.042c-46.723,21.63-44.128,120.267-100.368,148.82
						l54.914,25.99l30.914-12.617l-11.018,22.034l22.402,10.603c0,0,57.684-13.662,34.154-129.789L701.366,479.432z"/>
					<path style="fill:#363E44;" d="M672.364,622.169c-0.15,0-0.303-0.034-0.446-0.106c-25.373-12.693-41.136-38.536-41.136-67.445
						c0-0.552,0.447-1,1-1c0.553,0,1,0.448,1,1c0,28.147,15.339,53.305,40.03,65.657c0.494,0.247,0.694,0.848,0.447,1.342
						C673.084,621.967,672.731,622.169,672.364,622.169z"/>
				</g>
			</g>
		</g>
		<g>
			<g>
				<rect x="1059.108" y="903.691" style="fill:#FFFFFF;" width="1095.829" height="397.947"/>
				<path style="fill:#D3BBA3;" d="M2155.937,1302.637H1058.107V902.691h1097.829V1302.637z M1060.107,1300.637h1093.829V904.691
					H1060.107V1300.637z"/>
				<rect x="1057.907" y="902.187" style="fill:#D3BBA3;" width="1097.03" height="18.149"/>
			</g>
			<g>
				<path style="fill:#363E44;" d="M1187.475,1184.697l50.45-10.098l94.309,14.376c42.812,6.526,81.424,29.402,107.714,63.816
					l37.316,48.847l-418.156,0.671l0,0C1076.692,1242.28,1126.142,1196.974,1187.475,1184.697z"/>
				<g>
					<g>
						<path style="fill:#E2A18D;" d="M1301.785,1184.98l-5.236-88.391l-76.222-1.543l-16.694,83.098
							c-6.251,31.115,17.921,60.016,49.651,59.365h0C1281.426,1236.93,1303.449,1213.078,1301.785,1184.98z"/>
					</g>
					<path style="fill:#84524D;" d="M1296.55,1096.588c1.882-5.432,26.259-77.982-3.354-100.021
						c-3.953-2.942-8.099-4.018-16.228-6.049c-33.708-8.422-82.331-5.674-92.175,17.923c-1.146,2.746-2.521,7.585-1.274,14.926
						c0.627,1.228,1.534,2.972,2.666,5.04c10.742,19.627,34.613,63.242,73.714,71.072
						C1267.558,1101.013,1280.078,1102.029,1296.55,1096.588z"/>
					<path style="fill:#E2A18D;" d="M1183.519,1023.366c0,0-21.561,100.444,18.52,116.884c24.249,9.946,56.307-11.247,66.187-22.872
						c9.88-11.625,11.469-35.352,11.469-35.352s-10.885,5.11-15.917-2.229c-5.032-7.339,13.249-37.294-16.679-45.537
						C1217.172,1026.016,1209.926,1037.45,1183.519,1023.366z"/>
					<path style="fill:#363E44;" d="M1210.203,1146.667c-0.564,0-1.12-0.012-1.668-0.038c-0.552-0.026-0.978-0.494-0.952-1.046
						s0.456-0.981,1.046-0.952c13.714,0.639,34.117-7.687,44.568-15.867c0.435-0.341,1.063-0.263,1.403,0.171
						c0.341,0.435,0.264,1.063-0.171,1.404C1244.142,1138.392,1224.685,1146.667,1210.203,1146.667z"/>
					<path style="fill:#E2A18D;" d="M1262.691,1087.438c-5.06,7.029-7.261,22.102-0.233,27.162
						c7.029,5.06,20.625-1.808,25.685-8.837c5.06-7.028,3.465-16.828-3.564-21.889
						C1277.552,1078.814,1267.751,1080.41,1262.691,1087.438z"/>
					<g>
						<g>
							<path style="fill:#FFFFFF;" d="M1174.855,1057.45c0.026,0.207-0.103,0.376-0.077,0.583c0.001,0.009,0.005,0.015,0.006,0.024
								c-0.548,2.883-1.134,5.923-2.199,8.657c-0.472,1.21-1.278,1.899-1.852,2.989c-0.421,0.8-0.821,1.567-1.267,2.338
								c-6.902-6.856-9.533-15.674-9.533-15.674S1167.033,1055.427,1174.855,1057.45z"/>
							<path style="fill:#363E44;" d="M1183.676,1061.243c9.604,6.163,13.605,17.355,14.227,19.247
								c-0.106,0.12-0.214,0.237-0.323,0.354c-2.258,0.243-13.872,1.139-23.321-4.925c-1.772-1.137-3.337-2.453-4.742-3.844
								c-0.115-0.79-0.194-1.592-0.192-2.415c0.013-4.862,2.16-9.21,5.539-12.194
								C1177.791,1058.237,1180.83,1059.417,1183.676,1061.243z"/>
						</g>
						<g>
							<path style="fill:#FFFFFF;" d="M1229.729,1077.218c0.052,3.468-0.55,6.098-2.445,8.827
								c-8.251-0.515-14.723-3.773-14.723-3.773s6.369-8.797,16.339-12.799C1229.8,1071.864,1229.692,1074.757,1229.729,1077.218z"
								/>
							<path style="fill:#363E44;" d="M1227.46,1086.052c-2.532-5.284-2.072-11.656,1.45-16.561c1.122-0.441,2.278-0.84,3.492-1.142
								c12.121-3.017,24.052,2.998,24.052,2.998s-7.72,10.906-19.84,13.923C1233.479,1086.05,1230.364,1086.219,1227.46,1086.052z"
								/>
						</g>
					</g>
					<g>
						<path style="fill:#363E44;" d="M1280.002,1104.901c-0.199,0-0.401-0.06-0.576-0.184c-0.451-0.319-0.559-0.943-0.239-1.394
							c0.269-0.379,0.509-0.791,0.716-1.224c0.8-1.681,1.001-3.516,0.566-5.166c-0.419-1.589-1.383-2.813-2.714-3.447
							c-0.667-0.318-1.392-0.468-2.149-0.456c-0.007,0-0.014,0-0.02,0c-0.544,0-0.989-0.435-1-0.98
							c-0.011-0.552,0.428-1.009,0.98-1.02c1.068-0.023,2.098,0.198,3.048,0.65c1.872,0.891,3.217,2.575,3.788,4.743
							c0.556,2.107,0.309,4.428-0.694,6.536c-0.256,0.537-0.555,1.048-0.889,1.52
							C1280.624,1104.754,1280.315,1104.901,1280.002,1104.901z"/>
					</g>
					<path style="fill:#363E44;" d="M1198.204,1095.875c-0.324,0-0.643-0.158-0.835-0.448c-1.129-1.707-1.555-3.352-1.264-4.891
						c0.319-1.698,1.403-2.679,2.551-3.718c0.769-0.696,1.64-1.485,2.442-2.628c1.019-1.451,1.714-3.173,2.065-5.118
						c0.099-0.543,0.624-0.905,1.162-0.806c0.544,0.098,0.904,0.619,0.807,1.162c-0.404,2.232-1.211,4.22-2.397,5.911
						c-0.932,1.326-1.933,2.232-2.737,2.961c-1.043,0.945-1.732,1.569-1.928,2.606c-0.19,1.01,0.135,2.159,0.967,3.416
						c0.305,0.461,0.179,1.081-0.282,1.386C1198.585,1095.821,1198.394,1095.875,1198.204,1095.875z"/>
					<path style="fill:#363E44;" d="M1208.005,1112.353c-1.669,0-3.387-0.619-5.127-1.851c-0.45-0.319-0.558-0.943-0.238-1.394
						c0.32-0.451,0.944-0.557,1.395-0.238c1.837,1.301,3.579,1.747,5.179,1.326c2.996-0.788,4.673-4.288,4.689-4.323
						c0.235-0.499,0.831-0.715,1.331-0.479c0.5,0.235,0.714,0.831,0.479,1.331c-0.084,0.178-2.102,4.382-5.99,5.406
						C1209.156,1112.279,1208.584,1112.353,1208.005,1112.353z"/>
				</g>
			</g>
			<path style="fill:#D3BBA3;" d="M2155.937,1302.637H1058.107V902.691h1097.829V1302.637z M1060.107,1300.637h1093.829V904.691
				H1060.107V1300.637z"/>
			<g>
				<rect x="1498.018" y="986.177" style="fill:#D3BBA3;" width="328.532" height="18.752"/>
				<rect x="1867.29" y="986.177" style="fill:#D3BBA3;" width="219.923" height="18.752"/>
				<rect x="1498.018" y="1046.765" style="fill:#D3BBA3;" width="176.479" height="18.752"/>
				<rect x="1715.237" y="1046.765" style="fill:#D3BBA3;" width="350.254" height="18.752"/>
				<rect x="1715.237" y="1228.527" style="fill:#D3BBA3;" width="350.254" height="18.752"/>
				<rect x="1606.627" y="1107.353" style="fill:#D3BBA3;" width="371.976" height="18.752"/>
				<rect x="1606.627" y="1167.94" style="fill:#D3BBA3;" width="198.201" height="18.752"/>
			</g>
		</g>
		<g>
			<g>
				<path style="fill:#EFBC73;" d="M1922.316,2097.437h-7c-0.553,0-1-0.448-1-1s0.447-1,1-1h5v-5c0-0.552,0.447-1,1-1s1,0.448,1,1
					V2097.437z"/>
				<path style="fill:#EFBC73;" d="M1903.146,2097.437h-12.171c-0.553,0-1-0.448-1-1s0.447-1,1-1h12.171c0.553,0,1,0.448,1,1
					S1903.698,2097.437,1903.146,2097.437z M1878.803,2097.437h-12.171c-0.553,0-1-0.448-1-1s0.447-1,1-1h12.171
					c0.553,0,1,0.448,1,1S1879.355,2097.437,1878.803,2097.437z M1854.46,2097.437h-12.171c-0.553,0-1-0.448-1-1s0.447-1,1-1h12.171
					c0.553,0,1,0.448,1,1S1855.013,2097.437,1854.46,2097.437z M1830.117,2097.437h-12.171c-0.553,0-1-0.448-1-1s0.447-1,1-1h12.171
					c0.553,0,1,0.448,1,1S1830.67,2097.437,1830.117,2097.437z M1805.775,2097.437h-12.172c-0.553,0-1-0.448-1-1s0.447-1,1-1h12.172
					c0.553,0,1,0.448,1,1S1806.328,2097.437,1805.775,2097.437z M1781.433,2097.437h-12.172c-0.553,0-1-0.448-1-1s0.447-1,1-1
					h12.172c0.553,0,1,0.448,1,1S1781.985,2097.437,1781.433,2097.437z M1757.09,2097.437h-12.171c-0.553,0-1-0.448-1-1s0.447-1,1-1
					h12.171c0.553,0,1,0.448,1,1S1757.643,2097.437,1757.09,2097.437z M1732.747,2097.437h-12.171c-0.553,0-1-0.448-1-1s0.447-1,1-1
					h12.171c0.553,0,1,0.448,1,1S1733.3,2097.437,1732.747,2097.437z M1708.404,2097.437h-12.171c-0.553,0-1-0.448-1-1s0.447-1,1-1
					h12.171c0.553,0,1,0.448,1,1S1708.957,2097.437,1708.404,2097.437z M1684.062,2097.437h-12.171c-0.553,0-1-0.448-1-1
					s0.447-1,1-1h12.171c0.553,0,1,0.448,1,1S1684.614,2097.437,1684.062,2097.437z M1659.72,2097.437h-12.172c-0.553,0-1-0.448-1-1
					s0.447-1,1-1h12.172c0.553,0,1,0.448,1,1S1660.272,2097.437,1659.72,2097.437z M1635.377,2097.437h-12.172c-0.553,0-1-0.448-1-1
					s0.447-1,1-1h12.172c0.553,0,1,0.448,1,1S1635.93,2097.437,1635.377,2097.437z M1611.034,2097.437h-12.172c-0.553,0-1-0.448-1-1
					s0.447-1,1-1h12.172c0.553,0,1,0.448,1,1S1611.587,2097.437,1611.034,2097.437z"/>
				<path style="fill:#EFBC73;" d="M1586.691,2097.437h-7v-7c0-0.552,0.447-1,1-1s1,0.448,1,1v5h5c0.553,0,1,0.448,1,1
					S1587.244,2097.437,1586.691,2097.437z"/>
				<path style="fill:#EFBC73;" d="M1580.691,2079.266c-0.553,0-1-0.448-1-1v-12.171c0-0.552,0.447-1,1-1s1,0.448,1,1v12.171
					C1581.691,2078.818,1581.244,2079.266,1580.691,2079.266z M1580.691,2054.923c-0.553,0-1-0.448-1-1v-12.171c0-0.552,0.447-1,1-1
					s1,0.448,1,1v12.171C1581.691,2054.475,1581.244,2054.923,1580.691,2054.923z M1580.691,2030.58c-0.553,0-1-0.448-1-1v-12.171
					c0-0.552,0.447-1,1-1s1,0.448,1,1v12.171C1581.691,2030.133,1581.244,2030.58,1580.691,2030.58z M1580.691,2006.238
					c-0.553,0-1-0.448-1-1v-12.171c0-0.552,0.447-1,1-1s1,0.448,1,1v12.171C1581.691,2005.79,1581.244,2006.238,1580.691,2006.238z
					 M1580.691,1981.895c-0.553,0-1-0.448-1-1v-12.171c0-0.552,0.447-1,1-1s1,0.448,1,1v12.171
					C1581.691,1981.447,1581.244,1981.895,1580.691,1981.895z M1580.691,1957.552c-0.553,0-1-0.448-1-1v-12.171c0-0.552,0.447-1,1-1
					s1,0.448,1,1v12.171C1581.691,1957.105,1581.244,1957.552,1580.691,1957.552z M1580.691,1933.21c-0.553,0-1-0.448-1-1v-12.171
					c0-0.552,0.447-1,1-1s1,0.448,1,1v12.171C1581.691,1932.762,1581.244,1933.21,1580.691,1933.21z M1580.691,1908.867
					c-0.553,0-1-0.448-1-1v-12.171c0-0.552,0.447-1,1-1s1,0.448,1,1v12.171C1581.691,1908.419,1581.244,1908.867,1580.691,1908.867z
					 M1580.691,1884.525c-0.553,0-1-0.448-1-1v-12.171c0-0.552,0.447-1,1-1s1,0.448,1,1v12.171
					C1581.691,1884.077,1581.244,1884.525,1580.691,1884.525z M1580.691,1860.182c-0.553,0-1-0.448-1-1v-12.171c0-0.552,0.447-1,1-1
					s1,0.448,1,1v12.171C1581.691,1859.734,1581.244,1860.182,1580.691,1860.182z M1580.691,1835.839c-0.553,0-1-0.448-1-1v-12.171
					c0-0.552,0.447-1,1-1s1,0.448,1,1v12.171C1581.691,1835.392,1581.244,1835.839,1580.691,1835.839z M1580.691,1811.497
					c-0.553,0-1-0.448-1-1v-12.171c0-0.552,0.447-1,1-1s1,0.448,1,1v12.171C1581.691,1811.049,1581.244,1811.497,1580.691,1811.497z
					 M1580.691,1787.154c-0.553,0-1-0.448-1-1v-12.171c0-0.552,0.447-1,1-1s1,0.448,1,1v12.171
					C1581.691,1786.706,1581.244,1787.154,1580.691,1787.154z"/>
				<path style="fill:#EFBC73;" d="M1580.691,1762.812c-0.553,0-1-0.448-1-1v-7h7c0.553,0,1,0.448,1,1s-0.447,1-1,1h-5v5
					C1581.691,1762.364,1581.244,1762.812,1580.691,1762.812z"/>
				<path style="fill:#EFBC73;" d="M1903.146,1756.812h-12.172c-0.553,0-1-0.448-1-1s0.447-1,1-1h12.172c0.553,0,1,0.448,1,1
					S1903.699,1756.812,1903.146,1756.812z M1878.804,1756.812h-12.172c-0.553,0-1-0.448-1-1s0.447-1,1-1h12.172
					c0.553,0,1,0.448,1,1S1879.356,1756.812,1878.804,1756.812z M1854.461,1756.812h-12.172c-0.553,0-1-0.448-1-1s0.447-1,1-1
					h12.172c0.553,0,1,0.448,1,1S1855.014,1756.812,1854.461,1756.812z M1830.118,1756.812h-12.171c-0.553,0-1-0.448-1-1
					s0.447-1,1-1h12.171c0.553,0,1,0.448,1,1S1830.671,1756.812,1830.118,1756.812z M1805.775,1756.812h-12.171
					c-0.553,0-1-0.448-1-1s0.447-1,1-1h12.171c0.553,0,1,0.448,1,1S1806.328,1756.812,1805.775,1756.812z M1781.433,1756.812
					h-12.171c-0.553,0-1-0.448-1-1s0.447-1,1-1h12.171c0.553,0,1,0.448,1,1S1781.985,1756.812,1781.433,1756.812z M1757.09,1756.812
					h-12.171c-0.553,0-1-0.448-1-1s0.447-1,1-1h12.171c0.553,0,1,0.448,1,1S1757.643,1756.812,1757.09,1756.812z M1732.748,1756.812
					h-12.172c-0.553,0-1-0.448-1-1s0.447-1,1-1h12.172c0.553,0,1,0.448,1,1S1733.301,1756.812,1732.748,1756.812z
					 M1708.405,1756.812h-12.172c-0.553,0-1-0.448-1-1s0.447-1,1-1h12.172c0.553,0,1,0.448,1,1S1708.958,1756.812,1708.405,1756.812
					z M1684.063,1756.812h-12.171c-0.553,0-1-0.448-1-1s0.447-1,1-1h12.171c0.553,0,1,0.448,1,1
					S1684.615,1756.812,1684.063,1756.812z M1659.72,1756.812h-12.171c-0.553,0-1-0.448-1-1s0.447-1,1-1h12.171c0.553,0,1,0.448,1,1
					S1660.272,1756.812,1659.72,1756.812z M1635.377,1756.812h-12.171c-0.553,0-1-0.448-1-1s0.447-1,1-1h12.171c0.553,0,1,0.448,1,1
					S1635.93,1756.812,1635.377,1756.812z M1611.034,1756.812h-12.171c-0.553,0-1-0.448-1-1s0.447-1,1-1h12.171c0.553,0,1,0.448,1,1
					S1611.587,1756.812,1611.034,1756.812z"/>
				<path style="fill:#EFBC73;" d="M1921.316,1762.812c-0.553,0-1-0.448-1-1v-5h-5c-0.553,0-1-0.448-1-1s0.447-1,1-1h7v7
					C1922.316,1762.364,1921.869,1762.812,1921.316,1762.812z"/>
				<path style="fill:#EFBC73;" d="M1921.316,2079.266c-0.553,0-1-0.448-1-1v-12.171c0-0.552,0.447-1,1-1s1,0.448,1,1v12.171
					C1922.316,2078.818,1921.869,2079.266,1921.316,2079.266z M1921.316,2054.923c-0.553,0-1-0.448-1-1v-12.171c0-0.552,0.447-1,1-1
					s1,0.448,1,1v12.171C1922.316,2054.475,1921.869,2054.923,1921.316,2054.923z M1921.316,2030.58c-0.553,0-1-0.448-1-1v-12.171
					c0-0.552,0.447-1,1-1s1,0.448,1,1v12.171C1922.316,2030.133,1921.869,2030.58,1921.316,2030.58z M1921.316,2006.238
					c-0.553,0-1-0.448-1-1v-12.171c0-0.552,0.447-1,1-1s1,0.448,1,1v12.171C1922.316,2005.79,1921.869,2006.238,1921.316,2006.238z
					 M1921.316,1981.895c-0.553,0-1-0.448-1-1v-12.171c0-0.552,0.447-1,1-1s1,0.448,1,1v12.171
					C1922.316,1981.448,1921.869,1981.895,1921.316,1981.895z M1921.316,1957.552c-0.553,0-1-0.448-1-1v-12.171c0-0.552,0.447-1,1-1
					s1,0.448,1,1v12.171C1922.316,1957.105,1921.869,1957.552,1921.316,1957.552z M1921.316,1933.21c-0.553,0-1-0.448-1-1v-12.171
					c0-0.552,0.447-1,1-1s1,0.448,1,1v12.171C1922.316,1932.762,1921.869,1933.21,1921.316,1933.21z M1921.316,1908.867
					c-0.553,0-1-0.448-1-1v-12.171c0-0.552,0.447-1,1-1s1,0.448,1,1v12.171C1922.316,1908.42,1921.869,1908.867,1921.316,1908.867z
					 M1921.316,1884.525c-0.553,0-1-0.448-1-1v-12.171c0-0.552,0.447-1,1-1s1,0.448,1,1v12.171
					C1922.316,1884.077,1921.869,1884.525,1921.316,1884.525z M1921.316,1860.182c-0.553,0-1-0.448-1-1v-12.171c0-0.552,0.447-1,1-1
					s1,0.448,1,1v12.171C1922.316,1859.734,1921.869,1860.182,1921.316,1860.182z M1921.316,1835.839c-0.553,0-1-0.448-1-1v-12.171
					c0-0.552,0.447-1,1-1s1,0.448,1,1v12.171C1922.316,1835.392,1921.869,1835.839,1921.316,1835.839z M1921.316,1811.497
					c-0.553,0-1-0.448-1-1v-12.171c0-0.552,0.447-1,1-1s1,0.448,1,1v12.171C1922.316,1811.049,1921.869,1811.497,1921.316,1811.497z
					 M1921.316,1787.154c-0.553,0-1-0.448-1-1v-12.171c0-0.552,0.447-1,1-1s1,0.448,1,1v12.171
					C1922.316,1786.706,1921.869,1787.154,1921.316,1787.154z"/>
			</g>
			<g>
				
					<rect x="1544.634" y="1721.188" transform="matrix(0.9999 -0.0114 0.0114 0.9999 -21.4475 19.6235)" style="fill:#EFBC73;" width="332.245" height="340.246"/>
				<path style="fill:#FFFFFF;" d="M1590.953,1982.771c80.045-0.912,160.09-1.825,240.135-2.737
					c-36.806-117.769-59.573-147.411-74.248-145.62c-21.2,2.587-26.753,70.928-55.905,73.211
					c-17.524,1.372-24.813-22.597-42.49-23.267C1643.243,1883.781,1620.788,1900.456,1590.953,1982.771z"/>
				
					<ellipse transform="matrix(0.7071 -0.7071 0.7071 0.7071 -795.3667 1709.804)" style="fill:#FFFFFF;" cx="1666.233" cy="1814.995" rx="31.007" ry="31.007"/>
			</g>
		</g>
		<g>
			<g>
				<path style="fill:#F7F1EB;" d="M2050.686,843.534h-7c-0.553,0-1-0.448-1-1c0-0.552,0.447-1,1-1h5v-5c0-0.552,0.447-1,1-1
					s1,0.448,1,1V843.534z"/>
				<path style="fill:#F7F1EB;" d="M2031.928,843.534h-11.758c-0.553,0-1-0.448-1-1c0-0.552,0.447-1,1-1h11.758c0.553,0,1,0.448,1,1
					C2032.928,843.086,2032.48,843.534,2031.928,843.534z M2008.411,843.534h-11.758c-0.553,0-1-0.448-1-1c0-0.552,0.447-1,1-1
					h11.758c0.553,0,1,0.448,1,1C2009.411,843.086,2008.964,843.534,2008.411,843.534z M1984.896,843.534h-11.758
					c-0.553,0-1-0.448-1-1c0-0.552,0.447-1,1-1h11.758c0.553,0,1,0.448,1,1C1985.896,843.086,1985.448,843.534,1984.896,843.534z
					 M1961.379,843.534h-11.758c-0.553,0-1-0.448-1-1c0-0.552,0.447-1,1-1h11.758c0.553,0,1,0.448,1,1
					C1962.379,843.086,1961.932,843.534,1961.379,843.534z M1937.863,843.534h-11.758c-0.553,0-1-0.448-1-1c0-0.552,0.447-1,1-1
					h11.758c0.553,0,1,0.448,1,1C1938.863,843.086,1938.416,843.534,1937.863,843.534z M1914.347,843.534h-11.758
					c-0.553,0-1-0.448-1-1c0-0.552,0.447-1,1-1h11.758c0.553,0,1,0.448,1,1C1915.347,843.086,1914.899,843.534,1914.347,843.534z
					 M1890.831,843.534h-11.758c-0.553,0-1-0.448-1-1c0-0.552,0.447-1,1-1h11.758c0.553,0,1,0.448,1,1
					C1891.831,843.086,1891.384,843.534,1890.831,843.534z M1867.314,843.534h-11.758c-0.553,0-1-0.448-1-1c0-0.552,0.447-1,1-1
					h11.758c0.553,0,1,0.448,1,1C1868.314,843.086,1867.867,843.534,1867.314,843.534z M1843.799,843.534h-11.758
					c-0.553,0-1-0.448-1-1c0-0.552,0.447-1,1-1h11.758c0.553,0,1,0.448,1,1C1844.799,843.086,1844.352,843.534,1843.799,843.534z
					 M1820.282,843.534h-11.758c-0.553,0-1-0.448-1-1c0-0.552,0.447-1,1-1h11.758c0.553,0,1,0.448,1,1
					C1821.282,843.086,1820.835,843.534,1820.282,843.534z M1796.767,843.534h-11.758c-0.553,0-1-0.448-1-1c0-0.552,0.447-1,1-1
					h11.758c0.553,0,1,0.448,1,1C1797.767,843.086,1797.319,843.534,1796.767,843.534z M1773.25,843.534h-11.758
					c-0.553,0-1-0.448-1-1c0-0.552,0.447-1,1-1h11.758c0.553,0,1,0.448,1,1C1774.25,843.086,1773.803,843.534,1773.25,843.534z
					 M1749.734,843.534h-11.758c-0.553,0-1-0.448-1-1c0-0.552,0.447-1,1-1h11.758c0.553,0,1,0.448,1,1
					C1750.734,843.086,1750.287,843.534,1749.734,843.534z M1726.218,843.534h-11.758c-0.553,0-1-0.448-1-1c0-0.552,0.447-1,1-1
					h11.758c0.553,0,1,0.448,1,1C1727.218,843.086,1726.771,843.534,1726.218,843.534z"/>
				<path style="fill:#F7F1EB;" d="M1702.701,843.534h-7v-7c0-0.552,0.447-1,1-1s1,0.448,1,1v5h5c0.553,0,1,0.448,1,1
					C1703.701,843.086,1703.254,843.534,1702.701,843.534z"/>
				<path style="fill:#F7F1EB;" d="M1696.701,825.776c-0.553,0-1-0.448-1-1v-11.758c0-0.552,0.447-1,1-1s1,0.448,1,1v11.758
					C1697.701,825.328,1697.254,825.776,1696.701,825.776z M1696.701,802.26c-0.553,0-1-0.448-1-1v-11.758c0-0.552,0.447-1,1-1
					s1,0.448,1,1v11.758C1697.701,801.812,1697.254,802.26,1696.701,802.26z M1696.701,778.744c-0.553,0-1-0.448-1-1v-11.758
					c0-0.552,0.447-1,1-1s1,0.448,1,1v11.758C1697.701,778.296,1697.254,778.744,1696.701,778.744z M1696.701,755.227
					c-0.553,0-1-0.448-1-1v-11.758c0-0.552,0.447-1,1-1s1,0.448,1,1v11.758C1697.701,754.78,1697.254,755.227,1696.701,755.227z
					 M1696.701,731.711c-0.553,0-1-0.448-1-1v-11.758c0-0.552,0.447-1,1-1s1,0.448,1,1v11.758
					C1697.701,731.264,1697.254,731.711,1696.701,731.711z M1696.701,708.195c-0.553,0-1-0.448-1-1v-11.758c0-0.552,0.447-1,1-1
					s1,0.448,1,1v11.758C1697.701,707.748,1697.254,708.195,1696.701,708.195z M1696.701,684.679c-0.553,0-1-0.448-1-1v-11.758
					c0-0.552,0.447-1,1-1s1,0.448,1,1v11.758C1697.701,684.231,1697.254,684.679,1696.701,684.679z M1696.701,661.163
					c-0.553,0-1-0.448-1-1v-11.758c0-0.552,0.447-1,1-1s1,0.448,1,1v11.758C1697.701,660.715,1697.254,661.163,1696.701,661.163z
					 M1696.701,637.647c-0.553,0-1-0.448-1-1v-11.758c0-0.552,0.447-1,1-1s1,0.448,1,1v11.758
					C1697.701,637.199,1697.254,637.647,1696.701,637.647z M1696.701,614.131c-0.553,0-1-0.448-1-1v-11.758c0-0.552,0.447-1,1-1
					s1,0.448,1,1v11.758C1697.701,613.683,1697.254,614.131,1696.701,614.131z M1696.701,590.615c-0.553,0-1-0.448-1-1v-11.758
					c0-0.552,0.447-1,1-1s1,0.448,1,1v11.758C1697.701,590.167,1697.254,590.615,1696.701,590.615z M1696.701,567.098
					c-0.553,0-1-0.448-1-1V554.34c0-0.552,0.447-1,1-1s1,0.448,1,1v11.758C1697.701,566.651,1697.254,567.098,1696.701,567.098z
					 M1696.701,543.582c-0.553,0-1-0.448-1-1v-11.758c0-0.552,0.447-1,1-1s1,0.448,1,1v11.758
					C1697.701,543.135,1697.254,543.582,1696.701,543.582z M1696.701,520.066c-0.553,0-1-0.448-1-1v-11.758c0-0.552,0.447-1,1-1
					s1,0.448,1,1v11.758C1697.701,519.619,1697.254,520.066,1696.701,520.066z"/>
				<path style="fill:#F7F1EB;" d="M1696.701,496.55c-0.553,0-1-0.448-1-1v-7h7c0.553,0,1,0.448,1,1c0,0.552-0.447,1-1,1h-5v5
					C1697.701,496.102,1697.254,496.55,1696.701,496.55z"/>
				<path style="fill:#F7F1EB;" d="M2031.927,490.55h-11.758c-0.553,0-1-0.448-1-1c0-0.552,0.447-1,1-1h11.758c0.553,0,1,0.448,1,1
					C2032.927,490.102,2032.479,490.55,2031.927,490.55z M2008.41,490.55h-11.758c-0.553,0-1-0.448-1-1c0-0.552,0.447-1,1-1h11.758
					c0.553,0,1,0.448,1,1C2009.41,490.102,2008.963,490.55,2008.41,490.55z M1984.895,490.55h-11.758c-0.553,0-1-0.448-1-1
					c0-0.552,0.447-1,1-1h11.758c0.553,0,1,0.448,1,1C1985.895,490.102,1985.447,490.55,1984.895,490.55z M1961.378,490.55h-11.758
					c-0.553,0-1-0.448-1-1c0-0.552,0.447-1,1-1h11.758c0.553,0,1,0.448,1,1C1962.378,490.102,1961.931,490.55,1961.378,490.55z
					 M1937.862,490.55h-11.758c-0.553,0-1-0.448-1-1c0-0.552,0.447-1,1-1h11.758c0.553,0,1,0.448,1,1
					C1938.862,490.102,1938.415,490.55,1937.862,490.55z M1914.346,490.55h-11.758c-0.553,0-1-0.448-1-1c0-0.552,0.447-1,1-1h11.758
					c0.553,0,1,0.448,1,1C1915.346,490.102,1914.898,490.55,1914.346,490.55z M1890.83,490.55h-11.758c-0.553,0-1-0.448-1-1
					c0-0.552,0.447-1,1-1h11.758c0.553,0,1,0.448,1,1C1891.83,490.102,1891.383,490.55,1890.83,490.55z M1867.313,490.55h-11.758
					c-0.553,0-1-0.448-1-1c0-0.552,0.447-1,1-1h11.758c0.553,0,1,0.448,1,1C1868.313,490.102,1867.866,490.55,1867.313,490.55z
					 M1843.798,490.55h-11.758c-0.553,0-1-0.448-1-1c0-0.552,0.447-1,1-1h11.758c0.553,0,1,0.448,1,1
					C1844.798,490.102,1844.351,490.55,1843.798,490.55z M1820.281,490.55h-11.758c-0.553,0-1-0.448-1-1c0-0.552,0.447-1,1-1h11.758
					c0.553,0,1,0.448,1,1C1821.281,490.102,1820.834,490.55,1820.281,490.55z M1796.766,490.55h-11.758c-0.553,0-1-0.448-1-1
					c0-0.552,0.447-1,1-1h11.758c0.553,0,1,0.448,1,1C1797.766,490.102,1797.318,490.55,1796.766,490.55z M1773.249,490.55h-11.758
					c-0.553,0-1-0.448-1-1c0-0.552,0.447-1,1-1h11.758c0.553,0,1,0.448,1,1C1774.249,490.102,1773.802,490.55,1773.249,490.55z
					 M1749.733,490.55h-11.758c-0.553,0-1-0.448-1-1c0-0.552,0.447-1,1-1h11.758c0.553,0,1,0.448,1,1
					C1750.733,490.102,1750.286,490.55,1749.733,490.55z M1726.217,490.55h-11.758c-0.553,0-1-0.448-1-1c0-0.552,0.447-1,1-1h11.758
					c0.553,0,1,0.448,1,1C1727.217,490.102,1726.77,490.55,1726.217,490.55z"/>
				<path style="fill:#F7F1EB;" d="M2049.686,496.55c-0.553,0-1-0.448-1-1v-5h-5c-0.553,0-1-0.448-1-1c0-0.552,0.447-1,1-1h7v7
					C2050.686,496.102,2050.238,496.55,2049.686,496.55z"/>
				<path style="fill:#F7F1EB;" d="M2049.686,825.776c-0.553,0-1-0.448-1-1v-11.758c0-0.552,0.447-1,1-1s1,0.448,1,1v11.758
					C2050.686,825.328,2050.238,825.776,2049.686,825.776z M2049.686,802.26c-0.553,0-1-0.448-1-1v-11.758c0-0.552,0.447-1,1-1
					s1,0.448,1,1v11.758C2050.686,801.812,2050.238,802.26,2049.686,802.26z M2049.686,778.744c-0.553,0-1-0.448-1-1v-11.758
					c0-0.552,0.447-1,1-1s1,0.448,1,1v11.758C2050.686,778.296,2050.238,778.744,2049.686,778.744z M2049.686,755.227
					c-0.553,0-1-0.448-1-1v-11.758c0-0.552,0.447-1,1-1s1,0.448,1,1v11.758C2050.686,754.78,2050.238,755.227,2049.686,755.227z
					 M2049.686,731.711c-0.553,0-1-0.448-1-1v-11.758c0-0.552,0.447-1,1-1s1,0.448,1,1v11.758
					C2050.686,731.264,2050.238,731.711,2049.686,731.711z M2049.686,708.195c-0.553,0-1-0.448-1-1v-11.758c0-0.552,0.447-1,1-1
					s1,0.448,1,1v11.758C2050.686,707.747,2050.238,708.195,2049.686,708.195z M2049.686,684.679c-0.553,0-1-0.448-1-1v-11.758
					c0-0.552,0.447-1,1-1s1,0.448,1,1v11.758C2050.686,684.231,2050.238,684.679,2049.686,684.679z M2049.686,661.163
					c-0.553,0-1-0.448-1-1v-11.758c0-0.552,0.447-1,1-1s1,0.448,1,1v11.758C2050.686,660.715,2050.238,661.163,2049.686,661.163z
					 M2049.686,637.647c-0.553,0-1-0.448-1-1v-11.758c0-0.552,0.447-1,1-1s1,0.448,1,1v11.758
					C2050.686,637.199,2050.238,637.647,2049.686,637.647z M2049.686,614.131c-0.553,0-1-0.448-1-1v-11.758c0-0.552,0.447-1,1-1
					s1,0.448,1,1v11.758C2050.686,613.683,2050.238,614.131,2049.686,614.131z M2049.686,590.615c-0.553,0-1-0.448-1-1v-11.758
					c0-0.552,0.447-1,1-1s1,0.448,1,1v11.758C2050.686,590.167,2050.238,590.615,2049.686,590.615z M2049.686,567.098
					c-0.553,0-1-0.448-1-1V554.34c0-0.552,0.447-1,1-1s1,0.448,1,1v11.758C2050.686,566.651,2050.238,567.098,2049.686,567.098z
					 M2049.686,543.582c-0.553,0-1-0.448-1-1v-11.758c0-0.552,0.447-1,1-1s1,0.448,1,1v11.758
					C2050.686,543.135,2050.238,543.582,2049.686,543.582z M2049.686,520.066c-0.553,0-1-0.448-1-1v-11.758c0-0.552,0.447-1,1-1
					s1,0.448,1,1v11.758C2050.686,519.618,2050.238,520.066,2049.686,520.066z"/>
			</g>
			<g>
				<rect x="1629.257" y="449.281" style="fill:#F7F1EB;" width="379.189" height="356.448"/>
			</g>
			<rect x="1657.201" y="747.355" style="fill:#D3BBA3;" width="323.303" height="20.579"/>
			<g>
				<polygon style="fill:#D3BBA3;" points="1893.403,571.195 1778.499,626.575 1774.401,583.528 1889.305,528.148 				"/>
				<path style="fill:#D3BBA3;" d="M1789.083,703.686c-0.765,0-1.417-0.582-1.491-1.358l-9.744-102.356
					c-0.078-0.825,0.526-1.557,1.351-1.635c0.819-0.079,1.557,0.526,1.636,1.351l9.744,102.356c0.078,0.825-0.526,1.557-1.351,1.635
					C1789.179,703.683,1789.131,703.686,1789.083,703.686z"/>
				<path style="fill:#D3BBA3;" d="M1897.77,653.341c-0.765,0-1.417-0.582-1.491-1.358l-9.743-102.356
					c-0.078-0.825,0.526-1.557,1.351-1.635s1.557,0.526,1.636,1.351l9.743,102.356c0.078,0.825-0.526,1.557-1.351,1.635
					C1897.865,653.339,1897.817,653.341,1897.77,653.341z"/>
				
					<ellipse transform="matrix(0.9381 -0.3464 0.3464 0.9381 -134.2921 657.1653)" style="fill:#D3BBA3;" cx="1771.336" cy="704.277" rx="21.14" ry="21.14"/>
				
					<ellipse transform="matrix(0.9246 -0.3808 0.3808 0.9246 -106.5616 765.0386)" style="fill:#D3BBA3;" cx="1879.91" cy="651.792" rx="21.14" ry="21.14"/>
			</g>
		</g>
		<g>
			<circle style="fill:#E6D0BE;" cx="496.687" cy="1034.476" r="159.878"/>
			<path style="fill:#FFFFFF;" d="M519.87,1195.353c-0.319,0-0.632-0.001-0.952-0.003c-42.972-0.247-83.274-17.214-113.484-47.774
				s-46.712-71.056-46.464-114.027c0.247-42.971,17.214-83.274,47.773-113.484c30.333-29.985,70.461-46.467,113.075-46.467
				c0.319,0,0.632,0.001,0.952,0.003c42.972,0.247,83.274,17.214,113.484,47.774c30.21,30.56,46.712,71.056,46.464,114.027l-1-0.006
				l1,0.006c-0.247,42.971-17.214,83.274-47.773,113.484C602.612,1178.872,562.484,1195.353,519.87,1195.353z M519.818,875.598
				c-42.088,0-81.712,16.275-111.669,45.889c-30.181,29.835-46.936,69.637-47.18,112.074
				c-0.244,42.437,16.052,82.429,45.886,112.609c29.835,30.18,69.637,46.936,112.074,47.18c0.314,0.002,0.628,0.003,0.94,0.003
				c42.087,0,81.711-16.275,111.669-45.889c30.18-29.835,46.935-69.637,47.18-112.074l0,0
				c0.244-42.437-16.052-82.429-45.886-112.609c-29.835-30.18-69.637-46.936-112.074-47.18
				C520.445,875.599,520.132,875.598,519.818,875.598z"/>
			<path style="fill:#FFFFFF;" d="M520.124,957.923c-44.444,0-88.131-7.484-126.338-21.642l0.695-1.875
				c37.986,14.077,81.434,21.517,125.643,21.517c43.87,0,87.027-7.334,124.805-21.208l0.69,1.877
				C607.622,950.547,564.227,957.923,520.124,957.923z"/>
			<path style="fill:#FFFFFF;" d="M393.022,1132.33l-0.705-1.872c38.573-14.517,82.768-22.19,127.807-22.19
				c44.796,0,88.783,7.596,127.207,21.966l-0.701,1.873c-38.201-14.287-81.946-21.839-126.506-21.839
				C475.323,1110.268,431.372,1117.897,393.022,1132.33z"/>
			<path style="fill:#FFFFFF;" d="M519.844,1195.353c-22.564,0-43.724-16.822-59.581-47.366
				c-15.751-30.337-24.425-70.649-24.425-113.511c0-42.862,8.674-83.175,24.425-113.511c15.857-30.545,37.018-47.366,59.581-47.366
				c22.563,0,43.724,16.822,59.582,47.366c15.751,30.336,24.425,70.649,24.425,113.511c0,42.862-8.674,83.175-24.425,113.511
				C563.567,1178.532,542.407,1195.353,519.844,1195.353z M519.844,875.598c-45.218,0-82.006,71.272-82.006,158.877
				s36.788,158.878,82.006,158.878c45.219,0,82.007-71.272,82.007-158.878S565.063,875.598,519.844,875.598z"/>
			<rect x="518.844" y="874.939" style="fill:#FFFFFF;" width="2" height="319.202"/>
			
				<rect x="518.814" y="873.557" transform="matrix(0.0078 -1 1 0.0078 -517.7109 1545.2467)" style="fill:#FFFFFF;" width="2" height="319.895"/>
		</g>
		<g>
			<polygon style="fill:#FFFFFF;" points="898.87,1027.078 1006.564,1058.462 912.861,902.736 			"/>
			
				<ellipse transform="matrix(0.7071 -0.7071 0.7071 0.7071 -410.4116 915.6732)" style="fill:#FFFFFF;" cx="900.11" cy="953.247" rx="105.215" ry="105.215"/>
			<path style="fill:#D87355;" d="M958.069,933.688c-4.347-13.972-17.378-24.117-32.78-24.117l0,0h-0.001
				c-9.963,0-18.909,4.271-25.178,11.053c-6.269-6.781-15.215-11.053-25.178-11.053l0,0c0,0,0,0-0.001,0
				c-15.402,0-28.434,10.145-32.779,24.117c-1.003,3.224-1.543,6.652-1.543,10.207c0,18.956,22.416,51.135,59.502,65.144
				c37.087-14.01,59.502-46.188,59.502-65.144C959.612,940.341,959.072,936.912,958.069,933.688z"/>
		</g>
		<g>
			<g>
				<polygon style="fill:#FFFFFF;" points="1672.122,1642.249 1638.038,1480.603 1792.487,1365.931 				"/>
				<polygon style="fill:#FFFFFF;" points="1490.325,1397.817 1635.2,1477.205 1789.648,1362.534 				"/>
			</g>
			<path style="fill:#D87355;" d="M1207.46,1676.125c-0.183,0-0.368-0.05-0.533-0.155c-0.543-0.343-1.078-0.691-1.608-1.043
				c-0.46-0.306-0.585-0.926-0.279-1.386c0.305-0.46,0.926-0.585,1.387-0.279c0.517,0.344,1.04,0.683,1.569,1.018
				c0.467,0.295,0.606,0.913,0.311,1.38C1208.116,1675.96,1207.791,1676.125,1207.46,1676.125z M1196.399,1667.758
				c-0.238,0-0.477-0.084-0.668-0.256c-2.979-2.675-5.811-5.612-8.415-8.731c-0.354-0.424-0.297-1.054,0.127-1.408
				c0.424-0.355,1.055-0.297,1.408,0.126c2.544,3.046,5.308,5.914,8.216,8.525c0.411,0.369,0.445,1.001,0.076,1.412
				C1196.946,1667.646,1196.673,1667.758,1196.399,1667.758z M1181.044,1649.428c-0.332,0-0.657-0.166-0.848-0.468
				c-2.103-3.344-4.057-6.92-5.807-10.629c-0.235-0.5-0.021-1.095,0.478-1.331c0.5-0.236,1.095-0.021,1.331,0.478
				c1.716,3.637,3.631,7.142,5.691,10.418c0.294,0.467,0.153,1.085-0.314,1.379
				C1181.41,1649.378,1181.226,1649.428,1181.044,1649.428z M1170.769,1627.795c-0.414,0-0.801-0.259-0.944-0.671
				c-1.291-3.704-2.446-7.605-3.436-11.594c-0.133-0.536,0.194-1.078,0.73-1.211c0.526-0.132,1.077,0.193,1.211,0.73
				c0.975,3.93,2.112,7.771,3.383,11.417c0.182,0.522-0.094,1.092-0.615,1.273
				C1170.988,1627.777,1170.878,1627.795,1170.769,1627.795z M1164.948,1604.53c-0.481,0-0.905-0.348-0.985-0.838
				c-0.638-3.876-1.151-7.907-1.529-11.979c-0.051-0.55,0.354-1.037,0.904-1.088c0.557-0.052,1.036,0.354,1.088,0.903
				c0.373,4.026,0.881,8.009,1.51,11.84c0.09,0.545-0.279,1.059-0.824,1.149C1165.057,1604.526,1165.002,1604.53,1164.948,1604.53z
				 M1162.71,1580.634c-0.54,0-0.984-0.429-1-0.972c-0.054-1.916-0.081-3.855-0.081-5.762c0-2.074,0.032-4.194,0.096-6.301
				c0.018-0.552,0.497-0.985,1.03-0.969c0.552,0.017,0.986,0.478,0.97,1.03c-0.063,2.087-0.096,4.186-0.096,6.24
				c0,1.888,0.027,3.808,0.081,5.706c0.016,0.552-0.42,1.012-0.972,1.028C1162.729,1580.634,1162.719,1580.634,1162.71,1580.634z
				 M1163.393,1556.649c-0.027,0-0.056-0.001-0.084-0.004c-0.551-0.046-0.959-0.529-0.913-1.08
				c0.331-3.972,0.823-8.004,1.463-11.985c0.087-0.545,0.599-0.916,1.146-0.829c0.546,0.088,0.917,0.601,0.829,1.146
				c-0.632,3.931-1.117,7.912-1.445,11.834C1164.345,1556.254,1163.907,1556.649,1163.393,1556.649z M1167.188,1532.971
				c-0.076,0-0.154-0.009-0.231-0.027c-0.538-0.128-0.87-0.667-0.742-1.204c0.921-3.883,2-7.798,3.207-11.637
				c0.166-0.526,0.724-0.821,1.254-0.654c0.527,0.166,0.819,0.727,0.654,1.254c-1.193,3.794-2.26,7.662-3.17,11.499
				C1168.052,1532.661,1167.642,1532.971,1167.188,1532.971z M1553.238,1515.928c-0.55,0-0.997-0.444-1-0.994
				c-0.003-0.552,0.441-1.003,0.994-1.006c1.129-0.007,2.283-0.042,3.43-0.105c2.772-0.152,5.582-0.468,8.349-0.939
				c0.55-0.094,1.062,0.273,1.153,0.818c0.093,0.544-0.272,1.061-0.817,1.154c-2.842,0.484-5.727,0.809-8.575,0.964
				c-1.179,0.064-2.365,0.101-3.527,0.108C1553.242,1515.928,1553.24,1515.928,1553.238,1515.928z M1541.321,1514.939
				c-0.058,0-0.115-0.005-0.174-0.015c-3.932-0.692-7.874-1.765-11.718-3.191c-0.518-0.192-0.782-0.767-0.59-1.285
				c0.191-0.518,0.77-0.782,1.285-0.59c3.73,1.383,7.556,2.425,11.368,3.096c0.544,0.096,0.908,0.614,0.813,1.158
				C1542.22,1514.597,1541.798,1514.939,1541.321,1514.939z M1576.808,1511.95c-0.419,0-0.81-0.265-0.949-0.684
				c-0.174-0.524,0.109-1.09,0.634-1.265c3.662-1.219,7.347-2.744,10.952-4.531c0.494-0.245,1.096-0.043,1.34,0.452
				c0.246,0.495,0.043,1.095-0.451,1.34c-3.688,1.828-7.46,3.388-11.21,4.637C1577.019,1511.934,1576.912,1511.95,1576.808,1511.95z
				 M1174.378,1510.09c-0.122,0-0.246-0.022-0.366-0.07c-0.514-0.202-0.767-0.783-0.564-1.297c1.465-3.72,3.083-7.444,4.811-11.069
				c0.237-0.498,0.832-0.711,1.332-0.473c0.499,0.238,0.711,0.834,0.473,1.333c-1.706,3.583-3.306,7.265-4.754,10.942
				C1175.153,1509.85,1174.776,1510.09,1174.378,1510.09z M1518.924,1506.745c-0.165,0-0.332-0.041-0.487-0.127
				c-3.344-1.869-6.676-4.006-10.186-6.531c-0.448-0.323-0.551-0.948-0.228-1.396c0.321-0.448,0.947-0.55,1.396-0.228
				c3.447,2.48,6.716,4.577,9.994,6.409c0.481,0.27,0.654,0.879,0.385,1.361C1519.614,1506.561,1519.274,1506.745,1518.924,1506.745
				z M1499.391,1492.881c-0.227,0-0.455-0.077-0.643-0.234c-2.744-2.305-5.699-4.909-9.035-7.959
				c-0.407-0.373-0.436-1.005-0.063-1.413c0.373-0.408,1.008-0.435,1.413-0.063c3.314,3.032,6.25,5.617,8.973,7.904
				c0.423,0.355,0.478,0.986,0.122,1.409C1499.96,1492.76,1499.677,1492.881,1499.391,1492.881z M1184.689,1488.436
				c-0.166,0-0.335-0.042-0.49-0.129c-0.481-0.271-0.651-0.881-0.38-1.362c1.966-3.487,4.082-6.953,6.288-10.3
				c0.305-0.461,0.923-0.589,1.386-0.285c0.461,0.304,0.588,0.924,0.284,1.385c-2.181,3.309-4.272,6.735-6.216,10.182
				C1185.378,1488.253,1185.039,1488.436,1184.689,1488.436z M1481.614,1476.762c-0.247,0-0.493-0.09-0.687-0.273l-2.111-1.996
				c-2.174-2.057-4.376-4.14-6.616-6.236c-0.403-0.377-0.424-1.01-0.047-1.413c0.378-0.404,1.01-0.424,1.414-0.047
				c2.242,2.099,4.447,4.184,6.624,6.243l2.109,1.995c0.401,0.379,0.42,1.012,0.04,1.414
				C1482.145,1476.656,1481.88,1476.762,1481.614,1476.762z M1197.888,1468.411c-0.212,0-0.425-0.067-0.606-0.205
				c-0.438-0.335-0.522-0.963-0.188-1.402c2.439-3.192,5.017-6.33,7.66-9.327c0.365-0.415,0.999-0.453,1.411-0.088
				c0.415,0.365,0.454,0.997,0.089,1.411c-2.613,2.962-5.16,6.063-7.57,9.218
				C1198.486,1468.276,1198.188,1468.411,1197.888,1468.411z M1464.045,1460.411c-0.238,0-0.477-0.084-0.667-0.255
				c-3.183-2.851-6.141-5.413-9.043-7.831c-0.425-0.354-0.482-0.984-0.129-1.408c0.354-0.424,0.983-0.482,1.408-0.128
				c2.922,2.434,5.897,5.011,9.098,7.878c0.412,0.369,0.446,1.001,0.078,1.412
				C1464.592,1460.298,1464.319,1460.411,1464.045,1460.411z M1213.76,1450.433c-0.259,0-0.518-0.1-0.714-0.3
				c-0.387-0.394-0.381-1.027,0.014-1.414c2.871-2.817,5.872-5.553,8.921-8.132c0.422-0.357,1.052-0.303,1.409,0.117
				c0.356,0.422,0.304,1.053-0.118,1.409c-3.011,2.548-5.975,5.251-8.812,8.033
				C1214.266,1450.338,1214.013,1450.433,1213.76,1450.433z M1445.581,1445.092c-0.21,0-0.421-0.066-0.602-0.202
				c-3.235-2.443-6.507-4.772-9.724-6.923c-0.459-0.307-0.583-0.928-0.275-1.387c0.307-0.46,0.928-0.582,1.387-0.275
				c3.249,2.173,6.552,4.524,9.817,6.99c0.44,0.333,0.528,0.96,0.195,1.401C1446.184,1444.955,1445.884,1445.092,1445.581,1445.092z
				 M1232.067,1434.95c-0.31,0-0.615-0.143-0.811-0.414c-0.324-0.447-0.225-1.073,0.223-1.396c3.262-2.362,6.642-4.616,10.045-6.701
				c0.472-0.289,1.087-0.14,1.375,0.331c0.289,0.471,0.141,1.087-0.33,1.375c-3.36,2.057-6.696,4.283-9.916,6.615
				C1232.476,1434.888,1232.271,1434.95,1232.067,1434.95z M1425.633,1431.792c-0.17,0-0.342-0.043-0.5-0.135
				c-1.63-0.943-3.287-1.866-4.925-2.745c-0.511-0.274-2.428-1.283-5.642-2.773c-0.501-0.232-0.719-0.827-0.486-1.328
				c0.231-0.501,0.824-0.719,1.328-0.487c3.262,1.513,5.222,2.545,5.745,2.825c1.657,0.889,3.333,1.823,4.981,2.776
				c0.478,0.277,0.642,0.888,0.364,1.366C1426.314,1431.613,1425.979,1431.792,1425.633,1431.792z M1252.52,1422.436
				c-0.364,0-0.716-0.2-0.893-0.547c-0.25-0.492-0.054-1.094,0.438-1.344c0.449-0.228,0.899-0.455,1.352-0.679
				c3.146-1.559,6.385-3.025,9.628-4.357c0.508-0.209,1.096,0.034,1.305,0.545c0.21,0.511-0.034,1.095-0.545,1.305
				c-3.199,1.314-6.396,2.76-9.499,4.299c-0.446,0.221-0.891,0.444-1.334,0.67
				C1252.826,1422.401,1252.672,1422.436,1252.52,1422.436z M1403.939,1421.518c-0.122,0-0.246-0.022-0.366-0.07
				c-3.657-1.439-7.438-2.814-11.236-4.087c-0.524-0.175-0.807-0.742-0.631-1.266c0.177-0.524,0.743-0.806,1.266-0.631
				c3.832,1.284,7.645,2.671,11.334,4.122c0.514,0.202,0.767,0.783,0.564,1.297
				C1404.715,1421.278,1404.338,1421.518,1403.939,1421.518z M1381.179,1413.888c-0.09,0-0.181-0.012-0.271-0.037
				c-3.843-1.075-7.742-2.058-11.59-2.922c-0.539-0.121-0.878-0.656-0.757-1.195c0.121-0.539,0.657-0.877,1.194-0.757
				c3.882,0.872,7.815,1.864,11.691,2.948c0.531,0.149,0.842,0.7,0.693,1.232
				C1382.018,1413.599,1381.615,1413.888,1381.179,1413.888z M1274.694,1413.325c-0.424,0-0.816-0.271-0.952-0.696
				c-0.169-0.526,0.121-1.089,0.647-1.257c3.802-1.216,7.717-2.301,11.637-3.224c0.538-0.126,1.076,0.206,1.203,0.744
				c0.126,0.538-0.207,1.076-0.744,1.203c-3.87,0.911-7.734,1.982-11.486,3.182
				C1274.897,1413.31,1274.795,1413.325,1274.694,1413.325z M1357.761,1408.636c-0.055,0-0.111-0.005-0.167-0.014
				c-3.948-0.665-7.929-1.221-11.83-1.652c-0.55-0.061-0.945-0.555-0.885-1.104c0.061-0.548,0.554-0.944,1.104-0.884
				c3.94,0.435,7.958,0.996,11.943,1.668c0.545,0.092,0.912,0.608,0.82,1.152C1358.663,1408.291,1358.24,1408.636,1357.761,1408.636
				z M1298.024,1407.819c-0.484,0-0.909-0.352-0.987-0.845c-0.085-0.546,0.288-1.057,0.833-1.143
				c3.923-0.616,7.953-1.099,11.979-1.435c0.557-0.047,1.034,0.363,1.079,0.913c0.047,0.55-0.362,1.034-0.913,1.08
				c-3.978,0.333-7.96,0.809-11.835,1.418C1298.128,1407.815,1298.076,1407.819,1298.024,1407.819z M1333.912,1406.017
				c-0.017,0-0.033,0-0.051-0.001c-3.996-0.198-7.971-0.269-11.934-0.209c-0.535,0.011-1.006-0.433-1.015-0.985
				c-0.008-0.552,0.433-1.007,0.985-1.015c4.007-0.06,8.022,0.012,12.063,0.211c0.551,0.027,0.977,0.497,0.949,1.048
				C1334.884,1405.601,1334.441,1406.017,1333.912,1406.017z"/>
		</g>
		<g>
			<polygon style="fill:#FFFFFF;" points="1939.481,1597.487 1831.788,1628.871 1925.49,1473.145 			"/>
			
				<ellipse transform="matrix(0.7071 -0.7071 0.7071 0.7071 -509.6898 1816.8125)" style="fill:#FFFFFF;" cx="1938.242" cy="1523.656" rx="105.215" ry="105.215"/>
			<path style="fill:#D87355;" d="M1880.282,1504.097c4.347-13.972,17.378-24.117,32.781-24.117l0,0h0.001
				c9.963,0,18.909,4.272,25.178,11.053c6.269-6.781,15.215-11.053,25.178-11.053l0,0c0,0,0,0,0.001,0
				c15.402,0,28.434,10.145,32.78,24.117c1.003,3.224,1.543,6.652,1.543,10.207c0,18.956-22.416,51.135-59.502,65.144
				c-37.087-14.01-59.502-46.188-59.502-65.144C1878.74,1510.75,1879.28,1507.321,1880.282,1504.097z"/>
		</g>
	</g>
</g>
</svg>
