<?xml version="1.0" encoding="utf-8"?>
<!-- Generator: Adobe Illustrator 27.5.0, SVG Export Plug-In . SVG Version: 6.00 Build 0)  -->
<svg version="1.1" xmlns="http://www.w3.org/2000/svg" xmlns:xlink="http://www.w3.org/1999/xlink" x="0px" y="0px"
	 viewBox="0 0 2500 2500" style="enable-background:new 0 0 2500 2500;" xml:space="preserve">
-
<g id="Illustration">
	<g>
		<circle style="fill:transparent;" cx="1250" cy="1250" r="915"/>
		<g>
			<g>
				<g>
					<path style="fill:#FFFFFF;" d="M981.523,795.877h-20.576c-1.843-10.034-4.471-19.792-7.81-29.214l17.807-10.285l-34.818-60.332
						l-17.848,10.309c-6.55-7.671-13.693-14.817-21.36-21.369l10.304-17.855l-60.307-34.833l-10.281,17.815
						c-9.418-3.342-19.172-5.97-29.202-7.814v-20.585h-69.636v20.585c-10.03,1.843-19.784,4.472-29.202,7.814l-10.281-17.815
						l-60.307,34.833l10.304,17.855c-7.667,6.552-14.81,13.698-21.36,21.369l-17.848-10.309l-34.818,60.332l17.807,10.285
						c-3.34,9.422-5.968,19.18-7.81,29.214h-20.576l0,0v69.665h20.576c1.843,10.034,4.47,19.792,7.81,29.214l-17.807,10.286
						l34.818,60.332l17.848-10.309c6.55,7.671,13.693,14.817,21.36,21.369l-10.304,17.855l60.307,34.833l0,0l10.281-17.815
						c9.418,3.342,19.172,5.97,29.202,7.814v20.585h69.636v-20.585c10.03-1.843,19.784-4.472,29.202-7.814l10.281,17.815l0,0
						l60.307-34.833l-10.304-17.855c7.668-6.552,14.81-13.698,21.36-21.369l17.848,10.309l34.818-60.332l-17.807-10.286
						c3.34-9.422,5.968-19.18,7.81-29.214h20.576V795.877z M886.484,834.44c-1.904,59.677-50.488,108.283-110.141,110.188
						c-65.871,2.104-119.703-51.75-117.6-117.648c1.904-59.677,50.488-108.283,110.141-110.188
						C834.755,714.688,888.587,768.542,886.484,834.44z"/>
				</g>
				<path style="fill:#F2E6DC;" d="M779.75,979.36c-85.21,0-154.533-69.352-154.533-154.597c0-37.246,13.427-73.228,37.808-101.316
					c24.138-27.809,57.374-46.12,93.586-51.56c1.192-0.181,2.327,0.648,2.507,1.853c0.181,1.204-0.648,2.327-1.853,2.508
					c-72.767,10.932-127.639,74.78-127.639,148.516c0,82.814,67.345,150.188,150.124,150.188
					c68.398,0,128.155-46.196,145.319-112.341c0.306-1.178,1.51-1.885,2.687-1.58c1.179,0.306,1.886,1.509,1.58,2.688
					C911.669,931.807,850.157,979.36,779.75,979.36z"/>
			</g>
			<g>
				<g>
					<path style="fill:#F7F1EB;" d="M1259.33,765.048h-12.758c-1.143-6.222-2.772-12.272-4.843-18.114l11.041-6.377l-21.589-37.409
						l-11.067,6.392c-4.061-4.756-8.49-9.187-13.245-13.25l6.389-11.071l-37.394-21.598l-6.375,11.046
						c-5.839-2.072-11.887-3.702-18.107-4.845v-12.764h-43.178v12.764c-6.219,1.143-12.267,2.773-18.107,4.845l-6.375-11.046
						l-37.394,21.598l6.389,11.071c-4.754,4.063-9.183,8.494-13.245,13.25l-11.067-6.392l-21.589,37.409l11.041,6.377
						c-2.071,5.842-3.7,11.893-4.843,18.114h-12.758l0,0v43.196h12.759c1.142,6.222,2.772,12.272,4.843,18.114l-11.041,6.378
						l21.589,37.409l11.067-6.392c4.061,4.756,8.49,9.187,13.245,13.25l-6.389,11.071l37.394,21.598l0,0l6.375-11.046
						c5.839,2.072,11.887,3.702,18.107,4.845v12.764h43.178v-12.764c6.219-1.143,12.267-2.773,18.107-4.845l6.375,11.046l0,0
						l37.394-21.598l-6.389-11.071c4.754-4.063,9.183-8.494,13.245-13.25l11.067,6.392l21.589-37.409l-11.041-6.378
						c2.071-5.842,3.7-11.893,4.843-18.114h12.758V765.048z M1200.401,788.959c-1.181,37.003-31.306,67.142-68.294,68.323
						c-40.844,1.305-74.222-32.088-72.919-72.949c1.181-37.003,31.306-67.142,68.294-68.323
						C1168.326,714.706,1201.705,748.099,1200.401,788.959z"/>
				</g>
				<path style="fill:#F2E6DC;" d="M1134.22,879.656c-53.298,0-96.658-43.378-96.658-96.697c0-47.474,35.332-88.582,82.185-95.62
					c1.196-0.179,2.328,0.648,2.507,1.853c0.181,1.204-0.648,2.327-1.853,2.508c-44.712,6.717-78.43,45.951-78.43,91.26
					c0,50.887,41.382,92.287,92.248,92.287c42.029,0,78.748-28.386,89.295-69.031c0.306-1.178,1.512-1.886,2.687-1.58
					c1.179,0.306,1.886,1.509,1.58,2.688C1216.733,849.912,1178.258,879.656,1134.22,879.656z"/>
			</g>
		</g>
		<g>
			<g>
				<path style="fill:#FFFFFF;" d="M1440.884,1534.065h-30.356c-2.718-14.804-6.595-29.2-11.522-43.099l26.271-15.174
					l-51.367-89.007l-26.33,15.209c-9.663-11.317-20.201-21.859-31.512-31.525l15.202-26.342l-88.97-51.388l-15.167,26.282
					c-13.894-4.93-28.284-8.808-43.081-11.527v-30.369h-102.734v30.369c-14.797,2.719-29.187,6.598-43.081,11.527l-15.167-26.282
					l-88.97,51.388l15.201,26.342c-11.312,9.667-21.85,20.209-31.512,31.525l-26.331-15.209l-51.367,89.007l26.271,15.174
					c-4.927,13.9-8.804,28.296-11.522,43.099h-30.356l0,0v102.776h30.356c2.718,14.804,6.595,29.199,11.522,43.099l-26.271,15.174
					l51.366,89.007l26.331-15.208c9.663,11.316,20.201,21.859,31.512,31.525l-15.201,26.342l88.97,51.388l0,0l15.167-26.282
					c13.894,4.93,28.284,8.808,43.081,11.528v30.369h102.734v-30.369c14.797-2.719,29.187-6.598,43.081-11.528l15.167,26.282l0,0
					l88.97-51.388l-15.202-26.342c11.312-9.666,21.85-20.209,31.512-31.525l26.331,15.208l51.366-89.007l-26.271-15.174
					c4.927-13.9,8.804-28.295,11.522-43.099h30.356V1534.065z M1300.675,1590.955c-2.809,88.042-74.485,159.749-162.489,162.56
					c-97.178,3.104-176.596-76.346-173.494-173.565c2.809-88.042,74.485-159.749,162.489-162.56
					C1224.36,1414.287,1303.777,1493.737,1300.675,1590.955z"/>
			</g>
			<path style="fill:#F2E6DC;" d="M1132.684,1812.481c-125.132,0-226.935-101.844-226.935-227.028
				c0-54.697,19.717-107.536,55.521-148.784c35.447-40.838,84.255-67.727,137.432-75.716c1.196-0.178,2.327,0.648,2.507,1.853
				c0.181,1.205-0.648,2.327-1.853,2.508c-107.861,16.204-189.198,110.843-189.198,220.139
				c0,122.752,99.824,222.618,222.525,222.618c101.384,0,189.96-68.476,215.401-166.52c0.305-1.177,1.507-1.885,2.687-1.58
				c1.179,0.306,1.886,1.509,1.58,2.688C1326.407,1742.648,1236.077,1812.481,1132.684,1812.481z"/>
		</g>
		<g>
			<g>
				<g>
					<g>
						
							<rect x="425.736" y="887.989" transform="matrix(-1 -1.224647e-16 1.224647e-16 -1 2264.6753 2847.5735)" style="fill:#E6D0BE;" width="1413.203" height="1071.595"/>
						
							<rect x="683.863" y="718.557" transform="matrix(-1.836970e-16 1 -1 -1.836970e-16 2513.1584 248.4832)" style="fill:#F7F1EB;" width="896.95" height="1324.527"/>
						
							<ellipse transform="matrix(0.0011 -1 1 0.0011 -758.1221 3019.3647)" style="fill:#FFFFFF;" cx="1132.338" cy="1889.174" rx="26.613" ry="26.602"/>
					</g>
					<path style="fill:#E6D0BE;" d="M425.736,1988.635L425.736,1988.635c0,61.334,49.7,111.056,111.008,111.056h1481.296
						c61.308,0,111.009-49.722,111.009-111.056l0,0H425.736z"/>
					<path style="fill:#F2E6DC;" d="M797.716,2090.388c-49.741,0-90.207-40.483-90.207-90.245c0-1.218,0.987-2.205,2.205-2.205
						s2.205,0.987,2.205,2.205c0,47.33,38.489,85.835,85.797,85.835c1.218,0,2.205,0.987,2.205,2.205
						C799.921,2089.401,798.934,2090.388,797.716,2090.388z"/>
					<path style="fill:#F2E6DC;" d="M1315.727,2014.884c0,26.062,21.12,47.19,47.171,47.19h166.064
						c26.052,0,47.17-21.128,47.17-47.19H1315.727z"/>
				</g>
			</g>
			<g>
				<g>
					<rect x="956.899" y="1050.731" style="fill:#E6D0BE;" width="747.872" height="26.271"/>
					<rect x="956.899" y="1100.918" style="fill:#E6D0BE;" width="747.872" height="290.042"/>
				</g>
				<g>
					<rect x="956.899" y="1421.377" style="fill:#E6D0BE;" width="747.872" height="44.32"/>
					<rect x="956.899" y="1492.171" style="fill:#E6D0BE;" width="747.872" height="292.502"/>
				</g>
				<g>
					<rect x="556.644" y="1474.602" style="fill:#E6D0BE;" width="306.191" height="306.319"/>
					<g>
						<g>
							<path style="fill:#FFFFFF;" d="M613.974,1710.77c65.726-0.75,131.452-1.499,197.178-2.249
								c-30.222-96.742-48.916-121.091-60.966-119.62c-17.408,2.125-21.967,58.264-45.904,60.139
								c-14.389,1.127-20.374-18.562-34.889-19.113C656.91,1629.454,638.472,1643.151,613.974,1710.77z"/>
							<ellipse style="fill:#FFFFFF;" cx="675.787" cy="1572.949" rx="25.46" ry="25.47"/>
						</g>
					</g>
				</g>
				<rect x="558.417" y="1052.302" style="fill:#E6D0BE;" width="305.004" height="390.988"/>
			</g>
			<rect x="469.037" y="928.291" style="fill:#D3BBA3;" width="1324.9" height="56.379"/>
			<g>
				
					<ellipse transform="matrix(0.9239 -0.3827 0.3827 0.9239 -328.5606 268.2811)" style="fill:#F2E6DC;" cx="510.091" cy="960.035" rx="12.869" ry="12.869"/>
				
					<ellipse transform="matrix(0.9239 -0.3827 0.3827 0.9239 -325.294 283.4778)" style="fill:#F2E6DC;" cx="549.923" cy="959.422" rx="12.869" ry="12.869"/>
				
					<ellipse transform="matrix(0.2298 -0.9732 0.9732 0.2298 -477.6099 1315.3579)" style="fill:#F2E6DC;" cx="592.207" cy="959.422" rx="12.869" ry="12.869"/>
			</g>
		</g>
		<g>
			<g>
				<path style="fill:#363E44;" d="M1011.095,1701.328c89.923,63.05-115.552,124.979-224.354,139.933
					c-452.337,62.167-358.044-331.989-162.784-308.968c148.484,17.506,113.39-83.273,223.215-83.273
					c78.414,0,101.234,19.425,129.906,96.514C988.563,1576.414,929.978,1644.453,1011.095,1701.328z"/>
				<path style="fill:#40484C;" d="M612.857,1689.206c-8.715,0-16.927-1.571-24.596-4.716
					c-26.504-10.871-36.651-36.434-37.07-37.517c-0.439-1.135,0.125-2.41,1.26-2.85c1.138-0.44,2.411,0.124,2.852,1.257
					c0.097,0.248,9.939,24.928,34.681,35.05c17.592,7.196,38.428,5.479,61.934-5.107c33.336-15.014,51.151-36.687,66.87-55.809
					c19.153-23.302,35.693-43.434,73.344-42.613c1.218,0.026,2.183,1.035,2.158,2.252c-0.028,1.217-1.035,2.2-2.252,2.157
					c-35.442-0.778-50.658,17.666-69.843,41.005c-16.026,19.496-34.189,41.592-68.466,57.03
					C639.137,1685.915,625.47,1689.206,612.857,1689.206z"/>
			</g>
			<g>
				<path style="fill:#BC8271;" d="M1019.608,1763.428c0,0,94.149,51.516,180.488,222.279
					c88.64,175.313-86.34,151.351-86.34,151.351s-102.11-145.695-166.067-187.838
					C892.912,1913.126,1019.608,1763.428,1019.608,1763.428z"/>
				<path style="fill:#BC8271;" d="M335.623,2038.78c3.923-9.807,50.886-204.408,205.615-275.353c0,0,22.006,165.718,22.006,171.603
					c0,5.884-76.496,125.531-76.496,125.531L335.623,2038.78z"/>
				<path style="fill:#EFBC73;" d="M1071.897,1783.599c0,0-133.584-93.747-297.072-84.392
					c-146.151,8.363-288.366,70.301-288.366,70.301l69.65,177.056l-26.716,190.493h514.152l-31.779-179.427L1071.897,1783.599z"/>
				<g>
					<path style="fill:#BC8271;" d="M910.693,1922.433c-19.865-7.105-97.726-49.899-131.96-26.628
						c-34.48,23.438-47.339,67.688-45.581,109.346c0.121,0.119,0.256,0.25,0.375,0.368c5.281,10.263,14.755,24.808,31.324,34.314
						c18.888,10.836,28.905,4.745,50.618,13.076c36.647,14.062,43.875,46.274,56.332,40.094c8.551-4.241,5.152-23.192-2.445-39.671
						c-7.8-16.919-19.965-24.577-18.153-27.033c1.988-2.695,13.34,6.684,28.527,17.05c7.056,4.817,18.286,29.972,30.822,25.9
						c9.995-3.247,4.864-32.321-12.297-51.524c-12.141-13.584-29.669-15.94-28.58-19.083c0.817-2.359,11.227-0.697,19.772,3.408
						c14.102,6.771,25.866,32.385,37.332,28.412c11.233-3.893,6.306-29.207-8.36-47.867c-12.365-15.734-32.037-17.428-30.706-21.342
						c0.936-2.753,9.9-3.826,28.496-0.396c15.521,2.864,43.858,18.44,49.28,2.645
						C970.049,1950.216,940.676,1933.156,910.693,1922.433z"/>
					<path style="fill:#BC8271;" d="M357.191,1978.188c0,0-71.592,123.992,46.093,164.48
						c117.686,40.489,367.716-138.001,367.716-138.001l27.251-115.385C647.137,1889.144,485.381,1918.643,357.191,1978.188z"/>
					<path style="fill:#363E44;" d="M428.695,1951.425c-0.959,0-1.842-0.631-2.119-1.6c-0.335-1.171,0.344-2.391,1.515-2.725
						l110.315-31.508c1.163-0.337,2.391,0.343,2.725,1.514c0.335,1.171-0.343,2.391-1.515,2.725l-110.315,31.508
						C429.1,1951.398,428.895,1951.425,428.695,1951.425z"/>
				</g>
			</g>
			<g>
				<path style="fill:#363E44;" d="M1413.668,2136.645c-8.007,17.112-25.192,28.045-44.085,28.045h-303.341l135.853-290.352h334.304
					L1413.668,2136.645z"/>
				<path style="fill:#363E44;" d="M867.124,2135.541L867.124,2135.541c0,16.177,13.114,29.291,29.291,29.291h279.708l13.705-29.291
					H867.124z"/>
				
					<ellipse transform="matrix(0.8507 -0.5257 0.5257 0.8507 -856.3335 993.9726)" style="fill:#40484C;" cx="1321.299" cy="2004.197" rx="19.978" ry="19.978"/>
			</g>
			<g>
				<path style="fill:#BC8271;" d="M871.763,1578.118L871.763,1578.118c-14.427-7.971-39.144-29.258-47.115-14.831l-93.53,149.572
					c-7.971,14.427,39.874,9.406,54.301,17.377l0,0c14.427,7.97,32.583,2.737,40.554-11.69l57.48-99.873
					C891.423,1604.245,886.189,1586.089,871.763,1578.118z"/>
				<ellipse style="fill:#BC8271;" cx="780.318" cy="1724.413" rx="80.651" ry="24.282"/>
				<g>
					<path style="fill:#BC8271;" d="M886.093,1685.284c-27.401,1.776-58.556-68.164-58.556-68.164l8.946-83.408
						c20.283-32.875,63.374-43.082,96.249-22.8c32.875,20.283,43.082,63.374,22.8,96.249
						C955.531,1607.16,914.001,1683.475,886.093,1685.284z"/>
					<path style="fill:#BC8271;" d="M939.034,1618.592c0,0,5.903,27.793,2.166,31.863c-4.461,4.858-25.133-3.253-25.133-3.253
						S939.452,1618.908,939.034,1618.592z"/>
					<g>
						<path style="fill:#FFFFFF;" d="M886.888,1582.902c0,0,13.272,0.788,25.285,8.201c2.556,1.577-14.884,19.054-16.596,16.399
							C888.051,1595.829,886.888,1582.902,886.888,1582.902z"/>
						<g>
							<defs>
								<path id="SVGID_1_" d="M886.888,1582.902c0,0,19.52,1.16,32.641,13.887c13.121,12.728,14.872,32.204,14.872,32.204
									s-19.52-1.16-32.641-13.887C888.64,1602.378,886.888,1582.902,886.888,1582.902z"/>
							</defs>
							<clipPath id="SVGID_00000155835003769128150050000016747697103546032025_">
								<use xlink:href="#SVGID_1_"  style="overflow:visible;"/>
							</clipPath>
							
								<ellipse transform="matrix(0.9606 -0.2778 0.2778 0.9606 -412.211 318.6504)" style="clip-path:url(#SVGID_00000155835003769128150050000016747697103546032025_);fill:#363E44;" cx="918.516" cy="1614.152" rx="23.905" ry="23.905"/>
						</g>
					</g>
					<path style="fill:#363E44;" d="M900.165,1652.092c-4.647,0-8.903-2.674-10.887-6.863c-1.941-4.1-1.364-9.057,1.471-12.629
						c0.758-0.954,2.143-1.112,3.097-0.357c0.954,0.757,1.113,2.144,0.356,3.098c-1.799,2.267-2.167,5.407-0.939,8
						c1.276,2.691,3.998,4.353,7.044,4.34c1.179-0.02,2.223,0.946,2.246,2.163s-0.946,2.223-2.164,2.245
						C900.314,1652.092,900.239,1652.092,900.165,1652.092z"/>
					<path style="fill:#363E44;" d="M865.764,1679.538c-0.522,0-1.046-0.185-1.467-0.56c-20.863-18.63-38.66-58.256-39.407-59.934
						c-0.495-1.113,0.004-2.416,1.117-2.911c1.107-0.497,2.414,0.003,2.911,1.116c0.179,0.402,18.163,40.443,38.315,58.44
						c0.909,0.811,0.987,2.205,0.176,3.113C866.974,1679.289,866.37,1679.538,865.764,1679.538z"/>
				</g>
				<path style="fill:#363E44;" d="M826.312,1578.164c18.633,0.404,32.712-12.893,36.331-15.398
					c3.487-2.414,6.881-5.519,10.512-9.88c14.563-17.492,32.69-13.076,50.343,11.442c17.653,24.518,51.978,31.012,68.65,9.974
					c8.988-11.341,8.81-33.999-1.523-46.056c-7.133-8.324-14.511-6.398-27.17-19.141c-8.56-8.616-7.716-12.043-14.239-15.913
					c-10.359-6.146-19.102-1.429-32.665-1.675c-24.042-0.437-27.411-15.821-47.667-18.541c-24.883-3.342-54.71,15.233-66.243,41.156
					c-8.608,19.347-9.137,48.849,5.863,59.467C814.595,1577.909,821.774,1578.065,826.312,1578.164z"/>
				
					<ellipse transform="matrix(0.5257 -0.8507 0.8507 0.5257 -941.0739 1452.2078)" style="fill:#BC8271;" cx="831.807" cy="1570.062" rx="29.161" ry="29.161"/>
			</g>
		</g>
		<g>
			<g>
				<g>
					<rect x="1469.196" y="796.951" style="fill:#ff6900;" width="439.21" height="192.561"/>
					<path style="fill:#E2A18D;" d="M1842.864,1167.912c-0.059,4.276-1.043,156.535-1.043,156.535l85.326-4.032l47.843-152.503
						H1842.864z"/>
					<path style="fill:#EFBC73;" d="M1835.32,1310.097l99.425-1.296l55.203,178.806c0,0-163.786,48.92-164.124,45.713
						C1825.488,1530.112,1835.32,1310.097,1835.32,1310.097z"/>
					<path style="fill:#363E44;" d="M1906.382,1362.552h-40.188c-1.218,0-2.205-0.987-2.205-2.205s0.987-2.205,2.205-2.205h40.188
						c1.218,0,2.205,0.987,2.205,2.205S1907.599,1362.552,1906.382,1362.552z"/>
					<path style="fill:#363E44;" d="M1905.942,1387.621h-39.749c-1.218,0-2.205-0.987-2.205-2.205s0.987-2.205,2.205-2.205h39.749
						c1.218,0,2.205,0.987,2.205,2.205S1907.16,1387.621,1905.942,1387.621z"/>
					<path style="fill:#ff6900;" d="M1825.766,1193.942h156.462l44.714-227.088c11.184-56.802-30.24-110.448-88.025-113.994
						l-85.478-5.245L1825.766,1193.942z"/>
				</g>
				<g>
					<polygon style="fill:#E2A18D;" points="1354.66,895.156 1462.05,998.813 1553.078,930.808 1465.387,809.916 					"/>
					<polygon style="fill:#EFBC73;" points="1442.433,983.344 1497.195,1107.946 1649.095,1008.615 1542.701,909.796 					"/>
					<path style="fill:#ff6900;" d="M1354.66,918.433l133.689-95.832l-80.176-123.573c-32.234-49.681-100.439-60.428-146.387-23.065
						l0,0c-46.723,37.992-49.303,108.437-5.484,149.745L1354.66,918.433z"/>
					<path style="fill:#363E44;" d="M1491.616,992.309c-0.73,0-1.444-0.362-1.864-1.024c-0.652-1.029-0.348-2.391,0.68-3.043
						l45.106-28.621c1.028-0.653,2.391-0.348,3.042,0.68c0.652,1.029,0.348,2.391-0.68,3.044l-45.106,28.621
						C1492.429,992.197,1492.02,992.309,1491.616,992.309z"/>
					<path style="fill:#363E44;" d="M1501.402,1006.62c-0.73,0-1.444-0.362-1.864-1.024c-0.652-1.029-0.348-2.391,0.68-3.043
						l45.107-28.622c1.029-0.652,2.39-0.347,3.042,0.68c0.652,1.029,0.348,2.391-0.68,3.044l-45.107,28.622
						C1502.215,1006.508,1501.806,1006.62,1501.402,1006.62z"/>
				</g>
			</g>
			<g>
				<path style="fill:#FFFFFF;" d="M1497.928,819.23c0,0,176.789,1.376,312.298,3.371l-29.555-279.31
					c0,0-134.575-50.404-283.477-40.804L1497.928,819.23z"/>
				<path style="fill:#363E44;" d="M1742.548,529.194l29.196,300.888l251.186,5.699c0,0,10.604-101.28-80.663-203.385
					c-21.155-23.667-46.856-42.831-75.414-56.691C1835.172,560.328,1783.38,536.732,1742.548,529.194z"/>
				<path style="fill:#363E44;" d="M1546.507,499.944l9.787,321.043c0,0-241.075,64.489-241.143-96.312
					c-0.029-68.933,18.846-119.867,37.847-153.67c18.777-33.403,51.126-56.88,88.71-64.348
					C1469.636,501.107,1506.752,496.654,1546.507,499.944z"/>
				<path style="fill:#363E44;" d="M1442.434,664.141c-0.187,0-0.379-0.024-0.568-0.075c-1.177-0.314-1.876-1.521-1.563-2.698
					l10.904-40.93c0.313-1.176,1.522-1.877,2.698-1.563c1.177,0.314,1.876,1.521,1.563,2.698l-10.904,40.93
					C1444.301,663.49,1443.409,664.141,1442.434,664.141z"/>
				<path style="fill:#363E44;" d="M1347.818,713.369c-0.293,0-0.591-0.059-0.876-0.183c-1.118-0.484-1.63-1.783-1.146-2.9
					c0.228-0.524,23.515-52.364,90.262-46.189c1.212,0.112,2.105,1.186,1.992,2.399c-0.112,1.212-1.199,2.105-2.399,1.992
					c-63.577-5.88-85.594,43.059-85.809,43.554C1349.482,712.872,1348.67,713.369,1347.818,713.369z"/>
				<g>
					<path style="fill:#E2A18D;" d="M1795.472,740.316c-12.158-7.948-57.411-49.106-84.069-39.025
						c-26.849,10.153-42.566,37.713-48.081,65.884c0.062,0.099,0.131,0.208,0.192,0.306c1.887,7.719,5.893,18.979,15.459,28.005
						c10.905,10.289,18.589,7.82,31.788,16.885c22.276,15.302,21.94,38.028,31.273,35.891c6.406-1.466,7.174-14.7,4.735-26.952
						c-2.504-12.58-9.418-19.661-7.811-21.014c1.764-1.485,7.858,6.618,16.36,15.998c3.95,4.358,7.428,23.004,16.474,22.291
						c7.213-0.568,8.448-20.857,0.044-36.47c-5.946-11.045-17.302-15.438-16.068-17.367c0.926-1.448,7.629,1.337,12.69,5.458
						c8.353,6.798,12.115,25.836,20.43,25.018c8.146-0.802,8.913-18.541,2.092-33.39c-5.751-12.52-18.649-16.814-17.129-19.221
						c1.069-1.693,7.243-0.971,19.142,4.312c9.931,4.41,26.401,19.391,32.568,9.687
						C1830.748,768.451,1813.823,752.311,1795.472,740.316z"/>
					<path style="fill:#E2A18D;" d="M1447.964,683.296c-26.064,3.626-48.115,21.397-56.677,46.28
						c-8.169,23.741-7.38,53.457,29.101,76.678c72.286,46.011,268.352-33.323,268.352-33.323l36.779-72.872
						C1635.475,678.368,1536.012,671.045,1447.964,683.296z"/>
				</g>
				<g>
					<path style="fill:#E6D0BE;" d="M2070.372,845.861c-6.126,13.093-19.275,21.458-33.73,21.458h-232.092l103.944-222.154h255.783
						L2070.372,845.861z"/>
					<path style="fill:#E6D0BE;" d="M1652.2,845.016L1652.2,845.016c0,12.377,10.034,22.411,22.411,22.411h214.01l10.486-22.411
						H1652.2z"/>
				</g>
				<g>
					<path style="fill:#E2A18D;" d="M2136.166,749.301c-0.818,8.332-2.183,15.017-16.613,13.601
						c-14.43-1.416-36.461-10.398-35.644-18.729c0.818-8.331,24.175-12.858,38.605-11.442
						C2136.944,734.147,2136.983,740.97,2136.166,749.301z"/>
					<path style="fill:#E2A18D;" d="M2074.07,765.59c0.818-8.332,24.174-12.859,38.605-11.442c14.43,1.416,14.47,8.24,13.652,16.571
						L2074.07,765.59z"/>
					<path style="fill:#E2A18D;" d="M2126.327,770.719c-0.818,8.332-2.183,15.017-16.614,13.601
						c-14.43-1.416-36.461-10.398-35.644-18.729L2126.327,770.719z"/>
					<path style="fill:#E2A18D;" d="M2064.231,787.008c0.818-8.332,24.175-12.859,38.605-11.442
						c14.43,1.416,14.47,8.239,13.652,16.571L2064.231,787.008z"/>
					<path style="fill:#E2A18D;" d="M2116.488,792.136c-0.818,8.332-2.183,15.017-16.613,13.601
						c-14.43-1.416-36.461-10.398-35.644-18.729L2116.488,792.136z"/>
					<path style="fill:#E2A18D;" d="M2065.414,806.383c0.65-6.623,19.216-10.221,30.687-9.095
						c11.471,1.126,11.502,6.549,10.852,13.172L2065.414,806.383z"/>
					<path style="fill:#E2A18D;" d="M2106.953,810.46c-0.65,6.623-1.735,11.937-13.206,10.811
						c-11.47-1.126-28.983-8.265-28.333-14.888L2106.953,810.46z"/>
				</g>
			</g>
			<g>
				<path style="fill:#E2A18D;" d="M1595.541,409.024c5.889,7.947,5.18,18.452-1.584,23.464c-6.763,5.012-17.02,2.632-22.909-5.315
					c-5.889-7.947-5.18-18.452,1.584-23.464C1579.396,398.697,1589.652,401.077,1595.541,409.024z"/>
				<path style="fill:#E2A18D;" d="M1668.247,405.324c-5.052,8.504-3.28,18.883,3.958,23.182c7.237,4.299,17.199,0.891,22.251-7.613
					c5.052-8.504,3.28-18.883-3.958-23.182C1683.261,393.411,1673.298,396.82,1668.247,405.324z"/>
				<path style="fill:#E2A18D;" d="M1628.338,543.97L1628.338,543.97c-17.662-0.81-31.323-15.784-30.513-33.446l2.967-90.79
					l63.959,2.933l-2.967,90.79C1660.974,531.119,1646,544.78,1628.338,543.97z"/>
				<path style="fill:#84524D;" d="M1639.798,492.977c-51.306,3.032-53.212-82.634-53.212-82.634l90.914-3.076
					C1677.5,407.267,1689.546,490.037,1639.798,492.977z"/>
				
					<ellipse transform="matrix(0.3827 -0.9239 0.9239 0.3827 634.1208 1720.0837)" style="fill:#84524D;" cx="1604.205" cy="385.527" rx="32.624" ry="32.624"/>
				<path style="fill:#E2A18D;" d="M1676.551,413.842c1.451,28.508-17.042,13.514-41.304,14.749
					c-24.262,1.235-45.107,18.231-46.558-10.277c-1.451-28.508,17.041-44.79,41.304-46.025
					C1654.255,371.054,1675.1,385.333,1676.551,413.842z"/>
				<path style="fill:#363E44;" d="M1676.544,429.89c-0.13,0-0.264-0.011-0.396-0.036c-1.198-0.218-1.993-1.366-1.775-2.564
					c0.79-4.345,1.074-8.832,0.846-13.337c-0.205-4.014-0.816-7.987-1.816-11.806c-0.309-1.178,0.396-2.383,1.574-2.691
					c1.184-0.308,2.384,0.397,2.691,1.574c1.077,4.111,1.734,8.384,1.954,12.699c0.246,4.844-0.06,9.672-0.911,14.35
					C1678.518,429.144,1677.59,429.89,1676.544,429.89z"/>
				<path style="fill:#363E44;" d="M1590.032,433.972c-0.96,0-1.843-0.632-2.12-1.601c-1.281-4.496-2.053-9.188-2.294-13.946
					c-0.225-4.402,0.009-8.802,0.693-13.077c0.192-1.203,1.323-2.019,2.526-1.829c1.203,0.192,2.021,1.323,1.828,2.526
					c-0.635,3.971-0.853,8.061-0.644,12.156c0.225,4.426,0.942,8.786,2.133,12.962c0.334,1.171-0.346,2.391-1.517,2.725
					C1590.436,433.945,1590.232,433.972,1590.032,433.972z"/>
				<path style="fill:#363E44;" d="M1635.672,431.891c-0.661,0-1.315-0.296-1.748-0.86c-0.743-0.965-0.562-2.349,0.403-3.092
					c0.946-0.729,1.289-1.304,1.294-1.576c0.004-0.185-0.224-0.517-0.601-1.04c-0.59-0.819-1.396-1.942-1.745-3.625
					c-0.312-1.501-0.186-3.078,0.375-4.686c0.403-1.15,1.655-1.756,2.809-1.356c1.15,0.401,1.756,1.658,1.355,2.808
					c-0.294,0.843-0.369,1.629-0.222,2.338c0.159,0.766,0.534,1.287,1.008,1.947c0.651,0.906,1.463,2.033,1.431,3.702
					c-0.036,1.797-1.051,3.473-3.014,4.983C1636.615,431.741,1636.142,431.891,1635.672,431.891z"/>
				<path style="fill:#FFFFFF;" d="M1628.839,444.515c-1.957,0-4.883-0.39-7.747-2.24c-1.815-1.174-3.364-2.796-4.477-4.69
					c-0.618-1.05-0.267-2.401,0.783-3.018c1.052-0.617,2.402-0.267,3.018,0.783c0.768,1.305,1.83,2.419,3.071,3.221
					c2.381,1.54,4.856,1.604,6.114,1.505c1.217-0.098,2.275,0.813,2.371,2.026c0.095,1.214-0.812,2.275-2.026,2.37
					C1629.626,444.498,1629.255,444.515,1628.839,444.515z"/>
				<path style="fill:#84524D;" d="M1582.891,403.361c0,0,23.489,3.48,47.848-25.229c0,0,45.238,59.157,80.037-12.18
					c0,0-20.384,8.996-31.319-5.22c-17.399-22.619-59.157-40.888-75.687,0.87L1582.891,403.361z"/>
				<g>
					<g>
						<path style="fill:#FFFFFF;" d="M1661.472,406.7l0,0.002l-0.106-0.006c-0.045,0.223-0.178,0.511-0.411,0.515
							c-0.261,0.344-0.362,0.884-0.531,1.245c-0.305,0.65-1.293,0.136-0.989-0.513c0.205-0.437-1.263,0.454-1.912,0.741
							c-2.069,0.918-4.172,1.742-6.304,2.501c-0.994,0.354-1.99,0.716-2.996,1.035c-0.807,0.256-3.464,1.243-3.684,1.127
							c-2.625,2.658-4.024,5.117-4.024,5.117s4.036,1.553,9.151,1.567c0.011-0.069,0.024-0.137,0.032-0.208
							c0.084-0.69,11.709-4.06,12.053-3.553c4.819-3.423,7.46-8.044,7.46-8.044S1665.898,406.95,1661.472,406.7z"/>
						<path style="fill:#363E44;" d="M1652.889,407.814c-3.479,1.241-6.288,3.445-8.345,5.528c0.379,2.191,1.534,4.255,3.43,5.726
							c0.488,0.379,1.003,0.698,1.535,0.965c2.307,0.02,4.84-0.269,7.328-1.156c1.799-0.642,3.409-1.546,4.838-2.553
							c1.733-3.045,1.566-6.772-0.308-9.627C1658.768,406.559,1655.798,406.776,1652.889,407.814z"/>
					</g>
					<g>
						<path style="fill:#FFFFFF;" d="M1603.84,410.405l0,0.002l0.105-0.017c0.067,0.217,0.229,0.49,0.46,0.471
							c0.295,0.316,0.449,0.843,0.654,1.185c0.369,0.616,1.3,0.005,0.932-0.61c-0.248-0.414,1.302,0.324,1.977,0.545
							c2.151,0.705,4.326,1.313,6.524,1.853c1.025,0.252,2.052,0.512,3.085,0.728c0.828,0.173,3.571,0.888,3.778,0.751
							c2.879,2.381,4.519,4.686,4.519,4.686s-3.859,1.952-8.947,2.48c-0.018-0.068-0.037-0.134-0.053-0.203
							c-0.153-0.678-12.058-2.861-12.349-2.323c-5.14-2.921-8.232-7.253-8.232-7.253S1599.461,411.099,1603.84,410.405z"/>
						<path style="fill:#363E44;" d="M1612.491,410.65c3.587,0.885,6.603,2.795,8.859,4.66c-0.156,2.218-1.099,4.387-2.836,6.042
							c-0.447,0.426-0.927,0.796-1.43,1.115c-2.293,0.252-4.842,0.22-7.407-0.413c-1.854-0.458-3.547-1.196-5.07-2.054
							c-2.03-2.856-2.24-6.58-0.662-9.609C1606.516,409.993,1609.492,409.91,1612.491,410.65z"/>
					</g>
				</g>
			</g>
		</g>
		<g>
			<g>
				<g>
					<g>
						<path style="fill:#FFFFFF;" d="M1566.295,1229.203c-85.945-132.664-263.168-170.521-395.81-84.578
							c-132.664,85.945-170.52,263.168-84.577,395.832c85.944,132.664,263.167,170.52,395.832,84.555
							C1614.381,1539.068,1652.26,1361.844,1566.295,1229.203z M1465.644,1600.186c-118.949,77.08-277.851,43.126-354.909-75.823
							c-77.059-118.95-43.105-277.83,75.823-354.91c118.95-77.059,277.851-43.105,354.91,75.824
							C1618.526,1364.226,1584.595,1523.128,1465.644,1600.186z"/>
						<path style="fill:#363E44;" d="M1326.668,1673.337c-20.22,0-40.584-2.136-60.825-6.46
							c-75.339-16.094-139.899-60.565-181.786-125.221c-86.471-133.479-48.238-312.416,85.228-398.881
							c64.647-41.887,141.737-56.091,217.077-39.995c75.339,16.097,139.897,60.569,181.783,125.224v-0.001
							c41.895,64.643,56.102,141.736,40.005,217.076c-16.096,75.336-60.565,139.895-125.212,181.783
							C1435.654,1657.503,1381.708,1673.335,1326.668,1673.337z M1325.529,1100.728c-54.194,0-107.29,15.583-153.845,45.747
							c-131.427,85.143-169.076,261.345-83.925,392.783c41.246,63.668,104.818,107.458,179.006,123.306
							c74.187,15.847,150.109,1.854,213.776-39.403c63.66-41.248,107.448-104.819,123.298-179.004
							c15.851-74.188,1.861-150.102-39.394-213.756v0c-41.246-63.666-104.817-107.458-179.004-123.309
							C1365.509,1102.834,1345.439,1100.728,1325.529,1100.728z M1326.613,1643.74c-18.151,0-36.425-1.917-54.594-5.799
							c-67.61-14.445-125.545-54.356-163.135-112.38c-77.585-119.764-43.279-280.344,76.474-357.959
							c119.783-77.596,280.358-43.289,357.96,76.475c37.59,58.026,50.338,127.215,35.896,194.823
							c-14.442,67.612-54.35,125.548-112.373,163.135C1424.413,1629.531,1376.002,1643.74,1326.613,1643.74z M1325.699,1130.479
							c-47.392,0-95.293,13.194-137.943,40.824c-117.712,76.293-151.435,234.137-75.171,351.861
							c36.949,57.036,93.897,96.266,160.355,110.465c66.46,14.199,134.471,1.664,191.504-35.294l0.001,0
							c57.033-36.947,96.261-93.896,110.457-160.355c14.196-66.456,1.664-134.467-35.286-191.504
							C1490.97,1171.396,1409.137,1130.479,1325.699,1130.479z"/>
					</g>
					<g>
						<g>
							<path style="fill:#FFFFFF;" d="M1666.432,1904.37l-4.886,3.178c-11.874,7.722-27.76,4.357-35.482-7.517l-94.147-144.762
								c-3.347-5.147-1.888-12.032,3.258-15.379l29.248-19.022c5.147-3.347,12.032-1.888,15.379,3.258l94.147,144.762
								C1681.671,1880.763,1678.306,1896.648,1666.432,1904.37z"/>
							<path style="fill:#363E44;" d="M1647.607,1913.891c-9.119,0-18.062-4.461-23.393-12.658l-94.147-144.762
								c-1.94-2.983-2.602-6.542-1.865-10.023c0.738-3.481,2.787-6.466,5.771-8.406l29.247-19.021
								c2.983-1.94,6.546-2.602,10.024-1.865c3.481,0.737,6.466,2.787,8.406,5.769l94.147,144.762
								c4.055,6.237,5.44,13.679,3.898,20.957c-1.542,7.278-5.825,13.519-12.061,17.575l-4.886,3.178
								C1658.07,1912.438,1652.809,1913.891,1647.607,1913.891z M1570.464,1721.273c-1.705,0-3.376,0.492-4.839,1.444
								l-29.248,19.021c-1.996,1.298-3.366,3.295-3.86,5.624c-0.493,2.328-0.051,4.71,1.248,6.705l94.147,144.762
								c7.047,10.835,21.594,13.918,32.432,6.871l4.887-3.178c5.249-3.413,8.855-8.667,10.152-14.792
								c1.298-6.126,0.132-12.39-3.281-17.639l-94.147-144.762c-1.297-1.995-3.294-3.366-5.623-3.859
								C1571.709,1721.338,1571.084,1721.273,1570.464,1721.273z"/>
						</g>
						<g>
							<polygon style="fill:#FFFFFF;" points="1563.456,1721.653 1536.283,1739.325 1478.171,1650.241 1505.344,1632.568 							"/>
							<path style="fill:#363E44;" d="M1535.639,1742.374l-60.522-92.778l30.871-20.076l60.522,92.777L1535.639,1742.374z
								 M1481.224,1650.885l55.703,85.392l23.477-15.269l-55.703-85.391L1481.224,1650.885z"/>
						</g>
						<path style="fill:#363E44;" d="M1597.82,1786.023c-0.713,0-1.412-0.345-1.838-0.983l-31.607-47.487
							c-0.675-1.014-0.399-2.382,0.614-3.057c1.013-0.674,2.381-0.401,3.057,0.614l31.607,47.486
							c0.675,1.014,0.399,2.382-0.614,3.057C1598.664,1785.903,1598.24,1786.023,1597.82,1786.023z"/>
						<path style="fill:#363E44;" d="M1581.297,1796.934c-0.713,0-1.413-0.345-1.838-0.984l-31.607-47.487
							c-0.675-1.014-0.399-2.382,0.614-3.057c1.012-0.674,2.381-0.4,3.057,0.614l31.607,47.487c0.675,1.014,0.399,2.382-0.614,3.057
							C1582.141,1796.815,1581.717,1796.934,1581.297,1796.934z"/>
					</g>
				</g>
			</g>
			<g>
				<g>
					<g>
						<path style="fill:#ff6900;" d="M1194.099,1560.7l7.202-9.557c5.303,2.655,10.753,4.848,16.296,6.593l-1.457,11.869
							l40.196,4.936l1.461-11.896c5.854-0.358,11.671-1.176,17.397-2.445l4.683,11.032l37.278-15.823h0l-4.672-11.007
							c4.848-3.205,9.482-6.816,13.848-10.829l9.557,7.202l24.372-32.343l-9.557-7.202c2.655-5.303,4.848-10.753,6.593-16.296
							l11.869,1.458l0,0l4.936-40.196l-11.896-1.461c-0.358-5.854-1.176-11.671-2.445-17.397l11.033-4.683l-15.823-37.278
							l-11.007,4.672c-3.205-4.847-6.816-9.482-10.829-13.848l7.202-9.557l-32.342-24.372l0,0l-7.202,9.557
							c-5.303-2.655-10.753-4.848-16.296-6.593l1.458-11.869l-40.196-4.936l-1.461,11.896c-5.854,0.358-11.671,1.176-17.396,2.445
							l-4.683-11.032l-37.278,15.823l4.672,11.007c-4.848,3.205-9.482,6.816-13.848,10.829l-9.557-7.202l-24.372,32.343l9.557,7.202
							c-2.655,5.303-4.848,10.753-6.593,16.296l-11.869-1.458l-4.936,40.196l11.896,1.461c0.358,5.854,1.176,11.671,2.445,17.397
							l-11.032,4.683l15.823,37.278l11.008-4.672c3.205,4.847,6.815,9.482,10.829,13.848l-7.202,9.557L1194.099,1560.7z
							 M1195.371,1406.601c23.489-29.184,66.198-35.185,96.821-13.606c33.815,23.83,40.464,71.151,14.527,103.377
							c-23.489,29.184-66.198,35.186-96.821,13.606C1176.083,1486.148,1169.433,1438.827,1195.371,1406.601z"/>
					</g>
					<path style="fill:#776E42;" d="M1250.995,1542.314c-11.61,0-23.341-2.232-34.572-6.872c-1.125-0.465-1.661-1.754-1.196-2.88
						c0.464-1.124,1.752-1.662,2.88-1.196c36.328,15.009,78.24,3.539,101.926-27.893c13.887-18.427,19.766-41.159,16.556-64.009
						c-3.211-22.85-15.128-43.081-33.556-56.967c-33.87-25.523-82.2-22.407-112.42,7.246c-0.868,0.853-2.265,0.84-3.118-0.029
						c-0.853-0.869-0.84-2.265,0.03-3.118c31.763-31.171,82.563-34.446,118.162-7.621c19.368,14.595,31.892,35.859,35.267,59.875
						c3.375,24.016-2.805,47.908-17.4,67.276C1305.983,1529.447,1278.856,1542.314,1250.995,1542.314z"/>
				</g>
				<g>
					<g>
						<path style="fill:#9E9569;" d="M1376.844,1367.427l3.553-7.879c4.159,1.027,8.347,1.705,12.53,2.052l0.862,8.594l29.104-2.917
							l-0.864-8.613c4.067-1.184,8.036-2.685,11.867-4.49l5.054,7.027l23.746-17.078v0l-5.043-7.011
							c2.905-3.029,5.596-6.31,8.033-9.833l7.879,3.553l12.026-26.663l-7.879-3.553c1.027-4.159,1.705-8.347,2.052-12.53
							l8.594-0.861l0,0l-2.917-29.104l-8.613,0.863c-1.184-4.067-2.685-8.035-4.49-11.867l7.028-5.054l-17.078-23.746l-7.012,5.043
							c-3.029-2.905-6.31-5.596-9.833-8.033l3.553-7.879l-26.663-12.025h0l-3.553,7.879c-4.159-1.027-8.347-1.705-12.53-2.052
							l-0.861-8.594l-29.104,2.917l0.863,8.613c-4.067,1.184-8.035,2.685-11.867,4.49l-5.054-7.027l-23.746,17.078l5.043,7.012
							c-2.905,3.029-5.596,6.31-8.033,9.833l-7.879-3.553l-12.025,26.663l7.879,3.553c-1.027,4.159-1.705,8.347-2.052,12.53
							l-8.594,0.861l2.917,29.104l8.613-0.863c1.184,4.067,2.685,8.036,4.49,11.868l-7.028,5.054l17.078,23.746l7.012-5.043
							c3.029,2.905,6.31,5.596,9.833,8.033l-3.553,7.879L1376.844,1367.427z M1353.225,1258.658
							c11.906-24.298,41.04-35.32,66.048-24.989c27.614,11.409,39.827,43.69,26.681,70.52
							c-11.906,24.298-41.04,35.321-66.048,24.989C1352.291,1317.77,1340.078,1285.489,1353.225,1258.658z"/>
					</g>
					<path style="fill:#ff6900;" d="M1399.633,1347.637c-3.701,0-7.439-0.312-11.182-0.953c-1.2-0.206-2.007-1.345-1.801-2.545
						c0.206-1.199,1.338-2.006,2.546-1.801c27.712,4.748,55.138-9.856,66.71-35.515c6.785-15.043,7.305-31.827,1.465-47.261
						s-17.339-27.67-32.382-34.455c-27.65-12.47-60.873-2.684-77.283,22.764c-0.66,1.023-2.024,1.319-3.048,0.658
						c-1.023-0.66-1.318-2.024-0.658-3.048c17.582-27.267,53.177-37.753,82.801-24.394c16.116,7.269,28.438,20.378,34.694,36.914
						c6.257,16.536,5.699,34.518-1.57,50.634C1449.09,1332.659,1425.278,1347.637,1399.633,1347.637z"/>
				</g>
			</g>
		</g>
		<g>
			<polygon style="fill:#FFFFFF;" points="679.591,1396.062 781.237,1425.683 692.796,1278.702 			"/>
			
				<ellipse transform="matrix(0.7071 -0.7071 0.7071 0.7071 -738.4997 869.8571)" style="fill:#FFFFFF;" cx="680.761" cy="1326.377" rx="99.307" ry="99.307"/>
			<path style="fill:#D87355;" d="M735.466,1307.916c-4.102-13.187-16.402-22.763-30.94-22.763l0,0h-0.001
				c-9.404,0-17.847,4.032-23.765,10.432c-5.917-6.4-14.36-10.432-23.764-10.432l0,0h-0.001c-14.537,0-26.837,9.575-30.939,22.763
				c-0.946,3.043-1.457,6.279-1.457,9.634c0,17.892,21.157,48.263,56.161,61.487c35.005-13.223,56.161-43.595,56.161-61.487
				C736.922,1314.195,736.412,1310.959,735.466,1307.916z"/>
		</g>
		<g>
			<g>
				<polygon style="fill:#FFFFFF;" points="948.58,372.413 1291.575,372.413 1291.719,567.224 1330.108,589.066 1291.575,589.863 
					1250.751,589.863 1189.792,589.863 948.58,589.863 				"/>
				<path style="fill:#363E44;" d="M1332.372,595.984l-403.97-3.938V370.208h347.406v192.445L1332.372,595.984z M932.812,587.679
					l383.118,3.735l-44.532-26.241V374.618H932.812V587.679z"/>
			</g>
			<g>
				<g>
					
						<rect x="960.225" y="419.04" transform="matrix(-1 -1.224647e-16 1.224647e-16 -1 2204.3179 860.9953)" style="fill:#F2E6DC;" width="283.868" height="22.915"/>
					
						<rect x="1016.191" y="475.607" transform="matrix(-1 -1.224647e-16 1.224647e-16 -1 2260.2842 974.128)" style="fill:#F2E6DC;" width="227.902" height="22.915"/>
					
						<rect x="960.226" y="532.169" transform="matrix(-1 -1.224647e-16 1.224647e-16 -1 2205.5408 1087.2535)" style="fill:#F2E6DC;" width="285.089" height="22.915"/>
				</g>
			</g>
		</g>
		<g>
			<g>
				<g>
					<path style="fill:#776E42;" d="M2076.092,1876.238c-24.65,67.02-67.227,117.359-67.227,117.359s-2.61-58.321,22.04-125.341
						c24.651-67.019,67.228-117.358,67.228-117.358S2100.742,1809.219,2076.092,1876.238z"/>
					<path style="fill:#ff6900;" d="M2034.916,1929.085c-0.251,0-0.506-0.043-0.756-0.134c-1.144-0.417-1.733-1.683-1.316-2.827
						l49.365-135.306c0.417-1.144,1.679-1.733,2.827-1.315c1.144,0.417,1.733,1.683,1.315,2.827l-49.365,135.306
						C2036.661,1928.53,2035.816,1929.085,2034.916,1929.085z"/>
				</g>
				<g>
					<path style="fill:#ff6900;" d="M2013.16,1998.549c4.914-14.966,21.81-70.531,25.387-137.119
						c4.196-78.13-11.537-141.836-11.537-141.836s-22.537,62.967-26.734,141.097c-3.583,66.703,7.359,122.884,10.637,137.893
						L2013.16,1998.549z"/>
					<path style="fill:#776E42;" d="M2015.995,1904.27c-0.044,0-0.087-0.001-0.131-0.004c-1.217-0.072-2.144-1.115-2.071-2.331
						l9.284-157.643c0.071-1.216,1.108-2.154,2.33-2.071c1.217,0.071,2.144,1.115,2.071,2.331l-9.284,157.643
						C2018.124,1903.366,2017.153,1904.27,2015.995,1904.27z"/>
				</g>
				<g>
					<path style="fill:#776E42;" d="M2005.576,1998.204h6.154c1.811-20.113,4.471-73.351-9.903-133.857
						c-18.316-77.094-57.352-136.781-57.352-136.781s-9.341,65.308,8.974,142.402
						C1967.655,1929.765,1994.323,1979.08,2005.576,1998.204z"/>
					<path style="fill:#ff6900;" d="M1992.84,1919.006c-0.982,0-1.876-0.659-2.134-1.654l-40.114-155.187
						c-0.305-1.179,0.404-2.382,1.583-2.687c1.187-0.301,2.381,0.405,2.687,1.583l40.114,155.187
						c0.305,1.179-0.404,2.382-1.583,2.687C1993.208,1918.983,1993.022,1919.006,1992.84,1919.006z"/>
				</g>
			</g>
			<polygon style="fill:#EFBC73;" points="2093.165,1912.146 1938.94,1912.146 1963.836,2002.371 2068.269,2002.371 			"/>
		</g>
	</g>
</g>
</svg>
