<?xml version="1.0" encoding="utf-8"?>
<!-- Generator: Adobe Illustrator 27.5.0, SVG Export Plug-In . SVG Version: 6.00 Build 0)  -->
<svg version="1.1" xmlns="http://www.w3.org/2000/svg" xmlns:xlink="http://www.w3.org/1999/xlink" x="0px" y="0px"
	 viewBox="0 0 2500 2500" style="enable-background:new 0 0 2500 2500;" xml:space="preserve">
-
<g id="Illustration">
	<g id="SmartTV_content_1_">
		<circle style="fill:transparent;" cx="1250" cy="1249.601" r="914.601"/>
		<g>
			<g>
				<rect x="742.152" y="491.35" style="fill:#F7F1EB;" width="978.582" height="589.66"/>
				<rect x="779.266" y="522.221" style="fill:#E6D0BE;" width="910.614" height="532.25"/>
				<rect x="1074.186" y="1081.121" style="fill:#F7F1EB;" width="314.515" height="189.516"/>
				<path style="fill:#363E44;" d="M1757.848,1082.011H779.267c-0.553,0-1-0.447-1-1v-589.66c0-0.553,0.447-1,1-1h978.581
					c0.552,0,1,0.447,1,1v589.66C1758.848,1081.563,1758.399,1082.011,1757.848,1082.011z M780.267,1080.011h976.581v-587.66
					H780.267V1080.011z"/>
				<path style="fill:#F7F1EB;" d="M1547.733,1340.343H993.112c22.866-42.281,67.067-68.628,115.134-68.628h324.352
					C1480.667,1271.715,1524.867,1298.062,1547.733,1340.343z"/>
				<g>
					<path style="fill:#363E44;" d="M1426.814,1271.638H1110.3V1080.12h316.515V1271.638z M1112.3,1269.638h312.515V1082.12H1112.3
						V1269.638z"/>
					<path style="fill:#363E44;" d="M1549.403,1341.343H991.44l0.791-1.473c11.235-20.938,28.531-38.651,50.019-51.223
						c21.255-12.437,45.132-19.01,69.05-19.01c0.553,0,1,0.447,1,1s-0.447,1-1,1c-48.141,0-93.677,26.52-116.504,67.705h551.25
						c-22.253-39.943-71.418-67.705-120.231-67.705c-0.553,0-1-0.447-1-1s0.447-1,1-1c50.115,0,100.611,28.881,122.799,70.232
						L1549.403,1341.343z"/>
				</g>
			</g>
			
				<ellipse transform="matrix(0.7071 -0.7071 0.7071 0.7071 -161.5271 1111.7993)" style="fill:#FFFFFF;" cx="1261.297" cy="750.88" rx="77.243" ry="77.243"/>
			<polygon style="fill:#E6D0BE;" points="1306.813,750.88 1234.075,708.885 1234.075,792.875 			"/>
			<rect x="806.64" y="997.482" style="fill:#FFFFFF;" width="861.597" height="40.374"/>
			<path style="fill:#363E44;" d="M1650.048,1018.669h-471.964c-0.553,0-1-0.447-1-1c0-0.553,0.447-1,1-1h471.964
				c0.553,0,1,0.447,1,1C1651.048,1018.222,1650.601,1018.669,1650.048,1018.669z"/>
			<path style="fill:#E6D0BE;" d="M1178.084,1018.669H824.829c-0.553,0-1-0.447-1-1c0-0.553,0.447-1,1-1h353.255
				c0.553,0,1,0.447,1,1C1179.084,1018.222,1178.637,1018.669,1178.084,1018.669z"/>
		</g>
		<g>
			<g>
				<g>
					<path style="fill:#BC8271;" d="M1430.157,1341.81c2.405-53.875,8.556-85.065,32.933-107.152
						c32.762-29.683,80.524-20.293,85.495-19.237c3.174,0.673,48.873,7.536,69,49.454c19.877,41.398,17.137,91.876-9.479,128.787
						l29.778,96.982c9.56,31.135-7.93,64.125-39.065,73.685l-7.052,2.166c-31.135,9.56-64.125-7.93-73.685-39.065l-19.892-64.785
						c-20.259,4.412-37.642,3.486-46.977-4.596C1434.493,1443.574,1427.323,1405.254,1430.157,1341.81z"/>
					<path style="fill:#363E44;" d="M1496.828,1462.384c-0.438,0-0.84-0.29-0.963-0.732l-6.651-23.912
						c-0.147-0.531,0.164-1.083,0.696-1.231c0.524-0.146,1.084,0.164,1.231,0.696l6.651,23.912c0.147,0.531-0.164,1.083-0.696,1.231
						C1497.008,1462.372,1496.917,1462.384,1496.828,1462.384z"/>
					<path style="fill:#363E44;" d="M1512.523,1375.827c-0.144,0-0.289-0.031-0.428-0.097c-0.499-0.236-0.712-0.833-0.475-1.332
						c3.553-7.483,5.7-12.276,7.269-15.776c0.771-1.72,1.404-3.136,2.001-4.415c0.234-0.499,0.83-0.715,1.329-0.483
						c0.5,0.233,0.717,0.828,0.483,1.329c-0.593,1.271-1.223,2.678-1.988,4.387c-1.572,3.509-3.725,8.313-7.287,15.816
						C1513.257,1375.616,1512.897,1375.827,1512.523,1375.827z"/>
					<path style="fill:#363E44;" d="M1449.096,1234.725c22.912-42.488,112.099-49.451,157.495-16.663
						c61.389,44.34,66.611,138.483,25.623,183.684c-13.751,15.164-38.084,36.039-72.143,31.338
						c-19.888-2.745-24.314-29.426-25.258-35.884c15.332-7.95,22.664-25.627,17.652-41.25
						c-5.047-15.736-21.305-25.302-36.114-23.363c-9.823,1.286-16.395,7.292-18.99,9.965
						C1455.94,1305.281,1432.769,1265.001,1449.096,1234.725z"/>
				</g>
				<g>
					<g>
						<path style="fill:#363E44;" d="M1924.123,1381.692c-0.381,0-0.744-0.218-0.911-0.586l-72.626-159.793l-93.762-8.652
							c-0.55-0.051-0.955-0.538-0.904-1.088c0.051-0.549,0.54-0.945,1.088-0.904l94.34,8.706c0.357,0.033,0.67,0.256,0.818,0.582
							l72.866,160.321c0.229,0.503,0.007,1.096-0.496,1.324C1924.401,1381.664,1924.261,1381.692,1924.123,1381.692z"/>
						<polygon style="fill:#D3BBA3;" points="1923.357,1603.963 2030.061,1574.297 1982.547,1353.7 1850.192,1390.498 						"/>
						
							<rect x="1833.897" y="1343.917" transform="matrix(-0.9635 0.2679 -0.2679 -0.9635 4118.6489 2154.7092)" style="fill:#FFFFFF;" width="156.902" height="28.755"/>
						<polygon style="fill:#FFFFFF;" points="1846.046,1365.564 1972.889,1330.299 1959.97,1305.132 1844.12,1337.341 						"/>
					</g>
					<path style="fill:#BC8271;" d="M1991.181,1393.785c0,0-50.804,113.605-101.699,111.344l-21.686-63.272
						c0,0-34.688,36.973-1.588,128.945l-78.718,178.053l167.755,66.98l46.956-179.802l68.857-86.17c0,0,28.169-33.952-6.754-46.987
						c0,0,25.512-30.568-16.514-35.294c0,0,19.386-37.909-17.728-39.373C2030.061,1428.21,2032.872,1382.911,1991.181,1393.785z"/>
					<path style="fill:#EFBC73;" d="M1961.844,1823.906c0,0-225.808-284.612-222.953-298.833
						c-66-12.543-52.672-23.555-123.379-20.366c-186.874,8.428-469.2,104.437-469.2,104.437l20.989,292.154l113.99,3.954
						l-18.994,259.632C1262.296,2164.883,1736.153,2181.326,1961.844,1823.906z"/>
				</g>
			</g>
			<g>
				<g>
					<path style="fill:#E2A18D;" d="M1173.605,1368.183c-12.879-56.213-25.342-87.844-55.23-106.396
						c-40.167-24.933-88.608-5.879-93.635-3.813c-3.209,1.318-49.966,17.317-63.087,65.281
						c-12.958,47.368-0.378,99.944,34.713,133.662l-12.696,107.745c-4.076,34.59,20.661,65.935,55.251,70.011l7.835,0.923
						c34.59,4.076,65.935-20.661,70.011-55.251l8.481-71.975c22.159,0.749,40.269-3.564,48.536-13.859
						C1188.592,1476.071,1188.773,1434.38,1173.605,1368.183z"/>
					<path style="fill:#363E44;" d="M1126.438,1507.78c-0.03,0-0.061-0.001-0.092-0.004c-0.55-0.05-0.955-0.536-0.905-1.087
						l2.404-26.432c0.051-0.549,0.536-0.96,1.087-0.905c0.55,0.05,0.955,0.537,0.905,1.087l-2.404,26.432
						C1127.385,1507.39,1126.949,1507.78,1126.438,1507.78z"/>
					<path style="fill:#363E44;" d="M1099.8,1424.761c-0.311,0-0.617-0.145-0.813-0.416c-2.61-3.628-4.901-6.935-7.326-10.436
						c-1.973-2.848-4.005-5.782-6.313-9.036c-0.319-0.45-0.214-1.074,0.237-1.394c0.449-0.32,1.075-0.214,1.394,0.237
						c2.313,3.26,4.35,6.2,6.325,9.054c2.42,3.493,4.706,6.793,7.306,10.406c0.322,0.448,0.221,1.073-0.228,1.396
						C1100.206,1424.699,1100.002,1424.761,1099.8,1424.761z"/>
					<path style="fill:#84524D;" d="M891.551,1338.957c-2.947-28.759,17.978-54.462,46.739-57.41
						c0.044-0.005,0.089-0.006,0.135-0.011c-3.203-5.427-5.35-11.588-6.034-18.267c-2.538-24.768,15.482-46.903,40.25-49.441
						c5.175-0.53,10.218-0.117,15.007,1.022c-1.077-23.703,16.485-44.412,40.385-46.861c13.506-1.384,26.202,3.376,35.391,11.978
						c7.8-15.413,23.03-26.666,41.49-28.558c27.923-2.861,52.973,16.724,57.208,44.152c1.319-0.255,2.651-0.477,4.014-0.617
						c24.768-2.538,46.903,15.482,49.441,40.25c2.538,24.767-15.482,46.903-40.25,49.441c-0.714,0.073-1.419,0.071-2.128,0.11
						c1.067,44.026-44.741,53.647-47.425,54.591c7.158,19.52,14.314,39.041,21.469,58.561c-7.434,2.906-16.276,6.888-23.71,9.795
						c-6.438-20.617-15.507-27.988-27.442-28.944c-18.796-1.505-34.457,17.04-34.444,35.306c0.013,16.673,7.588,33.407,24.23,41.155
						c-18.674,2.205-38.281,3.971-58.763,5.133c-10.684,0.607-21.143,1.022-31.356,1.271c-6.554-3.454-48.745-26.617-61.458-76.486
						C911.933,1381.088,893.984,1362.7,891.551,1338.957z"/>
				</g>
				<g>
					<g>
						<path style="fill:#E2A18D;" d="M757.886,1468.712c-27.454,10.076-53.246,8.609-57.607-3.275
							c-4.362-11.885,14.358-29.687,41.812-39.763c27.454-10.076,52.192-13.34,57.607,3.275
							C805.772,1447.589,785.34,1458.636,757.886,1468.712z"/>
						<path style="fill:#E2A18D;" d="M605.145,1449.428c0,0-115.65,137.989-180.232,547.567l157.443,25.848l145.199-386.808
							L605.145,1449.428z"/>
						<g>
							<path style="fill:#363E44;" d="M667.08,1415.87c-0.051,0-0.103-0.004-0.156-0.012c-0.545-0.086-0.918-0.598-0.833-1.143
								l31.592-201.629c0.048-0.304,0.233-0.568,0.502-0.719c0.269-0.149,0.593-0.167,0.875-0.047l102.634,43.337
								c0.509,0.215,0.747,0.801,0.532,1.31c-0.215,0.509-0.804,0.747-1.31,0.532l-101.455-42.839l-31.393,200.364
								C667.99,1415.519,667.565,1415.87,667.08,1415.87z"/>
							<polygon style="fill:#D87355;" points="737.243,1663.927 608.892,1663.927 593.465,1402.869 752.67,1402.869 							"/>
							<rect x="582.355" y="1369.544" style="fill:#FFFFFF;" width="181.835" height="33.325"/>
							<polygon style="fill:#FFFFFF;" points="749.56,1373.741 596.985,1373.741 603.597,1341.631 742.949,1341.631 							"/>
						</g>
						<ellipse style="fill:#E2A18D;" cx="753.69" cy="1492.82" rx="23.864" ry="28.941"/>
						<ellipse style="fill:#E2A18D;" cx="753.69" cy="1542.692" rx="23.864" ry="28.941"/>
						<ellipse style="fill:#E2A18D;" cx="746.965" cy="1587.416" rx="19.41" ry="23.54"/>
						<g>
							<path style="fill:#E2A18D;" d="M562.251,1525.073c0,0,21.534-37.486,57.812-44.354c29.679-5.619,69.153-5.321,72.864,2.204
								c6.721,13.627-15.796,34.449-46.844,38.839c0,0-26.57,72.436-49.098,83.924
								C574.457,1617.173,562.251,1525.073,562.251,1525.073z"/>
						</g>
					</g>
					<path style="fill:#E2A18D;" d="M715.005,1668.952c-278.442,167.569-335.329,340.514-259.45,410.433
						c67.207,61.927,219.826-25.591,411.7-179.057C821.221,1828.243,772.893,1754.707,715.005,1668.952z"/>
					<path style="fill:#363E44;" d="M454.408,1931.999c-0.16,0-0.323-0.038-0.475-0.12c-0.485-0.263-0.667-0.869-0.404-1.355
						c25.116-46.47,65.662-93.922,120.514-141.04c0.419-0.358,1.049-0.313,1.41,0.107c0.359,0.419,0.311,1.05-0.107,1.41
						c-54.664,46.958-95.058,94.22-120.057,140.474C455.108,1931.81,454.764,1931.999,454.408,1931.999z"/>
					<path style="fill:#E2A18D;" d="M1433.399,1516.708c242.759-66.659,394.449-72.337,402.099,25.858
						c4.926,63.23-107.492,148.725-296.108,211.765C1505.733,1679.535,1472.177,1608.083,1433.399,1516.708z"/>
					<path style="fill:#363E44;" d="M508.796,1785.524c0,0,208.543-186.367,469.913-220.755
						c101.836-13.399,452.142-81.846,452.142-81.846l171.548,271.082l-165.946,94.791l-44.077,315.492l-666.946,0.601
						l-25.535-136.36L508.796,1785.524z"/>
				</g>
			</g>
			<g>
				<path style="fill:#363E44;" d="M1777.298,1423.086c6.484-55.829-3.685-132.197-46.237-173.369
					c-28.472-27.549-92.044-46.89-131.624-15.708c-37.931,29.881-39.969,94.612-15.829,129.651
					C1618.984,1415.007,1732.777,1439.667,1777.298,1423.086z"/>
				<path style="fill:#363E44;" d="M1816.665,1517.079c14.252-40.2,19.664-98.414-4.84-136.077
					c-16.396-25.201-60.146-50.275-94.706-33.912c-33.119,15.68-45.59,63.218-33.667,93.226
					C1700.923,1484.29,1780.923,1521.804,1816.665,1517.079z"/>
				<path style="fill:#363E44;" d="M1814.479,1600.73c22.318-26.716,42.984-69.725,34.926-105.501
					c-5.392-23.938-31.752-55.545-62.843-52.835c-29.794,2.597-52.832,35.433-52.227,61.78
					C1735.221,1542.783,1785.788,1594.2,1814.479,1600.73z"/>
				<path style="fill:#363E44;" d="M1843.746,1736.441c22.318-26.716,42.984-69.725,34.926-105.501
					c-5.392-23.938-31.752-55.545-62.843-52.835c-29.794,2.597-52.832,35.433-52.227,61.78
					C1764.488,1678.494,1815.055,1729.911,1843.746,1736.441z"/>
				<path style="fill:#9E6C5A;" d="M1722.71,1347.398c-0.069,0-0.141-0.007-0.211-0.022l-91.483-19.683
					c-0.54-0.116-0.884-0.647-0.768-1.188c0.116-0.541,0.649-0.887,1.188-0.768l91.483,19.683c0.54,0.116,0.884,0.647,0.768,1.188
					C1723.586,1347.078,1723.171,1347.398,1722.71,1347.398z"/>
				<path style="fill:#9E6C5A;" d="M1688.121,1338.727c-0.545,0-0.991-0.438-1-0.984l-0.638-40.228
					c-0.009-0.552,0.432-1.007,0.984-1.016c0.005,0,0.011,0,0.016,0c0.545,0,0.991,0.438,1,0.984l0.638,40.228
					c0.009,0.552-0.432,1.007-0.984,1.016C1688.132,1338.727,1688.126,1338.727,1688.121,1338.727z"/>
				<path style="fill:#9E6C5A;" d="M1788.626,1455.782c-0.15,0-0.304-0.034-0.447-0.106l-63.423-31.793
					c-0.493-0.247-0.693-0.848-0.445-1.342c0.247-0.493,0.848-0.694,1.342-0.445l63.423,31.793c0.493,0.247,0.693,0.848,0.445,1.342
					C1789.346,1455.58,1788.992,1455.782,1788.626,1455.782z"/>
				<path style="fill:#9E6C5A;" d="M1764.883,1442.858c-0.078,0-0.157-0.009-0.235-0.028c-0.537-0.129-0.867-0.67-0.737-1.206
					l7.158-29.65c0.129-0.537,0.677-0.87,1.206-0.737c0.537,0.129,0.867,0.67,0.737,1.206l-7.158,29.65
					C1765.743,1442.551,1765.334,1442.858,1764.883,1442.858z"/>
				<path style="fill:#9E6C5A;" d="M1805.358,1540.282c-0.308,0-0.61-0.141-0.806-0.407l-26.817-36.405
					c-0.328-0.444-0.233-1.07,0.212-1.397c0.442-0.329,1.071-0.233,1.397,0.212l26.817,36.405c0.328,0.444,0.233,1.07-0.212,1.397
					C1805.772,1540.219,1805.564,1540.282,1805.358,1540.282z"/>
				<path style="fill:#9E6C5A;" d="M1795.612,1526.073c-0.23,0-0.462-0.079-0.65-0.24c-0.42-0.359-0.469-0.99-0.109-1.41
					l12.644-14.767c0.361-0.421,0.992-0.466,1.41-0.109c0.42,0.359,0.469,0.99,0.109,1.41l-12.644,14.767
					C1796.174,1525.955,1795.894,1526.073,1795.612,1526.073z"/>
				<path style="fill:#9E6C5A;" d="M1632.213,1402.746c-0.151,0-0.306-0.034-0.45-0.107c-30.059-15.195-43.588-30.589-48.978-38.412
					c-12.006-17.427-17.813-42.63-15.534-67.419c2.474-26.915,13.685-49.497,31.567-63.585c1.896-1.493,10.375-6.781,15.733-9.389
					c0.498-0.241,1.097-0.033,1.337,0.462c0.241,0.496,0.035,1.095-0.462,1.337c-5.444,2.649-13.795,7.92-15.37,9.16
					c-37.971,29.913-39.578,93.53-15.625,128.299c5.282,7.667,18.571,22.767,48.233,37.762c0.493,0.249,0.69,0.851,0.441,1.344
					C1632.931,1402.546,1632.578,1402.746,1632.213,1402.746z"/>
			</g>
		</g>
		<g>
			<polygon style="fill:#D3BBA3;" points="1512.402,710.018 1684.999,621.295 1745.99,689.018 1713.314,714.487 1682.124,689.792 
				1608.296,755.218 			"/>
			<polygon style="fill:#D3BBA3;" points="2115.308,994.201 2073.898,804.605 1982.844,800.661 1983.996,842.074 2022.894,850.415 
				2019.414,949 			"/>
			<path style="fill:#FFFFFF;" d="M1830.702,860.05l-15.185,32.216l-33.694-15.882l15.185-32.216l-284.606-134.151l-55.275,179.167
				l228.904,107.895l59.642-58.995c7.952-7.866,19.971-9.926,30.089-5.157c10.117,4.769,16.178,15.351,15.172,26.49l-7.547,83.55
				l228.904,107.895l103.02-156.662L1830.702,860.05z"/>
			<polygon style="fill:#D87355;" points="1672.026,951.104 1503.094,871.477 1535.956,760.493 1758.999,865.625 			"/>
			<polygon style="fill:#ff6900;" points="1826.169,1023.76 1996.692,1104.137 2061.385,1008.156 1839.933,903.774 			"/>
		</g>
		<g>
			<path style="fill:#FFFFFF;" d="M1069.76,857.138L953.284,700.422c-32.27-43.417-90.469-54.385-126.936-23.921
				c-15.07,12.589-23.817,30.094-26.307,49.081l-122.977,42.216c-13.627-13.454-31.282-21.894-50.905-22.574
				c-47.489-1.643-86.682,42.755-85.482,96.838l4.334,195.212c0.948,42.685,30.842,76.901,68.32,78.199
				c37.48,1.299,69.67-30.766,73.569-73.282l9.032-98.481l197.26-67.716l67.613,72.171c29.19,31.157,74.288,36.691,103.067,12.647
				C1092.652,936.768,1095.228,891.405,1069.76,857.138z"/>
			<path style="fill:#363E44;" d="M595.576,1123.354c-0.736,0-1.473-0.013-2.212-0.039c-37.895-1.312-68.329-36.09-69.286-79.175
				l-4.334-195.212c-0.633-28.528,9.932-55.682,28.983-74.499c15.994-15.796,36.44-24.092,57.532-23.362
				c19.071,0.661,36.738,8.414,51.13,22.428L779.2,731.68c2.747-19.878,11.909-36.83,26.524-49.06
				c0.016-0.015,0.032-0.029,0.049-0.044c16.208-13.539,37.427-19.544,59.75-16.898c26.593,3.148,51.608,18.089,68.631,40.99
				l116.476,156.716c25.707,34.59,23.05,80.728-6.051,105.037c-29.096,24.31-74.972,18.721-104.437-12.73l-67.17-71.698
				l-196.037,67.295l-8.973,97.838C664.104,1091.202,632.526,1123.353,595.576,1123.354z M603.692,753.023
				c-19.662,0-38.593,8.047-53.559,22.828c-18.663,18.432-29.011,45.051-28.39,73.031l4.334,195.212
				c0.934,42.026,30.52,75.945,67.354,77.222c0.716,0.024,1.433,0.037,2.144,0.037c35.925,0,66.631-31.363,70.395-72.411
				l9.032-98.482c0.036-0.392,0.299-0.727,0.672-0.854l197.261-67.716c0.37-0.127,0.784-0.024,1.054,0.263l67.612,72.171
				c28.74,30.678,73.411,36.195,101.695,12.563c28.287-23.63,30.803-68.569,5.728-102.309L932.549,707.861
				c-16.695-22.462-41.211-37.113-67.261-40.197c-21.739-2.573-42.406,3.252-58.182,16.405c-0.017,0.016-0.032,0.029-0.049,0.044
				c-14.403,12.031-23.379,28.782-25.958,48.441c-0.049,0.377-0.308,0.692-0.667,0.816l-122.978,42.216
				c-0.357,0.123-0.758,0.031-1.026-0.234c-14.11-13.931-31.481-21.637-50.237-22.286
				C605.358,753.038,604.523,753.023,603.692,753.023z"/>
			<path style="fill:#363E44;" d="M597.125,904.225c-0.15,0-0.301-0.034-0.44-0.102c-0.238-0.116-0.42-0.323-0.507-0.574
				l-11.761-34.262l-34.263,11.762c-0.524,0.175-1.091-0.1-1.27-0.622l-11.691-34.058c-0.086-0.25-0.068-0.525,0.048-0.764
				c0.116-0.238,0.323-0.42,0.574-0.507l34.262-11.761l-11.762-34.263c-0.179-0.521,0.1-1.091,0.622-1.271l34.058-11.691
				c0.251-0.086,0.524-0.068,0.764,0.048c0.238,0.116,0.42,0.323,0.507,0.574l11.761,34.262l34.263-11.762
				c0.52-0.175,1.091,0.1,1.27,0.622l11.691,34.058c0.086,0.25,0.068,0.525-0.048,0.764c-0.116,0.238-0.323,0.42-0.574,0.507
				l-34.262,11.761l11.762,34.263c0.179,0.522-0.1,1.091-0.622,1.271l-34.058,11.691
				C597.344,904.207,597.234,904.225,597.125,904.225z M585.039,867.017c0.415,0,0.804,0.261,0.946,0.676l11.761,34.262
				l32.166-11.042l-11.762-34.263c-0.179-0.521,0.1-1.091,0.622-1.271l34.262-11.761l-11.042-32.166l-34.263,11.762
				c-0.523,0.176-1.092-0.1-1.271-0.622l-11.761-34.262l-32.166,11.042l11.762,34.263c0.179,0.521-0.1,1.091-0.622,1.27
				l-34.262,11.761l11.042,32.166l34.263-11.762C584.822,867.034,584.932,867.017,585.039,867.017z"/>
			<g>
				<path style="fill:#363E44;" d="M860.764,746.903c-9.823,0.001-19.022-6.173-22.387-15.971
					c-4.233-12.334,2.355-25.813,14.688-30.047c5.976-2.048,12.393-1.651,18.065,1.122c5.675,2.774,9.93,7.593,11.981,13.568
					c2.051,5.975,1.652,12.389-1.122,18.063c-2.774,5.675-7.593,9.93-13.568,11.982
					C865.888,746.491,863.305,746.903,860.764,746.903z M860.726,701.604c-2.326,0-4.69,0.378-7.011,1.175
					c-11.29,3.876-17.321,16.214-13.445,27.505c3.876,11.289,16.212,17.323,27.503,13.445c5.47-1.877,9.881-5.772,12.421-10.967
					c2.54-5.195,2.904-11.067,1.026-16.536c0-0.001,0-0.001,0-0.001C878.141,707.255,869.719,701.604,860.726,701.604z"/>
				<path style="fill:#363E44;" d="M883.296,812.666c-3.551,0-7.083-0.81-10.366-2.415c-5.675-2.774-9.93-7.593-11.982-13.568
					c-4.233-12.332,2.356-25.811,14.689-30.045c12.335-4.227,25.811,2.356,30.047,14.688c4.233,12.333-2.357,25.813-14.69,30.047
					C888.477,812.236,885.881,812.666,883.296,812.666z M883.298,767.356c-2.327,0-4.692,0.378-7.012,1.175
					c-11.29,3.876-17.321,16.214-13.445,27.503c1.877,5.47,5.772,9.881,10.967,12.421c5.194,2.539,11.068,2.906,16.536,1.026
					c5.47-1.877,9.881-5.773,12.421-10.967c2.54-5.195,2.904-11.068,1.026-16.538C900.712,773.005,892.291,767.356,883.298,767.356z
					"/>
				<path style="fill:#363E44;" d="M839.175,791.065c-9.825,0-19.024-6.173-22.389-15.973c-2.05-5.975-1.651-12.39,1.123-18.064
					c2.774-5.675,7.593-9.93,13.567-11.98c5.975-2.049,12.391-1.651,18.064,1.122c5.675,2.774,9.93,7.593,11.98,13.567
					c4.233,12.333-2.355,25.812-14.69,30.046C844.299,790.652,841.716,791.065,839.175,791.065z M839.174,745.756
					c-2.367,0-4.743,0.392-7.049,1.185c-11.289,3.874-17.322,16.213-13.446,27.504c3.875,11.29,16.211,17.324,27.505,13.446
					c11.29-3.875,17.321-16.214,13.445-27.505c-1.877-5.469-5.771-9.88-10.966-12.419
					C845.657,746.497,842.424,745.756,839.174,745.756z M831.801,745.994h0.01H831.801z"/>
				<path style="fill:#363E44;" d="M904.926,768.493c-9.824,0-19.023-6.173-22.388-15.972c-2.05-5.975-1.651-12.39,1.123-18.065
					c2.774-5.675,7.593-9.93,13.567-11.98c5.976-2.048,12.39-1.652,18.065,1.122c5.675,2.774,9.93,7.593,11.98,13.567
					c2.051,5.975,1.652,12.39-1.122,18.065c-2.774,5.675-7.593,9.93-13.567,11.98C910.05,768.081,907.467,768.493,904.926,768.493z
					 M904.925,723.185c-2.367,0-4.743,0.393-7.047,1.185c-0.001,0-0.001,0-0.001,0c-11.289,3.874-17.322,16.213-13.446,27.504
					c3.876,11.29,16.217,17.322,27.505,13.445c5.469-1.877,9.88-5.772,12.419-10.966c2.54-5.195,2.904-11.068,1.026-16.538
					c-1.877-5.469-5.772-9.88-10.967-12.419C911.408,723.926,908.175,723.185,904.925,723.185z M897.553,723.423h0.01H897.553z"/>
			</g>
			<path style="fill:#363E44;" d="M696.628,824.175c-0.15,0-0.301-0.034-0.439-0.102c-0.238-0.116-0.42-0.323-0.507-0.574
				l-7.974-23.229c-0.179-0.521,0.1-1.091,0.622-1.271l84.421-28.981c0.522-0.175,1.092,0.1,1.271,0.622l7.975,23.229
				c0.086,0.25,0.068,0.525-0.048,0.764c-0.116,0.238-0.323,0.42-0.574,0.507l-84.422,28.979
				C696.847,824.157,696.737,824.175,696.628,824.175z M689.925,800.567l7.324,21.337l82.53-28.33l-7.325-21.338L689.925,800.567z"
				/>
			<path style="fill:#363E44;" d="M717.156,883.974c-0.415,0-0.804-0.261-0.946-0.675l-7.975-23.229
				c-0.086-0.251-0.068-0.526,0.048-0.765c0.116-0.238,0.323-0.42,0.574-0.507l84.422-28.98c0.25-0.086,0.524-0.068,0.764,0.048
				c0.238,0.116,0.42,0.323,0.507,0.574l7.974,23.228c0.179,0.522-0.1,1.091-0.622,1.271l-84.421,28.98
				C717.373,883.956,717.264,883.974,717.156,883.974z M710.452,860.366l7.325,21.337l82.529-28.331l-7.324-21.337L710.452,860.366z
				"/>
			
				<ellipse transform="matrix(0.0198 -0.9998 0.9998 0.0198 -28.5204 1738.5132)" style="fill:#E6D0BE;" cx="872.354" cy="883.802" rx="53.344" ry="53.344"/>
			
				<ellipse transform="matrix(0.6767 -0.7362 0.7362 0.6767 -368.6774 927.9377)" style="fill:#F2E6DC;" cx="872.354" cy="883.802" rx="30.62" ry="30.62"/>
			
				<ellipse transform="matrix(0.4392 -0.8984 0.8984 0.4392 -474.5757 1141.4459)" style="fill:#E6D0BE;" cx="677.012" cy="950.859" rx="53.344" ry="53.344"/>
			
				<ellipse transform="matrix(0.2364 -0.9717 0.9717 0.2364 -406.9298 1383.9266)" style="fill:#F2E6DC;" cx="677.012" cy="950.859" rx="30.62" ry="30.62"/>
			<path style="fill:#363E44;" d="M872.309,938.174c-8.161,0-16.276-1.86-23.823-5.551c-13.041-6.375-22.818-17.448-27.532-31.178
				c-4.713-13.729-3.797-28.472,2.578-41.512c6.376-13.041,17.448-22.818,31.178-27.532c13.728-4.713,28.472-3.798,41.513,2.578
				c13.041,6.375,22.818,17.447,27.532,31.178c4.713,13.729,3.797,28.473-2.578,41.513c-6.376,13.041-17.448,22.818-31.178,27.532
				C884.215,937.188,878.249,938.174,872.309,938.174z M872.398,831.43c-5.724,0-11.468,0.951-17.04,2.864
				c-13.225,4.539-23.89,13.957-30.03,26.518c-6.141,12.561-7.022,26.761-2.482,39.985c4.539,13.224,13.957,23.889,26.518,30.029
				c12.562,6.142,26.762,7.024,39.986,2.483c13.224-4.539,23.889-13.957,30.029-26.518c6.141-12.561,7.023-26.762,2.482-39.986
				c-4.539-13.224-13.957-23.889-26.518-30.029C888.075,833.223,880.257,831.43,872.398,831.43z"/>
			<path style="fill:#363E44;" d="M676.965,1005.231c-8.16,0-16.275-1.861-23.821-5.551c-13.041-6.375-22.818-17.447-27.532-31.178
				c-4.713-13.73-3.797-28.473,2.578-41.513c6.376-13.041,17.448-22.818,31.178-27.532c13.728-4.714,28.472-3.798,41.513,2.579
				c13.041,6.375,22.818,17.448,27.532,31.178c4.713,13.729,3.797,28.472-2.578,41.512c-6.376,13.041-17.448,22.818-31.178,27.532
				C688.872,1004.244,682.906,1005.231,676.965,1005.231z M677.056,898.487c-5.723,0-11.468,0.95-17.04,2.863
				c-13.224,4.539-23.889,13.957-30.029,26.518c-6.141,12.56-7.022,26.762-2.482,39.986c4.539,13.224,13.957,23.889,26.518,30.029
				c12.562,6.141,26.762,7.021,39.985,2.482c13.225-4.539,23.89-13.957,30.03-26.518c6.141-12.56,7.022-26.761,2.482-39.985
				c-4.539-13.224-13.957-23.889-26.517-30.029C692.733,900.28,684.915,898.487,677.056,898.487z"/>
		</g>
	</g>
</g>
</svg>
