<?xml version="1.0" encoding="utf-8"?>
<!-- Generator: Adobe Illustrator 27.5.0, SVG Export Plug-In . SVG Version: 6.00 Build 0)  -->
<svg version="1.1" xmlns="http://www.w3.org/2000/svg" xmlns:xlink="http://www.w3.org/1999/xlink" x="0px" y="0px"
	 viewBox="0 0 2500 2500" style="enable-background:new 0 0 2500 2500;" xml:space="preserve">
-
<g id="Illustration">
	<g id="Livestream_software_1_">
		<circle style="fill:transparent;" cx="1250" cy="1250" r="915"/>
		<g>
			<g>
				<rect x="580.698" y="382.256" style="fill:#D3BBA3;" width="1524.491" height="96.09"/>
				<path style="fill:#D3BBA3;" d="M2105.19,1467.248H580.698c-1.218,0-2.205-0.986-2.205-2.205V382.255
					c0-1.219,0.987-2.205,2.205-2.205H2105.19c1.219,0,2.205,0.986,2.205,2.205v1082.788
					C2107.395,1466.262,2106.409,1467.248,2105.19,1467.248z M582.903,1462.839h1520.082V384.46H582.903V1462.839z"/>
				
					<ellipse transform="matrix(0.2298 -0.9732 0.9732 0.2298 77.0523 959.3031)" style="fill:#FFFFFF;" cx="644.592" cy="430.972" rx="21.855" ry="21.855"/>
				
					<ellipse transform="matrix(0.2298 -0.9732 0.9732 0.2298 131.4425 1028.0281)" style="fill:#FFFFFF;" cx="715.206" cy="430.972" rx="21.855" ry="21.855"/>
				<path style="fill:#FFFFFF;" d="M807.675,430.972c0,12.07-9.785,21.855-21.855,21.855c-12.07,0-21.855-9.785-21.855-21.855
					c0-12.07,9.785-21.855,21.855-21.855C797.89,409.117,807.675,418.901,807.675,430.972z"/>
			</g>
			<g>
				<g>
					<rect x="1321.348" y="558.195" style="fill:#FFFFFF;" width="701.199" height="496.745"/>
					<g>
						<g>
							<g>
								
									<ellipse transform="matrix(0.7071 -0.7071 0.7071 0.7071 3.352 1473.1791)" style="fill:#363E44;" cx="1779.96" cy="732.543" rx="57.836" ry="57.836"/>
								<path style="fill:#363E44;" d="M1675.885,680.097c0,0-46.039,3.164-43.767-29.779c2.272-32.943,39.777-28.399,59.079-18.176
									c19.302,10.224,49.974-10.224,65.877,3.408c15.904,13.632,10.131,76.917-21.629,83.897
									C1703.684,726.427,1675.885,680.097,1675.885,680.097z"/>
							</g>
							<g>
								<g>
									<path style="fill:#84524D;" d="M1579.124,820.583c-95.414,39.611-141.981,73.246-124.038,108.136
										c10.409,20.239,78.099,16.814,155.04-10.452C1602.384,886.55,1589.34,858.748,1579.124,820.583z"/>
									<path style="fill:#84524D;" d="M1891.89,817.794c35.516,37.956,144.401,141.681,102.727,183.914
										c-34.471,34.933-136.298-70.453-173.893-106.024C1844.446,869.721,1868.168,843.758,1891.89,817.794z"/>
									<path style="fill:#EFBC73;" d="M1920.722,810.707c0,0-95.089-45.206-182.383-37.412
										c-87.294,7.794-172.64,42.088-172.64,42.088l41.699,106l-12.471,133.551h308.648l-23.382-126.925L1920.722,810.707z"/>
								</g>
								<g>
									<path style="fill:#84524D;" d="M1487.983,942.002c0.002,0,0.005-0.001,0.006-0.004
										c29.759-88.637,52.572-150.952,58.859-170.467c0.658-2.043,1.837-5.645,2.042-10.567
										c0.763-18.235-13.049-25.365-20.997-44.904c-9.017-22.171-1.543-39.761-7.357-41.647
										c-4.044-1.313-8.731,4.529-13.176,18.955l-0.002,0c2.117-11.349,4.315-26.865-1.96-28.017
										c-7.317-0.942-12.041,16.984-14.368,27.969c2.817-13.296,0.338-21.208-3.321-20.979
										c-5.759,0.362-10.345,10.163-13.387,27.88l-0.001,0c-1.317-12.819-3.547-15.733-6.732-14.742
										c-5.814,1.811-8.041,16.423-8.029,29.642c0.013,14.882,5.186,26.419,8.621,33.616c0.001,0.002,0.001,0.004,0,0.006
										c-27.279,59.918-44.9,98.414-67.917,146.357c-4.709,9.809-0.003,21.548,10.174,25.397
										C1437.952,930.906,1453.628,936.273,1487.983,942.002z"/>
									<path style="fill:#84524D;" d="M1531.003,735.683c8.958-21.923,16.835-27.932,20.264-26.402
										c5.767,2.574,5.781,24.421-3.275,58.111C1542.466,758.982,1536.528,744.092,1531.003,735.683z"/>
									<path style="fill:#363E44;" d="M1503.292,765.967c-0.28,0-0.564-0.052-0.838-0.166c-1.126-0.461-1.664-1.75-1.202-2.877
										c1.481-3.611,2.967-9.34,1.636-16.131c-1.884-9.609-8.352-15.309-11.046-17.316c-0.978-0.726-1.18-2.108-0.452-3.083
										c0.726-0.973,2.108-1.182,3.083-0.452c3.105,2.31,10.561,8.884,12.742,20.003c1.542,7.863-0.174,14.484-1.886,18.655
										C1504.982,765.453,1504.159,765.967,1503.292,765.967z"/>
									<path style="fill:#363E44;" d="M1546.286,751.382c-0.881,0-1.714-0.532-2.054-1.404c-1.785-4.578-4.724-8.772-7.835-13.214
										c-1.514-2.16-3.079-4.393-4.631-6.826c-0.654-1.027-0.355-2.39,0.672-3.045c1.029-0.661,2.39-0.355,3.044,0.672
										c1.501,2.353,3.04,4.547,4.526,6.668c3.268,4.664,6.354,9.069,8.333,14.142c0.441,1.135-0.118,2.414-1.253,2.855
										C1546.824,751.334,1546.552,751.382,1546.286,751.382z"/>
									<path style="fill:#363E44;" d="M1510.354,716.914c-0.902,0-1.75-0.558-2.073-1.456c-1.025-2.84-1.789-5.785-2.272-8.757
										c-0.702-4.309-0.823-8.707-0.357-13.074c0.129-1.212,1.188-2.093,2.424-1.959c1.212,0.129,2.089,1.214,1.959,2.424
										c-0.422,3.977-0.312,7.98,0.327,11.901c0.437,2.704,1.132,5.385,2.065,7.967c0.413,1.146-0.179,2.409-1.324,2.823
										C1510.855,716.873,1510.601,716.914,1510.354,716.914z"/>
									<path style="fill:#363E44;" d="M1494.451,715.157c-0.902,0-1.75-0.558-2.073-1.456c-1.025-2.84-1.789-5.786-2.271-8.757
										c-0.7-4.315-0.82-8.714-0.357-13.076c0.129-1.212,1.199-2.086,2.424-1.959c1.212,0.127,2.089,1.214,1.959,2.424
										c-0.422,3.973-0.312,7.977,0.327,11.905c0.437,2.702,1.133,5.383,2.065,7.964c0.413,1.145-0.179,2.409-1.324,2.823
										C1494.952,715.116,1494.698,715.157,1494.451,715.157z"/>
									<path style="fill:#363E44;" d="M1476.924,723.621c-0.902,0-1.75-0.558-2.073-1.456c-1.025-2.84-1.789-5.786-2.272-8.757
										c-0.702-4.308-0.823-8.707-0.357-13.074c0.127-1.212,1.197-2.086,2.424-1.959c1.212,0.127,2.089,1.214,1.959,2.424
										c-0.422,3.977-0.312,7.979,0.327,11.9c0.437,2.704,1.133,5.385,2.065,7.967c0.413,1.146-0.179,2.409-1.324,2.823
										C1477.426,723.58,1477.172,723.621,1476.924,723.621z"/>
								</g>
								<g>
									<path style="fill:#84524D;" d="M1955.843,924.541c-40.147,8.735-135.71,24.626-144.977,26.549
										c-17.323,3.594-109.786,25.296-108.102,38.977c0.805,6.538,18.807,3.162,24.86,1.844
										c-4.363,3.475-22.566,15.004-19.793,21.848c3.257,8.04,27.05-2.376,27.523-2.305c-4.789,3.079-24.362,14.573-22.483,19.784
										c2.444,6.781,23.86,1.55,30.199-0.313c-0.411,1.061-19.676,13.383-18.006,17.471c1.849,4.531,21.936,0.131,30.054-0.873
										c15.393-3.181,75.878-12.333,105.471-15.381c69.503-7.158,90.951-15.114,123.947-24.486
										C1997.453,1003.987,1975.543,934.593,1955.843,924.541z"/>
									<path style="fill:#363E44;" d="M1882.79,939.567c-1.044,0-1.972-0.745-2.166-1.811c-0.22-1.197,0.575-2.345,1.774-2.562
										c19.428-3.54,59.689-10.957,73.002-13.701c1.21-0.235,2.36,0.523,2.605,1.714c0.245,1.193-0.521,2.36-1.714,2.605
										c-13.354,2.752-53.658,10.176-73.106,13.718C1883.052,939.556,1882.921,939.567,1882.79,939.567z"/>
									<path style="fill:#363E44;" d="M1727.279,993.518c-0.739,0-1.46-0.37-1.878-1.044c-0.639-1.036-0.321-2.394,0.715-3.036
										c3.232-1.998,6.634-3.792,10.111-5.329c6.235-2.754,12.833-4.739,19.613-5.9c1.219-0.205,2.343,0.601,2.545,1.8
										c0.207,1.199-0.601,2.341-1.8,2.545c-6.423,1.102-12.673,2.982-18.575,5.59c-3.292,1.453-6.513,3.152-9.573,5.045
										C1728.075,993.412,1727.675,993.518,1727.279,993.518z"/>
									<path style="fill:#363E44;" d="M1734.918,1013.284c-0.825,0-1.615-0.463-1.994-1.257c-0.523-1.1-0.054-2.416,1.044-2.939
										c0.719-0.342,1.458-0.682,2.209-1.014c6.24-2.756,12.839-4.743,19.615-5.904c1.204-0.196,2.34,0.601,2.545,1.8
										c0.207,1.199-0.601,2.341-1.8,2.545c-6.419,1.1-12.669,2.982-18.575,5.592c-0.715,0.317-1.415,0.64-2.099,0.965
										C1735.558,1013.215,1735.235,1013.284,1734.918,1013.284z"/>
									<path style="fill:#363E44;" d="M1743.449,1032.854c-0.917,0-1.772-0.575-2.086-1.49c-0.394-1.152,0.22-2.405,1.371-2.801
										c4.212-1.443,8.591-2.56,13.016-3.318c1.206-0.192,2.341,0.603,2.545,1.8c0.207,1.199-0.601,2.34-1.8,2.545
										c-4.192,0.719-8.341,1.779-12.331,3.146C1743.927,1032.815,1743.686,1032.854,1743.449,1032.854z"/>
								</g>
							</g>
							<g>
								<g>
									<polygon style="fill:#84524D;" points="1784.669,782.977 1747.015,703.147 1701.583,710.338 1714.564,782.067 									"/>
									<path style="fill:#84524D;" d="M1704.816,782.423c0,6.171,19.371,11.173,43.266,11.173
										c23.895,0,43.266-5.003,43.266-11.173c0-6.171-19.371-12.794-43.266-12.794
										C1724.187,769.629,1704.816,776.252,1704.816,782.423z"/>
								</g>
								<path style="fill:#84524D;" d="M1663.307,672.271c0,0,7.026,68.465,35.967,70.655c17.509,1.325,33.557-18.809,37.449-28.259
									c3.892-9.451,0-24.899,0-24.899s-5.88,5.507-10.604,1.87c-4.724-3.637,0.732-26.505-20.043-25.57
									C1685.3,667.002,1683.046,675.786,1663.307,672.271z"/>
								<path style="fill:#E2A18D;" d="M1727.006,696.732c-1.772,5.525-0.058,15.586,5.467,17.357
									c5.525,1.772,12.769-5.417,14.541-10.942c1.772-5.525-1.271-11.44-6.797-13.212
									C1734.693,688.164,1728.778,691.207,1727.006,696.732z"/>
								<g>
									<g>
										<path style="fill:#FFFFFF;" d="M1707.967,686.935c-0.011,0.14,0.081,0.248,0.07,0.388c0,0.006-0.003,0.01-0.003,0.016
											c0.457,1.912,0.945,3.928,1.744,5.724c0.354,0.795,0.915,1.23,1.333,1.942c0.307,0.522,0.598,1.023,0.922,1.524
											c4.404-4.805,5.887-10.789,5.887-10.789S1713.138,685.335,1707.967,686.935z"/>
										<path style="fill:#363E44;" d="M1702.183,689.75c-6.234,4.426-8.559,12.042-8.916,13.327
											c0.075,0.077,0.151,0.152,0.228,0.226c1.518,0.092,9.319,0.326,15.451-4.029c1.15-0.816,2.156-1.746,3.052-2.721
											c0.052-0.532,0.08-1.072,0.053-1.622c-0.161-3.254-1.735-6.096-4.09-7.986
											C1706.027,687.554,1704.03,688.439,1702.183,689.75z"/>
									</g>
									<g>
										<path style="fill:#FFFFFF;" d="M1671.866,701.889c0.074,2.322,0.56,4.063,1.914,5.83c5.505-0.604,9.734-2.988,9.734-2.988
											s-4.538-5.687-11.337-8.052C1671.651,698.308,1671.814,700.24,1671.866,701.889z"/>
										<path style="fill:#363E44;" d="M1673.662,707.729c1.529-3.616,1.021-7.865-1.491-11.037
											c-0.765-0.26-1.551-0.49-2.372-0.654c-8.206-1.638-16.001,2.763-16.001,2.763s5.509,7.056,13.715,8.693
											C1669.634,707.917,1671.724,707.933,1673.662,707.729z"/>
									</g>
								</g>
								<g>
									<path style="fill:#363E44;" d="M1741.442,705.849c-0.218,0-0.437-0.032-0.657-0.099c-1.163-0.364-1.811-1.6-1.449-2.763
										c0.067-0.213,0.116-0.439,0.146-0.672c0.114-0.863-0.06-1.731-0.476-2.379c-0.202-0.312-0.644-0.851-1.35-0.943
										c-0.254-0.03-0.508-0.002-0.758,0.082c-1.137,0.409-2.407-0.202-2.808-1.357c-0.401-1.15,0.207-2.407,1.356-2.808
										c0.902-0.312,1.828-0.411,2.782-0.289c1.807,0.235,3.441,1.305,4.487,2.93c0.984,1.533,1.389,3.43,1.137,5.34
										c-0.065,0.487-0.166,0.958-0.306,1.408C1743.253,705.244,1742.383,705.849,1741.442,705.849z"/>
								</g>
								<path style="fill:#363E44;" d="M1687.448,717.009c-0.48,0-0.965-0.157-1.372-0.48c-1.397-1.113-2.2-2.414-2.383-3.865
									c-0.213-1.654,0.487-2.872,1.049-3.85c0.336-0.586,0.652-1.139,0.876-1.869c0.289-0.932,0.355-1.925,0.205-3.032
									c-0.161-1.208,0.685-2.317,1.891-2.48c1.206-0.168,2.317,0.685,2.48,1.891c0.233,1.729,0.112,3.385-0.359,4.918
									c-0.37,1.201-0.868,2.069-1.268,2.767c-0.355,0.618-0.521,0.928-0.497,1.098c0.032,0.265,0.308,0.616,0.756,0.973
									c0.952,0.758,1.109,2.147,0.351,3.098C1688.74,716.725,1688.096,717.009,1687.448,717.009z"/>
								<path style="fill:#363E44;" d="M1695.772,725.677c-0.762,0-1.617-0.118-2.571-0.415c-1.163-0.364-1.811-1.6-1.449-2.763
									c0.364-1.161,1.595-1.798,2.762-1.449c1.468,0.465,2.08,0.082,2.278-0.045c0.932-0.59,1.344-2.149,1.415-2.648
									c0.168-1.199,1.264-2.035,2.478-1.884c1.199,0.161,2.048,1.253,1.895,2.455c-0.052,0.4-0.579,3.973-3.393,5.781
									C1698.418,725.204,1697.283,725.677,1695.772,725.677z"/>
							</g>
							<g>
								<g>
									
										<ellipse transform="matrix(0.2448 -0.9696 0.9696 0.2448 645.4645 2217.8486)" style="fill:#D87355;" cx="1746.402" cy="694.591" rx="27.121" ry="19.655"/>
									<path style="fill:#D87355;" d="M1743.361,686.938c-1.219,0-2.205-0.986-2.205-2.205v-24.419
										c1.016-21.176-14.105-34.422-27.36-39.362c-14.269-5.32-28.226-2.724-35.557,6.612c-0.751,0.958-2.136,1.128-3.094,0.372
										c-0.958-0.751-1.126-2.136-0.372-3.094c8.535-10.878,24.458-14.028,40.563-8.023c14.65,5.458,31.356,20.153,30.228,43.599
										l0.002,24.313C1745.565,685.952,1744.579,686.938,1743.361,686.938z"/>
									<path style="fill:#363E44;" d="M1748.367,712.888c-0.868,0-1.692-0.517-2.041-1.372c-0.461-1.126,0.08-2.414,1.208-2.875
										c4.026-1.647,7.387-6.072,8.77-11.552c2.015-7.979-0.788-15.595-6.249-16.973c-2.905-0.739-6.149,0.471-8.895,3.303
										c-0.844,0.874-2.244,0.894-3.118,0.047s-0.896-2.244-0.047-3.118c3.874-3.992,8.662-5.641,13.141-4.509
										c7.818,1.974,12.053,11.993,9.444,22.33c-1.718,6.81-6.078,12.387-11.379,14.553
										C1748.929,712.836,1748.644,712.888,1748.367,712.888z"/>
								</g>
							</g>
							<g>
								<path style="fill:#363E44;" d="M1706.077,738.118c-2.3,0-4.728-0.146-7.306-0.467c-1.208-0.148-2.067-1.251-1.916-2.459
									c0.151-1.206,1.255-2.074,2.459-1.916c29.819,3.699,38.117-17.609,38.197-17.824c0.426-1.143,1.703-1.712,2.836-1.298
									c1.141,0.426,1.723,1.695,1.298,2.836C1741.558,717.22,1733.428,738.118,1706.077,738.118z"/>
								<path style="fill:#363E44;" d="M1690.524,734.505c0-3.625,2.939-6.564,6.564-6.564c3.625,0,6.564,2.939,6.564,6.564
									s-2.939,6.564-6.564,6.564C1693.463,741.07,1690.524,738.131,1690.524,734.505z"/>
							</g>
						</g>
					</g>
					<g>
						<g>
							<g>
								<rect x="1427.248" y="870.662" style="fill:#363E44;" width="357.421" height="184.279"/>
							</g>
						</g>
					</g>
				</g>
				<g>
					<g>
						<rect x="720.025" y="701.62" style="fill:#FFFFFF;" width="404.521" height="286.571"/>
						<g>
							<g>
								<g>
									<circle style="fill:#363E44;" cx="984.598" cy="802.201" r="33.366"/>
									<path style="fill:#363E44;" d="M924.557,771.945c0,0-26.56,1.825-25.249-17.179c1.311-19.005,22.947-16.383,34.083-10.485
										c11.136,5.898,28.83-5.898,38.004,1.966c9.175,7.864,5.845,44.373-12.478,48.4
										C940.594,798.673,924.557,771.945,924.557,771.945z"/>
								</g>
								<g>
									<g>
										<path style="fill:#84524D;" d="M868.736,852.991c-55.044,22.852-81.909,42.255-71.557,62.383
											c6.005,11.676,45.055,9.7,89.442-6.03C882.154,891.047,874.629,875.009,868.736,852.991z"/>
										<path style="fill:#84524D;" d="M1049.17,851.383c20.489,21.897,83.305,81.735,59.263,106.1
											c-19.886,20.153-78.63-40.644-100.318-61.165C1021.799,881.339,1035.484,866.361,1049.17,851.383z"/>
										<path style="fill:#EFBC73;" d="M1065.803,847.294c0,0-54.856-26.079-105.216-21.583
											c-50.36,4.496-99.596,24.281-99.596,24.281l24.056,61.151l-7.194,77.045h178.059l-13.489-73.223L1065.803,847.294z"/>
									</g>
									<g>
										<path style="fill:#84524D;" d="M816.156,923.037c0.001,0,0.003,0,0.003-0.002c17.168-51.134,30.329-87.084,33.955-98.342
											c0.38-1.179,1.06-3.257,1.178-6.096c0.44-10.52-7.528-14.633-12.113-25.905c-5.202-12.79-0.89-22.938-4.244-24.026
											c-2.333-0.757-5.037,2.613-7.601,10.935l-0.001,0c1.221-6.547,2.489-15.498-1.131-16.163
											c-4.221-0.544-6.946,9.798-8.289,16.135c1.625-7.67,0.195-12.235-1.916-12.102c-3.322,0.209-5.968,5.863-7.723,16.084
											h-0.001c-0.76-7.395-2.046-9.076-3.883-8.504c-3.354,1.045-4.639,9.474-4.632,17.101
											c0.008,8.585,2.992,15.241,4.973,19.393c0,0.001,0.001,0.002,0,0.003c-15.737,34.567-25.903,56.775-39.181,84.433
											c-2.716,5.659-0.002,12.431,5.869,14.652C787.294,916.636,796.337,919.733,816.156,923.037z"/>
										<path style="fill:#84524D;" d="M840.974,804.013c5.168-12.647,9.712-16.114,11.69-15.231
											c3.327,1.485,3.335,14.088-1.889,33.524C847.588,817.454,844.162,808.864,840.974,804.013z"/>
									</g>
									<g>
										<path style="fill:#84524D;" d="M1086.064,912.964c-23.161,5.039-78.291,14.207-83.637,15.316
											c-9.993,2.074-63.336,14.593-62.364,22.486c0.464,3.772,10.85,1.824,14.342,1.064
											c-2.517,2.005-13.018,8.656-11.419,12.604c1.879,4.638,15.605-1.371,15.878-1.33c-2.763,1.776-14.055,8.407-12.971,11.413
											c1.41,3.912,13.765,0.894,17.422-0.181c-0.237,0.612-11.351,7.72-10.388,10.079c1.067,2.614,12.655,0.075,17.338-0.504
											c8.88-1.835,43.774-7.115,60.846-8.873c40.096-4.13,52.47-8.719,71.505-14.126
											C1110.069,958.797,1097.429,918.763,1086.064,912.964z"/>
									</g>
								</g>
								<g>
									<g>
										<polygon style="fill:#84524D;" points="987.314,831.296 965.591,785.243 939.382,789.391 946.871,830.772 										"/>
										<path style="fill:#84524D;" d="M941.247,830.977c0,3.56,11.175,6.446,24.96,6.446c13.785,0,24.96-2.886,24.96-6.446
											c0-3.56-11.175-7.381-24.96-7.381C952.422,823.596,941.247,827.417,941.247,830.977z"/>
									</g>
									<path style="fill:#84524D;" d="M917.301,767.43c0,0,4.053,39.498,20.749,40.761c10.101,0.764,19.359-10.851,21.604-16.303
										c2.245-5.452,0-14.364,0-14.364s-3.392,3.177-6.117,1.079c-2.725-2.098,0.422-15.29-11.563-14.751
										C929.988,764.391,928.688,769.459,917.301,767.43z"/>
									<path style="fill:#E2A18D;" d="M954.049,781.542c-1.022,3.188-0.033,8.991,3.154,10.013
										c3.188,1.022,7.367-3.125,8.389-6.312c1.022-3.187-0.734-6.6-3.921-7.622C958.483,776.599,955.07,778.355,954.049,781.542z
										"/>
									<g>
										<path style="fill:#363E44;" d="M962.378,787.735c-0.216,0-0.435-0.032-0.652-0.099c-1.163-0.36-1.815-1.593-1.456-2.756
											c0.025-0.08,0.042-0.161,0.054-0.245c0.066-0.508-0.169-0.831-0.253-0.863c-1.153,0.394-2.413-0.211-2.811-1.361
											c-0.398-1.152,0.206-2.405,1.357-2.803c0.666-0.228,1.353-0.291,2.037-0.207c1.305,0.17,2.491,0.941,3.243,2.11
											c0.688,1.07,0.971,2.386,0.799,3.706c-0.046,0.338-0.117,0.661-0.211,0.965
											C964.191,787.128,963.319,787.735,962.378,787.735z"/>
									</g>
								</g>
								<g>
									<g>
										
											<ellipse transform="matrix(0.2448 -0.9696 0.9696 0.2448 -27.5983 1525.1823)" style="fill:#D87355;" cx="965.238" cy="780.307" rx="15.646" ry="11.339"/>
										<path style="fill:#D87355;" d="M963.483,776.823c-1.218,0-2.205-0.986-2.205-2.205v-14.086
											c0.563-11.758-7.825-19.094-15.177-21.833c-7.845-2.93-15.479-1.542-19.452,3.516c-0.755,0.96-2.137,1.126-3.096,0.372
											c-0.957-0.751-1.124-2.136-0.372-3.094c5.182-6.599,14.783-8.537,24.461-4.926c8.746,3.258,18.718,12.043,18.044,26.07
											l0.002,13.98C965.688,775.837,964.701,776.823,963.483,776.823z"/>
									</g>
								</g>
								<g>
									<path style="fill:#363E44;" d="M941.981,806.352c-1.365,0-2.809-0.088-4.336-0.278c-1.209-0.149-2.067-1.251-1.916-2.459
										c0.15-1.208,1.25-2.099,2.459-1.916c16.34,2.013,20.867-9.216,21.052-9.693c0.434-1.135,1.708-1.705,2.84-1.277
										c1.135,0.429,1.711,1.688,1.287,2.825C963.315,793.693,958.395,806.352,941.981,806.352z"/>
									<path style="fill:#363E44;" d="M933.002,803.333c0-2.091,1.695-3.787,3.787-3.787c2.091,0,3.787,1.695,3.787,3.787
										c0,2.091-1.695,3.787-3.787,3.787C934.698,807.12,933.002,805.425,933.002,803.333z"/>
								</g>
							</g>
						</g>
						<g>
							<g>
								<g>
									<rect x="783.009" y="881.882" style="fill:#363E44;" width="220.799" height="106.31"/>
								</g>
							</g>
						</g>
					</g>
					<path style="fill:#E6D0BE;" d="M1124.545,990.956H717.149c-1.218,0-2.205-0.986-2.205-2.205V700.568
						c0-1.219,0.987-2.205,2.205-2.205h407.396c1.218,0,2.205,0.986,2.205,2.205v288.183
						C1126.75,989.969,1125.762,990.956,1124.545,990.956z M719.353,986.546h402.987V702.772H719.353V986.546z"/>
				</g>
				<g>
					<path style="fill:#E6D0BE;" d="M1140.627,1349.234H717.149c-1.218,0-2.205-0.986-2.205-2.205v-279.551
						c0-1.219,0.987-2.205,2.205-2.205h423.478c1.218,0,2.205,0.986,2.205,2.205v279.551
						C1142.832,1348.248,1141.844,1349.234,1140.627,1349.234z M719.353,1344.825h419.068v-275.142H719.353V1344.825z"/>
				</g>
			</g>
			<rect x="720.025" y="640.128" style="fill:#D3BBA3;" width="404.521" height="25.187"/>
			<rect x="720.025" y="558.166" style="fill:#D3BBA3;" width="404.521" height="25.187"/>
			<rect x="720.025" y="599.147" style="fill:#D3BBA3;" width="404.521" height="25.187"/>
		</g>
		<g>
			<g>
				<g>
					<g>
						<circle style="fill:#363E44;" cx="860.335" cy="1307.1" r="133.421"/>
						<path style="fill:#363E44;" d="M1100.425,1186.111c0,0,106.207,7.299,100.965-68.696
							c-5.241-75.996-91.761-65.514-136.289-41.929c-44.529,23.585-115.283-23.585-151.97,7.862
							c-36.688,31.447-23.372,177.438,49.897,193.541C1036.296,1292.991,1100.425,1186.111,1100.425,1186.111z"/>
					</g>
					<g>
						<g>
							<path style="fill:#E2A18D;" d="M1323.64,1510.196c220.109,91.378,327.534,168.97,286.141,249.456
								c-24.012,46.69-180.165,38.789-357.658-24.112C1269.981,1662.374,1300.072,1598.239,1323.64,1510.196z"/>
							<path style="fill:#84524D;" d="M602.126,1503.764c-81.931,87.561-333.116,326.841-236.979,424.268
								c79.52,80.587,314.423-162.526,401.15-244.584C711.573,1623.552,656.85,1563.658,602.126,1503.764z"/>
							<path style="fill:#EFBC73;" d="M535.614,1487.414c0,0,219.358-104.285,420.736-86.305
								c201.378,17.98,398.261,97.093,398.261,97.093l-96.194,244.53l28.768,308.085H575.17l53.941-292.802L535.614,1487.414z"/>
						</g>
						<g>
							<path style="fill:#84524D;" d="M1390.571,1701.821c-0.005-0.003-0.008-0.009-0.005-0.015
								c78.83-200.769,130.908-344.724,148.732-388.533c1.866-4.587,5.124-12.7,12.058-21.702
								c25.689-33.357,60.67-25.478,103.687-48.227c48.81-25.812,61.68-67.98,74.752-62.695c9.093,3.677,8.717,20.95-4.819,53.035
								l0.005,0.003c13.086-23.194,32.207-53.876,45.004-46.607c14.327,9.184-3.904,47.869-16.077,70.733
								c14.734-27.674,30.849-37.982,36.974-32.151c9.641,9.178,3.213,33.3-17.679,69.119l0.002,0.002
								c21.335-20.703,29.596-22.546,33.754-16.072c7.591,11.821-10.139,40.947-29.761,64.292
								c-22.089,26.281-48.337,39.001-65.078,46.627c-0.004,0.002-0.008,0.006-0.009,0.011
								c-40.631,146.339-66.568,240.498-96.977,359.354c-6.222,24.316-31.944,38.085-55.636,29.8
								C1495.442,1756.392,1459.778,1742.635,1390.571,1701.821z"/>
							<path style="fill:#363E44;" d="M1391.459,1701.736c-0.269,0-0.54-0.05-0.805-0.153c-1.135-0.444-1.692-1.725-1.247-2.857
								c17.41-44.361,34.534-88.529,52.349-135.026c0.437-1.137,1.718-1.701,2.846-1.27c1.137,0.435,1.707,1.71,1.27,2.847
								c-17.819,46.51-34.948,90.688-52.362,135.06C1393.171,1701.207,1392.34,1701.736,1391.459,1701.736z"/>
							<path style="fill:#84524D;" d="M1620.453,1273.412c16.675-52.026,11.664-74.325,3.335-76.705
								c-14.007-4.002-46.425,34.587-80.373,107.553C1565.648,1297.591,1598.219,1280.082,1620.453,1273.412z"/>
							<path style="fill:#363E44;" d="M1627.791,1366.328c-0.222,0-0.448-0.032-0.67-0.103c-1.161-0.37-1.8-1.611-1.432-2.771
								c3.04-9.53,9.567-23.235,23.394-34.397c19.561-15.789,41.625-16.327,50.205-15.826c1.214,0.071,2.142,1.113,2.071,2.33
								c-0.071,1.214-1.077,2.13-2.33,2.071c-8.061-0.471-28.809,0.03-47.177,14.857c-12.977,10.475-19.105,23.349-21.96,32.304
								C1629.593,1365.73,1628.725,1366.328,1627.791,1366.328z"/>
							<path style="fill:#363E44;" d="M1573.439,1276.805c-0.779,0-1.535-0.413-1.936-1.146c-0.586-1.068-0.194-2.409,0.874-2.993
								c10.703-5.861,22.515-9.024,35.023-12.372c5.813-1.557,11.823-3.165,18.035-5.12c1.161-0.362,2.399,0.28,2.765,1.443
								c0.366,1.161-0.28,2.399-1.443,2.765c-6.3,1.983-12.357,3.604-18.216,5.172c-12.245,3.279-23.809,6.376-34.046,11.98
								C1574.16,1276.719,1573.796,1276.805,1573.439,1276.805z"/>
							<path style="fill:#363E44;" d="M1688.044,1269.17c-0.76,0-1.499-0.392-1.908-1.096c-0.611-1.053-0.256-2.403,0.797-3.014
								c5.63-3.275,10.981-7.086,15.899-11.328c7.14-6.156,13.442-13.263,18.73-21.127c0.682-1.01,2.05-1.279,3.062-0.599
								c1.01,0.68,1.277,2.05,0.599,3.062c-5.51,8.188-12.073,15.591-19.51,22.005c-5.125,4.416-10.697,8.387-16.562,11.797
								C1688.802,1269.073,1688.421,1269.17,1688.044,1269.17z"/>
							<path style="fill:#363E44;" d="M1718.752,1289.642c-0.76,0-1.499-0.392-1.908-1.096c-0.614-1.053-0.254-2.403,0.797-3.014
								c5.633-3.273,10.983-7.084,15.901-11.325c7.135-6.152,13.438-13.259,18.73-21.127c0.682-1.008,2.05-1.277,3.062-0.599
								c1.01,0.68,1.277,2.052,0.599,3.062c-5.514,8.193-12.077,15.595-19.51,22.005c-5.127,4.418-10.699,8.386-16.564,11.795
								C1719.51,1289.545,1719.129,1289.642,1718.752,1289.642z"/>
							<path style="fill:#363E44;" d="M1737.179,1330.588c-0.76,0-1.499-0.392-1.908-1.096c-0.611-1.053-0.256-2.403,0.797-3.014
								c5.637-3.279,10.985-7.088,15.899-11.325c7.135-6.151,13.438-13.259,18.73-21.127c0.683-1.008,2.048-1.277,3.062-0.599
								c1.01,0.68,1.277,2.052,0.599,3.062c-5.514,8.193-12.077,15.595-19.51,22.005c-5.12,4.412-10.693,8.382-16.562,11.795
								C1737.937,1330.491,1737.556,1330.588,1737.179,1330.588z"/>
						</g>
						<g>
							<path style="fill:#84524D;" d="M454.595,1750.014c92.615,20.151,313.067,56.809,334.444,61.244
								c39.961,8.292,253.264,58.354,249.378,89.917c-1.857,15.081-43.386,7.294-57.349,4.253
								c10.066,8.016,52.057,34.611,45.661,50.4c-7.514,18.548-62.402-5.482-63.492-5.318c11.048,7.103,56.201,33.617,51.867,45.64
								c-5.639,15.642-55.043,3.575-69.666-0.722c0.947,2.447,45.389,30.872,41.538,40.304c-4.266,10.451-50.603,0.301-69.331-2.014
								c-35.511-7.339-175.042-28.451-243.31-35.482c-160.335-16.513-209.814-34.865-285.932-56.485
								C358.604,1933.287,409.149,1773.204,454.595,1750.014z"/>
							<path style="fill:#363E44;" d="M623.12,1781.797c-0.13,0-0.264-0.011-0.397-0.037
								c-44.86-8.169-137.823-25.297-168.576-31.634c-1.193-0.245-1.96-1.412-1.715-2.605c0.245-1.193,1.408-1.953,2.604-1.714
								c30.715,6.328,123.635,23.448,168.477,31.617c1.198,0.217,1.993,1.365,1.774,2.562
								C625.093,1781.052,624.165,1781.797,623.12,1781.797z"/>
							<path style="fill:#363E44;" d="M981.866,1906.255c-0.396,0-0.797-0.105-1.157-0.329c-7.181-4.442-14.727-8.419-22.432-11.821
								c-13.843-6.115-28.487-10.522-43.529-13.102c-1.2-0.204-2.007-1.346-1.801-2.545c0.206-1.199,1.344-2.002,2.546-1.8
								c15.398,2.64,30.393,7.153,44.566,13.412c7.889,3.484,15.617,7.557,22.969,12.105c1.036,0.642,1.357,2,0.716,3.036
								C983.326,1905.885,982.604,1906.255,981.866,1906.255z"/>
							<path style="fill:#363E44;" d="M964.244,1951.854c-0.32,0-0.643-0.069-0.949-0.215c-1.598-0.764-3.235-1.516-4.912-2.256
								c-13.843-6.115-28.487-10.523-43.529-13.102c-1.2-0.205-2.007-1.346-1.801-2.545c0.206-1.199,1.341-2.009,2.546-1.8
								c15.398,2.64,30.393,7.153,44.566,13.412c1.717,0.758,3.396,1.531,5.032,2.312c1.099,0.525,1.564,1.841,1.039,2.941
								C965.856,1951.391,965.067,1951.854,964.244,1951.854z"/>
							<path style="fill:#363E44;" d="M944.562,1996.999c-0.237,0-0.478-0.039-0.715-0.118c-9.346-3.206-19.066-5.684-28.891-7.37
								c-1.2-0.205-2.007-1.346-1.801-2.545c0.207-1.201,1.344-2.013,2.546-1.8c10.057,1.725,20.008,4.263,29.576,7.542
								c1.152,0.396,1.766,1.649,1.37,2.801C946.333,1996.424,945.478,1996.999,944.562,1996.999z"/>
						</g>
					</g>
					<g>
						<g>
							<polygon style="fill:#84524D;" points="849.473,1423.443 936.337,1239.287 1041.143,1255.875 1011.196,1421.345 							"/>
							<path style="fill:#84524D;" d="M1033.684,1422.166c0,14.236-44.686,25.776-99.81,25.776
								c-55.123,0-99.809-11.54-99.809-25.776c0-14.235,44.686-29.515,99.809-29.515
								C988.998,1392.651,1033.684,1407.93,1033.684,1422.166z"/>
						</g>
						<path style="fill:#84524D;" d="M1129.439,1168.059c0,0-16.209,157.942-82.972,162.993
							c-40.392,3.056-77.411-43.389-86.389-65.191c-8.979-21.801,0-57.44,0-57.44s13.564,12.703,24.461,4.314
							c10.898-8.389-1.689-61.143,46.238-58.988C1078.704,1155.903,1083.904,1176.168,1129.439,1168.059z"/>
						<path style="fill:#E2A18D;" d="M982.493,1224.488c4.087,12.746,0.133,35.954-12.613,40.041
							c-12.746,4.087-29.458-12.495-33.544-25.241c-4.087-12.746,2.933-26.391,15.679-30.478
							C964.761,1204.722,978.407,1211.742,982.493,1224.488z"/>
						<g>
							<g>
								<path style="fill:#FFFFFF;" d="M1026.415,1201.886c0.026,0.322-0.187,0.573-0.161,0.895c0,0.013,0.006,0.024,0.008,0.037
									c-1.055,4.411-2.18,9.062-4.023,13.205c-0.816,1.834-2.111,2.838-3.076,4.48c-0.708,1.205-1.381,2.36-2.126,3.517
									c-10.158-11.085-13.58-24.888-13.58-24.888S1014.486,1198.195,1026.415,1201.886z"/>
								<path style="fill:#363E44;" d="M1039.757,1208.381c14.38,10.211,19.745,27.779,20.568,30.744
									c-0.172,0.177-0.348,0.351-0.525,0.522c-3.503,0.212-21.497,0.752-35.644-9.294c-2.653-1.884-4.974-4.029-7.042-6.278
									c-0.121-1.228-0.184-2.472-0.121-3.741c0.372-7.506,4.003-14.062,9.436-18.423
									C1030.89,1203.314,1035.497,1205.356,1039.757,1208.381z"/>
							</g>
							<g>
								<path style="fill:#FFFFFF;" d="M1109.695,1236.384c-0.171,5.357-1.292,9.373-4.415,13.449
									c-12.7-1.393-22.455-6.892-22.455-6.892s10.469-13.119,26.152-18.575
									C1110.193,1228.122,1109.816,1232.581,1109.695,1236.384z"/>
								<path style="fill:#363E44;" d="M1105.551,1249.857c-3.527-8.341-2.354-18.144,3.439-25.462
									c1.764-0.6,3.578-1.131,5.473-1.509c18.931-3.778,36.913,6.373,36.913,6.373s-12.709,16.276-31.639,20.055
									C1114.844,1250.29,1110.023,1250.326,1105.551,1249.857z"/>
							</g>
						</g>
						<g>
							<path style="fill:#363E44;" d="M949.192,1242.639c-0.94,0-1.811-0.605-2.105-1.55c-0.278-0.896-0.481-1.828-0.605-2.767
								c-0.49-3.731,0.29-7.42,2.194-10.382c1.981-3.081,4.929-5.021,8.3-5.463c1.715-0.233,3.43-0.047,5.094,0.53
								c1.15,0.398,1.759,1.656,1.36,2.806c-0.399,1.15-1.655,1.757-2.807,1.359c-1.008-0.349-2.043-0.459-3.073-0.323
								c-2.065,0.271-3.898,1.505-5.165,3.475c-1.342,2.089-1.886,4.724-1.532,7.424c0.091,0.691,0.24,1.376,0.445,2.033
								c0.361,1.165-0.29,2.399-1.452,2.76C949.629,1242.606,949.408,1242.639,949.192,1242.639z"/>
						</g>
						<path style="fill:#363E44;" d="M1073.749,1268.382c-0.648,0-1.291-0.284-1.726-0.831c-0.759-0.952-0.602-2.341,0.351-3.099
							c1.685-1.341,2.629-2.73,2.807-4.13c0.172-1.335-0.398-2.405-1.507-4.336c-0.852-1.484-1.912-3.331-2.67-5.794
							c-0.968-3.144-1.212-6.548-0.728-10.115c0.163-1.204,1.281-2.046,2.48-1.888c1.207,0.164,2.052,1.275,1.888,2.483
							c-0.397,2.928-0.204,5.697,0.574,8.225c0.613,1.992,1.46,3.467,2.279,4.894c1.193,2.078,2.426,4.224,2.057,7.092
							c-0.328,2.575-1.819,4.937-4.433,7.019C1074.716,1268.224,1074.231,1268.382,1073.749,1268.382z"/>
						<path style="fill:#363E44;" d="M1054.516,1288.393c-2.329,0-4.432-0.596-6.288-1.789c-5.484-3.525-6.485-10.962-6.525-11.276
							c-0.153-1.208,0.702-2.313,1.91-2.465c1.211-0.134,2.308,0.7,2.464,1.906c0.011,0.075,0.807,5.747,4.552,8.137
							c1.976,1.262,4.558,1.412,7.676,0.435c1.162-0.357,2.399,0.286,2.761,1.449s-0.285,2.399-1.448,2.762
							C1057.816,1288.113,1056.113,1288.393,1054.516,1288.393z"/>
					</g>
					<g>
						<path style="fill:#363E44;" d="M1030.794,1317.077c-61.154,0-79.179-46.353-79.368-46.863
							c-0.425-1.139,0.155-2.407,1.294-2.833c1.141-0.424,2.41,0.153,2.837,1.292c0.796,2.119,20.288,51.764,91.177,42.975
							c1.202-0.157,2.309,0.708,2.459,1.916c0.151,1.208-0.707,2.31-1.916,2.459
							C1041.465,1316.744,1035.972,1317.077,1030.794,1317.077z"/>
						<circle style="fill:#363E44;" cx="1051.511" cy="1311.626" r="15.142"/>
					</g>
					<g>
						<g>
							
								<ellipse transform="matrix(0.9696 -0.2448 0.2448 0.9696 -269.9865 266.6339)" style="fill:#D87355;" cx="937.749" cy="1219.548" rx="45.342" ry="62.565"/>
							<path style="fill:#D87355;" d="M944.764,1199.012c-1.218,0-2.205-0.986-2.205-2.205v-56.333
								c-2.523-52.425,34.98-85.379,67.863-97.634c35.951-13.401,71.398-6.496,90.305,17.589c0.751,0.958,0.585,2.343-0.372,3.094
								c-0.958,0.754-2.344,0.59-3.096-0.372c-17.698-22.546-51.179-28.9-85.296-16.179c-31.491,11.737-67.407,43.242-64.996,93.397
								l0.002,56.438C946.969,1198.026,945.982,1199.012,944.764,1199.012z"/>
							<path style="fill:#363E44;" d="M933.216,1258.873c-0.278,0-0.56-0.052-0.833-0.164c-11.392-4.657-20.797-16.769-24.544-31.61
								c-2.697-10.684-2.205-21.518,1.385-30.508c3.687-9.237,10.191-15.453,18.313-17.503c9.304-2.345,19.342,1.156,27.539,9.609
								c0.848,0.874,0.827,2.271-0.047,3.118c-0.873,0.848-2.273,0.827-3.118-0.047c-7.071-7.293-15.565-10.357-23.295-8.404
								c-6.715,1.695-12.147,6.972-15.296,14.861c-3.248,8.135-3.675,18.005-1.204,27.793c3.409,13.511,11.815,24.473,21.936,28.609
								c1.127,0.461,1.668,1.748,1.207,2.875C934.908,1258.357,934.084,1258.873,933.216,1258.873z"/>
						</g>
					</g>
				</g>
			</g>
			<rect x="335.838" y="2013.45" style="fill:#D3BBA3;" width="1827.723" height="150.03"/>
			<g>
				<g>
					<g>
						<rect x="857.053" y="1512.799" style="fill:#363E44;" width="706.028" height="500.652"/>
						<path style="fill:#363E44;" d="M1284.387,2024.058h-20.902l0,0c0,15.68-12.711,28.391-28.391,28.391h-50.053
							c-15.68,0-28.391-12.711-28.391-28.391l0,0h-20.901l-20.903,111.082v9.29h190.443v-9.29L1284.387,2024.058z"/>
						<path style="fill:#363E44;" d="M1305.288,2158.246h-190.442c-1.218,0-2.205-0.986-2.205-2.205
							c0-1.219,0.987-2.205,2.205-2.205h190.442c1.219,0,2.205,0.986,2.205,2.205
							C1307.493,2157.26,1306.507,2158.246,1305.288,2158.246z"/>
					</g>
				</g>
			</g>
		</g>
		<g>
			<g>
				<path style="fill:#ff6900;" d="M1953.898,1797.514c0,0-10.756-120.257-115.383-87.993
					c-104.627,32.264-192.631,18.576-192.631,18.576s16.623,83.105,87.026,63.551l-19.556,15.643c0,0,33.246,35.197,99.738,14.666
					C1879.584,1801.425,1930.43,1776.005,1953.898,1797.514z"/>
				<path style="fill:#ff6900;" d="M1982.255,1771.116c1.573,1.995,0.561-145.808,0.15-198.603
					c-0.093-11.894-4.478-23.351-12.348-32.27l-61.139-69.282c0,0-20.534,62.573,26.401,90.926
					C1982.255,1590.241,1891.317,1655.747,1982.255,1771.116z"/>
				<path style="fill:#ff6900;" d="M1996.921,1799.719c-0.36,0-0.721-0.088-1.051-0.267c-0.711-0.385-1.154-1.128-1.154-1.938
					v-114.732c0-12.34,6.797-23.555,17.738-29.27l133.2-69.551c0.956-0.5,2.136-0.23,2.784,0.635
					c0.648,0.866,0.573,2.073-0.179,2.853c-0.189,0.196-19.001,20.11-17.393,53.902c0.773,16.25-8.834,32.68-26.359,45.078
					c-16.717,11.827-36.003,16.497-48,11.605c-6.931-2.821-12.62-1.873-16.437,2.756c-5.803,7.043-6.518,22.412,2.332,35.947
					c2.465,3.77,3.195,8.154,2.173,13.031c-4.642,22.113-44.745,48.48-46.45,49.593
					C1997.761,1799.599,1997.341,1799.719,1996.921,1799.719z M2139.018,1592.402l-124.523,65.021
					c-9.48,4.95-15.369,14.669-15.369,25.36v110.553c9.81-6.888,37.611-27.687,41.134-44.475c0.784-3.74,0.278-6.916-1.548-9.711
					c-9.071-13.873-9.952-31.569-2.043-41.162c5.017-6.091,12.859-7.562,21.501-4.035c10.492,4.265,28.497-0.302,43.791-11.121
					c16.271-11.513,25.2-26.555,24.501-41.269C2125.356,1618.369,2133.164,1601.579,2139.018,1592.402z"/>
				<path style="fill:#363E44;" d="M1957.605,1977.201c-1.219,0-2.205-0.986-2.205-2.205v-161.77
					c-1.473-9.857-5.394-18.209-11.347-24.163c-31.901-31.901-78.945-45.063-122.774-34.347
					c-35.746,8.738-73.53,8.727-109.276-0.024l-14.693-3.598c-1.182-0.291-1.906-1.484-1.617-2.668
					c0.291-1.182,1.486-1.903,2.668-1.617l14.693,3.598c35.055,8.587,72.115,8.595,107.179,0.024
					c45.304-11.074,93.952,2.53,126.938,35.514c6.662,6.662,11.024,15.929,12.615,26.8c0.015,0.105,0.024,0.211,0.024,0.319v161.932
					C1959.81,1976.215,1958.824,1977.201,1957.605,1977.201z"/>
				<path style="fill:#363E44;" d="M1983.105,1977.201c-1.219,0-2.205-0.986-2.205-2.205v-402.948c0-1.219,0.986-2.205,2.205-2.205
					c1.219,0,2.205,0.986,2.205,2.205v402.948C1985.309,1976.215,1984.323,1977.201,1983.105,1977.201z"/>
				<path style="fill:#ff6900;" d="M1996.921,1977.201c-1.219,0-2.205-0.986-2.205-2.205v-176.905c0-1.219,0.986-2.205,2.205-2.205
					c1.219,0,2.205,0.986,2.205,2.205v176.905C1999.126,1976.215,1998.14,1977.201,1996.921,1977.201z"/>
			</g>
			<path style="fill:#D87355;" d="M2076.398,1970.543v88.156c0,48.688-39.474,88.156-88.167,88.156h0
				c-48.693,0-88.167-39.469-88.167-88.156v-88.156H2076.398z"/>
		</g>
	</g>
</g>
</svg>
