<?xml version="1.0" encoding="utf-8"?>
<!-- Generator: Adobe Illustrator 27.5.0, SVG Export Plug-In . SVG Version: 6.00 Build 0)  -->
<svg version="1.1" xmlns="http://www.w3.org/2000/svg" xmlns:xlink="http://www.w3.org/1999/xlink" x="0px" y="0px"
	 viewBox="0 0 2500 2500" style="enable-background:new 0 0 2500 2500;" xml:space="preserve">
-
<g id="Illustration">
	<g id="Information_privacy_1_">
		<circle style="fill:transparent;" cx="1250" cy="1250" r="915"/>
		<g>
			<g>
				<path style="fill:#FFFFFF;" d="M1479.376,779.395h-25.141c-2.251-12.255-5.462-24.172-9.543-35.679l21.757-12.562
					l-42.541-73.684h0l-21.807,12.59c-8.002-9.368-16.73-18.096-26.098-26.098l12.589-21.807l-73.683-42.541h0l-12.561,21.757
					c-11.507-4.081-23.424-7.292-35.679-9.543v-25.14h-85.082l0,0v25.14c-12.255,2.251-24.172,5.462-35.679,9.543l-12.561-21.757
					l0,0l-73.684,42.541l12.59,21.807c-9.368,8.002-18.096,16.73-26.098,26.098l-21.806-12.59h0l-42.541,73.684l0,0l21.757,12.562
					c-4.081,11.507-7.292,23.424-9.543,35.679h-25.14l0,0.001v85.082h25.141c2.251,12.255,5.462,24.172,9.543,35.679l-21.757,12.562
					v0l42.541,73.683l0,0l21.806-12.59c8.003,9.368,16.73,18.096,26.098,26.098l-12.59,21.807l73.684,42.541l0,0l12.561-21.757
					c11.507,4.081,23.424,7.292,35.679,9.543v25.14l0,0h85.082v-25.14c12.255-2.251,24.172-5.462,35.679-9.543l12.561,21.757l0,0
					l73.683-42.541l-12.589-21.807c9.368-8.002,18.095-16.73,26.098-26.098l21.807,12.59l0,0l42.541-73.683v0l-21.757-12.562
					c4.081-11.506,7.292-23.424,9.543-35.679h25.141V779.395z M1354.433,876.28c-13.215,34.955-41.011,62.75-75.966,75.963
					c-118.77,44.897-229.545-65.88-184.644-184.65c13.215-34.956,41.01-62.751,75.967-75.965
					C1288.561,646.732,1399.336,757.51,1354.433,876.28z"/>
			</g>
			<path style="fill:#F2E6DC;" d="M1224.129,1010.258c-103.842,0-188.323-84.481-188.323-188.323
				c0-45.371,16.363-89.203,46.074-123.418c29.416-33.873,69.919-56.18,114.049-62.807c1.192-0.168,2.326,0.648,2.507,1.854
				c0.181,1.204-0.648,2.328-1.853,2.508c-89.144,13.386-156.368,91.571-156.368,181.863c0,101.411,82.503,183.913,183.913,183.913
				c83.791,0,156.998-56.57,178.025-137.566c0.308-1.178,1.507-1.891,2.687-1.58c1.18,0.306,1.886,1.509,1.58,2.687
				C1384.89,952.33,1309.928,1010.258,1224.129,1010.258z"/>
		</g>
		<g>
			<g>
				<g>
					<path style="fill:#D3BBA3;" d="M1971.99,1934.093H720.65c-1.218,0-2.205-0.986-2.205-2.205V983.424
						c0-1.219,0.987-2.205,2.205-2.205h1251.34c1.219,0,2.205,0.986,2.205,2.205v948.464
						C1974.195,1933.107,1973.209,1934.093,1971.99,1934.093z M722.854,1929.683h1246.931V985.629H722.854V1929.683z"/>
					
						<rect x="692.074" y="966.28" transform="matrix(-1 -1.224647e-16 1.224647e-16 -1 2635.4885 2881.0227)" style="fill:#E6D0BE;" width="1251.34" height="948.463"/>
					
						<rect x="920.801" y="816.072" transform="matrix(-1.836970e-16 1 -1 -1.836970e-16 2720.2268 84.7381)" style="fill:#F7F1EB;" width="793.886" height="1172.821"/>
					<path style="fill:#E6D0BE;" d="M1186.023,1933.544h37.047l0,0c0,27.79,22.528,50.319,50.318,50.319h88.711
						c27.79,0,50.318-22.528,50.318-50.319l0,0h37.046l37.047,196.877v16.465h-337.534v-16.465L1186.023,1933.544z"/>
				</g>
				<g>
					
						<rect x="923.415" y="1064.296" transform="matrix(-1 -1.224647e-16 1.224647e-16 -1 2409.926 2154.8542)" style="fill:#E6D0BE;" width="563.097" height="26.262"/>
					
						<rect x="854.841" y="1118.28" transform="matrix(-1 -1.224647e-16 1.224647e-16 -1 2272.7776 2262.822)" style="fill:#FFFFFF;" width="563.097" height="26.262"/>
					
						<rect x="1025.141" y="1176.154" transform="matrix(-1 -1.224647e-16 1.224647e-16 -1 2613.3789 2378.5713)" style="fill:#FFFFFF;" width="563.097" height="26.262"/>
					
						<rect x="824.687" y="1230.138" transform="matrix(-1 -1.224647e-16 1.224647e-16 -1 2344.3508 2486.5391)" style="fill:#FFFFFF;" width="694.976" height="26.262"/>
					
						<rect x="1093.715" y="1283.879" transform="matrix(-1 -1.224647e-16 1.224647e-16 -1 2918.3203 2594.0205)" style="fill:#E6D0BE;" width="730.89" height="26.262"/>
					
						<rect x="807.179" y="1337.863" transform="matrix(-1 -1.224647e-16 1.224647e-16 -1 2395.4167 2701.9883)" style="fill:#FFFFFF;" width="781.059" height="26.262"/>
					
						<rect x="968.515" y="1396.529" transform="matrix(-1 -1.224647e-16 1.224647e-16 -1 2818.8958 2819.3213)" style="fill:#E6D0BE;" width="881.867" height="26.263"/>
					
						<rect x="826.989" y="1447.171" transform="matrix(-1 -1.224647e-16 1.224647e-16 -1 2217.0752 2920.605)" style="fill:#FFFFFF;" width="563.097" height="26.263"/>
					
						<rect x="803.596" y="1508.388" transform="matrix(-1 -1.224647e-16 1.224647e-16 -1 2170.2888 3043.0383)" style="fill:#FFFFFF;" width="563.097" height="26.263"/>
					
						<rect x="869.787" y="1562.372" transform="matrix(-1 -1.224647e-16 1.224647e-16 -1 2434.5508 3151.0061)" style="fill:#FFFFFF;" width="694.976" height="26.263"/>
					
						<rect x="1138.815" y="1616.113" transform="matrix(-1 -1.224647e-16 1.224647e-16 -1 3008.5203 3258.4875)" style="fill:#E6D0BE;" width="730.89" height="26.262"/>
					
						<rect x="852.279" y="1670.097" transform="matrix(-1 -1.224647e-16 1.224647e-16 -1 2485.6167 3366.4553)" style="fill:#FFFFFF;" width="781.059" height="26.262"/>
				</g>
			</g>
		</g>
		<g>
			<g>
				<path style="fill:#D87355;" d="M1565.51,2082.049l-98.275,42.688l-70.023-30.77
					c-145.233-63.819-239.009-207.455-239.009-366.092l3.593-314.63l308.181-80.476l313.476,84.069l-3.593,338.404
					C1779.86,1897.142,1695.661,2025.515,1565.51,2082.049z"/>
				<path style="fill:#FFFFFF;" d="M1551.369,2036.567l-84.639,37.704l-60.307-27.177
					c-125.082-56.368-205.845-183.236-205.845-323.353l3.095-277.899l265.233-68.094l270.167,71.268l-3.095,298.897
					C1735.977,1873.247,1663.461,1986.633,1551.369,2036.567z"/>
				<path style="fill:#F7F1EB;" d="M1468.906,1377.748l-3.886,0.997V2073.5l1.71,0.771l84.639-37.704
					c112.092-49.934,184.609-163.32,184.609-288.654l3.095-298.897L1468.906,1377.748z"/>
				<path style="fill:#363E44;" d="M1467.692,2142.995c-0.302,0-0.605-0.062-0.887-0.187l-72.643-31.922
					c-151.427-66.539-249.273-216.408-249.273-381.811l3.728-326.432c0.012-0.993,0.686-1.856,1.648-2.108l319.713-83.488
					c0.37-0.095,0.758-0.095,1.128,0.004l325.209,87.217c0.973,0.26,1.645,1.146,1.634,2.153l-3.727,351.068
					c0,148.134-87.807,282.01-223.699,341.036l-0.878-2.022l0.878,2.022l-101.953,44.286
					C1468.29,2142.935,1467.991,2142.995,1467.692,2142.995z M1153.007,1404.376l-3.709,324.724
					c0,163.626,96.811,311.913,246.637,377.75l71.76,31.535l101.071-43.903c134.281-58.329,221.046-190.616,221.046-337.016
					l3.71-349.382l-322.995-86.623L1153.007,1404.376z"/>
			</g>
			<g>
				<path style="fill:#EFBC73;" d="M1318.024,1635.485v110.51c0,78.3,63.474,141.774,141.774,141.774l0,0
					c78.3,0,141.774-63.474,141.774-141.774v-110.51H1318.024z M1471.114,1753.597v59.811h-22.634v-59.811
					c-12.361-4.598-21.182-16.47-21.182-30.433c0-17.949,14.55-32.498,32.5-32.498c17.948,0,32.5,14.549,32.5,32.498
					C1492.297,1737.127,1483.475,1748.999,1471.114,1753.597z"/>
				<path style="fill:#363E44;" d="M1470.241,1882.135c-79.391,0-143.979-64.588-143.979-143.979v-110.51
					c0-1.219,0.986-2.205,2.205-2.205h283.547c1.219,0,2.205,0.986,2.205,2.205v110.51
					C1614.219,1817.547,1549.631,1882.135,1470.241,1882.135z M1330.672,1629.851v108.305c0,76.958,62.611,139.569,139.569,139.569
					c76.958,0,139.569-62.611,139.569-139.569v-108.305H1330.672z M1481.558,1807.774h-22.634c-1.219,0-2.205-0.986-2.205-2.205
					v-58.314c-12.731-5.398-21.183-18.037-21.183-31.929c0-19.135,15.567-34.704,34.704-34.704
					c19.137,0,34.704,15.569,34.704,34.704c0,13.892-8.451,26.531-21.183,31.929v58.314
					C1483.762,1806.788,1482.776,1807.774,1481.558,1807.774z M1461.129,1803.365h18.224v-57.605c0-0.922,0.573-1.746,1.436-2.067
					c11.81-4.392,19.747-15.791,19.747-28.365c0-16.704-13.591-30.295-30.295-30.295s-30.295,13.591-30.295,30.295
					c0,12.574,7.936,23.973,19.746,28.365c0.863,0.321,1.436,1.146,1.436,2.067V1803.365z"/>
				<path style="fill:#363E44;" d="M1591.181,1605.368c-1.219,0-2.205-0.986-2.205-2.205c0-68.347-55.605-123.952-123.952-123.952
					c-68.347,0-123.952,55.605-123.952,123.952c0,1.219-0.986,2.205-2.205,2.205s-2.205-0.986-2.205-2.205
					c0-70.778,57.584-128.362,128.362-128.362c70.778,0,128.362,57.584,128.362,128.362
					C1593.385,1604.382,1592.399,1605.368,1591.181,1605.368z"/>
			</g>
		</g>
		<g>
			<g>
				<g>
					<rect x="1498.823" y="791.654" style="fill:#ff6900;" width="420.093" height="184.18"/>
					<path style="fill:#84524D;" d="M1856.227,1146.468c-0.057,4.09-0.998,149.722-0.998,149.722l81.613-3.857l45.761-145.865
						H1856.227z"/>
					<path style="fill:#FFFFFF;" d="M1849.012,1282.465l95.098-1.24l52.801,171.024c0,0-145.207,47-145.53,43.932
						C1851.057,1493.113,1849.012,1282.465,1849.012,1282.465z"/>
					<path style="fill:#363E44;" d="M1916.979,1332.733h-38.438c-1.219,0-2.205-0.986-2.205-2.205c0-1.219,0.986-2.205,2.205-2.205
						h38.438c1.219,0,2.205,0.986,2.205,2.205C1919.184,1331.747,1918.198,1332.733,1916.979,1332.733z"/>
					<path style="fill:#363E44;" d="M1916.559,1356.71h-38.018c-1.219,0-2.205-0.986-2.205-2.205c0-1.219,0.986-2.205,2.205-2.205
						h38.018c1.219,0,2.205,0.986,2.205,2.205C1918.764,1355.724,1917.778,1356.71,1916.559,1356.71z"/>
					<path style="fill:#ff6900;" d="M1839.873,1171.366h149.652l42.768-217.203c10.698-54.33-28.924-105.641-84.193-109.032
						l-81.757-5.017L1839.873,1171.366z"/>
				</g>
				<g>
					<polygon style="fill:#84524D;" points="1389.272,885.585 1491.988,984.729 1579.054,919.685 1495.18,804.054 					"/>
					<polygon style="fill:#FFFFFF;" points="1473.225,969.934 1525.604,1089.113 1670.892,994.105 1569.129,899.587 					"/>
					<path style="fill:#ff6900;" d="M1389.272,907.848l127.87-91.661l-76.686-118.194c-30.831-47.519-96.067-57.797-140.016-22.061
						l0,0c-44.689,36.339-47.157,103.717-5.246,143.227L1389.272,907.848z"/>
					<path style="fill:#363E44;" d="M1520.267,978.605c-0.73,0-1.445-0.362-1.865-1.023c-0.652-1.029-0.347-2.392,0.68-3.044
						l43.143-27.377c1.025-0.653,2.392-0.349,3.045,0.68c0.652,1.029,0.347,2.392-0.68,3.045l-43.143,27.377
						C1521.081,978.495,1520.672,978.605,1520.267,978.605z"/>
					<path style="fill:#363E44;" d="M1529.629,992.293c-0.73,0-1.445-0.362-1.865-1.023c-0.652-1.029-0.347-2.392,0.68-3.045
						l43.143-27.377c1.027-0.65,2.39-0.347,3.044,0.68c0.652,1.029,0.347,2.392-0.68,3.044l-43.143,27.377
						C1530.443,992.183,1530.034,992.293,1529.629,992.293z"/>
				</g>
			</g>
			<g>
				<path style="fill:#FFFFFF;" d="M1526.305,812.963c0,0,169.094,1.316,298.705,3.224l-28.268-267.153
					c0,0-128.717-48.21-271.139-39.029L1526.305,812.963z"/>
				<path style="fill:#EFBC73;" d="M1760.278,535.551l27.925,287.792l240.253,5.451c0,0,10.143-96.872-77.152-194.533
					c-20.234-22.637-44.817-40.966-72.132-54.224C1848.87,565.329,1799.332,542.761,1760.278,535.551z"/>
				<path style="fill:#EFBC73;" d="M1572.769,507.574l9.361,307.07c0,0-230.582,61.682-230.647-92.12
					c-0.028-65.933,18.026-114.649,36.2-146.982c17.959-31.949,48.901-54.404,84.849-61.548
					C1499.244,508.686,1534.745,504.427,1572.769,507.574z"/>
				<path style="fill:#363E44;" d="M1473.227,664.72c-0.189,0-0.379-0.024-0.571-0.073c-1.176-0.314-1.875-1.522-1.561-2.7
					l10.428-39.148c0.314-1.178,1.527-1.862,2.698-1.563c1.176,0.314,1.875,1.522,1.563,2.7l-10.43,39.148
					C1475.092,664.07,1474.2,664.72,1473.227,664.72z"/>
				<path style="fill:#363E44;" d="M1382.726,711.805c-0.293,0-0.592-0.06-0.878-0.185c-1.115-0.484-1.626-1.781-1.141-2.898
					c0.218-0.502,22.556-50.119,86.429-44.236c1.214,0.112,2.106,1.186,1.994,2.399c-0.114,1.21-1.165,2.136-2.399,1.994
					c-60.661-5.639-81.137,39.672-81.981,41.603C1384.389,711.31,1383.577,711.805,1382.726,711.805z"/>
				<g>
					<path style="fill:#84524D;" d="M1810.898,737.484c-11.629-7.602-54.912-46.968-80.41-37.326
						c-25.681,9.711-40.713,36.071-45.988,63.017c0.06,0.095,0.125,0.199,0.184,0.293c1.805,7.383,5.637,18.153,14.786,26.786
						c10.43,9.841,17.78,7.479,30.404,16.15c21.307,14.635,20.985,36.373,29.912,34.329c6.127-1.402,6.862-14.06,4.529-25.779
						c-2.395-12.033-9.009-18.806-7.471-20.1c1.687-1.42,7.516,6.33,15.648,15.301c3.778,4.168,7.105,22.002,15.757,21.321
						c6.899-0.543,8.081-19.95,0.042-34.883c-5.687-10.564-16.549-14.766-15.369-16.611c0.885-1.385,7.297,1.278,12.138,5.22
						c7.99,6.503,11.588,24.712,19.541,23.93c7.791-0.767,8.525-17.734,2.001-31.936c-5.501-11.975-17.837-16.082-16.384-18.384
						c1.022-1.619,6.927-0.929,18.309,4.124c9.499,4.218,25.252,18.547,31.15,9.265
						C1844.638,764.394,1828.45,748.957,1810.898,737.484z"/>
					<path style="fill:#84524D;" d="M1478.515,682.946c-24.929,3.469-46.021,20.465-54.21,44.266
						c-7.814,22.707-7.059,51.13,27.834,73.341c69.14,44.009,256.672-31.872,256.672-31.872l35.178-69.7
						C1657.864,678.232,1562.731,671.228,1478.515,682.946z"/>
				</g>
				<g>
					<path style="fill:#E6D0BE;" d="M2073.832,838.435c-5.859,12.523-18.436,20.524-32.262,20.524h-221.99l99.419-212.485h244.65
						L2073.832,838.435z"/>
					<path style="fill:#E6D0BE;" d="M1673.862,837.627L1673.862,837.627c0,11.839,9.597,21.436,21.436,21.436h204.695l10.029-21.436
						H1673.862z"/>
				</g>
				<g>
					<path style="fill:#84524D;" d="M2136.763,746.078c-0.782,7.969-2.088,14.363-15.89,13.009
						c-13.802-1.355-34.875-9.945-34.093-17.914c0.782-7.969,23.122-12.299,36.925-10.944
						C2137.507,731.583,2137.545,738.109,2136.763,746.078z"/>
					<path style="fill:#84524D;" d="M2077.369,761.658c0.782-7.969,23.122-12.299,36.925-10.944
						c13.802,1.355,13.84,7.881,13.058,15.85L2077.369,761.658z"/>
					<path style="fill:#84524D;" d="M2127.352,766.563c-0.782,7.969-2.088,14.363-15.89,13.009
						c-13.802-1.355-34.874-9.945-34.092-17.914L2127.352,766.563z"/>
					<path style="fill:#84524D;" d="M2067.959,782.143c0.782-7.969,23.122-12.299,36.925-10.944
						c13.802,1.355,13.84,7.881,13.058,15.85L2067.959,782.143z"/>
					<path style="fill:#84524D;" d="M2117.941,787.049c-0.782,7.969-2.088,14.363-15.89,13.009
						c-13.802-1.355-34.875-9.945-34.092-17.914L2117.941,787.049z"/>
					<path style="fill:#84524D;" d="M2069.091,800.675c0.622-6.335,18.38-9.776,29.351-8.7c10.971,1.077,11.001,6.264,10.38,12.599
						L2069.091,800.675z"/>
					<path style="fill:#84524D;" d="M2108.821,804.575c-0.622,6.334-1.66,11.417-12.631,10.34
						c-10.971-1.077-27.721-7.905-27.1-14.24L2108.821,804.575z"/>
				</g>
			</g>
			<g>
				<path style="fill:#84524D;" d="M1619.669,420.611c5.632,7.601,4.954,17.649-1.515,22.443
					c-6.469,4.793-16.279,2.518-21.911-5.083c-5.632-7.601-4.954-17.649,1.515-22.442
					C1604.226,410.734,1614.037,413.01,1619.669,420.611z"/>
				<path style="fill:#84524D;" d="M1689.21,417.072c-4.832,8.134-3.137,18.061,3.785,22.173c6.922,4.112,16.451,0.852,21.282-7.282
					c4.832-8.134,3.137-18.061-3.785-22.173C1703.571,405.678,1694.042,408.938,1689.21,417.072z"/>
				<path style="fill:#84524D;" d="M1651.039,549.684L1651.039,549.684c-16.893-0.775-29.96-15.097-29.185-31.991l2.838-86.839
					l61.175,2.806l-2.838,86.839C1682.254,537.392,1667.932,550.458,1651.039,549.684z"/>
				<path style="fill:#363E44;" d="M1662,500.911c-49.073,2.9-50.896-79.037-50.896-79.037l86.957-2.942
					C1698.061,418.931,1709.582,498.099,1662,500.911z"/>
				<circle style="fill:#363E44;" cx="1627.956" cy="398.137" r="31.204"/>
				<path style="fill:#84524D;" d="M1697.152,425.219c1.388,27.267-16.3,12.926-39.506,14.107
					c-23.206,1.181-43.144,17.437-44.531-9.83c-1.388-27.267,16.3-42.84,39.506-44.021
					C1675.827,384.294,1695.765,397.952,1697.152,425.219z"/>
				<path style="fill:#363E44;" d="M1697.148,440.664c-0.131,0-0.263-0.011-0.396-0.037c-1.199-0.217-1.994-1.365-1.774-2.562
					c0.751-4.143,1.023-8.427,0.805-12.734c-0.194-3.833-0.777-7.626-1.735-11.272c-0.308-1.178,0.396-2.384,1.574-2.694
					c1.173-0.299,2.384,0.398,2.694,1.574c1.031,3.938,1.662,8.031,1.873,12.167c0.235,4.646-0.06,9.271-0.874,13.746
					C1699.122,439.919,1698.194,440.664,1697.148,440.664z"/>
				<path style="fill:#363E44;" d="M1614.398,444.569c-0.96,0-1.843-0.631-2.119-1.602c-1.225-4.306-1.966-8.8-2.198-13.36
					c-0.215-4.218,0.009-8.432,0.665-12.527c0.194-1.204,1.322-2.02,2.526-1.828c1.201,0.192,2.022,1.324,1.828,2.526
					c-0.607,3.79-0.814,7.695-0.614,11.605c0.215,4.227,0.9,8.391,2.035,12.378c0.334,1.169-0.347,2.39-1.518,2.724
					C1614.803,444.544,1614.598,444.569,1614.398,444.569z"/>
				<path style="fill:#363E44;" d="M1658.055,442.578c-0.661,0-1.316-0.295-1.75-0.861c-0.741-0.965-0.562-2.349,0.405-3.092
					c0.937-0.721,1.193-1.238,1.197-1.43c0.004-0.161-0.28-0.558-0.556-0.939c-0.568-0.792-1.348-1.875-1.686-3.503
					c-0.301-1.449-0.181-2.974,0.362-4.53c0.398-1.15,1.651-1.768,2.806-1.359c1.15,0.398,1.759,1.656,1.359,2.806
					c-0.278,0.803-0.347,1.518-0.209,2.185c0.149,0.713,0.502,1.204,0.949,1.826c0.631,0.878,1.419,1.972,1.385,3.602
					c-0.034,1.746-1.016,3.374-2.92,4.838C1658.996,442.429,1658.525,442.578,1658.055,442.578z"/>
				<path style="fill:#FFFFFF;" d="M1651.516,454.655c-1.884,0-4.7-0.377-7.461-2.16c-1.753-1.135-3.245-2.696-4.315-4.517
					c-0.616-1.051-0.265-2.401,0.784-3.019c1.049-0.618,2.401-0.265,3.019,0.784c0.504,0.859,1.419,2.086,2.907,3.049
					c2.254,1.456,4.59,1.527,5.788,1.425c1.191-0.067,2.276,0.812,2.371,2.026c0.095,1.214-0.812,2.276-2.026,2.371
					C1652.276,454.638,1651.917,454.655,1651.516,454.655z"/>
				<path style="fill:#363E44;" d="M1607.569,415.195c0,0,22.467,3.328,45.765-24.131c0,0,43.269,56.583,76.553-11.649
					c0,0-19.496,8.604-29.955-4.993c-16.642-21.634-56.583-39.109-72.393,0.832L1607.569,415.195z"/>
				<g>
					<g>
						<path style="fill:#FFFFFF;" d="M1682.73,418.388l0,0.002l-0.101-0.006c-0.043,0.213-0.17,0.488-0.393,0.493
							c-0.25,0.329-0.346,0.845-0.508,1.191c-0.292,0.621-1.237,0.13-0.946-0.491c0.196-0.418-1.208,0.434-1.829,0.709
							c-1.979,0.878-3.99,1.666-6.03,2.392c-0.951,0.339-1.903,0.685-2.866,0.99c-0.771,0.245-3.313,1.189-3.524,1.078
							c-2.511,2.543-3.849,4.894-3.849,4.894s3.861,1.486,8.753,1.499c0.01-0.066,0.023-0.132,0.031-0.199
							c0.08-0.66,11.2-3.883,11.529-3.399c4.609-3.274,7.136-7.694,7.136-7.694S1686.964,418.628,1682.73,418.388z"/>
						<path style="fill:#363E44;" d="M1674.521,419.454c-3.328,1.187-6.014,3.295-7.982,5.287c0.362,2.096,1.468,4.07,3.28,5.477
							c0.467,0.362,0.959,0.668,1.468,0.923c2.206,0.019,4.629-0.257,7.009-1.106c1.72-0.614,3.26-1.479,4.627-2.442
							c1.657-2.913,1.498-6.477-0.294-9.208C1680.144,418.254,1677.303,418.461,1674.521,419.454z"/>
					</g>
					<g>
						<path style="fill:#FFFFFF;" d="M1627.606,421.932l0,0.002l0.1-0.016c0.064,0.208,0.219,0.469,0.441,0.451
							c0.282,0.302,0.429,0.806,0.625,1.133c0.352,0.589,1.243,0.005,0.891-0.583c-0.237-0.396,1.246,0.31,1.891,0.522
							c2.057,0.674,4.138,1.256,6.24,1.773c0.98,0.241,1.963,0.49,2.951,0.697c0.792,0.166,3.416,0.85,3.614,0.718
							c2.754,2.277,4.322,4.482,4.322,4.482s-3.692,1.867-8.557,2.372c-0.017-0.065-0.036-0.129-0.051-0.194
							c-0.146-0.649-11.534-2.737-11.812-2.222c-4.916-2.794-7.874-6.937-7.874-6.937S1623.418,422.597,1627.606,421.932z"/>
						<path style="fill:#363E44;" d="M1635.881,422.167c3.43,0.846,6.315,2.674,8.473,4.457c-0.15,2.122-1.051,4.197-2.713,5.779
							c-0.428,0.408-0.887,0.761-1.368,1.066c-2.193,0.241-4.631,0.21-7.084-0.395c-1.773-0.438-3.392-1.144-4.849-1.964
							c-1.942-2.731-2.142-6.293-0.633-9.191C1630.166,421.539,1633.013,421.459,1635.881,422.167z"/>
					</g>
				</g>
			</g>
		</g>
		<g>
			<g>
				<g>
					<path style="fill:#363E44;" d="M920.31,921.765c0,0,26.595,12.874,37.75,28.754c13.233-21.059,21.675-45.134,23.821-70.897
						c-65.96,1.11-118.797-62.558-118.797-62.558h-46.186c-97.689,38.445-142.093-1.47-162.431-26.433
						c-11.379,20.694-18.235,43.966-19.363,68.647c8.752,15.594,39.332,22.639,59.133,17.272c0,0-18.507,27.568-57.559,13.373
						c12.006,79.784,84.43,141.131,171.997,141.131c51.33,0,97.457-21.079,129.264-54.593
						C938.123,959.165,935.399,934.657,920.31,921.765z"/>
					<path style="fill:#40484C;" d="M785.416,866.013c-0.685,0-1.36-0.319-1.792-0.915c-9.727-13.5-26.744-21.568-43.348-20.461
						c-7.759,0.5-15.076,2.719-23.835,5.57l-0.672,0.217c-7.752,2.523-15.769,5.133-24.105,5.923
						c-6.936,0.668-17.001,0.233-25.495-5.525c-8.156-5.531-12.542-15.072-10.914-23.738c0.225-1.195,1.374-1.979,2.574-1.759
						c1.197,0.224,1.985,1.376,1.76,2.573c-1.289,6.86,2.434,14.784,9.054,19.275c7.409,5.021,16.383,5.366,22.606,4.786
						c7.852-0.745,15.632-3.279,23.156-5.727l0.672-0.22c7.124-2.317,15.988-5.202,24.916-5.777
						c18.089-1.163,36.617,7.581,47.211,22.283c0.712,0.988,0.488,2.366-0.501,3.079
						C786.313,865.877,785.862,866.013,785.416,866.013z"/>
				</g>
				<g>
					<g>
						<path style="fill:#E2A18D;" d="M863.875,933.907c-16.644,6.595-49.994-30.553-49.994-30.553l-11.17-53.542
							c5.994-24.462,30.683-39.433,55.145-33.44c24.462,5.994,39.433,30.683,33.44,55.145
							C891.296,871.518,880.827,927.19,863.875,933.907z"/>
						<polygon style="fill:#E2A18D;" points="775.396,961.291 858.425,1027.66 830.739,967.62 856.505,862.465 802.833,849.314 
													"/>
						<path style="fill:#E2A18D;" d="M883.352,881.917c0,0,9.234,16.06,7.731,19.335c-1.794,3.908-16.246,3.02-16.246,3.02
							S883.675,882.029,883.352,881.917z"/>
						<g>
							<path style="fill:#FFFFFF;" d="M843.845,870.227c0,0,8.393-2.171,17.331,0.02c1.902,0.466-5.415,14.805-7.009,13.501
								C847.157,878.014,843.845,870.227,843.845,870.227z"/>
							<g>
								<defs>
									<path id="SVGID_1_" d="M843.845,870.227c0,0,12.343-3.193,23.035,2.073c10.692,5.266,15.683,16.999,15.683,16.999
										s-12.343,3.194-23.035-2.073C848.836,881.959,843.845,870.227,843.845,870.227z"/>
								</defs>
								<clipPath id="SVGID_00000016048447559320615820000003466829484371238317_">
									<use xlink:href="#SVGID_1_"  style="overflow:visible;"/>
								</clipPath>
								<path style="clip-path:url(#SVGID_00000016048447559320615820000003466829484371238317_);fill:#363E44;" d="M861.65,869.948
									c7.361-4.464,16.946-2.115,21.409,5.246c4.464,7.36,2.115,16.946-5.246,21.409c-7.361,4.463-16.946,2.115-21.409-5.246
									C851.941,883.997,854.289,874.411,861.65,869.948z"/>
							</g>
						</g>
						<path style="fill:#363E44;" d="M863.531,911.64c-2.337,0-4.622-0.945-6.269-2.696c-2.225-2.366-2.923-5.87-1.78-8.925
							c0.427-1.139,1.7-1.714,2.838-1.292c1.14,0.426,1.719,1.697,1.292,2.838c-0.56,1.494-0.221,3.204,0.862,4.358
							c1.123,1.193,2.859,1.619,4.431,1.079c1.15-0.398,2.406,0.217,2.802,1.367c0.395,1.152-0.217,2.407-1.368,2.801
							C865.42,911.487,864.471,911.64,863.531,911.64z"/>
						<path style="fill:#363E44;" d="M849.668,935.254c-0.298,0-0.601-0.06-0.89-0.187c-16.828-7.443-35.92-28.581-36.724-29.477
							c-0.814-0.906-0.739-2.3,0.168-3.113c0.904-0.814,2.3-0.739,3.114,0.168c0.19,0.213,19.268,21.331,35.225,28.387
							c1.114,0.493,1.617,1.796,1.125,2.909C851.322,934.765,850.514,935.254,849.668,935.254z"/>
					</g>
					<g>
						<path style="fill:#363E44;" d="M786.745,872.554c-8.08-11.967,3.987-40.477,20.831-53.398
							c21.716-16.659,55.092-14.448,74.916-0.469c4.873,3.436,15.119,12.807,14.728,22.394
							c-0.304,7.465-13.005,15.904-24.776,13.572c-16.55-3.279-33.957-17.752-36.016,2.091
							C830.188,916.872,795.623,885.704,786.745,872.554z"/>
					</g>
				</g>
				<g>
					<path style="fill:#363E44;" d="M816.911,826.408c0,0-51.501-43.291-14.199-67.337
						C837.736,736.492,869.204,789.487,816.911,826.408z"/>
					<path style="fill:#FFFFFF;" d="M813.213,813.326c-0.278,0-0.561-0.052-0.834-0.164c-8.427-3.452-13.887-12.531-12.98-21.594
						c0.248-2.465,0.918-4.407,2.051-5.94c1.573-2.132,4.124-3.314,6.494-3.025c3.259,0.409,5.619,3.073,7.018,7.915
						c1.38,4.769,2.313,9.698,2.773,14.648c0.113,1.212-0.778,2.287-1.99,2.401c-1.234,0.127-2.289-0.78-2.4-1.992
						c-0.435-4.674-1.316-9.327-2.618-13.832c-0.488-1.686-1.568-4.543-3.331-4.765c-0.794-0.108-1.776,0.424-2.399,1.268
						c-0.649,0.878-1.044,2.108-1.21,3.762c-0.705,7.049,3.707,14.389,10.263,17.072c1.127,0.463,1.667,1.75,1.205,2.877
						C814.906,812.809,814.082,813.326,813.213,813.326z"/>
					<path style="fill:#FFFFFF;" d="M811.507,818.868c-0.63,0-1.254-0.267-1.69-0.788c-0.783-0.932-0.661-2.323,0.272-3.107
						c6.479-5.432,14.668-8.987,23.059-10.008c1.198-0.172,2.307,0.713,2.455,1.921c0.147,1.21-0.714,2.308-1.923,2.457
						c-7.553,0.919-14.925,4.119-20.757,9.011C812.509,818.698,812.006,818.868,811.507,818.868z"/>
				</g>
			</g>
			<g>
				<g>
					<polygon style="fill:#E2A18D;" points="621.786,2056.877 500.81,2056.877 484.385,1906.964 605.361,1906.964 					"/>
					<path style="fill:#D3BBA3;" d="M607.282,2050.709H495.977l5.213,109.989h281.889l-8.659-14.644
						C739.48,2086.96,675.932,2050.709,607.282,2050.709z"/>
				</g>
				<g>
					<polygon style="fill:#E2A18D;" points="939.508,2056.877 818.531,2056.877 785.185,1910.07 906.161,1910.07 					"/>
					<path style="fill:#D3BBA3;" d="M925.004,2050.709H813.699l14.176,109.989h272.927l-8.659-14.644
						C1057.202,2086.96,993.654,2050.709,925.004,2050.709z"/>
				</g>
				<path style="fill:#363E44;" d="M443.456,1360.103l0.206,614.008h222.361c0,0-41.092-486.514-38.651-544.646h27.633
					l111.649,546.26h220.717c0,0-145.428-494.021-184.754-638.854C802.617,1336.871,673.464,1167.583,443.456,1360.103z"/>
			</g>
			<g>
				<g>
					<g>
						<path style="fill:#E2A18D;" d="M445.957,1167.321c0,0,16.161-102.574,120.566-155.344l79.504,106.07L445.957,1167.321z"/>
						<path style="fill:#9E9569;" d="M628.339,1133.374l-98.394-117.019c0,0,71.469-45.66,148.245-50.031L628.339,1133.374z"/>
					</g>
					<path style="fill:#E2A18D;" d="M931.078,1062.826L931.078,1062.826c-46.101-0.858-81.986,39.803-75.405,85.439l30.57,225.711
						l29.895,91.88h0c38.24-15.754,64.504-51.517,68.093-92.72l4.049-213.511C987.371,1043.345,974.205,1063.629,931.078,1062.826z"
						/>
					<path style="fill:#9E9569;" d="M988.28,1072.183c0,0-32.665-57.264-80.484-83.914l-42.819,68.385l-4.529,107.668
						L988.28,1072.183z"/>
					<g>
						<path style="fill:#ff6900;" d="M420.635,1379.16l431.961,12.82l34.055-342.874l41.585-48.341
							c0,0-94.438-81.644-290.063-35.829l8.134,58.764C646.307,1023.699,478.408,1271.439,420.635,1379.16z"/>
						<path style="fill:#9E9569;" d="M733.013,962.564l5.29-33.142c0,0,74.272,4.3,136.534,26.11l-9.215,29.829L733.013,962.564z"/>
					</g>
					<g>
						<path style="fill:#363E44;" d="M796.845,1089.806l-70.621-139.483c-0.55-1.087-0.115-2.414,0.971-2.965
							c1.085-0.547,2.413-0.114,2.963,0.971l67.256,132.838l75.604-110.491c0.688-1.005,2.058-1.262,3.065-0.575
							c1.004,0.687,1.262,2.061,0.574,3.064L796.845,1089.806z"/>
						<path style="fill:#363E44;" d="M795.793,1119.455c-9.972,0-18.085-8.113-18.085-18.086c0-9.973,8.113-18.086,18.085-18.086
							s18.085,8.113,18.085,18.086C813.879,1111.342,805.766,1119.455,795.793,1119.455z M795.793,1087.692
							c-7.54,0-13.676,6.136-13.676,13.677s6.135,13.677,13.676,13.677s13.676-6.137,13.676-13.677
							S803.333,1087.692,795.793,1087.692z"/>
					</g>
				</g>
				<g>
					<polygon style="fill:#EFBC73;" points="1263.898,1300.953 1241.466,1261.223 1207.575,1280.358 1230.007,1320.088 
						1202.894,1335.396 1131.807,1209.489 1229.516,1154.323 1300.603,1280.23 					"/>
					<polygon style="fill:#EFBC73;" points="1169.791,1313.609 1152.827,1283.564 1127.198,1298.035 1144.161,1328.08 
						1123.657,1339.656 1069.9,1244.442 1143.79,1202.723 1197.548,1297.938 					"/>
					<path style="fill:#EFBC73;" d="M761.669,1427.217c-57.779-102.337-187.579-138.458-289.916-80.679
						c-102.337,57.779-138.458,187.579-80.679,289.916s187.579,138.458,289.916,80.679
						C783.327,1659.354,819.448,1529.554,761.669,1427.217z"/>
					
						<rect x="703.597" y="1246.452" transform="matrix(0.8708 -0.4916 0.4916 0.8708 -501.1252 658.6975)" style="fill:#EFBC73;" width="598.125" height="72.651"/>
					<path style="fill:#F7F1EB;" d="M576.688,1719.644c-65.606,0-129.397-34.368-163.888-95.457
						c-50.923-90.191-18.974-204.999,71.219-255.923c90.195-50.917,205.001-18.971,255.923,71.222
						c50.923,90.191,18.974,204.999-71.22,255.923C639.617,1711.839,607.944,1719.644,576.688,1719.644z M576.062,1348.438
						c-30.529,0-61.448,7.618-89.874,23.667c-88.075,49.729-119.274,161.839-69.548,249.915
						c49.728,88.074,161.837,119.276,249.914,69.547c88.076-49.729,119.276-161.839,69.549-249.915
						C702.424,1382.003,640.121,1348.438,576.062,1348.438z M667.638,1693.488h0.021H667.638z"/>
					<path style="fill:#F7F1EB;" d="M900.825,1328.881c-0.77,0-1.517-0.403-1.922-1.122c-0.599-1.059-0.225-2.405,0.835-3.004
						l328.488-185.463c1.063-0.599,2.407-0.224,3.004,0.838c0.599,1.059,0.225,2.405-0.835,3.004l-328.488,185.463
						C901.564,1328.79,901.192,1328.881,900.825,1328.881z"/>
					
						<rect x="469.243" y="1512.955" transform="matrix(-0.2681 0.9634 -0.9634 -0.2681 2165.8076 1481.9663)" style="fill:#F2E6DC;" width="101.451" height="101.451"/>
				</g>
				<path style="fill:#E2A18D;" d="M890.063,1476.837c-9.075,1.258-23.474,3.653-37.804,4.462
					c-23.015,1.299-47.407-1.799-48.11-11.942c-0.836-12.059,22.449-9.658,33.605-12.123c13.366-2.953,19.04-6.195,18.888-8.295
					c-0.215-2.985-13.809,1.43-26.488-5.577c-15.037-8.309-25.456-23.799-19.063-29.561c6.525-5.88,21.588,7.883,32.899,8.424
					c6.854,0.328,14.263-1.497,14.144-3.3c-0.159-2.403-12.51,0.966-24.434-4.671c-16.854-7.968-28.468-25.908-22.72-30.89
					c7.212-6.247,21.788,7.361,27.851,8.584c13.047,2.632,23.26,5.686,23.825,3.33c0.516-2.148-9.753-3.826-19.722-12.909
					c-9.709-8.847-17.316-20.526-12.81-25.763c6.565-7.631,20.462,11.81,48.859,10.859c16.825-0.564,21.788-7.448,37.436-5.546
					c0.13,0.016,0.259,0.032,0.388,0.049c18.25,2.364,32.315,17.078,34.7,35.326c0.166,1.267,0.295,2.539,0.385,3.817
					c0.628,9.026-1.644,17.885-3.669,26.746C943.028,1450.586,912.445,1472.359,890.063,1476.837z"/>
				<g>
					<path style="fill:#E2A18D;" d="M534.971,1537.82c-3.199-16.683-5.376-88.188-35.521-102.409
						c-30.361-14.323-66.309-5.137-94.479,13.124c-0.033,0.133-0.069,0.28-0.102,0.411c-4.957,7.861-11.168,20.382-10.982,35.762
						c0.213,17.532,8.535,21.987,11.64,40.453c5.241,31.168-14.141,49.358-4.759,55.469c6.439,4.195,18.192-5.916,26.512-17.926
						c8.543-12.331,8.876-23.901,11.321-23.649c2.683,0.276,0.822,11.986-0.153,26.759c-0.454,6.863-13.305,24.943-5.352,31.971
						c6.341,5.603,24.405-9.85,30.701-29.607c4.453-13.978-1.083-27.097,1.542-27.628c1.97-0.398,5.077,7.501,5.726,15.106
						c1.074,12.55-11.876,31.188-4.43,37.514c7.295,6.197,22.835-7.576,29.776-25.381c5.853-15.013-1.02-29.348,2.239-30.026
						c2.292-0.477,6.703,5.301,11.933,19.6c4.364,11.935,5.155,37.96,18.327,35.258
						C539.987,1590.35,539.801,1563.001,534.971,1537.82z"/>
					<path style="fill:#E2A18D;" d="M576.609,1133.037c6.482-11.403,12.962-22.804,19.443-34.207
						c-1.598-1.155-4.084-2.855-7.275-4.627c0,0-38.934-21.62-103.32,4.977c-53.445,22.077-90.534,166.526-78.749,360.195
						l65.666,69.289c39.21-74.89,79.587-175.885,96.422-299.266C573.417,1195.535,575.811,1163.307,576.609,1133.037z"/>
				</g>
			</g>
		</g>
		<g>
			<g>
				<path style="fill:#E6D0BE;" d="M767.753,538.256H750.99c-1.501-8.172-3.642-16.118-6.363-23.791l14.507-8.376l-28.366-49.132h0
					l-14.541,8.395c-5.336-6.247-11.155-12.066-17.402-17.402l8.395-14.541l-49.132-28.366h0l-8.376,14.508
					c-7.673-2.721-15.619-4.862-23.791-6.363v-16.764h-56.733l0,0v16.763c-8.172,1.501-16.118,3.642-23.791,6.363l-8.376-14.508l0,0
					l-49.132,28.366l8.395,14.541c-6.247,5.336-12.066,11.155-17.402,17.402l-14.54-8.395h0l-28.366,49.132l0,0l14.508,8.376
					c-2.721,7.673-4.862,15.619-6.363,23.791h-16.763l0,0v56.733h16.764c1.501,8.172,3.642,16.118,6.363,23.791l-14.508,8.376v0
					l28.366,49.132l0,0l14.54-8.395c5.336,6.247,11.155,12.066,17.402,17.402l-8.395,14.541l49.132,28.367l0,0l8.376-14.508
					c7.673,2.721,15.619,4.862,23.791,6.363v16.763l0,0h56.733v-16.764c8.172-1.501,16.118-3.642,23.791-6.363l8.376,14.508l0,0
					l49.132-28.367l-8.395-14.541c6.247-5.336,12.066-11.156,17.402-17.402l14.541,8.395l0,0l28.366-49.132v0l-14.507-8.376
					c2.721-7.672,4.862-15.619,6.363-23.791h16.764V538.256z M684.442,602.859c-8.812,23.308-27.346,41.842-50.654,50.652
					c-79.196,29.937-153.06-43.929-123.121-123.125c8.812-23.308,27.346-41.842,50.655-50.653
					C640.518,449.797,714.383,523.663,684.442,602.859z"/>
			</g>
			<path style="fill:#F2E6DC;" d="M597.554,692.93c-69.647,0-126.308-56.662-126.308-126.308
				c0-62.013,46.17-115.708,107.396-124.902c1.192-0.155,2.328,0.648,2.507,1.854c0.181,1.204-0.648,2.328-1.853,2.508
				c-59.084,8.871-103.641,60.693-103.641,120.539c0,67.215,54.683,121.898,121.898,121.898c55.538,0,104.059-37.495,117.997-91.179
				c0.305-1.178,1.503-1.89,2.688-1.58c1.178,0.306,1.885,1.509,1.579,2.687C705.377,654.079,655.1,692.93,597.554,692.93z"/>
		</g>
	</g>
</g>
</svg>
