<?xml version="1.0" encoding="utf-8"?>
<!-- Generator: Adobe Illustrator 27.5.0, SVG Export Plug-In . SVG Version: 6.00 Build 0)  -->
<svg version="1.1" xmlns="http://www.w3.org/2000/svg" xmlns:xlink="http://www.w3.org/1999/xlink" x="0px" y="0px"
	 viewBox="0 0 2500 2500" style="enable-background:new 0 0 2500 2500;" xml:space="preserve">
-
<g id="Illustration">
	<g id="Winter_holidays_1_">
		<circle style="fill:transparent;" cx="1250.091" cy="1250" r="915"/>
		<path style="fill:#F7F1EB;" d="M1487.417,1882.499c-62.884-19.338-131.882-50.181-224.88-33.071
			c-102.973,18.946-134.63,79.888-218.266,62.834c-49.023-9.996-92.28-38.74-145.512-72.755
			c-35.885-22.932-63.01-44.457-78.703-57.574c-7.76-6.486-13.336-11.386-13.894-11.874
			c-29.403-25.657-178.133-20.127-320.967-17.717C648.777,2000.917,930.272,2165,1250.091,2165
			c245.045,0,467.59-96.33,631.838-253.183C1773.09,1923.929,1625.534,1924.974,1487.417,1882.499z"/>
		<g>
			<rect x="887.031" y="976.836" style="fill:#F7F1EB;" width="179.152" height="397.091"/>
			<rect x="739.65" y="1145.805" style="fill:#D3BBA3;" width="149.667" height="577.953"/>
			<g>
				<rect x="1035.238" y="1140.683" style="fill:#D3BBA3;" width="257.054" height="569.778"/>
				<rect x="1193.829" y="1164.86" style="fill:#F2E6DC;" width="23.75" height="48.34"/>
				<rect x="1237.569" y="1164.86" style="fill:#F2E6DC;" width="23.75" height="48.34"/>
				<rect x="1193.829" y="1253.886" style="fill:#F2E6DC;" width="23.75" height="48.34"/>
				<rect x="1237.569" y="1253.886" style="fill:#F2E6DC;" width="23.75" height="48.34"/>
				<rect x="1193.829" y="1342.912" style="fill:#F2E6DC;" width="23.75" height="48.34"/>
				<rect x="1237.569" y="1342.912" style="fill:#F2E6DC;" width="23.75" height="48.34"/>
				<rect x="1061.923" y="1164.86" style="fill:#F2E6DC;" width="23.75" height="48.34"/>
				<rect x="1105.663" y="1164.86" style="fill:#F2E6DC;" width="23.75" height="48.34"/>
				<rect x="1149.403" y="1164.86" style="fill:#F2E6DC;" width="23.75" height="48.34"/>
				<rect x="1061.923" y="1253.886" style="fill:#F2E6DC;" width="23.75" height="48.34"/>
				<rect x="1105.663" y="1253.886" style="fill:#F2E6DC;" width="23.75" height="48.34"/>
				<rect x="1149.403" y="1253.886" style="fill:#F2E6DC;" width="23.75" height="48.34"/>
				<rect x="1061.923" y="1342.912" style="fill:#F2E6DC;" width="23.75" height="48.34"/>
				<rect x="1105.663" y="1342.912" style="fill:#F2E6DC;" width="23.75" height="48.34"/>
				<rect x="1149.403" y="1342.912" style="fill:#F2E6DC;" width="23.75" height="48.34"/>
				<rect x="1193.829" y="1432.189" style="fill:#F2E6DC;" width="23.75" height="48.34"/>
				<rect x="1237.569" y="1432.189" style="fill:#F2E6DC;" width="23.75" height="48.34"/>
				<rect x="1193.829" y="1521.215" style="fill:#F2E6DC;" width="23.75" height="48.34"/>
				<rect x="1237.569" y="1521.215" style="fill:#F2E6DC;" width="23.75" height="48.34"/>
				<rect x="1193.829" y="1610.241" style="fill:#F2E6DC;" width="23.75" height="48.34"/>
				<rect x="1237.569" y="1610.241" style="fill:#F2E6DC;" width="23.75" height="48.34"/>
				<rect x="1061.923" y="1432.189" style="fill:#F2E6DC;" width="23.75" height="48.34"/>
				<rect x="1105.663" y="1432.189" style="fill:#F2E6DC;" width="23.75" height="48.34"/>
				<rect x="1149.403" y="1432.189" style="fill:#F2E6DC;" width="23.75" height="48.34"/>
				<rect x="1061.923" y="1521.215" style="fill:#F2E6DC;" width="23.75" height="48.34"/>
				<rect x="1105.663" y="1521.215" style="fill:#F2E6DC;" width="23.75" height="48.34"/>
				<rect x="1149.403" y="1521.215" style="fill:#F2E6DC;" width="23.75" height="48.34"/>
				<rect x="1061.923" y="1610.241" style="fill:#F2E6DC;" width="23.75" height="48.34"/>
				<rect x="1105.663" y="1610.241" style="fill:#F2E6DC;" width="23.75" height="48.34"/>
				<rect x="1149.403" y="1610.241" style="fill:#F2E6DC;" width="23.75" height="48.34"/>
			</g>
			<g>
				<rect x="1292.121" y="954.941" style="fill:#E6D0BE;" width="235.07" height="783.172"/>
				<rect x="1320.833" y="896.962" style="fill:#E6D0BE;" width="206.358" height="591.856"/>
				<rect x="1362.199" y="850.413" style="fill:#E6D0BE;" width="94.915" height="316.224"/>
				<rect x="1291.624" y="988.741" style="fill:#F2E6DC;" width="38.715" height="40.188"/>
				<rect x="1362.925" y="988.741" style="fill:#F2E6DC;" width="38.715" height="40.188"/>
				<rect x="1434.225" y="988.741" style="fill:#F2E6DC;" width="38.715" height="40.188"/>
				<rect x="1291.624" y="1062.753" style="fill:#F2E6DC;" width="38.715" height="40.188"/>
				<rect x="1362.925" y="1062.753" style="fill:#F2E6DC;" width="38.715" height="40.188"/>
				<rect x="1434.225" y="1062.753" style="fill:#F2E6DC;" width="38.715" height="40.188"/>
				<rect x="1291.624" y="1136.766" style="fill:#F2E6DC;" width="38.715" height="40.188"/>
				<rect x="1362.925" y="1136.766" style="fill:#F2E6DC;" width="38.715" height="40.188"/>
				<rect x="1434.225" y="1136.766" style="fill:#F2E6DC;" width="38.715" height="40.188"/>
				<rect x="1291.624" y="1210.778" style="fill:#F2E6DC;" width="38.715" height="40.188"/>
				<rect x="1362.925" y="1210.778" style="fill:#F2E6DC;" width="38.715" height="40.188"/>
				<rect x="1434.225" y="1210.778" style="fill:#F2E6DC;" width="38.715" height="40.188"/>
				<rect x="1291.624" y="1284.791" style="fill:#F2E6DC;" width="38.715" height="40.188"/>
				<rect x="1362.925" y="1284.791" style="fill:#F2E6DC;" width="38.715" height="40.188"/>
				<rect x="1434.225" y="1284.791" style="fill:#F2E6DC;" width="38.715" height="40.188"/>
				<rect x="1291.624" y="1358.803" style="fill:#F2E6DC;" width="38.715" height="40.188"/>
				<rect x="1362.925" y="1358.803" style="fill:#F2E6DC;" width="38.715" height="40.188"/>
				<rect x="1434.225" y="1358.803" style="fill:#F2E6DC;" width="38.715" height="40.188"/>
				<rect x="1291.624" y="1432.816" style="fill:#F2E6DC;" width="38.715" height="40.188"/>
				<rect x="1362.925" y="1432.816" style="fill:#F2E6DC;" width="38.715" height="40.188"/>
				<rect x="1434.225" y="1432.816" style="fill:#F2E6DC;" width="38.715" height="40.188"/>
				<rect x="1291.624" y="1506.828" style="fill:#F2E6DC;" width="38.715" height="40.188"/>
				<rect x="1362.925" y="1506.828" style="fill:#F2E6DC;" width="38.715" height="40.188"/>
				<rect x="1434.225" y="1506.828" style="fill:#F2E6DC;" width="38.715" height="40.188"/>
				<rect x="1291.624" y="1580.84" style="fill:#F2E6DC;" width="38.715" height="40.188"/>
				<rect x="1362.925" y="1580.84" style="fill:#F2E6DC;" width="38.715" height="40.188"/>
				<rect x="1434.225" y="1580.84" style="fill:#F2E6DC;" width="38.715" height="40.188"/>
				<rect x="1291.624" y="1654.853" style="fill:#F2E6DC;" width="38.715" height="40.188"/>
			</g>
			<g>
				<rect x="802.829" y="1258.56" style="fill:#E6D0BE;" width="249.773" height="466.085"/>
				<rect x="833.847" y="1289.319" style="fill:#FFFFFF;" width="28.878" height="33.369"/>
				<rect x="887.031" y="1289.319" style="fill:#FFFFFF;" width="28.878" height="33.369"/>
				<rect x="940.215" y="1289.319" style="fill:#FFFFFF;" width="28.878" height="33.369"/>
				<rect x="993.399" y="1289.319" style="fill:#FFFFFF;" width="28.878" height="33.369"/>
				<rect x="833.847" y="1350.774" style="fill:#FFFFFF;" width="28.878" height="33.369"/>
				<rect x="887.031" y="1350.774" style="fill:#FFFFFF;" width="28.878" height="33.369"/>
				<rect x="940.215" y="1350.774" style="fill:#FFFFFF;" width="28.878" height="33.369"/>
				<rect x="993.399" y="1350.774" style="fill:#FFFFFF;" width="28.878" height="33.369"/>
				<rect x="833.847" y="1412.229" style="fill:#FFFFFF;" width="28.878" height="33.369"/>
				<rect x="887.031" y="1412.229" style="fill:#FFFFFF;" width="28.878" height="33.369"/>
				<rect x="940.215" y="1412.229" style="fill:#FFFFFF;" width="28.878" height="33.369"/>
				<rect x="993.399" y="1412.229" style="fill:#FFFFFF;" width="28.878" height="33.369"/>
				<rect x="833.847" y="1473.683" style="fill:#FFFFFF;" width="28.878" height="33.369"/>
				<rect x="887.031" y="1473.683" style="fill:#FFFFFF;" width="28.878" height="33.369"/>
				<rect x="940.215" y="1473.683" style="fill:#FFFFFF;" width="28.878" height="33.369"/>
				<rect x="993.399" y="1473.683" style="fill:#FFFFFF;" width="28.878" height="33.369"/>
				<rect x="833.847" y="1535.138" style="fill:#FFFFFF;" width="28.878" height="33.369"/>
				<rect x="887.031" y="1535.138" style="fill:#FFFFFF;" width="28.878" height="33.369"/>
				<rect x="940.215" y="1535.138" style="fill:#FFFFFF;" width="28.878" height="33.369"/>
				<rect x="993.399" y="1535.138" style="fill:#FFFFFF;" width="28.878" height="33.369"/>
				<rect x="833.847" y="1596.593" style="fill:#FFFFFF;" width="28.878" height="33.369"/>
				<rect x="887.031" y="1596.593" style="fill:#FFFFFF;" width="28.878" height="33.369"/>
				<rect x="940.215" y="1596.593" style="fill:#FFFFFF;" width="28.878" height="33.369"/>
				<rect x="993.399" y="1596.593" style="fill:#FFFFFF;" width="28.878" height="33.369"/>
				<rect x="833.847" y="1658.048" style="fill:#FFFFFF;" width="28.878" height="33.369"/>
				<rect x="887.031" y="1658.048" style="fill:#FFFFFF;" width="28.878" height="33.369"/>
				<rect x="940.215" y="1658.048" style="fill:#FFFFFF;" width="28.878" height="33.369"/>
				<rect x="993.399" y="1658.048" style="fill:#FFFFFF;" width="28.878" height="33.369"/>
			</g>
			<g>
				<rect x="499.266" y="1073.036" style="fill:#E6D0BE;" width="239.725" height="574.612"/>
				<g>
					<g>
						<rect x="653.662" y="1232.847" style="fill:#F7F1EB;" width="19.973" height="51.262"/>
						<rect x="698.999" y="1232.847" style="fill:#F7F1EB;" width="19.973" height="51.262"/>
						<rect x="517.653" y="1232.847" style="fill:#F7F1EB;" width="19.973" height="51.262"/>
						<rect x="562.989" y="1232.847" style="fill:#F7F1EB;" width="19.973" height="51.262"/>
						<rect x="608.326" y="1232.847" style="fill:#F7F1EB;" width="19.973" height="51.262"/>
					</g>
					<g>
						<rect x="653.662" y="1136.116" style="fill:#F7F1EB;" width="19.973" height="51.262"/>
						<rect x="698.999" y="1136.116" style="fill:#F7F1EB;" width="19.973" height="51.262"/>
						<rect x="517.653" y="1136.116" style="fill:#F7F1EB;" width="19.973" height="51.262"/>
						<rect x="562.989" y="1136.116" style="fill:#F7F1EB;" width="19.973" height="51.262"/>
						<rect x="608.326" y="1136.116" style="fill:#F7F1EB;" width="19.973" height="51.262"/>
					</g>
					<g>
						<rect x="653.662" y="1329.579" style="fill:#F7F1EB;" width="19.973" height="51.262"/>
						<rect x="698.999" y="1329.579" style="fill:#F7F1EB;" width="19.973" height="51.262"/>
						<rect x="517.653" y="1329.579" style="fill:#F7F1EB;" width="19.973" height="51.262"/>
						<rect x="562.989" y="1329.579" style="fill:#F7F1EB;" width="19.973" height="51.262"/>
						<rect x="608.326" y="1329.579" style="fill:#F7F1EB;" width="19.973" height="51.262"/>
					</g>
					<g>
						<rect x="653.662" y="1523.043" style="fill:#F7F1EB;" width="19.973" height="51.262"/>
						<rect x="698.999" y="1523.043" style="fill:#F7F1EB;" width="19.973" height="51.262"/>
						<rect x="517.653" y="1523.043" style="fill:#F7F1EB;" width="19.973" height="51.262"/>
						<rect x="562.989" y="1523.043" style="fill:#F7F1EB;" width="19.973" height="51.262"/>
						<rect x="608.326" y="1523.043" style="fill:#F7F1EB;" width="19.973" height="51.262"/>
					</g>
					<g>
						<rect x="653.662" y="1426.311" style="fill:#F7F1EB;" width="19.973" height="51.262"/>
						<rect x="698.999" y="1426.311" style="fill:#F7F1EB;" width="19.973" height="51.262"/>
						<rect x="517.653" y="1426.311" style="fill:#F7F1EB;" width="19.973" height="51.262"/>
						<rect x="562.989" y="1426.311" style="fill:#F7F1EB;" width="19.973" height="51.262"/>
						<rect x="608.326" y="1426.311" style="fill:#F7F1EB;" width="19.973" height="51.262"/>
					</g>
				</g>
			</g>
			<g>
				<rect x="338.824" y="1298.809" style="fill:#D3BBA3;" width="165.413" height="345.826"/>
				<g>
					<rect x="357.961" y="1330.356" style="fill:#F2E6DC;" width="13.134" height="27.459"/>
					<rect x="395.582" y="1330.356" style="fill:#F2E6DC;" width="13.134" height="27.459"/>
					<rect x="433.202" y="1330.356" style="fill:#F2E6DC;" width="13.134" height="27.459"/>
					<rect x="470.822" y="1330.356" style="fill:#F2E6DC;" width="13.134" height="27.459"/>
					<rect x="357.961" y="1393.167" style="fill:#F2E6DC;" width="13.134" height="27.459"/>
					<rect x="395.582" y="1393.167" style="fill:#F2E6DC;" width="13.134" height="27.459"/>
					<rect x="433.202" y="1393.167" style="fill:#F2E6DC;" width="13.134" height="27.459"/>
					<rect x="470.822" y="1393.167" style="fill:#F2E6DC;" width="13.134" height="27.459"/>
					<rect x="357.961" y="1455.977" style="fill:#F2E6DC;" width="13.134" height="27.459"/>
					<rect x="395.582" y="1455.977" style="fill:#F2E6DC;" width="13.134" height="27.459"/>
					<rect x="433.202" y="1455.977" style="fill:#F2E6DC;" width="13.134" height="27.459"/>
					<rect x="470.822" y="1455.977" style="fill:#F2E6DC;" width="13.134" height="27.459"/>
					<rect x="357.961" y="1581.598" style="fill:#F2E6DC;" width="13.134" height="27.459"/>
					<rect x="395.582" y="1581.598" style="fill:#F2E6DC;" width="13.134" height="27.459"/>
					<rect x="433.202" y="1581.598" style="fill:#F2E6DC;" width="13.134" height="27.459"/>
					<rect x="470.822" y="1581.598" style="fill:#F2E6DC;" width="13.134" height="27.459"/>
				</g>
			</g>
		</g>
		<g>
			<path style="fill:#FFFFFF;" d="M1316.904,678.49l0.062-0.21c9.417-31.918,36.98-55.125,70.036-58.969l0,0l-0.21-0.062
				c-31.92-9.426-55.135-36.996-58.988-70.054l0,0l-0.062,0.21c-9.417,31.918-36.98,55.125-70.037,58.969v0l0.21,0.062
				C1289.836,617.862,1313.051,645.432,1316.904,678.49L1316.904,678.49z"/>
			<path style="fill:#FFFFFF;" d="M647.468,775.038l-0.058,0.162c-8.765,24.627-31.39,41.645-57.488,43.24h0l0.162,0.057
				c24.635,8.763,41.657,31.382,43.253,57.473l0,0l0.057-0.162c8.765-24.627,31.39-41.645,57.489-43.24l0,0l-0.162-0.057
				C666.087,823.749,649.064,801.13,647.468,775.038L647.468,775.038z"/>
			<path style="fill:#FFFFFF;" d="M1973.512,826.255l-0.033,0.137c-5.084,20.807-22.102,36.57-43.241,40.052l0,0l0.137,0.033
				c20.812,5.082,36.579,22.094,40.062,43.227l0,0l0.033-0.137c5.084-20.806,22.102-36.569,43.241-40.052l0,0l-0.137-0.033
				C1992.762,864.401,1976.996,847.388,1973.512,826.255L1973.512,826.255z"/>
			<path style="fill:#FFFFFF;" d="M946.067,442.617l-0.033,0.137c-5.084,20.806-22.102,36.569-43.241,40.052l0,0l0.137,0.033
				c20.812,5.082,36.579,22.094,40.062,43.227v0l0.033-0.137c5.084-20.806,22.102-36.569,43.241-40.052h0l-0.137-0.033
				C965.317,480.763,949.55,463.75,946.067,442.617L946.067,442.617z"/>
		</g>
		<g>
			<g>
				<polygon style="fill:#ff6900;" points="2072.489,1770.338 1254.501,1765.928 1432.159,1309.037 1632,1032.914 1861.21,1286.79
									"/>
				<polygon style="fill:#ff6900;" points="2006.481,1459.454 1317.566,1459.454 1629.639,935.408 				"/>
				<polygon style="fill:#ff6900;" points="1812.557,838.236 1454.099,838.236 1616.478,565.563 				"/>
				<polygon style="fill:#ff6900;" points="1943.953,1248.051 1366.987,1248.051 1628.348,809.162 				"/>
				<polygon style="fill:#ff6900;" points="1883.662,1054.588 1405.726,1054.588 1622.227,691.03 				"/>
			</g>
			<g>
				
					<ellipse transform="matrix(0.1602 -0.9871 0.9871 0.1602 128.1699 2564.5757)" style="fill:#EFBC73;" cx="1571.234" cy="1206.965" rx="55.702" ry="55.702"/>
				<path style="fill:#FFD092;" d="M1577.688,1261.643c-31.93,0-57.908-25.977-57.908-57.907c0-31.93,25.978-57.907,57.908-57.907
					s57.907,25.977,57.907,57.907C1635.594,1235.666,1609.618,1261.643,1577.688,1261.643z M1577.688,1150.238
					c-29.499,0-53.498,23.999-53.498,53.498c0,29.499,23.999,53.497,53.498,53.497c29.498,0,53.497-23.999,53.497-53.497
					C1631.184,1174.237,1607.186,1150.238,1577.688,1150.238z"/>
			</g>
			<g>
				
					<ellipse transform="matrix(0.1602 -0.9871 0.9871 0.1602 90.4568 2977.1704)" style="fill:#EFBC73;" cx="1794.85" cy="1435.426" rx="55.702" ry="55.702"/>
				<path style="fill:#FFD092;" d="M1797.004,1498.715c-31.93,0-57.908-25.977-57.908-57.907c0-31.93,25.978-57.907,57.908-57.907
					s57.907,25.977,57.907,57.907C1854.91,1472.738,1828.934,1498.715,1797.004,1498.715z M1797.004,1387.31
					c-29.499,0-53.498,23.999-53.498,53.498c0,29.499,23.999,53.497,53.498,53.497c29.498,0,53.497-23.999,53.497-53.497
					C1850.5,1411.309,1826.502,1387.31,1797.004,1387.31z"/>
			</g>
			<polygon style="fill:#EFBC73;" points="1600.186,1373.025 1617.289,1407.681 1655.534,1413.238 1627.86,1440.214 
				1634.393,1478.304 1600.186,1460.32 1565.978,1478.304 1572.511,1440.214 1544.837,1413.238 1583.082,1407.681 			"/>
			<polygon style="fill:#EFBC73;" points="1687.965,898.898 1705.069,933.554 1743.314,939.112 1715.639,966.087 1722.172,1004.178 
				1687.965,986.194 1653.758,1004.178 1660.291,966.087 1632.616,939.112 1670.861,933.554 			"/>
			<polygon style="fill:#EFBC73;" points="1616.112,402.987 1640.699,452.807 1695.679,460.796 1655.896,499.575 1665.287,554.333 
				1616.112,528.48 1566.937,554.333 1576.328,499.575 1536.545,460.796 1591.524,452.807 			"/>
			<polygon style="fill:#EFBC73;" points="1635.48,591.236 1599.419,592.262 1608.569,527.317 1621.486,527.317 			"/>
			<g>
				<circle style="fill:#EFBC73;" cx="1577.095" cy="754.715" r="43.275"/>
				<path style="fill:#FFD092;" d="M1573.685,796.07c-25.077,0-45.479-20.402-45.479-45.48s20.402-45.48,45.479-45.48
					c25.078,0,45.48,20.402,45.48,45.48S1598.762,796.07,1573.685,796.07z M1573.685,709.52c-22.646,0-41.069,18.424-41.069,41.07
					s18.423,41.07,41.069,41.07c22.646,0,41.07-18.424,41.07-41.07S1596.33,709.52,1573.685,709.52z"/>
			</g>
			<g>
				<path style="fill:#EFBC73;" d="M1837.853,1574.458c-9.559,0-19.445-0.173-29.661-0.524
					c-86.162-2.962-182.829-18.264-265.214-41.983c-66.616-19.179-155.767-53.026-202.175-105.358
					c-0.808-0.911-0.724-2.305,0.186-3.113c0.911-0.808,2.305-0.724,3.112,0.187c77.176,87.026,296.788,140.102,464.242,145.859
					c91.372,3.141,156.752-7.804,179.373-30.03c0.866-0.853,2.263-0.841,3.118,0.027c0.854,0.869,0.841,2.265-0.028,3.118
					C1969.919,1563.164,1914.92,1574.458,1837.853,1574.458z"/>
				<ellipse style="fill:#EFBC73;" cx="1973.94" cy="1567.055" rx="7.001" ry="6.817"/>
				<path style="fill:#EFBC73;" d="M1710.487,1579.972c0,3.765-3.134,6.817-7.001,6.817c-3.867,0-7.001-3.052-7.001-6.817
					s3.134-6.817,7.001-6.817C1707.352,1573.155,1710.487,1576.207,1710.487,1579.972z"/>
				<ellipse style="fill:#EFBC73;" cx="1669.587" cy="1574.231" rx="7.001" ry="6.817"/>
				<path style="fill:#EFBC73;" d="M1643.986,1568.917c-0.191,3.761-3.476,6.659-7.337,6.473c-3.862-0.186-6.838-3.385-6.647-7.145
					c0.191-3.761,3.476-6.659,7.337-6.473S1644.176,1565.157,1643.986,1568.917z"/>
				<path style="fill:#EFBC73;" d="M1610.418,1561.556c-0.191,3.761-3.476,6.659-7.337,6.473s-6.838-3.385-6.647-7.145
					c0.191-3.76,3.476-6.659,7.337-6.473C1607.633,1554.597,1610.609,1557.796,1610.418,1561.556z"/>
				<path style="fill:#EFBC73;" d="M1579.085,1555.016c-0.507,3.733-4.025,6.358-7.858,5.865c-3.833-0.494-6.53-3.92-6.023-7.652
					c0.507-3.733,4.025-6.358,7.858-5.865C1576.896,1547.858,1579.592,1551.284,1579.085,1555.016z"/>
				<ellipse style="fill:#EFBC73;" cx="1539.311" cy="1544.103" rx="7.001" ry="6.817"/>
				<path style="fill:#EFBC73;" d="M1513.603,1535.114c-0.661,3.71-4.284,6.196-8.094,5.553c-3.81-0.643-6.363-4.172-5.702-7.882
					c0.66-3.71,4.284-6.196,8.094-5.553C1511.711,1527.876,1514.263,1531.405,1513.603,1535.114z"/>
				<path style="fill:#EFBC73;" d="M1481.209,1523.819c-0.66,3.71-4.284,6.196-8.094,5.553c-3.81-0.643-6.363-4.172-5.702-7.882
					c0.661-3.71,4.284-6.196,8.094-5.552C1479.317,1516.58,1481.87,1520.109,1481.209,1523.819z"/>
				<path style="fill:#EFBC73;" d="M1444.792,1510.504c-1.115,3.605-5.02,5.647-8.722,4.562c-3.702-1.086-5.8-4.889-4.684-8.494
					c1.115-3.605,5.02-5.647,8.722-4.562C1443.809,1503.097,1445.907,1506.899,1444.792,1510.504z"/>
				<path style="fill:#EFBC73;" d="M1414.033,1495.488c-1.115,3.605-5.02,5.647-8.722,4.562c-3.702-1.086-5.8-4.889-4.684-8.494
					c1.115-3.605,5.02-5.647,8.722-4.562C1413.051,1488.079,1415.148,1491.882,1414.033,1495.488z"/>
				<path style="fill:#EFBC73;" d="M1783.443,1587.148c0,3.765-3.134,6.817-7.001,6.817c-3.867,0-7.001-3.052-7.001-6.817
					c0-3.765,3.134-6.817,7.001-6.817C1780.308,1580.331,1783.443,1583.383,1783.443,1587.148z"/>
				<path style="fill:#EFBC73;" d="M1913.511,1583.919c0,3.765-3.134,6.817-7.001,6.817c-3.867,0-7.001-3.052-7.001-6.817
					s3.134-6.817,7.001-6.817C1910.377,1577.102,1913.511,1580.154,1913.511,1583.919z"/>
				<ellipse style="fill:#EFBC73;" cx="1939.304" cy="1577.102" rx="7.001" ry="6.817"/>
				<ellipse style="fill:#EFBC73;" cx="1874.454" cy="1586.072" rx="7.001" ry="6.817"/>
				<ellipse style="fill:#EFBC73;" cx="1813.657" cy="1589.301" rx="7.001" ry="6.817"/>
				<path style="fill:#EFBC73;" d="M1751.386,1583.919c0,3.765-3.134,6.817-7.001,6.817s-7.001-3.052-7.001-6.817
					s3.134-6.817,7.001-6.817S1751.386,1580.154,1751.386,1583.919z"/>
				<path style="fill:#EFBC73;" d="M1849.03,1587.507c0,3.765-3.134,6.817-7.001,6.817s-7.001-3.052-7.001-6.817
					c0-3.765,3.134-6.817,7.001-6.817S1849.03,1583.742,1849.03,1587.507z"/>
			</g>
			<g>
				<path style="fill:#EFBC73;" d="M1381.227,1393.176c-8,0-15.702-0.443-23.066-1.365c-1.209-0.151-2.066-1.253-1.914-2.462
					c0.151-1.209,1.258-2.072,2.461-1.914c124.976,15.639,349.498-108.321,443.175-197.179
					c30.774-29.19,47.083-54.164,45.921-70.322c-0.087-1.215,0.827-2.27,2.041-2.357c1.224-0.09,2.271,0.827,2.358,2.041
					c1.612,22.428-24.825,52.532-47.285,73.838C1716.14,1277.668,1510.321,1393.176,1381.227,1393.176z"/>
				<path style="fill:#EFBC73;" d="M1865.682,1135.817c2.122,3.11,1.322,7.352-1.788,9.474c-3.11,2.122-7.352,1.322-9.474-1.788
					c-2.122-3.11-1.322-7.351,1.788-9.474C1859.318,1131.906,1863.56,1132.707,1865.682,1135.817z"/>
				<path style="fill:#EFBC73;" d="M1664.887,1309.674c2.122,3.11,1.322,7.352-1.788,9.474c-3.11,2.122-7.352,1.322-9.474-1.788
					c-2.122-3.11-1.322-7.352,1.788-9.474C1658.523,1305.763,1662.765,1306.564,1664.887,1309.674z"/>
				<path style="fill:#EFBC73;" d="M1637.076,1325.692c2.122,3.11,1.322,7.352-1.788,9.474c-3.11,2.122-7.352,1.322-9.474-1.788
					c-2.122-3.11-1.322-7.352,1.788-9.474S1634.953,1322.582,1637.076,1325.692z"/>
				<path style="fill:#EFBC73;" d="M1607.522,1339.544c1.966,3.211,0.958,7.408-2.253,9.374c-3.211,1.966-7.408,0.958-9.374-2.253
					c-1.967-3.211-0.958-7.408,2.253-9.374C1601.358,1335.325,1605.555,1336.333,1607.522,1339.544z"/>
				<path style="fill:#EFBC73;" d="M1577.247,1353.159c1.967,3.211,0.958,7.408-2.253,9.374c-3.211,1.967-7.408,0.958-9.374-2.253
					c-1.966-3.211-0.958-7.408,2.253-9.374C1571.083,1348.939,1575.28,1349.948,1577.247,1353.159z"/>
				<path style="fill:#EFBC73;" d="M1548.358,1367.109c1.696,3.361,0.347,7.461-3.015,9.158s-7.461,0.347-9.158-3.015
					c-1.696-3.361-0.347-7.462,3.015-9.158C1542.561,1362.398,1546.661,1363.748,1548.358,1367.109z"/>
				<path style="fill:#EFBC73;" d="M1516.301,1376.856c1.696,3.361,0.347,7.461-3.015,9.158c-3.361,1.696-7.462,0.346-9.158-3.015
					c-1.696-3.361-0.346-7.461,3.015-9.158C1510.504,1372.145,1514.604,1373.495,1516.301,1376.856z"/>
				<path style="fill:#EFBC73;" d="M1484.469,1386.615c1.56,3.427,0.047,7.469-3.38,9.029c-3.427,1.56-7.469,0.047-9.029-3.38
					c-1.56-3.427-0.047-7.469,3.38-9.029C1478.867,1381.675,1482.909,1383.188,1484.469,1386.615z"/>
				<path style="fill:#EFBC73;" d="M1452.047,1395.066c1.56,3.427,0.047,7.469-3.38,9.029c-3.427,1.56-7.469,0.046-9.029-3.38
					c-1.56-3.427-0.047-7.469,3.38-9.029C1446.444,1390.126,1450.487,1391.639,1452.047,1395.066z"/>
				<path style="fill:#EFBC73;" d="M1415.249,1404.059c1.135,3.59-0.854,7.42-4.444,8.556c-3.59,1.135-7.42-0.854-8.556-4.444
					c-1.135-3.59,0.854-7.42,4.444-8.556C1410.283,1398.479,1414.114,1400.469,1415.249,1404.059z"/>
				<path style="fill:#EFBC73;" d="M1383.659,1404.771c1.135,3.59-0.855,7.42-4.444,8.556c-3.59,1.135-7.42-0.854-8.556-4.444
					c-1.135-3.59,0.854-7.42,4.444-8.556C1378.693,1399.192,1382.523,1401.181,1383.659,1404.771z"/>
				<path style="fill:#EFBC73;" d="M1725.746,1272.523c2.122,3.11,1.322,7.352-1.788,9.474c-3.11,2.122-7.352,1.322-9.474-1.788
					s-1.322-7.352,1.788-9.474C1719.382,1268.613,1723.624,1269.413,1725.746,1272.523z"/>
				<path style="fill:#EFBC73;" d="M1830.16,1191.791c2.122,3.11,1.322,7.352-1.788,9.474c-3.11,2.122-7.352,1.322-9.474-1.788
					c-2.122-3.11-1.322-7.352,1.788-9.474C1823.796,1187.88,1828.038,1188.681,1830.16,1191.791z"/>
				<path style="fill:#EFBC73;" d="M1849.718,1167.094c2.122,3.11,1.322,7.352-1.788,9.474s-7.352,1.322-9.474-1.788
					s-1.322-7.352,1.788-9.474C1843.354,1163.184,1847.596,1163.984,1849.718,1167.094z"/>
				
					<ellipse transform="matrix(0.9984 -0.0559 0.0559 0.9984 -65.2144 102.3484)" style="fill:#EFBC73;" cx="1798.156" cy="1217.701" rx="6.817" ry="6.817"/>
				<path style="fill:#EFBC73;" d="M1756.07,1253.137c2.122,3.11,1.322,7.352-1.788,9.474s-7.352,1.322-9.474-1.788
					c-2.122-3.11-1.322-7.352,1.788-9.474C1749.706,1249.227,1753.948,1250.027,1756.07,1253.137z"/>
				<path style="fill:#EFBC73;" d="M1696.78,1293.713c2.122,3.11,1.322,7.352-1.788,9.474c-3.11,2.122-7.352,1.322-9.474-1.788
					c-2.122-3.11-1.322-7.352,1.788-9.474C1690.416,1289.802,1694.658,1290.603,1696.78,1293.713z"/>
				<path style="fill:#EFBC73;" d="M1780.032,1235.543c2.122,3.11,1.322,7.352-1.788,9.474c-3.11,2.122-7.352,1.322-9.474-1.788
					c-2.122-3.11-1.322-7.352,1.788-9.474C1773.668,1231.633,1777.91,1232.433,1780.032,1235.543z"/>
			</g>
			<g>
				<path style="fill:#EFBC73;" d="M1762.441,1114.049c-97.77,0-270.651-40.594-329.941-107.717
					c-0.806-0.913-0.72-2.306,0.193-3.112c0.914-0.806,2.305-0.72,3.112,0.193c60.858,68.9,243.693,109.435,337.977,106.03
					c30.818-1.118,51.684-6.843,58.754-16.123c0.739-0.969,2.121-1.156,3.09-0.418c0.969,0.738,1.156,2.121,0.418,3.09
					c-10.106,13.265-39.349,17.032-62.102,17.857C1770.245,1113.982,1766.396,1114.049,1762.441,1114.049z"/>
				<path style="fill:#EFBC73;" d="M1839.083,1119.581c-0.731,3.693-4.318,6.095-8.011,5.364c-3.694-0.731-6.095-4.318-5.364-8.011
					c0.731-3.693,4.318-6.095,8.011-5.364S1839.814,1115.888,1839.083,1119.581z"/>
				<path style="fill:#EFBC73;" d="M1574.343,1098.182c-0.731,3.693-4.318,6.095-8.012,5.364c-3.693-0.731-6.095-4.318-5.364-8.011
					c0.731-3.693,4.318-6.095,8.011-5.364C1572.673,1090.902,1575.074,1094.489,1574.343,1098.182z"/>
				<path style="fill:#EFBC73;" d="M1543.426,1089.568c-0.731,3.693-4.318,6.095-8.011,5.364s-6.095-4.318-5.364-8.012
					c0.731-3.693,4.318-6.095,8.011-5.364C1541.756,1082.288,1544.157,1085.875,1543.426,1089.568z"/>
				
					<ellipse transform="matrix(0.2618 -0.9651 0.9651 0.2618 72.9005 2248.3923)" style="fill:#EFBC73;" cx="1506.219" cy="1076.541" rx="6.817" ry="6.817"/>
				<path style="fill:#EFBC73;" d="M1486.748,1064.523c-0.912,3.653-4.613,5.875-8.266,4.962c-3.653-0.912-5.875-4.613-4.962-8.266
					c0.912-3.653,4.613-5.875,8.266-4.962C1485.439,1057.169,1487.66,1060.87,1486.748,1064.523z"/>
				<path style="fill:#EFBC73;" d="M1464.624,1048.847c-1.209,3.566-5.08,5.476-8.645,4.267c-3.566-1.209-5.476-5.08-4.267-8.646
					c1.209-3.566,5.08-5.476,8.646-4.267C1463.923,1041.411,1465.833,1045.282,1464.624,1048.847z"/>
				<path style="fill:#EFBC73;" d="M1439.097,1030.909c-1.209,3.566-5.08,5.476-8.646,4.267c-3.566-1.209-5.476-5.08-4.267-8.646
					c1.209-3.566,5.08-5.476,8.646-4.267S1440.306,1027.343,1439.097,1030.909z"/>
				<path style="fill:#EFBC73;" d="M1643.495,1115.561c-0.731,3.693-4.318,6.095-8.011,5.364s-6.095-4.318-5.364-8.011
					c0.731-3.693,4.318-6.095,8.011-5.364C1641.825,1108.281,1644.226,1111.868,1643.495,1115.561z"/>
				<path style="fill:#EFBC73;" d="M1774.259,1133.468c-0.731,3.693-4.318,6.095-8.011,5.364c-3.693-0.731-6.095-4.318-5.364-8.011
					c0.731-3.693,4.318-6.095,8.011-5.364C1772.589,1126.188,1774.99,1129.775,1774.259,1133.468z"/>
				<path style="fill:#EFBC73;" d="M1805.583,1130.113c-0.731,3.693-4.318,6.095-8.011,5.364c-3.693-0.731-6.095-4.318-5.364-8.011
					c0.731-3.693,4.318-6.095,8.012-5.364C1803.913,1122.832,1806.314,1126.419,1805.583,1130.113z"/>
				<path style="fill:#EFBC73;" d="M1740.036,1130.12c-0.731,3.693-4.318,6.095-8.011,5.364c-3.693-0.731-6.095-4.318-5.364-8.011
					c0.731-3.694,4.318-6.095,8.011-5.364C1738.365,1122.839,1740.767,1126.426,1740.036,1130.12z"/>
				<path style="fill:#EFBC73;" d="M1678.575,1123.607c-0.731,3.694-4.318,6.095-8.011,5.364c-3.693-0.731-6.095-4.318-5.364-8.012
					c0.731-3.693,4.318-6.095,8.011-5.364C1676.905,1116.327,1679.306,1119.914,1678.575,1123.607z"/>
				<path style="fill:#EFBC73;" d="M1608.08,1109.748c-0.731,3.693-4.318,6.095-8.011,5.364c-3.693-0.731-6.095-4.318-5.364-8.011
					c0.731-3.693,4.318-6.095,8.012-5.364C1606.409,1102.467,1608.811,1106.054,1608.08,1109.748z"/>
				<path style="fill:#EFBC73;" d="M1707.918,1128.371c-0.731,3.693-4.318,6.095-8.012,5.364c-3.693-0.731-6.095-4.318-5.364-8.012
					c0.731-3.693,4.318-6.095,8.011-5.364C1706.248,1121.091,1708.65,1124.677,1707.918,1128.371z"/>
			</g>
			<g>
				<path style="fill:#EFBC73;" d="M1491.773,902.911c-1.094,0-2.043-0.814-2.184-1.929c-0.153-1.208,0.703-2.311,1.911-2.464
					c54.457-6.88,227.455-87.205,258.215-131.436c3.575-5.142,4.984-9.479,4.186-12.892c-0.278-1.186,0.459-2.372,1.644-2.649
					c1.186-0.279,2.372,0.458,2.649,1.644c1.095,4.68-0.539,10.203-4.86,16.414c-32.027,46.054-204.776,126.155-261.281,133.294
					C1491.959,902.906,1491.865,902.911,1491.773,902.911z"/>
				<path style="fill:#EFBC73;" d="M1569.525,891.371c1.589,3.32,0.186,7.299-3.133,8.888c-3.32,1.589-7.299,0.186-8.888-3.133
					s-0.186-7.299,3.133-8.888C1563.957,886.648,1567.936,888.051,1569.525,891.371z"/>
				<path style="fill:#EFBC73;" d="M1540.278,902.722c1.589,3.32,0.187,7.299-3.133,8.888s-7.299,0.186-8.888-3.133
					c-1.589-3.32-0.186-7.299,3.133-8.888S1538.689,899.402,1540.278,902.722z"/>
				<path style="fill:#EFBC73;" d="M1505.287,911.281c1.424,3.394-0.173,7.299-3.567,8.723c-3.394,1.424-7.299-0.174-8.723-3.567
					c-1.424-3.394,0.173-7.299,3.567-8.723C1499.958,906.29,1503.863,907.887,1505.287,911.281z"/>
				<path style="fill:#EFBC73;" d="M1633.837,864.506c1.589,3.32,0.186,7.299-3.133,8.888c-3.319,1.589-7.299,0.186-8.888-3.133
					c-1.589-3.32-0.186-7.299,3.133-8.888C1628.268,859.783,1632.247,861.186,1633.837,864.506z"/>
				<path style="fill:#EFBC73;" d="M1746.694,801.995c1.589,3.32,0.187,7.299-3.133,8.888c-3.32,1.589-7.299,0.186-8.888-3.133
					c-1.589-3.32-0.186-7.299,3.133-8.888C1741.125,797.272,1745.105,798.675,1746.694,801.995z"/>
				<path style="fill:#EFBC73;" d="M1767.15,777.878c1.589,3.32,0.186,7.299-3.133,8.888c-3.32,1.589-7.299,0.186-8.888-3.133
					c-1.589-3.32-0.187-7.299,3.133-8.888C1761.581,773.156,1765.561,774.558,1767.15,777.878z"/>
				<path style="fill:#EFBC73;" d="M1717.94,819.402c1.589,3.32,0.187,7.299-3.133,8.888c-3.32,1.589-7.299,0.186-8.888-3.133
					c-1.589-3.32-0.186-7.299,3.133-8.888C1712.372,814.68,1716.351,816.083,1717.94,819.402z"/>
				<path style="fill:#EFBC73;" d="M1666.01,850.274c1.589,3.32,0.186,7.299-3.133,8.888c-3.32,1.589-7.299,0.187-8.888-3.133
					c-1.589-3.32-0.186-7.299,3.133-8.888C1660.442,845.552,1664.421,846.954,1666.01,850.274z"/>
				<path style="fill:#EFBC73;" d="M1602.707,880.681c1.589,3.32,0.187,7.299-3.133,8.888c-3.32,1.589-7.299,0.187-8.888-3.133
					c-1.589-3.32-0.186-7.299,3.133-8.888C1597.138,875.959,1601.118,877.361,1602.707,880.681z"/>
				<path style="fill:#EFBC73;" d="M1691.772,836.83c1.589,3.32,0.186,7.299-3.133,8.888c-3.32,1.589-7.299,0.186-8.888-3.133
					c-1.589-3.32-0.187-7.299,3.133-8.888C1686.203,832.108,1690.183,833.51,1691.772,836.83z"/>
			</g>
		</g>
		<g>
			<g>
				<path style="fill:#F7F1EB;" d="M1482.647,1594.059c-0.768,0-1.486-0.4-1.887-1.065c-0.436-0.723-0.422-1.631,0.038-2.339
					l11.443-17.649c0.216-0.335,0.52-0.604,0.877-0.78l52.636-25.84c0.832-0.408,1.826-0.254,2.494,0.384
					c0.669,0.638,0.868,1.626,0.5,2.473l-6.716,15.461l26.062,17.612c0.772,0.522,1.133,1.473,0.901,2.375
					c-0.232,0.903-1.007,1.562-1.935,1.647l-84.212,7.71C1482.78,1594.056,1482.713,1594.059,1482.647,1594.059z M1495.609,1575.916
					l-8.643,13.328l73.539-6.733l-22.46-15.179c-0.88-0.595-1.21-1.732-0.787-2.705l5.056-11.64L1495.609,1575.916z"/>
				<path style="fill:#F7F1EB;" d="M1431.353,1596.442c-0.646,0-1.279-0.283-1.71-0.811l-52.025-63.751
					c-0.565-0.693-0.656-1.659-0.23-2.445c0.426-0.786,1.284-1.231,2.175-1.142l16.956,1.82l8.71-20.44
					c0.345-0.808,1.137-1.336,2.016-1.34c0.895-0.042,1.677,0.512,2.031,1.317l34.421,78.264c0.466,1.06,0.032,2.3-0.991,2.839
					l-10.327,5.435C1432.054,1596.359,1431.702,1596.442,1431.353,1596.442z M1384.429,1533.251l47.492,58.195l6.913-3.638
					l-31.543-71.721l-7.354,17.257c-0.38,0.892-1.289,1.426-2.264,1.328L1384.429,1533.251z"/>
				<rect x="1356.008" y="1595.859" style="fill:#84524D;" width="177.16" height="202.734"/>
				<rect x="1431.936" y="1592.063" style="fill:#B77250;" width="23.252" height="206.53"/>
				<path style="fill:#E2A18D;" d="M1533.168,1800.798h-177.161c-1.218,0-2.205-0.987-2.205-2.205v-202.734
					c0-1.218,0.987-2.205,2.205-2.205h177.161c1.218,0,2.205,0.987,2.205,2.205v202.734
					C1535.373,1799.81,1534.386,1800.798,1533.168,1800.798z M1358.212,1796.388h172.751v-198.324h-172.751V1796.388z"/>
				<g>
					<path style="fill:#B77250;" d="M1444.827,1596.319c-32.932-20.083-55.183-37.736-47.925-48.671
						c2.703-4.072,7.95-4.491,11.289-1.084C1417.001,1555.554,1432.03,1578.427,1444.827,1596.319z"/>
					<path style="fill:#D87355;" d="M1439.686,1598.766c-32.139-0.674-52.022-4.684-62.98-8.005
						c-3.638-1.102-6.218-4.764-6.396-9.044c-0.813-19.506,18.74-42.289,35.142-36.883c-17.27,2.113-3.128,20.685,31.633,45.978
						C1439.562,1592.615,1437.003,1596.899,1439.686,1598.766z"/>
					<path style="fill:#B77250;" d="M1437.272,1596.319c41.272-23.431,66.928-43.552,44.849-53.559
						C1473.289,1542.822,1454.286,1574.176,1437.272,1596.319z"/>
					<path style="fill:#D87355;" d="M1439.324,1598.222c34.525-0.675,59.354-4.141,71.126-7.461
						c3.908-1.102,6.679-4.764,6.871-9.044c0.874-19.506-11.996-40.781-35.199-38.958c14.703,6.484,0.268,23.46-37.883,48.976
						C1441.998,1593.234,1441.727,1596.665,1439.324,1598.222z"/>
					<path style="fill:#D87355;" d="M1436.148,1584.752l10.184-1.131l0.629,15.59l-11.295,0.191c-1.77,0.03-3.073-1.648-2.606-3.356
						L1436.148,1584.752z"/>
				</g>
				<path style="fill:#E2A18D;" d="M1488.193,1682.452c-2.19,0-4.388-0.354-6.526-1.066c-5.213-1.738-9.437-5.402-11.894-10.316
					c-2.018-4.037-2.345-8.619-0.917-12.902c1.427-4.282,4.437-7.752,8.474-9.771c6.885-3.442,15.287-0.641,18.73,6.244
					c2.861,5.726,0.533,12.713-5.192,15.575c-2.325,1.162-4.962,1.349-7.427,0.528c-2.464-0.822-4.461-2.555-5.624-4.879
					c-0.982-1.965-1.141-4.194-0.447-6.278c0.696-2.084,2.16-3.772,4.124-4.755c1.676-0.839,3.576-0.975,5.359-0.38
					c1.78,0.593,3.22,1.843,4.059,3.52c0.724,1.446,0.841,3.089,0.328,4.623c-0.511,1.535-1.59,2.779-3.038,3.503
					c-1.053,0.528-2.226,0.685-3.365,0.463c1.347,0.449,2.788,0.346,4.059-0.289c3.55-1.775,4.995-6.108,3.22-9.659
					c-1.141-2.281-3.102-3.982-5.522-4.789c-2.422-0.806-5.011-0.622-7.292,0.518c-2.984,1.492-5.208,4.056-6.262,7.221
					c-1.055,3.165-0.814,6.551,0.678,9.535c1.93,3.862,5.248,6.74,9.345,8.105c4.094,1.366,8.478,1.054,12.339-0.877
					c1.094-0.546,2.415-0.102,2.958,0.986c0.545,1.089,0.102,2.414-0.986,2.958
					C1494.473,1681.72,1491.343,1682.452,1488.193,1682.452z M1486.373,1659.164c0.114,0.902-0.341,1.818-1.2,2.248
					c-0.111,0.055-0.173,0.24-0.118,0.349c0.142,0.283,0.379,0.397,0.508,0.44c0.128,0.042,0.388,0.094,0.669-0.048
					c0.394-0.196,0.687-0.535,0.827-0.952c0.139-0.418,0.107-0.865-0.09-1.258
					C1486.817,1659.644,1486.616,1659.381,1486.373,1659.164z"/>
				<path style="fill:#E2A18D;" d="M1410.443,1782.239c-7.552,0-14.833-4.169-18.434-11.37c-4.166-8.335-0.776-18.505,7.558-22.673
					c6.885-3.443,15.287-0.641,18.73,6.243c2.862,5.726,0.533,12.713-5.192,15.575c-2.324,1.162-4.959,1.35-7.427,0.528
					c-2.465-0.822-4.462-2.554-5.625-4.879c-2.027-4.057-0.377-9.006,3.679-11.033c3.459-1.73,7.686-0.323,9.418,3.139
					c0.723,1.447,0.84,3.089,0.328,4.624c-0.511,1.535-1.59,2.779-3.037,3.502c-1.055,0.528-2.232,0.685-3.366,0.463
					c1.346,0.448,2.787,0.346,4.059-0.289c3.551-1.776,4.995-6.109,3.22-9.66c-2.353-4.709-8.104-6.625-12.813-4.27
					c-6.159,3.08-8.665,10.596-5.585,16.756c3.984,7.971,13.713,11.214,21.684,7.228c1.093-0.546,2.415-0.102,2.958,0.986
					c0.545,1.09,0.103,2.414-0.986,2.958C1416.666,1781.542,1413.531,1782.239,1410.443,1782.239z M1408.611,1758.966
					c0.112,0.901-0.343,1.816-1.201,2.245c-0.111,0.055-0.173,0.239-0.118,0.349c0.142,0.283,0.379,0.397,0.508,0.44
					c0.128,0.043,0.388,0.094,0.669-0.048c0.394-0.196,0.687-0.535,0.826-0.952c0.14-0.417,0.108-0.864-0.089-1.257
					C1409.052,1759.44,1408.85,1759.179,1408.611,1758.966z"/>
				<path style="fill:#E2A18D;" d="M1385.8,1642.709c-2.09,0-4.181-0.393-6.184-1.18c-4.201-1.65-7.508-4.838-9.311-8.976
					c-1.491-3.418-1.56-7.212-0.196-10.683c1.363-3.471,3.997-6.203,7.415-7.693c5.871-2.557,12.723,0.136,15.28,6.003
					c1.039,2.382,1.087,5.026,0.137,7.444c-0.949,2.419-2.785,4.323-5.167,5.361c-4.157,1.811-9.013-0.096-10.824-4.252
					c-1.547-3.548,0.082-7.693,3.63-9.24c1.481-0.646,3.13-0.676,4.635-0.085c1.505,0.592,2.69,1.734,3.337,3.217
					c0.487,1.117,0.556,2.313,0.276,3.412c0.003-0.008,0.006-0.016,0.01-0.024c0.519-1.323,0.493-2.768-0.074-4.07
					c-1.587-3.64-5.835-5.309-9.477-3.723c-2.338,1.019-4.139,2.888-5.073,5.263c-0.933,2.374-0.886,4.969,0.134,7.308
					c1.334,3.058,3.778,5.414,6.882,6.634c3.106,1.219,6.497,1.158,9.557-0.175c3.958-1.725,7.006-4.888,8.585-8.906
					c1.579-4.018,1.499-8.41-0.226-12.368c-0.487-1.116,0.024-2.416,1.14-2.902c1.114-0.486,2.415,0.024,2.901,1.14
					c2.196,5.037,2.298,10.628,0.29,15.743c-2.01,5.114-5.891,9.14-10.928,11.336
					C1390.382,1642.236,1388.093,1642.709,1385.8,1642.709z M1381.691,1624.083c0.85,0,1.661,0.495,2.023,1.325
					c0.047,0.112,0.227,0.183,0.342,0.135c0.443-0.193,0.646-0.711,0.453-1.154c-0.177-0.403-0.498-0.714-0.908-0.875
					c-0.41-0.161-0.858-0.153-1.261,0.023c-0.31,0.136-0.581,0.325-0.807,0.552
					C1381.587,1624.084,1381.638,1624.083,1381.691,1624.083z"/>
			</g>
			<g>
				<path style="fill:#F7F1EB;" d="M1600.588,1689.353c-0.768,0-1.486-0.4-1.887-1.065c-0.436-0.723-0.422-1.631,0.038-2.339
					l8.842-13.636c0.216-0.335,0.52-0.604,0.877-0.78l40.67-19.966c0.833-0.407,1.825-0.254,2.494,0.384
					c0.668,0.638,0.868,1.626,0.5,2.474l-5.023,11.563l19.793,13.375c0.772,0.522,1.132,1.473,0.901,2.375
					c-0.233,0.903-1.007,1.562-1.935,1.647l-65.068,5.958C1600.722,1689.35,1600.655,1689.353,1600.588,1689.353z
					 M1610.948,1675.223l-6.04,9.316l54.395-4.98l-16.192-10.942c-0.88-0.595-1.21-1.732-0.787-2.705l3.363-7.743L1610.948,1675.223
					z"/>
				<path style="fill:#F7F1EB;" d="M1560.957,1691.194c-0.645,0-1.279-0.283-1.71-0.811l-40.198-49.258
					c-0.565-0.693-0.656-1.658-0.23-2.445c0.427-0.786,1.275-1.235,2.175-1.142l12.536,1.345l6.862-22.88
					c0.271-0.902,1.084-1.533,2.026-1.57c0.941-0.045,1.8,0.527,2.141,1.406l26.432,68.152c0.406,1.044-0.037,2.226-1.028,2.748
					l-7.979,4.2C1561.657,1691.112,1561.305,1691.194,1560.957,1691.194z M1525.859,1642.496l35.665,43.702l4.644-2.445
					l-23.398-60.332l-5.543,18.483c-0.304,1.016-1.278,1.671-2.348,1.559L1525.859,1642.496z"/>
				<rect x="1502.74" y="1690.243" style="fill:#EFBC73;" width="136.885" height="117.33"/>
				<rect x="1561.407" y="1687.309" style="fill:#B77250;" width="17.966" height="121.363"/>
				<g>
					<path style="fill:#B77250;" d="M1571.367,1690.598c-25.445-15.518-42.638-29.157-37.03-37.606
						c2.088-3.146,6.143-3.47,8.723-0.838C1549.867,1659.1,1561.479,1676.773,1571.367,1690.598z"/>
					<path style="fill:#D87355;" d="M1567.395,1692.489c-24.833-0.521-40.195-3.62-48.662-6.185
						c-2.811-0.852-4.804-3.681-4.942-6.988c-0.628-15.071,14.48-32.675,27.153-28.498c-13.344,1.632-2.417,15.983,24.442,35.526
						C1567.299,1687.736,1565.322,1691.046,1567.395,1692.489z"/>
					<path style="fill:#B77250;" d="M1565.53,1690.598c31.89-18.104,51.713-33.651,34.653-41.383
						C1593.359,1649.263,1578.676,1673.489,1565.53,1690.598z"/>
					<path style="fill:#D87355;" d="M1567.115,1692.068c26.676-0.521,45.861-3.2,54.956-5.765c3.019-0.852,5.161-3.681,5.309-6.988
						c0.675-15.071-9.269-31.51-27.197-30.101c11.36,5.01,0.207,18.127-29.271,37.842
						C1569.181,1688.214,1568.972,1690.865,1567.115,1692.068z"/>
					<path style="fill:#D87355;" d="M1564.661,1681.661l7.869-0.874l0.486,12.046l-8.727,0.148
						c-1.368,0.023-2.375-1.273-2.014-2.593L1564.661,1681.661z"/>
				</g>
				<g>
					<path style="fill:#F2E6DC;" d="M1605.05,1705.577c0,2.203-1.786,3.989-3.99,3.989c-2.203,0-3.989-1.786-3.989-3.989
						c0-2.203,1.786-3.99,3.989-3.99C1603.264,1701.587,1605.05,1703.373,1605.05,1705.577z"/>
					<path style="fill:#F2E6DC;" d="M1633.816,1798.594c0,2.203-1.786,3.99-3.989,3.99s-3.99-1.786-3.99-3.99
						c0-2.203,1.786-3.99,3.99-3.99S1633.816,1796.391,1633.816,1798.594z"/>
					<path style="fill:#F2E6DC;" d="M1603.16,1788.935c0,2.203-1.786,3.99-3.99,3.99c-2.203,0-3.989-1.786-3.989-3.99
						c0-2.203,1.786-3.989,3.989-3.989C1601.374,1784.946,1603.16,1786.732,1603.16,1788.935z"/>
					<path style="fill:#F2E6DC;" d="M1520.011,1795.234c0,2.203-1.786,3.99-3.99,3.99c-2.203,0-3.989-1.786-3.989-3.99
						c0-2.203,1.786-3.99,3.989-3.99C1518.225,1791.245,1520.011,1793.031,1520.011,1795.234z"/>
					<path style="fill:#F2E6DC;" d="M1528.2,1738.752c0,2.203-1.786,3.989-3.99,3.989c-2.203,0-3.989-1.786-3.989-3.989
						c0-2.203,1.786-3.99,3.989-3.99C1526.414,1734.763,1528.2,1736.549,1528.2,1738.752z"/>
					<path style="fill:#F2E6DC;" d="M1638.015,1715.025c0,2.203-1.786,3.989-3.989,3.989c-2.203,0-3.99-1.786-3.99-3.989
						c0-2.203,1.786-3.99,3.99-3.99C1636.229,1711.036,1638.015,1712.822,1638.015,1715.025z"/>
					<path style="fill:#F2E6DC;" d="M1557.386,1709.566c0,2.203-1.786,3.99-3.989,3.99c-2.203,0-3.99-1.786-3.99-3.99
						c0-2.203,1.786-3.989,3.99-3.989C1555.6,1705.577,1557.386,1707.363,1557.386,1709.566z"/>
					<path style="fill:#F2E6DC;" d="M1515.392,1698.648c0,2.203-1.786,3.99-3.989,3.99c-2.203,0-3.99-1.786-3.99-3.99
						c0-2.203,1.786-3.989,3.99-3.989C1513.606,1694.658,1515.392,1696.444,1515.392,1698.648z"/>
					<path style="fill:#F2E6DC;" d="M1631.086,1751.35c0,2.203-1.786,3.99-3.99,3.99c-2.203,0-3.99-1.786-3.99-3.99
						c0-2.203,1.786-3.99,3.99-3.99C1629.3,1747.361,1631.086,1749.147,1631.086,1751.35z"/>
					<path style="fill:#F2E6DC;" d="M1592.871,1739.592c0,2.203-1.786,3.989-3.99,3.989c-2.203,0-3.989-1.786-3.989-3.989
						c0-2.203,1.786-3.99,3.989-3.99C1591.085,1735.603,1592.871,1737.389,1592.871,1739.592z"/>
					<path style="fill:#F2E6DC;" d="M1548.358,1766.048c0,2.203-1.786,3.989-3.99,3.989c-2.203,0-3.99-1.786-3.99-3.989
						c0-2.203,1.786-3.99,3.99-3.99C1546.571,1762.059,1548.358,1763.845,1548.358,1766.048z"/>
				</g>
			</g>
		</g>
		<g>
			<g>
				<g>
					<g>
						<path style="fill:#363E44;" d="M984.912,1430.177c0,0,44.044,189.079,37.988,253.236
							c-5.905,62.551-82.159,233.753-82.159,233.753h-104.54l44.231-248.957l-56.574-227.022L984.912,1430.177z"/>
						<g>
							<path style="fill:#D87355;" d="M1048.729,2015.676l-238.511,0.27l22.841-98.648l12.254-65.428l124.76,3.303l-20.077,61.992
								c54.467-0.062,82.364,44.043,82.426,98.51L1048.729,2015.676z"/>
							<path style="fill:#363E44;" d="M948.443,1939.019c-0.563,0-1.127-0.215-1.557-0.644c-0.862-0.86-0.865-2.256-0.004-3.118
								l18.998-19.042c0.858-0.862,2.255-0.864,3.118-0.004c0.862,0.86,0.865,2.256,0.004,3.118l-18.998,19.042
								C949.573,1938.803,949.008,1939.019,948.443,1939.019z"/>
							<path style="fill:#363E44;" d="M970.073,1945.481c-0.563,0-1.127-0.215-1.558-0.644c-0.861-0.86-0.863-2.257-0.003-3.118
								l18.998-19.041c0.859-0.862,2.255-0.864,3.119-0.004c0.861,0.86,0.863,2.256,0.003,3.118l-18.998,19.041
								C971.203,1945.265,970.638,1945.481,970.073,1945.481z"/>
							<path style="fill:#363E44;" d="M951.446,1914.358c-0.023,0-0.044,0-0.067-0.001l-26.886-0.805
								c-1.218-0.036-2.175-1.052-2.138-2.27c0.037-1.217,1.071-2.158,2.27-2.137l26.886,0.805c1.218,0.036,2.175,1.052,2.138,2.27
								C953.613,1913.413,952.633,1914.358,951.446,1914.358z"/>
							<path style="fill:#363E44;" d="M959.085,1894.17c-0.023,0-0.044-0.001-0.067-0.001l-26.886-0.804
								c-1.218-0.036-2.175-1.052-2.138-2.269c0.036-1.218,1.038-2.168,2.269-2.138l26.886,0.804
								c1.218,0.036,2.175,1.052,2.138,2.269C961.252,1893.226,960.273,1894.17,959.085,1894.17z"/>
							<path style="fill:#363E44;" d="M966.689,1873.892c-0.023,0-0.044,0-0.067-0.001l-26.886-0.804
								c-1.218-0.036-2.175-1.052-2.138-2.269c0.035-1.218,1.04-2.174,2.269-2.138l26.886,0.804
								c1.218,0.036,2.175,1.052,2.138,2.269C968.856,1872.948,967.876,1873.892,966.689,1873.892z"/>
							<path style="fill:#363E44;" d="M1051.007,2058.93c-1.553,0-2.471-0.067-2.528-0.072l-250.75,0.008
								c-15.089,0-29.351-7.998-37.218-20.873c-0.635-1.039-0.308-2.396,0.731-3.031c1.038-0.635,2.394-0.307,3.032,0.732
								c7.072,11.574,19.892,18.763,33.456,18.763h250.93c1.564,0.117,34.388,2.416,44.166-24.961
								c10.284-28.793-11.45-44.144-12.381-44.783c-1.002-0.689-1.259-2.06-0.572-3.064c0.686-1.003,2.054-1.263,3.06-0.577
								c0.256,0.174,25.498,17.846,14.046,49.908C1087.726,2056.888,1059.614,2058.929,1051.007,2058.93z"/>
							<path style="fill:#363E44;" d="M932.198,2058.947c-1.218,0-2.205-0.987-2.205-2.205v-40.934c0-1.218,0.987-2.205,2.205-2.205
								c1.218,0,2.205,0.987,2.205,2.205v40.934C934.403,2057.959,933.415,2058.947,932.198,2058.947z"/>
							<path style="fill:#363E44;" d="M1008.237,2058.947c-1.218,0-2.205-0.987-2.205-2.205v-40.934
								c0-1.218,0.987-2.205,2.205-2.205s2.205,0.987,2.205,2.205v40.934C1010.442,2057.959,1009.455,2058.947,1008.237,2058.947z"
								/>
							<path style="fill:#363E44;" d="M856.157,2058.947c-1.218,0-2.205-0.987-2.205-2.205v-40.934c0-1.218,0.987-2.205,2.205-2.205
								c1.218,0,2.205,0.987,2.205,2.205v40.934C858.362,2057.959,857.375,2058.947,856.157,2058.947z"/>
							<path style="fill:#363E44;" d="M832.651,2018.125c-1.216,0-2.204-0.986-2.205-2.202c-0.001-1.218,0.985-2.206,2.203-2.208
								l186.075-0.211c0,0,0.001,0,0.002,0c1.217,0,2.204,0.986,2.205,2.202c0.001,1.218-0.985,2.206-2.203,2.208l-186.075,0.211
								C832.654,2018.125,832.652,2018.125,832.651,2018.125z"/>
						</g>
					</g>
					<g>
						<path style="fill:#363E44;" d="M869.843,1473.854c0,0-73.54,179.674-115.619,228.482
							c-41.024,47.586-202.308,143.044-202.308,143.044l-85.243-60.516l180.183-177.397l85.288-217.866L869.843,1473.854z"/>
						<g>
							<path style="fill:#D87355;" d="M582.945,1988.219l-194.641-137.85l75.73-67.216l47.867-46.257l99.818,74.915l-52.257,38.927
								C603.912,1882.218,614.425,1943.77,582.945,1988.219L582.945,1988.219z"/>
							<path style="fill:#363E44;" d="M546.82,1868.066c-1.055,0-1.987-0.759-2.171-1.834c-0.205-1.2,0.602-2.34,1.802-2.545
								l26.514-4.529c1.214-0.201,2.339,0.603,2.545,1.802c0.204,1.2-0.602,2.34-1.802,2.545l-26.514,4.529
								C547.068,1868.055,546.943,1868.066,546.82,1868.066z"/>
							<path style="fill:#363E44;" d="M560.717,1885.856c-1.055,0-1.987-0.759-2.171-1.834c-0.205-1.2,0.602-2.34,1.802-2.545
								l26.514-4.529c1.213-0.201,2.339,0.603,2.545,1.802c0.205,1.2-0.602,2.34-1.802,2.545l-26.514,4.529
								C560.964,1885.846,560.84,1885.856,560.717,1885.856z"/>
							<path style="fill:#363E44;" d="M563.544,1849.694c-0.463,0-0.929-0.145-1.327-0.446l-21.458-16.22
								c-0.971-0.735-1.164-2.117-0.43-3.089c0.734-0.972,2.114-1.164,3.089-0.43l21.458,16.22c0.971,0.735,1.164,2.117,0.43,3.089
								C564.871,1849.392,564.211,1849.694,563.544,1849.694z"/>
							<path style="fill:#363E44;" d="M581.459,1837.655c-0.463,0-0.929-0.145-1.327-0.446l-21.458-16.22
								c-0.971-0.735-1.164-2.117-0.43-3.089c0.734-0.972,2.114-1.164,3.089-0.43l21.458,16.22c0.971,0.735,1.164,2.117,0.43,3.089
								C582.786,1837.353,582.127,1837.655,581.459,1837.655z"/>
							<path style="fill:#363E44;" d="M599.397,1825.523c-0.463,0-0.929-0.145-1.327-0.446l-21.457-16.22
								c-0.971-0.734-1.164-2.117-0.43-3.088c0.734-0.971,2.115-1.164,3.089-0.429l21.457,16.22c0.971,0.734,1.164,2.116,0.43,3.088
								C600.724,1825.221,600.064,1825.523,599.397,1825.523z"/>
							<path style="fill:#363E44;" d="M591.126,2035.754c-18.255,0.001-33.176-12.294-33.382-12.467l-204.469-145.149
								c-12.304-8.735-19.302-23.513-18.264-38.566c0.083-1.214,1.136-2.141,2.351-2.048c1.214,0.083,2.132,1.136,2.048,2.351
								c-0.933,13.531,5.358,26.815,16.419,34.667l204.611,145.259c1.211,1.005,26.642,21.877,50.463,5.214
								c25.138-17.585,15.926-43.421,15.83-43.68c-0.423-1.142,0.159-2.41,1.301-2.834c1.14-0.422,2.409,0.158,2.833,1.301
								c0.108,0.291,10.46,29.312-17.436,48.826C605.94,2033.867,598.276,2035.754,591.126,2035.754z"/>
							<path style="fill:#363E44;" d="M464.149,1956.452c-0.441,0-0.887-0.132-1.275-0.407c-0.993-0.705-1.226-2.081-0.521-3.074
								l23.695-33.378c0.704-0.993,2.081-1.227,3.075-0.522c0.993,0.705,1.226,2.081,0.521,3.074l-23.695,33.378
								C465.52,1956.129,464.84,1956.452,464.149,1956.452z"/>
							<path style="fill:#363E44;" d="M526.154,2000.47c-0.441,0-0.887-0.132-1.275-0.407c-0.993-0.705-1.226-2.081-0.521-3.074
								l23.695-33.378c0.705-0.993,2.082-1.227,3.075-0.522c0.993,0.705,1.226,2.081,0.521,3.074l-23.695,33.379
								C527.524,2000.147,526.844,2000.47,526.154,2000.47z"/>
							<path style="fill:#363E44;" d="M402.145,1912.433c-0.441,0-0.887-0.132-1.275-0.407c-0.993-0.705-1.226-2.081-0.521-3.074
								l23.696-33.378c0.705-0.993,2.082-1.227,3.075-0.522c0.993,0.705,1.226,2.082,0.521,3.074l-23.697,33.378
								C403.516,1912.11,402.835,1912.433,402.145,1912.433z"/>
							<path style="fill:#363E44;" d="M558.458,1973.084c-0.44,0-0.885-0.131-1.272-0.405l-151.849-107.544
								c-0.994-0.704-1.228-2.08-0.524-3.074c0.703-0.994,2.078-1.229,3.074-0.525l151.849,107.544
								c0.994,0.704,1.228,2.08,0.524,3.074C559.83,1972.76,559.149,1973.084,558.458,1973.084z"/>
						</g>
					</g>
				</g>
				<g>
					<g>
						<path style="fill:#FFFFFF;" d="M1192.818,1260.97c23.282,1.344,79.481,5.2,104.717,7.453c2.643,0.236,7.309,0.631,13.008,2.77
							c21.117,7.923,22.572,27.076,40.975,45.539c20.882,20.949,44.5,20.923,43.844,28.448c-0.456,5.234-9.362,7.753-27.921,5.855
							c-0.002,0-0.002,0.003-0.001,0.003c13.934,3.062,32.65,8.04,30.935,15.736c-2.455,8.78-25.131,5.513-38.752,2.867
							c16.487,3.203,24.296,9.839,22.271,13.892c-3.188,6.379-16.552,6.872-38.177,1.793c0,0-0.001,0.001-0.001,0.001
							c13.953,7.678,16.193,11.62,13.53,14.766c-4.863,5.743-22.564,1.233-37.601-5.153c-16.928-7.189-27.563-18.637-34.096-26.015
							c-0.002-0.002-0.004-0.003-0.007-0.003c-43.709-7.843-58.677-4.831-101.96-4.663
							C1183.584,1364.26,1192.815,1260.97,1192.818,1260.97z"/>
						<path style="fill:#FFFFFF;" d="M1330.689,1303.734c29.264,0.375,39.9-5.691,39.811-10.331
							c-0.149-7.802-25.002-18.35-67.703-24.286C1309.704,1279.459,1323.783,1293.393,1330.689,1303.734z"/>
						<path style="fill:#363E44;" d="M1321.517,1352.847c-0.993,0-1.895-0.676-2.14-1.684c-0.996-4.089-4.411-14.345-14.592-21.227
							c-7.19-4.859-14.536-5.946-19.432-6.002c-1.218-0.014-2.193-1.013-2.179-2.23c0.014-1.209,0.998-2.18,2.205-2.18
							c0.009,0,0.016,0,0.026,0c5.499,0.063,13.753,1.287,21.85,6.759c11.455,7.744,15.29,19.25,16.407,23.837
							c0.287,1.183-0.438,2.376-1.62,2.664C1321.866,1352.827,1321.691,1352.847,1321.517,1352.847z"/>
						<path style="fill:#363E44;" d="M1339.842,1306.297c-0.702,0-1.392-0.334-1.819-0.956c-2.016-2.934-3.805-5.792-5.532-8.555
							c-3.568-5.703-6.938-11.09-11.327-15.369c-0.872-0.849-0.89-2.246-0.041-3.118c0.851-0.871,2.246-0.89,3.118-0.04
							c4.77,4.648,8.277,10.253,11.988,16.188c1.704,2.724,3.465,5.539,5.429,8.396c0.689,1.003,0.435,2.376-0.568,3.066
							C1340.707,1306.172,1340.272,1306.297,1339.842,1306.297z"/>
						<path style="fill:#363E44;" d="M1367.118,1352.454c-0.212,0-0.428-0.031-0.642-0.096c-5.148-1.563-10.054-3.802-14.582-6.653
							c-3.12-1.964-6.077-4.234-8.791-6.746c-0.894-0.827-0.947-2.223-0.121-3.116c0.828-0.894,2.222-0.946,3.116-0.12
							c2.515,2.329,5.256,4.432,8.145,6.251c4.197,2.641,8.743,4.715,13.514,6.165c1.165,0.354,1.823,1.585,1.469,2.75
							C1368.937,1351.841,1368.063,1352.454,1367.118,1352.454z"/>
						<path style="fill:#363E44;" d="M1361.45,1371.397c-0.212,0-0.428-0.031-0.641-0.096c-5.15-1.565-10.056-3.803-14.581-6.653
							c-3.121-1.965-6.079-4.235-8.792-6.746c-0.894-0.827-0.947-2.222-0.12-3.116c0.828-0.895,2.222-0.947,3.116-0.121
							c2.514,2.327,5.256,4.43,8.146,6.251c4.193,2.64,8.74,4.714,13.513,6.165c1.166,0.354,1.823,1.585,1.469,2.751
							C1363.27,1370.784,1362.396,1371.397,1361.45,1371.397z"/>
						<path style="fill:#363E44;" d="M1343.371,1387.26c-0.212,0-0.428-0.031-0.642-0.096c-5.148-1.563-10.053-3.801-14.581-6.652
							c-3.119-1.964-6.077-4.233-8.792-6.746c-0.894-0.827-0.947-2.222-0.121-3.116c0.826-0.893,2.22-0.948,3.116-0.12
							c2.516,2.328,5.257,4.432,8.146,6.251c4.195,2.641,8.742,4.715,13.513,6.164c1.165,0.354,1.823,1.585,1.469,2.75
							C1345.19,1386.647,1344.316,1387.26,1343.371,1387.26z"/>
					</g>
					<path style="fill:#D87355;" d="M1259.859,1257.922c0,0-345.797-84.976-346.541,39.008
						c-0.687,114.593,315.482,98.418,315.482,98.418L1259.859,1257.922z"/>
					<path style="fill:#D87355;" d="M936.131,981.058c-15.434-0.931-30.545,1.648-45.297,7.174
						c-106.07,13.487-424.963,62.783-386.379,164.11c14.816,38.909,114.423,44.429,214.551,39.562
						c-83.537,167.577-134.624,373.911-134.624,373.911l471.673,33.365C1056.055,1599.18,1114.626,991.832,936.131,981.058z"/>
					<path style="fill:#D87355;" d="M880.234,1115.299c0,0,139.742,312.159,241.05,240.682
						c93.635-66.063-111.238-320.246-111.238-320.246L880.234,1115.299z"/>
					<path style="fill:#FFFFFF;" d="M1065.249,1387.259c-1.217,0-2.203-0.985-2.205-2.202
						c-0.171-125.833-10.922-224.345-31.954-292.797c-0.357-1.164,0.296-2.397,1.461-2.755c1.156-0.358,2.396,0.294,2.755,1.46
						c21.16,68.871,31.975,167.815,32.148,294.086c0.002,1.218-0.984,2.206-2.202,2.208
						C1065.251,1387.259,1065.25,1387.259,1065.249,1387.259z"/>
					<path style="fill:#FFFFFF;" d="M918.28,1271.129c-0.122,0-0.243-0.01-0.364-0.03l-135.772-22.729
						c-0.577-0.097-1.092-0.418-1.431-0.895c-0.34-0.476-0.477-1.067-0.38-1.644l19.133-114.286c0.202-1.2,1.346-2.011,2.539-1.811
						l135.771,22.729c1.201,0.201,2.012,1.338,1.811,2.539l-19.132,114.286c-0.097,0.577-0.419,1.092-0.895,1.431
						C919.184,1270.988,918.736,1271.129,918.28,1271.129z M785.046,1244.385l131.422,22.001l18.404-109.937l-131.421-22.001
						L785.046,1244.385z"/>
					<path style="fill:#FFFFFF;" d="M1131.654,1235.58c-0.088,0-0.177-0.005-0.265-0.016c-14.855-1.776-29.247-3.15-42.78-4.084
						c-1.214-0.083-2.132-1.136-2.048-2.351c0.084-1.214,1.138-2.143,2.351-2.048c13.606,0.938,28.073,2.32,42.999,4.104
						c1.209,0.145,2.072,1.242,1.928,2.451C1133.706,1234.757,1132.754,1235.58,1131.654,1235.58z"/>
					<path style="fill:#FFFFFF;" d="M1002.98,1354.651c-0.076,0-0.154-0.004-0.232-0.012c-1.211-0.126-2.091-1.21-1.965-2.421
						c17.097-164.4-30.987-325.304-31.475-326.91c-0.19-0.626-0.091-1.304,0.267-1.851l24.886-37.907
						c0.669-1.018,2.036-1.301,3.053-0.633c1.017,0.668,1.302,2.035,0.633,3.053l-24.325,37.053
						c4.051,13.894,47.829,169.155,31.346,327.651C1005.052,1353.808,1004.094,1354.651,1002.98,1354.651z"/>
				</g>
				<g>
					
						<rect x="954.787" y="902.576" transform="matrix(0.7287 0.6849 -0.6849 0.7287 929.7758 -415.5721)" style="fill:#E2A18D;" width="69.171" height="126.174"/>
					<polygon style="fill:#D87355;" points="1016.045,1001.008 948.803,938.008 885.425,990.39 985.129,1047.197 					"/>
					<path style="fill:#E2A18D;" d="M1020.018,1009.471c-19.41-2.673-31.198-56.021-31.198-56.021l18.172-57.034
						c18.877-20.085,50.462-21.064,70.547-2.187c20.085,18.877,21.064,50.462,2.187,70.547
						C1079.726,964.775,1039.787,1012.194,1020.018,1009.471z"/>
					<path style="fill:#E2A18D;" d="M1066.559,970.41c0,0,0.156,20.274-3.038,22.586c-3.813,2.759-17.106-5.866-17.106-5.866
						S1066.806,970.69,1066.559,970.41z"/>
					<path style="fill:#FFFFFF;" d="M1035.202,938.008c0,0,9.166,2.448,16.505,9.346c1.561,1.468-13.128,11.195-13.946,9.094
						C1034.168,947.211,1035.202,938.008,1035.202,938.008z"/>
					<g>
						<defs>
							<path id="SVGID_1_" d="M1035.202,938.008c0,0,13.481,3.6,20.835,14.373c7.354,10.773,5.796,24.639,5.796,24.639
								s-13.481-3.6-20.835-14.373C1033.644,951.874,1035.202,938.008,1035.202,938.008z"/>
						</defs>
						<clipPath id="SVGID_00000144316860169201283730000017213793019563787954_">
							<use xlink:href="#SVGID_1_"  style="overflow:visible;"/>
						</clipPath>
						
							<ellipse transform="matrix(0.6849 -0.7287 0.7287 0.6849 -370.9197 1071.1063)" style="clip-path:url(#SVGID_00000144316860169201283730000017213793019563787954_);fill:#363E44;" cx="1052.849" cy="964.374" rx="17.058" ry="17.058"/>
					</g>
					<path style="fill:#363E44;" d="M1035.042,988.966c-0.132,0-0.268-0.012-0.404-0.037c-3.566-0.661-6.425-3.351-7.285-6.855
						c-0.828-3.376,0.365-7.007,3.039-9.253c0.933-0.782,2.323-0.662,3.106,0.271c0.784,0.932,0.662,2.323-0.27,3.107
						c-1.398,1.174-2.023,3.068-1.592,4.825c0.448,1.823,1.941,3.224,3.806,3.569c1.197,0.222,1.988,1.372,1.767,2.57
						C1037.012,988.223,1036.085,988.966,1035.042,988.966z"/>
					<path style="fill:#363E44;" d="M1006.944,1003.212c-0.673,0-1.337-0.307-1.77-0.888
						c-12.004-16.114-18.812-46.487-19.096-47.772c-0.263-1.189,0.489-2.366,1.677-2.629c1.191-0.266,2.364,0.488,2.629,1.677
						c0.068,0.306,6.891,30.739,18.325,46.09c0.728,0.977,0.526,2.358-0.451,3.086
						C1007.863,1003.07,1007.402,1003.212,1006.944,1003.212z"/>
					<g>
						<path style="fill:#D87355;" d="M1098.341,930.493c2.007-10.345,2.97-25.022-2.384-41.343
							c-16.655-50.767-78.483-68.826-83.612-70.246c-2.795,3.541-10,13.732-9.125,28.127c0.421,6.913,2.566,12.53,4.404,16.266
							c-5.192,4.863-10.995,9.438-14.51,14.793c-6.436,9.804-11.11,18.959-13.098,26.289c16.407,1.502,40.468,3.174,61.478,8.157
							C1063.393,917.73,1082.463,924.17,1098.341,930.493z"/>
						<path style="fill:#FFFFFF;" d="M978.146,926.964c15.714-1.816,36.002-5.113,62.711,4.116
							c21.964,7.59,36.252,13.458,47.5,21.604c6.814-3.098,13.169-15.616,12.961-24.692c-13.602-7.631-30.995-15.902-51.939-22.59
							c-26.553-8.479-49.118-8.922-71.21-5.594C972.223,910.833,975.504,921.005,978.146,926.964z"/>
						
							<ellipse transform="matrix(0.9573 -0.2891 0.2891 0.9573 -191.5072 321.5881)" style="fill:#FFFFFF;" cx="992.957" cy="809.126" rx="27.542" ry="27.542"/>
						<path style="fill:#FFFFFF;" d="M1036.059,872.379c-0.003,0-0.006,0-0.011,0c-6.906-0.032-13.725-1.058-20.268-3.047
							c-3.934-1.196-7.798-2.754-11.483-4.632c-1.085-0.553-1.516-1.881-0.964-2.966c0.554-1.085,1.881-1.516,2.966-0.963
							c3.455,1.76,7.076,3.221,10.764,4.342c6.132,1.865,12.527,2.827,19.006,2.857c1.218,0.006,2.199,0.997,2.194,2.215
							C1038.258,871.399,1037.272,872.379,1036.059,872.379z"/>
						<path style="fill:#E6D0BE;" d="M980.046,797.38c-0.506,0-1.014-0.173-1.43-0.527l-11.359-9.685
							c-0.926-0.79-1.037-2.182-0.247-3.108c0.789-0.927,2.18-1.037,3.108-0.248l11.359,9.685c0.926,0.79,1.037,2.182,0.246,3.108
							C981.288,797.118,980.669,797.38,980.046,797.38z"/>
						<path style="fill:#E6D0BE;" d="M976.985,807.546c-0.153,0-0.309-0.016-0.464-0.049l-14.595-3.13
							c-1.191-0.255-1.95-1.427-1.693-2.618c0.255-1.19,1.429-1.948,2.617-1.693l14.595,3.13c1.191,0.255,1.95,1.427,1.693,2.618
							C978.917,806.838,978.003,807.546,976.985,807.546z"/>
					</g>
				</g>
			</g>
			<g>
				<g>
					<g>
						<path style="fill:#776E42;" d="M1014.055,1717.895c0,0-62.542,121.085-94.986,152.609
							c-31.631,30.735-150.315,87.503-150.315,87.503l-55.86-47.591l136.971-112.893l73.12-147.063L1014.055,1717.895z"/>
						<g>
							<path style="fill:#FFFFFF;" d="M781.611,2059.806l-127.57-108.436l57.114-42.314l36.334-29.383l65.161,58.561l-38.95,23.986
								C802.832,1986.983,806.374,2030.674,781.611,2059.806L781.611,2059.806z"/>
							<path style="fill:#363E44;" d="M763.923,1974.217c-1.137,0-2.102-0.874-2.195-2.027c-0.099-1.214,0.805-2.277,2.018-2.376
								l18.821-1.526c1.234-0.1,2.278,0.806,2.376,2.02c0.099,1.214-0.805,2.277-2.019,2.376l-18.821,1.526
								C764.042,1974.215,763.982,1974.217,763.923,1974.217z"/>
							<path style="fill:#363E44;" d="M772.539,1987.517c-1.137,0-2.102-0.874-2.195-2.027c-0.099-1.214,0.805-2.277,2.02-2.376
								l18.821-1.526c1.207-0.102,2.276,0.806,2.375,2.02c0.099,1.214-0.805,2.277-2.02,2.376l-18.821,1.526
								C772.658,1987.515,772.598,1987.517,772.539,1987.517z"/>
							<path style="fill:#363E44;" d="M776.755,1962.406c-0.528,0-1.056-0.188-1.478-0.57l-14.001-12.67
								c-0.903-0.817-0.972-2.211-0.156-3.114c0.818-0.903,2.211-0.973,3.114-0.156l14.001,12.67
								c0.903,0.817,0.972,2.211,0.156,3.114C777.955,1962.161,777.357,1962.406,776.755,1962.406z"/>
							<path style="fill:#363E44;" d="M790.027,1955.097c-0.528,0-1.056-0.188-1.478-0.57l-14-12.67
								c-0.903-0.817-0.972-2.211-0.156-3.114c0.818-0.903,2.211-0.973,3.115-0.156l14,12.67c0.903,0.817,0.972,2.211,0.156,3.114
								C791.227,1954.852,790.628,1955.097,790.027,1955.097z"/>
							<path style="fill:#363E44;" d="M803.321,1947.723c-0.528,0-1.056-0.188-1.478-0.57l-14.001-12.67
								c-0.903-0.817-0.972-2.211-0.156-3.114c0.818-0.903,2.211-0.973,3.115-0.156l14.001,12.67
								c0.903,0.817,0.972,2.211,0.156,3.114C804.522,1947.479,803.923,1947.723,803.321,1947.723z"/>
							<path style="fill:#363E44;" d="M786.852,2094.318c-14.237,0.001-25.353-10.942-25.499-11.087l-133.95-114.111
								c-8.237-7.017-12.301-18.015-10.609-28.701c0.191-1.202,1.326-2.02,2.522-1.833c1.204,0.191,2.024,1.32,1.833,2.523
								c-1.455,9.179,2.037,18.626,9.112,24.654l134.083,114.233c0.811,0.798,16.97,16.619,34.21,6.699
								c18.232-10.49,13.516-28.638,13.466-28.82c-0.321-1.175,0.371-2.387,1.546-2.708c1.179-0.325,2.388,0.372,2.709,1.545
								c0.058,0.215,5.628,21.636-15.522,33.805C795.977,2093.267,791.264,2094.318,786.852,2094.318z"/>
							<path style="fill:#363E44;" d="M700.646,2030.904c-0.506,0-1.014-0.173-1.429-0.526c-0.927-0.79-1.038-2.181-0.249-3.108
								l18.635-21.873c0.789-0.928,2.182-1.038,3.108-0.249c0.927,0.79,1.038,2.181,0.249,3.108l-18.635,21.873
								C701.89,2030.641,701.27,2030.904,700.646,2030.904z"/>
							<path style="fill:#363E44;" d="M741.278,2065.521c-0.506,0-1.014-0.173-1.429-0.526c-0.927-0.79-1.038-2.181-0.249-3.108
								l18.635-21.873c0.789-0.927,2.182-1.038,3.108-0.249c0.927,0.79,1.038,2.181,0.249,3.108l-18.635,21.873
								C742.522,2065.258,741.902,2065.521,741.278,2065.521z"/>
							<path style="fill:#363E44;" d="M660.016,1996.288c-0.506,0-1.014-0.173-1.429-0.526c-0.927-0.79-1.038-2.181-0.249-3.108
								l18.634-21.873c0.789-0.928,2.182-1.038,3.108-0.249c0.927,0.79,1.038,2.181,0.249,3.108l-18.634,21.873
								C661.259,1996.025,660.639,1996.288,660.016,1996.288z"/>
							<path style="fill:#363E44;" d="M765.563,2048.37c-0.505,0-1.012-0.172-1.426-0.525l-99.524-84.596
								c-0.928-0.789-1.041-2.18-0.252-3.108c0.788-0.928,2.18-1.041,3.107-0.252l99.524,84.596c0.928,0.789,1.041,2.18,0.252,3.108
								C766.807,2048.107,766.187,2048.37,765.563,2048.37z"/>
						</g>
					</g>
					<g>
						<path style="fill:#776E42;" d="M1062.851,1679.547c0,0,30.918,132.729,26.666,177.766
							c-4.145,43.909-57.673,164.089-57.673,164.089H958.46l31.049-174.762l-39.714-159.364L1062.851,1679.547z"/>
						<g>
							<path style="fill:#FFFFFF;" d="M1107.65,2090.553l-167.429,0.19l16.034-69.248l8.602-45.929l87.578,2.319l-14.094,43.517
								C1076.576,2021.358,1107.606,2052.319,1107.65,2090.553L1107.65,2090.553z"/>
							<path style="fill:#363E44;" d="M1037.251,2037.399c-0.563,0-1.127-0.215-1.558-0.644c-0.861-0.86-0.863-2.256-0.003-3.118
								l13.337-13.367c0.859-0.862,2.255-0.864,3.119-0.004c0.861,0.86,0.863,2.256,0.003,3.118l-13.337,13.367
								C1038.381,2037.183,1037.816,2037.399,1037.251,2037.399z"/>
							<path style="fill:#363E44;" d="M1052.435,2041.935c-0.563,0-1.127-0.215-1.558-0.644c-0.861-0.86-0.863-2.256-0.003-3.118
								l13.337-13.367c0.859-0.862,2.255-0.864,3.119-0.004c0.861,0.86,0.863,2.256,0.003,3.118l-13.337,13.367
								C1053.565,2041.719,1053,2041.935,1052.435,2041.935z"/>
							<path style="fill:#363E44;" d="M1039.359,2020.087c-0.023,0-0.044,0-0.067-0.001l-18.873-0.565
								c-1.218-0.036-2.175-1.052-2.138-2.269c0.037-1.218,1.029-2.161,2.269-2.138l18.873,0.565
								c1.218,0.036,2.175,1.052,2.138,2.269C1041.526,2019.143,1040.546,2020.087,1039.359,2020.087z"/>
							<path style="fill:#363E44;" d="M1044.721,2005.916c-0.023,0-0.044,0-0.067-0.001l-18.873-0.565
								c-1.218-0.036-2.175-1.052-2.138-2.269c0.037-1.218,1.026-2.165,2.269-2.138l18.873,0.565
								c1.218,0.036,2.175,1.052,2.138,2.269C1046.888,2004.972,1045.908,2005.916,1044.721,2005.916z"/>
							<path style="fill:#363E44;" d="M1050.059,1991.682c-0.023,0-0.044-0.001-0.067-0.001l-18.873-0.565
								c-1.218-0.036-2.175-1.052-2.138-2.269c0.036-1.218,1.047-2.163,2.269-2.138l18.873,0.565
								c1.218,0.036,2.175,1.052,2.138,2.269C1052.226,1990.738,1051.246,1991.682,1050.059,1991.682z"/>
							<path style="fill:#363E44;" d="M1109.222,2121.572c-1.107,0-1.76-0.047-1.801-0.051l-175.967,0.008
								c-10.821,0-21.046-5.735-26.688-14.967c-0.634-1.039-0.307-2.396,0.732-3.031c1.04-0.634,2.395-0.307,3.032,0.731
								c4.846,7.931,13.629,12.857,22.924,12.857H1107.6c1.132,0.085,23.696,1.645,30.385-17.086
								c7.074-19.808-8.284-30.564-8.44-30.671c-1.005-0.686-1.265-2.057-0.579-3.063c0.685-1.006,2.057-1.267,3.064-0.58
								c0.184,0.125,18.316,12.818,10.109,35.798C1135.498,2120.11,1115.37,2121.572,1109.222,2121.572z"/>
							<path style="fill:#363E44;" d="M1025.847,2121.585c-1.218,0-2.205-0.987-2.205-2.205v-28.735
								c0-1.218,0.987-2.205,2.205-2.205c1.218,0,2.205,0.987,2.205,2.205v28.735
								C1028.051,2120.598,1027.064,2121.585,1025.847,2121.585z"/>
							<path style="fill:#363E44;" d="M1079.225,2121.585c-1.218,0-2.205-0.987-2.205-2.205v-28.735
								c0-1.218,0.987-2.205,2.205-2.205s2.205,0.987,2.205,2.205v28.735C1081.43,2120.598,1080.443,2121.585,1079.225,2121.585z"/>
							<path style="fill:#363E44;" d="M972.469,2121.585c-1.218,0-2.205-0.987-2.205-2.205v-28.735c0-1.218,0.987-2.205,2.205-2.205
								s2.205,0.987,2.205,2.205v28.735C974.674,2120.598,973.687,2121.585,972.469,2121.585z"/>
							<path style="fill:#363E44;" d="M955.968,2092.93c-1.217,0-2.204-0.986-2.205-2.202c-0.001-1.218,0.985-2.206,2.203-2.208
								l130.619-0.148c0,0,0.001,0,0.002,0c1.217,0,2.204,0.986,2.205,2.202c0.001,1.218-0.985,2.206-2.203,2.208l-130.619,0.148
								C955.971,2092.93,955.969,2092.93,955.968,2092.93z"/>
						</g>
					</g>
				</g>
				<g>
					<path style="fill:#ff6900;" d="M1023.472,1476.925c74.214-10.489,190.895-34.072,199.145,10.74
						c8.502,46.182-97.534,70.306-167.637,89.159C1050.36,1555.181,1019.927,1494.102,1023.472,1476.925z"/>
					<g>
						<path style="fill:#EFBC73;" d="M1199.907,1438.818c20.83-14.055,68.245-49.581,73.012-52.864
							c8.911-6.138,51.593-37.521,56.482-28.284c1.885,3.561-0.113,6.623-3.254,8.742c3.38-0.46,8.855-2.361,10.709,1.757
							c2.177,4.838-5.169,9.681-5.338,9.92c3.385-0.816,9.895-1.245,11.405,1.788c1.964,3.947-2.556,7.838-6.059,9.853
							c0.642,0.267,8.554-3.826,11.096,0.78c1.866,3.382-4.332,8.667-8.851,11.561c-7.913,5.46-82.606,56.823-100.695,67.447
							C1231.333,1473.676,1198.291,1451.785,1199.907,1438.818z"/>
						<path style="fill:#363E44;" d="M1319.582,1386.488c-0.675,0-1.34-0.308-1.773-0.891c-0.726-0.978-0.52-2.359,0.458-3.084
							c3.433-2.546,7.161-4.658,11.082-6.278c0.475-0.196,0.945-0.383,1.409-0.559c1.137-0.432,2.413,0.142,2.843,1.281
							c0.432,1.139-0.142,2.411-1.28,2.843c-0.425,0.161-0.855,0.331-1.287,0.51c-3.587,1.482-6.999,3.415-10.14,5.745
							C1320.498,1386.347,1320.038,1386.488,1319.582,1386.488z"/>
						<path style="fill:#363E44;" d="M1329.8,1396.221c-0.675,0-1.34-0.308-1.773-0.891c-0.726-0.977-0.521-2.359,0.457-3.084
							c2.238-1.66,4.622-3.149,7.085-4.423c1.083-0.559,2.414-0.137,2.971,0.945c0.56,1.082,0.137,2.412-0.945,2.972
							c-2.253,1.167-4.435,2.528-6.484,4.048C1330.718,1396.08,1330.257,1396.221,1329.8,1396.221z"/>
						<path style="fill:#363E44;" d="M1308.97,1376.38c-0.675,0-1.34-0.308-1.773-0.891c-0.726-0.978-0.52-2.359,0.458-3.084
							c3.433-2.546,7.161-4.658,11.082-6.278c2.18-0.901,4.447-1.66,6.738-2.255c1.184-0.305,2.382,0.402,2.688,1.58
							c0.307,1.178-0.4,2.382-1.579,2.688c-2.096,0.544-4.17,1.237-6.163,2.062c-3.586,1.482-6.997,3.414-10.139,5.745
							C1309.886,1376.239,1309.426,1376.38,1308.97,1376.38z"/>
					</g>
					<path style="fill:#ff6900;" d="M1295.702,1456.352c-45.613,41.465-144.219,116.879-169.311,77.495
						c-31.161-48.909,88.916-116.043,126.109-134.069C1252.533,1399.762,1295.702,1456.352,1295.702,1456.352z"/>
					<g>
						<path style="fill:#ff6900;" d="M1070.936,1498.104c0,0-38.974-27.763-78.18-26.025c-64.57,2.861-99.335,15.586-99.335,15.586
							l15.31,103.997l-15.31,115.709l176.98,6.147l-6.533-148.56L1070.936,1498.104z"/>
						<path style="fill:#363E44;" d="M1065.694,1608.623c-0.054,0-0.108-0.002-0.162-0.006c-1.214-0.088-2.127-1.145-2.039-2.359
							c1.724-23.635-1.928-82.097-3.323-86.54c-0.365-1.162,0.281-2.399,1.443-2.764c1.159-0.363,2.399,0.28,2.765,1.443
							c1.718,5.473,5.22,64.782,3.515,88.182C1067.806,1607.739,1066.839,1608.623,1065.694,1608.623z"/>
					</g>
					<path style="fill:#ff6900;" d="M908.731,1591.662c-53.447,10.527-133.602,18.188-140.384-16.069
						c-6.943-35.07,77.433-76.698,125.073-87.928C893.452,1487.657,908.731,1591.662,908.731,1591.662z"/>
					<g>
						<path style="fill:#EFBC73;" d="M772.906,1516.792c6.046-24.466,17.432-82.787,18.771-88.436
							c2.502-10.56,17.397-66.88,25.757-65.612c3.995,0.606,1.615,11.586,0.703,15.275c2.206-2.616,9.587-13.578,13.736-11.761
							c4.874,2.135-1.922,16.545-1.887,16.836c1.97-2.884,9.354-14.687,12.517-13.446c4.116,1.615,0.54,14.656-0.711,18.511
							c0.657-0.233,6.033-12.457,11.022-10.74c3.663,1.261,0.364,13.22-1.052,18.413c-2.215,9.384-20.54,101.707-26.853,121.778
							C822.438,1525.467,778.731,1529.044,772.906,1516.792z"/>
						<path style="fill:#363E44;" d="M810.578,1397.554c-0.143,0-0.29-0.014-0.436-0.044c-1.194-0.24-1.967-1.401-1.728-2.595
							c0.844-4.206,2.197-8.285,4.023-12.123c1.013-2.131,2.189-4.22,3.497-6.208c0.67-1.017,2.036-1.299,3.053-0.631
							c1.017,0.669,1.301,2.036,0.631,3.054c-1.196,1.82-2.273,3.731-3.198,5.68c-1.671,3.512-2.91,7.245-3.682,11.096
							C812.528,1396.83,811.608,1397.554,810.578,1397.554z"/>
						<path style="fill:#363E44;" d="M825.271,1397.938c-0.143,0-0.29-0.014-0.436-0.044c-1.194-0.24-1.967-1.401-1.728-2.595
							c0.844-4.206,2.197-8.285,4.023-12.123c0.219-0.463,0.445-0.919,0.673-1.363c0.554-1.082,1.883-1.513,2.967-0.956
							c1.084,0.556,1.511,1.885,0.956,2.968c-0.207,0.404-0.411,0.818-0.613,1.242c-1.672,3.515-2.911,7.247-3.683,11.098
							C827.221,1397.213,826.301,1397.938,825.271,1397.938z"/>
						<path style="fill:#363E44;" d="M839.421,1398.307c-0.143,0-0.288-0.014-0.435-0.044c-1.194-0.239-1.968-1.401-1.729-2.595
							c0.549-2.741,1.322-5.451,2.296-8.054c0.427-1.141,1.699-1.718,2.838-1.292c1.14,0.427,1.719,1.698,1.292,2.838
							c-0.892,2.383-1.6,4.864-2.103,7.375C841.37,1397.583,840.45,1398.307,839.421,1398.307z"/>
					</g>
					<path style="fill:#ff6900;" d="M841.595,1461.435c-3.294,54.374-14.481,143.31-54.49,133.198
						c-41.509-10.491-20.165-108.011-7.743-142.358C779.372,1452.245,841.595,1461.435,841.595,1461.435z"/>
					<path style="fill:#363E44;" d="M816.92,1581.192c-0.394,0-0.793-0.106-1.154-0.328c-1.037-0.638-1.36-1.997-0.721-3.034
						c8.866-14.398,15.623-38.459,20.087-71.517c0.164-1.208,1.275-2.052,2.48-1.89c1.207,0.163,2.053,1.273,1.89,2.48
						c-4.547,33.672-11.512,58.314-20.702,73.24C818.383,1580.819,817.661,1581.192,816.92,1581.192z"/>
				</g>
				<g>
					<g>
						<g>
							<rect x="964.916" y="1412.375" style="fill:#E2A18D;" width="49.187" height="75.29"/>
							<g>
								<path style="fill:#EFBC73;" d="M1008.62,1485.453c2.199,18.087,6.066,39.026,12.815,61.79
									c4.756,16.043,10.188,30.441,15.69,43.106c-5.448,3.787-14.35,8.985-26.377,11.993c-9.952,2.49-18.593,2.618-24.642,2.229
									c-3.435-14.087-6.407-30.549-7.868-49.027c-2.304-29.14-0.151-54.491,3.082-74.401
									C990.421,1482.579,999.521,1484.016,1008.62,1485.453z"/>
								<path style="fill:#EFBC73;" d="M995.21,1493.085c-2.558,21.72-3.977,47.239-2.552,75.704
									c1.005,20.06,3.262,38.393,6.093,54.724c-7.427,2.875-19.284,6.416-34.164,6.519c-12.314,0.086-22.429-2.213-29.375-4.379
									c-0.017-17.405,1.179-37.449,4.708-59.416c5.566-34.643,15.256-63.603,24.667-85.911
									C974.795,1484.579,985.003,1488.832,995.21,1493.085z"/>
								<path style="fill:#FFD092;" d="M995.879,1606.807c-1.091,0-2.039-0.809-2.183-1.92c-1.549-11.905-2.64-24.014-3.238-35.988
									c-1.266-25.282-0.404-50.877,2.563-76.072c0.142-1.209,1.237-2.073,2.448-1.932c1.209,0.143,2.073,1.238,1.931,2.448
									c-2.939,24.952-3.793,50.299-2.54,75.336c0.594,11.859,1.673,23.849,3.208,35.639c0.157,1.207-0.694,2.314-1.902,2.471
									C996.071,1606.802,995.974,1606.807,995.879,1606.807z"/>
								<path style="fill:#EFBC73;" d="M964.916,1443.75c5.201,8.4,14.132,12.865,28.725,14.248
									c19.229,1.821,31.288,0.092,39.055-2.198c7.868,9.64,4.505,25.118,0.792,31.864c-10.355,18.814-67.721,18.605-81.233-6.7
									C944.324,1466.111,957.473,1448.854,964.916,1443.75z"/>
								<path style="fill:#FFD092;" d="M998.05,1503.164c-13.404,0-28.345-3.164-38.86-11.074c-0.973-0.732-1.169-2.114-0.437-3.087
									c0.733-0.972,2.112-1.17,3.088-0.437c11.137,8.377,31.065,12.161,48.459,9.2c1.206-0.206,2.341,0.603,2.544,1.804
									c0.205,1.2-0.603,2.339-1.803,2.543C1007.052,1502.792,1002.64,1503.164,998.05,1503.164z"/>
								<path style="fill:#FFD092;" d="M998.304,1479.13c-0.082,0-0.164-0.004-0.247-0.013c-7.503-0.834-18.711-3.467-29.509-11.275
									c-5.439-3.934-10.182-8.743-14.097-14.296c-0.702-0.995-0.464-2.371,0.532-3.073c0.993-0.701,2.371-0.463,3.073,0.532
									c3.633,5.153,8.032,9.616,13.076,13.263c10.02,7.245,20.437,9.691,27.412,10.466c1.21,0.135,2.082,1.225,1.948,2.435
									C1000.366,1478.296,999.411,1479.13,998.304,1479.13z"/>
							</g>
							<path style="fill:#E2A18D;" d="M981.344,1344.745c2.416-0.819,25.671-8.329,43.655,3.838
								c13.382,9.053,18.201,23.619,22.432,49.296c4.982,30.237,3.569,49.061-3.941,57.053
								c-11.867,12.628-58.993,1.939-81.042-20.245c-15.916-16.013-20.362-40.462-12.678-61.886
								C957.432,1351.436,979.802,1345.268,981.344,1344.745z"/>
							<path style="fill:#363E44;" d="M1013.714,1462.63c-0.12,0-0.24-0.01-0.362-0.03c-9.53-1.577-19.447-4.712-28.681-9.066
								c-1.101-0.519-1.573-1.833-1.053-2.935c0.52-1.102,1.83-1.572,2.935-1.054c8.87,4.184,18.386,7.194,27.518,8.705
								c1.201,0.199,2.014,1.334,1.816,2.535C1015.708,1461.864,1014.774,1462.63,1013.714,1462.63z"/>
							<g>
								<path style="fill:#FFFFFF;" d="M1003.034,1399.554c0,0,4.642,10.594,13.579,13.388c8.938,2.794,18.787-3.271,18.787-3.271
									s-1.2-2.739-3.554-5.798c-2.276-2.958-11.158,3.734-11.158,3.734s-5.831-12.165-8.912-11.479
									C1006.794,1397.239,1003.034,1399.554,1003.034,1399.554z"/>
								<path style="fill:#363E44;" d="M1031.513,1405.298c0.147-0.472,0.25-0.946,0.332-1.421c-2.277-2.96-5.628-6.22-10.024-7.594
									c-3.419-1.069-6.968-0.837-10.051-0.149c-0.507,0.797-0.928,1.665-1.223,2.61c-1.809,5.79,1.417,11.95,7.207,13.76
									C1023.542,1414.314,1029.702,1411.088,1031.513,1405.298z"/>
							</g>
							<path style="fill:#363E44;" d="M982.422,1425.707c-0.468,0-0.94-0.148-1.34-0.455c-4.912-3.767-6.459-10.271-3.447-14.499
								c2.418-3.394,6.701-3.668,8.006-3.668c0.011,0,0.021,0,0.03,0c1.218,0.004,2.202,0.994,2.197,2.212
								c-0.004,1.216-0.99,2.198-2.205,2.198c-0.004,0-0.011,0-0.017,0c-0.366,0-3.167,0.059-4.42,1.817
								c-1.416,1.987-0.721,5.942,2.539,8.441c0.967,0.741,1.149,2.125,0.408,3.091
								C983.739,1425.41,983.084,1425.707,982.422,1425.707z"/>
							<path style="fill:#363E44;" d="M1045.256,1419.821c-0.492,0-0.987-0.164-1.397-0.5c-0.941-0.772-1.079-2.161-0.307-3.103
								c1.245-1.518,1.429-2.407,1.341-2.693c-0.044-0.144-0.348-0.376-0.841-0.74c-0.62-0.458-1.392-1.027-2.196-1.939
								c-1.436-1.631-2.366-3.678-2.765-6.085c-0.198-1.201,0.615-2.336,1.816-2.535c1.211-0.205,2.336,0.615,2.535,1.816
								c0.261,1.579,0.84,2.887,1.723,3.889c0.492,0.558,0.984,0.921,1.505,1.306c0.875,0.646,1.965,1.45,2.438,2.997
								c0.616,2.011-0.107,4.292-2.147,6.781C1046.526,1419.546,1045.893,1419.821,1045.256,1419.821z"/>
							<path style="fill:#363E44;" d="M1032.559,1433.425c-0.807,0-1.611-0.06-2.402-0.181c-4.459-0.678-7.515-3.088-8.94-4.463
								c-0.875-0.846-0.9-2.242-0.054-3.118c0.847-0.875,2.242-0.899,3.118-0.055c1.047,1.011,3.289,2.782,6.539,3.276
								c1.747,0.266,3.581,0.124,5.305-0.41c1.159-0.362,2.399,0.289,2.758,1.453c0.361,1.163-0.29,2.398-1.453,2.758
								C1035.851,1433.177,1034.2,1433.425,1032.559,1433.425z"/>
						</g>
						<g>
							<path style="fill:#363E44;" d="M946.097,1378.891c9.56-40.616,50.93-43.722,69.857-37.187
								c27.592,9.527,38.436,30.056,39.025,32.278c-11.767,0.799-27.495,3.959-37.673,8.414l-14.688-14.897l7.568,18.708
								c-7.505,4.682-16.146,11.828-19.037,17.197c-0.723-0.558-6.732-3.989-12.404-2.182c-6.876,2.191-9.912,9.974-8.042,16.644
								c2.591,9.241,10.321,15.341,11.968,16.457c-11.278,6.263-13.497,4.486-17.755,2.646
								C960.319,1434.981,945.107,1383.101,946.097,1378.891z"/>
						</g>
					</g>
					<g>
						<path style="fill:#E0AA63;" d="M1036.465,1348.694c-22.753-21.903-83.179-17.021-90.367-14.693
							c-2.751,8.788-13.407,51.907,4.456,84.797c8.234-12.8,20.605-29.042,38.561-44.799
							C1001.89,1362.789,1025.832,1354.679,1036.465,1348.694z"/>
						<path style="fill:#EFBC73;" d="M964.916,1436.968c2.651-10.176,8.512-26.869,22.213-42.979
							c24.098-28.334,47.742-32.194,57.921-33.974c0-6.997-7.31-20.969-21.486-20.969c-12.438,4.133-32.315,9.54-52.809,31.552
							c-17.012,18.271-19.56,28.859-23.007,41.266C946.051,1422.697,956.159,1435.401,964.916,1436.968z"/>
						
							<ellipse transform="matrix(0.1602 -0.9871 0.9871 0.1602 -522.8197 2045.0652)" style="fill:#EFBC73;" cx="940.433" cy="1329.783" rx="18.027" ry="18.027"/>
						<path style="fill:#363E44;" d="M933.964,1329.422c-0.399,0-0.803-0.109-1.167-0.336l-11.56-7.23
							c-1.033-0.646-1.346-2.006-0.7-3.039c0.645-1.032,2.003-1.346,3.038-0.7l11.56,7.23c1.032,0.646,1.346,2.006,0.7,3.039
							C935.418,1329.054,934.7,1329.422,933.964,1329.422z"/>
						<path style="fill:#363E44;" d="M928.186,1334.055h-8.68c-1.218,0-2.205-0.987-2.205-2.205c0-1.218,0.987-2.205,2.205-2.205
							h8.68c1.218,0,2.205,0.987,2.205,2.205C930.391,1333.068,929.404,1334.055,928.186,1334.055z"/>
					</g>
				</g>
			</g>
			<g>
				<path style="fill:#FFFFFF;" d="M708.671,1174.981c36.091,31.83,124.797,102.583,133.18,109.834
					c15.672,13.555,98.302,78.133,82.52,92.744c-7.442,6.889-44.26-25.079-52.512-32.163c7.896,9.599,20.229,21.755,9.911,29.93
					c-10.619,8.413-28.61-12.498-29.134-12.695c4.136,5.143,21.4,23.719,10.838,33.473c-10.171,9.392-23.801-15.524-29.664-19.601
					c4.418,7.196,25.917,31.662,19.276,37.777c-8.898,8.193-35.417-24.611-41.068-27.666c-13.934-12.033-38.72-27.237-67.258-47.231
					c-67.024-46.958-94.94-70.709-123.209-99.255C610.587,1229.053,674.627,1173.732,708.671,1174.981z"/>
				<path style="fill:#D87355;" d="M831.079,1253.95c0,0-258.495-241.281-324.702-136.452
					c-61.192,96.89,235.255,259.662,235.255,259.662L831.079,1253.95z"/>
				<path style="fill:#FFFFFF;" d="M741.631,1379.365c-0.361,0-0.724-0.088-1.06-0.272c-0.363-0.199-36.854-20.3-80.964-50.047
					c-1.01-0.681-1.276-2.051-0.595-3.061c0.683-1.009,2.051-1.277,3.061-0.595c38.565,26.007,71.253,44.597,78.923,48.893
					l87.146-120.042c-13.175-12.075-114.315-103.384-201.681-142.732c-1.11-0.5-1.605-1.806-1.105-2.916
					c0.5-1.11,1.805-1.606,2.915-1.105c93.848,42.267,203.217,143.828,204.311,144.849c0.814,0.76,0.935,2.006,0.28,2.907
					l-89.447,123.21C742.989,1379.045,742.317,1379.365,741.631,1379.365z"/>
			</g>
		</g>
		<g>
			<g>
				<path style="fill:#363E44;" d="M1684.689,1585.757c-0.775,0-1.527-0.409-1.929-1.135c-0.592-1.064-0.208-2.407,0.856-2.998
					l50.5-28.055l149.79-144.158c0.877-0.845,2.275-0.818,3.118,0.06c0.844,0.877,0.817,2.273-0.06,3.117l-150.203,144.557
					l-51.002,28.335C1685.419,1585.667,1685.051,1585.757,1684.689,1585.757z"/>
				<path style="fill:#363E44;" d="M1743.33,1593.652c-1.014,0-1.926-0.703-2.152-1.734l-6.637-30.341l-16.342,29.802
					c-0.588,1.067-1.925,1.458-2.994,0.873c-1.067-0.585-1.459-1.925-0.873-2.993l19.173-34.961
					c0.441-0.806,1.335-1.253,2.248-1.122c0.91,0.131,1.643,0.813,1.84,1.711l7.895,36.09c0.26,1.19-0.493,2.365-1.683,2.625
					C1743.644,1593.635,1743.486,1593.652,1743.33,1593.652z"/>
			</g>
			<g>
				<path style="fill:#363E44;" d="M2120.837,1589.634c-0.027,0-0.054-0.001-0.081-0.002c-1.218-0.044-2.168-1.066-2.124-2.284
					l1.117-30.755l-111.564-138.603c-0.764-0.948-0.614-2.336,0.335-3.1c0.944-0.763,2.335-0.615,3.099,0.335l112.596,139.884
					l-1.176,32.4C2122.997,1588.699,2122.018,1589.634,2120.837,1589.634z"/>
				<path style="fill:#363E44;" d="M2141.656,1575.305c-0.491,0-0.984-0.163-1.393-0.497l-19.756-16.124
					c-0.759-0.619-1.018-1.664-0.636-2.567c0.381-0.903,1.314-1.439,2.284-1.332l33.635,3.904c1.21,0.141,2.077,1.235,1.936,2.444
					c-0.14,1.21-1.238,2.07-2.444,1.936l-26.146-3.034l13.915,11.356c0.943,0.77,1.084,2.159,0.314,3.102
					C2142.93,1575.028,2142.296,1575.305,2141.656,1575.305z"/>
			</g>
			<g>
				<circle style="fill:#FFFFFF;" cx="1949.639" cy="1686.478" r="163.232"/>
				<path style="fill:#E6D0BE;" d="M1954.548,1844.551c-91.222,0-165.437-74.215-165.437-165.436
					c0-91.222,74.214-165.437,165.437-165.437c91.222,0,165.437,74.215,165.437,165.437
					C2119.985,1770.336,2045.77,1844.551,1954.548,1844.551z M1954.548,1518.087c-88.79,0-161.027,72.236-161.027,161.027
					c0,88.79,72.237,161.027,161.027,161.027s161.027-72.236,161.027-161.027
					C2115.575,1590.323,2043.338,1518.087,1954.548,1518.087z"/>
				<circle style="fill:#FFFFFF;" cx="1944.757" cy="1492.231" r="107.141"/>
				<path style="fill:#E6D0BE;" d="M1951.979,1601.577c-60.293,0-109.345-49.052-109.345-109.345
					c0-60.293,49.052-109.346,109.345-109.346c60.293,0,109.345,49.052,109.345,109.346
					C2061.324,1552.525,2012.273,1601.577,1951.979,1601.577z M1951.979,1387.296c-57.861,0-104.936,47.074-104.936,104.936
					c0,57.861,47.074,104.936,104.936,104.936s104.936-47.074,104.936-104.936
					C2056.915,1434.37,2009.841,1387.296,1951.979,1387.296z"/>
				<circle style="fill:#FFFFFF;" cx="1942.904" cy="1343.527" r="77.768"/>
				<path style="fill:#E6D0BE;" d="M1947.872,1424.614c-44.097,0-79.973-35.876-79.973-79.973s35.876-79.973,79.973-79.973
					c44.096,0,79.972,35.876,79.972,79.973S1991.969,1424.614,1947.872,1424.614z M1947.872,1269.078
					c-41.665,0-75.563,33.897-75.563,75.563c0,41.665,33.898,75.563,75.563,75.563c41.666,0,75.563-33.898,75.563-75.563
					C2023.435,1302.976,1989.538,1269.078,1947.872,1269.078z"/>
			</g>
			<g>
				<path style="fill:#D87355;" d="M2018.104,1295.421c0,0-62.068,10.748-110.635-20.949l59.805-89.717l9.046-13.361
					c25.028-20.606,57.684,5.575,64.279,34.984c-24.575-8.21-33.098-19.232-28.686,3.735l1.937,26.711L2018.104,1295.421z"/>
				<g>
					
						<ellipse transform="matrix(0.9105 -0.4134 0.4134 0.9105 -317.3721 952.6138)" style="fill:#FFFFFF;" cx="2042.507" cy="1209.655" rx="17.152" ry="17.152"/>
				</g>
				<g>
					<path style="fill:#E6D0BE;" d="M2043.152,1228.454c-5.246,0-10.475-2.114-14.288-6.28c-7.205-7.874-6.662-20.142,1.211-27.348
						c3.815-3.49,8.75-5.284,13.925-5.058c5.166,0.229,9.933,2.456,13.423,6.27c3.49,3.814,5.287,8.759,5.059,13.924
						c-0.228,5.166-2.454,9.933-6.269,13.424C2052.505,1226.779,2047.821,1228.454,2043.152,1228.454z M2043.128,1194.158
						c-3.742,0-7.298,1.379-10.076,3.921c-6.081,5.564-6.5,15.038-0.936,21.118c5.565,6.082,15.042,6.499,21.118,0.935
						c2.946-2.695,4.665-6.377,4.841-10.365c0.177-3.989-1.211-7.807-3.907-10.753c-2.695-2.946-6.377-4.665-10.364-4.841
						C2043.578,1194.163,2043.353,1194.158,2043.128,1194.158z"/>
				</g>
				<path style="fill:#FFFFFF;" d="M2010.06,1309.144l-107.935-22.452c-6.326-1.316-10.387-7.511-9.071-13.836l1.092-5.248
					c1.316-6.326,7.51-10.387,13.836-9.071l107.935,22.452c6.326,1.316,10.387,7.511,9.071,13.836l-1.092,5.249
					C2022.581,1306.399,2016.386,1310.46,2010.06,1309.144z"/>
				<path style="fill:#E6D0BE;" d="M2014.727,1312.163c-0.951,0-1.909-0.098-2.86-0.296l-107.935-22.452
					c-7.506-1.562-12.342-8.938-10.781-16.444l1.092-5.248c0.756-3.636,2.883-6.76,5.989-8.796c3.106-2.036,6.82-2.74,10.455-1.985
					l107.936,22.452c7.506,1.562,12.342,8.938,10.781,16.444l-1.093,5.249c-0.756,3.636-2.883,6.759-5.989,8.796
					C2020.029,1311.385,2017.406,1312.163,2014.727,1312.163z M1907.835,1261.057c-1.83,0-3.62,0.531-5.186,1.557
					c-2.121,1.39-3.573,3.523-4.09,6.006l-1.092,5.248c-1.066,5.126,2.237,10.163,7.362,11.229l107.935,22.452l0,0
					c2.486,0.517,5.019,0.034,7.139-1.355c2.121-1.39,3.573-3.523,4.09-6.006l1.093-5.249c1.066-5.125-2.237-10.162-7.362-11.229
					l-107.936-22.452C1909.138,1261.123,1908.485,1261.057,1907.835,1261.057z"/>
			</g>
			<g>
				<circle style="fill:#363E44;" cx="1904.606" cy="1321.903" r="7.331"/>
				
					<ellipse transform="matrix(0.2298 -0.9732 0.9732 0.2298 216.0433 2925.8115)" style="fill:#363E44;" cx="1956.485" cy="1326.414" rx="7.331" ry="7.331"/>
				<path style="fill:#D87355;" d="M1924.343,1338.82l-76.69,21.428l77.818,7.895
					C1936.749,1364.196,1935.816,1343.485,1924.343,1338.82z"/>
				<path style="fill:#EFBC73;" d="M1924.35,1390.094c-5.2,0-10.616-0.581-16.243-1.747c-1.193-0.247-1.959-1.414-1.712-2.606
					c0.246-1.192,1.417-1.96,2.605-1.712c22.012,4.558,39.807-0.052,54.415-14.092c0.876-0.845,2.272-0.817,3.118,0.062
					c0.843,0.878,0.816,2.273-0.063,3.117C1954.717,1384.413,1940.598,1390.094,1924.35,1390.094z"/>
			</g>
			<g>
				
					<ellipse transform="matrix(0.9239 -0.3827 0.3827 0.9239 -405.877 852.5637)" style="fill:#D87355;" cx="1940.129" cy="1446.525" rx="8.459" ry="8.458"/>
				
					<ellipse transform="matrix(0.7071 -0.7071 0.7071 0.7071 -491.6118 1809.9561)" style="fill:#D87355;" cx="1939.004" cy="1498.406" rx="8.458" ry="8.458"/>
				
					<ellipse transform="matrix(0.9239 -0.3827 0.3827 0.9239 -447.0061 860.074)" style="fill:#D87355;" cx="1938.443" cy="1553.665" rx="8.459" ry="8.458"/>
			</g>
		</g>
	</g>
</g>
</svg>
