<?xml version="1.0" encoding="utf-8"?>
<!-- Generator: Adobe Illustrator 27.5.0, SVG Export Plug-In . SVG Version: 6.00 Build 0)  -->
<svg version="1.1" xmlns="http://www.w3.org/2000/svg" xmlns:xlink="http://www.w3.org/1999/xlink" x="0px" y="0px"
	 viewBox="0 0 2500 2500" style="enable-background:new 0 0 2500 2500;" xml:space="preserve">
-
<g id="Illustration">
	<g id="Cloud_engineering_1_">
		<circle style="fill:transparent;" cx="1250" cy="1250" r="915"/>
		<g>
			<g>
				<path style="fill:#FFFFFF;" d="M778.151,1837.847l16.009,3.147c-0.1,8.086,0.453,16.076,1.611,23.914l-15.427,5.276
					l17.866,52.246l15.462-5.288c3.923,6.967,8.388,13.617,13.352,19.886l-10.747,12.31l41.595,36.313l10.722-12.282
					c6.817,4.039,14.003,7.575,21.526,10.543l-3.147,16.009l54.179,10.65l3.147-16.009c8.086,0.1,16.076-0.452,23.914-1.611
					l5.275,15.427l52.246-17.866l-5.287-15.462c6.967-3.923,13.617-8.388,19.885-13.352l12.31,10.747l36.313-41.596l-12.282-10.722
					c4.039-6.816,7.575-14.003,10.542-21.525l16.009,3.147l10.65-54.179l-16.009-3.147c0.101-8.086-0.452-16.076-1.61-23.914
					l15.427-5.275l-17.866-52.246l-15.462,5.288c-3.923-6.967-8.388-13.617-13.352-19.886l10.747-12.31l-41.596-36.313
					l-10.722,12.283c-6.816-4.039-14.003-7.576-21.525-10.543l3.147-16.009l-54.179-10.65l-3.147,16.009
					c-8.086-0.101-16.076,0.452-23.914,1.611l-5.275-15.427l-52.246,17.866l5.287,15.462c-6.967,3.923-13.617,8.388-19.886,13.352
					l-12.31-10.747l-36.313,41.596l12.282,10.722c-4.039,6.817-7.575,14.003-10.543,21.525l-16.009-3.147L778.151,1837.847z
					 M966.592,1753.55c46.714,10.742,77.475,56.555,69.734,103.86c-8.547,52.235-59.309,86.318-110.892,74.457
					c-46.714-10.742-77.475-56.555-69.734-103.86C864.247,1775.771,915.009,1741.688,966.592,1753.55z"/>
			</g>
		</g>
		<g>
			<g>
				<g>
					<polygon style="fill:#E2A18D;" points="557.433,2047.124 425.657,2047.124 407.766,1883.83 539.541,1883.83 					"/>
					<path style="fill:#E6D0BE;" d="M541.633,2040.405h-121.24l5.678,119.807h307.052l-9.432-15.951
						C685.632,2079.892,616.412,2040.405,541.633,2040.405z"/>
				</g>
				<g>
					<polygon style="fill:#E2A18D;" points="903.515,2047.124 771.74,2047.124 735.416,1887.213 867.192,1887.213 					"/>
					<path style="fill:#FFFFFF;" d="M887.716,2040.405h-121.24l15.441,119.807h297.289l-9.432-15.951
						C1031.714,2079.892,962.495,2040.405,887.716,2040.405z"/>
				</g>
				<path style="fill:#ff6900;" d="M363.184,1288.154l0.224,668.816h242.209c0,0-44.76-529.942-42.101-593.262h30.099
					l121.615,595.021H955.65c0,0-158.409-538.118-201.246-695.88C754.404,1262.849,613.724,1078.45,363.184,1288.154z"/>
			</g>
			<g>
				<g>
					<path style="fill:#E2A18D;" d="M838.179,831.633c-23.121,4.765-57.95-51.091-57.95-51.091l-2.282-72.083
						c13.368-30.4,48.849-44.206,79.249-30.837c30.4,13.369,44.206,48.849,30.837,79.249
						C888.033,756.87,861.728,826.78,838.179,831.633z"/>
					<path style="fill:#E2A18D;" d="M745.601,881.952c17.5,5.182,36.133-3.393,43.579-20.056l55.737-124.724l-66.699-29.332
						l-55.526,124.355C713.717,852.296,724.494,875.702,745.601,881.952z"/>
					<path style="fill:#E2A18D;" d="M875.342,768.562c0,0,8.325,22.965,5.626,26.874c-3.222,4.666-21.787,0.213-21.787,0.213
						S875.736,768.781,875.342,768.562z"/>
					<g>
						<path style="fill:#FFFFFF;" d="M826.704,744.362c0,0,11.395-0.904,22.503,3.982c2.363,1.039-10.413,17.991-12.185,15.934
							C829.229,755.231,826.704,744.362,826.704,744.362z"/>
						<g>
							<defs>
								<path id="SVGID_1_" d="M826.704,744.362c0,0,16.759-1.329,29.441,7.951c12.682,9.28,16.486,25.656,16.486,25.656
									s-16.759,1.329-29.441-7.951C830.508,760.737,826.704,744.362,826.704,744.362z"/>
							</defs>
							<clipPath id="SVGID_00000147934965469903498010000003158784552051191974_">
								<use xlink:href="#SVGID_1_"  style="overflow:visible;"/>
							</clipPath>
							<path style="clip-path:url(#SVGID_00000147934965469903498010000003158784552051191974_);fill:#363E44;" d="M849.891,748.064
								c10.578-4.116,22.49,1.122,26.606,11.7c4.116,10.578-1.122,22.49-11.7,26.606c-10.578,4.116-22.49-1.122-26.606-11.7
								C834.075,764.092,839.313,752.18,849.891,748.064z"/>
						</g>
					</g>
					<path style="fill:#363E44;" d="M844.786,802.11c-3.555,0-6.929-1.776-8.908-4.791c-2.205-3.359-2.305-7.775-0.256-11.255
						c0.619-1.049,1.967-1.395,3.02-0.779c1.049,0.618,1.398,1.97,0.781,3.019c-1.204,2.041-1.148,4.631,0.142,6.595
						c1.339,2.041,3.777,3.109,6.204,2.724c1.208-0.202,2.333,0.629,2.523,1.832c0.19,1.201-0.63,2.332-1.832,2.521
						C845.9,802.067,845.34,802.11,844.786,802.11z"/>
					<path style="fill:#363E44;" d="M819.924,829.481c-0.422,0-0.848-0.121-1.225-0.372c-20.03-13.425-39.92-45.108-40.758-46.45
						c-0.644-1.034-0.328-2.394,0.704-3.038c1.033-0.642,2.392-0.327,3.038,0.704c0.2,0.321,20.231,32.226,39.47,45.119
						c1.012,0.678,1.282,2.048,0.604,3.06C821.332,829.138,820.634,829.481,819.924,829.481z"/>
				</g>
				<g>
					<path style="fill:#B77250;" d="M752.019,734.348c-7.761-17.386,14.419-51.656,39.243-64.591
						c32.004-16.676,74.845-6.185,97.397,16.494c5.544,5.575,16.71,20.084,14.015,32.445c-2.099,9.624-20.52,17.685-35.274,11.969
						c-20.745-8.037-40.046-30.806-47.25-5.507C798.32,801.82,760.547,753.452,752.019,734.348z"/>
				</g>
				<g>
					<g>
						<path style="fill:#B77250;" d="M491.804,666.338c-52.016,18.515-87.1-50.36-96.141-72.794
							c-0.893-2.215-0.856,45.762-0.616,92.292c10.778,23.998,61.727,21.885,58.306,22.108
							c-14.288,2.139-39.873,7.719-58.028,21.544c0.175,23.676,0.338,40.888,0.338,40.888
							c16.446-21.372,68.098-23.139,68.098-23.139c-46.933,4.011-90.284,121.467,4.672,163.946
							C583.275,962.556,633.95,804.15,676.66,739.315c42.709-64.835,96.428-18.6,96.428-18.6l13.046-46.36
							C675.458,514.506,553.686,644.311,491.804,666.338z"/>
						<path style="fill:#84524D;" d="M507.254,888.134c-20.902,0.002-41.969-9.765-54.076-26.994
							c-17.643-25.108-13.922-62.76,8.293-83.93c0.882-0.84,2.276-0.812,3.118,0.075c0.84,0.881,0.806,2.276-0.075,3.116
							c-20.699,19.727-24.166,54.808-7.727,78.202c16.437,23.396,50.618,32.024,76.192,19.236
							c18.479-9.241,32.651-27.593,44.602-57.752c5.375-13.565,9.899-27.748,14.273-41.463
							c5.264-16.504,10.709-33.572,17.699-49.789c15.45-35.843,36.253-60.643,61.832-73.711
							c27.233-13.918,68.438-13.847,91.16,13.692c0.775,0.941,0.642,2.33-0.298,3.105c-0.937,0.775-2.328,0.642-3.104-0.297
							c-21.256-25.767-60.048-25.706-85.751-12.572c-24.641,12.587-44.756,36.653-59.789,71.527
							c-6.905,16.019-12.316,32.982-17.548,49.385c-4.397,13.787-8.944,28.043-14.374,41.747
							c-12.374,31.229-27.223,50.317-46.73,60.073C526.338,886.091,516.812,888.134,507.254,888.134z"/>
					</g>
				</g>
			</g>
			<g>
				<g>
					<path style="fill:#E2A18D;" d="M365.909,1078.165c0,0,17.604-111.73,131.327-169.211l86.601,115.538L365.909,1078.165z"/>
					<path style="fill:#363E44;" d="M564.571,1041.187L457.393,913.723c0,0,77.849-49.735,161.477-54.497L564.571,1041.187z"/>
				</g>
				<path style="fill:#E2A18D;" d="M805.985,1029.055c36.468,34.534,115.479,4.129,143.685-37.427l120.812-180.049l43.393-95.884
					c-42.338-15.395-89.728-5.896-122.863,24.626L831.015,909.166C746.384,1003.407,771.869,996.749,805.985,1029.055z"/>
				<path style="fill:#363E44;" d="M887.622,844.14c0,0-64.111,20.976-107.199,62.197l47.153,162.976l142.572-69.694L887.622,844.14
					z"/>
				<g>
					<path style="fill:#363E44;" d="M338.326,1308.912l470.518,13.964l37.095-373.479l-7.867-77.732c0,0-49.774-56.067-262.86-6.163
						l8.93,56.22C584.142,921.722,401.256,1191.576,338.326,1308.912z"/>
					<path style="fill:#363E44;" d="M678.587,855.13l5.762-36.1c0,0,80.902,4.684,148.722,28.44l-10.037,32.492L678.587,855.13z"/>
				</g>
			</g>
		</g>
		<g>
			<g>
				<path style="fill:#D3BBA3;" d="M1631.132,1996.017h-105.134l-0.002-30.138c-13.201-2.517-26.318-6.027-39.039-10.443
					l-15.059,26.085l-91.05-52.569l15.094-26.141c-10.159-8.796-19.751-18.388-28.553-28.555l-26.144,15.096l-52.567-91.052
					l26.083-15.059c-4.42-12.732-7.928-25.846-10.441-39.039h-30.138v-105.134l30.138-0.002c2.513-13.188,6.02-26.303,10.441-39.039
					l-26.083-15.059l52.567-91.05l26.144,15.094c8.798-10.163,18.39-19.755,28.553-28.553l-15.094-26.143l91.05-52.567
					l15.059,26.083c12.734-4.418,25.846-7.928,39.039-10.443v-30.135h105.136v30.135c13.194,2.517,26.309,6.025,39.039,10.443
					l15.059-26.083l91.05,52.567l-15.094,26.143c10.167,8.802,19.759,18.394,28.555,28.553l26.141-15.094l52.569,91.05
					l-26.085,15.059c4.416,12.721,7.926,25.838,10.443,39.039h30.138v105.136h-30.138c-2.517,13.205-6.027,26.32-10.443,39.039
					l26.085,15.059l-52.569,91.052l-26.141-15.096c-8.8,10.165-18.39,19.757-28.555,28.555l15.094,26.141l-91.05,52.569
					l-15.059-26.085c-12.719,4.416-25.833,7.926-39.039,10.443V1996.017z M1530.406,1991.608h96.317v-29.395l1.806-0.332
					c14.187-2.607,28.284-6.378,41.9-11.207l1.729-0.614l14.687,25.437l83.411-48.159l-14.719-25.491l1.395-1.193
					c10.97-9.37,21.282-19.682,30.652-30.652l1.193-1.395l25.491,14.721l48.159-83.413l-25.437-14.687l0.614-1.729
					c4.829-13.616,8.6-27.713,11.207-41.9l0.332-1.807h29.395v-96.317h-29.395l-0.332-1.807c-2.605-14.183-6.378-28.279-11.207-41.9
					l-0.614-1.729l25.437-14.687l-48.159-83.411l-25.491,14.719l-1.193-1.395c-9.364-10.964-19.677-21.277-30.652-30.65
					l-1.395-1.191l14.719-25.495l-83.411-48.157l-14.687,25.435l-1.729-0.614c-13.629-4.832-27.726-8.602-41.9-11.207l-1.806-0.332
					v-29.392h-96.314l-0.002,29.392l-1.807,0.332c-14.17,2.603-28.266,6.375-41.9,11.207l-1.729,0.614l-14.687-25.435
					l-83.411,48.157l14.719,25.495l-1.395,1.191c-10.968,9.368-21.282,19.682-30.65,30.65l-1.191,1.395l-25.495-14.719
					l-48.157,83.411l25.435,14.687l-0.614,1.729c-4.834,13.638-8.604,27.735-11.205,41.9l-0.332,1.807h-29.395v96.317h29.395
					l0.332,1.807c2.601,14.17,6.371,28.266,11.205,41.9l0.614,1.729l-25.435,14.687l48.157,83.413l25.493-14.721l1.193,1.395
					c9.373,10.975,19.686,21.288,30.65,30.652l1.395,1.193l-14.719,25.491l83.411,48.159l14.687-25.437l1.729,0.614
					c13.621,4.829,27.717,8.602,41.9,11.207l1.807,0.332V1991.608z M1578.759,1860.031c-44.536,0-87.138-16.969-119.379-49.21
					c-47.81-47.811-62.043-118.431-37.142-184.3c15.905-42.066,49.152-75.313,91.218-91.214
					c65.865-24.897,136.486-10.667,184.298,37.146c47.808,47.811,62.036,118.429,37.135,184.298
					c-15.903,42.064-49.15,75.311-91.216,91.211C1622.227,1856.069,1600.263,1860.031,1578.759,1860.031z M1578.35,1527.657
					c-20.98,0-42.402,3.863-63.335,11.776c-40.884,15.453-73.196,47.763-88.651,88.647
					c-24.281,64.226-10.434,133.056,36.134,179.624c46.566,46.57,115.393,60.419,179.617,36.134
					c40.882-15.453,73.194-47.763,88.649-88.645c24.281-64.226,10.439-133.054-36.13-179.622
					C1663.246,1544.18,1621.742,1527.657,1578.35,1527.657z M1732.827,1755.972h0.022H1732.827z"/>
			</g>
			<path style="fill:#D3BBA3;" d="M1578.565,1914.178c-122.71,0-222.542-99.833-222.542-222.542
				c0-53.615,19.335-105.411,54.447-145.845c34.763-40.029,82.625-66.388,134.772-74.219c1.21-0.159,2.325,0.653,2.508,1.854
				c0.181,1.203-0.65,2.328-1.854,2.508c-105.732,15.875-185.463,108.609-185.463,215.702c0,120.279,97.854,218.133,218.133,218.133
				c99.38,0,186.208-67.096,211.148-163.165c0.306-1.18,1.509-1.897,2.687-1.58c1.18,0.306,1.886,1.509,1.58,2.687
				C1768.537,1845.724,1679.955,1914.178,1578.565,1914.178z"/>
		</g>
		<g>
			<g>
				<g>
					<path style="fill:#EFBC73;" d="M1578.067,796.087c-4.596,7.601-146.077,18.686-231.829,24.733
						c-38.612,2.723-74.781-19.035-90.473-54.42c-15.566-35.099-1.164-76.251,32.89-93.986l196.726-102.448L1578.067,796.087z"/>
					<g>
						<path style="fill:#EFBC73;" d="M1996.874,944.531c53.251,9.857,102.005-32.002,100.271-86.13
							c-1.862-58.097-33.785-156.272-106.943-267.786c-44.252-67.452-125.377-100.847-204.306-84.164l-300.516,63.517
							l75.361,259.779l331.33,85.263L1996.874,944.531z"/>
						<path style="fill:#363E44;" d="M1889.535,763.767c-0.947,0-1.822-0.614-2.11-1.568l-23.844-78.839
							c-0.353-1.165,0.306-2.394,1.473-2.747c1.156-0.353,2.394,0.308,2.748,1.473l23.844,78.839
							c0.353,1.165-0.306,2.394-1.473,2.747C1889.962,763.737,1889.746,763.767,1889.535,763.767z"/>
						<path style="fill:#363E44;" d="M1886.428,799.418c-0.359,0-0.726-0.088-1.061-0.273c-1.068-0.588-1.456-1.929-0.868-2.995
							c41.827-75.868,137.864-41.429,138.828-41.071c1.141,0.422,1.725,1.69,1.303,2.833c-0.42,1.143-1.692,1.723-2.831,1.305
							c-0.926-0.349-93.457-33.46-133.437,39.06C1887.959,799.007,1887.206,799.418,1886.428,799.418z"/>
						<path style="fill:#363E44;" d="M1556.147,806.123c-0.945,0-1.819-0.612-2.11-1.563l-28.568-93.761l-36.677-37.678
							c-0.849-0.872-0.831-2.267,0.043-3.118c0.87-0.851,2.267-0.831,3.118,0.043l37.049,38.061c0.245,0.252,0.426,0.558,0.53,0.896
							l28.725,94.273c0.353,1.165-0.304,2.396-1.469,2.752C1556.575,806.093,1556.358,806.123,1556.147,806.123z"/>
					</g>
				</g>
				<g>
					<path style="fill:#84524D;" d="M1413.917,699.589c0,0-41.346-115.78-65.975-180.872
						c-25.866-68.36-74.008-165.523-87.513-158.613c-7.692,3.935-3.867,18.544,8.955,56.911c-2.588-1.292-11.394-3.265-17.931,1.556
						c-9.672,7.133-6.054,16.531-6.129,17.507c-0.842-0.509-10.744-5.794-18.028-2.115c-8.204,4.144-10.424,11.623-9.98,18.823
						c-2.129-1.198-11.994-4.785-18.81-0.9c-8.862,5.05-9.021,16.34-5.925,24.172c5.68,14.366,22.179,53.235,28.278,74.905
						c12.004,42.643,20.813,219.885,81.354,246.731C1347.835,817.925,1418.922,768.859,1413.917,699.589z"/>
					<path style="fill:#363E44;" d="M1221.83,498.418c-5.647,0-12.093-3.215-17.305-11.285c-0.661-1.023-0.367-2.388,0.656-3.049
						c1.021-0.659,2.389-0.368,3.048,0.655c6.316,9.777,13.725,10.507,18.149,8.163c4.166-2.207,5.019-9.007,3.438-14.305
						c-0.351-1.171,0.196-2.401,1.299-2.92c1.102-0.521,2.396-0.157,3.078,0.859c4.705,7.049,12.096,9.467,18.39,6.014
						c4.694-2.571,6.922-11.648,4.496-18.325c-0.375-1.033,0.144-2.388,1.115-2.905c1.051-0.553,2.33-0.263,3.034,0.702
						c5.038,7.069,15.018,10.096,19.355,7.527c2.442-1.44,3.964-3.482,4.651-6.238c2.896-11.582-9.444-31.819-16.073-42.69
						l-1.378-2.267c-0.631-1.042-0.297-2.399,0.745-3.027c1.046-0.633,2.399-0.295,3.027,0.745l1.372,2.252
						c7.452,12.225,19.927,32.685,16.586,46.058c-0.975,3.904-3.225,6.92-6.686,8.966c-4.872,2.872-13.606,1.589-20.345-3.703
						c0.153,7.045-2.834,14.064-7.779,16.773c-6.468,3.546-13.95,2.459-19.753-2.437c-0.075,5.264-2.038,10.451-6.506,12.82
						C1226.489,497.836,1224.231,498.418,1221.83,498.418z M1261.224,462.714c0,0.002,0.002,0.004,0.002,0.006
						C1261.226,462.718,1261.224,462.716,1261.224,462.714z"/>
					<path style="fill:#84524D;" d="M1264.591,445.363c6.491-7.608,40.166,11.151,46.413,14.681l-16.909,37.411
						C1291.372,494.317,1256.967,454.299,1264.591,445.363z"/>
					<path style="fill:#363E44;" d="M1294.094,499.66c-0.616,0-1.229-0.258-1.664-0.76c-11.584-13.352-37.648-45.436-29.515-54.97
						c6.475-7.581,30.312,3.533,49.174,14.196c1.059,0.599,1.434,1.944,0.833,3.004c-0.601,1.059-1.946,1.432-3.004,0.833
						c-26.234-14.826-41.013-18.261-43.649-15.169c-4.1,4.804,11.776,28.796,29.489,49.217c0.799,0.919,0.7,2.313-0.22,3.109
						C1295.121,499.483,1294.607,499.66,1294.094,499.66z"/>
				</g>
			</g>
			<g>
				<g>
					<path style="fill:#84524D;" d="M1652.101,558.402l67.522-30.858l-85.272-111.285c-7.479-11.07-25.892,7.905-36.961,15.384
						c-11.07,7.48-13.98,22.517-6.502,33.586L1652.101,558.402z"/>
					<polygon style="fill:#84524D;" points="1672.934,580.297 1737.147,517.399 1665.034,518.724 1632.844,562.052 					"/>
				</g>
				<g>
					<path style="fill:#84524D;" d="M1562.873,511.168c15.86,11.597,58.945-23.905,58.945-23.905l29.225-48.55
						c0.382-27.638-21.714-50.352-49.352-50.734c-27.638-0.381-50.352,21.714-50.734,49.352
						C1550.957,437.331,1546.719,499.356,1562.873,511.168z"/>
					<path style="fill:#84524D;" d="M1556.526,450.569c0,0-14.239,14.512-13.546,18.405c0.827,4.646,16.424,7.69,16.424,7.69
						S1556.153,450.6,1556.526,450.569z"/>
					<g>
						<path style="fill:#FFFFFF;" d="M1592.44,431.07c0,0-8.158,1.606-14.979,7.211c-1.451,1.193,10.829,10.554,11.666,8.765
							C1592.808,439.179,1592.44,431.07,1592.44,431.07z"/>
						<g>
							<defs>
								<path id="SVGID_3_" d="M1592.44,431.07c0,0-11.999,2.362-19.058,11.355c-7.059,8.993-6.504,21.21-6.504,21.21
									s11.999-2.363,19.058-11.355C1592.995,443.287,1592.44,431.07,1592.44,431.07z"/>
							</defs>
							<clipPath id="SVGID_00000119114045389709621920000017777866543989422007_">
								<use xlink:href="#SVGID_3_"  style="overflow:visible;"/>
							</clipPath>
							<path style="clip-path:url(#SVGID_00000119114045389709621920000017777866543989422007_);fill:#363E44;" d="M1576.928,438.22
								c-8.218-0.804-15.531,5.206-16.335,13.424c-0.804,8.218,5.206,15.531,13.424,16.335c8.217,0.804,15.531-5.206,16.335-13.423
								C1591.155,446.337,1585.145,439.024,1576.928,438.22z"/>
						</g>
					</g>
					<g>
						<path style="fill:#363E44;" d="M1658.681,383.984c0,0,23.137,53.216-12.193,73.595l-9.847-7.616l-21.677,10.46l7.604-26.991
							c1.8-10.368-6.334-19.791-16.853-19.525l-45.92,1.162l0.823-24.584C1591.08,371.499,1623.451,366.94,1658.681,383.984z"/>
						<path style="fill:#363E44;" d="M1607.618,377.467c5.14,1.157,10.246-2.071,11.403-7.212
							c1.158-5.141-1.465-12.936-6.606-14.094c-5.141-1.157-10.852,4.762-12.01,9.902
							C1599.248,371.204,1602.477,376.309,1607.618,377.467z"/>
						<path style="fill:#363E44;" d="M1600.489,380.226c5.055-1.486,7.949-6.789,6.463-11.844
							c-1.486-5.055-7.567-10.595-12.622-9.108c-5.055,1.486-7.171,9.435-5.685,14.49
							C1590.131,378.818,1595.434,381.712,1600.489,380.226z"/>
						<path style="fill:#363E44;" d="M1585.239,386.303c6.396-3.178,9.004-10.939,5.826-17.334
							c-3.178-6.395-12.602-12.351-18.997-9.173c-6.396,3.178-7.34,14.286-4.163,20.681
							C1571.083,386.873,1578.843,389.481,1585.239,386.303z"/>
						<path style="fill:#363E44;" d="M1622.73,378.387c5.101,1.323,10.307-1.739,11.63-6.84c1.323-5.1-1.047-12.977-6.148-14.3
							c-5.1-1.323-11,4.409-12.323,9.509C1614.568,371.857,1617.63,377.064,1622.73,378.387z"/>
						<path style="fill:#363E44;" d="M1573.379,388.818c2.547-5.824-0.109-12.61-5.933-15.157c-5.824-2.547-15.658-1.224-18.205,4.6
							c-2.547,5.824,3.157,13.943,8.981,16.49C1564.045,397.298,1570.831,394.642,1573.379,388.818z"/>
						<path style="fill:#363E44;" d="M1634.771,381.763c5.943,2.788,13.022,0.23,15.81-5.713c2.788-5.943,1.69-16.133-4.254-18.92
							c-5.943-2.788-14.481,2.88-17.269,8.824C1626.269,371.897,1628.827,378.975,1634.771,381.763z"/>
						<path style="fill:#363E44;" d="M1646.632,383.398c3.194,4.007,9.032,4.665,13.039,1.471
							c4.007-3.194,6.762-10.704,3.568-14.711c-3.194-4.007-11.129-2.993-15.136,0.201
							C1644.096,373.553,1643.437,379.391,1646.632,383.398z"/>
						<path style="fill:#363E44;" d="M1570.614,403.177c0.72-7.716-4.951-14.554-12.666-15.274
							c-7.716-0.72-18.592,4.574-19.313,12.289c-0.72,7.716,8.989,14.931,16.704,15.651
							C1563.055,416.564,1569.893,410.893,1570.614,403.177z"/>
					</g>
					<path style="fill:#84524D;" d="M1660.748,439.046c3.609,8.824-0.619,18.903-9.443,22.512
						c-8.824,3.609-18.903-0.618-22.512-9.442c-3.609-8.824,0.618-18.903,9.442-22.512
						C1647.059,425.994,1657.138,430.222,1660.748,439.046z"/>
					<path style="fill:#363E44;" d="M1551.176,474.449l4.772,41.752c0.664,5.813,6.037,9.889,11.816,8.977
						c1.454-0.229,3.025-0.494,4.69-0.798c28.835-5.269,52.912-25.057,63.635-52.337c3.592-9.139,1.169-19.547-6.09-26.16
						l-2.392-2.179l-8.189,4.482c0,0-6.169,22.744-14.714,24.439C1596.159,474.32,1580.326,467.441,1551.176,474.449z"/>
					<path style="fill:#84524D;" d="M1571.77,487.703c-1.787,0-3.574-0.517-5.125-1.546c-1.014-0.672-1.292-2.041-0.618-3.055
						c0.672-1.014,2.039-1.298,3.055-0.618c1.585,1.047,3.639,1.081,5.236,0.078c1.537-0.969,2.407-2.771,2.218-4.595
						c-0.127-1.212,0.751-2.295,1.961-2.422c1.229-0.144,2.295,0.752,2.422,1.962c0.366,3.482-1.303,6.931-4.253,8.787
						C1575.176,487.234,1573.473,487.703,1571.77,487.703z"/>
					<path style="fill:#84524D;" d="M1618.095,417.448c-0.646,0-1.285-0.282-1.72-0.825c-0.764-0.95-0.611-2.336,0.338-3.098
						l19.747-15.854c0.947-0.767,2.336-0.614,3.098,0.338c0.764,0.95,0.611,2.336-0.338,3.098l-19.746,15.854
						C1619.066,417.289,1618.579,417.448,1618.095,417.448z"/>
				</g>
			</g>
		</g>
		<g>
			<g>
				<path style="fill:#FFFFFF;" d="M749.534,1089.86c69.533,0,132.9,23.029,180.671,60.82c-0.67-9.272-1.05-18.612-1.05-28.033
					c0-241.616,224.262-437.485,500.907-437.485c276.642,0,500.907,195.869,500.907,437.485c0,46.932-8.497,92.124-24.16,134.503
					c20.349-6.984,42.482-10.86,65.667-10.86c99.229,0,179.67,70.255,179.67,156.921c0,86.665-80.442,156.921-179.67,156.921
					c-91.564,0-398.915,0-542.415,0c-173.089,0-548.212,0-680.528,0c-148.686,0-269.222-105.274-269.222-235.136
					C480.312,1195.133,600.847,1089.86,749.534,1089.86z"/>
			</g>
			<g>
				<path style="fill:#D3BBA3;" d="M1915.392,1569.574H692.451c-149.665,0-271.426-106.471-271.426-237.341
					s121.761-237.341,271.426-237.341c65.688,0,128.739,20.659,178.146,58.273c-0.484-7.982-0.73-15.793-0.73-23.28
					c0-117.504,52.371-227.956,147.467-311.011c95.011-82.98,221.314-128.68,355.646-128.68c134.33,0,260.634,45.701,355.646,128.68
					c95.096,83.055,147.467,193.507,147.467,311.011c0,44.626-7.65,88.671-22.741,130.982c19.923-6.334,40.772-9.545,62.043-9.545
					c100.287,0,181.876,71.383,181.876,159.126S2015.679,1569.574,1915.392,1569.574z M692.451,1099.302
					c-147.233,0-267.017,104.492-267.017,232.931s119.784,232.931,267.017,232.931h1222.942
					c97.856,0,177.466-69.404,177.466-154.716c0-85.312-79.61-154.716-177.466-154.716c-22.335,0-44.187,3.613-64.952,10.74
					l-4.395,1.509l1.611-4.358c15.942-43.13,24.025-88.126,24.025-133.738c0-240.015-223.718-435.282-498.703-435.282
					c-274.986,0-498.703,195.267-498.703,435.282c0,8.91,0.352,18.287,1.045,27.872l0.361,4.995l-3.928-3.107
					C822.564,1120.732,758.887,1099.302,692.451,1099.302z"/>
			</g>
		</g>
		<g>
			<path style="fill:#E2A18D;" d="M846.334,1127.17c-18.306,2.7-96.223,1.719-113.111,33.858
				c-17.009,32.369-8.697,71.92,9.857,103.432c0.143,0.042,0.301,0.088,0.442,0.13c8.323,5.762,21.658,13.108,38.403,13.626
				c19.089,0.59,24.327-8.258,44.568-10.772c34.165-4.243,53.052,17.701,60.142,7.777c4.867-6.811-5.586-20.074-18.266-29.691
				c-13.019-9.874-25.594-10.779-25.205-13.427c0.426-2.906,13.082-0.334,29.114,1.42c7.448,0.815,26.521,15.648,34.542,7.322
				c6.395-6.638-9.576-27.02-30.782-34.798c-15.003-5.501-29.539-0.09-29.994-2.972c-0.341-2.163,8.401-5.174,16.708-5.524
				c13.708-0.58,33.384,14.385,40.617,6.579c7.086-7.649-7.175-25.205-26.226-33.592c-16.063-7.073-31.985-0.264-32.571-3.843
				c-0.412-2.517,6.082-7.047,21.889-12.068c13.193-4.19,41.551-3.832,39.228-18.292
				C903.735,1124.172,873.963,1123.093,846.334,1127.17z"/>
			<path style="fill:#E2A18D;" d="M468.157,1031.776c-39.535-10.255-77.423-12.752-96.297,22.806
				c-12.555,23.653-21.326,73.283,1.601,108.151c59.971,91.205,381.499,100.345,381.499,100.345l78.48-68.215
				C738.558,1126.517,576.98,1060.003,468.157,1031.776z"/>
		</g>
		<path style="fill:#E2A18D;" d="M1184.332,702.677c5.121,8.565,13.647,21.987,20.554,36.012
			c11.091,22.526,18.36,48.304,8.487,53.323c-11.737,5.967-19.234-18.404-26.45-28.542c-8.647-12.147-14.311-16.459-16.352-15.413
			c-2.902,1.486,7.307,13.24,5.673,28.934c-1.937,18.614-13.038,35.65-21.535,31.69c-8.672-4.042-1.277-25.001-5.545-36.574
			c-2.586-7.013-7.568-13.666-9.325-12.78c-2.342,1.182,6.29,12.134,5.709,26.489c-0.821,20.29-13.872,39.567-21.312,35.922
			c-9.332-4.575-1.886-24.98-3.238-31.579c-2.91-14.203-4.191-25.743-6.795-25.308c-2.373,0.396,0.312,11.407-4.557,25.267
			c-4.742,13.5-13.218,26.094-20.387,23.804c-10.444-3.337,3.14-25.542-9.892-53.614c-7.721-16.632-16.736-18.681-21.484-35.181
			c-0.039-0.137-0.078-0.273-0.116-0.41c-5.391-19.306,3.381-39.67,20.665-49.822c1.2-0.705,2.42-1.376,3.664-2.009
			c8.784-4.468,18.634-5.958,28.382-7.697C1135.48,660.729,1170.322,682.137,1184.332,702.677z"/>
		<g>
			<polygon style="fill:#D87355;" points="1844.195,1252.804 1563.974,1075.841 1553.591,1092.282 1421.317,1084.23 
				1357.196,968.257 1374.162,941.391 1487.535,1012.988 1521.757,958.798 1408.383,887.201 1425.349,860.335 1557.623,868.388 
				1621.744,984.361 1611.36,1000.804 1891.582,1177.767 1901.966,1161.324 2034.24,1169.376 2098.361,1285.349 2081.395,1312.215 
				1968.021,1240.618 1933.8,1294.809 2047.173,1366.405 2030.207,1393.271 1897.933,1385.218 1833.812,1269.245 			"/>
			<g>
				<g>
					<path style="fill:#84524D;" d="M1687.352,1016.545c62.067-70.042,182.559-199.135,182.559-199.135s35.162-42.769,83.728-43.137
						c23.781-0.18,47.378,5.426,67.907,15.043c55.605,26.045,70.479,98.171,30.548,144.816
						c-65.255,76.226-193.739,174.499-229.45,210.201c-21.505,21.498-59.174,70.308-72.189,86.481
						c-7.094,8.816-21.648,9.472-31.671,3.695c-9.744-5.615-11.674-17.755-11.843-21.046c-8.347,5.285-19.503,6.799-30.723-0.086
						c-9.961-6.113-10.649-20.4-10.674-21.724c-1.233,0.558-10.672,10.518-26.613,3.887c-10.771-4.48-14.222-15.614-14.628-19.506
						c0,0-11.258,7.64-25.117-1.317C1580.934,1162.923,1579.809,1137.907,1687.352,1016.545z"/>
					<g>
						<path style="fill:#363E44;" d="M1755.084,1208.26c-0.37,0-0.745-0.093-1.087-0.289l-16.271-9.261
							c-1.057-0.603-1.427-1.949-0.825-3.008c0.603-1.057,1.946-1.428,3.008-0.825l16.267,9.261c1.059,0.603,1.43,1.949,0.827,3.006
							C1756.596,1207.859,1755.851,1208.26,1755.084,1208.26z"/>
						<path style="fill:#363E44;" d="M1716.246,1185.262c-0.349,0-0.702-0.082-1.031-0.256l-18.707-9.932
							c-1.077-0.571-1.486-1.906-0.913-2.98c0.566-1.077,1.903-1.49,2.98-0.913l18.707,9.928c1.077,0.573,1.486,1.906,0.915,2.982
							C1717.801,1184.838,1717.036,1185.262,1716.246,1185.262z"/>
						<path style="fill:#363E44;" d="M1673.831,1163.677c-0.37,0-0.745-0.093-1.092-0.291c-3.027-1.727-5.773-3.266-8.518-4.806
							c-2.752-1.546-5.506-3.09-8.544-4.825c-1.059-0.603-1.427-1.949-0.823-3.008c0.603-1.057,1.94-1.432,3.008-0.82
							c3.027,1.727,5.773,3.266,8.518,4.806c2.752,1.546,5.506,3.09,8.546,4.825c1.057,0.603,1.425,1.949,0.82,3.008
							C1675.341,1163.278,1674.598,1163.677,1673.831,1163.677z"/>
						<path style="fill:#363E44;" d="M1640.625,1142.838c-0.42,0-0.842-0.119-1.219-0.368l-15.447-10.264
							c-1.014-0.674-1.29-2.043-0.616-3.057c0.674-1.012,2.039-1.29,3.057-0.616l15.447,10.264c1.014,0.674,1.29,2.043,0.616,3.057
							C1642.04,1142.492,1641.338,1142.838,1640.625,1142.838z"/>
					</g>
				</g>
			</g>
		</g>
		<g>
			<g>
				<path style="fill:#E6D0BE;" d="M1419.432,1212.164h-22.12c-1.981-10.782-4.806-21.268-8.396-31.392l19.142-11.052l-37.429-64.83
					l-19.186,11.077c-7.041-8.243-14.719-15.921-22.962-22.962l11.077-19.186l-64.829-37.429l-11.052,19.143
					c-10.124-3.591-20.609-6.415-31.392-8.396v-22.119h-74.858l0,22.119c-10.782,1.981-21.268,4.806-31.392,8.396l-11.052-19.143
					l-64.829,37.429l11.077,19.186c-8.243,7.041-15.921,14.719-22.962,22.962l-19.186-11.077l-37.429,64.83l19.142,11.052
					c-3.59,10.124-6.415,20.609-8.396,31.392H970.28l0,74.859h22.119c1.981,10.782,4.806,21.268,8.396,31.392l-19.142,11.052
					l37.429,64.83l19.186-11.077c7.041,8.243,14.72,15.921,22.962,22.962l-11.077,19.186l64.829,37.43l11.052-19.143
					c10.124,3.591,20.609,6.416,31.392,8.396v22.119l74.859,0v-22.119c10.782-1.981,21.268-4.806,31.392-8.396l11.052,19.143
					l64.829-37.43l-11.077-19.186c8.242-7.041,15.921-14.719,22.962-22.962l19.186,11.077l37.429-64.829l-19.142-11.052
					c3.59-10.124,6.415-20.609,8.396-31.392h22.12V1212.164z M1309.503,1297.407c-11.627,30.755-36.083,55.21-66.838,66.835
					c-104.498,39.502-201.962-57.964-162.457-162.462c11.627-30.755,36.083-55.21,66.838-66.836
					C1251.546,1095.443,1349.009,1192.908,1309.503,1297.407z"/>
			</g>
			<path style="fill:#F2E6DC;" d="M1194.856,1415.551c-91.51,0-165.958-74.449-165.958-165.958
				c0-39.984,14.42-78.609,40.603-108.762c25.923-29.851,61.615-49.507,100.504-55.349c1.191-0.172,2.327,0.648,2.507,1.854
				c0.181,1.204-0.648,2.328-1.853,2.508c-78.303,11.758-137.352,80.435-137.352,159.748c0,89.078,72.47,161.548,161.548,161.548
				c73.603,0,137.907-49.69,156.376-120.839c0.306-1.178,1.509-1.895,2.687-1.58c1.18,0.306,1.886,1.509,1.58,2.687
				C1336.526,1364.502,1270.468,1415.551,1194.856,1415.551z"/>
		</g>
		<g>
			<g>
				<path style="fill:#FFFFFF;" d="M1003.995,659.24c-0.141,0-0.284-0.013-0.427-0.041l-41.755-8.208
					c-0.574-0.114-1.08-0.45-1.405-0.935c-0.326-0.487-0.446-1.081-0.334-1.656l2.075-10.548c-4.658-1.923-9.222-4.16-13.61-6.668
					l-7.067,8.096c-0.384,0.441-0.928,0.711-1.511,0.751c-0.6,0.011-1.161-0.155-1.6-0.54l-32.056-27.987
					c-0.917-0.801-1.012-2.192-0.211-3.109l7.086-8.117c-3.069-4-5.9-8.216-8.44-12.572l-10.195,3.488
					c-0.554,0.192-1.159,0.153-1.685-0.108c-0.524-0.256-0.926-0.713-1.115-1.266l-13.769-40.266
					c-0.189-0.553-0.151-1.158,0.107-1.684c0.257-0.525,0.713-0.926,1.266-1.115l10.168-3.475c-0.661-5.01-1.002-10.081-1.02-15.122
					l-10.549-2.073c-0.574-0.114-1.079-0.45-1.405-0.935c-0.326-0.487-0.446-1.081-0.334-1.656l8.208-41.754
					c0.235-1.195,1.398-1.968,2.589-1.738l10.549,2.073c1.925-4.662,4.16-9.224,6.667-13.61l-8.095-7.067
					c-0.917-0.801-1.012-2.192-0.211-3.109l27.985-32.058c0.384-0.441,0.929-0.711,1.511-0.751c0.589-0.032,1.16,0.153,1.6,0.54
					l8.116,7.086c3.998-3.068,8.213-5.897,12.57-8.44l-3.486-10.195c-0.19-0.553-0.151-1.158,0.107-1.684
					c0.257-0.525,0.713-0.926,1.266-1.115l40.265-13.769c0.557-0.189,1.158-0.151,1.685,0.108c0.524,0.256,0.926,0.713,1.115,1.266
					l3.476,10.167c5.009-0.661,10.08-1.003,15.122-1.021l2.073-10.55c0.235-1.195,1.4-1.964,2.589-1.738l41.754,8.208
					c1.195,0.235,1.973,1.395,1.739,2.588l-2.073,10.55c4.659,1.923,9.224,4.16,13.61,6.668l7.066-8.096
					c0.384-0.441,0.928-0.71,1.512-0.751c0.587-0.041,1.159,0.155,1.6,0.54l32.057,27.987c0.917,0.801,1.012,2.192,0.211,3.109
					l-7.086,8.117c3.07,4.005,5.902,8.221,8.44,12.572l10.195-3.488c0.556-0.19,1.162-0.151,1.685,0.108
					c0.524,0.256,0.926,0.713,1.115,1.266l13.768,40.266c0.394,1.152-0.221,2.405-1.373,2.799l-10.167,3.475
					c0.661,5.01,1.002,10.081,1.02,15.122l10.549,2.073c0.574,0.114,1.079,0.45,1.405,0.935c0.326,0.487,0.446,1.081,0.334,1.656
					l-8.208,41.754c-0.235,1.193-1.401,1.972-2.589,1.738l-10.55-2.073c-1.926,4.664-4.161,9.228-6.666,13.61l8.095,7.067
					c0.917,0.801,1.012,2.192,0.211,3.109l-27.985,32.058c-0.384,0.441-0.929,0.711-1.512,0.751c-0.591,0.028-1.159-0.155-1.6-0.54
					l-8.117-7.086c-3.999,3.068-8.215,5.9-12.57,8.44l3.486,10.195c0.19,0.553,0.151,1.158-0.107,1.684
					c-0.257,0.525-0.713,0.926-1.266,1.115l-40.265,13.769c-0.554,0.192-1.16,0.153-1.685-0.108
					c-0.524-0.256-0.926-0.713-1.115-1.266l-3.476-10.165c-5.01,0.659-10.082,1.001-15.12,1.018l-2.073,10.55
					C1005.95,658.512,1005.027,659.24,1003.995,659.24z M964.827,647.09l37.428,7.357l1.999-10.176
					c0.203-1.034,1.111-1.779,2.164-1.779c0.009,0,0.018,0,0.027,0c6.029,0.095,12.102-0.334,18.081-1.217
					c1.068-0.134,2.065,0.463,2.408,1.468l3.351,9.801l36.092-12.344l-3.361-9.829c-0.343-1.006,0.079-2.112,1.004-2.633
					c5.254-2.958,10.314-6.356,15.038-10.098c0.834-0.659,2.02-0.629,2.819,0.069l7.827,6.832l25.085-28.736l-7.804-6.815
					c-0.801-0.698-0.988-1.869-0.447-2.784c3.075-5.189,5.756-10.664,7.971-16.273c0.391-0.99,1.432-1.557,2.476-1.354l10.174,2
					l7.357-37.428l-10.174-1.998c-1.044-0.207-1.792-1.128-1.78-2.192c0.075-6.022-0.335-12.105-1.218-18.08
					c-0.155-1.053,0.462-2.065,1.467-2.409l9.803-3.352l-12.342-36.093l-9.83,3.363c-1.007,0.345-2.114-0.077-2.635-1.005
					c-2.954-5.247-6.351-10.307-10.097-15.038c-0.659-0.833-0.631-2.02,0.068-2.819l6.832-7.827l-28.735-25.086l-6.813,7.805
					c-0.699,0.801-1.871,0.988-2.785,0.448c-5.197-3.079-10.672-5.762-16.275-7.971c-0.989-0.392-1.559-1.434-1.354-2.476l2-10.176
					l-37.428-7.357l-1.999,10.176c-0.203,1.034-1.111,1.779-2.164,1.779c-0.009,0-0.018,0-0.027,0
					c-6.035-0.073-12.106,0.336-18.081,1.219c-1.048,0.151-2.065-0.463-2.409-1.468l-3.351-9.803l-36.092,12.344l3.361,9.829
					c0.343,1.005-0.079,2.112-1.005,2.633c-5.256,2.961-10.316,6.358-15.038,10.098c-0.834,0.663-2.016,0.633-2.82-0.069
					l-7.826-6.832l-25.085,28.736l7.804,6.815c0.801,0.698,0.988,1.869,0.447,2.784c-3.078,5.193-5.76,10.669-7.971,16.273
					c-0.391,0.991-1.43,1.555-2.476,1.354l-10.174-2l-7.357,37.428l10.174,1.998c1.044,0.207,1.792,1.128,1.78,2.192
					c-0.075,6.022,0.335,12.105,1.218,18.08c0.155,1.053-0.462,2.065-1.467,2.409l-9.803,3.352l12.342,36.093l9.83-3.363
					c1.007-0.34,2.114,0.077,2.635,1.005c2.956,5.251,6.354,10.311,10.097,15.038c0.659,0.833,0.631,2.02-0.068,2.818l-6.832,7.827
					L939.6,634.72l6.814-7.805c0.7-0.803,1.871-0.988,2.785-0.448c5.199,3.081,10.674,5.764,16.273,7.971
					c0.991,0.392,1.56,1.434,1.355,2.478L964.827,647.09z M1007.952,600.427c-5.499,0-11.047-0.629-16.567-1.897
					c-37.252-8.567-61.596-44.826-55.424-82.547c3.285-20.078,14.379-37.37,31.24-48.691c16.858-11.321,37.062-15.042,56.891-10.484
					c37.253,8.565,61.598,44.822,55.425,82.545c-3.286,20.078-14.38,37.37-31.24,48.691
					C1036.112,596.213,1022.202,600.425,1007.952,600.427z M1007.536,459.323c-13.387,0-26.449,3.957-37.877,11.631
					c-15.839,10.632-26.26,26.878-29.346,45.739c-5.797,35.434,17.07,69.493,52.061,77.539c18.627,4.278,37.608,0.786,53.446-9.851
					c15.838-10.632,26.26-26.878,29.346-45.739c5.798-35.434-17.07-69.493-52.062-77.537
					C1017.917,459.913,1012.702,459.323,1007.536,459.323z"/>
			</g>
		</g>
		<g>
			<g>
				<g>
					<path style="fill:#363E44;" d="M1873.098,1963.175c-0.127,0-0.254-0.011-0.383-0.032c-1.199-0.211-2-1.354-1.791-2.554
						c24.981-142.394,38.292-172.079,73.866-251.416l5.977-13.345c0.497-1.109,1.796-1.617,2.913-1.113
						c1.111,0.497,1.611,1.802,1.113,2.913l-5.979,13.349c-35.413,78.973-48.661,108.521-73.545,250.374
						C1875.079,1962.422,1874.149,1963.175,1873.098,1963.175z"/>
				</g>
				<g>
					<path style="fill:#363E44;" d="M1815.93,2035.357c-1.18,0-2.157-0.935-2.2-2.123c-7.784-209.432-61.61-294.976-118.597-385.542
						l-2.625-4.173c-0.648-1.031-0.338-2.392,0.693-3.04c1.029-0.644,2.392-0.338,3.04,0.693l2.622,4.171
						c57.313,91.082,111.447,177.111,119.271,387.727c0.045,1.217-0.904,2.239-2.121,2.285
						C1815.986,2035.357,1815.958,2035.357,1815.93,2035.357z"/>
				</g>
				<polygon style="fill:#EFBC73;" points="1900.913,2158.142 1738.885,2158.142 1720.368,1945.768 1919.43,1945.768 				"/>
			</g>
			<g>
				<g>
					<path style="fill:#ff6900;" d="M1588.545,1425.589l3.357,14.689c-6.86,2.952-13.394,6.419-19.572,10.34l-10.245-11.034
						l-37.37,34.695l10.268,11.06c-4.405,5.927-8.339,12.191-11.763,18.733l-14.422-4.444l-15.016,48.732l14.39,4.434
						c-0.848,7.268-1.132,14.66-0.811,22.121l-14.689,3.357l11.362,49.711l14.689-3.357c2.952,6.859,6.419,13.394,10.34,19.572
						l-11.035,10.245l34.696,37.37l11.06-10.268c5.927,4.405,12.191,8.339,18.734,11.763l-4.444,14.422l48.732,15.016l4.434-14.39
						c7.268,0.848,14.66,1.132,22.121,0.811l3.357,14.689l49.711-11.362l-3.357-14.689c6.859-2.952,13.394-6.419,19.572-10.34
						l10.245,11.035l37.37-34.695l-10.268-11.06c4.405-5.927,8.339-12.191,11.763-18.733l14.422,4.444l15.016-48.732l-14.39-4.434
						c0.848-7.268,1.132-14.66,0.811-22.121l14.689-3.357l-11.362-49.711l-14.689,3.357c-2.952-6.859-6.419-13.394-10.34-19.572
						l11.035-10.245l-34.695-37.37l-11.06,10.268c-5.927-4.405-12.191-8.339-18.734-11.763l4.444-14.422l-48.732-15.016
						l-4.434,14.389c-7.268-0.848-14.66-1.132-22.121-0.811l-3.357-14.689L1588.545,1425.589z M1730.878,1583.389
						c-3.052,22.189-15.58,42.141-34.239,54.53c-63.398,42.095-142.915-7.835-132.544-83.224
						c3.052-22.188,15.58-42.14,34.239-54.529C1661.732,1458.069,1741.249,1507.999,1730.878,1583.389z"/>
				</g>
				<path style="fill:#776E42;" d="M1647.475,1682.806c-51.863,0.002-98.847-35.766-110.88-88.419
					c-11.55-50.523,12.473-102.459,58.415-126.301c1.081-0.558,2.414-0.14,2.974,0.941s0.14,2.412-0.941,2.974
					c-44.161,22.916-67.251,72.839-56.15,121.405c11.567,50.608,56.735,84.987,106.583,84.991c8.046,0.002,16.207-0.894,24.376-2.76
					c1.18-0.286,2.369,0.469,2.64,1.658c0.271,1.186-0.472,2.368-1.658,2.64C1664.338,1681.876,1655.842,1682.806,1647.475,1682.806
					z"/>
			</g>
			<g>
				<g>
					<path style="fill:#9E9569;" d="M1933.364,1543.963l2.167,9.483c-4.428,1.906-8.647,4.144-12.635,6.675l-6.614-7.124
						l-24.125,22.398l6.629,7.14c-2.844,3.826-5.383,7.87-7.594,12.094l-9.311-2.869l-9.694,31.46l9.29,2.862
						c-0.547,4.692-0.731,9.464-0.524,14.28l-9.483,2.167l7.335,32.092l9.483-2.167c1.906,4.428,4.144,8.647,6.675,12.635
						l-7.124,6.614l22.398,24.125l7.14-6.629c3.826,2.844,7.87,5.383,12.094,7.594l-2.869,9.311l31.46,9.694l2.863-9.289
						c4.692,0.547,9.464,0.731,14.28,0.523l2.167,9.483l32.092-7.335l-2.167-9.483c4.428-1.906,8.647-4.144,12.635-6.675
						l6.614,7.124l24.125-22.398l-6.629-7.14c2.844-3.826,5.383-7.87,7.594-12.094l9.311,2.869l9.694-31.46l-9.289-2.862
						c0.547-4.692,0.731-9.464,0.523-14.281l9.483-2.167l-7.335-32.092l-9.483,2.167c-1.906-4.428-4.144-8.647-6.676-12.635
						l7.124-6.614l-22.398-24.125l-7.14,6.629c-3.826-2.844-7.87-5.383-12.094-7.594l2.869-9.311l-31.46-9.694l-2.862,9.289
						c-4.692-0.547-9.464-0.731-14.28-0.524l-2.167-9.483L1933.364,1543.963z M2025.25,1645.834
						c-1.97,14.324-10.058,27.205-22.104,35.203c-40.928,27.175-92.261-5.058-85.566-53.727
						c1.97-14.324,10.058-27.204,22.103-35.202C1980.612,1564.932,2031.945,1597.165,2025.25,1645.834z"/>
				</g>
				<path style="fill:#776E42;" d="M1971.271,1710.814c-13.799,0.002-27.349-3.871-39.323-11.39
					c-16.788-10.542-28.467-26.99-32.883-46.316c-7.534-32.962,8.139-66.849,38.113-82.403c1.081-0.558,2.414-0.14,2.974,0.941
					c0.56,1.081,0.14,2.411-0.941,2.974c-28.193,14.628-42.934,46.501-35.848,77.507c4.156,18.177,15.139,33.649,30.93,43.564
					c15.791,9.913,34.5,13.089,52.677,8.933c1.18-0.276,2.368,0.467,2.64,1.658c0.271,1.186-0.472,2.368-1.658,2.64
					C1982.409,1710.19,1976.819,1710.814,1971.271,1710.814z"/>
			</g>
		</g>
	</g>
</g>
</svg>
