<?xml version="1.0" encoding="utf-8"?>
<!-- Generator: Adobe Illustrator 27.5.0, SVG Export Plug-In . SVG Version: 6.00 Build 0)  -->
<svg version="1.1" xmlns="http://www.w3.org/2000/svg" xmlns:xlink="http://www.w3.org/1999/xlink" x="0px" y="0px"
	 viewBox="0 0 2500 2500" style="enable-background:new 0 0 2500 2500;" xml:space="preserve">
-
<g id="Illustration">
	<g id="Overspending_1_">
		<circle style="fill:transparent;" cx="1250" cy="1250" r="915"/>
		<g>
			
				<rect x="359.988" y="337.619" transform="matrix(-1 -1.224647e-16 1.224647e-16 -1 2178.78 2018.1064)" style="fill:#D3BBA3;" width="1458.804" height="1342.869"/>
			<g>
				
					<rect x="352.639" y="565.891" transform="matrix(-1 -1.224647e-16 1.224647e-16 -1 2169.2771 1504.7751)" style="fill:#363E44;" width="1464" height="372.993"/>
				<g>
					<path style="fill:#F7F1EB;" d="M1648.475,714.394h14.199c28.149,0,50.968-22.819,50.968-50.968V337.618h-116.135v325.808
						C1597.507,691.575,1620.326,714.394,1648.475,714.394z"/>
					<path style="fill:#D87355;" d="M1533.895,714.394h14.199c28.149,0,50.968-22.819,50.968-50.968V337.618h-116.135v325.808
						C1482.928,691.575,1505.747,714.394,1533.895,714.394z"/>
					<path style="fill:#F7F1EB;" d="M1419.316,714.394h14.199c28.149,0,50.968-22.819,50.968-50.968V337.618h-116.135v325.808
						C1368.348,691.575,1391.167,714.394,1419.316,714.394z"/>
					<path style="fill:#D87355;" d="M1304.736,714.394h14.199c28.149,0,50.968-22.819,50.968-50.968V337.618h-116.135v325.808
						C1253.769,691.575,1276.588,714.394,1304.736,714.394z"/>
					<path style="fill:#F7F1EB;" d="M1190.157,714.394h14.199c28.149,0,50.968-22.819,50.968-50.968V337.618h-116.135v325.808
						C1139.189,691.575,1162.009,714.394,1190.157,714.394z"/>
					<path style="fill:#D87355;" d="M1075.578,714.394h14.199c28.149,0,50.968-22.819,50.968-50.968V337.618H1024.61v325.808
						C1024.61,691.575,1047.429,714.394,1075.578,714.394z"/>
					<path style="fill:#F7F1EB;" d="M960.998,714.394h14.199c28.149,0,50.968-22.819,50.968-50.968V337.618H910.031v325.808
						C910.031,691.575,932.85,714.394,960.998,714.394z"/>
					<path style="fill:#D87355;" d="M846.419,714.394h14.199c28.149,0,50.968-22.819,50.968-50.968V337.618H795.451v325.808
						C795.451,691.575,818.27,714.394,846.419,714.394z"/>
					<path style="fill:#F7F1EB;" d="M731.84,714.394h14.199c28.149,0,50.968-22.819,50.968-50.968V337.618H680.872v325.808
						C680.872,691.575,703.691,714.394,731.84,714.394z"/>
					<path style="fill:#D87355;" d="M617.26,714.394h14.199c28.149,0,50.968-22.819,50.968-50.968V337.618H566.292v325.808
						C566.292,691.575,589.112,714.394,617.26,714.394z"/>
					<path style="fill:#F7F1EB;" d="M502.681,714.394h14.199c28.149,0,50.968-22.819,50.968-50.968V337.618H451.713v325.808
						C451.713,691.575,474.532,714.394,502.681,714.394z"/>
					<path style="fill:#D87355;" d="M388.101,714.394h14.199c28.149,0,50.968-22.819,50.968-50.968V337.618H337.134v325.808
						C337.134,691.575,359.953,714.394,388.101,714.394z"/>
					<path style="fill:#D87355;" d="M1764.609,714.394h14.199c28.149,0,50.968-22.819,50.968-50.968V337.618h-116.135v325.808
						C1713.642,691.575,1736.461,714.394,1764.609,714.394z"/>
				</g>
				<g>
					<rect x="640.802" y="430.23" style="fill:#FFFFFF;" width="992.268" height="377.062"/>
					<path style="fill:#D87355;" d="M1648.504,820.521H656.236c-1.218,0-2.205-0.987-2.205-2.205V441.254
						c0-1.218,0.987-2.205,2.205-2.205h992.268c1.218,0,2.205,0.987,2.205,2.205v377.061
						C1650.709,819.534,1649.722,820.521,1648.504,820.521z M658.441,816.111h987.858V443.459H658.441V816.111z"/>
					<g>
						<path style="fill:#D87355;" d="M880.455,671.441c0-9.123-3.22-16.129-9.661-21.015c-6.442-4.884-18.036-10.037-34.783-15.459
							c-16.748-5.42-30.008-10.762-39.775-16.023c-26.626-14.385-39.937-33.761-39.937-58.133c0-12.666,3.568-23.966,10.709-33.897
							c7.139-9.929,17.392-17.686,30.758-23.27c13.366-5.58,28.367-8.374,45.008-8.374c16.747,0,31.667,3.034,44.767,9.099
							c13.097,6.066,23.269,14.628,30.516,25.684c7.246,11.058,10.87,23.619,10.87,37.682h-48.31
							c0-10.734-3.381-19.082-10.146-25.04c-6.763-5.958-16.264-8.937-28.502-8.937c-11.811,0-20.99,2.496-27.537,7.488
							c-6.55,4.992-9.823,11.569-9.823,19.727c0,7.624,3.837,14.009,11.514,19.162c7.674,5.153,18.973,9.984,33.897,14.493
							c27.48,8.268,47.505,18.519,60.065,30.757c12.56,12.239,18.841,27.483,18.841,45.733c0,20.29-7.677,36.207-23.028,47.746
							c-15.354,11.541-36.019,17.311-61.998,17.311c-18.036,0-34.461-3.301-49.276-9.903c-14.815-6.603-26.115-15.645-33.898-27.134
							c-7.785-11.486-11.674-24.799-11.674-39.936h48.471c0,25.873,15.46,38.809,46.378,38.809c11.486,0,20.451-2.335,26.893-7.005
							C877.235,686.336,880.455,679.815,880.455,671.441z"/>
						<path style="fill:#D87355;" d="M1093.984,684.646h-84.702l-16.103,48.309h-51.37l87.28-234.463h44.767l87.762,234.463h-51.369
							L1093.984,684.646z M1022.324,645.514h58.616l-29.469-87.763L1022.324,645.514z"/>
						<path style="fill:#D87355;" d="M1231.828,694.146h102.578v38.809h-150.888V498.492h48.31V694.146z"/>
						<path style="fill:#D87355;" d="M1503.167,631.343h-92.754v62.803h108.858v38.809h-157.168V498.492h156.846v39.131h-108.536
							v55.878h92.754V631.343z"/>
					</g>
				</g>
				<rect x="353.982" y="977.467" style="fill:#E6D0BE;" width="687.994" height="39.685"/>
				<g>
					<g>
						<g>
							<path style="fill:#D3BBA3;" d="M713.187,1150.124c-1.057,0-1.966-0.751-2.165-1.79c-0.2-1.042,0.37-2.077,1.357-2.467
								l181.813-71.654c0.515-0.202,1.088-0.205,1.603-0.005l182.276,70.465c0.989,0.382,1.566,1.415,1.374,2.457
								s-1.1,1.801-2.161,1.804l-364.088,1.189C713.191,1150.124,713.189,1150.124,713.187,1150.124z M895.007,1078.632
								l-170.116,67.045l340.665-1.113L895.007,1078.632z"/>
							<path style="fill:#F7F1EB;" d="M894.985,1077.784c-1.214,0-2.201-0.982-2.205-2.198l-0.146-44.794
								c-6.451-0.491-12.454-3.23-17.095-7.841c-5.164-5.132-8.023-11.967-8.046-19.248c-0.049-15.029,12.138-27.297,27.168-27.346
								c7.259-0.088,14.135,2.789,19.301,7.92c5.164,5.132,8.023,11.968,8.046,19.249c0.004,1.218-0.98,2.208-2.197,2.212
								c-0.003,0-0.005,0-0.008,0c-1.214,0-2.201-0.982-2.205-2.198c-0.02-6.103-2.416-11.833-6.745-16.134
								c-4.312-4.283-10.027-6.639-16.101-6.639c-0.026,0-0.051,0-0.076,0c-12.599,0.041-22.815,10.324-22.774,22.923
								c0.041,12.573,10.283,22.773,22.847,22.773c0.028,0,0.065,0.002,0.083,0c0.582,0,1.141,0.23,1.553,0.641
								c0.416,0.412,0.649,0.972,0.651,1.557l0.153,46.912c0.004,1.218-0.98,2.208-2.197,2.212
								C894.99,1077.784,894.987,1077.784,894.985,1077.784z"/>
						</g>
						<polygon style="fill:#E6D0BE;" points="707.454,1123.877 859.488,1079.027 935.763,1079.027 1091.973,1135.806 
							1168.183,1222.527 1080.379,1291.653 1045.683,1265.747 1043.573,1448.076 733.161,1448.076 733.161,1261.9 707.454,1288.86 
							620.129,1212.831 						"/>
					</g>
					<g>
						<polygon style="fill:#E6D0BE;" points="810.673,1487.164 684.362,1487.164 684.362,1087.123 701.448,1076.502 
							787.485,1076.502 810.673,1087.123 						"/>
						<g>
							<path style="fill:#84524D;" d="M563.349,1150.124c-1.057,0-1.966-0.75-2.165-1.789c-0.2-1.042,0.369-2.078,1.357-2.468
								l181.813-71.654c0.524-0.206,1.11-0.205,1.632,0.006l174.015,70.109c0.979,0.394,1.54,1.425,1.341,2.46
								c-0.198,1.035-1.101,1.785-2.155,1.79l-355.828,1.546C563.356,1150.124,563.353,1150.124,563.349,1150.124z
								 M745.153,1078.638l-170.067,67.025l332.839-1.445L745.153,1078.638z"/>
							<path style="fill:#84524D;" d="M745.148,1077.784c-1.214,0-2.201-0.982-2.205-2.198l-0.146-44.794
								c-6.451-0.491-12.454-3.23-17.095-7.841c-5.164-5.132-8.023-11.967-8.046-19.248c-0.049-15.029,12.138-27.297,27.168-27.346
								c0.03,0,0.061,0,0.092,0c7.247,0,14.065,2.81,19.209,7.92c5.164,5.132,8.023,11.968,8.046,19.249
								c0.004,1.218-0.98,2.208-2.197,2.212c-0.003,0-0.005,0-0.008,0c-1.214,0-2.201-0.982-2.205-2.198
								c-0.02-6.103-2.416-11.833-6.745-16.134c-4.33-4.301-10.095-6.589-16.178-6.639c-12.599,0.041-22.815,10.324-22.774,22.923
								c0.041,12.573,10.283,22.773,22.847,22.773c0.028,0,0.067,0.002,0.083,0c0.582,0,1.141,0.23,1.554,0.641
								c0.415,0.412,0.649,0.972,0.651,1.557l0.153,46.912c0.004,1.218-0.98,2.208-2.197,2.212
								C745.152,1077.784,745.15,1077.784,745.148,1077.784z"/>
						</g>
						<polygon style="fill:#F7F1EB;" points="483.692,1471.705 565.052,1135.691 700.922,1076.298 700.922,1505.063 
							584.578,1505.063 613.884,1275.629 550.407,1489.604 						"/>
						<polygon style="fill:#F7F1EB;" points="1004.343,1471.705 922.983,1135.691 787.113,1076.298 787.113,1505.063 
							903.457,1505.063 874.151,1275.629 937.628,1489.604 						"/>
					</g>
					<g>
						<path style="fill:#D87355;" d="M515.336,1189.941c-1.119,0-2.077-0.847-2.192-1.983c-9.629-95.003-3.253-96.233,0.555-96.967
							c3.692-0.712,9.903-1.921,34.875,83.925c0.34,1.169-0.331,2.393-1.501,2.733c-1.174,0.34-2.393-0.333-2.732-1.501
							c-20.256-69.624-27.69-79.5-29.788-80.709c-1.854,2.253-4.717,16.155,2.978,92.075c0.123,1.212-0.76,2.293-1.971,2.416
							C515.484,1189.937,515.41,1189.941,515.336,1189.941z"/>
						<path style="fill:#D87355;" d="M672.529,1188.068c-0.074,0-0.149-0.004-0.225-0.011c-1.211-0.123-2.094-1.204-1.971-2.416
							c7.695-75.921,4.832-89.822,2.978-92.075c-2.097,1.209-9.532,11.085-29.788,80.709c-0.34,1.169-1.562,1.842-2.732,1.501
							c-1.169-0.34-1.841-1.564-1.501-2.733c24.972-85.841,31.166-84.638,34.876-83.926c3.809,0.735,10.184,1.965,0.555,96.968
							C674.606,1187.221,673.648,1188.068,672.529,1188.068z"/>
						<g>
							<path style="fill:#F7F1EB;" d="M413.512,1143.505c-1.057,0-1.966-0.751-2.165-1.79c-0.2-1.042,0.37-2.077,1.356-2.466
								l181.813-71.655c0.515-0.202,1.088-0.205,1.603-0.005l182.275,70.465c0.989,0.382,1.566,1.415,1.374,2.457
								s-1.1,1.801-2.161,1.804l-364.088,1.189C413.517,1143.505,413.514,1143.505,413.512,1143.505z M595.332,1072.013
								l-170.116,67.044l340.665-1.113L595.332,1072.013z"/>
							<path style="fill:#F7F1EB;" d="M595.311,1071.166c-1.214,0-2.201-0.982-2.205-2.198l-0.146-44.794
								c-6.451-0.492-12.454-3.23-17.095-7.841c-5.164-5.132-8.023-11.967-8.046-19.248c-0.05-15.029,12.138-27.298,27.168-27.347
								c7.252,0.033,14.135,2.789,19.301,7.92c5.164,5.131,8.023,11.968,8.046,19.249c0.004,1.218-0.98,2.208-2.197,2.212
								c-0.003,0-0.005,0-0.007,0c-1.214,0-2.201-0.982-2.205-2.198c-0.021-6.103-2.416-11.833-6.745-16.134
								c-4.312-4.283-10.027-6.639-16.101-6.639c-0.026,0-0.051,0-0.076,0c-12.599,0.041-22.815,10.324-22.774,22.923
								c0.041,12.573,10.283,22.773,22.847,22.773c0.028,0,0.069,0.001,0.083,0c0.582,0,1.141,0.23,1.554,0.641
								c0.416,0.412,0.649,0.972,0.651,1.557l0.153,46.912c0.004,1.218-0.98,2.208-2.197,2.212
								C595.315,1071.166,595.313,1071.166,595.311,1071.166z"/>
						</g>
						<path style="fill:#D87355;" d="M546.457,1177.737c-0.955,0-1.835-0.626-2.115-1.59
							c-20.912-71.884-28.161-80.078-29.976-80.801c-1.135,0.133-2.194-0.635-2.414-1.773c-0.23-1.196,0.552-2.352,1.747-2.583
							c3.703-0.712,9.903-1.921,34.875,83.925c0.34,1.169-0.331,2.393-1.501,2.733
							C546.868,1177.708,546.661,1177.737,546.457,1177.737z"/>
						<path style="fill:#D87355;" d="M641.407,1175.864c-0.203,0-0.411-0.029-0.617-0.088c-1.169-0.34-1.841-1.564-1.501-2.733
							c24.972-85.841,31.166-84.638,34.876-83.926c1.195,0.23,1.978,1.387,1.747,2.583c-0.22,1.139-1.275,1.905-2.414,1.773
							c-1.815,0.724-9.064,8.917-29.976,80.802C643.243,1175.238,642.362,1175.864,641.407,1175.864z"/>
						<path style="fill:#D87355;" d="M497.75,1182.403l24.421,120.822c0,0-74.55,64.267-159.382,185.089
							c0,0,230.076,92.545,461.438,0c0,0-100.257-128.624-159.382-182.608l26.992-124.589c0,0-50.128-34.704-98.373,21.851
							C593.463,1202.969,553.019,1138.702,497.75,1182.403z"/>
					</g>
				</g>
				<g>
					<rect x="350.434" y="899.434" style="fill:#F7F1EB;" width="32.019" height="791.53"/>
					<rect x="1783.248" y="897.964" style="fill:#F7F1EB;" width="35.277" height="791.53"/>
					
						<rect x="352.639" y="895.892" transform="matrix(-1 -1.224647e-16 1.224647e-16 -1 2169.2771 1834.7762)" style="fill:#F7F1EB;" width="1464" height="42.992"/>
					<rect x="1542.145" y="924.79" style="fill:#F7F1EB;" width="35.277" height="749.638"/>
					<rect x="1021.79" y="921.483" style="fill:#F7F1EB;" width="35.277" height="749.639"/>
					<rect x="347.475" y="1587.338" style="fill:#D87355;" width="1471.643" height="102.25"/>
					<rect x="347.475" y="1587.338" style="fill:#F7F1EB;" width="1471.643" height="35.277"/>
					<path style="fill:#D3BBA3;" d="M347.475,1690.924c-0.004,0-0.01,0-0.014,0c-1.218-0.008-2.198-1.001-2.191-2.219l5.163-793.696
						c0.008-1.212,0.993-2.19,2.205-2.19h1464c1.214,0,2.201,0.982,2.205,2.196l3.032,792.081c0.004,1.218-0.979,2.209-2.196,2.214
						c-0.003,0-0.007,0-0.009,0c-1.214,0-2.2-0.981-2.205-2.196l-3.023-789.885H354.829l-5.149,791.505
						C349.673,1689.947,348.686,1690.924,347.475,1690.924z"/>
				</g>
			</g>
		</g>
		<g>
			<g>
				<path style="fill:#84524D;" d="M1319.45,1099.218c-6.679-1.479-14.233,5.268-20.567,4.925
					c-6.773-0.366-13.574-7.813-19.929-7.085c-6.688,0.766-11.658,9.623-17.855,11.36c-6.465,1.812-15.247-3.156-21.144-0.562
					c-6.168,2.714-8.503,12.627-14.013,15.882c-5.877,3.472-15.603,0.726-20.686,4.436c-5.677,4.144-6.076,14.368-10.701,18.295
					c-5.792,4.916-15.805,3.64-19.834,7.257c-5.719,5.133-6.325,16.156-12.203,21.691c-5.643,5.314-16.692,5.255-22.382,10.892
					c-5.543,5.492-5.584,16.528-11.081,22.284c-5.422,5.676-16.456,6.231-21.746,12.122c-5.271,5.871-4.628,16.887-9.682,22.931
					c-5.086,6.082-16.055,7.416-20.835,13.632c-4.856,6.315-3.308,17.237-7.758,23.647c-4.565,6.576-15.883,10.493-19.923,17.123
					c2.704,3.633,12.68,5.76,16.394,10.194c3.074,3.67,0.74,12.683,4.539,16.721c3.359,3.571,12.467,1.811,16.414,5.549
					c3.606,3.415,2.327,12.625,6.44,16.089c3.827,3.223,12.668,0.41,16.947,3.603c4.031,3.009,3.84,12.3,8.283,15.222
					c4.217,2.774,12.664-1.068,17.261,1.577c4.385,2.523,5.302,11.77,10.041,14.132c6.421,3.2,15.961-0.978,22.283,1.557
					c6.667,2.674,10.688,12.26,17.182,14.273c6.88,2.132,15.63-3.53,22.242-2.048c7.066,1.584,12.569,10.403,19.238,11.355
					c7.232,1.033,14.998-5.936,21.648-5.503c7.411,0.482,14.216,8.341,20.749,8.271c7.693-0.082,14.346-8.174,20.572-8.713
					c8.556-0.741,17.245,5.709,22.426,4.851c15.44-6.617,25.001-21.196,36.305-30.144c12.893-10.206,28.853-16.606,36.939-29.016
					c8.671-13.309,7.792-30.712,11.663-45.504c3.942-15.065,13.176-29.702,12.929-45.166c-0.249-15.629-10.031-30.172-13.74-45.028
					c-3.867-15.486-2.204-32.899-8.917-46.229c-7.464-14.821-22.653-23.52-32.418-33.919
					C1342.482,1117.345,1332.819,1102.179,1319.45,1099.218z"/>
				<g>
					<path style="fill:#BC8271;" d="M1209.329,1382.71c-44.034-25.568-116.567,65.805-144.288,113.091
						c-24.148,41.193-79.604,157.641-38.352,177.556c41.194,19.886,84.141-28.261,149.147-100.852
						C1261.063,1477.335,1247.468,1404.855,1209.329,1382.71z"/>
				</g>
				<g>
					<g>
						<path style="fill:#776E42;" d="M1722.814,1239.286c-0.885,0-1.719-0.536-2.057-1.411l-38.661-100.191
							c-5.835-15.124-5.432-31.615,1.135-46.435c6.567-14.821,18.514-26.196,33.637-32.032c15.124-5.836,31.615-5.433,46.435,1.135
							c14.821,6.567,26.196,18.513,32.032,33.637l38.661,100.19c0.21,0.546,0.195,1.152-0.042,1.687
							c-0.237,0.535-0.676,0.953-1.222,1.164l-109.125,42.108C1723.347,1239.238,1723.079,1239.286,1722.814,1239.286z
							 M1738.736,1059.527c-6.846,0-13.702,1.266-20.281,3.803c-14.025,5.412-25.102,15.961-31.193,29.705
							c-6.09,13.743-6.464,29.036-1.052,43.061l37.866,98.134l105.011-40.521l-37.867-98.133
							c-5.411-14.025-15.96-25.103-29.704-31.193C1754.22,1061.149,1746.484,1059.527,1738.736,1059.527z"/>
						<polygon style="fill:#ff6900;" points="1753.766,1711.495 2107.215,1575.11 1910.695,1133.006 1602.378,1251.976 						"/>
						<polygon style="fill:#776E42;" points="1910.695,1133.006 2122.649,1514.416 2107.215,1575.11 						"/>
						<polygon style="fill:#ff6900;" points="1910.695,1133.006 2122.649,1514.416 2161.408,1491.909 						"/>
					</g>
					<g>
						<path style="fill:#E0AA63;" d="M1787.391,1222.199c-0.001,0-0.002,0-0.003,0l-112.999-0.159
							c-0.585-0.001-1.146-0.234-1.558-0.648c-0.413-0.414-0.645-0.975-0.644-1.56l0.146-103.747
							c0.023-15.68,6.149-30.414,17.252-41.486c11.083-11.051,25.8-17.135,41.449-17.135c0.028,0,0.056,0,0.085,0
							c15.68,0.022,30.414,6.149,41.486,17.252c11.073,11.103,17.158,25.854,17.136,41.535l-0.145,103.747
							c-0.001,0.585-0.234,1.145-0.648,1.558C1788.535,1221.968,1787.975,1222.199,1787.391,1222.199z M1676.6,1217.634
							l108.589,0.152l0.142-101.542c0.021-14.502-5.608-28.145-15.848-38.414c-10.24-10.269-23.868-15.936-38.37-15.956
							c-0.026,0-0.053,0-0.079,0c-14.473,0-28.084,5.626-38.334,15.848c-10.27,10.24-15.937,23.867-15.957,38.37L1676.6,1217.634z"
							/>
						<polygon style="fill:#EFBC73;" points="1538.608,1657.996 1904.604,1658.51 1881.893,1191.664 1562.631,1191.215 						"/>
						<polygon style="fill:#E0AA63;" points="1881.893,1191.664 1939.692,1609.224 1904.604,1658.51 						"/>
						<polygon style="fill:#EFBC73;" points="1881.893,1191.664 1939.692,1609.224 1982.462,1602.478 						"/>
					</g>
					<g>
						<path style="fill:#BC8271;" d="M1347.019,1390.962c-16.212-59.087,90.595-72.846,145.373-85.29
							c47.719-10.84,188.844-39.458,195.53,7.008c6.676,46.401-51.315,79.105-144.698,114.491
							C1333.719,1506.561,1360.787,1441.139,1347.019,1390.962z"/>
						<g>
							<path style="fill:#BC8271;" d="M1565.126,1324.496c0-0.003,70.522-196.019,81.978-220.747c1.2-2.589,3.296-7.17,7.533-12.161
								c15.697-18.497,35.616-13.007,60.997-24.924c28.798-13.523,37.358-37.442,44.738-34.042
								c5.133,2.365,4.444,12.296-4.223,30.393c-0.001,0.001,0.002,0.003,0.003,0.002c8.166-12.992,20.009-30.129,27.176-25.596
								c7.995,5.677-3.555,27.445-11.186,40.272c9.237-15.526,18.793-21.018,22.159-17.495c5.298,5.546,0.939,19.254-12.064,39.3
								c0,0,0,0.002,0.001,0.001c12.845-11.333,17.651-12.168,19.867-8.328c4.046,7.011-6.955,23.29-18.886,36.191
								c-13.432,14.523-28.887,21.127-38.731,25.059c-0.002,0.001-0.005,0.003-0.006,0.006
								c-27.385,83.117-36.427,111.217-57.417,178.722C1676.265,1365.881,1557.963,1396.648,1565.126,1324.496z"/>
							<path style="fill:#363E44;" d="M1561.358,1335.914c-0.264,0-0.531-0.047-0.791-0.147c-1.136-0.437-1.703-1.712-1.267-2.849
								c0.131-0.342,13.177-34.3,16.436-43.326c0.413-1.146,1.677-1.737,2.822-1.325c1.146,0.414,1.739,1.677,1.325,2.823
								c-3.274,9.067-16.335,43.068-16.466,43.41C1563.079,1335.376,1562.244,1335.914,1561.358,1335.914z"/>
							<path style="fill:#363E44;" d="M1696.647,1137.64c-0.256,0-0.516-0.045-0.769-0.139c-1.141-0.425-1.723-1.695-1.297-2.836
								c2.055-5.522,6.279-13.403,14.729-19.586c11.951-8.745,24.943-8.447,29.977-7.912c1.211,0.129,2.089,1.214,1.96,2.425
								c-0.129,1.212-1.236,2.09-2.426,1.96c-4.522-0.48-16.198-0.751-26.909,7.087c-7.567,5.536-11.354,12.608-13.2,17.565
								C1698.384,1137.092,1697.542,1137.64,1696.647,1137.64z"/>
							<path style="fill:#363E44;" d="M1733.983,1083.365c-0.797,0-1.566-0.433-1.958-1.189c-0.562-1.08-0.141-2.411,0.94-2.973
								c3.28-1.704,6.414-3.72,9.315-5.99c4.211-3.295,7.973-7.154,11.185-11.47c0.727-0.976,2.108-1.181,3.085-0.453
								c0.976,0.727,1.179,2.108,0.452,3.085c-3.446,4.631-7.484,8.773-12.005,12.311c-3.115,2.438-6.479,4.602-10,6.431
								C1734.672,1083.285,1734.325,1083.365,1733.983,1083.365z"/>
							<path style="fill:#363E44;" d="M1751.099,1095.988c-0.797,0-1.566-0.433-1.958-1.189c-0.562-1.081-0.141-2.411,0.94-2.974
								c3.28-1.704,6.414-3.72,9.316-5.991c4.208-3.294,7.971-7.153,11.184-11.47c0.728-0.977,2.108-1.178,3.085-0.452
								c0.976,0.727,1.179,2.109,0.452,3.086c-3.448,4.632-7.486,8.773-12.005,12.309c-3.115,2.438-6.479,4.602-10,6.431
								C1751.789,1095.908,1751.441,1095.988,1751.099,1095.988z"/>
							<path style="fill:#363E44;" d="M1760.586,1120.059c-0.797,0-1.567-0.433-1.958-1.188c-0.562-1.081-0.141-2.411,0.94-2.974
								c3.28-1.705,6.414-3.72,9.315-5.99c4.21-3.295,7.973-7.154,11.184-11.47c0.727-0.976,2.107-1.18,3.086-0.453
								c0.976,0.727,1.179,2.108,0.452,3.085c-3.446,4.632-7.484,8.773-12.005,12.311c-3.114,2.437-6.477,4.601-9.999,6.431
								C1761.276,1119.978,1760.928,1120.059,1760.586,1120.059z"/>
							<g>
								<polygon style="fill:#FFFFFF;" points="1743.292,1132.066 1937.123,1008.161 1898.97,948.476 1881.589,940.227 
									1880.271,919.225 1863.616,893.17 1669.785,1017.075 1686.44,1043.13 1702.816,1051.069 1705.139,1072.381 								"/>
								<path style="fill:#363E44;" d="M1740.228,1141.463l-75.882-118.706l197.548-126.28l75.882,118.706L1740.228,1141.463z
									 M1670.437,1024.097l71.132,111.276l190.115-121.531l-71.132-111.276L1670.437,1024.097z"/>
								
									<rect x="1677.68" y="978.445" transform="matrix(-0.8426 0.5386 -0.5386 -0.8426 3839.5085 869.2739)" style="fill:#363E44;" width="230.05" height="34.716"/>
							</g>
							<path style="fill:#BC8271;" d="M1694.903,1083.024c11.019-29.489,12.046-46.34,3.226-49.647
								c-7.859-2.947-26.876,24.229-48.41,65.297C1662.699,1095.443,1681.924,1086.255,1694.903,1083.024z"/>
							<path style="fill:#363E44;" d="M1667.811,1084.629c-0.817,0-1.602-0.456-1.984-1.24c-0.534-1.094-0.079-2.414,1.016-2.948
								c6.422-3.13,13.36-4.639,20.708-6.237c3.378-0.735,6.872-1.495,10.479-2.445c1.185-0.31,2.383,0.394,2.694,1.571
								c0.311,1.177-0.393,2.384-1.57,2.694c-3.701,0.974-7.242,1.745-10.667,2.49c-7.081,1.54-13.767,2.995-19.713,5.892
								C1668.464,1084.557,1668.135,1084.629,1667.811,1084.629z"/>
						</g>
					</g>
					<path style="fill:#776E42;" d="M1818.752,1163.004c-0.885,0-1.719-0.536-2.057-1.411l-25.474-66.016
						c-5.411-14.025-15.96-25.103-29.704-31.193c-13.743-6.09-29.037-6.463-43.062-1.052c-1.13,0.437-2.411-0.126-2.851-1.263
						c-0.438-1.136,0.127-2.413,1.264-2.851c15.124-5.836,31.615-5.433,46.435,1.135c14.821,6.567,26.196,18.513,32.032,33.637
						l25.474,66.016c0.438,1.136-0.127,2.413-1.264,2.851C1819.285,1162.956,1819.017,1163.004,1818.752,1163.004z"/>
					<path style="fill:#E0AA63;" d="M1787.458,1174.694c-0.001,0-0.002,0-0.003,0c-1.218-0.002-2.204-0.99-2.202-2.208l0.078-56.241
						c0.021-14.502-5.608-28.145-15.848-38.414c-10.24-10.269-23.868-15.936-38.37-15.956c-6.253-0.045-12.246,1.013-18.022,3.035
						c-1.15,0.404-2.407-0.203-2.81-1.352c-0.403-1.149,0.203-2.407,1.352-2.81c6.248-2.188,12.869-3.257,19.486-3.283
						c15.68,0.022,30.414,6.149,41.486,17.252c11.073,11.103,17.158,25.854,17.136,41.535l-0.079,56.241
						C1789.661,1173.708,1788.675,1174.694,1787.458,1174.694z"/>
				</g>
				<g>
					<path style="fill:#363E44;" d="M1566.024,2162.795l-364.233-0.716c0,0-104.748-224.468-66.396-362.313
						c27.262-97.983,96.516-162.593,96.516-162.593l-92.125-240.049l74.908-37.421l215.408-38.601l5.434,93.769
						c14.753,7.273,24.907,22.455,24.907,40.016c0,15.714-8.135,29.52-20.416,37.463l6.816,117.608
						c0,0,84.183,72.025,112.721,168.89C1598.193,1909.965,1566.024,2162.795,1566.024,2162.795z"/>
					<path style="fill:#F7F1EB;" d="M1280.894,1540.246c-22.222,0-41.519-15.789-45.885-37.543c-0.24-1.194,0.534-2.356,1.728-2.596
						c1.2-0.244,2.357,0.535,2.596,1.728c3.953,19.702,21.432,34.001,41.561,34.001c13.323,0,25.608-6.08,33.708-16.682
						c0.737-0.967,2.121-1.153,3.09-0.413c0.968,0.739,1.153,2.123,0.413,3.09
						C1309.166,1533.534,1295.603,1540.246,1280.894,1540.246z"/>
				</g>
				<g>
					<path style="fill:#E0AA63;" d="M1004.017,1359.631c-0.215,0-0.434-0.032-0.65-0.098c-1.164-0.358-1.816-1.592-1.458-2.756
						c8.622-28.009-7.007-58.288-34.842-67.498c-26.681-8.829-56.131,4.509-67.051,30.362c-0.476,1.121-1.769,1.647-2.89,1.173
						c-1.122-0.474-1.647-1.767-1.173-2.889c11.809-27.955,43.656-42.377,72.499-32.833c30.096,9.958,46.995,42.698,37.671,72.982
						C1005.831,1359.023,1004.959,1359.631,1004.017,1359.631z"/>
					<g>
						<path style="fill:#BC8271;" d="M1130.382,1598.072c-43.417-67.748-127.88-185.818-131.629-222.063
							c-0.769-7.425-5.107-23.607,3.939-39.286c11.024-19.108,5.982,1.154,11.759,4.042c5.88,2.94,24.311-26.308,2.768-35.068
							c0.053-0.813,1.539-9.115-2.604-14.204c-5.064-6.221-13.172-5.148-13.968-4.972c1.065-4.616,0.118-9.706-1.776-12.31
							c-2.893-3.978-8.641-5.563-17.164-4.735c0.474-2.722,1.226-6.441-2.722-11.363c-8.641-10.772-40.726,2.325-58.119,21.78
							c-21.244,23.761-18.019,59.82-13.495,87.357c17.838,108.58,81.88,242.987,107.954,295.453
							C1053.678,1641.16,1092.03,1619.616,1130.382,1598.072z"/>
						<path style="fill:#363E44;" d="M1116.119,1578.376c-0.717,0-1.419-0.348-1.843-0.992c-6.187-9.387-12.806-19.33-19.633-29.586
							c-10.654-16.003-21.669-32.55-32.421-49.049c-0.664-1.02-0.377-2.386,0.644-3.051c1.02-0.664,2.386-0.376,3.051,0.644
							c10.74,16.48,21.749,33.018,32.396,49.013c6.832,10.261,13.455,20.21,19.645,29.603c0.67,1.017,0.389,2.384-0.628,3.054
							C1116.956,1578.259,1116.535,1578.376,1116.119,1578.376z"/>
						<path style="fill:#363E44;" d="M987.509,1316.776c-0.645,0-1.284-0.281-1.719-0.824c-0.763-0.949-0.613-2.337,0.337-3.1
							c4.658-3.744,9.927-6.414,15.658-7.934c4.54-1.205,9.231-1.637,13.942-1.288c1.214,0.09,2.125,1.148,2.035,2.363
							c-0.09,1.214-1.139,2.121-2.362,2.035c-4.22-0.314-8.42,0.074-12.484,1.152c-5.131,1.361-9.851,3.753-14.026,7.109
							C988.482,1316.617,987.994,1316.776,987.509,1316.776z"/>
						<path style="fill:#363E44;" d="M972.25,1297.156c-0.645,0-1.283-0.281-1.719-0.823c-0.763-0.949-0.612-2.337,0.337-3.1
							c4.656-3.744,9.924-6.414,15.657-7.934c4.54-1.205,9.227-1.636,13.942-1.288c1.214,0.09,2.125,1.148,2.035,2.363
							c-0.09,1.214-1.151,2.112-2.362,2.035c-4.219-0.315-8.421,0.074-12.484,1.152c-5.061,1.343-9.91,3.801-14.024,7.109
							C973.223,1296.996,972.735,1297.156,972.25,1297.156z"/>
						<path style="fill:#363E44;" d="M953.031,1283.012c-0.585,0-1.168-0.231-1.602-0.69c-0.836-0.884-0.798-2.28,0.087-3.117
							c4.342-4.109,9.377-7.194,14.966-9.171c4.43-1.568,9.071-2.378,13.793-2.408c1.13,0.009,2.211,0.973,2.219,2.191
							c0.008,1.218-0.973,2.211-2.191,2.219c-4.23,0.027-8.384,0.752-12.35,2.155c-5.003,1.77-9.514,4.535-13.407,8.217
							C954.12,1282.813,953.575,1283.012,953.031,1283.012z"/>
					</g>
					<g>
						<path style="fill:#776E42;" d="M1017.557,1668.435c-1.167,0-2.14-0.916-2.199-2.094l-5.382-107.256
							c-1.677-33.421,24.15-61.976,57.571-63.653c16.199-0.812,31.729,4.729,43.751,15.603
							c12.022,10.873,19.091,25.778,19.903,41.969l5.381,107.256c0.061,1.216-0.875,2.252-2.091,2.313l-116.82,5.861
							C1017.633,1668.434,1017.595,1668.435,1017.557,1668.435z M1070.655,1499.763c-0.959,0-1.922,0.024-2.886,0.073
							c-30.994,1.555-54.944,28.035-53.389,59.028l5.272,105.054l112.416-5.64l-5.27-105.054
							c-0.754-15.013-7.308-28.835-18.458-38.919C1097.907,1504.869,1084.62,1499.763,1070.655,1499.763z"/>
						<polygon style="fill:#ff6900;" points="898.563,2126.52 1276.937,2107.536 1228.567,1626.146 898.508,1642.706 						"/>
						<polygon style="fill:#776E42;" points="1228.567,1626.146 1310.582,2054.716 1276.937,2107.536 						"/>
						<polygon style="fill:#ff6900;" points="1228.567,1626.146 1310.582,2054.716 1354.435,2045.462 						"/>
					</g>
					<g>
						<path style="fill:#E0AA63;" d="M971.06,1459.274c-0.229,0-0.463-0.036-0.692-0.112l-107.279-35.496
							c-0.555-0.184-1.015-0.581-1.278-1.103c-0.263-0.523-0.307-1.128-0.123-1.683l32.591-98.496
							c0.498-1.509,1.063-3.009,1.674-4.458c0.475-1.121,1.768-1.647,2.89-1.173c1.122,0.474,1.647,1.767,1.173,2.889
							c-0.567,1.341-1.089,2.73-1.551,4.128l-31.898,96.403l103.093,34.111l31.898-96.402c0.12-0.365,0.238-0.733,0.351-1.101
							c0.357-1.164,1.593-1.819,2.754-1.461c1.165,0.357,1.819,1.59,1.462,2.754c-0.122,0.397-0.249,0.794-0.38,1.191
							l-32.591,98.498C972.847,1458.687,971.985,1459.274,971.06,1459.274z"/>
						<polygon style="fill:#EFBC73;" points="597.756,1795.272 945.225,1910.243 1069.681,1459.719 766.581,1359.429 						"/>
						<polygon style="fill:#E0AA63;" points="1069.681,1459.719 993.969,1874.406 945.225,1910.243 						"/>
						<polygon style="fill:#EFBC73;" points="1069.681,1459.719 993.969,1874.406 1036.703,1881.376 						"/>
					</g>
				</g>
			</g>
			<g>
				<path style="fill:#BC8271;" d="M1243.767,1201.84c-8.297,35.026,7.7,94.081,42.727,102.379
					c35.026,8.297,75.818-37.305,84.115-72.333c8.297-35.026-11.544-65.243-58.315-70.267
					C1276.503,1157.775,1252.064,1166.813,1243.767,1201.84z"/>
				
					<ellipse transform="matrix(0.9736 -0.2283 0.2283 0.9736 -244.8188 314.938)" style="fill:#BC8271;" cx="1239.166" cy="1215.897" rx="19.667" ry="27.141"/>
				
					<rect x="1256.899" y="1251.209" transform="matrix(-1 -1.224647e-16 1.224647e-16 -1 2593.0698 2610.9128)" style="fill:#BC8271;" width="79.272" height="108.494"/>
				
					<ellipse transform="matrix(0.986 -0.1666 0.1666 0.986 -211.8283 234.9231)" style="fill:#BC8271;" cx="1294.434" cy="1380.144" rx="120.595" ry="43.339"/>
				<path style="fill:#363E44;" d="M1242.438,1237.87c-1.101,0-2.054-0.825-2.187-1.947c-1.486-12.579-1.012-24.54,1.369-34.591
					c0.53-2.235,1.178-4.463,1.926-6.621c0.397-1.151,1.651-1.762,2.806-1.361c1.15,0.399,1.759,1.655,1.361,2.805
					c-0.7,2.019-1.306,4.102-1.801,6.194c-2.264,9.554-2.707,20.986-1.281,33.058c0.143,1.209-0.722,2.305-1.931,2.448
					C1242.613,1237.865,1242.525,1237.87,1242.438,1237.87z"/>
				<path style="fill:#363E44;" d="M1295.177,1308.119c-3.32,0-6.571-0.373-9.74-1.123c-10.141-2.403-19.27-8.601-27.13-18.422
					c-0.761-0.951-0.607-2.338,0.343-3.099c0.95-0.76,2.336-0.607,3.1,0.344c7.23,9.034,15.542,14.715,24.703,16.885
					c16.714,3.961,32.895-4.49,43.528-12.274c0.983-0.72,2.362-0.504,3.082,0.476c0.719,0.983,0.505,2.363-0.477,3.082
					C1319.825,1303.33,1307.073,1308.119,1295.177,1308.119z"/>
				<path style="fill:#363E44;" d="M1312.292,1254.654c-0.971,0-1.86-0.646-2.127-1.628c-0.319-1.175,0.376-2.386,1.551-2.705
					c3.666-0.994,4.622-2.85,4.681-3.481c0.1-1.081-0.287-1.708-1.254-3.147c-0.83-1.235-1.863-2.773-2.652-5.108
					c-0.502-1.481-0.791-3.052-0.86-4.67c-0.052-1.216,0.891-2.245,2.108-2.297c1.212-0.063,2.246,0.892,2.297,2.108
					c0.052,1.2,0.264,2.359,0.632,3.445c0.601,1.778,1.38,2.939,2.135,4.062c1.098,1.635,2.235,3.326,1.984,6.015
					c-0.229,2.453-2.44,5.843-7.917,7.328C1312.677,1254.629,1312.482,1254.654,1312.292,1254.654z"/>
				<path style="fill:#363E44;" d="M1297.675,1273.235c-2.506,0-7.194-0.597-10.963-4.515c-4.401-4.573-4.22-10.185-4.06-11.797
					c0.121-1.211,1.188-2.099,2.413-1.976c1.211,0.121,2.096,1.2,1.976,2.412c-0.081,0.809-0.321,5.009,2.85,8.303
					c3.499,3.637,8.281,3.171,8.822,3.109c1.186-0.149,2.308,0.714,2.454,1.923c0.146,1.209-0.715,2.308-1.924,2.454
					C1298.961,1273.183,1298.412,1273.235,1297.675,1273.235z"/>
				
					<ellipse transform="matrix(0.6408 -0.7677 0.7677 0.6408 -465.412 1498.3845)" style="fill:#84524D;" cx="1368.413" cy="1246.514" rx="27.141" ry="19.667"/>
				<path style="fill:#363E44;" d="M1355.916,1265.968c-0.424,0-0.852-0.122-1.229-0.376c-1.01-0.68-1.277-2.051-0.596-3.061
					c7.056-10.472,12.025-21.245,14.372-31.152c0.353-1.489,0.655-3.003,0.897-4.502c0.195-1.202,1.323-2.018,2.529-1.824
					c1.201,0.194,2.019,1.326,1.825,2.528c-0.26,1.603-0.582,3.223-0.959,4.815c-2.469,10.418-7.658,21.691-15.008,32.6
					C1357.321,1265.627,1356.625,1265.968,1355.916,1265.968z"/>
				<g>
					<path style="fill:#FFFFFF;" d="M1373.898,1212.638c0,0-6.268,10.592-17.441,17.188c-2.233,1.318-6.189-20.533-2.2-20.591
						C1365.115,1209.075,1373.898,1212.638,1373.898,1212.638z"/>
					<path style="fill:#363E44;" d="M1317.065,1231.823c0,0,16.42,6.66,32.115,1.362c2.635-0.889,5.079-2.064,7.326-3.395
						c0.407-0.987,0.77-2.002,1.034-3.07c1.549-6.265,0.181-12.556-3.213-17.482c-4.01,0.052-8.302,0.606-12.544,2.038
						C1326.089,1216.574,1317.065,1231.823,1317.065,1231.823z"/>
				</g>
				<g>
					<path style="fill:#FFFFFF;" d="M1276.296,1206.229c12.562,8.943,18.148,23.301,18.148,23.301s-10.203,2.303-21.87,0.083
						C1268.52,1228.842,1274.911,1205.244,1276.296,1206.229z"/>
					<path style="fill:#363E44;" d="M1276.291,1206.231c-1.384-0.984-2.85-1.907-4.405-2.735
						c-15.672-8.336-34.196-4.156-34.196-4.156s6.886,17.699,22.558,26.034c4.048,2.155,8.286,3.468,12.346,4.238
						C1277.921,1223.189,1279.48,1214.222,1276.291,1206.231z"/>
				</g>
				<path style="fill:#84524D;" d="M1295.437,1160.83c8.022-7.815,10.119-17.649,17.853-23.186c9.25-6.623,21.923-4.904,30.67-8.325
					c10.524-4.115,19.414-13.378,29.053-12.955c10.363,0.455,17.986,10.646,27.121,16.221c8.13,4.962,20.774,6.255,27.771,15.174
					c5.835,7.438,4.752,20.31,9.703,30.442c4.211,8.617,15.208,15.285,18.722,25.815c3.079,9.227-1.532,21.284,0.972,31.956
					c1.573,6.704,10.885,12.795,12.886,21.425c1.677,7.234-4.012,16.788-2.071,24.925c1.781,7.466,11.156,13.396,13.131,21.291
					c1.902,7.604-3.578,17.263-1.521,24.975c2.057,7.71,11.615,13.334,13.804,20.869c2.269,7.808-2.766,17.717-0.381,25.027
					c2.588,7.933,12.499,12.892,15.192,19.851c3.159,8.163-1.059,16.564,2.194,22.784c-3.9,0.995-8.808,6.615-21.388,8.317
					c-7.573,1.025-17.329-5.51-26.857-4.352c-8.173,0.993-15.998,9.677-24.998,10.706c-8.479,0.969-18.056-5.724-26.784-4.774
					c-8.721,0.949-16.632,9.545-25.13,10.427c-9.003,0.934-18.522-5.857-26.731-5.055c-9.529,0.931-17.624,9.432-25.268,10.101
					c-12.262,1.073-18.173-3.181-22.65-3.085c2.766-5.899-1.899-12.087,0.505-17.719c2.564-6.008,12.078-8.979,14.256-14.691
					c2.332-6.116-2.811-14.653-0.889-20.441c2.068-6.226,11.281-10.014,12.915-15.872c1.767-6.339-4.187-14.334-2.878-20.259
					c1.422-6.439,10.163-11.204,11.109-17.174c1.036-6.536-5.842-13.752-5.293-19.752c0.605-6.608,8.636-12.467,8.764-18.462
					c0.145-6.814-7.571-13.273-7.714-19.411c-0.16-6.872,7.207-13.726,6.724-19.798c-0.551-6.922-8.954-12.449-9.87-18.4
					c-1.071-6.958,5.174-14.828,3.693-20.569c-1.794-6.952-11.144-10.604-13.387-15.964c-2.846-6.801,0.722-16.117-2.541-20.74
					c-4.4-6.234-14.427-5.329-18.854-8.517C1300.389,1166.679,1299.787,1161.672,1295.437,1160.83z"/>
				<g>
					
						<ellipse transform="matrix(0.978 -0.2087 0.2087 0.978 -214.0716 293.8252)" style="fill:#FFFFFF;" cx="1285.057" cy="1161.147" rx="206.314" ry="44.729"/>
					<path style="fill:#FFFFFF;" d="M1199.627,1157.232c-4.696-84.847,8.163-112.498,18.606-115.178
						c14.776-3.788,24.96,28.926,42.716,23.944c17.782-4.99,15.021-33.262,30.788-36.628c16.713-3.566,44.938,40.753,67.568,91.986
						c-6.643,12.259-39.853,37.401-72.692,44.41C1249.009,1173.792,1208.863,1162.225,1199.627,1157.232z"/>
					<path style="fill:#D87355;" d="M1359.305,1121.356c-3.732-8.448-7.617-16.701-11.576-24.59
						c-16.448,10.511-43.812,29.61-68.899,35.383c-30.256,6.962-53.38,2.846-80.166-3.001c0.092,8.58,0.401,17.917,0.964,28.084
						c9.236,4.993,49.382,16.56,86.985,8.534C1319.452,1158.758,1352.662,1133.615,1359.305,1121.356z"/>
					<polygon style="fill:#40484C;" points="1309.821,1119.106 1324.021,1151.478 1343.907,1139.061 1330.387,1107.412 					"/>
				</g>
			</g>
		</g>
		<g>
			<g>
				
					<ellipse transform="matrix(0.6985 -0.7156 0.7156 0.6985 -38.6736 1726.0732)" style="fill:#E0AA63;" cx="2028.943" cy="908.929" rx="24.294" ry="76.721"/>
				
					<rect x="1960.384" y="888.051" transform="matrix(0.7156 0.6985 -0.6985 0.7156 1208.2777 -1166.7664)" style="fill:#E0AA63;" width="153.443" height="25.03"/>
				
					<ellipse transform="matrix(0.6985 -0.7156 0.7156 0.6985 -21.5249 1732.814)" style="fill:#EFBC73;" cx="2045.515" cy="891.95" rx="24.294" ry="76.721"/>
				<path style="fill:#FFFFFF;" d="M2099.086,956.789c-15.915,0-43.305-17.792-65.61-39.563
					c-27.765-27.097-49.56-62.219-37.976-74.09c11.584-11.868,47.227,9.065,74.992,36.164c27.765,27.098,49.56,62.22,37.976,74.09
					l0,0C2106.189,955.724,2102.981,956.789,2099.086,956.789z M2004.886,844.155c-2.764,0-4.883,0.68-6.23,2.061
					c-7.297,7.477,6.474,37.183,37.899,67.855c31.428,30.673,61.465,43.716,68.756,36.24l0,0
					c7.297-7.477-6.472-37.183-37.898-67.855C2041.787,857.447,2017.088,844.155,2004.886,844.155z M2106.889,951.85h0.021H2106.889
					z"/>
			</g>
			<g>
				
					<ellipse transform="matrix(0.9083 -0.4183 0.4183 0.9083 -121.9347 938.5051)" style="fill:#E0AA63;" cx="2079.685" cy="747.376" rx="72.024" ry="22.806"/>
				
					<rect x="2003.071" y="725.662" transform="matrix(0.9083 -0.4183 0.4183 0.9083 -118.1871 935.671)" style="fill:#E0AA63;" width="144.047" height="23.497"/>
				
					<ellipse transform="matrix(0.9083 -0.4183 0.4183 0.9083 -114.3261 932.7534)" style="fill:#EFBC73;" cx="2070.367" cy="727.145" rx="72.024" ry="22.806"/>
				<path style="fill:#FFFFFF;" d="M2029.418,762.378c-9.991,0.001-16.41-2.618-18.765-7.732
					c-6.795-14.755,24.275-38.715,56.958-53.768c17.674-8.14,35.324-13.617,49.701-15.422c15.407-1.935,25.157,0.516,28.183,7.088
					l0,0c3.028,6.573-1.445,15.572-12.934,26.025c-10.716,9.752-26.352,19.604-44.025,27.743
					c-17.674,8.14-35.325,13.617-49.7,15.422C2035.414,762.165,2032.269,762.378,2029.418,762.378z M2126.556,689.242
					c-2.63,0-5.542,0.194-8.695,0.59c-13.94,1.751-31.131,7.096-48.405,15.052c-37.372,17.211-58.874,39.067-54.798,47.918
					c2.051,4.454,10.882,6.158,23.63,4.558c13.939-1.75,31.13-7.096,48.404-15.052c17.275-7.956,32.511-17.544,42.904-27
					c9.501-8.644,13.947-16.464,11.896-20.919l0,0C2139.947,691.036,2134.56,689.242,2126.556,689.242z"/>
			</g>
			<g>
				
					<ellipse transform="matrix(0.1935 -0.9811 0.9811 0.1935 982.7627 2420.1509)" style="fill:#E0AA63;" cx="1963.487" cy="612.29" rx="23.275" ry="73.506"/>
				
					<rect x="1892.149" y="589.315" transform="matrix(0.9811 0.1935 -0.1935 0.9811 153.5418 -369.0623)" style="fill:#E0AA63;" width="147.011" height="23.981"/>
				
					<ellipse transform="matrix(0.1935 -0.9811 0.9811 0.1935 1008.1906 2406.4814)" style="fill:#EFBC73;" cx="1967.887" cy="589.988" rx="23.275" ry="73.505"/>
				<path style="fill:#FFFFFF;" d="M2011.14,620.792c-12.388,0-26.31-1.491-39.688-4.13c-19.478-3.843-37.345-9.872-50.308-16.977
					c-13.88-7.609-20.465-15.45-19.039-22.674c3.202-16.237,43.204-17.448,79.209-10.345c36.008,7.103,72.55,23.414,69.349,39.651
					c0,0,0,0,0,0C2048.648,616.522,2032.096,620.792,2011.14,620.792z M1942.424,566.984c-20.975,0-34.727,4.458-35.994,10.881
					c-0.972,4.931,5.32,11.642,16.833,17.953c12.578,6.894,29.994,12.761,49.041,16.518c41.226,8.133,72.102,2.905,74.031-6.873
					c1.928-9.778-24.652-26.339-65.875-34.471C1966.314,568.202,1953.381,566.984,1942.424,566.984z M2048.499,605.89h0.021
					H2048.499z"/>
			</g>
			<g>
				
					<ellipse transform="matrix(0.7513 -0.6599 0.6599 0.7513 188.9343 1381.3717)" style="fill:#E0AA63;" cx="1927.477" cy="439.98" rx="73.505" ry="23.275"/>
				
					<rect x="1846.582" y="419.577" transform="matrix(0.7513 -0.6599 0.6599 0.7513 192.6482 1374.4031)" style="fill:#E0AA63;" width="147.011" height="23.981"/>
				
					<ellipse transform="matrix(0.7513 -0.6599 0.6599 0.7513 196.4745 1367.2247)" style="fill:#EFBC73;" cx="1912.476" cy="422.901" rx="73.505" ry="23.275"/>
				<path style="fill:#FFFFFF;" d="M1872.215,470.995c-4.455,0-7.863-1.281-10.118-3.847c-4.86-5.533-3.102-15.619,5.085-29.168
					c7.644-12.653,20.067-26.837,34.985-39.938c27.575-24.22,62.777-43.253,73.699-30.818l0,0
					c10.921,12.435-12.495,44.886-40.071,69.107c-14.916,13.102-30.584,23.593-44.118,29.54
					C1883.909,469.284,1877.364,470.995,1872.215,470.995z M1965.832,367.842c-11.954,0-35.645,11.459-60.755,33.513
					c-14.586,12.812-26.704,26.629-34.121,38.905c-6.789,11.238-8.861,20.202-5.544,23.978c3.319,3.777,12.474,2.877,24.492-2.405
					c13.131-5.77,28.396-16.004,42.983-28.816c31.569-27.728,46.243-55.396,39.666-62.883l0,0
					C1971.207,368.602,1968.908,367.842,1965.832,367.842z"/>
			</g>
			<g>
				
					<ellipse transform="matrix(0.0982 -0.9952 0.9952 0.0982 750.1792 2887.4812)" style="fill:#E0AA63;" cx="1968.227" cy="1029.837" rx="22.836" ry="72.118"/>
				
					<rect x="1897.186" y="1007.141" transform="matrix(0.9952 0.0981 -0.0981 0.9952 109.5137 -188.3671)" style="fill:#E0AA63;" width="144.237" height="23.528"/>
				
					<ellipse transform="matrix(0.0981 -0.9952 0.9952 0.0981 774.2426 2869.644)" style="fill:#EFBC73;" cx="1970.416" cy="1007.642" rx="22.836" ry="72.118"/>
				<path style="fill:#FFFFFF;" d="M1998.114,1034.475c-7.142,0-14.482-0.366-21.702-1.079
					c-19.389-1.913-37.411-6.113-50.744-11.829c-14.294-6.127-21.473-13.176-20.762-20.385
					c1.596-16.186,40.567-21.161,76.422-17.625c19.39,1.913,37.411,6.113,50.745,11.829c14.294,6.127,21.473,13.176,20.762,20.385
					C2051.561,1028.698,2026.441,1034.475,1998.114,1034.475z M1959.734,986.872c-29.686,0-49.656,6.799-50.439,14.743
					c-0.482,4.888,6.288,10.832,18.11,15.9c12.931,5.543,30.489,9.624,49.441,11.494c40.998,4.042,70.643-3.958,71.602-13.67
					c0.482-4.888-6.288-10.832-18.111-15.9c-12.93-5.543-30.489-9.625-49.441-11.494
					C1973.433,987.209,1966.34,986.872,1959.734,986.872z"/>
			</g>
		</g>
	</g>
</g>
</svg>
