<?xml version="1.0" encoding="utf-8"?>
<!-- Generator: Adobe Illustrator 27.5.0, SVG Export Plug-In . SVG Version: 6.00 Build 0)  -->
<svg version="1.1" xmlns="http://www.w3.org/2000/svg" xmlns:xlink="http://www.w3.org/1999/xlink" x="0px" y="0px"
	 viewBox="0 0 2500 2500" style="enable-background:new 0 0 2500 2500;" xml:space="preserve">
-
<g id="Illustration">
	<g id="Sleep_tracking_1_">
		<circle style="fill:transparent;" cx="1250" cy="1250" r="915"/>
		<g>
			<path style="fill:#F7F1EB;" d="M1775.364,1391.42c66.595,27.002,157.969,73.363,249.102,153.22
				c55.855,48.944,98.122,98.643,129.46,141.52c-25.555,51.603-73.206,131.02-157.347,203.985
				c-117.963,102.293-242.893,135.747-304.316,147.85c-58.439-40.783-142.203-109.734-216.794-216.355
				c-61.101-87.339-78.087-103.575-170.862-201.822C1443.05,1553.748,1636.921,1457.492,1775.364,1391.42z"/>
			<path style="fill:#F2E6DC;" d="M2118.156,1695.887c0,0-70.755,132.127-175.666,201.558
				c-104.911,69.431-237.697,120.609-237.697,120.609s110.609-101.462,206.682-161.083
				C2007.548,1797.349,2118.156,1695.887,2118.156,1695.887z"/>
		</g>
		<path style="opacity:0.56;fill:#FFFFFF;" d="M2163.647,1408.261c0.31-3.823,0.512-7.677,0.512-11.58
			c0-77.866-63.123-140.989-140.988-140.989c-19.766,0-38.57,4.084-55.644,11.426c-11.521-42.744-50.538-74.208-96.924-74.208
			c-17.973,0-34.827,4.745-49.42,13.017c-35.257-74.4-111.014-125.87-198.817-125.87c-96.257,0-178.015,61.871-207.818,147.993
			c-7.473-0.936-15.069-1.474-22.797-1.474c-100.36,0-181.72,81.337-181.763,181.685H2163.647z"/>
		<path style="opacity:0.56;fill:#FFFFFF;" d="M1238.06,824.766c0.288-3.551,0.475-7.132,0.475-10.758
			c0-72.338-58.641-130.979-130.978-130.979c-18.362,0-35.832,3.794-51.694,10.615c-10.703-39.709-46.95-68.94-90.043-68.94
			c-16.697,0-32.355,4.409-45.911,12.092c-32.754-69.118-103.133-116.934-184.702-116.934c-89.423,0-165.377,57.478-193.064,137.486
			c-6.943-0.87-13.999-1.37-21.179-1.37c-93.235,0-168.819,75.562-168.858,168.787H1238.06z"/>
		<g>
			<path style="fill:#363E44;" d="M2096.108,1615.309c-0.553,0-1-0.448-1-1v-184.518c0-0.552,0.447-1,1-1s1,0.448,1,1v184.518
				C2097.108,1614.861,2096.661,1615.309,2096.108,1615.309z"/>
			<path style="fill:#363E44;" d="M2096.108,1253.672c-0.553,0-1-0.448-1-1v-144.68c0-93.974-76.453-170.427-170.428-170.427
				s-170.428,76.453-170.428,170.427c0,0.552-0.447,1.019-1,1.019s-1-0.429-1-0.981v-0.038c0-95.077,77.351-172.427,172.428-172.427
				s172.428,77.351,172.428,172.427v144.68C2097.108,1253.225,2096.661,1253.672,2096.108,1253.672z"/>
			
				<ellipse transform="matrix(0.2298 -0.9732 0.9732 0.2298 153.2619 2647.3081)" style="fill:#EFBC73;" cx="1749.14" cy="1226.827" rx="50.294" ry="50.294"/>
			<polygon style="fill:#ff6900;" points="1882.415,1239.697 1624.092,1239.697 1668.188,1074.08 1838.318,1074.08 			"/>
		</g>
		<g>
			<path style="fill:#363E44;" d="M1926.612,1507.913h-50.69c-0.577,0-1.092-0.366-1.282-0.911s-0.015-1.152,0.438-1.511
				l29.99-23.796h-46.557c-0.553,0-1-0.448-1-1s0.447-1,1-1h48.397c0.578,0,1.094,0.367,1.283,0.912s0.013,1.153-0.44,1.511
				l-29.988,23.795h48.85c0.553,0,1,0.448,1,1S1927.165,1507.913,1926.612,1507.913z M1906.908,1481.694h0.01H1906.908z
				 M1906.51,1480.55c-0.001,0-0.001,0-0.002,0.001L1906.51,1480.55z"/>
			<path style="fill:#363E44;" d="M2006.105,1446.907h-70.562c-0.646,0-1.202-0.395-1.415-1.005
				c-0.213-0.611-0.022-1.266,0.484-1.668l42.626-33.823h-65.933c-0.553,0-1-0.448-1-1s0.447-1,1-1h67.37
				c0.647,0,1.203,0.395,1.416,1.006s0.022,1.265-0.484,1.667l-42.626,33.824h69.123c0.553,0,1,0.448,1,1
				S2006.658,1446.907,2006.105,1446.907z M1978.677,1410.411h0.01H1978.677z"/>
			<path style="fill:#363E44;" d="M2133.486,1387.361h-96.077c-0.725,0-1.347-0.442-1.585-1.126s-0.026-1.417,0.541-1.868
				l58.854-46.699h-90.811c-0.553,0-1-0.448-1-1s0.447-1,1-1h91.731c0.725,0,1.347,0.442,1.585,1.126
				c0.239,0.685,0.026,1.417-0.541,1.868l-58.854,46.699h95.156c0.553,0,1,0.448,1,1S2134.039,1387.361,2133.486,1387.361z
				 M2096.14,1337.667h0.01H2096.14z"/>
		</g>
		<g>
			<g>
				<path style="fill:#E2A18D;" d="M1416.43,1512.688l85.768-24.519c46.614-13.326,95.205,13.66,108.53,60.274l0,0
					c13.325,46.615-13.66,95.205-60.274,108.53l-235.432,67.303C1315.023,1724.277,1369.816,1526.013,1416.43,1512.688z"/>
				<path style="fill:#E2A18D;" d="M1761.32,1490.615c3.325,5.375,56.282,41.242,35.314,92.069
					c-15.601,37.819-71.404,74.22-133.45,99.688c-73.066,29.993-121.368,42.866-144.905,24.23
					c-46.596-36.895-35.986-141.935,7.912-208.552c31.687-48.085,90.547-73.35,148.233-67.401
					C1731.95,1436.581,1759.197,1487.184,1761.32,1490.615z"/>
				<g>
					<path style="fill:#363E44;" d="M1493.482,1491.604c76.073-25.503,108.486,22.604,108.486,22.604l66.996-64.979
						c15.189-11.53,17.193,24.745,32.576,52.246c30.491,54.514,95.095,81.208,95.095,81.208s17.405,0.399,26.645-46.878
						c7.224-36.961-2.331-76.135-17.291-107.662C1735.092,1278.732,1512.116,1330.766,1493.482,1491.604z"/>
				</g>
				<g>
					<path style="fill:#E2A18D;" d="M1588.903,1503.734c-15.773,19.836-42.152,25.109-58.918,11.777
						c-16.766-13.332-17.571-40.22-1.798-60.056c15.773-19.837,42.151-25.109,58.918-11.777
						C1603.871,1457.009,1604.677,1483.898,1588.903,1503.734z"/>
					<path style="fill:#363E44;" d="M1540.505,1472.255c-0.162,0-0.327-0.04-0.479-0.123c-0.484-0.265-0.662-0.873-0.396-1.357
						c0.776-1.419,1.688-2.788,2.706-4.07c4.023-5.06,9.481-8.495,15.368-9.671c5.952-1.188,11.624,0.064,15.978,3.527
						c2.205,1.753,3.938,3.963,5.149,6.57c0.232,0.501,0.015,1.095-0.485,1.328c-0.502,0.233-1.096,0.016-1.329-0.485
						c-1.079-2.322-2.62-4.29-4.579-5.848c-3.887-3.09-8.978-4.203-14.342-3.131c-5.424,1.084-10.465,4.264-14.193,8.955
						c-0.949,1.193-1.796,2.467-2.519,3.786C1541.201,1472.067,1540.858,1472.255,1540.505,1472.255z"/>
				</g>
				<path style="fill:#363E44;" d="M1619.634,1663.114c-0.964,0-1.972-0.069-3.025-0.207c-0.548-0.072-0.934-0.574-0.861-1.122
					c0.07-0.547,0.564-0.929,1.121-0.862c4.162,0.545,7.494-0.087,9.894-1.879c2.539-1.894,3.321-4.603,4.312-8.033
					c0.775-2.685,1.653-5.727,3.538-9.148c2.404-4.359,5.864-8.217,10.282-11.465c0.445-0.329,1.07-0.231,1.398,0.213
					c0.327,0.445,0.231,1.071-0.213,1.398c-4.185,3.076-7.453,6.715-9.716,10.819c-1.777,3.226-2.623,6.154-3.369,8.738
					c-1.051,3.641-1.959,6.786-5.036,9.082C1625.762,1662.288,1622.971,1663.114,1619.634,1663.114z"/>
				<path style="fill:#363E44;" d="M1579.054,1668.104c-0.221,0-0.443-0.073-0.629-0.223c-2.38-1.929-8.047-7.389-9.28-16.419
					c-1.373-10.062,3.797-17.437,5.414-19.457c0.345-0.43,0.974-0.501,1.405-0.156c0.431,0.345,0.501,0.975,0.155,1.406
					c-1.491,1.863-6.258,8.664-4.992,17.937c1.136,8.322,6.362,13.357,8.558,15.136c0.429,0.348,0.495,0.978,0.147,1.406
					C1579.634,1667.978,1579.346,1668.104,1579.054,1668.104z"/>
				<path style="fill:#363E44;" d="M1494.395,1676.264c-0.472,0-0.892-0.335-0.981-0.816c-15.82-84.44,1.844-127.936,2.024-128.365
					c0.213-0.509,0.796-0.749,1.309-0.535c0.509,0.213,0.749,0.799,0.535,1.309c-0.178,0.425-17.599,43.443-1.903,127.223
					c0.103,0.543-0.256,1.065-0.798,1.167C1494.518,1676.258,1494.455,1676.264,1494.395,1676.264z"/>
				<path style="fill:#363E44;" d="M1652.983,1609.667c-0.147,0-0.297-0.033-0.438-0.102c-25.481-12.463-35.812-32.577-39.99-47.255
					c-4.521-15.886-3.047-28.631-2.982-29.166c0.067-0.548,0.562-0.938,1.113-0.872c0.548,0.066,0.938,0.565,0.873,1.113
					c-0.016,0.128-1.49,12.942,2.941,28.452c4.074,14.262,14.135,33.808,38.924,45.932c0.496,0.243,0.701,0.842,0.459,1.338
					C1653.709,1609.46,1653.354,1609.667,1652.983,1609.667z"/>
				<path style="fill:#363E44;" d="M1709.869,1706.937c-0.147,0-0.297-0.033-0.438-0.102c-25.481-12.463-35.812-32.577-39.99-47.255
					c-4.521-15.886-3.047-28.631-2.982-29.166c0.067-0.548,0.566-0.94,1.113-0.872c0.548,0.066,0.938,0.565,0.873,1.113
					c-0.016,0.128-1.49,12.942,2.941,28.452c4.074,14.262,14.135,33.808,38.924,45.932c0.496,0.243,0.701,0.842,0.459,1.338
					C1710.595,1706.731,1710.239,1706.937,1709.869,1706.937z"/>
			</g>
			<g>
				<path style="fill:#D87355;" d="M1414.55,1514.855c-93.465-49.03-181.499-98.982-347.212-100.513
					c-114.782-1.06-184.698,21.972-302.701,70.424c0,0-1.437,285.074,0,427.315c191.789,4.772,317.893,16.024,555.419,6.793
					C1325.804,1805.592,1287.119,1705.937,1414.55,1514.855z"/>
				<g>
					<g>
						<path style="fill:#D87355;" d="M1067.766,1547.47c-195.485-7.214-437.282,178.99-402.236,294.138
							c30.011,98.609,72.77,81.843,180.558,91.118c166.727,14.348,364.867-137.619,329.437-241.979
							C1161.01,1647.997,1133.733,1549.904,1067.766,1547.47z"/>
						<path style="fill:#363E44;" d="M762.965,1663.099c-0.29,0-0.578-0.125-0.775-0.368c-0.35-0.428-0.286-1.058,0.142-1.407
							c60.122-49.094,136.21-87.157,208.756-104.429c0.538-0.126,1.077,0.204,1.204,0.741c0.128,0.537-0.204,1.076-0.741,1.204
							c-72.262,17.205-148.058,55.123-207.953,104.032C763.411,1663.025,763.187,1663.099,762.965,1663.099z"/>
						<path style="fill:#363E44;" d="M961.455,1727.278c-0.246,0-0.492-0.09-0.686-0.272c-0.402-0.378-0.421-1.011-0.043-1.414
							c25.461-27.049,51.766-47.193,76.068-58.255c23.381-10.643,42.984-11.708,55.197-2.999
							c7.018,5.004,11.912,13.324,14.546,24.729c0.124,0.538-0.212,1.075-0.75,1.199c-0.535,0.125-1.074-0.211-1.199-0.749
							c-2.521-10.915-7.149-18.838-13.759-23.551c-24.695-17.611-78.801,8.041-128.646,60.997
							C961.986,1727.173,961.721,1727.278,961.455,1727.278z"/>
						<path style="fill:#363E44;" d="M1019.461,1678.751c-0.033,0-0.067-0.001-0.102-0.005l-180.836-18.267
							c-0.55-0.056-0.95-0.546-0.894-1.096c0.056-0.549,0.543-0.944,1.096-0.895l180.836,18.267c0.55,0.056,0.95,0.546,0.895,1.096
							C1020.403,1678.367,1019.968,1678.751,1019.461,1678.751z"/>
					</g>
					<g>
						<path style="fill:#E2A18D;" d="M1104.027,1688.784c103.956,5.423,283.255,6.077,307.212,7.095
							c44.784,1.903,284.854,18.353,286.237,53.252c0.66,16.676-45.733,15.597-61.406,14.776
							c12.331,6.904,62.559,28.287,58.426,46.533c-4.856,21.436-68.609,5.12-69.761,5.491c13.234,5.74,66.875,26.474,64.308,40.274
							c-3.339,17.954-59.027,13.632-75.638,11.567c1.46,2.484,54.669,25.416,52.167,36.322
							c-2.771,12.084-54.794,9.297-75.504,10.108c-39.79-1.659-194.77,0.193-270.01,4.674
							c-176.713,10.524-420.28,16.266-440.708,12.88C845.786,1926.192,1058.879,1721.975,1104.027,1688.784z"/>
						<path style="fill:#363E44;" d="M1581.7,1712.644c-0.046,0-0.094-0.003-0.141-0.01c-20.264-2.861-42.963-5.545-67.468-7.976
							c-0.55-0.055-0.951-0.544-0.896-1.094c0.055-0.55,0.554-0.952,1.094-0.896c24.532,2.434,47.26,5.121,67.55,7.986
							c0.547,0.077,0.928,0.583,0.851,1.13C1582.619,1712.283,1582.19,1712.644,1581.7,1712.644z"/>
						<path style="fill:#363E44;" d="M1416.659,1697.133c-0.018,0-0.034,0-0.052-0.001c-2.032-0.102-3.842-0.187-5.412-0.254
							c-7.032-0.298-27.389-0.565-55.563-0.934c-9.76-0.127-20.435-0.267-31.778-0.424c-0.553-0.008-0.994-0.461-0.986-1.014
							c0.008-0.553,0.43-0.981,1.014-0.986c11.344,0.157,22.019,0.297,31.777,0.425c28.191,0.369,48.56,0.635,55.621,0.935
							c1.575,0.067,3.391,0.152,5.429,0.255c0.551,0.028,0.976,0.497,0.948,1.049
							C1417.63,1696.718,1417.188,1697.133,1416.659,1697.133z"/>
						<path style="fill:#363E44;" d="M1636.693,1763.271c-0.128,0-0.257-0.024-0.382-0.076c-8.633-3.566-17.581-6.56-26.596-8.898
							c-16.199-4.202-32.971-6.398-49.849-6.527c-0.552-0.004-0.996-0.456-0.992-1.008c0.005-0.552,0.464-0.988,1.008-0.992
							c17.042,0.13,33.978,2.348,50.335,6.591c9.104,2.361,18.14,5.384,26.857,8.985c0.511,0.211,0.753,0.795,0.542,1.306
							C1637.458,1763.037,1637.086,1763.271,1636.693,1763.271z"/>
						<path style="fill:#363E44;" d="M1625.676,1815.819c-0.092,0-0.187-0.013-0.279-0.041c-1.908-0.555-3.849-1.089-5.767-1.587
							c-16.199-4.202-32.971-6.398-49.849-6.527c-0.552-0.004-0.996-0.456-0.992-1.008c0.004-0.549,0.451-0.992,1-0.992
							c0.003,0,0.005,0,0.008,0c17.042,0.13,33.978,2.348,50.335,6.591c1.938,0.502,3.896,1.042,5.823,1.603
							c0.53,0.154,0.835,0.709,0.681,1.239C1626.509,1815.535,1626.109,1815.819,1625.676,1815.819z"/>
						<path style="fill:#363E44;" d="M1612.345,1868.242c-0.056,0-0.111-0.004-0.168-0.014c-10.782-1.831-21.834-2.802-32.849-2.886
							c-0.552-0.004-0.996-0.456-0.992-1.008c0.004-0.549,0.451-0.992,1-0.992c0.003,0,0.005,0,0.008,0
							c11.121,0.085,22.28,1.065,33.167,2.914c0.545,0.092,0.911,0.609,0.819,1.153
							C1613.247,1867.897,1612.823,1868.242,1612.345,1868.242z"/>
					</g>
					<g>
						<polygon style="fill:#F7F1EB;" points="1284.5,1923.925 1210.319,1923.962 1244.291,1692.393 1318.472,1694.561 						"/>
						
							<rect x="1218.213" y="1731.996" transform="matrix(0.9892 0.1465 -0.1465 0.9892 274.7411 -166.5513)" style="fill:#FFFFFF;" width="99.534" height="99.534"/>
						<path style="fill:#363E44;" d="M1264.396,1832.542c-0.049,0-0.098-0.003-0.147-0.011l-52.938-7.841
							c-0.263-0.039-0.499-0.18-0.656-0.394c-0.158-0.213-0.226-0.48-0.187-0.742l11.396-76.932
							c0.081-0.546,0.593-0.922,1.136-0.843c0.546,0.081,0.924,0.589,0.843,1.136l-11.249,75.943l51.948,7.694
							c0.546,0.081,0.924,0.589,0.843,1.136C1265.312,1832.185,1264.884,1832.542,1264.396,1832.542z"/>
						<path style="fill:#363E44;" d="M1309.919,1839.285c-0.049,0-0.098-0.003-0.147-0.011c-0.546-0.081-0.924-0.589-0.843-1.136
							l14.437-97.47l-45.888-6.797c-0.546-0.081-0.924-0.589-0.843-1.136c0.08-0.546,0.594-0.92,1.136-0.843l46.877,6.943
							c0.546,0.081,0.924,0.589,0.843,1.136l-14.583,98.459C1310.834,1838.928,1310.406,1839.285,1309.919,1839.285z"/>
						
							<rect x="1229.831" y="1743.614" transform="matrix(0.9892 0.1465 -0.1465 0.9892 274.7404 -166.551)" style="fill:#363E44;" width="76.298" height="76.298"/>
						<path style="fill:#363E44;" d="M1306.964,1727.278c-0.045,0-0.09-0.003-0.136-0.009l-59.859-8.141
							c-0.547-0.074-0.931-0.578-0.856-1.125s0.577-0.934,1.126-0.856l59.859,8.141c0.547,0.074,0.931,0.578,0.856,1.125
							C1307.886,1726.915,1307.457,1727.278,1306.964,1727.278z"/>
						<path style="fill:#363E44;" d="M1309.169,1711.845c-0.045,0-0.09-0.003-0.136-0.009l-59.859-8.141
							c-0.547-0.074-0.931-0.578-0.856-1.125c0.075-0.547,0.571-0.929,1.126-0.856l59.859,8.141
							c0.547,0.074,0.931,0.578,0.856,1.125C1310.091,1711.481,1309.662,1711.845,1309.169,1711.845z"/>
						<path style="fill:#363E44;" d="M1284.915,1866.182c-0.045,0-0.09-0.003-0.136-0.009l-59.858-8.141
							c-0.547-0.074-0.931-0.578-0.856-1.125s0.575-0.929,1.126-0.856l59.858,8.141c0.547,0.074,0.931,0.578,0.856,1.125
							C1285.837,1865.818,1285.408,1866.182,1284.915,1866.182z"/>
						<path style="fill:#363E44;" d="M1287.12,1850.749c-0.045,0-0.09-0.003-0.136-0.009l-59.859-8.141
							c-0.547-0.074-0.931-0.578-0.856-1.125c0.075-0.547,0.582-0.93,1.126-0.856l59.859,8.141c0.547,0.074,0.931,0.578,0.856,1.125
							C1288.042,1850.385,1287.613,1850.749,1287.12,1850.749z"/>
						<path style="fill:#363E44;" d="M1280.506,1897.049c-0.045,0-0.09-0.003-0.136-0.009l-59.859-8.141
							c-0.547-0.074-0.931-0.578-0.856-1.125c0.074-0.547,0.576-0.933,1.126-0.856l59.859,8.141
							c0.547,0.074,0.931,0.578,0.856,1.125C1281.428,1896.686,1280.999,1897.049,1280.506,1897.049z"/>
						<path style="fill:#363E44;" d="M1282.711,1881.616c-0.045,0-0.09-0.003-0.136-0.009l-59.859-8.141
							c-0.547-0.074-0.931-0.578-0.856-1.125c0.075-0.547,0.582-0.934,1.126-0.856l59.859,8.141
							c0.547,0.074,0.931,0.578,0.856,1.125C1283.633,1881.252,1283.204,1881.616,1282.711,1881.616z"/>
						<path style="fill:#363E44;" d="M1278.301,1912.483c-0.045,0-0.09-0.003-0.136-0.009l-59.859-8.141
							c-0.547-0.074-0.931-0.578-0.856-1.125c0.075-0.547,0.582-0.932,1.126-0.856l59.859,8.141
							c0.547,0.074,0.931,0.578,0.856,1.125C1279.223,1912.12,1278.794,1912.483,1278.301,1912.483z"/>
					</g>
				</g>
			</g>
		</g>
		<g>
			<polygon style="fill:#FFFFFF;" points="1260.584,1670.189 1166.281,1541.291 335.841,1541.291 335.841,914.517 1260.584,914.517 
							"/>
			<path style="fill:#E6D0BE;" d="M1238.535,1671.189c-0.313,0-0.615-0.147-0.807-0.41l-94.004-128.488H419.849
				c-0.553,0-1-0.448-1-1s0.447-1,1-1h724.384c0.319,0,0.619,0.152,0.807,0.41l92.496,126.428V915.517H432.778c-0.553,0-1-0.448-1-1
				c0-0.552,0.447-1,1-1h805.757c0.553,0,1,0.448,1,1v755.672c0,0.433-0.278,0.816-0.689,0.951
				C1238.743,1671.173,1238.639,1671.189,1238.535,1671.189z"/>
			<g>
				<path style="fill:#EFBC73;" d="M959.147,1266.734c3.636-7.089,6.218-14.44,7.817-21.875
					c-19.054,28.808-57.134,39.282-88.583,23.152c-33.751-17.311-47.078-58.705-29.767-92.456
					c10.159-19.807,28.613-32.575,48.948-36.249c-37.873-7.551-77.677,10.446-96.175,46.512
					c-22.344,43.565-5.142,96.994,38.422,119.339C883.373,1327.501,936.803,1310.299,959.147,1266.734z"/>
				<circle style="fill:#EFBC73;" cx="981.884" cy="1176.532" r="10.562"/>
				<circle style="fill:#EFBC73;" cx="987.15" cy="1306.24" r="5.266"/>
				<path style="fill:#EFBC73;" d="M911.007,1206.532c0,2.448-1.985,4.433-4.433,4.433s-4.433-1.985-4.433-4.433
					s1.985-4.433,4.433-4.433S911.007,1204.083,911.007,1206.532z"/>
				<circle style="fill:#EFBC73;" cx="1042.537" cy="1234.172" r="6.645"/>
			</g>
			<g>
				<g>
					<g>
						<path style="fill:#F2E6DC;" d="M747.95,1363.949c-37.666-52.54-52.617-116.605-42.099-180.391
							c10.518-63.786,45.246-119.658,97.787-157.324c52.541-37.666,116.605-52.617,180.391-42.099
							c63.786,10.518,119.658,45.246,157.324,97.787c37.666,52.541,52.617,116.605,42.099,180.391
							c-10.518,63.786-45.247,119.658-97.787,157.324c-52.54,37.666-116.604,52.618-180.39,42.099S785.616,1416.49,747.95,1363.949z
							 M781.258,1195.993c-14.857,90.096,46.355,175.481,136.451,190.337c90.095,14.857,175.481-46.355,190.337-136.451
							c14.857-90.095-46.355-175.48-136.451-190.337C881.499,1044.685,796.114,1105.897,781.258,1195.993z"/>
						<path style="fill:#FFFFFF;" d="M755.714,1358.383c-36.179-50.467-50.54-112.002-40.437-173.271
							c10.103-61.268,43.46-114.935,93.927-151.114c50.467-36.179,112.002-50.54,173.271-40.437
							c61.268,10.103,114.935,43.46,151.114,93.927c36.18,50.467,50.54,112.002,40.437,173.27
							c-10.103,61.268-43.46,114.935-93.927,151.114c-50.467,36.18-112.002,50.54-173.27,40.437
							C845.56,1442.208,791.894,1408.85,755.714,1358.383z M771.832,1194.438c-15.714,95.293,49.029,185.604,144.323,201.317
							c95.293,15.714,185.603-49.029,201.317-144.323c15.714-95.293-49.029-185.604-144.322-201.317
							C877.856,1034.402,787.545,1099.145,771.832,1194.438z"/>
						<g>
							<path style="fill:#D87355;" d="M928.037,1048.562c-72.756,6.947-135.401,59.293-153.412,132.298l-56.68-9.346
								c12.532-55.587,44.564-104.04,91.259-137.515c35.204-25.237,75.795-39.843,117.922-42.949L928.037,1048.562z"/>
							<path style="fill:#E6D0BE;" d="M770.118,1208.195c-7.673,90.082,55.343,172.606,146.037,187.561
								c47.615,7.852,93.987-4.386,130.429-30.483l37.089,43.973c-1.184,0.883-2.369,1.765-3.573,2.628
								c-50.467,36.18-112.002,50.54-173.27,40.437c-61.269-10.103-114.935-43.46-151.115-93.927
								c-33.475-46.695-48.255-102.867-42.277-159.535L770.118,1208.195z"/>
							<path style="fill:#D3BBA3;" d="M1058.287,1089.705c-23.462-20.078-52.508-34.209-85.138-39.589
								c-5.828-0.961-11.637-1.617-17.412-1.987l-0.91-57.465c9.196,0.421,18.425,1.377,27.647,2.898
								c43.978,7.252,84.038,26.486,116.526,55.428L1058.287,1089.705z"/>
							<path style="fill:#EFBC73;" d="M1133.589,1087.489c36.18,50.467,50.54,112.002,40.437,173.27
								c-8.343,50.594-32.556,95.993-69.153,130.654l-37.107-43.995c25.432-25.087,43.462-58.119,49.706-95.984
								c8.718-52.868-7.338-104.194-39.626-142.107l40.7-40.702C1123.84,1074.615,1128.867,1080.902,1133.589,1087.489z"/>
						</g>
					</g>
				</g>
			</g>
			<path style="fill:#E6D0BE;" d="M557.341,1503.08c-82.416,0-149.467-67.05-149.467-149.466s67.051-149.467,149.467-149.467
				c36.512,0,71.665,13.308,98.985,37.473c0.414,0.366,0.453,0.998,0.087,1.412c-0.365,0.415-0.999,0.452-1.411,0.086
				c-26.955-23.841-61.638-36.971-97.661-36.971c-81.314,0-147.467,66.153-147.467,147.467c0,81.313,66.153,147.466,147.467,147.466
				c60.411,0,115.68-37.831,137.528-94.138c0.2-0.515,0.784-0.771,1.294-0.57c0.516,0.2,0.771,0.779,0.571,1.294
				c-10.784,27.791-29.461,51.527-54.013,68.644C617.601,1493.823,588.076,1503.08,557.341,1503.08z"/>
			<g>
				
					<rect x="618.441" y="1299.492" transform="matrix(-1 -1.224647e-16 1.224647e-16 -1 1261.7223 2723.3408)" style="fill:#D3BBA3;" width="24.84" height="124.357"/>
				
					<rect x="578.519" y="1373.921" transform="matrix(-1 -1.224647e-16 1.224647e-16 -1 1181.8785 2797.77)" style="fill:#D3BBA3;" width="24.84" height="49.928"/>
				
					<rect x="538.597" y="1323.994" transform="matrix(-1 -1.224647e-16 1.224647e-16 -1 1102.0345 2747.8423)" style="fill:#D3BBA3;" width="24.84" height="99.855"/>
				
					<rect x="498.675" y="1277.121" transform="matrix(-1 -1.224647e-16 1.224647e-16 -1 1022.1905 2700.9697)" style="fill:#D3BBA3;" width="24.84" height="146.728"/>
				
					<rect x="458.753" y="1314.406" transform="matrix(-1 -1.224647e-16 1.224647e-16 -1 942.3466 2738.2549)" style="fill:#D3BBA3;" width="24.84" height="109.443"/>
			</g>
			<rect x="382.961" y="980.853" style="fill:#F7F1EB;" width="282.568" height="43.396"/>
			<rect x="382.961" y="1113.142" style="fill:#F7F1EB;" width="247.9" height="43.396"/>
			<rect x="382.961" y="1046.998" style="fill:#F7F1EB;" width="128.134" height="43.396"/>
			<rect x="537.299" y="1046.998" style="fill:#F7F1EB;" width="128.134" height="43.396"/>
		</g>
		<g>
			<path style="fill:#E6D0BE;" d="M1878.005,825.766c-0.453,0-0.853-0.305-0.968-0.747l-51.265-196.346l-10.711,43.879
				c-0.109,0.448-0.511,0.763-0.972,0.763h-536.263l-15.254,65.411c-0.102,0.435-0.479,0.75-0.924,0.772
				c-0.436,0.019-0.854-0.254-0.996-0.677l-37.696-110.812l-48.929,180.012c-0.118,0.435-0.513,0.737-0.964,0.738h-0.001
				c-0.45,0-0.845-0.301-0.964-0.735l-70.622-257.134l-45.973,177.387c-0.104,0.404-0.449,0.701-0.864,0.744
				c-0.431,0.038-0.814-0.177-0.999-0.55l-27.348-55.156h-76.849c-0.553,0-1-0.448-1-1c0-0.552,0.447-1,1-1h77.469
				c0.38,0,0.728,0.215,0.896,0.556l26.433,53.309l46.239-178.419c0.113-0.438,0.508-0.746,0.961-0.749c0.002,0,0.005,0,0.007,0
				c0.45,0,0.845,0.301,0.964,0.735l70.646,257.217l48.827-179.637c0.115-0.424,0.494-0.724,0.934-0.737
				c0.492-0.017,0.837,0.262,0.978,0.678l37.623,110.598l14.64-62.778c0.105-0.453,0.509-0.773,0.974-0.773h536.271l11.464-46.962
				c0.108-0.445,0.506-0.759,0.964-0.763c0.002,0,0.005,0,0.008,0c0.455,0,0.853,0.307,0.968,0.747l51.059,195.56l37.636-236.567
				c0.074-0.468,0.468-0.82,0.941-0.842c0.502-0.023,0.898,0.293,1.015,0.751l22.494,88.076h66.253c0.553,0,1,0.448,1,1
				c0,0.552-0.447,1-1,1h-67.029c-0.457,0-0.855-0.31-0.969-0.753l-21.49-84.143l-37.625,236.504
				c-0.074,0.467-0.466,0.818-0.938,0.842C1878.037,825.766,1878.021,825.766,1878.005,825.766z"/>
			<g>
				<path style="fill:#D87355;" d="M1358.513,568.118L1358.513,568.118c52.238-52.24,136.937-52.24,189.175,0l1.046,1.041
					l0.794-0.794c52.377-52.377,137.298-52.377,189.675,0l0,0c52.377,52.38,52.377,137.298,0,189.677l-190.02,190.017
					l-190.669-190.765C1306.27,705.055,1306.27,620.358,1358.513,568.118z"/>
			</g>
			<g>
				
					<rect x="607.098" y="471.067" transform="matrix(6.123234e-17 -1 1 6.123234e-17 94.2859 1408.2689)" style="fill:#FFFFFF;" width="288.358" height="371.849"/>
				<path style="fill:#363E44;" d="M919.715,828.834H547.866c-0.553,0-1-0.448-1-1V539.476c0-0.552,0.447-1,1-1h371.849
					c0.553,0,1,0.448,1,1v288.358C920.715,828.386,920.268,828.834,919.715,828.834z M548.866,826.834h369.849V540.476H548.866
					V826.834z"/>
				<rect x="583.09" y="563.632" style="fill:#EFBC73;" width="80.371" height="225.628"/>
				<rect x="692.607" y="563.632" style="fill:#EFBC73;" width="80.371" height="225.628"/>
				<path style="fill:#363E44;" d="M932.03,741.163h-12.492c-0.553,0-1-0.448-1-1c0-0.552,0.447-1,1-1h12.492
					c8.824,0,16.004-7.693,16.004-17.149v-92.338c0-9.456-7.18-17.149-16.004-17.149h-12.492c-0.553,0-1-0.448-1-1
					c0-0.552,0.447-1,1-1h12.492c9.928,0,18.004,8.59,18.004,19.149v92.338C950.034,732.573,941.958,741.163,932.03,741.163z"/>
			</g>
		</g>
	</g>
</g>
</svg>
