<?xml version="1.0" encoding="utf-8"?>
<!-- Generator: Adobe Illustrator 27.5.0, SVG Export Plug-In . SVG Version: 6.00 Build 0)  -->
<svg version="1.1" xmlns="http://www.w3.org/2000/svg" xmlns:xlink="http://www.w3.org/1999/xlink" x="0px" y="0px"
	 viewBox="0 0 2500 2500" style="enable-background:new 0 0 2500 2500;" xml:space="preserve">
-
<g id="Illustration">
	<g id="Blind_date_1_">
		<circle style="fill:transparent;" cx="1250" cy="1249.622" r="914.622"/>
		<g>
			<polygon style="opacity:0.7;fill:#FFFFFF;" points="1263.049,582.948 981.676,582.576 947.99,643.098 926.428,582.503 
				894.09,582.461 891.751,431.053 1263.049,431.053 			"/>
			<g>
				<polygon style="fill:#FFFFFF;" points="1276.272,582.948 994.899,582.576 961.213,643.098 939.652,582.503 907.313,582.461 
					904.974,431.053 1276.272,431.053 				"/>
				<path style="fill:#E6D0BE;" d="M961.215,645.302c-0.061,0-0.123-0.002-0.184-0.009c-0.862-0.071-1.603-0.641-1.893-1.457
					l-21.043-59.131l-30.786-0.041c-1.202-0.002-2.181-0.966-2.201-2.169l-2.338-151.407c-0.009-0.59,0.219-1.16,0.634-1.58
					c0.414-0.422,0.979-0.659,1.57-0.659h371.298c1.218,0,2.204,0.986,2.204,2.204v151.895c0,0.585-0.232,1.145-0.646,1.56
					c-0.413,0.411-0.975,0.643-1.558,0.643h-0.002l-280.077-0.37l-33.053,59.387C962.748,644.871,962.009,645.302,961.215,645.302z
					 M909.483,580.258l30.171,0.041c0.931,0.002,1.76,0.588,2.073,1.466l19.93,56.004l31.316-56.264
					c0.389-0.7,1.126-1.132,1.925-1.132c0.001,0,0.002,0,0.003,0l279.167,0.37V433.257H907.213L909.483,580.258z"/>
			</g>
		</g>
		<g>
			<polygon style="fill:#E6D0BE;" points="1359.744,559.542 1637.197,559.175 1670.413,618.854 1691.674,559.103 1723.562,559.061 
				1725.869,409.763 1359.744,409.763 			"/>
			<path style="fill:#D3BBA3;" d="M1657.189,625.466c-0.794,0-1.535-0.43-1.926-1.132l-32.585-58.546l-276.156,0.364h-0.002
				c-0.583,0-1.145-0.232-1.558-0.643c-0.413-0.415-0.646-0.975-0.646-1.56V414.171c0-1.218,0.986-2.204,2.204-2.204h366.124
				c0.59,0,1.156,0.237,1.571,0.659c0.413,0.42,0.641,0.99,0.633,1.58l-2.305,149.298c-0.019,1.203-0.999,2.167-2.202,2.169
				l-30.334,0.041l-20.741,58.287c-0.291,0.816-1.031,1.386-1.894,1.457C1657.31,625.464,1657.249,625.466,1657.189,625.466z
				 M1623.973,561.379c0.801,0,1.537,0.433,1.926,1.132l30.846,55.423l19.628-55.16c0.312-0.878,1.143-1.464,2.075-1.466
				l29.72-0.041l2.236-144.892h-361.682v145.367l275.247-0.364H1623.973z"/>
		</g>
		<g>
			<g>
				<path style="opacity:0.7;fill:#FFFFFF;" d="M991.252,1248.283l-300.818,3.306c-80.693-8.646-115.64-74.533-105.832-155.094
					l18.471-151.707h242.809L991.252,1248.283z"/>
				<g>
					<g>
						<path style="fill:#BC8271;" d="M852.358,852.229c46.361-0.661,180.272,5.62,182.316-50.614
							c1.69-46.515-128.995-46.879-175.073-49.207C857.186,785.681,854.772,818.955,852.358,852.229z"/>
						<g>
							<path style="fill:#BC8271;" d="M954.393,759.184c9.478-38.172,30.832-124.557,32.93-133.37
								c3.923-16.475,23.807-96.242,35.437-93.508c7.429,1.747-1.76,41.799-2.812,48.9c3.371-7.958,14.148-51.208,21.056-50.3
								c7.497,0.986-1.364,57.279-1.309,57.733c1.7-5.919,13.284-49.586,19.599-47.682c7.329,2.21-0.712,48.619-2.441,56.095
								c1.026-0.363,7.647-32.715,15.069-31.528c6.613,1.058,0.566,38.262,0.48,43.511c-0.615,13.71-5.156,38.344-8.897,66.575
								c-8.787,66.302-15.488,95.499-25.534,126.762c-3.896,12.126-16.617,32.953-44.749,36.343
								C981.294,813.565,966.323,784.334,954.393,759.184z"/>
							<path style="fill:#363E44;" d="M1022.245,623.508c-0.209,0-0.421-0.03-0.632-0.092c-1.167-0.349-1.829-1.576-1.481-2.742
								c10.309-34.529,7.023-38.304,6.878-38.448c-0.016,0.06-4.467,0-21.446,25.45c-0.676,1.014-2.042,1.285-3.057,0.611
								c-1.013-0.676-1.285-2.045-0.61-3.056c20.106-30.136,24.785-27.984,27.03-26.963c2.417,1.111,7.446,3.42-4.571,43.667
								C1024.07,622.89,1023.195,623.508,1022.245,623.508z"/>
						</g>
					</g>
					<path style="fill:#BC8271;" d="M560.94,788.547c-36.118,29.068-145.491,106.579-112.426,152.114
						c27.35,37.665,130.533-42.519,168.271-69.059C598.171,843.917,579.556,816.232,560.94,788.547z"/>
					<path style="fill:#ff6900;" d="M533.118,791.183c0,0,133.185-65.534,218.047-69.517c75.804-3.558,65.942-6.288,182.924,18.32
						l-18.363,119.311l-46.956,2.584c0,7.029,21.579,141.111,21.579,141.111H548.465l41.788-111.065l-18.066,15.62L533.118,791.183z
						"/>
					<g>
						<path style="fill:#BC8271;" d="M496.359,999.181c-13.108-10.109-23.933-19.402-34.844-29.393
							c-10.656-9.758-26.099-32.728-16.253-63.314c31.593-0.376,62.43-0.546,94.023-0.922
							c34.867,27.846,120.226,89.361,128.319,95.697c15.129,11.845,48.072,36.191,42.253,48.019
							c-1.935,3.934-6.491,6.416-11.727,6.72c1.603,5.389-0.105,11.155-4.281,14.556c-5.488,4.469-12.256,2.424-12.75,2.266
							c1.779,3.975,1.48,8.491-0.931,11.641c-3.327,4.346-10.268,5.56-15.883,2.049c-0.112,1.229-0.662,5.594-4.259,8.768
							c-3.985,3.516-10.1,4.149-15.472,1.574c-13.45-10.513-37.095-23.475-64.432-40.702c-6.911-4.356-13.391-8.482-19.486-12.411
							L496.359,999.181z"/>
						<path style="fill:#E2A18D;" d="M560.635,1043.729c-28.037-18.071-47.931-31.943-64.276-44.548L560.635,1043.729z"/>
						<g>
							<path style="fill:#363E44;" d="M684.77,1039.53c-0.523,0-1.049-0.185-1.47-0.562c-0.906-0.814-0.983-2.206-0.17-3.112
								l5.64-6.297c0.813-0.908,2.205-0.986,3.112-0.172c0.906,0.814,0.982,2.206,0.17,3.112l-5.64,6.297
								C685.977,1039.282,685.375,1039.53,684.77,1039.53z"/>
							<path style="fill:#363E44;" d="M670.481,1055.532c-0.523,0-1.049-0.185-1.47-0.562c-0.906-0.814-0.982-2.206-0.17-3.112
								l5.64-6.297c0.811-0.906,2.204-0.986,3.112-0.172c0.906,0.814,0.982,2.206,0.17,3.112l-5.64,6.298
								C671.688,1055.284,671.086,1055.532,670.481,1055.532z"/>
							<path style="fill:#363E44;" d="M656.11,1071.986c-0.523,0-1.048-0.185-1.469-0.562c-0.907-0.811-0.984-2.204-0.172-3.112
								l5.64-6.3c0.81-0.906,2.204-0.986,3.112-0.172c0.907,0.811,0.984,2.204,0.172,3.112l-5.64,6.3
								C657.319,1071.738,656.716,1071.986,656.11,1071.986z"/>
							<path style="fill:#363E44;" d="M642.77,1086.638c-0.524,0-1.049-0.185-1.47-0.564c-0.906-0.811-0.982-2.204-0.17-3.112
								l5.641-6.297c0.811-0.906,2.205-0.986,3.112-0.168c0.906,0.811,0.983,2.204,0.17,3.112l-5.641,6.297
								C643.977,1086.391,643.375,1086.638,642.77,1086.638z"/>
						</g>
					</g>
				</g>
				<g>
					<ellipse style="fill:#BC8271;" cx="745.843" cy="739.986" rx="46.871" ry="19.207"/>
					<rect x="719.593" y="637.57" style="fill:#BC8271;" width="52.058" height="108.552"/>
					<g>
						<path style="fill:#BC8271;" d="M803.676,682.666c-8.715,14.432-54.91,5.615-54.91,5.615l-38.921-33.748
							c-9.463-21.746,0.504-47.042,22.262-56.5c21.758-9.458,47.067,0.504,56.53,22.25
							C788.638,620.284,812.552,667.967,803.676,682.666z"/>
						<path style="fill:#BC8271;" d="M788.616,632.606c0,0,16.085,6.768,16.827,10.078c0.885,3.951-10.456,11.526-10.456,11.526
							S788.922,632.506,788.616,632.606z"/>
						<g>
							<path style="fill:#FFFFFF;" d="M752.329,646.375c0,0,5.053-6.413,13.004-9.868c1.691-0.735,4.387,14.181,2.448,14.113
								C759.256,650.32,752.329,646.375,752.329,646.375z"/>
							<g>
								<defs>
									<path id="SVGID_00000065777315176999720180000004276455141281412271_" d="M752.329,646.375c0,0,7.431-9.431,18.451-11.582
										c11.02-2.151,21.455,3.794,21.455,3.794s-7.431,9.431-18.451,11.582C762.765,652.319,752.329,646.375,752.329,646.375z"/>
								</defs>
								<clipPath id="SVGID_00000105398945129659824310000017924634561648663716_">
									<use xlink:href="#SVGID_00000065777315176999720180000004276455141281412271_"  style="overflow:visible;"/>
								</clipPath>
								<path style="clip-path:url(#SVGID_00000105398945129659824310000017924634561648663716_);fill:#363E44;" d="
									M765.518,636.013c2.971-7.541,11.497-11.247,19.043-8.277c7.545,2.97,11.253,11.491,8.282,19.033
									c-2.972,7.541-11.497,11.247-19.043,8.277C766.255,652.075,762.547,643.554,765.518,636.013z"/>
							</g>
						</g>
						<path style="fill:#363E44;" d="M785.797,667.971c-0.444,0-0.893-0.037-1.34-0.112c-3.067-0.512-5.628-2.774-6.527-5.762
							c-0.351-1.167,0.31-2.395,1.475-2.746c1.162-0.349,2.396,0.31,2.745,1.476c0.42,1.392,1.609,2.447,3.03,2.684
							c1.475,0.239,2.972-0.407,3.814-1.664c0.678-1.014,2.045-1.285,3.057-0.607c1.012,0.676,1.283,2.045,0.606,3.056
							C791.11,666.613,788.515,667.971,785.797,667.971z"/>
					</g>
					<g>
						<path style="fill:#363E44;" d="M710.46,675.618c-12.418-5.948-16.234-35.208-8.604-53.949
							c9.836-24.163,38.364-38.427,61.414-36.484c5.666,0.478,18.614,3.247,22.915,11.319c3.348,6.285-3.033,19.345-13.843,23.099
							c-15.199,5.278-36.498,1.764-28.625,19.074C767.571,691.129,724.104,682.154,710.46,675.618z"/>
					</g>
					<g>
						<path style="fill:#363E44;" d="M690.758,522.095c-58.533,4.701-52.561-67.865-52.561-67.865l-60.245,79.173
							c5.228,32.228,33.356,43.904,33.356,43.904c-24.286-0.616-37.411-17.92-43.711-30.295l-16.78,22.052
							c0,0,12.281,56.496,70.04,35.978c57.759-20.518,91.137,29.145,91.137,29.145l10.431-25.294
							C722.423,608.893,749.291,517.394,690.758,522.095z"/>
						<g>
							<path style="fill:#FFFFFF;" d="M705.98,624.091c-0.466,0-0.936-0.146-1.336-0.452c-0.967-0.738-1.152-2.122-0.414-3.089
								c3.356-4.397,6.827-8.945,9.199-13.929c0.155-0.327,0.301-0.646,0.438-0.958c-0.34,0.295-0.775,0.489-1.258,0.527
								c-3.85,0.327-7.808-1.853-9.595-5.292c-1.152-2.219-1.297-5.008-0.389-7.466c0.832-2.251,2.416-3.947,4.461-4.774
								c3.185-1.296,7.179-0.304,9.709,2.406c2.086,2.23,3.186,5.508,3.018,8.99c-0.126,2.593-0.89,5.282-2.405,8.46
								c-2.569,5.4-6.181,10.133-9.674,14.708C707.301,623.792,706.644,624.091,705.98,624.091z M712.427,601.792
								c1.113,0,2.061,0.837,2.188,1.954c0.479-1.412,0.737-2.688,0.795-3.904c0.111-2.299-0.557-4.401-1.835-5.768
								c-1.292-1.382-3.326-1.943-4.834-1.33c-1.189,0.482-1.752,1.595-1.981,2.217c-0.478,1.293-0.414,2.789,0.166,3.906
								c0.974,1.877,3.192,3.104,5.315,2.934C712.304,601.794,712.366,601.792,712.427,601.792z"/>
							<path style="fill:#FFFFFF;" d="M702.266,621.213c-0.44,0-0.885-0.131-1.272-0.405c-0.993-0.704-1.228-2.079-0.524-3.073
								l4.642-6.549c0.704-0.994,2.078-1.231,3.073-0.523c0.992,0.704,1.227,2.079,0.523,3.071l-4.642,6.549
								C703.636,620.891,702.956,621.213,702.266,621.213z"/>
						</g>
						<path style="fill:#363E44;" d="M709.043,630.561c-0.56,0-1.119-0.211-1.55-0.637c-12.949-12.799-31.543-20.096-49.753-19.465
							c-10.175,0.342-20.351,3.02-30.193,5.607c-2.333,0.616-4.666,1.229-6.999,1.812c-11.876,2.977-25.802,5.615-39.045,2.622
							c-12.133-2.74-25.681-11.896-28.595-26.178c-0.243-1.192,0.526-2.357,1.72-2.6c1.197-0.248,2.357,0.527,2.6,1.717
							c2.52,12.356,14.495,20.334,25.246,22.76c12.342,2.787,25.63,0.252,37.003-2.596c2.318-0.581,4.633-1.19,6.951-1.799
							c10.076-2.652,20.496-5.391,31.165-5.749c19.377-0.702,39.204,7.098,53,20.735c0.865,0.854,0.874,2.251,0.018,3.116
							C710.179,630.341,709.611,630.561,709.043,630.561z"/>
						<path style="fill:#363E44;" d="M673.788,641.916c-2.229,0-4.458-0.62-6.33-1.849c-3.57-2.344-5.616-6.769-5.093-11.009
							c0.579-4.685,3.848-8.099,6.489-10.137c5.711-4.404,13.364-6.319,20.48-5.14c7.113,1.184,13.734,5.48,17.709,11.491
							c0.672,1.016,0.393,2.383-0.622,3.054c-1.017,0.672-2.384,0.394-3.054-0.622c-3.312-5.01-8.829-8.59-14.756-9.575
							c-5.923-0.986-12.305,0.616-17.065,4.283c-1.616,1.248-4.393,3.842-4.805,7.186c-0.319,2.572,0.973,5.361,3.138,6.784
							c2.166,1.42,5.243,1.502,7.479,0.194c1.57-0.921,2.923-2.897,2.468-4.612c-0.148-0.562-0.667-1.098-1.316-1.386
							c0.027,0.777-0.359,1.545-1.076,1.971c-1.048,0.622-2.4,0.275-3.021-0.766l-0.973-1.636c-0.526-0.885-0.37-2.015,0.375-2.725
							c1.411-1.343,3.479-1.801,5.532-1.218c2.307,0.652,4.168,2.471,4.74,4.632c1.039,3.924-1.476,7.77-4.499,9.541
							C677.833,641.406,675.811,641.916,673.788,641.916z"/>
					</g>
				</g>
			</g>
			<g>
				<path style="fill:#D3BBA3;" d="M1785.53,1374.035c-34.94,0-74.584-3.358-119.14-10.051c-1.203-0.181-2.034-1.304-1.853-2.507
					c0.183-1.203,1.309-2.006,2.507-1.853c131.074,19.702,222.227,9.61,270.919-29.985c26.862-21.841,41.633-53.324,43.902-93.576
					c0.067-1.214,1.046-2.176,2.324-2.075c1.214,0.067,2.144,1.109,2.075,2.324c-2.339,41.539-17.655,74.089-45.52,96.746
					C1907.079,1360.433,1855.842,1374.035,1785.53,1374.035z"/>
				<g>
					<g>
						<path style="fill:#E2A18D;" d="M1509.522,907.707c0,0,58.768,32.783,177.59,46.642
							c131.678,15.359,3.285-121.488,3.285-121.488s-95.207-37.21-143.312-56.122
							C1505.885,760.542,1509.522,907.707,1509.522,907.707z"/>
						<g>
							<path style="fill:#84524D;" d="M1597.855,849.877c0,0-41.389-122.227-61.281-170.418
								c-20.892-50.611-59.106-122.293-69.065-116.818c-5.672,3.119-2.482,13.972,7.974,42.416
								c-1.967-0.91-8.604-2.191-13.392,1.565c-7.084,5.557-4.165,12.514-4.199,13.246c-0.642-0.362-8.174-4.099-13.546-1.182
								c-6.051,3.286-7.546,8.936-7.054,14.317c-1.621-0.85-9.088-3.315-14.105-0.255c-6.523,3.979-6.391,12.437-3.898,18.232
								c4.574,10.631,17.794,39.368,22.844,55.458c9.939,31.663,23.34,153.999,56.602,190.811
								C1558.16,963.017,1608.374,881.821,1597.855,849.877z"/>
							<path style="fill:#363E44;" d="M1480.965,702.967c-1.162,0-2.135-0.908-2.198-2.083c-0.689-12.558,3.525-22.119,6.603-29.101
								c3.252-7.378,4.677-11.06,1.567-14.138c-3.723-3.689-6.237-9.558-7.47-17.444c-0.467-2.979,0.936-5.863,3.577-7.344
								c2.664-1.498,5.882-1.184,8.202,0.783l27.14,23.029c0.928,0.788,1.042,2.178,0.254,3.108
								c-0.788,0.923-2.176,1.04-3.108,0.254l-27.14-23.029c-1.378-1.167-2.794-0.529-3.192-0.301
								c-0.392,0.219-1.653,1.074-1.377,2.817c1.07,6.84,3.22,12.025,6.218,14.993c5.4,5.351,2.602,11.697-0.637,19.049
								c-3.058,6.939-6.866,15.578-6.237,27.082c0.067,1.216-0.863,2.256-2.079,2.32
								C1481.047,702.967,1481.006,702.967,1480.965,702.967z"/>
							<path style="fill:#363E44;" d="M1433.437,668.709c-0.854,0-1.67-0.502-2.028-1.339c-0.478-1.119,0.043-2.415,1.162-2.893
								c7.492-3.198,11.274-11.734,8.607-19.433l-2.324-6.715c-0.368-1.065,0.127-2.236,1.145-2.716
								c1.027-0.484,2.236-0.112,2.822,0.852l7.245,11.941c2.301,3.794,6.973,5.393,11.114,3.814
								c2.333-0.889,4.165-2.639,5.155-4.931c0.992-2.29,1.016-4.821,0.067-7.13l-7.066-17.199
								c-0.445-1.083,0.035-2.327,1.093-2.828c1.065-0.499,2.327-0.088,2.882,0.94l4.279,7.903c1.778,3.278,5.917,4.556,9.22,2.843
								c3.121-1.61,4.531-5.297,3.28-8.577l-4.645-12.18c-0.433-1.138,0.138-2.411,1.274-2.845c1.136-0.439,2.411,0.136,2.845,1.274
								l4.645,12.18c2.051,5.378-0.26,11.426-5.376,14.065c-2.979,1.537-6.364,1.601-9.296,0.461l0.941,2.288
								c1.406,3.416,1.369,7.165-0.097,10.557c-1.468,3.39-4.177,5.983-7.63,7.298c-6.059,2.312-12.881,0.019-16.329-5.445
								c-0.301,7.511-4.847,14.534-12.119,17.638C1434.02,668.653,1433.727,668.709,1433.437,668.709z"/>
						</g>
					</g>
					<g>
						<path style="fill:#EFBC73;" d="M1567.862,784.896c0,0,152.609,17.986,262.779,9.337c51.832-4.069,149.203-4.515,182.023,17.01
							c73.374,48.121,93.086,126.588,93.086,126.588l-127.511,23.329l46.939,158.013c16.287,54.83,6.299,101.982-27.057,148.446v0
							h-79.51l14.375-76.365l-42.226,76.365l-217.51-160.061l-2.506-138.931L1527.8,922.246L1567.862,784.896z"/>
						<path style="fill:#363E44;" d="M1673.863,961.424c-1.218,0-2.204-0.986-2.204-2.204v-36.974c0-1.218,0.986-2.204,2.204-2.204
							c1.218,0,2.204,0.986,2.204,2.204v36.974C1676.067,960.439,1675.081,961.424,1673.863,961.424z"/>
					</g>
					<path style="fill:#EFBC73;" d="M1589.79,801.214c-1.348-5.262-37.733-100.452-37.733-100.452L1442.9,742.295
						c0,0,5.39,162.049,84.9,179.951C1607.31,940.148,1589.79,801.214,1589.79,801.214z"/>
					<g>
						<g>
							<path style="fill:#84524D;" d="M1774.141,993.261c11.026,3.859,59.412,12.57,66.126,34.464
								c6.763,22.051-3,45.516-18.17,62.784c-0.093,0.009-0.197,0.018-0.289,0.027c-5.828,2.568-14.946,5.516-25.381,3.834
								c-11.895-1.918-14.108-8.016-26.355-11.992c-20.671-6.709-34.932,4.603-38.167-2.382
								c-2.221-4.794,5.802-11.746,14.779-16.177c9.217-4.549,17.113-3.605,17.181-5.29c0.075-1.848-8.066-1.771-18.202-2.603
								c-4.709-0.386-18.256,6.505-22.254,0.397c-3.188-4.869,9.084-15.564,23.129-17.838c9.936-1.608,18.311,3.476,18.928,1.748
								c0.464-1.297-4.601-4.204-9.707-5.414c-8.424-1.998-22.36,4.904-25.931-0.788c-3.498-5.578,7.385-14.729,20.166-17.638
								c10.776-2.453,19.846,3.661,20.627,1.518c0.549-1.507-2.946-5.085-12.153-10.081c-7.685-4.169-25.296-7.338-22.17-16.003
								C1738.929,984.543,1757.5,987.436,1774.141,993.261z"/>
							<path style="fill:#84524D;" d="M2011.101,1052.656c24.236,8.807,40.357,32.352,38.699,57.971
								c-1.087,16.797-9.846,33.901-36.442,43.583c-64.757,23.573-205.175-72.135-205.175-72.135l-14.261-83.253
								C1876.352,1016.116,1944.39,1028.414,2011.101,1052.656z"/>
						</g>
						<g>
							<path style="fill:#EFBC73;" d="M1927.67,1027.742l-17.146,122.635l108.454,21.516
								c69.648,13.818,131.174-47.315,117.69-117.028c-11.799-61.002-29.416-127.673-54.645-170.446l-133.765,28.776l35.038,119.127
								L1927.67,1027.742z"/>
							<path style="fill:#363E44;" d="M1983.296,1034.526c-0.953,0-1.832-0.622-2.114-1.582l-15.832-53.828
								c-0.344-1.169,0.323-2.393,1.491-2.736c1.173-0.344,2.393,0.329,2.735,1.492l15.832,53.828
								c0.344,1.169-0.323,2.393-1.491,2.735C1983.712,1034.498,1983.501,1034.526,1983.296,1034.526z"/>
							<path style="fill:#363E44;" d="M2038.807,1176.064c-6.741,0-13.512-0.672-20.257-2.01l-110.497-21.921l4.397-31.442
								c0.168-1.205,1.274-2.045,2.488-1.877c1.205,0.168,2.045,1.283,1.877,2.488l-3.82,27.319l106.412,21.111
								c11.48,2.275,23.031,2.535,34.339,0.762c1.203-0.183,2.331,0.635,2.518,1.838c0.187,1.201-0.635,2.329-1.838,2.518
								C2049.259,1175.66,2044.042,1176.064,2038.807,1176.064z"/>
							<path style="fill:#363E44;" d="M1999.783,1035.884c-0.06,0-0.121-0.002-0.183-0.006l-72.111-5.938
								c-1.214-0.101-2.116-1.164-2.017-2.378c0.101-1.214,1.134-2.118,2.378-2.017l72.111,5.938
								c1.214,0.101,2.116,1.164,2.017,2.378C2001.881,1035.012,2000.919,1035.884,1999.783,1035.884z"/>
						</g>
					</g>
					<path style="fill:#363E44;" d="M1809.904,961.424c-1.218,0-2.204-0.986-2.204-2.204V848.952l2.253,0.049
						c58.63,1.283,68.687-36.84,68.784-37.225c0.288-1.182,1.489-1.905,2.665-1.614c1.181,0.288,1.905,1.483,1.616,2.664
						c-0.103,0.413-10.667,40.615-70.176,40.615c-0.245,0-0.488,0-0.734-0.002v105.781
						C1812.108,960.439,1811.123,961.424,1809.904,961.424z"/>
				</g>
				<g>
					<path style="fill:#84524D;" d="M1820.413,828.247l11.347-3.122c14.948-4.113,23.731-19.565,19.618-34.513l-30.555-111.042
						c-4.113-14.948-19.565-23.731-34.513-19.618l-11.347,3.122c-14.948,4.113-23.731,19.565-19.618,34.513l30.555,111.042
						C1790.014,823.577,1805.466,832.36,1820.413,828.247z"/>
					<g>
						<g>
							<path style="fill:#84524D;" d="M1720.087,746.683c9.457,19.371,69.435,6.968,69.435,6.968l53.207-32.158
								c14.514-26.626,4.696-59.976-21.929-74.49c-26.626-14.514-59.976-4.696-74.49,21.93
								C1746.311,668.932,1710.455,726.954,1720.087,746.683z"/>
							<path style="fill:#84524D;" d="M1744.94,684.628c0,0-21.245,6.796-22.564,10.928c-1.575,4.932,12.003,15.867,12.003,15.867
								S1744.562,684.467,1744.94,684.628z"/>
							<g>
								<path style="fill:#FFFFFF;" d="M1791.657,695.34c0,0-6.363-6.537-15.6-9.448c-1.965-0.619-3.215,16.275-1.069,15.973
									C1784.424,700.535,1791.657,695.34,1791.657,695.34z"/>
								<g>
									<defs>
										<path id="SVGID_1_" d="M1791.657,695.34c0,0-9.359-9.614-21.853-10.716c-12.494-1.102-23.391,6.726-23.391,6.726
											s9.359,9.614,21.853,10.716C1780.76,703.167,1791.657,695.34,1791.657,695.34z"/>
									</defs>
									<clipPath id="SVGID_00000043452614422079599840000011491363788459287680_">
										<use xlink:href="#SVGID_1_"  style="overflow:visible;"/>
									</clipPath>
									<path style="clip-path:url(#SVGID_00000043452614422079599840000011491363788459287680_);fill:#363E44;" d="
										M1775.793,685.364c-4.183-8.035-14.088-11.157-22.123-6.974c-8.035,4.183-11.157,14.088-6.974,22.123
										c4.183,8.035,14.088,11.157,22.123,6.974C1776.854,703.304,1779.976,693.399,1775.793,685.364z"/>
								</g>
							</g>
							<g>
								<path style="fill:#363E44;" d="M1878.15,672.29c0,0-4.781,63.483-49.496,65.179l-5.658-12.43l-26.389-0.943l21.192-22.302
									c7.053-9.14,3.982-22.447-6.363-27.573l-45.156-22.373l13.38-23.435C1818.937,625.579,1852.684,637.721,1878.15,672.29z"/>
								<path style="fill:#363E44;" d="M1831.932,639.834c4.396,3.754,11.003,3.233,14.757-1.163
									c3.754-4.396,5.198-13.304,0.802-17.058c-4.396-3.754-12.968-0.933-16.722,3.463
									C1827.015,629.473,1827.536,636.08,1831.932,639.834z"/>
								<path style="fill:#363E44;" d="M1823.602,638.863c5.666,1.145,11.188-2.52,12.333-8.186
									c1.145-5.666-1.921-14.154-7.587-15.299c-5.666-1.145-11.787,5.486-12.932,11.152
									C1814.271,632.197,1817.936,637.719,1823.602,638.863z"/>
								<path style="fill:#363E44;" d="M1805.692,636.957c7.833,0.189,14.335-6.007,14.524-13.84
									c0.189-7.833-5.909-18.435-13.741-18.624c-7.833-0.189-14.434,10.107-14.623,17.94
									C1791.663,630.265,1797.86,636.768,1805.692,636.957z"/>
								<path style="fill:#363E44;" d="M1846.127,648.461c4.273,3.894,10.893,3.587,14.787-0.686
									c3.894-4.272,5.625-13.129,1.352-17.023c-4.272-3.894-12.931-1.351-16.825,2.922
									C1841.547,637.947,1841.854,644.567,1846.127,648.461z"/>
								<path style="fill:#363E44;" d="M1792.896,633.327c5.452-4.348,6.347-12.293,1.999-17.745
									c-4.348-5.452-14.569-9.201-20.021-4.853c-5.452,4.348-4.072,15.147,0.276,20.599
									C1779.499,636.781,1787.444,637.675,1792.896,633.327z"/>
								<path style="fill:#363E44;" d="M1856.083,657.899c4.341,5.747,12.519,6.887,18.266,2.547
									c5.747-4.341,9.896-14.791,5.555-20.538c-4.341-5.747-15.527-4.616-21.274-0.275
									C1852.883,643.974,1851.743,652.152,1856.083,657.899z"/>
								<path style="fill:#363E44;" d="M1866.757,665.555c1.05,5.523,6.378,9.15,11.9,8.1c5.523-1.049,12.04-6.927,10.991-12.45
									c-1.049-5.523-9.268-8.6-14.791-7.551C1869.334,654.705,1865.707,660.032,1866.757,665.555z"/>
								<path style="fill:#363E44;" d="M1782.864,645.847c4.647-7.119,2.644-16.657-4.475-21.305
									c-7.119-4.647-20.383-5.076-25.031,2.042c-4.647,7.119,1.082,19.09,8.201,23.737
									C1768.678,654.969,1778.217,652.966,1782.864,645.847z"/>
							</g>
							<path style="fill:#84524D;" d="M1851.977,726.782c-1.013,10.41-10.274,18.028-20.684,17.014
								c-10.41-1.013-18.028-10.274-17.014-20.684c1.013-10.41,10.274-18.028,20.684-17.015
								C1845.373,707.111,1852.99,716.372,1851.977,726.782z"/>
							<path style="fill:#363E44;" d="M1727.527,705.064l-16.736,42.96c-2.33,5.981,0.798,12.685,6.873,14.759
								c1.528,0.521,3.188,1.068,4.96,1.625c30.678,9.643,64.171,2.762,88.538-18.224v0c8.163-7.03,11.138-18.37,7.478-28.502
								l-1.206-3.339l-10.241,0.159c0,0-17.626,18.915-26.786,16.187C1771.246,727.959,1759.402,713.181,1727.527,705.064z"/>
							<path style="fill:#84524D;" d="M1745.44,729.418c-3.594,0-6.954-1.974-8.704-5.176c-0.585-1.068-0.194-2.406,0.876-2.99
								c1.07-0.588,2.406-0.196,2.989,0.876c1.044,1.905,3.086,3.045,5.251,2.867c2.066-0.159,3.906-1.517,4.686-3.459
								c0.452-1.132,1.737-1.687,2.865-1.225c1.13,0.452,1.679,1.735,1.225,2.865c-1.399,3.489-4.711,5.927-8.439,6.214
								C1745.939,729.409,1745.69,729.418,1745.44,729.418z"/>
							<path style="fill:#84524D;" d="M1822.762,684.059c-1.035,0-1.959-0.732-2.161-1.784c-0.232-1.197,0.549-2.352,1.743-2.583
								l27.278-5.28c1.207-0.252,2.352,0.549,2.583,1.743c0.232,1.197-0.549,2.352-1.743,2.583l-27.278,5.279
								C1823.042,684.046,1822.9,684.059,1822.762,684.059z"/>
						</g>
					</g>
				</g>
			</g>
			<g>
				<g>
					<polygon style="fill:#E6D0BE;" points="1859.018,1382.973 685.065,1389.782 710.941,1218.184 723.198,1053.394 
						1838.589,1053.394 1848.898,1206.034 					"/>
					<path style="fill:#E6D0BE;" d="M847.13,1688.18h-30.643c-1.217,0-2.204-0.986-2.204-2.204v-422.868
						c0-1.218,0.987-2.204,2.204-2.204h30.643c1.217,0,2.204,0.986,2.204,2.204v422.868
						C849.334,1687.194,848.348,1688.18,847.13,1688.18z M818.692,1683.772h26.235v-418.461h-26.235V1683.772z"/>
					<path style="fill:#E6D0BE;" d="M1660.181,1682.07h-30.642c-1.218,0-2.204-0.986-2.204-2.204v-422.868
						c0-1.218,0.986-2.204,2.204-2.204h30.642c1.218,0,2.204,0.986,2.204,2.204v422.868
						C1662.385,1681.084,1661.399,1682.07,1660.181,1682.07z M1631.743,1677.662h26.234v-418.46h-26.234V1677.662z"/>
				</g>
				<path style="fill:#D3BBA3;" d="M730.613,1174.689c-1.216,0-2.203-0.986-2.204-2.202c-0.001-1.216,0.985-2.204,2.202-2.206
					l1109.339-1.287h0.002c1.216,0,2.202,0.986,2.204,2.202c0.002,1.216-0.984,2.204-2.202,2.206l-1109.339,1.287
					C730.615,1174.689,730.614,1174.689,730.613,1174.689z"/>
			</g>
			<g>
				<rect x="1066.914" y="837.102" style="fill:#84524D;" width="145.952" height="30.099"/>
				<rect x="1065.989" y="1081.935" style="fill:#84524D;" width="147.802" height="30.099"/>
				<path style="fill:#84524D;" d="M1211.336,1084.14h-142.892c-1.217,0-2.204-0.986-2.204-2.204v-51.075
					c0-0.585,0.233-1.145,0.646-1.558l54.734-54.734l-54.734-54.736c-0.413-0.413-0.646-0.973-0.646-1.558v-51.073
					c0-1.218,0.987-2.204,2.204-2.204h142.892c1.217,0,2.204,0.986,2.204,2.204v51.073c0,0.585-0.233,1.145-0.646,1.558
					l-54.734,54.736l54.734,54.734c0.413,0.413,0.646,0.973,0.646,1.558v51.075C1213.54,1083.154,1212.553,1084.14,1211.336,1084.14
					z M1070.647,1079.732h138.485v-47.959l-55.647-55.646c-0.861-0.861-0.861-2.256,0-3.117l55.647-55.649v-47.957h-138.485v47.957
					l55.647,55.649c0.861,0.861,0.861,2.256,0,3.117l-55.647,55.646V1079.732z M1211.336,918.274h0.022H1211.336z"/>
				<path style="fill:#EFBC73;" d="M1149.307,971.171c18.481-18.481,28.842-28.842,47.323-47.323v-8.244h-113.481v8.244
					c18.481,18.481,28.842,28.842,47.323,47.323h5.097v54.297h-16.331c-14.094,14.094-21.996,21.996-36.089,36.089v19.477h113.481
					v-19.477c-14.094-14.094-21.996-21.996-36.09-36.089h-16.331v-54.297H1149.307z"/>
			</g>
		</g>
		<g>
			<path style="fill:#D3BBA3;" d="M684.612,1654.556c-86.309,0-162.152-114.166-186.9-193.585
				c-26.424-84.799-29.045-150.602-24.85-223.313c0.07-1.214,1.121-2.124,2.328-2.073c1.215,0.069,2.144,1.111,2.074,2.327
				c-4.168,72.232-1.569,137.585,24.656,221.747c24.911,79.943,102.032,195.739,188.491,190.309
				c29.027-1.814,54.382-16.215,75.359-42.804c0.753-0.956,2.143-1.117,3.096-0.366c0.954,0.753,1.118,2.139,0.365,3.095
				c-21.787,27.616-48.214,42.578-78.544,44.474C688.659,1654.493,686.628,1654.556,684.612,1654.556z"/>
			<g>
				<path style="fill:#E6D0BE;" d="M399.145,1311.714c21.636,23.589,49.811,23.065,59.677,10.621
					c9.866-12.444,4.137-40.328-23.948-55.684c-27.957-15.286-66.881-16.333-66.881-16.333S376.009,1286.489,399.145,1311.714z"/>
				<path style="fill:#D3BBA3;" d="M475.165,1337.141c-0.48,0-0.963-0.155-1.368-0.478l-85.877-68.089
					c-0.954-0.755-1.115-2.141-0.358-3.095c0.757-0.953,2.146-1.115,3.096-0.357l85.877,68.089c0.955,0.755,1.115,2.141,0.358,3.095
					C476.459,1336.855,475.814,1337.141,475.165,1337.141z"/>
			</g>
			<g>
				<path style="fill:#E6D0BE;" d="M526.966,1282.132c-27.855,27.573-25.899,62.023-10.214,73.515
					c15.686,11.492,49.536,3.182,67.017-31.898c17.401-34.921,16.867-82.596,16.867-82.596S556.751,1252.648,526.966,1282.132z"/>
				<path style="fill:#D3BBA3;" d="M484.73,1402.135c-0.452,0-0.908-0.138-1.3-0.426c-0.983-0.719-1.196-2.098-0.476-3.08
					l96.672-131.95c0.718-0.981,2.099-1.199,3.08-0.476c0.982,0.719,1.196,2.098,0.476,3.08l-96.672,131.95
					C486.078,1401.823,485.409,1402.135,484.73,1402.135z"/>
			</g>
			<g>
				<path style="fill:#E6D0BE;" d="M477.652,1169.171c-16.044,24.142-9.469,48.8,3.613,54.774
					c13.082,5.974,36.354-5.115,43.76-33.14c7.372-27.898-0.155-62.347-0.155-62.347S494.808,1143.356,477.652,1169.171z"/>
				<path style="fill:#D3BBA3;" d="M475.062,1239.988c-0.308,0-0.62-0.064-0.918-0.2c-1.106-0.508-1.592-1.817-1.085-2.923
					l39.896-87.016c0.507-1.108,1.814-1.59,2.923-1.085c1.106,0.508,1.592,1.816,1.085,2.923l-39.896,87.016
					C476.695,1239.513,475.897,1239.988,475.062,1239.988z"/>
			</g>
			<g>
				<path style="fill:#E6D0BE;" d="M410.289,1486.245c36.591,14.045,67.186-1.91,71.207-20.935
					c4.021-19.025-17.479-46.459-56.644-47.96c-38.987-1.494-82.221,18.606-82.221,18.606S371.161,1471.226,410.289,1486.245z"/>
				<path style="fill:#D3BBA3;" d="M502.857,1471.681c-0.151,0-0.305-0.015-0.458-0.047l-127.86-27.028
					c-1.19-0.252-1.952-1.421-1.7-2.613c0.251-1.193,1.416-1.954,2.613-1.7l127.86,27.028c1.19,0.252,1.952,1.421,1.7,2.613
					C504.792,1470.97,503.876,1471.681,502.857,1471.681z"/>
			</g>
			<g>
				<path style="fill:#E6D0BE;" d="M555.248,1441.743c-26.019,18.644-28.884,46.678-17.717,57.968
					c11.168,11.29,39.538,8.954,58.159-17.082c18.536-25.917,24.253-64.433,24.253-64.433S583.07,1421.807,555.248,1441.743z"/>
				<path style="fill:#D3BBA3;" d="M523.055,1516.626c-0.568,0-1.135-0.217-1.567-0.654c-0.856-0.865-0.848-2.26,0.017-3.117
					l77.918-77.07c0.866-0.854,2.261-0.85,3.117,0.017c0.856,0.865,0.848,2.26-0.017,3.116l-77.918,77.07
					C524.175,1516.413,523.615,1516.626,523.055,1516.626z"/>
			</g>
			<g>
				<path style="fill:#E6D0BE;" d="M641.18,1588.658c3.509,31.816,26.545,48.047,41.858,43.841
					c15.314-4.205,27.174-30.083,13.597-59.07c-13.515-28.855-44.293-52.707-44.293-52.707S637.428,1554.637,641.18,1588.658z"/>
				<path style="fill:#D3BBA3;" d="M688.771,1654.53c-0.968,0-1.855-0.641-2.124-1.62l-29.022-105.682
					c-0.322-1.173,0.368-2.387,1.542-2.708c1.172-0.321,2.386,0.366,2.709,1.541l29.022,105.682
					c0.322,1.173-0.368,2.387-1.542,2.707C689.16,1654.504,688.964,1654.53,688.771,1654.53z"/>
			</g>
			<g>
				<path style="fill:#E6D0BE;" d="M523.333,1617.99c27.351,16.629,54.264,8.276,60.274-6.423s-7.261-39.884-38.512-46.808
					c-31.109-6.893-68.784,2.944-68.784,2.944S494.086,1600.209,523.333,1617.99z"/>
				<path style="fill:#D3BBA3;" d="M602.813,1621.323c-0.278,0-0.56-0.052-0.833-0.163l-101.445-41.472
					c-1.127-0.461-1.667-1.748-1.206-2.873c0.463-1.125,1.749-1.664,2.874-1.207l101.445,41.472
					c1.127,0.461,1.667,1.748,1.206,2.873C604.505,1620.806,603.682,1621.323,602.813,1621.323z"/>
			</g>
		</g>
		<g>
			<polygon style="fill:#FFFFFF;" points="1275.539,1367.251 968.739,1366.846 932.01,1432.837 908.5,1366.766 873.239,1366.72 
				870.689,1201.63 1275.539,1201.63 			"/>
			<path style="fill:#D3BBA3;" d="M943.028,1432.837c-0.061,0-0.123-0.002-0.184-0.009c-0.862-0.071-1.603-0.641-1.893-1.457
				l-22.989-64.609l-33.709-0.043c-1.202-0.002-2.182-0.966-2.201-2.17l-2.55-165.091c-0.009-0.59,0.219-1.16,0.634-1.58
				c0.414-0.422,0.979-0.659,1.57-0.659h404.85c1.218,0,2.204,0.986,2.204,2.204v165.62c0,0.585-0.232,1.145-0.646,1.56
				c-0.413,0.411-0.975,0.644-1.558,0.644h-0.002l-305.502-0.402l-36.1,64.858C944.562,1432.406,943.823,1432.837,943.028,1432.837z
				 M886.427,1362.314l33.094,0.043c0.931,0.002,1.76,0.588,2.073,1.466l21.877,61.481l34.362-61.735
				c0.388-0.7,1.126-1.132,1.925-1.132c0.001,0,0.002,0,0.003,0l304.591,0.402v-161.21H883.945L886.427,1362.314z"/>
		</g>
		<g>
			<polygon style="fill:#FFFFFF;" points="1643.123,1259.365 1490.499,1259.365 1490.499,1107.921 1684.17,1107.921 
				1684.17,1237.751 1684.17,1259.365 1684.17,1318.792 			"/>
			<path style="fill:#D87355;" d="M1547.811,1149.331L1547.811,1149.331c10.935-10.936,28.666-10.936,39.601,0l0.219,0.218
				l0.166-0.166c10.964-10.964,28.741-10.964,39.706,0l0,0c10.964,10.965,10.964,28.741,0,39.706l-39.778,39.778l-39.914-39.934
				C1536.874,1177.997,1536.874,1160.267,1547.811,1149.331z"/>
		</g>
		<g>
			<g>
				<g>
					<path style="fill:#ff6900;" d="M1788.718,1708.883c-87.474,106.001-186.092,237.909-276.453,233.501
						c-66.117,14.693-105.581-41.068-116.073-110.93l269.112-245.984L1788.718,1708.883z"/>
					<g>
						<path style="fill:#9E6C5A;" d="M1540.249,1830.387c0.002-0.003,0.006-0.004,0.006-0.004
							c-14.372-136.538-21.95-233.682-25.468-263.58c-0.368-3.131-0.994-8.66-3.723-15.358
							c-10.114-24.817-32.911-25.906-55.453-47.148c-25.577-24.102-26.334-52.155-35.249-51.125
							c-6.202,0.716-8.896,11.378-6.023,33.357l-0.004,0.001c-4.102-16.447-10.638-38.51-19.721-36.217
							c-10.346,3.208-5.71,30.032-2.113,46.122c-4.354-19.475-12.496-28.528-17.242-25.988c-7.47,3.999-7.61,19.887-0.857,45.403
							l-0.002,0.001c-9.584-16.316-14.341-18.845-17.989-15.577c-6.659,5.968-0.712,26.84,7.374,44.487
							c9.103,19.866,23.054,32.115,32.035,39.629c0.002,0.002,0.004,0.005,0.004,0.005c0.15,96.672,4.388,159.034-1.348,236.913
							C1390.821,1870.939,1501.184,1894.755,1540.249,1830.387z"/>
						<path style="fill:#9E6C5A;" d="M1471.743,1528.603c-1.421-34.745,5.429-47.578,10.942-47.628
							c9.272-0.084,22.628,29.083,31.102,79.601C1501.276,1552.718,1484.256,1536.46,1471.743,1528.603z"/>
						<path style="fill:#363E44;" d="M1541.181,1833.737c-1.115,0-2.071-0.842-2.189-1.974c-2.015-19.174-3.926-37.83-5.843-57.028
							c-0.12-1.212,0.764-2.292,1.974-2.413c1.235-0.105,2.292,0.764,2.413,1.974c1.916,19.192,3.827,37.839,5.839,57.007
							c0.127,1.21-0.751,2.294-1.961,2.421C1541.335,1833.733,1541.258,1833.737,1541.181,1833.737z"/>
						<g>
							<path style="fill:#363E44;" d="M1451.879,1585.223c-1.177,0-2.152-0.93-2.2-2.116c-0.232-5.871-1.786-14.646-7.856-23.107
								c-8.594-11.975-21.01-15.729-25.948-16.788c-1.19-0.254-1.95-1.425-1.694-2.615c0.256-1.192,1.425-1.959,2.615-1.694
								c5.441,1.164,19.118,5.301,28.608,18.527c6.707,9.347,8.422,19.028,8.678,25.5c0.049,1.216-0.898,2.243-2.114,2.29
								C1451.939,1585.223,1451.909,1585.223,1451.879,1585.223z"/>
							<path style="fill:#363E44;" d="M1500.391,1539.498c-0.553,0-1.106-0.207-1.535-0.622
								c-5.267-5.109-11.799-8.945-18.716-13.006c-3.334-1.956-6.782-3.982-10.324-6.272c-1.022-0.661-1.315-2.025-0.654-3.048
								c0.663-1.022,2.027-1.315,3.048-0.654c3.463,2.24,6.868,4.24,10.163,6.173c7.152,4.199,13.908,8.166,19.553,13.643
								c0.874,0.848,0.895,2.243,0.047,3.117C1501.54,1539.274,1500.966,1539.498,1500.391,1539.498z"/>
							<path style="fill:#363E44;" d="M1431.366,1515.406c-0.573,0-1.143-0.222-1.575-0.663c-3.061-3.125-5.839-6.543-8.258-10.156
								c-3.515-5.252-6.319-10.968-8.338-16.996c-0.387-1.154,0.237-2.402,1.39-2.789c1.156-0.387,2.404,0.237,2.789,1.39
								c1.894,5.654,4.526,11.02,7.821,15.942c2.269,3.39,4.875,6.594,7.746,9.528c0.85,0.87,0.837,2.264-0.034,3.116
								C1432.479,1515.197,1431.921,1515.406,1431.366,1515.406z"/>
							<path style="fill:#363E44;" d="M1409.056,1522.769c-0.573,0-1.143-0.222-1.575-0.663c-3.052-3.117-5.828-6.534-8.256-10.156
								c-3.517-5.252-6.321-10.97-8.34-16.999c-0.387-1.154,0.237-2.404,1.39-2.789c1.156-0.377,2.404,0.232,2.789,1.39
								c1.894,5.656,4.526,11.02,7.823,15.944c2.275,3.398,4.881,6.603,7.744,9.528c0.85,0.87,0.837,2.264-0.035,3.116
								C1410.168,1522.56,1409.611,1522.769,1409.056,1522.769z"/>
							<path style="fill:#363E44;" d="M1390.818,1544.771c-0.573,0-1.143-0.222-1.575-0.663c-3.061-3.125-5.839-6.543-8.258-10.156
								c-3.515-5.251-6.319-10.968-8.338-16.996c-0.387-1.154,0.237-2.402,1.39-2.789c1.156-0.379,2.404,0.232,2.789,1.39
								c1.894,5.654,4.526,11.02,7.821,15.942c2.269,3.39,4.875,6.594,7.746,9.528c0.85,0.87,0.837,2.264-0.034,3.116
								C1391.93,1544.562,1391.373,1544.771,1390.818,1544.771z"/>
						</g>
					</g>
					<path style="fill:#ff6900;" d="M1693.105,2102.534c0,0-38.901,79.45,469.466,55.942l-55.735-490.057
						c-3.325-19.953-11.377-38.882-23.833-54.821c-32.675-41.813-84.911-73.13-135.586-73.13h-184.043
						c-91.748,0-155.789,90.912-124.898,177.303L1693.105,2102.534z"/>
				</g>
				<g>
					<polygon style="fill:#9E6C5A;" points="1903.664,1547.501 1791.004,1564.422 1735.618,1457.103 1831.478,1407.63 					"/>
					<path style="fill:#9E6C5A;" d="M1909.934,1546.684c2.116,13.734-29.006,29.926-69.513,36.166
						c-40.507,6.24-75.06,0.166-77.175-13.568c-2.116-13.734,29.006-29.926,69.513-36.167
						C1873.265,1526.875,1907.818,1532.95,1909.934,1546.684z"/>
					<g>
						<path style="fill:#9E6C5A;" d="M1688.14,1470.828c13.167,23.873,88.34,12.534,88.34,12.534l64.994-52.089
							c16.656-34.549,2.151-76.058-32.398-92.713c-34.549-16.656-76.058-2.151-92.713,32.398
							C1716.363,1370.958,1674.728,1446.513,1688.14,1470.828z"/>
						<path style="fill:#9E6C5A;" d="M1715.621,1390.872c0,0-26.408,9.924-27.815,15.228c-1.678,6.33,16.163,19.287,16.163,19.287
							S1715.134,1390.692,1715.621,1390.872z"/>
						<g>
							<path style="fill:#FFFFFF;" d="M1773.366,1415.411c0,0-7.757-10.682-20.382-16.767c-2.686-1.295-7.981,22.642-4.844,22.654
								C1761.93,1421.351,1773.366,1415.411,1773.366,1415.411z"/>
							<g>
								<defs>
									<path id="SVGID_00000166660880511946219150000017835317290620432520_" d="M1773.366,1415.411
										c0,0-11.409-15.71-29.073-19.88c-17.664-4.17-34.895,4.78-34.895,4.78s11.409,15.71,29.073,19.88
										C1756.136,1424.361,1773.366,1415.411,1773.366,1415.411z"/>
								</defs>
								<clipPath id="SVGID_00000133490439940384275160000007698521362849079211_">
									<use xlink:href="#SVGID_00000166660880511946219150000017835317290620432520_"  style="overflow:visible;"/>
								</clipPath>
								
									<ellipse transform="matrix(0.043 -0.9991 0.9991 0.043 251.5722 3073.9553)" style="clip-path:url(#SVGID_00000133490439940384275160000007698521362849079211_);fill:#363E44;" cx="1730.309" cy="1405.664" rx="23.736" ry="23.736"/>
							</g>
						</g>
						<path style="fill:#363E44;" d="M1718.455,1446.852c-4.111,0-8.004-2.146-10.204-5.725c-0.637-1.037-0.312-2.396,0.725-3.033
							c1.033-0.635,2.393-0.314,3.033,0.725c1.558,2.54,4.455,3.939,7.384,3.564c2.819-0.357,5.245-2.342,6.179-5.053
							c0.396-1.151,1.646-1.771,2.8-1.367c1.151,0.396,1.763,1.649,1.367,2.8c-1.474,4.289-5.318,7.425-9.791,7.993
							C1719.449,1446.82,1718.95,1446.852,1718.455,1446.852z"/>
						<path style="fill:#363E44;" d="M1738.402,1489.359c-11.375,0-23.442-0.885-33.334-3.655c-1.173-0.327-1.857-1.545-1.528-2.716
							c0.329-1.171,1.558-1.857,2.716-1.528c25.833,7.232,68.941,0.867,69.374,0.801c1.21-0.155,2.327,0.648,2.51,1.851
							c0.181,1.205-0.648,2.327-1.851,2.51C1775.152,1486.792,1757.785,1489.359,1738.402,1489.359z"/>
					</g>
					<path style="fill:#363E44;" d="M1751.443,1348.468c-11.794-1.719-21.528-10.141-24.834-21.591
						c-5.904-20.447-11.995-52.382,0.847-69.299c19.854-26.154,52.601,29.283,97.776,38.151s72.954,20.176,70.606,55.125
						s-33.251,46.956-33.251,46.956s20.887-6.11,25.207,22.382c4.321,28.492-85.589,21.376-85.589,21.376l-9.568-11.995l13.799-27.5
						c10.494-20.913-2.564-45.965-25.718-49.338L1751.443,1348.468z"/>
					
						<ellipse transform="matrix(0.2333 -0.9724 0.9724 0.2333 6.1486 2880.2832)" style="fill:#9E6C5A;" cx="1829.563" cy="1436.243" rx="27.772" ry="27.772"/>
				</g>
			</g>
			<g>
				<path style="fill:#363E44;" d="M616.51,1906.786c0,0-96.257,83.982-111.536,258.214l515.82-9.572
					c0,0-78.842-158.392-155.237-238.614L616.51,1906.786z"/>
				<g>
					<g>
						<g>
							<path style="fill:#E2A18D;" d="M866.492,1678.743c2.362-67.299,118.919-46.72,180.462-41.818
								c53.614,4.271,211.042,20.513,202.823,71.45c-8.208,50.865-79.764,66.163-189.328,72.673
								C814.644,1795.652,864.486,1735.894,866.492,1678.743z"/>
							<g>
								<path style="fill:#E2A18D;" d="M1117.855,1725.073c0,0,39.724-225.486,47.507-254.41c0.815-3.029,2.229-8.381,5.885-14.58
									c13.542-22.969,36.142-20.747,61.402-38.4c28.661-20.031,33.459-47.537,42.087-45.236c6.002,1.601,7.113,12.486,1.11,33.707
									c0,0.002,0.003,0.003,0.003,0.003c6.415-15.6,16.038-36.375,24.648-32.805c9.721,4.653,1.282,30.389-4.584,45.708
									c7.1-18.542,16.424-26.278,20.728-23.092c6.776,5.016,4.618,20.677-5.717,44.819l0.001,0.001
									c11.793-14.676,16.841-16.479,19.959-12.735c5.693,6.837-3.177,26.525-13.687,42.728
									c-11.831,18.241-27.335,28.283-37.262,34.382c-0.002,0.002-0.005,0.005-0.005,0.005
									c-14.117,95.144-18.655,127.268-28.765,204.305C1245.963,1749.112,1123.59,1804.557,1117.855,1725.073z"/>
								<path style="fill:#E2A18D;" d="M1213.255,1439.278c6.42-33.998,1.531-47.622-3.89-48.467
									c-9.115-1.422-26.478,25.36-42.12,73.866C1180.699,1458.751,1199.803,1445.205,1213.255,1439.278z"/>
								<path style="fill:#363E44;" d="M1224.948,1497.919c-0.134,0-0.271-0.013-0.408-0.037c-1.197-0.226-1.984-1.377-1.76-2.574
									c1.187-6.334,4.271-15.615,12.23-23.851c11.263-11.659,25.325-13.751,30.848-14.11c1.199-0.039,2.264,0.842,2.342,2.058
									c0.077,1.214-0.842,2.262-2.058,2.342c-5.01,0.325-17.768,2.221-27.962,12.771c-7.199,7.453-9.993,15.862-11.068,21.604
									C1226.914,1497.181,1225.988,1497.919,1224.948,1497.919z"/>
								<path style="fill:#363E44;" d="M1183.801,1445.899c-0.684,0-1.359-0.318-1.791-0.915c-0.711-0.988-0.487-2.365,0.5-3.078
									c6.348-4.574,13.57-7.503,21.216-10.602c3.523-1.429,7.167-2.906,10.901-4.61c1.105-0.506,2.414-0.019,2.921,1.089
									c0.506,1.106,0.018,2.413-1.089,2.918c-3.821,1.745-7.509,3.241-11.077,4.688c-7.393,2.998-14.377,5.828-20.296,10.094
									C1184.697,1445.763,1184.246,1445.899,1183.801,1445.899z"/>
								<path style="fill:#363E44;" d="M1255.232,1432.157c-0.665,0-1.321-0.299-1.756-0.87c-0.736-0.969-0.549-2.35,0.42-3.089
									c3.248-2.471,6.276-5.252,8.998-8.258c3.956-4.371,7.322-9.27,10.004-14.564c0.549-1.083,1.87-1.522,2.961-0.969
									c1.085,0.549,1.52,1.875,0.969,2.961c-2.858,5.643-6.446,10.869-10.667,15.529c-2.903,3.209-6.132,6.173-9.597,8.809
									C1256.166,1432.01,1255.697,1432.157,1255.232,1432.157z"/>
								<path style="fill:#363E44;" d="M1276.13,1442.627c-0.665,0-1.322-0.299-1.756-0.87c-0.736-0.969-0.549-2.35,0.42-3.089
									c3.248-2.471,6.276-5.252,8.999-8.258c3.956-4.371,7.322-9.27,10.004-14.564c0.549-1.085,1.868-1.524,2.962-0.969
									c1.085,0.549,1.52,1.875,0.969,2.961c-2.858,5.643-6.446,10.869-10.667,15.529c-2.903,3.209-6.132,6.173-9.597,8.809
									C1277.065,1442.481,1276.595,1442.627,1276.13,1442.627z"/>
								<path style="fill:#363E44;" d="M1290.906,1466.922c-0.665,0-1.323-0.299-1.756-0.87c-0.736-0.971-0.549-2.352,0.42-3.089
									c3.241-2.464,6.267-5.241,8.999-8.256c3.954-4.367,7.318-9.268,10.004-14.564c0.549-1.087,1.879-1.526,2.962-0.969
									c1.085,0.549,1.519,1.875,0.968,2.962c-2.86,5.647-6.45,10.871-10.666,15.528c-2.912,3.218-6.143,6.181-9.597,8.807
									C1291.838,1466.776,1291.371,1466.922,1290.906,1466.922z"/>
							</g>
						</g>
					</g>
					<g>
						<g>
							<path style="fill:#D87355;" d="M408.092,1765.336c34.803-30.916,174.109-178.516,329.86-189.854
								c103.646-7.545,323.292,43.588,372.05,52.928c21.917,67.132,6.708,97.489,5.512,159.7
								c-27.055,5.797-149.515-4.501-180.161,0.127l-15.939,197.49l-370.256-4.408l14.221-149.72l-40.683,107.846L408.092,1765.336z
								"/>
						</g>
						
							<ellipse transform="matrix(0.9969 -0.0793 0.0793 0.9969 -128.2365 65.655)" style="fill:#E2A18D;" cx="762.516" cy="1647.399" rx="120.92" ry="75.64"/>
						<path style="fill:#363E44;" d="M739.927,1832.407c-20.581,0-39.318-11.325-48.901-29.559
							c-0.566-1.076-0.152-2.408,0.925-2.974c1.081-0.568,2.411-0.151,2.977,0.925c8.818,16.777,26.061,27.2,44.999,27.2
							c20.671,0,39.116-12.35,46.99-31.46c0.465-1.123,1.754-1.657,2.878-1.199c1.126,0.465,1.662,1.752,1.199,2.878
							C782.436,1818.988,762.391,1832.407,739.927,1832.407z"/>
						<path style="fill:#363E44;" d="M934.871,1792.007c-0.779,0-1.534-0.413-1.934-1.143c-0.587-1.068-0.196-2.408,0.872-2.994
							c16.282-8.936,26.397-26.014,26.397-44.569c0-25.08-18.687-46.693-43.467-50.277l-1.343-0.194l-16.916-50.423
							c-0.386-1.154,0.235-2.404,1.389-2.792c1.158-0.385,2.402,0.235,2.79,1.388l16.058,47.87
							c26.26,4.472,45.896,27.629,45.896,54.426c0,20.164-10.991,38.721-28.685,48.434
							C935.593,1791.919,935.23,1792.007,934.871,1792.007z"/>
					</g>
					<g>
						<path style="fill:#E2A18D;" d="M479.832,1967.464c45.683-2.553,77.394-46.709,65.772-90.962
							c-30.313-115.418-55.402-199.281-66.651-255.852c-5.903-29.694-6.146-60.545-26.816-81.048
							c-9.165-9.091-20.953-17.074-26.94-9.677c-9.348,11.55,17.702,37.872,9.824,47.074c-7.916,9.246-41.292-9.006-40.955-23.34
							c0.272-11.568,27.987-8.793,25.244-22.225c-1.876-9.191-17.68-9.571-28.422-7.879c-3.41,0.537-17.715,2.791-25.347,16.205
							c-8.075,14.189-1.72,28.629-1.047,30.089c-9.027-2.124-17.769,1.049-21.027,6.874c-4.348,7.777,0.342,21.605,13.713,26.367
							c-1.75-0.284-14.754-2.273-18.359,3.452c-3.535,5.616,2.168,18.336,17.135,29.038c-10.414-1.132-17.64,1.602-19.092,5.207
							c-4.077,10.104,7.497,26.809,47.452,51.219c4.246,26.617,19.352,152.885,27.121,218.46
							c3.961,33.433,32.882,58.442,66.522,57.089C478.578,1967.53,479.203,1967.5,479.832,1967.464z"/>
						<path style="fill:#363E44;" d="M434.759,1645.006c-0.633,0-1.261-0.271-1.697-0.796c-3.477-4.19-9.446-13.092-10.36-25.616
							c-1.032-14.162,4.833-24.682,8.421-29.69c0.708-0.992,2.084-1.218,3.074-0.51c0.99,0.71,1.218,2.086,0.509,3.076
							c-2.61,3.644-8.573,13.548-7.607,26.806c0.823,11.297,6.215,19.336,9.355,23.12c0.777,0.936,0.648,2.327-0.288,3.104
							C435.753,1644.84,435.255,1645.006,434.759,1645.006z"/>
						<path style="fill:#363E44;" d="M374.071,1667.456c-4.663,0-9.941-0.68-15.403-2.107c-1.177-0.308-1.882-1.513-1.575-2.69
							c0.308-1.177,1.503-1.877,2.69-1.575c15.778,4.122,25.953,0.984,26.981-1.857c0.949-2.624-4.294-10.972-17.702-17.571
							c-1.12-0.549-1.631-1.883-1.159-3.037c0.47-1.154,1.768-1.754,2.955-1.347c15.004,4.911,25.277,3.405,26.918,0.424
							c1.801-3.269-3.279-14.646-19.814-25.681c-1.032-0.684-1.37-2.023-0.782-3.112c0.589-1.083,1.895-1.537,3.033-1.046
							c14.259,6.102,26.08,4.668,28.274,0.958c2.244-3.799-2.45-16.751-19.063-26.942c-1.037-0.637-1.362-1.993-0.726-3.032
							c0.638-1.033,1.994-1.356,3.031-0.725c17.307,10.619,24.722,25.883,20.552,32.942c-3.029,5.125-12.094,6.631-22.703,4.395
							c10.022,9.044,15.135,18.789,12.059,24.37c-2.421,4.393-10.014,5.96-19.937,4.552c7.1,5.635,10.836,11.857,9.21,16.353
							C389.332,1665.078,382.776,1667.456,374.071,1667.456z M369.473,1641.455c0.008,0.002,0.014,0.004,0.021,0.006
							C369.487,1641.459,369.481,1641.457,369.473,1641.455z M371.003,1637.697c0.003,0.002,0.005,0.002,0.008,0.004
							C371.008,1637.699,371.006,1637.699,371.003,1637.697z M380.402,1608.342c0.004,0.004,0.008,0.006,0.011,0.009
							C380.41,1608.349,380.407,1608.347,380.402,1608.342z"/>
					</g>
				</g>
				<g>
					<path style="fill:#E2A18D;" d="M755.329,1622.468l0.028,0.002c23.502,1.554,43.986-18.083,45.828-43.935l7.405-103.921
						c1.848-25.933-15.759-48.319-39.327-50.001h-0.001c-23.567-1.682-44.174,17.976-46.028,43.909l-7.433,103.918
						C713.94,1598.465,731.669,1620.902,755.329,1622.468z"/>
					<path style="fill:#E2A18D;" d="M718.936,1352.974c3.276-1.965,34.928-20.312,65.468-7.22
						c22.725,9.741,34.719,30.407,49.594,68.112c17.518,44.401,21.787,73.391,13.44,87.765
						c-13.188,22.711-86.068,20.569-125.96-6.51c-28.795-19.547-43.574-55.324-39.5-90.134
						C686.04,1370.274,716.845,1354.228,718.936,1352.974z"/>
					<path style="fill:#F7F1EB;" d="M695.725,1561.095c18.802,8.383,47.229,15,70.122,9.386
						c25.411-6.231,40.859-19.325,43.619-18.22c7.461,2.986,6.428,18.699,1.657,28.159c-7.684,15.237-27.295,25.583-48.589,28.711
						c-16.959,2.491-65.568,2.455-74.539-17.669C686.596,1588.324,683.746,1579.107,695.725,1561.095z"/>
					<path style="fill:#363E44;" d="M691.123,1322.936c-9.233-4.508-31.23-6.174-53.374,1.84
						c-38.65,13.988-49.642,54.013-46.381,85.03c2.947,28.027,17.917,35.149,14.356,56.319
						c-4.674,27.784-37.13,37.525-41.963,64.049c-4.601,25.25,25.399,46.38,20.982,73.988
						c-6.906,43.161-48.722,35.597-51.901,79.509c-2.842,39.256,39.957,85.398,89.448,94.969
						c65.425,12.653,122.779-12.29,126.993-51.902c5.521-51.902-46.422-74.255-45.276-114.846
						c0.993-35.192,27.607-39.755,30.92-78.405c3.037-35.439-17.3-43.435-18.772-73.988c-0.898-18.645,2.281-32.219-3.313-60.736
						C709.478,1381.62,703.594,1350.307,691.123,1322.936z"/>
					<path style="fill:#EFBC73;" d="M727.749,1319.4c-4.61-2.517-40.797-0.803-45.829,0.591
						c-4.371,14.614-8.191,29.705-7.178,54.927c2.089,52.02,25.755,88.713,36.442,103.355c-0.939-28.229-0.008-61.375,4.969-98.039
						C719.169,1358.023,723.239,1337.683,727.749,1319.4z"/>
					<path style="fill:#363E44;" d="M799.859,1338.859c10.159-13.715,10.895-37.273-8.246-49.789
						c-15.514-10.144-41.904-7.608-65.521,19.877c-6.011,8.023-13.123,22.853-17.723,34.069
						c-21.916,53.435-1.186,106.006,6.26,122.761c4.332-26.031,13.332-44.875,19.957-56.325
						c13.308-22.998,30.031-38.607,31.989-40.41C785.078,1352.014,791.365,1350.327,799.859,1338.859z"/>
					<path style="fill:#363E44;" d="M800.771,1519.396c-18.428,0-38.368-3.534-55.743-9.969c-1.142-0.422-1.724-1.689-1.302-2.832
						c0.423-1.141,1.695-1.724,2.832-1.3c19.075,7.064,41.326,10.54,61.026,9.521c1.227-0.054,2.251,0.874,2.314,2.09
						c0.063,1.214-0.873,2.251-2.088,2.314C805.494,1519.338,803.145,1519.396,800.771,1519.396z"/>
					<g>
						<path style="fill:#FFFFFF;" d="M750.057,1428.777c0,0,9.429,8.776,22.647,12.213c2.781,0.723,5.73,1.21,8.794,1.328
							c17.628,0.683,18.581-23.926,0.953-24.609c-4.385-0.17-8.593,0.43-12.44,1.426c-0.768,0.199-1.522,0.414-2.26,0.641
							c-0.796,0.246-1.574,0.506-2.332,0.778C756.258,1423.843,750.057,1428.777,750.057,1428.777z"/>
						<path style="fill:#363E44;" d="M813.894,1431.25c0,0-13.813-12.857-31.442-13.54c-4.397-0.171-8.615,0.433-12.471,1.435
							c-2.463,6.336-2.129,13.689,1.568,20.012c0.371,0.635,0.774,1.239,1.195,1.825c2.773,0.718,5.7,1.219,8.754,1.338
							C799.125,1443.001,813.894,1431.25,813.894,1431.25z"/>
					</g>
					<path style="fill:#363E44;" d="M838.35,1445.681c-0.176,0-0.355-0.021-0.533-0.064c-1.182-0.293-1.902-1.49-1.609-2.671
						c0.676-2.72,0.613-4.694-0.175-5.555c-0.382-0.418-0.888-0.547-2.236-0.809c-1.088-0.211-2.442-0.474-4.015-1.149
						c-2.814-1.207-5.244-3.261-7.221-6.102c-0.695-1.001-0.449-2.374,0.551-3.069c1.002-0.695,2.373-0.446,3.067,0.551
						c1.499,2.154,3.295,3.693,5.34,4.569c1.141,0.488,2.147,0.684,3.12,0.874c1.598,0.31,3.25,0.633,4.646,2.159
						c1.897,2.07,2.291,5.211,1.203,9.595C840.238,1445.012,839.339,1445.681,838.35,1445.681z"/>
					<path style="fill:#363E44;" d="M823.31,1486.204c-0.203,0-0.411-0.028-0.617-0.088c-2.899-0.844-6.977-2.708-9.943-6.803
						c-2.643-3.652-4.126-8.822-3.527-12.294c0.338-1.948,1.262-2.942,1.98-3.435c2.102-1.444,4.288-0.215,6.218,0.87
						c1.919,1.078,4.307,2.423,7.494,2.307c2.828-0.101,5.671-0.87,8.223-2.223c1.075-0.573,2.408-0.161,2.98,0.915
						c0.57,1.076,0.161,2.411-0.914,2.981c-3.138,1.664-6.642,2.609-10.133,2.731c-4.398,0.153-7.666-1.661-9.81-2.869
						c-0.54-0.303-1.235-0.695-1.67-0.87c-0.439,1.231,0.12,5.697,2.729,9.3c2.233,3.084,5.368,4.507,7.604,5.159
						c1.169,0.34,1.84,1.563,1.5,2.731C825.145,1485.58,824.265,1486.204,823.31,1486.204z"/>
					<g>
						
							<ellipse transform="matrix(0.511 -0.8596 0.8596 0.511 -910.0073 1327.375)" style="fill:#E2A18D;" cx="711.582" cy="1463.463" rx="25.315" ry="29.112"/>
						<path style="fill:#363E44;" d="M716.842,1493.728c-1.16,0-2.132-0.906-2.198-2.079c-0.069-1.216,0.861-2.256,2.076-2.324
							c6.89-0.392,13.785-5.032,17.994-12.113c0.62-1.046,1.971-1.395,3.02-0.768c1.047,0.622,1.39,1.974,0.769,3.02
							c-4.948,8.325-13.199,13.789-21.533,14.261C716.927,1493.726,716.884,1493.728,716.842,1493.728z"/>
						<path style="fill:#363E44;" d="M703.654,1474.666c-0.383,0-0.771-0.099-1.123-0.31c-3.482-2.068-6.061-5.211-7.261-8.846
							c-1.237-3.747-0.874-7.565,1.021-10.75c2.336-3.932,6.695-6.276,11.665-6.276c0.019,0,0.039,0,0.059,0
							c1.217,0.004,2.2,0.994,2.195,2.213c-0.004,1.214-0.99,2.195-2.204,2.195c-0.013-0.004-0.032-0.002-0.05,0
							c-3.401,0-6.343,1.539-7.876,4.119c-1.233,2.073-1.455,4.602-0.624,7.118c0.866,2.626,2.758,4.914,5.326,6.439
							c1.047,0.622,1.39,1.974,0.769,3.02C705.139,1474.281,704.406,1474.666,703.654,1474.666z"/>
					</g>
					<g>
						
							<ellipse transform="matrix(0.0143 -0.9999 0.9999 0.0143 -808.4242 2384.5886)" style="fill:#F7F1EB;" cx="805.234" cy="1602.321" rx="16.564" ry="16.565"/>
						<path style="fill:#F7F1EB;" d="M804.959,1598.639c7.717-2.164,18.269-4.177,30.713-3.65
							c39.089,1.653,73.641,27.381,71.038,34.827c-2.306,6.599-35.158,2.737-59.918-6.449
							C827.802,1616.321,813.885,1606.261,804.959,1598.639z"/>
						<path style="fill:#F7F1EB;" d="M809.882,1603.401c-9.294,4.91-21.049,12.452-31.977,23.887
							c-34.332,35.917-40.154,88.916-30.232,93.141c8.793,3.745,35.148-28.607,48.67-58.485
							C806.713,1639.029,809.365,1617.947,809.882,1603.401z"/>
					</g>
				</g>
			</g>
			<rect x="694.842" y="1940.301" style="fill:#E6D0BE;" width="1186.745" height="221.482"/>
			<g>
				<path style="fill:#9E6C5A;" d="M1630.264,1883.641c-53.214,0-104.218,22.22-141.646,61.709l-25.19,26.578
					c-8.811,14.592-3.801,24.137,17.073,27.891c16.511,2.968,42.946,2.312,80.317-2.337l-27.093,8.082
					c-19.518,8.372,33.778,14.325,61.223,10.651l84.095-19.467l189.211,28.504c-4.479-46.934-8.191-94.036-8.699-141.612H1630.264z"
					/>
				<path style="fill:#ff6900;" d="M2114.666,1947.526l0.735-130.765l-186.597-5.877l11.02,66.852
					c-8.081,2.939-29.536,3.673-41.14,3.673l-71.26,2.939v154.274h175.578C2099.974,2023.928,2109.524,2044.498,2114.666,1947.526z"
					/>
				<path style="fill:#363E44;" d="M1827.422,1886.551c-1.158,0-2.129-0.904-2.198-2.075c-0.071-1.214,0.854-2.258,2.07-2.329
					l109.993-6.472l-19.48-130.952c-0.179-1.205,0.652-2.327,1.855-2.505c1.205-0.151,2.327,0.652,2.505,1.855l19.835,133.336
					c0.09,0.613-0.08,1.235-0.469,1.715s-0.964,0.773-1.582,0.809l-112.399,6.612
					C1827.51,1886.549,1827.465,1886.551,1827.422,1886.551z"/>
				<path style="fill:#363E44;" d="M1906.351,2042.751c-25.403,0-51.706-0.643-79.031-1.928c-1.175-0.056-2.101-1.024-2.101-2.202
					v-57.302c0-1.218,0.986-2.204,2.204-2.204s2.204,0.986,2.204,2.204v55.197c100.678,4.614,187.543,0.495,265.478-12.601
					c19.131-24.596,19.375-107.714,19.607-188.115c0.047-16.768,0.099-34.107,0.321-50.658c0.017-1.207,1.001-2.174,2.204-2.174
					c0.009,0,0.019,0,0.03,0c1.216,0.017,2.191,1.016,2.174,2.234c-0.222,16.527-0.273,33.855-0.321,50.61
					c-0.25,85.649-0.482,166.55-21.12,191.54c-0.338,0.409-0.812,0.682-1.332,0.771
					C2038.779,2037.904,1975.992,2042.751,1906.351,2042.751z"/>
			</g>
			<g>
				<rect x="1164.218" y="1703.772" style="fill:#84524D;" width="198.312" height="40.897"/>
				<rect x="1162.96" y="2036.44" style="fill:#84524D;" width="200.827" height="40.897"/>
				<path style="fill:#84524D;" d="M1360.452,2038.645h-194.156c-1.217,0-2.204-0.986-2.204-2.204v-69.399
					c0-0.585,0.233-1.145,0.646-1.558l74.93-74.928l-74.93-74.929c-0.413-0.413-0.646-0.973-0.646-1.558v-69.399
					c0-1.218,0.987-2.204,2.204-2.204h194.156c1.218,0,2.204,0.986,2.204,2.204v69.399c0,0.585-0.232,1.145-0.646,1.558
					l-74.928,74.929l74.928,74.928c0.413,0.413,0.646,0.973,0.646,1.558v69.399
					C1362.655,2037.659,1361.67,2038.645,1360.452,2038.645z M1168.5,2034.237h189.748v-66.283l-75.841-75.841
					c-0.861-0.861-0.861-2.255,0-3.116l75.841-75.841v-66.283H1168.5v66.283l75.842,75.841c0.861,0.861,0.861,2.256,0,3.116
					l-75.842,75.841V2034.237z M1360.452,1814.068h0.021H1360.452z"/>
				<path style="fill:#EFBC73;" d="M1276.17,1885.94c25.111-25.111,39.19-39.19,64.301-64.3v-11.201h-154.192v11.201
					c25.111,25.111,39.189,39.19,64.3,64.3h6.926v73.776h-22.19c-19.15,19.15-29.886,29.887-49.036,49.036v26.465h154.192v-26.465
					c-19.15-19.15-29.887-29.887-49.037-49.036h-22.19v-73.776H1276.17z"/>
			</g>
		</g>
	</g>
</g>
</svg>
