<?xml version="1.0" encoding="utf-8"?>
<!-- Generator: Adobe Illustrator 27.5.0, SVG Export Plug-In . SVG Version: 6.00 Build 0)  -->
<svg version="1.1" xmlns="http://www.w3.org/2000/svg" xmlns:xlink="http://www.w3.org/1999/xlink" x="0px" y="0px"
	 viewBox="0 0 2500 2500" style="enable-background:new 0 0 2500 2500;" xml:space="preserve">
-
<g id="Illustration">
	<g id="Workplace_discrimination_1_">
		<circle style="fill:transparent;" cx="1250" cy="1250" r="915"/>
		<g>
			<rect x="335.001" y="1968.63" style="fill:#EFBC73;" width="560.07" height="196.37"/>
			<rect x="1602.754" y="1604.93" style="fill:#EFBC73;" width="560.07" height="560.07"/>
			<rect x="973.579" y="1827.343" style="fill:#EFBC73;" width="560.07" height="337.657"/>
		</g>
		<g>
			<g>
				<g>
					<polygon style="fill:#84524D;" points="1080.958,1763.137 985.27,1761.682 1003.841,1637.365 1099.099,1653.505 					"/>
					<g>
						<path style="fill:#D3BBA3;" d="M1213.619,1826.348l-135.542,0.161l-34.022-29.709l1.917,29.548h-79.029l22.714-94.299h96.638
							l25.55,15.189l12.958,15.539l33.064,11.82C1192.115,1783.873,1213.935,1792.511,1213.619,1826.348z"/>
					</g>
					<path style="fill:#84524D;" d="M1111.865,1747.284l-95.836-0.16c0,0,52.071,47.563,143.435,27.952L1111.865,1747.284z"/>
				</g>
				<g>
					<polygon style="fill:#84524D;" points="1301.151,1763.113 1205.894,1761.682 1224.465,1637.365 1319.723,1653.505 					"/>
					<g>
						<path style="fill:#D3BBA3;" d="M1434.242,1826.348l-133.246,0l-33.876-30.041l8.319,30.041h-87.873l22.714-94.299
							l95.973,0.061l21.487,12.692l10.299,17.896l36.897,9.983C1409.185,1781.957,1434.558,1792.511,1434.242,1826.348z"/>
					</g>
					<path style="fill:#84524D;" d="M1327.777,1744.808l-96.089-0.146c0,0,52.071,47.563,143.435,27.952L1327.777,1744.808z"/>
				</g>
				<path style="fill:#363E44;" d="M1309.476,1044.352c0,0,28.751,71.877,44.564,119.795
					c40.508,122.752-25.584,530.587-25.584,530.587l-125.917,1.931l-4.911-396.43l-93.428,394.499l-120.754-1.917
					c0,0-6.601-361.289,60.085-499.919c32.527-67.618,82.419-145.671,82.419-145.671L1309.476,1044.352z"/>
			</g>
			<g>
				<g>
					<path style="fill:#84524D;" d="M1373.22,994.624c-0.001-0.002-0.001-0.006,0.002-0.007
						c81.167-58.221,137.638-101.085,155.591-113.632c1.88-1.314,5.188-3.648,10.149-5.404c18.381-6.505,29.999,5.361,52.448,7.341
						c25.472,2.246,41.086-10.91,44.839-5.565c2.61,3.718-1.883,10.338-15.219,19.407c0,0,0,0.003,0.001,0.002
						c10.924-5.725,26.078-12.843,29.225-6.796c3.26,7.176-13.563,17.629-24.049,23.455c12.692-7.052,21.551-7.005,22.465-3.196
						c1.439,5.994-7.13,13.755-24.266,22.424c0,0,0,0.001,0,0.001c13.504-2.681,17.18-1.319,17.167,2.245
						c-0.023,6.506-14.245,13.368-27.748,17.507c-15.201,4.66-28.607,3-37.034,1.753c-0.002,0-0.005,0-0.006,0.002
						c-52.62,46.671-86.397,76.753-128.127,115.311c-8.538,7.888-22.003,6.769-29.129-2.414
						C1400.261,1042.229,1389.857,1027.906,1373.22,994.624z"/>
					<path style="fill:#363E44;" d="M1374.144,996.162c-0.687,0-1.363-0.32-1.794-0.919c-0.709-0.989-0.483-2.367,0.506-3.077
						c17.96-12.888,35.728-25.749,54.322-39.319c0.985-0.719,2.364-0.503,3.08,0.481c0.718,0.983,0.503,2.362-0.481,3.08
						c-18.602,13.577-36.38,26.445-54.35,39.34C1375.038,996.027,1374.588,996.162,1374.144,996.162z"/>
					<path style="fill:#84524D;" d="M1570.395,885.908c19.574-16.031,23.237-25.962,20.598-28.983
						c-4.439-5.08-26.752,1.766-58.312,21.591C1543.004,881.518,1560.073,882.906,1570.395,885.908z"/>
					<path style="fill:#363E44;" d="M1550.424,925.227c-0.637,0-1.268-0.275-1.704-0.805c-0.773-0.941-0.637-2.33,0.304-3.103
						c3.703-3.044,9.898-6.859,18.377-7.75c11.999-1.253,21.007,4.269,24.326,6.704c0.981,0.72,1.193,2.1,0.473,3.082
						c-0.719,0.98-2.097,1.193-3.082,0.473c-2.905-2.133-10.788-6.975-21.256-5.873c-7.391,0.777-12.802,4.112-16.039,6.771
						C1551.412,925.062,1550.917,925.227,1550.424,925.227z"/>
					<path style="fill:#363E44;" d="M1576.65,883.261c-0.194,0-0.392-0.027-0.588-0.081c-2.974-0.821-5.748-1.719-8.432-2.587
						c-5.515-1.784-10.726-3.47-15.975-3.856c-1.214-0.089-2.126-1.146-2.037-2.36c0.088-1.214,1.126-2.146,2.36-2.037
						c5.779,0.425,11.234,2.19,17.01,4.058c2.639,0.854,5.368,1.736,8.248,2.532c1.175,0.324,1.862,1.538,1.538,2.712
						C1578.504,882.619,1577.617,883.261,1576.65,883.261z"/>
					<path style="fill:#363E44;" d="M1600.677,902.669c-0.829,0-1.658-0.019-2.486-0.058c-1.216-0.058-2.155-1.09-2.098-2.307
						c0.058-1.216,1.131-2.128,2.307-2.098c2.941,0.141,5.909,0.009,8.813-0.393c4.216-0.581,8.353-1.73,12.296-3.416
						c1.117-0.48,2.416,0.04,2.894,1.16c0.479,1.12-0.041,2.415-1.161,2.894c-4.304,1.84-8.822,3.095-13.426,3.73
						C1605.46,902.507,1603.068,902.669,1600.677,902.669z"/>
					<path style="fill:#363E44;" d="M1607.474,918.357c-0.833,0-1.666-0.019-2.495-0.059c-1.217-0.059-2.155-1.092-2.097-2.308
						c0.059-1.216,1.134-2.117,2.308-2.097c2.94,0.139,5.905,0.009,8.812-0.393c4.221-0.581,8.357-1.731,12.294-3.416
						c1.12-0.476,2.415,0.04,2.895,1.159c0.479,1.12-0.04,2.416-1.159,2.895c-4.3,1.84-8.817,3.094-13.426,3.73
						C1612.251,918.193,1609.861,918.357,1607.474,918.357z"/>
					<path style="fill:#363E44;" d="M1604.329,938.913c-0.831,0-1.661-0.019-2.49-0.059c-1.217-0.059-2.155-1.092-2.097-2.308
						c0.059-1.215,1.134-2.12,2.308-2.097c2.935,0.14,5.901,0.009,8.812-0.393c4.22-0.581,8.357-1.731,12.294-3.416
						c1.121-0.478,2.415,0.04,2.895,1.159c0.479,1.12-0.04,2.416-1.159,2.895c-4.3,1.84-8.817,3.094-13.427,3.73
						C1609.107,938.749,1606.716,938.913,1604.329,938.913z"/>
				</g>
				<path style="fill:#ff6900;" d="M1437.23,1016.691c0,0-51.752-161.005-198.381-163.88
					c-146.63-2.875-297.572,123.629-296.135,184.006c1.438,60.377,115.483,111.649,115.483,111.649l-91.045,191.673l169.63,1.438
					l107.816-182.568l69.002,172.505l118.358-28.431l-100.269-226.493c0,0,28.302,46.543,56.972,53.387
					C1425.798,1138.841,1437.23,1016.691,1437.23,1016.691z"/>
				<path style="fill:#363E44;" d="M1333.569,1063.141c-0.044,0-0.088-0.001-0.132-0.004c-1.216-0.072-2.142-1.115-2.07-2.331
					l4.473-75.391c0.025-0.425,0.172-0.833,0.424-1.177c7.223-9.815,9.683-18.562,7.312-25.997
					c-3.712-11.642-18.218-16.555-18.364-16.604c-1.155-0.381-1.784-1.627-1.404-2.783c0.379-1.156,1.619-1.789,2.78-1.406
					c0.682,0.223,16.764,5.634,21.182,19.426c2.793,8.721,0.246,18.626-7.566,29.447l-4.436,74.745
					C1335.698,1062.237,1334.726,1063.141,1333.569,1063.141z"/>
				<g>
					<rect x="1122.727" y="1048.796" style="fill:#363E44;" width="213.396" height="37.696"/>
					<g>
						<path style="fill:#EFBC73;" d="M1261.85,1099.219c-16.54,0-29.998-13.457-29.998-29.998c0-16.541,13.457-29.998,29.998-29.998
							s29.996,13.457,29.996,29.998C1291.846,1085.762,1278.39,1099.219,1261.85,1099.219z M1261.85,1043.633
							c-14.109,0-25.588,11.478-25.588,25.588c0,14.109,11.479,25.588,25.588,25.588c14.108,0,25.587-11.478,25.587-25.588
							C1287.437,1055.112,1275.958,1043.633,1261.85,1043.633z"/>
						<path style="fill:#EFBC73;" d="M1232.432,1099.219c-16.54,0-29.996-13.457-29.996-29.998
							c0-16.541,13.456-29.998,29.996-29.998c16.541,0,29.998,13.457,29.998,29.998
							C1262.43,1085.762,1248.973,1099.219,1232.432,1099.219z M1232.432,1043.633c-14.109,0-25.587,11.478-25.587,25.588
							c0,14.109,11.478,25.588,25.587,25.588c14.11,0,25.588-11.478,25.588-25.588
							C1258.021,1055.112,1246.542,1043.633,1232.432,1043.633z"/>
					</g>
				</g>
				<g>
					
						<rect x="1034.643" y="992.84" transform="matrix(0.7186 0.6955 -0.6955 0.7186 1078.1566 -466.7376)" style="fill:#EFBC73;" width="162.242" height="211.852"/>
					
						<rect x="1163.361" y="1009.99" transform="matrix(0.7186 0.6955 -0.6955 0.7186 1046.0159 -539.2459)" style="fill:#363E44;" width="51.846" height="25.625"/>
					<path style="fill:#363E44;" d="M1198.257,1029.089c-3.645,0-7.086-1.392-9.712-3.933c-5.538-5.359-5.682-14.224-0.324-19.76
						c5.36-5.538,14.226-5.682,19.76-0.324c2.683,2.597,4.193,6.081,4.255,9.814c0.061,3.732-1.335,7.265-3.93,9.947
						c-2.597,2.683-6.082,4.193-9.814,4.255C1198.414,1029.088,1198.335,1029.089,1198.257,1029.089z M1198.265,1005.554
						c-2.503,0-5.002,0.972-6.875,2.908c-3.668,3.791-3.569,9.858,0.221,13.525c1.837,1.777,4.223,2.683,6.808,2.691
						c2.555-0.042,4.94-1.077,6.717-2.912c1.777-1.836,2.732-4.254,2.692-6.808c-0.042-2.555-1.077-4.94-2.912-6.717
						C1203.062,1006.446,1200.662,1005.554,1198.265,1005.554z"/>
				</g>
				<g>
					<path style="fill:#84524D;" d="M1112.824,1071.797c15.439,11.175,46.965,34.337,49.634,36.429
						c14.209,11.131,45.302,34.1,39.836,45.214c-1.818,3.696-6.249,5.937-11.167,6.223c1.506,5.065-0.098,10.483-4.021,13.679
						c-5.155,4.2-11.51,2.278-11.975,2.129c1.671,3.735,1.39,7.979-0.875,10.939c-3.125,4.084-9.644,5.225-14.917,1.926
						c-0.105,1.155-0.622,5.257-4,8.239c-3.743,3.304-9.486,3.898-14.531,1.479c-12.632-9.879-54.615-35.019-80.695-50.545
						C1059.579,1147.189,1111.54,1070.868,1112.824,1071.797z"/>
					<path style="fill:#363E44;" d="M1178.58,1144.331c-0.523,0-1.048-0.185-1.469-0.562c-0.907-0.812-0.984-2.206-0.172-3.114
						l5.297-5.918c0.813-0.906,2.205-0.985,3.113-0.172c0.908,0.813,0.984,2.206,0.172,3.114l-5.297,5.918
						C1179.789,1144.084,1179.186,1144.331,1178.58,1144.331z"/>
					<path style="fill:#363E44;" d="M1165.16,1159.368c-0.523,0-1.049-0.185-1.469-0.562c-0.908-0.812-0.984-2.206-0.172-3.113
						l5.298-5.919c0.814-0.908,2.206-0.984,3.114-0.172c0.907,0.813,0.984,2.206,0.172,3.114l-5.298,5.919
						C1166.369,1159.12,1165.766,1159.368,1165.16,1159.368z"/>
					<path style="fill:#363E44;" d="M1151.664,1174.828c-0.523,0-1.049-0.185-1.469-0.562c-0.908-0.813-0.984-2.206-0.172-3.114
						l5.297-5.918c0.813-0.906,2.205-0.986,3.114-0.172c0.907,0.813,0.984,2.206,0.172,3.113l-5.297,5.918
						C1152.872,1174.581,1152.27,1174.828,1151.664,1174.828z"/>
					<path style="fill:#363E44;" d="M1139.135,1188.598c-0.523,0-1.049-0.185-1.47-0.562c-0.907-0.813-0.984-2.206-0.172-3.113
						l5.297-5.918c0.812-0.908,2.205-0.986,3.114-0.172c0.907,0.813,0.984,2.206,0.172,3.114l-5.297,5.918
						C1140.343,1188.35,1139.741,1188.598,1139.135,1188.598z"/>
				</g>
				
					<rect x="1003.433" y="1051.261" transform="matrix(-0.6274 0.7787 -0.7787 -0.6274 2572.3286 953.2362)" style="fill:#ff6900;" width="109.38" height="81.461"/>
				<path style="fill:#363E44;" d="M1069.057,1032.472c-0.488,0-0.978-0.16-1.387-0.491l-40.251-32.585
					c-0.946-0.766-1.092-2.154-0.326-3.102c0.768-0.947,2.154-1.091,3.102-0.326l40.251,32.585c0.946,0.766,1.092,2.155,0.326,3.102
					C1070.336,1032.194,1069.699,1032.472,1069.057,1032.472z"/>
				<polygon style="fill:#ff6900;" points="1403.045,1126.592 1516.418,1018.295 1465.654,918.459 1359.05,1002.22 				"/>
				<path style="fill:#363E44;" d="M1385.279,984.119c-0.661,0-1.316-0.296-1.75-0.861c-0.742-0.966-0.561-2.35,0.405-3.092
					l58.378-44.841c0.966-0.741,2.35-0.562,3.092,0.405c0.742,0.966,0.561,2.35-0.405,3.092l-58.378,44.841
					C1386.221,983.971,1385.748,984.119,1385.279,984.119z"/>
			</g>
			<g>
				<circle style="fill:#363E44;" cx="1180.548" cy="807.595" r="43.126"/>
				<path style="fill:#363E44;" d="M1180.548,838.218c-24.996,0-45.331-20.335-45.331-45.331c0-24.996,20.335-45.331,45.331-45.331
					c24.996,0,45.331,20.335,45.331,45.331C1225.879,817.883,1205.544,838.218,1180.548,838.218z M1180.548,751.965
					c-22.564,0-40.922,18.358-40.922,40.922c0,22.564,18.358,40.922,40.922,40.922c22.564,0,40.922-18.358,40.922-40.922
					C1221.47,770.323,1203.112,751.965,1180.548,751.965z"/>
				<path style="fill:#363E44;" d="M1167.311,847.043c-24.996,0-45.331-20.335-45.331-45.331s20.335-45.331,45.331-45.331
					s45.331,20.335,45.331,45.331S1192.307,847.043,1167.311,847.043z M1167.311,760.79c-22.564,0-40.922,18.358-40.922,40.922
					s18.358,40.922,40.922,40.922s40.922-18.358,40.922-40.922S1189.875,760.79,1167.311,760.79z"/>
				<path style="fill:#84524D;" d="M1214.099,710.628c2.072-1.095,22.075-11.283,40.352-2.247
					c13.599,6.724,20.261,19.785,28.121,43.38c9.257,27.786,10.909,45.69,5.317,54.219c-8.835,13.476-53.416,9.741-76.957-8.176
					c-16.992-12.933-24.858-35.345-21.205-56.537C1193.37,720.134,1212.777,711.327,1214.099,710.628z"/>
				<polygon style="fill:#84524D;" points="1265.702,855.096 1266.801,972.292 1213.874,853.625 1213.874,765.742 1265.702,765.742 
									"/>
				<path style="fill:#363E44;" d="M1266.21,818.117c-18.196,0-42.728-7.991-56.614-18.559c-0.969-0.738-1.157-2.121-0.42-3.09
					c0.738-0.969,2.122-1.158,3.09-0.42c13.591,10.344,37.943,18.082,55.372,17.641c1.183-0.058,2.229,0.928,2.261,2.147
					c0.032,1.218-0.929,2.23-2.147,2.261C1267.245,818.111,1266.729,818.117,1266.21,818.117z"/>
				<g>
					<path style="fill:#FFFFFF;" d="M1232.563,760.147c0,0,6.469-5.24,15.152-6.885c1.847-0.35,1.165,15.094-0.747,14.589
						C1238.559,765.632,1232.563,760.147,1232.563,760.147z"/>
					<path style="fill:#373E44;" d="M1253.516,752.784c-2.003-0.06-3.941,0.137-5.786,0.486c-2.859,4.534-2.994,10.05-0.77,14.576
						c1.914,0.506,3.954,0.845,6.076,0.909c11.44,0.344,20.954-7.363,20.954-7.363S1264.956,753.128,1253.516,752.784z"/>
				</g>
				<path style="fill:#363E44;" d="M1268.687,788.874c-0.203,0-0.409-0.029-0.614-0.088c-1.17-0.338-1.844-1.561-1.505-2.731
					c0.994-3.431,4.082-5.832,7.511-5.836c0.003,0,0.007,0,0.011,0c3.484,0,5.868,2.495,6.73,3.971
					c0.614,1.052,0.258,2.402-0.793,3.016c-1.055,0.612-2.402,0.257-3.016-0.794c-0.001-0.001-1.114-1.784-2.922-1.784
					c-0.001,0-0.002,0-0.003,0c-1.481,0.002-2.83,1.093-3.282,2.654C1270.525,788.247,1269.643,788.874,1268.687,788.874z"/>
				<path style="fill:#363E44;" d="M1285.26,773.696c-0.506,0-1.015-0.173-1.43-0.527c-0.927-0.79-1.037-2.182-0.246-3.108
					c2.135-2.503,1.881-3.396,1.877-3.404c-0.087-0.128-0.574-0.414-0.93-0.623c-0.731-0.43-1.733-1.018-2.792-2.016
					c-1.56-1.468-2.734-3.333-3.491-5.543c-0.395-1.152,0.219-2.406,1.37-2.8c1.154-0.398,2.406,0.22,2.8,1.37
					c0.523,1.524,1.311,2.79,2.345,3.764c0.697,0.657,1.36,1.046,2.001,1.423c1.043,0.613,2.224,1.307,2.815,2.851
					c0.842,2.205-0.022,4.769-2.642,7.841C1286.502,773.433,1285.883,773.696,1285.26,773.696z"/>
				<path style="fill:#363E44;" d="M1238.689,720.716l16.694,16.694c9.236-4.074,18.473-8.148,27.71-12.221
					c-2.282-4.115-6.423-10.36-13.417-15.973c-12.745-10.228-26.429-11.507-30.348-11.82c-22.116-1.763-45.946,9.856-55.904,29.39
					c-0.499,0.98-2.723,5.431-4.153,12.139c-6.143,28.829,15.8,65.721,26.834,65.169c3.444-0.172,6.622-7.737,14.695-51.432
					c9.425-4.157,18.851-8.314,28.276-12.47L1238.689,720.716z"/>
				<g>
					<path style="fill:#84524D;" d="M1230.567,763.963c7.53,6.854,8.937,17.57,3.143,23.934c-5.794,6.364-16.594,5.967-24.124-0.888
						c-7.529-6.855-8.937-17.57-3.143-23.935C1212.237,756.711,1223.037,757.109,1230.567,763.963z"/>
					<path style="fill:#363E44;" d="M1216.247,784.699c-0.406,0-0.817-0.112-1.184-0.347c-0.634-0.405-1.24-0.869-1.801-1.379
						c-4.72-4.297-5.501-11.15-1.745-15.278c0.955-1.048,2.119-1.841,3.459-2.358c1.135-0.435,2.413,0.127,2.85,1.265
						c0.438,1.136-0.128,2.413-1.265,2.85c-0.694,0.268-1.294,0.675-1.783,1.211c-2.12,2.33-1.468,6.388,1.452,9.049
						c0.376,0.341,0.782,0.652,1.206,0.924c1.026,0.655,1.327,2.019,0.672,3.045C1217.688,784.34,1216.975,784.699,1216.247,784.699
						z"/>
				</g>
			</g>
		</g>
		<g>
			<g>
				<polygon style="fill:#E6D0BE;" points="601.401,1531.589 457.182,1585.965 457.182,1268.299 623.149,1268.299 				"/>
				<path style="fill:#363E44;" d="M457.181,1587.677c-1.218,0-2.205-0.987-2.205-2.205v-312.809
					c0-22.604-19.145-40.994-42.676-40.994h-43.186c-1.218,0-2.205-0.987-2.205-2.205s0.987-2.205,2.205-2.205H412.3
					c25.964,0,47.086,20.368,47.086,45.403v312.809C459.386,1586.689,458.399,1587.677,457.181,1587.677z"/>
			</g>
			<g>
				<g>
					<g>
						<g>
							<path style="fill:#363E44;" d="M1061.078,1824.933c-7.272-7.69-19.901-19.148-38.52-27.668
								c-19.214-8.793-35.617-10.252-45.231-11.021c-51.476-4.117-99.688,20.348-115.27,28.864
								c-2.835,6.82-5.311,15.326-7.463,25.135c-3.116,14.206-2,30.516,2.922,43.625l1.998,5.275
								c21.063,2.052,63.728,2.14,115.872-15.059C995.057,1867.594,1027.477,1854.067,1061.078,1824.933z"/>
						</g>
					</g>
					<g>
						<g>
							<g>
								<path style="fill:#363E44;" d="M919.855,1827.47c15.152-0.588,36.988,0.488,61.49,8.625
									c45.603,15.142,72.607,45.496,83.686,59.645c-24.001,8.072-51.073,15.724-80.978,21.91
									c-44.678,9.241-85.338,13.069-120.131,14.127c-11.635-13.027-17.283-25.159-22.233-42.599
									c-5.268-18.565-9.322-36.31,3.845-51.143C861.783,1819.728,892.559,1814.664,919.855,1827.47z"/>
								<path style="fill:#FFFFFF;" d="M1019.623,1856.563c-0.425,0-0.855-0.123-1.234-0.379
									c-0.394-0.267-39.951-26.635-89.923-26.635c-0.071,0-0.135-0.018-0.206,0c-1.217,0-2.203-0.985-2.205-2.202
									c-0.002-1.286,1.116-2.212,2.409-2.208c51.373,0,91.992,27.12,92.397,27.395c1.008,0.682,1.271,2.053,0.589,3.061
									C1021.025,1856.224,1020.331,1856.563,1019.623,1856.563z"/>
							</g>
							<path style="fill:#E2A18D;" d="M928.636,1818.872l-10.26-98.474l-112.353,21.231c0,0,23.831,60.933,40.386,96.508
								c4.886,10.5,15.557,17.08,27.13,16.645c9.315-0.35,21.262-1.645,34.094-5.173
								C921.204,1845.876,930.095,1832.872,928.636,1818.872z"/>
						</g>
						<g>
							<g>
								<path style="fill:#ff6900;" d="M943.733,1801.031l-131.168,14.535c0,0-29.268-111.311-47.523-142.315
									c-2.042-3.468-3.946-5.931-5.655-7.121l-190.181,31.74c-69.773,0-116.968-82.285-89.652-149.331l297.415-43.121
									c13.925-2.019,28.109-2.023,41.954,0.487c19.712,3.573,37.83,11.614,52.438,27.063
									C912.91,1576.909,929.974,1655.812,943.733,1801.031z"/>
							</g>
							<path style="fill:#363E44;" d="M759.385,1668.334c-0.392,0-0.789-0.104-1.149-0.324c-1.039-0.635-1.365-1.993-0.73-3.032
								l8.043-13.145c0.635-1.037,1.99-1.366,3.032-0.73c1.039,0.635,1.365,1.993,0.73,3.032l-8.043,13.145
								C760.852,1667.96,760.128,1668.334,759.385,1668.334z"/>
						</g>
					</g>
				</g>
				<g>
					<path style="fill:#FFFFFF;" d="M481.061,1338.268c0,0-5.449,103.552-8.97,213.175l277.963-42.124
						c0,0-13.589-72.656-13.569-127.722L481.061,1338.268z"/>
					<path style="fill:#E2A18D;" d="M453.74,1371.73c0,0-8.962,106.161,57.912,117.144c66.874,10.984,56.452-111.428,56.452-111.428
						L453.74,1371.73z"/>
					<path style="fill:#FFFFFF;" d="M438.845,1384.806c0,0,82.242,5.19,138.335,32.242c56.093,27.051,220.953,1.465,264.455-39.906
						c0,0-48.82-139.308-204.872-139.087C480.711,1238.274,451.144,1315.583,438.845,1384.806z"/>
					<g>
						<path style="fill:#E2A18D;" d="M837.865,1338.268c0,0,51.159,87.605-5.963,113.564
							c-72.774,33.072-116.415-40.452-116.415-40.452L837.865,1338.268z"/>
						<g>
							<g>
								<polygon style="fill:#84524D;" points="785.385,1430.944 649.117,1430.944 717.962,1272.37 854.231,1272.37 								"/>
							</g>
							<g>
								<path style="fill:#84524D;" d="M645.384,1424.029c-0.293,0-0.591-0.059-0.877-0.183c-1.116-0.485-1.629-1.784-1.144-2.901
									l67.341-155.108c0.35-0.805,1.144-1.326,2.023-1.326h133c1.218,0,2.205,0.987,2.205,2.205c0,1.218-0.987,2.205-2.205,2.205
									H714.173l-66.765,153.782C647.047,1423.532,646.236,1424.029,645.384,1424.029z"/>
							</g>
						</g>
						<g>
							<path style="fill:#E2A18D;" d="M783.16,1311.25c1.097-8.071,19.476-9.154,37.306-8.848
								c13.092,0.224,27.979,1.45,27.979,11.969c0,12.229-18.445,12.213-30.448,11.195
								C800.183,1324.054,782.087,1319.14,783.16,1311.25z"/>
							<path style="fill:#E2A18D;" d="M777.254,1329.642c1.197-8.521,21.237-9.664,40.68-9.341
								c14.276,0.237,30.51,1.531,30.51,12.636c0,12.91-20.114,12.893-33.202,11.819
								C795.817,1343.161,776.084,1337.973,777.254,1329.642z"/>
							<path style="fill:#E2A18D;" d="M776.563,1351.727c0.679-8.868,18.303-10.804,35.465-11.201
								c12.601-0.291,26.975,0.438,27.465,11.937c0.57,13.368-17.17,14.106-28.76,13.485
								C793.53,1365.027,775.898,1360.397,776.563,1351.727z"/>
							<path style="fill:#E2A18D;" d="M780.978,1370.235c0.517-7.344,14.347-8.915,27.816-9.212
								c9.89-0.218,21.174,0.413,21.58,9.938c0.472,11.073-13.451,11.652-22.55,11.116
								C794.321,1381.283,780.473,1377.415,780.978,1370.235z"/>
							<g>
								<path style="fill:#363E44;" d="M811.09,1384.342c-1.457,0-2.985-0.047-4.585-0.142c-1.216-0.071-2.143-1.114-2.071-2.33
									c0.071-1.218,1.117-2.167,2.33-2.071c12.356,0.716,17.464-1.597,19.574-3.672c1.324-1.302,1.924-2.961,1.833-5.072
									c-0.082-1.906-0.698-3.383-1.883-4.516l-2.939-2.811l3.96-0.929c9.245-2.168,10.124-6.884,9.981-10.242
									c-0.12-2.8-1.183-4.825-3.347-6.372l-4.265-3.049l5.162-0.916c1.802-0.319,3.417-0.744,4.803-1.262
									c1.141-0.429,2.41,0.152,2.838,1.292c0.426,1.141-0.152,2.412-1.292,2.838c-0.523,0.196-1.069,0.379-1.638,0.55
									c1.317,1.895,2.036,4.146,2.146,6.732c0.201,4.719-1.519,10.713-10.263,13.817c0.687,1.382,1.07,2.947,1.144,4.682
									c0.144,3.379-0.914,6.207-3.146,8.403C826.004,1382.641,819.845,1384.342,811.09,1384.342z"/>
								<path style="fill:#363E44;" d="M841.657,1325.892c-0.039,0-0.076-0.001-0.115-0.003l-37.852-1.938
									c-1.216-0.063-2.151-1.098-2.089-2.315c0.063-1.217,1.127-2.15,2.315-2.089l37.852,1.938
									c1.216,0.062,2.151,1.098,2.089,2.315C843.797,1324.978,842.823,1325.892,841.657,1325.892z"/>
								<path style="fill:#363E44;" d="M836.287,1346.474c-0.047,0-0.094-0.001-0.142-0.004l-36.791-2.332
									c-1.214-0.078-2.137-1.125-2.06-2.34c0.077-1.214,1.107-2.139,2.34-2.061l36.791,2.332c1.214,0.078,2.137,1.125,2.06,2.34
									C838.412,1345.576,837.442,1346.474,836.287,1346.474z"/>
								<path style="fill:#363E44;" d="M828.234,1367.056c-0.034,0-0.068-0.001-0.102-0.002l-37.547-1.711
									c-1.217-0.056-2.157-1.086-2.103-2.303c0.056-1.216,1.096-2.148,2.303-2.102l37.547,1.711
									c1.216,0.056,2.157,1.086,2.103,2.303C830.38,1366.133,829.405,1367.056,828.234,1367.056z"/>
							</g>
						</g>
					</g>
					<g>
						<g>
							<path style="fill:#E2A18D;" d="M613.218,1280.374c-44.526,33.79-143.465,173.062-143.465,173.062l27.359,31.313l10.546,4.453
								c34.308,14.487,73.966-0.197,90.566-33.534l49.752-102.757c0,0,9.113,2.256,12.903-1.254
								c4.579-4.241,5.342-12.893,5.342-12.893s5.737-1.451,7.875-7.767c1.931-5.706-2.099-10.026-2.099-10.026
								s4.771-6.752,1.564-13.603c-4.78-10.211-24.445-13.827-24.445-13.827s47.276,4.122,46.692-8.303
								C695.271,1273.783,629.695,1267.87,613.218,1280.374z"/>
						</g>
						<g>
							<path style="fill:#363E44;" d="M479.9,1441.569c-0.45,0-0.903-0.137-1.295-0.422c-0.985-0.717-1.201-2.095-0.486-3.08
								c7.357-10.111,18.966-25.892,32.487-43.654c0.737-0.969,2.122-1.158,3.09-0.42c0.969,0.738,1.157,2.121,0.42,3.09
								c-13.498,17.732-25.086,33.486-32.431,43.578C481.254,1441.254,480.582,1441.569,479.9,1441.569z"/>
						</g>
						<g>
							<path style="fill:#363E44;" d="M671.914,1323.165c-0.699,0-1.386-0.331-1.814-0.949c-2.084-3.005-6.758-8.446-14.64-11.122
								c-5.77-1.959-10.997-1.67-14.364-1.081c-1.205,0.206-2.341-0.595-2.551-1.794c-0.209-1.199,0.594-2.342,1.794-2.552
								c3.873-0.674,9.888-1.005,16.538,1.251c9.082,3.082,14.453,9.333,16.847,12.784c0.693,1,0.446,2.374-0.556,3.068
								C672.785,1323.038,672.347,1323.165,671.914,1323.165z"/>
							<path style="fill:#363E44;" d="M666.521,1340.688c-0.646,0-1.286-0.283-1.722-0.827c-2.46-3.073-5.425-5.559-8.813-7.39
								c-5.358-2.896-10.552-3.445-13.98-3.471c-0.003,0-0.006,0-0.01,0c-1.213,0-2.2-0.981-2.205-2.195
								c-0.005-1.218,0.978-2.209,2.195-2.214c0.049,0,0.099,0,0.147,0c5.591,0,11.103,1.382,15.949,4.001
								c3.91,2.113,7.327,4.978,10.159,8.513c0.761,0.951,0.607,2.338-0.343,3.099
								C667.491,1340.53,667.004,1340.688,666.521,1340.688z"/>
							<path style="fill:#363E44;" d="M647.73,1354.87c-0.27,0-0.545-0.051-0.811-0.156c-1.133-0.449-1.687-1.73-1.238-2.861
								l2.77-6.997c0.447-1.133,1.732-1.687,2.862-1.238c1.133,0.449,1.687,1.73,1.238,2.861l-2.77,6.997
								C649.439,1354.342,648.609,1354.87,647.73,1354.87z"/>
						</g>
					</g>
				</g>
				<g>
					<path style="fill:#363E44;" d="M478.199,1220.384c0,0,145.163,69.042,238.43-53.144c0,0-54.53-56.058-98.563-73.975
						C574.033,1075.347,532.312,1101.295,478.199,1220.384z"/>
					<path style="fill:#2D353A;" d="M509.717,1223.45c-0.064,0-0.128-0.002-0.194-0.009c-1.212-0.106-2.11-1.175-2.005-2.388
						c4.801-55.142,30.703-80.939,31.803-82.01c0.871-0.849,2.264-0.832,3.116,0.041c0.849,0.87,0.832,2.265-0.038,3.117
						c-0.257,0.252-25.84,25.842-30.489,79.236C511.811,1222.584,510.849,1223.45,509.717,1223.45z"/>
					<g>
						<path style="fill:#363E44;" d="M563.159,1104.632c0,0-12.41-65.787-67.95-42.508c-39.067,16.375-13.989,53.138,8.775,57.101
							C527.461,1123.311,563.159,1104.632,563.159,1104.632z"/>
						<path style="fill:#363E44;" d="M563.162,1106.837c-0.091,0-0.184-0.005-0.278-0.017c-1.208-0.152-2.064-1.254-1.913-2.462
							c0.04-0.315,3.772-31.646-10.89-42.074c-7.556-5.373-18.997-4.343-34.006,3.07c-1.096,0.538-2.415,0.092-2.953-1
							c-0.539-1.092-0.091-2.414,1-2.953c16.58-8.188,29.542-9.097,38.521-2.705c16.802,11.96,12.878,44.82,12.702,46.213
							C565.207,1106.022,564.257,1106.837,563.162,1106.837z"/>
						<path style="fill:#2D353A;" d="M521.901,1113.181c-11.355,0-19.631-3.928-25.157-7.997
							c-11.423-8.41-15.925-20.402-15.904-21.83c0.017-1.216,1.043-2.149,2.237-2.172c1.101,0.016,2.003,0.838,2.151,1.896
							c0.572,2.166,5.975,14.354,18.065,21.088c10.041,5.594,22.159,6.134,36.02,1.602c1.161-0.378,2.402,0.255,2.781,1.411
							c0.378,1.157-0.254,2.402-1.411,2.781C533.669,1112.252,527.42,1113.181,521.901,1113.181z"/>
					</g>
					<path style="fill:#E2A18D;" d="M655.935,1197.056c-10.088,12.904-53.596-0.994-53.596-0.994l-33.582-37.099
						c-6.583-22.082,5.981-45.32,28.064-51.903c22.082-6.583,45.32,5.982,51.903,28.063
						C648.723,1135.124,666.21,1183.913,655.935,1197.056z"/>
					<path style="fill:#E2A18D;" d="M634.387,1244.301l-3.56-81.348l-50.507,2.244l3.56,81.348
						c0.62,13.947,12.428,24.751,26.375,24.131C624.203,1270.057,635.007,1258.248,634.387,1244.301z"/>
					<path style="fill:#E2A18D;" d="M647.262,1147.008c0,0,14.718,8.406,15.046,11.687c0.392,3.915-11.427,9.898-11.427,9.898
						S647.569,1146.947,647.262,1147.008z"/>
					<g>
						<path style="fill:#FFFFFF;" d="M611.133,1161.421c0,0,3.417-7.157,10.212-12.13c1.446-1.058,7.186,12.506,5.334,12.855
							C618.538,1163.683,611.133,1161.421,611.133,1161.421z"/>
						<path style="fill:#363E44;" d="M632.271,1160.438c9.981-4.391,15.007-14.918,15.007-14.918s-11.156-3.407-21.137,0.984
							c-1.748,0.769-3.334,1.732-4.778,2.788c-0.601,5.071,1.542,9.872,5.308,12.854
							C628.526,1161.797,630.418,1161.253,632.271,1160.438z"/>
					</g>
					<path style="fill:#363E44;" d="M637.933,1182.074c-0.828,0-1.621-0.468-1.996-1.267c-1.35-2.871-0.898-6.277,1.153-8.677
						c1.978-2.314,5.169-3.315,8.13-2.566c1.18,0.301,1.893,1.502,1.592,2.682c-0.301,1.18-1.492,1.893-2.682,1.592
						c-1.347-0.349-2.796,0.11-3.688,1.156c-0.927,1.085-1.129,2.63-0.516,3.937c0.519,1.101,0.045,2.415-1.057,2.932
						C638.568,1182.007,638.248,1182.074,637.933,1182.074z"/>
					<path style="fill:#363E44;" d="M634.671,1205.302c-0.045,0-0.091-0.001-0.138-0.004c-15.287-0.941-31.958-6.222-32.66-6.446
						c-1.161-0.37-1.8-1.612-1.43-2.771c0.37-1.158,1.61-1.798,2.771-1.43c0.167,0.054,16.861,5.338,31.59,6.245
						c1.216,0.074,2.14,1.121,2.065,2.336C636.798,1204.402,635.827,1205.302,634.671,1205.302z"/>
					<g>
						<path style="fill:#363E44;" d="M566.672,1184.301c-11.914-5.709-15.575-33.796-8.255-51.786
							c9.437-23.194,36.806-36.887,58.92-35.021c5.436,0.458,17.858,3.117,21.985,10.865c3.213,6.033-2.909,18.569-13.28,22.173
							c-14.582,5.067-35.016,1.693-27.463,18.309C621.464,1199.19,579.763,1190.575,566.672,1184.301z"/>
					</g>
				</g>
			</g>
			<g>
				<g>
					<ellipse style="fill:#FFFFFF;" cx="570.775" cy="1769.225" rx="210.994" ry="203.082"/>
					<path style="fill:#363E44;" d="M548.393,1974.558c-117.557,0-213.198-92.091-213.198-205.286
						c0-113.196,95.641-205.287,213.198-205.287c117.558,0,213.199,92.091,213.199,205.287
						C761.592,1882.467,665.951,1974.558,548.393,1974.558z M548.393,1568.394c-115.126,0-208.788,90.113-208.788,200.878
						s93.662,200.876,208.788,200.876s208.789-90.112,208.789-200.876S663.519,1568.394,548.393,1568.394z"/>
					<path style="fill:#363E44;" d="M548.393,1888.972c-68.527,0-124.278-53.697-124.278-119.701s55.751-119.702,124.278-119.702
						c68.528,0,124.279,53.698,124.279,119.702S616.921,1888.972,548.393,1888.972z M548.393,1653.979
						c-66.096,0-119.869,51.72-119.869,115.292c0,63.572,53.773,115.291,119.869,115.291s119.87-51.72,119.87-115.291
						C668.263,1705.699,614.489,1653.979,548.393,1653.979z"/>
				</g>
				<path style="fill:#363E44;" d="M870.456,1858.054c-1.218,0-2.205-0.987-2.205-2.205v-297.955
					c0-32.979-26.83-59.808-59.809-59.808H457.181c-1.218,0-2.205-0.987-2.205-2.205s0.987-2.205,2.205-2.205h351.261
					c35.411,0,64.219,28.808,64.219,64.218v297.955C872.661,1857.067,871.673,1858.054,870.456,1858.054z"/>
				<g>
					
						<ellipse transform="matrix(0.8718 -0.4899 0.4899 0.8718 -817.679 672.3672)" style="fill:#FFFFFF;" cx="875.704" cy="1898.342" rx="70.522" ry="67.878"/>
					<path style="fill:#363E44;" d="M871.154,1977.022c-6.145,0-12.303-0.777-18.353-2.35
						c-18.478-4.804-33.708-16.445-42.886-32.778c-18.93-33.689-5.89-77.079,29.071-96.724c16.92-9.509,36.397-12.105,54.847-7.309
						c18.478,4.804,33.708,16.445,42.886,32.778c18.93,33.689,5.89,77.079-29.071,96.724
						C896.276,1973.754,883.747,1977.022,871.154,1977.022z M875.484,1839.922c-11.847,0-23.633,3.076-34.339,9.092
						c-32.84,18.455-45.126,59.151-27.387,90.72c8.586,15.279,22.846,26.172,40.153,30.671c17.333,4.505,35.653,2.061,51.577-6.885
						c32.84-18.455,45.126-59.151,27.387-90.721c-8.586-15.279-22.846-26.172-40.153-30.671
						C887.044,1840.653,881.256,1839.922,875.484,1839.922z"/>
					<path style="fill:#363E44;" d="M872.066,1948.133c-3.633,0-7.276-0.46-10.853-1.39c-10.938-2.843-19.954-9.736-25.389-19.408
						c-5.436-9.672-6.635-20.959-3.375-31.779c3.25-10.791,10.547-19.828,20.548-25.448c9.999-5.62,21.515-7.154,32.422-4.318
						c10.938,2.843,19.954,9.736,25.389,19.409c5.436,9.672,6.635,20.958,3.375,31.778c-3.25,10.792-10.547,19.828-20.549,25.448
						C886.915,1946.202,879.511,1948.133,872.066,1948.133z M874.571,1868.81c-6.696,0-13.36,1.74-19.414,5.141
						c-9.001,5.059-15.567,13.182-18.486,22.876c-2.91,9.662-1.846,19.73,2.996,28.348c4.842,8.617,12.889,14.761,22.655,17.301
						c9.796,2.546,20.15,1.164,29.153-3.894c9.001-5.059,15.566-13.183,18.486-22.876c2.91-9.662,1.846-19.729-2.996-28.347
						s-12.889-14.762-22.655-17.302C881.102,1869.223,877.832,1868.81,874.571,1868.81z"/>
				</g>
			</g>
		</g>
		<g>
			<g>
				<g>
					<polygon style="fill:#BC8271;" points="1775.338,1513.046 1881.978,1491.912 1835.647,1356.166 1732.023,1393.81 					"/>
					<path style="fill:#363E44;" d="M1651.482,1626.159l271.464-74.454l-53.458-96.919l-106.349,29.168l-70.47,44.552
						C1657.778,1549.051,1640.922,1589.018,1651.482,1626.159z"/>
				</g>
				<g>
					<polygon style="fill:#BC8271;" points="1993.341,1532.396 2103.33,1539.04 2093.212,1395.962 1981.886,1406.056 					"/>
					<path style="fill:#363E44;" d="M1845.147,1607.399h281.489l-25.919-107.607H1990.44l-79.744,24.326
						C1871.613,1534.703,1844.786,1568.787,1845.147,1607.399z"/>
				</g>
				<g>
					<path style="fill:#363E44;" d="M2032.368,744.722c11.617,30.534,20.042,65.237,31.13,102.036
						c58.764,195.025,50.44,607.789,50.44,607.789l-145.299-3.638c0,0-54.19-239.616-78.25-416.782
						c-19.685,47.026-56.868,123.913-56.868,123.913s24.06,178.26,36.089,234.034c-48.119,18.591-95.691,28.434-154.747,44.838
						c-70.721-236.95-85.834-270.008-56.321-359.8c38.02-115.676,134.124-325.392,166.295-370.438
						C1894.015,719.357,1963.192,732.04,2032.368,744.722z"/>
				</g>
			</g>
			<g>
				<g>
					<g>
						<path style="fill:#BC8271;" d="M1711.222,492.575c-45.384-15.108-148.029-49.398-158.449-52.979
							c-19.479-6.694-114.368-38.186-119.121-24.456c-3.036,8.771,44.093,25.4,52.073,28.941
							c-10.369-1.716-61.816-18.796-65.375-11.107c-3.862,8.345,59.74,35.883,60.171,36.235
							c-7.187-2.106-59.587-18.628-61.737-10.899c-2.495,8.969,50.418,30.916,59.224,34.006
							c-1.041,0.818-38.587-13.439-42.194-5.039c-3.213,7.483,38.945,25.487,44.394,28.816c14.487,8.292,42.75,19.662,74.19,34.194
							c73.838,34.129,109.733,46.776,148.34,56.98c27.813,7.352,59.682-17.63,81.459-44.328
							C1766.114,534.311,1748.144,521.522,1711.222,492.575z"/>
						<path style="fill:#363E44;" d="M1525.432,474.747c-0.198,0-0.399-0.027-0.599-0.084
							c-48.771-13.737-47.877-20.371-47.496-23.203c0.354-2.627,1.183-8.778,44.822-9.812c1.238-0.123,2.228,0.934,2.256,2.151
							c0.029,1.218-0.935,2.228-2.151,2.257c-39.421,0.934-40.55,5.943-40.557,5.992c-0.008,0.057,0.463,6.018,44.32,18.372
							c1.172,0.329,1.855,1.548,1.524,2.719C1527.28,474.111,1526.395,474.747,1525.432,474.747z"/>
					</g>
					<polygon style="fill:#FFFFFF;" points="1865.344,524.227 1589.697,445.174 1528.339,554.852 1788.845,664.531 					"/>
				</g>
				<path style="fill:#FFFFFF;" d="M2058.852,606.129c-11.797-42.007-52.196-107.69-137.745-115.643
					c-72.543-6.744-125.583,54.498-143.628,123.396c-12.455,47.554-6.015,117.564-12.577,170.057
					c64.978,9.842,314.962,44.292,314.962,44.292S2078.51,676.128,2058.852,606.129z"/>
				<path style="fill:#363E44;" d="M2078.723,786.793c-1.18,0-2.157-0.933-2.203-2.122c-1.75-46.371-6.65-131.151-19.792-177.947
					c-9.956-35.457-38.343-80.926-88.154-102.208c-1.12-0.478-1.64-1.774-1.16-2.894c0.477-1.119,1.77-1.64,2.894-1.161
					c51.242,21.893,80.434,68.63,90.667,105.069c13.263,47.235,18.194,132.407,19.953,178.974c0.045,1.217-0.903,2.24-2.121,2.287
					C2078.779,786.793,2078.751,786.793,2078.723,786.793z"/>
				<path style="fill:#363E44;" d="M1780.763,760.443c-0.12,0-0.24-0.01-0.363-0.03c-1.202-0.198-2.013-1.334-1.814-2.535
					c14.636-88.367,58.216-191.402,58.655-192.432c0.476-1.12,1.767-1.645,2.892-1.165c1.121,0.476,1.642,1.771,1.165,2.892
					c-0.436,1.026-43.812,103.587-58.362,191.426C1782.757,759.678,1781.822,760.443,1780.763,760.443z"/>
				<g>
					<path style="fill:#FFFFFF;" d="M1884.193,671.362c-47.252,178.4-3.364,165.242,27.513,172.346
						c24.89,5.727,64.905-69.352,85.161-145.158L1884.193,671.362z"/>
				</g>
				<g>
					<path style="fill:#BC8271;" d="M1896.654,740.996c-46.861-9.594-152.859-31.413-163.631-33.727
						c-20.137-4.326-117.351-24.106-121.186-10.092c-4.141,15.131,46.804,19.967,55.149,22.532
						c-10.499-0.469-63.938-14.509-66.232-3.24c-2.898,14.233,63.589,28.512,64.059,28.81c-7.387-1.235-59.85-14.653-62.596-3.468
						c-3.562,14.51,53.742,24.69,62.853,26.709c-0.936,0.936-39.055-11.921-42.493,0.022c-3.647,12.67,41.704,20.666,47.51,23.323
						c15.371,6.508,44.788,14.43,77.735,25.113c77.378,25.091,112.721,41.803,152.508,38.384
						c17.805-1.53,37.995-22.36,55.107-52.819C1934.07,776.272,1918.019,767.267,1896.654,740.996z"/>
					<path style="fill:#FFFFFF;" d="M1780.341,837.319c0,0,142.87,38.954,186.334,10.711c24.946-16.21,41.193-84.07,41.193-84.07
						l-202.818-43.049L1780.341,837.319z"/>
					<path style="fill:#363E44;" d="M1989.639,818.133c-0.268,0-0.542-0.049-0.807-0.154c-1.133-0.447-1.689-1.727-1.243-2.86
						l49.213-124.946c0.448-1.13,1.721-1.69,2.86-1.243c1.133,0.447,1.689,1.727,1.244,2.86l-49.213,124.946
						C1991.35,817.603,1990.519,818.133,1989.639,818.133z"/>
					<path style="fill:#363E44;" d="M1934.963,742.399c-0.109,0-0.218-0.008-0.327-0.024l-129.911-19.284
						c-1.205-0.179-2.036-1.3-1.857-2.505c0.179-1.206,1.313-2.029,2.505-1.857l129.911,19.284c1.205,0.179,2.036,1.3,1.857,2.505
						C1936.979,741.613,1936.038,742.399,1934.963,742.399z"/>
					<path style="fill:#363E44;" d="M1887.936,733.651c-0.179,0-0.362-0.021-0.543-0.068c-1.181-0.299-1.895-1.499-1.596-2.678
						l25.518-100.613c0.299-1.182,1.506-1.894,2.678-1.595c1.181,0.299,1.895,1.499,1.595,2.679l-25.518,100.613
						C1889.818,732.986,1888.921,733.651,1887.936,733.651z"/>
					<path style="fill:#363E44;" d="M1680.88,722.714c-0.115,0-0.231-0.009-0.349-0.027l-52.857-8.384
						c-1.203-0.191-2.023-1.321-1.832-2.523c0.192-1.203,1.32-2.015,2.523-1.832l52.858,8.384c1.203,0.191,2.023,1.321,1.832,2.523
						C1682.882,721.94,1681.944,722.714,1680.88,722.714z"/>
					<path style="fill:#363E44;" d="M1675.776,747.503c-0.126,0-0.254-0.011-0.382-0.033l-46.653-8.165
						c-1.199-0.21-2.001-1.352-1.791-2.552c0.21-1.199,1.362-2,2.551-1.791l46.653,8.165c1.199,0.21,2.001,1.352,1.791,2.551
						C1677.757,746.749,1676.827,747.503,1675.776,747.503z"/>
					<path style="fill:#363E44;" d="M1671.765,771.927c-0.136,0-0.273-0.012-0.412-0.039l-34.631-6.562
						c-1.197-0.226-1.983-1.38-1.756-2.576c0.226-1.196,1.369-1.985,2.576-1.756l34.631,6.562c1.197,0.226,1.983,1.38,1.756,2.576
						C1673.729,771.191,1672.804,771.927,1671.765,771.927z"/>
					<path style="fill:#BC8271;" d="M1724.974,722.86c-23.313-19.614-27.566-31.629-24.34-35.225
						c5.425-6.047,33.42,3.306,71.103,27.679C1759.261,718.764,1737.451,719.41,1724.974,722.86z"/>
					<g>
						<path style="fill:#363E44;" d="M1733.024,709.473c-0.153,0-0.309-0.016-0.465-0.049c-4.052-0.87-14.987-3.173-28.959-5.755
							c-1.197-0.222-1.989-1.372-1.768-2.569c0.221-1.198,1.363-1.987,2.569-1.768c14.029,2.593,25.012,4.907,29.084,5.781
							c1.191,0.255,1.949,1.428,1.692,2.618C1734.956,708.766,1734.042,709.473,1733.024,709.473z"/>
					</g>
				</g>
				<polygon style="fill:#363E44;" points="1876.337,557.382 1871.413,523.112 1904.749,532.55 1882.59,559.153 1857.735,705.352 
					1832.525,724.058 1820.861,694.912 				"/>
			</g>
			<g>
				<path style="fill:#BC8271;" d="M1873.171,464.603c13.885,9.861,53.405-13.853,53.405-13.853l24.242-50.124
					c0-23.958-21.795-45.201-45.753-45.201s-43.38,19.422-43.38,43.38C1861.685,398.805,1859.029,454.559,1873.171,464.603z"/>
				<polygon style="fill:#BC8271;" points="1951.016,497.199 1889.247,525.731 1889.247,399.957 1951.016,399.957 				"/>
				<g>
					<path style="fill:#FFFFFF;" d="M1910.124,405.329c0,0-7.959-4.281-17.554-4.28c-2.041,0,1.81,16.335,3.748,15.41
						C1904.837,412.392,1910.124,405.329,1910.124,405.329z"/>
					<path style="fill:#363E44;" d="M1886.285,401.713c-12.134,2.68-20.098,13.321-20.098,13.321s11.706,6.296,23.839,3.617
						c2.252-0.498,4.358-1.271,6.299-2.198c1.456-5.278,0.195-11.134-3.77-15.393
						C1890.516,401.062,1888.41,401.244,1886.285,401.713z"/>
				</g>
				<g>
					<path style="fill:#363E44;" d="M1873.667,365.989c-1.479-6.631,13.397-18.911,30.074-20.779
						c20.435-2.289,44.445,4.252,57.46,27.249c12.504,22.093,12.035,51.315-10.202,74.281c-5.502-4.34-10.383-8.026-17.139-13.403
						c11.39-11.461,12.035-23.598,7.296-28.883c-4.045-4.511-11.848-4.921-20.055,1.908c-2.461-6.47-6.562-16.04-18.591-24.789
						C1888.594,371.452,1874.812,371.128,1873.667,365.989z"/>
				</g>
				<path style="fill:#363E44;" d="M1889.937,469.542c-0.987,0-1.886-0.669-2.137-1.67c-0.295-1.182,0.423-2.379,1.604-2.674
					c21.11-5.277,34.759-15.889,34.895-15.996c0.959-0.755,2.344-0.589,3.096,0.367c0.754,0.955,0.59,2.341-0.365,3.094
					c-0.58,0.459-14.478,11.293-36.556,16.813C1890.294,469.521,1890.115,469.542,1889.937,469.542z"/>
				<path style="fill:#363E44;" d="M1877.966,443.919c-1.373,0-2.766-0.33-4.046-1.01c-1.075-0.572-1.484-1.905-0.914-2.981
					c0.572-1.076,1.904-1.484,2.981-0.914c1.585,0.84,3.487,0.607,4.63-0.568c1.402-1.442,0.857-3.626,0.833-3.717
					c-0.304-1.173,0.394-2.381,1.565-2.694c1.179-0.307,2.372,0.371,2.69,1.539c0.13,0.476,1.183,4.746-1.928,7.946
					C1882.248,443.095,1880.134,443.919,1877.966,443.919z"/>
				<path style="fill:#BC8271;" d="M1861.92,411.52c0.127,1.924-0.186,5.058-1.498,7.999c-1.581,3.548-4.995,5.753-4.927,7.987
					c0.046,1.497,1.72,3.744,7.917,5.185L1861.92,411.52z"/>
				<path style="fill:#363E44;" d="M1930.307,429.104c-0.49,0-0.982-0.163-1.391-0.495c-0.944-0.769-1.086-2.157-0.318-3.102
					c5.659-6.949,5.793-12.251,4.889-13.093c-0.697-0.65-3.868-0.206-7.305,1.463c-1.091,0.532-2.415,0.076-2.947-1.02
					c-0.532-1.096-0.075-2.415,1.02-2.947c2.571-1.249,8.91-3.821,12.236-0.725c3.653,3.401,1.772,11.436-4.474,19.105
					C1931.582,428.827,1930.947,429.104,1930.307,429.104z"/>
			</g>
		</g>
		<g>
			<path style="fill:#84524D;" d="M1811.253,1904.809c-0.055,0-0.109,0-0.162,0l-69.378-0.318
				c-9.422-0.043-18.261-3.753-24.89-10.446c-6.63-6.694-10.255-15.569-10.209-24.993l0.15-30.667
				c0.095-19.397,15.906-35.116,35.277-35.116c0.056,0,0.11,0,0.165,0l69.377,0.318c9.421,0.043,18.261,3.753,24.89,10.446
				c6.63,6.694,10.255,15.569,10.209,24.993l-0.15,30.667C1846.438,1889.09,1830.626,1904.809,1811.253,1904.809z M1811.11,1900.399
				c0.047,0,0.096,0,0.142,0c16.954,0,30.788-13.754,30.871-30.727l0.15-30.667c0.04-8.244-3.132-16.011-8.932-21.867
				c-5.801-5.857-13.535-9.102-21.777-9.14l-69.377-0.318c-0.049,0-0.097,0-0.144,0c-16.952,0-30.786,13.754-30.869,30.727
				l-0.15,30.667c-0.04,8.245,3.132,16.011,8.932,21.867c5.8,5.857,13.535,9.103,21.777,9.14L1811.11,1900.399z"/>
			
				<rect x="1633.297" y="1812.902" transform="matrix(0.0046 -1 1 0.0046 -245.7165 3785.2043)" style="fill:#84524D;" width="290.234" height="406.243"/>
			<path style="fill:#F7F1EB;" d="M1777.587,2036.694c-0.477,0-0.954-0.154-1.351-0.463l-177.891-138.016
				c-0.962-0.746-1.137-2.132-0.391-3.093c0.746-0.964,2.134-1.137,3.093-0.391l176.545,136.972l175.999-135.476
				c0.962-0.742,2.347-0.563,3.092,0.403c0.743,0.965,0.563,2.349-0.403,3.092l-177.349,136.515
				C1778.535,2036.541,1778.061,2036.694,1777.587,2036.694z"/>
			
				<rect x="1763.234" y="2002.624" transform="matrix(0.0046 -1 1 0.0046 -261.0172 3800.2856)" style="fill:#F7F1EB;" width="30.211" height="57.25"/>
		</g>
		<g>
			<g>
				<g>
					
						<rect x="1287.332" y="422.072" transform="matrix(-1 -1.224647e-16 1.224647e-16 -1 2852.6316 1122.1105)" style="opacity:0.4;fill:#FFFFFF;" width="277.967" height="277.967"/>
					<path style="fill:#FFFFFF;" d="M1589.199,726.143h-277.967c-1.218,0-2.205-0.987-2.205-2.205V445.971
						c0-1.218,0.987-2.205,2.205-2.205h277.967c1.218,0,2.205,0.987,2.205,2.205v277.967
						C1591.403,725.155,1590.416,726.143,1589.199,726.143z M1313.437,721.733h273.557V448.176h-273.557V721.733z"/>
				</g>
				<polygon style="fill:#D87355;" points="1446.027,651.76 1296.676,491.583 1346.339,445.468 1438.165,543.693 1575.365,344.468 
					1631.183,382.907 				"/>
			</g>
		</g>
		<g>
			<g>
				<g>
					<g>
						
							<rect x="792.647" y="552.607" transform="matrix(-1 -1.224647e-16 1.224647e-16 -1 1863.2611 1383.1805)" style="opacity:0.4;fill:#FFFFFF;" width="277.967" height="277.967"/>
						<path style="fill:#FFFFFF;" d="M1094.513,856.678H816.546c-1.218,0-2.205-0.987-2.205-2.205V576.506
							c0-1.218,0.987-2.205,2.205-2.205h277.967c1.218,0,2.205,0.987,2.205,2.205v277.968
							C1096.718,855.691,1095.73,856.678,1094.513,856.678z M818.751,852.268h273.557V578.71H818.751V852.268z"/>
					</g>
				</g>
			</g>
			<g>
				<polygon style="fill:#D87355;" points="1028.002,768.796 968.523,709.316 1027.936,649.903 994.313,616.281 934.9,675.694 
					875.42,616.214 841.836,649.798 901.316,709.278 841.903,768.691 875.525,802.314 934.938,742.901 994.418,802.38 				"/>
			</g>
		</g>
		<g>
			<g>
				<g>
					<g>
						
							<rect x="364.784" y="716.242" transform="matrix(-1 -1.224647e-16 1.224647e-16 -1 1007.5355 1710.45)" style="opacity:0.4;fill:#FFFFFF;" width="277.967" height="277.967"/>
						<path style="fill:#FFFFFF;" d="M666.651,1020.313H388.683c-1.218,0-2.205-0.987-2.205-2.205V740.141
							c0-1.218,0.987-2.205,2.205-2.205h277.968c1.218,0,2.205,0.987,2.205,2.205v277.966
							C668.856,1019.325,667.869,1020.313,666.651,1020.313z M390.888,1015.903h273.558V742.346H390.888V1015.903z"/>
					</g>
				</g>
			</g>
			<g>
				<polygon style="fill:#D87355;" points="608.11,934.361 548.63,874.881 608.043,815.468 574.42,781.846 515.008,841.259 
					455.528,781.779 421.943,815.363 481.423,874.843 422.01,934.257 455.632,967.879 515.045,908.466 574.525,967.945 				"/>
			</g>
		</g>
	</g>
</g>
</svg>
