<?xml version="1.0" encoding="utf-8"?>
<!-- Generator: Adobe Illustrator 27.5.0, SVG Export Plug-In . SVG Version: 6.00 Build 0)  -->
<svg version="1.1" xmlns="http://www.w3.org/2000/svg" xmlns:xlink="http://www.w3.org/1999/xlink" x="0px" y="0px"
	 viewBox="0 0 2500 2500" style="enable-background:new 0 0 2500 2500;" xml:space="preserve">
-
<g id="Illustration">
	<g id="Sales_index_1_">
		<circle style="fill:transparent;" cx="1250" cy="1250" r="915"/>
		<g>
			<g>
				
					<rect x="645.427" y="507.791" transform="matrix(-1 -1.224647e-16 1.224647e-16 -1 2800.6223 2086.1741)" style="fill:#E6D0BE;" width="1509.769" height="1070.592"/>
				
					<rect x="958.265" y="289.688" transform="matrix(-1.836970e-16 1 -1 -1.836970e-16 2397.5159 -403.1066)" style="fill:#F7F1EB;" width="884.092" height="1415.034"/>
				<path style="fill:#E6D0BE;" d="M1241.387,1601.067h44.698l0,0c0,33.529,27.181,60.71,60.711,60.71h107.032
					c33.529,0,60.71-27.181,60.71-60.71l0,0h44.696l44.698,237.536v19.865H1196.69v-19.865L1241.387,1601.067z"/>
				<path style="fill:#E6D0BE;" d="M1603.932,1885.505H1196.69c-1.219,0-2.205-0.986-2.205-2.205c0-1.219,0.986-2.205,2.205-2.205
					h407.241c1.219,0,2.205,0.986,2.205,2.205C1606.136,1884.519,1605.15,1885.505,1603.932,1885.505z"/>
			</g>
			<g>
				<g>
					<path style="fill:#E6D0BE;" d="M1989.009,1352.968H833.761c-1.219,0-2.205-0.986-2.205-2.205V762.942
						c0-1.219,0.986-2.205,2.205-2.205s2.205,0.986,2.205,2.205v585.616h1153.043c1.219,0,2.205,0.986,2.205,2.205
						S1990.227,1352.968,1989.009,1352.968z"/>
					<g>
						<path style="fill:#E6D0BE;" d="M1408.51,956.445c-0.751,0-1.481-0.383-1.895-1.074c-0.624-1.044-0.284-2.399,0.762-3.023
							l106.393-63.587c1.04-0.622,2.396-0.284,3.023,0.762c0.624,1.044,0.284,2.399-0.762,3.023l-106.393,63.587
							C1409.285,956.344,1408.896,956.445,1408.51,956.445z"/>
						<path style="fill:#E6D0BE;" d="M1341.143,939.444c-0.717,0-1.421-0.349-1.845-0.995l-144.153-219.457
							c-0.667-1.016-0.385-2.383,0.633-3.053c1.016-0.67,2.384-0.385,3.053,0.633l144.153,219.457
							c0.667,1.016,0.385,2.384-0.633,3.053C1341.978,939.328,1341.558,939.444,1341.143,939.444z"/>
						<path style="fill:#E6D0BE;" d="M1022.21,796.994c-0.661,0-1.313-0.295-1.746-0.857c-0.745-0.965-0.568-2.349,0.396-3.092
							l111.992-86.518c0.965-0.745,2.351-0.564,3.092,0.396c0.745,0.965,0.568,2.349-0.396,3.092l-111.991,86.518
							C1023.156,796.843,1022.68,796.994,1022.21,796.994z"/>
						<path style="fill:#E6D0BE;" d="M985.889,872.081c-26.68,0-48.383-21.704-48.383-48.383c0-26.68,21.704-48.385,48.383-48.385
							c26.68,0,48.385,21.706,48.385,48.385C1034.274,850.377,1012.568,872.081,985.889,872.081z M985.889,779.721
							c-24.247,0-43.974,19.727-43.974,43.976c0,24.247,19.727,43.974,43.974,43.974c24.249,0,43.976-19.727,43.976-43.974
							C1029.865,799.448,1010.138,779.721,985.889,779.721z"/>
						<path style="fill:#E6D0BE;" d="M1172.073,728.412c-26.68,0-48.385-21.704-48.385-48.383c0-26.68,21.706-48.383,48.385-48.383
							c26.68,0,48.383,21.704,48.383,48.383C1220.457,706.708,1198.753,728.412,1172.073,728.412z M1172.073,636.055
							c-24.249,0-43.976,19.727-43.976,43.974c0,24.247,19.727,43.974,43.976,43.974c24.247,0,43.974-19.727,43.974-43.974
							C1216.047,655.782,1196.32,636.055,1172.073,636.055z"/>
						<path style="fill:#E6D0BE;" d="M1367.831,1024.715c-26.68,0-48.383-21.706-48.383-48.385c0-26.68,21.704-48.383,48.383-48.383
							s48.383,21.704,48.383,48.383C1416.214,1003.009,1394.51,1024.715,1367.831,1024.715z M1367.831,932.356
							c-24.247,0-43.974,19.727-43.974,43.974c0,24.249,19.727,43.976,43.974,43.976c24.246,0,43.974-19.727,43.974-43.976
							C1411.804,952.083,1392.077,932.356,1367.831,932.356z"/>
						<path style="fill:#E6D0BE;" d="M1555.495,917.008c-26.68,0-48.383-21.704-48.383-48.383c0-26.68,21.704-48.383,48.383-48.383
							s48.383,21.704,48.383,48.383C1603.878,895.304,1582.174,917.008,1555.495,917.008z M1555.495,824.651
							c-24.246,0-43.974,19.727-43.974,43.974c0,24.247,19.727,43.974,43.974,43.974c24.247,0,43.974-19.727,43.974-43.974
							C1599.468,844.378,1579.741,824.651,1555.495,824.651z"/>
						<path style="fill:#E6D0BE;" d="M1781.478,932.356c-0.452,0-0.906-0.138-1.3-0.426c-0.982-0.719-1.195-2.097-0.476-3.081
							l100.373-137.16c0.717-0.982,2.093-1.199,3.081-0.476c0.982,0.719,1.195,2.097,0.476,3.081l-100.373,137.16
							C1782.828,932.043,1782.158,932.356,1781.478,932.356z"/>
						<path style="fill:#E6D0BE;" d="M1751.689,1016.139c-26.68,0-48.383-21.706-48.383-48.385c0-26.68,21.704-48.383,48.383-48.383
							c26.68,0,48.383,21.704,48.383,48.383C1800.072,994.433,1778.369,1016.139,1751.689,1016.139z M1751.689,923.78
							c-24.247,0-43.974,19.727-43.974,43.974c0,24.249,19.727,43.976,43.974,43.976s43.974-19.727,43.974-43.976
							C1795.663,943.507,1775.936,923.78,1751.689,923.78z"/>
						<path style="fill:#E6D0BE;" d="M1922.446,819.346c-26.68,0-48.383-21.704-48.383-48.383s21.704-48.383,48.383-48.383
							c26.68,0,48.383,21.704,48.383,48.383S1949.126,819.346,1922.446,819.346z M1922.446,726.989
							c-24.247,0-43.974,19.727-43.974,43.974c0,24.247,19.727,43.974,43.974,43.974s43.974-19.727,43.974-43.974
							C1966.42,746.716,1946.693,726.989,1922.446,726.989z"/>
					</g>
					<rect x="931.32" y="943.24" style="fill:#E6D0BE;" width="114.847" height="314.905"/>
					<rect x="1120.847" y="880.505" style="fill:#E6D0BE;" width="114.847" height="377.639"/>
					<rect x="1310.373" y="1054.643" style="fill:#E6D0BE;" width="114.847" height="203.501"/>
					<rect x="1499.899" y="996.206" style="fill:#E6D0BE;" width="114.847" height="261.938"/>
					<rect x="1685.175" y="1054.643" style="fill:#E6D0BE;" width="114.847" height="203.501"/>
					<rect x="1874.702" y="880.505" style="fill:#E6D0BE;" width="114.847" height="377.639"/>
					<path style="fill:#E6D0BE;" d="M1709.22,951.796c-0.377,0-0.76-0.097-1.109-0.302l-110.555-64.571
						c-1.053-0.614-1.406-1.964-0.792-3.014c0.614-1.049,1.966-1.406,3.014-0.792l110.555,64.571
						c1.053,0.614,1.406,1.964,0.792,3.014C1710.717,951.404,1709.978,951.796,1709.22,951.796z"/>
				</g>
			</g>
		</g>
		<g>
			<g>
				<g>
					<polygon style="fill:#84524D;" points="456.701,2098.846 367.405,2097.506 394.011,1982.497 485.01,1997.647 					"/>
					<g>
						<path style="fill:#FFD092;" d="M581.463,2158.058H350.225l21.292-88.3h90.59l65.509,19.961
							C559.721,2098.405,581.759,2126.375,581.463,2158.058L581.463,2158.058z"/>
						<g>
							<path style="fill:#363E44;" d="M476.371,2094.313c-0.564,0-1.13-0.215-1.561-0.646c-0.859-0.861-0.859-2.259,0.002-3.12
								l14.478-14.461c0.861-0.857,2.259-0.859,3.12,0.002c0.859,0.861,0.859,2.259-0.002,3.12l-14.478,14.46
								C477.499,2094.097,476.935,2094.313,476.371,2094.313z"/>
							<path style="fill:#363E44;" d="M492.83,2099.243c-0.564,0-1.128-0.215-1.559-0.646c-0.861-0.861-0.861-2.259,0-3.118
								l14.476-14.46c0.861-0.861,2.257-0.861,3.118,0c0.861,0.861,0.861,2.259,0,3.118l-14.476,14.46
								C493.958,2099.028,493.394,2099.243,492.83,2099.243z"/>
						</g>
					</g>
				</g>
				<g>
					<polygon style="fill:#84524D;" points="873.501,2116.054 784.205,2114.714 786.962,1982.497 877.961,1997.647 					"/>
					<g>
						<path style="fill:#FFD092;" d="M996.475,2158.058H765.237l19.913-88.3h91.969l65.509,19.961
							C974.733,2098.405,996.771,2126.375,996.475,2158.058L996.475,2158.058z"/>
						<g>
							<path style="fill:#363E44;" d="M891.448,2095.777c-0.564,0-1.128-0.216-1.559-0.646c-0.861-0.861-0.861-2.259,0-3.118
								l14.476-14.461c0.861-0.861,2.257-0.861,3.118,0c0.861,0.861,0.861,2.259,0,3.118l-14.476,14.46
								C892.576,2095.561,892.012,2095.777,891.448,2095.777z"/>
							<path style="fill:#363E44;" d="M907.904,2100.708c-0.564,0-1.13-0.215-1.561-0.646c-0.859-0.861-0.859-2.259,0.002-3.12
								l14.476-14.458c0.861-0.857,2.259-0.859,3.12,0.002c0.859,0.861,0.859,2.259-0.002,3.12l-14.476,14.458
								C909.032,2100.492,908.468,2100.708,907.904,2100.708z"/>
						</g>
					</g>
				</g>
				<g>
					<path style="fill:#363E44;" d="M574.631,1226.38c0,0-55.151,122.576-92.378,271.321s-103.408,521.982-103.408,521.982h102.029
						c0,0,201.301-230.002,219.225-545.395l62.045-249.284L574.631,1226.38z"/>
					<path style="fill:#363E44;" d="M657.357,1521.114c0,0,104.787,151.499,113.06,490.305h117.196
						c0,0,85.484-190.062,37.227-389.765s-126.847-414.556-126.847-414.556H672.524L657.357,1521.114z"/>
					<path style="fill:#F2E6DC;" d="M690.956,1560.251c-0.149,0-0.299-0.015-0.45-0.045c-1.193-0.248-1.957-1.415-1.712-2.607
						l20.98-101.237c0.116-0.562,0.448-1.057,0.924-1.378l30.529-20.64c1.012-0.685,2.379-0.413,3.062,0.59
						c0.682,1.01,0.418,2.381-0.59,3.062l-29.789,20.138l-20.797,100.36C692.896,1559.534,691.978,1560.251,690.956,1560.251z"/>
				</g>
			</g>
			<g>
				<g>
					<path style="fill:#FFFFFF;" d="M792.067,953.239c-28.137-6.011-73.491-13.903-114.703-9.465
						c-48.034,5.173-120.663,28.613-151.982,47.283c-70.017,41.739-97.803,77.86-97.803,77.86l106.175,23.853l-49.805,144.692
						c-17.282,50.207-9.867,94.328,19.27,138.733v0l73.818,3.13l-10.336-71.386l36.193,72.483l208.247-139.877l7.802-128.744
						l134.537-37.387C953.479,1074.412,841.429,963.784,792.067,953.239z"/>
				</g>
				<g>
					<path style="fill:#FFFFFF;" d="M814.893,1156.786c0,0,59.487,43.78,104.934,29.622c45.447-14.158,54.338-46.731,51.549-66.457
						c-2.789-19.726-76.754-146.831-190.437-170.359C780.939,949.592,770.219,1094.168,814.893,1156.786z"/>
					<path style="fill:#363E44;" d="M816.114,1158.201c-0.013,0-0.024,0-0.037,0c-1.219-0.022-2.188-1.025-2.168-2.241l0.31-18.396
						c0.021-1.217,0.984-2.119,2.241-2.168c1.219,0.022,2.188,1.025,2.168,2.241l-0.31,18.396
						C818.297,1157.239,817.315,1158.201,816.114,1158.201z"/>
				</g>
				<g>
					<g>
						<path style="fill:#363E44;" d="M735.974,1108.214c-0.573,0-1.148-0.222-1.578-0.665c-0.851-0.872-0.833-2.269,0.039-3.118
							l46.566-45.38c0.872-0.846,2.271-0.833,3.118,0.039c0.851,0.872,0.833,2.269-0.039,3.118l-46.566,45.38
							C737.084,1108.005,736.529,1108.214,735.974,1108.214z"/>
						<path style="fill:#363E44;" d="M751.801,1124.302c-0.573,0-1.148-0.222-1.578-0.665c-0.851-0.872-0.833-2.269,0.039-3.118
							l46.566-45.38c0.87-0.846,2.269-0.833,3.118,0.039c0.85,0.872,0.833,2.269-0.039,3.118l-46.566,45.38
							C752.912,1124.093,752.357,1124.302,751.801,1124.302z"/>
						<path style="fill:#363E44;" d="M656.135,1239.469c-8.07,0-16.138-3.075-22.272-9.224l-4.681-4.692
							c-5.934-5.949-9.196-13.851-9.181-22.251c0.013-8.401,3.301-16.293,9.258-22.222l139.479-138.848
							c5.811-5.783,15.249-5.768,21.038,0.037l28.083,28.148c2.808,2.814,4.349,6.552,4.343,10.527
							c-0.006,3.975-1.561,7.71-4.377,10.516L678.33,1230.323C672.204,1236.421,664.168,1239.469,656.135,1239.469z
							 M779.239,1042.312c-2.674,0-5.351,1.014-7.39,3.047l-139.481,138.848c-5.12,5.097-7.947,11.881-7.958,19.103
							c-0.013,7.222,2.79,14.017,7.893,19.131l0,0l4.681,4.692c10.522,10.548,27.674,10.576,38.235,0.065l139.494-138.863
							c1.981-1.972,3.075-4.599,3.079-7.396c0.004-2.797-1.081-5.426-3.055-7.407l-28.083-28.148
							C784.613,1043.335,781.926,1042.312,779.239,1042.312z"/>
						<path style="fill:#363E44;" d="M815.205,1073.292c-0.564,0-1.13-0.215-1.561-0.648l-26.096-26.154
							c-0.413-0.413-0.646-0.975-0.644-1.561c0.002-0.586,0.237-1.148,0.652-1.561l86.04-85.415
							c0.859-0.857,2.254-0.855,3.113,0.009l26.094,26.156c0.413,0.413,0.646,0.975,0.644,1.561
							c-0.002,0.586-0.237,1.148-0.652,1.561l-86.037,85.413C816.329,1073.079,815.767,1073.292,815.205,1073.292z
							 M792.231,1044.939l22.981,23.034l82.909-82.308l-22.978-23.034L792.231,1044.939z"/>
					</g>
					<g>
						<g>
							<path style="fill:#363E44;" d="M1134.083,1054.28c-84.149,0-168.3-31.996-232.363-95.989
								c-62.067-61.998-96.248-144.429-96.25-232.107c0-87.682,34.183-170.116,96.25-232.113
								c128.129-127.987,336.607-127.985,464.728,0c62.067,61.998,96.248,144.431,96.248,232.113
								c0,87.678-34.183,170.109-96.248,232.107C1302.386,1022.284,1218.235,1054.28,1134.083,1054.28z M1134.085,402.488
								c-83.023,0-166.044,31.567-229.247,94.699c-61.235,61.167-94.958,142.493-94.958,228.993
								c0.002,86.503,33.725,167.825,94.958,228.991c126.405,126.263,332.084,126.267,458.493,0
								c61.233-61.167,94.956-142.489,94.956-228.991c0-86.5-33.723-167.827-94.956-228.993
								C1300.127,434.056,1217.106,402.488,1134.085,402.488z"/>
							<path style="fill:#363E44;" d="M927.14,521.669c-0.564,0-1.128-0.215-1.559-0.646c-0.861-0.861-0.861-2.259,0-3.118
								c83.988-83.895,209.385-109.289,319.458-64.702c1.13,0.456,1.673,1.742,1.217,2.87c-0.459,1.13-1.742,1.671-2.87,1.217
								c-108.439-43.92-231.956-18.905-314.686,63.733C928.269,521.454,927.705,521.669,927.14,521.669z"/>
							<path style="fill:#363E44;" d="M1134.527,1020.665c-77.016,0-152.727-30.051-208.945-86.21c-0.861-0.859-0.861-2.257,0-3.118
								c0.857-0.861,2.257-0.861,3.118,0c80.226,80.138,200.779,106.316,307.122,66.674c1.137-0.416,2.412,0.155,2.838,1.296
								c0.424,1.141-0.155,2.412-1.296,2.838C1203.923,1014.608,1169.089,1020.665,1134.527,1020.665z"/>
						</g>
					</g>
				</g>
				<g>
					<g>
						<path style="fill:#84524D;" d="M721.975,1130.574c-10.389,3.145-55.654,9.318-62.75,29.359
							c-7.147,20.184,0.992,42.329,14.395,58.941c0.086,0.012,0.182,0.025,0.267,0.037c5.31,2.611,13.659,5.704,23.413,4.555
							c11.119-1.311,13.414-6.879,24.941-10.083c19.456-5.409,32.25,5.644,35.528-0.707c2.25-4.359-4.923-11.121-13.084-15.584
							c-8.378-4.582-15.746-4.017-15.743-5.582c0.004-1.717,7.558-1.325,17.002-1.697c4.387-0.173,16.693,6.751,20.645,1.245
							c3.151-4.391-7.82-14.792-20.77-17.453c-9.161-1.883-17.137,2.503-17.642,0.876c-0.379-1.221,4.437-3.717,9.225-4.639
							c7.9-1.521,20.566,5.428,24.105,0.29c3.467-5.035-6.276-13.95-18.027-17.151c-9.908-2.699-18.57,2.614-19.21,0.596
							c-0.45-1.419,2.936-4.6,11.68-8.87c7.299-3.564,23.774-5.81,21.213-13.968
							C755.009,1123.875,737.655,1125.827,721.975,1130.574z"/>
						<path style="fill:#84524D;" d="M499.639,1176.327c-22.848,7.214-38.742,28.414-38.213,52.239
							c0.347,15.62,7.805,31.827,32.116,41.853c59.192,24.411,193.329-58.821,193.329-58.821l16.521-76.646
							C626.181,1147.745,562.529,1156.472,499.639,1176.327z"/>
					</g>
					<g>
						<path style="fill:#FFFFFF;" d="M578.078,1156.507l11.085,114.405l-101.537,15.685
							c-65.207,10.073-138.783-54.938-123.517-119.058c13.358-56.108,46.373-87.523,112.696-143.809l86.673,25.737l-37.224,109.098
							L578.078,1156.507z"/>
						<path style="fill:#363E44;" d="M526.255,1160.77c-0.237,0-0.476-0.036-0.713-0.118c-1.152-0.392-1.768-1.645-1.374-2.799
							l16.818-49.296c0.392-1.152,1.643-1.77,2.799-1.374c1.152,0.392,1.768,1.645,1.374,2.799l-16.818,49.296
							C528.029,1160.193,527.172,1160.77,526.255,1160.77z"/>
						<path style="fill:#363E44;" d="M473.075,1289.928c-6.231,0-12.417-0.609-18.506-1.828c-1.193-0.239-1.968-1.4-1.729-2.594
							c0.239-1.195,1.406-1.981,2.595-1.729c10.408,2.082,21.122,2.3,31.856,0.642l99.477-15.367l-2.452-25.334
							c-0.118-1.212,0.769-2.291,1.981-2.407c1.225-0.114,2.291,0.771,2.407,1.981l2.655,27.407
							c0.114,1.165-0.702,2.213-1.858,2.392l-101.538,15.686C482.99,1289.545,478.018,1289.928,473.075,1289.928z"/>
						<path style="fill:#363E44;" d="M510.895,1161.379c-1.178,0-2.153-0.93-2.201-2.117c-0.049-1.216,0.898-2.243,2.114-2.291
							l67.182-2.668c1.208-0.091,2.241,0.898,2.291,2.114c0.05,1.217-0.898,2.244-2.114,2.291l-67.182,2.668
							C510.955,1161.379,510.925,1161.379,510.895,1161.379z"/>
					</g>
				</g>
				<g>
					<path style="fill:#84524D;" d="M814.371,1072.876l72.091,79.77c19.512,21.591,52.993,22.901,74.137,2.902l0,0
						c22.949-21.707,21.284-58.697-3.522-78.259l-83.237-65.64L814.371,1072.876z"/>
					<g>
						<path style="fill:#84524D;" d="M861.43,1052.318c11.879,1.916,15.503,7.995,14.435,14.6
							c-1.068,6.606-6.422,11.237-18.302,9.321c-11.879-1.916-25.785-9.653-24.717-16.259
							C833.913,1053.375,849.55,1050.402,861.43,1052.318z"/>
						<path style="fill:#84524D;" d="M862.519,1029.056c13.768,2.22,17.968,9.266,16.731,16.922
							c-1.238,7.656-7.443,13.023-21.212,10.803c-13.768-2.221-29.885-11.188-28.648-18.844
							C830.627,1030.281,848.75,1026.836,862.519,1029.056z"/>
						<path style="fill:#84524D;" d="M867.622,1014.007c11.879,1.916,17.234-2.715,18.302-9.321
							c1.068-6.605-2.556-12.684-14.435-14.6c-11.879-1.916-27.516,1.057-28.584,7.662
							C841.836,1004.354,855.742,1012.091,867.622,1014.007z"/>
						<path style="fill:#84524D;" d="M861.327,1036.43c13.768,2.221,19.974-3.147,21.212-10.803
							c1.237-7.656-2.962-14.701-16.731-16.922c-13.768-2.221-31.892,1.225-33.129,8.881
							C831.442,1025.242,847.558,1034.209,861.327,1036.43z"/>
					</g>
				</g>
			</g>
			<g>
				<path style="fill:#84524D;" d="M606.246,997.279l-5.339-0.085c-15.783-0.252-28.374-13.251-28.121-29.035l1.605-100.319
					c0.253-15.782,13.251-28.372,29.034-28.12l5.339,0.085c15.783,0.252,28.374,13.251,28.121,29.035l-1.605,100.319
					C635.027,984.941,622.029,997.531,606.246,997.279z"/>
				<g>
					<g>
						<path style="fill:#84524D;" d="M679.641,901.67c-3.973,19.416-60.276,22.152-60.276,22.152l-54.811-16.405
							c-19.058-20.368-17.977-52.31,2.412-71.347c20.39-19.036,52.368-17.957,71.425,2.41
							C638.391,838.481,683.687,881.895,679.641,901.67z"/>
						<path style="fill:#84524D;" d="M643.222,852.139c0,0,20.495,1.169,22.622,4.545c2.538,4.029-7.048,16.882-7.048,16.882
							S643.522,851.908,643.222,852.139z"/>
						<g>
							<path style="fill:#FFFFFF;" d="M604.054,872.406c0,0,4.167-7.28,11.73-11.994c1.609-1.003,6.608,13.75,4.626,13.973
								C611.694,875.369,604.054,872.406,604.054,872.406z"/>
							<g>
								<defs>
									<path id="SVGID_1_" d="M604.054,872.406c0,0,6.129-10.708,17.01-14.559c10.881-3.851,22.392,0.614,22.392,0.614
										s-6.13,10.708-17.01,14.559C615.565,876.87,604.054,872.406,604.054,872.406z"/>
								</defs>
								<clipPath id="SVGID_00000049908699344823824300000005187054956094810280_">
									<use xlink:href="#SVGID_1_"  style="overflow:visible;"/>
								</clipPath>
								<path style="clip-path:url(#SVGID_00000049908699344823824300000005187054956094810280_);fill:#363E44;" d="
									M615.897,859.881c1.88-8.113,9.989-13.168,18.112-11.29c8.122,1.878,13.182,9.978,11.302,18.092
									c-1.88,8.113-9.989,13.168-18.111,11.29C619.076,876.095,614.016,867.995,615.897,859.881z"/>
							</g>
						</g>
						<g>
							<path style="fill:#363E44;" d="M521.674,871.756c0,0,18.859,55.413,59.097,46.651l2.184-12.365l23.3-6.901l-24.014-14.985
								c-8.387-6.516-8.71-19.068-0.67-26.006l35.097-30.289l-17.313-17.788C563.7,816.572,536.418,835.133,521.674,871.756z"/>
							<path style="fill:#363E44;" d="M555.397,832.247c-3.054,4.351-9.062,5.406-13.418,2.355c-4.356-3.051-7.692-10.649-4.638-15
								c3.054-4.352,11.342-3.809,15.698-0.758C557.396,821.894,558.452,827.895,555.397,832.247z"/>
							<path style="fill:#363E44;" d="M562.597,829.469c-4.786,2.321-10.55,0.326-12.873-4.454
								c-2.323-4.781-1.543-13.041,3.243-15.361c4.786-2.321,11.766,2.176,14.089,6.957
								C569.38,821.391,567.384,827.149,562.597,829.469z"/>
							<path style="fill:#363E44;" d="M578.12,823.658c-6.937,1.968-14.156-2.055-16.126-8.984
								c-1.97-6.929,1.026-17.768,7.963-19.735s15.187,5.681,17.157,12.61C589.083,814.479,585.056,821.691,578.12,823.658z"/>
							<path style="fill:#363E44;" d="M544.732,843.188c-2.912,4.448-8.883,5.695-13.335,2.786
								c-4.453-2.909-8.032-10.395-5.12-14.843c2.912-4.448,11.213-4.173,15.666-1.264
								C546.395,832.776,547.644,838.74,544.732,843.188z"/>
							<path style="fill:#363E44;" d="M588.688,817.488c-5.859-2.618-8.483-9.485-5.862-15.337
								c2.621-5.852,10.867-11.537,16.726-8.919c5.859,2.618,7.112,12.548,4.491,18.4
								C601.421,817.484,594.547,820.106,588.688,817.488z"/>
							<path style="fill:#363E44;" d="M538.029,853.876c-2.547,6.113-9.572,9.007-15.692,6.463
								c-6.12-2.544-12.22-10.893-9.673-17.007c2.547-6.113,12.775-7.675,18.895-5.131
								C537.679,840.745,540.576,847.763,538.029,853.876z"/>
							<path style="fill:#363E44;" d="M530.278,863.143c0.335,5.158-3.579,9.61-8.743,9.944c-5.163,0.334-12.323-3.4-12.658-8.558
								c-0.335-5.158,6.282-9.785,11.445-10.119C525.486,854.076,529.943,857.986,530.278,863.143z"/>
							<path style="fill:#363E44;" d="M600.508,826.328c-5.779-5.269-6.187-14.221-0.912-19.993
								c5.275-5.772,16.997-9.201,22.776-3.932c5.779,5.269,3.426,17.242-1.849,23.014
								C615.247,831.19,606.286,831.598,600.508,826.328z"/>
						</g>
						<path style="fill:#84524D;" d="M557.529,914.251c3.297,9.034,13.302,13.688,22.346,10.394
							c9.044-3.293,13.703-13.287,10.406-22.321c-3.297-9.034-13.302-13.688-22.345-10.395
							C558.891,895.223,554.232,905.217,557.529,914.251z"/>
						<path style="fill:#363E44;" d="M663.44,866.33l24.794,34.398c3.452,4.789,2.206,11.476-2.731,14.717
							c-1.242,0.815-2.595,1.683-4.046,2.586c-25.122,15.631-56.552,17.199-83.092,4.115l0,0
							c-8.891-4.383-14.15-13.794-13.218-23.655l0.307-3.25l9.163-2.211c0,0,20.057,12.789,27.593,8.256
							C629.744,896.754,636.901,880.878,663.44,866.33z"/>
						<path style="fill:#84524D;" d="M650.84,892.587c-2.924,0-5.762-1.397-7.53-3.8c-0.721-0.982-0.51-2.362,0.469-3.083
							c0.984-0.721,2.36-0.513,3.083,0.469c1.1,1.496,2.984,2.261,4.799,1.933c1.882-0.334,3.404-1.757,3.876-3.626
							c0.299-1.18,1.492-1.895,2.678-1.598c1.18,0.299,1.895,1.499,1.598,2.679c-0.898,3.546-3.794,6.25-7.381,6.886
							C651.904,892.542,651.37,892.587,650.84,892.587z"/>
						<path style="fill:#84524D;" d="M547.707,871.318c-1.156,0-2.127-0.9-2.198-2.069c-0.075-1.216,0.85-2.261,2.065-2.336
							l25.521-1.565c1.264-0.065,2.263,0.851,2.336,2.065c0.075,1.217-0.85,2.261-2.065,2.336l-25.521,1.565
							C547.797,871.316,547.752,871.318,547.707,871.318z"/>
					</g>
				</g>
			</g>
		</g>
		<g>
			<g>
				<path style="fill:#D87355;" d="M1902.267,683.125c-40.47,0-79.033-15.615-108.583-43.965
					c-29.836-28.628-46.267-66.362-46.267-106.253c0-82.829,67.559-150.216,150.602-150.216
					c83.042,0,150.604,67.387,150.604,150.216C2048.623,617.142,1984.336,683.125,1902.267,683.125z M1898.019,387.1
					c-80.612,0-146.192,65.408-146.192,145.806c0,79.036,68.894,145.809,150.44,145.809c79.595,0,141.946-64.047,141.946-145.809
					C2044.213,452.508,1978.63,387.1,1898.019,387.1z"/>
				<path style="fill:#D87355;" d="M1968.261,651.409c-0.769,0-1.516-0.403-1.921-1.12c-0.601-1.059-0.226-2.405,0.833-3.004
					c17.994-10.178,29.709-24.725,41.765-43.435c0.661-1.021,2.022-1.313,3.049-0.659c1.023,0.661,1.318,2.024,0.659,3.049
					c-12.409,19.258-24.522,34.261-43.302,44.882C1969.001,651.317,1968.629,651.409,1968.261,651.409z"/>
				<path style="fill:#D87355;" d="M2031.826,528.816c-1.169,0-2.145-0.922-2.201-2.102c-3.264-70.212-61.072-125.21-131.607-125.21
					c-60.678,0-113.26,40.961-127.869,99.613c-0.295,1.18-1.484,1.886-2.674,1.606c-1.18-0.295-1.899-1.492-1.606-2.674
					c15.102-60.617,69.443-102.955,132.149-102.955c72.895,0,132.638,56.845,136.012,129.413c0.056,1.216-0.885,2.25-2.099,2.306
					C2031.895,528.816,2031.86,528.816,2031.826,528.816z"/>
				<ellipse style="fill:#D87355;" cx="1898.02" cy="532.907" rx="123.239" ry="122.92"/>
				<g>
					<path style="fill:#FFFFFF;" d="M1923.588,567.709c0-5.634-2.032-10.477-6.093-14.529c-4.063-4.051-10.727-7.659-19.993-10.825
						c-12.821-3.861-22.501-9.021-29.037-15.478c-6.538-6.457-9.806-15.065-9.806-25.828c0-10.445,2.999-18.959,8.997-25.543
						c5.997-6.583,14.264-10.54,24.8-11.87v-20.985h15.043v21.08c10.663,1.519,18.929,6.063,24.8,13.626
						c5.87,7.565,8.806,17.709,8.806,30.434h-18.66c0-8.608-2-15.573-5.998-20.891c-3.999-5.318-9.553-7.976-16.661-7.976
						c-7.49,0-13.091,1.947-16.803,5.84c-3.713,3.893-5.569,9.227-5.569,16c0,6.141,1.919,11.11,5.76,14.908
						c3.839,3.798,10.772,7.406,20.802,10.825c13.01,4.178,22.659,9.386,28.942,15.62c6.284,6.236,9.425,14.703,9.425,25.401
						c0,10.888-3.27,19.546-9.806,25.97c-6.537,6.426-15.518,10.239-26.942,11.442v18.232h-14.947v-18.136
						c-10.917-1.14-19.866-5.111-26.847-11.917c-6.983-6.804-10.346-16.791-10.092-29.959l0.19-0.475h18.089
						c0,9.749,2.459,16.698,7.379,20.843c4.917,4.147,10.963,6.22,18.136,6.22c8.187,0,14.581-1.947,19.183-5.84
						C1921.287,580.006,1923.588,574.609,1923.588,567.709z"/>
				</g>
			</g>
			<g>
				<path style="fill:#D87355;" d="M1141.598,891.457c-44.531,0-86.961-17.18-119.476-48.377
					c-32.827-31.494-50.905-73.011-50.905-116.898c0-91.134,74.333-165.275,165.699-165.275c91.367,0,165.7,74.141,165.7,165.275
					C1302.616,818.859,1231.888,891.457,1141.598,891.457z M1136.917,565.316c-88.936,0-161.29,72.165-161.29,160.866
					c0,87.198,76.006,160.866,165.971,160.866c87.818,0,156.609-70.66,156.609-160.866
					C1298.207,637.48,1225.853,565.316,1136.917,565.316z"/>
				<path style="fill:#D87355;" d="M1214.305,856.513c-0.769,0-1.516-0.403-1.921-1.12c-0.601-1.059-0.226-2.405,0.833-3.004
					c19.865-11.237,32.792-27.285,46.09-47.927c0.661-1.023,2.024-1.316,3.049-0.659c1.023,0.661,1.318,2.024,0.659,3.049
					c-13.653,21.189-26.977,37.693-47.628,49.374C1215.046,856.421,1214.673,856.513,1214.305,856.513z"/>
				<path style="fill:#D87355;" d="M1284.338,721.449c-1.169,0-2.144-0.922-2.2-2.101c-3.604-77.474-67.393-138.163-145.221-138.163
					c-66.954,0-124.975,45.201-141.095,109.92c-0.295,1.18-1.484,1.89-2.674,1.606c-1.18-0.295-1.899-1.492-1.606-2.674
					c16.614-66.687,76.394-113.262,145.376-113.262c80.187,0,145.912,62.536,149.626,142.366c0.056,1.216-0.883,2.25-2.099,2.306
					C1284.407,721.449,1284.373,721.449,1284.338,721.449z"/>
				<ellipse style="fill:#D87355;" cx="1136.917" cy="726.181" rx="135.777" ry="135.425"/>
				<g>
					<path style="fill:#FFFFFF;" d="M1165.088,764.523c0-6.207-2.238-11.542-6.713-16.006c-4.476-4.463-11.818-8.438-22.027-11.926
						c-14.126-4.254-24.79-9.939-31.991-17.053c-7.203-7.114-10.804-16.598-10.804-28.456c0-11.508,3.304-20.887,9.912-28.142
						c6.607-7.253,15.715-11.612,27.323-13.078v-23.12h16.573v23.225c11.748,1.674,20.855,6.679,27.323,15.013
						c6.467,8.335,9.702,19.511,9.702,33.53h-20.558c0-9.484-2.203-17.157-6.608-23.016c-4.406-5.859-10.525-8.788-18.356-8.788
						c-8.252,0-14.423,2.145-18.513,6.434c-4.091,4.289-6.136,10.166-6.136,17.628c0,6.766,2.114,12.24,6.346,16.425
						c4.23,4.185,11.868,8.16,22.918,11.926c14.334,4.603,24.964,10.341,31.886,17.21c6.923,6.87,10.384,16.199,10.384,27.985
						c0,11.996-3.602,21.535-10.804,28.612c-7.203,7.08-17.097,11.281-29.683,12.607v20.086h-16.468v-19.982
						c-12.028-1.255-21.887-5.631-29.579-13.13c-7.693-7.497-11.399-18.499-11.118-33.007l0.21-0.523h19.929
						c0,10.741,2.71,18.397,8.129,22.963c5.418,4.569,12.078,6.853,19.982,6.853c9.02,0,16.064-2.145,21.135-6.434
						C1162.552,778.071,1165.088,772.126,1165.088,764.523z"/>
				</g>
			</g>
			<g>
				<path style="fill:#D87355;" d="M1429.983,2052.97c-40.47,0-79.033-15.615-108.583-43.965
					c-29.836-28.628-46.267-66.362-46.267-106.253c0-82.831,67.559-150.218,150.602-150.218
					c83.042,0,150.604,67.387,150.604,150.218C1576.339,1986.987,1512.053,2052.97,1429.983,2052.97z M1425.735,1756.943
					c-80.612,0-146.192,65.41-146.192,145.809c0,79.036,68.894,145.809,150.44,145.809c79.595,0,141.946-64.047,141.946-145.809
					C1571.929,1822.353,1506.347,1756.943,1425.735,1756.943z"/>
				<path style="fill:#D87355;" d="M1495.977,2021.254c-0.769,0-1.516-0.403-1.921-1.12c-0.601-1.059-0.226-2.405,0.833-3.004
					c17.99-10.178,29.707-24.724,41.765-43.435c0.661-1.021,2.024-1.313,3.049-0.659c1.023,0.661,1.318,2.024,0.659,3.049
					c-12.413,19.258-24.526,34.261-43.302,44.882C1496.718,2021.162,1496.345,2021.254,1495.977,2021.254z"/>
				<path style="fill:#D87355;" d="M1559.542,1898.661c-1.169,0-2.144-0.921-2.2-2.101
					c-3.266-70.212-61.074-125.212-131.607-125.212c-60.678,0-113.26,40.964-127.869,99.615c-0.295,1.18-1.483,1.884-2.674,1.606
					c-1.18-0.295-1.899-1.492-1.606-2.674c15.1-60.62,69.443-102.957,132.149-102.957c72.892,0,132.636,56.845,136.012,129.415
					c0.056,1.217-0.883,2.25-2.099,2.306C1559.611,1898.661,1559.577,1898.661,1559.542,1898.661z"/>
				<ellipse style="fill:#D87355;" cx="1425.736" cy="1902.752" rx="123.239" ry="122.92"/>
				<g>
					<path style="fill:#FFFFFF;" d="M1451.305,1937.554c0-5.634-2.032-10.477-6.093-14.529c-4.063-4.05-10.727-7.659-19.993-10.825
						c-12.821-3.861-22.501-9.021-29.037-15.478c-6.538-6.457-9.806-15.065-9.806-25.828c0-10.445,2.999-18.959,8.997-25.543
						c5.997-6.583,14.264-10.54,24.8-11.87v-20.985h15.043v21.08c10.663,1.519,18.929,6.063,24.8,13.626
						c5.87,7.565,8.806,17.709,8.806,30.434h-18.66c0-8.608-2-15.573-5.998-20.891c-3.999-5.318-9.553-7.976-16.661-7.976
						c-7.49,0-13.091,1.947-16.803,5.84c-3.713,3.893-5.569,9.227-5.569,16c0,6.141,1.919,11.11,5.76,14.908
						c3.839,3.798,10.772,7.406,20.802,10.825c13.01,4.178,22.659,9.386,28.942,15.62c6.284,6.236,9.425,14.703,9.425,25.401
						c0,10.889-3.27,19.546-9.806,25.97c-6.537,6.426-15.518,10.239-26.942,11.442v18.232h-14.947v-18.136
						c-10.917-1.14-19.866-5.111-26.847-11.917c-6.983-6.804-10.346-16.791-10.092-29.959l0.19-0.475h18.089
						c0,9.749,2.459,16.698,7.379,20.843c4.917,4.147,10.963,6.22,18.137,6.22c8.187,0,14.581-1.947,19.183-5.84
						C1449.004,1949.85,1451.305,1944.454,1451.305,1937.554z"/>
				</g>
			</g>
			<g>
				<path style="fill:#E2A18D;" d="M1825.397,1311.964c-87.344,0-158.402-71.058-158.402-158.402s71.058-158.403,158.402-158.403
					c87.344,0,158.403,71.058,158.403,158.403S1912.742,1311.964,1825.397,1311.964z M1825.397,999.568
					c-84.911,0-153.993,69.081-153.993,153.993s69.082,153.993,153.993,153.993c84.911,0,153.993-69.082,153.993-153.993
					S1910.309,999.568,1825.397,999.568z"/>
				<path style="fill:#E2A18D;" d="M1894.86,1278.495c-0.769,0-1.514-0.4-1.921-1.117c-0.601-1.059-0.228-2.405,0.831-3.006
					c19.546-11.087,36.308-26.951,48.472-45.875c0.657-1.023,2.02-1.324,3.047-0.661c1.023,0.657,1.32,2.022,0.661,3.047
					c-12.547,19.52-29.838,35.886-50.005,47.326C1895.603,1278.402,1895.228,1278.495,1894.86,1278.495z"/>
				<path style="fill:#E2A18D;" d="M1966.237,1149.121c-1.171,0-2.145-0.922-2.201-2.104
					c-3.438-74.156-64.336-132.248-138.639-132.248c-63.92,0-119.312,43.265-134.703,105.213c-0.295,1.182-1.494,1.891-2.672,1.608
					c-1.182-0.295-1.901-1.49-1.608-2.672c15.882-63.918,73.032-108.559,138.983-108.559c76.663,0,139.496,59.937,143.044,136.456
					c0.056,1.214-0.885,2.248-2.101,2.304C1966.306,1149.121,1966.271,1149.121,1966.237,1149.121z"/>
				<path style="fill:#E2A18D;" d="M1825.397,1285.484c-72.742,0-131.923-59.181-131.923-131.923s59.181-131.921,131.923-131.921
					c72.742,0,131.921,59.179,131.921,131.921S1898.139,1285.484,1825.397,1285.484z M1825.397,1026.05
					c-70.311,0-127.513,57.2-127.513,127.511s57.202,127.513,127.513,127.513c70.311,0,127.511-57.203,127.511-127.513
					S1895.708,1026.05,1825.397,1026.05z"/>
				<g>
					<path style="fill:#D87355;" d="M1852.31,1190.288c0-5.945-2.138-11.056-6.413-15.332c-4.276-4.275-11.291-8.083-21.043-11.424
						c-13.495-4.074-23.684-9.52-30.564-16.334c-6.882-6.814-10.321-15.898-10.321-27.256c0-11.023,3.157-20.007,9.47-26.956
						c6.313-6.947,15.014-11.123,26.104-12.526v-22.146h15.833v22.246c11.223,1.603,19.924,6.398,26.104,14.38
						c6.179,7.984,9.269,18.688,9.269,32.117h-19.64c0-9.085-2.105-16.434-6.313-22.046c-4.209-5.612-10.055-8.417-17.536-8.417
						c-7.883,0-13.779,2.054-17.686,6.163c-3.908,4.109-5.862,9.737-5.862,16.885c0,6.48,2.02,11.724,6.063,15.733
						c4.041,4.008,11.339,7.816,21.895,11.424c13.694,4.409,23.85,9.905,30.463,16.484c6.614,6.581,9.921,15.516,9.921,26.806
						c0,11.491-3.442,20.627-10.321,27.406c-6.881,6.781-16.334,10.806-28.358,12.075v19.24h-15.733v-19.139
						c-11.491-1.203-20.911-5.394-28.259-12.576c-7.35-7.181-10.89-17.72-10.622-31.616l0.2-0.501h19.039
						c0,10.289,2.589,17.621,7.766,21.995c5.176,4.376,11.539,6.564,19.09,6.564c8.617,0,15.347-2.054,20.192-6.163
						C1849.888,1203.264,1852.31,1197.57,1852.31,1190.288z"/>
				</g>
			</g>
			<g>
				<path style="fill:#E2A18D;" d="M1230.322,1575.218c-87.344,0-158.402-71.058-158.402-158.403
					c0-87.344,71.058-158.402,158.402-158.402c87.344,0,158.402,71.058,158.402,158.402
					C1388.725,1504.16,1317.667,1575.218,1230.322,1575.218z M1230.322,1262.822c-84.911,0-153.993,69.082-153.993,153.993
					c0,84.911,69.081,153.993,153.993,153.993s153.993-69.082,153.993-153.993
					C1384.315,1331.904,1315.234,1262.822,1230.322,1262.822z"/>
				<path style="fill:#E2A18D;" d="M1299.787,1541.747c-0.769,0-1.514-0.4-1.921-1.117c-0.601-1.059-0.228-2.405,0.831-3.006
					c19.546-11.084,36.308-26.949,48.471-45.875c0.657-1.023,2.02-1.324,3.047-0.661c1.023,0.657,1.32,2.022,0.661,3.047
					c-12.546,19.523-29.838,35.889-50.005,47.326C1300.53,1541.654,1300.155,1541.747,1299.787,1541.747z"/>
				<path style="fill:#E2A18D;" d="M1371.164,1412.375c-1.171,0-2.145-0.922-2.201-2.104
					c-3.439-74.156-64.338-132.248-138.641-132.248c-63.92,0-119.312,43.265-134.701,105.213c-0.295,1.182-1.496,1.893-2.672,1.608
					c-1.182-0.295-1.901-1.49-1.608-2.672c15.879-63.918,73.03-108.559,138.981-108.559c76.663,0,139.498,59.937,143.046,136.455
					c0.056,1.214-0.885,2.248-2.101,2.304C1371.233,1412.375,1371.198,1412.375,1371.164,1412.375z"/>
				<path style="fill:#E2A18D;" d="M1230.322,1548.736c-72.742,0-131.921-59.179-131.921-131.921
					c0-72.742,59.179-131.923,131.921-131.923s131.923,59.181,131.923,131.923
					C1362.245,1489.557,1303.064,1548.736,1230.322,1548.736z M1230.322,1289.302c-70.311,0-127.511,57.202-127.511,127.513
					c0,70.311,57.2,127.511,127.511,127.511s127.514-57.2,127.514-127.511C1357.836,1346.504,1300.633,1289.302,1230.322,1289.302z"
					/>
				<g>
					<path style="fill:#D87355;" d="M1257.236,1453.541c0-5.945-2.138-11.056-6.413-15.332c-4.276-4.274-11.291-8.082-21.043-11.424
						c-13.495-4.074-23.684-9.52-30.564-16.334c-6.882-6.814-10.322-15.898-10.322-27.256c0-11.023,3.157-20.007,9.47-26.956
						c6.312-6.947,15.014-11.123,26.104-12.526v-22.146h15.833v22.246c11.223,1.603,19.924,6.398,26.104,14.38
						c6.179,7.984,9.269,18.688,9.269,32.116h-19.64c0-9.084-2.105-16.434-6.313-22.046c-4.209-5.612-10.055-8.418-17.536-8.418
						c-7.884,0-13.779,2.055-17.686,6.163c-3.908,4.109-5.862,9.738-5.862,16.885c0,6.48,2.02,11.724,6.063,15.733
						c4.041,4.008,11.339,7.816,21.895,11.424c13.694,4.409,23.85,9.905,30.463,16.484c6.614,6.581,9.921,15.516,9.921,26.806
						c0,11.491-3.442,20.627-10.321,27.407c-6.881,6.781-16.334,10.805-28.358,12.075v19.24h-15.733v-19.139
						c-11.491-1.202-20.911-5.394-28.259-12.576c-7.35-7.181-10.89-17.72-10.622-31.616l0.2-0.501h19.039
						c0,10.288,2.589,17.621,7.766,21.995c5.176,4.376,11.539,6.564,19.09,6.564c8.617,0,15.347-2.054,20.192-6.163
						C1254.814,1466.517,1257.236,1460.823,1257.236,1453.541z"/>
				</g>
			</g>
		</g>
		<g>
			<g>
				
					<ellipse transform="matrix(0.2088 -0.978 0.978 0.2088 -144.0088 3370.8687)" style="fill:#ff6900;" cx="2011.23" cy="1774.433" rx="210.367" ry="124.503"/>
				<path style="fill:#776E42;" d="M2055.152,1568.702c-0.218-0.047-0.441-0.05-0.656-0.09l-87.822,411.366
					c0.213,0.05,0.418,0.14,0.636,0.186c38.721,8.266,89.773-77.143,114.03-190.765S2093.873,1576.969,2055.152,1568.702z"/>
				<path style="fill:#363E44;" d="M1934,1932.146c-1.014,0-1.927-0.704-2.151-1.735c-9.472-43.377-6.877-105.853,7.118-171.405
					c15.206-71.23,41.459-133.997,70.229-167.9c0.792-0.928,2.181-1.038,3.109-0.254c0.928,0.788,1.042,2.179,0.254,3.109
					c-28.32,33.371-54.22,95.417-69.282,165.966c-13.868,64.96-16.465,126.755-7.123,169.545c0.26,1.189-0.493,2.364-1.684,2.623
					C1934.314,1932.129,1934.155,1932.146,1934,1932.146z"/>
				<path style="fill:#363E44;" d="M2016.991,1951.775c-0.463,0-0.93-0.144-1.328-0.446c-0.971-0.734-1.163-2.117-0.429-3.09
					c26.122-34.547,50.028-94.097,63.948-159.298c15.518-72.686,16.719-143.309,3.133-184.305c-0.383-1.156,0.243-2.403,1.4-2.786
					c1.156-0.381,2.403,0.241,2.786,1.4c13.819,41.698,12.665,113.204-3.008,186.613c-14.047,65.8-38.251,126-64.741,161.038
					C2018.317,1951.473,2017.658,1951.775,2016.991,1951.775z"/>
				<g>
					<path style="fill:#363E44;" d="M1939.148,1681.579c-0.665,0-1.322-0.299-1.755-0.868l-24.012-31.466
						c-0.739-0.967-0.553-2.351,0.416-3.09c0.969-0.743,2.356-0.551,3.09,0.416l24.012,31.466c0.739,0.967,0.553,2.351-0.415,3.09
						C1940.085,1681.432,1939.613,1681.579,1939.148,1681.579z"/>
					<path style="fill:#363E44;" d="M1919.615,1759.357c-0.549,0-1.098-0.202-1.524-0.611l-41.308-39.549
						c-0.881-0.842-0.911-2.239-0.069-3.118c0.842-0.881,2.241-0.909,3.118-0.069l41.308,39.549
						c0.881,0.842,0.911,2.239,0.069,3.118C1920.775,1759.128,1920.194,1759.357,1919.615,1759.357z"/>
					<path style="fill:#363E44;" d="M1904.866,1814.74c-0.508,0-1.016-0.174-1.432-0.527l-29.705-25.364
						c-0.926-0.792-1.036-2.183-0.246-3.109c0.792-0.928,2.185-1.031,3.109-0.245l29.705,25.364
						c0.926,0.792,1.036,2.183,0.245,3.109C1906.106,1814.477,1905.488,1814.74,1904.866,1814.74z"/>
					<path style="fill:#363E44;" d="M1903.809,1874.511c-0.426,0-0.859-0.123-1.238-0.381l-34.5-23.463
						c-1.005-0.685-1.268-2.056-0.583-3.064c0.685-1.003,2.058-1.268,3.064-0.583l34.5,23.463c1.006,0.685,1.268,2.056,0.583,3.064
						C1905.208,1874.173,1904.515,1874.511,1903.809,1874.511z"/>
					<path style="fill:#363E44;" d="M2116.404,1656.499c-0.747,0-1.475-0.379-1.89-1.066c-0.629-1.042-0.293-2.399,0.749-3.027
						l26.873-16.213c1.038-0.633,2.394-0.295,3.027,0.749c0.629,1.042,0.293,2.399-0.749,3.027l-26.874,16.213
						C2117.185,1656.398,2116.791,1656.499,2116.404,1656.499z"/>
					<path style="fill:#363E44;" d="M2102.217,1798.339c-0.906,0-1.755-0.562-2.076-1.464c-0.411-1.146,0.187-2.407,1.335-2.816
						l53.859-19.232c1.139-0.413,2.407,0.187,2.816,1.335c0.411,1.146-0.188,2.407-1.335,2.816l-53.859,19.232
						C2102.714,1798.298,2102.462,1798.339,2102.217,1798.339z"/>
					<path style="fill:#363E44;" d="M2078.091,1897.194c-1.049,0-1.979-0.749-2.168-1.817c-0.213-1.199,0.583-2.345,1.783-2.558
						l41.075-7.327c1.229-0.211,2.345,0.586,2.558,1.783c0.213,1.199-0.584,2.345-1.783,2.558l-41.075,7.327
						C2078.349,1897.184,2078.218,1897.194,2078.091,1897.194z"/>
					<path style="fill:#363E44;" d="M2046.252,1704.436c-0.543,0-1.085-0.198-1.509-0.599c-0.887-0.833-0.93-2.229-0.097-3.116
						l20.625-21.938c0.835-0.891,2.233-0.93,3.115-0.097c0.887,0.833,0.93,2.229,0.097,3.116l-20.625,21.938
						C2047.425,1704.204,2046.838,1704.436,2046.252,1704.436z"/>
					<path style="fill:#363E44;" d="M2020.477,1839.411c-0.706,0-1.4-0.338-1.826-0.967c-0.685-1.005-0.422-2.377,0.586-3.062
						l21.307-14.473c1.006-0.687,2.377-0.424,3.062,0.586c0.685,1.006,0.422,2.377-0.586,3.062l-21.307,14.473
						C2021.334,1839.288,2020.903,1839.411,2020.477,1839.411z"/>
					<path style="fill:#363E44;" d="M2025.097,1636.996c-0.945,0-1.819-0.611-2.11-1.563l-7.135-23.471
						c-0.353-1.165,0.304-2.396,1.469-2.752c1.169-0.355,2.396,0.306,2.752,1.469l7.135,23.471c0.353,1.165-0.304,2.396-1.468,2.752
						C2025.526,1636.965,2025.308,1636.996,2025.097,1636.996z"/>
					<path style="fill:#363E44;" d="M1987.534,1773.845c-0.79,0-1.552-0.424-1.949-1.171l-18.411-34.661
						c-0.573-1.074-0.164-2.409,0.913-2.98c1.072-0.579,2.409-0.166,2.98,0.913l18.412,34.661c0.573,1.074,0.164,2.409-0.913,2.98
						C1988.235,1773.763,1987.882,1773.845,1987.534,1773.845z"/>
					<path style="fill:#363E44;" d="M1967.688,1888.136c-0.633,0-1.26-0.269-1.697-0.792l-16.317-19.578
						c-0.78-0.937-0.652-2.328,0.282-3.107c0.941-0.777,2.325-0.652,3.107,0.282l16.317,19.578c0.78,0.937,0.652,2.328-0.282,3.107
						C1968.685,1887.968,1968.185,1888.136,1967.688,1888.136z"/>
				</g>
				<path style="fill:#FFFFFF;" d="M2102.687,1521.565c0,35.077-22.666,63.512-50.626,63.512s-50.626-28.436-50.626-63.512
					l21.171,11.966l15.648-15.648l15.648,12.887l17.489-13.807l12.886,12.887L2102.687,1521.565z"/>
			</g>
			<g>
				
					<ellipse transform="matrix(0.9209 -0.3899 0.3899 0.9209 -569.521 874.3304)" style="fill:#776E42;" cx="1869.13" cy="1840.165" rx="98.22" ry="165.958"/>
				<path style="fill:#ff6900;" d="M1804.428,1687.34c-0.162,0.069-0.308,0.167-0.465,0.239l129.374,305.579
					c0.16-0.064,0.333-0.099,0.495-0.167c28.763-12.178,23.111-90.472-12.623-174.875
					C1885.475,1733.712,1833.191,1675.162,1804.428,1687.34z"/>
				<path style="fill:#363E44;" d="M1889.583,1977.81c-0.536,0-1.07-0.194-1.494-0.583c-25.795-23.792-52.427-65.397-73.069-114.153
					c-22.429-52.98-33.875-105.506-30.618-140.506c0.114-1.214,1.186-2.119,2.401-1.992c1.212,0.114,2.104,1.188,1.992,2.401
					c-3.195,34.308,8.128,86.038,30.286,138.378c20.407,48.196,46.65,89.248,71.997,112.629c0.896,0.827,0.952,2.222,0.127,3.116
					C1890.769,1977.571,1890.177,1977.81,1889.583,1977.81z"/>
				<path style="fill:#363E44;" d="M1952.097,1952.944c-0.028,0-0.056,0-0.082-0.002c-1.219-0.043-2.168-1.066-2.123-2.282
					c1.247-34.08-10.234-83.307-30.715-131.684c-22.83-53.923-53.949-100.031-81.214-120.33c-0.977-0.726-1.18-2.108-0.452-3.086
					c0.728-0.971,2.106-1.18,3.085-0.45c27.857,20.739,59.524,67.544,82.642,122.148c20.72,48.939,32.329,98.87,31.059,133.562
					C1954.255,1952.009,1953.277,1952.944,1952.097,1952.944z"/>
				<g>
					<path style="fill:#363E44;" d="M1769.965,1764.888c-0.254,0-0.51-0.043-0.762-0.136l-23.234-8.552
						c-1.141-0.42-1.727-1.688-1.307-2.831c0.42-1.143,1.694-1.725,2.831-1.307l23.234,8.552c1.141,0.42,1.727,1.688,1.307,2.831
						C1771.707,1764.337,1770.863,1764.888,1769.965,1764.888z"/>
					<path style="fill:#363E44;" d="M1802.107,1872.653c-0.112,0-0.224-0.009-0.338-0.026l-44.592-6.866
						c-1.203-0.185-2.028-1.311-1.843-2.515c0.187-1.204,1.311-2.026,2.515-1.843l44.592,6.866c1.204,0.185,2.028,1.311,1.843,2.515
						C1804.116,1871.874,1803.177,1872.653,1802.107,1872.653z"/>
					<path style="fill:#363E44;" d="M1811.083,1954.671c-1.204,0-2.188-0.967-2.205-2.175c-0.017-1.219,0.958-2.218,2.175-2.235
						l32.911-0.448c0.011,0,0.021,0,0.03,0c1.204,0,2.188,0.967,2.205,2.175c0.017,1.219-0.958,2.218-2.175,2.235l-32.911,0.448
						C1811.103,1954.671,1811.092,1954.671,1811.083,1954.671z"/>
					<path style="fill:#363E44;" d="M1911.017,1757.888c-0.329,0-0.665-0.073-0.98-0.23c-1.089-0.543-1.535-1.867-0.993-2.956
						l13.909-27.957c0.54-1.089,1.867-1.54,2.956-0.993c1.089,0.543,1.535,1.867,0.993,2.956l-13.909,27.956
						C1912.609,1757.44,1911.829,1757.888,1911.017,1757.888z"/>
					<path style="fill:#363E44;" d="M1957.431,1855.932c-0.482,0-0.967-0.157-1.374-0.482c-0.952-0.76-1.107-2.147-0.347-3.098
						l19.23-24.079c0.758-0.95,2.147-1.107,3.098-0.347s1.107,2.147,0.347,3.098l-19.23,24.078
						C1958.72,1855.647,1958.079,1855.932,1957.431,1855.932z"/>
					<path style="fill:#363E44;" d="M1835.315,1737.214c-0.078,0-0.155-0.004-0.233-0.013c-1.212-0.127-2.091-1.212-1.962-2.422
						l2.028-19.247c0.127-1.212,1.219-2.086,2.422-1.962c1.212,0.127,2.091,1.212,1.962,2.422l-2.028,19.247
						C1837.386,1736.372,1836.43,1737.214,1835.315,1737.214z"/>
					<path style="fill:#363E44;" d="M1884.82,1837.626c-0.213,0-0.433-0.03-0.648-0.097c-1.163-0.357-1.817-1.591-1.46-2.756
						l9.095-29.595c0.359-1.161,1.589-1.822,2.756-1.46c1.163,0.357,1.817,1.591,1.46,2.756l-9.095,29.595
						C1886.635,1837.016,1885.763,1837.626,1884.82,1837.626z"/>
					<path style="fill:#363E44;" d="M1917.233,1923.204c-0.359,0-0.726-0.088-1.064-0.276c-1.066-0.588-1.453-1.929-0.863-2.995
						l9.721-17.6c0.586-1.064,1.927-1.455,2.995-0.863c1.066,0.588,1.453,1.929,0.863,2.995l-9.721,17.6
						C1918.764,1922.793,1918.011,1923.204,1917.233,1923.204z"/>
					<path style="fill:#363E44;" d="M1828.978,1792.612c-0.448,0-0.9-0.136-1.29-0.418l-19.249-13.918
						c-0.986-0.715-1.208-2.093-0.495-3.079c0.71-0.988,2.091-1.21,3.079-0.495l19.249,13.918c0.986,0.715,1.208,2.093,0.495,3.079
						C1830.337,1792.295,1829.663,1792.612,1828.978,1792.612z"/>
					<path style="fill:#363E44;" d="M1869.076,1893.33c-0.293,0-0.588-0.058-0.872-0.179l-18.666-8.036
						c-1.117-0.482-1.634-1.779-1.154-2.898c0.482-1.122,1.785-1.628,2.898-1.154l18.666,8.036c1.117,0.482,1.634,1.778,1.154,2.898
						C1870.743,1892.83,1869.929,1893.33,1869.076,1893.33z"/>
				</g>
			</g>
			<polygon style="fill:#FFD092;" points="2086.267,2153.664 1796.168,2153.664 1763.014,1924.188 2119.42,1924.188 			"/>
		</g>
	</g>
</g>
</svg>
