<?xml version="1.0" encoding="utf-8"?>
<!-- Generator: Adobe Illustrator 27.5.0, SVG Export Plug-In . SVG Version: 6.00 Build 0)  -->
<svg version="1.1" xmlns="http://www.w3.org/2000/svg" xmlns:xlink="http://www.w3.org/1999/xlink" x="0px" y="0px"
	 viewBox="0 0 2500 2500" style="enable-background:new 0 0 2500 2500;" xml:space="preserve">
-
<g id="Illustration">
	<g id="FinTech_technology_1_">
		<circle style="fill:transparent;" cx="1250" cy="1250" r="915"/>
		<g>
			<g>
				<path style="fill:#FFFFFF;" d="M1109.921,1887.177h-19.919c-1.784-9.71-4.328-19.152-7.561-28.268l17.238-9.952l-33.705-58.38
					l-17.277,9.975c-6.34-7.422-13.255-14.337-20.677-20.677l9.975-17.277l-58.379-33.705l-9.952,17.238
					c-9.117-3.233-18.559-5.777-28.268-7.561v-19.918h-67.41v19.918c-9.71,1.784-19.152,4.328-28.269,7.561l-9.952-17.238
					l-58.379,33.705l9.975,17.277c-7.422,6.34-14.337,13.255-20.677,20.677l-17.277-9.975l-33.705,58.38l17.238,9.952
					c-3.233,9.117-5.777,18.559-7.561,28.268h-19.919l0,0v67.41h19.919c1.784,9.71,4.328,19.152,7.561,28.269l-17.238,9.953
					l33.705,58.379l17.277-9.975c6.34,7.422,13.255,14.337,20.677,20.677l-9.975,17.277l58.379,33.705l0,0l9.952-17.238
					c9.117,3.233,18.559,5.777,28.269,7.561v19.918h67.41v-19.918c9.71-1.784,19.152-4.327,28.268-7.561l9.952,17.238l0,0
					l58.379-33.705l-9.975-17.277c7.422-6.34,14.337-13.255,20.677-20.677l17.277,9.975l33.705-58.379l-17.238-9.953
					c3.233-9.117,5.777-18.559,7.561-28.269h19.919V1887.177z M1017.921,1924.491c-1.843,57.746-48.875,104.778-106.62,106.622
					c-63.765,2.036-115.877-50.075-113.841-113.84c1.843-57.746,48.875-104.778,106.62-106.622
					C967.845,1808.615,1019.956,1860.726,1017.921,1924.491z"/>
			</g>
			<path style="fill:#F2E6DC;" d="M907.69,2070.547c-82.526,0-149.665-67.139-149.665-149.665c0-36.058,13.004-70.891,36.617-98.084
				c23.378-26.921,55.566-44.648,90.638-49.914c1.195-0.188,2.328,0.647,2.507,1.853c0.181,1.204-0.648,2.326-1.853,2.507
				c-70.407,10.573-123.5,72.324-123.5,143.638c0,80.094,65.162,145.255,145.255,145.255c66.18,0,123.998-44.679,140.606-108.652
				c0.305-1.178,1.507-1.889,2.688-1.579c1.178,0.306,1.886,1.509,1.579,2.688C1035.452,2024.511,975.878,2070.547,907.69,2070.547z
				"/>
		</g>
		<g>
			<g>
				<g>
					<g>
						
							<rect x="630.7" y="412.628" transform="matrix(-1 -1.224647e-16 1.224647e-16 -1 2771.45 1895.8994)" style="fill:#E6D0BE;" width="1510.05" height="1070.644"/>
						
							<rect x="943.658" y="194.416" transform="matrix(-1.836970e-16 1 -1 -1.836970e-16 2287.79 -483.6599)" style="fill:#F7F1EB;" width="884.135" height="1415.298"/>
						<path style="fill:#E6D0BE;" d="M1226.771,1505.957h44.706l0,0c0,33.531,27.186,60.713,60.722,60.713h107.052
							c33.535,0,60.722-27.182,60.722-60.713l0,0h44.704l44.706,237.548v19.866h-407.318v-19.866L1226.771,1505.957z"/>
						<path style="fill:#FFFFFF;" d="M1589.384,1790.408h-407.318c-1.218,0-2.205-0.987-2.205-2.205
							c0-1.218,0.987-2.205,2.205-2.205h407.318c1.218,0,2.205,0.987,2.205,2.205
							C1591.589,1789.421,1590.601,1790.408,1589.384,1790.408z"/>
					</g>
				</g>
			</g>
			<g>
				<g>
					<path style="fill:#E0AA63;" d="M1667.421,917.187c-1.2,0-2.183-0.962-2.204-2.167c-0.021-1.218,0.95-2.222,2.167-2.242
						l194.002-3.287l72.111-101.61c0.403-0.567,1.05-0.912,1.745-0.928l138.896-3.307c1.167-0.086,2.229,0.933,2.257,2.151
						c0.029,1.218-0.934,2.227-2.151,2.256l-137.79,3.281l-72.116,101.618c-0.406,0.572-1.059,0.917-1.76,0.929l-195.117,3.306
						C1667.447,917.187,1667.434,917.187,1667.421,917.187z"/>
					<path style="fill:#E0AA63;" d="M1650.887,804.749c-0.896,0-1.739-0.551-2.068-1.441c-0.422-1.141,0.16-2.41,1.303-2.833
						l178.582-66.141c1.138-0.42,2.41,0.16,2.833,1.303c0.422,1.141-0.16,2.41-1.303,2.833l-178.582,66.141
						C1651.401,804.703,1651.141,804.749,1650.887,804.749z"/>
					<path style="fill:#E0AA63;" d="M1588.054,731.992c-0.613,0-1.222-0.253-1.657-0.749c-0.804-0.915-0.715-2.308,0.2-3.111
						l108.019-94.927l-25.969-74.66c-0.288-0.829-0.058-1.749,0.587-2.345l85.984-79.369c0.898-0.825,2.291-0.768,3.116,0.125
						c0.826,0.895,0.77,2.29-0.125,3.116l-84.922,78.39l25.982,74.697c0.295,0.847,0.047,1.788-0.627,2.38l-109.133,95.905
						C1589.09,731.811,1588.571,731.992,1588.054,731.992z"/>
					<path style="fill:#E0AA63;" d="M1501.915,655.842c-0.091,0-0.183-0.005-0.276-0.017c-1.208-0.15-2.066-1.251-1.915-2.46
						l16.457-132.24c0.07-0.562,0.353-1.076,0.791-1.434l44.752-36.638l7.28-97.54c0.09-1.214,1.151-2.127,2.362-2.035
						c1.214,0.09,2.126,1.148,2.035,2.362l-7.35,98.483c-0.044,0.603-0.335,1.16-0.802,1.543l-44.802,36.679l-16.348,131.364
						C1503.96,655.025,1503.01,655.842,1501.915,655.842z"/>
					<path style="fill:#E0AA63;" d="M1366.153,637.027c-1.218,0-2.205-0.987-2.205-2.205V462.846c0-1.218,0.987-2.205,2.205-2.205
						c1.218,0,2.205,0.987,2.205,2.205v171.976C1368.358,636.04,1367.371,637.027,1366.153,637.027z"/>
					<path style="fill:#E0AA63;" d="M1234.197,669.159c-0.883,0-1.716-0.535-2.055-1.407l-35.063-90.254h-52.173
						c-0.89,0-1.695-0.536-2.036-1.359l-42.607-102.519c-0.467-1.124,0.066-2.415,1.19-2.882c1.125-0.466,2.415,0.065,2.882,1.19
						l42.043,101.16h52.209c0.91,0,1.726,0.559,2.055,1.406l35.61,91.661c0.441,1.136-0.122,2.412-1.256,2.854
						C1234.733,669.11,1234.463,669.159,1234.197,669.159z"/>
					<path style="fill:#E0AA63;" d="M1161.44,758.448c-0.445,0-0.895-0.135-1.283-0.413l-128.975-92.598
						c-0.989-0.711-1.215-2.089-0.506-3.077c0.707-0.989,2.086-1.216,3.077-0.506l128.975,92.598
						c0.989,0.711,1.215,2.089,0.506,3.077C1162.803,758.13,1162.127,758.448,1161.44,758.448z"/>
					<path style="fill:#E0AA63;" d="M1462.386,1449.625c-0.026,0-0.053,0-0.08-0.001c-1.217-0.044-2.168-1.066-2.125-2.282
						l3.261-91.286l-55.088-32.404c-0.66-0.388-1.071-1.089-1.087-1.854l-3.307-158.74c-0.025-1.218,0.942-2.225,2.159-2.251
						c1.262,0.044,2.225,0.941,2.251,2.159l3.281,157.509l55.159,32.447c0.698,0.41,1.115,1.17,1.086,1.979l-3.307,92.598
						C1464.546,1448.689,1463.568,1449.625,1462.386,1449.625z"/>
					<path style="fill:#E0AA63;" d="M1551.676,1307.421c-0.897,0-1.739-0.551-2.068-1.442l-56.221-152.125
						c-0.422-1.142,0.161-2.41,1.304-2.832c1.141-0.423,2.409,0.161,2.833,1.304l56.221,152.125c0.422,1.142-0.161,2.41-1.304,2.832
						C1552.188,1307.377,1551.93,1307.421,1551.676,1307.421z"/>
					<path style="fill:#E0AA63;" d="M1238.274,1437.377c-1.218,0-2.205-0.987-2.205-2.205v-106.807c0-0.537,0.196-1.056,0.552-1.459
						l48.946-55.446l12.963-124.722c0.125-1.211,1.193-2.105,2.421-1.965c1.211,0.126,2.091,1.21,1.965,2.421l-13.036,125.424
						c-0.047,0.456-0.236,0.887-0.54,1.23l-48.861,55.35v105.972C1240.479,1436.389,1239.492,1437.377,1238.274,1437.377z"/>
					<path style="fill:#E0AA63;" d="M2093.744,827.377c-11.55,0-20.946-9.396-20.946-20.946c0-11.549,9.396-20.946,20.946-20.946
						c11.549,0,20.946,9.396,20.946,20.946C2114.69,817.981,2105.293,827.377,2093.744,827.377z M2093.744,789.895
						c-9.119,0-16.536,7.418-16.536,16.536c0,9.119,7.417,16.536,16.536,16.536c9.118,0,16.536-7.418,16.536-16.536
						C2110.28,797.313,2102.862,789.895,2093.744,789.895z"/>
					<path style="fill:#E0AA63;" d="M1460.225,1485.883c-11.549,0-20.946-9.396-20.946-20.946c0-11.549,9.396-20.946,20.946-20.946
						c11.55,0,20.946,9.396,20.946,20.946C1481.171,1476.486,1471.775,1485.883,1460.225,1485.883z M1460.225,1448.401
						c-9.118,0-16.536,7.418-16.536,16.536c0,9.119,7.418,16.536,16.536,16.536c9.119,0,16.536-7.418,16.536-16.536
						C1476.762,1455.818,1469.344,1448.401,1460.225,1448.401z"/>
					<path style="fill:#E0AA63;" d="M1236.069,1472.654c-11.55,0-20.946-9.396-20.946-20.946c0-11.549,9.396-20.946,20.946-20.946
						c11.549,0,20.946,9.396,20.946,20.946C1257.015,1463.257,1247.619,1472.654,1236.069,1472.654z M1236.069,1435.172
						c-9.119,0-16.536,7.418-16.536,16.536c0,9.119,7.418,16.536,16.536,16.536c9.119,0,16.536-7.418,16.536-16.536
						C1252.605,1442.589,1245.188,1435.172,1236.069,1435.172z"/>
					<path style="fill:#E0AA63;" d="M1849.376,750.941c-11.549,0-20.946-9.396-20.946-20.946c0-11.549,9.396-20.946,20.946-20.946
						c11.55,0,20.946,9.396,20.946,20.946C1870.322,741.545,1860.926,750.941,1849.376,750.941z M1849.376,713.46
						c-9.119,0-16.536,7.418-16.536,16.536c0,9.119,7.418,16.536,16.536,16.536c9.119,0,16.536-7.418,16.536-16.536
						C1865.912,720.877,1858.495,713.46,1849.376,713.46z"/>
					<path style="fill:#E0AA63;" d="M1571.202,387.883c-11.549,0-20.946-9.396-20.946-20.946c0-11.549,9.396-20.946,20.946-20.946
						c11.55,0,20.946,9.396,20.946,20.946C1592.147,378.486,1582.751,387.883,1571.202,387.883z M1571.202,350.401
						c-9.119,0-16.536,7.418-16.536,16.536c0,9.119,7.418,16.536,16.536,16.536c9.119,0,16.536-7.418,16.536-16.536
						C1587.738,357.818,1580.32,350.401,1571.202,350.401z"/>
					<path style="fill:#E0AA63;" d="M1363.949,465.787c-11.55,0-20.946-9.396-20.946-20.946s9.396-20.946,20.946-20.946
						c11.549,0,20.946,9.396,20.946,20.946S1375.498,465.787,1363.949,465.787z M1363.949,428.305
						c-9.119,0-16.536,7.418-16.536,16.536c0,9.119,7.418,16.536,16.536,16.536c9.119,0,16.536-7.418,16.536-16.536
						C1380.485,435.722,1373.067,428.305,1363.949,428.305z"/>
					<path style="fill:#E0AA63;" d="M1766.695,486.365c-11.55,0-20.946-9.396-20.946-20.946c0-11.549,9.396-20.946,20.946-20.946
						c11.549,0,20.946,9.396,20.946,20.946C1787.641,476.969,1778.245,486.365,1766.695,486.365z M1766.695,448.883
						c-9.119,0-16.536,7.418-16.536,16.536c0,9.118,7.417,16.536,16.536,16.536c9.119,0,16.536-7.418,16.536-16.536
						C1783.231,456.301,1775.814,448.883,1766.695,448.883z"/>
					<path style="fill:#E0AA63;" d="M1099.37,479.016c-11.549,0-20.946-9.396-20.946-20.946c0-11.549,9.396-20.946,20.946-20.946
						s20.946,9.396,20.946,20.946C1120.316,469.619,1110.92,479.016,1099.37,479.016z M1099.37,441.534
						c-9.119,0-16.536,7.418-16.536,16.536c0,9.119,7.418,16.536,16.536,16.536s16.536-7.418,16.536-16.536
						C1115.906,448.951,1108.489,441.534,1099.37,441.534z"/>
					<path style="fill:#E0AA63;" d="M1018.527,674.509c-11.549,0-20.946-9.396-20.946-20.946c0-11.549,9.396-20.946,20.946-20.946
						c11.549,0,20.946,9.396,20.946,20.946C1039.473,665.113,1030.077,674.509,1018.527,674.509z M1018.527,637.027
						c-9.119,0-16.536,7.418-16.536,16.536c0,9.119,7.418,16.536,16.536,16.536c9.118,0,16.536-7.418,16.536-16.536
						C1035.063,644.445,1027.646,637.027,1018.527,637.027z"/>
					<path style="fill:#E0AA63;" d="M1556.503,1343.305c-11.549,0-20.946-9.396-20.946-20.946s9.396-20.946,20.946-20.946
						s20.946,9.396,20.946,20.946S1568.053,1343.305,1556.503,1343.305z M1556.503,1305.823c-9.119,0-16.536,7.418-16.536,16.536
						s7.418,16.536,16.536,16.536c9.119,0,16.536-7.418,16.536-16.536S1565.622,1305.823,1556.503,1305.823z"/>
				</g>
				<g>
					<g>
						<circle style="fill:#E0AA63;" cx="1405.498" cy="903.666" r="348.402"/>
						<path style="fill:#FFFFFF;" d="M1560.435,1179.618c-0.768,0-1.514-0.402-1.92-1.118c-0.601-1.058-0.229-2.404,0.83-3.005
							c43.982-24.947,81.695-60.64,109.06-103.219c0.658-1.024,2.025-1.321,3.047-0.663c1.025,0.659,1.321,2.023,0.663,3.047
							c-27.75,43.178-65.993,79.371-110.595,104.67C1561.177,1179.526,1560.803,1179.618,1560.435,1179.618z"/>
						<path style="fill:#FFFFFF;" d="M1719.649,891.05c-1.17,0-2.146-0.922-2.2-2.103c-7.74-166.863-144.766-297.573-311.95-297.573
							c-143.824,0-268.459,97.351-303.092,236.74c-0.295,1.183-1.497,1.9-2.672,1.608c-1.182-0.294-1.901-1.49-1.608-2.672
							c35.122-141.359,161.518-240.086,307.372-240.086c81.995,0,159.76,31.215,218.969,87.896
							c59.023,56.502,93.608,132.459,97.386,213.883c0.056,1.217-0.884,2.248-2.1,2.305
							C1719.719,891.049,1719.684,891.05,1719.649,891.05z"/>
						<circle style="fill:#EFBC73;" cx="1405.498" cy="903.666" r="289.336"/>
						<path style="fill:#FFFFFF;" d="M1405.499,1254.273c-193.327,0-350.608-157.282-350.608-350.607
							s157.282-350.607,350.608-350.607c193.325,0,350.607,157.282,350.607,350.607S1598.824,1254.273,1405.499,1254.273z
							 M1405.499,557.469c-190.895,0-346.199,155.303-346.199,346.198s155.304,346.198,346.199,346.198
							s346.198-155.303,346.198-346.198S1596.394,557.469,1405.499,557.469z"/>
						<path style="fill:#FFFFFF;" d="M1405.499,1195.207c-160.757,0-291.542-130.785-291.542-291.541
							c0-160.756,130.785-291.541,291.542-291.541c160.756,0,291.541,130.785,291.541,291.541
							C1697.04,1064.422,1566.255,1195.207,1405.499,1195.207z M1405.499,616.535c-158.325,0-287.133,128.806-287.133,287.131
							c0,158.325,128.807,287.131,287.133,287.131c158.325,0,287.131-128.807,287.131-287.131
							C1692.63,745.341,1563.824,616.535,1405.499,616.535z"/>
					</g>
					<g>
						<g>
							<path style="fill:#FFFFFF;" d="M1287.514,1063.19V736.056h117.508c42.088,0,74.105,7.716,96.051,23.143
								c21.941,15.428,32.914,37.824,32.914,67.177c0,16.93-3.896,31.384-11.683,43.364c-7.789,11.987-19.248,20.821-34.375,26.513
								c17.076,4.494,30.182,12.886,39.319,25.164c9.134,12.285,13.706,27.264,13.706,44.935c0,32.057-10.15,56.137-30.444,72.237
								c-20.299,16.104-50.368,24.303-90.21,24.601H1287.514z M1366.378,872.437h41.115c17.224-0.148,29.507-3.304,36.849-9.465
								c7.336-6.158,11.009-15.246,11.009-27.267c0-13.819-3.971-23.771-11.908-29.857c-7.942-6.083-20.749-9.126-38.42-9.126
								h-38.645V872.437z M1366.378,924.113v78.412h51.677c14.229,0,25.164-3.256,32.803-9.771
								c7.638-6.518,11.458-15.692,11.458-27.525c0-27.26-13.558-40.966-40.667-41.117H1366.378z"/>
						</g>
						<path style="fill:#FFFFFF;" d="M1410.638,1099.081h33.16v-55.54c-11.074-0.467-22.117-1.119-33.16-1.864V1099.081z"/>
						<path style="fill:#FFFFFF;" d="M1410.638,699.708v61.065c11.053,0.316,22.107,0.625,33.16,0.741v-61.806H1410.638z"/>
						<path style="fill:#FFFFFF;" d="M1337.336,1100.248h33.16v-61.468c-10.998-0.796-22.043-1.549-33.16-2.171V1100.248z"/>
						<path style="fill:#FFFFFF;" d="M1337.336,700.875v60.23c11.053-0.753,22.107-1.043,33.16-1.055v-59.176H1337.336z"/>
					</g>
				</g>
			</g>
		</g>
		<g>
			<polygon style="fill:#363E44;" points="1019.484,2160.528 407.339,2160.528 483.272,1635.627 928.976,1562.184 			"/>
			<g>
				<path style="fill:#FFFFFF;" d="M767.578,1077.133c0,0,61.187-84.074,171.705,27.978
					c110.518,112.051,163.675,297.331,163.675,297.331l-168.23,64.712L767.578,1077.133z"/>
				<path style="fill:#ff6900;" d="M465.406,1159.239c70.4-32.332,186.303-77.297,313.213-92.627l242.458,575.992l-485.826,87.04
					l-51.987-100.183l-25.578,114.079l-49.352,16.795l-13.183-491.376C395.149,1221.807,422.555,1178.918,465.406,1159.239z"/>
				<path style="fill:#FFFFFF;" d="M506.096,1150.97c0,0,101.661-53.058,206.05-67.136l7.037,198.261L506.096,1150.97z"/>
				<polygon style="fill:#D87355;" points="1165.468,1587.601 903.555,1587.601 1021.984,1229.451 1283.898,1229.451 				"/>
				<g>
					<path style="fill:#E2A18D;" d="M1219.249,1446.364c18.628,5.257,23.849,14.698,21.608,23.894
						c-2.242,9.195-11.098,14.663-29.726,9.406c-18.628-5.257-39.973-19.249-37.731-28.444
						C1175.641,1442.024,1200.621,1441.106,1219.249,1446.364z"/>
					<path style="fill:#E2A18D;" d="M1222.919,1413.414c21.59,6.094,27.642,17.036,25.044,27.693
						c-2.598,10.658-12.863,16.995-34.453,10.902c-21.59-6.093-46.329-22.31-43.731-32.967
						C1172.377,1408.384,1201.329,1407.321,1222.919,1413.414z"/>
					<path style="fill:#E2A18D;" d="M1232.25,1393.032c18.628,5.257,27.484-0.21,29.725-9.406
						c2.242-9.195-2.98-18.636-21.608-23.894c-18.628-5.257-43.607-4.34-45.849,4.855
						C1192.277,1373.783,1213.622,1387.775,1232.25,1393.032z"/>
					<path style="fill:#E2A18D;" d="M1220.417,1423.678c21.59,6.094,31.854-0.244,34.452-10.901
						c2.598-10.658-3.454-21.6-25.044-27.693c-21.59-6.093-50.542-5.03-53.14,5.627
						C1174.088,1401.368,1198.827,1417.585,1220.417,1423.678z"/>
				</g>
				<g>
					<path style="fill:#FFFFFF;" d="M867.198,1293.346c0,0-10.696-30.841-44.428,0.824
						c-33.732,31.665-100.258,106.837-144.831,96.708c-44.573-10.128-128.743-269.825-267.487-201.942
						c-138.744,67.883-28.792,284.645,33.537,357.093c62.329,72.449,165.601,139.48,281.934,126.23
						c116.333-13.25,207.222-220.535,219.872-246.469C968.525,1379.191,867.198,1293.346,867.198,1293.346z"/>
					<g>
						<path style="fill:#E2A18D;" d="M870.568,1267.251c0,0,78.471-129.761,131.473-112.186s-16.337,22.571-12.991,41.127
							c0,0,34.102,7.595,26.773,28.361c0,0,15.701,12.812,14.653,23.086c0,0,33.629,27.328,16.963,41.172
							c-14.198,11.795-19.965-12.047-35.362-9.281c-15.397,2.766-20.898,64.614-52.037,66.536l-20.757,46.668
							C939.283,1392.735,865.364,1310.419,870.568,1267.251z"/>
						<path style="fill:#363E44;" d="M997.937,1251.479c-0.566,0-1.133-0.216-1.563-0.65c-0.859-0.863-0.855-2.26,0.009-3.118
							c8.38-8.332,25.33-4.123,26.049-3.939c1.179,0.301,1.891,1.501,1.59,2.68c-0.3,1.18-1.5,1.889-2.68,1.593
							c-0.153-0.04-15.249-3.773-21.85,2.793C999.062,1251.265,998.499,1251.479,997.937,1251.479z"/>
						<path style="fill:#363E44;" d="M984.656,1226.752c-0.632,0-1.259-0.269-1.695-0.791c-0.775-0.931-0.659-2.309,0.267-3.091
							c0.388-0.326,9.643-7.914,24.45-1.699c1.123,0.472,1.65,1.763,1.179,2.886c-0.471,1.122-1.761,1.651-2.886,1.179
							c-12.22-5.131-19.6,0.759-19.909,1.013C985.651,1226.587,985.151,1226.752,984.656,1226.752z"/>
					</g>
					<path style="fill:#FFFFFF;" d="M877.92,1250.361l-21.626,33.78c0,0,35.04,88.551,82.989,118.302l17.493-34.863
						C956.776,1367.579,902.037,1287.658,877.92,1250.361z"/>
					<path style="fill:#E6D0BE;" d="M934.726,1397.288c-0.271,0-0.548-0.051-0.816-0.158c-40.747-16.246-61.654-73.38-62.525-75.805
						c-0.411-1.147,0.184-2.408,1.331-2.82c1.138-0.413,2.407,0.183,2.82,1.33c0.207,0.575,21.119,57.693,60.009,73.199
						c1.13,0.451,1.682,1.733,1.23,2.865C936.431,1396.762,935.602,1397.288,934.726,1397.288z"/>
					<path style="fill:#E6D0BE;" d="M642.231,1443.26c-1.221,0-2.433-0.141-3.591-0.432c-3.225-0.807-5.793-2.72-7.229-5.384
						c-2.547-4.726-1.398-10.927,3.233-17.46c6.564-9.256,15.997-16.636,26.562-20.781c1.139-0.443,2.413,0.116,2.858,1.248
						c0.445,1.134-0.114,2.414-1.248,2.858c-9.775,3.834-18.503,10.661-24.575,19.227c-2.092,2.949-5.256,8.536-2.949,12.815
						c1.078,1.999,2.997,2.843,4.418,3.2c2.864,0.717,6.328,0.116,8.82-1.536c4.818-3.194,7.492-8.999,9.851-14.12
						c0.508-1.107,1.817-1.59,2.925-1.08c1.106,0.509,1.589,1.818,1.08,2.925c-2.475,5.375-5.556,12.064-11.418,15.951
						C648.443,1442.364,645.305,1443.26,642.231,1443.26z"/>
					<path style="fill:#E6D0BE;" d="M694.149,1442.2c-0.857,0-1.672-0.503-2.029-1.341l-13.289-31.16
						c-0.478-1.12,0.043-2.415,1.164-2.893c1.119-0.479,2.415,0.042,2.893,1.164l13.289,31.16c0.478,1.12-0.043,2.415-1.164,2.893
						C694.73,1442.143,694.437,1442.2,694.149,1442.2z"/>
					<path style="fill:#E6D0BE;" d="M877.257,1292.159c-4.905,0-8.895-3.99-8.895-8.895c0-4.905,3.99-8.896,8.895-8.896
						c4.905,0,8.895,3.991,8.895,8.896C886.152,1288.169,882.162,1292.159,877.257,1292.159z M877.257,1278.778
						c-2.473,0-4.485,2.012-4.485,4.486c0,2.473,2.012,4.485,4.485,4.485s4.485-2.012,4.485-4.485
						C881.742,1280.79,879.73,1278.778,877.257,1278.778z"/>
					<path style="fill:#E6D0BE;" d="M942.974,1397.287c-0.332,0-0.67-0.075-0.986-0.235c-1.088-0.546-1.529-1.871-0.982-2.958
						l11.115-22.151c0.545-1.088,1.869-1.529,2.958-0.982c1.088,0.546,1.529,1.871,0.982,2.958l-11.115,22.151
						C944.559,1396.843,943.782,1397.287,942.974,1397.287z"/>
				</g>
				<g>
					<path style="fill:#E0AA63;" d="M578.148,1170.851c-6.902,0-14.332-5.82-17.996-14.781c-4.455-10.902-1.674-22.391,6.198-25.608
						c3.961-1.618,8.511-0.959,12.817,1.852c4.05,2.647,7.439,6.938,9.543,12.084c4.456,10.902,1.676,22.39-6.197,25.609l0,0
						C581.111,1170.577,579.642,1170.851,578.148,1170.851z M581.678,1167.964h0.021H581.678z M570.794,1134.01
						c-0.97,0-1.903,0.176-2.775,0.533c-5.527,2.259-7.259,11.352-3.784,19.857c3.477,8.506,11.09,13.781,16.609,11.523
						c5.527-2.259,7.259-11.353,3.783-19.857c-1.768-4.327-4.564-7.9-7.873-10.062
						C574.733,1134.684,572.691,1134.01,570.794,1134.01z"/>
					<path style="fill:#E0AA63;" d="M595.291,1188.902c-4.829,0-10.248-1.787-15.059-5.349c-9.464-7.009-13.047-18.272-7.986-25.108
						c5.063-6.834,16.88-6.691,26.345,0.314c4.468,3.308,7.79,7.652,9.355,12.231c1.663,4.866,1.177,9.439-1.368,12.877l0,0
						C604.089,1187.228,599.966,1188.902,595.291,1188.902z M583.489,1157.807c-3.273,0-6.077,1.072-7.698,3.262
						c-3.553,4.798-0.317,13.471,7.067,18.939c7.383,5.466,16.623,6.032,20.177,1.234l0,0c1.658-2.238,1.919-5.372,0.74-8.826
						c-1.279-3.74-4.051-7.333-7.807-10.113C591.952,1159.33,587.388,1157.807,583.489,1157.807z"/>
					<path style="fill:#E0AA63;" d="M618.972,1200.41c-2.41,0-4.901-0.324-7.372-0.972c-11.391-2.992-18.902-12.118-16.743-20.344
						c1.086-4.137,4.347-7.38,9.182-9.129c4.552-1.647,10.02-1.776,15.395-0.365c5.378,1.411,10.075,4.21,13.229,7.88
						c3.351,3.899,4.599,8.325,3.513,12.462c-1.086,4.137-4.347,7.38-9.182,9.13C624.534,1199.963,621.807,1200.41,618.972,1200.41z
						 M612.054,1173.034c-2.32,0-4.533,0.359-6.514,1.077c-3.431,1.242-5.71,3.41-6.417,6.103
						c-1.516,5.775,4.711,12.626,13.597,14.959c4.521,1.187,9.056,1.098,12.773-0.247c3.431-1.241,5.71-3.41,6.417-6.103l0,0
						c0.707-2.694-0.213-5.702-2.591-8.469c-2.577-2.997-6.485-5.302-11.005-6.489
						C616.203,1173.311,614.087,1173.034,612.054,1173.034z"/>
					<path style="fill:#E0AA63;" d="M641.193,1198.89c-3.014,0-5.906-0.499-8.491-1.488c-4.803-1.838-8.003-5.14-9.014-9.295
						c-1.011-4.156,0.318-8.56,3.74-12.398c3.22-3.612,7.969-6.324,13.37-7.637c5.403-1.315,10.867-1.083,15.385,0.645
						c4.803,1.839,8.003,5.14,9.014,9.296c2.009,8.265-5.666,17.252-17.11,20.035C645.775,1198.61,643.45,1198.89,641.193,1198.89z
						 M647.702,1171.637c-1.907,0-3.883,0.239-5.862,0.72c-4.541,1.104-8.491,3.336-11.121,6.287
						c-2.429,2.724-3.404,5.714-2.746,8.421c0.658,2.705,2.897,4.915,6.305,6.219c3.694,1.415,8.229,1.585,12.767,0.479
						c8.927-2.171,15.278-8.906,13.867-14.708c-0.658-2.707-2.897-4.914-6.305-6.219
						C652.523,1172.038,650.172,1171.637,647.702,1171.637z"/>
					<path style="fill:#E0AA63;" d="M665.58,1189.204c-4.823,0.001-9.063-1.75-11.553-5.243c-4.936-6.927-1.149-18.122,8.443-24.958
						c4.528-3.225,9.687-5.043,14.525-5.115c5.087-0.097,9.339,1.799,11.822,5.283c2.483,3.483,2.885,8.064,1.134,12.898
						c-1.648,4.55-5.049,8.831-9.577,12.057C675.62,1187.514,670.319,1189.204,665.58,1189.204z M677.295,1158.296
						c-0.077,0-0.156,0-0.235,0.001c-3.952,0.059-8.225,1.586-12.032,4.298c-7.481,5.332-10.875,13.945-7.41,18.807
						c3.465,4.864,12.713,4.468,20.195-0.866c3.807-2.712,6.643-6.252,7.99-9.968c1.242-3.431,1.037-6.57-0.579-8.838v-0.001
						C683.643,1159.51,680.834,1158.296,677.295,1158.296z"/>
					<path style="fill:#E0AA63;" d="M686.029,1167.733c-1.123,0-2.235-0.159-3.322-0.482c-8.153-2.42-12.06-13.574-8.708-24.866
						c3.351-11.289,12.708-18.513,20.864-16.087c0.001,0,0.001,0,0.001,0c8.153,2.42,12.06,13.575,8.708,24.866
						c-1.581,5.33-4.528,9.937-8.296,12.973C692.334,1166.507,689.142,1167.733,686.029,1167.733z M691.602,1130.237
						c-5.271,0-11.061,5.603-13.376,13.403c-2.614,8.807,0.013,17.684,5.737,19.384c2.672,0.792,5.706-0.033,8.547-2.322
						c3.079-2.479,5.506-6.313,6.836-10.794c2.614-8.807-0.013-17.684-5.737-19.384l0,0
						C692.954,1130.331,692.282,1130.237,691.602,1130.237z"/>
					<path style="fill:#E0AA63;" d="M693.349,1138.993c-8.059,0-15.25-8.651-16.288-19.899c-0.511-5.536,0.514-10.908,2.884-15.126
						c2.519-4.483,6.253-7.168,10.512-7.561l0,0c4.253-0.396,8.42,1.561,11.719,5.508c3.103,3.713,5.093,8.807,5.604,14.343
						c1.084,11.727-4.925,21.904-13.395,22.687C694.039,1138.977,693.692,1138.993,693.349,1138.993z M691.51,1100.768
						c-0.216,0-0.432,0.01-0.648,0.029l0,0c-2.773,0.256-5.285,2.149-7.073,5.331c-1.937,3.446-2.767,7.906-2.337,12.56
						c0.845,9.149,6.57,16.425,12.528,15.865c5.945-0.55,10.254-8.743,9.409-17.891c-0.43-4.653-2.063-8.887-4.597-11.92
						C696.633,1102.16,694.07,1100.768,691.51,1100.768z M690.659,1098.602h0.022H690.659z"/>
				</g>
				<path style="fill:#FFFFFF;" d="M739.111,1323.977c-0.41,0-0.819-0.114-1.179-0.341l-246.266-155.839
					c-1.029-0.651-1.335-2.013-0.685-3.042c0.651-1.028,2.012-1.337,3.042-0.685l242.771,153.628l-6.068-225.008
					c-0.033-1.216,0.927-2.231,2.144-2.263c1.26-0.055,2.231,0.927,2.263,2.145l6.18,229.142c0.023,0.814-0.406,1.574-1.114,1.977
					C739.862,1323.881,739.486,1323.977,739.111,1323.977z"/>
			</g>
			<g>
				<path style="fill:#B77250;" d="M425.829,1062.383c0,0,225.936,107.459,371.101-82.715c0,0-84.872-87.25-153.407-115.137
					C574.988,836.644,510.052,877.029,425.829,1062.383z"/>
				<path style="fill:#B77250;" d="M558.063,882.223c0,0-19.316-102.394-105.759-66.161c-60.805,25.486-21.773,82.705,13.658,88.874
					C502.502,911.297,558.063,882.223,558.063,882.223z"/>
				<path style="fill:#84524D;" d="M558.067,884.428c-0.093,0-0.184-0.005-0.278-0.017c-1.208-0.152-2.065-1.254-1.913-2.462
					c0.062-0.499,5.969-49.974-17.451-66.635c-12.158-8.649-30.387-7.077-54.185,4.677c-1.096,0.538-2.415,0.091-2.953-1
					c-0.539-1.092-0.092-2.414,1-2.953c25.368-12.53,45.117-13.981,58.701-4.312c25.559,18.193,19.532,68.635,19.263,70.774
					C560.111,883.613,559.162,884.428,558.067,884.428z"/>
				<path style="fill:#84524D;" d="M474.882,1065.928c-0.064,0-0.128-0.002-0.194-0.009c-1.212-0.106-2.11-1.175-2.004-2.388
					c7.433-85.37,48.719-126.466,49.135-126.871c0.872-0.85,2.265-0.831,3.117,0.041c0.849,0.871,0.832,2.267-0.039,3.117
					c-0.405,0.395-40.539,40.473-47.82,124.096C476.976,1065.063,476.014,1065.928,474.882,1065.928z"/>
				<path style="fill:#84524D;" d="M493.557,894.397c-14.244,0-27.001-4.104-38.131-12.295
					c-17.111-12.595-24.291-30.927-24.262-32.977c0.017-1.218,0.992-2.2,2.236-2.174c1.116,0.016,2.028,0.859,2.158,1.939
					c0.305,0.957,7.488,21.468,28.036,33.288c16.074,9.247,35.498,10.25,57.733,2.98c1.156-0.378,2.401,0.253,2.781,1.411
					c0.378,1.157-0.254,2.402-1.411,2.781C512.401,892.716,502.675,894.397,493.557,894.397z"/>
				<g>
					<path style="fill:#E2A18D;" d="M702.463,1026.076c-15.702,20.084-83.418-1.547-83.418-1.547l-52.268-57.742
						c-10.246-34.369,9.309-70.537,43.679-80.783c34.37-10.246,70.537,9.31,80.783,43.679
						C691.238,929.683,718.455,1005.619,702.463,1026.076z"/>
					<path style="fill:#E2A18D;" d="M668.925,1118.246l-5.541-145.249l-78.61,3.493l5.541,145.249
						c0.964,21.708,19.344,38.523,41.052,37.559C653.075,1158.333,669.89,1139.953,668.925,1118.246z"/>
					<path style="fill:#E2A18D;" d="M688.965,948.178c0,0,22.907,13.084,23.417,18.189c0.61,6.093-17.786,15.406-17.786,15.406
						S689.442,948.084,688.965,948.178z"/>
					<g>
						<path style="fill:#FFFFFF;" d="M632.732,970.612c0,0,5.319-11.14,15.894-18.88c2.25-1.647,11.184,19.465,8.302,20.008
							C644.257,974.132,632.732,970.612,632.732,970.612z"/>
						<path style="fill:#363E44;" d="M665.631,969.081c15.535-6.834,23.358-23.218,23.358-23.218s-17.364-5.303-32.898,1.531
							c-2.72,1.197-5.19,2.696-7.437,4.339c-0.936,7.893,2.399,15.365,8.262,20.007C659.802,971.197,662.748,970.35,665.631,969.081
							z"/>
					</g>
					<path style="fill:#363E44;" d="M679.794,999.723c-1.056,0-2.121-0.149-3.163-0.454c-4.097-1.205-7.219-4.716-7.954-8.947
						c-0.208-1.199,0.595-2.341,1.796-2.549c1.201-0.202,2.34,0.596,2.549,1.796c0.449,2.588,2.353,4.736,4.852,5.47
						c2.588,0.761,5.417-0.082,7.195-2.15c0.794-0.924,2.188-1.03,3.109-0.237c0.924,0.793,1.03,2.185,0.237,3.109
						C686.222,998.313,683.048,999.723,679.794,999.723z"/>
					<path style="fill:#363E44;" d="M669.366,1037.682c-0.045,0-0.092-0.001-0.138-0.004c-23.64-1.456-50.268-9.89-50.534-9.975
						c-1.161-0.37-1.8-1.612-1.43-2.771c0.37-1.158,1.612-1.799,2.771-1.43c0.262,0.084,26.381,8.354,49.464,9.775
						c1.216,0.074,2.14,1.121,2.065,2.336C671.492,1036.782,670.522,1037.682,669.366,1037.682z"/>
				</g>
				<g>
					<path style="fill:#B77250;" d="M563.531,1006.223c-18.543-8.886-24.241-52.601-12.848-80.602
						c14.688-36.1,57.286-57.412,91.705-54.507c8.461,0.714,27.795,4.851,34.218,16.911c5,9.39-4.528,28.902-20.67,34.511
						c-22.695,7.886-54.5,2.635-42.745,28.496C648.811,1029.397,583.906,1015.988,563.531,1006.223z"/>
				</g>
			</g>
		</g>
		<g>
			<g>
				<ellipse style="fill:#E0AA63;" cx="1506.098" cy="1957.822" rx="142.149" ry="45.011"/>
				<rect x="1363.949" y="1912.982" style="fill:#E0AA63;" width="284.298" height="46.375"/>
				<ellipse style="fill:#EFBC73;" cx="1506.098" cy="1913.863" rx="142.149" ry="45.011"/>
				<path style="fill:#FFFFFF;" d="M1522.844,1961.078c-80.946,0-144.354-20.739-144.354-47.215s63.408-47.216,144.354-47.216
					c80.945,0,144.353,20.74,144.353,47.216S1603.79,1961.078,1522.844,1961.078z M1522.844,1871.056
					c-75.857,0-139.945,19.603-139.945,42.807s64.087,42.806,139.945,42.806s139.944-19.602,139.944-42.806
					S1598.702,1871.056,1522.844,1871.056z"/>
			</g>
			<g>
				<ellipse style="fill:#E0AA63;" cx="1535.404" cy="1884.556" rx="142.149" ry="45.011"/>
				<rect x="1393.255" y="1839.716" style="fill:#E0AA63;" width="284.298" height="46.375"/>
				<ellipse style="fill:#EFBC73;" cx="1535.404" cy="1840.597" rx="142.149" ry="45.011"/>
				<path style="fill:#FFFFFF;" d="M1552.151,1887.812c-80.946,0-144.354-20.739-144.354-47.215
					c0-26.476,63.408-47.216,144.354-47.216c80.945,0,144.353,20.74,144.353,47.216
					C1696.504,1867.073,1633.096,1887.812,1552.151,1887.812z M1552.151,1797.79c-75.857,0-139.945,19.603-139.945,42.807
					s64.087,42.806,139.945,42.806c75.857,0,139.944-19.602,139.944-42.806S1628.008,1797.79,1552.151,1797.79z"/>
			</g>
			<g>
				<ellipse style="fill:#E0AA63;" cx="1506.098" cy="1811.29" rx="142.149" ry="45.011"/>
				<rect x="1363.949" y="1766.45" style="fill:#E0AA63;" width="284.298" height="46.375"/>
				<ellipse style="fill:#EFBC73;" cx="1506.098" cy="1767.33" rx="142.149" ry="45.011"/>
				<path style="fill:#FFFFFF;" d="M1522.844,1814.546c-80.946,0-144.354-20.739-144.354-47.215s63.408-47.216,144.354-47.216
					c80.945,0,144.353,20.74,144.353,47.216S1603.79,1814.546,1522.844,1814.546z M1522.844,1724.524
					c-75.857,0-139.945,19.603-139.945,42.807s64.087,42.806,139.945,42.806s139.944-19.602,139.944-42.806
					S1598.702,1724.524,1522.844,1724.524z"/>
			</g>
			<g>
				<ellipse style="fill:#E0AA63;" cx="1737.7" cy="2075.295" rx="142.149" ry="45.011"/>
				<rect x="1595.551" y="2030.455" style="fill:#E0AA63;" width="284.298" height="46.375"/>
				<ellipse style="fill:#EFBC73;" cx="1737.7" cy="2031.336" rx="142.149" ry="45.011"/>
				<path style="fill:#FFFFFF;" d="M1754.446,2078.552c-80.945,0-144.353-20.74-144.353-47.216
					c0-26.476,63.408-47.215,144.353-47.215c80.946,0,144.354,20.739,144.354,47.215
					C1898.8,2057.811,1835.392,2078.552,1754.446,2078.552z M1754.446,1988.53c-75.857,0-139.944,19.602-139.944,42.806
					c0,23.203,64.086,42.807,139.944,42.807c75.857,0,139.945-19.603,139.945-42.807
					C1894.391,2008.132,1830.303,1988.53,1754.446,1988.53z"/>
			</g>
			<g>
				<ellipse style="fill:#E0AA63;" cx="1767.006" cy="2001.785" rx="142.149" ry="44.887"/>
				<rect x="1624.858" y="1957.068" style="fill:#E0AA63;" width="284.298" height="46.247"/>
				<ellipse style="fill:#EFBC73;" cx="1767.006" cy="1957.946" rx="142.149" ry="44.887"/>
				<path style="fill:#FFFFFF;" d="M1783.752,2005.038c-80.945,0-144.353-20.685-144.353-47.091
					c0-26.407,63.408-47.093,144.353-47.093c80.946,0,144.354,20.685,144.354,47.093
					C1928.107,1984.353,1864.699,2005.038,1783.752,2005.038z M1783.752,1915.264c-75.857,0-139.943,19.546-139.943,42.683
					c0,23.135,64.086,42.682,139.943,42.682c75.857,0,139.945-19.546,139.945-42.682
					C1923.697,1934.81,1859.61,1915.264,1783.752,1915.264z"/>
			</g>
			<g>
				<ellipse style="fill:#E0AA63;" cx="1552.15" cy="1746.134" rx="142.149" ry="45.011"/>
				<rect x="1410.002" y="1701.293" style="fill:#E0AA63;" width="284.298" height="46.375"/>
				<ellipse style="fill:#EFBC73;" cx="1552.15" cy="1702.174" rx="142.149" ry="45.011"/>
				<path style="fill:#FFFFFF;" d="M1568.897,1749.39c-80.945,0-144.353-20.739-144.353-47.215s63.408-47.216,144.353-47.216
					c80.946,0,144.354,20.74,144.354,47.216S1649.843,1749.39,1568.897,1749.39z M1568.897,1659.368
					c-75.858,0-139.944,19.603-139.944,42.807s64.086,42.806,139.944,42.806c75.857,0,139.945-19.602,139.945-42.806
					S1644.754,1659.368,1568.897,1659.368z"/>
			</g>
			<g>
				<ellipse style="fill:#E0AA63;" cx="1887.738" cy="1957.822" rx="142.149" ry="45.011"/>
				<rect x="1745.589" y="1912.982" style="fill:#E0AA63;" width="284.298" height="46.375"/>
				<ellipse style="fill:#EFBC73;" cx="1887.738" cy="1913.863" rx="142.149" ry="45.011"/>
				<path style="fill:#FFFFFF;" d="M1904.485,1961.078c-80.946,0-144.354-20.739-144.354-47.215s63.408-47.216,144.354-47.216
					c80.945,0,144.353,20.74,144.353,47.216S1985.43,1961.078,1904.485,1961.078z M1904.485,1871.056
					c-75.857,0-139.945,19.603-139.945,42.807s64.087,42.806,139.945,42.806c75.857,0,139.944-19.602,139.944-42.806
					S1980.342,1871.056,1904.485,1871.056z"/>
			</g>
			<g>
				<ellipse style="fill:#E0AA63;" cx="1897.962" cy="1884.556" rx="142.149" ry="45.011"/>
				<rect x="1755.813" y="1839.716" style="fill:#E0AA63;" width="284.298" height="46.375"/>
				<ellipse style="fill:#EFBC73;" cx="1897.962" cy="1840.597" rx="142.149" ry="45.011"/>
				<path style="fill:#FFFFFF;" d="M1914.709,1887.812c-80.946,0-144.354-20.739-144.354-47.215
					c0-26.476,63.408-47.216,144.354-47.216c80.945,0,144.353,20.74,144.353,47.216
					C2059.062,1867.073,1995.654,1887.812,1914.709,1887.812z M1914.709,1797.79c-75.857,0-139.945,19.603-139.945,42.807
					s64.087,42.806,139.945,42.806s139.944-19.602,139.944-42.806S1990.566,1797.79,1914.709,1797.79z"/>
			</g>
			<g>
				<ellipse style="fill:#E0AA63;" cx="1925.902" cy="1811.29" rx="142.149" ry="45.011"/>
				<rect x="1783.753" y="1766.45" style="fill:#E0AA63;" width="284.298" height="46.375"/>
				<ellipse style="fill:#EFBC73;" cx="1925.902" cy="1767.33" rx="142.149" ry="45.011"/>
				<path style="fill:#FFFFFF;" d="M1942.648,1814.546c-80.945,0-144.353-20.739-144.353-47.215s63.408-47.216,144.353-47.216
					c80.946,0,144.354,20.74,144.354,47.216S2023.594,1814.546,1942.648,1814.546z M1942.648,1724.524
					c-75.857,0-139.944,19.603-139.944,42.807s64.086,42.806,139.944,42.806s139.945-19.602,139.945-42.806
					S2018.505,1724.524,1942.648,1724.524z"/>
			</g>
			<g>
				<ellipse style="fill:#E0AA63;" cx="1895.627" cy="1746.134" rx="142.149" ry="45.011"/>
				<rect x="1753.478" y="1701.293" style="fill:#E0AA63;" width="284.298" height="46.375"/>
				<ellipse style="fill:#EFBC73;" cx="1895.627" cy="1702.174" rx="142.149" ry="45.011"/>
				<path style="fill:#FFFFFF;" d="M1912.373,1749.39c-80.945,0-144.353-20.739-144.353-47.215s63.408-47.216,144.353-47.216
					c80.946,0,144.354,20.74,144.354,47.216S1993.319,1749.39,1912.373,1749.39z M1912.373,1659.368
					c-75.857,0-139.944,19.603-139.944,42.807s64.086,42.806,139.944,42.806s139.945-19.602,139.945-42.806
					S1988.23,1659.368,1912.373,1659.368z"/>
			</g>
			<g>
				
					<ellipse transform="matrix(0.7104 -0.7038 0.7038 0.7104 -830.7282 1723.954)" style="fill:#E0AA63;" cx="1679.589" cy="1871.48" rx="45.011" ry="142.149"/>
				
					<rect x="1552.823" y="1833.054" transform="matrix(0.7038 0.7104 -0.7104 0.7038 1820.8455 -654.2798)" style="fill:#E0AA63;" width="284.298" height="46.375"/>
				
					<ellipse transform="matrix(0.7104 -0.7038 0.7038 0.7104 -799.9125 1736.9747)" style="fill:#EFBC73;" cx="1710.819" cy="1840.543" rx="45.011" ry="142.149"/>
				<path style="fill:#FFFFFF;" d="M1808.521,1960.459c-26.624,0-73.808-28.706-119.461-74.791
					c-56.966-57.506-86.856-117.149-68.047-135.783c18.808-18.632,78.168,11.821,135.135,69.326
					c26.877,27.13,48.813,55.979,61.768,81.232c13.33,25.983,15.561,45.356,6.279,54.55
					C1820.459,1958.694,1815.12,1960.459,1808.521,1960.459z M1636.733,1748.721c-5.378,0-9.674,1.383-12.616,4.298
					c-16.483,16.329,14.692,75.655,68.077,129.547c53.386,53.892,112.412,85.621,128.899,69.295l0,0
					c7.689-7.617,5.101-25.624-7.099-49.405c-12.755-24.861-34.411-53.323-60.978-80.141
					C1709.157,1778.042,1661.49,1748.721,1636.733,1748.721z"/>
			</g>
			<g>
				<ellipse style="fill:#E0AA63;" cx="1926.231" cy="1671.228" rx="142.149" ry="45.011"/>
				<rect x="1784.083" y="1626.388" style="fill:#E0AA63;" width="284.298" height="46.375"/>
				<ellipse style="fill:#EFBC73;" cx="1926.231" cy="1627.269" rx="142.149" ry="45.011"/>
				<path style="fill:#FFFFFF;" d="M1942.978,1674.484c-80.945,0-144.353-20.739-144.353-47.215s63.408-47.216,144.353-47.216
					c80.946,0,144.354,20.74,144.354,47.216S2023.924,1674.484,1942.978,1674.484z M1942.978,1584.462
					c-75.857,0-139.944,19.603-139.944,42.807c0,23.203,64.086,42.806,139.944,42.806s139.945-19.602,139.945-42.806
					C2082.922,1604.066,2018.835,1584.462,1942.978,1584.462z"/>
			</g>
			<g>
				<ellipse style="fill:#E0AA63;" cx="1972.284" cy="1606.072" rx="142.149" ry="45.011"/>
				<rect x="1830.135" y="1561.232" style="fill:#E0AA63;" width="284.298" height="46.375"/>
				<ellipse style="fill:#EFBC73;" cx="1972.284" cy="1562.112" rx="142.149" ry="45.011"/>
				<path style="fill:#FFFFFF;" d="M1989.031,1609.328c-80.946,0-144.354-20.739-144.354-47.215s63.408-47.216,144.354-47.216
					c80.945,0,144.353,20.74,144.353,47.216S2069.976,1609.328,1989.031,1609.328z M1989.031,1519.306
					c-75.857,0-139.945,19.603-139.945,42.807s64.087,42.806,139.945,42.806c75.857,0,139.943-19.602,139.943-42.806
					S2064.888,1519.306,1989.031,1519.306z"/>
			</g>
		</g>
		<g>
			<g>
				<path style="fill:#FFFFFF;" d="M1980.876,1165.068h-11.843c-1.061-5.773-2.573-11.387-4.495-16.808l10.249-5.917l-20.04-34.711
					l-10.273,5.931c-3.77-4.413-7.881-8.525-12.294-12.294l5.931-10.273l-34.711-20.04l-5.917,10.25
					c-5.421-1.922-11.035-3.435-16.808-4.496v-11.843h-40.081v11.843c-5.773,1.061-11.387,2.573-16.808,4.496l-5.917-10.25
					l-34.711,20.04l5.931,10.273c-4.413,3.77-8.525,7.881-12.294,12.294l-10.273-5.931l-20.04,34.711l10.249,5.917
					c-1.922,5.421-3.435,11.035-4.495,16.808h-11.843l0,0v40.081h11.843c1.06,5.773,2.573,11.387,4.495,16.808l-10.249,5.918
					l20.04,34.711l10.273-5.931c3.77,4.413,7.881,8.525,12.294,12.294l-5.931,10.273l34.711,20.04h0l5.917-10.25
					c5.421,1.923,11.035,3.435,16.808,4.496v11.843h40.081v-11.843c5.773-1.061,11.387-2.573,16.808-4.496l5.917,10.25h0
					l34.711-20.04l-5.931-10.273c4.413-3.77,8.525-7.881,12.294-12.294l10.273,5.931l20.04-34.711l-10.249-5.918
					c1.922-5.421,3.435-11.035,4.495-16.808h11.843V1165.068z M1926.175,1187.254c-1.096,34.334-29.06,62.299-63.394,63.395
					c-37.913,1.21-68.898-29.774-67.688-67.687c1.096-34.334,29.06-62.299,63.394-63.395
					C1896.4,1118.356,1927.385,1149.34,1926.175,1187.254z"/>
			</g>
			<path style="fill:#F2E6DC;" d="M1860.634,1274.99c-49.561,0-89.882-40.321-89.882-89.882c0-44.128,32.856-82.338,76.425-88.881
				c1.196-0.19,2.328,0.647,2.507,1.853c0.181,1.204-0.648,2.326-1.853,2.507c-41.429,6.222-72.67,42.558-72.67,84.521
				c0,47.129,38.343,85.472,85.472,85.472c38.942,0,72.964-26.29,82.736-63.933c0.306-1.178,1.506-1.891,2.688-1.579
				c1.178,0.306,1.886,1.509,1.579,2.688C1937.361,1247.342,1901.584,1274.99,1860.634,1274.99z"/>
		</g>
		<g>
			<g>
				<path style="fill:#D3BBA3;" d="M737.832,752.978h-67.411c-1.218,0-2.205-0.987-2.205-2.205v-18.092
					c-8.47-1.644-16.886-3.895-25.066-6.705l-9.04,15.658c-0.609,1.053-1.956,1.415-3.012,0.807l-58.379-33.705
					c-1.055-0.609-1.416-1.957-0.807-3.012l9.063-15.696c-6.508-5.672-12.663-11.827-18.333-18.334l-15.698,9.064
					c-0.508,0.292-1.112,0.372-1.673,0.22c-0.565-0.151-1.046-0.521-1.339-1.027l-33.704-58.379
					c-0.608-1.055-0.248-2.403,0.807-3.012l15.658-9.04c-2.81-8.18-5.061-16.594-6.705-25.067h-18.092
					c-1.218,0-2.205-0.987-2.205-2.205v-67.411c0-1.218,0.987-2.205,2.205-2.205h18.092c1.644-8.469,3.895-16.886,6.705-25.067
					l-15.658-9.039c-0.506-0.293-0.876-0.774-1.027-1.339c-0.152-0.565-0.072-1.167,0.22-1.673l33.705-58.379
					c0.608-1.055,1.955-1.418,3.012-0.807l15.696,9.063c5.671-6.508,11.825-12.662,18.333-18.333l-9.063-15.698
					c-0.608-1.055-0.248-2.403,0.807-3.012l58.379-33.705c0.506-0.293,1.109-0.372,1.673-0.22c0.565,0.151,1.046,0.521,1.339,1.027
					l9.04,15.659c8.18-2.811,16.595-5.062,25.066-6.705v-18.092c0-1.218,0.987-2.205,2.205-2.205h67.411
					c1.218,0,2.205,0.987,2.205,2.205v18.092c8.473,1.643,16.887,3.894,25.067,6.705l9.039-15.659
					c0.293-0.506,0.774-0.876,1.339-1.027c0.566-0.152,1.168-0.072,1.673,0.22l58.379,33.705c1.055,0.609,1.416,1.957,0.807,3.012
					l-9.063,15.698c6.505,5.667,12.659,11.822,18.333,18.333l15.698-9.063c1.056-0.61,2.402-0.248,3.012,0.807l33.705,58.379
					c0.292,0.506,0.371,1.108,0.22,1.673c-0.151,0.565-0.521,1.046-1.027,1.339l-15.658,9.039c2.81,8.181,5.061,16.598,6.705,25.067
					h18.092c1.218,0,2.205,0.987,2.205,2.205v67.411c0,1.218-0.987,2.205-2.205,2.205h-18.092
					c-1.644,8.473-3.895,16.887-6.705,25.067l15.658,9.04c1.055,0.609,1.416,1.957,0.807,3.012l-33.705,58.379
					c-0.293,0.506-0.774,0.876-1.339,1.027c-0.564,0.154-1.166,0.072-1.673-0.22l-15.698-9.064
					c-5.672,6.51-11.828,12.665-18.333,18.334l9.063,15.696c0.608,1.055,0.248,2.403-0.807,3.012l-58.378,33.705
					c-1.055,0.607-2.403,0.245-3.012-0.807l-9.04-15.658c-8.18,2.81-16.594,5.061-25.067,6.705v18.092
					C740.036,751.991,739.049,752.978,737.832,752.978z M672.626,748.569h63.001v-17.714c0-1.064,0.76-1.977,1.806-2.168
					c9.452-1.737,18.85-4.25,27.931-7.47c1.002-0.356,2.113,0.055,2.646,0.975l8.85,15.328l54.56-31.5l-8.872-15.367
					c-0.531-0.92-0.331-2.089,0.478-2.779c7.309-6.244,14.184-13.118,20.433-20.433c0.691-0.809,1.861-1.01,2.779-0.478
					l15.367,8.873l31.5-54.56l-15.328-8.851c-0.92-0.532-1.331-1.645-0.975-2.647c3.22-9.08,5.734-18.477,7.47-27.93
					c0.192-1.046,1.105-1.807,2.168-1.807h17.714v-63.001H886.44c-1.064,0-1.977-0.76-2.168-1.806
					c-1.737-9.45-4.25-18.848-7.47-27.931c-0.355-1.001,0.055-2.114,0.975-2.646l15.328-8.849l-31.5-54.56l-15.367,8.872
					c-0.916,0.532-2.088,0.332-2.779-0.478c-6.251-7.316-13.126-14.19-20.433-20.432c-0.808-0.69-1.009-1.858-0.478-2.779
					l8.872-15.368l-54.56-31.501l-8.85,15.329c-0.533,0.921-1.645,1.331-2.647,0.975c-9.08-3.221-18.477-5.735-27.93-7.47
					c-1.046-0.192-1.806-1.104-1.806-2.168v-17.714h-63.001v17.714c0,1.064-0.76,1.977-1.807,2.168
					c-9.451,1.736-18.848,4.249-27.928,7.47c-1.003,0.355-2.115-0.055-2.647-0.975l-8.851-15.329l-54.56,31.501l8.872,15.368
					c0.531,0.92,0.33,2.089-0.478,2.779c-7.312,6.246-14.186,13.12-20.432,20.432c-0.69,0.809-1.858,1.009-2.779,0.478
					l-15.367-8.872l-31.501,54.56l15.328,8.849c0.92,0.532,1.331,1.645,0.975,2.646c-3.22,9.083-5.734,18.48-7.47,27.931
					c-0.192,1.046-1.105,1.806-2.168,1.806H504.1v63.001h17.714c1.064,0,1.977,0.76,2.168,1.807c1.737,9.452,4.25,18.85,7.47,27.93
					c0.355,1.002-0.055,2.115-0.975,2.647l-15.328,8.851l31.5,54.56l15.368-8.873c0.918-0.531,2.089-0.329,2.779,0.478
					c6.245,7.31,13.119,14.185,20.432,20.433c0.808,0.69,1.009,1.858,0.478,2.779l-8.872,15.367l54.56,31.5l8.851-15.328
					c0.533-0.919,1.642-1.331,2.647-0.975c9.081,3.22,18.477,5.734,27.928,7.47c1.046,0.192,1.807,1.105,1.807,2.168V748.569z
					 M704.068,661.036c-30.055,0-58.154-11.616-79.486-32.948c-22.213-22.214-33.894-51.77-32.889-83.224
					c1.886-59.097,49.657-106.869,108.754-108.756c31.445-0.997,61.012,10.674,83.226,32.889
					c22.213,22.214,33.894,51.77,32.889,83.225l-2.204-0.07l2.204,0.07c-1.886,59.097-49.657,106.868-108.754,108.755
					C706.559,661.017,705.311,661.036,704.068,661.036z M704.179,440.457c-1.194,0-2.391,0.018-3.592,0.057
					c-56.778,1.813-102.675,47.71-104.487,104.489c-0.965,30.225,10.258,58.624,31.599,79.966
					c21.343,21.343,49.737,32.581,79.968,31.601c56.778-1.813,102.675-47.709,104.487-104.488l0,0
					c0.965-30.225-10.258-58.624-31.601-79.967C760.059,451.62,733.056,440.457,704.179,440.457z"/>
			</g>
			<path style="fill:#D3BBA3;" d="M704.126,698.207c-82.526,0-149.665-67.139-149.665-149.665c0-36.058,13.004-70.891,36.617-98.084
				c23.378-26.921,55.566-44.648,90.638-49.913c1.186-0.181,2.327,0.646,2.507,1.853c0.181,1.204-0.648,2.326-1.853,2.507
				c-70.407,10.573-123.5,72.323-123.5,143.637c0,80.094,65.162,145.255,145.255,145.255c66.18,0,123.998-44.679,140.606-108.652
				c0.306-1.178,1.506-1.885,2.688-1.579c1.178,0.306,1.885,1.509,1.579,2.688C831.888,652.17,772.314,698.207,704.126,698.207z"/>
		</g>
	</g>
</g>
</svg>
