<?xml version="1.0" encoding="utf-8"?>
<!-- Generator: Adobe Illustrator 27.5.0, SVG Export Plug-In . SVG Version: 6.00 Build 0)  -->
<svg version="1.1" xmlns="http://www.w3.org/2000/svg" xmlns:xlink="http://www.w3.org/1999/xlink" x="0px" y="0px"
	 viewBox="0 0 2500 2500" style="enable-background:new 0 0 2500 2500;" xml:space="preserve">
-
<g id="Illustration">
	<g id="SMART_Objectives_1_">
		<circle style="fill:transparent;" cx="1250" cy="1250" r="915"/>
		<g>
			<g>
				<g>
					<path style="fill:#363E44;" d="M951.667,815.235c0,0,28.969,14.023,41.12,31.32c14.414-22.939,23.609-49.163,25.947-77.225
						c-71.848,1.209-129.401-68.142-129.401-68.142h-50.308c-106.409,41.876-154.776-1.601-176.93-28.792
						c-12.395,22.541-19.863,47.891-21.092,74.774c9.533,16.986,42.843,24.66,64.411,18.814c0,0-20.158,30.029-62.697,14.567
						c13.077,86.906,91.966,153.729,187.349,153.729c55.911,0,106.156-22.96,140.802-59.466
						C971.071,855.973,968.104,829.278,951.667,815.235z"/>
					<path style="fill:#40484C;" d="M804.733,754.309c-0.685,0-1.36-0.318-1.791-0.916c-10.635-14.758-29.259-23.542-47.391-22.368
						c-8.472,0.546-16.455,2.968-26.011,6.076l-0.731,0.237c-8.435,2.746-17.156,5.585-26.216,6.443
						c-7.528,0.715-18.437,0.255-27.643-5.987c-8.82-5.982-13.564-16.292-11.805-25.655c0.225-1.197,1.369-1.985,2.574-1.76
						c1.197,0.225,1.985,1.378,1.76,2.574c-1.418,7.545,2.672,16.259,9.945,21.192c8.12,5.505,17.942,5.894,24.753,5.247
						c8.574-0.812,17.059-3.574,25.267-6.246l0.73-0.238c7.75-2.521,17.394-5.659,27.092-6.284
						c19.628-1.254,39.751,8.23,51.252,24.191c0.713,0.988,0.489,2.366-0.5,3.078C805.63,754.174,805.179,754.309,804.733,754.309z"
						/>
				</g>
				<g>
					<g>
						<path style="fill:#E2A18D;" d="M890.195,828.461c-18.129,7.183-54.456-33.28-54.456-33.28l-12.167-58.321
							c6.529-26.646,33.422-42.953,60.067-36.424c26.646,6.529,42.953,33.422,36.424,60.068
							C920.063,760.503,908.661,821.145,890.195,828.461z"/>
						<polygon style="fill:#E2A18D;" points="793.819,858.289 884.258,930.583 854.101,865.183 882.167,750.642 823.705,736.318 
													"/>
						<path style="fill:#E2A18D;" d="M911.41,771.83c0,0,10.058,17.494,8.421,21.061c-1.954,4.257-17.696,3.289-17.696,3.289
							S911.762,771.953,911.41,771.83z"/>
						<g>
							<path style="fill:#FFFFFF;" d="M868.377,759.097c0,0,9.142-2.365,18.878,0.021c2.071,0.508-5.898,16.127-7.635,14.707
								C871.985,767.579,868.377,759.097,868.377,759.097z"/>
							<g>
								<defs>
									<path id="SVGID_1_" d="M868.377,759.097c0,0,13.445-3.478,25.091,2.258c11.646,5.737,17.083,18.516,17.083,18.516
										s-13.445,3.479-25.091-2.258C873.813,771.877,868.377,759.097,868.377,759.097z"/>
								</defs>
								<clipPath id="SVGID_00000162316913006994392690000004500525952250454453_">
									<use xlink:href="#SVGID_1_"  style="overflow:visible;"/>
								</clipPath>
								<path style="clip-path:url(#SVGID_00000162316913006994392690000004500525952250454453_);fill:#363E44;" d="
									M887.771,758.793c8.018-4.862,18.458-2.304,23.32,5.714c4.862,8.018,2.304,18.459-5.714,23.32
									c-8.018,4.862-18.459,2.304-23.32-5.714C877.196,774.096,879.754,763.655,887.771,758.793z"/>
							</g>
						</g>
						<path style="fill:#363E44;" d="M889.82,804.012c-2.492,0-4.929-1.011-6.684-2.878c-2.373-2.522-3.118-6.258-1.897-9.517
							c0.427-1.141,1.699-1.717,2.839-1.291c1.14,0.427,1.718,1.698,1.291,2.838c-0.636,1.698-0.252,3.64,0.979,4.949
							c1.277,1.358,3.253,1.843,5.035,1.228c1.154-0.394,2.406,0.217,2.802,1.369c0.395,1.151-0.217,2.406-1.368,2.802
							C891.835,803.848,890.823,804.012,889.82,804.012z"/>
						<path style="fill:#363E44;" d="M874.72,829.732c-0.298,0-0.601-0.061-0.89-0.189c-18.292-8.09-39.06-31.082-39.935-32.057
							c-0.814-0.906-0.739-2.3,0.168-3.113c0.905-0.816,2.3-0.737,3.114,0.167c0.208,0.232,21.016,23.265,38.437,30.97
							c1.114,0.493,1.618,1.795,1.125,2.908C876.374,829.242,875.566,829.732,874.72,829.732z"/>
					</g>
					<g>
						<path style="fill:#363E44;" d="M806.18,761.632c-8.802-13.035,4.343-44.09,22.69-58.164
							c23.654-18.146,60.01-15.738,81.603-0.511c5.308,3.743,16.468,13.95,16.043,24.393c-0.331,8.131-14.166,17.324-26.988,14.783
							c-18.028-3.572-36.988-19.337-39.231,2.277C853.502,809.905,815.851,775.956,806.18,761.632z"/>
					</g>
				</g>
				<g>
					<path style="fill:#363E44;" d="M839.039,711.366c0,0-56.099-47.156-15.467-73.348
						C861.723,613.425,895.999,671.15,839.039,711.366z"/>
					<path style="fill:#FFFFFF;" d="M835.012,696.919c-0.278,0-0.561-0.053-0.834-0.165c-8.955-3.665-14.982-13.69-14.018-23.318
						c0.265-2.648,0.983-4.732,2.196-6.374c1.673-2.268,4.372-3.534,6.893-3.216c3.458,0.433,5.975,3.286,7.478,8.479
						c1.5,5.185,2.514,10.542,3.013,15.92c0.113,1.212-0.778,2.287-1.991,2.399c-1.227,0.114-2.288-0.78-2.4-1.991
						c-0.475-5.103-1.436-10.184-2.858-15.103c-0.665-2.297-1.864-5.087-3.792-5.329c-0.929-0.116-2.066,0.468-2.797,1.459
						c-0.729,0.986-1.171,2.358-1.355,4.194c-0.777,7.761,4.081,15.843,11.301,18.797c1.127,0.461,1.667,1.749,1.205,2.876
						C836.704,696.402,835.88,696.919,835.012,696.919z"/>
					<path style="fill:#FFFFFF;" d="M833.151,702.957c-0.63,0-1.254-0.268-1.69-0.788c-0.783-0.933-0.661-2.324,0.272-3.106
						c7.027-5.894,15.911-9.751,25.015-10.86c1.203-0.148,2.307,0.712,2.456,1.922c0.147,1.209-0.714,2.308-1.922,2.455
						c-8.268,1.007-16.335,4.509-22.716,9.861C834.155,702.788,833.651,702.957,833.151,702.957z"/>
				</g>
			</g>
			<g>
				<g>
					<polygon style="fill:#E2A18D;" points="626.497,2051.669 494.722,2051.669 476.83,1888.375 608.606,1888.375 					"/>
					<path style="fill:#E6D0BE;" d="M610.698,2044.951h-121.24l5.678,119.807h307.051l-9.432-15.951
						C754.696,2084.438,685.476,2044.951,610.698,2044.951z"/>
				</g>
				<g>
					<polygon style="fill:#E2A18D;" points="972.579,2051.669 840.804,2051.669 804.48,1891.759 936.256,1891.759 					"/>
					<path style="fill:#FFFFFF;" d="M956.78,2044.951H835.54l15.441,119.807h297.289l-9.432-15.951
						C1100.779,2084.438,1031.559,2044.951,956.78,2044.951z"/>
				</g>
				<path style="fill:#363E44;" d="M662.681,1368.254l121.615,595.021h176.802v-217.017
					c-49.134-168.162-112.798-387.413-137.629-478.863c0,0-140.681-184.399-391.22,25.305l0.224,668.816h242.209
					c0,0-44.761-529.942-42.1-593.262H662.681z"/>
			</g>
			<g>
				<g>
					<path style="fill:#E2A18D;" d="M434.973,1082.71c0,0,17.604-111.73,131.327-169.211l86.601,115.538L434.973,1082.71z"/>
					<path style="fill:#D87355;" d="M633.635,1045.733L526.458,918.269c0,0,77.849-49.735,161.477-54.497L633.635,1045.733z"/>
				</g>
				<path style="fill:#D87355;" d="M1019.332,973.241c0,0-44.495-56.364-100.333-77.29l-34.996,80.619l12.633,116.701
					L1019.332,973.241z"/>
				<g>
					<path style="fill:#FFFFFF;" d="M407.39,1313.458l470.518,13.964l37.095-373.479l45.297-52.656
						c0,0-102.868-88.932-315.954-39.028l8.86,64.009C653.206,926.268,470.32,1196.122,407.39,1313.458z"/>
					<path style="fill:#FFFFFF;" d="M747.651,859.676l5.762-36.1c0,0,80.902,4.684,148.722,28.44l-10.037,32.491L747.651,859.676z"
						/>
				</g>
				<g>
					<path style="fill:#363E44;" d="M817.492,995.777c-0.047,0-0.096-0.002-0.144-0.005c-0.778-0.051-1.471-0.509-1.823-1.204
						l-75.093-148.314c-0.55-1.086-0.115-2.413,0.971-2.963c1.083-0.552,2.411-0.115,2.963,0.971l73.41,144.991l82.541-120.629
						c0.688-1.005,2.057-1.262,3.065-0.574c1.004,0.687,1.262,2.06,0.574,3.064l-84.644,123.704
						C818.899,995.42,818.216,995.777,817.492,995.777z"/>
					<path style="fill:#363E44;" d="M816.036,1030.374c-10.754,0-19.503-8.749-19.503-19.503c0-10.754,8.749-19.503,19.503-19.503
						c10.754,0,19.503,8.749,19.503,19.503C835.539,1021.624,826.79,1030.374,816.036,1030.374z M816.036,995.777
						c-8.323,0-15.093,6.771-15.093,15.094s6.77,15.094,15.093,15.094s15.094-6.771,15.094-15.094S824.359,995.777,816.036,995.777z
						"/>
				</g>
			</g>
		</g>
		<g>
			<g>
				<path style="fill:#FFFFFF;" d="M1062.757,1891.423h22.388c2.005,10.914,4.864,21.527,8.498,31.774l-19.375,11.187l37.885,65.619
					l19.42-11.212c7.127,8.343,14.899,16.115,23.242,23.242l-11.212,19.42l65.619,37.885h0l11.186-19.376
					c10.248,3.634,20.86,6.493,31.774,8.498v22.388h75.77v-22.388c10.914-2.005,21.526-4.864,31.774-8.498l11.186,19.376l0,0
					l65.619-37.885l-11.212-19.42c8.343-7.127,16.115-14.899,23.241-23.242l19.42,11.212l37.885-65.619l-19.375-11.187
					c3.634-10.247,6.493-20.86,8.498-31.774h22.389v-75.77l0,0h-22.389c-2.005-10.914-4.864-21.526-8.498-31.774l19.375-11.186
					l-37.885-65.619l-19.42,11.212c-7.126-8.343-14.898-16.115-23.241-23.242l11.212-19.42l-65.619-37.885l-11.186,19.376
					c-10.247-3.634-20.86-6.494-31.774-8.499v-22.388h-75.77v22.388c-10.914,2.005-21.526,4.864-31.774,8.499l-11.186-19.376
					l-65.619,37.885l11.212,19.42c-8.343,7.126-16.115,14.899-23.242,23.242l-19.42-11.212l-37.885,65.619l19.375,11.187
					c-3.634,10.247-6.493,20.86-8.498,31.774h-22.388V1891.423z M1294.177,1728.042c65.743,2.099,119.288,55.645,121.386,121.387
					c2.317,72.596-57.011,131.923-129.607,129.605c-65.743-2.099-119.287-55.644-121.386-121.388
					C1162.253,1785.051,1221.581,1725.724,1294.177,1728.042z"/>
			</g>
			<path style="fill:#F2E6DC;" d="M1290.066,2021.489c-76.52,0-143.372-51.661-162.573-125.632
				c-0.306-1.178,0.402-2.382,1.579-2.688c1.181-0.304,2.382,0.402,2.688,1.58c18.697,72.026,83.795,122.33,158.306,122.33
				c90.177,0,163.542-73.365,163.542-163.542c0-80.291-59.778-149.815-139.047-161.719c-1.205-0.181-2.034-1.304-1.853-2.508
				c0.181-1.205,1.308-2.033,2.507-1.853c39.356,5.91,75.477,25.803,101.711,56.013c26.498,30.514,41.091,69.604,41.091,110.067
				C1458.017,1946.146,1382.675,2021.489,1290.066,2021.489z"/>
		</g>
		<g>
			<g>
				<path style="fill:#EFBC73;" d="M1537.557,1832.588H956.552L846.07,2163.311H493.713L1092.39,555.998h307.09l601.984,1607.313
					h-352.358L1537.557,1832.588z M1046.02,1563.6h402.035l-202.12-601.364L1046.02,1563.6z"/>
			</g>
			<g>
				<path style="fill:#363E44;" d="M761.244,1763.723l103.075,291.036l102.524-291.036h108.587V2165h-82.956v-109.69l8.268-189.339
					L892.431,2165h-56.774L727.62,1866.247l8.268,189.063V2165h-82.681v-401.277H761.244z"/>
			</g>
			<g>
				<path style="fill:#ff6900;" d="M561.598,2051.651c0-15.615-5.512-27.603-16.536-35.966
					c-11.024-8.359-30.867-17.178-59.53-26.458c-28.663-9.276-51.357-18.418-68.074-27.422
					c-45.569-24.619-68.349-57.782-68.349-99.492c0-21.678,6.106-41.017,18.328-58.014c12.217-16.993,29.765-30.269,52.64-39.825
					c22.875-9.551,48.549-14.331,77.031-14.331c28.663,0,54.199,5.193,76.618,15.572c22.414,10.382,39.824,25.037,52.227,43.959
					c12.402,18.926,18.603,40.423,18.603,64.491h-82.681c0-18.371-5.788-32.659-17.363-42.856
					c-11.575-10.197-27.836-15.296-48.782-15.296c-20.214,0-35.923,4.272-47.128,12.816c-11.209,8.544-16.812,19.8-16.812,33.761
					c0,13.048,6.567,23.977,19.706,32.797c13.134,8.819,32.474,17.087,58.014,24.804c47.033,14.15,81.303,31.694,102.8,52.64
					s32.245,47.038,32.245,78.271c0,34.726-13.138,61.968-39.411,81.716c-26.277,19.753-61.644,29.627-106.107,29.627
					c-30.867,0-58.979-5.65-84.334-16.949c-25.355-11.3-44.695-26.777-58.014-46.439c-13.324-19.658-19.981-42.443-19.981-68.349
					h82.956c0,44.282,26.458,66.42,79.373,66.42c19.658,0,35.001-3.996,46.026-11.989S561.598,2065.982,561.598,2051.651z"/>
			</g>
			<g>
				<path style="fill:#D87355;" d="M1660.793,2018.104h-65.869V2165h-82.681v-401.277h149.101c47.404,0,83.964,10.568,109.69,31.694
					c25.721,21.131,38.584,50.986,38.584,89.571c0,27.379-5.925,50.207-17.776,68.487c-11.851,18.284-29.812,32.844-53.88,43.683
					l86.815,163.983V2165h-88.744L1660.793,2018.104z M1594.924,1951.133h66.696c20.76,0,36.836-5.279,48.23-15.847
					c11.39-10.563,17.087-25.123,17.087-43.683c0-18.922-5.374-33.804-16.123-44.648c-10.749-10.839-27.242-16.261-49.471-16.261
					h-66.42V1951.133z"/>
			</g>
			<g>
				<path style="fill:#363E44;" d="M2161.119,1830.694H2038.2V2165h-82.681v-334.306h-121.265v-66.971h326.865V1830.694z"/>
			</g>
		</g>
		<g>
			<path style="fill:#E2A18D;" d="M920.883,1008.359c-17.201,6.819-93.273,23.703-102.355,58.855
				c-9.147,35.404,8,72.001,33.275,98.428c0.149,0.008,0.313,0.017,0.46,0.025c9.421,3.704,24.083,7.802,40.503,4.472
				c18.717-3.796,21.79-13.608,40.918-20.69c32.286-11.952,55.695,5.085,60.325-6.199c3.178-7.744-10.033-18.262-24.579-24.721
				c-14.934-6.631-27.382-4.633-27.61-7.3c-0.25-2.927,12.659-3.32,28.665-5.283c7.437-0.911,29.4,9.16,35.301-0.781
				c4.705-7.925-15.508-24.11-37.931-26.826c-15.864-1.92-28.775,6.675-29.878,3.974c-0.827-2.027,6.993-6.96,14.999-9.202
				c13.211-3.703,35.79,6.36,41.044-2.895c5.147-9.068-12.755-22.893-33.22-26.696c-17.256-3.207-31.196,7.066-32.586,3.716
				c-0.978-2.356,4.308-8.252,18.545-16.759c11.883-7.099,39.57-13.243,33.998-26.788
				C976.072,992.299,946.844,998.065,920.883,1008.359z"/>
			<path style="fill:#E2A18D;" d="M530.91,1002.079c-40.833-0.931-78.247,24.654-90.655,63.567
				c-8.135,25.513-5.139,55.906,28.456,85.592c81.797,72.277,394.339,10.338,394.339,10.338l60.778-84.371
				C815.82,1032.398,643.305,1004.642,530.91,1002.079z"/>
		</g>
		<g>
			<g>
				<path style="fill:#D87355;" d="M1815.411,898.162c-7.307,0-14.646-0.284-22.01-0.856
					c-153.07-11.895-267.93-146.151-256.039-299.277c5.76-74.177,40.051-141.671,96.557-190.048
					c56.505-48.377,128.459-71.845,202.611-66.084c153.07,11.895,267.93,146.15,256.039,299.277l-2.198-0.171l2.198,0.171
					c-5.76,74.178-40.051,141.672-96.557,190.049C1945.119,874.795,1881.688,898.162,1815.411,898.162z M1814.527,345.449
					c-65.231,0-127.649,22.994-177.741,65.88c-55.61,47.611-89.358,114.037-95.027,187.04
					c-11.702,150.703,101.338,282.833,251.985,294.54c7.242,0.563,14.473,0.842,21.661,0.842
					c65.232,0.003,127.649-22.994,177.741-65.88c55.61-47.611,89.359-114.037,95.027-187.041
					c11.702-150.703-101.337-282.833-251.984-294.539C1828.946,345.729,1821.714,345.449,1814.527,345.449z"/>
				<path style="fill:#E6D0BE;" d="M1830.902,414.38c-113.298-8.804-212.28,75.939-221.081,189.279
					c-8.801,113.34,75.911,212.358,189.209,221.163c113.298,8.804,212.279-75.939,221.08-189.28
					C2028.911,522.202,1944.2,423.184,1830.902,414.38z M1805.405,742.734c-67.98-5.283-118.806-64.693-113.525-132.698
					c5.281-68.004,64.668-118.85,132.648-113.568c67.979,5.283,118.806,64.693,113.525,132.697
					C1932.772,697.17,1873.384,748.016,1805.405,742.734z"/>
				
					<ellipse transform="matrix(0.006 -1 1 0.006 1184.4628 2430.8083)" style="fill:#D87355;" cx="1814.966" cy="619.601" rx="55.328" ry="55.307"/>
			</g>
			<g>
				
					<rect x="1892.298" y="472.664" transform="matrix(0.7713 -0.6365 0.6365 0.7713 145.4564 1371.0103)" style="fill:#ff6900;" width="176.466" height="20.868"/>
				<polygon style="fill:#363E44;" points="1902.668,555.722 1814.307,620.262 1894.45,545.756 				"/>
				<g>
					<polygon style="fill:#EFBC73;" points="2106.05,380.013 2054.784,422.316 2049.22,386.411 2100.486,344.108 					"/>
					<polygon style="fill:#D87355;" points="2109.919,384.705 2058.653,427.008 2092.831,439.302 2144.097,396.998 					"/>
				</g>
				
					<rect x="1897.527" y="533.005" transform="matrix(0.7713 -0.6365 0.6365 0.7713 86.2907 1335.885)" style="fill:#FFFFFF;" width="9.022" height="29.727"/>
				
					<rect x="1904.486" y="527.263" transform="matrix(0.7713 -0.6364 0.6364 0.7713 91.5097 1338.9388)" style="fill:#FFFFFF;" width="9.022" height="29.727"/>
			</g>
		</g>
		<g>
			<path style="fill:#FFFFFF;" d="M2107.097,1280.169h-384.199c-1.218,0-2.205-0.987-2.205-2.205v-252.131
				c0-1.218,0.987-2.205,2.205-2.205c1.218,0,2.205,0.987,2.205,2.205v249.926h381.995c1.218,0,2.205,0.987,2.205,2.205
				C2109.302,1279.182,2108.315,1280.169,2107.097,1280.169z"/>
			<g>
				<path style="fill:#FFFFFF;" d="M1969.422,1110.092c-0.75,0-1.481-0.383-1.895-1.074c-0.624-1.045-0.284-2.399,0.761-3.024
					l45.636-27.274c1.044-0.625,2.398-0.284,3.024,0.762c0.624,1.045,0.284,2.399-0.761,3.023l-45.636,27.275
					C1970.197,1109.99,1969.807,1110.092,1969.422,1110.092z"/>
				<path style="fill:#FFFFFF;" d="M1940.527,1102.798c-0.718,0-1.421-0.349-1.845-0.994l-61.831-94.13
					c-0.668-1.018-0.385-2.385,0.633-3.053c1.016-0.67,2.384-0.386,3.053,0.632l61.831,94.13c0.669,1.018,0.385,2.385-0.633,3.053
					C1941.363,1102.682,1940.943,1102.798,1940.527,1102.798z"/>
				<path style="fill:#FFFFFF;" d="M1803.729,1041.698c-0.659,0-1.311-0.295-1.746-0.857c-0.744-0.964-0.566-2.348,0.397-3.092
					l48.035-37.109c0.963-0.743,2.348-0.569,3.093,0.397c0.744,0.964,0.566,2.348-0.397,3.092l-48.034,37.109
					C1804.675,1041.548,1804.201,1041.698,1803.729,1041.698z"/>
				
					<ellipse transform="matrix(0.2298 -0.9732 0.9732 0.2298 353.5644 2550.533)" style="fill:#D87355;" cx="1788.15" cy="1051.893" rx="19.807" ry="19.807"/>
				
					<ellipse transform="matrix(0.7071 -0.7071 0.7071 0.7071 -153.0997 1610.9244)" style="fill:#D87355;" cx="1868.008" cy="990.27" rx="19.807" ry="19.807"/>
				
					<ellipse transform="matrix(0.2298 -0.9732 0.9732 0.2298 416.0332 2760.4014)" style="fill:#D87355;" cx="1951.973" cy="1117.361" rx="19.807" ry="19.807"/>
				<path style="fill:#D87355;" d="M2052.274,1071.163c0,10.939-8.868,19.807-19.807,19.807c-10.939,0-19.807-8.868-19.807-19.807
					c0-10.939,8.868-19.807,19.807-19.807C2043.406,1051.356,2052.274,1060.224,2052.274,1071.163z"/>
			</g>
			<g>
				<rect x="1764.744" y="1103.168" style="fill:#FFFFFF;" width="49.26" height="135.07"/>
				<rect x="1846.036" y="1076.259" style="fill:#FFFFFF;" width="49.261" height="161.978"/>
				<rect x="1927.328" y="1150.951" style="fill:#FFFFFF;" width="49.26" height="87.286"/>
				<rect x="2008.621" y="1125.886" style="fill:#FFFFFF;" width="49.26" height="112.352"/>
			</g>
		</g>
		<g>
			<g>
				<path style="fill:#F2E6DC;" d="M679.961,449.158c18.859,39.748,21.11,84.46,6.339,125.901
					c-14.77,41.44-44.795,74.649-84.543,93.508c-39.747,18.859-84.46,21.11-125.901,6.339
					c-41.441-14.77-74.649-44.795-93.508-84.542c-18.859-39.748-21.11-84.46-6.339-125.901
					c14.771-41.441,44.795-74.649,84.543-93.508c39.748-18.859,84.46-21.11,125.901-6.339
					C627.893,379.386,661.102,409.41,679.961,449.158z M429.338,568.069c26.637,56.142,93.983,80.146,150.125,53.509
					c56.142-26.637,80.146-93.983,53.509-150.125c-26.637-56.142-93.983-80.146-150.126-53.509
					C426.704,444.58,402.701,511.927,429.338,568.069z"/>
				<path style="fill:#FFFFFF;" d="M674.087,451.945c18.114,38.178,20.277,81.126,6.089,120.931
					c-14.188,39.805-43.027,71.703-81.206,89.817c-38.179,18.114-81.126,20.277-120.931,6.089
					c-39.805-14.188-71.703-43.027-89.817-81.205c-18.114-38.179-20.277-81.126-6.089-120.931
					c14.188-39.805,43.027-71.702,81.205-89.817c38.179-18.114,81.126-20.277,120.931-6.089
					C624.075,384.927,655.973,413.766,674.087,451.945z M423.464,570.856c28.174,59.381,99.405,84.769,158.786,56.596
					c59.381-28.174,84.77-99.405,56.596-158.786c-28.174-59.381-99.405-84.77-158.786-56.596
					C420.679,440.243,395.29,511.474,423.464,570.856z"/>
				<g>
					<path style="fill:#D87355;" d="M413.976,541.639c-9.119-48.895,13.356-99.702,57.727-125.193l-16.758-35.319
						c-34.006,18.636-59.684,48.688-72.811,85.518c-9.897,27.767-11.827,57.06-5.948,85.199L413.976,541.639z"/>
					<path style="fill:#ff6900;" d="M488.736,408.365c57.482-21.936,123.296,3.786,150.11,60.301
						c14.078,29.671,14.782,62.301,4.555,91.039l35.728,16.002c0.355-0.94,0.71-1.881,1.048-2.831
						c14.188-39.805,12.025-82.752-6.089-120.931c-18.114-38.179-50.012-67.018-89.817-81.206
						c-36.83-13.127-76.348-12.246-112.292,2.307L488.736,408.365z"/>
					<path style="fill:#EFBC73;" d="M465.348,619.11c-17.54-11.576-32.237-27.921-41.884-48.254
						c-1.723-3.632-3.243-7.308-4.57-11.016l-37.759,10.196c2.002,5.936,4.361,11.793,7.088,17.54
						c13.002,27.404,33.107,49.996,58.139,65.811L465.348,619.11z"/>
					<path style="fill:#F7F1EB;" d="M478.04,668.782c39.805,14.188,82.752,12.025,120.931-6.089
						c31.527-14.958,56.676-39.322,72.475-69.77l-35.746-16.01c-11.633,21.346-29.854,39.344-53.449,50.538
						c-32.944,15.631-69.532,14.767-100.395,0.767l-18.98,34.266C467.788,664.823,472.845,666.93,478.04,668.782z"/>
				</g>
			</g>
		</g>
		<g>
			<g>
				<rect x="999.718" y="1330.943" style="fill:#E6D0BE;" width="464.398" height="196.192"/>
				<path style="fill:#FFFFFF;" d="M1429.918,1502.948h-286.826c-1.218,0-2.205-0.987-2.205-2.205v-143.408
					c0-1.218,0.987-2.205,2.205-2.205h286.826c1.218,0,2.205,0.987,2.205,2.205v143.408
					C1432.123,1501.961,1431.135,1502.948,1429.918,1502.948z M1145.297,1498.539h282.416V1359.54h-282.416V1498.539z"/>
			</g>
			<g>
				<g>
					<path style="fill:#363E44;" d="M1066.248,1590.677c-87.281,0-158.288-71.008-158.288-158.288
						c0-87.28,71.007-158.288,158.288-158.288s158.288,71.008,158.288,158.288
						C1224.536,1519.669,1153.528,1590.677,1066.248,1590.677z M1066.248,1278.51c-84.849,0-153.879,69.03-153.879,153.879
						c0,84.849,69.03,153.879,153.879,153.879s153.879-69.03,153.879-153.879C1220.126,1347.54,1151.096,1278.51,1066.248,1278.51z"
						/>
					<g>
						<path style="fill:#363E44;" d="M875.877,1616.162c-0.573,0-1.147-0.222-1.578-0.665c-0.85-0.872-0.833-2.267,0.039-3.118
							l22.267-21.724c0.871-0.849,2.268-0.834,3.118,0.039c0.851,0.871,0.833,2.267-0.039,3.118l-22.267,21.724
							C876.988,1615.954,876.433,1616.162,875.877,1616.162z"/>
						<path style="fill:#363E44;" d="M883.446,1623.864c-0.573,0-1.147-0.222-1.578-0.665c-0.85-0.871-0.833-2.267,0.039-3.118
							l22.267-21.724c0.871-0.849,2.268-0.833,3.118,0.039c0.851,0.871,0.833,2.267-0.039,3.118l-22.267,21.724
							C884.557,1623.656,884.001,1623.864,883.446,1623.864z"/>
						<path style="fill:#363E44;" d="M837.699,1679.102c-4.089,0-8.177-1.559-11.284-4.677l-2.615-2.623c0,0,0,0,0,0
							c-6.199-6.222-6.182-16.327,0.039-22.526l66.971-66.742c3.185-3.174,8.355-3.165,11.531,0.02l13.592,13.639
							c1.537,1.543,2.381,3.591,2.377,5.769c-0.003,2.178-0.855,4.224-2.399,5.761l-66.969,66.742
							C845.839,1677.557,841.768,1679.102,837.699,1679.102z M826.924,1668.689l2.615,2.623c4.482,4.5,11.791,4.512,16.29,0.028
							l66.97-66.742c0.71-0.706,1.1-1.646,1.102-2.645c0.001-1-0.386-1.941-1.093-2.649l-13.592-13.638
							c-1.456-1.461-3.83-1.466-5.294-0.009l-66.971,66.742C822.453,1656.882,822.441,1664.19,826.924,1668.689L826.924,1668.689z"
							/>
						<path style="fill:#363E44;" d="M913.764,1599.445c-0.565,0-1.131-0.216-1.562-0.649l-12.479-12.522
							c-0.412-0.415-0.644-0.977-0.643-1.562s0.236-1.146,0.65-1.558l41.142-40.888c0.864-0.857,2.259-0.855,3.117,0.007
							l12.478,12.522c0.412,0.415,0.644,0.977,0.643,1.562c-0.001,0.585-0.236,1.146-0.65,1.558l-41.142,40.888
							C914.888,1599.231,914.326,1599.445,913.764,1599.445z M904.405,1584.726l9.366,9.398l38.015-37.78l-9.366-9.398
							L904.405,1584.726z"/>
					</g>
					<path style="fill:#363E44;" d="M967.29,1335.376c-0.564,0-1.128-0.215-1.559-0.646c-0.861-0.861-0.861-2.257,0-3.118
						c40.488-40.488,100.942-52.746,154.008-31.226c1.128,0.458,1.672,1.744,1.214,2.872c-0.457,1.128-1.741,1.673-2.872,1.215
						c-51.419-20.854-110-8.976-149.232,30.257C968.418,1335.161,967.854,1335.376,967.29,1335.376z"/>
					<path style="fill:#363E44;" d="M1032.147,1570.084c-0.178,0-0.357-0.022-0.537-0.066
						c-24.872-6.223-47.652-19.146-65.879-37.373c-0.861-0.861-0.861-2.257,0-3.118c0.861-0.861,2.256-0.861,3.118,0
						c17.662,17.661,39.734,30.183,63.831,36.212c1.181,0.296,1.899,1.493,1.604,2.674
						C1034.033,1569.416,1033.134,1570.084,1032.147,1570.084z"/>
				</g>
			</g>
		</g>
		<g>
			<path style="fill:#D87355;" d="M1963.901,1539.715c-1.342-85.882-71.336-155.099-157.537-155.099
				c-2.517,0-5.017,0.073-7.505,0.19v154.909H1963.901z"/>
			<path style="fill:#FFFFFF;" d="M1783.311,1555.263v-96.276c-51.929,2.436-93.285,45.3-93.285,97.831
				c0,54.096,43.853,97.949,97.949,97.949s97.949-43.854,97.949-97.949c0-0.522-0.031-1.035-0.039-1.555H1783.311z"/>
		</g>
		<g>
			<path style="fill:#363E44;" d="M946.318,628.26c-0.018,0-0.034,0-0.053,0c-22-0.029-39.875-17.951-39.847-39.952l0.052-39.9
				l79.801,0.104l-0.053,39.9C986.19,610.394,968.296,628.26,946.318,628.26z M910.873,552.823l-0.045,35.491
				c-0.026,19.57,15.875,35.511,35.444,35.536c0.014,0,0.031,0,0.046,0c19.549,0,35.466-15.89,35.49-35.445l0.046-35.49
				L910.873,552.823z"/>
			
				<ellipse transform="matrix(0.7071 -0.7071 0.7071 0.7071 -55.5677 807.0994)" style="fill:#EFBC73;" cx="946.471" cy="470.626" rx="97.595" ry="97.595"/>
			<path style="fill:#363E44;" d="M946.66,603.474c-0.122,0-0.241,0-0.361,0c-9.756-0.013-18.943-0.57-25.869-1.568
				c-8.98-1.295-12.476-2.935-12.472-5.851c0.002-1.218,1.061-2.229,2.208-2.202c0.978,0.001,1.804,0.638,2.093,1.519
				c1.997,1.347,13.406,3.665,34.047,3.692c0.118,0,0.239,0,0.357,0c20.416,0,31.708-2.27,33.698-3.604
				c0.29-0.879,1.119-1.513,2.094-1.513c0.001,0,0.002,0,0.003,0c1.218,0.002,2.204,0.99,2.202,2.208
				C984.65,602.737,958.379,603.474,946.66,603.474z"/>
			<path style="fill:#363E44;" d="M946.677,586.95c-0.121,0-0.239,0-0.357,0c-11.53-0.015-38.349-0.768-38.341-7.418
				c0.001-1.218,1.041-2.143,2.207-2.202c0.978,0.001,1.805,0.638,2.094,1.518c1.997,1.348,13.405,3.666,34.047,3.692
				c20.583,0.066,32.055-2.262,34.056-3.604c0.291-0.879,1.119-1.513,2.094-1.513c0.001,0,0.002,0,0.003,0
				c1.218,0.002,2.204,0.991,2.202,2.208C984.671,586.213,958.394,586.95,946.677,586.95z"/>
			<g>
				<path style="fill:#363E44;" d="M959.409,546.69c-0.289,0-0.582-0.057-0.865-0.178c-1.121-0.478-1.641-1.774-1.162-2.894
					l30.763-72.033c0.478-1.12,1.774-1.64,2.893-1.162c1.121,0.478,1.641,1.774,1.162,2.894l-30.763,72.033
					C961.079,546.188,960.266,546.69,959.409,546.69z"/>
				<path style="fill:#363E44;" d="M933.341,546.656c-0.859,0-1.675-0.504-2.031-1.345l-30.576-72.113
					c-0.475-1.121,0.048-2.415,1.17-2.891c1.115-0.475,2.416,0.048,2.891,1.169l30.576,72.113c0.475,1.121-0.048,2.415-1.17,2.891
					C933.921,546.6,933.629,546.656,933.341,546.656z"/>
				<path style="fill:#FFFFFF;" d="M964.015,483.341c-5.136,0-10.286-1.575-14.417-4.619c-3.988,1.671-8.345,2.421-12.678,1.981
					c-12.222-1.236-22.778-11.777-24.032-23.996c-0.125-1.211,0.757-2.294,1.968-2.419c1.229-0.125,2.293,0.758,2.418,1.968
					c1.049,10.215,9.873,19.026,20.09,20.06c2.92,0.294,5.857-0.054,8.633-0.934c-5.738-6.662-7.516-16.623-4.146-24.789
					c1.744-4.227,5.569-8.938,11.073-9.481c4.786-0.475,9.695,2.551,11.937,7.35c1.798,3.847,1.944,8.657,0.41,13.544
					c-1.867,5.953-6,11.001-11.215,14.366c5.861,3.333,13.502,3.504,19.389,0.153c1.059-0.603,2.404-0.232,3.007,0.826
					c0.602,1.058,0.233,2.405-0.826,3.007C972.1,482.364,968.062,483.341,964.015,483.341z M953.909,445.473
					c-0.185,0-0.369,0.009-0.553,0.027c-3.561,0.352-6.173,3.73-7.429,6.775c-2.929,7.101-1.083,15.869,4.367,21.255
					c5.013-2.774,9.045-7.348,10.77-12.844c1.203-3.834,1.133-7.512-0.197-10.357C959.514,447.439,956.657,445.473,953.909,445.473z
					"/>
			</g>
		</g>
		<path style="fill:#FFFFFF;" d="M1450.798,1147.985c-0.272,0-0.545-0.051-0.803-0.151l-52.137-20.392
			c-0.545-0.213-0.982-0.634-1.217-1.17c-0.235-0.536-0.246-1.142-0.033-1.687l9.087-23.232
			c-6.247-4.803-11.956-10.288-17.008-16.34l-22.849,10.001c-0.535,0.235-1.142,0.246-1.687,0.034
			c-0.545-0.213-0.982-0.634-1.217-1.17l-22.446-51.286c-0.235-0.536-0.247-1.142-0.033-1.687c0.213-0.545,0.633-0.982,1.169-1.216
			l22.849-10c-1.02-7.814-1.176-15.73-0.464-23.58l-23.232-9.087c-1.134-0.444-1.693-1.723-1.25-2.857l20.392-52.137
			c0.213-0.545,0.633-0.982,1.169-1.216c0.535-0.235,1.142-0.246,1.687-0.034l23.232,9.087c4.8-6.246,10.286-11.955,16.339-17.007
			l-10-22.849c-0.235-0.536-0.247-1.142-0.033-1.687c0.213-0.545,0.633-0.982,1.169-1.216l51.286-22.446
			c1.114-0.489,2.417,0.02,2.904,1.136l10.001,22.85c7.816-1.021,15.732-1.176,23.579-0.465l9.087-23.233
			c0.443-1.134,1.724-1.692,2.856-1.25l52.136,20.393c1.134,0.443,1.694,1.722,1.25,2.857l-9.086,23.232
			c6.247,4.803,11.958,10.289,17.007,16.34l22.849-10c1.114-0.488,2.417,0.02,2.904,1.136l22.447,51.286
			c0.235,0.536,0.247,1.142,0.033,1.687c-0.213,0.545-0.633,0.982-1.169,1.216l-22.849,10c1.02,7.817,1.176,15.733,0.465,23.58
			l23.232,9.087c0.545,0.213,0.982,0.634,1.217,1.17c0.235,0.536,0.247,1.142,0.033,1.687l-20.393,52.136
			c-0.443,1.134-1.719,1.692-2.856,1.25l-23.231-9.087c-4.804,6.248-10.29,11.958-16.339,17.007l9.999,22.85
			c0.489,1.115-0.021,2.415-1.136,2.904l-51.286,22.446c-0.535,0.235-1.143,0.246-1.687,0.034c-0.545-0.213-0.982-0.634-1.217-1.17
			l-10-22.849c-7.818,1.02-15.732,1.175-23.58,0.464l-9.086,23.232c-0.213,0.545-0.633,0.982-1.169,1.216
			C1451.401,1147.923,1451.099,1147.985,1450.798,1147.985z M1401.517,1124.138l48.031,18.786l8.891-22.733
			c0.362-0.925,1.308-1.498,2.286-1.389c8.581,0.914,17.271,0.743,25.823-0.509c0.988-0.142,1.943,0.388,2.339,1.298l9.785,22.358
			l47.246-20.678l-9.785-22.359c-0.398-0.91-0.139-1.974,0.634-2.599c6.717-5.428,12.737-11.695,17.894-18.625
			c0.592-0.797,1.646-1.1,2.572-0.737l22.733,8.892l18.787-48.029l-22.734-8.892c-0.926-0.362-1.494-1.299-1.389-2.287
			c0.914-8.587,0.743-17.275-0.509-25.823c-0.144-0.984,0.386-1.941,1.297-2.339l22.358-9.786l-20.679-47.246l-22.358,9.785
			c-0.911,0.398-1.976,0.138-2.599-0.634c-5.429-6.718-11.695-12.738-18.624-17.894c-0.798-0.593-1.1-1.647-0.738-2.572
			l8.891-22.733l-48.03-18.787l-8.892,22.733c-0.362,0.926-1.297,1.498-2.287,1.389c-8.584-0.914-17.275-0.743-25.822,0.509
			c-0.979,0.144-1.941-0.386-2.339-1.298l-9.786-22.358l-47.246,20.678l9.786,22.358c0.398,0.91,0.139,1.974-0.634,2.599
			c-6.721,5.432-12.741,11.698-17.894,18.625c-0.592,0.797-1.643,1.1-2.572,0.737l-22.734-8.892l-18.786,48.03l22.734,8.892
			c0.926,0.362,1.494,1.299,1.389,2.287c-0.914,8.59-0.743,17.277,0.508,25.822c0.144,0.983-0.386,1.941-1.297,2.339l-22.358,9.786
			l20.679,47.246l22.358-9.786c0.91-0.399,1.973-0.139,2.599,0.634c5.43,6.719,11.697,12.74,18.625,17.894
			c0.798,0.593,1.1,1.647,0.737,2.572L1401.517,1124.138z M1471.611,1076.27c-7.447,0-14.901-1.394-22.044-4.187
			c-15.043-5.884-26.894-17.274-33.37-32.071c-6.477-14.797-6.803-31.231-0.919-46.274c5.884-15.043,17.274-26.894,32.071-33.37
			c14.799-6.477,31.232-6.803,46.274-0.919c15.043,5.883,26.894,17.274,33.37,32.071c6.477,14.797,6.803,31.231,0.919,46.274
			c-5.885,15.043-17.275,26.894-32.072,33.37C1488.07,1074.565,1479.846,1076.27,1471.611,1076.27z M1471.579,959.672
			c-7.635,0-15.257,1.58-22.463,4.734c-13.719,6.005-24.278,16.992-29.733,30.938c-5.454,13.946-5.151,29.182,0.853,42.9
			c6.004,13.718,16.992,24.277,30.938,29.732c13.944,5.454,29.178,5.152,42.899-0.852c13.719-6.005,24.278-16.992,29.733-30.937
			c5.455-13.946,5.152-29.181-0.852-42.9c-6.004-13.718-16.991-24.278-30.937-29.732
			C1485.395,960.964,1478.482,959.672,1471.579,959.672z"/>
	</g>
</g>
</svg>
