<?xml version="1.0" encoding="utf-8"?>
<!-- Generator: Adobe Illustrator 27.5.0, SVG Export Plug-In . SVG Version: 6.00 Build 0)  -->
<svg version="1.1" xmlns="http://www.w3.org/2000/svg" xmlns:xlink="http://www.w3.org/1999/xlink" x="0px" y="0px"
	 viewBox="0 0 2500 2500" style="enable-background:new 0 0 2500 2500;" xml:space="preserve">
-
<g id="Illustration">
	<g id="Augmented_intelligence_1_">
		<circle style="fill:transparent;" cx="1250" cy="1250" r="915"/>
		<g>
			<g>
				<path style="fill:#FFFFFF;" d="M1769.615,1585.502c-0.141,0-0.284-0.013-0.427-0.041l-100.065-19.67
					c-1.195-0.236-1.973-1.394-1.739-2.589l5.459-27.771c-12.64-5.085-24.996-11.136-36.781-18.015l-18.601,21.307
					c-0.384,0.44-0.929,0.711-1.512,0.749c-0.594,0.036-1.159-0.154-1.6-0.538l-76.824-67.068c-0.917-0.801-1.012-2.194-0.211-3.111
					l18.647-21.359c-8.386-10.731-16.051-22.146-22.815-33.978l-26.827,9.176c-0.556,0.189-1.158,0.152-1.685-0.107
					c-0.524-0.257-0.926-0.713-1.115-1.266l-32.998-96.495c-0.19-0.553-0.151-1.16,0.106-1.685c0.257-0.524,0.713-0.926,1.266-1.115
					l26.762-9.151c-1.906-13.516-2.83-27.244-2.752-40.863l-27.771-5.459c-1.195-0.236-1.973-1.394-1.739-2.589l19.67-100.066
					c0.113-0.574,0.449-1.08,0.934-1.405c0.484-0.328,1.08-0.444,1.655-0.334l27.771,5.459c5.081-12.634,11.134-24.991,18.015-36.78
					l-21.306-18.602c-0.917-0.801-1.012-2.194-0.211-3.111l67.067-76.824c0.384-0.44,0.929-0.711,1.511-0.749
					c0.589-0.041,1.159,0.154,1.6,0.538l21.359,18.648c10.734-8.389,22.149-16.053,33.977-22.815l-9.174-26.827
					c-0.394-1.153,0.221-2.406,1.373-2.8l96.495-32.999c0.558-0.187,1.16-0.15,1.685,0.107c0.524,0.257,0.926,0.713,1.115,1.266
					l9.151,26.764c13.522-1.907,27.288-2.835,40.864-2.752l5.459-27.772c0.234-1.195,1.399-1.972,2.589-1.739l100.065,19.67
					c1.195,0.236,1.973,1.394,1.739,2.589l-5.459,27.772c12.636,5.081,24.992,11.134,36.781,18.015l18.601-21.308
					c0.384-0.44,0.929-0.711,1.511-0.749c0.588-0.041,1.159,0.154,1.6,0.538l76.824,67.068c0.917,0.801,1.012,2.194,0.211,3.111
					l-18.646,21.359c8.389,10.737,16.053,22.151,22.814,33.977l26.828-9.175c1.154-0.392,2.405,0.222,2.8,1.373l32.997,96.495
					c0.19,0.553,0.151,1.159-0.106,1.685c-0.257,0.524-0.713,0.926-1.266,1.115l-26.762,9.151
					c1.906,13.516,2.83,27.244,2.752,40.864l27.771,5.459c1.195,0.236,1.973,1.394,1.739,2.589l-19.67,100.065
					c-0.235,1.194-1.4,1.972-2.589,1.739l-27.772-5.459c-5.08,12.634-11.132,24.99-18.014,36.781l21.307,18.601
					c0.917,0.801,1.012,2.194,0.211,3.111l-67.068,76.825c-0.384,0.44-0.929,0.71-1.513,0.749c-0.582,0.036-1.159-0.154-1.599-0.538
					l-21.359-18.648c-10.734,8.388-22.149,16.052-33.977,22.815l9.175,26.827c0.189,0.553,0.151,1.16-0.107,1.685
					c-0.257,0.524-0.713,0.926-1.266,1.115l-96.495,32.998c-0.556,0.189-1.158,0.152-1.685-0.107
					c-0.524-0.257-0.926-0.713-1.115-1.266l-9.151-26.762c-13.515,1.906-27.265,2.835-40.864,2.752l-5.459,27.771
					C1771.57,1584.774,1770.647,1585.502,1769.615,1585.502z M1672.137,1561.889l95.738,18.82l5.386-27.403
					c0.206-1.043,1.166-1.861,2.191-1.78c14.617,0.176,29.343-0.812,43.82-2.951c1.055-0.15,2.065,0.463,2.408,1.467l9.029,26.406
					l92.323-31.57l-9.052-26.471c-0.343-1.005,0.079-2.113,1.005-2.635c12.728-7.167,24.989-15.399,36.441-24.468
					c0.832-0.657,2.018-0.631,2.818,0.068l21.075,18.4l64.168-73.503l-21.023-18.353c-0.801-0.7-0.988-1.87-0.447-2.785
					c7.462-12.594,13.961-25.863,19.317-39.44c0.391-0.99,1.434-1.556,2.476-1.355l27.404,5.387l18.82-95.739l-27.403-5.387
					c-1.044-0.206-1.792-1.127-1.78-2.191c0.181-14.599-0.812-29.342-2.951-43.82c-0.155-1.052,0.462-2.064,1.467-2.408
					l26.406-9.029l-31.569-92.323l-26.472,9.053c-1.008,0.341-2.112-0.079-2.635-1.005c-7.166-12.727-15.397-24.987-24.467-36.441
					c-0.659-0.832-0.631-2.018,0.068-2.818l18.397-21.075l-73.502-64.168l-18.353,21.023c-0.7,0.8-1.87,0.99-2.785,0.447
					c-12.591-7.461-25.861-13.961-39.441-19.318c-0.989-0.391-1.559-1.432-1.354-2.476l5.387-27.404l-95.739-18.82l-5.387,27.404
					c-0.203,1.035-1.111,1.78-2.164,1.78c-0.009,0-0.018,0-0.028,0c-14.587-0.179-29.335,0.811-43.819,2.951
					c-1.045,0.159-2.064-0.462-2.408-1.467l-9.029-26.407l-92.323,31.572l9.052,26.471c0.344,1.005-0.078,2.113-1.004,2.635
					c-12.729,7.167-24.989,15.398-36.441,24.467c-0.831,0.661-2.016,0.633-2.818-0.067l-21.075-18.4l-64.167,73.502l21.022,18.354
					c0.801,0.7,0.988,1.87,0.447,2.785c-7.461,12.592-13.961,25.862-19.318,39.441c-0.39,0.988-1.426,1.562-2.476,1.354
					l-27.403-5.387l-18.82,95.74l27.403,5.386c1.044,0.206,1.792,1.127,1.78,2.191c-0.181,14.599,0.812,29.342,2.951,43.82
					c0.155,1.052-0.462,2.064-1.467,2.408l-26.407,9.029l31.572,92.323l26.471-9.053c1.009-0.339,2.112,0.078,2.635,1.004
					c7.169,12.734,15.401,24.994,24.467,36.441c0.66,0.833,0.632,2.019-0.067,2.819l-18.399,21.075l73.502,64.168l18.353-21.023
					c0.7-0.8,1.87-0.989,2.785-0.447c12.586,7.457,25.856,13.958,39.441,19.318c0.99,0.391,1.559,1.432,1.354,2.476
					L1672.137,1561.889z M1779.096,1444.55c-12.946,0-26.01-1.477-39.007-4.466c-87.696-20.165-145.009-105.524-130.477-194.328
					c7.734-47.268,33.853-87.976,73.545-114.627c39.692-26.651,87.258-35.415,133.936-24.683
					c87.696,20.165,145.009,105.525,130.477,194.328c-7.734,47.267-33.853,87.975-73.545,114.626
					C1845.385,1434.63,1812.645,1444.549,1779.096,1444.55z M1778.097,1106.393c-32.684,0-64.579,9.663-92.482,28.397
					c-38.67,25.965-64.117,65.627-71.652,111.679c-14.157,86.514,41.678,169.672,127.114,189.317
					c45.482,10.458,91.822,1.918,130.49-24.047c38.669-25.964,64.116-65.625,71.651-111.677
					c14.157-86.514-41.679-169.672-127.114-189.317C1803.442,1107.833,1790.71,1106.393,1778.097,1106.393z"/>
			</g>
		</g>
		<g>
			<path style="fill:#E2A18D;" d="M1732.236,871.724c0-46.726-23.358-86.538-56.086-101.711
				c16.893-19.781,27.48-48.081,27.48-79.523c0-59.8-38.257-108.275-85.45-108.275c-3.169,0-6.295,0.236-9.374,0.662
				c0.703-6.136,1.083-12.403,1.083-18.786c0-71.55-45.775-129.552-102.242-129.552c-17.369,0-33.719,5.506-48.044,15.188v-1.774
				c0-61.057-39.063-110.555-87.251-110.555c-48.187,0-87.251,49.498-87.251,110.555v31.098
				c-11.326,5.546-21.421,14.226-29.623,25.2c-8.203-10.974-18.298-19.654-29.624-25.2v-31.098
				c0-61.057-39.063-110.555-87.251-110.555c-48.187,0-87.251,49.498-87.251,110.555v1.774
				c-14.325-9.682-30.674-15.188-48.044-15.188c-56.466,0-102.242,58.002-102.242,129.552c0,6.383,0.38,12.65,1.084,18.786
				c-3.081-0.426-6.205-0.662-9.375-0.662c-47.192,0-85.449,48.475-85.449,108.275c0,31.442,10.587,59.742,27.479,79.523
				c-32.728,15.173-56.085,54.986-56.085,101.711c0,41.371,18.318,77.309,45.233,95.537c-10.451,18.358-16.627,40.882-16.627,65.248
				c0,61.678,39.461,111.681,88.138,111.681c1.98,0,3.94-0.113,5.887-0.277c-0.169,3.04-0.285,6.095-0.285,9.189
				c0,71.55,45.776,129.552,102.242,129.552c17.405,0,33.786-5.525,48.132-15.246c1.828,59.014,40.142,106.153,87.163,106.153
				c37.386,0,69.267-29.802,81.687-71.675c12.468-2.958,24.284-8.238,35.189-15.434c10.904,7.195,22.721,12.476,35.189,15.434
				c12.42,41.873,44.3,71.675,81.686,71.675c47.022,0,85.337-47.139,87.163-106.153c14.346,9.72,30.728,15.246,48.132,15.246
				c56.467,0,102.242-58.002,102.242-129.552c0-3.094-0.116-6.148-0.284-9.189c1.948,0.164,3.906,0.277,5.887,0.277
				c48.677,0,88.138-50.003,88.138-111.681c0-24.366-6.177-46.89-16.627-65.248C1713.917,949.033,1732.236,913.096,1732.236,871.724
				z"/>
			<g>
				<path style="fill:#BC8271;" d="M1570.673,1081.468c-25.657,0-46.529-26.184-46.529-58.368V843.249
					c0-29.753-18.895-53.96-42.12-53.96c-24.422,0-44.29,25.44-44.29,56.711v155.779c0,1.218-0.987,2.205-2.205,2.205
					c-1.218,0-2.205-0.987-2.205-2.205V846c0-33.702,21.847-61.12,48.7-61.12c25.657,0,46.529,26.184,46.529,58.37V1023.1
					c0,29.753,18.895,53.959,42.12,53.959s42.12-24.206,42.12-53.959v-57.255c0-36.151,16.661-69.732,42.447-85.551l15.826-9.707
					c1.039-0.637,2.396-0.311,3.033,0.727s0.311,2.395-0.727,3.033l-15.826,9.707c-24.508,15.034-40.344,47.14-40.344,81.792v57.255
					C1617.203,1055.284,1596.33,1081.468,1570.673,1081.468z"/>
				<path style="fill:#BC8271;" d="M1433.848,1164.336c-0.053,0-0.1,0-0.156,0c-0.017,0-0.033,0-0.051-0.001
					c-25.521-0.139-46.25-26.228-46.25-58.274v-92.269c0-29.701-18.861-53.865-42.046-53.865c-23.185,0-42.047,24.164-42.047,53.865
					v92.269c0,32.132-20.839,58.275-46.455,58.275c-1.218,0-2.205-0.987-2.205-2.205s0.987-2.205,2.205-2.205
					c23.184,0,42.046-24.164,42.046-53.865v-92.269c0-32.132,20.84-58.275,46.456-58.275s46.455,26.142,46.455,58.275v92.269
					c0,29.669,18.818,53.812,41.968,53.865c23.151-0.053,41.969-24.196,41.969-53.865V895.265c0-1.218,0.987-2.205,2.205-2.205
					s2.205,0.987,2.205,2.205v210.797c0,32.046-20.728,58.135-46.25,58.274C1433.882,1164.336,1433.866,1164.336,1433.848,1164.336z
					"/>
				<path style="fill:#BC8271;" d="M1403.414,1299.131c-34.161,0-61.953-34.951-61.953-77.911v-148.023
					c0-1.218,0.987-2.205,2.205-2.205c1.218,0,2.205,0.987,2.205,2.205v148.023c0,40.529,25.814,73.502,57.543,73.502
					c1.218,0,2.205,0.987,2.205,2.205S1404.631,1299.131,1403.414,1299.131z"/>
				<path style="fill:#BC8271;" d="M1570.708,1208.814c-28.396,0-51.497-29.007-51.497-64.662v-7.572
					c0-1.218,0.987-2.205,2.205-2.205c1.218,0,2.205,0.987,2.205,2.205v7.572c0,33.223,21.124,60.252,47.087,60.252
					c1.218,0,2.205,0.987,2.205,2.205C1572.912,1207.827,1571.925,1208.814,1570.708,1208.814z"/>
				<path style="fill:#BC8271;" d="M1578.177,935.379c-1.218,0-2.205-0.987-2.205-2.205V762.995
					c0-34.123,14.767-65.455,38.54-81.772l34.114-23.414c1.004-0.689,2.377-0.433,3.066,0.57c0.689,1.004,0.433,2.377-0.571,3.066
					l-34.114,23.414c-22.592,15.505-36.626,45.445-36.626,78.135v170.179C1580.382,934.391,1579.394,935.379,1578.177,935.379z"/>
				<path style="fill:#BC8271;" d="M1393.199,762.143c-24.557,0-44.535-25.05-44.535-55.841V443.861
					c0-1.218,0.987-2.205,2.205-2.205c1.218,0,2.205,0.987,2.205,2.205v262.441c0,28.359,18,51.431,40.125,51.431
					c22.125,0,40.125-23.072,40.125-51.431V580.774c0-30.791,19.978-55.841,44.534-55.841h1.82c24.557,0,44.535,25.05,44.535,55.841
					v143.203c0,1.218-0.987,2.205-2.205,2.205s-2.205-0.987-2.205-2.205V580.774c0-28.359-18-51.431-40.125-51.431h-1.82
					c-22.125,0-40.124,23.072-40.124,51.431v125.528C1437.734,737.094,1417.756,762.143,1393.199,762.143z"/>
				<path style="fill:#BC8271;" d="M1287.654,924.44c-0.812,0-1.592-0.449-1.978-1.225c-0.54-1.092-0.095-2.414,0.996-2.955
					l39.769-19.717c26.853-13.314,44.894-46.929,44.894-83.645V796.4c0-1.218,0.987-2.205,2.205-2.205
					c1.218,0,2.205,0.987,2.205,2.205v20.497c0,38.951-18.584,73.335-47.344,87.596l-39.769,19.717
					C1288.316,924.366,1287.983,924.44,1287.654,924.44z"/>
				<path style="fill:#BC8271;" d="M1477.944,710.094c-1.218,0-2.205-0.987-2.205-2.205V607.104c0-1.218,0.987-2.205,2.205-2.205
					s2.205,0.987,2.205,2.205v100.785C1480.149,709.107,1479.161,710.094,1477.944,710.094z"/>
				<path style="fill:#BC8271;" d="M1397.439,647.636c-1.218,0-2.205-0.987-2.205-2.205v-201.57c0-1.218,0.987-2.205,2.205-2.205
					c1.218,0,2.205,0.987,2.205,2.205v201.57C1399.644,646.648,1398.656,647.636,1397.439,647.636z"/>
			</g>
			<g>
				<g>
					<g>
						<path style="fill:#E6D0BE;" d="M1222.641,638.491h-13.981c-1.252-6.815-3.037-13.442-5.307-19.841l12.099-6.985
							l-23.657-40.976l-12.127,7.001c-4.45-5.21-9.303-10.063-14.513-14.513l7.001-12.127l-40.975-23.657l-6.985,12.099
							c-6.399-2.269-13.026-4.055-19.841-5.307v-13.98h-47.314l0,13.98c-6.815,1.252-13.442,3.037-19.841,5.307l-6.985-12.099
							l-40.975,23.657l7.001,12.127c-5.21,4.45-10.063,9.303-14.513,14.513l-12.126-7.001l-23.657,40.976l12.099,6.985
							c-2.269,6.399-4.055,13.026-5.307,19.841h-13.98l0,47.314h13.981c1.252,6.815,3.037,13.442,5.307,19.841l-12.099,6.985
							l23.657,40.976l12.127-7.001c4.45,5.21,9.304,10.063,14.513,14.513l-7.001,12.127l40.975,23.657l6.985-12.099
							c6.399,2.269,13.026,4.055,19.841,5.307v13.98l47.314,0v-13.981c6.815-1.252,13.442-3.037,19.841-5.307l6.985,12.099
							l40.975-23.657l-7.001-12.127c5.21-4.45,10.063-9.303,14.513-14.513l12.127,7.002l23.657-40.976l-12.099-6.986
							c2.269-6.399,4.055-13.026,5.307-19.841h13.981V638.491z M1153.161,692.369c-7.349,19.439-22.806,34.895-42.245,42.243
							c-66.048,24.967-127.65-36.636-102.681-102.684c7.349-19.439,22.806-34.896,42.245-42.244
							C1116.529,564.717,1178.131,626.32,1153.161,692.369z"/>
					</g>
					<path style="fill:#F2E6DC;" d="M1080.698,767.853c-58.286,0-105.705-47.42-105.705-105.705
						c0-51.896,38.639-96.833,89.879-104.528c1.198-0.192,2.327,0.647,2.507,1.853c0.181,1.204-0.648,2.327-1.853,2.507
						c-49.098,7.373-86.124,50.436-86.124,100.168c0,55.855,45.441,101.296,101.296,101.296c46.152,0,86.471-31.157,98.052-75.769
						c0.306-1.178,1.505-1.886,2.688-1.579c1.178,0.306,1.885,1.509,1.579,2.688
						C1170.933,735.339,1128.858,767.853,1080.698,767.853z"/>
				</g>
				<g>
					<g>
						<path style="fill:#F7F1EB;" d="M1024.927,868.525h-8.817c-0.789-4.298-1.916-8.478-3.347-12.513l7.63-4.406l-14.92-25.842
							l-7.648,4.416c-2.807-3.286-5.867-6.346-9.153-9.153l4.415-7.648l-25.842-14.92l-4.406,7.631
							c-4.036-1.431-8.215-2.557-12.513-3.347v-8.817h-29.84l0,8.817c-4.298,0.79-8.478,1.916-12.513,3.347l-4.405-7.631
							l-25.842,14.92l4.415,7.648c-3.286,2.807-6.346,5.867-9.153,9.153l-7.648-4.416l-14.92,25.842l7.631,4.406
							c-1.431,4.036-2.557,8.215-3.347,12.513h-8.817l0,29.84h8.817c0.789,4.298,1.916,8.478,3.347,12.513l-7.631,4.406
							l14.92,25.842l7.648-4.416c2.807,3.286,5.867,6.347,9.153,9.153l-4.415,7.648l25.842,14.92l4.405-7.631
							c4.036,1.431,8.215,2.557,12.513,3.347v8.817l29.84,0v-8.817c4.298-0.79,8.478-1.916,12.513-3.347l4.406,7.631l25.842-14.92
							l-4.415-7.648c3.286-2.807,6.346-5.868,9.153-9.153l7.648,4.416l14.92-25.842l-7.63-4.406
							c1.431-4.036,2.557-8.215,3.347-12.513h8.817V868.525z M981.107,902.504c-4.635,12.26-14.383,22.008-26.643,26.642
							c-41.655,15.746-80.506-23.105-64.758-64.76c4.635-12.26,14.383-22.008,26.643-26.642
							C958.005,821.997,996.855,860.849,981.107,902.504z"/>
					</g>
					<path style="fill:#F2E6DC;" d="M935.407,950.924c-37.208,0-67.481-30.271-67.481-67.479c0-33.129,24.667-61.816,57.378-66.728
						c1.188-0.182,2.326,0.646,2.507,1.853c0.181,1.204-0.648,2.326-1.853,2.507c-30.57,4.591-53.623,31.404-53.623,62.368
						c0,34.776,28.293,63.07,63.071,63.07c28.735,0,53.84-19.4,61.051-47.176c0.305-1.177,1.502-1.886,2.688-1.579
						c1.178,0.306,1.886,1.509,1.579,2.688C993.011,930.167,966.151,950.924,935.407,950.924z"/>
				</g>
				<g>
					<g>
						<path style="fill:#F2E6DC;" d="M1233.989,903.661h-20.444c-1.218,0-2.205-0.987-2.205-2.205v-4.234
							c-1.807-0.392-3.6-0.872-5.361-1.434l-2.115,3.665c-0.609,1.053-1.955,1.416-3.012,0.807l-17.705-10.222
							c-0.506-0.293-0.876-0.774-1.027-1.339c-0.152-0.565-0.072-1.167,0.22-1.673l2.123-3.678
							c-1.365-1.242-2.676-2.554-3.919-3.919l-3.678,2.123c-0.508,0.292-1.113,0.371-1.673,0.22
							c-0.565-0.151-1.047-0.521-1.339-1.027l-10.222-17.705c-0.608-1.055-0.248-2.403,0.807-3.012l3.665-2.115
							c-0.562-1.764-1.042-3.557-1.433-5.361h-4.235c-1.218,0-2.205-0.987-2.205-2.205v-20.444c0-1.218,0.987-2.205,2.205-2.205
							h4.235c0.391-1.804,0.871-3.597,1.433-5.361l-3.665-2.116c-1.055-0.609-1.416-1.957-0.807-3.012l10.222-17.705
							c0.293-0.506,0.774-0.876,1.339-1.027c0.566-0.152,1.168-0.071,1.673,0.22l3.678,2.124c1.242-1.365,2.553-2.675,3.92-3.919
							l-2.124-3.679c-0.608-1.055-0.246-2.403,0.807-3.012l17.705-10.222c0.506-0.293,1.11-0.371,1.673-0.22
							c0.565,0.151,1.046,0.521,1.339,1.027l2.115,3.666c1.763-0.563,3.557-1.043,5.361-1.434v-4.235
							c0-1.218,0.987-2.205,2.205-2.205h20.444c1.218,0,2.205,0.987,2.205,2.205v4.235c1.804,0.391,3.598,0.871,5.361,1.434
							l2.115-3.666c0.293-0.506,0.774-0.876,1.339-1.027c0.566-0.152,1.167-0.072,1.673,0.22l17.705,10.222
							c1.054,0.609,1.416,1.957,0.807,3.012l-2.124,3.679c1.367,1.243,2.677,2.554,3.92,3.919l3.678-2.124
							c0.506-0.293,1.109-0.372,1.673-0.22c0.565,0.151,1.047,0.521,1.339,1.027l10.222,17.705c0.608,1.055,0.248,2.403-0.807,3.012
							l-3.665,2.116c0.562,1.761,1.042,3.555,1.434,5.361h4.234c1.218,0,2.205,0.987,2.205,2.205v20.444
							c0,1.218-0.987,2.205-2.205,2.205h-4.234c-0.392,1.807-0.872,3.6-1.434,5.361l3.665,2.115
							c1.055,0.609,1.416,1.957,0.807,3.012l-10.222,17.705c-0.293,0.506-0.774,0.876-1.339,1.027
							c-0.562,0.153-1.166,0.072-1.673-0.22l-3.678-2.123c-1.242,1.365-2.554,2.676-3.919,3.919l2.123,3.678
							c0.292,0.506,0.371,1.108,0.22,1.673c-0.151,0.565-0.521,1.046-1.027,1.339l-17.705,10.222
							c-1.055,0.608-2.403,0.245-3.012-0.807l-2.115-3.665c-1.761,0.562-3.555,1.042-5.361,1.434v4.234
							C1236.194,902.674,1235.207,903.661,1233.989,903.661z M1215.75,899.251h16.035v-3.836c0-1.064,0.76-1.976,1.807-2.168
							c2.79-0.513,5.56-1.254,8.234-2.203c0.999-0.357,2.114,0.055,2.647,0.975l1.916,3.318l13.886-8.017l-1.923-3.33
							c-0.531-0.92-0.33-2.089,0.478-2.779c2.156-1.842,4.185-3.87,6.027-6.027c0.688-0.809,1.859-1.009,2.779-0.478l3.33,1.923
							l8.017-13.886l-3.318-1.916c-0.92-0.532-1.331-1.645-0.975-2.647c0.948-2.673,1.689-5.443,2.203-8.234
							c0.193-1.046,1.105-1.807,2.168-1.807h3.836v-16.034h-3.836c-1.064,0-1.976-0.76-2.168-1.807
							c-0.514-2.79-1.254-5.56-2.203-8.234c-0.355-1.002,0.055-2.115,0.975-2.647l3.318-1.916l-8.017-13.886l-3.33,1.923
							c-0.918,0.533-2.087,0.331-2.779-0.478c-1.84-2.154-3.868-4.181-6.027-6.026c-0.808-0.69-1.009-1.858-0.478-2.779l1.924-3.331
							l-13.887-8.017l-1.916,3.319c-0.534,0.919-1.649,1.331-2.647,0.975c-2.678-0.951-5.448-1.691-8.234-2.203
							c-1.046-0.192-1.807-1.105-1.807-2.168v-3.837h-16.035v3.837c0,1.064-0.76,1.977-1.806,2.168
							c-2.785,0.511-5.555,1.252-8.234,2.203c-1.001,0.356-2.114-0.056-2.647-0.975l-1.916-3.319l-13.887,8.017l1.924,3.331
							c0.531,0.92,0.331,2.089-0.478,2.779c-2.159,1.844-4.187,3.871-6.027,6.026c-0.688,0.808-1.861,1.01-2.779,0.478l-3.33-1.923
							l-8.017,13.886l3.318,1.916c0.921,0.532,1.331,1.644,0.975,2.646c-0.95,2.682-1.69,5.452-2.202,8.235
							c-0.192,1.047-1.105,1.807-2.168,1.807h-3.837v16.034h3.837c1.064,0,1.977,0.76,2.168,1.807
							c0.511,2.783,1.252,5.553,2.202,8.235c0.355,1.002-0.055,2.114-0.975,2.646l-3.318,1.916l8.017,13.886l3.33-1.923
							c0.918-0.53,2.089-0.331,2.779,0.478c1.842,2.156,3.87,4.185,6.027,6.027c0.808,0.69,1.009,1.858,0.478,2.779l-1.923,3.33
							l13.886,8.017l1.916-3.318c0.532-0.92,1.648-1.33,2.647-0.975c2.673,0.948,5.443,1.689,8.234,2.203
							c1.046,0.193,1.806,1.105,1.806,2.168V899.251z M1223.798,876.063c-9.493,0-18.583-3.624-25.465-10.505
							c-10.198-10.2-13.241-25.248-7.939-39.271c3.406-9.01,10.527-16.13,19.537-19.537c14.02-5.302,29.071-2.259,39.27,7.942
							c10.198,10.198,13.24,25.246,7.939,39.269c-3.406,9.01-10.527,16.13-19.536,19.537
							C1233.043,875.221,1228.374,876.063,1223.798,876.063z M1223.715,808.602c-4.049,0-8.183,0.746-12.226,2.274
							c-7.827,2.958-14.011,9.143-16.97,16.97c-4.681,12.382-2.025,25.636,6.932,34.593c8.956,8.956,22.21,11.614,34.592,6.933
							c7.827-2.958,14.012-9.143,16.97-16.97c4.681-12.381,2.025-25.635-6.931-34.592
							C1240.05,811.776,1232.068,808.602,1223.715,808.602z"/>
					</g>
				</g>
				<g>
					<g>
						<path style="fill:#D3BBA3;" d="M1222.097,987.96h-10.357c-0.927-5.049-2.25-9.958-3.931-14.699l8.963-5.175l-17.525-30.355
							l-8.984,5.187c-3.297-3.859-6.892-7.455-10.751-10.752l5.186-8.984l-30.355-17.526l-5.175,8.963
							c-4.74-1.681-9.65-3.004-14.698-3.931v-10.357h-35.051l0,10.357c-5.049,0.927-9.958,2.25-14.698,3.931l-5.175-8.963
							l-30.355,17.526l5.187,8.984c-3.859,3.297-7.455,6.892-10.751,10.752l-8.984-5.187l-17.525,30.355l8.963,5.175
							c-1.681,4.74-3.004,9.65-3.931,14.699h-10.357l0,35.051h10.357c0.927,5.049,2.25,9.958,3.931,14.699l-8.963,5.175
							l17.525,30.355l8.984-5.187c3.297,3.859,6.892,7.455,10.751,10.752l-5.187,8.984l30.355,17.526l5.175-8.963
							c4.74,1.681,9.65,3.004,14.698,3.931v10.357l35.051,0v-10.357c5.049-0.927,9.958-2.25,14.698-3.931l5.175,8.963l30.355-17.526
							l-5.186-8.984c3.859-3.297,7.455-6.892,10.751-10.752l8.984,5.187l17.525-30.355l-8.963-5.175
							c1.681-4.74,3.004-9.65,3.931-14.699h10.357V987.96z M1170.625,1027.874c-5.444,14.4-16.895,25.851-31.296,31.294
							c-48.929,18.496-94.565-27.14-76.067-76.07c5.444-14.401,16.895-25.851,31.296-31.295
							C1143.487,933.308,1189.123,978.944,1170.625,1027.874z"/>
					</g>
					<path style="fill:#F2E6DC;" d="M1116.943,1084.364c-43.495,0-78.879-35.385-78.879-78.878c0-38.726,28.834-72.259,67.07-78.001
						c1.195-0.183,2.328,0.646,2.507,1.853c0.181,1.204-0.648,2.326-1.853,2.507c-36.095,5.421-63.315,37.079-63.315,73.641
						c0,41.063,33.407,74.469,74.47,74.469c33.929,0,63.572-22.906,72.086-55.703c0.305-1.177,1.501-1.886,2.688-1.579
						c1.178,0.306,1.886,1.509,1.579,2.688C1184.278,1060.101,1152.88,1084.364,1116.943,1084.364z"/>
				</g>
				<g>
					<g>
						<path style="fill:#F2E6DC;" d="M1024.448,1226.619h-20.443c-1.218,0-2.205-0.987-2.205-2.205l-0.001-4.235
							c-1.804-0.391-3.598-0.871-5.36-1.434l-2.115,3.666c-0.293,0.506-0.774,0.876-1.339,1.027
							c-0.564,0.151-1.167,0.072-1.673-0.22l-17.705-10.222c-1.054-0.609-1.416-1.957-0.807-3.012l2.124-3.679
							c-1.366-1.242-2.677-2.554-3.92-3.919l-3.678,2.123c-0.505,0.294-1.11,0.374-1.673,0.221
							c-0.565-0.151-1.046-0.521-1.339-1.027l-10.222-17.705c-0.608-1.055-0.248-2.403,0.807-3.012l3.665-2.116
							c-0.563-1.763-1.043-3.556-1.434-5.361h-4.234c-1.218,0-2.205-0.987-2.205-2.205v-20.444c0-1.218,0.987-2.205,2.205-2.205
							h4.234c0.391-1.804,0.871-3.598,1.434-5.361l-3.665-2.115c-0.506-0.293-0.876-0.774-1.027-1.339
							c-0.152-0.565-0.072-1.167,0.22-1.673l10.222-17.705c0.293-0.506,0.774-0.876,1.339-1.027c0.564-0.151,1.168-0.072,1.673,0.22
							l3.678,2.123c1.242-1.365,2.554-2.676,3.919-3.919l-2.123-3.678c-0.292-0.506-0.371-1.108-0.22-1.673
							c0.151-0.565,0.521-1.046,1.027-1.339l17.705-10.222c0.506-0.293,1.109-0.371,1.673-0.22c0.565,0.151,1.046,0.521,1.339,1.027
							l2.115,3.665c1.76-0.562,3.554-1.042,5.36-1.434v-4.234c0-1.218,0.987-2.205,2.205-2.205h20.444
							c1.218,0,2.205,0.987,2.205,2.205v4.234c1.808,0.392,3.6,0.872,5.361,1.434l2.115-3.665c0.293-0.506,0.774-0.876,1.339-1.027
							c0.562-0.152,1.166-0.073,1.673,0.22l17.705,10.222c0.506,0.293,0.876,0.774,1.027,1.339c0.152,0.565,0.072,1.167-0.22,1.673
							l-2.123,3.678c1.365,1.242,2.676,2.554,3.919,3.919l3.678-2.123c0.506-0.293,1.109-0.372,1.673-0.22
							c0.565,0.151,1.046,0.521,1.339,1.027l10.222,17.705c0.292,0.506,0.371,1.108,0.22,1.673
							c-0.151,0.565-0.521,1.046-1.027,1.339l-3.665,2.115c0.563,1.763,1.043,3.557,1.434,5.361h4.234
							c1.218,0,2.205,0.987,2.205,2.205v20.444c0,1.218-0.987,2.205-2.205,2.205h-4.234c-0.391,1.805-0.871,3.598-1.434,5.361
							l3.665,2.116c1.055,0.609,1.416,1.957,0.807,3.012l-10.222,17.705c-0.293,0.506-0.774,0.876-1.339,1.027
							c-0.565,0.152-1.168,0.071-1.673-0.221l-3.678-2.123c-1.242,1.365-2.554,2.676-3.92,3.919l2.124,3.679
							c0.608,1.055,0.246,2.403-0.807,3.012l-17.705,10.222c-0.507,0.292-1.111,0.37-1.673,0.22
							c-0.565-0.151-1.047-0.521-1.339-1.027l-2.115-3.666c-1.763,0.563-3.556,1.043-5.361,1.434v4.235
							C1026.653,1225.632,1025.666,1226.619,1024.448,1226.619z M1006.209,1222.209l16.034,0.001v-3.837
							c0-1.065,0.76-1.977,1.806-2.168c2.785-0.511,5.556-1.252,8.235-2.203c1-0.357,2.114,0.055,2.647,0.975l1.915,3.319
							l13.887-8.017l-1.924-3.331c-0.531-0.92-0.33-2.089,0.478-2.779c2.156-1.842,4.185-3.87,6.027-6.027
							c0.688-0.809,1.861-1.011,2.779-0.477l3.331,1.923l8.016-13.886l-3.318-1.916c-0.92-0.532-1.331-1.645-0.975-2.647
							c0.951-2.679,1.691-5.449,2.203-8.234c0.192-1.046,1.104-1.806,2.168-1.806h3.836v-16.035h-3.836
							c-1.064,0-1.977-0.76-2.168-1.806c-0.511-2.784-1.252-5.555-2.203-8.236c-0.355-1.001,0.055-2.114,0.975-2.646l3.318-1.915
							l-8.017-13.886l-3.33,1.923c-0.916,0.532-2.088,0.33-2.779-0.478c-1.842-2.156-3.87-4.185-6.027-6.027
							c-0.808-0.69-1.009-1.858-0.478-2.779l1.923-3.33l-13.886-8.017l-1.915,3.318c-0.534,0.922-1.649,1.331-2.647,0.975
							c-2.673-0.948-5.444-1.689-8.235-2.203c-1.046-0.192-1.806-1.105-1.806-2.168v-3.836h-16.033l-0.001,3.836
							c0,1.064-0.76,1.975-1.807,2.168c-2.79,0.513-5.56,1.254-8.234,2.203c-1.003,0.354-2.116-0.055-2.647-0.975l-1.915-3.318
							l-13.886,8.017l1.923,3.33c0.531,0.921,0.331,2.089-0.478,2.779c-2.156,1.842-4.185,3.87-6.027,6.027
							c-0.689,0.807-1.859,1.009-2.779,0.478l-3.33-1.923l-8.017,13.886l3.318,1.915c0.92,0.532,1.331,1.645,0.975,2.646
							c-0.951,2.681-1.691,5.452-2.203,8.236c-0.192,1.046-1.105,1.806-2.168,1.806H955.1v16.035h3.836
							c1.064,0,1.977,0.76,2.168,1.806c0.511,2.785,1.252,5.555,2.203,8.234c0.355,1.002-0.055,2.115-0.975,2.647l-3.318,1.916
							l8.016,13.886l3.331-1.923c0.92-0.533,2.09-0.331,2.779,0.477c1.842,2.156,3.87,4.185,6.027,6.027
							c0.808,0.69,1.009,1.858,0.478,2.779l-1.924,3.331l13.887,8.017l1.915-3.319c0.531-0.922,1.643-1.333,2.647-0.975
							c2.678,0.951,5.448,1.691,8.234,2.203c1.047,0.192,1.807,1.104,1.807,2.168V1222.209z M1014.259,1199.021
							c-9.494,0-18.584-3.624-25.466-10.507c-10.198-10.198-13.24-25.246-7.939-39.269c3.406-9.01,10.527-16.13,19.536-19.536
							c14.021-5.301,29.072-2.26,39.271,7.941c10.198,10.198,13.24,25.247,7.939,39.27c-3.406,9.009-10.527,16.129-19.537,19.537
							C1023.504,1198.18,1018.834,1199.021,1014.259,1199.021z M1014.176,1131.559c-4.049,0-8.183,0.746-12.227,2.275
							c-7.827,2.958-14.012,9.143-16.97,16.97c-4.681,12.381-2.025,25.635,6.931,34.592c8.956,8.957,22.207,11.616,34.595,6.934
							c7.826-2.96,14.012-9.144,16.97-16.97c4.681-12.381,2.025-25.636-6.932-34.594
							C1030.511,1134.735,1022.527,1131.559,1014.176,1131.559z M1045.537,1176.14h0.021H1045.537z"/>
					</g>
				</g>
				<g>
					<g>
						<path style="fill:#F7F1EB;" d="M1228.546,1214.22h-6.041c-0.541-2.945-1.312-5.808-2.293-8.573l5.228-3.018l-10.222-17.705
							l-5.24,3.025c-1.923-2.251-4.02-4.348-6.271-6.271l3.025-5.24l-17.705-10.222l-3.018,5.228
							c-2.765-0.981-5.628-1.752-8.573-2.293v-6.041h-20.444l0,6.041c-2.945,0.541-5.808,1.313-8.573,2.293l-3.018-5.228
							l-17.705,10.222l3.025,5.24c-2.251,1.923-4.348,4.02-6.271,6.271l-5.24-3.025l-10.222,17.705l5.228,3.018
							c-0.98,2.765-1.752,5.628-2.293,8.573h-6.041v20.444h6.041c0.541,2.945,1.313,5.808,2.293,8.573l-5.228,3.018l10.222,17.705
							l5.24-3.025c1.923,2.251,4.02,4.348,6.271,6.271l-3.025,5.24l17.705,10.222l3.018-5.228c2.765,0.981,5.629,1.752,8.573,2.293
							v6.041l20.444,0v-6.041c2.945-0.541,5.808-1.312,8.573-2.293l3.018,5.228l17.705-10.222l-3.025-5.24
							c2.251-1.923,4.348-4.02,6.271-6.271l5.24,3.025l10.222-17.705l-5.228-3.018c0.98-2.765,1.752-5.628,2.293-8.573h6.041
							V1214.22z M1198.524,1237.501c-3.175,8.399-9.854,15.078-18.254,18.253c-28.538,10.788-55.156-15.83-44.367-44.369
							c3.175-8.399,9.854-15.078,18.254-18.253C1182.696,1182.344,1209.313,1208.962,1198.524,1237.501z"/>
					</g>
					<path style="fill:#F2E6DC;" d="M1167.214,1271.368c-25.875,0-46.926-21.05-46.926-46.926c0-23.039,17.154-42.988,39.901-46.404
						c1.189-0.183,2.327,0.646,2.507,1.853c0.181,1.204-0.648,2.326-1.853,2.507c-20.607,3.095-36.146,21.17-36.146,42.043
						c0,23.443,19.073,42.516,42.516,42.516c19.371,0,36.294-13.077,41.155-31.801c0.305-1.178,1.501-1.888,2.688-1.579
						c1.178,0.306,1.885,1.509,1.579,2.688C1207.272,1256.933,1188.593,1271.368,1167.214,1271.368z"/>
				</g>
			</g>
		</g>
		<g>
			<g>
				<rect x="637.547" y="1606.648" style="fill:#E0AA63;" width="49.678" height="93.487"/>
				<path style="fill:#363E44;" d="M687.225,1649.382h-49.678c-1.218,0-2.205-0.987-2.205-2.205c0-1.218,0.987-2.205,2.205-2.205
					h49.678c1.218,0,2.205,0.987,2.205,2.205C689.43,1648.394,688.443,1649.382,687.225,1649.382z"/>
				<path style="fill:#363E44;" d="M687.225,1670.218h-49.678c-1.218,0-2.205-0.987-2.205-2.205c0-1.218,0.987-2.205,2.205-2.205
					h49.678c1.218,0,2.205,0.987,2.205,2.205C689.43,1669.23,688.443,1670.218,687.225,1670.218z"/>
			</g>
			<g>
				<path style="fill:#EFBC73;" d="M479.664,1184.035v243.478c0,114.633,92.928,207.561,207.561,207.561
					c114.633,0,207.561-92.928,207.561-207.561v-243.478H479.664z"/>
				<g>
					<g>
						<path style="fill:#363E44;" d="M465.925,1436.529h-27.96v-143.528h27.96V1436.529z M442.375,1432.12h19.14V1297.41h-19.14
							V1432.12z"/>
						<path style="fill:#363E44;" d="M442.375,1424.006h-11.8c-21.895,0-39.709-17.814-39.709-39.711v-39.06
							c0-21.895,17.814-39.709,39.709-39.709h11.8V1424.006z M430.575,1309.935c-19.464,0-35.3,15.835-35.3,35.3v39.06
							c0,19.465,15.835,35.301,35.3,35.301h7.391v-109.661H430.575z"/>
					</g>
					<g>
						<path style="fill:#363E44;" d="M581.061,1578.155H449.74v-134.392c0-1.218,0.987-2.205,2.205-2.205
							c1.218,0,2.205,0.987,2.205,2.205v129.982h126.912c1.218,0,2.205,0.987,2.205,2.205S582.279,1578.155,581.061,1578.155z"/>
						
							<ellipse transform="matrix(0.1534 -0.9882 0.9882 0.1534 -1061.1876 1913.2423)" style="fill:#363E44;" cx="586.01" cy="1575.95" rx="37.471" ry="37.471"/>
					</g>
				</g>
				<g>
					<path style="fill:#363E44;" d="M574.972,1425.876l273.535,1.528c25.818,0.144,46.869-20.661,47.028-46.479l0.148-23.93
						c0.16-25.84-20.666-46.912-46.506-47.056l-273.535-1.528c-25.818-0.144-46.869,20.661-47.028,46.479l-0.148,23.93
						C528.307,1404.66,549.133,1425.732,574.972,1425.876z"/>
					<path style="fill:#FFFFFF;" d="M876.271,1429.764c-0.094,0-0.184-0.001-0.278-0.001l-273.534-1.529
						c-13.087-0.073-25.361-5.24-34.559-14.547c-9.199-9.308-14.221-21.641-14.141-34.728l0.149-23.93
						c0.166-26.893,22.107-48.671,48.967-48.671c0.094,0,0.184,0.001,0.278,0.001l273.535,1.529
						c13.087,0.073,25.36,5.24,34.559,14.547c9.198,9.308,14.22,21.641,14.14,34.728l-0.148,23.93
						C925.073,1407.986,903.131,1429.762,876.271,1429.764z M602.876,1310.769c-24.444,0-44.408,19.815-44.558,44.289l-0.148,23.93
						c-0.073,11.908,4.496,23.13,12.867,31.6c8.37,8.47,19.539,13.171,31.447,13.238l273.534,1.529c0.084,0,0.169,0.001,0.253,0.001
						c24.444,0,44.409-19.815,44.559-44.289l0.147-23.93c0.073-11.908-4.496-23.13-12.866-31.6
						c-8.371-8.47-19.539-13.171-31.447-13.237l-273.535-1.529C603.045,1310.77,602.96,1310.769,602.876,1310.769z"/>
					<path style="fill:#FFFFFF;" d="M833.36,1404.991c-1.218,0-2.315-0.986-2.315-2.204c0-1.184,0.83-2.15,1.995-2.203
						c0.884-0.037,1.557-0.019,2.213-0.058c1.245-0.065,2.259,0.859,2.33,2.073c0.07,1.217-0.858,2.259-2.074,2.33
						C834.799,1404.971,834.083,1404.991,833.36,1404.991z M822.127,1403.119c-0.239,0-0.482-0.04-0.721-0.123
						c-0.755-0.261-1.499-0.545-2.231-0.853c-1.122-0.473-1.648-1.766-1.177-2.888c0.474-1.122,1.763-1.648,2.888-1.177
						c0.644,0.271,1.297,0.521,1.962,0.751c1.151,0.397,1.76,1.654,1.362,2.804C823.895,1402.546,823.041,1403.119,822.127,1403.119
						z M846.284,1402.482c-0.872,0-1.697-0.52-2.044-1.377c-0.458-1.128,0.086-2.415,1.214-2.872c0.65-0.264,1.29-0.548,1.917-0.853
						c1.096-0.531,2.415-0.076,2.947,1.02c0.532,1.096,0.075,2.415-1.02,2.947c-0.716,0.348-1.446,0.673-2.187,0.973
						C846.841,1402.429,846.56,1402.482,846.284,1402.482z M810.578,1396.365c-0.519,0-1.04-0.182-1.46-0.553
						c-0.596-0.527-1.176-1.075-1.737-1.642c-0.856-0.866-0.849-2.262,0.016-3.119c0.866-0.856,2.262-0.847,3.119,0.016
						c0.492,0.497,1,0.979,1.523,1.442c0.912,0.806,0.997,2.201,0.19,3.112C811.794,1396.113,811.188,1396.365,810.578,1396.365z
						 M857.468,1395.128c-0.571,0-1.141-0.221-1.573-0.66c-0.854-0.869-0.841-2.265,0.028-3.118c0.5-0.491,0.983-0.997,1.448-1.518
						c0.809-0.91,2.204-0.99,3.112-0.178c0.909,0.81,0.988,2.204,0.178,3.112c-0.53,0.594-1.08,1.171-1.648,1.729
						C858.583,1394.918,858.026,1395.128,857.468,1395.128z M802.48,1385.715c-0.817,0-1.602-0.454-1.984-1.238
						c-0.348-0.714-0.674-1.441-0.977-2.182c-0.461-1.127,0.08-2.415,1.207-2.876c1.129-0.458,2.416,0.081,2.876,1.207
						c0.266,0.65,0.551,1.29,0.858,1.917c0.534,1.094,0.08,2.415-1.015,2.949C803.133,1385.644,802.804,1385.715,802.48,1385.715z
						 M865.003,1384.074c-0.287,0-0.58-0.057-0.862-0.177c-1.121-0.477-1.642-1.772-1.166-2.893
						c0.273-0.642,0.525-1.293,0.757-1.955c0.403-1.149,1.659-1.754,2.81-1.352c1.149,0.403,1.755,1.66,1.352,2.81
						c-0.264,0.752-0.55,1.494-0.86,2.224C866.676,1383.571,865.861,1384.074,865.003,1384.074z M799.089,1372.767
						c-1.159,0-2.132-0.905-2.199-2.078c-0.041-0.712-0.061-1.43-0.061-2.153c0-0.017,0-0.25,0.001-0.267
						c0.027-1.199,1.009-2.224,2.206-2.224c0.008,0,0.015,0,0.024,0c1.208,0.014,2.18,0.927,2.18,2.135
						c0,0.017-0.001,0.173-0.002,0.191c0.001,0.803,0.019,1.437,0.056,2.065c0.07,1.215-0.858,2.257-2.075,2.329
						C799.175,1372.766,799.132,1372.767,799.089,1372.767z M867.716,1370.835c-1.218,0-2.205-0.845-2.205-2.063v-0.069
						c0-0.83-0.017-1.441-0.053-2.047c-0.07-1.217,0.858-2.259,2.073-2.33c1.255-0.061,2.259,0.859,2.33,2.073
						c0.04,0.692,0.059,1.387,0.059,2.086C869.921,1369.704,868.933,1370.835,867.716,1370.835z M800.96,1359.383
						c-0.242,0-0.488-0.041-0.73-0.125c-1.149-0.404-1.754-1.661-1.351-2.811c0.264-0.753,0.553-1.494,0.866-2.224
						c0.478-1.121,1.774-1.636,2.894-1.161c1.12,0.479,1.64,1.774,1.16,2.894c-0.273,0.639-0.526,1.291-0.758,1.951
						C802.722,1358.815,801.87,1359.383,800.96,1359.383z M865.215,1357.833c-0.872,0-1.697-0.52-2.044-1.377
						c-0.264-0.65-0.548-1.29-0.853-1.917c-0.532-1.096-0.075-2.415,1.02-2.947c1.096-0.53,2.415-0.076,2.946,1.019
						c0.348,0.716,0.673,1.446,0.973,2.187c0.458,1.128-0.086,2.415-1.214,2.872C865.771,1357.78,865.49,1357.833,865.215,1357.833z
						 M807.778,1347.877c-0.523,0-1.047-0.185-1.468-0.561c-0.908-0.812-0.986-2.206-0.174-3.114
						c0.532-0.594,1.083-1.17,1.654-1.728c0.871-0.853,2.265-0.837,3.118,0.035c0.852,0.871,0.836,2.266-0.034,3.118
						c-0.5,0.489-0.984,0.994-1.449,1.515C808.987,1347.628,808.384,1347.877,807.778,1347.877z M857.849,1346.657
						c-0.57,0-1.139-0.22-1.57-0.657c-0.492-0.498-0.999-0.981-1.521-1.445c-0.911-0.809-0.993-2.202-0.184-3.112
						c0.806-0.911,2.201-0.994,3.112-0.184c0.595,0.529,1.174,1.078,1.732,1.645c0.856,0.868,0.845,2.263-0.021,3.118
						C858.968,1346.446,858.408,1346.657,857.849,1346.657z M818.476,1339.835c-0.82,0-1.608-0.46-1.988-1.25
						c-0.528-1.097-0.066-2.415,1.032-2.942c0.716-0.344,1.445-0.667,2.186-0.966c1.131-0.458,2.414,0.09,2.869,1.22
						c0.455,1.129-0.09,2.414-1.22,2.869c-0.652,0.264-1.293,0.548-1.925,0.852C819.122,1339.765,818.796,1339.835,818.476,1339.835
						z M846.781,1339.144c-0.286,0-0.578-0.057-0.858-0.175c-0.643-0.272-1.296-0.524-1.959-0.755
						c-1.15-0.401-1.758-1.657-1.358-2.807c0.399-1.151,1.654-1.762,2.807-1.357c0.754,0.263,1.497,0.549,2.229,0.858
						c1.122,0.475,1.646,1.769,1.171,2.89C848.457,1338.638,847.64,1339.144,846.781,1339.144z M831.433,1336.495
						c-1.161,0-2.133-0.906-2.199-2.08c-0.069-1.217,0.861-2.258,2.077-2.327c0.689-0.039,1.382-0.058,2.08-0.058
						c1.218,0,2.349,0.987,2.349,2.205s-0.843,2.205-2.06,2.205h-0.093c-0.81,0-1.421,0.017-2.026,0.052
						C831.517,1336.494,831.475,1336.495,831.433,1336.495z"/>
					<path style="fill:#FFFFFF;" d="M620.245,1403.802c-1.218,0-2.314-0.987-2.314-2.205c0-1.218,0.877-2.205,2.095-2.205h0.023
						c0.832,0,1.465-0.018,2.091-0.055c1.24-0.047,2.259,0.858,2.33,2.073c0.07,1.216-0.858,2.259-2.073,2.33
						C621.685,1403.781,620.968,1403.802,620.245,1403.802z M609.013,1401.928c-0.239,0-0.482-0.04-0.721-0.123
						c-0.755-0.261-1.499-0.545-2.231-0.853c-1.122-0.473-1.648-1.766-1.177-2.888c0.474-1.123,1.762-1.646,2.888-1.177
						c0.644,0.271,1.297,0.521,1.961,0.751c1.151,0.397,1.76,1.654,1.362,2.804C610.781,1401.356,609.927,1401.928,609.013,1401.928
						z M633.172,1401.292c-0.872,0-1.697-0.52-2.044-1.377c-0.458-1.128,0.086-2.415,1.214-2.872c0.65-0.264,1.29-0.548,1.917-0.853
						c1.095-0.532,2.415-0.077,2.947,1.02c0.532,1.096,0.075,2.415-1.02,2.947c-0.716,0.348-1.446,0.673-2.187,0.973
						C633.728,1401.239,633.447,1401.292,633.172,1401.292z M597.464,1395.174c-0.519,0-1.04-0.182-1.46-0.553
						c-0.596-0.527-1.176-1.075-1.737-1.642c-0.856-0.866-0.849-2.262,0.016-3.119c0.866-0.855,2.263-0.847,3.118,0.016
						c0.493,0.497,1.001,0.979,1.524,1.442c0.912,0.806,0.997,2.2,0.191,3.112C598.68,1394.922,598.074,1395.174,597.464,1395.174z
						 M644.354,1393.937c-0.571,0-1.141-0.221-1.573-0.66c-0.854-0.869-0.841-2.265,0.028-3.118c0.5-0.491,0.983-0.997,1.448-1.518
						c0.809-0.91,2.204-0.991,3.112-0.178c0.909,0.81,0.988,2.204,0.178,3.112c-0.53,0.594-1.08,1.171-1.648,1.729
						C645.469,1393.727,644.912,1393.937,644.354,1393.937z M589.366,1384.525c-0.817,0-1.602-0.454-1.984-1.238
						c-0.348-0.714-0.674-1.442-0.976-2.182c-0.461-1.127,0.08-2.415,1.207-2.875c1.132-0.459,2.416,0.08,2.875,1.207
						c0.266,0.65,0.551,1.29,0.858,1.917c0.534,1.094,0.08,2.415-1.015,2.949C590.019,1384.453,589.69,1384.525,589.366,1384.525z
						 M651.89,1382.885c-0.287,0-0.58-0.057-0.862-0.177c-1.121-0.477-1.642-1.772-1.166-2.893c0.273-0.642,0.525-1.293,0.757-1.955
						c0.401-1.149,1.659-1.754,2.81-1.352c1.149,0.403,1.755,1.66,1.352,2.81c-0.264,0.753-0.55,1.494-0.86,2.224
						C653.563,1382.381,652.748,1382.885,651.89,1382.885z M585.976,1371.577c-1.159,0-2.132-0.905-2.199-2.078
						c-0.041-0.713-0.062-1.431-0.062-2.155c0-0.017,0-0.248,0.001-0.265c0.027-1.199,1.009-2.225,2.206-2.225
						c0.008,0,0.015,0,0.024,0c1.208,0.014,2.18,0.926,2.18,2.134c0,0.017-0.001,0.176-0.002,0.193
						c0.001,0.802,0.021,1.436,0.057,2.065c0.07,1.215-0.859,2.257-2.075,2.329C586.062,1371.575,586.019,1371.577,585.976,1371.577
						z M656.806,1367.617l-4.409-0.035c0-0.034,0.002-0.14,0.003-0.174c-0.002-0.726-0.019-1.335-0.055-1.941
						c-0.07-1.216,0.858-2.259,2.073-2.33c1.249-0.044,2.259,0.858,2.33,2.073c0.04,0.69,0.059,1.385,0.059,2.085
						C656.808,1367.33,656.807,1367.582,656.806,1367.617z M587.846,1358.19c-0.243,0-0.49-0.041-0.732-0.126
						c-1.149-0.405-1.752-1.663-1.348-2.812c0.265-0.753,0.553-1.493,0.866-2.222c0.478-1.121,1.779-1.641,2.894-1.161
						c1.12,0.479,1.64,1.774,1.16,2.894c-0.273,0.641-0.527,1.293-0.76,1.953C589.606,1357.623,588.755,1358.19,587.846,1358.19z
						 M652.103,1356.643c-0.872,0-1.697-0.52-2.044-1.377c-0.264-0.65-0.548-1.29-0.853-1.917c-0.532-1.096-0.075-2.415,1.019-2.947
						c1.097-0.531,2.414-0.076,2.947,1.02c0.348,0.716,0.673,1.446,0.973,2.187c0.458,1.128-0.086,2.415-1.214,2.872
						C652.66,1356.591,652.379,1356.643,652.103,1356.643z M594.665,1346.684c-0.524,0-1.051-0.186-1.472-0.564
						c-0.906-0.813-0.982-2.207-0.168-3.113c0.532-0.592,1.082-1.167,1.651-1.724c0.871-0.853,2.265-0.838,3.118,0.034
						c0.852,0.871,0.837,2.266-0.034,3.118c-0.501,0.49-0.986,0.996-1.453,1.517C595.872,1346.438,595.27,1346.684,594.665,1346.684
						z M644.737,1345.469c-0.57,0-1.139-0.22-1.57-0.657c-0.492-0.499-0.999-0.981-1.521-1.445
						c-0.911-0.808-0.993-2.202-0.184-3.112c0.807-0.911,2.202-0.995,3.112-0.184c0.595,0.529,1.174,1.078,1.732,1.645
						c0.856,0.868,0.845,2.263-0.021,3.118C645.856,1345.258,645.296,1345.469,644.737,1345.469z M605.363,1338.643
						c-0.82,0-1.607-0.46-1.987-1.248c-0.529-1.097-0.068-2.415,1.029-2.943c0.716-0.344,1.446-0.669,2.188-0.967
						c1.132-0.459,2.414,0.09,2.869,1.22c0.455,1.129-0.09,2.414-1.22,2.869c-0.651,0.264-1.293,0.547-1.923,0.85
						C606.01,1338.573,605.684,1338.643,605.363,1338.643z M633.668,1337.953c-0.286,0-0.578-0.057-0.858-0.176
						c-0.643-0.272-1.296-0.524-1.959-0.755c-1.15-0.401-1.758-1.657-1.358-2.807c0.399-1.151,1.654-1.76,2.807-1.357
						c0.754,0.263,1.498,0.549,2.228,0.858c1.122,0.475,1.646,1.769,1.171,2.89C635.344,1337.447,634.527,1337.953,633.668,1337.953
						z M618.321,1335.305c-1.161,0-2.133-0.906-2.199-2.08c-0.069-1.215,0.861-2.258,2.077-2.326
						c0.687-0.039,1.38-0.058,2.078-0.058c1.218,0,2.35,0.987,2.35,2.205c0,1.218-0.843,2.205-2.06,2.205h-0.094
						c-0.81,0-1.419,0.017-2.024,0.052C618.405,1335.304,618.363,1335.305,618.321,1335.305z"/>
				</g>
				<path style="fill:#363E44;" d="M690.347,1532.804c-41.526,0-54.75-37.484-54.889-37.893c-0.39-1.153,0.227-2.402,1.378-2.795
					c1.151-0.391,2.404,0.223,2.798,1.376c0.567,1.664,14.451,40.678,60.643,34.183c1.2-0.173,2.32,0.67,2.49,1.877
					c0.17,1.206-0.671,2.321-1.876,2.49C697.191,1532.562,693.676,1532.804,690.347,1532.804z"/>
			</g>
			<g>
				<g>
					<rect x="336.959" y="1682.386" style="fill:#EFBC73;" width="627.291" height="134.08"/>
					<rect x="420.131" y="1775.98" style="fill:#EFBC73;" width="460.947" height="385.247"/>
				</g>
				<path style="fill:#E0AA63;" d="M466.444,2158.501c-1.218,0-2.205-0.987-2.205-2.205v-406.87c0-1.218,0.987-2.205,2.205-2.205
					H741.11c1.218,0,2.205,0.987,2.205,2.205v92.386c0,1.218-0.987,2.205-2.205,2.205s-2.205-0.987-2.205-2.205v-90.181H468.649
					v404.665C468.649,2157.514,467.662,2158.501,466.444,2158.501z"/>
				<path style="fill:#363E44;" d="M1118.262,2091.298c-0.082,0-0.164-0.004-0.245-0.013c-1.211-0.135-2.083-1.224-1.95-2.434
					l24.271-219.223l-177.409-132.775c-0.975-0.73-1.174-2.112-0.445-3.087c0.731-0.975,2.112-1.173,3.087-0.445l179.427,134.286
					l-0.138,1.252l-24.409,220.474C1120.326,2090.464,1119.371,2091.298,1118.262,2091.298z"/>
				<g>
					<polygon style="fill:#FFFFFF;" points="917.428,2070.948 867.321,2010.133 845.487,2038.798 					"/>
					<polygon style="fill:#363E44;" points="886.909,2057.196 917.067,2070.673 896.062,2045.179 					"/>
					<path style="fill:#D87355;" d="M505.546,1764.355l6.887-9.042c4.128-5.419,11.867-6.466,17.285-2.338l337.603,257.157
						l-21.834,28.665l-337.603-257.157C502.465,1777.513,501.418,1769.774,505.546,1764.355z"/>
					<path style="fill:#363E44;" d="M859.635,2022.671c-0.465,0-0.934-0.146-1.334-0.451l-291.796-222.265
						c-0.969-0.738-1.156-2.121-0.418-3.09c0.737-0.967,2.12-1.158,3.09-0.418l291.796,222.265c0.969,0.737,1.156,2.121,0.418,3.09
						C860.957,2022.372,860.3,2022.671,859.635,2022.671z"/>
					<path style="fill:#363E44;" d="M850.253,2034.99c-0.466,0-0.935-0.146-1.335-0.451l-291.796-222.266
						c-0.969-0.738-1.156-2.121-0.418-3.09c0.737-0.968,2.12-1.158,3.09-0.418l291.796,222.266c0.969,0.737,1.156,2.121,0.418,3.09
						C851.574,2034.691,850.917,2034.99,850.253,2034.99z"/>
					<path style="fill:#363E44;" d="M553.807,1818.828c-0.465,0-0.935-0.146-1.334-0.451c-0.969-0.737-1.156-2.121-0.418-3.09
						l21.834-28.665c0.737-0.968,2.119-1.157,3.09-0.418c0.969,0.737,1.156,2.121,0.418,3.09l-21.834,28.665
						C555.129,1818.528,554.472,1818.828,553.807,1818.828z"/>
					<path style="fill:#363E44;" d="M536.447,1805.604c-0.465,0-0.935-0.146-1.334-0.451c-0.969-0.737-1.156-2.121-0.418-3.09
						l21.834-28.665c0.736-0.968,2.119-1.158,3.09-0.418c0.969,0.737,1.156,2.121,0.418,3.09l-21.834,28.665
						C537.769,1805.305,537.112,1805.604,536.447,1805.604z"/>
				</g>
				<g>
					<path style="fill:#363E44;" d="M366.2,2131.284v-381.858c0-1.218,0.987-2.205,2.205-2.205c1.218,0,2.205,0.987,2.205,2.205
						v375.125l311.761-135.969c1.12-0.484,2.416,0.024,2.902,1.139c0.487,1.116-0.024,2.416-1.139,2.902L366.2,2131.284z"/>
					
						<ellipse transform="matrix(0.4733 -0.8809 0.8809 0.4733 -1390.7852 1652.4309)" style="fill:#363E44;" cx="686.362" cy="1989.183" rx="16.667" ry="16.667"/>
					<path style="fill:#363E44;" d="M704.905,1969.606c-0.837,0-1.636-0.478-2.007-1.289c-0.506-1.108-0.018-2.416,1.089-2.922
						l54.652-24.97l-16.181-35.414c-0.506-1.108-0.018-2.416,1.089-2.922c1.106-0.504,2.415-0.018,2.922,1.089l18.013,39.425
						l-58.663,26.802C705.523,1969.542,705.212,1969.606,704.905,1969.606z"/>
					<path style="fill:#363E44;" d="M713.959,1989.42c-0.836,0-1.636-0.478-2.007-1.289c-0.506-1.108-0.018-2.416,1.089-2.922
						l76.002-34.725l-25.234-55.228c-0.506-1.108-0.018-2.416,1.09-2.922c1.106-0.505,2.416-0.019,2.922,1.089l27.066,59.239
						l-80.013,36.557C714.577,1989.356,714.266,1989.42,713.959,1989.42z"/>
				</g>
				<g>
					<g>
						<path style="fill:#FFFFFF;" d="M774.114,2139.195c-0.246,0-0.495-0.042-0.74-0.129c-1.148-0.408-1.746-1.67-1.337-2.816
							l122.284-343.335c0.312-0.88,1.144-1.465,2.077-1.465c0.006,0,0.013,0,0.019,0l268.084,2.345
							c1.218,0.011,2.196,1.007,2.185,2.224c-0.011,1.211-0.996,2.186-2.205,2.186c-0.006,0-0.013,0-0.019,0l-266.514-2.331
							l-121.757,341.856C775.87,2138.631,775.021,2139.195,774.114,2139.195z"/>
					</g>
					<g>
						<polygon style="fill:#FFFFFF;" points="1062.345,2160.431 794.261,2160.431 916.545,1817.097 1184.628,1817.097 						"/>
					</g>
				</g>
				<g>
					<path style="fill:#363E44;" d="M1101.609,2088.313c-0.431,9.195,6.674,16.999,15.869,17.429
						c9.195,0.431,16.998-6.674,17.429-15.869c0.431-9.195-6.674-16.998-15.869-17.429
						C1109.844,2072.013,1102.041,2079.118,1101.609,2088.313z"/>
					<path style="fill:#363E44;" d="M1092.939,2077.991c-0.035,0-0.07-0.001-0.105-0.002l-64.425-3.02l2.029-43.298
						c0.058-1.216,1.12-2.115,2.306-2.099c1.216,0.057,2.156,1.089,2.099,2.306l-1.823,38.892l60.02,2.813
						c1.217,0.057,2.156,1.089,2.099,2.306C1095.083,2077.07,1094.109,2077.991,1092.939,2077.991z"/>
					<path style="fill:#363E44;" d="M1091.918,2099.751c-0.036,0-0.07-0.001-0.106-0.002l-87.873-4.119l3.05-65.058
						c0.058-1.217,1.11-2.112,2.306-2.099c1.217,0.057,2.156,1.09,2.099,2.306l-2.843,60.653l83.468,3.912
						c1.217,0.057,2.156,1.09,2.099,2.306C1094.063,2098.831,1093.089,2099.751,1091.918,2099.751z"/>
				</g>
			</g>
		</g>
		<path style="fill:#D87355;" d="M602.04,1122.857h-4.41v-22.048h4.41V1122.857z M602.04,1078.761h-4.41v-22.048h4.41V1078.761z
			 M602.04,1034.664h-4.41v-22.048h4.41V1034.664z M602.04,990.568h-4.41V968.52h4.41V990.568z M602.04,946.472h-4.41v-22.048h4.41
			V946.472z M602.04,902.375h-4.41v-22.048h4.41V902.375z M602.04,858.279h-4.41v-22.048h4.41V858.279z M602.04,814.182h-4.41
			v-22.048h4.41V814.182z M602.04,770.086h-4.41v-22.048h4.41V770.086z M602.04,725.99h-4.41v-22.048h4.41V725.99z M795.091,693.243
			h-9.726v-4.41h9.726V693.243z M763.317,693.243h-22.048v-4.41h22.048V693.243z M719.221,693.243h-22.048v-4.41h22.048V693.243z
			 M675.125,693.243h-22.048v-4.41h22.048V693.243z M631.028,693.243H608.98v-4.41h22.048V693.243z"/>
		<g>
			<g>
				<g>
					<path style="fill:#ff6900;" d="M2061.671,2164.704l-34.356-242.829l-51.411-454.889c0,0-298.794-14.385-466.52-7.199
						c-38.373,1.644-75.079,16.141-104.384,40.97c-174.191,147.587-180.125,307.048-93.393,370.253
						c50.896,37.091,82.994,42.673,115.216,49.356l-40.284,244.339H2061.671z"/>
					<path style="fill:#ff6900;" d="M1975.904,1466.985l-43.762,485.565c0,0,125.315,42.048,185.625-72.264
						C2178.076,1765.974,2207.428,1474.79,1975.904,1466.985z"/>
					<path style="fill:#363E44;" d="M1473.323,1925.591c-23.418,0-40.406-1.792-40.804-1.864c-1.199-0.213-1.998-1.359-1.784-2.557
						c0.213-1.197,1.359-1.995,2.552-1.785c1.012,0.17,108.638,11.348,155.216-23.659c0.973-0.731,2.358-0.535,3.087,0.438
						c0.732,0.973,0.536,2.355-0.438,3.087C1561.896,1921.241,1509.807,1925.591,1473.323,1925.591z"/>
					<path style="fill:#363E44;" d="M1963.196,1965.872c-60.885,0-97.628-24.984-98.13-25.335c-0.997-0.697-1.241-2.07-0.545-3.068
						c0.697-0.999,2.073-1.242,3.068-0.548c0.676,0.47,68.818,46.665,173.708,11.122c1.156-0.383,2.405,0.228,2.796,1.381
						c0.391,1.153-0.227,2.405-1.381,2.796C2013.145,1962.239,1986.414,1965.872,1963.196,1965.872z"/>
				</g>
				<g>
					<path style="fill:#E2A18D;" d="M1443.369,1671.394c-36.983,7.279-58.406,39.82-68.653,76.093
						c-9.776,34.608-5.019,74.923,47.775,107.322c141.125,86.607,489.466-88.69,489.466-88.69l46.748-107.169
						C1828.188,1635.158,1568.304,1646.804,1443.369,1671.394z"/>
					<g>
						<path style="fill:#E2A18D;" d="M2006.063,1685.262c28.064,12.495,46.725,10.744,47.941,2.547
							c1.915-12.903-17.591-27.658-55.324-42.733c-0.002,0-0.001-0.003-0.001-0.003c28.963,3.13,36.455-0.427,35.763-7.933
							c-1.262-13.71-32.517-25.519-61.746-31.723c-32.906-6.985-60.849-0.987-78.379,3.214c-0.004-0.001-0.009,0.001-0.013-0.003
							c-0.107-0.081-0.211-0.158-0.319-0.236c-72.135,25.219-77.497,76.623-89.017,100.091c-21.642,44.09,0.872,62.732,1.884,63.312
							c4.206,2.417,11.613,6.722,22.396,9.495c39.953,10.28,62.225-16.893,109.167-25.253c53.264-9.484,88.626,15.33,95.537,3.367
							c4.808-8.322-5.895-21.438-35.693-38.061c0,0-0.001-0.009,0.003-0.008c24.089,10.03,57.356,22.202,62.859,8.873
							C2066.652,1714.479,2029.248,1695.586,2006.063,1685.262z"/>
						<path style="fill:#363E44;" d="M1997.256,1723.185c-0.262,0-0.526-0.047-0.784-0.145c-6.573-2.501-13.449-4.117-20.437-4.801
							c-6.76-0.66-13.593-0.449-20.306,0.631c-1.215,0.199-2.335-0.625-2.528-1.827c-0.194-1.202,0.624-2.333,1.826-2.527
							c7.088-1.141,14.299-1.367,21.439-0.665c7.378,0.722,14.636,2.428,21.573,5.068c1.139,0.433,1.71,1.706,1.277,2.844
							C1998.982,1722.643,1998.144,1723.185,1997.256,1723.185z"/>
						<path style="fill:#363E44;" d="M2006.181,1689.095c-0.336,0-0.676-0.077-0.996-0.239c-7.295-3.703-15.039-6.413-23.018-8.052
							c-7.714-1.584-15.609-2.164-23.466-1.708c-1.203,0.081-2.257-0.858-2.328-2.076c-0.07-1.215,0.859-2.258,2.076-2.328
							c8.236-0.468,16.515,0.129,24.605,1.791c8.365,1.718,16.482,4.557,24.127,8.439c1.086,0.551,1.519,1.879,0.968,2.964
							C2007.76,1688.655,2006.985,1689.095,2006.181,1689.095z"/>
						<path style="fill:#363E44;" d="M1997.817,1647.682c-0.238,0-0.48-0.04-0.718-0.122c-8.26-2.844-16.854-4.574-25.542-5.141
							c-8.405-0.55-16.861-0.007-25.13,1.611c-1.198,0.23-2.353-0.546-2.587-1.741c-0.234-1.195,0.546-2.353,1.741-2.587
							c8.64-1.691,17.477-2.255,26.263-1.684c9.08,0.592,18.061,2.4,26.692,5.373c1.151,0.396,1.763,1.65,1.366,2.802
							C1999.587,1647.107,1998.732,1647.682,1997.817,1647.682z"/>
					</g>
				</g>
				<g>
					<path style="fill:#E2A18D;" d="M2002.442,1747.414c34.53,15.114,48.399,51.521,50.549,89.153
						c2.051,35.904-11.322,74.233-69.879,94.432c-156.53,53.996-458.652-192.564-458.652-192.564l-22.435-114.748
						C1634.597,1628.718,1885.794,1696.357,2002.442,1747.414z"/>
					<path style="fill:#363E44;" d="M1992.783,1745.483c-0.284,0-0.573-0.056-0.852-0.173
						c-82.234-34.501-215.769-73.665-332.285-97.456c-1.193-0.244-1.963-1.409-1.719-2.602c0.243-1.194,1.404-1.963,2.602-1.719
						c116.77,23.842,250.636,63.11,333.108,97.711c1.123,0.472,1.651,1.763,1.181,2.886
						C1994.464,1744.974,1993.644,1745.483,1992.783,1745.483z"/>
					<g>
						<path style="fill:#E2A18D;" d="M1450.094,1639.12c-30.104,6.122-47.943,0.372-47.355-7.894
							c0.925-13.011,23.163-23.193,63.264-29.74c0.002,0,0.002-0.003,0.002-0.003c-28.953-3.215-35.498-8.31-33.197-15.488
							c4.201-13.111,37.271-17.873,67.15-17.601c33.637,0.305,59.619,12.211,75.824,20.108c0.004,0,0.008,0.003,0.014,0
							c0.122-0.056,0.24-0.108,0.363-0.161c64.964,40.239,59.069,91.585,65.234,116.99c11.583,47.73-14.434,61.055-15.548,61.402
							c-4.63,1.449-12.793,4.048-23.921,4.42c-41.231,1.385-57.091-29.965-101.109-48.291c-49.947-20.791-89.843-4.223-94-17.398
							c-2.892-9.166,10.397-19.653,43.088-29.429c0,0,0.003-0.008-0.002-0.008c-25.689,4.576-60.802,9.257-63.289-4.948
							C1384.615,1654.524,1425.223,1644.179,1450.094,1639.12z"/>
						<path style="fill:#363E44;" d="M1492.769,1682.984c-0.27,0-0.546-0.051-0.813-0.157c-6.319-2.508-12.944-4.194-19.688-5.011
							c-6.971-0.844-14.03-0.757-20.99,0.262c-1.203,0.174-2.324-0.656-2.501-1.861c-0.177-1.206,0.657-2.325,1.861-2.501
							c7.348-1.077,14.804-1.169,22.159-0.277c7.122,0.862,14.115,2.642,20.786,5.291c1.131,0.449,1.685,1.73,1.235,2.863
							C1494.477,1682.456,1493.646,1682.984,1492.769,1682.984z"/>
						<path style="fill:#363E44;" d="M1498.267,1643.439c-0.199,0-0.401-0.028-0.602-0.084c-7.566-2.141-15.398-3.289-23.278-3.413
							c-8.157-0.13-16.287,0.84-24.215,2.877c-1.182,0.302-2.381-0.408-2.685-1.587c-0.302-1.18,0.408-2.381,1.587-2.685
							c8.31-2.134,16.846-3.137,25.382-3.014c8.262,0.13,16.475,1.334,24.41,3.578c1.171,0.332,1.853,1.55,1.521,2.723
							C1500.112,1642.805,1499.229,1643.439,1498.267,1643.439z"/>
						<path style="fill:#363E44;" d="M1518.122,1611.963c-0.295,0-0.594-0.06-0.881-0.185c-7.717-3.369-15.854-5.728-24.184-7.014
							c-8.615-1.328-17.377-1.5-26.05-0.51c-1.205,0.135-2.303-0.731-2.441-1.941c-0.138-1.21,0.731-2.303,1.941-2.441
							c9.059-1.033,18.22-0.855,27.221,0.534c8.706,1.342,17.211,3.809,25.276,7.33c1.116,0.488,1.626,1.787,1.139,2.902
							C1519.782,1611.468,1518.972,1611.963,1518.122,1611.963z"/>
					</g>
					<path style="fill:#363E44;" d="M1708.99,1865.065c-0.364,0-0.732-0.089-1.072-0.28
						c-100.538-56.135-184.021-123.964-184.852-124.642c-30.042-23.238-80.938-28.06-100.864-26.732
						c-8.518,0.563-14.149-1.04-16.732-4.767c-2.852-4.111-0.717-8.958-0.625-9.163c0.502-1.11,1.808-1.6,2.917-1.102
						c1.106,0.5,1.599,1.798,1.108,2.905c-0.03,0.071-1.19,2.842,0.239,4.87c1.607,2.282,6.151,3.298,12.803,2.856
						c20.474-1.358,72.814,3.636,103.898,27.681c0.874,0.712,84.071,68.305,184.257,124.245c1.064,0.593,1.445,1.937,0.85,2.999
						C1710.513,1864.658,1709.763,1865.065,1708.99,1865.065z"/>
				</g>
			</g>
			<g>
				<path style="fill:#E2A18D;" d="M1674.678,1318.353c11.543,10.941,13.352,27.775,4.04,37.599
					c-9.312,9.824-26.218,8.918-37.761-2.024c-11.543-10.941-13.352-27.775-4.04-37.599
					C1646.229,1306.506,1663.135,1307.412,1674.678,1318.353z"/>
				<path style="fill:#E2A18D;" d="M1788.782,1292.204c-5.627,14.876,0.076,30.818,12.736,35.606
					c12.66,4.789,27.485-3.389,33.112-18.265c5.627-14.876-0.076-30.818-12.736-35.606
					C1809.233,1269.151,1794.408,1277.328,1788.782,1292.204z"/>
				<path style="fill:#E2A18D;" d="M1727.978,1523.099c-28.4-1.302-50.367-25.381-49.065-53.781l4.771-145.99l102.846,4.717
					l-4.771,145.99C1780.456,1502.435,1756.377,1524.402,1727.978,1523.099z"/>
				<path style="fill:#363E44;" d="M1768.192,1438.951c-80.401,19.119-107.326-116.008-107.326-116.008l143.112-30.242
					C1803.978,1292.701,1846.151,1420.412,1768.192,1438.951z"/>
				
					<ellipse transform="matrix(0.9905 -0.1379 0.1379 0.9905 -160.2381 244.0888)" style="fill:#363E44;" cx="1681.841" cy="1278.727" rx="52.458" ry="52.458"/>
				<path style="fill:#E2A18D;" d="M1804.308,1303.376c10.253,44.74-23.215,26.156-61.292,34.882
					c-38.077,8.726-66.343,41.458-76.596-3.283s14.488-75.685,52.564-84.41C1757.061,1241.84,1794.055,1258.636,1804.308,1303.376z"
					/>
				<path style="fill:#363E44;" d="M1808.158,1327.505c-0.004,0-0.008,0-0.012,0c-1.218-0.006-2.199-0.999-2.193-2.217
					c0.039-7.211-0.775-14.499-2.417-21.662c-1.465-6.394-3.571-12.601-6.259-18.45c-0.508-1.107-0.024-2.416,1.083-2.924
					c1.104-0.509,2.415-0.024,2.924,1.083c2.814,6.122,5.018,12.619,6.55,19.306c1.718,7.493,2.569,15.12,2.529,22.67
					C1810.357,1326.525,1809.371,1327.505,1808.158,1327.505z"/>
				<path style="fill:#363E44;" d="M1672.303,1358.111c-0.817,0-1.603-0.457-1.984-1.242c-3.239-6.673-5.738-13.791-7.425-21.158
					c-1.562-6.816-2.409-13.755-2.518-20.624c-0.019-1.218,0.953-2.22,2.17-2.239c1.251-0.022,2.22,0.953,2.239,2.17
					c0.103,6.561,0.913,13.191,2.406,19.709c1.614,7.041,4,13.843,7.094,20.217c0.532,1.095,0.075,2.415-1.021,2.946
					C1672.954,1358.04,1672.627,1358.111,1672.303,1358.111z"/>
				<path style="fill:#363E44;" d="M1743.993,1342.079c-0.531,0-1.064-0.19-1.486-0.577c-0.899-0.821-0.963-2.216-0.141-3.115
					c0.999-1.094,2.147-2.669,1.944-3.966c-0.113-0.727-0.636-1.267-1.631-2.236c-1.136-1.108-2.549-2.486-3.465-4.789
					c-0.822-2.063-1.036-4.356-0.634-6.816c0.196-1.199,1.327-2.026,2.531-1.821c1.201,0.196,2.016,1.328,1.821,2.531
					c-0.27,1.659-0.142,3.164,0.38,4.474c0.569,1.431,1.481,2.321,2.447,3.263c1.203,1.172,2.566,2.501,2.91,4.713
					c0.379,2.429-0.646,4.992-3.047,7.619C1745.187,1341.838,1744.591,1342.079,1743.993,1342.079z"/>
				<path style="fill:#FFFFFF;" d="M1733.164,1364.289c-2.429,0-5.27-0.399-8.222-1.645c-3.014-1.272-5.747-3.281-7.903-5.811
					c-0.789-0.926-0.678-2.318,0.249-3.108c0.925-0.788,2.317-0.68,3.108,0.249c1.712,2.008,3.877,3.602,6.26,4.608
					c4.568,1.927,8.826,1.291,10.957,0.74c1.187-0.3,2.381,0.405,2.687,1.583c0.305,1.179-0.404,2.382-1.583,2.687
					C1737.416,1363.927,1735.477,1364.289,1733.164,1364.289z"/>
				<path style="fill:#363E44;" d="M1653.065,1312.917c0,0,38.168-1.044,68.731-53.305c0,0,88.147,81.057,123.346-41.622
					c0,0-29.769,19.934-51.052,0.474c-33.865-30.964-105.091-48.242-119.614,22.499L1653.065,1312.917z"/>
				<g>
					<g>
						<path style="fill:#FFFFFF;" d="M1778.437,1296.274l-0.169,0.024c-0.009,0.365-0.14,0.858-0.507,0.931
							c-0.318,0.618-0.326,1.501-0.494,2.12c-0.302,1.114-2.01,0.576-1.709-0.536c0.203-0.749-1.874,1.071-2.821,1.707
							c-3.021,2.031-6.12,3.922-9.286,5.72c-1.476,0.838-2.951,1.689-4.456,2.475c-1.206,0.63-5.138,2.935-5.52,2.813
							c-3.415,4.943-4.945,9.226-4.945,9.226s6.825,1.333,14.929-0.072c-0.002-0.113-0.001-0.224-0.007-0.338
							c-0.06-1.116,17.41-9.696,18.096-8.991c6.676-6.766,9.57-14.82,9.57-14.82S1785.516,1295.436,1778.437,1296.274z"/>
						<path style="fill:#363E44;" d="M1765.156,1300.434c-5.163,2.937-8.996,7.211-11.672,11.082
							c1.211,3.365,3.617,6.31,7.029,8.111c0.878,0.464,1.783,0.826,2.7,1.1c3.658-0.612,7.59-1.776,11.281-3.876
							c2.67-1.518,4.966-3.4,6.949-5.393c1.894-5.306,0.59-11.161-3.174-15.159
							C1774.115,1296.807,1769.474,1297.978,1765.156,1300.434z"/>
					</g>
					<g>
						<path style="fill:#FFFFFF;" d="M1688.206,1318.225l0.163-0.052c0.167,0.326,0.499,0.712,0.861,0.618
							c0.555,0.418,0.946,1.209,1.366,1.694c0.755,0.872,2.06-0.355,1.306-1.226c-0.508-0.586,2.153,0.15,3.282,0.312
							c3.603,0.516,7.217,0.872,10.848,1.115c1.693,0.113,3.392,0.238,5.089,0.292c1.36,0.044,5.903,0.41,6.193,0.134
							c5.224,2.967,8.464,6.16,8.464,6.16s-5.567,4.168-13.476,6.424c-0.047-0.102-0.097-0.202-0.14-0.307
							c-0.432-1.032-19.894-1.166-20.205-0.232c-8.954-3.191-15.06-9.188-15.06-9.188S1681.465,1320.547,1688.206,1318.225z"/>
						<path style="fill:#363E44;" d="M1701.974,1316.198c5.927,0.4,11.236,2.584,15.329,4.908c0.371,3.556-0.515,7.255-2.805,10.359
							c-0.589,0.799-1.246,1.519-1.953,2.164c-3.56,1.039-7.607,1.699-11.844,1.413c-3.064-0.207-5.95-0.904-8.602-1.838
							c-4.012-3.955-5.383-9.795-3.73-15.032C1692.329,1316.826,1697.018,1315.863,1701.974,1316.198z"/>
					</g>
				</g>
			</g>
		</g>
		<path style="fill:#D87355;" d="M1772.03,1185.06h-4.41v-22.048h4.41V1185.06z M1772.03,1140.964h-4.41v-22.048h4.41V1140.964z
			 M1772.03,1096.868h-4.41v-22.048h4.41V1096.868z M1772.03,1052.771h-4.41v-22.048h4.41V1052.771z M1772.03,1008.675h-4.41
			v-22.048h4.41V1008.675z M1772.03,964.578h-4.41V942.53h4.41V964.578z M1772.03,920.482h-4.41v-22.048h4.41V920.482z
			 M1772.03,876.386h-4.41v-22.048h4.41V876.386z M1772.03,832.289h-4.41v-22.048h4.41V832.289z M1772.03,788.193h-4.41v-22.048
			h4.41V788.193z M1772.03,744.097h-4.41v-22.048h4.41V744.097z M1772.03,700h-4.41v-22.048h4.41V700z M1772.03,655.904h-4.41
			v-22.048h4.41V655.904z M1772.03,611.807h-4.41v-22.048h4.41V611.807z M1772.03,567.711h-4.41v-22.048h4.41V567.711z
			 M1772.03,523.615h-4.41v-22.048h4.41V523.615z M1772.03,479.518h-4.41v-11.713h-5.926v-4.41h10.335V479.518z M1739.646,467.805
			h-22.048v-4.41h22.048V467.805z M1695.55,467.805h-22.048v-4.41h22.048V467.805z M1651.454,467.805h-22.048v-4.41h22.048V467.805z
			 M1607.357,467.805h-21.849v-4.41h21.849V467.805z"/>
		<g>
			<g>
				<path style="fill:#E6D0BE;" d="M2156.447,536.069h-15.722c-1.408-7.664-3.416-15.117-5.968-22.313l13.606-7.856l-26.604-46.08
					l-13.637,7.874c-5.004-5.859-10.462-11.317-16.321-16.321l7.873-13.637l-46.08-26.604l-7.856,13.606
					c-7.196-2.552-14.649-4.56-22.313-5.968v-15.722h-53.208l0,15.722c-7.664,1.408-15.117,3.416-22.313,5.968l-7.855-13.607
					l-46.08,26.604l7.873,13.637c-5.859,5.004-11.316,10.462-16.321,16.321l-13.637-7.874l-26.604,46.08l13.606,7.856
					c-2.552,7.196-4.56,14.649-5.968,22.313h-15.722l0,53.208h15.722c1.408,7.664,3.416,15.117,5.968,22.313l-13.606,7.856
					l26.604,46.08l13.637-7.874c5.005,5.859,10.462,11.317,16.321,16.321l-7.873,13.637l46.08,26.604l7.855-13.607
					c7.196,2.552,14.649,4.56,22.313,5.968v15.722l53.208,0v-15.722c7.664-1.408,15.117-3.416,22.313-5.968l7.856,13.607
					l46.08-26.604l-7.873-13.637c5.858-5.005,11.316-10.462,16.321-16.321l13.637,7.874l26.604-46.08l-13.606-7.856
					c2.552-7.196,4.56-14.649,5.968-22.313h15.722V536.069z M2078.312,596.659c-8.264,21.86-25.647,39.242-47.507,47.505
					c-74.275,28.077-143.551-41.2-115.471-115.475c8.264-21.86,25.647-39.243,47.508-47.506
					C2037.117,453.106,2106.392,522.383,2078.312,596.659z"/>
			</g>
			<path style="fill:#F2E6DC;" d="M1996.822,681.271c-65.395,0-118.597-53.202-118.597-118.597
				c0-58.225,43.351-108.644,100.84-117.278c1.19-0.184,2.326,0.647,2.507,1.853c0.181,1.204-0.648,2.326-1.853,2.507
				c-55.348,8.312-97.085,56.856-97.085,112.917c0,62.963,51.224,114.188,114.188,114.188c52.026,0,97.478-35.123,110.533-85.413
				c0.305-1.178,1.503-1.891,2.688-1.579c1.178,0.306,1.885,1.509,1.579,2.688C2098.064,644.79,2050.856,681.271,1996.822,681.271z"
				/>
		</g>
	</g>
</g>
</svg>
