<?xml version="1.0" encoding="utf-8"?>
<!-- Generator: Adobe Illustrator 27.5.0, SVG Export Plug-In . SVG Version: 6.00 Build 0)  -->
<svg version="1.1" xmlns="http://www.w3.org/2000/svg" xmlns:xlink="http://www.w3.org/1999/xlink" x="0px" y="0px"
	 viewBox="0 0 2500 2500" style="enable-background:new 0 0 2500 2500;" xml:space="preserve">
-
<g id="Illustration">
	<g id="Mobile_device_trade-in_1_">
		<circle style="fill:transparent;" cx="1250" cy="1250" r="915"/>
		<g>
			<g>
				<g>
					<polygon style="fill:#E2A18D;" points="597.674,2027.21 449.468,2027.21 429.346,1843.557 577.552,1843.557 					"/>
					<path style="fill:#E6D0BE;" d="M579.904,2019.655H443.548l6.386,134.745h345.336l-10.608-17.94
						C741.857,2064.065,664.006,2019.655,579.904,2019.655z"/>
				</g>
				<g>
					<polygon style="fill:#E2A18D;" points="986.907,2027.21 838.701,2027.21 797.849,1847.362 946.054,1847.362 					"/>
					<path style="fill:#FFFFFF;" d="M969.138,2019.655H832.781l17.366,134.745h334.356l-10.608-17.94
						C1131.09,2064.065,1053.24,2019.655,969.138,2019.655z"/>
				</g>
				<path style="fill:#363E44;" d="M379.206,1173.61l0.252,752.206h272.408c0,0-50.341-596.016-47.35-667.232h33.852l136.779,669.21
					h270.395c0,0-178.16-605.213-226.338-782.645C819.204,1145.15,660.983,937.759,379.206,1173.61z"/>
			</g>
			<g>
				<g>
					<path style="fill:#363E44;" d="M923.105,606.765c0,0,34.632,10.529,51.15,27.628c12.015-28.001,17.658-58.741,15.361-90.329
						c-79.617,13.873-155.66-53.143-155.66-53.143l-55.897,8.774c-110.925,65.086-172.248,25.214-201.604-1.133
						c-9.84,27.206-13.717,56.674-10.394,86.759c13.554,17.21,51.903,19.927,74.847,9.67c0,0-17.16,36.88-67.121,27.12
						c29.687,94.279,128.993,154.765,234.971,138.13c62.122-9.751,113.944-44.025,146.071-90.628
						C951.768,648.644,943.816,619.5,923.105,606.765z"/>
					<path style="fill:#40484C;" d="M619.668,572.415c-5.6,0-11.62-0.955-17.407-3.68c-10.745-5.062-17.75-15.586-17.432-26.189
						c0.037-1.217,1.07-2.181,2.271-2.138c1.216,0.037,2.174,1.053,2.137,2.27c-0.263,8.736,5.866,17.81,14.904,22.067
						c10.053,4.736,21.103,3.446,28.602,1.531c9.412-2.405,18.372-6.96,27.037-11.366l0.774-0.394
						c8.156-4.146,18.307-9.305,28.94-11.683c21.499-4.811,45.41,2.202,60.909,17.863c0.856,0.866,0.849,2.261-0.016,3.118
						c-0.865,0.856-2.26,0.85-3.119-0.016c-14.455-14.608-36.757-21.148-56.812-16.662c-9.349,2.091-17.813,6.181-27.905,11.311
						l-0.774,0.393c-8.879,4.514-18.058,9.182-27.944,11.708C629.856,571.565,624.949,572.415,619.668,572.415z"/>
				</g>
				<g>
					<g>
						<path style="fill:#E2A18D;" d="M857.111,632.181c-18.891,11.143-66.31-27.479-66.31-27.479l-23.69-62.677
							c2.607-30.744,29.643-53.554,60.387-50.947c30.744,2.607,53.554,29.643,50.947,60.387
							C878.445,551.464,876.352,620.831,857.111,632.181z"/>
						<polygon style="fill:#E2A18D;" points="755.232,682.13 868.326,746.682 823.413,679.277 834.619,547.118 767.165,541.398 
													"/>
						<path style="fill:#E2A18D;" d="M870.806,565.559c0,0,14.227,17.683,13.03,21.931c-1.429,5.071-19.088,6.741-19.088,6.741
							S871.218,565.634,870.806,565.559z"/>
						<g>
							<path style="fill:#FFFFFF;" d="M820.772,558.917c0,0,9.745-4.222,20.979-3.269c2.39,0.203-3.741,18.947-5.918,17.672
								C826.26,567.712,820.772,558.917,820.772,558.917z"/>
							<g>
								<defs>
									<path id="SVGID_1_" d="M820.772,558.917c0,0,14.332-6.21,28.272-1.867c13.94,4.343,22.209,17.594,22.209,17.594
										s-14.332,6.21-28.272,1.867C829.041,572.168,820.772,558.917,820.772,558.917z"/>
								</defs>
								<clipPath id="SVGID_00000111169227450158411040000015334655737408467391_">
									<use xlink:href="#SVGID_1_"  style="overflow:visible;"/>
								</clipPath>
								<path style="clip-path:url(#SVGID_00000111169227450158411040000015334655737408467391_);fill:#363E44;" d="
									M842.268,555.197c8.06-6.8,20.107-5.779,26.907,2.281c6.8,8.06,5.779,20.107-2.281,26.907
									c-8.06,6.8-20.107,5.779-26.907-2.282C833.186,574.044,834.208,561.997,842.268,555.197z"/>
							</g>
						</g>
						<path style="fill:#363E44;" d="M850.82,604.932c-2.189,0-4.361-0.71-6.151-2.099c-2.993-2.325-4.432-6.239-3.667-9.971
							c0.244-1.193,1.407-1.963,2.603-1.717c1.193,0.245,1.962,1.41,1.716,2.603c-0.431,2.1,0.375,4.299,2.052,5.602
							c1.742,1.351,4.138,1.554,6.106,0.512c1.078-0.57,2.413-0.158,2.98,0.917c0.57,1.076,0.159,2.411-0.917,2.98
							C854.058,604.545,852.435,604.932,850.82,604.932z"/>
						<path style="fill:#363E44;" d="M839.756,636.047c-0.187,0-0.379-0.024-0.57-0.075c-21.677-5.784-48.718-27.672-49.858-28.601
							c-0.944-0.769-1.086-2.158-0.318-3.102c0.771-0.944,2.16-1.086,3.102-0.317c0.272,0.222,27.454,22.221,48.211,27.759
							c1.177,0.314,1.875,1.522,1.562,2.699C841.622,635.396,840.73,636.047,839.756,636.047z"/>
					</g>
					<g>
						<path style="fill:#363E44;" d="M752.108,572.581c-12.052-12.948-2.864-49.745,15.066-68.582
							c23.117-24.287,63.931-27.952,90.578-14.799c6.55,3.233,20.73,12.628,22.079,24.305c1.05,9.092-12.718,21.719-27.407,21.132
							c-20.653-0.824-44.469-15.034-43.191,9.372C813.106,617.963,765.352,586.809,752.108,572.581z"/>
					</g>
				</g>
				<g>
					<path style="fill:#363E44;" d="M779.85,511.001c0,0-70.554-42.61-29.977-78.798
						C787.973,398.224,836.124,456.384,779.85,511.001z"/>
					<path style="fill:#FFFFFF;" d="M772.475,495.407c-0.169,0-0.34-0.019-0.511-0.06c-10.474-2.484-18.827-12.463-19.43-23.211
						c-0.165-2.936,0.259-5.332,1.297-7.322c1.419-2.725,4.112-4.542,6.863-4.628c3.806-0.121,7.006,2.559,9.53,7.958
						c2.565,5.488,4.62,11.246,6.107,17.114c0.299,1.18-0.414,2.38-1.596,2.679c-1.182,0.3-2.379-0.416-2.678-1.595
						c-1.42-5.6-3.38-11.094-5.828-16.33c-1.161-2.482-3.02-5.42-5.315-5.42c-0.028,0-0.056,0-0.083,0.001
						c-1.165,0.036-2.406,0.943-3.09,2.257c-0.661,1.268-0.925,2.916-0.805,5.038c0.497,8.876,7.395,17.116,16.045,19.167
						c1.184,0.281,1.917,1.469,1.636,2.654C774.377,494.724,773.473,495.407,772.475,495.407z"/>
					<path style="fill:#FFFFFF;" d="M771.456,502.44c-0.513,0-1.03-0.179-1.448-0.543c-0.918-0.8-1.013-2.193-0.213-3.111
						c6.746-7.735,15.897-13.54,25.768-16.346c1.168-0.334,2.391,0.347,2.724,1.518c0.333,1.171-0.347,2.391-1.518,2.724
						c-9.06,2.575-17.459,7.903-23.649,15.002C772.683,502.184,772.071,502.44,771.456,502.44z"/>
				</g>
			</g>
			<g>
				<g>
					<path style="fill:#E2A18D;" d="M382.27,937.439c0,0,19.799-125.661,147.702-190.308l97.399,129.944L382.27,937.439z"/>
					<path style="fill:#FFFFFF;" d="M605.702,895.851l-120.54-143.357c0,0,87.555-55.936,181.611-61.292L605.702,895.851z"/>
				</g>
				<path style="fill:#FFFFFF;" d="M1039.489,814.32c0,0-50.043-63.391-112.843-86.926l-39.359,90.671l14.208,131.251
					L1039.489,814.32z"/>
				<g>
					<path style="fill:#ff6900;" d="M351.248,1196.957l529.184,15.705l41.72-420.046l50.945-59.222
						c0,0-115.694-100.02-355.349-43.894l9.964,71.99C627.713,761.49,422.024,1064.991,351.248,1196.957z"/>
					<path style="fill:#ff6900;" d="M733.934,686.595l6.481-40.601c0,0,90.989,5.268,167.265,31.987l-11.289,36.543L733.934,686.595
						z"/>
				</g>
				<g>
					<path style="fill:#363E44;" d="M812.482,839.391c-0.047,0-0.096-0.002-0.144-0.005c-0.778-0.051-1.471-0.509-1.823-1.204
						L726.06,671.375c-0.55-1.086-0.115-2.413,0.971-2.963c1.084-0.55,2.414-0.115,2.963,0.971l82.772,163.483l93.094-136.053
						c0.687-1.004,2.06-1.262,3.065-0.575c1.004,0.688,1.262,2.06,0.574,3.065l-95.198,139.128
						C813.889,839.035,813.207,839.391,812.482,839.391z"/>
					<path style="fill:#363E44;" d="M810.845,878.302c-11.943,0-21.66-9.717-21.66-21.66c0-11.943,9.716-21.66,21.66-21.66
						c11.944,0,21.661,9.717,21.661,21.66C832.505,868.585,822.788,878.302,810.845,878.302z M810.845,839.391
						c-9.511,0-17.25,7.738-17.25,17.25c0,9.512,7.738,17.25,17.25,17.25c9.513,0,17.251-7.738,17.251-17.25
						C828.096,847.13,820.357,839.391,810.845,839.391z"/>
				</g>
			</g>
		</g>
		<g>
			<g>
				<rect x="964.052" y="430.666" style="fill:#E6D0BE;" width="677.068" height="1277.336"/>
				<path style="fill:#363E44;" d="M1611.532,1785.632H988.957c-43.375,0-78.663-35.288-78.663-78.663V419.558
					c0-43.375,35.288-78.664,78.663-78.664h622.575c43.375,0,78.663,35.288,78.663,78.664v1287.411
					C1690.195,1750.344,1654.907,1785.632,1611.532,1785.632z M988.957,345.304c-40.943,0-74.253,33.31-74.253,74.254v1287.411
					c0,40.944,33.31,74.254,74.253,74.254h622.575c40.943,0,74.253-33.31,74.253-74.254V419.558
					c0-40.944-33.31-74.254-74.253-74.254H988.957z"/>
			</g>
			<g>
				<g>
					<g>
						<path style="fill:#363E44;" d="M1188.641,1237.056c-1.018,0-1.916-0.704-2.148-1.713l-57.205-250.25l-70.904,0.676
							c-1.246-0.008-2.213-0.966-2.226-2.184c-0.012-1.218,0.966-2.214,2.183-2.226l72.679-0.693c0.007,0,0.015,0,0.021,0
							c1.027,0,1.92,0.71,2.149,1.713l57.175,250.114l258.111-21.713l-0.132-163.903l-78.018,0.063c-0.001,0-0.001,0-0.002,0
							c-1.217,0-2.204-0.986-2.205-2.203c-0.001-1.218,0.985-2.205,2.203-2.206l80.223-0.065c0.001,0,0.001,0,0.002,0
							c1.217,0,2.204,0.986,2.205,2.203l0.137,168.137c0.001,1.147-0.877,2.103-2.02,2.199l-262.041,22.044
							C1188.766,1237.053,1188.703,1237.056,1188.641,1237.056z"/>
						<path style="fill:#363E44;" d="M1145.227,1047.123c-1.218,0.001-2.206-0.987-2.206-2.204c0-1.218,0.986-2.205,2.204-2.205
							l225.098-0.067c1.218,0,2.206,0.987,2.206,2.204c0,1.218-0.986,2.205-2.204,2.205L1145.227,1047.123z"/>
						<path style="fill:#363E44;" d="M1166.147,1352.625c-24.532,0-44.498-19.947-44.518-44.483
							c-0.01-11.891,4.612-23.075,13.014-31.49c8.402-8.416,19.578-13.056,31.469-13.065c0.012,0,0.025,0,0.036,0
							c24.532,0,44.499,19.947,44.519,44.483c0.019,24.548-19.936,44.535-44.483,44.555
							C1166.173,1352.625,1166.159,1352.625,1166.147,1352.625z M1166.148,1267.996c-0.012,0-0.021,0-0.032,0
							c-10.714,0.009-20.783,4.189-28.353,11.771c-7.57,7.582-11.734,17.657-11.725,28.371
							c0.018,22.104,18.009,40.076,40.109,40.076c0.012,0,0.022,0,0.033,0c22.116-0.018,40.095-18.026,40.078-40.142
							C1206.24,1285.969,1188.248,1267.996,1166.148,1267.996z"/>
						<path style="fill:#363E44;" d="M1471.781,1352.376c-24.532,0-44.499-19.947-44.52-44.483
							c-0.01-11.891,4.612-23.075,13.014-31.49c8.401-8.416,19.577-13.056,31.469-13.065c0.012,0,0.025,0,0.037,0
							c24.532,0,44.499,19.947,44.519,44.484c0.019,24.547-19.936,44.535-44.483,44.555
							C1471.806,1352.376,1471.793,1352.376,1471.781,1352.376z M1471.781,1267.747c-0.012,0-0.021,0-0.032,0
							c-10.714,0.009-20.783,4.19-28.353,11.771c-7.57,7.582-11.734,17.657-11.725,28.371c0.018,22.104,18.01,40.077,40.11,40.077
							c0.012,0,0.02,0,0.032,0c22.116-0.018,40.095-18.026,40.078-40.143C1511.873,1285.72,1493.881,1267.747,1471.781,1267.747z"/>
						<path style="fill:#363E44;" d="M1208.462,1309.981c-1.217,0-2.204-0.986-2.205-2.203c-0.001-1.218,0.985-2.205,2.203-2.206
							l220.673-0.18c0.001,0,0.001,0,0.002,0c1.217,0,2.204,0.986,2.205,2.203c0.001,1.218-0.985,2.205-2.203,2.206l-220.672,0.18
							C1208.463,1309.981,1208.463,1309.981,1208.462,1309.981z"/>
						<path style="fill:#363E44;" d="M1178.535,1269.842c-0.215,0-0.434-0.032-0.65-0.098c-1.164-0.359-1.816-1.593-1.458-2.757
							l10.109-32.786c0.359-1.164,1.588-1.817,2.756-1.457c1.164,0.359,1.816,1.593,1.458,2.756l-10.109,32.786
							C1180.349,1269.234,1179.477,1269.842,1178.535,1269.842z"/>
					</g>
				</g>
			</g>
			<g>
				<path style="fill:#FFFFFF;" d="M1077.532,683.365c-21.013,0-38.048-17.035-38.048-38.048V430.666h76.096v214.651
					C1115.58,666.33,1098.545,683.365,1077.532,683.365z"/>
				<path style="fill:#D87355;" d="M1152.609,683.365c-21.013,0-38.048-17.035-38.048-38.048V430.666h76.096v214.651
					C1190.657,666.33,1173.622,683.365,1152.609,683.365z"/>
				<path style="fill:#FFFFFF;" d="M1227.686,683.365c-21.013,0-38.048-17.035-38.048-38.048V430.666h76.096v214.651
					C1265.734,666.33,1248.7,683.365,1227.686,683.365z"/>
				<path style="fill:#D87355;" d="M1302.763,683.365c-21.013,0-38.048-17.035-38.048-38.048V430.666h76.096v214.651
					C1340.812,666.33,1323.777,683.365,1302.763,683.365z"/>
				<path style="fill:#FFFFFF;" d="M1377.841,683.365c-21.013,0-38.048-17.035-38.048-38.048V430.666h76.096v214.651
					C1415.889,666.33,1398.854,683.365,1377.841,683.365z"/>
				<path style="fill:#D87355;" d="M1452.918,683.365c-21.013,0-38.048-17.035-38.048-38.048V430.666h76.096v214.651
					C1490.966,666.33,1473.931,683.365,1452.918,683.365z"/>
				<path style="fill:#FFFFFF;" d="M1527.995,683.365c-21.013,0-38.048-17.035-38.048-38.048V430.666h76.096v214.651
					C1566.043,666.33,1549.008,683.365,1527.995,683.365z"/>
				<path style="fill:#D87355;" d="M1603.072,683.365c-21.013,0-38.048-17.035-38.048-38.048V430.666h76.096v214.651
					C1641.12,666.33,1624.085,683.365,1603.072,683.365z"/>
				<path style="fill:#D87355;" d="M1001.436,683.365c-21.013,0-38.048-17.035-38.048-38.048V430.666h76.096v214.651
					C1039.484,666.33,1022.449,683.365,1001.436,683.365z"/>
				<path style="fill:#D87355;" d="M1640.857,432.871H963.789c-1.218,0-2.205-0.987-2.205-2.205c0-1.218,0.987-2.205,2.205-2.205
					h677.068c1.218,0,2.205,0.987,2.205,2.205C1643.062,431.884,1642.075,432.871,1640.857,432.871z"/>
			</g>
		</g>
		<g>
			<path style="fill:#E2A18D;" d="M928.764,853.817c-19.346,7.67-104.903,26.658-115.117,66.193
				c-10.287,39.818,8.997,80.978,37.424,110.701c0.167,0.009,0.352,0.019,0.518,0.028c10.596,4.166,27.086,8.774,45.553,5.03
				c21.051-4.27,24.507-15.305,46.02-23.27c36.311-13.443,62.64,5.719,67.847-6.971c3.574-8.71-11.284-20.539-27.643-27.803
				c-16.796-7.458-30.796-5.211-31.052-8.211c-0.282-3.292,14.237-3.734,32.24-5.941c8.364-1.025,33.065,10.302,39.702-0.878
				c5.292-8.914-17.441-27.116-42.661-30.171c-17.842-2.16-32.363,7.507-33.603,4.469c-0.93-2.28,7.865-7.828,16.869-10.35
				c14.858-4.165,40.253,7.154,46.162-3.256c5.788-10.199-14.345-25.747-37.362-30.024c-19.408-3.607-35.086,7.947-36.649,4.18
				c-1.1-2.649,4.845-9.281,20.857-18.849c13.365-7.984,44.504-14.894,38.237-30.128
				C990.835,835.754,957.963,842.239,928.764,853.817z"/>
			<path style="fill:#E2A18D;" d="M490.168,846.754c-45.924-1.047-88.003,27.728-101.958,71.493
				c-9.149,28.694-5.78,62.877,32.004,96.264c91.996,81.289,443.507,11.627,443.507,11.627l68.356-94.891
				C810.602,880.853,616.577,849.636,490.168,846.754z"/>
		</g>
		<g>
			<g>
				<path style="fill:#D3BBA3;" d="M2160.062,2100.553c0,34.819-28.227,63.046-63.046,63.046h-513.357
					c-34.819,0-63.046-28.226-63.046-63.046V1038.991c0-34.819,28.227-63.046,63.046-63.046h513.357
					c34.819,0,63.046,28.226,63.046,63.046V2100.553z"/>
				<rect x="1563.123" y="1048.15" style="fill:#FFFFFF;" width="558.291" height="1053.255"/>
			</g>
		</g>
		<g>
			<g>
				<g>
					<path style="fill:#EFBC73;" d="M1946.311,1380.121c-72.774,0-134.256-59.611-134.256-130.171
						c0-71.777,58.578-130.172,130.582-130.172s130.582,58.395,130.582,130.172
						C2073.218,1322.943,2017.473,1380.121,1946.311,1380.121z M1942.636,1124.188c-69.571,0-126.172,56.417-126.172,125.762
						c0,68.17,59.462,125.761,129.846,125.761c68.691,0,122.498-55.241,122.498-125.761
						C2068.808,1180.604,2012.208,1124.188,1942.636,1124.188z"/>
					<path style="fill:#EFBC73;" d="M2003.402,1352.701c-0.769,0-1.516-0.403-1.922-1.12c-0.599-1.06-0.226-2.405,0.834-3.005
						c15.513-8.771,25.621-21.316,36.025-37.453c0.658-1.023,2.021-1.318,3.048-0.659c1.023,0.66,1.318,2.025,0.658,3.048
						c-10.757,16.686-21.261,29.688-37.56,38.903C2004.143,1352.609,2003.769,1352.701,2003.402,1352.701z"/>
					<path style="fill:#EFBC73;" d="M2058.39,1246.711c-1.17,0-2.146-0.921-2.201-2.103
						c-2.816-60.542-52.696-107.967-113.553-107.967c-52.355,0-97.724,35.322-110.329,85.896c-0.295,1.181-1.498,1.9-2.672,1.606
						c-1.182-0.295-1.901-1.491-1.606-2.673c13.095-52.543,60.224-89.239,114.608-89.239c63.219,0,115.032,49.271,117.959,112.172
						c0.056,1.216-0.884,2.248-2.101,2.305C2058.46,1246.71,2058.425,1246.711,2058.39,1246.711z"/>
					<ellipse style="fill:#EFBC73;" cx="1942.636" cy="1249.95" rx="106.612" ry="106.272"/>
					<g>
						<path style="fill:#FFFFFF;" d="M1964.755,1280.038c0-4.871-1.758-9.058-5.271-12.561c-3.514-3.502-9.28-6.622-17.295-9.359
							c-11.092-3.338-19.465-7.799-25.12-13.382c-5.656-5.583-8.483-13.025-8.483-22.33c0-9.031,2.594-16.391,7.783-22.084
							c5.188-5.691,12.34-9.113,21.454-10.262v-18.143h13.013v18.225c9.224,1.314,16.375,5.241,21.454,11.781
							c5.078,6.541,7.618,15.311,7.618,26.312h-16.142c0-7.443-1.73-13.464-5.189-18.061c-3.46-4.597-8.265-6.896-14.413-6.896
							c-6.479,0-11.325,1.683-14.536,5.049c-3.212,3.366-4.818,7.978-4.818,13.833c0,5.309,1.66,9.605,4.983,12.889
							c3.321,3.284,9.319,6.403,17.995,9.359c11.255,3.612,19.602,8.115,25.037,13.505c5.436,5.391,8.154,12.712,8.154,21.961
							c0,9.414-2.829,16.899-8.483,22.453c-5.655,5.556-13.424,8.853-23.307,9.893v15.762h-12.93v-15.68
							c-9.444-0.985-17.186-4.419-23.225-10.303c-6.041-5.883-8.95-14.517-8.73-25.901l0.165-0.411h15.648
							c0,8.429,2.128,14.436,6.383,18.02c4.254,3.585,9.484,5.377,15.69,5.377c7.082,0,12.614-1.683,16.595-5.049
							C1962.765,1290.669,1964.755,1286.004,1964.755,1280.038z"/>
					</g>
				</g>
				<g>
					<path style="fill:#EFBC73;" d="M1825.293,1685.28c-58.184,0-107.341-47.667-107.341-104.088
						c0-57.395,46.841-104.088,104.416-104.088c57.574,0,104.415,46.694,104.415,104.088
						C1926.783,1639.559,1882.203,1685.28,1825.293,1685.28z M1822.368,1481.513c-55.143,0-100.006,44.716-100.006,99.679
						c0,54.032,47.137,99.679,102.931,99.679c54.437,0,97.08-43.784,97.08-99.679
						C1922.373,1526.229,1877.511,1481.513,1822.368,1481.513z"/>
					<path style="fill:#EFBC73;" d="M1870.748,1663.449c-0.769,0-1.516-0.403-1.922-1.12c-0.599-1.06-0.226-2.405,0.834-3.005
						c12.27-6.937,20.278-16.879,28.527-29.672c0.658-1.023,2.023-1.319,3.048-0.658c1.023,0.659,1.318,2.024,0.658,3.048
						c-8.602,13.341-17.007,23.74-30.062,31.121C1871.489,1663.357,1871.115,1663.449,1870.748,1663.449z"/>
					<path style="fill:#EFBC73;" d="M1914.528,1579.062c-1.17,0-2.146-0.921-2.2-2.103c-2.232-47.961-41.747-85.531-89.959-85.531
						c-41.477,0-77.419,27.982-87.406,68.047c-0.294,1.182-1.495,1.899-2.672,1.606c-1.182-0.294-1.901-1.491-1.606-2.673
						c10.477-42.033,48.179-71.39,91.684-71.39c50.573,0,92.022,39.417,94.365,89.737c0.056,1.216-0.884,2.248-2.1,2.305
						C1914.598,1579.062,1914.563,1579.062,1914.528,1579.062z"/>
					<ellipse style="fill:#EFBC73;" cx="1822.368" cy="1581.191" rx="84.882" ry="84.611"/>
					<g>
						<path style="fill:#FFFFFF;" d="M1839.978,1605.147c0-3.878-1.399-7.211-4.196-10.001c-2.798-2.788-7.388-5.272-13.77-7.451
							c-8.831-2.658-15.498-6.21-20-10.654c-4.503-4.445-6.754-10.37-6.754-17.779c0-7.19,2.066-13.05,6.197-17.582
							c4.131-4.531,9.824-7.255,17.081-8.171v-14.445h10.361v14.51c7.344,1.046,13.038,4.173,17.081,9.38
							c4.043,5.207,6.065,12.19,6.065,20.949h-12.852c0-5.926-1.377-10.719-4.131-14.38c-2.754-3.66-6.58-5.49-11.475-5.49
							c-5.159,0-9.016,1.34-11.573,4.02c-2.558,2.68-3.836,6.352-3.836,11.014c0,4.227,1.322,7.647,3.967,10.262
							c2.644,2.614,7.42,5.098,14.327,7.451c8.961,2.876,15.606,6.461,19.934,10.752c4.328,4.292,6.492,10.121,6.492,17.484
							c0,7.495-2.252,13.454-6.754,17.877c-4.503,4.423-10.688,7.048-18.557,7.876v12.55h-10.295v-12.484
							c-7.519-0.784-13.683-3.518-18.491-8.203c-4.809-4.684-7.126-11.558-6.951-20.622l0.131-0.327h12.459
							c0,6.711,1.694,11.494,5.082,14.347c3.387,2.855,7.551,4.281,12.492,4.281c5.639,0,10.043-1.34,13.213-4.02
							C1838.394,1613.611,1839.978,1609.897,1839.978,1605.147z"/>
					</g>
				</g>
				<g>
					<path style="fill:#EFBC73;" d="M1705.838,1445.379c-48.345,0-89.187-39.61-89.187-86.495c0-47.694,38.922-86.496,86.765-86.496
						c47.843,0,86.766,38.802,86.766,86.496C1790.183,1407.386,1753.134,1445.379,1705.838,1445.379z M1703.417,1276.798
						c-45.411,0-82.356,36.824-82.356,82.086c0,44.495,38.823,82.085,84.777,82.085c44.824,0,79.935-36.056,79.935-82.085
						C1785.773,1313.622,1748.828,1276.798,1703.417,1276.798z"/>
					<path style="fill:#EFBC73;" d="M1743.443,1427.318c-0.769,0-1.516-0.403-1.922-1.12c-0.599-1.06-0.226-2.405,0.834-3.005
						c10.085-5.701,16.675-13.887,23.468-24.423c0.66-1.023,2.021-1.318,3.048-0.659c1.023,0.66,1.318,2.024,0.658,3.048
						c-7.146,11.085-14.133,19.727-25.003,25.873C1744.183,1427.226,1743.811,1427.318,1743.443,1427.318z"/>
					<path style="fill:#EFBC73;" d="M1779.663,1357.503c-1.17,0-2.146-0.921-2.2-2.103c-1.837-39.476-34.361-70.399-74.046-70.399
						c-34.139,0-63.723,23.032-71.943,56.009c-0.295,1.181-1.494,1.899-2.672,1.606c-1.182-0.294-1.901-1.491-1.606-2.673
						c8.709-34.945,40.053-59.351,76.221-59.351c42.044,0,76.504,32.77,78.451,74.604c0.056,1.216-0.884,2.248-2.1,2.305
						C1779.733,1357.502,1779.697,1357.503,1779.663,1357.503z"/>
					<ellipse style="fill:#EFBC73;" cx="1703.417" cy="1358.884" rx="70.225" ry="70"/>
					<g>
						<path style="fill:#FFFFFF;" d="M1717.987,1378.703c0-3.208-1.158-5.966-3.472-8.274c-2.315-2.307-6.113-4.362-11.392-6.165
							c-7.306-2.199-12.822-5.137-16.546-8.814c-3.726-3.677-5.588-8.579-5.588-14.709c0-5.948,1.709-10.797,5.127-14.546
							c3.417-3.749,8.128-6.003,14.132-6.76v-11.951h8.572v12.005c6.076,0.865,10.786,3.453,14.132,7.76
							c3.345,4.308,5.018,10.085,5.018,17.331h-10.633c0-4.902-1.139-8.869-3.418-11.897c-2.279-3.028-5.444-4.542-9.494-4.542
							c-4.268,0-7.459,1.109-9.575,3.326c-2.116,2.217-3.174,5.255-3.174,9.112c0,3.497,1.094,6.327,3.282,8.49
							c2.188,2.163,6.138,4.218,11.853,6.165c7.414,2.379,12.911,5.345,16.492,8.895c3.581,3.551,5.371,8.373,5.371,14.465
							c0,6.201-1.863,11.131-5.588,14.79c-3.725,3.659-8.843,5.831-15.352,6.516v10.382h-8.517v-10.328
							c-6.221-0.649-11.32-2.911-15.298-6.787c-3.979-3.875-5.896-9.562-5.751-17.061l0.109-0.27h10.307
							c0,5.552,1.401,9.509,4.204,11.87c2.802,2.362,6.247,3.542,10.335,3.542c4.665,0,8.308-1.109,10.931-3.326
							C1716.676,1385.706,1717.987,1382.633,1717.987,1378.703z"/>
					</g>
				</g>
			</g>
			<g>
				<g>
					<path style="fill:#D3BBA3;" d="M1395.711,783.841l-30.06,208.292l208.169-31.044l-36.352-36.175
						c29.091-33.194,76.613-76.422,146.153-104.608c139.875-56.694,265.82-10.766,295.113,0.799
						c-17.816-16.591-143.515-129.758-323.828-107.078c-108.617,13.661-183.895,69.924-222.663,106.172L1395.711,783.841z"/>
					<path style="fill:#ff6900;" d="M1365.89,978.523c-0.578,0-1.139-0.228-1.556-0.642c-0.494-0.492-0.726-1.188-0.627-1.878
						l30.059-208.292c0.12-0.825,0.693-1.513,1.484-1.776c0.793-0.265,1.664-0.06,2.254,0.529l35.029,34.861
						c44.491-41.183,118.773-92.274,222.337-105.3c76.272-9.593,151.67,3.535,224.096,39.021
						c52.968,25.952,88.634,56.642,101.51,68.631c0.775,0.722,0.927,1.894,0.362,2.79c-0.564,0.895-1.686,1.265-2.674,0.874
						c-45.005-17.767-163.695-53.408-293.476-0.806c-55.118,22.341-103.54,56.809-143.955,102.465l34.882,34.713
						c0.59,0.588,0.799,1.459,0.539,2.251c-0.26,0.792-0.945,1.369-1.77,1.492l-208.169,31.043
						C1366.106,978.515,1365.997,978.523,1365.89,978.523z M1397.504,772.685l-29.009,201.016l200.897-29.959l-33.241-33.08
						c-0.825-0.82-0.87-2.141-0.102-3.016c41.147-46.95,90.599-82.344,146.983-105.198c121.693-49.324,233.705-21.946,285.641-3.382
						c-37.481-32.122-154.925-118.577-313.252-98.667c-103.608,13.031-177.604,64.616-221.434,105.595
						c-0.865,0.81-2.22,0.79-3.062-0.048L1397.504,772.685z"/>
				</g>
				<g>
					<path style="fill:#D3BBA3;" d="M1948.303,1949.527l34.161-207.659l-208.741,26.934l35.632,36.885
						c-29.74,32.614-78.105,74.896-148.188,101.706c-140.966,53.925-265.98,5.523-295.04-6.617
						c17.485,16.939,140.928,132.562,321.653,113.442c108.866-11.517,185.238-66.285,224.714-101.761L1948.303,1949.527z"/>
					<path style="fill:#ff6900;" d="M1647.468,2002.76c-62.366,0-123.581-15.272-182.499-45.594
						c-52.451-26.993-87.502-58.379-100.136-70.62c-0.761-0.737-0.89-1.912-0.307-2.797c0.582-0.884,1.711-1.23,2.69-0.821
						c44.646,18.651,162.608,56.629,293.401,6.592c55.548-21.249,104.641-54.755,145.949-99.607l-34.19-35.393
						c-0.579-0.6-0.771-1.475-0.495-2.261c0.277-0.787,0.972-1.35,1.799-1.457l208.741-26.934c0.685-0.091,1.383,0.153,1.868,0.655
						c0.484,0.502,0.703,1.202,0.59,1.89l-34.162,207.659c-0.136,0.823-0.724,1.499-1.519,1.747
						c-0.792,0.248-1.663,0.027-2.242-0.573l-34.334-35.545c-45.294,40.298-120.568,89.915-224.371,100.896
						C1674.613,2002.039,1661.01,2002.759,1647.468,2002.76z M1376.541,1891.387c36.836,32.855,152.537,121.611,311.247,104.824
						c103.846-10.986,178.843-61.102,223.472-101.208c0.883-0.793,2.234-0.746,3.06,0.108l32.759,33.914l32.968-200.405
						l-201.448,25.993l32.581,33.729c0.808,0.837,0.828,2.158,0.043,3.018c-42.064,46.13-92.205,80.542-149.029,102.28
						C1539.549,1940.554,1428.102,1910.974,1376.541,1891.387z"/>
				</g>
			</g>
		</g>
	</g>
</g>
</svg>
