<?xml version="1.0" encoding="utf-8"?>
<!-- Generator: Adobe Illustrator 27.5.0, SVG Export Plug-In . SVG Version: 6.00 Build 0)  -->
<svg version="1.1" xmlns="http://www.w3.org/2000/svg" xmlns:xlink="http://www.w3.org/1999/xlink" x="0px" y="0px"
	 viewBox="0 0 2500 2500" style="enable-background:new 0 0 2500 2500;" xml:space="preserve">
-
<g id="Illustration">
	<g id="Computer_service_1_">
		<circle style="fill:transparent;" cx="1250" cy="1250" r="915"/>
		<g>
			<g>
				<path style="fill:#D3BBA3;" d="M1881.847,2120.762h-65.893c-1.219,0-2.205-0.986-2.205-2.205v-17.643
					c-8.253-1.602-16.454-3.796-24.43-6.535l-8.815,15.27c-0.293,0.506-0.775,0.876-1.339,1.027
					c-0.562,0.146-1.167,0.069-1.673-0.22l-57.063-32.947c-1.055-0.609-1.417-1.957-0.807-3.012l8.839-15.307
					c-6.343-5.527-12.342-11.526-17.869-17.869l-15.307,8.839c-1.055,0.607-2.403,0.248-3.012-0.808l-32.947-57.063
					c-0.293-0.506-0.37-1.109-0.22-1.673s0.521-1.046,1.027-1.339l15.27-8.815c-2.739-7.975-4.931-16.177-6.535-24.43h-17.643
					c-1.219,0-2.205-0.986-2.205-2.205v-65.893c0-1.219,0.986-2.205,2.205-2.205h17.643c1.602-8.253,3.796-16.454,6.535-24.43
					l-15.27-8.815c-0.506-0.293-0.876-0.775-1.027-1.339s-0.073-1.167,0.22-1.673l32.947-57.065
					c0.293-0.506,0.775-0.876,1.339-1.027c0.56-0.149,1.165-0.071,1.673,0.22l15.307,8.839c5.527-6.341,11.526-12.34,17.869-17.867
					l-8.839-15.309c-0.609-1.055-0.248-2.403,0.807-3.012l57.063-32.945c0.506-0.293,1.111-0.37,1.673-0.22
					c0.564,0.151,1.047,0.521,1.339,1.027l8.815,15.27c7.973-2.737,16.174-4.931,24.43-6.537v-17.641
					c0-1.219,0.986-2.205,2.205-2.205h65.893c1.219,0,2.205,0.986,2.205,2.205v17.641c8.255,1.606,16.457,3.8,24.43,6.537
					l8.815-15.27c0.293-0.506,0.775-0.876,1.339-1.027c0.56-0.151,1.165-0.073,1.673,0.22l57.065,32.945
					c0.506,0.293,0.876,0.775,1.027,1.339c0.151,0.564,0.073,1.167-0.22,1.673l-8.841,15.309
					c6.343,5.527,12.342,11.526,17.869,17.869l15.309-8.841c0.506-0.291,1.109-0.368,1.673-0.22
					c0.564,0.151,1.046,0.521,1.339,1.027l32.945,57.065c0.293,0.506,0.37,1.109,0.22,1.673s-0.521,1.046-1.027,1.339l-15.27,8.815
					c2.739,7.975,4.933,16.177,6.535,24.43h17.643c1.219,0,2.205,0.986,2.205,2.205v65.893c0,1.219-0.986,2.205-2.205,2.205h-17.643
					c-1.604,8.253-3.796,16.454-6.535,24.43l15.27,8.815c0.506,0.293,0.876,0.775,1.027,1.339s0.073,1.167-0.22,1.673
					l-32.945,57.063c-0.609,1.055-1.962,1.415-3.012,0.808l-15.309-8.839c-5.527,6.343-11.526,12.342-17.867,17.869l8.839,15.307
					c0.293,0.506,0.37,1.109,0.22,1.673c-0.151,0.564-0.521,1.047-1.027,1.339l-57.065,32.947c-0.508,0.289-1.113,0.366-1.673,0.22
					c-0.564-0.151-1.046-0.521-1.339-1.027l-8.815-15.27c-7.975,2.739-16.177,4.933-24.43,6.535v17.643
					C1884.051,2119.776,1883.065,2120.762,1881.847,2120.762z M1818.159,2116.352h61.483v-17.266c0-1.064,0.76-1.977,1.807-2.168
					c9.23-1.695,18.414-4.151,27.293-7.299c0.993-0.36,2.114,0.054,2.646,0.975l8.625,14.941l53.245-30.743l-8.649-14.977
					c-0.532-0.919-0.33-2.089,0.478-2.78c7.146-6.102,13.864-12.82,19.966-19.966c0.691-0.807,1.856-1.01,2.78-0.478l14.979,8.647
					l30.74-53.243l-14.941-8.625c-0.922-0.532-1.331-1.645-0.975-2.646c3.148-8.877,5.605-18.061,7.299-27.293
					c0.192-1.047,1.105-1.807,2.168-1.807h17.266v-61.483h-17.266c-1.064,0-1.977-0.76-2.168-1.806
					c-1.694-9.231-4.151-18.414-7.299-27.293c-0.355-1.001,0.054-2.114,0.975-2.646l14.941-8.625l-30.74-53.245l-14.979,8.649
					c-0.924,0.53-2.089,0.329-2.78-0.478c-6.102-7.146-12.82-13.864-19.966-19.966c-0.808-0.691-1.01-1.86-0.478-2.78l8.649-14.979
					l-53.245-30.74l-8.625,14.941c-0.53,0.922-1.647,1.335-2.646,0.975c-8.875-3.148-18.058-5.605-27.293-7.301
					c-1.046-0.192-1.807-1.105-1.807-2.168v-17.264h-61.483v17.264c0,1.064-0.76,1.977-1.807,2.168
					c-9.235,1.697-18.418,4.153-27.293,7.301c-0.999,0.355-2.117-0.056-2.646-0.975l-8.625-14.941l-53.243,30.74l8.647,14.979
					c0.532,0.922,0.329,2.089-0.478,2.78c-7.146,6.102-13.864,12.82-19.966,19.966c-0.689,0.807-1.858,1.008-2.78,0.478
					l-14.977-8.649l-30.743,53.245l14.941,8.625c0.922,0.532,1.331,1.645,0.975,2.646c-3.148,8.88-5.605,18.063-7.299,27.293
					c-0.192,1.046-1.104,1.806-2.168,1.806h-17.266v61.483h17.266c1.064,0,1.977,0.76,2.168,1.807
					c1.695,9.233,4.151,18.416,7.299,27.293c0.355,1.001-0.054,2.114-0.975,2.646l-14.941,8.625l30.743,53.243l14.977-8.647
					c0.922-0.532,2.091-0.329,2.78,0.478c6.102,7.146,12.82,13.864,19.966,19.966c0.807,0.691,1.01,1.86,0.478,2.78l-8.647,14.977
					l53.243,30.743l8.625-14.941c0.532-0.921,1.651-1.331,2.646-0.975c8.88,3.148,18.063,5.604,27.293,7.299
					c1.046,0.192,1.807,1.104,1.807,2.168V2116.352z M1848.957,2032.281c-1.232,0-2.465-0.019-3.703-0.06
					c-58.518-1.869-105.823-49.174-107.692-107.694c-0.995-31.15,10.572-60.417,32.568-82.414
					c21.997-21.996,51.264-33.591,82.416-32.568c58.52,1.869,105.825,49.173,107.692,107.694
					c0.995,31.149-10.572,60.417-32.568,82.414C1906.547,2020.774,1878.716,2032.281,1848.957,2032.281z M1848.85,1813.894
					c-28.587,0-55.314,11.05-75.601,31.337c-21.127,21.127-32.235,49.236-31.281,79.154
					c1.796,56.203,47.227,101.635,103.428,103.431c29.911,0.93,58.029-10.156,79.156-31.281
					c21.127-21.127,32.235-49.238,31.281-79.154c-1.793-56.203-47.225-101.635-103.428-103.431
					C1851.218,1813.913,1850.03,1813.894,1848.85,1813.894z"/>
			</g>
		</g>
		<g>
			<g>
				<path style="fill:#FFFFFF;" d="M753.041,961.843l22.527-9.714c6.753,10.112,14.235,19.55,22.338,28.284l-14.642,19.663
					l66.592,49.587l14.675-19.708c10.791,5.302,21.983,9.75,33.47,13.301l-2.855,24.405l82.464,9.648l2.849-24.35
					c11.888-0.79,23.808-2.518,35.659-5.236l9.715,22.528l76.24-32.877l-9.714-22.527c10.112-6.753,19.55-14.235,28.283-22.338
					l19.663,14.642l49.588-66.592l-19.708-14.676c5.303-10.79,9.75-21.983,13.301-33.47l24.405,2.855l9.648-82.464l-24.35-2.849
					c-0.79-11.888-2.518-23.807-5.236-35.659l22.527-9.714l-32.876-76.24l-22.528,9.714c-6.753-10.111-14.235-19.55-22.338-28.284
					l14.642-19.663l-66.592-49.587l-14.675,19.708c-10.791-5.302-21.983-9.75-33.47-13.301l2.855-24.405l-82.464-9.648l-2.848,24.35
					c-11.888,0.789-23.808,2.517-35.659,5.236l-9.714-22.528l-76.24,32.877l9.714,22.528c-10.112,6.753-19.55,14.234-28.283,22.338
					l-19.664-14.642l-49.587,66.592l19.708,14.675c-5.303,10.791-9.751,21.983-13.302,33.47l-24.405-2.856l-9.648,82.464
					l24.35,2.849c0.79,11.888,2.518,23.807,5.236,35.659l-22.528,9.714L753.041,961.843z M911.704,688.633
					c71.461-28.146,153.63,4.509,186.278,74.029c36.05,76.767-0.132,167.81-79.041,198.891
					c-71.461,28.147-153.63-4.508-186.278-74.029C796.612,810.758,832.793,719.715,911.704,688.633z"/>
			</g>
			<path style="fill:#F2E6DC;" d="M965.309,1008.949c-55.416,0-109.419-25.069-145.04-70.862c-0.747-0.962-0.575-2.347,0.385-3.094
				c0.965-0.751,2.349-0.573,3.094,0.385c50.121,64.439,137.554,86.834,212.619,54.466
				c90.843-39.174,132.879-144.952,93.705-235.797c-34.879-80.881-125.285-124.951-210.33-102.509
				c-1.161,0.308-2.383-0.39-2.694-1.57c-0.31-1.176,0.392-2.384,1.57-2.694c42.111-11.121,87.037-6.778,126.502,12.213
				c39.855,19.185,71.463,52.147,89,92.816c40.137,93.076-2.931,201.452-96.009,241.589
				C1014.549,1004.055,989.788,1008.949,965.309,1008.949z"/>
		</g>
		<g>
			<g>
				<g>
					
						<rect x="635.875" y="825.336" transform="matrix(-1 -1.224647e-16 1.224647e-16 -1 2729.043 2684.0532)" style="fill:#D3BBA3;" width="1457.293" height="1033.381"/>
					
						<rect x="937.84" y="614.813" transform="matrix(-1.836970e-16 1 -1 -1.836970e-16 2662.2605 -66.7825)" style="fill:#F7F1EB;" width="853.363" height="1365.851"/>
					<path style="fill:#D3BBA3;" d="M1211.121,1880.612h43.144c0,32.364,26.236,58.6,58.6,58.6h103.312
						c32.364,0,58.6-26.236,58.6-58.6h43.143l43.144,229.28v19.175h-393.087v-19.175L1211.121,1880.612z"/>
					<path style="fill:#D3BBA3;" d="M1561.065,2155.24h-393.087c-1.219,0-2.205-0.986-2.205-2.205c0-1.219,0.986-2.205,2.205-2.205
						h393.087c1.219,0,2.205,0.986,2.205,2.205C1563.27,2154.254,1562.283,2155.24,1561.065,2155.24z"/>
				</g>
			</g>
			<polygon style="fill:#D3BBA3;" points="1686.556,1487.308 1878.852,1445.72 1700.582,1409.457 1847.908,1328.346 
				1661.925,1354.345 1695.609,1213.784 1627.159,1288.787 1584.111,1224.208 1566.986,1351.301 1423.6,1143.639 1516.721,1413.376 
				1435.725,1428.541 1545.517,1476.335 1530.954,1546.396 1598.262,1517.632 1751.614,1660.788 			"/>
		</g>
		<g>
			<g>
				<g>
					<path style="fill:#EFBC73;" d="M1599.93,789.668c-3.92,7.971-143.905,31.288-228.809,44.752
						c-38.23,6.062-76.15-12.476-94.853-46.366c-18.552-33.616-7.775-75.863,24.613-96.485l187.097-119.128L1599.93,789.668z"/>
					<g>
						<path style="fill:#EFBC73;" d="M2030.037,901.22c53.906,5.2,98.844-40.731,92.421-94.504
							c-6.895-57.716-47.214-152.752-129.771-257.499c-49.936-63.359-133.653-89.59-210.837-66.123l-293.873,89.347l97.613,252.262
							h352.645L2030.037,901.22z"/>
						<path style="fill:#363E44;" d="M1907.23,730.458c-0.874,0-1.703-0.523-2.048-1.387l-30.594-76.473
							c-0.452-1.13,0.099-2.414,1.229-2.866c1.122-0.45,2.414,0.097,2.866,1.229l30.594,76.473c0.452,1.13-0.099,2.414-1.229,2.866
							C1907.781,730.408,1907.503,730.458,1907.23,730.458z"/>
						<path style="fill:#363E44;" d="M1907.228,766.243c-0.297,0-0.601-0.06-0.891-0.189c-1.113-0.493-1.615-1.796-1.122-2.909
							c35.083-79.197,133.751-53.228,134.739-52.957c1.176,0.323,1.867,1.535,1.546,2.709c-0.323,1.173-1.535,1.86-2.709,1.546
							c-0.956-0.265-96.004-25.228-129.546,50.489C1908.881,765.754,1908.074,766.243,1907.228,766.243z"/>
						<path style="fill:#363E44;" d="M1578.772,801.576c-0.872,0-1.699-0.521-2.045-1.382l-36.595-90.929l-39.807-34.353
							c-0.922-0.794-1.025-2.188-0.228-3.109c0.792-0.924,2.19-1.025,3.109-0.228l40.212,34.702
							c0.267,0.228,0.474,0.519,0.605,0.846l36.795,91.427c0.454,1.128-0.093,2.414-1.223,2.868
							C1579.325,801.524,1579.048,801.576,1578.772,801.576z"/>
					</g>
				</g>
				<g>
					<path style="fill:#84524D;" d="M1428.028,707.774c0,0-51.235-111.757-81.417-174.467
						c-31.698-65.859-88.088-158.478-100.943-150.423c-7.322,4.588-2.244,18.81,13.859,55.92c-2.69-1.062-11.634-2.264-17.729,3.105
						c-9.017,7.946-4.597,16.994-4.587,17.973c-0.883-0.434-11.206-4.84-18.143-0.543c-7.813,4.84-9.376,12.484-8.31,19.618
						c-2.225-1.009-12.364-3.726-18.817,0.735c-8.39,5.8-7.57,17.061-3.806,24.594c6.905,13.819,26.713,51.11,34.67,72.17
						c15.658,41.441,39.81,217.251,102.452,238.743C1372.461,831.396,1439.023,776.348,1428.028,707.774z"/>
					<path style="fill:#363E44;" d="M1217.905,524.081c-5.338,0-11.47-2.791-16.911-9.799c-0.747-0.963-0.573-2.347,0.39-3.094
						c0.967-0.747,2.349-0.571,3.094,0.39c7.138,9.196,14.583,9.282,18.786,6.558c3.958-2.56,4.22-9.411,2.186-14.553
						c-0.454-1.128-0.017-2.403,1.04-3.019c1.059-0.618,2.384-0.366,3.146,0.594c5.294,6.608,12.867,8.374,18.84,4.39
						c4.453-2.971,5.885-12.208,2.89-18.648c-0.467-1.003-0.058-2.407,0.876-3.001c0.997-0.633,2.323-0.428,3.085,0.476
						c5.611,6.576,15.815,8.725,19.917,5.794c2.306-1.649,3.645-3.813,4.091-6.619c1.878-11.791-12.172-30.88-19.719-41.136
						l-1.57-2.138c-0.719-0.984-0.502-2.364,0.48-3.081c0.986-0.719,2.366-0.5,3.081,0.48l1.561,2.125
						c8.486,11.532,22.69,30.831,20.522,44.443c-0.633,3.975-2.614,7.177-5.885,9.513c-4.606,3.292-13.414,2.758-20.59-1.923
						c0.764,7.002-1.6,14.252-6.294,17.385c-6.126,4.087-13.655,3.665-19.854-0.689c0.411,5.267-1.107,10.527-5.406,13.311
						C1223.469,523.258,1220.806,524.081,1217.905,524.081z M1226.191,503.91c0.002,0.004,0.004,0.009,0.009,0.011
						C1226.195,503.917,1226.193,503.914,1226.191,503.91z M1229.545,501.949c0.002,0.007,0.007,0.015,0.009,0.022
						C1229.552,501.964,1229.547,501.957,1229.545,501.949z"/>
					<path style="fill:#84524D;" d="M1257.21,467.46c5.807-8.142,40.982,7.624,47.511,10.599l-13.6,38.737
						C1288.138,513.907,1250.39,477.024,1257.21,467.46z"/>
					<path style="fill:#363E44;" d="M1291.121,519.002c-0.553,0-1.107-0.207-1.535-0.622c-12.695-12.301-41.437-42.01-34.17-52.201
						c5.79-8.107,30.504,0.889,50.222,9.874c1.107,0.506,1.595,1.813,1.092,2.922c-0.506,1.107-1.811,1.6-2.922,1.092
						c-27.422-12.497-42.443-14.633-44.801-11.326c-3.662,5.133,14.232,27.659,33.649,46.473c0.874,0.846,0.896,2.241,0.047,3.118
						C1292.273,518.778,1291.696,519.002,1291.121,519.002z"/>
				</g>
				<polygon style="fill:#D87355;" points="1904.677,1221.576 1610.159,1069.589 1601.242,1086.87 1468.768,1090.323 
					1394.828,980.349 1409.399,952.113 1528.557,1013.605 1557.948,956.65 1438.791,895.159 1453.362,866.922 1585.836,863.469 
					1659.776,973.443 1650.858,990.724 1945.375,1142.71 1954.293,1125.429 2086.767,1121.976 2160.707,1231.949 2146.136,1260.185 
					2026.979,1198.694 1997.587,1255.649 2116.744,1317.14 2102.173,1345.376 1969.699,1348.829 1895.759,1238.856 				"/>
				<g>
					<g>
						<path style="fill:#84524D;" d="M1727.929,999.814c55.757-75.162,164.595-214.222,164.595-214.222s31.319-45.658,79.67-50.238
							c23.676-2.243,47.67,1.295,68.956,9.095c57.655,21.123,78.73,91.687,42.995,141.62
							c-58.396,81.6-177.871,190.649-210.349,229.314c-19.558,23.283-52.852,75.176-64.415,92.418
							c-6.303,9.398-20.745,11.314-31.231,6.429c-10.195-4.748-13.17-16.675-13.624-19.939c-7.857,5.989-18.839,8.465-30.615,2.58
							c-10.454-5.226-12.378-19.399-12.518-20.717c-1.18,0.663-9.72,11.404-26.175,6.182c-11.119-3.528-15.523-14.321-16.265-18.163
							c0,0-10.553,8.588-25.137,0.867C1634.61,1154.871,1631.32,1130.048,1727.929,999.814z"/>
						<g>
							<path style="fill:#363E44;" d="M1811.848,1184.939c-0.308,0-0.62-0.065-0.917-0.2l-17.012-7.816
								c-1.107-0.51-1.593-1.819-1.085-2.924c0.508-1.109,1.819-1.593,2.924-1.085l17.012,7.816c1.107,0.51,1.593,1.819,1.085,2.924
								C1813.482,1184.463,1812.683,1184.939,1811.848,1184.939z"/>
							<path style="fill:#363E44;" d="M1771.16,1165.397c-0.289,0-0.579-0.056-0.861-0.174l-19.497-8.27
								c-1.12-0.476-1.645-1.77-1.169-2.892c0.478-1.122,1.774-1.639,2.892-1.169l19.497,8.27c1.122,0.476,1.645,1.77,1.169,2.892
								C1772.833,1164.893,1772.017,1165.397,1771.16,1165.397z"/>
							<path style="fill:#363E44;" d="M1727.031,1147.571c-0.308,0-0.622-0.065-0.919-0.202c-3.18-1.464-6.059-2.765-8.94-4.067
								c-2.866-1.294-5.732-2.588-8.895-4.046c-1.107-0.508-1.591-1.819-1.081-2.924c0.508-1.107,1.819-1.595,2.924-1.081
								c3.154,1.451,6.012,2.743,8.867,4.033c2.889,1.305,5.779,2.61,8.968,4.08c1.107,0.51,1.591,1.819,1.081,2.924
								C1728.663,1147.095,1727.867,1147.571,1727.031,1147.571z"/>
							<path style="fill:#363E44;" d="M1692.144,1129.693c-0.357,0-0.719-0.086-1.055-0.269l-16.276-8.886
								c-1.07-0.583-1.464-1.923-0.881-2.991c0.583-1.07,1.927-1.462,2.991-0.881l16.28,8.886c1.068,0.583,1.462,1.923,0.878,2.993
								C1693.681,1129.278,1692.925,1129.693,1692.144,1129.693z"/>
						</g>
					</g>
				</g>
			</g>
			<g>
				<g>
					<path style="fill:#84524D;" d="M1653.066,546.457l64.591-36.6l-94.604-103.467c-8.411-10.379-25.108,10.121-35.488,18.532
						c-10.379,8.412-11.974,23.645-3.564,34.023L1653.066,546.457z"/>
					<polygon style="fill:#84524D;" points="1675.72,566.461 1734.234,498.23 1662.508,505.806 1634.198,551.763 					"/>
				</g>
				<g>
					<path style="fill:#84524D;" d="M1560.077,507.141c16.807,10.177,56.649-28.928,56.649-28.928l24.903-50.903
						c-2.018-27.567-26-48.279-53.567-46.261c-27.567,2.018-48.279,26.001-46.261,53.567
						C1541.8,434.616,1542.958,496.775,1560.077,507.141z"/>
					<path style="fill:#84524D;" d="M1548.497,447.321c0,0-12.926,15.693-11.898,19.511c1.227,4.557,17.029,6.236,17.029,6.236
						S1548.127,447.384,1548.497,447.321z"/>
					<g>
						<path style="fill:#FFFFFF;" d="M1582.584,424.78c0,0-7.988,2.308-14.297,8.484c-1.342,1.314,11.704,9.575,12.382,7.72
							C1583.653,432.826,1582.584,424.78,1582.584,424.78z"/>
						<g>
							<defs>
								<path id="SVGID_2_" d="M1582.584,424.78c0,0-11.749,3.395-18.001,12.965c-6.252,9.571-4.64,21.694-4.64,21.694
									s11.749-3.395,18.001-12.966C1584.196,436.903,1582.584,424.78,1582.584,424.78z"/>
							</defs>
							<clipPath id="SVGID_00000054238435052022433780000001996171483195942803_">
								<use xlink:href="#SVGID_2_"  style="overflow:visible;"/>
							</clipPath>
							<path style="clip-path:url(#SVGID_00000054238435052022433780000001996171483195942803_);fill:#363E44;" d="M1567.75,433.249
								c-8.256-0.088-15.021,6.534-15.109,14.79c-0.088,8.257,6.534,15.021,14.791,15.109c8.256,0.088,15.021-6.534,15.109-14.79
								C1582.628,440.101,1576.006,433.337,1567.75,433.249z"/>
						</g>
					</g>
					<g>
						<path style="fill:#363E44;" d="M1644.49,372.125c0,0,27.666,51.008-5.763,74.375l-10.47-6.733l-20.688,12.301l5.233-27.549
							c0.894-10.485-8.027-19.167-18.483-17.989l-45.646,5.141l-1.312-24.563C1576.06,365.551,1607.914,358.201,1644.49,372.125z"/>
						<path style="fill:#363E44;" d="M1593.054,370.062c5.221,0.707,10.027-2.952,10.735-8.174
							c0.707-5.222-2.582-12.76-7.803-13.468c-5.222-0.707-10.398,5.685-11.105,10.907
							C1584.173,364.548,1587.832,369.355,1593.054,370.062z"/>
						<path style="fill:#363E44;" d="M1586.192,373.429c4.907-1.919,7.33-7.453,5.411-12.36c-1.919-4.907-8.457-9.898-13.365-7.979
							c-4.907,1.919-6.325,10.021-4.406,14.928C1575.75,372.926,1581.284,375.348,1586.192,373.429z"/>
						<path style="fill:#363E44;" d="M1571.526,380.807c6.096-3.721,8.021-11.678,4.3-17.774
							c-3.721-6.095-13.626-11.211-19.721-7.49c-6.096,3.721-6.073,14.869-2.353,20.964
							C1557.472,382.602,1565.43,384.528,1571.526,380.807z"/>
						<path style="fill:#363E44;" d="M1608.189,369.668c5.196,0.875,10.118-2.627,10.993-7.823
							c0.875-5.196-2.169-12.837-7.365-13.712c-5.196-0.875-10.576,5.346-11.451,10.542
							C1599.491,363.871,1602.993,368.793,1608.189,369.668z"/>
						<path style="fill:#363E44;" d="M1559.928,384.341c2.032-6.023-1.203-12.553-7.226-14.585
							c-6.023-2.032-15.705,0.139-17.737,6.162c-2.032,6.023,4.355,13.616,10.378,15.649
							C1551.366,393.599,1557.896,390.364,1559.928,384.341z"/>
						<path style="fill:#363E44;" d="M1620.477,371.986c6.163,2.262,12.993-0.9,15.254-7.063c2.262-6.163,0.284-16.218-5.879-18.48
							c-6.163-2.262-14.177,4.126-16.439,10.289C1611.152,362.895,1614.314,369.724,1620.477,371.986z"/>
						<path style="fill:#363E44;" d="M1632.435,372.586c3.53,3.715,9.403,3.864,13.117,0.334c3.715-3.53,5.808-11.25,2.278-14.965
							c-3.53-3.715-11.347-2.017-15.061,1.513C1629.055,362.999,1628.905,368.872,1632.435,372.586z"/>
						<path style="fill:#363E44;" d="M1558.419,398.886c0.048-7.749-6.194-14.07-13.943-14.118
							c-7.749-0.048-18.125,6.169-18.174,13.918c-0.048,7.749,10.25,14.095,17.999,14.143
							C1552.051,412.878,1558.371,406.635,1558.419,398.886z"/>
					</g>
					<path style="fill:#84524D;" d="M1651.326,426.8c4.361,8.478,1.024,18.886-7.454,23.247c-8.478,4.361-18.886,1.024-23.247-7.454
						c-4.361-8.478-1.024-18.885,7.454-23.246C1636.556,414.985,1646.964,418.322,1651.326,426.8z"/>
					<path style="fill:#363E44;" d="M1545.238,471.575l8.376,41.181c1.166,5.733,6.872,9.327,12.551,7.918
						c1.429-0.354,2.97-0.754,4.603-1.202c28.269-7.751,50.539-29.553,58.855-57.661c2.786-9.416-0.531-19.575-8.336-25.533
						l-2.573-1.964l-7.77,5.176c0,0-4.172,23.193-12.538,25.623C1590.04,467.544,1573.67,462.064,1545.238,471.575z"/>
					<path style="fill:#84524D;" d="M1566.099,483.027c-1.52,0-3.045-0.372-4.433-1.128c-1.068-0.581-1.464-1.921-0.881-2.991
						c0.583-1.068,1.916-1.466,2.991-0.881c1.673,0.911,3.723,0.76,5.224-0.379c1.447-1.096,2.157-2.967,1.809-4.767
						c-0.233-1.195,0.549-2.353,1.744-2.584c1.201-0.243,2.349,0.549,2.584,1.744c0.667,3.439-0.696,7.017-3.473,9.121
						C1570.035,482.398,1568.073,483.027,1566.099,483.027z"/>
					<path style="fill:#84524D;" d="M1606.765,408.993c-0.581,0-1.161-0.228-1.594-0.68c-0.842-0.881-0.812-2.276,0.069-3.118
						l18.3-17.507c0.885-0.84,2.276-0.81,3.118,0.069c0.842,0.881,0.812,2.276-0.069,3.118l-18.3,17.507
						C1607.861,408.791,1607.314,408.993,1606.765,408.993z"/>
				</g>
			</g>
		</g>
		<g>
			<path style="fill:#363E44;" d="M763.166,2007.423l11.619,149.011h230.169c-9.109-90.537-20.578-296.947-50.156-434.184
				c-91.626-16.794-216.785-33.588-308.412-50.383c-37.626,58.204-130.646,346.523-167.313,484.568h246.003L763.166,2007.423z"/>
			<g>
				<g>
					<g>
						<path style="fill:#E2A18D;" d="M1326.595,1238.604c-6.653-3.635-16.124,0-18.161,1.195c0.304-6.964-1.972-14.151-9.971-18.012
							c-7.103-3.428-16.58,1.849-17.385,2.356c-0.089-0.942,3.244-10.084-6.226-16.808c-6.4-4.543-14.876-2.485-17.354-1.193
							c11.726-37.288,15.17-51.467,7.668-55.136c-13.17-6.441-65.394,88.322-80.386,157.336
							c-25.066,115.383-51.132,156.397-51.679,157.763c2.593,1.91,5.186,3.82,7.789,5.717
							c37.693,27.469,39.259,32.671,77.164,59.841c1.01-3.201,59.519,9.428,88.655-196.954
							c3.041-21.539,20.789-58.877,26.029-72.855C1335.596,1254.234,1335.246,1243.33,1326.595,1238.604z"/>
						<path style="fill:#363E44;" d="M1256.317,1321.403c-0.004,0-0.011,0-0.015,0c-1.219-0.009-2.198-1.003-2.19-2.22
							c0.105-15.014-5.37-25.984-9.769-34.799c-4.522-9.06-8.427-16.885-2.091-23.786c3.772-4.108,6.281-11.046,7.256-20.061
							c0.228-2.123-1.038-3.555-2.3-4.186c-1.285-0.642-3.223-0.797-4.819,0.689l-33.557,31.339
							c-0.887,0.831-2.287,0.786-3.116-0.106c-0.831-0.889-0.784-2.284,0.105-3.116l33.557-31.339
							c2.672-2.498,6.52-3.051,9.799-1.412c3.251,1.626,5.101,5.002,4.713,8.604c-1.092,10.1-3.917,17.694-8.393,22.571
							c-4.1,4.466-1.987,9.263,2.788,18.831c4.61,9.237,10.346,20.73,10.234,36.799
							C1258.514,1320.425,1257.527,1321.403,1256.317,1321.403z"/>
						<path style="fill:#363E44;" d="M1315.462,1274.346c-0.256,0-0.515-0.043-0.769-0.138
							c-10.068-3.742-16.418-13.414-16.385-23.706l-0.952,1.753c-3.893,7.168-12.342,10.529-20.097,7.984
							c-4.364-1.43-7.88-4.487-9.905-8.608c-2.022-4.123-2.286-8.774-0.747-13.1l1.613-4.524c-3.809,2.237-8.619,2.657-12.884,0.702
							c-6.457-2.95-9.661-10.262-7.45-17.01l5.236-15.976c0.379-1.156,1.623-1.789,2.782-1.408c1.156,0.379,1.787,1.625,1.408,2.782
							l-5.237,15.976c-1.509,4.612,0.678,9.609,5.092,11.627c4.687,2.136,10.316,0.108,12.548-4.532l5.03-10.445
							c0.51-1.057,1.759-1.529,2.838-1.079c1.081,0.452,1.619,1.671,1.227,2.775l-8.048,22.593c-1.139,3.193-0.943,6.63,0.551,9.676
							c1.494,3.045,4.093,5.303,7.318,6.36c5.719,1.871,11.972-0.603,14.848-5.9l8.604-15.83c0.538-0.99,1.744-1.417,2.78-0.984
							c1.042,0.431,1.591,1.576,1.273,2.659l-2.584,8.796c-3.055,10.402,2.513,21.508,12.678,25.284
							c1.141,0.424,1.723,1.692,1.298,2.836C1317.2,1273.797,1316.358,1274.346,1315.462,1274.346z"/>
					</g>
				</g>
				<g>
					<polygon style="fill:#FFFFFF;" points="804.677,1856.757 825.432,1977.042 990.383,1915.731 979.459,1855.665 					"/>
					<polygon style="fill:#FFFFFF;" points="806.861,1861.671 786.106,1975.252 554.094,1887.124 565.018,1827.057 					"/>
				</g>
				<g>
					<path style="fill:#ff6900;" d="M798.669,1427.827c0,0,80.272-32.611,96.933-24.539
						c108.041,52.344,221.518,75.089,276.88-52.963c6.903,3.596,133.243,60.022,133.243,60.022s-33.873,146.855-144.226,188.709
						c-56.97,21.607-117.553,25.175-157.514,14.194c2.602,83.518-14.694,224.939-17.971,270.808
						c-95.038,29.487-311.331,9.829-422.755-32.764c2.198-35.846,11.788-170.825,13.427-221.063
						c-3.322,1.274-35.275,14.652-35.275,14.652l109.239,101.567l-114.701,115.765c0,0-195.247-174.813-191.168-255.556
						c4.358-86.258,199.955-194.599,376.37-218.94C765.863,1381.553,798.669,1427.827,798.669,1427.827z"/>
				</g>
				<g>
					
						<rect x="886.169" y="1217.795" transform="matrix(0.7954 0.6061 -0.6061 0.7954 1110.3486 -231.8334)" style="fill:#363E44;" width="24.81" height="621.951"/>
					
						<rect x="873.923" y="1496.16" transform="matrix(0.7954 0.6061 -0.6061 0.7954 1108.3127 -234.8437)" style="fill:#363E44;" width="56.186" height="56.186"/>
					<polygon style="fill:#363E44;" points="1148.734,1221.082 1128.838,1205.923 1091.594,1234.167 1074.247,1277.572 
						1094.142,1292.731 1131.386,1264.486 					"/>
					<polygon style="fill:#EFBC73;" points="923.192,1555.69 866.086,1512.18 684.856,1690.808 560.731,1912.946 617.837,1956.457 
						799.067,1777.828 					"/>
					<path style="fill:#363E44;" d="M604.787,1916.659c-0.465,0-0.935-0.146-1.333-0.45c-0.969-0.739-1.156-2.121-0.42-3.09
						l186.755-245.26c0.739-0.969,2.123-1.158,3.09-0.42c0.969,0.739,1.156,2.121,0.42,3.09l-186.755,245.26
						C606.109,1916.36,605.452,1916.659,604.787,1916.659z"/>
					<path style="fill:#363E44;" d="M801.724,1658.027c-0.465,0-0.935-0.146-1.333-0.45c-0.969-0.739-1.156-2.121-0.42-3.09
						l77.285-101.497c0.738-0.969,2.123-1.156,3.09-0.42c0.969,0.739,1.156,2.121,0.42,3.09l-77.285,101.497
						C803.046,1657.728,802.389,1658.027,801.724,1658.027z"/>
				</g>
				<g>
					<path style="fill:#E2A18D;" d="M637.732,1738.547c0,0,50.989,37.285,55.628,40.919c21.476,16.819,68.24,51.39,59.98,68.185
						c-2.747,5.586-9.214,9.11-16.646,9.542c2.276,7.653-0.148,15.84-6.077,20.669c-7.791,6.346-17.398,3.442-18.099,3.217
						c2.526,5.645,2.101,12.057-1.322,16.53c-4.723,6.171-14.576,7.895-22.547,2.91c-0.159,1.746-0.94,7.944-6.046,12.45
						c-5.657,4.993-14.337,5.891-21.964,2.235c-19.093-14.929-111.581-72.644-111.581-72.644L637.732,1738.547z"/>
					<g>
						<path style="fill:#363E44;" d="M717.73,1832.897c-0.525,0-1.051-0.185-1.471-0.562c-0.909-0.814-0.984-2.207-0.172-3.113
							l8.005-8.942c0.814-0.909,2.211-0.982,3.113-0.172c0.907,0.812,0.984,2.207,0.172,3.113l-8.005,8.942
							C718.936,1832.65,718.335,1832.897,717.73,1832.897z"/>
						<path style="fill:#363E44;" d="M697.445,1855.619c-0.525,0-1.051-0.185-1.471-0.562c-0.909-0.814-0.984-2.207-0.172-3.113
							l8.008-8.942c0.818-0.909,2.211-0.982,3.113-0.172c0.909,0.814,0.984,2.207,0.172,3.114l-8.008,8.942
							C698.651,1855.372,698.05,1855.619,697.445,1855.619z"/>
						<path style="fill:#363E44;" d="M677.046,1878.983c-0.525,0-1.051-0.185-1.471-0.562c-0.906-0.812-0.984-2.207-0.172-3.113
							l8.008-8.944c0.814-0.906,2.213-0.982,3.113-0.172c0.906,0.812,0.984,2.207,0.172,3.114l-8.008,8.944
							C678.254,1878.736,677.651,1878.983,677.046,1878.983z"/>
						<path style="fill:#363E44;" d="M658.109,1899.789c-0.525,0-1.051-0.185-1.471-0.562c-0.909-0.814-0.984-2.207-0.172-3.113
							l8.008-8.942c0.818-0.906,2.211-0.98,3.113-0.172c0.909,0.814,0.984,2.207,0.172,3.114l-8.008,8.942
							C659.315,1899.541,658.714,1899.789,658.109,1899.789z"/>
					</g>
				</g>
				<polygon style="fill:#FFFFFF;" points="829.073,1454.129 801.399,1435.199 775.182,1486.892 738.041,1394.426 				"/>
				<polygon style="fill:#FFFFFF;" points="854.38,1434.653 889.883,1472.331 883.329,1403.527 				"/>
				<g>
					<path style="fill:#FFFFFF;" d="M895.576,1403.296c-16.649-8.063-32.627-13.749-47.411-16.167
						c-38.83-6.351-82.32-5.573-127.042,0.599c-0.178,2.987-0.183,6.007,0.043,9.06c3.132,42.407,45.02,73.881,93.562,70.298
						C855.648,1464.066,888.23,1437.096,895.576,1403.296z"/>
					<path style="fill:#363E44;" d="M775.182,1489.096c-0.032,0-0.065,0-0.097-0.002c-0.863-0.039-1.626-0.577-1.949-1.38
						l-37.142-92.465c-0.454-1.13,0.095-2.414,1.223-2.868c1.128-0.452,2.416,0.097,2.868,1.223l35.329,87.952l24.018-47.354
						c0.286-0.566,0.803-0.982,1.419-1.139c0.614-0.157,1.266-0.043,1.792,0.317l27.674,18.93c1.005,0.687,1.262,2.058,0.575,3.064
						c-0.685,1.003-2.056,1.264-3.064,0.575l-25.601-17.511l-25.08,49.451C776.771,1488.631,776.011,1489.096,775.182,1489.096z"/>
					<path style="fill:#363E44;" d="M889.882,1474.537c-0.594,0-1.178-0.241-1.604-0.693l-35.501-37.68
						c-0.836-0.885-0.794-2.28,0.093-3.116c0.887-0.838,2.282-0.795,3.116,0.093l31.091,32.999l-5.943-62.402
						c-0.116-1.212,0.773-2.289,1.985-2.403c1.232-0.166,2.289,0.773,2.403,1.985l6.554,68.804c0.09,0.937-0.426,1.828-1.283,2.218
						C890.5,1474.472,890.19,1474.537,889.882,1474.537z"/>
				</g>
			</g>
			<g>
				<polygon style="fill:#E2A18D;" points="758.088,1386.343 844.938,1453.387 844.938,1227.879 758.088,1227.879 				"/>
				<path style="fill:#E2A18D;" d="M876.236,1331.485c-13.179,18.302-73.807,1.552-73.807,1.552l-48.233-49.209
					c-10.262-30.021,5.762-62.674,35.79-72.933c30.028-10.259,62.69,5.76,72.952,35.781
					C862.938,1246.675,889.659,1312.844,876.236,1331.485z"/>
				<path style="fill:#E2A18D;" d="M861.575,1263.103c0,0,20.711,10.764,21.341,15.258c0.752,5.365-15.186,14.239-15.186,14.239
					S861.994,1263.003,861.575,1263.103z"/>
				<path style="fill:#363E44;" d="M844.716,1343.072c-0.032,0-0.067,0-0.099-0.002c-7.697-0.34-25.797-2.793-32.672-3.99
					c-1.199-0.209-2.002-1.352-1.794-2.552c0.211-1.197,1.337-1.992,2.551-1.793c6.604,1.152,24.705,3.602,32.108,3.929
					c1.217,0.054,2.16,1.083,2.106,2.3C846.865,1342.148,845.887,1343.072,844.716,1343.072z"/>
				<g>
					<path style="fill:#FFFFFF;" d="M805.021,1275.594c0,0,8.142-8.773,20.168-12.881c2.559-0.874,4.729,21.244,1.904,20.915
						C814.672,1282.18,805.021,1275.594,805.021,1275.594z"/>
					<g>
						<defs>
							<path id="SVGID_1_" d="M805.021,1275.594c0,0,11.976-12.903,28.331-14.74c16.355-1.837,30.896,8.087,30.896,8.087
								s-11.975,12.903-28.331,14.74C819.562,1285.517,805.021,1275.594,805.021,1275.594z"/>
						</defs>
						<clipPath id="SVGID_00000033361094622571497580000017785079724059854236_">
							<use xlink:href="#SVGID_1_"  style="overflow:visible;"/>
						</clipPath>
						
							<ellipse transform="matrix(1 -0.0047 0.0047 1 -6.0105 4.0142)" style="clip-path:url(#SVGID_00000033361094622571497580000017785079724059854236_);fill:#363E44;" cx="844.841" cy="1271.49" rx="21.523" ry="21.518"/>
					</g>
				</g>
				<path style="fill:#363E44;" d="M852.325,1310.131c-0.887,0-1.781-0.108-2.663-0.329c-4.044-1.016-7.222-4.319-8.1-8.414
					c-0.256-1.191,0.502-2.364,1.692-2.618c1.199-0.263,2.364,0.502,2.618,1.692c0.53,2.465,2.44,4.455,4.864,5.064
					c2.513,0.627,5.193-0.284,6.823-2.338c0.758-0.952,2.14-1.111,3.098-0.355c0.954,0.758,1.113,2.145,0.355,3.098
					C858.879,1308.618,855.652,1310.131,852.325,1310.131z"/>
				<path style="fill:#363E44;" d="M778.294,1306.527c-0.521,0-1.044-0.183-1.464-0.556c-4.812-4.274-7.756-9.519-7.87-14.03
					c-0.058-2.297,0.616-4.207,1.953-5.521c3.294-3.24,9.917-2.231,15.023-0.198c1.13,0.45,1.684,1.731,1.232,2.864
					c-0.448,1.13-1.727,1.686-2.864,1.231c-4.933-1.961-9.11-1.921-10.298-0.754c-0.431,0.424-0.663,1.249-0.637,2.265
					c0.067,2.558,1.779,6.75,6.391,10.843c0.911,0.81,0.993,2.203,0.185,3.113C779.506,1306.277,778.901,1306.527,778.294,1306.527z
					"/>
				<path style="fill:#84524D;" d="M760.162,1324.895c-12.569-0.935-24.645-32.781-25.671-38.224
					c-3.55-18.839-6.177-37.298,8.466-60.067c19.709-30.646,59.535-28.941,68.274-27.849c23.702,2.962,43.696,19.112,40.965,26.757
					c-2.354,6.59-27.346,6.975-34.775,7.644c-17.978,1.619-26.498-0.63-29.859,4.732c-3.078,4.912,5.067,11.002,8.922,26.121
					c2.854,11.194,1.092,20.477,0.181,26.301c-3.732-9.919-12.291-16.106-20.664-16.199c-8.74-0.098-13.37,6.637-15.385,12.559
					c-4.551,13.379,4.188,27.303,14.929,33.491C772.724,1322.983,764.37,1325.207,760.162,1324.895z"/>
				<path style="fill:#84524D;" d="M743.502,1225.511c0,14.325-11.615,25.939-25.944,25.939c-14.328,0-25.944-11.613-25.944-25.939
					s11.616-25.937,25.944-25.937C731.887,1199.574,743.502,1211.186,743.502,1225.511z"/>
				<path style="fill:#84524D;" d="M715.101,1264.302c-15.522,0-28.15-12.624-28.15-28.142s12.628-28.144,28.15-28.144
					c15.52,0,28.148,12.626,28.148,28.144S730.621,1264.302,715.101,1264.302z M715.101,1212.426
					c-13.091,0-23.74,10.647-23.74,23.734s10.649,23.732,23.74,23.732c13.089,0,23.739-10.645,23.739-23.732
					S728.19,1212.426,715.101,1212.426z"/>
				<path style="fill:#84524D;" d="M821.649,1280.291c-0.715,0-1.415-0.347-1.841-0.986c-0.672-1.016-0.394-2.383,0.62-3.057
					c13.834-9.168,16.032-14.721,15.44-17.764c-0.45-2.31-2.683-3.91-5.047-5.602c-2.765-1.977-5.895-4.218-6.27-8.074
					c-0.682-7.013,10.91-14.252,20.754-19.09c1.104-0.534,2.416-0.084,2.952,1.005c0.536,1.094,0.086,2.416-1.005,2.952
					c-14.874,7.31-18.508,12.684-18.313,14.706c0.181,1.862,2.157,3.277,4.448,4.916c2.823,2.022,6.025,4.313,6.808,8.343
					c1.253,6.436-4.416,13.724-17.331,22.285C822.491,1280.172,822.067,1280.291,821.649,1280.291z"/>
			</g>
		</g>
	</g>
</g>
</svg>
