<?xml version="1.0" encoding="utf-8"?>
<!-- Generator: Adobe Illustrator 27.5.0, SVG Export Plug-In . SVG Version: 6.00 Build 0)  -->
<svg version="1.1" xmlns="http://www.w3.org/2000/svg" xmlns:xlink="http://www.w3.org/1999/xlink" x="0px" y="0px"
	 viewBox="0 0 2500 2500" style="enable-background:new 0 0 2500 2500;" xml:space="preserve">
-
<g id="Illustration">
	<g id="Passive_lifestyle_1_">
		<circle style="fill:transparent;" cx="1250.735" cy="1250" r="915"/>
		<path style="fill:#E6D0BE;" d="M512.138,1790.181C678.621,2017.43,947.442,2165,1250.735,2165s572.114-147.57,738.597-374.819
			H512.138z"/>
		<g>
			<g>
				<path style="fill:#E6D0BE;" d="M1266.235,980.531c-11.907,4.133-24.758-2.626-28.704-15.094
					c-3.946-12.469,2.508-25.926,14.414-30.059l84.56-30.325c14.918-51.574,8.389-116.945-4.444-175.965l-43.584,15.126
					c-11.907,4.132-24.758-2.626-28.704-15.094c-3.946-12.469,2.508-25.926,14.415-30.059l46.378-16.096
					c-17.432-62.338-37.759-108.963-37.759-108.963s-26.839,8.181-64.313,23.765l9.015,22.894
					c4.782,12.144-0.742,26.048-12.339,31.055c-11.597,5.008-24.874-0.778-29.656-12.922l-8.8-22.348
					c-29.875,14.345-62.201,32.158-91.538,53.182l33.145,84.175c4.782,12.144-0.742,26.048-12.339,31.055
					c-11.596,5.008-24.874-0.778-29.656-12.922l-28.37-72.052c-21.287,19.888-38.794,41.917-49.318,65.957
					c-43.068,98.382-34.883,198.825,18.282,224.347c27.144,13.03,60.763,4.01,92.905-21.033
					c2.858,41.844,18.275,74.405,45.419,87.436c45.456,21.821,109.059-18.224,153.472-91.78L1266.235,980.531z M1043.244,916.841
					c-12.337-5.922-17.754-21.198-12.098-34.118c5.656-12.92,20.243-18.593,32.58-12.671c12.339,5.923,17.755,21.199,12.099,34.119
					C1070.169,917.092,1055.582,922.764,1043.244,916.841z M1252.149,824.884c5.656-12.92,20.243-18.593,32.582-12.67
					c12.339,5.923,17.756,21.199,12.099,34.119c-5.656,12.92-20.243,18.593-32.582,12.67
					C1251.91,853.08,1246.493,837.805,1252.149,824.884z"/>
				<path style="fill:#D3BBA3;" d="M1056.171,1385.799c-1.156,0-2.125-0.9-2.198-2.067
					c-9.254-148.741,13.158-304.483,66.614-462.902c43.22-128.08,98.351-234.962,146.579-322.625
					c0.586-1.068,1.925-1.451,2.995-0.868c1.066,0.586,1.455,1.927,0.868,2.995c-70.268,127.72-234.824,426.822-212.655,783.124
					c0.075,1.217-0.848,2.263-2.063,2.338C1056.263,1385.797,1056.216,1385.799,1056.171,1385.799z"/>
			</g>
			<g>
				<path style="fill:#E6D0BE;" d="M647.168,845.692c51.348,68.427,118.52,101.468,161.613,74.904
					c25.732-15.862,37.897-49.901,36.663-91.832c34.413,21.478,68.737,26.86,94.469,10.998
					c50.401-31.069,48.757-131.863-3.671-225.13c-12.811-22.79-32.373-42.834-55.487-60.344l-21.203,74.707
					c-3.574,12.591-16.218,19.765-28.242,16.023c-12.024-3.742-18.874-16.984-15.3-29.575l24.771-87.277
					c-31.232-17.78-65.125-32.046-96.242-43.124l-6.577,23.172c-3.574,12.591-16.218,19.765-28.242,16.023
					c-12.024-3.742-18.874-16.984-15.3-29.575l6.737-23.737c-38.797-11.499-66.293-16.77-66.293-16.77
					s-15.678,48.553-26.946,112.429l47.704,11.057c12.247,2.839,19.979,15.537,17.268,28.362
					c-2.711,12.825-14.837,20.921-27.084,18.082l-44.83-10.39c-7.016,60.083-7.142,125.81,12.723,175.521l106.012,24.572
					c12.247,2.839,19.979,15.537,17.268,28.362c-2.711,12.825-14.837,20.921-27.084,18.082L647.168,845.692z M893.528,749.744
					c-6.885-12.249-2.985-28.023,8.712-35.234c11.695-7.209,26.759-3.125,33.644,9.124c6.885,12.249,2.985,28.023-8.71,35.233
					C915.477,766.078,900.414,761.993,893.528,749.744z M681.093,735.685c-11.697,7.211-26.761,3.126-33.646-9.123
					c-6.885-12.249-2.985-28.023,8.712-35.234c11.697-7.211,26.761-3.126,33.646,9.123C696.69,712.7,692.79,728.474,681.093,735.685
					z"/>
				<path style="fill:#D3BBA3;" d="M934.888,1233.845c-1.18,0-2.16-0.937-2.201-2.127
					c-11.31-318.661-157.47-569.616-283.539-752.644c-0.691-1.003-0.439-2.375,0.564-3.066c1.01-0.691,2.379-0.435,3.066,0.564
					c55.661,80.81,119.992,180.057,175.102,303.462c67.174,150.423,103.917,302.34,109.212,451.529
					c0.043,1.217-0.909,2.237-2.125,2.28C934.942,1233.845,934.917,1233.845,934.888,1233.845z"/>
			</g>
			<polygon style="fill:#D3BBA3;" points="1098.604,1523.056 850.563,1523.056 822.216,1187.4 1126.951,1187.4 			"/>
		</g>
		<g>
			<g>
				<path style="fill:#363E44;" d="M573.122,1944.518H336.47c-1.219,0-2.205-0.986-2.205-2.205v-573.8
					c0-1.219,0.986-2.205,2.205-2.205h236.652c1.219,0,2.205,0.986,2.205,2.205v573.8
					C575.326,1943.532,574.34,1944.518,573.122,1944.518z M338.674,1940.109h232.242v-569.39H338.674V1940.109z"/>
				<path style="fill:#363E44;" d="M444.913,1942.393c-1.214,0-2.201-0.984-2.205-2.198l-1.602-560.252
					c-0.004-1.219,0.982-2.207,2.198-2.211c0.002,0,0.004,0,0.006,0c1.214,0,2.201,0.984,2.205,2.198l1.602,560.252
					c0.004,1.219-0.982,2.207-2.198,2.211C444.917,1942.393,444.915,1942.393,444.913,1942.393z"/>
				<path style="fill:#363E44;" d="M444.112,1587.486c-1.212,0-2.198-0.977-2.205-2.192c-0.007-1.216,0.973-2.211,2.192-2.218
					l118.978-0.708c1.266-0.071,2.209,0.973,2.218,2.192c0.007,1.216-0.973,2.211-2.192,2.218l-118.978,0.708
					C444.12,1587.486,444.116,1587.486,444.112,1587.486z"/>
				<path style="fill:#363E44;" d="M564.507,1381.609c-0.002,0-0.002,0-0.004,0l-121.196-0.265
					c-1.219-0.002-2.203-0.993-2.201-2.209c0.002-1.216,0.988-2.2,2.205-2.2c0.002,0,0.002,0,0.004,0l121.196,0.265
					c1.219,0.002,2.203,0.993,2.201,2.209C566.71,1380.625,565.721,1381.609,564.507,1381.609z"/>
				<path style="fill:#363E44;" d="M445.595,1931.767c-1.212,0-2.198-0.978-2.205-2.192c-0.007-1.217,0.973-2.211,2.192-2.218
					l118.978-0.708c0.004,0,0.009,0,0.013,0c1.212,0,2.198,0.978,2.205,2.192c0.006,1.217-0.973,2.211-2.192,2.218l-118.978,0.708
					C445.604,1931.767,445.6,1931.767,445.595,1931.767z"/>
				<path style="fill:#363E44;" d="M444.112,1598.112c-1.212,0-2.198-0.978-2.205-2.192c-0.007-1.217,0.973-2.211,2.192-2.218
					l118.978-0.708c0.004,0,0.009,0,0.013,0c1.212,0,2.198,0.978,2.205,2.192c0.007,1.217-0.973,2.211-2.192,2.218l-118.978,0.708
					C444.12,1598.112,444.116,1598.112,444.112,1598.112z"/>
				<path style="fill:#363E44;" d="M445.595,1789.38c-1.212,0-2.198-0.977-2.205-2.192c-0.007-1.216,0.973-2.211,2.192-2.218
					l118.978-0.708c0.004,0,0.009,0,0.013,0c1.212,0,2.198,0.977,2.205,2.192c0.006,1.216-0.973,2.211-2.192,2.218l-118.978,0.708
					C445.604,1789.38,445.6,1789.38,445.595,1789.38z"/>
				<path style="fill:#363E44;" d="M445.595,1776.629c-1.212,0-2.198-0.978-2.205-2.192c-0.007-1.217,0.973-2.211,2.192-2.218
					l117-0.708c1.154-0.045,2.211,0.971,2.218,2.192c0.006,1.217-0.973,2.211-2.192,2.218l-117,0.708
					C445.604,1776.629,445.6,1776.629,445.595,1776.629z"/>
				<path style="fill:#363E44;" d="M565.037,1929.084c-1.219,0-2.205-0.986-2.205-2.205v-546.795c0-1.219,0.986-2.205,2.205-2.205
					c1.219,0,2.205,0.986,2.205,2.205v546.795C567.241,1928.098,566.255,1929.084,565.037,1929.084z"/>
			</g>
			<g>
				<g>
					<polygon style="fill:#EFBC73;" points="501.281,1266.536 468.348,1275.489 427.97,1272.232 429.991,634.856 468.301,627.305 
						501.097,634.121 					"/>
					<path style="fill:#363E44;" d="M468.139,1275.673l-40.467-1.526c-6.599-0.249-11.817-5.679-11.802-12.283l1.412-619.956
						c0.017-7.593,6.104-13.779,13.696-13.919l37.161-0.685V1275.673z"/>
					<polygon style="fill:#363E44;" points="468.139,1275.489 501.281,1266.536 501.097,1261.575 467.473,1270.211 					"/>
					<polygon style="fill:#363E44;" points="468.139,627.305 501.097,634.121 501.097,638.806 468.025,633.064 					"/>
					<polygon style="fill:#363E44;" points="501.279,1266.29 501.051,634.213 497.055,634.718 495.217,1266.169 					"/>
				</g>
				<rect x="436.447" y="1262.494" style="fill:#363E44;" width="27.928" height="85.253"/>
				<rect x="396.009" y="1348.482" style="fill:#363E44;" width="109.507" height="19.843"/>
			</g>
		</g>
		<g>
			<path style="fill:#EFBC73;" d="M2165.033,1660.097l-368.524,30.867l118.595-766.158c0-121.169,94.349-219.396,210.734-219.396
				c21.647,0,39.195,18.269,39.195,40.806V1660.097z"/>
			<g>
				<g>
					<g>
						<g>
							<path style="fill:#776E42;" d="M835.494,1555.045c-17.909-16.115-45.672-36.992-83.868-51.955
								c-71.088-27.849-134.917-18.218-162.826-12.196c21.112,34.25,46.401,71.109,76.64,109.053
								c45.178,56.691,90.95,102.687,132.369,139.337c27.45-4.088,46.677-13.164,70.446-29.436
								c25.302-17.321,48.285-34.875,47.278-66.373C914.291,1604.603,881.846,1567.142,835.494,1555.045z"/>
							<path style="fill:#BC8271;" d="M833.507,1535.619l112.606-109.848l115.651,140.109c0,0-85.379,54.36-141.751,80.988
								c-16.638,7.859-42.009,0.896-55.703-11.396c-11.022-9.894-24.297-23.617-36.384-40.966
								C815.141,1576.154,817.498,1551.235,833.507,1535.619z"/>
						</g>
						<g>
							<path style="fill:#ff6900;" d="M898.451,1435.013l131.769,170.349c0,0,150.497-75.429,247.362-171.432
								c6.435-6.378,15.546-9.26,24.452-7.595l347.697,65.006c113.797,21.276,212.364-80.56,187.388-193.602l-8.372-37.893
								l-502.399-93.929c-49.971-9.343-101.585,1.473-143.616,30.07C1116.596,1240.985,1010.657,1320.578,898.451,1435.013z"/>
							<path style="fill:#363E44;" d="M1082.896,1271.579c-0.652,0-1.298-0.289-1.733-0.84c-0.754-0.956-0.59-2.343,0.366-3.096
								c33.404-26.354,67.036-51.077,99.964-73.48c34.498-23.471,74.757-35.124,116.433-33.604c1.217,0.043,2.168,1.064,2.123,2.282
								c-0.041,1.216-1.059,2.198-2.282,2.123c-40.681-1.432-80.075,9.907-113.794,32.846
								c-32.842,22.343-66.39,47.005-99.714,73.295C1083.854,1271.424,1083.374,1271.579,1082.896,1271.579z"/>
							<path style="fill:#363E44;" d="M1148.142,1538.3c-0.717,0-1.419-0.349-1.843-0.99c-0.67-1.016-0.39-2.384,0.627-3.055
								c52.233-34.472,95.669-68.752,129.105-101.889c6.98-6.918,16.859-9.971,26.408-8.197l120.395,22.509
								c1.197,0.224,1.985,1.376,1.763,2.573c-0.222,1.195-1.369,1.981-2.573,1.763l-120.395-22.509
								c-8.128-1.531-16.543,1.092-22.494,6.991c-33.643,33.344-77.306,67.807-129.781,102.44
								C1148.98,1538.181,1148.56,1538.3,1148.142,1538.3z"/>
						</g>
					</g>
					<g>
						<g>
							<path style="fill:#ff6900;" d="M926.28,1716.226c-20.566-12.55-51.693-27.968-91.987-35.657
								c-74.995-14.311-135.967,6.887-162.294,17.936c27.047,29.787,58.678,61.37,95.376,93.112
								c54.827,47.423,108.272,84.224,155.722,112.638c26.231-9.063,43.463-21.518,63.836-41.881
								c21.688-21.676,41.053-43.154,34.275-73.931C1012.841,1750.46,974.065,1719.599,926.28,1716.226z"/>
							<path style="fill:#BC8271;" d="M920.756,1697.496l90.5-128.671l142.467,127.651c0,0-88.385,62.683-138.904,99.217
								c-14.911,10.783-29.716,3.861-45.435-5.705c-12.652-7.7-28.223-18.749-43.293-33.582
								C910.152,1740.717,907.889,1715.79,920.756,1697.496z"/>
						</g>
						<g>
							<path style="fill:#ff6900;" d="M966.105,1586.67l173.287,159.415c0,0,121.616-117.984,199.188-230.154
								c5.154-7.452,13.58-11.959,22.64-11.959h353.721c115.769,0,193.942-118.215,148.617-224.742l-15.193-35.709h-511.104
								c-50.837,0-99.584,20.117-135.644,55.951C1144.876,1355.856,1055.37,1453.562,966.105,1586.67z"/>
							<path style="fill:#363E44;" d="M972.928,1571.904c-0.515,0-1.031-0.179-1.451-0.545c-0.917-0.801-1.01-2.194-0.209-3.111
								c12.034-13.776,43.502-51.458,79.938-95.091c59.754-71.553,134.122-160.605,148.858-175.249
								c29.595-29.412,67.036-48.235,108.273-54.434c0.144-0.021,0.295-0.03,0.443-0.021l125.072,6.55
								c1.214,0.065,2.149,1.102,2.086,2.319c-0.067,1.214-1.04,2.147-2.319,2.086l-124.848-6.539
								c-40.214,6.091-76.727,24.473-105.599,53.165c-14.592,14.499-88.886,103.465-148.582,174.949
								c-36.453,43.653-67.934,81.352-80.002,95.167C974.153,1571.647,973.542,1571.904,972.928,1571.904z"/>
							<path style="fill:#363E44;" d="M1230.119,1642.346c-0.577,0-1.154-0.226-1.585-0.674c-0.846-0.874-0.823-2.271,0.054-3.116
								c45.005-43.483,81.402-85.161,108.178-123.879c5.592-8.085,14.732-12.91,24.453-12.91h122.482
								c1.219,0,2.205,0.986,2.205,2.205s-0.986,2.205-2.205,2.205h-122.482c-8.272,0-16.058,4.115-20.827,11.009
								c-26.94,38.957-63.526,80.857-108.742,124.54C1231.224,1642.139,1230.67,1642.346,1230.119,1642.346z"/>
						</g>
					</g>
				</g>
				<g>
					<g>
						<path style="fill:#D87355;" d="M1385.231,877.386h-52.351c-3.225,0-5.877,2.543-6.012,5.766l-4.781,114.379l7.435,0.905
							l4.522-107.544c0.11-2.619,2.266-4.686,4.888-4.686h46.3V877.386z"/>
						<path style="fill:#BC8271;" d="M1555.207,1040.935c0,0-46.872-7.582-46.874-7.582
							c-100.21-13.566-172.521-7.833-194.529-10.538c-2.305-0.283-6.371-0.802-11.64-0.018
							c-19.525,2.902-24.286,19.025-43.424,31.445c-21.715,14.092-41.92,9.734-42.741,16.293
							c-0.571,4.563,6.588,8.353,22.817,10.137c-12.486,0.062-29.415,0.888-29.361,7.788c0.489,7.964,20.492,9.332,32.634,9.568
							c-14.696-0.286-22.597,3.959-21.607,7.798c1.557,6.044,12.901,8.919,32.339,8.544c-13.349,4.009-15.989,6.972-14.288,10.153
							c3.107,5.807,19.082,5.198,33.121,2.494c15.805-3.044,27.007-10.887,33.953-16.001c0.002-0.001,0.004-0.002,0.004-0.002
							c69.202,16.779,170.034,52.135,224.76,69.844c14.219,4.601,30.678-9.253,38.756-32.349
							C1580.863,1114.952,1578.447,1064.152,1555.207,1040.935z"/>
						<path style="fill:#BC8271;" d="M1278.95,1046.943c-25.11-5.052-33.097-12.195-32.17-16.15
							c1.56-6.649,24.763-11.112,62.392-8.352C1301.365,1030.024,1286.759,1039.363,1278.95,1046.943z"/>
						<g>
							<path style="fill:#363E44;" d="M1278.184,1090.971c-0.321,0-0.648-0.071-0.956-0.22c-1.096-0.53-1.557-1.847-1.027-2.943
								c1.809-3.749,7.239-12.96,18.56-17.522c7.992-3.219,15.339-2.75,20.095-1.787c1.193,0.241,1.966,1.406,1.725,2.599
								c-0.243,1.193-1.397,1.966-2.599,1.725c-4.164-0.84-10.596-1.257-17.572,1.555c-9.896,3.985-14.652,12.062-16.239,15.348
								C1279.792,1090.512,1279.004,1090.971,1278.184,1090.971z"/>
							<path style="fill:#363E44;" d="M1253.168,1116.406c-1.135,0-2.099-0.87-2.194-2.022c-0.101-1.212,0.799-2.278,2.013-2.379
								c4.321-0.362,8.569-1.296,12.622-2.78c2.797-1.023,5.512-2.31,8.074-3.83c1.038-0.62,2.396-0.276,3.021,0.773
								c0.62,1.047,0.276,2.399-0.773,3.021c-2.793,1.656-5.757,3.062-8.806,4.179c-4.422,1.617-9.056,2.638-13.771,3.03
								C1253.291,1116.404,1253.229,1116.406,1253.168,1116.406z"/>
						</g>
						<g>
							<polygon style="fill:#D87355;" points="1355.546,1168.416 1252.556,1168.676 1235.864,990.901 1371.342,990.56 							"/>
							
								<rect x="1230.213" y="979.818" transform="matrix(1 -0.0025 0.0025 1 -2.4866 3.2886)" style="fill:#FFFFFF;" width="146.768" height="16.935"/>
							
								<rect x="1248.12" y="963.581" transform="matrix(1 -0.0025 0.0025 1 -2.4519 3.2877)" style="fill:#FFFFFF;" width="110.887" height="22.343"/>
							<path style="fill:#D3BBA3;" d="M1248.143,982.162c-1.214,0-2.203-0.984-2.205-2.198c-0.002-1.219,0.982-2.209,2.198-2.211
								l111.018-0.28c0.002,0,0.004,0,0.006,0c1.214,0,2.203,0.984,2.205,2.198c0.002,1.219-0.982,2.209-2.198,2.211l-111.018,0.28
								C1248.147,982.162,1248.145,982.162,1248.143,982.162z"/>
							
								<rect x="1265.032" y="955.515" transform="matrix(1 -0.0025 0.0025 1 -2.4222 3.2273)" style="fill:#FFFFFF;" width="25.402" height="11.995"/>
							
								<rect x="1318.661" y="957.508" transform="matrix(1 -0.0025 0.0025 1 -2.4213 3.3467)" style="fill:#FFFFFF;" width="16.229" height="9.879"/>
						</g>
						<g>
							<path style="fill:#BC8271;" d="M1374.484,1024.82c-20.486,1.665-74.374,5.641-70.678,22.688
								c1.417,6.537,22.174,8.705,39.938,9.639c1.924,0.101,19.653,9.934,24.398,10.128L1374.484,1024.82z"/>
							<path style="fill:#363E44;" d="M1309.441,1041.369c-0.751,0-1.486-0.385-1.897-1.079c-0.622-1.047-0.278-2.399,0.769-3.021
								c19.057-11.332,51.008-13.582,63.035-14.43c1.167-0.082,2.162-0.153,2.956-0.217c1.212-0.08,2.278,0.807,2.377,2.02
								c0.097,1.214-0.805,2.278-2.02,2.377c-0.807,0.065-1.819,0.135-3.006,0.22c-11.741,0.827-42.932,3.023-61.091,13.821
								C1310.212,1041.27,1309.824,1041.369,1309.441,1041.369z"/>
							<path style="fill:#363E44;" d="M1378.52,1069.769c-13.701,0-26.439-3.85-36.231-10.983
								c-25.816-0.67-37.79-3.596-39.988-9.756c-1.815-5.082,3.841-9.941,5.702-11.539c0.922-0.79,2.313-0.687,3.109,0.237
								c0.792,0.924,0.687,2.315-0.237,3.109c-3.316,2.849-4.926,5.295-4.423,6.711c0.646,1.809,5.508,6.093,36.642,6.845
								l0.706,0.017l0.564,0.424c9.773,7.338,22.92,11.052,37.06,10.464c1.221-0.041,2.246,0.894,2.295,2.11
								c0.052,1.217-0.894,2.244-2.11,2.295C1380.576,1069.748,1379.543,1069.769,1378.52,1069.769z"/>
						</g>
					</g>
					<path style="fill:#363E44;" d="M1412.79,1181.651c0,0-13.364,189.155,433.247,255.759
						c39.857-34.686,101.603-249.105,157.846-418.35c13.723-40.075,33.142-79.417,6.413-111.541
						c-4.561-5.482-28.256-20.885-34.542-24.253l-74.229-32.705c-5.743-3.077-13.417-6.901-18.741-10.657
						c-53.866-37.999-83.048-24.988-127.88-13.964c-25.732,6.328-157.645,56.223-141.476,134.127
						C1470.115,984.32,1418.302,1075.819,1412.79,1181.651z"/>
				</g>
				<g>
					<path style="fill:#BC8271;" d="M1882.153,889.12c-24.22-13.458-27.728-32.111-16.768-51.833l63.437-114.161
						c3.32-5.975,11.959-7.513,19.296-3.436l61.137,33.973c7.337,4.077,10.594,12.225,7.273,18.2
						c-24.016,45.518-57.897,104.58-56.944,115.811C1939.614,914.188,1882.153,889.12,1882.153,889.12z"/>
					<g>
						<g>
							<path style="fill:#BC8271;" d="M1869.759,797.482c7.367,23.357,75.578,26.689,75.578,26.689l66.468-34.359
								c20.789-27.476,15.369-66.601-12.107-87.391c-27.476-20.789-66.602-15.368-87.39,12.107
								C1912.307,714.529,1862.256,773.692,1869.759,797.482z"/>
							<path style="fill:#BC8271;" d="M1908.126,731.935c0,0-25.015,4.062-27.193,8.483c-2.6,5.277,10.817,19.849,10.817,19.849
								S1907.729,731.69,1908.126,731.935z"/>
							<g>
								<path style="fill:#FFFFFF;" d="M1954.633,763.776c0,0-4.939-10.781-14.98-18.378c-2.136-1.616-11.04,18.527-8.28,19.093
									C1943.509,766.982,1954.633,763.776,1954.633,763.776z"/>
								<g>
									<defs>
										<path id="SVGID_1_" d="M1954.633,763.776c0,0-7.264-15.857-22.082-22.659c-14.818-6.802-31.578-1.972-31.578-1.972
											s7.265,15.857,22.083,22.659C1937.874,768.606,1954.633,763.776,1954.633,763.776z"/>
									</defs>
									<clipPath id="SVGID_00000045590581950575095170000000102147581184958084_">
										<use xlink:href="#SVGID_1_"  style="overflow:visible;"/>
									</clipPath>
									<path style="clip-path:url(#SVGID_00000045590581950575095170000000102147581184958084_);fill:#363E44;" d="
										M1939.561,744.638c-1.616-11.664-12.382-19.811-24.047-18.195c-11.665,1.616-19.81,12.382-18.194,24.047
										c1.616,11.664,12.382,19.81,24.046,18.195C1933.031,767.069,1941.178,756.302,1939.561,744.638z"/>
								</g>
							</g>
							<path style="fill:#363E44;" d="M1944.689,827.233c-0.037,0-0.073,0-0.11-0.002c-1.639-0.08-40.378-2.091-62.65-13.449
								c-1.085-0.553-1.516-1.88-0.963-2.965c0.553-1.085,1.873-1.52,2.965-0.962c21.437,10.931,60.471,12.951,60.863,12.97
								c1.217,0.06,2.153,1.094,2.095,2.31C1946.832,826.315,1945.856,827.233,1944.689,827.233z"/>
							<path style="fill:#363E44;" d="M1898.95,790.295c-0.416,0-0.835-0.116-1.21-0.364l-13.963-9.187
								c-1.016-0.667-1.298-2.035-0.629-3.053c0.668-1.016,2.033-1.301,3.053-0.629l13.963,9.188
								c1.016,0.667,1.298,2.035,0.629,3.053C1900.371,789.947,1899.667,790.295,1898.95,790.295z"/>
						</g>
						<path style="fill:#363E44;" d="M1947.186,700.938c-10.082-3.603-17.162-12.744-18.045-23.414
							c-1.577-19.053-1.283-48.258,13.023-60.882c2.724-2.403,5.093-3.554,8.394-4.087c18.379-2.964,24.543,31.224,56.546,55.174
							c30.838,23.078,59.685,17.201,67.116,39.444c3.267,9.781,0.335,19.149-0.291,21.447
							c-8.259,30.362-37.602,35.461-37.602,35.461s19.476-1.682,18.235,24.178c-1.244,25.858-79.165,3.661-79.165,3.661l-6.3-12.258
							l17.025-21.774c12.946-16.56,5.884-40.934-13.909-48.008L1947.186,700.938z"/>
						<path style="fill:#BC8271;" d="M2021.306,797.312c-2.89,11.527-14.578,18.528-26.105,15.638
							c-11.527-2.89-18.529-14.578-15.638-26.105c2.891-11.527,14.578-18.528,26.105-15.638
							C2017.195,774.097,2024.196,785.785,2021.306,797.312z"/>
					</g>
				</g>
			</g>
			<g>
				<path style="fill:#EFBC73;" d="M2163.612,1944.518H1160.338v-395.765c0-38.357,31.095-69.452,69.452-69.452h933.822V1944.518z"
					/>
				<path style="fill:#FFD092;" d="M1921,1534.422h-739.717c-28.616,0-51.813-23.198-51.813-51.813v-34.175
					c0-49.925,40.472-90.398,90.397-90.398h709.952c29.224,0,52.916,23.691,52.916,52.916v61.735
					C1982.735,1506.782,1955.095,1534.422,1921,1534.422z"/>
			</g>
			<g>
				<g>
					<path style="fill:#D87355;" d="M1749.496,1457.844v21.457h-282.301v-21.457c0,0,27.078-81.23,27.078-162.46
						c0-75.099-27.078-156.329-27.078-156.329l-0.388-21.564c79.879-11.025,165.556-9.736,282.301,0l0.388,21.564
						c0,0-27.078,85.828-27.078,156.329C1722.418,1370.484,1749.496,1457.844,1749.496,1457.844z"/>
					<path style="fill:#F2E6DC;" d="M1529.239,1281.59c-5.071-67.748-38.881-116.429-62.032-142.536
						c0,0,27.067,81.23,27.067,156.329c0,81.23-27.078,162.46-27.078,162.46h0.743
						C1498.499,1421.627,1535.168,1360.781,1529.239,1281.59z"/>
					<path style="fill:#F2E6DC;" d="M1722.418,1295.384c0-70.501,27.078-156.329,27.078-156.329h-0.723
						c-23.093,26.455-55.71,74.558-60.685,141.003c-5.893,78.712,30.298,139.295,60.746,175.59
						C1744.686,1441.675,1722.418,1363.49,1722.418,1295.384z"/>
					<path style="fill:#FFD092;" d="M1739.469,1460.646h-261.62c-1.219,0-2.205-0.986-2.205-2.205c0-1.219,0.986-2.205,2.205-2.205
						h261.62c1.219,0,2.205,0.986,2.205,2.205C1741.673,1459.66,1740.687,1460.646,1739.469,1460.646z"/>
					<polygon style="fill:#EFBC73;" points="1681.789,1246.095 1539.959,1293.139 1539.959,1222.637 1681.789,1175.593 					"/>
					<g>
						
							<ellipse transform="matrix(0.4535 -0.8913 0.8913 0.4535 -339.9884 2228.5432)" style="fill:#FFD092;" cx="1647.131" cy="1391.494" rx="43.94" ry="28.374"/>
						
							<ellipse transform="matrix(0.4535 -0.8913 0.8913 0.4535 -354.6552 2204.6252)" style="fill:#FFD092;" cx="1620.295" cy="1391.494" rx="43.94" ry="28.374"/>
						<path style="fill:#EFBC73;" d="M1621.75,1433.792c-0.792,0-1.557-0.428-1.953-1.178c-0.568-1.077-0.155-2.409,0.924-2.978
							c8.748-4.612,16.762-12.973,22.563-23.54c11.905-21.686,10.74-45.918-2.597-54.016c-1.04-0.631-1.372-1.987-0.739-3.03
							c0.629-1.04,1.981-1.371,3.029-0.738c15.324,9.306,17.195,36.179,4.173,59.907c-6.212,11.317-14.87,20.308-24.376,25.319
							C1622.448,1433.711,1622.097,1433.792,1621.75,1433.792z"/>
					</g>
					<g>
						<defs>
							<path id="SVGID_00000050658436860003906540000004857841729636181392_" d="M1466.807,1117.417
								c66.351-64.418,170.021-19.169,282.154,0C1613.708,1143.752,1499.786,1156.453,1466.807,1117.417z"/>
						</defs>
						<use xlink:href="#SVGID_00000050658436860003906540000004857841729636181392_"  style="overflow:visible;fill:#B77250;"/>
						<clipPath id="SVGID_00000159450881763552552750000009397417732694622628_">
							<use xlink:href="#SVGID_00000050658436860003906540000004857841729636181392_"  style="overflow:visible;"/>
						</clipPath>
						<g style="clip-path:url(#SVGID_00000159450881763552552750000009397417732694622628_);">
							
								<ellipse transform="matrix(0.963 -0.2694 0.2694 0.963 -248.3994 459.2668)" style="fill:#FFD092;" cx="1549.208" cy="1134.714" rx="28.374" ry="43.94"/>
							
								<ellipse transform="matrix(0.963 -0.2694 0.2694 0.963 -254.0216 454.6147)" style="fill:#FFD092;" cx="1529.452" cy="1152.876" rx="28.374" ry="43.94"/>
							<path style="fill:#EFBC73;" d="M1557.657,1183.612c-0.246,0-0.495-0.041-0.741-0.127c-1.146-0.409-1.744-1.671-1.337-2.819
								c3.32-9.317,3.561-20.894,0.68-32.599c-5.917-24.023-23.161-41.069-38.47-38.009c-1.201,0.241-2.356-0.534-2.595-1.729
								c-0.239-1.195,0.534-2.356,1.729-2.595c17.583-3.525,37.144,14.999,43.616,41.278c3.086,12.533,2.799,25.011-0.805,35.135
								C1559.412,1183.05,1558.564,1183.612,1557.657,1183.612z"/>
							<path style="fill:#EFBC73;" d="M1577.499,1167.121c-0.245,0-0.495-0.041-0.741-0.127c-1.146-0.409-1.744-1.671-1.337-2.818
								c3.32-9.317,3.561-20.894,0.68-32.599c-5.917-24.023-23.183-41.067-38.47-38.01c-1.197,0.243-2.355-0.534-2.594-1.729
								c-0.239-1.195,0.534-2.356,1.729-2.595c17.591-3.522,37.144,14.999,43.616,41.278c3.085,12.533,2.799,25.011-0.805,35.135
								C1579.253,1166.559,1578.405,1167.121,1577.499,1167.121z"/>
						</g>
					</g>
				</g>
				<g>
					<g>
						<ellipse style="fill:#FFD092;" cx="1609.386" cy="1065.53" rx="34.542" ry="54.386"/>
						<path style="fill:#EFBC73;" d="M1609.382,1121.386c-20.263,0-36.748-25.385-36.748-56.589
							c0-31.203,16.484-56.591,36.748-56.591c20.261,0,36.746,25.388,36.746,56.591
							C1646.128,1096.001,1629.643,1121.386,1609.382,1121.386z M1609.382,1012.616c-17.832,0-32.338,23.409-32.338,52.181
							c0,28.772,14.506,52.179,32.338,52.179c17.83,0,32.336-23.407,32.336-52.179
							C1641.718,1036.025,1627.212,1012.616,1609.382,1012.616z"/>
					</g>
					<g>
						<path style="fill:#BC8271;" d="M1887.928,1122.121c-55.659-17.311-191.214-47.355-203.996-51.466
							c-23.894-7.685-102.236-39.152-110.774-24.195c-2.839,4.974,11.882,22.365,29.193,31.279
							c-13.145-1.959-24.909,3.219-25.531,10.227c-0.818,9.21,19.264,20.096,19.797,20.515c-8.179-0.143-20.129,3.06-21.825,10.181
							c-1.656,6.956,8.846,16.276,19.321,18.032c-6.345,0.334-18.193,4.312-18.994,10.526c-0.887,6.886,11.464,16.132,22.249,18.389
							c21.224,6.845,52.561,22.923,91.216,39.868c90.786,39.797,132.938,53.733,180.275,65.017
							c18.361,4.377,54.523,4.252,80.41-28.801C1926.547,1207.249,1910.652,1156.564,1887.928,1122.121z"/>
						<path style="fill:#363E44;" d="M1632.328,1080.72c-0.179,0-0.359-0.021-0.538-0.067c-1.182-0.295-1.899-1.494-1.602-2.674
							l2.685-10.712c0.295-1.182,1.509-1.899,2.674-1.602c1.182,0.295,1.899,1.494,1.602,2.674l-2.685,10.712
							C1634.214,1080.053,1633.314,1080.72,1632.328,1080.72z"/>
						<path style="fill:#363E44;" d="M1625.475,1107.897c-0.179,0-0.357-0.021-0.538-0.067c-1.182-0.295-1.899-1.494-1.602-2.674
							l2.685-10.714c0.295-1.182,1.492-1.903,2.674-1.602c1.18,0.295,1.899,1.492,1.602,2.674l-2.685,10.714
							C1627.361,1107.229,1626.461,1107.897,1625.475,1107.897z"/>
						<path style="fill:#363E44;" d="M1618.193,1135.49c-0.179,0-0.357-0.021-0.538-0.067c-1.18-0.295-1.899-1.492-1.602-2.674
							l2.685-10.712c0.295-1.184,1.505-1.899,2.674-1.602c1.182,0.295,1.899,1.494,1.602,2.674l-2.685,10.712
							C1620.079,1134.822,1619.179,1135.49,1618.193,1135.49z"/>
						<path style="fill:#363E44;" d="M1612.104,1160.651c-0.179,0-0.357-0.022-0.538-0.067c-1.18-0.295-1.899-1.492-1.602-2.674
							l2.685-10.714c0.295-1.184,1.488-1.901,2.674-1.602c1.182,0.295,1.899,1.494,1.602,2.674l-2.685,10.714
							C1613.99,1159.984,1613.09,1160.651,1612.104,1160.651z"/>
					</g>
					<path style="fill:#363E44;" d="M1926.512,975.5c0,6.615-69.452,123.47-69.452,123.47l90.949,158.747
						c67.652-61.541,113.081-132.968,119.241-216.871c0.283-3.859,0.034-7.751-0.692-11.552
						C2034.816,863.19,1950.017,869.692,1926.512,975.5z"/>
					<path style="fill:#F7F1EB;" d="M1875.804,1130.94c-0.732,0-1.449-0.364-1.869-1.029l-18.741-29.765
						c-0.48-0.764-0.448-1.744,0.084-2.472l61.735-84.886c0.715-0.986,2.091-1.204,3.079-0.487c0.986,0.715,1.204,2.095,0.487,3.079
						l-60.856,83.678l17.946,28.501c0.648,1.031,0.338,2.392-0.691,3.042C1876.611,1130.83,1876.204,1130.94,1875.804,1130.94z"/>
				</g>
			</g>
			<g>
				<rect x="1205.169" y="1341.868" style="fill:#363E44;" width="221.952" height="33.807"/>
				<rect x="1214.08" y="1357.118" style="fill:#D87355;" width="16.536" height="9.922"/>
				<rect x="1242.606" y="1347.329" style="fill:#F2E6DC;" width="16.066" height="9.809"/>
				<rect x="1265.501" y="1347.33" style="fill:#ff6900;" width="16.066" height="9.809"/>
				<rect x="1287.592" y="1347.194" style="fill:#ff6900;" width="16.066" height="9.809"/>
				<rect x="1309.817" y="1347.33" style="fill:#ff6900;" width="16.066" height="9.809"/>
				<rect x="1332.711" y="1347.33" style="fill:#ff6900;" width="16.066" height="9.809"/>
				<rect x="1354.802" y="1347.194" style="fill:#ff6900;" width="16.066" height="9.809"/>
				<rect x="1377.295" y="1346.922" style="fill:#EFBC73;" width="16.066" height="9.809"/>
				<rect x="1242.606" y="1361.089" style="fill:#ff6900;" width="16.066" height="9.809"/>
				<rect x="1265.501" y="1361.09" style="fill:#ff6900;" width="16.066" height="9.809"/>
				<rect x="1287.592" y="1360.954" style="fill:#ff6900;" width="16.066" height="9.809"/>
				<rect x="1309.817" y="1361.09" style="fill:#ff6900;" width="16.066" height="9.809"/>
				<rect x="1332.711" y="1361.09" style="fill:#ff6900;" width="16.066" height="9.809"/>
				<rect x="1354.802" y="1360.954" style="fill:#ff6900;" width="16.066" height="9.809"/>
				<rect x="1377.295" y="1360.682" style="fill:#EFBC73;" width="16.066" height="9.809"/>
			</g>
		</g>
		<g>
			<rect x="914.491" y="1952.235" style="fill:#363E44;" width="601.935" height="152.133"/>
			<g>
				<g>
					<path style="fill:#FFFFFF;" d="M1458.393,1946.22l-87.078-116.344c-24.126-32.232-67.467-40.249-94.531-17.486
						c-11.184,9.407-17.65,22.457-19.456,36.594l-91.42,31.726c-10.176-9.979-23.336-16.217-37.942-16.673
						c-35.347-1.104-64.406,32.037-63.377,72.285l3.714,145.275c0.812,31.765,23.146,57.156,51.042,58.028
						c27.897,0.873,51.775-23.072,54.57-54.724l6.476-73.317l146.641-50.89l50.501,53.544c21.803,23.116,55.38,27.122,76.739,9.155
						C1475.63,2005.427,1477.434,1971.66,1458.393,1946.22z"/>
					<path style="fill:#363E44;" d="M1122.279,2146.263c-0.51,0-1.021-0.009-1.533-0.023c-28.979-0.906-52.339-27.339-53.178-60.176
						l-3.714-145.275c-0.553-21.63,7.398-42.255,21.816-56.591c12.15-12.083,27.677-18.474,43.836-17.955
						c14.069,0.441,27.661,6.238,38.427,16.353l88.865-30.842c2.196-14.798,9.106-27.446,20.039-36.64
						c12.34-10.378,28.505-15.018,45.535-13.061c20.197,2.323,39.215,13.589,52.179,30.911l87.079,116.345
						c19.682,26.298,17.718,61.52-4.47,80.183c-22.195,18.659-57.228,14.564-79.761-9.33l-49.522-52.507l-143.944,49.953
						l-6.352,71.896C1174.742,2121.646,1150.601,2146.261,1122.279,2146.263z M1127.733,1870.626
						c-14.31,0-28.083,5.891-38.955,16.698c-13.56,13.483-21.038,32.93-20.515,53.353l3.714,145.275
						c0.779,30.501,22.261,55.047,48.906,55.881c0.465,0.013,0.934,0.021,1.395,0.021c26.051,0,48.271-22.873,50.909-52.737
						l6.477-73.317c0.075-0.866,0.652-1.604,1.473-1.888l146.64-50.89c0.823-0.291,1.733-0.06,2.328,0.568l50.502,53.544
						c20.933,22.195,53.312,26.143,73.715,8.981c20.401-17.158,22.059-49.736,3.777-74.163l-87.08-116.345
						c-12.241-16.355-30.155-26.988-49.152-29.173c-15.795-1.817-30.79,2.461-42.195,12.053
						c-10.402,8.753-16.866,20.92-18.687,35.187c-0.108,0.829-0.674,1.529-1.464,1.802l-91.418,31.727
						c-0.788,0.276-1.667,0.08-2.267-0.508c-10.268-10.072-22.879-15.619-36.468-16.043
						C1128.822,1870.635,1128.277,1870.626,1127.733,1870.626z"/>
					<polygon style="fill:#D87355;" points="1161.053,1904.424 1134.88,1913.507 1125.797,1887.334 1100.479,1896.12 
						1109.562,1922.293 1083.389,1931.377 1092.175,1956.695 1118.348,1947.611 1127.432,1973.785 1152.75,1964.998 
						1143.667,1938.825 1169.84,1929.742 					"/>
					<g>
						
							<ellipse transform="matrix(0.4362 -0.8999 0.8999 0.4362 -915.3456 2216.3181)" style="fill:#D87355;" cx="1310.981" cy="1838.618" rx="16.856" ry="16.856"/>
						
							<ellipse transform="matrix(0.4362 -0.8999 0.8999 0.4362 -949.7657 2259.1406)" style="fill:#D87355;" cx="1327.944" cy="1887.497" rx="16.856" ry="16.856"/>
						
							<ellipse transform="matrix(0.9837 -0.1798 0.1798 0.9837 -315.4415 263.3889)" style="fill:#D87355;" cx="1295.023" cy="1871.539" rx="16.856" ry="16.856"/>
						
							<ellipse transform="matrix(0.9797 -0.2003 0.2003 0.9797 -344.1774 306.7025)" style="fill:#D87355;" cx="1343.903" cy="1854.576" rx="16.856" ry="16.856"/>
					</g>
					
						<rect x="1183.488" y="1881.924" transform="matrix(0.9447 -0.3279 0.3279 0.9447 -552.7487 503.4298)" style="fill:#D87355;" width="66.429" height="18.278"/>
					
						<rect x="1198.916" y="1926.377" transform="matrix(0.9447 -0.3279 0.3279 0.9447 -566.4705 510.9448)" style="fill:#D87355;" width="66.429" height="18.278"/>
					
						<ellipse transform="matrix(0.9497 -0.3133 0.3133 0.9497 -550.0558 509.8676)" style="fill:#D87355;" cx="1311.541" cy="1966.558" rx="39.702" ry="39.702"/>
					
						<ellipse transform="matrix(0.9507 -0.3101 0.3101 0.9507 -545.1741 503.6503)" style="fill:#EFBC73;" cx="1311.541" cy="1966.558" rx="22.789" ry="22.789"/>
					
						<ellipse transform="matrix(0.8769 -0.4807 0.4807 0.8769 -825.9111 808.894)" style="fill:#D87355;" cx="1166.327" cy="2016.953" rx="39.702" ry="39.702"/>
					
						<ellipse transform="matrix(0.9507 -0.3101 0.3101 0.9507 -567.96 461.1036)" style="fill:#EFBC73;" cx="1166.327" cy="2016.953" rx="22.789" ry="22.789"/>
				</g>
			</g>
		</g>
	</g>
</g>
</svg>
