<?xml version="1.0" encoding="utf-8"?>
<!-- Generator: Adobe Illustrator 27.5.0, SVG Export Plug-In . SVG Version: 6.00 Build 0)  -->
<svg version="1.1" xmlns="http://www.w3.org/2000/svg" xmlns:xlink="http://www.w3.org/1999/xlink" x="0px" y="0px"
	 viewBox="0 0 2500 2500" style="enable-background:new 0 0 2500 2500;" xml:space="preserve">
-
<g id="Illustration">
	<g id="Prize_draw_1_">
		<ellipse style="fill:transparent;" cx="1250.109" cy="1250" rx="915.552" ry="915"/>
		<g>
			<path style="fill:#ff6900;" d="M870.723,524.525c-2.232,22.948-13.936,38.673-34.916,47.332l-26.532-19.031
				c19.449-0.462,32.723-14.514,37.796-46.609L870.723,524.525z"/>
			<path style="fill:#D87355;" d="M923.703,664.481c-19.327,12.573-38.918,13.238-58.774,2.244l-1.681-32.608
				c12.496,14.911,31.759,16.518,60.006,0.457L923.703,664.481z"/>
			<path style="fill:#D87355;" d="M615.775,714.146c-19.327,12.573-38.918,13.238-58.774,2.244l-1.681-32.608
				c12.496,14.911,31.758,16.518,60.006,0.457L615.775,714.146z"/>
			<path style="fill:#EFBC73;" d="M745.945,662.678c21.777-7.572,40.957-3.52,57.598,11.914l-6.186,32.06
				c-8.556-17.472-26.872-23.651-58.146-14.832L745.945,662.678z"/>
			<path style="fill:#D87355;" d="M827.197,408.834c-21.33-8.753-33.014-24.493-35.256-47.079l25.872-19.919
				c-5.164,18.757,4.464,35.518,33.734,49.628L827.197,408.834z"/>
			<path style="fill:#FFFFFF;" d="M747.655,604.531c-19.358,12.525-38.951,13.142-58.779,2.098l-1.601-32.612
				c12.459,14.942,31.718,16.596,60.004,0.606L747.655,604.531z"/>
			<path style="fill:#EFBC73;" d="M492.94,820.475c-20.917-9.698-31.886-25.945-33.116-48.608l26.737-18.742
				c-5.998,18.507,2.871,35.682,31.481,51.087L492.94,820.475z"/>
			<path style="fill:#EFBC73;" d="M594.239,884.679c-2.039,22.966-13.61,38.789-34.517,47.623l-26.691-18.807
				c19.444-0.626,32.6-14.788,37.403-46.925L594.239,884.679z"/>
			<path style="fill:#FFFFFF;" d="M717.196,994.423c-8.383,21.478-23.919,33.432-46.463,36.064l-20.363-25.524
				c18.843,4.84,35.435-5.077,49.037-34.586L717.196,994.423z"/>
			<path style="fill:#ff6900;" d="M372.898,1071.077c-21.906-7.192-34.694-22.049-38.559-44.414l24.368-21.733
				c-3.798,19.08,7.013,35.103,37.225,47.066L372.898,1071.077z"/>
			<path style="fill:#E6D0BE;" d="M719.989,423.46c-21.33-8.753-33.014-24.493-35.256-47.079l25.872-19.919
				c-5.164,18.757,4.464,35.518,33.734,49.628L719.989,423.46z"/>
			<path style="fill:#E6D0BE;" d="M510.639,595.818c-22.799,3.435-40.905-4.078-54.421-22.311l11.981-30.374
				c5.194,18.748,22.06,28.192,54.423,25.28L510.639,595.818z"/>
			<path style="fill:#D87355;" d="M737.3,489.142c-13.219,18.891-31.138,26.838-53.665,24.072l-13.76-29.611
				c17.167,9.153,35.632,3.435,55.818-22.027L737.3,489.142z"/>
			<path style="fill:#ff6900;" d="M1047.994,467.81c-13.219,18.891-31.138,26.838-53.665,24.072l-13.76-29.611
				c17.167,9.153,35.632,3.435,55.818-22.028L1047.994,467.81z"/>
			<path style="fill:#ff6900;" d="M586.299,582.118c23.046,0.701,39.515,11.332,49.55,31.69l-17.223,27.74
				c-1.755-19.375-16.659-31.685-49.02-34.611L586.299,582.118z"/>
			<path style="fill:#ff6900;" d="M411.379,853.118c-22.458,5.218-41.099-0.847-56.007-17.961l9.555-31.222
				c6.653,18.282,24.209,26.369,56.243,20.92L411.379,853.118z"/>
			<path style="fill:#EFBC73;" d="M596.002,481.733c-13.219,18.891-31.138,26.838-53.665,24.072l-13.76-29.611
				c17.167,9.152,35.632,3.435,55.818-22.027L596.002,481.733z"/>
			<path style="fill:#EFBC73;" d="M371.302,643.088c15.389-17.169,34.132-22.91,56.165-17.462l10.109,31.047
				c-15.945-11.145-34.963-7.684-58.057,15.174L371.302,643.088z"/>
		</g>
		<g>
			<g>
				<polygon style="fill:#E0AA63;" points="726.05,774.378 1269.348,696.964 1803.604,735.038 1317.238,835.5 				"/>
				<polygon style="fill:#EFBC73;" points="1785.644,1568.867 1317.848,1704.837 1317.848,995.02 1785.644,859.049 				"/>
				<polygon style="fill:#E0AA63;" points="1318.092,1705.193 771.645,1627.655 771.645,918.051 1318.092,995.59 				"/>
				<polygon style="fill:#EFBC73;" points="1317.238,1022.78 726.05,933.445 726.05,774.378 1317.238,835.5 				"/>
				<polygon style="fill:#FFD092;" points="1805.314,902.658 1317.238,1024.096 1317.238,835.5 1803.604,735.038 				"/>
				<polygon style="fill:#D87355;" points="1108.58,1676.976 992.018,1657.801 991.163,800.604 1108.61,813.147 				"/>
				<polygon style="fill:#D87355;" points="1627.433,1615.896 1509.652,1649.614 1509.415,795.33 1627.433,770.529 				"/>
				<polygon style="fill:#D87355;" points="991.163,800.604 1440.999,709.382 1573.27,718.504 1108.61,813.147 				"/>
				<polygon style="fill:#D87355;" points="1627.433,770.529 1137.687,715.084 1016.819,733.328 1509.415,795.33 				"/>
				<path style="fill:#363E44;" d="M992.018,1660.009c-1.217,0-2.204-0.985-2.207-2.201l-2.307-817.17
					c-0.003-1.22,0.982-2.21,2.201-2.214c0.002,0,0.004,0,0.006,0c1.217,0,2.204,0.985,2.207,2.201l2.307,817.17
					c0.003,1.22-0.982,2.21-2.201,2.214C992.022,1660.009,992.02,1660.009,992.018,1660.009z"/>
			</g>
			<path style="fill:#E0AA63;" d="M1150.578,732.142c-0.267,0-0.535-0.048-0.79-0.147L801.893,598.632
				c-0.904-0.347-1.477-1.242-1.413-2.207c0.065-0.966,0.75-1.776,1.692-2.001l79.81-19.003
				c-19.144-29.855-47.091-72.808-49.927-75.442c0.005,0.004,0.119,0.11,0.327,0.213l0.084-0.168
				c-1.261-0.815-1.279-1.127-1.311-1.686c-0.044-0.787,0.334-1.539,0.994-1.97c0.657-0.433,1.516-0.479,2.22-0.116
				c0.006,0.002,0.014,0.007,0.022,0.011c1.75,0.908,311.388,159.204,325.778,166.46c0.839,0.423,1.317,1.328,1.194,2.259
				l-8.597,65.241c-0.087,0.67-0.479,1.263-1.06,1.608C1151.361,732.036,1150.97,732.142,1150.578,732.142z M810.139,597.065
				l338.616,129.806l8.027-60.915c-14.346-7.286-109.427-55.872-166.451-85.016l-144.515-73.875
				c-1.932-0.987-3.608-1.843-5.062-2.589c8.123,11.609,23.72,35.419,46.624,71.183c0.385,0.601,0.455,1.354,0.188,2.016
				c-0.267,0.664-0.84,1.156-1.536,1.322L810.139,597.065z"/>
			<path style="fill:#E0AA63;" d="M1476.489,709.411c-0.776,0-1.508-0.41-1.908-1.097l-32.967-56.651
				c-0.341-0.584-0.394-1.291-0.146-1.921c0.248-0.63,0.771-1.108,1.418-1.304l355.39-106.817c0.93-0.267,1.928,0.08,2.468,0.884
				c0.54,0.802,0.494,1.865-0.114,2.617l-51.312,63.581c33.267,11.863,81.438,28.682,85.285,29.036
				c-0.012-0.004-0.163-0.015-0.389,0.03l0.014,0.073c1.856-0.185,2.309,0.22,2.589,1.671c0.232,1.196-0.568,2.358-1.765,2.589
				c-0.009,0.002-0.016,0.004-0.025,0.004c-1.691,0.306-342.1,64.166-358.121,67.263
				C1476.768,709.399,1476.628,709.411,1476.489,709.411z M1446.838,651.862l30.772,52.88
				c15.772-3.003,120.276-22.629,182.953-34.395l164.409-30.849c-13.487-4.206-40.269-13.465-80.066-27.684
				c-0.674-0.239-1.189-0.791-1.382-1.481c-0.194-0.688-0.042-1.427,0.406-1.983l48.782-60.445L1446.838,651.862z M1834.605,637.74
				h0.022H1834.605z"/>
			<g>
				<path style="fill:#B77250;" d="M1316.158,759.554c-149.337-91.073-250.239-171.122-217.328-220.711
					c12.255-18.466,36.053-20.364,51.193-4.916C1189.977,574.696,1258.125,678.418,1316.158,759.554z"/>
				<path style="fill:#D87355;" d="M1316.158,759.554c-145.743-3.059-259.218-10.147-308.91-25.202
					c-16.495-4.997-28.197-21.605-29.006-41.013c-3.687-88.454,84.98-191.77,159.358-167.255
					C1053.706,536.346,1133.281,632.269,1316.158,759.554z"/>
				<path style="fill:#B77250;" d="M1281.898,759.554c187.159-106.252,303.498-197.498,203.379-242.877
					C1445.224,516.962,1359.051,659.14,1281.898,759.554z"/>
				<path style="fill:#D87355;" d="M1281.898,759.554c156.561-3.059,278.458-10.147,331.839-25.202
					c17.72-4.997,30.29-21.605,31.159-41.013c3.961-88.454-54.401-184.929-159.619-176.662
					C1555.864,547.808,1478.349,632.269,1281.898,759.554z"/>
				<path style="fill:#363E44;" d="M1274.199,761.912l6.498-4.21c157.702-102.18,236.003-174.766,232.727-215.742
					c-0.972-12.167-9.073-21.448-24.765-28.367l-8.014-3.535l8.732-0.686c43.093-3.393,81.717,10.125,111.657,39.075
					c35.547,34.369,56.121,89.394,53.694,143.6c-0.937,20.885-14.367,38.527-33.419,43.899
					c-49.175,13.868-160.182,22.314-339.367,25.815L1274.199,761.912z M1497.898,513.338c12.309,7.202,19.002,16.685,19.928,28.268
					c3.417,42.738-71.259,113.284-228.241,215.585c174.276-3.583,282.425-11.928,330.526-25.496
					c17.217-4.852,29.357-20.865,30.207-39.847c2.372-52.979-17.688-106.711-52.352-140.229
					C1570.866,525.419,1536.432,512.293,1497.898,513.338z"/>
				<path style="fill:#363E44;" d="M1330.211,761.915l-7.302-0.153c-171.64-3.604-277.982-12.294-325.101-26.569
					c-18.268-5.534-31.142-23.661-32.035-45.104c-2.317-55.592,29.751-119.872,77.986-156.315
					c30.901-23.349,63.683-31.006,92.314-21.575l9.373,3.091l-9.796,1.197c-18.921,2.315-29.849,8.871-32.483,19.488
					c-8.996,36.264,73.639,119.169,221.048,221.77L1330.211,761.915z M1111.271,512.683c-21.017,0-43.361,8.375-64.85,24.612
					c-47.148,35.622-78.497,98.377-76.237,152.607c0.816,19.572,12.431,36.074,28.905,41.065
					c46.061,13.954,149.676,22.538,316.625,26.222c-147.36-103.243-226.3-184.111-216.831-222.281
					c2.574-10.378,11.328-17.416,26.074-20.997C1120.476,513.09,1115.905,512.683,1111.271,512.683z"/>
				<polygon style="fill:#D87355;" points="1276.8,707.102 1322.981,701.971 1325.832,772.667 1258.556,773.807 				"/>
				<path style="fill:#363E44;" d="M1266.204,775.86c-2.846,0-5.435-1.382-6.947-3.716c-1.429-2.208-1.623-4.937-0.517-7.302
					c6.726-14.39,11.271-30.474,13.895-49.168c0.876-6.243,6.019-11.081,12.505-11.764l32.342-3.408
					c2.426-0.263,4.766,0.554,6.465,2.214c1.596,1.561,2.408,3.708,2.228,5.889c-1.467,17.8-0.718,36.486,2.226,55.538
					c0.405,2.626-0.357,5.312-2.092,7.37c-1.838,2.177-4.566,3.456-7.488,3.503l-52.475,0.843
					C1266.298,775.86,1266.251,775.86,1266.204,775.86z M1285.371,706.105l0.232,2.195c-4.467,0.472-8.002,3.755-8.596,7.987
					c-2.685,19.137-7.352,35.63-14.268,50.427c-0.634,1.356-0.131,2.481,0.224,3.031c0.703,1.086,1.914,1.738,3.311,1.701
					l52.475-0.843c1.645-0.026,3.17-0.731,4.184-1.934c0.926-1.099,1.318-2.466,1.104-3.852
					c-2.996-19.393-3.759-38.428-2.262-56.573c0.072-0.882-0.252-1.722-0.914-2.369c-0.757-0.742-1.825-1.095-2.916-0.983
					l-32.343,3.408L1285.371,706.105z"/>
				<path style="fill:#363E44;" d="M1284.312,708.48l-1.55-2.294c-58.339-86.355-130.936-193.84-148.623-190.199
					c-1.19,0.233-2.361-0.526-2.605-1.718c-0.245-1.194,0.525-2.363,1.719-2.606c19.134-3.867,73.074,73.493,153.168,192.051
					l0.009,0.015l23.411-3.255c14.603-18.078,30.244-39.465,46.794-62.096c50.908-69.613,103.548-141.578,135.108-128.297
					c1.124,0.474,1.651,1.77,1.177,2.893c-0.474,1.121-1.768,1.649-2.891,1.177c-28.352-11.954-82.261,61.784-129.831,126.833
					c-16.789,22.959-32.645,44.641-47.475,62.948l-0.547,0.677L1284.312,708.48z"/>
			</g>
		</g>
		<g>
			<path style="fill:#84524D;" d="M1860.024,946.172c17.645-9.573,39.506-17.875,57.674-4.432
				c11.121,8.229,9.676,24.55,18.239,34.03c12.455,13.79,31.12,11.181,40.48,25.356c15.569,23.577-13.468,40.336-3.114,56.94
				c8.67,13.904,32.685,6.818,49.777,24.149c13.121,13.305,12.05,42.346-0.492,59.427c-22.532,30.685-80.117,20.1-111.978,14.243
				c-47.393-8.712-93.561-17.199-113.451-55.989C1769.473,1045.904,1809.157,973.769,1860.024,946.172z"/>
			<g>
				<path style="fill:#E2A18D;" d="M1947.901,1747.67l-178.903-178.74l177.936-76.513l-211.584-96.988
					c0,0-165.621,106.594-151.247,163.702c16.46,65.392,190.392,172.599,294.117,244.139L1947.901,1747.67z"/>
				<polygon style="fill:#ff6900;" points="1878.221,1803.27 1897.063,1880.229 1882.675,1920.103 1909.452,1949.865
					1981.775,1886.592 1942.212,1794.731 1942.254,1794.693 2000.691,1868.376 2054.264,1820.177 1969.977,1769.751 
					1969.991,1769.739 1947.901,1747.67 				"/>
				<path style="fill:#E2A18D;" d="M1849.456,1936.347l-19.701-260.395l102.758-233.542l-180.161-32.029
					c-2.354,49.54-34.929,183.2-34.698,250.89c0.225,65.533,25.628,164.794,44.169,278.495L1849.456,1936.347z"/>
				<polygon style="fill:#ff6900;" points="1849.456,1936.347 1852.473,1976.219 1852.455,1976.219 1881.388,2070.081
					1809.323,2070.081 1815.644,1976.219 1815.106,1976.219 1783.078,2070.97 1686.992,2069.636 1686.992,2029.6 1724.359,2009.582 
					1761.824,1939.767 				"/>
				<path style="fill:#363E44;" d="M1719.535,1697.161c-1.123,0-2.083-0.852-2.194-1.992c-1.24-12.669-1.858-23.754-1.893-33.888
					c-0.135-39.437,10.788-101.031,20.426-155.375c2.428-13.689,4.721-26.619,6.774-38.816c0.203-1.203,1.338-2.009,2.544-1.811
					c1.202,0.203,2.012,1.341,1.811,2.544c-2.057,12.214-4.351,25.155-6.781,38.855c-9.606,54.161-20.491,115.548-20.359,154.588
					c0.034,9.994,0.647,20.943,1.871,33.472c0.119,1.214-0.768,2.294-1.982,2.412
					C1719.679,1697.157,1719.606,1697.161,1719.535,1697.161z"/>
				<path style="fill:#363E44;" d="M1837.207,1776.682c-1.144,0-2.112-0.882-2.199-2.042l-7.453-98.524
					c-0.028-0.36,0.035-0.724,0.18-1.054l14.771-33.571c0.493-1.117,1.795-1.619,2.91-1.132c1.116,0.489,1.622,1.794,1.132,2.908
					l-14.549,33.067l7.411,97.974c0.092,1.216-0.819,2.274-2.035,2.367C1837.319,1776.68,1837.263,1776.682,1837.207,1776.682z"/>
			</g>
			<g>
				<g>
					<path style="fill:#E2A18D;" d="M1848.871,1131.12c11.482-41.847-64.163-51.592-102.958-60.405
						c-33.797-7.677-133.746-27.945-138.481,4.964c-4.728,32.863,36.343,56.025,102.48,81.087
						C1858.291,1212.991,1839.12,1166.657,1848.871,1131.12z"/>
					<path style="fill:#E2A18D;" d="M1690.236,1070.374c0,0-49.946-138.828-58.06-156.341c-0.85-1.834-2.335-5.078-5.335-8.613
						c-11.118-13.1-25.225-9.212-43.2-17.652c-20.396-9.577-26.458-26.518-31.685-24.11c-3.635,1.675-3.148,8.708,2.991,21.526
						l-0.002,0.001c-5.783-9.202-14.171-21.339-19.247-18.128c-5.663,4.021,2.518,19.438,7.922,28.522
						c-6.542-10.996-13.31-14.886-15.694-12.391c-3.753,3.928-0.665,13.636,8.544,27.833l0,0.001
						c-9.098-8.027-12.501-8.618-14.071-5.899c-2.865,4.966,4.926,16.495,13.376,25.632c9.513,10.286,20.458,14.963,27.431,17.747
						c0.002,0.001,0.003,0.002,0.003,0.002c19.396,58.869,30.848,95.393,45.714,143.203
						C1616.572,1116.308,1695.308,1121.474,1690.236,1070.374z"/>
					<path style="fill:#363E44;" d="M1692.905,1079.106c-0.885,0-1.721-0.537-2.059-1.412
						c-2.603-6.739-63.759-165.095-66.081-171.524c-0.414-1.147,0.18-2.412,1.326-2.826c1.147-0.42,2.411,0.179,2.826,1.326
						c2.305,6.383,65.409,169.784,66.047,171.433c0.44,1.138-0.126,2.414-1.263,2.854
						C1693.438,1079.059,1693.17,1079.106,1692.905,1079.106z"/>
					<path style="fill:#363E44;" d="M1597.088,938.681c-0.896,0-1.738-0.548-2.068-1.438c-1.277-3.428-3.895-8.317-9.124-12.143
						c-7.403-5.415-15.483-5.232-18.609-4.898c-1.2,0.131-2.299-0.748-2.428-1.962c-0.128-1.214,0.75-2.3,1.963-2.427
						c3.64-0.392,13.036-0.599,21.681,5.726c6.112,4.471,9.167,10.171,10.655,14.165c0.426,1.143-0.155,2.412-1.298,2.839
						C1597.604,938.636,1597.344,938.681,1597.088,938.681z"/>
					<path style="fill:#363E44;" d="M1570.644,900.242c-0.343,0-0.691-0.08-1.016-0.248c-2.535-1.319-4.952-2.874-7.182-4.62
						c-3.249-2.544-6.149-5.519-8.622-8.843c-0.728-0.979-0.525-2.36,0.454-3.089c0.98-0.724,2.36-0.522,3.088,0.455
						c2.239,3.009,4.863,5.702,7.802,8.002c2.017,1.578,4.203,2.984,6.497,4.176c1.081,0.563,1.503,1.897,0.94,2.977
						C1572.212,899.809,1571.442,900.242,1570.644,900.242z"/>
					<path style="fill:#363E44;" d="M1558.522,909.182c-0.343,0-0.691-0.08-1.016-0.248c-2.535-1.319-4.952-2.874-7.182-4.62
						c-3.249-2.544-6.149-5.519-8.622-8.843c-0.728-0.979-0.525-2.361,0.454-3.089c0.979-0.724,2.359-0.522,3.088,0.455
						c2.239,3.01,4.863,5.702,7.802,8.002c2.017,1.578,4.203,2.984,6.497,4.176c1.081,0.563,1.502,1.897,0.94,2.977
						C1560.09,908.749,1559.32,909.182,1558.522,909.182z"/>
					<path style="fill:#363E44;" d="M1551.803,926.229c-0.343,0-0.691-0.08-1.016-0.25c-2.536-1.317-4.952-2.871-7.181-4.618
						c-3.247-2.542-6.147-5.517-8.623-8.843c-0.728-0.977-0.525-2.361,0.453-3.087c0.979-0.731,2.363-0.524,3.089,0.453
						c2.241,3.01,4.865,5.702,7.803,8.002c2.016,1.578,4.202,2.984,6.496,4.178c1.082,0.563,1.503,1.895,0.94,2.977
						C1553.37,925.796,1552.601,926.229,1551.803,926.229z"/>
					<g>
						<path style="fill:#FFFFFF;" d="M1545.018,988.159c0.87-5.182,5.347-9.141,10.777-9.141c0.986,0,1.925,0.171,2.834,0.417
							l51.323-122.817c-3.615-1.791-6.125-5.482-6.125-9.79c0-2.55,0.907-4.865,2.367-6.727l-47.563-19.875
							c-1.517,4.831-6.028,8.336-11.36,8.336c-1.757,0-3.42-0.391-4.921-1.074l-52.147,124.795c4.371,1.44,7.547,5.509,7.547,10.363
							c0,1.89-0.522,3.641-1.364,5.192L1545.018,988.159z"/>
						<path style="fill:#E0AA63;" d="M1548.682,975.24c-0.307,0-0.614-0.065-0.901-0.192l-46.023-20.579
							c-1.1-0.492-1.603-1.776-1.129-2.884l49.352-115.354c0.233-0.543,0.674-0.972,1.226-1.188c0.55-0.218,1.163-0.201,1.705,0.041
							l46.023,20.579c1.101,0.492,1.603,1.776,1.129,2.884l-49.353,115.354c-0.233,0.543-0.674,0.972-1.225,1.188
							C1549.227,975.191,1548.954,975.24,1548.682,975.24z M1505.543,951.324l41.992,18.776l47.615-111.292l-41.992-18.776
							L1505.543,951.324z"/>
						<polygon style="fill:#F2E6DC;" points="1543.553,962.205 1512.644,947.833 1557.122,847.844 1588.032,862.216 						"/>
					</g>
					<path style="fill:#E2A18D;" d="M1598.323,899.355c-7.804-20.885-6.193-30.072-2.844-31.203
						c5.632-1.902,19.594,13.201,34.844,42.287C1621.131,908.15,1607.515,901.643,1598.323,899.355z"/>
					<path style="fill:#363E44;" d="M1617.509,901.137c-0.324,0-0.653-0.071-0.965-0.224c-4.322-2.106-7.935-2.934-12.51-3.982
						c-1.947-0.446-4.056-0.929-6.452-1.561c-1.179-0.31-1.883-1.518-1.574-2.697c0.31-1.177,1.522-1.878,2.697-1.572
						c2.345,0.617,4.41,1.089,6.314,1.526c4.85,1.11,8.682,1.99,13.458,4.318c1.096,0.532,1.552,1.854,1.017,2.951
						C1619.113,900.682,1618.327,901.137,1617.509,901.137z"/>
				</g>
				<g>
					<path style="fill:#ff6900;" d="M1542.623,1457.188l464.879,148.316l-77.107-300.008l65.658-126.503
						c10.978-28.606-19.131-74.318-70.639-80.941l-135.385-16.409l-3.848,66.411c-10.449,5.151-17.64,15.904-17.64,28.34
						c0,11.129,5.762,20.907,14.46,26.532l-4.827,83.294L1542.623,1457.188z"/>
					<path style="fill:#363E44;" d="M1895.703,1237.495c-10.619,0-20.413-4.846-26.867-13.294c-0.741-0.97-0.555-2.354,0.414-3.096
						c0.97-0.737,2.354-0.552,3.094,0.414c5.614,7.347,14.128,11.561,23.36,11.561c13.949,0,26.062-9.91,28.802-23.562
						c0.239-1.196,1.396-1.988,2.599-1.731c1.195,0.239,1.97,1.403,1.73,2.598
						C1925.682,1226.093,1911.748,1237.495,1895.703,1237.495z"/>
				</g>
			</g>
			<g>
				<path style="fill:#E2A18D;" d="M1921.998,997.177c5.876,24.807-5.454,66.632-30.261,72.508
					c-24.807,5.876-53.697-26.421-59.573-51.229c-5.876-24.807,11.794-43.038,36.601-48.914
					C1893.572,963.667,1916.122,972.37,1921.998,997.177z"/>
				
					<ellipse transform="matrix(0.2282 -0.9736 0.9736 0.2282 505.2744 2651.6938)" style="fill:#E2A18D;" cx="1925.256" cy="1007.133" rx="19.222" ry="13.929"/>
				<path style="fill:#363E44;" d="M1854.034,1023.943c-0.498,0-1.005-0.015-1.522-0.05c-9.471-0.623-15.11-6.851-16.611-8.746
					c-0.758-0.955-0.598-2.343,0.357-3.1c0.955-0.761,2.343-0.597,3.101,0.358c1.218,1.533,5.784,6.577,13.443,7.082
					c7.164,0.491,12.191-3.419,13.566-4.624c0.915-0.804,2.311-0.714,3.115,0.205c0.803,0.918,0.71,2.313-0.207,3.115
					C1867.231,1019.974,1861.817,1023.943,1854.034,1023.943z"/>
				<path style="fill:#363E44;" d="M1894.052,1018.086c-4.388,0-7.859-1.252-9.546-2.005c-1.115-0.496-1.615-1.8-1.119-2.914
					c0.496-1.112,1.805-1.619,2.914-1.117c1.67,0.742,7.635,2.969,14.325,0.399c7.164-2.749,10.035-8.92,10.744-10.748
					c0.441-1.134,1.725-1.699,2.856-1.259c1.137,0.442,1.701,1.72,1.259,2.859c-0.875,2.253-4.419,9.873-13.278,13.271
					C1899.302,1017.687,1896.531,1018.086,1894.052,1018.086z"/>
				<path style="fill:#E2A18D;" d="M1896.667,1108.982h-40.113v-76.839h56.144v60.809
					C1912.698,1101.804,1905.521,1108.982,1896.667,1108.982z"/>
				<path style="fill:#363E44;" d="M1922.94,1023.341c-0.087,0-0.175-0.004-0.262-0.015c-1.212-0.142-2.077-1.242-1.934-2.451
					c1.001-8.474,0.692-16.494-0.894-23.189c-0.345-1.457-0.769-2.91-1.258-4.324c-0.399-1.151,0.211-2.408,1.362-2.809
					c1.156-0.401,2.41,0.211,2.809,1.365c0.538,1.552,1.003,3.15,1.383,4.751c1.703,7.194,2.043,15.743,0.982,24.724
					C1924.996,1022.516,1924.042,1023.341,1922.94,1023.341z"/>
				<path style="fill:#363E44;" d="M1885.583,1073.094c-8.563,0-17.72-3.432-26.872-10.134c-0.983-0.72-1.198-2.102-0.476-3.085
					c0.72-0.983,2.101-1.201,3.085-0.476c7.422,5.435,18.704,11.341,30.298,8.586c6.344-1.502,12.111-5.452,17.14-11.734
					c0.764-0.955,2.151-1.11,3.103-0.343c0.952,0.761,1.106,2.149,0.344,3.102c-5.66,7.071-12.245,11.535-19.57,13.268
					C1890.341,1072.824,1887.984,1073.094,1885.583,1073.094z"/>
				<path style="fill:#363E44;" d="M1875.352,1038.229c-0.283,0-0.571-0.054-0.849-0.17c-4.014-1.675-5.354-4.544-5.283-6.493
					c0.08-2.141,1.156-3.365,2.107-4.445c0.605-0.688,1.23-1.399,1.776-2.514c0.331-0.675,0.568-1.41,0.703-2.188
					c0.21-1.199,1.354-1.988,2.554-1.796c1.201,0.209,2.005,1.354,1.796,2.555c-0.208,1.19-0.574,2.324-1.09,3.374
					c-0.805,1.645-1.742,2.708-2.425,3.486c-0.814,0.925-0.989,1.171-1.009,1.692c0.016,0.3,0.524,1.401,2.571,2.255
					c1.125,0.47,1.657,1.761,1.187,2.886C1877.036,1037.718,1876.216,1038.229,1875.352,1038.229z"/>
				<path style="fill:#363E44;" d="M1883.817,1048.387c-0.56,0-0.978-0.041-1.191-0.067c-1.21-0.149-2.071-1.25-1.922-2.46
					c0.149-1.212,1.268-2.089,2.461-1.921c0.344,0.036,3.436,0.345,5.702-2.009c2.045-2.123,1.892-4.846,1.841-5.37
					c-0.12-1.214,0.768-2.294,1.981-2.412c1.241-0.112,2.294,0.767,2.412,1.981c0.119,1.212,0.249,5.432-3.054,8.862
					C1889.215,1047.936,1885.704,1048.387,1883.817,1048.387z"/>
				<path style="fill:#84524D;" d="M1893.732,968.892c-9.718-12.958-19.815-15.374-31.007-14.501
					c-18.126,1.414-28.959,23.438-19.9,39.647c8.793,15.735,24.683,21.597,23.449,33.63c-1.806,17.608-25.711,20.195-26.225,43.195
					c-0.484,21.626,31.476,28.73,31.47,49.983c-0.005,19.659-28.385,39.801-74.974,35.173
					c-54.198-5.384-74.909-25.359-70.346-45.046c5.863-25.3,40.882-25.146,46.898-42.269c5.563-15.833-18.755-41.193-9.873-60.935
					c5.865-13.037,27.517-16.492,42.578-29.157c13.575-11.416,13.652-32.242,31.47-41.961
					C1852.715,928.226,1879.617,929.554,1893.732,968.892z"/>
			</g>
			<g>
				<g>
					
						<rect x="1855.318" y="1094.207" transform="matrix(0.9991 0.0433 -0.0433 0.9991 51.7581 -79.8222)" style="fill:#363E44;" width="30.282" height="123.88"/>
					
						<ellipse transform="matrix(0.9536 -0.3011 0.3011 0.9536 -238.9698 613.7585)" style="fill:#363E44;" cx="1871.714" cy="1082.162" rx="31.658" ry="31.658"/>
				</g>
				<path style="fill:#E2A18D;" d="M1954.109,1124.38c33.921-12.244,65.959,61.785,79.291,98.244
					c11.614,31.761,35.519,119.925,4.253,128.581c-31.222,8.643-55.055-30.343-91.167-89.154
					C1899.142,1184.947,1924.729,1134.984,1954.109,1124.38z"/>
				<g>
					<path style="fill:#E2A18D;" d="M1986.626,1366.379c-27.068-3.95-51.647-38.631-59.373-64.871
						c-12.954-43.996-27.31-91.513-37.244-104.881c-2.949-3.969-10.915-20.299-22.738-18.3c-10.242,1.732-14.54,15.831-18.61,14.512
						c-1.985-0.643-5.743-8.351,0.853-22.273c-0.39-0.373-4.832-3.761-5.088-8.101c-0.313-5.304,4.126-8.41,4.594-8.681
						c-2.587-1.777-4.403-4.686-4.645-6.805c-0.369-3.237,1.728-6.585,6.26-9.996c-1.45-1.117-3.482-2.596-3.758-6.767
						c-0.604-9.128,20.924-17.098,38.126-15.387c21.01,2.089,35.579,21.138,45.699,36.608
						c39.903,60.997,110.882,128.969,121.641,166.258C2056.041,1333.099,2047.764,1375.302,1986.626,1366.379z"/>
					<path style="fill:#363E44;" d="M2032.846,1294.518c-0.83,0-1.627-0.47-2.001-1.272c-7.094-15.183-66.546-94.346-98.484-136.877
						c-4.929-6.562-9.164-12.201-12.396-16.526c-0.73-0.977-0.529-2.361,0.447-3.089c0.977-0.733,2.36-0.53,3.09,0.446
						c3.229,4.322,7.462,9.96,12.388,16.519c32.035,42.656,91.664,122.058,98.953,137.655c0.516,1.106,0.04,2.419-1.065,2.936
						C2033.478,1294.452,2033.16,1294.518,2032.846,1294.518z"/>
					<path style="fill:#363E44;" d="M1850.383,1172.096c-0.542,0-1.085-0.198-1.511-0.599c-0.888-0.834-0.932-2.231-0.098-3.119
						c2.196-2.337,4.746-4.277,7.581-5.765c3.567-1.869,7.434-2.953,11.495-3.221c1.189-0.056,2.267,0.841,2.348,2.059
						c0.08,1.216-0.842,2.268-2.059,2.348c-3.441,0.226-6.715,1.142-9.733,2.725c-2.397,1.257-4.555,2.897-6.412,4.876
						C1851.558,1171.863,1850.97,1172.096,1850.383,1172.096z"/>
					<path style="fill:#363E44;" d="M1849.05,1155.684c-0.543,0-1.086-0.198-1.512-0.599c-0.888-0.834-0.931-2.233-0.096-3.122
						c2.202-2.341,4.752-4.279,7.581-5.76c3.524-1.847,7.499-2.962,11.495-3.221c1.222-0.06,2.266,0.843,2.346,2.061
						c0.079,1.216-0.844,2.266-2.061,2.346c-3.383,0.22-6.749,1.162-9.731,2.725c-2.392,1.253-4.549,2.893-6.413,4.876
						C1850.223,1155.452,1849.637,1155.684,1849.05,1155.684z"/>
					<path style="fill:#363E44;" d="M1851.49,1138.729c-0.603,0-1.202-0.246-1.638-0.726c-0.817-0.903-0.748-2.3,0.156-3.117
						c2.382-2.158,5.081-3.885,8.02-5.133c3.665-1.556,7.708-2.309,11.719-2.283c1.219,0.019,2.19,1.024,2.171,2.244
						c-0.021,1.222-1.035,2.149-2.244,2.171c-3.34-0.041-6.818,0.612-9.918,1.929c-2.484,1.058-4.767,2.518-6.785,4.344
						C1852.547,1138.542,1852.018,1138.729,1851.49,1138.729z"/>
				</g>
			</g>
		</g>
		<g>
			<g>
				<path style="fill:#E0AA63;" d="M1524.322,2094.772c-0.178,0-0.358-0.021-0.538-0.067c-1.182-0.295-1.901-1.494-1.606-2.675
					l82.707-330.829c0.244-0.972,1.11-1.66,2.113-1.673c0.984-0.006,1.886,0.651,2.156,1.615l91.753,329.537
					c0.327,1.175-0.36,2.393-1.535,2.718c-1.171,0.334-2.392-0.358-2.718-1.533l-89.511-321.488l-80.681,322.721
					C1526.21,2094.104,1525.31,2094.772,1524.322,2094.772z"/>
				<ellipse style="fill:#EFBC73;" cx="1608.314" cy="1758.507" rx="21.969" ry="47.169"/>
			</g>
			<path style="opacity:0.45;fill:#FFFFFF;" d="M1619.31,1537.74v0.336H792.953c-0.592,0-1.187-0.338-1.784-0.338
				c-30.821,0-56.297,100.71-56.297,225.075c0,123.167,25.73,223.115,54.427,225.031v0.558h826.927c0.668,0,1.338-0.095,2.013-0.095
				c30.821,0,55.81-100.944,55.81-225.309C1674.048,1640.068,1650.215,1540.031,1619.31,1537.74z"/>
			<path style="fill:#D3BBA3;" d="M1625.125,1991.713c-21.215,0-40.942-23.821-55.548-67.078
				c-14.353-42.509-22.258-98.983-22.258-159.02s7.905-116.511,22.258-159.02c14.606-43.257,34.333-67.078,55.548-67.078
				c1.219,0,2.207,0.987,2.207,2.208c0,1.22-0.988,2.208-2.207,2.208c-18.893,0-37.615,23.355-51.365,64.075
				c-14.204,42.067-22.026,98.039-22.026,157.608c0,59.57,7.822,115.541,22.026,157.608c13.75,40.72,32.472,64.075,51.365,64.075
				c1.219,0,2.207,0.987,2.207,2.208C1627.333,1990.726,1626.344,1991.713,1625.125,1991.713z"/>
			<path style="fill:#363E44;" d="M1357.613,1610.162h-236.49c-1.219,0-2.208-0.987-2.208-2.208v-48.461
				c0-1.22,0.988-2.208,2.208-2.208h236.49c1.219,0,2.208,0.987,2.208,2.208v48.461
				C1359.82,1609.175,1358.832,1610.162,1357.613,1610.162z M1123.33,1605.747h232.075v-44.046H1123.33V1605.747z"/>
			<g>
				
					<rect x="945.293" y="1800.686" transform="matrix(0.257 0.9664 -0.9664 0.257 2531.9155 446.6868)" style="fill:#FFFFFF;" width="60.338" height="138.496"/>
				
					<rect x="804.015" y="1788.913" transform="matrix(0.9959 -0.0902 0.0902 0.9959 -164.2275 82.8301)" style="fill:#FFFFFF;" width="60.338" height="138.496"/>
				
					<rect x="1003.859" y="1858.606" transform="matrix(0.257 0.9664 -0.9664 0.257 2631.4089 433.1261)" style="fill:#FFFFFF;" width="60.338" height="138.496"/>
				
					<rect x="996.801" y="1702.085" transform="matrix(0.257 0.9664 -0.9664 0.257 2474.8975 323.6471)" style="fill:#FFFFFF;" width="60.338" height="138.496"/>
				
					<rect x="887.899" y="1641.747" transform="matrix(0.7071 0.7071 -0.7071 0.7071 1478.7544 -148.0324)" style="fill:#FFFFFF;" width="60.338" height="138.496"/>
				
					<rect x="1210.191" y="1624.087" transform="matrix(-0.3228 0.9465 -0.9465 -0.3228 3243.4329 1065.9805)" style="fill:#FFFFFF;" width="60.338" height="138.496"/>
				
					<rect x="1194.003" y="1730.046" transform="matrix(0.257 0.9664 -0.9664 0.257 2648.4434 153.8443)" style="fill:#FFFFFF;" width="60.338" height="138.496"/>
				
					<rect x="1360.299" y="1662.35" transform="matrix(-0.866 0.5 -0.5 -0.866 3460.4475 2535.9744)" style="fill:#FFFFFF;" width="60.338" height="138.496"/>
				
					<rect x="1348.526" y="1781.554" transform="matrix(-0.7071 0.7071 -0.7071 -0.7071 3662.2944 2184.6323)" style="fill:#FFFFFF;" width="60.338" height="138.496"/>
				
					<rect x="1475.088" y="1681.482" transform="matrix(-0.7071 0.7071 -0.7071 -0.7071 3807.5876 1924.3054)" style="fill:#FFFFFF;" width="60.338" height="138.496"/>
				
					<rect x="1501.278" y="1854.192" transform="matrix(0.4201 0.9075 -0.9075 0.4201 2633.4834 -274.3922)" style="fill:#FFFFFF;" width="60.338" height="138.496"/>
				
					<rect x="1244.039" y="1847.779" transform="matrix(0.257 0.9664 -0.9664 0.257 2799.3999 192.966)" style="fill:#FFFFFF;" width="60.338" height="138.496"/>
				
					<rect x="1104.232" y="1821.289" transform="matrix(-0.866 0.5 -0.5 -0.866 3062.0896 2960.5884)" style="fill:#FFFFFF;" width="60.338" height="138.496"/>
			</g>
			<path style="fill:#363E44;" d="M799.341,1991.713c-1.219,0-2.208-0.987-2.208-2.207c0-1.22,0.989-2.208,2.208-2.208
				c18.892,0,37.615-23.457,51.365-64.355c14.204-42.25,22.027-98.468,22.027-158.298c0-59.828-7.823-116.046-22.027-158.296
				c-13.75-40.899-32.473-64.355-51.365-64.355c-1.219,0-2.208-0.987-2.208-2.207c0-1.22,0.989-2.208,2.208-2.208
				c21.217,0,40.944,23.924,55.549,67.365c14.353,42.69,22.258,99.408,22.258,159.702c0,60.296-7.905,117.014-22.258,159.704
				C840.285,1967.788,820.557,1991.713,799.341,1991.713z"/>
			<g>
				<path style="fill:#E0AA63;" d="M900.139,2094.772c-0.967,0-1.854-0.638-2.125-1.615l-91.435-328.535l-80.694,327.502
					c-0.292,1.186-1.493,1.916-2.672,1.615c-1.183-0.291-1.907-1.487-1.616-2.671l82.707-335.675c0.24-0.974,1.108-1.664,2.11-1.679
					c0.012,0,0.023,0,0.033,0c0.99,0,1.86,0.66,2.127,1.615l93.692,336.643c0.327,1.175-0.36,2.393-1.535,2.718
					C900.534,2094.747,900.335,2094.772,900.139,2094.772z"/>
				<ellipse style="fill:#EFBC73;" cx="806.444" cy="1753.984" rx="21.969" ry="47.169"/>
			</g>
			<path style="fill:#363E44;" d="M798.128,1991.989c-0.049,0-0.098-0.002-0.147-0.004c-31.445-2.098-57.026-104.004-57.026-227.166
				c0-127.411,25.463-227.215,57.967-227.215c0.721,0,1.316,0.237,1.711,0.392c0.088,0.034,0.176,0.075,0.264,0.099l823.517-0.019
				c0.005-0.004,0.011-0.011,0.016-0.015c0.452-0.418,1.066-0.634,1.665-0.584c20.464,1.518,33.713,38.262,41.222,68.822
				c10.399,42.315,16.126,98.483,16.126,158.152c0,60.44-5.728,117.111-16.127,159.574c-7.537,30.773-20.824,67.458-41.324,67.458
				c-0.993,0-1.729-0.479-2.215-0.796c-0.04-0.026-0.079-0.052-0.118-0.078H800.175c-0.12,0.295-0.302,0.563-0.539,0.785
				C799.227,1991.778,798.687,1991.989,798.128,1991.989z M798.737,1542c-28.843,0.019-53.366,102.048-53.366,222.819
				c0,125.71,26.399,216.107,50.875,222.429c0.388-0.632,1.085-1.054,1.882-1.054h825.85c0.988,0,1.721,0.476,2.205,0.791
				c0.04,0.026,0.078,0.052,0.116,0.078c13.457-0.351,26.827-23.666,36.727-64.088c10.318-42.13,16.001-98.429,16.001-158.525
				c0-118.54-23.104-217.062-51.797-222.382c-0.364,0.265-0.814,0.423-1.299,0.423H800.706c-0.717,0-1.31-0.235-1.702-0.39
				C798.915,1542.064,798.827,1542.023,798.737,1542z"/>
		</g>
		<g>
			<g>
				<g>
					<polygon style="fill:#84524D;" points="534.022,2108.786 454.017,2113.619 461.377,2009.545 542.354,2016.886 					"/>
					<path style="fill:#363E44;" d="M641.818,2163.343H443.9l12.018-78.273h80.215l58.006,17.694
						C622.567,2110.464,642.081,2135.257,641.818,2163.343L641.818,2163.343z"/>
				</g>
				<g>
					<polygon style="fill:#84524D;" points="701.988,2117.125 621.914,2113.595 640.079,2010.854 719.851,2026.594 					"/>
					<path style="fill:#363E44;" d="M815.797,2163.343H612.945l11.573-78.273h85.593l58.006,17.694
						C796.545,2110.464,816.059,2135.257,815.797,2163.343L815.797,2163.343z"/>
				</g>
				<g>
					<g>
						<path style="fill:#D87355;" d="M513.153,1417.763c0,0-26.619,75.745-33.016,101.272
							c-36.427,145.37-53.503,523.901-53.503,523.901h145.303c0,0,35.007-276.66,51.481-397.971
							c9.442,22.556,20.078,54.065,28.408,78.319c3.844,11.192,4.697,23.181,2.479,34.805l-45.914,284.847h141.915
							c0,0,75.106-310.039,54.898-371.522c-17.874-54.383-103.373-207.02-103.373-207.02l-5.407-46.631H513.153z"/>
					</g>
					<polygon style="fill:#E6D0BE;" points="750.306,2042.936 762.962,1991.074 615.93,1992.103 608.392,2042.936 					"/>
					<polygon style="fill:#E6D0BE;" points="573.523,2042.936 579.451,1991.074 428.406,1992.103 424.881,2042.936 					"/>
					<path style="fill:#363E44;" d="M623.422,1647.172c-0.114,0-0.229-0.009-0.345-0.026c-1.204-0.19-2.028-1.319-1.839-2.522
						l11.504-73.543c0.189-1.205,1.324-2.011,2.522-1.841c1.204,0.19,2.027,1.319,1.839,2.522l-11.504,73.543
						C625.429,1646.394,624.49,1647.172,623.422,1647.172z"/>
				</g>
			</g>
			<g>
				<path style="fill:#84524D;" d="M486.138,1113.504l-12.509,36.056l89.431,88.296l-6.622,112.581
					c-109.934-9.742-144.637-143.073-166.613-175.003c-2.524-3.668-3.466-8.202-2.76-12.598
					c3.514-21.897,15.197-54.093,55.66-133.217L486.138,1113.504z"/>
				<g>
					<path style="fill:#84524D;" d="M464.436,1167.882c0.002-0.001,0.005,0,0.005,0c30.458-77.812,53.56-132.432,60.028-149.575
						c0.677-1.795,1.887-4.958,2.287-9.342c1.482-16.243-10.533-23.214-16.769-41.004c-7.075-20.186,0.37-35.558-4.736-37.498
						c-3.552-1.349-7.993,3.659-12.594,16.34l-0.002,0c2.388-10.037,5.032-23.79-0.518-25.094
						c-6.489-1.162-11.494,14.631-14.054,24.334c3.099-11.744,1.233-18.916-2.042-18.871c-5.156,0.07-9.68,8.617-13.174,24.297
						l-0.001,0c-0.612-11.5-2.475-14.199-5.361-13.454c-5.27,1.361-7.899,14.306-8.469,26.106
						c-0.642,13.284,3.468,23.81,6.218,30.385l0,0.005c-22.503,55.265-31.421,82.282-50.879,128.193
						C378.461,1183.842,425.304,1191.732,464.436,1167.882z"/>
					<path style="fill:#84524D;" d="M511.902,985.612c8.959-19.175,16.254-24.193,19.247-22.676
						c5.034,2.55,4.087,22.052-5.477,51.725C521.11,1006.913,516.464,993.362,511.902,985.612z"/>
					<g>
						<path style="fill:#363E44;" d="M485.933,1011.666c-0.315,0-0.633-0.067-0.937-0.209c-1.104-0.517-1.578-1.832-1.061-2.936
							c1.467-3.128,3.031-8.129,2.149-14.193c-1.248-8.58-6.721-13.902-9.016-15.793c-0.941-0.774-1.076-2.164-0.301-3.106
							c0.775-0.942,2.166-1.08,3.108-0.3c2.691,2.214,9.109,8.459,10.579,18.565c1.039,7.146-0.799,13.027-2.522,16.703
							C487.557,1011.196,486.762,1011.666,485.933,1011.666z"/>
						<path style="fill:#363E44;" d="M524.951,1000.536c-0.924,0-1.785-0.584-2.093-1.507c-1.383-4.135-3.701-7.817-6.385-12.079
							c-1.259-2-2.561-4.068-3.844-6.314c-0.604-1.061-0.236-2.408,0.823-3.012c1.059-0.606,2.408-0.237,3.012,0.821
							c1.235,2.164,2.51,4.191,3.745,6.15c2.718,4.316,5.285,8.394,6.836,13.031c0.387,1.158-0.237,2.408-1.394,2.794
							C525.418,1000.499,525.182,1000.536,524.951,1000.536z"/>
						<path style="fill:#363E44;" d="M494.391,968.193c-0.944,0-1.819-0.61-2.109-1.563c-0.794-2.593-1.35-5.271-1.651-7.959
							c-0.439-3.898-0.352-7.851,0.257-11.749c0.186-1.203,1.333-2.018,2.521-1.841c1.204,0.19,2.029,1.317,1.84,2.522
							c-0.547,3.51-0.625,7.069-0.231,10.574c0.272,2.419,0.772,4.829,1.485,7.164c0.357,1.164-0.299,2.399-1.465,2.755
							C494.822,968.163,494.605,968.193,494.391,968.193z"/>
						<path style="fill:#363E44;" d="M480.274,965.925c-0.944,0-1.818-0.61-2.109-1.561c-0.794-2.591-1.349-5.269-1.652-7.959
							c-0.438-3.9-0.351-7.853,0.258-11.749c0.188-1.205,1.328-2.026,2.521-1.841c1.205,0.19,2.029,1.317,1.84,2.522
							c-0.548,3.507-0.625,7.064-0.232,10.576c0.273,2.417,0.773,4.827,1.486,7.157c0.357,1.166-0.299,2.399-1.464,2.757
							C480.706,965.895,480.488,965.925,480.274,965.925z"/>
						<path style="fill:#363E44;" d="M464.257,972.709c-0.944,0-1.818-0.61-2.109-1.561c-0.793-2.591-1.348-5.269-1.651-7.959
							c-0.439-3.9-0.353-7.851,0.257-11.749c0.188-1.205,1.327-2.007,2.521-1.841c1.205,0.19,2.028,1.317,1.84,2.522
							c-0.548,3.507-0.625,7.067-0.231,10.574c0.273,2.421,0.772,4.829,1.485,7.159c0.357,1.166-0.298,2.401-1.464,2.757
							C464.689,972.679,464.471,972.709,464.257,972.709z"/>
					</g>
				</g>
				<g>
					<path style="fill:#84524D;" d="M751.206,1240.529l94.459-40.13l58.524,0.19l-1.909,35.651
						c-3.057,35.771-9.988,59.388-62.209,76.11l-118.637,46.152L751.206,1240.529z"/>
					<path style="fill:#84524D;" d="M900.346,1250.97c4.201-31.425,6.266-35.939,3.279-100.454
						c-1.271-27.469-3.726-50.284-2.928-64.792c-0.816-5.003,6.888-37.388-2.521-38.996c-7.022-1.2-11.939,24.029-14.303,30.259
						c-0.28-5.629,11.067-44.512,0.295-46.337c-11.186-1.895-16.82,36.202-18.039,41.265c-0.13-0.422,7.37-50.37-3.006-52.947
						c-10.082-2.504-14.841,39.688-17.03,49.25c0.446-8.571,2.662-46.988-5.23-48.315c-12.192-2.049-15.765,41.301-17.159,71.311
						c-11.176-9.241-18.791-12.181-21.073-8.96c-1.158,1.634,3.675,16.702,20.063,34.43c-0.51,11.197-2.615,74.013-5.054,111.278
						c15.637,21.869,30.761,43.311,46.398,65.18C890.189,1285.123,898.717,1263.16,900.346,1250.97z"/>
					<path style="fill:#363E44;" d="M865.717,1124.976c-1.212,0-2.198-0.977-2.208-2.19c-0.157-19.421-16.998-22.381-17.716-22.497
						c-1.201-0.194-2.02-1.326-1.828-2.526c0.191-1.203,1.316-2.014,2.518-1.835c0.212,0.034,21.252,3.596,21.441,26.824
						c0.01,1.218-0.97,2.214-2.189,2.225C865.729,1124.976,865.722,1124.976,865.717,1124.976z"/>
				</g>
				<g>
					<path style="fill:#363E44;" d="M800.011,1210.678l35.196,116.099l-79.451,28.312c0,0-0.229,47.316-30.475,134.423
						l-278.878,3.679l88.299-262.69C534.702,1230.501,667.898,1253.026,800.011,1210.678z"/>
					<path style="fill:#363E44;" d="M502.326,1370.308l-44.15-68.432l55.187-113.685c44.518,31.273,69.652,47.85,97.865,48.197
						L502.326,1370.308z"/>
				</g>
			</g>
			<g>
				<path style="fill:#84524D;" d="M642.701,1266.231L642.701,1266.231c-14.891-2.709-24.767-16.976-22.058-31.867l8.772-48.221
					c2.709-14.891,16.976-24.766,31.867-22.057h0c14.891,2.709,24.766,16.976,22.057,31.867l-8.772,48.221
					C671.859,1259.064,657.591,1268.94,642.701,1266.231z"/>
				<path style="fill:#84524D;" d="M665.896,1113.938c1.964-0.188,19.321-10.059,30.654,2.832
					c8.433,9.592,10.914,30.243,9.473,51.132c-1.697,24.599-6.148,39.066-13.234,43.915c-11.196,7.661-44.707-9.533-57.293-31.025
					c-9.085-15.514-8.026-35.482,1.608-50.81C646.711,1114.696,664.642,1114.059,665.896,1113.938z"/>
				<g>
					<path style="fill:#FFFFFF;" d="M660.65,1154.66c0.067,0.15,0.008,0.306,0.076,0.456c0.003,0.006,0.007,0.01,0.01,0.017
						c0.249,2.292,0.506,4.711,0.332,7.009c-0.077,1.018-0.525,1.719-0.706,2.67c-0.133,0.698-0.257,1.366-0.416,2.047
						c-6.758-3.569-10.756-9.592-10.756-9.592S654.309,1154.933,660.65,1154.66z"/>
					<g>
						<defs>
							<path id="SVGID_1_" d="M649.19,1157.267c0,0,5.801,8.748,15.247,11.407c9.445,2.659,18.958-1.779,18.958-1.779
								s-5.801-8.748-15.247-11.407C658.702,1152.829,649.19,1157.267,649.19,1157.267z"/>
						</defs>
						<clipPath id="SVGID_00000112599822505459046900000014888300438388370058_">
							<use xlink:href="#SVGID_1_"  style="overflow:visible;"/>
						</clipPath>
						<path style="clip-path:url(#SVGID_00000112599822505459046900000014888300438388370058_);fill:#363E44;" d="M659.294,1165.103
							c2.051,6.784,9.214,10.621,15.997,8.569c6.784-2.051,10.62-9.213,8.569-15.997c-2.051-6.784-9.213-10.621-15.997-8.569
							C661.08,1151.156,657.243,1158.318,659.294,1165.103z"/>
					</g>
				</g>
				<g>
					<path style="fill:#FFFFFF;" d="M704.172,1157.193c0.896,2.573,1.097,4.683,0.359,7.187c-6.28,1.656-11.911,0.826-11.911,0.826
						s2.574-8.134,9.019-13.584C702.901,1153.182,703.536,1155.367,704.172,1157.193z"/>
					<g>
						<defs>
							<path id="SVGID_00000137836858278596945660000014691101493541481134_" d="M722.649,1146.208c0,0-10.384-1.535-18.677,3.711
								c-8.292,5.246-11.353,15.287-11.353,15.287s10.384,1.535,18.677-3.711C719.589,1156.249,722.649,1146.208,722.649,1146.208z"
								/>
						</defs>
						<clipPath id="SVGID_00000110444467226039529730000005551765703874887102_">
							<use xlink:href="#SVGID_00000137836858278596945660000014691101493541481134_"  style="overflow:visible;"/>
						</clipPath>
						<path style="clip-path:url(#SVGID_00000110444467226039529730000005551765703874887102_);fill:#363E44;" d="M719.343,1143.823
							c-6.416-3.01-14.058-0.25-17.068,6.166c-3.011,6.416-0.25,14.058,6.166,17.068c6.416,3.01,14.058,0.25,17.068-6.166
							C728.52,1154.475,725.759,1146.833,719.343,1143.823z"/>
					</g>
				</g>
				<g>
					<path style="fill:#363E44;" d="M611.498,1151.97c0,0,9.381,23.666,29.216,41.117c0.674-7.989,3.849-30.046,3.849-30.046
						l-2.875-14.876c-1.13-5.845,2.104-11.657,7.667-13.778l47.196-17.617c0,0-0.602-0.913-10.46-12.079
						c-5.562-6.3-21.659-9.609-32.549-9.924C598.432,1093.173,611.498,1151.97,611.498,1151.97z"/>
					<path style="fill:#363E44;" d="M594.938,1118.12c-20.83,4.545-38.726,3.596-39.973-2.12
						c-1.247-5.716,14.628-14.033,35.457-18.578c20.83-4.545,38.726-3.596,39.973,2.12
						C631.643,1105.257,615.768,1113.575,594.938,1118.12z"/>
					<path style="fill:#363E44;" d="M593.127,1139.321c-20.648,12.365-40.136,17.796-43.529,12.13
						c-3.393-5.666,10.595-20.282,31.242-32.647c20.647-12.365,40.136-17.796,43.529-12.13
						C627.762,1112.339,613.774,1126.956,593.127,1139.321z"/>
					<path style="fill:#363E44;" d="M606.448,1150.653c-15.89,18.075-32.791,29.194-37.751,24.834
						c-4.96-4.36,3.9-22.548,19.79-40.623c15.89-18.076,32.791-29.194,37.751-24.834
						C631.198,1114.39,622.338,1132.578,606.448,1150.653z"/>
					<path style="fill:#363E44;" d="M609.279,1099.099c-11.639-4.479-20.042-10.794-18.768-14.105
						c1.274-3.312,11.743-2.365,23.382,2.113c11.639,4.479,20.042,10.794,18.768,14.105
						C631.387,1104.524,620.918,1103.577,609.279,1099.099z"/>
					<path style="fill:#FFFFFF;" d="M612.265,1140.667c-0.008,0-0.015,0-0.023,0c-1.219-0.013-2.198-1.011-2.185-2.231
						c0.113-10.958,3.886-21.751,10.622-30.396c0.75-0.961,2.138-1.125,3.098-0.384c0.961,0.75,1.134,2.136,0.384,3.1
						c-6.145,7.884-9.586,17.731-9.689,27.727C614.459,1139.693,613.474,1140.667,612.265,1140.667z"/>
				</g>
				<g>
					<path style="fill:#84524D;" d="M645.75,1164.02c3.374,7.156,1.206,15.269-4.842,18.122c-6.049,2.852-13.687-0.637-17.062-7.793
						c-3.374-7.156-1.206-15.269,4.842-18.121C634.737,1153.375,642.376,1156.864,645.75,1164.02z"/>
					<path style="fill:#363E44;" d="M629.974,1175.291c-0.695,0-1.379-0.328-1.809-0.94c-0.348-0.496-0.661-1.033-0.928-1.597
						c-1.053-2.233-1.302-4.695-0.703-6.939c0.636-2.378,2.133-4.23,4.218-5.21c1.066-0.502,2.197-0.705,3.403-0.716
						c1.219,0.03,2.184,1.041,2.155,2.259c-0.028,1.218-1.096,2.156-2.258,2.156c-0.516-0.041-0.979,0.086-1.417,0.293
						c-0.888,0.42-1.54,1.257-1.835,2.358c-0.33,1.235-0.178,2.626,0.429,3.913c0.159,0.334,0.343,0.653,0.55,0.949
						c0.701,0.996,0.46,2.373-0.538,3.074C630.854,1175.161,630.411,1175.291,629.974,1175.291z"/>
				</g>
				<path style="fill:#363E44;" d="M693.878,1180.286c-0.422,0-0.847-0.121-1.225-0.373c-1.013-0.677-1.286-2.048-0.609-3.061
					c0.305-0.457,0.649-1.11,0.553-1.632c-0.058-0.315-0.339-0.597-1.067-1.261c-0.682-0.621-1.531-1.397-2.35-2.57
					c-1.047-1.5-1.754-3.255-2.101-5.215c-0.214-1.201,0.586-2.345,1.787-2.559c1.204-0.211,2.345,0.589,2.559,1.787
					c0.236,1.326,0.698,2.49,1.376,3.46c0.537,0.77,1.13,1.313,1.704,1.834c0.983,0.899,2.099,1.917,2.433,3.721
					c0.293,1.589-0.119,3.231-1.223,4.887C695.29,1179.941,694.59,1180.286,693.878,1180.286z"/>
				<path style="fill:#363E44;" d="M686.852,1192.256c-0.943,0-1.983-0.136-3.074-0.5c-3.72-1.244-5.391-4.292-5.815-5.195
					c-0.517-1.106-0.042-2.419,1.062-2.936c1.107-0.515,2.419-0.043,2.935,1.061c0.236,0.504,1.164,2.197,3.217,2.884
					c1.841,0.614,3.433,0.045,4.03-0.231c1.108-0.505,2.42-0.022,2.926,1.089c0.508,1.108,0.021,2.419-1.088,2.925
					C690.323,1191.685,688.791,1192.256,686.852,1192.256z"/>
				<path style="fill:#363E44;" d="M679.934,1215.25c-0.197,0-0.398-0.026-0.597-0.082c-26.605-7.454-33.496-19.186-33.776-19.682
					c-0.599-1.061-0.226-2.408,0.835-3.007c1.055-0.599,2.396-0.231,3,0.821c0.093,0.153,6.578,10.736,31.133,17.617
					c1.174,0.33,1.858,1.548,1.53,2.72C681.786,1214.611,680.899,1215.25,679.934,1215.25z"/>
			</g>
		</g>
	</g>
</g>
</svg>
