<?xml version="1.0" encoding="utf-8"?>
<!-- Generator: Adobe Illustrator 27.5.0, SVG Export Plug-In . SVG Version: 6.00 Build 0)  -->
<svg version="1.1" xmlns="http://www.w3.org/2000/svg" xmlns:xlink="http://www.w3.org/1999/xlink" x="0px" y="0px"
	 viewBox="0 0 2500 2500" style="enable-background:new 0 0 2500 2500;" xml:space="preserve">
-
<g id="Illustration">
	<g id="Wrestling_1_">
		<ellipse style="fill:transparent;" cx="1250" cy="1250" rx="918.319" ry="915"/>
		<g>
			<ellipse style="fill:#E6D0BE;" cx="1252.297" cy="1830.622" rx="560.926" ry="293.184"/>
			<ellipse style="fill:#D3BBA3;" cx="1260.454" cy="1819.332" rx="376.578" ry="201.584"/>
		</g>
		<g>
			<g>
				<g>
					<g>
						<path style="fill:#BC8271;" d="M1445.121,1184.805l159.434,112.613l-137.196,123.263
							c-53.718-23.894-129.519-25.7-179.73-56.611C1315.275,1311.881,1445.121,1184.805,1445.121,1184.805z"/>
						<path style="fill:#BC8271;" d="M1285.612,1367.7c0.68-2.271,8.671-13.995,9.683-16.543
							c111.036-64.128,155.199-4.908,185.196,53.259l-12.345,14.99c-2.48,3.011-2.982,7.156-1.341,10.695
							c20.144,43.438-34.854,237.002-51.677,409.666l-122.468-48.847C1292.66,1790.921,1254.838,1470.523,1285.612,1367.7z"/>
						<g>
							<path style="fill:#363E44;" d="M1378.166,1251.499c80.976-99.98,216.701-231.532,216.701-231.532l219.338-36.462
								l8.004,199.325l-287.896,180.029C1492.841,1333.074,1447.98,1295.07,1378.166,1251.499z"/>
							<path style="fill:#FFFFFF;" d="M1565.781,1339.649c-0.211,0-0.423-0.066-0.604-0.204l-156.146-118.622
								c-0.44-0.334-0.525-0.961-0.191-1.4c0.334-0.441,0.961-0.526,1.4-0.191l156.146,118.622c0.44,0.334,0.525,0.961,0.191,1.4
								C1566.382,1339.514,1566.083,1339.649,1565.781,1339.649z"/>
							<path style="fill:#FFFFFF;" d="M1589.99,1325.125c-0.217,0-0.435-0.07-0.618-0.215l-159.777-125.885
								c-0.434-0.342-0.508-0.97-0.166-1.404c0.343-0.433,0.973-0.507,1.404-0.166l159.777,125.885
								c0.434,0.342,0.508,0.97,0.166,1.404C1590.579,1324.994,1590.286,1325.125,1589.99,1325.125z"/>
						</g>
						<g>
							<path style="fill:#EFBC73;" d="M1090.915,1867.044l357.247,7.604l-29.988-137.268l-151.64,0.315l-90.18,25.424
								C1126.468,1775.497,1091.5,1818.031,1090.915,1867.044L1090.915,1867.044z"/>
							<path style="fill:#FFFFFF;" d="M1229.737,1778.536c-0.319,0-0.634-0.152-0.827-0.437l-16.842-24.719
								c-0.312-0.457-0.193-1.079,0.263-1.39c0.457-0.312,1.079-0.194,1.39,0.263l16.842,24.719c0.312,0.457,0.193,1.079-0.263,1.39
								C1230.127,1778.479,1229.931,1778.536,1229.737,1778.536z"/>
							<path style="fill:#FFFFFF;" d="M1249.24,1772.436c-0.319,0-0.634-0.152-0.827-0.437l-16.843-24.719
								c-0.312-0.457-0.193-1.079,0.263-1.39c0.458-0.311,1.078-0.194,1.39,0.263l16.843,24.719c0.312,0.457,0.193,1.079-0.263,1.39
								C1249.63,1772.379,1249.434,1772.436,1249.24,1772.436z"/>
							<path style="fill:#FFFFFF;" d="M1268.743,1766.335c-0.319,0-0.634-0.152-0.827-0.437l-16.843-24.719
								c-0.312-0.457-0.193-1.079,0.263-1.39s1.079-0.194,1.39,0.263l16.843,24.719c0.312,0.457,0.193,1.079-0.263,1.39
								C1269.133,1766.278,1268.937,1766.335,1268.743,1766.335z"/>
							<path style="fill:#FFFFFF;" d="M1444.021,1856.688c-0.006,0-0.012,0-0.018,0l-351.423-6.005
								c-0.553-0.01-0.992-0.465-0.983-1.018c0.01-0.552,0.489-0.97,1.018-0.982l351.423,6.005c0.553,0.01,0.992,0.465,0.983,1.017
								C1445.011,1856.252,1444.565,1856.688,1444.021,1856.688z"/>
						</g>
						<g>
							<path style="fill:#FFFFFF;" d="M1431.764,1792.439l12.724-106.198c0,0-176.08-54.367-181.887-24.766
								c-2.548,12.99,18.68,19.07,18.68,19.07s-31.331,9.183-3.003,33.471c0,0-17.8,2.274-20.326,9.712
								c-5.633,16.586,22.858,23.092,22.858,23.092L1431.764,1792.439z"/>
							<path style="fill:#E6D0BE;" d="M1415.287,1710.763c-0.134,0-0.271-0.027-0.401-0.084
								c-52.299-22.956-132.871-29.076-133.679-29.136c-0.551-0.04-0.965-0.52-0.924-1.07c0.04-0.551,0.501-0.973,1.07-0.924
								c0.811,0.06,81.72,6.203,134.337,29.298c0.505,0.223,0.735,0.813,0.514,1.318
								C1416.039,1710.539,1415.672,1710.763,1415.287,1710.763z"/>
							<path style="fill:#E6D0BE;" d="M1405.56,1744.734c-0.143,0-0.288-0.03-0.426-0.096
								c-56.932-26.84-126.2-29.598-126.893-29.623c-0.553-0.02-0.983-0.482-0.964-1.034c0.019-0.553,0.512-1.024,1.034-0.964
								c0.697,0.024,70.363,2.793,127.676,29.813c0.499,0.235,0.713,0.831,0.478,1.331
								C1406.295,1744.522,1405.935,1744.734,1405.56,1744.734z"/>
						</g>
					</g>
					<g>
						<path style="fill:#BC8271;" d="M1860.566,1481.48c95.624,12.104,127.656,123.464,251.12,302.608l-116.086,57.699
							c0,0-288.197-244.105-276.093-291.312C1728.633,1491.53,1808.859,1431.477,1860.566,1481.48z"/>
						<path style="fill:#BC8271;" d="M1728.39,1574.234c-30.656-36.518-77.878-227.111-77.878-227.111l214.908-10.251l4.829,30.828
							l14.525,128.306c-31.669,26.859-55.881,33.161-87.8,60.521c-17.311,12.984-34.618,23.391-51.417,34.292
							C1738.839,1585.334,1733.063,1579.8,1728.39,1574.234z"/>
						<g>
							<path style="fill:#363E44;" d="M1876.863,973.1l18.235,63.908c6.651,23.309,8.889,47.654,6.601,71.785l-26.046,274.643
								c-82.534,9.121-129.14,16.068-210.615,30.261c-25.358-122.36-56.89-278.399-56.89-278.399L1876.863,973.1z"/>
							<path style="fill:#FFFFFF;" d="M1643.897,1316.651c-0.511,0-0.946-0.39-0.995-0.908c-5.416-58.5-28.77-130.994-29.005-131.72
								c-0.171-0.525,0.117-1.09,0.643-1.26c0.528-0.171,1.091,0.118,1.26,0.643c0.236,0.728,23.658,73.434,29.095,132.153
								c0.051,0.55-0.354,1.037-0.904,1.088C1643.959,1316.65,1643.928,1316.651,1643.897,1316.651z"/>
							<path style="fill:#FFFFFF;" d="M1665.036,1380.805c-0.493,0-0.922-0.364-0.99-0.865c-0.074-0.548,0.31-1.052,0.856-1.126
								l214.246-29.051c0.552-0.067,1.052,0.31,1.126,0.856c0.074,0.548-0.31,1.052-0.856,1.126l-214.246,29.051
								C1665.126,1380.802,1665.081,1380.805,1665.036,1380.805z"/>
							<path style="fill:#FFFFFF;" d="M1658.984,1350.544c-0.497,0-0.928-0.37-0.991-0.876c-0.068-0.548,0.32-1.048,0.868-1.116
								l222.719-27.84c0.549-0.061,1.048,0.32,1.116,0.868s-0.32,1.048-0.868,1.116l-222.719,27.84
								C1659.067,1350.541,1659.025,1350.544,1658.984,1350.544z"/>
						</g>
						<g>
							<path style="fill:#FFFFFF;" d="M2111.686,1784.088l-82.871-147.672c0,0-164.47,110.233-145.438,133.637
								c8.352,10.271,26.608-2.152,26.608-2.152s-12.991,29.952,23.8,23.726c0,0-9.643,15.133-5.543,21.834
								c9.141,14.942,32.372-2.79,32.372-2.79L2111.686,1784.088z"/>
							<path style="fill:#E6D0BE;" d="M1909.985,1768.9c-0.259,0-0.518-0.1-0.714-0.3c-0.387-0.394-0.381-1.027,0.014-1.414
								c41.486-40.714,101.286-78.599,101.886-78.977c0.466-0.293,1.084-0.154,1.379,0.313s0.155,1.084-0.313,1.379
								c-0.597,0.377-60.221,38.15-101.552,78.713C1910.491,1768.805,1910.238,1768.9,1909.985,1768.9z"/>
							<path style="fill:#E6D0BE;" d="M1933.785,1792.626c-0.268,0-0.534-0.106-0.731-0.318c-0.377-0.404-0.354-1.037,0.05-1.413
								c44.468-41.439,94.363-69.857,94.862-70.14c0.479-0.271,1.091-0.104,1.362,0.378c0.272,0.48,0.103,1.091-0.378,1.362
								c-0.496,0.281-50.194,28.59-94.483,69.862C1934.274,1792.537,1934.029,1792.626,1933.785,1792.626z"/>
						</g>
						<g>
							<path style="fill:#EFBC73;" d="M1802.206,1942.166l356.432-25.287l-41.176-134.477l-145.518,10.78l-94.22,37.642
								C1829.188,1847.738,1798.281,1893.307,1802.206,1942.166L1802.206,1942.166z"/>
							<path style="fill:#FFFFFF;" d="M1948.552,1832.648c-0.303,0-0.601-0.137-0.798-0.396l-18.082-23.827
								c-0.334-0.439-0.248-1.067,0.192-1.401c0.439-0.334,1.065-0.247,1.401,0.192l18.082,23.827
								c0.334,0.439,0.248,1.067-0.192,1.401C1948.975,1832.582,1948.762,1832.648,1948.552,1832.648z"/>
							<path style="fill:#FFFFFF;" d="M1967.718,1825.562c-0.303,0-0.601-0.137-0.798-0.396l-18.082-23.827
								c-0.334-0.439-0.248-1.067,0.192-1.401c0.441-0.334,1.067-0.247,1.401,0.192l18.082,23.827
								c0.334,0.439,0.248,1.067-0.192,1.401C1968.141,1825.495,1967.928,1825.562,1967.718,1825.562z"/>
							<path style="fill:#FFFFFF;" d="M1986.884,1818.474c-0.303,0-0.601-0.137-0.798-0.396l-18.082-23.827
								c-0.334-0.439-0.248-1.067,0.192-1.401c0.44-0.335,1.066-0.246,1.401,0.192l18.082,23.827
								c0.334,0.439,0.248,1.067-0.192,1.401C1987.307,1818.407,1987.094,1818.474,1986.884,1818.474z"/>
							<path style="fill:#FFFFFF;" d="M1802.281,1925.663c-0.518,0-0.956-0.399-0.996-0.924c-0.042-0.551,0.37-1.031,0.921-1.073
								l351.987-26.924c0.542-0.047,1.031,0.371,1.073,0.921c0.042,0.551-0.37,1.031-0.921,1.073l-351.987,26.924
								C1802.333,1925.662,1802.307,1925.663,1802.281,1925.663z"/>
						</g>
					</g>
				</g>
				<g>
					<path style="fill:#363E44;" d="M1520.996,641.442c-26.687,6.245-6.052,9.683-6.052,9.683l-21.788,29.05
						c-13.315,63.749-36.716,108.939-39.944,158.163c-3.539,53.974,7.263,75.45,14.44,101.99
						c19.295,60.105,81.883,174.64,95.306,214.336c61.995-25.943,327.623-142.024,327.623-142.024s-27.102-150.105-106.921-261.049
						C1719.507,662.423,1606.935,621.331,1520.996,641.442z"/>
					<path style="fill:#BC8271;" d="M1468.18,915.175c-136.118,181.151-73.582,193.523-37.31,205.009
						c57.483,18.202,232.691-168.415,259.592-241.233c2.551-6.906,8.378-44.41-34.547-71.676
						C1623.8,786.875,1524.963,839.607,1468.18,915.175z"/>
					<path style="fill:#BC8271;" d="M1605.613,696.672c-9.902,36.198-32.136,76.433-102.773,150.543
						c-9.225,9.679-50.27,40.841-50.931,27.486c-4.411-89.159,12.697-158.766,55.179-217.711
						c15.503-21.511,44.766-27.886,68.153-15.393c15.472,8.264,19.552,10.436,23.955,16.667
						C1607.051,669.378,1609.204,683.545,1605.613,696.672z"/>
					<path style="fill:#BC8271;" d="M1455.261,985.954c-62.427-31.478-186.812-86.565-201.12-93.952
						c-2.441-1.261-6.019-3.904-10.293-7.342c-35.308-28.408-78.713-23.302-113.171,6.132
						c-17.396,14.86-43.171,35.103-60.521,53.259c-13.693,26.171,7.843,26.814,52.78,21.499
						c24.346,12.724,60.776,32.287,99.294,55.112c100.045,59.285,186.39,103.092,219.527,100.111
						C1464.305,1118.742,1475.338,1031.191,1455.261,985.954z"/>
					<path style="fill:#FFFFFF;" d="M1643.653,1120.158c-0.387,0-0.755-0.226-0.918-0.604c-0.219-0.508,0.015-1.096,0.521-1.314
						l246.928-106.518c0.508-0.217,1.096,0.014,1.314,0.521c0.219,0.508-0.015,1.096-0.521,1.315l-246.928,106.518
						C1643.92,1120.132,1643.786,1120.158,1643.653,1120.158z"/>
					<path style="fill:#BC8271;" d="M1724.998,894.422c0,50.138-42.868,90.782-82.309,90.782c-39.442,0-60.521-40.645-60.521-90.782
						c0-50.138,31.974-90.782,71.415-90.782C1693.024,803.64,1724.998,844.284,1724.998,894.422z"/>
					<path style="fill:#363E44;" d="M1611.217,995.888c-0.256,0-0.512-0.098-0.707-0.293c-0.391-0.391-0.391-1.023,0-1.414
						l72.626-72.626c0.391-0.391,1.023-0.391,1.414,0c0.391,0.391,0.391,1.023,0,1.414l-72.626,72.626
						C1611.729,995.79,1611.473,995.888,1611.217,995.888z"/>
					<g>
						<path style="fill:#BC8271;" d="M1487.753,810.902l-210.615-100.466c-67.52-37.407-268.711-10.692-217.07-46.4
							c4.858-3.359,138.494-49.249,195.51-66.744c15.337-4.706,31.752-4.45,46.935,0.731l233.657,79.731L1487.753,810.902z"/>
						<path style="fill:#BC8271;" d="M1303.546,719.46l-237.022,12.361l-25.823-63.749l213.05-56.464
							c7.2-2.36,14.95,1.563,17.311,8.763L1303.546,719.46z"/>
					</g>
					<path style="fill:#363E44;" d="M1452.247,861.935c-0.53,0-0.973-0.417-0.998-0.953c-2.892-61.695,1.884-114.431,34.526-171.094
						l-14.195-22.082c-0.299-0.465-0.164-1.084,0.3-1.382c0.469-0.3,1.085-0.164,1.382,0.3l14.855,23.108l-0.306,0.528
						c-32.675,56.443-37.449,108.992-34.564,170.527c0.025,0.552-0.4,1.02-0.952,1.046
						C1452.279,861.935,1452.263,861.935,1452.247,861.935z"/>
				</g>
				<g>
					<path style="fill:#BC8271;" d="M1457.04,670.928c19.824-1.808,34.275-55.401,34.275-55.401l-15.783-58.731
						c-18.222-21.265-50.231-23.731-71.496-5.509c-21.264,18.222-23.731,50.231-5.509,71.496
						C1398.527,622.782,1436.849,672.769,1457.04,670.928z"/>
					<path style="fill:#BC8271;" d="M1542.115,681.036l-7.347,6.296c-12.699,10.882-31.816,9.409-42.698-3.29l-83.123-97.003
						l53.335-45.703l83.123,97.003C1556.288,651.037,1554.815,670.154,1542.115,681.036z"/>
					<path style="fill:#BC8271;" d="M1411.627,629.115c0,0-1.104,20.569,2.031,23.064c3.741,2.978,17.635-5.155,17.635-5.155
						S1411.363,629.388,1411.627,629.115z"/>
					<g>
						<path style="fill:#FFFFFF;" d="M1444.962,597.692c0,0-9.417,2.056-17.187,8.715c-1.653,1.417,12.802,11.974,13.73,9.88
							C1445.582,607.081,1444.962,597.692,1444.962,597.692z"/>
						<g>
							<defs>
								<path id="SVGID_1_" d="M1444.962,597.692c0,0-13.85,3.025-21.816,13.615c-7.966,10.59-7.031,24.736-7.031,24.736
									s13.85-3.025,21.816-13.615C1445.896,611.838,1444.962,597.692,1444.962,597.692z"/>
							</defs>
							<clipPath id="SVGID_00000125587738270695186470000000793245335234807433_">
								<use xlink:href="#SVGID_1_"  style="overflow:visible;"/>
							</clipPath>
							<path style="clip-path:url(#SVGID_00000125587738270695186470000000793245335234807433_);fill:#363E44;" d="M1427.154,606.35
								c-9.543-0.735-17.875,6.405-18.611,15.948c-0.735,9.543,6.405,17.875,15.948,18.611c9.543,0.736,17.875-6.404,18.611-15.948
								C1443.838,615.417,1436.698,607.085,1427.154,606.35z"/>
						</g>
					</g>
					<path style="fill:#363E44;" d="M1457.927,584.308c0,0,9.16,26.094-10.567,44.885c-19.727,18.79-23.826,21.666-23.826,21.666
						l14.174,21.933c6.251,9.673,19.714,11.371,28.171,3.552l14.316-13.236c14.482-13.389,16.894-35.399,5.656-51.607
						l-12.393-17.872l13.41-23.606c0,0,18.69-42.492-12.468-54.518c-19.724-7.613-28.113,9.005-28.113,9.005l-82.174,4.278
						c-15.983,0.832-28.866,13.397-30.095,29.355l0,0c-1.17,15.188,11.262,27.952,26.476,27.181l11.079-0.561l-7.757,4.35
						c-6.268,3.515-8.499,11.445-4.984,17.713l0,0c6.866,12.243,23.395,15.034,33.743,5.55c4.618-4.232,9.372-9.461,13.632-15.804
						C1421.118,574.363,1446.281,564.116,1457.927,584.308z"/>
					<path style="fill:#BC8271;" d="M1464.316,591.625c3.39,8.733,12.206,13.457,19.692,10.551
						c7.485-2.906,10.805-12.341,7.415-21.073c-3.39-8.733-12.206-13.457-19.692-10.551
						C1464.246,573.457,1460.926,582.892,1464.316,591.625z"/>
					<path style="fill:#D3BBA3;" d="M1442.851,648.179c-0.492,0-0.921-0.362-0.989-0.863c-0.076-0.547,0.307-1.052,0.854-1.127
						c2.391-0.33,4.372-2.027,5.05-4.324c0.652-2.212-0.031-4.658-1.741-6.233c-0.406-0.374-0.432-1.007-0.058-1.413
						c0.376-0.405,1.008-0.43,1.413-0.058c2.266,2.086,3.17,5.333,2.304,8.271c-0.899,3.049-3.526,5.301-6.694,5.738
						C1442.942,648.176,1442.896,648.179,1442.851,648.179z"/>
					<path style="fill:#363E44;" d="M1479.359,597.115c-0.062,0-0.124-0.006-0.188-0.017c-0.543-0.103-0.899-0.626-0.796-1.169
						l1.71-9.008c0.103-0.542,0.613-0.901,1.169-0.796c0.543,0.102,0.899,0.626,0.796,1.169l-1.71,9.008
						C1480.25,596.781,1479.83,597.115,1479.359,597.115z"/>
					<g>
						<path style="fill:#FFFFFF;" d="M1438.214,569.219c-0.258,0-0.515-0.099-0.71-0.296l-40.817-41.185
							c-0.389-0.393-0.387-1.025,0.006-1.414c0.393-0.389,1.025-0.387,1.414,0.006l40.817,41.185
							c0.389,0.393,0.387,1.025-0.006,1.414C1438.723,569.122,1438.469,569.219,1438.214,569.219z"/>
						<path style="fill:#FFFFFF;" d="M1450.389,551.313c-0.278,0-0.556-0.116-0.754-0.343l-23.402-26.839
							c-0.362-0.416-0.319-1.048,0.097-1.411c0.414-0.363,1.045-0.32,1.411,0.097l23.402,26.839
							c0.362,0.416,0.319,1.048-0.097,1.411C1450.856,551.231,1450.622,551.313,1450.389,551.313z"/>
						<path style="fill:#FFFFFF;" d="M1487.989,654.822c-0.127,0-0.255-0.023-0.38-0.075c-0.511-0.209-0.755-0.793-0.545-1.305
							c7.217-17.592,10.408-28.227-7.903-42.211c-0.438-0.335-0.522-0.963-0.188-1.402c0.337-0.438,0.964-0.523,1.402-0.188
							c19.434,14.843,15.905,26.602,8.538,44.56C1488.756,654.589,1488.383,654.822,1487.989,654.822z"/>
						
							<ellipse transform="matrix(0.8716 -0.4902 0.4902 0.8716 -96.8314 795.2422)" style="fill:#EFBC73;" cx="1469.665" cy="582.468" rx="39.944" ry="39.944"/>
						<path style="fill:#FFFFFF;" d="M1451.62,581.444c-0.275,0-0.551-0.113-0.748-0.336c-0.366-0.413-0.329-1.045,0.084-1.412
							l23.108-20.509c0.411-0.366,1.045-0.33,1.412,0.084c0.366,0.413,0.329,1.045-0.084,1.412l-23.108,20.509
							C1452.094,581.361,1451.856,581.444,1451.62,581.444z"/>
						<path style="fill:#FFFFFF;" d="M1466.005,595.589c-0.265,0-0.529-0.105-0.726-0.313c-0.38-0.4-0.363-1.033,0.038-1.413
							l23.323-22.108c0.401-0.38,1.034-0.363,1.413,0.038c0.38,0.4,0.363,1.033-0.038,1.413l-23.323,22.108
							C1466.499,595.498,1466.252,595.589,1466.005,595.589z"/>
						<path style="fill:#FFFFFF;" d="M1482.634,605.149c-0.271,0-0.543-0.11-0.74-0.327c-0.371-0.409-0.341-1.042,0.067-1.413
							l14.836-13.478c0.411-0.369,1.042-0.341,1.413,0.067c0.371,0.409,0.341,1.042-0.067,1.413l-14.836,13.477
							C1483.114,605.063,1482.874,605.149,1482.634,605.149z"/>
					</g>
				</g>
			</g>
			<g>
				<g>
					<g>
						<path style="fill:#84524D;" d="M1064.932,1155.754l-159.434,112.613l137.196,123.263
							c53.718-23.894,131.42-24.11,181.631-55.021C1196.679,1284.421,1064.932,1155.754,1064.932,1155.754z"/>
						<path style="fill:#84524D;" d="M1224.865,1344.274c-0.053-2.37-0.241-4.939-0.541-7.664
							c-90.035-91.297-131.09-31.827-175.448,16.292l0.433,0.872c-35.028,22.426-50.57,231.816-81.553,410.716l137.781-7.817
							C1105.538,1756.673,1227.248,1451.576,1224.865,1344.274z"/>
						<g>
							<path style="fill:#D87355;" d="M1131.887,1222.448c-80.976-99.98-216.701-231.532-216.701-231.532l-219.338-36.462
								l-8.003,199.325l287.896,180.029C1017.212,1304.024,1062.073,1266.019,1131.887,1222.448z"/>
							<path style="fill:#FFFFFF;" d="M944.271,1310.6c-0.302,0-0.601-0.136-0.797-0.396c-0.334-0.439-0.249-1.066,0.191-1.4
								l156.146-118.622c0.438-0.334,1.067-0.25,1.4,0.191c0.334,0.439,0.249,1.066-0.191,1.4l-156.146,118.622
								C944.694,1310.533,944.482,1310.6,944.271,1310.6z"/>
							<path style="fill:#FFFFFF;" d="M920.063,1296.074c-0.296,0-0.589-0.131-0.786-0.381c-0.342-0.435-0.268-1.063,0.166-1.404
								l159.777-125.885c0.436-0.342,1.064-0.267,1.404,0.166c0.342,0.435,0.268,1.063-0.166,1.404l-159.777,125.885
								C920.497,1296.004,920.279,1296.074,920.063,1296.074z"/>
						</g>
						<g>
							<path style="fill:#D87355;" d="M1275.155,1893.408l-345.975-89.357l66.016-124.031l145.896,41.339l79.935,48.88
								C1265.702,1795.656,1287.855,1846.066,1275.155,1893.408L1275.155,1893.408z"/>
							<path style="fill:#FFFFFF;" d="M1165.736,1770.673c-0.286,0-0.569-0.121-0.767-0.356c-0.355-0.423-0.301-1.054,0.122-1.409
								l22.903-19.238c0.426-0.354,1.057-0.3,1.409,0.122c0.355,0.423,0.301,1.054-0.122,1.409l-22.903,19.238
								C1166.191,1770.596,1165.963,1770.673,1165.736,1770.673z"/>
							<path style="fill:#FFFFFF;" d="M1148.612,1759.522c-0.286,0-0.569-0.121-0.767-0.356c-0.355-0.423-0.301-1.054,0.122-1.409
								l22.903-19.238c0.426-0.355,1.057-0.299,1.409,0.122c0.355,0.423,0.301,1.054-0.122,1.409l-22.903,19.238
								C1149.067,1759.445,1148.839,1759.522,1148.612,1759.522z"/>
							<path style="fill:#FFFFFF;" d="M1131.488,1748.372c-0.286,0-0.569-0.121-0.767-0.356c-0.355-0.423-0.301-1.054,0.122-1.409
								l22.903-19.238c0.425-0.355,1.056-0.299,1.409,0.122c0.355,0.423,0.301,1.054-0.122,1.409l-22.903,19.238
								C1131.943,1748.295,1131.715,1748.372,1131.488,1748.372z"/>
							<path style="fill:#FFFFFF;" d="M1278.234,1877.241c-0.084,0-0.17-0.011-0.255-0.033l-339.936-89.32
								c-0.534-0.14-0.853-0.687-0.713-1.221c0.14-0.534,0.689-0.854,1.221-0.713l339.935,89.32c0.534,0.14,0.854,0.687,0.713,1.221
								C1279.083,1876.944,1278.678,1877.241,1278.234,1877.241z"/>
						</g>
						<g>
							<path style="fill:#FFFFFF;" d="M971.019,1721.219l15.917-105.767c0,0,184.195-5.687,181.937,24.394
								c-0.99,13.201-23.071,13.429-23.071,13.429s27.77,17.168-5.988,33.068c0,0,16.558,6.916,17.02,14.758
								c1.029,17.486-28.167,16.197-28.167,16.197L971.019,1721.219z"/>
							<path style="fill:#E6D0BE;" d="M1145.804,1654.275c-0.064,0-0.13-0.006-0.195-0.02c-0.793-0.157-80.103-15.637-136.618-7.387
								c-0.552,0.085-1.055-0.299-1.134-0.845c-0.08-0.547,0.298-1.055,0.845-1.134c56.862-8.301,136.498,7.246,137.296,7.404
								c0.542,0.106,0.894,0.633,0.786,1.175C1146.689,1653.946,1146.271,1654.275,1145.804,1654.275z"/>
							<path style="fill:#E6D0BE;" d="M1139.816,1687.344c-0.076,0-0.154-0.009-0.231-0.027
								c-0.675-0.16-68.188-15.882-130.205-5.115c-0.543,0.095-1.061-0.271-1.156-0.814c-0.095-0.544,0.271-1.062,0.815-1.156
								c62.424-10.843,130.33,4.979,131.008,5.141c0.538,0.127,0.87,0.666,0.742,1.203
								C1140.68,1687.034,1140.269,1687.344,1139.816,1687.344z"/>
						</g>
					</g>
					<g>
						<path style="fill:#84524D;" d="M623.507,1445.168c-19.11,3.551-101.676,130.726-225.14,309.87l116.086,57.699
							c0,0,288.197-244.105,276.093-291.312C781.42,1462.48,675.213,1395.164,623.507,1445.168z"/>
						<path style="fill:#84524D;" d="M781.663,1545.184c30.655-36.518,77.878-227.112,77.878-227.112l-214.908-10.251
							l-23.369,141.653l-1.569,0.669c31.669,26.859,61.465,49.973,93.384,77.333c17.311,12.984,34.618,23.391,51.417,34.292
							C771.213,1556.284,776.99,1550.749,781.663,1545.184z"/>
						<g>
							<path style="fill:#D87355;" d="M633.19,944.05l-28.298,99.179l29.509,311.157c82.534,9.121,129.14,16.068,210.615,30.261
								c25.358-122.36,56.89-278.399,56.89-278.399L633.19,944.05z"/>
							<path style="fill:#FFFFFF;" d="M874.47,1254.112c-0.03,0-0.062-0.001-0.093-0.004c-0.551-0.051-0.955-0.538-0.904-1.088
								c5.433-58.67,17.648-115.75,17.771-116.32c0.116-0.539,0.643-0.885,1.189-0.767c0.54,0.116,0.883,0.648,0.767,1.188
								c-0.122,0.568-12.314,57.536-17.734,116.082C875.416,1253.723,874.981,1254.112,874.47,1254.112z"/>
							<path style="fill:#FFFFFF;" d="M845.017,1351.754c-0.045,0-0.09-0.003-0.136-0.009l-214.246-29.05
								c-0.547-0.074-0.931-0.578-0.857-1.126c0.075-0.547,0.579-0.932,1.126-0.856l214.246,29.05
								c0.547,0.074,0.931,0.578,0.856,1.126C845.938,1351.39,845.51,1351.754,845.017,1351.754z"/>
							<path style="fill:#FFFFFF;" d="M851.068,1321.493c-0.041,0-0.083-0.003-0.125-0.008l-222.719-27.84
								c-0.548-0.068-0.937-0.568-0.868-1.116c0.069-0.548,0.571-0.935,1.116-0.868l222.719,27.84
								c0.548,0.068,0.937,0.568,0.868,1.116C851.996,1321.123,851.565,1321.493,851.068,1321.493z"/>
						</g>
						<g>
							<path style="fill:#FFFFFF;" d="M398.367,1755.037l87.151-142.831c0,0,160.19,105.391,141.158,128.795
								c-8.352,10.271-26.608-2.152-26.608-2.152s12.991,29.952-23.8,23.726c0,0,9.643,15.133,5.543,21.834
								c-9.141,14.942-32.372-2.79-32.372-2.79L398.367,1755.037z"/>
							<path style="fill:#E6D0BE;" d="M600.067,1739.851c-0.253,0-0.506-0.096-0.7-0.286
								c-41.331-40.563-100.955-78.337-101.552-78.714c-0.468-0.295-0.607-0.912-0.313-1.379c0.296-0.468,0.916-0.606,1.379-0.313
								c0.6,0.378,60.4,38.264,101.886,78.978c0.395,0.387,0.4,1.021,0.014,1.414
								C600.585,1739.751,600.326,1739.851,600.067,1739.851z"/>
							<path style="fill:#E6D0BE;" d="M576.268,1763.576c-0.244,0-0.489-0.089-0.682-0.269
								c-44.297-41.28-93.987-69.581-94.483-69.862c-0.48-0.271-0.65-0.882-0.378-1.362c0.271-0.48,0.884-0.649,1.362-0.378
								c0.499,0.282,50.394,28.699,94.862,70.14c0.404,0.376,0.427,1.009,0.05,1.413
								C576.802,1763.47,576.535,1763.576,576.268,1763.576z"/>
						</g>
						<g>
							<path style="fill:#D87355;" d="M697.346,1925.148l-353.935-49.13l50.1-131.413l144.468,20.513l91.484,43.875
								C676.756,1829.122,704.539,1876.662,697.346,1925.148L697.346,1925.148z"/>
							<path style="fill:#FFFFFF;" d="M558.741,1806.066c-0.233,0-0.467-0.081-0.656-0.246c-0.417-0.362-0.461-0.994-0.098-1.41
								l19.639-22.562c0.363-0.418,0.996-0.459,1.41-0.098c0.417,0.362,0.461,0.994,0.098,1.41l-19.639,22.562
								C559.298,1805.95,559.019,1806.066,558.741,1806.066z"/>
							<path style="fill:#FFFFFF;" d="M540.094,1797.709c-0.233,0-0.467-0.081-0.656-0.246c-0.417-0.362-0.461-0.994-0.098-1.41
								l19.639-22.561c0.363-0.418,0.995-0.458,1.41-0.098c0.417,0.362,0.461,0.994,0.098,1.41l-19.639,22.561
								C540.65,1797.593,540.372,1797.709,540.094,1797.709z"/>
							<path style="fill:#FFFFFF;" d="M521.446,1789.353c-0.233,0-0.467-0.081-0.656-0.246c-0.417-0.362-0.461-0.994-0.098-1.41
								l19.638-22.562c0.364-0.417,0.995-0.459,1.41-0.098c0.417,0.362,0.461,0.994,0.098,1.41l-19.638,22.562
								C522.003,1789.236,521.726,1789.353,521.446,1789.353z"/>
							<path style="fill:#FFFFFF;" d="M698.445,1908.679c-0.047,0-0.096-0.003-0.143-0.011l-349.391-50.465
								c-0.547-0.078-0.926-0.586-0.847-1.132c0.078-0.546,0.594-0.937,1.132-0.847l349.391,50.465
								c0.547,0.078,0.926,0.586,0.847,1.132C699.362,1908.319,698.935,1908.679,698.445,1908.679z"/>
						</g>
					</g>
				</g>
				<g>
					<path style="fill:#D87355;" d="M1073.182,663.173c24.266,12.741,3.429,10.892,3.429,10.892l13.802,33.588
						c-3.106,65.051,8.209,114.666-1.017,163.126c-10.116,53.135-25.961,71.214-39.568,95.104
						c-33.758,53.342-123.082,148.509-146.035,183.567c-53.503-40.668-281.509-219.682-281.509-219.682
						s63.897-138.504,168.999-225.872C875.758,633.675,995.038,622.142,1073.182,663.173z"/>
					<path style="fill:#84524D;" d="M979.215,926.355c23.14,225.407-34.26,215.397-71.258,206.521
						c-58.633-14.065-114.991-275.978-100.466-352.235c1.378-7.233,15.736-42.365,66.574-43.576
						C912.102,736.161,969.562,832.325,979.215,926.355z"/>
					<path style="fill:#84524D;" d="M977.415,695.405c0.503,37.525,11.931,82.051,61.713,171.514
						c6.502,11.684,38.415,52.148,42.406,39.385c26.64-85.201,27.544-156.873,1.21-224.591c-9.61-24.713-36.337-38.225-62.111-32
						c-17.05,4.118-21.545,5.197-27.37,10.123C982.871,668.623,977.233,681.797,977.415,695.405z"/>
					<g>
						<path style="fill:#84524D;" d="M956.375,1008.203c56.137-41.672,206.022-103.246,218.859-112.969
							c23.998-18.176,74.062-58.335,89.66-44.79c5.187,4.505,7.127,12.397,5.496,20.449c8.808-0.272,16.863,4.62,20.348,12.306
							c4.579,10.1-1.226,19.532-1.664,20.218c6.735-1.105,30.128,11.141,22.562,18.241c7.263-7.868,28.424,0.944,23.604,10.894
							c-3.631,7.494-26.027,31.626-32.076,38.734c-21.309,16.166-59.094,51.329-103.492,75.652
							c-123.72,67.78-263.874,99.255-284.451,89.572C894.735,1126.868,944.315,1056.204,956.375,1008.203z"/>
						<path style="fill:#363E44;" d="M1238.134,890.175c-0.325,0-0.644-0.158-0.836-0.45l-7.289-11.062
							c-0.304-0.461-0.177-1.081,0.285-1.385c0.46-0.303,1.082-0.175,1.385,0.285l7.289,11.062c0.304,0.461,0.177,1.081-0.285,1.385
							C1238.514,890.121,1238.322,890.175,1238.134,890.175z"/>
						<path style="fill:#363E44;" d="M1256.671,918.218c-0.325,0-0.644-0.158-0.836-0.45l-7.29-11.063
							c-0.304-0.461-0.177-1.081,0.285-1.385c0.462-0.303,1.081-0.175,1.385,0.285l7.29,11.063c0.304,0.461,0.177,1.081-0.285,1.385
							C1257.051,918.164,1256.859,918.218,1256.671,918.218z"/>
						<path style="fill:#363E44;" d="M1275.859,946.563c-0.325,0-0.644-0.158-0.836-0.449l-7.289-11.063
							c-0.304-0.461-0.177-1.081,0.285-1.385c0.462-0.303,1.081-0.176,1.385,0.285l7.289,11.061
							c0.304,0.462,0.177,1.082-0.284,1.386C1276.239,946.51,1276.048,946.563,1275.859,946.563z"/>
						<path style="fill:#363E44;" d="M1292.733,972.63c-0.325,0-0.644-0.158-0.836-0.45l-7.29-11.061
							c-0.304-0.461-0.177-1.081,0.285-1.385c0.463-0.303,1.081-0.176,1.385,0.285l7.29,11.061c0.304,0.461,0.177,1.081-0.285,1.385
							C1293.113,972.576,1292.922,972.63,1292.733,972.63z"/>
					</g>
					<path style="fill:#FFFFFF;" d="M834.587,1095.833c-0.214,0-0.431-0.068-0.613-0.211L621.671,930.556
						c-0.435-0.339-0.515-0.967-0.175-1.403c0.337-0.433,0.969-0.516,1.403-0.175l212.303,165.066
						c0.436,0.339,0.515,0.967,0.175,1.403C835.181,1095.7,834.885,1095.833,834.587,1095.833z"/>
				</g>
				<g>
					<path style="fill:#84524D;" d="M1128.886,730.493c-18.588-11.039-7.701-70.331-7.701-70.331l42.926-50.195
						c27.802-12.327,60.334,0.218,72.661,28.021l0,0c12.327,27.802-0.218,60.334-28.021,72.661
						C1208.751,710.649,1147.818,741.736,1128.886,730.493z"/>
					
						<rect x="1081.252" y="599.297" transform="matrix(0.4053 0.9142 -0.9142 0.4053 1274.7225 -621.7794)" style="fill:#84524D;" width="68.06" height="139.217"/>
					<path style="fill:#363E44;" d="M1118.381,705.754c-0.516,0-0.953-0.396-0.996-0.92c-1.637-20.261,2.771-44.608,2.816-44.853
						c0.1-0.543,0.612-0.905,1.164-0.803c0.543,0.1,0.902,0.621,0.803,1.164c-0.044,0.241-4.405,24.337-2.789,44.331
						c0.044,0.55-0.366,1.032-0.917,1.077C1118.435,705.753,1118.408,705.754,1118.381,705.754z"/>
					<path style="fill:#363E44;" d="M1238.639,679.712c8.456-1.696,35.664-1.26,29.251-21.576
						c-7.858-24.892-39.137-75.869-79.771-76.529c-32.221-0.523-64.504,20.338-77.364,52.066
						c7.868,4.152,11.069,5.912,20.784,10.985c7.44-19.115,21.513-25.556,28.212-23.139c5.705,2.059,9.814,8.197,8.729,20.98
						c-5.797,3.63-15.979,10.628-14.062,15.093c3.123,7.276,34.968-12.467,53.323-3.188
						C1227.236,664.261,1232.086,681.027,1238.639,679.712z"/>
					<path style="fill:#84524D;" d="M1194.631,714.913c0,0-8.089,19.603-12.107,20.532c-4.796,1.109-14.103-12.605-14.103-12.605
						S1194.755,715.284,1194.631,714.913z"/>
					<path style="fill:#363E44;" d="M1150.775,715.9c-0.337,0-0.666-0.171-0.854-0.479c-0.288-0.472-0.139-1.087,0.333-1.374
						c2.191-1.336,3.46-3.84,3.231-6.378c-0.238-2.635-2.02-4.902-4.538-5.776c-0.521-0.181-0.798-0.75-0.616-1.272
						c0.18-0.522,0.748-0.801,1.272-0.616c3.26,1.131,5.565,4.069,5.874,7.485c0.296,3.291-1.346,6.535-4.183,8.265
						C1151.133,715.854,1150.953,715.9,1150.775,715.9z"/>
					<g>
						<path style="fill:#FFFFFF;" d="M1190.311,681.463c-0.154,0.142-0.368,0.134-0.522,0.277c-0.007,0.006-0.01,0.013-0.016,0.019
							c-2.681,1.231-5.512,2.521-8.371,3.241c-1.266,0.318-2.299,0.059-3.526,0.224c-0.9,0.121-1.761,0.241-2.653,0.324
							c1.595-9.646,7.285-16.936,7.285-16.936S1187.412,673.878,1190.311,681.463z"/>
						<path style="fill:#363E44;" d="M1192.342,690.896c0.546,11.456-6.29,21.25-7.477,22.861c-0.16-0.017-0.319-0.037-0.478-0.059
							c-1.514-1.707-9.011-10.698-9.548-21.968c-0.101-2.113,0.065-4.162,0.386-6.122c0.58-0.555,1.191-1.086,1.866-1.563
							c3.99-2.821,8.801-3.595,13.213-2.565C1191.376,684.326,1192.18,687.503,1192.342,690.896z"/>
					</g>
					<path style="fill:#363E44;" d="M1142.859,643.221c-0.143,0-0.288-0.03-0.427-0.096c-0.499-0.236-0.712-0.833-0.477-1.332
						c4.039-8.538,10.487-12.077,14.14-10.457c3.355,1.484,3.815,7.032,3.876,8.696c0.021,0.553-0.41,1.017-0.962,1.036
						c-0.56,0.044-1.017-0.41-1.036-0.962c-0.1-2.698-0.862-6.135-2.688-6.942c-2.385-1.048-7.849,1.72-11.521,9.484
						C1143.594,643.01,1143.234,643.221,1142.859,643.221z"/>
					<path style="fill:#FFFFFF;" d="M1129.307,624.534c-0.385,0-0.751-0.223-0.916-0.597l-7.871-17.879
						c-0.223-0.506,0.007-1.096,0.512-1.318c0.51-0.223,1.097,0.008,1.318,0.512l7.871,17.879c0.223,0.506-0.007,1.096-0.512,1.318
						C1129.577,624.507,1129.44,624.534,1129.307,624.534z"/>
					<path style="fill:#FFFFFF;" d="M1143.104,613.106c-0.437,0-0.838-0.288-0.962-0.729l-6.077-21.582
						c-0.149-0.532,0.16-1.084,0.691-1.234c0.536-0.147,1.085,0.161,1.234,0.692l6.077,21.582c0.149,0.532-0.16,1.084-0.691,1.234
						C1143.285,613.094,1143.193,613.106,1143.104,613.106z"/>
					<path style="fill:#FFFFFF;" d="M1260.883,641.133c-0.007,0-0.014,0-0.021,0l-63.011-1.327c-0.552-0.012-0.99-0.469-0.979-1.022
						c0.012-0.545,0.457-0.978,1-0.978c0.007,0,0.014,0,0.021,0l63.011,1.327c0.552,0.012,0.99,0.469,0.979,1.021
						C1261.871,640.699,1261.426,641.133,1260.883,641.133z"/>
					<path style="fill:#FFFFFF;" d="M1193.356,618.629c-0.44,0-0.844-0.294-0.965-0.739c-0.144-0.533,0.172-1.082,0.705-1.227
						l45.71-12.328c0.537-0.143,1.081,0.172,1.227,0.705c0.144,0.533-0.172,1.082-0.705,1.227l-45.71,12.328
						C1193.53,618.618,1193.443,618.629,1193.356,618.629z"/>
					<path style="fill:#FFFFFF;" d="M1119.273,721.135c-0.083,0-0.167-0.01-0.251-0.031c-0.534-0.139-0.856-0.684-0.719-1.219
						c6.484-25.146,14.215-43.652,24.329-58.241c0.314-0.454,0.935-0.568,1.392-0.253c0.454,0.315,0.567,0.938,0.253,1.392
						c-9.976,14.39-17.613,32.692-24.036,57.603C1120.124,720.836,1119.719,721.135,1119.273,721.135z"/>
					
						<ellipse transform="matrix(0.5948 -0.8039 0.8039 0.5948 -39.2784 1192.6515)" style="fill:#D87355;" cx="1163.358" cy="635.286" rx="39.944" ry="39.944"/>
					<path style="fill:#FFFFFF;" d="M1180.833,641.224c-0.369,0-0.724-0.205-0.898-0.558l-13.657-27.714
						c-0.244-0.496-0.04-1.096,0.455-1.34c0.497-0.241,1.095-0.039,1.34,0.455l13.657,27.714c0.244,0.496,0.04,1.096-0.455,1.34
						C1181.132,641.19,1180.981,641.224,1180.833,641.224z"/>
					<path style="fill:#FFFFFF;" d="M1162.173,648.892c-0.381,0-0.745-0.218-0.912-0.588l-13.252-29.276
						c-0.228-0.503-0.004-1.096,0.499-1.323c0.504-0.229,1.096-0.005,1.323,0.499l13.252,29.276
						c0.228,0.503,0.004,1.096-0.499,1.323C1162.45,648.863,1162.311,648.892,1162.173,648.892z"/>
					<path style="fill:#FFFFFF;" d="M1143.166,651.468c-0.373,0-0.731-0.209-0.903-0.568l-8.651-18.081
						c-0.238-0.498-0.027-1.096,0.471-1.334c0.499-0.238,1.096-0.028,1.334,0.471l8.651,18.081c0.238,0.498,0.027,1.096-0.471,1.334
						C1143.457,651.437,1143.311,651.468,1143.166,651.468z"/>
				</g>
			</g>
			<path style="fill:#BC8271;" d="M1122.204,913.789c-21.737,16.948-26.113,28.455-10.894,39.944
				c35.697-8.452,73.836-48.417,79.888-77.467L1122.204,913.789z"/>
			<g>
				<path style="fill:#BC8271;" d="M1037.474,618.04c-16.51,2.857-31.18,6.784-43.234,12.232
					c-11.993,5.42-14.087,16.405-10.024,28.924c6.362,19.607,22.839,25.119,49.595,39.883c12.541,6.92,13.844-7.171,18.189-8.412
					c10.872-3.105,13.468-6.066,8.877-13.718c15.371-5.846,17.397-1.706,14.219-9.337c0.459-12.754,9.487-24.78,26.129-30.203
					L1037.474,618.04z"/>
				<path style="fill:#363E44;" d="M1049.149,692.097c-0.152,0-0.307-0.035-0.452-0.108l-12.888-6.555
					c-9.915-5.043-18.494-12.549-24.81-21.707l-6.629-9.612c-0.313-0.454-0.199-1.077,0.256-1.391
					c0.453-0.313,1.075-0.199,1.391,0.256l6.629,9.612c6.127,8.884,14.45,16.166,24.069,21.059l12.888,6.555
					c0.492,0.251,0.688,0.853,0.438,1.345C1049.865,691.898,1049.514,692.097,1049.149,692.097z"/>
				<path style="fill:#363E44;" d="M1042.233,670.607c-0.222,0-0.445-0.073-0.631-0.225c-4.921-4.01-9.243-8.692-12.848-13.919
					l-6.63-9.612c-0.313-0.454-0.199-1.077,0.256-1.391c0.451-0.314,1.075-0.199,1.391,0.256l6.63,9.612
					c3.496,5.07,7.69,9.613,12.465,13.503c0.428,0.349,0.492,0.979,0.144,1.407C1042.812,670.481,1042.524,670.607,1042.233,670.607
					z"/>
				<path style="fill:#363E44;" d="M1061.706,677.965c-0.283,0-0.573-0.006-0.868-0.017l-0.199-0.007l-0.181-0.083
					c-8.89-4.076-8.78-18.799-8.674-33.036c0.015-1.941,0.028-3.883,0.021-5.797c-0.002-0.553,0.444-1.002,0.996-1.004
					c0.001,0,0.003,0,0.004,0c0.551,0,0.998,0.445,1,0.996c0.007,1.922-0.007,3.87-0.021,5.819
					c-0.101,13.497-0.205,27.45,7.33,31.119c0.188,0.006,0.373,0.008,0.556,0.008c9.413,0,12.054-6.796,15.375-15.342
					c3.513-9.038,7.885-20.286,22.207-25.762c0.516-0.196,1.094,0.06,1.291,0.576s-0.061,1.095-0.576,1.291
					c-13.494,5.16-17.513,15.498-21.058,24.619C1075.45,670.247,1072.45,677.965,1061.706,677.965z"/>
			</g>
		</g>
		<g>
			<path style="fill:#D3BBA3;" d="M1987.15,1408.222c-0.079,0-0.16-0.009-0.24-0.029c-0.536-0.132-0.864-0.674-0.731-1.21
				c14.502-58.874,21.854-119.76,21.854-180.968c0-370.795-265.096-683.685-630.34-743.982c-0.545-0.09-0.913-0.604-0.823-1.149
				c0.088-0.544,0.597-0.924,1.149-0.823c174.681,28.837,334.657,119.195,450.462,254.43
				c57.415,67.048,102.236,142.734,133.22,224.956c32.071,85.107,48.332,174.794,48.332,266.569
				c0,61.369-7.372,122.416-21.913,181.446C1988.008,1407.917,1987.6,1408.222,1987.15,1408.222z"/>
			<path style="fill:#D3BBA3;" d="M2067.274,1241.847c-0.021,0-0.042-0.001-0.063-0.002c-0.552-0.034-0.97-0.51-0.936-1.061
				c0.996-15.861,1.501-31.997,1.501-47.96c0-247.611-121.752-479.636-325.687-620.664c-0.455-0.314-0.568-0.937-0.254-1.391
				c0.313-0.456,0.937-0.569,1.391-0.254c98.648,68.219,180.691,160.046,237.26,265.556
				c28.805,53.726,51.015,110.871,66.011,169.848c15.447,60.746,23.279,123.63,23.279,186.905c0,16.004-0.506,32.183-1.505,48.085
				C2068.238,1241.439,2067.798,1241.847,2067.274,1241.847z"/>
			<path style="fill:#D3BBA3;" d="M521.331,1410.591c-0.448,0-0.856-0.303-0.969-0.758c-14.931-59.774-22.501-121.62-22.501-183.818
				c0-91.411,16.136-180.764,47.958-265.576c30.745-81.939,75.236-157.427,132.239-224.364
				c114.898-134.924,273.833-225.589,447.525-255.293c0.557-0.091,1.062,0.272,1.154,0.816c0.094,0.545-0.272,1.062-0.816,1.154
				c-362.765,62.04-626.061,374.627-626.061,743.263c0,62.035,7.55,123.718,22.441,183.334c0.135,0.536-0.191,1.078-0.728,1.213
				C521.493,1410.581,521.411,1410.591,521.331,1410.591z"/>
			<path style="fill:#D3BBA3;" d="M553.178,803.102c-0.169,0-0.34-0.043-0.497-0.133c-0.479-0.275-0.645-0.886-0.369-1.365
				c45.477-79.26,104.331-149.03,174.93-207.373c71.204-58.844,151.457-103.642,238.528-133.149
				c0.524-0.177,1.092,0.104,1.269,0.626c0.177,0.523-0.104,1.091-0.626,1.269C792.3,521.979,645.852,642.594,554.046,802.6
				C553.861,802.921,553.524,803.102,553.178,803.102z"/>
		</g>
		<g>
			<path style="fill:#FFFFFF;" d="M1341.166,483.114l-0.18-0.036c-27.38-5.553-48.8-26.916-54.427-54.281v0l-0.036,0.18
				c-5.553,27.38-26.916,48.8-54.281,54.427h0l0.18,0.036c27.38,5.553,48.8,26.916,54.427,54.281l0,0l0.036-0.18
				C1292.438,510.16,1313.801,488.741,1341.166,483.114L1341.166,483.114z"/>
			<path style="fill:#FFFFFF;" d="M1233.099,432.22l-0.209-0.042c-31.829-6.456-56.73-31.29-63.271-63.101l0,0l-0.042,0.209
				c-6.456,31.829-31.29,56.73-63.101,63.271l0,0l0.209,0.042c31.829,6.456,56.73,31.289,63.271,63.101v0l0.042-0.209
				C1176.453,463.662,1201.287,438.761,1233.099,432.22L1233.099,432.22z"/>
		</g>
	</g>
</g>
</svg>
