<?xml version="1.0" encoding="utf-8"?>
<!-- Generator: Adobe Illustrator 27.5.0, SVG Export Plug-In . SVG Version: 6.00 Build 0)  -->
<svg version="1.1" xmlns="http://www.w3.org/2000/svg" xmlns:xlink="http://www.w3.org/1999/xlink" x="0px" y="0px"
	 viewBox="0 0 2500 2500" style="enable-background:new 0 0 2500 2500;" xml:space="preserve">
-
<g id="Illustration">
	<g id="Smartcards_for_schools_1_">
		<circle style="fill:transparent;" cx="1250" cy="1250" r="915"/>
		<g>
			<g>
				<path style="fill:#E6D0BE;" d="M805.45,1935.152c-0.527,0-1.057-0.189-1.479-0.571
					c-151.742-137.51-241.613-301.261-290.286-414.415c-52.741-122.609-69.834-213.954-70-214.86
					c-0.22-1.199,0.573-2.347,1.771-2.567c1.203-0.228,2.347,0.573,2.565,1.77c0.167,0.904,17.196,91.857,69.765,214.035
					c48.498,112.717,138.031,275.826,289.145,412.769c0.902,0.818,0.971,2.213,0.154,3.116
					C806.649,1934.909,806.051,1935.152,805.45,1935.152z"/>
				<path style="fill:#E6D0BE;" d="M460.314,1363.905c0,0-58.952-32.871-40.492-163.886
					C419.822,1200.02,516.549,1287.19,460.314,1363.905z"/>
				<path style="fill:#E6D0BE;" d="M467.755,1412.847c1.564-0.527-33.884-57.251-131.325-57.879
					C336.43,1354.968,409.494,1432.461,467.755,1412.847z"/>
				<path style="fill:#E6D0BE;" d="M488.609,1479.914c0,0-43.297-38.239-146.191-12.133
					C342.419,1467.78,455.476,1517.681,488.609,1479.914z"/>
				<path style="fill:#E6D0BE;" d="M522.509,1553.802c1.013-1.302-59.857-29.033-141.454,24.229
					C381.055,1578.032,484.755,1602.318,522.509,1553.802z"/>
				<path style="fill:#E6D0BE;" d="M563.509,1632.441c0,0-48.72-17.347-125.831,38.295
					C437.679,1670.736,548.383,1674.671,563.509,1632.441z"/>
				<path style="fill:#E6D0BE;" d="M592.318,1687.099c0,0-5.209,48.425-86.043,85.153
					C506.275,1772.251,549.106,1679.26,592.318,1687.099z"/>
				<path style="fill:#E6D0BE;" d="M480.701,1411.82c-1.403,0.415-4.594-58.812,65.789-108.934
					C546.491,1302.886,532.974,1396.356,480.701,1411.82z"/>
				<path style="fill:#E6D0BE;" d="M506.275,1474.437c0,0,13.45-56.178,112.652-93.959
					C618.927,1380.477,555.097,1486.296,506.275,1474.437z"/>
				<path style="fill:#E6D0BE;" d="M543.197,1551.179c-1.577-0.483,32.292-58.164,129.678-61.482
					C672.875,1489.697,601.978,1569.177,543.197,1551.179z"/>
				<path style="fill:#E6D0BE;" d="M576.112,1630.251c0,0,18.862-48.153,111.441-69.862
					C687.553,1560.389,617.91,1646.534,576.112,1630.251z"/>
				<path style="fill:#E6D0BE;" d="M608.19,1680.407c0,0,46.24,21.827,111.459-41.749
					C719.649,1638.658,617.981,1630.958,608.19,1680.407z"/>
			</g>
			<g>
				<path style="fill:#E6D0BE;" d="M1150.642,1593.726c-0.601,0-1.199-0.243-1.635-0.724c-0.817-0.902-0.748-2.297,0.154-3.116
					c91.365-82.795,145.505-181.42,174.834-249.573c31.801-73.896,42.105-128.909,42.206-129.456c0.22-1.195,1.369-2.002,2.565-1.77
					c1.198,0.22,1.991,1.367,1.771,2.567c-0.1,0.549-10.468,55.954-42.44,130.28c-29.505,68.593-83.984,167.855-175.976,251.22
					C1151.699,1593.537,1151.17,1593.726,1150.642,1593.726z"/>
				<path style="fill:#E6D0BE;" d="M1359.614,1246.979c0,0,35.694-19.903,24.517-99.229
					C1384.13,1147.75,1325.564,1200.53,1359.614,1246.979z"/>
				<path style="fill:#E6D0BE;" d="M1355.108,1276.613c-0.947-0.319,20.516-34.664,79.515-35.045
					C1434.622,1241.568,1390.384,1288.488,1355.108,1276.613z"/>
				<path style="fill:#E6D0BE;" d="M1342.481,1317.22c0,0,26.215-23.153,88.515-7.346
					C1430.996,1309.873,1362.543,1340.087,1342.481,1317.22z"/>
				<path style="fill:#E6D0BE;" d="M1321.956,1361.958c-0.614-0.788,36.242-17.579,85.647,14.67
					C1407.603,1376.628,1344.815,1391.333,1321.956,1361.958z"/>
				<path style="fill:#E6D0BE;" d="M1305.491,1395.769c0,0,31.212-2.508,67.587,42.122
					C1373.078,1437.891,1307.717,1422.838,1305.491,1395.769z"/>
				<path style="fill:#E6D0BE;" d="M1347.27,1275.991c0.849,0.251,2.781-35.61-39.834-65.957
					C1307.436,1210.033,1315.62,1266.627,1347.27,1275.991z"/>
				<path style="fill:#E6D0BE;" d="M1331.785,1313.904c0,0-8.144-34.014-68.208-56.89
					C1263.577,1257.013,1302.224,1321.084,1331.785,1313.904z"/>
				<path style="fill:#E6D0BE;" d="M1309.429,1360.37c0.955-0.292-19.552-35.217-78.517-37.226
					C1230.912,1323.144,1273.839,1371.267,1309.429,1360.37z"/>
				<path style="fill:#E6D0BE;" d="M1294.938,1393.389c0,0-24.099-19.993-79.517-4.381
					C1215.421,1389.008,1277.557,1414.26,1294.938,1393.389z"/>
			</g>
		</g>
		<g>
			<g>
				<rect x="513.246" y="695.442" style="fill:#D3BBA3;" width="940.089" height="431.778"/>
				<rect x="513.182" y="915.161" style="fill:#F2E6DC;" width="940.268" height="12.487"/>
				<rect x="512.451" y="675.524" style="fill:#FFFFFF;" width="941.514" height="43.02"/>
				<path style="fill:#F2E6DC;" d="M1452.078,700.458H514.509c-1.218,0-2.205-0.986-2.205-2.205c0-1.219,0.987-2.205,2.205-2.205
					h937.569c1.218,0,2.205,0.986,2.205,2.205C1454.283,699.472,1453.296,700.458,1452.078,700.458z"/>
				<rect x="775.393" y="604.405" style="fill:#E6D0BE;" width="418.085" height="522.815"/>
				<polygon style="fill:#D3BBA3;" points="1225.728,614.992 743.142,614.992 984.435,485.986 				"/>
				<path style="fill:#F2E6DC;" d="M1151.287,597.299H817.583c-1.011,0-1.893-0.689-2.139-1.669
					c-0.245-0.982,0.208-2.005,1.099-2.48l166.851-89.207c0.65-0.349,1.43-0.349,2.08,0l166.852,89.207
					c0.891,0.476,1.345,1.498,1.099,2.48C1153.18,596.609,1152.298,597.299,1151.287,597.299z M826.383,592.889h316.104
					l-158.053-84.502L826.383,592.889z"/>
				<path style="fill:#F7F1EB;" d="M1151.51,1117.789H814.826c-1.218,0-2.205-0.986-2.205-2.205s0.987-2.205,2.205-2.205h336.684
					c1.218,0,2.205,0.986,2.205,2.205S1152.727,1117.789,1151.51,1117.789z"/>
				<path style="fill:#F7F1EB;" d="M1151.51,1102.469H814.826c-1.218,0-2.205-0.986-2.205-2.205s0.987-2.205,2.205-2.205h336.684
					c1.218,0,2.205,0.986,2.205,2.205S1152.727,1102.469,1151.51,1102.469z"/>
				<path style="fill:#F7F1EB;" d="M1151.51,1087.15H814.826c-1.218,0-2.205-0.986-2.205-2.205c0-1.219,0.987-2.205,2.205-2.205
					h336.684c1.218,0,2.205,0.986,2.205,2.205C1153.715,1086.163,1152.727,1087.15,1151.51,1087.15z"/>
				<rect x="871.945" y="943.532" style="fill:#D3BBA3;" width="216.522" height="138.964"/>
				<rect x="994.476" y="943.327" style="fill:#FFFFFF;" width="85.652" height="131.388"/>
				<rect x="773.732" y="837.31" style="fill:#F2E6DC;" width="424.803" height="32.332"/>
				<g>
					<rect x="832.16" y="648.162" style="fill:#D3BBA3;" width="26.391" height="70.772"/>
					<rect x="832.16" y="740.006" style="fill:#D3BBA3;" width="26.391" height="70.772"/>
					<rect x="887.554" y="648.162" style="fill:#D3BBA3;" width="26.392" height="70.772"/>
					<rect x="887.554" y="740.006" style="fill:#D3BBA3;" width="26.392" height="70.772"/>
					<rect x="942.948" y="648.162" style="fill:#D3BBA3;" width="26.391" height="70.772"/>
					<rect x="942.948" y="740.006" style="fill:#D3BBA3;" width="26.391" height="70.772"/>
					<rect x="998.343" y="648.162" style="fill:#D3BBA3;" width="26.391" height="70.772"/>
					<rect x="998.343" y="740.006" style="fill:#D3BBA3;" width="26.391" height="70.772"/>
					<rect x="1053.737" y="648.162" style="fill:#D3BBA3;" width="26.391" height="70.772"/>
					<rect x="1053.737" y="740.006" style="fill:#D3BBA3;" width="26.391" height="70.772"/>
					<rect x="1109.131" y="648.162" style="fill:#D3BBA3;" width="26.391" height="70.772"/>
					<rect x="1109.131" y="740.006" style="fill:#D3BBA3;" width="26.391" height="70.772"/>
				</g>
				<path style="fill:#E6D0BE;" d="M1197.549,855.682H775.392c-1.218,0-2.205-0.986-2.205-2.205c0-1.219,0.987-2.205,2.205-2.205
					h422.157c1.218,0,2.205,0.986,2.205,2.205C1199.754,854.696,1198.767,855.682,1197.549,855.682z"/>
				<g>
					<rect x="538.745" y="737.7" style="fill:#E6D0BE;" width="34.72" height="70.772"/>
					<rect x="538.745" y="829.545" style="fill:#E6D0BE;" width="34.72" height="70.772"/>
					<rect x="599.346" y="737.7" style="fill:#E6D0BE;" width="34.72" height="70.772"/>
					<rect x="599.346" y="829.545" style="fill:#E6D0BE;" width="34.72" height="70.772"/>
					<rect x="659.946" y="737.7" style="fill:#E6D0BE;" width="34.72" height="70.772"/>
					<rect x="659.946" y="829.545" style="fill:#E6D0BE;" width="34.72" height="70.772"/>
					<rect x="720.547" y="737.7" style="fill:#E6D0BE;" width="34.72" height="70.772"/>
					<rect x="720.547" y="829.545" style="fill:#E6D0BE;" width="34.72" height="70.772"/>
				</g>
				<g>
					<rect x="538.745" y="944.508" style="fill:#E6D0BE;" width="34.72" height="70.772"/>
					<rect x="538.745" y="1036.352" style="fill:#E6D0BE;" width="34.72" height="70.772"/>
					<rect x="599.346" y="944.508" style="fill:#E6D0BE;" width="34.72" height="70.772"/>
					<rect x="599.346" y="1036.352" style="fill:#E6D0BE;" width="34.72" height="70.772"/>
					<rect x="659.946" y="944.508" style="fill:#E6D0BE;" width="34.72" height="70.772"/>
					<rect x="659.946" y="1036.352" style="fill:#E6D0BE;" width="34.72" height="70.772"/>
					<rect x="720.547" y="944.508" style="fill:#E6D0BE;" width="34.72" height="70.772"/>
					<rect x="720.547" y="1036.352" style="fill:#E6D0BE;" width="34.72" height="70.772"/>
				</g>
				<g>
					<rect x="1211.376" y="737.7" style="fill:#E6D0BE;" width="34.72" height="70.772"/>
					<rect x="1211.376" y="829.545" style="fill:#E6D0BE;" width="34.72" height="70.772"/>
					<rect x="1271.976" y="737.7" style="fill:#E6D0BE;" width="34.72" height="70.772"/>
					<rect x="1271.976" y="829.545" style="fill:#E6D0BE;" width="34.72" height="70.772"/>
					<rect x="1332.577" y="737.7" style="fill:#E6D0BE;" width="34.72" height="70.772"/>
					<rect x="1332.577" y="829.545" style="fill:#E6D0BE;" width="34.72" height="70.772"/>
					<rect x="1393.178" y="737.7" style="fill:#E6D0BE;" width="34.72" height="70.772"/>
					<rect x="1393.178" y="829.545" style="fill:#E6D0BE;" width="34.72" height="70.772"/>
				</g>
				<g>
					<rect x="1211.376" y="944.508" style="fill:#E6D0BE;" width="34.72" height="70.772"/>
					<rect x="1211.376" y="1036.352" style="fill:#E6D0BE;" width="34.72" height="70.772"/>
					<rect x="1271.976" y="944.508" style="fill:#E6D0BE;" width="34.72" height="70.772"/>
					<rect x="1271.976" y="1036.352" style="fill:#E6D0BE;" width="34.72" height="70.772"/>
					<rect x="1332.577" y="944.508" style="fill:#E6D0BE;" width="34.72" height="70.772"/>
					<rect x="1332.577" y="1036.352" style="fill:#E6D0BE;" width="34.72" height="70.772"/>
					<rect x="1393.178" y="944.508" style="fill:#E6D0BE;" width="34.72" height="70.772"/>
					<rect x="1393.178" y="1036.352" style="fill:#E6D0BE;" width="34.72" height="70.772"/>
				</g>
				<rect x="865.359" y="933.827" style="fill:#D3BBA3;" width="229.693" height="10.394"/>
			</g>
			<path style="fill:#D3BBA3;" d="M1450.509,1129.424H349.396c-1.218,0-2.205-0.986-2.205-2.205s0.987-2.205,2.205-2.205h1101.114
				c1.218,0,2.205,0.986,2.205,2.205S1451.727,1129.424,1450.509,1129.424z"/>
		</g>
		<g>
			<g>
				<path style="fill:#BC8271;" d="M1023.26,1169.389c32.378,34.603,131.645,129.165,93.652,167.667
					c-31.426,31.847-124.257-64.229-158.531-96.658C980.008,1216.729,1001.634,1193.059,1023.26,1169.389z"/>
				<g>
					<path style="fill:#363E44;" d="M941.446,1433.046H747.954c-25.472,0-46.194-20.722-46.194-46.193v-142.93h285.879v142.93
						C987.639,1412.324,966.918,1433.046,941.446,1433.046z M706.17,1248.332v138.521c0,23.041,18.744,41.784,41.784,41.784h193.492
						c23.04,0,41.784-18.743,41.784-41.784v-138.521H706.17z"/>
					<path style="fill:#363E44;" d="M987.639,1191.37H701.76v-76.85c0-25.472,20.722-46.193,46.194-46.193h193.492
						c25.472,0,46.193,20.722,46.193,46.193V1191.37z M706.17,1186.961h277.06v-72.44c0-23.039-18.744-41.784-41.784-41.784H747.954
						c-23.04,0-41.784,18.745-41.784,41.784V1186.961z"/>
				</g>
				<path style="fill:#BC8271;" d="M652.154,1164.977c-31.456,35.661-129.562,131.554-81.215,181.935
					c39.99,41.672,130.632-56.917,164.537-89.769C707.702,1226.42,679.928,1195.698,652.154,1164.977z"/>
				<path style="fill:#EFBC73;" d="M1075.103,1201.563c0,0-78.764-98.308-230.643-102.053
					c-143.841-3.547-232.191,92.729-232.191,92.729l88.35,83.336l25.801-8.869v136.9h246.564v-132.853l20.214,10.452
					L1075.103,1201.563z"/>
				<g>
					<g>
						<path style="fill:#363E44;" d="M975.866,1322.221c-0.636,0-1.267-0.273-1.703-0.803c-19.009-23.077-29.479-52.625-29.479-83.2
							l-0.222-120.46c-0.002-1.219,0.983-2.207,2.201-2.209c0.001,0,0.003,0,0.004,0c1.215,0,2.203,0.984,2.205,2.2l0.222,120.464
							c0,29.558,10.112,58.109,28.473,80.401c0.774,0.939,0.639,2.33-0.3,3.103C976.857,1322.055,976.359,1322.221,975.866,1322.221
							z"/>
						<path style="fill:#363E44;" d="M973.358,1367.581c-0.583,0-1.167-0.23-1.601-0.689l-9.965-10.516
							c-28.387-29.959-44.021-69.783-44.021-112.134v-133.023c0-1.219,0.987-2.205,2.205-2.205c1.218,0,2.205,0.986,2.205,2.205
							v133.023c0,41.218,15.204,79.964,42.813,109.102l9.965,10.516c0.838,0.883,0.8,2.278-0.084,3.116
							C974.448,1367.381,973.902,1367.581,973.358,1367.581z"/>
					</g>
					<g>
						<path style="fill:#363E44;" d="M728.039,1306.697c-0.383,0-0.771-0.099-1.125-0.31c-1.047-0.622-1.39-1.974-0.768-3.021
							c11.618-19.542,17.76-42.07,17.76-65.148v-124.432c0-1.219,0.987-2.205,2.205-2.205c1.218,0,2.205,0.986,2.205,2.205v124.432
							c0,23.872-6.356,47.178-18.38,67.4C729.524,1306.312,728.792,1306.697,728.039,1306.697z"/>
						<path style="fill:#363E44;" d="M728.542,1358.693c-0.545,0-1.09-0.2-1.517-0.605c-0.884-0.838-0.922-2.233-0.084-3.116
							c27.476-28.996,43.88-70.391,43.88-110.73v-136.651c0-1.219,0.987-2.205,2.205-2.205c1.218,0,2.205,0.986,2.205,2.205v136.651
							c0,41.439-16.856,83.968-45.088,113.761C729.709,1358.463,729.125,1358.693,728.542,1358.693z"/>
					</g>
				</g>
				<g>
					<path style="fill:#BC8271;" d="M1081.563,1266.706c-36.601,7.964-123.722,22.451-132.17,24.203
						c-15.792,3.277-100.088,23.061-98.552,35.534c0.734,5.96,17.146,2.883,22.664,1.681c-3.978,3.168-20.572,13.678-18.045,19.917
						c2.969,7.33,24.661-2.166,25.092-2.102c-4.366,2.807-22.21,13.285-20.497,18.036c2.229,6.182,21.753,1.413,27.531-0.285
						c-0.374,0.967-18.759,8.444-16.415,15.928c1.721,5.494,19.626,1.091,27.399-0.796c14.033-2.9,179.071-27.801,209.152-36.345
						C1119.498,1339.134,1099.523,1275.87,1081.563,1266.706z"/>
					<path style="fill:#363E44;" d="M1002.336,1283.408c-1.045,0-1.973-0.745-2.167-1.811c-0.219-1.197,0.576-2.345,1.774-2.562
						c18.663-3.4,67.343-12.861,79.177-15.298c1.185-0.241,2.358,0.521,2.604,1.714c0.245,1.193-0.522,2.36-1.715,2.605
						c-11.85,2.442-60.592,11.913-79.277,15.315C1002.599,1283.398,1002.466,1283.408,1002.336,1283.408z"/>
					<g>
						<path style="fill:#363E44;" d="M873.191,1329.783c-0.739,0-1.461-0.37-1.878-1.047c-0.641-1.036-0.32-2.394,0.716-3.034
							c2.964-1.83,6.072-3.469,9.24-4.868c5.703-2.517,11.734-4.332,17.925-5.394c1.208-0.204,2.342,0.601,2.546,1.8
							c0.206,1.199-0.601,2.34-1.801,2.545c-5.835,1.001-11.517,2.711-16.889,5.083c-2.983,1.318-5.91,2.859-8.703,4.584
							C873.987,1329.677,873.586,1329.783,873.191,1329.783z"/>
						<path style="fill:#363E44;" d="M880.154,1347.805c-0.823,0-1.612-0.463-1.991-1.253c-0.525-1.1-0.06-2.416,1.039-2.941
							c0.66-0.314,1.335-0.627,2.028-0.93c5.699-2.517,11.73-4.332,17.922-5.394c1.209-0.198,2.34,0.601,2.546,1.8
							c0.206,1.199-0.601,2.34-1.801,2.545c-5.835,1.001-11.517,2.711-16.889,5.083c-0.651,0.286-1.285,0.577-1.904,0.874
							C880.797,1347.736,880.474,1347.805,880.154,1347.805z"/>
						<path style="fill:#363E44;" d="M887.933,1365.646c-0.916,0-1.772-0.575-2.085-1.49c-0.395-1.152,0.219-2.405,1.37-2.801
							c3.855-1.322,7.858-2.343,11.896-3.032c1.216-0.2,2.339,0.601,2.545,1.8c0.205,1.201-0.602,2.34-1.802,2.545
							c-3.806,0.652-7.577,1.613-11.209,2.859C888.411,1365.607,888.17,1365.646,887.933,1365.646z"/>
					</g>
				</g>
				<g>
					<path style="fill:#BC8271;" d="M581.315,1275.966c32.948-17.817,108.463-63.615,116.013-67.792
						c14.113-7.808,90.938-47.748,97.902-37.287c3.328,4.999-11.125,13.362-16.093,16.047c5.082-0.19,24.517-3.036,26.667,3.344
						c2.526,7.495-20.115,14.431-20.399,14.761c5.141-0.717,25.503-4.401,27.301,0.319c2.339,6.141-15.576,15.25-21.066,17.728
						c0.914,0.489,19.731-5.823,22.831,1.38c2.276,5.288-14.173,13.62-21.298,17.255c-12.533,6.948-153.927,95.634-182.309,108.761
						C599.754,1355.62,573.668,1294.622,581.315,1275.966z"/>
					<path style="fill:#363E44;" d="M580.789,1277.558c-0.775,0-1.527-0.409-1.93-1.135c-0.591-1.064-0.207-2.407,0.858-2.997
						c10.565-5.867,53.65-30.422,70.018-40.008c1.051-0.616,2.401-0.263,3.017,0.79c0.616,1.051,0.263,2.401-0.788,3.016
						c-16.388,9.594-59.527,34.181-70.106,40.055C581.518,1277.47,581.151,1277.558,580.789,1277.558z"/>
					<g>
						<path style="fill:#363E44;" d="M752.524,1198.155c-0.749,0-1.479-0.381-1.893-1.07c-0.626-1.044-0.288-2.399,0.756-3.025
							c5.386-3.232,11.143-5.785,17.112-7.592c3.307-1.003,6.733-1.787,10.18-2.332c1.198-0.177,2.332,0.633,2.521,1.837
							c0.189,1.201-0.632,2.332-1.835,2.521c-3.247,0.51-6.473,1.249-9.589,2.194c-5.623,1.701-11.047,4.108-16.121,7.153
							C753.301,1198.054,752.909,1198.155,752.524,1198.155z"/>
						<path style="fill:#363E44;" d="M766.794,1214.695c-0.749,0-1.479-0.381-1.893-1.07c-0.627-1.044-0.289-2.399,0.756-3.025
							c5.384-3.23,11.141-5.786,17.111-7.594c0.727-0.218,1.439-0.424,2.142-0.614c1.176-0.323,2.387,0.377,2.704,1.55
							c0.318,1.176-0.377,2.388-1.552,2.704c-0.664,0.181-1.338,0.375-2.02,0.581c-5.62,1.701-11.043,4.108-16.116,7.153
							C767.571,1214.594,767.18,1214.695,766.794,1214.695z"/>
						<path style="fill:#363E44;" d="M780.535,1230.622c-0.749,0-1.48-0.381-1.894-1.07c-0.625-1.046-0.286-2.399,0.758-3.025
							c3.519-2.11,7.221-3.945,10.999-5.452c1.134-0.454,2.414,0.101,2.865,1.232c0.451,1.13-0.1,2.414-1.231,2.864
							c-3.561,1.421-7.048,3.15-10.366,5.137C781.311,1230.521,780.92,1230.622,780.535,1230.622z"/>
					</g>
				</g>
			</g>
			<g>
				<ellipse style="fill:#363E44;" cx="844.7" cy="936.463" rx="96.931" ry="88.953"/>
				
					<rect x="806.26" y="1013.8" transform="matrix(-1 -1.224647e-16 1.224647e-16 -1 1686.4497 2140.4055)" style="fill:#BC8271;" width="73.929" height="112.806"/>
				<ellipse style="fill:#BC8271;" cx="843.225" cy="970.651" rx="77.492" ry="90.7"/>
				<path style="fill:#363E44;" d="M813.174,897.939l-10.688,32.369h-36.163c0.106-42.485,34.575-76.894,77.084-76.894
					c42.511,0,76.98,34.409,77.086,76.894h-97.802L813.174,897.939z"/>
				<g>
					
						<ellipse transform="matrix(0.4151 -0.9098 0.9098 0.4151 -347.9325 1413.614)" style="fill:#BC8271;" cx="925.433" cy="977.402" rx="30.527" ry="20.547"/>
					<path style="fill:#363E44;" d="M930.554,991.558c-0.623,0-1.243-0.263-1.68-0.775c-0.79-0.928-0.678-2.319,0.249-3.109
						c2.083-1.774,3.858-4.188,5.134-6.98c3.225-7.073,2.231-14.747-2.174-16.756c-1.879-0.857-3.836-0.45-5.148,0.043
						c-1.139,0.424-2.41-0.151-2.839-1.29c-0.429-1.141,0.149-2.411,1.289-2.84c3.007-1.126,5.956-1.1,8.53,0.075
						c6.805,3.105,8.717,13.031,4.354,22.597c-1.542,3.376-3.715,6.319-6.286,8.509C931.568,991.386,931.06,991.558,930.554,991.558
						z"/>
				</g>
				<path style="fill:#363E44;" d="M843.074,1064.856c-13.237,0-26.41-3.71-38.096-10.729c-1.043-0.627-1.381-1.983-0.755-3.025
					c0.629-1.044,1.981-1.382,3.026-0.756c11.155,6.703,23.209,10.1,35.824,10.1c12.686,0,24.799-3.434,36.001-10.206
					c1.042-0.631,2.398-0.295,3.028,0.745c0.63,1.042,0.295,2.399-0.746,3.027C869.623,1061.107,856.386,1064.856,843.074,1064.856z
					"/>
				<g>
					
						<ellipse transform="matrix(0.9098 -0.4151 0.4151 0.9098 -337.1827 403.5226)" style="fill:#BC8271;" cx="759.655" cy="977.402" rx="20.547" ry="30.527"/>
					<path style="fill:#363E44;" d="M755.586,991.558c-0.506,0-1.014-0.172-1.429-0.525c-2.571-2.192-4.745-5.133-6.285-8.509
						c-4.365-9.566-2.453-19.492,4.354-22.599c2.575-1.174,5.525-1.199,8.529-0.073c1.14,0.428,1.717,1.699,1.289,2.84
						c-0.426,1.139-1.7,1.714-2.839,1.29c-1.312-0.495-3.27-0.902-5.148-0.043c-4.404,2.009-5.399,9.683-2.172,16.756
						c1.275,2.793,3.05,5.206,5.133,6.98c0.927,0.79,1.039,2.181,0.249,3.109C756.83,991.296,756.21,991.558,755.586,991.558z"/>
				</g>
				<path style="fill:#363E44;" d="M770.919,1006.023c-0.928,0-1.791-0.59-2.095-1.518c-3.567-10.888-5.374-22.373-5.374-34.136
					c0-5.008,0.335-10.038,0.996-14.951c0.164-1.208,1.269-2.056,2.479-1.891c1.207,0.164,2.054,1.272,1.892,2.48
					c-0.635,4.715-0.957,9.549-0.957,14.362c0,11.295,1.734,22.317,5.155,32.762c0.379,1.158-0.252,2.403-1.409,2.782
					C771.378,1005.989,771.146,1006.023,770.919,1006.023z"/>
				<path style="fill:#363E44;" d="M915.497,1005.646c-0.229,0-0.463-0.037-0.693-0.112c-1.156-0.383-1.783-1.63-1.4-2.786
					c3.389-10.225,5.107-21.023,5.107-32.097c0-5.499-0.432-11.003-1.284-16.36c-0.19-1.204,0.629-2.332,1.831-2.523
					c1.219-0.198,2.333,0.629,2.525,1.83c0.888,5.585,1.338,11.323,1.338,17.053c0,11.545-1.794,22.81-5.331,33.484
					C917.283,1005.061,916.422,1005.646,915.497,1005.646z"/>
				<g>
					<path style="fill:#FFFFFF;" d="M859.759,976.129c0,0,15.922,8.724,29.71,3.634c13.789-5.09,20.223-22.067,20.223-22.067
						s-5.462-2.987-12.781-4.44c-5.151-1.023-12.015,12.267-12.015,12.267s-15.912-4.333-19.223,0.151
						C861.643,971.13,859.759,976.129,859.759,976.129z"/>
					<path style="fill:#363E44;" d="M866.534,968.968c-0.404-1.1-0.689-2.213-0.864-3.329c3.314-4.509,8.053-9.267,14.311-11.578
						c5.71-2.107,11.772-1.834,16.932-0.805c0.787,1.151,1.462,2.402,1.968,3.77c3.299,8.932-1.27,18.847-10.201,22.143
						C879.745,982.469,869.832,977.9,866.534,968.968z"/>
				</g>
				<path style="fill:#363E44;" d="M841.678,1005.438c-0.405,0-0.813-0.11-1.18-0.345c-3.315-2.104-5.351-4.666-6.051-7.611
					c-0.774-3.262,0.353-5.82,1.546-8.526c0.816-1.852,1.66-3.766,2.154-6.3c0.628-3.217,0.504-6.649-0.369-10.206
					c-0.291-1.182,0.433-2.377,1.616-2.666c1.176-0.301,2.377,0.433,2.667,1.615c1.026,4.181,1.166,8.253,0.414,12.101
					c-0.589,3.019-1.619,5.357-2.446,7.234c-1.133,2.569-1.704,3.99-1.291,5.727c0.425,1.791,1.813,3.443,4.124,4.911
					c1.028,0.652,1.332,2.015,0.679,3.042C843.122,1005.076,842.408,1005.438,841.678,1005.438z"/>
				<path style="fill:#363E44;" d="M850.978,1021.72c-2.884,0-5.715-0.786-7.941-2.381c-0.989-0.708-1.218-2.086-0.508-3.075
					c0.709-0.99,2.084-1.223,3.077-0.508c3.224,2.31,8.597,2.048,11.981-0.594c1.753-1.367,2.802-3.264,2.88-5.202
					c0.047-1.219,1.032-2.226,2.29-2.117c1.216,0.047,2.164,1.072,2.115,2.289c-0.127,3.241-1.795,6.341-4.574,8.509
					C857.68,1020.682,854.294,1021.72,850.978,1021.72z"/>
				<ellipse style="fill:#BC8271;" cx="843.987" cy="1123.75" rx="59.88" ry="27.787"/>
				<g>
					<path style="fill:#FFFFFF;" d="M828.722,975.803c0,0-15.807,8.931-29.66,4.021c-13.854-4.91-20.508-21.802-20.508-21.802
						s4.125-2.331,10.007-3.956c5.633-1.557,14.355,11.077,14.355,11.077s14.829-5.644,18.05-1.883
						C826.18,969.349,828.722,975.803,828.722,975.803z"/>
					<path style="fill:#363E44;" d="M787.553,956.193c0.259-0.732,0.577-1.423,0.921-2.096c5.645-1.573,12.923-2.51,19.739-0.095
						c5.3,1.879,9.538,5.512,12.761,9.281c-0.116,1.478-0.404,2.965-0.923,4.429c-3.181,8.974-13.034,13.671-22.009,10.49
						C789.069,975.02,784.372,965.167,787.553,956.193z"/>
				</g>
				<path style="fill:#363E44;" d="M941.879,898.366c-0.894,0-1.733-0.547-2.065-1.432c-10.264-27.446-32.406-46.256-57.786-49.085
					c-16.848-1.882-30.927,3.792-39.764,8.88c-1.057,0.612-2.405,0.246-3.011-0.81c-0.607-1.055-0.244-2.403,0.811-3.01
					c9.409-5.417,24.417-11.455,42.454-9.444c27.04,3.017,50.578,22.912,61.427,51.923c0.426,1.141-0.152,2.411-1.293,2.838
					C942.396,898.321,942.136,898.366,941.879,898.366z"/>
				<path style="fill:#363E44;" d="M885.406,881.178c-0.765,0-1.509-0.398-1.916-1.111c-5.063-8.854-14.351-20.851-29.847-27.735
					c-23.336-10.363-51.946-5.301-74.66,13.216c-0.942,0.771-2.333,0.629-3.102-0.317c-0.77-0.943-0.629-2.332,0.315-3.103
					c24.009-19.57,54.368-24.873,79.236-13.828c16.589,7.368,26.495,20.151,31.886,29.578c0.604,1.057,0.238,2.403-0.819,3.008
					C886.153,881.085,885.777,881.178,885.406,881.178z"/>
			</g>
			<g>
				<g>
					<polygon style="fill:#BC8271;" points="733.344,1907.301 823.464,1907.301 838.238,1538.629 723.999,1538.629 					"/>
					<g>
						<path style="fill:#ff6900;" d="M645.672,1964.171h179.64v-82.188h-97.469c-45.381,0-82.17,36.789-82.17,82.171V1964.171z"/>
						<g>
							<path style="fill:#363E44;" d="M729.173,1900.56c-0.564,0-1.128-0.215-1.559-0.646l-15.851-15.849
								c-0.861-0.861-0.861-2.256,0-3.118c0.861-0.861,2.256-0.861,3.118,0l15.852,15.849c0.861,0.861,0.861,2.256,0,3.118
								C730.301,1900.344,729.737,1900.56,729.173,1900.56z"/>
							<path style="fill:#363E44;" d="M711.153,1905.966c-0.564,0-1.128-0.215-1.559-0.646l-15.85-15.851
								c-0.861-0.861-0.861-2.256,0-3.118c0.861-0.861,2.257-0.861,3.118,0l15.85,15.852c0.861,0.861,0.861,2.256,0,3.118
								C712.281,1905.751,711.717,1905.966,711.153,1905.966z"/>
						</g>
					</g>
				</g>
				<g>
					<polygon style="fill:#BC8271;" points="943.292,1907.756 1031.829,1890.948 986.543,1725.595 972.251,1527.002 
						858.111,1547.296 888.544,1738.232 					"/>
					<g>
						<path style="fill:#ff6900;" d="M887.774,2003.084l168.728-61.653l-28.207-77.196l-91.566,33.458
							c-42.616,15.572-64.539,62.742-48.967,105.357L887.774,2003.084z"/>
						<g>
							<path style="fill:#363E44;" d="M943.614,1914.814c-0.311,0-0.628-0.065-0.928-0.204l-20.328-9.448
								c-1.105-0.515-1.584-1.826-1.07-2.93c0.513-1.105,1.823-1.587,2.928-1.07l20.328,9.448c1.104,0.515,1.584,1.826,1.07,2.93
								C945.241,1914.342,944.445,1914.814,943.614,1914.814z"/>
							<path style="fill:#363E44;" d="M928.544,1926.075c-0.311,0-0.628-0.065-0.928-0.205l-20.328-9.448
								c-1.105-0.515-1.584-1.826-1.07-2.93c0.512-1.105,1.826-1.587,2.928-1.07l20.328,9.448c1.105,0.515,1.584,1.826,1.07,2.93
								C930.171,1925.603,929.375,1926.075,928.544,1926.075z"/>
						</g>
					</g>
				</g>
				<g>
					<polygon style="fill:#363E44;" points="721.247,1866.074 833.555,1869.961 850.094,1550.915 879.94,1733.139 923.287,1882.505 
						1036.784,1852.653 998.623,1717.379 972.985,1403.605 726.421,1403.605 					"/>
				</g>
			</g>
		</g>
		<g>
			<g>
				<g>
					<path style="fill:#40484C;" d="M2006.943,1459.948c0,29.729-24.1,53.828-53.828,53.828h-438.303
						c-29.729,0-53.828-24.1-53.828-53.828V553.589c0-29.728,24.1-53.828,53.828-53.828h438.303c29.729,0,53.828,24.1,53.828,53.828
						V1459.948z"/>
					<rect x="1496.759" y="562.836" style="fill:#FFFFFF;" width="476.668" height="899.266"/>
				</g>
			</g>
			<g>
				<g>
					<g>
						<path style="fill:#9E9569;" d="M1956.375,1109.525l-168.648,0c-3.425,0-6.689-1.447-8.987-3.985l-237.103-261.747
							c-4.112-4.539-4.193-11.433-0.189-16.069l81.874-94.783c2.304-2.666,5.653-4.199,9.177-4.199h107.636
							c6.697,0,12.126,5.43,12.126,12.127c0,6.696-5.429,12.127-12.126,12.127l-102.086,0l-71.235,82.465l226.291,249.812l163.271,0
							c6.697,0,12.126,5.43,12.126,12.126S1963.073,1109.525,1956.375,1109.525z"/>
					</g>
					<path style="fill:#ff6900;" d="M1536.343,1157.357h-18.011c-1.218,0-2.205-0.986-2.205-2.205c0-1.219,0.987-2.205,2.205-2.205
						h15.806v-60.049c0-1.219,0.987-2.205,2.205-2.205h110.084V944.967c0-1.219,0.987-2.205,2.205-2.205h154.824l33.252-36.709
						V817.86c0-1.219,0.987-2.205,2.205-2.205h117.463c1.218,0,2.205,0.986,2.205,2.205c0,1.219-0.987,2.205-2.205,2.205h-115.258
						v86.838c0,0.547-0.203,1.074-0.57,1.479l-34.479,38.063c-0.418,0.463-1.012,0.726-1.634,0.726h-153.597v145.727
						c0,1.219-0.987,2.205-2.205,2.205h-110.084v60.049C1538.548,1156.371,1537.561,1157.357,1536.343,1157.357z"/>
					<path style="fill:#ff6900;" d="M1937.68,818.523c-0.602,0-1.2-0.243-1.635-0.726l-48.81-53.882h-90.342
						c-1.218,0-2.205-0.986-2.205-2.205v-51.094c0-1.219,0.987-2.205,2.205-2.205c1.218,0,2.205,0.986,2.205,2.205v48.889h89.114
						c0.622,0,1.217,0.263,1.634,0.726l49.466,54.608c0.817,0.902,0.748,2.295-0.154,3.113
						C1938.737,818.334,1938.207,818.523,1937.68,818.523z"/>
					<path style="fill:#ff6900;" d="M1752.918,1195c-0.591,0-1.181-0.237-1.615-0.704l-58.797-63.261
						c-0.398-0.428-0.61-0.997-0.589-1.583c0.021-0.583,0.276-1.137,0.704-1.535l38.683-35.897l-35.101-37.818h-49.061
						c-0.622,0-1.216-0.263-1.634-0.726l-128.812-142.2c-0.367-0.405-0.571-0.932-0.571-1.479v-56.331
						c0-1.219,0.987-2.205,2.205-2.205c1.218,0,2.205,0.986,2.205,2.205v55.48l127.585,140.846h49.044
						c0.614,0,1.199,0.256,1.616,0.704l35.755,38.524l137.227-127.346v-84.819h-131.63c-1.218,0-2.205-0.986-2.205-2.205v-122.34
						c0-1.219,0.987-2.205,2.205-2.205c1.218,0,2.205,0.986,2.205,2.205v120.135h131.63c1.218,0,2.205,0.986,2.205,2.205v87.986
						c0,0.614-0.255,1.199-0.705,1.617l-137.932,127.998l57.538,61.993c0.399,0.431,0.611,1.003,0.587,1.591
						c-0.024,0.588-0.281,1.141-0.715,1.537l-40.54,37.049C1753.983,1194.809,1753.45,1195,1752.918,1195z M1697.238,1129.65
						l55.807,60.042l37.286-34.076l-56.027-60.366L1697.238,1129.65z"/>
				</g>
				<g>
					<path style="fill:#9E9569;" d="M2162.503,790.756h-106.552c-0.585,0-1.146-0.233-1.559-0.646l-151.87-151.87h-629.827
						c-1.218,0-2.205-0.986-2.205-2.205s0.987-2.205,2.205-2.205h630.74c0.585,0,1.145,0.233,1.559,0.646l151.87,151.87h105.639
						c1.218,0,2.205,0.986,2.205,2.205C2164.708,789.77,2163.721,790.756,2162.503,790.756z"/>
					<g>
						<path style="fill:#EFBC73;" d="M2124.947,787.081c0,10.668-8.648,19.316-19.316,19.316s-19.316-8.648-19.316-19.316
							c0-10.668,8.648-19.316,19.316-19.316S2124.947,776.413,2124.947,787.081z"/>
						<g>
							<path style="fill:#EFBC73;" d="M2105.631,591.818c-32.308,0-58.499,26.191-58.499,58.499
								c0,32.308,58.499,103.604,58.499,103.604s58.499-71.296,58.499-103.604C2164.13,618.009,2137.939,591.818,2105.631,591.818z"
								/>
							<circle style="fill:#FFFFFF;" cx="2105.631" cy="650.317" r="40.027"/>
						</g>
					</g>
					<g>
						<path style="fill:#D87355;" d="M1313.645,635.219c0,14.091-11.423,25.515-25.515,25.515
							c-14.092,0-25.515-11.424-25.515-25.515c0-14.092,11.423-25.515,25.515-25.515
							C1302.222,609.703,1313.645,621.127,1313.645,635.219z"/>
						<g>
							<path style="fill:#D87355;" d="M1288.13,377.286c-42.677,0-77.274,34.597-77.274,77.274
								c0,42.677,77.274,136.856,77.274,136.856s77.274-94.178,77.274-136.856C1365.404,411.883,1330.807,377.286,1288.13,377.286z"
								/>
							
								<ellipse transform="matrix(0.9936 -0.1132 0.1132 0.9936 -43.1628 148.679)" style="fill:#FFFFFF;" cx="1288.13" cy="454.56" rx="52.874" ry="52.874"/>
						</g>
					</g>
				</g>
				<g>
					<path style="fill:#ff6900;" d="M1671.225,1461.65c-0.564,0-1.128-0.215-1.559-0.646c-0.861-0.861-0.861-2.257,0-3.118
						l276.797-276.8V1045.34c0-1.219,0.987-2.205,2.205-2.205c1.218,0,2.205,0.986,2.205,2.205V1182
						c0,0.586-0.233,1.145-0.646,1.559l-277.443,277.446C1672.353,1461.435,1671.789,1461.65,1671.225,1461.65z"/>
					<g>
						<path style="fill:#D87355;" d="M2103.513,1279.399h-477.239c-1.218,0-2.205-0.986-2.205-2.205
							c0-1.219,0.987-2.205,2.205-2.205H2102.6l57.054-57.054c0.861-0.861,2.256-0.861,3.118,0c0.861,0.861,0.861,2.257,0,3.118
							l-57.7,57.7C2104.658,1279.167,2104.097,1279.399,2103.513,1279.399z"/>
						<g>
							
								<ellipse transform="matrix(0.7071 -0.7071 0.7071 0.7071 -360.6963 1683.5914)" style="fill:#F2E6DC;" cx="1851.927" cy="1277.195" rx="24.802" ry="24.802"/>
							<path style="fill:#D87355;" d="M1851.926,1304.201c-14.891,0-27.007-12.116-27.007-27.007
								c0-14.891,12.116-27.007,27.007-27.007c14.891,0,27.007,12.116,27.007,27.007
								C1878.933,1292.086,1866.818,1304.201,1851.926,1304.201z M1851.926,1254.597c-12.46,0-22.597,10.137-22.597,22.597
								c0,12.46,10.137,22.597,22.597,22.597c12.46,0,22.597-10.137,22.597-22.597
								C1874.524,1264.734,1864.387,1254.597,1851.926,1254.597z"/>
						</g>
					</g>
				</g>
			</g>
		</g>
		<g>
			<path style="fill:#D87355;" d="M1127.356,1917.47l739.94-0.155c22.336-0.005,40.439-18.907,40.435-42.219l-0.081-423.571
				c-0.004-23.312-18.115-42.207-40.451-42.202l-739.94,0.155c-22.336,0.005-40.439,18.907-40.435,42.219l0.081,423.571
				C1086.91,1898.58,1105.021,1917.475,1127.356,1917.47z"/>
			<g>
				<g>
					<g>
						<rect x="1143.429" y="1739.518" style="fill:#E2A18D;" width="388.187" height="31.311"/>
						<rect x="1143.428" y="1811.124" style="fill:#E2A18D;" width="298.696" height="31.311"/>
						<rect x="1588.423" y="1811.106" style="fill:#E2A18D;" width="244.426" height="31.311"/>
					</g>
					<g>
						<rect x="1414.794" y="1493.359" style="fill:#E2A18D;" width="253.682" height="31.311"/>
						<rect x="1386.933" y="1563.58" style="fill:#E2A18D;" width="308.382" height="31.311"/>
						<rect x="1387.135" y="1628.118" style="fill:#E2A18D;" width="307.978" height="31.311"/>
					</g>
				</g>
				<g>
					<defs>
						<path id="SVGID_1_" d="M1321.859,1676.975l-147.375,0.047c-16.066,0.005-29.093-13.015-29.098-29.08l-0.043-148.866
							c-0.005-16.065,13.015-29.092,29.08-29.097l147.375-0.047c16.066-0.005,29.093,13.015,29.098,29.08l0.043,148.866
							C1350.943,1663.943,1337.924,1676.97,1321.859,1676.975z"/>
					</defs>
					<clipPath id="SVGID_00000025404424539180605210000002565425557463238564_">
						<use xlink:href="#SVGID_1_"  style="overflow:visible;"/>
					</clipPath>
					<path style="clip-path:url(#SVGID_00000025404424539180605210000002565425557463238564_);fill:#FFFFFF;" d="M1321.859,1676.975
						l-147.375,0.047c-16.066,0.005-29.093-13.015-29.098-29.08l-0.043-148.866c-0.005-16.065,13.015-29.092,29.08-29.097
						l147.375-0.047c16.066-0.005,29.093,13.015,29.098,29.08l0.043,148.866C1350.943,1663.943,1337.924,1676.97,1321.859,1676.975z
						"/>
					<g style="clip-path:url(#SVGID_00000025404424539180605210000002565425557463238564_);">
						<g>
							<path style="fill:#EFBC73;" d="M1378.965,1683.534c0,0-44.527-55.575-130.387-57.692
								c-81.316-2.005-131.262,52.421-131.262,52.421l49.946,47.111l14.586-5.014v77.392h139.387v-75.104l11.427,5.908
								L1378.965,1683.534z"/>
						</g>
						<g>
							<ellipse style="fill:#363E44;" cx="1248.713" cy="1533.668" rx="54.797" ry="50.287"/>
							
								<rect x="1226.983" y="1577.388" transform="matrix(-1 -1.224647e-16 1.224647e-16 -1 2495.759 3218.5476)" style="fill:#BC8271;" width="41.793" height="63.771"/>
							<ellipse style="fill:#BC8271;" cx="1247.88" cy="1552.995" rx="43.807" ry="51.274"/>
							<path style="fill:#363E44;" d="M1230.891,1511.89l-6.042,18.299h-20.444c0.06-24.017,19.546-43.47,43.577-43.47
								c24.032,0,43.518,19.452,43.578,43.47h-55.289L1230.891,1511.89z"/>
							<g>
								
									<ellipse transform="matrix(0.4151 -0.9098 0.9098 0.4151 -659.2868 2088.1345)" style="fill:#BC8271;" cx="1294.354" cy="1556.812" rx="17.257" ry="11.616"/>
								<path style="fill:#363E44;" d="M1297.249,1565.774c-0.623,0-1.242-0.263-1.678-0.773c-0.79-0.928-0.68-2.319,0.246-3.109
									c1.075-0.917,1.992-2.168,2.652-3.617c0.845-1.852,1.174-3.858,0.9-5.508c-0.13-0.784-0.518-2.177-1.653-2.694
									c-0.758-0.351-1.604-0.168-2.177,0.049c-1.139,0.424-2.411-0.148-2.839-1.292c-0.427-1.139,0.151-2.409,1.291-2.838
									c1.944-0.728,3.864-0.706,5.557,0.069c2.184,0.995,3.704,3.178,4.171,5.984c0.419,2.53-0.021,5.391-1.238,8.059
									c-0.925,2.03-2.24,3.809-3.802,5.142C1298.264,1565.602,1297.755,1565.774,1297.249,1565.774z"/>
							</g>
							<path style="fill:#363E44;" d="M1247.794,1607.209c-7.658,0-15.276-2.145-22.03-6.201c-1.043-0.627-1.381-1.981-0.755-3.025
								c0.627-1.044,1.979-1.382,3.026-0.756c6.155,3.697,12.803,5.572,19.758,5.572c6.995,0,13.676-1.895,19.857-5.63
								c1.041-0.631,2.396-0.295,3.027,0.745c0.63,1.042,0.295,2.399-0.747,3.027
								C1263.149,1605.043,1255.495,1607.209,1247.794,1607.209z"/>
							<g>
								<path style="fill:#BC8271;" d="M1211.203,1551.99c3.956,8.671,2.432,17.859-3.404,20.522s-13.775-2.208-17.731-10.879
									c-3.956-8.671-2.432-17.859,3.404-20.522C1199.309,1538.449,1207.247,1543.319,1211.203,1551.99z"/>
								<path style="fill:#363E44;" d="M1198.335,1565.774c-0.506,0-1.015-0.174-1.431-0.527c-1.56-1.333-2.874-3.111-3.801-5.142
									c-1.218-2.668-1.657-5.529-1.237-8.059c0.465-2.806,1.986-4.989,4.173-5.986c1.689-0.769,3.61-0.795,5.555-0.067
									c1.14,0.428,1.718,1.699,1.291,2.838c-0.426,1.143-1.699,1.716-2.839,1.292c-0.574-0.215-1.416-0.398-2.175-0.052
									c-1.137,0.519-1.524,1.912-1.655,2.696c-0.273,1.649,0.054,3.656,0.898,5.508c0.662,1.449,1.579,2.7,2.654,3.617
									c0.926,0.792,1.036,2.183,0.244,3.109C1199.577,1565.511,1198.958,1565.774,1198.335,1565.774z"/>
							</g>
							<path style="fill:#363E44;" d="M1207.004,1573.952c-0.928,0-1.791-0.59-2.095-1.518c-2.048-6.253-3.086-12.846-3.086-19.598
								c0-2.874,0.192-5.76,0.571-8.578c0.161-1.21,1.265-2.063,2.479-1.893c1.207,0.161,2.053,1.272,1.892,2.478
								c-0.353,2.627-0.532,5.314-0.532,7.993c0,6.285,0.965,12.417,2.866,18.224c0.379,1.158-0.252,2.403-1.409,2.782
								C1207.463,1573.917,1207.231,1573.952,1207.004,1573.952z"/>
							<path style="fill:#363E44;" d="M1288.736,1573.738c-0.229,0-0.463-0.037-0.693-0.112c-1.156-0.383-1.783-1.63-1.4-2.786
								c1.884-5.684,2.839-11.687,2.839-17.845c0-3.053-0.24-6.115-0.715-9.097c-0.191-1.203,0.629-2.334,1.832-2.523
								c1.199-0.189,2.332,0.629,2.523,1.83c0.51,3.213,0.769,6.505,0.769,9.79c0,6.63-1.03,13.1-3.063,19.232
								C1290.522,1573.153,1289.661,1573.738,1288.736,1573.738z"/>
							<g>
								<path style="fill:#FFFFFF;" d="M1257.226,1556.092c0,0,9.001,4.932,16.796,2.054c7.795-2.878,11.432-12.475,11.432-12.475
									s-3.088-1.688-7.225-2.51c-2.912-0.578-6.792,6.935-6.792,6.935s-8.995-2.45-10.867,0.085
									C1258.292,1553.266,1257.226,1556.092,1257.226,1556.092z"/>
								<path style="fill:#363E44;" d="M1261.056,1552.044c-0.229-0.622-0.39-1.251-0.488-1.882c1.873-2.549,4.552-5.239,8.09-6.545
									c3.228-1.191,6.655-1.037,9.572-0.455c0.445,0.651,0.827,1.358,1.112,2.131c1.865,5.049-0.718,10.654-5.767,12.518
									C1268.525,1559.676,1262.921,1557.094,1261.056,1552.044z"/>
							</g>
							<path style="fill:#363E44;" d="M1247.004,1573.62c-0.405,0-0.815-0.112-1.182-0.344c-2.092-1.331-3.383-2.978-3.837-4.892
								c-0.512-2.155,0.221-3.82,0.929-5.428c0.44-0.997,0.895-2.028,1.154-3.357c0.328-1.682,0.26-3.486-0.199-5.359
								c-0.291-1.182,0.433-2.377,1.616-2.666c1.18-0.302,2.375,0.433,2.667,1.615c0.614,2.5,0.696,4.939,0.244,7.254
								c-0.353,1.811-0.959,3.187-1.446,4.291c-0.571,1.294-0.838,1.946-0.675,2.631c0.181,0.76,0.825,1.496,1.915,2.19
								c1.027,0.654,1.329,2.017,0.676,3.044C1248.445,1573.258,1247.733,1573.62,1247.004,1573.62z"/>
							<path style="fill:#363E44;" d="M1252.271,1582.842c-1.821,0-3.614-0.51-5.056-1.544c-0.989-0.708-1.218-2.086-0.508-3.075
								c0.708-0.99,2.085-1.221,3.077-0.508c1.474,1.055,4.051,0.913,5.625-0.312c0.77-0.601,1.228-1.41,1.261-2.224
								c0.047-1.217,1.085-2.222,2.289-2.117c1.216,0.047,2.165,1.072,2.116,2.289c-0.082,2.114-1.16,4.13-2.954,5.529
								C1256.452,1582.181,1254.343,1582.842,1252.271,1582.842z"/>
							<ellipse style="fill:#BC8271;" cx="1248.311" cy="1639.545" rx="33.851" ry="15.709"/>
							<g>
								<path style="fill:#FFFFFF;" d="M1239.681,1555.908c0,0-8.936,5.049-16.767,2.273c-7.832-2.776-11.594-12.325-11.594-12.325
									s2.332-1.318,5.657-2.236c3.184-0.88,8.115,6.262,8.115,6.262s8.383-3.191,10.204-1.064
									C1238.244,1552.26,1239.681,1555.908,1239.681,1555.908z"/>
								<path style="fill:#363E44;" d="M1216.407,1544.822c0.147-0.414,0.326-0.804,0.521-1.185
									c3.191-0.889,7.306-1.419,11.159-0.053c2.996,1.062,5.392,3.116,7.214,5.247c-0.066,0.835-0.229,1.676-0.522,2.504
									c-1.798,5.073-7.369,7.728-12.442,5.93C1217.264,1555.466,1214.609,1549.895,1216.407,1544.822z"/>
							</g>
						</g>
					</g>
				</g>
				<g>
					<path style="fill:#FFFFFF;" d="M1842.075,1607.54h-90.674c-12.097,0-21.995-9.898-21.995-21.995v-89.82
						c0-12.097,9.898-21.995,21.995-21.995h90.674c12.097,0,21.995,9.898,21.995,21.995v89.82
						C1864.071,1597.642,1854.173,1607.54,1842.075,1607.54z"/>
					<path style="fill:#E2A18D;" d="M1833.889,1602.069h-74.3c-11.238,0-20.381-9.142-20.381-20.382v-82.108
						c0-11.237,9.142-20.38,20.381-20.38h74.3c11.238,0,20.38,9.142,20.38,20.38v82.108
						C1854.269,1592.927,1845.127,1602.069,1833.889,1602.069z M1759.589,1483.61c-8.806,0-15.971,7.164-15.971,15.97v82.108
						c0,8.806,7.165,15.972,15.971,15.972h74.3c8.806,0,15.971-7.166,15.971-15.972v-82.108c0-8.806-7.165-15.97-15.971-15.97
						H1759.589z"/>
					<path style="fill:#E2A18D;" d="M1804.351,1588.888h-15.224c-11.238,0-20.381-9.142-20.381-20.382v-55.743
						c0-11.24,9.142-20.382,20.381-20.382h15.224c11.238,0,20.38,9.142,20.38,20.382v55.743
						C1824.731,1579.746,1815.589,1588.888,1804.351,1588.888z M1789.127,1496.792c-8.806,0-15.971,7.166-15.971,15.972v55.743
						c0,8.806,7.165,15.972,15.971,15.972h15.224c8.806,0,15.971-7.166,15.971-15.972v-55.743c0-8.806-7.165-15.972-15.971-15.972
						H1789.127z"/>
					<g>
						<path style="fill:#E2A18D;" d="M1852.059,1518.394h-29.533c-1.218,0-2.205-0.986-2.205-2.205s0.987-2.205,2.205-2.205h29.533
							c1.218,0,2.205,0.986,2.205,2.205S1853.276,1518.394,1852.059,1518.394z"/>
						<path style="fill:#E2A18D;" d="M1852.059,1568.909h-29.06c-1.218,0-2.205-0.986-2.205-2.205s0.987-2.205,2.205-2.205h29.06
							c1.218,0,2.205,0.986,2.205,2.205S1853.276,1568.909,1852.059,1568.909z"/>
						<path style="fill:#E2A18D;" d="M1852.059,1543.652h-29.06c-1.218,0-2.205-0.986-2.205-2.205c0-1.219,0.987-2.205,2.205-2.205
							h29.06c1.218,0,2.205,0.986,2.205,2.205C1854.264,1542.666,1853.276,1543.652,1852.059,1543.652z"/>
					</g>
					<g>
						<path style="fill:#E2A18D;" d="M1770.951,1518.394h-29.543c-1.218,0-2.205-0.986-2.205-2.205s0.987-2.205,2.205-2.205h29.543
							c1.218,0,2.205,0.986,2.205,2.205S1772.169,1518.394,1770.951,1518.394z"/>
						<path style="fill:#E2A18D;" d="M1770.951,1568.909h-29.069c-1.218,0-2.205-0.986-2.205-2.205s0.987-2.205,2.205-2.205h29.069
							c1.218,0,2.205,0.986,2.205,2.205S1772.169,1568.909,1770.951,1568.909z"/>
						<path style="fill:#E2A18D;" d="M1770.951,1543.652h-29.069c-1.218,0-2.205-0.986-2.205-2.205c0-1.219,0.987-2.205,2.205-2.205
							h29.069c1.218,0,2.205,0.986,2.205,2.205C1773.156,1542.666,1772.169,1543.652,1770.951,1543.652z"/>
					</g>
				</g>
			</g>
		</g>
	</g>
</g>
</svg>
