<?xml version="1.0" encoding="utf-8"?>
<!-- Generator: Adobe Illustrator 27.5.0, SVG Export Plug-In . SVG Version: 6.00 Build 0)  -->
<svg version="1.1" xmlns="http://www.w3.org/2000/svg" xmlns:xlink="http://www.w3.org/1999/xlink" x="0px" y="0px"
	 viewBox="0 0 2500 2500" style="enable-background:new 0 0 2500 2500;" xml:space="preserve">
-
<g id="Illustration">
	<g id="Summer_camp_for_kids_1_">
		<circle style="fill:transparent;" cx="1250" cy="1250" r="915"/>
		<g>
			<rect x="416.461" y="430.268" style="fill:#D3BBA3;" width="925.041" height="58.306"/>
			<path style="fill:#D3BBA3;" d="M1342.503,1088.29H415.461V429.269h927.042V1088.29z M417.461,1086.29h923.042V431.269H417.461
				V1086.29z"/>
			<path style="fill:#FFFFFF;" d="M468.492,459.828c0,7.324-5.937,13.262-13.261,13.262c-7.324,0-13.261-5.937-13.261-13.262
				c0-7.324,5.937-13.261,13.261-13.261C462.555,446.567,468.492,452.504,468.492,459.828z"/>
			<path style="fill:#FFFFFF;" d="M511.34,459.828c0,7.324-5.937,13.262-13.262,13.262c-7.324,0-13.261-5.937-13.261-13.262
				c0-7.324,5.937-13.261,13.261-13.261C505.402,446.567,511.34,452.504,511.34,459.828z"/>
			<path style="fill:#FFFFFF;" d="M554.188,459.828c0,7.324-5.937,13.262-13.261,13.262c-7.324,0-13.262-5.937-13.262-13.262
				c0-7.324,5.937-13.261,13.262-13.261C548.25,446.567,554.188,452.504,554.188,459.828z"/>
		</g>
		<g>
			<g>
				<path style="fill:#D3BBA3;" d="M1923.777,946.292c-0.413,0-0.799-0.257-0.943-0.669c-0.184-0.521,0.091-1.092,0.612-1.274
					c154.875-54.331,236.674-224.532,182.344-379.407c-54.331-154.873-224.533-236.671-379.407-182.344
					c-154.874,54.331-236.673,224.532-182.344,379.407c1.426,4.062,2.949,8.124,4.527,12.075c0.205,0.513-0.045,1.095-0.558,1.3
					c-0.511,0.206-1.094-0.045-1.3-0.558c-1.589-3.978-3.122-8.067-4.557-12.155c-26.495-75.528-21.992-156.854,12.679-228.996
					c34.672-72.143,95.361-126.465,170.89-152.96c75.527-26.493,156.856-21.992,228.996,12.679
					c72.143,34.672,126.465,95.361,152.96,170.89c26.496,75.528,21.993,156.854-12.678,228.996
					c-34.672,72.143-95.362,126.465-170.891,152.96C1923.999,946.274,1923.887,946.292,1923.777,946.292z"/>
				<path style="fill:#D3BBA3;" d="M1970.782,944.705c-0.361,0-0.711-0.196-0.889-0.539c-0.254-0.49-0.063-1.094,0.427-1.349
					c138.073-71.65,203.301-236.553,151.725-383.578c-57.475-163.838-237.532-250.368-401.364-192.896
					c-79.366,27.842-143.14,84.924-179.573,160.731c-36.433,75.808-41.164,161.266-13.322,240.632
					c3.802,10.84,8.227,21.563,13.151,31.87c0.238,0.498,0.027,1.095-0.472,1.333c-0.497,0.237-1.095,0.026-1.333-0.472
					c-4.955-10.372-9.408-21.162-13.233-32.069c-28.02-79.87-23.258-165.871,13.407-242.16
					c36.664-76.289,100.843-133.733,180.713-161.752c79.869-28.021,165.87-23.258,242.16,13.407
					c76.289,36.664,133.734,100.843,161.753,180.713c25.414,72.445,23.692,151.541-4.848,222.715
					c-28.271,70.503-80.775,128.498-147.842,163.301C1971.095,944.669,1970.938,944.705,1970.782,944.705z"/>
				<g>
					
						<ellipse transform="matrix(0.1598 -0.9871 0.9871 0.1598 611.0797 2202.9426)" style="fill:#FFFFFF;" cx="1599.673" cy="742.489" rx="24.089" ry="24.089"/>
					
						<ellipse transform="matrix(0.9357 -0.3529 0.3529 0.9357 -74.356 761.0353)" style="fill:#E6D0BE;" cx="2050.156" cy="584.458" rx="24.089" ry="24.089"/>
				</g>
				<g>
					
						<ellipse transform="matrix(0.7797 -0.6262 0.6262 0.7797 -137.0172 1388.0121)" style="fill:#FFFFFF;" cx="1903.93" cy="888.715" rx="24.089" ry="24.089"/>
					<path style="fill:#E6D0BE;" d="M1737.926,415.501c12.554-4.404,26.301,2.203,30.705,14.757
						c4.404,12.554-2.203,26.301-14.757,30.705c-12.554,4.404-26.301-2.203-30.705-14.757
						C1718.765,433.652,1725.372,419.905,1737.926,415.501z"/>
				</g>
			</g>
			<g>
				<g>
					<polygon style="fill:#E6D0BE;" points="1874.495,670.235 1786.846,630.996 1940.873,404.452 					"/>
					<polygon style="fill:#E6D0BE;" points="1862.983,695.95 1775.334,656.711 1708.957,922.494 					"/>
				</g>
			</g>
			<g>
				<g>
					<polygon style="fill:#D87355;" points="1859.405,627.219 1815.478,712.615 2077.277,793.287 					"/>
					<polygon style="fill:#FFFFFF;" points="1834.351,614.331 1790.424,699.728 1572.552,533.66 					"/>
				</g>
				<path style="fill:#F2E6DC;" d="M1849.494,615.69c-26.39-13.575-58.788-3.186-72.363,23.204
					c-13.575,26.39-3.186,58.788,23.204,72.363c26.39,13.575,58.788,3.186,72.363-23.204
					C1886.273,661.663,1875.884,629.265,1849.494,615.69z"/>
				<path style="fill:#FFFFFF;" d="M1824.868,705.652c-6.617,0-13.184-1.575-19.237-4.689
					c-10.015-5.151-17.423-13.894-20.861-24.616c-3.438-10.724-2.495-22.144,2.655-32.157c5.151-10.014,13.894-17.423,24.617-20.861
					c10.722-3.439,22.141-2.494,32.156,2.655l0,0c10.015,5.151,17.423,13.895,20.861,24.617c3.438,10.724,2.496,22.143-2.655,32.156
					c-5.151,10.015-13.894,17.423-24.616,20.861C1833.547,704.979,1829.197,705.652,1824.868,705.652z M1824.959,623.295
					c-4.124,0-8.267,0.643-12.307,1.938c-10.215,3.275-18.542,10.333-23.448,19.871c-4.907,9.539-5.806,20.418-2.53,30.632
					c3.275,10.215,10.333,18.542,19.871,23.448c9.538,4.906,20.415,5.807,30.632,2.53c10.215-3.275,18.542-10.333,23.448-19.871
					c4.907-9.539,5.806-20.417,2.53-30.632c-3.275-10.214-10.333-18.542-19.871-23.448
					C1837.518,624.796,1831.262,623.295,1824.959,623.295z"/>
			</g>
		</g>
		<g>
			<polygon style="fill:#F7F1EB;" points="1098.817,766.196 1124.906,633.259 996.734,677.135 			"/>
			<polygon style="fill:#E6D0BE;" points="1302.659,677.608 1308.717,542.271 1188.482,604.693 			"/>
			<polygon style="fill:#FFFFFF;" points="1486.807,561.814 1472.727,427.074 1363.079,506.638 			"/>
			<polygon style="fill:#E6D0BE;" points="652.552,838.74 720.244,721.391 584.771,721.442 			"/>
			<polygon style="fill:#FFFFFF;" points="869.335,820.739 918.876,694.649 784.908,714.79 			"/>
			<path style="fill:#FFFFFF;" d="M649.343,720.615c-56.047,0-112.068-3.618-167.514-10.846c-0.548-0.071-0.935-0.573-0.862-1.12
				c0.07-0.548,0.564-0.939,1.12-0.862c385.008,50.178,767.544-72.64,1049.515-336.971c0.402-0.377,1.035-0.356,1.413,0.046
				c0.378,0.402,0.357,1.035-0.046,1.413c-70.756,66.33-149.07,124.637-232.771,173.302
				c-81.88,47.607-169.335,86.245-259.938,114.84c-89.629,28.288-182.613,46.841-276.367,55.143
				C725.816,718.932,687.573,720.615,649.343,720.615z"/>
		</g>
		<g>
			<g>
				<polygon style="fill:#EFBC73;" points="1844.901,1777.599 1749.608,1415.488 1388.729,1442.107 1349.786,1777.599 				"/>
				<path style="fill:#363E44;" d="M1584.85,1767.88c-0.448,0-0.856-0.305-0.97-0.76l-21.831-88.148l-63.233-10.485
					c-0.544-0.09-0.913-0.605-0.822-1.15c0.09-0.544,0.596-0.925,1.15-0.822l64.53,10.7l22.147,89.426
					c0.133,0.536-0.194,1.078-0.73,1.211C1585.011,1767.87,1584.93,1767.88,1584.85,1767.88z"/>
			</g>
			<g>
				<g>
					<path style="fill:#84524D;" d="M1786.546,1370.813l138.832,121.458l100.053,32.466l16.716-61.954
						c14.822-62.803,16.218-107.019-63.595-164.837l-176.748-145.29L1786.546,1370.813z"/>
					<path style="fill:#84524D;" d="M2047.097,1436.544c-10.434,56.022-9.436,64.888-50.684,173.392
						c-17.562,46.199-34.536,83.787-41.304,109.01c-4.197,8.087-9.186,67.711-26.155,65.185
						c-12.665-1.885-6.926-47.726-7.473-59.691c-3.632,9.456-6.04,82.218-25.458,79.299c-20.165-3.031-8.442-71.25-7.686-80.579
						c-0.458,0.647-15.636,90.151-34.8,88.738c-18.621-1.373-3.107-76.094-1.489-93.65c-4.041,14.887-21.782,81.737-36.004,79.581
						c-21.97-3.331-3.783-79.366,10.651-131.398c-24.264,9.52-38.916,10.275-41.009,3.495c-1.061-3.44,15.635-26.464,53.556-47.557
						c5.403-19.407,37.003-127.863,53.718-192.872c38.957-28.587,76.801-56.73,115.758-85.317
						C2048.887,1372.528,2051.144,1414.815,2047.097,1436.544z"/>
				</g>
				<g>
					<path style="fill:#84524D;" d="M1456.46,999.138l-121.477-138.816l-94.857-45.462l-24.793,59.186
						c-23.029,60.279-30.283,103.919,41.146,171.821l155.893,167.471L1456.46,999.138z"/>
					<path style="fill:#84524D;" d="M1206.943,899.395c17.78-54.141,17.968-63.06,73.257-165.128
						c23.54-43.458,45.355-78.46,55.412-102.561c5.234-7.458,18.094-65.892,34.578-61.136c12.302,3.55,0.527,48.223-0.518,60.154
						c4.856-8.89,16.903-80.688,35.762-75.217c19.584,5.682-1.093,71.74-3.081,80.887c0.54-0.581,27.468-87.277,46.274-83.332
						c18.274,3.833-7.023,75.833-10.959,93.019c5.982-14.219,32.441-78.122,46.251-74.096c21.334,6.219-6.788,79.166-28.002,128.821
						c25.313-6.215,39.936-5.017,41.11,1.981c0.595,3.55-19.01,24.153-59.396,40.026c-7.932,18.518-53.652,121.819-78.85,184.033
						c-42.408,23.161-83.653,46.031-126.061,69.192C1196.669,962.607,1200.046,920.395,1206.943,899.395z"/>
					<path style="fill:#363E44;" d="M1363.245,720.012c-0.148,0-0.299-0.033-0.441-0.104c-0.495-0.244-0.699-0.844-0.454-1.339
						c17.369-35.207,51.806-25.217,52.152-25.112c0.527,0.16,0.826,0.719,0.666,1.247s-0.718,0.829-1.247,0.667
						c-1.344-0.407-33.169-9.58-49.778,24.083C1363.969,719.808,1363.614,720.012,1363.245,720.012z"/>
				</g>
				<g>
					<path style="fill:#ff6900;" d="M1778.277,1399.105l118.013-186.636c-35.591-36.824-76.725-65.594-126.227-82.2
						L1778.277,1399.105z"/>
					<path style="fill:#ff6900;" d="M1400.825,912.661l-147.756,160.354l85.416,93.975c0,0,18.984,160.177,31.861,366.629
						l430.231-12.236l-30.513-391.114C1770.064,1130.269,1581.502,1084.516,1400.825,912.661z"/>
				</g>
				<path style="fill:#EFBC73;" d="M1665.437,1261.646l-37.502-44.966l44.966-37.501l37.501,44.965L1665.437,1261.646z
					 M1630.751,1216.937l34.941,41.894l41.893-34.941l-34.94-41.893L1630.751,1216.937z"/>
			</g>
			<g>
				<g>
					<polygon style="fill:#EFBC73;" points="1508.947,992.249 1777.193,1121.897 1552.049,1147.45 					"/>
					<polygon style="fill:#EFBC73;" points="1552.049,1147.45 1566.426,1367.996 1633.588,1299.847 					"/>
					<polygon style="fill:#EFBC73;" points="1552.049,1147.45 1458.647,1255.361 1452.037,1153.97 					"/>
				</g>
				<path style="fill:#84524D;" d="M1611.031,1106.058L1611.031,1106.058c23.489,6.507,47.805-7.26,54.312-30.749l36.073-126.958
					c6.507-23.489-7.26-47.805-30.748-54.312l0,0c-23.489-6.507-47.805,7.26-54.312,30.749l-36.073,126.958
					C1573.776,1075.235,1587.542,1099.551,1611.031,1106.058z"/>
				<path style="fill:#84524D;" d="M1702.35,814.794c-3.72-2.259-28.712-38.515-63.586-23.793
					c-25.949,10.955-50.695,49.579-67.879,92.44c-20.236,50.473-25.281,83.471-15.863,99.9
					c14.881,25.956,97.921,23.974,143.537-6.625c32.927-22.087,49.988-62.753,45.567-102.434
					C1739.717,834.709,1704.724,816.237,1702.35,814.794z"/>
				<g>
					<path style="fill:#FFFFFF;" d="M1673.688,900.688c-0.278,0.233-0.311,0.6-0.588,0.832c-0.011,0.01-0.024,0.013-0.036,0.023
						c-2.694,4.312-5.526,8.868-7.386,13.598c-0.823,2.095-0.608,3.918-1.16,5.98c-0.406,1.513-0.799,2.959-1.138,4.465
						c16.845-0.602,30.563-8.724,30.563-8.724S1686.017,907.315,1673.688,900.688z"/>
					<g>
						<defs>
							<path id="SVGID_1_" d="M1693.943,916.862c0,0-19.914,11.804-41.221,8.02c-21.307-3.785-35.937-21.726-35.937-21.726
								s19.915-11.804,41.221-8.019C1679.313,898.922,1693.943,916.862,1693.943,916.862z"/>
						</defs>
						<clipPath id="SVGID_00000072991156472202023070000016119692388344643231_">
							<use xlink:href="#SVGID_1_"  style="overflow:visible;"/>
						</clipPath>
						<path style="clip-path:url(#SVGID_00000072991156472202023070000016119692388344643231_);fill:#363E44;" d="M1666.36,922.725
							c-10.583,11.502-28.487,12.247-39.989,1.664c-11.502-10.583-12.247-28.487-1.665-39.989
							c10.583-11.502,28.486-12.247,39.989-1.664C1676.197,893.319,1676.943,911.222,1666.36,922.725z"/>
					</g>
				</g>
				<g>
					<path style="fill:#FFFFFF;" d="M1584.837,863.952c-4.249,4.248-6.673,8.246-7.609,13.926
						c10.881,9.314,22.859,13.071,22.859,13.071s2.695-18.622-4.874-35.629C1591.209,857.208,1587.853,860.936,1584.837,863.952z"/>
					<g>
						<defs>
							<path id="SVGID_00000093873541188257019250000008530545909864977563_" d="M1558.69,824.409c0,0,22.093,6.917,33.524,25.291
								c11.432,18.375,7.873,41.25,7.873,41.25s-22.093-6.917-33.524-25.291C1555.131,847.284,1558.69,824.409,1558.69,824.409z"/>
						</defs>
						<clipPath id="SVGID_00000067932899138018112210000004718660180490025609_">
							<use xlink:href="#SVGID_00000093873541188257019250000008530545909864977563_"  style="overflow:visible;"/>
						</clipPath>
						<path style="clip-path:url(#SVGID_00000067932899138018112210000004718660180490025609_);fill:#363E44;" d="M1567.543,822.845
							c15.629,0.179,28.153,12.994,27.974,28.624c-0.179,15.629-12.994,28.154-28.623,27.974
							c-15.629-0.179-28.154-12.994-27.974-28.623C1539.099,835.19,1551.914,822.666,1567.543,822.845z"/>
					</g>
				</g>
				<g>
					<path style="fill:#363E44;" d="M1773.869,942.516c0,0-41.339,37.989-97.471,53.609c6.328-16.509,21.191-63.355,21.191-63.355
						l19.985-26.78c7.852-10.522,7.008-25.165-2.002-34.715l-76.808-80.273c0,0,2.072-1.234,32.36-13.947
						c17.09-7.173,52.229,1.705,74.154,11.53C1856.237,838.301,1773.869,942.516,1773.869,942.516z"/>
					<path style="fill:#363E44;" d="M1839.234,891.191c36.999,29.013,73.447,44.303,81.408,34.151
						c7.962-10.152-15.578-41.903-52.578-70.916c-36.999-29.014-73.447-44.303-81.408-34.151
						C1778.695,830.427,1802.235,862.178,1839.234,891.191z"/>
					<path style="fill:#363E44;" d="M1822.485,935.027c29.133,44.367,62.619,73.852,74.793,65.858
						c12.174-7.994-1.574-50.44-30.707-94.806c-29.133-44.367-62.619-73.852-74.792-65.858
						C1779.605,848.214,1793.353,890.661,1822.485,935.027z"/>
					
						<ellipse transform="matrix(0.9635 -0.2676 0.2676 0.9635 -184.9127 518.7945)" style="fill:#363E44;" cx="1810.568" cy="937.688" rx="26.37" ry="96.103"/>
					<path style="fill:#363E44;" d="M1829.011,839.66c27.41,2.277,50.154-2.2,50.802-9.998c0.648-7.798-21.047-15.965-48.456-18.241
						c-27.409-2.277-50.154,2.199-50.802,9.998C1779.908,829.216,1801.602,837.383,1829.011,839.66z"/>
					<path style="fill:#FFFFFF;" d="M1785.31,915.954c-0.143,0-0.287-0.03-0.425-0.095c-0.5-0.235-0.714-0.831-0.479-1.331
						c9.747-20.712,12.465-44.441,7.652-66.819c-0.116-0.54,0.228-1.071,0.768-1.188c0.541-0.12,1.071,0.227,1.188,0.768
						c4.904,22.803,2.135,46.985-7.797,68.091C1786.045,915.742,1785.686,915.954,1785.31,915.954z"/>
				</g>
				<g>
					<path style="fill:#84524D;" d="M1694.292,933.572c-13.567,10.972-17.048,29.162-7.775,40.63
						c9.273,11.468,27.79,11.87,41.357,0.899c13.568-10.971,17.049-29.162,7.775-40.63
						C1726.376,923.003,1707.86,922.601,1694.292,933.572z"/>
					<path style="fill:#363E44;" d="M1716.928,967.709c-0.351,0-0.69-0.185-0.874-0.512c-0.27-0.483-0.097-1.092,0.385-1.361
						c0.89-0.497,1.747-1.077,2.55-1.725c6.454-5.22,8.159-13.851,3.802-19.24c-1.055-1.303-2.38-2.323-3.939-3.032
						c-0.503-0.229-0.725-0.821-0.496-1.324c0.227-0.501,0.817-0.728,1.324-0.496c1.845,0.838,3.415,2.048,4.666,3.595
						c5.052,6.247,3.212,16.141-4.1,22.054c-0.891,0.72-1.843,1.363-2.83,1.916C1717.261,967.668,1717.093,967.709,1716.928,967.709
						z"/>
				</g>
				<path style="fill:#363E44;" d="M1585.23,916.302c-0.491,0-0.92-0.362-0.989-0.862c-0.462-3.317,0.06-6.026,1.55-8.055
					c1.624-2.215,3.83-2.872,6.385-3.632c1.759-0.523,3.753-1.117,5.935-2.342c2.771-1.558,5.225-3.799,7.293-6.661
					c0.322-0.448,0.946-0.549,1.396-0.225c0.447,0.323,0.548,0.948,0.225,1.396c-2.239,3.099-4.909,5.532-7.935,7.233
					c-2.376,1.334-4.484,1.961-6.344,2.515c-2.39,0.711-4.116,1.225-5.343,2.898c-1.172,1.594-1.568,3.813-1.182,6.596
					c0.076,0.547-0.306,1.052-0.853,1.128C1585.322,916.299,1585.276,916.302,1585.23,916.302z"/>
				<path style="fill:#363E44;" d="M1594.877,948.46c-0.716,0-1.456-0.044-2.219-0.142c-6.333-0.812-10.192-4.751-11.558-6.407
					c-0.352-0.426-0.291-1.056,0.136-1.407c0.426-0.352,1.057-0.29,1.407,0.136c1.214,1.472,4.645,4.975,10.269,5.694
					c6.279,0.807,10.836-2.453,12.085-3.471c0.43-0.349,1.06-0.283,1.406,0.145c0.349,0.428,0.284,1.058-0.145,1.406
					C1605.005,945.435,1600.782,948.46,1594.877,948.46z"/>
				<path style="fill:#363E44;" d="M1616.325,1002.654c-10.375,0-22.688-0.979-37.128-3.562c-0.544-0.098-0.906-0.617-0.809-1.16
					c0.097-0.545,0.617-0.905,1.16-0.809c57.622,10.306,81.346-5.55,81.579-5.712c0.453-0.315,1.076-0.201,1.392,0.253
					c0.314,0.454,0.201,1.077-0.253,1.392C1661.53,993.566,1647.934,1002.654,1616.325,1002.654z"/>
			</g>
		</g>
		<g>
			<g>
				<polygon style="fill:#D87355;" points="643.297,1777.599 738.59,1415.488 1049.311,1407.434 1141.807,1777.599 				"/>
				<path style="fill:#363E44;" d="M903.349,1767.88c-0.08,0-0.16-0.01-0.241-0.029c-0.536-0.133-0.863-0.675-0.73-1.211
					l22.147-89.426l64.53-10.7c0.551-0.101,1.06,0.278,1.15,0.822c0.091,0.545-0.278,1.061-0.822,1.15l-63.233,10.485
					l-21.831,88.148C904.205,1767.575,903.797,1767.88,903.349,1767.88z"/>
			</g>
			<g>
				<g>
					<path style="fill:#E2A18D;" d="M624.988,1208.554c-39.886,73.154-185.403,248.967-103.785,297.786
						c67.511,40.381,197.55-137.439,241.62-207.725C715.592,1267.841,672.219,1239.328,624.988,1208.554z"/>
				</g>
				<g>
					<path style="fill:#E2A18D;" d="M959.373,985.651l243.782-172.315l20.335,64.27c18.386,65.246,21.844,111.59-59.317,175.868
						l-188.266,141.794L959.373,985.651z"/>
					<path style="fill:#E2A18D;" d="M1229.869,904.922c-13.476-58.327-12.828-67.677-61.009-179.698
						c-20.514-47.695-40.023-86.381-48.263-112.549c-4.77-8.299-12.692-70.651-30.388-67.236
						c-13.207,2.549-5.118,50.402-5.153,62.984c-4.238-9.761-10.044-86.019-30.293-82.08c-21.027,4.09-5.649,75.16-4.435,84.918
						c-0.509-0.659-20.474-93.913-40.523-91.566c-19.482,2.28,0.168,80.004,2.658,98.357c-4.912-15.443-26.544-84.805-41.374-81.901
						c-22.909,4.486-0.394,83.468,17.099,137.427c-25.895-8.899-41.307-9.03-43.198-1.82c-0.959,3.658,17.602,27.07,58.351,47.5
						c6.545,20.125,44.598,132.531,65.071,200.006c42.175,28.247,83.162,56.079,125.337,84.327
						C1234.632,972.029,1235.095,927.546,1229.869,904.922z"/>
					<path style="fill:#363E44;" d="M1083.418,702.4c-0.401,0-0.78-0.243-0.933-0.641c-14.222-36.874-49.5-30.017-49.856-29.941
						c-0.541,0.105-1.07-0.235-1.183-0.776c-0.112-0.541,0.235-1.07,0.776-1.183c0.369-0.074,37.304-7.26,52.128,31.181
						c0.199,0.515-0.058,1.094-0.573,1.292C1083.659,702.379,1083.538,702.4,1083.418,702.4z"/>
				</g>
				<path style="fill:#FFFFFF;" d="M668.925,1488.637l414.493-59.815l-64.799-233.554l97.441-77.204l-91.703-190.705
					c0,0-340.367,163.302-474.304,363.625l181.548,86.144L668.925,1488.637z"/>
				<g>
					<path style="fill:#E2A18D;" d="M616.218,1403.266c47.456,45.663,164.536,147.665,175.569,158.078
						c20.623,19.464,128.59,126.793,114.792,144.052c-6.593,8.247-28.328-11.491-35.481-18.376
						c3.035,8.41,18.191,39.443,8.655,46.455c-11.203,8.237-34.924-25.977-35.629-26.277c3.949,8.228,21.006,40.365,14.061,45.899
						c-9.035,7.201-33.87-17.938-40.956-25.807c-0.331,1.793,15.608,34.802,9.893,38.979c-6.331,4.63-30.05-18.257-40.288-26.449
						c-18.337-17.279-93.203-80.603-131.033-109.634c-88.85-68.182-111.439-97.066-148.6-137.589
						C492.656,1476.733,580.881,1400.43,616.218,1403.266z"/>
					<path style="fill:#363E44;" d="M705.153,1483.16c-0.238,0-0.478-0.085-0.668-0.256c-23.559-21.171-72.313-65.162-88.209-80.123
						c-0.402-0.379-0.421-1.012-0.043-1.414c0.38-0.402,1.012-0.421,1.414-0.043c15.883,14.949,64.622,58.927,88.174,80.092
						c0.411,0.369,0.445,1.002,0.076,1.412C705.699,1483.048,705.427,1483.16,705.153,1483.16z"/>
					<path style="fill:#363E44;" d="M872.075,1687.495c-0.366,0-0.72-0.202-0.894-0.552c-2.645-5.27-5.675-10.394-9.004-15.229
						c-5.987-8.696-13.076-16.672-21.069-23.706c-0.414-0.365-0.454-0.997-0.09-1.412c0.366-0.413,0.997-0.453,1.412-0.09
						c8.115,7.143,15.314,15.242,21.393,24.073c3.382,4.911,6.459,10.115,9.145,15.468c0.248,0.493,0.049,1.095-0.445,1.342
						C872.379,1687.461,872.226,1687.495,872.075,1687.495z"/>
					<path style="fill:#363E44;" d="M845.036,1708.055c-0.328,0-0.649-0.161-0.841-0.457c-0.671-1.038-1.368-2.086-2.094-3.14
						c-5.986-8.695-13.075-16.671-21.068-23.705c-0.415-0.365-0.455-0.997-0.091-1.411c0.366-0.415,0.999-0.454,1.411-0.091
						c8.117,7.144,15.315,15.242,21.394,24.072c0.737,1.071,1.446,2.135,2.127,3.188c0.3,0.464,0.167,1.083-0.297,1.383
						C845.41,1708.003,845.222,1708.055,845.036,1708.055z"/>
					<path style="fill:#363E44;" d="M816.942,1727.596c-0.289,0-0.575-0.124-0.773-0.364c-4.384-5.328-9.252-10.356-14.469-14.947
						c-0.414-0.365-0.454-0.997-0.09-1.412c0.367-0.414,0.997-0.454,1.412-0.09c5.296,4.662,10.239,9.769,14.691,15.178
						c0.351,0.427,0.289,1.057-0.137,1.408C817.391,1727.521,817.166,1727.596,816.942,1727.596z"/>
				</g>
				<circle style="fill:#D87355;" cx="774.41" cy="1201.754" r="27.176"/>
			</g>
			<g>
				<g>
					<polygon style="fill:#EFBC73;" points="893.219,988.359 673.078,1143.554 877.661,1133.145 					"/>
					<polygon style="fill:#EFBC73;" points="877.661,1133.145 897.36,1331.978 827.406,1281.098 					"/>
					<polygon style="fill:#EFBC73;" points="877.661,1133.145 976.883,1215.622 967.827,1124.212 					"/>
				</g>
				<path style="fill:#E2A18D;" d="M860.086,1100.633l-49.395,14.289c-7.121,2.06-14.564-2.043-16.624-9.164l-45.761-158.209
					c-2.06-7.122,2.043-14.565,9.164-16.626l49.393-14.294c7.121-2.061,14.564,2.042,16.624,9.163l45.763,158.216
					C871.31,1091.13,867.207,1098.573,860.086,1100.633z"/>
				<g>
					<path style="fill:#E2A18D;" d="M753.47,844.461c3.417-2.332,36.473-24.171,70.318-11.952
						c25.184,9.092,39.459,30.673,57.929,70.492c21.751,46.891,28.202,77.961,20.089,94.029
						c-12.818,25.388-91.742,27.688-136.583,0.94c-32.367-19.308-50.61-57.049-48.412-94.939
						C719.003,865.247,751.289,845.949,753.47,844.461z"/>
					<path style="fill:#363E44;" d="M842.62,1018.087c-25.672,0-55.217-5.722-77.91-19.259c-0.474-0.282-0.629-0.897-0.346-1.371
						c0.281-0.473,0.894-0.629,1.371-0.346c32.011,19.095,80.933,22.749,109.738,15.251c0.53-0.135,1.08,0.181,1.22,0.716
						c0.139,0.534-0.182,1.08-0.716,1.22C866.58,1016.744,855.054,1018.087,842.62,1018.087z"/>
					<path style="fill:#363E44;" d="M842.975,843.454c-35.175-40.238-113.068-22.493-141.581,19.843
						c-30.478,45.253-11.695,106.138,15.15,134.234c15.959,16.702,47.764,36.636,60.866,23.382
						c15.853-16.037-13.982-44.471-2.003-93.929C784.659,888.783,834.38,874.46,842.975,843.454z"/>
					<g>
						<path style="fill:#E2A18D;" d="M792.938,934.725c14.565,10.526,19.161,29.039,10.264,41.35
							c-8.897,12.311-27.917,13.758-42.482,3.232c-14.565-10.526-19.161-29.039-10.264-41.35
							C759.353,925.647,778.372,924.2,792.938,934.725z"/>
						<path style="fill:#363E44;" d="M771.509,971.066c-0.147,0-0.297-0.032-0.438-0.102c-1.043-0.51-2.058-1.119-3.014-1.81
							c-7.836-5.664-10.277-15.717-5.44-22.41c1.196-1.655,2.739-2.983,4.587-3.948c0.486-0.254,1.094-0.066,1.35,0.424
							c0.255,0.489,0.066,1.094-0.424,1.35c-1.569,0.819-2.879,1.945-3.892,3.347c-4.19,5.799-1.952,14.6,4.991,19.617
							c0.863,0.624,1.778,1.174,2.721,1.634c0.496,0.242,0.701,0.841,0.459,1.338C772.235,970.86,771.879,971.066,771.509,971.066z"
							/>
					</g>
					<g>
						<path style="fill:#FFFFFF;" d="M795.681,927.636c0,0,10.303-10.473,25.205-15.083c3.17-0.981,5.039,26.239,1.586,25.733
							C807.285,936.065,795.681,927.636,795.681,927.636z"/>
						<path style="fill:#373E44;" d="M830.964,910.564c-3.525,0.293-6.884,1.023-10.05,2c-4.113,8.519-3.256,18.219,1.543,25.715
							c3.457,0.508,7.101,0.696,10.836,0.388c20.131-1.669,35.286-17.073,35.286-17.073S851.095,908.896,830.964,910.564z"/>
					</g>
					<path style="fill:#363E44;" d="M869.256,968.455c-0.986,0-1.976-0.139-2.942-0.429c-5.783-1.732-7.326-7.787-7.39-8.044
						c-0.131-0.536,0.197-1.077,0.734-1.209c0.524-0.13,1.076,0.196,1.209,0.734c0.013,0.052,1.321,5.195,6.021,6.603
						c3.724,1.116,7.901-0.533,10.152-4.014c0.301-0.465,0.92-0.596,1.383-0.297c0.464,0.3,0.597,0.919,0.297,1.383
						C876.565,966.513,872.937,968.455,869.256,968.455z"/>
					<path style="fill:#363E44;" d="M890.349,938.068c-0.192,0-0.387-0.056-0.559-0.171c-0.458-0.309-0.578-0.931-0.269-1.389
						c1.961-2.905,4.035-6.876,2.787-9.289c-0.553-1.067-1.585-1.526-3.147-2.221c-1.311-0.583-2.944-1.309-4.737-2.652
						c-2.651-1.986-4.786-4.663-6.346-7.956c-0.236-0.499-0.022-1.096,0.477-1.332c0.498-0.237,1.097-0.021,1.332,0.477
						c1.418,2.996,3.348,5.422,5.736,7.211c1.612,1.209,3.067,1.856,4.351,2.426c1.735,0.772,3.234,1.438,4.11,3.129
						c1.383,2.675,0.433,6.379-2.905,11.327C890.985,937.914,890.67,938.068,890.349,938.068z"/>
				</g>
				<g>
					<path style="fill:#363E44;" d="M387.539,993.148c0,0,124.33-279.853,352.055-115.678l-18.344,20.29
						c0,0-205.198,24.244-168.176,233.142L387.539,993.148z"/>
					<path style="fill:#363E44;" d="M587.176,1123.697c-0.443,0-0.849-0.297-0.967-0.747
						c-17.744-67.785,5.507-144.62,57.857-191.195c15.64-13.913,39.976-30,67.055-27.665c0.551,0.048,0.958,0.532,0.91,1.082
						c-0.048,0.55-0.526,0.97-1.082,0.91c-26.389-2.28-50.206,13.515-65.553,27.167c-51.804,46.088-74.811,122.119-57.252,189.195
						c0.14,0.534-0.181,1.08-0.715,1.221C587.345,1123.687,587.26,1123.697,587.176,1123.697z"/>
				</g>
			</g>
		</g>
		<g>
			<g>
				<polygon style="fill:#ff6900;" points="632.246,2112.679 1159.809,2112.679 1159.809,1420.227 521.721,2058.315
					632.246,2058.315 				"/>
				<path style="fill:#363E44;" d="M465.969,2113.679c-0.256,0-0.512-0.098-0.707-0.293c-0.391-0.391-0.391-1.023,0-1.414
					l49.957-49.956c0.391-0.391,1.023-0.391,1.414,0c0.391,0.391,0.391,1.023,0,1.414l-49.957,49.956
					C466.48,2113.581,466.225,2113.679,465.969,2113.679z"/>
			</g>
			<g>
				<polygon style="fill:#ff6900;" points="1687.372,2112.679 1159.809,2112.679 1159.809,1420.227 1797.897,2058.315
					1687.372,2058.315 				"/>
				<path style="fill:#363E44;" d="M1853.649,2113.679c-0.256,0-0.512-0.098-0.707-0.293l-49.957-49.956
					c-0.391-0.391-0.391-1.023,0-1.414s1.023-0.391,1.414,0l49.957,49.956c0.391,0.391,0.391,1.023,0,1.414
					C1854.161,2113.581,1853.905,2113.679,1853.649,2113.679z"/>
			</g>
			<polygon style="fill:#776E42;" points="1159.809,1948.375 1324.967,2113.532 1159.809,2113.532 			"/>
			<path style="fill:#363E44;" d="M1155.171,1918.884c-0.553,0-1-0.447-1-1v-455.182c0-0.553,0.447-1,1-1s1,0.447,1,1v455.182
				C1156.171,1918.437,1155.724,1918.884,1155.171,1918.884z"/>
		</g>
		<g>
			<path style="fill:#363E44;" d="M496.748,2024.635c-0.553,0-1-0.447-1-1v-377.733c0-0.553,0.447-1,1-1c0.553,0,1,0.447,1,1
				v377.733C497.748,2024.188,497.301,2024.635,496.748,2024.635z"/>
			<path style="fill:#363E44;" d="M568.464,1672.912c-0.256,0-0.512-0.098-0.707-0.293l-71.009-71.009l-71.009,71.009
				c-0.391,0.391-1.023,0.391-1.414,0s-0.391-1.023,0-1.414l72.423-72.423l72.423,72.423c0.391,0.391,0.391,1.023,0,1.414
				C568.976,1672.814,568.72,1672.912,568.464,1672.912z"/>
			<path style="fill:#363E44;" d="M568.464,1781.262c-0.256,0-0.512-0.098-0.707-0.293l-71.009-71.009l-71.009,71.009
				c-0.391,0.391-1.023,0.391-1.414,0s-0.391-1.023,0-1.414l72.423-72.423l72.423,72.423c0.391,0.391,0.391,1.023,0,1.414
				C568.976,1781.164,568.72,1781.262,568.464,1781.262z"/>
			<path style="fill:#363E44;" d="M568.464,1889.611c-0.256,0-0.512-0.098-0.707-0.293l-71.009-71.009l-71.009,71.009
				c-0.391,0.391-1.023,0.391-1.414,0s-0.391-1.023,0-1.414l72.423-72.423l72.423,72.423c0.391,0.391,0.391,1.023,0,1.414
				C568.976,1889.514,568.72,1889.611,568.464,1889.611z"/>
		</g>
		<g>
			<path style="fill:#363E44;" d="M629.785,1923.327c-0.553,0-1-0.447-1-1v-181.9c0-0.553,0.447-1,1-1c0.553,0,1,0.447,1,1v181.9
				C630.785,1922.88,630.338,1923.327,629.785,1923.327z"/>
			<path style="fill:#363E44;" d="M584.339,1757.911c-0.256,0-0.512-0.098-0.707-0.293c-0.391-0.391-0.391-1.023,0-1.414
				l46.153-46.154l46.154,46.154c0.391,0.391,0.391,1.023,0,1.414c-0.391,0.391-1.023,0.391-1.414,0l-44.74-44.74l-44.739,44.74
				C584.851,1757.813,584.595,1757.911,584.339,1757.911z"/>
			<path style="fill:#363E44;" d="M675.232,1826.572c-0.256,0-0.512-0.098-0.707-0.293l-44.74-44.739l-44.739,44.739
				c-0.391,0.391-1.023,0.391-1.414,0c-0.391-0.391-0.391-1.023,0-1.414l46.153-46.153l46.154,46.153
				c0.391,0.391,0.391,1.023,0,1.414C675.744,1826.475,675.488,1826.572,675.232,1826.572z"/>
		</g>
	</g>
</g>
</svg>
