<?xml version="1.0" encoding="utf-8"?>
<!-- Generator: Adobe Illustrator 27.5.0, SVG Export Plug-In . SVG Version: 6.00 Build 0)  -->
<svg version="1.1" xmlns="http://www.w3.org/2000/svg" xmlns:xlink="http://www.w3.org/1999/xlink" x="0px" y="0px"
	 viewBox="0 0 2500 2500" style="enable-background:new 0 0 2500 2500;" xml:space="preserve">
-
<g id="Illustration">
	<g id="Origami_1_">
		<circle style="fill:transparent;" cx="1250" cy="1250" r="915"/>
		<g>
			<g>
				<path style="fill:#776E42;" d="M568.555,580.648c-21.749,28.76-39.86,60.203-50.97,93.735
					c-11.124,33.382-14.994,69.05-8.959,102.824c5.159,33.976,21.383,64.716,41.064,94.272
					c19.723,29.601,42.801,59.149,61.191,93.25c9.132,17.073,17.032,35.099,23.238,53.683c6.141,18.628,10.401,37.777,13.556,57.08
					c5.684,38.682,5.369,77.837,1.01,116.079c-4.375,38.295-12.776,75.729-23.428,112.258
					c-10.734,36.537-24.419,71.81-38.921,106.678c-7.187,17.287-27.029,25.476-44.314,18.285
					c-17.287-7.187-25.474-27.027-18.285-44.314c0.261-0.626,0.535-1.236,0.828-1.838l0.38-0.767
					c15.618-31.807,30.522-64.001,42.536-97.068c11.936-33.047,21.735-66.748,27.841-100.901c6.094-34.121,8.5-68.703,5.7-102.752
					c-1.709-16.96-4.331-33.83-8.625-50.305c-4.375-16.451-10.195-32.449-17.341-48.148c-14.408-31.467-34.661-61.274-53.57-93.775
					c-9.373-16.285-18.23-33.366-25.203-51.497c-7.128-18.05-11.732-37.377-13.671-56.749c-4.373-38.82,2.626-77.85,16.828-112.957
					c14.219-35.244,35.299-66.768,59.462-94.87c2.234-2.602,6.155-2.897,8.755-0.663
					C570.153,574.333,570.508,578.058,568.555,580.648z"/>
				<path style="fill:#776E42;" d="M553.259,584.162c-3.511-6.213,29.043-38.276,62.446-39.761
					c30.325-1.348,49.867,19.543,45.374,37.963c-2.466,10.11-16.397,22.013-33.245,17.295c-14.521-4.066-17.297-12.071-35.04-16.847
					C570.889,576.919,555.705,588.493,553.259,584.162z"/>
				<path style="fill:#776E42;" d="M502.976,711.883c-2.152-7.717,38.538-36.874,73.026-31.513
					c31.31,4.867,46.458,32.44,37.607,52.181c-4.858,10.835-21.85,21.27-37.982,12.427c-13.904-7.622-14.891-17.196-31.925-26.292
					C522.673,707.458,504.476,717.262,502.976,711.883z"/>
				<path style="fill:#776E42;" d="M568.029,905.775c-7.836-5.837,9.648-64.335,46.918-84.907
					c33.835-18.677,69.029-3.388,75.226,22.262c3.402,14.078-5.199,36.827-27.361,40.339c-19.101,3.027-27.2-5.472-50.421-1.531
					C583.726,886.804,573.49,909.844,568.029,905.775z"/>
				<path style="fill:#776E42;" d="M646.254,1154.896c-7.774-9.748,32.806-76.255,85.479-89.534
					c47.82-12.056,86.281,18.244,85.597,51.909c-0.376,18.477-18.379,43.756-46.867,40.89c-24.554-2.47-31.787-15.588-61.722-18.269
					C671.786,1136.585,651.671,1161.691,646.254,1154.896z"/>
				<path style="fill:#776E42;" d="M524.394,641.823c5.956-3.932-8.419-47.305-37.478-63.842
					c-26.382-15.014-53.295-5.319-57.686,13.126c-2.41,10.124,4.569,27.065,21.717,30.54c14.779,2.995,20.897-2.867,38.868,0.965
					C511.999,627.344,520.243,644.564,524.394,641.823z"/>
				<path style="fill:#776E42;" d="M497.728,817.501c3.991-7.368-34.902-44.326-74.148-45.366
					c-35.63-0.945-58.134,23.992-52.471,45.523c3.108,11.818,19.713,25.498,39.393,19.605c16.963-5.079,20.053-14.536,40.783-20.515
					C476.877,809.367,494.947,822.637,497.728,817.501z"/>
				<path style="fill:#776E42;" d="M595.899,1022.692c5.307-9.798-46.408-58.939-98.592-60.322
					c-47.376-1.256-77.298,31.901-69.769,60.53c4.133,15.713,26.212,33.904,52.38,26.069c22.554-6.753,26.664-19.327,54.228-27.278
					C568.175,1011.877,592.201,1029.52,595.899,1022.692z"/>
				<path style="fill:#776E42;" d="M597.015,1241.062c8.372-7.353-23.119-71.365-71.593-90.74
					c-44.007-17.589-83.563,3.15-86.417,32.615c-1.566,16.172,12.845,40.884,40.107,42.599c23.498,1.478,31.708-8.895,60.32-6.804
					C574.753,1221.314,591.181,1246.188,597.015,1241.062z"/>
			</g>
			<g>
				<polygon style="fill:#D3BBA3;" points="598.302,1652.262 381.574,1652.262 468.449,1308.583 556.933,1308.583 				"/>
				<polygon style="fill:#D3BBA3;" points="571.871,1652.262 788.599,1652.262 701.725,1308.583 613.24,1308.583 				"/>
				<polygon style="fill:#E6D0BE;" points="681.04,1652.262 489.134,1652.262 530.502,1308.583 639.671,1308.583 				"/>
			</g>
		</g>
		<g>
			<g>
				<rect x="831.329" y="432.225" style="fill:#FFFFFF;" width="1191.018" height="845.935"/>
				<rect x="805.15" y="406.046" style="fill:#E6D0BE;" width="1191.018" height="75.071"/>
				<path style="fill:#E6D0BE;" d="M1997.169,1252.98H804.15V405.046h1193.019V1252.98z M806.15,1250.98h1189.019V407.046H806.15
					V1250.98z"/>
				<circle style="fill:#FFFFFF;" cx="855.067" cy="444.105" r="17.074"/>
				<circle style="fill:#FFFFFF;" cx="910.235" cy="444.105" r="17.074"/>
				<circle style="fill:#FFFFFF;" cx="965.402" cy="444.105" r="17.074"/>
			</g>
			<g>
				<polygon style="fill:#9E9569;" points="1535.322,857.974 1880.312,857.974 1977.341,726.81 1535.322,802.083 				"/>
				<polygon style="fill:#776E42;" points="1865.448,639.311 1724.612,1096.588 1549.422,932.695 1795.465,609.295 				"/>
				<polygon style="fill:#ff6900;" points="1853.36,645.953 1697.036,1096.588 1521.845,932.695 1767.889,609.295 				"/>
				<polygon style="fill:#ff6900;" points="1449.972,852.942 1101.388,504.011 1338.569,1045.678 				"/>
				<polygon style="fill:#9E9569;" points="1767.889,609.406 1937.811,708.734 1906.985,575.156 				"/>
				<polygon style="fill:#776E42;" points="1699.825,947.342 1593.363,1175.164 1295.446,947.342 				"/>
				<polygon style="fill:#ff6900;" points="1295.446,947.342 1497.008,970.169 1698.571,947.342 1497.008,745.78 				"/>
				<polygon style="fill:#9E9569;" points="1497.008,745.78 1698.571,947.342 1519.835,947.342 1497.008,745.78 1295.446,947.342 
					1474.181,947.342 				"/>
				<polygon style="fill:#ff6900;" points="1034.007,1055.99 1593.344,1175.164 1295.446,947.342 				"/>
			</g>
			<circle style="fill:#E6D0BE;" cx="1426.838" cy="829.013" r="190.197"/>
			<polygon style="fill:#FFFFFF;" points="1538.913,829.013 1359.81,725.608 1359.81,932.419 			"/>
		</g>
		<g>
			<g>
				<path style="fill:#363E44;" d="M1716.628,1186.825c-3.33,26.456-5.108,54.089-5.108,82.529
					c0,131.686,37.838,246.252,93.606,305.166h171.554c55.765-58.914,93.603-173.48,93.603-305.166
					c0-28.441-1.778-56.073-5.108-82.529H1716.628z"/>
				<path style="fill:#363E44;" d="M1753.235,1520.108c-103.105,0.004-169.782-41.571-198.52-123.962
					c-9.592-27.493-8.323-62.251,3.4-92.976c13.136-34.436,37.286-59.709,68.004-71.164c32.525-12.131,71.077-9.176,105.767,8.103
					c36.029,17.948,64.631,49.327,80.53,88.357l-21.93,8.936c-24.153-59.287-92.629-106.867-156.094-83.207
					c-42.605,15.889-76.925,77.95-57.32,134.151c29.122,83.489,101.018,118.062,219.759,105.697l2.451,23.555
					C1783.21,1519.271,1767.851,1520.107,1753.235,1520.108z"/>
			</g>
			<g>
				<path style="fill:#E6D0BE;" d="M1877.398,1137.676c-0.15,0-0.304-0.034-0.447-0.106c-0.494-0.248-0.693-0.848-0.445-1.342
					c15.051-30.01,18.924-57.012,11.513-80.259c-4.878-15.303-13.228-24.595-21.302-33.581c-7.86-8.748-15.284-17.011-19.207-30.086
					c-8.045-26.813,3.696-60.216,34.896-99.282c0.345-0.431,0.975-0.502,1.405-0.157c0.432,0.344,0.502,0.974,0.157,1.405
					c-30.766,38.522-42.388,71.312-34.543,97.459c3.794,12.647,11.072,20.748,18.779,29.324c8.215,9.143,16.711,18.598,21.72,34.311
					c7.575,23.761,3.661,51.271-11.632,81.763C1878.118,1137.474,1877.765,1137.676,1877.398,1137.676z"/>
				<path style="fill:#E6D0BE;" d="M1818.194,1137.676c-0.15,0-0.304-0.034-0.447-0.106c-0.494-0.248-0.693-0.848-0.445-1.342
					c15.05-30.01,18.923-57.013,11.513-80.259c-0.167-0.526,0.123-1.089,0.649-1.257c0.522-0.167,1.089,0.123,1.257,0.649
					c7.574,23.76,3.66,51.27-11.632,81.763C1818.914,1137.474,1818.561,1137.676,1818.194,1137.676z"/>
				<path style="fill:#E6D0BE;" d="M1936.604,1137.676c-0.15,0-0.304-0.034-0.447-0.106c-0.494-0.248-0.693-0.848-0.445-1.342
					c15.05-30.01,18.923-57.013,11.513-80.259c-4.878-15.303-13.228-24.595-21.302-33.581c-7.86-8.748-15.284-17.011-19.207-30.087
					c-0.158-0.529,0.142-1.086,0.671-1.245c0.531-0.161,1.086,0.142,1.245,0.67c3.794,12.647,11.072,20.748,18.779,29.325
					c8.215,9.143,16.71,18.598,21.72,34.31c7.574,23.76,3.66,51.27-11.632,81.763
					C1937.323,1137.474,1936.97,1137.676,1936.604,1137.676z"/>
			</g>
		</g>
		<g>
			<path style="fill:#84524D;" d="M1446.598,1562.703c-84.749-82.143-97.91-129.731-84.464-142.747
				c22.612-21.888,123.672,18.623,262.656,123.072C1575.637,1552.961,1495.751,1552.77,1446.598,1562.703z"/>
			<g>
				<path style="fill:#84524D;" d="M2010.505,1840.755c-65.017-55.516-290.121-219.43-368.693-284.748
					c-8.228-6.84-22.696-18.979-45.074-29.07c-82.913-37.394-141.539,13.239-246.663,13.702
					c-119.281,0.525-186.743-66.711-206.266-43.329c-13.581,16.265,4.727,48.791,63.189,96.138c0.005,0.004-0.001,0.014-0.007,0.011
					c-48.552-30.866-116.226-69.853-133.206-42.971c-17.946,32.087,56.184,87.229,102.659,118.394
					c-56.254-37.723-97.453-40.953-103.185-23.606c-9.023,27.305,27.788,66.717,104.069,113.688
					c0.004,0.002,0.001,0.007-0.002,0.006c-61.731-17.72-79.348-12.818-80.676,3.751c-2.425,30.253,61.015,67.689,122.172,92.187
					c68.848,27.58,131.811,25.085,171.473,22.567c0.01,0,0.021,0.003,0.028,0.012c100.026,99.94,296.381,258.919,296.381,258.919
					S2010.515,1840.764,2010.505,1840.755z"/>
				<path style="fill:#363E44;" d="M1419.414,1538.708c-0.472,0-0.892-0.335-0.981-0.815c-0.103-0.543,0.255-1.066,0.798-1.168
					c13.902-2.615,27.033-5.679,39.731-8.642c27.014-6.303,52.527-12.254,78.437-11.996c0.553,0.006,0.996,0.458,0.99,1.01
					c-0.006,0.549-0.452,0.99-1,0.99c-0.003,0-0.007,0-0.01,0c-25.664-0.241-51.068,5.668-77.962,11.943
					c-12.72,2.968-25.872,6.037-39.817,8.66C1419.537,1538.703,1419.476,1538.708,1419.414,1538.708z"/>
				<path style="fill:#363E44;" d="M1311.259,1620.246c-0.013,0-0.024,0-0.037,0c-14.419-0.517-28.846-2.375-42.879-5.523
					c-20.365-4.569-40.096-11.874-58.642-21.711c-0.487-0.259-0.674-0.864-0.415-1.352c0.259-0.488,0.865-0.673,1.353-0.415
					c18.389,9.753,37.95,16.996,58.142,21.526c13.913,3.121,28.217,4.963,42.514,5.475c0.552,0.02,0.983,0.483,0.963,1.035
					C1312.238,1619.821,1311.794,1620.246,1311.259,1620.246z"/>
				<path style="fill:#363E44;" d="M1273.597,1690.525c-0.013,0-0.024,0-0.037,0c-14.42-0.517-28.847-2.375-42.879-5.523
					c-20.366-4.569-40.096-11.874-58.642-21.711c-0.487-0.259-0.674-0.864-0.415-1.352c0.26-0.488,0.866-0.673,1.353-0.415
					c18.388,9.754,37.949,16.996,58.142,21.526c13.912,3.122,28.216,4.964,42.514,5.476c0.552,0.02,0.983,0.483,0.963,1.035
					C1274.576,1690.101,1274.132,1690.525,1273.597,1690.525z"/>
				<path style="fill:#363E44;" d="M1280.188,1787.302c-0.013,0-0.024,0-0.037,0c-14.424-0.517-28.851-2.375-42.88-5.523
					c-20.364-4.568-40.093-11.873-58.641-21.711c-0.487-0.259-0.674-0.864-0.415-1.352c0.259-0.488,0.863-0.672,1.353-0.415
					c18.39,9.754,37.951,16.997,58.141,21.526c13.909,3.121,28.213,4.963,42.515,5.476c0.552,0.02,0.983,0.483,0.963,1.035
					C1281.167,1786.878,1280.723,1787.302,1280.188,1787.302z"/>
				<path style="fill:#363E44;" d="M1564.214,1761.646c-0.187,0-0.374-0.052-0.542-0.16
					c-23.507-15.205-61.938-33.501-111.531-34.319c-28.389-0.465-56.288,4.823-82.928,15.728c-0.508,0.208-1.095-0.034-1.305-0.546
					c-0.209-0.511,0.036-1.095,0.547-1.304c26.892-11.008,55.052-16.34,83.719-15.877c50.066,0.826,88.857,19.293,112.584,34.64
					c0.464,0.3,0.597,0.919,0.297,1.383C1564.863,1761.484,1564.542,1761.646,1564.214,1761.646z"/>
			</g>
		</g>
		<g>
			<path style="fill:#84524D;" d="M910.073,1678.115c93.205-72.406,142.168-78.77,153.172-63.633
				c18.505,25.455-35.765,119.844-158.655,242.824C901.641,1807.246,913.022,1728.175,910.073,1678.115z"/>
			<g>
				<polygon style="fill:#FFD092;" points="1036.132,1287.616 650.122,1155.527 591.777,971.618 1057.531,1225.079 				"/>
				<polygon style="fill:#E0AA63;" points="750.474,916.556 732.975,1482.126 991.747,1365.822 840.271,909.766 				"/>
				<polygon style="fill:#EFBC73;" points="761.457,928.616 763.83,1492.684 1022.602,1376.38 871.126,920.325 				"/>
				<polygon style="fill:#EFBC73;" points="1133.556,1314.663 1625.052,1110.524 1184.411,1572.97 				"/>
				<polygon style="fill:#FFD092;" points="871.084,920.449 642.928,966.528 728.563,828.869 				"/>
				<polygon style="fill:#E0AA63;" points="817.853,1324.625 841.304,1644.966 1270.312,1479.452 				"/>
				<polygon style="fill:#EFBC73;" points="1270.312,1479.452 1036.044,1427.82 819.256,1325.105 1121.958,1176.751 				"/>
				<polygon style="fill:#FFD092;" points="1121.958,1176.751 819.256,1325.105 1019.243,1393.539 1121.958,1176.751 
					1270.312,1479.452 1070.326,1411.019 				"/>
				<polygon style="fill:#EFBC73;" points="1521.237,1701.117 841.325,1644.973 1270.312,1479.452 				"/>
			</g>
			<g>
				<path style="fill:#84524D;" d="M642.928,2088.274c64.077-56.598,170.746-147.286,246.427-215.932
					c7.925-7.188,21.971-19.813,35.098-40.557c48.641-76.857,6.72-141.998,20.989-246.15
					c16.191-118.178,92.214-175.555,71.799-198.162c-14.202-15.726-48.972-2.156-104.042,49.097
					c-0.005,0.004-0.014-0.003-0.01-0.008c37.364-43.75,85.446-105.294,61.209-125.872c-29.256-22.264-94.239,43.41-131.608,85.061
					c45.232-50.415,54.201-90.755,37.829-98.86c-25.772-12.759-69.952,18.167-127.146,87.116c-0.003,0.003-0.007,0-0.006-0.002
					c26.193-58.64,23.808-76.77,7.588-80.406c-29.615-6.639-75.57,50.931-108.393,108.052
					c-36.953,64.305-43.304,126.997-46.366,166.621c-0.001,0.01-0.006,0.021-0.016,0.026
					c-112.967,85.039-267.502,204.36-267.502,204.36S642.917,2088.283,642.928,2088.274z"/>
				<path style="fill:#363E44;" d="M942.519,1775.4c-0.05,0-0.101-0.003-0.151-0.011c-0.546-0.083-0.921-0.593-0.838-1.139
					c3.852-25.379,1.542-51.361-0.904-78.87c-1.156-13.009-2.353-26.46-2.996-40.635c-0.025-0.552,0.402-1.02,0.954-1.044
					c0.523-0.024,1.018,0.402,1.044,0.954c0.642,14.131,1.836,27.561,2.99,40.548c2.457,27.631,4.777,53.73,0.889,79.347
					C943.432,1775.045,943.006,1775.4,942.519,1775.4z"/>
				<path style="fill:#363E44;" d="M873.049,1537.188c-0.058,0-0.117-0.005-0.177-0.016c-0.543-0.097-0.905-0.616-0.809-1.16
					c2.534-14.212,6.395-28.236,11.476-41.683c7.378-19.525,17.374-38.037,29.713-55.021c0.323-0.447,0.948-0.546,1.396-0.221
					c0.446,0.325,0.546,0.95,0.221,1.397c-12.233,16.84-22.144,35.194-29.459,54.553c-5.037,13.332-8.865,27.236-11.378,41.327
					C873.946,1536.847,873.524,1537.188,873.049,1537.188z"/>
				<path style="fill:#363E44;" d="M808.739,1490.051c-0.058,0-0.117-0.005-0.177-0.016c-0.543-0.097-0.905-0.616-0.809-1.16
					c2.531-14.206,6.393-28.23,11.476-41.683c7.378-19.525,17.374-38.037,29.713-55.021c0.323-0.447,0.948-0.546,1.397-0.221
					c0.446,0.325,0.546,0.95,0.221,1.397c-12.233,16.84-22.145,35.194-29.459,54.553c-5.04,13.337-8.868,27.242-11.378,41.327
					C809.637,1489.711,809.215,1490.051,808.739,1490.051z"/>
				<path style="fill:#363E44;" d="M711.993,1483.019c-0.058,0-0.117-0.005-0.177-0.016c-0.543-0.097-0.905-0.616-0.809-1.16
					c2.531-14.207,6.393-28.23,11.476-41.684c7.378-19.525,17.374-38.037,29.713-55.021c0.323-0.446,0.948-0.546,1.396-0.221
					c0.446,0.325,0.546,0.95,0.221,1.397c-12.232,16.839-22.145,35.193-29.459,54.552c-5.04,13.338-8.868,27.242-11.378,41.327
					C712.891,1482.679,712.469,1483.019,711.993,1483.019z"/>
			</g>
		</g>
	</g>
</g>
</svg>
