<?xml version="1.0" encoding="utf-8"?>
<!-- Generator: Adobe Illustrator 27.5.0, SVG Export Plug-In . SVG Version: 6.00 Build 0)  -->
<svg version="1.1" xmlns="http://www.w3.org/2000/svg" xmlns:xlink="http://www.w3.org/1999/xlink" x="0px" y="0px"
	 viewBox="0 0 2500 2500" style="enable-background:new 0 0 2500 2500;" xml:space="preserve">
-
<g id="Illustration">
	<g id="Generation_X_1_">
		<circle style="fill:transparent;" cx="1250" cy="1250" r="915"/>
		<g>
			<g>
				<rect x="984.444" y="877.838" style="fill:#FFFFFF;" width="92.086" height="206.189"/>
				<rect x="1106.578" y="832.094" style="fill:#FFFFFF;" width="92.086" height="251.933"/>
				<rect x="1228.713" y="775.076" style="fill:#FFFFFF;" width="92.086" height="308.951"/>
				<path style="fill:#E6D0BE;" d="M1268.143,784.917l-23.005-93.428l-90.574,47.129l23.181,9.449
					c-7.549,18.85-21.827,44.969-48.93,68.285c-54.515,46.898-120.771,47.908-136.337,47.768
					c11.159,4.147,89.205,31.754,168.405-7.278c47.708-23.513,72.488-59.697,83.963-81.422L1268.143,784.917z"/>
			</g>
			<g>
				<path style="fill:#D3BBA3;" d="M1321.105,683.17H771.499c-1.218,0-2.205-0.987-2.205-2.205V539.538
					c0-1.218,0.987-2.205,2.205-2.205h549.606c1.219,0,2.205,0.987,2.205,2.205v141.427
					C1323.31,682.183,1322.324,683.17,1321.105,683.17z M773.704,678.76h545.197V541.743H773.704V678.76z"/>
				<g>
					<path style="fill:#E6D0BE;" d="M1253.164,493c-23.439-7.104-26.214-41.744-45.764-41.25
						c-48.41,1.221-70.389,152.32-107.102,150.325c-30.307-1.647-35.27-105.698-70.367-109.075
						c-37.463-3.605-63.878,111.852-104.338,109.075c-35.527-2.439-34.11-92.762-97.058-122.999
						c-10.576-5.08-21.658-7.829-32.771-8.919v181.568h501.077V480.779C1277.93,493.771,1263.856,496.241,1253.164,493z"/>
				</g>
			</g>
			<g>
				<path style="fill:#D3BBA3;" d="M1973.458,776.101h-457.817c-1.219,0-2.205-0.987-2.205-2.205V428.684
					c0-1.218,0.986-2.205,2.205-2.205s2.205,0.987,2.205,2.205v343.008h455.612c1.219,0,2.205,0.987,2.205,2.205
					S1974.677,776.101,1973.458,776.101z"/>
				<g>
					<path style="fill:#D87355;" d="M1853.18,543.233c-0.751,0-1.481-0.383-1.895-1.073c-0.624-1.045-0.284-2.4,0.762-3.024
						l62.482-37.343c1.042-0.627,2.396-0.284,3.023,0.761c0.624,1.045,0.284,2.4-0.762,3.024l-62.482,37.343
						C1853.955,543.133,1853.565,543.233,1853.18,543.233z"/>
					<path style="fill:#D87355;" d="M1813.615,533.249c-0.717,0-1.421-0.35-1.845-0.995l-84.657-128.882
						c-0.667-1.017-0.385-2.385,0.633-3.053c1.016-0.665,2.384-0.385,3.053,0.633l84.657,128.882
						c0.667,1.017,0.385,2.385-0.633,3.053C1814.451,533.131,1814.031,533.249,1813.615,533.249z"/>
					<path style="fill:#D87355;" d="M1626.316,449.591c-0.661,0-1.313-0.295-1.746-0.857c-0.745-0.964-0.568-2.348,0.396-3.093
						l65.77-50.809c0.965-0.747,2.353-0.564,3.092,0.397c0.745,0.964,0.568,2.348-0.396,3.093l-65.77,50.809
						C1627.261,449.441,1626.785,449.591,1626.316,449.591z"/>
					<path style="fill:#D87355;" d="M1604.984,493.688c-16.17,0-29.326-13.155-29.326-29.325s13.156-29.325,29.326-29.325
						s29.324,13.155,29.324,29.325S1621.155,493.688,1604.984,493.688z M1604.984,439.448c-13.739,0-24.916,11.177-24.916,24.915
						c0,13.738,11.177,24.915,24.916,24.915c13.737,0,24.914-11.177,24.914-24.915
						C1629.899,450.625,1618.722,439.448,1604.984,439.448z"/>
					<path style="fill:#D87355;" d="M1714.325,409.315c-16.17,0-29.326-13.155-29.326-29.325s13.156-29.325,29.326-29.325
						c16.17,0,29.324,13.155,29.324,29.325S1730.496,409.315,1714.325,409.315z M1714.325,355.075
						c-13.739,0-24.916,11.177-24.916,24.915c0,13.738,11.177,24.915,24.916,24.915c13.737,0,24.914-11.177,24.914-24.915
						C1739.24,366.252,1728.063,355.075,1714.325,355.075z"/>
					<path style="fill:#D87355;" d="M1829.288,583.326c-16.17,0-29.324-13.155-29.324-29.325s13.154-29.325,29.324-29.325
						c16.17,0,29.326,13.155,29.326,29.325S1845.458,583.326,1829.288,583.326z M1829.288,529.086
						c-13.737,0-24.914,11.177-24.914,24.915s11.177,24.915,24.914,24.915c13.739,0,24.916-11.177,24.916-24.915
						S1843.027,529.086,1829.288,529.086z"/>
					<path style="fill:#D87355;" d="M1939.499,520.073c-16.17,0-29.324-13.155-29.324-29.325c0-16.17,13.154-29.325,29.324-29.325
						c16.17,0,29.326,13.155,29.326,29.325C1968.825,506.918,1955.669,520.073,1939.499,520.073z M1939.499,465.833
						c-13.737,0-24.914,11.177-24.914,24.915c0,13.738,11.177,24.915,24.914,24.915c13.739,0,24.916-11.177,24.916-24.915
						C1964.415,477.01,1953.238,465.833,1939.499,465.833z"/>
				</g>
				<rect x="1572.937" y="534.568" style="fill:#D3BBA3;" width="67.447" height="184.936"/>
				<rect x="1684.241" y="497.725" style="fill:#D3BBA3;" width="67.447" height="221.778"/>
				<rect x="1795.545" y="599.992" style="fill:#D3BBA3;" width="67.447" height="119.511"/>
				<rect x="1906.849" y="565.674" style="fill:#D3BBA3;" width="67.447" height="153.83"/>
			</g>
		</g>
		<g>
			<g>
				<ellipse style="fill:#E0AA63;" cx="1134.683" cy="2071.989" rx="110.149" ry="34.878"/>
				<rect x="1024.533" y="2037.243" style="fill:#E0AA63;" width="220.299" height="35.935"/>
				<ellipse style="fill:#EFBC73;" cx="1134.683" cy="2037.925" rx="110.149" ry="34.878"/>
				<path style="fill:#FFFFFF;" d="M1147.66,2075.009c-63.002,0-112.354-16.29-112.354-37.083
					c0-20.794,49.352-37.083,112.354-37.083s112.354,16.288,112.354,37.083C1260.014,2058.719,1210.662,2075.009,1147.66,2075.009z
					 M1147.66,2005.252c-64.57,0-107.945,16.894-107.945,32.673s43.375,32.674,107.945,32.674s107.945-16.895,107.945-32.674
					S1212.23,2005.252,1147.66,2005.252z"/>
			</g>
			<g>
				<ellipse style="fill:#E0AA63;" cx="1127.333" cy="2020.543" rx="110.149" ry="34.878"/>
				<rect x="1017.184" y="1985.797" style="fill:#E0AA63;" width="220.299" height="35.935"/>
				<ellipse style="fill:#EFBC73;" cx="1127.333" cy="1986.479" rx="110.149" ry="34.878"/>
				<path style="fill:#FFFFFF;" d="M1140.31,2023.563c-63.002,0-112.354-16.289-112.354-37.083
					c0-20.794,49.352-37.083,112.354-37.083c63.002,0,112.353,16.29,112.353,37.083
					C1252.663,2007.274,1203.312,2023.563,1140.31,2023.563z M1140.31,1953.806c-64.569,0-107.945,16.895-107.945,32.674
					c0,15.779,43.375,32.673,107.945,32.673c64.57,0,107.945-16.894,107.945-32.673
					C1248.255,1970.701,1204.88,1953.806,1140.31,1953.806z"/>
			</g>
			<g>
				<ellipse style="fill:#E0AA63;" cx="1156.731" cy="1972.037" rx="110.149" ry="34.878"/>
				<rect x="1046.582" y="1937.291" style="fill:#E0AA63;" width="220.299" height="35.935"/>
				<ellipse style="fill:#EFBC73;" cx="1156.731" cy="1937.974" rx="110.149" ry="34.878"/>
				<path style="fill:#FFFFFF;" d="M1169.708,1975.056c-63.002,0-112.354-16.288-112.354-37.083
					c0-20.794,49.352-37.084,112.354-37.084c63.002,0,112.354,16.29,112.354,37.084
					C1282.063,1958.768,1232.71,1975.056,1169.708,1975.056z M1169.708,1905.3c-64.57,0-107.945,16.895-107.945,32.674
					s43.375,32.673,107.945,32.673c64.569,0,107.945-16.894,107.945-32.673S1234.278,1905.3,1169.708,1905.3z"/>
			</g>
			<g>
				<ellipse style="fill:#E0AA63;" cx="1144.972" cy="1905.893" rx="110.149" ry="34.878"/>
				<rect x="1034.823" y="1871.146" style="fill:#E0AA63;" width="220.299" height="35.935"/>
				<ellipse style="fill:#EFBC73;" cx="1144.972" cy="1871.829" rx="110.149" ry="34.878"/>
				<path style="fill:#FFFFFF;" d="M1157.949,1908.912c-63.002,0-112.354-16.289-112.354-37.083s49.352-37.084,112.354-37.084
					c63.002,0,112.353,16.29,112.353,37.084S1220.951,1908.912,1157.949,1908.912z M1157.949,1839.155
					c-64.57,0-107.945,16.895-107.945,32.674s43.375,32.673,107.945,32.673c64.569,0,107.944-16.894,107.944-32.673
					S1222.518,1839.155,1157.949,1839.155z"/>
			</g>
			<g>
				<ellipse style="fill:#E0AA63;" cx="1374.129" cy="2076.837" rx="110.149" ry="34.878"/>
				<rect x="1263.979" y="2042.091" style="fill:#E0AA63;" width="220.299" height="35.935"/>
				<ellipse style="fill:#EFBC73;" cx="1374.129" cy="2042.774" rx="110.149" ry="34.878"/>
				<path style="fill:#FFFFFF;" d="M1387.106,2079.856c-63.003,0-112.355-16.289-112.355-37.083
					c0-20.794,49.352-37.084,112.355-37.084c63.001,0,112.353,16.29,112.353,37.084
					C1499.459,2063.568,1450.107,2079.856,1387.106,2079.856z M1387.106,2010.1c-64.571,0-107.946,16.895-107.946,32.674
					s43.375,32.673,107.946,32.673c64.568,0,107.944-16.894,107.944-32.673S1451.674,2010.1,1387.106,2010.1z"/>
			</g>
			<g>
				<ellipse style="fill:#E0AA63;" cx="1396.838" cy="2020.064" rx="110.149" ry="34.878"/>
				<rect x="1286.688" y="1985.318" style="fill:#E0AA63;" width="220.299" height="35.935"/>
				<ellipse style="fill:#EFBC73;" cx="1396.838" cy="1986.001" rx="110.149" ry="34.878"/>
				<path style="fill:#FFFFFF;" d="M1409.815,2023.083c-63.003,0-112.355-16.288-112.355-37.083
					c0-20.795,49.352-37.083,112.355-37.083c63.001,0,112.353,16.288,112.353,37.083
					C1522.168,2006.795,1472.816,2023.083,1409.815,2023.083z M1409.815,1953.327c-64.571,0-107.946,16.895-107.946,32.674
					c0,15.778,43.375,32.673,107.946,32.673c64.568,0,107.944-16.895,107.944-32.673
					C1517.759,1970.222,1474.383,1953.327,1409.815,1953.327z"/>
			</g>
			<g>
				
					<ellipse transform="matrix(0.7104 -0.7038 0.7038 0.7104 -965.5934 1491.0244)" style="fill:#E0AA63;" cx="1329.099" cy="1918.903" rx="34.878" ry="110.149"/>
				
					<rect x="1230.87" y="1889.127" transform="matrix(0.7038 0.7104 -0.7104 0.7038 1752.1201 -387.7556)" style="fill:#E0AA63;" width="220.299" height="35.935"/>
				
					<ellipse transform="matrix(0.7104 -0.7038 0.7038 0.7104 -941.7145 1501.1129)" style="fill:#EFBC73;" cx="1353.299" cy="1894.93" rx="34.878" ry="110.149"/>
				<path style="fill:#FFFFFF;" d="M1429.096,1988.298c-20.843,0-57.554-22.259-93.009-58.052
					c-44.34-44.757-67.499-91.281-52.728-105.917c7.359-7.288,22.558-5.45,42.805,5.177c19.516,10.247,41.754,27.487,62.613,48.546
					c20.86,21.058,37.889,43.456,47.953,63.068c10.436,20.343,12.131,35.56,4.774,42.85
					C1438.542,1986.901,1434.316,1988.298,1429.096,1988.298z M1295.894,1824.311c-4.1,0-7.301,1.041-9.431,3.151
					c-11.209,11.106,7.314,53.81,52.754,99.682c45.442,45.871,87.971,64.8,99.18,53.693c5.794-5.739,3.755-19.482-5.594-37.704
					c-9.861-19.221-26.609-41.232-47.16-61.978c-20.552-20.745-42.404-37.701-61.53-47.744
					C1312.648,1827.391,1302.944,1824.311,1295.894,1824.311z"/>
			</g>
		</g>
		<g>
			<g>
				<path style="fill:#FFFFFF;" d="M1819.426,1403.38h-24.279c-2.174-11.835-5.275-23.344-9.215-34.456l21.011-12.131
					l-41.083-71.159l0,0l-21.059,12.159c-7.728-9.047-16.156-17.476-25.203-25.204l12.158-21.059l-71.158-41.083h0l-12.131,21.012
					c-11.112-3.941-22.621-7.042-34.456-9.216v-24.279h-82.166l0,0v24.279c-11.835,2.174-23.344,5.275-34.456,9.216l-12.131-21.012
					l0,0l-71.158,41.083l12.158,21.059c-9.047,7.728-17.475,16.156-25.204,25.204l-21.059-12.159h0l-41.083,71.159l0,0
					l21.011,12.131c-3.941,11.112-7.042,22.621-9.216,34.456h-24.278l0,0v82.166h24.279c2.174,11.835,5.275,23.344,9.216,34.456
					l-21.011,12.131v0l41.083,71.158l0,0l21.059-12.159c7.728,9.047,16.156,17.476,25.204,25.204l-12.158,21.059l71.158,41.083l0,0
					l12.131-21.012c11.112,3.941,22.621,7.042,34.456,9.216v24.278l0,0h82.166v-24.279c11.835-2.174,23.344-5.275,34.456-9.216
					l12.131,21.012l0,0l71.158-41.083l-12.158-21.059c9.047-7.728,17.475-16.157,25.203-25.204l21.059,12.159v0l41.083-71.158v0
					l-21.011-12.131c3.941-11.112,7.042-22.621,9.215-34.456h24.279V1403.38z M1698.766,1496.944
					c-12.762,33.757-39.605,60.599-73.363,73.36c-114.699,43.358-221.678-63.622-178.316-178.322
					c12.762-33.758,39.605-60.6,73.363-73.361C1635.15,1275.264,1742.129,1382.244,1698.766,1496.944z"/>
			</g>
			<path style="fill:#F2E6DC;" d="M1572.926,1626.408c-100.326,0-181.945-81.62-181.945-181.945
				c0-43.835,15.808-86.181,44.514-119.238c28.422-32.728,67.553-54.277,110.187-60.679c1.206-0.181,2.328,0.65,2.508,1.853
				c0.181,1.204-0.65,2.326-1.854,2.507c-86.053,12.922-150.946,88.395-150.946,175.557c0,97.894,79.643,177.535,177.535,177.535
				c80.885,0,151.553-54.608,171.851-132.797c0.306-1.178,1.512-1.888,2.687-1.579c1.18,0.306,1.886,1.509,1.58,2.688
				C1728.243,1570.442,1655.82,1626.408,1572.926,1626.408z"/>
		</g>
		<g>
			<g>
				<g>
					<polygon style="fill:#E2A18D;" points="1732.66,2038.316 1853.56,2036.499 1797.922,1661.565 1671.512,1689.493 					"/>
					<g>
						<path style="fill:#FFFFFF;" d="M1563.742,2118.573h313.079l-28.828-119.683H1725.34l-88.694,27.056
							C1593.179,2037.718,1563.341,2075.628,1563.742,2118.573L1563.742,2118.573z"/>
						<path style="fill:#D3BBA3;" d="M1876.821,2120.778h-313.078c-1.21,0-2.194-0.974-2.205-2.185
							c-0.159-16.897,4.319-33.619,12.951-48.36c0.616-1.052,1.968-1.406,3.017-0.788c1.051,0.615,1.404,1.966,0.79,3.016
							c-7.857,13.417-12.105,28.551-12.342,43.906h308.068l-28.174-116.962c-0.284-1.184,0.444-2.375,1.628-2.66
							c1.186-0.285,2.375,0.443,2.661,1.627l28.828,119.684c0.157,0.658,0.006,1.35-0.413,1.881
							C1878.135,2120.468,1877.497,2120.778,1876.821,2120.778z"/>
					</g>
				</g>
				<g>
					<polygon style="fill:#E2A18D;" points="1911.188,2042.728 2032.088,2040.911 1978.653,1664.508 1847.834,1707.134 					"/>
					<g>
						<path style="fill:#E6D0BE;" d="M1742.27,2122.985h313.079l-28.828-119.683h-122.652l-88.694,27.056
							C1771.707,2042.131,1741.869,2080.04,1742.27,2122.985L1742.27,2122.985z"/>
					</g>
				</g>
				<g>
					<path style="fill:#363E44;" d="M1673.558,1130.483c-24.538,50.255-46.781,100.682-56.56,152.043
						c-15.08,153.428,24.845,313.411,50.073,471.644c110.241-1.47,227.832-5.879,338.073-7.35c0,0-4.48-176.316-16.169-377.759
						c-5.517-95.073-82.487-234.93-82.487-234.93L1673.558,1130.483z"/>
					<path style="fill:#EFBC73;" d="M1795.688,1219.909c-1.189,0-2.168-0.947-2.203-2.143c-0.032-1.218,0.926-2.232,2.144-2.265
						c39-1.081,75.909-4.856,116.156-11.881c1.199-0.203,2.343,0.595,2.552,1.793c0.209,1.199-0.594,2.342-1.794,2.552
						c-40.462,7.061-77.573,10.857-116.793,11.943C1795.731,1219.909,1795.71,1219.909,1795.688,1219.909z"/>
					<path style="fill:#EFBC73;" d="M1714.321,1218.228c-0.052,0-0.103-0.002-0.157-0.005c-23.284-1.632-46.803-4.3-69.904-7.93
						c-1.204-0.188-2.024-1.318-1.837-2.52c0.192-1.204,1.313-2.023,2.521-1.836c22.976,3.611,46.368,6.264,69.529,7.887
						c1.214,0.085,2.13,1.139,2.043,2.353C1716.438,1217.339,1715.469,1218.228,1714.321,1218.228z"/>
					<path style="fill:#EFBC73;" d="M1754.957,1243.981c-25.859,0-46.895-21.037-46.895-46.896
						c0-25.858,21.036-46.895,46.895-46.895s46.896,21.037,46.896,46.895C1801.853,1222.944,1780.817,1243.981,1754.957,1243.981z
						 M1754.957,1154.6c-23.426,0-42.486,19.059-42.486,42.486c0,23.427,19.06,42.486,42.486,42.486s42.486-19.059,42.486-42.486
						C1797.443,1173.659,1778.384,1154.6,1754.957,1154.6z"/>
					<path style="fill:#EFBC73;" d="M1754.957,1218.093c-11.582,0-21.006-9.423-21.006-21.007c0-11.583,9.424-21.006,21.006-21.006
						c11.582,0,21.006,9.423,21.006,21.006C1775.964,1208.67,1766.539,1218.093,1754.957,1218.093z M1754.957,1180.489
						c-9.151,0-16.596,7.446-16.596,16.596c0,9.152,7.446,16.598,16.596,16.598c9.151,0,16.597-7.446,16.597-16.598
						C1771.554,1187.935,1764.108,1180.489,1754.957,1180.489z"/>
				</g>
			</g>
			<g>
				<g>
					<path style="fill:#E2A18D;" d="M1697.253,1066.958c-60.624,32.738-229.801,137.928-273.18,66.416
						c-35.881-59.152,133.395-154.325,191.488-190.737C1642.792,984.077,1670.023,1025.517,1697.253,1066.958z"/>
					<g>
						<path style="fill:#E2A18D;" d="M1532.712,1057.013c0,0,0.002-0.007-0.001-0.009
							c-92.191-84.626-155.977-146.435-176.418-164.743c-2.141-1.917-5.904-5.318-11.81-8.248
							c-21.883-10.856-38.118,2.153-66.337,1.238c-32.018-1.039-49.459-19.751-54.93-13.669
							c-3.806,4.231,0.786,13.142,16.008,26.427l-0.002,0.003c-12.725-8.764-30.503-19.897-35.326-12.85
							c-5.134,8.434,14.216,23.967,26.381,32.791c-14.725-10.681-25.75-11.955-27.46-7.356c-2.692,7.239,6.798,18.181,26.806,31.542
							l0,0.002c-16.392-5.366-21.169-4.225-21.689,0.209c-0.95,8.095,15.706,18.77,31.877,25.95
							c18.205,8.083,35.128,8.036,45.798,7.753c0.003,0,0.006,0.001,0.007,0.003c58.423,65.965,98.942,106.021,142.007,162.698
							C1455.069,1174.873,1544.851,1124.564,1532.712,1057.013z"/>
						<path style="fill:#363E44;" d="M1534.041,1059.436c-0.534,0-1.068-0.192-1.492-0.581
							c-12.269-11.266-25.017-23.03-38.395-35.443c-0.894-0.828-0.945-2.223-0.118-3.116c0.829-0.895,2.224-0.945,3.116-0.116
							c13.373,12.406,26.118,24.166,38.382,35.428c0.896,0.824,0.956,2.218,0.131,3.115
							C1535.229,1059.196,1534.635,1059.436,1534.041,1059.436z"/>
						<path style="fill:#E2A18D;" d="M1303.833,892.127c-21.933-22.884-24.994-35.786-21.257-39.147
							c6.285-5.651,33.008,6.221,69.276,35.629C1338.562,890.789,1317.124,889.947,1303.833,892.127z"/>
						<g>
							<path style="fill:#363E44;" d="M1323.091,943.497c-0.581,0-1.161-0.228-1.593-0.68c-3.684-3.853-10.008-8.887-19.21-10.994
								c-13.018-2.984-23.725,1.917-27.719,4.164c-1.064,0.599-2.405,0.22-3.001-0.841c-0.599-1.062-0.222-2.405,0.84-3.003
								c4.44-2.498,16.327-7.952,30.867-4.618c10.266,2.35,17.309,7.956,21.411,12.244c0.842,0.88,0.81,2.275-0.069,3.117
								C1324.187,943.295,1323.64,943.497,1323.091,943.497z"/>
							<path style="fill:#363E44;" d="M1296.783,887.355c-1.074,0-2.013-0.784-2.179-1.878c-0.181-1.204,0.65-2.326,1.854-2.507
								c3.714-0.559,7.248-1.247,10.662-1.912c7.43-1.448,14.463-2.808,21.635-2.478c1.217,0.057,2.155,1.089,2.099,2.306
								c-0.058,1.216-1.107,2.125-2.306,2.099c-6.651-0.312-13.421,1.005-20.584,2.401c-3.462,0.675-7.043,1.373-10.852,1.944
								C1297.003,887.347,1296.891,887.355,1296.783,887.355z"/>
							<path style="fill:#363E44;" d="M1266.954,908.168c-0.054,0-0.108-0.002-0.161-0.005c-3.985-0.29-7.958-0.952-11.808-1.966
								c-5.587-1.471-10.971-3.693-16.001-6.603c-1.054-0.61-1.413-1.959-0.804-3.013c0.611-1.054,1.959-1.415,3.013-0.804
								c4.688,2.714,9.707,4.785,14.916,6.156c3.587,0.945,7.288,1.562,11.002,1.831c1.214,0.088,2.127,1.144,2.039,2.359
								C1269.066,907.283,1268.099,908.168,1266.954,908.168z"/>
							<path style="fill:#363E44;" d="M1256.149,926.658c-0.054,0-0.108-0.002-0.164-0.005c-3.987-0.292-7.958-0.953-11.805-1.967
								c-5.59-1.472-10.974-3.694-16-6.604c-1.054-0.609-1.414-1.958-0.803-3.012c0.609-1.054,1.958-1.415,3.012-0.803
								c4.686,2.712,9.704,4.783,14.915,6.156c3.584,0.944,7.285,1.56,11.004,1.831c1.214,0.089,2.125,1.145,2.037,2.36
								C1258.262,925.775,1257.295,926.658,1256.149,926.658z"/>
							<path style="fill:#363E44;" d="M1256.961,952.696c-0.054,0-0.108-0.002-0.161-0.005c-3.988-0.291-7.959-0.952-11.807-1.966
								c-5.589-1.472-10.973-3.693-16.001-6.603c-1.054-0.61-1.414-1.959-0.804-3.013c0.61-1.054,1.957-1.415,3.013-0.804
								c4.688,2.714,9.706,4.784,14.916,6.157c3.585,0.944,7.287,1.56,11.001,1.83c1.214,0.088,2.127,1.144,2.039,2.36
								C1259.073,951.811,1258.107,952.696,1256.961,952.696z"/>
						</g>
					</g>
				</g>
				<path style="fill:#E2A18D;" d="M1987.296,957.873c43.052,34.667,173.426,127.111,134.013,181.418
					c-32.602,44.92-155.597-50.71-200.581-82.363C1942.917,1023.91,1965.106,990.891,1987.296,957.873z"/>
				<g>
					<path style="fill:#FFFFFF;" d="M2025.739,976.274c-15.811-14.618-134.357-120.628-295.578-94.252
						c-92.972,15.21-154.308,66.949-179.528,91.046c19.236,23.936,38.471,47.873,57.705,71.81
						c-9.831,50.011-19.661,100.023-29.493,150.034c73.092-0.642,309.043-7.695,383.418-10.259
						c-13.251-42.317-19.008-58.48-32.259-100.798c10.258,8.549,13.025,10.625,23.283,19.173
						C1977.01,1063.473,2004.581,1013.462,2025.739,976.274z"/>
					<path style="fill:#363E44;" d="M1710.659,1060.315c-0.648,0-1.288-0.283-1.725-0.828l-42.587-53.235l36.868-36.869
						l-32.282-14.946l39.698-61.124c0.663-1.023,2.026-1.31,3.051-0.649c1.021,0.664,1.311,2.029,0.648,3.05l-36.929,56.859
						l33.397,15.463l-38.543,38.544l40.124,50.154c0.76,0.951,0.605,2.338-0.344,3.098
						C1711.628,1060.157,1711.141,1060.315,1710.659,1060.315z"/>
					<path style="fill:#363E44;" d="M1736.074,1059.254c-0.784,0-1.542-0.418-1.94-1.154c-0.581-1.071-0.183-2.409,0.887-2.99
						l56.458-30.592l-21.833-52.526l44.391-9.866l-8.666-67.741c-0.153-1.208,0.7-2.312,1.908-2.466
						c1.219-0.169,2.315,0.7,2.468,1.907l9.175,71.733l-43.186,9.596l21.342,51.344l-59.954,32.489
						C1736.789,1059.169,1736.43,1059.254,1736.074,1059.254z"/>
					<path style="fill:#363E44;" d="M1710.861,1193.505c-0.073,0-0.146-0.003-0.222-0.011c-1.212-0.122-2.095-1.202-1.974-2.414
						l24.162-241.141c0.121-1.211,1.184-2.089,2.414-1.974c1.212,0.122,2.095,1.203,1.974,2.414l-24.162,241.141
						C1712.939,1192.657,1711.981,1193.505,1710.861,1193.505z"/>
				</g>
				<g>
					
						<rect x="1803.316" y="1031.288" transform="matrix(0.7793 -0.6267 0.6267 0.7793 -313.0547 1459.5062)" style="fill:#EFBC73;" width="223.912" height="285.706"/>
					<g>
						<path style="fill:#363E44;" d="M1819.696,1133.322c-0.646,0-1.285-0.281-1.72-0.823c-0.762-0.95-0.611-2.337,0.336-3.101
							l67.986-54.678c0.947-0.764,2.338-0.613,3.1,0.336c0.762,0.95,0.612,2.337-0.336,3.101l-67.985,54.678
							C1820.669,1133.162,1820.181,1133.322,1819.696,1133.322z"/>
						<path style="fill:#363E44;" d="M1844.871,1164.623c-0.646,0-1.286-0.281-1.72-0.824c-0.762-0.948-0.611-2.336,0.336-3.099
							l67.985-54.677c0.95-0.764,2.341-0.613,3.101,0.337c0.762,0.948,0.611,2.336-0.336,3.099l-67.986,54.677
							C1845.844,1164.464,1845.355,1164.623,1844.871,1164.623z"/>
						<path style="fill:#363E44;" d="M1840.108,1142.679c-0.646,0-1.285-0.281-1.72-0.823c-0.762-0.948-0.611-2.336,0.336-3.099
							l52.336-42.091c0.947-0.764,2.338-0.614,3.1,0.337c0.762,0.948,0.612,2.336-0.336,3.099l-52.336,42.091
							C1841.081,1142.52,1840.592,1142.679,1840.108,1142.679z"/>
					</g>
				</g>
				<g>
					<g>
						<path style="fill:#E2A18D;" d="M2013.109,1097.418c-41.562,33.21-143.311,106.576-152.957,114.133
							c-18.033,14.127-57.496,43.28-50.56,57.386c2.307,4.691,7.932,7.535,14.173,7.898c-1.911,6.428,0.125,13.305,5.103,17.361
							c6.542,5.33,14.609,2.891,15.198,2.702c-2.121,4.741-1.764,10.127,1.11,13.884c3.966,5.183,12.24,6.631,18.933,2.444
							c0.134,1.466,0.79,6.672,5.077,10.457c4.75,4.194,12.039,4.948,18.443,1.877c16.032-12.539,44.218-27.997,76.803-48.543
							c76.53-48.254,108.631-72.983,141.379-102.987c12.702-11.638,31.111-39.033,19.374-75.511
							C2087.526,1098.07,2050.769,1097.867,2013.109,1097.418z"/>
						<path style="fill:#363E44;" d="M1997.345,1112.093c-0.657,0-1.307-0.292-1.742-0.849c-0.747-0.961-0.575-2.347,0.385-3.095
							c9.151-7.128,16.706-13.031,20.84-16.306c0.954-0.755,2.343-0.594,3.098,0.361c0.756,0.954,0.594,2.34-0.359,3.097
							c-4.143,3.279-11.707,9.189-20.87,16.327C1998.295,1111.941,1997.819,1112.093,1997.345,1112.093z"/>
						<path style="fill:#363E44;" d="M1839.688,1256.783c-0.605,0-1.208-0.248-1.643-0.735l-6.722-7.51
							c-0.812-0.908-0.734-2.302,0.172-3.114c0.904-0.813,2.304-0.735,3.113,0.172l6.722,7.512c0.812,0.907,0.734,2.302-0.172,3.113
							C1840.736,1256.598,1840.211,1256.783,1839.688,1256.783z"/>
						<path style="fill:#363E44;" d="M1856.722,1275.866c-0.605,0-1.208-0.248-1.643-0.734l-6.724-7.511
							c-0.812-0.908-0.734-2.302,0.172-3.114c0.906-0.812,2.304-0.735,3.114,0.172l6.724,7.511c0.812,0.907,0.734,2.301-0.172,3.114
							C1857.772,1275.681,1857.247,1275.866,1856.722,1275.866z"/>
						<path style="fill:#363E44;" d="M1873.852,1295.49c-0.605,0-1.208-0.248-1.643-0.734l-6.724-7.511
							c-0.812-0.906-0.734-2.301,0.172-3.113c0.904-0.811,2.3-0.737,3.114,0.172l6.724,7.511c0.812,0.907,0.734,2.302-0.172,3.113
							C1874.903,1295.305,1874.375,1295.49,1873.852,1295.49z"/>
						<path style="fill:#363E44;" d="M1889.753,1312.966c-0.605,0-1.208-0.248-1.643-0.734l-6.724-7.511
							c-0.812-0.907-0.734-2.302,0.172-3.113c0.904-0.813,2.302-0.735,3.113,0.172l6.724,7.511c0.812,0.907,0.734,2.302-0.172,3.113
							C1890.804,1312.781,1890.276,1312.966,1889.753,1312.966z"/>
					</g>
				</g>
			</g>
			<g>
				<g>
					
						<ellipse transform="matrix(0.9773 -0.2119 0.2119 0.9773 -129.7368 407.127)" style="fill:#84524D;" cx="1835.024" cy="808.991" rx="54.412" ry="54.412"/>
					<path style="fill:#84524D;" d="M1819.911,832.476c-16.65,0-30.661-6.577-36.287-18.755l0,0
						c-8.979-19.445,6.772-45.914,35.114-59.003c28.338-13.09,58.703-7.924,67.686,11.52c8.979,19.445-6.772,45.913-35.114,59.003
						C1840.722,830.133,1829.846,832.476,1819.911,832.476z M1787.629,811.871c7.96,17.238,35.703,21.438,61.834,9.367
						c26.133-12.07,40.916-35.913,32.956-53.15c-7.96-17.237-35.697-21.44-61.834-9.367
						C1794.453,770.79,1779.667,794.634,1787.629,811.871L1787.629,811.871z"/>
				</g>
				<g>
					<path style="fill:#E2A18D;" d="M1689.865,849.106c19.176,13.618,73.344-23.354,73.344-23.354l30.993-64.827
						c0-33.087-26.822-59.91-59.91-59.91s-59.91,26.822-59.91,59.91C1674.382,760.925,1670.334,835.236,1689.865,849.106z"/>
					<polygon style="fill:#E2A18D;" points="1794.201,896.267 1733.952,944.633 1721.605,896.267 1721.605,744.808 
						1794.201,744.808 					"/>
					<path style="fill:#E2A18D;" d="M1681.267,776.678c0,0-16.804,17.606-15.91,22.254c1.067,5.548,19.785,8.932,19.785,8.932
						S1680.82,776.721,1681.267,776.678z"/>
					<g>
						<path style="fill:#FFFFFF;" d="M1735.333,774.114c0,0-10.03-5.394-22.12-5.394c-2.572,0,2.281,20.585,4.723,19.419
							C1728.671,783.015,1735.333,774.114,1735.333,774.114z"/>
						<g>
							<defs>
								<path id="SVGID_1_" d="M1735.333,774.114c0,0-14.752-7.934-30.041-4.557c-15.289,3.377-25.326,16.787-25.326,16.787
									s14.752,7.934,30.041,4.557C1725.296,787.524,1735.333,774.114,1735.333,774.114z"/>
							</defs>
							<clipPath id="SVGID_00000137103343878899620070000002415004282999307920_">
								<use xlink:href="#SVGID_1_"  style="overflow:visible;"/>
							</clipPath>
							<path style="clip-path:url(#SVGID_00000137103343878899620070000002415004282999307920_);fill:#363E44;" d="M1712.7,768.191
								c-7.997-7.996-20.962-7.996-28.958,0c-7.996,7.996-7.996,20.962,0,28.958c7.997,7.996,20.962,7.996,28.958,0
								C1720.697,789.153,1720.697,776.188,1712.7,768.191z"/>
						</g>
					</g>
					<path style="fill:#363E44;" d="M1699.973,820.44c-2.005,0-4.014-0.564-5.771-1.693c-1.023-0.659-1.32-2.023-0.661-3.047
						c0.657-1.026,2.02-1.321,3.047-0.663c2.061,1.325,4.705,1.326,6.744,0.005c1.959-1.273,3.047-3.609,2.769-5.951
						c-0.144-1.21,0.721-2.306,1.929-2.45c1.208-0.143,2.306,0.721,2.45,1.929c0.474,4-1.389,7.991-4.75,10.172
						C1703.986,819.873,1701.981,820.44,1699.973,820.44z"/>
					<path style="fill:#363E44;" d="M1708.258,854.658c-1.049,0-1.979-0.75-2.168-1.818c-0.213-1.199,0.586-2.344,1.785-2.557
						c22.716-4.044,53.779-25.107,54.091-25.32c1.001-0.686,2.375-0.425,3.064,0.579c0.687,1.005,0.426,2.377-0.579,3.064
						c-1.301,0.888-32.151,21.807-55.805,26.017C1708.516,854.648,1708.385,854.658,1708.258,854.658z"/>
				</g>
				<g>
					<path style="fill:#84524D;" d="M1807.464,794.936c14.052-12.744,7.568-52.895-9.885-74.648
						c-22.5-28.046-65.78-35.66-95.445-24.021c-7.293,2.861-23.296,11.615-25.795,23.97c-4.681,23.144,35.441,52.271,49.978,60.189
						C1748.506,792.511,1792.024,808.94,1807.464,794.936z"/>
					<path style="fill:#84524D;" d="M1768.083,806.251c-18.252,0-36.091-5.591-50.879-16.672
						c-31.378-23.51-33.772-60.951-33.933-68.219c-0.026-1.217,0.939-2.225,2.155-2.252c0.017-0.001,0.034-0.001,0.049-0.001
						c1.195,0,2.177,0.955,2.205,2.156c0.153,6.908,2.425,42.502,32.168,64.787c26.303,19.709,62.842,21.076,93.091,3.487
						c1.051-0.615,2.401-0.255,3.014,0.797c0.614,1.053,0.256,2.403-0.797,3.014
						C1800.328,801.972,1784.046,806.251,1768.083,806.251z"/>
				</g>
			</g>
		</g>
		<g>
			<g>
				<path style="fill:#BC8271;" d="M709.657,1011.684c37.378-19.578,74.757-39.155,112.135-58.733
					c14.813,26.862,36.606,70.714,64.381,125.694c31.51,47.084,110.464,153.42,117.773,164.13
					c13.698,20.07,44.076,62.026,32.537,74.06c-3.838,4.002-10.277,5.252-16.702,3.616c-0.132,7.112-4.397,13.41-10.731,15.912
					c-8.324,3.29-15.697-1.765-16.231-2.146c0.623,5.474-1.468,10.805-5.578,13.68c-5.673,3.967-14.502,2.776-19.924-3.606
					c-0.607,1.44-2.941,6.492-8.488,8.942c-6.149,2.716-13.759,1.138-19.247-4.021c-12.185-17.822-35.717-42.495-62.064-73.723
					c-61.883-73.344-86.397-108.646-109.874-149.488C762.618,1117.265,720.57,1028.756,709.657,1011.684z"/>
				<polygon style="fill:#FFFFFF;" points="743.3,831.981 965.485,1165.643 841.648,1259.669 602.066,963.473 				"/>
				<path style="fill:#363E44;" d="M989.866,1265.607c-0.044,0-0.089-0.001-0.133-0.004c-5.55-0.332-16.284-2.151-25.816-10.612
					c-7.463-6.624-10.917-14.389-12.501-19.737c-0.346-1.168,0.321-2.395,1.488-2.741c1.163-0.341,2.394,0.321,2.741,1.488
					c1.42,4.797,4.516,11.759,11.2,17.691c8.539,7.58,18.17,9.211,23.152,9.509c1.215,0.072,2.142,1.116,2.069,2.332
					C991.994,1264.705,991.023,1265.607,989.866,1265.607z"/>
				<g>
					
						<rect x="895.7" y="1327.119" transform="matrix(0.8069 -0.5906 0.5906 0.8069 -658.147 935.6193)" style="fill:#84524D;" width="412.729" height="294.806"/>
					<path style="fill:#84524D;" d="M982.478,1414.579c-1.571,0-3.152-0.122-4.734-0.366c-8.059-1.247-15.151-5.558-19.968-12.138
						l-24.621-33.636c-9.943-13.585-6.982-32.728,6.604-42.672l65.377-47.854c6.581-4.817,14.648-6.779,22.703-5.536
						c8.06,1.248,15.152,5.558,19.969,12.139l24.62,33.635c4.817,6.581,6.783,14.645,5.536,22.704
						c-1.248,8.059-5.558,15.151-12.139,19.968l-65.377,47.854C995.158,1412.549,988.911,1414.579,982.478,1414.579z
						 M1023.115,1276.422c-5.505,0-10.849,1.736-15.373,5.05l-65.377,47.854c-11.624,8.507-14.158,24.885-5.65,36.508l24.621,33.636
						c4.121,5.63,10.188,9.319,17.083,10.386c6.895,1.068,13.792-0.615,19.424-4.737l65.377-47.854
						c5.631-4.121,9.32-10.188,10.387-17.083c1.067-6.895-0.615-13.794-4.737-19.425l-24.62-33.635
						c-4.121-5.631-10.189-9.32-17.084-10.387C1025.811,1276.525,1024.458,1276.422,1023.115,1276.422z"/>
					<path style="fill:#363E44;" d="M1114.193,1492.346l-230.404-5.345c-1.218-0.028-2.182-1.038-2.153-2.254
						c0.027-1.219,0.998-2.244,2.254-2.153l226.999,5.266l61.99-216.941c0.336-1.169,1.555-1.847,2.726-1.514
						c1.17,0.335,1.848,1.554,1.514,2.726L1114.193,1492.346z"/>
					
						<rect x="1082.118" y="1471.658" transform="matrix(0.8069 -0.5906 0.5906 0.8069 -663.755 943.4258)" style="fill:#EFBC73;" width="58.164" height="30.687"/>
				</g>
				<path style="fill:#BC8271;" d="M938.755,1337.39c-3.799-8.314-8.708-20.965,3.217-26.328c4.318-1.942,9.981-0.062,14.003,3.565
					c0.276,0.249,0.703-0.006,0.582-0.348c-2.121-5.968,0.547-12.657,6.344-15.651c5.187-2.678,10.725-1.044,15.609,2.326
					c0.339,0.234,0.75-0.137,0.526-0.472c-4.101-6.119-3.177-13.574,1.99-17.346c4.905-3.581,12.859-3.049,17.89,1.858
					c0.254,0.248,0.687,0.016,0.6-0.319c-1.156-4.436,0.209-9.019,3.52-11.73c4.748-3.89,15.063-3.287,21.514,6.388L938.755,1337.39
					z"/>
				<path style="fill:#363E44;" d="M934.638,1332.631c-0.836,0-1.636-0.478-2.007-1.289c-2.067-4.524-2.146-9.644-0.215-14.047
					c1.765-4.026,4.997-7.062,8.871-8.329c3.89-1.269,8.401-0.717,12.353,1.362c-0.074-5.562,3.016-10.956,8.25-13.66
					c3.938-2.032,8.324-2.108,12.896-0.258c-1.519-5.738,0.236-11.62,4.94-15.055c4.845-3.537,11.752-3.608,17.205-0.564
					c0.202-3.732,1.866-7.224,4.708-9.552c5.901-4.829,15.28-3.924,20.909,2.025c0.836,0.885,0.798,2.28-0.086,3.118
					c-0.883,0.835-2.277,0.799-3.118-0.086c-4.42-4.671-11.279-4.62-14.91-1.645c-2.629,2.153-3.722,5.87-2.784,9.469
					c0.29,1.113-0.186,2.252-1.185,2.833c-0.995,0.577-2.265,0.422-3.086-0.379c-4.089-3.989-10.841-4.731-15.051-1.657
					c-4.237,3.093-4.865,9.257-1.46,14.338c0.683,1.014,0.548,2.375-0.32,3.233c-0.88,0.869-2.261,0.988-3.288,0.283
					c-4.992-3.445-9.481-4.181-13.346-2.183c-4.761,2.458-7.029,8.027-5.277,12.953c0.389,1.095-0.013,2.31-0.976,2.956
					c-0.979,0.655-2.278,0.562-3.158-0.23c-3.454-3.114-8.099-4.334-11.845-3.108c-2.681,0.876-4.941,3.03-6.203,5.907
					c-1.447,3.303-1.38,7.012,0.188,10.445c0.506,1.107,0.018,2.416-1.09,2.922C935.256,1332.568,934.945,1332.631,934.638,1332.631
					z M977.202,1301.707c0.001,0.002,0.002,0.003,0.003,0.004C977.204,1301.71,977.203,1301.709,977.202,1301.707z"/>
				<path style="fill:#BC8271;" d="M1003.81,1262.98c35.808,3.086,49.379-3.39,49.687-9.08c0.518-9.569-28.975-24.718-80.741-35.821
					C980.285,1231.364,996.279,1249.695,1003.81,1262.98z"/>
			</g>
			<g>
				<g>
					<path style="fill:#84524D;" d="M932.577,2110.661l-320.244-87.832l63.064-114.335l125.46,34.409l83.133,52.557
						C925.15,2019.697,945.036,2066.846,932.577,2110.661L932.577,2110.661z"/>
				</g>
				<g>
					<path style="fill:#84524D;" d="M704.113,2088.53h-332.07l30.577-126.943h130.093l94.074,28.697
						C672.891,2002.771,704.538,2042.98,704.113,2088.53L704.113,2088.53z"/>
				</g>
				<g>
					<path style="fill:#363E44;" d="M483.249,1070.836c-13.705,36.021-23.643,76.959-36.723,120.371
						c-69.323,230.07-52.755,777.569-52.755,777.569l151.398,2.94c0,0,77.189-350.468,105.572-559.47
						c23.222,55.476,67.087,146.179,67.087,146.179s-42.347,300.458-56.539,366.255c56.766,21.932,102.891,36.747,163.157,36.747
						c83.429-279.528,134.619-392.544,99.803-498.471c-44.852-136.462-158.225-383.863-196.177-437.003
						C646.464,1040.913,564.856,1055.875,483.249,1070.836z"/>
				</g>
			</g>
			<g>
				<path style="fill:#FFFFFF;" d="M452.006,907.338c13.916-49.555,61.575-127.041,162.497-136.424
					c85.578-7.956,148.15,64.291,169.437,145.569c14.693,56.099,7.096,138.689,14.837,200.615
					c-76.654,11.611-371.558,52.25-371.558,52.25S428.816,989.916,452.006,907.338z"/>
				<path style="fill:#363E44;" d="M780.067,1088.986c-1.059,0-1.994-0.766-2.173-1.844
					c-17.173-103.673-68.36-224.705-68.875-225.915c-0.477-1.121,0.044-2.416,1.165-2.892c1.126-0.479,2.416,0.045,2.892,1.165
					c0.518,1.216,51.908,122.721,69.168,226.921c0.199,1.201-0.613,2.337-1.814,2.535
					C780.307,1088.976,780.186,1088.986,780.067,1088.986z"/>
				<g>
					<path style="fill:#FFFFFF;" d="M658.051,984.294c55.743,210.457,3.968,194.935-32.457,203.315
						c-29.363,6.756-76.568-81.814-100.463-171.241L658.051,984.294z"/>
				</g>
				<g>
					<path style="fill:#BC8271;" d="M643.35,1066.44c55.281-11.319,180.327-37.058,193.035-39.788
						c23.756-5.103,138.438-28.438,142.963-11.906c4.885,17.85-55.215,23.555-65.059,26.581
						c12.386-0.553,75.427-17.117,78.134-3.822c3.419,16.79-75.015,33.635-75.569,33.987c8.714-1.457,70.605-17.286,73.844-4.09
						c4.202,17.118-63.399,29.126-74.148,31.509c1.104,1.104,46.073-14.063,50.129,0.026c4.302,14.946-49.198,24.38-56.048,27.513
						c-18.134,7.677-52.836,17.023-91.703,29.626c-91.282,29.599-132.976,49.315-179.912,45.281
						c-21.005-1.805-44.823-26.378-65.009-62.31C599.211,1108.054,618.146,1097.431,643.35,1066.44z"/>
					<path style="fill:#FFFFFF;" d="M780.564,1180.071c0,0-168.543,45.954-219.817,12.635
						c-29.429-19.123-48.595-99.177-48.595-99.177l239.263-50.785L780.564,1180.071z"/>
					<path style="fill:#363E44;" d="M533.656,1157.042c-0.88,0-1.711-0.53-2.053-1.397l-58.056-147.398
						c-0.446-1.134,0.111-2.414,1.243-2.86c1.138-0.446,2.414,0.112,2.86,1.243l58.056,147.398c0.446,1.134-0.111,2.414-1.244,2.86
						C534.197,1156.992,533.924,1157.042,533.656,1157.042z"/>
					<path style="fill:#363E44;" d="M598.157,1067.699c-1.074,0-2.015-0.786-2.178-1.881c-0.179-1.205,0.652-2.327,1.857-2.505
						l153.255-22.749c1.206-0.179,2.326,0.654,2.505,1.857c0.179,1.205-0.652,2.326-1.857,2.505l-153.255,22.749
						C598.375,1067.692,598.265,1067.699,598.157,1067.699z"/>
					<path style="fill:#363E44;" d="M653.634,1057.378c-0.984,0-1.882-0.664-2.135-1.663l-30.103-118.692
						c-0.299-1.18,0.414-2.379,1.595-2.679c1.174-0.298,2.379,0.413,2.679,1.595l30.103,118.692c0.299,1.18-0.414,2.379-1.596,2.678
						C653.997,1057.356,653.814,1057.378,653.634,1057.378z"/>
					<path style="fill:#363E44;" d="M897.898,1044.476c-1.066,0-2.003-0.774-2.176-1.859c-0.191-1.203,0.63-2.333,1.832-2.523
						l62.357-9.891c1.209-0.183,2.333,0.63,2.523,1.832c0.191,1.203-0.63,2.333-1.832,2.524l-62.357,9.891
						C898.129,1044.468,898.013,1044.476,897.898,1044.476z"/>
					<path style="fill:#363E44;" d="M903.92,1073.719c-1.052,0-1.982-0.754-2.169-1.825c-0.21-1.199,0.592-2.342,1.791-2.551
						l55.037-9.631c1.201-0.207,2.343,0.592,2.551,1.792c0.21,1.199-0.592,2.342-1.791,2.551l-55.036,9.631
						C904.174,1073.708,904.046,1073.719,903.92,1073.719z"/>
					<path style="fill:#363E44;" d="M908.65,1102.533c-1.039,0-1.964-0.736-2.164-1.795c-0.227-1.196,0.559-2.35,1.756-2.576
						l40.854-7.74c1.196-0.235,2.35,0.559,2.576,1.756c0.227,1.196-0.559,2.35-1.756,2.576l-40.854,7.74
						C908.925,1102.521,908.786,1102.533,908.65,1102.533z"/>
					<path style="fill:#BC8271;" d="M845.88,1045.045c27.503-23.138,32.519-37.313,28.713-41.554
						c-6.4-7.133-39.425,3.9-83.88,32.653C805.431,1040.213,831.161,1040.975,845.88,1045.045z"/>
					<g>
						<path style="fill:#363E44;" d="M836.383,1028.856c-1.017,0-1.931-0.707-2.153-1.742c-0.256-1.191,0.502-2.363,1.692-2.618
							c4.8-1.031,17.753-3.759,34.299-6.818c1.205-0.224,2.347,0.571,2.569,1.768c0.221,1.197-0.571,2.347-1.768,2.569
							c-16.489,3.048-29.392,5.765-34.174,6.792C836.692,1028.84,836.536,1028.856,836.383,1028.856z"/>
					</g>
				</g>
				<polygon style="fill:#363E44;" points="667.318,849.833 673.126,809.404 633.8,820.538 659.941,851.921 689.262,1024.391 
					719.003,1046.458 732.762,1012.076 				"/>
			</g>
			<g>
				<path style="fill:#BC8271;" d="M671.053,740.381c-16.38,11.633-63.001-16.342-63.001-16.342l-28.598-59.131
					c0-28.263,25.711-53.324,53.974-53.324h0c28.263,0,51.174,22.912,51.174,51.174
					C684.602,662.759,687.736,728.533,671.053,740.381z"/>
				<polygon style="fill:#BC8271;" points="579.219,778.834 652.088,812.494 652.088,664.12 579.219,664.12 				"/>
				<g>
					<path style="fill:#FFFFFF;" d="M627.46,670.456c0,0,9.39-5.05,20.708-5.049c2.408,0-2.135,19.271-4.421,18.18
						C633.696,678.789,627.46,670.456,627.46,670.456z"/>
					<path style="fill:#363E44;" d="M655.582,666.191c14.314,3.161,23.71,15.715,23.71,15.715s-13.81,7.428-28.122,4.266
						c-2.657-0.588-5.141-1.5-7.431-2.593c-1.717-6.226-0.23-13.135,4.447-18.158C650.591,665.422,653.076,665.637,655.582,666.191z
						"/>
				</g>
				<g>
					<path style="fill:#363E44;" d="M670.468,624.047c1.744-7.822-15.804-22.309-35.479-24.513
						c-24.107-2.701-52.431,5.017-67.786,32.146c-14.751,26.063-14.198,60.536,12.035,87.629c6.491-5.12,12.249-9.468,20.218-15.811
						c-13.436-13.521-14.198-27.838-8.607-34.074c4.771-5.322,13.977-5.806,23.659,2.25c2.903-7.633,7.741-18.922,21.932-29.243
						C652.858,630.492,669.117,630.11,670.468,624.047z"/>
				</g>
				<path style="fill:#363E44;" d="M651.273,745.812c-0.178,0-0.357-0.021-0.537-0.066c-25.963-6.492-42.293-19.222-42.976-19.762
					c-0.955-0.754-1.119-2.139-0.365-3.095c0.754-0.955,2.14-1.119,3.096-0.366c0.16,0.126,16.32,12.696,41.315,18.944
					c1.181,0.295,1.899,1.492,1.604,2.674C653.159,745.143,652.26,745.812,651.273,745.812z"/>
				<path style="fill:#363E44;" d="M665.394,715.586c-2.451,0-4.841-0.931-6.571-2.711c-2.866-2.948-2.716-7.044-2.176-8.999
					c0.325-1.174,1.537-1.859,2.712-1.539c1.174,0.324,1.862,1.539,1.538,2.712c-0.028,0.109-0.73,2.883,1.086,4.751
					c1.469,1.513,3.91,1.818,5.931,0.744c1.079-0.57,2.409-0.16,2.982,0.913c0.571,1.076,0.163,2.41-0.913,2.982
					C668.531,715.21,666.95,715.586,665.394,715.586z"/>
				<path style="fill:#BC8271;" d="M684.325,677.759c-0.15,2.27,0.219,5.967,1.767,9.437c1.865,4.185,5.892,6.787,5.812,9.422
					c-0.055,1.767-2.029,4.416-9.34,6.117L684.325,677.759z"/>
				<path style="fill:#363E44;" d="M603.649,698.108c-0.64,0-1.275-0.278-1.711-0.813c-7.115-8.736-9.4-18.193-5.315-21.998
					c3.751-3.488,11.033-0.518,13.992,0.922c1.095,0.533,1.55,1.853,1.018,2.948c-0.534,1.094-1.854,1.548-2.948,1.018
					c-3.923-1.91-7.989-2.654-9.057-1.66c-1.447,1.347-0.755,8.025,5.729,15.986c0.769,0.944,0.626,2.333-0.318,3.102
					C604.631,697.945,604.139,698.108,603.649,698.108z"/>
			</g>
		</g>
	</g>
</g>
</svg>
