<?xml version="1.0" encoding="utf-8"?>
<!-- Generator: Adobe Illustrator 27.5.0, SVG Export Plug-In . SVG Version: 6.00 Build 0)  -->
<svg version="1.1" xmlns="http://www.w3.org/2000/svg" xmlns:xlink="http://www.w3.org/1999/xlink" x="0px" y="0px"
	 viewBox="0 0 2500 2500" style="enable-background:new 0 0 2500 2500;" xml:space="preserve">
-
<g id="Illustration">
	<g id="Fast_charging_technology_1_">
		<circle style="fill:transparent;" cx="1250" cy="1250" r="915"/>
		<g>
			<g>
				<path style="fill:#D3BBA3;" d="M1354.803,1145.911h-116.91c-1.218,0-2.205-0.986-2.205-2.205v-32.715
					c-15.496-2.939-30.896-7.058-45.827-12.256l-16.344,28.312c-0.293,0.506-0.774,0.876-1.339,1.027
					c-0.563,0.146-1.167,0.069-1.673-0.22l-101.247-58.456c-1.055-0.609-1.416-1.957-0.807-3.012l16.384-28.381
					c-11.935-10.314-23.198-21.577-33.518-33.518l-28.381,16.388c-0.508,0.291-1.112,0.368-1.673,0.22
					c-0.565-0.151-1.046-0.521-1.339-1.027l-58.455-101.25c-0.292-0.506-0.371-1.109-0.22-1.673
					c0.151-0.564,0.521-1.046,1.027-1.339l28.313-16.344c-5.201-14.936-9.319-30.333-12.258-45.828h-32.714
					c-1.218,0-2.205-0.986-2.205-2.205V734.521c0-1.219,0.987-2.205,2.205-2.205h32.714c2.938-15.49,7.057-30.889,12.258-45.828
					l-28.313-16.344c-0.506-0.293-0.876-0.775-1.027-1.339c-0.152-0.564-0.072-1.167,0.22-1.673l58.455-101.247
					c0.293-0.506,0.774-0.876,1.339-1.027c0.561-0.151,1.165-0.073,1.673,0.22l28.381,16.387
					c10.314-11.937,21.577-23.2,33.518-33.518l-16.384-28.383c-0.608-1.055-0.248-2.403,0.807-3.012l101.247-58.456
					c0.506-0.289,1.11-0.368,1.673-0.22c0.565,0.151,1.046,0.521,1.339,1.027l16.344,28.312c14.931-5.198,30.33-9.317,45.827-12.256
					v-32.715c0-1.219,0.987-2.205,2.205-2.205h116.91c1.218,0,2.205,0.986,2.205,2.205v32.715
					c15.496,2.939,30.896,7.058,45.826,12.256l16.346-28.312c0.293-0.506,0.774-0.876,1.339-1.027
					c0.566-0.146,1.167-0.069,1.673,0.22l101.247,58.456c1.055,0.609,1.416,1.957,0.807,3.012l-16.385,28.383
					c11.941,10.318,23.204,21.581,33.518,33.518l28.381-16.387c0.506-0.293,1.109-0.37,1.673-0.22
					c0.565,0.151,1.046,0.521,1.339,1.027l58.455,101.247c0.292,0.506,0.371,1.109,0.22,1.673c-0.151,0.564-0.521,1.046-1.027,1.339
					l-28.313,16.344c5.2,14.934,9.319,30.331,12.258,45.828h32.714c1.218,0,2.205,0.986,2.205,2.205V851.43
					c0,1.219-0.987,2.205-2.205,2.205h-32.714c-2.94,15.498-7.059,30.898-12.257,45.828l28.312,16.344
					c0.506,0.293,0.876,0.775,1.027,1.339c0.152,0.564,0.072,1.167-0.22,1.673l-58.455,101.25c-0.293,0.506-0.774,0.876-1.339,1.027
					c-0.564,0.149-1.167,0.071-1.673-0.22l-28.381-16.388c-10.32,11.941-21.582,23.204-33.518,33.518l16.385,28.381
					c0.292,0.506,0.371,1.109,0.22,1.673c-0.151,0.564-0.521,1.046-1.027,1.339l-101.247,58.456
					c-0.507,0.289-1.111,0.366-1.673,0.22c-0.565-0.151-1.046-0.521-1.339-1.027l-16.346-28.312
					c-14.93,5.198-30.33,9.317-45.826,12.256v32.715C1357.008,1144.925,1356.021,1145.911,1354.803,1145.911z M1240.098,1141.501
					h112.501v-32.34c0-1.064,0.76-1.977,1.807-2.168c16.478-3.027,32.858-7.409,48.688-13.022c1.001-0.357,2.114,0.054,2.646,0.975
					l16.157,27.986l97.429-56.251l-16.197-28.053c-0.531-0.919-0.331-2.089,0.478-2.78c12.742-10.884,24.724-22.866,35.616-35.615
					c0.691-0.81,1.86-1.005,2.779-0.478l28.054,16.198l56.25-97.43l-27.987-16.157c-0.92-0.532-1.331-1.645-0.975-2.646
					c5.614-15.828,9.995-32.209,13.022-48.689c0.192-1.046,1.105-1.806,2.168-1.806h32.34v-112.5h-32.34
					c-1.064,0-1.977-0.76-2.168-1.806c-3.026-16.476-7.408-32.857-13.022-48.689c-0.355-1.001,0.055-2.114,0.975-2.646
					l27.987-16.157l-56.25-97.428l-28.054,16.198c-0.917,0.53-2.088,0.334-2.779-0.478c-10.884-12.742-22.867-24.725-35.616-35.615
					c-0.809-0.691-1.009-1.86-0.478-2.78l16.197-28.055l-97.428-56.251l-16.158,27.987c-0.532,0.919-1.646,1.328-2.646,0.975
					c-15.83-5.613-32.21-9.995-48.688-13.022c-1.047-0.192-1.807-1.105-1.807-2.168v-32.34h-112.501v32.34
					c0,1.064-0.76,1.976-1.806,2.168c-16.477,3.027-32.857,7.409-48.688,13.022c-1.004,0.355-2.113-0.056-2.646-0.975
					l-16.157-27.987l-97.428,56.251l16.196,28.055c0.531,0.919,0.33,2.089-0.478,2.78c-12.749,10.891-24.732,22.873-35.616,35.615
					c-0.689,0.812-1.859,1.006-2.779,0.478l-28.054-16.198l-56.25,97.428l27.987,16.157c0.921,0.532,1.331,1.645,0.975,2.646
					c-5.615,15.839-9.997,32.22-13.022,48.689c-0.192,1.046-1.104,1.806-2.168,1.806h-32.34v112.5h32.34
					c1.064,0,1.977,0.76,2.168,1.806c3.026,16.474,7.407,32.855,13.022,48.689c0.355,1.001-0.055,2.114-0.975,2.646l-27.987,16.157
					l56.25,97.43l28.054-16.198c0.921-0.525,2.09-0.329,2.779,0.478c10.892,12.749,22.874,24.731,35.616,35.615
					c0.808,0.691,1.009,1.86,0.478,2.78l-16.196,28.053l97.428,56.251l16.157-27.986c0.533-0.919,1.647-1.328,2.646-0.975
					c15.831,5.613,32.211,9.995,48.688,13.022c1.046,0.192,1.806,1.105,1.806,2.168V1141.501z M1296.249,988.921
					c-52.349,0-101.295-20.235-138.452-57.392c-38.692-38.692-59.037-90.174-57.289-144.965
					c3.285-102.935,86.492-186.141,189.428-189.427c54.803-1.77,106.273,18.594,144.965,57.286
					c38.691,38.69,59.036,90.174,57.286,144.963l-2.204-0.071l2.204,0.071c-3.285,102.935-86.492,186.144-189.427,189.429
					C1300.587,988.886,1298.411,988.921,1296.249,988.921z M1296.444,601.441c-2.118,0-4.24,0.034-6.368,0.101
					c-100.618,3.213-181.949,84.545-185.161,185.164c-1.71,53.56,18.178,103.885,55.999,141.705
					c37.821,37.822,88.109,57.666,141.706,55.999c100.616-3.212,181.948-84.547,185.16-185.166
					c1.71-53.557-18.177-103.883-55.997-141.703C1395.465,621.224,1347.615,601.441,1296.444,601.441z"/>
			</g>
		</g>
		<g>
			<g>
				<path style="fill:#FFFFFF;" d="M1262.595,1550.204h-35.534c-3.182-17.322-7.721-34.167-13.488-50.431l30.752-17.755
					l-60.129-104.148l-30.822,17.796c-11.311-13.241-23.647-25.577-36.888-36.888l17.795-30.822l-104.148-60.13l-17.755,30.753
					c-16.264-5.768-33.109-10.307-50.431-13.489v-35.534H841.688v35.534c-17.322,3.182-34.167,7.72-50.431,13.489l-17.755-30.753
					l-104.148,60.13l17.795,30.822c-13.242,11.311-25.577,23.647-36.888,36.888l-30.823-17.796l-60.129,104.148l30.752,17.755
					c-5.768,16.264-10.306,33.109-13.488,50.431h-35.534l0,0v120.259h35.535c3.182,17.322,7.72,34.166,13.488,50.431l-30.752,17.755
					l60.129,104.148l30.823-17.796c11.311,13.241,23.646,25.577,36.888,36.888l-17.795,30.823l104.148,60.13l0,0l17.755-30.753
					c16.264,5.768,33.109,10.306,50.431,13.488v35.534h120.259v-35.534c17.322-3.182,34.167-7.72,50.431-13.488l17.754,30.753l0,0
					l104.147-60.13l-17.795-30.823c13.242-11.311,25.577-23.647,36.888-36.888l30.822,17.796l60.129-104.148l-30.752-17.755
					c5.768-16.264,10.306-33.109,13.488-50.431h35.534V1550.204z M1101,1616.855c-3.33,104.345-88.314,189.331-192.659,192.662
					c-121.717,3.886-219.935-101.411-204.139-225.378c11.362-89.17,82.256-160.063,171.426-171.422
					C999.592,1396.927,1104.886,1495.142,1101,1616.855z"/>
			</g>
			<path style="fill:#F2E6DC;" d="M901.813,1875.607c-0.267,0-0.514-0.002-0.779-0.002c-70.846-0.205-137.491-28.282-187.657-79.055
				c-50.188-50.797-77.469-117.809-76.82-188.695c0.581-63.404,23.895-124.572,65.646-172.234
				c41.362-47.221,98.146-78.331,159.891-87.605c1.192-0.159,2.327,0.648,2.507,1.854c0.181,1.204-0.648,2.328-1.853,2.508
				c-127.328,19.12-220.602,126.581-221.782,255.516c-0.639,69.704,26.191,135.601,75.546,185.556
				c49.336,49.934,114.871,77.546,184.534,77.746c0.254,0,0.511,0.002,0.766,0.002c118.897,0,222.666-80.142,252.516-195.126
				c0.305-1.178,1.502-1.893,2.688-1.58c1.178,0.306,1.885,1.509,1.579,2.687C1128.243,1794.102,1022.708,1875.607,901.813,1875.607
				z"/>
		</g>
		<g>
			<g>
				<path style="fill:#363E44;" d="M927.888,750.912c-24.496-63.604-98.139-122.064-98.139-122.064s-140.877-30.211-153.106,66.745
					c-12.228,96.957-96.068,150.069-221.908,167.054c-125.839,16.984-111.308,151.457-111.308,151.457l12.44,13.51l13.419-59.975
					l0.275,74.848l17.488,18.993l18.979-64.643c0,0,6.352,60.436,8.342,94.314l54.378,59.054l455.658-247.918
					C924.406,902.285,957.394,827.519,927.888,750.912z"/>
				<path style="fill:#40484C;" d="M389.33,1005.334c-0.087,0-0.174-0.004-0.262-0.015c-1.21-0.142-2.075-1.24-1.931-2.448
					c4.513-38.169,36.552-66.05,65.029-79.414c28.096-13.186,59.338-18.134,89.552-22.92c4.229-0.67,8.453-1.339,12.665-2.03
					c31.905-5.228,68.376-12.559,97.415-33.477c24.899-17.936,47.566-53.202,38.497-88.249c-0.305-1.18,0.404-2.383,1.583-2.687
					c1.183-0.314,2.383,0.405,2.687,1.58c9.588,37.056-14.112,74.15-40.19,92.934c-29.815,21.476-66.879,28.94-99.279,34.252
					c-4.219,0.691-8.451,1.361-12.687,2.033c-29.91,4.737-60.838,9.635-88.369,22.556c-27.405,12.861-58.222,39.566-62.523,75.939
					C391.384,1004.51,390.432,1005.334,389.33,1005.334z"/>
				<path style="fill:#40484C;" d="M450.154,1016.671c-0.146,0-0.295-0.015-0.445-0.045c-1.193-0.243-1.962-1.408-1.717-2.601
					c6.619-32.353,36.733-58.854,80.554-70.888c16.005-4.397,32.668-6.955,48.782-9.426c19.769-3.036,40.21-6.173,59.32-12.727
					c33.186-11.382,66.912-39.123,67.445-75.44c0.018-1.206,1.001-2.173,2.204-2.173c0.012,0,0.023,0,0.033,0
					c1.218,0.017,2.19,1.021,2.173,2.237c-0.565,38.459-35.778,67.665-70.425,79.548c-19.482,6.681-40.121,9.849-60.08,12.912
					c-15.99,2.455-32.524,4.991-48.284,9.319c-32.57,8.946-70.007,31.382-77.402,67.521
					C452.099,1015.951,451.18,1016.671,450.154,1016.671z"/>
			</g>
			<g>
				<path style="fill:#ff6900;" d="M723.115,1212.252l-164.256,73.269c-51.572,23.004-112.207,4.242-141.773-43.869v0
					c-28.069-45.675-20.059-104.822,19.197-141.333c41.012-38.143,90.973-83.1,119.722-103.484
					C610.813,957.974,723.115,1212.252,723.115,1212.252z"/>
				<path style="fill:#ff6900;" d="M1381.513,879.227c0,0-39.54-89.312-290.246-83.377l-9.324,107.291L1381.513,879.227z"/>
				<path style="fill:#ff6900;" d="M1091.267,795.85c0,0-342.823,42.548-542.151,206.533l155.12,224.052l178.025,391.305
					c0,0,385.442-266.088,385.336-271.627c-0.106-5.538-129.013-317.167-129.013-317.167L1091.267,795.85z"/>
				<path style="fill:#FFFFFF;" d="M710.162,904.618c0,0,134.693,293.452,187.552,560.688l276.917-87.014L995.544,812.905
					C995.544,812.905,825.95,834.348,710.162,904.618z"/>
			</g>
			<g>
				<path style="fill:#363E44;" d="M849.028,630.843c28.921,50.092,20.292,116.804-25.883,143.463
					c-46.174,26.659-121.738,1.006-150.659-49.086c-28.921-50.092-14.934-112.311,31.24-138.97
					C749.902,559.591,820.107,580.75,849.028,630.843z"/>
				<polygon style="fill:#9E6C5A;" points="776.979,764.998 813.665,890.406 885.901,871.007 857.418,771.825 				"/>
				<path style="fill:#9E6C5A;" d="M753.12,881.29c0,0,74.401-53.414,165.575-54.623l-13.012,150.301L753.12,881.29z"/>
				<g>
					<path style="fill:#9E6C5A;" d="M756.572,620.885c3.402-2.076,36.281-21.466,68.245-8.048
						c23.785,9.984,36.461,31.451,52.277,70.67c18.626,46.185,23.307,76.396,14.713,91.458
						c-13.58,23.798-89.631,22.137-131.463-5.801c-30.195-20.166-45.895-57.375-41.919-93.724
						C722.389,639.192,754.401,622.209,756.572,620.885z"/>
					<g>
						<path style="fill:#FFFFFF;" d="M866.572,641.318c0.105,0.315,0.406,0.466,0.511,0.781c0.005,0.013,0.004,0.025,0.004,0.025
							c2.771,3.759,5.701,7.702,9.105,10.877c1.508,1.406,3.134,1.835,4.705,2.998c1.152,0.854,2.252,1.676,3.421,2.47
							c5.149-14.553,2.841-28.97,2.841-28.97S876.362,633.042,866.572,641.318z"/>
						<g>
							<defs>
								<path id="SVGID_1_" d="M887.159,629.499c0,0,3.362,20.933-7.024,37.811c-10.386,16.879-30.587,23.312-30.587,23.312
									s-3.362-20.933,7.024-37.811C866.958,635.933,887.159,629.499,887.159,629.499z"/>
							</defs>
							<clipPath id="SVGID_00000059999964773934751100000014561304139092480694_">
								<use xlink:href="#SVGID_1_"  style="overflow:visible;"/>
							</clipPath>
							<path style="clip-path:url(#SVGID_00000059999964773934751100000014561304139092480694_);fill:#363E44;" d="M882.881,654.968
								c6.241,12.882,0.858,28.384-12.023,34.625c-12.882,6.241-28.384,0.858-34.625-12.024
								c-6.241-12.881-0.858-28.383,12.023-34.625C861.138,636.703,876.64,642.086,882.881,654.968z"/>
						</g>
					</g>
					<g>
						<path style="fill:#FFFFFF;" d="M801.726,707.346c2.312,4.994,4.983,8.339,9.571,10.936
							c11.441-6.415,18.451-15.527,18.451-15.527s-15.159-8.193-32.168-7.054C797.94,699.74,800.086,703.802,801.726,707.346z"/>
						<g>
							<defs>
								<path id="SVGID_00000116928926814923412840000014387619246833658039_" d="M759.48,717.346c0,0,12.918-16.811,32.322-20.839
									c19.404-4.029,37.947,6.249,37.947,6.249s-12.918,16.811-32.323,20.84C778.022,727.624,759.48,717.346,759.48,717.346z"/>
							</defs>
							<clipPath id="SVGID_00000062181635852158622010000013973597988914636969_">
								<use xlink:href="#SVGID_00000116928926814923412840000014387619246833658039_"  style="overflow:visible;"/>
							</clipPath>
							<path style="clip-path:url(#SVGID_00000062181635852158622010000013973597988914636969_);fill:#363E44;" d="M760.929,709.241
								c5.086-13.38,20.056-20.103,33.436-15.017c13.38,5.086,20.103,20.056,15.017,33.436
								c-5.086,13.38-20.056,20.103-33.436,15.017C762.566,737.59,755.843,722.621,760.929,709.241z"/>
						</g>
					</g>
					<path style="fill:#363E44;" d="M864.019,714.916c-0.1,0-0.201-0.006-0.302-0.019c-1.206-0.166-2.051-1.279-1.885-2.485
						c0.302-2.205,0.015-3.919-0.854-5.096c-0.832-1.13-2.022-1.522-4.228-2.175c-1.681-0.497-3.773-1.115-6.076-2.403
						c-2.938-1.641-5.527-3.99-7.695-6.978c-0.715-0.986-0.495-2.364,0.49-3.079c0.987-0.717,2.365-0.493,3.08,0.491
						c1.789,2.465,3.9,4.39,6.276,5.717c1.874,1.049,3.553,1.544,5.175,2.024c2.458,0.726,4.779,1.412,6.527,3.787
						c1.573,2.132,2.136,4.929,1.673,8.311C866.049,714.115,865.103,714.916,864.019,714.916z"/>
					<path style="fill:#363E44;" d="M860.601,745.894c-1.678,6.767-8.524,10.892-15.291,9.214
						c-6.767-1.678-10.892-8.524-9.214-15.291c1.678-6.767,5.486,1.36,12.253,3.039
						C855.115,744.534,862.279,739.128,860.601,745.894z"/>
					<path style="fill:#363E44;" d="M844.424,793.575c-27.433,0-51.329-7.112-52.442-7.448c-1.166-0.351-1.825-1.583-1.473-2.747
						c0.352-1.165,1.576-1.826,2.747-1.473c0.297,0.088,29.963,8.901,60.275,6.976c1.197-0.069,2.263,0.846,2.34,2.061
						c0.078,1.214-0.845,2.263-2.061,2.341C850.656,793.484,847.517,793.575,844.424,793.575z"/>
				</g>
				<g>
					<path style="fill:#363E44;" d="M723.115,603.844c0,0,12.378-50.721-28.82-94.847c-41.198-44.127-80.646-42.646-114.588-5.975
						c-33.943,36.671-24.2,115.373,96.144,150.601L723.115,603.844z"/>
					<path style="fill:#40484C;" d="M647.254,608.609c-14.948,0-29.93-4.664-41.918-13.595
						c-18.932-14.099-29.808-38.404-27.712-61.916c0.108-1.212,1.185-2.121,2.392-2c1.213,0.108,2.108,1.18,2,2.392
						c-1.964,22.02,8.224,44.783,25.953,57.989c17.732,13.207,42.459,16.448,62.993,8.264c1.13-0.456,2.414,0.101,2.864,1.232
						c0.451,1.13-0.1,2.414-1.231,2.864C664.555,607.044,655.909,608.609,647.254,608.609z"/>
					<path style="fill:#40484C;" d="M642.221,627.471c-8.578,0-17.165-2.259-24.506-6.683c-1.043-0.629-1.379-1.983-0.75-3.027
						c0.626-1.044,1.983-1.38,3.026-0.749c11.416,6.881,26.156,7.986,38.469,2.885c1.128-0.467,2.415,0.069,2.881,1.193
						c0.466,1.126-0.068,2.416-1.193,2.881C654.485,626.314,648.355,627.471,642.221,627.471z"/>
				</g>
				<path style="fill:#363E44;" d="M810.555,608.869c0,0-33.575-6.675-63.388,31.358c-22.68,28.933-28.915,60.764,1.654,90.398
					l-28.112,15.7c0,0-46.355-76.168,12.127-121.051C749.154,612.75,774.175,604.649,810.555,608.869z"/>
				<g>
					
						<ellipse transform="matrix(0.2898 -0.9571 0.9571 0.2898 -198.4386 1243.5486)" style="fill:#9E6C5A;" cx="738.687" cy="755.483" rx="29.791" ry="29.79"/>
					<path style="fill:#363E44;" d="M752.84,760.662c-0.67,0-1.331-0.304-1.763-0.878l0,0c-0.047-0.062-4.77-6.201-12.15-7.207
						c-4.709-0.65-9.581,0.926-14.473,4.659c-0.969,0.739-2.353,0.551-3.091-0.415c-0.739-0.967-0.553-2.351,0.414-3.09
						c5.879-4.485,11.87-6.339,17.8-5.516c9.213,1.281,14.793,8.61,15.027,8.92c0.729,0.975,0.531,2.358-0.445,3.088
						C753.763,760.52,753.299,760.662,752.84,760.662z"/>
				</g>
			</g>
		</g>
		<g>
			<g>
				
					<rect x="882.261" y="940.257" transform="matrix(-1 3.845711e-07 -3.845711e-07 -1 2544.6123 3066.5176)" style="fill:#F7F1EB;" width="780.09" height="1186.004"/>
				<path style="fill:#84524D;" d="M1612.839,2135.326H832.75c-1.218,0-2.205-0.986-2.205-2.205l-0.001-1186.003
					c0-1.219,0.987-2.205,2.205-2.205l780.091-0.002c0.585,0,1.146,0.233,1.559,0.646c0.413,0.413,0.646,0.973,0.646,1.559v1186.005
					C1615.044,2134.34,1614.057,2135.326,1612.839,2135.326z M834.955,2133.121h0.021H834.955z M834.955,2130.916h775.68V949.32
					l-775.681,0.002L834.955,2130.916z"/>
				
					<rect x="1097.573" y="1581.447" transform="matrix(-3.901025e-07 -1 1 -3.901025e-07 -660.8959 3112.387)" style="fill:#D87355;" width="256.343" height="610.389"/>
				
					<rect x="1097.573" y="1234.924" transform="matrix(-3.901025e-07 -1 1 -3.901025e-07 -314.3732 2765.8638)" style="fill:#D87355;" width="256.343" height="610.389"/>
				
					<rect x="1097.573" y="884.067" transform="matrix(-3.901025e-07 -1 1 -3.901025e-07 36.4833 2415.0071)" style="fill:#D87355;" width="256.343" height="610.389"/>
				<path style="fill:#363E44;" d="M1398.117,947.116v-45.24c0-29.952-21.982-54.233-49.098-54.233h-249.801
					c-27.116,0-49.098,24.281-49.098,54.233l0,45.24L1398.117,947.116z"/>
			</g>
			<polygon style="fill:#FFD092;" points="1195.115,1201.932 1218.395,1098.195 1274.281,1089.462 1236.638,1174.322 
				1286.327,1166.558 1207.161,1279.028 1225.53,1197.179 			"/>
		</g>
		<g>
			<g>
				
					<ellipse transform="matrix(0.7071 -0.7071 0.7071 0.7071 -756.9529 1749.3971)" style="fill:#FFFFFF;" cx="1733.233" cy="1788.422" rx="340.396" ry="340.396"/>
				<path style="fill:#ff6900;" d="M1733.232,2131.021c-188.91,0-342.601-153.689-342.601-342.6s153.69-342.602,342.601-342.602
					s342.601,153.692,342.601,342.602S1922.143,2131.021,1733.232,2131.021z M1733.232,1450.23
					c-186.479,0-338.191,151.713-338.191,338.192s151.711,338.19,338.191,338.19s338.191-151.71,338.191-338.19
					S1919.712,1450.23,1733.232,1450.23z"/>
			</g>
			<path style="fill:#F2E6DC;" d="M1733.232,2097.247c-170.288,0-308.827-138.537-308.827-308.825
				c0-170.288,138.539-308.828,308.827-308.828c170.288,0,308.827,138.54,308.827,308.828
				C2042.059,1958.71,1903.52,2097.247,1733.232,2097.247z M1733.232,1484.004c-167.856,0-304.417,136.561-304.417,304.418
				c0,167.855,136.561,304.416,304.417,304.416s304.417-136.561,304.417-304.416
				C2037.649,1620.565,1901.088,1484.004,1733.232,1484.004z"/>
			<path style="fill:#ff6900;" d="M1916.657,1933.587c-0.475,0-0.952-0.153-1.354-0.465l-183.426-142.96
				c-0.536-0.418-0.849-1.059-0.849-1.74v-189.7c0-1.219,0.987-2.205,2.205-2.205c1.218,0,2.205,0.986,2.205,2.205v188.624
				l182.577,142.297c0.96,0.749,1.133,2.134,0.383,3.094C1917.963,1933.296,1917.313,1933.587,1916.657,1933.587z"/>
		</g>
		<g>
			<path style="fill:#9E6C5A;" d="M1005.264,1033.893c-19.045-6.812-93.69-47.839-126.512-25.528
				c-33.057,22.471-45.384,64.893-43.699,104.831c0.116,0.114,0.245,0.24,0.36,0.352c5.063,9.839,14.146,23.784,30.03,32.898
				c18.108,10.388,27.711,4.549,48.528,12.536c35.134,13.482,42.063,44.363,54.006,38.438c8.197-4.066,4.939-22.235-2.344-38.033
				c-7.478-16.221-19.14-23.563-17.403-25.917c1.906-2.584,12.789,6.408,27.349,16.347c6.764,4.618,17.531,28.734,29.549,24.83
				c9.582-3.113,4.663-30.987-11.789-49.397c-11.64-13.023-28.444-15.282-27.4-18.296c0.783-2.262,10.764-0.669,18.956,3.267
				c13.519,6.491,24.798,31.047,35.791,27.239c10.769-3.732,6.045-28.001-8.015-45.891c-11.855-15.085-30.714-16.708-29.438-20.461
				c0.897-2.64,9.491-3.668,27.32-0.38c14.88,2.745,42.047,17.679,47.245,2.536
				C1062.169,1060.529,1034.009,1044.173,1005.264,1033.893z"/>
			<path style="fill:#9E6C5A;" d="M519.289,1068.381c-41.632,16.126-68.729,57.605-64.998,102.095
				c2.446,29.169,18.175,58.616,64.515,74.558c112.827,38.817,352.533-132.303,352.533-132.303l26.126-110.62
				C769.646,1001.994,633.885,1023.994,519.289,1068.381z"/>
		</g>
		<g>
			<g>
				<g>
					<path style="fill:#D87355;" d="M1714.297,732.447c-34.336,71.143-85.841,83.178-149.319,71.79l0-0.001l-0.001,0
						c31.352-89.905,140.442-90.053,140.442-90.053L1714.297,732.447z"/>
					<path style="fill:#D87355;" d="M1609.564,516.967c-77.155-16.954-118.438,16.111-148.701,73.061l0.001,0.001l-0.001,0
						c90.065,30.891,157.578-54.798,157.578-54.798L1609.564,516.967z"/>
					<path style="fill:#D87355;" d="M1580.17,598.277c0,0-114.071,7.878-135.601,142.141c0,0,27.072-16.634,63.761-4.861
						c53.86,17.283,93.913,1.907,122.71-32.617L1580.17,598.277z"/>
				</g>
				<g>
					<path style="fill:#363E44;" d="M1616.246,814.872c-11.812,0-24.461-1.234-38.038-3.669c-0.635-0.114-1.188-0.502-1.514-1.057
						c-0.326-0.558-0.391-1.229-0.179-1.839c31.503-90.339,141.414-91.53,142.521-91.532c0.001,0,0.002,0,0.003,0
						c0.844,0,1.614,0.482,1.983,1.24l8.877,18.263c0.295,0.607,0.296,1.316,0.002,1.923
						C1704.757,790.302,1668.924,814.872,1616.246,814.872z M1581.561,807.312c70.916,12.047,114.098-9.015,143.905-70.07
						l-7.789-16.024C1705.189,721.66,1611.175,727.667,1581.561,807.312z"/>
					<path style="fill:#363E44;" d="M1513.674,603.682c-12.685,0-26.037-2.015-39.906-6.772c-0.61-0.211-1.099-0.676-1.336-1.277
						s-0.199-1.275,0.103-1.845c35.341-66.5,81.945-89.377,151.123-74.18c0.658,0.144,1.214,0.583,1.509,1.189l8.877,18.265
						c0.369,0.76,0.271,1.664-0.251,2.33C1633.213,542.128,1583.757,603.682,1513.674,603.682z M1477.666,593.558
						c80.972,25.924,143.737-44.297,151.793-53.842l-7.79-16.028C1555.248,509.411,1512.006,530.355,1477.666,593.558z"/>
					<path style="fill:#363E44;" d="M1564.302,749.732c-13.542,0.002-27.89-2.422-43.025-7.28
						c-35.219-11.302-61.671,4.483-61.935,4.642c-0.734,0.446-1.664,0.433-2.378-0.049c-0.715-0.478-1.087-1.328-0.951-2.179
						c11.256-70.192,48.039-105.609,76.915-122.962c31.304-18.808,59.524-20.95,60.71-21.032c0.899-0.028,1.743,0.429,2.135,1.236
						l50.871,104.664c0.379,0.782,0.266,1.712-0.29,2.377C1623.818,736.168,1596.328,749.73,1564.302,749.732z M1495.314,733.896
						c8.193,0,17.395,1.176,27.311,4.358c48.573,15.587,88.742,5.206,119.426-30.842l-49.573-101.992
						c-6.177,0.706-30.986,4.418-57.452,20.369c-27.404,16.517-62.162,49.886-73.92,115.421
						C1467.085,738.42,1479.253,733.896,1495.314,733.896z"/>
				</g>
				<g>
					<path style="fill:#363E44;" d="M1401.445,845.969c-0.818,0-1.604-0.457-1.985-1.24c-0.532-1.096-0.076-2.416,1.02-2.948
						l139.73-67.917c1.098-0.53,2.416-0.073,2.947,1.018c0.532,1.096,0.077,2.416-1.02,2.948l-139.73,67.917
						C1402.096,845.898,1401.768,845.969,1401.445,845.969z"/>
					<path style="fill:#363E44;" d="M1481.342,845.532c-0.818,0-1.604-0.456-1.985-1.24c-0.532-1.096-0.076-2.416,1.02-2.948
						l54.786-26.628c1.092-0.532,2.414-0.075,2.947,1.018c0.532,1.096,0.077,2.416-1.02,2.948l-54.786,26.628
						C1481.994,845.461,1481.665,845.532,1481.342,845.532z"/>
					<path style="fill:#363E44;" d="M1382.855,671.321c-0.817,0-1.603-0.456-1.984-1.24c-0.532-1.096-0.076-2.416,1.019-2.948
						l94.197-45.784c1.091-0.53,2.415-0.075,2.947,1.018c0.532,1.096,0.077,2.416-1.02,2.948l-94.197,45.784
						C1383.508,671.25,1383.179,671.321,1382.855,671.321z"/>
					<path style="fill:#363E44;" d="M1425.918,628.282c-0.817,0-1.603-0.457-1.984-1.24c-0.532-1.096-0.076-2.416,1.02-2.948
						l38.006-18.474c1.094-0.53,2.414-0.078,2.947,1.018c0.532,1.096,0.076,2.416-1.02,2.948l-38.006,18.474
						C1426.571,628.211,1426.242,628.282,1425.918,628.282z"/>
					<path style="fill:#363E44;" d="M1304.486,787.412c-0.817,0-1.603-0.456-1.984-1.24c-0.532-1.096-0.077-2.416,1.02-2.948
						l125.272-60.889c1.093-0.532,2.415-0.075,2.947,1.018c0.532,1.096,0.076,2.416-1.019,2.948l-125.272,60.889
						C1305.139,787.341,1304.81,787.412,1304.486,787.412z"/>
					<path style="fill:#363E44;" d="M1331.595,749.909c-0.817,0-1.603-0.456-1.984-1.24c-0.532-1.096-0.076-2.416,1.019-2.948
						l65.086-31.634c1.091-0.53,2.414-0.078,2.947,1.018c0.532,1.096,0.077,2.416-1.02,2.948l-65.086,31.634
						C1332.248,749.838,1331.92,749.909,1331.595,749.909z"/>
				</g>
				<path style="fill:#363E44;" d="M1667.193,712.625c-0.243,0-0.487-0.041-0.72-0.121c-0.553-0.192-1.008-0.594-1.263-1.12
					l-64.922-133.572c-0.255-0.528-0.292-1.133-0.101-1.686c0.192-0.551,0.594-1.005,1.121-1.262l38.574-18.748
					c1.091-0.53,2.414-0.075,2.947,1.019l64.922,133.57c0.532,1.096,0.076,2.416-1.019,2.948l-38.574,18.75
					C1667.854,712.55,1667.524,712.625,1667.193,712.625z M1605.218,577.866l62.995,129.606l34.607-16.82l-62.995-129.604
					L1605.218,577.866z"/>
			</g>
			<g>
				<path style="fill:#EFBC73;" d="M2070.635,528.708L2070.635,528.708c43.056-47.2,63.104-82.16,76.604-134.174l-0.001,0l0.001,0
					c-56.086-25.869-89.116-27.354-152.832-22.658l0,0l0,0l38.114,78.416L2070.635,528.708L2070.635,528.708z"/>
				<path style="fill:#EFBC73;" d="M2042.174,551.746l4.738-4.506l-81.734-168.162l-6.471,0.943
					c-100.603,14.648-230.425,60.316-321.86,104.758l-18.16,8.826l124.104,255.335l18.16-8.826
					C1852.388,695.672,1968.503,621.802,2042.174,551.746z"/>
				<g>
					
						<ellipse transform="matrix(0.9543 -0.299 0.299 0.9543 -74.1774 581.2194)" style="fill:#FFFFFF;" cx="1862.315" cy="533.019" rx="90.646" ry="90.646"/>
				</g>
				<path style="fill:#363E44;" d="M2060.285,542.947c-0.817,0-1.603-0.457-1.984-1.24l-81.734-168.163
					c-0.532-1.096-0.076-2.416,1.02-2.948c1.092-0.53,2.414-0.075,2.947,1.018l81.734,168.163c0.532,1.096,0.076,2.416-1.02,2.948
					C2060.938,542.876,2060.609,542.947,2060.285,542.947z"/>
			</g>
		</g>
		<g>
			<g>
				<path style="fill:#E6D0BE;" d="M2133.938,1133.242h-17.869c-1.6-8.711-3.882-17.181-6.783-25.36l15.464-8.928l-30.237-52.373
					l-15.5,8.949c-5.688-6.659-11.891-12.862-18.55-18.55l8.948-15.5l-52.373-30.238l-8.928,15.465
					c-8.179-2.901-16.649-5.183-25.36-6.783v-17.869h-60.475v17.869c-8.711,1.6-17.181,3.882-25.36,6.783l-8.928-15.465
					l-52.373,30.238l8.948,15.5c-6.659,5.688-12.862,11.891-18.55,18.55l-15.5-8.949l-30.237,52.373l15.464,8.928
					c-2.9,8.179-5.183,16.649-6.783,25.36h-17.869l0,0v60.475h17.869c1.6,8.711,3.882,17.181,6.783,25.36l-15.464,8.928
					l30.237,52.373l15.5-8.949c5.688,6.659,11.891,12.862,18.55,18.55l-8.948,15.5l52.373,30.237l0,0l8.928-15.465
					c8.179,2.901,16.65,5.183,25.36,6.783v17.869h60.475v-17.869c8.711-1.6,17.181-3.882,25.36-6.783l8.928,15.465l0,0
					l52.373-30.237l-8.948-15.5c6.659-5.688,12.862-11.891,18.55-18.55l15.5,8.949l30.237-52.373l-15.464-8.928
					c2.9-8.179,5.183-16.649,6.783-25.36h17.869V1133.242z M2052.677,1166.759c-1.675,52.472-44.411,95.209-96.883,96.884
					c-57.942,1.85-105.294-45.502-103.444-103.443c1.675-52.472,44.411-95.209,96.883-96.884
					C2007.175,1061.466,2054.527,1108.817,2052.677,1166.759z"/>
			</g>
			<path style="fill:#F2E6DC;" d="M1952.514,1297.972c-74.161,0-134.494-60.333-134.494-134.494
				c0-32.403,11.686-63.705,32.905-88.141c21.007-24.191,49.934-40.122,81.45-44.854c1.188-0.164,2.327,0.648,2.507,1.854
				c0.181,1.204-0.648,2.328-1.853,2.508c-63.053,9.467-110.601,64.769-110.601,128.633c0,71.728,58.356,130.084,130.084,130.084
				c59.267,0,111.046-40.012,125.919-97.303c0.305-1.178,1.502-1.893,2.688-1.58c1.178,0.306,1.885,1.509,1.579,2.687
				C2067.324,1256.602,2013.789,1297.972,1952.514,1297.972z"/>
		</g>
	</g>
</g>
</svg>
