<?xml version="1.0" encoding="utf-8"?>
<!-- Generator: Adobe Illustrator 27.5.0, SVG Export Plug-In . SVG Version: 6.00 Build 0)  -->
<svg version="1.1" xmlns="http://www.w3.org/2000/svg" xmlns:xlink="http://www.w3.org/1999/xlink" x="0px" y="0px"
	 viewBox="0 0 2500 2500" style="enable-background:new 0 0 2500 2500;" xml:space="preserve">
-
<g id="Illustration">
	<g id="Big_data_job_1_">
		<circle style="fill:transparent;" cx="1250" cy="1250" r="915"/>
		<g>
			<g>
				<path style="fill:#FFFFFF;" d="M724.457,1259.482l-12.073-15.626c6.536-7.284,12.402-15.003,17.594-23.065l18.256,7.491
					l25.371-61.826l-18.298-7.508c1.98-9.473,3.214-19.089,3.689-28.755l19.6-2.647l-8.942-66.228l-19.556,2.641
					c-2.989-9.112-6.717-18.061-11.202-26.76l15.626-12.073l-40.858-52.884l-15.626,12.073
					c-7.285-6.536-15.003-12.402-23.065-17.594l7.491-18.256l-61.827-25.37l-7.508,18.297c-9.473-1.98-19.088-3.214-28.754-3.689
					l-2.646-19.6l-66.229,8.942l2.641,19.556c-9.112,2.989-18.061,6.717-26.759,11.202l-12.073-15.626l-52.884,40.858l12.073,15.626
					c-6.536,7.285-12.402,15.003-17.594,23.065l-18.256-7.491l-25.371,61.827l18.298,7.508c-1.98,9.473-3.214,19.089-3.689,28.755
					l-19.6,2.646l8.942,66.228l19.556-2.641c2.989,9.112,6.716,18.061,11.202,26.76l-15.626,12.073l40.858,52.884l15.626-12.073
					c7.284,6.536,15.003,12.402,23.065,17.594l-7.492,18.256l61.827,25.37l7.508-18.297c9.473,1.98,19.089,3.214,28.755,3.689
					l2.646,19.6l66.228-8.943l-2.64-19.555c9.112-2.99,18.061-6.717,26.76-11.203l12.073,15.626L724.457,1259.482z
					 M640.245,1211.065c-47.017,33.987-113.263,25.489-150.18-19.265c-40.764-49.42-31.348-122.82,20.57-160.349
					c47.017-33.987,113.264-25.489,150.18,19.265C701.579,1100.135,692.164,1173.536,640.245,1211.065z"/>
			</g>
			<path style="fill:#F2E6DC;" d="M575.528,1269.708c-44.92,0-88.716-20.446-117.518-57.725
				c-50.025-64.75-38.046-158.128,26.704-208.155c28.292-21.858,63.51-32.767,99.154-30.727
				c35.294,2.023,68.715,16.533,94.107,40.858c0.88,0.843,0.909,2.238,0.067,3.118c-0.841,0.881-2.238,0.909-3.118,0.067
				c-50.962-48.82-131.575-53.046-187.515-9.826c-62.827,48.539-74.449,139.143-25.91,201.969
				c40.107,51.911,110.196,70.186,170.438,44.445c1.121-0.478,2.416,0.041,2.894,1.161c0.479,1.12-0.041,2.416-1.161,2.894
				C614.844,1265.832,595.076,1269.708,575.528,1269.708z"/>
		</g>
		<g>
			<polygon style="fill:#363E44;" points="1900.819,937.951 1833.886,1187.859 1772.518,907.446 			"/>
			<g>
				<g>
					<path style="fill:#ff6900;" d="M1939.147,769.146l110.825,48.4c34.796,15.196,75.707,2.802,95.656-28.979
						c18.938-30.172,13.534-69.244-12.952-93.362c-27.671-25.197-61.381-54.895-80.777-68.36
						C2014.918,601.174,1939.147,769.146,1939.147,769.146z"/>
					<path style="fill:#ff6900;" d="M1478.327,577.896c0,0,43.272-87.739,212.425-83.819l6.291,83.819H1478.327z"/>
					<path style="fill:#ff6900;" d="M1690.752,494.077c0,0,231.305,28.107,365.793,136.432l-104.661,148.005l-51.523,173.149
						c-14.467,4.024-132.484-4.318-155.275-0.935c0,0-3.956,0.807-44.626,0.247c-48.669-0.669-17.452-49.767-128.678-93.403
						c29.016-69.839,58.03-139.677,87.046-209.516L1690.752,494.077z"/>
				</g>
			</g>
			<g>
				<g>
					<path style="fill:#84524D;" d="M1923.051,362.781c-2.45-1.601-26.146-16.584-49.918-7.461
						c-17.688,6.788-27.483,22.259-39.986,50.691c-14.725,33.482-18.849,55.554-12.882,66.807
						c9.428,17.78,65.297,18.291,96.643-1.267c22.626-14.117,34.999-41.077,32.907-67.852
						C1947.729,376.999,1924.615,363.803,1923.051,362.781z"/>
					<path style="fill:#84524D;" d="M1846.921,581.834c21.376,7.903,45.112-3.019,53.015-24.395l43.576-117.864
						c7.903-21.376-3.019-45.111-24.395-53.014c-21.376-7.903-45.112,3.019-53.015,24.395l-43.576,117.864
						C1814.623,550.196,1825.545,573.931,1846.921,581.834z"/>
					<path style="fill:#363E44;" d="M1859.584,489.449c-7.99,0-15.386-0.792-21.541-2.264c-1.184-0.283-1.915-1.473-1.632-2.657
						c0.284-1.184,1.475-1.908,2.657-1.632c20.188,4.826,54.237,1.599,76.281-12.157c1.034-0.644,2.393-0.328,3.038,0.704
						c0.644,1.034,0.33,2.393-0.704,3.038C1900.87,484.971,1878.563,489.449,1859.584,489.449z"/>
					<g>
						<path style="fill:#FFFFFF;" d="M1891.312,418.71c0,0-7.918,7.939-19.304,11.352c-2.393,0.717-3.684-19.99-1.09-19.598
							C1882.491,412.21,1891.312,418.71,1891.312,418.71z"/>
						<path style="fill:#363E44;" d="M1835.887,422.922c0,0,13.219,9.74,28.524,8.577c2.676-0.203,5.235-0.731,7.642-1.456
							c3.176-6.455,2.576-13.837-1.033-19.562c-2.625-0.403-5.393-0.564-8.233-0.348
							C1847.483,411.296,1835.887,422.922,1835.887,422.922z"/>
					</g>
					<path style="fill:#363E44;" d="M1841.453,452.2c-3.16,0-6.275-1.616-8.17-4.419c-0.681-1.01-0.417-2.38,0.592-3.062
						c1.012-0.682,2.38-0.415,3.062,0.592c1.363,2.016,3.809,2.947,5.945,2.257c2.644-0.849,3.368-3.805,3.397-3.93
						c0.278-1.181,1.457-1.924,2.643-1.652c1.182,0.272,1.924,1.442,1.658,2.626c-0.461,2.048-2.316,5.859-6.348,7.155
						C1843.321,452.059,1842.385,452.2,1841.453,452.2z"/>
					<path style="fill:#84524D;" d="M1830.83,417.803c-0.73,1.625-2.031,3.894-4.376,5.724c-2.828,2.208-5.081,2.144-5.994,3.995
						c-0.611,1.242-0.671,3.442,2.268,7.615L1830.83,417.803z"/>
					<path style="fill:#363E44;" d="M1822.73,437.342c-0.693,0-1.376-0.326-1.805-0.936c-2.889-4.104-3.687-7.328-2.442-9.858
						c0.853-1.73,2.299-2.408,3.697-3.064c0.918-0.431,1.868-0.875,2.917-1.696c1.559-1.217,2.81-2.862,3.722-4.889
						c0.5-1.112,1.807-1.608,2.914-1.108c1.111,0.499,1.607,1.804,1.108,2.914c-1.208,2.689-2.9,4.896-5.03,6.557
						c-1.441,1.127-2.727,1.729-3.759,2.214c-1.027,0.481-1.461,0.708-1.614,1.02c-0.336,0.681,0.037,2.451,2.093,5.371
						c0.701,0.996,0.462,2.371-0.534,3.072C1823.611,437.212,1823.168,437.342,1822.73,437.342z"/>
					<g>
						<path style="fill:#363E44;" d="M1904.62,465.787c-4.179,0-8.217-1.074-11.667-3.264c-1.027-0.652-1.332-2.015-0.679-3.043
							c0.652-1.027,2.012-1.333,3.044-0.679c6.548,4.157,15.865,3.243,23.184-2.276c4.497-3.387,7.604-8.032,8.749-13.077
							c1.115-4.909,0.225-9.609-2.506-13.233c-4.357-5.782-12.692-7.667-20.75-4.692c-1.14,0.419-2.409-0.161-2.832-1.304
							c-0.422-1.142,0.161-2.41,1.304-2.832c9.888-3.655,20.261-1.177,25.801,6.173c3.525,4.679,4.692,10.668,3.285,16.865
							c-1.377,6.06-5.068,11.609-10.396,15.623C1916.12,463.841,1910.243,465.787,1904.62,465.787z"/>
						<path style="fill:#363E44;" d="M1912.067,454.105c-0.8,0-1.572-0.436-1.963-1.197c-0.558-1.083-0.13-2.412,0.953-2.968
							c0.583-0.3,1.15-0.657,1.685-1.059c4.181-3.151,5.509-8.468,2.958-11.853c-0.594-0.789-1.359-1.42-2.272-1.873
							c-1.091-0.543-1.534-1.866-0.993-2.956c0.541-1.091,1.861-1.534,2.956-0.993c1.531,0.762,2.82,1.828,3.83,3.169
							c4.012,5.326,2.295,13.413-3.827,18.028c-0.736,0.553-1.517,1.044-2.323,1.458
							C1912.751,454.026,1912.406,454.105,1912.067,454.105z"/>
					</g>
				</g>
				<path style="fill:#363E44;" d="M1860.559,354.278c17.961-6.695,31.856-4.116,38.738-3.69
					c-6.255-2.087-13.797-4.097-22.454-5.416c-2.64-0.402-5.206-0.713-7.688-0.946c2.873-1.233,5.925-2.306,9.167-3.16
					c9.224-2.43,19.492-3.997,29.306-1.821c17.218,3.819,29.744,20.212,34.107,24.947c-2.04-4.062-4.777-8.657-8.462-13.367
					c-1.981-2.531-4.021-4.817-6.067-6.887c9.33,2.859,17.483,6.592,23.199,13.049c2.545,2.875,4.022,5.854,5.723,10.024
					c1.897,4.652,2.544,10.163,3.123,13.879c0.211-1.475,0.465-3.635,0.573-6.251c0.044-1.075,0.124-3.099,0.074-5.474
					c2.086,3.342,3.823,6.936,5.11,10.8c9.411,28.254-4.166,48.164-19.982,56.804c-26.517-14.255-49.74-33.187-73.995-46.467
					c6.573,0.493,11.876-0.631,14.87-1.483c-15.745-2.151-24.528-4.326-29.438-5.658c-7.7-2.09-14.031-3.971-22.61-7.147
					C1836.235,372.048,1847.517,359.139,1860.559,354.278z"/>
			</g>
		</g>
		<g>
			<g>
				<rect x="558.25" y="562.794" style="fill:#E6D0BE;" width="586.519" height="1384.837"/>
				<g>
					<path style="fill:#BC8271;" d="M1110.269,1878.905H590.834c-1.218,0-2.205-0.987-2.205-2.205v-95.837
						c0-1.218,0.987-2.205,2.205-2.205h519.434c1.218,0,2.205,0.987,2.205,2.205v95.837
						C1112.473,1877.917,1111.486,1878.905,1110.269,1878.905z M593.039,1874.495h515.025v-91.427H593.039V1874.495z"/>
					<path style="fill:#D3BBA3;" d="M855.819,1843.801c-8.416,0-15.263-6.847-15.263-15.263c0-8.416,6.847-15.262,15.263-15.262
						c8.415,0,15.263,6.847,15.263,15.262C871.081,1836.954,864.234,1843.801,855.819,1843.801z M855.819,1817.685
						c-5.985,0-10.853,4.868-10.853,10.853c0,5.985,4.868,10.853,10.853,10.853c5.985,0,10.853-4.868,10.853-10.853
						C866.672,1822.554,861.803,1817.685,855.819,1817.685z"/>
					<rect x="618.653" y="1816.911" style="fill:#F2E6DC;" width="129.376" height="23.961"/>
					<rect x="954.32" y="1816.91" style="fill:#F2E6DC;" width="129.376" height="23.961"/>
				</g>
				<g>
					<path style="fill:#BC8271;" d="M1108.83,1753.836H589.397c-1.218,0-2.205-0.987-2.205-2.205v-95.837
						c0-1.218,0.987-2.205,2.205-2.205h519.433c1.218,0,2.205,0.987,2.205,2.205v95.837
						C1111.035,1752.849,1110.048,1753.836,1108.83,1753.836z M591.602,1749.426h515.023V1658H591.602V1749.426z"/>
					<path style="fill:#D3BBA3;" d="M854.381,1718.732c-8.416,0-15.263-6.847-15.263-15.263c0-8.416,6.847-15.262,15.263-15.262
						c8.415,0,15.263,6.847,15.263,15.262C869.644,1711.885,862.797,1718.732,854.381,1718.732z M854.381,1692.617
						c-5.985,0-10.853,4.868-10.853,10.853c0,5.985,4.868,10.853,10.853,10.853c5.985,0,10.853-4.868,10.853-10.853
						C865.234,1697.485,860.366,1692.617,854.381,1692.617z"/>
					<rect x="617.216" y="1691.843" style="fill:#F2E6DC;" width="129.376" height="23.961"/>
					<rect x="952.883" y="1691.841" style="fill:#F2E6DC;" width="129.376" height="23.961"/>
				</g>
				<g>
					<path style="fill:#BC8271;" d="M1108.83,1628.765H589.397c-1.218,0-2.205-0.987-2.205-2.205v-95.836
						c0-1.218,0.987-2.205,2.205-2.205h519.433c1.218,0,2.205,0.987,2.205,2.205v95.836
						C1111.035,1627.778,1110.048,1628.765,1108.83,1628.765z M591.602,1624.356h515.023v-91.427H591.602V1624.356z"/>
					<path style="fill:#D3BBA3;" d="M854.381,1593.661c-8.416,0-15.263-6.846-15.263-15.261c0-8.416,6.847-15.263,15.263-15.263
						c8.415,0,15.263,6.847,15.263,15.263C869.644,1586.816,862.797,1593.661,854.381,1593.661z M854.381,1567.547
						c-5.985,0-10.853,4.868-10.853,10.853c0,5.984,4.868,10.852,10.853,10.852c5.985,0,10.853-4.868,10.853-10.852
						C865.234,1572.415,860.366,1567.547,854.381,1567.547z"/>
					<rect x="617.216" y="1566.773" style="fill:#F2E6DC;" width="129.376" height="23.961"/>
					<rect x="952.883" y="1566.771" style="fill:#F2E6DC;" width="129.376" height="23.961"/>
				</g>
				<g>
					<path style="fill:#84524D;" d="M1111.714,1505.137H592.281c-1.218,0-2.205-0.987-2.205-2.205v-95.836
						c0-1.218,0.987-2.205,2.205-2.205h519.433c1.218,0,2.205,0.987,2.205,2.205v95.836
						C1113.919,1504.15,1112.932,1505.137,1111.714,1505.137z M594.486,1500.728h515.023v-91.427H594.486V1500.728z"/>
					<g>
						
							<ellipse transform="matrix(0.0115 -0.9999 0.9999 0.0115 -398.3801 2513.5298)" style="fill:#D3BBA3;" cx="1072.055" cy="1458.25" rx="13.058" ry="13.058"/>
						
							<ellipse transform="matrix(0.7071 -0.7071 0.7071 0.7071 -728.7048 1154.1326)" style="fill:#D3BBA3;" cx="1028.809" cy="1456.691" rx="13.058" ry="13.058"/>
						
							<ellipse transform="matrix(0.9226 -0.3857 0.3857 0.9226 -485.5298 492.8171)" style="fill:#BC8271;" cx="985.682" cy="1456.691" rx="13.058" ry="13.058"/>
					</g>
					<path style="fill:#D87355;" d="M635.646,1493.398c-1.218,0-2.205-0.987-2.205-2.205v-71.877c0-1.218,0.987-2.205,2.205-2.205
						c1.218,0,2.205,0.987,2.205,2.205v71.877C637.85,1492.411,636.863,1493.398,635.646,1493.398z"/>
					<path style="fill:#D87355;" d="M615.524,1493.398c-1.218,0-2.205-0.987-2.205-2.205v-40.507c0-1.218,0.987-2.205,2.205-2.205
						c1.218,0,2.205,0.987,2.205,2.205v40.507C617.729,1492.411,616.742,1493.398,615.524,1493.398z"/>
					<path style="fill:#D87355;" d="M676.614,1448.205c-1.218,0-2.205-0.987-2.205-2.205v-25.965c0-1.218,0.987-2.205,2.205-2.205
						c1.218,0,2.205,0.987,2.205,2.205V1446C678.818,1447.218,677.831,1448.205,676.614,1448.205z"/>
					<path style="fill:#D87355;" d="M656.493,1494.117c-1.218,0-2.205-0.987-2.205-2.205v-71.877c0-1.218,0.987-2.205,2.205-2.205
						s2.205,0.987,2.205,2.205v71.877C658.698,1493.13,657.711,1494.117,656.493,1494.117z"/>
					<path style="fill:#D87355;" d="M716.867,1469.745c-1.218,0-2.205-0.987-2.205-2.205v-49.661c0-1.218,0.987-2.205,2.205-2.205
						s2.205,0.987,2.205,2.205v49.661C719.071,1468.758,718.084,1469.745,716.867,1469.745z"/>
					<path style="fill:#D87355;" d="M696.747,1491.961c-1.218,0-2.205-0.987-2.205-2.205v-71.877c0-1.218,0.987-2.205,2.205-2.205
						c1.218,0,2.205,0.987,2.205,2.205v71.877C698.951,1490.974,697.964,1491.961,696.747,1491.961z"/>
					<path style="fill:#D87355;" d="M757.834,1448.207c-1.218,0-2.205-0.987-2.205-2.205v-27.404c0-1.218,0.987-2.205,2.205-2.205
						s2.205,0.987,2.205,2.205v27.404C760.039,1447.22,759.052,1448.207,757.834,1448.207z"/>
					<path style="fill:#D87355;" d="M737.714,1492.68c-1.218,0-2.205-0.987-2.205-2.205v-71.877c0-1.218,0.987-2.205,2.205-2.205
						s2.205,0.987,2.205,2.205v71.877C739.919,1491.693,738.932,1492.68,737.714,1492.68z"/>
				</g>
				<g>
					<path style="fill:#84524D;" d="M1113.138,1389.427H593.705c-1.218,0-2.205-0.987-2.205-2.205v-95.836
						c0-1.218,0.987-2.205,2.205-2.205h519.433c1.218,0,2.205,0.987,2.205,2.205v95.836
						C1115.342,1388.44,1114.355,1389.427,1113.138,1389.427z M595.909,1385.017h515.023v-91.427H595.909V1385.017z"/>
					<g>
						
							<ellipse transform="matrix(0.1717 -0.9852 0.9852 0.1717 -433.4238 2169.5923)" style="fill:#BC8271;" cx="1073.478" cy="1342.54" rx="13.058" ry="13.058"/>
						<circle style="fill:#D3BBA3;" cx="1030.232" cy="1340.981" r="13.058"/>
						<circle style="fill:#D3BBA3;" cx="987.106" cy="1340.981" r="13.058"/>
					</g>
					<path style="fill:#D87355;" d="M637.068,1377.688c-1.218,0-2.205-0.987-2.205-2.205v-71.877c0-1.218,0.987-2.205,2.205-2.205
						s2.205,0.987,2.205,2.205v71.877C639.273,1376.701,638.285,1377.688,637.068,1377.688z"/>
					<path style="fill:#D87355;" d="M616.948,1377.688c-1.218,0-2.205-0.987-2.205-2.205v-53.092c0-1.218,0.987-2.205,2.205-2.205
						s2.205,0.987,2.205,2.205v53.092C619.153,1376.701,618.165,1377.688,616.948,1377.688z"/>
					<path style="fill:#D87355;" d="M678.037,1378.407c-1.218,0-2.205-0.987-2.205-2.205v-71.877c0-1.218,0.987-2.205,2.205-2.205
						s2.205,0.987,2.205,2.205v71.877C680.242,1377.42,679.254,1378.407,678.037,1378.407z"/>
					<path style="fill:#D87355;" d="M657.917,1378.407c-1.218,0-2.205-0.987-2.205-2.205v-28.527c0-1.218,0.987-2.205,2.205-2.205
						s2.205,0.987,2.205,2.205v28.527C660.122,1377.42,659.134,1378.407,657.917,1378.407z"/>
					<path style="fill:#D87355;" d="M718.29,1376.251c-1.218,0-2.205-0.987-2.205-2.205v-71.877c0-1.218,0.987-2.205,2.205-2.205
						c1.218,0,2.205,0.987,2.205,2.205v71.877C720.495,1375.264,719.507,1376.251,718.29,1376.251z"/>
					<path style="fill:#D87355;" d="M698.17,1376.251c-1.218,0-2.205-0.987-2.205-2.205v-21.688c0-1.218,0.987-2.205,2.205-2.205
						c1.218,0,2.205,0.987,2.205,2.205v21.688C700.375,1375.264,699.387,1376.251,698.17,1376.251z"/>
					<path style="fill:#D87355;" d="M759.258,1337.705c-1.218,0-2.205-0.987-2.205-2.205v-32.613c0-1.218,0.987-2.205,2.205-2.205
						c1.218,0,2.205,0.987,2.205,2.205v32.613C761.462,1336.718,760.475,1337.705,759.258,1337.705z"/>
					<path style="fill:#D87355;" d="M739.138,1376.97c-1.218,0-2.205-0.987-2.205-2.205v-56.121c0-1.218,0.987-2.205,2.205-2.205
						c1.218,0,2.205,0.987,2.205,2.205v56.121C741.342,1375.983,740.355,1376.97,739.138,1376.97z"/>
				</g>
				<g>
					<path style="fill:#84524D;" d="M1111.701,1265.079H592.268c-1.218,0-2.205-0.987-2.205-2.205v-95.837
						c0-1.218,0.987-2.205,2.205-2.205h519.433c1.218,0,2.205,0.987,2.205,2.205v95.837
						C1113.906,1264.092,1112.919,1265.079,1111.701,1265.079z M594.473,1260.669h515.023v-91.427H594.473V1260.669z"/>
					<g>
						<circle style="fill:#D3BBA3;" cx="1072.042" cy="1218.192" r="13.058"/>
						<circle style="fill:#BC8271;" cx="1028.796" cy="1216.633" r="13.058"/>
						<circle style="fill:#BC8271;" cx="985.67" cy="1216.633" r="13.058"/>
					</g>
					<path style="fill:#D87355;" d="M635.633,1199.116c-1.218,0-2.205-0.987-2.205-2.205v-17.652c0-1.218,0.987-2.205,2.205-2.205
						s2.205,0.987,2.205,2.205v17.652C637.838,1198.129,636.85,1199.116,635.633,1199.116z"/>
					<path style="fill:#D87355;" d="M615.513,1253.341c-1.218,0-2.205-0.987-2.205-2.205v-71.877c0-1.218,0.987-2.205,2.205-2.205
						s2.205,0.987,2.205,2.205v71.877C617.718,1252.354,616.73,1253.341,615.513,1253.341z"/>
					<path style="fill:#D87355;" d="M676.601,1222.523c-1.218,0-2.205-0.987-2.205-2.205v-40.34c0-1.218,0.987-2.205,2.205-2.205
						s2.205,0.987,2.205,2.205v40.34C678.805,1221.536,677.818,1222.523,676.601,1222.523z"/>
					<path style="fill:#D87355;" d="M656.481,1254.06c-1.218,0-2.205-0.987-2.205-2.205v-71.877c0-1.218,0.987-2.205,2.205-2.205
						c1.218,0,2.205,0.987,2.205,2.205v71.877C658.685,1253.073,657.698,1254.06,656.481,1254.06z"/>
					<path style="fill:#D87355;" d="M716.854,1251.904c-1.218,0-2.205-0.987-2.205-2.205v-71.877c0-1.218,0.987-2.205,2.205-2.205
						c1.218,0,2.205,0.987,2.205,2.205v71.877C719.058,1250.917,718.071,1251.904,716.854,1251.904z"/>
					<path style="fill:#D87355;" d="M696.734,1251.904c-1.218,0-2.205-0.987-2.205-2.205v-71.877c0-1.218,0.987-2.205,2.205-2.205
						s2.205,0.987,2.205,2.205v71.877C698.938,1250.917,697.951,1251.904,696.734,1251.904z"/>
					<path style="fill:#D87355;" d="M757.823,1232.827c-1.218,0-2.205-0.987-2.205-2.205v-52.082c0-1.218,0.987-2.205,2.205-2.205
						s2.205,0.987,2.205,2.205v52.082C760.027,1231.84,759.04,1232.827,757.823,1232.827z"/>
					<path style="fill:#D87355;" d="M737.701,1252.622c-1.218,0-2.205-0.987-2.205-2.205v-53.507c0-1.218,0.987-2.205,2.205-2.205
						s2.205,0.987,2.205,2.205v53.507C739.906,1251.635,738.919,1252.622,737.701,1252.622z"/>
				</g>
				<g>
					<path style="fill:#84524D;" d="M1110.238,853.945H590.804c-1.218,0-2.205-0.987-2.205-2.205v-95.836
						c0-1.218,0.987-2.205,2.205-2.205h519.434c1.218,0,2.205,0.987,2.205,2.205v95.836
						C1112.443,852.957,1111.456,853.945,1110.238,853.945z M593.009,849.535h515.024v-91.427H593.009V849.535z"/>
					<g>
						
							<ellipse transform="matrix(0.1608 -0.987 0.987 0.1608 101.8405 1733.8947)" style="fill:#BC8271;" cx="1070.578" cy="807.058" rx="13.058" ry="13.058"/>
						<circle style="fill:#D3BBA3;" cx="1027.332" cy="805.498" r="13.058"/>
						<circle style="fill:#D3BBA3;" cx="984.206" cy="805.498" r="13.058"/>
					</g>
					<path style="fill:#D87355;" d="M634.169,842.206c-1.218,0-2.205-0.987-2.205-2.205v-71.877c0-1.218,0.987-2.205,2.205-2.205
						c1.218,0,2.205,0.987,2.205,2.205v71.877C636.373,841.218,635.386,842.206,634.169,842.206z"/>
					<path style="fill:#D87355;" d="M614.049,842.206c-1.218,0-2.205-0.987-2.205-2.205V786.91c0-1.218,0.987-2.205,2.205-2.205
						c1.218,0,2.205,0.987,2.205,2.205v53.091C616.253,841.218,615.266,842.206,614.049,842.206z"/>
					<path style="fill:#D87355;" d="M675.136,842.925c-1.218,0-2.205-0.987-2.205-2.205v-71.877c0-1.218,0.987-2.205,2.205-2.205
						s2.205,0.987,2.205,2.205v71.877C677.341,841.938,676.354,842.925,675.136,842.925z"/>
					<path style="fill:#D87355;" d="M655.016,842.925c-1.218,0-2.205-0.987-2.205-2.205v-28.527c0-1.218,0.987-2.205,2.205-2.205
						s2.205,0.987,2.205,2.205v28.527C657.221,841.938,656.234,842.925,655.016,842.925z"/>
					<path style="fill:#D87355;" d="M715.39,840.768c-1.218,0-2.205-0.987-2.205-2.205v-71.877c0-1.218,0.987-2.205,2.205-2.205
						c1.218,0,2.205,0.987,2.205,2.205v71.877C717.594,839.781,716.607,840.768,715.39,840.768z"/>
					<path style="fill:#D87355;" d="M695.269,840.768c-1.218,0-2.205-0.987-2.205-2.205v-21.688c0-1.218,0.987-2.205,2.205-2.205
						s2.205,0.987,2.205,2.205v21.688C697.474,839.781,696.487,840.768,695.269,840.768z"/>
					<path style="fill:#D87355;" d="M756.358,802.223c-1.218,0-2.205-0.987-2.205-2.205v-32.613c0-1.218,0.987-2.205,2.205-2.205
						s2.205,0.987,2.205,2.205v32.613C758.563,801.236,757.576,802.223,756.358,802.223z"/>
					<path style="fill:#D87355;" d="M736.238,841.488c-1.218,0-2.205-0.987-2.205-2.205v-56.121c0-1.218,0.987-2.205,2.205-2.205
						s2.205,0.987,2.205,2.205v56.121C738.443,840.5,737.456,841.488,736.238,841.488z"/>
				</g>
				<g>
					<path style="fill:#84524D;" d="M1108.802,729.596H589.368c-1.218,0-2.205-0.987-2.205-2.205v-95.836
						c0-1.218,0.987-2.205,2.205-2.205h519.434c1.218,0,2.205,0.987,2.205,2.205v95.836
						C1111.007,728.609,1110.02,729.596,1108.802,729.596z M591.573,725.187h515.025V633.76H591.573V725.187z"/>
					<g>
						
							<ellipse transform="matrix(0.0407 -0.9992 0.9992 0.0407 343.4616 1723.1643)" style="fill:#D3BBA3;" cx="1069.143" cy="682.71" rx="13.058" ry="13.058"/>
						<circle style="fill:#BC8271;" cx="1025.896" cy="681.151" r="13.058"/>
						<circle style="fill:#BC8271;" cx="982.77" cy="681.151" r="13.058"/>
					</g>
					<path style="fill:#D87355;" d="M632.732,663.634c-1.218,0-2.205-0.987-2.205-2.205v-17.653c0-1.218,0.987-2.205,2.205-2.205
						c1.218,0,2.205,0.987,2.205,2.205v17.653C634.937,662.646,633.95,663.634,632.732,663.634z"/>
					<path style="fill:#D87355;" d="M612.612,717.858c-1.218,0-2.205-0.987-2.205-2.205v-71.877c0-1.218,0.987-2.205,2.205-2.205
						c1.218,0,2.205,0.987,2.205,2.205v71.877C614.817,716.871,613.83,717.858,612.612,717.858z"/>
					<path style="fill:#D87355;" d="M673.701,687.04c-1.218,0-2.205-0.987-2.205-2.205v-40.34c0-1.218,0.987-2.205,2.205-2.205
						s2.205,0.987,2.205,2.205v40.34C675.906,686.053,674.919,687.04,673.701,687.04z"/>
					<path style="fill:#D87355;" d="M653.581,718.578c-1.218,0-2.205-0.987-2.205-2.205v-71.877c0-1.218,0.987-2.205,2.205-2.205
						s2.205,0.987,2.205,2.205v71.877C655.786,717.59,654.799,718.578,653.581,718.578z"/>
					<path style="fill:#D87355;" d="M713.954,716.421c-1.218,0-2.205-0.987-2.205-2.205v-71.877c0-1.218,0.987-2.205,2.205-2.205
						s2.205,0.987,2.205,2.205v71.877C716.159,715.434,715.172,716.421,713.954,716.421z"/>
					<path style="fill:#D87355;" d="M693.834,716.421c-1.218,0-2.205-0.987-2.205-2.205v-71.877c0-1.218,0.987-2.205,2.205-2.205
						s2.205,0.987,2.205,2.205v71.877C696.039,715.434,695.052,716.421,693.834,716.421z"/>
					<path style="fill:#D87355;" d="M754.922,697.344c-1.218,0-2.205-0.987-2.205-2.205v-52.082c0-1.218,0.987-2.205,2.205-2.205
						s2.205,0.987,2.205,2.205v52.082C757.127,696.357,756.14,697.344,754.922,697.344z"/>
					<path style="fill:#D87355;" d="M734.802,717.139c-1.218,0-2.205-0.987-2.205-2.205v-53.507c0-1.218,0.987-2.205,2.205-2.205
						s2.205,0.987,2.205,2.205v53.507C737.007,716.152,736.02,717.139,734.802,717.139z"/>
				</g>
				<g>
					<rect x="593.795" y="1066.028" style="fill:#F2E6DC;" width="516.559" height="46.001"/>
					
						<ellipse transform="matrix(0.9957 -0.0927 0.0927 0.9957 -98.3771 61.9564)" style="fill:#E6D0BE;" cx="617.754" cy="1089.98" rx="8.625" ry="8.625"/>
					
						<ellipse transform="matrix(0.7071 -0.7071 0.7071 0.7071 -450.734 1089.8745)" style="fill:#E6D0BE;" cx="1090.228" cy="1089.021" rx="8.625" ry="8.625"/>
				</g>
				<g>
					<rect x="591.877" y="985.52" style="fill:#F2E6DC;" width="516.559" height="46.001"/>
					
						<ellipse transform="matrix(0.9247 -0.3807 0.3807 0.9247 -337.9156 310.4401)" style="fill:#E6D0BE;" cx="615.836" cy="1009.472" rx="8.625" ry="8.625"/>
					<circle style="fill:#E6D0BE;" cx="1088.309" cy="1008.513" r="8.625"/>
				</g>
				<g>
					<rect x="590.92" y="906.936" style="fill:#F2E6DC;" width="516.559" height="46.001"/>
					
						<ellipse transform="matrix(0.7071 -0.7071 0.7071 0.7071 -478.143 707.4358)" style="fill:#E6D0BE;" cx="614.879" cy="930.888" rx="8.625" ry="8.625"/>
					<circle style="fill:#E6D0BE;" cx="1087.353" cy="929.929" r="8.625"/>
				</g>
				<path style="fill:#363E44;" d="M1136.229,1941.303h-603.77c-1.218,0-2.205-0.987-2.205-2.205V544.681
					c0-1.218,0.987-2.205,2.205-2.205h603.77c1.218,0,2.205,0.987,2.205,2.205v1394.417
					C1138.434,1940.316,1137.447,1941.303,1136.229,1941.303z M534.664,1936.893h599.36V546.886h-599.36V1936.893z"/>
			</g>
			<path style="fill:#363E44;" d="M1539.409,522.686c-1.218,0-2.205-0.987-2.205-2.205V464.92l-694.908-5.937l-1.921,59.579
				c-0.04,1.218-1.072,2.18-2.275,2.133c-1.218-0.04-2.171-1.058-2.133-2.275l1.991-61.731c0.039-1.196,1.015-2.09,2.223-2.134
				l699.245,5.974c1.211,0.011,2.187,0.995,2.187,2.205v57.747C1541.614,521.698,1540.627,522.686,1539.409,522.686z"/>
			<g>
				<rect x="1248.574" y="562.794" style="fill:#E6D0BE;" width="586.519" height="1384.837"/>
				<g>
					<path style="fill:#BC8271;" d="M1800.592,1878.905h-519.434c-1.218,0-2.205-0.987-2.205-2.205v-95.837
						c0-1.218,0.987-2.205,2.205-2.205h519.434c1.218,0,2.205,0.987,2.205,2.205v95.837
						C1802.797,1877.917,1801.81,1878.905,1800.592,1878.905z M1283.363,1874.495h515.024v-91.427h-515.024V1874.495z"/>
					<path style="fill:#D3BBA3;" d="M1546.142,1843.801c-8.416,0-15.263-6.847-15.263-15.263c0-8.416,6.847-15.262,15.263-15.262
						s15.263,6.847,15.263,15.262C1561.405,1836.954,1554.558,1843.801,1546.142,1843.801z M1546.142,1817.685
						c-5.985,0-10.853,4.868-10.853,10.853c0,5.985,4.868,10.853,10.853,10.853s10.853-4.868,10.853-10.853
						C1556.995,1822.554,1552.127,1817.685,1546.142,1817.685z"/>
					<rect x="1308.977" y="1816.911" style="fill:#F2E6DC;" width="129.376" height="23.961"/>
					<rect x="1644.645" y="1816.91" style="fill:#F2E6DC;" width="129.376" height="23.961"/>
				</g>
				<g>
					<path style="fill:#BC8271;" d="M1799.154,1753.836h-519.433c-1.218,0-2.205-0.987-2.205-2.205v-95.837
						c0-1.218,0.987-2.205,2.205-2.205h519.433c1.218,0,2.205,0.987,2.205,2.205v95.837
						C1801.359,1752.849,1800.372,1753.836,1799.154,1753.836z M1281.926,1749.426h515.023V1658h-515.023V1749.426z"/>
					<path style="fill:#D3BBA3;" d="M1544.705,1718.732c-8.416,0-15.263-6.847-15.263-15.263c0-8.416,6.847-15.262,15.263-15.262
						c8.416,0,15.263,6.847,15.263,15.262C1559.968,1711.885,1553.121,1718.732,1544.705,1718.732z M1544.705,1692.617
						c-5.985,0-10.853,4.868-10.853,10.853c0,5.985,4.868,10.853,10.853,10.853c5.985,0,10.853-4.868,10.853-10.853
						C1555.558,1697.485,1550.69,1692.617,1544.705,1692.617z"/>
					<rect x="1307.54" y="1691.843" style="fill:#F2E6DC;" width="129.376" height="23.961"/>
					<rect x="1643.207" y="1691.841" style="fill:#F2E6DC;" width="129.376" height="23.961"/>
				</g>
				<g>
					<path style="fill:#BC8271;" d="M1799.154,1628.765h-519.433c-1.218,0-2.205-0.987-2.205-2.205v-95.836
						c0-1.218,0.987-2.205,2.205-2.205h519.433c1.218,0,2.205,0.987,2.205,2.205v95.836
						C1801.359,1627.778,1800.372,1628.765,1799.154,1628.765z M1281.926,1624.356h515.023v-91.427h-515.023V1624.356z"/>
					<path style="fill:#D3BBA3;" d="M1544.705,1593.661c-8.416,0-15.263-6.846-15.263-15.261c0-8.416,6.847-15.263,15.263-15.263
						c8.416,0,15.263,6.847,15.263,15.263C1559.968,1586.816,1553.121,1593.661,1544.705,1593.661z M1544.705,1567.547
						c-5.985,0-10.853,4.868-10.853,10.853c0,5.984,4.868,10.852,10.853,10.852c5.985,0,10.853-4.868,10.853-10.852
						C1555.558,1572.415,1550.69,1567.547,1544.705,1567.547z"/>
					<rect x="1307.54" y="1566.773" style="fill:#F2E6DC;" width="129.376" height="23.961"/>
					<rect x="1643.207" y="1566.771" style="fill:#F2E6DC;" width="129.376" height="23.961"/>
				</g>
				<g>
					<path style="fill:#84524D;" d="M1802.038,1505.137h-519.433c-1.218,0-2.205-0.987-2.205-2.205v-95.836
						c0-1.218,0.987-2.205,2.205-2.205h519.433c1.218,0,2.205,0.987,2.205,2.205v95.836
						C1804.243,1504.15,1803.256,1505.137,1802.038,1505.137z M1284.81,1500.728h515.023v-91.427H1284.81V1500.728z"/>
					<g>
						<circle style="fill:#D3BBA3;" cx="1762.379" cy="1458.25" r="13.058"/>
						
							<ellipse transform="matrix(0.9226 -0.3857 0.3857 0.9226 -428.7926 775.6753)" style="fill:#D3BBA3;" cx="1719.133" cy="1456.691" rx="13.058" ry="13.058"/>
						
							<ellipse transform="matrix(0.9226 -0.3857 0.3857 0.9226 -432.1287 759.0435)" style="fill:#BC8271;" cx="1676.006" cy="1456.691" rx="13.058" ry="13.058"/>
					</g>
					<path style="fill:#D87355;" d="M1325.969,1493.398c-1.218,0-2.205-0.987-2.205-2.205v-71.877c0-1.218,0.987-2.205,2.205-2.205
						c1.218,0,2.205,0.987,2.205,2.205v71.877C1328.174,1492.411,1327.187,1493.398,1325.969,1493.398z"/>
					<path style="fill:#D87355;" d="M1305.849,1493.398c-1.218,0-2.205-0.987-2.205-2.205v-40.507c0-1.218,0.987-2.205,2.205-2.205
						c1.218,0,2.205,0.987,2.205,2.205v40.507C1308.054,1492.411,1307.067,1493.398,1305.849,1493.398z"/>
					<path style="fill:#D87355;" d="M1366.937,1448.205c-1.218,0-2.205-0.987-2.205-2.205v-25.965c0-1.218,0.987-2.205,2.205-2.205
						c1.218,0,2.205,0.987,2.205,2.205V1446C1369.142,1447.218,1368.155,1448.205,1366.937,1448.205z"/>
					<path style="fill:#D87355;" d="M1346.817,1494.117c-1.218,0-2.205-0.987-2.205-2.205v-71.877c0-1.218,0.987-2.205,2.205-2.205
						c1.218,0,2.205,0.987,2.205,2.205v71.877C1349.022,1493.13,1348.035,1494.117,1346.817,1494.117z"/>
					<path style="fill:#D87355;" d="M1407.19,1469.745c-1.218,0-2.205-0.987-2.205-2.205v-49.661c0-1.218,0.987-2.205,2.205-2.205
						s2.205,0.987,2.205,2.205v49.661C1409.395,1468.758,1408.408,1469.745,1407.19,1469.745z"/>
					<path style="fill:#D87355;" d="M1387.07,1491.961c-1.218,0-2.205-0.987-2.205-2.205v-71.877c0-1.218,0.987-2.205,2.205-2.205
						s2.205,0.987,2.205,2.205v71.877C1389.275,1490.974,1388.288,1491.961,1387.07,1491.961z"/>
					<path style="fill:#D87355;" d="M1448.159,1448.207c-1.218,0-2.205-0.987-2.205-2.205v-27.404c0-1.218,0.987-2.205,2.205-2.205
						c1.218,0,2.205,0.987,2.205,2.205v27.404C1450.364,1447.22,1449.377,1448.207,1448.159,1448.207z"/>
					<path style="fill:#D87355;" d="M1428.038,1492.68c-1.218,0-2.205-0.987-2.205-2.205v-71.877c0-1.218,0.987-2.205,2.205-2.205
						c1.218,0,2.205,0.987,2.205,2.205v71.877C1430.243,1491.693,1429.256,1492.68,1428.038,1492.68z"/>
				</g>
				<g>
					<path style="fill:#84524D;" d="M1803.461,1389.427h-519.433c-1.218,0-2.205-0.987-2.205-2.205v-95.836
						c0-1.218,0.987-2.205,2.205-2.205h519.433c1.218,0,2.205,0.987,2.205,2.205v95.836
						C1805.666,1388.44,1804.679,1389.427,1803.461,1389.427z M1286.233,1385.017h515.023v-91.427h-515.023V1385.017z"/>
					<g>
						
							<ellipse transform="matrix(0.6742 -0.7385 0.7385 0.6742 -416.8936 1740.0043)" style="fill:#BC8271;" cx="1763.802" cy="1342.54" rx="13.058" ry="13.058"/>
						<circle style="fill:#D3BBA3;" cx="1720.556" cy="1340.981" r="13.058"/>
						<circle style="fill:#D3BBA3;" cx="1677.429" cy="1340.981" r="13.058"/>
					</g>
					<path style="fill:#D87355;" d="M1327.393,1377.688c-1.218,0-2.205-0.987-2.205-2.205v-71.877c0-1.218,0.987-2.205,2.205-2.205
						c1.218,0,2.205,0.987,2.205,2.205v71.877C1329.597,1376.701,1328.61,1377.688,1327.393,1377.688z"/>
					<path style="fill:#D87355;" d="M1307.271,1377.688c-1.218,0-2.205-0.987-2.205-2.205v-53.092c0-1.218,0.987-2.205,2.205-2.205
						c1.218,0,2.205,0.987,2.205,2.205v53.092C1309.476,1376.701,1308.489,1377.688,1307.271,1377.688z"/>
					<path style="fill:#D87355;" d="M1368.36,1378.407c-1.218,0-2.205-0.987-2.205-2.205v-71.877c0-1.218,0.987-2.205,2.205-2.205
						c1.218,0,2.205,0.987,2.205,2.205v71.877C1370.565,1377.42,1369.578,1378.407,1368.36,1378.407z"/>
					<path style="fill:#D87355;" d="M1348.24,1378.407c-1.218,0-2.205-0.987-2.205-2.205v-28.527c0-1.218,0.987-2.205,2.205-2.205
						c1.218,0,2.205,0.987,2.205,2.205v28.527C1350.445,1377.42,1349.458,1378.407,1348.24,1378.407z"/>
					<path style="fill:#D87355;" d="M1408.614,1376.251c-1.218,0-2.205-0.987-2.205-2.205v-71.877c0-1.218,0.987-2.205,2.205-2.205
						c1.218,0,2.205,0.987,2.205,2.205v71.877C1410.818,1375.264,1409.831,1376.251,1408.614,1376.251z"/>
					<path style="fill:#D87355;" d="M1388.493,1376.251c-1.218,0-2.205-0.987-2.205-2.205v-21.688c0-1.218,0.987-2.205,2.205-2.205
						s2.205,0.987,2.205,2.205v21.688C1390.698,1375.264,1389.711,1376.251,1388.493,1376.251z"/>
					<path style="fill:#D87355;" d="M1449.581,1337.705c-1.218,0-2.205-0.987-2.205-2.205v-32.613c0-1.218,0.987-2.205,2.205-2.205
						c1.218,0,2.205,0.987,2.205,2.205v32.613C1451.786,1336.718,1450.799,1337.705,1449.581,1337.705z"/>
					<path style="fill:#D87355;" d="M1429.461,1376.97c-1.218,0-2.205-0.987-2.205-2.205v-56.121c0-1.218,0.987-2.205,2.205-2.205
						s2.205,0.987,2.205,2.205v56.121C1431.666,1375.983,1430.679,1376.97,1429.461,1376.97z"/>
				</g>
				<g>
					<path style="fill:#84524D;" d="M1802.026,1265.079h-519.434c-1.218,0-2.205-0.987-2.205-2.205v-95.837
						c0-1.218,0.987-2.205,2.205-2.205h519.434c1.218,0,2.205,0.987,2.205,2.205v95.837
						C1804.231,1264.092,1803.244,1265.079,1802.026,1265.079z M1284.797,1260.669h515.024v-91.427h-515.024V1260.669z"/>
					<g>
						<circle style="fill:#D3BBA3;" cx="1762.366" cy="1218.192" r="13.058"/>
						<circle style="fill:#BC8271;" cx="1719.12" cy="1216.633" r="13.058"/>
						<circle style="fill:#BC8271;" cx="1675.994" cy="1216.633" r="13.058"/>
					</g>
					<path style="fill:#D87355;" d="M1325.957,1199.116c-1.218,0-2.205-0.987-2.205-2.205v-17.652c0-1.218,0.987-2.205,2.205-2.205
						c1.218,0,2.205,0.987,2.205,2.205v17.652C1328.161,1198.129,1327.174,1199.116,1325.957,1199.116z"/>
					<path style="fill:#D87355;" d="M1305.836,1253.341c-1.218,0-2.205-0.987-2.205-2.205v-71.877c0-1.218,0.987-2.205,2.205-2.205
						c1.218,0,2.205,0.987,2.205,2.205v71.877C1308.041,1252.354,1307.054,1253.341,1305.836,1253.341z"/>
					<path style="fill:#D87355;" d="M1366.924,1222.523c-1.218,0-2.205-0.987-2.205-2.205v-40.34c0-1.218,0.987-2.205,2.205-2.205
						c1.218,0,2.205,0.987,2.205,2.205v40.34C1369.129,1221.536,1368.142,1222.523,1366.924,1222.523z"/>
					<path style="fill:#D87355;" d="M1346.804,1254.06c-1.218,0-2.205-0.987-2.205-2.205v-71.877c0-1.218,0.987-2.205,2.205-2.205
						c1.218,0,2.205,0.987,2.205,2.205v71.877C1349.009,1253.073,1348.022,1254.06,1346.804,1254.06z"/>
					<path style="fill:#D87355;" d="M1407.177,1251.904c-1.218,0-2.205-0.987-2.205-2.205v-71.877c0-1.218,0.987-2.205,2.205-2.205
						c1.218,0,2.205,0.987,2.205,2.205v71.877C1409.382,1250.917,1408.395,1251.904,1407.177,1251.904z"/>
					<path style="fill:#D87355;" d="M1387.057,1251.904c-1.218,0-2.205-0.987-2.205-2.205v-71.877c0-1.218,0.987-2.205,2.205-2.205
						c1.218,0,2.205,0.987,2.205,2.205v71.877C1389.262,1250.917,1388.275,1251.904,1387.057,1251.904z"/>
					<path style="fill:#D87355;" d="M1448.146,1232.827c-1.218,0-2.205-0.987-2.205-2.205v-52.082c0-1.218,0.987-2.205,2.205-2.205
						c1.218,0,2.205,0.987,2.205,2.205v52.082C1450.351,1231.84,1449.364,1232.827,1448.146,1232.827z"/>
					<path style="fill:#D87355;" d="M1428.026,1252.622c-1.218,0-2.205-0.987-2.205-2.205v-53.507c0-1.218,0.987-2.205,2.205-2.205
						c1.218,0,2.205,0.987,2.205,2.205v53.507C1430.231,1251.635,1429.244,1252.622,1428.026,1252.622z"/>
				</g>
				<g>
					<path style="fill:#84524D;" d="M1800.562,853.945h-519.434c-1.218,0-2.205-0.987-2.205-2.205v-95.836
						c0-1.218,0.987-2.205,2.205-2.205h519.434c1.218,0,2.205,0.987,2.205,2.205v95.836
						C1802.767,852.957,1801.78,853.945,1800.562,853.945z M1283.333,849.535h515.025v-91.427h-515.025V849.535z"/>
					<g>
						
							<ellipse transform="matrix(0.231 -0.9729 0.9729 0.231 568.8368 2333.8511)" style="fill:#BC8271;" cx="1760.902" cy="807.058" rx="13.058" ry="13.058"/>
						<circle style="fill:#D3BBA3;" cx="1717.656" cy="805.498" r="13.058"/>
						<circle style="fill:#D3BBA3;" cx="1674.53" cy="805.498" r="13.058"/>
					</g>
					<path style="fill:#D87355;" d="M1324.492,842.206c-1.218,0-2.205-0.987-2.205-2.205v-71.877c0-1.218,0.987-2.205,2.205-2.205
						s2.205,0.987,2.205,2.205v71.877C1326.697,841.218,1325.71,842.206,1324.492,842.206z"/>
					<path style="fill:#D87355;" d="M1304.372,842.206c-1.218,0-2.205-0.987-2.205-2.205V786.91c0-1.218,0.987-2.205,2.205-2.205
						c1.218,0,2.205,0.987,2.205,2.205v53.091C1306.577,841.218,1305.59,842.206,1304.372,842.206z"/>
					<path style="fill:#D87355;" d="M1365.461,842.925c-1.218,0-2.205-0.987-2.205-2.205v-71.877c0-1.218,0.987-2.205,2.205-2.205
						s2.205,0.987,2.205,2.205v71.877C1367.666,841.938,1366.679,842.925,1365.461,842.925z"/>
					<path style="fill:#D87355;" d="M1345.34,842.925c-1.218,0-2.205-0.987-2.205-2.205v-28.527c0-1.218,0.987-2.205,2.205-2.205
						c1.218,0,2.205,0.987,2.205,2.205v28.527C1347.545,841.938,1346.558,842.925,1345.34,842.925z"/>
					<path style="fill:#D87355;" d="M1405.714,840.768c-1.218,0-2.205-0.987-2.205-2.205v-71.877c0-1.218,0.987-2.205,2.205-2.205
						c1.218,0,2.205,0.987,2.205,2.205v71.877C1407.919,839.781,1406.932,840.768,1405.714,840.768z"/>
					<path style="fill:#D87355;" d="M1385.593,840.768c-1.218,0-2.205-0.987-2.205-2.205v-21.688c0-1.218,0.987-2.205,2.205-2.205
						c1.218,0,2.205,0.987,2.205,2.205v21.688C1387.798,839.781,1386.811,840.768,1385.593,840.768z"/>
					<path style="fill:#D87355;" d="M1446.682,802.223c-1.218,0-2.205-0.987-2.205-2.205v-32.613c0-1.218,0.987-2.205,2.205-2.205
						c1.218,0,2.205,0.987,2.205,2.205v32.613C1448.887,801.236,1447.9,802.223,1446.682,802.223z"/>
					<path style="fill:#D87355;" d="M1426.562,841.488c-1.218,0-2.205-0.987-2.205-2.205v-56.121c0-1.218,0.987-2.205,2.205-2.205
						c1.218,0,2.205,0.987,2.205,2.205v56.121C1428.767,840.5,1427.78,841.488,1426.562,841.488z"/>
				</g>
				<g>
					<path style="fill:#84524D;" d="M1799.126,729.596h-519.433c-1.218,0-2.205-0.987-2.205-2.205v-95.836
						c0-1.218,0.987-2.205,2.205-2.205h519.433c1.218,0,2.205,0.987,2.205,2.205v95.836
						C1801.331,728.609,1800.344,729.596,1799.126,729.596z M1281.898,725.187h515.023V633.76h-515.023V725.187z"/>
					<g>
						
							<ellipse transform="matrix(0.9181 -0.3964 0.3964 0.9181 -126.4842 753.4545)" style="fill:#D3BBA3;" cx="1759.467" cy="682.71" rx="13.058" ry="13.058"/>
						<circle style="fill:#BC8271;" cx="1716.22" cy="681.151" r="13.058"/>
						<circle style="fill:#BC8271;" cx="1673.094" cy="681.151" r="13.058"/>
					</g>
					<path style="fill:#D87355;" d="M1323.057,663.634c-1.218,0-2.205-0.987-2.205-2.205v-17.653c0-1.218,0.987-2.205,2.205-2.205
						s2.205,0.987,2.205,2.205v17.653C1325.262,662.646,1324.275,663.634,1323.057,663.634z"/>
					<path style="fill:#D87355;" d="M1302.936,717.858c-1.218,0-2.205-0.987-2.205-2.205v-71.877c0-1.218,0.987-2.205,2.205-2.205
						c1.218,0,2.205,0.987,2.205,2.205v71.877C1305.141,716.871,1304.154,717.858,1302.936,717.858z"/>
					<path style="fill:#D87355;" d="M1364.025,687.04c-1.218,0-2.205-0.987-2.205-2.205v-40.34c0-1.218,0.987-2.205,2.205-2.205
						c1.218,0,2.205,0.987,2.205,2.205v40.34C1366.23,686.053,1365.243,687.04,1364.025,687.04z"/>
					<path style="fill:#D87355;" d="M1343.905,718.578c-1.218,0-2.205-0.987-2.205-2.205v-71.877c0-1.218,0.987-2.205,2.205-2.205
						c1.218,0,2.205,0.987,2.205,2.205v71.877C1346.11,717.59,1345.123,718.578,1343.905,718.578z"/>
					<path style="fill:#D87355;" d="M1404.278,716.421c-1.218,0-2.205-0.987-2.205-2.205v-71.877c0-1.218,0.987-2.205,2.205-2.205
						c1.218,0,2.205,0.987,2.205,2.205v71.877C1406.483,715.434,1405.496,716.421,1404.278,716.421z"/>
					<path style="fill:#D87355;" d="M1384.158,716.421c-1.218,0-2.205-0.987-2.205-2.205v-71.877c0-1.218,0.987-2.205,2.205-2.205
						c1.218,0,2.205,0.987,2.205,2.205v71.877C1386.363,715.434,1385.376,716.421,1384.158,716.421z"/>
					<path style="fill:#D87355;" d="M1445.246,697.344c-1.218,0-2.205-0.987-2.205-2.205v-52.082c0-1.218,0.987-2.205,2.205-2.205
						c1.218,0,2.205,0.987,2.205,2.205v52.082C1447.451,696.357,1446.464,697.344,1445.246,697.344z"/>
					<path style="fill:#D87355;" d="M1425.126,717.139c-1.218,0-2.205-0.987-2.205-2.205v-53.507c0-1.218,0.987-2.205,2.205-2.205
						c1.218,0,2.205,0.987,2.205,2.205v53.507C1427.331,716.152,1426.344,717.139,1425.126,717.139z"/>
				</g>
				<g>
					<rect x="1284.119" y="1066.028" style="fill:#F2E6DC;" width="516.559" height="46.001"/>
					
						<ellipse transform="matrix(0.1566 -0.9877 0.9877 0.1566 26.6484 2211.1675)" style="fill:#E6D0BE;" cx="1308.078" cy="1089.98" rx="8.625" ry="8.625"/>
					
						<ellipse transform="matrix(0.9247 -0.3807 0.3807 0.9247 -280.5044 759.8109)" style="fill:#E6D0BE;" cx="1780.552" cy="1089.021" rx="8.625" ry="8.625"/>
				</g>
				<g>
					<rect x="1282.2" y="985.52" style="fill:#F2E6DC;" width="516.558" height="46.001"/>
					
						<ellipse transform="matrix(0.9247 -0.3807 0.3807 0.9247 -285.9396 573.231)" style="fill:#E6D0BE;" cx="1306.16" cy="1009.472" rx="8.625" ry="8.625"/>
					<circle style="fill:#E6D0BE;" cx="1778.633" cy="1008.513" r="8.625"/>
				</g>
				<g>
					<rect x="1281.244" y="906.936" style="fill:#F2E6DC;" width="516.559" height="46.001"/>
					
						<ellipse transform="matrix(0.9247 -0.3807 0.3807 0.9247 -256.0964 566.95)" style="fill:#E6D0BE;" cx="1305.203" cy="930.888" rx="8.625" ry="8.625"/>
					<circle style="fill:#E6D0BE;" cx="1777.677" cy="929.929" r="8.625"/>
				</g>
				<path style="fill:#363E44;" d="M1826.554,1941.303h-603.771c-1.218,0-2.205-0.987-2.205-2.205V544.681
					c0-1.218,0.987-2.205,2.205-2.205h603.771c1.218,0,2.205,0.987,2.205,2.205v1394.417
					C1828.759,1940.316,1827.771,1941.303,1826.554,1941.303z M1224.988,1936.893h599.361V546.886h-599.361V1936.893z"/>
			</g>
		</g>
		<g>
			<path style="fill:#84524D;" d="M1761.154,649.717c12.85-4.593,63.214-32.256,85.359-17.212
				c22.303,15.151,30.621,43.755,29.484,70.683c-0.079,0.077-0.166,0.162-0.243,0.238c-3.416,6.634-9.544,16.036-20.262,22.181
				c-12.218,7.004-18.697,3.067-32.742,8.452c-23.705,9.09-28.38,29.912-36.438,25.917c-5.531-2.741-3.332-14.992,1.582-25.644
				c5.045-10.937,12.914-15.887,11.742-17.474c-1.286-1.742-8.629,4.321-18.453,11.022c-4.564,3.113-11.828,19.374-19.937,16.742
				c-6.465-2.099-3.146-20.893,7.954-33.306c7.854-8.781,19.191-10.304,18.487-12.336c-0.529-1.525-7.263-0.451-12.79,2.203
				c-9.122,4.377-16.732,20.934-24.148,18.366c-7.266-2.517-4.079-18.88,5.408-30.942c7.998-10.171,20.723-11.266,19.862-13.796
				c-0.605-1.78-6.404-2.473-18.433-0.256c-10.04,1.851-28.37,11.92-31.877,1.71C1722.76,667.677,1741.759,656.649,1761.154,649.717
				z"/>
			<path style="fill:#84524D;" d="M2089.045,672.971c28.09,10.873,46.372,38.84,43.854,68.838
				c-1.651,19.667-12.263,39.522-43.529,50.271c-76.125,26.172-237.857-89.206-237.857-89.206l-17.627-74.586
				C1920.127,628.209,2011.726,643.043,2089.045,672.971z"/>
		</g>
		<g>
			<path style="fill:#E6D0BE;" d="M1404.729,1455.453v487.46c0,34.793,103.442,62.999,231.043,62.999
				c127.601,0,231.042-28.206,231.042-62.999v-487.46H1404.729z"/>
			<path style="fill:#FFFFFF;" d="M1635.772,2008.116c-130.794,0-233.248-28.641-233.248-65.204v-489.665h466.496v489.665
				C1869.02,1979.475,1766.566,2008.116,1635.772,2008.116z M1406.934,1457.657v485.255c0,32.954,104.795,60.794,228.838,60.794
				s228.838-27.84,228.838-60.794v-485.255H1406.934z"/>
			<ellipse style="fill:#FFFFFF;" cx="1635.772" cy="1455.355" rx="231.043" ry="62.998"/>
			<ellipse style="fill:transparent;" cx="1635.772" cy="1450.644" rx="181.972" ry="39.761"/>
			<path style="fill:#FFFFFF;" d="M1635.772,1683.077c-130.793,0-233.248-28.64-233.248-65.203c0-1.218,0.987-2.205,2.205-2.205
				c1.218,0,2.205,0.987,2.205,2.205c0,32.953,104.795,60.793,228.838,60.793s228.838-27.84,228.838-60.793
				c0-1.218,0.987-2.205,2.205-2.205c1.218,0,2.205,0.987,2.205,2.205C1869.02,1654.437,1766.565,1683.077,1635.772,1683.077z"/>
			<path style="fill:#FFFFFF;" d="M1635.772,1845.597c-130.793,0-233.248-28.64-233.248-65.203c0-1.218,0.987-2.205,2.205-2.205
				c1.218,0,2.205,0.987,2.205,2.205c0,32.953,104.795,60.793,228.838,60.793s228.838-27.84,228.838-60.793
				c0-1.218,0.987-2.205,2.205-2.205c1.218,0,2.205,0.987,2.205,2.205C1869.02,1816.957,1766.565,1845.597,1635.772,1845.597z"/>
		</g>
		<g>
			<g>
				<path style="fill:#FFFFFF;" d="M1311.148,1311.607c0,0-553.869-18.385-559.099,1.938l-163.009,633.228h893.93l163.005-633.222
					C1651.205,1293.228,1311.148,1311.607,1311.148,1311.607z"/>
				<polygon style="fill:#D87355;" points="1663.647,1244.883 769.717,1244.883 752.044,1313.552 1645.974,1313.552 				"/>
				
					<ellipse transform="matrix(0.7509 -0.6604 0.6604 0.7509 -644.2695 851.3979)" style="fill:#FFFFFF;" cx="806.418" cy="1279.697" rx="17.757" ry="13.737"/>
				
					<ellipse transform="matrix(0.7509 -0.6604 0.6604 0.7509 -631.6953 884.7173)" style="fill:#FFFFFF;" cx="856.882" cy="1279.697" rx="17.757" ry="13.738"/>
				
					<ellipse transform="matrix(0.7509 -0.6604 0.6604 0.7509 -619.126 918.0549)" style="fill:#FFFFFF;" cx="907.346" cy="1279.697" rx="17.757" ry="13.737"/>
			</g>
			<g>
				<polygon style="fill:#E6D0BE;" points="1286.393,1518.032 749.005,1518.032 755.083,1494.416 1292.471,1494.416 				"/>
				<polygon style="fill:#E6D0BE;" points="1515.303,1518.032 1322.171,1518.032 1328.249,1494.416 1521.381,1494.416 				"/>
				<polygon style="fill:#E6D0BE;" points="1133.224,1594.335 978.243,1594.335 984.321,1570.719 1139.302,1570.719 				"/>
				<polygon style="fill:#E6D0BE;" points="1476.589,1594.335 1169.001,1594.335 1175.08,1570.719 1482.667,1570.719 				"/>
				<polygon style="fill:#E6D0BE;" points="1074.31,1823.245 919.329,1823.245 925.407,1799.629 1080.388,1799.629 				"/>
				<polygon style="fill:#E6D0BE;" points="1417.675,1823.245 1110.087,1823.245 1116.165,1799.629 1423.753,1799.629 				"/>
				<polygon style="fill:#E6D0BE;" points="1380.648,1670.638 1053.984,1670.638 1060.062,1647.022 1386.726,1647.022 				"/>
				<polygon style="fill:#E6D0BE;" points="1208.403,1746.942 1034.346,1746.942 1040.424,1723.326 1214.481,1723.326 				"/>
			</g>
			<g>
				<path style="fill:#363E44;" d="M847.17,1455.016c-0.674,0-1.339-0.308-1.772-0.89l-29.74-40.047l49.87-39.663
					c0.952-0.758,2.34-0.6,3.098,0.353c0.758,0.953,0.6,2.34-0.353,3.098l-46.533,37.008l27.197,36.622
					c0.727,0.977,0.522,2.359-0.455,3.084C848.088,1454.875,847.627,1455.016,847.17,1455.016z"/>
				<path style="fill:#363E44;" d="M909.964,1455.016c-0.648,0-1.292-0.285-1.727-0.832c-0.758-0.953-0.6-2.34,0.353-3.098
					l46.533-37.007l-27.197-36.623c-0.727-0.978-0.522-2.359,0.455-3.084c0.977-0.729,2.357-0.522,3.084,0.455l29.74,40.049
					l-49.87,39.662C910.929,1454.86,910.445,1455.016,909.964,1455.016z"/>
				<path style="fill:#363E44;" d="M862.769,1452.654c-0.444,0-0.893-0.133-1.281-0.411c-0.99-0.71-1.219-2.086-0.51-3.077
					l51.674-72.216c0.706-0.99,2.085-1.221,3.077-0.51c0.99,0.709,1.219,2.086,0.51,3.077l-51.674,72.216
					C864.134,1452.334,863.457,1452.654,862.769,1452.654z"/>
			</g>
		</g>
		<g>
			<path style="fill:#E6D0BE;" d="M1681.573,1577.845v487.46c0,34.793,103.442,62.999,231.043,62.999
				c127.601,0,231.043-28.206,231.043-62.999v-487.46H1681.573z"/>
			<path style="fill:#FFFFFF;" d="M1912.616,2130.508c-130.794,0-233.248-28.641-233.248-65.204V1575.64h466.496v489.665
				C2145.864,2101.867,2043.41,2130.508,1912.616,2130.508z M1683.778,1580.049v485.255c0,32.954,104.795,60.794,228.838,60.794
				s228.838-27.84,228.838-60.794v-485.255H1683.778z"/>
			<ellipse style="fill:#FFFFFF;" cx="1912.616" cy="1577.747" rx="231.043" ry="62.998"/>
			<ellipse style="fill:transparent;" cx="1912.616" cy="1573.037" rx="181.972" ry="39.761"/>
			<path style="fill:#FFFFFF;" d="M1912.616,1805.469c-130.793,0-233.248-28.64-233.248-65.203c0-1.218,0.987-2.205,2.205-2.205
				c1.218,0,2.205,0.987,2.205,2.205c0,32.953,104.795,60.793,228.838,60.793s228.838-27.84,228.838-60.793
				c0-1.218,0.987-2.205,2.205-2.205c1.218,0,2.205,0.987,2.205,2.205C2145.864,1776.829,2043.409,1805.469,1912.616,1805.469z"/>
			<path style="fill:#FFFFFF;" d="M1912.616,1967.989c-130.793,0-233.248-28.64-233.248-65.202c0-1.218,0.987-2.205,2.205-2.205
				c1.218,0,2.205,0.987,2.205,2.205c0,32.953,104.795,60.793,228.838,60.793s228.838-27.84,228.838-60.793
				c0-1.218,0.987-2.205,2.205-2.205c1.218,0,2.205,0.987,2.205,2.205C2145.864,1939.349,2043.409,1967.989,1912.616,1967.989z"/>
		</g>
		<g>
			<path style="fill:#363E44;" d="M393.465,2051.54c0,0-14.053,73.095,22.386,107.326h663.958c0,0,77.902-186.009-330.216-170.584
				L393.465,2051.54z"/>
			<g>
				<path style="fill:#363E44;" d="M635.846,1484.881c-0.9,0-1.745-0.555-2.071-1.451l-31.442-86.256
					c-0.418-1.143,0.172-2.409,1.317-2.826c1.139-0.42,2.409,0.171,2.826,1.317l31.442,86.256c0.418,1.143-0.172,2.409-1.317,2.826
					C636.352,1484.838,636.097,1484.881,635.846,1484.881z"/>
				<path style="fill:#E2A18D;" d="M788.196,1465.781c-5.454-44.08-12.519-69.292-33.962-85.853
					c-28.817-22.256-67.427-11.461-71.44-10.273c-2.562,0.758-39.642,9.344-53.461,45.063
					c-13.647,35.275,20.283,75.669,44.521,104.257l-22.595,68.64c-5.838,26.182,1.443,44.141,15.599,49.586
					c21.495,8.267,42.082-2.48,55.968-30.59l20.308-48.375c16.919,2.314,29.307-2.793,36.45-10.031
					C792.377,1535.239,794.62,1517.69,788.196,1465.781z"/>
				<path style="fill:#363E44;" d="M727.287,1504.773c-0.763,0-1.506-0.396-1.914-1.106c-1.719-2.993-3.235-5.742-4.809-8.6
					c-1.284-2.331-2.607-4.731-4.116-7.398c-0.599-1.059-0.226-2.405,0.834-3.005c1.059-0.6,2.405-0.226,3.005,0.834
					c1.517,2.681,2.847,5.097,4.138,7.44c1.562,2.835,3.065,5.562,4.771,8.53c0.606,1.056,0.242,2.404-0.813,3.011
					C728.037,1504.678,727.659,1504.773,727.287,1504.773z"/>
				<path style="fill:#84524D;" d="M631.87,1402.705c0.033-0.01,15.412-34.934,68.494-45.432
					c70.782-13.998,79.223,21.416,79.22,30.765c-0.011,38.334-23.639,51.375-25.77,51.888c3.952,15.518,7.901,31.036,11.851,46.553
					c-5.924,1.643-13.011,4-18.935,5.643c-3.314-16.302-9.684-22.661-18.753-24.33c-14.282-2.629-27.737,10.35-29.162,24.345
					c-1.299,12.775,3.19,26.191,15.333,33.434c-14.481,0.224-35.601,3.92-43.445,3.309
					C594.93,1502.568,610.472,1408.877,631.87,1402.705z"/>
				<g>
					<g>
						
							<ellipse transform="matrix(0.9697 -0.2443 0.2443 0.9697 -331.2393 186.2917)" style="fill:#84524D;" cx="585.325" cy="1428.376" rx="54.299" ry="54.299"/>
					</g>
					<g>
						<path style="fill:#84524D;" d="M585.325,1503.913c-31.156,0-56.504-25.348-56.504-56.505
							c0-31.156,25.348-56.504,56.504-56.504s56.504,25.348,56.504,56.504C641.828,1478.565,616.481,1503.913,585.325,1503.913z
							 M585.325,1395.314c-28.725,0-52.094,23.369-52.094,52.094s23.369,52.095,52.094,52.095s52.094-23.37,52.094-52.095
							S614.05,1395.314,585.325,1395.314z"/>
					</g>
					<g>
						<path style="fill:#84524D;" d="M568.195,1492.493c-31.156,0-56.504-25.348-56.504-56.504s25.348-56.504,56.504-56.504
							s56.504,25.348,56.504,56.504S599.351,1492.493,568.195,1492.493z M568.195,1383.895c-28.725,0-52.094,23.369-52.094,52.094
							s23.369,52.094,52.094,52.094s52.094-23.369,52.094-52.094S596.92,1383.895,568.195,1383.895z"/>
					</g>
				</g>
			</g>
			<g>
				<g>
					<path style="fill:#E2A18D;" d="M390.408,1777.663c-4.692,1.01-24.909,48.907-45.192,99.848
						c-23.197,58.262,19.498,121.618,82.207,122.066l20.745,0.148l85.63-236.083L390.408,1777.663z"/>
					<path style="fill:#ff6900;" d="M459.65,1784.693H357.295l50.044-100.755c25.012-50.356,76.386-82.202,132.612-82.202h156.267
						L459.65,1784.693z"/>
				</g>
				<g>
					<path style="fill:#E2A18D;" d="M905.884,1656.009c57.83,23.399,110.972,36.853,148.343,63.856
						c46.274,33.438,64.722,83.506,43.66,105.905c-22.085,23.487-109.724,40.635-226.845-12.432
						C873.763,1765.432,877.052,1703.979,905.884,1656.009z"/>
					<path style="fill:#E2A18D;" d="M1004.571,1719.534c14.122-33.12,49.537-107.116,79.802-162.044
						c31.784-57.686,87.111-138.226,98.278-130.341c6.361,4.491,1.086,17.036-15.241,49.627c2.473-0.822,10.076-1.824,15.292,3.309
						c7.72,7.596,3.8,15.883,3.742,16.763c0.816-0.347,9.711-3.839,15.739,0.37c6.79,4.742,8.43,11.737,7.117,18.104
						c2.052-0.798,9.919-2.971,15.594,1.246c5.837,4.338,8.782,13.103,5.022,19.695c-6.898,12.091-28.085,47.634-36.288,66.188
						c-16.142,36.51-56.063,173.862-93.34,220.464C1072.908,1779.116,1031.952,1763.332,1004.571,1719.534z"/>
					<path style="fill:#363E44;" d="M1146.953,1491.839c-0.477,0-0.957-0.154-1.361-0.471l-8.675-6.809
						c-0.957-0.752-1.124-2.138-0.372-3.096c0.751-0.958,2.138-1.124,3.096-0.372l8.675,6.809c0.957,0.752,1.124,2.138,0.373,3.096
						C1148.253,1491.55,1147.606,1491.839,1146.953,1491.839z"/>
					<path style="fill:#363E44;" d="M1168.99,1509.086c-0.477,0-0.957-0.154-1.361-0.471l-8.674-6.809
						c-0.958-0.751-1.125-2.138-0.374-3.095c0.751-0.96,2.137-1.125,3.095-0.374l8.676,6.809c0.957,0.752,1.124,2.138,0.372,3.096
						C1170.291,1508.796,1169.644,1509.086,1168.99,1509.086z"/>
					<path style="fill:#363E44;" d="M1191.623,1526.401c-0.477,0-0.957-0.154-1.361-0.47l-8.674-6.809
						c-0.958-0.751-1.125-2.138-0.374-3.095c0.751-0.96,2.137-1.125,3.095-0.374l8.676,6.809c0.957,0.752,1.124,2.138,0.372,3.096
						C1192.923,1526.111,1192.276,1526.401,1191.623,1526.401z"/>
					<path style="fill:#363E44;" d="M1211.826,1542.525c-0.477,0-0.957-0.154-1.361-0.47l-8.675-6.809
						c-0.958-0.753-1.124-2.139-0.373-3.096c0.751-0.958,2.138-1.124,3.096-0.373l8.675,6.809c0.957,0.753,1.124,2.138,0.372,3.096
						C1213.126,1542.236,1212.479,1542.525,1211.826,1542.525z"/>
				</g>
				<g>
					<path style="fill:#ff6900;" d="M636.626,1601.737c166.864-3.947,304.969,59.256,304.969,59.256l-15.975,181.432l-70.91,1.317
						l-43.185,145.85l-52.47-1.5l-34.803,92.172l-366.958,4.159l69.727-247.558C427.022,1836.865,463.081,1605.842,636.626,1601.737
						z"/>
					<path style="fill:#363E44;" d="M855.412,1844.779c-1.177,0-2.153-0.928-2.202-2.113c-0.247-5.944-0.372-13.244-0.494-20.303
						c-0.122-7.047-0.248-14.335-0.492-20.236c-0.051-1.217,0.895-2.244,2.111-2.294c1.226-0.074,2.244,0.895,2.294,2.111
						c0.248,5.954,0.374,13.27,0.495,20.343c0.122,7.034,0.246,14.307,0.491,20.197c0.051,1.216-0.895,2.243-2.111,2.294
						C855.473,1844.778,855.442,1844.779,855.412,1844.779z"/>
					<path style="fill:#363E44;" d="M440.065,1779.869c-0.204,0-0.412-0.029-0.618-0.089c-1.169-0.341-1.841-1.564-1.5-2.733
						l19.906-68.265c0.341-1.17,1.569-1.842,2.733-1.5c1.169,0.341,1.841,1.564,1.5,2.734l-19.906,68.265
						C441.899,1779.243,441.02,1779.869,440.065,1779.869z"/>
				</g>
				<g>
					<path style="fill:#EFBC73;" d="M539.951,1601.737c0,0,15.519-31.584,55.356-31.696c39.837-0.111,186.253,31.047,186.253,31.047
						l6.64,16.522c0,0-116.24,68.603-199.744,78.483C504.951,1705.974,508.526,1629.049,539.951,1601.737z"/>
					<path style="fill:#363E44;" d="M623.956,1637.56c-17.16,0-28.382-3.275-35.714-7.464c-11.221-6.409-12.798-14.68-12.86-15.029
						c-0.211-1.199,0.589-2.343,1.788-2.555c1.192-0.203,2.332,0.581,2.552,1.771c0.061,0.31,1.458,6.818,10.992,12.146
						c17.256,9.642,57.335,13.838,150.284-20.95c1.142-0.427,2.411,0.152,2.838,1.292c0.427,1.14-0.152,2.411-1.292,2.838
						C686.313,1630.654,648.875,1637.56,623.956,1637.56z"/>
				</g>
			</g>
		</g>
		<g>
			<g>
				<path style="fill:#D3BBA3;" d="M2140.574,1293.225h-12.347c-1.106-6.019-2.683-11.872-4.687-17.523l10.685-6.169l-20.893-36.188
					l-10.71,6.184c-3.93-4.601-8.217-8.887-12.818-12.818l6.183-10.71l-36.188-20.893l-6.169,10.686
					c-5.651-2.004-11.505-3.581-17.523-4.687v-12.347h-41.786v12.347c-6.019,1.106-11.872,2.682-17.523,4.687l-6.169-10.686
					L1934.441,1216l6.183,10.71c-4.601,3.93-8.887,8.216-12.817,12.818l-10.71-6.183l-20.893,36.188l10.686,6.169
					c-2.004,5.651-3.581,11.504-4.687,17.523h-12.347l0,41.786h12.347c1.106,6.019,2.683,11.872,4.687,17.523l-10.686,6.169
					l20.893,36.189l10.71-6.184c3.93,4.601,8.216,8.887,12.817,12.818l-6.183,10.71l36.188,20.893l6.169-10.686
					c5.651,2.004,11.504,3.581,17.523,4.687v12.347h41.786v-12.347c6.019-1.106,11.872-2.682,17.523-4.687l6.169,10.686
					l36.188-20.893l-6.183-10.71c4.601-3.93,8.887-8.217,12.818-12.818l10.71,6.184l20.893-36.188l-10.685-6.169
					c2.004-5.651,3.581-11.504,4.687-17.523h12.347V1293.225z M2084.425,1316.384c-1.157,36.257-30.687,65.787-66.943,66.944
					c-40.036,1.278-72.755-31.441-71.477-71.476c1.157-36.257,30.687-65.787,66.943-66.944
					C2052.984,1243.63,2085.703,1276.348,2084.425,1316.384z"/>
			</g>
			<path style="fill:#F2E6DC;" d="M2015.214,1407.731c-51.618,0-93.612-41.995-93.612-93.613c0-45.959,34.219-85.755,79.596-92.569
				c1.192-0.187,2.327,0.647,2.507,1.853c0.181,1.204-0.648,2.326-1.853,2.507c-43.236,6.493-75.841,44.415-75.841,88.209
				c0,49.188,40.016,89.204,89.203,89.204c40.642,0,76.149-27.438,86.348-66.724c0.306-1.178,1.505-1.888,2.688-1.579
				c1.178,0.306,1.886,1.509,1.58,2.688C2095.127,1378.936,2057.865,1407.731,2015.214,1407.731z"/>
		</g>
	</g>
</g>
</svg>
