<?xml version="1.0" encoding="utf-8"?>
<!-- Generator: Adobe Illustrator 27.5.0, SVG Export Plug-In . SVG Version: 6.00 Build 0)  -->
<svg version="1.1" xmlns="http://www.w3.org/2000/svg" xmlns:xlink="http://www.w3.org/1999/xlink" x="0px" y="0px"
	 viewBox="0 0 2500 2500" style="enable-background:new 0 0 2500 2500;" xml:space="preserve">
-
<g id="Illustration">
	<g id="Data_monetization_1_">
		<circle style="fill:transparent;" cx="1250" cy="1250" r="915"/>
		<g>
			<g>
				<path style="fill:#D3BBA3;" d="M1632.855,966.655c-123.967,0-221.076-27.183-221.076-61.885V442.993
					c0-1.218,0.986-2.205,2.205-2.205c1.219,0,2.205,0.987,2.205,2.205v461.777c0,31.155,99.221,57.475,216.667,57.475
					c117.445,0,216.667-26.32,216.667-57.475V442.993c0-1.218,0.986-2.205,2.205-2.205s2.205,0.987,2.205,2.205v461.777
					C1853.931,939.472,1756.822,966.655,1632.855,966.655z"/>
				<path style="fill:#D3BBA3;" d="M1632.855,504.784c-123.967,0-221.076-27.183-221.076-61.884
					c0-34.701,97.109-61.884,221.076-61.884s221.076,27.182,221.076,61.884C1853.931,477.601,1756.822,504.784,1632.855,504.784z
					 M1632.855,385.426c-117.445,0-216.667,26.32-216.667,57.474c0,31.155,99.221,57.475,216.667,57.475
					c117.445,0,216.667-26.32,216.667-57.475C1849.521,411.746,1750.3,385.426,1632.855,385.426z"/>
				<ellipse style="fill:#E6D0BE;" cx="1632.855" cy="438.438" rx="172.385" ry="37.666"/>
				<path style="fill:#D3BBA3;" d="M1632.855,658.742c-123.967,0-221.076-27.183-221.076-61.885c0-1.218,0.986-2.205,2.205-2.205
					c1.219,0,2.205,0.987,2.205,2.205c0,31.155,99.221,57.475,216.667,57.475c117.445,0,216.667-26.32,216.667-57.475
					c0-1.218,0.986-2.205,2.205-2.205s2.205,0.987,2.205,2.205C1853.931,631.558,1756.822,658.742,1632.855,658.742z"/>
				<path style="fill:#D3BBA3;" d="M1632.855,812.698c-123.967,0-221.076-27.182-221.076-61.884c0-1.218,0.986-2.205,2.205-2.205
					c1.219,0,2.205,0.987,2.205,2.205c0,31.154,99.221,57.474,216.667,57.474c117.445,0,216.667-26.32,216.667-57.474
					c0-1.218,0.986-2.205,2.205-2.205s2.205,0.987,2.205,2.205C1853.931,785.516,1756.822,812.698,1632.855,812.698z"/>
			</g>
			<g>
				<path style="fill:#E6D0BE;" d="M1683.803,517.433v501.077c0,35.765,106.331,64.759,237.497,64.759
					c131.165,0,237.496-28.994,237.496-64.759V517.433H1683.803z"/>
				<path style="fill:#FFFFFF;" d="M1921.301,1085.472c-134.412,0-239.703-29.413-239.703-66.963V515.228h479.404v503.281
					C2161.002,1056.059,2055.713,1085.472,1921.301,1085.472z M1686.007,519.638v498.872c0,33.908,107.752,62.553,235.293,62.553
					s235.291-28.645,235.291-62.553V519.638H1686.007z"/>
				<ellipse style="fill:#FFFFFF;" cx="1921.301" cy="517.332" rx="237.497" ry="64.758"/>
				<ellipse style="fill:transparent;" cx="1921.301" cy="512.49" rx="187.055" ry="40.872"/>
				<path style="fill:#FFFFFF;" d="M1921.301,751.354c-134.412,0-239.703-29.414-239.703-66.963c0-1.218,0.986-2.205,2.205-2.205
					s2.205,0.987,2.205,2.205c0,33.908,107.752,62.553,235.293,62.553s235.291-28.645,235.291-62.553
					c0-1.218,0.986-2.205,2.205-2.205c1.219,0,2.205,0.987,2.205,2.205C2161.002,721.94,2055.713,751.354,1921.301,751.354z"/>
				<path style="fill:#FFFFFF;" d="M1921.301,918.414c-134.412,0-239.703-29.414-239.703-66.963c0-1.218,0.986-2.205,2.205-2.205
					s2.205,0.987,2.205,2.205c0,33.908,107.752,62.553,235.293,62.553s235.291-28.645,235.291-62.553
					c0-1.218,0.986-2.205,2.205-2.205c1.219,0,2.205,0.987,2.205,2.205C2161.002,889,2055.713,918.414,1921.301,918.414z"/>
			</g>
		</g>
		<g>
			<g>
				<path style="fill:#E6D0BE;" d="M347.837,715.04c4.791-22.955,27.284-37.681,50.239-32.89
					c22.956,4.791,96.68,63.553,96.68,63.553s-91.074,24.367-114.03,19.576C357.772,760.488,343.047,737.995,347.837,715.04z"/>
				<path style="fill:#F7F1EB;" d="M789.346,809.391c-0.15,0-0.3-0.015-0.452-0.046l-406.021-84.74
					c-1.193-0.249-1.957-1.417-1.708-2.609c0.25-1.192,1.422-1.95,2.609-1.708l406.021,84.74c1.193,0.249,1.957,1.417,1.708,2.609
					C791.285,808.677,790.367,809.391,789.346,809.391z"/>
				<path style="fill:#E6D0BE;" d="M424.012,848.536c-7.241-17.932,1.426-38.339,19.359-45.58
					c17.932-7.241,95.412-0.763,95.412-0.763s-51.258,58.461-69.19,65.702C451.66,875.135,431.253,866.468,424.012,848.536z"/>
				<path style="fill:#F7F1EB;" d="M454.839,838.294c-0.873,0-1.699-0.522-2.046-1.38c-0.456-1.129,0.089-2.415,1.219-2.87
					l161.137-65.066c1.129-0.453,2.415,0.091,2.87,1.219c0.456,1.129-0.089,2.415-1.219,2.87l-161.137,65.066
					C455.393,838.242,455.113,838.294,454.839,838.294z"/>
				<path style="fill:#E6D0BE;" d="M562.248,692.04c14.69,14.983,94.549,42.167,94.549,42.167s-25.6-80.381-40.29-95.364
					c-14.69-14.983-38.745-15.221-53.727-0.531C547.796,653.003,547.558,677.057,562.248,692.04z"/>
				<path style="fill:#F7F1EB;" d="M711.393,792.1c-0.572,0-1.142-0.221-1.574-0.661L588.161,667.351
					c-0.853-0.87-0.839-2.266,0.03-3.118c0.87-0.854,2.264-0.84,3.118,0.03l121.658,124.088c0.853,0.87,0.839,2.266-0.03,3.118
					C712.508,791.89,711.95,792.1,711.393,792.1z"/>
			</g>
			<g>
				<path style="fill:#E6D0BE;" d="M757.742,380.63c5.676,28.259-25.117,139.971-25.117,139.971s-71.541-91.158-77.217-119.416
					c-5.676-28.259,12.631-55.768,40.89-61.444C724.556,334.065,752.066,352.371,757.742,380.63z"/>
				<path style="fill:#F7F1EB;" d="M805.462,885.449c-1.029,0-1.949-0.724-2.16-1.771L702.91,383.858
					c-0.24-1.194,0.534-2.355,1.728-2.596c1.199-0.24,2.356,0.535,2.596,1.728l100.392,499.82c0.24,1.194-0.534,2.356-1.728,2.596
					C805.752,885.435,805.605,885.449,805.462,885.449z"/>
				<path style="fill:#E6D0BE;" d="M643.092,490.186c16.847,16.768,46.96,107.465,46.96,107.465s-90.836-29.686-107.684-46.454
					c-16.847-16.769-16.911-44.02-0.143-60.867C598.994,473.482,626.245,473.418,643.092,490.186z"/>
				<path style="fill:#F7F1EB;" d="M762.573,672.037c-0.563,0-1.125-0.214-1.556-0.642L609.63,520.718
					c-0.862-0.859-0.866-2.255-0.008-3.119c0.861-0.863,2.255-0.865,3.119-0.008l151.388,150.678
					c0.862,0.859,0.866,2.255,0.008,3.119C763.705,671.821,763.14,672.037,762.573,672.037z"/>
				<path style="fill:#E6D0BE;" d="M825.882,570.952c-9.836,23.841-1.976,127.23-1.976,127.23s78.477-67.768,88.313-91.609
					c9.837-23.841-1.516-51.142-25.358-60.979C863.019,535.758,835.718,547.111,825.882,570.952z"/>
				<path style="fill:#F7F1EB;" d="M787.345,788.998c-0.28,0-0.565-0.054-0.84-0.168c-1.126-0.464-1.662-1.754-1.197-2.879
					l81.463-197.449c0.465-1.125,1.755-1.664,2.879-1.197c1.126,0.464,1.662,1.754,1.197,2.879l-81.463,197.449
					C789.033,788.484,788.212,788.998,787.345,788.998z"/>
			</g>
		</g>
		<g>
			<g>
				
					<rect x="532.846" y="621.362" transform="matrix(-1 -1.224647e-16 1.224647e-16 -1 2474.9333 2242.0322)" style="fill:#D3BBA3;" width="1409.242" height="999.308"/>
				
					<rect x="824.854" y="417.781" transform="matrix(-1.836970e-16 1 -1 -1.836970e-16 2315.6553 -159.278)" style="fill:#F7F1EB;" width="825.225" height="1320.816"/>
				<path style="fill:#D3BBA3;" d="M1089.124,1641.843h41.722l0,0c0,31.297,25.371,56.668,56.668,56.668h99.906
					c31.297,0,56.668-25.371,56.668-56.668l0,0h41.72l41.722,221.72v18.542h-380.126v-18.542L1089.124,1641.843z"/>
				<path style="fill:#D3BBA3;" d="M1427.529,1907.489h-380.126c-1.218,0-2.205-0.987-2.205-2.205c0-1.218,0.987-2.205,2.205-2.205
					h380.126c1.219,0,2.205,0.987,2.205,2.205C1429.734,1906.501,1428.748,1907.489,1427.529,1907.489z"/>
			</g>
			<g>
				<rect x="1357.328" y="741.827" style="fill:#E6D0BE;" width="229.36" height="196.416"/>
				<rect x="1329.926" y="714.424" style="fill:#FFFFFF;" width="229.36" height="196.416"/>
				<g>
					<path style="fill:#ff6900;" d="M1833.237,743.572H1627.98c-1.219,0-2.205-0.987-2.205-2.205c0-1.218,0.986-2.205,2.205-2.205
						h205.257c1.219,0,2.205,0.987,2.205,2.205C1835.442,742.585,1834.456,743.572,1833.237,743.572z"/>
					<path style="fill:#ff6900;" d="M1789.642,785.642H1627.98c-1.219,0-2.205-0.987-2.205-2.205s0.986-2.205,2.205-2.205h161.662
						c1.219,0,2.205,0.987,2.205,2.205S1790.861,785.642,1789.642,785.642z"/>
					<path style="fill:#ff6900;" d="M1816.888,823.748H1627.98c-1.219,0-2.205-0.987-2.205-2.205s0.986-2.205,2.205-2.205h188.908
						c1.219,0,2.205,0.987,2.205,2.205S1818.107,823.748,1816.888,823.748z"/>
					<path style="fill:#ff6900;" d="M1757.935,863.835H1627.98c-1.219,0-2.205-0.987-2.205-2.205c0-1.218,0.986-2.205,2.205-2.205
						h129.955c1.219,0,2.205,0.987,2.205,2.205C1760.14,862.848,1759.154,863.835,1757.935,863.835z"/>
				</g>
			</g>
			<g>
				<path style="fill:#EFBC73;" d="M1422.01,773.718c3.6-1.801,7.334-3.051,11.106-3.787l-1.43-20.423
					c-6.379,0.984-12.712,2.956-18.786,5.994c-14.755,7.379-25.408,19.736-30.947,34.026l19.633,5.78
					C1405.51,786.249,1412.511,778.468,1422.01,773.718z"/>
				<path style="fill:#EFBC73;" d="M1400.461,827.153c-2.516-7.086-3.075-14.503-1.901-21.581l-19.633-5.781
					c-2.457,11.91-1.548,24.588,3.225,36.518L1400.461,827.153z"/>
				<path style="fill:#D87355;" d="M1500.787,788.944l-18.309,9.157c7.238,20.388-1.715,43.516-21.549,53.436
					c-19.835,9.92-43.71,3.21-55.681-14.812l-18.31,9.157c17.077,28.048,53.213,38.819,83.101,23.872
					C1499.927,854.807,1512.985,819.433,1500.787,788.944z"/>
				<path style="fill:#EFBC73;" d="M1443.792,769.195c13.405,0.74,26.147,7.665,33.898,19.335l18.31-9.157
					c-11.67-19.169-32.241-30.266-53.638-30.601L1443.792,769.195z"/>
			</g>
			<g>
				<path style="fill:#D3BBA3;" d="M1079.513,1442.778H621.699c-1.218,0-2.205-0.987-2.205-2.205v-345.214
					c0-1.218,0.987-2.205,2.205-2.205s2.205,0.987,2.205,2.205v343.009h455.609c1.218,0,2.205,0.987,2.205,2.205
					C1081.718,1441.791,1080.731,1442.778,1079.513,1442.778z"/>
				<rect x="663.549" y="1207.863" style="fill:#D3BBA3;" width="67.447" height="184.936"/>
				<rect x="774.854" y="1171.02" style="fill:#D3BBA3;" width="67.447" height="221.778"/>
				<rect x="886.158" y="1035.167" style="fill:#D3BBA3;" width="67.447" height="357.632"/>
				<rect x="997.462" y="1091.246" style="fill:#D3BBA3;" width="67.447" height="301.553"/>
				<rect x="1108.924" y="943.286" style="fill:#D3BBA3;" width="67.447" height="449.514"/>
				<rect x="1220.228" y="1032.118" style="fill:#D3BBA3;" width="67.447" height="360.682"/>
				<rect x="1331.532" y="1160.843" style="fill:#D3BBA3;" width="67.447" height="231.957"/>
				<rect x="1442.837" y="1078.019" style="fill:#D3BBA3;" width="67.447" height="314.782"/>
				<rect x="1554.218" y="1127.771" style="fill:#D3BBA3;" width="67.447" height="265.029"/>
				<rect x="1665.522" y="998.645" style="fill:#D3BBA3;" width="67.447" height="394.155"/>
				<rect x="1776.984" y="1207.866" style="fill:#D3BBA3;" width="67.447" height="184.936"/>
			</g>
			<g>
				<g>
					<path style="fill:#EFBC73;" d="M1167.109,743.633H904.877c-1.218,0-2.205-0.987-2.205-2.205c0-1.218,0.987-2.205,2.205-2.205
						h262.232c1.218,0,2.205,0.987,2.205,2.205C1169.314,742.645,1168.327,743.633,1167.109,743.633z"/>
					<path style="fill:#EFBC73;" d="M811.09,743.633H642.876c-1.218,0-2.205-0.987-2.205-2.205c0-1.218,0.987-2.205,2.205-2.205
						H811.09c1.218,0,2.205,0.987,2.205,2.205C813.295,742.645,812.308,743.633,811.09,743.633z"/>
					<path style="fill:#EFBC73;" d="M1167.109,798.086h-141.997c-1.218,0-2.205-0.987-2.205-2.205c0-1.218,0.987-2.205,2.205-2.205
						h141.997c1.218,0,2.205,0.987,2.205,2.205C1169.314,797.098,1168.327,798.086,1167.109,798.086z"/>
					<path style="fill:#EFBC73;" d="M983.021,798.086H642.876c-1.218,0-2.205-0.987-2.205-2.205c0-1.218,0.987-2.205,2.205-2.205
						h340.145c1.218,0,2.205,0.987,2.205,2.205C985.226,797.098,984.239,798.086,983.021,798.086z"/>
					<path style="fill:#EFBC73;" d="M1167.109,852.538h-100.353c-1.218,0-2.205-0.987-2.205-2.205s0.987-2.205,2.205-2.205h100.353
						c1.218,0,2.205,0.987,2.205,2.205S1168.327,852.538,1167.109,852.538z"/>
					<path style="fill:#EFBC73;" d="M1025.113,852.538H743.99c-1.218,0-2.205-0.987-2.205-2.205s0.987-2.205,2.205-2.205h281.123
						c1.218,0,2.205,0.987,2.205,2.205S1026.33,852.538,1025.113,852.538z"/>
					<path style="fill:#EFBC73;" d="M713.167,852.538h-70.292c-1.218,0-2.205-0.987-2.205-2.205s0.987-2.205,2.205-2.205h70.292
						c1.218,0,2.205,0.987,2.205,2.205S714.385,852.538,713.167,852.538z"/>
				</g>
			</g>
		</g>
		<g>
			<g>
				<ellipse style="fill:#E0AA63;" cx="1932.734" cy="1933.395" rx="131.599" ry="41.67"/>
				<rect x="1801.135" y="1891.883" style="fill:#E0AA63;" width="263.198" height="42.933"/>
				<ellipse style="fill:#EFBC73;" cx="1932.734" cy="1892.698" rx="131.599" ry="41.67"/>
				<path style="fill:#FFFFFF;" d="M1948.239,1936.573c-75.031,0-133.805-19.272-133.805-43.875s58.774-43.876,133.805-43.876
					c75.031,0,133.803,19.273,133.803,43.876S2023.269,1936.573,1948.239,1936.573z M1948.239,1853.233
					c-70.139,0-129.395,18.074-129.395,39.466s59.257,39.465,129.395,39.465c70.139,0,129.393-18.072,129.393-39.465
					S2018.377,1853.233,1948.239,1853.233z"/>
			</g>
			<g>
				<ellipse style="fill:#E0AA63;" cx="1942.2" cy="1865.567" rx="131.599" ry="41.67"/>
				<rect x="1810.601" y="1824.054" style="fill:#E0AA63;" width="263.198" height="42.933"/>
				<ellipse style="fill:#EFBC73;" cx="1942.2" cy="1824.87" rx="131.599" ry="41.67"/>
				<path style="fill:#FFFFFF;" d="M1957.704,1868.745c-75.031,0-133.805-19.273-133.805-43.876s58.774-43.875,133.805-43.875
					c75.031,0,133.803,19.272,133.803,43.875S2032.734,1868.745,1957.704,1868.745z M1957.704,1785.404
					c-70.139,0-129.395,18.072-129.395,39.465s59.257,39.466,129.395,39.466c70.139,0,129.393-18.073,129.393-39.466
					S2027.843,1785.404,1957.704,1785.404z"/>
			</g>
			<g>
				<ellipse style="fill:#E0AA63;" cx="1696.24" cy="1951.139" rx="131.599" ry="41.67"/>
				<rect x="1564.641" y="1909.626" style="fill:#E0AA63;" width="263.198" height="42.933"/>
				<ellipse style="fill:#EFBC73;" cx="1696.24" cy="1910.442" rx="131.599" ry="41.67"/>
				<path style="fill:#FFFFFF;" d="M1711.744,1954.317c-75.031,0-133.803-19.273-133.803-43.876s58.772-43.875,133.803-43.875
					c75.031,0,133.803,19.272,133.803,43.875S1786.774,1954.317,1711.744,1954.317z M1711.744,1870.977
					c-70.139,0-129.393,18.072-129.393,39.465s59.255,39.466,129.393,39.466c70.139,0,129.393-18.073,129.393-39.466
					S1781.882,1870.977,1711.744,1870.977z"/>
			</g>
			<g>
				<ellipse style="fill:#E0AA63;" cx="1723.372" cy="1883.084" rx="131.599" ry="41.556"/>
				<rect x="1591.773" y="1841.686" style="fill:#E0AA63;" width="263.198" height="42.815"/>
				<ellipse style="fill:#EFBC73;" cx="1723.372" cy="1842.499" rx="131.599" ry="41.556"/>
				<path style="fill:#FFFFFF;" d="M1738.876,1886.259c-75.031,0-133.805-19.221-133.805-43.759
					c0-24.538,58.774-43.76,133.805-43.76s133.803,19.222,133.803,43.76C1872.678,1867.037,1813.906,1886.259,1738.876,1886.259z
					 M1738.876,1803.148c-70.139,0-129.395,18.021-129.395,39.351c0,21.33,59.257,39.35,129.395,39.35
					c70.139,0,129.393-18.02,129.393-39.35C1868.269,1821.169,1809.014,1803.148,1738.876,1803.148z"/>
			</g>
			<g>
				<ellipse style="fill:#E0AA63;" cx="1968.066" cy="1797.738" rx="131.599" ry="41.67"/>
				<rect x="1836.467" y="1756.226" style="fill:#E0AA63;" width="263.198" height="42.933"/>
				<ellipse style="fill:#EFBC73;" cx="1968.066" cy="1757.041" rx="131.599" ry="41.67"/>
				<path style="fill:#FFFFFF;" d="M1983.57,1800.917c-75.031,0-133.805-19.273-133.805-43.876s58.774-43.875,133.805-43.875
					c75.031,0,133.803,19.272,133.803,43.875S2058.6,1800.917,1983.57,1800.917z M1983.57,1717.576
					c-70.139,0-129.395,18.072-129.395,39.465c0,21.393,59.257,39.466,129.395,39.466c70.139,0,129.393-18.073,129.393-39.466
					C2112.963,1735.648,2053.708,1717.576,1983.57,1717.576z"/>
			</g>
			<g>
				<ellipse style="fill:#E0AA63;" cx="1940.037" cy="1737.418" rx="131.599" ry="41.67"/>
				<rect x="1808.438" y="1695.905" style="fill:#E0AA63;" width="263.198" height="42.933"/>
				<ellipse style="fill:#EFBC73;" cx="1940.037" cy="1696.721" rx="131.599" ry="41.67"/>
				<path style="fill:#FFFFFF;" d="M1955.54,1740.596c-75.031,0-133.803-19.273-133.803-43.876s58.772-43.875,133.803-43.875
					c75.031,0,133.805,19.272,133.805,43.875S2030.571,1740.596,1955.54,1740.596z M1955.54,1657.256
					c-70.139,0-129.393,18.073-129.393,39.465c0,21.393,59.255,39.466,129.393,39.466s129.395-18.073,129.395-39.466
					C2084.935,1675.328,2025.679,1657.256,1955.54,1657.256z"/>
			</g>
			<g>
				
					<ellipse transform="matrix(0.7104 -0.7038 0.7038 0.7104 -764.7534 1666.241)" style="fill:#E0AA63;" cx="1642.442" cy="1762.45" rx="41.67" ry="131.599"/>
				
					<rect x="1525.084" y="1726.876" transform="matrix(0.7038 0.7104 -0.7104 0.7038 1732.848 -659.0417)" style="fill:#E0AA63;" width="263.198" height="42.933"/>
				
					<ellipse transform="matrix(0.7104 -0.7038 0.7038 0.7104 -736.2245 1678.2938)" style="fill:#EFBC73;" cx="1671.354" cy="1733.809" rx="41.67" ry="131.599"/>
				<path style="fill:#FFFFFF;" d="M1761.835,1844.973c-24.718,0-68.448-26.582-110.738-69.273
					c-52.804-53.303-80.476-108.621-62.999-125.936c17.486-17.314,72.533,10.878,125.337,64.182
					c52.804,53.303,80.476,108.621,62.999,125.936l0,0C1772.951,1843.329,1767.98,1844.973,1761.835,1844.973z M1602.801,1648.946
					c-4.946,0-8.895,1.271-11.599,3.951c-15.197,15.056,13.664,69.872,63.025,119.701c49.359,49.826,103.902,79.209,119.101,64.152
					c15.197-15.056-13.664-69.872-63.025-119.701C1669.727,1676.089,1625.648,1648.946,1602.801,1648.946z M1774.88,1838.316h0.021
					H1774.88z"/>
			</g>
			<g>
				
					<ellipse transform="matrix(0.8172 -0.5763 0.5763 0.8172 -471.2451 1389.142)" style="fill:#E0AA63;" cx="1954.452" cy="1437.52" rx="119.59" ry="37.868"/>
				
					<rect x="1824.363" y="1403.125" transform="matrix(0.8172 -0.5763 0.5763 0.8172 -464.5843 1380.3704)" style="fill:#E0AA63;" width="239.18" height="39.015"/>
				
					<ellipse transform="matrix(0.8172 -0.5763 0.5763 0.8172 -457.7224 1371.3337)" style="fill:#EFBC73;" cx="1933.137" cy="1407.297" rx="119.59" ry="37.868"/>
				<path style="fill:#FFFFFF;" d="M1864.456,1476.87c-9.03,0-15.752-2.416-19.337-7.499
					c-12.951-18.363,20.625-63.581,76.439-102.942c26.284-18.536,53.312-32.731,76.101-39.971
					c23.568-7.485,40.096-6.592,46.527,2.527c6.429,9.116,1.727,24.982-13.24,44.673c-14.469,19.038-36.913,39.731-63.199,58.267
					C1927.385,1460.387,1888.043,1476.87,1864.456,1476.87z M2024.929,1325.808c-6.957,0-15.744,1.615-25.937,4.852
					c-22.371,7.107-48.969,21.089-74.895,39.372c-57.381,40.467-85.301,82.722-75.375,96.797
					c9.926,14.072,59.099,1.958,116.483-38.509c25.924-18.282,48.026-38.644,62.23-57.332c13.507-17.772,18.3-32.156,13.145-39.464
					l0,0C2037.896,1327.718,2032.495,1325.808,2024.929,1325.808z"/>
			</g>
			<g>
				
					<ellipse transform="matrix(0.9897 -0.1429 0.1429 0.9897 -158.707 291.884)" style="fill:#E0AA63;" cx="1952.927" cy="1250.961" rx="119.235" ry="37.755"/>
				
					<rect x="1831.097" y="1213.535" transform="matrix(0.9897 -0.1429 0.1429 0.9897 -156.1651 291.3288)" style="fill:#E0AA63;" width="238.469" height="38.899"/>
				
					<ellipse transform="matrix(0.9897 -0.1429 0.1429 0.9897 -153.547 290.7581)" style="fill:#EFBC73;" cx="1947.659" cy="1214.466" rx="119.235" ry="37.755"/>
				<path style="fill:#FFFFFF;" d="M1917.475,1255.771c-43.022,0.001-73.743-9.597-76.105-25.959
					c-1.591-11.012,9.765-22.986,31.972-33.714c21.467-10.372,50.771-18.608,82.511-23.189c31.733-4.583,62.172-4.973,85.7-1.096
					c24.337,4.01,38.614,12.283,40.201,23.295c1.591,11.011-9.764,22.984-31.972,33.713c-21.467,10.371-50.771,18.606-82.511,23.188
					C1949.604,1254.558,1932.76,1255.771,1917.475,1255.771z M2005.581,1173.571c-15.371,0-32.034,1.237-49.1,3.701
					c-31.305,4.52-60.148,12.615-81.221,22.795c-20.039,9.681-30.801,20.292-29.528,29.113c2.455,16.991,51.62,28.466,120.91,18.463
					c31.305-4.519,60.15-12.614,81.221-22.794c20.039-9.681,30.801-20.292,29.528-29.113c0,0,0,0-0.002-0.001
					c-1.272-8.82-14.596-15.955-36.554-19.572C2030.332,1174.434,2018.405,1173.571,2005.581,1173.571z"/>
			</g>
			<g>
				<ellipse style="fill:#E0AA63;" cx="1968.371" cy="1668.072" rx="131.599" ry="41.67"/>
				<rect x="1836.772" y="1626.559" style="fill:#E0AA63;" width="263.198" height="42.933"/>
				<ellipse style="fill:#EFBC73;" cx="1968.371" cy="1627.375" rx="131.599" ry="41.67"/>
				<path style="fill:#FFFFFF;" d="M1983.875,1671.25c-75.031,0-133.805-19.273-133.805-43.876s58.774-43.875,133.805-43.875
					c75.031,0,133.803,19.272,133.803,43.875S2058.906,1671.25,1983.875,1671.25z M1983.875,1587.909
					c-70.139,0-129.395,18.073-129.395,39.465c0,21.393,59.257,39.466,129.395,39.466c70.139,0,129.393-18.074,129.393-39.466
					C2113.269,1605.982,2054.014,1587.909,1983.875,1587.909z"/>
			</g>
			<g>
				<ellipse style="fill:#E0AA63;" cx="2011.006" cy="1607.751" rx="131.599" ry="41.67"/>
				<rect x="1879.407" y="1566.239" style="fill:#E0AA63;" width="263.198" height="42.933"/>
				<ellipse style="fill:#EFBC73;" cx="2011.006" cy="1567.054" rx="131.599" ry="41.67"/>
				<path style="fill:#FFFFFF;" d="M2026.51,1610.929c-75.031,0-133.805-19.272-133.805-43.875s58.774-43.875,133.805-43.875
					s133.803,19.272,133.803,43.875S2101.54,1610.929,2026.51,1610.929z M2026.51,1527.589c-70.139,0-129.395,18.072-129.395,39.465
					s59.257,39.465,129.395,39.465s129.393-18.073,129.393-39.465S2096.648,1527.589,2026.51,1527.589z"/>
			</g>
		</g>
		<g>
			<g>
				<path style="fill:#363E44;" d="M867.256,1255.533c-9.963,0-20.562-8.97-25.366-22.406c-5.677-15.874-1.147-32.059,10.096-36.079
					c11.253-4.022,25.011,5.621,30.687,21.493l0,0c5.677,15.874,1.146,32.059-10.096,36.079
					C870.85,1255.238,869.063,1255.533,867.256,1255.533z M857.433,1200.521c-1.351,0-2.68,0.22-3.962,0.678
					c-8.955,3.203-12.288,16.859-7.43,30.442c4.857,13.584,16.098,22.031,25.05,18.827c8.955-3.203,12.288-16.859,7.43-30.442l0,0
					C874.359,1208.389,865.513,1200.521,857.433,1200.521z"/>
				<path style="fill:#BC8271;" d="M854.48,1223.253c-14.858-41.668-27.191-64.646-51.626-76.097
					c-32.838-15.388-68.031,3.475-71.675,5.5c-2.327,1.292-36.511,17.677-42.201,55.395c-5.619,37.249,8.684,76.173,38.443,98.71
					v83.221c0,26.717,21.659,48.376,48.376,48.376h6.052c26.718,0,48.376-21.659,48.376-48.376v-55.593
					c16.949-1.418,30.358-6.33,35.732-14.915C875.583,1304.099,871.978,1272.322,854.48,1223.253z"/>
				<path style="fill:#363E44;" d="M831.646,1238.772c-0.773,0-1.522-0.406-1.926-1.128c-0.595-1.063-0.215-2.406,0.847-3
					l44.52-24.924c1.063-0.593,2.406-0.216,3,0.847c0.595,1.063,0.215,2.406-0.847,3l-44.521,24.924
					C832.38,1238.681,832.011,1238.772,831.646,1238.772z"/>
				<path style="fill:#363E44;" d="M830.986,1335.279c-1.191,0-2.172-0.948-2.203-2.146l-0.54-20.354
					c-0.032-1.217,0.928-2.229,2.146-2.262c1.165-0.063,2.231,0.928,2.262,2.146l0.541,20.351c0.032,1.218-0.928,2.231-2.145,2.263
					C831.026,1335.279,831.006,1335.279,830.986,1335.279z"/>
				<path style="fill:#363E44;" d="M823.367,1260.337c-0.597,0-1.193-0.241-1.628-0.716c-2.318-2.533-4.384-4.875-6.53-7.308
					c-1.756-1.99-3.566-4.04-5.613-6.309c-0.816-0.903-0.745-2.297,0.159-3.113c0.903-0.816,2.3-0.744,3.113,0.159
					c2.06,2.281,3.88,4.344,5.647,6.345c2.129,2.414,4.178,4.736,6.478,7.248c0.821,0.899,0.76,2.293-0.138,3.116
					C824.432,1260.145,823.898,1260.337,823.367,1260.337z"/>
				<path style="fill:#363E44;" d="M821.142,1129.797c3.663,2.598,11.226,8.09,16.66,18.108
					c19.349,35.678-13.781,81.83-15.935,84.748c3.287-5.983,9.482-19.156,9.416-36.941c-0.068-18.309-6.734-27.717-10.141-33.642
					c0.395,9.849-0.355,24.469-11.589,42.333c-18.932,30.106-45.279,44.319-67.525,51.141c-20.353,6.241-55.98,7.539-69.376-12.053
					c-20.04-29.309,0.918-75.869,29.698-100.655C736.095,1113.772,790.012,1107.715,821.142,1129.797z"/>
				<circle style="fill:#363E44;" cx="651.691" cy="1169.036" r="30.048"/>
				<path style="fill:#363E44;" d="M644.775,1209.22c-9.47,0-17.752-3.935-21.619-11.273c-3.099-5.884-2.947-12.979,0.431-19.982
					c3.27-6.779,9.209-12.693,16.724-16.653c15.735-8.288,33.641-5.344,39.916,6.566l0,0c3.099,5.882,2.946,12.979-0.431,19.981
					c-3.269,6.779-9.21,12.693-16.724,16.652C657.033,1207.693,650.674,1209.22,644.775,1209.22z M658.703,1160.973
					c-5.208,0-10.905,1.379-16.336,4.241c-6.687,3.523-11.946,8.731-14.807,14.666c-2.755,5.711-2.933,11.398-0.502,16.011
					c5.143,9.759,20.376,11.875,33.957,4.719c6.687-3.522,11.946-8.731,14.808-14.666c2.755-5.711,2.933-11.397,0.502-16.01l0,0
					C673.24,1164.078,666.52,1160.973,658.703,1160.973z"/>
				<path style="fill:#363E44;" d="M805.091,1275.486c-0.395,0-0.794-0.105-1.155-0.328c-12.38-7.631-18.573-21.592-15.059-33.95
					c2.528-8.889,10.491-18.72,22.006-19.301c9.079-0.45,18.028,4.886,22.705,13.619c0.575,1.073,0.171,2.409-0.902,2.984
					c-1.073,0.575-2.41,0.171-2.984-0.902c-3.877-7.237-11.174-11.665-18.597-11.297c-9.346,0.471-15.875,8.678-17.986,16.103
					c-2.977,10.469,2.423,22.391,13.132,28.991c1.036,0.638,1.359,1.997,0.719,3.034
					C806.552,1275.114,805.83,1275.486,805.091,1275.486z"/>
			</g>
			<g>
				<path style="fill:#363E44;" d="M719.072,2069.683l46.968,91.649h289.968l-138.569-315.194l-364.01-73.362
					c-108.767,88.379-75.679,388.556-75.679,388.556h241.323V2069.683z"/>
				<path style="fill:#363E44;" d="M711.573,2062.031c-0.821,0-1.609-0.461-1.988-1.251l-22.499-46.874
					c-0.528-1.097-0.065-2.415,1.033-2.941c1.095-0.527,2.414-0.065,2.941,1.034l22.499,46.874c0.527,1.097,0.065,2.415-1.034,2.941
					C712.218,2061.962,711.894,2062.031,711.573,2062.031z"/>
			</g>
			<g>
				<g>
					<g>
						<path style="fill:#BC8271;" d="M1032.567,1487.491c170.923,52.365,258.351,137.6,225.588,199.392
							c-21.097,39.789-121.026,48.295-258.107,14.354C1008.316,1643.585,1021.064,1557.034,1032.567,1487.491z"/>
					</g>
					<g>
						<path style="fill:#BC8271;" d="M1140.793,1552.429c0,0,84.987-126.738,134.777-190.742
							c52.29-67.217,139.279-158.844,151.94-146.51c7.212,7.026-2.069,21.974-29.529,60.282c3.325-0.549,13.236-0.286,18.857,7.327
							c8.318,11.266,1.631,21.053,1.378,22.165c1.113-0.277,13.179-2.933,20.024,3.666c7.709,7.433,8.384,16.698,5.416,24.562
							c2.781-0.602,13.27-1.782,19.661,4.754c6.574,6.723,8.557,18.514,2.418,26.169c-11.261,14.042-45.526,55.132-59.765,77.161
							c-28.019,43.35-106.859,210.649-163.916,262.599C1215.974,1642.377,1140.793,1552.429,1140.793,1552.429z"/>
						<g>
							<path style="fill:#363E44;" d="M1445.837,1375.568c-0.577,0-1.152-0.225-1.585-0.673l-10.576-10.938
								c-0.846-0.875-0.823-2.271,0.052-3.118c0.878-0.847,2.274-0.82,3.118,0.052l10.576,10.94
								c0.846,0.875,0.823,2.271-0.052,3.118C1446.942,1375.363,1446.388,1375.568,1445.837,1375.568z"/>
							<path style="fill:#363E44;" d="M1419.846,1349.653c-0.601,0-1.197-0.243-1.632-0.723l-11.558-12.739
								c-0.818-0.902-0.751-2.296,0.151-3.115c0.902-0.818,2.295-0.751,3.114,0.152l11.558,12.739
								c0.818,0.902,0.751,2.296-0.151,3.115C1420.906,1349.465,1420.376,1349.653,1419.846,1349.653z"/>
							<path style="fill:#363E44;" d="M1394.418,1320.561c-0.575,0-1.152-0.224-1.583-0.671c-1.998-2.061-3.783-3.933-5.572-5.807
								c-1.748-1.833-3.499-3.668-5.452-5.684c-0.846-0.875-0.825-2.271,0.052-3.118c0.87-0.845,2.269-0.827,3.118,0.049
								c1.959,2.025,3.719,3.868,5.473,5.709c1.781,1.866,3.559,3.73,5.547,5.782c0.848,0.874,0.827,2.271-0.047,3.118
								C1395.525,1320.354,1394.971,1320.561,1394.418,1320.561z"/>
							<path style="fill:#363E44;" d="M1371.215,1298.669c-0.523,0-1.046-0.184-1.468-0.56l-11.272-10.055
								c-0.909-0.811-0.988-2.204-0.177-3.112c0.812-0.912,2.205-0.988,3.114-0.178l11.272,10.055
								c0.909,0.811,0.988,2.205,0.177,3.112C1372.426,1298.42,1371.821,1298.669,1371.215,1298.669z"/>
						</g>
					</g>
				</g>
				<g>
					<path style="fill:#BC8271;" d="M394.448,1784.099c161.399,33.096,265.813,57.65,301.29,64.473
						c3.715,0.714,10.267,2.005,18.919,1.312c32.058-2.566,41.575-28.249,74.053-46.328c36.851-20.514,69.215-11.202,71.272-21.774
						c1.431-7.354-9.788-14.304-35.972-18.993c-0.002,0-0.002-0.004,0-0.004c20.303,1.275,47.913,1.803,48.585-9.419
						c0.083-12.999-32.283-17.428-51.993-19.151c23.858,2.085,37.168-3.944,35.984-10.295c-1.864-9.996-19.989-15.921-51.627-17.453
						l0-0.002c22.141-5.045,26.761-9.568,24.345-14.926c-4.411-9.783-30.445-10.553-53.565-7.705
						c-26.027,3.205-45.101,14.721-56.955,22.268c-0.003,0.002-0.007,0.003-0.011,0.001
						c-110.637-34.9-183.956-57.311-272.737-87.317C427.871,1612.648,394.443,1784.099,394.448,1784.099z"/>
					<path style="fill:#BC8271;" d="M484.98,1442.451c-180.966,140.681-164.096,313.171-94.637,340.471
						c39.357,15.469,141.393-75.051,230.325-228.915C570.695,1517.54,546.537,1485.011,484.98,1442.451z"/>
				</g>
				<g>
					<path style="fill:#ff6900;" d="M361.58,1539.838c0,0,121.872-180.822,402.501-150.586
						c172.69,18.606,381.231,138.711,381.231,138.711l-71.591,218.826l-71.367-21.188l-23.457,175.765l-514.978-87.694
						L485.9,1668.28L361.58,1539.838z"/>
					<path style="fill:#363E44;" d="M1002.353,1727.808c-0.259,0-0.524-0.046-0.781-0.144l-43.287-16.393
						c-1.139-0.431-1.713-1.704-1.281-2.842c0.432-1.139,1.71-1.715,2.842-1.281l43.287,16.393c1.139,0.431,1.713,1.704,1.281,2.842
						C1004.081,1727.264,1003.242,1727.808,1002.353,1727.808z"/>
				</g>
			</g>
		</g>
	</g>
</g>
</svg>
