<?xml version="1.0" encoding="utf-8"?>
<!-- Generator: Adobe Illustrator 27.5.0, SVG Export Plug-In . SVG Version: 6.00 Build 0)  -->
<svg version="1.1" xmlns="http://www.w3.org/2000/svg" xmlns:xlink="http://www.w3.org/1999/xlink" x="0px" y="0px"
	 viewBox="0 0 2500 2500" style="enable-background:new 0 0 2500 2500;" xml:space="preserve">
-
<g id="Illustration">
	<g id="Kids_fashion_1_">
		<circle style="fill:transparent;" cx="1250" cy="1249.173" r="914.173"/>
		<g>
			<g>
				<g>
					<polygon style="fill:#EFBC73;" points="1090.634,1610.77 2121.543,1610.77 1960.747,720.44 1291.223,720.44 					"/>
				</g>
				<path style="fill:#F7F1EB;" d="M1524.347,1536.435c-0.996,0-1.9-0.68-2.141-1.691
					c-18.956-79.506-185.142-777.09-183.022-788.622c0.219-1.198,1.371-2.001,2.564-1.768c1.159,0.213,1.938,1.297,1.786,2.452
					c-0.247,14.45,119.532,520.908,182.956,786.914c0.282,1.185-0.448,2.373-1.632,2.655
					C1524.687,1536.416,1524.516,1536.435,1524.347,1536.435z"/>
				<path style="fill:#F7F1EB;" d="M1137.496,1575.486c-0.767,0-1.512-0.4-1.918-1.116c-0.6-1.056-0.23-2.401,0.828-3.003
					l172.265-97.772V767.298c0-1.218,0.986-2.203,2.203-2.203c1.216,0,2.203,0.985,2.203,2.203v707.578
					c0,0.794-0.426,1.525-1.115,1.917l-173.38,98.407C1138.238,1575.394,1137.864,1575.486,1137.496,1575.486z"/>
			</g>
			<path style="fill:#776E42;" d="M1458.481,776.671c6.471,0,11.715-5.244,11.715-11.715V595.482
				c0-39.62,32.232-71.852,71.852-71.852h142.139c39.62,0,71.852,32.232,71.852,71.852v169.474c0,6.471,5.244,11.715,11.715,11.715
				s11.715-5.244,11.715-11.715V595.482c0-52.539-42.743-95.282-95.282-95.282h-142.139c-52.539,0-95.282,42.743-95.282,95.282
				v169.474C1446.766,771.427,1452.01,776.671,1458.481,776.671z"/>
		</g>
		<g>
			<g>
				<g>
					<path style="fill:#D3BBA3;" d="M965.758,643.273c-0.002,0-0.004,0-0.008,0l-472.549-1.542
						c-1.059-0.004-1.966-0.761-2.159-1.803c-0.193-1.041,0.384-2.074,1.372-2.455l236.576-91.458c0.516-0.2,1.09-0.196,1.602,0.004
						l235.973,93c0.985,0.389,1.555,1.424,1.355,2.465C967.722,642.523,966.814,643.273,965.758,643.273z M504.917,637.364
						l449.147,1.465l-224.287-88.395L504.917,637.364z"/>
					<path style="fill:#D3BBA3;" d="M729.802,549.384c-0.002,0-0.004,0-0.008,0c-1.216-0.004-2.2-0.994-2.195-2.209l0.199-60.887
						c0.002-0.585,0.236-1.145,0.651-1.555c0.412-0.411,0.97-0.641,1.552-0.641c0.038,0.006,0.075,0,0.112,0
						c8.058,0,15.639-3.126,21.359-8.807c5.744-5.707,8.922-13.31,8.948-21.407c0.027-8.097-3.102-15.721-8.808-21.465
						c-5.707-5.744-13.309-8.921-21.406-8.947c-0.034,0-0.07,0-0.104,0c-8.058,0-15.639,3.126-21.359,8.807
						c-5.744,5.707-8.922,13.309-8.948,21.406c-0.004,1.215-0.99,2.196-2.203,2.196c-0.002,0-0.004,0-0.008,0
						c-1.216-0.004-2.2-0.994-2.195-2.209c0.03-9.274,3.67-17.982,10.248-24.517c6.551-6.509,15.235-10.089,24.464-10.089
						c0.04,0,0.08,0,0.119,0c9.274,0.03,17.981,3.67,24.516,10.248c6.536,6.578,10.119,15.308,10.089,24.582
						s-3.67,17.982-10.248,24.517c-6.056,6.017-13.934,9.53-22.38,10.029l-0.193,58.751
						C732,548.403,731.015,549.384,729.802,549.384z"/>
				</g>
				<path style="fill:#EFBC73;" d="M920.836,596.122l-161.935-47.77H677.66l-60.622,22.035
					c-69.388,25.221-131.307,67.511-180.044,122.969l-6.89,7.84l93.522,73.628l36.956-27.593l2.247,194.202h330.627v-198.3
					l27.38,28.716l93.012-80.979L920.836,596.122z"/>
			</g>
			<g>
				<path style="fill:#D3BBA3;" d="M820.449,570.703c32.082-76.336,184.303-58.008,214.409,0.735L820.449,570.703z"/>
				<polygon style="fill:#84524D;" points="839.232,1081.375 1003.17,1081.375 1003.17,562.164 980.995,548.378 869.327,548.378 
					839.232,562.164 				"/>
				<g>
					<path style="fill:#D3BBA3;" d="M1160.232,643.273c-0.002,0-0.004,0-0.007,0l-472.549-1.542
						c-1.059-0.004-1.966-0.761-2.159-1.803c-0.192-1.041,0.384-2.074,1.372-2.455l236.576-91.458c0.516-0.2,1.09-0.196,1.602,0.004
						l235.973,93c0.985,0.389,1.555,1.424,1.355,2.465C1162.196,642.523,1161.288,643.273,1160.232,643.273z M699.39,637.364
						l449.147,1.465l-224.287-88.395L699.39,637.364z"/>
					<path style="fill:#D3BBA3;" d="M924.275,549.384c-0.002,0-0.004,0-0.008,0c-1.216-0.004-2.2-0.994-2.195-2.209l0.199-60.887
						c0.002-0.585,0.235-1.145,0.651-1.555c0.412-0.411,0.97-0.641,1.552-0.641c0.027,0.006,0.075,0,0.112,0
						c8.057,0,15.638-3.126,21.358-8.807c5.744-5.707,8.922-13.31,8.949-21.407c0.054-16.715-13.5-30.358-30.215-30.411
						c-0.034,0-0.07,0-0.104,0c-8.058,0-15.639,3.126-21.359,8.807c-5.744,5.707-8.922,13.309-8.948,21.406
						c-0.004,1.215-0.99,2.196-2.203,2.196c-0.002,0-0.004,0-0.008,0c-1.216-0.004-2.2-0.994-2.195-2.209
						c0.03-9.274,3.67-17.982,10.248-24.517c6.551-6.509,15.235-10.089,24.464-10.089c0.04,0,0.08,0,0.119,0
						c19.143,0.062,34.668,15.687,34.605,34.83c-0.03,9.274-3.671,17.982-10.249,24.517c-6.056,6.017-13.933,9.53-22.379,10.029
						l-0.193,58.751C926.474,548.403,925.489,549.384,924.275,549.384z"/>
				</g>
				<path style="fill:#E6D0BE;" d="M1263.618,1061.312l-87.047-359.505c-11.686-48.264-45.269-88.287-90.771-108.177
					l-104.124-45.515v556.492h151.003l-38.037-297.781l82.387,277.718L1263.618,1061.312z"/>
				<path style="fill:#E6D0BE;" d="M587.868,1061.312l85.87-354.643c12.428-51.327,48.142-93.89,96.532-115.043l99.54-43.512
					v556.492H718.807l38.037-297.781l-82.387,277.718L587.868,1061.312z"/>
				<path style="fill:#D3BBA3;" d="M868.911,731.509l-48.462-160.806c4.273-11.899,28.585-18.062,52.868-24.231L868.911,731.509z"/>
				<path style="fill:#D3BBA3;" d="M981.99,744.726l-0.313-196.612c18.409,1.048,36.702,3.248,53.181,23.323
					C1025.227,623.341,1004.409,683.447,981.99,744.726z"/>
			</g>
			<g>
				<g>
					<path style="fill:#D3BBA3;" d="M1354.705,643.273c-0.002,0-0.004,0-0.007,0l-472.549-1.542
						c-1.059-0.004-1.966-0.761-2.159-1.803s0.384-2.074,1.372-2.455l236.576-91.458c0.516-0.2,1.09-0.196,1.602,0.004l235.973,93
						c0.985,0.389,1.555,1.424,1.355,2.465C1356.669,642.523,1355.761,643.273,1354.705,643.273z M893.864,637.364l449.147,1.465
						l-224.287-88.395L893.864,637.364z"/>
					<path style="fill:#D3BBA3;" d="M1118.749,549.384c-0.002,0-0.004,0-0.008,0c-1.216-0.004-2.2-0.994-2.195-2.209l0.198-60.887
						c0.002-0.585,0.236-1.145,0.651-1.555c0.412-0.411,0.97-0.641,1.552-0.641c0.036,0.006,0.075,0,0.112,0
						c8.058,0,15.639-3.126,21.359-8.807c5.744-5.707,8.922-13.31,8.949-21.407c0.054-16.715-13.5-30.358-30.215-30.411
						c-0.034,0-0.07,0-0.104,0c-8.058,0-15.639,3.126-21.359,8.807c-5.744,5.707-8.922,13.309-8.949,21.406
						c-0.004,1.215-0.99,2.196-2.203,2.196c-0.002,0-0.004,0-0.007,0c-1.217-0.004-2.2-0.994-2.195-2.209
						c0.03-9.274,3.671-17.982,10.249-24.517c6.552-6.509,15.235-10.089,24.464-10.089c0.04,0,0.08,0,0.119,0
						c19.144,0.062,34.668,15.687,34.605,34.83c-0.03,9.274-3.671,17.982-10.249,24.517c-6.056,6.017-13.934,9.53-22.38,10.029
						l-0.192,58.751C1120.948,548.403,1119.962,549.384,1118.749,549.384z"/>
				</g>
				<path style="fill:#FFFFFF;" d="M1245.373,694.418l-31.697,156.815c0,0,99.104,121.486,188.318,341.768
					c0,0-282.364,119.012-582.647-1.101c0,0,132.415-267.38,209.154-337.447L993.469,692.75
					C993.469,692.75,1173.639,637.698,1245.373,694.418z"/>
				<polygon style="fill:#FFFFFF;" points="1198.234,675.337 1222.465,578.963 1249.449,594.383 1224.667,691.858 				"/>
				<polygon style="fill:#FFFFFF;" points="1063.861,684.148 1033.022,571.253 1002.182,587.224 1026.413,686.351 				"/>
				<path style="fill:#E6D0BE;" d="M1104.118,870.709c-36.196,0-68.169-4.832-77.242-14.768c-0.821-0.899-0.757-2.293,0.141-3.113
					c0.9-0.824,2.292-0.757,3.112,0.142c16.464,18.029,133.9,18.73,182.626-3.739c1.107-0.508,2.414-0.028,2.924,1.078
					c0.509,1.106,0.027,2.414-1.078,2.924C1189.604,864.758,1144.264,870.709,1104.118,870.709z"/>
				<path style="fill:#E6D0BE;" d="M961.429,1068.541c-0.307,0-0.617-0.064-0.914-0.2c-1.107-0.506-1.594-1.811-1.089-2.919
					c4.426-9.683,8.894-19.529,13.361-29.373c30.662-67.569,59.622-131.391,77.379-149.674c0.846-0.873,2.242-0.893,3.115-0.047
					c0.872,0.848,0.893,2.244,0.045,3.115c-17.221,17.734-47.37,84.174-76.527,148.426c-4.469,9.848-8.938,19.699-13.365,29.385
					C963.064,1068.064,962.265,1068.541,961.429,1068.541z"/>
				<path style="fill:#E6D0BE;" d="M1224.666,976.023c-0.971,0-1.861-0.645-2.125-1.628c-11.707-43.37-30.703-93.928-46.749-109.115
					c-0.883-0.837-0.922-2.231-0.085-3.115c0.836-0.884,2.232-0.921,3.114-0.086c17.81,16.859,36.974,70.422,47.973,111.167
					c0.317,1.175-0.378,2.384-1.552,2.702C1225.049,975.999,1224.856,976.023,1224.666,976.023z"/>
				<path style="fill:#E6D0BE;" d="M1093.599,1010.166c-1.216,0-2.203-0.985-2.203-2.203c0-57.833,1.481-101.291,8.852-139.198
					c0.232-1.194,1.381-1.975,2.583-1.742c1.194,0.232,1.974,1.388,1.741,2.581c-7.303,37.562-8.77,80.788-8.77,138.359
					C1095.802,1009.181,1094.816,1010.166,1093.599,1010.166z"/>
			</g>
			<g>
				<g>
					<path style="fill:#E6D0BE;" d="M1433.557,1380.041c-1.216,0-2.203-0.985-2.203-2.203v-92.469
						c0-33.202-30.433-60.214-67.841-60.214h-917.87c-37.407,0-67.84,27.013-67.84,60.214v92.469c0,1.218-0.986,2.203-2.203,2.203
						s-2.203-0.985-2.203-2.203v-92.469c0-35.633,32.409-64.62,72.246-64.62h917.87c39.837,0,72.247,28.987,72.247,64.62v92.469
						C1435.76,1379.056,1434.774,1380.041,1433.557,1380.041z"/>
					<circle style="fill:#E6D0BE;" cx="1434.5" cy="1379.949" r="34.665"/>
					
						<ellipse transform="matrix(0.7071 -0.7071 0.7071 0.7071 -871.2388 672.0375)" style="fill:#E6D0BE;" cx="375.602" cy="1387.697" rx="34.665" ry="34.665"/>
				</g>
				<g>
					<path style="fill:#E6D0BE;" d="M1320.361,1380.039c-1.217,0-2.203-0.985-2.203-2.203v-92.467
						c0-33.204-23.85-60.216-53.167-60.216H539.413c-29.316,0-53.167,27.012-53.167,60.216v92.467c0,1.218-0.986,2.203-2.203,2.203
						s-2.203-0.985-2.203-2.203v-92.467c0-35.633,25.827-64.622,57.572-64.622h725.578c31.745,0,57.573,28.99,57.573,64.622v92.467
						C1322.564,1379.054,1321.578,1380.039,1320.361,1380.039z"/>
					<circle style="fill:#E6D0BE;" cx="1321.306" cy="1379.949" r="34.665"/>
					
						<ellipse transform="matrix(0.7071 -0.7071 0.7071 0.7071 -839.4382 748.8108)" style="fill:#E6D0BE;" cx="484.175" cy="1387.697" rx="34.665" ry="34.665"/>
				</g>
				<path style="fill:#E6D0BE;" d="M1305.742,1225.155c-1.217,0-2.203-0.985-2.203-2.203V434.495H396.942v788.457
					c0,1.218-0.986,2.203-2.203,2.203c-1.216,0-2.203-0.985-2.203-2.203v-790.66c0-1.218,0.986-2.203,2.203-2.203h911.003
					c1.216,0,2.203,0.985,2.203,2.203v790.66C1307.945,1224.17,1306.958,1225.155,1305.742,1225.155z"/>
			</g>
			<path style="fill:#D3BBA3;" d="M729.802,549.384c-0.002,0-0.004,0-0.008,0c-1.216-0.004-2.2-0.994-2.195-2.209l0.199-60.887
				c0.002-0.585,0.236-1.145,0.651-1.555c0.412-0.411,0.97-0.641,1.552-0.641c0.038,0.006,0.075,0,0.112,0
				c8.058,0,15.639-3.126,21.359-8.807c5.744-5.707,8.922-13.31,8.948-21.407c0.027-8.097-3.102-15.721-8.808-21.465
				c-5.707-5.744-13.309-8.921-21.406-8.947c-1.216-0.004-2.2-0.994-2.195-2.209c0.004-1.215,0.99-2.196,2.203-2.196
				c0.002,0,0.004,0,0.008,0c9.274,0.03,17.981,3.67,24.516,10.248c6.536,6.578,10.119,15.308,10.089,24.582
				s-3.67,17.982-10.248,24.517c-6.056,6.017-13.934,9.53-22.38,10.029l-0.193,58.751C732,548.403,731.015,549.384,729.802,549.384z
				"/>
			<path style="fill:#D3BBA3;" d="M924.275,549.384c-0.002,0-0.004,0-0.008,0c-1.216-0.004-2.2-0.994-2.195-2.209l0.199-60.887
				c0.002-0.585,0.235-1.145,0.651-1.555c0.412-0.411,0.97-0.641,1.552-0.641c0.027,0.006,0.075,0,0.112,0
				c8.057,0,15.638-3.126,21.358-8.807c5.744-5.707,8.922-13.31,8.949-21.407c0.054-16.715-13.5-30.358-30.215-30.411
				c-1.216-0.004-2.2-0.994-2.195-2.209c0.004-1.215,0.99-2.196,2.203-2.196c0.002,0,0.004,0,0.008,0
				c19.143,0.062,34.668,15.687,34.605,34.83c-0.03,9.274-3.671,17.982-10.249,24.517c-6.056,6.017-13.934,9.53-22.379,10.029
				l-0.193,58.751C926.474,548.403,925.489,549.384,924.275,549.384z"/>
			<path style="fill:#D3BBA3;" d="M1118.749,549.384c-0.002,0-0.004,0-0.008,0c-1.216-0.004-2.2-0.994-2.195-2.209l0.198-60.887
				c0.002-0.585,0.236-1.145,0.651-1.555c0.412-0.411,0.97-0.641,1.552-0.641c0.036,0.006,0.075,0,0.112,0
				c8.058,0,15.639-3.126,21.359-8.807c5.744-5.707,8.922-13.31,8.949-21.407c0.054-16.715-13.5-30.358-30.215-30.411
				c-1.216-0.004-2.2-0.994-2.195-2.209c0.004-1.215,0.99-2.196,2.203-2.196c0.002,0,0.004,0,0.007,0
				c19.144,0.062,34.668,15.687,34.605,34.83c-0.03,9.274-3.671,17.982-10.249,24.517c-6.056,6.017-13.934,9.53-22.38,10.029
				l-0.192,58.751C1120.948,548.403,1119.962,549.384,1118.749,549.384z"/>
		</g>
		<polygon style="fill:#FFD092;" points="500.41,1050.965 549.091,1057.126 514.589,1092.018 523.773,1140.222 479.927,1118.191 
			436.921,1141.821 444.325,1093.312 408.562,1059.713 456.983,1051.764 477.887,1007.369 		"/>
		<g>
			<polygon style="fill:#FFD092;" points="2060.771,540.847 2135,550.242 2082.392,603.445 2096.395,676.945 2029.539,643.351 
				1963.964,679.382 1975.253,605.417 1920.722,554.186 1994.555,542.066 2026.428,474.373 			"/>
			<polygon style="fill:#FFD092;" points="1912.485,436.858 1958.663,442.702 1925.936,475.8 1934.647,521.524 1893.056,500.626 
				1852.261,523.04 1859.285,477.027 1825.361,445.156 1871.292,437.616 1891.12,395.504 			"/>
		</g>
		<g>
			<path style="fill:#40484C;" d="M1814.599,1267.225c0,19.815-45.946,35.878-102.623,35.878s-101.42-9.449-101.42-29.264
				s44.743-42.492,101.42-42.492S1814.599,1247.411,1814.599,1267.225z"/>
			<g>
				<g>
					<polygon style="fill:#BC8271;" points="1612.814,2063.708 1701.217,2063.708 1715.711,1702.057 1603.647,1702.057 					"/>
					<g>
						<path style="fill:#776E42;" d="M1526.811,2119.495h176.218v-80.623h-106.064c-38.745,0-70.154,31.409-70.154,70.154V2119.495z
							"/>
						<g>
							<path style="fill:#363E44;" d="M1608.722,2057.137c-0.564,0-1.127-0.215-1.557-0.645l-15.549-15.549
								c-0.86-0.86-0.86-2.254,0-3.115c0.86-0.861,2.254-0.861,3.115,0l15.549,15.549c0.86,0.861,0.86,2.255,0,3.115
								C1609.849,2056.922,1609.285,2057.137,1608.722,2057.137z"/>
							<path style="fill:#363E44;" d="M1591.045,2062.439c-0.564,0-1.127-0.215-1.557-0.645l-15.549-15.549
								c-0.86-0.86-0.86-2.254,0-3.115s2.254-0.86,3.115,0l15.549,15.549c0.86,0.861,0.86,2.254,0,3.115
								C1592.173,2062.224,1591.609,2062.439,1591.045,2062.439z"/>
						</g>
					</g>
				</g>
				<g>
					<polygon style="fill:#BC8271;" points="1818.763,2064.155 1905.615,2047.667 1861.191,1885.463 1847.171,1690.652 
						1735.205,1710.559 1765.058,1897.859 					"/>
					<g>
						<path style="fill:#776E42;" d="M1764.303,2157.668l165.515-60.479l-27.67-75.726l-99.622,36.402
							c-36.392,13.298-55.113,53.579-41.816,89.971L1764.303,2157.668z"/>
						<g>
							<path style="fill:#363E44;" d="M1819.08,2071.117c-0.311,0-0.627-0.064-0.927-0.204l-19.942-9.267
								c-1.104-0.514-1.582-1.824-1.069-2.928c0.512-1.104,1.821-1.583,2.926-1.069l19.942,9.268
								c1.104,0.514,1.582,1.824,1.069,2.928C1820.705,2070.646,1819.91,2071.117,1819.08,2071.117z"/>
							<path style="fill:#363E44;" d="M1804.297,2082.166c-0.311,0-0.627-0.064-0.927-0.204l-19.941-9.27
								c-1.104-0.514-1.582-1.824-1.069-2.928s1.822-1.585,2.926-1.069l19.94,9.269c1.104,0.514,1.582,1.824,1.069,2.928
								C1805.922,2081.695,1805.127,2082.166,1804.297,2082.166z"/>
						</g>
					</g>
				</g>
				<g>
					<polygon style="fill:#ff6900;" points="1600.947,2023.267 1711.117,2027.08 1727.341,1714.109 1756.618,1892.863
						1799.14,2039.384 1910.475,2010.101 1873.041,1877.404 1847.891,1569.605 1606.023,1569.605 					"/>
				</g>
				<path style="fill:#40484C;" d="M1815.946,1871.861l-15.914-99.671l60.828-6.667c1.203-0.144,2.297,0.74,2.43,1.949
					c0.132,1.211-0.741,2.297-1.95,2.431l-56.227,6.163l14.552,91.144l48.511-3.081c1.195-0.088,2.261,0.845,2.338,2.059
					c0.077,1.215-0.844,2.261-2.059,2.338L1815.946,1871.861z"/>
				<path style="fill:#40484C;" d="M1815.398,1807.598c-1.113,0-2.069-0.841-2.189-1.973c-0.127-1.209,0.751-2.293,1.961-2.42
					l45.7-4.81c1.193-0.146,2.293,0.751,2.421,1.96c0.127,1.209-0.751,2.293-1.961,2.42l-45.7,4.81
					C1815.553,1807.594,1815.474,1807.598,1815.398,1807.598z"/>
			</g>
			<g>
				<path style="fill:#776E42;" d="M1823.772,1591.315l-36.433-11.376l-14.431-311.613c2.741-9.672,19.672-7.843,50.294-1.871
					c29.694,5.791,66.585,24.53,66.761,55.57l14.431,206.657C1904.394,1556.295,1850.665,1591.315,1823.772,1591.315z"/>
				<path style="fill:#BC8271;" d="M1528.568,1368.01c-5.945,46.266-34.238,167.003,20.543,179.938
					c49.229,11.624,65.844-141.074,75.323-186.405C1584.978,1351.857,1568.024,1377.695,1528.568,1368.01z"/>
				<path style="fill:#363E44;" d="M2000.603,1500.332c4.41,2.806,15.634-42.492-14.423-72.414
					c-34.319-34.166-143.194-165.837-269.394-158.488c-125.532,7.311-138.003,34.289-138.003,34.289l27.24,131.593v134.293
					l-1.08,54.596l70.553-1.603l0.401-52.915l102.222,0.401l0.802,54.519l75.765-2.405l-6.794-52.591v-130.323l55.701,37.799
					L2000.603,1500.332z"/>
				<g>
					<path style="fill:#BC8271;" d="M1597.043,1491.646c-2.039,36.687-4.067,132.498-4.455,140.952
						c-0.725,15.805-6.819,100.524-19.139,100.97c-5.887,0.213-5.451-16.161-5.142-21.692c-2.452,4.344-10.059,22.048-16.495,20.567
						c-7.561-1.74-1.725-24.223-1.855-24.63c-2.042,4.664-9.425,23.573-14.292,22.651c-6.333-1.2-4.741-20.851-3.992-26.712
						c-0.878,0.512-5.271,19.48-12.883,18.37c-5.589-0.815-4.1-18.841-3.477-26.663c0.633-14.043-0.836-177.763,2.776-208.225
						C1519.503,1475.308,1585.382,1475.67,1597.043,1491.646z"/>
					<g>
						<path style="fill:#363E44;" d="M1568.883,1714.301c-0.283,0-0.57-0.054-0.848-0.17c-1.122-0.469-1.653-1.758-1.184-2.88
							c1.237-2.964,2.277-6.039,3.09-9.134c1.465-5.569,2.241-11.335,2.304-17.139c0.014-1.209,0.997-2.179,2.203-2.179
							c0.008,0,0.016,0,0.025,0c1.216,0.013,2.191,1.011,2.178,2.227c-0.068,6.165-0.892,12.292-2.448,18.21
							c-0.866,3.294-1.972,6.559-3.286,9.711C1570.564,1713.791,1569.745,1714.301,1568.883,1714.301z"/>
						<path style="fill:#363E44;" d="M1550.35,1710.349c-0.207,0-0.416-0.028-0.625-0.09c-1.167-0.344-1.833-1.568-1.489-2.736
							c0.19-0.645,0.375-1.308,0.552-1.981c1.464-5.563,2.239-11.328,2.303-17.134c0.014-1.209,0.997-2.179,2.203-2.179
							c0.008,0,0.016,0,0.025,0c1.216,0.013,2.191,1.011,2.178,2.226c-0.068,6.17-0.892,12.296-2.447,18.21
							c-0.189,0.716-0.385,1.418-0.588,2.106C1552.179,1709.729,1551.301,1710.349,1550.35,1710.349z"/>
						<path style="fill:#363E44;" d="M1531.863,1705.58c-0.125,0-0.251-0.011-0.379-0.032c-1.198-0.208-2.002-1.349-1.794-2.547
							c0.642-3.704,0.99-7.503,1.032-11.294c0.014-1.215,0.907-2.211,2.228-2.179c1.217,0.013,2.191,1.011,2.178,2.227
							c-0.045,4.027-0.414,8.063-1.096,11.999C1533.845,1704.824,1532.915,1705.58,1531.863,1705.58z"/>
					</g>
				</g>
				<path style="fill:#776E42;" d="M1849.45,1480.043c-27.39-15.216-55.243-118.088-71.328-202.953
					c16.59,2.302,23.163,2.755,39.563,9.13c-0.179,57.225,13.007,119.615,35.189,162.438L1849.45,1480.043z"/>
				<path style="fill:#363E44;" d="M1667.078,1281.456c-67.072,3.4-105.753-4.227-139.503,68.549
					c-10.473,22.583-11.364,37.332-14.63,73.407c-2.013,22.227-3.138,44.532-3.348,66.85l-1.464,155.185l93.804,1.203
					l18.122-193.426L1667.078,1281.456z"/>
				<polygon style="fill:#D87355;" points="1675.075,1569.683 1656.725,1279.452 1776.475,1282.659 1776.475,1570.083 				"/>
				<g>
					<path style="fill:#BC8271;" d="M1930.189,1464.468c-28.063,23.718-96.916,76.301-103.433,81.702
						c-12.182,10.096-76.152,65.972-69.09,76.077c3.375,4.828,16.185-5.379,20.415-8.956c-1.992,4.573-11.546,21.307-6.489,25.553
						c5.941,4.989,20.378-13.208,20.782-13.35c-2.495,4.439-13.146,21.719-9.479,25.05c4.772,4.334,19.502-8.77,23.731-12.896
						c0.12,1.01-12.379,15.938-6.91,21.347c4.016,3.971,17.512-8.071,23.382-13.278c10.831-8.961,142.43-106.368,164.576-127.594
						C1996.344,1509.814,1949.966,1464.16,1930.189,1464.468z"/>
					<g>
						<path style="fill:#363E44;" d="M1777.554,1615.167c-0.377,0-0.76-0.097-1.11-0.301c-1.051-0.615-1.404-1.964-0.79-3.014
							c1.721-2.941,3.665-5.791,5.775-8.471c3.787-4.804,8.182-9.149,13.065-12.918c0.959-0.74,2.346-0.564,3.089,0.398
							c0.743,0.964,0.566,2.347-0.398,3.091c-4.596,3.545-8.733,7.637-12.296,12.156c-1.986,2.521-3.813,5.202-5.432,7.968
							C1779.048,1614.778,1778.311,1615.167,1777.554,1615.167z"/>
						<path style="fill:#363E44;" d="M1791.869,1627.586c-0.456,0-0.917-0.142-1.312-0.435c-0.976-0.727-1.179-2.106-0.454-3.083
							c0.427-0.574,0.869-1.155,1.328-1.736c3.784-4.802,8.18-9.149,13.063-12.918c0.962-0.74,2.345-0.566,3.089,0.398
							c0.743,0.964,0.566,2.347-0.398,3.091c-4.597,3.547-8.734,7.639-12.295,12.158c-0.434,0.549-0.85,1.095-1.251,1.635
							C1793.207,1627.278,1792.543,1627.586,1791.869,1627.586z"/>
						<path style="fill:#363E44;" d="M1806.812,1639.475c-0.54,0-1.081-0.198-1.506-0.596c-0.888-0.83-0.934-2.224-0.101-3.113
							c2.729-2.913,5.73-5.638,8.92-8.101c0.96-0.738,2.345-0.564,3.089,0.398c0.743,0.964,0.566,2.347-0.398,3.091
							c-3.003,2.317-5.829,4.883-8.397,7.624C1807.985,1639.241,1807.399,1639.475,1806.812,1639.475z"/>
					</g>
					<path style="fill:#363E44;" d="M1812.768,1547.446l59.277,72.024l117.753-98.868c24.435-27.885,20.135-56.068,5.594-70.779
						c-14.161-14.326-36.071-6.164-58.048-14.012L1812.768,1547.446z"/>
					<path style="fill:#FFFFFF;" d="M1816.238,1548.491c-0.651,0-1.296-0.288-1.731-0.839c-0.754-0.955-0.589-2.34,0.366-3.093
						c8.337-6.574,27.46-24.73,42.826-39.32c11.225-10.657,20.918-19.86,24.78-23.05c0.936-0.776,2.324-0.645,3.102,0.295
						c0.774,0.938,0.642,2.325-0.295,3.1c-3.745,3.096-13.388,12.251-24.553,22.852c-16.235,15.413-34.636,32.883-43.132,39.582
						C1817.196,1548.336,1816.716,1548.491,1816.238,1548.491z"/>
				</g>
				<path style="fill:#FFFFFF;" d="M1605.344,1614.377c-1.206,0-2.189-0.97-2.203-2.179l-2.406-217.271
					c-0.013-1.215,0.962-2.214,2.178-2.226c0.009,0,0.017,0,0.026,0c1.205,0,2.188,0.97,2.202,2.179l2.406,217.271
					c0.013,1.215-0.962,2.214-2.178,2.226C1605.36,1614.377,1605.352,1614.377,1605.344,1614.377z"/>
				<path style="fill:#40484C;" d="M1664.673,1387.688l-52.114-107.434l57.725-17.638
					C1661.318,1299.406,1660.976,1342.151,1664.673,1387.688z"/>
				<path style="fill:#40484C;" d="M1777.719,1387.688c0.099-47.865-3.503-90.38-13.63-123.469c11.11-7.583,28.95-6,49.809-0.301
					C1812.623,1285.579,1794.339,1339.3,1777.719,1387.688z"/>
			</g>
			<g>
				<ellipse style="fill:#363E44;" cx="1723.401" cy="1119.087" rx="87.394" ry="80.201"/>
				
					<rect x="1684.342" y="1187.223" transform="matrix(-1 -1.224647e-16 1.224647e-16 -1 3441.2043 2485.104)" style="fill:#BC8271;" width="72.521" height="110.658"/>
				<ellipse style="fill:#BC8271;" cx="1722.071" cy="1149.912" rx="69.867" ry="81.776"/>
				<path style="fill:#363E44;" d="M1694.977,1084.354l-9.636,29.184h-32.605c0.095-38.304,31.173-69.328,69.5-69.328
					c38.328,0,69.406,31.024,69.501,69.328h-88.179L1694.977,1084.354z"/>
				<g>
					
						<ellipse transform="matrix(0.4151 -0.9098 0.9098 0.4151 -1.1163 2310.2612)" style="fill:#BC8271;" cx="1796.191" cy="1155.999" rx="27.523" ry="18.525"/>
					<path style="fill:#363E44;" d="M1800.809,1168.979c-0.623,0-1.241-0.263-1.677-0.775c-0.79-0.925-0.679-2.315,0.246-3.104
						c1.855-1.583,3.437-3.734,4.573-6.223c1.474-3.231,2.019-6.621,1.534-9.545c-0.431-2.603-1.635-4.479-3.387-5.277
						c-1.63-0.746-3.334-0.385-4.477,0.045c-1.138,0.424-2.409-0.148-2.836-1.289c-0.428-1.138,0.148-2.409,1.287-2.837
						c2.764-1.035,5.479-1.009,7.854,0.071c3.128,1.428,5.225,4.47,5.905,8.566c0.627,3.78-0.038,8.073-1.873,12.094
						c-1.401,3.072-3.381,5.75-5.722,7.746C1801.822,1168.807,1801.314,1168.979,1800.809,1168.979z"/>
				</g>
				<path style="fill:#363E44;" d="M1721.935,1235.063c-11.973,0-23.888-3.356-34.458-9.704c-1.042-0.626-1.38-1.979-0.754-3.022
					c0.627-1.045,1.978-1.381,3.023-0.755c10.026,6.023,20.856,9.076,32.188,9.076c11.397,0,22.281-3.085,32.349-9.171
					c1.04-0.628,2.395-0.295,3.025,0.744c0.629,1.041,0.295,2.396-0.747,3.025
					C1745.949,1231.673,1733.975,1235.063,1721.935,1235.063z"/>
				<g>
					
						<ellipse transform="matrix(0.9098 -0.4151 0.4151 0.9098 -331.2831 787.8666)" style="fill:#BC8271;" cx="1646.724" cy="1155.999" rx="18.525" ry="27.523"/>
					<path style="fill:#363E44;" d="M1643.056,1168.979c-0.506,0-1.013-0.172-1.427-0.527c-2.342-1.994-4.321-4.672-5.723-7.746
						c-1.835-4.021-2.5-8.314-1.873-12.094c0.68-4.096,2.777-7.138,5.905-8.566c2.376-1.082,5.092-1.106,7.854-0.071
						c1.139,0.428,1.716,1.699,1.288,2.837c-0.426,1.14-1.698,1.712-2.836,1.289c-1.145-0.43-2.849-0.789-4.477-0.045
						c-1.752,0.798-2.956,2.674-3.387,5.277c-0.485,2.923,0.06,6.314,1.534,9.545c1.137,2.491,2.718,4.642,4.572,6.223
						c0.926,0.787,1.037,2.179,0.249,3.104C1644.298,1168.716,1643.679,1168.979,1643.056,1168.979z"/>
				</g>
				<path style="fill:#363E44;" d="M1656.88,1182.019c-0.927,0-1.79-0.589-2.093-1.517c-3.222-9.84-4.856-20.217-4.856-30.844
					c0-4.526,0.303-9.072,0.9-13.51c0.162-1.207,1.294-2.05,2.477-1.889c1.206,0.164,2.052,1.271,1.89,2.478
					c-0.572,4.242-0.861,8.59-0.861,12.92c0,10.16,1.561,20.075,4.637,29.471c0.379,1.157-0.252,2.401-1.408,2.779
					C1657.338,1181.985,1657.106,1182.019,1656.88,1182.019z"/>
				<path style="fill:#363E44;" d="M1787.232,1181.679c-0.229,0-0.463-0.036-0.693-0.112c-1.155-0.383-1.781-1.629-1.398-2.784
					c3.048-9.198,4.594-18.911,4.594-28.871c0-4.95-0.388-9.9-1.155-14.716c-0.19-1.203,0.628-2.33,1.83-2.521
					c1.218-0.198,2.331,0.628,2.522,1.828c0.802,5.044,1.209,10.229,1.209,15.409c0,10.431-1.621,20.611-4.818,30.257
					C1789.017,1181.094,1788.156,1181.679,1787.232,1181.679z"/>
				<g>
					<path style="fill:#FFFFFF;" d="M1736.978,1154.851c0,0,14.355,7.866,26.787,3.276s18.233-19.896,18.233-19.896
						s-4.925-2.693-11.523-4.003c-4.645-0.922-10.833,11.06-10.833,11.06s-14.346-3.907-17.332,0.136
						C1738.677,1150.344,1736.978,1154.851,1736.978,1154.851z"/>
					<path style="fill:#363E44;" d="M1743.087,1148.395c-0.365-0.992-0.622-1.996-0.778-3.001
						c2.988-4.065,7.261-8.355,12.903-10.439c5.148-1.9,10.613-1.653,15.266-0.725c0.709,1.038,1.318,2.165,1.774,3.399
						c2.974,8.053-1.145,16.992-9.198,19.965C1754.999,1160.567,1746.061,1156.448,1743.087,1148.395z"/>
				</g>
				<path style="fill:#363E44;" d="M1720.677,1181.49c-0.404,0-0.813-0.112-1.179-0.344c-3.039-1.93-4.906-4.283-5.55-6.994
					c-0.714-3.012,0.316-5.348,1.407-7.824c0.73-1.659,1.486-3.373,1.927-5.634c0.559-2.87,0.449-5.935-0.331-9.11
					c-0.29-1.181,0.432-2.375,1.614-2.663c1.178-0.301,2.374,0.432,2.664,1.613c0.932,3.801,1.06,7.503,0.377,11.003
					c-0.536,2.745-1.469,4.864-2.22,6.568c-1.001,2.272-1.508,3.528-1.151,5.027c0.369,1.557,1.589,3.001,3.625,4.296
					c1.027,0.652,1.33,2.014,0.679,3.04C1722.118,1181.129,1721.405,1181.49,1720.677,1181.49z"/>
				<path style="fill:#363E44;" d="M1729.063,1196.167c-2.647,0-5.245-0.721-7.286-2.186c-0.988-0.708-1.215-2.084-0.507-3.074
					c0.706-0.992,2.083-1.22,3.073-0.506c2.834,2.033,7.565,1.798,10.545-0.529c1.531-1.194,2.448-2.844,2.515-4.528
					c0.047-1.215,1.026-2.239,2.288-2.115c1.215,0.047,2.162,1.071,2.113,2.287c-0.117,2.984-1.651,5.838-4.208,7.83
					C1735.199,1195.217,1732.099,1196.167,1729.063,1196.167z"/>
				<path style="fill:#BC8271;" d="M1675.296,1289.474c0,13.064,17.951,25.658,46.524,25.658c28.573,0,44.273-10.79,44.273-23.854
					c0-13.064-15.699-23.456-44.273-23.456C1693.247,1267.822,1675.296,1276.409,1675.296,1289.474z"/>
				<g>
					<path style="fill:#FFFFFF;" d="M1708.995,1154.557c0,0-14.251,8.052-26.742,3.625c-12.491-4.427-18.491-19.656-18.491-19.656
						s3.719-2.101,9.023-3.567c5.078-1.403,12.943,9.987,12.943,9.987s13.37-5.089,16.274-1.698
						C1706.703,1148.738,1708.995,1154.557,1708.995,1154.557z"/>
					<path style="fill:#363E44;" d="M1671.877,1136.876c0.234-0.66,0.52-1.283,0.831-1.89c5.09-1.418,11.652-2.263,17.797-0.085
						c4.779,1.694,8.599,4.97,11.506,8.368c-0.105,1.332-0.365,2.673-0.832,3.993c-2.868,8.091-11.752,12.326-19.843,9.458
						C1673.244,1153.851,1669.009,1144.968,1671.877,1136.876z"/>
				</g>
				<path style="fill:#363E44;" d="M1811.018,1084.955c-0.893,0-1.732-0.547-2.063-1.431c-9.226-24.672-29.122-41.576-51.923-44.119
					c-15.134-1.689-27.78,3.407-35.72,7.979c-1.055,0.609-2.403,0.245-3.008-0.809c-0.607-1.054-0.244-2.401,0.81-3.007
					c8.51-4.901,22.082-10.36,38.406-8.542c24.461,2.728,45.751,20.72,55.561,46.954c0.426,1.14-0.152,2.409-1.292,2.835
					C1811.536,1084.91,1811.275,1084.955,1811.018,1084.955z"/>
				<path style="fill:#363E44;" d="M1760.101,1069.458c-0.765,0-1.508-0.398-1.914-1.11c-4.547-7.953-12.889-18.733-26.81-24.915
					c-20.966-9.31-46.674-4.761-67.09,11.883c-0.941,0.77-2.331,0.626-3.099-0.316c-0.769-0.942-0.628-2.33,0.315-3.1
					c21.709-17.696,49.169-22.484,71.662-12.494c15.012,6.667,23.974,18.229,28.848,26.757c0.603,1.056,0.237,2.401-0.82,3.005
					C1760.848,1069.365,1760.473,1069.458,1760.101,1069.458z"/>
			</g>
		</g>
		<g>
			<g>
				<g>
					<polygon style="fill:#84524D;" points="932.911,2060.954 845.093,2060.954 835.986,1701.742 942.018,1701.742 					"/>
					<g>
						<path style="fill:#D3BBA3;" d="M1018.347,2116.365H843.292v-80.079h101.714c40.505,0,73.34,32.835,73.34,73.34V2116.365z"/>
						<path style="fill:#363E44;" d="M936.977,2054.441c-0.564,0-1.127-0.215-1.557-0.646c-0.86-0.86-0.86-2.254,0-3.115
							l15.446-15.444c0.861-0.86,2.254-0.86,3.115,0c0.86,0.861,0.86,2.255,0,3.115l-15.446,15.443
							C938.104,2054.226,937.541,2054.441,936.977,2054.441z"/>
						<path style="fill:#363E44;" d="M954.536,2059.708c-0.564,0-1.127-0.215-1.557-0.646c-0.86-0.86-0.86-2.254,0-3.115
							l15.447-15.443c0.861-0.86,2.255-0.86,3.115,0c0.86,0.86,0.86,2.254,0,3.115l-15.447,15.443
							C955.664,2059.492,955.1,2059.708,954.536,2059.708z"/>
					</g>
				</g>
				<g>
					<polygon style="fill:#84524D;" points="728.323,2041.375 642.045,2024.999 686.176,1863.888 700.103,1670.392 
						804.275,1690.165 781.673,1876.201 					"/>
					<g>
						<path style="fill:#D3BBA3;" d="M782.424,2134.257l-164.422-60.071l27.487-75.215l89.196,32.588
							C776.231,2046.738,797.604,2092.717,782.424,2134.257L782.424,2134.257z"/>
						<path style="fill:#363E44;" d="M728.009,2048.306c-0.83,0-1.625-0.471-1.998-1.273c-0.513-1.104-0.034-2.414,1.069-2.928
							l19.809-9.205c1.1-0.512,2.413-0.032,2.926,1.069c0.513,1.104,0.034,2.414-1.069,2.928l-19.809,9.205
							C728.636,2048.242,728.32,2048.306,728.009,2048.306z"/>
						<path style="fill:#363E44;" d="M742.694,2059.279c-0.83,0-1.625-0.471-1.998-1.273c-0.513-1.104-0.034-2.414,1.069-2.928
							l19.809-9.205c1.102-0.512,2.413-0.034,2.926,1.069c0.513,1.104,0.034,2.414-1.069,2.928l-19.809,9.205
							C743.321,2059.215,743.005,2059.279,742.694,2059.279z"/>
					</g>
				</g>
			</g>
			<g>
				<g>
					<g>
						<path style="fill:#84524D;" d="M927.656,1340.459c-38.102,6.814-16.919,71.464-9.126,106.085
							c6.788,30.16,20.225,131.807,48.541,122.99c28.276-8.805,39.766-64.153,34.564-127.025
							C989.965,1301.454,960.013,1334.672,927.656,1340.459z"/>
						<g>
							<path style="fill:#84524D;" d="M927.981,1490.963c0,0,2.767,131.574,4.648,148.688c0.197,1.792,0.531,4.957,2.063,8.799
								c5.676,14.236,18.709,14.958,31.507,27.204c14.522,13.895,14.833,29.941,19.936,29.391c3.55-0.382,5.137-6.468,3.59-19.05
								l0.002,0c2.274,9.424,5.916,22.07,11.12,20.798c5.931-1.79,3.396-17.15,1.409-26.367c2.405,11.156,7.022,16.369,9.747,14.937
								c4.289-2.254,4.439-11.34,0.688-25.961l0.001-0.001c5.41,9.372,8.12,10.84,10.22,8.986
								c3.834-3.384,0.524-15.346-4.023-25.473c-5.119-11.401-13.044-18.466-18.147-22.802c-0.001-0.001-0.002-0.003-0.002-0.003
								c0.335-55.286-1.789-75.712-0.768-120.36C1000.496,1486.776,938.218,1446.317,927.981,1490.963z"/>
							<path style="fill:#84524D;" d="M957.079,1661.684c0.662,19.876-3.312,27.185-6.465,27.19
								c-5.303,0.008-12.814-16.73-17.44-45.658C940.295,1647.764,949.958,1657.136,957.079,1661.684z"/>
							<path style="fill:#363E44;" d="M957.448,1670.098c-0.415,0-0.836-0.116-1.208-0.361c-1.954-1.286-3.884-2.44-5.75-3.554
								c-4.123-2.463-8.016-4.789-11.301-8.026c-0.867-0.854-0.878-2.248-0.024-3.115c0.855-0.865,2.248-0.878,3.115-0.021
								c2.908,2.865,6.412,4.956,10.469,7.381c1.907,1.138,3.879,2.317,5.911,3.653c1.016,0.669,1.299,2.035,0.63,3.053
								C958.868,1669.749,958.164,1670.098,957.448,1670.098z"/>
							<path style="fill:#363E44;" d="M989.186,1687.987c-0.928,0-1.791-0.589-2.094-1.519c-1.033-3.164-2.477-6.167-4.294-8.927
								c-1.257-1.906-2.697-3.704-4.279-5.344c-0.844-0.875-0.82-2.269,0.056-3.115c0.874-0.845,2.271-0.818,3.115,0.056
								c1.769,1.833,3.379,3.844,4.786,5.98c2.033,3.087,3.649,6.445,4.804,9.982c0.378,1.157-0.254,2.401-1.411,2.777
								C989.642,1687.953,989.411,1687.987,989.186,1687.987z"/>
							<path style="fill:#363E44;" d="M1001.976,1683.874c-0.928,0-1.791-0.589-2.094-1.521c-1.03-3.158-2.475-6.161-4.294-8.925
								c-1.257-1.906-2.696-3.704-4.279-5.344c-0.844-0.875-0.82-2.27,0.056-3.115c0.875-0.843,2.271-0.818,3.115,0.056
								c1.769,1.833,3.38,3.844,4.786,5.98c2.036,3.091,3.653,6.449,4.804,9.984c0.378,1.155-0.255,2.399-1.411,2.777
								C1002.432,1683.84,1002.201,1683.874,1001.976,1683.874z"/>
							<path style="fill:#363E44;" d="M1012.503,1671.371c-0.928,0-1.791-0.589-2.094-1.519c-1.033-3.164-2.478-6.167-4.295-8.927
								c-1.249-1.897-2.689-3.696-4.28-5.346c-0.843-0.878-0.819-2.272,0.058-3.115c0.877-0.843,2.271-0.815,3.115,0.056
								c1.778,1.846,3.389,3.859,4.786,5.983c2.033,3.087,3.649,6.445,4.804,9.982c0.378,1.157-0.254,2.401-1.411,2.777
								C1012.958,1671.337,1012.728,1671.371,1012.503,1671.371z"/>
						</g>
					</g>
				</g>
				<path style="fill:#ff6900;" d="M853.181,1590.029c-57.608,7.694-116.102,16.088-157.076,10.623
					c-21.017-2.803-37.92-17.505-42.883-36.597c-16.033-61.686-11.778-142.377,2.71-232.654
					c3.231-20.134,21.142-33.213,42.589-37.919c51.351-11.268,129.51,1.516,138.796,22.267L853.181,1590.029z"/>
				<g>
					<polygon style="fill:#D87355;" points="986.965,1808.014 876.159,1809.003 874.957,1822.231 651.318,1808.014 
						698.586,1556.379 939.697,1556.379 					"/>
				</g>
				<path style="fill:#84524D;" d="M650.396,1373.034c-31.552,33.715-128.284,125.851-91.262,163.365
					c30.624,31.03,121.086-62.581,154.485-94.177C692.545,1419.158,671.47,1396.096,650.396,1373.034z"/>
				<path style="fill:#EFBC73;" d="M636.46,1369.01c0,0,99.77-83.125,207.571-77.824c135.623,6.67,146.739,62.253,146.739,62.253
					l-51.112,103.657l13.155,104.329l-266.057-4.447l12.632-99.882L636.46,1369.01z"/>
				<path style="fill:#ff6900;" d="M699.772,1548.457c31.1-59.387,56.182-158.69,77.559-253.935l-56.695,11.117
					c9.08,56.046-9.68,148.994-27.534,229.478L699.772,1548.457z"/>
				<g>
					<path style="fill:#84524D;" d="M593.581,1467.853c35.666,7.759,120.564,21.874,128.796,23.582
						c15.389,3.193,97.533,22.469,96.037,34.622c-0.715,5.807-16.708,2.809-22.085,1.638c3.876,3.087,20.047,13.327,17.584,19.406
						c-2.894,7.142-24.031-2.111-24.451-2.048c4.255,2.735,21.643,12.944,19.974,17.573c-2.172,6.023-21.197,1.376-26.829-0.278
						c0.365,0.942,18.28,8.228,15.996,15.519c-1.677,5.353-19.125,1.063-26.7-0.775c-13.675-2.826-174.5-27.087-203.814-35.412
						C556.615,1538.422,576.079,1476.782,593.581,1467.853z"/>
					<path style="fill:#363E44;" d="M670.786,1484.183c-0.13,0-0.263-0.011-0.397-0.037c-18.24-3.321-65.73-12.55-77.254-14.925
						c-1.192-0.245-1.959-1.411-1.713-2.603c0.245-1.192,1.41-1.953,2.602-1.712c11.509,2.371,58.936,11.589,77.155,14.908
						c1.197,0.217,1.991,1.364,1.773,2.56C672.758,1483.438,671.83,1484.183,670.786,1484.183z"/>
					<path style="fill:#363E44;" d="M796.634,1529.366c-0.395,0-0.796-0.105-1.156-0.329c-2.708-1.676-5.56-3.177-8.475-4.464
						c-5.223-2.308-10.756-3.973-16.444-4.95c-1.199-0.204-2.005-1.344-1.798-2.543c0.204-1.2,1.344-2.003,2.543-1.798
						c6.045,1.037,11.925,2.807,17.48,5.26c3.1,1.37,6.131,2.966,9.011,4.748c1.035,0.639,1.355,1.999,0.715,3.033
						C798.094,1528.996,797.372,1529.366,796.634,1529.366z"/>
					<path style="fill:#363E44;" d="M789.849,1546.925c-0.317,0-0.64-0.069-0.945-0.213c-0.607-0.29-1.227-0.574-1.863-0.856
						c-5.225-2.308-10.758-3.971-16.44-4.946c-1.198-0.204-2.005-1.342-1.799-2.543c0.205-1.198,1.334-2.007,2.544-1.798
						c6.038,1.032,11.92,2.803,17.479,5.257c0.677,0.301,1.332,0.602,1.973,0.906c1.098,0.523,1.565,1.837,1.042,2.936
						C791.462,1546.462,790.672,1546.925,789.849,1546.925z"/>
					<path style="fill:#363E44;" d="M782.269,1564.308c-0.237,0-0.477-0.039-0.714-0.118c-3.53-1.211-7.202-2.147-10.916-2.784
						c-1.199-0.204-2.005-1.344-1.799-2.543s1.336-2.003,2.544-1.798c3.945,0.675,7.849,1.669,11.6,2.956
						c1.151,0.396,1.764,1.648,1.369,2.799C784.04,1563.734,783.185,1564.308,782.269,1564.308z"/>
				</g>
				<g>
					<circle style="fill:#E0AA63;" cx="938.996" cy="1344.493" r="5.111"/>
					<path style="fill:#E0AA63;" d="M809.515,1389.291c0,2.823-2.288,5.111-5.111,5.111c-2.823,0-5.111-2.288-5.111-5.111
						c0-2.823,2.288-5.111,5.111-5.111C807.226,1384.179,809.515,1386.468,809.515,1389.291z"/>
					<circle style="fill:#E0AA63;" cx="778.748" cy="1349.203" r="5.111"/>
					<path style="fill:#E0AA63;" d="M980.286,1355.617c0,2.823-2.288,5.111-5.111,5.111c-2.823,0-5.111-2.288-5.111-5.111
						s2.288-5.111,5.111-5.111C977.997,1350.506,980.286,1352.795,980.286,1355.617z"/>
					<path style="fill:#E0AA63;" d="M700.478,1427.774c0,2.823-2.288,5.111-5.111,5.111c-2.823,0-5.111-2.288-5.111-5.111
						c0-2.823,2.288-5.111,5.111-5.111C698.189,1422.663,700.478,1424.952,700.478,1427.774z"/>
					<circle style="fill:#E0AA63;" cx="702.582" cy="1394.903" r="5.111"/>
					<path style="fill:#E0AA63;" d="M706.892,1346.798c0,2.823-2.288,5.111-5.111,5.111c-2.823,0-5.111-2.288-5.111-5.111
						c0-2.823,2.288-5.111,5.111-5.111C704.603,1341.687,706.892,1343.975,706.892,1346.798z"/>
					<circle style="fill:#E0AA63;" cx="899.811" cy="1349.705" r="5.111"/>
					<path style="fill:#E0AA63;" d="M795.083,1302.703c0,2.823-2.288,5.111-5.111,5.111s-5.111-2.288-5.111-5.111
						c0-2.823,2.288-5.111,5.111-5.111S795.083,1299.88,795.083,1302.703z"/>
					<circle style="fill:#E0AA63;" cx="888.586" cy="1389.792" r="5.111"/>
					<circle style="fill:#E0AA63;" cx="828.456" cy="1490.811" r="5.111"/>
					<circle style="fill:#E0AA63;" cx="834.068" cy="1521.578" r="5.111"/>
					<path style="fill:#E0AA63;" d="M940.199,1396.206c0,2.823-2.288,5.111-5.111,5.111c-2.823,0-5.111-2.288-5.111-5.111
						c0-2.823,2.288-5.111,5.111-5.111C937.91,1391.094,940.199,1393.383,940.199,1396.206z"/>
					<path style="fill:#E0AA63;" d="M907.828,1526.389c0,2.823-2.288,5.111-5.111,5.111s-5.111-2.288-5.111-5.111
						s2.288-5.111,5.111-5.111S907.828,1523.566,907.828,1526.389z"/>
					<circle style="fill:#E0AA63;" cx="901.414" cy="1435.792" r="5.111"/>
					<circle style="fill:#E0AA63;" cx="870.146" cy="1496.423" r="5.111"/>
					<circle style="fill:#E0AA63;" cx="861.026" cy="1548.036" r="5.111"/>
					<path style="fill:#E0AA63;" d="M866.438,1418.654c0,2.823-2.288,5.111-5.111,5.111c-2.823,0-5.111-2.288-5.111-5.111
						c0-2.823,2.288-5.111,5.111-5.111C864.15,1413.543,866.438,1415.832,866.438,1418.654z"/>
					<path style="fill:#E0AA63;" d="M916.146,1317.936c0,2.823-2.288,5.111-5.111,5.111c-2.823,0-5.111-2.288-5.111-5.111
						s2.288-5.111,5.111-5.111C913.858,1312.824,916.146,1315.113,916.146,1317.936z"/>
					<circle style="fill:#E0AA63;" cx="826.05" cy="1430.179" r="5.111"/>
					<path style="fill:#E0AA63;" d="M779.048,1405.025c0,2.823-2.288,5.111-5.111,5.111c-2.823,0-5.111-2.288-5.111-5.111
						c0-2.823,2.288-5.111,5.111-5.111C776.76,1399.914,779.048,1402.202,779.048,1405.025z"/>
					<circle style="fill:#E0AA63;" cx="667.305" cy="1369.247" r="5.111"/>
					<path style="fill:#E0AA63;" d="M799.894,1485.5c0,2.823-2.288,5.111-5.111,5.111c-2.823,0-5.111-2.288-5.111-5.111
						c0-2.823,2.288-5.111,5.111-5.111C797.605,1480.389,799.894,1482.677,799.894,1485.5z"/>
					<path style="fill:#E0AA63;" d="M856.817,1375.661c0,2.823-2.288,5.111-5.111,5.111c-2.823,0-5.111-2.288-5.111-5.111
						s2.288-5.111,5.111-5.111C854.529,1370.55,856.817,1372.838,856.817,1375.661z"/>
					<circle style="fill:#E0AA63;" cx="777.946" cy="1454.733" r="5.111"/>
					<circle style="fill:#E0AA63;" cx="745.075" cy="1478.284" r="5.111"/>
					<circle style="fill:#E0AA63;" cx="873.353" cy="1457.439" r="5.111"/>
					<circle style="fill:#E0AA63;" cx="912.639" cy="1480.689" r="5.111"/>
					<circle style="fill:#E0AA63;" cx="931.58" cy="1523.182" r="5.111"/>
				</g>
				<path style="fill:#363E44;" d="M874.959,1824.433c-0.067,0-0.133-0.002-0.201-0.009c-1.212-0.11-2.105-1.181-1.995-2.394
					l22.849-251.346c0.111-1.209,1.179-2.093,2.393-1.994c1.212,0.11,2.105,1.181,1.995,2.394l-22.849,251.346
					C877.047,1823.573,876.086,1824.433,874.959,1824.433z"/>
			</g>
			<g>
				<ellipse style="fill:#363E44;" cx="837.059" cy="1155.167" rx="80.279" ry="80.268"/>
				<rect x="798.714" y="1221.436" style="fill:#84524D;" width="72.042" height="109.911"/>
				<ellipse style="fill:#84524D;" cx="837.196" cy="1186.016" rx="69.935" ry="81.845"/>
				<path style="fill:#363E44;" d="M864.316,1128.569l4.745,29.209h37.537c-0.095-38.337-31.203-69.386-69.568-69.386
					c-38.366,0-69.474,31.05-69.569,69.386h93.166L864.316,1128.569z"/>
				<g>
					
						<ellipse transform="matrix(0.9097 -0.4152 0.4152 0.9097 -426.1118 424.4484)" style="fill:#84524D;" cx="763.003" cy="1192.108" rx="18.543" ry="27.547"/>
					<path style="fill:#363E44;" d="M758.382,1205.097c-0.506,0-1.013-0.172-1.428-0.527c-2.346-2.001-4.327-4.681-5.728-7.753
						c-1.836-4.023-2.502-8.321-1.875-12.103c0.681-4.1,2.779-7.144,5.91-8.573c2.379-1.084,5.097-1.106,7.858-0.071
						c1.139,0.428,1.717,1.697,1.29,2.837s-1.695,1.712-2.836,1.289c-1.147-0.432-2.858-0.787-4.484-0.045
						c-1.754,0.8-2.958,2.676-3.391,5.286c-0.485,2.926,0.06,6.318,1.536,9.551c1.136,2.489,2.719,4.644,4.579,6.23
						c0.926,0.79,1.036,2.179,0.246,3.104C759.623,1204.835,759.004,1205.097,758.382,1205.097z"/>
				</g>
				<path style="fill:#363E44;" d="M837.332,1271.236c-12.051,0-24.036-3.392-34.659-9.814c-1.041-0.628-1.376-1.983-0.747-3.024
					c0.63-1.039,1.984-1.37,3.025-0.745c10.077,6.09,20.972,9.177,32.381,9.177c11.349,0,22.19-3.055,32.222-9.082
					c1.041-0.626,2.395-0.288,3.023,0.755c0.626,1.041,0.288,2.396-0.754,3.022C861.246,1267.878,849.32,1271.236,837.332,1271.236z
					"/>
				<g>
					
						<ellipse transform="matrix(0.4152 -0.9097 0.9097 0.4152 -550.8093 1527.3331)" style="fill:#84524D;" cx="912.617" cy="1192.108" rx="27.547" ry="18.543"/>
					<path style="fill:#363E44;" d="M916.288,1205.097c-0.623,0-1.241-0.262-1.678-0.774c-0.788-0.925-0.678-2.315,0.247-3.104
						c1.859-1.585,3.442-3.739,4.579-6.23c1.476-3.233,2.021-6.626,1.536-9.551c-0.433-2.609-1.637-4.485-3.393-5.286
						c-1.629-0.744-3.338-0.385-4.483,0.045c-1.138,0.424-2.408-0.148-2.836-1.289c-0.427-1.14,0.151-2.409,1.29-2.837
						c2.762-1.035,5.48-1.009,7.857,0.071c3.132,1.428,5.231,4.472,5.911,8.573c0.627,3.782-0.039,8.08-1.875,12.103
						c-1.401,3.072-3.383,5.754-5.728,7.753C917.301,1204.925,916.794,1205.097,916.288,1205.097z"/>
				</g>
				<path style="fill:#363E44;" d="M902.451,1218.149c-0.227,0-0.458-0.035-0.685-0.11c-1.156-0.379-1.787-1.622-1.408-2.779
					c3.078-9.403,4.64-19.326,4.64-29.497c0-4.339-0.289-8.689-0.86-12.931c-0.162-1.207,0.684-2.315,1.89-2.478
					c1.208-0.166,2.314,0.682,2.477,1.889c0.597,4.438,0.899,8.986,0.899,13.52c0,10.638-1.635,21.024-4.86,30.87
					C904.241,1217.559,903.379,1218.149,902.451,1218.149z"/>
				<path style="fill:#363E44;" d="M771.971,1217.809c-0.924,0-1.784-0.585-2.091-1.51c-3.2-9.652-4.822-19.84-4.822-30.282
					c0-5.184,0.408-10.373,1.21-15.422c0.193-1.2,1.32-2.029,2.522-1.828c1.201,0.191,2.02,1.319,1.83,2.521
					c-0.767,4.821-1.156,9.775-1.156,14.729c0,9.969,1.547,19.692,4.598,28.897c0.383,1.155-0.243,2.401-1.398,2.784
					C772.434,1217.772,772.2,1217.809,771.971,1217.809z"/>
				<path style="fill:#363E44;" d="M838.592,1217.619c-0.729,0-1.442-0.361-1.862-1.022c-0.652-1.026-0.349-2.388,0.679-3.04
					c2.038-1.295,3.259-2.74,3.63-4.3c0.356-1.502-0.151-2.758-1.153-5.032c-0.752-1.706-1.687-3.827-2.222-6.574
					c-0.684-3.502-0.558-7.209,0.377-11.012c0.29-1.181,1.492-1.912,2.664-1.613c1.182,0.288,1.905,1.482,1.615,2.663
					c-0.781,3.179-0.893,6.247-0.331,9.119c0.442,2.265,1.198,3.98,1.93,5.638c1.092,2.478,2.123,4.817,1.408,7.83
					c-0.645,2.713-2.514,5.068-5.554,6.998C839.404,1217.51,838.995,1217.619,838.592,1217.619z"/>
				<path style="fill:#363E44;" d="M837.971,1241.952c-0.349,0-0.702-0.082-1.031-0.258c-4.686-2.489-6.872-8.02-4.976-12.591
					c1.406-3.384,4.87-5.683,8.826-5.858c1.208-0.056,2.244,0.886,2.297,2.104c0.054,1.215-0.888,2.244-2.104,2.297
					c-2.254,0.099-4.198,1.334-4.951,3.147c-1.018,2.452,0.316,5.597,2.974,7.011c1.075,0.57,1.482,1.904,0.912,2.979
					C839.521,1241.528,838.759,1241.952,837.971,1241.952z"/>
				<path style="fill:#FFFFFF;" d="M768.006,1151.431c-0.091,0-0.184-0.006-0.276-0.017c-1.208-0.151-2.064-1.252-1.912-2.459
					c4.148-33.133,30.235-58.773,63.44-62.35c1.201-0.135,2.295,0.744,2.425,1.953c0.13,1.211-0.744,2.297-1.954,2.427
					c-31.163,3.358-55.647,27.421-59.54,58.517C770.049,1150.616,769.1,1151.431,768.006,1151.431z"/>
				<path style="fill:#FFFFFF;" d="M905.731,1149.166c-1.064,0-2.001-0.772-2.173-1.857c-4.915-30.973-30.203-54.219-61.494-56.531
					c-1.213-0.088-2.124-1.144-2.034-2.358c0.088-1.215,1.157-2.153,2.359-2.035c33.339,2.463,60.283,27.232,65.521,60.231
					c0.19,1.203-0.629,2.332-1.831,2.521C905.962,1149.157,905.846,1149.166,905.731,1149.166z"/>
				<ellipse style="fill:#84524D;" cx="833.455" cy="1326.314" rx="50.858" ry="24.823"/>
				<g>
					<g>
						<path style="fill:#FFFFFF;" d="M822.274,1190.96c0,0-14.369,7.872-26.813,3.279c-12.444-4.593-18.251-19.912-18.251-19.912
							s4.929-2.695,11.534-4.007c4.649-0.923,10.844,11.069,10.844,11.069s14.36-3.91,17.349,0.136
							C820.573,1186.449,822.274,1190.96,822.274,1190.96z"/>
						<path style="fill:#363E44;" d="M816.16,1184.498c0.365-0.992,0.622-1.997,0.779-3.004c-2.991-4.068-7.268-8.362-12.915-10.447
							c-5.153-1.902-10.624-1.655-15.281-0.726c-0.71,1.039-1.32,2.167-1.776,3.402c-2.977,8.06,1.146,17.007,9.207,19.982
							C804.236,1196.68,813.183,1192.558,816.16,1184.498z"/>
					</g>
					<g>
						<path style="fill:#FFFFFF;" d="M850.284,1190.666c0,0,14.265,8.059,26.768,3.628c12.503-4.431,18.509-19.673,18.509-19.673
							s-3.723-2.103-9.031-3.57c-5.083-1.405-12.955,9.996-12.955,9.996s-13.383-5.093-16.29-1.699
							C852.579,1184.842,850.284,1190.666,850.284,1190.666z"/>
						<path style="fill:#363E44;" d="M887.439,1172.97c-0.234-0.661-0.521-1.284-0.832-1.892
							c-5.095-1.419-11.663-2.265-17.814-0.085c-4.784,1.695-8.608,4.974-11.517,8.375c0.105,1.333,0.365,2.676,0.833,3.997
							c2.871,8.098,11.763,12.336,19.863,9.466C886.071,1189.959,890.31,1181.068,887.439,1172.97z"/>
					</g>
				</g>
				<g>
					
						<ellipse transform="matrix(0.9991 -0.0417 0.0417 0.9991 -44.5972 39.2295)" style="fill:#363E44;" cx="918.058" cy="1088.637" rx="31.402" ry="31.397"/>
					<circle style="fill:#363E44;" cx="889.706" cy="1088.141" r="6.617"/>
					
						<ellipse transform="matrix(0.0316 -0.9995 0.9995 0.0316 -216.9278 1936.2625)" style="fill:#363E44;" cx="890.765" cy="1080.079" rx="6.617" ry="6.617"/>
					<path style="fill:#363E44;" d="M901.83,1069.511c0.152,3.651-2.686,6.734-6.337,6.886c-3.651,0.152-6.734-2.686-6.886-6.337
						c-0.152-3.651,2.686-6.734,6.337-6.886C898.595,1063.022,901.678,1065.86,901.83,1069.511z"/>
					<path style="fill:#363E44;" d="M909.167,1061.538c0.152,3.651-2.686,6.734-6.337,6.886c-3.651,0.152-6.734-2.686-6.886-6.337
						c-0.152-3.651,2.686-6.734,6.337-6.886C905.933,1055.049,909.016,1057.886,909.167,1061.538z"/>
					
						<ellipse transform="matrix(0.0316 -0.9995 0.9995 0.0316 -174.004 1938.9309)" style="fill:#363E44;" cx="913.604" cy="1059.262" rx="6.617" ry="6.617"/>
					
						<ellipse transform="matrix(0.0316 -0.9995 0.9995 0.0316 -163.7776 1949.9819)" style="fill:#363E44;" cx="924.421" cy="1059.51" rx="6.617" ry="6.617"/>
					<path style="fill:#363E44;" d="M948.865,1068.953c0.152,3.651-2.686,6.734-6.337,6.886c-3.651,0.152-6.734-2.686-6.886-6.337
						c-0.152-3.651,2.686-6.734,6.337-6.886C945.63,1062.464,948.713,1065.301,948.865,1068.953z"/>
					<path style="fill:#363E44;" d="M951.343,1078.261c0.152,3.651-2.686,6.734-6.337,6.886c-3.651,0.151-6.734-2.686-6.886-6.337
						c-0.152-3.651,2.686-6.734,6.337-6.886C948.108,1071.773,951.191,1074.61,951.343,1078.261z"/>
					<circle style="fill:#363E44;" cx="945.107" cy="1087.583" r="6.617"/>
					<path style="fill:#363E44;" d="M951.035,1096.052c0.152,3.651-2.686,6.734-6.337,6.886c-3.651,0.152-6.734-2.686-6.886-6.337
						c-0.152-3.651,2.686-6.734,6.337-6.886C947.801,1089.563,950.884,1092.4,951.035,1096.052z"/>
					<circle style="fill:#363E44;" cx="941.291" cy="1104.822" r="6.617"/>
					
						<ellipse transform="matrix(0.9997 -0.0262 0.0262 0.9997 -28.8202 24.8806)" style="fill:#363E44;" cx="934.606" cy="1111.723" rx="6.617" ry="6.617"/>
					
						<ellipse transform="matrix(0.3482 -0.9374 0.9374 0.3482 -442.4532 1595.5078)" style="fill:#363E44;" cx="926.065" cy="1115.911" rx="6.617" ry="6.617"/>
					
						<ellipse transform="matrix(0.0316 -0.9995 0.9995 0.0316 -226.9923 1998.2327)" style="fill:#363E44;" cx="917.714" cy="1116.258" rx="6.617" ry="6.617"/>
					<path style="fill:#363E44;" d="M916.293,1115.62c0.152,3.651-2.686,6.734-6.337,6.886c-3.651,0.152-6.734-2.686-6.886-6.337
						c-0.152-3.651,2.686-6.734,6.337-6.886C913.058,1109.131,916.141,1111.969,916.293,1115.62z"/>
					<circle style="fill:#363E44;" cx="932.989" cy="1064.383" r="6.617"/>
				</g>
				<g>
					
						<ellipse transform="matrix(0.9927 -0.1208 0.1208 0.9927 -124.7719 100.2014)" style="fill:#363E44;" cx="764.378" cy="1079.597" rx="30.938" ry="30.942"/>
					<path style="fill:#363E44;" d="M765.437,1101.006c3.572-0.454,6.836,2.074,7.29,5.647c0.454,3.572-2.074,6.836-5.647,7.29
						c-3.572,0.454-6.836-2.074-7.29-5.647C759.336,1104.724,761.864,1101.46,765.437,1101.006z"/>
					<path style="fill:#363E44;" d="M757.434,1100.639c3.573-0.454,6.836,2.074,7.29,5.647c0.454,3.573-2.074,6.836-5.647,7.29
						c-3.573,0.454-6.836-2.074-7.29-5.647S753.861,1101.093,757.434,1100.639z"/>
					<path style="fill:#363E44;" d="M746.955,1097.127c3.572-0.454,6.836,2.074,7.29,5.647c0.454,3.572-2.074,6.836-5.647,7.29
						c-3.572,0.454-6.836-2.074-7.29-5.647C740.855,1100.844,743.383,1097.58,746.955,1097.127z"/>
					<path style="fill:#363E44;" d="M738.514,1090.588c3.573-0.454,6.836,2.074,7.29,5.647c0.454,3.573-2.074,6.836-5.647,7.29
						c-3.572,0.454-6.836-2.074-7.29-5.647S734.942,1091.042,738.514,1090.588z"/>
					<path style="fill:#363E44;" d="M735.088,1079.953c3.572-0.454,6.836,2.074,7.29,5.647c0.454,3.573-2.074,6.836-5.647,7.29
						c-3.572,0.454-6.836-2.074-7.29-5.647C728.987,1083.671,731.515,1080.407,735.088,1079.953z"/>
					<path style="fill:#363E44;" d="M734.428,1069.313c3.572-0.454,6.836,2.074,7.29,5.647c0.454,3.572-2.074,6.836-5.647,7.29
						c-3.573,0.454-6.836-2.074-7.29-5.647C728.327,1073.031,730.856,1069.767,734.428,1069.313z"/>
					<path style="fill:#363E44;" d="M742.479,1050.994c3.572-0.454,6.836,2.074,7.29,5.647s-2.074,6.836-5.647,7.29
						c-3.572,0.454-6.836-2.074-7.29-5.647C736.379,1054.711,738.907,1051.447,742.479,1050.994z"/>
					<path style="fill:#363E44;" d="M751.412,1047.783c3.572-0.454,6.836,2.074,7.29,5.647c0.454,3.573-2.074,6.836-5.647,7.29
						s-6.836-2.074-7.29-5.647S747.839,1048.237,751.412,1047.783z"/>
					<path style="fill:#363E44;" d="M760.263,1046.659c3.573-0.454,6.836,2.074,7.29,5.647s-2.074,6.836-5.647,7.29
						c-3.572,0.454-6.836-2.074-7.29-5.647C754.163,1050.377,756.691,1047.113,760.263,1046.659z"/>
					<path style="fill:#363E44;" d="M768.904,1046.599c3.572-0.454,6.836,2.074,7.29,5.647c0.454,3.572-2.074,6.836-5.647,7.29
						s-6.836-2.074-7.29-5.647C762.804,1050.317,765.332,1047.053,768.904,1046.599z"/>
					<path style="fill:#363E44;" d="M777.507,1048.966c3.572-0.454,6.836,2.074,7.29,5.647c0.454,3.572-2.074,6.836-5.647,7.29
						s-6.836-2.074-7.29-5.647S773.935,1049.42,777.507,1048.966z"/>
					<path style="fill:#363E44;" d="M784.841,1054.953c3.573-0.454,6.836,2.074,7.29,5.647c0.454,3.573-2.074,6.836-5.647,7.29
						s-6.836-2.074-7.29-5.647S781.268,1055.407,784.841,1054.953z"/>
					<path style="fill:#363E44;" d="M789.667,1062.989c3.572-0.454,6.836,2.074,7.29,5.647c0.454,3.572-2.074,6.836-5.647,7.29
						c-3.572,0.454-6.836-2.074-7.29-5.647C783.566,1066.706,786.094,1063.442,789.667,1062.989z"/>
					<path style="fill:#363E44;" d="M790.705,1071.159c3.572-0.454,6.836,2.074,7.29,5.647c0.454,3.572-2.074,6.836-5.647,7.29
						c-3.572,0.454-6.836-2.074-7.29-5.647C784.604,1074.877,787.132,1071.613,790.705,1071.159z"/>
					<path style="fill:#363E44;" d="M791.018,1079.076c3.572-0.454,6.836,2.074,7.29,5.647s-2.074,6.836-5.647,7.29
						c-3.573,0.454-6.836-2.074-7.29-5.647C784.918,1082.794,787.446,1079.53,791.018,1079.076z"/>
					<path style="fill:#363E44;" d="M738.497,1060.494c3.572-0.454,6.836,2.074,7.29,5.647c0.454,3.573-2.074,6.836-5.647,7.29
						c-3.572,0.454-6.836-2.074-7.29-5.647C732.396,1064.212,734.924,1060.948,738.497,1060.494z"/>
				</g>
			</g>
		</g>
		<g>
			<g>
				<g>
					<g>
						<path style="fill:#E2A18D;" d="M1194.353,1114.469c49.511,22.981-2.601,103.531-25.664,147.943
							c-20.092,38.689-74.93,172.475-110.376,150.28c-35.396-22.165-31.181-101.769-1.501-185.638
							C1123.396,1038.896,1152.307,1094.954,1194.353,1114.469z"/>
						<g>
							<path style="fill:#E2A18D;" d="M1133.801,1307.775c0,0-1.589,185.579-3.942,209.744c-0.246,2.53-0.661,6.999-2.754,12.443
								c-7.753,20.174-26.118,21.422-43.95,38.914c-20.233,19.848-20.389,42.48-27.595,41.794
								c-5.012-0.477-7.357-9.031-5.397-26.799l-0.003-0.001c-3.041,13.328-7.954,31.224-15.315,29.522
								c-8.394-2.42-5.091-24.123-2.451-37.155c-3.196,15.774-9.614,23.205-13.482,21.234c-6.088-3.104-6.458-15.913-1.426-36.596
								l-0.001-0.001c-7.464,13.311-11.259,15.427-14.253,12.851c-5.466-4.704-1.009-21.63,5.226-35.99
								c7.018-16.166,18.069-26.268,25.189-32.472c0.002-0.002,0.003-0.004,0.003-0.004c-1.444-77.952,1.192-106.792-1.032-169.732
								C1031.475,1303.145,1118.582,1245,1133.801,1307.775z"/>
							<path style="fill:#E2A18D;" d="M1095.77,1549.017c-0.584,28.039,5.147,38.276,9.594,38.227
								c7.478-0.083,17.775-23.816,23.79-64.688C1119.192,1529.094,1105.731,1542.479,1095.77,1549.017z"/>
							<path style="fill:#363E44;" d="M1095.358,1559.984c-0.708,0-1.401-0.34-1.828-0.97c-0.681-1.007-0.416-2.377,0.592-3.057
								c2.83-1.912,5.584-3.605,8.247-5.243c5.487-3.371,10.669-6.555,14.794-10.719c0.855-0.865,2.251-0.867,3.115-0.015
								c0.865,0.856,0.871,2.252,0.015,3.117c-4.497,4.539-9.899,7.858-15.617,11.371c-2.623,1.613-5.336,3.278-8.086,5.137
								C1096.211,1559.862,1095.782,1559.984,1095.358,1559.984z"/>
							<path style="fill:#363E44;" d="M1050.921,1585.769c-0.218,0-0.439-0.032-0.658-0.101c-1.161-0.361-1.808-1.598-1.446-2.758
								c1.54-4.928,3.726-9.62,6.498-13.944c1.908-2.979,4.109-5.8,6.542-8.387c0.834-0.886,2.23-0.927,3.114-0.095
								c0.886,0.835,0.929,2.229,0.096,3.115c-2.248,2.388-4.28,4.993-6.043,7.742c-2.559,3.995-4.578,8.329-6.001,12.881
								C1052.728,1585.166,1051.859,1585.769,1050.921,1585.769z"/>
							<path style="fill:#363E44;" d="M1032.814,1580.193c-0.218,0-0.439-0.032-0.658-0.101c-1.161-0.361-1.808-1.596-1.446-2.758
								c1.539-4.926,3.725-9.618,6.497-13.942c1.908-2.979,4.109-5.8,6.542-8.387c0.833-0.886,2.229-0.927,3.114-0.095
								c0.886,0.835,0.929,2.229,0.096,3.115c-2.248,2.388-4.28,4.993-6.043,7.742c-2.56,3.995-4.579,8.329-6,12.879
								C1034.621,1579.588,1033.752,1580.193,1032.814,1580.193z"/>
							<path style="fill:#363E44;" d="M1017.751,1562.747c-0.218,0-0.439-0.032-0.658-0.101c-1.16-0.361-1.808-1.596-1.446-2.758
								c1.54-4.93,3.726-9.622,6.497-13.944c1.904-2.973,4.106-5.793,6.542-8.385c0.835-0.884,2.23-0.927,3.114-0.095
								c0.886,0.835,0.929,2.229,0.096,3.115c-2.251,2.392-4.284,4.997-6.042,7.742c-2.56,3.993-4.579,8.325-6.001,12.879
								C1019.558,1562.142,1018.689,1562.747,1017.751,1562.747z"/>
						</g>
					</g>
				</g>
				<path style="fill:#776E42;" d="M1020.873,1503.939l106.232,26.023l19.724-435.076c0.331-7.294-7.128-12.389-13.802-9.427
					l-13.941,6.185c-45.156,67.754-72.426,140.012-88.593,215.067C1021.964,1375.277,1019.663,1440.54,1020.873,1503.939z"/>
				<path style="fill:#9E9569;" d="M1127.508,1477.682c-0.119,0-0.242-0.009-0.365-0.03l-105.83-17.64
					c-1.199-0.2-2.01-1.336-1.81-2.534c0.2-1.2,1.329-2.022,2.535-1.811l105.83,17.64c1.199,0.2,2.01,1.336,1.81,2.534
					C1129.499,1476.918,1128.565,1477.682,1127.508,1477.682z"/>
			</g>
			<g>
				<path style="fill:#D87355;" d="M1362.684,909.801c31.196,20.448,34.891,59.718,31.207,98.047
					c-5.672,59.028,76.498,44.872,88.742,78.374c12.245,33.504-51.794,59.182,29.613,121.524l-156.624,94.451
					c-38.177-24.58-28.589-86.254-28.589-86.254c-30.592,56.174-14.982,86.273,3.187,101.574l-21.472,12.947
					c0,0-51.905-15.789-29.498-74.589c20.26-53.168,4.016-72.108-46.886-56.597c-50.903,15.511-147.13-114.53,2.531-246.128
					l72.27-41.015C1323.271,899.563,1345.596,898.6,1362.684,909.801z"/>
				<path style="fill:#EFBC73;" d="M1448.112,1244.47c-0.156,0-0.314-0.017-0.472-0.052c-0.353-0.075-8.709-1.999-14.797-11.726
					c-7.215-11.53-8.152-28.62-2.785-50.796c12.63-52.173,15.408-74.543-43.468-104.559c-60.341-30.76-37.455-79.042-37.217-79.526
					c0.539-1.093,1.854-1.538,2.946-1.005c1.091,0.536,1.542,1.854,1.009,2.947c-0.89,1.82-21.127,44.913,35.263,73.659
					c61.59,31.399,58.294,57.699,45.751,109.52c-5.008,20.684-4.234,37.082,2.236,47.423c5.115,8.172,11.934,9.745,12.003,9.76
					c1.189,0.258,1.942,1.433,1.682,2.62C1450.038,1243.767,1449.126,1244.47,1448.112,1244.47z"/>
				<path style="fill:#EFBC73;" d="M1444.074,1075.371c-21.801,0-42.355-15.949-47.454-37.255
					c-2.731-11.406-1.206-23.155,0.269-34.52c0.389-3.007,0.78-6.01,1.091-9.001c2.217-21.34-0.146-39.991-7.024-55.432
					c-8.12-18.231-23.023-31.773-39.868-36.224c-18.616-4.92-38.951,2.28-48.359,17.123c-0.651,1.028-2.013,1.334-3.04,0.682
					c-1.028-0.652-1.333-2.013-0.682-3.04c10.41-16.424,32.786-24.422,53.206-19.025c18.123,4.789,34.11,19.253,42.768,38.689
					c7.196,16.158,9.678,35.564,7.381,57.682c-0.315,3.027-0.709,6.068-1.104,9.112c-1.424,10.967-2.896,22.308-0.353,32.928
					c4.726,19.752,25.072,34.877,45.354,33.815c1.211-0.153,2.253,0.863,2.32,2.078c0.067,1.215-0.865,2.254-2.079,2.319
					C1445.691,1075.35,1444.88,1075.371,1444.074,1075.371z"/>
			</g>
			<g>
				<path style="fill:#EFBC73;" d="M1101.33,2049.096c6.054,10.452,12.934,24.675,17.493,42.773
					c7.059,28.023,5.322,51.254,3.026,66.73c-66.003,1.399-132.006,2.798-198.009,4.198c1.207-7.739,3.288-16.534,5.881-23.538
					c24.75-66.872,108.033-88.57,126.946-93.078C1071.554,2047.113,1086.443,2048.163,1101.33,2049.096z"/>
				<path style="fill:#E2A18D;" d="M1123.621,1981.654l-13.589,70.206c-3.029,14.162-16.435,23.994-30.757,21.852
					c-0.82-0.123-1.654-0.275-2.502-0.459c-13.28-2.887-22.433-15.115-21.723-28.687l5.071-68.521L1123.621,1981.654z"/>
				<path style="fill:#EFBC73;" d="M1496.117,2019.729c0,0,34.377,63.359,29.893,130.302c-44.285,0.939-88.569,1.878-132.854,2.816
					c3.19-12.923,8.09-31.393,15.958-49.694c13.484-31.365,30.635-54.905,44.61-71.04L1496.117,2019.729z"/>
				<path style="fill:#E2A18D;" d="M1502.381,2035.214c0.45-23.294-0.577-66.23-11.904-100.562l-76.757,24.441
					c0,0,26.162,37.998,35.087,80.869c2.698,12.962,14.463,22.133,27.642,20.873c1.728-0.165,3.528-0.427,5.393-0.804
					C1493.642,2057.644,1502.148,2047.251,1502.381,2035.214z"/>
				<path style="fill:#363E44;" d="M1353.751,1342.697c0,0,149.938,224.17,161.007,661.02l-105.977,2.247
					c0,0-135.098-375.409-220.789-467.816l26.489-211.496L1353.751,1342.697z"/>
				<path style="fill:#363E44;" d="M1292.184,1583.013c0,0-129.501,222.482-156.223,428.735l-98.874,2.096
					c0,0-22.13-494.673,153.959-698.438l91.23,17.445L1292.184,1583.013z"/>
				<path style="fill:#FFFFFF;" d="M1248.766,1624.841c-0.818,0-1.602-0.456-1.983-1.239l-58.773-120.82
					c-0.531-1.095-0.076-2.411,1.017-2.945c1.099-0.529,2.413-0.073,2.945,1.017l58.773,120.82c0.531,1.095,0.076,2.411-1.017,2.945
					C1249.417,1624.77,1249.089,1624.841,1248.766,1624.841z"/>
				<path style="fill:#363E44;" d="M923.84,2165c-1.195,0-2.176-0.955-2.202-2.156c-0.026-1.218,0.94-2.224,2.156-2.25
					l198.008-4.199c1.143,0.015,2.223,0.94,2.249,2.156c0.026,1.218-0.94,2.224-2.157,2.25L923.887,2165
					C923.872,2165,923.856,2165,923.84,2165z"/>
				<path style="fill:#363E44;" d="M1393.155,2155.051c-1.195,0-2.176-0.955-2.202-2.156c-0.026-1.218,0.94-2.224,2.157-2.25
					l132.854-2.816c1.176,0.024,2.223,0.94,2.249,2.156c0.026,1.218-0.94,2.224-2.157,2.25l-132.854,2.816
					C1393.187,2155.051,1393.171,2155.051,1393.155,2155.051z"/>
				<path style="fill:#363E44;" d="M983.19,2096.224c-0.443,0-0.89-0.133-1.278-0.411l-12.628-9.018
					c-0.991-0.706-1.22-2.083-0.513-3.072c0.707-0.992,2.081-1.222,3.073-0.512l12.628,9.018c0.991,0.706,1.22,2.083,0.513,3.072
					C984.555,2095.904,983.878,2096.224,983.19,2096.224z"/>
				<path style="fill:#363E44;" d="M1006.039,2084.199c-0.413,0-0.831-0.116-1.204-0.359l-15.634-10.222
					c-1.017-0.665-1.304-2.031-0.638-3.048c0.667-1.017,2.03-1.303,3.049-0.639l15.634,10.223c1.018,0.665,1.304,2.031,0.638,3.048
					C1007.462,2083.848,1006.758,2084.199,1006.039,2084.199z"/>
				<path style="fill:#363E44;" d="M1472.485,2103.869h-22.028c-1.217,0-2.203-0.985-2.203-2.203c0-1.218,0.986-2.203,2.203-2.203
					h22.028c1.217,0,2.203,0.985,2.203,2.203C1474.688,2102.884,1473.702,2103.869,1472.485,2103.869z"/>
				<path style="fill:#363E44;" d="M1473.859,2086.004c-0.018,0-0.036,0-0.054,0l-25.254-0.602c-1.216-0.03-2.178-1.039-2.149-2.254
					c0.028-1.198,1.009-2.151,2.201-2.151c0.018,0,0.036,0,0.054,0l25.254,0.602c1.216,0.03,2.178,1.039,2.149,2.254
					C1476.032,2085.051,1475.051,2086.004,1473.859,2086.004z"/>
				<path style="fill:#40484C;" d="M1421.945,1732.695l-38.291-109.877l69.464-23.155c1.161-0.389,2.402,0.239,2.787,1.392
					c0.385,1.155-0.239,2.403-1.393,2.786l-65.229,21.744l35.469,101.78l50.932-13.89c1.177-0.329,2.384,0.37,2.705,1.547
					c0.319,1.172-0.372,2.383-1.546,2.704L1421.945,1732.695z"/>
				<path style="fill:#40484C;" d="M1405.709,1650.455c-0.963,0-1.846-0.635-2.12-1.607c-0.329-1.17,0.354-2.388,1.525-2.717
					l51.311-14.43c1.171-0.333,2.387,0.355,2.717,1.525c0.329,1.17-0.354,2.388-1.525,2.717l-51.311,14.43
					C1406.107,1650.429,1405.906,1650.455,1405.709,1650.455z"/>
				<path style="fill:#40484C;" d="M1101.049,1509.35c-0.632,0-1.26-0.271-1.696-0.796c-0.776-0.936-0.647-2.325,0.288-3.102
					l84.985-70.553c0.936-0.779,2.325-0.647,3.102,0.288c0.777,0.936,0.648,2.325-0.288,3.102l-84.985,70.553
					C1102.044,1509.184,1101.545,1509.35,1101.049,1509.35z"/>
			</g>
			<g>
				<g>
					<path style="fill:#E6D0BE;" d="M1423.463,1440.877l-304.196-38.117l5.75-315.829c0,0,69.425-14.049,148.008,2.453
						c81.773,17.172,141.362,38.209,192.166,87.088l-60.455,135.317L1423.463,1440.877z"/>
					<g>
						<polygon style="fill:#FFFFFF;" points="1120.507,1334.626 1412.263,1363.679 1406.913,1326.809 1121.167,1298.355 						"/>
						<polygon style="fill:#D87355;" points="1121.167,1298.355 1406.913,1326.809 1404.735,1311.789 1414.225,1290.546 
							1121.84,1261.43 						"/>
						<polygon style="fill:#FFFFFF;" points="1121.84,1261.43 1414.225,1290.546 1429.559,1256.226 1122.491,1225.648 						"/>
						<polygon style="fill:#D87355;" points="1119.802,1373.304 1417.967,1402.996 1412.263,1363.679 1120.507,1334.626 						"/>
						<polygon style="fill:#FFFFFF;" points="1119.267,1402.76 1423.462,1440.877 1417.967,1402.996 1119.802,1373.304 						"/>
						<path style="fill:#FFFFFF;" d="M1353.161,1112.705c-0.073,0-0.146-0.004-0.22-0.011l-228.158-22.719
							c-1.141-0.114-2.005-1.084-1.984-2.231l0.015-0.852c0.018-1.033,0.753-1.915,1.766-2.121
							c0.699-0.14,70.776-13.953,148.899,2.457c32.417,6.806,57.961,13.54,80.391,21.189c1.059,0.361,1.679,1.458,1.441,2.551
							C1355.089,1111.991,1354.186,1112.705,1353.161,1112.705z M1139.095,1086.973l193.185,19.238
							c-17.33-5.085-36.787-9.857-59.708-14.671l0,0C1215.657,1079.588,1163.078,1083.851,1139.095,1086.973z"/>
						<path style="fill:#D87355;" d="M1123.759,1156.001l335.644,33.424l5.788-12.954c-10.225-9.837-20.814-18.53-31.86-26.307
							l-308.906-30.761L1123.759,1156.001z"/>
						<polygon style="fill:#D87355;" points="1122.491,1225.648 1429.559,1256.226 1445.032,1221.593 1123.149,1189.539 						"/>
						<polygon style="fill:#FFFFFF;" points="1123.149,1189.539 1445.032,1221.593 1459.403,1189.425 1123.759,1156.001 						"/>
					</g>
				</g>
				<path style="fill:#B77250;" d="M1324.896,1114.247c-0.551,25.519-17.506,39.1-39.1,39.1s-39.1-17.506-39.1-39.1
					s17.506-39.1,39.1-39.1S1325.362,1092.658,1324.896,1114.247z"/>
				<path style="fill:#776E42;" d="M1274.225,1455.434c7.805-4.16,50.748-361.638,47.503-371.006
					c62.986,21.338,129.511,62.347,147.32,93.203l-60.227,129.027l14.528,158.398L1274.225,1455.434z"/>
				<path style="fill:#776E42;" d="M1198.059,1450.223c10.998-151.783,17.149-319.676,58.126-371.808
					c-39.678-0.524-122.173,1.073-137.098,13.229l-6.815,346.553L1198.059,1450.223z"/>
				<path style="fill:#776E42;" d="M1235.14,1122.912c-6.626-28.123-21.337-49.584-49.307-60.131l70.954-18.641l125.673,31.869
					c-23.977,1.266-47.683,44.436-65.824,73.485l2.687-65.067l-57.725-4.209L1235.14,1122.912z"/>
				<path style="fill:#363E44;" d="M1321.725,1135.336c-0.368,0-0.74-0.093-1.083-0.286c-1.058-0.598-1.431-1.943-0.832-3.001
					l0.922-1.633c14.063-24.874,28.606-50.596,61.332-56.572c1.199-0.224,2.344,0.574,2.563,1.771
					c0.218,1.196-0.574,2.345-1.771,2.562c-30.698,5.606-44.1,29.312-58.288,54.408l-0.924,1.633
					C1323.24,1134.934,1322.493,1135.336,1321.725,1135.336z"/>
				<path style="fill:#363E44;" d="M1235.136,1125.116c-1.09,0-2.036-0.807-2.181-1.917c-3.859-29.51-19.508-48.591-47.839-58.336
					c-1.151-0.396-1.763-1.648-1.367-2.799c0.396-1.151,1.645-1.766,2.8-1.366c30.068,10.341,46.678,30.596,50.776,61.929
					c0.157,1.207-0.693,2.313-1.898,2.47C1235.329,1125.109,1235.232,1125.116,1235.136,1125.116z"/>
				<path style="fill:#363E44;" d="M1104.656,1437.192c-0.027,0-0.054,0-0.081-0.002c-1.216-0.043-2.165-1.065-2.122-2.28
					c0.06-1.659,5.988-165.844,6.013-168.295c0.013-1.209,0.996-2.188,2.203-2.188c0.003,0,0.008,0,0.011,0
					c1.212,0.006,2.192,0.985,2.192,2.196c0,1.824-5.77,161.643-6.015,168.445
					C1106.814,1436.258,1105.837,1437.192,1104.656,1437.192z"/>
				<g>
					<path style="fill:#EFBC73;" d="M1340.368,1151.173c0,2.989-2.423,5.412-5.412,5.412s-5.412-2.423-5.412-5.412
						c0-2.989,2.423-5.412,5.412-5.412S1340.368,1148.184,1340.368,1151.173z"/>
					<path style="fill:#EFBC73;" d="M1317.519,1341.787c0,2.989-2.423,5.412-5.412,5.412c-2.989,0-5.412-2.423-5.412-5.412
						c0-2.989,2.423-5.412,5.412-5.412C1315.096,1336.376,1317.519,1338.799,1317.519,1341.787z"/>
					<path style="fill:#EFBC73;" d="M1311.505,1384.48c0,2.989-2.423,5.412-5.412,5.412c-2.989,0-5.412-2.423-5.412-5.412
						c0-2.989,2.423-5.412,5.412-5.412C1309.083,1379.068,1311.505,1381.491,1311.505,1384.48z"/>
					<path style="fill:#EFBC73;" d="M1334.956,1197.474c0,2.989-2.423,5.412-5.412,5.412c-2.989,0-5.412-2.423-5.412-5.412
						s2.423-5.412,5.412-5.412C1332.533,1192.062,1334.956,1194.485,1334.956,1197.474z"/>
					<path style="fill:#EFBC73;" d="M1323.532,1296.088c0,2.989-2.423,5.412-5.412,5.412c-2.989,0-5.412-2.423-5.412-5.412
						c0-2.989,2.423-5.412,5.412-5.412C1321.109,1290.676,1323.532,1293.099,1323.532,1296.088z"/>
					<path style="fill:#EFBC73;" d="M1330.146,1247.382c0,2.989-2.423,5.412-5.412,5.412c-2.989,0-5.412-2.423-5.412-5.412
						c0-2.989,2.423-5.412,5.412-5.412C1327.723,1241.97,1330.146,1244.393,1330.146,1247.382z"/>
				</g>
				<g>
					<path style="fill:#E2A18D;" d="M1317.503,1458.853c9.48-3.617,18.175,1.727,18.586-0.619c0.308-1.76-4.931-4.773-10.026-5.569
						c-8.406-1.314-21.192,9.815-25.286,2.942c-4.01-6.733,5.562-20.325,17.665-26.073c10.203-4.846,20.053,2.338,20.576-0.574
						c0.368-2.049-3.783-5.254-13.279-10.354c-7.925-4.257-25.388-7.219-23.3-18.99c1.756-9.9,20.12-8.973,36.931-3.929
						c11.139,3.342,22.118,8.471,28.542,11.082c-1.111-4.537-3.044-11.42-6.321-19.184c-5.846-13.849-9.293-17.796-6.553-23.986
						c2.823-6.378,11.329-0.748,19.425,8.777c9.657,11.362,13.179,24.621,16.252,31.521c21.679-11.474,68.184-34.429,89.863-45.903
						c-1.422-1.361-52.515-34.086-71.757-51.335c-4.326-3.878-6.876-9.393-6.938-15.202c-0.726-68.052,52.77-124.662,61.53-109.58
						c19.408,24.237,135.556,162.781,128.758,202.026c-7.433,42.909-152.604,118.785-195.814,131.263
						c-5.382,4.239-13.92,9.477-24.245,8.882c-11.77-0.679-14.589-8.287-26.927-11.593c-20.823-5.58-33.443,11.345-37.352,2.738
						c-2.683-5.908,4.351-16.196,12.59-23.345c8.458-7.34,16.236-7.318,16.118-9.524c-0.13-2.419-8.033-1.072-17.975-0.605
						c-4.619,0.217-17.029,11.272-21.583,3.924C1293.351,1479.783,1304.104,1463.966,1317.503,1458.853z"/>
					<path style="fill:#776E42;" d="M1469.048,1177.631l125.504,169.157c9.221,12.429,11.161,28.796,5.182,43.071
						c-22.238,53.088-80.818,89.109-153.535,118.49l-46.902-119.059l50.51-36.078l-55.32-44.497
						C1394.803,1223.542,1414.685,1171.443,1469.048,1177.631z"/>
					<path style="fill:#363E44;" d="M1444.996,1357.819c-0.661,0-1.315-0.297-1.749-0.863c-0.74-0.966-0.558-2.349,0.408-3.089
						l36.079-27.66c0.966-0.738,2.347-0.557,3.088,0.409c0.74,0.966,0.558,2.349-0.408,3.089l-36.079,27.66
						C1445.935,1357.671,1445.464,1357.819,1444.996,1357.819z"/>
				</g>
				<path style="fill:#363E44;" d="M1412.523,1359.024c-1.149,0-2.117-0.891-2.195-2.054l-4.81-70.955
					c-0.083-1.213,0.835-2.263,2.048-2.347c1.254-0.034,2.265,0.837,2.347,2.05l4.81,70.955c0.083,1.213-0.835,2.263-2.048,2.347
					C1412.623,1359.022,1412.572,1359.024,1412.523,1359.024z"/>
				<path style="fill:#9E9569;" d="M1498.314,1480.087c-0.796,0-1.565-0.432-1.957-1.187l-58.528-112.645
					c-0.561-1.08-0.141-2.409,0.939-2.971c1.079-0.557,2.41-0.14,2.97,0.94l58.528,112.645c0.561,1.08,0.141,2.409-0.939,2.971
					C1499.003,1480.007,1498.656,1480.087,1498.314,1480.087z"/>
				<path style="fill:#EFBC73;" d="M1477.466,1485.7c0,2.989-2.423,5.412-5.412,5.412c-2.989,0-5.412-2.423-5.412-5.412
					c0-2.989,2.423-5.412,5.412-5.412C1475.043,1480.288,1477.466,1482.711,1477.466,1485.7z"/>
				<path style="fill:#9E9569;" d="M1190.795,1251.184h-51.036c-1.21,0-2.194-0.977-2.203-2.188l-0.296-40.948
					c-0.009-1.215,0.97-2.209,2.187-2.218c0.005,0,0.011,0,0.016,0c1.209,0,2.194,0.977,2.203,2.188l0.28,38.76h46.646v-37.855
					c0-1.218,0.986-2.203,2.203-2.203s2.203,0.985,2.203,2.203v40.057C1192.998,1250.199,1192.011,1251.184,1190.795,1251.184z"/>
				<path style="fill:#9E9569;" d="M1164.388,1214.094c-0.116,0-0.232-0.009-0.349-0.028l-29.672-4.748
					c-1.068-0.17-1.854-1.093-1.854-2.175v-23.145c0-1.218,0.986-2.203,2.203-2.203h60.531c1.217,0,2.203,0.985,2.203,2.203v23.145
					c0,1.086-0.793,2.011-1.868,2.177l-30.859,4.748C1164.611,1214.085,1164.5,1214.094,1164.388,1214.094z M1136.918,1205.265
					l27.476,4.395l28.65-4.408v-19.051h-56.126V1205.265z M1195.247,1207.143h0.021H1195.247z"/>
				<path style="fill:#9E9569;" d="M1394.117,1268.665c-0.091,0-0.182-0.006-0.273-0.017l-51.826-6.484
					c-1.201-0.151-2.057-1.241-1.915-2.444l4.9-41.619c0.142-1.209,1.238-2.078,2.445-1.93c1.209,0.142,2.073,1.237,1.931,2.446
					l-4.644,39.446l47.469,5.94l4.815-38.491c0.151-1.209,1.253-2.059,2.459-1.912c1.208,0.151,2.064,1.252,1.912,2.459
					l-5.089,40.677c-0.072,0.581-0.372,1.108-0.833,1.465C1395.081,1268.504,1394.604,1268.665,1394.117,1268.665z"/>
				<path style="fill:#9E9569;" d="M1372.013,1227.646c-0.208,0-0.415-0.03-0.615-0.088l-29.528-8.59
					c-1.039-0.301-1.705-1.314-1.57-2.388l2.94-23.502c0.151-1.209,1.25-2.061,2.459-1.912l61.468,7.688
					c0.58,0.073,1.107,0.372,1.466,0.833c0.358,0.463,0.52,1.048,0.446,1.626l-2.94,23.502c-0.135,1.08-1.037,1.897-2.123,1.93
					l-31.94,0.901C1372.055,1227.646,1372.033,1227.646,1372.013,1227.646z M1403.953,1224.542h0.021H1403.953z M1344.903,1215.264
					l27.392,7.968l29.706-0.839l2.432-19.44l-57.097-7.142L1344.903,1215.264z"/>
			</g>
			<g>
				<path style="fill:#E2A18D;" d="M1282.246,1140.626l5.573,0.291c16.859,0.88,31.24-12.075,32.119-28.934l4.419-84.763
					c0.623-11.955-8.562-22.152-20.516-22.776l-22.929-1.198c-11.957-0.625-22.156,8.562-22.779,20.519l-4.44,85.166
					C1252.825,1125.567,1265.609,1139.758,1282.246,1140.626z"/>
				<g>
					
						<ellipse transform="matrix(0.7071 -0.7071 0.7071 0.7071 -303.9685 1196.5352)" style="fill:#D87355;" cx="1292.361" cy="965.19" rx="79.38" ry="79.38"/>
					<path style="fill:#E2A18D;" d="M1226.821,994.049c0,42.284,29.286,86.888,65.413,86.888s65.413-44.604,65.413-86.888
						s-29.286-76.563-65.413-76.563S1226.821,951.765,1226.821,994.049z"/>
					<path style="fill:#363E44;" d="M1292.234,1083.139c-14.588,0-28.71-6.824-40.837-19.731c-0.833-0.886-0.79-2.28,0.098-3.113
						c0.885-0.833,2.28-0.792,3.114,0.097c11.273,11.999,24.284,18.341,37.626,18.341c12.262,0,24.38-5.438,35.043-15.725
						c0.875-0.845,2.271-0.817,3.115,0.056c0.844,0.875,0.82,2.269-0.056,3.115
						C1318.836,1077.275,1305.66,1083.139,1292.234,1083.139z"/>
					<path style="fill:#E2A18D;" d="M1345.849,992.548c-5.908,12.948-3.632,26.667,5.083,30.643
						c8.715,3.976,20.568-3.296,26.476-16.244c5.908-12.948,3.632-26.667-5.083-30.643
						C1363.611,972.328,1351.757,979.601,1345.849,992.548z"/>
					<path style="fill:#363E44;" d="M1365.952,1012.04c-0.623,0-1.241-0.262-1.677-0.772c-0.789-0.927-0.68-2.317,0.246-3.106
						c1.723-1.469,3.19-3.468,4.245-5.778c1.368-2.999,1.875-6.144,1.425-8.852c-0.397-2.392-1.495-4.111-3.091-4.838
						c-1.48-0.68-3.037-0.348-4.084,0.045c-1.136,0.422-2.407-0.148-2.836-1.289c-0.427-1.14,0.151-2.409,1.29-2.837
						c2.623-0.983,5.201-0.96,7.46,0.073c2.972,1.355,4.964,4.24,5.608,8.123c0.592,3.567-0.036,7.615-1.764,11.404
						c-1.32,2.893-3.185,5.417-5.394,7.301C1366.965,1011.868,1366.457,1012.04,1365.952,1012.04z"/>
					<path style="fill:#363E44;" d="M1353.241,1023.932c-0.229,0-0.463-0.036-0.693-0.112c-1.155-0.383-1.781-1.629-1.398-2.784
						c2.849-8.598,4.294-17.678,4.294-26.987c0-4.621-0.364-9.25-1.081-13.757c-0.19-1.203,0.628-2.33,1.83-2.521
						c1.21-0.189,2.331,0.628,2.522,1.828c0.753,4.737,1.135,9.596,1.135,14.45c0,9.781-1.52,19.326-4.518,28.372
						C1355.026,1023.347,1354.165,1023.932,1353.241,1023.932z"/>
					<path style="fill:#E2A18D;" d="M1239.321,992.548c5.908,12.948,3.632,26.667-5.083,30.643
						c-8.715,3.976-20.568-3.296-26.476-16.244c-5.907-12.948-3.632-26.667,5.083-30.643
						C1221.559,972.328,1233.413,979.601,1239.321,992.548z"/>
					<path style="fill:#363E44;" d="M1219.219,1012.04c-0.505,0-1.013-0.172-1.428-0.527c-2.209-1.885-4.074-4.408-5.394-7.301
						c-1.729-3.788-2.356-7.837-1.764-11.404c0.644-3.883,2.636-6.768,5.609-8.125c2.257-1.028,4.836-1.054,7.459-0.071
						c1.139,0.428,1.717,1.697,1.29,2.837c-0.429,1.14-1.698,1.71-2.836,1.289c-1.049-0.394-2.609-0.723-4.083-0.047
						c-1.597,0.729-2.696,2.448-3.092,4.84c-0.45,2.708,0.057,5.853,1.425,8.852c1.055,2.31,2.522,4.309,4.245,5.778
						c0.926,0.789,1.036,2.179,0.246,3.106C1220.46,1011.778,1219.841,1012.04,1219.219,1012.04z"/>
					<path style="fill:#363E44;" d="M1231.929,1023.932c-0.924,0-1.784-0.585-2.091-1.51c-2.998-9.046-4.517-18.591-4.517-28.372
						c0-4.86,0.382-9.721,1.135-14.45c0.192-1.203,1.333-2.024,2.522-1.828c1.202,0.191,2.02,1.321,1.83,2.521
						c-0.717,4.5-1.081,9.13-1.081,13.757c0,9.308,1.445,18.388,4.294,26.987c0.383,1.155-0.243,2.401-1.398,2.784
						C1232.391,1023.895,1232.158,1023.932,1231.929,1023.932z"/>
					<path style="fill:#363E44;" d="M1290.928,1032.606c-0.404,0-0.813-0.112-1.18-0.344c-2.875-1.826-4.643-4.059-5.255-6.634
						c-0.681-2.863,0.294-5.075,1.325-7.415c0.681-1.544,1.385-3.143,1.795-5.245c0.52-2.667,0.415-5.516-0.309-8.469
						c-0.289-1.181,0.433-2.375,1.615-2.665c1.181-0.29,2.375,0.435,2.664,1.615c0.878,3.578,0.997,7.062,0.354,10.362
						c-0.504,2.586-1.382,4.578-2.088,6.178c-0.926,2.1-1.394,3.259-1.07,4.619c0.338,1.422,1.458,2.745,3.333,3.937
						c1.026,0.652,1.329,2.014,0.677,3.04C1292.369,1032.244,1291.656,1032.606,1290.928,1032.606z"/>
					<path style="fill:#363E44;" d="M1299.749,1046.95c-1.702,0-3.443-0.43-5.033-1.327c-1.06-0.598-1.433-1.943-0.836-3.001
						c0.6-1.06,1.94-1.437,3.002-0.837c2.385,1.351,5.454,0.835,6.837-1.147c1.017-1.461,1.01-3.554-0.019-5.333
						c-0.61-1.052-0.251-2.401,0.802-3.01c1.054-0.615,2.401-0.25,3.01,0.802c1.883,3.253,1.813,7.2-0.177,10.059
						C1305.619,1045.618,1302.744,1046.95,1299.749,1046.95z"/>
					<g>
						<g>
							<path style="fill:#FFFFFF;" d="M1245.187,983.042l0,0.004l0.169-0.018c0.09,0.353,0.326,0.803,0.699,0.791
								c0.446,0.529,0.65,1.385,0.951,1.949c0.54,1.015,2.08,0.113,1.54-0.901c-0.363-0.682,2.058,0.624,3.119,1.032
								c3.384,1.301,6.815,2.45,10.288,3.492c1.619,0.486,3.241,0.985,4.877,1.414c1.311,0.344,5.642,1.709,5.985,1.506
								c4.414,4.042,6.852,7.862,6.852,7.862s-6.333,2.811-14.515,3.246c-0.023-0.11-0.049-0.218-0.068-0.33
								c-0.19-1.098-19.062-5.55-19.571-4.713c-7.987-5.088-12.586-12.268-12.586-12.268S1238.126,983.8,1245.187,983.042z"/>
							<path style="fill:#363E44;" d="M1259.009,984.132c5.667,1.705,10.338,5.005,13.798,8.171
								c-0.429,3.536-2.112,6.931-5.025,9.438c-0.75,0.645-1.548,1.198-2.378,1.668c-3.689,0.219-7.765-0.039-11.817-1.258
								c-2.93-0.881-5.578-2.199-7.946-3.695c-3.018-4.733-3.052-10.708-0.284-15.428
								C1249.502,982.599,1254.271,982.706,1259.009,984.132z"/>
						</g>
						<g>
							<path style="fill:#FFFFFF;" d="M1337.695,984.32l0,0.004l-0.169-0.018c-0.09,0.353-0.326,0.803-0.699,0.791
								c-0.446,0.529-0.65,1.385-0.95,1.949c-0.54,1.015-2.079,0.113-1.54-0.9c0.363-0.682-2.058,0.624-3.119,1.032
								c-3.385,1.301-6.815,2.449-10.288,3.492c-1.62,0.486-3.241,0.985-4.877,1.415c-1.311,0.344-5.642,1.709-5.985,1.506
								c-4.414,4.042-6.852,7.862-6.852,7.862s6.333,2.811,14.515,3.246c0.023-0.11,0.049-0.218,0.068-0.329
								c0.19-1.098,19.062-5.55,19.571-4.713c7.987-5.088,12.586-12.268,12.586-12.268S1344.756,985.078,1337.695,984.32z"/>
							<path style="fill:#363E44;" d="M1323.873,985.41c-5.667,1.705-10.338,5.005-13.798,8.171c0.43,3.537,2.112,6.932,5.025,9.438
								c0.75,0.645,1.548,1.198,2.378,1.668c3.688,0.219,7.765-0.039,11.817-1.258c2.93-0.881,5.578-2.2,7.946-3.695
								c3.018-4.733,3.052-10.708,0.284-15.428C1333.379,983.877,1328.611,983.984,1323.873,985.41z"/>
						</g>
					</g>
					<path style="fill:#D87355;" d="M1357.647,950.66c0,0-8.139-26.919-39.802-7.976c-31.663,18.943-119.104,29.91-130.219-36.889
						c-11.115-66.799,43.902-64.443,64.389-40.961c20.487,23.481,29.299,54.473,65.83,52.653
						C1354.376,915.666,1357.647,950.66,1357.647,950.66z"/>
					<path style="fill:#EFBC73;" d="M1250.792,958.955c-7.014,0-13.726-0.789-20.12-2.371c-21.211-5.249-43.551-23.257-45.208-47.52
						c-0.083-1.213,0.834-2.265,2.047-2.349c1.227-0.03,2.265,0.835,2.348,2.048c1.515,22.159,22.211,38.678,41.872,43.544
						c18.967,4.69,41.045,2.011,65.61-7.968c1.13-0.458,2.411,0.086,2.87,1.213c0.458,1.127-0.084,2.411-1.211,2.87
						C1281.732,955.436,1265.594,958.955,1250.792,958.955z"/>
				</g>
			</g>
		</g>
	</g>
</g>
</svg>
