<?xml version="1.0" encoding="utf-8"?>
<!-- Generator: Adobe Illustrator 27.5.0, SVG Export Plug-In . SVG Version: 6.00 Build 0)  -->
<svg version="1.1" xmlns="http://www.w3.org/2000/svg" xmlns:xlink="http://www.w3.org/1999/xlink" x="0px" y="0px"
	 viewBox="0 0 2500 2500" style="enable-background:new 0 0 2500 2500;" xml:space="preserve">
-
<g id="Illustration">
	<g id="Backup_server_1_">
		<circle style="fill:transparent;" cx="1250" cy="1250" r="915"/>
		<g>
			<g>
				
					<rect x="1055.083" y="956.607" transform="matrix(-1 -1.224647e-16 1.224647e-16 -1 3196.0674 2683.2388)" style="fill:#D3BBA3;" width="1085.901" height="770.024"/>
				
					<rect x="1280.092" y="799.737" transform="matrix(-1.836970e-16 1 -1 -1.836970e-16 2906.6521 -289.4153)" style="fill:#FFFFFF;" width="635.883" height="1017.763"/>
				<path style="fill:#D3BBA3;" d="M1483.727,1742.946h32.149c0,24.116,19.55,43.666,43.666,43.666h76.983
					c24.116,0,43.666-19.55,43.666-43.666h32.148l32.149,170.848v14.288h-292.909v-14.288L1483.727,1742.946z"/>
				<path style="fill:#D3BBA3;" d="M1744.489,1948.147h-292.909c-1.219,0-2.205-0.987-2.205-2.205c0-1.218,0.986-2.205,2.205-2.205
					h292.909c1.219,0,2.205,0.987,2.205,2.205C1746.694,1947.16,1745.708,1948.147,1744.489,1948.147z"/>
				<g>
					<rect x="1114.397" y="1023.995" style="fill:#F7F1EB;" width="706.533" height="331.187"/>
					<rect x="1114.397" y="1383.28" style="fill:#F7F1EB;" width="706.533" height="226.813"/>
					<rect x="1844.013" y="1021.984" style="fill:#F7F1EB;" width="239.86" height="587.105"/>
					<g>
						<path style="fill:#D3BBA3;" d="M1359.175,1430.832h-191.18c-1.218,0-2.205-0.987-2.205-2.205c0-1.218,0.987-2.205,2.205-2.205
							h191.18c1.219,0,2.205,0.987,2.205,2.205C1361.38,1429.845,1360.394,1430.832,1359.175,1430.832z"/>
						<path style="fill:#D3BBA3;" d="M1453.683,1430.832h-59.175c-1.219,0-2.205-0.987-2.205-2.205c0-1.218,0.986-2.205,2.205-2.205
							h59.175c1.219,0,2.205,0.987,2.205,2.205C1455.888,1429.845,1454.902,1430.832,1453.683,1430.832z"/>
						<path style="fill:#D3BBA3;" d="M1359.175,1507.466h-191.18c-1.218,0-2.205-0.987-2.205-2.205c0-1.218,0.987-2.205,2.205-2.205
							h191.18c1.219,0,2.205,0.987,2.205,2.205C1361.38,1506.479,1360.394,1507.466,1359.175,1507.466z"/>
						<path style="fill:#D3BBA3;" d="M1476.386,1507.466h-81.878c-1.219,0-2.205-0.987-2.205-2.205c0-1.218,0.986-2.205,2.205-2.205
							h81.878c1.219,0,2.205,0.987,2.205,2.205C1478.591,1506.479,1477.604,1507.466,1476.386,1507.466z"/>
						<path style="fill:#D3BBA3;" d="M1269.217,1468.063h-101.221c-1.218,0-2.205-0.987-2.205-2.205
							c0-1.218,0.987-2.205,2.205-2.205h101.221c1.219,0,2.205,0.987,2.205,2.205
							C1271.422,1467.075,1270.436,1468.063,1269.217,1468.063z"/>
						<path style="fill:#D3BBA3;" d="M1417.491,1468.063h-112.939c-1.219,0-2.205-0.987-2.205-2.205
							c0-1.218,0.986-2.205,2.205-2.205h112.939c1.219,0,2.205,0.987,2.205,2.205
							C1419.696,1467.075,1418.71,1468.063,1417.491,1468.063z"/>
					</g>
				</g>
				<g>
					<g>
						<path style="fill:#ff6900;" d="M1463.226,1269.879c-21.191,0-40.8-9.615-53.803-26.381c-0.747-0.962-0.571-2.347,0.39-3.094
							c0.965-0.748,2.347-0.57,3.094,0.391c12.161,15.68,30.501,24.673,50.319,24.673c35.09,0,63.636-28.547,63.636-63.637
							c0-5.019-0.586-10.016-1.742-14.855c-0.282-1.185,0.448-2.374,1.632-2.657c1.186-0.279,2.375,0.448,2.657,1.632
							c1.236,5.173,1.862,10.516,1.862,15.88C1531.272,1239.354,1500.746,1269.879,1463.226,1269.879z"/>
						<path style="fill:#ff6900;" d="M1398.371,1215.482c-1.051,0-1.983-0.754-2.17-1.825c-0.678-3.881-1.023-7.859-1.023-11.824
							c0-37.521,30.525-68.047,68.048-68.047c20.931,0,40.393,9.427,53.396,25.862c0.756,0.955,0.594,2.342-0.362,3.097
							c-0.956,0.758-2.34,0.592-3.096-0.361c-12.161-15.372-30.364-24.188-49.938-24.188c-35.09,0-63.638,28.548-63.638,63.638
							c0,3.71,0.323,7.433,0.958,11.064c0.209,1.199-0.592,2.342-1.794,2.552C1398.625,1215.47,1398.496,1215.482,1398.371,1215.482
							z"/>
						<path style="fill:#ff6900;" d="M1462.901,1257.091c-11.565,0-22.63-3.552-31.996-10.273c-0.988-0.71-1.217-2.087-0.506-3.077
							c0.71-0.99,2.086-1.216,3.077-0.506c8.613,6.179,18.788,9.446,29.425,9.446c27.864,0,50.534-22.669,50.534-50.533
							c0-3.863-0.439-7.717-1.305-11.453c-0.274-1.186,0.465-2.371,1.651-2.645c1.191-0.272,2.371,0.464,2.646,1.65
							c0.939,4.061,1.417,8.249,1.417,12.447C1517.845,1232.444,1493.198,1257.091,1462.901,1257.091z"/>
						<path style="fill:#ff6900;" d="M1410.864,1212.978c-1.062,0-1.996-0.768-2.172-1.848c-0.487-2.954-0.732-5.976-0.732-8.981
							c0-30.295,24.647-54.942,54.942-54.942c13.106,0,25.799,4.691,35.736,13.208c0.926,0.792,1.034,2.184,0.241,3.109
							c-0.794,0.926-2.185,1.031-3.109,0.24c-9.14-7.833-20.812-12.146-32.868-12.146c-27.864,0-50.532,22.669-50.532,50.533
							c0,2.767,0.226,5.548,0.672,8.266c0.198,1.202-0.616,2.336-1.817,2.533
							C1411.103,1212.968,1410.982,1212.978,1410.864,1212.978z"/>
						<path style="fill:#ff6900;" d="M1411.126,1232.164c-0.459,0-0.915-0.144-1.296-0.421l-20.143-14.63
							c-0.693-0.504-1.031-1.365-0.868-2.206c0.164-0.842,0.803-1.512,1.634-1.718l7.411-1.831c1.18-0.293,2.377,0.427,2.67,1.611
							c0.293,1.183-0.428,2.378-1.611,2.669l-2.808,0.694l13.804,10.027l4.276-13.985l-2.411,0.688
							c-1.171,0.333-2.39-0.344-2.726-1.516c-0.334-1.171,0.344-2.391,1.516-2.725l6.311-1.8c0.779-0.222,1.613-0.001,2.179,0.576
							c0.566,0.577,0.771,1.417,0.534,2.189l-6.365,20.817c-0.207,0.681-0.732,1.22-1.408,1.446
							C1411.598,1232.126,1411.361,1232.164,1411.126,1232.164z"/>
						<path style="fill:#ff6900;" d="M1507.249,1194.373c-0.553,0-1.094-0.208-1.509-0.598c-0.573-0.538-0.816-1.341-0.637-2.108
							l5.198-22.298c0.166-0.713,0.674-1.297,1.359-1.558c0.678-0.262,1.449-0.169,2.052,0.252l20.705,14.483
							c0.676,0.472,1.031,1.282,0.922,2.099c-0.11,0.817-0.665,1.505-1.441,1.783l-5.887,2.112c-1.148,0.41-2.409-0.184-2.821-1.331
							c-0.411-1.146,0.185-2.408,1.331-2.82l1.875-0.673l-14.54-10.172l-3.594,15.415l3.361-1.012
							c1.171-0.355,2.394,0.312,2.747,1.476c0.351,1.166-0.31,2.395-1.477,2.746l-7.009,2.109
							C1507.675,1194.343,1507.462,1194.373,1507.249,1194.373z"/>
					</g>
				</g>
				<g>
					<g>
						<path style="fill:#ff6900;" d="M1965.1,1376.666c-21.191,0-40.8-9.615-53.803-26.381c-0.747-0.962-0.571-2.347,0.39-3.094
							c0.967-0.747,2.349-0.57,3.094,0.391c12.161,15.68,30.501,24.673,50.319,24.673c35.09,0,63.638-28.547,63.638-63.637
							c0-5.018-0.586-10.016-1.742-14.854c-0.282-1.185,0.448-2.374,1.632-2.657c1.188-0.279,2.375,0.448,2.657,1.632
							c1.236,5.173,1.862,10.516,1.862,15.879C2033.148,1346.14,2002.623,1376.666,1965.1,1376.666z"/>
						<path style="fill:#ff6900;" d="M1900.247,1322.269c-1.051,0-1.983-0.755-2.17-1.825c-0.678-3.882-1.023-7.86-1.023-11.824
							c0-37.521,30.525-68.047,68.046-68.047c20.933,0,40.395,9.426,53.398,25.862c0.756,0.955,0.594,2.342-0.362,3.097
							c-0.956,0.758-2.343,0.593-3.096-0.361c-12.161-15.372-30.364-24.188-49.94-24.188c-35.09,0-63.636,28.548-63.636,63.638
							c0,3.71,0.323,7.433,0.958,11.064c0.209,1.199-0.592,2.342-1.794,2.552
							C1900.501,1322.257,1900.372,1322.269,1900.247,1322.269z"/>
						<path style="fill:#ff6900;" d="M1964.777,1363.877c-11.564,0-22.63-3.552-31.996-10.273c-0.988-0.71-1.216-2.088-0.506-3.077
							c0.708-0.99,2.084-1.217,3.077-0.506c8.613,6.18,18.788,9.446,29.425,9.446c27.864,0,50.532-22.669,50.532-50.533
							c0-3.87-0.437-7.723-1.303-11.453c-0.273-1.186,0.465-2.371,1.651-2.645c1.186-0.272,2.371,0.463,2.646,1.65
							c0.939,4.056,1.415,8.243,1.415,12.447C2019.719,1339.23,1995.072,1363.877,1964.777,1363.877z"/>
						<path style="fill:#ff6900;" d="M1912.74,1319.764c-1.059,0-1.996-0.766-2.172-1.846c-0.487-2.942-0.732-5.964-0.732-8.983
							c0-30.295,24.647-54.942,54.942-54.942c13.106,0,25.799,4.691,35.736,13.208c0.926,0.792,1.033,2.184,0.241,3.109
							c-0.792,0.926-2.186,1.031-3.109,0.24c-9.14-7.833-20.812-12.146-32.868-12.146c-27.864,0-50.532,22.669-50.532,50.533
							c0,2.779,0.226,5.56,0.672,8.265c0.198,1.202-0.614,2.336-1.815,2.534C1912.979,1319.754,1912.858,1319.764,1912.74,1319.764z
							"/>
						<path style="fill:#ff6900;" d="M1913.002,1338.95c-0.458,0-0.915-0.144-1.296-0.421l-20.143-14.63
							c-0.693-0.504-1.031-1.365-0.868-2.207c0.164-0.842,0.803-1.511,1.634-1.717l7.411-1.831c1.193-0.294,2.379,0.43,2.67,1.612
							c0.293,1.182-0.429,2.377-1.611,2.669l-2.808,0.694l13.804,10.026l4.276-13.985l-2.411,0.688
							c-1.171,0.334-2.39-0.344-2.726-1.516c-0.334-1.171,0.344-2.391,1.516-2.725l6.311-1.799c0.777-0.221,1.613-0.001,2.179,0.576
							c0.566,0.577,0.771,1.417,0.534,2.189l-6.365,20.817c-0.207,0.681-0.732,1.22-1.408,1.446
							C1913.474,1338.912,1913.237,1338.95,1913.002,1338.95z"/>
						<path style="fill:#ff6900;" d="M2009.125,1301.16c-0.553,0-1.094-0.208-1.509-0.597c-0.573-0.538-0.816-1.341-0.637-2.108
							l5.198-22.298c0.166-0.713,0.674-1.297,1.359-1.558c0.676-0.262,1.449-0.168,2.052,0.253l20.705,14.483
							c0.676,0.472,1.031,1.282,0.922,2.099c-0.11,0.817-0.665,1.505-1.441,1.783l-5.887,2.112c-1.146,0.41-2.409-0.184-2.821-1.331
							c-0.411-1.146,0.185-2.408,1.331-2.82l1.875-0.673l-14.54-10.172l-3.594,15.415l3.361-1.011
							c1.171-0.356,2.394,0.312,2.747,1.476c0.351,1.166-0.31,2.395-1.477,2.746l-7.009,2.109
							C2009.552,1301.129,2009.339,1301.16,2009.125,1301.16z"/>
					</g>
				</g>
			</g>
		</g>
		<g>
			<g>
				<rect x="379.286" y="510.936" style="fill:#E6D0BE;" width="649.413" height="1533.336"/>
				<g>
					<path style="fill:#BC8271;" d="M990.498,1967.939H415.364c-1.218,0-2.205-0.987-2.205-2.205v-106.113
						c0-1.218,0.987-2.205,2.205-2.205h575.134c1.218,0,2.205,0.987,2.205,2.205v106.113
						C992.703,1966.952,991.715,1967.939,990.498,1967.939z M417.569,1963.53h570.724v-101.704H417.569V1963.53z"/>
					<path style="fill:#D3BBA3;" d="M708.763,1929.071c-9.188,0-16.662-7.475-16.662-16.663s7.475-16.663,16.662-16.663
						c9.189,0,16.663,7.475,16.663,16.663S717.952,1929.071,708.763,1929.071z M708.763,1900.155
						c-6.757,0-12.253,5.497-12.253,12.254c0,6.756,5.496,12.253,12.253,12.253c6.757,0,12.254-5.497,12.254-12.253
						C721.017,1905.652,715.52,1900.155,708.763,1900.155z"/>
					<rect x="446.167" y="1899.535" style="fill:#F2E6DC;" width="143.249" height="26.53"/>
					<rect x="817.828" y="1899.533" style="fill:#F2E6DC;" width="143.249" height="26.53"/>
				</g>
				<g>
					<path style="fill:#BC8271;" d="M988.907,1829.459H413.773c-1.218,0-2.205-0.987-2.205-2.205v-106.113
						c0-1.218,0.987-2.205,2.205-2.205h575.134c1.218,0,2.205,0.987,2.205,2.205v106.113
						C991.111,1828.472,990.124,1829.459,988.907,1829.459z M415.978,1825.05h570.724v-101.704H415.978V1825.05z"/>
					<path style="fill:#D3BBA3;" d="M707.172,1790.591c-9.189,0-16.663-7.475-16.663-16.663s7.475-16.663,16.663-16.663
						c9.188,0,16.662,7.475,16.662,16.663S716.359,1790.591,707.172,1790.591z M707.172,1761.676
						c-6.757,0-12.254,5.496-12.254,12.253s5.497,12.253,12.254,12.253s12.253-5.496,12.253-12.253
						S713.929,1761.676,707.172,1761.676z"/>
					<rect x="444.575" y="1761.055" style="fill:#F2E6DC;" width="143.249" height="26.53"/>
					<rect x="816.236" y="1761.053" style="fill:#F2E6DC;" width="143.249" height="26.53"/>
				</g>
				<g>
					<path style="fill:#BC8271;" d="M988.907,1690.978H413.773c-1.218,0-2.205-0.987-2.205-2.205v-106.113
						c0-1.218,0.987-2.205,2.205-2.205h575.134c1.218,0,2.205,0.987,2.205,2.205v106.113
						C991.111,1689.99,990.124,1690.978,988.907,1690.978z M415.978,1686.568h570.724v-101.704H415.978V1686.568z"/>
					<path style="fill:#D3BBA3;" d="M707.172,1652.11c-9.189,0-16.663-7.475-16.663-16.663s7.475-16.663,16.663-16.663
						c9.188,0,16.662,7.475,16.662,16.663S716.359,1652.11,707.172,1652.11z M707.172,1623.193c-6.757,0-12.254,5.497-12.254,12.254
						s5.497,12.253,12.254,12.253s12.253-5.496,12.253-12.253S713.929,1623.193,707.172,1623.193z"/>
					<rect x="444.575" y="1622.573" style="fill:#F2E6DC;" width="143.249" height="26.53"/>
					<rect x="816.236" y="1622.571" style="fill:#F2E6DC;" width="143.249" height="26.53"/>
				</g>
				<g>
					<path style="fill:#84524D;" d="M992.1,1554.092H416.966c-1.218,0-2.205-0.987-2.205-2.205v-106.113
						c0-1.218,0.987-2.205,2.205-2.205H992.1c1.218,0,2.205,0.987,2.205,2.205v106.113
						C994.305,1553.104,993.317,1554.092,992.1,1554.092z M419.171,1549.682h570.724v-101.704H419.171V1549.682z"/>
					<g>
						
							<ellipse transform="matrix(0.7071 -0.7071 0.7071 0.7071 -784.6489 1110.5165)" style="fill:#D3BBA3;" cx="948.188" cy="1502.413" rx="14.458" ry="14.458"/>
						
							<ellipse transform="matrix(0.2298 -0.9732 0.9732 0.2298 -767.0859 2032.1185)" style="fill:#D3BBA3;" cx="900.304" cy="1500.687" rx="14.458" ry="14.458"/>
						
							<ellipse transform="matrix(0.9239 -0.3827 0.3827 0.9239 -509.3918 440.4915)" style="fill:#BC8271;" cx="852.553" cy="1500.687" rx="14.458" ry="14.458"/>
					</g>
					<path style="fill:#D87355;" d="M464.98,1541.095c-1.218,0-2.205-0.987-2.205-2.205v-79.585c0-1.218,0.987-2.205,2.205-2.205
						c1.218,0,2.205,0.987,2.205,2.205v79.585C467.185,1540.107,466.198,1541.095,464.98,1541.095z"/>
					<path style="fill:#D87355;" d="M442.702,1541.095c-1.218,0-2.205-0.987-2.205-2.205v-44.852c0-1.218,0.987-2.205,2.205-2.205
						c1.218,0,2.205,0.987,2.205,2.205v44.852C444.907,1540.107,443.92,1541.095,442.702,1541.095z"/>
					<path style="fill:#D87355;" d="M510.342,1491.055c-1.218,0-2.205-0.987-2.205-2.205v-28.749c0-1.218,0.987-2.205,2.205-2.205
						c1.218,0,2.205,0.987,2.205,2.205v28.749C512.547,1490.068,511.56,1491.055,510.342,1491.055z"/>
					<path style="fill:#D87355;" d="M488.064,1541.89c-1.218,0-2.205-0.987-2.205-2.205v-79.584c0-1.218,0.987-2.205,2.205-2.205
						c1.218,0,2.205,0.987,2.205,2.205v79.584C490.269,1540.903,489.281,1541.89,488.064,1541.89z"/>
					<path style="fill:#D87355;" d="M554.911,1514.904c-1.218,0-2.205-0.987-2.205-2.205v-54.986c0-1.218,0.987-2.205,2.205-2.205
						s2.205,0.987,2.205,2.205v54.986C557.116,1513.917,556.129,1514.904,554.911,1514.904z"/>
					<path style="fill:#D87355;" d="M532.634,1539.503c-1.218,0-2.205-0.987-2.205-2.205v-79.585c0-1.218,0.987-2.205,2.205-2.205
						s2.205,0.987,2.205,2.205v79.585C534.839,1538.516,533.851,1539.503,532.634,1539.503z"/>
					<path style="fill:#D87355;" d="M600.273,1491.057c-1.218,0-2.205-0.987-2.205-2.205v-30.343c0-1.218,0.987-2.205,2.205-2.205
						s2.205,0.987,2.205,2.205v30.343C602.477,1490.069,601.49,1491.057,600.273,1491.057z"/>
					<path style="fill:#D87355;" d="M577.995,1540.298c-1.218,0-2.205-0.987-2.205-2.205v-79.585c0-1.218,0.987-2.205,2.205-2.205
						c1.218,0,2.205,0.987,2.205,2.205v79.585C580.2,1539.311,579.213,1540.298,577.995,1540.298z"/>
				</g>
				<g>
					<path style="fill:#84524D;" d="M993.676,1425.974H418.542c-1.218,0-2.205-0.987-2.205-2.205v-106.113
						c0-1.218,0.987-2.205,2.205-2.205h575.134c1.218,0,2.205,0.987,2.205,2.205v106.113
						C995.881,1424.986,994.893,1425.974,993.676,1425.974z M420.747,1421.564h570.724v-101.703H420.747V1421.564z"/>
					<g>
						
							<ellipse transform="matrix(0.1602 -0.9871 0.9871 0.1602 -558.9218 2091.6577)" style="fill:#BC8271;" cx="949.763" cy="1374.296" rx="14.458" ry="14.458"/>
						<circle style="fill:#D3BBA3;" cx="901.88" cy="1372.569" r="14.458"/>
						<circle style="fill:#D3BBA3;" cx="854.129" cy="1372.569" r="14.458"/>
					</g>
					<path style="fill:#D87355;" d="M466.556,1412.977c-1.218,0-2.205-0.987-2.205-2.205v-79.585c0-1.218,0.987-2.205,2.205-2.205
						s2.205,0.987,2.205,2.205v79.585C468.761,1411.989,467.774,1412.977,466.556,1412.977z"/>
					<path style="fill:#D87355;" d="M444.279,1412.977c-1.218,0-2.205-0.987-2.205-2.205v-58.785c0-1.218,0.987-2.205,2.205-2.205
						s2.205,0.987,2.205,2.205v58.785C446.483,1411.989,445.496,1412.977,444.279,1412.977z"/>
					<path style="fill:#D87355;" d="M511.917,1413.773c-1.218,0-2.205-0.987-2.205-2.205v-79.585c0-1.218,0.987-2.205,2.205-2.205
						c1.218,0,2.205,0.987,2.205,2.205v79.585C514.122,1412.786,513.135,1413.773,511.917,1413.773z"/>
					<path style="fill:#D87355;" d="M489.64,1413.773c-1.218,0-2.205-0.987-2.205-2.205v-31.586c0-1.218,0.987-2.205,2.205-2.205
						c1.218,0,2.205,0.987,2.205,2.205v31.586C491.845,1412.786,490.858,1413.773,489.64,1413.773z"/>
					<path style="fill:#D87355;" d="M556.487,1411.385c-1.218,0-2.205-0.987-2.205-2.205v-79.584c0-1.218,0.987-2.205,2.205-2.205
						c1.218,0,2.205,0.987,2.205,2.205v79.584C558.692,1410.398,557.705,1411.385,556.487,1411.385z"/>
					<path style="fill:#D87355;" d="M534.209,1411.385c-1.218,0-2.205-0.987-2.205-2.205v-24.013c0-1.218,0.987-2.205,2.205-2.205
						c1.218,0,2.205,0.987,2.205,2.205v24.013C536.414,1410.398,535.427,1411.385,534.209,1411.385z"/>
					<path style="fill:#D87355;" d="M601.849,1368.706c-1.218,0-2.205-0.987-2.205-2.205v-36.11c0-1.218,0.987-2.205,2.205-2.205
						s2.205,0.987,2.205,2.205v36.11C604.054,1367.719,603.066,1368.706,601.849,1368.706z"/>
					<path style="fill:#D87355;" d="M579.57,1412.181c-1.218,0-2.205-0.987-2.205-2.205v-62.138c0-1.218,0.987-2.205,2.205-2.205
						s2.205,0.987,2.205,2.205v62.138C581.775,1411.194,580.788,1412.181,579.57,1412.181z"/>
				</g>
				<g>
					<path style="fill:#84524D;" d="M992.086,1288.292H416.952c-1.218,0-2.205-0.987-2.205-2.205v-106.113
						c0-1.218,0.987-2.205,2.205-2.205h575.134c1.218,0,2.205,0.987,2.205,2.205v106.113
						C994.291,1287.305,993.303,1288.292,992.086,1288.292z M419.157,1283.882h570.724v-101.704H419.157V1283.882z"/>
					<g>
						<circle style="fill:#D3BBA3;" cx="948.174" cy="1236.614" r="14.458"/>
						
							<ellipse transform="matrix(0.7071 -0.7071 0.7071 0.7071 -609.5084 998.2913)" style="fill:#BC8271;" cx="900.29" cy="1234.887" rx="14.458" ry="14.458"/>
						
							<ellipse transform="matrix(0.2298 -0.9732 0.9732 0.2298 -545.1876 1780.9001)" style="fill:#BC8271;" cx="852.539" cy="1234.887" rx="14.458" ry="14.458"/>
					</g>
					<path style="fill:#D87355;" d="M464.966,1215.255c-1.218,0-2.205-0.987-2.205-2.205v-19.545c0-1.218,0.987-2.205,2.205-2.205
						c1.218,0,2.205,0.987,2.205,2.205v19.545C467.171,1214.268,466.184,1215.255,464.966,1215.255z"/>
					<path style="fill:#D87355;" d="M442.688,1275.295c-1.218,0-2.205-0.987-2.205-2.205v-79.585c0-1.218,0.987-2.205,2.205-2.205
						c1.218,0,2.205,0.987,2.205,2.205v79.585C444.893,1274.308,443.906,1275.295,442.688,1275.295z"/>
					<path style="fill:#D87355;" d="M510.327,1241.173c-1.218,0-2.205-0.987-2.205-2.205v-44.667c0-1.218,0.987-2.205,2.205-2.205
						s2.205,0.987,2.205,2.205v44.667C512.532,1240.186,511.545,1241.173,510.327,1241.173z"/>
					<path style="fill:#D87355;" d="M488.05,1276.091c-1.218,0-2.205-0.987-2.205-2.205v-79.585c0-1.218,0.987-2.205,2.205-2.205
						s2.205,0.987,2.205,2.205v79.585C490.255,1275.104,489.267,1276.091,488.05,1276.091z"/>
					<path style="fill:#D87355;" d="M554.897,1273.703c-1.218,0-2.205-0.987-2.205-2.205v-79.585c0-1.218,0.987-2.205,2.205-2.205
						c1.218,0,2.205,0.987,2.205,2.205v79.585C557.102,1272.716,556.115,1273.703,554.897,1273.703z"/>
					<path style="fill:#D87355;" d="M532.62,1273.703c-1.218,0-2.205-0.987-2.205-2.205v-79.585c0-1.218,0.987-2.205,2.205-2.205
						s2.205,0.987,2.205,2.205v79.585C534.825,1272.716,533.837,1273.703,532.62,1273.703z"/>
					<path style="fill:#D87355;" d="M600.259,1252.581c-1.218,0-2.205-0.987-2.205-2.205v-57.667c0-1.218,0.987-2.205,2.205-2.205
						c1.218,0,2.205,0.987,2.205,2.205v57.667C602.464,1251.594,601.476,1252.581,600.259,1252.581z"/>
					<path style="fill:#D87355;" d="M577.981,1274.499c-1.218,0-2.205-0.987-2.205-2.205v-59.245c0-1.218,0.987-2.205,2.205-2.205
						s2.205,0.987,2.205,2.205v59.245C580.186,1273.512,579.199,1274.499,577.981,1274.499z"/>
				</g>
				<g>
					<path style="fill:#84524D;" d="M990.465,833.07H415.332c-1.218,0-2.205-0.987-2.205-2.205V724.752
						c0-1.218,0.987-2.205,2.205-2.205h575.134c1.218,0,2.205,0.987,2.205,2.205v106.113
						C992.67,832.083,991.683,833.07,990.465,833.07z M417.536,828.661h570.724V726.957H417.536V828.661z"/>
					<g>
						<circle style="fill:#BC8271;" cx="946.553" cy="781.392" r="14.458"/>
						
							<ellipse transform="matrix(0.7071 -0.7071 0.7071 0.7071 -288.0929 863.8137)" style="fill:#D3BBA3;" cx="898.669" cy="779.666" rx="14.458" ry="14.458"/>
						
							<ellipse transform="matrix(0.1602 -0.9871 0.9871 0.1602 -54.982 1494.7079)" style="fill:#D3BBA3;" cx="850.918" cy="779.666" rx="14.458" ry="14.458"/>
					</g>
					<path style="fill:#D87355;" d="M463.346,820.073c-1.218,0-2.205-0.987-2.205-2.205v-79.585c0-1.218,0.987-2.205,2.205-2.205
						s2.205,0.987,2.205,2.205v79.585C465.551,819.086,464.563,820.073,463.346,820.073z"/>
					<path style="fill:#D87355;" d="M441.068,820.073c-1.218,0-2.205-0.987-2.205-2.205v-58.786c0-1.218,0.987-2.205,2.205-2.205
						c1.218,0,2.205,0.987,2.205,2.205v58.786C443.273,819.086,442.286,820.073,441.068,820.073z"/>
					<path style="fill:#D87355;" d="M508.707,820.869c-1.218,0-2.205-0.987-2.205-2.205v-79.585c0-1.218,0.987-2.205,2.205-2.205
						s2.205,0.987,2.205,2.205v79.585C510.912,819.882,509.925,820.869,508.707,820.869z"/>
					<path style="fill:#D87355;" d="M486.43,820.869c-1.218,0-2.205-0.987-2.205-2.205v-31.586c0-1.218,0.987-2.205,2.205-2.205
						s2.205,0.987,2.205,2.205v31.586C488.634,819.882,487.647,820.869,486.43,820.869z"/>
					<path style="fill:#D87355;" d="M553.276,818.482c-1.218,0-2.205-0.987-2.205-2.205v-79.585c0-1.218,0.987-2.205,2.205-2.205
						s2.205,0.987,2.205,2.205v79.585C555.481,817.495,554.494,818.482,553.276,818.482z"/>
					<path style="fill:#D87355;" d="M530.998,818.482c-1.218,0-2.205-0.987-2.205-2.205v-24.013c0-1.218,0.987-2.205,2.205-2.205
						c1.218,0,2.205,0.987,2.205,2.205v24.013C533.203,817.495,532.216,818.482,530.998,818.482z"/>
					<path style="fill:#D87355;" d="M598.637,775.803c-1.218,0-2.205-0.987-2.205-2.205v-36.11c0-1.218,0.987-2.205,2.205-2.205
						s2.205,0.987,2.205,2.205v36.11C600.842,774.815,599.855,775.803,598.637,775.803z"/>
					<path style="fill:#D87355;" d="M576.36,819.277c-1.218,0-2.205-0.987-2.205-2.205v-62.138c0-1.218,0.987-2.205,2.205-2.205
						c1.218,0,2.205,0.987,2.205,2.205v62.138C578.565,818.29,577.578,819.277,576.36,819.277z"/>
				</g>
				<g>
					<path style="fill:#84524D;" d="M988.875,695.388H413.741c-1.218,0-2.205-0.987-2.205-2.205V587.07
						c0-1.218,0.987-2.205,2.205-2.205h575.134c1.218,0,2.205,0.987,2.205,2.205v106.113
						C991.08,694.401,990.093,695.388,988.875,695.388z M415.946,690.979H986.67V589.275H415.946V690.979z"/>
					<g>
						
							<ellipse transform="matrix(0.2298 -0.9732 0.9732 0.2298 101.3641 1415.4995)" style="fill:#D3BBA3;" cx="944.963" cy="643.71" rx="14.458" ry="14.458"/>
						<circle style="fill:#BC8271;" cx="897.079" cy="641.984" r="14.458"/>
						<circle style="fill:#BC8271;" cx="849.328" cy="641.984" r="14.458"/>
					</g>
					<path style="fill:#D87355;" d="M461.756,622.352c-1.218,0-2.205-0.987-2.205-2.205v-19.545c0-1.218,0.987-2.205,2.205-2.205
						c1.218,0,2.205,0.987,2.205,2.205v19.545C463.96,621.364,462.973,622.352,461.756,622.352z"/>
					<path style="fill:#D87355;" d="M439.478,682.391c-1.218,0-2.205-0.987-2.205-2.205v-79.585c0-1.218,0.987-2.205,2.205-2.205
						c1.218,0,2.205,0.987,2.205,2.205v79.585C441.683,681.404,440.696,682.391,439.478,682.391z"/>
					<path style="fill:#D87355;" d="M507.117,648.269c-1.218,0-2.205-0.987-2.205-2.205v-44.667c0-1.218,0.987-2.205,2.205-2.205
						c1.218,0,2.205,0.987,2.205,2.205v44.667C509.322,647.282,508.335,648.269,507.117,648.269z"/>
					<path style="fill:#D87355;" d="M484.839,683.187c-1.218,0-2.205-0.987-2.205-2.205v-79.585c0-1.218,0.987-2.205,2.205-2.205
						c1.218,0,2.205,0.987,2.205,2.205v79.585C487.044,682.2,486.057,683.187,484.839,683.187z"/>
					<path style="fill:#D87355;" d="M551.687,680.8c-1.218,0-2.205-0.987-2.205-2.205V599.01c0-1.218,0.987-2.205,2.205-2.205
						s2.205,0.987,2.205,2.205v79.585C553.892,679.813,552.905,680.8,551.687,680.8z"/>
					<path style="fill:#D87355;" d="M529.408,680.8c-1.218,0-2.205-0.987-2.205-2.205V599.01c0-1.218,0.987-2.205,2.205-2.205
						s2.205,0.987,2.205,2.205v79.585C531.613,679.813,530.626,680.8,529.408,680.8z"/>
					<path style="fill:#D87355;" d="M597.048,659.677c-1.218,0-2.205-0.987-2.205-2.205v-57.667c0-1.218,0.987-2.205,2.205-2.205
						s2.205,0.987,2.205,2.205v57.667C599.253,658.69,598.266,659.677,597.048,659.677z"/>
					<path style="fill:#D87355;" d="M574.771,681.596c-1.218,0-2.205-0.987-2.205-2.205v-59.245c0-1.218,0.987-2.205,2.205-2.205
						c1.218,0,2.205,0.987,2.205,2.205v59.245C576.976,680.608,575.989,681.596,574.771,681.596z"/>
				</g>
				<g>
					<rect x="418.643" y="1068.132" style="fill:#F2E6DC;" width="571.95" height="50.934"/>
					
						<ellipse transform="matrix(0.1602 -0.9871 0.9871 0.1602 -706.6556 1358.731)" style="fill:#E6D0BE;" cx="445.171" cy="1094.653" rx="9.55" ry="9.55"/>
					<circle style="fill:#E6D0BE;" cx="968.309" cy="1093.592" r="9.55"/>
				</g>
				<g>
					<rect x="416.518" y="978.991" style="fill:#F2E6DC;" width="571.95" height="50.934"/>
					<circle style="fill:#E6D0BE;" cx="443.047" cy="1005.511" r="9.55"/>
					<circle style="fill:#E6D0BE;" cx="966.185" cy="1004.45" r="9.55"/>
				</g>
				<g>
					<rect x="415.459" y="891.98" style="fill:#F2E6DC;" width="571.95" height="50.934"/>
					<circle style="fill:#E6D0BE;" cx="441.987" cy="918.501" r="9.55"/>
					<circle style="fill:#E6D0BE;" cx="965.126" cy="917.44" r="9.55"/>
				</g>
				<path style="fill:#363E44;" d="M1019.243,2037.029H350.73c-1.218,0-2.205-0.987-2.205-2.205V490.88
					c0-1.218,0.987-2.205,2.205-2.205h668.513c1.218,0,2.205,0.987,2.205,2.205v1543.943
					C1021.448,2036.042,1020.461,2037.029,1019.243,2037.029z M352.935,2032.619h664.104V493.085H352.935V2032.619z"/>
			</g>
			<g>
				<g>
					<path style="fill:#363E44;" d="M2051.831,600.635h-476.713c-1.219,0-2.205-0.987-2.205-2.205v-96.68
						c0-1.218,0.986-2.205,2.205-2.205h476.713c1.219,0,2.205,0.987,2.205,2.205v96.68
						C2054.036,599.648,2053.049,600.635,2051.831,600.635z M1577.323,596.225h472.303v-92.27h-472.303V596.225z"/>
					<rect x="1604.156" y="514.403" style="fill:#D87355;" width="145.192" height="70.069"/>
					<path style="fill:#363E44;" d="M1768.251,586.812c-1.219,0-2.205-0.987-2.205-2.205v-19.71c0-1.218,0.986-2.205,2.205-2.205
						s2.205,0.987,2.205,2.205v19.71C1770.456,585.825,1769.47,586.812,1768.251,586.812z"/>
					<path style="fill:#363E44;" d="M1768.251,547.699c-1.219,0-2.205-0.987-2.205-2.205v-31.091c0-1.218,0.986-2.205,2.205-2.205
						s2.205,0.987,2.205,2.205v31.091C1770.456,546.712,1769.47,547.699,1768.251,547.699z"/>
					<path style="fill:#363E44;" d="M1790.835,586.812c-1.219,0-2.205-0.987-2.205-2.205v-35.169c0-1.218,0.986-2.205,2.205-2.205
						c1.219,0,2.205,0.987,2.205,2.205v35.169C1793.04,585.825,1792.054,586.812,1790.835,586.812z"/>
					<path style="fill:#363E44;" d="M1790.835,529.911c-1.219,0-2.205-0.987-2.205-2.205v-13.303c0-1.218,0.986-2.205,2.205-2.205
						c1.219,0,2.205,0.987,2.205,2.205v13.303C1793.04,528.924,1792.054,529.911,1790.835,529.911z"/>
					<path style="fill:#363E44;" d="M1813.417,586.812c-1.219,0-2.205-0.987-2.205-2.205v-19.71c0-1.218,0.986-2.205,2.205-2.205
						s2.205,0.987,2.205,2.205v19.71C1815.622,585.825,1814.636,586.812,1813.417,586.812z"/>
					<path style="fill:#363E44;" d="M1813.417,540.094c-1.219,0-2.205-0.987-2.205-2.205v-23.487c0-1.218,0.986-2.205,2.205-2.205
						s2.205,0.987,2.205,2.205v23.487C1815.622,539.107,1814.636,540.094,1813.417,540.094z"/>
					<path style="fill:#363E44;" d="M1836.002,586.812c-1.219,0-2.205-0.987-2.205-2.205v-39.113c0-1.218,0.986-2.205,2.205-2.205
						c1.219,0,2.205,0.987,2.205,2.205v39.113C1838.207,585.825,1837.22,586.812,1836.002,586.812z"/>
					<path style="fill:#363E44;" d="M1836.002,532.154c-1.219,0-2.205-0.987-2.205-2.205v-15.546c0-1.218,0.986-2.205,2.205-2.205
						c1.219,0,2.205,0.987,2.205,2.205v15.546C1838.207,531.167,1837.22,532.154,1836.002,532.154z"/>
					<path style="fill:#363E44;" d="M1858.584,586.812c-1.219,0-2.205-0.987-2.205-2.205v-13.45c0-1.218,0.986-2.205,2.205-2.205
						c1.219,0,2.205,0.987,2.205,2.205v13.45C1860.789,585.825,1859.803,586.812,1858.584,586.812z"/>
					<path style="fill:#363E44;" d="M1858.584,547.7c-1.219,0-2.205-0.987-2.205-2.205v-31.092c0-1.218,0.986-2.205,2.205-2.205
						c1.219,0,2.205,0.987,2.205,2.205v31.092C1860.789,546.713,1859.803,547.7,1858.584,547.7z"/>
					<path style="fill:#363E44;" d="M1881.168,586.812c-1.219,0-2.205-0.987-2.205-2.205v-41.662c0-1.218,0.986-2.205,2.205-2.205
						c1.219,0,2.205,0.987,2.205,2.205v41.662C1883.373,585.825,1882.387,586.812,1881.168,586.812z"/>
					<path style="fill:#363E44;" d="M1881.168,529.911c-1.219,0-2.205-0.987-2.205-2.205v-13.303c0-1.218,0.986-2.205,2.205-2.205
						c1.219,0,2.205,0.987,2.205,2.205v13.303C1883.373,528.924,1882.387,529.911,1881.168,529.911z"/>
				</g>
				<g>
					<path style="fill:#363E44;" d="M2051.831,706.439h-329.373c-1.219,0-2.205-0.987-2.205-2.205c0-1.218,0.986-2.205,2.205-2.205
						h327.168v-92.27H1597.86c-1.219,0-2.205-0.987-2.205-2.205s0.986-2.205,2.205-2.205h453.971c1.219,0,2.205,0.987,2.205,2.205
						v96.679C2054.036,705.451,2053.049,706.439,2051.831,706.439z"/>
					<path style="fill:#363E44;" d="M1710.2,706.439h-135.082c-1.219,0-2.205-0.987-2.205-2.205v-96.679
						c0-1.218,0.986-2.205,2.205-2.205h13.69c1.219,0,2.205,0.987,2.205,2.205s-0.986,2.205-2.205,2.205h-11.485v92.27H1710.2
						c1.219,0,2.205,0.987,2.205,2.205C1712.405,705.451,1711.419,706.439,1710.2,706.439z"/>
					<rect x="1604.156" y="620.207" style="fill:#D87355;" width="145.192" height="70.069"/>
					<path style="fill:#363E44;" d="M1768.251,692.616c-1.219,0-2.205-0.987-2.205-2.205v-19.71c0-1.218,0.986-2.205,2.205-2.205
						s2.205,0.987,2.205,2.205v19.71C1770.456,691.628,1769.47,692.616,1768.251,692.616z"/>
					<path style="fill:#363E44;" d="M1768.251,653.503c-1.219,0-2.205-0.987-2.205-2.205v-31.091c0-1.218,0.986-2.205,2.205-2.205
						s2.205,0.987,2.205,2.205v31.091C1770.456,652.516,1769.47,653.503,1768.251,653.503z"/>
					<path style="fill:#363E44;" d="M1790.835,692.616c-1.219,0-2.205-0.987-2.205-2.205v-35.168c0-1.218,0.986-2.205,2.205-2.205
						c1.219,0,2.205,0.987,2.205,2.205v35.168C1793.04,691.628,1792.054,692.616,1790.835,692.616z"/>
					<path style="fill:#363E44;" d="M1790.835,635.715c-1.219,0-2.205-0.987-2.205-2.205v-13.303c0-1.218,0.986-2.205,2.205-2.205
						c1.219,0,2.205,0.987,2.205,2.205v13.303C1793.04,634.728,1792.054,635.715,1790.835,635.715z"/>
					<path style="fill:#363E44;" d="M1813.417,692.616c-1.219,0-2.205-0.987-2.205-2.205v-19.71c0-1.218,0.986-2.205,2.205-2.205
						s2.205,0.987,2.205,2.205v19.71C1815.622,691.628,1814.636,692.616,1813.417,692.616z"/>
					<path style="fill:#363E44;" d="M1813.417,645.899c-1.219,0-2.205-0.987-2.205-2.205v-23.487c0-1.218,0.986-2.205,2.205-2.205
						s2.205,0.987,2.205,2.205v23.487C1815.622,644.911,1814.636,645.899,1813.417,645.899z"/>
					<path style="fill:#363E44;" d="M1836.002,692.616c-1.219,0-2.205-0.987-2.205-2.205v-39.112c0-1.218,0.986-2.205,2.205-2.205
						c1.219,0,2.205,0.987,2.205,2.205v39.112C1838.207,691.628,1837.22,692.616,1836.002,692.616z"/>
					<path style="fill:#363E44;" d="M1836.002,637.959c-1.219,0-2.205-0.987-2.205-2.205v-15.547c0-1.218,0.986-2.205,2.205-2.205
						c1.219,0,2.205,0.987,2.205,2.205v15.547C1838.207,636.971,1837.22,637.959,1836.002,637.959z"/>
					<path style="fill:#363E44;" d="M1858.584,692.616c-1.219,0-2.205-0.987-2.205-2.205v-13.45c0-1.218,0.986-2.205,2.205-2.205
						c1.219,0,2.205,0.987,2.205,2.205v13.45C1860.789,691.628,1859.803,692.616,1858.584,692.616z"/>
					<path style="fill:#363E44;" d="M1858.584,653.504c-1.219,0-2.205-0.987-2.205-2.205v-31.092c0-1.218,0.986-2.205,2.205-2.205
						c1.219,0,2.205,0.987,2.205,2.205v31.092C1860.789,652.517,1859.803,653.504,1858.584,653.504z"/>
					<path style="fill:#363E44;" d="M1881.168,692.616c-1.219,0-2.205-0.987-2.205-2.205v-41.662c0-1.218,0.986-2.205,2.205-2.205
						c1.219,0,2.205,0.987,2.205,2.205v41.662C1883.373,691.628,1882.387,692.616,1881.168,692.616z"/>
					<path style="fill:#363E44;" d="M1881.168,635.715c-1.219,0-2.205-0.987-2.205-2.205v-13.303c0-1.218,0.986-2.205,2.205-2.205
						c1.219,0,2.205,0.987,2.205,2.205v13.303C1883.373,634.728,1882.387,635.715,1881.168,635.715z"/>
				</g>
				<g>
					<path style="fill:#363E44;" d="M2051.831,812.243h-476.713c-1.219,0-2.205-0.987-2.205-2.205v-76.254
						c0-1.218,0.986-2.205,2.205-2.205s2.205,0.987,2.205,2.205v74.049h472.303v-92.27h-228.317c-1.219,0-2.205-0.987-2.205-2.205
						c0-1.218,0.986-2.205,2.205-2.205h230.522c1.219,0,2.205,0.987,2.205,2.205v96.68
						C2054.036,811.256,2053.049,812.243,2051.831,812.243z"/>
					<path style="fill:#363E44;" d="M1575.118,735.989c-1.219,0-2.205-0.987-2.205-2.205v-20.426c0-1.218,0.986-2.205,2.205-2.205
						h223.849c1.219,0,2.205,0.987,2.205,2.205c0,1.218-0.986,2.205-2.205,2.205h-221.645v18.221
						C1577.323,735.002,1576.337,735.989,1575.118,735.989z"/>
					<rect x="1604.156" y="726.011" style="fill:#D87355;" width="145.192" height="70.069"/>
					<path style="fill:#363E44;" d="M1768.251,798.42c-1.219,0-2.205-0.987-2.205-2.205v-19.71c0-1.218,0.986-2.205,2.205-2.205
						s2.205,0.987,2.205,2.205v19.71C1770.456,797.433,1769.47,798.42,1768.251,798.42z"/>
					<path style="fill:#363E44;" d="M1768.251,759.307c-1.219,0-2.205-0.987-2.205-2.205v-31.091c0-1.218,0.986-2.205,2.205-2.205
						s2.205,0.987,2.205,2.205v31.091C1770.456,758.32,1769.47,759.307,1768.251,759.307z"/>
					<path style="fill:#363E44;" d="M1790.835,798.42c-1.219,0-2.205-0.987-2.205-2.205v-35.168c0-1.218,0.986-2.205,2.205-2.205
						c1.219,0,2.205,0.987,2.205,2.205v35.168C1793.04,797.433,1792.054,798.42,1790.835,798.42z"/>
					<path style="fill:#363E44;" d="M1790.835,741.519c-1.219,0-2.205-0.987-2.205-2.205v-13.303c0-1.218,0.986-2.205,2.205-2.205
						c1.219,0,2.205,0.987,2.205,2.205v13.303C1793.04,740.532,1792.054,741.519,1790.835,741.519z"/>
					<path style="fill:#363E44;" d="M1813.417,798.42c-1.219,0-2.205-0.987-2.205-2.205v-19.71c0-1.218,0.986-2.205,2.205-2.205
						s2.205,0.987,2.205,2.205v19.71C1815.622,797.433,1814.636,798.42,1813.417,798.42z"/>
					<path style="fill:#363E44;" d="M1813.417,751.703c-1.219,0-2.205-0.987-2.205-2.205v-23.486c0-1.218,0.986-2.205,2.205-2.205
						s2.205,0.987,2.205,2.205v23.486C1815.622,750.715,1814.636,751.703,1813.417,751.703z"/>
					<path style="fill:#363E44;" d="M1836.002,798.42c-1.219,0-2.205-0.987-2.205-2.205v-39.112c0-1.218,0.986-2.205,2.205-2.205
						c1.219,0,2.205,0.987,2.205,2.205v39.112C1838.207,797.433,1837.22,798.42,1836.002,798.42z"/>
					<path style="fill:#363E44;" d="M1836.002,743.763c-1.219,0-2.205-0.987-2.205-2.205v-15.547c0-1.218,0.986-2.205,2.205-2.205
						c1.219,0,2.205,0.987,2.205,2.205v15.547C1838.207,742.776,1837.22,743.763,1836.002,743.763z"/>
					<path style="fill:#363E44;" d="M1858.584,798.42c-1.219,0-2.205-0.987-2.205-2.205v-13.45c0-1.218,0.986-2.205,2.205-2.205
						c1.219,0,2.205,0.987,2.205,2.205v13.45C1860.789,797.433,1859.803,798.42,1858.584,798.42z"/>
					<path style="fill:#363E44;" d="M1858.584,759.308c-1.219,0-2.205-0.987-2.205-2.205v-31.092c0-1.218,0.986-2.205,2.205-2.205
						c1.219,0,2.205,0.987,2.205,2.205v31.092C1860.789,758.321,1859.803,759.308,1858.584,759.308z"/>
					<path style="fill:#363E44;" d="M1881.168,798.42c-1.219,0-2.205-0.987-2.205-2.205v-41.662c0-1.218,0.986-2.205,2.205-2.205
						c1.219,0,2.205,0.987,2.205,2.205v41.662C1883.373,797.433,1882.387,798.42,1881.168,798.42z"/>
					<path style="fill:#363E44;" d="M1881.168,741.519c-1.219,0-2.205-0.987-2.205-2.205v-13.303c0-1.218,0.986-2.205,2.205-2.205
						c1.219,0,2.205,0.987,2.205,2.205v13.303C1883.373,740.532,1882.387,741.519,1881.168,741.519z"/>
				</g>
			</g>
			<path style="fill:#363E44;" d="M1845.217,466.29c-1.219,0-2.205-0.987-2.205-2.205v-61.747l-1208.31-6.591l-2.136,66.204
				c-0.039,1.217-1.064,2.169-2.275,2.133c-1.218-0.039-2.171-1.058-2.133-2.275l2.205-68.349c0.039-1.195,0.966-2.127,2.216-2.134
				l1212.651,6.615c1.212,0.007,2.192,0.992,2.192,2.205v63.94C1847.422,465.303,1846.436,466.29,1845.217,466.29z"/>
			<path style="fill:#363E44;" d="M2107.591,911.155c-0.002,0-0.004,0-0.007,0l-524.613-1.294c-1.217-0.003-2.201-0.993-2.198-2.21
				c0.002-1.216,0.99-2.2,2.205-2.2c0.002,0,0.004,0,0.006,0l522.415,1.289l1.445-240.509l-41.108,0.697
				c-1.219,0.034-2.22-0.949-2.241-2.167c-0.019-1.218,0.949-2.221,2.168-2.242l43.362-0.735c0.011,0,0.024,0,0.037,0
				c0.579,0,1.137,0.229,1.55,0.637c0.422,0.417,0.659,0.987,0.655,1.581l-1.471,244.962
				C2109.789,910.176,2108.803,911.155,2107.591,911.155z"/>
		</g>
		<g>
			<g>
				<path style="fill:#ff6900;" d="M1305.42,897.101c-58.599,0-112.827-26.59-148.78-72.951c-0.747-0.962-0.572-2.347,0.391-3.094
					c0.959-0.746,2.348-0.572,3.093,0.391c35.112,45.276,88.071,71.244,145.296,71.244c101.323,0,183.756-82.433,183.756-183.756
					c0-14.492-1.692-28.922-5.032-42.888c-0.282-1.185,0.448-2.374,1.632-2.657c1.184-0.281,2.375,0.447,2.657,1.632
					c3.419,14.302,5.152,29.076,5.152,43.913C1493.585,812.69,1409.176,897.101,1305.42,897.101z"/>
				<path style="fill:#ff6900;" d="M1122.255,743.464c-1.051,0-1.982-0.754-2.169-1.825c-1.88-10.723-2.833-21.726-2.833-32.704
					c0-103.755,84.411-188.165,188.167-188.165c57.881,0,111.699,26.066,147.654,71.515c0.756,0.955,0.594,2.342-0.362,3.097
					c-0.958,0.758-2.343,0.592-3.096-0.361c-35.114-44.385-87.672-69.842-144.196-69.842c-101.324,0-183.757,82.432-183.757,183.756
					c0,10.723,0.93,21.47,2.766,31.942c0.211,1.199-0.591,2.342-1.79,2.553C1122.509,743.452,1122.381,743.464,1122.255,743.464z"/>
				<path style="fill:#ff6900;" d="M1304.505,860.983c-31.817,0-62.256-9.772-88.023-28.26c-0.99-0.71-1.215-2.088-0.506-3.077
					c0.708-0.989,2.083-1.217,3.077-0.506c25.013,17.946,54.563,27.433,85.452,27.433c80.915,0,146.743-65.829,146.743-146.744
					c0-11.234-1.273-22.422-3.783-33.253c-0.273-1.186,0.465-2.371,1.651-2.646c1.188-0.271,2.371,0.463,2.646,1.65
					c2.584,11.157,3.895,22.68,3.895,34.248C1455.657,793.175,1387.851,860.983,1304.505,860.983z"/>
				<path style="fill:#ff6900;" d="M1157.535,736.391c-1.06,0-1.996-0.767-2.174-1.847c-1.334-8.113-2.011-16.428-2.011-24.714
					c0-83.347,67.808-151.154,151.154-151.154c36.056,0,70.972,12.904,98.31,36.336c0.926,0.792,1.034,2.184,0.241,3.109
					c-0.794,0.926-2.185,1.031-3.109,0.239c-26.542-22.747-60.437-35.275-95.442-35.275c-80.915,0-146.744,65.829-146.744,146.744
					c0,8.047,0.657,16.121,1.953,23.998c0.197,1.201-0.617,2.336-1.818,2.534C1157.774,736.381,1157.654,736.391,1157.535,736.391z"
					/>
				<path style="fill:#ff6900;" d="M1158.275,790.58c-0.532,0-1.055-0.193-1.465-0.557l-48.747-43.331
					c-0.612-0.544-0.872-1.382-0.675-2.177c0.196-0.794,0.817-1.415,1.612-1.611l12.789-3.159c1.18-0.293,2.378,0.429,2.669,1.612
					c0.292,1.182-0.429,2.377-1.612,2.669l-8.721,2.155l42.835,38.075l11.112-48.42l-9.407,1.02
					c-1.203,0.129-2.298-0.743-2.43-1.954c-0.131-1.211,0.744-2.298,1.954-2.429l12.487-1.354c0.716-0.077,1.412,0.194,1.886,0.727
					c0.474,0.533,0.66,1.263,0.5,1.958l-12.638,55.066c-0.174,0.759-0.736,1.37-1.478,1.607
					C1158.726,790.545,1158.5,790.58,1158.275,790.58z"/>
				<path style="fill:#ff6900;" d="M1437.39,681.55c-0.51,0-1.014-0.178-1.415-0.514c-0.57-0.476-0.861-1.207-0.775-1.945
					l7.047-60.682c0.093-0.799,0.614-1.484,1.359-1.788c0.747-0.303,1.6-0.177,2.22,0.33l52.87,42.917
					c0.618,0.501,0.919,1.297,0.784,2.082c-0.133,0.785-0.678,1.436-1.428,1.705l-11.02,3.954c-1.143,0.41-2.409-0.184-2.821-1.331
					s0.185-2.409,1.331-2.82l7.338-2.633l-46.717-37.922l-6.197,53.362l8.951-2.694c1.167-0.353,2.394,0.312,2.747,1.476
					c0.351,1.166-0.31,2.396-1.477,2.747l-12.163,3.66C1437.817,681.519,1437.603,681.55,1437.39,681.55z"/>
			</g>
		</g>
		<g>
			<g>
				<polygon style="fill:#776E42;" points="1832.187,1796.928 1843.334,2082.19 1420.126,2082.19 1407.472,1808.247 
					1407.202,1802.393 				"/>
				<g>
					<polygon style="fill:#E2A18D;" points="1651.355,2076.121 1519.156,1991.865 1471.577,2122.719 1601.581,2151.008 					"/>
					<path style="fill:#D3BBA3;" d="M1879.427,2150.033h-285.466l19.174-105.995c0,0,121.084-52.172,253.435,25.281
						C1866.57,2069.318,1899.192,2109.195,1879.427,2150.033z"/>
					<path style="fill:#363E44;" d="M1676.557,2124.518c-1.219,0-2.205-0.987-2.205-2.205v-64.998c0-1.218,0.986-2.205,2.205-2.205
						c1.219,0,2.205,0.987,2.205,2.205v64.998C1678.762,2123.531,1677.776,2124.518,1676.557,2124.518z"/>
					<path style="fill:#363E44;" d="M1695.003,2124.518c-1.219,0-2.205-0.987-2.205-2.205v-64.998c0-1.218,0.986-2.205,2.205-2.205
						s2.205,0.987,2.205,2.205v64.998C1697.208,2123.531,1696.222,2124.518,1695.003,2124.518z"/>
					<path style="fill:#ff6900;" d="M1586.379,1969.305l-80.191,180.728c0,0-223.008-47.025-378.117-144.061
						c-54.199-33.907-71.688-104.802-39.406-159.984c0.46-0.787,0.925-1.572,1.393-2.355
						c27.589-46.115,83.448-67.006,134.923-51.574C1307.416,1816.775,1461.174,1872.022,1586.379,1969.305z"/>
				</g>
				<g>
					<polygon style="fill:#E2A18D;" points="1579.961,2076.121 1712.161,1991.865 1759.74,2122.719 1629.736,2151.008 					"/>
					<path style="fill:#FFFFFF;" d="M1354.938,2150.033h282.418l-19.174-100.15c0,0-104.434-60.75-229.144-13.983
						C1389.038,2035.9,1372.418,2071.437,1354.938,2150.033z"/>
					<path style="fill:#363E44;" d="M1554.76,2124.518c-1.219,0-2.205-0.987-2.205-2.205v-64.998c0-1.218,0.986-2.205,2.205-2.205
						c1.219,0,2.205,0.987,2.205,2.205v64.998C1556.965,2123.531,1555.979,2124.518,1554.76,2124.518z"/>
					<path style="fill:#363E44;" d="M1536.312,2124.518c-1.219,0-2.205-0.987-2.205-2.205v-64.998c0-1.218,0.986-2.205,2.205-2.205
						s2.205,0.987,2.205,2.205v64.998C1538.517,2123.531,1537.531,2124.518,1536.312,2124.518z"/>
					<path style="fill:#ff6900;" d="M1644.938,1969.305l80.191,180.728c0,0,223.008-47.025,378.117-144.061
						c54.199-33.907,71.688-104.802,39.406-159.984c-0.46-0.787-0.925-1.572-1.393-2.355
						c-27.59-46.115-83.448-67.006-134.923-51.574C1923.9,1816.775,1770.142,1872.022,1644.938,1969.305z"/>
				</g>
			</g>
			<g>
				<g>
					<path style="fill:#EFBC73;" d="M1314.533,1865.24l-22.398-3.929c-40.115-7.037-65.384-47.04-54.688-86.338
						c10.196-37.462,24.907-83.341,44.115-123.059c18.867-39.014,54.918-66.972,97.459-75.242
						c89.691-17.437,271.985-41.295,460.088,2.24c38.74,8.966,71.809,34.229,90.377,69.391
						c15.944,30.194,34.616,70.795,47.639,115.543c12.343,42.413-13.508,86.523-56.392,97.115l-100.157-21.742L1314.533,1865.24z"/>
					<path style="fill:#E2A18D;" d="M1261.108,1782.397c-1.646,5.922-2.642,12.373-2.707,19.355
						c-0.29,31.512,19.822,59.643,49.228,70.975l146.841,39.174l31.968-109.02l-151.124-57.251
						C1304.594,1733.992,1269.907,1750.746,1261.108,1782.397z"/>
					<path style="fill:#E2A18D;" d="M1948.901,1816.811c-2.045,5.796-4.927,11.654-8.876,17.412
						c-17.825,25.988-50.429,37.513-81.02,29.944l-147.988-36.615l41.5-123.108l156.651,39.707
						C1941.012,1752.221,1959.833,1785.832,1948.901,1816.811z"/>
				</g>
				<g>
					<rect x="1423.879" y="1661.601" style="fill:#363E44;" width="381.133" height="228.504"/>
					<rect x="1423.879" y="1896.331" style="fill:#363E44;" width="381.133" height="23.393"/>
					<path style="fill:#40484C;" d="M1635.161,1789.235h-41.431c-1.219,0-2.205-0.987-2.205-2.205v-41.43
						c0-1.218,0.986-2.205,2.205-2.205h41.431c1.219,0,2.205,0.987,2.205,2.205v41.43
						C1637.366,1788.248,1636.38,1789.235,1635.161,1789.235z M1595.935,1784.825h37.021v-37.02h-37.021V1784.825z"/>
					<path style="fill:#40484C;" d="M1788.521,1682.162h-348.148c-1.219,0-2.205-0.987-2.205-2.205c0-1.218,0.986-2.205,2.205-2.205
						h348.148c1.219,0,2.205,0.987,2.205,2.205C1790.725,1681.174,1789.739,1682.162,1788.521,1682.162z"/>
				</g>
			</g>
			<g>
				<path style="fill:#E2A18D;" d="M1558.823,1422.842c8.342,11.258,7.338,26.139-2.243,33.239
					c-9.581,7.099-24.11,3.729-32.452-7.529c-8.342-11.258-7.338-26.139,2.244-33.238
					C1535.952,1408.213,1550.482,1411.584,1558.823,1422.842z"/>
				<path style="fill:#E2A18D;" d="M1661.818,1417.6c-7.156,12.046-4.646,26.749,5.606,32.839
					c10.252,6.09,24.364,1.262,31.52-10.785c7.156-12.046,4.646-26.749-5.606-32.839
					C1683.086,1400.725,1668.974,1405.553,1661.818,1417.6z"/>
				<path style="fill:#E2A18D;" d="M1605.284,1614.005c-25.02-1.147-44.372-22.36-43.224-47.38l4.203-128.613l90.604,4.155
					l-4.203,128.613C1651.516,1595.801,1630.303,1615.153,1605.284,1614.005z"/>
				<path style="fill:#363E44;" d="M1621.518,1541.77c-72.679,4.296-75.38-117.058-75.38-117.058l128.788-4.358
					C1674.926,1420.354,1691.99,1537.605,1621.518,1541.77z"/>
				<circle style="fill:#363E44;" cx="1571.096" cy="1389.557" r="46.214"/>
				<path style="fill:#E2A18D;" d="M1673.581,1429.667c2.056,40.385-24.141,19.144-58.51,20.893
					c-34.37,1.749-63.898,25.826-65.953-14.559s24.141-63.449,58.511-65.198C1641.997,1369.053,1671.525,1389.282,1673.581,1429.667
					z"/>
				<path style="fill:#363E44;" d="M1673.571,1451.482c-0.131,0-0.263-0.012-0.396-0.036c-1.197-0.218-1.994-1.365-1.776-2.563
					c1.135-6.235,1.542-12.663,1.212-19.103c-0.291-5.749-1.167-11.439-2.601-16.911c-0.308-1.178,0.396-2.383,1.576-2.691
					c1.165-0.308,2.381,0.396,2.691,1.574c1.509,5.764,2.431,11.755,2.739,17.804c0.345,6.779-0.084,13.547-1.277,20.116
					C1675.545,1450.735,1674.617,1451.482,1673.571,1451.482z"/>
				<path style="fill:#363E44;" d="M1551.018,1457.265c-0.958,0-1.843-0.632-2.119-1.601c-1.796-6.305-2.879-12.883-3.217-19.551
					c-0.314-6.174,0.013-12.343,0.973-18.333c0.194-1.203,1.324-2.025,2.526-1.828c1.201,0.192,2.022,1.323,1.828,2.526
					c-0.911,5.687-1.221,11.545-0.922,17.412c0.321,6.336,1.348,12.582,3.053,18.567c0.334,1.171-0.344,2.391-1.516,2.724
					C1551.423,1457.237,1551.218,1457.265,1551.018,1457.265z"/>
				<path style="fill:#363E44;" d="M1615.673,1454.316c-0.661,0-1.316-0.296-1.75-0.86c-0.741-0.965-0.562-2.35,0.405-3.092
					c1.395-1.075,2.175-2.119,2.19-2.939c0.011-0.565-0.342-1.085-1.023-2.031c-0.831-1.155-1.865-2.592-2.319-4.785
					c-0.407-1.963-0.239-4.033,0.5-6.151c0.403-1.149,1.658-1.754,2.81-1.354c1.15,0.401,1.755,1.659,1.354,2.809
					c-0.474,1.351-0.588,2.63-0.344,3.8c0.263,1.276,0.902,2.166,1.58,3.107c0.887,1.234,1.893,2.633,1.852,4.691
					c-0.043,2.248-1.359,4.384-3.912,6.348C1616.614,1454.167,1616.142,1454.316,1615.673,1454.316z"/>
				<path style="fill:#FFFFFF;" d="M1605.99,1472.2c-2.646,0-6.604-0.527-10.473-3.027c-2.457-1.588-4.547-3.78-6.05-6.338
					c-0.616-1.05-0.265-2.401,0.784-3.018c1.051-0.617,2.401-0.265,3.019,0.785c0.805,1.373,2.265,3.331,4.642,4.868
					c3.604,2.33,7.338,2.422,9.233,2.276c1.191-0.104,2.276,0.812,2.371,2.026c0.095,1.214-0.812,2.275-2.026,2.37
					C1607.058,1472.176,1606.554,1472.2,1605.99,1472.2z"/>
				<path style="fill:#363E44;" d="M1540.903,1414.82c0,0,33.275,4.93,67.781-35.739c0,0,64.084,83.802,113.379-17.253
					c0,0-28.875,12.743-44.366-7.394c-24.648-32.042-83.802-57.922-107.218,1.232L1540.903,1414.82z"/>
				<g>
					<g>
						<path style="fill:#FFFFFF;" d="M1652.22,1419.55l-0.15-0.005c-0.063,0.316-0.252,0.723-0.582,0.73
							c-0.37,0.487-0.512,1.252-0.753,1.763c-0.432,0.92-1.832,0.192-1.401-0.727c0.29-0.619-1.789,0.643-2.708,1.05
							c-2.931,1.301-5.91,2.467-8.931,3.543c-1.408,0.501-2.819,1.014-4.244,1.466c-1.143,0.362-4.906,1.761-5.219,1.596
							c-3.718,3.766-5.701,7.249-5.701,7.249s5.718,2.2,12.964,2.22c0.016-0.098,0.034-0.195,0.045-0.294
							c0.119-0.978,16.587-5.75,17.075-5.034c6.827-4.849,10.568-11.395,10.568-11.395S1658.49,1419.904,1652.22,1419.55z"/>
						<path style="fill:#363E44;" d="M1640.062,1421.128c-4.929,1.759-8.907,4.88-11.821,7.831c0.536,3.104,2.173,6.027,4.858,8.111
							c0.691,0.537,1.421,0.989,2.174,1.367c3.267,0.029,6.856-0.38,10.38-1.638c2.548-0.909,4.829-2.191,6.853-3.617
							c2.454-4.314,2.219-9.593-0.436-13.638C1648.39,1419.351,1644.183,1419.657,1640.062,1421.128z"/>
					</g>
					<g>
						<path style="fill:#FFFFFF;" d="M1570.579,1424.798l0.149-0.02c0.095,0.308,0.324,0.694,0.652,0.668
							c0.417,0.447,0.636,1.194,0.926,1.679c0.522,0.872,1.842,0.007,1.32-0.864c-0.351-0.586,1.845,0.46,2.8,0.772
							c3.047,0.999,6.128,1.86,9.241,2.626c1.452,0.357,2.907,0.726,4.371,1.032c1.173,0.246,5.058,1.258,5.352,1.063
							c4.079,3.373,6.401,6.638,6.401,6.638s-5.468,2.765-12.674,3.513c-0.026-0.096-0.053-0.19-0.075-0.288
							c-0.217-0.961-17.082-4.053-17.494-3.291c-7.281-4.138-11.661-10.274-11.661-10.274S1564.376,1425.782,1570.579,1424.798z"/>
						<path style="fill:#363E44;" d="M1582.835,1425.145c5.081,1.254,9.353,3.96,12.55,6.602c-0.222,3.142-1.556,6.215-4.018,8.559
							c-0.633,0.604-1.314,1.127-2.026,1.579c-3.248,0.357-6.859,0.311-10.492-0.585c-2.627-0.648-5.024-1.694-7.182-2.909
							c-2.876-4.045-3.173-9.321-0.938-13.612C1574.37,1424.215,1578.586,1424.097,1582.835,1425.145z"/>
					</g>
				</g>
			</g>
		</g>
	</g>
</g>
</svg>
