<?xml version="1.0" encoding="utf-8"?>
<!-- Generator: Adobe Illustrator 27.5.0, SVG Export Plug-In . SVG Version: 6.00 Build 0)  -->
<svg version="1.1" xmlns="http://www.w3.org/2000/svg" xmlns:xlink="http://www.w3.org/1999/xlink" x="0px" y="0px"
	 viewBox="0 0 2500 2500" style="enable-background:new 0 0 2500 2500;" xml:space="preserve">
-
<g id="Illustration">
	<g id="Air_conditioning_1_">
		<circle style="fill:transparent;" cx="1252.247" cy="1250" r="915"/>
		<g>
			<g>
				<path style="fill:#FFFFFF;" d="M1018.743,746.279h996.858c49.029,0,88.775-39.746,88.775-88.775V356.872H929.968v300.632
					C929.968,706.533,969.714,746.279,1018.743,746.279z"/>
			</g>
			<polygon style="fill:#363E44;" points="1086.644,716.016 1993.38,716.016 2053.81,532.815 1026.214,532.815 			"/>
			<g>
				<path style="fill:#363E44;" d="M2042.706,754.17h-996.857c-50.166,0-90.98-40.813-90.98-90.98V362.558
					c0-1.218,0.987-2.205,2.205-2.205h1174.408c1.218,0,2.205,0.987,2.205,2.205V663.19
					C2133.686,713.357,2092.872,754.17,2042.706,754.17z M959.278,364.763V663.19c0,47.735,38.835,86.57,86.57,86.57h996.857
					c47.735,0,86.57-38.835,86.57-86.57V364.763H959.278z"/>
			</g>
			<g>
				<g>
					<path style="fill:#363E44;" d="M1085.045,493.632c-14.435,0-28.158-8.554-34.012-22.697l0,0
						c-3.755-9.071-3.753-19.061,0.008-28.13c3.759-9.069,10.827-16.131,19.899-19.885c18.725-7.751,40.271,1.178,48.023,19.903
						c3.755,9.071,3.753,19.061-0.008,28.129c-3.759,9.068-10.827,16.131-19.899,19.885
						C1094.472,492.734,1089.721,493.632,1085.045,493.632z M1055.106,469.248c6.821,16.478,25.776,24.336,42.263,17.515
						c7.984-3.304,14.203-9.519,17.512-17.499c3.309-7.981,3.312-16.772,0.008-24.754c-6.823-16.479-25.785-24.335-42.263-17.516
						c-7.984,3.304-14.203,9.519-17.511,17.5C1051.804,452.475,1051.802,461.266,1055.106,469.248L1055.106,469.248z"/>
					
						<ellipse transform="matrix(1 -0.0086 0.0086 1 -3.884 9.3356)" style="fill:#ff6900;" cx="1084.997" cy="456.879" rx="19.835" ry="19.831"/>
				</g>
				<g>
					<path style="fill:#363E44;" d="M1179.658,475.963c-8.29,0.001-16.168-4.911-19.529-13.032
						c-2.156-5.208-2.155-10.944,0.003-16.152c2.16-5.207,6.217-9.262,11.427-11.418c10.753-4.45,23.124,0.677,27.573,11.428
						c2.156,5.208,2.154,10.945-0.004,16.152c-2.159,5.207-6.216,9.262-11.426,11.418
						C1185.072,475.448,1182.342,475.963,1179.658,475.963z M1179.61,438.167c-2.125,0-4.283,0.408-6.365,1.269
						c-4.121,1.705-7.331,4.913-9.039,9.032c-1.707,4.119-1.708,8.656-0.003,12.776v0c3.523,8.505,13.31,12.56,21.814,9.04
						c4.12-1.705,7.33-4.913,9.038-9.032c1.709-4.119,1.71-8.656,0.004-12.776C1192.399,442.053,1186.166,438.167,1179.61,438.167z"
						/>
				</g>
			</g>
			<path style="fill:#363E44;" d="M2040.328,479.478h-249.423c-1.218,0-2.205-0.987-2.205-2.205V440.49
				c0-1.218,0.987-2.205,2.205-2.205h249.423c1.218,0,2.205,0.987,2.205,2.205v36.784
				C2042.533,478.491,2041.545,479.478,2040.328,479.478z M1793.109,475.069h245.014v-32.374h-245.014V475.069z"/>
			
				<rect x="1104.837" y="593.817" transform="matrix(-1 -1.224647e-16 1.224647e-16 -1 3082.0586 1218.2321)" style="fill:#FFFFFF;" width="872.384" height="30.599"/>
			
				<rect x="1104.837" y="647.67" transform="matrix(-1 -1.224647e-16 1.224647e-16 -1 3082.0586 1325.9399)" style="fill:#FFFFFF;" width="872.384" height="30.599"/>
		</g>
		<g>
			<path style="fill:#FFFFFF;" d="M1876.855,846.202c-0.156-1.661,1.062-3.133,2.724-3.289c12.499-1.183,20.572-5.422,26.822-9.414
				c1.404-0.894,3.272-0.484,4.172,0.921c0.899,1.404,0.487,3.275-0.921,4.171c-6.856,4.378-15.724,9.033-29.504,10.334
				c-0.097,0.012-0.193,0.015-0.288,0.015C1878.32,848.94,1877.002,847.769,1876.855,846.202z M1515.41,848.71
				c-12.93-2.109-21.575-7.475-28.664-12.34c-1.376-0.944-1.726-2.823-0.781-4.198c0.946-1.378,2.824-1.729,4.2-0.782
				c6.85,4.7,14.516,9.449,26.215,11.355c1.648,0.268,2.765,1.823,2.496,3.469c-0.24,1.481-1.524,2.534-2.979,2.534
				C1515.737,848.748,1515.573,848.736,1515.41,848.71z M1709.907,845.957c-0.28-1.643,0.826-3.204,2.471-3.484
				c11.581-1.977,19.263-6.788,26.14-11.547c1.376-0.95,3.258-0.608,4.205,0.764c0.95,1.372,0.608,3.254-0.764,4.204
				c-7.436,5.145-15.765,10.352-28.565,12.532c-0.171,0.03-0.342,0.044-0.51,0.044
				C1711.437,848.471,1710.158,847.43,1709.907,845.957z M1542.907,845.338c-0.418-1.617,0.555-3.263,2.17-3.682
				c10.196-2.629,17.09-7.484,24.389-12.623l1.177-0.829c1.365-0.962,3.249-0.628,4.209,0.735c0.959,1.366,0.63,3.251-0.736,4.21
				l-1.17,0.823c-7.421,5.228-15.096,10.632-26.36,13.538c-0.252,0.065-0.506,0.094-0.757,0.094
				C1544.486,847.604,1543.258,846.701,1542.907,845.338z M1682.207,847.438c-11.447-2.856-19.206-8.293-26.711-13.55l-0.918-0.643
				c-1.368-0.956-1.701-2.841-0.744-4.207c0.953-1.366,2.839-1.696,4.208-0.743l0.921,0.646
				c7.378,5.169,14.348,10.051,24.707,12.638c1.62,0.404,2.604,2.042,2.2,3.661c-0.342,1.375-1.576,2.289-2.929,2.289
				C1682.698,847.53,1682.452,847.5,1682.207,847.438z M1375.818,844.294c-0.561-1.572,0.26-3.301,1.831-3.862
				c7.791-2.776,13.609-6.871,19.766-11.207c1.801-1.266,3.603-2.534,5.453-3.767c1.39-0.923,3.269-0.552,4.19,0.838
				c0.925,1.39,0.55,3.263-0.838,4.189c-1.807,1.204-3.566,2.443-5.324,3.682c-6.22,4.378-12.65,8.903-21.217,11.96
				c-0.336,0.118-0.679,0.174-1.015,0.174C1377.423,846.3,1376.259,845.53,1375.818,844.294z M1849.097,845.713
				c-8.74-3.033-15.262-7.602-21.569-12.025c-1.675-1.171-3.349-2.345-5.065-3.49c-1.388-0.926-1.763-2.803-0.838-4.189
				c0.927-1.39,2.802-1.761,4.19-0.838c1.756,1.171,3.469,2.369,5.181,3.57c6.242,4.375,12.141,8.508,20.084,11.266
				c1.576,0.546,2.411,2.269,1.863,3.844c-0.434,1.248-1.604,2.03-2.855,2.03C1849.759,845.881,1849.426,845.828,1849.097,845.713z
				 M2016.144,843.544c-6.359-2.867-11.575-6.523-16.62-10.06c-2.955-2.071-6.012-4.213-9.212-6.124
				c-1.434-0.853-1.902-2.708-1.047-4.142c0.856-1.431,2.713-1.9,4.143-1.044c3.393,2.024,6.542,4.23,9.587,6.363
				c5.035,3.531,9.793,6.865,15.634,9.496c1.521,0.687,2.198,2.475,1.512,3.997c-0.505,1.118-1.604,1.779-2.756,1.779
				C2016.969,843.81,2016.548,843.724,2016.144,843.544z M1930.886,821.433c-0.621-1.546,0.13-3.307,1.679-3.927
				c7.629-3.062,16.028-4.555,25.79-4.567c1.776,0,3.482,0.05,5.124,0.145c1.666,0.094,2.939,1.522,2.843,3.189
				c-0.096,1.664-1.578,2.941-3.191,2.841c-1.53-0.089-3.12-0.133-4.88-0.133c-8.867,0.009-16.533,1.363-23.434,4.13
				c-0.369,0.15-0.75,0.218-1.124,0.218C1932.494,823.33,1931.36,822.613,1930.886,821.433z M1461.356,822.156
				c-5.744-1.744-11.99-2.59-19.202-2.59c-3.287,0.003-6.453,0.195-9.413,0.569c-1.655,0.195-3.167-0.962-3.377-2.617
				c-0.21-1.655,0.962-3.168,2.619-3.378c3.207-0.407,6.627-0.614,10.276-0.617c7.71,0,14.531,0.932,20.852,2.85
				c1.596,0.484,2.498,2.171,2.014,3.767c-0.397,1.304-1.595,2.145-2.89,2.145C1461.945,822.286,1461.649,822.245,1461.356,822.156z
				 M1763.577,819.696c-0.481-1.596,0.426-3.281,2.024-3.761c6.248-1.876,12.995-2.791,20.734-2.8
				c3.65,0.024,7.121,0.212,10.4,0.631c1.655,0.215,2.824,1.729,2.61,3.384c-0.212,1.655-1.732,2.782-3.383,2.611
				c-3.001-0.39-6.214-0.584-9.656-0.584c-0.025,0-0.049,0-0.072,0c-7.036,0.009-13.216,0.841-18.895,2.546
				c-0.289,0.086-0.583,0.127-0.87,0.127C1765.169,821.849,1763.97,821.005,1763.577,819.696z M1628.717,820.764
				c-4.454-0.938-9.168-1.393-14.517-1.393c-5.171,0.006-9.818,0.451-14.209,1.363c-1.618,0.322-3.232-0.711-3.572-2.345
				c-0.339-1.634,0.71-3.233,2.344-3.573c4.796-0.994,9.844-1.481,15.541-1.487c5.667,0,10.789,0.499,15.658,1.522
				c1.633,0.342,2.678,1.944,2.334,3.578c-0.3,1.422-1.555,2.398-2.954,2.398C1629.136,820.828,1628.926,820.808,1628.717,820.764z"
				/>
			<path style="fill:#FFFFFF;" d="M1542.889,933.245c-0.156-1.661,1.062-3.133,2.723-3.289c12.499-1.183,20.572-5.422,26.822-9.414
				c1.405-0.894,3.272-0.484,4.172,0.92c0.898,1.404,0.487,3.275-0.921,4.171c-6.856,4.378-15.724,9.033-29.504,10.334
				c-0.097,0.012-0.193,0.015-0.288,0.015C1544.354,935.982,1543.037,934.811,1542.889,933.245z M1181.444,935.752
				c-12.93-2.109-21.575-7.476-28.664-12.34c-1.376-0.944-1.726-2.823-0.78-4.198c0.946-1.378,2.824-1.729,4.2-0.782
				c6.85,4.699,14.516,9.449,26.215,11.355c1.648,0.268,2.765,1.823,2.496,3.469c-0.24,1.481-1.524,2.534-2.979,2.534
				C1181.771,935.791,1181.608,935.779,1181.444,935.752z M1375.942,933c-0.28-1.643,0.826-3.204,2.471-3.484
				c11.581-1.977,19.263-6.788,26.14-11.547c1.377-0.95,3.258-0.608,4.205,0.764c0.95,1.372,0.608,3.254-0.764,4.204
				c-7.436,5.145-15.766,10.352-28.566,12.532c-0.171,0.029-0.342,0.044-0.51,0.044C1377.472,935.513,1376.193,934.472,1375.942,933
				z M1208.941,932.38c-0.417-1.617,0.555-3.263,2.17-3.682c10.196-2.629,17.09-7.484,24.389-12.624l1.177-0.829
				c1.365-0.962,3.249-0.628,4.209,0.735c0.959,1.366,0.63,3.251-0.736,4.21l-1.17,0.823c-7.421,5.228-15.096,10.632-26.36,13.538
				c-0.252,0.065-0.506,0.094-0.757,0.094C1210.52,934.646,1209.292,933.743,1208.941,932.38z M1348.241,934.481
				c-11.447-2.856-19.206-8.293-26.711-13.55l-0.918-0.643c-1.368-0.956-1.701-2.841-0.744-4.207
				c0.953-1.366,2.839-1.696,4.208-0.743l0.921,0.646c7.378,5.168,14.348,10.051,24.707,12.638c1.62,0.404,2.604,2.041,2.2,3.661
				c-0.342,1.375-1.576,2.289-2.929,2.289C1348.732,934.572,1348.486,934.543,1348.241,934.481z M1041.852,931.336
				c-0.561-1.572,0.26-3.301,1.831-3.862c7.791-2.776,13.609-6.871,19.767-11.207c1.801-1.266,3.603-2.534,5.453-3.767
				c1.39-0.923,3.269-0.552,4.19,0.838c0.925,1.389,0.55,3.263-0.838,4.189c-1.807,1.204-3.566,2.443-5.324,3.682
				c-6.22,4.378-12.65,8.903-21.217,11.96c-0.336,0.118-0.679,0.174-1.015,0.174
				C1043.457,933.342,1042.293,932.572,1041.852,931.336z M1515.131,932.755c-8.74-3.033-15.262-7.602-21.569-12.024
				c-1.674-1.171-3.349-2.345-5.065-3.49c-1.388-0.926-1.763-2.803-0.838-4.189c0.927-1.389,2.802-1.761,4.19-0.838
				c1.756,1.171,3.469,2.369,5.181,3.57c6.242,4.375,12.141,8.508,20.084,11.266c1.576,0.546,2.411,2.269,1.863,3.844
				c-0.434,1.248-1.604,2.03-2.855,2.03C1515.793,932.923,1515.46,932.87,1515.131,932.755z M1682.178,930.587
				c-6.359-2.867-11.575-6.523-16.62-10.06c-2.955-2.071-6.012-4.213-9.212-6.124c-1.434-0.853-1.902-2.708-1.047-4.142
				c0.856-1.431,2.713-1.9,4.143-1.044c3.393,2.024,6.542,4.231,9.587,6.363c5.035,3.531,9.793,6.865,15.634,9.496
				c1.521,0.687,2.198,2.475,1.512,3.997c-0.504,1.118-1.604,1.779-2.756,1.779C1683.003,930.852,1682.583,930.767,1682.178,930.587
				z M1596.92,908.476c-0.621-1.546,0.13-3.307,1.679-3.927c7.629-3.062,16.028-4.555,25.79-4.567c1.776,0,3.482,0.05,5.124,0.145
				c1.666,0.094,2.939,1.522,2.843,3.189c-0.096,1.664-1.579,2.941-3.191,2.841c-1.53-0.089-3.12-0.133-4.88-0.133
				c-8.867,0.009-16.533,1.363-23.434,4.13c-0.369,0.15-0.75,0.218-1.124,0.218C1598.528,910.373,1597.394,909.656,1596.92,908.476z
				 M1127.391,909.198c-5.744-1.743-11.99-2.59-19.202-2.59c-3.287,0.003-6.453,0.195-9.413,0.569
				c-1.655,0.195-3.168-0.962-3.377-2.617c-0.209-1.655,0.962-3.168,2.619-3.378c3.207-0.407,6.627-0.614,10.276-0.617
				c7.71,0,14.531,0.932,20.852,2.85c1.596,0.484,2.498,2.171,2.014,3.767c-0.397,1.304-1.595,2.145-2.89,2.145
				C1127.979,909.328,1127.683,909.287,1127.391,909.198z M1429.611,906.738c-0.481-1.596,0.426-3.281,2.024-3.761
				c6.248-1.876,12.995-2.791,20.734-2.8c3.65,0.024,7.121,0.212,10.4,0.631c1.655,0.215,2.824,1.729,2.61,3.384
				c-0.213,1.655-1.732,2.782-3.383,2.611c-3.001-0.389-6.214-0.584-9.656-0.584c-0.025,0-0.049,0-0.072,0
				c-7.036,0.009-13.216,0.841-18.895,2.546c-0.289,0.086-0.583,0.127-0.871,0.127
				C1431.203,908.892,1430.004,908.048,1429.611,906.738z M1294.751,907.806c-4.454-0.938-9.168-1.392-14.517-1.392
				c-5.171,0.006-9.818,0.451-14.209,1.363c-1.618,0.322-3.232-0.711-3.572-2.345c-0.339-1.634,0.71-3.233,2.344-3.573
				c4.796-0.994,9.843-1.481,15.541-1.487c5.667,0,10.789,0.499,15.658,1.522c1.633,0.342,2.678,1.944,2.334,3.578
				c-0.299,1.422-1.555,2.398-2.954,2.398C1295.17,907.871,1294.961,907.85,1294.751,907.806z"/>
		</g>
		<g>
			<rect x="427.309" y="1445.197" style="fill:#2D353A;" width="974.959" height="712.436"/>
			<rect x="332.753" y="1445.546" style="fill:#363E44;" width="960.595" height="712.436"/>
			<g>
				<g>
					
						<ellipse transform="matrix(1 -0.001 0.001 1 -1.8798 0.7011)" style="fill:#EFBC73;" cx="670.166" cy="1799.765" rx="51.702" ry="51.692"/>
					<path style="fill:#EFBC73;" d="M620.31,1803.747c0,0-38.362,21.396-65.482,27.957c-31.463,7.611-58.587-36.396-93.737-9.382
						c-28.935,22.238-30.144,84.06,29.958,114.292c29.079,14.627,84.603-4.705,112.257-27.494
						c34.352-28.308,45.394-72.998,45.394-72.998L620.31,1803.747z"/>
					<path style="fill:#EFBC73;" d="M662.588,1754.324c0,0-19.659-39.276-24.998-66.657c-6.194-31.766,38.993-56.885,13.577-93.204
						c-20.922-29.897-82.641-33.877-115.542,24.797c-15.919,28.388,0.908,84.713,22.438,113.355
						c26.745,35.58,70.904,48.613,70.904,48.613L662.588,1754.324z"/>
					<path style="fill:#EFBC73;" d="M718.231,1803.204c0,0,36.726-24.096,63.305-32.587c30.835-9.851,61.051,32.095,94.169,2.626
						c27.263-24.258,24.027-86.008-38.091-111.845c-30.054-12.501-84.047,10.769-109.992,35.484
						c-32.229,30.702-40.032,76.07-40.032,76.07L718.231,1803.204z"/>
					<path style="fill:#EFBC73;" d="M674.086,1848.052c0,0,21.391,38.36,27.946,65.476c7.605,31.459-36.418,58.567-9.407,93.716
						c22.235,28.935,84.069,30.159,114.322-29.924c14.637-29.069-4.685-84.588-27.471-112.242
						c-28.305-34.352-73.001-45.403-73.001-45.403L674.086,1848.052z"/>
				</g>
				<g>
					<path style="fill:#FFFFFF;" d="M667.763,2083.567c-159.61,0-289.462-126.416-289.462-281.805
						c0-155.386,129.852-281.802,289.462-281.802s289.464,126.416,289.464,281.802
						C957.227,1957.151,827.373,2083.567,667.763,2083.567z M667.763,1528.128c-155.105,0-281.292,122.752-281.292,273.634
						c0,150.884,126.187,273.637,281.292,273.637s281.293-122.752,281.293-273.637
						C949.057,1650.881,822.868,1528.128,667.763,1528.128z"/>
					<path style="fill:#FFFFFF;" d="M800.596,1559.042H538.301c-2.257,0-4.085-1.829-4.085-4.084c0-2.255,1.828-4.084,4.085-4.084
						h262.295c2.257,0,4.085,1.829,4.085,4.084C804.681,1557.212,802.853,1559.042,800.596,1559.042z"/>
					<path style="fill:#FFFFFF;" d="M858.189,1600.219H475.255c-2.257,0-4.085-1.829-4.085-4.084c0-2.255,1.828-4.084,4.085-4.084
						h382.934c2.255,0,4.085,1.829,4.085,4.084C862.274,1598.39,860.444,1600.219,858.189,1600.219z"/>
					<path style="fill:#FFFFFF;" d="M897.212,1641.393h-460.49c-2.257,0-4.085-1.829-4.085-4.084s1.828-4.084,4.085-4.084h460.49
						c2.255,0,4.085,1.829,4.085,4.084S899.467,1641.393,897.212,1641.393z"/>
					<path style="fill:#FFFFFF;" d="M923.063,1682.57H415.179c-2.257,0-4.085-1.829-4.085-4.084c0-2.255,1.828-4.084,4.085-4.084
						h507.884c2.255,0,4.085,1.829,4.085,4.084C927.148,1680.741,925.318,1682.57,923.063,1682.57z"/>
					<path style="fill:#FFFFFF;" d="M937.496,1723.748H395.143c-2.257,0-4.085-1.829-4.085-4.084s1.828-4.084,4.085-4.084h542.352
						c2.255,0,4.085,1.829,4.085,4.084S939.751,1723.748,937.496,1723.748z"/>
					<path style="fill:#FFFFFF;" d="M947.974,1764.925H388.387c-2.257,0-4.085-1.829-4.085-4.084s1.828-4.084,4.085-4.084h559.587
						c2.255,0,4.085,1.829,4.085,4.084S950.229,1764.925,947.974,1764.925z"/>
					<path style="fill:#FFFFFF;" d="M953.142,1806.102H384.939c-2.257,0-4.085-1.829-4.085-4.084s1.828-4.084,4.085-4.084h568.203
						c2.255,0,4.085,1.829,4.085,4.084S955.397,1806.102,953.142,1806.102z"/>
					<path style="fill:#FFFFFF;" d="M948.833,1847.276H384.939c-2.257,0-4.085-1.829-4.085-4.084s1.828-4.084,4.085-4.084h563.894
						c2.255,0,4.085,1.829,4.085,4.084S951.088,1847.276,948.833,1847.276z"/>
					<path style="fill:#FFFFFF;" d="M939.357,1888.453H397.005c-2.257,0-4.085-1.829-4.085-4.084c0-2.255,1.828-4.084,4.085-4.084
						h542.352c2.255,0,4.085,1.829,4.085,4.084C943.442,1886.624,941.613,1888.453,939.357,1888.453z"/>
					<path style="fill:#FFFFFF;" d="M922.121,1929.63H414.239c-2.257,0-4.085-1.829-4.085-4.084c0-2.255,1.828-4.084,4.085-4.084
						h507.882c2.255,0,4.085,1.829,4.085,4.084C926.206,1927.801,924.376,1929.63,922.121,1929.63z"/>
					<path style="fill:#FFFFFF;" d="M896.271,1970.807h-456.18c-2.257,0-4.085-1.829-4.085-4.084c0-2.255,1.828-4.084,4.085-4.084
						h456.18c2.255,0,4.085,1.829,4.085,4.084C900.356,1968.978,898.526,1970.807,896.271,1970.807z"/>
					<path style="fill:#FFFFFF;" d="M858.354,2011.985H479.727c-2.257,0-4.085-1.829-4.085-4.084c0-2.255,1.828-4.084,4.085-4.084
						h378.628c2.255,0,4.085,1.829,4.085,4.084C862.439,2010.155,860.609,2011.985,858.354,2011.985z"/>
					<path style="fill:#FFFFFF;" d="M798.092,2053.159H539.522c-2.257,0-4.085-1.83-4.085-4.084c0-2.255,1.828-4.084,4.085-4.084
						h258.571c2.257,0,4.085,1.829,4.085,4.084C802.177,2051.33,800.349,2053.159,798.092,2053.159z"/>
				</g>
			</g>
			<g>
				<g>
					<path style="fill:#EFBC73;" d="M1207.17,1847.497h-146.712c-8.519,0-15.489-6.969-15.489-15.486
						c0-8.517,6.97-15.486,15.489-15.486h146.712c8.519,0,15.489,6.969,15.489,15.486
						C1222.659,1840.528,1215.689,1847.497,1207.17,1847.497z"/>
					<path style="fill:#EFBC73;" d="M1207.17,1771.638h-146.712c-8.519,0-15.489-6.969-15.489-15.486
						c0-8.517,6.97-15.486,15.489-15.486h146.712c8.519,0,15.489,6.969,15.489,15.486
						C1222.659,1764.669,1215.689,1771.638,1207.17,1771.638z"/>
					<path style="fill:#EFBC73;" d="M1207.17,1923.356h-146.712c-8.519,0-15.489-6.969-15.489-15.486
						c0-8.517,6.97-15.486,15.489-15.486h146.712c8.519,0,15.489,6.969,15.489,15.486
						C1222.659,1916.388,1215.689,1923.356,1207.17,1923.356z"/>
					<path style="fill:#363E44;" d="M1207.17,1999.216h-146.712c-8.519,0-15.489-6.969-15.489-15.486
						c0-8.517,6.97-15.486,15.489-15.486h146.712c8.519,0,15.489,6.969,15.489,15.486
						C1222.659,1992.247,1215.689,1999.216,1207.17,1999.216z"/>
				</g>
				<g>
					<ellipse style="fill:#EFBC73;" cx="1108.007" cy="1613.032" rx="20.119" ry="20.115"/>
					<ellipse style="fill:#EFBC73;" cx="1187.517" cy="1613.032" rx="20.119" ry="20.115"/>
				</g>
			</g>
		</g>
		<g>
			<g>
				<path style="fill:#FFFFFF;" d="M1893.816,1953.738h-0.016c-46.216,0-83.681-37.465-83.681-83.681v-743.842
					c0-46.216,37.465-83.681,83.681-83.681h0.016c46.216,0,83.681,37.465,83.681,83.681v743.842
					C1977.497,1916.272,1940.032,1953.738,1893.816,1953.738z"/>
				<ellipse style="fill:#FFFFFF;" cx="1893.808" cy="1924.632" rx="203.61" ry="203.57"/>
				<path style="fill:#E6D0BE;" d="M1893.807,2130.407c-60.569,0-117.801-26.511-157.02-72.736c-0.787-0.928-0.673-2.32,0.255-3.107
					c0.93-0.789,2.322-0.674,3.108,0.255c38.379,45.235,94.385,71.179,153.657,71.179c111.055,0,201.405-90.332,201.405-201.365
					c0-49.035-17.832-96.282-50.213-133.037c-0.804-0.914-0.717-2.307,0.197-3.112c0.913-0.806,2.306-0.718,3.112,0.196
					c33.091,37.562,51.314,85.844,51.314,135.953C2099.622,2038.097,2007.294,2130.407,1893.807,2130.407z"/>
			</g>
			<g>
				<path style="fill:#363E44;" d="M1977.497,1165.379h-32.176c-1.218,0-2.205-0.987-2.205-2.205s0.987-2.205,2.205-2.205h32.176
					c1.218,0,2.205,0.987,2.205,2.205S1978.714,1165.379,1977.497,1165.379z"/>
				<path style="fill:#363E44;" d="M1977.497,1269.517h-32.176c-1.218,0-2.205-0.987-2.205-2.205c0-1.218,0.987-2.205,2.205-2.205
					h32.176c1.218,0,2.205,0.987,2.205,2.205C1979.702,1268.53,1978.714,1269.517,1977.497,1269.517z"/>
				<path style="fill:#363E44;" d="M1977.497,1373.656h-32.176c-1.218,0-2.205-0.987-2.205-2.205c0-1.218,0.987-2.205,2.205-2.205
					h32.176c1.218,0,2.205,0.987,2.205,2.205C1979.702,1372.669,1978.714,1373.656,1977.497,1373.656z"/>
				<path style="fill:#363E44;" d="M1977.497,1477.795h-32.176c-1.218,0-2.205-0.987-2.205-2.205c0-1.218,0.987-2.205,2.205-2.205
					h32.176c1.218,0,2.205,0.987,2.205,2.205C1979.702,1476.808,1978.714,1477.795,1977.497,1477.795z"/>
				<path style="fill:#363E44;" d="M1977.497,1581.934h-32.176c-1.218,0-2.205-0.987-2.205-2.205s0.987-2.205,2.205-2.205h32.176
					c1.218,0,2.205,0.987,2.205,2.205S1978.714,1581.934,1977.497,1581.934z"/>
				<path style="fill:#363E44;" d="M1977.497,1686.073h-32.176c-1.218,0-2.205-0.987-2.205-2.205c0-1.218,0.987-2.205,2.205-2.205
					h32.176c1.218,0,2.205,0.987,2.205,2.205C1979.702,1685.086,1978.714,1686.073,1977.497,1686.073z"/>
			</g>
			<g>
				<ellipse style="fill:#D87355;" cx="1893.808" cy="1924.632" rx="83.689" ry="83.673"/>
				<path style="fill:#D87355;" d="M1894.789,1933.54h-1.963c-8.501,0-15.392-6.891-15.392-15.392v-774.612
					c0-8.501,6.891-15.392,15.392-15.392h1.963c8.501,0,15.392,6.891,15.392,15.392v774.612
					C1910.182,1926.649,1903.29,1933.54,1894.789,1933.54z"/>
			</g>
		</g>
		<g>
			<g>
				<g>
					<path style="fill:#BC8271;" d="M1113.567,1002.189c153.937,63.907,195.794,138.429,166.845,194.719
						c-16.793,32.653-107.762,52.866-234.261-36.806C1058.641,1108.932,1097.085,1063.764,1113.567,1002.189z"/>
					<path style="fill:#BC8271;" d="M608.962,997.691c-57.3,61.237-262.793,257.587-195.558,325.724
						c55.614,56.36,249.719-142.67,310.374-200.059C685.507,1081.468,647.235,1039.579,608.962,997.691z"/>
					<path style="fill:#FFFFFF;" d="M562.446,990.508c0,0,153.412-72.934,294.25-60.359
						c140.838,12.575,278.531,67.904,278.531,67.904l-55.562,167.662l14.091,278.289H597.14l30.695-264.246L562.446,990.508z"/>
				</g>
				<g>
					<path style="fill:#BC8271;" d="M670.001,1542.218c22.32,31.691,37.086,38.392,41.996,34.695
						c8.256-6.218,0.276-41.074-26.51-91.5C679.754,1500.852,675.735,1526.779,670.001,1542.218z"/>
					<path style="fill:#BC8271;" d="M525.8,1228.85c0.004,0.001,0.009,0,0.011,0.004c79.94,130.495,139.158,221.547,156.335,250.374
						c1.799,3.019,4.998,8.333,7.128,16.108c7.896,28.81-11.526,45.243-17.046,79.324c-6.264,38.671,12.103,63.992,3.52,69.132
						c-5.97,3.575-15.588-4.026-27.962-25.411c-0.001-0.002-0.005,0-0.004,0.002c7.534,17.328,16.725,41.275,7.136,45.411
						c-11.327,4.183-25.429-22.684-33.166-39.354c9.365,20.177,8.308,33.708,2.387,34.682c-9.319,1.532-20.225-12.423-31.567-39.571
						c-0.001-0.001-0.002-0.001-0.002,0c2.595,20.932,0.105,26.397-5.338,25.982c-9.939-0.759-18.843-23.253-23.667-44.345
						c-5.43-23.745-1.405-44.044,1.439-56.783c0-0.003,0-0.007-0.002-0.01c-65.464-85.591-117.094-158.202-159.245-226.706
						C376.685,1270.441,465.004,1204.998,525.8,1228.85z"/>
					<path style="fill:#363E44;" d="M598.571,1346.822c-0.738,0-1.459-0.37-1.877-1.044l-9.682-15.611
						c-18.984-30.608-54.322-87.579-63.044-101.814c-0.636-1.038-0.311-2.395,0.728-3.032c1.04-0.637,2.395-0.311,3.032,0.728
						c8.717,14.224,44.05,71.189,63.032,101.793l9.683,15.612c0.642,1.035,0.322,2.394-0.713,3.035
						C599.369,1346.715,598.967,1346.822,598.571,1346.822z"/>
					<path style="fill:#363E44;" d="M676.721,1554.52c-0.245,0-0.495-0.042-0.74-0.128c-1.148-0.409-1.746-1.67-1.337-2.817
						c1.577-4.428,3.252-8.558,4.872-12.552c3.365-8.297,6.546-16.133,7.74-24.25c0.178-1.206,1.304-2.039,2.502-1.86
						c1.205,0.177,2.038,1.297,1.86,2.502c-1.272,8.642-4.548,16.717-8.016,25.266c-1.602,3.95-3.26,8.034-4.805,12.373
						C678.477,1553.956,677.628,1554.52,676.721,1554.52z"/>
					<path style="fill:#363E44;" d="M648.377,1619.624c-0.915,0-1.77-0.574-2.084-1.488c-2.299-6.679-3.695-13.618-4.147-20.623
						c-0.312-4.826-0.174-9.718,0.408-14.539c0.145-1.209,1.224-2.079,2.453-1.924c1.209,0.146,2.07,1.245,1.924,2.453
						c-0.55,4.552-0.679,9.17-0.384,13.726c0.426,6.613,1.744,13.165,3.914,19.472c0.397,1.151-0.215,2.406-1.366,2.802
						C648.857,1619.585,648.615,1619.624,648.377,1619.624z"/>
					<path style="fill:#363E44;" d="M623.653,1628.252c-0.915,0-1.77-0.574-2.084-1.488c-2.3-6.679-3.695-13.618-4.147-20.623
						c-0.312-4.829-0.174-9.721,0.409-14.54c0.146-1.21,1.266-2.074,2.453-1.923c1.209,0.146,2.07,1.245,1.924,2.453
						c-0.551,4.55-0.68,9.168-0.385,13.726c0.426,6.613,1.744,13.165,3.914,19.472c0.397,1.151-0.215,2.406-1.366,2.802
						C624.133,1628.214,623.891,1628.252,623.653,1628.252z"/>
					<path style="fill:#363E44;" d="M592.593,1621.171c-0.915,0-1.77-0.574-2.084-1.488c-2.3-6.679-3.695-13.617-4.148-20.623
						c-0.311-4.828-0.173-9.72,0.409-14.54c0.145-1.21,1.227-2.075,2.454-1.924c1.209,0.146,2.07,1.244,1.924,2.453
						c-0.55,4.551-0.679,9.17-0.385,13.727c0.427,6.614,1.745,13.165,3.915,19.473c0.397,1.151-0.215,2.406-1.366,2.802
						C593.073,1621.132,592.831,1621.171,592.593,1621.171z"/>
				</g>
				<g>
					<g>
						<g>
							<path style="fill:#BC8271;" d="M1138.975,1191.605c72.446-162.857,130.134-275.825,158.529-349.519
								c12.745-33.081,19.191-68.629,47.138-88.155c12.391-8.657,27.589-15.512,33.017-5.782
								c8.478,15.195-27.993,40.159-20.742,52.352c7.286,12.25,35.792-4.875,51.918-18.745c10.863-9.344,25.213-18.772,35.69-10.337
								c14.891,11.989-3.738,33.377-4.805,34.927c10.84-0.647,20.293,4.762,22.887,12.134c3.462,9.842-4.712,24.86-21.091,27.683
								c2.076,0.022,17.477,0.325,20.493,7.652c2.956,7.186-6.166,20.723-25.573,30.08c12.242,0.775,20.033,5.373,20.989,9.823
								c2.685,12.473-14.008,29.434-64.986,49.614c-8.242,24.086-37.591,121.56-60.217,197.254
								c-24.429,81.727-125.739,111.327-189.382,54.533C1141.555,1193.97,1140.267,1192.8,1138.975,1191.605z"/>
							<path style="fill:#363E44;" d="M1166.618,1132.429c-0.306,0-0.617-0.064-0.913-0.199c-1.108-0.504-1.598-1.812-1.093-2.92
								c7.718-16.941,18.061-38.406,28.062-59.165c7.102-14.741,13.811-28.665,18.81-39.388c0.515-1.103,1.827-1.58,2.929-1.066
								c1.104,0.514,1.582,1.826,1.067,2.93c-5.01,10.749-11.725,24.685-18.833,39.439c-9.992,20.737-20.323,42.181-28.021,59.078
								C1168.255,1131.95,1167.455,1132.429,1166.618,1132.429z"/>
							<path style="fill:#363E44;" d="M1337.819,929.586c-0.263,0-0.53-0.047-0.79-0.147c-1.137-0.437-1.704-1.712-1.268-2.849
								c2.269-5.911,7.893-17.031,20.069-25.087c13.765-9.107,27.773-9.152,34.895-8.368c1.21,0.133,2.083,1.222,1.951,2.433
								c-0.134,1.21-1.229,2.084-2.433,1.95c-5.257-0.577-18.9-0.991-31.979,7.663c-11.151,7.378-16.306,17.571-18.386,22.99
								C1339.541,929.047,1338.705,929.586,1337.819,929.586z"/>
						</g>
					</g>
					<polygon style="fill:#EFBC73;" points="1351.478,736.446 1366.177,951.687 1352.908,952.593 1314.512,1030.994 
						1363.21,1103.446 1384.892,1101.966 1378.944,1014.882 1422.677,1011.896 1428.625,1098.979 1450.306,1097.498 
						1488.702,1019.098 1440.004,946.645 1426.734,947.552 1412.035,732.31 1425.304,731.404 1463.7,653.004 1415.002,580.551 
						1393.321,582.032 1399.268,669.115 1355.535,672.102 1349.588,585.019 1327.907,586.499 1289.511,664.9 1338.209,737.352 					
						"/>
					<path style="fill:#BC8271;" d="M1425.352,808.488c-22.464,3.57-35.934,15.859-34.847,23.516
						c0.996,7.019,14.788,14.073,33.605,13.853c0.262-0.003,0.292,0.345,0.035,0.396c-22.096,4.38-35.788,14.703-35.007,21.72
						c0.713,6.397,13.734,12.521,31.694,13.892c0.263,0.02,0.258,0.382-0.005,0.399c-17.474,1.13-29.179,7.835-29.438,13.535
						c-0.275,6.04,13.329,19.492,46.452,15.817L1425.352,808.488z"/>
				</g>
			</g>
			<g>
				<g>
					<path style="fill:#EFBC73;" d="M768.103,774.61c5.921,23.839,15.327,47.445,8.704,75.59
						c-3.665,15.576-22.378,40.678-47.186,39.398c-17.128-0.884-34.315-20.99-31.152-41.689
						c5.039-32.985,30.001-37.165,30.236-69.634c0.177-24.476-20.484-54.078-47.645-56.807
						c-20.278-2.038-36.134,11.712-40.315,15.576c-3.97-12.827-7.941-25.654-11.911-38.482c18.325-7.33,31.61-8.705,49.477-8.246
						c-15.576-7.788-28.404-8.246-49.477-3.665c2.748-11.606,5.498-23.212,8.246-34.817c34.829-2.158,57.618,8.761,67.802,14.66
						C747.363,691.101,758.874,737.448,768.103,774.61z"/>
					<path style="fill:#EFBC73;" d="M751.918,741.693c-0.074,0-0.151-0.004-0.227-0.011c-1.211-0.124-2.093-1.207-1.968-2.418
						c1.097-10.717,1.669-38.329-16.685-63.216c-27.98-37.939-74.734-36.643-79.961-36.367c-1.232,0.058-2.254-0.871-2.317-2.087
						c-0.064-1.216,0.871-2.253,2.086-2.317c5.492-0.285,54.393-1.642,83.74,38.153c19.267,26.124,18.672,55.056,17.522,66.282
						C753.992,740.848,753.035,741.693,751.918,741.693z"/>
					<path style="fill:#363E44;" d="M721.02,808.908c-0.517,0-1.019-0.182-1.419-0.517c-0.447-0.376-0.727-0.915-0.777-1.497
						l-5.539-63.898c-0.105-1.213,0.792-2.282,2.006-2.387l27.384-2.374c1.221-0.1,2.281,0.793,2.387,2.006l5.54,63.897
						c0.106,1.213-0.792,2.282-2.006,2.387l-27.385,2.374C721.147,808.905,721.084,808.908,721.02,808.908z M717.868,744.811
						l5.158,59.505l22.992-1.994l-5.159-59.504L717.868,744.811z"/>
				</g>
				<g>
					<path style="fill:#BC8271;" d="M821.182,689.404c3.572-1.844,38.039-18.989,69.232-3.195
						c23.21,11.752,34.421,34.257,47.516,74.848c15.421,47.8,17.961,78.528,8.233,93.063
						c-15.37,22.966-91.758,15.833-131.835-15.276c-28.928-22.455-42.05-61.016-35.441-97.296
						C785.479,705.367,818.902,690.581,821.182,689.404z"/>
					<path style="fill:#BC8271;" d="M860.245,997.633h-3.271c-23.64,0-42.804-19.164-42.804-42.804v-131.91
						c0-23.64,19.164-42.804,42.804-42.804h3.271c23.64,0,42.804,19.164,42.804,42.804v131.91
						C903.049,978.469,883.885,997.633,860.245,997.633z"/>
					<path style="fill:#363E44;" d="M903.05,871.307c-0.014,0-0.027,0-0.041-0.001c-32.339-0.581-67.528-12.051-89.647-29.221
						c-0.961-0.747-1.136-2.132-0.39-3.094c0.747-0.962,2.132-1.135,3.094-0.39c21.415,16.624,55.574,27.731,87.023,28.296
						c1.218,0.021,2.186,1.026,2.165,2.244C905.232,870.345,904.249,871.307,903.05,871.307z"/>
					<ellipse style="fill:#BC8271;" cx="857.852" cy="981.281" rx="77.951" ry="56.004"/>
					<g>
						<path style="fill:#FFFFFF;" d="M856.698,770.25c0,0,9.694,11.943,24.757,18.204c3.174,1.319,7.804-26.783,4.183-26.606
							C869.618,762.631,856.698,770.25,856.698,770.25z"/>
						<path style="fill:#363E44;" d="M931.815,783.771c0,0-19.422,11.452-40.165,7.719c-3.626-0.653-7.047-1.733-10.234-3.06
							c-3.434-9.263-1.58-19.262,4.152-26.576c3.643-0.183,7.446-0.015,11.295,0.678
							C917.606,766.265,931.815,783.771,931.815,783.771z"/>
					</g>
					<path style="fill:#EFBC73;" d="M898.289,895.714c-0.776,0-1.529-0.411-1.931-1.138c-9.349-16.902-24.46-51.932-20.623-96.633
						c3.492-40.679,20.595-70.614,34.325-88.563c0.743-0.967,2.125-1.152,3.091-0.412c0.968,0.74,1.152,2.124,0.412,3.091
						c-13.375,17.484-30.033,46.641-33.435,86.261c-3.737,43.538,10.982,77.659,20.088,94.123c0.59,1.065,0.203,2.407-0.862,2.996
						C899.015,895.626,898.649,895.714,898.289,895.714z"/>
					<path style="fill:#363E44;" d="M921.422,822.23c-1.604,0-3.208-0.318-4.715-0.979c-6.24-2.736-7.146-9.712-7.182-10.007
						c-0.145-1.209,0.716-2.307,1.925-2.452c1.2-0.144,2.308,0.716,2.452,1.926c0.025,0.192,0.637,4.769,4.575,6.495
						c3.155,1.384,7.021,0.365,9.397-2.477c0.782-0.933,2.172-1.057,3.106-0.277c0.933,0.781,1.058,2.171,0.277,3.106
						C928.737,820.579,925.078,822.23,921.422,822.23z"/>
					<path style="fill:#BC8271;" d="M939.441,777.489c0.77,2.322,2.229,5.603,5.175,8.432c3.553,3.413,6.64,3.641,7.628,6.297
						c0.661,1.782,0.434,4.796-4.165,10.085L939.441,777.489z"/>
					<path style="fill:#363E44;" d="M948.078,804.507c-0.513,0-1.028-0.178-1.446-0.541c-0.918-0.799-1.016-2.192-0.216-3.111
						c3.02-3.473,4.356-6.268,3.762-7.87c-0.271-0.728-0.974-1.175-2.411-2.038c-1.307-0.784-2.934-1.76-4.679-3.436
						c-2.576-2.474-4.509-5.613-5.74-9.328c-0.383-1.156,0.243-2.404,1.398-2.787c1.16-0.385,2.404,0.244,2.787,1.399
						c1.003,3.028,2.555,5.563,4.609,7.535c1.387,1.332,2.718,2.131,3.894,2.836c1.697,1.019,3.453,2.073,4.275,4.283
						c1.233,3.325-0.262,7.347-4.569,12.3C949.306,804.251,948.694,804.507,948.078,804.507z"/>
					<path style="fill:#363E44;" d="M834.49,833.172c-5.746,0-11.688-1.544-17.122-4.538c-1.067-0.587-1.456-1.928-0.868-2.995
						c0.587-1.066,1.928-1.456,2.995-0.867c7.117,3.921,15.17,5.018,22.099,3.008c1.163-0.338,2.391,0.334,2.731,1.503
						c0.339,1.17-0.334,2.393-1.504,2.732C840.151,832.79,837.345,833.172,834.49,833.172z"/>
					<path style="fill:#EFBC73;" d="M758.486,692.326c54.277-66.113,156.613-27.735,165.179,31.018c0,0-36.593-25.326-36.766-25.999
						c-2.529,11.382-7.832,28.395-19.757,46.022c-18.424,27.231-42.292,40.615-54.171,46.259
						c4.661,19.318,10.802,58.481,16.103,83.389C829.075,873.015,669.021,801.302,758.486,692.326z"/>
					
						<ellipse transform="matrix(0.6802 -0.733 0.733 0.6802 -321.3958 864.7855)" style="fill:#BC8271;" cx="830.374" cy="800.723" rx="26.724" ry="31.617"/>
					<path style="fill:#363E44;" d="M823.696,814.883c-0.412,0-0.829-0.115-1.2-0.357c-1.005-0.654-1.967-1.404-2.858-2.232
						c-3.528-3.273-5.769-7.533-6.312-11.994c-0.56-4.6,0.739-8.863,3.655-12.006c1.479-1.596,3.284-2.801,5.361-3.581
						c1.14-0.427,2.413,0.15,2.839,1.29c0.428,1.14-0.148,2.411-1.289,2.839c-1.431,0.537-2.669,1.361-3.679,2.451
						c-2.02,2.176-2.911,5.185-2.51,8.474c0.418,3.428,2.169,6.729,4.934,9.294c0.707,0.656,1.469,1.251,2.264,1.768
						c1.021,0.664,1.31,2.029,0.646,3.05C825.124,814.53,824.417,814.883,823.696,814.883z"/>
					<g>
						<path style="fill:#ff6900;" d="M910.684,681.157c-29.687-42.906-87.959-56.065-133.443-28.953
							c-45.484,27.112-61.629,84.628-38.01,131.151L910.684,681.157z"/>
						<path style="fill:#776E42;" d="M814.17,737.637L988.19,633.77c0,0,3.019,44.354-30.188,76.094
							C893.59,771.427,814.17,737.637,814.17,737.637z"/>
					</g>
				</g>
			</g>
		</g>
		<g>
			<g>
				<path style="fill:#FFFFFF;" d="M1660.926,1197.57c-1.218,0-2.205-0.987-2.205-2.205v-147.681c0-1.218,0.987-2.205,2.205-2.205
					c1.218,0,2.205,0.987,2.205,2.205v147.681C1663.13,1196.583,1662.143,1197.57,1660.926,1197.57z"/>
				<path style="fill:#FFFFFF;" d="M1608.712,1175.943c-0.564,0-1.128-0.215-1.559-0.646c-0.861-0.861-0.861-2.257,0-3.118
					l104.426-104.426c0.861-0.861,2.256-0.861,3.118,0c0.861,0.861,0.861,2.257,0,3.118l-104.426,104.426
					C1609.84,1175.728,1609.276,1175.943,1608.712,1175.943z"/>
				<path style="fill:#FFFFFF;" d="M1734.766,1123.73h-147.681c-1.218,0-2.205-0.987-2.205-2.205s0.987-2.205,2.205-2.205h147.681
					c1.218,0,2.205,0.987,2.205,2.205S1735.983,1123.73,1734.766,1123.73z"/>
				<path style="fill:#FFFFFF;" d="M1713.138,1175.943c-0.564,0-1.128-0.215-1.559-0.646l-104.426-104.426
					c-0.861-0.861-0.861-2.257,0-3.118c0.861-0.861,2.256-0.861,3.118,0l104.426,104.426c0.861,0.861,0.861,2.257,0,3.118
					C1714.266,1175.728,1713.702,1175.943,1713.138,1175.943z"/>
			</g>
			<g>
				<path style="fill:#FFFFFF;" d="M1542.817,1484.681c-1.218,0-2.205-0.987-2.205-2.205v-182.588c0-1.218,0.987-2.205,2.205-2.205
					c1.218,0,2.205,0.987,2.205,2.205v182.588C1545.022,1483.694,1544.035,1484.681,1542.817,1484.681z"/>
				<path style="fill:#FFFFFF;" d="M1478.262,1457.942c-0.564,0-1.128-0.215-1.559-0.646c-0.861-0.861-0.861-2.257,0-3.118
					l129.109-129.109c0.861-0.861,2.256-0.861,3.118,0c0.861,0.861,0.861,2.257,0,3.118l-129.109,129.109
					C1479.391,1457.726,1478.827,1457.942,1478.262,1457.942z"/>
				<path style="fill:#FFFFFF;" d="M1634.111,1393.387h-182.589c-1.218,0-2.205-0.987-2.205-2.205s0.987-2.205,2.205-2.205h182.589
					c1.218,0,2.205,0.987,2.205,2.205S1635.329,1393.387,1634.111,1393.387z"/>
				<path style="fill:#FFFFFF;" d="M1607.371,1457.942c-0.564,0-1.128-0.215-1.559-0.646l-129.109-129.109
					c-0.861-0.861-0.861-2.257,0-3.118c0.861-0.861,2.256-0.861,3.118,0l129.109,129.109c0.861,0.861,0.861,2.257,0,3.118
					C1608.5,1457.726,1607.936,1457.942,1607.371,1457.942z"/>
			</g>
			<g>
				<path style="fill:#FFFFFF;" d="M534.216,930.768c-1.218,0-2.205-0.987-2.205-2.205V780.882c0-1.218,0.987-2.205,2.205-2.205
					s2.205,0.987,2.205,2.205v147.681C536.42,929.781,535.433,930.768,534.216,930.768z"/>
				<path style="fill:#FFFFFF;" d="M482.003,909.14c-0.564,0-1.128-0.215-1.559-0.646c-0.861-0.861-0.861-2.257,0-3.118
					L584.87,800.95c0.861-0.861,2.256-0.861,3.118,0c0.861,0.861,0.861,2.257,0,3.118L483.562,908.495
					C483.131,908.925,482.567,909.14,482.003,909.14z"/>
				<path style="fill:#FFFFFF;" d="M608.057,856.927H460.376c-1.218,0-2.205-0.987-2.205-2.205s0.987-2.205,2.205-2.205h147.681
					c1.218,0,2.205,0.987,2.205,2.205S609.274,856.927,608.057,856.927z"/>
				<path style="fill:#FFFFFF;" d="M586.429,909.14c-0.564,0-1.128-0.215-1.559-0.646L480.444,804.068
					c-0.861-0.861-0.861-2.257,0-3.118c0.861-0.861,2.257-0.861,3.118,0l104.426,104.426c0.861,0.861,0.861,2.257,0,3.118
					C587.557,908.925,586.993,909.14,586.429,909.14z"/>
			</g>
			<g>
				<path style="fill:#D3BBA3;" d="M1612.52,1758.616c-1.218,0-2.205-0.987-2.205-2.205V1608.73c0-1.218,0.987-2.205,2.205-2.205
					s2.205,0.987,2.205,2.205v147.681C1614.724,1757.629,1613.737,1758.616,1612.52,1758.616z"/>
				<path style="fill:#D3BBA3;" d="M1560.307,1736.988c-0.564,0-1.128-0.215-1.559-0.646c-0.861-0.861-0.861-2.257,0-3.118
					l104.427-104.426c0.861-0.861,2.256-0.861,3.118,0c0.861,0.861,0.861,2.257,0,3.118l-104.427,104.426
					C1561.435,1736.773,1560.871,1736.988,1560.307,1736.988z"/>
				<path style="fill:#D3BBA3;" d="M1686.361,1684.776H1538.68c-1.218,0-2.205-0.987-2.205-2.205c0-1.218,0.987-2.205,2.205-2.205
					h147.681c1.218,0,2.205,0.987,2.205,2.205C1688.566,1683.788,1687.578,1684.776,1686.361,1684.776z"/>
				<path style="fill:#D3BBA3;" d="M1664.733,1736.988c-0.564,0-1.128-0.215-1.559-0.646l-104.427-104.426
					c-0.861-0.861-0.861-2.257,0-3.118c0.861-0.861,2.257-0.861,3.118,0l104.427,104.426c0.861,0.861,0.861,2.257,0,3.118
					C1665.862,1736.773,1665.297,1736.988,1664.733,1736.988z"/>
			</g>
			<g>
				<path style="fill:#D3BBA3;" d="M562.446,535.233c-1.218,0-2.205-0.987-2.205-2.205V385.347c0-1.218,0.987-2.205,2.205-2.205
					c1.218,0,2.205,0.987,2.205,2.205v147.681C564.651,534.245,563.664,535.233,562.446,535.233z"/>
				<path style="fill:#D3BBA3;" d="M510.233,513.606c-0.564,0-1.128-0.215-1.559-0.646c-0.861-0.861-0.861-2.257,0-3.118
					L613.1,405.415c0.861-0.861,2.257-0.861,3.118,0c0.861,0.861,0.861,2.257,0,3.118L511.792,512.96
					C511.361,513.39,510.797,513.606,510.233,513.606z"/>
				<path style="fill:#D3BBA3;" d="M636.286,461.392H488.605c-1.218,0-2.205-0.987-2.205-2.205s0.987-2.205,2.205-2.205h147.681
					c1.218,0,2.205,0.987,2.205,2.205S637.504,461.392,636.286,461.392z"/>
				<path style="fill:#D3BBA3;" d="M614.659,513.606c-0.564,0-1.128-0.215-1.559-0.646L508.674,408.533
					c-0.861-0.861-0.861-2.257,0-3.118c0.861-0.861,2.257-0.861,3.118,0l104.426,104.426c0.861,0.861,0.861,2.257,0,3.118
					C615.787,513.39,615.223,513.606,614.659,513.606z"/>
			</g>
		</g>
	</g>
</g>
</svg>
