<?xml version="1.0" encoding="utf-8"?>
<!-- Generator: Adobe Illustrator 27.5.0, SVG Export Plug-In . SVG Version: 6.00 Build 0)  -->
<svg version="1.1" xmlns="http://www.w3.org/2000/svg" xmlns:xlink="http://www.w3.org/1999/xlink" x="0px" y="0px"
	 viewBox="0 0 2500 2500" style="enable-background:new 0 0 2500 2500;" xml:space="preserve">
-
<g id="Illustration">
	<g id="Time_and_attendance_tracking_system_1_">
		<circle style="fill:transparent;" cx="1250" cy="1250" r="915"/>
		<g>
			<path style="fill:#F7F1EB;" d="M688.696,709.214H384.959c0,0-35.493,94.218-28.933,125.768
				c12.183,58.594,144.615,143.985,144.615,203.496s-132.432,144.902-144.615,203.496c-6.56,31.55,28.933,125.768,28.933,125.768
				h303.737c0,0,35.493-94.218,28.933-125.768c-12.183-58.594-144.615-143.985-144.615-203.496s132.432-144.902,144.615-203.496
				C724.189,803.432,688.696,709.214,688.696,709.214z"/>
			<path style="fill:#EFBC73;" d="M547.479,1041.646c0-35.192,62.388-81.493,90.666-120.843H441.431
				c29.64,39.414,97.091,85.9,97.091,120.843c0,44.136,6.642,216.32-47.033,258.973c-18.488,14.691-87.36,50.508-87.36,50.508
				h275.567c0,0-19.393-14.654-70.923-38.001C541.912,1282.834,547.479,1085.782,547.479,1041.646z"/>
			<path style="fill:#FFFFFF;" d="M710.457,1369.947H406.719c-0.917,0-1.74-0.568-2.063-1.428
				c-1.46-3.871-35.643-95.183-29.031-126.994c5.829-28.024,37.349-60.79,70.718-95.479c36.308-37.746,73.853-76.776,73.853-107.568
				c0-30.791-37.544-69.822-73.853-107.568c-33.369-34.69-64.889-67.456-70.718-95.479c-6.612-31.811,27.571-123.123,29.031-126.994
				c0.323-0.859,1.145-1.427,2.063-1.427h303.738c0.917,0,1.74,0.569,2.063,1.427c1.46,3.871,35.643,95.183,29.031,126.994
				c-5.829,28.024-37.348,60.79-70.718,95.479c-36.308,37.746-73.853,76.776-73.853,107.568c0,30.792,37.544,69.822,73.853,107.568
				c33.369,34.69,64.889,67.456,70.718,95.479c6.612,31.811-27.571,123.123-29.031,126.994
				C712.196,1369.378,711.374,1369.947,710.457,1369.947z M408.252,1365.537h300.671c4.382-11.905,34.229-94.634,28.307-123.114
				c-5.568-26.78-38.109-60.607-69.577-93.32c-36.914-38.375-75.084-78.056-75.084-110.625c0-32.568,38.171-72.25,75.084-110.625
				c31.468-32.713,64.009-66.54,69.577-93.32c5.921-28.48-23.926-111.209-28.307-123.114H408.252
				c-4.382,11.905-34.229,94.634-28.307,123.114c5.568,26.78,38.108,60.607,69.577,93.32
				c36.914,38.375,75.084,78.056,75.084,110.625c0,32.569-38.171,72.25-75.084,110.625c-31.468,32.713-64.009,66.54-69.577,93.32
				C374.024,1270.903,403.871,1353.632,408.252,1365.537z"/>
			<path style="fill:#FFFFFF;" d="M675.158,1318.894c-0.205,0-0.413-0.029-0.62-0.089c-1.169-0.342-1.839-1.567-1.497-2.736
				c10.436-35.636,14.573-61.102,11.963-73.646c-4.261-20.495-24.47-44.799-41.599-63.683c-0.818-0.902-0.751-2.296,0.151-3.115
				c0.902-0.817,2.295-0.751,3.113,0.152c18.595,20.496,38.201,44.336,42.654,65.748c2.795,13.439-1.26,38.937-12.049,75.783
				C676.992,1318.27,676.112,1318.894,675.158,1318.894z"/>
			<path style="fill:#FFFFFF;" d="M662.019,882.139c-0.482,0-0.969-0.158-1.376-0.484c-0.952-0.761-1.104-2.149-0.342-3.099
				c14.133-17.646,22.214-32.046,24.703-44.023c2.89-13.89-2.386-43.13-15.257-84.558c-0.362-1.163,0.289-2.398,1.451-2.76
				c1.171-0.361,2.401,0.29,2.76,1.452c9.129,29.386,19.206,68.292,15.365,86.764c-2.672,12.849-10.8,27.428-25.581,45.882
				C663.307,881.856,662.668,882.139,662.019,882.139z"/>
			<rect x="355.796" y="1361.111" style="fill:#D87355;" width="362.396" height="43.826"/>
			<rect x="355.796" y="673.48" style="fill:#D87355;" width="362.396" height="43.826"/>
		</g>
		<g>
			<g>
				
					<rect x="750.991" y="341.388" transform="matrix(-1 -1.224647e-16 1.224647e-16 -1 2911.2251 1682.0831)" style="fill:#D3BBA3;" width="1409.242" height="999.308"/>
				
					<rect x="1043" y="137.806" transform="matrix(-1.836970e-16 1 -1 -1.836970e-16 2253.8267 -657.3983)" style="fill:#F7F1EB;" width="825.225" height="1320.816"/>
				<path style="fill:#D3BBA3;" d="M1307.27,1361.869h41.722l0,0c0,31.297,25.371,56.668,56.668,56.668h99.906
					c31.297,0,56.668-25.371,56.668-56.668l0,0h41.72l41.722,221.72v18.543h-380.126v-18.543L1307.27,1361.869z"/>
				<path style="fill:#D3BBA3;" d="M1645.675,1627.514H1265.55c-1.219,0-2.205-0.987-2.205-2.205s0.986-2.205,2.205-2.205h380.125
					c1.219,0,2.205,0.987,2.205,2.205S1646.893,1627.514,1645.675,1627.514z"/>
			</g>
			<g>
				<rect x="881.695" y="927.888" style="fill:#E6D0BE;" width="67.447" height="184.936"/>
				<rect x="992.999" y="891.046" style="fill:#E6D0BE;" width="67.447" height="221.778"/>
				<rect x="1104.303" y="755.193" style="fill:#E6D0BE;" width="67.447" height="357.632"/>
				<rect x="1215.608" y="811.271" style="fill:#E6D0BE;" width="67.447" height="301.553"/>
				<rect x="1327.07" y="663.312" style="fill:#E6D0BE;" width="67.447" height="449.514"/>
				<rect x="1438.374" y="752.144" style="fill:#E6D0BE;" width="67.447" height="360.682"/>
				<rect x="1549.678" y="880.869" style="fill:#E6D0BE;" width="67.447" height="231.957"/>
				<rect x="1660.982" y="798.044" style="fill:#E6D0BE;" width="67.447" height="314.782"/>
				<rect x="1772.364" y="847.796" style="fill:#E6D0BE;" width="67.447" height="265.029"/>
				<rect x="1883.668" y="718.67" style="fill:#E6D0BE;" width="67.447" height="394.155"/>
				<rect x="1995.13" y="927.891" style="fill:#E6D0BE;" width="67.447" height="184.936"/>
			</g>
		</g>
		<g>
			<g>
				<g>
					
						<rect x="898.301" y="1425.5" transform="matrix(-1 -1.224647e-16 1.224647e-16 -1 2292.3169 3586.2175)" style="fill:#EFBC73;" width="495.714" height="735.217"/>
					
						<rect x="339.24" y="1425.5" transform="matrix(-1 -1.224647e-16 1.224647e-16 -1 1174.1934 3586.2175)" style="fill:#EFBC73;" width="495.714" height="735.217"/>
					
						<rect x="897.846" y="1406.29" transform="matrix(-1 -1.224647e-16 1.224647e-16 -1 2262.9822 3505.6379)" style="fill:#FFFFFF;" width="467.289" height="693.058"/>
					
						<rect x="370.842" y="1406.29" transform="matrix(-1 -1.224647e-16 1.224647e-16 -1 1208.9733 3505.6379)" style="fill:#FFFFFF;" width="467.289" height="693.058"/>
					<circle style="fill:#E6D0BE;" cx="953.461" cy="1550.575" r="32.981"/>
					<circle style="fill:#E6D0BE;" cx="953.461" cy="1677.116" r="32.981"/>
					<circle style="fill:#E6D0BE;" cx="953.461" cy="1803.656" r="32.981"/>
					
						<ellipse transform="matrix(0.7071 -0.7071 0.7071 0.7071 -1085.593 1239.54)" style="fill:#E6D0BE;" cx="953.461" cy="1930.197" rx="32.981" ry="32.981"/>
					<circle style="fill:#E6D0BE;" cx="783.206" cy="1550.575" r="32.981"/>
					<circle style="fill:#E6D0BE;" cx="783.206" cy="1677.116" r="32.981"/>
					<circle style="fill:#E6D0BE;" cx="783.206" cy="1803.656" r="32.981"/>
					
						<ellipse transform="matrix(0.9951 -0.0985 0.0985 0.9951 -186.3846 86.5685)" style="fill:#E6D0BE;" cx="783.206" cy="1930.197" rx="32.981" ry="32.981"/>
					<path style="fill:#EFBC73;" d="M777.297,1518.132c13.266-37.686,49.204-64.782,91.37-64.782
						c42.212,0,78.181,27.156,91.412,64.908c3.507,10.008,5.437,20.751,5.437,31.941c0,11.486-2.021,22.507-5.708,32.739
						c-2.055,0.401-4.175,0.617-6.347,0.617c-2.864,0-5.641-0.366-8.29-1.052c4.211-9.934,6.541-20.852,6.541-32.304
						c0-11.192-2.239-21.867-6.27-31.619c-12.463-30.15-42.175-51.426-76.775-51.426c-34.661,0-64.414,21.351-76.839,51.585
						c-3.99,9.71-6.207,20.329-6.207,31.46c0,11.387,2.307,22.244,6.473,32.134c-2.828,0.79-5.807,1.222-8.888,1.222
						c-1.923,0-3.805-0.174-5.638-0.49c-3.715-10.267-5.751-21.332-5.751-32.865
						C771.817,1538.963,773.761,1528.176,777.297,1518.132z"/>
					<path style="fill:#EFBC73;" d="M777.297,1644.673c13.266-37.686,49.204-64.782,91.37-64.782
						c42.212,0,78.181,27.156,91.412,64.909c3.507,10.008,5.437,20.751,5.437,31.941c0,11.486-2.021,22.507-5.708,32.739
						c-2.055,0.401-4.175,0.616-6.347,0.616c-2.864,0-5.641-0.366-8.29-1.052c4.211-9.935,6.541-20.852,6.541-32.304
						c0-11.192-2.239-21.867-6.27-31.619c-12.463-30.15-42.175-51.426-76.775-51.426c-34.661,0-64.414,21.351-76.839,51.585
						c-3.99,9.71-6.207,20.328-6.207,31.46c0,11.387,2.307,22.244,6.473,32.134c-2.828,0.79-5.807,1.222-8.888,1.222
						c-1.923,0-3.805-0.174-5.638-0.49c-3.715-10.267-5.751-21.332-5.751-32.865
						C771.817,1665.504,773.761,1654.717,777.297,1644.673z"/>
					<path style="fill:#EFBC73;" d="M777.297,1771.214c13.266-37.686,49.204-64.782,91.37-64.782
						c42.212,0,78.181,27.156,91.412,64.909c3.507,10.008,5.437,20.751,5.437,31.941c0,11.486-2.021,22.507-5.708,32.739
						c-2.055,0.401-4.175,0.617-6.347,0.617c-2.864,0-5.641-0.366-8.29-1.052c4.211-9.934,6.541-20.852,6.541-32.303
						c0-11.192-2.239-21.867-6.27-31.619c-12.463-30.15-42.175-51.426-76.775-51.426c-34.661,0-64.414,21.351-76.839,51.585
						c-3.99,9.71-6.207,20.328-6.207,31.46c0,11.387,2.307,22.244,6.473,32.134c-2.828,0.79-5.807,1.222-8.888,1.222
						c-1.923,0-3.805-0.174-5.638-0.49c-3.715-10.267-5.751-21.332-5.751-32.865
						C771.817,1792.044,773.761,1781.257,777.297,1771.214z"/>
					<path style="fill:#EFBC73;" d="M777.297,1897.754c13.266-37.687,49.204-64.782,91.37-64.782
						c42.212,0,78.181,27.156,91.412,64.909c3.507,10.008,5.437,20.751,5.437,31.941c0,11.486-2.021,22.507-5.708,32.739
						c-2.055,0.401-4.175,0.616-6.347,0.616c-2.864,0-5.641-0.366-8.29-1.052c4.211-9.935,6.541-20.852,6.541-32.304
						c0-11.192-2.239-21.867-6.27-31.619c-12.463-30.15-42.175-51.426-76.775-51.426c-34.661,0-64.414,21.351-76.839,51.585
						c-3.99,9.71-6.207,20.329-6.207,31.46c0,11.387,2.307,22.244,6.473,32.134c-2.828,0.79-5.807,1.222-8.888,1.222
						c-1.923,0-3.805-0.174-5.638-0.49c-3.715-10.267-5.751-21.332-5.751-32.865
						C771.817,1918.585,773.761,1907.798,777.297,1897.754z"/>
				</g>
				<g>
					
						<rect x="498.895" y="1635.162" transform="matrix(-1 -1.224647e-16 1.224647e-16 -1 1039.8447 3312.3801)" style="fill:#D87355;" width="42.056" height="42.056"/>
					
						<rect x="414.707" y="1635.162" transform="matrix(-1 -1.224647e-16 1.224647e-16 -1 871.4691 3312.3801)" style="fill:#E6D0BE;" width="42.056" height="42.056"/>
					
						<rect x="667.27" y="1719.35" transform="matrix(-1 -1.224647e-16 1.224647e-16 -1 1376.5955 3480.7556)" style="fill:#E6D0BE;" width="42.056" height="42.056"/>
					
						<rect x="583.082" y="1719.35" transform="matrix(-1 -1.224647e-16 1.224647e-16 -1 1208.2198 3480.7556)" style="fill:#D87355;" width="42.056" height="42.056"/>
					
						<rect x="498.895" y="1719.35" transform="matrix(-1 -1.224647e-16 1.224647e-16 -1 1039.8447 3480.7556)" style="fill:#E6D0BE;" width="42.056" height="42.056"/>
					
						<rect x="414.707" y="1719.35" transform="matrix(-1 -1.224647e-16 1.224647e-16 -1 871.4691 3480.7556)" style="fill:#E6D0BE;" width="42.056" height="42.056"/>
					
						<rect x="667.27" y="1803.538" transform="matrix(-1 -1.224647e-16 1.224647e-16 -1 1376.5955 3649.1313)" style="fill:#D87355;" width="42.056" height="42.056"/>
					
						<rect x="583.082" y="1803.538" transform="matrix(-1 -1.224647e-16 1.224647e-16 -1 1208.2198 3649.1313)" style="fill:#E6D0BE;" width="42.056" height="42.056"/>
					
						<rect x="498.895" y="1803.538" transform="matrix(-1 -1.224647e-16 1.224647e-16 -1 1039.8447 3649.1313)" style="fill:#E6D0BE;" width="42.056" height="42.056"/>
					
						<rect x="414.707" y="1803.538" transform="matrix(-1 -1.224647e-16 1.224647e-16 -1 871.4691 3649.1313)" style="fill:#D87355;" width="42.056" height="42.056"/>
					
						<rect x="667.27" y="1887.726" transform="matrix(-1 -1.224647e-16 1.224647e-16 -1 1376.5955 3817.5068)" style="fill:#E6D0BE;" width="42.056" height="42.056"/>
					
						<rect x="583.082" y="1887.726" transform="matrix(-1 -1.224647e-16 1.224647e-16 -1 1208.2198 3817.5068)" style="fill:#E6D0BE;" width="42.056" height="42.056"/>
					
						<rect x="498.895" y="1887.726" transform="matrix(-1 -1.224647e-16 1.224647e-16 -1 1039.8447 3817.5068)" style="fill:#D87355;" width="42.056" height="42.056"/>
					
						<rect x="414.707" y="1887.726" transform="matrix(-1 -1.224647e-16 1.224647e-16 -1 871.4691 3817.5068)" style="fill:#F7F1EB;" width="42.056" height="42.056"/>
					
						<rect x="667.27" y="1971.913" transform="matrix(-1 -1.224647e-16 1.224647e-16 -1 1376.5955 3985.8821)" style="fill:#E6D0BE;" width="42.056" height="42.056"/>
					
						<rect x="583.082" y="1971.913" transform="matrix(-1 -1.224647e-16 1.224647e-16 -1 1208.2198 3985.8821)" style="fill:#D87355;" width="42.056" height="42.056"/>
					
						<rect x="498.895" y="1971.913" transform="matrix(-1 -1.224647e-16 1.224647e-16 -1 1039.8447 3985.8821)" style="fill:#E6D0BE;" width="42.056" height="42.056"/>
					
						<rect x="414.707" y="1971.913" transform="matrix(-1 -1.224647e-16 1.224647e-16 -1 871.4691 3985.8821)" style="fill:#E6D0BE;" width="42.056" height="42.056"/>
				</g>
				
					<rect x="498.895" y="1478.167" transform="matrix(-1 -1.224647e-16 1.224647e-16 -1 1208.2201 3028.7415)" style="fill:#F7F1EB;" width="210.431" height="72.408"/>
			</g>
			<g>
				<g>
					<g>
						<rect x="1000.579" y="1192.439" style="fill:#ff6900;" width="484.116" height="212.249"/>
						<path style="fill:#84524D;" d="M1412.452,1601.328c-0.065,4.714-1.15,172.541-1.15,172.541l94.051-4.445l52.735-168.096
							H1412.452z"/>
						<path style="fill:#FFFFFF;" d="M1404.138,1758.051l109.591-1.429l60.848,197.088c0,0-167.337,54.163-167.709,50.628
							C1406.495,2000.803,1404.138,1758.051,1404.138,1758.051z"/>
						<path style="fill:#363E44;" d="M1482.464,1815.644h-44.297c-1.219,0-2.205-0.987-2.205-2.205c0-1.218,0.986-2.205,2.205-2.205
							h44.297c1.219,0,2.205,0.987,2.205,2.205C1484.669,1814.656,1483.683,1815.644,1482.464,1815.644z"/>
						<path style="fill:#363E44;" d="M1481.98,1843.276h-43.812c-1.219,0-2.205-0.987-2.205-2.205c0-1.218,0.986-2.205,2.205-2.205
							h43.812c1.219,0,2.205,0.987,2.205,2.205C1484.184,1842.289,1483.198,1843.276,1481.98,1843.276z"/>
						<path style="fill:#ff6900;" d="M1393.606,1630.02h172.459l49.286-250.306c12.328-62.61-33.332-121.741-97.025-125.649
							l-94.217-5.781L1393.606,1630.02z"/>
					</g>
					<g>
						<polygon style="fill:#84524D;" points="874.332,1300.685 992.702,1414.94 1093.037,1339.982 996.381,1206.729 						"/>
						<polygon style="fill:#F7F1EB;" points="971.08,1397.89 1031.441,1535.231 1198.872,1425.744 1081.599,1316.821 						"/>
						<path style="fill:#ff6900;" d="M874.332,1326.341l147.358-105.63l-88.373-136.208
							c-35.529-54.761-110.708-66.606-161.354-25.423l0,0c-51.5,41.877-54.344,119.523-6.045,165.055L874.332,1326.341z"/>
						<path style="fill:#363E44;" d="M1025.292,1407.546c-0.73,0-1.445-0.362-1.865-1.024c-0.652-1.028-0.347-2.391,0.68-3.043
							l49.718-31.548c1.031-0.652,2.392-0.349,3.045,0.68c0.652,1.029,0.347,2.391-0.68,3.043l-49.718,31.548
							C1026.103,1407.434,1025.696,1407.546,1025.292,1407.546z"/>
						<path style="fill:#363E44;" d="M1036.079,1423.32c-0.73,0-1.445-0.362-1.865-1.024c-0.652-1.028-0.347-2.391,0.68-3.044
							l49.718-31.548c1.031-0.652,2.392-0.348,3.045,0.68c0.652,1.029,0.347,2.391-0.68,3.043l-49.718,31.548
							C1036.89,1423.208,1036.484,1423.32,1036.079,1423.32z"/>
					</g>
				</g>
				<g>
					<path style="fill:#FFFFFF;" d="M1032.249,1216.996c0,0,194.865,1.516,344.229,3.715l-32.576-307.868
						c0,0-148.334-55.558-312.461-44.977L1032.249,1216.996z"/>
					<path style="fill:#EFBC73;" d="M1301.88,897.305l32.181,331.652l276.869,6.282c0,0,11.689-111.636-88.91-224.18
						c-23.318-26.087-51.647-47.21-83.125-62.487C1403.974,931.622,1346.886,905.614,1301.88,897.305z"/>
					<path style="fill:#EFBC73;" d="M1085.795,865.064l10.788,353.868c0,0-265.723,71.082-265.798-106.159
						c-0.032-75.981,20.773-132.122,41.717-169.382c20.697-36.818,56.353-62.695,97.78-70.928
						C1001.064,866.346,1041.975,861.438,1085.795,865.064z"/>
					<path style="fill:#363E44;" d="M971.082,1045.824c-0.189,0-0.379-0.024-0.57-0.075c-1.176-0.313-1.875-1.522-1.561-2.698
						l12.019-45.114c0.314-1.178,1.529-1.873,2.698-1.563c1.176,0.313,1.875,1.522,1.561,2.698l-12.019,45.114
						C972.946,1045.173,972.055,1045.824,971.082,1045.824z"/>
					<path style="fill:#363E44;" d="M866.79,1100.084c-0.293,0-0.59-0.059-0.876-0.183c-1.117-0.486-1.628-1.782-1.143-2.899
						c0.25-0.577,25.872-57.57,99.262-50.777c1.214,0.113,2.106,1.186,1.994,2.399c-0.114,1.212-1.152,2.102-2.399,1.993
						c-70.115-6.5-93.841,45.91-94.814,48.144C868.452,1099.589,867.64,1100.084,866.79,1100.084z"/>
					<g>
						<path style="fill:#84524D;" d="M1360.215,1130.013c-13.401-8.761-63.281-54.126-92.665-43.015
							c-29.595,11.191-46.918,41.569-52.997,72.621c0.069,0.109,0.145,0.23,0.212,0.338c2.08,8.509,6.496,20.919,17.04,30.868
							c12.02,11.34,20.49,8.619,35.038,18.612c24.554,16.866,24.184,41.916,34.471,39.561c7.061-1.616,7.908-16.203,5.22-29.708
							c-2.76-13.867-10.381-21.672-8.609-23.163c1.944-1.637,8.661,7.294,18.032,17.633c4.354,4.804,8.187,25.355,18.159,24.57
							c7.951-0.626,9.313-22.99,0.048-40.199c-6.554-12.174-19.071-17.016-17.711-19.143c1.02-1.596,8.409,1.473,13.987,6.016
							c9.207,7.494,13.354,28.478,22.519,27.576c8.979-0.884,9.825-20.436,2.306-36.804c-6.339-13.8-20.556-18.533-18.88-21.186
							c1.178-1.866,7.983-1.071,21.099,4.753c10.947,4.861,29.1,21.373,35.898,10.677
							C1399.098,1161.025,1380.443,1143.235,1360.215,1130.013z"/>
						<path style="fill:#84524D;" d="M977.176,1067.163c-28.729,3.997-53.034,23.584-62.472,51.012
							c-9.004,26.168-8.135,58.922,32.077,84.518c79.677,50.716,295.789-36.73,295.789-36.73l40.54-80.323
							C1183.859,1061.731,1074.227,1053.66,977.176,1067.163z"/>
					</g>
					<g>
						<path style="fill:#363E44;" d="M1663.222,1246.35c-6.752,14.431-21.246,23.652-37.179,23.652H1370.22l114.571-244.868h281.935
							L1663.222,1246.35z"/>
						<path style="fill:#363E44;" d="M1202.295,1245.419L1202.295,1245.419c0,13.643,11.06,24.703,24.703,24.703h235.891
							l11.558-24.703H1202.295z"/>
					</g>
					<g>
						<path style="fill:#84524D;" d="M1735.743,1139.917c-0.901,9.183-2.406,16.552-18.312,14.991
							c-15.906-1.561-40.189-11.461-39.288-20.644c0.901-9.183,26.646-14.173,42.552-12.612
							C1736.6,1123.213,1736.644,1130.734,1735.743,1139.917z"/>
						<path style="fill:#84524D;" d="M1667.298,1157.871c0.901-9.183,26.646-14.173,42.552-12.612
							c15.906,1.561,15.949,9.082,15.048,18.265L1667.298,1157.871z"/>
						<path style="fill:#84524D;" d="M1724.898,1163.525c-0.901,9.184-2.406,16.552-18.312,14.991
							c-15.906-1.561-40.189-11.461-39.288-20.644L1724.898,1163.525z"/>
						<path style="fill:#84524D;" d="M1656.453,1181.479c0.901-9.183,26.646-14.173,42.552-12.612
							c15.906,1.561,15.949,9.082,15.048,18.265L1656.453,1181.479z"/>
						<path style="fill:#84524D;" d="M1714.053,1187.132c-0.901,9.184-2.406,16.552-18.312,14.991s-40.189-11.461-39.288-20.644
							L1714.053,1187.132z"/>
						<path style="fill:#84524D;" d="M1657.757,1202.835c0.716-7.3,21.181-11.266,33.824-10.025
							c12.643,1.241,12.678,7.219,11.962,14.519L1657.757,1202.835z"/>
						<path style="fill:#84524D;" d="M1703.543,1207.329c-0.717,7.3-1.913,13.157-14.556,11.916
							c-12.643-1.241-31.946-9.11-31.23-16.41L1703.543,1207.329z"/>
					</g>
				</g>
				<g>
					<path style="fill:#84524D;" d="M1139.842,764.848c6.491,8.759,5.709,20.339-1.746,25.863
						c-7.455,5.524-18.76,2.901-25.251-5.858c-6.491-8.76-5.709-20.339,1.746-25.863
						C1122.046,753.466,1133.352,756.089,1139.842,764.848z"/>
					<path style="fill:#84524D;" d="M1219.982,760.77c-5.568,9.373-3.615,20.813,4.362,25.552
						c7.977,4.739,18.958,0.982,24.526-8.391c5.568-9.373,3.615-20.813-4.362-25.552
						C1236.531,747.639,1225.55,751.396,1219.982,760.77z"/>
					<path style="fill:#84524D;" d="M1175.993,913.592L1175.993,913.592c-19.468-0.893-34.526-17.398-33.633-36.866l3.27-100.073
						l70.499,3.233l-3.271,100.073C1211.966,899.427,1195.461,914.485,1175.993,913.592z"/>
					<path style="fill:#363E44;" d="M1188.625,857.385c-56.552,3.342-58.653-91.083-58.653-91.083l100.21-3.391
						C1230.182,762.912,1243.459,854.145,1188.625,857.385z"/>
					
						<ellipse transform="matrix(0.9732 -0.2298 0.2298 0.9732 -139.0284 283.8441)" style="fill:#363E44;" cx="1149.392" cy="738.949" rx="35.959" ry="35.959"/>
					<path style="fill:#84524D;" d="M1229.135,770.158c1.599,31.423-18.784,14.896-45.527,16.257
						c-26.743,1.361-49.719,20.095-51.318-11.328c-1.599-31.423,18.784-49.37,45.527-50.731
						C1204.56,722.996,1227.535,738.735,1229.135,770.158z"/>
					<path style="fill:#363E44;" d="M1229.127,787.622c-0.131,0-0.263-0.012-0.396-0.036c-1.199-0.218-1.994-1.366-1.774-2.564
						c0.874-4.806,1.188-9.769,0.934-14.752c-0.226-4.437-0.902-8.831-2.009-13.059c-0.308-1.178,0.398-2.383,1.576-2.691
						c1.173-0.308,2.381,0.396,2.691,1.575c1.182,4.521,1.903,9.214,2.147,13.951c0.269,5.322-0.067,10.626-1.003,15.766
						C1231.102,786.876,1230.172,787.622,1229.127,787.622z"/>
					<path style="fill:#363E44;" d="M1133.769,792.122c-0.958,0-1.841-0.632-2.119-1.601c-1.406-4.934-2.254-10.089-2.521-15.322
						c-0.245-4.839,0.011-9.674,0.762-14.368c0.194-1.203,1.331-2.027,2.526-1.828c1.202,0.192,2.022,1.323,1.828,2.526
						c-0.702,4.39-0.943,8.914-0.71,13.446c0.25,4.901,1.042,9.724,2.358,14.337c0.334,1.171-0.344,2.391-1.516,2.725
						C1134.174,792.094,1133.969,792.122,1133.769,792.122z"/>
					<path style="fill:#363E44;" d="M1184.077,789.827c-0.661,0-1.316-0.296-1.75-0.861c-0.741-0.965-0.562-2.349,0.405-3.092
						c0.939-0.722,1.505-1.436,1.514-1.909c0.006-0.267-0.211-0.596-0.704-1.283c-0.64-0.887-1.514-2.102-1.888-3.91
						c-0.334-1.612-0.196-3.309,0.407-5.044c0.401-1.151,1.664-1.758,2.806-1.359c1.15,0.4,1.759,1.657,1.359,2.807
						c-0.338,0.972-0.422,1.88-0.252,2.701c0.183,0.889,0.631,1.51,1.148,2.229c0.7,0.971,1.568,2.18,1.535,3.944
						c-0.039,1.908-1.126,3.697-3.236,5.319C1185.018,789.678,1184.547,789.827,1184.077,789.827z"/>
					<path style="fill:#FFFFFF;" d="M1176.543,803.743c-2.125,0-5.305-0.424-8.414-2.433c-1.972-1.275-3.654-3.035-4.864-5.093
						c-0.618-1.049-0.269-2.401,0.779-3.018c1.051-0.618,2.399-0.27,3.019,0.781c0.865,1.468,2.063,2.723,3.46,3.626
						c2.683,1.733,5.46,1.803,6.879,1.694c1.214-0.099,2.276,0.812,2.371,2.026c0.095,1.214-0.812,2.275-2.026,2.37
						C1177.4,803.724,1176.995,803.743,1176.543,803.743z"/>
					<path style="fill:#363E44;" d="M1125.899,758.607c0,0,25.891,3.836,52.74-27.808c0,0,49.863,65.206,88.22-13.425
						c0,0-22.468,9.916-34.521-5.753c-19.178-24.932-65.206-45.069-83.426,0.959L1125.899,758.607z"/>
					<g>
						<g>
							<path style="fill:#FFFFFF;" d="M1212.514,762.286l0,0.003l-0.117-0.006c-0.049,0.245-0.196,0.563-0.453,0.568
								c-0.288,0.379-0.399,0.974-0.586,1.372c-0.336,0.716-1.425,0.15-1.09-0.565c0.226-0.482-1.392,0.5-2.107,0.817
								c-2.281,1.012-4.598,1.92-6.949,2.756c-1.096,0.39-2.193,0.789-3.302,1.141c-0.889,0.282-3.818,1.37-4.061,1.242
								c-2.893,2.93-4.436,5.64-4.436,5.64s4.449,1.712,10.087,1.727c0.012-0.076,0.026-0.151,0.035-0.229
								c0.093-0.761,12.907-4.474,13.286-3.917c5.312-3.773,8.223-8.866,8.223-8.866S1217.393,762.562,1212.514,762.286z"/>
							<path style="fill:#363E44;" d="M1203.054,763.514c-3.835,1.368-6.931,3.797-9.198,6.093c0.417,2.415,1.691,4.69,3.78,6.312
								c0.538,0.417,1.105,0.77,1.692,1.064c2.542,0.022,5.335-0.296,8.077-1.274c1.983-0.707,3.757-1.705,5.332-2.814
								c1.91-3.357,1.726-7.464-0.339-10.611C1209.533,762.132,1206.26,762.37,1203.054,763.514z"/>
						</g>
						<g>
							<path style="fill:#FFFFFF;" d="M1148.99,766.371l0,0.003l0.116-0.018c0.074,0.24,0.252,0.54,0.508,0.52
								c0.325,0.348,0.495,0.929,0.721,1.306c0.406,0.679,1.433,0.005,1.027-0.672c-0.273-0.456,1.436,0.358,2.179,0.601
								c2.371,0.777,4.768,1.447,7.191,2.043c1.13,0.278,2.262,0.565,3.401,0.803c0.913,0.191,3.936,0.979,4.165,0.827
								c3.174,2.624,4.981,5.165,4.981,5.165s-4.254,2.151-9.862,2.733c-0.02-0.074-0.041-0.148-0.058-0.224
								c-0.169-0.748-13.291-3.154-13.612-2.56c-5.665-3.219-9.073-7.994-9.073-7.994S1144.163,767.136,1148.99,766.371z"/>
							<path style="fill:#363E44;" d="M1158.525,766.64c3.953,0.975,7.278,3.081,9.765,5.137c-0.172,2.445-1.211,4.836-3.126,6.66
								c-0.493,0.47-1.022,0.877-1.576,1.229c-2.527,0.278-5.337,0.242-8.164-0.455c-2.044-0.504-3.909-1.318-5.588-2.264
								c-2.238-3.148-2.469-7.253-0.73-10.592C1151.939,765.917,1155.22,765.825,1158.525,766.64z"/>
						</g>
					</g>
				</g>
			</g>
		</g>
		<g>
			
				<ellipse transform="matrix(0.7071 -0.7071 0.7071 0.7071 117.4648 1496.8156)" style="fill:#FFFFFF;" cx="1865.549" cy="606.615" rx="227.537" ry="227.537"/>
			<path style="fill:#F2E6DC;" d="M1865.549,813.78c-114.233,0-207.167-92.934-207.167-207.165s92.934-207.165,207.167-207.165
				c114.231,0,207.165,92.934,207.165,207.165S1979.78,813.78,1865.549,813.78z M1865.549,403.86
				c-111.8,0-202.757,90.956-202.757,202.755c0,111.8,90.957,202.756,202.757,202.756c111.8,0,202.755-90.956,202.755-202.756
				C2068.304,494.815,1977.349,403.86,1865.549,403.86z"/>
			<path style="fill:#D87355;" d="M1988.158,704.381c-0.474,0-0.949-0.152-1.352-0.466l-122.611-95.561
				c-0.536-0.418-0.85-1.059-0.85-1.739V479.81c0-1.218,0.986-2.205,2.205-2.205c1.219,0,2.205,0.987,2.205,2.205v125.728
				l121.76,94.9c0.962,0.748,1.132,2.134,0.385,3.094C1989.465,704.09,1988.815,704.381,1988.158,704.381z"/>
		</g>
		<g>
			<path style="fill:#ff6900;" d="M1863.206,1968.808l3.4-12.536c5.653-20.842,22.267-36.915,43.285-41.876l128.375-30.298
				c0,0-20.543,117.471-123.302,110.048C1914.964,1994.146,1874.423,1986.311,1863.206,1968.808z"/>
			<path style="fill:#EFBC73;" d="M1997.413,2011.5v18.824c0,72.392-58.686,131.078-131.079,131.078l0,0
				c-72.393,0-131.079-58.686-131.079-131.078V2011.5H1997.413z"/>
			<path style="fill:#ff6900;" d="M2158.731,1705.068c0,0,23.017,148.729-67.231,166.54
				c-78.044,15.403-133.061-36.246-132.426-38.826c0.006-0.026,0.014-0.054,0.021-0.085c4.506-18.383,16.766-33.922,33.61-42.554
				L2158.731,1705.068z"/>
			<path style="fill:#ff6900;" d="M1911.316,1801.74l0.22-20.54c0.367-34.15-17.999-65.757-47.849-82.35l-182.316-101.346
				c0,0-19.288,187.6,140.281,220.522C1821.652,1818.026,1886.716,1823.548,1911.316,1801.74z"/>
			<path style="fill:#ff6900;" d="M1854.434,1919.594l-0.289-2.856c-2.566-25.393-20.394-46.636-44.957-53.568l-107.672-30.387
				c0,0-9.49,65.889,65.157,90.131C1815.299,1938.705,1854.434,1919.594,1854.434,1919.594z"/>
			<path style="fill:#D3BBA3;" d="M1863.205,2008.61c-1.117,0-2.076-0.847-2.192-1.983l-7.629-75.48
				c-1.884-18.65-15.376-34.204-33.572-38.704l-74.275-18.369c-1.182-0.292-1.903-1.487-1.61-2.669
				c0.291-1.184,1.488-1.904,2.67-1.611l74.275,18.369c20.001,4.946,34.829,22.043,36.901,42.541l7.629,75.48
				c0.123,1.212-0.76,2.293-1.972,2.415C1863.353,2008.607,1863.278,2008.61,1863.205,2008.61z"/>
			<path style="fill:#D3BBA3;" d="M1898.807,2008.61c-0.045,0-0.09-0.001-0.136-0.004c-1.216-0.074-2.142-1.12-2.067-2.335
				l11.887-194.45c1.791-29.317-15.117-56.853-42.073-68.518l-101.228-43.809c-1.117-0.483-1.63-1.782-1.148-2.899
				c0.489-1.119,1.785-1.628,2.9-1.148l101.228,43.809c28.652,12.4,46.624,41.67,44.721,72.834l-11.887,194.45
				C1900.934,2007.71,1899.963,2008.61,1898.807,2008.61z"/>
			<path style="fill:#D3BBA3;" d="M1929.62,2008.611c-0.123,0-0.25-0.011-0.375-0.032c-1.201-0.206-2.007-1.346-1.8-2.546
				l28.223-164.548c2.993-17.458,14.4-32.272,30.516-39.629l134.664-61.468c1.109-0.508,2.416-0.017,2.922,1.09
				c0.504,1.108,0.017,2.416-1.092,2.921l-134.664,61.468c-14.786,6.75-25.254,20.343-28.002,36.362l-28.223,164.548
				C1931.608,2007.853,1930.676,2008.611,1929.62,2008.611z"/>
			<path style="fill:#ff6900;" d="M1832.991,2002.244L1832.991,2002.244c-3.449-22.013-16.17-41.49-34.94-53.496l-20.272-12.967
				l-0.965,11.674c-2.585,31.262,23.452,57.42,54.721,54.915C1832.017,2002.333,1832.502,2002.29,1832.991,2002.244z"/>
		</g>
	</g>
</g>
</svg>
