<?xml version="1.0" encoding="utf-8"?>
<!-- Generator: Adobe Illustrator 27.5.0, SVG Export Plug-In . SVG Version: 6.00 Build 0)  -->
<svg version="1.1" xmlns="http://www.w3.org/2000/svg" xmlns:xlink="http://www.w3.org/1999/xlink" x="0px" y="0px"
	 viewBox="0 0 2500 2500" style="enable-background:new 0 0 2500 2500;" xml:space="preserve">
-
<g id="Illustration">
	<g id="VPN_access_1_">
		<circle style="fill:transparent;" cx="1250" cy="1250" r="915"/>
		<g>
			<g>
				<circle style="fill:#E6D0BE;" cx="1441.965" cy="946.946" r="569.328"/>
				<path style="fill:#FFFFFF;" d="M1524.524,1518.48c-1.137,0-2.248-0.004-3.385-0.011
					c-152.66-0.878-295.839-61.154-403.163-169.722c-107.326-108.568-165.948-252.432-165.069-405.093
					c0.88-152.66,61.155-295.84,169.723-403.163c107.759-106.527,250.315-165.077,401.707-165.077c1.135,0,2.248,0.002,3.385,0.009
					c152.66,0.878,295.84,61.154,403.163,169.722c107.326,108.568,165.947,252.432,165.068,405.092
					c-0.878,152.66-61.153,295.84-169.721,403.163C1818.471,1459.927,1675.913,1518.48,1524.524,1518.48z M1524.377,379.824
					c-311.223,0-565.266,252.236-567.061,563.857c-1.801,312.707,251.14,568.578,563.848,570.378
					c1.087,0.006,2.231,0.009,3.318,0.009c311.222,0.032,565.267-252.236,567.06-563.857
					c1.8-312.708-251.14-568.579-563.848-570.379C1526.608,379.827,1525.465,379.824,1524.377,379.824z"/>
				<path style="fill:#FFFFFF;" d="M1525.428,672.982c-158.105,0-313.514-26.619-449.422-76.984l1.533-4.134
					c135.423,50.183,290.301,76.708,447.889,76.708c156.383,0,310.225-26.143,444.9-75.605l1.52,4.138
					C1836.693,646.743,1682.323,672.982,1525.428,672.982z"/>
				<path style="fill:#FFFFFF;" d="M1072.337,1294.138l-1.552-4.125c137.209-51.639,294.422-78.934,454.644-78.934
					c159.356,0,315.834,27.018,452.511,78.135l-1.546,4.13c-136.188-50.933-292.13-77.856-450.965-77.856
					C1365.731,1215.488,1209.056,1242.684,1072.337,1294.138z"/>
				<path style="fill:#FFFFFF;" d="M1524.431,1518.478c-79.819,0-154.742-59.642-210.969-167.941
					c-55.988-107.84-86.823-251.171-86.823-403.592c0-152.419,30.835-295.752,86.823-403.592
					c56.227-108.299,131.15-167.941,210.969-167.941c79.817,0,154.74,59.642,210.967,167.941
					c55.988,107.84,86.823,251.173,86.823,403.592c0,152.421-30.835,295.752-86.823,403.592
					C1679.171,1458.836,1604.248,1518.478,1524.431,1518.478z M1524.431,379.822c-161.772,0-293.383,254.411-293.383,567.123
					s131.611,567.123,293.383,567.123c161.77,0,293.381-254.411,293.381-567.123S1686.201,379.822,1524.431,379.822z"/>
				<rect x="1522.226" y="378.83" style="fill:#FFFFFF;" width="4.41" height="1136.688"/>
				
					<rect x="1522.117" y="373.911" transform="matrix(0.0078 -1 1 0.0078 568.9816 2460.4089)" style="fill:#FFFFFF;" width="4.41" height="1139.153"/>
			</g>
		</g>
		<g>
			<g>
				<g>
					<rect x="350.867" y="1035.836" style="fill:#D3BBA3;" width="1204.039" height="853.796"/>
					
						<rect x="600.356" y="861.899" transform="matrix(-1.836970e-16 1 -1 -1.836970e-16 2379.0291 473.256)" style="fill:#FFFFFF;" width="705.062" height="1128.488"/>
					
						<ellipse transform="matrix(0.5257 -0.8507 0.8507 0.5257 -1104.4844 1678.3308)" style="fill:#F2E6DC;" cx="952.887" cy="1829.668" rx="22.664" ry="22.664"/>
					<path style="fill:#D3BBA3;" d="M1079.628,1907.722h-35.646c0,26.739-21.677,48.416-48.417,48.416h-85.358
						c-26.74,0-48.416-21.677-48.416-48.416h-35.645l-35.647,189.435v15.843h324.775v-15.843L1079.628,1907.722z"/>
					<path style="fill:#D3BBA3;" d="M1115.275,2135.007H790.5c-1.218,0-2.205-0.986-2.205-2.205s0.987-2.205,2.205-2.205h324.775
						c1.218,0,2.205,0.986,2.205,2.205S1116.492,2135.007,1115.275,2135.007z"/>
				</g>
			</g>
			<g>
				<path style="fill:#D87355;" d="M622.052,1507.368l71.553-237.427h72.421l-109.932,315.703h-67.868l-109.498-315.703h72.204
					L622.052,1507.368z"/>
				<path style="fill:#D87355;" d="M860.781,1474.41v111.234h-65.049v-315.703h123.159c23.706,0,44.558,4.336,62.555,13.009
					c17.997,8.673,31.836,20.997,41.523,36.969c9.683,15.974,14.527,34.151,14.527,54.533c0,30.934-10.59,55.327-31.765,73.179
					c-21.178,17.854-50.488,26.779-87.925,26.779H860.781z M860.781,1421.72h58.11c17.201,0,30.319-4.046,39.355-12.142
					c9.032-8.094,13.552-19.658,13.552-34.694c0-15.466-4.554-27.971-13.661-37.512c-9.107-9.541-21.683-14.452-37.728-14.743
					h-59.628V1421.72z"/>
				<path style="fill:#D87355;" d="M1338.89,1585.643h-65.049l-126.63-207.722v207.722h-65.049v-315.703h65.049l126.845,208.155
					v-208.155h64.833V1585.643z"/>
			</g>
		</g>
		<g>
			<path style="fill:#ff6900;" d="M406.817,1035.66l50.716-119.705l79.333-171.735l242.662,75.986
				c-0.844,3.655,5.649,215.453,5.649,215.453H406.817z"/>
			<g>
				<g>
					<g>
						<g>
							<path style="fill:#E2A18D;" d="M947.132,698.601c11.403-32.345,45.808-50.467,79.039-41.984
								c43.142,11.014,106.844,27.391,140.021,36.469c55.776,15.262,135.903,45.916,131.471,57.069
								c-2.525,6.353-14.317,4.432-45.495-2.799c1.211,1.942,3.423,8.73,0.115,14.239c-4.895,8.151-12.568,6.005-13.331,6.136
								c0.464,0.625,5.367,8.029,3.014,14.041c-2.65,6.772-8.375,9.079-14.08,9.268c1.103,1.587,4.665,9.089,2.115,14.748
								c-3.315,7.357-12.195,8.327-18.595,6.474c-11.739-3.4-43.587-13.488-61.112-16.673
								c-15.086-2.742-148.21-5.003-188.607-36.919C940.051,741.58,939.92,719.061,947.132,698.601z"/>
							<path style="fill:#363E44;" d="M1151.15,756.356c-1.148,0-2.116-0.889-2.197-2.052c-0.085-1.214,0.831-2.267,2.045-2.353
								c12.167-0.848,20.736-5.979,27.62-10.1c7.24-4.334,13.494-8.079,19.738-3.169c3.526,2.767,9.265,4.349,16.6,4.576
								c1.96,0.099,2.705-1.432,2.892-1.891c0.393-0.962,0.398-2.375-0.765-3.443l-27.69-25.422
								c-0.897-0.823-0.957-2.218-0.134-3.116c0.823-0.891,2.218-0.958,3.116-0.131l27.691,25.422
								c2.33,2.138,3.063,5.417,1.867,8.354c-1.186,2.913-3.987,4.709-7.111,4.636c-8.401-0.26-14.856-2.117-19.188-5.518
								c-3.695-2.902-7.395-0.913-14.749,3.486c-6.903,4.134-16.356,9.795-29.577,10.718
								C1151.254,756.353,1151.202,756.356,1151.15,756.356z"/>
							<path style="fill:#363E44;" d="M1193.281,801.677c-0.201,0-0.406-0.028-0.608-0.086c-1.171-0.334-1.847-1.555-1.512-2.726
								c2.326-8.117,9.245-13.825,17.2-14.988l-0.144-0.065c-6.271-2.81-9.636-9.691-8.004-16.362
								c0.918-3.757,3.259-6.909,6.591-8.873c3.332-1.968,7.223-2.491,10.956-1.475l2.803,0.762
								c-1.683-2.937-2.115-6.569-0.871-9.954c2.076-5.646,8.042-8.83,13.89-7.4l13.372,3.271c1.182,0.291,1.907,1.484,1.617,2.666
								c-0.288,1.184-1.487,1.903-2.666,1.619l-13.371-3.271c-3.659-0.9-7.404,1.096-8.704,4.636
								c-1.379,3.755,0.531,7.995,4.258,9.448l8.844,3.447c1.092,0.426,1.66,1.632,1.293,2.745c-0.368,1.111-1.549,1.74-2.672,1.436
								l-18.95-5.15c-2.574-0.7-5.261-0.338-7.56,1.018c-2.3,1.354-3.914,3.529-4.548,6.121c-1.126,4.603,1.197,9.351,5.524,11.289
								l13.463,6.027c1.029,0.461,1.545,1.623,1.195,2.696c-0.348,1.072-1.437,1.71-2.554,1.475l-7.342-1.557
								c-8.476-1.804-16.991,3.32-19.38,11.653C1195.122,801.048,1194.24,801.677,1193.281,801.677z"/>
						</g>
					</g>
					<polygon style="fill:#E2A18D;" points="1036.739,671.322 959.18,567.657 873.977,667.671 957.974,754.151 					"/>
				</g>
				<g>
					<path style="fill:#FFFFFF;" d="M573.401,615.479c9.531-31.094,52.848-51.821,84.732-58.241l155.153-31.236
						c43.718-8.802,117.996-4.349,157.875,41.24l-77.097,127.9l-9.208-7.917l-57.598,160.517l-312.301-93.107l51.74-68.981
						l-19.689-14.333L573.401,615.479z"/>
					<path style="fill:#D3BBA3;" d="M826.159,698.492c-11.578,0-22.953-4.903-30.824-13.877c-0.802-0.915-0.712-2.308,0.203-3.111
						c0.916-0.801,2.31-0.711,3.112,0.205c9.893,11.278,25.994,15.348,40.068,10.128c14.764-5.478,24.305-19.723,23.738-35.452
						c-0.043-1.216,0.908-2.239,2.124-2.282c1.194-0.127,2.239,0.909,2.283,2.123c0.634,17.634-10.061,33.606-26.613,39.745
						C835.67,697.672,830.898,698.492,826.159,698.492z"/>
					<path style="fill:#D3BBA3;" d="M729.99,700.845c-2.236,0-4.493-0.183-6.754-0.56c-16.596-2.758-29.991-15.69-33.331-32.177
						c-0.242-1.193,0.53-2.355,1.723-2.599c1.199-0.25,2.357,0.53,2.599,1.725c2.979,14.706,14.928,26.24,29.733,28.701
						c15.532,2.592,30.895-5.036,38.22-18.965c0.566-1.079,1.898-1.494,2.978-0.924c1.078,0.566,1.492,1.899,0.926,2.978
						C758.937,692.612,744.969,700.845,729.99,700.845z"/>
				</g>
				<g>
					<path style="fill:#E2A18D;" d="M682.696,719.877c4.503,3.698-18.866,232.853-19.945,296.848
						c-0.179,10.596-8.657,19.178-19.25,19.487c-11.707,0.342-22.688,6.185-29.106,15.982c-4.267,6.514-10.871,12.983-20.689,14.59
						c-21.325,3.49,0-30.746,0-30.746h-32.374c-10.535,0.123-20.509,4.783-27.337,12.807c-6.904,8.112-15.483,16.698-19.038,14.125
						c-6.382-4.619,3.512-41.885,15.671-50.477c3.806-2.689,8.309-4.675,12.7-6.135c11.144-3.705,18.736-14.022,18.736-25.766
						V672.779C562.064,672.779,638.744,683.779,682.696,719.877z"/>
					<path style="fill:#363E44;" d="M593.708,1031.713c-0.615,0-1.226-0.256-1.662-0.754c-0.801-0.917-0.706-2.31,0.211-3.111
						l21.921-19.142c0.917-0.801,2.313-0.702,3.111,0.209c0.801,0.917,0.706,2.31-0.211,3.111l-21.921,19.141
						C594.739,1031.534,594.222,1031.713,593.708,1031.713z"/>
				</g>
			</g>
			<g>
				<g>
					<path style="fill:#363E44;" d="M690.582,425.852c-3.55,0-7.016-0.368-10.236-1.051c-15.432-3.277-28.637-12.521-39.804-20.929
						c-1.481-1.115-2.961-2.241-4.441-3.367c-10.079-7.672-20.502-15.604-32.219-20.377c-14.836-6.044-30.042-5.62-40.673,1.137
						c-1.027,0.65-2.39,0.349-3.044-0.678c-0.654-1.027-0.35-2.39,0.677-3.042c11.837-7.521,28.547-8.085,44.703-1.499
						c12.257,4.993,22.917,13.106,33.225,20.952c1.474,1.122,2.947,2.241,4.423,3.352c10.789,8.124,23.518,17.049,38.067,20.136
						c12.548,2.661,29.16,0.142,37.987-11.485c0.733-0.965,2.119-1.158,3.089-0.424c0.97,0.736,1.159,2.121,0.423,3.09
						C715.081,421.787,702.369,425.852,690.582,425.852z"/>
					<path style="fill:#363E44;" d="M615.084,552.477c-0.712,0-1.41-0.344-1.836-0.98c-0.676-1.012-0.404-2.381,0.608-3.058
						c7.214-4.823,13.77-10.875,20.111-16.73c3.113-2.877,6.333-5.848,9.613-8.662c8.095-6.944,20.586-16.422,35.547-18.532
						c11.753-1.654,23.382,1.348,34.629,4.25c1.426,0.368,2.849,0.736,4.269,1.094c12.301,3.096,25.253,5.32,36.641,0.676
						c1.124-0.467,2.415,0.08,2.873,1.208c0.46,1.128-0.081,2.416-1.209,2.874c-12.561,5.122-26.352,2.795-39.382-0.482
						c-1.427-0.359-2.859-0.73-4.294-1.1c-10.83-2.797-22.025-5.682-32.911-4.153c-10.517,1.483-21.096,7.049-33.291,17.512
						c-3.219,2.763-6.409,5.708-9.493,8.554c-6.466,5.971-13.151,12.144-20.653,17.156
						C615.93,552.356,615.505,552.477,615.084,552.477z"/>
					<path style="fill:#363E44;" d="M630.87,500.547c0,0-21.791,0.181-40.793,17.54c-20.608-36.438-40.96-73.022-61.021-109.764
						c16.782-19.499,45.475-27.792,70.072-20.253c11.963,3.666,22.614,10.597,33.108,17.411
						c10.494,6.812,21.197,13.683,33.203,17.208c12.006,3.525,25.709,3.298,36.216-3.496c7.124-4.605,12.247-11.816,19.321-16.497
						c6.744-4.465,14.895-6.37,22.957-7.02c9.053-0.731,18.835,0.255,25.906,5.955c8.371,6.746,10.919,18.327,11.789,29.044
						c1.015,12.52-0.741,24.924,0.009,37.386c0.642,10.659-2.546,20.94-9.46,29.236c-7.015,8.414-17.393,13.941-28.289,15.066
						c-19.952,2.06-38.857-9.961-58.903-10.618c-13.152-0.432-26.124,4.135-37.284,11.11c-11.159,6.974-20.677,16.271-29.543,25.995
						c-2.727,2.991-6.217,6.322-10.179,5.496c-3.184-0.662-5.159-3.765-6.767-6.592c-1.984-3.487-3.949-6.983-5.928-10.47
						C606.111,515.487,620.705,501.748,630.87,500.547z"/>
				</g>
				<path style="fill:#363E44;" d="M728.56,410.767c-3.448,0-7.098-0.863-10.777-2.588c-6.992-3.275-13.304-9.319-17.773-17.016
					c-4.469-7.695-6.589-16.172-5.967-23.87c0.645-7.995,4.148-14.226,9.866-17.546c11.524-6.692,28.527,1.001,37.902,17.146
					c4.47,7.695,6.589,16.172,5.967,23.87c-0.645,7.997-4.148,14.228-9.866,17.548C735.091,409.947,731.921,410.767,728.56,410.767z
					 M713.308,351.696c-2.565,0-5.007,0.601-7.187,1.867c-4.43,2.571-7.158,7.575-7.683,14.086
					c-0.55,6.808,1.363,14.374,5.385,21.301c4.022,6.927,9.645,12.34,15.831,15.238c5.915,2.771,11.614,2.881,16.044,0.308
					c4.43-2.571,7.159-7.575,7.685-14.086c0.549-6.81-1.364-14.376-5.386-21.303C731.729,358.312,721.831,351.696,713.308,351.696z"
					/>
				<path style="fill:#363E44;" d="M748.783,407.239c-12.492,7.254-32.613-4.076-42.593-21.265
					c-9.981-17.189-6.043-33.728,6.449-40.981s28.808-2.476,38.789,14.713C761.409,376.895,761.275,399.986,748.783,407.239z"/>
				<circle style="fill:#363E44;" cx="770.128" cy="441.361" r="59.186"/>
				<path style="fill:#E2A18D;" d="M818.518,513.865c-13.078,9.288-50.02-15.928-50.02-15.928l-21.137-44.212
					c0-22.565,18.293-40.858,40.858-40.858c22.565,0,40.858,18.293,40.858,40.858C829.076,453.725,831.837,504.405,818.518,513.865z
					"/>
				<path style="fill:#E2A18D;" d="M733.953,548.85c16.39,14.554,32.659,21.51,48.686,13.408l27.427-99.587l-49.659,9.806
					L733.953,548.85z"/>
				<path style="fill:#E2A18D;" d="M824.381,464.469c0,0,11.46,12.007,10.851,15.177c-0.728,3.784-13.494,6.092-13.494,6.092
					S824.686,464.498,824.381,464.469z"/>
				<path style="fill:#363E44;" d="M805.974,518.353c-0.128,0-0.258-0.011-0.389-0.034c-16.279-2.898-37.438-17.247-38.331-17.856
					c-1.005-0.687-1.264-2.058-0.578-3.064c0.688-1.008,2.06-1.262,3.064-0.579c0.211,0.144,21.276,14.426,36.619,17.158
					c1.199,0.213,1.998,1.359,1.784,2.556C807.953,517.604,807.023,518.353,805.974,518.353z"/>
				<g>
					<path style="fill:#FFFFFF;" d="M783.454,459.871c0,0,7.497-4.032,16.534-4.032c1.923,0-1.705,15.386-3.53,14.515
						C788.433,466.523,783.454,459.871,783.454,459.871z"/>
					<g>
						<defs>
							<path id="SVGID_1_" d="M783.454,459.871c0,0,11.026-5.93,22.453-3.406c11.428,2.524,18.929,12.547,18.929,12.547
								s-11.026,5.93-22.453,3.406C790.956,469.894,783.454,459.871,783.454,459.871z"/>
						</defs>
						<clipPath id="SVGID_00000114045614574626245130000000358266887157693621_">
							<use xlink:href="#SVGID_1_"  style="overflow:visible;"/>
						</clipPath>
						
							<circle style="clip-path:url(#SVGID_00000114045614574626245130000000358266887157693621_);fill:#363E44;" cx="811.192" cy="466.266" r="15.305"/>
					</g>
				</g>
				<path style="fill:#363E44;" d="M809.883,495.052c-1.607,0-3.211-0.452-4.608-1.359c-2.687-1.744-4.178-4.937-3.8-8.132
					c0.143-1.212,1.241-2.069,2.449-1.931c1.209,0.144,2.073,1.24,1.93,2.448c-0.183,1.542,0.533,3.079,1.821,3.917
					c1.338,0.866,3.078,0.868,4.435-0.004c1.025-0.665,2.389-0.362,3.048,0.661c0.658,1.025,0.362,2.39-0.662,3.047
					C813.093,494.602,811.486,495.052,809.883,495.052z"/>
				<path style="fill:#363E44;" d="M737.417,464.469c0,0,13.028-5.228,26.476,8.575l8.717-4.773c0,0-5.049-55.597,55.887-33.744
					c0,0-20.898-46.687-61.662-29.542C726.07,422.129,737.417,464.469,737.417,464.469z"/>
				<g>
					<path style="fill:#E2A18D;" d="M736.902,474.237c2.384,7.983,9.944,12.775,16.886,10.702
						c6.942-2.073,10.637-10.225,8.253-18.208c-2.383-7.983-9.943-12.775-16.885-10.702
						C738.214,458.102,734.519,466.254,736.902,474.237z"/>
					<path style="fill:#363E44;" d="M756.624,470.295c-0.95,0-1.826-0.618-2.111-1.574c-1.014-3.393-4.117-5.488-6.916-4.64
						c-1.63,0.489-2.886,1.918-3.359,3.828c-0.294,1.18-1.49,1.893-2.67,1.611c-1.182-0.293-1.903-1.488-1.611-2.67
						c0.852-3.438,3.236-6.055,6.378-6.993c5.136-1.527,10.694,1.88,12.402,7.603c0.349,1.167-0.314,2.394-1.481,2.743
						C757.046,470.265,756.833,470.295,756.624,470.295z"/>
				</g>
				<path style="fill:#EFBC73;" d="M750.053,507.233c-7.932,0-14.385-6.453-14.385-14.385c0-7.93,6.453-14.383,14.385-14.383
					c7.931,0,14.384,6.453,14.384,14.383C764.437,500.78,757.984,507.233,750.053,507.233z M750.053,482.874
					c-5.5,0-9.976,4.474-9.976,9.973c0,5.501,4.475,9.976,9.976,9.976c5.5,0,9.974-4.474,9.974-9.976
					C760.027,487.348,755.553,482.874,750.053,482.874z"/>
			</g>
		</g>
		<g>
			<g>
				<path style="fill:#363E44;" d="M1918.265,1498.943c-6.873,0-13.748-2.616-18.982-7.848c-10.467-10.466-10.467-27.498,0-37.964
					c10.469-10.471,27.498-10.469,37.966,0c5.071,5.071,7.863,11.812,7.863,18.982c0,7.17-2.793,13.911-7.863,18.982
					C1932.015,1496.326,1925.14,1498.943,1918.265,1498.943z M1918.265,1449.687c-5.745,0-11.489,2.188-15.864,6.561
					c-8.748,8.748-8.748,22.98,0,31.729c8.746,8.746,22.98,8.744,31.731,0c8.748-8.748,8.748-22.981,0-31.729
					C1929.756,1451.875,1924.011,1449.687,1918.265,1449.687z"/>
				<path style="fill:#363E44;" d="M1969.813,1422.769c-0.564,0-1.128-0.215-1.559-0.646c-27.567-27.567-72.414-27.562-99.977,0
					c-0.861,0.861-2.256,0.861-3.118,0c-0.861-0.861-0.861-2.256,0-3.118c29.285-29.283,76.932-29.283,106.212,0
					c0.861,0.861,0.861,2.256,0,3.118C1970.942,1422.553,1970.377,1422.769,1969.813,1422.769z"/>
				<path style="fill:#363E44;" d="M2011.052,1381.529c-0.564,0-1.128-0.215-1.559-0.646
					c-24.367-24.367-56.768-37.788-91.229-37.788c-34.461,0-66.859,13.421-91.227,37.788c-0.861,0.861-2.256,0.861-3.118,0
					c-0.861-0.861-0.861-2.257,0-3.118c52.02-52.02,136.671-52.024,188.691,0c0.861,0.861,0.861,2.256,0,3.118
					C2012.181,1381.314,2011.616,1381.529,2011.052,1381.529z"/>
				<path style="fill:#363E44;" d="M1784.242,1340.292c-0.564,0-1.128-0.215-1.559-0.646c-0.861-0.861-0.861-2.256,0-3.118
					c36.216-36.216,84.367-56.163,135.583-56.163c51.217,0,99.368,19.947,135.583,56.163c0.861,0.861,0.861,2.256,0,3.118
					c-0.861,0.861-2.256,0.861-3.118,0c-35.383-35.383-82.427-54.871-132.466-54.871c-50.039,0-97.083,19.488-132.466,54.871
					C1785.371,1340.077,1784.807,1340.292,1784.242,1340.292z"/>
			</g>
		</g>
		<g>
			<g>
				<path style="fill:#FFFFFF;" d="M1653.629,1060.069l86.895,37.611l61.915-27.11c128.417-56.229,211.333-182.783,211.333-322.554
					l-3.177-277.212l-272.496-70.905l-277.178,74.071l3.177,298.159C1464.099,897.153,1538.548,1010.259,1653.629,1060.069z"/>
				<path style="fill:#F2E6DC;" d="M1666.133,1019.996l74.838,33.22l53.324-23.945c110.598-49.665,182.01-161.445,182.01-284.898
					l-2.736-244.849l-234.521-59.995l-238.884,62.792l2.736,263.35C1502.901,876.099,1567.02,976.001,1666.133,1019.996z"/>
				<path style="fill:#F7F1EB;" d="M1739.048,439.529l3.436,0.879v612.13l-1.512,0.679l-74.838-33.22
					C1567.02,976.001,1502.9,876.099,1502.9,765.671l-2.736-263.35L1739.048,439.529z"/>
				<path style="fill:#D3BBA3;" d="M1740.12,1114.029c-0.299,0-0.596-0.06-0.876-0.181l-90.146-39.019
					c-120.253-52.05-197.954-170.096-197.954-300.74l-3.296-309.295c-0.011-1.008,0.663-1.895,1.636-2.153l287.552-76.844
					c0.366-0.099,0.754-0.099,1.124-0.004l282.695,73.56c0.963,0.25,1.639,1.113,1.649,2.108l3.297,287.587
					c0,145.86-86.576,278.003-220.564,336.672l-64.233,28.124C1740.723,1113.967,1740.422,1114.029,1740.12,1114.029z
					 M1452.275,466.458l3.279,307.607c0,128.909,76.658,245.366,195.297,296.716l89.265,38.638l63.352-27.739
					c132.384-57.967,217.924-188.523,217.924-332.607l-3.277-285.877l-280.503-72.99L1452.275,466.458z"/>
			</g>
			<g>
				<g>
					<path style="fill:#FFFFFF;" d="M1617.023,666.757v98.536c0,69.816,56.597,126.412,126.412,126.412
						c69.816,0,126.412-56.596,126.412-126.412v-98.536H1617.023z M1714.457,744.936c0-16.004,12.975-28.977,28.979-28.977
						c16.005,0,28.978,12.973,28.978,28.977c0,12.45-7.866,23.036-18.887,27.136v53.33h-20.182v-53.33
						C1722.323,767.972,1714.457,757.386,1714.457,744.936z"/>
					<path style="fill:#363E44;" d="M1743.436,893.911c-70.92,0-128.618-57.698-128.618-128.618v-98.536
						c0-1.219,0.986-2.205,2.205-2.205h252.824c1.219,0,2.205,0.986,2.205,2.205v98.536
						C1872.052,836.214,1814.354,893.911,1743.436,893.911z M1619.228,668.962v96.332c0,68.489,55.719,124.208,124.208,124.208
						c68.487,0,124.206-55.719,124.206-124.208v-96.332H1619.228z M1753.526,827.607h-20.181c-1.219,0-2.205-0.986-2.205-2.205
						v-51.841c-11.358-4.883-18.887-16.198-18.887-28.626c0-17.193,13.989-31.182,31.184-31.182
						c17.193,0,31.182,13.989,31.182,31.182c0,12.428-7.53,23.743-18.887,28.626v51.841
						C1755.73,826.621,1754.744,827.607,1753.526,827.607z M1735.549,823.198h15.772v-51.126c0-0.922,0.573-1.746,1.436-2.067
						c10.438-3.882,17.451-13.957,17.451-25.069c0-14.762-12.01-26.772-26.772-26.772c-14.764,0-26.774,12.01-26.774,26.772
						c0,11.112,7.013,21.187,17.451,25.069c0.863,0.321,1.436,1.146,1.436,2.067V823.198z"/>
				</g>
				<path style="fill:#363E44;" d="M1855.923,642.471c-1.219,0-2.205-0.986-2.205-2.205c0-60.809-49.473-110.282-110.282-110.282
					s-110.282,49.473-110.282,110.282c0,1.219-0.986,2.205-2.205,2.205c-1.219,0-2.205-0.986-2.205-2.205
					c0-63.242,51.449-114.692,114.692-114.692c63.242,0,114.691,51.449,114.691,114.692
					C1858.127,641.485,1857.141,642.471,1855.923,642.471z"/>
			</g>
		</g>
		<g>
			<g>
				<g>
					<path style="fill:#BC8271;" d="M1738.236,1863.34c0-0.004,182.635-172.254,204.958-196.813
						c2.338-2.572,6.443-7.13,13.186-11.386c24.981-15.772,46.125-2.133,79.96-6.731c38.392-5.217,57.055-29.891,64.391-23.251
						c5.103,4.618,0.683,15.908-15.984,33.777c-0.001,0.001,0.001,0.005,0.002,0.003c14.224-12.121,34.231-27.717,40.907-19.837
						c7.221,9.511-14.134,30.595-27.675,42.719c16.391-14.674,29.498-17.573,32.125-12.253c4.135,8.375-5.926,22.715-28.341,41.268
						c-0.001,0.001,0,0.002,0.001,0.002c19.056-8.487,24.944-7.706,26.12-2.436c2.146,9.621-16.57,24.528-35.135,35.17
						c-20.9,11.98-41.266,14.021-54.137,15.002c-0.003,0-0.007,0.002-0.009,0.005c-62.113,86.6-104.371,155.603-164.595,216.902
						C1840.921,2009.16,1743.884,1925.56,1738.236,1863.34z"/>
					<path style="fill:#363E44;" d="M1738.236,1865.543c-0.293,0-0.588-0.058-0.868-0.179c-0.81-0.347-1.337-1.143-1.337-2.024
						c0-0.952,0.271-1.208,1.576-2.437c4.431-4.183,25.067-23.665,51.697-48.913c0.883-0.838,2.282-0.799,3.118,0.082
						c0.838,0.885,0.801,2.28-0.082,3.118c-26.634,25.252-47.274,44.736-51.706,48.919l-0.876,0.827
						C1739.339,1865.334,1738.792,1865.543,1738.236,1865.543z"/>
					<path style="fill:#BC8271;" d="M2006.29,1659.866c23.551-30.249,25.636-46.151,20.723-49.73
						c-8.262-6.02-38.94,11.575-78.929,51.448C1964.343,1662.559,1990.031,1658.891,2006.29,1659.866z"/>
					<path style="fill:#363E44;" d="M2013.907,1652.804c-0.034,0-0.069,0-0.105-0.002c-4.642-0.215-9.03-0.611-13.274-0.993
						c-8.817-0.792-17.152-1.544-25.172-0.334c-1.206,0.166-2.328-0.648-2.51-1.852c-0.181-1.204,0.648-2.328,1.852-2.51
						c8.544-1.288,17.13-0.517,26.227,0.304c4.197,0.377,8.537,0.769,13.085,0.98c1.217,0.056,2.155,1.089,2.099,2.306
						C2016.052,1651.882,2015.077,1652.804,2013.907,1652.804z"/>
					<path style="fill:#363E44;" d="M2052.375,1674.148c-1.049,0-1.979-0.751-2.168-1.819c-0.213-1.199,0.586-2.345,1.785-2.556
						c4.466-0.792,8.869-2,13.093-3.589c6.134-2.313,11.952-5.448,17.29-9.315c0.988-0.719,2.366-0.493,3.079,0.491
						c0.715,0.986,0.495,2.364-0.491,3.079c-5.656,4.1-11.821,7.42-18.323,9.87c-4.479,1.686-9.147,2.967-13.877,3.805
						C2052.632,1674.137,2052.502,1674.148,2052.375,1674.148z"/>
					<path style="fill:#363E44;" d="M2067.663,1695.053c-1.049,0-1.979-0.751-2.168-1.819c-0.213-1.199,0.586-2.345,1.785-2.556
						c4.466-0.792,8.869-2,13.093-3.589c6.132-2.31,11.95-5.443,17.29-9.312c0.99-0.719,2.366-0.493,3.079,0.491
						c0.715,0.986,0.495,2.364-0.491,3.079c-5.658,4.102-11.823,7.422-18.323,9.868c-4.479,1.686-9.147,2.967-13.877,3.805
						C2067.919,1695.042,2067.79,1695.053,2067.663,1695.053z"/>
					<path style="fill:#363E44;" d="M1975.377,1739.315c-0.332,0-0.67-0.075-0.986-0.235c-1.089-0.547-1.529-1.871-0.982-2.958
						c2.233-4.448,8.888-15.414,22.434-21.178c16.045-6.825,30.758-1.729,34.885-0.006c1.124,0.469,1.654,1.761,1.184,2.885
						c-0.471,1.124-1.768,1.649-2.885,1.184c-3.727-1.559-17.01-6.16-31.457-0.006c-12.202,5.193-18.205,15.087-20.22,19.099
						C1976.962,1738.87,1976.184,1739.315,1975.377,1739.315z"/>
					<path style="fill:#363E44;" d="M2069.913,1726.48c-1.049,0-1.979-0.752-2.168-1.819c-0.213-1.199,0.586-2.345,1.785-2.556
						c4.466-0.792,8.869-2,13.093-3.589c6.134-2.313,11.95-5.445,17.29-9.314c0.988-0.719,2.366-0.493,3.079,0.491
						c0.715,0.986,0.495,2.364-0.491,3.079c-5.658,4.1-11.823,7.422-18.323,9.87c-4.479,1.686-9.146,2.967-13.877,3.805
						C2070.169,1726.469,2070.04,1726.48,2069.913,1726.48z"/>
				</g>
				<path style="fill:#EFBC73;" d="M1427.543,1651.92l80.122,10.099c65.929,8.31,126.421,40.811,169.744,91.197l73.824,85.861
					l153.408-144.203l121.192,95.113c0,0-136.533,263.861-279.202,259.259c-142.669-4.602-231.645-225.509-231.645-225.509
					L1427.543,1651.92z"/>
				<path style="fill:#EFBC73;" d="M1339.807,1652.229l-102.636,16.708c-59.69,9.717-113.525,41.619-150.596,89.401
					c-57.159,73.674-136.504,190.432-161.997,298.776c0,0-16.255,65.018,70.929,96.049h309.988l54.674-146.291l233.799-141.858
					l-166.426-213.095L1339.807,1652.229z"/>
				<path style="fill:#363E44;" d="M1298.592,2038.363c-0.114,0-0.232-0.009-0.349-0.028l-223.502-35.665
					c-1.203-0.192-2.022-1.322-1.829-2.524c0.192-1.206,1.318-2.022,2.525-1.83l223.5,35.665c1.204,0.192,2.022,1.322,1.83,2.524
					C1300.595,2037.59,1299.658,2038.363,1298.592,2038.363z"/>
				<path style="fill:#363E44;" d="M1116.014,2006.787c-0.31,0-0.625-0.065-0.925-0.205c-1.106-0.51-1.587-1.822-1.075-2.926
					l50.526-109.186c0.514-1.104,1.828-1.585,2.927-1.074c1.106,0.51,1.587,1.822,1.076,2.926l-50.526,109.186
					C1117.643,2006.314,1116.846,2006.787,1116.014,2006.787z"/>
				<g>
					<polygon style="fill:#363E44;" points="1766.12,2153.579 1263.943,2153.579 1342.953,1809.984 1845.13,1809.984 					"/>
					
						<ellipse transform="matrix(0.1912 -0.9816 0.9816 0.1912 -689.9427 3142.4846)" style="fill:#F2E6DC;" cx="1561.802" cy="1989.881" rx="28.006" ry="25.874"/>
				</g>
			</g>
			<g>
				<path style="fill:#363E44;" d="M1317.769,1563.255l147.113,13.854l13.225-62.321c5.821-27.429-14.064-53.666-44.846-56.565
					l-62.237-5.861c-30.782-2.899-55.215,19.165-54.616,47.199L1317.769,1563.255z"/>
				<path style="fill:#BC8271;" d="M1350.762,1715.969l-0.836-0.811c-8.36-8.116-13.078-19.27-13.078-30.922v-77.99h105.165
					l3.483,76.849c0.558,12.317-4.186,24.283-13.032,32.871C1409.712,1738.059,1373.518,1738.06,1350.762,1715.969z"/>
				<path style="fill:#BC8271;" d="M1467.86,1550.237c-1.926,40.883-26.222,104.582-78.999,102.096
					c-52.777-2.486-70.977-68.187-69.052-109.07c1.926-40.883,36.958-61.733,77.841-59.807
					C1438.534,1485.382,1469.786,1509.354,1467.86,1550.237z"/>
				<g>
					<path style="fill:#FFFFFF;" d="M1328.912,1542.603c0,0,4.608,10.996,14.453,18.808c1.968,1.562,8.665-18.88,4.845-19.466
						C1337.813,1540.351,1328.912,1542.603,1328.912,1542.603z"/>
					<path style="fill:#363E44;" d="M1380.897,1568.558c0,0-16.64,4.21-30.996-2.958c-2.411-1.203-4.599-2.655-6.578-4.231
						c-0.259-1.001-0.473-2.023-0.585-3.083c-0.655-6.217,1.494-12.071,5.404-16.348c3.84,0.583,7.885,1.684,11.766,3.621
						C1374.263,1552.729,1380.897,1568.558,1380.897,1568.558z"/>
				</g>
				
					<ellipse transform="matrix(0.9322 -0.362 0.362 0.9322 -478.5997 582.6166)" style="fill:#BC8271;" cx="1315.432" cy="1568.467" rx="20.934" ry="31.401"/>
				
					<ellipse transform="matrix(0.4481 -0.894 0.894 0.4481 -597.6351 2183.4375)" style="fill:#BC8271;" cx="1469.477" cy="1575.724" rx="31.401" ry="20.934"/>
				<path style="fill:#363E44;" d="M1471.246,1592.176c-0.766,0-1.512-0.401-1.919-1.113c-0.603-1.057-0.232-2.403,0.825-3.008
					c2.956-1.686,5.594-4.623,7.42-8.272c1.83-3.65,2.608-7.519,2.188-10.897c-0.379-3.051-1.692-5.286-3.703-6.292
					c-0.392-0.196-0.805-0.347-1.232-0.444c-1.188-0.269-1.931-1.451-1.66-2.638c0.269-1.188,1.453-1.938,2.638-1.66
					c0.771,0.174,1.52,0.441,2.229,0.797c3.372,1.69,5.54,5.131,6.106,9.691c0.525,4.233-0.407,9-2.623,13.418
					c-2.214,4.418-5.473,8.014-9.179,10.128C1471.991,1592.083,1471.617,1592.176,1471.246,1592.176z"/>
				<path style="fill:#363E44;" d="M1312.997,1584.722c-0.437,0-0.879-0.129-1.264-0.401c-3.492-2.452-6.401-6.341-8.191-10.947
					c-3.876-9.982-1.4-19.942,5.639-22.677c0.732-0.286,1.505-0.482,2.295-0.586c1.201-0.159,2.315,0.691,2.472,1.899
					c0.159,1.208-0.691,2.315-1.899,2.472c-0.446,0.058-0.861,0.166-1.27,0.323c-4.578,1.779-6.007,9.551-3.124,16.971
					c1.475,3.805,3.824,6.978,6.61,8.936c0.997,0.7,1.238,2.076,0.538,3.07C1314.375,1584.394,1313.69,1584.722,1312.997,1584.722z"
					/>
				<path style="fill:#363E44;" d="M1459.363,1594.596c-0.243,0-0.493-0.041-0.736-0.127c-1.148-0.407-1.748-1.667-1.341-2.814
					c3.848-10.865,6.531-22.533,7.758-33.746c0.131-1.212,1.238-2.106,2.431-1.953c1.212,0.134,2.084,1.221,1.953,2.431
					c-1.264,11.547-4.024,23.56-7.986,34.741C1461.12,1594.032,1460.272,1594.596,1459.363,1594.596z"/>
				<path style="fill:#363E44;" d="M1325.349,1592.165c-0.962,0-1.847-0.635-2.121-1.608c-3.822-13.593-5.867-28.669-5.755-42.449
					c0.011-1.212,0.995-2.188,2.205-2.188c0.006,0,0.011,0,0.017,0c1.219,0.011,2.198,1.005,2.188,2.222
					c-0.108,13.377,1.878,28.017,5.592,41.222c0.33,1.171-0.353,2.39-1.527,2.719
					C1325.75,1592.139,1325.547,1592.165,1325.349,1592.165z"/>
				<path style="fill:#363E44;" d="M1391.399,1655.898c-0.956,0-1.916-0.028-2.887-0.088c-11.186-0.68-21.846-5.112-32.594-13.545
					c-0.958-0.754-1.126-2.138-0.375-3.096c0.749-0.958,2.14-1.126,3.096-0.375c10.021,7.865,19.88,11.991,30.14,12.615
					c19.107,1.132,35.284-10.828,47.199-21.407c0.909-0.807,2.3-0.728,3.113,0.185c0.807,0.911,0.726,2.304-0.185,3.113
					C1426.941,1643.925,1410.868,1655.898,1391.399,1655.898z"/>
				<path style="fill:#363E44;" d="M1392.975,1599.195c-0.825,0-1.615-0.463-1.992-1.255c-0.525-1.098-0.058-2.416,1.04-2.939
					c1.977-0.943,4.414-2.47,4.799-4.384c0.22-1.079-0.241-2.013-1.221-3.856c-0.769-1.449-1.727-3.253-2.377-5.65
					c-0.954-3.508-0.975-7.254-0.067-11.136c0.276-1.188,1.464-1.923,2.648-1.645c1.186,0.278,1.923,1.464,1.645,2.648
					c-0.741,3.163-0.73,6.184,0.028,8.976c0.521,1.921,1.281,3.352,2.017,4.739c1.077,2.026,2.19,4.121,1.649,6.797
					c-0.601,2.967-3.029,5.488-7.224,7.489C1393.617,1599.126,1393.294,1599.195,1392.975,1599.195z"/>
				<path style="fill:#363E44;" d="M1388.014,1615.404c-4.395,0-8.948-2.295-11.773-5.988c-1.824-2.386-2.853-5.243-2.905-8.046
					c-0.021-1.219,0.947-2.224,2.164-2.246c0.015,0,0.028,0,0.041,0c1.199,0,2.183,0.96,2.205,2.164
					c0.035,1.873,0.743,3.807,1.998,5.452c2.117,2.762,5.551,4.392,8.737,4.242c1.202-0.067,2.259,0.855,2.33,2.071
					c0.071,1.216-0.857,2.259-2.071,2.33C1388.499,1615.397,1388.255,1615.404,1388.014,1615.404z"/>
				<path style="fill:#363E44;" d="M1319.63,1541.457l37.13-45.04l-3.853,8.711c-3.179,7.187,4.668,14.258,11.487,10.351
					l32.211-18.458l-6.822,8.153c-4.498,5.375,2.14,12.914,8.001,9.072c5.935-3.891,12.52-8.928,19.346-15.413l0.609,2.382
					c1.263,4.937,8.418,4.485,9.05-0.571l6.574,10.174c6.451,9.984,22.188,3.334,19.205-8.172c-0.292-1.126-0.632-2.201-1.027-3.209
					c0,0,7.883,33.384,16.318,50.802l3.394-40.817l-25.145-30.51l-69.427-13.885l-51.983,35.16L1319.63,1541.457z"/>
				<path style="fill:#363E44;" d="M1368.563,1455.997l-3.8-1.089c-7.069-2.024-4.49-12.732,2.696-11.173
					c6.446,1.398,13.091,3.882,19.349,8.018l-2.386-2.595c-4.371-4.753,2.446-11.408,7.142-6.977
					c3.207,3.025,6.127,6.49,8.398,10.42l3.429-8.342c1.681-4.09,7.799-2.643,7.469,1.767l-0.715,9.545l11.505-12.506
					c6.502-7.067,17.583,2.582,11.156,9.718c-1.111,1.234-2.398,2.099-3.886,2.441c0,0,3.728-0.323,9.418-0.654
					c9.516-0.555,11.608,13.133,2.356,15.427L1368.563,1455.997z"/>
				<g>
					<path style="fill:#FFFFFF;" d="M1431.56,1551.645c-12.355,6.451-19.136,18.614-19.136,18.614s8.849,3.326,19.571,2.784
						C1435.72,1572.855,1432.922,1550.934,1431.56,1551.645z"/>
					<path style="fill:#363E44;" d="M1428.266,1553.574c3.43-2.293,6.086-3.281,7.58-3.83c15.065-5.521,31.133,0.516,31.133,0.516
						s-8.358,14.993-23.423,20.515c-3.891,1.427-7.848,2.078-11.579,2.265C1427.824,1568.965,1424.421,1560.334,1428.266,1553.574z"
						/>
				</g>
			</g>
		</g>
	</g>
</g>
</svg>
