<?xml version="1.0" encoding="utf-8"?>
<!-- Generator: Adobe Illustrator 27.5.0, SVG Export Plug-In . SVG Version: 6.00 Build 0)  -->
<svg version="1.1" xmlns="http://www.w3.org/2000/svg" xmlns:xlink="http://www.w3.org/1999/xlink" x="0px" y="0px"
	 viewBox="0 0 2500 2500" style="enable-background:new 0 0 2500 2500;" xml:space="preserve">
-
<g id="Illustration">
	<g id="Youth_rights_1_">
		<circle style="fill:transparent;" cx="1250" cy="1250" r="915"/>
		<g>
			<path style="fill:#D3BBA3;" d="M1864.546,1055.447c-0.928,0-1.791-0.59-2.095-1.52c-0.379-1.156,0.252-2.403,1.41-2.78
				c45.416-14.846,76.831-41.435,93.369-79.025c49.128-111.673-66.265-269.722-159.72-341.377
				c-98.256-75.336-183.153-110.411-280.391-139.898c-1.165-0.353-1.824-1.585-1.471-2.749c0.353-1.163,1.58-1.819,2.75-1.471
				c97.701,29.627,183.011,64.878,281.795,140.617c94.564,72.505,211.152,232.819,161.073,346.652
				c-17.064,38.789-49.374,66.19-96.035,81.441C1865.005,1055.412,1864.772,1055.447,1864.546,1055.447z"/>
			<g>
				<path style="fill:#E6D0BE;" d="M1651.851,424.52c20.6,39.907,6.278,76.76-14.884,83.733
					c-21.161,6.974-55.113-14.062-61.749-58.479c-6.606-44.215,10.846-95.984,10.846-95.984S1629.823,381.847,1651.851,424.52z"/>
				<path style="fill:#D3BBA3;" d="M1645.657,538.081c-0.926,0-1.789-0.588-2.095-1.516l-48.127-146.041
					c-0.381-1.156,0.248-2.403,1.406-2.784c1.152-0.379,2.403,0.248,2.784,1.404l48.127,146.043
					c0.381,1.156-0.248,2.403-1.406,2.784C1646.118,538.046,1645.886,538.081,1645.657,538.081z"/>
			</g>
			<g>
				<path style="fill:#E6D0BE;" d="M1551.053,578.549c49.79-23.345,94.214-4.103,101.76,22.115
					c7.546,26.218-19.775,66.779-74.432,72.829c-54.409,6.022-116.938-17.746-116.938-17.746S1497.812,603.511,1551.053,578.549z"/>
				<path style="fill:#D3BBA3;" d="M1506.08,645.602c-0.958,0-1.841-0.629-2.119-1.596c-0.336-1.169,0.338-2.392,1.509-2.728
					l220.547-63.481c1.158-0.338,2.39,0.338,2.728,1.509c0.336,1.169-0.338,2.392-1.509,2.728l-220.547,63.481
					C1506.487,645.574,1506.28,645.602,1506.08,645.602z"/>
			</g>
			<g>
				<path style="fill:#E6D0BE;" d="M1426.141,458.952c39.557-9.451,68.85,11.139,70.389,31.258
					c1.539,20.119-24.324,45.404-64.816,41.599c-40.308-3.787-82.036-30.367-82.036-30.367S1383.843,469.058,1426.141,458.952z"/>
				<path style="fill:#D3BBA3;" d="M1383.854,501.389c-1.141,0-2.106-0.878-2.196-2.033c-0.095-1.214,0.814-2.276,2.026-2.371
					l133.902-10.447c1.193-0.095,2.276,0.812,2.371,2.026c0.095,1.214-0.814,2.276-2.026,2.371l-133.902,10.447
					C1383.971,501.387,1383.913,501.389,1383.854,501.389z"/>
			</g>
			<g>
				<path style="fill:#E6D0BE;" d="M1876.317,523.633c0.794,54.985-35.019,87.559-62.021,83.652
					c-27.001-3.908-52.731-45.497-35.759-97.803c16.895-52.069,64.283-99.284,64.283-99.284S1875.467,464.837,1876.317,523.633z"/>
				<path style="fill:#D3BBA3;" d="M1809.451,639.636c-0.105,0-0.211-0.006-0.319-0.024c-1.204-0.174-2.039-1.292-1.865-2.498
					l26.264-181.467c0.172-1.208,1.283-2.065,2.498-1.865c1.204,0.174,2.039,1.292,1.865,2.498l-26.264,181.467
					C1811.473,638.846,1810.53,639.636,1809.451,639.636z"/>
			</g>
			<g>
				<path style="fill:#E6D0BE;" d="M1747.578,693.015c37.142-25.247,75.449-15.458,84.915,4.712
					c9.467,20.17-7.336,56.403-50.633,68.331c-43.101,11.873-96.592,0.769-96.592,0.769S1707.862,720.012,1747.578,693.015z"/>
				<path style="fill:#D3BBA3;" d="M1719.674,753.315c-0.829,0-1.624-0.469-1.998-1.268c-0.517-1.102-0.043-2.416,1.059-2.933
					l139.199-65.331c1.109-0.523,2.416-0.041,2.933,1.059c0.517,1.102,0.043,2.416-1.059,2.933l-139.199,65.331
					C1720.305,753.248,1719.986,753.315,1719.674,753.315z"/>
			</g>
			<g>
				<path style="fill:#E6D0BE;" d="M1899.491,877.265c40.205,20.013,50.435,58.204,37.488,76.338
					c-12.947,18.133-52.766,21.234-84.374-10.671c-31.464-31.76-47.986-83.833-47.986-83.833S1856.5,855.864,1899.491,877.265z"/>
				<path style="fill:#D3BBA3;" d="M1960.313,972.949c-0.443,0-0.891-0.133-1.279-0.411l-125.143-89.349
					c-0.99-0.706-1.221-2.084-0.513-3.075c0.704-0.99,2.086-1.219,3.075-0.512l125.143,89.349c0.99,0.706,1.221,2.084,0.512,3.075
					C1961.681,972.628,1961.002,972.949,1960.313,972.949z"/>
			</g>
			<g>
				<path style="fill:#E6D0BE;" d="M1995.136,736.25c8.667,44.066-15.353,75.47-37.62,76.273
					c-22.267,0.803-49.014-28.858-43.015-73.366c5.972-44.305,37.155-89.164,37.155-89.164S1985.867,689.13,1995.136,736.25z"/>
				<path style="fill:#D3BBA3;" d="M1958.167,843.676c-1.18,0-2.157-0.934-2.201-2.125l-5.54-153.666
					c-0.045-1.216,0.906-2.239,2.123-2.282c1.227-0.118,2.239,0.904,2.282,2.123l5.54,153.666c0.045,1.216-0.906,2.239-2.123,2.282
					C1958.221,843.676,1958.195,843.676,1958.167,843.676z"/>
			</g>
		</g>
		<g>
			<path style="fill:#D3BBA3;" d="M678.102,1164.999c-0.031,0-0.062,0-0.094-0.002c-49.045-2.046-87.569-19.671-114.501-52.388
				c-79.037-96.017-10.22-281.913,61.175-377.319c74.586-99.667,147.162-156.702,233.185-211.678
				c1.028-0.654,2.39-0.353,3.046,0.672s0.355,2.388-0.671,3.045c-85.619,54.716-157.842,111.47-232.029,210.605
				c-70.56,94.284-138.838,277.678-61.302,371.872c26.102,31.707,63.541,48.795,111.28,50.786c1.217,0.05,2.162,1.079,2.111,2.295
				C680.253,1164.071,679.277,1164.999,678.102,1164.999z"/>
			<g>
				<path style="fill:#E6D0BE;" d="M712.582,499.966c-9.023,43.995,14.744,75.591,37.003,76.574
					c22.26,0.982,49.245-28.461,43.605-73.016c-5.615-44.352-36.435-89.46-36.435-89.46S722.23,452.922,712.582,499.966z"/>
				<path style="fill:#D3BBA3;" d="M748.702,607.687c-0.033,0-0.067,0-0.099-0.002c-1.216-0.054-2.16-1.083-2.106-2.299
					l6.779-153.616c0.055-1.219,1.163-2.162,2.299-2.106c1.217,0.054,2.16,1.083,2.106,2.299l-6.779,153.616
					C750.85,606.764,749.874,607.687,748.702,607.687z"/>
			</g>
			<g>
				<path style="fill:#E6D0BE;" d="M851.326,620.942c-54.251-8.989-91.804,21.565-91.968,48.846
					c-0.164,27.282,37.121,58.928,91.374,49.95c54.006-8.937,107.763-48.751,107.763-48.751S909.338,630.553,851.326,620.942z"/>
				<path style="fill:#D3BBA3;" d="M912.18,673.391c-0.004,0-0.009,0-0.013,0l-229.495-1.38c-1.218-0.006-2.199-1.001-2.192-2.218
					c0.008-1.219,0.989-2.147,2.218-2.192l229.495,1.38c1.218,0.007,2.199,1.001,2.192,2.218
					C914.378,672.413,913.393,673.391,912.18,673.391z"/>
			</g>
			<g>
				<path style="fill:#E6D0BE;" d="M939.182,471.987c-40.638,1.615-63.261,29.368-59.293,49.152s35.711,37.12,73.66,22.492
					c37.776-14.562,70.747-51.448,70.747-51.448S982.637,470.259,939.182,471.987z"/>
				<path style="fill:#D3BBA3;" d="M859.054,527.674c-1.03,0-1.952-0.726-2.161-1.774c-0.237-1.195,0.538-2.356,1.732-2.592
					l131.726-26.206c1.202-0.239,2.355,0.538,2.594,1.731c0.237,1.195-0.538,2.356-1.732,2.592l-131.726,26.206
					C859.341,527.661,859.196,527.674,859.054,527.674z"/>
			</g>
			<g>
				<path style="fill:#E6D0BE;" d="M523.345,656.164c14.126,53.146,57.423,74.804,82.357,63.73
					c24.934-11.074,38.439-58.077,7.936-103.832c-30.364-45.548-88.768-78.165-88.768-78.165S508.24,599.335,523.345,656.164z"/>
				<path style="fill:#D3BBA3;" d="M618.532,749.806c-0.845,0-1.651-0.489-2.016-1.309l-74.424-167.575
					c-0.494-1.113,0.008-2.416,1.121-2.911c1.108-0.497,2.415,0.009,2.91,1.12l74.424,167.575c0.494,1.113-0.008,2.416-1.121,2.911
					C619.135,749.745,618.832,749.806,618.532,749.806z"/>
			</g>
			<g>
				<path style="fill:#E6D0BE;" d="M693.144,784.352c-42.591-14.245-76.815,5.552-80.466,27.532
					c-3.651,21.98,22.336,52.309,67.246,52.065c44.706-0.243,93.191-25.418,93.191-25.418S738.687,799.584,693.144,784.352z"/>
				<path style="fill:#D3BBA3;" d="M735.742,834.924c-0.12,0-0.241-0.009-0.364-0.03L583.689,809.7
					c-1.2-0.198-2.013-1.335-1.813-2.536c0.199-1.199,1.326-2.026,2.536-1.813l151.689,25.194c1.2,0.198,2.013,1.335,1.813,2.536
					C737.736,834.159,736.801,834.924,735.742,834.924z"/>
			</g>
			<g>
				<path style="fill:#E6D0BE;" d="M596.805,1002.856c-33.282,30.153-32.788,69.688-15.414,83.637
					c17.374,13.95,56.545,6.151,78.331-33.121c21.687-39.094,23.49-93.696,23.49-93.696S632.394,970.613,596.805,1002.856z"/>
				<path style="fill:#D3BBA3;" d="M563.567,1111.521c-0.484,0-0.972-0.159-1.379-0.487c-0.95-0.762-1.101-2.149-0.339-3.098
					l96.269-119.902c0.763-0.95,2.152-1.098,3.099-0.338c0.95,0.762,1.101,2.149,0.339,3.098l-96.269,119.902
					C564.851,1111.239,564.212,1111.521,563.567,1111.521z"/>
			</g>
			<g>
				<path style="fill:#E6D0BE;" d="M466.546,893.013c3.59,44.767,35.218,68.492,56.87,63.235
					c21.652-5.257,39.367-41.053,21.539-82.273c-17.747-41.033-59.913-75.77-59.913-75.77S462.707,845.144,466.546,893.013z"/>
				<path style="fill:#D3BBA3;" d="M530.625,986.496c-0.994,0-1.896-0.676-2.14-1.684l-36.281-149.424
					c-0.287-1.184,0.439-2.377,1.622-2.663c1.179-0.302,2.376,0.437,2.662,1.621l36.282,149.424
					c0.287,1.184-0.439,2.377-1.622,2.663C530.973,986.477,530.797,986.496,530.625,986.496z"/>
			</g>
		</g>
		<g>
			<path style="fill:#E6D0BE;" d="M1803.718,1253.892c0,0,35.632,241.065-18.967,333.14
				c-109.331,184.375-310.85,307.476-540.676,306.153c-344.599-1.984-622.343-282.945-620.358-627.544
				c0.482-83.617,17.389-163.298,47.646-236.001c31.328-75.277,185.941-122.053,185.941-122.053s51.598-166.952,113.335-197.596
				c84.507-41.945,179.843-65.289,280.622-64.709c112.218,0.646,217.345,30.877,308.032,83.255
				c31.921,18.437,68.713,92.063,68.713,92.063s63.53,9.191,82.564,30.237c40.09,44.33,73.897,94.439,100.024,148.915
				C1850.218,1082.373,1803.718,1253.892,1803.718,1253.892z"/>
			<g>
				<path style="fill:#D3BBA3;" d="M1145.807,851.163c-17.864,10.758-8.135,38.737-25.935,48.767
					c-30.528,17.201-112.201-35.186-107.432-74.414c5.164-42.459,112.441-76.422,151.32-43.601
					c25.028,21.128,11.676,61.458,35.906,71.813c20.545,8.779,56.428-8.979,64.12-35.907c10.157-35.56-34.686-66.693-38.472-69.248
					c-45.355-30.614-107.816-13.86-130.801-7.694c-49.652,13.318-60.939,32.848-84.637,25.647
					c-25.028-7.605-30.194-34.775-39.221-56.5c-134.333,66.677-241.282,180.343-299.25,319.633
					c22.276,31.583,76.561,35.329,94.819,90.802c9.602,29.172,2.901,53.41,23.084,69.248c20.55,16.128,42.515,2.779,58.989,20.518
					c9.771,10.523,5.905,19.379,12.823,56.424c6.677,35.748,10.016,53.622,20.519,64.119c30.285,30.267,104.76,7.148,105.154-5.13
					c0.261-8.128-32.132-5.713-43.602-28.212c-11.959-23.467,13.633-44.984,2.566-66.683c-12.144-23.807-50.195-12.16-61.555-33.342
					c-11.727-21.865,10.645-68.165,46.165-87.201c52.102-27.923,89.253,25.989,141.061,5.129
					c64.471-25.956,45.766-125.062,123.109-161.579c39-18.414,68.977-5.122,74.378-20.518
					C1279.131,904.113,1181.258,829.814,1145.807,851.163z"/>
				<path style="fill:#D3BBA3;" d="M1072.822,1286.078c41.629-16.277,80.099-6.913,95.027-3.28
					c11.74,2.858,39.835,10.015,66.792,32.209c42.055,34.624,29.692,63.319,65.09,86.786c38.261,25.365,80.266,10.114,86.786,29.833
					c3.53,10.677-8.646,15.57-18.984,40.681c-18.346,44.563,0.419,76.726-18.986,89.498c-10.598,6.978-32.544,8.138-32.544,8.138
					c0.002-0.002,1.938,26.149-5.423,46.103c-5.159,13.985-10.685,13.54-24.409,32.545c-19.224,26.62-13.917,35.154-27.901,52.648
					c-20.912,26.16-40.907,17.244-53.461,35.042c-26.479,37.542,41.783,106.554,21.697,130.179
					c-15.215,17.895-77.573,5.582-104.868-32.545c-19.246-26.887-5.025-44.22-16.272-110.291
					c-9.236-54.271-28.963-102.116-36.16-119.331c-20.616-49.311-36.169-67.606-30.418-99.073
					c4.949-27.081,19.683-31.11,17.762-50.995c-3.659-37.864-58.799-41.064-65.09-75.938
					C985.158,1343.363,1032.398,1301.883,1072.822,1286.078z"/>
				<path style="fill:#D3BBA3;" d="M1810.571,999.764c-86.868-20.885-109.434-27.132-147.191-16.788
					c-32.654,8.946-58.883,25.681-111.343,59.151c-50.019,31.914-58.827,45.511-62.63,52.192c-21.617,37.961-11.21,79.988,0,125.261
					c9.786,39.526,20.48,82.715,48.712,90.466c13.532,3.716,20.679-3.571,62.63-20.877c53.581-22.103,80.372-33.155,90.466-24.356
					c20.112,17.532-43.709,85.458-17.397,135.699c17.605,33.614,58.923,27.549,73.069,66.11c9.641,26.279-5.867,39.128,0,66.11
					c4.509,20.741,19.502,39.903,37.83,54.281c54.6-92.076,86.24-199.412,86.901-314.186
					C1872.181,1175.036,1850.195,1082.384,1810.571,999.764z"/>
				<path style="fill:#D3BBA3;" d="M1710.553,850.852c-43.593-48.203-94.613-89.568-151.273-122.293
					c-3.96,17.758-3.68,35.197,3.195,49.128c9.602,19.458,29.554,27.075,27.835,45.233c-1.697,17.909-23.225,32.886-41.754,38.274
					c-31.606,9.192-51.681-10.328-62.631,0c-16.439,15.506,20.407,67.43,3.48,83.507c-11.083,10.526-31.124-7.699-52.192,3.48
					c-19.949,10.585-32.946,43.355-20.877,66.11c9.382,17.689,31.533,24.845,48.712,24.356c14.411-0.41,33.756-6.438,86.987-66.11
					c49.183-55.133,56.215-76.382,76.547-76.548c34.164-0.279,59.573,59.346,66.111,55.672c6.072-3.413-28.216-47.884-17.397-76.548
					C1681.872,862.995,1693.888,855.425,1710.553,850.852z"/>
			</g>
		</g>
		<g>
			<rect x="1264.188" y="805.813" style="fill:#F7F1EB;" width="13.281" height="1038.641"/>
			<path style="fill:#F7F1EB;" d="M1591.788,970.158c-0.026,0-0.052,0-0.077-0.002l-63.638-2.213
				c-0.297-0.009-0.588-0.08-0.857-0.207l-255.443-119.534c-0.002,0.002-0.006,0.004-0.009,0.004l-258.981,121.19
				c-0.293,0.138-0.611,0.209-0.934,0.209h-74.707c-1.144,0-2.098-0.876-2.196-2.015c-0.099-1.141,0.691-2.166,1.819-2.362
				l66.656-11.569l264.239-127.145c0.601-0.284,1.307-0.291,1.908-0.002l263.181,126.064l59.517,13.225
				c1.113,0.248,1.854,1.303,1.71,2.431C1593.833,969.336,1592.895,970.158,1591.788,970.158z M962.74,965.195h48.618
				l255.815-119.708c-0.269-0.573-0.291-1.255,0-1.871c0.515-1.102,1.83-1.585,2.93-1.062l258.573,120.998l39.291,1.367
				l-36.423-8.094c-0.164-0.037-0.323-0.093-0.474-0.164l-262.453-125.716l-263.562,126.82c-0.183,0.088-0.378,0.151-0.579,0.185
				L962.74,965.195z"/>
			<g>
				<path style="fill:#F7F1EB;" d="M1359.797,1271.204c12.311,53.124,95.845,92.725,197.065,92.725s184.754-39.601,197.065-92.725
					H1359.797z"/>
				<path style="fill:#F7F1EB;" d="M1369.327,1276.226c-0.372,0-0.749-0.095-1.096-0.293c-1.055-0.607-1.421-1.955-0.814-3.01
					l177.081-308.281c0.383-0.665,1.085-1.085,1.852-1.107c0.863,0.015,1.492,0.36,1.91,1.005l199.218,307.301
					c0.663,1.023,0.372,2.388-0.65,3.049c-1.023,0.665-2.388,0.37-3.049-0.65l-197.254-304.271l-175.283,305.15
					C1370.834,1275.829,1370.092,1276.226,1369.327,1276.226z"/>
				<path style="fill:#F7F1EB;" d="M1559.691,1274.757c-1.174,0-2.149-0.924-2.201-2.108l-13.283-300.941
					c-0.054-1.216,0.889-2.246,2.106-2.299c1.234-0.099,2.246,0.891,2.3,2.106l13.283,300.941c0.054,1.217-0.889,2.246-2.106,2.3
					C1559.758,1274.757,1559.723,1274.757,1559.691,1274.757z"/>
			</g>
			<g>
				<path style="fill:#F7F1EB;" d="M785.391,1272.865c12.311,53.124,95.845,92.725,197.065,92.725s184.754-39.601,197.065-92.725
					H785.391z"/>
				<path style="fill:#F7F1EB;" d="M790.494,1280.14c-0.378,0-0.76-0.097-1.11-0.301c-1.052-0.614-1.406-1.964-0.791-3.014
					l181.508-310.727c0.386-0.663,1.091-1.077,1.857-1.094c0.802,0.006,1.488,0.368,1.902,1.014l198.11,308.769
					c0.658,1.025,0.359,2.388-0.665,3.047c-1.024,0.659-2.388,0.362-3.047-0.665l-196.165-305.74L792.4,1279.046
					C791.991,1279.748,791.252,1280.14,790.494,1280.14z"/>
				<path style="fill:#F7F1EB;" d="M985.284,1276.226c-1.173,0-2.149-0.926-2.201-2.11l-13.282-306.812
					c-0.053-1.216,0.89-2.246,2.107-2.297c1.306-0.049,2.246,0.891,2.298,2.108l13.282,306.812c0.053,1.216-0.89,2.246-2.107,2.297
					C985.349,1276.226,985.316,1276.226,985.284,1276.226z"/>
			</g>
			<rect x="1103.709" y="1910.845" style="fill:#F7F1EB;" width="325.386" height="19.922"/>
			<polygon style="fill:#F7F1EB;" points="1119.203,1911.966 1265.295,1837.813 1276.363,1836.707 1411.387,1913.073 			"/>
			
				<ellipse transform="matrix(0.1602 -0.9871 0.9871 0.1602 267.4842 1934.875)" style="fill:#F7F1EB;" cx="1270.829" cy="810.242" rx="11.068" ry="11.068"/>
		</g>
		<g>
			<g>
				<g>
					<polygon style="fill:#84524D;" points="725.767,2082.732 640.774,2083.969 653.622,1974.069 739.055,1985.777 					"/>
					<path style="fill:#776E42;" d="M846.794,2132.896l-216.049-5.651l14.4-81.122l90.742,2.374l61.511,20.036
						c29.925,8.951,50.16,35.185,49.381,64.961L846.794,2132.896z"/>
				</g>
				<g>
					<polygon style="fill:#84524D;" points="547.425,2084.338 463.023,2094.425 464.349,1983.784 550.537,1986.526 					"/>
					<path style="fill:#ff6900;" d="M660.798,2141.372l-210.436-1.239l13.225-81.394l85.068,0.501l61.678,18.784
						c30.1,8.343,50.636,34.16,50.461,63.946L660.798,2141.372z"/>
				</g>
				<g>
					<g>
						<path style="fill:#D87355;" d="M482.364,1353.419c0,0-23.483,81.727-28.669,109.15
							c-29.535,156.166-24.103,557.859-24.103,557.859l153.832-9.027c0,0,19.9-294.641,29.805-424.097
							c11.397,23.293,24.628,56.208,34.954,81.368c4.765,11.61,6.393,23.925,4.767,36.369l-30.932,304.095l150.245-8.816
							c0,0,60.279-332.47,35.065-396.308c-22.302-56.464-122.307-212.849-122.307-212.849l-8.627-49.131L482.364,1353.419z"/>
					</g>
					<polygon style="fill:#B77250;" points="772.262,2000.321 782.464,1945.061 626.853,1955.068 622.018,2009.137 					"/>
					<polygon style="fill:#B77250;" points="585.102,2011.303 588.182,1956.461 428.322,1966.718 427.735,2020.537 					"/>
					<path style="fill:#363E44;" d="M613.256,1589.943c-0.071,0-0.142-0.004-0.214-0.011c-1.212-0.116-2.1-1.195-1.982-2.407
						l7.61-78.575c0.117-1.212,1.195-2.086,2.406-1.981c1.212,0.116,2.1,1.195,1.982,2.407l-7.61,78.575
						C615.338,1589.09,614.379,1589.943,613.256,1589.943z"/>
				</g>
			</g>
			<g>
				<g>
					<path style="fill:#84524D;" d="M731.043,1162.881l105.586-121.653l38.055-38.327l26.069,32.46
						c25.165,33.458,38.592,32.836,12.77,90.794L764.326,1296.01L731.043,1162.881z"/>
					<path style="fill:#84524D;" d="M932.508,1067.815c2.743-36.87,4.839-42.266-3.044-117.164
						c-3.356-31.89-7.772-58.282-7.835-75.225c-1.292-5.769,5.464-43.995-5.598-45.224c-8.257-0.917-12.257,28.788-14.584,36.202
						c-0.711-6.534,9.843-52.573-2.821-53.961c-13.151-1.442-17.108,43.292-18.181,49.269c-0.18-0.482,5.138-59.14-7.116-61.431
						c-11.908-2.226-14.565,47.215-16.46,58.495c-0.066-10.008-0.111-54.881-9.389-55.887
						c-14.333-1.553-15.531,49.156-15.104,84.186c-13.641-9.994-22.707-12.897-25.143-8.991c-1.236,1.982,5.419,19.191,25.708,38.71
						c0.172,13.069,2.011,86.337,1.718,129.885c19.696,24.39,34.495,67.709,54.191,92.099
						C918.744,1127.658,931.444,1082.116,932.508,1067.815z"/>
					<path style="fill:#363E44;" d="M883.437,923.144c-1.151,0-2.12-0.894-2.197-2.058c-1.533-22.922-21.637-25.237-22.492-25.323
						c-1.209-0.123-2.093-1.204-1.972-2.412c0.12-1.21,1.198-2.082,2.404-1.977c0.247,0.024,24.674,2.702,26.459,29.418
						c0.082,1.214-0.837,2.265-2.052,2.347C883.536,923.142,883.487,923.144,883.437,923.144z"/>
				</g>
				<g>
					<path style="fill:#EFBC73;" d="M783.836,1096.316l70.008,114.767l-82.542,81.922c0,0-21.329,25.78-50.588,129.249
						l-322.734,48.653l139.666-309.964C537.647,1160.943,632.935,1154.638,783.836,1096.316z"/>
					<path style="fill:#EFBC73;" d="M468.86,1326.817l-27.263-147.835c30.461-13.27,62.253-20.338,96.05-18.04L468.86,1326.817z"/>
				</g>
				<g>
					<path style="fill:#84524D;" d="M498.323,1301.627l-55.002,128.014l-46.65,47.461l-38.046-30.741
						c-26.674-30.91-25.249-47.628,14.346-152.64l17.215-43.038L498.323,1301.627z"/>
					<path style="fill:#84524D;" d="M341.457,1421.18c6.601,35.446,5.97,41.056,32.066,109.708
						c11.111,29.231,21.85,53.014,26.131,68.973c2.655,5.117,5.811,42.842,16.547,41.244c8.013-1.193,4.382-30.197,4.728-37.768
						c2.298,5.983,3.821,52.021,16.106,50.174c12.757-1.918,5.341-45.081,4.862-50.984c0.29,0.41,9.893,57.04,22.017,56.146
						c11.781-0.869,1.966-48.146,0.942-59.254c2.556,9.42,13.78,51.717,22.778,50.353c13.9-2.108,2.393-50.217-6.738-83.138
						c15.351,6.024,24.621,6.501,25.945,2.211c0.671-2.177-9.892-16.744-33.882-30.091c-3.418-12.279-23.41-80.902-33.985-122.034
						c-24.647-18.087-48.589-35.894-73.235-53.982C340.324,1380.676,338.897,1407.431,341.457,1421.18z"/>
				</g>
				<path style="fill:#EFBC73;" d="M507.822,1297.158l-66.225-118.176c-23.304,13.425-45.645,45.907-67.478,88.337l110.75,65.991
					L507.822,1297.158z"/>
			</g>
			<g>
				
					<ellipse transform="matrix(0.6075 -0.7943 0.7943 0.6075 -603.1348 961.4086)" style="fill:#84524D;" cx="671.294" cy="1091.024" rx="17.666" ry="15.034"/>
				<path style="fill:#84524D;" d="M587.709,1077.113c4.851,8.466,2.943,18.676-4.261,22.804
					c-7.204,4.129-16.976,0.613-21.827-7.852c-4.851-8.466-2.943-18.676,4.261-22.804
					C573.086,1065.131,582.859,1068.647,587.709,1077.113z"/>
				
					<rect x="579.959" y="1015.892" transform="matrix(-0.9977 -0.0675 0.0675 -0.9977 1177.6864 2145.9321)" style="fill:#363E44;" width="90.241" height="74.375"/>
				<path style="fill:#84524D;" d="M620.952,1195.172l2.489-0.075c16.743-0.506,29.907-14.489,29.401-31.232l-2.168-71.781
					l-63.123,1.907l2.168,71.78C590.225,1182.514,604.208,1195.678,620.952,1195.172z"/>
				<path style="fill:#84524D;" d="M579.389,1085.386c-1.871,28.097,15.995,52.165,39.904,53.757
					c23.909,1.592,44.807-19.894,46.678-47.991c1.87-28.097-16.116-44.442-40.025-46.034
					C602.037,1043.526,581.259,1057.29,579.389,1085.386z"/>
				<path style="fill:#363E44;" d="M703.262,1030.076c-1.483-4.085-10.812-4.774-22.119-2.062c3.444-4.883,4.704-9.129,2.882-11.357
					c-2.032-2.485-7.412-1.876-13.963,1.075c4.807-3.438,7.37-6.971,6.408-9.626c-1.682-4.634-13.455-4.905-26.77-0.786
					c2.251-9.567,1.584-17.2-2.142-18.642c-3.975-1.538-10.202,4.436-15.274,14.026c-0.895-7.063-3.199-11.911-6.414-12.311
					c-1.531-0.191-3.095,0.67-4.586,2.316c-2.385-4.699-5.19-7.465-7.832-7.146c-3.863,0.467-6.283,7.39-6.451,16.886
					c-5.341-3.862-9.625-5.48-11.616-3.923c-2.163,1.69-1.176,6.78,2.109,13.496c-9.801-8.165-18.207-12.364-20.973-9.853
					c-2.08,1.887-0.526,7.181,3.585,14.013c-5.832-2.362-10.331-2.799-12.005-0.711c-2.132,2.659,0.849,8.722,7.034,15.564
					c-6.05,0.955-10.171,3.16-10.529,6.188c-0.32,2.709,2.444,5.518,7.076,7.808c-10.237,0.801-17.623,3.794-17.794,7.756
					c-0.221,5.132,11.727,9.93,26.685,10.717c14.959,0.786,27.264-2.736,27.486-7.868c0.028-0.658-0.15-1.31-0.503-1.949
					c4.461,1.508,7.877,1.659,9.482,0.163c5.142,3.039,9.121,4.126,10.861,2.548c1.289-1.169,1.163-3.659-0.073-6.993
					c5.831,4.624,10.663,6.906,13.156,5.871c2.473,1.687,5.313,3.304,8.43,4.742c12.12,5.59,23.721,6.355,25.911,1.71
					c1.164-2.469-0.584-5.969-4.278-9.546c10.022,2.353,18.018,1.764,19.436-1.936c0.623-1.624-0.127-3.64-1.9-5.798
					C698.446,1039.832,704.685,1033.996,703.262,1030.076z"/>
				<path style="fill:#363E44;" d="M621.811,1141.432c-0.886,0-1.773-0.03-2.664-0.088c-12.22-0.814-23.315-7.144-31.242-17.826
					c-0.727-0.978-0.522-2.358,0.455-3.083c0.98-0.726,2.361-0.521,3.085,0.456c7.143,9.625,17.085,15.326,27.994,16.052
					c10.92,0.754,21.518-3.607,29.877-12.2c0.849-0.872,2.246-0.891,3.118-0.043c0.873,0.848,0.892,2.246,0.043,3.118
					C643.878,1136.659,633.076,1141.432,621.811,1141.432z"/>
				<path style="fill:#363E44;" d="M579.182,1101.246c-1.059,0-1.994-0.764-2.172-1.845c-0.768-4.631-0.996-9.401-0.677-14.174
					c0.282-4.252,0.996-8.458,2.123-12.503c0.327-1.173,1.546-1.86,2.716-1.531c1.172,0.325,1.858,1.542,1.532,2.715
					c-1.046,3.753-1.709,7.661-1.971,11.612c-0.296,4.435-0.085,8.862,0.627,13.162c0.199,1.201-0.613,2.336-1.814,2.534
					C579.422,1101.238,579.301,1101.246,579.182,1101.246z"/>
				<path style="fill:#363E44;" d="M664.438,1106.607c-0.211,0-0.425-0.03-0.638-0.095c-1.165-0.351-1.825-1.58-1.474-2.747
					c1.238-4.104,2.013-8.391,2.303-12.747c0.268-4.031,0.117-8.066-0.448-11.993c-0.173-1.206,0.663-2.323,1.868-2.498
					c1.201-0.166,2.323,0.665,2.497,1.869c0.609,4.233,0.772,8.578,0.482,12.915c-0.311,4.687-1.146,9.306-2.479,13.728
					C666.261,1105.994,665.385,1106.607,664.438,1106.607z"/>
				<g>
					<g>
						<path style="fill:#FFFFFF;" d="M629.595,1090.709c0,0,3.679,2.051,8.664,2.78c2.266,0.332,5.741-4.457,5.741-4.457
							s5.204,3.263,6.754,2.464c5.271-2.718,8.567-6.967,8.567-6.967s-3.149-1.737-7.534-2.583c-2.547-0.491-8.6,5.091-8.6,5.091
							s-6.594-2.603-8.906-0.835C631.307,1088.476,629.595,1090.709,629.595,1090.709z"/>
						<path style="fill:#363E44;" d="M634.274,1086.203c2.315-1.774,5.388-3.566,8.993-4.315c3.013-0.626,5.974-0.434,8.519,0.057
							c1.46,3.075,1.113,6.776-1.013,9.546c-1.548,0.798-3.26,1.471-5.124,1.858c-2.577,0.536-5.117,0.474-7.391,0.139
							c-0.488-0.336-0.953-0.722-1.383-1.163C635.207,1090.614,634.348,1088.418,634.274,1086.203z"/>
					</g>
					<g>
						<path style="fill:#FFFFFF;" d="M614.994,1090.164c0,0-4.639,1.614-10.204,1.224c-1.963-0.138-5.153-4.736-5.153-4.736
							s-5.5,0.978-7.249-0.597c-3.661-3.297-5.66-6.975-5.66-6.975s2.823-0.978,6.69-1.229c2.853-0.185,7.809,4.727,7.809,4.727
							s7.064-0.457,8.936,1.367C613.333,1087.034,614.994,1090.164,614.994,1090.164z"/>
						<path style="fill:#363E44;" d="M602.997,1079.174c2.901,1.138,5.301,2.948,7.174,4.774c-0.261,2.507-1.533,4.898-3.731,6.497
							c-0.52,0.378-1.066,0.693-1.63,0.949c-1.965-0.137-4.046-0.523-6.085-1.322c-2.524-0.99-4.663-2.489-6.412-4.065
							c-0.948-2.738-0.534-5.769,1.076-8.158C596.244,1077.663,599.679,1077.873,602.997,1079.174z"/>
					</g>
				</g>
				<path style="fill:#363E44;" d="M619.419,1106.424c-0.481,0-0.966-0.157-1.372-0.48c-1.921-1.526-2.898-3.204-2.906-4.982
					c-0.006-1.656,0.814-2.76,1.473-3.647c0.476-0.642,0.852-1.148,1.018-1.893c0.155-0.693,0.094-1.464-0.181-2.295
					c-0.383-1.156,0.243-2.403,1.4-2.786c1.159-0.381,2.404,0.245,2.786,1.4c0.53,1.6,0.631,3.163,0.299,4.644
					c-0.371,1.66-1.187,2.756-1.783,3.559c-0.31,0.418-0.604,0.812-0.603,1.001c0.001,0.261,0.327,0.823,1.241,1.55
					c0.953,0.758,1.111,2.145,0.353,3.096C620.71,1106.14,620.068,1106.424,619.419,1106.424z"/>
				<path style="fill:#363E44;" d="M626.209,1116.408c-0.51,0-0.961-0.026-1.336-0.062c-1.212-0.116-2.1-1.193-1.985-2.405
					c0.116-1.21,1.181-2.138,2.405-1.983c1.231,0.108,3.658,0.097,6.03-1.387c1.235-0.769,2.295-1.847,3.068-3.118
					c0.633-1.042,1.992-1.372,3.029-0.739c1.041,0.633,1.372,1.99,0.739,3.029c-1.129,1.856-2.686,3.437-4.501,4.569
					C630.912,1116.027,628.135,1116.408,626.209,1116.408z"/>
			</g>
		</g>
		<g>
			<g>
				<path style="fill:#D87355;" d="M1975.189,995.356c28.037,18.378,31.359,53.672,28.048,88.121
					c-5.098,53.052,68.753,40.329,79.758,70.44c11.005,30.112-46.551,53.19,26.615,109.221l-140.767,84.889
					c-34.313-22.092-25.695-77.522-25.695-77.522c-27.495,50.487-13.465,77.539,2.864,91.29l-19.298,11.636
					c0,0-46.65-14.19-26.512-67.038c18.209-47.785,3.61-64.808-42.14-50.867c-45.75,13.941-132.235-102.935,2.275-221.21
					l64.953-36.863C1939.765,986.155,1959.831,985.289,1975.189,995.356z"/>
				<path style="fill:#EFBC73;" d="M2051.969,1296.368c-0.155,0-0.314-0.015-0.471-0.052c-0.321-0.069-7.922-1.815-13.442-10.637
					c-6.52-10.417-7.37-25.836-2.53-45.828c11.319-46.771,13.81-66.823-38.953-93.72c-54.427-27.745-33.764-71.338-33.548-71.775
					c0.534-1.092,1.854-1.546,2.948-1.005c1.092,0.536,1.544,1.856,1.012,2.95c-0.797,1.628-18.881,40.173,31.591,65.903
					c55.506,28.294,52.537,51.994,41.235,98.685c-4.485,18.53-3.8,33.21,1.983,42.449c4.547,7.267,10.583,8.656,10.643,8.671
					c1.191,0.258,1.944,1.434,1.684,2.623C2053.896,1295.664,2052.983,1296.368,2051.969,1296.368z"/>
				<path style="fill:#EFBC73;" d="M2048.336,1144.389c-19.693,0-38.259-14.407-42.867-33.654
					c-2.461-10.29-1.09-20.868,0.237-31.098c0.351-2.704,0.702-5.406,0.98-8.096c1.992-19.135-0.127-35.856-6.292-49.703
					c-7.271-16.323-20.61-28.447-35.686-32.433c-16.629-4.399-34.81,2.037-43.214,15.296c-0.652,1.027-2.013,1.333-3.042,0.682
					c-1.029-0.652-1.335-2.015-0.682-3.042c9.405-14.844,29.616-22.074,48.067-17.199c16.353,4.323,30.777,17.372,38.584,34.9
					c6.485,14.562,8.722,32.043,6.653,51.955c-0.284,2.726-0.639,5.465-0.995,8.206c-1.275,9.836-2.594,20.005-0.321,29.507
					c4.224,17.649,22.378,31.19,40.531,30.217c1.197-0.159,2.257,0.863,2.321,2.08c0.067,1.217-0.863,2.256-2.08,2.321
					C2049.798,1144.369,2049.066,1144.389,2048.336,1144.389z"/>
			</g>
			<g>
				<path style="fill:#D3BBA3;" d="M1731.469,2019.309c5.441,9.394,11.625,22.176,15.722,38.443
					c6.344,25.186,4.783,46.065,2.72,59.974c-59.321,1.258-118.641,2.515-177.962,3.773c1.085-6.955,2.956-14.86,5.285-21.155
					c22.244-60.102,97.096-79.603,114.094-83.655C1704.708,2017.527,1718.09,2018.47,1731.469,2019.309z"/>
				<path style="fill:#E2A18D;" d="M1751.504,1958.695l-12.213,63.098c-2.722,12.728-14.771,21.565-27.643,19.639
					c-0.737-0.11-1.486-0.247-2.249-0.413c-11.935-2.595-20.161-13.585-19.524-25.782l4.558-61.584L1751.504,1958.695z"/>
				<path style="fill:#D3BBA3;" d="M2086.288,1992.915c0,0,30.896,56.944,26.866,117.11c-39.802,0.844-79.602,1.688-119.404,2.531
					c2.867-11.615,7.271-28.215,14.342-44.663c12.119-28.189,27.534-49.347,40.094-63.848L2086.288,1992.915z"/>
				<path style="fill:#E2A18D;" d="M2091.917,2006.832c0.404-20.936-0.519-59.525-10.699-90.381l-68.986,21.967
					c0,0,23.513,34.151,31.535,72.682c2.425,11.65,12.999,19.892,24.844,18.76c1.553-0.149,3.171-0.384,4.847-0.723
					C2084.064,2026.992,2091.709,2017.651,2091.917,2006.832z"/>
				<path style="fill:#ff6900;" d="M1958.335,1384.426c0,0,134.758,201.475,144.707,594.099l-95.248,2.019
					c0,0-121.421-337.402-198.436-420.454l23.807-190.085L1958.335,1384.426z"/>
				<path style="fill:#ff6900;" d="M1903.001,1600.411c0,0-116.39,199.958-140.407,385.33l-88.864,1.884
					c0,0-19.889-444.592,138.372-627.729l81.994,15.679L1903.001,1600.411z"/>
				<path style="fill:#FFFFFF;" d="M1863.98,1638.229c-0.818,0-1.604-0.456-1.985-1.24l-52.823-108.587
					c-0.532-1.096-0.078-2.414,1.018-2.948c1.096-0.525,2.416-0.073,2.948,1.018l52.823,108.587
					c0.532,1.096,0.078,2.414-1.018,2.948C1864.632,1638.158,1864.303,1638.229,1863.98,1638.229z"/>
			</g>
			<g>
				<g>
					<path style="fill:#E2A18D;" d="M2033.877,1236.442c31.079,42.636,136.949,141.006,89.736,178.392
						c-39.052,30.924-135.37-69.983-168.84-110.474C1981.886,1281.141,2006.764,1259.66,2033.877,1236.442z"/>
				</g>
				<g>
					<path style="fill:#E2A18D;" d="M1805.544,1124.095l-167.275-88.064l-7.463,42.029c-6.158,42.48-4.504,71.862,51.756,105.519
						l129.901,73.484L1805.544,1124.095z"/>
					<path style="fill:#E2A18D;" d="M1629.057,1095.736c3.646-37.731,2.468-43.548,23.472-117.855
						c8.943-31.638,17.998-57.536,21.011-74.644c2.31-5.604,2.137-45.404,13.529-44.721c8.502,0.511,7.373,31.222,8.434,39.118
						c1.855-6.478-0.794-54.834,12.245-54.033c13.539,0.833,9.75,46.721,9.793,52.948c0.266-0.456,5.103-60.651,17.884-60.832
						c12.42-0.176,6.498,50.242,6.449,61.97c1.809-10.101,9.666-55.434,19.216-54.834c14.753,0.926,7.136,52.371,0.607,87.692
						c15.523-7.724,25.188-9.078,26.97-4.708c0.904,2.217-8.817,18.448-32.714,34.637c-2.448,13.175-17.062,86.887-24.346,130.94
						c-24.147,21.215-47.583,42.072-71.73,63.287C1631.604,1138.261,1627.642,1110.371,1629.057,1095.736z"/>
					<path style="fill:#363E44;" d="M1704.208,958.077c-0.172,0-0.347-0.019-0.521-0.062c-1.182-0.286-1.91-1.477-1.623-2.661
						c6.442-26.637,31.541-25.082,31.797-25.073c1.214,0.09,2.125,1.148,2.035,2.362c-0.091,1.212-1.128,2.138-2.358,2.035
						c-0.878-0.062-21.639-1.225-27.19,21.714C1706.105,957.401,1705.203,958.077,1704.208,958.077z"/>
				</g>
				<path style="fill:#363E44;" d="M2020.989,1472.666l-273.4-34.258l12.344-345.546c0,0,201.844,69.379,298.832,162.691
					l-54.608,101.094L2020.989,1472.666z"/>
				<g>
					<path style="fill:#E2A18D;" d="M2094.106,1332.292c-41.527,3.828-139.766,8.004-149.34,8.793
						c-17.896,1.476-113.734,11.889-113.73,25.881c0.001,6.686,18.555,5.514,24.816,4.936c-4.826,2.96-24.591,12.321-22.646,19.559
						c2.286,8.503,27.545,0.955,28.013,1.086c-5.206,2.509-26.348,11.664-25.1,17.147c1.623,7.134,23.846,4.516,30.462,3.424
						c-0.545,1.018-21.479,11.045-20.303,15.371c1.302,4.793,22.082,2.848,30.385,2.842c15.902-1.299,77.969-3.029,108.159-2.435
						c70.905,1.395,93.498-3.964,127.899-9.319C2126.188,1417.48,2112.708,1344.858,2094.106,1332.292z"/>
					<path style="fill:#363E44;" d="M1991.607,1340.097c-1.158,0-2.132-0.904-2.198-2.078c-0.071-1.214,0.857-2.259,2.073-2.328
						c22.246-1.29,89.403-5.424,102.556-6.492c1.199-0.075,2.278,0.807,2.377,2.02c0.097,1.214-0.808,2.278-2.02,2.377
						c-13.858,1.124-83.57,5.391-102.66,6.496C1991.693,1340.094,1991.65,1340.097,1991.607,1340.097z"/>
					<path style="fill:#363E44;" d="M1855.578,1373.462c-0.836,0-1.634-0.476-2.005-1.283c-0.51-1.107-0.026-2.416,1.081-2.924
						c3.512-1.617,7.159-2.999,10.841-4.113c6.619-2.002,13.509-3.187,20.479-3.518c1.158-0.125,2.25,0.88,2.308,2.097
						c0.058,1.216-0.883,2.25-2.097,2.308c-6.61,0.314-13.141,1.436-19.413,3.333c-3.49,1.055-6.946,2.366-10.275,3.897
						C1856.198,1373.397,1855.886,1373.462,1855.578,1373.462z"/>
					<path style="fill:#363E44;" d="M1860.825,1394.321c-0.922,0-1.779-0.579-2.089-1.501c-0.39-1.154,0.23-2.405,1.385-2.793
						c0.769-0.26,1.555-0.51,2.358-0.754c6.625-2.002,13.515-3.184,20.481-3.516c1.193-0.073,2.25,0.879,2.308,2.097
						c0.058,1.217-0.881,2.25-2.097,2.308c-6.606,0.314-13.138,1.434-19.415,3.331c-0.758,0.23-1.501,0.467-2.226,0.711
						C1861.297,1394.285,1861.058,1394.321,1860.825,1394.321z"/>
					<path style="fill:#363E44;" d="M1866.996,1415.093c-1.021,0-1.936-0.711-2.155-1.748c-0.252-1.193,0.51-2.362,1.701-2.614
						c4.416-0.932,8.964-1.516,13.517-1.733c1.186-0.118,2.25,0.881,2.308,2.097s-0.881,2.25-2.097,2.308
						c-4.319,0.207-8.632,0.76-12.815,1.643C1867.3,1415.078,1867.147,1415.093,1866.996,1415.093z"/>
				</g>
			</g>
			<g>
				<path style="fill:#E2A18D;" d="M1910.552,1206.942l6.954,0.363c11.966,0.625,22.173-8.57,22.797-20.536l4.158-79.74
					c0.624-11.966-8.569-22.172-20.535-22.797l-6.954-0.364c-11.968-0.626-22.176,8.57-22.8,20.537l-4.158,79.739
					C1889.391,1196.111,1898.586,1206.318,1910.552,1206.942z"/>
				<g>
					
						<ellipse transform="matrix(0.3827 -0.9239 0.9239 0.3827 209.9431 2424.1582)" style="fill:#D87355;" cx="1918.977" cy="1054.978" rx="58.72" ry="58.72"/>
					<path style="fill:#E2A18D;" d="M1870.495,1076.326c0,31.279,21.664,64.274,48.388,64.274s48.388-32.995,48.388-64.274
						s-21.664-56.636-48.388-56.636S1870.495,1045.047,1870.495,1076.326z"/>
					<path style="fill:#363E44;" d="M1918.883,1142.804c-10.955,0-21.544-5.109-30.626-14.777c-0.835-0.887-0.79-2.282,0.097-3.116
						c0.889-0.833,2.285-0.792,3.116,0.097c8.227,8.757,17.708,13.386,27.414,13.386c8.918,0,17.744-3.966,25.523-11.47
						c0.878-0.844,2.274-0.818,3.118,0.056c0.846,0.876,0.82,2.271-0.056,3.118
						C1938.851,1138.409,1928.966,1142.804,1918.883,1142.804z"/>
					<path style="fill:#E2A18D;" d="M1958.543,1075.215c-4.37,9.578-2.687,19.727,3.76,22.668
						c6.447,2.941,15.215-2.438,19.585-12.016c4.37-9.578,2.687-19.727-3.76-22.668
						C1971.682,1060.258,1962.914,1065.638,1958.543,1075.215z"/>
					<path style="fill:#363E44;" d="M1973.413,1090.209c-0.622,0-1.242-0.263-1.677-0.775c-0.79-0.926-0.68-2.317,0.248-3.107
						c1.208-1.031,2.244-2.44,2.991-4.076c1.987-4.356,1.094-8.432-0.949-9.364c-0.915-0.42-1.906-0.202-2.579,0.05
						c-1.133,0.422-2.409-0.146-2.84-1.29c-0.426-1.139,0.149-2.411,1.29-2.84c2.084-0.779,4.147-0.758,5.96,0.067
						c4.672,2.134,6.048,8.815,3.131,15.21c-1.014,2.218-2.446,4.153-4.143,5.598
						C1974.429,1090.037,1973.919,1090.209,1973.413,1090.209z"/>
					<path style="fill:#363E44;" d="M1964.01,1099.007c-0.23,0-0.463-0.037-0.693-0.112c-1.156-0.383-1.783-1.632-1.4-2.786
						c2.089-6.298,3.148-12.955,3.148-19.783c0-3.383-0.267-6.776-0.79-10.087c-0.192-1.201,0.629-2.332,1.832-2.521
						c1.197-0.194,2.33,0.629,2.521,1.832c0.562,3.538,0.846,7.164,0.846,10.776c0,7.301-1.135,14.424-3.372,21.17
						C1965.795,1098.421,1964.934,1099.007,1964.01,1099.007z"/>
					<path style="fill:#E2A18D;" d="M1879.741,1075.215c4.37,9.578,2.687,19.727-3.76,22.668
						c-6.447,2.941-15.215-2.438-19.585-12.016c-4.37-9.578-2.687-19.727,3.76-22.668
						C1866.602,1060.258,1875.371,1065.638,1879.741,1075.215z"/>
					<path style="fill:#363E44;" d="M1864.871,1090.209c-0.506,0-1.016-0.172-1.43-0.528c-1.697-1.445-3.129-3.38-4.141-5.596
						c-2.92-6.397-1.544-13.078,3.129-15.212c1.815-0.827,3.88-0.846,5.96-0.067c1.141,0.429,1.716,1.701,1.29,2.84
						c-0.431,1.143-1.712,1.71-2.84,1.29c-0.67-0.252-1.662-0.465-2.579-0.05c-2.043,0.932-2.937,5.008-0.947,9.366
						c0.745,1.634,1.781,3.042,2.989,4.074c0.928,0.79,1.038,2.181,0.248,3.107
						C1866.114,1089.946,1865.493,1090.209,1864.871,1090.209z"/>
					<path style="fill:#363E44;" d="M1874.274,1099.007c-0.924,0-1.785-0.586-2.093-1.512c-2.237-6.746-3.372-13.868-3.372-21.17
						c0-3.626,0.284-7.252,0.846-10.779c0.192-1.202,1.298-2.02,2.524-1.83c1.201,0.192,2.022,1.32,1.83,2.524
						c-0.523,3.296-0.79,6.69-0.79,10.085c0,6.828,1.059,13.485,3.148,19.783c0.383,1.154-0.243,2.403-1.4,2.786
						C1874.737,1098.97,1874.504,1099.007,1874.274,1099.007z"/>
					<path style="fill:#363E44;" d="M1917.916,1105.423c-0.405,0-0.812-0.11-1.18-0.342c-2.259-1.434-3.652-3.204-4.141-5.262
						c-0.547-2.306,0.245-4.106,1.012-5.848c0.493-1.115,1.001-2.267,1.292-3.761c0.368-1.891,0.293-3.914-0.222-6.016
						c-0.291-1.182,0.433-2.377,1.615-2.666c1.18-0.297,2.377,0.433,2.666,1.615c0.67,2.726,0.76,5.387,0.269,7.911
						c-0.385,1.977-1.051,3.486-1.583,4.696c-0.652,1.477-0.956,2.222-0.76,3.051c0.215,0.9,0.96,1.761,2.216,2.556
						c1.027,0.652,1.333,2.015,0.68,3.044C1919.361,1105.062,1918.646,1105.423,1917.916,1105.423z"/>
					<path style="fill:#363E44;" d="M1924.438,1116.032c-1.354,0-2.737-0.34-4.001-1.053c-1.061-0.599-1.436-1.942-0.838-3.004
						c0.596-1.064,1.94-1.443,3.004-0.838c1.697,0.954,3.553,0.392,4.302-0.676c0.618-0.885,0.601-2.222-0.039-3.329
						c-0.611-1.053-0.252-2.403,0.803-3.012c1.051-0.609,2.403-0.252,3.012,0.803c1.505,2.599,1.443,5.764-0.159,8.059
						C1929.145,1114.959,1926.837,1116.032,1924.438,1116.032z"/>
					<g>
						<g>
							<path style="fill:#FFFFFF;" d="M1884.08,1068.184l0,0.003l0.125-0.013c0.066,0.261,0.241,0.594,0.517,0.586
								c0.33,0.391,0.481,1.024,0.703,1.442c0.4,0.751,1.538,0.083,1.139-0.666c-0.269-0.505,1.522,0.462,2.307,0.763
								c2.504,0.963,5.041,1.812,7.611,2.583c1.198,0.36,2.398,0.729,3.608,1.046c0.97,0.255,4.174,1.264,4.427,1.114
								c3.265,2.99,5.069,5.816,5.069,5.816s-4.685,2.079-10.738,2.401c-0.017-0.081-0.036-0.161-0.05-0.244
								c-0.141-0.812-14.101-4.106-14.478-3.486c-5.908-3.764-9.31-9.075-9.31-9.075S1878.857,1068.745,1884.08,1068.184z"/>
							<path style="fill:#363E44;" d="M1894.305,1068.99c4.192,1.261,7.648,3.703,10.207,6.044
								c-0.318,2.616-1.562,5.127-3.717,6.981c-0.555,0.478-1.145,0.886-1.759,1.234c-2.729,0.162-5.744-0.029-8.741-0.931
								c-2.167-0.652-4.126-1.627-5.878-2.733c-2.233-3.501-2.258-7.921-0.21-11.413
								C1887.272,1067.856,1890.8,1067.935,1894.305,1068.99z"/>
						</g>
						<g>
							<path style="fill:#FFFFFF;" d="M1952.511,1069.129l0,0.003l-0.125-0.013c-0.066,0.261-0.241,0.594-0.517,0.585
								c-0.33,0.391-0.481,1.024-0.703,1.442c-0.4,0.751-1.538,0.083-1.14-0.666c0.269-0.505-1.522,0.461-2.307,0.763
								c-2.504,0.963-5.042,1.812-7.61,2.583c-1.198,0.36-2.398,0.729-3.608,1.047c-0.97,0.255-4.173,1.264-4.427,1.114
								c-3.266,2.99-5.068,5.816-5.068,5.816s4.684,2.079,10.737,2.401c0.017-0.081,0.036-0.161,0.05-0.244
								c0.14-0.812,14.101-4.106,14.478-3.486c5.908-3.764,9.31-9.075,9.31-9.075S1957.735,1069.69,1952.511,1069.129z"/>
							<path style="fill:#363E44;" d="M1942.287,1069.935c-4.192,1.261-7.647,3.703-10.207,6.044
								c0.318,2.616,1.562,5.127,3.717,6.982c0.555,0.477,1.145,0.886,1.759,1.234c2.729,0.162,5.744-0.029,8.741-0.931
								c2.167-0.652,4.126-1.627,5.878-2.733c2.233-3.501,2.258-7.921,0.21-11.412
								C1949.319,1068.802,1945.792,1068.881,1942.287,1069.935z"/>
						</g>
					</g>
					<path style="fill:#D87355;" d="M1967.27,1044.23c0,0-6.021-19.913-29.443-5.9c-23.422,14.013-88.105,22.125-96.327-27.288
						c-8.222-49.414,32.476-47.67,47.63-30.3c15.155,17.37,21.673,40.296,48.697,38.949
						C1964.851,1018.343,1967.27,1044.23,1967.27,1044.23z"/>
					<path style="fill:#EFBC73;" d="M1888.224,1050.942c-5.234,0-10.245-0.59-15.02-1.772
						c-15.892-3.934-32.633-17.449-33.878-35.671c-0.082-1.214,0.836-2.267,2.05-2.351c1.264-0.022,2.269,0.838,2.351,2.05
						c1.1,16.116,16.194,28.144,30.536,31.692c13.905,3.439,30.116,1.466,48.181-5.87c1.122-0.454,2.414,0.082,2.872,1.214
						c0.459,1.128-0.086,2.414-1.214,2.872C1911.259,1048.324,1899.248,1050.942,1888.224,1050.942z"/>
				</g>
			</g>
		</g>
		<g>
			<g>
				<rect x="876.63" y="1983.775" style="fill:#D87355;" width="467.056" height="103.795"/>
				<rect x="867.548" y="2038.257" style="fill:#84524D;" width="487.815" height="63.629"/>
				<rect x="865.818" y="1961.902" style="fill:#84524D;" width="487.814" height="63.629"/>
			</g>
			<g>
				
					<rect x="1197.401" y="1918.394" transform="matrix(0.9199 0.3922 -0.3922 0.9199 886.1069 -441.1814)" style="fill:#84524D;" width="650.663" height="59.07"/>
				
					<rect x="1243.803" y="1798.069" transform="matrix(0.9199 0.3922 -0.3922 0.9199 819.7014 -345.7515)" style="fill:#D87355;" width="24.381" height="70.154"/>
				
					<rect x="1086.598" y="1651.288" transform="matrix(0.9199 0.3922 -0.3922 0.9199 799.4016 -315.8837)" style="fill:#84524D;" width="172.295" height="294.202"/>
				
					<rect x="1139.246" y="1645.327" transform="matrix(0.9199 0.3922 -0.3922 0.9199 750.4144 -349.7305)" style="fill:#D87355;" width="183.673" height="32.508"/>
				
					<rect x="1026.924" y="1906.661" transform="matrix(0.9199 0.3922 -0.3922 0.9199 843.9205 -284.7284)" style="fill:#D87355;" width="183.673" height="32.508"/>
				<path style="fill:#FFFFFF;" d="M1313.318,1698.853c-0.286,0-0.577-0.056-0.855-0.172l-167.031-70.343
					c-1.122-0.474-1.648-1.766-1.176-2.887c0.473-1.124,1.761-1.647,2.887-1.178l167.029,70.343
					c1.124,0.474,1.649,1.766,1.178,2.887C1314.995,1698.347,1314.177,1698.853,1313.318,1698.853z"/>
				<path style="fill:#FFFFFF;" d="M1201.422,1961.253c-0.295,0-0.594-0.058-0.882-0.185l-167.567-73.222
					c-1.115-0.487-1.626-1.787-1.138-2.902c0.488-1.12,1.79-1.632,2.903-1.137l167.567,73.222c1.115,0.487,1.626,1.787,1.138,2.902
					C1203.081,1960.76,1202.271,1961.253,1201.422,1961.253z"/>
			</g>
		</g>
	</g>
</g>
</svg>
