<?xml version="1.0" encoding="utf-8"?>
<!-- Generator: Adobe Illustrator 27.5.0, SVG Export Plug-In . SVG Version: 6.00 Build 0)  -->
<svg version="1.1" xmlns="http://www.w3.org/2000/svg" xmlns:xlink="http://www.w3.org/1999/xlink" x="0px" y="0px"
	 viewBox="0 0 2500 2500" style="enable-background:new 0 0 2500 2500;" xml:space="preserve">
-
<g id="Illustration">
	<g id="Keep_distance_1_">
		<ellipse style="fill:transparent;" cx="1250.092" cy="1250" rx="913.57" ry="915"/>
		<g>
			<g>
				<rect x="339.504" y="921.116" style="fill:#E6D0BE;" width="272.917" height="481.279"/>
				<g>
					<rect x="371.078" y="965.019" style="fill:#F2E6DC;" width="21.67" height="38.214"/>
					<rect x="433.148" y="965.019" style="fill:#F2E6DC;" width="21.67" height="38.214"/>
					<rect x="495.219" y="965.019" style="fill:#F2E6DC;" width="21.67" height="38.214"/>
					<rect x="557.289" y="965.019" style="fill:#F2E6DC;" width="21.67" height="38.214"/>
					<rect x="371.078" y="1052.431" style="fill:#F2E6DC;" width="21.67" height="38.215"/>
					<rect x="433.148" y="1052.431" style="fill:#F2E6DC;" width="21.67" height="38.215"/>
					<rect x="495.219" y="1052.431" style="fill:#F2E6DC;" width="21.67" height="38.215"/>
					<rect x="557.289" y="1052.431" style="fill:#F2E6DC;" width="21.67" height="38.215"/>
					<rect x="371.078" y="1139.843" style="fill:#F2E6DC;" width="21.67" height="38.215"/>
					<rect x="433.148" y="1139.843" style="fill:#F2E6DC;" width="21.67" height="38.215"/>
					<rect x="495.219" y="1139.843" style="fill:#F2E6DC;" width="21.67" height="38.215"/>
					<rect x="557.289" y="1139.843" style="fill:#F2E6DC;" width="21.67" height="38.215"/>
					<rect x="371.078" y="1227.255" style="fill:#F2E6DC;" width="21.67" height="38.214"/>
					<rect x="433.148" y="1227.255" style="fill:#F2E6DC;" width="21.67" height="38.214"/>
					<rect x="495.219" y="1227.255" style="fill:#F2E6DC;" width="21.67" height="38.214"/>
					<rect x="557.289" y="1227.255" style="fill:#F2E6DC;" width="21.67" height="38.214"/>
					<rect x="371.078" y="1314.667" style="fill:#F2E6DC;" width="21.67" height="38.215"/>
					<rect x="433.148" y="1314.667" style="fill:#F2E6DC;" width="21.67" height="38.215"/>
					<rect x="495.219" y="1314.667" style="fill:#F2E6DC;" width="21.67" height="38.215"/>
					<rect x="557.289" y="1314.667" style="fill:#F2E6DC;" width="21.67" height="38.215"/>
				</g>
			</g>
			<g>
				<rect x="1745.76" y="824.634" style="fill:#F7F1EB;" width="299.16" height="608.704"/>
				<g>
					<rect x="1780.371" y="880.161" style="fill:#E6D0BE;" width="23.754" height="48.332"/>
					<rect x="1848.41" y="880.161" style="fill:#E6D0BE;" width="23.754" height="48.332"/>
					<rect x="1916.448" y="880.161" style="fill:#E6D0BE;" width="23.754" height="48.332"/>
					<rect x="1984.487" y="880.161" style="fill:#E6D0BE;" width="23.754" height="48.332"/>
					<rect x="1780.371" y="990.716" style="fill:#E6D0BE;" width="23.754" height="48.332"/>
					<rect x="1848.41" y="990.716" style="fill:#E6D0BE;" width="23.754" height="48.332"/>
					<rect x="1916.448" y="990.716" style="fill:#E6D0BE;" width="23.754" height="48.332"/>
					<rect x="1984.487" y="990.716" style="fill:#E6D0BE;" width="23.754" height="48.332"/>
					<rect x="1780.371" y="1101.272" style="fill:#E6D0BE;" width="23.754" height="48.332"/>
					<rect x="1848.41" y="1101.272" style="fill:#E6D0BE;" width="23.754" height="48.332"/>
					<rect x="1916.448" y="1101.272" style="fill:#E6D0BE;" width="23.754" height="48.332"/>
					<rect x="1984.487" y="1101.272" style="fill:#E6D0BE;" width="23.754" height="48.332"/>
					<rect x="1780.371" y="1211.827" style="fill:#E6D0BE;" width="23.754" height="48.332"/>
					<rect x="1848.41" y="1211.827" style="fill:#E6D0BE;" width="23.754" height="48.332"/>
					<rect x="1916.448" y="1211.827" style="fill:#E6D0BE;" width="23.754" height="48.332"/>
					<rect x="1984.487" y="1211.827" style="fill:#E6D0BE;" width="23.754" height="48.332"/>
					<rect x="1780.371" y="1322.382" style="fill:#E6D0BE;" width="23.754" height="48.332"/>
					<rect x="1848.41" y="1322.382" style="fill:#E6D0BE;" width="23.754" height="48.332"/>
					<rect x="1916.448" y="1322.382" style="fill:#E6D0BE;" width="23.754" height="48.332"/>
					<rect x="1984.487" y="1322.382" style="fill:#E6D0BE;" width="23.754" height="48.332"/>
				</g>
			</g>
			<g>
				<rect x="1870.302" y="903.549" style="fill:#E6D0BE;" width="292.429" height="515.689"/>
				<g>
					<rect x="1904.134" y="950.591" style="fill:#F2E6DC;" width="23.219" height="40.947"/>
					<rect x="1970.642" y="950.591" style="fill:#F2E6DC;" width="23.219" height="40.947"/>
					<rect x="2037.15" y="950.591" style="fill:#F2E6DC;" width="23.219" height="40.947"/>
					<rect x="2103.658" y="950.591" style="fill:#F2E6DC;" width="23.219" height="40.947"/>
					<rect x="1904.134" y="1044.252" style="fill:#F2E6DC;" width="23.219" height="40.947"/>
					<rect x="1970.642" y="1044.252" style="fill:#F2E6DC;" width="23.219" height="40.947"/>
					<rect x="2037.15" y="1044.252" style="fill:#F2E6DC;" width="23.219" height="40.947"/>
					<rect x="2103.658" y="1044.252" style="fill:#F2E6DC;" width="23.219" height="40.947"/>
					<rect x="1904.134" y="1137.914" style="fill:#F2E6DC;" width="23.219" height="40.947"/>
					<rect x="1970.642" y="1137.914" style="fill:#F2E6DC;" width="23.219" height="40.947"/>
					<rect x="2037.15" y="1137.914" style="fill:#F2E6DC;" width="23.219" height="40.947"/>
					<rect x="2103.658" y="1137.914" style="fill:#F2E6DC;" width="23.219" height="40.947"/>
					<rect x="1904.134" y="1231.575" style="fill:#F2E6DC;" width="23.219" height="40.947"/>
					<rect x="1970.642" y="1231.575" style="fill:#F2E6DC;" width="23.219" height="40.947"/>
					<rect x="2037.15" y="1231.575" style="fill:#F2E6DC;" width="23.219" height="40.947"/>
					<rect x="2103.658" y="1231.575" style="fill:#F2E6DC;" width="23.219" height="40.947"/>
					<rect x="1904.134" y="1325.237" style="fill:#F2E6DC;" width="23.219" height="40.947"/>
					<rect x="1970.642" y="1325.237" style="fill:#F2E6DC;" width="23.219" height="40.947"/>
					<rect x="2037.15" y="1325.237" style="fill:#F2E6DC;" width="23.219" height="40.947"/>
					<rect x="2103.658" y="1325.237" style="fill:#F2E6DC;" width="23.219" height="40.947"/>
				</g>
			</g>
			<path style="fill:#E6D0BE;" d="M335.695,1415.04c87.404,428.794,462.011,748.045,912.74,748.045s826.835-320.696,914.238-749.49
				L335.695,1415.04z"/>
		</g>
		<path style="fill:#D87355;" d="M1463.129,2016.198c0,4.374,2.187,89.666,2.187,89.666l89.666-46.655L1463.129,2016.198z"/>
		<path style="fill:#D87355;" d="M1014.799,2014.011c0,4.374-2.187,89.666-2.187,89.666l-89.666-46.655L1014.799,2014.011z"/>
		<g>
			<rect x="993.659" y="2036.609" style="fill:#D87355;" width="481.134" height="45.926"/>
		</g>
		<g>
			<g>
				<g>
					<path style="fill:#FFFFFF;" d="M1571.008,566.318l-14.27-4.806c1.065-7.386,1.521-14.765,1.404-22.076l14.751-2.971
						l-10.061-49.955l-14.784,2.978c-2.751-6.847-6.037-13.469-9.824-19.802l11.314-9.971l-33.691-38.232l-11.289,9.948
						c-5.751-4.516-11.902-8.617-18.427-12.237l4.806-14.27l-48.293-16.264l-4.806,14.27c-7.386-1.065-14.765-1.52-22.076-1.404
						l-2.971-14.751l-49.955,10.061l2.977,14.784c-6.847,2.751-13.469,6.037-19.802,9.824l-9.971-11.315l-38.232,33.691
						l9.948,11.289c-4.516,5.751-8.616,11.902-12.237,18.427l-14.27-4.806l-16.265,48.293l14.27,4.806
						c-1.065,7.386-1.521,14.765-1.404,22.076l-14.75,2.971l10.061,49.955l14.784-2.978c2.751,6.847,6.037,13.469,9.824,19.802
						l-11.315,9.971l33.691,38.232l11.289-9.948c5.751,4.516,11.902,8.616,18.427,12.237l-4.806,14.269l48.293,16.265l4.806-14.27
						c7.386,1.065,14.764,1.521,22.076,1.404l2.971,14.751l49.955-10.062l-2.977-14.784c6.847-2.751,13.469-6.037,19.802-9.825
						l9.971,11.315l38.232-33.691l-9.948-11.289c4.516-5.751,8.616-11.902,12.237-18.427l14.27,4.806L1571.008,566.318z
						 M1481.569,597.426c-14.183,17.315-35.273,27.778-57.64,28.596c-75.997,2.78-117.697-81.273-69.507-140.105
						c14.183-17.315,35.273-27.778,57.641-28.596C1488.06,454.542,1529.76,538.595,1481.569,597.426z"/>
				</g>
				<path style="fill:#F2E6DC;" d="M1418.02,654.16c-11.973,0-24.091-1.916-35.921-5.899c-28.471-9.588-51.504-29.69-64.855-56.602
					c-13.353-26.912-15.425-57.413-5.836-85.884c8.648-25.68,26.265-47.369,49.604-61.071c23.106-13.566,50.284-18.47,76.521-13.809
					c0.544,0.096,0.906,0.616,0.81,1.159c-0.097,0.544-0.62,0.91-1.159,0.81c-53.317-9.47-106.569,22.15-123.881,73.55
					c-9.418,27.964-7.382,57.923,5.732,84.356c13.115,26.434,35.738,46.178,63.703,55.596
					c47.702,16.065,100.218-2.103,127.716-44.181c0.302-0.463,0.922-0.592,1.384-0.29c0.463,0.302,0.593,0.922,0.29,1.384
					C1490.95,635.682,1455.197,654.16,1418.02,654.16z"/>
			</g>
			<g>
				<g>
					<path style="fill:#FFFFFF;" d="M1670.411,811.42c-0.233,0-0.461-0.082-0.642-0.233c-0.203-0.17-0.331-0.414-0.354-0.678
						l-0.96-10.784c-5.159-0.529-10.313-1.43-15.348-2.682l-4.56,9.819c-0.233,0.5-0.826,0.72-1.328,0.485l-35.717-16.588
						c-0.241-0.111-0.427-0.314-0.519-0.563c-0.091-0.249-0.079-0.524,0.032-0.765l4.55-9.794
						c-4.214-3.042-8.229-6.404-11.956-10.009l-8.842,6.211c-0.452,0.317-1.076,0.208-1.394-0.244l-22.637-32.224
						c-0.317-0.452-0.208-1.076,0.243-1.393l8.843-6.212c-2.127-4.727-3.928-9.645-5.361-14.642l-10.757,0.958
						c-0.261,0.021-0.526-0.059-0.73-0.229c-0.203-0.17-0.331-0.414-0.354-0.678l-3.492-39.226c-0.023-0.264,0.059-0.527,0.229-0.73
						c0.17-0.204,0.414-0.331,0.678-0.355l10.784-0.96c0.529-5.159,1.43-10.314,2.682-15.348l-9.818-4.561
						c-0.241-0.111-0.427-0.314-0.519-0.563c-0.091-0.249-0.079-0.524,0.032-0.765l16.589-35.716c0.232-0.5,0.826-0.72,1.328-0.485
						l9.795,4.549c3.04-4.21,6.401-8.226,10.01-11.955l-6.212-8.843c-0.317-0.452-0.208-1.076,0.243-1.393l32.225-22.637
						c0.218-0.153,0.489-0.212,0.747-0.167c0.262,0.045,0.494,0.193,0.646,0.41l6.212,8.843c4.727-2.128,9.646-3.929,14.642-5.361
						l-0.958-10.757c-0.023-0.264,0.059-0.527,0.229-0.73c0.17-0.204,0.414-0.331,0.678-0.354l39.226-3.492
						c0.259-0.024,0.527,0.059,0.73,0.229c0.203,0.171,0.331,0.414,0.354,0.678l0.96,10.784c5.159,0.529,10.314,1.43,15.348,2.683
						l4.56-9.819c0.112-0.24,0.314-0.427,0.563-0.517c0.25-0.092,0.524-0.08,0.765,0.032l35.717,16.589
						c0.241,0.111,0.427,0.314,0.519,0.563c0.091,0.249,0.079,0.524-0.032,0.765l-4.55,9.794c4.213,3.042,8.229,6.403,11.956,10.01
						l8.842-6.212c0.219-0.153,0.49-0.211,0.747-0.167c0.262,0.045,0.494,0.193,0.646,0.41l22.637,32.225
						c0.317,0.452,0.208,1.076-0.243,1.393l-8.843,6.212c2.127,4.724,3.928,9.642,5.361,14.642l10.757-0.958
						c0.26-0.02,0.527,0.059,0.73,0.229c0.203,0.17,0.331,0.414,0.354,0.678l3.492,39.226c0.049,0.55-0.357,1.036-0.907,1.085
						l-10.783,0.96c-0.53,5.161-1.432,10.316-2.683,15.348l9.818,4.56c0.241,0.111,0.427,0.314,0.519,0.564
						c0.091,0.249,0.079,0.524-0.032,0.765l-16.589,35.716c-0.232,0.5-0.827,0.719-1.328,0.485l-9.795-4.549
						c-3.042,4.214-6.404,8.23-10.01,11.955l6.212,8.843c0.317,0.452,0.208,1.076-0.243,1.393l-32.224,22.637
						c-0.452,0.317-1.077,0.208-1.394-0.244l-6.212-8.843c-4.727,2.127-9.645,3.928-14.642,5.362l0.957,10.757
						c0.049,0.55-0.357,1.036-0.907,1.084l-39.226,3.492C1670.47,811.419,1670.44,811.42,1670.411,811.42z M1652.55,794.871
						c0.082,0,0.166,0.01,0.249,0.031c5.456,1.402,11.065,2.382,16.674,2.914c0.479,0.045,0.858,0.427,0.901,0.907l0.944,10.613
						l37.233-3.314l-0.941-10.587c-0.043-0.48,0.264-0.922,0.728-1.052c5.439-1.515,10.79-3.475,15.902-5.824
						c0.437-0.201,0.959-0.062,1.236,0.334l6.114,8.704l30.587-21.487l-6.113-8.704c-0.277-0.395-0.233-0.932,0.105-1.276
						c3.945-4.014,7.604-8.382,10.872-12.985c0.279-0.394,0.803-0.53,1.236-0.328l9.64,4.477l15.746-33.902l-9.663-4.488
						c-0.438-0.203-0.668-0.689-0.548-1.156c1.401-5.455,2.382-11.064,2.915-16.674c0.045-0.479,0.427-0.858,0.906-0.901
						l10.612-0.945l-3.314-37.233l-10.586,0.942c-0.467,0.044-0.922-0.262-1.052-0.727c-1.517-5.442-3.476-10.792-5.824-15.903
						c-0.202-0.438-0.062-0.958,0.333-1.236l8.703-6.114l-21.486-30.588l-8.703,6.114c-0.396,0.278-0.931,0.233-1.276-0.105
						c-4.016-3.947-8.385-7.605-12.985-10.873c-0.394-0.279-0.531-0.799-0.328-1.237l4.478-9.639l-33.903-15.747l-4.487,9.664
						c-0.203,0.436-0.689,0.665-1.156,0.547c-5.456-1.402-11.065-2.383-16.674-2.914c-0.479-0.045-0.858-0.427-0.901-0.907
						l-0.944-10.613l-37.233,3.314l0.942,10.586c0.043,0.48-0.264,0.923-0.728,1.052c-5.438,1.514-10.789,3.473-15.903,5.824
						c-0.439,0.2-0.959,0.061-1.236-0.334l-6.113-8.704l-30.588,21.488l6.113,8.703c0.277,0.394,0.233,0.932-0.105,1.275
						c-3.948,4.019-7.606,8.388-10.871,12.985c-0.28,0.394-0.805,0.53-1.236,0.328l-9.641-4.477l-15.746,33.902l9.663,4.488
						c0.438,0.203,0.668,0.689,0.548,1.156c-1.402,5.457-2.382,11.067-2.914,16.674c-0.045,0.48-0.427,0.859-0.906,0.902
						l-10.613,0.944l3.314,37.234l10.587-0.942c0.483-0.038,0.923,0.263,1.052,0.728c1.515,5.438,3.474,10.789,5.823,15.903
						c0.202,0.438,0.062,0.958-0.333,1.236l-8.703,6.114l21.486,30.588l8.703-6.114c0.395-0.277,0.932-0.233,1.276,0.105
						c4.015,3.946,8.384,7.604,12.985,10.872c0.394,0.279,0.531,0.799,0.328,1.237l-4.478,9.639l33.903,15.746l4.487-9.663
						C1651.81,795.09,1652.168,794.871,1652.55,794.871z M1678.638,757.7c-12.207,0-24.266-3.637-34.548-10.625
						c-22.814-15.508-34.153-41.352-29.593-67.446c4.561-26.095,23.994-46.56,50.717-53.411c17.072-4.377,35.22-1.204,49.793,8.702
						c22.814,15.509,34.154,41.353,29.594,67.448c-4.562,26.094-23.995,46.56-50.718,53.41
						C1688.855,757.065,1683.732,757.7,1678.638,757.7z M1680.461,626.294c-4.932,0-9.885,0.613-14.751,1.861
						c-25.95,6.652-44.819,26.508-49.243,51.817c-4.423,25.309,6.592,50.388,28.748,65.448c14.1,9.584,31.653,12.652,48.172,8.419
						l0.248,0.969l-0.248-0.969c25.95-6.652,44.819-26.507,49.243-51.817c4.424-25.31-6.592-50.388-28.748-65.449
						C1703.937,629.813,1692.268,626.294,1680.461,626.294z"/>
				</g>
				<path style="fill:#FFFFFF;" d="M1679.586,778.178c-27.769,0-54.653-13.324-71.347-37.088
					c-13.381-19.047-18.543-42.165-14.535-65.095c4.007-22.93,16.704-42.927,35.751-56.307
					c17.18-12.069,38.124-17.532,58.988-15.382c20.652,2.128,39.872,11.531,54.119,26.479c0.381,0.4,0.366,1.033-0.033,1.414
					c-0.4,0.381-1.033,0.366-1.414-0.034c-28.795-30.208-76.305-34.868-110.51-10.839c-18.611,13.073-31.017,32.611-34.932,55.015
					c-3.915,22.404,1.129,44.991,14.202,63.602c22.3,31.743,63.208,44.424,99.492,30.832c0.516-0.194,1.094,0.069,1.287,0.586
					s-0.068,1.093-0.586,1.287C1700.098,776.381,1689.781,778.178,1679.586,778.178z"/>
			</g>
		</g>
		<g>
			<g>
				<g>
					
						<rect x="760.503" y="785.758" transform="matrix(-1 -1.224647e-16 1.224647e-16 -1 2333.167 2187.0986)" style="fill:#D3BBA3;" width="812.16" height="615.583"/>
					
						<rect x="908.955" y="688.268" transform="matrix(-1.836970e-16 1 -1 -1.836970e-16 2235.4509 -97.7161)" style="fill:#F2E6DC;" width="515.258" height="761.199"/>
					<path style="fill:#F7F1EB;" d="M1151.296,1360.894c0,8.443,6.845,15.288,15.288,15.288c8.443,0,15.288-6.844,15.288-15.288
						c0-8.443-6.844-15.288-15.288-15.288C1158.14,1345.606,1151.296,1352.45,1151.296,1360.894z"/>
				</g>
				<path style="fill:#D3BBA3;" d="M760.503,1418.03c0,35.233,28.563,63.797,63.796,63.797h851.293
					c35.234,0,63.796-28.563,63.796-63.797H760.503z"/>
				<path style="fill:#F2E6DC;" d="M974.278,1476.215c-28.439,0-51.575-23.137-51.575-51.575c0-0.552,0.447-1,1-1
					c0.553,0,1,0.448,1,1c0,27.336,22.239,49.575,49.575,49.575c0.553,0,1,0.448,1,1S974.831,1476.215,974.278,1476.215z"/>
				<path style="fill:#F2E6DC;" d="M1394.521,1461.217h-95.436c-15.499,0-28.108-12.609-28.108-28.108c0-0.552,0.447-1,1-1h149.653
					c0.553,0,1,0.448,1,1C1422.63,1448.607,1410.021,1461.217,1394.521,1461.217z M1272.995,1434.108
					c0.527,13.935,12.028,25.108,26.09,25.108h95.436c14.062,0,25.563-11.174,26.091-25.108H1272.995z"/>
			</g>
			<g>
				<g>
					<path style="fill:#D3BBA3;" d="M1456.894,1265.868c-0.051,0-0.102-0.004-0.153-0.012c-0.546-0.084-0.92-0.594-0.836-1.14
						c7.142-46.431,24.828-91.273,51.146-129.68c21.8-31.81,49.081-59.079,81.086-81.049c0.458-0.313,1.079-0.197,1.391,0.258
						c0.313,0.455,0.197,1.078-0.258,1.39c-31.802,21.831-58.909,48.925-80.568,80.531c-26.15,38.16-43.724,82.716-50.82,128.853
						C1457.805,1265.515,1457.379,1265.868,1456.894,1265.868z"/>
					<path style="fill:#D3BBA3;" d="M1438.918,1269.299c-0.415,0-0.804-0.261-0.946-0.676
						c-11.955-34.836-17.325-72.943-15.529-110.202c1.488-30.863,7.685-60.879,18.416-89.214c0.196-0.517,0.775-0.778,1.29-0.581
						c0.517,0.195,0.776,0.773,0.581,1.289c-10.657,28.14-16.811,57.95-18.289,88.603c-1.784,37.007,3.549,74.857,15.424,109.456
						c0.179,0.522-0.1,1.091-0.622,1.271C1439.135,1269.281,1439.025,1269.299,1438.918,1269.299z"/>
					<rect x="1369.511" y="1218.88" style="fill:#E6D0BE;" width="145.489" height="106.691"/>
				</g>
				<g>
					<g>
						<path style="fill:#E6D0BE;" d="M1654.568,1104.654l-89.154-16.178l118.557-35.646c22.034-49.491,29.351-96.237,29.351-96.237
							s-21.181-1.208-51.569,1.858l-54.055,90.843l4.958-82.792c-25.145,5.841-51.92,14.966-76.421,29.182
							c-3.446,1.999-6.75,4.075-9.92,6.217l-11.192,125.21l-32.591-79.331c-20.989,36.143-19.442,75.525-0.748,98.342
							c28.673,34.997,102.369,37.122,158.286-23.701C1645.232,1116.807,1650.055,1110.846,1654.568,1104.654z"/>
						<path style="fill:#D3BBA3;" d="M1661.753,958.451c-14.669,1.48-31.48,3.959-49.098,8.051l-4.958,82.792L1661.753,958.451z"/>
						<path style="fill:#D3BBA3;" d="M1526.315,1001.902c-19.714,13.323-34.131,29.258-43.783,45.879l32.591,79.331
							L1526.315,1001.902z"/>
						<path style="fill:#D3BBA3;" d="M1654.568,1104.654c11.881-16.306,21.573-34.237,29.403-51.824l-118.557,35.646
							L1654.568,1104.654z"/>
					</g>
					<path style="fill:#D3BBA3;" d="M1484.042,1177.877c-0.145,0-0.292-0.031-0.431-0.098c-0.498-0.238-0.709-0.835-0.471-1.334
						c6.877-14.359,14.922-28.291,23.91-41.409c21.8-31.81,49.081-59.079,81.086-81.049c0.458-0.313,1.079-0.197,1.391,0.258
						c0.313,0.455,0.197,1.078-0.258,1.39c-31.802,21.831-58.909,48.925-80.568,80.531c-8.932,13.033-16.924,26.875-23.756,41.142
						C1484.773,1177.668,1484.415,1177.877,1484.042,1177.877z"/>
					<g>
						<path style="fill:#E6D0BE;" d="M1496.711,1076.509l-56.617,25.798l55.543-73.539c-4.486-43.09-16.447-78.204-16.447-78.204
							s-12.541,7.938-28.874,22.621l0.444,84.727l-25.764-58.879c-12.374,14.417-24.546,31.763-33.659,51.662
							c-1.282,2.799-2.456,5.591-3.53,8.373l36.85,90.574l-46.06-40.962c0.473,33.495,14.963,59.886,33.545,67.81
							c28.502,12.153,71.416-16.892,82.409-81.785C1495.566,1088.715,1496.267,1082.627,1496.711,1076.509z"/>
						<path style="fill:#D3BBA3;" d="M1450.316,973.184c-7.885,7.088-16.65,15.747-25.32,25.848l25.764,58.879L1450.316,973.184z"/>
						<path style="fill:#D3BBA3;" d="M1387.807,1059.068c-6.681,17.305-9.427,34.21-9.21,49.613l46.06,40.962L1387.807,1059.068z"/>
						<path style="fill:#D3BBA3;" d="M1496.711,1076.509c1.167-16.11,0.52-32.429-1.074-47.741l-55.543,73.539L1496.711,1076.509z"
							/>
					</g>
					<path style="fill:#D3BBA3;" d="M1423.77,1193.754c-0.521,0-0.961-0.404-0.997-0.933c-0.77-11.406-0.88-22.979-0.33-34.4
						c1.488-30.863,7.685-60.879,18.416-89.214c0.196-0.517,0.775-0.778,1.29-0.581c0.517,0.195,0.776,0.773,0.581,1.289
						c-10.657,28.14-16.811,57.95-18.289,88.603c-0.547,11.343-0.437,22.839,0.328,34.168c0.037,0.551-0.38,1.028-0.931,1.065
						C1423.815,1193.753,1423.792,1193.754,1423.77,1193.754z"/>
				</g>
			</g>
			<g>
				<polygon style="fill:#363E44;" points="1076.205,1325.367 1081.141,1276.769 1093.755,1325.367 1293.41,1325.367 
					1204.703,1020.477 937.44,1067.052 880.532,1325.367 				"/>
				<g>
					<g>
						<path style="fill:#84524D;" d="M871.672,854.374c-37.209-22.338-193.157-107.349-164.893-159.049
							c20.904-38.238,145.531,11.676,183.918,31.462C876.987,754.851,885.384,826.31,871.672,854.374z"/>
						<g>
							<path style="fill:#84524D;" d="M795.43,716.269c28.758-30.295,100.014-98.285,106.705-105.199
								c12.508-12.925,78.986-75.11,64.218-86.529c-6.964-5.385-36.339,25.086-42.93,31.845
								c6.089-8.907,36.616-44.249,27.067-50.523c-9.827-6.457-44.574,36.89-45.012,37.1c3.181-4.765,29.746-37.757,19.864-45.378
								c-9.516-7.338-32.451,30.856-37.207,34.832c3.267-6.561,19.974-29.367,13.763-34.143
								c-8.323-6.399-28.73,24.001-33.381,27.077c-11.123,11.474-31.384,26.525-54.521,46.005
								c-54.339,45.751-76.65,68.433-98.897,95.287c-8.629,10.416-20.004,33.701-6.957,60.811
								C737.481,723.756,766.092,719.966,795.43,716.269z"/>
							<path style="fill:#363E44;" d="M791.886,720.808c-0.249,0-0.498-0.092-0.691-0.278c-0.399-0.382-0.413-1.015-0.031-1.414
								c1.369-1.43,5.142-5.229,9.511-9.628c4.746-4.78,10.127-10.198,13.458-13.621c0.386-0.396,1.019-0.405,1.414-0.02
								c0.396,0.385,0.404,1.019,0.02,1.414c-3.339,3.431-8.723,8.852-13.473,13.636c-4.362,4.392-8.129,8.186-9.484,9.602
								C792.412,720.705,792.148,720.808,791.886,720.808z"/>
							<path style="fill:#363E44;" d="M910.416,586.683c-0.058,0-0.115-0.005-0.174-0.015c-0.544-0.095-0.907-0.614-0.813-1.158
								c5.559-31.66,2.039-36.649,0.268-37.324c-2.074-0.793-9.146,1.261-30.08,37.259c-0.277,0.477-0.891,0.64-1.367,0.361
								c-0.477-0.277-0.64-0.89-0.361-1.367c24.047-41.349,30.426-38.92,32.522-38.122c5.002,1.908,5.326,14.841,0.99,39.539
								C911.315,586.341,910.893,586.683,910.416,586.683z"/>
						</g>
					</g>
					<g>
						<path style="fill:#ff6900;" d="M1375.652,914.562c0,0-110.177-156.79-278.593-153.669
							c-62.288,1.154-240.597-64.894-240.597-64.894l-11.247,172.572l76.847,34.77l-13.956,221.687l346.068,5.65l-25.426-156.79
							L1375.652,914.562z"/>
					</g>
					<g>
						<polygon style="fill:#E0AA63;" points="1403.032,1289.525 1093.012,1263.276 1110.558,1056.043 1138.742,1058.429 
							1148.754,1045.362 1205.288,1050.149 1212.24,1064.652 1420.578,1082.292 						"/>
						<polygon style="fill:#EFBC73;" points="1435.617,1283.524 1128.294,1332.037 1095.865,1126.607 1123.803,1122.197 
							1130.406,1107.118 1186.449,1098.271 1196.663,1110.695 1403.188,1078.094 						"/>
					</g>
					<g>
						
							<rect x="1048.571" y="1259.629" transform="matrix(0.9882 0.1529 -0.1529 0.9882 224.6069 -168.9934)" style="fill:#D87355;" width="324.479" height="231.771"/>
						<path style="fill:#D3BBA3;" d="M1248.048,1290.101c-1.787,0-3.585-0.138-5.385-0.416l-40.309-6.238
							c-9.166-1.418-17.23-6.321-22.709-13.806s-7.715-16.654-6.296-25.82l1.509-9.747c2.929-18.921,20.693-31.937,39.627-29.006
							l40.308,6.238c18.922,2.929,31.934,20.705,29.005,39.626l-1.508,9.747c-1.419,9.166-6.321,17.231-13.807,22.709
							C1262.469,1287.792,1255.363,1290.101,1248.048,1290.101z M1209.155,1206.657c-15.855,0-29.821,11.578-32.32,27.723
							l-1.509,9.747c-1.337,8.638,0.771,17.28,5.933,24.333c5.163,7.054,12.764,11.674,21.402,13.011l40.309,6.238
							c17.819,2.761,34.585-9.502,37.344-27.334l1.508-9.747c2.76-17.832-9.503-34.584-27.335-37.344l-40.308-6.238
							C1212.492,1206.784,1210.812,1206.657,1209.155,1206.657z"/>
						<path style="fill:#363E44;" d="M1207.973,1391c-0.267,0-0.529-0.106-0.724-0.31l-124.188-130.087
							c-0.381-0.399-0.366-1.032,0.033-1.414c0.398-0.382,1.031-0.367,1.414,0.033l123.654,129.528l155.558-86.414
							c0.483-0.269,1.091-0.094,1.359,0.388c0.269,0.483,0.095,1.092-0.389,1.36l-156.232,86.79
							C1208.306,1390.959,1208.139,1391,1207.973,1391z"/>
						
							<rect x="1186.087" y="1375.468" transform="matrix(0.9882 0.1529 -0.1529 0.9882 226.422 -168.5672)" style="fill:#363E44;" width="45.728" height="24.126"/>
					</g>
					<g>
						<path style="fill:#84524D;" d="M1241.861,968.622c22.003,50.927,53.91,103.166,94.787,88.383
							c39.766-14.381,28.571-80.439,14.414-132.613L1241.861,968.622z"/>
						<g>
							<path style="fill:#84524D;" d="M1269.626,1011.324c-13.953,39.371-51.403,130.463-54.705,139.5
								c-6.172,16.894-34.317,74.17-16.18,78.597c8.552,2.087,15.697-11.126,18.97-19.981c-1.941,10.613-7.507,28.115,3.769,29.964
								c11.604,1.903,17.769-24.628,18.084-24.998c-0.969,5.646-8.026,24.827,4.1,27.771c11.678,2.835,13.304-19.622,16.032-25.189
								c-0.316,7.323-2.02,15.587,5.597,17.424c10.206,2.462,12.201-14.245,15.199-18.946c5.495-15.006,17.885-36.995,31.101-64.201
								c31.039-63.895,43.575-93.224,50.464-127.41c3.178-15.773,5.71-38.783-17.234-58.245
								C1319.522,980.919,1294.925,996.016,1269.626,1011.324z"/>
							<path style="fill:#363E44;" d="M1264.737,1024.666c-0.115,0-0.231-0.02-0.346-0.062c-0.519-0.191-0.783-0.766-0.593-1.284
								c2.229-6.049,6.158-17.144,8.759-24.486c1.074-3.031,1.922-5.425,2.331-6.565c0.188-0.519,0.763-0.792,1.279-0.602
								c0.521,0.187,0.79,0.759,0.604,1.279c-0.409,1.138-1.256,3.528-2.328,6.556c-2.603,7.346-6.535,18.448-8.768,24.509
								C1265.526,1024.416,1265.145,1024.666,1264.737,1024.666z"/>
							<g>
								<path style="fill:#363E44;" d="M1219.105,1188.999c-0.093,0-0.188-0.013-0.28-0.041l-7.597-2.223
									c-0.529-0.155-0.834-0.711-0.679-1.241s0.708-0.834,1.241-0.679l7.595,2.223c0.53,0.155,0.835,0.71,0.68,1.241
									C1219.938,1188.715,1219.539,1188.999,1219.105,1188.999z"/>
								<path style="fill:#363E44;" d="M1238.373,1194.667c-0.093,0-0.188-0.013-0.28-0.041l-7.597-2.223
									c-0.53-0.155-0.835-0.71-0.68-1.241c0.156-0.53,0.712-0.834,1.24-0.679l7.597,2.223c0.53,0.155,0.835,0.71,0.68,1.241
									C1239.205,1194.383,1238.807,1194.667,1238.373,1194.667z"/>
								<path style="fill:#363E44;" d="M1257.929,1200.654c-0.093,0-0.188-0.013-0.281-0.041l-7.596-2.223
									c-0.53-0.155-0.835-0.71-0.68-1.241c0.155-0.53,0.715-0.834,1.24-0.679l7.598,2.223c0.529,0.155,0.834,0.711,0.679,1.241
									C1258.761,1200.371,1258.362,1200.654,1257.929,1200.654z"/>
								<path style="fill:#363E44;" d="M1275.775,1205.718c-0.093,0-0.188-0.013-0.28-0.041l-7.597-2.223
									c-0.53-0.155-0.835-0.71-0.68-1.241c0.155-0.53,0.715-0.835,1.24-0.679l7.597,2.223c0.53,0.155,0.835,0.71,0.68,1.241
									C1276.607,1205.435,1276.209,1205.718,1275.775,1205.718z"/>
							</g>
						</g>
					</g>
				</g>
				<g>
					
						<rect x="1044.649" y="603.1" transform="matrix(-0.9956 -0.0937 0.0937 -0.9956 2120.1311 1380.5236)" style="fill:#363E44;" width="95.685" height="74.727"/>
					<polygon style="fill:#84524D;" points="1087.974,797.806 1058.414,762.324 1055.733,704.084 1119.075,701.144 
						1121.721,759.447 					"/>
					<path style="fill:#84524D;" d="M1138.551,664.747c-1.247,26.474-16.98,67.723-51.156,66.113
						c-34.176-1.61-45.962-44.155-44.715-70.629c1.247-26.474,23.933-39.976,50.407-38.729
						C1119.561,622.75,1139.798,638.273,1138.551,664.747z"/>
					<path style="fill:#84524D;" d="M1052.481,671.645c4.066,10.469,1.704,21.152-5.275,23.863
						c-6.979,2.71-15.932-3.579-19.998-14.047c-4.066-10.469-1.704-21.152,5.275-23.863
						C1039.462,654.887,1048.416,661.176,1052.481,671.645z"/>
					<path style="fill:#84524D;" d="M1127.479,675.178c-5.032,10.04-3.685,20.898,3.009,24.253
						c6.693,3.354,16.198-2.065,21.23-12.105c5.032-10.04,3.685-20.898-3.009-24.253
						C1142.016,659.718,1132.51,665.138,1127.479,675.178z"/>
					<path style="fill:#363E44;" d="M1140.743,691.477c-0.348,0-0.686-0.181-0.87-0.505c-0.273-0.48-0.105-1.09,0.374-1.364
						c1.987-1.133,3.755-3.1,4.978-5.538c2.454-4.899,1.928-10.15-1.174-11.705c-0.283-0.142-0.584-0.25-0.896-0.321
						c-0.538-0.123-0.875-0.66-0.752-1.198c0.123-0.539,0.659-0.874,1.197-0.753c0.469,0.107,0.922,0.27,1.348,0.484
						c4.086,2.048,5.013,8.503,2.064,14.388c-1.397,2.788-3.448,5.053-5.775,6.379
						C1141.081,691.435,1140.911,691.477,1140.743,691.477z"/>
					<path style="fill:#363E44;" d="M1038.268,686.65c-0.198,0-0.399-0.059-0.574-0.182c-2.191-1.54-4.02-3.988-5.148-6.893
						c-1.128-2.906-1.432-5.946-0.854-8.562c0.61-2.762,2.124-4.74,4.262-5.57c0.442-0.172,0.909-0.292,1.386-0.354
						c0.563-0.067,1.05,0.314,1.122,0.861c0.072,0.547-0.313,1.05-0.86,1.122c-0.318,0.042-0.629,0.121-0.922,0.235
						c-1.495,0.581-2.572,2.05-3.034,4.138c-0.494,2.234-0.222,4.864,0.766,7.405c0.986,2.542,2.562,4.666,4.434,5.981
						c0.451,0.318,0.561,0.941,0.243,1.394C1038.893,686.502,1038.582,686.65,1038.268,686.65z"/>
					<path style="fill:#363E44;" d="M1133.049,693.045c-0.11,0-0.224-0.018-0.334-0.058c-0.521-0.184-0.793-0.756-0.608-1.276
						c2.503-7.067,4.248-14.657,5.046-21.95c0.06-0.549,0.564-0.946,1.103-0.885c0.55,0.06,0.945,0.554,0.886,1.103
						c-0.814,7.443-2.596,15.19-5.149,22.4C1133.846,692.789,1133.461,693.045,1133.049,693.045z"/>
					<path style="fill:#363E44;" d="M1046.267,691.471c-0.437,0-0.838-0.289-0.962-0.73c-2.464-8.767-3.782-18.486-3.711-27.37
						c0.005-0.55,0.451-0.992,1-0.992c0.003,0,0.005,0,0.008,0c0.553,0.004,0.996,0.456,0.992,1.008
						c-0.069,8.7,1.222,18.223,3.637,26.813c0.149,0.532-0.16,1.083-0.692,1.233
						C1046.447,691.459,1046.356,691.471,1046.267,691.471z"/>
					<g>
						<path style="fill:#FFFFFF;" d="M1133.896,665.381c0,0-2.351,3.552-6.53,7.039c-2.777,2.317-8.163-0.702-12.401,0.495
							c-5.295,1.496-8.809,6.314-12.808,5.448c-4.019-0.87-6.707-2.121-6.707-2.121s1.306-1.973,3.701-4.421
							c2.954-3.02,7.839-1.411,13.703-3.067c4.939-1.395,9.623-6.416,13.512-5.662
							C1130.836,663.957,1133.896,665.381,1133.896,665.381z"/>
						<path style="fill:#363E44;" d="M1112.58,663.401c-5.87,1.658-10.477,5.405-13.431,8.427c0.434,2.398,1.459,4.647,2.982,6.529
							c4.002,0.87,9.329,1.364,14.635-0.135c4.271-1.206,7.863-3.52,10.649-5.855c0.711-3.222,0.277-6.46-1.056-9.269
							C1122.468,662.343,1117.522,662.005,1112.58,663.401z"/>
					</g>
					<g>
						<path style="fill:#FFFFFF;" d="M1046.169,661.248c0,0,2.364,4.427,6.862,8.612c2.399,2.233,7.6-0.26,11.179,1.126
							c4.765,1.845,7.513,6.645,11.448,6.266c4.561-0.439,7.766-1.577,7.766-1.577s-1.048-1.962-3.076-4.509
							c-2.643-3.319-9.546-0.849-15.367-3.104c-4.804-1.86-7.193-8.772-11.143-8.382
							C1049.329,660.125,1046.169,661.248,1046.169,661.248z"/>
						<path style="fill:#363E44;" d="M1080.277,671.077c-2.648-3.307-6.929-7.562-12.699-9.797
							c-4.816-1.865-9.801-1.984-13.755-1.59c-1.318,2.732-1.803,5.893-1.158,9.096c0.065,0.321,0.154,0.63,0.239,0.942
							c2.422,2.279,5.463,4.502,9.112,5.915c4.817,1.865,9.802,1.984,13.757,1.59
							C1077.802,675.619,1079.355,673.487,1080.277,671.077z"/>
					</g>
					<path style="fill:#363E44;" d="M1089.037,732.741c-0.61,0-1.223-0.018-1.843-0.056c-13.326-0.811-23.493-10.135-30.861-18.168
						c-0.373-0.407-0.346-1.039,0.062-1.413c0.404-0.374,1.038-0.348,1.413,0.061c7.556,8.237,16.97,16.761,29.508,17.524
						c12.591,0.762,23.099-7.063,30.874-13.968c0.412-0.368,1.043-0.331,1.412,0.083c0.366,0.413,0.329,1.045-0.084,1.412
						C1111.829,725.044,1101.505,732.741,1089.037,732.741z"/>
					<path style="fill:#363E44;" d="M1090.058,696.023c-0.374,0-0.732-0.21-0.903-0.569c-0.238-0.499-0.026-1.096,0.472-1.333
						c1.989-0.949,3.115-2.006,3.344-3.14c0.17-0.842-0.168-1.533-0.832-2.783c-0.488-0.92-1.097-2.065-1.505-3.569
						c-0.598-2.202-0.61-4.558-0.039-7.002c0.125-0.538,0.661-0.876,1.201-0.746c0.538,0.126,0.872,0.664,0.746,1.201
						c-0.495,2.118-0.487,4.145,0.021,6.023c0.35,1.288,0.877,2.28,1.342,3.155c0.692,1.303,1.346,2.534,1.026,4.117
						c-0.361,1.784-1.855,3.314-4.443,4.548C1090.349,695.992,1090.201,696.023,1090.058,696.023z"/>
					<path style="fill:#363E44;" d="M1086.842,706.519c-2.714,0-5.53-1.423-7.279-3.71c-1.125-1.47-1.762-3.231-1.793-4.958
						c-0.01-0.552,0.43-1.008,0.982-1.018c0.544-0.014,1.008,0.43,1.018,0.982c0.023,1.304,0.514,2.646,1.381,3.779
						c1.454,1.9,3.798,3.037,6.022,2.916c0.536-0.04,1.024,0.388,1.057,0.939c0.032,0.551-0.388,1.024-0.939,1.057
						C1087.142,706.515,1086.991,706.519,1086.842,706.519z"/>
					<path style="fill:#363E44;" d="M1124.816,620.699c2.841,7.269,11.036,10.859,18.305,8.018
						c7.269-2.841,22.08-11.049,19.239-18.318c-2.841-7.269-22.257-10.846-29.526-8.005
						C1125.565,605.234,1121.976,613.43,1124.816,620.699z"/>
					<path style="fill:#363E44;" d="M1022.992,623.582c3.468,8.875,25.811,8.107,34.686,4.638c8.875-3.468,13.258-13.475,9.79-22.35
						c-3.468-8.875-13.475-13.258-22.35-9.79C1036.243,599.549,1019.523,614.707,1022.992,623.582z"/>
					<path style="fill:#363E44;" d="M1114.435,604.354c3.468,8.875,13.475,13.258,22.35,9.79
						c8.875-3.468,23.693-23.992,17.807-30.819c-6.222-7.217-21.492-4.789-30.367-1.321
						C1115.349,585.472,1110.966,595.479,1114.435,604.354z"/>
					<path style="fill:#363E44;" d="M1054.955,599.151c2.187,5.595,8.494,8.358,14.089,6.171c5.595-2.187,8.358-8.494,6.171-14.089
						s-12.729-13.626-18.323-11.44C1051.297,581.98,1052.769,593.556,1054.955,599.151z"/>
					<path style="fill:#363E44;" d="M1070.68,602.939c3.469,8.875,13.475,13.258,22.35,9.79c8.875-3.469,13.258-13.475,9.79-22.35
						c-3.468-8.875-21.515-34.535-30.39-31.066C1063.555,562.781,1067.212,594.063,1070.68,602.939z"/>
					<path style="fill:#363E44;" d="M1072.901,634.647c3.468,8.875,23.152,6.73,32.027,3.261c8.875-3.469,13.258-13.475,9.79-22.35
						c-3.468-8.875-13.475-13.258-22.35-9.79C1083.492,609.237,1069.432,625.772,1072.901,634.647z"/>
					<path style="fill:#363E44;" d="M1093.511,595.559c3.468,8.875,13.475,13.258,22.35,9.79c8.875-3.468,13.258-13.475,9.79-22.35
						c-3.468-8.875-17.508-21.034-26.383-17.565C1090.393,568.902,1090.043,586.684,1093.511,595.559z"/>
					<path style="fill:#363E44;" d="M1114.396,624.809c-5.595,2.186-8.358,8.494-6.171,14.089
						c2.186,5.595,10.638,13.708,16.233,11.522s6.214-13.845,4.027-19.44C1126.299,625.386,1119.991,622.623,1114.396,624.809z"/>
				</g>
			</g>
		</g>
		<g>
			<path style="fill:#363E44;" d="M635.014,2162.27c-79.51,0-154.27-6.149-210.509-17.314c-56.696-11.256-87.92-26.433-87.92-42.735
				c0-16.302,31.224-31.479,87.92-42.735c56.239-11.166,130.999-17.314,210.509-17.314c79.509,0,154.269,6.149,210.508,17.314
				c56.696,11.256,87.92,26.433,87.92,42.735c0,16.302-31.224,31.479-87.92,42.735
				C789.282,2156.121,714.523,2162.27,635.014,2162.27z M635.014,2044.17c-79.383,0-154.005,6.135-210.119,17.276
				c-54.851,10.89-86.31,25.751-86.31,40.773c0,15.022,31.459,29.883,86.31,40.773c56.114,11.141,130.736,17.276,210.119,17.276
				c79.382,0,154.004-6.135,210.118-17.276c54.851-10.89,86.31-25.751,86.31-40.773c0-15.022-31.459-29.884-86.31-40.773
				C789.018,2050.306,714.396,2044.17,635.014,2044.17z"/>
			<g>
				<path style="fill:#363E44;" d="M732.418,2027.756c-5.003,9.075-10.646,21.601-14.227,37.209
					c-5.545,24.165-3.633,44.746-1.383,57.494c56.64,0,113.279,0,169.919,0c-1.176-7.582-3.121-14.323-5.472-20.284
					c-22.445-56.91-94.277-74.107-110.581-77.63C757.922,2025.615,745.17,2026.686,732.418,2027.756z"/>
				<path style="fill:#BC8271;" d="M712.071,1970.313l12.933,59.972c2.855,12.092,14.533,20.282,26.779,18.184
					c0.701-0.12,1.414-0.266,2.138-0.439c11.338-2.718,18.967-13.373,18.112-25.001l-5.596-58.682L712.071,1970.313z"/>
				<path style="fill:#363E44;" d="M393.254,2009.947c0,0-28.335,54.715-23.271,112.512c38.003,0,76.005,0,114.007,0
					c-2.971-12.458-7.51-26.982-14.591-42.537c-12.136-26.658-27.276-46.538-39.556-60.124L393.254,2009.947z"/>
				<path style="fill:#BC8271;" d="M388.163,2023.142c-0.809-19.972-0.709-56.82,8.382-86.474l66.283,19.569
					c0,0-21.749,33.069-28.625,70.004c-2.079,11.167-12.003,19.248-23.331,18.406c-1.485-0.11-3.034-0.302-4.641-0.592
					C396.066,2042.222,388.581,2033.462,388.163,2023.142z"/>
				<path style="fill:#D87355;" d="M503.057,1426.127c0,0-124.533,194.485-126.085,569.617h90.943
					c0,0,109.055-324.161,180.876-404.982l-26.567-180.93L503.057,1426.127z"/>
				<path style="fill:#D87355;" d="M560.237,1631.139c0,0,115.126,189.742,141.797,364.605h84.847
					c0,0,9.987-424.406-144.759-595.985l-77.936,16.623L560.237,1631.139z"/>
				<path style="fill:#363E44;" d="M598.2,1665.642c-0.14,0-0.282-0.029-0.417-0.092c-0.502-0.231-0.722-0.825-0.49-1.327
					l48.216-104.702c0.231-0.501,0.824-0.722,1.326-0.49c0.502,0.231,0.722,0.825,0.49,1.327l-48.216,104.702
					C598.94,1665.426,598.579,1665.642,598.2,1665.642z"/>
			</g>
			<g>
				<path style="fill:#84524D;" d="M611.832,1280.894c0,0,96.166,69.078,176.589-8.075l17.082-34.665
					c0,0,19.722,53.766,5.788,106.167c-13.934,52.401-71.227,62.99-149.809,46.966L611.832,1280.894z"/>
				<path style="fill:#EFBC73;" d="M459.345,1489.005c49.198-30.926,152.163-89.981,224.92-92.683c0,0,8.319-64.04-63.972-121.849
					c0,0-83.517-53.199-193.783-5.463c0,0-76.535,127.65-39.884,200.022C400.18,1495.796,433.947,1504.971,459.345,1489.005z"/>
				<g>
					<g>
						<path style="fill:#84524D;" d="M428.683,1267.784c0,35.821,1.737,66.284,4.763,118.029
							c3.475,59.439,5.064,88.356-16.972,97.155C294.599,1531.635,327.046,1321.398,428.683,1267.784z"/>
					</g>
					<g>
						<path style="fill:#84524D;" d="M405.027,1391.268c0,0,73.182-29.796,113.088-42.853
							c41.91-13.713,105.784-27.856,107.648-18.896c1.062,5.104-7.251,8.834-30.132,17.327c1.586,0.727,5.765,3.71,5.973,8.605
							c0.308,7.245-5.396,9.51-5.827,9.914c0.558,0.203,6.507,2.557,7.534,7.372c1.157,5.423-1.236,9.596-4.787,12.112
							c1.368,0.547,6.212,3.077,7.063,7.734c0.875,4.79-1.688,10.426-6.54,11.934c-8.9,2.767-35.507,10.483-47.998,15.817
							c-24.58,10.495-106.868,59.483-146.404,65.261C411.254,1451.65,405.027,1391.268,405.027,1391.268z"/>
						<g>
							<path style="fill:#363E44;" d="M587.823,1403.731c-0.477,0-0.898-0.341-0.983-0.826l-1.372-7.757
								c-0.097-0.544,0.267-1.063,0.81-1.159c0.55-0.095,1.064,0.267,1.159,0.811l1.372,7.758c0.097,0.543-0.267,1.063-0.811,1.159
								C587.94,1403.726,587.881,1403.731,587.823,1403.731z"/>
							<path style="fill:#363E44;" d="M584.171,1385.081c-0.489,0-0.917-0.359-0.989-0.857l-1.272-8.815
								c-0.078-0.546,0.301-1.054,0.848-1.132c0.54-0.083,1.054,0.301,1.133,0.847l1.273,8.815c0.078,0.546-0.301,1.054-0.848,1.132
								C584.267,1385.077,584.218,1385.081,584.171,1385.081z"/>
							<path style="fill:#363E44;" d="M581.679,1365.229c-0.476,0-0.897-0.34-0.983-0.825c-0.258-1.45-0.481-2.76-0.703-4.07
								c-0.222-1.305-0.443-2.61-0.7-4.055c-0.097-0.544,0.266-1.063,0.81-1.16c0.545-0.096,1.063,0.266,1.159,0.809
								c0.258,1.45,0.481,2.76,0.703,4.07c0.222,1.305,0.443,2.61,0.7,4.055c0.097,0.544-0.266,1.063-0.81,1.16
								C581.796,1365.224,581.736,1365.229,581.679,1365.229z"/>
							<path style="fill:#363E44;" d="M578.059,1349.112c-0.446,0-0.854-0.301-0.968-0.753l-1.927-7.58
								c-0.137-0.535,0.186-1.08,0.723-1.216c0.529-0.137,1.079,0.187,1.215,0.723l1.927,7.58c0.137,0.535-0.187,1.08-0.723,1.216
								C578.224,1349.103,578.141,1349.112,578.059,1349.112z"/>
						</g>
					</g>
				</g>
				<g>
					<g>
						<polygon style="fill:#FFFFFF;" points="774.438,1329.042 701.556,1329.042 749.62,1216.597 822.502,1216.597 						"/>
						<path style="fill:#D3BBA3;" d="M766.109,1230.164c0,2.721-2.205,4.926-4.926,4.926c-2.721,0-4.926-2.205-4.926-4.926
							c0-2.72,2.205-4.926,4.926-4.926C763.904,1225.238,766.109,1227.444,766.109,1230.164z"/>
					</g>
					<g>
						<path style="fill:#84524D;" d="M820.723,1255.028c0,7.38-0.622,13.362-13.404,13.362c-12.781,0-32.882-5.982-32.882-13.362
							c0-7.38,20.101-13.362,32.882-13.362C820.101,1241.666,820.723,1247.649,820.723,1255.028z"/>
						<path style="fill:#84524D;" d="M767.65,1274.665c0-7.38,20.101-13.362,32.882-13.362c12.782,0,13.404,5.982,13.404,13.362
							H767.65z"/>
						<path style="fill:#84524D;" d="M813.936,1274.665c0,7.38-0.622,13.362-13.404,13.362c-12.781,0-32.882-5.982-32.882-13.362
							H813.936z"/>
						<path style="fill:#84524D;" d="M760.863,1294.301c0-7.38,20.101-13.362,32.882-13.362c12.781,0,13.404,5.982,13.404,13.362
							H760.863z"/>
						<path style="fill:#84524D;" d="M807.149,1294.301c0,7.38-0.622,13.362-13.404,13.362c-12.782,0-32.882-5.982-32.882-13.362
							H807.149z"/>
						<path style="fill:#84524D;" d="M763.569,1311.197c0-5.866,15.978-10.621,26.138-10.621s10.654,4.755,10.654,10.621H763.569z"
							/>
						<path style="fill:#84524D;" d="M800.361,1311.197c0,5.866-0.494,10.621-10.654,10.621s-26.138-4.755-26.138-10.621H800.361z"
							/>
					</g>
				</g>
			</g>
			<g>
				<circle style="fill:#363E44;" cx="531.716" cy="1178.505" r="47.034"/>
				<path style="fill:#84524D;" d="M564.203,1201.948c-5.952-3.288-16.149-12.07-19.437-6.119l-38.585,61.705
					c-3.288,5.952,16.45,3.88,22.402,7.169c5.952,3.288,13.442,1.129,16.73-4.823l23.713-41.202
					C572.314,1212.727,570.155,1205.237,564.203,1201.948z"/>
				<ellipse style="fill:#84524D;" cx="526.478" cy="1262.302" rx="33.272" ry="10.017"/>
				<g>
					<path style="fill:#84524D;" d="M595.348,1218.925c-5.339,9.991-36.632,5.695-36.632,5.695l-27.29-21.282
						c-7.111-14.261-1.314-31.587,12.948-38.697c14.262-7.111,31.587-1.313,38.697,12.948
						C583.071,1177.589,600.786,1208.749,595.348,1218.925z"/>
					<path style="fill:#84524D;" d="M583.489,1185.859c0,0,11.026,3.977,11.64,6.173c0.732,2.621-6.608,8.102-6.608,8.102
						S583.691,1185.781,583.489,1185.859z"/>
					<g>
						<path style="fill:#FFFFFF;" d="M559.634,1196.373c0,0,3.164-4.481,8.375-7.079c1.109-0.553,3.441,9.363,2.138,9.385
							C564.418,1198.777,559.634,1196.373,559.634,1196.373z"/>
						<g>
							<defs>
								<path id="SVGID_1_" d="M559.634,1196.373c0,0,4.653-6.59,11.969-8.42c7.316-1.83,14.523,1.793,14.523,1.793
									s-4.653,6.59-11.969,8.42C566.842,1199.995,559.634,1196.373,559.634,1196.373z"/>
							</defs>
							<clipPath id="SVGID_00000077290107818161352250000002378942539700417191_">
								<use xlink:href="#SVGID_1_"  style="overflow:visible;"/>
							</clipPath>
							<path style="clip-path:url(#SVGID_00000077290107818161352250000002378942539700417191_);fill:#363E44;" d="
								M568.117,1188.956c1.728-5.165,7.317-7.951,12.482-6.223c5.165,1.728,7.951,7.317,6.223,12.482
								c-1.728,5.165-7.317,7.951-12.482,6.223C569.174,1199.709,566.388,1194.121,568.117,1188.956z"/>
						</g>
					</g>
					<path style="fill:#363E44;" d="M582.555,1209.216c-0.188,0-0.375-0.01-0.563-0.032c-1.893-0.215-3.535-1.519-4.183-3.322
						c-0.187-0.52,0.084-1.093,0.604-1.279c0.516-0.187,1.093,0.083,1.279,0.604c0.392,1.092,1.383,1.881,2.525,2.011
						c1.175,0.13,2.35-0.446,2.966-1.481c0.283-0.474,0.897-0.631,1.371-0.347c0.475,0.283,0.63,0.896,0.348,1.371
						C585.981,1208.284,584.317,1209.216,582.555,1209.216z"/>
				</g>
				<path style="fill:#363E44;" d="M510.863,1208.585c0,0,40.547,1.789,66.187-38.758c25.64-40.547-44.721-38.162-73.939-24.448
					C484.397,1154.163,510.863,1208.585,510.863,1208.585z"/>
				<path style="fill:#FFFFFF;" d="M520.932,1241.518c-1.293,0-2.139-0.131-2.237-0.147c-0.545-0.089-0.913-0.602-0.825-1.146
					c0.088-0.544,0.616-0.913,1.146-0.828c0.067,0.012,6.422,0.972,11.303-2.949c3.471-2.788,5.417-7.367,5.784-13.61
					c0.547-9.305-6.005-14.447-10.789-18.202c-2.899-2.276-4.994-3.92-4.581-5.938c0.39-1.901,2.933-3.282,9.071-4.924
					c22.062-5.903,34.892-31.874,35.019-32.135c0.241-0.497,0.838-0.705,1.336-0.463c0.497,0.241,0.704,0.839,0.463,1.335
					c-0.534,1.102-13.345,27.053-36.3,33.194c-6.383,1.708-7.52,2.859-7.629,3.394c-0.165,0.807,1.971,2.484,3.857,3.963
					c4.842,3.8,12.159,9.543,11.55,19.892c-0.402,6.842-2.606,11.912-6.547,15.067
					C527.832,1240.999,523.501,1241.518,520.932,1241.518z"/>
				<path style="fill:#363E44;" d="M456.648,1042.926c0,0-40.18,88.681,53.403,129.561c0,0-41.799-73.002,28.289-132.617
					L456.648,1042.926z"/>
				<path style="fill:#FFFFFF;" d="M539.784,1202.33c17.236-8.905,41.654,6.607,49.123-14.363l7.469,3.16
					c0.882,12.497,1.954,25.477-0.574,29.301c-4.794,6.883-17.02,6.732-30.738,5.171L539.784,1202.33z"/>
				<path style="fill:#363E44;" d="M577.285,1228.431c-6.201,0-11.234-1.153-15.934-2.442c-0.532-0.146-0.846-0.696-0.699-1.229
					c0.146-0.533,0.694-0.847,1.229-0.7c8.273,2.271,17.624,4.102,32.89-0.431c4.023-9.951,4.243-20.781,0.651-32.202
					c-0.165-0.527,0.127-1.088,0.654-1.254c0.528-0.167,1.088,0.128,1.254,0.654c3.789,12.049,3.489,23.491-0.893,34.007
					c-0.114,0.276-0.347,0.486-0.633,0.572C588.491,1227.621,582.479,1228.431,577.285,1228.431z"/>
			</g>
		</g>
		<g>
			<path style="fill:#363E44;" d="M1860.892,2161.297c-78.028,0-151.396-6.213-206.589-17.494
				c-55.645-11.373-86.289-26.703-86.289-43.164s30.645-31.791,86.289-43.164c55.192-11.281,128.561-17.494,206.589-17.494
				s151.396,6.212,206.589,17.494c55.645,11.373,86.289,26.702,86.289,43.164s-30.645,31.791-86.289,43.164
				C2012.288,2155.084,1938.92,2161.297,1860.892,2161.297z M1860.892,2041.982c-77.898,0-151.124,6.198-206.188,17.453
				c-53.821,11-84.689,26.019-84.689,41.204c0,15.186,30.868,30.204,84.689,41.205c55.064,11.255,128.29,17.453,206.188,17.453
				s151.124-6.198,206.188-17.453c53.821-11,84.689-26.019,84.689-41.205c0-15.185-30.868-30.204-84.689-41.204
				C2012.016,2048.18,1938.79,2041.982,1860.892,2041.982z"/>
			<g>
				<g>
					<polygon style="fill:#E2A18D;" points="1920.474,2082.393 2018.992,2082.393 2039.668,1821.369 1917.028,1821.369 					"/>
					<g>
						<path style="fill:#9E6C5A;" d="M1850.909,2116.323h171.771v-78.588h-95.003c-42.397,0-76.767,34.37-76.767,76.767V2116.323z"
							/>
						<path style="fill:#363E44;" d="M1930.752,2054.39c-0.256,0-0.512-0.098-0.707-0.293l-15.156-15.156
							c-0.391-0.391-0.391-1.023,0-1.414s1.023-0.391,1.414,0l15.156,15.156c0.391,0.391,0.391,1.023,0,1.414
							C1931.264,2054.292,1931.008,2054.39,1930.752,2054.39z"/>
						<path style="fill:#363E44;" d="M1913.521,2059.559c-0.256,0-0.512-0.098-0.707-0.293l-15.156-15.156
							c-0.391-0.391-0.391-1.023,0-1.414s1.023-0.391,1.414,0l15.156,15.156c0.391,0.391,0.391,1.023,0,1.414
							C1914.033,2059.461,1913.777,2059.559,1913.521,2059.559z"/>
					</g>
				</g>
				<g>
					<polygon style="fill:#E2A18D;" points="1674.516,2049.735 1769.773,2066.516 1826.393,1843.521 1705.513,1822.82 					"/>
					<g>
						<path style="fill:#9E6C5A;" d="M1605.458,2116.323h171.771v-78.588h-95.003c-42.397,0-76.767,34.37-76.767,76.767V2116.323z"
							/>
						<path style="fill:#363E44;" d="M1685.301,2054.39c-0.256,0-0.512-0.098-0.707-0.293l-15.156-15.156
							c-0.391-0.391-0.391-1.023,0-1.414s1.023-0.391,1.414,0l15.156,15.156c0.391,0.391,0.391,1.023,0,1.414
							C1685.813,2054.292,1685.557,2054.39,1685.301,2054.39z"/>
						<path style="fill:#363E44;" d="M1668.071,2059.559c-0.256,0-0.512-0.098-0.707-0.293l-15.156-15.156
							c-0.391-0.391-0.391-1.023,0-1.414s1.023-0.391,1.414,0l15.156,15.156c0.391,0.391,0.391,1.023,0,1.414
							C1668.583,2059.461,1668.327,2059.559,1668.071,2059.559z"/>
					</g>
				</g>
				<path style="fill:#363E44;" d="M2033.246,1393.821c25.415,67.761,38.172,144.375,42.781,220.067
					c8.735,143.473-19.687,290.198-37.166,391.453c-42.104,0-84.209,0-126.313,0c-3.926-104.971-11.299-209.942-15.224-314.913
					c-33.119,104.409-62.792,208.819-95.911,313.229c-44.911,0-89.82,0-134.731,0c5.881-97.457,22.478-220.32,64.004-357.013
					c30.716-101.111,68.246-187.318,104.409-257.656C1909.87,1390.292,1966.004,1393.379,2033.246,1393.821z"/>
			</g>
			<g>
				<g>
					<path style="fill:#E2A18D;" d="M1793.947,1216.264c-83.175,34.53-123.769,63.851-108.127,94.265
						c9.074,17.643,68.081,14.658,135.152-9.111C1814.224,1273.77,1802.853,1249.534,1793.947,1216.264z"/>
					<path style="fill:#E2A18D;" d="M2066.594,1213.834c30.96,33.088,125.878,123.507,89.55,160.323
						c-30.049,30.452-118.815-61.415-151.587-92.424C2025.236,1259.1,2045.915,1236.467,2066.594,1213.834z"/>
					<path style="fill:#D87355;" d="M2091.728,1207.656c0,0-82.891-39.407-158.988-32.613
						c-76.097,6.794-150.495,36.69-150.495,36.69l36.35,92.403l-10.871,116.42l269.057-25.974l-20.383-84.67L2091.728,1207.656z"/>
				</g>
				<g>
					<path style="fill:#E2A18D;" d="M1768.655,1288.676c0.002-0.001,0.003-0.004,0.002-0.006
						c-29.788-75.867-49.468-130.265-56.203-146.819c-0.705-1.734-1.936-4.799-4.556-8.201
						c-9.708-12.605-22.926-9.628-39.181-18.224c-18.444-9.754-23.308-25.688-28.247-23.691c-3.436,1.389-3.294,7.917,1.821,20.041
						c0,0-0.001,0.002-0.002,0.001c-4.945-8.765-12.17-20.359-17.006-17.612c-5.414,3.47,1.475,18.089,6.075,26.729
						c-5.568-10.458-11.657-14.353-13.972-12.149c-3.643,3.468-1.214,12.583,6.681,26.119c0,0.001,0,0.001,0,0.001
						c-8.062-7.824-11.184-8.52-12.755-6.074c-2.868,4.467,3.832,15.473,11.246,24.295c8.347,9.931,18.266,14.738,24.592,17.62
						c15.354,55.299,25.158,90.884,36.649,135.798c2.351,9.189,12.071,14.392,21.024,11.261
						C1729.027,1309.298,1742.503,1304.099,1768.655,1288.676z"/>
					<path style="fill:#363E44;" d="M1757.831,1261.91c-0.4,0-0.779-0.243-0.933-0.639c-3.25-8.39-6.351-16.443-9.297-24.132
						c-0.198-0.516,0.06-1.094,0.576-1.292c0.515-0.198,1.093,0.06,1.291,0.576c2.946,7.687,6.045,15.738,9.295,24.125
						c0.199,0.515-0.057,1.094-0.571,1.294C1758.073,1261.888,1757.951,1261.91,1757.831,1261.91z"/>
					<path style="fill:#E2A18D;" d="M1681.787,1126.788c-6.301-19.66-4.408-28.086-1.26-28.985
						c5.293-1.512,17.543,13.07,30.372,40.642C1702.497,1135.925,1690.189,1129.309,1681.787,1126.788z"/>
					<path style="fill:#363E44;" d="M1679.015,1162.067c-0.424,0-0.817-0.271-0.953-0.696c-1.073-3.363-3.374-8.197-8.244-12.128
						c-6.895-5.565-14.691-5.755-17.713-5.577c-0.564,0.025-1.024-0.389-1.057-0.94c-0.032-0.551,0.389-1.024,0.939-1.057
						c3.264-0.192,11.649,0.015,19.086,6.018c5.256,4.242,7.737,9.453,8.895,13.076c0.167,0.526-0.123,1.089-0.649,1.257
						C1679.218,1162.051,1679.115,1162.067,1679.015,1162.067z"/>
					<path style="fill:#363E44;" d="M1699.553,1128.237c-0.162,0-0.327-0.04-0.479-0.123c-3.852-2.108-8.213-3.276-12.831-4.513
						c-2.214-0.593-4.504-1.206-6.888-1.956c-0.527-0.166-0.82-0.728-0.654-1.254c0.167-0.527,0.729-0.819,1.254-0.654
						c2.343,0.737,4.611,1.345,6.806,1.932c4.737,1.269,9.212,2.466,13.274,4.691c0.484,0.265,0.662,0.873,0.396,1.357
						C1700.249,1128.05,1699.906,1128.237,1699.553,1128.237z"/>
					<path style="fill:#363E44;" d="M1656.246,1125.352c-0.171,0-0.344-0.043-0.502-0.135c-2.225-1.294-4.339-2.8-6.284-4.476
						c-2.821-2.433-5.312-5.242-7.401-8.349c-0.308-0.458-0.187-1.08,0.272-1.388c0.457-0.31,1.079-0.187,1.388,0.271
						c1.99,2.959,4.361,5.634,7.048,7.951c1.851,1.596,3.864,3.03,5.983,4.261c0.478,0.278,0.64,0.89,0.361,1.367
						C1656.926,1125.174,1656.591,1125.352,1656.246,1125.352z"/>
					<path style="fill:#363E44;" d="M1644.642,1133.088c-0.171,0-0.344-0.043-0.502-0.135c-2.225-1.294-4.339-2.8-6.284-4.476
						c-2.82-2.432-5.311-5.241-7.401-8.349c-0.308-0.458-0.187-1.08,0.271-1.388c0.461-0.31,1.08-0.187,1.389,0.271
						c1.99,2.959,4.362,5.634,7.048,7.95c1.851,1.596,3.864,3.03,5.983,4.261c0.478,0.278,0.64,0.89,0.361,1.367
						C1645.321,1132.91,1644.986,1133.088,1644.642,1133.088z"/>
					<path style="fill:#363E44;" d="M1637.679,1148.561c-0.171,0-0.344-0.043-0.502-0.135c-2.225-1.294-4.339-2.8-6.284-4.476
						c-2.82-2.432-5.311-5.241-7.401-8.349c-0.308-0.458-0.187-1.08,0.271-1.388c0.46-0.31,1.079-0.186,1.389,0.271
						c1.99,2.959,4.362,5.634,7.048,7.95c1.851,1.596,3.864,3.03,5.983,4.261c0.478,0.278,0.64,0.89,0.361,1.367
						C1638.358,1148.383,1638.023,1148.561,1637.679,1148.561z"/>
				</g>
				<g>
					<g>
						<path style="fill:#ff6900;" d="M1985.015,1615.299c-0.25,0-0.492-0.094-0.677-0.264c-0.195-0.18-0.312-0.429-0.322-0.694
							l-10.3-245.327c-0.688-16.368,5.04-32.024,16.128-44.083s26.208-19.08,42.576-19.767l2.859-0.12
							c33.783-1.427,62.432,24.917,63.851,58.705l10.3,245.327c0.023,0.552-0.405,1.018-0.957,1.041l-123.416,5.182
							C1985.043,1615.299,1985.028,1615.299,1985.015,1615.299z M2037.883,1306.989c-0.837,0-1.676,0.018-2.52,0.053l-2.859,0.12
							c-15.834,0.665-30.462,7.456-41.188,19.123c-10.727,11.667-16.268,26.812-15.603,42.646l10.258,244.328l121.418-5.098
							l-10.258-244.328C2095.794,1331.99,2069.461,1306.989,2037.883,1306.989z"/>
						<polygon style="fill:#ff6900;" points="2157.712,1682.268 1943.705,1690.284 1980.311,1541.819 2110.102,1536.958 						"/>
						
							<rect x="2013.764" y="1577.866" transform="matrix(0.9991 -0.0419 0.0419 0.9991 -64.7576 87.259)" style="fill:#E6D0BE;" width="66.174" height="17.646"/>
					</g>
					<path style="fill:#E2A18D;" d="M2122.343,1306.887c-34.997,7.615-118.302,21.467-126.38,23.143
						c-15.101,3.133-95.704,22.051-94.235,33.978c0.702,5.699,16.395,2.756,21.671,1.607c-3.804,3.029-11.838,8.676-9.421,14.642
						c2.839,7.009,15.747,2.331,16.159,2.393c-4.175,2.684-10.503,8.229-8.865,12.772c2.131,5.911,10.066,5.826,15.591,4.202
						c-0.358,0.925-6.621,7.109-5.165,10.674c1.612,3.949,8.591,4.67,15.668,3.795c13.419-2.773,66.145-10.751,91.942-13.408
						c60.588-6.24,79.285-13.175,108.048-21.345C2158.616,1376.143,2139.516,1315.65,2122.343,1306.887z"/>
					<path style="fill:#363E44;" d="M2058.66,1319.064c-0.474,0-0.895-0.338-0.982-0.821c-0.1-0.543,0.261-1.064,0.804-1.163
						c16.954-3.088,52.077-9.559,63.661-11.946c0.545-0.115,1.069,0.237,1.182,0.778c0.111,0.541-0.236,1.07-0.777,1.181
						c-11.603,2.39-46.745,8.865-63.706,11.955C2058.779,1319.059,2058.72,1319.064,2058.66,1319.064z"/>
					<path style="fill:#363E44;" d="M1923.098,1366.094c-0.335,0-0.662-0.168-0.852-0.474c-0.29-0.47-0.146-1.086,0.324-1.376
						c2.786-1.723,5.714-3.265,8.7-4.584c5.367-2.371,11.047-4.08,16.88-5.08c0.546-0.094,1.062,0.273,1.154,0.817
						c0.094,0.544-0.272,1.061-0.816,1.155c-5.671,0.972-11.192,2.634-16.409,4.938c-2.903,1.283-5.748,2.782-8.456,4.457
						C1923.459,1366.046,1923.277,1366.094,1923.098,1366.094z"/>
					<path style="fill:#363E44;" d="M1929.757,1383.326c-0.374,0-0.731-0.209-0.903-0.569c-0.238-0.499-0.027-1.096,0.472-1.333
						c0.62-0.296,1.255-0.588,1.906-0.876c5.366-2.371,11.045-4.08,16.879-5.08c0.548-0.093,1.062,0.273,1.154,0.817
						c0.094,0.544-0.272,1.061-0.816,1.155c-5.672,0.972-11.192,2.634-16.409,4.938c-0.633,0.279-1.25,0.563-1.853,0.851
						C1930.048,1383.294,1929.901,1383.326,1929.757,1383.326z"/>
					<path style="fill:#363E44;" d="M1937.194,1400.386c-0.415,0-0.804-0.261-0.946-0.676c-0.179-0.522,0.1-1.091,0.622-1.27
						c3.627-1.244,7.396-2.206,11.201-2.858c0.56-0.092,1.062,0.273,1.154,0.817c0.094,0.544-0.272,1.061-0.816,1.155
						c-3.7,0.634-7.364,1.569-10.891,2.778C1937.411,1400.369,1937.302,1400.386,1937.194,1400.386z"/>
					<g>
						<path style="fill:#B77250;" d="M1977.627,1422.276c-0.524,0-0.964-0.408-0.997-0.938l-3.001-48.382
							c-2.147-34.622,25.422-65.694,60.201-67.852c0.547-0.034,1.025,0.385,1.06,0.936c0.034,0.551-0.385,1.026-0.937,1.06
							c-33.697,2.09-60.408,32.191-58.328,65.731l3.001,48.382c0.034,0.551-0.385,1.026-0.937,1.06
							C1977.669,1422.276,1977.647,1422.276,1977.627,1422.276z"/>
					</g>
				</g>
			</g>
			<g>
				<path style="fill:#E2A18D;" d="M1955.508,1045.205c-1.92-1.015-20.455-10.455-37.389-2.082
					c-12.601,6.23-18.773,18.332-26.057,40.195c-8.578,25.747-10.108,42.336-4.927,50.239c8.186,12.487,49.495,9.026,71.308-7.576
					c15.745-11.984,23.033-32.75,19.648-52.386C1974.716,1054.013,1956.734,1045.853,1955.508,1045.205z"/>
				<path style="fill:#E2A18D;" d="M1931.149,1213.802h1.112c12.954,0,23.455-10.501,23.455-23.455v-70.618
					c0-12.954-10.501-23.455-23.455-23.455h-1.112c-12.954,0-23.455,10.501-23.455,23.455v70.618
					C1907.694,1203.301,1918.195,1213.802,1931.149,1213.802z"/>
				<g>
					
						<ellipse transform="matrix(0.8658 -0.5004 0.5004 0.8658 -256.5209 1148.1885)" style="fill:#B77250;" cx="2012.513" cy="1052.372" rx="37.822" ry="37.822"/>
					<path style="fill:#D87355;" d="M2024.896,1094.92c-4.904,0-10.051-0.658-15.242-2.046c-10.904-2.917-20.387-8.585-26.7-15.96
						c-6.404-7.481-8.8-15.83-6.746-23.507c4.2-15.705,26.036-23.555,48.686-17.496c10.904,2.917,20.386,8.585,26.7,15.96
						c6.404,7.481,8.8,15.829,6.746,23.507C2055.102,1087.482,2041.383,1094.92,2024.896,1094.92z M1978.14,1053.923
						c-1.878,7.022,0.371,14.725,6.334,21.69c6.054,7.071,15.18,12.515,25.698,15.329c21.577,5.771,42.32-1.442,46.236-16.082
						c1.878-7.021-0.371-14.725-6.334-21.689c-6.054-7.071-15.18-12.515-25.698-15.329
						C2002.796,1032.071,1982.056,1039.284,1978.14,1053.923z"/>
					<path style="fill:#D87355;" d="M2022.478,1104.477c-2.876,0-5.908-0.426-9.042-1.287c-9.362-2.572-18.527-8.739-25.81-17.364
						c-7.283-8.625-11.826-18.694-12.794-28.354c-0.981-9.799,1.822-18.019,7.895-23.147c12.422-10.487,34.829-4.451,49.952,13.459
						c15.122,17.909,17.319,41.013,4.899,51.501C2033.509,1102.72,2028.317,1104.477,2022.478,1104.477z M1984.018,1035.853
						c-5.554,4.689-8.109,12.296-7.195,21.419c0.928,9.262,5.307,18.944,12.331,27.264c7.024,8.319,15.836,14.259,24.812,16.726
						c8.843,2.43,16.769,1.185,22.322-3.504c11.578-9.777,9.274-31.616-5.136-48.683
						C2016.739,1032.006,1995.593,1026.076,1984.018,1035.853z"/>
					<path style="fill:#B77250;" d="M1908.756,1049.966c15.974-23.069,57.656-18.412,75.031,1.99
						c18.572,21.807,12.37,54.679,0.024,70.921c-7.339,9.655-22.754,21.933-30.371,15.792c-9.217-7.43,4.668-24.025-4.502-49.118
						C1941.855,1070.169,1915.071,1065.634,1908.756,1049.966z"/>
				</g>
				<g>
					
						<ellipse transform="matrix(0.7395 -0.6732 0.6732 0.7395 -236.0561 1600.6471)" style="fill:#E2A18D;" cx="1949.97" cy="1105.302" rx="17.083" ry="14.439"/>
					<path style="fill:#363E44;" d="M1953.517,1112.796c-0.33,0-0.653-0.164-0.845-0.462c-0.296-0.466-0.159-1.084,0.307-1.381
						c0.442-0.282,0.866-0.606,1.257-0.963c3.133-2.852,3.768-7.273,1.415-9.858c-0.562-0.617-1.251-1.085-2.049-1.393
						c-0.515-0.199-0.771-0.778-0.572-1.293c0.199-0.516,0.775-0.77,1.293-0.573c1.09,0.421,2.034,1.064,2.807,1.913
						c3.095,3.4,2.401,9.09-1.547,12.683c-0.475,0.433-0.989,0.827-1.529,1.171
						C1953.887,1112.745,1953.7,1112.796,1953.517,1112.796z"/>
				</g>
				<g>
					<path style="fill:#FFFFFF;" d="M1938.4,1091.089c0,0-5.994-4.855-14.039-6.38c-1.712-0.324-1.079,13.986,0.693,13.518
						C1932.844,1096.171,1938.4,1091.089,1938.4,1091.089z"/>
					<path style="fill:#373E44;" d="M1918.985,1084.266c1.856-0.056,3.652,0.127,5.361,0.45c2.649,4.201,2.774,9.312,0.714,13.506
						c-1.773,0.469-3.663,0.783-5.63,0.842c-10.6,0.318-19.416-6.823-19.416-6.823S1908.385,1084.585,1918.985,1084.266z"/>
				</g>
				<path style="fill:#363E44;" d="M1901.806,1117.238c-1.862,0-3.724-0.852-4.993-2.399c-0.35-0.427-0.288-1.057,0.14-1.407
					c0.427-0.353,1.056-0.288,1.407,0.139c1.245,1.519,3.294,2.077,4.98,1.359c2.108-0.901,2.462-3.398,2.465-3.423
					c0.071-0.547,0.555-0.938,1.12-0.863c0.546,0.07,0.933,0.567,0.864,1.114c-0.019,0.148-0.493,3.657-3.664,5.012
					C1903.382,1117.085,1902.594,1117.238,1901.806,1117.238z"/>
				<path style="fill:#363E44;" d="M1889.57,1102.6c-0.282,0-0.563-0.119-0.761-0.351c-2.156-2.529-2.898-4.562-2.268-6.214
					c0.418-1.09,1.266-1.588,2.163-2.115c0.614-0.361,1.311-0.77,2.042-1.458c1.082-1.02,1.904-2.335,2.443-3.91
					c0.179-0.522,0.749-0.802,1.271-0.622c0.522,0.179,0.801,0.748,0.622,1.27c-0.646,1.885-1.644,3.472-2.965,4.717
					c-0.895,0.843-1.729,1.333-2.399,1.728c-0.771,0.453-1.149,0.688-1.309,1.104c-0.331,0.869,0.351,2.361,1.921,4.203
					c0.358,0.42,0.309,1.051-0.112,1.41C1890.031,1102.521,1889.8,1102.6,1889.57,1102.6z"/>
				<path style="fill:#FFFFFF;" d="M1948.939,1089.552c-15.196,7.021-21.722,19.166-60.929,2.194l-8.184,5.927
					c-0.087,8.688,2.032,19.276,2.247,26.769c0.3,10.428,9.091,18.597,19.51,18.061c22.204-1.143,27.629-3.064,43.715-10.966
					L1948.939,1089.552z"/>
				<path style="fill:#363E44;" d="M1910.029,1142.069c-0.623,0-1.242-0.008-1.858-0.024c-0.552-0.014-0.987-0.473-0.974-1.025
					c0.015-0.543,0.459-0.974,1-0.974c0.008,0,0.017,0,0.026,0c14.162,0.37,30.601-3.635,42.819-10.445
					c0.483-0.269,1.091-0.095,1.36,0.387c0.27,0.482,0.097,1.091-0.386,1.36C1940.034,1138.027,1924.119,1142.069,1910.029,1142.069
					z"/>
				<path style="fill:#363E44;" d="M1903.193,1142.359c-6.616,0-11.776-1.786-15.685-5.407c-8.759-8.113-9.304-24.431-8.682-39.322
					c0.023-0.552,0.498-0.967,1.041-0.958c0.552,0.023,0.98,0.489,0.957,1.041c-0.603,14.436-0.119,30.211,8.042,37.771
					c4.41,4.084,10.69,5.58,19.212,4.567c0.552-0.061,1.045,0.327,1.111,0.875c0.065,0.548-0.327,1.045-0.875,1.111
					C1906.52,1142.251,1904.813,1142.359,1903.193,1142.359z"/>
			</g>
		</g>
	</g>
</g>
</svg>
