<?xml version="1.0" encoding="utf-8"?>
<!-- Generator: Adobe Illustrator 27.5.0, SVG Export Plug-In . SVG Version: 6.00 Build 0)  -->
<svg version="1.1" xmlns="http://www.w3.org/2000/svg" xmlns:xlink="http://www.w3.org/1999/xlink" x="0px" y="0px"
	 viewBox="0 0 2500 2500" style="enable-background:new 0 0 2500 2500;" xml:space="preserve">
-
<g id="Illustration">
	<g id="Pension_scheme_1_">
		<circle style="fill:transparent;" cx="1250.552" cy="1250" r="915"/>
		<g>
			
				<rect x="468.699" y="425.024" transform="matrix(-0.9791 0.2033 -0.2033 -0.9791 1870.2274 1681.5255)" style="fill:#E6D0BE;" width="760.08" height="1023.613"/>
			<path style="fill:#D3BBA3;" d="M544.773,1498.979c-1.023,0-1.94-0.715-2.156-1.757L334.495,494.99
				c-0.12-0.573-0.005-1.169,0.315-1.658c0.321-0.489,0.823-0.829,1.395-0.95l744.204-154.54c1.186-0.248,2.359,0.519,2.606,1.712
				l208.122,1002.233c0.12,0.573,0.005,1.169-0.315,1.658c-0.321,0.489-0.823,0.829-1.395,0.95l-744.204,154.54
				C545.072,1498.964,544.921,1498.979,544.773,1498.979z M339.26,496.251l207.225,997.915l739.886-153.642l-207.225-997.916
				L339.26,496.251z"/>
			<g>
				<path style="fill:#D87355;" d="M967.789,1311.623c-1.846,0-3.71-0.228-5.567-0.719c-10.208-2.702-15.589-11.261-18.42-19.841
					c-8.881,0.82-18.87-3.098-22.116-12.088c-0.413-1.146,0.179-2.409,1.324-2.823c1.144-0.418,2.409,0.177,2.823,1.324
					c2.335,6.464,9.812,9.629,16.74,9.254c-1.437-5.96-1.791-11.435-1.868-14.359c-0.827-31.49,8.361-63.251,25.869-89.431
					c7.353-11.003,19.453-21.056,31.35-16.308c13.096,5.232,13.566,22.819,9.988,36.289c-6.842,25.76-19.61,50.089-36.925,70.352
					c-5.857,6.853-13.132,14.202-22.778,16.962c2.792,7.924,7.621,14.413,15.142,16.405c9.129,2.409,18.653-3.139,24.032-9.721
					c0.374-0.457,0.735-0.922,1.086-1.393c-6.525-8.69-8.602-20.737-4.821-31.143c1.741-4.789,5.879-9.022,10.064-10.294
					c2.756-0.838,5.381-0.424,7.591,1.188c4.066,2.974,4.841,8.585,2.304,16.678c-2.375,7.581-5.014,15.998-9.613,23.295
					c0.858,0.898,1.781,1.74,2.766,2.51c9.33,7.303,23.439,7.527,32.812,0.517c0.703-0.525,1.371-1.087,2.009-1.684
					c-1.897-3.69-2.913-7.986-2.864-12.49c0.09-8.255,3.744-15.735,9.773-20.011c0.537-0.381,1.214-0.495,1.847-0.332
					c0.635,0.17,1.159,0.616,1.433,1.212c4.743,10.365,2.591,23.368-4.685,32.179c1.025,1.395,2.229,2.623,3.595,3.637
					c4.807,3.57,11.58,4.474,18.107,2.424c6.535-2.052,11.572-6.664,13.476-12.34c0.389-1.154,1.64-1.77,2.792-1.389
					c1.155,0.387,1.776,1.636,1.39,2.793c-2.351,7.008-8.459,12.669-16.336,15.143c-7.877,2.472-16.122,1.318-22.057-3.092
					c-1.52-1.128-2.881-2.465-4.061-3.966c-0.571,0.506-1.164,0.988-1.777,1.447c-10.914,8.162-27.325,7.913-38.172-0.577
					c-0.918-0.719-1.791-1.492-2.616-2.308c-0.206,0.263-0.414,0.525-0.626,0.786
					C985.579,1306.094,976.906,1311.621,967.789,1311.623z M1038.818,1269.581c-3.544,3.587-5.629,8.836-5.692,14.572
					c-0.034,3.137,0.539,6.143,1.634,8.821C1039.571,1286.315,1041.224,1277.36,1038.818,1269.581z M996.43,1258.077
					c-0.455,0-0.932,0.078-1.435,0.23c-2.85,0.868-5.946,4.127-7.202,7.583c-3.096,8.52-1.66,18.306,3.276,25.7
					c3.782-6.44,6.086-13.791,8.331-20.952c1.91-6.095,1.674-10.064-0.7-11.799C998.005,1258.331,997.255,1258.077,996.43,1258.077z
					 M991.664,1169.837c-8.028,0-16.065,7.534-21.425,15.554c-17.005,25.431-25.929,56.279-25.127,86.864
					c0.118,4.528,0.694,9.274,1.828,13.756c8.552-2.427,15.255-9.239,20.694-15.602c16.889-19.766,29.343-43.494,36.017-68.621
					c2.507-9.442,3.779-26.611-7.364-31.061C994.76,1170.119,993.212,1169.837,991.664,1169.837z"/>
			</g>
			<g>
				<g>
					
						<rect x="729.248" y="1063.444" transform="matrix(0.9791 -0.2033 0.2033 0.9791 -200.0168 194.1375)" style="fill:#F2E6DC;" width="231.205" height="14.197"/>
					
						<rect x="771.036" y="1085.485" transform="matrix(0.9791 -0.2033 0.2033 0.9791 -203.0716 208.4858)" style="fill:#F2E6DC;" width="284.24" height="14.197"/>
					
						<rect x="743.23" y="1128.601" transform="matrix(0.9791 -0.2033 0.2033 0.9791 -212.5308 202.6387)" style="fill:#F2E6DC;" width="273.481" height="14.197"/>
				</g>
				<g>
					
						<rect x="756.828" y="892.51" transform="matrix(0.9791 -0.2033 0.2033 0.9791 -164.1137 201.7465)" style="fill:#F2E6DC;" width="286.016" height="14.197"/>
					
						<rect x="696.688" y="942.525" transform="matrix(0.9791 -0.2033 0.2033 0.9791 -175.6701 189.2894)" style="fill:#F2E6DC;" width="273.481" height="14.197"/>
					
						<rect x="703.402" y="972.408" transform="matrix(0.9791 -0.2033 0.2033 0.9791 -181.1081 196.123)" style="fill:#F2E6DC;" width="321.133" height="14.197"/>
				</g>
				<g>
					
						<rect x="728.352" y="752.183" transform="matrix(0.9791 -0.2033 0.2033 0.9791 -136.5409 189.4863)" style="fill:#F2E6DC;" width="251.197" height="14.197"/>
					
						<rect x="667.859" y="798.761" transform="matrix(0.9791 -0.2033 0.2033 0.9791 -147.0528 180.3221)" style="fill:#F2E6DC;" width="272.467" height="14.197"/>
					
						<rect x="674.22" y="825.208" transform="matrix(0.9791 -0.2033 0.2033 0.9791 -151.4462 190.4484)" style="fill:#F2E6DC;" width="353.923" height="14.197"/>
				</g>
			</g>
			<g>
				<g>
					
						<rect x="779.603" y="469.914" transform="matrix(0.9791 -0.2033 0.2033 0.9791 -77.8716 196.0307)" style="fill:#F2E6DC;" width="271.069" height="14.197"/>
					
						<rect x="787.989" y="509.27" transform="matrix(0.9791 -0.2033 0.2033 0.9791 -85.6718 198.814)" style="fill:#F2E6DC;" width="273.589" height="14.197"/>
					
						<rect x="794.742" y="546.407" transform="matrix(0.9791 -0.2033 0.2033 0.9791 -93.0396 201.3705)" style="fill:#F2E6DC;" width="277.603" height="14.197"/>
				</g>
			</g>
			
				<rect x="539.76" y="644.118" transform="matrix(0.9769 -0.2137 0.2137 0.9769 -121.0225 183.1273)" style="fill:#F2E6DC;" width="493.156" height="14.197"/>
			
				<rect x="548.687" y="683.115" transform="matrix(0.9769 -0.2137 0.2137 0.9769 -129.0987 186.4267)" style="fill:#F2E6DC;" width="497.741" height="14.197"/>
			<g>
				<g>
					<path style="fill:#F2E6DC;" d="M595.286,1219.385c-0.426,0-0.847-0.125-1.209-0.362c-0.49-0.321-0.831-0.823-0.949-1.395
						L569.8,1105.296c-0.12-0.573-0.005-1.169,0.315-1.658c0.321-0.489,0.823-0.829,1.395-0.949l112.384-23.338
						c0.568-0.114,1.168-0.004,1.657,0.317c0.49,0.321,0.831,0.822,0.95,1.395l23.326,112.332c0.248,1.193-0.518,2.36-1.711,2.607
						l-112.383,23.338C595.585,1219.37,595.435,1219.385,595.286,1219.385z M574.566,1106.558l22.43,108.015l108.065-22.44
						l-22.429-108.015L574.566,1106.558z"/>
					<polygon style="fill:#ff6900;" points="641.923,1189.781 600.094,1165.099 608.182,1149.443 634.194,1162.638 658.649,1104.56
						674.926,1111.406 					"/>
				</g>
				<g>
					<path style="fill:#F2E6DC;" d="M563.53,1066.464c-0.426,0-0.847-0.125-1.209-0.362c-0.49-0.321-0.831-0.823-0.95-1.395
						l-23.327-112.334c-0.12-0.573-0.005-1.169,0.315-1.658c0.321-0.489,0.823-0.829,1.395-0.95l112.384-23.336
						c1.181-0.243,2.358,0.517,2.606,1.712l23.327,112.332c0.12,0.573,0.005,1.169-0.315,1.658c-0.321,0.489-0.823,0.829-1.395,0.95
						l-112.384,23.338C563.829,1066.449,563.68,1066.464,563.53,1066.464z M542.81,953.635l22.43,108.017l108.066-22.44
						l-22.43-108.015L542.81,953.635z"/>
					<polygon style="fill:#ff6900;" points="610.167,1036.86 568.339,1012.177 576.427,996.522 602.438,1009.716 626.893,951.638
						643.171,958.484 					"/>
				</g>
				<g>
					<path style="fill:#F2E6DC;" d="M533.696,922.802c-1.023,0-1.94-0.715-2.156-1.757l-23.327-112.332
						c-0.248-1.193,0.518-2.36,1.711-2.607l112.383-23.338c0.571-0.118,1.168-0.006,1.657,0.316c0.49,0.321,0.831,0.823,0.95,1.395
						l23.327,112.334c0.119,0.573,0.005,1.169-0.315,1.658c-0.321,0.489-0.823,0.829-1.395,0.949l-112.383,23.336
						C533.995,922.787,533.844,922.802,533.696,922.802z M512.978,809.975l22.43,108.015l108.065-22.438l-22.43-108.017
						L512.978,809.975z"/>
					<polygon style="fill:#ff6900;" points="580.335,893.199 538.506,868.516 546.594,852.861 572.606,866.056 597.061,807.978
						613.339,814.823 					"/>
				</g>
			</g>
		</g>
		<g>
			<g>
				<g>
					
						<rect x="1922.931" y="739.874" transform="matrix(-1 -1.224647e-16 1.224647e-16 -1 4021.8074 1512.8979)" style="fill:#D3BBA3;" width="175.945" height="33.149"/>
					
						<rect x="1949.544" y="756.449" transform="matrix(-1 -1.224647e-16 1.224647e-16 -1 4021.8074 1886.9279)" style="fill:#D3BBA3;" width="122.72" height="374.03"/>
				</g>
				<g>
					
						<rect x="1713.323" y="739.874" transform="matrix(-1 -1.224647e-16 1.224647e-16 -1 3602.5918 1512.8979)" style="fill:#D3BBA3;" width="175.945" height="33.149"/>
					
						<rect x="1739.936" y="756.449" transform="matrix(-1 -1.224647e-16 1.224647e-16 -1 3602.5918 1979.9802)" style="fill:#D3BBA3;" width="122.72" height="467.082"/>
				</g>
				<g>
					
						<rect x="1504.092" y="739.874" transform="matrix(-1 -1.224647e-16 1.224647e-16 -1 3184.1294 1512.8979)" style="fill:#D3BBA3;" width="175.945" height="33.149"/>
					
						<rect x="1504.092" y="1223.747" transform="matrix(-1 -1.224647e-16 1.224647e-16 -1 3184.1294 2480.6428)" style="fill:#D3BBA3;" width="175.945" height="33.149"/>
					
						<rect x="1530.705" y="756.449" transform="matrix(-1 -1.224647e-16 1.224647e-16 -1 3184.1294 1998.5907)" style="fill:#D3BBA3;" width="122.72" height="485.693"/>
				</g>
				<g>
					
						<rect x="1713.323" y="739.874" transform="matrix(-1 -1.224647e-16 1.224647e-16 -1 3602.5918 1512.8979)" style="fill:#D3BBA3;" width="175.945" height="33.149"/>
					
						<rect x="1713.323" y="1223.747" transform="matrix(-1 -1.224647e-16 1.224647e-16 -1 3602.5918 2480.6428)" style="fill:#D3BBA3;" width="175.945" height="33.149"/>
					
						<rect x="1739.936" y="756.449" transform="matrix(-1 -1.224647e-16 1.224647e-16 -1 3602.5918 1998.5907)" style="fill:#D3BBA3;" width="122.72" height="485.693"/>
				</g>
				<g>
					
						<rect x="1922.931" y="739.874" transform="matrix(-1 -1.224647e-16 1.224647e-16 -1 4021.8074 1512.8979)" style="fill:#D3BBA3;" width="175.945" height="33.149"/>
					
						<rect x="1922.931" y="1223.747" transform="matrix(-1 -1.224647e-16 1.224647e-16 -1 4021.8074 2480.6428)" style="fill:#D3BBA3;" width="175.945" height="33.149"/>
					
						<rect x="1949.544" y="756.449" transform="matrix(-1 -1.224647e-16 1.224647e-16 -1 4021.8074 1998.5907)" style="fill:#D3BBA3;" width="122.72" height="485.693"/>
				</g>
				<rect x="1294.484" y="1277.161" style="fill:#D3BBA3;" width="803.06" height="60.849"/>
				
					<rect x="1272.365" y="1357.186" transform="matrix(-1 -1.224647e-16 1.224647e-16 -1 3390.0962 2795.2312)" style="fill:#D3BBA3;" width="845.365" height="80.859"/>
				
					<rect x="1242.693" y="1457.683" transform="matrix(-1 -1.224647e-16 1.224647e-16 -1 3390.7046 2999.1863)" style="fill:#D3BBA3;" width="905.318" height="83.821"/>
				<g>
					
						<rect x="1294.484" y="739.874" transform="matrix(-1 -1.224647e-16 1.224647e-16 -1 2764.9138 1512.8979)" style="fill:#D3BBA3;" width="175.945" height="33.149"/>
					
						<rect x="1294.484" y="1223.747" transform="matrix(-1 -1.224647e-16 1.224647e-16 -1 2764.9138 2480.6428)" style="fill:#D3BBA3;" width="175.945" height="33.149"/>
					
						<rect x="1321.097" y="756.449" transform="matrix(-1 -1.224647e-16 1.224647e-16 -1 2764.9138 1998.5907)" style="fill:#D3BBA3;" width="122.72" height="485.693"/>
				</g>
				<polygon style="fill:#D3BBA3;" points="1700.091,336.425 2107.481,611.65 1292.701,611.65 				"/>
				<rect x="1292.701" y="645.601" style="fill:#D3BBA3;" width="814.78" height="68.809"/>
			</g>
		</g>
		<g>
			<polygon style="fill:#FFFFFF;" points="1385.501,1852.625 1822.278,1765.906 1795.575,1631.412 1770.056,1604.289 
				1782.488,1565.499 1770.831,1506.787 1334.054,1593.506 1345.711,1652.218 1369.636,1678.075 1358.798,1718.131 			"/>
			<path style="fill:#363E44;" d="M1374.975,1864.981l-52.306-263.446l2.163-0.428l438.94-87.149l52.305,263.444l-2.163,0.428
				L1374.975,1864.981z M1327.854,1605.002l50.588,254.794l432.45-85.861l-50.587-254.792L1327.854,1605.002z"/>
			
				<rect x="1347.992" y="1608.215" transform="matrix(-0.9809 0.1947 -0.1947 -0.9809 3430.9456 2946.3264)" style="fill:#363E44;" width="445.303" height="67.2"/>
		</g>
		<g>
			<g>
				<polygon style="fill:#84524D;" points="965.028,2158.386 974.087,1850.022 1025.66,2160.591 1359.69,2162.795 
					1172.783,1437.886 743.005,1512.782 639.817,2160.591 				"/>
				<g>
					<path style="fill:#E2A18D;" d="M1124.823,1275.03c88.178,66.575,332.138,273.207,409.708,177.762
						c64.163-78.948-178.039-263.75-271.771-334.445C1214.592,1173.06,1172.991,1220.315,1124.823,1275.03z"/>
					<path style="fill:#E2A18D;" d="M659.828,1087.98c-72.253,28.078-337.314,106.929-293.03,223.288
						c24.926,65.495,234.623,8.49,299.625-15.955C649.758,1247.931,676.495,1135.362,659.828,1087.98z"/>
					<path style="fill:#363E44;" d="M1434.629,1236.309c0,0-217.709-206.379-437.722-217.109
						c-258.558-12.61-512.806,75.055-512.806,75.055l152.055,237.391l59.68,274.365l556.502,9.086l0.176-170.007L1434.629,1236.309z
						"/>
					<g>
						<path style="fill:#E2A18D;" d="M1384.558,1324.894c0,0,206.223-194.502,231.43-222.232c2.64-2.904,7.276-8.05,14.889-12.856
							c28.208-17.809,52.083-2.408,90.288-7.6c43.35-5.891,64.424-33.751,72.708-26.254c5.762,5.215,0.771,17.962-18.049,38.14
							c-0.002,0.002,0.001,0.005,0.003,0.004c16.061-13.686,38.652-31.297,46.19-22.399c8.154,10.739-15.959,34.547-31.25,48.236
							c18.508-16.569,33.307-19.843,36.274-13.835c4.669,9.457-6.691,25.649-32.002,46.598c-0.001,0.001,0,0.003,0,0.003
							c21.518-9.584,28.167-8.702,29.494-2.752c2.423,10.864-18.71,27.696-39.673,39.712
							c-23.599,13.527-46.595,15.832-61.129,16.939c-0.004,0-0.008,0.002-0.01,0.006c-70.135,97.785-117.851,175.7-185.854,244.916
							C1500.504,1489.547,1390.935,1395.15,1384.558,1324.894z"/>
						<path style="fill:#363E44;" d="M1384.558,1327.1c-0.586,0-1.17-0.233-1.604-0.691c-0.835-0.887-0.794-2.282,0.092-3.118
							c0.001,0,25.356-23.917,59.373-56.171c0.884-0.838,2.278-0.799,3.117,0.082c0.837,0.885,0.801,2.28-0.083,3.118
							c-34.022,32.259-59.382,56.18-59.382,56.18C1385.645,1326.9,1385.101,1327.1,1384.558,1327.1z"/>
						<path style="fill:#E2A18D;" d="M1687.232,1095.141c26.593-34.156,28.947-52.111,23.399-56.153
							c-9.329-6.797-43.969,13.07-89.123,58.093C1639.868,1098.182,1668.873,1094.04,1687.232,1095.141z"/>
						<path style="fill:#363E44;" d="M1695.833,1086.882c-0.036,0-0.07,0-0.104-0.002c-5.235-0.243-10.185-0.689-14.973-1.122
							c-9.98-0.9-19.405-1.753-28.497-0.375c-1.193,0.157-2.327-0.648-2.508-1.852c-0.182-1.206,0.647-2.328,1.852-2.511
							c9.618-1.443,19.3-0.577,29.549,0.347c4.741,0.426,9.643,0.868,14.782,1.107c1.217,0.056,2.156,1.089,2.1,2.306
							C1697.978,1085.961,1697.003,1086.882,1695.833,1086.882z"/>
						<path style="fill:#363E44;" d="M1739.269,1110.983c-1.05,0-1.979-0.751-2.169-1.819c-0.212-1.199,0.588-2.343,1.786-2.556
							c5.058-0.898,10.05-2.267,14.835-4.067c6.946-2.616,13.537-6.167,19.589-10.552c0.987-0.717,2.366-0.493,3.079,0.491
							c0.715,0.986,0.495,2.364-0.491,3.079c-6.371,4.616-13.31,8.354-20.623,11.108c-5.041,1.897-10.295,3.34-15.619,4.283
							C1739.526,1110.972,1739.396,1110.983,1739.269,1110.983z"/>
						<path style="fill:#363E44;" d="M1756.531,1134.588c-1.05,0-1.979-0.751-2.169-1.819c-0.212-1.199,0.588-2.345,1.786-2.556
							c5.067-0.9,10.06-2.267,14.836-4.067c6.95-2.618,13.54-6.167,19.588-10.55c0.986-0.719,2.365-0.493,3.079,0.491
							c0.715,0.986,0.495,2.364-0.491,3.079c-6.367,4.614-13.304,8.35-20.622,11.106c-5.031,1.897-10.287,3.337-15.62,4.283
							C1756.788,1134.577,1756.658,1134.588,1756.531,1134.588z"/>
						<path style="fill:#363E44;" d="M1652.327,1184.566c-0.332,0-0.668-0.075-0.986-0.235c-1.088-0.545-1.529-1.871-0.983-2.958
							c2.504-4.993,9.971-17.305,25.187-23.779c18.004-7.663,34.532-1.94,39.169-0.006c1.124,0.469,1.655,1.761,1.185,2.883
							c-0.469,1.124-1.761,1.658-2.884,1.186c-4.236-1.77-19.329-6.996-35.743-0.006c-13.873,5.904-20.686,17.141-22.972,21.699
							C1653.913,1184.121,1653.136,1184.566,1652.327,1184.566z"/>
						<path style="fill:#363E44;" d="M1759.072,1170.073c-1.05,0-1.979-0.751-2.169-1.819c-0.212-1.199,0.588-2.345,1.786-2.556
							c5.067-0.9,10.059-2.267,14.836-4.067c6.95-2.618,13.54-6.167,19.588-10.55c0.988-0.719,2.365-0.493,3.079,0.491
							c0.715,0.986,0.495,2.364-0.491,3.079c-6.367,4.614-13.304,8.35-20.622,11.106c-5.031,1.897-10.287,3.337-15.62,4.283
							C1759.329,1170.063,1759.199,1170.073,1759.072,1170.073z"/>
					</g>
				</g>
				<g>
					<path style="fill:#E2A18D;" d="M946.035,890.805c11.347,14.5,10.542,34.084-1.799,43.741
						c-12.34,9.657-31.544,5.731-42.891-8.769c-11.347-14.5-10.542-34.084,1.798-43.741
						C915.485,872.378,934.688,876.305,946.035,890.805z"/>
					<path style="fill:#E2A18D;" d="M1081.152,880.36c-8.984,16.072-5.178,35.299,8.5,42.945
						c13.678,7.646,32.05,0.816,41.034-15.256c8.984-16.072,5.179-35.299-8.5-42.945
						C1108.508,857.457,1090.136,864.288,1081.152,880.36z"/>
					<path style="fill:#E2A18D;" d="M980.259,1092.645L980.259,1092.645c-36.406-7.151-60.775-39.129-54.432-71.425l30.128-166.399
						l131.836,25.896l-30.129,166.399C1051.32,1079.412,1016.665,1099.796,980.259,1092.645z"/>
					<path style="fill:#FFFFFF;" d="M1032.503,1044.867C937.177,1053.022,929.435,893.7,929.435,893.7l169.032-10.175
						C1098.467,883.524,1124.935,1036.96,1032.503,1044.867z"/>
					
						<ellipse transform="matrix(0.0639 -0.998 0.998 0.0639 54.7146 1751.639)" style="fill:#FFFFFF;" cx="961.007" cy="846.656" rx="60.73" ry="60.73"/>
					<path style="fill:#E2A18D;" d="M1097.021,895.804c4.096,52.98-31.051,25.982-76.14,29.468
						c-45.089,3.485-83.047,36.134-87.142-16.846c-4.096-52.98,29.52-84.184,74.609-87.669
						C1053.437,817.272,1092.926,842.825,1097.021,895.804z"/>
					<path style="fill:#FFFFFF;" d="M1097.687,923.769c-0.113,0-0.226-0.009-0.34-0.026c-1.204-0.185-2.028-1.313-1.842-2.517
						c1.28-8.277,1.595-16.786,0.937-25.295c-0.587-7.59-1.941-15.081-4.026-22.266c-0.339-1.169,0.334-2.392,1.503-2.73
						c1.171-0.345,2.392,0.331,2.732,1.503c2.169,7.471,3.578,15.261,4.188,23.153c0.685,8.847,0.356,17.699-0.975,26.311
						C1099.694,922.99,1098.755,923.769,1097.687,923.769z"/>
					<path style="fill:#FFFFFF;" d="M936.897,935.603c-0.938,0-1.807-0.603-2.102-1.546c-2.562-8.173-4.202-16.726-4.873-25.418
						c-0.622-8.044-0.407-16.108,0.64-23.971c0.16-1.208,1.267-2.045,2.476-1.895c1.207,0.161,2.055,1.268,1.895,2.476
						c-1.006,7.557-1.212,15.313-0.614,23.049c0.645,8.363,2.221,16.583,4.683,24.44c0.365,1.161-0.282,2.399-1.444,2.763
						C937.338,935.57,937.115,935.603,936.897,935.603z"/>
					<path style="fill:#363E44;" d="M1021.725,929.494c-0.642,0-1.277-0.278-1.713-0.816c-0.768-0.945-0.623-2.334,0.322-3.101
						c1.39-1.128,3.044-2.821,3.033-4.479c-0.007-0.963-0.538-1.707-1.557-3.047c-1.091-1.436-2.449-3.223-3.089-5.945
						c-0.574-2.439-0.43-5.038,0.43-7.728c0.371-1.161,1.617-1.806,2.771-1.428c1.161,0.37,1.8,1.611,1.43,2.771
						c-0.613,1.916-0.726,3.725-0.337,5.374c0.424,1.809,1.338,3.012,2.307,4.287c1.142,1.505,2.438,3.21,2.455,5.684
						c0.018,2.737-1.551,5.406-4.663,7.932C1022.705,929.333,1022.214,929.494,1021.725,929.494z"/>
					<path style="fill:#363E44;" d="M1009.008,953.332c-3.362,0-8.108-0.657-12.807-3.523c-3.187-1.944-5.933-4.672-7.941-7.891
						c-0.645-1.034-0.33-2.392,0.703-3.038c1.032-0.642,2.393-0.327,3.037,0.704c1.647,2.638,3.894,4.873,6.497,6.462
						c4.982,3.036,10.053,3.023,12.638,2.769c1.196-0.151,2.295,0.751,2.422,1.962c0.127,1.212-0.753,2.297-1.964,2.422
						C1010.878,953.273,1010.004,953.332,1009.008,953.332z"/>
					<path style="fill:#FFFFFF;" d="M922.217,880.887c0,0,43.881,5.326,87.805-49.291c0,0,87.08,107.871,148.344-26.583
						c0,0-37.491,17.738-58.536-8.18c-33.486-41.24-112.088-73.193-140.803,5.324L922.217,880.887z"/>
					<g>
						<g>
							<path style="fill:#FFFFFF;" d="M1068.611,883.252l0,0.004l-0.197-0.005c-0.073,0.417-0.307,0.959-0.739,0.979
								c-0.47,0.653-0.63,1.663-0.928,2.343c-0.536,1.224-2.399,0.316-1.865-0.906c0.36-0.823-2.328,0.906-3.521,1.473
								c-3.806,1.81-7.678,3.445-11.609,4.962c-1.833,0.707-3.668,1.43-5.525,2.073c-1.489,0.516-6.384,2.483-6.801,2.277
								c-4.754,5.076-7.239,9.719-7.239,9.719s7.587,2.693,17.106,2.468c0.017-0.13,0.037-0.257,0.049-0.388
								c0.123-1.289,21.591-8.128,22.256-7.203c8.8-6.606,13.489-15.334,13.489-15.334S1076.861,883.502,1068.611,883.252z"/>
							<path style="fill:#363E44;" d="M1052.694,885.746c-6.414,2.48-11.532,6.719-15.259,10.695
								c0.812,4.059,3.064,7.843,6.662,10.488c0.926,0.681,1.9,1.25,2.903,1.721c4.293-0.075,8.994-0.736,13.579-2.51
								c3.316-1.282,6.267-3.045,8.878-4.988c3.075-5.752,2.583-12.679-1.044-17.9
								C1063.573,883.123,1058.058,883.672,1052.694,885.746z"/>
						</g>
						<g>
							<path style="fill:#FFFFFF;" d="M961.546,892.969l0.001,0.004l0.195-0.036c0.135,0.401,0.449,0.901,0.88,0.855
								c0.564,0.573,0.877,1.547,1.275,2.173c0.716,1.128,2.419-0.055,1.705-1.181c-0.482-0.758,2.44,0.54,3.705,0.918
								c4.037,1.207,8.114,2.232,12.231,3.13c1.919,0.419,3.843,0.853,5.777,1.204c1.55,0.282,6.689,1.478,7.068,1.212
								c5.474,4.29,8.639,8.499,8.639,8.499s-7.087,3.821-16.528,5.053c-0.037-0.125-0.076-0.248-0.108-0.375
								c-0.318-1.255-22.579-4.734-23.095-3.718c-9.707-5.184-15.674-13.093-15.674-13.093S953.432,894.476,961.546,892.969z"/>
							<path style="fill:#363E44;" d="M977.657,893.001c6.718,1.471,12.424,4.879,16.714,8.239
								c-0.183,4.135-1.829,8.219-4.982,11.382c-0.812,0.815-1.687,1.526-2.607,2.144c-4.254,0.581-9,0.646-13.803-0.406
								c-3.473-0.761-6.659-2.052-9.535-3.574c-3.918-5.214-4.49-12.135-1.703-17.849
								C966.506,892.072,972.04,891.771,977.657,893.001z"/>
						</g>
					</g>
				</g>
			</g>
			<g>
				<path style="fill:#ff6900;" d="M943.785,1521.255c21.631,46.597,42.391,98.825,60.219,156.572
					c53.423,173.055,59.103,366.674,52.627,483.359c-94.071,0.352-162.51,0.352-254.319,1.354
					c-12.765-89.972-25.658-205.888-38.424-295.86c-11.379,44.432-22.757,88.865-34.137,133.297
					c-12.801,49.986-29.705,111.464-42.506,161.45c-79.233,0-159.357,0-256.841,0c-1.629-89.277,5.587-215.558,45.381-358.762
					c37.992-136.724,92.799-243.675,138.232-317.922C723.94,1496.913,833.864,1509.084,943.785,1521.255z"/>
				<g>
					<g>
						<path style="fill:#BC8271;" d="M1042.585,1234.534c57.727,52.678,180.823,205.176,120.464,278.371
							c-49.926,60.543-174.032-82.695-223.048-144.401C974.195,1323.847,1008.39,1279.19,1042.585,1234.534z"/>
						<path style="fill:#BC8271;" d="M489.312,1222.078c-50.218,59.879-205.727,223.82-136.18,288.348
							c57.526,53.375,201.928-112.964,255.65-169.192C568.959,1301.516,529.136,1261.797,489.312,1222.078z"/>
						<path style="fill:#EFBC73;" d="M401.726,1294.462c20.832-22.201,177.373-183.604,407.386-162.587
							c132.642,12.12,228.57,89.344,266.553,120.797c-24.725,35.688-53.681,60.96-78.405,96.649
							c18.885,69.543,43.231,160.373,62.116,229.916c-118.85,4.006-419.314-5.342-535.493-12.019
							c14.44-61.009,19.131-79.517,33.571-140.525c-13.609,13.086-27.219,26.172-40.828,39.258
							C479.199,1412.546,435.298,1344.783,401.726,1294.462z"/>
						<path style="fill:#363E44;" d="M542.254,1466.607c-0.557,0-1.112-0.209-1.542-0.629c-0.871-0.85-0.886-2.248-0.034-3.118
							l83.789-85.695c0.852-0.87,2.247-0.885,3.118-0.034c0.871,0.85,0.886,2.248,0.035,3.118l-83.79,85.695
							C543.398,1466.385,542.826,1466.607,542.254,1466.607z"/>
					</g>
					<g>
						<path style="fill:#D87355;" d="M630.916,1540.773c-3.652,26.888-8.732,55.291-15.676,84.915
							c-21.296,90.853-53.91,166.745-86.221,226.657c-7.742,1.564-52.89,9.913-94.06-19.595
							c-31.806-22.797-42.201-54.545-45.07-64.666c20.049-48.841,45.365-102.239,77.511-158.072
							c19.278-33.483,38.938-64.236,58.352-92.318C560.807,1525.387,595.861,1533.081,630.916,1540.773z"/>
						<path style="fill:#363E44;" d="M621.12,1536.446c-0.166,0-0.334-0.019-0.503-0.058c-1.185-0.276-1.923-1.462-1.647-2.646
							c18.662-80.08,27.433-162.091,26.07-243.755c-0.849-50.894-5.673-102.206-14.337-152.509c-0.207-1.201,0.599-2.34,1.798-2.547
							c1.204-0.202,2.341,0.599,2.547,1.798c8.702,50.526,13.548,102.066,14.401,153.186c1.368,82.026-7.441,164.399-26.184,244.828
							C623.028,1535.759,622.121,1536.446,621.12,1536.446z"/>
						<path style="fill:#363E44;" d="M607.284,1536.76c-0.143,0-0.288-0.013-0.435-0.043c-1.194-0.239-1.968-1.402-1.729-2.595
							c16.149-80.631,22.353-162.877,18.437-244.453c-2.44-50.849-8.864-101.984-19.096-151.986
							c-0.244-1.193,0.524-2.358,1.717-2.601c1.195-0.245,2.359,0.523,2.602,1.718c10.278,50.222,16.731,101.585,19.182,152.658
							c3.932,81.938-2.299,164.545-18.519,245.53C609.234,1536.037,608.313,1536.76,607.284,1536.76z"/>
					</g>
					<g>
						<path style="fill:#BC8271;" d="M410.858,1361.823c0.004-0.002,0.007-0.006,0.012-0.004
							c149.506,63.066,256.788,104.944,289.4,119.174c3.415,1.49,9.455,4.093,16.094,9.477
							c24.603,19.948,18.019,46.108,34.317,78.887c18.493,37.194,49.964,47.667,45.742,57.399
							c-2.936,6.769-15.92,6.161-39.795-4.623c-0.002-0.001-0.004,0.002-0.002,0.004c17.197,10.279,39.912,25.236,34.204,34.724
							c-7.176,10.602-35.927-3.838-52.893-13.423c20.535,11.602,27.984,23.915,23.483,28.412
							c-7.084,7.078-25.104,1.789-51.649-14.598l-0.002,0.001c15.168,16.435,16.399,22.683,11.451,25.688
							c-9.033,5.486-30.603-8.397-47.791-23.593c-19.349-17.107-28.421-37.087-33.841-49.821c-0.001-0.003-0.004-0.006-0.008-0.007
							c-109.291-33.314-193.888-52.512-276.836-92.603C317.172,1494.891,349.614,1388.943,410.858,1361.823z"/>
						<path style="fill:#363E44;" d="M456.984,1382.33c-0.283,0-0.571-0.054-0.847-0.17c-16.271-6.785-31.937-13.356-47.111-19.755
							c-1.122-0.474-1.648-1.768-1.174-2.889c0.473-1.12,1.766-1.645,2.888-1.176c15.168,6.399,30.829,12.966,47.094,19.751
							c1.124,0.469,1.656,1.759,1.186,2.883C458.666,1381.82,457.847,1382.33,456.984,1382.33z"/>
						<path style="fill:#BC8271;" d="M728.719,1542.778c38.813,13.52,55.677,10.172,57.624,3.953
							c3.273-10.459-25.137-35.565-79.373-62.471C711.567,1501.106,724.121,1525.932,728.719,1542.778z"/>
						<path style="fill:#363E44;" d="M740.745,1549.531c-0.958,0-1.84-0.629-2.118-1.596c-1.376-4.788-2.484-9.379-3.554-13.819
							c-2.226-9.239-4.33-17.964-8.323-25.711c-0.559-1.083-0.133-2.411,0.95-2.969c1.085-0.564,2.414-0.134,2.969,0.949
							c4.236,8.219,6.4,17.193,8.691,26.697c1.059,4.395,2.155,8.938,3.504,13.634c0.337,1.171-0.339,2.392-1.509,2.728
							C741.152,1549.503,740.947,1549.531,740.745,1549.531z"/>
						<path style="fill:#363E44;" d="M756.541,1623.147c-0.441,0-0.887-0.131-1.275-0.407c-6.102-4.334-11.583-9.444-16.287-15.188
							c-3.246-3.96-6.145-8.253-8.618-12.762c-0.586-1.066-0.195-2.407,0.873-2.993c1.069-0.592,2.406-0.194,2.994,0.874
							c2.341,4.267,5.088,8.335,8.161,12.086c4.457,5.441,9.648,10.281,15.43,14.387c0.993,0.706,1.226,2.082,0.521,3.075
							C757.91,1622.824,757.231,1623.147,756.541,1623.147z"/>
						<path style="fill:#363E44;" d="M740.566,1645.856c-0.441,0-0.886-0.131-1.273-0.407c-6.095-4.326-11.575-9.433-16.289-15.186
							c-3.247-3.962-6.146-8.255-8.618-12.764c-0.586-1.068-0.194-2.407,0.873-2.993c1.068-0.59,2.406-0.196,2.994,0.874
							c2.34,4.268,5.087,8.335,8.161,12.088c4.464,5.447,9.656,10.288,15.429,14.385c0.994,0.704,1.227,2.08,0.522,3.075
							C741.936,1645.533,741.256,1645.856,740.566,1645.856z"/>
						<path style="fill:#363E44;" d="M709.424,1658.943c-0.441,0-0.887-0.131-1.275-0.407c-6.1-4.332-11.58-9.444-16.287-15.188
							c-3.249-3.966-6.148-8.259-8.617-12.762c-0.586-1.068-0.194-2.407,0.873-2.993c1.068-0.59,2.408-0.196,2.994,0.874
							c2.337,4.263,5.084,8.33,8.16,12.086c4.459,5.441,9.65,10.283,15.43,14.387c0.993,0.706,1.226,2.082,0.521,3.075
							C710.793,1658.62,710.114,1658.943,709.424,1658.943z"/>
					</g>
					<g>
						<path style="fill:#BC8271;" d="M1122.419,1382.162c-64.688,10.874-195.615,25.36-210.539,27.721
							c-27.898,4.413-170.027,19.703-162.272,47.975c3.657,13.331,69.285,2.82,83.936,0.559
							c-16.049,5.43-87.722,20.968-81.66,37.856c6.238,17.38,90.762-4.221,91.51-4.072c-8.489,2.977-72.972,19.306-67.764,38.198
							c5.015,18.192,69.852-8.091,79.574-8.592c-10.293,5.151-52.789,18.001-49.502,29.859c4.404,15.887,58.711-3.002,67.452-2.472
							c24.79-3.901,64.411-3.928,111.85-6.272c69.351-3.426,118.037,0.309,164.084-18.954
							C1169.383,1515.479,1162.728,1405.216,1122.419,1382.162z"/>
						<path style="fill:#363E44;" d="M853.966,1447.256c-0.959,0-1.841-0.631-2.119-1.598l-3.808-13.298
							c-0.335-1.171,0.342-2.392,1.513-2.726c1.168-0.342,2.39,0.342,2.727,1.511l3.808,13.298c0.335,1.171-0.342,2.392-1.513,2.726
							C854.371,1447.228,854.168,1447.256,853.966,1447.256z"/>
						<path style="fill:#363E44;" d="M856.974,1483.276c-0.959,0-1.841-0.631-2.119-1.598l-3.808-13.298
							c-0.335-1.171,0.342-2.392,1.513-2.726c1.17-0.342,2.39,0.342,2.727,1.511l3.808,13.298c0.335,1.171-0.342,2.392-1.513,2.726
							C857.379,1483.248,857.176,1483.276,856.974,1483.276z"/>
						<path style="fill:#363E44;" d="M862.889,1514.03c-0.959,0-1.842-0.631-2.119-1.598l-3.807-13.298
							c-0.335-1.171,0.342-2.392,1.513-2.726c1.169-0.338,2.392,0.34,2.727,1.511l3.807,13.298c0.335,1.171-0.342,2.392-1.513,2.726
							C863.294,1514.002,863.09,1514.03,862.889,1514.03z"/>
						<path style="fill:#363E44;" d="M870.744,1541.273c-0.959,0-1.841-0.631-2.119-1.598l-3.807-13.296
							c-0.335-1.171,0.342-2.392,1.513-2.726c1.171-0.338,2.39,0.34,2.727,1.512l3.807,13.296c0.335,1.171-0.342,2.392-1.513,2.726
							C871.148,1541.245,870.945,1541.273,870.744,1541.273z"/>
					</g>
				</g>
				<g>
					<g>
						<g>
							<path style="fill:#BC8271;" d="M836.269,1081.586c-20.678,17.017-85.189-20.596-85.189-20.596l-40.44-71.123
								c-2.674-37.579,25.621-70.211,63.2-72.885h0c37.579-2.674,70.21,25.621,72.885,63.2
								C846.726,980.182,857.33,1064.254,836.269,1081.586z"/>
							<path style="fill:#BC8271;" d="M846.961,1156.102c1.27,17.841-32.978,34.816-76.493,37.912
								c-43.516,3.098-79.822-8.856-81.091-26.697c-1.27-17.841,32.977-34.816,76.493-37.912
								C809.385,1126.308,845.691,1138.261,846.961,1156.102z"/>
							
								<rect x="716.601" y="985.893" transform="matrix(0.9975 -0.071 0.071 0.9975 -74.1945 56.5682)" style="fill:#BC8271;" width="84.31" height="172.456"/>
							<path style="fill:#BC8271;" d="M840.18,998.63c0,0,20.508,18.637,19.868,23.989c-0.764,6.388-21.749,11.744-21.749,11.744
								S840.69,998.643,840.18,998.63z"/>
							<path style="fill:#363E44;" d="M801.923,1087.033c-0.212,0-0.426-0.03-0.64-0.095c-24.285-7.351-50.63-23.725-50.893-23.891
								c-1.034-0.644-1.347-2.005-0.702-3.038c0.647-1.029,2.006-1.35,3.038-0.7c0.258,0.161,26.12,16.23,49.833,23.409
								c1.166,0.353,1.825,1.583,1.472,2.75C803.743,1086.42,802.869,1087.033,801.923,1087.033z"/>
							<path style="fill:#363E44;" d="M818.649,1049.842c-2.1,0-4.204-0.519-6.109-1.572c-4.193-2.315-6.758-6.92-6.533-11.732
								c0.058-1.217,1.099-2.173,2.306-2.099c1.217,0.058,2.156,1.089,2.099,2.306c-0.147,3.146,1.525,6.156,4.259,7.667
								c2.837,1.565,6.364,1.313,8.985-0.646c0.977-0.734,2.357-0.528,3.086,0.444c0.729,0.975,0.531,2.358-0.445,3.088
								C824.047,1048.983,821.352,1049.842,818.649,1049.842z"/>
						</g>
						<path style="fill:#FFFFFF;" d="M807.572,947.367c-8.259,13.809-16.172,29.695-22.73,47.721
							c-28.902,79.448-11.609,190.505-0.632,228.652c-33.018-5.676-90.003-16.721-123.021-22.397
							c-10.62-44.534-5.038-242.944,80.387-281.553c27.092-12.244,68.67-7.785,89.916,18.189
							c8.041,9.83,11.285,20.487,12.734,27.781C833.586,954.8,823.716,951.084,807.572,947.367z"/>
						<g>
							<path style="fill:#FFFFFF;" d="M771.476,995.824c0,0,12.007-7.603,27.056-8.674c3.202-0.228-1.015,25.825-4.158,24.59
								C780.557,1006.312,771.476,995.824,771.476,995.824z"/>
							<path style="fill:#363E44;" d="M808.465,987.49c-3.38-0.498-6.704-0.56-9.896-0.336c-5.755,7.123-7.081,16.456-4.207,24.577
								c3.148,1.237,6.538,2.215,10.126,2.744c19.33,2.849,36.988-8.334,36.988-8.334S827.795,990.34,808.465,987.49z"/>
						</g>
					</g>
				</g>
			</g>
			<g>
				<path style="fill:#E2A18D;" d="M430.664,1201.798c45.16,47.574,157.059,154.344,167.566,165.201
					c19.643,20.296,124.038,117.95,100.846,135.883c-10.935,8.456-57.066-39.394-67.416-50.008
					c9.561,13.987,57.501,69.487,42.505,79.34c-15.433,10.14-69.997-57.93-70.685-58.261c4.995,7.482,46.712,59.292,31.194,71.259
					c-14.943,11.524-50.96-48.454-58.428-54.698c5.13,10.304,31.367,46.117,21.612,53.618c-13.07,10.049-45.116-37.69-52.42-42.521
					c-17.467-18.019-49.039-41.948-85.618-72.245c-26.387-21.857-47.84-31.46-88.701-71.578
					C324.179,1311.701,384.592,1195.993,430.664,1201.798z"/>
				<path style="fill:#363E44;" d="M479.187,1253.196c-0.574,0-1.148-0.224-1.58-0.667c-5.238-5.383-13.702-13.905-21.17-21.426
					c-6.844-6.89-12.753-12.841-14.903-15.087c-0.843-0.879-0.812-2.276,0.068-3.118c0.881-0.842,2.275-0.812,3.117,0.069
					c2.122,2.215,8.019,8.154,14.847,15.029c7.476,7.527,15.948,16.058,21.202,21.458c0.849,0.872,0.83,2.269-0.043,3.118
					C480.296,1252.989,479.741,1253.196,479.187,1253.196z"/>
			</g>
		</g>
		<g>
			
				<rect x="1719.8" y="1572.714" transform="matrix(1 -0.0036 0.0036 1 -6.2928 7.0138)" style="fill:#D87355;" width="428.585" height="337.736"/>
			<polygon style="fill:#E2A18D;" points="2147.886,1572.251 1719.304,1573.803 1702.484,1413.452 2131.066,1411.9 			"/>
			<path style="fill:#363E44;" d="M1729.839,1913.395c-0.582,0-1.141-0.23-1.553-0.642c-0.416-0.411-0.649-0.971-0.651-1.557
				l-0.998-337.734c-0.003-1.216,0.98-2.207,2.197-2.211l428.582-1.552c0.638-0.082,1.148,0.23,1.561,0.642
				c0.416,0.411,0.649,0.971,0.651,1.557l0.998,337.736c0.003,1.217-0.98,2.207-2.197,2.211l-428.582,1.55
				C1729.845,1913.395,1729.842,1913.395,1729.839,1913.395z M1731.053,1575.653l0.985,333.324l424.172-1.533l-0.985-333.326
				L1731.053,1575.653z"/>
			<path style="fill:#363E44;" d="M1728.843,1575.973c-1.128,0-2.075-0.853-2.193-1.974l-16.82-160.351
				c-0.065-0.62,0.136-1.238,0.552-1.703c0.416-0.463,1.01-0.73,1.633-0.732l428.582-1.552c0.002,0,0.006,0,0.008,0
				c1.128,0,2.075,0.853,2.193,1.974l16.82,160.351c0.065,0.62-0.136,1.238-0.552,1.703c-0.416,0.463-1.01,0.73-1.633,0.732
				l-428.582,1.552C1728.848,1575.973,1728.845,1575.973,1728.843,1575.973z M1714.469,1415.614l16.359,155.944l424.15-1.537
				l-16.359-155.943L1714.469,1415.614z"/>
			<polygon style="fill:#F7F1EB;" points="2107.743,1543.328 1765.06,1544.569 1754.183,1445.307 2096.866,1444.066 			"/>
			
				<rect x="1757.577" y="1684.019" transform="matrix(1 -0.0036 0.0036 1 -6.1598 6.4904)" style="fill:#F2E6DC;" width="63.18" height="40.343"/>
			
				<rect x="1855.654" y="1683.664" transform="matrix(1 -0.0036 0.0036 1 -6.1579 6.8456)" style="fill:#F2E6DC;" width="63.18" height="40.343"/>
			
				<rect x="1953.731" y="1683.309" transform="matrix(1 -0.0036 0.0036 1 -6.1559 7.2008)" style="fill:#F2E6DC;" width="63.18" height="40.343"/>
			
				<rect x="1757.794" y="1757.525" transform="matrix(1 -0.0036 0.0036 1 -6.426 6.4917)" style="fill:#F2E6DC;" width="63.181" height="40.343"/>
			
				<rect x="1855.871" y="1757.17" transform="matrix(1 -0.0036 0.0036 1 -6.424 6.8468)" style="fill:#F2E6DC;" width="63.181" height="40.343"/>
			
				<rect x="1953.948" y="1756.815" transform="matrix(1 -0.0036 0.0036 1 -6.4221 7.202)" style="fill:#F2E6DC;" width="63.18" height="40.343"/>
			
				<rect x="1758.006" y="1829.397" transform="matrix(1 -0.0036 0.0036 1 -6.6833 6.4901)" style="fill:#F2E6DC;" width="63.18" height="40.343"/>
			
				<rect x="1856.083" y="1829.042" transform="matrix(1 -0.0036 0.0036 1 -6.6814 6.8451)" style="fill:#F2E6DC;" width="63.18" height="40.343"/>
			
				<rect x="1954.16" y="1828.687" transform="matrix(1 -0.0036 0.0036 1 -6.6795 7.2001)" style="fill:#F2E6DC;" width="63.18" height="40.343"/>
			
				<rect x="2051.808" y="1682.954" transform="matrix(1 -0.0036 0.0036 1 -6.1513 7.5526)" style="fill:#FFFFFF;" width="63.181" height="40.343"/>
			
				<rect x="1757.359" y="1610.514" transform="matrix(1 -0.0036 0.0036 1 -5.8936 6.4892)" style="fill:#FFFFFF;" width="63.18" height="40.343"/>
			
				<rect x="1855.437" y="1610.159" transform="matrix(1 -0.0036 0.0036 1 -5.8917 6.8443)" style="fill:#FFFFFF;" width="63.181" height="40.343"/>
			
				<rect x="1953.514" y="1609.803" transform="matrix(1 -0.0036 0.0036 1 -5.8897 7.1995)" style="fill:#FFFFFF;" width="63.181" height="40.343"/>
			
				<rect x="2051.591" y="1609.448" transform="matrix(1 -0.0036 0.0036 1 -5.8852 7.5513)" style="fill:#FFFFFF;" width="63.18" height="40.343"/>
			
				<rect x="2052.025" y="1756.46" transform="matrix(1 -0.0036 0.0036 1 -6.4202 7.5572)" style="fill:#FFFFFF;" width="63.18" height="40.343"/>
			
				<rect x="2052.238" y="1828.332" transform="matrix(1 -0.0036 0.0036 1 -6.6805 7.5584)" style="fill:#FFFFFF;" width="63.181" height="40.343"/>
		</g>
		<g>
			<g>
				<g>
					<ellipse style="fill:#E0AA63;" cx="1542.05" cy="1992.678" rx="128.498" ry="40.678"/>
					<rect x="1413.552" y="1952.154" style="fill:#E0AA63;" width="256.996" height="41.911"/>
					<ellipse style="fill:#EFBC73;" cx="1542.05" cy="1952.95" rx="128.498" ry="40.678"/>
					<path style="fill:#FFFFFF;" d="M1557.188,1995.834c-73.292,0-130.703-18.838-130.703-42.884
						c0-24.046,57.411-42.882,130.703-42.882c73.291,0,130.702,18.836,130.702,42.882
						C1687.891,1976.996,1630.479,1995.834,1557.188,1995.834z M1557.188,1914.478c-68.458,0-126.294,17.619-126.294,38.472
						c0,20.855,57.836,38.474,126.294,38.474s126.293-17.619,126.293-38.474C1683.481,1932.097,1625.647,1914.478,1557.188,1914.478
						z"/>
				</g>
				<g>
					<ellipse style="fill:#E0AA63;" cx="1563.156" cy="1933.581" rx="128.498" ry="40.678"/>
					<rect x="1434.658" y="1893.057" style="fill:#E0AA63;" width="256.996" height="41.911"/>
					<ellipse style="fill:#EFBC73;" cx="1563.156" cy="1893.853" rx="128.498" ry="40.678"/>
					<path style="fill:#FFFFFF;" d="M1554.188,1931.847c-73.291,0-130.702-18.836-130.702-42.882
						c0-24.046,57.411-42.884,130.702-42.884c73.292,0,130.703,18.838,130.703,42.884
						C1684.891,1913.011,1627.48,1931.847,1554.188,1931.847z M1554.188,1850.491c-68.458,0-126.293,17.619-126.293,38.474
						c0,20.853,57.835,38.472,126.293,38.472s126.294-17.619,126.294-38.472C1680.482,1868.11,1622.646,1850.491,1554.188,1850.491z
						"/>
				</g>
				<g>
					<ellipse style="fill:#E0AA63;" cx="1542.05" cy="1860.251" rx="128.498" ry="40.678"/>
					<rect x="1413.552" y="1819.727" style="fill:#E0AA63;" width="256.996" height="41.911"/>
					<ellipse style="fill:#EFBC73;" cx="1542.05" cy="1820.523" rx="128.498" ry="40.678"/>
					<path style="fill:#FFFFFF;" d="M1557.188,1863.405c-73.292,0-130.703-18.836-130.703-42.882
						c0-24.046,57.411-42.884,130.703-42.884c73.291,0,130.702,18.838,130.702,42.884
						C1687.891,1844.569,1630.479,1863.405,1557.188,1863.405z M1557.188,1782.049c-68.458,0-126.294,17.619-126.294,38.475
						c0,20.853,57.836,38.472,126.294,38.472s126.293-17.619,126.293-38.472C1683.481,1799.668,1625.647,1782.049,1557.188,1782.049
						z"/>
				</g>
				<g>
					<ellipse style="fill:#E0AA63;" cx="1583.68" cy="1801.366" rx="128.498" ry="40.678"/>
					<rect x="1455.182" y="1760.842" style="fill:#E0AA63;" width="256.996" height="41.911"/>
					<ellipse style="fill:#EFBC73;" cx="1583.68" cy="1761.638" rx="128.498" ry="40.678"/>
					<path style="fill:#FFFFFF;" d="M1598.818,1804.521c-73.292,0-130.703-18.836-130.703-42.882
						c0-24.046,57.411-42.884,130.703-42.884c73.292,0,130.703,18.838,130.703,42.884
						C1729.522,1785.685,1672.11,1804.521,1598.818,1804.521z M1598.818,1723.165c-68.458,0-126.294,17.619-126.294,38.474
						c0,20.853,57.836,38.472,126.294,38.472s126.294-17.619,126.294-38.472C1725.112,1740.784,1667.277,1723.165,1598.818,1723.165
						z"/>
				</g>
			</g>
			<g>
				<g>
					<ellipse style="fill:#E0AA63;" cx="1835.29" cy="1994.124" rx="128.498" ry="40.678"/>
					<rect x="1706.792" y="1953.6" style="fill:#E0AA63;" width="256.996" height="41.911"/>
					<ellipse style="fill:#EFBC73;" cx="1835.29" cy="1954.396" rx="128.498" ry="40.678"/>
					<path style="fill:#FFFFFF;" d="M1850.428,1997.279c-73.291,0-130.702-18.838-130.702-42.884s57.411-42.882,130.702-42.882
						c73.292,0,130.703,18.836,130.703,42.882S1923.72,1997.279,1850.428,1997.279z M1850.428,1915.922
						c-68.458,0-126.293,17.619-126.293,38.472c0,20.855,57.835,38.474,126.293,38.474c68.458,0,126.294-17.619,126.294-38.474
						C1976.722,1933.542,1918.886,1915.922,1850.428,1915.922z"/>
				</g>
				<g>
					<ellipse style="fill:#E0AA63;" cx="1820.152" cy="1933.231" rx="128.498" ry="40.566"/>
					<rect x="1691.654" y="1892.819" style="fill:#E0AA63;" width="256.996" height="41.796"/>
					<ellipse style="fill:#EFBC73;" cx="1820.152" cy="1893.612" rx="128.498" ry="40.566"/>
					<path style="fill:#FFFFFF;" d="M1835.291,1936.384c-73.292,0-130.703-18.788-130.703-42.772
						c0-23.984,57.411-42.77,130.703-42.77c73.291,0,130.702,18.786,130.702,42.77
						C1965.993,1917.595,1908.582,1936.384,1835.291,1936.384z M1835.291,1855.251c-68.458,0-126.294,17.568-126.294,38.36
						c0,20.795,57.836,38.363,126.294,38.363c68.458,0,126.293-17.568,126.293-38.363
						C1961.583,1872.819,1903.749,1855.251,1835.291,1855.251z"/>
				</g>
				<g>
					
						<ellipse transform="matrix(0.7103 -0.7039 0.7039 0.7103 -761.7163 1768.3802)" style="fill:#E0AA63;" cx="1767.621" cy="1809.631" rx="40.683" ry="128.482"/>
					
						<rect x="1760.569" y="1667.377" transform="matrix(0.7103 -0.7039 0.7039 0.7103 -747.994 1774.1091)" style="fill:#E0AA63;" width="41.916" height="256.964"/>
					
						<ellipse transform="matrix(0.7103 -0.7039 0.7039 0.7103 -733.8587 1780.1506)" style="fill:#EFBC73;" cx="1795.852" cy="1781.672" rx="40.683" ry="128.482"/>
					<path style="fill:#FFFFFF;" d="M1884.209,1890.238c-24.158,0-66.876-25.952-108.176-67.632
						c-24.31-24.535-44.153-50.627-55.874-73.467c-12.096-23.573-14.098-41.168-5.637-49.548
						c17.085-16.919,70.876,10.6,122.457,62.654c24.31,24.535,44.153,50.625,55.874,73.465
						c12.096,23.573,14.098,41.168,5.637,49.548C1895.085,1888.629,1890.221,1890.238,1884.209,1890.238z M1728.928,1698.875
						c-4.821,0-8.667,1.238-11.303,3.85c-6.879,6.813-4.526,22.995,6.457,44.4c11.52,22.449,31.083,48.153,55.084,72.376
						c48.178,48.622,101.398,77.302,116.221,62.622c6.88-6.813,4.526-22.995-6.457-44.4c-11.52-22.449-31.083-48.153-55.084-72.374
						C1794.237,1725.374,1751.213,1698.875,1728.928,1698.875z"/>
				</g>
			</g>
		</g>
	</g>
</g>
</svg>
