<?xml version="1.0" encoding="utf-8"?>
<!-- Generator: Adobe Illustrator 27.5.0, SVG Export Plug-In . SVG Version: 6.00 Build 0)  -->
<svg version="1.1" xmlns="http://www.w3.org/2000/svg" xmlns:xlink="http://www.w3.org/1999/xlink" x="0px" y="0px"
	 viewBox="0 0 2500 2500" style="enable-background:new 0 0 2500 2500;" xml:space="preserve">
-
<g id="Illustration">
	<g id="Foldable_smartphone_1_">
		<circle style="fill:transparent;" cx="1250" cy="1250" r="915"/>
		<g>
			<g>
				<path style="fill:#D3BBA3;" d="M1821.356,2081.646h-59.192c-1.219,0-2.205-0.986-2.205-2.205v-15.664
					c-7.312-1.43-14.568-3.372-21.622-5.783l-7.824,13.556c-0.293,0.506-0.775,0.876-1.339,1.027
					c-0.564,0.146-1.167,0.069-1.673-0.22l-51.264-29.595c-0.506-0.293-0.876-0.775-1.027-1.339
					c-0.151-0.564-0.073-1.167,0.22-1.673l7.848-13.593c-5.609-4.901-10.916-10.208-15.811-15.813l-13.593,7.848
					c-1.055,0.607-2.403,0.25-3.012-0.807l-29.597-51.262c-0.609-1.055-0.248-2.403,0.807-3.012l13.556-7.827
					c-2.411-7.054-4.354-14.31-5.783-21.622h-15.664c-1.219,0-2.205-0.986-2.205-2.205v-59.192c0-1.219,0.986-2.205,2.205-2.205
					h15.664c1.43-7.312,3.372-14.568,5.783-21.622l-13.556-7.825c-0.506-0.293-0.876-0.775-1.027-1.339s-0.073-1.167,0.22-1.673
					l29.597-51.264c0.293-0.506,0.775-0.876,1.339-1.027c0.562-0.148,1.165-0.071,1.673,0.22l13.593,7.848
					c4.896-5.607,10.204-10.914,15.811-15.811l-7.848-13.593c-0.293-0.506-0.37-1.109-0.22-1.673
					c0.151-0.564,0.521-1.046,1.027-1.339l51.264-29.597c0.506-0.293,1.109-0.37,1.673-0.22c0.564,0.151,1.047,0.521,1.339,1.027
					l7.824,13.556c7.056-2.414,14.314-4.354,21.622-5.781v-15.666c0-1.219,0.986-2.205,2.205-2.205h59.192
					c1.219,0,2.205,0.986,2.205,2.205v15.666c7.308,1.427,14.566,3.367,21.622,5.781l7.825-13.556
					c0.293-0.506,0.775-0.876,1.339-1.027c0.56-0.151,1.165-0.073,1.673,0.22l51.264,29.597c0.506,0.293,0.876,0.775,1.027,1.339
					c0.151,0.564,0.073,1.167-0.22,1.673l-7.848,13.593c5.607,4.896,10.914,10.204,15.81,15.811l13.595-7.848
					c1.051-0.609,2.401-0.252,3.012,0.807l29.595,51.264c0.293,0.506,0.37,1.109,0.22,1.673c-0.151,0.564-0.521,1.046-1.027,1.339
					l-13.556,7.825c2.414,7.056,4.354,14.314,5.781,21.622h15.666c1.219,0,2.205,0.986,2.205,2.205v59.192
					c0,1.219-0.986,2.205-2.205,2.205h-15.666c-1.427,7.308-3.368,14.566-5.781,21.622l13.556,7.827
					c1.055,0.609,1.417,1.957,0.807,3.012l-29.595,51.262c-0.611,1.053-1.961,1.415-3.012,0.807l-13.595-7.848
					c-4.896,5.605-10.202,10.912-15.81,15.813l7.848,13.593c0.293,0.506,0.37,1.109,0.22,1.673
					c-0.151,0.564-0.521,1.046-1.027,1.339l-51.264,29.595c-0.508,0.289-1.113,0.366-1.673,0.22
					c-0.564-0.151-1.047-0.521-1.339-1.027l-7.825-13.556c-7.054,2.411-14.31,4.354-21.622,5.783v15.664
					C1823.561,2080.659,1822.575,2081.646,1821.356,2081.646z M1764.369,2077.236h54.782v-15.285c0-1.064,0.76-1.977,1.807-2.168
					c8.294-1.524,16.532-3.729,24.486-6.55c0.995-0.355,2.114,0.054,2.646,0.975l7.635,13.227l47.444-27.39l-7.657-13.261
					c-0.532-0.919-0.329-2.089,0.478-2.78c6.412-5.478,12.439-11.504,17.91-17.912c0.693-0.81,1.862-1.003,2.78-0.478l13.263,7.656
					l27.39-47.442l-13.227-7.637c-0.922-0.532-1.331-1.645-0.975-2.646c2.823-7.958,5.026-16.196,6.548-24.486
					c0.192-1.046,1.104-1.807,2.168-1.807h15.287v-54.782h-15.287c-1.064,0-1.977-0.76-2.168-1.807
					c-1.522-8.29-3.725-16.527-6.548-24.486c-0.355-1.001,0.054-2.114,0.975-2.646l13.227-7.635l-27.39-47.444l-13.263,7.656
					c-0.917,0.53-2.086,0.334-2.78-0.478c-5.473-6.41-11.5-12.436-17.91-17.91c-0.807-0.691-1.01-1.86-0.478-2.78l7.657-13.261
					l-47.444-27.392l-7.635,13.227c-0.53,0.919-1.647,1.337-2.646,0.975c-7.958-2.823-16.196-5.025-24.486-6.548
					c-1.047-0.192-1.807-1.105-1.807-2.168v-15.287h-54.782v15.287c0,1.064-0.76,1.977-1.807,2.168
					c-8.29,1.522-16.527,3.725-24.485,6.548c-0.999,0.353-2.116-0.058-2.646-0.975l-7.635-13.227l-47.445,27.392l7.657,13.261
					c0.532,0.919,0.329,2.089-0.478,2.78c-6.41,5.473-12.437,11.5-17.91,17.91c-0.693,0.812-1.86,1.008-2.78,0.478l-13.261-7.656
					l-27.392,47.444l13.227,7.635c0.922,0.532,1.331,1.645,0.975,2.646c-2.821,7.954-5.026,16.192-6.55,24.486
					c-0.192,1.046-1.104,1.807-2.168,1.807h-15.285v54.782h15.285c1.064,0,1.977,0.76,2.168,1.807
					c1.524,8.294,3.729,16.532,6.55,24.486c0.355,1.001-0.054,2.114-0.975,2.646l-13.227,7.637l27.392,47.442l13.261-7.656
					c0.919-0.525,2.086-0.332,2.78,0.478c5.471,6.408,11.498,12.434,17.91,17.912c0.807,0.691,1.01,1.86,0.478,2.78l-7.657,13.261
					l47.445,27.39l7.635-13.227c0.532-0.919,1.649-1.333,2.646-0.975c7.954,2.821,16.192,5.025,24.485,6.55
					c1.047,0.192,1.807,1.104,1.807,2.168V2077.236z M1791.813,2002.158c-1.109,0-2.22-0.017-3.335-0.054
					c-52.69-1.679-95.281-44.271-96.96-96.963c-0.896-28.045,9.517-54.395,29.322-74.199c19.807-19.805,46.131-30.241,74.204-29.324
					c52.69,1.682,95.281,44.273,96.96,96.962c0.896,28.045-9.517,54.397-29.322,74.2
					C1843.663,1991.799,1818.606,2002.158,1791.813,2002.158z M1791.714,1805.974c-25.62,0-49.574,9.902-67.757,28.086
					c-18.933,18.935-28.889,44.126-28.034,70.94c1.608,50.373,42.324,91.091,92.697,92.699c26.832,0.833,52.011-9.103,70.944-28.036
					s28.889-44.127,28.034-70.94c-1.608-50.371-42.324-91.089-92.697-92.699C1793.837,1805.992,1792.771,1805.974,1791.714,1805.974
					z"/>
			</g>
		</g>
		<g>
			<g>
				<path style="fill:#FFFFFF;" d="M480.242,1577.366l19.323-8.333c5.792,8.673,12.21,16.769,19.16,24.261l-12.559,16.866
					l57.119,42.534l12.588-16.905c9.256,4.548,18.856,8.363,28.709,11.409l-2.449,20.934l70.734,8.276l2.443-20.886
					c10.197-0.677,20.421-2.159,30.586-4.491l8.333,19.323l65.395-28.2l-8.333-19.323c8.673-5.792,16.769-12.21,24.26-19.16
					l16.866,12.56l42.534-57.12l-16.904-12.588c4.548-9.255,8.363-18.856,11.409-28.709l20.934,2.449l8.275-70.734l-20.886-2.444
					c-0.678-10.197-2.159-20.421-4.491-30.586l19.323-8.333l-28.2-65.395l-19.323,8.333c-5.792-8.673-12.21-16.769-19.16-24.261
					l12.56-16.866l-57.12-42.534l-12.588,16.904c-9.256-4.548-18.856-8.363-28.709-11.409l2.449-20.933l-70.734-8.276l-2.443,20.886
					c-10.197,0.677-20.421,2.159-30.587,4.491l-8.333-19.323l-65.395,28.2l8.332,19.323c-8.673,5.792-16.769,12.21-24.26,19.16
					l-16.866-12.56l-42.533,57.12l16.904,12.588c-4.548,9.256-8.363,18.856-11.409,28.709l-20.933-2.449l-8.276,70.734l20.886,2.444
					c0.678,10.197,2.16,20.421,4.491,30.586l-19.323,8.332L480.242,1577.366z M616.336,1343.019
					c61.296-24.142,131.777,3.868,159.78,63.499c30.922,65.847-0.113,143.94-67.798,170.6
					c-61.296,24.143-131.777-3.867-159.78-63.499C517.615,1447.772,548.65,1369.679,616.336,1343.019z"/>
			</g>
			<path style="fill:#F2E6DC;" d="M662.315,1618.085c-47.626,0-94.041-21.547-124.655-60.902c-0.748-0.962-0.575-2.347,0.386-3.094
				c0.956-0.751,2.347-0.575,3.093,0.385c42.908,55.159,117.752,74.331,182.001,46.622
				c77.763-33.533,113.746-124.079,80.212-201.844c-29.858-69.236-107.263-106.949-180.041-87.747
				c-1.182,0.304-2.385-0.392-2.695-1.57c-0.311-1.176,0.392-2.383,1.568-2.693c36.198-9.551,74.809-5.826,108.723,10.496
				c34.255,16.487,61.421,44.816,76.494,79.77c34.495,79.996-2.52,173.141-82.516,207.636
				C704.635,1613.877,683.355,1618.085,662.315,1618.085z"/>
		</g>
		<g>
			<g>
				<g>
					<g>
						<g>
							<path style="fill:#D3BBA3;" d="M1859.515,1852.049h-552.284V365.52l659.877,15.122
								c97.663,2.238,176.046,120.648,176.046,265.946v1393.855c0,64.49-35.144,116.769-78.496,116.769
								C2064.658,1988.676,1972.812,1852.049,1859.515,1852.049z"/>
						</g>
					</g>
					<g>
						<g>
							<path style="fill:#E6D0BE;" d="M1881.831,1799.98l-529.733,0.618V413.803l589.04,14.105
								c87.179,2.089,157.147,112.556,157.147,248.105v1300.339c-0.189,35.238-0.379,70.479-0.568,105.717
								c-6.475-37.219-26.548-121.743-97.222-197.122C1957.996,1839.617,1912.612,1814.038,1881.831,1799.98z"/>
						</g>
					</g>
				</g>
			</g>
			<g>
				<g>
					
						<rect x="1421.641" y="489.807" transform="matrix(-1.836970e-16 1 -1 -1.836970e-16 2160.6243 -931.8337)" style="fill:#D87355;" width="249.177" height="249.177"/>
					<g>
						<path style="fill:#FFFFFF;" d="M1546.229,517.93c38.452,0,69.624,31.172,69.624,69.624
							c0,38.452-69.624,123.307-69.624,123.307s-69.624-84.855-69.624-123.307C1476.605,549.102,1507.777,517.93,1546.229,517.93z"
							/>
						
							<ellipse transform="matrix(0.9239 -0.3827 0.3827 0.9239 -107.1475 636.438)" style="fill:#D87355;" cx="1546.229" cy="587.554" rx="47.64" ry="47.64"/>
					</g>
				</g>
				<g>
					
						<rect x="1421.641" y="816.875" transform="matrix(-1.836970e-16 1 -1 -1.836970e-16 2487.6921 -604.7656)" style="fill:#FFFFFF;" width="249.177" height="249.177"/>
				</g>
				<g>
					
						<rect x="1421.641" y="1143.943" transform="matrix(-1.836970e-16 1 -1 -1.836970e-16 2814.7603 -277.6976)" style="fill:#EFBC73;" width="249.177" height="249.177"/>
					
						<ellipse transform="matrix(0.7071 -0.7071 0.7071 0.7071 -444.1071 1464.8932)" style="fill:#FFFFFF;" cx="1546.229" cy="1268.531" rx="81.665" ry="81.665"/>
					<polygon style="fill:#EFBC73;" points="1594.804,1265.385 1517.902,1220.986 1517.902,1309.785 					"/>
				</g>
				<g>
					
						<rect x="1421.64" y="1473.093" transform="matrix(-1.836970e-16 1 -1 -1.836970e-16 3143.9099 51.4522)" style="fill:#363E44;" width="249.177" height="249.177"/>
				</g>
				<path style="fill:#363E44;" d="M1482.661,894.405c3.992-18.564,14.738-28.445,19.127-32.097
					c3.562-2.963,7.524-5.049,11.68-6.312l39.418,47.375c-1.998,3.857-4.769,7.374-8.33,10.338
					c-7.602,6.325-17.179,8.664-26.252,7.323c3.473,7.921,9.73,18.319,20.778,31.596c12.452,14.965,22.47,24.348,30.265,30.235
					c0.208-9.325,4.263-18.512,11.994-24.945c3.562-2.963,7.524-5.049,11.68-6.312l39.418,47.375
					c-1.998,3.857-4.769,7.374-8.331,10.338c-1.973,1.642-13.653,15.482-29.338,15.765c-23.404,0.423-49.688-14.075-80.847-51.523
					C1488.334,942.805,1477.973,916.207,1482.661,894.405z"/>
				<g>
					<g>
						<g>
							<path style="fill:#FFFFFF;" d="M1472.733,1611.155h7.239c0.648,3.529,1.573,6.96,2.748,10.274l-6.265,3.617l12.249,21.216
								l6.279-3.625c2.304,2.698,4.817,5.211,7.515,7.515l-3.625,6.279l21.217,12.249l3.617-6.265
								c3.313,1.175,6.745,2.099,10.274,2.748v7.239h24.499v-7.239c3.529-0.648,6.96-1.573,10.273-2.748l3.617,6.265l21.216-12.249
								l-3.625-6.279c2.697-2.304,5.21-4.817,7.515-7.515l6.279,3.625l12.249-21.217l-6.265-3.617
								c1.175-3.313,2.099-6.745,2.748-10.274h7.239v-24.499h-7.239c-0.648-3.529-1.573-6.96-2.748-10.273l6.265-3.617
								l-12.249-21.216l-6.279,3.625c-2.304-2.698-4.817-5.21-7.515-7.515l3.625-6.279l-21.216-12.249l-3.617,6.265
								c-3.313-1.175-6.745-2.1-10.273-2.748v-7.239h-24.499v7.239c-3.529,0.648-6.96,1.573-10.274,2.748l-3.617-6.265
								l-21.217,12.249l3.625,6.279c-2.697,2.304-5.21,4.817-7.515,7.515l-6.279-3.625l-12.249,21.216l6.265,3.617
								c-1.175,3.313-2.099,6.745-2.748,10.273h-7.239V1611.155z M1547.558,1558.329c21.257,0.679,38.569,17.992,39.248,39.248
								c0.749,23.472-18.433,42.655-41.906,41.905c-21.256-0.679-38.569-17.991-39.247-39.248
								C1504.903,1576.762,1524.085,1557.579,1547.558,1558.329z"/>
						</g>
					</g>
				</g>
			</g>
			<g>
				<g>
					<path style="fill:#FFFFFF;" d="M1725.224,489.807v1233.508l76.201-0.091l101.124-0.114
						c30.307,1.984,62.126,19.451,90.86,47.997c22.241,22.074,42.647,50.759,59.061,84.071V741.47
						c-2.501-136.811-74.629-247.103-164.158-249.223l-102.918-2.441H1725.224z"/>
				</g>
			</g>
		</g>
		<g>
			<g>
				<path style="fill:#EFBC73;" d="M435.418,920.23c0,0,40.306-259.746,283.031-258.732l100.686,26.975L747.397,901.15
					L435.418,920.23z"/>
				<g>
					<polygon style="fill:#ff6900;" points="777.74,1092.455 460.978,1223.488 344.096,939.296 660.858,808.263 					"/>
					<path style="fill:#FFFFFF;" d="M441.996,1086.155c-0.864,0-1.685-0.51-2.037-1.359c-0.467-1.124,0.066-2.416,1.19-2.883
						l175.065-72.757c1.124-0.465,2.415,0.067,2.882,1.191c0.467,1.124-0.066,2.416-1.19,2.883l-175.065,72.757
						C442.565,1086.101,442.278,1086.155,441.996,1086.155z"/>
					<path style="fill:#FFFFFF;" d="M552.404,1072.706c-0.865,0-1.684-0.51-2.037-1.359c-0.467-1.124,0.065-2.414,1.189-2.881
						l157.908-65.701c1.124-0.474,2.415,0.062,2.883,1.188c0.467,1.124-0.065,2.414-1.189,2.881l-157.908,65.701
						C552.974,1072.652,552.686,1072.706,552.404,1072.706z"/>
					<path style="fill:#FFFFFF;" d="M453.24,1113.491c-0.868,0-1.69-0.515-2.04-1.365c-0.463-1.128,0.074-2.416,1.2-2.879
						l71.828-29.543c1.127-0.456,2.415,0.075,2.878,1.199c0.463,1.128-0.074,2.416-1.2,2.879l-71.828,29.543
						C453.803,1113.437,453.519,1113.491,453.24,1113.491z"/>
					<path style="fill:#FFFFFF;" d="M464.483,1140.827c-0.865,0-1.685-0.51-2.037-1.359c-0.467-1.124,0.065-2.414,1.19-2.883
						l166.739-69.333c1.124-0.465,2.415,0.067,2.882,1.191c0.467,1.124-0.065,2.414-1.19,2.883l-166.739,69.333
						C465.051,1140.774,464.765,1140.827,464.483,1140.827z"/>
					<path style="fill:#FFFFFF;" d="M475.725,1168.161c-0.866,0-1.686-0.512-2.038-1.361c-0.466-1.124,0.068-2.414,1.192-2.881
						l216.068-89.618c1.126-0.465,2.415,0.067,2.882,1.193c0.466,1.124-0.068,2.414-1.192,2.881l-216.068,89.618
						C476.293,1168.108,476.006,1168.161,475.725,1168.161z"/>
					<polygon style="fill:#F2E6DC;" points="685.902,952.872 429.497,1059.081 385.299,951.617 641.704,845.407 					"/>
				</g>
				<path style="fill:#BC8271;" d="M601.297,1165.771c0,0,57.258,9.956,83.887-14.573c26.629-24.529,23.427-61.766,17.311-66.849
					c-6.116-5.083-27.732,39.93-27.732,39.93s15.094-32.832,1.049-35.594c-14.044-2.762-25.028,47.219-25.028,47.219
					s9.451-37.711-5.117-37.54C631.101,1098.536,626.612,1155.36,601.297,1165.771z"/>
			</g>
			<g>
				
					<rect x="902.203" y="615.407" transform="matrix(0.866 0.5 -0.5 0.866 462.5845 -375.2143)" style="fill:#BC8271;" width="58.491" height="120.353"/>
				<g>
					<path style="fill:#BC8271;" d="M1019.909,658.308c-12.958,16.575-68.844-1.277-68.844-1.277l-43.136-47.654
						c-8.456-28.365,7.683-58.213,36.048-66.669c28.365-8.456,58.213,7.683,66.669,36.048
						C1010.645,578.756,1033.107,641.425,1019.909,658.308z"/>
					<path style="fill:#BC8271;" d="M1008.769,594.02c0,0,18.905,10.798,19.326,15.012c0.503,5.029-14.678,12.714-14.678,12.714
						S1009.163,593.943,1008.769,594.02z"/>
					<g>
						<path style="fill:#FFFFFF;" d="M961.765,605.64c0,0,7.22-7.188,17.585-10.277c2.205-0.657,3.306,18.229,0.914,17.854
							C969.751,611.567,961.765,605.64,961.765,605.64z"/>
						<path style="fill:#363E44;" d="M987.766,613.558c13.97-1.012,24.588-11.584,24.588-11.584s-12.031-8.931-26.001-7.919
							c-2.446,0.177-4.781,0.659-6.983,1.315c-2.913,5.877-2.389,12.61,0.884,17.842
							C982.649,613.589,985.174,613.746,987.766,613.558z"/>
					</g>
					<path style="fill:#363E44;" d="M1001.201,636.944c-0.909,0-1.824-0.127-2.72-0.392c-3.522-1.036-6.204-4.052-6.834-7.687
						c-0.208-1.199,0.596-2.341,1.796-2.549c1.197-0.207,2.342,0.596,2.549,1.796c0.345,1.992,1.811,3.645,3.733,4.212
						c1.996,0.583,4.169-0.06,5.538-1.658c0.794-0.922,2.187-1.029,3.109-0.235c0.924,0.795,1.028,2.188,0.235,3.111
						C1006.722,635.734,1003.996,636.944,1001.201,636.944z"/>
				</g>
				<path style="fill:#363E44;" d="M917.025,642.075c0,0-54.915-40.04-42.05-85.345c12.865-45.305,96.982-29.871,125.111-10.763
					c28.128,19.108,5.264,24.194-22.623,27.163c-27.887,2.969-48.678,11.121-36.813,38.28
					C940.65,611.41,923.406,631.022,917.025,642.075z"/>
				<path style="fill:#BC8271;" d="M945.553,614.071c0,11.348-8.525,20.548-19.042,20.548c-10.517,0-19.042-9.2-19.042-20.548
					c0-11.349,8.525-20.549,19.042-20.549C937.027,593.523,945.553,602.723,945.553,614.071z"/>
				<path style="fill:#363E44;" d="M934.69,624.161c-1.154,0-2.124-0.898-2.198-2.065c-0.127-2.013-0.83-3.525-2.147-4.618
					c-3.234-2.691-9.107-2.067-9.17-2.065c-1.193,0.155-2.305-0.717-2.451-1.927c-0.145-1.208,0.717-2.306,1.926-2.452
					c0.315-0.034,7.783-0.883,12.516,3.053c2.267,1.886,3.521,4.487,3.727,7.73c0.076,1.216-0.846,2.263-2.061,2.341
					C934.785,624.159,934.738,624.161,934.69,624.161z"/>
				<path style="fill:#363E44;" d="M891.765,552.03c0,0-33.689-175.834-104.243-132.289
					C726.946,457.127,868.129,543.211,891.765,552.03z"/>
				<path style="fill:#363E44;" d="M889.449,550.841c0,0-153.107-149.715-188.79-74.877
					C670.023,540.217,864.807,556.242,889.449,550.841z"/>
				<path style="fill:#363E44;" d="M891.988,549.607c0,0,62.669-112.823,3.515-121.362
					C844.716,420.913,882.994,533.801,891.988,549.607z"/>
				<path style="fill:#363E44;" d="M886.122,546.044c0,0-145.886-52.702-130.008,28.674
					C769.745,644.583,869.536,565.053,886.122,546.044z"/>
				<path style="fill:#363E44;" d="M874.975,555.568c0,0-51.622,31.514-29.479,48.665
					C864.507,618.96,874.989,564.091,874.975,555.568z"/>
			</g>
			<g>
				<polygon style="fill:#ff6900;" points="821.685,1993.537 940.577,1993.537 963.342,2158.896 784.313,2158.896 				"/>
				<polygon style="fill:#BC8271;" points="1310.631,1734.365 1128.323,1734.365 1271.307,1995.61 1390.67,1995.61 				"/>
				<polygon style="fill:#BC8271;" points="927.526,1734.365 765.607,1734.365 831.552,1993.537 934.043,1993.537 				"/>
				<path style="fill:#ff6900;" d="M1242.262,2158.983h343.877c0,0-60.322-157.951-195.47-163.302l-119.363-0.072L1242.262,2158.983
					z"/>
				<polygon style="fill:#363E44;" points="779.254,970.7 697.4,1777.283 938.987,1777.283 949.04,1208.286 1095.657,1777.283 
					1332.984,1777.283 1063.578,958.708 				"/>
				<g>
					<path style="fill:#9E9569;" d="M907.152,2092.058c-3.642,0-7.269-0.943-10.593-2.821l-47.703-26.942
						c-0.814-0.461-1.249-1.382-1.087-2.302c0.161-0.922,0.886-1.639,1.807-1.793l54.033-9.043
						c6.995-1.174,13.887,1.046,18.887,6.089c5.001,5.041,7.162,11.943,5.932,18.937c-1.229,6.993-5.618,12.744-12.038,15.776
						C913.423,2091.361,910.281,2092.058,907.152,2092.058z M856.452,2061.52l42.275,23.876c4.92,2.78,10.67,2.993,15.78,0.575
						c5.108-2.411,8.6-6.987,9.578-12.551c0.98-5.566-0.742-11.059-4.721-15.07c-3.978-4.011-9.454-5.786-15.028-4.845
						L856.452,2061.52z"/>
					<path style="fill:#9E9569;" d="M792.378,2071.86c-5.696,0-11.101-2.237-15.225-6.395c-5-5.043-7.161-11.946-5.932-18.937
						c1.23-6.993,5.619-12.745,12.039-15.776c6.424-3.032,13.651-2.767,19.831,0.721l47.702,26.942
						c0.814,0.461,1.249,1.382,1.087,2.302c-0.161,0.922-0.886,1.639-1.808,1.794l-54.033,9.043
						C794.814,2071.758,793.588,2071.86,792.378,2071.86z M792.495,2033.069c-2.49,0-4.989,0.553-7.351,1.669
						c-5.108,2.414-8.601,6.989-9.579,12.553c-0.979,5.566,0.742,11.056,4.721,15.07c3.978,4.009,9.453,5.777,15.028,4.844
						l47.885-8.014l-42.274-23.876C798.279,2033.82,795.392,2033.069,792.495,2033.069z"/>
				</g>
				<path style="fill:#FFFFFF;" d="M943.686,1209.078c-0.169,0-0.339-0.019-0.51-0.06l-63.948-15.156
					c-1.185-0.28-1.919-1.469-1.638-2.653c0.28-1.186,1.468-1.916,2.654-1.636l63.948,15.156c1.185,0.28,1.919,1.469,1.638,2.653
					C945.59,1208.395,944.684,1209.078,943.686,1209.078z"/>
			</g>
			<g>
				<g>
					<path style="fill:#BC8271;" d="M1170.467,818.142c0,0,80.588-93.242,126.793-139.654
						c48.525-48.743,127.266-113.641,136.203-102.509c5.091,6.341-3.819,17.412-29.598,45.421
						c2.719-0.113,10.639,1.072,14.396,7.727c5.56,9.849-0.762,17.037-1.074,17.904c0.919-0.113,10.853-1.055,15.691,4.907
						c5.449,6.716,5.079,14.21,1.927,20.222c2.289-0.209,10.812-0.124,15.293,5.744c4.609,6.036,5.039,15.683-0.634,21.215
						c-10.408,10.149-41.915,39.719-55.495,55.979c-26.723,31.996-106.37,158.357-157.216,194.392
						C1221.891,897.638,1170.467,818.142,1170.467,818.142z"/>
					<g>
						<path style="fill:#363E44;" d="M1432.604,706.792c-0.67,0-1.328-0.304-1.763-0.878l-7.398-9.808
							c-0.734-0.973-0.54-2.356,0.431-3.088c0.973-0.741,2.353-0.545,3.088,0.431l7.402,9.812c0.732,0.971,0.538,2.353-0.435,3.088
							C1433.532,706.648,1433.065,706.792,1432.604,706.792z"/>
						<path style="fill:#363E44;" d="M1414.319,683.463c-0.693,0-1.374-0.325-1.804-0.932l-8.012-11.349
							c-0.704-0.995-0.467-2.371,0.528-3.073c0.999-0.704,2.373-0.465,3.073,0.528l8.016,11.349c0.702,0.995,0.465,2.371-0.53,3.075
							C1415.202,683.332,1414.759,683.463,1414.319,683.463z"/>
						<path style="fill:#363E44;" d="M1396.793,657.643c-0.667,0-1.328-0.302-1.761-0.876c-1.374-1.817-2.601-3.466-3.828-5.116
							c-1.242-1.671-2.485-3.34-3.876-5.178c-0.734-0.971-0.543-2.356,0.428-3.09c0.971-0.739,2.351-0.543,3.09,0.429
							c1.397,1.849,2.646,3.529,3.895,5.208c1.221,1.639,2.442,3.281,3.809,5.09c0.734,0.971,0.543,2.353-0.431,3.088
							C1397.723,657.498,1397.256,657.643,1396.793,657.643z"/>
						<path style="fill:#363E44;" d="M1380.345,637.812c-0.611,0-1.221-0.254-1.658-0.751l-8.048-9.17
							c-0.803-0.915-0.711-2.308,0.204-3.111c0.911-0.799,2.304-0.715,3.111,0.205l8.048,9.17c0.803,0.915,0.71,2.308-0.205,3.111
							C1381.38,637.631,1380.862,637.812,1380.345,637.812z"/>
					</g>
				</g>
				<path style="fill:#EFBC73;" d="M982.075,731.394l153.236,58.041c17.162,6.5,36.535,2.478,49.691-10.317l79.209-77.041
					l102.187,115.987l-106.8,122.67c-36.894,42.376-95.33,58.969-148.988,42.305l-128.536-39.917V731.394z"/>
				<path style="fill:#EFBC73;" d="M718.449,661.498c0,0,105.195,3.859,350.406,104.145l71.019,364.892l-58.684,19.828
					l-19.101-85.666l-40.551,90.871c0,0-216.474-45.318-393.801-125.976c0,0,65.519-170.116,128.459-255.618L718.449,661.498z"/>
				<path style="fill:#363E44;" d="M697.398,875.545c-0.37,0-0.745-0.093-1.09-0.289c-1.058-0.605-1.427-1.951-0.824-3.008
					l46.418-81.404l-22.918-41.526c-0.589-1.066-0.201-2.407,0.865-2.997c1.068-0.586,2.409-0.198,2.996,0.865l23.516,42.609
					c0.371,0.674,0.366,1.49-0.015,2.157l-47.03,82.478C698.908,875.144,698.164,875.545,697.398,875.545z"/>
			</g>
			<g>
				<path style="fill:#9E9569;" d="M1395.004,1997.912c-0.706,0-1.387-0.34-1.807-0.939c-0.536-0.766-0.532-1.785,0.011-2.547
					l31.813-44.602c4.106-5.753,10.503-9.05,17.568-9.05c0.03,0,0.063,0,0.095,0.002c7.099,0.028,13.509,3.38,17.585,9.194
					c4.076,5.818,5.038,12.988,2.642,19.673c-2.396,6.683-7.695,11.605-14.536,13.509l-52.78,14.68
					C1395.397,1997.886,1395.199,1997.912,1395.004,1997.912z M1442.588,1945.184c-5.62,0-10.71,2.623-13.976,7.202l-28.193,39.527
					l46.775-13.011c5.443-1.511,9.657-5.43,11.565-10.746c1.906-5.32,1.141-11.026-2.104-15.653
					c-3.24-4.627-8.341-7.295-13.991-7.319C1442.64,1945.184,1442.614,1945.184,1442.588,1945.184z"/>
				<path style="fill:#9E9569;" d="M1347.229,2050.774c-0.03,0-0.062,0-0.093,0c-7.103-0.03-13.513-3.38-17.589-9.196
					c-4.074-5.816-5.036-12.983-2.642-19.667c2.396-6.686,7.693-11.612,14.536-13.515l52.78-14.68
					c0.902-0.248,1.86,0.093,2.396,0.859c0.536,0.766,0.532,1.785-0.011,2.547l-31.811,44.602
					C1360.693,2047.48,1354.294,2050.774,1347.229,2050.774z M1389.397,1999.635l-46.775,13.011
					c-5.443,1.514-9.659,5.432-11.565,10.753c-1.906,5.318-1.139,11.022,2.104,15.647c3.243,4.627,8.343,7.295,13.993,7.319
					c0.026,0,0.05,0,0.075,0c5.62,0,10.71-2.623,13.976-7.202L1389.397,1999.635z"/>
			</g>
		</g>
	</g>
</g>
</svg>
