<?xml version="1.0" encoding="utf-8"?>
<!-- Generator: Adobe Illustrator 27.5.0, SVG Export Plug-In . SVG Version: 6.00 Build 0)  -->
<svg version="1.1" xmlns="http://www.w3.org/2000/svg" xmlns:xlink="http://www.w3.org/1999/xlink" x="0px" y="0px"
	 viewBox="0 0 2500 2500" style="enable-background:new 0 0 2500 2500;" xml:space="preserve">
-
<g id="Illustration">
	<g id="Role_audition_1_">
		<circle style="fill:transparent;" cx="1250" cy="1249.606" r="914.606"/>
		<g>
			<g>
				<path style="fill:#E6D0BE;" d="M2110.16,1192.31l-151.021,3.208l148.039-35.478c-11.397-99.72-41.812-205.708-41.812-205.708
					s-57.218,3.918-125.739,14.826l-6.7,111.804l-18.287-107.588c-84.68,15.15-177.743,40.903-199.895,82.596
					c-33.637,63.309,87.989,272.925,87.989,272.925s238.519,42.907,286.573-10.293
					C2109.919,1295.783,2113.911,1246.982,2110.16,1192.31z"/>
				<path style="fill:#D3BBA3;" d="M1816.317,1304.981c-0.368,0-0.74-0.093-1.083-0.286c-1.059-0.598-1.433-1.943-0.833-3.002
					c100.655-178.044,217.901-312.239,219.074-313.574c0.803-0.913,2.195-1.003,3.11-0.2s1.005,2.195,0.2,3.11
					c-1.169,1.33-118.127,135.202-218.549,312.833C1817.832,1304.578,1817.085,1304.981,1816.317,1304.981z"/>
				<path style="fill:#D3BBA3;" d="M1830.868,1277.887c-0.826,0-1.618-0.465-1.995-1.261
					c-15.952-33.747-29.186-69.136-39.334-105.181c-9.614-34.16-16.594-69.407-20.745-104.761c-0.142-1.207,0.723-2.303,1.933-2.445
					c1.182-0.146,2.303,0.721,2.445,1.933c4.124,35.124,11.058,70.143,20.612,104.081c10.079,35.809,23.227,70.963,39.076,104.488
					c0.519,1.102,0.049,2.415-1.05,2.936C1831.503,1277.82,1831.182,1277.887,1830.868,1277.887z"/>
				<path style="fill:#D3BBA3;" d="M1881.232,1198.62c-0.956,0-1.838-0.629-2.116-1.595c-9.069-31.526-15.545-64.093-19.249-96.796
					c-3.51-30.986-4.582-62.546-3.183-93.804c0.056-1.216,1.119-2.144,2.301-2.103c1.216,0.054,2.156,1.085,2.103,2.301
					c-1.388,31.026-0.325,62.354,3.159,93.111c3.676,32.458,10.105,64.782,19.105,96.073c0.336,1.169-0.338,2.391-1.509,2.727
					C1881.641,1198.593,1881.435,1198.62,1881.232,1198.62z"/>
				<path style="fill:#D3BBA3;" d="M1964.534,1257.068c-0.028,0-0.054,0-0.08-0.002c-37.419-1.313-74.934-5.785-111.504-13.29
					c-1.192-0.245-1.961-1.41-1.715-2.602c0.245-1.19,1.403-1.95,2.602-1.715c36.329,7.455,73.597,11.897,110.772,13.204
					c1.216,0.041,2.167,1.063,2.124,2.279C1966.693,1256.132,1965.715,1257.068,1964.534,1257.068z"/>
				<path style="fill:#D3BBA3;" d="M1917.256,1146.274c-1.136,0-2.101-0.872-2.195-2.023c-0.099-1.214,0.805-2.277,2.017-2.378
					c28.67-2.348,57.512-7.203,85.723-14.431c26.731-6.846,53.304-15.929,78.98-26.991c1.111-0.478,2.415,0.03,2.895,1.151
					c0.482,1.117-0.032,2.415-1.152,2.895c-25.887,11.155-52.677,20.31-79.63,27.215c-28.452,7.287-57.54,12.186-86.455,14.556
					C1917.377,1146.272,1917.316,1146.274,1917.256,1146.274z"/>
				<path style="fill:#D3BBA3;" d="M1972.299,1070.779c-0.966,0-1.851-0.639-2.122-1.616c-0.325-1.173,0.364-2.387,1.537-2.712
					c16.824-4.653,34.016-11.052,51.096-19.015c8.689-4.053,17.465-8.566,26.087-13.413c1.065-0.594,2.406-0.219,3.002,0.842
					s0.219,2.406-0.842,3.002c-8.719,4.901-17.597,9.463-26.384,13.563c-17.302,8.067-34.724,14.549-51.785,19.269
					C1972.693,1070.753,1972.495,1070.779,1972.299,1070.779z"/>
			</g>
			<g>
				<path style="fill:#FFFFFF;" d="M2126.874,1396.758l-80.441-27.047l85.007,9.422c12.955-54.882,17.05-116.697,17.05-116.697
					s-30.992-8.819-69.288-16.094l-24.821,57.825l10.81-60.353c-47.646-8.108-101.741-12.207-121.386,5.616
					c-29.83,27.064-5.433,161.017-5.433,161.017s117.917,68.077,153.444,49.101
					C2107.053,1451.409,2118.451,1426.372,2126.874,1396.758z"/>
				<path style="fill:#D3BBA3;" d="M1710.383,1768.633c-0.276,0-0.553-0.052-0.822-0.159c-1.13-0.454-1.677-1.739-1.223-2.867
					c33.06-82.133,84.371-194.995,141.076-266.255c103.806-130.448,273.618-225.031,275.32-225.97c1.07-0.59,2.408-0.2,2.994,0.863
					c0.59,1.065,0.202,2.406-0.863,2.994c-1.696,0.936-170.755,95.111-274.003,224.859
					c-56.373,70.842-107.484,183.294-140.434,265.153C1712.081,1768.112,1711.255,1768.633,1710.383,1768.633z"/>
				<path style="fill:#D3BBA3;" d="M1963.367,1389.877c-1.123,0-2.081-0.852-2.191-1.993c-2.017-20.928-2.277-42.207-0.777-63.247
					c1.423-19.932,4.449-39.941,8.996-59.474c0.276-1.186,1.466-1.933,2.645-1.646c1.186,0.275,1.924,1.459,1.646,2.645
					c-4.494,19.31-7.485,39.089-8.893,58.79c-1.483,20.795-1.222,41.826,0.768,62.511c0.118,1.212-0.771,2.288-1.982,2.404
					C1963.51,1389.873,1963.438,1389.877,1963.367,1389.877z"/>
				<path style="fill:#D3BBA3;" d="M2005.082,1357.562c-0.049,0-0.097-0.002-0.146-0.004c-1.214-0.08-2.135-1.13-2.055-2.344
					c1.214-18.455,3.997-36.958,8.273-54.989c4.053-17.093,9.509-34.029,16.217-50.338c0.465-1.124,1.752-1.657,2.878-1.199
					c1.126,0.463,1.661,1.752,1.199,2.877c-6.62,16.094-12.005,32.808-16.006,49.675c-4.218,17.795-6.965,36.052-8.161,54.262
					C2007.202,1356.668,2006.233,1357.562,2005.082,1357.562z"/>
				<path style="fill:#D3BBA3;" d="M2095.092,1422.092c-0.161,0-0.325-0.017-0.491-0.054c-19.557-4.442-38.882-10.46-57.432-17.883
					c-19.579-7.839-38.606-17.366-56.556-28.321c-1.04-0.635-1.369-1.991-0.734-3.028c0.635-1.044,1.995-1.369,3.028-0.734
					c17.743,10.828,36.549,20.244,55.9,27.99c18.337,7.339,37.438,13.286,56.771,17.676c1.186,0.271,1.93,1.451,1.661,2.639
					C2097.007,1421.399,2096.097,1422.092,2095.092,1422.092z"/>
				<path style="fill:#D3BBA3;" d="M2110.766,1346.809c-9.603,0-19.176-0.45-28.625-1.349c-16.484-1.567-32.845-4.524-48.629-8.788
					c-1.175-0.318-1.87-1.528-1.554-2.703c0.318-1.177,1.539-1.872,2.703-1.554c15.546,4.201,31.661,7.113,47.898,8.658
					c15.382,1.459,31.108,1.717,46.735,0.762c1.255-0.056,2.262,0.85,2.335,2.064c0.075,1.216-0.85,2.26-2.064,2.335
					C2123.305,1346.618,2117.027,1346.809,2110.766,1346.809z"/>
				<path style="fill:#D3BBA3;" d="M2090.712,1307.805c-4.528,0-8.977-0.166-13.326-0.495c-1.214-0.093-2.124-1.151-2.032-2.363
					c0.093-1.214,1.179-2.12,2.363-2.032c9.728,0.734,19.981,0.628,30.469-0.325c5.363-0.489,10.836-1.201,16.269-2.116
					c1.208-0.194,2.34,0.609,2.54,1.808c0.202,1.201-0.607,2.337-1.808,2.54c-5.542,0.932-11.127,1.657-16.6,2.159
					C2102.536,1307.529,2096.56,1307.805,2090.712,1307.805z"/>
			</g>
		</g>
		<path style="opacity:0.37;fill:#FFFFFF;" d="M1720.582,604.795L355.352,1441.121c55.287,456.345,740.484,354.556,1490.844,195.034
			l-62.808-961.942L1720.582,604.795z"/>
		<g>
			<g>
				<path style="fill:#E6D0BE;" d="M1218.782,1803.229H932.51c0,0,39.717-126.584,199.544-132.112h80.098L1218.782,1803.229z"/>
				<path style="fill:#E6D0BE;" d="M1409.826,1803.229h180.334c0,0-8.189-80.199-89.926-146.255h-55.07
					C1445.164,1656.974,1405.481,1756.676,1409.826,1803.229z"/>
				<polygon style="fill:#BC8271;" points="1509.755,1554.415 1514.918,1673.655 1438.05,1676.003 1415.211,1545.844 				"/>
				<path style="fill:#BC8271;" d="M1242.29,1560.247c-0.72,3.751-30.138,110.87-30.138,110.87h-80.098l7.33-125.273
					L1242.29,1560.247z"/>
				<path style="fill:#ff6900;" d="M1492.239,1075.138c0,0,31.56,304.258,35.269,501.077h-123.675l-66.236-397.941h-16.594
					c0,0-22.848,210.886-73.168,398.445h-120.829l45.169-526.441L1492.239,1075.138z"/>
			</g>
			<g>
				<path style="fill:#363E44;" d="M1444.987,659.779c0,0-138.895-27.845-250.133,0.729l-53.985,476.469l378.351-3.703
					L1444.987,659.779z"/>
				<g>
					<g>
						<path style="fill:#BC8271;" d="M1071.807,658.724c0,0,0.002-0.006,0-0.008c-74.782-84.379-126.221-145.679-142.845-163.979
							c-1.741-1.916-4.798-5.313-9.82-8.485c-18.606-11.756-34.36-1.601-59.564-5.035c-28.598-3.897-42.495-22.282-47.962-17.338
							c-3.803,3.439-0.513,11.85,11.899,25.166c0.001,0.001,0,0.003,0,0.003c-10.594-9.034-25.495-20.658-30.469-14.789
							c-5.382,7.083,10.521,22.795,20.606,31.83c-12.207-10.936-21.97-13.099-23.928-9.136c-3.083,6.238,4.409,16.923,21.102,30.75
							l-0.001,0.001c-14.194-6.327-18.58-5.747-19.457-1.822c-1.601,7.167,12.337,18.276,26.165,26.208
							c15.566,8.93,30.737,10.455,40.325,11.189c0.003,0,0.005,0.001,0.006,0.004c46.249,64.528,77.832,104.812,112.195,158.96
							c27.063,42.645,81.518,76.429,106.924,49.716C1089.604,758.69,1073.341,679.191,1071.807,658.724z"/>
						<path style="fill:#363E44;" d="M1072.978,661.248c-0.609,0-1.214-0.252-1.651-0.743c-9.952-11.234-20.289-22.96-31.13-35.322
							c-0.803-0.915-0.71-2.307,0.204-3.11c0.91-0.801,2.303-0.712,3.11,0.205c10.836,12.358,21.169,24.075,31.117,35.305
							c0.807,0.91,0.721,2.305-0.189,3.112C1074.02,661.065,1073.499,661.248,1072.978,661.248z"/>
						<path style="fill:#BC8271;" d="M881.961,489.758c-17.537-22.54-19.085-34.386-15.424-37.051
							c6.156-4.482,29.005,8.633,58.784,38.346C913.208,491.775,894.073,489.036,881.961,489.758z"/>
						<g>
							<path style="fill:#363E44;" d="M894.667,537.808c-0.659,0-1.309-0.293-1.743-0.852c-2.925-3.771-8.09-8.835-16.094-11.562
								c-11.34-3.859-21.307-0.474-25.069,1.158c-1.119,0.486-2.417-0.028-2.899-1.143c-0.486-1.117,0.026-2.415,1.143-2.899
								c4.229-1.838,15.449-5.639,28.246-1.287c9.039,3.078,14.863,8.785,18.156,13.03c0.747,0.962,0.572,2.346-0.39,3.093
								C895.614,537.657,895.138,537.808,894.667,537.808z"/>
							<path style="fill:#363E44;" d="M876.289,485.057c-1.171,0-2.146-0.921-2.2-2.103c-0.056-1.216,0.885-2.247,2.101-2.303
								c3.375-0.155,6.601-0.446,9.722-0.725c6.805-0.611,13.236-1.186,19.671-0.217c1.203,0.183,2.032,1.306,1.851,2.509
								c-0.183,1.201-1.311,1.999-2.509,1.851c-5.91-0.895-12.087-0.342-18.619,0.247c-3.168,0.284-6.442,0.577-9.913,0.738
								C876.358,485.057,876.323,485.057,876.289,485.057z"/>
							<path style="fill:#363E44;" d="M847.628,500.947c-0.127,0-0.256-0.011-0.387-0.034c-3.555-0.631-7.068-1.595-10.438-2.867
								c-4.885-1.842-9.521-4.341-13.776-7.425c-0.986-0.715-1.205-2.092-0.491-3.078c0.712-0.983,2.092-1.21,3.078-0.491
								c3.936,2.854,8.226,5.165,12.745,6.87c3.116,1.175,6.364,2.068,9.653,2.651c1.199,0.213,1.997,1.356,1.784,2.555
								C849.606,500.196,848.676,500.947,847.628,500.947z"/>
							<path style="fill:#363E44;" d="M836.234,516.516c-0.127,0-0.256-0.011-0.387-0.034c-3.56-0.631-7.072-1.597-10.438-2.867
								c-4.886-1.842-9.521-4.341-13.776-7.425c-0.986-0.714-1.205-2.092-0.491-3.078c0.712-0.984,2.092-1.21,3.078-0.491
								c3.936,2.854,8.226,5.165,12.745,6.87c3.112,1.175,6.36,2.066,9.653,2.652c1.199,0.213,1.997,1.356,1.784,2.555
								C838.212,515.765,837.282,516.516,836.234,516.516z"/>
							<path style="fill:#363E44;" d="M834.549,539.926c-0.127,0-0.256-0.011-0.387-0.034c-3.553-0.631-7.066-1.595-10.436-2.865
								c-4.888-1.842-9.523-4.341-13.779-7.427c-0.986-0.714-1.205-2.092-0.491-3.078c0.71-0.986,2.092-1.209,3.078-0.491
								c3.936,2.856,8.226,5.167,12.745,6.872c3.119,1.175,6.366,2.066,9.653,2.649c1.199,0.213,1.997,1.356,1.784,2.555
								C836.527,539.175,835.597,539.926,834.549,539.926z"/>
						</g>
					</g>
					<polygon style="fill:#BC8271;" points="1161.376,661.948 1041.855,655.146 1053.46,776.657 1134.594,781.46 					"/>
				</g>
				<polygon style="fill:#40484C;" points="1461.27,763.647 1162.426,946.716 1140.869,1136.977 1519.219,1133.273 				"/>
				<path style="fill:#EFBC73;" d="M1278.463,646.724l-38.259,330.092h-95.564l22.412-166.577c0,0-182.618,17.325-250.938-154.576
					l95.868-70.524c0,0,49.587,50.689,73.83,60.606C1161.039,676.521,1219.841,647.772,1278.463,646.724z"/>
				<path style="fill:#FFD092;" d="M1371.145,647.816c-1.135,3.293,65.323,329,65.323,329h96.735l-7.457-51.503
					c0,0,28.18,16.813,67.559-5.697c39.38-22.51,24.431-141.145-40.579-206.144C1479.802,640.56,1371.145,647.816,1371.145,647.816z
					"/>
				<g>
					<path style="fill:#BC8271;" d="M1386.163,789.666c22.147,3.721,47.089-0.223,67.352-9.108
						c8.116-3.559,15.896-8.258,23.259-13.268c-4.055-9.033-7.095-15.738-8.606-18.944c-1.024-2.171-2.812-6.012-6.403-10.186
						c-13.303-15.469-30.024-10.742-51.434-20.623c-24.294-11.214-31.624-31.281-37.812-28.382
						c-4.303,2.017-3.669,10.365,3.72,25.537l-0.002,0.001c-6.94-10.881-16.994-25.227-22.997-21.375
						c-6.693,4.819,3.141,23.061,9.63,33.806c-7.854-13.006-15.921-17.572-18.733-14.591c-4.425,4.693-0.683,16.197,10.363,32.983
						l-0.001,0.001c-10.865-9.46-14.911-10.135-16.754-6.893c-3.364,5.919,5.978,19.548,16.083,30.331
						C1365.038,780.918,1377.85,786.397,1386.163,789.666z"/>
					<path style="fill:#BC8271;" d="M1436.676,731.308c-1.307-26.443,3.825-36.257,8.021-36.331
						c7.058-0.124,17.415,21.994,24.194,60.399C1459.315,749.475,1446.252,737.208,1436.676,731.308z"/>
					<g>
						<path style="fill:#363E44;" d="M1394.978,732.033c-0.338,0-0.68-0.078-1.001-0.241c-2.998-1.535-5.858-3.347-8.499-5.389
							c-3.848-2.97-7.292-6.455-10.229-10.352c-0.732-0.971-0.538-2.352,0.435-3.086s2.354-0.534,3.086,0.435
							c2.701,3.581,5.865,6.784,9.403,9.515c2.428,1.879,5.056,3.542,7.81,4.952c1.085,0.555,1.513,1.883,0.96,2.966
							C1396.553,731.594,1395.778,732.033,1394.978,732.033z"/>
						<path style="fill:#363E44;" d="M1380.655,742.742c-0.338,0-0.68-0.078-1.001-0.241c-2.992-1.528-5.852-3.342-8.501-5.389
							c-3.842-2.966-7.283-6.448-10.227-10.35c-0.734-0.973-0.54-2.354,0.43-3.086c0.973-0.738,2.354-0.542,3.086,0.43
							c2.71,3.59,5.873,6.79,9.405,9.517c2.434,1.881,5.062,3.547,7.813,4.952c1.085,0.553,1.513,1.881,0.96,2.966
							C1382.23,742.303,1381.457,742.742,1380.655,742.742z"/>
						<path style="fill:#363E44;" d="M1372.81,763.038c-0.338,0-0.68-0.078-1.001-0.241c-2.992-1.528-5.852-3.342-8.501-5.389
							c-3.842-2.966-7.283-6.448-10.227-10.35c-0.734-0.973-0.54-2.355,0.43-3.086c0.973-0.738,2.352-0.542,3.086,0.43
							c2.71,3.59,5.873,6.79,9.405,9.517c2.434,1.881,5.062,3.547,7.813,4.952c1.085,0.553,1.513,1.881,0.96,2.966
							C1374.385,762.599,1373.613,763.038,1372.81,763.038z"/>
					</g>
					<path style="fill:#BC8271;" d="M1559.626,831.12l-115.565-105.672l-64.901,55.239l110.5,124.41
						c20.495,20.048,53.493,19.231,72.97-1.806l0,0C1581.819,882.565,1580.471,850.18,1559.626,831.12z"/>
				</g>
				<polygon style="fill:#FFD092;" points="1249.903,892.883 1147.457,955.519 1144.64,976.327 1240.204,976.327 				"/>
			</g>
			<g>
				<path style="fill:#363E44;" d="M1292.852,506.672c0,0-27.847,21.504-2.753,41.362l23.71-20.584L1292.852,506.672z"/>
				<path style="fill:#BC8271;" d="M1319.074,680.476L1319.074,680.476c11.972-0.391,21.361-10.412,20.97-22.385l-1.835-52.196
					c-0.391-11.972-10.412-21.36-22.385-20.97h0c-11.972,0.391-21.36,10.412-20.97,22.384l1.835,52.196
					C1297.08,671.478,1307.102,680.866,1319.074,680.476z"/>
				<path style="fill:#BC8271;" d="M1327.976,531.931c-1.849-0.71-19.661-7.238-34.082,2.19c-10.731,7.015-15,18.645-19.213,39.236
					c-4.96,24.248-4.538,39.435,1.015,46.027c8.773,10.414,45.8,2.778,63.741-14.632c12.951-12.567,17.286-32.165,12.081-49.576
					C1346.328,537.813,1329.156,532.384,1327.976,531.931z"/>
				<g>
					<path style="fill:#FFFFFF;" d="M1276.04,551.79c-0.023,0.163-0.157,0.264-0.18,0.427c-0.001,0.007,0.001,0.013,0.001,0.013
						c-1.018,2.086-2.096,4.276-3.475,6.134c-0.611,0.822-1.367,1.178-2.031,1.888c-0.487,0.521-0.951,1.021-1.451,1.514
						c-3.823-6.651-3.988-13.906-3.988-13.906S1270.511,548.623,1276.04,551.79z"/>
					<g>
						<defs>
							<path id="SVGID_1_" d="M1264.916,547.86c0,0,0.235,10.534,6.826,17.853c6.592,7.319,17.044,8.651,17.044,8.651
								s-0.235-10.534-6.826-17.853C1275.368,549.192,1264.916,547.86,1264.916,547.86z"/>
						</defs>
						<clipPath id="SVGID_00000067202957137672639620000011273154820259088554_">
							<use xlink:href="#SVGID_1_"  style="overflow:visible;"/>
						</clipPath>
						<path style="clip-path:url(#SVGID_00000067202957137672639620000011273154820259088554_);fill:#363E44;" d="M1269.292,559.925
							c-1.895,6.857,2.127,13.952,8.984,15.847c6.857,1.895,13.951-2.128,15.846-8.984c1.895-6.857-2.127-13.951-8.984-15.846
							C1278.282,549.046,1271.187,553.069,1269.292,559.925z"/>
					</g>
				</g>
				<g>
					<path style="fill:#FFFFFF;" d="M1313.662,578.247c-0.682,2.649-1.687,4.524-3.697,6.205
						c-6.168-2.109-10.413-5.934-10.413-5.934s6.675-5.365,15.092-6.334C1314.83,574.189,1314.146,576.367,1313.662,578.247z"/>
					<g>
						<defs>
							<path id="SVGID_00000093169630196418701560000005479592452967261327_" d="M1335.21,579.344c0,0-7.823-7.058-17.67-7.286
								c-9.847-0.228-17.989,6.46-17.989,6.46s7.823,7.058,17.67,7.286C1327.069,586.032,1335.21,579.344,1335.21,579.344z"/>
						</defs>
						<clipPath id="SVGID_00000087372211826413442940000003230453260960680840_">
							<use xlink:href="#SVGID_00000093169630196418701560000005479592452967261327_"  style="overflow:visible;"/>
						</clipPath>
						<path style="clip-path:url(#SVGID_00000087372211826413442940000003230453260960680840_);fill:#363E44;" d="M1333.775,575.513
							c-3.687-6.084-11.608-8.027-17.692-4.34c-6.084,3.687-8.027,11.608-4.34,17.692c3.687,6.084,11.608,8.027,17.692,4.34
							C1335.518,589.517,1337.461,581.596,1333.775,575.513z"/>
					</g>
				</g>
				<path style="fill:#363E44;" d="M1366.714,529.702c2.736,0.526-4.833,8.469,3.762,16.932
					c18.781,18.492-0.093,36.682-0.093,36.682s4.607,23.873-31.758,34.429c-1.578-8.204-3.9-28.585-1.578-36.609
					c2.304-7.965,0.058-16.166,4.057-22.877c-6.12-15.433-50.461-21.529-50.977-22.508c-1.523-2.891,23.706-20.698,36.237-28.852
					c7.07-4.601-7.644,3.748,2.998,6.264C1348.296,517.638,1366.329,523.797,1366.714,529.702z"/>
				<g>
					<path style="fill:#BC8271;" d="M1334.02,585.778c-5.184,6.016-5.265,14.445-0.18,18.827c5.085,4.382,13.41,3.057,18.594-2.959
						c5.184-6.016,5.265-14.445,0.18-18.827C1347.529,578.437,1339.204,579.762,1334.02,585.778z"/>
					<path style="fill:#363E44;" d="M1346.852,600.982c-0.635,0-1.266-0.273-1.7-0.801c-0.777-0.938-0.644-2.327,0.295-3.101
						c0.278-0.23,0.542-0.488,0.788-0.773c0.938-1.087,1.459-2.393,1.47-3.68c0.011-1.147-0.396-2.135-1.145-2.781
						c-0.37-0.318-0.807-0.542-1.298-0.667c-1.179-0.299-1.894-1.498-1.597-2.677c0.297-1.182,1.494-1.894,2.677-1.597
						c1.162,0.295,2.204,0.833,3.095,1.603c1.748,1.507,2.699,3.695,2.675,6.162c-0.021,2.327-0.923,4.64-2.535,6.513
						c-0.398,0.463-0.844,0.898-1.324,1.294C1347.842,600.816,1347.345,600.982,1346.852,600.982z"/>
				</g>
				<path style="fill:#363E44;" d="M1283.695,588.663c-0.928,0-1.788-0.588-2.094-1.515c-0.622-1.894-0.579-3.592,0.129-5.047
					c0.805-1.651,2.157-2.335,3.347-2.94c0.695-0.351,1.416-0.717,2.141-1.317c0.917-0.758,1.677-1.76,2.262-2.983
					c0.525-1.1,1.844-1.565,2.94-1.037c1.098,0.527,1.563,1.842,1.037,2.94c-0.865,1.804-2.019,3.31-3.431,4.477
					c-1.104,0.915-2.133,1.435-2.957,1.853c-0.885,0.45-1.233,0.646-1.375,0.938c-0.237,0.484-0.08,1.212,0.095,1.739
					c0.379,1.158-0.25,2.402-1.405,2.783C1284.156,588.628,1283.923,588.663,1283.695,588.663z"/>
				<path style="fill:#363E44;" d="M1289.28,602.4c-3.252,0-5.54-1.627-6.401-2.354c-0.93-0.786-1.046-2.176-0.26-3.106
					c0.788-0.932,2.178-1.05,3.106-0.26c0.394,0.334,1.859,1.446,3.839,1.304c2.178-0.112,3.532-1.504,3.896-1.926
					c0.792-0.928,2.184-1.029,3.106-0.239c0.925,0.792,1.033,2.182,0.239,3.106c-0.65,0.762-3.082,3.258-7.01,3.463
					C1289.62,602.396,1289.448,602.4,1289.28,602.4z"/>
				<path style="fill:#363E44;" d="M1287.802,626.221c-1.214,0-2.202-0.984-2.204-2.197c-0.002-1.218,0.981-2.208,2.197-2.21
					c25.928-0.067,34.752-8.59,34.838-8.676c0.861-0.861,2.255-0.861,3.116,0c0.861,0.861,0.861,2.255,0,3.116
					c-0.405,0.405-10.214,9.896-37.941,9.967C1287.806,626.221,1287.804,626.221,1287.802,626.221z"/>
				<path style="fill:#363E44;" d="M1372.987,546.972l-33.775,17.506c0,0,0.885-17.886-20.282-21.14
					c-66.86-10.278-61.456-37.606-30.051-63.115c0,0-0.261,11.431,23.24,17.118C1328.197,501.232,1394.201,504.027,1372.987,546.972
					z"/>
				<path style="fill:#BC8271;" d="M1341.103,560.462c-0.895,0-1.737-0.549-2.066-1.438c-0.424-1.143,0.159-2.411,1.3-2.832
					l24.365-9.02c1.149-0.426,2.408,0.159,2.832,1.3c0.424,1.143-0.159,2.411-1.3,2.832l-24.365,9.02
					C1341.616,560.419,1341.357,560.462,1341.103,560.462z"/>
			</g>
		</g>
		<g>
			<path style="fill:#D3BBA3;" d="M989.943,1879.913v246.818c61.708,18.262,126.238,30.869,192.638,35.277h134.836
				c233.368-17.631,442.439-121.213,594.499-282.095H989.943z"/>
			<path style="fill:#FFFFFF;" d="M2082.651,1633.08H868.73v251.241h1041.701C1980.985,1811.593,2039.458,1725.642,2082.651,1633.08
				z"/>
			<g>
				<g>
					<g>
						<rect x="1356.226" y="1284.345" style="fill:#EFBC73;" width="599.491" height="454.389"/>
						
							<rect x="1465.804" y="1212.384" transform="matrix(-1.836970e-16 1 -1 -1.836970e-16 3149.2922 -162.6503)" style="fill:#F2E6DC;" width="380.335" height="561.875"/>
						<path style="fill:#FFD092;" d="M1667.256,1708.879c0,6.232-5.052,11.284-11.284,11.284c-6.232,0-11.285-5.052-11.285-11.284
							c0-6.232,5.052-11.285,11.285-11.285C1662.204,1697.594,1667.256,1702.646,1667.256,1708.879z"/>
					</g>
					<path style="fill:#EFBC73;" d="M1955.717,1751.053L1955.717,1751.053c0,26.008-21.083,47.091-47.091,47.091h-628.377
						c-26.007,0-47.091-21.083-47.091-47.091l0,0H1955.717z"/>
					<path style="fill:#F2E6DC;" d="M1797.92,1795.469c-1.218,0-2.204-0.986-2.204-2.204s0.986-2.204,2.204-2.204
						c19.37,0,35.128-15.759,35.128-35.129c0-1.218,0.986-2.204,2.204-2.204c1.218,0,2.204,0.986,2.204,2.204
						C1837.456,1777.733,1819.72,1795.469,1797.92,1795.469z"/>
					<path style="fill:#F2E6DC;" d="M1578.176,1762.183c0,11.051-8.959,20.01-20.01,20.01h-70.446
						c-11.051,0-20.01-8.959-20.01-20.01H1578.176z"/>
				</g>
			</g>
		</g>
		<g>
			<g>
				<g>
					<path style="fill:#84524D;" d="M945.619,1105.655c-17.546-36.894-31.026-56.852-54.545-65.087
						c-31.609-11.068-62.179,9.553-65.338,11.754c-2.017,1.405-31.891,19.654-33.594,54.839
						c-1.225,25.341,7.367,50.51,23.531,69.232c11.154,12.919,12.927,31.463,4.202,46.131l-54.883,92.264
						c2.498,24.547,24.422,42.421,48.968,39.923l5.56-0.566c24.547-2.498,73.549-21.376,71.051-45.923l43.153-98.193
						c15.439-2.888,27.299-8.654,31.434-17.044C972.565,1177.96,966.282,1149.101,945.619,1105.655z"/>
					<path style="fill:#363E44;" d="M934.304,1210.953c-0.131,0-0.263-0.011-0.396-0.037l-18.963-3.45
						c-1.199-0.217-1.993-1.365-1.773-2.561c0.215-1.199,1.365-1.999,2.561-1.773l18.963,3.45c1.199,0.217,1.993,1.365,1.773,2.561
						C936.278,1210.208,935.348,1210.953,934.304,1210.953z"/>
					<path style="fill:#363E44;" d="M903.121,1157.636c-0.523,0-1.046-0.185-1.468-0.56c-2.365-2.111-4.485-4.07-6.687-6.106
						c-1.797-1.661-3.65-3.377-5.742-5.267c-0.902-0.818-0.973-2.21-0.157-3.114c0.82-0.9,2.212-0.973,3.114-0.157
						c2.105,1.905,3.969,3.629,5.779,5.301c2.182,2.019,4.281,3.962,6.629,6.054c0.908,0.809,0.988,2.202,0.177,3.112
						C904.33,1157.386,903.726,1157.636,903.121,1157.636z"/>
					<path style="fill:#363E44;" d="M746.079,1128.795c-6.458-19.435,4.062-40.425,23.498-46.884c0.03-0.01,0.06-0.018,0.091-0.028
						c-3.049-3.261-5.48-7.192-6.98-11.705c-5.562-16.737,3.497-34.815,20.235-40.376c3.497-1.162,7.048-1.651,10.534-1.6
						c135.994-57.265,139.541,19.681,139.057,19.817c7.504,30.281-22.695,43.974-24.405,45.04
						c7.95,12.398,15.899,24.798,23.847,37.197c-4.694,3.153-10.196,7.265-14.891,10.418c-7.621-13.268-15.025-16.971-23.426-15.798
						c-13.229,1.848-21.209,17.08-18.393,29.709c2.571,11.528,10.381,21.935,23.081,24.736
						c-12.575,4.395-25.862,8.629-39.847,12.581c-7.295,2.062-14.464,3.956-21.489,5.698c-5.063-1.382-37.799-10.915-54.255-43.446
						C766.649,1154.797,751.41,1144.84,746.079,1128.795z"/>
				</g>
				<g>
					
						<ellipse transform="matrix(0.7071 -0.7071 0.7071 0.7071 -543.5269 762.954)" style="fill:#363E44;" cx="649.204" cy="1037.572" rx="174.624" ry="174.624"/>
					<path style="fill:#363E44;" d="M665.628,1175.809c-91.026,0-165.079-74.053-165.079-165.079S574.602,845.65,665.628,845.65
						c91.026,0,165.079,74.054,165.079,165.079S756.654,1175.809,665.628,1175.809z M665.628,850.058
						c-88.594,0-160.672,72.078-160.672,160.672s72.078,160.672,160.672,160.672c88.594,0,160.672-72.078,160.672-160.672
						S754.222,850.058,665.628,850.058z"/>
				</g>
				<path style="fill:#EFBC73;" d="M899.724,1235.37c-3.641,0-7.294-0.618-10.832-1.857c-8.23-2.886-14.844-8.807-18.623-16.667
					c-3.779-7.862-4.272-16.723-1.386-24.955c2.886-8.23,8.807-14.844,16.667-18.623c7.864-3.779,16.725-4.272,24.955-1.384
					c8.23,2.886,14.844,8.805,18.623,16.665l0,0c3.779,7.862,4.27,16.723,1.384,24.955c-2.886,8.23-8.805,14.846-16.665,18.625
					C909.364,1234.283,904.556,1235.37,899.724,1235.37z M899.677,1174.436c-4.18,0-8.34,0.94-12.216,2.804
					c-6.801,3.269-11.921,8.99-14.418,16.109c-2.497,7.12-2.07,14.786,1.199,21.585c3.269,6.801,8.99,11.921,16.109,14.418
					c7.115,2.499,14.784,2.07,21.585-1.197c14.039-6.749,19.968-23.659,13.219-37.696l0,0c-3.269-6.801-8.99-11.921-16.109-14.418
					C905.987,1174.97,902.826,1174.436,899.677,1174.436z"/>
			</g>
			<g>
				<g>
					<path style="fill:#84524D;" d="M1255.355,1422.091c0,0,95.052-141.747,150.738-213.33
						c58.482-75.177,155.773-177.655,169.934-163.86c8.066,7.858-2.314,24.577-33.026,67.421c3.719-0.614,14.804-0.319,21.09,8.195
						c9.302,12.601,1.824,23.546,1.542,24.79c1.244-0.31,14.74-3.28,22.395,4.1c8.623,8.313,9.377,18.675,6.057,27.47
						c3.111-0.674,14.841-1.993,21.989,5.317c7.352,7.519,9.57,20.707,2.704,29.268c-12.595,15.705-50.918,61.66-66.843,86.298
						c-31.337,48.483-119.514,235.595-183.327,293.696C1339.438,1522.691,1255.355,1422.091,1255.355,1422.091z"/>
					<g>
						<path style="fill:#363E44;" d="M1596.522,1224.023c-0.577,0-1.151-0.226-1.584-0.672l-11.827-12.233
							c-0.846-0.876-0.822-2.271,0.052-3.116c0.878-0.844,2.273-0.822,3.116,0.052l11.826,12.233
							c0.846,0.876,0.822,2.271-0.052,3.117C1597.626,1223.817,1597.073,1224.023,1596.522,1224.023z"/>
						<path style="fill:#363E44;" d="M1567.456,1195.039c-0.6,0-1.197-0.243-1.631-0.723l-12.928-14.248
							c-0.818-0.902-0.751-2.294,0.151-3.112c0.9-0.818,2.294-0.753,3.112,0.151l12.928,14.248c0.818,0.902,0.751,2.294-0.151,3.112
							C1568.515,1194.85,1567.986,1195.039,1567.456,1195.039z"/>
						<path style="fill:#363E44;" d="M1539.015,1162.502c-0.575,0-1.151-0.224-1.582-0.669c-2.215-2.286-4.195-4.363-6.177-6.439
							c-1.974-2.07-3.947-4.139-6.151-6.414c-0.848-0.876-0.827-2.271,0.047-3.116c0.872-0.846,2.271-0.826,3.116,0.047
							c2.215,2.286,4.195,4.363,6.177,6.439c1.974,2.07,3.947,4.139,6.151,6.414c0.848,0.876,0.826,2.271-0.047,3.116
							C1540.121,1162.295,1539.568,1162.502,1539.015,1162.502z"/>
						<path style="fill:#363E44;" d="M1513.066,1138.016c-0.523,0-1.046-0.185-1.466-0.56l-12.61-11.245
							c-0.908-0.809-0.988-2.204-0.177-3.112c0.811-0.906,2.202-0.986,3.112-0.177l12.606,11.245c0.91,0.809,0.99,2.202,0.179,3.11
							C1514.275,1137.766,1513.67,1138.016,1513.066,1138.016z"/>
					</g>
				</g>
				<g>
					<g>
						<path style="fill:#D87355;" d="M1325.964,1308.345l-113.035,131.878c0,0-134.927-76.497-407.117-160.222
							c-204.393-62.87-342.63,184.034-398.813,310.935c134.387,426.474,617.924,613.813,890.75,567.068l-296.918-345.531
							l61.552-182.854c0,0,222.159,82.998,334.207-57.024l98.951-117.487L1325.964,1308.345z"/>
					</g>
					<path style="fill:#363E44;" d="M1104.76,1640.854c-0.2,0-0.402-0.026-0.605-0.084c-80.7-22.949-102.164-45.375-103.037-46.318
						c-0.826-0.893-0.775-2.288,0.118-3.114c0.889-0.826,2.286-0.773,3.11,0.114c0.25,0.263,21.901,22.581,101.014,45.078
						c1.171,0.334,1.851,1.552,1.517,2.723C1106.602,1640.221,1105.72,1640.854,1104.76,1640.854z"/>
					<path style="fill:#363E44;" d="M480.697,1633.568c-0.155,0-0.312-0.015-0.471-0.049c-1.188-0.26-1.943-1.433-1.685-2.624
						c28.179-129.574,88.213-191.608,88.816-192.219c0.852-0.865,2.247-0.878,3.116-0.021c0.865,0.854,0.876,2.249,0.021,3.116
						c-0.594,0.603-59.761,61.835-87.645,190.062C482.623,1632.865,481.71,1633.568,480.697,1633.568z"/>
				</g>
			</g>
		</g>
		<g>
			<path style="fill:#363E44;" d="M1777.518,713.498l-85.473-100.886l125.928-106.689c0.889-0.753,2.22-0.643,2.973,0.246
				l82.446,97.313c0.919,1.084,0.784,2.708-0.3,3.627L1777.518,713.498z"/>
			<path style="fill:#FFFFFF;" d="M1746.644,656.383c24.462,28.985,39.644,56.405,33.909,61.246
				c-5.735,4.84-30.215-14.733-54.677-43.718s-39.644-56.405-33.909-61.246C1697.702,607.826,1722.182,627.399,1746.644,656.383z"/>
			<path style="fill:#363E44;" d="M1873.091,545.823c24.462,28.985,36.642,55.781,30.907,60.621
				c-5.735,4.84-27.213-14.108-51.676-43.093s-39.184-53.169-33.449-58.009C1824.609,500.501,1848.629,516.838,1873.091,545.823z"/>
			<path style="fill:#363E44;" d="M1796.56,471.64c-1.201,0-2.185-0.962-2.204-2.167l-2.204-132.232
				c-0.019-1.216,0.949-2.219,2.167-2.241c0.013,0,0.026,0,0.036,0c1.201,0,2.185,0.962,2.204,2.167l2.204,132.232
				c0.019,1.216-0.949,2.219-2.167,2.24C1796.583,471.64,1796.571,471.64,1796.56,471.64z"/>
			<path style="fill:#363E44;" d="M1765.706,579.63c-0.923,0-1.782-0.583-2.09-1.506l-33.992-101.976l137.077-4.569l17.978,96.63
				c0.222,1.197-0.568,2.346-1.765,2.57c-1.188,0.217-2.346-0.566-2.57-1.765l-17.285-92.903l-127.387,4.246l32.124,96.372
				c0.385,1.156-0.239,2.404-1.392,2.787C1766.171,579.593,1765.936,579.63,1765.706,579.63z"/>
		</g>
		<g>
			<path style="fill:#ff6900;" d="M714.343,775.886H401.878c-1.218,0-2.204-0.986-2.204-2.204c0-1.218,0.986-2.204,2.204-2.204
				h312.465c1.218,0,2.204,0.986,2.204,2.204C716.547,774.901,715.562,775.886,714.343,775.886z"/>
			<path style="fill:#ff6900;" d="M894.176,715.943H619.329c-1.218,0-2.204-0.986-2.204-2.204c0-1.218,0.986-2.204,2.204-2.204
				h274.847c1.218,0,2.204,0.986,2.204,2.204C896.38,714.957,895.394,715.943,894.176,715.943z"/>
			<path style="fill:#ff6900;" d="M559.386,715.943H401.878c-1.218,0-2.204-0.986-2.204-2.204c0-1.218,0.986-2.204,2.204-2.204
				h157.508c1.218,0,2.204,0.986,2.204,2.204C561.59,714.957,560.604,715.943,559.386,715.943z"/>
			<path style="fill:#ff6900;" d="M696.09,655.999H401.878c-1.218,0-2.204-0.986-2.204-2.204c0-1.218,0.986-2.204,2.204-2.204
				H696.09c1.218,0,2.204,0.986,2.204,2.204C698.294,655.013,697.308,655.999,696.09,655.999z"/>
			<path style="fill:#ff6900;" d="M804.261,596.056H401.878c-1.218,0-2.204-0.986-2.204-2.204c0-1.218,0.986-2.204,2.204-2.204
				h402.383c1.218,0,2.204,0.986,2.204,2.204C806.465,595.07,805.479,596.056,804.261,596.056z"/>
		</g>
	</g>
</g>
</svg>
