<?xml version="1.0" encoding="utf-8"?>
<!-- Generator: Adobe Illustrator 27.5.0, SVG Export Plug-In . SVG Version: 6.00 Build 0)  -->
<svg version="1.1" xmlns="http://www.w3.org/2000/svg" xmlns:xlink="http://www.w3.org/1999/xlink" x="0px" y="0px"
	 viewBox="0 0 2500 2500" style="enable-background:new 0 0 2500 2500;" xml:space="preserve">
-
<g id="Illustration">
	<g id="Student_activism_1_">
		<circle style="fill:transparent;" cx="1250.011" cy="1250" r="915"/>
		<g>
			<rect x="579.752" y="1038.654" style="fill:#E6D0BE;" width="1380.02" height="187.585"/>
			<rect x="708.02" y="819.169" style="fill:#D3BBA3;" width="1124.714" height="408.125"/>
			<rect x="707.435" y="1026.851" style="fill:#F2E6DC;" width="1128.095" height="11.803"/>
			<rect x="696.575" y="800.342" style="fill:#FFFFFF;" width="1149.815" height="40.663"/>
			<path style="fill:#F2E6DC;" d="M1842.77,824.029H692.955c-1.218,0-2.205-0.986-2.205-2.205c0-1.219,0.987-2.205,2.205-2.205
				H1842.77c1.218,0,2.205,0.986,2.205,2.205C1844.974,823.043,1843.987,824.029,1842.77,824.029z"/>
			<rect x="1010.43" y="733.119" style="fill:#E6D0BE;" width="519.893" height="494.174"/>
			<polygon style="fill:#D3BBA3;" points="1570.427,743.126 970.326,743.126 1270.377,621.187 			"/>
			<path style="fill:#F2E6DC;" d="M1477.858,726.521h-414.964c-1.055,0-1.962-0.747-2.164-1.783
				c-0.202-1.034,0.356-2.067,1.334-2.465l207.482-84.319c0.532-0.215,1.128-0.215,1.66,0l207.481,84.319
				c0.978,0.398,1.536,1.432,1.334,2.465C1479.82,725.774,1478.913,726.521,1477.858,726.521z M1074.176,722.112h392.401
				l-196.2-79.735L1074.176,722.112z"/>
			<path style="fill:#F2E6DC;" d="M1478.137,1218.5h-418.671c-1.218,0-2.205-0.986-2.205-2.205c0-1.219,0.987-2.205,2.205-2.205
				h418.671c1.218,0,2.205,0.986,2.205,2.205C1480.342,1217.514,1479.354,1218.5,1478.137,1218.5z"/>
			<path style="fill:#F2E6DC;" d="M1478.137,1204.02h-418.671c-1.218,0-2.205-0.986-2.205-2.205c0-1.219,0.987-2.205,2.205-2.205
				h418.671c1.218,0,2.205,0.986,2.205,2.205C1480.342,1203.034,1479.354,1204.02,1478.137,1204.02z"/>
			<path style="fill:#F2E6DC;" d="M1478.137,1189.54h-418.671c-1.218,0-2.205-0.986-2.205-2.205c0-1.219,0.987-2.205,2.205-2.205
				h418.671c1.218,0,2.205,0.986,2.205,2.205C1480.342,1188.554,1479.354,1189.54,1478.137,1189.54z"/>
			<rect x="1167.308" y="1061.291" style="fill:#D3BBA3;" width="204.661" height="112.967"/>
			<g>
				<g>
					<rect x="1042.115" y="993.174" style="fill:#FFFFFF;" width="29.778" height="232.24"/>
					<rect x="1034.994" y="983.826" style="fill:#FFFFFF;" width="44.039" height="9.348"/>
					<rect x="1034.994" y="1221.565" style="fill:#FFFFFF;" width="44.039" height="9.348"/>
				</g>
				<g>
					<rect x="1148.647" y="993.174" style="fill:#FFFFFF;" width="29.778" height="232.24"/>
					<rect x="1141.527" y="983.826" style="fill:#FFFFFF;" width="44.039" height="9.348"/>
					<rect x="1141.527" y="1221.565" style="fill:#FFFFFF;" width="44.039" height="9.348"/>
				</g>
				<g>
					<rect x="1255.18" y="993.174" style="fill:#FFFFFF;" width="29.778" height="232.24"/>
					<rect x="1248.059" y="983.826" style="fill:#FFFFFF;" width="44.039" height="9.348"/>
					<rect x="1248.059" y="1221.565" style="fill:#FFFFFF;" width="44.039" height="9.348"/>
				</g>
				<g>
					<rect x="1361.713" y="993.174" style="fill:#FFFFFF;" width="29.778" height="232.24"/>
					<rect x="1354.592" y="983.826" style="fill:#FFFFFF;" width="44.039" height="9.348"/>
					<rect x="1354.592" y="1221.565" style="fill:#FFFFFF;" width="44.039" height="9.348"/>
				</g>
				<g>
					<rect x="1468.245" y="993.174" style="fill:#FFFFFF;" width="29.778" height="232.24"/>
					<rect x="1461.125" y="983.826" style="fill:#FFFFFF;" width="44.039" height="9.348"/>
					<rect x="1461.125" y="1221.565" style="fill:#FFFFFF;" width="44.039" height="9.348"/>
				</g>
			</g>
			<rect x="1008.365" y="953.265" style="fill:#F2E6DC;" width="528.248" height="30.561"/>
			<g>
				<rect x="1052.746" y="774.479" style="fill:#D3BBA3;" width="32.818" height="66.895"/>
				<rect x="1052.746" y="861.292" style="fill:#D3BBA3;" width="32.818" height="66.895"/>
				<rect x="1110.027" y="774.479" style="fill:#D3BBA3;" width="32.818" height="66.895"/>
				<rect x="1110.027" y="861.292" style="fill:#D3BBA3;" width="32.818" height="66.895"/>
				<rect x="1167.308" y="774.479" style="fill:#D3BBA3;" width="32.818" height="66.895"/>
				<rect x="1167.308" y="861.292" style="fill:#D3BBA3;" width="32.818" height="66.895"/>
				<rect x="1224.589" y="774.479" style="fill:#D3BBA3;" width="32.818" height="66.895"/>
				<rect x="1224.589" y="861.292" style="fill:#D3BBA3;" width="32.818" height="66.895"/>
				<rect x="1281.87" y="774.479" style="fill:#D3BBA3;" width="32.818" height="66.895"/>
				<rect x="1281.87" y="861.292" style="fill:#D3BBA3;" width="32.818" height="66.895"/>
				<rect x="1339.151" y="774.479" style="fill:#D3BBA3;" width="32.818" height="66.895"/>
				<rect x="1339.151" y="861.292" style="fill:#D3BBA3;" width="32.818" height="66.895"/>
				<rect x="1396.432" y="774.479" style="fill:#D3BBA3;" width="32.818" height="66.895"/>
				<rect x="1396.432" y="861.292" style="fill:#D3BBA3;" width="32.818" height="66.895"/>
				<rect x="1453.713" y="774.479" style="fill:#D3BBA3;" width="32.818" height="66.895"/>
				<rect x="1453.713" y="861.292" style="fill:#D3BBA3;" width="32.818" height="66.895"/>
			</g>
			<path style="fill:#E6D0BE;" d="M1536.613,970.75H1010.43c-1.218,0-2.205-0.986-2.205-2.205s0.987-2.205,2.205-2.205h526.183
				c1.218,0,2.205,0.986,2.205,2.205S1537.831,970.75,1536.613,970.75z"/>
			<rect x="728.665" y="859.112" style="fill:#E6D0BE;" width="32.818" height="66.895"/>
			<rect x="728.665" y="945.925" style="fill:#E6D0BE;" width="32.818" height="66.895"/>
			<rect x="785.946" y="859.112" style="fill:#E6D0BE;" width="32.818" height="66.895"/>
			<rect x="785.946" y="945.925" style="fill:#E6D0BE;" width="32.818" height="66.895"/>
			<rect x="598.346" y="1054.591" style="fill:#D3BBA3;" width="32.818" height="66.895"/>
			<rect x="598.346" y="1141.404" style="fill:#D3BBA3;" width="32.818" height="66.895"/>
			<rect x="655.627" y="1054.591" style="fill:#D3BBA3;" width="32.818" height="66.895"/>
			<rect x="655.627" y="1141.404" style="fill:#D3BBA3;" width="32.818" height="66.895"/>
			<rect x="1850.855" y="1054.591" style="fill:#D3BBA3;" width="32.818" height="66.895"/>
			<rect x="1850.855" y="1141.404" style="fill:#D3BBA3;" width="32.818" height="66.895"/>
			<rect x="1908.136" y="1054.591" style="fill:#D3BBA3;" width="32.818" height="66.895"/>
			<rect x="1908.136" y="1141.404" style="fill:#D3BBA3;" width="32.818" height="66.895"/>
			<rect x="843.227" y="859.112" style="fill:#E6D0BE;" width="32.818" height="66.895"/>
			<rect x="843.227" y="945.925" style="fill:#E6D0BE;" width="32.818" height="66.895"/>
			<rect x="900.508" y="859.112" style="fill:#E6D0BE;" width="32.818" height="66.895"/>
			<rect x="900.508" y="945.925" style="fill:#E6D0BE;" width="32.818" height="66.895"/>
			<rect x="957.789" y="859.112" style="fill:#E6D0BE;" width="32.818" height="66.895"/>
			<rect x="957.789" y="945.925" style="fill:#E6D0BE;" width="32.818" height="66.895"/>
			<rect x="728.665" y="1054.591" style="fill:#E6D0BE;" width="32.818" height="66.895"/>
			<rect x="728.665" y="1141.404" style="fill:#E6D0BE;" width="32.818" height="66.895"/>
			<rect x="785.946" y="1054.591" style="fill:#E6D0BE;" width="32.818" height="66.895"/>
			<rect x="785.946" y="1141.404" style="fill:#E6D0BE;" width="32.818" height="66.895"/>
			<rect x="843.227" y="1054.591" style="fill:#E6D0BE;" width="32.818" height="66.895"/>
			<rect x="843.227" y="1141.404" style="fill:#E6D0BE;" width="32.818" height="66.895"/>
			<rect x="900.508" y="1054.591" style="fill:#E6D0BE;" width="32.818" height="66.895"/>
			<rect x="900.508" y="1141.404" style="fill:#E6D0BE;" width="32.818" height="66.895"/>
			<rect x="957.789" y="1054.591" style="fill:#E6D0BE;" width="32.818" height="66.895"/>
			<rect x="957.789" y="1141.404" style="fill:#E6D0BE;" width="32.818" height="66.895"/>
			<rect x="1554.018" y="859.112" style="fill:#E6D0BE;" width="32.818" height="66.895"/>
			<rect x="1554.018" y="945.925" style="fill:#E6D0BE;" width="32.818" height="66.895"/>
			<rect x="1611.299" y="859.112" style="fill:#E6D0BE;" width="32.818" height="66.895"/>
			<rect x="1611.299" y="945.925" style="fill:#E6D0BE;" width="32.818" height="66.895"/>
			<rect x="1668.58" y="859.112" style="fill:#E6D0BE;" width="32.818" height="66.895"/>
			<rect x="1668.58" y="945.925" style="fill:#E6D0BE;" width="32.818" height="66.895"/>
			<rect x="1725.861" y="859.112" style="fill:#E6D0BE;" width="32.818" height="66.895"/>
			<rect x="1725.861" y="945.925" style="fill:#E6D0BE;" width="32.818" height="66.895"/>
			<rect x="1783.142" y="859.112" style="fill:#E6D0BE;" width="32.818" height="66.895"/>
			<rect x="1783.142" y="945.925" style="fill:#E6D0BE;" width="32.818" height="66.895"/>
			<rect x="1554.018" y="1054.591" style="fill:#E6D0BE;" width="32.818" height="66.895"/>
			<rect x="1554.018" y="1141.404" style="fill:#E6D0BE;" width="32.818" height="66.895"/>
			<rect x="1611.299" y="1054.591" style="fill:#E6D0BE;" width="32.818" height="66.895"/>
			<rect x="1611.299" y="1141.404" style="fill:#E6D0BE;" width="32.818" height="66.895"/>
			<rect x="1668.58" y="1054.591" style="fill:#E6D0BE;" width="32.818" height="66.895"/>
			<rect x="1668.58" y="1141.404" style="fill:#E6D0BE;" width="32.818" height="66.895"/>
			<rect x="1725.861" y="1054.591" style="fill:#E6D0BE;" width="32.818" height="66.895"/>
			<rect x="1725.861" y="1141.404" style="fill:#E6D0BE;" width="32.818" height="66.895"/>
			<rect x="1783.142" y="1054.591" style="fill:#E6D0BE;" width="32.818" height="66.895"/>
			<rect x="1783.142" y="1141.404" style="fill:#E6D0BE;" width="32.818" height="66.895"/>
		</g>
		<g>
			<g>
				<path style="fill:#D3BBA3;" d="M1771.44,1834.703h-266.964c0,0,37.038-118.046,186.086-123.202h74.696L1771.44,1834.703z"/>
				<path style="fill:#D3BBA3;" d="M1949.599,1834.703h168.172c0,0-7.637-74.79-83.861-136.391h-51.356
					C1982.554,1698.312,1945.547,1791.289,1949.599,1834.703z"/>
				<polygon style="fill:#BC8271;" points="2042.789,1602.67 2047.603,1713.868 1975.92,1716.057 1954.621,1594.677 				"/>
				<path style="fill:#BC8271;" d="M1793.362,1608.109c-0.672,3.498-28.105,103.392-28.105,103.392h-74.696l6.835-116.824
					L1793.362,1608.109z"/>
				<path style="fill:#ff6900;" d="M2026.453,1155.718c0,0,29.432,283.737,32.891,467.281h-115.333l-61.769-371.102h-15.475
					c0,0-21.307,196.663-68.234,371.571h-112.68l42.122-490.935L2026.453,1155.718z"/>
			</g>
			<g>
				<g>
					<g>
						<path style="fill:#BC8271;" d="M1472.638,596.597c4.83-2.64,11.706,0,13.184,0.868c-0.22-5.057,1.432-10.276,7.238-13.08
							c5.157-2.489,12.037,1.343,12.621,1.711c0.065-0.684-2.355-7.323,4.52-12.205c4.646-3.299,10.799-1.805,12.599-0.866
							c-8.513-27.077-11.013-37.374-5.567-40.038c9.561-4.677,47.475,64.136,58.359,114.251
							c18.197,83.787,37.121,113.57,37.518,114.562c-1.883,1.387-3.765,2.774-5.655,4.151
							c-27.365,19.947-55.374,38.999-82.893,58.729c-0.733-2.325-16.337-8.428-37.489-158.295
							c-2.208-15.641-15.092-42.755-18.897-52.905C1466.104,607.946,1466.357,600.028,1472.638,596.597z"/>
						<path style="fill:#363E44;" d="M1523.659,665.013c-1.211,0-2.196-0.977-2.205-2.19c-0.083-11.812,4.296-20.586,7.493-26.994
							c3.342-6.698,4.828-10.049,2.12-13.001c-3.34-3.637-5.442-9.267-6.249-16.732c-0.31-2.868,1.164-5.557,3.752-6.851
							c2.607-1.309,5.67-0.868,7.798,1.124l24.361,22.757c0.89,0.831,0.938,2.226,0.107,3.116c-0.833,0.889-2.227,0.939-3.117,0.105
							l-24.361-22.756c-1.17-1.09-2.449-0.584-2.816-0.401c-0.356,0.177-1.507,0.881-1.339,2.433
							c0.693,6.419,2.461,11.336,5.114,14.224c4.88,5.318,1.959,11.173-1.423,17.951c-3.165,6.345-7.104,14.239-7.029,24.996
							c0.009,1.216-0.972,2.211-2.19,2.22C1523.669,665.013,1523.664,665.013,1523.659,665.013z"/>
						<path style="fill:#363E44;" d="M1480.72,630.842c-0.895,0-1.736-0.549-2.067-1.436c-0.424-1.143,0.158-2.411,1.299-2.836
							c7.085-2.631,10.965-10.374,8.834-17.623l-1.875-6.386c-0.318-1.083,0.231-2.231,1.273-2.659
							c1.045-0.433,2.242-0.006,2.78,0.984l6.245,11.493c1.949,3.587,6.185,5.271,10.06,4c2.185-0.717,3.947-2.248,4.96-4.311
							c1.012-2.065,1.145-4.394,0.375-6.563l-5.843-16.403c-0.394-1.105,0.145-2.323,1.227-2.775
							c1.085-0.454,2.327,0.021,2.836,1.079l3.651,7.585c1.48,3.075,5.21,4.421,8.313,3.004c2.926-1.337,4.376-4.651,3.376-7.708
							l-3.801-11.601c-0.379-1.158,0.251-2.403,1.408-2.782c1.158-0.388,2.403,0.252,2.782,1.408l3.801,11.601
							c1.7,5.193-0.764,10.822-5.733,13.091c-2.787,1.277-5.873,1.24-8.534,0.142l0.67,1.88c1.173,3.299,0.971,6.843-0.57,9.984
							c-1.541,3.139-4.22,5.469-7.545,6.558c-5.694,1.86-11.887-0.45-14.979-5.514c-0.768,6.894-5.324,13.104-12.176,15.649
							C1481.234,630.799,1480.975,630.842,1480.72,630.842z"/>
					</g>
				</g>
				<path style="fill:#FFFFFF;" d="M1982.389,768.373c0,0-129.527-25.967-233.263,0.68l-50.344,444.333l352.832-3.454
					L1982.389,768.373z"/>
				<path style="fill:#ff6900;" d="M1827.096,756.199l-35.679,307.829h-89.118l20.9-155.342c0,0-209.02,6.785-227.26-158.235
					l100.141-45.905c0,0,6.11,51.887,81.448,60.215S1772.428,757.177,1827.096,756.199z"/>
				<path style="fill:#ff6900;" d="M1913.527,757.218c-1.058,3.071,60.917,306.811,60.917,306.811h90.21l-6.954-48.029
					c0,0,26.279,15.679,63.003-5.313c36.723-20.991,22.783-131.625-37.843-192.24
					C2014.855,750.451,1913.527,757.218,1913.527,757.218z"/>
				<g>
					<rect x="1942.468" y="538.511" style="fill:#D3BBA3;" width="30.844" height="503.149"/>
					<path style="fill:#D3BBA3;" d="M2142.94,571.56h-368.205c-1.218,0-2.205-0.986-2.205-2.205V351.517
						c0-1.219,0.987-2.205,2.205-2.205h368.205c1.218,0,2.205,0.986,2.205,2.205v217.838
						C2145.145,570.574,2144.158,571.56,2142.94,571.56z M1776.941,567.15h363.795V353.722h-363.795V567.15z"/>
					<rect x="1795.94" y="369.092" style="fill:#D3BBA3;" width="325.794" height="179.061"/>
					<path style="fill:#FFFFFF;" d="M1990.096,513.744h-165.874c-1.218,0-2.205-0.986-2.205-2.205c0-1.219,0.987-2.205,2.205-2.205
						h165.874c1.218,0,2.205,0.986,2.205,2.205C1992.301,512.757,1991.314,513.744,1990.096,513.744z"/>
					<path style="fill:#FFFFFF;" d="M2088.984,513.744h-79.044c-1.218,0-2.205-0.986-2.205-2.205c0-1.219,0.987-2.205,2.205-2.205
						h79.044c1.218,0,2.205,0.986,2.205,2.205C2091.189,512.757,2090.201,513.744,2088.984,513.744z"/>
					<path style="fill:#FFFFFF;" d="M2063.59,408.681h-137.432c-1.218,0-2.205-0.986-2.205-2.205c0-1.219,0.987-2.205,2.205-2.205
						h137.432c1.218,0,2.205,0.986,2.205,2.205C2065.794,407.695,2064.807,408.681,2063.59,408.681z"/>
					<path style="fill:#FFFFFF;" d="M1898.962,408.681h-74.74c-1.218,0-2.205-0.986-2.205-2.205c0-1.219,0.987-2.205,2.205-2.205
						h74.74c1.218,0,2.205,0.986,2.205,2.205C1901.167,407.695,1900.18,408.681,1898.962,408.681z"/>
					<path style="fill:#FFFFFF;" d="M2091.875,444.343c-0.006,0-0.011,0-0.016,0l-83.414-0.601c-1.218-0.009-2.197-1.003-2.189-2.22
						c0.009-1.212,0.995-2.19,2.205-2.19c0.005,0,0.011,0,0.016,0l83.414,0.601c1.218,0.009,2.198,1.003,2.189,2.22
						C2094.071,443.366,2093.084,444.343,2091.875,444.343z"/>
					<path style="fill:#FFFFFF;" d="M1984.958,443.573c-0.005,0-0.011,0-0.016,0l-160.08-1.156c-1.218-0.009-2.197-1.003-2.189-2.22
						c0.009-1.219,0.909-2.235,2.221-2.19l160.08,1.156c1.218,0.009,2.197,1.003,2.189,2.22
						C1987.154,442.595,1986.168,443.573,1984.958,443.573z"/>
					<path style="fill:#FFFFFF;" d="M2052.563,480.695c-0.005,0-0.011,0-0.016,0l-138.9-1.008c-1.218-0.009-2.197-1.003-2.189-2.22
						c0.009-1.212,0.995-2.19,2.205-2.19c0.005,0,0.011,0,0.016,0l138.901,1.008c1.218,0.009,2.197,1.003,2.189,2.22
						C2054.76,479.717,2053.773,480.695,2052.563,480.695z"/>
					<path style="fill:#FFFFFF;" d="M1896.024,479.56c-0.005,0-0.011,0-0.016,0l-71.146-0.517c-1.218-0.009-2.197-1.003-2.189-2.22
						c0.009-1.212,0.995-2.19,2.205-2.19c0.005,0,0.011,0,0.016,0l71.146,0.517c1.218,0.009,2.197,1.003,2.189,2.22
						C1898.221,478.583,1897.234,479.56,1896.024,479.56z"/>
				</g>
				<g>
					<path style="fill:#BC8271;" d="M1927.532,889.5c20.654,3.469,43.913-0.208,62.809-8.494c7.568-3.319,14.824-7.701,21.69-12.373
						c-3.782-8.424-6.617-14.676-8.025-17.666c-0.955-2.025-2.622-5.606-5.971-9.499c-12.406-14.426-31.166-5.042-47.965-19.232
						c-4.2-3.547-6.531-7.322-7.75-10.953c-3.696-11.005,3.517-15.759-0.408-18.507c-2.756-1.929-21.084-2.205-19.154,23.702
						l0.689,3.032c-2.857-15.569,2.972-18.299-8.13-16.95c-8.819,2.94-13.806,17.729-9.506,28.616
						c-4.826-12.218,3.23-17.306-0.554-16.765c-10.289,1.47-17.553,18.263-7.251,33.918l-0.001,0.001
						c-4.461-8.563-6.876-9.382-8.595-6.358c-3.137,5.519-1.454,18.16,7.97,28.215C1907.832,881.342,1919.78,886.452,1927.532,889.5
						z"/>
					<path style="fill:#BC8271;" d="M1973.26,834.802c-1.219-24.659-2.741-32.725,1.172-32.794
						c6.582-0.115,22.549,19.424,28.871,55.239C1994.372,851.745,1982.191,840.305,1973.26,834.802z"/>
					<g>
						<path style="fill:#363E44;" d="M1931.048,831.61c-0.459,0-0.922-0.142-1.318-0.439l-0.729-0.553
							c-5.193-4.009-10.964-15.466-7.799-25.678c0.36-1.163,1.596-1.811,2.758-1.453c1.164,0.359,1.814,1.595,1.453,2.758
							c-2.669,8.615,2.592,18.035,6.288,20.89l0.667,0.506c0.975,0.73,1.176,2.11,0.446,3.086
							C1932.384,831.304,1931.72,831.61,1931.048,831.61z"/>
						<path style="fill:#363E44;" d="M1918.484,843.9c-0.364,0-0.73-0.091-1.062-0.273c-4.214-1.942-17.03-9.405-13.503-27.435
							c0.234-1.195,1.388-1.981,2.587-1.74c1.195,0.235,1.974,1.393,1.741,2.588c-2.84,14.517,6.692,20.597,10.922,22.537
							c0.273,0.125,0.491,0.226,0.736,0.433c0.931,0.784,1.051,2.175,0.267,3.105C1919.736,843.633,1919.111,843.9,1918.484,843.9z"
							/>
						<path style="fill:#363E44;" d="M1910.306,862.028c-0.42,0-0.843-0.118-1.219-0.368c-0.968-0.644-1.958-1.348-2.961-2.123
							c-3.039-2.347-7.046-6.77-11.588-12.792c-0.733-0.973-0.539-2.356,0.433-3.09c0.973-0.732,2.357-0.54,3.088,0.433
							c4.308,5.714,8.03,9.848,10.764,11.961c0.916,0.706,1.823,1.35,2.706,1.938c1.014,0.676,1.29,2.043,0.615,3.057
							C1911.72,861.683,1911.02,862.028,1910.306,862.028z"/>
					</g>
					<path style="fill:#BC8271;" d="M2089.296,928.159l-107.771-98.545l-60.524,51.513l103.047,116.019
						c19.112,18.696,49.885,17.934,68.048-1.684l0,0C2109.992,976.134,2108.735,945.933,2089.296,928.159z"/>
				</g>
			</g>
			<g>
				<path style="fill:#BC8271;" d="M1864.968,787.674L1864.968,787.674c11.165-0.364,19.92-9.71,19.556-20.875l-1.712-48.676
					c-0.364-11.164-9.71-19.92-20.875-19.555h0c-11.164,0.364-19.92,9.71-19.555,20.875l1.712,48.676
					C1844.458,779.283,1853.804,788.038,1864.968,787.674z"/>
				<path style="fill:#363E44;" d="M1884.294,702.74c18.044-9.18,25.865-30.176,27.16-52.021
					c0.966-16.296-7.445-27.369-19.743-27.264c-8.461-13.893-40.217-16.609-53.588-6.581c-24.567,18.425-23.093,71.415,4.387,87.12
					C1860.658,714.366,1882.656,703.574,1884.294,702.74z"/>
				<g>
					<path style="fill:#BC8271;" d="M1899.715,682.125c-0.939,19.946-12.793,51.023-38.542,49.81
						c-25.749-1.213-34.629-33.267-33.689-53.213c0.507-10.77,3.009-28.784,10.842-33.644c6.673-4.141,18.658,7.089,27.834,7.521
						c9.973,0.47,19.233-10.131,25.421-4.596C1897.768,653.538,1900.185,672.152,1899.715,682.125z"/>
					<path style="fill:#363E44;" d="M1895.57,704.895c-0.244,0-0.493-0.041-0.736-0.127c-1.148-0.407-1.748-1.667-1.341-2.814
						c1.847-5.217,3.136-10.822,3.726-16.209c0.134-1.212,1.224-2.076,2.432-1.953c1.21,0.133,2.084,1.221,1.952,2.431
						c-0.626,5.721-1.994,11.67-3.954,17.204C1897.328,704.331,1896.478,704.895,1895.57,704.895z"/>
					<path style="fill:#363E44;" d="M1830.187,703.709c-0.964,0-1.848-0.635-2.122-1.608c-1.893-6.733-2.905-14.2-2.85-21.023
						c0.01-1.212,0.995-2.188,2.205-2.188c0.005,0,0.012,0,0.018,0c1.218,0.011,2.196,1.005,2.187,2.222
						c-0.052,6.421,0.902,13.451,2.686,19.796c0.329,1.171-0.354,2.39-1.527,2.719
						C1830.585,703.683,1830.384,703.709,1830.187,703.709z"/>
					<path style="fill:#363E44;" d="M1862.421,734.802c-0.491,0-0.987-0.015-1.488-0.045c-10.556-0.642-18.495-7.902-24.231-14.155
						c-0.824-0.896-0.763-2.291,0.133-3.116c0.899-0.823,2.292-0.76,3.116,0.136c5.498,5.992,12.322,12.191,21.25,12.734
						c8.941,0.515,16.562-5.144,22.21-10.161c0.912-0.807,2.305-0.723,3.112,0.185c0.808,0.911,0.727,2.304-0.184,3.113
						C1880.353,728.81,1872.295,734.802,1862.421,734.802z"/>
					<path style="fill:#363E44;" d="M1863.18,707.139c-0.824,0-1.614-0.463-1.992-1.255c-0.523-1.1-0.057-2.416,1.042-2.939
						c1.266-0.605,1.676-1.128,1.719-1.341c0.032-0.155-0.243-0.674-0.485-1.128c-0.402-0.758-0.902-1.699-1.252-2.991
						c-0.515-1.897-0.529-3.91-0.042-5.988c0.278-1.184,1.47-1.916,2.649-1.643c1.186,0.278,1.922,1.464,1.644,2.651
						c-0.318,1.356-0.316,2.644,0.004,3.826c0.221,0.814,0.561,1.456,0.891,2.076c0.56,1.055,1.257,2.366,0.913,4.069
						c-0.365,1.815-1.76,3.312-4.145,4.448C1863.822,707.07,1863.499,707.139,1863.18,707.139z"/>
					<path style="fill:#84524D;" d="M1864.88,715.607c0,2.588-1.851,4.685-4.134,4.685c-2.283,0-4.134-2.098-4.134-4.685
						c0-2.588,1.851-4.685,4.134-4.685C1863.029,710.922,1864.88,713.02,1864.88,715.607z"/>
				</g>
				<path style="fill:#BC8271;" d="M1834.869,687.321c3.063,7.887,1.284,15.936-3.974,17.978
					c-5.258,2.042-12.004-2.696-15.067-10.583c-3.063-7.887-1.284-15.936,3.974-17.978
					C1825.061,674.696,1831.806,679.434,1834.869,687.321z"/>
				<path style="fill:#BC8271;" d="M1891.373,689.983c-3.791,7.564-2.776,15.745,2.267,18.272c5.043,2.527,12.204-1.556,15.995-9.12
					c3.791-7.564,2.776-15.745-2.267-18.272C1902.325,678.336,1895.164,682.419,1891.373,689.983z"/>
				<path style="fill:#363E44;" d="M1901.369,703.715c-0.765,0-1.509-0.398-1.916-1.111c-0.604-1.057-0.237-2.405,0.82-3.008
					c1.235-0.706,2.391-2.005,3.173-3.563c0.782-1.559,1.13-3.262,0.955-4.672c-0.135-1.085-0.568-1.886-1.191-2.196
					c-0.114-0.058-0.225-0.099-0.35-0.127c-1.186-0.271-1.929-1.453-1.657-2.64c0.272-1.188,1.452-1.931,2.641-1.658
					c0.474,0.108,0.929,0.271,1.351,0.487c1.953,0.978,3.263,3.019,3.582,5.592c0.283,2.284-0.21,4.838-1.389,7.191
					c-1.18,2.351-2.929,4.274-4.927,5.415C1902.115,703.623,1901.739,703.715,1901.369,703.715z"/>
				<path style="fill:#363E44;" d="M1824.159,700.079c-0.438,0-0.881-0.129-1.266-0.401c-1.883-1.326-3.445-3.404-4.397-5.857
					c-2.121-5.458-0.63-10.96,3.393-12.525c0.446-0.174,0.911-0.293,1.383-0.353c1.196-0.164,2.315,0.689,2.473,1.899
					c0.157,1.208-0.693,2.315-1.9,2.472c-0.126,0.017-0.243,0.047-0.359,0.093c-1.447,0.562-2.132,3.598-0.881,6.817
					c0.632,1.628,1.661,3.029,2.823,3.845c0.996,0.702,1.236,2.078,0.535,3.073C1825.535,699.754,1824.852,700.079,1824.159,700.079
					z"/>
				<g>
					<path style="fill:#FFFFFF;" d="M1896.208,682.602c0,0-1.771,2.676-4.918,5.302c-2.092,1.746-8.681,1.656-8.681,1.656
						s-7.318,3.474-10.333,2.819c-3.017-0.655-5.033-1.594-5.033-1.594s0.972-1.469,2.756-3.298
						c2.224-2.281,11.513-2.627,11.513-2.627s6.08-4.551,9.008-3.985C1893.896,681.526,1896.208,682.602,1896.208,682.602z"/>
					<path style="fill:#363E44;" d="M1880.149,681.11c-4.423,1.249-7.894,4.073-10.12,6.349c0.327,1.806,1.099,3.501,2.247,4.919
						c3.014,0.655,7.028,1.028,11.027-0.102c3.217-0.909,5.924-2.652,8.022-4.411c0.536-2.428,0.209-4.867-0.796-6.983
						C1887.598,680.313,1883.872,680.059,1880.149,681.11z"/>
				</g>
				<g>
					<path style="fill:#FFFFFF;" d="M1830.114,679.489c0,0,1.735,3.25,5.039,6.366c1.829,1.725,8.009,1.198,8.009,1.198
						s6.306,4.781,9.289,4.482c3.372-0.339,5.73-1.177,5.73-1.177s-0.812-1.521-2.383-3.48c-1.996-2.489-10.678-4.212-10.678-4.212
						s-6.3-4.653-9.284-4.353C1832.469,678.652,1830.114,679.489,1830.114,679.489z"/>
					<path style="fill:#363E44;" d="M1855.811,686.894c-1.995-2.492-5.221-5.698-9.567-7.381c-3.629-1.405-7.384-1.495-10.363-1.198
						c-0.993,2.059-1.358,4.44-0.873,6.853c0.048,0.242,0.116,0.475,0.18,0.709c1.824,1.717,4.115,3.392,6.865,4.456
						c3.629,1.405,7.384,1.495,10.365,1.198C1853.946,690.315,1855.116,688.71,1855.811,686.894z"/>
				</g>
			</g>
		</g>
		<g>
			<g>
				<path style="fill:#E6D0BE;" d="M796.941,2134.344h266.964c0,0-37.038-118.046-186.086-123.202h-74.696L796.941,2134.344z"/>
				<path style="fill:#E6D0BE;" d="M618.783,2134.344H450.611c0,0,7.637-74.79,83.86-136.391h51.356
					C585.828,1997.953,622.835,2090.93,618.783,2134.344z"/>
				<polygon style="fill:#E2A18D;" points="525.593,1902.311 520.779,2013.509 592.462,2015.698 613.761,1894.318 				"/>
				<path style="fill:#E2A18D;" d="M775.019,1907.75c0.672,3.498,28.105,103.392,28.105,103.392h74.696l-6.835-116.824
					L775.019,1907.75z"/>
				<path style="fill:#363E44;" d="M546.633,1352.289c0,0-34.136,386.807-37.595,570.351h115.333l61.769-371.102h15.475
					c0,0,21.307,196.663,68.233,371.571h112.68l-49.268-606.098L546.633,1352.289z"/>
			</g>
			<g>
				<g>
					<polygon style="fill:#E2A18D;" points="1002.665,1160.793 805.498,1149.658 813.505,1008.539 1016.677,1041.066 					"/>
					<path style="fill:#ff6900;" d="M469.984,1089.263c29.116-25.864,103.445-91.698,213.98-102.764
						c86.504-8.66,179.583,12.358,220.618,25.369c-1.001,52.044-3.003,107.091-4.003,159.135
						c-20.017,3.002-30.526,4.504-51.475,7.659v198.169l-316.22,0.235l-0.274-150.575l-35.198,13.074L469.984,1089.263z"/>
					<path style="fill:#363E44;" d="M849.332,1180.516c-0.003,0-0.007,0-0.011,0c-1.218-0.006-2.199-0.997-2.194-2.216
						c0.074-15.451,0.203-23.235,0.366-33.087c0.079-4.683,0.163-9.782,0.251-16.342c0.016-1.219,0.969-2.2,2.235-2.175
						c1.218,0.017,2.191,1.016,2.175,2.235c-0.088,6.565-0.173,11.668-0.251,16.355c-0.164,9.84-0.292,17.611-0.366,33.036
						C851.531,1179.536,850.545,1180.516,849.332,1180.516z"/>
					<path style="fill:#363E44;" d="M529.706,1229.261c-0.9,0-1.745-0.556-2.071-1.449c-0.417-1.146,0.172-2.409,1.317-2.827
						c14.516-5.29,21.861-7.87,31.158-11.134c4.419-1.552,9.232-3.24,15.415-5.434c1.15-0.407,2.408,0.192,2.815,1.341
						c0.407,1.148-0.193,2.407-1.34,2.814c-6.19,2.196-11.006,3.887-15.429,5.439c-9.284,3.26-16.617,5.835-31.11,11.117
						C530.212,1229.218,529.957,1229.261,529.706,1229.261z"/>
				</g>
				<g>
					<g>
						<g>
							<path style="fill:#E2A18D;" d="M980.049,1157.972c-10.364-126.917-12.893-217.502-20.333-273.43
								c-3.341-25.106-11.476-49.6-0.643-71.415c4.803-9.672,11.983-19.175,18.719-14.935c10.52,6.622-3.794,34.766,4.928,39.926
								c8.764,5.184,20.77-15.316,26.129-29.536c3.61-9.579,9.377-20.405,18.835-18.706c13.443,2.416,9.089,22.205,8.951,23.543
								c6.574-4.119,14.354-3.966,18.505-0.232c5.542,4.984,5.561,17.2-3.741,24.58c1.309-0.698,11.069-5.783,15.469-2.222
								c4.315,3.492,3.233,15.104-5.729,27.618c7.941-3.707,14.4-3.493,16.524-1.031c5.955,6.9,1.3,23.251-23.748,53.365
								c3.083,17.924,18.071,89.088,29.814,144.293c12.679,59.606-40.698,112.866-100.053,99.059
								C982.477,1158.571,981.269,1158.278,980.049,1157.972z"/>
							<path style="fill:#363E44;" d="M976.353,1112.225c-1.146,0-2.112-0.885-2.197-2.046c-0.964-13.261-1.831-30.249-2.671-46.68
								c-0.596-11.687-1.161-22.726-1.701-31.167c-0.077-1.214,0.845-2.263,2.06-2.341c1.213-0.069,2.263,0.844,2.342,2.061
								c0.542,8.466,1.106,19.52,1.704,31.22c0.839,16.407,1.705,33.374,2.666,46.588c0.088,1.214-0.825,2.269-2.04,2.358
								C976.461,1112.223,976.407,1112.225,976.353,1112.225z"/>
							<path style="fill:#363E44;" d="M1014.204,926.411c-1.087,0-2.034-0.805-2.182-1.912c-0.612-4.558-0.897-13.606,4.056-22.978
								c5.605-10.602,14.515-15.507,19.329-17.488c1.127-0.461,2.415,0.075,2.878,1.199c0.463,1.126-0.074,2.416-1.2,2.879
								c-3.431,1.412-11.966,5.747-17.107,15.47c-4.381,8.288-4.127,16.295-3.585,20.332c0.161,1.206-0.686,2.317-1.893,2.478
								C1014.401,926.404,1014.302,926.411,1014.204,926.411z"/>
						</g>
					</g>
					<g>
						<path style="fill:#84524D;" d="M1060.977,914.551L1060.977,914.551c-11.974,9.664-30.38,6.718-41.112-6.579l-85.579-108.627
							l42.096-33.974l86.845,107.605C1073.958,886.274,1072.951,904.888,1060.977,914.551z"/>
						<path style="fill:#363E44;" d="M1174.396,624.986c-0.518,0-1.038-0.181-1.457-0.551c-0.914-0.805-1.001-2.198-0.197-3.111
							c13.092-14.859,13.78-36.356,1.637-51.113c-11.704-14.228-32.396-17.998-49.207-8.953c-1.072,0.575-2.41,0.174-2.986-0.898
							c-0.576-1.072-0.174-2.409,0.898-2.986c18.657-10.034,41.662-5.813,54.701,10.034c13.525,16.439,12.796,40.341-1.733,56.832
							C1175.616,624.734,1175.008,624.986,1174.396,624.986z"/>
						<polygon style="fill:#D87355;" points="932.628,712.416 988.251,780.025 1212.183,679.889 1074.042,511.98 						"/>
						
							<rect x="908.715" y="721.104" transform="matrix(0.7722 -0.6353 0.6353 0.7722 -272.2616 770.0577)" style="fill:#EFBC73;" width="58.373" height="87.318"/>
						<g>
							
								<rect x="931.419" y="776.096" transform="matrix(0.7722 -0.6353 0.6353 0.7722 -281.0959 783.4636)" style="fill:#D87355;" width="41.519" height="15.382"/>
							
								<rect x="916.323" y="757.746" transform="matrix(0.7722 -0.6353 0.6353 0.7722 -272.876 769.691)" style="fill:#D87355;" width="41.519" height="15.381"/>
							
								<rect x="901.226" y="739.396" transform="matrix(0.7722 -0.6353 0.6353 0.7722 -264.6562 755.9184)" style="fill:#D87355;" width="41.519" height="15.382"/>
						</g>
					</g>
					<path style="fill:#E2A18D;" d="M1028.361,819.685c-12.861,9.933-17.096,22.251-13.792,26.679
						c3.029,4.059,14.092,3.758,25.814-2.826c0.163-0.091,0.301,0.116,0.158,0.236c-12.353,10.315-17.401,21.477-14.508,25.608
						c2.638,3.767,12.899,3.146,24.629-2.146c0.172-0.077,0.292,0.151,0.134,0.252c-10.568,6.694-15.609,14.907-13.82,18.569
						c1.897,3.881,15.033,7.654,34.541-5.995L1028.361,819.685z"/>
					<path style="fill:#E2A18D;" d="M959.716,884.541c-5.102-28.382-10.708-50.687-0.643-71.415
						c3.074-6.331,8.253-14.293,14.546-14.099c12.514,0.387,7.028,19.542,8.729,33.133c1.585,12.666,10.494,18.649,16.654,30.077
						c4.846,8.99,9.547,23.517,6.195,46.435C990.036,900.628,974.876,892.585,959.716,884.541z"/>
				</g>
				<g>
					<rect x="529.031" y="686.65" style="fill:#EFBC73;" width="35.277" height="575.458"/>
					<path style="fill:#D3BBA3;" d="M758.314,724.132H337.194c-1.218,0-2.205-0.986-2.205-2.205V472.782
						c0-1.219,0.987-2.205,2.205-2.205h421.121c1.218,0,2.205,0.986,2.205,2.205v249.145
						C760.519,723.145,759.532,724.132,758.314,724.132z M339.398,719.722h416.711V474.987H339.398V719.722z"/>
					<rect x="361.445" y="492.882" style="fill:#EFBC73;" width="372.615" height="204.794"/>
					<path style="fill:#FFFFFF;" d="M679.697,658.006H393.791c-1.218,0-2.205-0.986-2.205-2.205c0-1.219,0.987-2.205,2.205-2.205
						h285.906c1.218,0,2.205,0.986,2.205,2.205C681.902,657.02,680.915,658.006,679.697,658.006z"/>
					<path style="fill:#FFFFFF;" d="M697.704,537.844H608.41c-1.218,0-2.205-0.986-2.205-2.205s0.987-2.205,2.205-2.205h89.294
						c1.218,0,2.205,0.986,2.205,2.205S698.922,537.844,697.704,537.844z"/>
					<path style="fill:#FFFFFF;" d="M591.505,537.844h-169.77c-1.218,0-2.205-0.986-2.205-2.205s0.987-2.205,2.205-2.205h169.77
						c1.218,0,2.205,0.986,2.205,2.205S592.722,537.844,591.505,537.844z"/>
					<path style="fill:#FFFFFF;" d="M699.909,578.633c-0.005,0-0.011,0-0.016,0l-152.506-1.1c-1.218-0.009-2.197-1.003-2.189-2.22
						c0.009-1.219,0.943-2.192,2.221-2.19l152.506,1.1c1.218,0.009,2.197,1.003,2.189,2.22
						C702.105,577.655,701.119,578.633,699.909,578.633z"/>
					<path style="fill:#FFFFFF;" d="M523.896,577.362c-0.005,0-0.011,0-0.016,0l-129.354-0.935c-1.218-0.009-2.197-1.003-2.189-2.22
						c0.009-1.212,0.995-2.19,2.205-2.19c0.005,0,0.011,0,0.016,0l129.354,0.935c1.218,0.009,2.197,1.003,2.189,2.22
						C526.092,576.385,525.106,577.362,523.896,577.362z"/>
					<path style="fill:#FFFFFF;" d="M698.807,620.524c-0.005,0-0.011,0-0.016,0l-94.806-0.687c-1.218-0.009-2.197-1.003-2.189-2.22
						c0.009-1.219,0.986-2.198,2.221-2.19l94.806,0.687c1.218,0.009,2.197,1.003,2.189,2.22
						C701.003,619.547,700.017,620.524,698.807,620.524z"/>
					<path style="fill:#FFFFFF;" d="M587.099,619.715c-0.005,0-0.011,0-0.016,0l-192.558-1.395c-1.218-0.009-2.197-1.003-2.189-2.22
						c0.009-1.212,0.995-2.19,2.205-2.19c0.005,0,0.011,0,0.016,0l192.558,1.395c1.218,0.009,2.197,1.003,2.189,2.22
						C589.295,618.737,588.309,619.715,587.099,619.715z"/>
				</g>
				<g>
					<path style="fill:#E2A18D;" d="M595.724,1029.794c-24.904,15.108-54.743,21.265-83.422,20.279
						c-11.487-0.395-23.117-2.326-34.393-4.831c-5.287-2.678-4.835-10.583-4.552-15.172c0.192-3.107,11.575-31.694,15.158-38.309
						c12.604-23.269,24.535-16.17,45.596-38.35c23.896-25.167,23.104-52.867,31.951-52.341c6.153,0.366,9.394,10.73,7.768,32.558
						l0.003,0.001c3.143-16.442,2.43-37.152,11.511-35.389c10.377,2.596,13.224,27.896,10.559,43.957
						c3.225-19.44,4.828-27.098,10.019-25.951c7.901,1.746,11.483,18.098,8.89,44.101l0.002,0
						c2.775-17.184,12.329,0.087,12.329,10.744c0,8.078-6.844,24.804-9.187,28.663
						C606.921,1017.929,604.174,1021.867,595.724,1029.794z"/>
					<path style="fill:#E2A18D;" d="M529.855,976.327c1.92-30.922,2.756-46.852,0-47.128c-9.111-0.911-29.891,27.516-46.393,75.331
						C496.931,998.922,516.386,981.936,529.855,976.327z"/>
					<g>
						<path style="fill:#363E44;" d="M558.503,963.066c-0.516,0-1.034-0.179-1.451-0.547c-0.916-0.801-1.009-2.194-0.207-3.111
							c2.668-3.047,5.06-6.347,7.111-9.812c2.979-5.034,5.278-10.466,6.834-16.142c0.322-1.173,1.535-1.86,2.709-1.544
							c1.174,0.323,1.866,1.535,1.544,2.711c-1.659,6.055-4.113,11.849-7.292,17.221c-2.189,3.699-4.741,7.222-7.588,10.473
							C559.727,962.812,559.117,963.066,558.503,963.066z"/>
						<path style="fill:#363E44;" d="M580.903,969.101c-0.516,0-1.034-0.181-1.452-0.547c-0.915-0.801-1.008-2.194-0.205-3.111
							c2.661-3.038,5.053-6.339,7.111-9.814c2.977-5.032,5.276-10.462,6.834-16.14c0.321-1.176,1.531-1.86,2.71-1.544
							c1.174,0.323,1.865,1.535,1.543,2.711c-1.661,6.057-4.115,11.851-7.292,17.219c-2.195,3.708-4.749,7.232-7.59,10.475
							C582.127,968.847,581.516,969.101,580.903,969.101z"/>
						<path style="fill:#363E44;" d="M600.092,989.795c-0.516,0-1.034-0.181-1.452-0.547c-0.915-0.801-1.008-2.194-0.205-3.111
							c2.662-3.038,5.055-6.341,7.11-9.814c2.979-5.032,5.278-10.462,6.834-16.14c0.321-1.171,1.531-1.858,2.709-1.544
							c1.175,0.323,1.866,1.535,1.544,2.711c-1.659,6.055-4.113,11.849-7.293,17.221c-2.193,3.706-4.746,7.23-7.588,10.473
							C601.316,989.541,600.706,989.795,600.092,989.795z"/>
					</g>
					<path style="fill:#E2A18D;" d="M408.685,1161.906l88.573-182.78l104.709,35.433l-73.479,202.93
						c-35.465,69.992-98.669,46.474-98.669,46.474C396.751,1248.193,392.709,1194.875,408.685,1161.906z"/>
				</g>
			</g>
			<g>
				<path style="fill:#E2A18D;" d="M697.846,1035.922l0.026,0.002c21.634,1.441,40.364-14.874,41.905-36.501l6.193-86.937
					c1.546-21.696-14.788-40.537-36.483-42.086h0c-21.695-1.548-40.538,14.782-42.09,36.476l-6.219,86.935
					C659.62,1015.584,676.066,1034.471,697.846,1035.922z"/>
				<path style="fill:#E2A18D;" d="M668.055,810.517c2.74-1.644,29.22-16.992,54.769-6.04c19.011,8.149,29.044,25.438,41.489,56.981
					c14.655,37.145,18.226,61.397,11.243,73.422c-11.033,19-72.002,17.207-105.374-5.446
					c-24.089-16.352-36.453-46.283-33.045-75.403C640.536,824.99,666.306,811.567,668.055,810.517z"/>
				<path style="fill:#363E44;" d="M736.51,950.102c-15.456,0-32.18-2.965-46.752-8.363c-1.142-0.422-1.725-1.69-1.303-2.833
					c0.423-1.141,1.697-1.727,2.834-1.301c15.913,5.893,34.465,8.798,50.908,7.943c1.22-0.028,2.252,0.874,2.315,2.089
					c0.062,1.217-0.872,2.254-2.089,2.317C740.478,950.052,738.504,950.102,736.51,950.102z"/>
				<g>
					<path style="fill:#FFFFFF;" d="M694.091,873.932c0,0,7.888,7.342,18.946,10.217c2.327,0.605,4.794,1.012,7.357,1.111
						c14.747,0.571,15.544-20.016,0.798-20.587c-3.668-0.142-7.188,0.359-10.407,1.193c-0.643,0.166-1.273,0.346-1.89,0.536
						c-0.666,0.206-1.317,0.424-1.951,0.651C699.278,869.804,694.091,873.932,694.091,873.932z"/>
					<path style="fill:#363E44;" d="M747.495,876c0,0-11.556-10.756-26.303-11.327c-3.678-0.143-7.207,0.363-10.433,1.2
						c-2.06,5.3-1.781,11.451,1.312,16.741c0.311,0.531,0.648,1.037,1,1.527c2.32,0.601,4.768,1.019,7.323,1.119
						C735.14,885.831,747.495,876,747.495,876z"/>
				</g>
				<path style="fill:#363E44;" d="M767.955,888.434c-0.177,0-0.354-0.022-0.533-0.065c-1.182-0.293-1.902-1.49-1.609-2.67
					c0.526-2.125,0.504-3.699-0.065-4.319c-0.243-0.265-0.63-0.362-1.672-0.564c-0.927-0.181-2.08-0.405-3.432-0.984
					c-2.418-1.038-4.502-2.797-6.195-5.23c-0.695-1.001-0.449-2.375,0.551-3.07c0.999-0.695,2.375-0.446,3.068,0.551
					c1.214,1.746,2.666,2.991,4.313,3.697c0.918,0.394,1.742,0.553,2.538,0.708c1.328,0.258,2.835,0.551,4.082,1.914
					c1.675,1.832,2.031,4.567,1.092,8.356C769.844,887.764,768.944,888.434,767.955,888.434z"/>
				<path style="fill:#363E44;" d="M755.373,922.335c-0.205,0-0.411-0.028-0.617-0.088c-2.48-0.721-5.971-2.319-8.51-5.828
					c-2.263-3.126-3.53-7.566-3.013-10.557c0.304-1.753,1.151-2.659,1.808-3.109c1.945-1.335,3.962-0.202,5.583,0.711
					c1.645,0.924,3.483,1.903,6.079,1.884c2.315-0.082,4.639-0.711,6.722-1.817c1.076-0.57,2.409-0.164,2.981,0.915
					c0.571,1.077,0.161,2.409-0.914,2.982c-2.67,1.417-5.655,2.22-8.632,2.325c-3.835,0.136-6.57-1.417-8.398-2.446
					c-0.311-0.174-0.69-0.388-1.002-0.545c-0.088,1.178,0.443,4.425,2.359,7.073c1.807,2.495,4.353,3.65,6.17,4.179
					c1.169,0.34,1.842,1.563,1.501,2.732C757.208,921.711,756.328,922.335,755.373,922.335z"/>
				<g>
					
						<ellipse transform="matrix(0.511 -0.8596 0.8596 0.511 -452.4813 1010.5575)" style="fill:#E2A18D;" cx="661.903" cy="902.949" rx="21.178" ry="24.354"/>
					<path style="fill:#363E44;" d="M666.154,927.169c-1.161,0-2.133-0.906-2.2-2.08c-0.069-1.214,0.86-2.257,2.077-2.325
						c6.485-0.37,11.921-3.467,14.913-8.496c0.621-1.047,1.976-1.395,3.022-0.769c1.047,0.622,1.39,1.974,0.768,3.021
						c-3.753,6.313-10.478,10.193-18.452,10.645C666.239,927.167,666.196,927.169,666.154,927.169z"/>
					<path style="fill:#363E44;" d="M642.026,891.119c-0.456,0-0.917-0.142-1.312-0.435c-0.978-0.726-1.182-2.106-0.455-3.083
						c7.258-9.78,21.701-11.821,33.593-4.75c1.047,0.622,1.39,1.974,0.768,3.021c-0.623,1.046-1.973,1.391-3.022,0.769
						c-9.777-5.811-21.988-4.235-27.799,3.587C643.366,890.811,642.7,891.119,642.026,891.119z"/>
					<path style="fill:#363E44;" d="M655.27,912.682c-0.383,0-0.771-0.099-1.124-0.31c-2.987-1.774-5.201-4.474-6.232-7.598
						c-1.067-3.234-0.753-6.535,0.887-9.291c2.021-3.4,5.782-5.426,10.069-5.426c0.017,0,0.034,0,0.052,0
						c1.218,0.004,2.201,0.995,2.196,2.214c-0.004,1.214-0.991,2.196-2.205,2.196c-0.013-0.002-0.027,0-0.043,0
						c-2.716,0-5.061,1.221-6.28,3.268c-0.976,1.645-1.15,3.654-0.489,5.656c0.698,2.117,2.223,3.96,4.297,5.191
						c1.047,0.622,1.391,1.974,0.77,3.021C656.756,912.297,656.022,912.682,655.27,912.682z"/>
				</g>
				<g>
					<path style="fill:#84524D;" d="M667.575,854.741c29.692-31.026,65.732-32.163,76.161-33.702
						c5.777-13.935,3.103-23.109,1.884-26.384c-6.96-18.712-36.148-32.403-70.01-24.781c2.649,0.32,15.265,5.465,17.055,9.14
						c-12.275-6.082-22.518-4.759-27.702-4.146c-23.77,2.807-44.21,24.58-50.883,56.347c0.902-1.877,6.314-9.894,12.344-12.532
						c-3.271,3.92-6.531,8.693-9.234,14.417c-11.759,24.897-4.587,50.004-1.601,58.798
						C619.443,885.469,635.275,859.785,667.575,854.741z"/>
					<path style="fill:#363E44;" d="M710.254,826.148c-0.207,0-0.415-0.028-0.619-0.088c-7.4-2.164-15.033-3.578-22.687-4.201
						c-6.127-0.504-12.345-0.504-18.487,0c-1.188,0.099-2.277-0.803-2.376-2.02c-0.099-1.214,0.804-2.278,2.018-2.377
						c6.378-0.519,12.838-0.519,19.203,0c6.198,0.506,12.384,1.509,18.451,2.993c-2.09-3.103-5.136-6.466-9.519-9.2
						c-6.06-3.783-12.058-4.703-16.022-4.806c-1.218-0.032-2.178-1.046-2.146-2.263c0.031-1.217,1.042-2.153,2.262-2.147
						c4.512,0.12,11.338,1.167,18.239,5.473c7.533,4.7,11.597,11.024,13.68,15.5c0.365,0.786,0.237,1.712-0.327,2.366
						C711.5,825.874,710.886,826.148,710.254,826.148z"/>
				</g>
			</g>
		</g>
		<g>
			<g>
				<path style="fill:#363E44;" d="M1532.231,1246.158c-5.751-34.12-33.843-58.862-53.036-75.766
					c-11.108-9.783-15.997-13.222-25.604-23.606c-16.028-17.325-18.107-25.867-33.325-29.43
					c-30.278-7.089-60.558,17.708-65.663,21.888c-29.942,24.52-25.286,49.793-45.459,56.403
					c-22.784,7.466-38.957-21.42-77.449-37.883c-41.296-17.662-105.54-19.853-144.796,14.311
					c-27.2,23.672-39.213,62.029-38.126,99.751c10.615-13.836,29.891-32.751,57.638-36.043c0,0-43.571,21.981-53.234,69.183
					c5.84,24.116,17.284,45.898,33.722,60.732c6.772,6.112,24.25,19.942,108.597,24.414c45.889,2.433,56.434-1.624,244.975-34.516
					c17.102-2.983,40.688-7.077,60.973-25.767C1522.174,1310.731,1537.613,1278.083,1532.231,1246.158z"/>
				<path style="fill:#40484C;" d="M1342.908,1291.102c-5.516,0-10.942-0.924-15.726-2.513
					c-14.329-4.765-25.864-14.469-37.392-24.841c-3.967-3.57-7.907-7.177-11.848-10.783c-14.407-13.188-29.305-26.826-45.387-38.33
					c-23.197-16.599-46.032-26.382-67.871-29.076c-26.263-3.243-51.857,4.293-68.465,20.156c-0.88,0.838-2.277,0.81-3.117-0.073
					c-0.841-0.881-0.809-2.276,0.072-3.118c17.553-16.762,44.486-24.74,72.05-21.34c22.578,2.784,46.094,12.833,69.897,29.864
					c16.297,11.661,31.295,25.39,45.798,38.666c3.931,3.598,7.861,7.196,11.82,10.757c11.167,10.047,22.311,19.436,35.833,23.932
					c12.211,4.063,28.982,3.411,38.914-7.196c0.832-0.889,2.229-0.935,3.117-0.101c0.889,0.831,0.934,2.226,0.102,3.116
					C1363.417,1288.001,1353.012,1291.102,1342.908,1291.102z"/>
				<path style="fill:#40484C;" d="M1321.524,1316.498c-6.759,0-13.512-0.937-20.01-2.849
					c-16.419-4.827-30.338-15.259-43.799-25.349c-2.447-1.835-4.89-3.665-7.341-5.46c-14.942-10.929-32.871-22.027-52.55-21.344
					c-1.248,0.127-2.237-0.913-2.279-2.127c-0.041-1.217,0.912-2.237,2.128-2.278c21.142-0.739,40.663,11.481,55.303,22.193
					c2.465,1.802,4.922,3.643,7.383,5.488c13.148,9.855,26.743,20.046,42.399,24.649c18.497,5.441,39.232,2.472,55.463-7.949
					c1.023-0.657,2.388-0.359,3.046,0.665c0.658,1.025,0.361,2.388-0.664,3.047
					C1349.012,1312.622,1335.263,1316.498,1321.524,1316.498z"/>
				<g>
					
						<ellipse transform="matrix(0.7071 -0.7071 0.7071 0.7071 -422.7042 1345.6296)" style="fill:#363E44;" cx="1412.967" cy="1183.064" rx="67.026" ry="67.026"/>
					<rect x="1380.338" y="1238.186" style="fill:#84524D;" width="66.696" height="114.829"/>
					<path style="fill:#84524D;" d="M1468.307,1207.432c0,35.704-24.728,73.366-55.232,73.366
						c-30.504,0-55.233-37.662-55.233-73.366c0-35.704,24.729-64.647,55.233-64.647
						C1443.578,1142.784,1468.307,1171.728,1468.307,1207.432z"/>
					<path style="fill:#363E44;" d="M1413.074,1283.002c-11.426,0-22.634-4.985-32.412-14.417c-0.876-0.846-0.901-2.241-0.056-3.118
						c0.847-0.874,2.241-0.902,3.118-0.056c8.94,8.623,19.09,13.182,29.351,13.182c11.167,0,22.066-5.318,31.518-15.378
						c0.835-0.889,2.232-0.93,3.117-0.097c0.888,0.833,0.931,2.229,0.098,3.116
						C1437.5,1277.203,1425.489,1283.002,1413.074,1283.002z"/>
					<path style="fill:#84524D;" d="M1367.803,1206.164c4.988,10.933,3.067,22.517-4.292,25.875
						c-7.359,3.358-17.367-2.783-22.356-13.716c-4.988-10.932-3.067-22.517,4.292-25.875
						C1352.806,1189.091,1362.815,1195.232,1367.803,1206.164z"/>
					<path style="fill:#363E44;" d="M1350.829,1222.968c-0.506,0-1.015-0.172-1.43-0.528c-1.902-1.623-3.509-3.796-4.644-6.283
						c-3.258-7.142-1.757-14.588,3.417-16.947c1.99-0.906,4.262-0.932,6.564-0.069c1.14,0.429,1.717,1.699,1.289,2.84
						c-0.427,1.141-1.702,1.714-2.839,1.29c-0.823-0.308-2.043-0.573-3.183-0.047c-2.827,1.29-3.392,6.373-1.236,11.104
						c0.87,1.903,2.079,3.551,3.495,4.758c0.927,0.79,1.037,2.181,0.247,3.109
						C1352.071,1222.705,1351.452,1222.968,1350.829,1222.968z"/>
					<path style="fill:#363E44;" d="M1361.561,1233.008c-0.925,0-1.786-0.586-2.093-1.511c-2.543-7.672-3.832-15.767-3.832-24.066
						c0-4.115,0.324-8.238,0.961-12.254c0.193-1.204,1.331-2.026,2.525-1.83c1.203,0.189,2.022,1.32,1.831,2.523
						c-0.603,3.787-0.908,7.676-0.908,11.56c0,7.824,1.213,15.455,3.608,22.679c0.383,1.156-0.243,2.403-1.399,2.786
						C1362.024,1232.971,1361.791,1233.008,1361.561,1233.008z"/>
					<path style="fill:#84524D;" d="M1457.752,1206.164c-4.988,10.933-3.067,22.517,4.292,25.875
						c7.359,3.358,17.367-2.783,22.356-13.716c4.988-10.932,3.067-22.517-4.292-25.875
						C1472.75,1189.091,1462.741,1195.232,1457.752,1206.164z"/>
					<path style="fill:#363E44;" d="M1474.726,1222.968c-0.623,0-1.242-0.263-1.678-0.773c-0.79-0.928-0.68-2.319,0.247-3.109
						c1.416-1.208,2.625-2.855,3.494-4.758c1.111-2.435,1.541-5.088,1.177-7.278c-0.182-1.102-0.739-3.064-2.413-3.826
						c-1.139-0.519-2.359-0.26-3.183,0.047c-1.138,0.422-2.41-0.149-2.839-1.29c-0.428-1.141,0.149-2.411,1.289-2.84
						c2.3-0.863,4.571-0.838,6.564,0.069c2.618,1.195,4.37,3.723,4.933,7.118c0.51,3.077-0.028,6.567-1.516,9.829
						c-1.136,2.487-2.742,4.659-4.644,6.283C1475.741,1222.793,1475.232,1222.968,1474.726,1222.968z"/>
					<path style="fill:#363E44;" d="M1463.994,1233.008c-0.229,0-0.463-0.037-0.693-0.112c-1.156-0.383-1.783-1.63-1.4-2.786
						c2.394-7.224,3.608-14.855,3.608-22.679c0-3.884-0.305-7.773-0.907-11.56c-0.191-1.203,0.629-2.334,1.832-2.523
						c1.196-0.194,2.332,0.627,2.524,1.83c0.637,4.016,0.961,8.139,0.961,12.254c0,8.298-1.289,16.394-3.832,24.066
						C1465.78,1232.422,1464.919,1233.008,1463.994,1233.008z"/>
					<path style="fill:#363E44;" d="M1414.178,1240.333c-0.729,0-1.443-0.362-1.863-1.021c-0.654-1.027-0.351-2.39,0.677-3.045
						c1.504-0.958,2.401-2.005,2.663-3.114c0.249-1.042-0.112-1.929-0.883-3.68c-0.603-1.367-1.353-3.068-1.786-5.29
						c-0.552-2.836-0.451-5.831,0.302-8.899c0.29-1.184,1.48-1.921,2.667-1.615c1.183,0.289,1.907,1.484,1.616,2.666
						c-0.6,2.444-0.686,4.802-0.257,7.004c0.339,1.738,0.926,3.068,1.493,4.356c0.856,1.94,1.74,3.947,1.138,6.479
						c-0.537,2.263-2.081,4.218-4.587,5.813C1414.993,1240.221,1414.583,1240.333,1414.178,1240.333z"/>
					<path style="fill:#84524D;" d="M1501.373,1347.078c0,0-39.782,41.454-88.855,41.454c-49.073,0-88.855-41.454-88.855-41.454
						s39.782-14.261,88.855-14.261C1461.591,1332.817,1501.373,1347.078,1501.373,1347.078z"/>
					<g>
						<g>
							<path style="fill:#FFFFFF;" d="M1452.799,1198.138l0,0.003l-0.143-0.015c-0.076,0.298-0.276,0.678-0.59,0.668
								c-0.376,0.447-0.549,1.169-0.802,1.645c-0.456,0.857-1.756,0.095-1.301-0.76c0.307-0.576-1.737,0.527-2.634,0.871
								c-2.858,1.099-5.754,2.069-8.687,2.949c-1.367,0.411-2.737,0.832-4.118,1.194c-1.107,0.291-4.764,1.443-5.053,1.271
								c-3.727,3.413-5.786,6.639-5.786,6.639s5.347,2.373,12.256,2.74c0.02-0.093,0.041-0.184,0.057-0.278
								c0.161-0.927,16.095-4.686,16.526-3.979c6.744-4.296,10.627-10.359,10.627-10.359S1458.762,1198.778,1452.799,1198.138z"/>
							<path style="fill:#363E44;" d="M1441.128,1199.058c-4.785,1.44-8.729,4.226-11.651,6.899
								c0.363,2.986,1.783,5.853,4.243,7.969c0.633,0.545,1.307,1.012,2.008,1.408c3.114,0.185,6.557-0.033,9.978-1.063
								c2.474-0.744,4.71-1.857,6.709-3.12c2.548-3.996,2.577-9.042,0.24-13.027
								C1449.156,1197.764,1445.129,1197.854,1441.128,1199.058z"/>
						</g>
						<g>
							<path style="fill:#FFFFFF;" d="M1374.689,1199.217l0,0.003l0.143-0.015c0.076,0.298,0.275,0.678,0.59,0.668
								c0.376,0.447,0.549,1.169,0.803,1.646c0.456,0.857,1.756,0.095,1.301-0.76c-0.307-0.576,1.737,0.527,2.634,0.871
								c2.858,1.099,5.755,2.068,8.687,2.949c1.368,0.41,2.737,0.832,4.118,1.194c1.107,0.291,4.764,1.443,5.054,1.271
								c3.727,3.413,5.785,6.638,5.785,6.638s-5.347,2.374-12.256,2.74c-0.019-0.093-0.041-0.184-0.057-0.278
								c-0.16-0.927-16.095-4.687-16.525-3.979c-6.744-4.296-10.627-10.359-10.627-10.359S1368.726,1199.857,1374.689,1199.217z"/>
							<path style="fill:#363E44;" d="M1386.359,1200.137c4.785,1.44,8.729,4.226,11.65,6.899c-0.363,2.986-1.783,5.853-4.243,7.969
								c-0.633,0.545-1.307,1.012-2.008,1.408c-3.114,0.185-6.557-0.033-9.978-1.063c-2.474-0.744-4.71-1.857-6.709-3.12
								c-2.548-3.996-2.577-9.042-0.24-13.027C1378.332,1198.843,1382.358,1198.933,1386.359,1200.137z"/>
						</g>
					</g>
					<path style="fill:#363E44;" d="M1357.842,1170.795c0,0,6.872-22.73,33.608-6.735c26.735,15.995,100.567,25.255,109.953-31.148
						c9.385-56.403-37.07-54.413-54.368-34.586c-17.298,19.827-24.739,45.996-55.585,44.458
						C1360.603,1141.247,1357.842,1170.795,1357.842,1170.795z"/>
					<path style="fill:#363E44;" d="M1419.389,1255.125c0,2.514-3.057,4.552-6.828,4.552c-3.771,0-6.828-2.038-6.828-4.552
						s3.057-4.552,6.828-4.552C1416.332,1250.573,1419.389,1252.611,1419.389,1255.125z"/>
				</g>
			</g>
			<path style="fill:#ff6900;" d="M1502.809,1687.244c0,0,85.421,201.033,58.588,473.467h-481.322l157.425-510.252
				L1502.809,1687.244z"/>
			<g>
				<g>
					<path style="fill:#84524D;" d="M1673.731,1353.124c0,0-15.454-148.875-18.083-228.367
						c-2.761-83.484-4.239-143.224,18.148-149.115c9.542-2.511,16.103,1.571,19.985,7.308c2.16-2.5,10.575-8.449,19.583-6.235
						c13.328,3.277,13.642,14.781,14.149,15.778c0.664-0.907,8.779-10.832,18.073-10.151c10.466,0.768,16.091,7.684,18.786,15.475
						c1.718-2.199,10.541-10.317,19.431-9.212c11.559,1.435,16.685,13.277,16.861,22.899c0.322,17.652,0.004,65.907,3.092,91.449
						c6.076,50.263,51.592,225.863,41.19,300.826C1786.752,1373.781,1673.731,1353.124,1673.731,1353.124z"/>
					<path style="fill:#363E44;" d="M1746.58,1049.521c-0.691,0-1.39-0.039-2.096-0.114c-6.476-0.693-12.77-7.026-15.547-14.708
						c-4.642,8.783-13.391,14.187-19.827,13.274c-8.768-1.227-14.106-8.15-15.866-20.575c-0.17-1.206,0.668-2.323,1.874-2.493
						c1.198-0.174,2.321,0.667,2.492,1.873c1.471,10.389,5.432,15.895,12.111,16.829c5.948,0.807,15.162-6.692,17.439-16.663
						c0.266-1.163,1.367-1.962,2.55-1.854c1.188,0.108,2.123,1.087,2.175,2.28c0.382,8.24,6.856,16.988,13.068,17.654
						c8.327,0.911,15.183-5.004,17.081-14.674c0.239-1.219,1.327-2.099,2.546-2.007c1.237,0.056,2.227,0.995,2.354,2.231
						c0.674,6.406,4.67,13.347,10.19,13.862c5.831,0.568,13.481-3.54,15.88-16.844c0.215-1.197,1.365-1.994,2.56-1.779
						c1.199,0.218,1.995,1.363,1.779,2.562c-2.741,15.201-12.346,21.208-20.629,20.453c-5.84-0.547-10.206-5.406-12.491-11.108
						C1760.717,1045.025,1754.16,1049.521,1746.58,1049.521z M1762.55,1031.03c0,0.002,0.001,0.004,0.001,0.006
						C1762.551,1031.034,1762.55,1031.032,1762.55,1031.03z M1727.481,1027.568c0,0.004,0.001,0.009,0.001,0.013
						C1727.482,1027.576,1727.481,1027.572,1727.481,1027.568z"/>
					<g>
						<path style="fill:#84524D;" d="M1668.812,1046.629c5.034-6.468,32.289-41.052,42.472-35.877
							c11.96,6.079-6.727,63.413-8.219,67.919L1668.812,1046.629z"/>
						<path style="fill:#373E44;" d="M1703.065,1080.875c-0.229,0-0.463-0.037-0.692-0.112c-1.156-0.381-1.784-1.63-1.401-2.786
							c9.611-29.046,16.14-61.791,9.312-65.26c-5.269-2.67-21.235,11.5-39.733,35.266c-0.748,0.96-2.134,1.135-3.094,0.385
							c-0.96-0.747-1.134-2.134-0.385-3.094c15.128-19.439,35.244-41.538,45.211-36.489c12.89,6.55-2.194,55.676-7.125,70.578
							C1704.852,1080.29,1703.99,1080.875,1703.065,1080.875z"/>
					</g>
					<path style="fill:#363E44;" d="M1763.15,1018.105c-0.05,0-0.1-0.002-0.151-0.004c-1.215-0.084-2.134-1.135-2.051-2.349
						l1.224-18.082c0.083-1.217,1.138-2.112,2.348-2.052c1.215,0.084,2.134,1.135,2.051,2.349l-1.224,18.082
						C1765.268,1017.213,1764.299,1018.105,1763.15,1018.105z"/>
					<path style="fill:#363E44;" d="M1726.623,1016.925c-0.029,0-0.059,0-0.089-0.002c-1.217-0.047-2.164-1.074-2.114-2.291
						l0.891-22.227c0.049-1.214,1.056-2.162,2.291-2.114c1.217,0.047,2.164,1.074,2.114,2.291l-0.891,22.227
						C1728.777,1015.995,1727.8,1016.925,1726.623,1016.925z"/>
					<path style="fill:#363E44;" d="M1694.057,1013.391c-1.199,0-2.182-0.963-2.204-2.166l-0.411-23.523
						c-0.021-1.219,0.948-2.222,2.166-2.244c1.239-0.062,2.222,0.95,2.244,2.166l0.411,23.523c0.02,1.219-0.948,2.222-2.166,2.244
						C1694.084,1013.391,1694.07,1013.391,1694.057,1013.391z"/>
				</g>
				<g>
					<path style="fill:#EFBC73;" d="M1656.515,1259.21l4.713,70.696c-49.457,29.94-93.054,39.451-150.864,38.773
						c-115.416-5.568-182.481-10.897-307.518-3.426c-60.047,3.588-167.914,51.424-214.444,89.548
						c-66.06,54.127-128.987,104.833-40.061,100.854l207.505,19.456l-17.674,122.376c0,0,345.471,65.188,514.101-7.279
						l-37.163-115.384l213.432-124.736c37.705-23.565,30.635-71.874,5.891-215.622L1656.515,1259.21z"/>
					<path style="fill:#363E44;" d="M1157.136,1571.525c-0.124,0-0.251-0.011-0.378-0.032c-1.2-0.207-2.004-1.348-1.797-2.549
						l11.632-67.26c0.207-1.199,1.339-2.002,2.548-1.796c1.2,0.207,2.005,1.348,1.797,2.549l-11.632,67.26
						C1159.122,1570.769,1158.189,1571.525,1157.136,1571.525z"/>
					<path style="fill:#363E44;" d="M1610.553,1566.954c-0.869,0-1.692-0.517-2.041-1.369l-18.365-44.871
						c-0.462-1.128,0.078-2.414,1.205-2.877c1.129-0.459,2.416,0.082,2.876,1.206l18.365,44.871
						c0.462,1.128-0.077,2.414-1.205,2.877C1611.114,1566.902,1610.831,1566.954,1610.553,1566.954z"/>
					<path style="fill:#EFBC73;" d="M1518.969,1372.862c0,0,10.813-24.224-5.297-40.882l-196.811-4.348
						c0,0-19.72,16.449-9.496,44.581L1518.969,1372.862z"/>
					<path style="fill:#363E44;" d="M1662.404,1361.568c-1.168,0-2.142-0.917-2.201-2.097l-2.357-48.308
						c-0.059-1.216,0.878-2.25,2.095-2.31c1.18-0.097,2.25,0.876,2.31,2.095l2.357,48.308c0.059,1.216-0.878,2.25-2.095,2.31
						C1662.477,1361.568,1662.441,1361.568,1662.404,1361.568z"/>
				</g>
				<g>
					<path style="fill:#FFFFFF;" d="M1358.093,1577.031c-0.153,0-0.308-0.015-0.461-0.05c-0.801-0.17-1.441-0.771-1.662-1.559
						l-57.59-205.109c-0.328-1.173,0.354-2.39,1.527-2.719c1.171-0.329,2.39,0.353,2.719,1.526l56.457,201.073L1525.27,1370.8
						c0.778-0.937,2.168-1.059,3.105-0.282c0.936,0.779,1.062,2.17,0.282,3.107l-168.871,202.613
						C1359.363,1576.746,1358.739,1577.031,1358.093,1577.031z"/>
					<path style="fill:#FFFFFF;" d="M1353.777,1614.45c-9.015,0-16.35-7.334-16.35-16.349c0-9.015,7.335-16.351,16.35-16.351
						c9.015,0,16.35,7.336,16.35,16.351C1370.127,1607.116,1362.792,1614.45,1353.777,1614.45z M1353.777,1586.16
						c-6.584,0-11.94,5.357-11.94,11.941s5.356,11.939,11.94,11.939c6.584,0,11.94-5.355,11.94-11.939
						S1360.361,1586.16,1353.777,1586.16z"/>
					<path style="fill:#FFFFFF;" d="M1403.267,1426.143c-3.06,0-6.184-0.08-9.387-0.245c-85.304-4.442-85.367-55.702-85.358-56.219
						c0.023-1.219,1.059-2.097,2.245-2.166c1.218,0.022,2.187,1.027,2.165,2.244c-0.025,1.934,0.333,47.529,81.177,51.736
						c81.738,4.291,114.526-49.342,114.849-49.884c0.622-1.044,1.972-1.393,3.02-0.773s1.394,1.97,0.775,3.019
						C1512.431,1374.396,1480.921,1426.143,1403.267,1426.143z"/>
				</g>
				<g>
					<rect x="1185.923" y="945.363" style="fill:#D87355;" width="22.238" height="691.951"/>
					
						<ellipse transform="matrix(0.7071 -0.7071 0.7071 0.7071 -373.0839 1147.0037)" style="fill:#D87355;" cx="1198.014" cy="1023.854" rx="178.69" ry="178.69"/>
					<circle style="fill:#F7F1EB;" cx="1199.205" cy="1021.086" r="146.526"/>
					
						<rect x="1189.032" y="853.501" transform="matrix(0.8301 0.5576 -0.5576 0.8301 772.8608 -497.739)" style="fill:#D87355;" width="28.59" height="332.122"/>
				</g>
				<g>
					<path style="fill:#84524D;" d="M871.754,1567.916c24.148-38.236,56.159-60.906,98.54-76.684
						c72.03-26.815,165.012-63.526,176.625-67.599c28.152-9.874,87.56-32.586,98.17-15.079c3.529,5.823,2.966,13.857-1.014,20.959
						c8.393,2.413,14.51,9.471,15.467,17.779c1.258,10.918-7.078,18.057-7.699,18.571c6.69,1,12.349,5.17,14.454,10.959
						c2.904,7.988-1.312,18.082-10.602,22.487c1.515,1.175,6.766,5.548,7.911,12.906c1.269,8.154-3.018,16.68-10.88,21.552
						c-25.005,8.793-61.741,28.871-107.145,50.208c-106.636,50.111-136.022,64.664-192.528,77.023
						C935.809,1664.77,813.448,1661.76,871.754,1567.916C871.986,1567.542,871.521,1568.284,871.754,1567.916z"/>
					<path style="fill:#363E44;" d="M959.581,1496.792c-0.894,0-1.735-0.547-2.066-1.434c-0.425-1.141,0.155-2.411,1.296-2.838
						l30.185-11.252c53.094-19.796,113.274-42.232,121.21-45.04c1.147-0.409,2.407,0.194,2.814,1.341
						c0.406,1.15-0.195,2.409-1.344,2.814c-7.902,2.797-68.062,25.226-121.14,45.016l-30.186,11.255
						C960.098,1496.746,959.838,1496.792,959.581,1496.792z"/>
					<g>
						<path style="fill:#363E44;" d="M1208.483,1433.573c-0.966,0-1.852-0.637-2.123-1.613l-3.525-12.646
							c-0.326-1.173,0.36-2.39,1.532-2.715c1.177-0.327,2.39,0.357,2.716,1.531l3.525,12.645c0.326,1.173-0.36,2.39-1.532,2.715
							C1208.878,1433.547,1208.678,1433.573,1208.483,1433.573z"/>
						<path style="fill:#363E44;" d="M1217.471,1465.651c-0.966,0-1.852-0.637-2.123-1.613l-3.525-12.648
							c-0.326-1.173,0.36-2.39,1.532-2.715c1.176-0.332,2.391,0.357,2.716,1.531l3.525,12.648c0.326,1.173-0.359,2.39-1.532,2.715
							C1217.866,1465.625,1217.667,1465.651,1217.471,1465.651z"/>
						<path style="fill:#363E44;" d="M1226.982,1498.213c-0.966,0-1.852-0.637-2.123-1.613l-3.525-12.648
							c-0.326-1.173,0.359-2.39,1.532-2.715c1.173-0.329,2.39,0.36,2.716,1.531l3.525,12.648c0.326,1.173-0.36,2.39-1.532,2.715
							C1227.377,1498.187,1227.178,1498.213,1226.982,1498.213z"/>
						<path style="fill:#363E44;" d="M1235.001,1527.92c-0.965,0-1.851-0.637-2.123-1.613l-3.525-12.645
							c-0.327-1.173,0.359-2.39,1.532-2.715c1.171-0.329,2.389,0.357,2.716,1.531l3.525,12.645c0.327,1.174-0.359,2.388-1.532,2.715
							C1235.396,1527.894,1235.197,1527.92,1235.001,1527.92z"/>
					</g>
				</g>
			</g>
		</g>
	</g>
</g>
</svg>
