<?xml version="1.0" encoding="utf-8"?>
<!-- Generator: Adobe Illustrator 27.5.0, SVG Export Plug-In . SVG Version: 6.00 Build 0)  -->
<svg version="1.1" xmlns="http://www.w3.org/2000/svg" xmlns:xlink="http://www.w3.org/1999/xlink" x="0px" y="0px"
	 viewBox="0 0 2500 2500" style="enable-background:new 0 0 2500 2500;" xml:space="preserve">
-
<g id="Illustration">
	<g id="Family_planning_1_">
		<circle style="fill:transparent;" cx="1250.304" cy="1250" r="915"/>
		<g>
			<path style="fill:#E6D0BE;" d="M2061.23,1264.569l-107.288-8.908l128.953-30.963c84.604-164.771,103.347-318.199,39.014-356.226
				c-71.007-41.972-216.332,72.537-324.593,255.764c-108.26,183.226-138.459,365.786-67.452,407.758
				c71.007,41.972,216.332-72.537,324.593-255.763C2056.754,1272.343,2059.003,1268.455,2061.23,1264.569z"/>
			<g>
				<path style="fill:#D3BBA3;" d="M1880.479,1027.22c12.046-92.341,12.502-179.005,3.463-250.442l-90.102,99.574l79.507-159.29
					c-17.47-73.871-47.768-121.606-87.311-126.541c-82.283-10.269-173.406,168.598-203.531,399.511
					c-30.123,230.913,12.16,426.429,94.443,436.698C1759.231,1437,1850.355,1258.133,1880.479,1027.22z"/>
				<path style="fill:#E6D0BE;" d="M1525.702,1917.35c-0.256,0-0.517-0.045-0.77-0.14c-1.141-0.425-1.721-1.694-1.296-2.836
					c141.694-380.105,201.098-696.674,225.981-895.311c26.951-215.15,20.327-341.994,20.257-343.25
					c-0.068-1.215,0.863-2.256,2.079-2.324c1.2-0.066,2.256,0.861,2.324,2.079c0.07,1.26,6.716,128.503-20.285,344.043
					c-24.912,198.869-84.382,515.8-226.224,896.302C1527.438,1916.801,1526.596,1917.35,1525.702,1917.35z"/>
			</g>
			<path style="fill:#F7F1EB;" d="M1539.424,1925.436c-0.281,0-0.568-0.055-0.844-0.17c-1.125-0.466-1.658-1.757-1.191-2.881
				c225.234-542.415,483.788-919.443,486.374-923.188c0.691-1.001,2.062-1.256,3.066-0.561c1.002,0.691,1.254,2.065,0.562,3.066
				c-2.583,3.742-260.884,380.415-485.93,922.374C1541.109,1924.924,1540.289,1925.436,1539.424,1925.436z"/>
			<g>
				<path style="fill:#E6D0BE;" d="M1433.849,1190.916l74.645,30.842l-75.635-63.371c-0.804-132.754,38.533-235.964,94.338-238.1
					c61.595-2.358,119.927,119.31,130.289,271.753c10.362,152.443-31.171,277.934-92.766,280.291
					c-61.595,2.358-119.928-119.31-130.289-271.753C1434.21,1197.344,1434.023,1194.126,1433.849,1190.916z"/>
				<path style="fill:#F7F1EB;" d="M1506.828,1935.145c-0.197,0-0.397-0.027-0.596-0.083c-1.172-0.329-1.856-1.546-1.528-2.718
					c68.795-245.121,76.677-476.651,71.173-627.718c-6.117-167.934-29.431-277.367-32.714-283.266
					c-0.793-0.924-0.622-2.229,0.301-3.021c0.925-0.794,2.383-0.597,3.174,0.325c3.882,4.525,27.218,116.425,33.521,282.472
					c5.777,152.167-1.888,385.402-71.21,632.399C1508.676,1934.507,1507.791,1935.145,1506.828,1935.145z"/>
			</g>
		</g>
		<g>
			<path style="fill:#84524D;" d="M1397.366,993.766c-0.001,0-0.002,0-0.004,0l-421.226-0.726c-1.217-0.002-2.203-0.99-2.201-2.208
				l0.846-530.89c0.001-0.585,0.234-1.146,0.648-1.559c0.413-0.411,0.973-0.643,1.557-0.643c0.001,0,0.002,0,0.004,0l421.227,0.726
				c1.218,0.002,2.203,0.99,2.201,2.208l-0.847,530.89c-0.001,0.586-0.234,1.145-0.648,1.559
				C1398.51,993.534,1397.95,993.766,1397.366,993.766z M978.348,988.635l416.816,0.718l0.841-526.481l-416.817-0.718
				L978.348,988.635z"/>
			<g>
				<path style="fill:#363E44;" d="M1404.444,496.735c-8.576,0-16.636-3.458-22.703-9.741c-6.058-6.272-9.402-14.615-9.416-23.49
					c-0.03-18.352,14.355-33.308,32.066-33.339c8.6-0.088,16.677,3.445,22.758,9.741c6.057,6.272,9.402,14.615,9.416,23.49
					c0.029,18.352-14.356,33.308-32.066,33.339C1404.48,496.735,1404.462,496.735,1404.444,496.735z M1404.446,434.575
					c-0.016,0-0.031,0-0.047,0c-15.28,0.027-27.689,13.002-27.664,28.923c0.012,7.729,2.917,14.985,8.178,20.433
					c5.228,5.414,12.163,8.394,19.531,8.394c0.016,0,0.031,0,0.047,0c15.279-0.027,27.688-13.002,27.664-28.923
					c-0.013-7.729-2.917-14.985-8.179-20.433C1418.748,437.555,1411.813,434.575,1404.446,434.575z"/>
				<path style="fill:#363E44;" d="M1360.428,496.81c-8.576,0-16.636-3.458-22.703-9.74c-6.058-6.272-9.402-14.614-9.416-23.49
					c-0.03-18.353,14.355-33.309,32.067-33.339c0.018,0,0.038,0,0.056,0c8.574,0,16.633,3.457,22.701,9.74
					c6.057,6.272,9.402,14.614,9.416,23.49c0.029,18.353-14.356,33.309-32.067,33.339
					C1360.464,496.81,1360.446,496.81,1360.428,496.81z M1360.431,434.651c-0.016,0-0.031,0-0.047,0
					c-15.281,0.026-27.69,13.001-27.665,28.923c0.012,7.729,2.916,14.985,8.178,20.433c5.228,5.413,12.163,8.393,19.531,8.393
					c0.016,0,0.031,0,0.047,0c15.279-0.026,27.688-13.001,27.664-28.923c-0.013-7.729-2.917-14.985-8.179-20.433
					C1374.732,437.631,1367.798,434.651,1360.431,434.651z"/>
				<path style="fill:#363E44;" d="M1316.41,496.885c-8.575,0-16.634-3.457-22.701-9.74c-6.058-6.272-9.402-14.615-9.416-23.49
					c-0.03-18.353,14.355-33.309,32.067-33.339c0.017,0,0.036,0,0.054,0c8.575,0,16.635,3.458,22.703,9.74
					c6.057,6.272,9.402,14.615,9.416,23.49c0.029,18.353-14.356,33.309-32.067,33.339
					C1316.448,496.885,1316.428,496.885,1316.41,496.885z M1316.414,434.726c-0.016,0-0.031,0-0.047,0
					c-15.28,0.026-27.689,13.001-27.664,28.923c0.012,7.729,2.916,14.985,8.178,20.433c5.228,5.413,12.162,8.393,19.53,8.393
					c0.016,0,0.031,0,0.047,0c15.28-0.026,27.689-13.001,27.665-28.923c-0.013-7.729-2.917-14.985-8.179-20.433
					C1330.717,437.706,1323.781,434.726,1316.414,434.726z"/>
				<path style="fill:#363E44;" d="M1272.397,496.962c-8.575,0-16.636-3.458-22.704-9.741c-6.057-6.272-9.402-14.614-9.416-23.49
					c-0.029-18.352,14.356-33.308,32.066-33.339c0.018,0,0.037,0,0.055,0c8.575,0,16.636,3.458,22.704,9.741
					c6.057,6.272,9.402,14.614,9.416,23.49c0.029,18.352-14.356,33.308-32.066,33.339
					C1272.433,496.962,1272.415,496.962,1272.397,496.962z M1244.687,463.725c0.013,7.729,2.918,14.985,8.179,20.433
					c5.228,5.414,12.163,8.394,19.531,8.394c0.016,0,0.031,0,0.047,0c15.279-0.027,27.688-13.002,27.664-28.923
					c-0.013-7.729-2.917-14.985-8.179-20.433c-5.228-5.414-12.163-8.394-19.531-8.394c-0.016,0-0.031,0-0.047,0
					C1257.072,434.829,1244.662,447.803,1244.687,463.725z"/>
				<path style="fill:#363E44;" d="M1228.378,497.037c-8.574,0-16.633-3.457-22.701-9.74c-6.057-6.272-9.402-14.615-9.416-23.49
					c-0.029-18.353,14.356-33.309,32.067-33.339c0.018,0,0.038,0,0.056,0c8.575,0,16.634,3.457,22.702,9.74
					c6.057,6.272,9.402,14.615,9.416,23.49c0.029,18.353-14.356,33.309-32.068,33.339
					C1228.415,497.037,1228.396,497.037,1228.378,497.037z M1200.671,463.801c0.013,7.729,2.917,14.985,8.179,20.433
					c5.228,5.413,12.162,8.393,19.529,8.393c0.016,0,0.031,0,0.047,0c15.28-0.026,27.691-13.001,27.666-28.923
					c-0.013-7.729-2.917-14.985-8.179-20.433c-5.228-5.413-12.162-8.393-19.53-8.393c-0.016,0-0.031,0-0.047,0
					C1213.056,434.904,1200.646,447.879,1200.671,463.801z"/>
				<path style="fill:#363E44;" d="M1184.364,497.114c-8.575,0-16.635-3.458-22.703-9.741c-6.057-6.272-9.402-14.614-9.416-23.49
					c-0.029-18.352,14.356-33.308,32.066-33.339c0.018,0,0.037,0,0.055,0c8.576,0,16.636,3.458,22.703,9.74
					c6.058,6.273,9.402,14.616,9.416,23.491c0.03,18.352-14.355,33.308-32.066,33.339
					C1184.401,497.114,1184.383,497.114,1184.364,497.114z M1156.656,463.877c0.013,7.729,2.917,14.985,8.179,20.433
					c5.228,5.414,12.163,8.394,19.53,8.394c0.016,0,0.031,0,0.047,0c15.28-0.027,27.689-13.002,27.664-28.923
					c-0.012-7.729-2.916-14.986-8.178-20.433c-5.228-5.414-12.163-8.394-19.531-8.394c-0.016,0-0.031,0-0.047,0
					C1169.04,434.98,1156.631,447.955,1156.656,463.877z"/>
				<path style="fill:#363E44;" d="M1140.349,497.189c-8.575,0-16.635-3.458-22.703-9.74c-6.057-6.272-9.402-14.615-9.416-23.49
					c-0.029-18.353,14.356-33.309,32.067-33.339c0.018,0,0.038,0,0.056,0c8.575,0,16.634,3.457,22.701,9.74
					c6.058,6.272,9.402,14.615,9.416,23.49c0.03,18.353-14.355,33.309-32.067,33.339
					C1140.385,497.189,1140.367,497.189,1140.349,497.189z M1112.64,463.953c0.013,7.729,2.917,14.985,8.179,20.433
					c5.24,5.425,12.283,8.402,19.578,8.393c15.28-0.026,27.689-13.001,27.664-28.923c-0.012-7.729-2.916-14.985-8.178-20.433
					c-5.24-5.425-12.138-8.491-19.578-8.393C1125.025,435.056,1112.615,448.031,1112.64,463.953z"/>
				<path style="fill:#363E44;" d="M1096.331,497.264c-8.574,0-16.633-3.457-22.701-9.74c-6.057-6.272-9.402-14.614-9.416-23.49
					c-0.029-18.353,14.356-33.309,32.067-33.339c0.018,0,0.038,0,0.056,0c8.575,0,16.634,3.457,22.701,9.74
					c6.058,6.272,9.402,14.614,9.416,23.49c0.03,18.353-14.355,33.309-32.067,33.339
					C1096.369,497.264,1096.349,497.264,1096.331,497.264z M1068.624,464.029c0.013,7.729,2.918,14.985,8.179,20.433
					c5.228,5.413,12.162,8.393,19.529,8.393c0.016,0,0.031,0,0.047,0c15.281-0.026,27.691-13.001,27.665-28.923
					c-0.012-7.729-2.917-14.985-8.178-20.433c-5.228-5.413-12.162-8.393-19.53-8.393c-0.016,0-0.031,0-0.047,0
					C1081.009,435.131,1068.599,448.106,1068.624,464.029z"/>
				<path style="fill:#363E44;" d="M1052.317,497.341c-8.575,0-16.635-3.458-22.703-9.741c-6.058-6.272-9.402-14.615-9.416-23.49
					c-0.029-18.352,14.356-33.308,32.066-33.339c0.018,0,0.036,0,0.055,0c8.575,0,16.635,3.458,22.703,9.741
					c6.058,6.272,9.402,14.615,9.416,23.49c0.03,18.352-14.355,33.308-32.066,33.339
					C1052.354,497.341,1052.336,497.341,1052.317,497.341z M1052.319,435.181c-0.016,0-0.031,0-0.047,0
					c-15.279,0.027-27.688,13.002-27.664,28.923c0.012,7.729,2.917,14.985,8.178,20.433c5.229,5.414,12.164,8.394,19.531,8.394
					c0.016,0,0.031,0,0.047,0c15.28-0.027,27.689-13.002,27.664-28.923c-0.012-7.729-2.916-14.985-8.178-20.433
					C1066.622,438.161,1059.687,435.181,1052.319,435.181z"/>
			</g>
			
				<rect x="996.649" y="458.108" transform="matrix(1 0.0017 -0.0017 1 1.2321 -2.1102)" style="fill:#EFBC73;" width="454.333" height="510.031"/>
			
				<rect x="1017.177" y="522.129" transform="matrix(1 0.0017 -0.0017 1 1.2725 -2.1113)" style="fill:#F7F1EB;" width="414.768" height="428.906"/>
			<ellipse style="fill:#FFFFFF;" cx="1371.577" cy="487.648" rx="14.101" ry="14.65"/>
			<path style="fill:#FFFFFF;" d="M1313.46,487.748c0.013,8.091,6.336,14.639,14.124,14.626c7.788-0.014,14.09-6.583,14.078-14.674
				c-0.013-8.091-6.337-14.639-14.124-14.626C1319.75,473.087,1313.447,479.657,1313.46,487.748z"/>
			<ellipse style="fill:#FFFFFF;" cx="1283.545" cy="487.8" rx="14.101" ry="14.65"/>
			<ellipse style="fill:#FFFFFF;" cx="1239.53" cy="487.875" rx="14.101" ry="14.65"/>
			<ellipse style="fill:#FFFFFF;" cx="1195.514" cy="487.951" rx="14.101" ry="14.65"/>
			<ellipse style="fill:#FFFFFF;" cx="1151.498" cy="488.027" rx="14.101" ry="14.65"/>
			<ellipse style="fill:#FFFFFF;" cx="1107.483" cy="488.103" rx="14.101" ry="14.65"/>
			<ellipse style="fill:#FFFFFF;" cx="1063.467" cy="488.179" rx="14.101" ry="14.65"/>
			<ellipse style="fill:#FFFFFF;" cx="1019.451" cy="488.254" rx="14.101" ry="14.65"/>
			<path style="fill:#363E44;" d="M1410.042,496.191c-1.032,0-1.954-0.728-2.161-1.78c-0.236-1.194,0.542-2.353,1.738-2.588
				c13.079-2.574,22.557-14.527,22.536-28.421c-0.013-7.729-2.917-14.985-8.179-20.433c-5.228-5.414-12.163-8.394-19.531-8.394
				c-0.016,0-0.027,0.004-0.049,0c-1.217,0-2.203-0.985-2.205-2.202c-0.002-1.235,0.948-2.213,2.255-2.208
				c8.575,0,16.635,3.458,22.703,9.741c6.057,6.272,9.402,14.615,9.416,23.49c0.025,15.999-10.95,29.775-26.095,32.754
				C1410.326,496.178,1410.183,496.191,1410.042,496.191z"/>
			<path style="fill:#363E44;" d="M1366.026,496.267c-1.032,0-1.954-0.728-2.161-1.78c-0.236-1.195,0.543-2.353,1.738-2.589
				c13.079-2.572,22.557-14.525,22.536-28.421c-0.013-7.729-2.917-14.985-8.179-20.433c-5.228-5.413-12.162-8.393-19.529-8.393
				c-0.018-0.001-0.048-0.005-0.052,0c-1.217,0-2.203-0.985-2.205-2.201c-0.002-1.236,1.014-2.22,2.258-2.209
				c8.574,0,16.633,3.457,22.701,9.74c6.057,6.272,9.402,14.614,9.416,23.49c0.025,16-10.95,29.776-26.095,32.754
				C1366.31,496.254,1366.167,496.267,1366.026,496.267z"/>
			<path style="fill:#363E44;" d="M1322.009,496.343c-1.032,0-1.954-0.728-2.161-1.78c-0.236-1.194,0.543-2.353,1.738-2.588
				c13.08-2.574,22.558-14.527,22.537-28.423c-0.013-7.729-2.917-14.985-8.179-20.433c-5.228-5.413-12.163-8.393-19.531-8.393
				c-0.016,0-0.033,0.008-0.05,0c-1.216,0-2.203-0.985-2.205-2.202c-0.002-1.235,0.922-2.211,2.255-2.208
				c8.575,0,16.635,3.458,22.703,9.74c6.057,6.272,9.402,14.615,9.416,23.49c0.025,16-10.95,29.775-26.096,32.755
				C1322.294,496.33,1322.15,496.343,1322.009,496.343z"/>
			<path style="fill:#363E44;" d="M1277.994,496.418c-1.032,0-1.954-0.728-2.161-1.78c-0.236-1.195,0.543-2.353,1.738-2.589
				c13.08-2.572,22.559-14.525,22.537-28.421c-0.013-7.729-2.917-14.985-8.179-20.433c-5.228-5.414-12.163-8.394-19.532-8.394
				c-0.016,0-0.027,0.001-0.05,0c-1.216,0-2.203-0.985-2.205-2.202c-0.002-1.235,0.909-2.209,2.255-2.208
				c8.575,0,16.636,3.458,22.704,9.741c6.057,6.272,9.402,14.614,9.416,23.49c0.025,16-10.95,29.776-26.096,32.754
				C1278.278,496.405,1278.135,496.418,1277.994,496.418z"/>
			<path style="fill:#363E44;" d="M1233.978,496.494c-1.032,0-1.954-0.728-2.161-1.78c-0.236-1.195,0.543-2.353,1.738-2.589
				c13.08-2.572,22.558-14.525,22.537-28.42c-0.013-7.729-2.917-14.985-8.179-20.433c-5.228-5.413-12.162-8.393-19.53-8.393
				c-0.018-0.001-0.047-0.004-0.052,0c-1.217,0-2.203-0.985-2.205-2.201c-0.002-1.236,0.966-2.155,2.258-2.209
				c8.575,0,16.634,3.457,22.702,9.74c6.057,6.272,9.402,14.615,9.416,23.49c0.025,16-10.95,29.776-26.096,32.754
				C1234.262,496.481,1234.119,496.494,1233.978,496.494z"/>
			<path style="fill:#363E44;" d="M1189.962,496.57c-1.032,0-1.954-0.728-2.161-1.78c-0.236-1.194,0.543-2.353,1.738-2.588
				c13.08-2.574,22.558-14.527,22.536-28.421c-0.012-7.729-2.916-14.986-8.178-20.433c-5.228-5.414-12.163-8.394-19.532-8.394
				c-0.016,0-0.033,0.004-0.05,0c-1.217,0-2.203-0.985-2.205-2.202c-0.002-1.235,0.958-2.207,2.255-2.208
				c8.576,0,16.636,3.458,22.703,9.74c6.058,6.273,9.402,14.616,9.416,23.491c0.026,15.999-10.949,29.774-26.095,32.754
				C1190.247,496.557,1190.104,496.57,1189.962,496.57z"/>
			<path style="fill:#363E44;" d="M1145.947,496.646c-1.032,0-1.954-0.728-2.161-1.78c-0.236-1.195,0.543-2.353,1.738-2.589
				c13.08-2.572,22.558-14.525,22.536-28.42c-0.012-7.729-2.916-14.985-8.178-20.433c-5.24-5.425-12.138-8.491-19.578-8.393
				c-0.002,0-0.003,0-0.004,0c-1.216,0-2.203-0.985-2.205-2.201c-0.002-1.236,0.957-2.162,2.257-2.209
				c8.575,0,16.634,3.457,22.701,9.74c6.058,6.272,9.402,14.615,9.416,23.49c0.026,16-10.949,29.775-26.095,32.754
				C1146.231,496.633,1146.088,496.646,1145.947,496.646z"/>
			<path style="fill:#363E44;" d="M1101.931,496.721c-1.032,0-1.954-0.728-2.161-1.78c-0.236-1.195,0.543-2.353,1.738-2.589
				c13.08-2.572,22.559-14.525,22.536-28.42c-0.012-7.729-2.917-14.985-8.178-20.433c-5.228-5.413-12.162-8.393-19.53-8.393
				c-0.018,0-0.047-0.002-0.052,0c-1.217,0-2.203-0.985-2.205-2.201c-0.001-1.236,0.989-2.165,2.258-2.209
				c8.575,0,16.634,3.457,22.701,9.74c6.058,6.272,9.402,14.614,9.416,23.49c0.026,16-10.949,29.775-26.095,32.754
				C1102.215,496.708,1102.072,496.721,1101.931,496.721z"/>
			<path style="fill:#363E44;" d="M1057.916,496.797c-1.032,0-1.954-0.728-2.161-1.78c-0.236-1.194,0.543-2.353,1.738-2.588
				c13.08-2.574,22.558-14.527,22.536-28.422c-0.012-7.729-2.916-14.985-8.178-20.433c-5.229-5.414-12.164-8.394-19.532-8.394
				c-0.016,0-0.034,0.001-0.049,0c-1.217,0-2.203-0.985-2.205-2.202c-0.002-1.234,0.917-2.202,2.255-2.208
				c8.575,0,16.635,3.458,22.703,9.741c6.058,6.272,9.402,14.615,9.416,23.49c0.026,15.999-10.949,29.774-26.095,32.754
				C1058.2,496.784,1058.057,496.797,1057.916,496.797z"/>
			<g>
				
					<rect x="1370.205" y="612.178" transform="matrix(-1 -1.224647e-16 1.224647e-16 -1 2782.7151 1268.3075)" style="fill:#E6D0BE;" width="42.304" height="43.952"/>
				
					<rect x="1285.52" y="612.178" transform="matrix(-1 -1.224647e-16 1.224647e-16 -1 2613.3447 1268.3075)" style="fill:#E6D0BE;" width="42.304" height="43.952"/>
				
					<rect x="1200.835" y="612.178" transform="matrix(-1 -1.224647e-16 1.224647e-16 -1 2443.9746 1268.3075)" style="fill:#E6D0BE;" width="42.304" height="43.952"/>
				<path style="fill:#E6D0BE;" d="M1158.454,658.335h-42.305c-1.218,0-2.205-0.987-2.205-2.205v-43.952
					c0-1.218,0.987-2.205,2.205-2.205h42.305c1.218,0,2.205,0.987,2.205,2.205v43.952
					C1160.659,657.348,1159.672,658.335,1158.454,658.335z M1118.354,653.925h37.895v-39.542h-37.895V653.925z"/>
				
					<rect x="1370.205" y="700.161" transform="matrix(-1 -1.224647e-16 1.224647e-16 -1 2782.7151 1444.274)" style="fill:#E2A18D;" width="42.304" height="43.952"/>
				
					<rect x="1285.52" y="700.161" transform="matrix(-1 -1.224647e-16 1.224647e-16 -1 2613.3447 1444.274)" style="fill:#E6D0BE;" width="42.304" height="43.952"/>
				
					<rect x="1200.835" y="700.161" transform="matrix(-1 -1.224647e-16 1.224647e-16 -1 2443.9746 1444.274)" style="fill:#E6D0BE;" width="42.304" height="43.952"/>
				
					<rect x="1116.15" y="700.161" transform="matrix(-1 -1.224647e-16 1.224647e-16 -1 2274.604 1444.274)" style="fill:#E6D0BE;" width="42.304" height="43.952"/>
				
					<rect x="1370.205" y="788.144" transform="matrix(-1 -1.224647e-16 1.224647e-16 -1 2782.7151 1620.2405)" style="fill:#E6D0BE;" width="42.304" height="43.952"/>
				
					<rect x="1285.52" y="788.144" transform="matrix(-1 -1.224647e-16 1.224647e-16 -1 2613.3447 1620.2405)" style="fill:#E2A18D;" width="42.304" height="43.952"/>
				
					<rect x="1200.835" y="788.144" transform="matrix(-1 -1.224647e-16 1.224647e-16 -1 2443.9746 1620.2405)" style="fill:#E2A18D;" width="42.304" height="43.952"/>
				
					<rect x="1116.15" y="788.144" transform="matrix(-1 -1.224647e-16 1.224647e-16 -1 2274.604 1620.2405)" style="fill:#D87355;" width="42.304" height="43.952"/>
				
					<rect x="1370.205" y="876.127" transform="matrix(-1 -1.224647e-16 1.224647e-16 -1 2782.7151 1796.2065)" style="fill:#E6D0BE;" width="42.304" height="43.952"/>
				
					<rect x="1285.52" y="876.127" transform="matrix(-1 -1.224647e-16 1.224647e-16 -1 2613.3447 1796.2065)" style="fill:#E6D0BE;" width="42.304" height="43.952"/>
				
					<rect x="1200.835" y="876.127" transform="matrix(-1 -1.224647e-16 1.224647e-16 -1 2443.9746 1796.2065)" style="fill:#E6D0BE;" width="42.304" height="43.952"/>
				
					<rect x="1116.15" y="876.127" transform="matrix(-1 -1.224647e-16 1.224647e-16 -1 2274.604 1796.2065)" style="fill:#E6D0BE;" width="42.304" height="43.952"/>
				<path style="fill:#E6D0BE;" d="M1076.032,656.689h-42.305c-1.218,0-2.205-0.987-2.205-2.205v-43.951
					c0-1.218,0.987-2.205,2.205-2.205h42.305c1.218,0,2.205,0.987,2.205,2.205v43.951
					C1078.237,655.701,1077.25,656.689,1076.032,656.689z M1035.932,652.279h37.895v-39.541h-37.895V652.279z"/>
				
					<rect x="1033.727" y="698.516" transform="matrix(-1 -1.224647e-16 1.224647e-16 -1 2109.7588 1440.9828)" style="fill:#E6D0BE;" width="42.304" height="43.952"/>
				
					<rect x="1033.727" y="786.499" transform="matrix(-1 -1.224647e-16 1.224647e-16 -1 2109.7588 1616.9492)" style="fill:#E2A18D;" width="42.304" height="43.952"/>
				
					<rect x="1033.727" y="874.482" transform="matrix(-1 -1.224647e-16 1.224647e-16 -1 2109.7588 1792.9153)" style="fill:#E6D0BE;" width="42.304" height="43.952"/>
				
					<rect x="1119.204" y="539.792" transform="matrix(-1 -1.224647e-16 1.224647e-16 -1 2450.2322 1126.0331)" style="fill:#D3BBA3;" width="211.825" height="46.449"/>
			</g>
		</g>
		<g>
			<g>
				<path style="fill:#363E44;" d="M780.678,2162.795l17.488-407.182l61.15,407.182l253.554,0.735
					c-50.414-249.977-104.869-490.56-164.291-719.599l-325.342,56.641l-76.27,662.223H780.678z"/>
				<g>
					<path style="fill:#BC8271;" d="M893.471,1287.484c48.029,68.438,172.328,285.588,245.857,228.564
						c72.024-55.855-58.984-236.501-110.055-309.198C981.851,1235.008,940.893,1259.326,893.471,1287.484z"/>
					<path style="fill:#BC8271;" d="M560.272,1179.31c-54.695,21.235-255.347,80.866-221.824,168.865
						c18.869,49.531,177.61,6.421,226.817-12.067C552.649,1300.275,572.889,1215.143,560.272,1179.31z"/>
					<path style="fill:#ff6900;" d="M1128.304,1312.47c0,0-113.181-191.084-312.864-185.176
						c-195.875,5.796-388.195,56.761-388.195,56.761l115.105,179.53l45.178,207.492l421.273,6.871l0.133-128.57L1128.304,1312.47z"
						/>
					<path style="fill:#BC8271;" d="M1132.714,1393.314c66.88,30.868-6.195,329.437-19.625,379.331
						c0.411,7.288-0.09,18.254-6.075,28.747c-6.823,11.963-14.237,11.854-23.402,23.356c-15.47,19.414-9.083,39.291-17.855,39.916
						c-6.021,0.429-10.243-10.992-11.385-22.41c-1.172-11.724,3.005-19.798,1.23-20.556c-1.947-0.832-5.129,7.92-10.085,18.44
						c-2.302,4.887-0.36,22.201-8.499,24c-6.489,1.434-13.013-16.06-9.813-32.03c2.264-11.298,11.063-18.201,9.462-19.566
						c-1.202-1.024-6.344,3.219-9.686,8.196c-5.516,8.212-3.719,25.947-11.243,27.456c-7.372,1.479-12.801-13.9-10.788-28.774
						c1.697-12.541,11.878-19.771,9.897-21.478c-1.393-1.201-6.624,1.088-15.661,8.919c-7.543,6.537-17.997,24.112-26.017,17.24
						c-6.745-5.78,3.798-24.496,16.706-39.954c8.552-10.242,18.406-19.604,23.87-25.239c-4.116-0.657-10.493-1.398-18.272-1.093
						c-13.876,0.543-18.783,2.549-22.122-2.771c-3.441-5.482,5.48-12.074,17.203-16.684c13.984-5.498,26.159-3.862,33.159-4.299
						c2.691-27.116,19.59-163.704,22.281-190.82C1060.69,1405.073,1099.474,1377.972,1132.714,1393.314z"/>
					<path style="fill:#363E44;" d="M1068.774,1513.476c-0.561,0-1.122-0.212-1.551-0.638l-37.849-37.482
						c-0.865-0.857-0.872-2.252-0.015-3.118c0.856-0.866,2.253-0.873,3.118-0.015l37.849,37.482
						c0.865,0.857,0.872,2.252,0.015,3.118C1069.91,1513.258,1069.341,1513.476,1068.774,1513.476z"/>
				</g>
				<g>
					
						<rect x="753.745" y="936.348" transform="matrix(-0.9956 -0.0937 0.0937 -0.9956 1528.4468 2035.3077)" style="fill:#363E44;" width="116.478" height="90.879"/>
					<polygon style="fill:#BC8271;" points="807.95,1173.068 764.779,1126.39 764.779,1055.428 847.678,1055.428 851.116,1131.199 
											"/>
					<path style="fill:#BC8271;" d="M868.052,1011.32c-1.518,32.196-20.67,82.36-62.273,80.402s-55.95-53.698-54.432-85.894
						c1.518-32.196,29.134-48.615,61.361-47.099C844.935,960.246,869.57,979.124,868.052,1011.32z"/>
					
						<ellipse transform="matrix(0.9319 -0.3628 0.3628 0.9319 -321.1796 341.2511)" style="fill:#BC8271;" cx="747.896" cy="1025.676" rx="16.5" ry="24.732"/>
					
						<ellipse transform="matrix(0.449 -0.8935 0.8935 0.449 -442.5696 1345.118)" style="fill:#BC8271;" cx="869.326" cy="1031.391" rx="24.734" ry="16.499"/>
					<path style="fill:#363E44;" d="M870.722,1044.815c-0.767,0-1.511-0.399-1.917-1.113c-0.603-1.058-0.235-2.404,0.824-3.007
						c2.251-1.283,4.263-3.528,5.665-6.321c1.399-2.79,1.995-5.743,1.676-8.312c-0.161-1.298-0.722-3.62-2.664-4.594
						c-0.273-0.137-0.565-0.241-0.87-0.311c-1.186-0.271-1.929-1.453-1.657-2.641c0.271-1.186,1.448-1.937,2.641-1.657
						c0.648,0.148,1.274,0.372,1.861,0.666c2.799,1.402,4.599,4.241,5.064,7.992c0.425,3.425-0.324,7.272-2.11,10.834
						c-1.788,3.562-4.424,6.465-7.423,8.173C871.467,1044.723,871.093,1044.815,870.722,1044.815z"/>
					<path style="fill:#363E44;" d="M745.976,1038.945c-0.437,0-0.878-0.129-1.264-0.399c-2.827-1.984-5.178-5.121-6.622-8.834
						c-1.444-3.714-1.828-7.616-1.083-10.985c0.817-3.692,2.875-6.349,5.795-7.481c0.615-0.238,1.258-0.403,1.913-0.489
						c1.21-0.15,2.316,0.689,2.475,1.896c0.161,1.207-0.689,2.316-1.896,2.475c-0.31,0.041-0.613,0.118-0.899,0.229
						c-2.024,0.785-2.8,3.046-3.082,4.322c-0.56,2.529-0.244,5.524,0.887,8.435c1.131,2.91,2.923,5.333,5.044,6.822
						c0.997,0.699,1.238,2.073,0.538,3.07C747.354,1038.618,746.67,1038.945,745.976,1038.945z"/>
					<path style="fill:#363E44;" d="M861.355,1046.723c-0.244,0-0.493-0.041-0.736-0.128c-1.148-0.407-1.748-1.667-1.341-2.814
						c3.022-8.524,5.128-17.677,6.09-26.471c0.134-1.211,1.232-2.071,2.432-1.952c1.21,0.132,2.084,1.221,1.952,2.432
						c-0.999,9.126-3.183,18.624-6.318,27.463C863.113,1046.158,862.263,1046.723,861.355,1046.723z"/>
					<path style="fill:#363E44;" d="M755.713,1044.808c-0.964,0-1.847-0.636-2.121-1.608c-3.026-10.754-4.643-22.673-4.555-33.562
						c0.01-1.211,0.995-2.187,2.205-2.187c0.005,0,0.012,0,0.018,0c1.218,0.01,2.196,1.006,2.187,2.223
						c-0.085,10.485,1.474,21.966,4.389,32.331c0.331,1.172-0.353,2.39-1.524,2.719
						C756.112,1044.781,755.911,1044.808,755.713,1044.808z"/>
					<path style="fill:#363E44;" d="M807.782,1094.997c-0.763,0-1.531-0.023-2.307-0.07c-16.575-1.008-29.14-12.508-38.234-22.413
						c-0.824-0.897-0.763-2.292,0.133-3.116c0.898-0.825,2.293-0.763,3.116,0.133c9.064,9.872,20.34,20.088,35.252,20.994
						c14.921,0.898,27.546-8.469,36.869-16.741c0.911-0.81,2.303-0.724,3.112,0.186c0.808,0.911,0.724,2.304-0.186,3.112
						C836.045,1085.505,823.284,1094.997,807.782,1094.997z"/>
					<path style="fill:#363E44;" d="M809.021,1050.344c-0.824,0-1.614-0.463-1.992-1.256c-0.523-1.099-0.057-2.415,1.042-2.939
						c2.066-0.984,3.318-2.093,3.527-3.122c0.133-0.661-0.145-1.271-0.917-2.723c-0.618-1.161-1.388-2.609-1.913-4.546
						c-0.771-2.839-0.789-5.867-0.056-9.001c0.278-1.186,1.47-1.925,2.65-1.644c1.185,0.278,1.922,1.463,1.644,2.649
						c-0.565,2.414-0.559,4.715,0.018,6.841c0.396,1.46,0.983,2.563,1.551,3.631c0.887,1.67,1.804,3.394,1.345,5.667
						c-0.504,2.491-2.506,4.587-5.951,6.229C809.662,1050.275,809.339,1050.344,809.021,1050.344z"/>
					<path style="fill:#363E44;" d="M805.112,1063.109c-3.605,0-7.338-1.879-9.651-4.9c-1.496-1.956-2.344-4.304-2.386-6.613
						c-0.022-1.218,0.947-2.222,2.165-2.245c1.142,0.019,2.222,0.948,2.245,2.165c0.025,1.375,0.549,2.8,1.478,4.014
						c1.575,2.056,4.115,3.279,6.49,3.16c1.194-0.092,2.258,0.855,2.33,2.071c0.072,1.215-0.856,2.259-2.071,2.33
						C805.511,1063.102,805.312,1063.109,805.112,1063.109z"/>
					<g>
						<path style="fill:#363E44;" d="M851.333,957.751c3.458,8.84,13.435,13.206,22.283,9.751s26.878-13.437,23.42-22.277
							c-3.458-8.84-27.094-13.19-35.943-9.735C852.245,938.944,847.875,948.911,851.333,957.751z"/>
						<path style="fill:#363E44;" d="M727.38,961.258c4.222,10.793,31.42,9.859,42.224,5.641
							c10.804-4.218,16.139-16.387,11.917-27.18c-4.222-10.793-16.403-16.124-27.207-11.906
							C743.511,932.031,723.158,950.465,727.38,961.258z"/>
						<path style="fill:#363E44;" d="M838.695,937.874c4.222,10.793,16.403,16.124,27.207,11.905
							c10.804-4.218,28.841-29.177,21.677-37.479c-7.574-8.777-26.163-5.825-36.966-1.607S834.473,927.081,838.695,937.874z"/>
						<path style="fill:#363E44;" d="M766.29,931.547c2.661,6.804,10.34,10.164,17.151,7.505c6.811-2.659,10.174-10.33,7.512-17.134
							c-2.661-6.804-15.495-16.571-22.305-13.912C761.837,910.665,763.628,924.743,766.29,931.547z"/>
						<path style="fill:#363E44;" d="M785.432,936.153c4.222,10.793,16.403,16.124,27.207,11.906
							c10.804-4.218,16.139-16.387,11.917-27.18c-4.222-10.793-26.19-41.998-36.994-37.78
							C776.758,887.316,781.21,925.359,785.432,936.153z"/>
						<path style="fill:#363E44;" d="M788.135,974.714c4.222,10.793,28.183,8.184,38.987,3.966
							c10.804-4.218,16.139-16.387,11.917-27.18c-4.222-10.793-16.403-16.124-27.207-11.906
							C801.028,943.812,783.913,963.921,788.135,974.714z"/>
						<path style="fill:#363E44;" d="M813.224,927.178c4.222,10.793,16.403,16.124,27.207,11.906
							c10.804-4.218,16.139-16.387,11.917-27.18c-4.222-10.793-21.313-25.58-32.116-21.362
							C809.428,894.76,809.002,916.385,813.224,927.178z"/>
						<path style="fill:#363E44;" d="M831.136,979.884c2.661,6.804,12.95,16.671,19.761,14.012
							c6.81-2.659,7.564-16.837,4.903-23.641c-2.661-6.804-10.34-10.164-17.151-7.505
							C831.838,965.409,828.474,973.08,831.136,979.884z"/>
					</g>
					<g>
						<g>
							<path style="fill:#FFFFFF;" d="M757.277,1000.331c0,0,3.95,9.415,12.388,16.105c1.687,1.337,7.427-16.167,4.153-16.668
								C764.906,998.403,757.277,1000.331,757.277,1000.331z"/>
							<path style="fill:#363E44;" d="M801.833,1022.556c0,0-14.262,3.605-26.567-2.533c-2.066-1.03-3.942-2.273-5.639-3.622
								c-0.222-0.857-0.406-1.732-0.501-2.639c-0.561-5.323,1.28-10.336,4.632-13.998c3.292,0.499,6.759,1.442,10.084,3.101
								C796.147,1009.001,801.833,1022.556,801.833,1022.556z"/>
						</g>
						<g>
							<path style="fill:#FFFFFF;" d="M834.348,1006.517c-10.59,5.523-16.402,15.939-16.402,15.939s7.585,2.848,16.775,2.384
								C837.914,1024.678,835.515,1005.908,834.348,1006.517z"/>
							<path style="fill:#363E44;" d="M834.352,1006.518c1.166-0.608,2.39-1.16,3.67-1.629c12.912-4.728,26.684,0.442,26.684,0.442
								s-7.164,12.838-20.076,17.566c-3.335,1.222-6.727,1.779-9.924,1.939C831.3,1019.346,831.056,1012.307,834.352,1006.518z"/>
						</g>
					</g>
				</g>
			</g>
			<g>
				<g>
					<path style="fill:#B77250;" d="M737.133,2163.347l179.142,1.103c4.23-86.883-15.415-354.973-44.831-438.33l-69.976-198.179
						L669.3,1609.872l-1.354,22.868l-10.635,180.503c13.632,22.892,25.38,41.727,35.12,58.872
						C713.461,1909.109,736.335,2117.732,737.133,2163.347z"/>
					<path style="fill:#B77250;" d="M491.295,2164.449l183.551-0.551c2.489-37.574,14.635-255.392,17.585-291.759v-0.024
						c2.417-29.798,4.979-58.582,7.687-85.289c0.942-9.369,1.885-18.473,2.876-27.287c6.478-58.558,13.491-129.892,21.202-149.814
						l-207.223,15.795C516.973,1625.52,481.797,1943.426,491.295,2164.449z"/>
					<path style="fill:#363E44;" d="M696.715,1855.948c-0.038,0-0.076-0.001-0.114-0.003c-1.217-0.061-2.152-1.097-2.09-2.313
						l4.836-95.15l44.596-15.349c1.149-0.392,2.405,0.215,2.802,1.368c0.396,1.151-0.216,2.405-1.368,2.802l-41.777,14.378
						l-4.685,92.174C698.855,1855.033,697.881,1855.948,696.715,1855.948z"/>
				</g>
				<g>
					<path style="fill:#EFBC73;" d="M449.98,1473.929c6.191,152.867,6.764,170.261,6.764,170.261
						c69.078-5.34,397.013-19.099,397.013-19.099s-7.471-57.563-13.473-97.059c-7.189-47.313-24.645-103.72-45.005-175.88
						c-14.209-50.359-46.681-101.276-96.121-118.537c-34.845-12.165-74.571-22.842-133.894-9.942
						c-41.203,8.96-60.177,28.565-75.823,75.568C467.008,1366.638,446.64,1391.451,449.98,1473.929z"/>
					<g>
						<path style="fill:#E2A18D;" d="M415.485,1479.846c0,0,9.026-112.609,100.971-231.742c20.74-26.873,61.812-22.6,88.537-1.654
							c31.246,24.489,36.835,69.589,12.511,100.951l-110.85,142.926L415.485,1479.846z"/>
						<g>
							<path style="fill:#E2A18D;" d="M449.08,1418.461c0.003-0.002,26.517,3.381,26.521,3.382
								c121.544,21.599,208.193,34.595,234.785,39.658c2.785,0.53,7.704,1.443,13.537,4.318
								c21.613,10.648,21.132,31.146,38.743,52.701c19.983,24.459,45.096,26.929,43.603,34.852
								c-1.039,5.512-10.774,7.244-30.304,3.267c-0.002,0-0.003,0.003-0.003,0.003c14.492,4.727,33.863,11.993,31.226,19.985
								c-3.54,9.066-27.302,3.198-41.504-1.053c17.19,5.146,24.789,13.02,22.207,17.11c-4.065,6.438-18.325,5.549-40.779-2.133
								c-0.001,0-0.002,0.001-0.002,0.001c14.022,9.631,15.987,14.055,12.822,17.115c-5.779,5.586-24.12-1.076-39.43-9.449
								c-17.236-9.426-27.331-22.709-33.496-31.237c-0.002-0.002-0.004-0.004-0.007-0.004
								c-86.697-6.31-179.209-9.698-247.502-25.462C401.973,1532.853,407.369,1448.577,449.08,1418.461z"/>
							<path style="fill:#363E44;" d="M512.9,1429.86c-0.125,0-0.252-0.011-0.379-0.032c-13.216-2.293-25.947-4.528-38.283-6.72
								c-1.199-0.212-1.998-1.357-1.785-2.556c0.213-1.199,1.357-2.005,2.556-1.785c12.332,2.19,25.056,4.425,38.266,6.716
								c1.199,0.208,2.003,1.35,1.796,2.549C514.884,1429.104,513.953,1429.86,512.9,1429.86z"/>
							<path style="fill:#E2A18D;" d="M741.896,1502.512c31.073,3.493,43.022-1.825,43.419-6.763
								c0.668-8.303-24.639-22.134-69.409-32.955C722.154,1474.509,735.648,1490.798,741.896,1502.512z"/>
							<path style="fill:#363E44;" d="M751.588,1506.065c-0.778,0-1.532-0.411-1.934-1.141c-1.832-3.328-3.43-6.55-4.974-9.667
								c-3.193-6.443-6.21-12.528-10.435-17.55c-0.784-0.932-0.664-2.323,0.267-3.107c0.929-0.784,2.322-0.665,3.107,0.267
								c4.568,5.428,7.698,11.745,11.012,18.432c1.523,3.075,3.098,6.254,4.886,9.498c0.588,1.067,0.199,2.407-0.868,2.995
								C752.312,1505.977,751.947,1506.065,751.588,1506.065z"/>
							<path style="fill:#363E44;" d="M775.699,1557.974c-0.282,0-0.568-0.055-0.845-0.17c-5.294-2.199-10.261-5.088-14.763-8.587
								c-3.097-2.407-5.995-5.124-8.613-8.076c-0.809-0.912-0.724-2.305,0.186-3.112c0.911-0.811,2.305-0.723,3.112,0.186
								c2.437,2.75,5.136,5.279,8.021,7.521c4.191,3.258,8.817,5.948,13.749,7.997c1.124,0.467,1.657,1.757,1.19,2.882
								C777.383,1557.462,776.563,1557.974,775.699,1557.974z"/>
							<path style="fill:#363E44;" d="M767.669,1577.495c-0.282,0-0.568-0.055-0.845-0.17c-5.294-2.199-10.261-5.089-14.763-8.587
								c-3.102-2.412-6-5.129-8.613-8.078c-0.807-0.911-0.724-2.305,0.188-3.112c0.911-0.807,2.304-0.725,3.112,0.188
								c2.433,2.745,5.13,5.275,8.018,7.52c4.191,3.257,8.817,5.947,13.749,7.997c1.124,0.467,1.657,1.757,1.19,2.882
								C769.353,1576.982,768.533,1577.495,767.669,1577.495z"/>
							<path style="fill:#363E44;" d="M746.767,1592.432c-0.282,0-0.568-0.055-0.845-0.17c-5.296-2.2-10.263-5.089-14.763-8.587
								c-3.104-2.413-6.002-5.13-8.614-8.078c-0.807-0.911-0.724-2.305,0.188-3.112c0.909-0.807,2.304-0.724,3.112,0.188
								c2.431,2.743,5.13,5.274,8.019,7.52c4.19,3.257,8.815,5.947,13.749,7.997c1.124,0.467,1.657,1.757,1.19,2.882
								C748.452,1591.92,747.631,1592.432,746.767,1592.432z"/>
						</g>
					</g>
				</g>
				<g>
					<circle style="fill:#363E44;" cx="610.767" cy="1158.538" r="48.485"/>
					<path style="fill:#40484C;" d="M615.592,1218.878c-27.951,0-50.69-22.739-50.69-50.689c0-27.951,22.739-50.69,50.69-50.69
						c27.95,0,50.689,22.739,50.689,50.69C666.281,1196.138,643.542,1218.878,615.592,1218.878z M615.592,1121.908
						c-25.519,0-46.281,20.762-46.281,46.281c0,25.519,20.762,46.28,46.281,46.28c25.519,0,46.28-20.761,46.28-46.28
						C661.872,1142.669,641.111,1121.908,615.592,1121.908z"/>
					<path style="fill:#40484C;" d="M599.508,1215.661c-27.951,0-50.69-22.739-50.69-50.689c0-27.95,22.739-50.689,50.69-50.689
						c27.95,0,50.689,22.739,50.689,50.689C650.197,1192.922,627.458,1215.661,599.508,1215.661z M599.508,1118.692
						c-25.519,0-46.281,20.761-46.281,46.28c0,25.519,20.762,46.28,46.281,46.28c25.519,0,46.28-20.761,46.28-46.28
						C645.788,1139.453,625.027,1118.692,599.508,1118.692z"/>
					<path style="fill:#E2A18D;" d="M672.857,1256.661c18.106,0,29.938-8.926,29.938-27.032V1126.99
						c0-18.106-14.678-32.784-32.784-32.784s-32.784,14.678-32.784,32.784v102.638
						C635.694,1255.628,672.857,1256.661,672.857,1256.661z"/>
					<path style="fill:#363E44;" d="M756.9,1096.136c-3.406,11.424-7.536,30.513-5.265,54.049
						c2.032,21.062,8.397,37.459,13.337,47.732c-6.454-8.473-17.334-25.063-22.287-48.785c-5.104-24.444-1.426-44.543,1.229-54.927
						C748.242,1094.849,752.571,1095.493,756.9,1096.136z"/>
					<path style="fill:#E2A18D;" d="M683.961,1041.612c2.858-0.277,30.272-2.521,46.785,16.224
						c12.287,13.948,13.763,31.851,11.696,62.254c-2.433,35.803-8.889,56.865-19.195,63.932
						c-16.284,11.166-65.08-13.807-83.43-45.067c-13.245-22.565-11.735-51.628,2.264-73.95
						C656.042,1042.743,682.137,1041.789,683.961,1041.612z"/>
					<path style="fill:#363E44;" d="M704.437,1041.351c2.461,7.623,5.326,19.775,4.389,34.732
						c-0.684,10.929-3.183,19.911-5.534,26.335c-6.17-0.318-12.34-0.636-18.511-0.954c3.48-6.696,8.714-18.991,9.16-35.113
						c0.303-10.957-1.708-19.983-3.626-26.145C695.022,1040.588,699.729,1040.969,704.437,1041.351z"/>
					<path style="fill:#363E44;" d="M714.798,1039.729c4.375,6.71,10.329,17.684,13.352,32.363
						c2.208,10.725,2.155,20.048,1.572,26.864c-6.038,1.313-12.075,2.625-18.112,3.938c1.601-7.375,3.424-20.613-0.378-36.286
						c-2.583-10.652-6.893-18.834-10.361-24.277C705.513,1041.464,710.156,1040.596,714.798,1039.729z"/>
					<path style="fill:#363E44;" d="M704.078,1048.921c-2.6,7.643-6.076,15.872-10.763,24.334
						c-18.434,33.287-38.982,58.076-56.089,67.703c-6.543-2.808-37.105-26.77-37.971-55.536
						c-1.052-34.965,36.661-62.19,68.79-64.579c12.57-0.935,23.076,2.022,29.949,4.68c3.178-1.742,7.876-3.701,13.571-3.744
						c21.644-0.163,41.965,19.549,47.78,36.969c9.093,27.237-4.346,59.693-8.004,67.854c-4.403-13.336-11.544-30.332-23.398-48.199
						C719.951,1066.355,711.6,1056.601,704.078,1048.921z"/>
					<g>
						
							<ellipse transform="matrix(0.7877 -0.616 0.616 0.7877 -555.0165 638.4382)" style="fill:#E2A18D;" cx="648.895" cy="1124.573" rx="19.88" ry="23.52"/>
						<path style="fill:#363E44;" d="M642.582,1134.773c-0.528,0-1.057-0.188-1.479-0.571c-0.686-0.622-1.326-1.31-1.902-2.047
							c-2.288-2.925-3.474-6.449-3.342-9.923c0.138-3.613,1.67-6.743,4.315-8.811c1.349-1.054,2.895-1.762,4.598-2.107
							c1.201-0.244,2.357,0.531,2.598,1.724c0.242,1.194-0.53,2.357-1.724,2.598c-1.025,0.208-1.953,0.631-2.756,1.26
							c-1.605,1.255-2.538,3.21-2.625,5.505c-0.093,2.433,0.762,4.933,2.408,7.038c0.422,0.538,0.889,1.042,1.39,1.495
							c0.902,0.818,0.971,2.212,0.154,3.115C643.781,1134.528,643.182,1134.773,642.582,1134.773z"/>
					</g>
					<path style="fill:#363E44;" d="M679.511,1071.383c-6.114,14.035-13.411,35.031-16.145,61.42
						c-2.721,26.263,0.078,48.216,3.159,63.174c-5.252-15.366-11.035-38.095-11.231-65.982c-0.152-21.712,3.129-40.043,6.669-53.698
						C667.812,1074.659,673.662,1073.021,679.511,1071.383z"/>
					<path style="fill:#363E44;" d="M702.797,1187.641c-0.136,0-0.273-0.012-0.411-0.039c-13.919-2.627-27.505-8.954-37.277-17.356
						c-0.924-0.795-1.028-2.187-0.235-3.109c0.794-0.924,2.188-1.027,3.109-0.235c9.203,7.914,22.041,13.879,35.221,16.368
						c1.196,0.225,1.983,1.378,1.757,2.575C704.762,1186.904,703.836,1187.641,702.797,1187.641z"/>
					<g>
						<path style="fill:#FFFFFF;" d="M742.073,1120.611c-10.862,3.595-22.104-0.252-22.104-0.252s6.007-11.573,17.32-16.107
							c0.238-0.095,0.477-0.187,0.716-0.275C749.116,1099.895,742.589,1120.44,742.073,1120.611z"/>
						<path style="fill:#ff6900;" d="M738.011,1103.998c11.11-4.08,22.927-0.057,22.927-0.057s-6.007,11.573-17.32,16.106
							c-0.515,0.206-1.033,0.375-1.551,0.547c-3.751-3.604-5.671-8.965-4.633-14.457
							C737.573,1105.398,737.778,1104.691,738.011,1103.998z"/>
					</g>
					<g>
						<path style="fill:#FFFFFF;" d="M664.077,1109.639c0,0,7.322,10.788,19.089,13.964c0.364,0.098,0.728,0.188,1.092,0.27
							c11.392,2.562-2.18-17.703-4.789-17.664C670.963,1106.336,664.077,1109.639,664.077,1109.639z"/>
						<path style="fill:#ff6900;" d="M706.69,1121.14c0,0-11.04,5.295-22.431,2.733c-2.28-1.892-4.067-4.432-5.022-7.469
							c-1.089-3.466-0.916-7.019,0.233-10.19c2.609-0.039,5.368,0.217,8.13,0.962C699.367,1110.352,706.69,1121.14,706.69,1121.14z"
							/>
					</g>
					<path style="fill:#363E44;" d="M722.341,1142.615c-0.643,0-1.28-0.28-1.716-0.819c-0.766-0.947-0.618-2.335,0.329-3.101
						c1.719-1.39,2.647-2.709,2.612-3.713c-0.023-0.641-0.421-1.151-1.472-2.343c-0.85-0.964-1.909-2.164-2.849-3.886
						c-1.377-2.527-2.082-5.402-2.097-8.548c-0.005-1.218,0.977-2.21,2.194-2.216c0.004,0,0.008,0,0.011,0
						c1.213,0,2.199,0.981,2.205,2.194c0.011,2.408,0.536,4.581,1.559,6.458c0.703,1.288,1.507,2.199,2.284,3.081
						c1.225,1.39,2.492,2.826,2.572,5.104c0.087,2.494-1.341,4.95-4.248,7.298C723.317,1142.455,722.827,1142.615,722.341,1142.615z
						"/>
					<path style="fill:#363E44;" d="M715.204,1155.834c-2.743,0-5.577-0.973-7.775-2.765c-1.871-1.523-3.213-3.57-3.776-5.762
						c-0.304-1.179,0.406-2.381,1.586-2.684c1.185-0.304,2.382,0.408,2.684,1.586c0.331,1.285,1.144,2.507,2.29,3.441
						c1.944,1.584,4.621,2.179,6.809,1.518c1.172-0.344,2.396,0.309,2.748,1.474c0.351,1.166-0.308,2.396-1.474,2.749
						C717.307,1155.688,716.262,1155.834,715.204,1155.834z"/>
				</g>
			</g>
			<g>
				<path style="fill:#BC8271;" d="M418.92,1260.347c35.007,36.842,121.748,119.527,129.893,127.935
					c15.227,15.718,96.151,91.343,78.173,105.23c-8.477,6.548-44.236-30.507-52.259-38.727
					c7.412,10.832,44.574,53.812,32.949,61.443c-11.963,7.853-54.26-44.863-54.793-45.118c3.872,5.794,36.21,45.917,24.181,55.185
					c-11.584,8.924-39.503-37.524-45.292-42.359c3.977,7.979,24.315,35.714,16.753,41.523
					c-10.131,7.782-34.973-29.188-40.634-32.929c-13.54-13.954-38.204-32.258-66.369-55.948
					c-66.148-55.639-65.372-47.71-96.818-79.01C333.04,1345.961,383.206,1255.852,418.92,1260.347z"/>
				<path style="fill:#363E44;" d="M442.557,1286.514c-0.574,0-1.148-0.223-1.579-0.666c-4.06-4.168-10.598-10.746-16.396-16.578
					c-5.311-5.344-9.898-9.958-11.569-11.701c-0.842-0.88-0.813-2.275,0.067-3.118c0.881-0.841,2.274-0.812,3.118,0.067
					c1.642,1.714,6.216,6.315,11.512,11.643c5.809,5.844,12.36,12.434,16.427,16.61c0.849,0.872,0.831,2.268-0.041,3.118
					C443.667,1286.307,443.111,1286.514,442.557,1286.514z"/>
			</g>
		</g>
		<g>
			<g>
				<ellipse style="fill:#E6D0BE;" cx="622.292" cy="614.902" rx="278.041" ry="212.695"/>
				<path style="fill:#D3BBA3;" d="M628.146,823.948c-154.528,0-280.246-96.404-280.246-214.9
					c0-118.497,125.718-214.901,280.246-214.901s280.246,96.404,280.246,214.901C908.391,727.544,782.674,823.948,628.146,823.948z
					 M628.146,398.557c-152.097,0-275.836,94.426-275.836,210.491s123.739,210.49,275.836,210.49s275.836-94.425,275.836-210.49
					S780.243,398.557,628.146,398.557z"/>
				<g>
					<path style="fill:#FFFFFF;" d="M573.868,552.615c-91.176,73.409-140.211,154.732-102.147,202.009
						c38.064,47.277,130.963,17.117,222.139-56.292s135.134-153.438,97.07-200.714C752.867,450.341,665.044,479.206,573.868,552.615
						z"/>
					<g>
						
							<ellipse transform="matrix(0.0405 -0.9992 0.9992 0.0405 138.2562 1241.733)" style="fill:#BC8271;" cx="715.651" cy="548.882" rx="49.916" ry="49.916"/>
						
							<ellipse transform="matrix(0.5386 -0.8425 0.8425 0.5386 -97.7731 882.5417)" style="fill:#363E44;" cx="756.962" cy="530.547" rx="12.642" ry="12.642"/>
						
							<ellipse transform="matrix(0.3847 -0.9231 0.9231 0.3847 -11.4618 999.4649)" style="fill:#363E44;" cx="743.917" cy="508.329" rx="14.986" ry="14.986"/>
						<path style="fill:#363E44;" d="M754.522,503.456c-4.868,3.919-5.637,11.043-1.718,15.911
							c3.919,4.868,11.043,5.637,15.911,1.718c4.868-3.919,5.637-11.043,1.718-15.911
							C766.513,500.306,759.39,499.537,754.522,503.456z"/>
						<g>
							
								<ellipse transform="matrix(0.9138 -0.4061 0.4061 0.9138 -173.0459 356.2544)" style="fill:#BC8271;" cx="752.836" cy="585.835" rx="17.163" ry="11.442"/>
							<path style="fill:#363E44;" d="M749.975,594.557c-0.676,0-1.338-0.055-1.979-0.164c-1.2-0.207-2.007-1.346-1.801-2.546
								c0.207-1.199,1.338-2.005,2.546-1.801c1.612,0.277,3.596-0.032,5.429-0.845c1.834-0.816,3.389-2.078,4.268-3.464
								c0.413-0.654,1.035-1.911,0.551-3c-0.065-0.145-0.148-0.284-0.247-0.411c-0.744-0.964-0.566-2.348,0.397-3.093
								c0.964-0.744,2.346-0.567,3.093,0.397c0.313,0.407,0.578,0.849,0.785,1.315c0.964,2.166,0.651,4.773-0.855,7.152
								c-1.351,2.134-3.554,3.958-6.201,5.133C753.996,594.104,751.929,594.557,749.975,594.557z"/>
						</g>
						<g>
							<path style="fill:#BC8271;" d="M696.711,511.441c-5.61,7.641-14.286,10.803-19.38,7.063
								c-5.094-3.74-4.675-12.965,0.934-20.606c5.61-7.641,14.286-10.803,19.38-7.063
								C702.739,494.575,702.32,503.801,696.711,511.441z"/>
							<path style="fill:#363E44;" d="M680.299,509.878c-0.034,0-0.068-0.001-0.101-0.002c-1.216-0.055-2.159-1.085-2.104-2.302
								c0.114-2.525,1.121-5.2,2.836-7.535c3.796-5.17,9.729-7.045,13.508-4.273c0.412,0.304,0.787,0.656,1.116,1.046
								c0.784,0.932,0.662,2.323-0.269,3.107c-0.931,0.783-2.323,0.663-3.107-0.269c-0.104-0.125-0.223-0.236-0.352-0.332
								c-1.506-1.102-4.89-0.01-7.341,3.33c-1.187,1.617-1.911,3.485-1.985,5.123C682.446,508.955,681.471,509.878,680.299,509.878z
								"/>
						</g>
						<path style="fill:#363E44;" d="M704.522,558.23c-0.998,0-1.903-0.683-2.143-1.697c-0.813-3.432-0.456-6.098,1.061-7.921
							c1.39-1.672,3.166-2.013,4.885-2.344c1.065-0.205,2.167-0.416,3.402-0.957c1.118-0.489,2.417,0.021,2.905,1.135
							c0.489,1.115-0.019,2.416-1.135,2.905c-1.688,0.74-3.159,1.022-4.341,1.249c-1.411,0.27-1.978,0.412-2.326,0.832
							c-0.566,0.682-0.623,2.132-0.16,4.086c0.281,1.184-0.452,2.373-1.637,2.654C704.861,558.21,704.691,558.23,704.522,558.23z"/>
						<path style="fill:#363E44;" d="M704.849,571.531c-3.614,0-7.191-1.765-9.175-4.546c-0.706-0.992-0.476-2.368,0.516-3.076
							c0.995-0.707,2.368-0.475,3.076,0.516c1.188,1.668,3.504,2.718,5.746,2.696c1.34-0.034,2.603-0.46,3.555-1.197
							c0.96-0.747,2.347-0.574,3.093,0.391c0.746,0.961,0.572,2.347-0.391,3.093c-1.689,1.31-3.872,2.064-6.146,2.121
							C705.031,571.53,704.94,571.531,704.849,571.531z"/>
						<path style="fill:#363E44;" d="M746.983,571.398c-0.154,0-0.31-0.016-0.467-0.049c-3.37-0.727-9.838-2.825-15.292-8.708
							c-5.36-5.78-6.992-12.272-7.488-15.628c-0.178-1.205,0.655-2.325,1.859-2.503c1.194-0.171,2.325,0.654,2.503,1.859
							c0.421,2.85,1.806,8.365,6.359,13.273c4.631,4.997,10.125,6.779,12.988,7.396c1.19,0.257,1.946,1.43,1.69,2.62
							C748.914,570.692,748,571.398,746.983,571.398z"/>
						<path style="fill:#363E44;" d="M715.433,538.949c-0.154,0-0.31-0.016-0.467-0.049c-3.37-0.727-9.837-2.825-15.292-8.708
							c-5.359-5.78-6.991-12.272-7.486-15.628c-0.178-1.205,0.654-2.325,1.859-2.503c1.193-0.17,2.325,0.654,2.503,1.859
							c0.421,2.85,1.806,8.365,6.358,13.274c4.633,4.995,10.125,6.777,12.988,7.395c1.191,0.257,1.946,1.43,1.69,2.62
							C717.364,538.243,716.45,538.949,715.433,538.949z"/>
					</g>
					<g>
						<path style="fill:#E6D0BE;" d="M663.609,713.502c-0.931,0-1.797-0.594-2.098-1.529
							c-11.191-34.656-18.343-70.574-21.257-106.757c-2.298-28.531-1.969-57.466,0.98-86.001c0.125-1.21,1.209-2.099,2.419-1.966
							c1.212,0.125,2.092,1.208,1.967,2.42c-2.921,28.266-3.247,56.929-0.971,85.194c2.887,35.842,9.973,71.424,21.059,105.756
							c0.374,1.158-0.262,2.401-1.421,2.775C664.061,713.466,663.833,713.502,663.609,713.502z"/>
						<path style="fill:#E6D0BE;" d="M579.502,753.034c-1.032,0-1.954-0.728-2.162-1.78c-7.636-38.83-10.753-78.505-9.264-117.923
							c0.793-20.979,2.912-42.135,6.299-62.88c0.196-1.2,1.32-2.01,2.531-1.821c1.202,0.196,2.016,1.33,1.821,2.531
							c-3.357,20.566-5.457,41.538-6.243,62.336c-1.477,39.078,1.613,78.412,9.184,116.907c0.235,1.195-0.544,2.353-1.739,2.589
							C579.786,753.021,579.643,753.034,579.502,753.034z"/>
						<path style="fill:#E6D0BE;" d="M648.874,655.45c-1.084,0-2.03-0.801-2.181-1.906c-0.165-1.207,0.679-2.319,1.885-2.484
							c25.428-3.48,50.908-8.649,75.734-15.364c1.175-0.319,2.386,0.377,2.704,1.552c0.318,1.176-0.377,2.387-1.552,2.704
							c-25.008,6.763-50.674,11.97-76.287,15.476C649.076,655.443,648.974,655.45,648.874,655.45z"/>
						<path style="fill:#E6D0BE;" d="M567.203,661.017c-30.46,0-61.167-2.327-91.318-6.92c-1.205-0.184-2.031-1.308-1.848-2.512
							c0.184-1.205,1.319-2.028,2.512-1.848c30.84,4.699,62.256,7.027,93.399,6.864c0.003,0,0.006,0,0.01,0
							c1.213,0,2.2,0.981,2.205,2.195c0.005,1.218-0.977,2.209-2.195,2.214C569.046,661.014,568.125,661.017,567.203,661.017z"/>
					</g>
					<g>
						<path style="fill:#363E44;" d="M620.642,670.045c-2.571,0-4.717-0.732-6.122-2.476c-5.185-6.442,4.724-19.974,17.192-30.012
							c6.428-5.177,13.202-9.188,19.073-11.294c8.455-3.036,12.235-1.185,13.915,0.904c3.239,4.023,0.758,11.346-6.809,20.09
							c-0.798,0.92-2.191,1.022-3.11,0.225c-0.92-0.798-1.022-2.19-0.225-3.11c6.17-7.129,8.062-12.761,6.71-14.44
							c-0.79-0.982-3.618-1.445-8.99,0.481c-5.421,1.945-11.741,5.702-17.798,10.578c-13.219,10.643-18.615,21.212-16.522,23.812
							c1.392,1.725,8.098,1.229,18.654-5.285c1.039-0.64,2.394-0.318,3.035,0.718c0.64,1.037,0.318,2.395-0.718,3.035
							C632.886,666.997,625.885,670.045,620.642,670.045z"/>
						<path style="fill:#363E44;" d="M656.628,641.248c-0.122,0-0.242-0.002-0.364-0.008c-2.268-0.096-4.264-1.077-5.619-2.76
							c-1.355-1.683-1.887-3.842-1.497-6.078c0.371-2.13,1.547-4.086,3.312-5.505c1.764-1.42,3.93-2.142,6.085-2.06
							c2.268,0.096,4.264,1.076,5.619,2.76c1.355,1.683,1.887,3.842,1.497,6.078c-0.371,2.131-1.547,4.086-3.312,5.506
							C660.684,640.522,658.666,641.248,656.628,641.248z M660.966,637.464h0.022H660.966z M658.18,629.239
							c-1.034,0-2.077,0.384-2.956,1.092c-0.929,0.749-1.545,1.754-1.732,2.828c-0.169,0.968,0.04,1.875,0.588,2.556
							c0.548,0.681,1.39,1.079,2.372,1.121c1.099,0.041,2.203-0.34,3.133-1.088c0.929-0.749,1.545-1.754,1.732-2.828
							c0.169-0.968-0.04-1.875-0.588-2.556c-0.548-0.682-1.39-1.079-2.372-1.121C658.297,629.24,658.239,629.239,658.18,629.239z"/>
						<path style="fill:#363E44;" d="M621.529,669.507c-0.122,0-0.242-0.002-0.364-0.008c-2.268-0.096-4.264-1.076-5.619-2.76
							c-1.355-1.683-1.887-3.842-1.497-6.078c0.371-2.131,1.547-4.086,3.312-5.506c1.765-1.42,3.94-2.154,6.085-2.06
							c2.268,0.096,4.264,1.077,5.619,2.76c1.355,1.683,1.887,3.842,1.497,6.078c-0.371,2.13-1.547,4.086-3.312,5.506
							C625.586,668.781,623.567,669.507,621.529,669.507z M625.868,665.723h0.022H625.868z M623.082,657.498
							c-1.034,0-2.077,0.384-2.956,1.092c-0.929,0.749-1.545,1.754-1.732,2.828c-0.169,0.968,0.04,1.875,0.588,2.556
							c0.548,0.682,1.39,1.079,2.372,1.121c1.092,0.033,2.203-0.341,3.133-1.088c0.929-0.749,1.545-1.754,1.732-2.828
							c0.169-0.968-0.04-1.875-0.588-2.556c-0.548-0.682-1.39-1.079-2.372-1.121C623.199,657.499,623.141,657.498,623.082,657.498z"
							/>
					</g>
				</g>
			</g>
			
				<ellipse transform="matrix(0.7071 -0.7071 0.7071 0.7071 -484.7535 703.0939)" style="fill:#E6D0BE;" cx="606.333" cy="936.696" rx="25.68" ry="25.68"/>
			<circle style="fill:#E6D0BE;" cx="543.657" cy="868.362" r="37.913"/>
			<circle style="fill:#E6D0BE;" cx="680.559" cy="979.475" r="18.488"/>
		</g>
		<g>
			<g>
				<path style="fill:#FFFFFF;" d="M1701.518,1190.875c227.362-9.453,461.721,191.826,459.491,285.509
					c-2.23,93.682-179.187,173.238-179.187,173.238l154.935,476.568l-758.723,36.911l179.428-625.006l-5.953-81.203
					c-98.488,56.905-190.667,86.512-199.187,50.702C1328.447,1407.247,1550.345,1197.16,1701.518,1190.875z"/>
				<path style="fill:#BC8271;" d="M1650.638,1505.007c-0.105,0-0.211-0.008-0.318-0.023c-0.794-0.116-1.463-0.653-1.746-1.405
					l-56.186-149.136c-0.313-0.832-0.096-1.772,0.552-2.382l41.478-39.073l-36.309-4.144c-0.609-0.07-1.163-0.39-1.526-0.884
					c-0.364-0.493-0.505-1.116-0.391-1.719l22.075-116.099c0.159-0.837,0.786-1.507,1.611-1.722l46.307-12.049
					c0.182-0.047,0.368-0.071,0.556-0.071h73.53c0.215,0,0.431,0.031,0.637,0.094l51.709,15.605c0.992,0.299,1.642,1.25,1.561,2.283
					l-9.225,117.877c-0.09,1.148-1.047,2.032-2.198,2.032h-55.825l32.139,46.946c0.536,0.784,0.51,1.823-0.063,2.578
					l-106.611,140.419C1651.974,1504.689,1651.322,1505.007,1650.638,1505.007z M1597.034,1354.263l54.261,144.028l103.237-135.975
					l-33.603-49.084c-0.462-0.675-0.513-1.55-0.131-2.274c0.382-0.724,1.133-1.177,1.951-1.177h57.967l8.928-114.075l-49.698-14.998
					h-72.923l-44.683,11.627l-21.371,112.395l38.669,4.413c0.853,0.098,1.572,0.68,1.842,1.495c0.271,0.814,0.045,1.712-0.58,2.301
					L1597.034,1354.263z"/>
				
					<rect x="1819.401" y="1671.048" transform="matrix(-0.1142 0.9935 -0.9935 -0.1142 3814.8684 124.055)" style="fill:#F7F1EB;" width="65.452" height="183.543"/>
				<path style="fill:#BC8271;" d="M1421.098,2017.664c-0.2,0-0.405-0.028-0.607-0.086c-1.17-0.334-1.848-1.555-1.514-2.726
					l136.26-476.99l-9.781-140.245c-12.052-16.577-16.016-31.682-11.782-44.904c6.666-20.815,31.052-29.018,32.086-29.357
					c1.161-0.379,2.402,0.251,2.781,1.407c0.38,1.156-0.25,2.402-1.406,2.783c-0.233,0.076-23.308,7.87-29.269,26.534
					c-3.81,11.932,0.066,25.874,11.521,41.442c0.248,0.337,0.394,0.736,0.423,1.154l9.852,141.267
					c0.018,0.255-0.009,0.513-0.08,0.759l-136.366,477.362C1422.94,2017.032,1422.057,2017.664,1421.098,2017.664z"/>
				<path style="fill:#BC8271;" d="M1628.63,2009.188c-0.036,0-0.07-0.001-0.105-0.002c-1.217-0.057-2.156-1.089-2.099-2.306
					l29.52-630.717c0.058-1.217,1.123-2.138,2.306-2.099c1.216,0.057,2.156,1.09,2.099,2.306l-29.52,630.717
					C1630.775,2008.268,1629.8,2009.188,1628.63,2009.188z"/>
				<polygon style="fill:#F7F1EB;" points="1466.5,1796.429 1487.054,1728.185 1559.756,1719.83 1567.228,1784.854 				"/>
				<g>
					<polygon style="fill:#EFBC73;" points="1752.638,1608.985 1916.359,1778.145 2097.249,1603.073 1868.643,1366.868 
						1687.75,1541.941 					"/>
					
						<rect x="1738.202" y="1434.759" transform="matrix(-0.7186 0.6955 -0.6955 -0.7186 4067.9827 1263.084)" style="fill:#363E44;" width="80.445" height="39.76"/>
					<path style="fill:#363E44;" d="M1764.495,1463.167c-5.354,0-10.701-2.082-14.71-6.224c-7.848-8.109-7.636-21.092,0.474-28.942
						c8.109-7.846,21.091-7.634,28.94,0.474c7.848,8.109,7.636,21.092-0.474,28.942
						C1774.759,1461.256,1769.624,1463.167,1764.495,1463.167z M1764.49,1426.659c-4.024,0-8.052,1.499-11.165,4.512
						c-6.363,6.158-6.528,16.344-0.37,22.706c6.157,6.36,16.344,6.529,22.705,0.37c6.361-6.157,6.528-16.344,0.37-22.706
						C1772.886,1428.294,1768.69,1426.659,1764.49,1426.659z"/>
				</g>
				<g>
					<g>
						<path style="fill:#84524D;" d="M1897.062,1530.66c-23.956,17.339-72.872,53.279-77.014,56.524
							c-22.047,17.271-70.291,52.911-61.811,70.156c2.82,5.735,9.697,9.212,17.327,9.656c-2.336,7.858,0.152,16.265,6.239,21.224
							c7.998,6.517,17.86,3.534,18.58,3.303c-2.593,5.796-2.157,12.381,1.357,16.973c4.848,6.337,14.964,8.107,23.146,2.988
							c0.163,1.792,0.965,8.157,6.206,12.784c5.807,5.127,14.718,6.049,22.547,2.295c19.6-15.329,84.742-54.337,125.209-78.427
							C1979.678,1647.641,1899.054,1529.219,1897.062,1530.66z"/>
						<path style="fill:#363E44;" d="M1795.032,1641.991c-0.606,0-1.209-0.248-1.644-0.734l-8.219-9.183
							c-0.812-0.908-0.735-2.302,0.172-3.114c0.909-0.813,2.302-0.734,3.114,0.172l8.219,9.183c0.812,0.908,0.735,2.302-0.172,3.113
							C1796.081,1641.806,1795.556,1641.991,1795.032,1641.991z"/>
						<path style="fill:#363E44;" d="M1815.855,1665.321c-0.606,0-1.208-0.248-1.644-0.734l-8.22-9.183
							c-0.812-0.906-0.735-2.301,0.172-3.113c0.908-0.813,2.301-0.735,3.114,0.172l8.22,9.183c0.812,0.908,0.735,2.302-0.172,3.113
							C1816.904,1665.136,1816.379,1665.321,1815.855,1665.321z"/>
						<path style="fill:#363E44;" d="M1836.797,1689.311c-0.606,0-1.208-0.248-1.644-0.734l-8.219-9.182
							c-0.812-0.908-0.735-2.302,0.172-3.114c0.909-0.814,2.301-0.734,3.113,0.172l8.219,9.182c0.812,0.907,0.735,2.302-0.172,3.113
							C1837.846,1689.125,1837.32,1689.311,1836.797,1689.311z"/>
						<path style="fill:#363E44;" d="M1856.238,1710.676c-0.605,0-1.208-0.248-1.644-0.734l-8.22-9.182
							c-0.812-0.907-0.735-2.302,0.172-3.113c0.909-0.814,2.302-0.735,3.114,0.172l8.22,9.182c0.812,0.906,0.735,2.301-0.172,3.113
							C1857.286,1710.491,1856.761,1710.676,1856.238,1710.676z"/>
					</g>
					
						<rect x="1897.079" y="1498.797" transform="matrix(0.6274 0.7787 -0.7787 0.6274 1954.6475 -961.3279)" style="fill:#FFFFFF;" width="169.717" height="126.397"/>
					<path style="fill:#BC8271;" d="M1964.97,1468.427c-0.643,0-1.279-0.279-1.715-0.817c-0.765-0.947-0.62-2.335,0.326-3.102
						l62.455-50.559c0.946-0.766,2.334-0.621,3.102,0.326c0.765,0.947,0.62,2.335-0.326,3.102l-62.455,50.559
						C1965.948,1468.267,1965.458,1468.427,1964.97,1468.427z"/>
					
						<rect x="1921.152" y="1492.834" transform="matrix(-0.7787 0.6274 -0.6274 -0.7787 4469.5386 1592.5275)" style="fill:#F7F1EB;" width="65.452" height="183.543"/>
				</g>
				<g>
					<g>
						<g>
							<g>
								<path style="fill:#84524D;" d="M1184.564,1238.416c4.169-4.64,12.511-4.406,14.418-4.035
									c-2.139-5.322-2.338-11.522,2.813-16.704c4.574-4.601,13.37-3.095,14.133-2.922c-0.189-0.756-5.274-6.94,0.237-14.746
									c3.724-5.275,10.863-5.994,13.14-5.668c-0.043-0.949-0.946-7.724,4.135-12.347c13.884-12.631,46.543,16.746,84.478,60.767
									c79.708,92.496,116.385,153.637,117.183,154.548c14.299,16.257-78.907,54.515-100.892,85.961
									c-1.658-2.209-28.93-23.482-107.947-175.698c-8.247-15.886-32.223-40.015-40.11-49.431
									C1181.852,1253.006,1179.143,1244.447,1184.564,1238.416z"/>
								<path style="fill:#84524D;" d="M1285.482,1216.782c-14.596-51.813-4.623-60.117,2.002-59.521
									c22.493,2.022,60.426,126.688,60.426,126.688S1312.903,1246.928,1285.482,1216.782z"/>
								<path style="fill:#363E44;" d="M1310.574,1370.154c-0.384,0-0.766-0.101-1.104-0.297c-0.506-0.293-0.875-0.775-1.026-1.34
									l-137.114-514.402c-0.313-1.176,0.386-2.385,1.563-2.698l13.921-3.711c0.562-0.15,1.167-0.071,1.672,0.223
									c0.506,0.293,0.875,0.775,1.026,1.34l137.114,514.402c0.313,1.176-0.386,2.385-1.562,2.698l-13.921,3.711
									C1310.955,1370.13,1310.765,1370.154,1310.574,1370.154z M1176.158,855.109l135.979,510.142l9.661-2.575l-135.979-510.142
									L1176.158,855.109z"/>
								<path style="fill:#363E44;" d="M1213.383,1280.972c-0.632,0-1.26-0.27-1.696-0.793c-0.78-0.937-0.652-2.327,0.283-3.106
									c6.698-5.578,7.954-15.488,2.858-22.561l-4.409-6.119c-0.659-0.915-0.521-2.179,0.319-2.931
									c0.84-0.751,2.111-0.749,2.949,0.006l11.002,9.936c3.538,3.196,8.852,3.405,12.634,0.501c2.13-1.635,3.475-4.005,3.79-6.672
									c0.314-2.667-0.443-5.284-2.133-7.371l-12.419-15.336c-0.737-0.911-0.633-2.24,0.237-3.025
									c0.871-0.784,2.203-0.751,3.034,0.075l6.757,6.733c6.222,5.606,11.793,5.497,14.306,2.993
									c2.37-2.365,2.587-7.509-2.535-13.216l-8.964-10.467c-0.764-0.894-0.693-2.23,0.16-3.037
									c0.854-0.807,2.192-0.802,3.041,0.012l11.416,10.953c2.543,2.296,6.432,2.45,9.197,0.322
									c1.559-1.197,2.543-2.93,2.773-4.882c0.23-1.952-0.324-3.867-1.561-5.395l-9.697-11.975
									c-0.765-0.946-0.62-2.335,0.326-3.102c0.943-0.766,2.334-0.621,3.102,0.326l9.697,11.975
									c1.992,2.46,2.884,5.544,2.513,8.687c-0.37,3.142-1.957,5.934-4.466,7.862c-2.977,2.289-6.762,2.936-10.19,1.991
									c2.294,5.456,1.079,10.295-1.699,13.067c-2.575,2.571-6.928,3.785-11.985,2.189l0.384,0.475
									c2.445,3.019,3.541,6.806,3.085,10.665c-0.455,3.856-2.402,7.284-5.482,9.65c-5.472,4.204-13.157,3.897-18.277-0.725
									l-0.146-0.132c2.174,7.792-0.266,16.481-6.793,21.918C1214.381,1280.804,1213.881,1280.972,1213.383,1280.972z"/>
							</g>
						</g>
					</g>
					<path style="fill:#FFFFFF;" d="M1355.602,1517.149l-98.553-118.922l106.138-120.242l92.713,97.783l-75.329,145.588
						C1378.685,1524.427,1357.902,1519.924,1355.602,1517.149z"/>
					<polygon style="fill:#F7F1EB;" points="1215.974,1374.627 1248.546,1422.852 1416.455,1306.476 1371.573,1256.456 					"/>
					<path style="fill:#BC8271;" d="M1450.106,1374.352c-0.651,0-1.296-0.287-1.731-0.839l-21.729-27.525
						c-0.755-0.956-0.592-2.343,0.364-3.096c0.954-0.754,2.341-0.592,3.096,0.364l21.729,27.525
						c0.755,0.956,0.592,2.343-0.364,3.096C1451.067,1374.197,1450.585,1374.352,1450.106,1374.352z"/>
				</g>
			</g>
			<g>
				<polygon style="fill:#84524D;" points="1659.852,1194.421 1658.148,1376.266 1740.27,1192.139 1740.27,1055.777 
					1659.852,1055.777 				"/>
				<g>
					<path style="fill:#84524D;" d="M1633.879,1139.5c19.358,14.747,76.654-21.612,76.654-21.612l34.293-65.965
						c1.145-34.215-25.663-62.881-59.879-64.026c-34.216-1.145-62.881,25.663-64.026,59.879
						C1620.921,1047.776,1614.162,1124.48,1633.879,1139.5z"/>
					<path style="fill:#84524D;" d="M1627.495,1064.304c0,0-17.986,17.624-17.223,22.462c0.911,5.774,20.151,9.922,20.151,9.922
						S1627.031,1064.333,1627.495,1064.304z"/>
					<g>
						<path style="fill:#FFFFFF;" d="M1683.493,1063.525c0,0-10.185-5.926-22.688-6.343c-2.66-0.089,1.646,21.366,4.211,20.245
							C1676.296,1072.498,1683.493,1063.525,1683.493,1063.525z"/>
						<path style="fill:#363E44;" d="M1656.723,1080.007c-15.927,2.963-30.907-5.752-30.907-5.752s10.843-13.52,26.77-16.483
							c2.789-0.519,5.543-0.664,8.198-0.576c4.983,5.722,6.37,13.408,4.242,20.222
							C1662.457,1078.542,1659.679,1079.457,1656.723,1080.007z"/>
					</g>
					<path style="fill:#363E44;" d="M1645.693,1110.135c-2.182,0-4.365-0.651-6.233-1.943c-1.002-0.692-1.253-2.066-0.561-3.067
						c0.693-1.001,2.064-1.253,3.067-0.561c2.11,1.459,4.879,1.552,7.056,0.241c2.098-1.264,3.318-3.67,3.109-6.131
						c-0.102-1.213,0.798-2.28,2.011-2.384c1.222-0.116,2.28,0.798,2.384,2.011c0.35,4.122-1.703,8.157-5.228,10.28
						C1649.575,1109.62,1647.634,1110.135,1645.693,1110.135z"/>
					<path style="fill:#363E44;" d="M1666.717,1142.379c-0.927,0-1.789-0.589-2.094-1.517c-0.381-1.157,0.249-2.403,1.405-2.783
						c20.974-6.899,43.066-20.844,43.287-20.983c1.029-0.654,2.39-0.349,3.042,0.68c0.652,1.028,0.348,2.39-0.68,3.042
						c-0.919,0.584-22.78,14.381-44.271,21.448C1667.177,1142.342,1666.945,1142.379,1666.717,1142.379z"/>
				</g>
				<g>
					<g>
						<path style="fill:#363E44;" d="M1757.364,1087.553c14.972-12.692,9.657-54.437-7.638-77.536
							c-22.297-29.781-66.789-39.153-97.868-28.143c-7.64,2.706-24.492,11.204-27.505,23.894
							c-2.345,9.88,11.175,25.592,27.437,26.866c22.865,1.791,50.963-10.753,46.365,15.971
							C1684.224,1129.586,1740.912,1101.5,1757.364,1087.553z"/>
					</g>
					
						<ellipse transform="matrix(0.7071 -0.7071 0.7071 0.7071 -180.6687 1614.1298)" style="fill:#363E44;" cx="1858.093" cy="1025.151" rx="130.058" ry="130.058"/>
					<path style="fill:#363E44;" d="M1833.575,1092.744c-46.233,0-88.572-31.04-100.826-77.808
						c-14.565-55.586,18.808-112.657,74.393-127.222c55.589-14.567,112.657,18.808,127.222,74.393
						c14.565,55.586-18.808,112.657-74.393,127.222C1851.153,1091.64,1842.292,1092.744,1833.575,1092.744z M1737.014,1013.819
						c13.949,53.233,68.602,85.195,121.839,71.245c53.233-13.949,85.193-68.606,71.245-121.839
						c-13.948-53.232-68.601-85.189-121.839-71.245C1755.026,905.929,1723.066,960.586,1737.014,1013.819z"/>
					<path style="fill:#FFFFFF;" d="M1836.237,1145.05c-32.139,0-62.535-16.341-80.206-44.664c-0.644-1.033-0.329-2.393,0.704-3.038
						c1.032-0.644,2.392-0.33,3.038,0.704c21.072,33.774,61.128,49.681,99.672,39.582c33.727-8.838,59.644-36.707,66.029-70.999
						c0.222-1.196,1.365-1.995,2.571-1.763c1.197,0.223,1.986,1.374,1.763,2.571c-6.695,35.963-33.876,65.189-69.246,74.457
						C1852.461,1144.023,1844.293,1145.05,1836.237,1145.05z"/>
				</g>
				<g>
					<path style="fill:#FFFFFF;" d="M1652.447,1097.218c-5.672,0-11.141-2.379-15.567-6.815c-4.792-4.803-7.792-11.467-8.448-18.764
						s1.109-14.388,4.968-19.968c3.946-5.705,9.598-9.158,15.915-9.726c6.326-0.572,12.494,1.825,17.392,6.734
						c4.793,4.802,7.793,11.465,8.449,18.763c0.656,7.297-1.109,14.388-4.969,19.968c-3.946,5.705-9.598,9.158-15.915,9.726
						C1653.662,1097.191,1653.053,1097.218,1652.447,1097.218z M1651.124,1046.274c-0.47,0-0.942,0.02-1.415,0.064
						c-4.99,0.448-9.494,3.233-12.682,7.842c-3.274,4.734-4.767,10.794-4.203,17.066c0.563,6.271,3.112,11.969,7.177,16.043
						c3.958,3.966,8.888,5.905,13.877,5.455c4.99-0.448,9.494-3.233,12.682-7.842c3.274-4.734,4.767-10.794,4.203-17.066
						c-0.563-6.271-3.112-11.968-7.177-16.042C1660.002,1048.202,1655.624,1046.274,1651.124,1046.274z"/>
					<path style="fill:#FFFFFF;" d="M1708.26,1069.253c-0.001,0-0.001,0-0.002,0l-33.402-0.036
						c-1.218-0.001-2.204-0.989-2.203-2.207c0.001-1.217,0.988-2.203,2.205-2.203c0.001,0,0.001,0,0.002,0l33.402,0.036
						c1.218,0.001,2.204,0.989,2.203,2.207C1710.463,1068.266,1709.476,1069.253,1708.26,1069.253z"/>
					<path style="fill:#FFFFFF;" d="M1617.091,1070.101c-0.51,0-1.023-0.176-1.439-0.535c-0.922-0.796-1.025-2.188-0.229-3.11
						c5.608-6.501,12.321-3.78,15.086-1.432c0.929,0.788,1.042,2.179,0.254,3.107c-0.785,0.928-2.169,1.041-3.099,0.262
						c-0.796-0.657-4.927-3.662-8.901,0.944C1618.326,1069.841,1617.71,1070.101,1617.091,1070.101z"/>
				</g>
			</g>
		</g>
	</g>
</g>
</svg>
