<?xml version="1.0" encoding="utf-8"?>
<!-- Generator: Adobe Illustrator 27.5.0, SVG Export Plug-In . SVG Version: 6.00 Build 0)  -->
<svg version="1.1" xmlns="http://www.w3.org/2000/svg" xmlns:xlink="http://www.w3.org/1999/xlink" x="0px" y="0px"
	 viewBox="0 0 2500 2500" style="enable-background:new 0 0 2500 2500;" xml:space="preserve">
-
<g id="Illustration">
	<g id="Sleep_deprivation_1_">
		<ellipse style="fill:transparent;" cx="1250" cy="1250" rx="915.619" ry="915"/>
		<g>
			<g>
				<path style="fill:#D3BBA3;" d="M511.327,1388.193l-0.814-0.368c-5.178-2.338-7.482-8.429-5.148-13.609l24.341-54.016
					c2.337-5.185,8.436-7.493,13.62-5.152l0.814,0.368c5.178,2.338,7.482,8.429,5.148,13.609l-24.341,54.016
					C522.61,1388.226,516.51,1390.533,511.327,1388.193z"/>
				<path style="fill:#D3BBA3;" d="M747.67,1386.838l0.815-0.368c5.178-2.338,7.482-8.429,5.148-13.609l-24.341-54.016
					c-2.337-5.185-8.436-7.493-13.62-5.152l-0.815,0.368c-5.178,2.338-7.482,8.429-5.148,13.609l24.341,54.016
					C736.387,1386.871,742.487,1389.178,747.67,1386.838z"/>
				<g>
					<path style="fill:#E2A18D;" d="M754.949,972.273l0.707,0.489c4.484,3.101,10.634,1.976,13.73-2.511l78.328-113.507
						c3.092-4.481,1.97-10.62-2.509-13.717l-0.707-0.489c-4.484-3.101-10.633-1.976-13.73,2.511l-78.328,113.507
						C749.349,963.037,750.471,969.177,754.949,972.273z"/>
					<path style="fill:#D3BBA3;" d="M718.799,863.939l145.642,100.71l1.653-2.396c20.311-29.434,12.937-69.757-16.477-90.097
						l-39.052-27.004c-29.454-20.367-69.845-12.98-90.183,16.493L718.799,863.939z"/>
				</g>
				<g>
					<path style="fill:#E2A18D;" d="M531.854,986.586l-0.694,0.508c-4.4,3.219-10.577,2.258-13.792-2.146l-81.31-111.385
						c-3.21-4.398-2.251-10.564,2.144-13.779l0.694-0.508c4.4-3.219,10.577-2.258,13.792,2.146l81.31,111.385
						C537.208,977.204,536.249,983.371,531.854,986.586z"/>
					<path style="fill:#D3BBA3;" d="M565.119,877.329l-142.92,104.545l-1.716-2.351c-21.085-28.884-14.783-69.388,14.08-90.502
						l38.325-28.034c28.903-21.142,69.476-14.83,90.59,14.094L565.119,877.329z"/>
				</g>
				<g>
					<ellipse style="fill:#D3BBA3;" cx="652.031" cy="1123.044" rx="225.716" ry="225.948"/>
					<path style="fill:#D87355;" d="M637.547,1351.201c-125.678,0-227.925-102.352-227.925-228.157s102.247-228.157,227.925-228.157
						c125.678,0,227.925,102.352,227.925,228.157S763.225,1351.201,637.547,1351.201z M637.547,899.305
						c-123.243,0-223.508,100.369-223.508,223.739s100.265,223.74,223.508,223.74c123.243,0,223.508-100.37,223.508-223.74
						S760.79,899.305,637.547,899.305z"/>
					<ellipse style="fill:#F7F1EB;" cx="654.267" cy="1123.759" rx="198.929" ry="199.134"/>
					<path style="fill:#E6D0BE;" d="M655.494,1281.13c-87.076,0-157.917-70.914-157.917-158.077
						c0-87.163,70.841-158.075,157.917-158.075c87.075,0,157.916,70.912,157.916,158.075
						C813.409,1210.216,742.569,1281.13,655.494,1281.13z M655.494,969.395c-84.64,0-153.499,68.93-153.499,153.658
						c0,84.728,68.86,153.66,153.499,153.66c84.639,0,153.498-68.932,153.498-153.66
						C808.992,1038.324,740.133,969.395,655.494,969.395z"/>
					<ellipse style="fill:#363E44;" cx="652.997" cy="1125.944" rx="17.382" ry="17.4"/>
					<path style="fill:#363E44;" d="M651.57,1128.4l-0.201,0.194c-1.266,1.224-3.284,1.19-4.507-0.077l-90.867-94.117
						c-1.223-1.266-1.188-3.284,0.077-4.508l0.201-0.194c1.266-1.224,3.284-1.19,4.507,0.077l90.867,94.117
						C652.869,1125.159,652.835,1127.177,651.57,1128.4z"/>
					<path style="fill:#363E44;" d="M646.653,1132.757l-0.198-0.395c-1.236-2.474-0.233-5.482,2.24-6.72l79.968-40.029
						c2.476-1.239,5.488-0.235,6.726,2.242l0.198,0.395c1.236,2.474,0.233,5.482-2.24,6.72l-79.968,40.029
						C650.903,1136.238,647.891,1135.234,646.653,1132.757z"/>
					
						<ellipse transform="matrix(0.0014 -1 1 0.0014 -296.1845 1953.5021)" style="fill:#EFBC73;" cx="830.019" cy="1125.05" rx="8.7" ry="8.691"/>
					
						<ellipse transform="matrix(1 -0.0014 0.0014 1 -1.5735 0.6682)" style="fill:#EFBC73;" cx="476.582" cy="1124.405" rx="8.691" ry="8.7"/>
					<ellipse style="fill:#EFBC73;" cx="655.232" cy="943.635" rx="8.691" ry="8.7"/>
					
						<ellipse transform="matrix(0.0014 -1 1 0.0014 -648.2697 1954.7229)" style="fill:#EFBC73;" cx="654.588" cy="1301.948" rx="8.7" ry="8.691"/>
				</g>
			</g>
			<g>
				<path style="fill:#D3BBA3;" d="M837.42,1939.334H378.508c-1.22,0-2.209-0.988-2.209-2.209v-547.728
					c0-1.221,0.989-2.208,2.209-2.208H837.42c1.22,0,2.209,0.988,2.209,2.208v547.728
					C839.629,1938.346,838.64,1939.334,837.42,1939.334z M380.716,1934.917h454.495v-543.311H380.716V1934.917z"/>
				<path style="fill:#D3BBA3;" d="M786.675,1570.501h-364.04c-1.22,0-2.209-0.988-2.209-2.208v-130.306
					c0-1.221,0.989-2.209,2.209-2.209h364.04c1.22,0,2.209,0.988,2.209,2.209v130.306
					C788.883,1569.514,787.894,1570.501,786.675,1570.501z M424.843,1566.084h359.623v-125.889H424.843V1566.084z"/>
				<path style="fill:#D3BBA3;" d="M788.881,1778.108H424.84c-1.22,0-2.209-0.988-2.209-2.209v-130.306
					c0-1.221,0.989-2.209,2.209-2.209h364.041c1.22,0,2.209,0.988,2.209,2.209v130.306
					C791.09,1777.12,790.101,1778.108,788.881,1778.108z M427.048,1773.691h359.624v-125.889H427.048V1773.691z"/>
				<ellipse style="fill:#D3BBA3;" cx="607.964" cy="1502.037" rx="17.65" ry="17.669"/>
				<ellipse style="fill:#D3BBA3;" cx="610.17" cy="1707.434" rx="17.65" ry="17.669"/>
			</g>
		</g>
		<g>
			<rect x="1223.581" y="358.021" style="fill:#363E44;" width="830.634" height="1030.251"/>
			<g>
				<g>
					<path style="fill:#B77250;" d="M1427.62,1038.801h-188.113c-1.22,0-2.209-0.988-2.209-2.208V722.114
						c0-1.221,0.989-2.209,2.209-2.209h188.113c1.22,0,2.209,0.988,2.209,2.209v314.479
						C1429.828,1037.813,1428.84,1038.801,1427.62,1038.801z M1241.715,1034.384h183.696V724.322h-183.696V1034.384z"/>
					<g>
						<rect x="1269.698" y="746.848" style="fill:#B77250;" width="13.73" height="24.237"/>
						<rect x="1309.025" y="746.848" style="fill:#B77250;" width="13.73" height="24.237"/>
						<rect x="1348.352" y="746.848" style="fill:#B77250;" width="13.73" height="24.237"/>
						<rect x="1387.679" y="746.848" style="fill:#B77250;" width="13.73" height="24.237"/>
						<rect x="1269.698" y="802.288" style="fill:#B77250;" width="13.73" height="24.237"/>
						<rect x="1309.025" y="802.288" style="fill:#B77250;" width="13.73" height="24.237"/>
						<rect x="1348.352" y="802.288" style="fill:#B77250;" width="13.73" height="24.237"/>
						<rect x="1387.679" y="802.288" style="fill:#B77250;" width="13.73" height="24.237"/>
						<rect x="1269.698" y="857.729" style="fill:#B77250;" width="13.73" height="24.237"/>
						<rect x="1309.025" y="857.729" style="fill:#B77250;" width="13.73" height="24.237"/>
						<rect x="1348.352" y="857.729" style="fill:#B77250;" width="13.73" height="24.237"/>
						<rect x="1387.679" y="857.729" style="fill:#B77250;" width="13.73" height="24.237"/>
						<rect x="1269.698" y="913.169" style="fill:#B77250;" width="13.73" height="24.237"/>
						<rect x="1309.025" y="913.169" style="fill:#B77250;" width="13.73" height="24.237"/>
						<rect x="1348.352" y="913.169" style="fill:#B77250;" width="13.73" height="24.237"/>
						<rect x="1387.679" y="913.169" style="fill:#B77250;" width="13.73" height="24.237"/>
						<rect x="1269.698" y="968.609" style="fill:#B77250;" width="13.73" height="24.237"/>
						<rect x="1309.025" y="968.609" style="fill:#B77250;" width="13.73" height="24.237"/>
						<rect x="1348.352" y="968.609" style="fill:#B77250;" width="13.73" height="24.237"/>
						<rect x="1387.679" y="968.609" style="fill:#B77250;" width="13.73" height="24.237"/>
					</g>
				</g>
				<g>
					<path style="fill:#B77250;" d="M1773.933,1033.398h-199.324c-1.22,0-2.208-0.988-2.208-2.209V650.05
						c0-1.221,0.989-2.209,2.208-2.209h199.324c1.22,0,2.208,0.988,2.208,2.209v381.139
						C1776.142,1032.41,1775.153,1033.398,1773.933,1033.398z M1576.818,1028.981h194.907V652.258h-194.907V1028.981z"/>
					<g>
						<rect x="1602.37" y="680.241" style="fill:#B77250;" width="13.73" height="24.237"/>
						<rect x="1641.697" y="680.241" style="fill:#B77250;" width="13.73" height="24.237"/>
						<rect x="1681.024" y="680.241" style="fill:#B77250;" width="13.73" height="24.237"/>
						<rect x="1720.351" y="680.241" style="fill:#B77250;" width="13.73" height="24.237"/>
						<rect x="1602.37" y="735.681" style="fill:#B77250;" width="13.73" height="24.237"/>
						<rect x="1641.697" y="735.681" style="fill:#B77250;" width="13.73" height="24.237"/>
						<rect x="1681.024" y="735.681" style="fill:#B77250;" width="13.73" height="24.237"/>
						<rect x="1720.351" y="735.681" style="fill:#B77250;" width="13.73" height="24.237"/>
						<rect x="1602.37" y="791.121" style="fill:#B77250;" width="13.73" height="24.237"/>
						<rect x="1641.697" y="791.121" style="fill:#B77250;" width="13.73" height="24.237"/>
						<rect x="1681.024" y="791.121" style="fill:#B77250;" width="13.73" height="24.237"/>
						<rect x="1720.351" y="791.121" style="fill:#B77250;" width="13.73" height="24.237"/>
						<rect x="1602.37" y="846.561" style="fill:#B77250;" width="13.73" height="24.237"/>
						<rect x="1641.697" y="846.561" style="fill:#B77250;" width="13.73" height="24.237"/>
						<rect x="1681.024" y="846.561" style="fill:#B77250;" width="13.73" height="24.237"/>
						<rect x="1720.351" y="846.561" style="fill:#B77250;" width="13.73" height="24.237"/>
						<rect x="1602.37" y="902.002" style="fill:#B77250;" width="13.73" height="24.237"/>
						<rect x="1641.697" y="902.002" style="fill:#B77250;" width="13.73" height="24.237"/>
						<rect x="1681.024" y="902.002" style="fill:#B77250;" width="13.73" height="24.237"/>
						<rect x="1720.351" y="902.002" style="fill:#B77250;" width="13.73" height="24.237"/>
					</g>
				</g>
				<g>
					<rect x="1439.089" y="1011.485" style="fill:#776E42;" width="223.317" height="394.217"/>
					<g>
						<rect x="1464.925" y="1047.446" style="fill:#B77250;" width="17.732" height="31.302"/>
						<rect x="1515.714" y="1047.446" style="fill:#B77250;" width="17.732" height="31.302"/>
						<rect x="1566.504" y="1047.446" style="fill:#B77250;" width="17.732" height="31.302"/>
						<rect x="1617.293" y="1047.446" style="fill:#B77250;" width="17.732" height="31.302"/>
						<rect x="1464.925" y="1119.046" style="fill:#B77250;" width="17.732" height="31.302"/>
						<rect x="1515.714" y="1119.046" style="fill:#B77250;" width="17.732" height="31.302"/>
						<rect x="1566.504" y="1119.046" style="fill:#B77250;" width="17.732" height="31.302"/>
						<rect x="1617.293" y="1119.046" style="fill:#B77250;" width="17.732" height="31.302"/>
						<rect x="1464.925" y="1190.645" style="fill:#B77250;" width="17.732" height="31.302"/>
						<rect x="1515.714" y="1190.645" style="fill:#B77250;" width="17.732" height="31.302"/>
						<rect x="1566.504" y="1190.645" style="fill:#B77250;" width="17.732" height="31.302"/>
						<rect x="1617.293" y="1190.645" style="fill:#B77250;" width="17.732" height="31.302"/>
						<rect x="1464.925" y="1262.245" style="fill:#B77250;" width="17.732" height="31.302"/>
						<rect x="1515.714" y="1262.245" style="fill:#B77250;" width="17.732" height="31.302"/>
						<rect x="1566.504" y="1262.245" style="fill:#B77250;" width="17.732" height="31.302"/>
						<rect x="1617.293" y="1262.245" style="fill:#B77250;" width="17.732" height="31.302"/>
						<rect x="1464.925" y="1333.844" style="fill:#B77250;" width="17.732" height="31.302"/>
						<rect x="1515.714" y="1333.844" style="fill:#B77250;" width="17.732" height="31.302"/>
						<rect x="1566.504" y="1333.844" style="fill:#B77250;" width="17.732" height="31.302"/>
						<rect x="1617.293" y="1333.844" style="fill:#B77250;" width="17.732" height="31.302"/>
					</g>
				</g>
				<g>
					<rect x="1746.396" y="552.487" style="fill:#776E42;" width="234.378" height="640.356"/>
					<g>
						<path style="fill:#84524D;" d="M1980.774,603.178h-234.378c-1.22,0-2.209-0.988-2.209-2.208c0-1.221,0.989-2.209,2.209-2.209
							h234.378c1.22,0,2.209,0.988,2.209,2.209C1982.983,602.19,1981.994,603.178,1980.774,603.178z"/>
						<path style="fill:#84524D;" d="M1980.774,651.661h-234.378c-1.22,0-2.209-0.988-2.209-2.209c0-1.221,0.989-2.209,2.209-2.209
							h234.378c1.22,0,2.209,0.988,2.209,2.209C1982.983,650.673,1981.994,651.661,1980.774,651.661z"/>
						<path style="fill:#84524D;" d="M1980.774,700.144h-234.378c-1.22,0-2.209-0.988-2.209-2.209c0-1.221,0.989-2.209,2.209-2.209
							h234.378c1.22,0,2.209,0.988,2.209,2.209C1982.983,699.156,1981.994,700.144,1980.774,700.144z"/>
						<path style="fill:#84524D;" d="M1980.774,748.627h-234.378c-1.22,0-2.209-0.988-2.209-2.208c0-1.221,0.989-2.209,2.209-2.209
							h234.378c1.22,0,2.209,0.988,2.209,2.209C1982.983,747.639,1981.994,748.627,1980.774,748.627z"/>
						<path style="fill:#84524D;" d="M1980.774,797.11h-234.378c-1.22,0-2.209-0.988-2.209-2.209c0-1.221,0.989-2.209,2.209-2.209
							h234.378c1.22,0,2.209,0.988,2.209,2.209C1982.983,796.122,1981.994,797.11,1980.774,797.11z"/>
						<path style="fill:#84524D;" d="M1980.774,845.593h-234.378c-1.22,0-2.209-0.988-2.209-2.209c0-1.221,0.989-2.209,2.209-2.209
							h234.378c1.22,0,2.209,0.988,2.209,2.209C1982.983,844.606,1981.994,845.593,1980.774,845.593z"/>
						<path style="fill:#84524D;" d="M1980.774,894.074h-234.378c-1.22,0-2.209-0.988-2.209-2.209c0-1.221,0.989-2.209,2.209-2.209
							h234.378c1.22,0,2.209,0.988,2.209,2.209C1982.983,893.086,1981.994,894.074,1980.774,894.074z"/>
						<path style="fill:#84524D;" d="M1980.774,942.557h-234.378c-1.22,0-2.209-0.988-2.209-2.208c0-1.221,0.989-2.209,2.209-2.209
							h234.378c1.22,0,2.209,0.988,2.209,2.209C1982.983,941.57,1981.994,942.557,1980.774,942.557z"/>
						<path style="fill:#84524D;" d="M1980.774,991.04h-234.378c-1.22,0-2.209-0.988-2.209-2.209c0-1.221,0.989-2.209,2.209-2.209
							h234.378c1.22,0,2.209,0.988,2.209,2.209C1982.983,990.053,1981.994,991.04,1980.774,991.04z"/>
						<path style="fill:#84524D;" d="M1792.407,1195.052c-1.22,0-2.208-0.988-2.208-2.209V552.486c0-1.221,0.989-2.209,2.208-2.209
							c1.22,0,2.209,0.988,2.209,2.209v640.357C1794.616,1194.064,1793.627,1195.052,1792.407,1195.052z"/>
						<path style="fill:#84524D;" d="M1865.058,1195.052c-1.22,0-2.208-0.988-2.208-2.209V552.486c0-1.221,0.989-2.209,2.208-2.209
							s2.209,0.988,2.209,2.209v640.357C1867.266,1194.064,1866.277,1195.052,1865.058,1195.052z"/>
						<path style="fill:#84524D;" d="M1937.707,1195.052c-1.22,0-2.208-0.988-2.208-2.209V552.486c0-1.221,0.989-2.209,2.208-2.209
							c1.22,0,2.209,0.988,2.209,2.209v640.357C1939.915,1194.064,1938.927,1195.052,1937.707,1195.052z"/>
					</g>
				</g>
				<g>
					<rect x="1789.14" y="838.702" style="fill:#EFBC73;" width="279.608" height="525.581"/>
					<g>
						<rect x="1821.489" y="886.646" style="fill:#F7F1EB;" width="22.201" height="41.732"/>
						<rect x="1885.08" y="886.646" style="fill:#F7F1EB;" width="22.201" height="41.732"/>
						<rect x="1948.672" y="886.646" style="fill:#F7F1EB;" width="22.201" height="41.732"/>
						<rect x="2012.264" y="886.646" style="fill:#F7F1EB;" width="22.201" height="41.732"/>
						<rect x="1821.489" y="982.104" style="fill:#F7F1EB;" width="22.201" height="41.732"/>
						<rect x="1885.08" y="982.104" style="fill:#F7F1EB;" width="22.201" height="41.732"/>
						<rect x="1948.672" y="982.104" style="fill:#F7F1EB;" width="22.201" height="41.732"/>
						<rect x="2012.264" y="982.104" style="fill:#F7F1EB;" width="22.201" height="41.732"/>
						<rect x="1821.489" y="1077.563" style="fill:#F7F1EB;" width="22.201" height="41.732"/>
						<rect x="1885.08" y="1077.563" style="fill:#F7F1EB;" width="22.201" height="41.732"/>
						<rect x="1948.672" y="1077.563" style="fill:#F7F1EB;" width="22.201" height="41.732"/>
						<rect x="2012.264" y="1077.563" style="fill:#F7F1EB;" width="22.201" height="41.732"/>
						<rect x="1821.489" y="1173.021" style="fill:#F7F1EB;" width="22.201" height="41.732"/>
						<rect x="1885.08" y="1173.021" style="fill:#F7F1EB;" width="22.201" height="41.732"/>
						<rect x="1948.672" y="1173.021" style="fill:#F7F1EB;" width="22.201" height="41.732"/>
						<rect x="2012.264" y="1173.021" style="fill:#F7F1EB;" width="22.201" height="41.732"/>
						<rect x="1821.489" y="1268.479" style="fill:#F7F1EB;" width="22.201" height="41.732"/>
						<rect x="1885.08" y="1268.479" style="fill:#F7F1EB;" width="22.201" height="41.732"/>
						<rect x="1948.672" y="1268.479" style="fill:#F7F1EB;" width="22.201" height="41.732"/>
						<rect x="2012.264" y="1268.479" style="fill:#F7F1EB;" width="22.201" height="41.732"/>
					</g>
				</g>
				<g>
					<rect x="1583.587" y="913.823" style="fill:#9E9569;" width="279.608" height="493.586"/>
					<g>
						<rect x="1615.935" y="958.848" style="fill:#F7F1EB;" width="22.201" height="39.192"/>
						<rect x="1679.527" y="958.848" style="fill:#F7F1EB;" width="22.201" height="39.192"/>
						<rect x="1743.119" y="958.848" style="fill:#F7F1EB;" width="22.201" height="39.192"/>
						<rect x="1806.711" y="958.848" style="fill:#F7F1EB;" width="22.201" height="39.192"/>
						<rect x="1615.935" y="1048.495" style="fill:#F7F1EB;" width="22.201" height="39.192"/>
						<rect x="1679.527" y="1048.495" style="fill:#F7F1EB;" width="22.201" height="39.192"/>
						<rect x="1743.119" y="1048.495" style="fill:#F7F1EB;" width="22.201" height="39.192"/>
						<rect x="1806.711" y="1048.495" style="fill:#F7F1EB;" width="22.201" height="39.192"/>
						<rect x="1615.935" y="1138.142" style="fill:#F7F1EB;" width="22.201" height="39.192"/>
						<rect x="1679.527" y="1138.142" style="fill:#F7F1EB;" width="22.201" height="39.192"/>
						<rect x="1743.119" y="1138.142" style="fill:#F7F1EB;" width="22.201" height="39.192"/>
						<rect x="1806.711" y="1138.142" style="fill:#F7F1EB;" width="22.201" height="39.192"/>
						<rect x="1615.935" y="1317.437" style="fill:#F7F1EB;" width="22.201" height="39.192"/>
						<rect x="1679.527" y="1317.437" style="fill:#F7F1EB;" width="22.201" height="39.192"/>
						<rect x="1743.119" y="1317.437" style="fill:#F7F1EB;" width="22.201" height="39.192"/>
						<rect x="1806.711" y="1317.437" style="fill:#F7F1EB;" width="22.201" height="39.192"/>
						<rect x="1617.598" y="1227.546" style="fill:#F7F1EB;" width="22.201" height="39.192"/>
						<rect x="1681.19" y="1227.546" style="fill:#F7F1EB;" width="22.201" height="39.192"/>
						<rect x="1744.782" y="1227.546" style="fill:#F7F1EB;" width="22.201" height="39.192"/>
						<rect x="1808.374" y="1227.546" style="fill:#F7F1EB;" width="22.201" height="39.192"/>
					</g>
				</g>
				<g>
					<rect x="1193.76" y="913.823" style="fill:#EFBC73;" width="279.608" height="493.586"/>
					<g>
						<rect x="1226.108" y="958.848" style="fill:#F7F1EB;" width="22.201" height="39.192"/>
						<rect x="1289.7" y="958.848" style="fill:#F7F1EB;" width="22.201" height="39.192"/>
						<rect x="1353.292" y="958.848" style="fill:#F7F1EB;" width="22.201" height="39.192"/>
						<rect x="1416.884" y="958.848" style="fill:#F7F1EB;" width="22.201" height="39.192"/>
						<rect x="1226.108" y="1048.495" style="fill:#F7F1EB;" width="22.201" height="39.192"/>
						<rect x="1289.7" y="1048.495" style="fill:#F7F1EB;" width="22.201" height="39.192"/>
						<rect x="1353.292" y="1048.495" style="fill:#F7F1EB;" width="22.201" height="39.192"/>
						<rect x="1416.884" y="1048.495" style="fill:#F7F1EB;" width="22.201" height="39.192"/>
						<rect x="1226.108" y="1138.142" style="fill:#F7F1EB;" width="22.201" height="39.192"/>
						<rect x="1289.7" y="1138.142" style="fill:#F7F1EB;" width="22.201" height="39.192"/>
						<rect x="1353.292" y="1138.142" style="fill:#F7F1EB;" width="22.201" height="39.192"/>
						<rect x="1416.884" y="1138.142" style="fill:#F7F1EB;" width="22.201" height="39.192"/>
						<rect x="1226.108" y="1227.789" style="fill:#F7F1EB;" width="22.201" height="39.192"/>
						<rect x="1289.7" y="1227.789" style="fill:#F7F1EB;" width="22.201" height="39.192"/>
						<rect x="1353.292" y="1227.789" style="fill:#F7F1EB;" width="22.201" height="39.192"/>
						<rect x="1416.884" y="1227.789" style="fill:#F7F1EB;" width="22.201" height="39.192"/>
						<rect x="1226.108" y="1317.437" style="fill:#F7F1EB;" width="22.201" height="39.192"/>
						<rect x="1289.7" y="1317.437" style="fill:#F7F1EB;" width="22.201" height="39.192"/>
						<rect x="1353.292" y="1317.437" style="fill:#F7F1EB;" width="22.201" height="39.192"/>
						<rect x="1416.884" y="1317.437" style="fill:#F7F1EB;" width="22.201" height="39.192"/>
					</g>
				</g>
			</g>
			<path style="fill:#FFFFFF;" d="M1193.674,335v1073.37h904.587V335H1193.674z M2034.278,1344.321h-776.621V396.84h776.621
				V1344.321z"/>
			<rect x="1606.24" y="370.337" style="fill:#FFFFFF;" width="44.126" height="993.861"/>
			<path style="fill:#EFBC73;" d="M1493.566,601.19c-35.312-5.547-59.444-38.7-53.902-74.047
				c2.676-17.069,11.794-31.515,24.473-41.28c-30.673,0.738-57.387,23.294-62.312,54.712c-5.541,35.347,18.591,68.498,53.903,74.045
				c18.259,2.868,35.92-2.219,49.496-12.677C1501.386,602.036,1497.491,601.807,1493.566,601.19z"/>
		</g>
		<g>
			<path style="fill:#FFFFFF;" d="M1642.704,1802.406H442.491v-25.313c0-34.157,26.559-62.633,61.292-65.871
				c240.857-22.458,694.719-6.734,1138.921,7.259V1802.406z"/>
			<path style="fill:#ff6900;" d="M1642.704,1794.677H442.491c-1.22,0-2.209-0.988-2.209-2.209v-25.312
				c0-35.443,27.21-64.707,63.295-68.071c230.558-21.495,663.111-7.814,1081.416,5.424l57.78,1.825
				c1.193,0.039,2.14,1.016,2.14,2.209v83.926C1644.913,1793.689,1643.924,1794.677,1642.704,1794.677z M444.7,1790.259h1195.796
				v-79.578l-55.642-1.758c-418.172-13.232-850.585-26.915-1080.867-5.439c-33.799,3.149-59.288,30.523-59.288,63.671V1790.259z"/>
			<path style="fill:#D3BBA3;" d="M594.726,2152.21h-30.888c-1.19,0-2.164-0.94-2.208-2.129l-11.032-307.84
				c-0.021-0.599,0.202-1.182,0.618-1.613c0.416-0.431,0.99-0.675,1.589-0.675h52.952c0.6,0,1.173,0.244,1.59,0.675
				c0.416,0.431,0.639,1.014,0.618,1.613l-11.032,307.84C596.89,2151.269,595.915,2152.21,594.726,2152.21z M565.969,2147.792
				h26.626l10.874-303.423h-48.373L565.969,2147.792z"/>
			<path style="fill:#D3BBA3;" d="M1933.948,2152.21h-30.888c-1.19,0-2.164-0.94-2.208-2.129l-11.032-307.84
				c-0.021-0.599,0.202-1.182,0.618-1.613c0.416-0.431,0.99-0.675,1.589-0.675h52.952c0.6,0,1.173,0.244,1.59,0.675
				s0.64,1.014,0.618,1.613l-11.032,307.84C1936.112,2151.269,1935.137,2152.21,1933.948,2152.21z M1905.191,2147.792h26.626
				l10.874-303.423h-48.373L1905.191,2147.792z"/>
			<path style="fill:#84524D;" d="M2051.973,1965.841H402.777v-185.647c0-6.162,4.995-11.158,11.158-11.158H2092.81v155.967
				C2092.81,1947.557,2074.527,1965.841,2051.973,1965.841z"/>
			<polygon style="fill:#84524D;" points="479.998,2162.405 449.109,2162.405 438.078,1842.161 491.029,1842.161 			"/>
			<polygon style="fill:#84524D;" points="2050.885,2162.405 2019.997,2162.405 2008.965,1842.161 2061.917,1842.161 			"/>
			<path style="fill:#ff6900;" d="M1848.72,1779.342c-67.107,0-133.6-3.343-194.653-7.206
				c-16.248-1.027-28.977-14.591-28.977-30.879v-18.782c0-19.269,14.48-35.247,33.682-37.164
				c142.614-14.241,260.178-13.133,359.405,3.384c0.564,0.093,1.07,0.403,1.411,0.863c21.192,28.543,21.157,55.48-0.102,80.061
				c-0.36,0.416-0.862,0.684-1.408,0.748C1963.168,1776.928,1905.721,1779.342,1848.72,1779.342z M1841.602,1679.824
				c-55.858,0-116.428,3.296-182.392,9.883c-16.933,1.691-29.703,15.777-29.703,32.768v18.782c0,13.963,10.91,25.591,24.838,26.471
				c112.445,7.111,243.38,12.475,362.353-1.646c19.269-22.726,19.227-46.682-0.129-73.176
				C1963.81,1684.183,1905.819,1679.824,1841.602,1679.824z M2017.815,1768.173h0.022H2017.815z"/>
			<path style="fill:#FFFFFF;" d="M2017.815,1778.112c-113.219,13.529-237.109,9.759-363.609,1.758
				c-15.122-0.956-26.908-13.508-26.908-28.676v-18.781c0-18.082,13.72-33.173,31.693-34.967
				c128.394-12.82,249.932-14.762,358.824,3.365C2038.803,1729.081,2038.017,1754.754,2017.815,1778.112z"/>
			<rect x="2024.415" y="1435.782" style="fill:#84524D;" width="68.396" height="527.851"/>
		</g>
		<g>
			<g>
				<polygon style="fill:#E2A18D;" points="1460.472,2048.865 1006.5,2048.865 1006.5,1567.649 1487.221,1567.649 				"/>
				<path style="fill:#E2A18D;" d="M862.329,1513.388c-101.757,155.715-163.107,326.755-101.082,360.495
					c35.98,19.573,135.376-13.006,251.502-261.292C969.11,1573.229,916.182,1559.839,862.329,1513.388z"/>
				<path style="fill:#E2A18D;" d="M1488.055,1443.586c129.986,114.083,244.031,250.258,167.458,324.72
					c-61.002,59.32-227.861-120.362-295.505-184.43C1402.691,1537.113,1445.373,1490.349,1488.055,1443.586z"/>
				<path style="fill:#363E44;" d="M1603.126,1538.743c0,0-130.465-168.296-391.349-175.305
					C965.988,1356.835,807,1567.649,807,1567.649l199.499,102.148l-16.059,365.694h497.088l-20.521-393.395L1603.126,1538.743z"/>
				<g>
					<path style="fill:#E2A18D;" d="M920.632,1773.368c0.004,0.003-126.242,259.478-143.654,292.032
						c-1.823,3.409-5.014,9.441-11.129,15.863c-22.656,23.795-49.145,14.811-84.372,28.948
						c-39.972,16.042-53.407,47.729-63.113,42.553c-6.752-3.6-5.046-16.98,8.08-40.784l-0.004-0.002
						c-12.049,16.937-29.391,39.193-38.722,32.5c-10.361-8.305,6.947-36.848,18.26-53.603c-13.694,20.28-27.037,26.963-31.31,21.934
						c-6.727-7.917,0.234-26.119,19.371-52.219l-0.001-0.002c-18.243,14.326-24.802,15.081-27.497,9.713
						c-4.92-9.801,11.217-30.962,28.347-47.48c19.285-18.596,40.685-26.321,54.295-30.871c0.003-0.001,0.007-0.004,0.008-0.008
						c43.495-110.295,74.449-182.585,107.766-272.379C763.771,1701.195,870.293,1736.007,920.632,1773.368z"/>
					<path style="fill:#363E44;" d="M871.602,1880.378c-0.336,0-0.678-0.078-1-0.239c-1.087-0.554-1.519-1.883-0.966-2.97
						c7.11-13.974,14.567-30.172,22.463-47.318c9.454-20.533,19.231-41.765,29.463-61.48c0.563-1.081,1.895-1.505,2.977-0.943
						s1.505,1.896,0.944,2.979c-10.183,19.621-19.939,40.805-29.372,61.292c-7.914,17.188-15.39,33.422-22.54,47.471
						C873.183,1879.938,872.407,1880.378,871.602,1880.378z"/>
					<path style="fill:#E2A18D;" d="M710.768,2089.7c-17.193,39.029-15.132,56.753-8.866,59.283
						c10.537,4.255,38.841-23.051,71.146-76.923C755.256,2075.418,728.559,2086.343,710.768,2089.7z"/>
					<g>
						<path style="fill:#363E44;" d="M705.067,2103.975c-1.029,0-1.95-0.722-2.162-1.771c-0.243-1.195,0.531-2.359,1.725-2.603
							c5.06-1.024,9.896-1.788,14.571-2.528c9.736-1.538,18.933-2.99,27.279-6.481c1.128-0.472,2.419,0.061,2.889,1.186
							c0.471,1.126-0.059,2.418-1.185,2.89c-8.837,3.695-18.288,5.187-28.294,6.768c-4.63,0.731-9.418,1.488-14.383,2.495
							C705.36,2103.96,705.213,2103.975,705.067,2103.975z"/>
						<path style="fill:#363E44;" d="M627.682,2114.2c-0.5,0-1.003-0.168-1.417-0.515c-0.935-0.783-1.058-2.177-0.275-3.11
							c4.977-5.944,10.706-11.183,17.03-15.574c4.358-3.026,9.032-5.666,13.89-7.846c1.115-0.5,2.42-0.002,2.919,1.111
							c0.5,1.113,0.003,2.42-1.11,2.918c-4.611,2.071-9.046,4.574-13.18,7.445c-6,4.167-11.439,9.141-16.163,14.781
							C628.939,2113.93,628.313,2114.2,627.682,2114.2z"/>
						<path style="fill:#363E44;" d="M605.538,2095.787c-0.5,0-1.003-0.168-1.416-0.515c-0.936-0.783-1.059-2.176-0.276-3.11
							c4.969-5.938,10.7-11.179,17.03-15.574c4.359-3.026,9.033-5.666,13.891-7.846c1.113-0.503,2.42-0.004,2.919,1.111
							c0.5,1.113,0.002,2.42-1.11,2.918c-4.611,2.07-9.046,4.574-13.181,7.445c-6.007,4.171-11.445,9.145-16.162,14.781
							C606.795,2095.518,606.169,2095.787,605.538,2095.787z"/>
						<path style="fill:#363E44;" d="M594.598,2062.486c-0.5,0-1.003-0.168-1.416-0.515c-0.936-0.783-1.059-2.176-0.276-3.11
							c4.974-5.944,10.703-11.183,17.029-15.577c4.362-3.028,9.036-5.668,13.891-7.847c1.116-0.502,2.42-0.002,2.919,1.111
							c0.5,1.113,0.002,2.42-1.11,2.918c-4.608,2.068-9.044,4.572-13.181,7.445c-6.002,4.169-11.44,9.143-16.162,14.783
							C595.856,2062.217,595.229,2062.486,594.598,2062.486z"/>
					</g>
				</g>
				<g>
					<path style="fill:#FFFFFF;" d="M1570.145,2057.01c-167.457,23.16-340.898,9.668-513.714,0
						c-22.966-162.453-24.821-333.144,0-514.241c192.814-28.34,363.393-27.472,513.714,0
						C1580.948,1748.331,1591.584,1953.363,1570.145,2057.01z"/>
					<path style="fill:#F7F1EB;" d="M1358.164,2055.239c-80.609,0-161.711-4.706-241.318-9.324
						c-15.326-0.889-30.653-1.777-45.974-2.636c-1.052-0.058-1.916-0.852-2.064-1.896c-22.307-157.788-22.307-320.309-0.001-483.051
						c0.134-0.975,0.894-1.743,1.867-1.885c177.482-26.087,339.874-26.087,482.666,0.013c1.006,0.183,1.755,1.035,1.808,2.055
						c9.947,189.271,20.232,384.987-0.042,483.006c-0.19,0.917-0.935,1.613-1.86,1.741
						C1489.263,2052.112,1423.877,2055.239,1358.164,2055.239z M1072.928,2038.973c14.721,0.826,29.447,1.68,44.173,2.534
						c143.766,8.34,292.42,16.966,433.991-2.407c19.681-97.663,9.589-291.134-0.263-478.606
						c-141.458-25.619-302.227-25.591-477.871,0.084C1051.015,1721.755,1051.005,1882.677,1072.928,2038.973z M1552.943,2041.075
						h0.022H1552.943z"/>
				</g>
				<g>
					<path style="fill:#E2A18D;" d="M1628.925,1623.27c-72.331-15.284-240.888-59.719-257.515-63.401
						c-31.081-6.882-198.836-39.482-206.16-15.761c-3.5,11.335,28.535,19.078,39.441,21.38c-9.724,2.488-48.099,7.992-48.596,21.282
						c-0.583,15.614,46.148,16.063,46.871,16.529c-10.13,1.524-50.729,5.958-51.489,15.907
						c-0.988,12.944,38.017,20.159,49.794,21.778c-1.456,1.439-42.16,7.462-42.435,15.412c-0.306,8.808,35.905,16.407,49.969,20.751
						c27.61,6.137,133.627,35.749,184.443,52.586c119.348,39.544,171.633,46.715,232.635,50.409
						C1649.999,1781.602,1653.844,1654.327,1628.925,1623.27z"/>
					<path style="fill:#363E44;" d="M1629.584,1624.021c-0.16,0-0.32-0.017-0.483-0.054c-23.986-5.345-95.56-22.886-130.055-31.414
						c-1.184-0.293-1.907-1.49-1.613-2.674s1.486-1.898,2.674-1.613c34.477,8.524,106.008,26.054,129.956,31.392
						c1.191,0.265,1.94,1.445,1.675,2.636C1631.508,1623.322,1630.596,1624.021,1629.584,1624.021z"/>
					<g>
						<path style="fill:#363E44;" d="M1260.112,1569.856c-0.182,0-0.368-0.021-0.553-0.069c-11.489-2.968-23.277-4.51-35.035-4.585
							c-6.552-0.052-13.166,0.377-19.671,1.238c-1.195,0.166-2.32-0.688-2.479-1.898c-0.161-1.21,0.69-2.321,1.899-2.48
							c6.706-0.889,13.517-1.307,20.279-1.277c12.121,0.078,24.271,1.667,36.112,4.726c1.181,0.304,1.892,1.508,1.586,2.689
							C1261.993,1569.197,1261.095,1569.856,1260.112,1569.856z"/>
						<path style="fill:#363E44;" d="M1242.367,1609.19c-0.182,0-0.368-0.022-0.553-0.071c-11.486-2.966-23.273-4.51-35.035-4.583
							c-1.427-0.009-2.826,0.004-4.204,0.037c-1.219-0.08-2.231-0.938-2.258-2.157c-0.029-1.221,0.937-2.232,2.157-2.26
							c1.418-0.032,2.865-0.047,4.332-0.037c12.126,0.078,24.276,1.667,36.113,4.726c1.181,0.304,1.891,1.51,1.586,2.69
							C1244.246,1608.53,1243.35,1609.19,1242.367,1609.19z"/>
						<path style="fill:#363E44;" d="M1225.279,1647.066c-0.182,0-0.368-0.022-0.553-0.069c-7.502-1.937-15.184-3.276-22.833-3.984
							c-1.214-0.112-2.107-1.188-1.995-2.403c0.112-1.214,1.172-2.122,2.403-1.997c7.882,0.729,15.799,2.111,23.53,4.104
							c1.181,0.306,1.892,1.51,1.586,2.692C1227.16,1646.406,1226.263,1647.066,1225.279,1647.066z"/>
					</g>
				</g>
			</g>
			<g>
				<path style="fill:#B77250;" d="M1081.637,1144.547c-1.156,0.025-23.975,0.838-32.805,16.841
					c-8.878,16.092-0.76,42.366,23.553,54.731c-0.566-1.658-4.847-14.589,0.42-19.366c5.177-4.695,17.029-3.483,30.509,10.012
					c1.643,2.62,35.848,53.968,87.676,51.457c21.349-1.034,37.38-10.413,45.844-16.42c5.413-11.273,17.814-41.215,8.411-75.362
					c-3.351-12.168-9.589-34.822-30.283-44.628c-11.325-5.367-22.493-4.76-29.02-3.789c-9.05-3.05-24.293-6.789-42.9-4.631
					C1109.483,1117.284,1088.235,1137.663,1081.637,1144.547z"/>
				<path style="fill:#363E44;" d="M1146.829,1175.386c-0.838,0-1.639-0.479-2.01-1.29c-0.507-1.111-0.018-2.42,1.091-2.927
					c8.792-4.018,16.63-9.594,23.294-16.569c6.954-7.281,12.317-15.745,15.939-25.161c0.439-1.139,1.722-1.702,2.854-1.268
					c1.139,0.438,1.707,1.717,1.268,2.856c-3.833,9.962-9.507,18.92-16.866,26.624c-7.053,7.383-15.347,13.284-24.652,17.535
					C1147.448,1175.321,1147.137,1175.386,1146.829,1175.386z"/>
				<g>
					<polygon style="fill:#E2A18D;" points="1299.055,1372.756 1248.258,1229.568 1159.699,1294.147 1166.621,1377.793 					"/>
				</g>
				<path style="fill:#E2A18D;" d="M1091.319,1197.461c0,0,12.662,128.826,64.815,132.829c31.553,2.422,60.471-38.051,67.485-55.327
					c7.014-17.276,0-45.517,0-45.517s-10.596,10.067-19.109,3.419c-8.513-6.648,1.32-48.452-36.12-46.744
					C1130.952,1187.828,1126.891,1203.887,1091.319,1197.461z"/>
				<path style="fill:#363E44;" d="M1162.013,1334.406c-1.135,0-2.1-0.869-2.198-2.019c-0.106-1.216,0.795-2.286,2.01-2.39
					c27.95-2.407,53.091-35.592,59.747-51.988c1.039-2.556,1.954-7.178,2.578-13.012c0.128-1.212,1.196-2.099,2.431-1.96
					c1.212,0.129,2.091,1.219,1.96,2.431c-0.471,4.409-1.353,10.452-2.877,14.203c-7,17.244-33.628,52.158-63.46,54.727
					C1162.141,1334.403,1162.077,1334.406,1162.013,1334.406z"/>
				<path style="fill:#E2A18D;" d="M1210.738,1209.427c-4.015,12.701-0.131,35.828,12.39,39.901
					c12.521,4.073,28.938-12.452,32.952-25.153c4.015-12.701-2.881-26.299-15.402-30.371
					C1228.157,1189.73,1214.752,1196.726,1210.738,1209.427z"/>
				<g>
					<path style="fill:#363E44;" d="M1243.452,1227.525c-0.215,0-0.432-0.03-0.648-0.097c-1.167-0.358-1.822-1.592-1.464-2.758
						c0.201-0.656,0.348-1.337,0.437-2.025c0.7-5.411-2.236-10.281-6.545-10.855c-0.993-0.132-2.004-0.024-2.99,0.319
						c-1.154,0.41-2.41-0.203-2.815-1.352c-0.403-1.152,0.203-2.411,1.354-2.815c1.644-0.58,3.336-0.755,5.034-0.531
						c6.714,0.895,11.354,7.982,10.342,15.799c-0.12,0.934-0.32,1.861-0.594,2.754
						C1245.271,1226.914,1244.396,1227.525,1243.452,1227.525z"/>
				</g>
				<path style="fill:#363E44;" d="M1134.823,1277.42c-0.486,0-0.976-0.16-1.385-0.488c-2.14-1.723-3.363-3.697-3.634-5.86
					c-0.306-2.418,0.695-4.186,1.663-5.895c0.626-1.109,1.276-2.256,1.74-3.787c0.589-1.943,0.734-4.074,0.432-6.332
					c-0.162-1.21,0.687-2.321,1.896-2.482c1.223-0.151,2.32,0.688,2.483,1.896c0.386,2.89,0.19,5.649-0.583,8.202
					c-0.607,1.999-1.448,3.485-2.125,4.68c-0.841,1.486-1.241,2.241-1.124,3.166c0.124,0.99,0.804,1.991,2.023,2.97
					c0.949,0.766,1.099,2.157,0.334,3.106C1136.108,1277.138,1135.468,1277.42,1134.823,1277.42z"/>
				<path style="fill:#363E44;" d="M1145.483,1291.718c-0.265,0-0.534-0.047-0.796-0.149c-1.138-0.44-1.704-1.717-1.264-2.856
					c0.094-0.244,2.371-6.009,7.453-7.724c2.888-0.973,5.975-0.472,9.181,1.499c1.038,0.638,1.363,1.997,0.725,3.037
					c-0.641,1.04-1.998,1.363-3.039,0.725c-2.06-1.266-3.844-1.618-5.453-1.076c-3.092,1.044-4.73,5.09-4.746,5.131
					C1147.205,1291.181,1146.368,1291.718,1145.483,1291.718z"/>
				<path style="fill:#363E44;" d="M1160.264,1250.585c-6.007,0-10.936-1.156-14.012-2.122c-1.164-0.367-1.81-1.607-1.444-2.769
					c0.367-1.162,1.607-1.805,2.77-1.445c4.714,1.486,14.257,3.455,25.167,0.002c9.668-3.061,15.981-8.867,19.575-13.2
					c0.78-0.936,2.172-1.068,3.11-0.289c0.938,0.779,1.068,2.172,0.289,3.11c-3.972,4.788-10.95,11.205-21.641,14.589
					C1169.13,1250.026,1164.438,1250.585,1160.264,1250.585z"/>
				<path style="fill:#363E44;" d="M1107.143,1253.59c-2.116,0-4.329-0.147-6.631-0.481c-12.526-1.816-21.074-8.371-25.055-12.115
					c-0.889-0.837-0.932-2.234-0.096-3.123c0.837-0.889,2.235-0.93,3.122-0.095c3.602,3.388,11.336,9.32,22.663,10.963
					c10.57,1.534,19.174-1.447,23.359-3.36c1.111-0.505,2.42-0.017,2.927,1.089c0.507,1.111,0.018,2.42-1.091,2.927
					C1121.859,1251.444,1115.229,1253.59,1107.143,1253.59z"/>
				<ellipse style="fill:#E2A18D;" cx="1233.221" cy="1403.361" rx="81.401" ry="53.933"/>
			</g>
			<g>
				<g>
					<g>
						<polygon style="fill:#E2A18D;" points="1256.179,2155.626 1071.128,2105.024 1150.611,1954.167 1279.936,2048.911 						"/>
						<g>
							<path style="fill:#D3BBA3;" d="M1565.37,2164.979h-325.778l23.239-128.599c0,0,136.825-52.09,287.867,36.391
								C1550.697,2072.771,1587.926,2118.326,1565.37,2164.979z"/>
							<g>
								<path style="fill:#363E44;" d="M1333.85,2135.52c-1.22,0-2.209-0.988-2.209-2.208v-74.253c0-1.221,0.989-2.209,2.209-2.209
									c1.22,0,2.208,0.988,2.208,2.209v74.253C1336.059,2134.532,1335.07,2135.52,1333.85,2135.52z"/>
								<path style="fill:#363E44;" d="M1354.903,2135.52c-1.22,0-2.208-0.988-2.208-2.208v-74.253c0-1.221,0.989-2.209,2.208-2.209
									c1.22,0,2.209,0.988,2.209,2.209v74.253C1357.111,2134.532,1356.123,2135.52,1354.903,2135.52z"/>
							</g>
						</g>
					</g>
					<path style="fill:#EFBC73;" d="M1230.939,1958.517l-88.744,200.207c0,0-262.344-29.829-434.285-158.319
						c-58.463-43.689-81.812-119.724-44.971-182.764c0.525-0.899,1.055-1.796,1.59-2.69c31.485-52.682,95.232-76.547,153.976-58.917
						C912.583,1784.269,1088.054,1847.382,1230.939,1958.517z"/>
				</g>
				<g>
					<g>
						<polygon style="fill:#E2A18D;" points="1223.615,2076.125 1374.483,1979.873 1428.781,2129.358 1278.935,2159.442 						"/>
						<g>
							<path style="fill:#F7F1EB;" d="M966.815,2164.979h322.299l-21.881-114.41c0,0-119.181-69.4-261.502-15.975
								C1005.731,2034.594,986.764,2075.191,966.815,2164.979z"/>
							<g>
								<path style="fill:#363E44;" d="M1194.855,2131.103c-1.22,0-2.209-0.988-2.209-2.208v-74.253
									c0-1.221,0.989-2.209,2.209-2.209s2.209,0.988,2.209,2.209v74.253C1197.064,2130.115,1196.075,2131.103,1194.855,2131.103z"
									/>
								<path style="fill:#363E44;" d="M1173.802,2131.103c-1.22,0-2.208-0.988-2.208-2.208v-74.253
									c0-1.221,0.989-2.209,2.208-2.209c1.22,0,2.209,0.988,2.209,2.209v74.253
									C1176.011,2130.115,1175.022,2131.103,1173.802,2131.103z"/>
							</g>
						</g>
					</g>
					<path style="fill:#EFBC73;" d="M1297.768,1954.1l91.516,206.461c0,0,254.5-53.721,431.513-164.573
						c61.853-38.735,81.811-119.724,44.971-182.764c-0.525-0.899-1.055-1.796-1.59-2.69
						c-31.486-52.682-95.233-76.547-153.976-58.917C1616.123,1779.852,1440.652,1842.965,1297.768,1954.1z"/>
				</g>
			</g>
		</g>
		<g>
			<rect x="987.978" y="511.203" style="opacity:0.5;fill:#FFFFFF;" width="75.172" height="219.502"/>
			<rect x="839.957" y="474.374" style="opacity:0.5;fill:#FFFFFF;" width="58.56" height="256.331"/>
			<rect x="898.791" y="474.285" style="opacity:0.5;fill:#FFFFFF;" width="45.345" height="256.42"/>
			<g>
				<rect x="646.326" y="476.415" style="opacity:0.5;fill:#FFFFFF;" width="75.172" height="254.29"/>
				<rect x="766.898" y="511.203" style="opacity:0.5;fill:#FFFFFF;" width="73.653" height="219.502"/>
				<rect x="721.461" y="430.101" style="opacity:0.5;fill:#FFFFFF;" width="45.345" height="300.604"/>
				<path style="fill:#E6D0BE;" d="M721.498,732.913h-75.172c-1.22,0-2.209-0.988-2.209-2.209V476.415
					c0-1.221,0.989-2.209,2.209-2.209h75.172c1.22,0,2.208,0.988,2.208,2.209v254.289
					C723.706,731.925,722.717,732.913,721.498,732.913z M648.535,728.495h70.754V478.624h-70.754V728.495z"/>
				<path style="fill:#E6D0BE;" d="M840.551,732.913h-73.968c-1.22,0-2.209-0.988-2.209-2.209V511.203
					c0-1.221,0.989-2.209,2.209-2.209h73.968c1.22,0,2.208,0.988,2.208,2.209v219.501
					C842.759,731.925,841.77,732.913,840.551,732.913z M768.791,728.495h69.551V513.411h-69.551V728.495z"/>
				<path style="fill:#E6D0BE;" d="M1063.15,732.913h-75.172c-1.22,0-2.209-0.988-2.209-2.209V511.203
					c0-1.221,0.989-2.209,2.209-2.209h75.172c1.22,0,2.209,0.988,2.209,2.209v219.501
					C1065.359,731.925,1064.37,732.913,1063.15,732.913z M990.186,728.495h70.755V513.411h-70.755V728.495z"/>
				<path style="fill:#E6D0BE;" d="M898.517,732.913h-58.561c-1.22,0-2.209-0.988-2.209-2.209V474.375
					c0-1.221,0.989-2.209,2.209-2.209h58.561c1.22,0,2.209,0.988,2.209,2.209v256.329
					C900.726,731.925,899.737,732.913,898.517,732.913z M842.165,728.495h54.144V476.584h-54.144V728.495z"/>
				<path style="fill:#E6D0BE;" d="M766.805,732.913H721.46c-1.22,0-2.209-0.988-2.209-2.209V430.1c0-1.221,0.989-2.208,2.209-2.208
					h45.345c1.22,0,2.209,0.988,2.209,2.208v300.604C769.013,731.925,768.025,732.913,766.805,732.913z M723.669,728.495h40.928
					V432.309h-40.928V728.495z"/>
				<path style="fill:#E6D0BE;" d="M944.136,732.913h-45.345c-1.22,0-2.209-0.988-2.209-2.209V474.285
					c0-1.221,0.989-2.209,2.209-2.209h45.345c1.22,0,2.208,0.988,2.208,2.209v256.419
					C946.345,731.925,945.356,732.913,944.136,732.913z M901,728.495h40.928V476.493H901V728.495z"/>
				<path style="fill:#D3BBA3;" d="M1086.481,733.54H593.113c-1.22,0-2.209-0.988-2.209-2.209c0-1.221,0.989-2.209,2.209-2.209
					h493.367c1.22,0,2.209,0.988,2.209,2.209C1088.689,732.552,1087.7,733.54,1086.481,733.54z"/>
			</g>
		</g>
	</g>
</g>
</svg>
