<?xml version="1.0" encoding="utf-8"?>
<!-- Generator: Adobe Illustrator 27.5.0, SVG Export Plug-In . SVG Version: 6.00 Build 0)  -->
<svg version="1.1" xmlns="http://www.w3.org/2000/svg" xmlns:xlink="http://www.w3.org/1999/xlink" x="0px" y="0px"
	 viewBox="0 0 2500 2500" style="enable-background:new 0 0 2500 2500;" xml:space="preserve">
-
<g id="Illustration">
	<g id="Birthday_party_1_">
		<circle style="fill:transparent;" cx="1250" cy="1250" r="915"/>
		<g>
			<polygon style="fill:#F7F1EB;" points="1728.999,765.866 1807.458,723.325 1731.387,676.647 			"/>
			<polygon style="fill:#FFFFFF;" points="1859.533,832.208 1930.806,778.487 1848.646,743.624 			"/>
			<polygon style="fill:#FFFFFF;" points="1995.62,877.13 2058.138,813.434 1971.717,791.14 			"/>
			<polygon style="fill:#F7F1EB;" points="1504.874,569.678 1592.877,554.807 1535.997,486.03 			"/>
			<polygon style="fill:#FFFFFF;" points="1604.993,672.215 1689.817,644.458 1623.366,584.876 			"/>
			<path style="fill:#FFFFFF;" d="M2111.335,822.582c-0.093,0-0.187-0.005-0.282-0.018
				c-127.01-16.225-246.029-59.805-353.749-129.53c-104.102-67.382-193.97-158.449-259.891-263.358
				c-0.648-1.031-0.338-2.392,0.693-3.04c1.029-0.651,2.39-0.337,3.04,0.693c135.846,216.191,358.352,358.655,610.466,390.86
				c1.208,0.155,2.061,1.26,1.908,2.466C2113.378,821.769,2112.429,822.582,2111.335,822.582z"/>
		</g>
		<g>
			<path style="fill:#FFD092;" d="M2008.772,1024.174c-0.519,0-1.04-0.182-1.46-0.552c-42.979-37.96-62.071-71.806-56.744-100.599
				c2.773-15.002,11.033-23.506,19.777-32.508c9.379-9.654,19.075-19.638,24.714-39.195c9.129-31.657,2.278-70.488-17.042-96.625
				c-8.925-12.069-16.896-19.59-23.299-25.633c-9.022-8.514-15.541-14.664-17.679-26.822c-2.717-15.466-1.901-32.95,39.568-61.455
				c1.003-0.688,2.375-0.435,3.066,0.568c0.689,1.003,0.435,2.376-0.568,3.066c-39.314,27.023-40.193,43.004-37.721,57.056
				c1.884,10.718,7.644,16.153,16.36,24.379c6.533,6.163,14.661,13.834,23.818,26.219c20.097,27.185,27.224,67.559,17.735,100.467
				c-5.945,20.617-16.487,31.471-25.788,41.047c-8.623,8.88-16.071,16.548-18.603,30.238c-5.025,27.164,13.591,59.629,55.327,96.492
				c0.913,0.806,0.999,2.2,0.192,3.112C2009.989,1023.922,2009.381,1024.174,2008.772,1024.174z"/>
			<polygon style="fill:#FFD092;" points="1966.504,634.552 1953.944,652.425 1983.894,654.599 1979.788,634.793 			"/>
			<ellipse style="fill:#FFD092;" cx="1971.822" cy="513.746" rx="104.105" ry="123.625"/>
			<path style="fill:#E0AA63;" d="M1971.822,639.575c-58.619,0-106.309-56.447-106.309-125.83s47.69-125.83,106.309-125.83
				c58.619,0,106.311,56.447,106.311,125.83S2030.441,639.575,1971.822,639.575z M1971.822,392.326
				c-56.189,0-101.9,54.469-101.9,121.42s45.711,121.42,101.9,121.42c56.188,0,101.902-54.469,101.902-121.42
				S2028.01,392.326,1971.822,392.326z"/>
		</g>
		<g>
			<g>
				<ellipse style="fill:#E6D0BE;" cx="964.22" cy="500.517" rx="104.105" ry="123.625"/>
				<path style="fill:#D3BBA3;" d="M1001.169,1010.945c-0.519,0-1.039-0.182-1.459-0.552
					c-42.977-37.959-62.069-71.805-56.744-100.598c2.774-15.003,11.034-23.506,19.778-32.508
					c9.378-9.655,19.075-19.638,24.714-39.196c9.127-31.658,2.277-70.487-17.045-96.625c-8.924-12.069-16.893-19.59-23.298-25.633
					c-9.022-8.513-15.54-14.664-17.677-26.822c-2.719-15.466-1.903-32.949,39.567-61.455c1.003-0.687,2.376-0.435,3.066,0.568
					c0.689,1.003,0.435,2.376-0.568,3.066c-39.314,27.023-40.193,43.004-37.722,57.056c1.884,10.718,7.643,16.153,16.361,24.378
					c6.531,6.163,14.661,13.835,23.818,26.22c20.096,27.185,27.224,67.558,17.737,100.467
					c-5.945,20.618-16.487,31.471-25.788,41.048c-8.624,8.878-16.072,16.547-18.604,30.237
					c-5.023,27.165,13.591,59.629,55.327,96.492c0.913,0.806,0.999,2.2,0.193,3.112
					C1002.386,1010.694,1001.779,1010.945,1001.169,1010.945z"/>
				<polygon style="fill:#E6D0BE;" points="958.901,621.323 946.342,639.196 976.292,641.37 972.185,621.564 				"/>
				<path style="fill:#E6D0BE;" d="M964.22,626.346c-58.619,0-106.31-56.447-106.31-125.83s47.691-125.83,106.31-125.83
					c58.619,0,106.31,56.447,106.31,125.83S1022.839,626.346,964.22,626.346z M964.22,379.097
					c-56.189,0-101.901,54.469-101.901,121.42s45.712,121.42,101.901,121.42c56.188,0,101.901-54.469,101.901-121.42
					S1020.408,379.097,964.22,379.097z"/>
			</g>
			<g>
				<path style="fill:#D3BBA3;" d="M1136.426,1082.439c-0.519,0-1.039-0.182-1.459-0.552
					c-42.976-37.959-62.068-71.806-56.743-100.599c2.774-15.003,11.034-23.507,19.778-32.509
					c9.378-9.654,19.075-19.637,24.714-39.194c9.127-31.658,2.277-70.488-17.045-96.625c-8.924-12.07-16.894-19.59-23.298-25.633
					c-9.022-8.513-15.54-14.664-17.677-26.822c-2.718-15.466-1.903-32.951,39.567-61.455c1.003-0.687,2.378-0.435,3.066,0.568
					c0.689,1.003,0.435,2.376-0.568,3.066c-39.314,27.023-40.193,43.004-37.722,57.056c1.884,10.718,7.643,16.153,16.361,24.378
					c6.532,6.163,14.661,13.835,23.818,26.22c20.096,27.185,27.224,67.558,17.737,100.467c-5.945,20.617-16.487,31.47-25.788,41.045
					c-8.624,8.88-16.072,16.548-18.604,30.238c-5.023,27.165,13.591,59.63,55.326,96.493c0.913,0.806,0.999,2.199,0.193,3.112
					C1137.644,1082.188,1137.036,1082.439,1136.426,1082.439z"/>
				<polygon style="fill:#FFFFFF;" points="1099.393,696.591 1089.087,721.755 1119.037,719.881 1108.732,696.591 				"/>
				<ellipse style="fill:#F7F1EB;" cx="1097.605" cy="572.09" rx="104.105" ry="123.625"/>
				<path style="fill:#D3BBA3;" d="M1102.488,697.919c-58.619,0-106.31-56.447-106.31-125.83s47.691-125.83,106.31-125.83
					s106.31,56.447,106.31,125.83S1161.108,697.919,1102.488,697.919z M1102.488,450.669c-56.188,0-101.901,54.469-101.901,121.42
					c0,66.951,45.712,121.42,101.901,121.42s101.901-54.469,101.901-121.42C1204.389,505.138,1158.677,450.669,1102.488,450.669z"/>
			</g>
		</g>
		<g>
			<g>
				<g>
					<polygon style="fill:#84524D;" points="609.179,1768.545 571.564,1881.634 652.357,1881.603 695.536,1768.513 					"/>
					<path style="fill:#E6D0BE;" d="M571.554,1877.825l-49.515,127.831l281.834-0.085
						c-30.242-49.482-79.426-106.613-151.781-127.772L571.554,1877.825z"/>
				</g>
				<path style="fill:#ff6900;" d="M689.777,1137.823l56.68,171.167c44.086,133.133,41.422,278.765-7.498,409.968l-43.017,115.371
					l-111.339-16.665l30.478-166.875c28.668-157.966,10.342-172.574-42.101-266.542l0,0l9.709-175.667L689.777,1137.823z"/>
				<polygon style="fill:#84524D;" points="480.22,1784.397 502.512,1892.238 572.984,1892.238 572.984,1777.161 				"/>
				<path style="fill:#F2E6DC;" d="M501.598,1886.192c0,6.046-28.317,122.939-28.317,122.939h162.131l-63.779-122.939H501.598z"/>
				<path style="fill:#ff6900;" d="M459.276,1222.477c0,0-44.331,240.482,15.26,587.129h106.298c0,0,19.065-502.882,46.445-578.362
					L459.276,1222.477z"/>
				<path style="fill:#FFFFFF;" d="M604.905,1421.439c-0.036,0-0.071-0.001-0.108-0.002c-1.215-0.058-2.155-1.092-2.097-2.308
					l3.857-80.901c0.043-0.885,0.612-1.659,1.444-1.965l34.989-12.838c1.14-0.419,2.408,0.168,2.829,1.311
					c0.419,1.142-0.168,2.409-1.311,2.829l-33.615,12.334l-3.787,79.44C607.049,1420.52,606.074,1421.439,604.905,1421.439z"/>
			</g>
			<g>
				<g>
					
						<ellipse transform="matrix(0.5193 -0.8546 0.8546 0.5193 -571.8364 870.0892)" style="fill:#373E44;" cx="487.549" cy="943.38" rx="46.582" ry="46.582"/>
					<path style="fill:#363E44;" d="M491.964,961.941c-4.956,0-10.062-0.565-15.168-1.704c-12.568-2.803-23.673-8.76-31.269-16.773
						c-7.818-8.247-11.028-17.698-9.039-26.614c1.988-8.915,8.912-16.107,19.493-20.249c10.279-4.025,22.862-4.697,35.432-1.894
						c26.255,5.858,44.337,25.32,40.308,43.387c-1.988,8.915-8.912,16.107-19.493,20.249
						C506.124,960.733,499.206,961.941,491.964,961.941z M476.236,897.409c-6.688,0-13.05,1.107-18.646,3.298
						c-9.172,3.59-15.138,9.664-16.797,17.104c-1.66,7.438,1.158,15.471,7.935,22.62c6.999,7.382,17.308,12.888,29.029,15.503
						c11.721,2.616,23.391,2.013,32.864-1.696c9.172-3.59,15.138-9.664,16.797-17.103l0,0c3.501-15.693-13.081-32.795-36.964-38.123
						C485.658,897.941,480.868,897.409,476.236,897.409z"/>
				</g>
				<path style="fill:#84524D;" d="M616.275,950.648c-13.578,14.869-65.6-6.254-65.6-6.254l-37.676-48.628
					c-5.994-27.685,11.59-54.987,39.275-60.981c27.685-5.994,54.987,11.59,60.981,39.275
					C613.254,874.06,630.104,935.504,616.275,950.648z"/>
				
					<rect x="525.893" y="887.159" transform="matrix(0.9774 -0.2116 0.2116 0.9774 -188.8348 139.4156)" style="fill:#84524D;" width="62.15" height="129.666"/>
				<path style="fill:#84524D;" d="M610.348,888.488c0,0,17.25,11.687,17.344,15.738c0.112,4.836-14.937,11.058-14.937,11.058
					S610.729,888.443,610.348,888.488z"/>
				<g>
					<path style="fill:#FFFFFF;" d="M564.645,896.137c0,0,7.415-6.331,17.531-8.52c2.152-0.466,1.821,17.637-0.433,17.104
						C571.831,902.378,564.645,896.137,564.645,896.137z"/>
					<path style="fill:#373E44;" d="M588.955,886.883c-2.344-0.01-4.607,0.271-6.753,0.734c-3.216,5.397-3.209,11.864-0.468,17.099
						c2.258,0.535,4.655,0.869,7.143,0.88c13.404,0.056,24.311-9.255,24.311-9.255S602.36,886.938,588.955,886.883z"/>
				</g>
				<path style="fill:#363E44;" d="M600.695,929.016c-1.114,0-2.235-0.198-3.309-0.605c-3.318-1.258-5.681-4.364-6.02-7.915
					c-0.115-1.212,0.773-2.289,1.985-2.405c1.198-0.12,2.288,0.772,2.405,1.985c0.181,1.892,1.434,3.545,3.193,4.212
					c1.823,0.691,3.909,0.24,5.305-1.154c0.863-0.861,2.26-0.858,3.119,0.003c0.86,0.862,0.858,2.259-0.003,3.119
					C605.566,928.055,603.148,929.016,600.695,929.016z"/>
				<path style="fill:#363E44;" d="M601.795,960.395c-0.016,0-0.031,0-0.047,0c-20.991-0.444-50.485-12.583-51.73-13.1
					c-1.124-0.467-1.658-1.757-1.192-2.882c0.467-1.124,1.755-1.656,2.882-1.192c0.297,0.124,29.977,12.339,50.133,12.764
					c1.218,0.026,2.183,1.034,2.159,2.251C603.973,959.438,602.991,960.395,601.795,960.395z"/>
				<g>
					<path style="fill:#373E44;" d="M508.063,926.627c-14.066-8.118-15.914-42.887-5.252-64.251
						c13.746-27.542,48.58-41.754,75.509-37.389c6.62,1.073,21.596,5.498,25.926,15.384c8.11,18.517-20.185,50.157-30.914,59.415
						C556.955,913.917,523.519,935.547,508.063,926.627z"/>
					<path style="fill:#363E44;" d="M526.55,931.033c-8.381,0-16.92-1.319-25.309-4.039c-1.158-0.376-1.793-1.619-1.417-2.778
						c0.376-1.158,1.621-1.794,2.778-1.417c28.373,9.198,58.565,1.471,76.923-19.687c20.751-23.921,16.225-53.985,15.106-59.768
						c-0.23-1.196,0.551-2.352,1.746-2.584c1.185-0.232,2.351,0.551,2.584,1.746c1.186,6.135,5.984,38.031-16.106,63.495
						C568.785,922.222,548.203,931.031,526.55,931.033z"/>
				</g>
				<g>
					<path style="fill:#D87355;" d="M578.129,828.326c0,0-31.13,36.984-78.005,49.023l-18.758-80.081l-5.724-24.454l-7.325-31.26
						l53.81,42.521l17.533,13.856L578.129,828.326z"/>
					<g>
						<path style="fill:#EFBC73;" d="M491.055,785.041c0,5.94-4.138,10.929-9.689,12.227l-5.724-24.454
							c0.908-0.216,1.874-0.332,2.854-0.332C485.432,772.483,491.055,778.106,491.055,785.041z"/>
						<path style="fill:#ff6900;" d="M539.661,797.932c-1.125,5.782-6.215,10.136-12.314,10.136c-6.95,0-12.573-5.623-12.573-12.573
							c0-5.075,3.013-9.444,7.354-11.42L539.661,797.932z"/>
						
							<ellipse transform="matrix(0.9676 -0.2526 0.2526 0.9676 -194.6477 157.1417)" style="fill:#FFFFFF;" cx="514.78" cy="836.769" rx="14.313" ry="14.313"/>
					</g>
				</g>
			</g>
			<g>
				<g>
					<g>
						<path style="fill:#84524D;" d="M850.703,1076.662c-0.002-0.001-0.005,0-0.006-0.002
							c-39.037-76.099-68.193-129.342-76.547-146.132c-0.875-1.758-2.433-4.855-3.292-9.278
							c-3.183-16.389,8.334-24.726,12.85-43.486c5.124-21.286-4.042-36.173,0.958-38.675c3.478-1.74,8.517,2.902,14.509,15.342
							l0.002-0.001c-3.466-9.975-7.577-23.709-2.059-25.608c6.489-1.853,13.213,13.715,16.821,23.332
							c-4.367-11.64-3.206-19.136,0.134-19.428c5.258-0.46,10.746,7.778,15.92,23.385h0.001
							c-0.562-11.775,1.056-14.715,4.072-14.254c5.507,0.842,9.519,13.754,11.316,25.712c2.023,13.462-1.078,24.604-3.2,31.584
							c0,0,0,0.003,0.001,0.005c28.613,53.961,40.479,80.555,65.027,125.303C939.902,1084.053,893.012,1096.916,850.703,1076.662z"
							/>
						<path style="fill:#363E44;" d="M834.932,1049.667c-0.782,0-1.345-0.549-1.852-1.335l-0.039,0.019
							c-0.026-0.055-0.128-0.255-0.296-0.581c-0.16-0.286-0.318-0.59-0.479-0.901c-0.042-0.079-0.078-0.159-0.108-0.241
							c-3.048-5.921-13.028-25.242-15.886-30.755c-0.046-0.07-0.089-0.142-0.128-0.219c-0.127-0.246-0.256-0.498-0.376-0.751
							c-0.143-0.276-0.232-0.446-0.258-0.495l0.033-0.018c-0.458-1.148-0.546-2.272,0.886-3.009c1.403-0.72,2.218-0.113,2.955,1.027
							l0.042-0.02c0.029,0.06,0.134,0.265,0.322,0.632c0.169,0.305,0.339,0.632,0.515,0.97l16.074,31.124
							c0.121,0.234,0.245,0.477,0.362,0.724c0.145,0.28,0.229,0.439,0.257,0.491l-0.035,0.019c0.445,1.124,0.543,2.271-0.878,3.007
							C835.626,1049.571,835.259,1049.667,834.932,1049.667z"/>
						<g>
							<path style="fill:#363E44;" d="M812.484,919.749c-0.749,0-1.48-0.382-1.894-1.072c-2.132-3.557-4.604-9.347-4.283-16.719
								c0.454-10.421,6.336-17.431,8.844-19.961c0.856-0.865,2.251-0.871,3.118-0.013c0.865,0.857,0.871,2.253,0.013,3.118
								c-2.147,2.166-7.182,8.162-7.569,17.047c-0.273,6.281,1.839,11.222,3.66,14.262c0.626,1.044,0.286,2.399-0.759,3.024
								C813.261,919.648,812.87,919.749,812.484,919.749z"/>
							<path style="fill:#363E44;" d="M799.389,876.349c-0.142,0-0.287-0.014-0.432-0.042c-1.195-0.238-1.97-1.398-1.733-2.592
								c0.488-2.45,0.748-4.959,0.776-7.455c0.041-3.614-0.406-7.235-1.326-10.76c-0.308-1.179,0.397-2.384,1.575-2.69
								c1.185-0.314,2.383,0.396,2.69,1.575c1.022,3.907,1.516,7.918,1.471,11.925c-0.031,2.768-0.321,5.549-0.86,8.265
								C801.341,875.624,800.419,876.349,799.389,876.349z"/>
							<path style="fill:#363E44;" d="M813.532,872.584c-0.142,0-0.287-0.014-0.433-0.042c-1.194-0.238-1.969-1.398-1.732-2.594
								c0.488-2.448,0.748-4.955,0.776-7.453c0.041-3.614-0.406-7.235-1.326-10.76c-0.308-1.179,0.397-2.384,1.575-2.69
								c1.184-0.314,2.384,0.396,2.69,1.575c1.022,3.907,1.516,7.918,1.471,11.925c-0.031,2.769-0.321,5.549-0.86,8.265
								C815.484,871.859,814.562,872.584,813.532,872.584z"/>
							<path style="fill:#363E44;" d="M830.543,877.843c-0.142,0-0.286-0.013-0.431-0.042c-1.195-0.237-1.971-1.397-1.734-2.591
								c0.488-2.458,0.748-4.966,0.776-7.455c0.04-3.62-0.407-7.24-1.327-10.76c-0.309-1.178,0.396-2.382,1.575-2.69
								c1.182-0.311,2.382,0.398,2.69,1.575c1.021,3.9,1.516,7.913,1.472,11.925c-0.031,2.76-0.32,5.54-0.86,8.263
								C832.495,877.117,831.574,877.843,830.543,877.843z"/>
						</g>
					</g>
					<g>
						<path style="fill:#F7F1EB;" d="M827.844,730.765c-0.768,0-1.486-0.401-1.887-1.065c-0.436-0.722-0.422-1.631,0.038-2.339
							l9.152-14.117c0.216-0.335,0.52-0.604,0.877-0.779l42.103-20.668c0.83-0.408,1.825-0.253,2.493,0.384
							c0.668,0.637,0.868,1.626,0.499,2.473l-5.226,12.031l20.543,13.881c0.772,0.522,1.133,1.473,0.901,2.376
							c-0.232,0.902-1.006,1.562-1.935,1.646l-67.358,6.168C827.977,730.762,827.911,730.765,827.844,730.765z M838.515,716.154
							l-6.352,9.797l56.686-5.19l-16.942-11.448c-0.88-0.594-1.21-1.731-0.787-2.705l3.566-8.21L838.515,716.154z"/>
						<path style="fill:#F7F1EB;" d="M786.817,732.671c-0.645,0-1.279-0.283-1.71-0.811l-41.614-50.992
							c-0.565-0.693-0.656-1.659-0.23-2.445c0.426-0.786,1.296-1.243,2.174-1.141l13.239,1.42l6.839-16.048
							c0.345-0.809,1.137-1.335,2.015-1.34c0.793-0.073,1.677,0.514,2.031,1.317l27.532,62.6c0.466,1.06,0.032,2.3-0.992,2.839
							l-8.259,4.347C787.518,732.588,787.166,732.671,786.817,732.671z M750.304,682.239l37.08,45.437l4.846-2.55l-24.655-56.058
							l-5.483,12.866c-0.38,0.893-1.307,1.437-2.263,1.327L750.304,682.239z"/>
						<rect x="726.55" y="731.764" style="fill:#FFFFFF;" width="141.703" height="162.158"/>
						<rect x="787.282" y="728.727" style="fill:#9E9569;" width="18.598" height="165.195"/>
						<g>
							<rect x="738.996" y="731.553" style="fill:#EFBC73;" width="10.433" height="161.935"/>
							<rect x="763.776" y="731.554" style="fill:#EFBC73;" width="10.433" height="161.935"/>
							<rect x="814.42" y="731.77" style="fill:#EFBC73;" width="10.433" height="161.935"/>
							<rect x="839.201" y="731.771" style="fill:#EFBC73;" width="10.433" height="161.935"/>
							<rect x="861.369" y="731.771" style="fill:#EFBC73;" width="6.957" height="161.935"/>
						</g>
						<path style="fill:#D3BBA3;" d="M868.254,896.127H726.55c-1.218,0-2.205-0.987-2.205-2.205V731.763
							c0-1.218,0.987-2.205,2.205-2.205h141.704c1.218,0,2.205,0.987,2.205,2.205v162.159
							C870.459,895.14,869.472,896.127,868.254,896.127z M728.755,891.717h137.294V733.968H728.755V891.717z"/>
						<g>
							<path style="fill:#776E42;" d="M797.593,732.131c-26.341-16.064-44.139-30.183-38.334-38.93
								c2.162-3.257,6.359-3.592,9.03-0.867C775.337,699.525,787.357,717.82,797.593,732.131z"/>
							<path style="fill:#9E9569;" d="M793.481,734.089c-25.707-0.539-41.61-3.747-50.375-6.403
								c-2.909-0.881-4.973-3.811-5.116-7.234c-0.65-15.602,14.989-33.826,28.109-29.501c-13.813,1.69-2.502,16.545,25.302,36.776
								C793.382,729.169,791.335,732.595,793.481,734.089z"/>
							<path style="fill:#776E42;" d="M791.55,732.131c33.012-18.741,53.533-34.836,35.873-42.84
								C820.359,689.342,805.159,714.42,791.55,732.131z"/>
							<path style="fill:#9E9569;" d="M793.191,733.654c27.615-0.539,47.475-3.312,56.891-5.968
								c3.126-0.881,5.343-3.811,5.496-7.234c0.699-15.602-9.596-32.619-28.154-31.161c11.76,5.187,0.214,18.765-30.301,39.174
								C795.33,729.664,795.114,732.408,793.191,733.654z"/>
							<path style="fill:#ff6900;" d="M790.651,722.88l8.146-0.905l0.503,12.47l-9.035,0.153c-1.416,0.024-2.458-1.318-2.085-2.684
								L790.651,722.88z"/>
						</g>
					</g>
					<path style="fill:#84524D;" d="M783.579,895.937c-11.1-18.604-19.046-22.962-21.938-21.108
						c-4.864,3.116-1.889,22.878,10.909,52.111C776.397,918.577,779.732,904.298,783.579,895.937z"/>
				</g>
				<g>
					<path style="fill:#EFBC73;" d="M516.984,1016.48l294.376-3.454l-26.445-54.098l91.481-7.653l40.51,68.317
						c27.534,46.433-2.344,105.766-56.043,111.293l-126.964,11.904l10.814,74.877c0,0-211.38,39.886-314.558-4.454l22.739-70.599
						C452.895,1142.613,481.613,1016.895,516.984,1016.48z"/>
					<path style="fill:#363E44;" d="M832.494,1058.724c-0.79,0-1.553-0.425-1.95-1.171l-18.072-34.058
						c-0.571-1.076-0.161-2.41,0.914-2.981c1.074-0.573,2.409-0.161,2.981,0.914l18.072,34.058c0.571,1.075,0.161,2.41-0.914,2.981
						C833.195,1058.641,832.841,1058.724,832.494,1058.724z"/>
					<path style="fill:#363E44;" d="M733.109,1141.448c-1.053,0-1.985-0.757-2.17-1.829l-7.118-41.153
						c-0.208-1.199,0.596-2.341,1.797-2.548c1.211-0.2,2.341,0.599,2.548,1.797l7.118,41.153c0.208,1.199-0.596,2.34-1.797,2.548
						C733.36,1141.438,733.233,1141.448,733.109,1141.448z"/>
					<path style="fill:#363E44;" d="M455.682,1138.654c-0.278,0-0.561-0.054-0.834-0.166c-1.127-0.461-1.667-1.748-1.205-2.875
						l11.237-27.455c0.46-1.126,1.749-1.668,2.876-1.205c1.127,0.461,1.667,1.748,1.205,2.875l-11.237,27.455
						C457.374,1138.137,456.55,1138.654,455.682,1138.654z"/>
					<path style="fill:#EFBC73;" d="M511.719,1019.039c0,0-6.616-14.821,3.241-25.014l120.421-2.661c0,0,12.066,10.064,5.81,27.277
						L511.719,1019.039z"/>
					<g>
						<path style="fill:#84524D;" d="M478.106,1244.2c24.729,36.823,27.434,40.339,33.212,48.766
							c10.801,15.753,66.572,101.793,55.03,111.188c-5.515,4.489-17.009-11.601-20.736-17.154
							c0.799,5.969,6.352,28.558-0.924,31.815c-8.548,3.826-19.286-22.078-19.707-22.376c1.427,5.979,8.074,29.566,2.714,32.219
							c-6.974,3.453-19.738-16.635-23.281-22.826c-0.473,1.133,5.314,25.134,0.957,27.07c-4.827,2.146-17.178-16.301-22.749-23.153
							c-9.607-13.988-73.237-89.337-91.922-121.309C383.384,1275.926,455.249,1237.297,478.106,1244.2z"/>
						<g>
							<path style="fill:#363E44;" d="M546.328,1389c-0.983,0-1.879-0.661-2.134-1.656c-0.97-3.771-2.211-7.509-3.69-11.109
								c-2.653-6.459-6.119-12.61-10.305-18.28c-0.722-0.98-0.515-2.36,0.465-3.083c0.981-0.724,2.36-0.515,3.083,0.465
								c4.4,5.961,8.045,12.429,10.836,19.223c1.556,3.787,2.862,7.719,3.881,11.686c0.303,1.179-0.406,2.381-1.586,2.684
								C546.694,1388.977,546.509,1389,546.328,1389z"/>
							<path style="fill:#363E44;" d="M525.601,1398.681c-0.89,0-1.73-0.545-2.063-1.428c-0.289-0.765-0.593-1.541-0.915-2.324
								c-2.654-6.462-6.121-12.612-10.305-18.28c-0.722-0.98-0.515-2.36,0.465-3.083c0.981-0.723,2.36-0.514,3.083,0.465
								c4.398,5.959,8.044,12.427,10.836,19.224c0.338,0.824,0.658,1.638,0.961,2.442c0.43,1.139-0.145,2.411-1.284,2.841
								C526.123,1398.635,525.86,1398.681,525.601,1398.681z"/>
							<path style="fill:#363E44;" d="M504.325,1407.541c-0.8,0-1.572-0.436-1.963-1.196c-2.089-4.059-4.532-7.992-7.265-11.693
								c-0.722-0.979-0.515-2.36,0.465-3.083c0.98-0.724,2.36-0.514,3.083,0.465c2.871,3.889,5.441,8.025,7.637,12.293
								c0.558,1.083,0.131,2.411-0.952,2.969C505.009,1407.462,504.664,1407.541,504.325,1407.541z"/>
						</g>
					</g>
					<path style="fill:#EFBC73;" d="M520.205,1021.802l-94.072,1.102c-54.51,16.61-83.416,146.62-88.928,174.181
						c-4.4,22.002,42.276,88.877,65.593,109.69l84.885-53.467l-24.253-47.404L520.205,1021.802z"/>
					<path style="fill:#363E44;" d="M505.588,1286.193c-0.685,0-1.359-0.318-1.789-0.914c-7.508-10.396-26.014-44.783-42.341-75.122
						c-11.42-21.222-22.208-41.267-25.611-46.215c-0.69-1.003-0.437-2.376,0.566-3.066c1.006-0.69,2.378-0.435,3.066,0.566
						c3.54,5.146,13.885,24.368,25.861,46.625c16.263,30.218,34.696,64.469,42.033,74.63c0.714,0.987,0.491,2.365-0.496,3.078
						C506.487,1286.057,506.035,1286.193,505.588,1286.193z"/>
				</g>
				<g>
					<path style="fill:#FFFFFF;" d="M610.152,1144.817c-0.647,0-1.27-0.284-1.693-0.793l-103.325-123.97
						c-0.779-0.936-0.654-2.325,0.282-3.105c0.936-0.782,2.324-0.654,3.105,0.282l100.642,120.751l34.104-121.462
						c0.329-1.171,1.539-1.858,2.719-1.527c1.172,0.329,1.856,1.547,1.527,2.719l-35.237,125.497
						c-0.222,0.788-0.861,1.389-1.662,1.56C610.46,1144.801,610.305,1144.817,610.152,1144.817z"/>
					<path style="fill:#FFFFFF;" d="M612.793,1167.714c-5.988,0-10.859-4.871-10.859-10.859c0-5.989,4.871-10.861,10.859-10.861
						s10.859,4.872,10.859,10.861C623.653,1162.842,618.781,1167.714,612.793,1167.714z M612.793,1150.403
						c-3.556,0-6.45,2.894-6.45,6.451c0,3.556,2.894,6.45,6.45,6.45c3.556,0,6.45-2.894,6.45-6.45
						C619.243,1153.297,616.349,1150.403,612.793,1150.403z"/>
					<path style="fill:#FFFFFF;" d="M582.517,1052.496c-48.009,0-67.531-32.077-67.73-32.413c-0.619-1.048-0.272-2.397,0.774-3.017
						c1.047-0.619,2.396-0.273,3.021,0.77c0.195,0.327,20.03,32.661,69.491,30.105c48.802-2.542,48.862-30.504,48.857-30.786
						c-0.021-1.218,0.947-2.222,2.165-2.245c1.235,0.021,2.222,0.947,2.245,2.165c0.005,0.325-0.027,32.508-53.037,35.268
						C586.331,1052.446,584.399,1052.496,582.517,1052.496z"/>
				</g>
			</g>
		</g>
		<g>
			<g>
				<g>
					<rect x="1149.921" y="779.182" style="fill:#EFBC73;" width="472.546" height="114.216"/>
					<rect x="1149.921" y="947.233" style="fill:#EFBC73;" width="472.546" height="46.031"/>
					<rect x="1149.921" y="1047.1" style="fill:#EFBC73;" width="472.546" height="46.568"/>
					<rect x="1149.921" y="893.397" style="fill:#FFFFFF;" width="472.546" height="53.836"/>
					<rect x="1149.921" y="993.264" style="fill:#FFFFFF;" width="472.546" height="53.836"/>
					<path style="fill:#84524D;" d="M1622.472,779.182v78.092c0,0-7.763-42.5-32.089-38.551
						c-24.326,3.946-0.838,108.719-10.893,117.721c-10.081,8.999-42.029-22.976-26.921-65.477
						c15.108-42.5-12.22-83.794-45.242-64.117c-36.919,22-16.784,99.837-18.459,138.36c-1.676,38.554-39.433,8.913-46.137-30.627
						c-6.728-39.541,23.488-65.232-20.973-96.846c-44.486-31.617-39.433,106.718-45.324,130.436
						c-5.865,23.747-35.219-3.949-34.381-43.402c0.839-39.481-32.729-70.228-67.972-45.52
						c-35.244,24.705,4.189,127.476-19.298,145.272c-23.488,17.796-25.163-44.477-9.218-100.798
						c15.946-56.347-95.65-101.81-95.65-101.81v-22.732H1622.472z"/>
					<rect x="1069.596" y="1093.676" style="fill:#EFBC73;" width="633.196" height="421.403"/>
					<rect x="1069.596" y="1237.468" style="fill:#FFFFFF;" width="633.196" height="72.138"/>
					<rect x="1069.596" y="1371.287" style="fill:#FFFFFF;" width="633.196" height="72.138"/>
					<path style="fill:#84524D;" d="M1069.596,1093.676v104.639c0,0,10.402-56.948,42.997-51.656
						c32.595,5.288,1.122,145.677,14.596,157.738c13.508,12.057,56.316-30.787,36.073-87.735
						c-20.243-56.948,16.375-112.279,60.621-85.913c49.469,29.479,22.489,133.776,24.734,185.394
						c2.246,51.66,52.838,11.943,61.821-41.039c9.015-52.982-31.473-87.407,28.102-129.768
						c59.609-42.364,52.838,142.995,60.731,174.776c7.859,31.819,47.191-5.292,46.069-58.156
						c-1.124-52.902,43.855-94.101,91.078-60.994c47.225,33.103-5.613,170.81,25.858,194.655
						c31.473,23.845,33.717-59.596,12.352-135.063c-21.367-75.502,128.165-136.419,128.165-136.419v-30.459H1069.596z"/>
				</g>
			</g>
			<g>
				<rect x="1362.84" y="599.709" style="fill:#FFFFFF;" width="53.774" height="179.472"/>
				<g>
					<polygon style="fill:#EFBC73;" points="1402.868,365.799 1402.868,464.592 1601.617,383.233 1431.123,498.298 
						1601.617,573.846 1441.223,542.041 1535.368,744.685 1409.842,580.82 1388.182,650.556 1348.241,576.171 1161.115,734.24 
						1338.449,542.041 1227.365,469.241 1361.026,490.162 					"/>
					<polygon style="fill:#D87355;" points="1464.334,534.105 1417.203,536.26 1460.352,629.303 1401.739,550.475 1369.416,633.461 
						1381.091,556.247 1286.468,605.581 1361.906,542.122 1328.164,533.309 1362.78,512.632 1283.288,426.807 1378.849,507.216 
						1411.157,452.633 1404.091,516.856 					"/>
					<polygon style="fill:#FFFFFF;" points="1422.02,531.252 1396.841,532.403 1419.893,582.109 1388.58,539.997 1371.312,584.33 
						1377.549,543.081 1326.999,569.436 1367.3,535.534 1349.274,530.827 1367.767,519.78 1325.3,473.93 1376.352,516.887 
						1393.611,487.727 1389.837,522.037 					"/>
				</g>
			</g>
		</g>
		<g>
			<g>
				<path style="fill:#D3BBA3;" d="M1181.548,2098.255H940.832l22.165-92.02h94.303l68.194,20.802
					C1158.915,2036.089,1181.856,2065.236,1181.548,2098.255L1181.548,2098.255z"/>
				<path style="fill:#E6D0BE;" d="M995.082,2118.769H754.366l22.165-92.021h94.303l68.194,20.802
					C972.449,2056.602,995.391,2085.75,995.082,2118.769L995.082,2118.769z"/>
				<path style="fill:#363E44;" d="M1073.922,1440.216c0,0,94.114,219.576,94.32,297.63
					c0.195,74.084-100.763,267.588-100.763,267.588l-119.316,0.699l78.037-251.519l-48.208-104.799l-83.781,378.908l-126.691-1.863
					l70.953-588.74L1073.922,1440.216z"/>
			</g>
			<g>
				<path style="fill:#9E6C5A;" d="M792.787,1166.38c-38.493,28.251-154.574,102.982-122.663,151.37
					c26.396,40.025,136.233-37.741,176.276-63.316C828.529,1225.082,810.658,1195.731,792.787,1166.38z"/>
				<g>
					<path style="fill:#E2A18D;" d="M1182.213,1296.412c0.002-0.001,0.003-0.004,0.006-0.003
						c87.028,14.982,149.061,23.942,168.102,27.461c1.994,0.369,5.517,1.003,9.7,3.038c15.502,7.538,15.24,22.217,27.923,37.581
						c14.392,17.433,32.365,19.102,31.328,24.781c-0.721,3.95-7.678,5.23-21.664,2.459l-0.002,0.002
						c10.385,3.327,24.271,8.453,22.416,14.186c-2.496,6.505-19.517,2.399-29.692-0.589c12.316,3.616,17.784,9.224,15.953,12.162
						c-2.882,4.626-13.086,4.046-29.178-1.365l-0.001,0.001c10.068,6.84,11.491,10,9.239,12.203
						c-4.111,4.023-17.258-0.675-28.243-6.609c-12.367-6.68-19.641-16.152-24.085-22.233c-0.001-0.001-0.003-0.003-0.005-0.003
						c-62.041-4.173-102.266-14.491-152.495-14.094C1149.505,1385.645,1139.251,1318.771,1182.213,1296.412z"/>
					<path style="fill:#E2A18D;" d="M1373.024,1353.109c22.241,2.378,30.767-1.478,31.031-5.015
						c0.445-5.948-17.712-15.75-49.78-23.32C1358.791,1333.137,1368.508,1344.747,1373.024,1353.109z"/>
					<g>
						<path style="fill:#363E44;" d="M1362.691,1390.351c-1.076,0-2.017-0.788-2.179-1.884c-0.459-3.126-2.295-11.026-9.403-16.87
							c-5.021-4.129-10.43-5.455-14.082-5.842c-1.21-0.128-2.089-1.214-1.959-2.424c0.127-1.211,1.188-2.085,2.424-1.962
							c4.25,0.45,10.55,1.999,16.416,6.821c8.296,6.819,10.432,16.003,10.966,19.635c0.177,1.205-0.657,2.325-1.86,2.502
							C1362.904,1390.343,1362.797,1390.351,1362.691,1390.351z"/>
						<path style="fill:#363E44;" d="M1379.964,1356.241c-0.773,0-1.524-0.407-1.927-1.132c-1.331-2.386-2.489-4.693-3.609-6.923
							c-2.392-4.765-4.459-8.88-7.454-12.402c-0.788-0.928-0.676-2.32,0.252-3.108c0.922-0.787,2.319-0.678,3.107,0.251
							c3.34,3.927,5.62,8.47,8.036,13.282c1.098,2.188,2.235,4.452,3.518,6.754c0.594,1.064,0.213,2.406-0.85,2.999
							C1380.696,1356.151,1380.328,1356.241,1379.964,1356.241z"/>
						<path style="fill:#363E44;" d="M1397.417,1393.313c-0.28,0-0.562-0.054-0.835-0.166c-3.843-1.573-7.458-3.65-10.74-6.172
							c-2.261-1.74-4.373-3.7-6.278-5.828c-0.812-0.908-0.734-2.302,0.172-3.114c0.911-0.813,2.302-0.735,3.114,0.172
							c1.725,1.926,3.635,3.7,5.68,5.274c2.971,2.282,6.242,4.162,9.724,5.587c1.126,0.461,1.667,1.748,1.206,2.875
							C1399.107,1392.796,1398.285,1393.313,1397.417,1393.313z"/>
						<path style="fill:#363E44;" d="M1391.75,1407.321c-0.28,0-0.562-0.054-0.835-0.166c-3.852-1.577-7.465-3.654-10.738-6.173
							c-2.259-1.735-4.371-3.696-6.278-5.828c-0.812-0.908-0.734-2.302,0.172-3.113c0.909-0.812,2.302-0.735,3.114,0.172
							c1.727,1.929,3.637,3.703,5.68,5.273c2.963,2.28,6.233,4.16,9.721,5.589c1.126,0.461,1.667,1.748,1.206,2.875
							C1393.44,1406.804,1392.618,1407.321,1391.75,1407.321z"/>
						<path style="fill:#363E44;" d="M1376.859,1418.099c-0.28,0-0.562-0.054-0.835-0.166c-3.848-1.574-7.461-3.651-10.74-6.172
							c-2.263-1.741-4.375-3.702-6.278-5.828c-0.812-0.908-0.734-2.302,0.172-3.114c0.911-0.812,2.304-0.735,3.114,0.172
							c1.723,1.925,3.635,3.699,5.68,5.274c2.969,2.281,6.24,4.161,9.724,5.587c1.126,0.461,1.667,1.748,1.206,2.875
							C1378.549,1417.583,1377.727,1418.099,1376.859,1418.099z"/>
					</g>
				</g>
				<path style="fill:#D87355;" d="M870.55,1145.875c19.394,0.195,30.867-2.334,121.388,2.775
					c52.398,2.958,98.561,19.058,139.006,40.386c37.641,19.849,55.635,66.413,82.509,90.441
					c38.984,34.857,103.166,36.681,103.166,36.681l-15.665,84.712c0,0-46.318-0.589-52.409-1.026
					c-25.906-1.857-51.014-5.112-75.154-15.043c-21.109-8.684-40.507-22.61-55.919-39.426c-5.58-6.089-10.666-12.634-15.129-19.584
					c11.467,75.348,26.51,106.074,40.256,180.371c0,0-191.726-33.211-351.736-59.362l28.509-127.158l-109.2-102.582
					c0,0,3.822-3.488,11.612-11.162C761.393,1166.876,814.951,1145.314,870.55,1145.875z"/>
				<g>
					<path style="fill:#E2A18D;" d="M735.592,1256.274c39.213,8.611,132.562,24.317,141.614,26.213
						c16.92,3.545,107.23,24.923,105.558,38.289c-0.799,6.387-18.383,3.054-24.295,1.755c4.257,3.404,22.022,14.703,19.3,21.385
						c-3.198,7.851-26.428-2.373-26.89-2.304c4.674,3.018,23.778,14.285,21.933,19.374c-2.401,6.621-23.318,1.47-29.508-0.362
						c0.399,1.037,19.201,13.114,17.562,17.106c-1.815,4.423-21.435,0.087-29.366-0.909c-15.036-3.137-74.121-12.193-103.032-15.227
						c-67.901-7.125-97.834-13.313-130.058-22.533c-12.614-3.609-24.646-12.085-29.74-22.115
						c-6.449-12.697-3.143-25.294,9.569-31.713C697.36,1275.576,716.323,1266.06,735.592,1256.274z"/>
					<g>
						<path style="fill:#363E44;" d="M958.807,1324.152c-0.397,0-0.799-0.107-1.162-0.332c-2.985-1.855-6.127-3.518-9.336-4.944
							c-5.767-2.56-11.867-4.407-18.129-5.493c-1.199-0.208-2.004-1.349-1.796-2.549c0.209-1.199,1.347-1.998,2.549-1.796
							c6.619,1.147,13.066,3.101,19.165,5.807c3.394,1.508,6.717,3.266,9.874,5.228c1.034,0.643,1.352,2.002,0.71,3.037
							C960.264,1323.783,959.544,1324.152,958.807,1324.152z"/>
						<path style="fill:#363E44;" d="M951.306,1343.453c-0.321,0-0.646-0.07-0.954-0.217c-0.664-0.32-1.347-0.634-2.046-0.945
							c-5.762-2.558-11.862-4.406-18.127-5.492c-1.199-0.208-2.004-1.349-1.796-2.549c0.209-1.199,1.347-1.999,2.549-1.796
							c6.622,1.148,13.071,3.102,19.165,5.807c0.74,0.33,1.461,0.663,2.164,1c1.097,0.527,1.56,1.844,1.032,2.942
							C952.916,1342.993,952.127,1343.453,951.306,1343.453z"/>
						<path style="fill:#363E44;" d="M942.934,1362.561c-0.238,0-0.481-0.04-0.719-0.122c-3.893-1.344-7.942-2.385-12.035-3.094
							c-1.2-0.208-2.004-1.35-1.796-2.549c0.209-1.198,1.358-1.995,2.549-1.796c4.324,0.75,8.604,1.851,12.72,3.271
							c1.151,0.397,1.762,1.652,1.365,2.803C944.703,1361.988,943.848,1362.561,942.934,1362.561z"/>
					</g>
				</g>
				<g>
					<path style="fill:#D87355;" d="M864.889,1276.895l-18.489,94.07c0,0-172.41-13.92-180.941-52.987
						c-8.531-39.067,11.276-61.983,44.712-100.92C752.006,1195.256,864.889,1276.895,864.889,1276.895z"/>
					<path style="fill:#363E44;" d="M852.293,1276.739c-0.087,0-0.174-0.005-0.263-0.015
						c-30.903-3.661-103.758-16.276-116.91-19.164c-1.19-0.26-1.942-1.437-1.681-2.626c0.262-1.19,1.446-1.945,2.626-1.681
						c13.101,2.877,85.684,15.443,116.484,19.091c1.209,0.143,2.073,1.24,1.93,2.449
						C854.346,1275.915,853.394,1276.739,852.293,1276.739z"/>
				</g>
			</g>
			<g>
				<g>
					<path style="fill:#E2A18D;" d="M928.277,1153.258c10.12,8.177,24.255,13.888,55.383,9.167c1.621-0.246,3.045-1.232,3.865-2.652
						l32.218-55.802l-51.85-29.936l-41.112,71.209C925.237,1147.918,925.875,1151.317,928.277,1153.258z"/>
					<path style="fill:#E2A18D;" d="M1019.263,1134.066c-13.262,7.285-45.145-20.352-45.145-20.352l-15.01-43.723
						c2.448-21.146,21.574-36.303,42.72-33.855c21.146,2.448,36.303,21.574,33.855,42.72
						C1035.681,1078.856,1032.771,1126.646,1019.263,1134.066z"/>
					<path style="fill:#E2A18D;" d="M1030.116,1088.414c0,0,9.436,12.495,8.521,15.399c-1.092,3.467-13.305,4.245-13.305,4.245
						S1030.398,1088.474,1030.116,1088.414z"/>
					<g>
						<path style="fill:#FFFFFF;" d="M995.753,1082.775c0,0,6.809-2.705,14.536-1.81c1.644,0.19-2.98,12.987-4.455,12.061
							C999.352,1088.956,995.753,1082.775,995.753,1082.775z"/>
						<g>
							<defs>
								<path id="SVGID_1_" d="M995.753,1082.775c0,0,10.015-3.979,19.536-0.689c9.521,3.29,14.943,12.602,14.943,12.602
									s-10.015,3.979-19.536,0.69C1001.175,1092.088,995.753,1082.775,995.753,1082.775z"/>
							</defs>
							<clipPath id="SVGID_00000137816616143707334030000013914823916727746473_">
								<use xlink:href="#SVGID_1_"  style="overflow:visible;"/>
							</clipPath>
							<path style="clip-path:url(#SVGID_00000137816616143707334030000013914823916727746473_);fill:#363E44;" d="
								M1010.655,1080.664c5.702-4.519,13.988-3.56,18.507,2.142c4.519,5.702,3.559,13.988-2.143,18.507
								c-5.702,4.519-13.988,3.56-18.507-2.142C1003.994,1093.469,1004.953,1085.183,1010.655,1080.664z"/>
						</g>
					</g>
					<path style="fill:#363E44;" d="M1015.715,1115.829c-1.739,0-3.461-0.592-4.847-1.739c-2.214-1.831-3.215-4.828-2.548-7.637
						c0.281-1.185,1.473-1.915,2.655-1.636c1.184,0.281,1.917,1.469,1.636,2.655c-0.282,1.188,0.137,2.451,1.067,3.221
						c0.967,0.8,2.326,0.954,3.461,0.396c1.094-0.539,2.414-0.087,2.951,1.007c0.537,1.094,0.086,2.415-1.007,2.951
						C1018.015,1115.572,1016.861,1115.829,1015.715,1115.829z"/>
					<path style="fill:#363E44;" d="M1007.26,1137.05c-0.21,0-0.423-0.03-0.634-0.094c-14.966-4.489-33.257-20.247-34.028-20.916
						c-0.92-0.798-1.02-2.191-0.223-3.11c0.799-0.919,2.191-1.018,3.11-0.223c0.182,0.158,18.352,15.809,32.407,20.024
						c1.167,0.35,1.829,1.579,1.479,2.745C1009.085,1136.432,1008.208,1137.05,1007.26,1137.05z"/>
					<path style="fill:#363E44;" d="M1025.909,1057.895c6.04,2.696,13.105,1.637,18.055-2.751
						c8.839-7.835,21.178-21.002,20.18-32.747c-0.19-2.236-0.757-3.762-2.003-5.409c-6.942-9.171-24.291,3.464-48.808,0.494
						c-23.624-2.862-33.996-17.803-46.812-11.043c-5.635,2.972-8.326,8.408-9.028,9.701c-9.275,17.085,1.65,31.89,1.65,31.89
						s-7.979-9.067-18.466,3.01c-10.485,12.078,33.788,35.436,33.788,35.436l8.047-2.784l1.695-16.992
						c1.289-12.922,14.85-20.791,26.709-15.499L1025.909,1057.895z"/>
					<path style="fill:#E2A18D;" d="M951.662,1069.283c-3.631,6.381-1.401,14.498,4.98,18.129c6.381,3.631,14.498,1.401,18.129-4.98
						c3.631-6.381,1.401-14.498-4.98-18.129C963.41,1060.672,955.293,1062.902,951.662,1069.283z"/>
				</g>
				<g>
					<path style="fill:#EFBC73;" d="M945.557,1053.521c0,0,34.893-10.265,57.36-38.921l-49.502-37.136l-15.117-11.337
						l-19.322-14.498l13.026,49.929l4.245,16.269L945.557,1053.521z"/>
					<g>
						<path style="fill:#BC8271;" d="M942.062,980.443c4.093,1.796,8.781,0.454,11.353-2.979l-15.117-11.337
							c-0.424,0.56-0.795,1.191-1.091,1.866C935.109,972.771,937.283,978.346,942.062,980.443z"/>
						<path style="fill:#ff6900;" d="M936.247,1017.828c4.324,0.973,8.862-1.217,10.707-5.419
							c2.101-4.789-0.073-10.363-4.861-12.464c-3.497-1.534-7.418-0.779-10.091,1.614L936.247,1017.828z"/>
						<path style="fill:#FFFFFF;" d="M966.2,1022.289c-5.446-2.39-7.924-8.743-5.534-14.189c2.39-5.446,8.743-7.924,14.189-5.534
							c5.446,2.39,7.924,8.743,5.534,14.189C977.999,1022.202,971.646,1024.68,966.2,1022.289z"/>
					</g>
				</g>
			</g>
		</g>
		<g>
			<g>
				<path style="fill:#E2A18D;" d="M1375.911,1634.143c-0.766,0-1.486-0.401-1.886-1.065c-0.437-0.722-0.424-1.631,0.037-2.339
					l12.775-19.702c0.218-0.335,0.521-0.604,0.879-0.779l58.761-28.848c0.827-0.407,1.824-0.253,2.493,0.383
					c0.67,0.638,0.868,1.625,0.5,2.474l-7.581,17.456l29.27,19.781c0.773,0.522,1.135,1.473,0.902,2.376
					c-0.233,0.902-1.008,1.562-1.936,1.646l-94.013,8.608C1376.045,1634.14,1375.978,1634.143,1375.911,1634.143z
					 M1390.204,1613.946l-9.973,15.382l83.339-7.631l-25.668-17.348c-0.881-0.594-1.212-1.731-0.788-2.706l5.921-13.635
					L1390.204,1613.946z"/>
				<path style="fill:#E2A18D;" d="M1318.649,1636.802c-0.644,0-1.277-0.283-1.708-0.811l-58.081-71.17
					c-0.566-0.693-0.657-1.659-0.23-2.445c0.426-0.786,1.29-1.245,2.172-1.141l18.924,2.03l10.148-33.839
					c0.271-0.902,1.085-1.533,2.026-1.57c0.906-0.032,1.8,0.528,2.142,1.405l38.19,98.47c0.405,1.045-0.039,2.228-1.029,2.749
					l-11.528,6.068C1319.351,1636.719,1318.998,1636.802,1318.649,1636.802z M1265.671,1566.192l53.546,65.615l8.193-4.313
					l-35.156-90.648l-8.83,29.441c-0.306,1.018-1.305,1.678-2.347,1.559L1265.671,1566.192z"/>
				<rect x="1225.478" y="1636.409" style="fill:#E2A18D;" width="212.511" height="394.4"/>
				<g>
					<path style="fill:#B77250;" d="M1333.691,1636.922c-36.765-22.421-61.605-42.128-53.503-54.336
						c3.017-4.546,8.876-5.013,12.603-1.21C1302.627,1591.413,1319.404,1616.948,1333.691,1636.922z"/>
					<path style="fill:#D87355;" d="M1327.952,1639.654c-35.88-0.753-58.076-5.23-70.31-8.936c-4.061-1.23-6.942-5.319-7.141-10.097
						c-0.908-21.776,20.921-47.211,39.232-41.176c-19.28,2.358-3.492,23.092,35.315,51.329
						C1327.813,1632.787,1324.957,1637.569,1327.952,1639.654z"/>
					<path style="fill:#B77250;" d="M1325.257,1636.922c46.076-26.158,74.717-48.621,50.069-59.793
						C1365.465,1577.199,1344.251,1612.202,1325.257,1636.922z"/>
					<path style="fill:#D87355;" d="M1327.547,1639.047c38.543-0.753,66.262-4.623,79.404-8.329
						c4.362-1.23,7.457-5.319,7.671-10.097c0.975-21.776-13.393-45.527-39.296-43.492c16.414,7.239,0.299,26.191-42.292,54.676
						C1330.532,1633.478,1330.23,1637.309,1327.547,1639.047z"/>
					<path style="fill:#D87355;" d="M1324.002,1624.009l11.369-1.263l0.702,17.405l-12.61,0.214c-1.976,0.033-3.431-1.84-2.91-3.746
						L1324.002,1624.009z"/>
				</g>
				<rect x="1318.32" y="1632.171" style="fill:#D87355;" width="30.072" height="400.458"/>
			</g>
			<g>
				<path style="fill:#ff6900;" d="M1567.19,1777.438c-0.766,0-1.486-0.401-1.886-1.065c-0.437-0.722-0.424-1.631,0.037-2.339
					l15.968-24.628c0.218-0.335,0.521-0.604,0.879-0.779l73.448-36.057c0.827-0.407,1.824-0.254,2.493,0.384
					c0.67,0.637,0.868,1.626,0.5,2.473l-9.659,22.238l36.965,24.982c0.773,0.522,1.135,1.473,0.902,2.376
					c-0.233,0.902-1.008,1.562-1.936,1.646l-117.51,10.759C1567.324,1777.434,1567.257,1777.438,1567.19,1777.438z
					 M1584.676,1752.316l-13.167,20.307l106.837-9.782l-33.363-22.549c-0.881-0.594-1.212-1.731-0.788-2.705l7.999-18.417
					L1584.676,1752.316z"/>
				<path style="fill:#ff6900;" d="M1495.616,1780.762c-0.644,0-1.277-0.283-1.708-0.811l-72.598-88.958
					c-0.566-0.693-0.657-1.659-0.23-2.445c0.424-0.785,1.292-1.241,2.172-1.141l24.305,2.607l12.406-29.116
					c0.345-0.808,1.137-1.335,2.016-1.34c0.004,0,0.009,0,0.013,0c0.874,0,1.667,0.517,2.018,1.317l48.032,109.21
					c0.467,1.06,0.035,2.299-0.99,2.839l-14.409,7.584C1496.318,1780.679,1495.964,1780.762,1495.616,1780.762z M1428.121,1692.364
					l68.063,83.403l10.994-5.788l-45.154-102.666l-11.05,25.932c-0.379,0.893-1.279,1.441-2.263,1.328L1428.121,1692.364z"/>
				<rect x="1390.479" y="1780.821" style="fill:#ff6900;" width="247.21" height="282.895"/>
				<rect x="1496.43" y="1775.523" style="fill:#B77250;" width="32.446" height="288.193"/>
				<path style="fill:#363E44;" d="M1637.689,2065.92H1390.48c-1.219,0-2.205-0.987-2.205-2.205V1780.82
					c0-1.218,0.986-2.205,2.205-2.205h247.209c1.219,0,2.205,0.987,2.205,2.205v282.895
					C1639.893,2064.933,1638.907,2065.92,1637.689,2065.92z M1392.684,2061.51h242.799v-278.485h-242.799V2061.51z"/>
				<g>
					<path style="fill:#B77250;" d="M1514.418,1781.463c-45.953-28.025-77.003-52.657-66.875-67.916
						c3.771-5.682,11.094-6.266,15.753-1.513C1475.59,1724.579,1496.561,1756.496,1514.418,1781.463z"/>
					<path style="fill:#D87355;" d="M1507.244,1784.877c-44.847-0.941-72.591-6.537-87.882-11.169
						c-5.076-1.538-8.677-6.648-8.925-12.62c-1.135-27.219,26.15-59.011,49.037-51.467c-24.098,2.948-4.365,28.864,44.141,64.158
						C1507.071,1776.294,1503.5,1782.271,1507.244,1784.877z"/>
					<path style="fill:#B77250;" d="M1503.876,1781.462c57.592-32.695,93.391-60.773,62.583-74.737
						C1554.134,1706.813,1527.617,1750.564,1503.876,1781.462z"/>
					<path style="fill:#D87355;" d="M1506.739,1784.118c48.176-0.941,82.823-5.778,99.249-10.411
						c5.453-1.538,9.321-6.648,9.588-12.62c1.219-27.219-16.74-56.906-49.117-54.362c20.516,9.048,0.374,32.736-52.862,68.341
						C1510.47,1777.157,1510.092,1781.946,1506.739,1784.118z"/>
					<path style="fill:#D87355;" d="M1502.307,1765.322l14.211-1.579l0.877,21.754l-15.761,0.267
						c-2.47,0.042-4.289-2.299-3.637-4.683L1502.307,1765.322z"/>
				</g>
				<path style="fill:#F7F1EB;" d="M1574.931,1900.781c-2.963,0-5.936-0.478-8.83-1.443c-7.054-2.351-12.77-7.308-16.095-13.958
					c-2.713-5.426-3.15-11.583-1.232-17.337c1.918-5.754,5.962-10.417,11.388-13.13c9.175-4.59,20.375-0.855,24.966,8.322
					c1.83,3.662,2.125,7.818,0.831,11.701c-1.294,3.884-4.024,7.032-7.687,8.862c-3.03,1.517-6.474,1.765-9.698,0.689
					c-3.219-1.073-5.827-3.335-7.344-6.37c-2.614-5.229-0.487-11.61,4.741-14.226c4.395-2.197,9.771-0.411,11.974,3.991
					c1.867,3.739,0.347,8.3-3.389,10.169c-3.21,1.607-7.125,0.298-8.729-2.909c-1.257-2.519-0.45-5.54,1.776-7.123
					c-2.803,1.626-3.897,5.187-2.429,8.125c0.99,1.982,2.694,3.459,4.795,4.159c2.104,0.702,4.352,0.539,6.33-0.45
					c2.61-1.304,4.554-3.545,5.475-6.312c0.922-2.767,0.713-5.726-0.592-8.335c-3.501-7.001-12.047-9.85-19.049-6.35
					c-4.373,2.186-7.631,5.944-9.177,10.581c-1.546,4.637-1.193,9.598,0.993,13.97c2.797,5.596,7.609,9.769,13.545,11.747
					c5.934,1.978,12.286,1.528,17.884-1.271c1.089-0.544,2.412-0.103,2.958,0.986c0.545,1.089,0.103,2.414-0.986,2.958
					C1583.429,1899.79,1579.194,1900.781,1574.931,1900.781z M1569.705,1867.367c0.67,0.114,1.279,0.534,1.606,1.189
					c0.545,1.089,0.103,2.414-0.986,2.958c-0.609,0.305-0.857,1.049-0.553,1.658c0.519,1.036,1.789,1.451,2.812,0.937
					c1.563-0.781,2.198-2.69,1.417-4.255C1573.172,1868.197,1571.484,1867.278,1569.705,1867.367z"/>
				<path style="fill:#F7F1EB;" d="M1466.419,2040.042c-2.963,0-5.936-0.479-8.828-1.443c-7.054-2.351-12.77-7.309-16.095-13.959
					c-2.713-5.426-3.15-11.583-1.232-17.337c1.916-5.754,5.962-10.417,11.388-13.13c4.446-2.223,9.493-2.58,14.206-1.009
					s8.535,4.885,10.757,9.331c1.832,3.661,2.127,7.817,0.831,11.701c-1.294,3.884-4.022,7.032-7.684,8.863
					c-6.268,3.13-13.914,0.581-17.044-5.681c-2.614-5.23-0.487-11.612,4.743-14.227c2.132-1.066,4.55-1.236,6.813-0.483
					c2.261,0.754,4.093,2.344,5.159,4.475c0.906,1.81,1.053,3.865,0.411,5.786c-0.64,1.921-1.99,3.477-3.8,4.383
					c-3.217,1.604-7.125,0.297-8.727-2.909c-0.674-1.349-0.784-2.879-0.306-4.309c0.381-1.148,1.105-2.121,2.071-2.809
					c-2.797,1.629-3.886,5.186-2.42,8.121c2.045,4.09,7.039,5.753,11.127,3.709c2.607-1.304,4.552-3.546,5.475-6.313
					c0.922-2.767,0.711-5.726-0.594-8.335c-1.695-3.392-4.61-5.92-8.208-7.119c-3.596-1.2-7.448-0.928-10.839,0.77
					c-4.373,2.185-7.633,5.943-9.177,10.581c-1.546,4.637-1.193,9.598,0.993,13.97c2.797,5.597,7.607,9.769,13.543,11.748
					c5.938,1.977,12.284,1.528,17.884-1.271c1.087-0.545,2.411-0.103,2.958,0.986c0.545,1.089,0.103,2.414-0.986,2.958
					C1474.917,2039.05,1470.68,2040.042,1466.419,2040.042z M1461.178,2006.626c0.676,0.11,1.292,0.532,1.621,1.191
					c0.545,1.089,0.103,2.414-0.986,2.958c-0.295,0.147-0.515,0.401-0.62,0.714c-0.104,0.312-0.08,0.647,0.069,0.943
					c0.515,1.032,1.776,1.452,2.81,0.937c0.758-0.379,1.322-1.029,1.589-1.832c0.269-0.804,0.207-1.663-0.172-2.421
					c-0.538-1.079-1.464-1.882-2.61-2.263C1462.322,2006.665,1461.74,2006.596,1461.178,2006.626z"/>
				<path style="fill:#F7F1EB;" d="M1432.078,1845.31c-8.763,0-17.13-5.101-20.851-13.636c-4.1-9.406,0.218-20.394,9.625-24.492
					c7.755-3.379,16.801,0.182,20.175,7.927c2.797,6.42-0.148,13.92-6.569,16.719c-2.599,1.134-5.48,1.183-8.115,0.15
					c-2.635-1.036-4.711-3.037-5.842-5.633c-0.952-2.184-0.997-4.61-0.125-6.829c0.872-2.219,2.554-3.965,4.739-4.917
					c3.826-1.669,8.307,0.088,9.978,3.919c0.693,1.593,0.726,3.361,0.09,4.979c-0.635,1.617-1.863,2.89-3.456,3.584
					c-2.571,1.125-5.54,0.165-7.009-2.13c0.687,1.338,1.824,2.367,3.236,2.922c1.537,0.604,3.221,0.574,4.741-0.086
					c4.19-1.828,6.115-6.724,4.287-10.917c-2.405-5.516-8.849-8.053-14.37-5.645c-7.176,3.127-10.471,11.511-7.342,18.688
					c4.033,9.249,14.842,13.499,24.087,9.464c11.838-5.162,17.273-18.994,12.114-30.834c-0.487-1.116,0.024-2.416,1.141-2.902
					c1.12-0.487,2.416,0.026,2.902,1.141c6.13,14.068-0.327,30.505-14.396,36.637
					C1438.176,1844.703,1435.104,1845.31,1432.078,1845.31z M1426.317,1821.075c0.85,0,1.662,0.495,2.024,1.324
					c0.271,0.624,0.993,0.915,1.626,0.641c1.059-0.463,1.546-1.7,1.083-2.758c-0.698-1.603-2.571-2.343-4.173-1.64
					c-1.105,0.481-1.955,1.364-2.396,2.487c-0.213,0.544-0.319,1.111-0.314,1.678c0.146-0.665,0.599-1.254,1.27-1.547
					C1425.724,1821.136,1426.024,1821.075,1426.317,1821.075z"/>
			</g>
		</g>
		<g>
			<g>
				<g>
					<path style="fill:#D3BBA3;" d="M1865.17,1992.429c0,0,24.197,15.675,43.154,77.523c-91.1,50.06-137.103,74.281-138.025,72.673
						c-0.016-0.029-0.018-0.065-0.006-0.111c-3.695-7.901-5.53-15.26-6.291-21.833c-6.944-60.022,69.58-107.967,75.951-111.85
						C1848.359,2003.364,1856.765,1997.897,1865.17,1992.429z"/>
					<path style="fill:#E2A18D;" d="M1843.067,1948.408l28.578,53.561c6.074,11.385,1.665,25.539-9.8,31.459l0,0
						c-10.419,5.38-23.215,2.119-29.787-7.593l-26.066-38.517L1843.067,1948.408z"/>
				</g>
				<path style="fill:#363E44;" d="M1810.778,1414.633c0,0-82.614,184.151-86.009,354.163
					c-3.242,162.363,86.009,244.918,86.009,244.918l50.976-49.827c0,0-60.169-267.157,63.557-382.98l16.512-150.197
					L1810.778,1414.633z"/>
				<path style="fill:#E6D0BE;" d="M1935.723,2049.712c0,0,13.818,46.324,12.862,94.755c0,0-89.113,0-110.575,0
					c0.02,0,3.486-61.064,68.964-94.755H1935.723z"/>
				<path style="fill:#E2A18D;" d="M1956.71,2007.572c-0.693,1.817-12.171,34.416-18.445,52.246
					c-3.684,10.47-14.956,16.371-25.565,13.106c-0.172-0.053-0.344-0.108-0.517-0.165c-9.992-3.281-15.712-13.804-13.506-24.087
					l11.516-53.674L1956.71,2007.572z"/>
				<path style="fill:#363E44;" d="M1960.02,2030.134c0,0-33.942,9.571-72.847-10.116c0,0,19.821-354.102-15.85-489.423
					l12.35-92.958l141.875,23.924C2025.549,1461.561,2072.514,1712.057,1960.02,2030.134z"/>
				<path style="fill:#363E44;" d="M1886.347,1627.741c-1.066,0-2.002-0.773-2.175-1.858l-6.319-39.704
					c-0.192-1.203,0.629-2.333,1.83-2.525c1.221-0.189,2.332,0.631,2.523,1.831l6.32,39.704c0.192,1.203-0.629,2.333-1.83,2.525
					C1886.577,1627.733,1886.461,1627.741,1886.347,1627.741z"/>
			</g>
			<g>
				<g>
					<path style="fill:#E2A18D;" d="M1738.867,1309.244c-42.304-21.612-168.212-76.512-144.58-129.118
						c19.547-43.513,139.806,15.362,183.206,34.099C1764.618,1245.898,1751.743,1277.571,1738.867,1309.244z"/>
					<g>
						<path style="fill:#E2A18D;" d="M1683.554,1200.214c0,0-42.107-114.306-58.477-151.216
							c-17.192-38.764-48.219-93.492-55.818-89.053c-4.329,2.528-1.641,10.867,7.026,32.678c-1.541-0.665-6.706-1.523-10.337,1.481
							c-5.373,4.445-2.973,9.772-2.985,10.34c-0.504-0.268-6.411-3.009-10.511-0.643c-4.618,2.665-5.663,7.07-5.173,11.226
							c-1.272-0.625-7.102-2.384-10.925,0.086c-4.97,3.212-4.698,9.757-2.652,14.193c3.755,8.138,14.568,30.121,18.801,42.477
							c8.331,24.314,26.327,114.63,47.657,146.588C1620.151,1191.794,1683.554,1200.214,1683.554,1200.214z"/>
						<path style="fill:#363E44;" d="M1582.452,1068.813c-1.137,0-2.102-0.874-2.196-2.027c-0.795-9.827,2.304-17.378,4.565-22.892
							c2.502-6.101,3.187-8.415,1.051-10.425c-3.038-2.856-5.155-7.441-6.285-13.628c-0.461-2.505,0.661-4.968,2.857-6.276
							c2.209-1.318,4.935-1.127,6.931,0.483l21.476,17.285c0.949,0.763,1.098,2.151,0.336,3.099
							c-0.764,0.947-2.149,1.102-3.101,0.335l-21.475-17.286c-0.84-0.677-1.673-0.27-1.91-0.128
							c-0.295,0.176-0.96,0.691-0.777,1.692c0.945,5.167,2.663,9.044,4.967,11.21c4.541,4.268,2.34,9.631,0.011,15.31
							c-2.209,5.386-4.959,12.089-4.248,20.864c0.097,1.213-0.807,2.277-2.022,2.375
							C1582.57,1068.811,1582.512,1068.813,1582.452,1068.813z"/>
						<path style="fill:#363E44;" d="M1544.97,1043.248c-0.837,0.001-1.636-0.477-2.007-1.286c-0.506-1.108-0.022-2.416,1.087-2.923
							c5.499-2.518,8.141-8.928,6.014-14.591l-1.936-5.152c-0.396-1.055,0.069-2.239,1.077-2.745
							c1.001-0.507,2.235-0.171,2.842,0.778l5.848,9.099c1.729,2.684,5.129,3.751,8.076,2.538c1.66-0.684,2.946-1.978,3.617-3.645
							c0.67-1.668,0.64-3.491-0.086-5.136l-5.816-13.174c-0.474-1.072-0.024-2.328,1.021-2.857c1.044-0.53,2.325-0.149,2.909,0.868
							l3.471,6.033c1.305,2.266,4.229,3.085,6.524,1.827c2.16-1.188,3.081-3.801,2.145-6.082l-3.841-9.335
							c-0.463-1.126,0.073-2.415,1.199-2.878c1.13-0.461,2.416,0.074,2.879,1.2l3.841,9.335c1.791,4.358,0.028,9.354-4.1,11.624
							c-2.061,1.131-4.392,1.383-6.539,0.884l0.342,0.774c1.21,2.742,1.26,5.783,0.14,8.563c-1.118,2.78-3.26,4.938-6.031,6.077
							c-4.423,1.821-9.459,0.561-12.521-2.976c-0.551,5.494-3.932,10.548-9.241,12.979
							C1545.588,1043.184,1545.276,1043.248,1544.97,1043.248z"/>
					</g>
				</g>
				<g>
					<path style="fill:#E2A18D;" d="M2067.85,1270.597c28.692,41.166,127.374,136.834,81.728,171.43
						c-37.755,28.617-127.304-69.271-158.312-108.445C2017.514,1312.051,2041.601,1292.127,2067.85,1270.597z"/>
				</g>
				<path style="fill:#ff6900;" d="M2050.083,1441.834l-294.793-16.845l30.532-236.887c0,0,206.355-70.54,323.22,129.498
					l-71.873,66.693L2050.083,1441.834z"/>
				<path style="fill:#ff6900;" d="M1782.99,1185.865c-32.668,4.868-60.219-4.757-82.64-20.205l-61.719,111.594
					c41.09,32.769,78.322,39.36,78.322,39.36l8.332,125.221c6.317,16.845,32.523,22.109,60.423,23.162
					c0,0,92.666-2.049,253.618,1.053v-46.325l-37.455-76.137l25.649-110.173C1981.469,1168.775,1852.601,1175.492,1782.99,1185.865z
					"/>
				<path style="fill:#363E44;" d="M1716.954,1316.801c-0.125,0-0.252-0.011-0.381-0.032c-1.199-0.209-2.002-1.351-1.793-2.55
					l1.981-11.378c0.209-1.199,1.335-1.993,2.551-1.795c1.199,0.209,2.002,1.351,1.794,2.55l-1.981,11.378
					C1718.938,1316.046,1718.007,1316.801,1716.954,1316.801z"/>
				<g>
					<path style="fill:#F7F1EB;" d="M1908.677,1303.811c-0.766,0-1.486-0.4-1.886-1.065c-0.437-0.722-0.424-1.631,0.037-2.339
						l11.082-17.094c0.217-0.335,0.521-0.604,0.878-0.779l50.982-25.028c0.829-0.408,1.826-0.254,2.493,0.384
						c0.67,0.637,0.868,1.626,0.499,2.473l-6.483,14.922l25.194,17.026c0.773,0.522,1.133,1.473,0.902,2.376
						c-0.232,0.902-1.008,1.562-1.936,1.646l-81.563,7.468C1908.81,1303.807,1908.744,1303.811,1908.677,1303.811z
						 M1921.277,1286.223l-8.281,12.774l70.89-6.491l-21.592-14.593c-0.881-0.594-1.212-1.732-0.788-2.705l4.823-11.102
						L1921.277,1286.223z"/>
					<path style="fill:#F7F1EB;" d="M1858.995,1306.118c-0.644,0-1.277-0.283-1.707-0.811l-50.39-61.747
						c-0.566-0.693-0.657-1.659-0.23-2.445c0.424-0.786,1.29-1.245,2.172-1.141l16.174,1.735l8.735-29.126
						c0.271-0.902,1.085-1.533,2.026-1.57c0.924-0.044,1.8,0.529,2.142,1.405l33.135,85.431c0.405,1.045-0.039,2.228-1.029,2.749
						l-10.001,5.264C1859.697,1306.035,1859.344,1306.118,1858.995,1306.118z M1813.708,1244.931l45.855,56.192l6.666-3.51
						l-30.101-77.61l-7.415,24.728c-0.306,1.02-1.298,1.67-2.347,1.559L1813.708,1244.931z"/>
					<rect x="1786.018" y="1305.484" style="fill:#EFBC73;" width="171.592" height="147.078"/>
					<rect x="1859.56" y="1301.807" style="fill:#B77250;" width="22.521" height="152.134"/>
					<g>
						<path style="fill:#B77250;" d="M1872.046,1305.93c-31.897-19.452-53.448-36.55-46.419-47.142
							c2.618-3.944,7.701-4.349,10.934-1.05C1845.095,1266.446,1859.65,1288.6,1872.046,1305.93z"/>
						<path style="fill:#D87355;" d="M1867.066,1308.3c-31.129-0.653-50.387-4.537-61-7.753c-3.523-1.067-6.022-4.615-6.195-8.76
							c-0.788-18.893,18.151-40.96,34.037-35.724c-16.727,2.046-3.029,20.035,30.639,44.533
							C1866.946,1302.342,1864.467,1306.491,1867.066,1308.3z"/>
						<path style="fill:#B77250;" d="M1864.728,1305.93c39.975-22.694,64.824-42.184,43.439-51.876
							C1899.613,1254.115,1881.207,1284.483,1864.728,1305.93z"/>
						<path style="fill:#D87355;" d="M1866.715,1307.774c33.44-0.653,57.489-4.011,68.89-7.226c3.785-1.067,6.469-4.615,6.655-8.76
							c0.846-18.893-11.619-39.499-34.093-37.733c14.24,6.281,0.26,22.723-36.692,47.436
							C1869.305,1302.942,1869.043,1306.265,1866.715,1307.774z"/>
						<path style="fill:#D87355;" d="M1863.639,1294.727l9.864-1.096l0.609,15.1l-10.94,0.185c-1.715,0.029-2.977-1.596-2.525-3.25
							L1863.639,1294.727z"/>
					</g>
					<g>
						<path style="fill:#F2E6DC;" d="M1914.268,1324.707c0,2.762-2.239,5.001-5.001,5.001s-5.001-2.239-5.001-5.001
							c0-2.762,2.239-5.001,5.001-5.001S1914.268,1321.945,1914.268,1324.707z"/>
						<path style="fill:#F2E6DC;" d="M1950.327,1441.308c0,2.762-2.239,5.001-5.001,5.001c-2.762,0-5.001-2.239-5.001-5.001
							s2.239-5.001,5.001-5.001C1948.088,1436.307,1950.327,1438.546,1950.327,1441.308z"/>
						<path style="fill:#F2E6DC;" d="M1911.899,1429.2c0,2.762-2.239,5.001-5.001,5.001c-2.762,0-5.001-2.239-5.001-5.001
							s2.239-5.001,5.001-5.001C1909.66,1424.199,1911.899,1426.438,1911.899,1429.2z"/>
						<path style="fill:#F2E6DC;" d="M1807.669,1437.096c0,2.762-2.239,5.001-5.001,5.001s-5.001-2.239-5.001-5.001
							c0-2.762,2.239-5.001,5.001-5.001S1807.669,1434.334,1807.669,1437.096z"/>
						<path style="fill:#F2E6DC;" d="M1817.934,1366.293c0,2.762-2.239,5.001-5.001,5.001s-5.001-2.239-5.001-5.001
							s2.239-5.001,5.001-5.001S1817.934,1363.531,1817.934,1366.293z"/>
						<path style="fill:#F2E6DC;" d="M1955.592,1336.551c0,2.762-2.239,5.001-5.001,5.001c-2.762,0-5.001-2.239-5.001-5.001
							s2.239-5.001,5.001-5.001C1953.353,1331.55,1955.592,1333.789,1955.592,1336.551z"/>
						<path style="fill:#F2E6DC;" d="M1854.52,1329.708c0,2.762-2.239,5.001-5.001,5.001c-2.762,0-5.001-2.239-5.001-5.001
							s2.239-5.001,5.001-5.001C1852.281,1324.707,1854.52,1326.946,1854.52,1329.708z"/>
						<path style="fill:#F2E6DC;" d="M1801.878,1316.021c0,2.762-2.239,5.001-5.001,5.001s-5.001-2.239-5.001-5.001
							s2.239-5.001,5.001-5.001S1801.878,1313.259,1801.878,1316.021z"/>
						<path style="fill:#F2E6DC;" d="M1946.906,1382.086c0,2.762-2.239,5.001-5.001,5.001s-5.001-2.239-5.001-5.001
							s2.239-5.001,5.001-5.001S1946.906,1379.324,1946.906,1382.086z"/>
						<path style="fill:#F2E6DC;" d="M1899.002,1367.346c0,2.762-2.239,5.001-5.001,5.001c-2.762,0-5.001-2.239-5.001-5.001
							c0-2.762,2.239-5.001,5.001-5.001C1896.763,1362.345,1899.002,1364.584,1899.002,1367.346z"/>
						<path style="fill:#F2E6DC;" d="M1843.202,1400.51c0,2.762-2.239,5.001-5.001,5.001s-5.001-2.239-5.001-5.001
							s2.239-5.001,5.001-5.001S1843.202,1397.749,1843.202,1400.51z"/>
					</g>
				</g>
				<g>
					<path style="fill:#E2A18D;" d="M2123.186,1362.948c-39.562,2.803-133.056,4.793-142.175,5.351
						c-17.046,1.043-108.381,9.012-108.661,22.316c-0.133,6.357,17.532,5.617,23.497,5.193c-4.648,2.718-23.63,11.219-21.926,18.141
						c2.002,8.131,26.172,1.464,26.614,1.597c-5.001,2.281-25.287,10.559-24.212,15.798c1.399,6.816,22.582,4.774,28.895,3.87
						c-0.538,0.957-20.645,10.07-19.615,14.206c1.141,4.584,20.939,3.153,28.834,3.315c15.146-0.914,74.196-1.308,102.89-0.135
						c67.391,2.756,88.981-1.884,121.799-6.283C2151.973,1444.595,2140.62,1375.272,2123.186,1362.948z"/>
					<path style="fill:#363E44;" d="M2025.612,1368.411c-1.18,0-2.157-0.934-2.201-2.124c-0.045-1.217,0.904-2.239,2.121-2.285
						c18.177-0.667,84.513-3.318,97.647-4.103c1.21-0.097,2.259,0.852,2.332,2.069c0.073,1.215-0.853,2.26-2.069,2.332
						c-13.164,0.787-79.559,3.441-97.746,4.109C2025.668,1368.411,2025.64,1368.411,2025.612,1368.411z"/>
					<path style="fill:#363E44;" d="M1895.601,1397.395c-0.853,0-1.662-0.496-2.024-1.326c-0.487-1.116,0.026-2.416,1.141-2.901
						c3.367-1.465,6.869-2.71,10.404-3.697c6.35-1.774,12.934-2.761,19.57-2.935c0.019-0.001,0.039-0.001,0.06-0.001
						c1.191,0,2.17,0.949,2.203,2.147c0.03,1.218-0.93,2.231-2.147,2.262c-6.274,0.165-12.499,1.098-18.5,2.774
						c-3.339,0.933-6.647,2.109-9.829,3.494C1896.193,1397.336,1895.894,1397.395,1895.601,1397.395z"/>
					<path style="fill:#363E44;" d="M1900.168,1417.334c-0.941,0-1.811-0.606-2.106-1.551c-0.362-1.163,0.289-2.399,1.451-2.76
						c0.736-0.228,1.49-0.451,2.257-0.665c6.347-1.774,12.932-2.761,19.572-2.935c0.019-0.001,0.039-0.001,0.06-0.001
						c1.191,0,2.17,0.95,2.203,2.147c0.03,1.218-0.93,2.231-2.147,2.262c-6.279,0.165-12.503,1.098-18.5,2.773
						c-0.728,0.203-1.438,0.413-2.136,0.631C1900.605,1417.302,1900.383,1417.334,1900.168,1417.334z"/>
					<path style="fill:#363E44;" d="M1905.615,1437.209c-1.04,0-1.964-0.738-2.164-1.796c-0.226-1.196,0.56-2.349,1.757-2.575
						c4.237-0.801,8.578-1.264,12.906-1.376c1.132-0.063,2.231,0.928,2.263,2.147c0.03,1.216-0.93,2.23-2.147,2.261
						c-4.093,0.107-8.199,0.545-12.204,1.301C1905.889,1437.197,1905.751,1437.209,1905.615,1437.209z"/>
				</g>
			</g>
			<g>
				<g>
					<g>
						<path style="fill:#D87355;" d="M1988.021,1127.672c-63.35,24.372-136.874,44.645-214.685,39.339
							c0,0-14.301-123.603,70.024-136.46C1913.667,1019.831,1969.701,1076.784,1988.021,1127.672z"/>
					</g>
					<path style="fill:#D87355;" d="M1878.261,1041.268c0,0-33.751-9.942-49.431-21.861c-15.679-11.919-45.903-18.209-58.103,6.226
						c-12.2,24.435,40.014,29.282,40.014,29.282L1878.261,1041.268z"/>
					<path style="fill:#D87355;" d="M1854.247,1040.437c0,0-19.977-74.477,23.616-57.393
						C1921.457,1000.128,1876.92,1047.99,1854.247,1040.437z"/>
					<path style="fill:#D87355;" d="M1864.675,1043.378c-3.462,0-6.845-0.971-9.842-2.993c-4.285-1.2-7.446-9.935-9.377-17.261
						c-3.236-12.279-6.601-37.378,3.826-44.471c5.252-3.576,12.684-1.897,22.072,5.002c21.574,15.849,21.805,35.961,12.462,48.862
						C1878.724,1039.551,1871.546,1043.377,1864.675,1043.378z M1855.436,981.247c-1.202,0-2.267,0.249-3.185,0.751
						c-4.248,2.328-6.244,10.395-5.475,22.135c1.081,16.553,6.782,31.055,9.224,32.003c0.396,0.032,0.672,0.152,0.997,0.383
						c7.913,5.647,17.884,0.82,23.25-6.589c8.061-11.136,7.633-28.665-11.502-42.724
						C1863.37,983.26,1858.851,981.247,1855.436,981.247z"/>
				</g>
				<g>
					<polygon style="fill:#E2A18D;" points="1911.356,1185.035 1907.059,1112.166 1856.698,1137.865 1860.673,1191.993 					"/>
					
						<ellipse transform="matrix(0.9908 -0.1355 0.1355 0.9908 -144.066 266.1665)" style="fill:#E2A18D;" cx="1883.163" cy="1191.358" rx="43.512" ry="12.776"/>
				</g>
				<g>
					<path style="fill:#E2A18D;" d="M1805.625,1054.577c0,0-1.712,92.848,36.697,100.483c23.238,4.619,48.003-19.741,54.752-31.768
						c6.749-12.026,4.046-33.352,4.046-33.352s-8.77,6.421-14.507,0.782c-5.737-5.639,5.287-35.383-22.693-37.507
						C1835.939,1051.093,1831.493,1062.493,1805.625,1054.577z"/>
					<path style="fill:#363E44;" d="M1852.196,1159.045c-1.077,0-2.017-0.788-2.179-1.883c-0.179-1.205,0.655-2.325,1.86-2.503
						c12.637-1.863,25.607-11.141,32.855-19.511c0.797-0.922,2.196-1.02,3.109-0.223c0.922,0.797,1.021,2.19,0.224,3.11
						c-7.779,8.984-21.788,18.957-35.546,20.986C1852.411,1159.037,1852.301,1159.045,1852.196,1159.045z"/>
					<path style="fill:#E2A18D;" d="M1886.973,1097.692c-3.271,7.113-2.61,20.867,4.503,24.137
						c7.113,3.271,17.984-5.181,21.255-12.293c3.271-7.113,0.156-15.53-6.957-18.801
						C1898.661,1087.464,1890.243,1090.579,1886.973,1097.692z"/>
					<g>
						<g>
							<path style="fill:#FFFFFF;" d="M1863.062,1081.474c-0.038,0.185,0.068,0.346,0.03,0.531
								c-0.001,0.008-0.005,0.013-0.007,0.021c0.302,2.636,0.627,5.416,1.406,7.951c0.345,1.123,1.026,1.797,1.471,2.818
								c0.326,0.749,0.635,1.467,0.987,2.192c6.679-5.721,9.638-13.495,9.638-13.495S1870.248,1080.172,1863.062,1081.474z"/>
							<path style="fill:#363E44;" d="M1854.857,1084.306c-9.069,4.916-13.421,14.739-14.108,16.403
								c0.087,0.115,0.177,0.228,0.268,0.34c2.019,0.37,12.429,1.951,21.352-2.886c1.673-0.907,3.172-1.989,4.531-3.149
								c0.157-0.705,0.281-1.422,0.334-2.164c0.313-4.384-1.333-8.447-4.181-11.362
								C1860.363,1081.989,1857.544,1082.85,1854.857,1084.306z"/>
						</g>
						<g>
							<path style="fill:#FFFFFF;" d="M1812.277,1095.64c-0.278,3.123,0.09,5.534,1.616,8.12c7.472,0.086,13.524-2.42,13.524-2.42
								s-5.155-8.354-13.877-12.627C1812.569,1090.808,1812.474,1093.423,1812.277,1095.64z"/>
							<path style="fill:#363E44;" d="M1813.734,1103.755c2.635-4.595,2.645-10.369-0.204-15.026
								c-0.982-0.472-1.998-0.909-3.072-1.262c-10.726-3.527-21.882,1.1-21.882,1.1s6.233,10.346,16.958,13.873
								C1808.307,1103.352,1811.104,1103.712,1813.734,1103.755z"/>
						</g>
					</g>
					<g>
						<path style="fill:#363E44;" d="M1905.182,1111.501c-0.304,0-0.611-0.063-0.906-0.197c-1.109-0.502-1.602-1.808-1.1-2.918
							c0.142-0.312,0.258-0.643,0.344-0.989c0.344-1.339,0.237-2.686-0.302-3.798c-0.476-0.987-1.242-1.66-2.155-1.894
							c-0.454-0.115-0.917-0.124-1.389-0.021c-1.189,0.253-2.364-0.497-2.623-1.689c-0.256-1.19,0.5-2.363,1.688-2.621
							c1.148-0.245,2.295-0.227,3.417,0.059c2.192,0.563,3.979,2.07,5.032,4.245c0.99,2.05,1.206,4.468,0.605,6.808
							c-0.149,0.586-0.351,1.166-0.601,1.717C1906.825,1111.019,1906.022,1111.501,1905.182,1111.501z"/>
					</g>
					<path style="fill:#363E44;" d="M1831.052,1117.676c-0.568,0-1.139-0.22-1.57-0.657c-1.544-1.566-2.334-3.257-2.347-5.023
						c-0.013-2,0.99-3.344,1.878-4.529c0.545-0.731,1.111-1.486,1.565-2.506c0.575-1.292,0.855-2.756,0.833-4.352
						c-0.017-1.218,0.958-2.218,2.175-2.235c0.011,0,0.022,0,0.03,0c1.204,0,2.188,0.968,2.205,2.175
						c0.03,2.238-0.379,4.327-1.217,6.206c-0.655,1.472-1.434,2.514-2.061,3.351c-0.743,0.994-1.003,1.383-0.999,1.858
						c0.004,0.721,0.588,1.463,1.077,1.958c0.855,0.868,0.846,2.263-0.021,3.118
						C1832.169,1117.465,1831.611,1117.676,1831.052,1117.676z"/>
					<path style="fill:#363E44;" d="M1841.553,1130.686c-1.193,0-2.59-0.26-4.179-0.976c-1.109-0.5-1.604-1.805-1.104-2.915
						c0.5-1.109,1.8-1.604,2.917-1.105c1.503,0.676,2.713,0.774,3.708,0.3c1.623-0.774,2.523-3.016,2.732-3.813
						c0.31-1.172,1.496-1.882,2.685-1.58c1.173,0.302,1.886,1.492,1.589,2.669c-0.125,0.493-1.324,4.876-5.073,6.688
						C1844.016,1130.346,1842.918,1130.686,1841.553,1130.686z"/>
				</g>
				<g>
					<path style="fill:#ff6900;" d="M1861.288,1031.42c0,0,33.863,34.428,81.479,42.796l12.493-81.208l3.811-24.798l4.879-31.7
						l-50.306,46.508l-16.391,15.156L1861.288,1031.42z"/>
					<g>
						<path style="fill:#BC8271;" d="M1944.665,981.579c0.459,5.917,4.966,10.565,10.595,11.429l3.811-24.798
							c-0.921-0.145-1.892-0.185-2.868-0.11C1949.295,968.637,1944.129,974.672,1944.665,981.579z"/>
						<path style="fill:#F2E6DC;" d="M1897.252,998.174c1.567,5.671,6.973,9.615,13.047,9.144
							c6.922-0.537,12.088-6.572,11.551-13.494c-0.392-5.055-3.731-9.173-8.207-10.805L1897.252,998.174z"/>
						
							<ellipse transform="matrix(0.6543 -0.7562 0.7562 0.6543 -117.2084 1813.4478)" style="fill:#FFFFFF;" cx="1925.034" cy="1034.932" rx="14.298" ry="14.298"/>
					</g>
				</g>
			</g>
		</g>
	</g>
</g>
</svg>
