<?xml version="1.0" encoding="utf-8"?>
<!-- Generator: Adobe Illustrator 27.5.0, SVG Export Plug-In . SVG Version: 6.00 Build 0)  -->
<svg version="1.1" xmlns="http://www.w3.org/2000/svg" xmlns:xlink="http://www.w3.org/1999/xlink" x="0px" y="0px"
	 viewBox="0 0 2500 2500" style="enable-background:new 0 0 2500 2500;" xml:space="preserve">
-
<g id="Illustration">
	<g id="Unemployment_insurance_1_">
		<circle style="fill:transparent;" cx="1250" cy="1250.42" r="914.581"/>
		<path style="fill:#FFFFFF;" d="M1356.833,2102.781c-0.011,0-0.022,0-0.032,0l-69.347-0.991c-0.583-0.009-1.141-0.249-1.547-0.668
			c-0.409-0.419-0.633-0.983-0.624-1.567l0.448-31.298c-9.558-2.893-18.778-6.865-27.449-11.827l-22.443,21.811
			c-0.42,0.407-0.934,0.656-1.569,0.623c-0.583-0.009-1.141-0.249-1.547-0.668l-48.333-49.736c-0.848-0.873-0.829-2.267,0.043-3.116
			l22.445-21.811c-4.713-8.809-8.419-18.137-11.038-27.776l-31.299-0.448c-1.216-0.017-2.189-1.018-2.172-2.235l0.99-69.347
			c0.009-0.584,0.25-1.142,0.667-1.55c0.422-0.407,1.007-0.583,1.569-0.623l31.297,0.448c2.895-9.562,6.868-18.781,11.83-27.448
			l-21.812-22.444c-0.409-0.419-0.633-0.982-0.624-1.567s0.25-1.142,0.667-1.55l49.736-48.334c0.874-0.848,2.271-0.83,3.116,0.045
			l21.812,22.443c8.811-4.712,18.138-8.419,27.776-11.037l0.448-31.298c0.009-0.584,0.25-1.142,0.667-1.55
			c0.422-0.407,0.971-0.614,1.569-0.623l69.347,0.992c1.216,0.017,2.189,1.018,2.172,2.235l-0.448,31.298
			c9.562,2.894,18.782,6.866,27.449,11.827l22.443-21.811c0.872-0.847,2.271-0.83,3.116,0.045l48.335,49.736
			c0.409,0.419,0.633,0.982,0.624,1.567c-0.009,0.584-0.25,1.142-0.667,1.55l-22.445,21.811c4.715,8.814,8.422,18.143,11.036,27.775
			l31.299,0.448c1.216,0.017,2.189,1.018,2.172,2.235l-0.99,69.347c-0.009,0.584-0.25,1.142-0.667,1.55
			c-0.422,0.408-0.906,0.621-1.569,0.623l-31.297-0.448c-2.895,9.559-6.865,18.778-11.828,27.449l21.81,22.445
			c0.848,0.873,0.828,2.267-0.043,3.116l-49.736,48.334c-0.422,0.407-0.915,0.643-1.569,0.623c-0.583-0.009-1.141-0.249-1.547-0.668
			l-21.81-22.443c-8.815,4.713-18.143,8.42-27.778,11.037l-0.448,31.297C1359.02,2101.815,1358.036,2102.781,1356.833,2102.781z
			 M1289.722,2097.414l64.939,0.929l0.439-30.764c0.015-0.993,0.691-1.854,1.653-2.103c10.399-2.683,20.445-6.675,29.861-11.865
			c0.865-0.481,1.95-0.32,2.643,0.394l21.44,22.061l46.575-45.262l-21.438-22.063c-0.693-0.712-0.822-1.799-0.318-2.655
			c5.456-9.257,9.732-19.185,12.713-29.506c0.275-0.956,1.052-1.569,2.15-1.593l30.765,0.44l0.925-64.939l-30.765-0.44
			c-0.992-0.014-1.853-0.692-2.103-1.654c-2.68-10.395-6.67-20.44-11.863-29.857c-0.48-0.87-0.318-1.953,0.394-2.645l22.062-21.439
			l-45.264-46.576l-22.06,21.44c-0.717,0.692-1.801,0.822-2.656,0.317c-9.254-5.455-19.182-9.732-29.506-12.714
			c-0.956-0.277-1.606-1.156-1.593-2.149l0.439-30.765l-64.939-0.929l-0.439,30.765c-0.015,0.993-0.691,1.854-1.653,2.103
			c-10.401,2.684-20.448,6.676-29.859,11.865c-0.865,0.481-1.95,0.321-2.643-0.394l-21.442-22.061l-46.575,45.262l21.44,22.062
			c0.693,0.712,0.822,1.799,0.318,2.655c-5.456,9.255-9.734,19.182-12.715,29.506c-0.278,0.954-1.19,1.613-2.15,1.593l-30.765-0.44
			l-0.925,64.939l30.765,0.44c0.992,0.014,1.853,0.692,2.103,1.653c2.684,10.404,6.674,20.45,11.865,29.859
			c0.48,0.87,0.318,1.952-0.394,2.645l-22.062,21.439l45.262,46.576l22.06-21.44c0.717-0.692,1.799-0.822,2.656-0.317
			c9.259,5.456,19.186,9.734,29.506,12.713c0.956,0.275,1.608,1.156,1.593,2.149L1289.722,2097.414z M1324.469,2015.099
			c-0.366,0-0.727-0.002-1.093-0.007c-19.866-0.284-38.435-8.288-52.282-22.539c-28.587-29.415-27.913-76.602,1.502-105.19
			c14.252-13.847,33.064-21.311,52.906-21.033c19.869,0.284,38.435,8.288,52.282,22.537c13.849,14.249,21.319,33.039,21.035,52.906
			c-0.284,19.868-8.288,38.435-22.537,52.283C1362.293,2007.651,1343.931,2015.099,1324.469,2015.099z M1324.413,1870.731
			c-18.313,0-35.586,7.005-48.744,19.794c-27.672,26.893-28.307,71.285-1.416,98.957c13.029,13.405,30.496,20.935,49.185,21.202
			c18.674,0.283,36.367-6.76,49.771-19.788l0,0c13.406-13.027,20.936-30.494,21.203-49.184c0.267-18.692-6.76-36.367-19.787-49.773
			c-13.027-13.405-30.494-20.934-49.185-21.201C1325.097,1870.733,1324.753,1870.731,1324.413,1870.731z"/>
		<g>
			<g>
				<path style="fill:#E6D0BE;" d="M937.122,1570.422c-0.603,0-1.203-0.246-1.638-0.731
					c-85.77-95.368-161.08-204.126-223.839-323.251c-50.203-95.289-92.534-197.386-125.817-303.458
					c-56.677-180.623-67.571-311.939-67.674-313.244c-0.095-1.214,0.809-2.275,2.023-2.372c1.231-0.09,2.275,0.811,2.372,2.023
					c0.103,1.302,10.974,132.222,67.524,312.398c52.177,166.243,155.026,409.615,348.688,624.957
					c0.816,0.905,0.74,2.297-0.164,3.112C938.174,1570.236,937.647,1570.422,937.122,1570.422z"/>
				<path style="fill:#E6D0BE;" d="M532.221,714.943c0,0-78.478-54.941-33.432-237.213
					C498.79,477.729,622.741,614.794,532.221,714.943z"/>
				<path style="fill:#E6D0BE;" d="M535.638,785.109c2.284-0.517-39.551-85.725-177.048-100.726
					C358.59,684.383,450.53,804.359,535.638,785.109z"/>
				<path style="fill:#E6D0BE;" d="M555.368,882.804c0,0-55.597-60.251-204.666-38.302
					C350.702,844.502,503.111,931.319,555.368,882.804z"/>
				<path style="fill:#E6D0BE;" d="M592.531,992.018c1.619-1.691-80.313-49.654-203.247,13.716
					C389.284,1005.734,532.193,1055.036,592.531,992.018z"/>
				<path style="fill:#E6D0BE;" d="M622.837,1074.787c0,0-72.189-13.312-167.695,82.038
					C455.142,1156.825,611.169,1137.365,622.837,1074.787z"/>
				<path style="fill:#E6D0BE;" d="M554.067,785.535c-2.041,0.382,2.034-83.688,108.678-144.248
					C662.745,641.286,630.117,771.275,554.067,785.535z"/>
				<path style="fill:#E6D0BE;" d="M581.106,877.631c0,0,27.13-77.355,172.679-116.321
					C753.786,761.31,648.325,901.443,581.106,877.631z"/>
				<path style="fill:#E6D0BE;" d="M622.123,991.311c-2.157-0.91,54.023-77.43,192.015-68.008
					C814.138,923.303,702.515,1025.233,622.123,991.311z"/>
				<path style="fill:#E6D0BE;" d="M648.017,1071.761c0,0,60.985-40.847,186.489,8.808
					C834.506,1080.569,683.557,1124.579,648.017,1071.761z"/>
			</g>
			<g>
				<path style="fill:#E6D0BE;" d="M887.256,1650.335c-0.293,0-0.588-0.058-0.872-0.181
					c-163.672-70.422-283.801-179.867-355.758-259.279c-77.97-86.05-117.788-156.419-118.181-157.119
					c-0.596-1.061-0.217-2.405,0.844-3c1.057-0.595,2.402-0.219,3,0.844c0.392,0.697,40.024,70.717,117.693,156.413
					c71.65,79.056,191.251,188.005,354.146,258.093c1.117,0.481,1.633,1.777,1.154,2.895
					C888.922,1649.835,888.108,1650.335,887.256,1650.335z"/>
				<path style="fill:#E6D0BE;" d="M442.889,1277.147c0,0-57.778-10.441-79.497-123.436
					C363.392,1153.711,467.557,1198.189,442.889,1277.147z"/>
				<path style="fill:#E6D0BE;" d="M462.802,1315.319c1.138-0.873-44.016-37.56-124.387-10.632
					C338.415,1304.687,420.379,1347.867,462.802,1315.319z"/>
				<path style="fill:#E6D0BE;" d="M498.86,1364.626c0,0-46.407-19.267-123.732,31.193
					C375.128,1395.82,482.232,1405.033,498.86,1364.626z"/>
				<path style="fill:#E6D0BE;" d="M547.576,1415.872c0.467-1.356-57.441-7.029-109.59,59.778
					C437.987,1475.649,530.174,1466.423,547.576,1415.872z"/>
				<path style="fill:#E6D0BE;" d="M585.689,1454.159c0,0-43.592,11.112-72.267,88.68
					C513.422,1542.838,595.259,1491.978,585.689,1454.159z"/>
				<path style="fill:#E6D0BE;" d="M473.167,1310.828c-1.038,0.737-20.35-47.095,23.453-108.159
					C496.621,1202.669,511.83,1283.381,473.167,1310.828z"/>
				<path style="fill:#E6D0BE;" d="M511.856,1355.144c0,0-4.758-50.01,66.24-109.037
					C578.096,1246.107,555.377,1351.15,511.856,1355.144z"/>
				<path style="fill:#E6D0BE;" d="M563.864,1407.886c-1.434,0.047,10.189-56.951,89.402-87.111
					C653.266,1320.775,617.311,1406.139,563.864,1407.886z"/>
				<path style="fill:#E6D0BE;" d="M598.925,1446.015c0,0,23.454-38.378,106.045-42.944
					C704.971,1403.071,632.262,1466.291,598.925,1446.015z"/>
			</g>
		</g>
		<g>
			
				<rect x="651.434" y="538.027" transform="matrix(1 0.0011 -0.0011 1 1.3093 -1.282)" style="fill:#E6D0BE;" width="1047.057" height="1321.25"/>
			<path style="fill:#363E44;" d="M1727.544,1891.892h-0.002l-1047.057-1.143c-1.218-0.001-2.204-0.989-2.202-2.206l1.442-1321.249
				c0-0.584,0.232-1.145,0.648-1.558c0.413-0.412,0.973-0.643,1.556-0.643h0.002l1047.059,1.143
				c0.585,0.001,1.145,0.234,1.558,0.647c0.413,0.414,0.644,0.975,0.644,1.559l-1.444,1321.249
				C1729.746,1890.906,1728.76,1891.892,1727.544,1891.892z M682.694,1886.343l1042.649,1.139l1.44-1316.841l-1042.651-1.139
				L682.694,1886.343z"/>
			<g>
				<path style="fill:#363E44;" d="M1175.768,595.783c-0.052,0-0.095,0-0.146,0c-34.83-0.038-67.558-13.636-92.16-38.291
					c-24.601-24.655-38.13-57.414-38.091-92.243c0.08-71.846,58.564-130.25,130.391-130.25c0.052,0,0.093,0,0.144,0
					c71.897,0.079,130.328,58.635,130.248,130.534c-0.039,34.829-13.636,67.558-38.291,92.16
					C1243.244,582.258,1210.54,595.783,1175.768,595.783z M1175.761,339.408c-69.405,0-125.908,56.425-125.983,125.846
					c-0.037,33.652,13.033,65.304,36.802,89.125c23.771,23.821,55.394,36.96,89.046,36.997c0.047,0,0.095,0,0.142,0
					c33.597,0,65.193-13.067,88.981-36.803c23.822-23.768,36.961-55.392,36.998-89.043c0.075-69.468-56.378-126.045-125.845-126.122
					C1175.854,339.408,1175.807,339.408,1175.761,339.408z"/>
				<path style="fill:#363E44;" d="M1175.766,566.649c-0.041,0-0.073,0-0.114,0c-27.046-0.029-52.463-10.59-71.568-29.735
					c-19.105-19.147-29.609-44.586-29.579-71.632c0.063-55.797,45.475-101.148,101.257-101.148c0.039,0,0.075,0,0.112,0
					c55.833,0.061,101.209,45.535,101.147,101.369C1276.958,521.296,1231.543,566.649,1175.766,566.649z M1175.761,368.541
					c-53.358,0-96.791,43.374-96.849,96.745c-0.028,25.87,10.018,50.202,28.292,68.515c18.272,18.312,42.583,28.413,68.452,28.441
					c0.037,0,0.073,0,0.11,0c53.352,0,96.789-43.377,96.847-96.744l2.204,0.002l-2.204-0.002
					c0.058-53.404-43.34-96.898-96.744-96.957C1175.837,368.541,1175.796,368.541,1175.761,368.541z"/>
				
					<rect x="996.462" y="504.372" transform="matrix(1 0.0011 -0.0011 1 0.6381 -1.2832)" style="fill:#D3BBA3;" width="358.344" height="158.832"/>
			</g>
			<g>
				<polygon style="fill:#F2E6DC;" points="1643.781,1791.568 704.85,1790.543 706.143,605.734 1383.408,606.474 1383.138,853.811 
					1644.803,855.451 				"/>
				<polygon style="fill:#E6D0BE;" points="1552.196,895.764 1141.215,895.315 1141.405,720.734 1403.346,721.02 1552.291,808.474 
									"/>
				
					<rect x="1319.853" y="750.91" transform="matrix(0.0011 -1 1 0.0011 388.7686 2301.9944)" style="fill:#E6D0BE;" width="53.571" height="410.981"/>
				<polygon style="fill:#F7F1EB;" points="1644.804,854.774 1383.138,854.489 1383.408,606.474 				"/>
				
					<rect x="928.075" y="1253.271" transform="matrix(1 0.0011 -0.0011 1 1.4267 -1.3562)" style="fill:#F7F1EB;" width="629.941" height="105.948"/>
				
					<rect x="931.61" y="1083.688" transform="matrix(1 0.0011 -0.0011 1 1.2416 -1.3602)" style="fill:#F7F1EB;" width="629.941" height="105.948"/>
				
					<rect x="921.659" y="1595.304" transform="matrix(1 0.0011 -0.0011 1 1.8001 -1.349)" style="fill:#F7F1EB;" width="629.941" height="105.948"/>
				
					<rect x="925.193" y="1425.72" transform="matrix(1 0.0011 -0.0011 1 1.6148 -1.3528)" style="fill:#F7F1EB;" width="629.941" height="105.948"/>
				
					<rect x="799.756" y="719.654" transform="matrix(1 -0.0025 0.0025 1 -2.1344 2.3416)" style="fill:#D3BBA3;" width="259.739" height="259.739"/>
				<g>
					
						<ellipse transform="matrix(0.0179 -0.9998 0.9998 0.0179 -306.6575 1950.147)" style="fill:#ff6900;" cx="839.34" cy="1131.169" rx="39.662" ry="39.662"/>
					<polygon style="fill:#FFFFFF;" points="834.983,1153.946 817.285,1133.885 824.608,1126.621 834.741,1138.022 
						854.151,1116.172 861.825,1123.022 					"/>
				</g>
				<g>
					<polygon style="fill:#FFFFFF;" points="932.413,858.941 799.952,885.327 800.083,979.72 1059.821,979.067 1059.623,885.211 
											"/>
					<g>
						
							<rect x="868.764" y="679.326" transform="matrix(0.9947 -0.1024 0.1024 0.9947 -69.2242 98.5641)" style="fill:#363E44;" width="112.432" height="87.806"/>
						<path style="fill:#84524D;" d="M972.311,759.455c-4.67,12.342-1.785,24.87,6.443,27.984
							c8.228,3.113,18.684-4.368,23.353-16.71c4.669-12.342,1.785-24.871-6.443-27.984
							C987.436,739.632,976.98,747.114,972.311,759.455z"/>
						<path style="fill:#84524D;" d="M884.228,764.377c6.015,11.745,4.544,24.517-3.286,28.527
							c-7.83,4.01-19.054-2.26-25.069-14.005c-6.015-11.745-4.544-24.517,3.286-28.527
							C866.989,746.361,878.212,752.632,884.228,764.377z"/>
						<path style="fill:#84524D;" d="M964.292,874.089l6.108-77.385l-77.096-2.487l-1.039,79.872
							C893.217,875.041,962.195,876.947,964.292,874.089z"/>
						<path style="fill:#84524D;" d="M871.111,752.235c1.737,31.093,20.647,79.398,60.786,77.155
							c40.14-2.243,53.55-52.353,51.813-83.446s-28.531-46.724-59.624-44.987C892.993,702.694,869.374,721.141,871.111,752.235z"/>
						<path style="fill:#363E44;" d="M983.462,744.451c-3.949,14.963-7.69,30.523-14.223,38.077
							c-1.657,3.051-12.118,5.767-15.585,5.969l-49.076,3.648c-8.44,0.492-16.3-4.119-20.227-11.606l-13.181-30.673l10.072,43.232
							c0.071,0.283,1.908,7.803,1.99,8.083c17.288,70.489,87.146,65.019,95.522-13.742l-0.271,1.928L983.462,744.451z"/>
						<path style="fill:#363E44;" d="M868.799,784.693c-0.364,0-0.732-0.089-1.072-0.28c-2.923-1.631-5.503-4.425-7.266-7.865
							c-3.848-7.515-2.651-15.559,2.725-18.313c0.57-0.293,1.179-0.516,1.808-0.666c1.188-0.28,2.372,0.449,2.654,1.633
							c0.282,1.184-0.45,2.372-1.633,2.654c-0.284,0.068-0.56,0.17-0.818,0.301c-3.071,1.574-3.443,7.243-0.813,12.381
							c1.371,2.673,3.321,4.813,5.492,6.026c1.063,0.593,1.444,1.935,0.85,2.998C870.323,784.286,869.572,784.693,868.799,784.693z"
							/>
						<path style="fill:#363E44;" d="M989.156,777.969c-0.687,0-1.365-0.32-1.795-0.921c-0.708-0.99-0.48-2.366,0.51-3.074
							c2.023-1.448,3.721-3.792,4.784-6.601c1.048-2.768,1.332-5.726,0.783-8.115c-0.282-1.217-1.039-3.368-2.968-4.098
							c-0.271-0.103-0.555-0.173-0.848-0.209c-1.209-0.15-2.066-1.249-1.918-2.458c0.148-1.207,1.281-2.049,2.456-1.917
							c0.646,0.08,1.276,0.236,1.872,0.463c2.85,1.077,4.875,3.646,5.699,7.23c0.751,3.263,0.413,7.049-0.953,10.664
							c-1.369,3.612-3.62,6.676-6.342,8.624C990.05,777.835,989.6,777.969,989.156,777.969z"/>
						<path style="fill:#363E44;" d="M929.671,832.648c-14.846,0-27.145-9.001-36.324-17.01c-0.917-0.799-1.012-2.192-0.213-3.109
							c0.805-0.917,2.195-1.011,3.11-0.212c9.06,7.903,21.285,16.855,35.674,15.844c14.359-1,25.144-10.952,33.797-20.556
							c0.818-0.907,2.208-0.976,3.114-0.161c0.904,0.815,0.975,2.208,0.161,3.112c-8.706,9.658-20.751,20.888-36.767,22.003
							C931.365,832.618,930.515,832.648,929.671,832.648z"/>
						<path style="fill:#363E44;" d="M928.399,789.514c-0.312,0-0.628-0.066-0.93-0.207c-3.362-1.569-5.324-3.594-5.839-6.018
							c-0.467-2.218,0.409-3.905,1.259-5.535c0.536-1.033,1.091-2.102,1.459-3.507c0.538-2.05,0.523-4.261-0.041-6.573
							c-0.288-1.183,0.437-2.375,1.618-2.663c1.179-0.285,2.376,0.436,2.664,1.62c0.738,3.029,0.747,5.967,0.024,8.732
							c-0.495,1.885-1.227,3.293-1.814,4.424c-0.725,1.393-0.986,1.977-0.857,2.591c0.205,0.969,1.41,2.011,3.39,2.936
							c1.104,0.515,1.58,1.826,1.065,2.929C930.024,789.044,929.23,789.514,928.399,789.514z"/>
						<path style="fill:#363E44;" d="M886.374,696.705c-2.924,7.68-11.52,11.535-19.2,8.611c-7.68-2.924-11.535-11.52-8.611-19.2
							c2.924-7.68,11.52-11.535,19.2-8.611C885.443,680.429,889.298,689.025,886.374,696.705z"/>
						<path style="fill:#363E44;" d="M880.864,710.547c-2.122,5.574-8.362,8.372-13.936,6.25c-5.574-2.122-8.372-8.362-6.25-13.936
							c2.122-5.574,8.362-8.372,13.936-6.25C880.188,698.734,882.986,704.973,880.864,710.547z"/>
						<path style="fill:#363E44;" d="M989.06,711.327c-1.661,4.363-6.545,6.553-10.908,4.892c-4.363-1.661-6.553-6.545-4.892-10.908
							c1.661-4.363,6.545-6.553,10.908-4.892C988.532,702.08,990.722,706.964,989.06,711.327z"/>
						<path style="fill:#363E44;" d="M987.647,694.406c-2.097,5.508-8.263,8.273-13.771,6.176
							c-5.508-2.097-8.273-8.263-6.176-13.771c2.097-5.508,8.263-8.273,13.771-6.176
							C986.979,682.732,989.744,688.898,987.647,694.406z"/>
						<path style="fill:#363E44;" d="M904.367,681.638c-3.57,9.377-14.066,14.084-23.443,10.514
							c-9.377-3.57-14.084-14.066-10.513-23.442c3.57-9.377,14.066-14.084,23.443-10.514
							C903.23,661.766,907.937,672.261,904.367,681.638z"/>
						<path style="fill:#363E44;" d="M976.671,674.881c0.982,10.874-10.668,16.774-18.664,10.395
							c-2.635-2.102-4.143-5.205-4.084-8.575c0.181-10.48,12.438-15.541,20.038-7.682
							C975.493,670.606,976.472,672.684,976.671,674.881z"/>
						<path style="fill:#363E44;" d="M952.652,677.813c-3.57,9.377-14.066,14.084-23.443,10.513
							c-9.377-3.57-14.084-14.066-10.513-23.442c3.57-9.377,14.066-14.084,23.442-10.513
							C951.516,657.941,956.222,668.437,952.652,677.813z"/>
						<path style="fill:#363E44;" d="M943.658,701.137c-2.23,5.858-8.787,8.798-14.645,6.568c-5.858-2.23-8.798-8.787-6.568-14.645
							c2.23-5.858,8.787-8.798,14.645-6.568C942.947,688.723,945.888,695.279,943.658,701.137z"/>
						<path style="fill:#363E44;" d="M906.719,702.519c-2.827,7.425-11.138,11.152-18.563,8.325
							c-7.425-2.827-11.152-11.138-8.325-18.563c2.827-7.425,11.138-11.152,18.563-8.325
							C905.818,686.783,909.546,695.094,906.719,702.519z"/>
						<path style="fill:#363E44;" d="M927.809,674.423c-3.57,9.377-14.066,14.084-23.442,10.513
							c-9.377-3.57-14.084-14.066-10.514-23.442c3.57-9.377,14.066-14.084,23.443-10.513
							C926.672,654.551,931.379,665.047,927.809,674.423z"/>
						<path style="fill:#363E44;" d="M923.716,704.602c-1.981,5.204-7.806,7.816-13.01,5.835c-5.204-1.981-7.816-7.806-5.835-13.01
							c1.981-5.204,7.806-7.816,13.01-5.835C923.085,693.573,925.698,699.398,923.716,704.602z"/>
						<g>
							<path style="fill:#FFFFFF;" d="M966.006,748.025l0,0.002l-0.144-0.003c-0.052,0.304-0.222,0.699-0.537,0.714
								c-0.341,0.476-0.457,1.211-0.673,1.707c-0.388,0.892-1.747,0.232-1.359-0.658c0.261-0.599-1.694,0.662-2.562,1.076
								c-2.769,1.322-5.586,2.517-8.447,3.626c-1.334,0.517-2.669,1.045-4.02,1.516c-1.083,0.377-4.645,1.815-4.948,1.666
								c-3.456,3.701-5.259,7.084-5.259,7.084s5.527,1.952,12.457,1.778c0.012-0.094,0.027-0.187,0.036-0.282
								c0.088-0.939,15.71-5.942,16.195-5.269c6.4-4.819,9.804-11.179,9.804-11.179S972.012,748.198,966.006,748.025z"/>
							<path style="fill:#363E44;" d="M954.42,749.858c-4.667,1.813-8.389,4.905-11.097,7.804c0.596,2.954,2.24,5.707,4.862,7.628
								c0.675,0.495,1.385,0.908,2.116,1.25c3.126-0.06,6.547-0.547,9.883-1.843c2.413-0.937,4.559-2.224,6.458-3.642
								c2.233-4.191,1.866-9.233-0.78-13.031C962.337,747.937,958.323,748.342,954.42,749.858z"/>
						</g>
						<g>
							<path style="fill:#FFFFFF;" d="M886.961,754.353l0.001,0.003l0.141-0.026c0.099,0.291,0.327,0.653,0.639,0.619
								c0.409,0.415,0.637,1.121,0.927,1.574c0.521,0.817,1.754-0.042,1.235-0.858c-0.35-0.549,1.769,0.388,2.688,0.661
								c2.929,0.87,5.886,1.609,8.872,2.256c1.392,0.302,2.787,0.614,4.19,0.867c1.124,0.203,4.852,1.064,5.127,0.871
								c3.974,3.104,6.273,6.153,6.273,6.153s-5.134,2.778-11.979,3.682c-0.027-0.091-0.055-0.18-0.079-0.272
								c-0.232-0.909-16.377-3.407-16.75-2.67c-7.044-3.748-11.38-9.476-11.38-9.476S881.08,755.455,886.961,754.353z"/>
							<path style="fill:#363E44;" d="M898.643,754.358c4.873,1.059,9.014,3.523,12.128,5.955c-0.128,2.999-1.317,5.961-3.599,8.259
								c-0.588,0.591-1.221,1.108-1.888,1.558c-3.084,0.427-6.525,0.478-10.009-0.279c-2.519-0.547-4.831-1.48-6.918-2.58
								c-2.847-3.777-3.269-8.794-1.255-12.941C890.557,753.697,894.569,753.473,898.643,754.358z"/>
						</g>
						<path style="fill:#84524D;" d="M931.227,812.157c-4.371,0-7.97-2.365-10.632-5.026c-0.861-0.861-0.861-2.257,0-3.117
							c0.861-0.861,2.255-0.86,3.116-0.001c5.135,5.132,10.107,5.004,16.115-0.413c0.904-0.815,2.294-0.745,3.114,0.161
							c0.814,0.904,0.742,2.297-0.161,3.112C938.508,810.721,934.632,812.157,931.227,812.157z"/>
						<path style="fill:#84524D;" d="M945.532,704.155c-0.194,0-0.39-0.026-0.585-0.08c-1.173-0.322-1.864-1.534-1.543-2.708
							l8.456-30.838c0.323-1.174,1.532-1.863,2.71-1.542c1.173,0.322,1.864,1.535,1.543,2.709l-8.456,30.838
							C947.387,703.512,946.499,704.155,945.532,704.155z"/>
					</g>
					<path style="fill:#363E44;" d="M891.121,873.517l74.314,0.762l-39.371,44.584c-0.276,0.289-0.742,0.274-0.998-0.032
						L891.121,873.517z"/>
					<polygon style="fill:#363E44;" points="916.75,897.431 909.604,979.747 945.618,979.176 939.33,897.717 					"/>
				</g>
				<g>
					
						<ellipse transform="matrix(0.9899 -0.1416 0.1416 0.9899 -175.3413 132.3408)" style="fill:#E6D0BE;" cx="842.273" cy="1298.274" rx="39.662" ry="39.662"/>
					<polygon style="fill:#FFFFFF;" points="839.39,1319.231 821.692,1299.171 829.015,1291.907 839.149,1303.308 858.558,1281.458 
						866.232,1288.307 					"/>
				</g>
				<g>
					
						<ellipse transform="matrix(0.0891 -0.996 0.996 0.0891 -706.6074 2182.6404)" style="fill:#E6D0BE;" cx="839.96" cy="1477.627" rx="39.662" ry="39.662"/>
					<polygon style="fill:#FFFFFF;" points="837.187,1497.74 819.488,1477.679 826.811,1470.416 836.945,1481.816 856.354,1459.966 
						864.029,1466.816 					"/>
				</g>
				<g>
					
						<ellipse transform="matrix(0.0334 -0.9994 0.9994 0.0334 -836.2968 2430.7097)" style="fill:#E6D0BE;" cx="838.553" cy="1647.729" rx="39.662" ry="39.662"/>
					<polygon style="fill:#FFFFFF;" points="836.085,1665.229 818.386,1645.168 825.709,1637.905 835.843,1649.306 
						855.253,1627.456 862.927,1634.305 					"/>
				</g>
			</g>
		</g>
		<g>
			<path style="fill:#363E44;" d="M2157.235,2162.062c-152.063,2.938-438.558,1.469-539.933,0l27.601-264.092h490.245
				L2157.235,2162.062z"/>
			<g>
				<g>
					<g>
						<polygon style="fill:#84524D;" points="1399.675,1525.36 1672.682,1510.784 1662.331,1328.445 1399.675,1370.473 						"/>
						<g>
							<path style="fill:#84524D;" d="M1486.885,1443.801c0,0-185.69-211.753-209.702-237.801
								c-2.514-2.727-6.931-7.562-14.161-12.056c-26.786-16.653-49.265-1.946-85.424-6.611
								c-41.029-5.293-61.134-31.49-68.919-24.352c-5.415,4.965-0.615,16.981,17.309,35.931l-0.003,0.003
								c-15.274-12.833-36.748-29.333-43.819-20.877c-7.642,10.201,15.31,32.549,29.856,45.389
								c-17.607-15.543-31.621-18.543-34.388-12.846c-4.356,8.968,6.489,24.198,30.556,43.837l-0.001,0.002
								c-20.408-8.921-26.689-8.045-27.906-2.413c-2.223,10.283,17.867,26.057,37.767,37.281
								c22.401,12.635,44.161,14.667,57.911,15.622l0.009,0.005c66.94,91.971,70.199,87.839,122.024,163.719
								C1347.235,1540.732,1463.708,1555.961,1486.885,1443.801z"/>
							<path style="fill:#84524D;" d="M1209.767,1199.343c-25.363-32.112-27.702-49.067-22.483-52.922
								c8.778-6.483,41.66,12.074,84.643,54.338C1254.574,1201.917,1227.12,1198.186,1209.767,1199.343z"/>
							<g>
								<path style="fill:#363E44;" d="M1228.44,1267.094c-0.652,0-1.298-0.288-1.735-0.84
									c-4.309-5.472-11.906-12.814-23.633-16.712c-16.602-5.514-31.131-0.478-36.61,1.944c-1.119,0.494-2.413-0.012-2.908-1.125
									c-0.491-1.114,0.013-2.415,1.126-2.906c5.946-2.63,21.73-8.095,39.783-2.095c12.765,4.242,21.024,12.22,25.708,18.166
									c0.751,0.957,0.588,2.342-0.37,3.095C1229.397,1266.94,1228.915,1267.094,1228.44,1267.094z"/>
								<path style="fill:#363E44;" d="M1201.568,1191.712c-1.164,0-2.135-0.911-2.199-2.086c-0.065-1.216,0.869-2.253,2.085-2.318
									c4.857-0.258,9.491-0.707,13.97-1.141c9.691-0.936,18.844-1.823,27.963-0.512c1.203,0.173,2.04,1.29,1.868,2.494
									c-0.172,1.205-1.263,2.039-2.496,1.868c-8.591-1.233-17.491-0.372-26.908,0.537c-4.528,0.438-9.209,0.891-14.163,1.155
									C1201.647,1191.711,1201.607,1191.712,1201.568,1191.712z"/>
								<path style="fill:#363E44;" d="M1160.647,1214.764c-0.123,0-0.248-0.01-0.372-0.031c-5.045-0.858-10.029-2.189-14.818-3.953
									c-6.951-2.564-13.543-6.057-19.598-10.383c-0.99-0.707-1.22-2.083-0.512-3.074c0.708-0.988,2.085-1.219,3.073-0.511
									c5.735,4.097,11.979,7.406,18.56,9.833c4.535,1.671,9.256,2.931,14.034,3.744c1.199,0.204,2.006,1.342,1.801,2.542
									C1162.635,1214.004,1161.701,1214.764,1160.647,1214.764z"/>
								<path style="fill:#363E44;" d="M1144.473,1237.183c-0.123,0-0.247-0.01-0.372-0.031c-5.045-0.858-10.029-2.189-14.818-3.953
									c-6.943-2.56-13.537-6.053-19.6-10.382c-0.99-0.707-1.22-2.084-0.512-3.074c0.706-0.99,2.085-1.218,3.073-0.513
									c5.744,4.102,11.99,7.41,18.562,9.833c4.535,1.672,9.256,2.932,14.034,3.745c1.199,0.204,2.006,1.342,1.801,2.542
									C1146.462,1236.423,1145.528,1237.183,1144.473,1237.183z"/>
								<path style="fill:#363E44;" d="M1142.295,1270.736c-0.123,0-0.247-0.01-0.372-0.031c-5.045-0.858-10.029-2.189-14.818-3.953
									c-6.949-2.563-13.541-6.056-19.597-10.381c-0.99-0.708-1.22-2.084-0.512-3.074c0.708-0.99,2.085-1.219,3.073-0.512
									c5.736,4.097,11.981,7.404,18.56,9.832c4.535,1.671,9.256,2.931,14.034,3.744c1.199,0.204,2.006,1.342,1.801,2.542
									C1144.284,1269.977,1143.35,1270.736,1142.295,1270.736z"/>
							</g>
						</g>
					</g>
				</g>
				<g>
					<path style="fill:#FFFFFF;" d="M2091.583,1577.775c0,0,60.974-284.796-166.998-273.473
						c-109.942,5.461-272.447,10.797-453.112,51.979l49.69,177.725l32.662,0.001l77.518,415.596h530.87L2091.583,1577.775z"/>
					<path style="fill:#363E44;" d="M1859.45,1494.553c-0.209,0-0.422-0.03-0.633-0.094c-1.166-0.35-1.827-1.578-1.479-2.744
						l34.602-115.512c0.349-1.165,1.571-1.83,2.744-1.479c1.166,0.35,1.827,1.578,1.478,2.744l-34.602,115.512
						C1861.275,1493.935,1860.399,1494.553,1859.45,1494.553z"/>
				</g>
				<g>
					<polygon style="fill:#363E44;" points="1716.105,1326.451 1824.477,1324.173 1766.892,1384.119 					"/>
					<polygon style="fill:#363E44;" points="1777.679,1357.233 1766.891,1357.233 1756.105,1357.233 1732.273,1659.646 
						1766.891,1694.685 1801.511,1659.646 					"/>
				</g>
				<g>
					<g>
						<rect x="1278.94" y="1562.095" style="fill:#D3BBA3;" width="58.092" height="240.669"/>
						<rect x="1344.294" y="1563.132" style="fill:#D3BBA3;" width="58.092" height="240.669"/>
						<rect x="1406.536" y="1562.095" style="fill:#D3BBA3;" width="33.196" height="240.669"/>
						<rect x="1445.956" y="1562.095" style="fill:#D3BBA3;" width="33.196" height="240.669"/>
					</g>
					<rect x="1263.38" y="1640.934" style="fill:#EFBC73;" width="462.665" height="266.22"/>
					<g>
						<g>
							<path style="fill:#ff6900;" d="M1347.313,1436.644l100.091-18.151l-133.101-39.993
								c-24.737-55.526-32.952-107.972-32.952-107.972s23.78-1.356,57.895,2.085l60.686,101.92l-5.566-92.887
								c28.23,6.553,58.289,16.792,85.796,32.74c3.869,2.243,7.578,4.572,11.137,6.976l12.564,140.478l36.589-89.005
								c23.564,40.55,21.827,84.734,0.84,110.334c-32.191,39.265-114.927,41.649-177.704-26.591
								C1357.794,1450.279,1352.379,1443.591,1347.313,1436.644z"/>
							<path style="fill:#776E42;" d="M1339.246,1272.613c16.468,1.661,35.341,4.442,55.12,9.033l5.566,92.887L1339.246,1272.613z"
								/>
							<path style="fill:#776E42;" d="M1491.3,1321.362c22.133,14.948,38.318,32.826,49.154,51.474l-36.589,89.005L1491.3,1321.362z
								"/>
							<path style="fill:#776E42;" d="M1347.313,1436.644c-13.338-18.295-24.219-38.412-33.01-58.144l133.101,39.993
								L1347.313,1436.644z"/>
						</g>
						<path style="fill:#776E42;" d="M1569.236,1618.598c-1.07,0-2.008-0.779-2.176-1.868
							c-7.941-51.601-27.61-101.437-56.877-144.118c-24.24-35.35-54.579-65.654-90.171-90.07c-1.005-0.689-1.259-2.061-0.57-3.065
							c0.687-1.003,2.062-1.257,3.063-0.57c36.042,24.725,66.766,55.413,91.316,91.213c29.637,43.224,49.553,93.689,57.596,145.939
							c0.185,1.203-0.639,2.329-1.842,2.514C1569.46,1618.589,1569.348,1618.598,1569.236,1618.598z"/>
						<g>
							<path style="fill:#776E42;" d="M1524.535,1405.067l63.563,28.943l-62.357-82.507c5.036-48.344,18.464-87.74,18.464-87.74
								s14.079,8.906,32.416,25.379l-0.498,95.059l28.924-66.059c13.892,16.175,27.558,35.636,37.788,57.961
								c1.439,3.14,2.757,6.273,3.963,9.395l-41.37,101.619l51.71-45.956c-0.531,37.58-16.799,67.189-37.66,76.079
								c-31.998,13.635-80.177-18.952-92.518-91.758C1525.82,1418.761,1525.033,1411.931,1524.535,1405.067z"/>
							<path style="fill:#ff6900;" d="M1576.621,1289.142c8.852,7.952,18.692,17.668,28.426,29l-28.924,66.059L1576.621,1289.142z"
								/>
							<path style="fill:#ff6900;" d="M1646.798,1385.499c7.501,19.415,10.584,38.381,10.34,55.663l-51.71,45.956L1646.798,1385.499
								z"/>
							<path style="fill:#ff6900;" d="M1524.535,1405.067c-1.31-18.075-0.583-36.384,1.206-53.563l62.357,82.507L1524.535,1405.067z
								"/>
						</g>
						<path style="fill:#776E42;" d="M1589.419,1622.448c-0.237,0-0.478-0.039-0.717-0.12c-1.149-0.395-1.763-1.649-1.369-2.8
							c13.288-38.694,19.253-81.019,17.256-122.4c-1.653-34.279-8.538-67.612-20.463-99.076c-0.43-1.138,0.142-2.41,1.281-2.842
							c1.143-0.429,2.41,0.14,2.843,1.279c12.089,31.896,19.066,65.684,20.742,100.425c2.023,41.934-4.024,84.827-17.49,124.044
							C1591.19,1621.874,1590.333,1622.448,1589.419,1622.448z"/>
						
							<rect x="1504.002" y="1564.798" transform="matrix(-1 -1.224647e-16 1.224647e-16 -1 3171.3403 3206.9912)" style="fill:#D87355;" width="163.336" height="77.395"/>
					</g>
				</g>
				<g>
					<path style="fill:#84524D;" d="M2056.512,1594.343c-41.036,85.091-123.488,311.905-229.207,267.352
						c-87.446-36.852,3.172-252.621,38.441-339.759C1929.335,1546.072,1992.924,1570.207,2056.512,1594.343z"/>
					<g>
						<path style="fill:#84524D;" d="M1877.741,1690.083c-0.004-0.002-0.007-0.008-0.011-0.006
							c-167.218,38.794-286.6,63.112-323.161,72.068c-3.829,0.938-10.594,2.562-18.485,6.977
							c-29.241,16.355-27.09,44.797-49.985,76.017c-25.978,35.424-60.672,40.671-58.025,51.57
							c1.842,7.582,15.486,9.285,42.318,2.347c0.002-0.001,0.004,0.003,0.002,0.004c-19.78,7.613-46.153,19.109-41.912,30.021
							c5.571,12.338,38.144,2.469,57.557-4.463c-23.498,8.392-39.375,13.037-35.493,18.532c6.11,8.65,24.471,12.662,55.095,0.367
							v0.276c-22.865,7.989-26.379,10.12-21.763,14.141c8.429,7.343,45.597,6.173,66.252-6.566
							c23.253-14.34,36.599-32.085,44.542-44.377c0.002-0.003,0.006-0.005,0.01-0.005c119.934-15.034,149.25-17.159,245.845-31.414
							C1950.277,1859.375,1963.619,1728.647,1877.741,1690.083z"/>
						<path style="fill:#84524D;" d="M1513.782,1821.398c-42.896,7.1-59.874,0.574-60.783-6.256
							c-1.529-11.487,32.611-32.531,93.997-50.8C1539.169,1781.067,1521.609,1804.672,1513.782,1821.398z"/>
						<g>
							<path style="fill:#363E44;" d="M1470.699,1900.031c-0.822,0-1.612-0.462-1.991-1.254c-0.525-1.098-0.06-2.414,1.037-2.939
								c6.769-3.236,13.061-7.35,18.704-12.229c3.885-3.357,7.485-7.107,10.703-11.142c0.764-0.95,2.15-1.106,3.097-0.349
								c0.953,0.759,1.108,2.146,0.351,3.097c-3.388,4.247-7.177,8.193-11.267,11.727c-5.94,5.136-12.564,9.466-19.686,12.872
								C1471.341,1899.962,1471.018,1900.031,1470.699,1900.031z"/>
							<path style="fill:#363E44;" d="M1483.261,1926.57c-0.822,0-1.612-0.462-1.991-1.253c-0.525-1.099-0.06-2.415,1.037-2.94
								c6.775-3.239,13.068-7.354,18.707-12.23c3.885-3.358,7.485-7.108,10.701-11.142c0.76-0.949,2.146-1.109,3.097-0.349
								c0.953,0.759,1.108,2.146,0.351,3.097c-3.387,4.246-7.177,8.191-11.264,11.727c-5.936,5.133-12.56,9.464-19.688,12.873
								C1483.903,1926.502,1483.58,1926.57,1483.261,1926.57z"/>
							<path style="fill:#363E44;" d="M1513.368,1945.811c-0.822,0-1.612-0.462-1.991-1.254c-0.525-1.098-0.06-2.414,1.037-2.939
								c6.773-3.237,13.066-7.352,18.707-12.229c3.891-3.366,7.492-7.114,10.7-11.141c0.758-0.952,2.146-1.109,3.097-0.351
								c0.951,0.759,1.108,2.146,0.351,3.097c-3.379,4.24-7.169,8.186-11.264,11.728c-5.938,5.135-12.562,9.465-19.688,12.872
								C1514.009,1945.742,1513.687,1945.811,1513.368,1945.811z"/>
						</g>
					</g>
				</g>
			</g>
			<g>
				<path style="fill:#84524D;" d="M1716.105,1326.451l53.993,0.367l54.378-2.646l8.656-174.484
					c2.877-19.1-35.297-16.95-54.401-19.836c-19.106-2.885-42.671,10.011-45.547,29.109L1716.105,1326.451z"/>
				<g>
					<path style="fill:#84524D;" d="M1688.845,1249.178c19.479,20.693,90.129-18.332,90.129-18.332l54.401-61.25
						c7.859-39.182-17.541-77.332-56.733-85.21c-39.192-7.878-77.333,17.5-85.192,56.681
						C1691.451,1141.067,1669.005,1228.102,1688.845,1249.178z"/>
					<path style="fill:#84524D;" d="M1695.864,1161.36c0,0-24.085,16.848-24.13,22.565c-0.054,6.824,21.314,15.289,21.314,15.289
						S1695.325,1161.305,1695.864,1161.36z"/>
					<g>
						<path style="fill:#FFFFFF;" d="M1758.859,1156.61c0,0-10.566-5.745-23.332-5.804c-2.716-0.012,2.318,21.743,4.901,20.524
							C1751.786,1165.973,1758.859,1156.61,1758.859,1156.61z"/>
						<g>
							<defs>
								<path id="SVGID_1_" d="M1758.859,1156.61c0,0-15.54-8.449-31.698-4.959c-16.158,3.49-26.814,17.597-26.814,17.597
									s15.541,8.449,31.698,4.959S1758.859,1156.61,1758.859,1156.61z"/>
							</defs>
							<clipPath id="SVGID_00000112625559438554317540000000498650946270840448_">
								<use xlink:href="#SVGID_1_"  style="overflow:visible;"/>
							</clipPath>
							<path style="clip-path:url(#SVGID_00000112625559438554317540000000498650946270840448_);fill:#363E44;" d="
								M1734.989,1150.245c-8.408-8.482-22.097-8.546-30.575-0.143c-8.478,8.402-8.535,22.09-0.127,30.571
								c8.407,8.481,22.097,8.546,30.575,0.143C1743.34,1172.413,1743.397,1158.726,1734.989,1150.245z"/>
						</g>
					</g>
					<g>
						<path style="fill:#363E44;" d="M1858.723,1093.833c0,0,18.806,81.779-36.818,101.369l-11.983-13.438l-33.587,9.114
							l17.955-36.346c5.304-14.259-3.765-29.811-18.791-32.225l-65.591-10.537l7.678-34.724
							C1765.92,1058.145,1813.149,1060.256,1858.723,1093.833z"/>
						<path style="fill:#363E44;" d="M1787.852,1071.017c7.001,3.01,15.115-0.224,18.121-7.224s1.341-18.776-5.66-21.786
							c-7.002-3.01-16.689,3.888-19.695,10.887C1777.611,1059.893,1780.85,1068.007,1787.852,1071.017z"/>
						<path style="fill:#363E44;" d="M1776.987,1073.046c7.58-0.771,13.098-7.539,12.323-15.119
							c-0.774-7.58-7.953-17.067-15.533-16.297c-7.58,0.771-12.692,11.507-11.918,19.087
							C1762.634,1068.297,1769.407,1073.817,1776.987,1073.046z"/>
						<path style="fill:#363E44;" d="M1753.697,1077.637c9.934-2.819,15.696-13.158,12.871-23.092
							c-2.825-9.933-14.646-20.9-24.58-18.08c-9.934,2.819-14.218,18.357-11.393,28.291
							C1733.42,1074.69,1743.763,1080.457,1753.697,1077.637z"/>
						<path style="fill:#363E44;" d="M1809.094,1076.336c6.901,3.234,15.115,0.264,18.345-6.635
							c3.231-6.899,1.947-18.723-4.954-21.957c-6.901-3.234-16.806,3.347-20.037,10.245
							C1799.218,1064.889,1802.193,1073.102,1809.094,1076.336z"/>
						<path style="fill:#363E44;" d="M1736.17,1078.063c5.163-7.602,3.183-17.952-4.422-23.118
							c-7.606-5.166-21.937-5.896-27.1,1.706c-5.163,7.602,0.797,20.656,8.403,25.822
							C1720.656,1087.64,1731.007,1085.665,1736.17,1078.063z"/>
						<path style="fill:#363E44;" d="M1825.318,1084.33c7.712,5.541,18.452,3.784,23.989-3.924
							c5.537-7.708,6.673-22.481-1.039-28.022c-7.712-5.541-21.35,0.25-26.887,7.958
							C1815.844,1068.05,1817.606,1078.79,1825.318,1084.33z"/>
						<path style="fill:#363E44;" d="M1841.748,1089.802c3.481,6.543,11.606,9.028,18.148,5.551
							c6.542-3.477,12.447-13.419,8.966-19.962c-3.481-6.543-15.03-7.208-21.571-3.732
							C1840.748,1075.137,1838.267,1083.259,1841.748,1089.802z"/>
						<path style="fill:#363E44;" d="M1728.437,1097.739c3.067-10.776-3.185-22.001-13.964-25.072
							c-10.779-3.072-27.643,1.566-30.71,12.341c-3.067,10.775,8.826,23.608,19.605,26.68
							C1714.147,1114.76,1725.371,1108.515,1728.437,1097.739z"/>
					</g>
					<path style="fill:#84524D;" d="M1847.085,1172.644c2.795,13.5-5.884,26.704-19.385,29.492
						c-13.501,2.788-26.711-5.896-29.506-19.396c-2.795-13.5,5.884-26.704,19.384-29.492
						C1831.079,1150.46,1844.289,1159.144,1847.085,1172.644z"/>
					<path style="fill:#363E44;" d="M1681.936,1193.882l-4.269,60.612c-0.594,8.439,5.965,15.657,14.423,15.896
						c2.128,0.06,4.43,0.101,6.879,0.11c42.388,0.164,81.858-21.572,104.324-57.5l0,0c7.526-12.036,6.837-27.472-1.733-38.798
						l-2.824-3.732l-12.829,4.197c0,0-14.791,30.69-27.388,30.831C1745.921,1205.638,1725.233,1191.658,1681.936,1193.882z"/>
					<path style="fill:#84524D;" d="M1710.161,1217.429c-3.164,0-6.286-1.215-8.647-3.502c-0.876-0.846-0.897-2.241-0.052-3.116
						c0.848-0.874,2.243-0.894,3.116-0.05c2.258,2.185,5.581,2.855,8.477,1.709c2.787-1.104,4.743-3.764,4.984-6.778
						c0.097-1.212,1.119-2.121,2.374-2.02c1.214,0.097,2.118,1.159,2.021,2.373c-0.375,4.674-3.42,8.805-7.756,10.523
						C1713.217,1217.149,1711.683,1217.429,1710.161,1217.429z"/>
					<path style="fill:#84524D;" d="M1792.746,1129.696c-0.785,0-1.547-0.422-1.945-1.163c-0.575-1.073-0.17-2.408,0.902-2.983
						l32.272-17.293c1.074-0.576,2.41-0.17,2.985,0.902c0.575,1.073,0.17,2.408-0.902,2.983l-32.272,17.293
						C1793.454,1129.612,1793.097,1129.696,1792.746,1129.696z"/>
				</g>
			</g>
		</g>
		<g>
			
				<ellipse transform="matrix(0.7071 -0.7071 0.7071 0.7071 -48.4438 1638.5433)" style="fill:#F7F1EB;" cx="1953.675" cy="877.749" rx="163.511" ry="163.511"/>
			<g>
				<path style="fill:#E0AA63;" d="M1979.709,973.614l-27.588,11.983l-19.657-8.638c-40.77-17.915-67.095-58.237-67.095-102.77
					l1.009-88.323l86.513-22.591l88,23.6l-1.009,94.997C2039.882,921.706,2016.245,957.744,1979.709,973.614z"/>
				<path style="fill:#EFBC73;" d="M1975.739,960.846l-23.76,10.584l-16.929-7.629c-35.113-15.824-57.785-51.438-57.785-90.772
					l0.869-78.012l74.457-19.115l75.842,20.006l-0.869,83.907C2027.563,914.998,2007.206,946.828,1975.739,960.846z"/>
				<path style="fill:#FFD092;" d="M1952.59,775.901l-1.091,0.28v195.033l0.48,0.216l23.76-10.584
					c31.467-14.018,51.824-45.848,51.824-81.032l0.869-83.907L1952.59,775.901z"/>
			</g>
			<path style="fill:#D87355;" d="M1947.387,1028.789c-91.376,0-165.716-74.339-165.716-165.714s74.34-165.715,165.716-165.715
				c91.374,0,165.714,74.34,165.714,165.715S2038.761,1028.789,1947.387,1028.789z M1947.387,701.767
				c-88.946,0-161.308,72.362-161.308,161.307c0,88.944,72.362,161.306,161.308,161.306c88.944,0,161.306-72.362,161.306-161.306
				C2108.693,774.129,2036.331,701.767,1947.387,701.767z"/>
		</g>
		<g>
			<g>
				
					<rect x="523.001" y="1652.225" transform="matrix(1 0.0046 -0.0046 1 8.3464 -3.4505)" style="fill:#84524D;" width="468.094" height="334.353"/>
				<path style="fill:#84524D;" d="M808.739,1691.008c-0.041,0-0.082,0-0.125,0l-107.847-0.494
					c-7.038-0.032-13.643-2.803-18.597-7.804c-4.954-4.999-7.664-11.629-7.632-18.669l0.288-63.233
					c0.069-14.489,11.878-26.232,26.351-26.232c0.041,0,0.082,0,0.123,0l107.845,0.495c14.529,0.066,26.295,11.941,26.23,26.472
					l-0.291,63.234c-0.032,7.04-2.802,13.645-7.802,18.598C822.313,1688.301,815.731,1691.008,808.739,1691.008z M701.179,1578.985
					c-12.052,0-21.887,9.777-21.943,21.844l-0.288,63.233c-0.028,5.861,2.23,11.383,6.355,15.546
					c4.126,4.163,9.624,6.472,15.487,6.498l107.847,0.494c5.899,0.024,11.383-2.23,15.545-6.355
					c4.164-4.125,6.472-9.625,6.497-15.487l0.291-63.234c0.026-5.862-2.232-11.384-6.357-15.547
					c-4.124-4.163-9.625-6.47-15.487-6.497l-107.845-0.495C701.247,1578.985,701.213,1578.985,701.179,1578.985z"/>
				<path style="fill:#363E44;" d="M756.102,1842.878c-0.476,0-0.953-0.154-1.352-0.463l-205.021-158.999
					c-0.96-0.746-1.136-2.13-0.39-3.092c0.749-0.96,2.128-1.137,3.093-0.391l203.674,157.955l202.955-156.226
					c0.964-0.741,2.352-0.562,3.09,0.402c0.742,0.964,0.564,2.348-0.4,3.091l-204.304,157.265
					C757.051,1842.726,756.575,1842.878,756.102,1842.878z"/>
				
					<rect x="723.984" y="1819.54" transform="matrix(1 0.0046 -0.0046 1 8.4259 -3.4496)" style="fill:#EFBC73;" width="65.967" height="34.804"/>
			</g>
			<g>
				<g>
					<ellipse style="fill:#E0AA63;" cx="959.16" cy="2035.585" rx="89.842" ry="28.448"/>
					
						<rect x="869.319" y="2007.245" transform="matrix(-1 -1.224647e-16 1.224647e-16 -1 1918.3209 4043.8003)" style="fill:#E0AA63;" width="179.684" height="29.31"/>
					<ellipse style="fill:#EFBC73;" cx="959.16" cy="2007.802" rx="89.842" ry="28.448"/>
					<path style="fill:#FFFFFF;" d="M948.575,2038.453c-45.245,0-92.046-11.466-92.046-30.652c0-19.186,46.801-30.651,92.046-30.651
						c45.245,0,92.046,11.465,92.046,30.651C1040.621,2026.988,993.82,2038.453,948.575,2038.453z M948.575,1981.558
						c-52.422,0-87.638,13.569-87.638,26.243c0,12.674,35.216,26.245,87.638,26.245c52.422,0,87.638-13.57,87.638-26.245
						C1036.213,1995.127,1000.998,1981.558,948.575,1981.558z"/>
				</g>
				<g>
					<ellipse style="fill:#E0AA63;" cx="940.638" cy="1989.279" rx="89.842" ry="28.448"/>
					
						<rect x="850.796" y="1960.939" transform="matrix(-1 -1.224647e-16 1.224647e-16 -1 1881.276 3951.1882)" style="fill:#E0AA63;" width="179.684" height="29.31"/>
					<ellipse style="fill:#EFBC73;" cx="940.638" cy="1961.496" rx="89.842" ry="28.448"/>
					<path style="fill:#FFFFFF;" d="M930.054,1992.148c-45.245,0-92.046-11.466-92.046-30.652s46.801-30.652,92.046-30.652
						s92.046,11.466,92.046,30.652S975.299,1992.148,930.054,1992.148z M930.054,1935.251c-52.422,0-87.638,13.57-87.638,26.244
						c0,12.674,35.216,26.245,87.638,26.245c52.422,0,87.638-13.57,87.638-26.245
						C1017.692,1948.822,982.476,1935.251,930.054,1935.251z"/>
				</g>
				<g>
					<ellipse style="fill:#E0AA63;" cx="959.16" cy="1950.239" rx="89.842" ry="28.448"/>
					
						<rect x="869.319" y="1921.899" transform="matrix(-1 -1.224647e-16 1.224647e-16 -1 1918.3209 3873.1084)" style="fill:#E0AA63;" width="179.684" height="29.31"/>
					<ellipse style="fill:#EFBC73;" cx="959.16" cy="1922.456" rx="89.842" ry="28.448"/>
					<path style="fill:#FFFFFF;" d="M948.575,1953.108c-45.245,0-92.046-11.466-92.046-30.652c0-19.186,46.801-30.652,92.046-30.652
						c45.245,0,92.046,11.466,92.046,30.652C1040.621,1941.642,993.82,1953.108,948.575,1953.108z M948.575,1896.211
						c-52.422,0-87.638,13.57-87.638,26.244c0,12.674,35.216,26.245,87.638,26.245c52.422,0,87.638-13.57,87.638-26.245
						C1036.213,1909.781,1000.998,1896.211,948.575,1896.211z"/>
				</g>
				<g>
					<ellipse style="fill:#E0AA63;" cx="940.638" cy="1903.933" rx="89.842" ry="28.448"/>
					
						<rect x="850.796" y="1875.593" transform="matrix(-1 -1.224647e-16 1.224647e-16 -1 1881.276 3780.4961)" style="fill:#E0AA63;" width="179.684" height="29.31"/>
					<ellipse style="fill:#EFBC73;" cx="940.638" cy="1876.15" rx="89.842" ry="28.448"/>
					<path style="fill:#FFFFFF;" d="M930.054,1906.802c-45.245,0-92.046-11.466-92.046-30.652c0-19.186,46.801-30.652,92.046-30.652
						s92.046,11.466,92.046,30.652C1022.099,1895.336,975.299,1906.802,930.054,1906.802z M930.054,1849.905
						c-52.422,0-87.638,13.571-87.638,26.245c0,12.674,35.216,26.245,87.638,26.245c52.422,0,87.638-13.57,87.638-26.245
						C1017.692,1863.476,982.476,1849.905,930.054,1849.905z"/>
				</g>
				<g>
					
						<ellipse transform="matrix(0.7038 -0.7104 0.7104 0.7038 -998.9812 1247.0806)" style="fill:#E0AA63;" cx="995.888" cy="1821.422" rx="89.842" ry="28.448"/>
					
						<rect x="896.324" y="1797.136" transform="matrix(-0.7038 0.7104 -0.7104 -0.7038 2967.3513 2386.261)" style="fill:#E0AA63;" width="179.684" height="29.31"/>
					
						<ellipse transform="matrix(0.7038 -0.7104 0.7104 0.7038 -990.9375 1227.2662)" style="fill:#EFBC73;" cx="976.15" cy="1801.869" rx="89.842" ry="28.448"/>
					<path style="fill:#FFFFFF;" d="M914.401,1878.469c-4.446,0.001-7.991-1.222-10.479-3.688l0,0
						c-6.138-6.08-4.782-18.66,3.818-35.422c8.225-16.033,22.141-34.337,39.186-51.541c17.041-17.206,35.214-31.294,51.168-39.67
						c16.679-8.757,29.246-10.234,35.386-4.151c6.138,6.08,4.782,18.66-3.818,35.422c-8.226,16.032-22.141,34.337-39.187,51.541
						c-17.041,17.205-35.214,31.293-51.167,39.67C929.389,1875.837,920.924,1878.469,914.401,1878.469z M1022.963,1744.659
						c-5.66,0-13.509,2.503-22.819,7.392c-15.564,8.172-33.352,21.976-50.087,38.868c-16.733,16.893-30.369,34.81-38.394,50.451
						c-7.539,14.695-9.228,25.731-4.636,30.28l0,0c4.588,4.549,15.61,2.755,30.234-4.923c15.564-8.172,33.352-21.976,50.085-38.868
						c16.735-16.893,30.371-34.81,38.397-50.451c7.539-14.695,9.228-25.731,4.636-30.28
						C1028.709,1745.475,1026.193,1744.659,1022.963,1744.659z"/>
				</g>
				<g>
					<ellipse style="fill:#E0AA63;" cx="1056.629" cy="2060.952" rx="89.842" ry="28.448"/>
					
						<rect x="966.787" y="2032.612" transform="matrix(-1 -1.224647e-16 1.224647e-16 -1 2113.2576 4094.5334)" style="fill:#E0AA63;" width="179.684" height="29.31"/>
					<ellipse style="fill:#EFBC73;" cx="1056.629" cy="2033.168" rx="89.842" ry="28.448"/>
					<path style="fill:#FFFFFF;" d="M1046.044,2063.82c-45.245,0-92.046-11.466-92.046-30.652c0-19.187,46.801-30.651,92.046-30.651
						c45.245,0,92.046,11.464,92.046,30.651C1138.09,2052.354,1091.289,2063.82,1046.044,2063.82z M1046.044,2006.924
						c-52.422,0-87.638,13.569-87.638,26.243s35.216,26.245,87.638,26.245s87.638-13.57,87.638-26.245
						S1098.467,2006.924,1046.044,2006.924z"/>
				</g>
			</g>
		</g>
	</g>
</g>
</svg>
