<?xml version="1.0" encoding="utf-8"?>
<!-- Generator: Adobe Illustrator 27.5.0, SVG Export Plug-In . SVG Version: 6.00 Build 0)  -->
<svg version="1.1" xmlns="http://www.w3.org/2000/svg" xmlns:xlink="http://www.w3.org/1999/xlink" x="0px" y="0px"
	 viewBox="0 0 2500 2500" style="enable-background:new 0 0 2500 2500;" xml:space="preserve">
-
<g id="Illustration">
	<g id="Gift-opening_party_1_">
		<circle style="fill:transparent;" cx="1250" cy="1250" r="915"/>
		<g>
			<g>
				<g>
					<polygon style="fill:#84524D;" points="688.555,1735.473 650.94,1848.562 731.734,1848.531 774.912,1735.44 					"/>
					<path style="fill:#E6D0BE;" d="M650.93,1844.752l-49.514,127.831l281.834-0.085c-30.242-49.482-79.426-106.613-151.781-127.772
						L650.93,1844.752z"/>
				</g>
				<path style="fill:#ff6900;" d="M769.153,1104.75l56.68,171.167c44.086,133.133,41.422,278.765-7.497,409.968l-43.017,115.371
					l-111.339-16.665l30.478-166.875c28.668-157.966,10.342-172.574-42.101-266.542l9.709-175.667L769.153,1104.75z"/>
				<polygon style="fill:#84524D;" points="559.596,1751.325 581.889,1859.166 652.36,1859.166 652.36,1744.089 				"/>
				<path style="fill:#F2E6DC;" d="M580.974,1853.119c0,6.046-28.317,122.939-28.317,122.939h162.131l-63.779-122.939H580.974z"/>
				<path style="fill:#ff6900;" d="M538.652,1189.405c0,0-44.331,240.482,15.26,587.129h106.298c0,0,19.065-502.882,46.445-578.362
					L538.652,1189.405z"/>
				<path style="fill:#363E44;" d="M684.282,1388.367c-0.036,0-0.071-0.001-0.108-0.002c-1.216-0.058-2.155-1.092-2.097-2.308
					l3.926-82.362l36.363-13.342c1.142-0.416,2.409,0.168,2.829,1.311c0.419,1.142-0.168,2.409-1.311,2.829l-33.616,12.334
					l-3.786,79.44C686.425,1387.447,685.451,1388.367,684.282,1388.367z"/>
			</g>
			<g>
				<g>
					
						<ellipse transform="matrix(0.53 -0.848 0.848 0.53 -505.4836 908.6586)" style="fill:#373E44;" cx="566.925" cy="910.307" rx="46.582" ry="46.582"/>
					<path style="fill:#363E44;" d="M571.18,928.846c-4.85,0-9.896-0.542-15.008-1.682c-26.255-5.858-44.337-25.321-40.308-43.387
						c4.032-18.067,28.676-27.996,54.927-22.143c26.255,5.858,44.338,25.321,40.308,43.387
						C607.853,919.57,591.237,928.846,571.18,928.846z M555.605,864.341c-17.942,0-32.647,7.893-35.436,20.397
						c-3.501,15.693,13.081,32.794,36.964,38.122c23.884,5.329,46.161-3.105,49.662-18.799
						c3.501-15.693-13.081-32.795-36.964-38.122C564.975,864.856,560.183,864.341,555.605,864.341z M608.947,904.541h0.022H608.947z
						"/>
				</g>
				<path style="fill:#84524D;" d="M695.651,917.576c-13.578,14.869-65.6-6.254-65.6-6.254l-37.676-48.628
					c-5.994-27.685,11.59-54.987,39.275-60.981c27.685-5.994,54.987,11.59,60.981,39.275
					C692.631,840.988,709.48,902.432,695.651,917.576z"/>
				
					<rect x="605.269" y="854.087" transform="matrix(0.9774 -0.2116 0.2116 0.9774 -180.0391 155.4632)" style="fill:#84524D;" width="62.15" height="129.666"/>
				<path style="fill:#84524D;" d="M689.724,855.416c0,0,17.25,11.687,17.344,15.738c0.112,4.836-14.936,11.058-14.936,11.058
					S690.105,855.371,689.724,855.416z"/>
				<g>
					<path style="fill:#FFFFFF;" d="M644.021,863.065c0,0,7.415-6.331,17.531-8.52c2.152-0.466,1.821,17.637-0.434,17.104
						C651.208,869.306,644.021,863.065,644.021,863.065z"/>
					<path style="fill:#373E44;" d="M668.331,853.81c-2.343-0.01-4.607,0.271-6.753,0.734c-3.216,5.397-3.209,11.864-0.468,17.099
						c2.258,0.535,4.655,0.869,7.143,0.88c13.404,0.056,24.311-9.255,24.311-9.255S681.736,853.866,668.331,853.81z"/>
				</g>
				<path style="fill:#363E44;" d="M680.071,895.944c-1.114,0-2.235-0.197-3.309-0.605c-3.319-1.257-5.682-4.365-6.02-7.916
					c-0.115-1.212,0.774-2.289,1.986-2.404c1.237-0.103,2.288,0.775,2.404,1.986c0.18,1.891,1.433,3.543,3.193,4.211
					c1.827,0.691,3.909,0.241,5.305-1.154c0.863-0.86,2.26-0.859,3.119,0.003c0.86,0.862,0.858,2.259-0.003,3.119
					C684.943,894.982,682.525,895.944,680.071,895.944z"/>
				<path style="fill:#363E44;" d="M681.172,927.323c-0.016,0-0.031,0-0.047,0c-20.991-0.444-50.485-12.583-51.73-13.1
					c-1.124-0.467-1.658-1.757-1.192-2.882c0.467-1.124,1.753-1.657,2.882-1.192c0.297,0.124,29.977,12.339,50.133,12.764
					c1.218,0.026,2.183,1.034,2.159,2.251C683.35,926.366,682.368,927.323,681.172,927.323z"/>
				<g>
					<path style="fill:#373E44;" d="M587.439,893.554c-14.066-8.117-15.915-42.887-5.252-64.251
						c13.746-27.542,48.58-41.754,75.509-37.389c6.62,1.073,21.596,5.498,25.926,15.383c8.11,18.517-20.185,50.157-30.914,59.415
						C636.331,880.845,602.895,902.474,587.439,893.554z"/>
					<path style="fill:#363E44;" d="M605.927,897.96c-8.381,0-16.92-1.319-25.309-4.039c-1.158-0.376-1.792-1.619-1.417-2.777
						c0.376-1.157,1.62-1.79,2.778-1.417c28.376,9.2,58.569,1.471,76.922-19.687c20.758-23.929,16.226-53.986,15.106-59.768
						c-0.231-1.195,0.55-2.352,1.746-2.584c1.19-0.229,2.351,0.55,2.584,1.746c1.187,6.134,5.991,38.023-16.105,63.495
						C648.161,889.15,627.58,897.959,605.927,897.96z"/>
				</g>
				<g>
					<path style="fill:#D87355;" d="M657.506,795.254c0,0-31.13,36.984-78.005,49.023l-18.758-80.081l-5.724-24.454l-7.325-31.26
						l53.81,42.521l17.533,13.856L657.506,795.254z"/>
					<g>
						<path style="fill:#EFBC73;" d="M570.431,751.969c0,5.941-4.138,10.929-9.689,12.227l-5.724-24.454
							c0.908-0.216,1.874-0.332,2.854-0.332C564.808,739.411,570.431,745.034,570.431,751.969z"/>
						<path style="fill:#ff6900;" d="M619.037,764.859c-1.125,5.782-6.215,10.136-12.314,10.136c-6.95,0-12.573-5.623-12.573-12.573
							c0-5.075,3.013-9.444,7.354-11.42L619.037,764.859z"/>
						
							<ellipse transform="matrix(0.7994 -0.6008 0.6008 0.7994 -363.668 518.1739)" style="fill:#FFFFFF;" cx="594.156" cy="803.697" rx="14.313" ry="14.313"/>
					</g>
				</g>
			</g>
			<g>
				<g>
					<path style="fill:#84524D;" d="M930.08,1043.589c-0.002-0.001-0.005,0-0.006-0.002
						c-39.037-76.099-68.193-129.342-76.547-146.132c-0.875-1.758-2.433-4.855-3.292-9.278c-3.183-16.389,8.334-24.726,12.85-43.486
						c5.124-21.286-4.042-36.173,0.958-38.675c3.478-1.74,8.517,2.902,14.509,15.342c-3.466-9.975-7.575-23.709-2.057-25.609
						c6.489-1.853,13.213,13.715,16.82,23.332c-4.366-11.64-3.206-19.136,0.135-19.428c5.258-0.46,10.746,7.778,15.92,23.385
						c-0.562-11.775,1.058-14.715,4.073-14.254c5.506,0.843,9.519,13.754,11.316,25.712c2.023,13.462-1.077,24.604-3.2,31.584
						c0,0,0,0.004,0.001,0.005c28.613,53.961,40.479,80.555,65.027,125.303C1019.279,1050.98,972.389,1063.843,930.08,1043.589z"/>
					<path style="fill:#363E44;" d="M914.308,1016.595c-0.782,0-1.345-0.549-1.852-1.335l-0.039,0.018
						c-0.03-0.061-0.128-0.254-0.285-0.561c-0.164-0.292-0.325-0.602-0.49-0.92c-0.043-0.083-0.081-0.167-0.113-0.253
						c-3.053-5.938-13.007-25.209-15.874-30.735c-0.049-0.072-0.094-0.147-0.134-0.226c-0.128-0.25-0.259-0.506-0.381-0.762
						c-0.136-0.262-0.223-0.427-0.253-0.484l0.033-0.018c-0.458-1.148-0.546-2.271,0.886-3.009c1.402-0.72,2.248-0.061,2.955,1.027
						l0.042-0.021c0.028,0.058,0.127,0.251,0.304,0.596c0.156,0.28,0.309,0.575,0.464,0.872l16.08,31.135
						c0.14,0.272,0.281,0.547,0.41,0.819c0.154,0.296,0.242,0.463,0.271,0.517l-0.037,0.019c0.469,1.176,0.54,2.274-0.877,3.008
						C915.002,1016.498,914.636,1016.595,914.308,1016.595z"/>
					<path style="fill:#84524D;" d="M862.955,862.864c-11.1-18.604-19.046-22.961-21.938-21.108
						c-4.864,3.116-1.889,22.878,10.909,52.111C855.773,885.505,859.108,871.226,862.955,862.864z"/>
					<g>
						<path style="fill:#363E44;" d="M891.86,886.677c-0.75,0-1.481-0.382-1.894-1.072c-2.131-3.559-4.603-9.349-4.283-16.719
							c0.455-10.428,6.338-17.433,8.845-19.961c0.855-0.865,2.252-0.872,3.118-0.013c0.865,0.858,0.871,2.253,0.013,3.118
							c-2.147,2.165-7.182,8.158-7.57,17.047c-0.273,6.278,1.84,11.221,3.66,14.262c0.625,1.045,0.285,2.399-0.759,3.024
							C892.635,886.576,892.245,886.677,891.86,886.677z"/>
						<path style="fill:#363E44;" d="M850.981,879.365c-0.16,0-0.324-0.017-0.487-0.054c-1.189-0.268-1.935-1.448-1.667-2.635
							c1.099-4.877,3.291-9.29,5.612-13.961c1.055-2.124,2.146-4.321,3.181-6.654c0.495-1.113,1.799-1.614,2.91-1.121
							c1.113,0.494,1.615,1.797,1.121,2.91c-1.074,2.42-2.188,4.661-3.263,6.827c-2.295,4.62-4.277,8.609-5.259,12.968
							C852.898,878.669,851.988,879.365,850.981,879.365z"/>
						<path style="fill:#363E44;" d="M878.766,843.277c-0.142,0-0.286-0.013-0.431-0.042c-1.195-0.237-1.971-1.397-1.734-2.591
							c0.488-2.458,0.748-4.966,0.776-7.456c0.04-3.619-0.407-7.24-1.327-10.76c-0.309-1.178,0.396-2.383,1.575-2.69
							c1.178-0.311,2.384,0.398,2.69,1.575c1.021,3.9,1.516,7.913,1.472,11.925c-0.031,2.76-0.32,5.541-0.86,8.264
							C880.718,842.55,879.797,843.277,878.766,843.277z"/>
						<path style="fill:#363E44;" d="M892.909,839.512c-0.142,0-0.286-0.013-0.432-0.042c-1.194-0.237-1.97-1.397-1.733-2.592
							c0.488-2.456,0.748-4.963,0.776-7.454c0.04-3.619-0.407-7.24-1.328-10.76c-0.309-1.178,0.396-2.383,1.575-2.69
							c1.177-0.308,2.382,0.397,2.69,1.575c1.021,3.9,1.516,7.913,1.472,11.925c-0.031,2.761-0.32,5.542-0.86,8.264
							C894.86,838.785,893.94,839.512,892.909,839.512z"/>
						<path style="fill:#363E44;" d="M909.919,844.771c-0.142,0-0.288-0.014-0.432-0.042c-1.195-0.238-1.97-1.398-1.733-2.592
							c0.488-2.45,0.748-4.959,0.776-7.454c0.041-3.614-0.406-7.235-1.326-10.76c-0.308-1.179,0.397-2.384,1.575-2.69
							c1.184-0.315,2.384,0.397,2.69,1.575c1.022,3.907,1.516,7.918,1.471,11.925c-0.031,2.767-0.321,5.548-0.86,8.264
							C911.87,844.046,910.949,844.771,909.919,844.771z"/>
					</g>
				</g>
				<g>
					<path style="fill:#84524D;" d="M414.052,966.17c0.002-0.001,0.005,0,0.006-0.002c44.006-70.913,76.587-120.381,86.045-136.048
						c0.99-1.641,2.752-4.529,3.938-8.762c4.397-15.686-6.143-24.709-9.046-43.313c-3.294-21.109,6.802-34.86,2.137-37.69
						c-3.245-1.969-8.513,2.146-15.329,13.77c-0.001,0.001-0.003,0-0.003,0c4.163-9.427,9.251-22.458,4.035-24.743
						c-6.164-2.317-13.939,12.29-18.211,21.357c5.171-10.974,4.637-18.357,1.411-18.906c-5.077-0.865-11.069,6.711-17.339,21.48
						c1.481-11.407,0.139-14.396-2.831-14.186c-5.422,0.382-10.349,12.621-13.046,24.109c-3.036,12.932-0.905,24.015,0.606,30.971
						c0,0.002,0,0.003-0.001,0.005c-32.11,50.21-45.762,75.132-73.187,116.704C326.714,966.279,371.297,982.51,414.052,966.17z"/>
					<path style="fill:#363E44;" d="M431.651,941.221c-0.36,0-0.757-0.122-1.202-0.4c-1.355-0.848-1.179-1.96-0.631-3.069
						l-0.033-0.023c0.032-0.049,0.131-0.206,0.304-0.48c0.143-0.249,0.297-0.495,0.447-0.736l18.109-29.003
						c0.178-0.282,0.352-0.562,0.531-0.827c0.203-0.329,0.316-0.513,0.35-0.568l0.039,0.024c0.796-1.028,1.693-1.615,3.029-0.783
						c1.362,0.847,1.171,1.984,0.637,3.069l0.033,0.023c-0.035,0.054-0.136,0.213-0.295,0.465c-0.136,0.239-0.281,0.471-0.42,0.695
						c-0.046,0.074-0.096,0.145-0.15,0.212c-3.229,5.149-14.434,23.095-17.875,28.627c-0.039,0.082-0.082,0.163-0.131,0.24
						c-0.179,0.286-0.357,0.57-0.537,0.838c-0.184,0.296-0.298,0.481-0.334,0.54l-0.038-0.023
						C432.954,940.729,432.377,941.221,431.651,941.221z"/>
					<path style="fill:#84524D;" d="M493.678,795.73c12.272-17.212,20.346-20.82,23.012-18.788
						c4.483,3.417,0.021,22.4-14.745,49.815C498.866,818.32,496.756,804.168,493.678,795.73z"/>
					<g>
						<path style="fill:#363E44;" d="M463.851,816.656c-0.444,0-0.891-0.133-1.28-0.411c-0.99-0.708-1.22-2.085-0.511-3.076
							c2.009-2.809,4.451-7.44,4.682-13.553c0.328-8.652-4.085-14.872-5.997-17.143c-0.784-0.932-0.664-2.323,0.267-3.107
							c0.93-0.784,2.321-0.665,3.107,0.267c2.242,2.665,7.415,9.962,7.03,20.151c-0.273,7.204-3.144,12.65-5.502,15.949
							C465.216,816.336,464.539,816.656,463.851,816.656z"/>
						<path style="fill:#363E44;" d="M504.189,812.788c-1.081,0-2.024-0.796-2.18-1.897c-0.608-4.31-2.218-8.343-4.081-13.014
							c-0.875-2.194-1.781-4.462-2.633-6.904c-0.403-1.15,0.205-2.407,1.353-2.809c1.153-0.398,2.407,0.205,2.809,1.353
							c0.823,2.352,1.71,4.576,2.567,6.725c1.887,4.729,3.669,9.197,4.353,14.032c0.17,1.205-0.67,2.321-1.875,2.491
							C504.395,812.782,504.292,812.788,504.189,812.788z"/>
						<path style="fill:#363E44;" d="M480.029,775.486c-1.105,0-2.058-0.829-2.188-1.953c-0.309-2.697-0.37-5.428-0.18-8.117
							c0.275-3.91,1.076-7.777,2.38-11.493c0.403-1.149,1.663-1.756,2.81-1.35c1.15,0.403,1.754,1.661,1.35,2.81
							c-1.173,3.345-1.895,6.826-2.141,10.344c-0.171,2.42-0.116,4.877,0.163,7.304c0.139,1.21-0.73,2.304-1.939,2.443
							C480.198,775.482,480.113,775.486,480.029,775.486z"/>
						<path style="fill:#363E44;" d="M466.573,770.703c-1.105,0-2.058-0.829-2.188-1.953c-0.309-2.696-0.37-5.426-0.181-8.116
							c0.276-3.911,1.077-7.779,2.381-11.495c0.401-1.15,1.665-1.755,2.81-1.35c1.15,0.403,1.754,1.661,1.35,2.81
							c-1.173,3.345-1.895,6.825-2.142,10.345c-0.17,2.42-0.115,4.877,0.164,7.302c0.139,1.21-0.73,2.304-1.939,2.443
							C466.742,770.699,466.657,770.703,466.573,770.703z"/>
						<path style="fill:#363E44;" d="M449.613,774.467c-1.105,0-2.057-0.828-2.187-1.952c-0.311-2.688-0.371-5.418-0.182-8.116
							c0.276-3.908,1.076-7.775,2.379-11.495c0.403-1.151,1.662-1.754,2.81-1.352c1.15,0.403,1.755,1.661,1.352,2.81
							c-1.174,3.349-1.895,6.831-2.142,10.347c-0.171,2.427-0.116,4.882,0.163,7.3c0.14,1.21-0.728,2.304-1.937,2.443
							C449.783,774.462,449.698,774.467,449.613,774.467z"/>
					</g>
				</g>
				<g>
					<path style="fill:#EFBC73;" d="M454.478,933.245l41.468,22.771c30.261,18.319,65.043,27.807,100.415,27.392l294.376-3.454
						l-26.445-54.098l91.481-7.653l40.51,68.317c27.534,46.433-2.344,105.766-56.043,111.293l-126.964,11.904l10.814,74.877
						c0,0-211.38,39.886-314.558-4.454l22.739-70.599l-153.542-88.45c-44.17-26.146-56.104-84.716-25.687-126.06l49.081-66.714
						l79.588,46.127L454.478,933.245z"/>
					<path style="fill:#363E44;" d="M911.869,1025.651c-0.79,0-1.554-0.425-1.95-1.171l-18.072-34.058
						c-0.57-1.076-0.161-2.41,0.914-2.981c1.077-0.573,2.41-0.161,2.981,0.914l18.072,34.058c0.571,1.076,0.161,2.41-0.914,2.981
						C912.571,1025.568,912.217,1025.651,911.869,1025.651z"/>
					<path style="fill:#363E44;" d="M812.485,1108.376c-1.053,0-1.985-0.757-2.17-1.829l-7.118-41.153
						c-0.208-1.199,0.596-2.341,1.797-2.548c1.205-0.209,2.342,0.599,2.548,1.797l7.118,41.153c0.208,1.199-0.596,2.34-1.797,2.548
						C812.736,1108.365,812.609,1108.376,812.485,1108.376z"/>
					<path style="fill:#363E44;" d="M535.057,1105.581c-0.278,0-0.561-0.054-0.834-0.166c-1.127-0.461-1.667-1.748-1.205-2.875
						l11.237-27.455c0.461-1.126,1.746-1.668,2.876-1.205c1.127,0.461,1.667,1.748,1.205,2.875l-11.237,27.455
						C536.75,1105.065,535.926,1105.581,535.057,1105.581z"/>
					<path style="fill:#EFBC73;" d="M591.095,985.967c0,0-6.616-14.822,3.241-25.014l120.421-2.661c0,0,12.066,10.064,5.81,27.277
						L591.095,985.967z"/>
					<path style="fill:#363E44;" d="M441.285,960.497c-0.338,0-0.68-0.077-1.002-0.242c-1.084-0.554-1.513-1.883-0.958-2.967
						l9.931-19.402c0.553-1.083,1.88-1.515,2.967-0.958c1.084,0.555,1.513,1.883,0.958,2.967l-9.931,19.402
						C442.86,960.059,442.087,960.497,441.285,960.497z"/>
				</g>
				<g>
					<path style="fill:#FFFFFF;" d="M689.528,1111.745c-0.647,0-1.27-0.284-1.693-0.793L584.511,986.981
						c-0.779-0.935-0.654-2.325,0.282-3.105c0.935-0.781,2.325-0.655,3.105,0.282l100.641,120.75l34.104-121.462
						c0.33-1.171,1.537-1.858,2.719-1.527c1.172,0.329,1.856,1.547,1.527,2.719l-35.237,125.497
						c-0.222,0.788-0.861,1.389-1.662,1.56C689.836,1111.729,689.681,1111.745,689.528,1111.745z"/>
					<path style="fill:#FFFFFF;" d="M692.169,1134.641c-5.988,0-10.859-4.871-10.859-10.859c0-5.989,4.872-10.86,10.859-10.86
						c5.989,0,10.86,4.871,10.86,10.86C703.029,1129.77,698.158,1134.641,692.169,1134.641z M692.169,1117.331
						c-3.556,0-6.45,2.894-6.45,6.451c0,3.556,2.894,6.45,6.45,6.45c3.557,0,6.451-2.894,6.451-6.45
						C698.62,1120.225,695.726,1117.331,692.169,1117.331z"/>
					<path style="fill:#FFFFFF;" d="M661.892,1019.423c-48.008,0-67.531-32.076-67.73-32.413c-0.619-1.047-0.272-2.396,0.774-3.017
						c1.047-0.62,2.399-0.276,3.021,0.77c0.193,0.328,20.037,32.656,69.491,30.105c48.802-2.542,48.862-30.504,48.857-30.786
						c-0.021-1.218,0.947-2.222,2.165-2.245c1.17-0.039,2.221,0.947,2.245,2.165c0.005,0.325-0.027,32.508-53.037,35.268
						C665.707,1019.374,663.774,1019.423,661.892,1019.423z"/>
				</g>
			</g>
		</g>
		<g>
			<path style="fill:#D3BBA3;" d="M376.464,619.73c-11.657,0-22.806-0.563-33.33-1.713c-1.211-0.132-2.085-1.221-1.953-2.432
				c0.132-1.21,1.241-2.069,2.431-1.952c72.628,7.938,175.513-12.419,268.53-53.123c81.336-35.593,194.97-103.433,274.425-224.491
				c0.669-1.016,2.033-1.304,3.053-0.633c1.017,0.667,1.302,2.035,0.633,3.053c-80.048,121.964-194.46,190.278-276.343,226.11
				C533.672,599.661,446.042,619.73,376.464,619.73z"/>
			<polygon style="fill:#ff6900;" points="454.073,607.384 522.754,711.212 541.235,584.857 			"/>
			<polygon style="fill:#EFBC73;" points="337.624,613.179 387.755,723.463 421.828,611.544 			"/>
			<polygon style="fill:#EFBC73;" points="700.457,510.015 805.401,577.059 770.809,460.984 			"/>
			<polygon style="fill:#ff6900;" points="800.588,433.941 908.083,480.352 864.488,366.38 			"/>
			<polygon style="fill:#D87355;" points="586.202,568.336 681.813,648.118 660.781,530.613 			"/>
		</g>
		<g>
			<path style="fill:#FFFFFF;" d="M1103.718,769.752l-0.106-0.191c-16.17-29.085-13.409-65.012,7.015-91.286l-0.191,0.106
				c-29.093,16.165-65.03,13.405-91.312-7.013l0.106,0.191c16.17,29.085,13.409,65.012-7.015,91.286l0.191-0.106
				C1041.499,746.574,1077.436,749.334,1103.718,769.752z"/>
			<path style="fill:#FFFFFF;" d="M814.828,729.334l0.009-0.128c1.441-19.558,14.422-36.365,32.983-42.705l-0.128-0.01
				c-19.563-1.444-36.376-14.425-42.72-32.983l-0.01,0.128c-1.441,19.558-14.422,36.365-32.983,42.705l0.128,0.01
				C791.67,697.795,808.483,710.776,814.828,729.334z"/>
			<path style="fill:#FFFFFF;" d="M1242.425,515.215l0.012-0.159c1.784-24.214,17.855-45.023,40.836-52.872l-0.159-0.012
				c-24.22-1.788-45.036-17.859-52.891-40.835l-0.012,0.159c-1.784,24.214-17.855,45.023-40.835,52.872l0.159,0.012
				C1213.754,476.167,1234.57,492.238,1242.425,515.215z"/>
			<path style="fill:#FFFFFF;" d="M1751.502,922.439l0.011-0.15c1.684-22.853,16.851-42.492,38.54-49.9l-0.15-0.011
				c-22.859-1.687-42.504-16.855-49.918-38.54l-0.011,0.15c-1.684,22.853-16.851,42.492-38.54,49.9l0.15,0.011
				C1724.443,885.587,1744.089,900.754,1751.502,922.439z"/>
		</g>
		<g>
			<path style="fill:#D3BBA3;" d="M1903.824,591.291c-82.075,0-155.429-18.336-212.871-39.576
				c-135.839-50.23-239.815-138.255-282.601-203.213c-0.67-1.017-0.389-2.385,0.628-3.054c1.02-0.671,2.387-0.388,3.054,0.628
				c42.39,64.356,145.547,151.621,280.449,201.503c108.501,40.121,274.257,69.825,447.736-16.5c1.092-0.54,2.411-0.098,2.956,0.993
				c0.542,1.089,0.098,2.414-0.993,2.956C2059.188,576.326,1977.948,591.291,1903.824,591.291z"/>
			<polygon style="fill:#ff6900;" points="1486.006,425.893 1450.378,543.049 1557.731,477.829 			"/>
			<polygon style="fill:#EFBC73;" points="1408.599,341.269 1356.446,448.414 1462.635,404.063 			"/>
			<polygon style="fill:#EFBC73;" points="1714.289,551.578 1729.277,673.154 1795.562,574.156 			"/>
			<polygon style="fill:#ff6900;" points="1834.729,579.769 1866.955,690.34 1926.001,585.837 			"/>
			<polygon style="fill:#EFBC73;" points="1958.547,583.287 2016.125,678.255 2044.887,568.856 			"/>
			<polygon style="fill:#D87355;" points="2079.273,556.407 2159.988,639.577 2148.638,524.652 			"/>
			<polygon style="fill:#D87355;" points="1598.447,501.551 1597.929,624.04 1673.8,534.423 			"/>
		</g>
		<g>
			<g>
				<g>
					<polygon style="fill:#E2A18D;" points="1141.705,1801.953 1060.347,1806.867 1067.831,1701.033 1150.178,1708.5 					"/>
					<path style="fill:#363E44;" d="M1251.324,1857.432l-201.265,0l12.222-79.596h81.571l58.986,17.994
						C1231.747,1803.659,1251.59,1828.871,1251.324,1857.432z"/>
				</g>
				<g>
					<polygon style="fill:#E2A18D;" points="1312.51,1810.433 1231.083,1806.843 1249.555,1702.365 1330.675,1718.371 					"/>
					<path style="fill:#363E44;" d="M1428.243,1857.432l-206.281,0l11.769-79.596h87.04l58.986,17.994
						C1408.666,1803.659,1428.51,1828.871,1428.243,1857.432z"/>
				</g>
				<g>
					<g>
						<path style="fill:#D3BBA3;" d="M1120.483,1099.248c0,0-27.069,77.025-33.574,102.984
							c-37.043,147.828-54.407,532.758-54.407,532.758h147.759c0,0,35.599-281.337,52.351-404.699
							c9.601,22.937,20.417,54.979,28.888,79.643c3.909,11.381,4.776,23.573,2.521,35.393l-46.69,289.663h144.314
							c0,0,76.376-315.28,55.826-377.803c-18.176-55.302-105.12-210.52-105.12-210.52l-5.499-47.419H1120.483z"/>
					</g>
					<polygon style="fill:#E6D0BE;" points="1361.646,1734.99 1374.515,1682.25 1224.997,1683.297 1217.332,1734.99 					"/>
					<polygon style="fill:#E6D0BE;" points="1181.874,1734.99 1187.902,1682.25 1034.304,1683.297 1030.719,1734.99 					"/>
					<path style="fill:#363E44;" d="M1232.615,1332.495c-0.114,0-0.228-0.009-0.343-0.027c-1.204-0.187-2.026-1.316-1.838-2.519
						l11.698-74.785c0.188-1.204,1.333-2.023,2.518-1.838c1.204,0.187,2.026,1.315,1.838,2.518l-11.698,74.786
						C1234.62,1331.719,1233.682,1332.495,1232.615,1332.495z"/>
				</g>
			</g>
			<g>
				<g>
					<path style="fill:#E2A18D;" d="M1346.483,951.173c43.47-11.275,223.138-49.987,210.224-109.575
						c-9.551-44.071-61.525-36.662-203.93,1.481C1358.168,874.947,1341.092,919.305,1346.483,951.173z"/>
					<g>
						<g>
							<path style="fill:#E2A18D;" d="M1574.656,644.837c-4.188-1.675-9.523,1.146-10.641,1.996c-0.316-4.135-2.17-8.22-7.169-9.933
								c-4.439-1.52-9.661,2.271-10.1,2.627c-0.12-0.55,1.2-6.188-4.872-9.487c-4.103-2.229-8.963-0.411-10.335,0.528
								c-0.276-0.629-1.858-5.312-6.632-6.684c-13.045-3.749-24.825,25.751-35.341,66.436
								c-22.096,85.487-26.319,136.872-26.545,137.717c-4.071,15.117,68.854,12.839,93.173,26.197
								c0.369-1.963,11.007-27.217,13.548-151.211c0.265-12.94,8.094-36.26,10.196-44.89
								C1581.083,653.431,1580.102,647.014,1574.656,644.837z"/>
							<path style="fill:#E2A18D;" d="M1501.554,668.241c-7.112-38.271-16.237-40.465-20.342-37.959
								c-13.94,8.508,1.348,101.491,1.348,101.491S1493.416,696.564,1501.554,668.241z"/>
						</g>
					</g>
				</g>
				<path style="fill:#FFFFFF;" d="M1035.975,940.614c0,0,27.755-137.696,173.64-138.912
					c138.912-1.158,177.073,13.412,177.073,13.412l14.818,131.27l-55.023,4.788l6.674,178.13l-270.878-1.158l21.223-172.289
					L1035.975,940.614z"/>
				<path style="fill:#363E44;" d="M1201.4,979.516l-22.191-4.751c-1.191-0.255-1.949-1.427-1.694-2.618
					c0.256-1.19,1.423-1.945,2.618-1.694l16.858,3.61v-50.233c0-1.218,0.987-2.205,2.205-2.205c1.218,0,2.205,0.987,2.205,2.205
					V979.516z"/>
				<path style="fill:#D87355;" d="M1148.578,1240.446c196.41-174.598,291.71-391.623,359.636-627.231l28.412,52.508l91.604-36.37
					c-225.235,473.729-339.605,631.417-444.376,669.888L1148.578,1240.446z"/>
				<g>
					<path style="fill:#E2A18D;" d="M1179.671,972.609l4.783,55.651l-14.33,62.667l-37.742-10.65
						c-37.594-11.91-61.229-25.038-66.543-85.033l-4.678-48.86L1179.671,972.609z"/>
					<path style="fill:#E2A18D;" d="M1117.064,1074.65c32.661,12.086,37,15.389,106.854,27.76
						c29.742,5.268,54.783,8.145,70.137,12.5c5.558,0.333,38.402,16.405,42.396,6.711c2.981-7.235-22.868-18.593-28.973-22.631
						c6.099,1.058,45.027,22.603,49.583,11.5c4.73-11.529-34.734-26.762-39.865-29.29c0.483-0.037,52.197,20.055,57.463,9.558
						c5.116-10.199-38.947-25.482-48.665-30.136c9.077,2.547,49.709,14.194,53.036,6.057c5.139-12.57-40.452-26.862-72.274-35.6
						c12.6-9.745,17.589-17.196,14.688-20.419c-1.472-1.635-18.784-0.093-41.737,13.19c-11.875-3.249-78.68-20.667-118.024-32.275
						c-27.209,11.477-53.836,22.51-81.045,33.987C1082.919,1055.523,1104.396,1069.962,1117.064,1074.65z"/>
					<g>
						
							<rect x="1234.365" y="1013.692" transform="matrix(-0.9715 -0.2372 0.2372 -0.9715 2205.5649 2388.9385)" style="fill:#EFBC73;" width="24.205" height="96.243"/>
						<path style="fill:#363E44;" d="M1246.819,1079.301c-10.528,0-19.092-8.564-19.092-19.092c0-10.528,8.564-19.092,19.092-19.092
							s19.092,8.564,19.092,19.092C1265.911,1070.737,1257.347,1079.301,1246.819,1079.301z M1246.819,1045.527
							c-8.096,0-14.682,6.587-14.682,14.682c0,8.096,6.587,14.682,14.682,14.682s14.682-6.587,14.682-14.682
							C1261.501,1052.114,1254.915,1045.527,1246.819,1045.527z"/>
					</g>
				</g>
				<path style="fill:#E2A18D;" d="M1566.116,683.362c-1.929,1.102-9.508-2.343-8.244-13.521l0.901-5.379l-3.681,9.392
					c-1.557,3.92-5.965,6.738-10.101,5.914c-4.816-0.961-7.894-5.702-6.811-10.492l3.147-13.919l-2.228,6.528
					c-5.107,12.829-17.426,8.601-13.949-3.809l2.454-9.62l-3.899,10.756c-1.215,3.06-4.443,4.816-7.672,4.172
					c-3.76-0.75-6.164-4.452-5.318-8.192l2.457-10.868l4.851-14.566l56.085,21.084
					C1573.723,665.127,1573.006,685.567,1566.116,683.362z"/>
				<path style="fill:#363E44;" d="M1564.271,686.122c-2.755,0-4.83-0.8-6.333-2.441c-1.305-1.422-2.105-3.445-2.418-6.182
					c-2.61,3.362-6.941,5.231-10.959,4.429c-2.917-0.581-5.416-2.276-7.035-4.77c-1.391-2.142-1.979-4.637-1.702-7.135
					c-2.628,1.891-5.476,2.237-7.768,1.463c-2.653-0.897-4.994-3.435-5.579-7.358c-1.955,1.347-4.416,1.91-6.872,1.417
					c-2.408-0.48-4.47-1.879-5.806-3.937c-1.336-2.058-1.773-4.51-1.233-6.903l2.457-10.868l3.369-10.147
					c0.384-1.154,1.629-1.786,2.788-1.395c1.155,0.384,1.78,1.633,1.395,2.788l-3.309,9.937l-2.398,10.658
					c-0.278,1.223-0.054,2.476,0.63,3.529c0.682,1.053,1.737,1.768,2.969,2.014c2.178,0.43,4.369-0.753,5.19-2.823l3.877-10.695
					c0.399-1.104,1.59-1.708,2.722-1.355c1.124,0.346,1.777,1.513,1.487,2.652l-2.455,9.62c-1.402,5.007,0.151,8.002,2.18,8.689
					c2.163,0.724,5.462-0.91,7.584-6.24l2.19-6.425c0.379-1.11,1.561-1.726,2.686-1.41c1.128,0.32,1.81,1.465,1.551,2.608
					l-3.147,13.919c-0.392,1.732-0.075,3.506,0.891,4.995c0.967,1.49,2.458,2.501,4.2,2.849c2.908,0.582,6.407-1.508,7.621-4.566
					l3.308-8.273c0.411-1.029,1.523-1.593,2.597-1.316c1.074,0.276,1.775,1.306,1.639,2.406l-0.527,4.256
					c-0.777,6.884,0.184,9.56,1.127,10.589c0.403,0.438,1.155,1.009,3.072,1.011c3.759-1.452,9.101-18.08,9.576-33.832
					c0.037-1.218,1.036-2.226,2.271-2.137c1.217,0.037,2.174,1.053,2.137,2.271c-0.356,11.831-4.694,35.935-13.106,38.039
					c-0.156,0.039-0.317,0.06-0.477,0.065C1564.528,686.12,1564.398,686.122,1564.271,686.122z"/>
			</g>
			<g>
				<path style="fill:#E2A18D;" d="M1279.839,725.03c-6.484,8.47-5.896,19.809,1.312,25.327c7.208,5.518,18.308,3.125,24.791-5.345
					c6.484-8.47,5.896-19.809-1.312-25.327C1297.422,714.167,1286.323,716.56,1279.839,725.03z"/>
				
					<ellipse transform="matrix(0.8676 -0.4972 0.4972 0.8676 -204.8077 686.7043)" style="fill:#E2A18D;" cx="1187.244" cy="727.986" rx="16.437" ry="19.313"/>
				
					<rect x="1193.032" y="652.889" transform="matrix(-0.9977 -0.0675 0.0675 -0.9977 2435.1118 1469.3098)" style="fill:#363E44;" width="98.663" height="81.306"/>
				<path style="fill:#E2A18D;" d="M1239.211,848.832c19.058-0.576,34.04-16.492,33.465-35.549l-2.329-77.104l-69.014,2.084
					l2.329,77.104C1204.237,834.425,1220.153,849.408,1239.211,848.832z"/>
				<path style="fill:#E2A18D;" d="M1192.408,728.858c-2.045,30.715,17.488,57.025,43.628,58.766
					c26.14,1.74,48.989-21.748,51.034-52.463c2.045-30.715-17.62-48.583-43.76-50.323
					C1217.17,683.098,1194.453,698.144,1192.408,728.858z"/>
				<path style="fill:#363E44;" d="M1327.843,668.394c-1.621-4.465-11.821-5.219-24.183-2.254c3.766-5.338,5.143-9.98,3.151-12.416
					c-2.222-2.716-8.104-2.05-15.266,1.175c5.256-3.758,8.058-7.621,7.005-10.523c-1.839-5.066-14.711-5.362-29.268-0.859
					c2.461-10.458,1.732-18.802-2.342-20.379c-4.346-1.682-11.154,4.849-16.699,15.333c-0.979-7.722-3.498-13.021-7.013-13.458
					c-1.673-0.208-3.384,0.732-5.014,2.532c-2.608-5.137-5.674-8.161-8.563-7.812c-4.224,0.511-6.869,8.079-7.053,18.46
					c-5.839-4.222-10.523-5.991-12.701-4.289c-2.365,1.848-1.286,7.412,2.306,14.754c-10.716-8.926-19.906-13.516-22.931-10.771
					c-2.274,2.063-0.575,7.85,3.919,15.319c-6.376-2.581-11.295-3.06-13.126-0.777c-2.331,2.906,0.928,9.534,7.69,17.014
					c-6.615,1.044-11.12,3.455-11.511,6.765c-0.35,2.962,2.672,6.032,7.736,8.536c-11.192,0.876-19.268,4.148-19.454,8.479
					c-0.241,5.61,12.821,10.855,29.176,11.716c16.355,0.86,29.809-2.991,30.051-8.602c0.031-0.719-0.164-1.432-0.549-2.131
					c4.878,1.649,8.613,1.813,10.367,0.179c5.622,3.322,9.973,4.511,11.874,2.785c1.409-1.277,1.272-4-0.08-7.645
					c6.375,5.055,11.659,7.55,14.384,6.418c2.704,1.844,5.809,3.612,9.216,5.183c13.251,6.111,25.934,6.948,28.329,1.869
					c1.273-2.699-0.639-6.525-4.677-10.435c10.957,2.572,19.7,1.929,21.251-2.117c0.681-1.776-0.139-3.98-2.077-6.338
					C1322.578,679.06,1329.399,672.68,1327.843,668.394z"/>
				<path style="fill:#363E44;" d="M1238.787,789.921c-0.964,0-1.929-0.032-2.897-0.097c-13.298-0.886-25.376-7.777-34.008-19.403
					c-0.727-0.977-0.522-2.359,0.455-3.084c0.979-0.729,2.358-0.522,3.084,0.455c7.849,10.572,18.774,16.834,30.761,17.633
					c11.993,0.791,23.646-3.961,32.826-13.399c0.848-0.874,2.246-0.891,3.118-0.043c0.873,0.849,0.892,2.245,0.043,3.118
					C1262.808,784.724,1251.05,789.921,1238.787,789.921z"/>
				<path style="fill:#363E44;" d="M1192.182,745.989c-1.059,0-1.994-0.765-2.172-1.844c-0.837-5.045-1.085-10.241-0.739-15.448
					c0.309-4.639,1.087-9.223,2.315-13.626c0.327-1.173,1.544-1.858,2.716-1.532c1.172,0.327,1.858,1.543,1.532,2.716
					c-1.147,4.112-1.874,8.397-2.164,12.735c-0.323,4.867-0.092,9.724,0.689,14.434c0.199,1.202-0.613,2.337-1.814,2.535
					C1192.423,745.979,1192.301,745.989,1192.182,745.989z"/>
				<path style="fill:#363E44;" d="M1285.397,751.851c-0.211,0-0.425-0.031-0.638-0.095c-1.165-0.352-1.825-1.583-1.474-2.748
					c1.356-4.495,2.206-9.198,2.525-13.978c0.294-4.42,0.129-8.846-0.491-13.155c-0.173-1.206,0.663-2.323,1.868-2.497
					c1.198-0.167,2.324,0.662,2.496,1.868c0.664,4.613,0.841,9.349,0.525,14.076c-0.34,5.113-1.249,10.146-2.701,14.96
					C1287.219,751.235,1286.343,751.851,1285.397,751.851z"/>
				<g>
					<g>
						<path style="fill:#FFFFFF;" d="M1247.301,734.676c0,0,4.022,2.242,9.473,3.039c2.477,0.363,6.276-4.872,6.276-4.872
							s5.69,3.567,7.384,2.693c5.764-2.971,9.366-7.616,9.366-7.616s-3.443-1.898-8.238-2.824c-2.784-0.537-9.402,5.565-9.402,5.565
							s-7.209-2.845-9.737-0.912C1249.172,732.235,1247.301,734.676,1247.301,734.676z"/>
						<path style="fill:#363E44;" d="M1252.416,729.752c2.531-1.94,5.891-3.898,9.832-4.717c3.295-0.685,6.531-0.474,9.314,0.062
							c1.596,3.362,1.217,7.408-1.108,10.435c-1.692,0.872-3.565,1.608-5.602,2.032c-2.818,0.586-5.595,0.518-8.08,0.151
							c-0.534-0.368-1.042-0.789-1.512-1.271C1253.436,734.573,1252.497,732.173,1252.416,729.752z"/>
					</g>
					<g>
						<path style="fill:#FFFFFF;" d="M1231.336,734.081c0,0-5.072,1.765-11.156,1.338c-2.146-0.151-5.634-5.177-5.634-5.177
							s-6.014,1.069-7.925-0.652c-4.002-3.604-6.188-7.625-6.188-7.625s3.086-1.069,7.314-1.344
							c3.119-0.203,8.538,5.168,8.538,5.168s7.723-0.5,9.77,1.494C1229.521,730.66,1231.336,734.081,1231.336,734.081z"/>
						<path style="fill:#363E44;" d="M1218.219,722.067c3.172,1.244,5.796,3.223,7.843,5.219c-0.286,2.74-1.676,5.354-4.079,7.103
							c-0.568,0.414-1.165,0.758-1.782,1.037c-2.148-0.15-4.424-0.572-6.652-1.445c-2.76-1.082-5.099-2.721-7.011-4.443
							c-1.036-2.993-0.584-6.307,1.177-8.918C1210.836,720.415,1214.592,720.644,1218.219,722.067z"/>
					</g>
				</g>
				<path style="fill:#363E44;" d="M1236.175,751.651c-0.481,0-0.966-0.156-1.372-0.479c-2.047-1.628-3.09-3.406-3.099-5.287
					c-0.007-1.745,0.868-2.922,1.571-3.867c0.513-0.691,0.957-1.288,1.149-2.146c0.178-0.792,0.11-1.673-0.203-2.617
					c-0.383-1.155,0.243-2.403,1.4-2.786c1.158-0.384,2.403,0.244,2.786,1.4c0.567,1.713,0.676,3.385,0.321,4.968
					c-0.396,1.772-1.272,2.951-1.913,3.812c-0.488,0.656-0.701,0.969-0.7,1.216c0.002,0.448,0.538,1.142,1.435,1.855
					c0.953,0.758,1.111,2.145,0.353,3.098C1237.467,751.366,1236.824,751.651,1236.175,751.651z"/>
				<path style="fill:#363E44;" d="M1243.585,762.566c-0.543,0-1.023-0.028-1.422-0.066c-1.212-0.114-2.104-1.189-1.99-2.401
					c0.113-1.212,1.185-2.109,2.401-1.99c1.381,0.126,4.089,0.101,6.725-1.545c1.741-1.087,2.822-2.49,3.421-3.477
					c0.632-1.04,1.987-1.371,3.031-0.737c1.04,0.633,1.37,1.99,0.738,3.031c-1.217,1.999-2.895,3.702-4.853,4.924
					C1248.672,762.156,1245.667,762.566,1243.585,762.566z"/>
				<g>
					<path style="fill:#EFBC73;" d="M1199.939,664.072c0,0,39.027-3.813,68.615-29.615l-44.91-49.339l-13.716-15.063l-17.53-19.261
						l3.696,55.509l1.205,18.087L1199.939,664.072z"/>
					<g>
						<path style="fill:#D87355;" d="M1211.019,585.977c3.971,2.73,9.207,2.257,12.625-0.858l-13.716-15.063
							c-0.562,0.508-1.083,1.1-1.533,1.755C1205.208,576.447,1206.383,582.79,1211.019,585.977z"/>
						<path style="fill:#ff6900;" d="M1197.299,624.391c4.382,1.905,9.631,0.504,12.434-3.573
							c3.194-4.646,2.019-10.989-2.627-14.182c-3.393-2.332-7.698-2.326-11.013-0.332L1197.299,624.391z"/>
						
							<ellipse transform="matrix(0.7803 -0.6254 0.6254 0.7803 -119.9793 909.7071)" style="fill:#FFFFFF;" cx="1234.694" cy="625.607" rx="11.611" ry="11.611"/>
					</g>
				</g>
			</g>
		</g>
		<g>
			<g>
				<polygon style="fill:#E0AA63;" points="699.503,1349.503 1174.472,1281.826 1641.538,1315.111 1216.339,1402.939 				"/>
				<polygon style="fill:#E0AA63;" points="1625.837,2044.073 1217.086,2163.255 1216.873,1542.396 1625.837,1423.526 				"/>
				<polygon style="fill:#EFBC73;" points="1217.086,2163.255 739.364,2095.468 739.364,1475.108 1217.086,1542.895 				"/>
				<polygon style="fill:#FFD092;" points="1216.34,1566.665 699.503,1488.566 699.503,1349.503 1216.34,1402.939 				"/>
				<polygon style="fill:#EFBC73;" points="1643.033,1461.65 1216.34,1567.816 1216.34,1402.939 1641.538,1315.111 				"/>
				<polygon style="fill:#D87355;" points="1033.924,2138.587 932.021,2121.823 931.273,1372.431 1033.95,1383.396 				"/>
				<polygon style="fill:#D87355;" points="1487.523,2085.188 1384.555,2114.665 1384.347,1367.821 1487.523,1346.139 				"/>
				<polygon style="fill:#D87355;" points="931.273,1372.431 1324.536,1292.682 1440.172,1300.657 1033.95,1383.396 				"/>
				<polygon style="fill:#D87355;" points="1487.523,1346.139 1059.37,1297.666 953.703,1313.616 1384.347,1367.821 				"/>
				<path style="fill:#363E44;" d="M932.021,2124.027c-1.216,0-2.202-0.983-2.205-2.198l-2.016-714.398
					c-0.003-1.218,0.981-2.208,2.198-2.211c0.002,0,0.004,0,0.006,0c1.215,0,2.202,0.983,2.205,2.198l2.016,714.398
					c0.003,1.218-0.981,2.208-2.198,2.211C932.025,2124.027,932.023,2124.027,932.021,2124.027z"/>
			</g>
			<path style="fill:#B77250;" d="M1075.196,1265.077c-10.014-5.049-223.239-114.477-221.236-113.467
				c2.003,1.01,13.764,46.868,13.764,46.868l-48.214,14.867l249.169,101.195L1075.196,1265.077z"/>
			<g>
				<path style="fill:#B77250;" d="M1215.395,1336.544c-130.556-79.619-218.768-149.6-189.996-192.953
					c10.714-16.144,31.519-17.802,44.754-4.298C1105.083,1174.935,1164.661,1265.612,1215.395,1336.544z"/>
				<path style="fill:#D87355;" d="M1215.395,1336.544c-127.414-2.674-226.617-8.871-270.06-22.033
					c-14.421-4.369-24.651-18.887-25.358-35.855c-3.224-77.329,74.292-167.652,139.316-146.22
					C985.951,1141.408,1055.518,1225.267,1215.395,1336.544z"/>
				<path style="fill:#B77250;" d="M1185.444,1336.544c163.621-92.889,265.329-172.66,177.801-212.332
					C1328.23,1124.461,1252.894,1248.759,1185.444,1336.544z"/>
				<path style="fill:#D87355;" d="M1185.444,1336.544c136.871-2.674,243.438-8.871,290.105-22.033
					c15.491-4.369,26.48-18.887,27.24-35.855c3.463-77.329-47.559-161.671-139.544-154.444
					C1424.955,1151.428,1357.188,1225.267,1185.444,1336.544z"/>
				<path style="fill:#363E44;" d="M1177.755,1338.899l6.491-4.206c137.778-89.269,206.189-152.642,203.334-188.357
					c-0.842-10.526-7.871-18.562-21.488-24.568l-8.004-3.53l8.721-0.686c37.757-2.97,71.594,8.871,97.827,34.236
					c31.131,30.101,49.15,78.286,47.025,125.751c-0.823,18.376-12.645,33.901-29.416,38.631
					c-43.015,12.132-140.085,19.517-296.756,22.579L1177.755,1338.899z M1375.238,1121.545c10.32,6.283,15.941,14.478,16.738,24.44
					c2.989,37.396-62.083,98.99-198.856,188.199c151.769-3.143,245.984-10.429,287.927-22.258
					c14.938-4.213,25.47-18.111,26.208-34.585c2.07-46.24-15.435-93.134-45.685-122.383
					C1438.156,1132.318,1408.478,1120.856,1375.238,1121.545z"/>
				<path style="fill:#363E44;" d="M1228.585,1338.901l-7.293-0.153c-150.077-3.15-243.068-10.752-284.288-23.24
					c-16.081-4.871-27.415-20.819-28.202-39.684c-2.029-48.686,26.052-104.976,68.289-136.887
					c27.09-20.468,55.84-27.179,80.955-18.901l9.362,3.085l-9.784,1.197c-16.417,2.008-25.893,7.671-28.164,16.829
					c-7.836,31.59,64.365,103.958,193.138,193.586L1228.585,1338.901z M1036.277,1120.996c-18.315,0-37.79,7.303-56.528,21.46
					c-41.151,31.09-68.514,85.859-66.542,133.186c0.709,16.993,10.786,31.318,25.076,35.646
					c40.164,12.169,130.424,19.663,275.825,22.893c-128.446-90.079-197.218-160.675-188.928-194.095
					c2.203-8.882,9.501-14.995,21.742-18.241C1043.428,1121.278,1039.875,1120.996,1036.277,1120.996z"/>
				<polygon style="fill:#D87355;" points="1180.987,1290.688 1221.36,1286.202 1223.853,1348.008 1165.038,1349.005 				"/>
				<path style="fill:#363E44;" d="M1171.725,1351.075c-2.582,0-4.931-1.255-6.303-3.374c-1.303-2.01-1.478-4.496-0.472-6.65
					c5.87-12.557,9.836-26.592,12.124-42.909c0.784-5.582,5.379-9.908,11.175-10.519l28.275-2.979
					c2.193-0.228,4.33,0.504,5.873,2.013c1.453,1.421,2.193,3.378,2.029,5.368c-1.28,15.543-0.625,31.858,1.944,48.488
					c0.367,2.377-0.323,4.806-1.893,6.666c-1.658,1.965-4.118,3.116-6.75,3.158l-45.876,0.738
					C1171.81,1351.074,1171.767,1351.075,1171.725,1351.075z M1188.712,1292.009c-3.78,0.398-6.769,3.173-7.271,6.747
					c-2.351,16.756-6.439,31.202-12.497,44.162c-0.498,1.067-0.102,1.953,0.178,2.386c0.564,0.869,1.537,1.416,2.659,1.361
					l45.876-0.737c1.358-0.021,2.616-0.602,3.451-1.592c0.758-0.898,1.079-2.016,0.904-3.149
					c-2.623-16.971-3.289-33.633-1.981-49.522c0.076-0.927-0.417-1.559-0.717-1.853c-0.603-0.59-1.457-0.881-2.328-0.781
					L1188.712,1292.009z"/>
				<path style="fill:#363E44;" d="M1187.423,1292.189l-1.439-2.13c-27.83-41.195-56.607-83.792-80.507-115.653
					c-32.567-43.412-44.712-51.422-49.152-50.526c-1.201,0.248-2.358-0.524-2.603-1.716c-0.245-1.194,0.523-2.359,1.717-2.603
					c16.873-3.456,64.067,64.218,134.099,167.883l20.19-2.807c12.743-15.783,26.394-34.449,40.834-54.196
					c44.567-60.941,90.64-123.967,118.442-112.248c1.123,0.473,1.649,1.766,1.176,2.887c-0.473,1.123-1.769,1.65-2.887,1.176
					c-24.565-10.343-71.645,54.003-113.17,110.788c-14.68,20.075-28.546,39.035-41.516,55.044l-0.547,0.676L1187.423,1292.189z"/>
			</g>
		</g>
		<g>
			<path style="fill:#363E44;" d="M1852.706,1013.958c17.971-9.75,40.236-18.205,58.739-4.513
				c11.326,8.382,9.854,25.004,18.575,34.659c12.686,14.045,31.695,11.388,41.228,25.824c15.857,24.012-13.716,41.081-3.171,57.991
				c8.83,14.161,33.289,6.944,50.697,24.595c13.364,13.551,12.272,43.128-0.501,60.525c-22.948,31.252-81.597,20.471-114.046,14.506
				c-48.269-8.873-95.289-17.516-115.547-57.023C1760.482,1115.531,1800.899,1042.065,1852.706,1013.958z"/>
			<g>
				<path style="fill:#BC8271;" d="M1942.206,1830.258l-182.208-182.041l181.223-77.926l-215.492-98.779
					c0,0-168.68,108.563-154.04,166.725c16.764,66.6,193.908,175.786,299.549,248.647L1942.206,1830.258z"/>
				<polygon style="fill:#363E44;" points="1871.238,1886.885 1890.429,1965.265 1875.774,2005.876 1903.046,2036.188 
					1976.705,1971.746 1936.411,1878.188 1936.454,1878.15 1995.97,1953.194 2050.532,1904.104 1964.689,1852.747 
					1964.703,1852.735 1942.206,1830.258 				"/>
				<path style="fill:#BC8271;" d="M1841.942,2022.42l-20.065-265.204l104.656-237.855l-183.488-32.62
					c-2.397,50.455-35.574,186.584-35.339,255.524c0.229,66.744,26.102,167.838,44.985,283.639L1841.942,2022.42z"/>
				<polygon style="fill:#363E44;" points="1841.942,2022.42 1845.014,2063.028 1844.997,2063.028 1874.464,2158.624 
					1801.068,2158.624 1807.505,2063.028 1806.958,2063.028 1774.338,2159.529 1676.477,2158.171 1676.477,2117.396 
					1714.535,2097.008 1752.692,2025.903 				"/>
				<path style="fill:#363E44;" d="M1709.622,1778.773c-1.122,0-2.081-0.851-2.192-1.991c-1.262-12.895-1.893-24.184-1.928-34.51
					c-0.137-40.164,10.99-102.899,20.806-158.249c2.472-13.937,4.806-27.102,6.896-39.519c0.202-1.199,1.33-2.007,2.541-1.809
					c1.2,0.202,2.01,1.34,1.809,2.541c-2.094,12.436-4.431,25.609-6.904,39.557c-9.784,55.168-20.874,117.695-20.738,157.464
					c0.036,10.187,0.659,21.34,1.907,34.097c0.119,1.211-0.768,2.29-1.98,2.408
					C1709.766,1778.769,1709.693,1778.773,1709.622,1778.773z"/>
				<path style="fill:#363E44;" d="M1829.467,1859.763c-1.142,0-2.109-0.881-2.196-2.038l-7.592-100.343
					c-0.028-0.362,0.034-0.723,0.18-1.055l15.045-34.192c0.492-1.115,1.792-1.62,2.907-1.13c1.114,0.491,1.62,1.792,1.13,2.907
					l-14.823,33.687l7.55,99.793c0.093,1.214-0.818,2.274-2.031,2.365C1829.579,1859.761,1829.523,1859.763,1829.467,1859.763z"/>
			</g>
			<g>
				<g>
					<path style="fill:#BC8271;" d="M1841.346,1202.321c11.694-42.62-65.348-52.545-104.86-61.521
						c-34.421-7.819-136.216-28.462-141.039,5.055c-4.815,33.47,37.014,57.06,104.373,82.584
						C1850.94,1285.705,1831.416,1238.515,1841.346,1202.321z"/>
					<path style="fill:#BC8271;" d="M1679.781,1140.454c0-0.002-50.869-141.392-59.132-159.229
						c-0.865-1.868-2.378-5.171-5.434-8.772c-11.323-13.342-25.69-9.382-43.998-17.978c-20.773-9.754-26.947-27.007-32.27-24.555
						c-3.703,1.706-3.206,8.869,3.046,21.923c0,0.001-0.001,0.002-0.002,0.001c-5.89-9.372-14.433-21.733-19.603-18.463
						c-5.767,4.095,2.564,19.797,8.068,29.049c-6.662-11.199-13.556-15.161-15.984-12.619c-3.822,4-0.678,13.888,8.702,28.347
						c0,0.001,0,0.001,0,0.001c-9.266-8.175-12.732-8.777-14.331-6.008c-2.918,5.057,5.017,16.8,13.623,26.105
						c9.688,10.476,20.837,15.239,27.937,18.075c0.002,0.001,0.003,0.002,0.004,0.005c19.753,59.954,31.417,97.153,46.557,145.845
						C1604.757,1187.235,1684.948,1192.498,1679.781,1140.454z"/>
					<path style="fill:#BC8271;" d="M1586.171,966.276c-7.948-21.271-6.307-30.627-2.896-31.779
						c5.736-1.938,19.955,13.444,35.488,43.068C1609.4,975.234,1595.533,968.607,1586.171,966.276z"/>
					<path style="fill:#363E44;" d="M1605.712,968.047c-0.324,0-0.652-0.071-0.964-0.223c-4.222-2.057-8.791-3.051-14.081-4.202
						c-2.476-0.538-5.036-1.096-7.718-1.802c-1.178-0.31-1.881-1.516-1.571-2.693c0.31-1.179,1.514-1.883,2.693-1.572
						c2.59,0.683,5.103,1.229,7.534,1.758c5.337,1.161,10.377,2.257,15.075,4.546c1.095,0.533,1.55,1.853,1.016,2.948
						C1607.314,967.592,1606.529,968.047,1605.712,968.047z"/>
					<path style="fill:#363E44;" d="M1682.501,1149.304c-0.882,0-1.714-0.533-2.054-1.403c-0.042-0.107-4.164-10.658-6.529-17.211
						c-0.413-1.144,0.18-2.408,1.325-2.822c1.139-0.412,2.407,0.178,2.822,1.325c2.347,6.498,6.448,16.997,6.488,17.101
						c0.444,1.135-0.116,2.414-1.25,2.856C1683.039,1149.255,1682.767,1149.304,1682.501,1149.304z"/>
					<path style="fill:#363E44;" d="M1584.913,1006.286c-0.895,0-1.736-0.549-2.066-1.437c-1.302-3.496-3.973-8.483-9.308-12.387
						c-7.552-5.526-15.791-5.336-18.983-4.996c-1.212,0.124-2.297-0.75-2.425-1.96c-0.128-1.211,0.749-2.296,1.96-2.426
						c3.704-0.39,13.259-0.61,22.051,5.823c6.218,4.55,9.325,10.347,10.837,14.409c0.425,1.141-0.156,2.411-1.297,2.835
						C1585.429,1006.241,1585.169,1006.286,1584.913,1006.286z"/>
					<path style="fill:#363E44;" d="M1557.981,967.136c-0.342,0-0.689-0.08-1.014-0.249c-2.571-1.335-5.031-2.918-7.309-4.7
						c-3.303-2.586-6.255-5.612-8.773-8.996c-0.727-0.977-0.524-2.359,0.452-3.085c0.981-0.727,2.359-0.524,3.085,0.452
						c2.283,3.069,4.96,5.814,7.953,8.156c2.065,1.617,4.294,3.05,6.624,4.261c1.081,0.561,1.502,1.891,0.94,2.972
						C1559.548,966.704,1558.778,967.136,1557.981,967.136z"/>
					<path style="fill:#363E44;" d="M1545.635,976.241c-0.342,0-0.689-0.08-1.014-0.249c-2.57-1.335-5.03-2.916-7.309-4.699
						c-3.304-2.587-6.255-5.613-8.773-8.997c-0.727-0.978-0.524-2.359,0.452-3.086c0.979-0.727,2.36-0.523,3.085,0.452
						c2.283,3.069,4.96,5.814,7.954,8.157c2.065,1.616,4.293,3.049,6.623,4.26c1.081,0.561,1.502,1.891,0.94,2.972
						C1547.202,975.808,1546.432,976.241,1545.635,976.241z"/>
					<path style="fill:#363E44;" d="M1538.793,993.604c-0.342,0-0.689-0.08-1.014-0.249c-2.571-1.335-5.031-2.917-7.309-4.7
						c-3.303-2.586-6.255-5.612-8.773-8.996c-0.727-0.977-0.524-2.359,0.452-3.085c0.98-0.727,2.359-0.524,3.085,0.452
						c2.283,3.069,4.96,5.813,7.953,8.156c2.065,1.617,4.294,3.05,6.624,4.261c1.081,0.561,1.502,1.892,0.94,2.972
						C1540.359,993.171,1539.589,993.604,1538.793,993.604z"/>
				</g>
				<g>
					<path style="fill:#BC8271;" d="M1947.406,1193.927c31.763-18.443,77.341,49.908,97.336,84.016
						c17.418,29.713,57.419,113.709,27.664,128.074c-29.714,14.344-60.692-20.385-107.583-72.746
						C1903.348,1264.624,1919.895,1209.9,1947.406,1193.927z"/>
					<g>
						<path style="fill:#BC8271;" d="M1997.61,1351.713c31.317-48.868,92.242-134.033,94.946-160.177
							c0.554-5.355,6.179-24.324-4.781-31.421c-9.495-6.148-23.32,2.005-25.615-2.049c-1.12-1.977,1.537-10.929,17.077-17.247
							c-0.038-0.587-1.11-6.575,1.878-10.246c3.653-4.487,9.501-3.714,10.075-3.586c-0.769-3.33-0.085-7.001,1.281-8.88
							c2.086-2.87,6.233-4.013,12.38-3.415c-0.341-1.964-0.884-4.646,1.964-8.197c6.233-7.77,29.376,1.677,41.922,15.711
							c15.324,17.139,12.998,43.149,9.734,63.012c-12.867,78.321-59.061,175.27-77.869,213.115
							C2052.938,1382.793,2025.274,1367.253,1997.61,1351.713z"/>
						<path style="fill:#363E44;" d="M2007.898,1338.121c-0.417,0-0.838-0.117-1.211-0.364c-1.016-0.67-1.297-2.038-0.628-3.054
							c4.465-6.773,9.24-13.948,14.167-21.347c7.681-11.538,15.623-23.469,23.37-35.357c0.666-1.021,2.03-1.308,3.051-0.644
							c1.021,0.665,1.308,2.031,0.644,3.051c-7.759,11.906-15.707,23.846-23.394,35.393c-4.923,7.394-9.696,14.563-14.156,21.33
							C2009.317,1337.772,2008.615,1338.121,2007.898,1338.121z"/>
						<path style="fill:#363E44;" d="M2100.666,1149.424c-0.486,0-0.973-0.159-1.38-0.487c-2.943-2.365-6.271-4.052-9.889-5.011
							c-2.864-0.761-5.825-1.032-8.801-0.814c-1.221,0.089-2.271-0.821-2.362-2.035c-0.09-1.214,0.82-2.273,2.035-2.362
							c3.469-0.257,6.919,0.06,10.26,0.948c4.217,1.119,8.094,3.082,11.521,5.837c0.949,0.762,1.1,2.15,0.337,3.099
							C2101.951,1149.142,2101.311,1149.424,2100.666,1149.424z"/>
						<path style="fill:#363E44;" d="M2111.673,1135.272c-0.486,0-0.973-0.159-1.38-0.487c-2.946-2.366-6.272-4.053-9.888-5.013
							c-2.869-0.761-5.834-1.033-8.801-0.813c-1.234,0.097-2.274-0.819-2.363-2.034c-0.091-1.214,0.82-2.273,2.034-2.363
							c3.463-0.261,6.916,0.06,10.261,0.946c4.216,1.119,8.092,3.083,11.521,5.839c0.949,0.762,1.1,2.15,0.337,3.099
							C2112.958,1134.99,2112.318,1135.272,2111.673,1135.272z"/>
						<path style="fill:#363E44;" d="M2125.536,1125.071c-0.545,0-1.09-0.2-1.516-0.604c-2.743-2.596-5.923-4.545-9.452-5.793
							c-2.795-0.989-5.724-1.501-8.708-1.52c-1.218-0.008-2.198-1.001-2.191-2.219c0.008-1.213,0.994-2.191,2.205-2.191
							c0.004,0,0.01,0,0.014,0c3.477,0.023,6.892,0.619,10.15,1.772c4.114,1.455,7.819,3.725,11.013,6.749
							c0.884,0.837,0.923,2.232,0.085,3.117C2126.704,1124.839,2126.121,1125.071,2125.536,1125.071z"/>
					</g>
				</g>
				<g>
					<path style="fill:#ff6900;" d="M1529.442,1534.411l473.465,151.056l-78.531-305.549l75.969-197.951l-218.927-30.036
						l-3.919,67.637c-10.642,5.246-17.966,16.197-17.966,28.864c0,11.335,5.868,21.293,14.727,27.022l-4.916,84.832
						L1529.442,1534.411z"/>
					<path style="fill:#363E44;" d="M1889.043,1310.617c-10.802,0-20.764-4.93-27.329-13.524c-0.74-0.968-0.554-2.351,0.413-3.09
						c0.967-0.742,2.351-0.554,3.09,0.413c5.725,7.493,14.409,11.791,23.826,11.791c14.227,0,26.582-10.107,29.376-24.032
						c0.239-1.193,1.396-1.968,2.596-1.728c1.194,0.24,1.968,1.402,1.728,2.596
						C1919.536,1299.02,1905.363,1310.617,1889.043,1310.617z"/>
				</g>
			</g>
			<g>
				<path style="fill:#BC8271;" d="M1915.824,1065.905c5.985,25.265-5.554,67.862-30.819,73.848
					c-25.265,5.985-54.688-26.909-60.673-52.175c-5.985-25.265,12.012-43.832,37.277-49.817
					C1886.873,1031.776,1909.839,1040.639,1915.824,1065.905z"/>
				
					<ellipse transform="matrix(0.2282 -0.9736 0.9736 0.2282 433.4601 2698.9211)" style="fill:#BC8271;" cx="1919.142" cy="1076.045" rx="19.577" ry="14.186"/>
				<path style="fill:#363E44;" d="M1846.603,1093.122c-0.505,0-1.02-0.016-1.544-0.051c-9.625-0.633-15.361-6.965-16.889-8.89
					c-0.757-0.954-0.598-2.341,0.356-3.098c0.953-0.758,2.34-0.599,3.097,0.356c1.243,1.566,5.909,6.718,13.724,7.231
					c7.324,0.498,12.444-3.492,13.846-4.721c0.916-0.804,2.308-0.712,3.111,0.204s0.711,2.309-0.205,3.111
					C1860.022,1089.087,1854.519,1093.122,1846.603,1093.122z"/>
				<path style="fill:#363E44;" d="M1887.366,1087.155c-4.461,0-7.991-1.271-9.708-2.036c-1.112-0.495-1.613-1.798-1.118-2.911
					c0.494-1.111,1.798-1.616,2.911-1.118c1.704,0.758,7.797,3.03,14.623,0.409c7.309-2.806,10.242-9.109,10.967-10.974
					c0.441-1.134,1.717-1.699,2.854-1.256c1.135,0.441,1.698,1.719,1.256,2.854c-0.891,2.292-4.497,10.038-13.497,13.493
					C1892.702,1086.749,1889.885,1087.155,1887.366,1087.155z"/>
				<rect x="1849.171" y="1101.516" style="fill:#BC8271;" width="57.18" height="78.259"/>
				
					<ellipse transform="matrix(0.1666 -0.986 0.986 0.1666 388.3852 2848.5432)" style="fill:#BC8271;" cx="1879.277" cy="1194.518" rx="31.261" ry="86.987"/>
				<path style="fill:#363E44;" d="M1916.783,1092.509c-0.087,0-0.174-0.005-0.262-0.015c-1.209-0.143-2.075-1.239-1.931-2.448
					c1.021-8.637,0.705-16.81-0.912-23.632c-0.354-1.496-0.786-2.979-1.282-4.406c-0.399-1.151,0.21-2.407,1.36-2.807
					c1.15-0.399,2.407,0.21,2.807,1.36c0.544,1.568,1.017,3.195,1.407,4.836c1.734,7.32,2.08,16.022,1,25.166
					C1918.838,1091.684,1917.885,1092.509,1916.783,1092.509z"/>
				<path style="fill:#363E44;" d="M1878.74,1143.18c-8.713,0-18.031-3.492-27.346-10.31c-0.982-0.719-1.196-2.099-0.477-3.082
					c0.72-0.982,2.097-1.197,3.082-0.477c7.566,5.539,19.064,11.557,30.892,8.751c6.472-1.533,12.354-5.559,17.48-11.966
					c0.76-0.951,2.149-1.102,3.099-0.343c0.951,0.761,1.105,2.148,0.343,3.099c-5.755,7.193-12.454,11.735-19.907,13.501
					C1883.575,1142.905,1881.18,1143.18,1878.74,1143.18z"/>
				<path style="fill:#363E44;" d="M1868.316,1107.671c-0.283,0-0.569-0.055-0.847-0.171c-4.066-1.696-5.426-4.598-5.355-6.568
					c0.081-2.168,1.172-3.408,2.135-4.502c0.618-0.702,1.256-1.429,1.816-2.57c0.339-0.691,0.581-1.445,0.721-2.24
					c0.21-1.199,1.356-1.995,2.55-1.794c1.199,0.21,2.002,1.352,1.793,2.552c-0.211,1.208-0.583,2.36-1.107,3.426
					c-0.818,1.669-1.769,2.75-2.464,3.54c-0.837,0.951-1.018,1.206-1.038,1.751c0.014,0.313,0.531,1.455,2.644,2.337
					c1.124,0.468,1.656,1.759,1.186,2.883C1869.999,1107.16,1869.18,1107.671,1868.316,1107.671z"/>
				<path style="fill:#363E44;" d="M1876.926,1118.016c-0.56,0-0.976-0.039-1.19-0.065c-1.209-0.145-2.071-1.244-1.925-2.453
					c0.145-1.21,1.245-2.069,2.452-1.925c0.359,0.04,3.533,0.346,5.849-2.058c2.1-2.183,1.94-4.966,1.886-5.502
					c-0.121-1.211,0.763-2.292,1.975-2.413c1.209-0.117,2.291,0.764,2.413,1.976c0.123,1.227,0.262,5.505-3.096,8.997
					C1882.414,1117.562,1878.835,1118.016,1876.926,1118.016z"/>
				<path style="fill:#363E44;" d="M1887.036,1037.098c-9.898-13.198-20.181-15.658-31.58-14.769
					c-18.461,1.44-29.494,23.87-20.268,40.379c8.956,16.026,25.139,21.996,23.882,34.251c-1.839,17.933-26.186,20.568-26.71,43.993
					c-0.493,22.025,32.057,29.261,32.052,50.906c-0.006,20.023-28.909,40.536-76.358,35.823
					c-55.199-5.483-76.292-25.827-71.646-45.878c5.971-25.767,41.637-25.61,47.764-43.05c5.665-16.126-19.101-41.954-10.056-62.061
					c5.974-13.278,28.025-16.796,43.364-29.695c13.826-11.627,13.905-32.837,32.052-42.736
					C1845.262,995.681,1872.66,997.033,1887.036,1037.098z"/>
				<g>
					<path style="fill:#EFBC73;" d="M1852.987,1004.252c0,0,34.867,34.924,83.591,43.111l12.146-83.082l3.705-25.37l4.744-32.431
						l-51.053,47.911l-16.635,15.613L1852.987,1004.252z"/>
					<g>
						<path style="fill:#BC8271;" d="M1937.81,952.683c0.514,6.043,5.155,10.759,10.914,11.598l3.705-25.37
							c-0.943-0.141-1.935-0.175-2.932-0.09C1942.443,939.422,1937.21,945.629,1937.81,952.683z"/>
						<path style="fill:#ff6900;" d="M1889.485,970.004c1.645,5.784,7.199,9.772,13.403,9.244
							c7.07-0.602,12.303-6.809,11.701-13.878c-0.439-5.163-3.883-9.346-8.469-10.979L1889.485,970.004z"/>
						<path style="fill:#FFFFFF;" d="M1903.598,1008.594c-0.685-8.041,5.279-15.114,13.32-15.799
							c8.041-0.685,15.114,5.279,15.799,13.32c0.685,8.041-5.279,15.114-13.32,15.799
							C1911.355,1022.599,1904.282,1016.635,1903.598,1008.594z"/>
					</g>
				</g>
			</g>
		</g>
	</g>
</g>
</svg>
