<?xml version="1.0" encoding="utf-8"?>
<!-- Generator: Adobe Illustrator 27.5.0, SVG Export Plug-In . SVG Version: 6.00 Build 0)  -->
<svg version="1.1" xmlns="http://www.w3.org/2000/svg" xmlns:xlink="http://www.w3.org/1999/xlink" x="0px" y="0px"
	 viewBox="0 0 2500 2500" style="enable-background:new 0 0 2500 2500;" xml:space="preserve">
-
<g id="Illustration">
	<g id="Online_shopping_1_">
		<ellipse style="fill:transparent;" cx="1250" cy="1250" rx="915.244" ry="915"/>
		<g>
			<path style="fill:#F7F1EB;" d="M966.638,589.849c-45.544-60.065-94.656-110.243-140.666-146.229l3.849,108.79l-44.094-137.138
				c-52.345-32.576-97.327-42.774-123.35-23.043c-54.148,41.058-5.719,196.103,108.171,346.304
				c113.89,150.2,250.111,238.678,304.26,197.62C1128.958,895.094,1080.528,740.049,966.638,589.849z"/>
			<path style="fill:#E6D0BE;" d="M1204.79,634.469l-65.81,55.261l55.473-88.952c-45.511-136.471-121.89-229.929-179.884-214.467
				c-64.011,17.067-81.385,160.362-38.807,320.06c42.578,159.697,128.986,275.322,192.997,258.256
				c64.011-17.067,81.385-160.362,38.807-320.06C1206.663,641.179,1205.732,637.818,1204.79,634.469z"/>
			<path style="fill:#FFFFFF;" d="M810.185,901.432l59.595-20.728l-76.956,1.542c-68.958-80.012-99.184-163.319-67.628-194.081
				c34.829-33.953,131.735,8.964,216.443,95.858c84.709,86.894,125.144,184.861,90.315,218.815
				c-34.83,33.954-131.735-8.964-216.444-95.858C813.713,905.136,811.943,903.285,810.185,901.432z"/>
			<path style="fill:#E6D0BE;" d="M1264.326,1306.024c-0.845,0-1.652-0.488-2.018-1.311
				c-133.361-299.718-278.813-515.905-377.347-644.486c-106.764-139.32-182.97-208.65-183.727-209.335
				c-0.904-0.817-0.976-2.213-0.158-3.118c0.818-0.904,2.213-0.976,3.118-0.159c0.759,0.686,77.19,70.21,184.179,209.805
				c98.705,128.787,244.402,345.317,377.969,645.497c0.496,1.114-0.005,2.419-1.119,2.914
				C1264.93,1305.963,1264.625,1306.024,1264.326,1306.024z"/>
			<path style="fill:#F7F1EB;" d="M1285.792,1296.472c-0.86,0-1.677-0.505-2.034-1.347
				c-184.101-434.81-254.669-795.544-255.36-799.137c-0.231-1.197,0.553-2.355,1.75-2.585c1.203-0.229,2.355,0.554,2.585,1.751
				c0.691,3.589,71.181,363.893,255.091,798.249c0.475,1.123-0.05,2.418-1.172,2.894
				C1286.371,1296.416,1286.079,1296.472,1285.792,1296.472z"/>
			<path style="fill:#F7F1EB;" d="M1251.232,1334.543c-0.831,0-1.628-0.472-2.002-1.275
				c-86.074-184.578-204.861-334.16-289.353-427.141C865.883,802.692,792.249,744.012,786.51,741.39
				c-1.069-0.288-1.774-1.338-1.606-2.459c0.181-1.207,1.31-2.037,2.51-1.856c4.411,0.662,80.478,61.634,173.405,163.529
				c85.438,93.684,205.524,244.471,292.413,430.798c0.515,1.105,0.038,2.418-1.067,2.933
				C1251.863,1334.477,1251.545,1334.543,1251.232,1334.543z M786.753,741.441c0.002,0.001,0.003,0.001,0.005,0.001
				C786.757,741.441,786.756,741.441,786.753,741.441z M786.451,741.364c0,0,0.001,0,0.001,0
				C786.452,741.364,786.452,741.364,786.451,741.364z"/>
		</g>
		<g>
			<g>
				<g>
					<path style="fill:#D3BBA3;" d="M2066.22,2153.775h-728.477c-49.402,0-89.45-40.048-89.45-89.45V558.393
						c0-49.402,40.048-89.45,89.45-89.45h728.477c49.402,0,89.45,40.048,89.45,89.45v1505.931
						C2155.67,2113.727,2115.622,2153.775,2066.22,2153.775z"/>
					<rect x="1308.614" y="571.375" style="fill:#F7F1EB;" width="792.215" height="1494.17"/>
				</g>
			</g>
			<g>
				<path style="fill:#D87355;" d="M1868.506,1886.359h-333.049c-52.893,0-95.771-42.878-95.771-95.771v0
					c0-52.893,42.878-95.771,95.771-95.771h333.049c52.893,0,95.771,42.878,95.771,95.771v0
					C1964.277,1843.48,1921.399,1886.359,1868.506,1886.359z"/>
				<g>
					<path style="fill:#FFFFFF;" d="M1580.88,1843.22v-100.439h35.181c12.186,0,21.43,2.335,27.731,7.002
						c6.3,4.668,9.451,11.509,9.451,20.522c0,4.922-1.266,9.255-3.794,13.003c-2.53,3.749-6.048,6.496-10.554,8.243
						c5.15,1.288,9.209,3.887,12.175,7.795c2.966,3.909,4.449,8.692,4.449,14.348c0,9.657-3.082,16.97-9.244,21.936
						c-6.163,4.967-14.947,7.496-26.351,7.588H1580.88z M1601.575,1784.861h15.314c10.439-0.183,15.659-4.346,15.659-12.486
						c0-4.553-1.323-7.829-3.967-9.83c-2.645-2-6.818-3.001-12.52-3.001h-14.486V1784.861z M1601.575,1799.485v27.11h17.729
						c4.874,0,8.68-1.161,11.417-3.484c2.735-2.322,4.104-5.529,4.104-9.623c0-9.197-4.76-13.865-14.279-14.003H1601.575z"/>
					<path style="fill:#FFFFFF;" d="M1747.059,1742.782v66.154c0,10.992-3.438,19.684-10.313,26.075
						c-6.876,6.393-16.269,9.589-28.179,9.589c-11.727,0-21.04-3.104-27.938-9.313c-6.898-6.208-10.416-14.738-10.554-25.592
						v-66.913h20.695v66.292c0,6.577,1.575,11.371,4.725,14.383c3.15,3.013,7.507,4.518,13.072,4.518
						c11.634,0,17.544-6.116,17.729-18.349v-66.844H1747.059z"/>
					<path style="fill:#FFFFFF;" d="M1798.658,1788.034l20.902-45.253h22.626l-32.974,64.016v36.423h-21.04v-36.423l-32.974-64.016
						h22.695L1798.658,1788.034z"/>
				</g>
			</g>
			<g>
				<g>
					<path style="fill:#E2A18D;" d="M1669.858,1208.064h-310.755c-1.219,0-2.208-0.988-2.208-2.207V953.582
						c0-1.219,0.988-2.207,2.208-2.207h310.755c1.219,0,2.208,0.988,2.208,2.207v252.274
						C1672.065,1207.076,1671.077,1208.064,1669.858,1208.064z M1361.31,1203.649h306.34V955.79h-306.34V1203.649z"/>
					<path style="fill:#E2A18D;" d="M2050.326,1208.064h-310.755c-1.219,0-2.207-0.988-2.207-2.207V953.582
						c0-1.219,0.988-2.207,2.207-2.207h310.755c1.219,0,2.208,0.988,2.208,2.207v252.274
						C2052.534,1207.076,2051.545,1208.064,2050.326,1208.064z M1741.778,1203.649h306.341V955.79h-306.341V1203.649z"/>
					<path style="fill:#E2A18D;" d="M1670.551,1517.553h-310.755c-1.219,0-2.207-0.988-2.207-2.208v-252.274
						c0-1.219,0.988-2.208,2.207-2.208h310.755c1.219,0,2.207,0.988,2.207,2.208v252.274
						C1672.758,1516.565,1671.77,1517.553,1670.551,1517.553z M1362.003,1513.138h306.34v-247.859h-306.34V1513.138z"/>
					<path style="fill:#E2A18D;" d="M2048.723,1517.553h-310.755c-1.219,0-2.207-0.988-2.207-2.208v-252.274
						c0-1.219,0.988-2.208,2.207-2.208h310.755c1.219,0,2.208,0.988,2.208,2.208v252.274
						C2050.931,1516.565,2049.942,1517.553,2048.723,1517.553z M1740.176,1513.138h306.34v-247.859h-306.34V1513.138z"/>
				</g>
				<g>
					<g>
						<path style="fill:#363E44;" d="M1480.213,1020.927c-1.12,0-2.079-0.848-2.194-1.985c-4.87-48.054-1.659-48.674,1.174-49.221
							c2.762-0.531,5.902-1.144,18.551,42.339c0.341,1.171-0.332,2.396-1.503,2.736c-1.174,0.34-2.396-0.333-2.735-1.503
							c-7.575-26.039-11.436-34.901-13.22-37.906c-0.558,3.582-0.842,13.831,2.127,43.11c0.123,1.213-0.761,2.296-1.974,2.419
							C1480.362,1020.923,1480.287,1020.927,1480.213,1020.927z"/>
						<path style="fill:#363E44;" d="M1558.048,1019.999c-0.074,0-0.149-0.004-0.225-0.011c-1.213-0.123-2.096-1.206-1.974-2.419
							c2.968-29.278,2.685-39.528,2.127-43.11c-1.784,3.006-5.645,11.867-13.22,37.906c-0.339,1.17-1.562,1.844-2.736,1.503
							c-1.171-0.341-1.843-1.565-1.503-2.736c12.649-43.482,15.782-42.869,18.55-42.339c2.834,0.547,6.045,1.166,1.175,49.221
							C1560.127,1019.151,1559.168,1019.999,1558.048,1019.999z"/>
						<g>
							<path style="fill:#D3BBA3;" d="M1429.797,997.934c-1.058,0-1.968-0.752-2.168-1.792c-0.2-1.043,0.371-2.08,1.358-2.469
								l90.022-35.479c0.515-0.202,1.09-0.205,1.605-0.005l90.252,34.89c0.991,0.383,1.568,1.416,1.375,2.46
								c-0.193,1.044-1.102,1.803-2.163,1.806l-180.274,0.589C1429.802,997.934,1429.8,997.934,1429.797,997.934z M1519.827,962.618
								l-78.311,30.863l156.822-0.512L1519.827,962.618z"/>
							<path style="fill:#D3BBA3;" d="M1519.813,962.116c-1.216,0-2.203-0.984-2.208-2.2l-0.069-21.186
								c-7.017-1.044-12.429-7.098-12.452-14.405c-0.026-8.057,6.508-14.634,14.564-14.66c0.016,0,0.032,0,0.049,0
								c8.035,0,14.585,6.523,14.612,14.564c0.004,1.22-0.981,2.211-2.2,2.215c-0.003,0-0.005,0-0.008,0
								c-1.216,0-2.203-0.984-2.207-2.2c-0.018-5.611-4.591-10.164-10.198-10.164c-0.012,0-0.023,0-0.033,0
								c-5.622,0.018-10.181,4.608-10.164,10.231c0.018,5.611,4.591,10.164,10.198,10.164c0.016,0,0.032,0,0.041,0
								c1.216,0,2.203,0.984,2.208,2.2l0.075,23.228c0.004,1.219-0.981,2.211-2.2,2.215
								C1519.818,962.116,1519.815,962.116,1519.813,962.116z"/>
						</g>
						<path style="fill:#363E44;" d="M1495.623,1014.884c-0.956,0-1.838-0.627-2.118-1.591
							c-9.389-32.275-13.072-38.16-14.166-39.213c-0.924-0.114-1.711-0.81-1.896-1.774c-0.231-1.197,0.553-2.355,1.75-2.585
							c2.784-0.533,5.908-1.128,18.551,42.339c0.341,1.171-0.332,2.396-1.503,2.736
							C1496.035,1014.856,1495.827,1014.884,1495.623,1014.884z"/>
						<path style="fill:#363E44;" d="M1542.638,1013.956c-0.204,0-0.412-0.029-0.618-0.088c-1.171-0.341-1.843-1.565-1.503-2.736
							c12.649-43.482,15.782-42.869,18.55-42.339c1.198,0.231,1.98,1.389,1.749,2.586c-0.185,0.963-0.972,1.658-1.895,1.773
							c-1.095,1.053-4.777,6.938-14.166,39.213C1544.475,1013.33,1543.594,1013.956,1542.638,1013.956z"/>
						<path style="fill:#ff6900;" d="M1471.507,1016.078l12.092,59.824c0,0-36.913,31.821-78.916,91.645
							c0,0,113.92,45.822,228.475,0c0,0-49.641-63.686-78.916-90.416l13.365-61.689c0,0-24.82-17.183-48.708,10.819
							C1518.898,1026.261,1498.873,994.44,1471.507,1016.078z"/>
					</g>
					<g>
						<path style="fill:#363E44;" d="M1957.413,1086.78h-124.931c-1.219,0-2.208-0.988-2.208-2.207v-19.16
							c0-1.219,0.988-2.208,2.208-2.208h124.931c1.219,0,2.207,0.988,2.207,2.208v19.16
							C1959.621,1085.792,1958.632,1086.78,1957.413,1086.78z M1834.69,1082.365h120.516v-14.746H1834.69V1082.365z"/>
						<path style="fill:#363E44;" d="M1928.779,1052.297h-67.661c-1.219,0-2.207-0.988-2.207-2.207v-32.8
							c0-1.219,0.988-2.207,2.207-2.207h67.661c1.219,0,2.207,0.988,2.207,2.207v32.8
							C1930.986,1051.309,1929.998,1052.297,1928.779,1052.297z M1863.325,1047.882h63.246v-28.385h-63.246V1047.882z"/>
						<path style="fill:#84524D;" d="M1975.795,1058.96c0-7.915-6.416-14.331-14.331-14.331h-133.032
							c-7.915,0-14.331,6.416-14.331,14.331v0c0,7.915,6.416,14.331,14.331,14.331h133.032
							C1969.379,1073.291,1975.795,1066.875,1975.795,1058.96L1975.795,1058.96z"/>
						<path style="fill:#363E44;" d="M1894.949,1151.941c-1.219,0-2.208-0.988-2.208-2.207v-61.814c0-1.219,0.988-2.208,2.208-2.208
							c1.219,0,2.207,0.988,2.207,2.208v61.814C1897.156,1150.953,1896.168,1151.941,1894.949,1151.941z"/>
						<path style="fill:#363E44;" d="M1894.949,1170.138c-1.219,0-2.208-0.988-2.208-2.208v-13.084c0-1.219,0.988-2.207,2.208-2.207
							c1.219,0,2.207,0.988,2.207,2.207v13.084C1897.156,1169.15,1896.168,1170.138,1894.949,1170.138z"/>
						<g>
							<path style="fill:#363E44;" d="M1857.648,1170.136c-0.482,0-0.968-0.157-1.373-0.481c-0.952-0.759-1.111-2.143-0.355-3.097
								c0.544-0.686,13.637-16.792,37.898-15.97c1.218,0.042,2.172,1.063,2.131,2.282c-0.041,1.218-1.025,2.163-2.282,2.131
								c-21.998-0.759-34.171,14.155-34.292,14.306C1858.94,1169.852,1858.296,1170.136,1857.648,1170.136z"/>
							<path style="fill:#363E44;" d="M1932.248,1170.138c-0.649,0-1.292-0.285-1.728-0.833
								c-0.178-0.22-12.367-15.066-34.292-14.305c-1.249,0.032-2.24-0.913-2.282-2.131c-0.041-1.219,0.913-2.24,2.131-2.282
								c24.298-0.808,37.354,15.284,37.898,15.97c0.758,0.955,0.598,2.344-0.357,3.101
								C1933.213,1169.982,1932.728,1170.138,1932.248,1170.138z"/>
						</g>
						<g>
							<g>
								<path style="fill:#363E44;" d="M1854.602,1191.356c-6.495,0-11.78-5.284-11.78-11.78c0-6.496,5.285-11.78,11.78-11.78
									c6.495,0,11.78,5.285,11.78,11.78C1866.382,1186.072,1861.098,1191.356,1854.602,1191.356z M1854.602,1172.211
									c-4.061,0-7.365,3.304-7.365,7.365c0,4.061,3.304,7.365,7.365,7.365c4.061,0,7.365-3.304,7.365-7.365
									C1861.967,1175.515,1858.664,1172.211,1854.602,1172.211z"/>
								<path style="fill:#363E44;" d="M1861.118,1179.576c0,3.599-2.917,6.516-6.516,6.516c-3.599,0-6.516-2.917-6.516-6.516
									s2.917-6.516,6.516-6.516C1858.201,1173.061,1861.118,1175.978,1861.118,1179.576z"/>
							</g>
							<g>
								<path style="fill:#363E44;" d="M1894.949,1191.356c-6.495,0-11.78-5.284-11.78-11.78c0-6.496,5.285-11.78,11.78-11.78
									c6.495,0,11.78,5.285,11.78,11.78C1906.728,1186.072,1901.444,1191.356,1894.949,1191.356z M1894.949,1172.211
									c-4.061,0-7.365,3.304-7.365,7.365c0,4.061,3.304,7.365,7.365,7.365c4.061,0,7.365-3.304,7.365-7.365
									C1902.313,1175.515,1899.01,1172.211,1894.949,1172.211z"/>
								<circle style="fill:#363E44;" cx="1894.948" cy="1179.576" r="6.516"/>
							</g>
							<g>
								<path style="fill:#363E44;" d="M1935.295,1191.356c-6.495,0-11.78-5.284-11.78-11.78c0-6.496,5.285-11.78,11.78-11.78
									s11.78,5.285,11.78,11.78C1947.074,1186.072,1941.79,1191.356,1935.295,1191.356z M1935.295,1172.211
									c-4.061,0-7.365,3.304-7.365,7.365c0,4.061,3.304,7.365,7.365,7.365c4.061,0,7.365-3.304,7.365-7.365
									C1942.66,1175.515,1939.356,1172.211,1935.295,1172.211z"/>
								<path style="fill:#363E44;" d="M1941.81,1179.576c0,3.599-2.917,6.516-6.516,6.516s-6.516-2.917-6.516-6.516
									s2.917-6.516,6.516-6.516S1941.81,1175.978,1941.81,1179.576z"/>
							</g>
						</g>
						<g>
							<g>
								<path style="fill:#84524D;" d="M2003.967,1020.571h-25.802v-0.933c0-9.171,7.434-16.605,16.605-16.605h9.197V1020.571z"/>
								<path style="fill:#363E44;" d="M1969.053,1047.424c-0.265,0-0.535-0.048-0.797-0.149c-1.137-0.44-1.702-1.719-1.262-2.856
									l8.712-22.507c0.44-1.137,1.72-1.701,2.855-1.262c1.137,0.44,1.702,1.719,1.262,2.856l-8.712,22.507
									C1970.773,1046.888,1969.938,1047.424,1969.053,1047.424z"/>
							</g>
							<g>
								<path style="fill:#84524D;" d="M1785.93,1020.571h25.802v-0.933c0-9.171-7.435-16.605-16.605-16.605h-9.197V1020.571z"/>
								<path style="fill:#ff6900;" d="M1820.844,1047.424c-0.885,0-1.72-0.536-2.059-1.411l-8.712-22.507
									c-0.44-1.137,0.125-2.415,1.262-2.856c1.137-0.439,2.417,0.125,2.855,1.262l8.712,22.507
									c0.44,1.137-0.125,2.415-1.262,2.856C1821.379,1047.376,1821.109,1047.424,1820.844,1047.424z"/>
							</g>
						</g>
						<g>
							<path style="fill:#84524D;" d="M1955.92,948.487c0.405-13.625-10.53-24.889-24.16-24.889h-73.622
								c-13.631,0-24.565,11.265-24.161,24.889l2.333,78.486h117.277L1955.92,948.487z"/>
						</g>
					</g>
					<g>
						<path style="fill:#BC8271;" d="M1635.31,1427.174l-25.935-80.516c-7.186-22.306-29.529-34.916-48.733-27.503v0.001
							c-7.936,3.063-13.964,9.024-17.631,16.465l-56.327,0.177c-3.714-7.418-9.78-13.34-17.734-16.354v-0.001
							c-19.25-7.292-41.514,5.458-48.56,27.809l-25.429,80.677c-5.56,17.641,1.933,35.842,17.125,41.598l0,0
							c15.193,5.757,32.865-2.91,40.39-19.806l17.43-39.137l90.35-0.284l17.675,39.026c7.631,16.848,25.358,25.404,40.514,19.552
							l0,0C1633.602,1463.027,1640.981,1444.779,1635.31,1427.174z"/>
						<path style="fill:#363E44;" d="M1448.469,1381.4c-0.583,0-1.142-0.231-1.556-0.642c-0.415-0.412-0.649-0.973-0.651-1.559
							l-0.044-13.919l-13.918,0.044c-0.002,0-0.004,0-0.006,0c-1.216,0-2.203-0.984-2.207-2.201l-0.05-15.599
							c-0.002-0.585,0.229-1.148,0.641-1.563c0.413-0.416,0.973-0.65,1.56-0.652l13.919-0.044l-0.044-13.919
							c-0.002-0.585,0.229-1.148,0.641-1.563c0.413-0.416,0.973-0.65,1.56-0.651l15.599-0.048c0.002,0,0.004,0,0.006,0
							c1.216,0,2.203,0.984,2.208,2.2l0.044,13.918l13.919-0.044c0.002,0,0.004,0,0.007,0c0.583,0,1.142,0.231,1.556,0.642
							c0.415,0.412,0.649,0.973,0.651,1.559l0.049,15.599c0.004,1.219-0.982,2.211-2.201,2.214l-13.918,0.044l0.044,13.919
							c0.004,1.219-0.981,2.211-2.201,2.215l-15.6,0.049C1448.473,1381.4,1448.471,1381.4,1448.469,1381.4z M1448.418,1360.859
							c0.583,0,1.143,0.231,1.556,0.642c0.415,0.412,0.649,0.973,0.651,1.559l0.044,13.919l11.185-0.035l-0.044-13.919
							c-0.004-1.219,0.981-2.211,2.201-2.214l13.918-0.044l-0.036-11.184l-13.919,0.044c-1.244-0.017-2.21-0.981-2.214-2.2
							l-0.044-13.918l-11.184,0.035l0.044,13.919c0.002,0.585-0.229,1.148-0.641,1.563c-0.413,0.415-0.973,0.65-1.56,0.651
							l-13.918,0.044l0.034,11.184l13.919-0.044C1448.414,1360.859,1448.416,1360.859,1448.418,1360.859z"/>
						<g>
							<path style="fill:#363E44;" d="M1574.369,1352.606c-6.609,0-11.997-5.367-12.018-11.981c-0.01-3.21,1.231-6.233,3.493-8.51
								c2.264-2.277,5.277-3.537,8.488-3.547c0.013,0,0.026,0,0.039,0c6.609,0,11.996,5.367,12.018,11.981
								c0.01,3.21-1.231,6.233-3.493,8.51c-2.264,2.277-5.277,3.537-8.488,3.547
								C1574.395,1352.606,1574.381,1352.606,1574.369,1352.606z M1574.37,1332.983c-0.009,0-0.016,0-0.024,0
								c-2.032,0.006-3.938,0.803-5.37,2.244c-1.432,1.44-2.217,3.353-2.211,5.384c0.013,4.185,3.422,7.579,7.604,7.58
								c0.009,0,0.016,0,0.024,0c2.032-0.006,3.938-0.803,5.37-2.244c1.432-1.441,2.217-3.353,2.211-5.384
								C1581.961,1336.379,1578.552,1332.983,1574.37,1332.983z"/>
							<path style="fill:#363E44;" d="M1574.464,1382.722c-6.61,0-11.997-5.367-12.019-11.981
								c-0.021-6.627,5.354-12.036,11.98-12.057c0.013,0,0.026,0,0.038,0c6.61,0,11.999,5.367,12.02,11.981c0,0,0,0,0,0.001
								c0.019,6.627-5.355,12.035-11.981,12.056C1574.489,1382.722,1574.476,1382.722,1574.464,1382.722z M1574.464,1363.099
								c-0.008,0-0.015,0-0.024,0c-4.193,0.014-7.592,3.435-7.579,7.628c0.013,4.185,3.422,7.58,7.604,7.58c0.008,0,0.015,0,0.024,0
								c4.192-0.014,7.592-3.435,7.581-7.628l0,0C1582.056,1366.495,1578.646,1363.099,1574.464,1363.099z"/>
							<path style="fill:#363E44;" d="M1559.359,1367.712c-6.61,0-11.999-5.367-12.02-11.981
								c-0.019-6.627,5.355-12.036,11.981-12.057c0.001,0,0.001,0,0.001,0c0.012,0,0.025,0,0.038,0
								c6.609,0,11.996,5.367,12.018,11.981c0.021,6.627-5.354,12.036-11.98,12.057
								C1559.384,1367.712,1559.371,1367.712,1559.359,1367.712z M1559.336,1348.088c-4.193,0.014-7.594,3.436-7.582,7.629
								c0.013,4.184,3.423,7.579,7.605,7.58c0.008,0,0.015,0,0.024,0c4.193-0.013,7.592-3.435,7.579-7.628
								c-0.013-4.185-3.422-7.581-7.604-7.581c-0.008,0-0.015,0-0.024,0H1559.336z"/>
							<path style="fill:#363E44;" d="M1589.474,1367.617c-6.609,0-11.997-5.367-12.018-11.981
								c-0.019-6.628,5.356-12.036,11.983-12.057h-0.001c0.013,0,0.027,0,0.04,0c6.608,0,11.995,5.367,12.017,11.981
								c0.01,3.21-1.231,6.233-3.493,8.51c-2.263,2.277-5.277,3.537-8.488,3.547
								C1589.5,1367.617,1589.487,1367.617,1589.474,1367.617z M1589.451,1347.994c-4.192,0.013-7.594,3.435-7.581,7.629
								c0.013,4.184,3.422,7.579,7.604,7.579c0.009,0,0.016,0,0.024,0c2.032-0.006,3.938-0.803,5.37-2.244
								c1.432-1.441,2.217-3.353,2.211-5.384c-0.013-4.185-3.422-7.58-7.603-7.58
								C1589.465,1347.994,1589.454,1347.993,1589.451,1347.994z M1589.444,1345.787h0.022H1589.444z"/>
						</g>
						<g>
							
								<rect x="1495.104" y="1357.365" transform="matrix(1 -0.0031 0.0031 1 -4.2708 4.7614)" style="fill:#84524D;" width="38.667" height="10.639"/>
							
								<rect x="1495.191" y="1378.613" transform="matrix(1 -0.0031 0.0031 1 -4.3375 4.7618)" style="fill:#84524D;" width="38.667" height="10.639"/>
						</g>
						<g>
							
								<ellipse transform="matrix(0.7071 -0.7071 0.7071 0.7071 -540.6721 1516.4606)" style="fill:#E6D0BE;" cx="1560.194" cy="1410.879" rx="23.11" ry="23.11"/>
							
								<ellipse transform="matrix(0.2617 -0.9651 0.9651 0.2617 -209.8741 2547.3848)" style="fill:#F2E6DC;" cx="1560.194" cy="1410.879" rx="13.265" ry="13.265"/>
							<path style="fill:#363E44;" d="M1560.193,1436.196c-13.924,0-25.272-11.304-25.316-25.237
								c-0.043-13.96,11.278-25.353,25.238-25.396c6.73,0.011,13.128,2.592,17.925,7.359c4.796,4.767,7.449,11.116,7.471,17.879
								c0.043,13.96-11.278,25.353-25.238,25.396C1560.247,1436.196,1560.219,1436.196,1560.193,1436.196z M1560.197,1389.977
								c-0.024,0-0.045,0-0.069,0c-11.524,0.036-20.872,9.442-20.836,20.967c0.036,11.503,9.406,20.836,20.901,20.836
								c0.023,0,0.044,0,0.067,0c11.524-0.036,20.872-9.442,20.836-20.967c-0.017-5.583-2.208-10.825-6.169-14.761
								C1570.983,1392.134,1565.754,1389.977,1560.197,1389.977z"/>
						</g>
						<g>
							
								<ellipse transform="matrix(0.7071 -0.7071 0.7071 0.7071 -567.0387 1452.806)" style="fill:#E6D0BE;" cx="1470.173" cy="1410.879" rx="23.11" ry="23.11"/>
							
								<ellipse transform="matrix(0.9053 -0.4248 0.4248 0.9053 -460.1288 758.2505)" style="fill:#F2E6DC;" cx="1470.173" cy="1410.879" rx="13.265" ry="13.265"/>
							<path style="fill:#363E44;" d="M1470.172,1436.196c-13.924,0-25.272-11.304-25.316-25.237
								c-0.021-6.762,2.591-13.128,7.359-17.925c4.766-4.796,11.116-7.45,17.879-7.471c6.719,0.011,13.128,2.592,17.925,7.359
								c4.796,4.767,7.449,11.116,7.471,17.879c0.043,13.96-11.278,25.353-25.238,25.396
								C1470.225,1436.196,1470.198,1436.196,1470.172,1436.196z M1470.176,1389.977c-0.024,0-0.045,0-0.069,0
								c-5.583,0.017-10.826,2.208-14.761,6.168c-3.935,3.96-6.093,9.216-6.075,14.799c0.036,11.503,9.406,20.836,20.901,20.836
								c0.023,0,0.044,0,0.067,0c11.524-0.036,20.871-9.442,20.836-20.967c-0.017-5.583-2.208-10.825-6.168-14.761
								C1480.962,1392.134,1475.733,1389.977,1470.176,1389.977z"/>
						</g>
					</g>
					<g>
						<path style="fill:#776E42;" d="M1982.099,1470.168h-177.507c-14.904,0-26.985-12.082-26.985-26.985v0
							c0-14.903,12.082-26.985,26.985-26.985h177.507c14.904,0,26.985,12.082,26.985,26.985v0
							C2009.084,1458.087,1997.003,1470.168,1982.099,1470.168z"/>
						<path style="fill:#EFBC73;" d="M1961.406,1416.198h-136.12c-11.429,0-20.693-9.265-20.693-20.693v0
							c0-11.429,9.265-20.693,20.693-20.693h136.12c11.429,0,20.693,9.265,20.693,20.693v0
							C1982.099,1406.933,1972.835,1416.198,1961.406,1416.198z"/>
						<path style="fill:#D87355;" d="M1945.537,1374.811h-104.383c-8.764,0-15.869-7.105-15.869-15.869l0,0
							c0-8.764,7.105-15.869,15.869-15.869h104.383c8.764,0,15.869,7.105,15.869,15.869l0,0
							C1961.406,1367.706,1954.301,1374.811,1945.537,1374.811z"/>
						<path style="fill:#776E42;" d="M1915.958,1343.074h-45.224c-8.764,0-15.869-7.105-15.869-15.869l0,0
							c0-8.764,7.105-15.869,15.869-15.869h45.224c8.764,0,15.869,7.105,15.869,15.869l0,0
							C1931.827,1335.969,1924.722,1343.074,1915.958,1343.074z"/>
					</g>
				</g>
			</g>
			<g>
				<g>
					<path style="fill:#D87355;" d="M1228.742,831.73h-0.016c-33.319,0-60.33-27.011-60.33-60.33v-42.388h120.676V771.4
						C1289.072,804.72,1262.061,831.73,1228.742,831.73z"/>
					<path style="fill:#FFFFFF;" d="M1349.418,831.73h-0.016c-33.319,0-60.33-27.011-60.33-60.33v-42.388h120.676V771.4
						C1409.748,804.72,1382.737,831.73,1349.418,831.73z"/>
					<path style="fill:#D87355;" d="M1470.825,831.73h-0.016c-33.723,0-61.061-27.338-61.061-61.061v-41.658h122.138v41.658
						C1531.886,804.393,1504.548,831.73,1470.825,831.73z"/>
					<path style="fill:#FFFFFF;" d="M1592.343,831.73h-0.016c-33.381,0-60.441-27.061-60.441-60.441v-42.277h120.899v42.277
						C1652.785,804.67,1625.724,831.73,1592.343,831.73z"/>
					<path style="fill:#D87355;" d="M1713.089,831.73h-0.016c-33.297,0-60.289-26.992-60.289-60.289v-42.43h120.594v42.43
						C1773.378,804.738,1746.386,831.73,1713.089,831.73z"/>
					<path style="fill:#FFFFFF;" d="M1833.848,831.73h-0.016c-33.388,0-60.453-27.066-60.453-60.454v-42.265h120.923v42.265
						C1894.301,804.664,1867.235,831.73,1833.848,831.73z"/>
					<path style="fill:#D87355;" d="M1953.558,831.73h-0.016c-32.718,0-59.241-26.523-59.241-59.241v-43.478h118.497v43.478
						C2012.798,805.207,1986.276,831.73,1953.558,831.73z"/>
				</g>
				<g>
					<path style="fill:#D87355;" d="M2099.086,573.183l-6.015-0.925l-791.335-1.553c-0.205,0-5.572,0.118-5.759,0.341
						l-127.252,158.362c-0.521,0.622-0.4,1.602,0.198,1.602l795.09,1.447c-0.099,0.346-0.211,0.691-0.302,1.037l46.773,2.258
						C2010.682,735.752,2099.086,573.183,2099.086,573.183z"/>
					<g>
						<polygon style="fill:#FFFFFF;" points="1285.607,734.133 1408.892,570.034 1519.504,570.686 1410.02,731.535 						"/>
						<polygon style="fill:#FFFFFF;" points="1531.015,734.577 1633.861,570.25 1748.803,570.689 1652.294,733.494 						"/>
						<polygon style="fill:#FFFFFF;" points="1773.161,731.274 1866.673,570.554 1984.071,570.363 1893.925,731.535 						"/>
					</g>
					<path style="fill:#F7F1EB;" d="M2012.332,736.003c-0.001,0-0.002,0-0.003,0l-843.217-1.286
						c-1.219-0.002-2.206-0.992-2.204-2.211c0.002-1.218,0.99-2.204,2.207-2.204c0.001,0,0.002,0,0.003,0l843.217,1.286
						c1.219,0.002,2.206,0.992,2.204,2.211C2014.537,735.017,2013.55,736.003,2012.332,736.003z"/>
				</g>
				<path style="fill:#D87355;" d="M2100.552,573.399h-800.77c-1.219,0-2.207-0.988-2.207-2.208c0-1.219,0.988-2.207,2.207-2.207
					h800.77c1.219,0,2.208,0.988,2.208,2.207C2102.76,572.41,2101.771,573.399,2100.552,573.399z"/>
			</g>
		</g>
		<g>
			<g>
				<g>
					<polygon style="fill:#E2A18D;" points="650.508,2119.964 534.922,2119.964 493.057,1591.439 666.078,1599.175 663.58,1788.354 
											"/>
					<g>
						<path style="fill:#363E44;" d="M746.959,2162.767H530.27v-99.139h117.551C702.573,2063.628,746.959,2108.014,746.959,2162.767
							L746.959,2162.767z"/>
						<path style="fill:#FFFFFF;" d="M646.237,2085.584c-0.565,0-1.13-0.216-1.561-0.647c-0.862-0.862-0.862-2.26,0-3.121
							l19.12-19.12c0.862-0.862,2.259-0.862,3.121,0c0.862,0.862,0.862,2.26,0,3.122l-19.12,19.119
							C647.367,2085.369,646.802,2085.584,646.237,2085.584z"/>
						<path style="fill:#FFFFFF;" d="M667.973,2092.105c-0.565,0-1.13-0.216-1.561-0.647c-0.862-0.862-0.862-2.26,0-3.121
							l19.119-19.12c0.862-0.862,2.259-0.862,3.121,0c0.862,0.862,0.862,2.26,0,3.122l-19.119,19.119
							C669.103,2091.89,668.538,2092.105,667.973,2092.105z"/>
					</g>
				</g>
				<g>
					<polygon style="fill:#E2A18D;" points="965.133,2078.766 846.318,2099.706 794.278,1775.843 669.12,1561.466 876.104,1561.466 
						938.714,1766.167 					"/>
					<g>
						<path style="fill:#363E44;" d="M1056.597,2162.767H839.908v-99.139h117.551
							C1012.211,2063.628,1056.597,2108.014,1056.597,2162.767L1056.597,2162.767z"/>
						<path style="fill:#FFFFFF;" d="M955.875,2085.584c-0.565,0-1.13-0.216-1.561-0.647c-0.862-0.862-0.862-2.26,0-3.121
							l19.12-19.12c0.862-0.862,2.259-0.862,3.122,0c0.862,0.862,0.862,2.26,0,3.122l-19.12,19.119
							C957.004,2085.369,956.44,2085.584,955.875,2085.584z"/>
						<path style="fill:#FFFFFF;" d="M977.611,2092.105c-0.565,0-1.13-0.216-1.561-0.647c-0.862-0.862-0.862-2.26,0-3.121
							l19.12-19.12c0.862-0.862,2.259-0.862,3.121,0c0.862,0.862,0.862,2.26,0,3.122l-19.12,19.119
							C978.74,2091.89,978.176,2092.105,977.611,2092.105z"/>
					</g>
				</g>
				<g>
					<path style="fill:#84524D;" d="M516.94,1251.327c-32.062,85.481-76.334,196.2-75.959,375.578
						c53.115,0,440.258-9.005,496.914-9.005c-57.132-122.679-125.363-283.938-170.983-372.671
						C672.579,1246.875,601.766,1250.77,516.94,1251.327z"/>
				</g>
			</g>
			<g>
				<path style="fill:#363E44;" d="M729.844,916.411c-6.373-8.392-7.528-17.245-7.79-21.244c2.807,3.495,9.882,11.335,21.952,15.579
					c4.232,1.488,8.215,2.218,11.779,2.538c10.2-12.883,14.995-25.211,16.757-30.217c-26.639,6.321-36.907,1.803-41.367-3.475
					c-7.126-8.435,0.25-19.208-7.666-28.283c-9.592-10.995-26.249-1.862-36.274-13.295c-6.778-7.73-6.788-23.302-11.973-32.161
					c-4.758-8.129-12.154-7.669-43.957-6.782c3.422,48.551,6.841,97.101,10.263,145.652c5.896,2.111,46.851,16.002,86.811-7.48
					c5.316-3.125,10.01-6.582,14.201-10.188C738.161,924.753,733.629,921.394,729.844,916.411z"/>
				<path style="fill:#E2A18D;" d="M615.007,811.547c2.422-1.28,25.804-13.189,47.167-2.627
					c15.896,7.859,23.683,23.126,32.871,50.707c10.821,32.48,12.751,53.407,6.215,63.377c-10.327,15.753-62.438,11.386-89.955-9.557
					c-19.862-15.118-29.056-41.315-24.786-66.086C590.776,822.658,613.461,812.364,615.007,811.547z"/>
				<path style="fill:#E2A18D;" d="M646.149,1024.233h-2.23c-16.113,0-29.176-13.063-29.176-29.176v-89.912
					c0-16.114,13.063-29.176,29.176-29.176h2.23c16.113,0,29.176,13.063,29.176,29.176v89.912
					C675.325,1011.17,662.262,1024.233,646.149,1024.233z"/>
				<path style="fill:#363E44;" d="M675.913,936.82c-21.196,0-49.771-9.307-65.945-21.617c-0.97-0.738-1.159-2.123-0.42-3.093
					c0.738-0.969,2.124-1.159,3.094-0.419c15.945,12.134,44.448,21.238,64.958,20.694c1.189-0.034,2.232,0.931,2.263,2.15
					c0.032,1.219-0.93,2.232-2.149,2.264C677.12,936.813,676.518,936.82,675.913,936.82z"/>
				<g>
					<path style="fill:#FFFFFF;" d="M636.589,869.429c0,0,7.561-6.125,17.711-8.048c2.159-0.409,1.362,17.643-0.874,17.053
						C643.597,875.84,636.589,869.429,636.589,869.429z"/>
					<path style="fill:#363E44;" d="M661.081,860.823c-2.341-0.07-4.607,0.16-6.763,0.568c-3.342,5.299-3.5,11.747-0.9,17.038
						c2.237,0.592,4.621,0.987,7.102,1.063c13.372,0.401,24.493-8.607,24.493-8.607S674.453,861.225,661.081,860.823z"/>
				</g>
				<path style="fill:#363E44;" d="M682.75,903.361c-1.119,0-2.239-0.217-3.295-0.668c-4.502-1.924-5.163-6.869-5.19-7.078
					c-0.149-1.21,0.71-2.312,1.921-2.462c1.213-0.147,2.312,0.71,2.462,1.92c0.001,0.012,0.397,2.643,2.543,3.56
					c1.745,0.745,3.87,0.15,5.179-1.444c0.773-0.943,2.164-1.08,3.106-0.307c0.942,0.773,1.08,2.164,0.306,3.107
					C687.999,902.164,685.376,903.361,682.75,903.361z"/>
				<path style="fill:#363E44;" d="M698.186,884.897c-0.507,0-1.015-0.174-1.431-0.528c-0.928-0.791-1.038-2.184-0.247-3.112
					c2.632-3.086,2.304-4.229,2.258-4.35c-0.086-0.227-0.529-0.496-1.245-0.917c-0.84-0.493-1.99-1.169-3.197-2.306
					c-1.781-1.678-3.122-3.809-3.986-6.332c-0.395-1.154,0.221-2.409,1.374-2.803c1.15-0.397,2.409,0.22,2.803,1.373
					c0.628,1.838,1.583,3.369,2.836,4.55c0.845,0.795,1.638,1.262,2.406,1.713c1.166,0.685,2.489,1.462,3.132,3.146
					c0.932,2.437-0.056,5.313-3.023,8.792C699.43,884.634,698.81,884.897,698.186,884.897z"/>
				<path style="fill:#EFBC73;" d="M595.062,1019.151c0,0-10.769-50.283-1.888-101.592c0,0,49.666,47.655,116.308,48.379
					c0,0-5.161,45.865-27.216,59.513C660.211,1039.097,595.062,1019.151,595.062,1019.151z"/>
				<path style="fill:#363E44;" d="M668.317,792.301c-22.48-6.432-39.215,6.602-40.445,7.672
					c-19.474-5.665-38.239-3.895-46.501,4.603c-15.602,16.048-7.792,33.766-16.995,50.042c-8.026,14.194-23.133,8.925-29.742,23.526
					c-5.364,11.851,0.944,27.525-4.249,39.061c-5.257,11.678-15.107,14.14-27.853,17.448c5.78,8.631,16.661,17.158,28.695,23.879
					c3.729-1.552,8.708-4.343,13.113-9.428c7.212-8.326,8.275-17.495,8.498-20.548c1.29,2.624,4.912,10.837,2.731,21.118
					c-1.559,7.35-5.424,12.656-8.981,16.19c7.699,3.069,15.208,5.156,21.565,5.832c23.291,2.474,46.494,4.896,70.22-11.815
					c-27.886-15.219-14.333-28.536-15.221-44.26c-0.874-15.45-11.299-17.001-9.257-33.459c1.218-9.817,15.93-7.244,12.562-41.471
					c2.596,4.485,5.193,8.97,7.789,13.454c7.477-0.755,17.786-2.691,29.034-7.79c0.965-0.437,1.898-0.894,2.824-1.352
					c0.386-2.988,0.418-6.97-0.936-11.394c-2.478-8.098-8.016-12.535-9.914-13.927c2.236,0.231,9.065,1.226,14.871,6.846
					c4.038,3.908,5.926,8.451,6.808,12.157c11.086-7.525,18.378-15.972,22.461-21.363
					C699.085,816.16,691.83,799.029,668.317,792.301z"/>
				<g>
					
						<ellipse transform="matrix(0.6732 -0.7395 0.7395 0.6732 -452.9026 749.9493)" style="fill:#E2A18D;" cx="621.993" cy="887.36" rx="18.215" ry="21.55"/>
					<path style="fill:#363E44;" d="M617.519,897.759c-0.405,0-0.816-0.112-1.183-0.346c-0.724-0.461-1.417-0.992-2.06-1.576
						c-5.365-4.885-6.268-12.662-2.012-17.336c1.074-1.18,2.386-2.074,3.9-2.659c1.133-0.435,2.414,0.127,2.854,1.265
						c0.439,1.138-0.128,2.415-1.265,2.854c-0.868,0.335-1.616,0.843-2.225,1.511c-2.616,2.874-1.844,7.853,1.721,11.099
						c0.456,0.416,0.946,0.791,1.458,1.117c1.028,0.655,1.331,2.019,0.676,3.048C618.962,897.398,618.249,897.759,617.519,897.759z"
						/>
				</g>
			</g>
			<g>
				<g>
					<path style="fill:#E2A18D;" d="M908.939,966.51c0,0,10.02-26.502,12.682-33.044c0.89-2.187,2.443-6.054,5.748-10.346
						c12.246-15.901,28.922-12.146,49.428-22.99c23.268-12.305,29.403-32.406,35.634-29.887c4.335,1.753,4.155,9.987-2.297,25.282
						c0,0.001,0.002,0.003,0.002,0.001c6.238-11.057,15.353-25.683,21.453-22.218c6.83,4.378-1.861,22.819-7.664,33.718
						c7.024-13.192,14.706-18.106,17.625-15.326c4.596,4.375,1.532,15.874-8.428,32.949c0,0.001,0,0.002,0.001,0.001
						c10.17-9.869,14.109-10.748,16.09-7.661c3.619,5.635-4.833,19.519-14.187,30.648c-10.53,12.528-23.042,18.592-31.023,22.227
						c-0.002,0.001-0.004,0.003-0.004,0.005c-6.179,22.253-16.694,60.354-16.694,60.354L908.939,966.51z"/>
					<path style="fill:#E2A18D;" d="M960.307,914.464c7.949-24.801,5.56-35.431,1.59-36.565c-6.677-1.908-22.13,16.488-38.314,51.27
						C934.182,925.99,949.709,917.644,960.307,914.464z"/>
					<path style="fill:#363E44;" d="M963.806,959.914c-0.223,0-0.45-0.034-0.673-0.105c-1.161-0.371-1.802-1.613-1.431-2.774
						c1.498-4.695,4.716-11.445,11.528-16.944c9.639-7.78,20.511-8.047,24.725-7.799c1.218,0.071,2.146,1.116,2.076,2.333
						c-0.072,1.217-1.132,2.155-2.333,2.075c-3.721-0.218-13.258,0.015-21.696,6.826c-5.961,4.812-8.779,10.732-10.094,14.852
						C965.608,959.315,964.74,959.914,963.806,959.914z"/>
					<path style="fill:#363E44;" d="M937.896,917.239c-0.78,0-1.537-0.415-1.938-1.148c-0.586-1.069-0.194-2.411,0.875-2.996
						c5.225-2.861,10.922-4.386,16.953-6.001c2.758-0.738,5.611-1.502,8.547-2.426c1.164-0.366,2.401,0.28,2.769,1.443
						c0.365,1.163-0.28,2.403-1.443,2.768c-3.028,0.953-5.927,1.729-8.732,2.48c-5.768,1.544-11.215,3.003-15.974,5.609
						C938.617,917.151,938.254,917.239,937.896,917.239z"/>
					<path style="fill:#363E44;" d="M992.529,913.599c-0.761,0-1.5-0.393-1.91-1.098c-0.613-1.054-0.255-2.405,0.798-3.018
						c2.622-1.525,5.114-3.3,7.406-5.275c3.324-2.866,6.259-6.177,8.724-9.841c0.68-1.012,2.05-1.279,3.063-0.6
						c1.012,0.681,1.281,2.052,0.599,3.064c-2.684,3.99-5.882,7.597-9.505,10.72c-2.496,2.153-5.211,4.087-8.068,5.748
						C993.288,913.502,992.906,913.599,992.529,913.599z"/>
					<path style="fill:#363E44;" d="M1007.169,923.358c-0.761,0-1.5-0.393-1.91-1.098c-0.613-1.054-0.255-2.405,0.798-3.018
						c2.625-1.526,5.115-3.3,7.406-5.274c3.324-2.867,6.259-6.178,8.724-9.841c0.68-1.012,2.05-1.279,3.063-0.6
						c1.012,0.681,1.28,2.052,0.599,3.064c-2.684,3.99-5.882,7.597-9.504,10.721c-2.495,2.152-5.21,4.086-8.068,5.748
						C1007.927,923.261,1007.545,923.358,1007.169,923.358z"/>
					<path style="fill:#363E44;" d="M1015.952,942.877c-0.761,0-1.5-0.393-1.91-1.098c-0.613-1.054-0.255-2.405,0.798-3.018
						c2.625-1.526,5.115-3.3,7.406-5.274c3.323-2.866,6.258-6.176,8.724-9.841c0.679-1.012,2.049-1.281,3.063-0.599
						c1.012,0.68,1.281,2.052,0.599,3.063c-2.685,3.991-5.883,7.598-9.505,10.72c-2.495,2.152-5.21,4.086-8.068,5.748
						C1016.711,942.78,1016.328,942.877,1015.952,942.877z"/>
				</g>
				<g>
					<g>
						<path style="fill:#EFBC73;" d="M352.496,1209.078c-14.169-96.695,108.421-224.922,291.234-233.74
							c96.267-4.644,232.374,70.39,232.374,70.39l32.835-79.217l158.641,129.927c0,0-116.648,80.028-158.641,94.128
							c-38.625,12.969-121.214-52.377-121.214-52.377l13.714,146.864l-339.417-32.767l25.713-106.812l76.169,10.234l-79.464,208.94
							C484.44,1364.649,360.905,1266.467,352.496,1209.078z"/>
					</g>
					<path style="fill:#363E44;" d="M864.379,1085.866c-0.217,0-0.435-0.032-0.653-0.099c-1.165-0.36-1.817-1.596-1.457-2.761
						c2.235-7.231,3.906-12.965,5.38-18.026c2.361-8.108,4.067-13.966,6.395-20.043c0.435-1.14,1.713-1.708,2.851-1.272
						c1.138,0.436,1.707,1.713,1.271,2.851c-2.262,5.906-3.947,11.691-6.279,19.698c-1.478,5.076-3.153,10.83-5.399,18.095
						C866.194,1085.257,865.321,1085.866,864.379,1085.866z"/>
					<path style="fill:#363E44;" d="M563.974,1173.064c-0.13,0-0.264-0.012-0.398-0.036c-21.973-4.003-145.135-27.225-159.48-30.181
						c-1.194-0.246-1.963-1.414-1.717-2.608c0.246-1.194,1.417-1.961,2.607-1.716c14.33,2.953,137.417,26.161,159.381,30.161
						c1.2,0.219,1.995,1.368,1.776,2.568C565.95,1172.317,565.021,1173.064,563.974,1173.064z"/>
					<g>
						<g>
							
								<ellipse transform="matrix(0.1602 -0.9871 0.9871 0.1602 -650.6483 1680.3629)" style="fill:#363E44;" cx="662.19" cy="1222.554" rx="9.474" ry="9.474"/>
							<circle style="fill:#363E44;" cx="653.496" cy="1157.346" r="9.474"/>
							<circle style="fill:#363E44;" cx="644.802" cy="1092.139" r="9.474"/>
							<circle style="fill:#363E44;" cx="636.107" cy="1026.931" r="9.474"/>
						</g>
						<path style="fill:#363E44;" d="M714.55,1278.873c-1.049,0-1.978-0.749-2.171-1.817l-52.285-290.416l2.805-25.55
							c0.133-1.213,1.243-2.082,2.435-1.954c1.213,0.133,2.087,1.223,1.954,2.435l-2.735,24.916l52.173,289.786
							c0.215,1.2-0.582,2.348-1.782,2.564C714.811,1278.861,714.68,1278.873,714.55,1278.873z"/>
					</g>
				</g>
				<g>
					<g>
						<g>
							<polygon style="fill:#ff6900;" points="657.846,1672.489 985.553,1492.152 778.693,1237.26 565.864,1354.38 							"/>
						</g>
						<path style="fill:#F7F1EB;" d="M782.328,1574.497c-0.601,0-1.2-0.244-1.635-0.724
							c-58.616-64.566-195.094-215.172-196.427-219.174c-0.385-1.157,0.24-2.407,1.397-2.792c1.077-0.356,2.218,0.152,2.689,1.143
							c4.379,6.785,142.584,159.448,195.609,217.855c0.82,0.903,0.752,2.299-0.15,3.118
							C783.387,1574.308,782.857,1574.497,782.328,1574.497z"/>
						<path style="fill:#F7F1EB;" d="M666.182,1654.583c-0.395,0-0.793-0.106-1.154-0.328c-1.038-0.639-1.362-1.998-0.723-3.037
							l37.227-60.516l-123.158-223.8c-0.589-1.068-0.198-2.411,0.87-2.999c1.069-0.586,2.411-0.197,2.997,0.87L706.018,1589.7
							c0.384,0.696,0.363,1.545-0.054,2.221l-37.9,61.611C667.648,1654.21,666.923,1654.583,666.182,1654.583z"/>
					</g>
					<path style="fill:#776E42;" d="M628.869,1342.996c2.057-1.132,2.807-3.716,1.675-5.773l-29.646-53.873
						c-6.931-12.595-2.323-28.479,10.271-35.41l45.183-24.864c12.594-6.931,28.479-2.323,35.41,10.271l29.646,53.873
						c1.132,2.057,3.716,2.807,5.773,1.675c2.057-1.132,2.807-3.716,1.675-5.773l-29.646-53.873
						c-9.191-16.701-30.255-22.811-46.956-13.621l-45.183,24.864c-16.701,9.191-22.811,30.255-13.621,46.956l29.646,53.873
						C624.227,1343.379,626.812,1344.128,628.869,1342.996z"/>
					<g>
						<g>
							<path style="fill:#EFBC73;" d="M689.435,1310.774l-7.312,70.355l110.363,120.842l78.04-71.272l-110.363-120.842
								L689.435,1310.774z M720.654,1345c-3.864,3.529-9.858,3.257-13.387-0.607c-3.529-3.864-3.258-9.857,0.607-13.386
								s9.858-3.258,13.387,0.606S724.518,1341.471,720.654,1345z"/>
							<g>
								<path style="fill:#363E44;" d="M795.355,1475.163c-0.018,0-0.038,0-0.056,0c-1.219-0.031-2.183-1.043-2.151-2.262
									l2.276-90.822c0.031-1.218,1.035-2.197,2.261-2.151c1.219,0.031,2.183,1.043,2.151,2.262l-2.276,90.822
									C797.53,1474.211,796.548,1475.163,795.355,1475.163z"/>
								<path style="fill:#363E44;" d="M768.872,1439.511c-0.222,0-0.445-0.005-0.668-0.015c-3.851-0.174-7.404-1.838-10.004-4.685
									c-2.601-2.847-3.936-6.535-3.762-10.387c0.175-3.851,1.839-7.404,4.685-10.004c5.879-5.366,15.024-4.952,20.39,0.925
									c2.6,2.846,3.936,6.535,3.762,10.387c-0.175,3.851-1.839,7.404-4.685,10.003
									C775.908,1438.184,772.479,1439.511,768.872,1439.511z M768.852,1415.064c-2.413,0-4.833,0.864-6.752,2.616
									c-1.976,1.804-3.131,4.271-3.252,6.944c-0.122,2.673,0.806,5.234,2.61,7.21c1.804,1.976,4.271,3.131,6.944,3.252
									c2.681,0.123,5.233-0.806,7.21-2.611c1.976-1.804,3.13-4.27,3.252-6.943c0.121-2.674-0.806-5.234-2.611-7.21l0,0
									C774.281,1416.161,771.571,1415.064,768.852,1415.064z"/>
								<path style="fill:#363E44;" d="M824.492,1443.872c-0.223,0-0.445-0.005-0.669-0.016c-3.851-0.174-7.405-1.838-10.003-4.685
									c-2.6-2.846-3.936-6.535-3.762-10.387c0.175-3.851,1.839-7.404,4.685-10.003c2.847-2.6,6.546-3.936,10.386-3.761
									c3.851,0.174,7.404,1.838,10.004,4.685c2.601,2.847,3.936,6.535,3.762,10.387c-0.175,3.851-1.839,7.404-4.685,10.004
									C831.529,1442.545,828.1,1443.872,824.492,1443.872z M824.465,1419.421c-2.504,0-4.884,0.921-6.745,2.621
									c-1.976,1.804-3.13,4.27-3.252,6.943c-0.121,2.674,0.806,5.234,2.61,7.21s4.271,3.131,6.943,3.252
									c2.684,0.121,5.234-0.806,7.21-2.61c1.976-1.805,3.131-4.271,3.252-6.944c0.122-2.673-0.806-5.234-2.611-7.21l0,0
									c-1.804-1.976-4.27-3.131-6.944-3.252C824.775,1419.424,824.62,1419.421,824.465,1419.421z"/>
							</g>
						</g>
						<g>
							<path style="fill:#FFD092;" d="M709.482,1280.062l19.317,68.045l147.324,71.262l46.021-95.142l-147.324-71.262
								L709.482,1280.062z M751.173,1300.26c-2.279,4.711-7.946,6.682-12.657,4.404c-4.711-2.279-6.683-7.945-4.404-12.656
								c2.279-4.711,7.945-6.683,12.656-4.404C751.48,1289.882,753.452,1295.549,751.173,1300.26z"/>
							<g>
								<path style="fill:#363E44;" d="M868.02,1393.569c-0.897,0-1.74-0.55-2.069-1.441l-31.588-85.182
									c-0.424-1.143,0.159-2.413,1.302-2.837c1.144-0.426,2.413,0.158,2.837,1.302l31.588,85.182
									c0.424,1.143-0.158,2.413-1.302,2.837C868.534,1393.525,868.276,1393.569,868.02,1393.569z"/>
								<path style="fill:#363E44;" d="M825.626,1371.165c-2.106,0-4.242-0.462-6.262-1.439
									c-7.163-3.466-10.173-12.113-6.708-19.277c1.678-3.47,4.608-6.08,8.249-7.347c3.643-1.267,7.559-1.04,11.029,0.639l0,0
									c7.164,3.466,10.174,12.113,6.708,19.277C836.154,1368.162,830.991,1371.165,825.626,1371.165z M825.657,1346.71
									c-1.109,0-2.223,0.187-3.3,0.562c-2.528,0.88-4.562,2.69-5.726,5.099c-1.166,2.409-1.324,5.127-0.444,7.655
									c0.88,2.527,2.69,4.56,5.099,5.726c4.972,2.404,10.974,0.316,13.38-4.657c1.165-2.409,1.323-5.127,0.443-7.654
									c-0.88-2.527-2.69-4.561-5.099-5.727l0,0C828.63,1347.047,827.147,1346.71,825.657,1346.71z"/>
								<path style="fill:#363E44;" d="M878.904,1354.584c-2.147,0-4.283-0.485-6.273-1.448c-3.471-1.678-6.08-4.608-7.347-8.249
									c-1.268-3.641-1.04-7.557,0.638-11.028c3.466-7.163,12.111-10.173,19.278-6.708l0,0c7.163,3.466,10.173,12.113,6.708,19.278
									c-1.678,3.47-4.608,6.079-8.249,7.346C882.106,1354.316,880.503,1354.584,878.904,1354.584z M878.932,1330.126
									c-3.725,0-7.308,2.084-9.035,5.656c-1.166,2.408-1.324,5.127-0.444,7.654c0.88,2.527,2.69,4.561,5.1,5.726
									c2.408,1.164,5.127,1.323,7.654,0.443c2.528-0.879,4.561-2.69,5.725-5.099c2.406-4.973,0.318-10.976-4.655-13.381l0,0
									C881.877,1330.448,880.394,1330.126,878.932,1330.126z"/>
							</g>
						</g>
						<path style="fill:#363E44;" d="M716.783,1347.7c-0.81,0-1.588-0.446-1.975-1.218c-1.135-2.26-27.676-55.626-18.441-78.497
							c1.898-4.699,5.153-7.888,9.675-9.479c1.146-0.406,2.411,0.201,2.814,1.35c0.404,1.15-0.201,2.41-1.351,2.815
							c-3.319,1.167-5.623,3.446-7.044,6.967c-8.497,21.041,18.023,74.329,18.291,74.864c0.547,1.09,0.107,2.416-0.982,2.963
							C717.453,1347.625,717.115,1347.7,716.783,1347.7z"/>
						<path style="fill:#363E44;" d="M742.961,1301.216c-1.054,0-1.988-0.758-2.173-1.832c-0.06-0.349-6.26-34.967-25.32-37.474
							c-1.209-0.159-2.06-1.267-1.901-2.476c0.158-1.209,1.26-2.065,2.477-1.901c22.275,2.93,28.827,39.544,29.094,41.101
							c0.207,1.201-0.599,2.342-1.8,2.55C743.211,1301.206,743.085,1301.216,742.961,1301.216z"/>
					</g>
				</g>
				<g>
					<path style="fill:#E2A18D;" d="M563.973,1170.855c0,0,120.731,27.817,118.878,42.863c-0.885,7.189-20.682,3.477-27.338,2.028
						c4.798,3.821,14.934,10.945,11.885,18.471c-3.582,8.842-19.865,2.941-20.385,3.02c5.267,3.386,13.25,10.38,11.184,16.111
						c-2.688,7.457-12.698,7.349-19.669,5.301c0.451,1.166,8.352,8.969,6.516,13.465c-2.033,4.982-10.837,5.891-19.765,4.788
						c-16.928-3.498-97.961-18.554-97.961-18.554L563.973,1170.855z"/>
					<g>
						<path style="fill:#363E44;" d="M655.893,1217.296c-0.397,0-0.798-0.107-1.159-0.33c-3.379-2.089-6.93-3.961-10.552-5.561
							c-6.51-2.876-13.4-4.949-20.479-6.163c-1.202-0.206-2.009-1.347-1.803-2.549c0.206-1.201,1.344-2.009,2.549-1.803
							c7.436,1.275,14.675,3.453,21.517,6.475c3.808,1.682,7.54,3.649,11.09,5.844c1.037,0.641,1.358,2.002,0.717,3.038
							C657.355,1216.925,656.632,1217.296,655.893,1217.296z"/>
						<path style="fill:#363E44;" d="M647.493,1239.034c-0.319,0-0.643-0.07-0.951-0.216c-0.752-0.359-1.522-0.714-2.311-1.062
							c-6.511-2.877-13.401-4.95-20.478-6.163c-1.202-0.206-2.009-1.347-1.803-2.549c0.206-1.2,1.345-2.009,2.549-1.803
							c7.434,1.273,14.673,3.452,21.516,6.475c0.829,0.366,1.639,0.739,2.43,1.117c1.099,0.525,1.566,1.843,1.04,2.943
							C649.107,1238.571,648.316,1239.034,647.493,1239.034z"/>
						<path style="fill:#363E44;" d="M638.11,1260.556c-0.237,0-0.479-0.039-0.716-0.12c-4.401-1.51-8.974-2.676-13.593-3.467
							c-1.202-0.206-2.009-1.347-1.803-2.549c0.206-1.2,1.338-2.011,2.549-1.803c4.85,0.831,9.655,2.057,14.278,3.643
							c1.153,0.396,1.768,1.651,1.372,2.804C639.884,1259.98,639.028,1260.556,638.11,1260.556z"/>
					</g>
				</g>
			</g>
		</g>
	</g>
</g>
</svg>
