<?xml version="1.0" encoding="utf-8"?>
<!-- Generator: Adobe Illustrator 27.5.0, SVG Export Plug-In . SVG Version: 6.00 Build 0)  -->
<svg version="1.1" xmlns="http://www.w3.org/2000/svg" xmlns:xlink="http://www.w3.org/1999/xlink" x="0px" y="0px"
	 viewBox="0 0 2500 2500" style="enable-background:new 0 0 2500 2500;" xml:space="preserve">
-
<g id="Illustration">
	<g id="Care_allowance_1_">
		<circle style="fill:transparent;" cx="1250" cy="1250" r="915"/>
		<g>
			<polygon style="fill:#F7F1EB;" points="1008.405,1691.259 1930.804,1691.259 1930.468,693.45 1926.88,445.241 1008.405,449.047 
							"/>
			<path style="fill:#D3BBA3;" d="M1892.67,1662.687h-922.4c-1.219,0-2.205-0.986-2.205-2.205V418.271
				c0-1.219,0.986-2.205,2.205-2.205h922.4c1.219,0,2.205,0.986,2.205,2.205v1242.211
				C1894.875,1661.701,1893.889,1662.687,1892.67,1662.687z M972.475,1658.277h917.991V420.476H972.475V1658.277z"/>
			<g>
				<g>
					<rect x="1122.998" y="1288.466" style="fill:#E6D0BE;" width="449.121" height="21.1"/>
					<rect x="1192.694" y="1341.18" style="fill:#E6D0BE;" width="552.143" height="21.1"/>
					<rect x="1122.998" y="1393.893" style="fill:#E6D0BE;" width="531.245" height="21.1"/>
				</g>
				<g>
					<rect x="1241.852" y="1056.346" style="fill:#E6D0BE;" width="555.593" height="21.1"/>
					<rect x="1107.969" y="1109.059" style="fill:#E6D0BE;" width="531.245" height="21.1"/>
					<rect x="1107.969" y="1161.772" style="fill:#E6D0BE;" width="623.81" height="21.1"/>
				</g>
				<g>
					<rect x="1243.823" y="838.282" style="fill:#E6D0BE;" width="487.956" height="21.1"/>
					<rect x="1109.939" y="890.995" style="fill:#E6D0BE;" width="529.274" height="21.1"/>
					<rect x="1109.939" y="943.709" style="fill:#E6D0BE;" width="687.505" height="21.1"/>
				</g>
			</g>
			<rect x="1164.654" y="678.091" style="fill:#E6D0BE;" width="470.698" height="56.639"/>
			<rect x="1169.064" y="576.669" style="fill:#E6D0BE;" width="470.698" height="56.639"/>
		</g>
		<g>
			<g>
				<g>
					<g>
						<polygon style="fill:#E2A18D;" points="494.009,1953.827 361.253,1948.265 390.993,1777.878 523.293,1803.682 						"/>
						<path style="fill:#D3BBA3;" d="M675.681,2038.412H336.245l31.255-129.759h135.285l93.853,29.333
							C643.766,1950.75,676.116,1991.851,675.681,2038.412L675.681,2038.412z"/>
					</g>
					<g>
						<polygon style="fill:#E2A18D;" points="865.342,1935.941 736.706,1969.225 715.612,1797.553 849.699,1783.769 						"/>
						<path style="fill:#D3BBA3;" d="M1037.325,2038.412H697.89l31.255-129.759H864.43l93.853,29.333
							C1005.411,1950.75,1037.76,1991.851,1037.325,2038.412L1037.325,2038.412z"/>
					</g>
					<path style="fill:#776E42;" d="M796.513,1109.176c0,0,86.013,377.582,79.082,745.624H693.763l-73.88-448.532
						c0,0-11.765,256.262-68.798,448.532h-203.34c0,0,73.927-636.9,131.682-761.651L796.513,1109.176z"/>
				</g>
				<g>
					<g>
						<g>
							<path style="fill:#E2A18D;" d="M858.138,915.742c0,0,198.516-59.28,221.089-82.564c2.364-2.438,6.517-6.761,13.235-10.706
								c24.893-14.62,45.116-0.636,78.305-4.065c37.659-3.891,56.662-27.403,63.618-20.689c4.839,4.671,0.168,15.558-16.671,32.487
								c0,0,0.001,0.004,0.002,0.003c14.272-11.392,34.302-25.996,40.575-18.091c6.754,9.515-14.764,29.438-28.37,40.853
								c16.469-13.818,29.36-16.238,31.759-10.959c3.776,8.31-6.5,21.999-28.975,39.416l0,0.002
								c18.879-7.692,24.605-6.744,25.587-1.56c1.794,9.464-17.864,26.014-36.33,35.824c-20.788,11.045-61.53,17.668-73.178,22.51
								c-24.008,9.98-220.665,115.158-260.495,120.762C841.864,1065.499,858.138,915.742,858.138,915.742z"/>
							<path style="fill:#E2A18D;" d="M1136.525,830.2c23.951-28.804,26.485-44.269,21.8-47.919
								c-7.88-6.138-35.035,9.588-75.342,47.276C1098.831,831.019,1120.675,828.737,1136.525,830.2z"/>
							<path style="fill:#363E44;" d="M1105.709,822.334c-1.102,0-2.054-0.825-2.188-1.946c-0.142-1.21,0.721-2.306,1.931-2.448
								c1.903-0.224,3.985-0.489,6.195-0.769c12.006-1.527,26.951-3.419,39.036-2.474c1.214,0.095,2.121,1.156,2.026,2.371
								c-0.095,1.216-1.182,2.117-2.371,2.026c-11.644-0.917-26.953,1.029-38.136,2.45c-2.224,0.282-4.317,0.549-6.233,0.775
								C1105.881,822.33,1105.795,822.334,1105.709,822.334z"/>
							<path style="fill:#E2A18D;" d="M860.098,1058.753c-74.386-28.61-141.197-191.215-141.197-191.215l142.224-42.886
								l112.173,196.111C973.298,1020.763,893.467,1071.587,860.098,1058.753z"/>
							<path style="fill:#363E44;" d="M1107.033,907.457c-0.278,0-0.56-0.052-0.833-0.164c-1.128-0.461-1.669-1.746-1.208-2.874
								c2.108-5.165,7.338-14.775,18.676-21.114c11.263-6.296,22.13-5.755,27.61-4.873c1.201,0.194,2.02,1.326,1.826,2.528
								c-0.196,1.201-1.322,2.028-2.528,1.826c-4.909-0.786-14.654-1.275-24.755,4.369c-10.167,5.682-14.857,14.299-16.747,18.93
								C1108.726,906.94,1107.901,907.457,1107.033,907.457z"/>
							<path style="fill:#363E44;" d="M1180.544,846.88c-1.079,0-2.022-0.792-2.181-1.89c-0.172-1.206,0.663-2.323,1.869-2.498
								c4.386-0.631,8.722-1.671,12.889-3.09c6.059-2.063,11.836-4.937,17.167-8.548c1.012-0.68,2.381-0.413,3.062,0.59
								c0.682,1.008,0.418,2.379-0.59,3.062c-5.658,3.831-11.786,6.882-18.218,9.069c-4.423,1.507-9.026,2.612-13.681,3.284
								C1180.755,846.874,1180.647,846.88,1180.544,846.88z"/>
							<path style="fill:#363E44;" d="M1194.817,867.779c-1.079,0-2.022-0.792-2.181-1.89c-0.172-1.206,0.663-2.323,1.869-2.498
								c4.38-0.631,8.716-1.671,12.891-3.09c6.059-2.065,11.834-4.939,17.167-8.548c1.012-0.685,2.379-0.416,3.062,0.59
								c0.683,1.01,0.418,2.379-0.59,3.062c-5.658,3.828-11.788,6.879-18.218,9.069c-4.431,1.509-9.035,2.612-13.683,3.284
								C1195.028,867.772,1194.92,867.779,1194.817,867.779z"/>
							<path style="fill:#363E44;" d="M1196.029,898.543c-1.079,0-2.022-0.792-2.181-1.891c-0.172-1.206,0.663-2.323,1.869-2.498
								c4.38-0.631,8.716-1.671,12.891-3.09c6.059-2.065,11.834-4.939,17.167-8.548c1.014-0.682,2.381-0.415,3.062,0.59
								c0.682,1.01,0.418,2.379-0.59,3.062c-5.659,3.828-11.789,6.879-18.218,9.069c-4.431,1.509-9.035,2.612-13.683,3.284
								C1196.24,898.536,1196.133,898.543,1196.029,898.543z"/>
						</g>
						<path style="fill:#ff6900;" d="M641.398,719.855c91.492-1.411,168.389,11.362,259.77,101.716
							c-20.535,19.508-59.552,59.552-99.625,100.554l24.912,258.401l-382.653,0.248l24.623-208.308
							C468.424,972.466,437.101,723.005,641.398,719.855z"/>
						<path style="fill:#FFFFFF;" d="M801.782,923.961c-0.004,0-0.007,0-0.011,0c-1.217-0.006-2.201-0.997-2.194-2.216
							c0.078-16.28,0.215-24.479,0.388-34.857c0.082-4.92,0.17-10.277,0.263-17.167c0.017-1.208,1.001-2.175,2.205-2.175
							c0.009,0,0.019,0,0.03,0c1.216,0.017,2.192,1.016,2.175,2.235c-0.093,6.894-0.183,12.256-0.265,17.18
							c-0.17,10.363-0.308,18.552-0.385,34.806C803.981,922.981,802.994,923.961,801.782,923.961z"/>
					</g>
				</g>
				<g>
					<path style="fill:#E2A18D;" d="M641.941,763.558l0.024,0.002c19.9,1.326,37.129-13.682,38.547-33.575l5.697-79.97
						c1.422-19.957-13.603-37.288-33.56-38.713h0c-19.956-1.424-37.289,13.597-38.717,33.553l-5.721,79.968
						C606.779,744.85,621.907,762.223,641.941,763.558z"/>
					<path style="fill:#E2A18D;" d="M614.538,556.218c2.521-1.512,26.878-15.63,50.38-5.556
						c17.487,7.496,26.717,23.399,38.164,52.414c13.481,34.168,16.766,56.476,10.342,67.538
						c-10.148,17.477-66.232,15.828-96.929-5.01c-22.158-15.042-33.531-42.573-30.396-69.36
						C589.224,569.53,612.929,557.183,614.538,556.218z"/>
					<path style="fill:#363E44;" d="M677.516,684.792c-14.241,0-29.649-2.73-43.078-7.702c-1.141-0.422-1.725-1.69-1.3-2.834
						c0.422-1.141,1.688-1.731,2.834-1.3c14.615,5.411,31.651,8.076,46.76,7.295c1.113-0.097,2.252,0.872,2.315,2.091
						c0.062,1.214-0.874,2.252-2.091,2.315C681.167,684.746,679.35,684.792,677.516,684.792z"/>
					<g>
						<path style="fill:#FFFFFF;" d="M638.487,614.55c0,0,7.256,6.754,17.427,9.398c2.14,0.556,4.409,0.931,6.767,1.022
							c13.565,0.526,14.299-18.412,0.734-18.937c-3.374-0.131-6.612,0.331-9.573,1.097c-0.591,0.153-1.171,0.318-1.739,0.494
							c-0.613,0.189-1.211,0.39-1.794,0.599C643.258,610.753,638.487,614.55,638.487,614.55z"/>
						<path style="fill:#363E44;" d="M687.611,616.453c0,0-10.63-9.894-24.195-10.419c-3.383-0.132-6.629,0.333-9.597,1.104
							c-1.895,4.875-1.638,10.534,1.207,15.399c0.286,0.489,0.596,0.954,0.92,1.404c2.134,0.553,4.386,0.938,6.737,1.029
							C676.246,625.496,687.611,616.453,687.611,616.453z"/>
					</g>
					<path style="fill:#363E44;" d="M706.432,628.067c-0.177,0-0.355-0.021-0.532-0.065c-1.182-0.293-1.903-1.49-1.611-2.67
						c0.463-1.867,0.454-3.294-0.021-3.815c-0.183-0.2-0.54-0.286-1.438-0.461c-0.861-0.168-1.933-0.377-3.193-0.917
						c-2.254-0.965-4.196-2.605-5.775-4.875c-0.695-0.999-0.448-2.373,0.553-3.068c0.999-0.695,2.371-0.45,3.068,0.553
						c1.098,1.578,2.407,2.702,3.889,3.337c0.829,0.355,1.576,0.5,2.3,0.642c1.249,0.241,2.663,0.517,3.852,1.813
						c1.585,1.738,1.925,4.304,1.047,7.85C708.321,627.397,707.421,628.067,706.432,628.067z"/>
					<path style="fill:#363E44;" d="M694.857,659.251c-0.202,0-0.411-0.028-0.616-0.088c-2.308-0.672-5.555-2.157-7.921-5.426
						c-2.108-2.911-3.286-7.052-2.803-9.846c0.291-1.673,1.104-2.543,1.735-2.976c1.884-1.288,3.789-0.215,5.325,0.646
						c1.497,0.84,3.245,1.75,5.499,1.712c2.101-0.075,4.214-0.648,6.106-1.651c1.072-0.579,2.407-0.166,2.98,0.913
						c0.573,1.074,0.164,2.409-0.913,2.98c-2.478,1.318-5.251,2.065-8.016,2.164c-3.566,0.155-6.119-1.32-7.818-2.274
						c-0.187-0.105-0.401-0.226-0.605-0.336c-0.037,1.309,0.51,3.91,2.08,6.083c1.634,2.254,3.938,3.299,5.583,3.779
						c1.169,0.34,1.841,1.563,1.501,2.732C696.694,658.627,695.813,659.251,694.857,659.251z"/>
					<g>
						
							<ellipse transform="matrix(0.511 -0.8596 0.8596 0.511 -253.4478 836.9886)" style="fill:#E2A18D;" cx="608.879" cy="641.242" rx="19.481" ry="22.403"/>
						<path style="fill:#363E44;" d="M612.79,663.697c-1.16,0-2.132-0.906-2.198-2.08c-0.069-1.216,0.859-2.256,2.076-2.325
							c5.906-0.336,10.852-3.154,13.573-7.73c0.62-1.046,1.974-1.395,3.021-0.769c1.046,0.622,1.391,1.975,0.769,3.021
							c-3.482,5.859-9.719,9.459-17.113,9.879C612.874,663.695,612.833,663.697,612.79,663.697z"/>
						<path style="fill:#363E44;" d="M590.593,630.536c-0.456,0-0.917-0.142-1.311-0.435c-0.98-0.726-1.182-2.106-0.456-3.083
							c6.731-9.069,20.115-10.968,31.132-4.416c1.046,0.622,1.391,1.974,0.769,3.021c-0.622,1.049-1.974,1.395-3.021,0.769
							c-8.923-5.303-20.048-3.871-25.34,3.253C591.932,630.229,591.267,630.536,590.593,630.536z"/>
						<path style="fill:#363E44;" d="M602.778,650.371c-0.383,0-0.771-0.099-1.124-0.31c-2.784-1.654-4.849-4.171-5.811-7.086
							c-0.997-3.025-0.702-6.113,0.833-8.692c1.888-3.182,5.406-5.077,9.416-5.077c0.015,0,0.03,0,0.045,0
							c1.216,0.004,2.201,0.995,2.196,2.213c-0.004,1.214-0.99,2.196-2.205,2.196c-0.009-0.002-0.022-0.002-0.037,0
							c-2.437,0-4.539,1.09-5.626,2.92c-0.872,1.468-1.027,3.264-0.435,5.06c0.629,1.903,2.005,3.566,3.876,4.677
							c1.046,0.622,1.391,1.974,0.769,3.021C604.264,649.986,603.529,650.371,602.778,650.371z"/>
					</g>
					<g>
						<path style="fill:#84524D;" d="M614.096,596.897c27.312-28.54,60.464-29.585,70.057-31.001
							c5.314-12.818,2.854-21.257,1.734-24.269c-6.402-17.212-33.251-29.806-64.399-22.795c2.437,0.294,14.041,5.027,15.688,8.408
							c-11.291-5.595-20.714-4.378-25.482-3.814c-21.865,2.582-40.667,22.61-46.805,51.832c0.829-1.727,5.808-9.101,11.355-11.528
							c-3.009,3.606-6.008,7.996-8.494,13.261c-10.817,22.902-4.22,45.997-1.473,54.086
							C569.821,625.162,584.385,601.537,614.096,596.897z"/>
						<path style="fill:#363E44;" d="M653.355,570.772c-0.207,0-0.416-0.028-0.618-0.088c-6.795-1.987-13.806-3.286-20.834-3.858
							c-5.626-0.463-11.339-0.463-16.978,0c-1.188,0.101-2.276-0.805-2.377-2.02c-0.097-1.214,0.805-2.278,2.02-2.377
							c5.876-0.471,11.829-0.476,17.692,0c5.559,0.454,11.106,1.344,16.551,2.651c-1.901-2.73-4.614-5.646-8.442-8.033
							c-5.542-3.46-11.026-4.3-14.65-4.395c-1.216-0.032-2.179-1.047-2.147-2.263c0.032-1.219,1.137-2.188,2.263-2.147
							c4.173,0.112,10.486,1.079,16.868,5.062c6.963,4.345,10.723,10.193,12.65,14.333c0.366,0.784,0.239,1.71-0.325,2.366
							C654.602,570.498,653.988,570.772,653.355,570.772z"/>
					</g>
				</g>
			</g>
			<g>
				<g>
					<polygon style="fill:#FFFFFF;" points="1163.731,1551.61 975.253,1622.672 975.253,1207.52 1192.153,1207.52 					"/>
					<path style="fill:#363E44;" d="M975.252,1624.234c-1.219,0-2.205-0.986-2.205-2.205v-408.807
						c0-29.914-25.323-54.251-56.451-54.251h-56.438c-1.219,0-2.205-0.986-2.205-2.205c0-1.219,0.986-2.205,2.205-2.205h56.438
						c33.559,0,60.861,26.316,60.861,58.66v408.807C977.457,1623.248,976.471,1624.234,975.252,1624.234z"/>
				</g>
				<g>
					<g>
						<g>
							<g>
								<path style="fill:#363E44;" d="M1764.476,1934.976c-9.503-10.05-26.009-25.024-50.341-36.159
									c-25.11-11.491-46.547-13.398-59.111-14.403c-67.274-5.38-130.281,26.592-150.645,37.721
									c-3.705,8.913-6.941,20.029-9.753,32.849c-4.072,18.566-2.614,39.881,3.818,57.013l2.611,6.893
									c27.527,2.682,83.285,2.797,151.431-19.681C1678.193,1990.73,1720.563,1973.052,1764.476,1934.976z"/>
							</g>
						</g>
						<g>
							<g>
								<g>
									<path style="fill:#363E44;" d="M1579.913,1938.292c19.802-0.768,48.338,0.638,80.361,11.271
										c59.598,19.789,94.889,59.459,109.367,77.949c-31.367,10.549-66.747,20.55-105.829,28.633
										c-58.389,12.077-111.527,17.08-156.997,18.463l-0.001,0c-15.205-17.025-22.587-32.879-29.055-55.672
										c-6.885-24.262-12.182-47.452,5.025-66.839C1504.02,1928.173,1544.241,1921.556,1579.913,1938.292z"/>
									<path style="fill:#FFFFFF;" d="M1710.299,1975.636c-0.426,0-0.855-0.123-1.234-0.379
										c-0.517-0.351-52.362-34.926-117.902-34.926c-0.086,0-0.174,0-0.263,0h-0.002c-1.217,0-2.203-0.986-2.205-2.203
										c-0.002-1.303,1.124-2.226,2.47-2.207c66.939,0,119.846,35.327,120.374,35.684c1.01,0.682,1.273,2.054,0.59,3.062
										C1711.701,1975.295,1711.005,1975.636,1710.299,1975.636z"/>
								</g>
								<path style="fill:#BC8271;" d="M1591.389,1927.055l-13.409-128.694l-146.833,27.746c0,0,31.145,79.632,52.78,126.125
									c6.385,13.722,20.331,22.322,35.456,21.753c12.174-0.458,27.787-2.15,44.557-6.761
									C1581.677,1962.347,1593.296,1945.351,1591.389,1927.055z"/>
							</g>
							<g>
								<g>
									<path style="fill:#ff6900;" d="M1611.119,1903.739l-171.421,18.995c0,0-38.25-145.471-62.107-185.989
										c-2.668-4.532-5.156-7.751-7.391-9.306l-248.545,41.481c-91.185,0-152.864-107.537-117.165-195.158l388.688-56.355
										c18.198-2.638,36.735-2.643,54.829,0.636c25.761,4.669,49.44,15.178,68.531,35.368
										C1570.838,1610.837,1593.137,1713.954,1611.119,1903.739z"/>
								</g>
								<path style="fill:#363E44;" d="M1370.197,1729.643c-0.392,0-0.79-0.103-1.148-0.325c-1.04-0.635-1.367-1.992-0.73-3.029
									l10.512-17.178c0.635-1.04,1.996-1.372,3.03-0.73c1.04,0.635,1.367,1.992,0.73,3.029l-10.512,17.178
									C1371.663,1729.269,1370.94,1729.643,1370.197,1729.643z"/>
							</g>
						</g>
					</g>
					<g>
						<path style="fill:#EFBC73;" d="M1006.46,1298.962c0,0-7.121,135.331-11.723,278.596l363.266-55.051
							c0,0-17.759-94.953-17.733-166.917L1006.46,1298.962z"/>
						<path style="fill:#BC8271;" d="M970.755,1342.692c0,0-11.712,138.74,75.684,153.094
							c87.396,14.355,73.776-145.624,73.776-145.624L970.755,1342.692z"/>
						<path style="fill:#EFBC73;" d="M951.289,1359.78c0,0,107.481,6.783,180.788,42.136c73.307,35.353,288.76,1.915,345.612-52.152
							c0,0-63.802-182.06-267.744-181.771S967.362,1269.314,951.289,1359.78z"/>
						<g>
							<path style="fill:#BC8271;" d="M1472.762,1298.962c0,0,66.859,114.49-7.793,148.415
								c-95.108,43.222-152.141-52.866-152.141-52.866L1472.762,1298.962z"/>
							<g>
								<g>
									<polygon style="fill:#D87355;" points="1404.177,1420.077 1226.089,1420.077 1316.062,1212.84 1494.15,1212.84 									
										"/>
								</g>
								<g>
									<path style="fill:#D87355;" d="M1221.21,1410.362c-0.293,0-0.59-0.058-0.876-0.183c-1.117-0.484-1.63-1.783-1.143-2.9
										l88.008-202.708c0.349-0.805,1.143-1.326,2.022-1.326h173.815c1.219,0,2.205,0.986,2.205,2.205
										c0,1.219-0.986,2.205-2.205,2.205h-172.368l-87.433,201.381C1222.875,1409.867,1222.063,1410.362,1221.21,1410.362z"/>
								</g>
							</g>
							<g>
								<path style="fill:#BC8271;" d="M1401.269,1263.651c1.434-10.548,25.452-11.963,48.754-11.563
									c17.11,0.293,36.566,1.895,36.566,15.642c0,15.982-24.106,15.961-39.792,14.63
									C1423.516,1280.386,1399.866,1273.964,1401.269,1263.651z"/>
								<path style="fill:#BC8271;" d="M1393.551,1287.689c1.564-11.136,27.755-12.63,53.164-12.208
									c18.658,0.31,39.873,2,39.873,16.513c0,16.872-26.287,16.85-43.391,15.446
									C1417.81,1305.356,1392.022,1298.576,1393.551,1287.689z"/>
								<path style="fill:#BC8271;" d="M1392.647,1316.551c0.888-11.589,23.92-14.12,46.348-14.638
									c16.468-0.38,35.253,0.573,35.893,15.6c0.745,17.47-22.439,18.434-37.586,17.623
									C1414.821,1333.932,1391.779,1327.881,1392.647,1316.551z"/>
								<path style="fill:#BC8271;" d="M1398.417,1340.739c0.676-9.598,18.75-11.651,36.353-12.039
									c12.926-0.285,27.672,0.54,28.202,12.988c0.617,14.472-17.579,15.228-29.47,14.528
									C1415.855,1355.176,1397.757,1350.122,1398.417,1340.739z"/>
								<g>
									<path style="fill:#363E44;" d="M1437.791,1358.499c-1.897,0-3.886-0.062-5.973-0.185c-1.216-0.071-2.142-1.115-2.071-2.33
										c0.071-1.214,1.12-2.129,2.33-2.071c12.988,0.754,22.001-0.965,26.096-4.993c1.873-1.843,2.724-4.179,2.597-7.138
										c-0.114-2.674-0.986-4.756-2.668-6.362l-2.943-2.81l3.962-0.93c9.437-2.213,13.875-6.817,13.567-14.075
										c-0.164-3.828-1.688-6.724-4.657-8.849l-4.261-3.051l5.159-0.913c2.392-0.424,4.543-0.99,6.395-1.682
										c1.148-0.424,2.411,0.153,2.838,1.292c0.426,1.141-0.153,2.411-1.292,2.838c-0.952,0.355-1.964,0.68-3.036,0.973
										c2.013,2.526,3.107,5.607,3.26,9.205c0.256,6.059-2.024,13.795-13.711,17.647c1.087,1.884,1.688,4.067,1.794,6.528
										c0.181,4.218-1.135,7.741-3.91,10.471C1456.917,1356.342,1449.035,1358.499,1437.791,1358.499z"/>
									<path style="fill:#363E44;" d="M1477.717,1282.11c-0.039,0-0.078,0-0.114-0.002l-49.469-2.532
										c-1.217-0.062-2.153-1.1-2.091-2.315c0.06-1.219,1.165-2.188,2.315-2.091l49.469,2.532c1.217,0.062,2.153,1.1,2.091,2.315
										C1479.857,1281.195,1478.881,1282.11,1477.717,1282.11z"/>
									<path style="fill:#363E44;" d="M1470.699,1309.009c-0.047,0-0.095-0.002-0.142-0.004l-48.082-3.047
										c-1.214-0.078-2.138-1.124-2.06-2.34c0.075-1.214,1.139-2.138,2.34-2.061l48.082,3.047c1.214,0.078,2.138,1.124,2.061,2.34
										C1472.824,1308.111,1471.854,1309.009,1470.699,1309.009z"/>
									<path style="fill:#363E44;" d="M1460.175,1335.906c-0.034,0-0.069,0-0.103-0.002l-49.07-2.235
										c-1.217-0.056-2.157-1.087-2.101-2.304c0.056-1.216,1.074-2.145,2.304-2.101l49.07,2.235
										c1.216,0.056,2.157,1.087,2.101,2.304C1462.322,1334.985,1461.346,1335.906,1460.175,1335.906z"/>
								</g>
							</g>
						</g>
						<g>
							<g>
								<path style="fill:#BC8271;" d="M1179.175,1223.3c-58.19,44.16-187.492,226.172-187.492,226.172l35.755,40.923l13.782,5.82
									c44.836,18.933,96.665-0.258,118.359-43.825l65.021-134.292c0,0,11.909,2.948,16.862-1.639
									c5.985-5.543,6.981-16.849,6.981-16.849s7.498-1.896,10.292-10.151c2.524-7.457-2.743-13.103-2.743-13.103
									s6.235-8.824,2.044-17.777c-6.247-13.345-31.946-18.07-31.946-18.07s61.784,5.387,61.022-10.851
									C1286.408,1214.686,1200.707,1206.959,1179.175,1223.3z"/>
							</g>
							<g>
								<path style="fill:#363E44;" d="M1004.944,1433.287c-0.45,0-0.904-0.138-1.294-0.422c-0.986-0.717-1.204-2.095-0.487-3.079
									c9.597-13.188,24.748-33.789,42.447-57.039c0.739-0.969,2.123-1.158,3.09-0.42c0.969,0.739,1.156,2.121,0.42,3.09
									c-17.675,23.219-32.807,43.793-42.391,56.961C1006.299,1432.972,1005.627,1433.287,1004.944,1433.287z"/>
							</g>
							<g>
								<path style="fill:#363E44;" d="M1255.882,1278.547c-0.698,0-1.387-0.332-1.813-0.948
									c-2.771-3.996-8.985-11.231-19.473-14.79c-7.676-2.605-14.626-2.226-19.105-1.441c-1.217,0.209-2.34-0.592-2.552-1.793
									c-0.209-1.199,0.594-2.343,1.794-2.552c4.984-0.872,12.725-1.296,21.28,1.608c11.685,3.968,18.599,12.012,21.678,16.452
									c0.695,1.001,0.446,2.375-0.553,3.068C1256.754,1278.42,1256.315,1278.547,1255.882,1278.547z"/>
								<path style="fill:#363E44;" d="M1248.835,1301.448c-0.648,0-1.288-0.282-1.725-0.827c-3.266-4.084-7.211-7.392-11.722-9.829
									c-7.036-3.802-13.858-4.616-18.405-4.616c-0.067,0-0.125-0.009-0.2,0c-1.212,0-2.198-0.98-2.205-2.194
									c-0.006-1.217,0.975-2.209,2.194-2.215c0.069,0,0.14,0,0.211,0c5.06,0,12.656,0.906,20.502,5.146
									c5.032,2.721,9.429,6.406,13.07,10.953c0.76,0.952,0.605,2.338-0.344,3.1
									C1249.804,1301.29,1249.318,1301.448,1248.835,1301.448z"/>
								<path style="fill:#363E44;" d="M1224.281,1319.98c-0.271,0-0.545-0.05-0.812-0.155c-1.133-0.448-1.686-1.729-1.238-2.861
									l3.619-9.144c0.448-1.133,1.731-1.684,2.862-1.238c1.132,0.448,1.686,1.729,1.238,2.862l-3.62,9.144
									C1225.988,1319.452,1225.157,1319.98,1224.281,1319.98z"/>
							</g>
						</g>
					</g>
					<g>
						<path style="fill:#363E44;" d="M1002.72,1144.9c0,0,189.711,90.229,311.601-69.453c0,0-71.264-73.261-128.811-96.677
							C1127.964,955.354,1073.439,989.264,1002.72,1144.9z"/>
						<path style="fill:#2D353A;" d="M1043.91,1148.23c-0.065,0-0.129-0.002-0.194-0.009c-1.212-0.105-2.11-1.173-2.005-2.388
							c6.251-71.818,39.93-105.36,41.362-106.753c0.874-0.848,2.267-0.825,3.116,0.041c0.848,0.872,0.831,2.267-0.039,3.118
							c-0.338,0.332-33.947,33.91-40.046,103.977C1046.005,1147.364,1045.042,1148.23,1043.91,1148.23z"/>
						<g>
							<path style="fill:#363E44;" d="M1113.753,993.625c0,0-16.219-85.977-88.803-55.553c-51.056,21.4-18.282,69.445,11.468,74.624
								C1067.1,1018.038,1113.753,993.625,1113.753,993.625z"/>
							<path style="fill:#363E44;" d="M1113.755,995.83c-0.09,0-0.183-0.006-0.278-0.017c-1.208-0.153-2.063-1.253-1.912-2.463
								c0.052-0.416,4.982-41.754-14.508-55.618c-10.1-7.183-25.28-5.85-45.136,3.955c-1.089,0.538-2.414,0.093-2.952-1.001
								c-0.541-1.092-0.093-2.414,1.001-2.952c21.426-10.581,38.128-11.791,49.649-3.591c21.63,15.397,16.547,57.954,16.321,59.758
								C1115.801,995.016,1114.851,995.83,1113.755,995.83z"/>
							<path style="fill:#2D353A;" d="M1059.587,1004.202c-12.04,0.002-22.823-3.471-32.237-10.404
								c-14.465-10.652-20.528-26.225-20.502-27.969c0.017-1.217,0.924-2.233,2.237-2.173c1.115,0.017,2.024,0.857,2.155,1.936
								c0.594,2.392,7.573,18.721,23.601,27.823c13.365,7.588,29.498,8.374,47.957,2.341c1.154-0.381,2.403,0.254,2.78,1.41
								c0.379,1.156-0.252,2.403-1.41,2.78C1075.483,1002.785,1067.278,1004.202,1059.587,1004.202z"/>
						</g>
						<path style="fill:#BC8271;" d="M1235,1114.414c-13.184,16.864-70.044-1.299-70.044-1.299l-43.888-48.484
							c-8.603-28.859,7.817-59.228,36.676-67.831c28.859-8.603,59.228,7.817,67.831,36.676
							C1225.575,1033.476,1248.428,1097.237,1235,1114.414z"/>
						<path style="fill:#BC8271;" d="M1206.84,1176.157l-4.652-106.312l-66.006,2.933l4.653,106.312
							c0.81,18.227,16.243,32.347,34.47,31.537C1193.531,1209.817,1207.65,1194.384,1206.84,1176.157z"/>
						<path style="fill:#BC8271;" d="M1223.666,1049.006c0,0,19.234,10.986,19.663,15.273c0.512,5.116-14.934,12.936-14.934,12.936
							S1224.067,1048.927,1223.666,1049.006z"/>
						<g>
							<path style="fill:#FFFFFF;" d="M1176.45,1067.843c0,0,4.466-9.354,13.346-15.853c1.889-1.383,9.391,16.344,6.971,16.8
								C1186.127,1070.798,1176.45,1067.843,1176.45,1067.843z"/>
							<path style="fill:#363E44;" d="M1204.074,1066.557c13.044-5.739,19.613-19.495,19.613-19.495s-14.58-4.453-27.624,1.286
								c-2.284,1.005-4.358,2.264-6.244,3.644c-0.786,6.627,2.015,12.901,6.937,16.799
								C1199.18,1068.334,1201.653,1067.622,1204.074,1066.557z"/>
						</g>
						<path style="fill:#363E44;" d="M1214.107,1094.862c-2.92,0-5.775-1.309-7.669-3.622c-0.773-0.943-0.633-2.332,0.308-3.103
							c0.941-0.777,2.332-0.633,3.103,0.308c1.313,1.604,3.445,2.332,5.454,1.871c2.076-0.484,3.686-2.162,4.102-4.272
							c0.239-1.195,1.402-1.97,2.59-1.738c1.195,0.237,1.972,1.395,1.737,2.59c-0.751,3.809-3.667,6.836-7.428,7.713
							C1215.575,1094.78,1214.839,1094.862,1214.107,1094.862z"/>
						<path style="fill:#363E44;" d="M1207.211,1124.513c-0.045,0-0.093-0.002-0.138-0.004c-19.895-1.225-41.603-8.1-42.518-8.393
							c-1.158-0.37-1.798-1.611-1.427-2.769c0.368-1.161,1.611-1.809,2.769-1.43c0.22,0.069,22.113,7,41.448,8.19
							c1.214,0.075,2.14,1.122,2.065,2.336C1209.338,1123.613,1208.367,1124.513,1207.211,1124.513z"/>
						<g>
							<path style="fill:#363E44;" d="M1118.344,1097.744c-15.57-7.462-20.354-44.167-10.788-67.679
								c12.333-30.312,48.101-48.207,77.001-45.768c7.104,0.599,23.339,4.073,28.731,14.2c4.198,7.884-3.802,24.268-17.356,28.978
								c-19.056,6.621-45.762,2.212-35.891,23.927C1189.951,1117.202,1135.452,1105.943,1118.344,1097.744z"/>
						</g>
					</g>
				</g>
				<g>
					<g>
						<ellipse style="fill:#FFFFFF;" cx="1123.706" cy="1862.173" rx="275.744" ry="265.404"/>
						<path style="fill:#363E44;" d="M1094.457,2129.842c-153.261,0-277.949-120.048-277.949-267.61
							c0-147.559,124.688-267.608,277.949-267.608s277.947,120.049,277.947,267.608
							C1372.404,2009.793,1247.718,2129.842,1094.457,2129.842z M1094.457,1599.034c-150.83,0-273.54,118.07-273.54,263.198
							s122.71,263.2,273.54,263.2s273.537-118.072,273.537-263.2S1245.287,1599.034,1094.457,1599.034z"/>
						<path style="fill:#363E44;" d="M1094.457,2017.992c-89.185,0-161.742-69.874-161.742-155.761
							c0-85.885,72.557-155.758,161.742-155.758c89.183,0,161.74,69.874,161.74,155.758
							C1256.197,1948.119,1183.64,2017.992,1094.457,2017.992z M1094.457,1710.883c-86.752,0-157.332,67.895-157.332,151.349
							c0,83.456,70.58,151.351,157.332,151.351s157.33-67.895,157.33-151.351
							C1251.787,1778.778,1181.209,1710.883,1094.457,1710.883z"/>
					</g>
					<path style="fill:#363E44;" d="M1515.353,1977.586c-1.219,0-2.205-0.986-2.205-2.205v-389.394
						c0-43.472-35.367-78.84-78.839-78.84H975.252c-1.219,0-2.205-0.986-2.205-2.205c0-1.219,0.986-2.205,2.205-2.205h459.057
						c45.903,0,83.249,37.346,83.249,83.249v389.394C1517.558,1976.6,1516.572,1977.586,1515.353,1977.586z"/>
					<g>
						
							<ellipse transform="matrix(0.8718 -0.4899 0.4899 0.8718 -799.7447 1006.0947)" style="fill:#FFFFFF;" cx="1522.213" cy="2030.913" rx="92.164" ry="88.708"/>
						<path style="fill:#363E44;" d="M1516.271,2133.005c-32.198,0-63.038-16.304-79.449-45.505l0,0
							c-24.557-43.702-7.629-99.996,37.734-125.487c21.964-12.342,47.24-15.703,71.179-9.487
							c23.969,6.231,43.724,21.329,55.629,42.514c11.905,21.185,14.527,45.909,7.383,69.624
							c-7.131,23.682-23.155,43.521-45.115,55.863C1548.579,2128.985,1532.256,2133.005,1516.271,2133.005z M1440.667,2085.338
							c23.364,41.582,77.561,55.646,120.802,31.343c20.963-11.778,36.253-30.704,43.056-53.29
							c6.793-22.554,4.304-46.062-7.008-66.19c-11.311-20.13-30.095-34.48-52.894-40.408c-22.819-5.934-46.945-2.715-67.906,9.065
							C1433.474,1990.159,1417.301,2043.757,1440.667,2085.338L1440.667,2085.338z"/>
						<path style="fill:#363E44;" d="M1517.457,2095.307c-4.692,0-9.392-0.594-14.01-1.793
							c-14.114-3.669-25.75-12.564-32.762-25.041c-14.458-25.732-4.504-58.869,22.186-73.87
							c26.697-14.999,60.172-6.261,74.632,19.464c7.011,12.48,8.557,27.043,4.352,41.007c-4.197,13.933-13.621,25.603-26.537,32.861
							C1536.635,2092.812,1527.071,2095.307,1517.457,2095.307z M1520.734,1991.674c-8.675,0-17.531,2.181-25.702,6.774
							c-24.574,13.808-33.77,44.251-20.502,67.863c6.419,11.425,17.083,19.57,30.026,22.935c12.977,3.376,26.682,1.544,38.599-5.157
							c11.918-6.696,20.61-17.454,24.477-30.288c3.856-12.805,2.446-26.148-3.975-37.572
							C1554.803,2000.47,1538.14,1991.674,1520.734,1991.674z"/>
					</g>
				</g>
			</g>
			<g>
				<g>
					<path style="fill:#E2A18D;" d="M660.2,1001.514c0.004,0,223.084,89.399,251.121,103.627c2.936,1.49,8.13,4.096,13.71,9.187
						c20.678,18.862,13.525,41.6,26.218,71.353c14.402,33.761,41.625,44.617,37.401,52.985c-2.938,5.821-14.36,4.616-34.867-6.124
						l-0.002,0.003c14.642,9.951,33.911,24.313,28.388,32.389c-6.875,8.984-31.495-5.232-45.969-14.559
						c17.519,11.29,23.457,22.535,19.255,26.27c-6.613,5.88-22.237,0.288-44.811-15.531l-0.001,0.001
						c12.536,15.278,13.3,20.852,8.781,23.249c-8.25,4.375-26.565-8.98-40.945-23.268c-16.189-16.085-23.165-34.176-27.292-45.688
						c-0.001-0.003-3.84-11.69-3.843-11.691c-79.345-27.864-147.226-36.169-226.612-71.078
						C540.432,1097.328,577.31,990.278,660.2,1001.514z"/>
					<path style="fill:#363E44;" d="M811.06,1062.201c-0.276,0-0.553-0.052-0.823-0.159c-10.279-4.132-92.936-35.714-93.769-36.033
						c-1.139-0.435-1.708-1.71-1.275-2.846c0.437-1.139,1.718-1.712,2.846-1.275c0.835,0.319,83.529,31.916,93.843,36.063
						c1.13,0.454,1.677,1.738,1.223,2.868C812.759,1061.68,811.932,1062.201,811.06,1062.201z"/>
					<path style="fill:#E2A18D;" d="M929.039,1154.978c29.751,10.413,65.304,1.109,65.877-13.463
						c0.38-9.676-49.786-17.065-77.695-33.08C925.72,1121.314,920.541,1142.098,929.039,1154.978z"/>
					<path style="fill:#363E44;" d="M953.766,1233.69c-0.482,0-0.969-0.157-1.376-0.484c-5.168-4.138-9.754-8.944-13.634-14.282
						c-2.67-3.675-5.015-7.626-6.97-11.743c-0.523-1.1-0.054-2.416,1.046-2.937c1.102-0.517,2.416-0.052,2.937,1.046
						c1.839,3.871,4.044,7.586,6.552,11.041c3.65,5.021,7.964,9.541,12.824,13.434c0.952,0.76,1.105,2.149,0.342,3.098
						C955.054,1233.408,954.414,1233.69,953.766,1233.69z"/>
					<path style="fill:#363E44;" d="M938.507,1252.903c-0.482,0-0.969-0.159-1.376-0.484c-5.176-4.149-9.764-8.955-13.634-14.282
						c-2.668-3.671-5.013-7.622-6.972-11.741c-0.523-1.1-0.054-2.416,1.044-2.939c1.104-0.523,2.416-0.052,2.939,1.044
						c1.843,3.878,4.048,7.592,6.554,11.043c3.641,5.01,7.956,9.53,12.824,13.433c0.952,0.762,1.105,2.149,0.342,3.099
						C939.794,1252.621,939.153,1252.903,938.507,1252.903z"/>
					<path style="fill:#363E44;" d="M910.363,1262.846c-0.482,0-0.969-0.159-1.376-0.484c-5.172-4.145-9.76-8.951-13.634-14.282
						c-2.67-3.675-5.015-7.626-6.97-11.743c-0.523-1.1-0.054-2.416,1.046-2.937c1.102-0.523,2.416-0.052,2.937,1.046
						c1.839,3.871,4.044,7.585,6.552,11.041c3.645,5.015,7.96,9.534,12.824,13.433c0.952,0.762,1.104,2.149,0.342,3.098
						C911.651,1262.564,911.009,1262.846,910.363,1262.846z"/>
				</g>
				<polygon style="fill:#E2A18D;" points="644.573,917.849 689.676,1015.27 588.646,1103.672 496.637,962.951 				"/>
				<polygon style="fill:#ff6900;" points="619.316,827.643 660.81,932.282 509.266,986.405 473.183,923.261 				"/>
				<path style="fill:#FFFFFF;" d="M509.265,988.609c-0.835,0-1.628-0.478-2-1.275l-29.767-64.045
					c-0.512-1.104-0.032-2.416,1.07-2.93c1.109-0.517,2.416-0.032,2.931,1.07l28.919,62.224l147.538-52.692l-35.288-93.518
					c-0.431-1.141,0.144-2.411,1.283-2.842c1.148-0.435,2.412,0.146,2.842,1.283l36.08,95.619c0.209,0.555,0.187,1.169-0.062,1.705
					c-0.248,0.536-0.702,0.952-1.26,1.15l-151.545,54.121C509.762,988.568,509.512,988.609,509.265,988.609z"/>
			</g>
		</g>
		<g>
			<g>
				<polygon style="fill:#FFFFFF;" points="1747.654,951.336 2148.224,778.912 2095.131,655.567 2065.141,634.813 2069.111,595.118 
					2045.933,541.273 1645.363,713.697 1668.54,767.542 1696.745,787.411 1694.561,827.991 				"/>
				<path style="fill:#363E44;" d="M1740.077,965.383l-104.034-241.69l2.024-0.872l402.597-173.294l104.033,241.69l-2.024,0.872
					L1740.077,965.383z M1641.836,726l100.55,233.59l396.521-170.682l-100.55-233.59L1641.836,726z"/>
				
					<rect x="1663.784" y="678.649" transform="matrix(-0.9185 0.3954 -0.3954 -0.9185 3891.6697 621.1024)" style="fill:#363E44;" width="436.104" height="65.812"/>
			</g>
			<g>
				<g>
					<g>
						<ellipse style="fill:#E0AA63;" cx="1689.562" cy="996.716" rx="108.127" ry="34.229"/>
						<rect x="1581.435" y="962.616" style="fill:#E0AA63;" width="216.253" height="35.267"/>
						<ellipse style="fill:#EFBC73;" cx="1689.562" cy="963.286" rx="108.127" ry="34.229"/>
						<path style="fill:#FFFFFF;" d="M1702.3,999.721c-61.869,0-110.331-16.004-110.331-36.435
							c0-20.429,48.463-36.433,110.331-36.433c61.868,0,110.331,16.004,110.331,36.433
							C1812.632,983.717,1764.169,999.721,1702.3,999.721z M1702.3,931.262c-63.361,0-105.922,16.558-105.922,32.024
							c0,15.466,42.561,32.026,105.922,32.026c63.36,0,105.922-16.56,105.922-32.026
							C1808.222,947.82,1765.661,931.262,1702.3,931.262z"/>
					</g>
					<g>
						<ellipse style="fill:#E0AA63;" cx="1707.322" cy="946.988" rx="108.127" ry="34.229"/>
						<rect x="1599.195" y="912.888" style="fill:#E0AA63;" width="216.253" height="35.267"/>
						<ellipse style="fill:#EFBC73;" cx="1707.322" cy="913.558" rx="108.127" ry="34.229"/>
						<path style="fill:#FFFFFF;" d="M1699.777,945.88c-61.869,0-110.331-16.004-110.331-36.436
							c0-20.429,48.463-36.433,110.331-36.433c61.868,0,110.331,16.004,110.331,36.433
							C1810.108,929.875,1761.645,945.88,1699.777,945.88z M1699.777,877.42c-63.361,0-105.922,16.558-105.922,32.024
							c0,15.466,42.561,32.026,105.922,32.026c63.36,0,105.922-16.56,105.922-32.026
							C1805.698,893.978,1763.137,877.42,1699.777,877.42z"/>
					</g>
					<g>
						<ellipse style="fill:#E0AA63;" cx="1689.562" cy="885.283" rx="108.127" ry="34.229"/>
						<rect x="1581.435" y="851.183" style="fill:#E0AA63;" width="216.253" height="35.267"/>
						<ellipse style="fill:#EFBC73;" cx="1689.562" cy="851.853" rx="108.127" ry="34.229"/>
						<path style="fill:#FFFFFF;" d="M1702.3,888.287c-61.869,0-110.331-16.004-110.331-36.435
							c0-20.429,48.463-36.433,110.331-36.433c61.868,0,110.331,16.004,110.331,36.433
							C1812.632,872.283,1764.169,888.287,1702.3,888.287z M1702.3,819.828c-63.361,0-105.922,16.558-105.922,32.024
							c0,15.466,42.561,32.026,105.922,32.026c63.36,0,105.922-16.56,105.922-32.026
							C1808.222,836.386,1765.661,819.828,1702.3,819.828z"/>
					</g>
					<g>
						<ellipse style="fill:#E0AA63;" cx="1724.592" cy="835.733" rx="108.127" ry="34.229"/>
						<rect x="1616.466" y="801.633" style="fill:#E0AA63;" width="216.253" height="35.267"/>
						<ellipse style="fill:#EFBC73;" cx="1724.592" cy="802.303" rx="108.127" ry="34.229"/>
						<path style="fill:#FFFFFF;" d="M1737.33,838.737c-61.869,0-110.331-16.004-110.331-36.433
							c0-20.431,48.463-36.435,110.331-36.435c61.868,0,110.333,16.004,110.333,36.435
							C1847.663,822.733,1799.198,838.737,1737.33,838.737z M1737.33,770.278c-63.361,0-105.922,16.56-105.922,32.026
							s42.561,32.024,105.922,32.024c63.36,0,105.924-16.558,105.924-32.024S1800.69,770.278,1737.33,770.278z"/>
					</g>
				</g>
				<g>
					<g>
						<ellipse style="fill:#E0AA63;" cx="1936.314" cy="997.932" rx="108.127" ry="34.229"/>
						<rect x="1828.187" y="963.833" style="fill:#E0AA63;" width="216.253" height="35.267"/>
						<ellipse style="fill:#EFBC73;" cx="1936.314" cy="964.502" rx="108.127" ry="34.229"/>
						<path style="fill:#FFFFFF;" d="M1949.053,1000.938c-61.868,0-110.331-16.004-110.331-36.436
							c0-20.429,48.463-36.433,110.331-36.433s110.331,16.004,110.331,36.433C2059.384,984.933,2010.921,1000.938,1949.053,1000.938
							z M1949.053,932.478c-63.361,0-105.922,16.558-105.922,32.024c0,15.466,42.561,32.026,105.922,32.026
							s105.922-16.56,105.922-32.026C2054.974,949.036,2012.413,932.478,1949.053,932.478z"/>
					</g>
					<g>
						<ellipse style="fill:#E0AA63;" cx="1923.575" cy="946.693" rx="108.127" ry="34.135"/>
						<rect x="1815.449" y="912.687" style="fill:#E0AA63;" width="216.253" height="35.17"/>
						<ellipse style="fill:#EFBC73;" cx="1923.575" cy="913.355" rx="108.127" ry="34.135"/>
						<path style="fill:#FFFFFF;" d="M1936.315,949.695c-61.868,0-110.331-15.961-110.331-36.339
							c0-20.377,48.463-36.341,110.331-36.341s110.331,15.963,110.331,36.341C2046.646,933.734,1998.183,949.695,1936.315,949.695z
							 M1936.315,881.425c-63.361,0-105.922,16.51-105.922,31.931c0,15.419,42.561,31.929,105.922,31.929
							s105.922-16.51,105.922-31.929C2042.236,897.935,1999.675,881.425,1936.315,881.425z"/>
					</g>
					<g>
						
							<ellipse transform="matrix(0.7103 -0.7039 0.7039 0.7103 -48.7412 1566.9406)" style="fill:#E0AA63;" cx="1879.372" cy="842.688" rx="34.234" ry="108.113"/>
						
							<rect x="1873.438" y="722.986" transform="matrix(0.7103 -0.7039 0.7039 0.7103 -37.2149 1571.7673)" style="fill:#E0AA63;" width="35.271" height="216.227"/>
						
							<ellipse transform="matrix(0.7103 -0.7039 0.7039 0.7103 -25.3 1576.8459)" style="fill:#EFBC73;" cx="1903.128" cy="819.161" rx="34.234" ry="108.113"/>
						<path style="fill:#FFFFFF;" d="M1977.539,910.831c-20.474,0-56.522-21.846-91.334-56.981
							c-20.481-20.668-37.202-42.654-47.081-61.905c-10.253-19.983-11.916-34.935-4.679-42.103
							c14.523-14.372,59.997,8.781,103.536,52.724c20.481,20.67,37.202,42.656,47.081,61.905
							c10.253,19.983,11.916,34.935,4.679,42.103C1986.829,909.455,1982.672,910.831,1977.539,910.831z M1846.727,749.941
							c-4.009,0-7.127,1.003-9.177,3.036c-5.676,5.618-3.671,19.088,5.497,36.954c9.678,18.859,26.118,40.458,46.288,60.813
							c44.589,45.003,86.313,63.58,97.301,52.694c5.674-5.617,3.671-19.088-5.497-36.952c-9.678-18.862-26.118-40.458-46.288-60.816
							C1898.581,769.065,1864.204,749.941,1846.727,749.941z"/>
					</g>
				</g>
			</g>
			<g>
				<path style="fill:#BC8271;" d="M1539.922,985.612c13.844,3.734,27.161,9.468,39.844,16.57l90.584,42.6
					c3.333-24.509,16.52-30.923,38.516-37.123l140.878-65.743c39.446-22.54,77.806-30.497,110.919-25.141l201.693,7.266
					l-0.724,165.674l-182.73-11.421c-9.88-1.599-29.503,12.031-37.688,18.273c0,0-82.175,57.9-89.008,62.284
					c-2.503,1.606-12.637,3.656-28.056,3.557c-53.291-0.344-105.644-14.067-152.507-39.442l-168.981-91.496
					C1492.384,1028.045,1485.532,970.942,1539.922,985.612z"/>
				<path style="fill:#363E44;" d="M1714.623,1076.81c-9.17,0-17.346-1.406-24.249-4.588c-10.671-4.92-18.117-13.931-22.128-26.783
					c-0.364-1.163,0.284-2.399,1.447-2.76c1.156-0.366,2.399,0.286,2.76,1.447c3.678,11.773,10.143,19.654,19.768,24.094
					c29.933,13.802,87.308-8.503,143.505-32.534c1.115-0.476,2.414,0.039,2.896,1.161c0.478,1.12-0.041,2.416-1.161,2.896
					C1792.833,1058.823,1747.413,1076.81,1714.623,1076.81z"/>
			</g>
		</g>
		<g>
			<g>
				<path style="fill:#E6D0BE;" d="M1660.461,1668.615h18.02c1.614,8.784,3.915,17.326,6.84,25.574l-15.595,9.004l30.492,52.815
					l15.631-9.025c5.736,6.715,11.992,12.971,18.707,18.707l-9.024,15.631l52.815,30.493h0l9.004-15.595
					c8.248,2.925,16.79,5.226,25.574,6.84v18.02h60.985v-18.02c8.784-1.614,17.326-3.915,25.574-6.84l9.004,15.595l0,0
					l52.815-30.493l-9.024-15.631c6.715-5.736,12.971-11.992,18.707-18.707l15.631,9.025l30.492-52.815l-15.595-9.004
					c2.925-8.248,5.226-16.79,6.84-25.574h18.02v-60.985l0,0h-18.02c-1.614-8.784-3.915-17.326-6.84-25.574l15.595-9.004
					l-30.492-52.815l-15.631,9.025c-5.736-6.715-11.991-12.971-18.707-18.707l9.024-15.63l-52.815-30.493l-9.004,15.595
					c-8.248-2.925-16.79-5.227-25.574-6.84v-18.02h-60.985v18.02c-8.784,1.614-17.326,3.915-25.574,6.84l-9.004-15.595
					l-52.815,30.493l9.024,15.63c-6.715,5.736-12.971,11.992-18.707,18.707l-15.631-9.025l-30.492,52.815l15.595,9.004
					c-2.925,8.248-5.226,16.79-6.84,25.574h-18.02V1668.615z M1846.726,1537.113c52.915,1.69,96.012,44.787,97.701,97.702
					c1.865,58.431-45.887,106.182-104.318,104.317c-52.915-1.69-96.012-44.787-97.701-97.702
					C1740.543,1582.999,1788.295,1535.247,1846.726,1537.113z"/>
			</g>
			<path style="fill:#F2E6DC;" d="M1843.417,1773.733c-61.785,0-115.764-41.713-131.269-101.441
				c-0.306-1.178,0.401-2.381,1.58-2.687c1.176-0.321,2.381,0.403,2.687,1.58c15.001,57.782,67.225,98.138,127.001,98.138
				c72.346,0,131.202-58.856,131.202-131.202c0-64.413-47.957-120.191-111.55-129.738c-1.203-0.181-2.035-1.305-1.854-2.508
				c0.183-1.204,1.307-2.005,2.508-1.854c31.778,4.771,60.945,20.834,82.127,45.227c21.394,24.638,33.178,56.201,33.178,88.873
				C1979.029,1712.898,1918.194,1773.733,1843.417,1773.733z"/>
		</g>
	</g>
</g>
</svg>
