<?xml version="1.0" encoding="utf-8"?>
<!-- Generator: Adobe Illustrator 27.5.0, SVG Export Plug-In . SVG Version: 6.00 Build 0)  -->
<svg version="1.1" xmlns="http://www.w3.org/2000/svg" xmlns:xlink="http://www.w3.org/1999/xlink" x="0px" y="0px"
	 viewBox="0 0 2500 2500" style="enable-background:new 0 0 2500 2500;" xml:space="preserve">
-
<g id="Illustration">
	<g id="Custom_clothing_and_accessories_1_">
		<circle style="fill:transparent;" cx="1250.302" cy="1250" r="915"/>
		<g>
			
				<rect x="622.16" y="416.101" transform="matrix(0.9857 -0.1684 0.1684 0.9857 -140.7376 182.48)" style="fill:#F7F1EB;" width="767.189" height="1010.196"/>
			<g>
				<path style="fill:#E6D0BE;" d="M758.569,1329.294c-0.453,0-0.899-0.14-1.275-0.405c-0.477-0.338-0.8-0.852-0.899-1.428
					L628.609,579.288c-0.205-1.2,0.602-2.339,1.802-2.544l594.907-101.61c0.574-0.098,1.167,0.036,1.646,0.374
					c0.477,0.338,0.8,0.852,0.899,1.428l127.786,748.173c0.207,1.2-0.601,2.34-1.802,2.545l-594.906,101.609
					C758.817,1329.284,758.693,1329.294,758.569,1329.294z M633.327,580.719l127.044,743.826l590.56-100.867l-127.044-743.826
					L633.327,580.719z"/>
				<path style="fill:#E6D0BE;" d="M703.398,1007.663c-0.453,0-0.899-0.14-1.275-0.405c-0.477-0.338-0.8-0.852-0.899-1.428
					l-28.449-166.568c-0.205-1.2,0.602-2.34,1.802-2.545l593.818-101.423c0.575-0.1,1.169,0.037,1.645,0.374
					c0.476,0.338,0.801,0.852,0.898,1.428l28.449,166.567c0.207,1.2-0.601,2.34-1.802,2.545l-593.816,101.424
					C703.646,1007.653,703.522,1007.663,703.398,1007.663z M677.494,840.693l27.707,162.221l589.469-100.681l-27.707-162.221
					L677.494,840.693z"/>
				<path style="fill:#D3BBA3;" d="M1074.808,1237.881c-1.022,0-1.935-0.713-2.154-1.747
					c-19.07-89.747-50.946-239.767-42.233-287.644l-36.568-164.726L953.989,541.38c-0.169-1.029,0.406-2.036,1.379-2.413
					l85.077-32.981c0.618-0.239,1.309-0.188,1.884,0.138c0.576,0.327,0.974,0.894,1.086,1.547
					c7.88,46.137,23.555,62.867,57.803,61.709c1.065-0.037,2.053,0.737,2.245,1.817l113.687,638.614
					c0.213,1.196-0.581,2.338-1.776,2.556l-140.17,25.478C1075.072,1237.869,1074.938,1237.881,1074.808,1237.881z M958.631,542.431
					l39.55,240.496l36.642,165.044c0.066,0.293,0.07,0.595,0.014,0.889c-8.766,46.144,22.577,194.33,41.685,284.262l135.902-24.703
					l-112.97-634.588c-34.577,0.513-51.637-17.302-59.918-62.766L958.631,542.431z"/>
				<path style="fill:#D3BBA3;" d="M890.343,1260.752c-3.962,0-7.823-0.053-11.585-0.16c-1.123-0.032-2.042-0.902-2.135-2.022
					c-1.113-13.428-2.606-27.997-4.187-43.421c-8.702-84.921-19.522-190.55,18.028-245.851c2.504-29.487-7.828-55.196-24.874-97.607
					c-7.216-17.956-15.396-38.307-24.292-63.13c-0.279-0.778-0.099-1.648,0.466-2.251c35.988-38.427-8.165-148.111-53.874-212.516
					c-0.353-0.498-0.484-1.12-0.362-1.718c0.122-0.598,0.488-1.119,1.008-1.438l90.469-55.426c0.534-0.327,1.187-0.411,1.784-0.232
					c0.601,0.18,1.096,0.607,1.363,1.174L998,782.347c0.114,0.243,0.183,0.505,0.203,0.773l12.724,168.719
					c15.65,26.124,34.179,121.424,50.54,205.565c5.474,28.155,10.645,54.749,15.5,77.817c0.121,0.575,0.007,1.175-0.315,1.665
					c-0.323,0.491-0.828,0.833-1.404,0.949C1000.139,1253.057,938.022,1260.751,890.343,1260.752z M880.852,1256.235
					c48.041,1.098,112.404-6.384,191.344-22.281c-4.729-22.59-9.752-48.416-15.058-75.708
					c-16.386-84.278-34.959-179.799-50.246-204.556c-0.185-0.3-0.296-0.641-0.322-0.993l-12.734-168.841L879.21,540.258
					l-86.365,52.912c45.701,65.337,88.647,174.566,53.051,215.148c8.694,24.182,16.704,44.111,23.786,61.729
					c17.403,43.299,27.907,69.434,25.124,100.218c-0.034,0.377-0.165,0.739-0.38,1.051
					c-37.026,53.831-26.256,158.933-17.603,243.385C878.328,1229.396,879.755,1243.316,880.852,1256.235z"/>
			</g>
		</g>
		<g>
			<path style="fill:#D3BBA3;" d="M485.776,1080.719l176.248,352.54c42.538,24.18,85.596,71.443,116.45,133.032l40.368-20.181
				L492.144,892.633L485.776,1080.719z"/>
			<path style="fill:#ff6900;" d="M975.362,1735.124c-71.239,35.615-158.169,6.633-193.784-64.604
				c-35.614-71.237-6.633-158.167,64.607-193.783c71.237-35.614,158.167-6.632,193.781,64.605
				C1075.58,1612.58,1046.598,1699.51,975.362,1735.124z M864.674,1513.72c-50.846,25.42-71.533,87.466-46.113,138.311
				c25.419,50.845,87.466,71.53,138.312,46.11c50.846-25.42,71.53-87.465,46.111-138.31
				C977.564,1508.986,915.519,1488.3,864.674,1513.72z"/>
			<path style="fill:#D3BBA3;" d="M720.032,1043.417l-58.044,389.845c-32.925,36.195-59.175,94.494-69.376,162.619l-44.639-6.646
				L655.565,866.61L720.032,1043.417z"/>
			<path style="fill:#363E44;" d="M661.991,1435.467c-0.109,0-0.218-0.008-0.328-0.025c-1.204-0.179-2.035-1.301-1.856-2.505
				l22.892-153.753c0.18-1.205,1.298-2.036,2.506-1.856c1.204,0.179,2.035,1.301,1.856,2.505l-22.892,153.753
				C664.005,1434.681,663.064,1435.467,661.991,1435.467z"/>
			<path style="fill:#363E44;" d="M592.567,1291.951c-0.109,0-0.218-0.008-0.328-0.025c-1.204-0.179-2.035-1.301-1.856-2.505
				l22.661-152.2c0.181-1.205,1.305-2.038,2.506-1.856c1.204,0.179,2.035,1.301,1.856,2.505l-22.661,152.2
				C594.581,1291.164,593.641,1291.951,592.567,1291.951z"/>
			<path style="fill:#ff6900;" d="M543.498,1804.013c-26.292,13.144-55.926,17.919-85.603,13.5
				c-38.162-5.681-71.824-25.884-94.789-56.885c-22.965-31.001-32.485-69.09-26.804-107.25c5.681-38.16,25.883-71.823,56.886-94.79
				c30.994-22.961,69.088-32.484,107.248-26.802c78.777,11.728,133.323,85.359,121.595,164.134
				c-5.681,38.16-25.886,71.825-56.886,94.79C558.253,1795.815,551.012,1800.256,543.498,1804.013z M433.25,1582.316
				c-5.364,2.682-10.531,5.85-15.45,9.494c-22.128,16.392-36.546,40.419-40.601,67.656c-8.372,56.226,30.56,108.78,86.782,117.152
				c56.227,8.369,108.782-30.56,117.153-86.787c4.055-27.236-2.738-54.422-19.13-76.55c-16.392-22.127-40.42-36.545-67.655-40.601
				C473.167,1569.527,452.013,1572.936,433.25,1582.316z"/>
			
				<ellipse transform="matrix(0.0652 -0.9979 0.9979 0.0652 -676.6596 1831.3458)" style="fill:#363E44;" cx="639.083" cy="1276.815" rx="13.77" ry="13.77"/>
		</g>
		<g>
			<path style="fill:#FFFFFF;" d="M1666.525,751.604l-0.322-0.065c-49.052-9.949-87.427-48.221-97.507-97.246v0l-0.065,0.322
				c-9.949,49.052-48.221,87.427-97.246,97.507h0l0.322,0.065c49.052,9.949,87.427,48.221,97.507,97.246v0l0.065-0.322
				C1579.227,800.059,1617.499,761.685,1666.525,751.604L1666.525,751.604z"/>
			<path style="fill:#FFFFFF;" d="M1507.186,636.731l-0.183-0.037c-27.892-5.657-49.712-27.419-55.444-55.295l0,0l-0.037,0.183
				c-5.657,27.892-27.419,49.712-55.295,55.444h0l0.183,0.037c27.891,5.657,49.712,27.419,55.444,55.295v0l0.037-0.183
				C1457.547,664.283,1479.309,642.463,1507.186,636.731L1507.186,636.731z"/>
			<path style="fill:#E6D0BE;" d="M1502.776,482.394l-0.183-0.037c-27.891-5.657-49.712-27.419-55.444-55.295v0l-0.037,0.183
				c-5.657,27.892-27.419,49.712-55.295,55.444l0,0l0.183,0.037c27.892,5.657,49.712,27.419,55.444,55.295l0,0l0.037-0.183
				C1453.138,509.946,1474.9,488.126,1502.776,482.394L1502.776,482.394z"/>
			<path style="fill:#FFFFFF;" d="M1674.003,526.746l-0.186-0.038c-28.37-5.754-50.565-27.889-56.396-56.244v0l-0.038,0.186
				c-5.754,28.37-27.89,50.565-56.244,56.396h0l0.186,0.038c28.37,5.754,50.565,27.889,56.396,56.244v0l0.038-0.186
				C1623.512,554.771,1645.648,532.576,1674.003,526.746L1674.003,526.746z"/>
			<path style="fill:#FFFFFF;" d="M1761.97,832.861l-0.13-0.026c-19.831-4.022-35.345-19.495-39.421-39.315l0,0l-0.026,0.13
				c-4.022,19.831-19.495,35.345-39.315,39.421h0l0.13,0.026c19.831,4.022,35.345,19.495,39.421,39.315l0,0l0.026-0.13
				C1726.677,852.45,1742.15,836.936,1761.97,832.861L1761.97,832.861z"/>
		</g>
		<g>
			<g>
				<g>
					<path style="fill:#363E44;" d="M1088.193,1207.298c-16.552,22.238-25.759,48.911-26.337,76.627l-3.847,184.353h362.965
						l-1.536-147.824c-0.481-46.249-14.916-91.727-41.416-129.633l-18.426-26.807h0.094
						c-25.778-26.458,25.44-227.221,54.464-374.118c-33.345-9.262-82.901-17.951-115.07-22.136
						c-15.004-1.952-26.734-14.328-26.734-29.458v-19.661h-74.964v24.537c0,11.606-8.403,21.298-19.95,22.46
						c-35.302,3.554-87.105,16.151-119.629,27.827c31.88,145.37,81.426,322.871,61.007,372.562L1088.193,1207.298z"/>
					<path style="fill:#363E44;" d="M1243.857,1987.618c-1.218,0-2.205-0.987-2.205-2.205V834.07h-16.049v1150.587
						c0,1.218-0.987,2.205-2.205,2.205c-1.218,0-2.205-0.987-2.205-2.205V829.66h24.868v1155.753
						C1246.061,1986.631,1245.074,1987.618,1243.857,1987.618z"/>
					<path style="fill:#363E44;" d="M1223.399,1987.618c-1.218,0-2.205-0.987-2.205-2.205v-0.757c0-1.218,0.987-2.205,2.205-2.205
						c1.218,0,2.205,0.987,2.205,2.205v0.757C1225.603,1986.631,1224.616,1987.618,1223.399,1987.618z"/>
					<path style="fill:#363E44;" d="M1018.607,2072.487c-0.865,0-1.686-0.512-2.038-1.361c-0.466-1.125,0.068-2.415,1.193-2.881
						l204.793-84.869c1.125-0.466,2.414,0.068,2.881,1.193c0.466,1.125-0.068,2.415-1.193,2.881l-204.793,84.869
						C1019.174,2072.433,1018.888,2072.487,1018.607,2072.487z"/>
					<path style="fill:#363E44;" d="M1473.26,2069.456c-0.245,0-0.495-0.042-0.741-0.129l-229.404-81.838
						c-1.146-0.409-1.745-1.671-1.336-2.817c0.409-1.147,1.67-1.745,2.817-1.336l229.403,81.838
						c1.148,0.409,1.744,1.671,1.335,2.817C1475.015,2068.894,1474.167,2069.456,1473.26,2069.456z"/>
				</g>
				<g>
					<path style="fill:#D87355;" d="M1121.281,1153.019c0.816-44.426-11.202-111.276-25.574-182.24
						c0.922-40.548,17.854-119.202,35.71-200.047l7.625-0.758c44.76,95.395,85.426,282.283,91.736,339.576
						c7.968-63.334,44.469-243.187,86.385-342.404h8.335c25.193,81.578,45.994,157.242,52.285,218.89
						c-15.537,64.713-28.42,126.554-21.975,164.761L1121.281,1153.019z"/>
					<path style="fill:#84524D;" d="M686.709,2014.966c3.795,12.704,12.964,24.138,29.764,33.767
						c11.113,6.369,23.304,10.637,35.856,13.19l167.769,34.123L762.484,1969.5L686.709,2014.966z"/>
					<path style="fill:#D87355;" d="M1121.66,1132.18c-22.748,28.465-66.264,88.628-78.049,111.39
						c-132.673,296.607-296.748,683.66-356.903,771.395c31.725-3.645,64.49,0.175,98.603,13.642
						c13.796,5.447,26.859,12.791,38.158,22.399c12.16,10.34,36.485,21.221,60.052,31.257
						c64.185,27.332,134.163,38.489,203.637,32.158c17.335-1.58,35.976-3.914,56.459-6.972
						c44.052-6.577,87.293-18.039,128.533-34.865c17.286-7.053,32.331-14.135,45.01-21.247
						c30.814-18.524,73.571,6.359,135.828,29.021c21.725,7.908,52.227,0.097,74.828-4.773c36.436-7.852,51.238-19.751,75.776-42.434
						c19.583-18.758,39.237-27.044,85.626-13.261l-256.879-771.774c-7.949-27.325-53.738-88.484-77.291-122.756
						C1266.818,1115.912,1188.466,1114.765,1121.66,1132.18z"/>
					<path style="fill:#84524D;" d="M1179.247,1145.752c-1.02,0-1.935-0.711-2.155-1.748l-37.319-176.178
						c-0.026-0.125-0.042-0.252-0.046-0.38l-6.819-193.227c-0.043-1.216,0.909-2.238,2.126-2.281
						c1.214-0.048,2.238,0.909,2.281,2.126l6.812,193.036l37.281,175.99c0.252,1.191-0.509,2.361-1.701,2.614
						C1179.552,1145.736,1179.399,1145.752,1179.247,1145.752z"/>
					<path style="fill:#84524D;" d="M1300.492,1140.448c-0.112,0-0.224-0.009-0.338-0.026c-1.204-0.185-2.028-1.311-1.843-2.514
						l26.682-173.52l-5.112-195.303c-0.03-1.217,0.93-2.23,2.147-2.262c1.109-0.024,2.231,0.927,2.263,2.147l5.116,195.501
						c0.002,0.131-0.006,0.263-0.026,0.393l-26.712,173.716C1302.501,1139.667,1301.562,1140.448,1300.492,1140.448z"/>
					<path style="fill:#84524D;" d="M1224.247,1151.23c-49.334,0-91.856-6.092-104.074-14.995c-0.984-0.717-1.2-2.096-0.483-3.08
						c0.717-0.983,2.094-1.202,3.08-0.483c23.376,17.033,178.349,23.773,228.832-8.04c1.031-0.649,2.394-0.341,3.04,0.69
						c0.65,1.03,0.34,2.392-0.689,3.041c-32.041,20.191-99.124,22.713-126.478,22.859
						C1226.397,1151.228,1225.317,1151.23,1224.247,1151.23z"/>
					<path style="fill:#84524D;" d="M882.209,2055.058c-0.544,0-1.087-0.199-1.513-0.601c-0.886-0.835-0.927-2.231-0.091-3.117
						c59.002-62.532,137.113-327.387,179.078-469.677c0.344-1.168,1.576-1.834,2.738-1.491c1.168,0.344,1.836,1.571,1.491,2.739
						c-42.068,142.643-120.375,408.155-180.099,471.455C883.379,2054.826,882.795,2055.058,882.209,2055.058z"/>
					<path style="fill:#84524D;" d="M1268.666,2061.879c-0.112,0-0.224-0.009-0.338-0.026c-1.204-0.186-2.028-1.312-1.843-2.515
						c21.327-138.108,19.383-416.035,15.888-665.7c-0.017-1.218,0.956-2.218,2.175-2.235c1.21-0.021,2.218,0.956,2.235,2.174
						c3.497,249.843,5.439,527.99-15.94,666.435C1270.675,2061.099,1269.736,2061.879,1268.666,2061.879z"/>
					<path style="fill:#84524D;" d="M1427.792,2073.245c-0.344,0-0.695-0.081-1.021-0.252
						c-59.952-31.421-103.607-33.305-137.394-5.923c-0.95,0.769-2.334,0.62-3.103-0.324c-0.767-0.946-0.62-2.334,0.325-3.101
						c35.329-28.629,80.517-26.897,142.217,5.443c1.079,0.565,1.496,1.898,0.93,2.977
						C1429.353,2072.815,1428.587,2073.245,1427.792,2073.245z"/>
				</g>
			</g>
			<g>
				<g>
					<g>
						<polygon style="fill:#E2A18D;" points="1866.072,2046.92 1978.886,2046.92 2002.563,1748.016 1862.126,1748.016 						"/>
						<g>
							<path style="fill:#E6D0BE;" d="M1786.411,2085.774h196.698v-89.993h-109.415c-48.205,0-87.283,39.078-87.283,87.283V2085.774
								z"/>
							<path style="fill:#363E44;" d="M1877.84,2015.913c-0.564,0-1.128-0.215-1.559-0.646l-17.354-17.355
								c-0.861-0.861-0.861-2.257,0-3.118c0.861-0.861,2.256-0.861,3.118,0l17.354,17.355c0.861,0.861,0.861,2.257,0,3.118
								C1878.968,2015.698,1878.404,2015.913,1877.84,2015.913z"/>
							<path style="fill:#363E44;" d="M1858.111,2021.833c-0.564,0-1.128-0.215-1.559-0.646l-17.356-17.356
								c-0.861-0.861-0.861-2.257,0-3.118c0.861-0.861,2.256-0.861,3.118,0l17.356,17.356c0.861,0.861,0.861,2.257,0,3.118
								C1859.239,2021.618,1858.675,2021.833,1858.111,2021.833z"/>
						</g>
					</g>
					<g>
						<polygon style="fill:#E2A18D;" points="1584.419,2009.523 1693.5,2028.74 1758.337,1773.384 1619.915,1749.679 						"/>
						<g>
							<path style="fill:#E6D0BE;" d="M1505.34,2085.774h196.698v-89.993h-109.415c-48.205,0-87.283,39.078-87.283,87.283V2085.774z
								"/>
							<path style="fill:#363E44;" d="M1596.771,2015.913c-0.564,0-1.128-0.215-1.559-0.646l-17.357-17.355
								c-0.861-0.861-0.861-2.257,0-3.118c0.861-0.861,2.257-0.861,3.118,0l17.357,17.355c0.861,0.861,0.861,2.257,0,3.118
								C1597.899,2015.698,1597.335,2015.913,1596.771,2015.913z"/>
							<path style="fill:#363E44;" d="M1577.039,2021.833c-0.564,0-1.128-0.215-1.559-0.646l-17.356-17.356
								c-0.861-0.861-0.861-2.257,0-3.118c0.861-0.861,2.256-0.861,3.118,0l17.356,17.356c0.861,0.861,0.861,2.257,0,3.118
								C1578.168,2021.618,1577.604,2021.833,1577.039,2021.833z"/>
						</g>
					</g>
					<path style="fill:#363E44;" d="M1995.21,1258.422c29.104,77.595,43.712,165.327,48.99,252.004
						c10.002,164.294-22.544,332.312-42.56,448.261c-48.215,0-96.429,0-144.644,0c-4.495-120.204-12.939-240.409-17.434-360.613
						c-37.926,119.562-71.905,239.123-109.83,358.685c-51.429,0-102.855,0-154.284,0c6.734-111.601,25.74-252.293,73.292-408.824
						c35.174-115.784,78.15-214.502,119.561-295.048C1853.929,1254.38,1918.21,1257.916,1995.21,1258.422z"/>
				</g>
				<g>
					<g>
						<path style="fill:#E2A18D;" d="M1721.183,1055.098c-95.245,39.541-141.731,73.117-123.819,107.945
							c10.39,20.204,77.961,16.785,154.766-10.434C1744.402,1120.948,1731.381,1093.196,1721.183,1055.098z"/>
						<path style="fill:#E2A18D;" d="M2033.397,1052.314c35.453,37.889,144.146,141.431,102.546,183.589
							c-34.41,34.872-136.057-70.328-173.586-105.836C1986.037,1104.15,2009.717,1078.232,2033.397,1052.314z"/>
						<path style="fill:#EFBC73;" d="M2062.178,1045.24c0,0-94.921-45.126-182.061-37.346s-172.335,42.014-172.335,42.014
							l41.625,105.813l-12.449,133.315l308.103-29.744l-23.341-96.958L2062.178,1045.24z"/>
					</g>
					<g>
						<path style="fill:#E2A18D;" d="M1692.221,1138.018c0.002-0.001,0.004-0.004,0.002-0.006
							c-34.111-86.877-56.646-149.169-64.359-168.126c-0.808-1.985-2.217-5.496-5.218-9.391
							c-11.116-14.434-26.253-11.025-44.867-20.869c-21.121-11.169-26.69-29.416-32.347-27.129
							c-3.935,1.591-3.772,9.065,2.086,22.949c0,0.001-0.001,0.002-0.001,0.002c-5.663-10.038-13.937-23.315-19.475-20.169
							c-6.2,3.974,1.689,20.714,6.957,30.608c-6.376-11.975-13.349-16.436-15.999-13.913c-4.172,3.972-1.39,14.409,7.65,29.909
							c0,0.001-0.001,0.001-0.001,0.001c-9.232-8.959-12.807-9.756-14.606-6.955c-3.285,5.115,4.388,17.719,12.878,27.82
							c9.558,11.372,20.916,16.877,28.161,20.177c0.002,0.001,0.004,0.003,0.004,0.005c17.582,63.324,28.805,104.068,41.964,155.5
							c2.692,10.522,13.823,16.48,24.075,12.895C1646.841,1161.632,1662.273,1155.679,1692.221,1138.018z"/>
						<path style="fill:#363E44;" d="M1679.826,1108.426c-0.883,0-1.718-0.535-2.056-1.409c-3.723-9.608-7.276-18.831-10.647-27.637
							c-0.437-1.137,0.134-2.412,1.27-2.848c1.13-0.435,2.412,0.132,2.847,1.27c3.372,8.8,6.92,18.018,10.643,27.621
							c0.439,1.135-0.125,2.413-1.26,2.852C1680.36,1108.378,1680.091,1108.426,1679.826,1108.426z"/>
						<path style="fill:#363E44;" d="M1579.757,979.663c-0.484,0-0.975-0.16-1.382-0.489c-7.607-6.14-16.215-6.349-19.557-6.153
							c-1.26,0.083-2.259-0.857-2.33-2.072c-0.071-1.216,0.857-2.259,2.071-2.33c3.861-0.224,13.78,0.016,22.584,7.124
							c0.947,0.765,1.096,2.153,0.332,3.1C1581.04,979.382,1580.401,979.663,1579.757,979.663z"/>
						<path style="fill:#363E44;" d="M1563.496,952.052c-0.377,0-0.758-0.097-1.107-0.3c-2.612-1.519-5.086-3.282-7.353-5.239
							c-3.303-2.847-6.218-6.134-8.664-9.771c-0.678-1.01-0.411-2.381,0.601-3.06c1.01-0.683,2.379-0.41,3.06,0.599
							c2.226,3.31,4.879,6.302,7.885,8.892c2.063,1.781,4.313,3.385,6.69,4.768c1.053,0.612,1.41,1.962,0.797,3.014
							C1564.995,951.659,1564.256,952.052,1563.496,952.052z"/>
						<path style="fill:#363E44;" d="M1550.209,960.911c-0.377,0-0.758-0.096-1.107-0.299c-2.603-1.514-5.079-3.277-7.355-5.239
							c-3.297-2.842-6.212-6.129-8.662-9.77c-0.68-1.01-0.413-2.38,0.596-3.061c1.012-0.679,2.379-0.412,3.06,0.597
							c2.233,3.316,4.885,6.309,7.887,8.894c2.069,1.785,4.321,3.39,6.692,4.767c1.053,0.612,1.41,1.962,0.797,3.014
							C1551.708,960.518,1550.969,960.911,1550.209,960.911z"/>
						<path style="fill:#363E44;" d="M1542.236,978.629c-0.377,0-0.758-0.096-1.104-0.299c-2.61-1.516-5.084-3.279-7.357-5.24
							c-3.303-2.847-6.218-6.134-8.664-9.771c-0.678-1.01-0.411-2.381,0.601-3.06c1.008-0.682,2.379-0.41,3.06,0.599
							c2.226,3.31,4.879,6.302,7.885,8.893c2.067,1.784,4.317,3.388,6.69,4.766c1.053,0.612,1.413,1.961,0.799,3.014
							C1543.735,978.236,1542.996,978.629,1542.236,978.629z"/>
						<path style="fill:#E2A18D;" d="M1598.289,953.161c-14.776-14.776-20.464-26.628-16.86-27.658
							c6.061-1.732,28.827,7.204,43.517,38.778C1615.324,961.394,1607.91,956.047,1598.289,953.161z"/>
					</g>
				</g>
				<g>
					<path style="fill:#E2A18D;" d="M1906.19,859.214c-2.199-1.162-23.423-11.972-42.815-2.384
						c-14.43,7.134-21.498,20.992-29.838,46.029c-9.822,29.483-11.575,48.479-5.641,57.53c9.375,14.299,56.678,10.336,81.656-8.676
						c18.03-13.723,26.375-37.503,22.5-59.989C1928.186,869.3,1907.594,859.956,1906.19,859.214z"/>
					<path style="fill:#E2A18D;" d="M1877.124,1052.279h3.619c14.186,0,25.687-11.5,25.687-25.687V943.38
						c0-14.187-11.5-25.687-25.687-25.687h-3.619c-14.186,0-25.687,11.5-25.687,25.687v83.212
						C1851.437,1040.778,1862.937,1052.279,1877.124,1052.279z"/>
					<path style="fill:#363E44;" d="M1853.968,971.192c-0.68,0-1.352-0.009-2.011-0.025c-1.219-0.032-2.179-1.044-2.149-2.261
						c0.032-1.217,0.988-2.188,2.261-2.147c16.381,0.427,40.12-4.604,56.148-16.8c0.969-0.737,2.351-0.55,3.09,0.419
						c0.736,0.969,0.549,2.352-0.42,3.09C1894.661,965.817,1871.03,971.192,1853.968,971.192z"/>
					<g>
						
							<ellipse transform="matrix(0.9182 -0.3961 0.3961 0.9182 -182.3343 851.8873)" style="fill:#363E44;" cx="1971.467" cy="867.421" rx="43.311" ry="43.311"/>
						<path style="fill:#363E44;" d="M1985.76,917.226c-5.82,0-11.849-0.799-17.841-2.401
							c-26.494-7.088-44.012-27.944-39.049-46.492c4.963-18.548,30.544-27.875,57.05-20.786
							c26.494,7.088,44.012,27.944,39.049,46.492c-2.444,9.14-9.833,16.311-20.804,20.192
							C1998.526,916.225,1992.273,917.226,1985.76,917.226z M1968.055,849.557c-17.324,0-31.617,7.545-34.926,19.915l0,0
							c-4.332,16.2,11.786,34.634,35.932,41.093c11.836,3.167,23.781,2.994,33.634-0.491c9.56-3.381,15.957-9.48,18.015-17.173
							c4.332-16.2-11.786-34.634-35.932-41.093C1979.07,850.279,1973.418,849.557,1968.055,849.557z M1930.999,868.902h0.021
							H1930.999z"/>
						<path style="fill:#363E44;" d="M1982.885,928.148c-3.389,0-6.959-0.501-10.643-1.513
							c-10.925-3.003-21.609-10.184-30.084-20.222c-8.477-10.038-13.767-21.774-14.895-33.047
							c-1.161-11.579,2.183-21.318,9.411-27.421l0,0c7.228-6.104,17.387-7.767,28.611-4.683
							c10.925,3.002,21.609,10.184,30.084,20.221c17.694,20.955,20.153,48.081,5.484,60.469
							C1995.998,926.052,1989.819,928.148,1982.885,928.148z M1954.669,844.163c-5.904,0-11.11,1.741-15.147,5.151
							c0,0.001,0,0.001,0,0.001c-6.087,5.137-8.882,13.523-7.87,23.612c1.04,10.395,5.969,21.277,13.875,30.641
							c7.909,9.365,17.811,16.046,27.885,18.815c9.777,2.686,18.513,1.337,24.595-3.801c12.813-10.819,10.12-35.158-6.005-54.255
							c-7.909-9.364-17.811-16.046-27.885-18.814C1960.831,844.61,1957.659,844.163,1954.669,844.163z M1938.098,847.629h0.021
							H1938.098z"/>
						<path style="fill:#363E44;" d="M1852.653,864.666c18.292-26.417,66.024-21.084,85.92,2.279
							c21.267,24.972,14.165,62.614,0.028,81.214c-8.404,11.057-26.056,25.116-34.779,18.084
							c-10.555-8.508,5.345-27.511-5.156-56.247C1890.556,887.801,1859.885,882.607,1852.653,864.666z"/>
					</g>
					<g>
						
							<ellipse transform="matrix(0.7395 -0.6732 0.6732 0.7395 -129.7825 1520.7106)" style="fill:#E2A18D;" cx="1899.848" cy="928.033" rx="19.562" ry="16.535"/>
						<path style="fill:#363E44;" d="M1903.91,937.674c-0.728,0-1.441-0.361-1.863-1.021c-0.652-1.027-0.351-2.39,0.676-3.044
							c0.456-0.291,0.891-0.624,1.294-0.992c1.58-1.439,2.588-3.289,2.842-5.211c0.232-1.783-0.226-3.411-1.292-4.582
							c-0.53-0.584-1.184-1.028-1.942-1.32c-1.135-0.439-1.701-1.715-1.262-2.851c0.439-1.136,1.72-1.7,2.851-1.263
							c1.404,0.542,2.62,1.372,3.615,2.467c1.953,2.146,2.808,5.031,2.401,8.123c-0.388,2.954-1.895,5.758-4.244,7.896
							c-0.586,0.536-1.225,1.025-1.895,1.451C1904.726,937.562,1904.315,937.674,1903.91,937.674z"/>
					</g>
					<g>
						<path style="fill:#FFFFFF;" d="M1886.599,911.756c0,0-6.864-5.56-16.077-7.306c-1.96-0.372-1.236,16.015,0.793,15.48
							C1880.237,917.576,1886.599,911.756,1886.599,911.756z"/>
						<path style="fill:#373E44;" d="M1864.367,903.944c2.125-0.064,4.182,0.145,6.139,0.515c3.033,4.811,3.177,10.664,0.817,15.466
							c-2.031,0.537-4.195,0.896-6.447,0.964c-12.139,0.365-22.234-7.813-22.234-7.813S1852.228,904.309,1864.367,903.944z"/>
					</g>
					<path style="fill:#363E44;" d="M1844.697,942.759c-2.442,0-4.879-1.112-6.539-3.135c-0.771-0.942-0.635-2.331,0.308-3.103
						c0.941-0.775,2.33-0.633,3.103,0.306c1.13,1.378,2.956,1.895,4.466,1.254c1.839-0.786,2.185-3.064,2.19-3.087
						c0.172-1.195,1.27-2.047,2.472-1.886c1.199,0.158,2.048,1.238,1.903,2.437c-0.024,0.195-0.629,4.795-4.834,6.591
						C1846.781,942.557,1845.739,942.759,1844.697,942.759z"/>
					<path style="fill:#363E44;" d="M1830.684,925.998c-0.622,0-1.24-0.263-1.677-0.774c-2.743-3.215-3.654-5.892-2.782-8.18
						c0.612-1.598,1.843-2.322,2.931-2.96c0.689-0.404,1.397-0.821,2.149-1.527c1.111-1.049,1.962-2.411,2.521-4.049
						c0.396-1.151,1.647-1.768,2.801-1.371c1.152,0.395,1.766,1.649,1.371,2.801c-0.797,2.323-2.03,4.284-3.671,5.828
						c-1.111,1.048-2.166,1.668-2.937,2.121c-0.463,0.271-0.988,0.579-1.046,0.73c-0.125,0.329,0.134,1.539,2.018,3.746
						c0.79,0.926,0.68,2.318-0.246,3.109C1831.7,925.825,1831.192,925.998,1830.684,925.998z"/>
				</g>
				<g>
					<path style="fill:#84524D;" d="M2038.604,1708.353c74.642-25.447,105.635-54.096,103.005-77.634
						c-0.752-6.732-6.629-11.646-13.399-11.396c-34.324,1.266-41.376-15.586-33.232-42.535c0.894-2.955,0.897-6.128,0.064-9.1
						c-5.049-18.015-23.264-22.709-61.383-7.264c4.168,46.721-12.92,109.73-28.457,158.259L2038.604,1708.353z"/>
					<path style="fill:#D87355;" d="M1200.845,1160.596c33.679,55.377,71.243,104.038,120.863,131.849
						c137.153,101.918,332.437,81.904,564.149-19.323c24.24-10.59,44.115,1.062,50.37,26.763
						c25.576,105.103,38.277,204.859,30.331,296.041c85.381-52.469,121.077-54.666,128.485-28.238
						c0.833,2.972,0.829,6.145-0.064,9.1c-8.144,26.948-1.093,43.801,33.232,42.535c6.77-0.25,12.647,4.664,13.399,11.396
						c2.992,26.785-37.533,60.192-136.406,87.964c25.764,19.702,52.397,2.489,87.142-9.093
						c36.372-12.124,84.468-44.571,65.377-101.248l-101.716-301.968c-19.764-58.673-67.87-103.259-127.784-118.862
						c-177.057-46.109-368.46-71.827-571.28-58.743C1316.404,1149.23,1255.97,1161.42,1200.845,1160.596z"/>
					<path style="fill:#84524D;" d="M1516.454,1359.439c-0.065,0-0.129-0.003-0.194-0.009
						c-73.528-6.448-137.696-26.365-190.723-59.2c-51.945-32.164-94.671-77.633-126.992-135.144
						c-0.598-1.062-0.22-2.406,0.842-3.003c1.058-0.595,2.406-0.22,3.001,0.842c64.549,114.85,170.279,179.486,314.256,192.112
						c1.214,0.106,2.11,1.176,2.005,2.389C1518.547,1358.574,1517.585,1359.439,1516.454,1359.439z"/>
					<path style="fill:#84524D;" d="M1578.402,1256.042c-26.731,0-53.34-1.273-79.044-3.886
						c-112.965-11.484-191.27-46.442-220.493-98.435c-0.596-1.062-0.22-2.406,0.842-3.003c1.064-0.595,2.407-0.219,3.004,0.842
						c28.499,50.707,105.597,84.875,217.093,96.209c97.223,9.885,207.449,0.501,287.645-24.489c1.169-0.364,2.399,0.286,2.763,1.448
						c0.362,1.163-0.286,2.399-1.449,2.761C1729.254,1246.031,1653.355,1256.042,1578.402,1256.042z"/>
					<path style="fill:#84524D;" d="M2090.831,1569.337c-0.771,0-1.518-0.404-1.923-1.122
						c-25.696-45.565-45.922-140.536-67.337-241.082c-4.524-21.248-9.205-43.22-13.974-64.903c-0.263-1.189,0.491-2.365,1.679-2.627
						c1.184-0.265,2.364,0.49,2.627,1.679c4.774,21.698,9.454,43.677,13.98,64.932c21.342,100.207,41.502,194.857,66.866,239.834
						c0.599,1.06,0.224,2.406-0.838,3.004C2091.57,1569.245,2091.197,1569.337,2090.831,1569.337z"/>
					<path style="fill:#84524D;" d="M1550.056,1184.839c-70.238,0-138.053-14.437-202.725-43.257
						c-1.111-0.495-1.613-1.799-1.115-2.911c0.495-1.112,1.792-1.614,2.911-1.117c104.906,46.751,218.195,55.313,336.713,25.45
						c1.18-0.294,2.379,0.418,2.676,1.599c0.297,1.181-0.418,2.379-1.6,2.677
						C1640.441,1178.991,1594.758,1184.839,1550.056,1184.839z"/>
				</g>
				<g>
					<g>
						<path style="fill:#E2A18D;" d="M2097.237,1158.872c-40.076,8.72-135.47,24.582-144.721,26.502
							c-17.292,3.588-109.593,25.251-107.911,38.908c0.804,6.526,18.774,3.156,24.816,1.841
							c-4.356,3.469-13.556,9.935-10.788,16.767c3.251,8.026,18.032,2.67,18.504,2.741c-4.781,3.074-12.027,9.423-10.152,14.625
							c2.44,6.769,11.526,6.671,17.854,4.812c-0.41,1.059-7.582,8.141-5.915,12.223c1.846,4.522,9.838,5.348,17.942,4.346
							c15.366-3.176,75.744-12.311,105.285-15.354c69.38-7.146,90.791-15.087,123.729-24.442
							C2138.773,1238.178,2116.902,1168.907,2097.237,1158.872z"/>
						<path style="fill:#363E44;" d="M2024.312,1173.876c-1.044,0-1.972-0.746-2.166-1.81c-0.22-1.198,0.575-2.346,1.772-2.564
							c19.391-3.532,59.578-10.936,72.875-13.675c1.21-0.246,2.36,0.523,2.605,1.715c0.245,1.192-0.523,2.358-1.714,2.604
							c-13.339,2.747-53.568,10.159-72.974,13.695C2024.577,1173.865,2024.443,1173.876,2024.312,1173.876z"/>
						<path style="fill:#363E44;" d="M1869.077,1227.731c-0.739,0-1.46-0.371-1.877-1.045c-0.64-1.036-0.321-2.394,0.715-3.035
							c3.228-1.997,6.623-3.786,10.092-5.318c6.227-2.75,12.813-4.733,19.578-5.892c1.223-0.206,2.341,0.601,2.545,1.801
							c0.207,1.2-0.601,2.34-1.8,2.546c-6.408,1.099-12.645,2.976-18.541,5.58c-3.284,1.45-6.498,3.144-9.553,5.034
							C1869.874,1227.625,1869.473,1227.731,1869.077,1227.731z"/>
						<path style="fill:#363E44;" d="M1876.703,1247.463c-0.825,0-1.613-0.463-1.992-1.255c-0.525-1.099-0.06-2.415,1.04-2.94
							c0.719-0.344,1.456-0.682,2.209-1.016c6.225-2.75,12.811-4.732,19.578-5.893c1.206-0.206,2.341,0.601,2.545,1.8
							c0.207,1.2-0.599,2.34-1.8,2.546c-6.41,1.1-12.648,2.977-18.541,5.58c-0.715,0.315-1.412,0.636-2.093,0.961
							C1877.345,1247.394,1877.022,1247.463,1876.703,1247.463z"/>
						<path style="fill:#363E44;" d="M1885.219,1266.999c-0.917,0-1.772-0.575-2.086-1.49c-0.394-1.152,0.22-2.406,1.372-2.801
							c4.209-1.443,8.58-2.559,12.992-3.314c1.227-0.206,2.343,0.602,2.545,1.8c0.207,1.2-0.601,2.34-1.8,2.546
							c-4.179,0.716-8.32,1.773-12.307,3.14C1885.697,1266.961,1885.456,1266.999,1885.219,1266.999z"/>
					</g>
				</g>
			</g>
		</g>
	</g>
</g>
</svg>
