<?xml version="1.0" encoding="utf-8"?>
<!-- Generator: Adobe Illustrator 27.5.0, SVG Export Plug-In . SVG Version: 6.00 Build 0)  -->
<svg version="1.1" xmlns="http://www.w3.org/2000/svg" xmlns:xlink="http://www.w3.org/1999/xlink" x="0px" y="0px"
	 viewBox="0 0 2500 2500" style="enable-background:new 0 0 2500 2500;" xml:space="preserve">
-
<g id="Illustration">
	<g id="Software_development_team_1_">
		<circle style="fill:transparent;" cx="1250" cy="1250" r="915"/>
		<g>
			<g>
				<path style="fill:#FFFFFF;" d="M1449.38,1184.237c0,0-584.172-19.39-589.688,2.045l-171.928,667.873h942.838l171.923-667.867
					C1808.041,1164.853,1449.38,1184.237,1449.38,1184.237z"/>
				<polygon style="fill:#E6D0BE;" points="1821.165,1113.863 878.327,1113.863 859.686,1186.29 1802.524,1186.29 				"/>
				<path style="fill:#FFFFFF;" d="M933.509,1150.582c-2.341,9.098-11.615,16.473-20.713,16.473
					c-9.098,0-14.575-7.375-12.233-16.473c2.341-9.098,11.615-16.473,20.713-16.473
					C930.373,1134.109,935.85,1141.484,933.509,1150.582z"/>
				
					<ellipse transform="matrix(0.7509 -0.6604 0.6604 0.7509 -518.1779 927.432)" style="fill:#FFFFFF;" cx="970.26" cy="1150.582" rx="18.729" ry="14.489"/>
				
					<ellipse transform="matrix(0.7509 -0.6604 0.6604 0.7509 -504.9195 962.5926)" style="fill:#FFFFFF;" cx="1023.485" cy="1150.582" rx="18.729" ry="14.489"/>
			</g>
			<g>
				<polygon style="fill:#E6D0BE;" points="1423.271,1401.956 856.481,1401.956 862.892,1377.048 1429.681,1377.048 				"/>
				<polygon style="fill:#E6D0BE;" points="1664.705,1401.956 1461.005,1401.956 1467.416,1377.048 1671.115,1377.048 				"/>
				<polygon style="fill:#E6D0BE;" points="1261.722,1482.434 1098.261,1482.434 1104.672,1457.526 1268.132,1457.526 				"/>
				<polygon style="fill:#E6D0BE;" points="1623.873,1482.434 1299.456,1482.434 1305.867,1457.526 1630.283,1457.526 				"/>
				<polygon style="fill:#E6D0BE;" points="1199.584,1723.868 1036.124,1723.868 1042.534,1698.96 1205.995,1698.96 				"/>
				<polygon style="fill:#E6D0BE;" points="1561.735,1723.868 1237.318,1723.868 1243.729,1698.96 1568.145,1698.96 				"/>
				<polygon style="fill:#E6D0BE;" points="1522.682,1562.912 1178.146,1562.912 1184.557,1538.004 1529.093,1538.004 				"/>
				<polygon style="fill:#E6D0BE;" points="1341.014,1643.39 1157.434,1643.39 1163.844,1618.482 1347.424,1618.482 				"/>
			</g>
			<g>
				<path style="fill:#363E44;" d="M960.017,1335.373c-0.674,0-1.339-0.308-1.772-0.89l-31.298-42.145l52.509-41.76
					c0.952-0.761,2.338-0.599,3.096,0.353c0.758,0.953,0.601,2.34-0.353,3.098l-49.167,39.105l28.753,38.719
					c0.726,0.978,0.523,2.359-0.454,3.084C960.934,1335.231,960.473,1335.373,960.017,1335.373z"/>
				<path style="fill:#363E44;" d="M1026.247,1335.373c-0.65,0-1.292-0.285-1.727-0.832c-0.758-0.953-0.601-2.34,0.353-3.098
					l49.167-39.104l-28.753-38.72c-0.726-0.977-0.523-2.359,0.454-3.084c0.98-0.729,2.358-0.522,3.086,0.455l31.298,42.146
					l-52.509,41.759C1027.212,1335.216,1026.728,1335.373,1026.247,1335.373z"/>
				<path style="fill:#363E44;" d="M976.469,1332.881c-0.443,0-0.891-0.134-1.281-0.411c-0.99-0.709-1.219-2.086-0.51-3.077
					l54.503-76.167c0.708-0.99,2.084-1.218,3.077-0.51c0.99,0.709,1.219,2.086,0.51,3.077l-54.503,76.167
					C977.834,1332.562,977.156,1332.881,976.469,1332.881z"/>
			</g>
		</g>
		<g>
			<g>
				<g>
					<g>
						<g>
							<rect x="1339.213" y="937.245" style="fill:#FFFFFF;" width="816.62" height="591.364"/>
							<path style="fill:#776E42;" d="M2155.834,1530.814h-816.621c-1.219,0-2.205-0.987-2.205-2.205V937.245
								c0-1.218,0.986-2.205,2.205-2.205h816.621c1.219,0,2.205,0.987,2.205,2.205v591.364
								C2158.039,1529.827,2157.053,1530.814,2155.834,1530.814z M1341.418,1526.405h812.211V939.45h-812.211V1526.405z"/>
						</g>
						<path style="fill:#ff6900;" d="M2153.799,937.245h-812.553c-1.123,0-2.034,0.928-2.034,2.073v50.406h816.621v-50.406
							C2155.833,938.173,2154.922,937.245,2153.799,937.245z"/>
						<path style="fill:#FFFFFF;" d="M1385.145,963.851c0,6.592-5.241,11.936-11.707,11.936s-11.707-5.344-11.707-11.936
							c0-6.592,5.242-11.936,11.707-11.936S1385.145,957.259,1385.145,963.851z"/>
						<ellipse style="fill:#FFFFFF;" cx="1411.264" cy="963.851" rx="11.707" ry="11.936"/>
						<path style="fill:#FFFFFF;" d="M1460.796,963.851c0,6.592-5.241,11.936-11.707,11.936c-6.466,0-11.707-5.344-11.707-11.936
							c0-6.592,5.241-11.936,11.707-11.936C1455.555,951.915,1460.796,957.259,1460.796,963.851z"/>
					</g>
					<g>
						
							<rect x="1727.622" y="1133.507" transform="matrix(-1 -1.224647e-16 1.224647e-16 -1 3822.6379 2283.231)" style="fill:#9E9569;" width="367.395" height="16.218"/>
						
							<rect x="1436.125" y="1133.507" transform="matrix(-1 -1.224647e-16 1.224647e-16 -1 3118.187 2283.231)" style="fill:#9E9569;" width="245.938" height="16.218"/>
						
							<rect x="1897.661" y="1185.905" transform="matrix(-1 -1.224647e-16 1.224647e-16 -1 3992.6775 2388.0283)" style="fill:#9E9569;" width="197.355" height="16.217"/>
						
							<rect x="1460.416" y="1185.905" transform="matrix(-1 -1.224647e-16 1.224647e-16 -1 3312.5183 2388.0283)" style="fill:#9E9569;" width="391.686" height="16.217"/>
						
							<rect x="1897.661" y="1343.102" transform="matrix(-1 -1.224647e-16 1.224647e-16 -1 3992.6775 2702.4216)" style="fill:#9E9569;" width="197.355" height="16.218"/>
						
							<rect x="1460.416" y="1343.102" transform="matrix(-1 -1.224647e-16 1.224647e-16 -1 3312.5183 2702.4216)" style="fill:#9E9569;" width="391.686" height="16.218"/>
						
							<rect x="1557.582" y="1238.305" transform="matrix(-1 -1.224647e-16 1.224647e-16 -1 3531.1411 2492.8264)" style="fill:#9E9569;" width="415.978" height="16.217"/>
						
							<rect x="1751.913" y="1290.703" transform="matrix(-1 -1.224647e-16 1.224647e-16 -1 3725.4722 2597.624)" style="fill:#9E9569;" width="221.646" height="16.217"/>
					</g>
					<g>
						<path style="fill:#D87355;" d="M2002.752,1097.364c-0.571,0-1.143-0.221-1.574-0.661l-34.655-35.335
							c-0.842-0.857-0.842-2.231,0-3.088l34.655-35.334c0.85-0.872,2.25-0.882,3.118-0.03c0.87,0.853,0.883,2.249,0.03,3.118
							l-33.141,33.79l33.141,33.792c0.853,0.87,0.84,2.265-0.03,3.118C2003.867,1097.154,2003.31,1097.364,2002.752,1097.364z"/>
						<path style="fill:#D87355;" d="M2059.522,1097.364c-0.558,0-1.115-0.21-1.544-0.631c-0.87-0.853-0.883-2.249-0.03-3.118
							l33.144-33.792l-33.144-33.79c-0.853-0.869-0.84-2.265,0.03-3.118c0.865-0.852,2.265-0.842,3.118,0.03l34.657,35.334
							c0.842,0.857,0.842,2.231,0,3.088l-34.657,35.335C2060.665,1097.143,2060.092,1097.364,2059.522,1097.364z"/>
						<path style="fill:#D87355;" d="M2016.308,1095.187c-0.301,0-0.607-0.061-0.902-0.194c-1.111-0.5-1.606-1.804-1.107-2.914
							l29.911-66.564c0.5-1.111,1.8-1.608,2.915-1.108c1.111,0.5,1.606,1.804,1.107,2.914l-29.911,66.564
							C2017.953,1094.704,2017.15,1095.187,2016.308,1095.187z"/>
					</g>
				</g>
			</g>
			<g>
				<g>
					<g>
						<polygon style="fill:#E2A18D;" points="1430.321,1097.98 1414.146,1178.222 1518.36,1201.92 1544.589,1099.064 						"/>
						<g>
							<path style="fill:#E6D0BE;" d="M1304.073,1257.484h227.336v-97.317h-135.395c-50.778,0-91.942,41.164-91.942,91.942V1257.484
								z"/>
							<g>
								<path style="fill:#363E44;" d="M1409.744,1181.759c-0.54,0-1.081-0.197-1.507-0.595l-20.059-18.769
									c-0.889-0.831-0.934-2.226-0.103-3.116c0.835-0.891,2.226-0.935,3.118-0.103l20.059,18.769
									c0.889,0.831,0.934,2.226,0.103,3.116C1410.92,1181.524,1410.332,1181.759,1409.744,1181.759z"/>
								<path style="fill:#363E44;" d="M1386.94,1188.159c-0.54,0-1.081-0.197-1.507-0.595l-20.059-18.768
									c-0.889-0.831-0.935-2.226-0.103-3.116c0.833-0.891,2.226-0.936,3.118-0.103l20.059,18.768
									c0.889,0.831,0.934,2.226,0.103,3.116C1388.116,1187.924,1387.528,1188.159,1386.94,1188.159z"/>
							</g>
						</g>
					</g>
					<g>
						<polygon style="fill:#E2A18D;" points="1665.396,1029.562 1749.531,1070.516 1774.745,959.348 1671.72,933.162 						"/>
						<g>
							<path style="fill:#E6D0BE;" d="M1830.401,1159.028l-0.768-210.538h-97.477l0.768,121.604
								c0,49.117,39.883,88.934,89.08,88.934H1830.401z"/>
							<g>
								<path style="fill:#363E44;" d="M1733.542,1081.129c-0.564,0-1.13-0.215-1.561-0.647c-0.859-0.862-0.859-2.257,0.004-3.118
									l18.799-18.768c0.857-0.859,2.256-0.861,3.118,0.002c0.859,0.862,0.859,2.258-0.004,3.118l-18.799,18.768
									C1734.671,1080.914,1734.106,1081.129,1733.542,1081.129z"/>
								<path style="fill:#363E44;" d="M1739.954,1102.466c-0.564,0-1.13-0.215-1.561-0.647c-0.859-0.861-0.859-2.258,0.004-3.118
									l18.799-18.769c0.857-0.859,2.257-0.861,3.118,0.002c0.859,0.861,0.859,2.257-0.004,3.118l-18.799,18.769
									C1741.083,1102.25,1740.519,1102.466,1739.954,1102.466z"/>
							</g>
						</g>
					</g>
					<g>
						<path style="fill:#363E44;" d="M1494.961,743.924c-33.957-22.209-76.463-27.594-104.998-19.097
							c-47.719,14.208-82.601,73.271-6.697,133.727l305.985,207.278l58.183-165.488L1494.961,743.924z"/>
						<g>
							<path style="fill:#363E44;" d="M1945.708,848.612c0,0-3.349,83.998-99.344,83.998c-89.238,0-372.958,0-372.958,0
								l17.162-190.98l249.476,34.268L1945.708,848.612z"/>
							<polygon style="fill:#363E44;" points="1607.771,897.924 1572.052,1130.554 1361.922,1130.554 1490.567,741.63 							"/>
							<path style="fill:#E6D0BE;" d="M1437.606,903.951c-0.228,0-0.463-0.037-0.693-0.113c-1.156-0.382-1.783-1.629-1.4-2.785
								l36.776-111.181c0.381-1.154,1.617-1.79,2.786-1.401c1.156,0.382,1.783,1.629,1.4,2.785l-36.776,111.181
								C1439.393,903.365,1438.531,903.951,1437.606,903.951z"/>
							<path style="fill:#E6D0BE;" d="M1590.462,1012.874c-0.118,0-0.237-0.01-0.357-0.029c-1.201-0.197-2.018-1.33-1.822-2.532
								l12.568-76.806c0.174-1.066,1.096-1.849,2.177-1.849h152.307c1.219,0,2.205,0.987,2.205,2.205
								c0,1.218-0.986,2.205-2.205,2.205h-150.434l-12.264,74.957C1592.458,1012.106,1591.523,1012.874,1590.462,1012.874z"/>
						</g>
					</g>
				</g>
				<g>
					<g>
						<g>
							<polygon style="fill:#BC8271;" points="1751.581,718.266 1842.71,709.073 1844.72,682.686 1755.828,662.495 							"/>
						</g>
						<g>
							<path style="fill:#E2A18D;" d="M1776.204,794.307c33.568,7.009,61.32-17.134,64.084-53.43l2.422-31.803l-229.322-55.775
								c-58.246-12.161-100.08,12.11-109.609,65.102l83.678,25.299L1776.204,794.307z"/>
							<path style="fill:#E2A18D;" d="M1574.166,756.545L1574.166,756.545c5.925,1.237,11.732-2.555,12.971-8.47l2.244-10.71
								c1.239-5.915-2.559-11.713-8.484-12.95l0,0c-5.925-1.237-11.732,2.555-12.971,8.47l-2.244,10.71
								C1564.443,749.51,1568.241,755.308,1574.166,756.545z"/>
							<path style="fill:#BC8271;" d="M1552.711,752.066L1552.711,752.066c5.925,1.237,11.732-2.555,12.971-8.47l2.243-10.71
								c1.239-5.915-2.559-11.713-8.484-12.95l0,0c-5.925-1.237-11.732,2.555-12.971,8.47l-2.244,10.71
								C1542.988,745.031,1546.786,750.829,1552.711,752.066z"/>
							<path style="fill:#BC8271;" d="M1531.256,747.586L1531.256,747.586c5.925,1.237,11.732-2.555,12.971-8.47l2.244-10.71
								c1.239-5.915-2.559-11.713-8.484-12.95l0,0c-5.925-1.237-11.732,2.555-12.971,8.47l-2.244,10.71
								C1521.533,740.551,1525.331,746.349,1531.256,747.586z"/>
							<path style="fill:#BC8271;" d="M1509.801,743.107L1509.801,743.107c5.925,1.237,11.732-2.555,12.971-8.47l2.244-10.71
								c1.239-5.915-2.559-11.713-8.484-12.95l0,0c-5.925-1.237-11.732,2.555-12.971,8.47l-2.244,10.71
								C1500.078,736.072,1503.876,741.87,1509.801,743.107z"/>
							<g>
								<path style="fill:#363E44;" d="M1564.844,748.945c-0.166,0-0.336-0.018-0.504-0.058c-1.186-0.278-1.923-1.464-1.645-2.649
									l3.436-14.676c0.278-1.184,1.462-1.926,2.648-1.644c1.186,0.278,1.923,1.464,1.645,2.65l-3.436,14.676
									C1566.749,748.26,1565.845,748.945,1564.844,748.945z"/>
								<path style="fill:#363E44;" d="M1544.152,743.203c-0.17,0-0.342-0.019-0.515-0.06c-1.184-0.283-1.914-1.473-1.632-2.657
									l4.272-17.867c0.284-1.184,1.481-1.909,2.657-1.632c1.184,0.283,1.914,1.473,1.632,2.657l-4.272,17.867
									C1546.053,742.523,1545.149,743.203,1544.152,743.203z"/>
								<path style="fill:#363E44;" d="M1522.239,738.295c-0.17,0-0.342-0.019-0.515-0.06c-1.184-0.283-1.914-1.472-1.632-2.657
									l4.401-18.436c0.282-1.184,1.477-1.911,2.657-1.632c1.184,0.283,1.914,1.472,1.632,2.657l-4.401,18.436
									C1524.14,737.615,1523.236,738.295,1522.239,738.295z"/>
							</g>
							<path style="fill:#363E44;" d="M1815.222,704.592c-0.172,0-0.349-0.019-0.523-0.063l-61.087-14.857
								c-1.184-0.287-1.91-1.48-1.621-2.663c0.289-1.182,1.484-1.915,2.664-1.621l61.087,14.857c1.184,0.287,1.91,1.48,1.621,2.663
								C1817.117,703.916,1816.214,704.592,1815.222,704.592z"/>
						</g>
					</g>
					<g>
						<path style="fill:#EFBC73;" d="M1970.265,882.879l59.65-177.398c0,0,19.604-60.978,18.627-82.117
							c-1.833-39.669-13.707-71.433-62.787-96.535c-38.385-19.631-100.163-23.754-151.947-4.179
							c-57.486,21.731-60.275,122.584-93.761,270.798L1970.265,882.879z"/>
						<path style="fill:#EFBC73;" d="M1833.806,522.651c0,0-59.393,15.972-75.762,74.804c-14.65,52.655-14.232,66.028-14.232,66.028
							l53.159,7.104L1833.806,522.651z"/>
						<path style="fill:#363E44;" d="M1765.441,667.916c-0.14,0-0.284-0.013-0.426-0.041c-1.195-0.235-1.974-1.394-1.74-2.589
							c3.867-19.694,7.458-34.836,10.761-48.266c0.291-1.182,1.479-1.897,2.668-1.615c1.182,0.291,1.903,1.486,1.613,2.668
							c-3.29,13.378-6.864,28.459-10.714,48.063C1767.396,667.187,1766.475,667.916,1765.441,667.916z"/>
					</g>
					<g>
						<polygon style="fill:#FFFFFF;" points="1497.711,736.656 1725.912,736.656 1725.912,745.618 1490.167,752.66 						"/>
						<path style="fill:#D87355;" d="M1367.165,762.545h202.483c7.12,0,11.827-7.387,8.81-13.826l-89.705-191.408h-236.688
							l88.167,188.128C1345.123,755.877,1355.623,762.545,1367.165,762.545z"/>
						<path style="fill:#D87355;" d="M1725.912,741.941L1725.912,741.941c0,11.435-9.285,20.704-20.738,20.704H1507.14
							l-9.703-20.704H1725.912z"/>
						<path style="fill:#FFFFFF;" d="M1400.226,658.846c3.004,7.63,9.913,12.059,15.433,9.893
							c5.519-2.166,7.559-10.107,4.555-17.737c-3.004-7.63-9.913-12.059-15.433-9.893
							C1399.261,643.276,1397.222,651.217,1400.226,658.846z"/>
					</g>
					<g>
						<g>
							<polygon style="fill:#E2A18D;" points="1922.825,747.759 2031.517,728.396 2031.517,696.497 1922.825,680.338 							"/>
							<path style="fill:#EFBC73;" d="M1930.331,566.34c6.93-11.254,25.065-25.164,38.261-26.137
								c18.624-1.374,44.763,3.591,63.346,26.885c28.115,35.243,27.068,143.896,27.068,143.896l-155.714-25.91
								C1903.291,685.074,1905.802,606.174,1930.331,566.34z"/>
							<path style="fill:#363E44;" d="M1922.55,690.343c-0.114,0-0.23-0.009-0.349-0.027l-21.174-3.371l0.063-1.942
								c0.015-0.491,1.705-49.565,14.247-89.61c0.364-1.162,1.589-1.814,2.762-1.445c1.163,0.364,1.809,1.601,1.445,2.762
								c-10.957,34.992-13.515,77.052-13.965,86.493l17.316,2.756c1.201,0.192,2.022,1.322,1.83,2.525
								C1924.552,689.57,1923.615,690.343,1922.55,690.343z"/>
						</g>
						<g>
							<path style="fill:#E2A18D;" d="M1959.381,836.91c40.989,5.362,72.136-26.188,72.136-70.068v-38.447l-280.74-46.118
								c-71.122-9.303-119.184,23.686-125.787,88.25l102.893,22.774L1959.381,836.91z"/>
							<path style="fill:#363E44;" d="M1632.874,740.014c-0.278,0-0.56-0.053-0.833-0.165c-1.128-0.461-1.669-1.747-1.208-2.874
								c16.004-39.198,52.265-59.96,102.15-58.371c1.216,0.038,2.172,1.055,2.136,2.273c-0.039,1.218-1.1,2.211-2.274,2.135
								c-47.901-1.485-82.672,18.26-97.929,55.63C1634.567,739.496,1633.742,740.014,1632.874,740.014z"/>
							<path style="fill:#E2A18D;" d="M1713.078,809.954l0.021,0.003c7.227,0.945,13.852-4.145,14.8-11.371l1.714-13.057
								c0.949-7.23-4.145-13.86-11.376-14.806l-0.021-0.003c-7.227-0.945-13.852,4.145-14.8,11.371l-1.714,13.057
								C1700.754,802.378,1705.848,809.008,1713.078,809.954z"/>
							<path style="fill:#E2A18D;" d="M1686.88,806.527l0.021,0.003c7.227,0.945,13.852-4.145,14.8-11.371l1.714-13.057
								c0.949-7.23-4.145-13.861-11.376-14.806l-0.021-0.003c-7.226-0.945-13.852,4.145-14.8,11.371l-1.714,13.057
								C1674.556,798.951,1679.649,805.581,1686.88,806.527z"/>
							<path style="fill:#E2A18D;" d="M1660.682,803.1l0.021,0.003c7.227,0.945,13.852-4.145,14.8-11.371l1.714-13.057
								c0.949-7.23-4.145-13.86-11.376-14.806l-0.021-0.003c-7.227-0.945-13.852,4.145-14.8,11.371l-1.714,13.057
								C1648.357,795.524,1653.451,802.155,1660.682,803.1z"/>
							<path style="fill:#E2A18D;" d="M1634.484,799.673l0.021,0.003c7.226,0.945,13.852-4.145,14.8-11.371l1.714-13.057
								c0.949-7.23-4.145-13.86-11.376-14.806l-0.021-0.003c-7.227-0.945-13.852,4.145-14.8,11.371l-1.714,13.057
								C1622.159,792.098,1627.253,798.728,1634.484,799.673z"/>
							<g>
								<path style="fill:#363E44;" d="M1700.978,801.226c-0.112,0-0.226-0.009-0.34-0.026c-1.204-0.187-2.028-1.315-1.841-2.517
									l3.594-23.124c0.187-1.204,1.32-2.019,2.517-1.841c1.204,0.187,2.028,1.315,1.841,2.517l-3.594,23.125
									C1702.985,800.449,1702.046,801.226,1700.978,801.226z"/>
								<path style="fill:#363E44;" d="M1675.584,796.211c-0.116,0-0.233-0.009-0.351-0.028c-1.202-0.192-2.022-1.323-1.828-2.526
									l3.499-21.864c0.189-1.204,1.32-2.028,2.526-1.828c1.201,0.192,2.02,1.323,1.828,2.526l-3.499,21.864
									C1677.586,795.439,1676.648,796.211,1675.584,796.211z"/>
								<path style="fill:#363E44;" d="M1648.795,792.311c-0.114,0-0.233-0.009-0.351-0.028c-1.202-0.192-2.02-1.322-1.828-2.525
									l3.604-22.561c0.192-1.2,1.294-2.029,2.526-1.829c1.201,0.192,2.02,1.322,1.828,2.525l-3.604,22.561
									C1650.797,791.539,1649.86,792.311,1648.795,792.311z"/>
							</g>
							<path style="fill:#363E44;" d="M1997.864,725.073c-0.119,0-0.239-0.01-0.36-0.029l-74.783-12.285
								c-1.202-0.197-2.015-1.332-1.817-2.533c0.196-1.202,1.326-2.019,2.532-1.818l74.783,12.285
								c1.202,0.197,2.015,1.332,1.817,2.533C1999.86,724.306,1998.926,725.073,1997.864,725.073z"/>
						</g>
					</g>
				</g>
				<g>
					<path style="fill:#E2A18D;" d="M1901.594,558.324l1.656-0.143c17.809-1.535,31-17.218,29.46-35.026l-9.314-107.723
						c-1.27-14.683-14.2-25.559-28.884-24.293l-12.948,1.116c-14.69,1.266-25.57,14.202-24.3,28.892l9.314,107.726
						C1868.117,546.674,1883.793,559.858,1901.594,558.324z"/>
					<g>
						<path style="fill:#E2A18D;" d="M1882.743,373.077c-2.332-0.325-24.708-3.1-38.878,11.661
							c-10.544,10.984-12.367,25.574-11.72,50.506c0.762,29.361,5.326,46.806,13.525,52.938c12.954,9.69,53.78-9.057,69.884-33.991
							c11.624-17.998,11.386-41.815,0.687-60.549C1905.572,374.961,1884.231,373.284,1882.743,373.077z"/>
						<path style="fill:#363E44;" d="M1833.571,405.975c18-6.093,23.684-5.119,25.247-2.735c1.322,2.017-0.797,4.289,0.829,6.29
							c2.722,3.348,10.242-1.065,21.22,1.986c1.278,0.355,2.307,0.729,2.984,0.993c-0.553,10.096-1.105,20.192-1.658,30.289
							c14.145,0.148,28.291,0.296,42.436,0.444c2.124-2.108,5.418-4.997,9.952-7.561c10.493-5.932,15.878-4.375,20.391-8.441
							c8.573-7.724,3.05-26.684,1.39-32.404c-5.791-19.95-19.887-31.501-25.262-35.787c-12.927-10.306-25.585-13.889-32.328-15.724
							c-7.308-1.989-29.25-7.767-52.719,0.993c-11.113,4.148-16.664,9.255-17.905,10.427c-9.151,8.646-16.388,22.984-11.937,29.296
							c1.988,2.818,4.731,1.843,8.952,4.965C1830.922,393.264,1832.853,400.443,1833.571,405.975z"/>
						<path style="fill:#363E44;" d="M1863.166,493.007c-1.023,0-1.94-0.715-2.157-1.756c-0.248-1.192,0.519-2.36,1.71-2.607
							c16.254-3.384,39.797-17.305,51.062-34.744c0.661-1.024,2.022-1.318,3.049-0.656c1.023,0.66,1.316,2.025,0.655,3.048
							c-12.337,19.103-36.961,33.151-53.865,36.669C1863.465,492.992,1863.314,493.007,1863.166,493.007z"/>
						<g>
							<path style="fill:#FFFFFF;" d="M1878.819,424.565c0,0-3.04,8.477-10.155,14.852c-1.495,1.34-9.532-13.26-7.51-13.864
								C1870.173,422.862,1878.819,424.565,1878.819,424.565z"/>
							<path style="fill:#363E44;" d="M1839.935,446.591c0,0,12.957,2.552,23.694-3.53c1.878-1.063,3.558-2.323,5.061-3.673
								c0.099-5.776-2.868-10.933-7.457-13.857c-2.048,0.605-4.117,1.436-6.109,2.564
								C1844.387,434.178,1839.935,446.591,1839.935,446.591z"/>
						</g>
						<path style="fill:#363E44;" d="M1850.714,467.117c-1.494,0-3.01-0.395-4.373-1.204c-1.047-0.621-1.391-1.974-0.771-3.021
							c0.625-1.047,1.977-1.394,3.023-0.771c1.52,0.902,3.404,0.761,4.586-0.338c1.443-1.347,0.999-3.581,0.995-3.603
							c-0.245-1.182,0.504-2.357,1.682-2.616c1.189-0.259,2.347,0.463,2.618,1.64c0.045,0.191,1.047,4.694-2.287,7.804
							C1854.693,466.401,1852.723,467.117,1850.714,467.117z"/>
						<path style="fill:#BC8271;" d="M1834.501,444.603c0.026,1.43-0.143,3.523-1.222,5.655c-1.3,2.572-2.962,3.296-2.992,4.953
							c-0.019,1.111,0.692,2.73,4.26,4.756L1834.501,444.603z"/>
						<path style="fill:#363E44;" d="M1834.546,462.172c-0.368,0-0.743-0.092-1.085-0.287c-3.662-2.078-5.422-4.273-5.379-6.712
							c0.032-1.701,0.941-2.796,1.742-3.762c0.506-0.608,1.027-1.237,1.488-2.148c0.685-1.352,1.016-2.906,0.984-4.621
							c-0.021-1.218,0.948-2.222,2.166-2.245c1.245-0.051,2.222,0.948,2.244,2.165c0.043,2.44-0.448,4.692-1.458,6.691
							c-0.687,1.354-1.464,2.291-2.03,2.975c-0.323,0.388-0.724,0.87-0.726,1.023c-0.006,0.347,0.644,1.379,3.144,2.799
							c1.059,0.601,1.432,1.947,0.831,3.006C1836.06,461.771,1835.315,462.172,1834.546,462.172z"/>
						<path style="fill:#E2A18D;" d="M1890.553,427.173c1.506-7.331,11.338-10.425,17.361-7.258
							c7.649,4.022,9.985,14.607,5.219,23.641c-3.855,7.307-11.175,11.361-17.88,10.518l-6.135-2.642
							C1889.118,451.431,1889.023,434.625,1890.553,427.173z"/>
						<path style="fill:#363E44;" d="M1897.054,456.39c-0.693,0-1.387-0.042-2.078-0.129c-1.208-0.152-2.065-1.255-1.912-2.463
							c0.151-1.206,1.212-2.066,2.463-1.912c6.025,0.757,12.305-3.005,15.656-9.36c2.274-4.309,2.829-9.191,1.527-13.395
							c-1.005-3.239-3.073-5.82-5.822-7.265c-4.982-2.62-11.494-1.171-16.198,3.612c-0.853,0.869-2.252,0.879-3.118,0.026
							c-0.868-0.854-0.881-2.25-0.026-3.118c6.074-6.177,14.669-7.956,21.396-4.424c3.792,1.995,6.625,5.497,7.979,9.862
							c1.647,5.314,0.978,11.421-1.837,16.758C1911.25,451.849,1904.196,456.39,1897.054,456.39z"/>
						<path style="fill:#363E44;" d="M1905.292,443.778c-0.469,0-0.943-0.15-1.346-0.46c-0.963-0.744-1.141-2.128-0.398-3.092
							c0.31-0.401,0.588-0.832,0.82-1.278c1.025-1.941,1.279-4.121,0.702-5.984c-0.299-0.969-0.965-2.284-2.427-3.053
							c-0.646-0.34-1.352-0.52-2.106-0.535c-1.217-0.027-2.183-1.035-2.157-2.252c0.026-1.201,1.008-2.157,2.205-2.157
							c0.015,0,0.03,0,0.047,0c1.443,0.031,2.81,0.381,4.063,1.042c2.183,1.147,3.813,3.153,4.586,5.649
							c0.922,2.974,0.553,6.38-1.01,9.345c-0.351,0.669-0.767,1.314-1.232,1.917
							C1906.605,443.483,1905.953,443.778,1905.292,443.778z"/>
					</g>
				</g>
			</g>
		</g>
		<g>
			<g>
				<g>
					<path style="fill:#FFFFFF;" d="M1102.75,1833.999l-72.014,162.383l285.317,152.149
						C1316.053,2148.531,1343.955,1887.898,1102.75,1833.999z"/>
					<path style="fill:#ff6900;" d="M1071.618,1568.99l7.163,276.239c0.928-0.109,165.208,90.828,164.06,83.004
						c-0.76-5.171,9.454-230.369,16.468-382.505c0.956-20.733-1.85-40.873-7.794-59.734l-113.386,19.19L1071.618,1568.99z"/>
					<g>
						<polygon style="fill:#9E6C5A;" points="1153.74,1961.604 1259.578,2058.227 1341.129,2010.085 1254.099,1889.565 						"/>
						<path style="fill:#E6D0BE;" d="M1162.631,2156.016h410.727c0,0-93.681-131.976-257.304-192.775l-110.838,55.539
							C1205.216,2018.78,1177.109,2088.76,1162.631,2156.016z"/>
						<path style="fill:#363E44;" d="M1317.085,2039.818c-0.497,0-0.999-0.168-1.412-0.514c-0.934-0.782-1.057-2.171-0.276-3.106
							l42.324-50.601c0.779-0.931,2.168-1.06,3.105-0.277c0.934,0.781,1.057,2.171,0.276,3.106l-42.324,50.601
							C1318.343,2039.548,1317.716,2039.818,1317.085,2039.818z"/>
						<path style="fill:#363E44;" d="M1352.001,2055.798c-0.497,0-0.999-0.168-1.412-0.514c-0.934-0.781-1.057-2.171-0.276-3.106
							l42.324-50.601c0.777-0.932,2.166-1.06,3.105-0.277c0.935,0.781,1.057,2.172,0.276,3.106l-42.324,50.601
							C1353.258,2055.529,1352.632,2055.798,1352.001,2055.798z"/>
					</g>
					<path style="fill:#ff6900;" d="M812.886,1612.272l349.811,381.017l122.578-96.591l-194.869-317.673
						c0,0-63.284-91.768-147.642-49.153C858.408,1572.487,812.886,1612.272,812.886,1612.272z"/>
					<g>
						<defs>
							<rect id="SVGID_1_" x="369.812" y="1347.631" width="885.929" height="350.447"/>
						</defs>
						<clipPath id="SVGID_00000131362192565720041620000002048922853427588995_">
							<use xlink:href="#SVGID_1_"  style="overflow:visible;"/>
						</clipPath>
						<path style="clip-path:url(#SVGID_00000131362192565720041620000002048922853427588995_);fill:#ff6900;" d="M1117.56,1368.536
							c-246.707-42.366-486.816,39.494-721.977,214.53c0,0-16.572,110.202,113.046,140.499
							c129.619,30.297,561.974-193.694,561.974-193.694l1.014,39.119l179.896-82.996
							C1232.72,1426.356,1182.24,1379.643,1117.56,1368.536z"/>
					</g>
					<path style="fill:#363E44;" d="M863.145,1629.679c-0.833,0-1.632-0.476-2.005-1.282c-0.51-1.106-0.028-2.415,1.079-2.925
						l253.78-117.135c1.109-0.515,2.416-0.027,2.926,1.078c0.51,1.106,0.028,2.415-1.079,2.925l-253.78,117.135
						C863.767,1629.614,863.453,1629.679,863.145,1629.679z"/>
					<path style="fill:#363E44;" d="M1239.992,1825.076c-0.743,0-1.466-0.375-1.884-1.054l-156.831-256.359
						c-0.635-1.039-0.308-2.396,0.732-3.032c1.033-0.635,2.394-0.308,3.032,0.73l156.831,256.359
						c0.635,1.039,0.308,2.396-0.732,3.032C1240.782,1824.972,1240.384,1825.076,1239.992,1825.076z"/>
				</g>
				<g>
					<path style="fill:#363E44;" d="M717.486,895.827c0,0-31.526,4.497-54.526-17.609c-23-22.106-82.18-35.498-130.414,1.393
						c-95.953,73.386-91.927-55.154-177.067-9.81v31.694c9.133-3.394,23.581-3.262,41.547,15.577
						c26.535,27.824,43.449,23.255,48.202,21.069c0.891-0.461,1.379-0.751,1.379-0.751s-0.47,0.332-1.379,0.751
						c-6.353,3.285-33.434,15.375-54.342-4.95c-13.382-13.009-26.051-13.326-35.407-10.495v129.466c0,0,18.407,49.523,76.584,28.547
						c58.177-20.976,73.115-89.378,133.118-63.111c60.003,26.267,47.238,31.726,103.358,4.848
						C724.658,995.566,717.486,895.827,717.486,895.827z"/>
					<g>
						<g>
							<path style="fill:#9E6C5A;" d="M722.773,1066.543c-22.938,4.727-57.493-50.688-57.493-50.688l-2.264-71.514
								c13.263-30.16,48.464-43.857,78.623-30.594c30.16,13.263,43.857,48.464,30.594,78.624
								C772.233,992.371,746.136,1061.729,722.773,1066.543z"/>
							<polygon style="fill:#9E6C5A;" points="602.574,1081.785 667.216,1165.605 672.444,1102.474 729.458,972.827 
								663.286,943.727 							"/>
							<path style="fill:#9E6C5A;" d="M759.643,1003.97c0,0,8.26,22.784,5.582,26.662c-3.197,4.629-21.615,0.211-21.615,0.211
								S760.033,1004.188,759.643,1003.97z"/>
							<g>
								<path style="fill:#FFFFFF;" d="M711.389,979.961c0,0,11.305-0.897,22.325,3.95c2.345,1.031-10.33,17.849-12.089,15.808
									C713.893,990.744,711.389,979.961,711.389,979.961z"/>
								<g>
									<defs>
										<path id="SVGID_00000140003701737521185880000015331879993239666308_" d="M711.389,979.961c0,0,16.626-1.319,29.209,7.888
											c12.582,9.207,16.356,25.454,16.356,25.454s-16.627,1.319-29.209-7.888C715.162,996.207,711.389,979.961,711.389,979.961z
											"/>
									</defs>
									<clipPath id="SVGID_00000149347193357963278450000005014259319542361737_">
										<use xlink:href="#SVGID_00000140003701737521185880000015331879993239666308_"  style="overflow:visible;"/>
									</clipPath>
									<path style="clip-path:url(#SVGID_00000149347193357963278450000005014259319542361737_);fill:#363E44;" d="
										M734.393,983.634c10.494-4.083,22.312,1.114,26.396,11.608c4.083,10.494-1.114,22.312-11.608,26.396
										c-10.495,4.084-22.312-1.113-26.396-11.608C718.701,999.535,723.898,987.717,734.393,983.634z"/>
								</g>
							</g>
							<path style="fill:#363E44;" d="M729.329,1037.27c-3.533,0-6.888-1.764-8.854-4.76c-2.19-3.337-2.289-7.728-0.252-11.183
								c0.618-1.052,1.972-1.398,3.019-0.782c1.049,0.618,1.397,1.97,0.779,3.019c-1.191,2.022-1.135,4.583,0.14,6.526
								c1.326,2.02,3.744,3.082,6.141,2.695c1.204-0.186,2.334,0.63,2.521,1.833c0.192,1.203-0.629,2.332-1.832,2.523
								C730.436,1037.227,729.88,1037.27,729.329,1037.27z"/>
							<path style="fill:#363E44;" d="M704.662,1064.425c-0.422,0-0.848-0.121-1.225-0.374
								c-19.876-13.32-39.611-44.756-40.443-46.088c-0.644-1.034-0.329-2.393,0.704-3.038c1.036-0.644,2.394-0.328,3.038,0.704
								c0.198,0.319,20.07,31.968,39.155,44.76c1.012,0.677,1.281,2.048,0.605,3.058
								C706.071,1064.083,705.373,1064.425,704.662,1064.425z"/>
						</g>
						<g>
							<path style="fill:#363E44;" d="M637.293,970.026c-7.7-17.249,14.305-51.248,38.933-64.081
								c31.752-16.545,56.029-20.782,83.51-4.917c41.494,23.955,32.938,81.566,32.938,81.566s-42.965-18.017-57.603-23.688
								c-20.581-7.974-31.599,59.451-55.234,20.988c-2.601-4.233-35.237,78.525-70.973,56.677
								C559.922,1006.651,645.464,988.332,637.293,970.026z"/>
						</g>
					</g>
					
						<ellipse transform="matrix(0.7071 -0.7071 0.7071 0.7071 -492.3276 771.2066)" style="fill:#9E6C5A;" cx="684.765" cy="979.895" rx="20.41" ry="20.41"/>
					<path style="fill:#363E44;" d="M449.89,1089.188c-6.537,0-13.248-1.523-19.561-4.542c-11.162-5.336-19.475-14.58-22.804-25.359
						c-0.359-1.164,0.291-2.399,1.456-2.758c1.161-0.36,2.399,0.294,2.756,1.455c2.969,9.608,10.438,17.875,20.496,22.683
						c10.055,4.808,21.178,5.431,30.525,1.707c13.197-5.259,22.462-17.264,31.421-28.873c0.975-1.264,1.947-2.522,2.92-3.768
						c9.635-12.335,22.972-26.672,40.742-28.046c9.398-0.714,18.332,2.38,26.966,5.385c7.041,2.45,14.321,4.983,21.618,5.283
						c9.721,0.403,19.557-3.841,27.056-11.622c7.497-7.783,11.362-17.795,10.604-27.469c-0.095-1.214,0.812-2.275,2.026-2.371
						c1.199-0.083,2.276,0.812,2.371,2.026c0.855,10.93-3.456,22.183-11.825,30.873c-8.371,8.69-19.456,13.413-30.413,12.967
						c-7.947-0.325-15.541-2.968-22.886-5.523c-8.585-2.987-16.674-5.809-25.177-5.154c-16.052,1.24-28.529,14.741-37.607,26.364
						c-0.967,1.238-1.934,2.49-2.905,3.747c-9.321,12.078-18.963,24.568-33.279,30.274
						C459.835,1088.287,454.913,1089.188,449.89,1089.188z"/>
					<path style="fill:#363E44;" d="M482.564,894.61c-18.201,0-36.489-10.763-44.202-27.393c-0.512-1.105-0.032-2.416,1.072-2.928
						c1.115-0.51,2.418-0.03,2.928,1.072c8.544,18.419,31.393,28.906,50.918,23.381c7.674-2.169,14.443-6.307,21.609-10.686
						c3.21-1.962,6.528-3.99,9.907-5.804c34.153-18.326,79.473-14.635,110.213,8.983c0.965,0.742,1.148,2.126,0.405,3.092
						c-0.741,0.965-2.125,1.15-3.092,0.405c-29.403-22.594-72.766-26.128-105.442-8.593c-3.268,1.754-6.533,3.75-9.691,5.68
						c-7.105,4.342-14.452,8.832-22.707,11.167C490.588,894.086,486.577,894.61,482.564,894.61z"/>
				</g>
				<g>
					<path style="fill:#363E44;" d="M1167.717,1362.476H958.082c-14.222,0-25.751-11.529-25.751-25.751l0,0h235.385V1362.476z"/>
					<path style="fill:#363E44;" d="M1169.276,1361.747l63.494-199.788c4.307-13.554-3.188-28.033-16.742-32.34h0l-71.293,224.329
						L1169.276,1361.747z"/>
					<path style="fill:#FFFFFF;" d="M1145.461,1328.17c-0.22,0-0.446-0.034-0.667-0.104c-1.161-0.369-1.802-1.608-1.434-2.769
						l62.4-196.346c0.37-1.162,1.613-1.797,2.769-1.434c1.161,0.369,1.802,1.608,1.434,2.769l-62.4,196.346
						C1147.263,1327.571,1146.395,1328.17,1145.461,1328.17z"/>
				</g>
				<g>
					<path style="fill:#FFFFFF;" d="M365.605,1601.04l384.415-171.078l-58.015-258.302l12.347-57.152l-151.567-57.065
						l-25.317,53.617C527.469,1111.06,402.115,1227.386,365.605,1601.04z"/>
					<g>
						<g>
							<path style="fill:#9E6C5A;" d="M1044.808,1285.597c-13.875-5.242-68.055-36.246-92.451-20.424
								c-24.571,15.935-34.218,46.728-33.549,75.905c0.084,0.084,0.177,0.178,0.259,0.262c3.575,7.254,10.04,17.561,21.564,24.439
								c13.137,7.839,20.266,3.712,35.424,9.837c25.584,10.339,30.228,32.979,39.074,28.823c6.072-2.852,3.94-16.161-1.179-27.796
								c-5.255-11.946-13.707-17.47-12.399-19.165c1.435-1.859,9.292,4.859,19.832,12.319c4.897,3.466,12.453,21.223,21.325,18.543
								c7.074-2.137,3.862-22.553-7.947-36.224c-8.354-9.671-20.65-11.558-19.841-13.743c0.607-1.64,7.906-0.336,13.86,2.653
								c9.826,4.93,17.751,23.014,25.87,20.39c7.954-2.572,4.833-20.354-5.228-33.612c-8.482-11.179-22.295-12.631-21.306-15.352
								c0.696-1.914,7.015-2.543,20.048,0.109c10.878,2.214,30.597,13.5,34.625,2.519
								C1086.177,1305.845,1065.751,1293.508,1044.808,1285.597z"/>
							<path style="fill:#9E6C5A;" d="M687.789,1303.898c-30.772,11.182-51.241,41.078-49.136,73.607
								c1.38,21.327,12.501,43.045,46.271,55.338c82.222,29.931,260.513-91.59,260.513-91.59l20.74-80.38
								C872.403,1258.979,772.491,1273.118,687.789,1303.898z"/>
						</g>
						<path style="fill:#FFFFFF;" d="M550.487,1159.393l83.442,38.339l-37.622,128.535c0,0,127.285-45.446,224.773-65.548
							l14.2,176.867l-334.297,76.561c-69.335,18.106-134.702-40.567-123.423-111.003c10.69-66.764,41.407-164.403,116.335-234.595
							C509.11,1154.294,531.514,1150.675,550.487,1159.393z"/>
						<path style="fill:#363E44;" d="M475.301,1519.681c-29.705,0-58.094-13.017-77.916-36.748c-0.779-0.934-0.655-2.325,0.28-3.106
							s2.325-0.655,3.105,0.279c24.501,29.333,62.687,41.565,99.654,31.906l77.677-17.789c1.18-0.277,2.371,0.469,2.642,1.657
							c0.271,1.186-0.469,2.369-1.656,2.641l-77.612,17.774C492.759,1518.572,483.974,1519.681,475.301,1519.681z"/>
						<path style="fill:#363E44;" d="M596.308,1328.472c-0.553,0-1.096-0.209-1.514-0.601c-0.603-0.569-0.835-1.427-0.603-2.223
							l17.729-60.574c0.342-1.169,1.561-1.842,2.737-1.497c1.167,0.342,1.839,1.568,1.496,2.736l-16.521,56.446
							c13.638-4.777,59.875-20.729,113.079-36.424c1.188-0.344,2.399,0.325,2.739,1.491c0.345,1.167-0.323,2.393-1.49,2.738
							c-63.111,18.616-116.38,37.592-116.911,37.781C596.807,1328.43,596.557,1328.472,596.308,1328.472z"/>
						<path style="fill:#363E44;" d="M620.143,1247.036c-0.228,0-0.461-0.037-0.689-0.112c-1.158-0.381-1.787-1.628-1.406-2.784
							c16.827-51.069-45.748-74.419-48.42-75.388c-1.143-0.416-1.736-1.679-1.322-2.824c0.416-1.146,1.682-1.738,2.823-1.323
							c0.695,0.252,69.275,25.773,51.109,80.915C621.932,1246.447,621.069,1247.036,620.143,1247.036z"/>
					</g>
				</g>
			</g>
			<g>
				
					<rect x="343.903" y="1659.391" transform="matrix(-1 -1.224647e-16 1.224647e-16 -1 1238.3132 3709.1521)" style="fill:#E6D0BE;" width="550.507" height="390.37"/>
				
					<rect x="457.973" y="1579.864" transform="matrix(-1.836970e-16 1 -1 -1.836970e-16 2457.0024 1218.6893)" style="fill:#FFFFFF;" width="322.366" height="515.964"/>
				<path style="fill:#E6D0BE;" d="M561.208,2058.032h16.298l0,0c0,12.226,9.911,22.137,22.137,22.137h39.027
					c12.226,0,22.137-9.911,22.137-22.137l0,0h16.297l16.298,86.613v7.243H544.91v-7.243L561.208,2058.032z"/>
				<path style="fill:#FFFFFF;" d="M693.404,2163.148H544.91c-1.219,0-2.205-0.987-2.205-2.205c0-1.218,0.986-2.205,2.205-2.205
					h148.494c1.219,0,2.205,0.987,2.205,2.205C695.609,2162.16,694.622,2163.148,693.404,2163.148z"/>
				<g>
					<rect x="380.16" y="1841.075" style="fill:#F2E6DC;" width="334.595" height="134.355"/>
					<rect x="734.121" y="1841.075" style="fill:#F2E6DC;" width="124.032" height="134.355"/>
					<g>
						<path style="fill:#ff6900;" d="M858.154,1827.778H380.16c-1.219,0-2.205-0.987-2.205-2.205v-125.312
							c0-1.218,0.986-2.205,2.205-2.205h477.994c1.219,0,2.205,0.987,2.205,2.205v125.312
							C860.359,1826.791,859.372,1827.778,858.154,1827.778z M382.365,1823.369h473.584v-120.902H382.365V1823.369z"/>
						<g>
							<path style="fill:#ff6900;" d="M833.793,1727.641H727.077c-1.219,0-2.205-0.987-2.205-2.205c0-1.218,0.986-2.205,2.205-2.205
								h106.716c1.219,0,2.205,0.987,2.205,2.205C835.998,1726.654,835.012,1727.641,833.793,1727.641z"/>
							<path style="fill:#ff6900;" d="M833.793,1744.645H709.072c-1.219,0-2.205-0.987-2.205-2.205c0-1.218,0.986-2.205,2.205-2.205
								h124.721c1.219,0,2.205,0.987,2.205,2.205C835.998,1743.658,835.012,1744.645,833.793,1744.645z"/>
							<path style="fill:#ff6900;" d="M833.793,1761.649H709.072c-1.219,0-2.205-0.987-2.205-2.205s0.986-2.205,2.205-2.205h124.721
								c1.219,0,2.205,0.987,2.205,2.205S835.012,1761.649,833.793,1761.649z"/>
						</g>
					</g>
				</g>
				
					<ellipse transform="matrix(0.1602 -0.9871 0.9871 0.1602 -1215.0024 2388.4421)" style="fill:#FFFFFF;" cx="796.137" cy="1908.253" rx="14.188" ry="14.188"/>
			</g>
		</g>
		<g>
			<g>
				<g>
					<g>
						<g>
							<path style="fill:#F2E6DC;" d="M734.236,769.697c-36.067-50.31-50.383-111.655-40.312-172.733
								c10.071-61.078,43.325-114.578,93.636-150.646c50.311-36.067,111.655-50.383,172.734-40.312
								c61.078,10.072,114.579,43.325,150.645,93.636c36.067,50.31,50.384,111.656,40.312,172.734
								c-10.072,61.078-43.326,114.579-93.636,150.646c-50.31,36.067-111.655,50.384-172.733,40.312
								C823.803,853.262,770.303,820.008,734.236,769.697z M766.129,608.87c-14.226,86.271,44.388,168.032,130.659,182.258
								c86.271,14.226,168.032-44.388,182.257-130.659c14.226-86.271-44.387-168.031-130.658-182.257
								C862.116,463.986,780.355,522.599,766.129,608.87z"/>
							<path style="fill:#FFFFFF;" d="M741.67,764.368c-34.644-48.325-48.395-107.248-38.721-165.916
								c9.674-58.667,41.615-110.056,89.94-144.7c48.325-34.644,107.248-48.395,165.916-38.721
								c58.667,9.674,110.056,41.615,144.699,89.94c34.644,48.325,48.395,107.248,38.721,165.915
								c-9.674,58.668-41.615,110.056-89.94,144.7c-48.325,34.644-107.248,48.395-165.915,38.721
								C827.702,844.634,776.314,812.693,741.67,764.368z M757.104,607.382C742.057,698.63,804.052,785.107,895.3,800.154
								c91.248,15.047,177.725-46.948,192.771-138.196c15.047-91.248-46.948-177.725-138.196-192.772
								C858.627,454.139,772.15,516.134,757.104,607.382z"/>
							<g>
								<path style="fill:#D87355;" d="M906.678,467.698c-69.667,6.652-129.654,56.776-146.9,126.682l-54.274-8.95
									c12-53.227,42.672-99.623,87.385-131.678c33.709-24.166,72.578-38.151,112.917-41.126L906.678,467.698z"/>
								<path style="fill:#E6D0BE;" d="M755.462,620.554c-7.347,86.258,52.994,165.279,139.838,179.599
									c45.594,7.518,89.997-4.199,124.893-29.189l35.514,42.106c-1.134,0.846-2.269,1.69-3.421,2.516
									c-48.325,34.644-107.248,48.395-165.915,38.721c-58.668-9.674-110.056-41.615-144.7-89.94
									c-32.054-44.713-46.207-98.5-40.482-152.763L755.462,620.554z"/>
								<path style="fill:#D3BBA3;" d="M1031.399,507.094c-22.466-19.226-50.279-32.757-81.524-37.909
									c-5.581-0.92-11.143-1.548-16.673-1.903l-0.871-55.026c8.806,0.403,17.642,1.319,26.474,2.775
									c42.111,6.944,80.47,25.362,111.58,53.075L1031.399,507.094z"/>
								<path style="fill:#EFBC73;" d="M1103.505,504.972c34.644,48.325,48.395,107.248,38.721,165.915
									c-7.988,48.446-31.174,91.918-66.218,125.107l-35.532-42.128c24.352-24.022,41.617-55.652,47.596-91.909
									c8.348-50.624-7.027-99.771-37.944-136.075l38.972-38.974C1094.17,492.645,1098.983,498.665,1103.505,504.972z"/>
							</g>
						</g>
					</g>
				</g>
			</g>
			<g>
				<g>
					
						<ellipse transform="matrix(0.0016 -1 1 0.0016 293.537 1548.4805)" style="fill:#FFFFFF;" cx="922.256" cy="627.235" rx="124.321" ry="124.338"/>
					<path style="fill:#84524D;" d="M912.783,760.184c-36.672,0.001-72.643-15.658-97.451-44.294
						c-22.464-25.932-33.484-59.059-31.029-93.277c2.457-34.219,18.091-65.434,44.028-87.895
						c53.534-46.368,134.821-40.538,181.196,12.994c9.248,10.675,16.616,22.66,21.897,35.623c0.461,1.127-0.082,2.415-1.21,2.874
						c-1.12,0.457-2.411-0.082-2.872-1.21c-5.101-12.516-12.217-24.089-21.148-34.4c-44.779-51.697-123.274-57.323-174.977-12.548
						c-25.043,21.69-40.143,51.833-42.514,84.877c-2.371,33.044,8.27,65.034,29.963,90.075
						c33.71,38.914,88.778,53.01,137.022,35.077c1.145-0.418,2.409,0.157,2.836,1.298c0.424,1.142-0.157,2.411-1.298,2.836
						C942.768,757.587,927.715,760.184,912.783,760.184z"/>
				</g>
				<g>
					<path style="fill:#D87355;" d="M844.619,631.425l35.762,14.581v20.314l-54.018-26.479v-17.122l54.018-26.479v20.313
						L844.619,631.425z"/>
					<path style="fill:#D87355;" d="M901.021,685.327h-13.489l33.628-114.697h13.489L901.021,685.327z"/>
					<path style="fill:#D87355;" d="M980.319,631.206L943.87,616.48v-20.169l54.643,26.479v17.05l-54.643,26.552v-20.241
						L980.319,631.206z"/>
				</g>
			</g>
		</g>
		<g>
			<g>
				<g>
					<path style="fill:#363E44;" d="M1974.051,2005.419c-0.127,0-0.254-0.011-0.383-0.033c-1.199-0.21-2-1.353-1.792-2.552
						c19.757-112.64,30.288-136.125,58.432-198.89l4.733-10.565c0.495-1.111,1.794-1.609,2.913-1.113
						c1.111,0.497,1.611,1.801,1.113,2.913l-4.735,10.57c-27.98,62.4-38.451,85.749-58.111,197.848
						C1976.031,2004.665,1975.101,2005.419,1974.051,2005.419z"/>
				</g>
				<g>
					<path style="fill:#363E44;" d="M1928.845,2062.494c-1.18,0-2.157-0.934-2.201-2.123
						c-6.151-165.483-48.683-233.073-93.711-304.63l-2.069-3.289c-0.648-1.03-0.338-2.391,0.693-3.04
						c1.031-0.648,2.392-0.337,3.04,0.693l2.067,3.287c45.354,72.073,88.193,140.149,94.385,306.816
						c0.045,1.216-0.904,2.24-2.121,2.285C1928.901,2062.494,1928.873,2062.494,1928.845,2062.494z"/>
				</g>
				<polygon style="fill:#D87355;" points="1996.042,2159.118 1867.926,2159.118 1853.285,1991.194 2010.683,1991.194 				"/>
			</g>
			<g>
				<g>
					<path style="fill:#ff6900;" d="M1749.052,1579.887l2.655,11.615c-5.424,2.334-10.591,5.076-15.475,8.176l-8.1-8.725h0
						l-29.549,27.433l0,0l8.119,8.745c-3.483,4.686-6.594,9.64-9.301,14.813l-11.404-3.514l-11.873,38.533l0,0l11.378,3.506
						c-0.67,5.747-0.895,11.592-0.641,17.491l-11.615,2.655l8.984,39.307l0,0l11.614-2.655c2.334,5.424,5.076,10.591,8.176,15.476
						l-8.725,8.101l0,0l27.434,29.549l8.745-8.119c4.686,3.483,9.64,6.593,14.813,9.301l-3.514,11.404l0,0l38.533,11.873h0
						l3.506-11.378c5.747,0.67,11.591,0.895,17.491,0.641l2.655,11.615l39.307-8.984l0,0l-2.655-11.614
						c5.424-2.334,10.591-5.076,15.476-8.176l8.1,8.725l0,0l29.549-27.433v0l-8.119-8.745c3.483-4.686,6.593-9.64,9.301-14.813
						l11.404,3.514l11.873-38.533l0,0l-11.378-3.506c0.67-5.747,0.895-11.592,0.641-17.491l11.614-2.655v0l-8.984-39.307
						l-11.615,2.654c-2.334-5.424-5.076-10.59-8.176-15.475l8.725-8.1v0l-27.434-29.549l-8.745,8.119
						c-4.686-3.483-9.64-6.593-14.813-9.301l3.514-11.404l0,0l-38.533-11.873l-3.506,11.378c-5.747-0.67-11.592-0.895-17.491-0.641
						l-2.655-11.615L1749.052,1579.887z M1861.595,1704.66c-2.413,17.545-12.319,33.321-27.073,43.117
						c-50.129,33.284-113.003-6.195-104.802-65.805c2.413-17.544,12.319-33.32,27.073-43.116
						C1806.921,1605.57,1869.795,1645.049,1861.595,1704.66z"/>
				</g>
				<path style="fill:#776E42;" d="M1795.484,1783.754c-16.812,0.001-33.316-4.715-47.903-13.875
					c-20.451-12.841-34.676-32.879-40.057-56.42c-9.177-40.153,9.915-81.43,46.428-100.379c1.083-0.559,2.414-0.14,2.974,0.942
					c0.56,1.081,0.14,2.411-0.941,2.972c-34.732,18.023-52.892,57.286-44.163,95.482c5.118,22.393,18.651,41.452,38.104,53.667
					c19.454,12.214,42.497,16.123,64.894,11.005c1.176-0.267,2.369,0.472,2.64,1.659c0.271,1.186-0.471,2.369-1.658,2.641
					C1809.051,1782.992,1802.24,1783.754,1795.484,1783.754z"/>
			</g>
			<g>
				<g>
					<path style="fill:#9E9569;" d="M2021.701,1673.486l1.714,7.498c-3.501,1.507-6.837,3.277-9.99,5.278l-5.229-5.633h0
						l-19.076,17.71v0l5.241,5.645c-2.249,3.025-4.257,6.223-6.005,9.563l-7.362-2.268l-7.665,24.875l0,0l7.345,2.263
						c-0.433,3.71-0.578,7.483-0.414,11.292l-7.498,1.714l5.8,25.375l0,0l7.498-1.714c1.507,3.501,3.277,6.837,5.278,9.991
						l-5.633,5.229l0,0l17.71,19.076l5.645-5.241c3.025,2.249,6.223,4.257,9.563,6.005l-2.268,7.362v0l24.875,7.665l0,0l2.263-7.345
						c3.71,0.433,7.483,0.578,11.292,0.414l1.714,7.498l25.375-5.8l0,0l-1.714-7.498c3.501-1.507,6.837-3.277,9.991-5.278
						l5.229,5.633l0,0l19.076-17.71v0l-5.241-5.645c2.249-3.025,4.257-6.223,6.005-9.563l7.362,2.268l7.665-24.876l0,0l-7.345-2.263
						c0.433-3.71,0.578-7.483,0.414-11.292l7.498-1.714v0l-5.8-25.375l-7.498,1.714c-1.507-3.501-3.277-6.837-5.278-9.99
						l5.633-5.229v0l-17.71-19.076l-5.646,5.241c-3.025-2.248-6.223-4.256-9.563-6.005l2.269-7.362v0l-24.875-7.665l-2.263,7.345
						c-3.71-0.433-7.483-0.578-11.292-0.414l-1.714-7.498L2021.701,1673.486z M2094.355,1754.036
						c-1.558,11.326-7.953,21.511-17.478,27.835c-32.362,21.487-72.951-3.999-67.657-42.482c1.558-11.326,7.953-21.51,17.477-27.835
						C2059.06,1690.066,2099.649,1715.553,2094.355,1754.036z"/>
				</g>
				<path style="fill:#776E42;" d="M2051.674,1805.879c-10.998,0-21.796-3.085-31.339-9.078
					c-13.377-8.402-22.686-21.51-26.204-36.911c-6.003-26.27,6.485-53.273,30.372-65.669c1.083-0.559,2.414-0.14,2.974,0.942
					c0.56,1.081,0.14,2.411-0.941,2.972c-22.104,11.47-33.662,36.46-28.107,60.772c3.258,14.253,11.87,26.384,24.253,34.159
					c12.381,7.774,27.041,10.263,41.302,7.004c1.18-0.275,2.368,0.472,2.64,1.659c0.271,1.186-0.471,2.369-1.658,2.641
					C2060.549,1805.379,2056.094,1805.879,2051.674,1805.879z"/>
			</g>
		</g>
	</g>
</g>
</svg>
