<?xml version="1.0" encoding="utf-8"?>
<!-- Generator: Adobe Illustrator 27.5.0, SVG Export Plug-In . SVG Version: 6.00 Build 0)  -->
<svg version="1.1" xmlns="http://www.w3.org/2000/svg" xmlns:xlink="http://www.w3.org/1999/xlink" x="0px" y="0px"
	 viewBox="0 0 2500 2500" style="enable-background:new 0 0 2500 2500;" xml:space="preserve">
-
<g id="Illustration">
	<g id="Innovative_big_data_solutions_1_">
		<circle style="fill:transparent;" cx="1250" cy="1250" r="915"/>
		<g>
			<rect x="401.197" y="583.41" style="fill:#E6D0BE;" width="649.413" height="1533.336"/>
			<g>
				<path style="fill:#BC8271;" d="M1012.409,2040.413H437.275c-1.219,0-2.205-0.986-2.205-2.205v-106.113
					c0-1.219,0.986-2.205,2.205-2.205h575.135c1.219,0,2.205,0.986,2.205,2.205v106.113
					C1014.614,2039.427,1013.628,2040.413,1012.409,2040.413z M439.479,2036.003h570.725v-101.704H439.479V2036.003z"/>
				<path style="fill:#D3BBA3;" d="M730.675,2001.546c-9.187,0-16.663-7.476-16.663-16.663s7.476-16.663,16.663-16.663
					c9.188,0,16.663,7.476,16.663,16.663S739.862,2001.546,730.675,2001.546z M730.675,1972.63c-6.756,0-12.253,5.497-12.253,12.253
					s5.497,12.254,12.253,12.254c6.757,0,12.254-5.497,12.254-12.254S737.431,1972.63,730.675,1972.63z"/>
				<rect x="468.077" y="1972.009" style="fill:#F2E6DC;" width="143.249" height="26.53"/>
				<rect x="839.739" y="1972.007" style="fill:#F2E6DC;" width="143.249" height="26.53"/>
			</g>
			<g>
				<path style="fill:#BC8271;" d="M1010.818,1901.933H435.683c-1.219,0-2.205-0.986-2.205-2.205v-106.113
					c0-1.219,0.986-2.205,2.205-2.205h575.135c1.219,0,2.205,0.986,2.205,2.205v106.113
					C1013.023,1900.947,1012.037,1901.933,1010.818,1901.933z M437.888,1897.524h570.725V1795.82H437.888V1897.524z"/>
				<path style="fill:#D3BBA3;" d="M729.084,1863.065c-9.188,0-16.663-7.474-16.663-16.661c0-9.188,7.476-16.663,16.663-16.663
					c9.187,0,16.661,7.476,16.661,16.663C745.745,1855.591,738.271,1863.065,729.084,1863.065z M729.084,1834.15
					c-6.757,0-12.254,5.497-12.254,12.254c0,6.754,5.497,12.251,12.254,12.251c6.754,0,12.251-5.497,12.251-12.251
					C741.335,1839.647,735.838,1834.15,729.084,1834.15z"/>
				<rect x="466.486" y="1833.529" style="fill:#F2E6DC;" width="143.249" height="26.53"/>
				<rect x="838.147" y="1833.527" style="fill:#F2E6DC;" width="143.249" height="26.53"/>
			</g>
			<g>
				<path style="fill:#BC8271;" d="M1010.818,1763.452H435.683c-1.219,0-2.205-0.986-2.205-2.205v-106.113
					c0-1.219,0.986-2.205,2.205-2.205h575.135c1.219,0,2.205,0.986,2.205,2.205v106.113
					C1013.023,1762.465,1012.037,1763.452,1010.818,1763.452z M437.888,1759.042h570.725v-101.704H437.888V1759.042z"/>
				<path style="fill:#D3BBA3;" d="M729.084,1724.583c-9.188,0-16.663-7.476-16.663-16.663c0-9.187,7.476-16.661,16.663-16.661
					c9.187,0,16.661,7.474,16.661,16.661C745.745,1717.107,738.271,1724.583,729.084,1724.583z M729.084,1695.669
					c-6.757,0-12.254,5.497-12.254,12.251c0,6.757,5.497,12.254,12.254,12.254c6.754,0,12.251-5.497,12.251-12.254
					C741.335,1701.166,735.838,1695.669,729.084,1695.669z"/>
				<rect x="466.486" y="1695.047" style="fill:#F2E6DC;" width="143.249" height="26.53"/>
				<rect x="838.147" y="1695.046" style="fill:#F2E6DC;" width="143.249" height="26.53"/>
			</g>
			<g>
				<path style="fill:#84524D;" d="M1014.011,1626.566H438.876c-1.219,0-2.205-0.986-2.205-2.205v-106.113
					c0-1.219,0.986-2.205,2.205-2.205h575.135c1.219,0,2.205,0.986,2.205,2.205v106.113
					C1016.216,1625.579,1015.23,1626.566,1014.011,1626.566z M441.081,1622.156h570.725v-101.704H441.081V1622.156z"/>
				<g>
					
						<ellipse transform="matrix(0.1602 -0.9871 0.9871 0.1602 -739.8457 2280.1909)" style="fill:#D3BBA3;" cx="970.098" cy="1574.888" rx="14.458" ry="14.458"/>
					<circle style="fill:#D3BBA3;" cx="922.215" cy="1573.161" r="14.458"/>
					<circle style="fill:#BC8271;" cx="874.464" cy="1573.161" r="14.458"/>
				</g>
				<path style="fill:#D87355;" d="M486.892,1613.569c-1.219,0-2.205-0.986-2.205-2.205v-79.584c0-1.219,0.986-2.205,2.205-2.205
					c1.219,0,2.205,0.986,2.205,2.205v79.584C489.096,1612.583,488.11,1613.569,486.892,1613.569z"/>
				<path style="fill:#D87355;" d="M464.613,1613.569c-1.219,0-2.205-0.986-2.205-2.205v-44.852c0-1.219,0.986-2.205,2.205-2.205
					c1.219,0,2.205,0.986,2.205,2.205v44.852C466.818,1612.583,465.832,1613.569,464.613,1613.569z"/>
				<path style="fill:#D87355;" d="M532.252,1563.53c-1.219,0-2.205-0.986-2.205-2.205v-28.751c0-1.219,0.986-2.205,2.205-2.205
					c1.219,0,2.205,0.986,2.205,2.205v28.751C534.457,1562.544,533.471,1563.53,532.252,1563.53z"/>
				<path style="fill:#D87355;" d="M509.975,1614.364c-1.219,0-2.205-0.986-2.205-2.205v-79.585c0-1.219,0.986-2.205,2.205-2.205
					c1.219,0,2.205,0.986,2.205,2.205v79.585C512.18,1613.378,511.194,1614.364,509.975,1614.364z"/>
				<path style="fill:#D87355;" d="M576.822,1587.378c-1.219,0-2.205-0.986-2.205-2.205v-54.987c0-1.219,0.986-2.205,2.205-2.205
					c1.219,0,2.205,0.986,2.205,2.205v54.987C579.027,1586.392,578.041,1587.378,576.822,1587.378z"/>
				<path style="fill:#D87355;" d="M554.545,1611.978c-1.219,0-2.205-0.986-2.205-2.205v-79.587c0-1.219,0.986-2.205,2.205-2.205
					c1.219,0,2.205,0.986,2.205,2.205v79.587C556.75,1610.992,555.764,1611.978,554.545,1611.978z"/>
				<path style="fill:#D87355;" d="M622.184,1563.53c-1.219,0-2.205-0.986-2.205-2.205v-30.342c0-1.219,0.986-2.205,2.205-2.205
					c1.219,0,2.205,0.986,2.205,2.205v30.342C624.389,1562.544,623.403,1563.53,622.184,1563.53z"/>
				<path style="fill:#D87355;" d="M599.906,1612.772c-1.219,0-2.205-0.986-2.205-2.205v-79.585c0-1.219,0.986-2.205,2.205-2.205
					s2.205,0.986,2.205,2.205v79.585C602.11,1611.786,601.124,1612.772,599.906,1612.772z"/>
			</g>
			<g>
				<path style="fill:#84524D;" d="M1015.587,1498.447H440.453c-1.219,0-2.205-0.986-2.205-2.205v-106.113
					c0-1.219,0.986-2.205,2.205-2.205h575.135c1.219,0,2.205,0.986,2.205,2.205v106.113
					C1017.792,1497.461,1016.806,1498.447,1015.587,1498.447z M442.657,1494.037h570.725v-101.704H442.657V1494.037z"/>
				<g>
					
						<ellipse transform="matrix(0.2298 -0.9732 0.9732 0.2298 -659.6386 2060.05)" style="fill:#BC8271;" cx="971.674" cy="1446.77" rx="14.458" ry="14.458"/>
					<circle style="fill:#D3BBA3;" cx="923.79" cy="1445.043" r="14.458"/>
					<circle style="fill:#D3BBA3;" cx="876.039" cy="1445.043" r="14.458"/>
				</g>
				<path style="fill:#D87355;" d="M488.468,1485.451c-1.219,0-2.205-0.986-2.205-2.205v-79.584c0-1.219,0.986-2.205,2.205-2.205
					c1.219,0,2.205,0.986,2.205,2.205v79.584C490.672,1484.465,489.686,1485.451,488.468,1485.451z"/>
				<path style="fill:#D87355;" d="M466.189,1485.451c-1.219,0-2.205-0.986-2.205-2.205v-58.785c0-1.219,0.986-2.205,2.205-2.205
					c1.219,0,2.205,0.986,2.205,2.205v58.785C468.394,1484.465,467.408,1485.451,466.189,1485.451z"/>
				<path style="fill:#D87355;" d="M533.828,1486.247c-1.219,0-2.205-0.986-2.205-2.205v-79.584c0-1.219,0.986-2.205,2.205-2.205
					s2.205,0.986,2.205,2.205v79.584C536.033,1485.261,535.047,1486.247,533.828,1486.247z"/>
				<path style="fill:#D87355;" d="M511.552,1486.247c-1.219,0-2.205-0.986-2.205-2.205v-31.587c0-1.219,0.986-2.205,2.205-2.205
					c1.219,0,2.205,0.986,2.205,2.205v31.587C513.756,1485.261,512.77,1486.247,511.552,1486.247z"/>
				<path style="fill:#D87355;" d="M578.398,1483.859c-1.219,0-2.205-0.986-2.205-2.205v-79.584c0-1.219,0.986-2.205,2.205-2.205
					c1.219,0,2.205,0.986,2.205,2.205v79.584C580.603,1482.873,579.617,1483.859,578.398,1483.859z"/>
				<path style="fill:#D87355;" d="M556.119,1483.859c-1.219,0-2.205-0.986-2.205-2.205v-24.014c0-1.219,0.986-2.205,2.205-2.205
					s2.205,0.986,2.205,2.205v24.014C558.324,1482.873,557.338,1483.859,556.119,1483.859z"/>
				<path style="fill:#D87355;" d="M623.76,1441.18c-1.219,0-2.205-0.986-2.205-2.205v-36.11c0-1.219,0.986-2.205,2.205-2.205
					c1.219,0,2.205,0.986,2.205,2.205v36.11C625.965,1440.194,624.979,1441.18,623.76,1441.18z"/>
				<path style="fill:#D87355;" d="M601.482,1484.656c-1.219,0-2.205-0.986-2.205-2.205v-62.14c0-1.219,0.986-2.205,2.205-2.205
					s2.205,0.986,2.205,2.205v62.14C603.687,1483.67,602.701,1484.656,601.482,1484.656z"/>
			</g>
			<g>
				<path style="fill:#84524D;" d="M1013.996,1360.766H438.863c-1.219,0-2.205-0.986-2.205-2.205v-106.113
					c0-1.219,0.986-2.205,2.205-2.205h575.133c1.219,0,2.205,0.986,2.205,2.205v106.113
					C1016.201,1359.78,1015.215,1360.766,1013.996,1360.766z M441.068,1356.357h570.723v-101.704H441.068V1356.357z"/>
				<g>
					
						<ellipse transform="matrix(0.2298 -0.9732 0.9732 0.2298 -526.8643 1952.4539)" style="fill:#D3BBA3;" cx="970.084" cy="1309.088" rx="14.458" ry="14.458"/>
					<circle style="fill:#BC8271;" cx="922.201" cy="1307.362" r="14.458"/>
					<circle style="fill:#BC8271;" cx="874.45" cy="1307.362" r="14.458"/>
				</g>
				<path style="fill:#D87355;" d="M486.876,1287.73c-1.219,0-2.205-0.986-2.205-2.205v-19.546c0-1.219,0.986-2.205,2.205-2.205
					c1.219,0,2.205,0.986,2.205,2.205v19.546C489.081,1286.744,488.095,1287.73,486.876,1287.73z"/>
				<path style="fill:#D87355;" d="M464.6,1347.77c-1.219,0-2.205-0.986-2.205-2.205v-79.587c0-1.219,0.986-2.205,2.205-2.205
					c1.219,0,2.205,0.986,2.205,2.205v79.587C466.805,1346.784,465.819,1347.77,464.6,1347.77z"/>
				<path style="fill:#D87355;" d="M532.239,1313.647c-1.219,0-2.205-0.986-2.205-2.205v-44.667c0-1.219,0.986-2.205,2.205-2.205
					s2.205,0.986,2.205,2.205v44.667C534.444,1312.661,533.458,1313.647,532.239,1313.647z"/>
				<path style="fill:#D87355;" d="M509.96,1348.565c-1.219,0-2.205-0.986-2.205-2.205v-79.584c0-1.219,0.986-2.205,2.205-2.205
					s2.205,0.986,2.205,2.205v79.584C512.165,1347.578,511.179,1348.565,509.96,1348.565z"/>
				<path style="fill:#D87355;" d="M576.809,1346.177c-1.219,0-2.205-0.986-2.205-2.205v-79.585c0-1.219,0.986-2.205,2.205-2.205
					c1.219,0,2.205,0.986,2.205,2.205v79.585C579.014,1345.191,578.028,1346.177,576.809,1346.177z"/>
				<path style="fill:#D87355;" d="M554.53,1346.177c-1.219,0-2.205-0.986-2.205-2.205v-79.585c0-1.219,0.986-2.205,2.205-2.205
					c1.219,0,2.205,0.986,2.205,2.205v79.585C556.735,1345.191,555.749,1346.177,554.53,1346.177z"/>
				<path style="fill:#D87355;" d="M622.169,1325.054c-1.219,0-2.205-0.986-2.205-2.205v-57.666c0-1.219,0.986-2.205,2.205-2.205
					s2.205,0.986,2.205,2.205v57.666C624.374,1324.068,623.388,1325.054,622.169,1325.054z"/>
				<path style="fill:#D87355;" d="M599.893,1346.973c-1.219,0-2.205-0.986-2.205-2.205v-59.246c0-1.219,0.986-2.205,2.205-2.205
					c1.219,0,2.205,0.986,2.205,2.205v59.246C602.098,1345.987,601.112,1346.973,599.893,1346.973z"/>
			</g>
			<g>
				<path style="fill:#84524D;" d="M1012.375,905.545H437.242c-1.219,0-2.205-0.986-2.205-2.205V797.226
					c0-1.219,0.986-2.205,2.205-2.205h575.133c1.219,0,2.205,0.986,2.205,2.205V903.34
					C1014.58,904.558,1013.594,905.545,1012.375,905.545z M439.447,901.135h570.723V799.431H439.447V901.135z"/>
				<g>
					
						<ellipse transform="matrix(0.1602 -0.9871 0.9871 0.1602 -29.5079 1673.0505)" style="fill:#BC8271;" cx="968.463" cy="853.866" rx="14.458" ry="14.458"/>
					<circle style="fill:#D3BBA3;" cx="920.58" cy="852.14" r="14.458"/>
					<circle style="fill:#D3BBA3;" cx="872.829" cy="852.14" r="14.458"/>
				</g>
				<path style="fill:#D87355;" d="M485.257,892.548c-1.219,0-2.205-0.986-2.205-2.205v-79.584c0-1.219,0.986-2.205,2.205-2.205
					c1.219,0,2.205,0.986,2.205,2.205v79.584C487.462,891.562,486.476,892.548,485.257,892.548z"/>
				<path style="fill:#D87355;" d="M462.979,892.548c-1.219,0-2.205-0.986-2.205-2.205v-58.785c0-1.219,0.986-2.205,2.205-2.205
					s2.205,0.986,2.205,2.205v58.785C465.184,891.562,464.197,892.548,462.979,892.548z"/>
				<path style="fill:#D87355;" d="M530.618,893.343c-1.219,0-2.205-0.986-2.205-2.205v-79.584c0-1.219,0.986-2.205,2.205-2.205
					c1.219,0,2.205,0.986,2.205,2.205v79.584C532.822,892.357,531.836,893.343,530.618,893.343z"/>
				<path style="fill:#D87355;" d="M508.339,893.343c-1.219,0-2.205-0.986-2.205-2.205v-31.584c0-1.219,0.986-2.205,2.205-2.205
					c1.219,0,2.205,0.986,2.205,2.205v31.584C510.544,892.357,509.558,893.343,508.339,893.343z"/>
				<path style="fill:#D87355;" d="M575.188,890.957c-1.219,0-2.205-0.986-2.205-2.205v-79.587c0-1.219,0.986-2.205,2.205-2.205
					c1.219,0,2.205,0.986,2.205,2.205v79.587C577.392,889.971,576.406,890.957,575.188,890.957z"/>
				<path style="fill:#D87355;" d="M552.909,890.957c-1.219,0-2.205-0.986-2.205-2.205v-24.014c0-1.219,0.986-2.205,2.205-2.205
					c1.219,0,2.205,0.986,2.205,2.205v24.014C555.114,889.971,554.128,890.957,552.909,890.957z"/>
				<path style="fill:#D87355;" d="M620.548,848.277c-1.219,0-2.205-0.986-2.205-2.205v-36.11c0-1.219,0.986-2.205,2.205-2.205
					s2.205,0.986,2.205,2.205v36.11C622.753,847.291,621.767,848.277,620.548,848.277z"/>
				<path style="fill:#D87355;" d="M598.271,891.752c-1.219,0-2.205-0.986-2.205-2.205v-62.138c0-1.219,0.986-2.205,2.205-2.205
					s2.205,0.986,2.205,2.205v62.138C600.476,890.765,599.49,891.752,598.271,891.752z"/>
			</g>
			<g>
				<path style="fill:#84524D;" d="M1010.786,767.862H435.653c-1.219,0-2.205-0.986-2.205-2.205V659.544
					c0-1.219,0.986-2.205,2.205-2.205h575.133c1.219,0,2.205,0.986,2.205,2.205v106.113
					C1012.991,766.876,1012.004,767.862,1010.786,767.862z M437.858,763.452h570.723V661.748H437.858V763.452z"/>
				<g>
					
						<ellipse transform="matrix(0.1602 -0.9871 0.9871 0.1602 105.0612 1555.8536)" style="fill:#D3BBA3;" cx="966.874" cy="716.185" rx="14.458" ry="14.458"/>
					<circle style="fill:#BC8271;" cx="918.99" cy="714.458" r="14.458"/>
					<circle style="fill:#BC8271;" cx="871.239" cy="714.458" r="14.458"/>
				</g>
				<path style="fill:#D87355;" d="M483.666,694.825c-1.219,0-2.205-0.986-2.205-2.205v-19.544c0-1.219,0.986-2.205,2.205-2.205
					c1.219,0,2.205,0.986,2.205,2.205v19.544C485.871,693.839,484.885,694.825,483.666,694.825z"/>
				<path style="fill:#D87355;" d="M461.39,754.865c-1.219,0-2.205-0.986-2.205-2.205v-79.584c0-1.219,0.986-2.205,2.205-2.205
					c1.219,0,2.205,0.986,2.205,2.205v79.584C463.595,753.879,462.608,754.865,461.39,754.865z"/>
				<path style="fill:#D87355;" d="M529.029,720.745c-1.219,0-2.205-0.986-2.205-2.205v-44.667c0-1.219,0.986-2.205,2.205-2.205
					c1.219,0,2.205,0.986,2.205,2.205v44.667C531.233,719.758,530.247,720.745,529.029,720.745z"/>
				<path style="fill:#D87355;" d="M506.75,755.662c-1.219,0-2.205-0.986-2.205-2.205v-79.584c0-1.219,0.986-2.205,2.205-2.205
					c1.219,0,2.205,0.986,2.205,2.205v79.584C508.955,754.676,507.969,755.662,506.75,755.662z"/>
				<path style="fill:#D87355;" d="M573.599,753.274c-1.219,0-2.205-0.986-2.205-2.205v-79.585c0-1.219,0.986-2.205,2.205-2.205
					c1.219,0,2.205,0.986,2.205,2.205v79.585C575.803,752.288,574.817,753.274,573.599,753.274z"/>
				<path style="fill:#D87355;" d="M551.32,753.274c-1.219,0-2.205-0.986-2.205-2.205v-79.585c0-1.219,0.986-2.205,2.205-2.205
					s2.205,0.986,2.205,2.205v79.585C553.525,752.288,552.539,753.274,551.32,753.274z"/>
				<path style="fill:#D87355;" d="M618.959,732.152c-1.219,0-2.205-0.986-2.205-2.205v-57.668c0-1.219,0.986-2.205,2.205-2.205
					c1.219,0,2.205,0.986,2.205,2.205v57.668C621.164,731.166,620.178,732.152,618.959,732.152z"/>
				<path style="fill:#D87355;" d="M596.68,754.071c-1.219,0-2.205-0.986-2.205-2.205V692.62c0-1.219,0.986-2.205,2.205-2.205
					s2.205,0.986,2.205,2.205v59.246C598.885,753.085,597.899,754.071,596.68,754.071z"/>
			</g>
			<g>
				<rect x="440.554" y="1140.607" style="fill:#F2E6DC;" width="571.95" height="50.934"/>
				
					<ellipse transform="matrix(0.9239 -0.3827 0.3827 0.9239 -411.0851 267.5862)" style="fill:#E6D0BE;" cx="467.082" cy="1167.127" rx="9.55" ry="9.55"/>
				<circle style="fill:#E6D0BE;" cx="990.22" cy="1166.066" r="9.55"/>
			</g>
			<g>
				<rect x="438.429" y="1051.465" style="fill:#F2E6DC;" width="571.95" height="50.934"/>
				<circle style="fill:#E6D0BE;" cx="464.958" cy="1077.986" r="9.55"/>
				<circle style="fill:#E6D0BE;" cx="988.096" cy="1076.925" r="9.55"/>
			</g>
			<g>
				<rect x="437.37" y="964.455" style="fill:#F2E6DC;" width="571.95" height="50.934"/>
				<circle style="fill:#E6D0BE;" cx="463.898" cy="990.975" r="9.55"/>
				
					<ellipse transform="matrix(0.1602 -0.9871 0.9871 0.1602 -148.201 1805.6383)" style="fill:#E6D0BE;" cx="987.037" cy="989.914" rx="9.55" ry="9.55"/>
			</g>
			<path style="fill:#363E44;" d="M1041.154,2109.503H372.641c-1.219,0-2.205-0.986-2.205-2.205V563.354
				c0-1.219,0.986-2.205,2.205-2.205h668.512c1.219,0,2.205,0.986,2.205,2.205v1543.944
				C1043.359,2108.517,1042.372,2109.503,1041.154,2109.503z M374.846,2105.093h664.103V565.559H374.846V2105.093z"/>
		</g>
		<g>
			<g>
				<path style="fill:#E6D0BE;" d="M1656.909,1200.208v513.834c0,36.675,109.038,66.407,243.544,66.407
					c134.505,0,243.543-29.732,243.543-66.407v-513.834H1656.909z"/>
				<path style="fill:#FFFFFF;" d="M1900.454,1782.653c-137.803,0-245.749-30.138-245.749-68.612v-516.037h491.496v516.037
					C2146.201,1752.516,2038.255,1782.653,1900.454,1782.653z M1659.115,1202.413v511.628c0,34.801,110.521,64.203,241.339,64.203
					s241.337-29.401,241.337-64.203v-511.628H1659.115z"/>
				<ellipse style="fill:#FFFFFF;" cx="1900.453" cy="1200.105" rx="243.544" ry="66.407"/>
				<ellipse style="fill:transparent;" cx="1900.453" cy="1195.14" rx="191.818" ry="41.912"/>
				<path style="fill:#FFFFFF;" d="M1900.454,1440.028c-137.803,0-245.749-30.138-245.749-68.61c0-1.219,0.986-2.205,2.205-2.205
					s2.205,0.986,2.205,2.205c0,34.799,110.521,64.2,241.339,64.2s241.337-29.401,241.337-64.2c0-1.219,0.986-2.205,2.205-2.205
					s2.205,0.986,2.205,2.205C2146.201,1409.89,2038.255,1440.028,1900.454,1440.028z"/>
				<path style="fill:#FFFFFF;" d="M1900.454,1611.341c-137.803,0-245.749-30.138-245.749-68.61c0-1.219,0.986-2.205,2.205-2.205
					s2.205,0.986,2.205,2.205c0,34.799,110.521,64.2,241.339,64.2s241.337-29.401,241.337-64.2c0-1.219,0.986-2.205,2.205-2.205
					s2.205,0.986,2.205,2.205C2146.201,1581.203,2038.255,1611.341,1900.454,1611.341z"/>
			</g>
			<g>
				<path style="fill:#EFBC73;" d="M1487.216,1614.926v475.634c0,33.949,100.932,61.47,225.438,61.47
					c43.364,0,83.869-3.338,118.245-9.124c64.324-10.826-0.001-527.98-0.001-527.98H1487.216z"/>
				<path style="fill:#FFD092;" d="M1830.899,2142.902c64.32-10.826,107.193-30.218,107.193-52.342v-475.634h-107.193V2142.902z"/>
				<ellipse style="fill:#FFFFFF;" cx="1712.654" cy="1614.831" rx="225.438" ry="61.47"/>
				<ellipse style="fill:#FFD092;" cx="1712.654" cy="1610.724" rx="180.248" ry="39.617"/>
				<path style="fill:#FFFFFF;" d="M1712.655,1837.083c-127.651,0-227.643-27.969-227.643-63.675c0-1.219,0.986-2.205,2.205-2.205
					c1.219,0,2.205,0.986,2.205,2.205c0,32.125,102.229,59.265,223.234,59.265s223.234-27.14,223.234-59.265
					c0-1.219,0.986-2.205,2.205-2.205c1.219,0,2.205,0.986,2.205,2.205C1940.298,1809.113,1840.306,1837.083,1712.655,1837.083z"/>
				<path style="fill:#FFFFFF;" d="M1712.655,1995.66c-127.651,0-227.643-27.969-227.643-63.675c0-1.219,0.986-2.205,2.205-2.205
					c1.219,0,2.205,0.986,2.205,2.205c0,32.125,102.229,59.265,223.234,59.265s223.234-27.14,223.234-59.265
					c0-1.219,0.986-2.205,2.205-2.205c1.219,0,2.205,0.986,2.205,2.205C1940.298,1967.69,1840.306,1995.66,1712.655,1995.66z"/>
			</g>
		</g>
		<g>
			<path style="fill:#363E44;" d="M1431.214,2165h-267.025c-19.226-168.227-49.962-402.688-49.962-402.688h-17.639
				c5.887,53.026-8.797,276.837-23.635,402.688h-290.64c5.093-91.015,10.385-184.786,15.875-281.357
				c-2.139-153.302,2.095-280.056,2.095-280.056l524.35,22.732C1433.595,1879.454,1440.938,2063.071,1431.214,2165z"/>
			<g>
				<path style="fill:#E2A18D;" d="M944.763,924.621c-19.124,3.118-37.155-9.857-40.273-28.981l-10.099-61.929
					c-3.118-19.124,9.857-37.155,28.981-40.273c19.124-3.118,37.155,9.857,40.274,28.981l10.098,61.929
					C976.862,903.471,963.887,921.502,944.763,924.621z"/>
				<path style="fill:#E2A18D;" d="M914.519,704.434c3.098-0.819,32.88-8.211,54.429,9.464
					c16.034,13.152,20.873,32.601,24.057,66.449c3.75,39.86,0.423,64.212-9.657,73.844c-15.925,15.219-74.14-3.517-99.958-34.645
					c-18.636-22.469-22.191-54.742-10.785-81.835C883.979,710.693,912.542,704.956,914.519,704.434z"/>
				<g>
					<path style="fill:#FFFFFF;" d="M994.581,745.426c0.008,0.267,0.206,0.452,0.214,0.719c0.001,0.011-0.003,0.02-0.003,0.031
						c1.273,3.521,2.625,7.231,4.519,10.459c0.839,1.429,1.993,2.133,2.937,3.39c0.692,0.923,1.35,1.808,2.069,2.689
						c7.308-10.031,8.838-21.668,8.838-21.668S1004.024,741.297,994.581,745.426z"/>
					<g>
						<defs>
							<path id="SVGID_1_" d="M1013.156,741.045c0,0-2.214,16.9-14.091,27.521c-11.877,10.62-28.918,10.94-28.918,10.94
								s2.214-16.9,14.091-27.521C996.115,741.365,1013.156,741.045,1013.156,741.045z"/>
						</defs>
						<clipPath id="SVGID_00000042005935772056493060000013016729427960483004_">
							<use xlink:href="#SVGID_1_"  style="overflow:visible;"/>
						</clipPath>
						
							<ellipse transform="matrix(0.1031 -0.9947 0.9947 0.1031 123.0457 1662.5441)" style="clip-path:url(#SVGID_00000042005935772056493060000013016729427960483004_);fill:#363E44;" cx="983.45" cy="763.04" rx="20.836" ry="20.836"/>
					</g>
				</g>
				<g>
					<path style="fill:#FFFFFF;" d="M929.464,781.415c0.635,4.378,1.925,7.569,4.864,10.623c10.288-2.316,17.78-7.728,17.78-7.728
						s-9.799-9.792-23.166-12.818C928.292,774.685,929.013,778.308,929.464,781.415z"/>
					<g>
						<defs>
							<path id="SVGID_00000178179366446879890330000001833035929561927047_" d="M894.618,779.423c0,0,13.812-9.987,29.687-8.638
								c15.876,1.35,27.803,13.525,27.803,13.525s-13.812,9.987-29.687,8.637C906.546,791.598,894.618,779.423,894.618,779.423z"/>
						</defs>
						<clipPath id="SVGID_00000049925712705129591710000001972427690206626706_">
							<use xlink:href="#SVGID_00000178179366446879890330000001833035929561927047_"  style="overflow:visible;"/>
						</clipPath>
						<path style="clip-path:url(#SVGID_00000049925712705129591710000001972427690206626706_);fill:#363E44;" d="M897.595,773.511
							c6.99-9.141,20.067-10.885,29.208-3.896c9.141,6.99,10.886,20.067,3.896,29.209c-6.99,9.141-20.067,10.885-29.208,3.895
							C892.349,795.729,890.605,782.652,897.595,773.511z"/>
					</g>
				</g>
				<path style="fill:#363E44;" d="M974.722,717.176c2.953-4.384-34.516-37.42-53.246-52.719c-10.57-8.633,11.639,7.359-5.915,9.551
					c-31.227,3.897-61.303,10.657-62.951,20.086c-3.003,0.247-6.597,4.725-10.141,10.828c-13.647,23.497-14.93,52.131-4.378,77.17
					c9.651,22.899,26.874,48.288,56.894,55.783c-1.021-12.977-11.753-49.066-7.097-58.786c5.794-12.097,6.189-23.114,0.929-34.604
					C901.351,720.733,973.723,718.661,974.722,717.176z"/>
				<g>
					<path style="fill:#E2A18D;" d="M895.41,789.976c7.289,10.579,5.948,24.148-2.993,30.309c-8.942,6.161-22.099,2.579-29.387-8
						c-7.289-10.579-5.948-24.148,2.993-30.309C874.965,775.816,888.122,779.398,895.41,789.976z"/>
					<path style="fill:#363E44;" d="M872.511,810.852c-0.573,0-1.146-0.222-1.578-0.663c-0.637-0.654-1.229-1.374-1.755-2.138
						c-4.388-6.369-3.451-14.652,2.084-18.468c1.397-0.962,2.969-1.572,4.677-1.811c1.214-0.177,2.321,0.672,2.489,1.878
						c0.168,1.206-0.672,2.321-1.878,2.489c-1.023,0.142-1.959,0.504-2.786,1.074c-3.533,2.435-3.964,7.969-0.956,12.335
						c0.385,0.558,0.816,1.083,1.281,1.557c0.85,0.872,0.833,2.267-0.037,3.12C873.622,810.643,873.066,810.852,872.511,810.852z"/>
				</g>
				<path style="fill:#363E44;" d="M976.224,802.052c-0.304,0-0.614-0.062-0.909-0.196c-1.109-0.504-1.6-1.811-1.098-2.92
					c0.691-1.522,0.859-2.799,0.5-3.798c-0.336-0.932-1.077-1.447-2.588-2.429c-1.197-0.782-2.691-1.753-4.203-3.307
					c-1.931-1.987-3.421-4.444-4.427-7.301c-0.405-1.15,0.2-2.407,1.348-2.812c1.156-0.407,2.409,0.2,2.812,1.348
					c0.792,2.252,1.944,4.166,3.428,5.691c1.169,1.204,2.328,1.957,3.447,2.685c1.712,1.113,3.479,2.263,4.332,4.633
					c0.762,2.112,0.549,4.507-0.631,7.112C977.864,801.571,977.063,802.052,976.224,802.052z"/>
				<path style="fill:#363E44;" d="M966.151,823.241c-0.734,0-1.501-0.056-2.297-0.185c-5.751-0.928-8.927-4.993-9.765-6.216
					c-0.687-1.005-0.431-2.377,0.575-3.064c1.008-0.687,2.379-0.429,3.064,0.575c0.586,0.857,2.812,3.703,6.828,4.352
					c3.6,0.583,6.365-0.956,7.385-1.645c1.012-0.678,2.381-0.413,3.062,0.594c0.68,1.01,0.416,2.379-0.594,3.062
					C973.179,821.542,970.169,823.241,966.151,823.241z"/>
				<path style="fill:#363E44;" d="M963.074,861.739c-0.08,0-0.164-0.004-0.245-0.013c-44.03-4.888-57.808-21.443-58.372-22.145
					c-0.762-0.95-0.612-2.336,0.336-3.1c0.949-0.762,2.332-0.609,3.094,0.329c0.189,0.228,13.554,15.886,55.428,20.532
					c1.21,0.136,2.082,1.225,1.949,2.435C965.139,860.906,964.183,861.739,963.074,861.739z"/>
				<path style="fill:#363E44;" d="M840.691,741.255c0,0-36.475-106.162,20.753-118.163c47.552-9.972,23.139,38.384,23.139,38.384
					s25.291-42.346,56.58-30.641c23.378,8.746,20.098,33.603,20.098,33.603s37.339-6.701,16.212,23.916
					c0,0,30.523,1.479,24.715,19.214c-5.808,17.734-56.229,8.019-56.229,8.019L840.691,741.255z"/>
				<g>
					<path style="fill:#E2A18D;" d="M895.143,751.237c-0.172,0-0.347-0.019-0.521-0.062l-51.049-12.342
						c-1.182-0.286-1.91-1.477-1.623-2.661c0.286-1.182,1.481-1.912,2.661-1.623l51.049,12.342c1.182,0.286,1.91,1.477,1.623,2.661
						C897.039,750.559,896.137,751.237,895.143,751.237z"/>
					<path style="fill:#E2A18D;" d="M895.143,760.072c-0.172,0-0.347-0.019-0.521-0.063l-51.049-12.342
						c-1.182-0.286-1.91-1.477-1.623-2.661c0.286-1.182,1.481-1.914,2.661-1.624l51.049,12.342c1.182,0.286,1.91,1.477,1.623,2.661
						C897.039,759.393,896.137,760.072,895.143,760.072z"/>
					<path style="fill:#E2A18D;" d="M895.143,768.904c-0.172,0-0.347-0.019-0.521-0.062L843.573,756.5
						c-1.182-0.286-1.91-1.477-1.623-2.661c0.286-1.182,1.481-1.914,2.661-1.623l51.049,12.342c1.182,0.286,1.91,1.477,1.623,2.661
						C897.039,768.226,896.137,768.904,895.143,768.904z"/>
					<path style="fill:#E2A18D;" d="M895.143,777.738c-0.172,0-0.347-0.019-0.521-0.062l-51.049-12.342
						c-1.182-0.286-1.91-1.477-1.623-2.661c0.286-1.182,1.481-1.914,2.661-1.623l51.049,12.342c1.182,0.286,1.91,1.477,1.623,2.661
						C897.039,777.06,896.137,777.738,895.143,777.738z"/>
				</g>
				<g>
					<path style="fill:#FFFFFF;" d="M924.86,808.485c-15.979,0-28.977-13.001-28.977-28.979c0-15.978,12.998-28.977,28.977-28.977
						c15.978,0,28.979,12.999,28.979,28.977C953.839,795.484,940.839,808.485,924.86,808.485z M924.86,754.939
						c-13.545,0-24.567,11.022-24.567,24.567c0,13.548,11.022,24.57,24.567,24.57c13.547,0,24.57-11.022,24.57-24.57
						C949.43,765.961,938.408,754.939,924.86,754.939z"/>
					<path style="fill:#FFFFFF;" d="M989.612,793.366c-15.023,0-27.246-13.001-27.246-28.979c0-15.979,12.223-28.977,27.246-28.977
						c15.022,0,27.246,12.998,27.246,28.977C1016.858,780.365,1004.634,793.366,989.612,793.366z M989.612,739.819
						c-12.592,0-22.836,11.022-22.836,24.567c0,13.547,10.245,24.569,22.836,24.569c12.591,0,22.836-11.022,22.836-24.569
						C1012.448,750.841,1002.203,739.819,989.612,739.819z"/>
					<path style="fill:#FFFFFF;" d="M951.633,778.328c-1.001,0-1.91-0.687-2.145-1.705c-0.276-1.186,0.461-2.371,1.647-2.646
						l13.944-3.24c1.182-0.291,2.373,0.461,2.646,1.647c0.276,1.186-0.461,2.371-1.647,2.646l-13.944,3.24
						C951.966,778.311,951.798,778.328,951.633,778.328z"/>
					<path style="fill:#FFFFFF;" d="M898.557,786.689c-0.146,0-0.297-0.015-0.446-0.045l-11.528-2.371
						c-1.193-0.245-1.961-1.41-1.716-2.603c0.245-1.193,1.415-1.959,2.603-1.716l11.528,2.371c1.193,0.245,1.961,1.41,1.716,2.603
						C900.5,785.972,899.582,786.689,898.557,786.689z"/>
				</g>
			</g>
			<g>
				<path style="fill:#EFBC73;" d="M936.194,873.327c0,0-115.878-27.548-198.557,23.913c-54.582,33.973-43.277,91.806-23.047,108.71
					c20.23,16.904,304.193-114.066,304.193-114.066L936.194,873.327z"/>
				<path style="fill:#ff6900;" d="M651.417,1123.525c33.133,166.121,90.699,454.112,119.823,596.128h148.759l5.502-93.328
					l39.571,93.647l412.52,9.73l-50.651-261.75h151.608c31.954,0,51.586-34.978,34.941-62.255l-275.883-452.107
					c-25.628-47.142-72.921-55.729-111.223-55.905c-82.196-0.378-230.739,3.318-348.786,30.454
					C689.621,948.362,633.76,1034.996,651.417,1123.525z"/>
				<path style="fill:#EFBC73;" d="M1023.301,878.903L840.026,894.57l3.809,21.074l84.804,32.209
					c40.66,15.444,85.68-8.1,96.194-50.306L1023.301,878.903z"/>
				<g>
					<path style="fill:#363E44;" d="M1397.471,1427.064c-68.287,0-123.879-55.504-123.969-123.81l-0.157-121.765
						c-0.002-1.216,0.984-2.205,2.203-2.207l243.529-0.317c0.583,0,1.146,0.23,1.559,0.644c0.413,0.413,0.648,0.973,0.648,1.559
						l0.157,121.765c0.043,33.113-12.811,64.263-36.194,87.708c-23.385,23.446-54.498,36.38-87.614,36.422
						C1397.583,1427.064,1397.523,1427.064,1397.471,1427.064z M1277.756,1183.69l0.155,119.56
						c0.086,65.871,53.708,119.405,119.56,119.405c0.054,0,0.103,0,0.157,0c31.936-0.041,61.944-12.516,84.496-35.126
						c22.552-22.612,34.948-52.653,34.907-84.591l-0.155-119.56L1277.756,1183.69z"/>
					
						<ellipse transform="matrix(0.7071 -0.7071 0.7071 0.7071 -243.342 1258.0898)" style="fill:#EFBC73;" cx="1396.978" cy="922.785" rx="315.256" ry="315.257"/>
					<path style="fill:#363E44;" d="M1396.681,1346.999c-41.357,0-118.121-3.893-118.143-18.73
						c-0.002-1.216,0.984-2.205,2.203-2.207c1.217,0,2.205,0.986,2.207,2.203c0.006,5.049,39.338,14.323,114.575,14.325
						c75.212-0.097,114.545-9.573,114.539-14.626c-0.002-1.216,0.984-2.205,2.203-2.207c1.216,0,2.205,0.986,2.207,2.203
						c0.017,14.938-77.795,18.986-118.944,19.04C1397.249,1346.999,1396.963,1346.999,1396.681,1346.999z"/>
					<path style="fill:#363E44;" d="M1396.362,1293.623c-30.88,0-59.885-1.701-81.785-4.799
						c-36.098-5.109-36.106-11.519-36.108-13.933c-0.002-1.217,0.984-2.205,2.203-2.207c1.217,0,2.205,0.986,2.207,2.203
						c0,0.049,0.885,5.122,32.316,9.571c21.699,3.07,50.489,4.756,81.165,4.756c0.366,0,0.728,0,1.094,0
						c75.211-0.097,114.545-9.573,114.539-14.624c-0.002-1.217,0.984-2.205,2.203-2.207c1.217,0,2.205,0.986,2.207,2.203
						c0.017,14.936-77.795,18.984-118.944,19.038C1397.094,1293.623,1396.728,1293.623,1396.362,1293.623z"/>
					<g>
						<g>
							<path style="fill:#FFFFFF;" d="M1654.163,954.4l-23.614-8.252c1.908-12.25,2.804-24.498,2.748-36.645l24.559-4.658
								l-15.773-83.172l-24.614,4.668c-4.442-11.426-9.775-22.488-15.948-33.079l18.983-16.35l-55.246-64.143l-18.94,16.314
								c-9.469-7.61-19.608-14.538-30.38-20.675l8.251-23.614l-79.916-27.926l-8.251,23.614c-12.25-1.908-24.498-2.804-36.645-2.747
								l-4.657-24.559l-83.172,15.773l4.668,24.615c-11.426,4.442-22.488,9.774-33.079,15.947l-16.35-18.983l-64.143,55.246
								l16.313,18.94c-7.61,9.468-14.537,19.608-20.674,30.38l-23.614-8.251l-27.926,79.916l23.614,8.252
								c-1.908,12.25-2.803,24.497-2.747,36.645l-24.559,4.659l15.773,83.172l24.615-4.669c4.441,11.426,9.774,22.488,15.947,33.079
								l-18.983,16.35l55.246,64.143l18.94-16.313c9.469,7.61,19.609,14.537,30.38,20.674l-8.252,23.613l79.916,27.926l8.252-23.614
								c12.25,1.908,24.497,2.804,36.645,2.748l4.657,24.559l83.172-15.773l-4.667-24.615c11.426-4.442,22.488-9.774,33.079-15.947
								l16.349,18.984l64.143-55.247l-16.313-18.94c7.61-9.469,14.537-19.609,20.674-30.381l23.613,8.252L1654.163,954.4z
								 M1526.766,959.413c-25.527,66.19-99.095,101.657-166.778,80.404c-74.739-23.469-114.036-104.982-85.849-178.071
								c25.527-66.19,99.095-101.657,166.778-80.404C1515.656,804.811,1554.954,886.323,1526.766,959.413z"/>
						</g>
					</g>
					<g>
						<path style="fill:#363E44;" d="M1355.183,1163.571c-0.855,0-1.671-0.502-2.028-1.339l-99.374-232.686
							c-0.478-1.12,0.043-2.416,1.163-2.894c1.109-0.476,2.414,0.041,2.894,1.163l99.374,232.686
							c0.478,1.12-0.043,2.416-1.163,2.894C1355.767,1163.515,1355.474,1163.571,1355.183,1163.571z"/>
						<path style="fill:#363E44;" d="M1439.393,1163.463c-0.289,0-0.579-0.056-0.861-0.174c-1.12-0.476-1.645-1.77-1.169-2.892
							l98.769-232.944c0.478-1.122,1.772-1.641,2.892-1.169c1.12,0.476,1.645,1.77,1.169,2.892l-98.769,232.944
							C1441.066,1162.959,1440.25,1163.463,1439.393,1163.463z"/>
						<path style="fill:#FFFFFF;" d="M1340.339,958.968c-12.234,0-24.445-2.954-35.105-9.022c-1.059-0.603-1.43-1.949-0.827-3.006
							c0.603-1.062,1.953-1.43,3.006-0.827c22.886,13.022,53.361,10.774,74.339-4.984c-18.989-10.014-34.347-27.059-40.809-47.66
							c-4.586-14.613-4.201-28.889,1.085-40.197c6.382-13.651,20.212-22.268,33.626-20.933c15.612,1.542,26.613,15.272,31.703,27.61
							c11.11,26.927,3.71,60.316-17.548,80.172c11.642,4.976,24.408,7.219,37.084,5.934c35.238-3.566,65.673-33.957,69.288-69.189
							c0.123-1.21,1.206-2.065,2.42-1.968c1.21,0.125,2.091,1.208,1.968,2.42c-3.822,37.237-35.99,69.357-73.233,73.125
							c-14.125,1.432-28.355-1.283-41.183-7.151C1373.315,953.616,1356.804,958.968,1340.339,958.968z M1373.003,836.62
							c-10.746,0-21.822,7.487-26.977,18.519c-4.819,10.307-5.129,23.452-0.874,37.01c6.304,20.102,21.566,36.625,40.311,45.963
							c0.011-0.011,0.024-0.021,0.034-0.03c20.961-18.474,28.439-50.627,17.783-76.452c-4.599-11.155-14.387-23.553-28.06-24.903
							C1374.484,836.655,1373.743,836.62,1373.003,836.62z"/>
					</g>
				</g>
				<g>
					<g>
						<path style="fill:#E2A18D;" d="M830.658,1247.245c86.246,5.768,290.023,9.297,309.901,10.434
							c37.159,2.125,236.284,18.704,237.007,47.696c0.345,13.854-38.161,12.393-51.164,11.521
							c10.154,5.882,51.597,24.247,47.943,39.346c-4.293,17.739-57.026,3.416-57.988,3.71c10.918,4.927,55.202,22.794,52.903,34.221
							c-2.991,14.866-49.174,10.6-62.941,8.683c1.182,2.08,45.684,12.915,42.871,30.792c-2.065,13.125-44.429,9.146-62.812,7.474
							c-33.016-1.862-370.983,34.612-442.545,25.308C815.821,1462.788,792.769,1274.253,830.658,1247.245z"/>
						<g>
							<path style="fill:#363E44;" d="M1326.94,1317.751c-0.293,0-0.588-0.058-0.872-0.179c-7.069-3.042-14.4-5.618-21.794-7.65
								c-13.285-3.656-27.069-5.667-40.974-5.977c-1.217-0.028-2.181-1.036-2.155-2.254c0.028-1.199,1.01-2.155,2.205-2.155
								c0.015,0,0.032,0,0.05,0c14.267,0.319,28.411,2.384,42.044,6.136c7.588,2.086,15.115,4.726,22.369,7.848
								c1.117,0.482,1.634,1.778,1.154,2.898C1328.607,1317.251,1327.793,1317.751,1326.94,1317.751z"/>
							<path style="fill:#363E44;" d="M1317.154,1361.247c-0.213,0-0.431-0.03-0.648-0.097c-1.542-0.474-3.118-0.934-4.728-1.378
								c-13.293-3.656-27.08-5.667-40.976-5.977c-1.217-0.028-2.181-1.036-2.155-2.254c0.028-1.199,1.01-2.155,2.205-2.155
								c0.015,0,0.032,0,0.05,0c14.258,0.319,28.404,2.384,42.047,6.136c1.651,0.452,3.271,0.926,4.855,1.413
								c1.163,0.357,1.817,1.591,1.46,2.756C1318.972,1360.637,1318.098,1361.247,1317.154,1361.247z"/>
							<path style="fill:#363E44;" d="M1305.448,1404.609c-0.133,0-0.267-0.011-0.403-0.037c-8.865-1.639-17.955-2.573-27.02-2.773
								c-1.216-0.028-2.181-1.036-2.155-2.254c0.028-1.199,1.01-2.155,2.205-2.155c0.015,0,0.032,0,0.05,0
								c9.299,0.207,18.625,1.165,27.722,2.846c1.197,0.222,1.99,1.372,1.768,2.569
								C1307.418,1403.866,1306.49,1404.609,1305.448,1404.609z"/>
						</g>
					</g>
					<path style="fill:#ff6900;" d="M923.286,1063.964l88.009,179.501l131.647,4.616l17.48,209.231
						c0,0-194.213,39.762-283.624,30.781c-89.411-8.981-148.311-179.412-190.779-318.034
						C686.019,1170.058,776.378,1018.753,923.286,1063.964z"/>
					<path style="fill:#363E44;" d="M906.593,1491.6c-10.886,0-20.989-0.407-30.015-1.313
						c-79.279-7.965-133.633-141.636-167.622-241.488c-0.394-1.152,0.224-2.405,1.376-2.797c1.154-0.398,2.405,0.224,2.797,1.376
						c33.598,98.7,87.14,230.811,163.889,238.521c88.07,8.839,281.024-30.351,282.964-30.747c1.188-0.241,2.358,0.523,2.601,1.718
						c0.245,1.193-0.525,2.358-1.718,2.601C1159.118,1459.828,1002.703,1491.6,906.593,1491.6z"/>
					<path style="fill:#363E44;" d="M1098.238,1248.719c-0.028,0-0.054,0-0.08-0.002l-86.94-3.049
						c-0.812-0.028-1.544-0.502-1.901-1.232l-69.211-141.16c-0.536-1.094-0.086-2.414,1.008-2.95
						c1.098-0.543,2.418-0.086,2.95,1.008l68.629,139.974l85.62,3.004c1.216,0.041,2.168,1.064,2.125,2.28
						C1100.397,1247.782,1099.42,1248.719,1098.238,1248.719z"/>
				</g>
				<g>
					<path style="fill:#E2A18D;" d="M1449.066,1451.914c0.41,23.838-10.192,33.031-23.462,33.259
						c-13.27,0.228-24.182-8.595-24.592-32.433c-0.41-23.838,9.838-53.664,23.107-53.892
						C1437.389,1398.62,1448.656,1428.076,1449.066,1451.914z"/>
					<path style="fill:#E2A18D;" d="M1494.863,1445.902c0.475,27.629-11.813,38.283-27.193,38.548
						c-15.38,0.264-28.027-9.961-28.502-37.59c-0.475-27.628,11.402-62.197,26.782-62.462
						C1481.329,1384.134,1494.388,1418.274,1494.863,1445.902z"/>
					<path style="fill:#E2A18D;" d="M1526.028,1450.591c0.41,23.838,11.322,32.661,24.592,32.433
						c13.269-0.228,23.872-9.421,23.462-33.259c-0.41-23.838-11.677-53.294-24.947-53.066
						C1535.866,1396.927,1525.618,1426.753,1526.028,1450.591z"/>
					<path style="fill:#E2A18D;" d="M1480.051,1446.157c0.475,27.628,13.123,37.855,28.502,37.59
						c15.38-0.264,27.668-10.919,27.193-38.548c-0.475-27.628-13.534-61.768-28.913-61.504
						C1491.453,1383.959,1479.576,1418.528,1480.051,1446.157z"/>
				</g>
			</g>
		</g>
		<g>
			<g style="opacity:0.5;">
				<path style="fill:#FFFFFF;" d="M1406.352,460.138c-16.134,0-30.837,5.268-41.921,13.914c0.155-2.121,0.244-4.258,0.244-6.413
					c0-55.275-52.036-100.085-116.226-100.085c-64.19,0-116.226,44.81-116.226,100.085c0,10.737,1.971,21.075,5.606,30.771
					c-4.721-1.598-9.857-2.485-15.237-2.485c-23.024,0-41.689,16.072-41.689,35.899c0,19.827,18.665,35.899,41.689,35.899
					c21.246,0,92.561,0,125.857,0c40.162,0,127.202,0,157.904,0c34.5,0,62.468-24.084,62.468-53.793
					C1468.82,484.222,1440.852,460.138,1406.352,460.138z"/>
			</g>
			<g>
				<path style="fill:#D3BBA3;" d="M1419.597,571.583h-283.76c-24.204,0-43.894-17.092-43.894-38.102
					c0-21.01,19.69-38.104,43.894-38.104c4,0,7.939,0.465,11.754,1.387c-2.874-8.918-4.328-18.138-4.328-27.47
					c0-56.402,53.129-102.289,118.432-102.289s118.432,45.888,118.432,102.289c0,0.639-0.009,1.288-0.024,1.942
					c11.283-7.538,25.127-11.646,39.495-11.646c35.66,0,64.674,25.121,64.674,55.997S1455.257,571.583,1419.597,571.583z
					 M1135.836,499.787c-21.773,0-39.484,15.115-39.484,33.694c0,18.577,17.712,33.692,39.484,33.692h283.76
					c33.229,0,60.264-23.142,60.264-51.587c0-28.445-27.035-51.587-60.264-51.587c-15.04,0-29.446,4.776-40.565,13.446l-3.923,3.06
					l0.368-4.961c0.159-2.142,0.239-4.246,0.239-6.251c0-53.971-51.15-97.88-114.022-97.88s-114.022,43.909-114.022,97.88
					c0,10.23,1.839,20.321,5.467,29.995l1.632,4.354l-4.403-1.49C1145.728,500.583,1140.838,499.787,1135.836,499.787z"/>
			</g>
		</g>
		<g>
			<path style="fill:#ff6900;" d="M2147.221,794.808H1727.77c-1.219,0-2.205-0.986-2.205-2.205v-328.44
				c0-1.219,0.986-2.205,2.205-2.205h419.452c1.219,0,2.205,0.986,2.205,2.205v328.44
				C2149.426,793.822,2148.44,794.808,2147.221,794.808z M1729.974,790.399h415.042V466.368h-415.042V790.399z"/>
			<g>
				<rect x="1847.124" y="549.539" style="fill:#D87355;" width="33.027" height="192.276"/>
				<rect x="1900.203" y="664.619" style="fill:#D87355;" width="33.027" height="77.196"/>
				<rect x="1953.282" y="587.423" style="fill:#D87355;" width="33.027" height="154.392"/>
				<rect x="2006.361" y="514.95" style="fill:#D87355;" width="33.027" height="226.865"/>
				<rect x="2059.44" y="572.599" style="fill:#D87355;" width="33.027" height="169.216"/>
			</g>
			<path style="fill:#D3BBA3;" d="M1824.67,666.823h-66.569c-1.219,0-2.205-0.986-2.205-2.205s0.986-2.205,2.205-2.205h66.569
				c1.219,0,2.205,0.986,2.205,2.205S1825.888,666.823,1824.67,666.823z"/>
			<path style="fill:#D3BBA3;" d="M1824.67,691.475h-66.569c-1.219,0-2.205-0.986-2.205-2.205c0-1.219,0.986-2.205,2.205-2.205
				h66.569c1.219,0,2.205,0.986,2.205,2.205C1826.875,690.489,1825.888,691.475,1824.67,691.475z"/>
			<path style="fill:#D3BBA3;" d="M1824.67,716.128h-66.569c-1.219,0-2.205-0.986-2.205-2.205c0-1.219,0.986-2.205,2.205-2.205
				h66.569c1.219,0,2.205,0.986,2.205,2.205C1826.875,715.142,1825.888,716.128,1824.67,716.128z"/>
		</g>
	</g>
</g>
</svg>
